<svg id="_01-Bait" data-name="01-Bait" xmlns="http://www.w3.org/2000/svg" viewBox="0 0 64 64"><path d="M47,46a2.015,2.015,0,0,1,2,2,2.006,2.006,0,0,1-2,2H46V46Z" style="fill:#b2b888"/><polygon points="9 16 9 18 6 18 6 17 6 15 9 15 9 16" style="fill:#b2b888"/><path d="M5.59,44.59A1.955,1.955,0,0,1,7,44H8v4H7a2.006,2.006,0,0,1-2-2A1.955,1.955,0,0,1,5.59,44.59Z" style="fill:#b2b888"/><path d="M23.73,45A2,2,0,0,1,22,48H19l-1-1V45l1-1h3a1.955,1.955,0,0,1,1.41.59A1.813,1.813,0,0,1,23.73,45Z" style="fill:#b2b888"/><path d="M24.73,16A2,2,0,0,1,23,19H20l-1-1V16l1-1h3a1.955,1.955,0,0,1,1.41.59A1.813,1.813,0,0,1,24.73,16Z" style="fill:#b2b888"/><path d="M43.43,50a29.169,29.169,0,0,0-12.7,2.95C27.59,54.47,23.54,56,20,56c-7,0-12-8-12-8V45H18v2l1,1h3a2,2,0,0,0,1.73-3H25c5,0,14,3,21,3v2Z" style="fill:#f6ddc9"/><path d="M53,16v1a1,1,0,0,1-1,1H42c-7,0-12,6-20,6S9,18,9,18V16h5a1,1,0,0,0,2,0h3v2l1,1h3a2,2,0,0,0,1.73-3H25a77.213,77.213,0,0,1,10-1H53Z" style="fill:#f6ddc9"/><path d="M15,44a1,1,0,1,0-1-1A1,1,0,0,0,15,44Zm31,2v2c-7,0-16-3-21-3H23.73a1.813,1.813,0,0,0-.32-.41A1.955,1.955,0,0,0,22,44H19l-1,1H8V44s5-8,14-8S42,46,46,46Z" style="fill:#55634a"/><path d="M52.19,13.85a1,1,0,0,1,.81.98V15H35a77.213,77.213,0,0,0-10,1h-.27a1.813,1.813,0,0,0-.32-.41A1.955,1.955,0,0,0,23,15H20l-1,1H16a1,1,0,0,0-2,0H9V15a37.638,37.638,0,0,1,18-5,52.312,52.312,0,0,1,9.91.94Z" style="fill:#6293b1"/><path d="M23,22a17.729,17.729,0,0,1-11.293-4.347A4.823,4.823,0,0,1,10.443,16H9v2s5,6,13,6,13-6,20-6H52a1,1,0,0,0,1-1V16H43C36,16,31,22,23,22Z" style="fill:#efc1aa"/><path d="M19,53c-3.646,0-6.184-2.584-7.614-4.613A7.608,7.608,0,0,1,10.08,45H8v3s5,8,12,8c3.54,0,7.59-1.53,10.73-3.05A29.169,29.169,0,0,1,43.43,50H46V48a46.748,46.748,0,0,1-8.055-.888C28.963,48.18,23.98,53,19,53Z" style="fill:#efc1aa"/><path d="M43.915,45.456a2.011,2.011,0,0,1-1.965,1.45,30.064,30.064,0,0,0-4.005.206A46.748,46.748,0,0,0,46,48V46A5.807,5.807,0,0,1,43.915,45.456Z" style="fill:#455040"/><path d="M10,43.912a7.881,7.881,0,0,1,.577-2.958A18.591,18.591,0,0,0,8,44v1h2.08A8.067,8.067,0,0,1,10,43.912Z" style="fill:#455040"/><path d="M23.724,46.993A2,2,0,0,1,22,48H19l-1-1v2l1,1h3a2,2,0,0,0,1.73-3Z" style="fill:#efc1aa"/><path d="M22.128,37.034c.427.023.853.059,1.275.107a8.657,8.657,0,0,1,2.843.656c.367.185,1.04.69.621,1.07a.868.868,0,0,1-.58.133l-5.35-.041a16.077,16.077,0,0,1-2.9-.2c-.493-.095-1.073-.35-1.037-.77.032-.39.627-.728,1.049-.794a17.213,17.213,0,0,1,2.225-.19C20.887,36.992,21.508,37,22.128,37.034Z" style="fill:#6d805f"/><path d="M28.648,39.007a.921.921,0,0,0-.383.073.625.625,0,0,0-.185.83,1.427,1.427,0,0,0,.722.578c.466.208,3.531,1.093,3.168-.1C31.582,39.118,29.669,38.961,28.648,39.007Z" style="fill:#6d805f"/><circle cx="15" cy="43" r="2" style="fill:#6d805f"/><circle cx="15" cy="16" r="2" style="fill:#82b3d1"/><path d="M23,19H20l-1-1v1l1,1h3a1.99,1.99,0,0,0,1.931-2.509A2,2,0,0,1,23,19Z" style="fill:#efc1aa"/><path d="M29.128,11.034c.427.023.853.059,1.275.107a8.657,8.657,0,0,1,2.843.656c.367.185,1.04.69.621,1.07a.868.868,0,0,1-.58.133l-5.35-.041a16.077,16.077,0,0,1-2.9-.2c-.493-.1-1.073-.35-1.037-.77.032-.39.627-.728,1.049-.794a17.213,17.213,0,0,1,2.225-.19C27.887,10.992,28.508,11,29.128,11.034Z" style="fill:#82b3d1"/><circle cx="15" cy="16" r="1" style="fill:#262c3c"/><circle cx="15" cy="43" r="1" style="fill:#262c3c"/><path d="M35.262,11.532a.273.273,0,0,0-.246.185.481.481,0,0,0,.129.448.875.875,0,0,0,.44.222,4.721,4.721,0,0,0,1.263.11.133.133,0,0,0,.1-.033.26.26,0,0,0,.049-.15.631.631,0,0,0-.289-.584A2.4,2.4,0,0,0,35.262,11.532Z" style="fill:#82b3d1"/><circle cx="15" cy="16" r="2"/><path d="M62.618,16A3.983,3.983,0,0,0,60,9h-.586l.293-.293L58.293,7.293l-2,2A.974.974,0,0,0,56.3,10.7l-.006.006,2,2,1.414-1.414L59.414,11H60a2,2,0,0,1,0,4H54v-.172a2,2,0,0,0-1.626-1.965L37.1,9.953A54.171,54.171,0,0,0,27,9,38.351,38.351,0,0,0,8.724,14H6a1,1,0,0,0-1,1v1H1v2H5a1,1,0,0,0,1,1H8.555a18.725,18.725,0,0,0,1.815,1.672l1.26-1.553a16.692,16.692,0,0,1-1.63-1.5V15.575A37,37,0,0,1,27,11a52.13,52.13,0,0,1,9.725.918L47.655,14H35a74.4,74.4,0,0,0-9.816.957A2.984,2.984,0,0,0,23,14H20v2h3a1,1,0,0,1,0,2H20v2h3a3,3,0,0,0,3-3c0-.049-.012-.094-.014-.142A70.325,70.325,0,0,1,35,16H52v1H42c-3.611,0-6.73,1.5-9.746,2.949C29.133,21.449,25.906,23,22,23a15.842,15.842,0,0,1-8.471-2.526l-1.059,1.7A17.815,17.815,0,0,0,22,25c4.361,0,7.8-1.651,11.121-3.249C36.064,20.336,38.845,19,42,19H52a2,2,0,0,0,2-2h6a2,2,0,0,1,0,4h-.586l.293-.293-1.414-1.414-2,2,.006.006a.974.974,0,0,0-.006,1.408l2,2,1.414-1.414L59.414,23H60a3.983,3.983,0,0,0,2.618-7ZM7,16H8v1H7Z"/><path d="M64,45a4,4,0,0,0-4-4H57.414l.293-.293-1.414-1.414-2,2A1,1,0,0,0,55,43h5a2,2,0,0,1,0,4H49.816A3,3,0,0,0,47,45H46c-1.328,0-4.12-1.643-7.077-3.382C33.911,38.669,27.672,35,22,35c-8.256,0-13.257,6.2-14.53,8H7a3,3,0,0,0-2.816,2H1v2H4.184A3,3,0,0,0,7,49h.466a24.486,24.486,0,0,0,1.787,2.251l1.492-1.332A22.082,22.082,0,0,1,9,47.7V44.306C9.879,43.05,14.506,37,22,37c5.128,0,11.1,3.517,15.909,6.342,2.9,1.706,5.291,3.112,7.091,3.531v.1a73.6,73.6,0,0,1-10.991-1.641A51.884,51.884,0,0,0,25,44c-.268,0-.52.005-.771.011A2.981,2.981,0,0,0,22,43H19v2h3a1,1,0,0,1,0,2H19v2h3a3,3,0,0,0,3-3,50.892,50.892,0,0,1,8.614,1.292A74.354,74.354,0,0,0,45,48.973V49H43.428A30.4,30.4,0,0,0,30.3,52.047C26.3,53.979,22.739,55,20,55a9.6,9.6,0,0,1-4.527-1.221l-.942,1.763A11.553,11.553,0,0,0,20,57c3.083,0,6.84-1.061,11.168-3.152A28.385,28.385,0,0,1,43.428,51H47a3,3,0,0,0,2.816-2H60a2,2,0,0,1,0,4H55a1,1,0,0,0-.707,1.707l2,2,1.414-1.414L57.414,55H60a3.983,3.983,0,0,0,2.618-7A3.975,3.975,0,0,0,64,45ZM6,46a1,1,0,0,1,1-1v2A1,1,0,0,1,6,46Zm41,3V47a1,1,0,0,1,0,2Z"/><circle cx="15" cy="43" r="2"/><path d="M10.69,52.729A20.728,20.728,0,0,0,12.4,54.174l1.2-1.6a18.173,18.173,0,0,1-1.543-1.3Z"/></svg>