<svg id="_01-Confounded_Face" data-name="01-Confounded Face" xmlns="http://www.w3.org/2000/svg" xmlns:xlink="http://www.w3.org/1999/xlink" viewBox="0 0 64 64"><defs><linearGradient id="linear-gradient" x1="32" y1="1.304" x2="32" y2="63.304" gradientUnits="userSpaceOnUse"><stop offset="0" stop-color="#ffe100"/><stop offset="1" stop-color="#f99306"/></linearGradient><linearGradient id="linear-gradient-2" x1="18.33" y1="36.47" x2="45.67" y2="36.47" gradientUnits="userSpaceOnUse"><stop offset="0" stop-color="#b8b4b2"/><stop offset="0.143" stop-color="#d0ccc9"/><stop offset="0.374" stop-color="#f2edea"/><stop offset="0.5" stop-color="#fffaf6"/><stop offset="0.638" stop-color="#f9f5f1"/><stop offset="0.825" stop-color="#e8e5e3"/><stop offset="1" stop-color="#d1d1d1"/></linearGradient><linearGradient id="linear-gradient-3" x1="32" y1="47.038" x2="32" y2="35.193" gradientUnits="userSpaceOnUse"><stop offset="0" stop-color="#69101b"/><stop offset="0.427" stop-color="#400a10"/></linearGradient></defs><path d="M32,63C4.3,63,.962,39,1,33V31C.962,25,4.3,1,32,1h0C59.7,1,63.038,25,63,31v2C63.038,39,59.7,63,32,63Z" style="fill:url(#linear-gradient)"/><path d="M45.67,38.94A83.518,83.518,0,0,0,32,38a83.518,83.518,0,0,0-13.67.94C20.73,36.29,24.87,34,32,34S43.27,36.29,45.67,38.94Z" style="fill:url(#linear-gradient-2)"/><path d="M40.94,48.87a46.368,46.368,0,0,0-17.88,0C23.44,48.08,25.68,44,32,44S40.56,48.08,40.94,48.87Z" style="fill:#8f030e"/><path d="M49,47a3,3,0,0,1-3,3h-.48a2.83,2.83,0,0,1-.95-.16,28.86,28.86,0,0,0-3.63-.96v-.01C40.56,48.08,38.32,44,32,44s-8.56,4.08-8.94,4.87v.01a28.86,28.86,0,0,0-3.63.96,2.83,2.83,0,0,1-.95.16H18a3,3,0,0,1-3-3,13.114,13.114,0,0,1,2.12-6.5,11.947,11.947,0,0,1,1.21-1.56A83.518,83.518,0,0,1,32,38a83.518,83.518,0,0,1,13.67.94A13.141,13.141,0,0,1,49,47Z" style="fill:url(#linear-gradient-3)"/><path d="M55.045,10c.592.649,1.141,1.318,1.651,2" style="fill:none;stroke:#1d1d1b;stroke-linejoin:round;stroke-width:2px"/><path d="M8.09,53C2.05,45.666.977,36.416,1,33V31C.96,25,4.3,1,32,1c9.68,0,16.385,2.931,21.011,7" style="fill:none;stroke:#1d1d1b;stroke-linejoin:round;stroke-width:2px"/><path d="M58.061,14A34.4,34.4,0,0,1,63,30.89V33c.04,6-3.3,30-31,30-10.393,0-17.357-3.379-22-7.918" style="fill:none;stroke:#1d1d1b;stroke-linejoin:round;stroke-width:2px"/><path d="M37,7s3,6,14,6" style="fill:none;stroke:#1d1d1b;stroke-linejoin:round;stroke-width:2px"/><path d="M27,7s-3,6-14,6" style="fill:none;stroke:#1d1d1b;stroke-linejoin:round;stroke-width:2px"/><path d="M49,30s-7.22-1.8-9.657-5.415a1.041,1.041,0,0,1,0-1.17C41.78,19.805,49,18,49,18" style="fill:none;stroke:#1d1d1b;stroke-linejoin:round;stroke-width:2px"/><path d="M15,30s7.22-1.8,9.657-5.415a1.041,1.041,0,0,0,0-1.17C22.22,19.805,15,18,15,18" style="fill:none;stroke:#1d1d1b;stroke-linejoin:round;stroke-width:2px"/><path d="M23.06,48.88a28.86,28.86,0,0,0-3.63.96,2.83,2.83,0,0,1-.95.16H18a3,3,0,0,1-3-3,13.114,13.114,0,0,1,2.12-6.5,11.947,11.947,0,0,1,1.21-1.56C20.73,36.29,24.87,34,32,34s11.27,2.29,13.67,4.94A13.141,13.141,0,0,1,49,47a3,3,0,0,1-3,3h-.48a2.83,2.83,0,0,1-.95-.16,28.86,28.86,0,0,0-3.63-.96" style="fill:none;stroke:#1d1d1b;stroke-linejoin:round;stroke-width:2px"/><path d="M40.94,48.87a46.368,46.368,0,0,0-17.88,0" style="fill:none;stroke:#1d1d1b;stroke-linejoin:round;stroke-width:2px"/><path d="M41,49l-.06-.12v-.01C40.56,48.08,38.32,44,32,44s-8.56,4.08-8.94,4.87v.01L23,49" style="fill:none;stroke:#1d1d1b;stroke-linejoin:round;stroke-width:2px"/><path d="M46,39l-.33-.06A83.518,83.518,0,0,0,32,38a83.518,83.518,0,0,0-13.67.94L18,39" style="fill:none;stroke:#1d1d1b;stroke-linejoin:round;stroke-width:2px"/></svg>