<svg id="_01-Mouth" data-name="01-Mouth" xmlns="http://www.w3.org/2000/svg" viewBox="0 0 64 64"><path d="M63,35v1a7.1,7.1,0,0,1-1.03,3.69A22.88,22.88,0,0,1,43,50H21A22.88,22.88,0,0,1,2.03,39.69,7.1,7.1,0,0,1,1,36V35H3.54a7.886,7.886,0,0,0,2.73-.48C8.99,33.53,15.56,30.32,21,30h1.15a4.012,4.012,0,0,1,1.37.26A14.942,14.942,0,0,0,31,32h2a14.942,14.942,0,0,0,7.48-1.74A4.012,4.012,0,0,1,41.85,30H43c5.44.32,12.01,3.53,14.73,4.52a7.886,7.886,0,0,0,2.73.48Z" style="fill:#c25769"/><path d="M63,35H60.46a7.886,7.886,0,0,1-2.73-.48C55.01,33.53,48.44,30.32,43,30H41.85a4.012,4.012,0,0,0-1.37.26A14.942,14.942,0,0,1,33,32H31a14.942,14.942,0,0,1-7.48-1.74A4.012,4.012,0,0,0,22.15,30H21c-5.44.32-12.01,3.53-14.73,4.52A7.886,7.886,0,0,1,3.54,35H1v-.09a3.956,3.956,0,0,1,.41-1.76C3.29,29.33,11.49,14,22,14c5.15,0,7.59,2.17,8.53,3.31a1.911,1.911,0,0,0,2.94,0C34.41,16.17,36.85,14,42,14c10.51,0,18.71,15.33,20.59,19.15A3.956,3.956,0,0,1,63,34.91Z" style="fill:#c25769"/><path d="M1,35H3.54a7.886,7.886,0,0,0,2.73-.48C8.99,33.53,15.56,30.32,21,30h1.15a4.012,4.012,0,0,1,1.37.26A14.942,14.942,0,0,0,31,32h2a14.942,14.942,0,0,0,7.48-1.74A4.012,4.012,0,0,1,41.85,30H43c5.44.32,12.01,3.53,14.73,4.52a7.886,7.886,0,0,0,2.73.48H63v-.09a4.122,4.122,0,0,0-.049-.428C58.273,29.66,47.871,25,40.581,25c-4.581,0-5.549,2.17-6.732,3.31a2.822,2.822,0,0,1-3.7,0C28.968,27.17,28,25,23.419,25c-7.29,0-17.692,4.66-22.37,9.482A4.122,4.122,0,0,0,1,34.91Z" style="fill:#a64b56"/><path d="M50,40.878c0-4.571-3.765-8.332-8.611-8.84a4.726,4.726,0,0,0-.652.168,15.6,15.6,0,0,1-7.278,1.549H31.514a15.6,15.6,0,0,1-7.278-1.549A4.447,4.447,0,0,0,23.179,32C18.063,32.263,14,36.131,14,40.878,14,45.8,18.356,48,23.73,48H40.27C45.644,48,50,45.8,50,40.878Z" style="fill:#d45f73"/><path d="M38.051,38.3a2.56,2.56,0,0,0-1.893.955,1.8,1.8,0,0,0,.3,1.892,4.8,4.8,0,0,0,3,1.7A14.48,14.48,0,0,0,43,42.935a6.459,6.459,0,0,0,2.743-.563,5.144,5.144,0,0,0,2.082-2.616c.738-1.7-.967-2.912-2.582-2.74C42.839,37.273,40.428,37.876,38.051,38.3Z" style="fill:#f27a8c"/><path d="M26.015,39.5a.2.2,0,0,0-.136.02.354.354,0,0,0-.105.21,12.651,12.651,0,0,0-.243,1.478,1.369,1.369,0,0,0,.137,1.019.654.654,0,0,0,.395.184,5.163,5.163,0,0,0,2.1-.047.294.294,0,0,0,.16-.078.558.558,0,0,0,.091-.335l.075-1.241a1.18,1.18,0,0,0-.053-.546.651.651,0,0,0-.26-.274A4.64,4.64,0,0,0,26.015,39.5Z" style="fill:#f27a8c"/><path d="M17.643,38.046a1.4,1.4,0,0,0-1.088.131,1.693,1.693,0,0,0-.477,1.048,2.078,2.078,0,0,0-.043.9,1.5,1.5,0,0,0,.679.843,5.5,5.5,0,0,0,2.146.728,21.48,21.48,0,0,0,3.087.3,2.177,2.177,0,0,0,1.334-.275A2.263,2.263,0,0,0,24,39.911c.037-.929-.58-.834-1.317-.992C21.012,38.56,19.327,38.3,17.643,38.046Z" style="fill:#f27a8c"/><path d="M36.186,18.393a5.721,5.721,0,0,0-.466.377c-1.118,1-.721,2.3-.229,3.5a1.12,1.12,0,0,0,.474.617A1.272,1.272,0,0,0,36.5,23a11.708,11.708,0,0,0,2.37-.327,44.95,44.95,0,0,1,5.659-.267,5.022,5.022,0,0,0,1.343-.194,1.7,1.7,0,0,0,1.009-.769,1.664,1.664,0,0,0-.368-1.731,8.489,8.489,0,0,0-3.062-2.1A7.477,7.477,0,0,0,36.186,18.393Z" style="fill:#d45f73"/><path d="M27.814,18.393a5.721,5.721,0,0,1,.466.377c1.118,1,.721,2.3.229,3.5a1.12,1.12,0,0,1-.474.617A1.272,1.272,0,0,1,27.5,23a11.708,11.708,0,0,1-2.37-.327,44.95,44.95,0,0,0-5.659-.267,5.022,5.022,0,0,1-1.343-.194,1.7,1.7,0,0,1-1.009-.769,1.664,1.664,0,0,1,.368-1.731,8.489,8.489,0,0,1,3.062-2.1A7.477,7.477,0,0,1,27.814,18.393Z" style="fill:#d45f73"/><path d="M7.083,25.58,5.455,24.42c-.492.689-.953,1.372-1.384,2.036l1.678,1.089C6.164,26.9,6.61,26.245,7.083,25.58Z"/><path d="M63.491,32.707C61.213,28.083,52.932,13,42,13c-5.486,0-8.183,2.3-9.3,3.679a.949.949,0,0,1-1.4,0C30.183,15.305,27.486,13,22,13c-5.027,0-10.078,3.155-15.013,9.379l1.568,1.242C13.091,17.9,17.614,15,22,15c4.66,0,6.856,1.843,7.75,2.942a2.92,2.92,0,0,0,4.5,0C35.144,16.843,37.34,15,42,15c10.029,0,18.167,15.486,19.7,18.59a2.888,2.888,0,0,1,.145.41H60.458a6.932,6.932,0,0,1-2.387-.42c-.55-.2-1.26-.494-2.088-.835C52.624,31.361,47.547,29.269,43,29H41.851a5.01,5.01,0,0,0-1.711.319c-.166.061-.374.159-.632.284A13.49,13.49,0,0,1,33,31H31a13.49,13.49,0,0,1-6.508-1.4c-.258-.125-.466-.223-.632-.284A5.01,5.01,0,0,0,22.149,29l-1.208,0c-4.488.267-9.565,2.359-12.924,3.743-.828.341-1.538.634-2.088.835A6.932,6.932,0,0,1,3.542,34H2.158a2.888,2.888,0,0,1,.145-.41c.45-.912,1.2-2.361,2.223-4.078L2.808,28.488C1.752,30.262.975,31.761.509,32.707A5,5,0,0,0,0,34.905V36a8.07,8.07,0,0,0,1.205,4.256C3.4,43.486,9.731,51,21,51H43c11.269,0,17.6-7.514,19.8-10.744A8.07,8.07,0,0,0,64,36V34.905A5,5,0,0,0,63.491,32.707Zm-2.349,6.424C59.123,42.1,53.313,49,43,49H21C10.687,49,4.877,42.1,2.858,39.131A6.039,6.039,0,0,1,2,36H3.542a8.939,8.939,0,0,0,3.073-.541c.57-.208,1.306-.511,2.164-.865C12.015,33.261,16.905,31.245,21,31h1.149a3.035,3.035,0,0,1,1.028.2c.116.042.261.115.442.2A15.515,15.515,0,0,0,31,33h2a15.515,15.515,0,0,0,7.381-1.6c.181-.088.326-.161.442-.2a3.035,3.035,0,0,1,1.028-.2l1.09,0c4.154.247,9.044,2.263,12.28,3.6.858.354,1.594.657,2.164.865A8.939,8.939,0,0,0,60.458,36H62A6.039,6.039,0,0,1,61.142,39.131Z"/></svg>