<svg id="_01-Towels" data-name="01-Towels" xmlns="http://www.w3.org/2000/svg" viewBox="0 0 64 64"><title>01-Towels</title><path d="M50,37H22V15a3,3,0,0,1,3-3H53a3,3,0,0,0-3,3V37Z" style="fill:#ffbeaa"/><path d="M49,12a3,3,0,0,0-3,3V37h4V15a3,3,0,0,1,3-3Z" style="fill:#faa68e"/><path d="M56,15v1H50V15a3,3,0,0,1,6,0Z" style="fill:#7e8596"/><polygon points="50 43 50 44 48 44 44 44 40 44 36 44 32 44 28 44 24 44 22 44 22 43 22 37 50 37 50 43" style="fill:#ffdecf"/><polygon points="50 43.571 50 44 48 44 44 44 40 44 36 44 32 44 28 44 24 44 22 44 22 43.571 22 41 50 41 50 43.571" style="fill:#ffbeaa"/><path d="M24,44H50V34h9a4,4,0,0,1,4,4V48a4,4,0,0,1-4,4H5a4,4,0,0,1-4-4V38a4,4,0,0,1,4-4H22V44Z" style="fill:#ff73a5"/><path d="M22,47v1H54V38h9a4,4,0,0,0-4-4H50V44H22Z" style="fill:#cf6799"/><path d="M9,38H22V34H5a4,4,0,0,0-4,4V48a4,4,0,0,0,4,4V42A4,4,0,0,1,9,38Z" style="fill:#cf6799"/><path d="M22,25v9H5a4,4,0,0,1-4-4V20a4,4,0,0,1,4-4H22Z" style="fill:#b674f2"/><path d="M50,34V16h9a4,4,0,0,1,4,4V30a4,4,0,0,1-4,4Z" style="fill:#b674f2"/><path d="M22,25v9H5a4,4,0,0,1-4-4V20a4,4,0,0,1,4-4H22Z" style="fill:#b674f2"/><polygon points="54 16 50 16 50 25 50 34 54 34 54 25 54 16" style="fill:#8f4cd6"/><path d="M9,20H22V16H5a4,4,0,0,0-4,4V30a4,4,0,0,0,4,4V24A4,4,0,0,1,9,20Z" style="fill:#8f4cd6"/><rect x="23" y="44" width="2" height="4" style="fill:#faa68e"/><rect x="27" y="44" width="2" height="4" style="fill:#faa68e"/><rect x="31" y="44" width="2" height="4" style="fill:#faa68e"/><rect x="35" y="44" width="2" height="4" style="fill:#faa68e"/><rect x="39" y="44" width="2" height="4" style="fill:#faa68e"/><rect x="43" y="44" width="2" height="4" style="fill:#faa68e"/><rect x="47" y="44" width="2" height="4" style="fill:#faa68e"/><path d="M22,26H7a3.015,3.015,0,0,1-3-3,3,3,0,0,1,3-3h9v2H7a1,1,0,0,0-1,1,.957.957,0,0,0,.288.694A.974.974,0,0,0,7,24H22Z" style="fill:#7a3eb5"/><path d="M57,30H53V28h4a.957.957,0,0,0,.694-.288A.974.974,0,0,0,58,27a1,1,0,0,0-1-1H50V24h7a3,3,0,0,1,3,3,3.015,3.015,0,0,1-3,3Z" style="fill:#7a3eb5"/><path d="M22,44H7a3.015,3.015,0,0,1-3-3,3,3,0,0,1,3-3h9v2H7a1,1,0,0,0-1,1,.957.957,0,0,0,.288.694A.974.974,0,0,0,7,42H22Z" style="fill:#d72878"/><path d="M57,48H53V46h4a.957.957,0,0,0,.694-.288A.974.974,0,0,0,58,45a1,1,0,0,0-1-1H50V42h7a3,3,0,0,1,3,3,3.015,3.015,0,0,1-3,3Z" style="fill:#d72878"/><path d="M45.023,33.048c-6.724,0-11.913-1.7-15.445-5.069A14.834,14.834,0,0,1,25,18h1l1,0a13.039,13.039,0,0,0,3.985,8.56c3.468,3.288,8.838,4.787,15.968,4.444l.094,2Q46.013,33.048,45.023,33.048Z" style="fill:#cc6d58"/><path d="M46,27c-11.56,0-14.8-8.3-14.937-8.649l1.872-.7C33.05,17.946,35.872,25,46,25Z" style="fill:#cc6d58"/><path d="M64,30V20a5.006,5.006,0,0,0-5-5H57a4,4,0,0,0-4-4H25a4,4,0,0,0-4,4H5a5.006,5.006,0,0,0-5,5V30a4.982,4.982,0,0,0,2.031,4A4.982,4.982,0,0,0,0,38V48a5.006,5.006,0,0,0,5,5H59a5.006,5.006,0,0,0,5-5V38a4.982,4.982,0,0,0-2.031-4A4.982,4.982,0,0,0,64,30ZM53,13a2,2,0,0,1,2,2H51A2,2,0,0,1,53,13ZM23,43V38H49v5Zm2-30H49.537A3.97,3.97,0,0,0,49,15V36H23V15A2,2,0,0,1,25,13ZM2,30V20a3,3,0,0,1,3-3H21v7H7a.974.974,0,0,1-.712-.306A.957.957,0,0,1,6,23a1,1,0,0,1,1-1h9V20H7a3,3,0,0,0-3,3,3.015,3.015,0,0,0,3,3H21v7H5A3,3,0,0,1,2,30Zm60,8V48a3,3,0,0,1-3,3H5a3,3,0,0,1-3-3V38a3,3,0,0,1,3-3H21v7H7a.974.974,0,0,1-.712-.306A.957.957,0,0,1,6,41a1,1,0,0,1,1-1h9V38H7a3,3,0,0,0-3,3,3.015,3.015,0,0,0,3,3H21a1,1,0,0,0,1,1h1v3h2V45h2v3h2V45h2v3h2V45h2v3h2V45h2v3h2V45h2v3h2V45h2v3h2V45h1a1,1,0,0,0,1-1h6a1,1,0,0,1,1,1,.974.974,0,0,1-.306.712A.957.957,0,0,1,57,46H53v2h4a3.015,3.015,0,0,0,3-3,3,3,0,0,0-3-3H51V35h8A3,3,0,0,1,62,38Zm0-8a3,3,0,0,1-3,3H51V26h6a1,1,0,0,1,1,1,.974.974,0,0,1-.306.712A.957.957,0,0,1,57,28H53v2h4a3.015,3.015,0,0,0,3-3,3,3,0,0,0-3-3H51V17h8a3,3,0,0,1,3,3Z"/><path d="M45.023,33.048q.99,0,2.024-.049l-.094-2c-7.13.346-12.5-1.156-15.968-4.444A13.039,13.039,0,0,1,27,18l-1,0H25a14.834,14.834,0,0,0,4.578,9.979C33.11,31.347,38.3,33.048,45.023,33.048Z"/><path d="M46,27V25c-10.128,0-12.95-7.054-13.065-7.354l-1.872.7C31.2,18.7,34.44,27,46,27Z"/></svg>