<svg xmlns="http://www.w3.org/2000/svg" viewBox="0 0 64 64"><g id="_02-Fish" data-name="02-Fish"><path d="M32,63H27a4.985,4.985,0,0,1-5-5s4.23,2.42,8.46,2.09h.01a64.2,64.2,0,0,0,9.89.9A23.774,23.774,0,0,1,32,63Z" style="fill:#838182"/><path d="M35.16,58.13c.56.44,2.66,1.78,7.39,1.86-.73.38-1.47.71-2.19,1a64.2,64.2,0,0,1-9.89-.9A8.03,8.03,0,0,0,34,59,7.317,7.317,0,0,0,35.16,58.13Z" style="fill:#b8b5b7"/><path d="M38,54s1.5,4.48,5.12,5.7c-.19.1-.38.2-.57.29-4.73-.08-6.83-1.42-7.39-1.86a11.5,11.5,0,0,0,2.65-3.83,3.013,3.013,0,0,1,.16-.31Z" style="fill:#838182"/><path d="M43,48s-2.89,6.74,1.73,10.77c-.53.33-1.06.64-1.6.93h-.01C39.5,58.48,38,54,38,54l-.03-.01a15.928,15.928,0,0,1,1.12-1.93,16.7,16.7,0,0,1,3.68-3.91,1.768,1.768,0,0,1,.22-.16Z" style="fill:#b8b5b7"/><path d="M45.98,57.96c-.41.29-.83.56-1.25.81C40.11,54.74,43,48,43,48l-.01-.01a13.751,13.751,0,0,1,1.77-1.15,15.3,15.3,0,0,1,2.17-1.01L47,46A12.107,12.107,0,0,0,45.98,57.96Z" style="fill:#838182"/><path d="M50,45s-3.7,9.24-.43,9.96a23.706,23.706,0,0,1-3.59,3A12.107,12.107,0,0,1,47,46l-.07-.17a9.274,9.274,0,0,1,1.05-.36A15.2,15.2,0,0,1,50,45Z" style="fill:#b8b5b7"/><path d="M12,15.5a2.734,2.734,0,0,0,.05.5H4a3,3,0,0,1,3-3H8.09a3.11,3.11,0,0,0,1.67-.5L12,11Z" style="fill:#fac7a8"/><path d="M12.05,16a2.734,2.734,0,0,1-.05-.5V13.339l-.24.161a3.11,3.11,0,0,1-1.67.5H9a2.986,2.986,0,0,0-2.817,2H12.05Z" style="fill:#262c3c"/><path d="M18,2,17,5V15.5a2.5,2.5,0,0,1-4.95.5,2.734,2.734,0,0,1-.05-.5V6a8.05,8.05,0,0,1,.57-3.19A3,3,0,0,1,15.34,1a3.036,3.036,0,0,1,1.26.27l1.44.65Z" style="fill:#ffedd8"/><path d="M33,22a7.651,7.651,0,0,1-5,2,7.651,7.651,0,0,1-5-2l.01-.08A6.4,6.4,0,0,0,24,22c3,0,4-4,4-4V14l1-2a7.987,7.987,0,0,1,2.37,2.7A12.969,12.969,0,0,1,33,21.15Z" style="fill:#3a73a0"/><path d="M30,18.71V17.528a6.479,6.479,0,0,1,.683-2.895l.286-.571A7.371,7.371,0,0,0,29,12l-1,2v4s-1,4-4,4a6.4,6.4,0,0,1-.99-.08L23,22a7.832,7.832,0,0,0,3.806,1.887,3.83,3.83,0,0,0,2.053-1.507A6.148,6.148,0,0,0,30,18.71Z" style="fill:#5787b7"/><path d="M24,9a2,2,0,1,0-2,2A2.006,2.006,0,0,0,24,9ZM18.04,1.92,27,6s1.49.6,3.72,1.7L29,12l-1,2v4s-1,4-4,4a6.4,6.4,0,0,1-.99-.08A7.711,7.711,0,0,1,19,20V15l-2-5V5l1-3Z" style="fill:#6293b1"/><path d="M24,19a6.4,6.4,0,0,1-.99-.08A7.711,7.711,0,0,1,19,17v3a7.711,7.711,0,0,0,4.01,1.92A6.4,6.4,0,0,0,24,22c3,0,4-4,4-4V15S27,19,24,19Z" style="fill:#3a73a0"/><path d="M19,15v5a7.711,7.711,0,0,0,4.01,1.92L23,22a7.651,7.651,0,0,0,5,2,7.651,7.651,0,0,0,5-2,6.161,6.161,0,0,1-1.94,4.5,3.439,3.439,0,0,1-.4.37L29.37,27.9A5.009,5.009,0,0,1,26.25,29H22a4.985,4.985,0,0,1-5-5L4,16h8.05A2.5,2.5,0,0,0,17,15.5V10Z" style="fill:#ebb28d"/><path d="M44.76,46.84a13.751,13.751,0,0,0-1.77,1.15,1.768,1.768,0,0,0-.22.16,16.7,16.7,0,0,0-3.68,3.91L39,52l-.45-.91A14.577,14.577,0,0,1,37,44.54V43.08a27.824,27.824,0,0,0,2.87,1.23,20.385,20.385,0,0,1,4.38,2.19Z" style="fill:#475163"/><path d="M34.99,42H32l-1,3a13.653,13.653,0,0,1-4-9.66V35.2A30.724,30.724,0,0,0,34.99,42Z" style="fill:#b8b5b7"/><path d="M29.37,27.9l1.29-1.03a3.439,3.439,0,0,0,.4-.37A3.555,3.555,0,0,0,33,29l-1,1-1,1,1.69,2.32a2.815,2.815,0,0,0,.77.73l.37.23a4.706,4.706,0,0,0,4.5.27,4.164,4.164,0,0,0,.73-.44A12.083,12.083,0,0,0,45,39c2.46.82,2.9,4.99,2.98,6.47a9.274,9.274,0,0,0-1.05.36,15.3,15.3,0,0,0-2.17,1.01l-.51-.34a20.385,20.385,0,0,0-4.38-2.19A27.824,27.824,0,0,1,37,43.08c-.7-.34-1.37-.7-2-1.08h-.01A30.724,30.724,0,0,1,27,35.2,27.021,27.021,0,0,1,23,29h3.25A5.009,5.009,0,0,0,29.37,27.9Z" style="fill:#f6ddc9"/><path d="M32,30l8,3,.09.06a4.463,4.463,0,0,1-1.03,1.05,4.164,4.164,0,0,1-.73.44,4.706,4.706,0,0,1-4.5-.27l-.37-.23a2.815,2.815,0,0,1-.77-.73L31,31Z" style="fill:#b8b5b7"/><path d="M39.28,29A1.679,1.679,0,0,1,41,30.64a1.481,1.481,0,0,1-.09.51l-.32.93a3.941,3.941,0,0,1-.5.98L40,33l-8-3,1-1Z" style="fill:#c9c6c8"/><path d="M60,44c0,5.75-2.75,6.91-7.38,6.99A17.685,17.685,0,0,0,55,42a36.893,36.893,0,0,0-.76-8.79C55.35,34.21,60,38.72,60,44Z" style="fill:#c9c6c8"/><path d="M52,23l2,2-1,4-.21.1A60.837,60.837,0,0,0,48,21c-2.64-3.95-7.01-7.33-11.08-9.87L37,11h9l-1,2,3,1-1,2,4,1-1,2,3,2Z" style="fill:#c9c6c8"/><path d="M54.24,33.21A36.893,36.893,0,0,1,55,42a17.685,17.685,0,0,1-2.38,8.99,19.49,19.49,0,0,1-3.05,3.97C46.3,54.24,50,45,50,45a15.2,15.2,0,0,0-2.02.47C47.9,43.99,47.46,39.82,45,39a12.083,12.083,0,0,1-5.94-4.89,4.463,4.463,0,0,0,1.03-1.05,3.941,3.941,0,0,0,.5-.98l.32-.93a1.481,1.481,0,0,0,.09-.51A1.679,1.679,0,0,0,39.28,29H33a3.555,3.555,0,0,1-1.94-2.5A6.161,6.161,0,0,0,33,22v-.85a12.969,12.969,0,0,0-1.63-6.45A7.987,7.987,0,0,0,29,12l1.72-4.3a70.108,70.108,0,0,1,6.2,3.43C40.99,13.67,45.36,17.05,48,21a60.837,60.837,0,0,1,4.79,8.1A21.5,21.5,0,0,1,54.24,33.21Z" style="fill:#6293b1"/><path d="M38.33,34.55a4.706,4.706,0,0,1-4.5-.27l-.37-.23a2.815,2.815,0,0,1-.77-.73L31,31l1.69,5.32a2.815,2.815,0,0,0,.77.73l.37.23a4.706,4.706,0,0,0,4.5.27,4.164,4.164,0,0,0,.73-.44,4.463,4.463,0,0,0,1.03-1.05,3.7,3.7,0,0,0,.2-.326A12.949,12.949,0,0,1,39.06,34.11,4.164,4.164,0,0,1,38.33,34.55Z" style="fill:#ebb28d"/><path d="M40.91,34.15a1.481,1.481,0,0,0,.09-.51,1.6,1.6,0,0,0-.561-1.206,3.987,3.987,0,0,1-.349.626,4.463,4.463,0,0,1-1.03,1.05,12.949,12.949,0,0,0,1.226,1.624,3.887,3.887,0,0,0,.3-.654Z" style="fill:#5787b7"/><path d="M46,11H37l-.08.13c1.253.782,2.531,1.653,3.782,2.586L45,13Z" style="fill:#c9c6c8"/><path d="M50,19H46.462A22.013,22.013,0,0,1,48,21c.555.832,1.068,1.612,1.54,2.351L52,23l1-2Z" style="fill:#b8b5b7"/><path d="M52.79,29.1,53,29l1-4-2-2-2.46.351A47.9,47.9,0,0,1,52.79,29.1Z" style="fill:#c9c6c8"/><path d="M48,14l-3-1-4.3.716a41.066,41.066,0,0,1,3.351,2.775L47,16Z" style="fill:#b8b5b7"/><path d="M51,17l-4-1-2.947.491A29.565,29.565,0,0,1,46.462,19H50Z" style="fill:#c9c6c8"/><path d="M57.107,48.769a2.2,2.2,0,0,1-.756-1.788,3.538,3.538,0,0,1,.686-1.864c.321-.46.656-.795.631-1.379a3.813,3.813,0,0,0-.532-1.662,5.267,5.267,0,0,1-.927-2.336,5.731,5.731,0,0,1,.26-1.412,4.972,4.972,0,0,0-.055-2.82,21.848,21.848,0,0,0-2.174-2.3A36.893,36.893,0,0,1,55,42a17.685,17.685,0,0,1-2.38,8.99c2.836-.049,4.962-.509,6.187-2.175a1.325,1.325,0,0,1-1.7-.046Z" style="fill:#b8b5b7"/><path d="M27,35.2v.14a13.658,13.658,0,0,0,.289,2.776A22.171,22.171,0,0,0,32,42h2.99A30.724,30.724,0,0,1,27,35.2Z" style="fill:#969192"/><path d="M44.25,46.5a20.385,20.385,0,0,0-4.38-2.19A27.824,27.824,0,0,1,37,43.08v1.46c0,.215.028.427.037.642a9.355,9.355,0,0,0,2.116,1.188A1.01,1.01,0,0,1,39.5,48a5.012,5.012,0,0,0-1.288,2.307c.113.261.21.528.338.783L39,52l.09.06a16.7,16.7,0,0,1,3.68-3.91,1.768,1.768,0,0,1,.22-.16,13.751,13.751,0,0,1,1.77-1.15Z" style="fill:#313845"/><circle cx="22" cy="9" r="2" style="fill:#262c3c"/><path d="M16.6,1.27c-.066-.03-.135-.042-.2-.066l-.976,1.951A4.012,4.012,0,0,0,15,4.944V13.5a1.5,1.5,0,0,1-3,0v2a2.734,2.734,0,0,0,.05.5A2.5,2.5,0,0,0,17,15.5V5l1-3,.04-.08Z" style="fill:#efc1aa"/><path d="M19,20V15l-2-5v5.5a2.5,2.5,0,0,1-4.95.5H4l13,8A4.333,4.333,0,0,0,19,20Z" style="fill:#ebb28d"/><path d="M28,24a7.651,7.651,0,0,1-5-2l.01-.08A7.711,7.711,0,0,1,19,20a4.333,4.333,0,0,1-2,4,4.985,4.985,0,0,0,5,5h4.25a5.009,5.009,0,0,0,3.12-1.1l1.29-1.03a3.439,3.439,0,0,0,.4-.37A6.161,6.161,0,0,0,33,22,7.651,7.651,0,0,1,28,24Z" style="fill:#efc1aa"/><path d="M28.25,31a5.009,5.009,0,0,0,3.12-1.1l1.29-1.03c.016-.013.03-.029.046-.042A3.569,3.569,0,0,1,31.06,26.5a3.439,3.439,0,0,1-.4.37L29.37,27.9A5.009,5.009,0,0,1,26.25,29H23a19.159,19.159,0,0,0,1.039,2H28.25Z" style="fill:#ebb28d"/><path d="M33,21.15V22a6.161,6.161,0,0,1-1.94,4.5,3.569,3.569,0,0,0,1.646,2.328,3.475,3.475,0,0,0,.354-.328A6.161,6.161,0,0,0,35,24v-.85a12.969,12.969,0,0,0-1.63-6.45,26.035,26.035,0,0,0-3.447-3.917A9.137,9.137,0,0,1,31.37,14.7,12.969,12.969,0,0,1,33,21.15Z" style="fill:#5787b7"/><path d="M17,10v5.5a2.5,2.5,0,0,1-4.95.5H12v1.5a2.734,2.734,0,0,0,.05.5A2.5,2.5,0,0,0,17,17.5v.014a1,1,0,1,0,2,0V15Z" style="fill:#d19e7d"/><path d="M35.16,58.13A7.317,7.317,0,0,1,34,59a7.721,7.721,0,0,1-2.749.988,21.172,21.172,0,0,0,6.056-.788A7.205,7.205,0,0,1,35.16,58.13Z" style="fill:#c9c6c8"/><path d="M40.119,57.6A11.91,11.91,0,0,1,38,54l-.03-.01a3.013,3.013,0,0,0-.16.31,11.5,11.5,0,0,1-2.65,3.83,7.205,7.205,0,0,0,2.147,1.07A7.453,7.453,0,0,0,40.119,57.6Z" style="fill:#a6a0a1"/><path d="M40.119,57.6A8.824,8.824,0,0,0,42,55c.088-.175.188-.334.286-.494A12.43,12.43,0,0,1,43,48l-.01-.01a1.768,1.768,0,0,0-.22.16,16.7,16.7,0,0,0-3.68,3.91,15.928,15.928,0,0,0-1.12,1.93L38,54A11.91,11.91,0,0,0,40.119,57.6Z" style="fill:#c9c6c8"/><path d="M42.286,54.506a6.756,6.756,0,0,1,2.62-2.426A11.525,11.525,0,0,1,47,46l-.07-.17a15.3,15.3,0,0,0-2.17,1.01,13.751,13.751,0,0,0-1.77,1.15L43,48A12.43,12.43,0,0,0,42.286,54.506Z" style="fill:#a6a0a1"/><path d="M44.906,52.08a9.7,9.7,0,0,1,3.422-1.033A30.544,30.544,0,0,1,50,45a15.2,15.2,0,0,0-2.02.47,9.274,9.274,0,0,0-1.05.36L47,46A11.525,11.525,0,0,0,44.906,52.08Z" style="fill:#c9c6c8"/><path d="M36.178,16.164a6.145,6.145,0,0,0,1.363,1.913A30.962,30.962,0,0,0,43.793,23.5a3.127,3.127,0,0,0,1.134.487.667.667,0,0,0,.267,0,.653.653,0,0,0,.276-.173,2.034,2.034,0,0,0,.46-1.943,4.825,4.825,0,0,0-1.013-1.814,25.522,25.522,0,0,0-5.729-5c-.62-.42-1.785-1.3-2.6-.995C35.812,14.355,35.951,15.568,36.178,16.164Z" style="fill:#82b3d1"/><path d="M48.217,28.591a3.054,3.054,0,0,0,.116-2.3,1.614,1.614,0,0,0-2.081-1.216c-1.3.412-.589,2.135-.244,2.864a2.5,2.5,0,0,0,.358.6,1.357,1.357,0,0,0,.923.456A1.058,1.058,0,0,0,48.217,28.591Z" style="fill:#82b3d1"/><path d="M61,44c0-5.433-4.391-9.96-5.875-11.335a22.766,22.766,0,0,0-1.188-3.431l.033.009,1-4a1,1,0,0,0-.263-.95l-1.49-1.49.678-1.356a1,1,0,0,0-.34-1.279l-2.266-1.51.606-1.211a1,1,0,0,0-.652-1.417l-2.791-.7.443-.885a1,1,0,0,0-.579-1.4l-1.906-.635.485-.969A1,1,0,0,0,46,10H37.013a70.03,70.03,0,0,0-9.6-4.91L17.011.358A4.054,4.054,0,0,0,15.34,0a3.989,3.989,0,0,0-3.69,2.418A9.126,9.126,0,0,0,11,6v9H5.278A1.993,1.993,0,0,1,7,14H8.092a3.984,3.984,0,0,0,2.219-.672l.244-.162L9.444,11.5l-.243.163A1.989,1.989,0,0,1,8.092,12H7a4,4,0,0,0-4,4h.007a1,1,0,0,0,.469.852l12.551,7.724A6.009,6.009,0,0,0,22,30h4.246A6.022,6.022,0,0,0,30,28.685l1.287-1.03A7.208,7.208,0,0,0,34,22v-.851a14,14,0,0,0-1.761-6.941,8.831,8.831,0,0,0-2.684-3.04l-1.11,1.664A6.871,6.871,0,0,1,30.5,15.2,11.992,11.992,0,0,1,32,21.149v.393A6.638,6.638,0,0,1,28,23a5.971,5.971,0,0,1-2.158-.422c2.3-1.135,3.089-4.177,3.128-4.335A1,1,0,0,0,29,18V14H27v3.861C26.831,18.422,25.949,21,24,21a6.657,6.657,0,0,1-4-1.457V15a1.012,1.012,0,0,0-.071-.372L18,9.807V5.162l.625-1.873,8,3.639c.147.059,14.785,5.994,20.54,14.627C53.042,30.366,54,33.232,54,42a16.7,16.7,0,0,1-1.974,8H52v.055a18.336,18.336,0,0,1-2.583,3.583c-.663-1.433.472-5.669,1.511-8.266a1,1,0,0,0-1.09-1.359,17.2,17.2,0,0,0-7.676,3.343,17.7,17.7,0,0,0-2.915,2.838,13.713,13.713,0,0,1-1.241-5.552c.494.211,1,.414,1.521.6a21.029,21.029,0,0,1,2.033.863l.877-1.8a23.379,23.379,0,0,0-2.222-.944A29.892,29.892,0,0,1,25.489,31.46L23.8,32.538a31.853,31.853,0,0,0,2.207,3.031,14.549,14.549,0,0,0,4.282,10.138,1,1,0,0,0,1.656-.391L32.721,43h2.015c.409.236.832.465,1.264.688v.856a15.734,15.734,0,0,0,1.651,7l.258.515a18.289,18.289,0,0,0-1,1.816,10.7,10.7,0,0,1-2.422,3.522,6.229,6.229,0,0,1-1,.752,6.991,6.991,0,0,1-2.984.933l-.316-.06-.016.084a16.352,16.352,0,0,1-7.671-1.97A1,1,0,0,0,21,58a5.985,5.985,0,0,0,6,6h5a24.77,24.77,0,0,0,8.733-2.082c.829-.334,1.574-.674,2.246-1.024.17-.081.34-.169.529-.268a.912.912,0,0,0,.095-.045c.559-.3,1.107-.621,1.639-.952.439-.261.879-.545,1.309-.848a24.7,24.7,0,0,0,3.731-3.119h0l0,0,0,0a21.112,21.112,0,0,0,2.887-3.678C57.151,51.831,61,50.719,61,44ZM13,6a7.16,7.16,0,0,1,.491-2.8A1.991,1.991,0,0,1,15.34,2a2.034,2.034,0,0,1,.846.18l.608.277-.743,2.227A1,1,0,0,0,16,5V15.5a1.5,1.5,0,0,1-3,0Zm9.412,16.819A8.637,8.637,0,0,0,28,25a8.109,8.109,0,0,0,3.529-.833,5.221,5.221,0,0,1-1.5,1.926l-1.287,1.031a4.02,4.02,0,0,1-2.5.876H22a4,4,0,0,1-4-4,1,1,0,0,0-.476-.852L7.533,17h3.818A3.492,3.492,0,0,0,18,15.5V20a1,1,0,0,0,.293.707A8.911,8.911,0,0,0,22.412,22.819Zm8.639,18.865L30.6,43.033a12.507,12.507,0,0,1-2.3-4.943,32.2,32.2,0,0,0,3.445,2.949A1,1,0,0,0,31.051,41.684ZM40.064,12h4.318l-.277.553a1,1,0,0,0,.579,1.4l1.906.635-.485.969a1,1,0,0,0,.652,1.417l2.791.7-.443.885a1,1,0,0,0,.34,1.279l2.266,1.51-.606,1.211a1,1,0,0,0,.188,1.154l1.6,1.6-.3,1.2c-.969-1.766-2.2-3.719-3.76-6.063A33.935,33.935,0,0,0,40.064,12Zm15.7,24.289C57.3,38.19,59,40.978,59,44c0,4.234-1.474,5.563-4.7,5.9A18.736,18.736,0,0,0,56,42,54.921,54.921,0,0,0,55.76,36.289Zm-11.1,20.975c-2.64-3.158-1.224-7.58-.828-8.634.315-.226.635-.443.965-.643A13.179,13.179,0,0,0,44.656,57.264Zm-3.45-6.257a9.557,9.557,0,0,0,1.918,7.542l-.073.043c-2.294-1-3.561-3.588-3.961-4.546A16.144,16.144,0,0,1,41.206,51.007Zm-5.978,8.365a8.32,8.32,0,0,0,.807.409c-.431-.035-.842-.073-1.238-.114C34.943,59.571,35.09,59.477,35.228,59.372Zm2.7-3.158a11.525,11.525,0,0,0,1.92,2.555,11.664,11.664,0,0,1-3.08-.862A11.712,11.712,0,0,0,37.927,56.214ZM27,62a4.009,4.009,0,0,1-2.829-1.163,4.076,4.076,0,0,1-.761-1.067A16.4,16.4,0,0,0,30.4,61.092c.847.146,2.39.388,4.372.585A15.017,15.017,0,0,1,32,62Zm20.675-7.36a2.778,2.778,0,0,0,.308.465c-.477.437-.992.854-1.524,1.261a10.88,10.88,0,0,1,1.324-9.744l-.019-.016c.223-.076.443-.162.669-.228C47.643,48.742,46.622,52.649,47.675,54.64Z"/><path d="M41.533,32.406l.322-.921A2.558,2.558,0,0,0,42,30.637,2.683,2.683,0,0,0,39.279,28H33a1,1,0,0,0-.707.293l-2,2a1,1,0,0,0-.1,1.3l1.682,2.3a3.693,3.693,0,0,0,1.052,1l.367.233a5.711,5.711,0,0,0,5.47.326l.005,0a12.6,12.6,0,0,0,5.916,4.5c1.2.4,1.762,2.217,1.993,3.265l1.953-.429c-.564-2.562-1.71-4.2-3.314-4.734a10.674,10.674,0,0,1-4.93-3.783A5.22,5.22,0,0,0,41.533,32.406ZM40,30.637a.574.574,0,0,1-.032.187l-.323.921c-.006.016-.016.03-.022.046L34.848,30h4.431A.684.684,0,0,1,40,30.637Zm-5.635,2.8L34,33.205a1.74,1.74,0,0,1-.5-.478l-1.1-1.51,5.881,2.2a3.489,3.489,0,0,1-.374.224A3.7,3.7,0,0,1,34.365,33.438Z"/><path d="M19,9a3,3,0,1,0,3-3A3,3,0,0,0,19,9Zm4,0a1,1,0,1,1-1-1A1,1,0,0,1,23,9Z"/></g></svg>