<svg xmlns="http://www.w3.org/2000/svg" viewBox="0 0 64 64"><title>02-Milk</title><g id="_02-Milk" data-name="02-Milk"><polygon points="27 39 25 59 15 59 13 39 27 39" style="fill:#ffdecf"/><polygon points="23 39 21 59 25 59 27 39 23 39" style="fill:#ffbeaa"/><path d="M31,35,29,63H11L9,35H31ZM25,59l2-20H13l2,20Z" style="fill:#f2f6fc"/><path d="M38,7c0,4.91,3.44,8.34,5.5,13.05C41.98,20.35,41.82,22,40,22c-2,0-2-2-4-2s-2,2-4,2-2-2-4-2-2,2-4,2c-1.82,0-1.98-1.65-3.5-1.95C22.56,15.34,26,11.91,26,7H38Z" style="fill:#f2f6fc"/><path d="M23.5,20.05C25.56,15.34,29,11.91,29,7H26c0,4.91-3.44,8.34-5.5,13.05,1.52.3,1.68,1.95,3.5,1.95a2.22,2.22,0,0,0,1.492-.539C24.868,20.951,24.449,20.237,23.5,20.05Z" style="fill:#dce1eb"/><path d="M45,27V63H29l2-28H19V27a17.1,17.1,0,0,1,1.5-6.95c1.52.3,1.68,1.95,3.5,1.95,2,0,2-2,4-2s2,2,4,2,2-2,4-2,2,2,4,2c1.82,0,1.98-1.65,3.5-1.95A17.1,17.1,0,0,1,45,27Z" style="fill:#ffdecf"/><polygon points="31 35 29 63 32 63 34 35 31 35" style="fill:#ffbeaa"/><path d="M22.865,21.714c-.858-.485-1.241-1.442-2.365-1.664A17.1,17.1,0,0,0,19,27v8h3V27A16.547,16.547,0,0,1,22.865,21.714Z" style="fill:#ffbeaa"/><polygon points="40 1 40 7 38 7 36 7 32 7 28 7 26 7 24 7 24 1 40 1" style="fill:#b674f2"/><polygon points="40 4 40 7 38 7 36 7 32 7 28 7 26 7 24 7 24 4 40 4" style="fill:#8f4cd6"/><path d="M56.084,44.339a3.128,3.128,0,0,0-4.423-4.423,3.01,3.01,0,0,0-.265.325,5.191,5.191,0,0,0-7.024,3.7,8.338,8.338,0,0,0-8.929,13.664l2.949,2.949a8.339,8.339,0,0,0,13.664-8.93,5.189,5.189,0,0,0,3.7-7.023A3.01,3.01,0,0,0,56.084,44.339Z" style="fill:#a7e340"/><path d="M56.084,44.339a3.119,3.119,0,0,0-3.712-4.94,3.073,3.073,0,0,1,.712.517,3.128,3.128,0,0,1,0,4.423,3.01,3.01,0,0,1-.325.265,5.189,5.189,0,0,1-3.7,7.023,8.333,8.333,0,0,1-6.267,11.234,8.336,8.336,0,0,0,9.267-11.234,5.189,5.189,0,0,0,3.7-7.023A3.01,3.01,0,0,0,56.084,44.339Z" style="fill:#86c42b"/><polygon points="53.707 43.707 52.293 42.293 45 49.586 45 47 43 47 43 51.586 40 54.586 40 51 38 51 38 56.586 32.293 62.293 33.707 63.707 39.414 58 45 58 45 56 41.414 56 44.414 53 49 53 49 51 46.414 51 53.707 43.707" style="fill:#7e8596"/><rect x="40" y="28" width="2" height="2" style="fill:#ffeee5"/><rect x="40" y="32" width="2" height="9" style="fill:#ffeee5"/><rect x="27" y="4" width="2" height="3" style="fill:#7e8596"/><rect x="31" y="4" width="2" height="3" style="fill:#7e8596"/><rect x="35" y="4" width="2" height="3" style="fill:#7e8596"/><path d="M31,34H20V27a15.569,15.569,0,0,1,1.029-5.547c.082.077.166.156.264.254a3.48,3.48,0,0,0,5.414,0C27.2,21.217,27.438,21,28,21s.8.217,1.293.707a3.48,3.48,0,0,0,5.414,0C35.2,21.217,35.438,21,36,21s.8.217,1.293.707a3.48,3.48,0,0,0,5.414,0c.1-.1.182-.177.264-.254A15.569,15.569,0,0,1,44,27V38h2V27c0-5.054-2.107-8.647-3.966-11.818C40.591,12.721,39.327,10.556,39.058,8H40a1,1,0,0,0,1-1V1a1,1,0,0,0-1-1H24a1,1,0,0,0-1,1V7a1,1,0,0,0,1,1h.942c-.269,2.556-1.533,4.721-2.976,7.182C20.107,18.353,18,21.946,18,27v7H9a1,1,0,0,0-1,1.071l2,28A1,1,0,0,0,11,64H29a1,1,0,0,0,1-.929l2-28A1,1,0,0,0,31,34ZM25,2H39V6H37V4H35V6H33V4H31V6H29V4H27V6H25ZM23.691,16.194c1.538-2.622,2.986-5.118,3.253-8.194H37.056c.267,3.076,1.715,5.572,3.253,8.194.637,1.087,1.278,2.191,1.847,3.357a5.8,5.8,0,0,0-.863.742c-.49.49-.731.707-1.293.707s-.8-.217-1.293-.707a3.48,3.48,0,0,0-5.414,0c-.49.49-.731.707-1.293.707s-.8-.217-1.293-.707a3.48,3.48,0,0,0-5.414,0c-.49.49-.731.707-1.293.707s-.8-.217-1.293-.707a5.8,5.8,0,0,0-.863-.742C22.413,18.385,23.054,17.281,23.691,16.194ZM28.069,62H11.931L10.074,36H29.926Z"/><path d="M15,60H25a1,1,0,0,0,1-.9l2-20A1,1,0,0,0,27,38H13a1,1,0,0,0-.995,1.1l2,20A1,1,0,0,0,15,60ZM25.9,40,24.1,58h-8.19l-1.8-18Z"/><rect x="40" y="28" width="2" height="2"/><rect x="40" y="32" width="2" height="9"/><path d="M56.791,39.209a4.134,4.134,0,0,0-5.706-.126,6.207,6.207,0,0,0-6.029,1.6,6.113,6.113,0,0,0-1.331,2,9.338,9.338,0,0,0-8.989,15.632l.767.768-3.21,3.21,1.414,1.414,3.21-3.21.768.767a9.338,9.338,0,0,0,15.632-8.989,6.113,6.113,0,0,0,2-1.331,6.2,6.2,0,0,0,1.6-6.029A4.133,4.133,0,0,0,56.791,39.209Zm-1.414,4.423a2.274,2.274,0,0,1-.226.179,1,1,0,0,0-.319,1.167,4.191,4.191,0,0,1-2.993,5.673,1,1,0,0,0-.715,1.34A7.338,7.338,0,0,1,39.1,59.85l-.768-.767L39.414,58H45V56H41.414l3-3H49V51H46.414l7.293-7.293-1.414-1.414L45,49.586V47H43v4.586l-3,3V51H38v5.586l-1.083,1.083L36.15,56.9a7.339,7.339,0,0,1,7.859-12.025,1,1,0,0,0,1.34-.715,4.191,4.191,0,0,1,5.673-2.993,1.093,1.093,0,0,0,1.219-.388,1.558,1.558,0,0,1,.127-.157,2.128,2.128,0,0,1,3.009,3.009Z"/></g></svg>