<svg xmlns="http://www.w3.org/2000/svg" xmlns:xlink="http://www.w3.org/1999/xlink" viewBox="0 0 64 64"><defs><linearGradient id="linear-gradient" x1="32" y1="1.304" x2="32" y2="63.304" gradientUnits="userSpaceOnUse"><stop offset="0" stop-color="#ffe100"/><stop offset="1" stop-color="#f98900"/></linearGradient><linearGradient id="linear-gradient-2" x1="55" y1="1.225" x2="55" y2="20.742" gradientUnits="userSpaceOnUse"><stop offset="0" stop-color="#6073ff"/><stop offset="0.114" stop-color="#586aeb"/><stop offset="0.393" stop-color="#4856bf"/><stop offset="0.644" stop-color="#3c489f"/><stop offset="0.855" stop-color="#353f8c"/><stop offset="1" stop-color="#323c85"/></linearGradient><linearGradient id="linear-gradient-3" x1="32" y1="54.944" x2="32" y2="43.32" gradientUnits="userSpaceOnUse"><stop offset="0" stop-color="#911625"/><stop offset="0.587" stop-color="#630f19"/><stop offset="1" stop-color="#400a10"/></linearGradient></defs><g id="_02-Sleepy_Face" data-name="02-Sleepy Face"><path d="M32,63C4.3,63,.962,39,1,33V31C.962,25,4.3,1,32,1h0C59.7,1,63.038,25,63,31v2C63.038,39,59.7,63,32,63Z" style="fill:url(#linear-gradient)"/><polygon points="48 1 48 5 58 5 47 19 47 21 63 21 63 17 54 17 63 5 63 1 48 1" style="fill:url(#linear-gradient-2)"/><circle cx="32" cy="50" r="5" style="fill:url(#linear-gradient-3)"/><path d="M8.09,53C2.05,45.666.977,36.416,1,33V31C.96,25,4.3,1,32,1A36.48,36.48,0,0,1,44.472,3" style="fill:none;stroke:#1d1d1b;stroke-linejoin:round;stroke-width:2px"/><path d="M62.916,29c.06.736.084,1.374.084,1.89V33c.04,6-3.3,30-31,30-10.393,0-17.357-3.379-22-7.918" style="fill:none;stroke:#1d1d1b;stroke-linejoin:round;stroke-width:2px"/><path d="M62.338,25c.143.7.258,1.37.349,2" style="fill:none;stroke:#1d1d1b;stroke-linejoin:round;stroke-width:2px"/><path d="M53,29s-2,6-8,6-8-6-8-6" style="fill:none;stroke:#1d1d1b;stroke-linejoin:round;stroke-width:2px"/><path d="M27,29s-2,6-8,6-8-6-8-6" style="fill:none;stroke:#1d1d1b;stroke-linejoin:round;stroke-width:2px"/><circle cx="32" cy="50" r="5" style="fill:none;stroke:#1d1d1b;stroke-linejoin:round;stroke-width:2px"/><polygon points="48 1 48 5 58 5 47 19 47 21 63 21 63 17 54 17 63 5 63 1 48 1" style="fill:none;stroke:#1d1d1b;stroke-linejoin:round;stroke-width:2px"/><polyline points="37 7 44 7 44 8 38 14 38 15 45 15" style="fill:none;stroke:#1d1d1b;stroke-linejoin:round;stroke-width:2px"/><polyline points="28 10 33.25 10 33.25 10.75 28.75 15.25 28.75 16 34 16" style="fill:none;stroke:#1d1d1b;stroke-linejoin:round;stroke-width:2px"/></g></svg>