<svg xmlns="http://www.w3.org/2000/svg" viewBox="0 0 64 64"><g id="_02-Translator" data-name="02-Translator"><path d="M17,4V9H1V3A2.006,2.006,0,0,1,3,1H14A2.938,2.938,0,0,1,17,4Z" style="fill:#96e8ff"/><path d="M14,1H61a2.006,2.006,0,0,1,2,2V9H17V4A2.938,2.938,0,0,0,14,1Z" style="fill:#19cffc"/><path d="M17,1H14a2.938,2.938,0,0,1,3,3V9h3V4A2.938,2.938,0,0,0,17,1Z" style="fill:#4ab8f7"/><polygon points="58 24 58 58 30 58 30 48 30 24 34 24 58 24" style="fill:#b4f5f0"/><path d="M34,52V32a4,4,0,0,1,4-4H58V24H30V58h4Z" style="fill:#64e1dc"/><polygon points="34 14 34 24 30 24 30 48 6 48 6 14 34 14" style="fill:#ffac5a"/><path d="M30,14v6h0a4,4,0,0,0-4,4V44H6v4H30V24h4V14Z" style="fill:#ff873c"/><path d="M63,9V61a2.006,2.006,0,0,1-2,2H3a2.006,2.006,0,0,1-2-2V9H63ZM58,58V24H34V14H6V48H30V58Z" style="fill:#f0f0f0"/><rect x="4" y="4" width="2" height="2" style="fill:#2b75ad"/><rect x="8" y="4" width="2" height="2" style="fill:#2b75ad"/><rect x="12" y="4" width="2" height="2" style="fill:#2b75ad"/><rect x="20" y="4" width="40" height="2" style="fill:#2b75ad"/><path d="M48,38V31a4,4,0,0,0-8,0v7h2V34h4v4Zm-6-6V31a2,2,0,0,1,4,0v1Z" style="fill:#108d91"/><path d="M13,19v2h8.909A8.09,8.09,0,0,1,19,26.232a7.376,7.376,0,0,1-2.1-2.664l-1.8.865a9.592,9.592,0,0,0,2.063,2.848A11.084,11.084,0,0,1,13,28v2a12.179,12.179,0,0,0,6-1.379A12.2,12.2,0,0,0,25,30V28a11.108,11.108,0,0,1-4.151-.723A10.8,10.8,0,0,0,23.911,21H25V19H20V17H18v2Z" style="fill:#6e6e6e"/><rect x="9" y="33" width="2" height="2" style="fill:#6e6e6e"/><rect x="13" y="33" width="14" height="2" style="fill:#6e6e6e"/><rect x="9" y="37" width="18" height="2" style="fill:#6e6e6e"/><rect x="9" y="41" width="18" height="2" style="fill:#6e6e6e"/><rect x="35" y="40" width="2" height="2" style="fill:#1cadb5"/><rect x="39" y="40" width="14" height="2" style="fill:#1cadb5"/><rect x="35" y="44" width="18" height="2" style="fill:#1cadb5"/><rect x="35" y="48" width="18" height="2" style="fill:#1cadb5"/><rect x="35" y="52" width="18" height="2" style="fill:#1cadb5"/><path d="M40.293,12.293l-3,3A.974.974,0,0,0,37.3,16.7l-.006.006,3,3,1.414-1.414L40.414,17H49v4h2V16a1,1,0,0,0-1-1H40.414l1.293-1.293Z" style="fill:#6e6e6e"/><path d="M26.7,55.3l.006-.006-3-3-1.414,1.414L23.586,55H15V51H13v5a1,1,0,0,0,1,1h9.586l-1.293,1.293,1.414,1.414,3-3A.974.974,0,0,0,26.7,55.3Z" style="fill:#6e6e6e"/><path d="M61,0H3A3,3,0,0,0,0,3V61a3,3,0,0,0,3,3H61a3,3,0,0,0,3-3V3A3,3,0,0,0,61,0Zm1,3V8H18V4a4.08,4.08,0,0,0-.487-2H61A1,1,0,0,1,62,3ZM3,2H13.993A1.884,1.884,0,0,1,16,4V8H2V3A1,1,0,0,1,3,2ZM61,62H3a1,1,0,0,1-1-1V10H62V61A1,1,0,0,1,61,62Z"/><rect x="4" y="4" width="2" height="2"/><rect x="8" y="4" width="2" height="2"/><rect x="12" y="4" width="2" height="2"/><rect x="20" y="4" width="40" height="2"/><path d="M58,23H35V14a1,1,0,0,0-1-1H6a1,1,0,0,0-1,1V48a1,1,0,0,0,1,1H29v9a1,1,0,0,0,1,1H58a1,1,0,0,0,1-1V24A1,1,0,0,0,58,23ZM29,24V47H7V15H33v8H30A1,1,0,0,0,29,24ZM57,57H31V25H57Z"/><path d="M42,34h4v4h2V31a4,4,0,0,0-8,0v7h2Zm2-5a2,2,0,0,1,2,2v1H42V31A2,2,0,0,1,44,29Z"/><path d="M25,30V28a11.108,11.108,0,0,1-4.151-.723A10.8,10.8,0,0,0,23.911,21H25V19H20V17H18v2H13v2h8.909A8.09,8.09,0,0,1,19,26.232a7.376,7.376,0,0,1-2.1-2.664l-1.8.865a9.592,9.592,0,0,0,2.063,2.848A11.084,11.084,0,0,1,13,28v2a12.179,12.179,0,0,0,6-1.379A12.2,12.2,0,0,0,25,30Z"/><rect x="9" y="33" width="2" height="2"/><rect x="13" y="33" width="14" height="2"/><rect x="9" y="37" width="18" height="2"/><rect x="9" y="41" width="18" height="2"/><rect x="35" y="40" width="2" height="2"/><rect x="39" y="40" width="14" height="2"/><rect x="35" y="44" width="18" height="2"/><rect x="35" y="48" width="18" height="2"/><rect x="35" y="52" width="18" height="2"/><path d="M37.3,16.7l-.006.006,3,3,1.414-1.414L40.414,17H49v4h2V16a1,1,0,0,0-1-1H40.414l1.293-1.293-1.414-1.414-3,3A.974.974,0,0,0,37.3,16.7Z"/><path d="M26.7,55.3l.006-.006-3-3-1.414,1.414L23.586,55H15V51H13v5a1,1,0,0,0,1,1h9.586l-1.293,1.293,1.414,1.414,3-3A.974.974,0,0,0,26.7,55.3Z"/></g></svg>