<svg xmlns="http://www.w3.org/2000/svg" viewBox="0 0 64 64"><g id="_03-Fish" data-name="03-Fish"><path d="M26.19,44.12a13.345,13.345,0,0,1,.7,1.42l-.63,3.16a1.621,1.621,0,0,1-2.73.83L23,49s.89-4.46,2.68-5.79C25.85,43.53,26.02,43.83,26.19,44.12Z" style="fill:#313845"/><path d="M24.14,39.94a31.965,31.965,0,0,0,1.54,3.27C23.89,44.54,23,49,23,49l-1.53-1.53A1.612,1.612,0,0,1,21,46.33v-1.2a2.112,2.112,0,0,1,.02-.26A6.918,6.918,0,0,1,24,40Z" style="fill:#475163"/><path d="M31,21s2,5,2,8h-.5a2.2,2.2,0,0,1-1.71-.76l-.33-.41-1.12-1.4a1.535,1.535,0,0,1-.34-.95V19.47a5.608,5.608,0,0,0,1.32.9,5.321,5.321,0,0,0,.78.32Z" style="fill:#313845"/><path d="M38,38l3.75,7.49a2.745,2.745,0,0,1-1.61.51,2.807,2.807,0,0,1-2.33-1.23l-1.56-2.38c.22-.69.45-1.37.7-2.04.29-.79.58-1.61.85-2.42Z" style="fill:#313845"/><path d="M30,54a26.383,26.383,0,0,1-5,9V60c0-5,3-6,3-6Z" style="fill:#313845"/><path d="M31,60V54h1a26.383,26.383,0,0,0,5,9S31,63,31,60Z" style="fill:#313845"/><path d="M31,54v6c0,3-6,3-6,3a26.383,26.383,0,0,0,5-9Z" style="fill:#475163"/><path d="M37,60v3a26.383,26.383,0,0,1-5-9h2S37,55,37,60Z" style="fill:#475163"/><path d="M43,41.52v1.55a2.978,2.978,0,0,1-1.06,2.28,2.307,2.307,0,0,1-.19.14L38,38l-.2-.07c.35-1.03.67-2.05.98-3.05q.135-.42.24-.84l3.56,5.95A3.033,3.033,0,0,1,43,41.52Z" style="fill:#475163"/><path d="M33,29c0-3-2-8-2-8l.1-.31A6.1,6.1,0,0,0,33,21c.72,1.11,2,2.55,2,4v2.29a1.585,1.585,0,0,1-.6,1.21A2.274,2.274,0,0,1,33,29Z" style="fill:#475163"/><path d="M17,3.5V7.46a2.488,2.488,0,0,0,.73,1.77l.01.02-5.33,5.1a3.589,3.589,0,0,1-2.08.65A3.164,3.164,0,0,1,7,12.04v-.68a2.437,2.437,0,0,1,.1-.71l.96-3.41a3.109,3.109,0,0,1,2.17-2.09L17,3h.05A2.734,2.734,0,0,0,17,3.5Z" style="fill:#efc1aa"/><path d="M26,8l-2,2-1,1H20.54A3.022,3.022,0,0,1,18.1,9.75l-.36-.5-.01-.02A2.488,2.488,0,0,1,17,7.46V3.5a2.734,2.734,0,0,1,.05-.5A2.5,2.5,0,0,1,19.5,1h3.75l.95,1.9a2.06,2.06,0,0,0,.9.9L27,5V7Z" style="fill:#efc1aa"/><path d="M32,5,27.08,1.06A6.088,6.088,0,0,1,29.5,2a5.98,5.98,0,0,0,3.3,1H38L37,5a2.909,2.909,0,0,1-2.5,1A2.909,2.909,0,0,1,32,5Z" style="fill:#838182"/><path d="M34.5,6A2.909,2.909,0,0,0,37,5l.5-1H32.8a5.98,5.98,0,0,1-3.291-1L32,5A2.909,2.909,0,0,0,34.5,6Z" style="fill:#313845"/><path d="M36,11a1,1,0,1,0-1-1A1,1,0,0,0,36,11ZM27.08,1.06,32,5a2.909,2.909,0,0,0,2.5,1A2.909,2.909,0,0,0,37,5l1-2a69.068,69.068,0,0,1,2.8,13.2v.01L38,19l-2,2H33a6.1,6.1,0,0,1-1.9-.31,5.321,5.321,0,0,1-.78-.32,5.608,5.608,0,0,1-1.32-.9,5.546,5.546,0,0,1-.8-.87A5.992,5.992,0,0,1,27,15V13a4.333,4.333,0,0,1,2-4c0-4-2-4-2-4L25.1,3.8a2.06,2.06,0,0,1-.9-.9L23.25,1H26.2a6.36,6.36,0,0,1,.87.06Z" style="fill:#6da3c4"/><path d="M32.1,19.69a5.321,5.321,0,0,1-.78-.32,5.608,5.608,0,0,1-1.32-.9,5.546,5.546,0,0,1-.8-.87A5.992,5.992,0,0,1,28,14V12a4.895,4.895,0,0,1,.854-2.911A4.429,4.429,0,0,0,27,13v2a5.992,5.992,0,0,0,1.2,3.6,5.546,5.546,0,0,0,.8.87,5.608,5.608,0,0,0,1.32.9,5.321,5.321,0,0,0,.78.32A6.1,6.1,0,0,0,33,21h3l1-1H34A6.1,6.1,0,0,1,32.1,19.69Z" style="fill:#5787b7"/><path d="M31.27,50.22c-.41,1.25-.82,2.56-.27,3.78H28V50.88a13.976,13.976,0,0,0-1.81-6.76c-.17-.29-.34-.59-.51-.91a31.965,31.965,0,0,1-1.54-3.27A14,14,0,0,1,23,35V19a24.417,24.417,0,0,1,1-7V10l2-2,1-1V5s2,0,2,4a4.333,4.333,0,0,0-2,4v2a5.992,5.992,0,0,0,1.2,3.6,5.546,5.546,0,0,0,.8.87v6.01a1.535,1.535,0,0,0,.34.95l1.12,1.4a5.294,5.294,0,0,0-.2,3.73c.36.95,1.13,1.82,1.41,2.78.6,2.09-1.15,4.15-1.3,6.28-.18,2.69,2.19,5.3,1.51,7.95C31.73,49.13,31.45,49.67,31.27,50.22Z" style="fill:#dddcd7"/><path d="M31.27,50.22c.18-.55.46-1.09.61-1.65.68-2.65-1.69-5.26-1.51-7.95.15-2.13,1.9-4.19,1.3-6.28-.28-.96-1.05-1.83-1.41-2.78a5.294,5.294,0,0,1,.2-3.73l.33.41A2.2,2.2,0,0,0,32.5,29H33a2.274,2.274,0,0,0,1.4-.5,1.585,1.585,0,0,0,.6-1.21V25c0-1.45-1.28-2.89-2-4h3l2-2,2.8-2.79A37.311,37.311,0,0,1,41,20a50.132,50.132,0,0,1-1.98,14.04q-.1.42-.24.84c-.31,1-.63,2.02-.98,3.05-.27.81-.56,1.63-.85,2.42-.25.67-.48,1.35-.7,2.04a50.052,50.052,0,0,0-2.03,9.62L34,54H31C30.45,52.78,30.86,51.47,31.27,50.22Z" style="fill:#6293b1"/><path d="M38,21l2.8-2.79.151-.026Q40.9,17.2,40.8,16.21L38,19l-2,2H33c.382.589.918,1.273,1.341,2H36Z" style="fill:#6293b1"/><circle cx="36" cy="10" r="1" style="fill:#262c3c"/><path d="M29.34,26.43a1.535,1.535,0,0,1-.34-.95V19.47a5.546,5.546,0,0,1-.8-.87A5.992,5.992,0,0,1,27,15V13a4.333,4.333,0,0,1,2-4c0-4-2-4-2-4V7l-.418.418L26,8l-2,2v2a24.417,24.417,0,0,0-1,7v1.779A2.978,2.978,0,0,1,25,20h1a3.072,3.072,0,0,1,.579.058A4.8,4.8,0,0,0,27,20.47v6.01a1.535,1.535,0,0,0,.34.95l1.12,1.4.33.41a2.111,2.111,0,0,0,1.219.709,7.185,7.185,0,0,1,.451-2.119Z" style="fill:#b8b5b7"/><path d="M30.79,28.24l-.33-.41a7.185,7.185,0,0,0-.451,2.119A2.486,2.486,0,0,0,30.5,30H31a2.274,2.274,0,0,0,1.4-.5,1.758,1.758,0,0,0,.409-.5H32.5A2.2,2.2,0,0,1,30.79,28.24Z" style="fill:#5787b7"/><path d="M31,21l.1-.31a5.321,5.321,0,0,1-.78-.32,5.608,5.608,0,0,1-1.32-.9v2.593a8.169,8.169,0,0,0,2.652.736C31.292,21.731,31,21,31,21Z" style="fill:#242933"/><path d="M31.652,22.8a23.1,23.1,0,0,0,2.682.189c-.421-.723-.954-1.4-1.334-1.988a6.1,6.1,0,0,1-1.9-.31L31,21S31.292,21.731,31.652,22.8Z" style="fill:#313845"/><path d="M29,9c0-4-2-4-2-4V7l-.418.418L26,8l-2,2v2S26,9,29,9Z" style="fill:#969192"/><path d="M17.73,9.23A2.488,2.488,0,0,1,17,7.46V3.5a2.734,2.734,0,0,1,.05-.5H17l-3,.953V8.288a1.48,1.48,0,0,1-.556,1.157L9.406,12.676A1.481,1.481,0,0,1,7,11.519v.521A3.164,3.164,0,0,0,10.33,15a3.589,3.589,0,0,0,2.08-.65l5.33-5.1Z" style="fill:#dfa985"/><path d="M26.19,44.12c-.17-.29-.34-.59-.51-.91a5.111,5.111,0,0,0-1.355,1.816c.107.184.211.358.31.506A2.066,2.066,0,0,1,25,46.672V48.04A1.954,1.954,0,0,1,23.9,49.8a1.605,1.605,0,0,0,.773.2,1.627,1.627,0,0,0,1.59-1.3l.63-3.16A13.345,13.345,0,0,0,26.19,44.12Z" style="fill:#242933"/><path d="M25.68,43.21a31.965,31.965,0,0,1-1.54-3.27L24,40a6.16,6.16,0,0,0-1.448,1.325,39.455,39.455,0,0,0,1.773,3.7A5.111,5.111,0,0,1,25.68,43.21Z" style="fill:#313845"/><path d="M39.447,44.894,38.415,42.83a2,2,0,0,1-.05-1.683l.559-1.3L38,38l-.2-.07c-.27.81-.56,1.63-.85,2.42-.25.67-.48,1.35-.7,2.04l1.56,2.38A2.807,2.807,0,0,0,40.14,46a2.844,2.844,0,0,0,.595-.07A2,2,0,0,1,39.447,44.894Z" style="fill:#242933"/><path d="M38.924,39.845l1.489-3.476L39.02,34.04q-.1.42-.24.84c-.31,1-.63,2.02-.98,3.05L38,38Z" style="fill:#313845"/><path d="M31.27,50.22c.18-.55.46-1.09.61-1.65a3.85,3.85,0,0,0,.1-.584c-.061,0-.12.014-.182.014H30.49a4.379,4.379,0,0,1-3.133-1.215A13.415,13.415,0,0,1,28,50.88V54h3C30.45,52.78,30.86,51.47,31.27,50.22Z" style="fill:#b8b5b7"/><path d="M31.978,47.986a3.85,3.85,0,0,1-.1.584c-.15.56-.43,1.1-.61,1.65-.41,1.25-.82,2.56-.27,3.78h3l.22-1.99a49.872,49.872,0,0,1,.923-5.47A4.2,4.2,0,0,1,31.978,47.986Z" style="fill:#5787b7"/><path d="M36.592,25.79a4.936,4.936,0,0,0-.533,1.7A25.413,25.413,0,0,0,35.54,33.8a2.557,2.557,0,0,0,.192.921.515.515,0,0,0,.113.165.447.447,0,0,0,.215.093,1.4,1.4,0,0,0,1.31-.586,3.828,3.828,0,0,0,.623-1.442,20.942,20.942,0,0,0,.49-5.793c-.016-.573.005-1.69-.509-2.057C37.481,24.751,36.841,25.382,36.592,25.79Z" style="fill:#82b3d1"/><path d="M35.781,38.49c.5-.119.785-.684,1.051-1.145a1.352,1.352,0,0,0-.37-1.742c-.743-.474-1.185.81-1.354,1.375a2.2,2.2,0,0,0-.106.5,1.169,1.169,0,0,0,.2.729A.6.6,0,0,0,35.781,38.49Z" style="fill:#82b3d1"/><path d="M30,8V5.535a1,1,0,0,0-.445-.832L24.394,1H23.25l.95,1.9a2.06,2.06,0,0,0,.9.9L27,5s2,0,2,4A1,1,0,0,0,30,8Z" style="fill:#5787b7"/><path d="M23.41,7.41,21,5,19,7l2.41,2.41a2.006,2.006,0,0,0,1.42.59H24l2-2H24.83A2.006,2.006,0,0,1,23.41,7.41Z" style="fill:#efb99e"/><path d="M21.41,9.41,19,7l-1.946.973A2.482,2.482,0,0,0,17.73,9.23l.01.02.36.5A3.022,3.022,0,0,0,20.54,11H23l1-1H22.83A2.006,2.006,0,0,1,21.41,9.41Z" style="fill:#efb99e"/><path d="M21,5l2.41,2.41A2.006,2.006,0,0,0,24.83,8H26l1-1L24,5Z" style="fill:#efb99e"/><path d="M26.044,41.2a1.522,1.522,0,0,0,.769,1.2.861.861,0,0,0,.5.1.715.715,0,0,0,.531-.46,1.971,1.971,0,0,0-.441-2.181c-.322-.338-.909-.549-1.174-.085A2.147,2.147,0,0,0,26.044,41.2Z" style="fill:#edece7"/><path d="M25.522,38.131a1.086,1.086,0,0,0,.384.8.345.345,0,0,0,.248.067c.14-.027.221-.172.266-.307a1.649,1.649,0,0,0-.22-1.454c-.162-.225-.455-.366-.588-.056A1.868,1.868,0,0,0,25.522,38.131Z" style="fill:#edece7"/><path d="M24.48,14.2,22.52,13.8c-.136.676-.247,1.375-.332,2.077l1.986.238C24.252,15.468,24.355,14.822,24.48,14.2Z"/><path d="M43.437,39.474,40.1,33.9A51.543,51.543,0,0,0,42,20c0-8.069-2.927-16.942-3.051-17.316A1,1,0,0,0,38,2H33V4h3.382l-.242.485C35.783,4.949,34.88,5,34.5,5s-1.334-.054-1.668-.555a1.011,1.011,0,0,0-.207-.226l-3-2.4.433-.649A6.938,6.938,0,0,0,26.2,0H19.5a3.5,3.5,0,0,0-3.239,2.186L9.951,4.194A4.107,4.107,0,0,0,7.094,6.973l-.958,3.405A3.661,3.661,0,0,0,6,11.365v.674A4.164,4.164,0,0,0,10.332,16a4.622,4.622,0,0,0,2.66-.834.906.906,0,0,0,.112-.093l4.526-4.334A4.007,4.007,0,0,0,20.54,12H23a1,1,0,0,0,.707-.293l4-4a.975.975,0,0,0,.153-.229,6.414,6.414,0,0,1,.127,1.006A5.55,5.55,0,0,0,26,13v2a7.04,7.04,0,0,0,1.4,4.2,6.831,6.831,0,0,0,.6.691v5.592a2.5,2.5,0,0,0,.563,1.572l1.448,1.809A3.186,3.186,0,0,0,32.5,30h.455a3.257,3.257,0,0,0,2.088-.732A2.583,2.583,0,0,0,36,27.293V25a5.653,5.653,0,0,0-1.1-3H36a1,1,0,0,0,.707-.293l2-2-1.414-1.414L35.586,20H33a5,5,0,0,1-5-5V13A3.4,3.4,0,0,1,29.447,9.9,1,1,0,0,0,30,9c0-3.95-1.834-4.778-2.635-4.952L25.544,2.9a1.014,1.014,0,0,1-.448-.447L24.868,2H26.2a4.843,4.843,0,0,1,.5.037L31.268,5.7A3.858,3.858,0,0,0,34.5,7a3.813,3.813,0,0,0,3.244-1.349A58.208,58.208,0,0,1,40,20a49.437,49.437,0,0,1-2.174,14.586c-.623,2.017-1.233,3.84-1.813,5.42-.306.834-.581,1.682-.843,2.535l-.008,0,0,.006A51.016,51.016,0,0,0,33.228,51.9L33.1,53H29V50.878a14.523,14.523,0,0,0-1.068-5.44l.048-.242-.165-.033a14.737,14.737,0,0,0-.761-1.538C25.661,41.2,24,37.728,24,35V19c0-.328.007-.647.02-.959l-2-.082C22.008,18.3,22,18.645,22,19V35a13.922,13.922,0,0,0,.929,4.542,8.057,8.057,0,0,0-2.9,5.185,3.054,3.054,0,0,0-.027.406v1.2a2.638,2.638,0,0,0,.768,1.853l2.05,2.05a2.617,2.617,0,0,0,4.1-.517c.037.387.077.774.077,1.163v2.514c-1.067.657-3,2.422-3,6.608v3a1,1,0,0,0,1,1c.537,0,4.2-.063,6-1.729C32.8,63.937,36.463,64,37,64a1,1,0,0,0,1-1V60c0-4.1-1.852-5.875-2.931-6.564l.146-1.318a49.3,49.3,0,0,1,1.4-7.337l.367.564a3.867,3.867,0,0,0,2.638,1.62,3.771,3.771,0,0,0,.508.035,3.848,3.848,0,0,0,2.442-.88A3.942,3.942,0,0,0,44,43.069V41.516A3.968,3.968,0,0,0,43.437,39.474Zm-31.659-25.9A2.619,2.619,0,0,1,10.332,14,2.173,2.173,0,0,1,8,12.039v-.674a1.665,1.665,0,0,1,.061-.445L9.02,7.514a2.13,2.13,0,0,1,1.518-1.408L16,4.368v3.1a3.46,3.46,0,0,0,.431,1.654ZM30.125,25.806A.533.533,0,0,1,30,25.483v-4.17c.034.016.07.029.105.045l-.034.014a33.678,33.678,0,0,1,1.846,6.5.961.961,0,0,1-.344-.256ZM34,27.293a.509.509,0,0,1-.11.285,31,31,0,0,0-1.466-5.612l.029,0c.073.105.138.2.215.312A5.715,5.715,0,0,1,34,25ZM26,5.551V6.586L25.586,7h-.757a1,1,0,0,1-.708-.293L21.707,4.293,20.293,5.707l2.414,2.414a2.979,2.979,0,0,0,1.075.683l-.2.2h-.757a1,1,0,0,1-.708-.293L19.707,6.293,18.293,7.707,20.586,10H20.54a2.005,2.005,0,0,1-1.625-.834l-.37-.516a.973.973,0,0,0-.106-.125A1.491,1.491,0,0,1,18,7.464V3.5A1.5,1.5,0,0,1,19.5,2h3.132l.676,1.352a2.918,2.918,0,0,0,1.254,1.292ZM22,45.133A.921.921,0,0,1,22.008,45a6.069,6.069,0,0,1,1.716-3.493c.233.516.476,1.013.723,1.494a11.485,11.485,0,0,0-1.985,4.043l-.28-.28A.625.625,0,0,1,22,46.329ZM25.28,48.5a.645.645,0,0,1-1.048.318l-.135-.135a14.507,14.507,0,0,1,1.395-3.71c.125.235.241.474.351.715ZM28.2,55h.4A26.83,26.83,0,0,1,26,59.924C26.028,56.333,27.742,55.231,28.2,55Zm-1.045,6.785A30.531,30.531,0,0,0,30,56.842V60C30,60.972,28.594,61.517,27.158,61.785ZM32,60V56.842a30.531,30.531,0,0,0,2.842,4.943C33.406,61.517,32,60.972,32,60Zm4-.076A26.83,26.83,0,0,1,33.4,55h.4C34.279,55.244,35.972,56.356,36,59.924Zm6-18.408v1.553a1.976,1.976,0,0,1-.081.533l-2.974-5.949c.125-.38.251-.765.378-1.163l2.4,4.01A1.985,1.985,0,0,1,42,41.516Zm-2.107,3.467a1.823,1.823,0,0,1-1.25-.756l-1.276-1.96c.172-.525.333-1.055.523-1.572.047-.127.095-.265.142-.4l2.339,4.679A1.777,1.777,0,0,1,39.893,44.983Z"/><circle cx="36" cy="10" r="2"/></g></svg>