<svg xmlns="http://www.w3.org/2000/svg" xmlns:xlink="http://www.w3.org/1999/xlink" viewBox="0 0 64 64"><defs><linearGradient id="linear-gradient" x1="32" y1="1.304" x2="32" y2="63.304" gradientUnits="userSpaceOnUse"><stop offset="0" stop-color="#ffe100"/><stop offset="1" stop-color="#f98900"/></linearGradient><linearGradient id="linear-gradient-2" x1="12.08" y1="48.025" x2="49.92" y2="48.025" gradientUnits="userSpaceOnUse"><stop offset="0" stop-color="#b8b4b2"/><stop offset="0.333" stop-color="#e6e1de"/><stop offset="0.5" stop-color="#fffaf6"/><stop offset="0.731" stop-color="#e8e5e3"/><stop offset="1" stop-color="#d1d1d1"/></linearGradient><linearGradient id="linear-gradient-3" x1="31.025" y1="41.636" x2="30.238" y2="54.517" gradientUnits="userSpaceOnUse"><stop offset="0" stop-color="#383838" stop-opacity="0.7"/><stop offset="0.15" stop-color="#575757" stop-opacity="0.559"/><stop offset="0.671" stop-color="#b0b0b0" stop-opacity="0.15"/><stop offset="1" stop-color="#d1d1d1" stop-opacity="0"/></linearGradient><linearGradient id="linear-gradient-4" x1="11" y1="41" x2="51" y2="41" gradientUnits="userSpaceOnUse"><stop offset="0" stop-color="#b8b4b2"/><stop offset="0.333" stop-color="#e6e1de"/><stop offset="0.5" stop-color="#fffaf6"/><stop offset="0.638" stop-color="#f9f5f1"/><stop offset="0.825" stop-color="#e8e5e3"/><stop offset="1" stop-color="#d1d1d1"/></linearGradient></defs><g id="_03-Grinning_Face_with_Smiling_Eyes" data-name="03-Grinning Face with Smiling Eyes"><path d="M32,63C4.3,63,.962,39,1,33V31C.962,25,4.3,1,32,1h0C59.7,1,63.038,25,63,31v2C63.038,39,59.7,63,32,63Z" style="fill:url(#linear-gradient)"/><path d="M49.92,42.05a17.207,17.207,0,0,1-5.64,7.39A20.9,20.9,0,0,1,31,54a20.9,20.9,0,0,1-13.28-4.56,17.207,17.207,0,0,1-5.64-7.39C12.82,42.51,18.86,46,31,46S49.18,42.51,49.92,42.05Z" style="fill:url(#linear-gradient-2)"/><path d="M49.92,42.05a17.207,17.207,0,0,1-5.64,7.39A20.9,20.9,0,0,1,31,54a20.9,20.9,0,0,1-13.28-4.56,17.207,17.207,0,0,1-5.64-7.39C12.82,42.51,18.86,46,31,46S49.18,42.51,49.92,42.05Z" style="fill:url(#linear-gradient-3)"/><path d="M51,36a16.733,16.733,0,0,1-1.08,6.05C49.18,42.51,43.14,46,31,46s-18.18-3.49-18.92-3.95A16.733,16.733,0,0,1,11,36a69.955,69.955,0,0,0,20,3.02A69.955,69.955,0,0,0,51,36Z" style="fill:url(#linear-gradient-4)"/><path d="M55.045,10c.592.649,1.141,1.318,1.651,2" style="fill:none;stroke:#1d1d1b;stroke-linejoin:round;stroke-width:2px"/><path d="M8.09,53C2.05,45.666.977,36.416,1,33V31C.96,25,4.3,1,32,1c9.68,0,16.385,2.931,21.011,7" style="fill:none;stroke:#1d1d1b;stroke-linejoin:round;stroke-width:2px"/><path d="M58.061,14A34.4,34.4,0,0,1,63,30.89V33c.04,6-3.3,30-31,30-10.393,0-17.357-3.379-22-7.918" style="fill:none;stroke:#1d1d1b;stroke-linejoin:round;stroke-width:2px"/><path d="M38,29c0-4,2-8,5-8s5,4,5,8" style="fill:none;stroke:#1d1d1b;stroke-linejoin:round;stroke-width:2px"/><path d="M16,29c0-4,2-8,5-8s5,4,5,8" style="fill:none;stroke:#1d1d1b;stroke-linejoin:round;stroke-width:2px"/><path d="M31,39.02A69.955,69.955,0,0,1,11,36a16.492,16.492,0,0,0,6.722,13.445A20.894,20.894,0,0,0,31,54a20.894,20.894,0,0,0,13.278-4.555A16.492,16.492,0,0,0,51,36,69.955,69.955,0,0,1,31,39.02Z" style="fill:none;stroke:#1d1d1b;stroke-linejoin:round;stroke-width:2px"/><path d="M50,42s-6,4-19,4-19-4-19-4" style="fill:none;stroke:#1d1d1b;stroke-linejoin:round;stroke-width:2px"/><path d="M38,29c0-4,2-8,5-8s5,4,5,8" style="fill:none;stroke:#1d1d1b;stroke-linejoin:round;stroke-width:2px"/><path d="M16,29c0-4,2-8,5-8s5,4,5,8" style="fill:none;stroke:#1d1d1b;stroke-linejoin:round;stroke-width:2px"/><path d="M49.92,42.05A16.733,16.733,0,0,0,51,36a69.955,69.955,0,0,1-20,3.02A69.955,69.955,0,0,1,11,36a16.733,16.733,0,0,0,1.08,6.05,17.207,17.207,0,0,0,5.64,7.39A20.9,20.9,0,0,0,31,54a20.9,20.9,0,0,0,13.28-4.56A17.207,17.207,0,0,0,49.92,42.05Z" style="fill:none;stroke:#1d1d1b;stroke-linejoin:round;stroke-width:2px"/><path d="M50,42s-.03.02-.08.05C49.18,42.51,43.14,46,31,46s-18.18-3.49-18.92-3.95C12.03,42.02,12,42,12,42" style="fill:none;stroke:#1d1d1b;stroke-linejoin:round;stroke-width:2px"/></g></svg>