<svg xmlns="http://www.w3.org/2000/svg" viewBox="0 0 64 64"><g id="_03-report" data-name="03-report"><rect x="19" y="38" width="6" height="6" style="fill:#96e8ff"/><rect x="19" y="28" width="6" height="6" style="fill:#96e8ff"/><rect x="19" y="18" width="6" height="6" style="fill:#96e8ff"/><rect x="19" y="18" width="3" height="6" style="fill:#19cffc"/><rect x="19" y="28" width="3" height="6" style="fill:#19cffc"/><rect x="19" y="38" width="3" height="6" style="fill:#19cffc"/><path d="M41,11v1H23V7a2.006,2.006,0,0,1,2-2h4V4a3,3,0,0,1,3.16-3A3.128,3.128,0,0,1,35,4.17V5h4a2.006,2.006,0,0,1,2,2Z" style="fill:#e3b79d"/><path d="M39,5H35V4.17A3.128,3.128,0,0,0,32.16,1,3,3,0,0,0,29,4V5H25a2.006,2.006,0,0,0-2,2V9a2.006,2.006,0,0,1,2-2h4V6a3,3,0,0,1,3.16-3A3.128,3.128,0,0,1,35,6.17V7h4a2.006,2.006,0,0,1,2,2V7A2.006,2.006,0,0,0,39,5Z" style="fill:#cfa388"/><path d="M40.63,59H13a2.006,2.006,0,0,1-2-2V9a2.006,2.006,0,0,1,2-2H23v4H15V55H38A12.808,12.808,0,0,0,40.63,59Z" style="fill:#966857"/><path d="M49,37V11H41V7H51a2.006,2.006,0,0,1,2,2V37.35A12.9,12.9,0,0,0,50,37c-.34,0-.67.01-1,.04Z" style="fill:#966857"/><path d="M49,37v.04A13,13,0,0,0,38,55H15V11h8v1H41V11h8ZM25,44V38H19v6Zm0-10V28H19v6Zm0-10V18H19v6Z" style="fill:#f0f0f0"/><rect x="15" y="11" width="2" height="44" style="fill:#d9d9d9"/><rect x="47" y="11" width="2" height="44" style="fill:#d9d9d9"/><rect x="28" y="18" width="2" height="2" style="fill:#6e6e6e"/><rect x="32" y="18" width="14" height="2" style="fill:#6e6e6e"/><rect x="28" y="22" width="18" height="2" style="fill:#6e6e6e"/><rect x="28" y="28" width="2" height="2" style="fill:#6e6e6e"/><rect x="32" y="28" width="14" height="2" style="fill:#6e6e6e"/><rect x="28" y="32" width="18" height="2" style="fill:#6e6e6e"/><rect x="28" y="38" width="2" height="2" style="fill:#6e6e6e"/><rect x="32" y="38" width="15" height="2" style="fill:#6e6e6e"/><rect x="28" y="42" width="15" height="2" style="fill:#6e6e6e"/><rect x="18" y="50" width="2" height="2" style="fill:#6e6e6e"/><rect x="22" y="50" width="17" height="2" style="fill:#6e6e6e"/><rect x="48" y="55" width="4" height="4" style="fill:#ffc9c9"/><polygon points="53 41 52 51 48 51 47 41 53 41" style="fill:#ffc9c9"/><path d="M53,41H47l1,10h4Zm0-3.65A13,13,0,1,1,40.63,59,12.808,12.808,0,0,1,38,55,13,13,0,0,1,49,37.04c.33-.03.66-.04,1-.04A12.9,12.9,0,0,1,53,37.35ZM52,59V55H48v4Z" style="fill:#ff636e"/><path d="M43.63,59A12.808,12.808,0,0,1,41,55,12.986,12.986,0,0,1,51.56,37.1,12.977,12.977,0,0,0,50,37c-.34,0-.67.01-1,.04A13,13,0,0,0,38,55a13.045,13.045,0,0,0,12,8,12.98,12.98,0,0,0,1.5-.093A12.914,12.914,0,0,1,43.63,59Z" style="fill:#ff475a"/><path d="M54,36.59V9a3,3,0,0,0-3-3H41.816A3,3,0,0,0,39,4H36A4.08,4.08,0,0,0,32.213.006,4,4,0,0,0,28,4H25a3,3,0,0,0-2.816,2H13a3,3,0,0,0-3,3V57a3,3,0,0,0,3,3H40.221A13.992,13.992,0,1,0,54,36.59ZM52,9V36.16A13.884,13.884,0,0,0,50,36V11a1,1,0,0,0-1-1H42V8h9A1,1,0,0,1,52,9ZM42,12h6V36.16A13.872,13.872,0,0,0,42.826,38H32v2h8.221a14.088,14.088,0,0,0-1.694,2H28v2h9.37A13.893,13.893,0,0,0,36,50H22v2H36.16a13.8,13.8,0,0,0,.43,2H16V12h6a1,1,0,0,0,1,1H41A1,1,0,0,0,42,12ZM24,7a1,1,0,0,1,1-1h4a1,1,0,0,0,1-1V4a2,2,0,0,1,2.109-2A2.119,2.119,0,0,1,34,4.17V5a1,1,0,0,0,1,1h4a1,1,0,0,1,1,1v4H24ZM12,57V9a1,1,0,0,1,1-1h9v2H15a1,1,0,0,0-1,1V55a1,1,0,0,0,1,1H37.37a14.057,14.057,0,0,0,1.157,2H13A1,1,0,0,1,12,57Zm38,5A12,12,0,1,1,62,50,12.013,12.013,0,0,1,50,62Z"/><path d="M53,40H47a1,1,0,0,0-.995,1.1l1,10A1,1,0,0,0,48,52h4A1,1,0,0,0,53,51.1l1-10A1,1,0,0,0,53,40ZM51.1,50h-2.19l-.8-8H51.9Z"/><path d="M52,54H48a1,1,0,0,0-1,1v4a1,1,0,0,0,1,1h4a1,1,0,0,0,1-1V55A1,1,0,0,0,52,54Zm-1,4H49V56h2Z"/><path d="M18,18v6a1,1,0,0,0,1,1h6a1,1,0,0,0,1-1V18a1,1,0,0,0-1-1H19A1,1,0,0,0,18,18Zm2,1h4v4H20Z"/><path d="M25,27H19a1,1,0,0,0-1,1v6a1,1,0,0,0,1,1h6a1,1,0,0,0,1-1V28A1,1,0,0,0,25,27Zm-1,6H20V29h4Z"/><path d="M25,37H19a1,1,0,0,0-1,1v6a1,1,0,0,0,1,1h6a1,1,0,0,0,1-1V38A1,1,0,0,0,25,37Zm-1,6H20V39h4Z"/><rect x="28" y="18" width="2" height="2"/><rect x="32" y="18" width="14" height="2"/><rect x="28" y="22" width="18" height="2"/><rect x="28" y="28" width="2" height="2"/><rect x="32" y="28" width="14" height="2"/><rect x="28" y="32" width="18" height="2"/><rect x="28" y="38" width="2" height="2"/><rect x="18" y="50" width="2" height="2"/></g></svg>