<svg xmlns="http://www.w3.org/2000/svg" viewBox="0 0 64 64"><g id="_04-call_center" data-name="04-call center"><rect x="30" y="31" width="4" height="4" style="fill:#6e6e6e"/><rect x="30" y="33" width="4" height="2" style="fill:#848484"/><path d="M47,16V35s-1.93,2.9-9.6,2.99l-.36-1.78L43,31l1-12s-8,0-8-6c0,0,0,6-16,6l1,12,5.96,5.21-.36,1.78C18.93,37.9,17,35,17,35V16a15,15,0,0,1,30,0Z" style="fill:#966857"/><path d="M44,22s-.1,0-.249-.008L43,31l-5.96,5.21.36,1.78c.377,0,.729-.021,1.079-.038L43,34Z" style="fill:#8d5c4d"/><path d="M20.25,22c-.085,0-.164,0-.25,0l1,12,4.521,3.952c.35.017.7.034,1.079.038l.36-1.78L21,31Z" style="fill:#8d5c4d"/><path d="M42.6,5.4A14.991,14.991,0,0,0,17,16v3a15,15,0,0,1,30,0V16A14.916,14.916,0,0,0,42.6,5.4Z" style="fill:#8d5c4d"/><path d="M39.78,41.49l4,1.1A63.97,63.97,0,0,0,40,63H24a63.97,63.97,0,0,0-3.78-20.41l4-1.1A22.829,22.829,0,0,0,32,50,22.829,22.829,0,0,0,39.78,41.49Z" style="fill:#f0f0f0"/><path d="M24.22,43.49A22.829,22.829,0,0,0,32,52a22.829,22.829,0,0,0,7.78-8.51l3.373.928c.257-.791.476-1.416.627-1.828l-4-1.1A22.829,22.829,0,0,1,32,50a22.829,22.829,0,0,1-7.78-8.51l-4,1.1c.151.412.37,1.037.627,1.828Z" style="fill:#d9d9d9"/><path d="M24,63H17V54l-6-6a4.016,4.016,0,0,1,3.08-3.73l6.14-1.68A63.97,63.97,0,0,1,24,63Z" style="fill:#fc9942"/><path d="M53,48.17V63H47V54l6-6Z" style="fill:#ffac5a"/><path d="M53,48l-6,6v9H40a63.97,63.97,0,0,1,3.78-20.41l6.14,1.68A4.016,4.016,0,0,1,53,48Z" style="fill:#fc9942"/><path d="M14.08,46.27l6.14-1.68A65.347,65.347,0,0,1,23.953,63H24a63.97,63.97,0,0,0-3.78-20.41l-6.14,1.68A4.016,4.016,0,0,0,11,48l.416.416A4.005,4.005,0,0,1,14.08,46.27Z" style="fill:#ff873c"/><path d="M43.78,44.59l6.14,1.68a4.005,4.005,0,0,1,2.664,2.146L53,48a4.016,4.016,0,0,0-3.08-3.73l-6.14-1.68A63.97,63.97,0,0,0,40,63h.047A65.347,65.347,0,0,1,43.78,44.59Z" style="fill:#ff873c"/><path d="M37.04,36.21,35,38H29l-2.04-1.79L21,31,20,19c16,0,16-6,16-6,0,6,8,6,8,6L43,31ZM34,35V31H30v4Z" style="fill:#ffcdbe"/><path d="M36,16c0,5.389,6.437,5.936,7.751,5.992L44,19s-8,0-8-6c0,0,0,6-16,6l.25,3C35.993,21.933,36,16,36,16Z" style="fill:#ffbeaa"/><path d="M37.4,37.99,38,41l1.78.49A22.829,22.829,0,0,1,32,50a22.829,22.829,0,0,1-7.78-8.51L26,41l.6-3.01.36-1.78L29,38h6l2.04-1.79Z" style="fill:#faa68e"/><path d="M26,43l.6-3.01.36-1.78h0A7.208,7.208,0,0,0,31.714,40h.572a7.208,7.208,0,0,0,4.754-1.79h0l.36,1.78L38,43l.785.216a17.58,17.58,0,0,0,1-1.726L38,41l-.6-3.01-.36-1.78L35,38H29l-2.04-1.79-.36,1.78L26,41l-1.78.49a17.58,17.58,0,0,0,1,1.726Z" style="fill:#e09380"/><path d="M17,54v9H11V48Z" style="fill:#ffac5a"/><polygon points="30 32 30 34 24.43 34 22.14 32 30 32" style="fill:#9c9c9c"/><path d="M50.181,43.31,38.859,40.2l-.248-1.243c6.984-.368,9-3.073,9.221-3.4A1.006,1.006,0,0,0,48,35V16a16,16,0,0,0-32,0V35a1.006,1.006,0,0,0,.168.555c.219.328,2.237,3.033,9.221,3.4L25.141,40.2,13.854,43.3A4.981,4.981,0,0,0,10,48.168V63a1,1,0,0,0,1,1H53a1,1,0,0,0,1-1V48.168A4.97,4.97,0,0,0,50.181,43.31ZM30,36h4a1,1,0,0,0,1-1V31a1,1,0,0,0-1-1H30a1,1,0,0,0-1,1v1H23.662l-1.7-1.486-.877-10.523c8.93-.156,12.853-2.231,14.574-4.091,1.406,2.746,4.772,3.81,7.258,4.047l-.881,10.567L34.624,37H29.376l-3.429-3H29v1A1,1,0,0,0,30,36Zm1-2V32h2v2Zm-2.658,4.752A1,1,0,0,0,29,39h6a1,1,0,0,0,.658-.248L36.4,38.1,37.02,41.2a1,1,0,0,0,.715.768l.555.153A22.414,22.414,0,0,1,32,48.787a22.516,22.516,0,0,1-6.285-6.672l.55-.151a1,1,0,0,0,.715-.768L27.6,38.1Zm3.1,12.08a1,1,0,0,0,1.11,0,24.208,24.208,0,0,0,7.731-8.167l2.19.6A64.778,64.778,0,0,0,39.021,62H24.979a64.82,64.82,0,0,0-3.454-18.733l2.189-.6A24.2,24.2,0,0,0,31.445,50.832ZM18,34.626V16a14,14,0,0,1,28,0V34.623c-.576.557-2.648,2.131-7.786,2.35l-.078-.389,5.522-4.832A.991.991,0,0,0,44,31.083l1-12A1,1,0,0,0,44,18c-.286,0-7-.078-7-5v-.006a1,1,0,0,0-2-.019C34.987,13.117,34.4,18,20,18a1,1,0,0,0-1,1.083l1,12a.991.991,0,0,0,.338.669l5.522,4.832-.078.389C20.627,36.753,18.559,35.168,18,34.626ZM12,48.168a3,3,0,0,1,2.349-2.929l5.239-1.44a63.811,63.811,0,0,1,3.4,18.2H18V54H16v8H12ZM52,62H48V54H46v8H41.011a63.8,63.8,0,0,1,3.4-18.2l5.274,1.449A2.988,2.988,0,0,1,52,48.168Z"/></g></svg>