<svg xmlns="http://www.w3.org/2000/svg" viewBox="0 0 64 64"><g id="_04-Lipstick" data-name="04-Lipstick"><rect x="34" y="33" width="16" height="4" style="fill:#f0e5e4"/><rect x="34" y="37" width="16" height="26" style="fill:#d45f73"/><rect x="34" y="1" width="16" height="32" style="fill:#d45f73"/><path d="M39,37V56a4,4,0,0,0,4,4h7v3H34V37Z" style="fill:#a14756"/><rect x="45" y="37" width="3" height="23" style="fill:#e6677d"/><rect x="45" y="33" width="3" height="4" style="fill:#fff"/><rect x="34" y="1" width="5" height="32" style="fill:#a14756"/><rect x="34" y="33" width="5" height="4" style="fill:#dbd1d0"/><polygon points="30 33 30 37 14 37 14 33 15 33 29 33 30 33" style="fill:#f0e5e4"/><polygon points="29 21 29 33 15 33 15 21 17 21 27 21 29 21" style="fill:#cdcdcd"/><rect x="14" y="37" width="16" height="26" style="fill:#d45f73"/><path d="M22,3c2.46,0,4.5,4.95,4.92,7.98C21.01,9.94,22,3,22,3Z" style="fill:#b04d5e"/><path d="M27,12v9H17V12c0-2.76,2.24-9,5-9,0,0-.99,6.94,4.92,7.98A7.849,7.849,0,0,1,27,12Z" style="fill:#d45f73"/><path d="M19,37V56a4,4,0,0,0,4,4h7v3H14V37Z" style="fill:#a14756"/><rect x="14" y="33" width="5" height="4" style="fill:#dbd1d0"/><path d="M15,21h4v8a2,2,0,0,0,2,2h8v2H15Z" style="fill:#bdbdbd"/><rect x="25" y="37" width="3" height="23" style="fill:#e6677d"/><rect x="25" y="33" width="3" height="4" style="fill:#fff"/><rect x="24" y="21" width="3" height="10" style="fill:#e3e3e3"/><path d="M23,19a4,4,0,0,1-4-4V12a9.237,9.237,0,0,1,2.959-7.252A9.866,9.866,0,0,1,22,3c-2.76,0-5,6.24-5,9v9H27V19Z" style="fill:#c25769"/><rect x="33" y="26" width="2" height="1.999"/><path d="M50,0H34a1,1,0,0,0-1,1V24h2V2H49V32H35V30H33V63a1,1,0,0,0,1,1H50a1,1,0,0,0,1-1V1A1,1,0,0,0,50,0ZM49,34v2H35V34Zm0,28H35V38H49Z"/><rect x="45" y="4" width="2" height="2"/><rect x="45" y="8" width="2" height="2"/><path d="M30,32V21a1,1,0,0,0-1-1H28V12c0-2.968-2.328-10-6-10s-6,7.032-6,10v8H15a1,1,0,0,0-1,1V32a1,1,0,0,0-1,1v7h2V38H29V62H15V42H13V63a1,1,0,0,0,1,1H30a1,1,0,0,0,1-1V33A1,1,0,0,0,30,32ZM25.59,9.5c-2.18-1.126-2.609-3.557-2.652-5.07A11.535,11.535,0,0,1,25.59,9.5ZM18,12c0-2.132,1.43-6.023,2.928-7.452.09,2.678,1.222,6.18,5.062,7.245,0,.068.01.142.01.207v8H18ZM16,22H28V32H16ZM15,36V34H29v2Z"/></g></svg>