<svg xmlns="http://www.w3.org/2000/svg" viewBox="0 0 64 64"><title>04-Tea</title><g id="_04-Tea" data-name="04-Tea"><path d="M12,32H7.16A15.25,15.25,0,0,1,6,26Z" style="fill:#86c42b"/><path d="M16.84,32H12L6,26c6,0,9,3,9,3A10,10,0,0,1,16.84,32Z" style="fill:#a7e340"/><circle cx="40" cy="12" r="2" style="fill:#554565"/><path d="M51,19H29a14.6,14.6,0,0,1,22,0Z" style="fill:#b674f2"/><path d="M40,14a14.226,14.226,0,0,0-2,.151A15.047,15.047,0,0,1,47,19h4A14.908,14.908,0,0,0,40,14Z" style="fill:#d2a0f5"/><path d="M53.41,19.59A1.955,1.955,0,0,1,54,21a2.006,2.006,0,0,1-2,2H28a2.015,2.015,0,0,1-2-2,2.006,2.006,0,0,1,2-2H52A1.955,1.955,0,0,1,53.41,19.59Z" style="fill:#6b5b85"/><path d="M53.41,19.59A1.955,1.955,0,0,0,52,19H48a2.015,2.015,0,0,1,2,2,2.006,2.006,0,0,1-2,2h4a2.006,2.006,0,0,0,2-2A1.955,1.955,0,0,0,53.41,19.59Z" style="fill:#554565"/><path d="M21,20l5.87,7.82c-.4,1.25-.89,2.65-1.39,4.18h-6.1A56.17,56.17,0,0,1,18,20Z" style="fill:#d2a0f5"/><path d="M21,20H18l5.87,7.82c-.4,1.25-.89,2.65-1.39,4.18h3c.5-1.53.99-2.93,1.39-4.18Z" style="fill:#b674f2"/><path d="M54.1,30.72c.71,2.16,1.51,4.61,2.2,7.26.17.68.34,1.37.49,2.07A44.653,44.653,0,0,1,58,50H23a4,4,0,0,0,4-4V43h2a4,4,0,0,0,4-4V34H27V32H25.48c.5-1.53.99-2.93,1.39-4.18A18.346,18.346,0,0,0,28,23H52a18.058,18.058,0,0,0,1.1,4.72C53.39,28.64,53.73,29.64,54.1,30.72Z" style="fill:#b674f2"/><path d="M27,34h3V32H28.48c.5-1.53.99-2.93,1.39-4.18A18.346,18.346,0,0,0,31,23H28a18.346,18.346,0,0,1-1.13,4.82c-.4,1.25-.89,2.65-1.39,4.18H27Z" style="fill:#8f4cd6"/><path d="M30,46V43h2a4,4,0,0,0,4-4V34H33v5a4,4,0,0,1-4,4H27v3a4,4,0,0,1-4,4h3A4,4,0,0,0,30,46Z" style="fill:#8f4cd6"/><path d="M56.79,40.05c-.15-.7-.32-1.39-.49-2.07-.69-2.65-1.49-5.1-2.2-7.26-.37-1.08-.71-2.08-1-3A18.058,18.058,0,0,1,52,23H48a18.058,18.058,0,0,0,1.1,4.72c.29.92.63,1.92,1,3,.71,2.16,1.51,4.61,2.2,7.26.17.68.34,1.37.49,2.07A44.653,44.653,0,0,1,54,50h4A44.653,44.653,0,0,0,56.79,40.05Z" style="fill:#d2a0f5"/><polygon points="27 36 5 36 5 32 7.16 32 12 32 16.84 32 19.38 32 25.48 32 27 32 27 34 27 36" style="fill:#cdd2e1"/><path d="M33,34v5a4,4,0,0,1-4,4H27V40h1a2.006,2.006,0,0,0,2-2V37H27V34Z" style="fill:#9196aa"/><path d="M27,37v9a4,4,0,0,1-4,4H9a4,4,0,0,1-4-4V36H27Z" style="fill:#f2f6fc"/><polygon points="25.48 32 22 32 22 34 22 36 27 36 27 34 27 32 25.48 32" style="fill:#bec3d2"/><path d="M22,36V46a4,4,0,0,1-4,4h5a4,4,0,0,0,4-4V36Z" style="fill:#dce1eb"/><path d="M54.1,30.72c-.37-1.08-.71-2.08-1-3C53.55,26.54,55.52,22,59,22c4,0,4,4,4,4v8s0,6-6,6l-.21.05c-.15-.7-.32-1.39-.49-2.07A4.486,4.486,0,0,0,60,35V25C56.52,25,54.55,29.54,54.1,30.72Z" style="fill:#9196aa"/><path d="M63,50v2a2.006,2.006,0,0,1-2,2H3a2.006,2.006,0,0,1-2-2V50H63Z" style="fill:#9196aa"/><path d="M61,52H3a2.006,2.006,0,0,1-2-2v2a2.006,2.006,0,0,0,2,2H61a2.006,2.006,0,0,0,2-2V50A2.006,2.006,0,0,1,61,52Z" style="fill:#7e8596"/><path d="M30,38a2.006,2.006,0,0,1-2,2H27V37h3Z" style="fill:#8f4cd6"/><path d="M10,24H8c0-.562-.217-.8-.707-1.293a3.48,3.48,0,0,1,0-5.414C7.783,16.8,8,16.562,8,16s-.217-.8-.707-1.293A3.563,3.563,0,0,1,6,12H8c0,.562.217.8.707,1.293a3.48,3.48,0,0,1,0,5.414C8.217,19.2,8,19.438,8,20s.217.8.707,1.293A3.563,3.563,0,0,1,10,24Z" style="fill:#dce1eb"/><path d="M15,24H13c0-.562-.217-.8-.707-1.293a3.48,3.48,0,0,1,0-5.414c.49-.49.707-.731.707-1.293s-.217-.8-.707-1.293A3.563,3.563,0,0,1,11,12h2c0,.562.217.8.707,1.293a3.48,3.48,0,0,1,0,5.414C13.217,19.2,13,19.438,13,20s.217.8.707,1.293A3.563,3.563,0,0,1,15,24Z" style="fill:#dce1eb"/><path d="M64,34V26a4.821,4.821,0,0,0-5-5c-2.692,0-4.551,2.11-5.671,3.978-.109-.426-.194-.825-.252-1.186A3,3,0,0,0,55,21a3.015,3.015,0,0,0-3-3h-.548a16.033,16.033,0,0,0-8.73-4.757A2.958,2.958,0,0,0,43,12a3,3,0,0,0-6,0,2.973,2.973,0,0,0,.278,1.243A16.033,16.033,0,0,0,28.548,18H28a3,3,0,0,0-3,3,3.01,3.01,0,0,0,1.923,2.794,16.617,16.617,0,0,1-.432,1.861L21.8,19.4A1,1,0,0,0,21,19H18a1,1,0,0,0-1,1,59.579,59.579,0,0,0,1.115,11h-.633a10.56,10.56,0,0,0-1.775-2.707C15.572,28.158,12.341,25,6,25a1,1,0,0,0-1,1,16.779,16.779,0,0,0,.735,5H5a1,1,0,0,0-1,1V46a4.948,4.948,0,0,0,1.026,3H1a1,1,0,0,0-1,1v2a3,3,0,0,0,3,3H61a3,3,0,0,0,3-3V50a1,1,0,0,0-1-1H58.974c-.027-1.041-.081-2.081-.189-3.1a49.254,49.254,0,0,0-.8-4.949C62.714,40.437,64,36.27,64,34Zm-6.984,2.811c-.614-2.241-1.28-4.309-1.853-6.055.461-1.107,1.789-3.863,3.837-4.583v8.642A3.652,3.652,0,0,1,57.016,36.811ZM39,12a1,1,0,1,1,1,1A1,1,0,0,1,39,12Zm1,3a13.764,13.764,0,0,1,8.475,3H31.514A13.726,13.726,0,0,1,40,15ZM28,20H52a.978.978,0,0,1,.713.306A.965.965,0,0,1,53,21a1,1,0,0,1-1,1H28a.978.978,0,0,1-.713-.306A.965.965,0,0,1,27,21,1,1,0,0,1,28,20Zm0,18h1a1,1,0,0,1-1,1Zm0,3a3,3,0,0,0,3-3V37a1,1,0,0,0-1-1H28V35h4v4a3,3,0,0,1-3,3H28ZM19.019,21H20.5l5.258,7c-.173.525-.354,1.068-.547,1.641-.146.432-.3.9-.451,1.355h-4.6A55.181,55.181,0,0,1,19.019,21ZM16.84,33H26v2H6V33H16.84Zm-9-2a13.518,13.518,0,0,1-.614-2.359L9.586,31Zm7.382,0H12.414L8.636,27.222A11.344,11.344,0,0,1,14.289,29.7,7.348,7.348,0,0,1,15.223,31ZM6,46V37H26v9a3,3,0,0,1-3,3H9A3,3,0,0,1,6,46Zm56,6a1,1,0,0,1-1,1H3a1,1,0,0,1-1-1V51H62ZM26.974,49A4.948,4.948,0,0,0,28,46V44h1a5.006,5.006,0,0,0,5-5V34a1,1,0,0,0-1-1H28V32a1,1,0,0,0-1-1h-.132c.079-.236.161-.488.238-.716.257-.762.5-1.482.715-2.155A27.238,27.238,0,0,0,28.917,24H51.082a25.439,25.439,0,0,0,.964,3.7l0,.009.007,0c.034.106.06.2.1.308.292.927.635,1.935,1,3.012.662,2.009,1.484,4.511,2.181,7.189.167.67.334,1.349.485,2.052.368,1.6.631,3.175.83,4.726H30v2H56.866q.081,1,.108,2ZM62,34c0,.2-.065,4.61-4.439,4.965l-.048-.2a5.713,5.713,0,0,0,3.436-3.452A1.023,1.023,0,0,0,61,35V25a1,1,0,0,0-1-1c-2.74,0-4.618,2.187-5.732,4.078l-.105-.322C54.693,26.481,56.381,23,59,23a2.852,2.852,0,0,1,3,3Z"/><path d="M6,20a3.563,3.563,0,0,0,1.293,2.707C7.783,23.2,8,23.438,8,24h2a3.563,3.563,0,0,0-1.293-2.707C8.217,20.8,8,20.562,8,20s.217-.8.707-1.293a3.48,3.48,0,0,0,0-5.414C8.217,12.8,8,12.562,8,12H6a3.563,3.563,0,0,0,1.293,2.707C7.783,15.2,8,15.438,8,16s-.217.8-.707,1.293A3.563,3.563,0,0,0,6,20Z"/><path d="M11,20a3.563,3.563,0,0,0,1.293,2.707c.49.49.707.731.707,1.293h2a3.563,3.563,0,0,0-1.293-2.707C13.217,20.8,13,20.562,13,20s.217-.8.707-1.293a3.48,3.48,0,0,0,0-5.414C13.217,12.8,13,12.562,13,12H11a3.563,3.563,0,0,0,1.293,2.707c.49.49.707.731.707,1.293s-.217.8-.707,1.293A3.563,3.563,0,0,0,11,20Z"/></g></svg>