<svg xmlns="http://www.w3.org/2000/svg" viewBox="0 0 64 64"><g id="_04-Trout" data-name="04-Trout"><path d="M7,11H1a3.3,3.3,0,0,1,.55-1.83l.9-1.34a1.862,1.862,0,0,1,3.1,0l.9,1.34A3.3,3.3,0,0,1,7,11Z" style="fill:#993c35"/><path d="M1,11H7a3.3,3.3,0,0,1-.55,1.83l-.9,1.34a1.862,1.862,0,0,1-3.1,0l-.9-1.34A3.3,3.3,0,0,1,1,11Z" style="fill:#edece7"/><path d="M3.55,9.17l.9-1.34A1.814,1.814,0,0,1,5,7.3a1.839,1.839,0,0,0-2.55.526l-.9,1.34A3.3,3.3,0,0,0,1,11H3A3.3,3.3,0,0,1,3.55,9.17Z" style="fill:#672e25"/><path d="M4.45,14.17l-.9-1.34A3.3,3.3,0,0,1,3,11H1a3.3,3.3,0,0,0,.55,1.83l.9,1.34A1.839,1.839,0,0,0,5,14.7,1.814,1.814,0,0,1,4.45,14.17Z" style="fill:#dddcd7"/><path d="M6,35H4a3.234,3.234,0,0,1-1.84-.85c.42-1.26,1.59-1.65,1.8-3.16L4,31s0,1.87,3.63,1.99c-.55,1.21-1.56.53-1.62,2.01Z" style="fill:#ebb28d"/><path d="M6.01,35a.915.915,0,0,0-.01.17c0,1.23,2,2.58,2,3.5A2.354,2.354,0,0,1,6,41a3.5,3.5,0,0,1-2.37-.91A5.332,5.332,0,0,1,2,36.07v-.9a3.032,3.032,0,0,1,.16-1.02A3.234,3.234,0,0,0,4,35H6.01Z" style="fill:#efc1aa"/><path d="M6,27a2.185,2.185,0,0,1,2,2.33V30.5a6.24,6.24,0,0,1-.36,2.49H7.63C4,32.87,4,31,4,31l-.04-.01A2.493,2.493,0,0,0,4,30.5V29.33A2.185,2.185,0,0,1,6,27Z" style="fill:#efc1aa"/><path d="M4.013,35a2.97,2.97,0,0,1,.147-.85,5.253,5.253,0,0,1,1.1-1.64C4.005,31.919,4,31,4,31l-.04-.01c-.21,1.51-1.38,1.9-1.8,3.16A3.234,3.234,0,0,0,4,35Z" style="fill:#d19e7d"/><path d="M4,36.07v-.9c0-.061.01-.112.013-.17H4a3.234,3.234,0,0,1-1.84-.85A3.032,3.032,0,0,0,2,35.17v.9a5.332,5.332,0,0,0,1.63,4.02A3.5,3.5,0,0,0,6,41a2.043,2.043,0,0,0,1.6-1.039A3.538,3.538,0,0,1,5.63,39.09C4.56,38.16,4,37.63,4,36.07Z" style="fill:#dfa985"/><path d="M5.26,32.51a2.968,2.968,0,0,0,.7-1.52A2.493,2.493,0,0,0,6,30.5V29.33a2.409,2.409,0,0,1,1-2.006A1.773,1.773,0,0,0,6,27a2.185,2.185,0,0,0-2,2.33V30.5a2.493,2.493,0,0,1-.04.49L4,31S4.005,31.919,5.26,32.51Z" style="fill:#dfa985"/><circle cx="17" cy="26" r="2" style="fill:#53a0c9"/><circle cx="17" cy="18" r="2" style="fill:#53a0c9"/><path d="M16,25a1.974,1.974,0,0,1,.181-.819,2,2,0,1,0,2.638,2.638A1.974,1.974,0,0,1,18,27,2.006,2.006,0,0,1,16,25Z" style="fill:#4b90b5"/><path d="M17,20a2,2,0,0,0,1.819-1.181A1.974,1.974,0,0,1,18,19a2.006,2.006,0,0,1-2-2,1.974,1.974,0,0,1,.181-.819A2,2,0,0,0,17,20Z" style="fill:#4b90b5"/><path d="M51,50v4l-4.5-2.7A15.3,15.3,0,0,0,48.78,50Z" style="fill:#475163"/><path d="M51,54v1.21a3.652,3.652,0,0,1-.87,2.53L41,53v-.12a17.868,17.868,0,0,0,5.5-1.58Z" style="fill:#5b6880"/><path d="M28,52.69a33.221,33.221,0,0,0,4.65.31H34v6c-3.48-.75-4.35-4.5-4.35-4.5L28,53Z" style="fill:#475163"/><path d="M29,40v4s-1,1-4,1a2.015,2.015,0,0,1-2-2V42A8.76,8.76,0,0,1,29,40Z" style="fill:#c9c6c8"/><path d="M41,34l-1.56.78c-.26-.11-.52-.21-.76-.31A21.232,21.232,0,0,0,34,33.3V33l5-3,.09-.08A6.053,6.053,0,0,1,41,34Z" style="fill:#a6a0a1"/><polygon points="56.04 48 57 45 62 49 63 54 56 48 56.01 47.98 56.04 48" style="fill:#5b6880"/><polygon points="61 44 57 44 57 42 62 39 61 44" style="fill:#5b6880"/><polygon points="61 44 62 49 57 45 57 44 61 44" style="fill:#70809e"/><polygon points="63 34 62 39 57 42 57 40 63 34" style="fill:#70809e"/><path d="M51,36v3.26c-1.34-.44-2.93-1.03-4.58-1.68L49,35S51,35,51,36Z" style="fill:#5b6880"/><path d="M35,27a15.476,15.476,0,0,1,4.09,2.92L39,30l-5,3v.3a25.361,25.361,0,0,0-3.78-.3H29Z" style="fill:#c9c6c8"/><path d="M16.83,47a4.537,4.537,0,0,0,1.65,2.16,9.839,9.839,0,0,0,1.18.83C13,49.8,13,44,13,44h2.87A4.271,4.271,0,0,1,16.83,47Z" style="fill:#70809e"/><path d="M23,45v1a5.324,5.324,0,0,1-2,4H20c-.12,0-.23,0-.34-.01a9.839,9.839,0,0,1-1.18-.83A4.537,4.537,0,0,1,16.83,47a4.271,4.271,0,0,0-.96-3L13,41s.55-5.68,10-7.47V45Zm-4-5a1,1,0,1,0-1,1A1,1,0,0,0,19,40Z" style="fill:#6da3c4"/><path d="M34,33.3a21.232,21.232,0,0,1,4.68,1.17c.24.1.5.2.76.31,2.08.82,4.6,1.86,6.98,2.8,1.65.65,3.24,1.24,4.58,1.68a12.025,12.025,0,0,0,3.13.74H57v4c-6.5-.5-15,3-22,3a35.412,35.412,0,0,1-12-2V43a2.015,2.015,0,0,0,2,2c3,0,4-1,4-1V40a8.76,8.76,0,0,0-6,2V33.53A33.087,33.087,0,0,1,29,33h1.22A25.361,25.361,0,0,1,34,33.3Z" style="fill:#6293b1"/><path d="M35,47c7,0,15.5-3.5,22-3v1l-.96,3-.03-.02-1.26-.66A2.879,2.879,0,0,0,53.44,47a4.83,4.83,0,0,0-1.81.78A10.131,10.131,0,0,0,50,49a8.609,8.609,0,0,1-1.22,1,15.3,15.3,0,0,1-2.28,1.3A17.868,17.868,0,0,1,41,52.88a15.269,15.269,0,0,1-1.93.12H32.65A33.221,33.221,0,0,1,28,52.69,24.3,24.3,0,0,1,21.61,51a14.359,14.359,0,0,1-1.95-1.01c.11.01.22.01.34.01h1a5.324,5.324,0,0,0,2-4V45A35.412,35.412,0,0,0,35,47Z" style="fill:#dddcd7"/><path d="M23,33.53V42a7.71,7.71,0,0,1,3-1.571v-7.3A29.42,29.42,0,0,0,23,33.53Z" style="fill:#5787b7"/><path d="M54.13,40a3.609,3.609,0,0,1-.428-.039A1.991,1.991,0,0,1,54,41v2a1.984,1.984,0,0,1-.3,1.048A20.612,20.612,0,0,1,57,44V40Z" style="fill:#5787b7"/><path d="M26,44.958c-.306.026-.637.042-1,.042a1.947,1.947,0,0,1-1.324-.518c-.028-.025-.06-.045-.086-.072A1.955,1.955,0,0,1,23,43v2a25.7,25.7,0,0,0,3,.907c.851.211,1.856.426,3,.609V44A5,5,0,0,1,26,44.958Z" style="fill:#5787b7"/><path d="M26,47V45.907A25.7,25.7,0,0,1,23,45v1a5.324,5.324,0,0,1-2,4H20c-.12,0-.23,0-.34-.01A14.359,14.359,0,0,0,21.61,51,24.3,24.3,0,0,0,28,52.69a33.221,33.221,0,0,0,4.65.31h6.42A15.269,15.269,0,0,0,41,52.88a17.868,17.868,0,0,0,5.5-1.58A15.3,15.3,0,0,0,48.78,50,8.609,8.609,0,0,0,50,49a10.131,10.131,0,0,1,1.63-1.22A4.83,4.83,0,0,1,53.44,47a2.879,2.879,0,0,1,1.31.32l1.26.66.03.02L57,45V44a20.612,20.612,0,0,0-3.3.048c-.353.569-1.054.63-1.7.952-2,1-7,6-13,6a62.216,62.216,0,0,1-11.807-1.445A1.8,1.8,0,0,1,26,47Z" style="fill:#c9c6c8"/><path d="M25,41.78v-1A7.117,7.117,0,0,0,23,42v1a2.015,2.015,0,0,0,2,2c3,0,4-1,4-1V42.2l-2.8.561A1,1,0,0,1,25,41.78Z" style="fill:#a6a0a1"/><path d="M19.66,49.99a9.839,9.839,0,0,1-1.18-.83A4.537,4.537,0,0,1,16.83,47a4.271,4.271,0,0,0-.96-3H15l.591,2.366a1.313,1.313,0,0,1-1,1.6A6.767,6.767,0,0,0,19.66,49.99Z" style="fill:#5b6880"/><path d="M28.824,35.995a6.3,6.3,0,0,0,2,.768A33.759,33.759,0,0,0,38.437,38a3.441,3.441,0,0,0,1.148-.115.659.659,0,0,0,.215-.108.489.489,0,0,0,.142-.227,1.45,1.45,0,0,0-.538-1.51,4.751,4.751,0,0,0-1.672-.839,27.827,27.827,0,0,0-6.988-1.15c-.7-.041-2.056-.182-2.572.348C27.678,34.9,28.36,35.677,28.824,35.995Z" style="fill:#6da3c4"/><path d="M44.986,39.323c-.162-.754-.917-1.177-1.533-1.574a1.673,1.673,0,0,0-2.318.564c-.627,1.119,1.087,1.777,1.841,2.027a2.627,2.627,0,0,0,.674.157,1.416,1.416,0,0,0,.97-.3A.944.944,0,0,0,44.986,39.323Z" style="fill:#6da3c4"/><path d="M36.045,31.773,34,33v.3a21.232,21.232,0,0,1,4.68,1.17c.24.1.5.2.76.31l1.37-.685A17.407,17.407,0,0,0,36.045,31.773Z" style="fill:#838182"/><path d="M36.045,31.773a18.76,18.76,0,0,0-4.975-.843L29,33h1.22a25.361,25.361,0,0,1,3.78.3V33Z" style="fill:#a6a0a1"/><path d="M48.973,52.2a2.957,2.957,0,0,0,1.02-2.2H48.78a15.3,15.3,0,0,1-2.28,1.3l2.054,1.233C48.7,52.423,48.841,52.313,48.973,52.2Z" style="fill:#313845"/><path d="M46.5,51.3A17.868,17.868,0,0,1,41,52.88V53l3.47,1.8a22.135,22.135,0,0,0,4.084-2.268Z" style="fill:#475163"/><circle cx="18" cy="40" r="1" style="fill:#28272d"/><path d="M19,45H17.922a3.976,3.976,0,0,1-1.58-.342A5.137,5.137,0,0,1,16.83,47a4.537,4.537,0,0,0,1.65,2.16,9.839,9.839,0,0,0,1.18.83c.11.01.22.01.34.01h1a5.324,5.324,0,0,0,2-4V41A4,4,0,0,1,19,45Z" style="fill:#5787b7"/><path d="M8.525,21.149a1,1,0,0,0-.972-.044l-2,1,.894,1.79L7,23.618V25a1,1,0,0,1-2,0V15.8a2.852,2.852,0,0,0,1.387-1.075l.89-1.337a4.3,4.3,0,0,0,0-4.773l-.89-1.336A2.848,2.848,0,0,0,5,6.2V1H3V6.2A2.848,2.848,0,0,0,1.613,7.277L.723,8.614a4.3,4.3,0,0,0,0,4.773l.89,1.336A2.852,2.852,0,0,0,3,15.8V25a2.984,2.984,0,0,0,.824,2.053A3.518,3.518,0,0,0,3,29.333V30.5a2.26,2.26,0,0,1-.76,1.683A4.165,4.165,0,0,0,1,35.167v.908a6.359,6.359,0,0,0,1.972,4.77A4.486,4.486,0,0,0,6,42a3.351,3.351,0,0,0,3-3.333,3.617,3.617,0,0,0-1.122-2.144C7.55,36.127,7,35.464,7,35.167c0-.227.025-.333.017-.344a1.322,1.322,0,0,1,.164-.083C8.333,34.184,9,33.311,9,30.5V29.333a3.518,3.518,0,0,0-.824-2.28A2.984,2.984,0,0,0,9,25V22A1,1,0,0,0,8.525,21.149ZM3.277,8.387a.869.869,0,0,1,1.446,0l.89,1.335A2.269,2.269,0,0,1,5.744,10H2.256a2.189,2.189,0,0,1,.131-.277ZM2.256,12H5.744a2.189,2.189,0,0,1-.131.277l-.89,1.336a.9.9,0,0,1-1.446,0l-.89-1.335A2.269,2.269,0,0,1,2.256,12ZM7,29.333V30.5a8.525,8.525,0,0,1-.1,1.428c-1.387-.181-1.866-.687-1.906-.984l-.023,0C4.988,30.8,5,30.658,5,30.5V29.333C5,28.611,5.458,28,6,28S7,28.611,7,29.333ZM5.208,34H4a1.278,1.278,0,0,1-.528-.17c.087-.111.182-.223.287-.346.126-.147.26-.3.391-.477a4.292,4.292,0,0,0,1.255.63A1.861,1.861,0,0,0,5.208,34ZM6,40a2.507,2.507,0,0,1-1.712-.66A4.347,4.347,0,0,1,3,36.075V35.81A2.922,2.922,0,0,0,4,36H5.16a6.5,6.5,0,0,0,1.178,1.8A7.175,7.175,0,0,1,7,38.667,1.409,1.409,0,0,1,6,40Z"/><rect x="56" y="6" width="2" height="2"/><rect x="56" y="10" width="2" height="2"/><rect x="2" y="57" width="2" height="2"/><rect x="2" y="61" width="2" height="2"/><path d="M17,29a3,3,0,1,0-3-3A3,3,0,0,0,17,29Zm0-4a1,1,0,1,1-1,1A1,1,0,0,1,17,25Z"/><path d="M17,21a3,3,0,1,0-3-3A3,3,0,0,0,17,21Zm0-4a1,1,0,1,1-1,1A1,1,0,0,1,17,17Z"/><path d="M63.98,53.8,62.02,44l1.96-9.8a1,1,0,0,0-1.687-.9L56.586,39H54.131A8.825,8.825,0,0,1,52,38.532V36c0-1.476-1.616-2-3-2a1,1,0,0,0-.707.293L46.18,36.406c-1.218-.483-2.433-.976-3.54-1.425l-.874-.354A.987.987,0,0,0,42,34c0-4.793-6.31-7.782-6.578-7.907a1,1,0,0,0-1.129.2l-5.718,5.718c-15.535.242-16.535,8.534-16.57,8.892a1,1,0,0,0,.272.788L13.529,43H13a1,1,0,0,0-1,1c0,.068.109,6.586,7.355,6.964a15.806,15.806,0,0,0,1.86.955,25.127,25.127,0,0,0,6,1.669.9.9,0,0,0,.108.151l1.435,1.308a7.059,7.059,0,0,0,5.028,4.931A1.008,1.008,0,0,0,34,60a1,1,0,0,0,1-1V54h2V52H32.648a27.329,27.329,0,0,1-10.385-1.817A6.106,6.106,0,0,0,24,46v-.182A3,3,0,0,0,25,46h.006c3.247,0,4.488-1.082,4.7-1.3A1,1,0,0,0,30,44V40a1,1,0,0,0-1-1,10.937,10.937,0,0,0-5,1.135V39H22v7a4.216,4.216,0,0,1-1.368,3h-.66a5.4,5.4,0,0,1-2.147-2.144,5.082,5.082,0,0,0-1.233-3.546l-2.508-2.622C14.512,39.146,16.868,34,29.261,34h.957a24.183,24.183,0,0,1,8.1,1.4c.344.135.723.288,1.094.436l.029.059.054-.026c.763.3,1.557.625,2.394.965,3.216,1.3,5.965,2.4,8.112,3.145V40h.061a14.979,14.979,0,0,0,4.07,1H56v3.845l-.548,1.717-.238-.124A3.854,3.854,0,0,0,53.436,46c-1.258,0-3.609,1.734-4.145,2.3a11.172,11.172,0,0,1-2.74,1.87l-.036-.022-.035.057A16.741,16.741,0,0,1,39.074,52v2c.522,0,1.033-.03,1.536-.075l9.058,4.7a1,1,0,0,0,1.156-.169A4.58,4.58,0,0,0,52,55.21V50a.991.991,0,0,0-.562-.888,7.574,7.574,0,0,1,2-1.112,1.856,1.856,0,0,1,.853.211l1.078.564,6.983,5.984a1,1,0,0,0,1.63-.955ZM33,54v3.559a5.626,5.626,0,0,1-2.381-3.285.984.984,0,0,0-.162-.343c.717.041,1.444.069,2.191.069ZM28,41.048v2.409A6.777,6.777,0,0,1,25,44H25a1,1,0,0,1-1-1v-.529A8.106,8.106,0,0,1,28,41.048ZM14.128,45h1.243a3.843,3.843,0,0,1,.455,2,1.045,1.045,0,0,0,.028.237,3.317,3.317,0,0,0,.313.779A4.826,4.826,0,0,1,14.128,45ZM35.187,28.227a15.53,15.53,0,0,1,2.266,1.535l-3.968,2.381c-.028.017-.05.041-.077.061-.674-.082-1.352-.144-2.022-.176Zm1.2,4.5,2.516-1.509a4.923,4.923,0,0,1,1.043,2.183l-.547.273-.354-.141A19.931,19.931,0,0,0,36.39,32.732ZM48.217,37.2l1.17-1.17a2.519,2.519,0,0,1,.613.144V37.86C49.43,37.655,48.831,37.432,48.217,37.2ZM49.079,51H50v1.234l-1.474-.885Q48.816,51.175,49.079,51Zm.7,5.428-5.939-3.082a19.107,19.107,0,0,0,2.6-.919L50,54.566v.644A3.252,3.252,0,0,1,49.778,56.428ZM60.18,43H58v-.434l2.576-1.546Zm0,2,.3,1.5L58.6,45Zm.927-6.63-2.656,1.593,2.921-2.921ZM57.189,47.7l.322-1.012,3.58,2.863.36,1.8Z"/><circle cx="18" cy="40" r="2"/></g></svg>