<svg xmlns="http://www.w3.org/2000/svg" viewBox="0 0 64 64"><title>05-Candle</title><g id="_05-Candle" data-name="05-Candle"><path d="M44,63H11V59a2.006,2.006,0,0,1,2-2H31.75C33.53,60.5,38.34,63,44,63Z" style="fill:#bec3d2"/><path d="M31,54a6.443,6.443,0,0,0,.75,3H15V52H31.32A6.393,6.393,0,0,0,31,54Z" style="fill:#cdd2e1"/><polygon points="30 40 30 46 29 46 25 46 24 46 24 40 30 40" style="fill:#cdd2e1"/><path d="M35,36v2a2.006,2.006,0,0,1-2,2H21a2.006,2.006,0,0,1-2-2V36H35Z" style="fill:#e9edf5"/><path d="M33,38H21a2.006,2.006,0,0,1-2-2v2a2.006,2.006,0,0,0,2,2H33a2.006,2.006,0,0,0,2-2V36A2.006,2.006,0,0,1,33,38Z" style="fill:#dce1eb"/><rect x="25" y="46" width="4" height="6" style="fill:#7e8596"/><path d="M29,13a2.011,2.011,0,0,1-1.78,1.99,2.425,2.425,0,0,1-.44,0A2.011,2.011,0,0,1,25,13c0-1.1,2-4,2-4S29,11.9,29,13Z" style="fill:#ff7045"/><path d="M29,13c0-1.1-2-4-2-4s-2,2.9-2,4a2.011,2.011,0,0,0,1.78,1.99A4.99,4.99,0,0,1,22,10a14.515,14.515,0,0,1,1-6,1.959,1.959,0,0,0,2,2,7.651,7.651,0,0,1,2-5c0,4,5,4,5,9a4.99,4.99,0,0,1-4.78,4.99A2.011,2.011,0,0,0,29,13Z" style="fill:#ffda45"/><path d="M33,18v4H30v2.5a1.5,1.5,0,0,1-3,0V22H21V18H33Z" style="fill:#ffda45"/><path d="M33,22V36H21V22h6v2.5a1.5,1.5,0,0,0,3,0V22Z" style="fill:#ffa426"/><path d="M27,26.5a1.5,1.5,0,0,0,3,0v-2a1.5,1.5,0,0,1-3,0Z" style="fill:#fe8205"/><rect x="30" y="22" width="3" height="2" style="fill:#fe8205"/><rect x="21" y="22" width="6" height="2" style="fill:#fe8205"/><ellipse cx="44" cy="41" rx="6" ry="4" style="fill:#bec3d2"/><path d="M44,37a8.9,8.9,0,0,0-1.5.131C45.084,37.576,47,39.136,47,41s-1.916,3.424-4.5,3.869A8.9,8.9,0,0,0,44,45c3.31,0,6-1.79,6-4S47.31,37,44,37Z" style="fill:#afb4c8"/><path d="M31.32,52c1.32-4.01,6.49-7,12.68-7,7.18,0,13,4.03,13,9s-5.82,9-13,9c-5.66,0-10.47-2.5-12.25-6a6.389,6.389,0,0,1-.43-5Z" style="fill:#7e8596"/><path d="M44,45a18.636,18.636,0,0,0-2.494.171C47.486,45.98,52,49.624,52,54s-4.511,8.018-10.488,8.829A18.712,18.712,0,0,0,44,63c7.18,0,13-4.03,13-9S51.18,45,44,45Z" style="fill:#707789"/><path d="M52,54H50c0-2.168-2.748-4-6-4V48C48.411,48,52,50.691,52,54Z" style="fill:#dce1eb"/><path d="M10,43H8c0-.562-.217-.8-.707-1.293a3.48,3.48,0,0,1,0-5.414C7.783,35.8,8,35.562,8,35s-.217-.8-.707-1.293A3.563,3.563,0,0,1,6,31H8c0,.562.217.8.707,1.293a3.48,3.48,0,0,1,0,5.414C8.217,38.2,8,38.438,8,39s.217.8.707,1.293A3.563,3.563,0,0,1,10,43Z" style="fill:#dce1eb"/><path d="M16,34H14c0-.562-.217-.8-.707-1.293a3.48,3.48,0,0,1,0-5.414c.49-.49.707-.731.707-1.293s-.217-.8-.707-1.293A3.563,3.563,0,0,1,12,22h2c0,.562.217.8.707,1.293a3.48,3.48,0,0,1,0,5.414C14.217,29.2,14,29.438,14,30s.217.8.707,1.293A3.563,3.563,0,0,1,16,34Z" style="fill:#dce1eb"/><path d="M55,43H53a3.563,3.563,0,0,1,1.293-2.707c.49-.49.707-.731.707-1.293s-.217-.8-.707-1.293a3.48,3.48,0,0,1,0-5.414c.49-.49.707-.731.707-1.293h2a3.563,3.563,0,0,1-1.293,2.707C55.217,34.2,55,34.438,55,35s.217.8.707,1.293a3.48,3.48,0,0,1,0,5.414C55.217,42.2,55,42.438,55,43Z" style="fill:#dce1eb"/><path d="M49,34H47a3.563,3.563,0,0,1,1.293-2.707c.49-.49.707-.731.707-1.293s-.217-.8-.707-1.293a3.48,3.48,0,0,1,0-5.414c.49-.49.707-.731.707-1.293h2a3.563,3.563,0,0,1-1.293,2.707C49.217,25.2,49,25.438,49,26s.217.8.707,1.293a3.48,3.48,0,0,1,0,5.414C49.217,33.2,49,33.438,49,34Z" style="fill:#dce1eb"/><path d="M48.849,44.631A4.443,4.443,0,0,0,51,41c0-2.8-3.075-5-7-5s-7,2.2-7,5a4.436,4.436,0,0,0,2.132,3.619c-4.008,1.05-7.181,3.37-8.492,6.381H30V47a1,1,0,0,0,1-1V41h2a3,3,0,0,0,3-3V36a1,1,0,0,0-1-1H34V18a1,1,0,0,0-1-1H28V15.908A5.972,5.972,0,0,0,33,10c0-3.086-1.687-4.595-3.042-5.808C28.707,3.074,28,2.375,28,1A1,1,0,0,0,26.293.293,8.763,8.763,0,0,0,24.132,4.57,1.117,1.117,0,0,1,24,4a1,1,0,0,0-1.895-.447A15.455,15.455,0,0,0,21,10a5.972,5.972,0,0,0,5,5.908V17H21a1,1,0,0,0-1,1V35H19a1,1,0,0,0-1,1v2a3,3,0,0,0,3,3h2v5a1,1,0,0,0,1,1v4H15a1,1,0,0,0-1,1v4H13a3,3,0,0,0-3,3v4a1,1,0,0,0,1,1H44c7.72,0,14-4.486,14-10C58,49.705,54.182,46.044,48.849,44.631ZM27.11,14c-.009,0-.1,0-.11,0l-.11,0A1.012,1.012,0,0,1,26,13a7.538,7.538,0,0,1,1-2.146A7.549,7.549,0,0,1,28,13,1.013,1.013,0,0,1,27.11,14Zm-3.8-7.489A3.263,3.263,0,0,0,25,7a1,1,0,0,0,1-1,6.16,6.16,0,0,1,.6-2.6,8.971,8.971,0,0,0,2.025,2.287C29.9,6.823,31,7.808,31,10a3.978,3.978,0,0,1-1.04,2.684,13.627,13.627,0,0,0-2.137-4.252,1.038,1.038,0,0,0-1.646,0,13.627,13.627,0,0,0-2.137,4.252A3.978,3.978,0,0,1,23,10,18.846,18.846,0,0,1,23.305,6.507ZM39,41c0-1.626,2.29-3,5-3s5,1.374,5,3-2.29,3-5,3S39,42.626,39,41ZM32,19v2H30a1,1,0,0,0-1,1v2.5a.5.5,0,0,1-1,0V22a1,1,0,0,0-1-1H22V19ZM22,23h4v1.5a2.5,2.5,0,0,0,5,0V23h1V35H22ZM20,38V37H34v1a1,1,0,0,1-1,1H21A1,1,0,0,1,20,38Zm9,3v4H25V41Zm-3,6h2v4H26ZM16,53H30.08a6.789,6.789,0,0,0,.209,3H16Zm-4,9V59a1,1,0,0,1,1-1H31.171a11.351,11.351,0,0,0,4.443,4Zm32,0c-5.135,0-9.7-2.191-11.363-5.462a5.382,5.382,0,0,1-.366-4.226C33.474,48.655,38.407,46,44,46c6.617,0,12,3.589,12,8S50.617,62,44,62Z"/><path d="M44,48v2c3.252,0,6,1.832,6,4h2C52,50.691,48.411,48,44,48Z"/><path d="M8.707,40.293C8.217,39.8,8,39.562,8,39s.217-.8.707-1.293a3.48,3.48,0,0,0,0-5.414C8.217,31.8,8,31.562,8,31H6a3.563,3.563,0,0,0,1.293,2.707C7.783,34.2,8,34.438,8,35s-.217.8-.707,1.293a3.48,3.48,0,0,0,0,5.414C7.783,42.2,8,42.438,8,43h2A3.563,3.563,0,0,0,8.707,40.293Z"/><path d="M12,30a3.563,3.563,0,0,0,1.293,2.707c.49.49.707.731.707,1.293h2a3.563,3.563,0,0,0-1.293-2.707C14.217,30.8,14,30.562,14,30s.217-.8.707-1.293a3.48,3.48,0,0,0,0-5.414C14.217,22.8,14,22.562,14,22H12a3.563,3.563,0,0,0,1.293,2.707c.49.49.707.731.707,1.293s-.217.8-.707,1.293A3.563,3.563,0,0,0,12,30Z"/><path d="M53,43h2c0-.562.217-.8.707-1.293a3.48,3.48,0,0,0,0-5.414C55.217,35.8,55,35.562,55,35s.217-.8.707-1.293A3.563,3.563,0,0,0,57,31H55c0,.562-.217.8-.707,1.293a3.48,3.48,0,0,0,0,5.414c.49.49.707.731.707,1.293s-.217.8-.707,1.293A3.563,3.563,0,0,0,53,43Z"/><path d="M47,34h2c0-.562.217-.8.707-1.293a3.48,3.48,0,0,0,0-5.414C49.217,26.8,49,26.562,49,26s.217-.8.707-1.293A3.563,3.563,0,0,0,51,22H49c0,.562-.217.8-.707,1.293a3.48,3.48,0,0,0,0,5.414c.49.49.707.731.707,1.293s-.217.8-.707,1.293A3.563,3.563,0,0,0,47,34Z"/></g></svg>