<svg xmlns="http://www.w3.org/2000/svg" viewBox="0 0 64 64"><g id="_06-Fishing_hook" data-name="06-Fishing hook"><path d="M36.55,7.83l.9,1.34a4.82,4.82,0,0,1,.27.5,25.947,25.947,0,0,0-5.36,2.82A3.213,3.213,0,0,1,32,11a3.079,3.079,0,0,1,.16-1,2.993,2.993,0,0,1,.39-.83l.9-1.34A1.856,1.856,0,0,1,35,7h.02A1.884,1.884,0,0,1,36.55,7.83Z" style="fill:#993c35"/><path d="M29,11a1,1,0,0,1,1-1h2.16A3.079,3.079,0,0,0,32,11a3.213,3.213,0,0,0,.36,1.49A39.64,39.64,0,0,0,29,15Z" style="fill:#ebb28d"/><path d="M50,42.64a4.678,4.678,0,0,1-.47,2.02A6.6,6.6,0,0,1,43.5,48H42.43A24.718,24.718,0,0,0,46,36c0-1.41-.04-2.74-.11-3.99L46,32l2.36,3.66A15.825,15.825,0,0,1,50,42.64Z" style="fill:#c9c6c8"/><path d="M42.43,48c-.44.77-.92,1.52-1.43,2.24a25.387,25.387,0,0,1-4.14,4.6,19.649,19.649,0,0,1-2.89,2.1,13.982,13.982,0,0,1-5.98,2.01A8.206,8.206,0,0,1,27,59c-1.1,0-2.19-.05-3.25-.15A3.513,3.513,0,0,1,22,56c0-2,8-2,8-2a4.337,4.337,0,0,0-1.25-1.88L29,52s4-1,4-5c0-3-1-4-1-4l.03-.11A5.576,5.576,0,0,0,33,43a1.882,1.882,0,0,0,1.41-.67A2.419,2.419,0,0,0,35,40.71v-.6a2.552,2.552,0,0,0-.21-1.02L33,35V33l.04-.2A9.223,9.223,0,0,0,35,33c6,0,7-6,7-6h3.43c.19,1.46.36,3.14.46,5.01.07,1.25.11,2.58.11,3.99A24.718,24.718,0,0,1,42.43,48Z" style="fill:#6293b1"/><path d="M45.43,27H42s-1,6-7,6a9.223,9.223,0,0,1-1.96-.2,7.189,7.189,0,0,1-5.01-3.82A8.634,8.634,0,0,1,27,25a4.333,4.333,0,0,1,2-4V17.99a2.007,2.007,0,0,0,3.58,1.25C34.01,17.42,37.82,13,41,13h3v7A41.231,41.231,0,0,1,45.43,27ZM41,20a2,2,0,1,0-2,2A2.006,2.006,0,0,0,41,20Z" style="fill:#6da3c4"/><path d="M32.36,12.49a25.947,25.947,0,0,1,5.36-2.82A9.746,9.746,0,0,1,41,9h3v4H41c-3.18,0-6.99,4.42-8.42,6.24A2.007,2.007,0,0,1,29,17.99V15A39.64,39.64,0,0,1,32.36,12.49Z" style="fill:#ffedd8"/><path d="M31.01,22a2.005,2.005,0,0,0,1.57-.76C34.01,19.42,37.82,14,41,14h3V13H41c-3.18,0-6.99,4.42-8.42,6.24A2.007,2.007,0,0,1,29,17.99v2A2.01,2.01,0,0,0,31.01,22Z" style="fill:#6293b1"/><path d="M35,40.11v.6a2.419,2.419,0,0,1-.59,1.62A1.882,1.882,0,0,1,33,43a5.576,5.576,0,0,1-.97-.11A3.346,3.346,0,0,1,29,39.57C29,36.14,30,35,30,35h3l1.79,4.09A2.552,2.552,0,0,1,35,40.11Z" style="fill:#a6a0a1"/><path d="M36.86,54.84A25.387,25.387,0,0,0,41,50.24c-.06,5.86-2.26,9.57-4.89,11.39A25.2,25.2,0,0,0,37,55Z" style="fill:#c9c6c8"/><path d="M36.86,54.84,37,55a25.2,25.2,0,0,1-.89,6.63A7.239,7.239,0,0,1,32,63a4.615,4.615,0,0,1-.94-.09C31.5,62.32,34,58.82,34,57l-.03-.06A19.649,19.649,0,0,0,36.86,54.84Z" style="fill:#b8b5b7"/><path d="M33.97,56.94,34,57c0,1.82-2.5,5.32-2.94,5.91C28,62.35,28,59,28,59l-.01-.05A13.982,13.982,0,0,0,33.97,56.94Z" style="fill:#838182"/><path d="M33.04,32.8,33,33v2H30s-1,1.14-1,4.57a3.346,3.346,0,0,0,3.03,3.32L32,43s1,1,1,4c0,4-4,5-4,5l-.25.12a7.29,7.29,0,0,0-2.98-1.63A25.472,25.472,0,0,1,24,41c0-6,4-12,4-12l.03-.02A7.189,7.189,0,0,0,33.04,32.8Z" style="fill:#f6ddc9"/><path d="M25.77,50.49a7.29,7.29,0,0,1,2.98,1.63A4.337,4.337,0,0,1,30,54s-8,0-8,2a7.53,7.53,0,0,1,2.7-5.77A9.868,9.868,0,0,1,25.77,50.49Z" style="fill:#b8b5b7"/><path d="M24.7,50.23A7.53,7.53,0,0,0,22,56a3.513,3.513,0,0,0,1.75,2.85c-.47-.04-.93-.09-1.39-.16-4.01-2.22-2.5-8.18-2.37-8.66Q20.875,50,22,50A15.194,15.194,0,0,1,24.7,50.23Z" style="fill:#838182"/><path d="M22.36,58.69c-.75-.1-1.48-.22-2.2-.38A8.555,8.555,0,0,1,15,51s0-.8,4.99-.97C19.86,50.51,18.35,56.47,22.36,58.69Z" style="fill:#b8b5b7"/><path d="M15,51a8.555,8.555,0,0,0,5.16,7.31C13.24,56.82,8,52.87,8,46V44S10,51,15,51Z" style="fill:#696768"/><path d="M37,29a9.223,9.223,0,0,1-1.96-.2,7.189,7.189,0,0,1-5.01-3.82A8.634,8.634,0,0,1,29,21a4.333,4.333,0,0,0-2,4,8.634,8.634,0,0,0,1.03,3.98,7.189,7.189,0,0,0,5.01,3.82A9.223,9.223,0,0,0,35,33c6,0,7-6,7-6v-.064A6.545,6.545,0,0,1,37,29Z" style="fill:#5787b7"/><path d="M34.112,30.8a8.067,8.067,0,0,1-5.678-3.82,7.854,7.854,0,0,1-1.151-3.758A5.461,5.461,0,0,0,27,25a8.634,8.634,0,0,0,1.03,3.98,7.189,7.189,0,0,0,5.01,3.82A9.223,9.223,0,0,0,35,33a6.558,6.558,0,0,0,5.87-3.2A8.345,8.345,0,0,1,36.333,31,11.8,11.8,0,0,1,34.112,30.8Z" style="fill:#3a73a0"/><path d="M34.79,39.09,33,35H31l1.775,7.989C32.911,43,33,43,33,43a1.882,1.882,0,0,0,1.41-.67A2.419,2.419,0,0,0,35,40.71v-.6A2.552,2.552,0,0,0,34.79,39.09Z" style="fill:#c9c6c8"/><path d="M28,56s-.022-.866-1.63-1.791C24.254,54.443,22,54.938,22,56a3.469,3.469,0,0,0,1.687,2.807C23.722,57.854,24.487,56.586,28,56Z" style="fill:#5787b7"/><path d="M35,33a9.223,9.223,0,0,1-1.96-.2L33,33v1.95c.32.032.652.05,1,.05a6.864,6.864,0,0,0,6.7-4.939A6.547,6.547,0,0,1,35,33Z" style="fill:#5787b7"/><path d="M28.03,28.98,28,29s-.452.684-1.05,1.8A23.151,23.151,0,0,0,24,41a25.472,25.472,0,0,0,1.77,9.49,7.29,7.29,0,0,1,2.98,1.63L29,52a6.16,6.16,0,0,0,1.582-.715A4.171,4.171,0,0,0,28,49a27.515,27.515,0,0,1-.883-6.523A3.5,3.5,0,0,0,30.03,44.89,5.576,5.576,0,0,0,31,45a1.882,1.882,0,0,0,1.41-.67,2.106,2.106,0,0,0,.167-.227A3.306,3.306,0,0,0,32,43l.03-.11A3.346,3.346,0,0,1,29,39.57,12.612,12.612,0,0,1,29.239,37,4.844,4.844,0,0,1,30,35h3V33l.04-.2A7.189,7.189,0,0,1,28.03,28.98Z" style="fill:#f6d1b4"/><path d="M42.347,35.6a5.161,5.161,0,0,0-.781,1.634A28.34,28.34,0,0,0,40.03,43.6a2.963,2.963,0,0,0,.026.986.582.582,0,0,0,.077.192.446.446,0,0,0,.185.142,1.214,1.214,0,0,0,1.318-.324,3.926,3.926,0,0,0,.821-1.347A23.351,23.351,0,0,0,43.88,37.4c.08-.591.286-1.732-.132-2.219C43.348,34.721,42.646,35.232,42.347,35.6Z" style="fill:#6da3c4"/><path d="M38.19,48.483a2.51,2.51,0,0,0,1.759-.7,1.341,1.341,0,0,0,.2-1.983c-.751-.842-1.8.285-2.228.794a2.068,2.068,0,0,0-.327.475,1.131,1.131,0,0,0-.028.851A.872.872,0,0,0,38.19,48.483Z" style="fill:#6da3c4"/><circle cx="39" cy="20" r="2" style="fill:#262c3c"/><path d="M40,11c-1.669,0-4.958,2.548-6.66,3.922A1.434,1.434,0,0,1,31,13.812a1.4,1.4,0,0,1,.069-.419C29.811,14.307,29,15,29,15v2.99a2.007,2.007,0,0,0,3.58,1.25C34.01,17.42,37.82,13,41,13h3V10.723A1.987,1.987,0,0,1,43,11Z" style="fill:#efc1aa"/><path d="M32,11H31a1,1,0,0,0-1,1v2.2c.59-.458,1.405-1.065,2.36-1.7A3.213,3.213,0,0,1,32,11Z" style="fill:#262c3c"/><path d="M37.349,9.02a14.044,14.044,0,0,0-5.292,1.4,3.187,3.187,0,0,0,.3,2.072,25.947,25.947,0,0,1,5.36-2.82,4.82,4.82,0,0,0-.27-.5Z" style="fill:#672e25"/><path d="M32.03,42.89A3.346,3.346,0,0,1,29,39.57,10.849,10.849,0,0,1,29.5,36H29s-1,1.14-1,4.57a3.346,3.346,0,0,0,3.03,3.32A5.576,5.576,0,0,0,32,44a1.73,1.73,0,0,0,.513-.087A2.893,2.893,0,0,0,32,43Z" style="fill:#ebb28d"/><path d="M33.734,42.834a1.849,1.849,0,0,1-.354.121,1.761,1.761,0,0,0,.354-.121Z" style="fill:#ebb28d"/><path d="M33,43a1.653,1.653,0,0,0,.38-.045A1.71,1.71,0,0,1,33,43Z" style="fill:#585cbf"/><path d="M33.734,42.834a1.761,1.761,0,0,1-.354.121A1.653,1.653,0,0,1,33,43a5.576,5.576,0,0,1-.97-.11L32,43a2.893,2.893,0,0,1,.513.913,1.965,1.965,0,0,0,.9-.583A2.188,2.188,0,0,0,33.734,42.834Z" style="fill:#5787b7"/><path d="M46.843,45.516a1.532,1.532,0,0,1-.7-.711,2.364,2.364,0,0,1-.138-1.034c.085-1.83,1.054-3.345,1.427-5.106a12.834,12.834,0,0,0-.029-4.49L46,32l-.11.01c.07,1.25.11,2.58.11,3.99a24.718,24.718,0,0,1-3.57,12H43.5a7,7,0,0,0,5.31-2.271.881.881,0,0,1-.216.093A2.338,2.338,0,0,1,46.843,45.516Z" style="fill:#b8b5b7"/><path d="M36.866,57.531a18.957,18.957,0,0,0,4.049-5.8c.038-.486.08-.967.085-1.486a25.387,25.387,0,0,1-4.14,4.6L37,55A25.029,25.029,0,0,1,36.866,57.531Z" style="fill:#b8b5b7"/><path d="M32.019,61.517c-.436.673-.812,1.2-.959,1.393A4.615,4.615,0,0,0,32,63a6.392,6.392,0,0,0,1.106-.1A1.664,1.664,0,0,1,32.019,61.517Z" style="fill:#838182"/><path d="M33.026,59.818a1.933,1.933,0,0,1,.183-.089,9.571,9.571,0,0,0,3.657-2.2A25.029,25.029,0,0,0,37,55l-.14-.16a19.649,19.649,0,0,1-2.89,2.1L34,57A6.955,6.955,0,0,1,33.026,59.818Z" style="fill:#838182"/><path d="M32,61.328a1.659,1.659,0,0,1,1.026-1.51A6.955,6.955,0,0,0,34,57l-.03-.06a13.982,13.982,0,0,1-5.98,2.01L28,59s0,3.35,3.06,3.91c.147-.2.523-.72.959-1.393A1.68,1.68,0,0,1,32,61.328Z" style="fill:#696768"/><path d="M28.75,52.12a7.29,7.29,0,0,0-2.98-1.63,9.868,9.868,0,0,0-1.07-.26,7.777,7.777,0,0,0-1.728,2.093,9.834,9.834,0,0,1,3.291,1.9C28.171,54,30,54,30,54A4.337,4.337,0,0,0,28.75,52.12Z" style="fill:#c9c6c8"/><path d="M21,52a6.472,6.472,0,0,1,1.972.323A7.777,7.777,0,0,1,24.7,50.23,15.194,15.194,0,0,0,22,50q-1.125,0-2.01.03a12.512,12.512,0,0,0-.339,2.055A10.248,10.248,0,0,1,21,52Z" style="fill:#b8b5b7"/><path d="M16,54s.769-1.536,3.651-1.915a12.512,12.512,0,0,1,.339-2.055C15,50.2,15,51,15,51a8.034,8.034,0,0,0,.755,2.985C15.836,53.989,15.919,54,16,54Z" style="fill:#c9c6c8"/><path d="M45.5,1C41.75,1,41,5,41,5a10.276,10.276,0,0,1,4.5-1.333A1.424,1.424,0,0,0,47,2.333,1.424,1.424,0,0,0,45.5,1Z" style="fill:#6293b1"/><path d="M56,48c-5,0-6,6-6,6a12.677,12.677,0,0,1,6-2,2,2,0,0,0,0-4Z" style="fill:#6293b1"/><path d="M10,33c5,0,6,6,6,6a12.677,12.677,0,0,0-6-2,2,2,0,0,1,0-4Z" style="fill:#6293b1"/><path d="M52.354,58.891c-3.9-4.255-9.354,0-9.354,0a13.484,13.484,0,0,1,6.236,3.4,2.076,2.076,0,0,0,3.118,0A2.566,2.566,0,0,0,52.354,58.891Z" style="fill:#6293b1"/><path d="M13.5,41c3.75,0,4.5,4,4.5,4a10.276,10.276,0,0,0-4.5-1.333A1.343,1.343,0,1,1,13.5,41Z" style="fill:#6293b1"/><path d="M2.98.8,1.02,1.2a18,18,0,0,0,.6,2.133l1.893-.647A16.973,16.973,0,0,1,2.98.8Z"/><path d="M43.5,49a7.538,7.538,0,0,0,6.929-3.907A5.66,5.66,0,0,0,51,42.639a16.763,16.763,0,0,0-1.74-7.424,1.038,1.038,0,0,0-.059-.1l-2.339-3.622A52.045,52.045,0,0,0,45,19.844V9a1,1,0,0,0-1-1H41a9.95,9.95,0,0,0-2.817.471l-.8-1.194a2.847,2.847,0,0,0-1.431-1.092,2.744,2.744,0,0,0-.457-.979C34.43,3.742,31.906,3,28,3c-2.815,0-5.553,1.686-8.452,3.471C16.731,8.206,13.818,10,11,10,7.536,10,5.431,7.051,4.274,4.578l-1.812.846C4.474,9.726,7.426,12,11,12c3.385,0,6.543-1.945,9.6-3.826C23.248,6.542,25.751,5,28,5c4.1,0,5.4.855,5.8,1.281a2.849,2.849,0,0,0-1.183,1l-.89,1.337a4.231,4.231,0,0,0-.57,3.493c-.427.3-.808.573-1.153.831V9a2,2,0,0,0-2,2v9.474A5.544,5.544,0,0,0,26,25c0,2.885,1.689,7.163,6,8.544V34H30a1,1,0,0,0-.753.342C29.12,34.487,28,35.874,28,39.571a4.182,4.182,0,0,0,3.317,4.179A5.881,5.881,0,0,1,32,47a4.236,4.236,0,0,1-3.059,3.974,9.224,9.224,0,0,0-4.064-1.728c-.137-.025-.279-.034-.416-.055l-.016-.023-.025.017A16.348,16.348,0,0,0,22,49q-1.145,0-2.044.03c-2.846.1-4.559.387-5.374.949-3.885-.395-5.6-6.194-5.621-6.255A1,1,0,0,0,7,44v2c0,6.672,4.72,11.515,12.943,13.286.687.153,1.411.278,2.277.394.475.072.951.124,1.436.166h.021c1.078.1,2.2.153,3.323.153.035,0,.069,0,.1,0A4.688,4.688,0,0,0,32,64a8.522,8.522,0,0,0,4.9-1.7l.05.016.023-.07c2.628-1.94,4.865-5.628,5.007-11.653q.543-.78,1.037-1.593ZM9.371,48.886a7.381,7.381,0,0,0,4.718,3.048,9.552,9.552,0,0,0,1.486,3.788A10.92,10.92,0,0,1,9.371,48.886Zm6.671,2.608a12.256,12.256,0,0,1,2.715-.4,10.569,10.569,0,0,0,.506,5.547A7.5,7.5,0,0,1,16.042,51.494ZM47,36c0-.212-.005-.412-.007-.621l.5.768A14.769,14.769,0,0,1,49,42.639a3.674,3.674,0,0,1-.374,1.591,5.441,5.441,0,0,1-4.483,2.731A24.965,24.965,0,0,0,47,36ZM33.387,9.723l.89-1.336a.9.9,0,0,1,1.446,0l.533.8a27.21,27.21,0,0,0-3.24,1.706A2.288,2.288,0,0,1,33.387,9.723ZM30,39.571A8.908,8.908,0,0,1,30.576,36h1.77l1.527,3.489a1.572,1.572,0,0,1,.127.622v.6A1.187,1.187,0,0,1,33,42C32.7,42,30,41.908,30,39.571ZM24.982,51.318a6.424,6.424,0,0,1,3.277,1.715,18.818,18.818,0,0,0-4.856.7A6.573,6.573,0,0,1,24.982,51.318Zm-3.964,4.3a9.244,9.244,0,0,1-.218-4.6C21.176,51,21.571,51,22,51c.211,0,.406.017.609.025A8.358,8.358,0,0,0,21.018,55.613Zm9.643,6.146a2.666,2.666,0,0,1-1.553-1.939,14.608,14.608,0,0,0,3.289-.971A23.343,23.343,0,0,1,30.661,61.759Zm4.561-.672a5.968,5.968,0,0,1-2.265.837,13.143,13.143,0,0,0,2-4.42q.49-.31.968-.652A24.453,24.453,0,0,1,35.222,61.087Zm2.548-2.633A26.617,26.617,0,0,0,38,55.178c.562-.512,1.1-1.058,1.627-1.629A15.131,15.131,0,0,1,37.77,58.454ZM27,58c-.987,0-1.962-.046-2.909-.128A2.435,2.435,0,0,1,23,56.086C23.555,55.514,26.825,55,30,55a1,1,0,0,0,.97-1.244,4.48,4.48,0,0,0-.576-1.217A6.07,6.07,0,0,0,34,47a9.96,9.96,0,0,0-.421-3.064A3.227,3.227,0,0,0,36,40.714v-.6a3.58,3.58,0,0,0-.3-1.423l-1.7-3.9v-.844c.324.03.653.053,1,.053a8.078,8.078,0,0,0,7.986-6.835l-1.972-.33C40.979,27.046,40.1,32,35,32c-5.742,0-7-5.053-7-7A3.4,3.4,0,0,1,29.447,21.9,1,1,0,0,0,30,21v-.186a2.951,2.951,0,0,0,3.366-.96C35.6,17.024,38.772,14,41,14V12c-3.473,0-7.258,4.146-9.2,6.616A1.006,1.006,0,0,1,30,18V15.471C31.44,14.3,37.023,10,41,10h2V20a1.018,1.018,0,0,0,.051.315A55.15,55.15,0,0,1,45,36C45,45.606,36.271,58,27,58Z"/><path d="M25.443,31.569A22.967,22.967,0,0,0,23,41a27.506,27.506,0,0,0,.965,7.265l1.93-.529A25.447,25.447,0,0,1,25,41a20.989,20.989,0,0,1,2.248-8.569Z"/><path d="M39,17a3,3,0,1,0,3,3A3,3,0,0,0,39,17Zm0,4a1,1,0,1,1,1-1A1,1,0,0,1,39,21Z"/><path d="M40.426,5.818a1,1,0,0,0,1.083.043A9.308,9.308,0,0,1,45.5,4.667,2.424,2.424,0,0,0,48,2.333,2.424,2.424,0,0,0,45.5,0c-3.623,0-5.171,3.15-5.482,4.816A1,1,0,0,0,40.426,5.818ZM45.5,2c.286,0,.5.176.5.333s-.214.334-.5.334a8.728,8.728,0,0,0-2.452.388A3.2,3.2,0,0,1,45.5,2Z"/><path d="M56,47c-4.625,0-6.593,4.471-6.986,6.835a1,1,0,0,0,1.541,1A11.652,11.652,0,0,1,56,53a3,3,0,0,0,0-6Zm0,4a11.306,11.306,0,0,0-4.276.975A4.737,4.737,0,0,1,56,49a1,1,0,0,1,0,2Z"/><path d="M10,32a3,3,0,0,0,0,6,11.72,11.72,0,0,1,5.446,1.833,1,1,0,0,0,1.54-1C16.593,36.471,14.625,32,10,32Zm0,4a1,1,0,0,1,0-2,4.736,4.736,0,0,1,4.276,2.976A11.283,11.283,0,0,0,10,36Z"/><path d="M42.385,58.1a1,1,0,0,0,.4,1.765,12.48,12.48,0,0,1,5.712,3.1A3.087,3.087,0,0,0,50.794,64h0a3.093,3.093,0,0,0,2.3-1.03,3.545,3.545,0,0,0,0-4.754C49.516,54.311,44.525,56.434,42.385,58.1Zm9.232,3.516a1.076,1.076,0,0,1-1.643,0,12.658,12.658,0,0,0-4.543-2.988c1.673-.735,4.193-1.241,6.186.935A1.571,1.571,0,0,1,51.617,61.619Z"/><path d="M11,42.333a2.424,2.424,0,0,0,2.5,2.334,9.308,9.308,0,0,1,3.991,1.194,1,1,0,0,0,1.491-1.045C18.671,43.15,17.123,40,13.5,40A2.424,2.424,0,0,0,11,42.333Zm2.5.334c-.286,0-.5-.176-.5-.334s.214-.333.5-.333a3.187,3.187,0,0,1,2.433,1.049A8.756,8.756,0,0,0,13.5,42.667Z"/></g></svg>