<svg xmlns="http://www.w3.org/2000/svg" viewBox="0 0 64 64"><g id="_06-Powder_puff" data-name="06-Powder puff"><path d="M26,24.4V28a7.943,7.943,0,0,1-7-4l-3,3V24.4A4.662,4.662,0,0,1,20.88,20h.24A4.662,4.662,0,0,1,26,24.4Z" style="fill:#885655"/><path d="M26,29v.5A4.768,4.768,0,0,1,21,34a5.273,5.273,0,0,1-3.54-1.32A4.279,4.279,0,0,1,16,29.5V27l3-3a7.943,7.943,0,0,0,7,4Z" style="fill:#fef9f6"/><path d="M16,27v2.5a4.279,4.279,0,0,0,1.46,3.18A5.273,5.273,0,0,0,21,34a4.768,4.768,0,0,0,5-4.5V24.4A4.662,4.662,0,0,0,21.12,20h-.24A4.662,4.662,0,0,0,16,24.4ZM32.06,47.66A20,20,0,1,1,21,11a19.818,19.818,0,0,1,11,3.3,20.174,20.174,0,0,1,2.53,1.97,20.005,20.005,0,0,1,5.78,19.94A14,14,0,0,0,32.14,47C32.11,47.22,32.08,47.44,32.06,47.66Z" style="fill:#d45f73"/><path d="M63,31a19.949,19.949,0,0,1-4.22,12.29,14.1,14.1,0,0,0-1.67-2.8A17.006,17.006,0,0,0,43,14a16.761,16.761,0,0,0-8.47,2.27A20.174,20.174,0,0,0,32,14.3v-.01A20.008,20.008,0,0,1,63,31Z" style="fill:#d45f73"/><path d="M60,31a16.982,16.982,0,0,1-2.89,9.49,13.986,13.986,0,0,0-16.8-4.28,20.005,20.005,0,0,0-5.78-19.94A16.761,16.761,0,0,1,43,14,17,17,0,0,1,60,31Z" style="fill:#fff0e6"/><path d="M59.86,47a14.356,14.356,0,0,1,0,4H32.14A14.6,14.6,0,0,1,32,49c0-.45.02-.9.06-1.34.02-.22.05-.44.08-.66H59.86Z" style="fill:#fef9f6"/><path d="M46,60a11.006,11.006,0,0,0,10.82-9h3.04a14,14,0,0,1-27.72,0h3.04A11.006,11.006,0,0,0,46,60Z" style="fill:#f5c3aa"/><path d="M58.78,43.29A13.938,13.938,0,0,1,59.86,47H56.82a11,11,0,0,0-21.64,0H32.14a14,14,0,0,1,8.17-10.79,13.986,13.986,0,0,1,16.8,4.28A14.1,14.1,0,0,1,58.78,43.29Z" style="fill:#f5c3aa"/><path d="M35.18,51H56.82a11,11,0,0,1-21.64,0Z" style="fill:#fadfcc"/><path d="M56.82,47H35.18a11,11,0,0,1,21.64,0Z" style="fill:#fadfcc"/><path d="M35.18,51H32.14a13.908,13.908,0,0,0,2.3,5.9,5.251,5.251,0,0,1,1.582-1.225c.276-.151.583-.3.911-.444A10.907,10.907,0,0,1,35.18,51Z" style="fill:#e6af93"/><path d="M57.82,51h-1c-.066.358-.153.708-.253,1.054.343-.011.686-.02,1.033-.028.682-.014,1.373-.022,2.069-.024.073-.331.142-.663.191-1Z" style="fill:#e6af93"/><path d="M59.676,46q-1.049,0-2.076-.024c-.347-.008-.69-.017-1.033-.028.1.346.187.7.253,1.054h3.04C59.811,46.661,59.749,46.327,59.676,46Z" style="fill:#e6af93"/><path d="M36.027,42.328A5.28,5.28,0,0,1,34.443,41.1a13.9,13.9,0,0,0-2.3,5.9h3.04a10.907,10.907,0,0,1,1.758-4.228C36.61,42.627,36.3,42.479,36.027,42.328Z" style="fill:#e6af93"/><path d="M56.567,52.054c.1-.346.187-.7.253-1.054H35.18a10.907,10.907,0,0,0,1.758,4.228C40.77,53.532,48.007,52.314,56.567,52.054Z" style="fill:#f5c3aa"/><path d="M36.938,42.772A10.907,10.907,0,0,0,35.18,47H56.82c-.066-.358-.153-.708-.253-1.054C48.007,45.686,40.77,44.468,36.938,42.772Z" style="fill:#f5c3aa"/><path d="M35.19,47H32.14c-.03.22-.06.44-.08.66-.04.44-.06.89-.06,1.34a14.6,14.6,0,0,0,.14,2h3.05a10.621,10.621,0,0,1,0-4Z" style="fill:#f8eae9"/><path d="M59.86,47H56.81a10.621,10.621,0,0,1,0,4h3.05a14.356,14.356,0,0,0,0-4Z" style="fill:#f8eae9"/><path d="M43,14a16.761,16.761,0,0,0-8.47,2.27,20.021,20.021,0,0,1,1.451,1.477,14.985,14.985,0,0,1,19.727,21.2,13.892,13.892,0,0,1,1.4,1.547A17.006,17.006,0,0,0,43,14Z" style="fill:#fad8c1"/><path d="M32,14.3a20.174,20.174,0,0,1,2.53,1.97A16.633,16.633,0,0,1,37.279,15q-.364-.372-.749-.725A20.635,20.635,0,0,0,34.7,12.8,19.945,19.945,0,0,0,32,14.29Z" style="fill:#a14756"/><path d="M57.11,40.49a14.1,14.1,0,0,1,1.67,2.8A20.019,20.019,0,0,0,60.489,40.7a14.018,14.018,0,0,0-1.929-2.87A17.254,17.254,0,0,1,57.11,40.49Z" style="fill:#a14756"/><path d="M48,33a13.94,13.94,0,0,0-6.548,1.629c.281-.148.566-.289.858-.419A20.006,20.006,0,0,0,37.279,15,16.633,16.633,0,0,0,34.53,16.27a20.005,20.005,0,0,1,5.78,19.94,13.986,13.986,0,0,1,16.8,4.28,17.254,17.254,0,0,0,1.45-2.663A13.957,13.957,0,0,0,48,33Z" style="fill:#fad8c1"/><rect x="49" y="20" width="2" height="2" style="fill:#fad8c1"/><rect x="51" y="23" width="2" height="2" style="fill:#fad8c1"/><path d="M25.092,43.9A27.183,27.183,0,0,1,5.026,19,19.976,19.976,0,0,0,21,51c.678,0,1.346-.046,2.007-.112A19.821,19.821,0,0,0,32.06,47.66c.02-.22.05-.44.08-.66a13.807,13.807,0,0,1,.447-2.01,14.013,14.013,0,0,1,7.723-8.78c.1-.355.178-.717.255-1.08C33.753,35.791,28.017,39.184,25.092,43.9Z" style="fill:#c25769"/><path d="M64,31A20.988,20.988,0,0,0,32.006,13.117a21,21,0,1,0-.983,36.328,14.991,14.991,0,1,0,28.89-6.022A20.792,20.792,0,0,0,64,31ZM43,12A19.021,19.021,0,0,1,62,31a18.815,18.815,0,0,1-3.093,10.4c-.19-.322-.385-.64-.6-.945A17.987,17.987,0,0,0,43,13a18.4,18.4,0,0,0-2.115.123l.232,1.986A16.406,16.406,0,0,1,43,15,16,16,0,0,1,56.968,38.8a14.918,14.918,0,0,0-15.3-4.158,20.9,20.9,0,0,0-6.465-19.109c-.449-.413-.917-.8-1.4-1.167A18.952,18.952,0,0,1,43,12ZM59,49c0,.338-.025.669-.051,1h-25.9c-.026-.331-.051-.662-.051-1s.025-.669.051-1h25.9C58.975,48.331,59,48.662,59,49ZM33.363,46a12.985,12.985,0,0,1,25.274,0ZM2,31a19,19,0,1,1,37.443,4.53,15.014,15.014,0,0,0-8.3,11.522A18.981,18.981,0,0,1,2,31ZM46,62A13.014,13.014,0,0,1,33.363,52H58.637A13.014,13.014,0,0,1,46,62Z"/><path d="M39.235,15.445l-.47-1.944a17.788,17.788,0,0,0-1.858.559l.682,1.88A15.8,15.8,0,0,1,39.235,15.445Z"/><path d="M46,37a11.933,11.933,0,0,0-11.182,7.637l1.864.727a10,10,0,0,1,18.635,0l1.864-.728A11.933,11.933,0,0,0,46,37Z"/><path d="M55.318,52.636a10,10,0,0,1-18.635,0l-1.864.728a12.005,12.005,0,0,0,22.363,0Z"/><rect x="10" y="39" width="21" height="2"/><path d="M21,35a5.772,5.772,0,0,0,6-5.5V24.4A5.662,5.662,0,0,0,21.116,19h-.232A5.662,5.662,0,0,0,15,24.4v5.1A5.772,5.772,0,0,0,21,35Zm4-5.5A3.779,3.779,0,0,1,21,33a3.779,3.779,0,0,1-4-3.5V27.414l1.846-1.846A8.845,8.845,0,0,0,25,28.951V29.5ZM20.884,21h.232A3.668,3.668,0,0,1,25,24.4V26.93A6.887,6.887,0,0,1,19.9,23.553a1,1,0,0,0-1.6-.26L17,24.586V24.4A3.668,3.668,0,0,1,20.884,21Z"/><rect x="30" y="30" width="2" height="2"/><rect x="30" y="34" width="2" height="2"/><rect x="32" y="32" width="2" height="2"/><rect x="28" y="32" width="2" height="2"/><rect x="9" y="22" width="2" height="2"/><rect x="9" y="26" width="2" height="2"/><rect x="11" y="24" width="2" height="2"/><rect x="7" y="24" width="2" height="2"/><rect x="15" y="42" width="12" height="2"/></g></svg>