<svg xmlns="http://www.w3.org/2000/svg" viewBox="0 0 64 64"><title>06-Top</title><g id="_06-Top" data-name="06-Top"><rect x="24" y="12" width="16" height="3" style="fill:#7e8596"/><path d="M47,31.25V36H17V31.25A11.066,11.066,0,0,0,21,32H43A11.066,11.066,0,0,0,47,31.25Z" style="fill:#7e8596"/><path d="M49,56s-10,2-17,2-17-2-17-2c0-4,3-9,3-12V36H46v8C46,47,49,52,49,56Z" style="fill:#ffdecf"/><path d="M18,56c0-4,3-9,3-12V36H18v8c0,3-3,8-3,12,0,0,10,2,17,2,.487,0,.989-.01,1.5-.029A116.378,116.378,0,0,1,18,56Z" style="fill:#ffcdbe"/><path d="M46,44V36H43v8c0,3,3,8,3,12a116.378,116.378,0,0,1-15.5,1.971c.511.019,1.013.029,1.5.029,7,0,17-2,17-2C49,52,46,47,46,44Z" style="fill:#ffcdbe"/><path d="M46,36H18v4H46Z" style="fill:#ffcdbe"/><path d="M22,1H42a38.606,38.606,0,0,1-2,11H24A38.606,38.606,0,0,1,22,1Z" style="fill:#ffdecf"/><path d="M40,7H24a40.4,40.4,0,0,1-1.491-6H22a38.606,38.606,0,0,0,2,11H40A38.606,38.606,0,0,0,42,1h-.509A40.4,40.4,0,0,1,40,7Z" style="fill:#ffcdbe"/><path d="M49,56l1,7H14l1-7s10,2,17,2S49,56,49,56Z" style="fill:#b674f2"/><polygon points="14.429 60 14 63 50 63 49.571 60 14.429 60" style="fill:#8f4cd6"/><path d="M47,31.25A11.066,11.066,0,0,1,43,32H21A10.99,10.99,0,0,1,10,21c0-11,7-15,7-20h5a38.606,38.606,0,0,0,2,11v3H40V12A38.606,38.606,0,0,0,42,1h5c0,5,7,9,7,20A10.994,10.994,0,0,1,47,31.25Z" style="fill:#b674f2"/><path d="M47,4c0,4.715,6.219,8.547,6.928,18.193A10.917,10.917,0,0,0,54,21c0-11-7-15-7-20H42a38.606,38.606,0,0,1-2,11v3A38.606,38.606,0,0,0,42,4Z" style="fill:#d2a0f5"/><path d="M17,4h5a38.606,38.606,0,0,0,2,11V12A38.606,38.606,0,0,1,22,1H17c0,5-7,9-7,20a10.917,10.917,0,0,0,.072,1.193C10.781,12.547,17,8.715,17,4Z" style="fill:#d2a0f5"/><path d="M47,26.25A11.066,11.066,0,0,1,43,27H21a10.979,10.979,0,0,1-10.8-8.956A23.637,23.637,0,0,0,10,21,10.99,10.99,0,0,0,21,32H43A10.99,10.99,0,0,0,54,21a23.637,23.637,0,0,0-.2-2.956A11,11,0,0,1,47,26.25Z" style="fill:#8f4cd6"/><path d="M48,36V31.905A11.918,11.918,0,0,0,55,21c0-6.853-2.582-11.063-4.656-14.446C49.034,4.418,48,2.731,48,1a1,1,0,0,0-1-1H17a1,1,0,0,0-1,1c0,1.731-1.034,3.418-2.344,5.554C11.582,9.937,9,14.147,9,21a11.918,11.918,0,0,0,7,10.905V36a1,1,0,0,0,1,1v7a17.463,17.463,0,0,1-1.281,4.835,23.417,23.417,0,0,0-1.714,7.056l-1,6.967A1,1,0,0,0,14,64H50a1,1,0,0,0,.99-1.142l-1-6.967a23.417,23.417,0,0,0-1.714-7.056A17.463,17.463,0,0,1,47,44V37A1,1,0,0,0,48,36ZM18,35V32.609A11.988,11.988,0,0,0,21,33H43a11.994,11.994,0,0,0,3-.391V35Zm7-22H39v1H25Zm14.271-2H24.729a39.4,39.4,0,0,1-1.686-9H40.957A39.4,39.4,0,0,1,39.271,11ZM11,21c0-6.288,2.418-10.232,4.361-13.4A15.822,15.822,0,0,0,17.923,2h3.112A41.065,41.065,0,0,0,23,12.153V15a1,1,0,0,0,1,1H40a1,1,0,0,0,1-1V12.153A41.065,41.065,0,0,0,42.965,2h3.112a15.822,15.822,0,0,0,2.562,5.6C50.582,10.768,53,14.712,53,21A9.992,9.992,0,0,1,43,31H21a10.047,10.047,0,0,1-3.639-.682A9.942,9.942,0,0,1,11,21Zm4.153,41,.689-4.821A102.362,102.362,0,0,0,32,59a102.362,102.362,0,0,0,16.158-1.821L48.847,62ZM46.4,49.5a25.926,25.926,0,0,1,1.561,5.678A102.8,102.8,0,0,1,32,57a102.846,102.846,0,0,1-15.957-1.819A25.926,25.926,0,0,1,17.6,49.5,18.427,18.427,0,0,0,19,44V37H45v7A18.427,18.427,0,0,0,46.4,49.5Z"/><rect x="31" y="46" width="2" height="6"/><rect x="31" y="54" width="2" height="2"/></g></svg>