<svg xmlns="http://www.w3.org/2000/svg" viewBox="0 0 64 64"><g id="_07-Concealer" data-name="07-Concealer"><path d="M21,17.4V21a7.943,7.943,0,0,1-7-4l-3,3V17.4A4.662,4.662,0,0,1,15.88,13h.24A4.662,4.662,0,0,1,21,17.4Z" style="fill:#885655"/><path d="M21,22v.5A4.768,4.768,0,0,1,16,27a5.273,5.273,0,0,1-3.54-1.32A4.279,4.279,0,0,1,11,22.5V20l3-3a7.943,7.943,0,0,0,7,4Z" style="fill:#fef9f6"/><polygon points="24 53 24 63 8 63 8 53 10 53 22 53 24 53" style="fill:#f0e5e4"/><rect x="1" y="1" width="30" height="3" style="fill:#cc8d6c"/><polygon points="22 50 22 53 10 53 10 50 16 50 22 50" style="fill:#b57d60"/><path d="M11,20v2.5a4.279,4.279,0,0,0,1.46,3.18A5.273,5.273,0,0,0,16,27a4.768,4.768,0,0,0,5-4.5V17.4A4.662,4.662,0,0,0,16.12,13h-.24A4.662,4.662,0,0,0,11,17.4ZM1,4H31s-3,18-3,26l-.79,16.22A4,4,0,0,1,23.22,50H8.78a4,4,0,0,1-3.99-3.78L4,30C4,22,1,4,1,4Z" style="fill:#e6a382"/><rect x="10" y="50" width="5" height="3" style="fill:#94664e"/><path d="M8,53h5v4a4,4,0,0,0,4,4h7v2H8Z" style="fill:#dbd1d0"/><rect x="20" y="53" width="2" height="8" style="fill:#fff3f2"/><path d="M15.7,41.585A14.362,14.362,0,0,1,9,30H9C9,22,6,4,6,4H1S4,22,4,30l.79,16.22A4,4,0,0,0,8.78,50H23.22a4,4,0,0,0,3.99-3.78l.06-1.237A23.425,23.425,0,0,1,15.7,41.585Z" style="fill:#d49778"/><path d="M42,27a3,3,0,0,1-6,0c0-1.66,2-5,3-5S42,25.34,42,27Z" style="fill:#c99269"/><path d="M44,53v8a2.006,2.006,0,0,1-2,2H36a2.006,2.006,0,0,1-2-2V53Z" style="fill:#f0e5e4"/><rect x="34" y="50" width="10" height="3" style="fill:#945f3d"/><rect x="31" y="7" width="16" height="4" style="fill:#805235"/><path d="M47,11,44,50H34L31,11ZM39,30a3,3,0,0,0,3-3c0-1.66-2-5-3-5s-3,3.34-3,5A3,3,0,0,0,39,30Z" style="fill:#ac6e47"/><path d="M42,61H40a2,2,0,0,1-2-2V53H34v8a2.006,2.006,0,0,0,2,2h6a2.006,2.006,0,0,0,2-2V59A2,2,0,0,1,42,61Z" style="fill:#dbd1d0"/><rect x="34" y="50" width="4" height="3" style="fill:#6e462d"/><path d="M36.335,28.353A2.976,2.976,0,0,1,36,27a3.65,3.65,0,0,1,.158-.952L35,11H31l3,39h4Z" style="fill:#945f3d"/><rect x="31" y="7" width="4" height="4" style="fill:#6e462d"/><path d="M56.973,26.591a2.953,2.953,0,0,1-2.531,3.38,3.055,3.055,0,0,1-3.41-2.59c-.25-1.65,1.24-5.25,2.23-5.38S56.723,24.941,56.973,26.591Z" style="fill:#d45f73"/><path d="M62.984,60.063a1.976,1.976,0,0,1-1.76,2.19l-6.072.73a2.017,2.017,0,0,1-2.28-1.7l-1.01-7.81,10.112-1.22Z" style="fill:#f0e5e4"/><polygon points="61.594 49.323 61.974 52.253 51.862 53.473 51.482 50.543 61.594 49.323" style="fill:#e3b58f"/><polygon points="59.183 7 59.683 10.9 43.51 12.86 43 8.96 59.183 7" style="fill:#e3b58f"/><path d="M59.683,10.9l1.911,38.423-10.112,1.22L43.51,12.86ZM54.442,29.971a2.953,2.953,0,0,0,2.531-3.38c-.25-1.65-2.721-4.72-3.711-4.59s-2.48,3.73-2.23,5.38A3.055,3.055,0,0,0,54.442,29.971Z" style="fill:#f4c39a"/><path d="M62.72,58.02h0a2,2,0,0,1-1.7,2.263l-2.955.422a2,2,0,0,1-2.273-1.781l-.585-5.855-3.345.4,1.01,7.81a2.017,2.017,0,0,0,2.28,1.7l6.072-.73a1.976,1.976,0,0,0,1.76-2.19Z" style="fill:#dbd1d0"/><polygon points="55 51 54.823 50.139 51.482 50.543 51.862 53.473 55.207 53.069 55 51" style="fill:#c29b7a"/><polygon points="47 12 46.424 8.545 43 8.96 43.51 12.86 47.088 12.427 47 12" style="fill:#c29b7a"/><polygon points="47.088 12.427 43.51 12.86 51.482 50.543 54.823 50.139 47.088 12.427" style="fill:#e3b58f"/><polygon points="43.51 12.86 43.267 11 43.082 9.587 40 9.96 40.136 11 40.51 13.86 45.108 35.595 45.964 24.462 43.51 12.86" style="fill:#6e462d"/><rect x="44.228" y="32.999" width="2.006" height="2" transform="translate(7.864 76.491) rotate(-85.603)"/><path d="M44,36.924,43.074,49H34.926L32.077,12H41V10H32V8h9V6H31.691c.177-1.124.29-1.8.3-1.835l-.019,0A.868.868,0,0,0,32,4V1a1,1,0,0,0-1-1H1A1,1,0,0,0,0,1V4a.868.868,0,0,0,.033.161l-.019,0C.043,4.344,3,22.175,3,30.049l.791,16.228A5,5,0,0,0,8.784,51H9v1H8a1,1,0,0,0-1,1V63a1,1,0,0,0,1,1H24a1,1,0,0,0,1-1V53a1,1,0,0,0-1-1H23V51h.216a5,5,0,0,0,4.993-4.729L29,30a131.4,131.4,0,0,1,1.331-14.659L33,50.039V61a3,3,0,0,0,3,3h6a3,3,0,0,0,3-3V50.039l1-12.962ZM43,51v1H35V51ZM2,2H30V3H2ZM23,62H9V54H23ZM21,52H11V51H21Zm6-22.049-.79,16.215A3,3,0,0,1,23.216,49H8.784a3,3,0,0,1-3-2.827L5,30C5,23.093,2.841,9.137,2.176,5H29.824C29.159,9.136,27,23.086,27,29.951ZM43,61a1,1,0,0,1-1,1H36a1,1,0,0,1-1-1V54h8Z"/><path d="M39,21c-1.908,0-4,4.211-4,6a4,4,0,0,0,8,0C43,25.211,40.908,21,39,21Zm0,8a2,2,0,0,1-2-2,7.544,7.544,0,0,1,2-3.931A7.544,7.544,0,0,1,41,27,2,2,0,0,1,39,29Z"/><path d="M63.976,59.926l-1.014-7.8-.375-2.891L60.676,10.774l-.507-3.9a1,1,0,0,0-1.111-.865L42.88,7.963a1,1,0,0,0-.872,1.121l.52,3.981,7.965,37.65.375,2.886,1.013,7.805A3.021,3.021,0,0,0,54.893,64a3.188,3.188,0,0,0,.376-.023l6.066-.733a3.032,3.032,0,0,0,2.047-1.151A2.9,2.9,0,0,0,63.976,59.926Zm-3.43-11.485-8.278,1L44.708,13.72l14.031-1.7ZM58.314,8.112l.251,1.919L44.371,11.747l-.249-1.92ZM52.724,52.36l-.123-.943,8.126-.983.122.944ZM61.8,60.866a1.044,1.044,0,0,1-.707.392h0l-6.067.734a1.025,1.025,0,0,1-1.163-.844l-.884-6.8,8.125-.982.886,6.823A.91.91,0,0,1,61.8,60.866Z"/><path d="M57.957,26.447h0c-.262-1.775-2.921-5.692-4.825-5.434A2.19,2.19,0,0,0,51.713,22a9.149,9.149,0,0,0-1.676,5.525A4.08,4.08,0,0,0,54.046,31a3.836,3.836,0,0,0,.522-.035A3.909,3.909,0,0,0,57.2,29.434,3.965,3.965,0,0,0,57.957,26.447ZM55.6,28.229a1.931,1.931,0,0,1-1.3.754,2.065,2.065,0,0,1-2.29-1.752,7.529,7.529,0,0,1,1.392-4.165,7.778,7.778,0,0,1,2.57,3.672A1.976,1.976,0,0,1,55.6,28.229Z"/><path d="M16,28a5.772,5.772,0,0,0,6-5.5V17.4A5.662,5.662,0,0,0,16.116,12h-.232A5.662,5.662,0,0,0,10,17.4v5.1A5.772,5.772,0,0,0,16,28Zm4-5.5A3.779,3.779,0,0,1,16,26a3.779,3.779,0,0,1-4-3.5V20.414l1.846-1.846A8.845,8.845,0,0,0,20,21.951V22.5ZM15.884,14h.232A3.669,3.669,0,0,1,20,17.4V19.93A6.887,6.887,0,0,1,14.9,16.553a1,1,0,0,0-1.6-.26L12,17.586V17.4A3.669,3.669,0,0,1,15.884,14Z"/><rect x="9" y="32" width="14" height="2"/><rect x="12" y="36" width="8" height="2"/></g></svg>