<svg xmlns="http://www.w3.org/2000/svg" viewBox="0 0 64 64"><g id="_07-Fishing_hook" data-name="07-Fishing hook"><rect x="27" y="27" width="36" height="8" style="fill:#b8b5b7"/><path d="M59,27v3a2,2,0,0,1-2,2H32a2,2,0,0,1-2-2V27H27v8H63V27Z" style="fill:#969192"/><circle cx="22.07" cy="36.93" r="1.004" style="fill:#2b324e"/><circle cx="15" cy="34" r="1" style="fill:#2b324e"/><circle cx="7.93" cy="36.93" r="1.004" style="fill:#2b324e"/><circle cx="5" cy="44" r="1" style="fill:#2b324e"/><circle cx="7.93" cy="51.07" r="1.004" style="fill:#2b324e"/><circle cx="15" cy="54" r="1" style="fill:#2b324e"/><circle cx="22.07" cy="51.07" r="1.004" style="fill:#2b324e"/><circle cx="25" cy="44" r="1" style="fill:#2b324e"/><circle cx="15" cy="44" r="4" style="fill:#fffaf7"/><path d="M19,44a4,4,0,1,0-4,4A4,4,0,0,0,19,44Zm-4-7a7,7,0,1,1-7,7A6.995,6.995,0,0,1,15,37Z" style="fill:#dddcd7"/><path d="M1,28H27v6H23.3a12.992,12.992,0,0,0-17,.34L6,34H1Z" style="fill:#55634a"/><path d="M23.3,34A13,13,0,1,0,28,44,12.884,12.884,0,0,0,23.3,34Zm-1.94,2.22a1,1,0,1,1,0,1.42A1.008,1.008,0,0,1,21.36,36.22ZM15,33a1,1,0,1,1-1,1A1,1,0,0,1,15,33ZM7.22,36.22a1,1,0,1,1,0,1.42A1.008,1.008,0,0,1,7.22,36.22ZM5,45a1,1,0,1,1,1-1A1,1,0,0,1,5,45Zm3.64,6.78a1,1,0,1,1,0-1.42A1.008,1.008,0,0,1,8.64,51.78ZM15,55a1,1,0,1,1,1-1A1,1,0,0,1,15,55Zm0-4a7,7,0,1,1,7-7A6.995,6.995,0,0,1,15,51Zm7.78.78a1,1,0,1,1,0-1.42A1.008,1.008,0,0,1,22.78,51.78ZM25,45a1,1,0,1,1,1-1A1,1,0,0,1,25,45Z" style="fill:#6293b1"/><path d="M25,23l.02.02A5.02,5.02,0,0,0,24,25.93V28H1V17l19,5Z" style="fill:#efc1aa"/><path d="M51,37V35H47v2l2,.8L52,39h1A2.006,2.006,0,0,1,51,37Z" style="fill:#ebb28d"/><path d="M39.59,38.41A1.955,1.955,0,0,0,41,39H39.65a3.933,3.933,0,0,1-1.27-.21L36.6,38.2A2.012,2.012,0,0,0,37,37V35h2v2A1.955,1.955,0,0,0,39.59,38.41Z" style="fill:#ebb28d"/><path d="M33,37a2.015,2.015,0,0,0,2,2H33a4,4,0,0,1-3.2-1.6L28,35h5Z" style="fill:#ebb28d"/><path d="M36.6,38.2A2.027,2.027,0,0,1,35,39a2.015,2.015,0,0,1-2-2V35l-1.8-3.61a1.846,1.846,0,0,1-.2-.83v-.71a1.854,1.854,0,0,1,3.51-.83L37,34v3A2.012,2.012,0,0,1,36.6,38.2Z" style="fill:#f6ddc9"/><path d="M43,37a2.006,2.006,0,0,1-2,2,2.015,2.015,0,0,1-2-2V34l-3.38-3.38a2.121,2.121,0,0,1,3-3l1,1,2.79,2.79A2.006,2.006,0,0,1,43,32.83Z" style="fill:#f6ddc9"/><path d="M47,35v2a2.006,2.006,0,0,1-2,2,2.015,2.015,0,0,1-2-2V32l-.59-.59-2.79-2.79a2.119,2.119,0,0,1-.62-1.5.487.487,0,0,1,.01-.12,2.1,2.1,0,0,1,.61-1.38,2.125,2.125,0,0,1,3,0L44,27l2.41,2.41A2.006,2.006,0,0,1,47,30.83Z" style="fill:#f6ddc9"/><path d="M54.41,38.41A1.955,1.955,0,0,1,53,39a2.006,2.006,0,0,1-2-2V35l-2-2-.38-.38a2.121,2.121,0,0,1,3-3L53,31l1.41,1.41A2.006,2.006,0,0,1,55,33.83V37A1.955,1.955,0,0,1,54.41,38.41Z" style="fill:#f6ddc9"/><path d="M27,27v1H24V25.93a5.02,5.02,0,0,1,1.02-2.91c.11-.13.23-.27.35-.39a4.573,4.573,0,0,1,1.46-.98l4.28-1.84A10.1,10.1,0,0,1,35.05,19H37.8a10.019,10.019,0,0,1,5.81,1.86l3.61,2.58a3.03,3.03,0,0,0,1.74.56H52a3,3,0,0,1,3,3H44l-1.38-1.38a2.125,2.125,0,0,0-3,0A2.1,2.1,0,0,0,39.01,27H27Z" style="fill:#f6ddc9"/><path d="M24,28V30.4a1,1,0,0,1-1.362.932A20.3,20.3,0,0,0,15,30c-6,0-8,2-8,2H1v2H6l.3.34a12.992,12.992,0,0,1,17-.34H27V28Z" style="fill:#455040"/><path d="M51,37V35H47v1h2a1,1,0,0,1,1,1,1.988,1.988,0,0,0,.633,1.453L52,39h1A2.006,2.006,0,0,1,51,37Z" style="fill:#dfa985"/><path d="M39,37V35H37v1h1v1a2,2,0,0,0,2,2h1a2.015,2.015,0,0,1-2-2Z" style="fill:#dfa985"/><path d="M33,37V35H28l.75,1H31v1a2,2,0,0,0,1.564,1.949A3.958,3.958,0,0,0,33,39h2a2.015,2.015,0,0,1-2-2Z" style="fill:#dfa985"/><path d="M53.632,34.456l-.459.153a2,2,0,0,1-2.047-.483l-1.981-1.981a2,2,0,0,1,.187-2.99,2.119,2.119,0,0,0-.712,3.465L49,33l2,2v2a2.006,2.006,0,0,0,2,2,2.015,2.015,0,0,0,2-2V33.83a1.993,1.993,0,0,0-.11-.628A2,2,0,0,1,53.632,34.456Z" style="fill:#efc1aa"/><path d="M46.015,32.328l-.12.04A1.44,1.44,0,0,1,44,31v0l-4.137-4.138a1,1,0,0,1,.152-1.539l.037-.025a2.122,2.122,0,0,0-.432.322A2.1,2.1,0,0,0,39.01,27a.487.487,0,0,0-.01.12,2.119,2.119,0,0,0,.62,1.5l2.79,2.79L43,32v5a2.015,2.015,0,0,0,2,2,2.006,2.006,0,0,0,2-2V30.962A1.44,1.44,0,0,1,46.015,32.328Z" style="fill:#efc1aa"/><path d="M42.015,34.328l-.12.04A1.44,1.44,0,0,1,40,33v0l-4.137-4.138a1,1,0,0,1,.152-1.539l.037-.025a2.112,2.112,0,0,0-.432,3.322L39,34v3a2.015,2.015,0,0,0,2,2,2.006,2.006,0,0,0,2-2V32.962A1.44,1.44,0,0,1,42.015,34.328Z" style="fill:#efc1aa"/><path d="M36.015,36.328l-.12.04A1.44,1.44,0,0,1,34,35v0l-1.818-4.243A1.974,1.974,0,0,1,33.417,28.1,1.834,1.834,0,0,0,31,29.85v.71a1.846,1.846,0,0,0,.2.83L33,35v2a2.015,2.015,0,0,0,2,2,2,2,0,0,0,2-2V34.962A1.44,1.44,0,0,1,36.015,36.328Z" style="fill:#efc1aa"/><path d="M25,23l-4-.8V23a2,2,0,0,1-2,2H1v3H24V25.93a5.02,5.02,0,0,1,1.02-2.91Z" style="fill:#ebb28d"/><path d="M42.5,24.5a1.707,1.707,0,0,0-1.207-.5H28.71A1.711,1.711,0,0,1,27,22.29a1.683,1.683,0,0,1,.229-.812l-.4.172a4.573,4.573,0,0,0-1.46.98c-.12.12-.24.26-.35.39A5.02,5.02,0,0,0,24,25.93V28h3V27H39.01a2.1,2.1,0,0,1,.61-1.38,2.125,2.125,0,0,1,3,0L44,27H55a2.981,2.981,0,0,0-.776-2H43.707A1.707,1.707,0,0,1,42.5,24.5Z" style="fill:#efc1aa"/><path d="M7,44a8,8,0,1,0,8-8A8.009,8.009,0,0,0,7,44Zm8-6a6,6,0,1,1-6,6A6.006,6.006,0,0,1,15,38Z"/><path d="M15,49a5,5,0,1,0-5-5A5.006,5.006,0,0,0,15,49Zm0-8a3,3,0,1,1-3,3A3,3,0,0,1,15,41Z"/><circle cx="25" cy="44" r="2"/><circle cx="5" cy="44" r="2"/><circle cx="15" cy="54" r="2"/><circle cx="15" cy="34" r="2"/><path d="M63,26H55.858A4,4,0,0,0,52,23H48.961a1.992,1.992,0,0,1-1.162-.372l-3.61-2.579A10.937,10.937,0,0,0,37.8,18H35.053a10.926,10.926,0,0,0-4.334.89l-4.287,1.837a5.656,5.656,0,0,0-1.759,1.188l-4.419-.882-19-5L.746,17.967,19.8,22.98l3.656.732A5.835,5.835,0,0,0,23,26l2-.069a3.663,3.663,0,0,1,2.219-3.366l4.288-1.837A8.945,8.945,0,0,1,35.053,20H37.8a8.958,8.958,0,0,1,5.232,1.676l3.61,2.579A3.971,3.971,0,0,0,48.961,25H52a1.993,1.993,0,0,1,1.722,1H44.414l-1.086-1.086A3.113,3.113,0,0,0,38.217,26H27a1,1,0,0,0-1,1H1a1,1,0,0,0-1,1v6a1,1,0,0,0,1,1H4.292a14,14,0,1,0,21.416,0H26a1,1,0,0,0,1,1h.5L29,38a5.025,5.025,0,0,0,4,2h2a2.97,2.97,0,0,0,1.855-.661l1.213.405A5,5,0,0,0,39.649,40H41a2.981,2.981,0,0,0,2-.78,2.967,2.967,0,0,0,4.667-.876l.333.133V59h2V39.277l1.628.652A1.012,1.012,0,0,0,52,40h1a3,3,0,0,0,3-3V36h7a1,1,0,0,0,1-1V27A1,1,0,0,0,63,26ZM50.121,28H62v2H53.414l-1.086-1.086a3.112,3.112,0,0,0-4.747.406,2.988,2.988,0,0,0-.46-.613L46.414,28ZM48,36h2v1c0,.044.011.085.013.128L48,36.323Zm0-2v-.586l.586.586ZM30.7,28a2.831,2.831,0,0,0-.7,1.854v.708a2.868,2.868,0,0,0,.3,1.277L31.382,34H28V28ZM23.554,52.4a2.016,2.016,0,1,0-.153.153,11.963,11.963,0,0,1-16.8,0,2,2,0,1,0-.153-.153,11.963,11.963,0,0,1,0-16.8,2,2,0,0,0,2.9,2.745h0a2,2,0,0,0-2.746-2.9,11.963,11.963,0,0,1,16.8,0,2,2,0,0,0-2.745,2.9h0a2,2,0,0,0,2.9-2.747,11.965,11.965,0,0,1,0,16.8ZM23.632,33A13.934,13.934,0,0,0,6,33.292V33H2V29H26v4ZM30.6,36.8,30,36h2v1a2.963,2.963,0,0,0,.14.857A3,3,0,0,1,30.6,36.8ZM34,37V35a1,1,0,0,0-.1-.447l-1.8-3.609a.858.858,0,0,1-.09-.382v-.708a.854.854,0,0,1,1.618-.382L36,34.236V37a1,1,0,0,1-2,0Zm3.94.593A2.974,2.974,0,0,0,38,37a2.958,2.958,0,0,0,.071.636ZM41,38a1,1,0,0,1-1-1V34a1,1,0,0,0-.293-.707l-3.379-3.379a1.121,1.121,0,0,1,1.586-1.586l1,1,2.793,2.793a1,1,0,0,1,.293.708V37A1,1,0,0,1,41,38Zm5-1a1,1,0,0,1-2,0V32a1,1,0,0,0-.293-.707l-.586-.586-2.793-2.793a1.121,1.121,0,0,1,1.586-1.586l3.793,3.793a1,1,0,0,1,.293.708Zm8,0a1,1,0,0,1-2,0V35a1,1,0,0,0-.293-.707l-2.379-2.379a1.121,1.121,0,0,1,1.586-1.586l2.793,2.793a1,1,0,0,1,.293.708Zm2-3v-.171A2.965,2.965,0,0,0,55.362,32H62v2Z"/><rect x="48" y="61" width="2" height="2"/></g></svg>