<svg xmlns="http://www.w3.org/2000/svg" xmlns:xlink="http://www.w3.org/1999/xlink" viewBox="0 0 64 64"><defs><linearGradient id="linear-gradient" x1="32" y1="1.304" x2="32" y2="63.304" gradientUnits="userSpaceOnUse"><stop offset="0" stop-color="#ffe100"/><stop offset="1" stop-color="#f98900"/></linearGradient></defs><g id="_07-Smiling_Face" data-name="07-Smiling Face"><path d="M32,63C4.3,63,.962,39,1,33V31C.962,25,4.3,1,32,1h0C59.7,1,63.038,25,63,31v2C63.038,39,59.7,63,32,63Z" style="fill:url(#linear-gradient)"/><circle cx="50" cy="35" r="4" style="fill:#fc4747"/><circle cx="14" cy="35" r="4" style="fill:#fc4747"/><path d="M55.045,10c.592.649,1.141,1.318,1.651,2" style="fill:none;stroke:#1d1d1b;stroke-linejoin:round;stroke-width:2px"/><path d="M8.09,53C2.05,45.666.977,36.416,1,33V31C.96,25,4.3,1,32,1c9.68,0,16.385,2.931,21.011,7" style="fill:none;stroke:#1d1d1b;stroke-linejoin:round;stroke-width:2px"/><path d="M58.061,14A34.4,34.4,0,0,1,63,30.89V33c.04,6-3.3,30-31,30-10.393,0-17.357-3.379-22-7.918" style="fill:none;stroke:#1d1d1b;stroke-linejoin:round;stroke-width:2px"/><path d="M38,29c0-4,2-8,5-8s5,4,5,8" style="fill:none;stroke:#1d1d1b;stroke-linejoin:round;stroke-width:2px"/><path d="M16,29c0-4,2-8,5-8s5,4,5,8" style="fill:none;stroke:#1d1d1b;stroke-linejoin:round;stroke-width:2px"/><path d="M38,29c0-4,2-8,5-8s5,4,5,8" style="fill:none;stroke:#1d1d1b;stroke-linejoin:round;stroke-width:2px"/><path d="M16,29c0-4,2-8,5-8s5,4,5,8" style="fill:none;stroke:#1d1d1b;stroke-linejoin:round;stroke-width:2px"/><path d="M48,38s-1.256,4.527-6.907,7.653a18.79,18.79,0,0,1-18.186,0C17.256,42.527,16,38,16,38" style="fill:none;stroke:#1d1d1b;stroke-linejoin:round;stroke-width:2px"/><circle cx="50" cy="35" r="4" style="fill:none;stroke:#1d1d1b;stroke-linejoin:round;stroke-width:2px"/><circle cx="14" cy="35" r="4" style="fill:none;stroke:#1d1d1b;stroke-linejoin:round;stroke-width:2px"/><path d="M40,13a9.132,9.132,0,0,1,4.364-1C48.727,12,52,18,52,18" style="fill:none;stroke:#1d1d1b;stroke-linejoin:round;stroke-width:2px"/><path d="M24,13a9.132,9.132,0,0,0-4.364-1C15.273,12,12,18,12,18" style="fill:none;stroke:#1d1d1b;stroke-linejoin:round;stroke-width:2px"/></g></svg>