<svg xmlns="http://www.w3.org/2000/svg" viewBox="0 0 64 64"><g id="_08-Fishing_hook" data-name="08-Fishing hook"><path d="M32,10c1.1,0,2-1.84,2-3.5S33.1,4,32,4s-2,.84-2,2.5S30.9,10,32,10Zm-3.98-.01A8.694,8.694,0,0,1,27,6a4.684,4.684,0,0,1,5-5,4.684,4.684,0,0,1,5,5,8.694,8.694,0,0,1-1.02,3.99C35.07,11.72,33.62,13,32,13S28.93,11.72,28.02,9.99Z" style="fill:#475163"/><path d="M22,54a4.968,4.968,0,0,0,1.62,3.68,8.279,8.279,0,0,1-2.21.98A3.981,3.981,0,0,1,19,55V38l6,11-1.45-.96a.994.994,0,0,0-1.55.83Z" style="fill:#838182"/><path d="M28,49.69V10l.02-.01C28.93,11.72,30.38,13,32,13V50A13,13,0,0,1,18.37,62.99,13.249,13.249,0,0,1,6,49.63V33L16,46l-4.55-2.28a1,1,0,0,0-1.45.9V50a9,9,0,0,0,9.6,8.98,8.8,8.8,0,0,0,4.02-1.3A9.436,9.436,0,0,0,28,49.69Z" style="fill:#b8b5b7"/><path d="M36,10V50a9,9,0,0,0,9.6,8.98A9.2,9.2,0,0,0,54,49.69V44.62a1,1,0,0,0-1.45-.9L48,46,58,33V50a13,13,0,0,1-26,0V13c1.62,0,3.07-1.28,3.98-3.01Z" style="fill:#b8b5b7"/><path d="M28.02,9.99,28,10v5a2,2,0,0,1,2,2V50A11,11,0,0,1,8,50V40l8,6L6,33V49.63A13.249,13.249,0,0,0,18.37,62.99,13,13,0,0,0,32,50V13C30.38,13,28.93,11.72,28.02,9.99Z" style="fill:#838182"/><path d="M34,17V50a11,11,0,0,0,22,0V40l-8,6,4.55-2.28a1,1,0,0,1,1.45.9v5.07a9.2,9.2,0,0,1-8.4,9.29A9,9,0,0,1,36,50V15A2,2,0,0,0,34,17Z" style="fill:#c9c6c8"/><path d="M58.322,32.053a1,1,0,0,0-1.114.337l-10,13A1,1,0,0,0,48.447,46.9L53,44.618v5.074a8.177,8.177,0,0,1-7.465,8.29A8,8,0,0,1,37,50V10.2A9.742,9.742,0,0,0,38,6a5.68,5.68,0,0,0-6-6,5.68,5.68,0,0,0-6,6,9.742,9.742,0,0,0,1,4.2V49.692a8.429,8.429,0,0,1-3.213,6.66A3.954,3.954,0,0,1,23,54V48.869l1.445.963a1,1,0,0,0,1.433-1.311l-6-11A1,1,0,0,0,18,38V55a4.993,4.993,0,0,0,.669,2.5l1.732-1A3.006,3.006,0,0,1,20,55V41.922l2.709,4.967A2,2,0,0,0,21,48.869V54a5.959,5.959,0,0,0,1.041,3.376,7.6,7.6,0,0,1-2.506.606A8,8,0,0,1,11,50V44.618L15.553,46.9a1,1,0,0,0,1.239-1.505l-10-13A1,1,0,0,0,5,33V49.633A14.17,14.17,0,0,0,18.325,63.984q.342.016.683.016a13.986,13.986,0,0,0,13-8.822A13.993,13.993,0,0,0,59,50V33A1,1,0,0,0,58.322,32.053ZM32,2a3.675,3.675,0,0,1,4,4c0,2.972-2.019,6-4,6s-4-3.028-4-6A3.675,3.675,0,0,1,32,2ZM57,50a12,12,0,0,1-24,0V20H31V50A12,12,0,0,1,18.418,61.986,12.172,12.172,0,0,1,7,49.633V35.94l5.552,7.218-.657-.329A2,2,0,0,0,9,44.618V50a10.039,10.039,0,0,0,3.163,7.3,9.931,9.931,0,0,0,7.5,2.682A10.182,10.182,0,0,0,29,49.692V12.828a4.426,4.426,0,0,0,6,0V50a10.039,10.039,0,0,0,3.163,7.3A9.9,9.9,0,0,0,44.991,60q.334,0,.673-.021A10.182,10.182,0,0,0,55,49.692V44.618a2,2,0,0,0-2.9-1.789l-.657.329L57,35.94V50Z"/><rect x="31" y="16" width="2" height="2"/><path d="M32,11c1.794,0,3-2.327,3-4.5C35,4.1,33.445,3,32,3S29,4.1,29,6.5C29,8.673,30.206,11,32,11Zm0-6c.9,0,1,1.049,1,1.5A2.987,2.987,0,0,1,32,9a2.987,2.987,0,0,1-1-2.5C31,6.049,31.1,5,32,5Z"/></g></svg>