<svg xmlns="http://www.w3.org/2000/svg" viewBox="0 0 64 64"><title>08-Yoga ball</title><g id="_08-Yoga_ball" data-name="08-Yoga ball"><path d="M41.59,24.44A14.982,14.982,0,0,0,36.3,47.37a21,21,0,1,1,5.29-22.93Z" style="fill:#b674f2"/><path d="M6,32A20.99,20.99,0,0,1,24.5,11.163a21,21,0,1,0-.006,41.673A20.99,20.99,0,0,1,6,32Z" style="fill:#d2a0f5"/><path d="M41.59,24.44a21.023,21.023,0,0,0-7.755-9.782A20.869,20.869,0,0,1,36.09,18.94,14.982,14.982,0,0,0,30.8,41.87,20.982,20.982,0,0,1,4.659,43.841,20.987,20.987,0,0,0,36.3,47.37a14.982,14.982,0,0,1,5.29-22.93Z" style="fill:#8f4cd6"/><path d="M55.78,30.22l-2.83,2.83a7,7,0,0,0-9.9,0l-2.83-2.83a11.009,11.009,0,0,1,15.56,0Z" style="fill:#cf6799"/><path d="M41.59,24.44A14.982,14.982,0,1,1,33,38,14.945,14.945,0,0,1,41.59,24.44Zm11.36,8.61,2.83-2.83a11.009,11.009,0,0,0-15.56,0l2.83,2.83a7,7,0,0,1,9.9,0Z" style="fill:#ff73a5"/><path d="M56.7,25.8A14.972,14.972,0,0,1,35.786,46.676c.168.234.334.47.514.694A14.99,14.99,0,1,0,56.7,25.8Z" style="fill:#cf6799"/><path d="M7.468,28.25l-1.936-.5A17,17,0,0,1,22,15v2A15,15,0,0,0,7.468,28.25Z" style="fill:#8f4cd6"/><path d="M7,32H5a17.592,17.592,0,0,1,.127-2.121l1.986.242A15.425,15.425,0,0,0,7,32Z" style="fill:#8f4cd6"/><rect x="5" y="52" width="58" height="2" style="fill:#707789"/><rect x="1" y="52" width="2" height="2" style="fill:#707789"/><path d="M5.532,27.75l1.936.5A15,15,0,0,1,22,17V15A17,17,0,0,0,5.532,27.75Z"/><path d="M5,32H7a15.425,15.425,0,0,1,.113-1.879l-1.986-.242A17.592,17.592,0,0,0,5,32Z"/><path d="M64,38A16.019,16.019,0,0,0,48,22a15.817,15.817,0,0,0-5.88,1.145A21.99,21.99,0,1,0,12.852,52H5v2H63V52H55.729A16.009,16.009,0,0,0,64,38Zm-2,0a13.991,13.991,0,0,1-24.921,8.743A13.79,13.79,0,0,1,34,38a14.058,14.058,0,0,1,8.017-12.656h0A13.863,13.863,0,0,1,48,24,14.015,14.015,0,0,1,62,38ZM2,32a19.99,19.99,0,0,1,38.305-8.02A16.067,16.067,0,0,0,32,38a15.75,15.75,0,0,0,2.941,9.212A19.968,19.968,0,0,1,2,32ZM31.117,52a21.841,21.841,0,0,0,5.088-3.239A15.91,15.91,0,0,0,40.3,52Z"/><rect x="1" y="52" width="2" height="2"/><path d="M39.513,30.927l2.83,2.83a1,1,0,0,0,1.414,0,6,6,0,0,1,8.486,0,1,1,0,0,0,1.414,0l2.83-2.83a1,1,0,0,0,0-1.414,12.008,12.008,0,0,0-16.974,0A1,1,0,0,0,39.513,30.927ZM48,28a9.926,9.926,0,0,1,6.331,2.255l-1.424,1.424a8.01,8.01,0,0,0-9.814,0l-1.424-1.424A9.926,9.926,0,0,1,48,28Z"/></g></svg>