<svg xmlns="http://www.w3.org/2000/svg" viewBox="0 0 64 64"><g id="_09-Blender" data-name="09-Blender"><path d="M35.75,51.17c.65,1.2,1.31,2.34,2,3.41A20.729,20.729,0,0,1,21,63C9.95,63,1,54.39,1,45v-.06A64.962,64.962,0,0,1,8.94,13.43C12.8,6.46,17.35,1,21,1s8.2,5.46,12.06,12.43l.14.13A14.933,14.933,0,0,0,29,23.68v.05A57.686,57.686,0,0,0,35.75,51.17Z" style="fill:#d45f73"/><path d="M54,16a2.015,2.015,0,0,1-2,2,2.006,2.006,0,0,1-2-2V8h4a22.846,22.846,0,0,1,8.83,16H60.5A2.5,2.5,0,0,1,58,21.5V23a2.015,2.015,0,0,1-2,2,2.006,2.006,0,0,1-2-2Z" style="fill:#e3b58f"/><path d="M56,22a2.015,2.015,0,0,0,2-2V18.5A2.5,2.5,0,0,0,60.5,21h1.794A22.578,22.578,0,0,0,54,8H50v5a2.006,2.006,0,0,0,2,2,2.015,2.015,0,0,0,2-2v7A2.006,2.006,0,0,0,56,22Z" style="fill:#f4c39a"/><path d="M54,16v7a2.006,2.006,0,0,0,2,2,2.015,2.015,0,0,0,2-2V21.5A2.5,2.5,0,0,0,60.5,24h2.33A26.069,26.069,0,0,1,63,27a43.209,43.209,0,0,1-1.35,10.66A6.28,6.28,0,0,1,57,40c-5,0-13-10-13-19S48,8,48,8h2v8a2.006,2.006,0,0,0,2,2,2.015,2.015,0,0,0,2-2Z" style="fill:#ff728b"/><path d="M37.75,54.58c-.69-1.07-1.35-2.21-2-3.41A57.686,57.686,0,0,1,29,23.73v-.05a14.933,14.933,0,0,1,4.2-10.12A17.529,17.529,0,0,1,46,8h2s-4,4-4,13,8,19,13,19a6.28,6.28,0,0,0,4.65-2.34,57.365,57.365,0,0,1-5.4,13.51C52.97,57.25,49.1,62,46,62,43.51,62,40.52,58.94,37.75,54.58Z" style="fill:#e6677d"/><path d="M35.75,51.17A57.686,57.686,0,0,1,29,23.73v-.05a14.933,14.933,0,0,1,4.2-10.12l-.14-.13q-.407-.733-.822-1.44A17.531,17.531,0,0,0,25.2,16.56,14.933,14.933,0,0,0,21,26.68v.05a59.453,59.453,0,0,0,2.672,17.741A11.985,11.985,0,0,1,1.133,40.689Q1,42.81,1,44.94V45c0,9.39,8.95,18,20,18a20.957,20.957,0,0,0,10.538-2.839A20.1,20.1,0,0,0,37.75,54.58C37.06,53.51,36.4,52.37,35.75,51.17Z" style="fill:#b85162"/><rect x="4" y="40" width="2" height="2" style="fill:#b85162"/><rect x="4" y="44" width="2" height="2" style="fill:#b85162"/><rect x="33" y="19" width="2" height="2" style="fill:#d45f73"/><rect x="33" y="23" width="2" height="2" style="fill:#d45f73"/><path d="M29.052,22.685c-.025.331-.052.661-.052,1v.05a57.686,57.686,0,0,0,6.75,27.44c.65,1.2,1.31,2.34,2,3.41C40.52,58.94,43.51,62,46,62c3.1,0,6.97-4.75,10.25-10.83.217-.4.422-.8.628-1.2A28.976,28.976,0,0,1,29.052,22.685Z" style="fill:#d45f73"/><path d="M61,24h-.5A2.5,2.5,0,0,1,58,21.5V23a1.955,1.955,0,0,1-.59,1.41,2.108,2.108,0,0,1-.17.143A2.5,2.5,0,0,0,59.5,26h3.472c0-.09,0-.183-.008-.273-.069-.583-.143-1.161-.23-1.727Z" style="fill:#e6677d"/><path d="M51,20a2.015,2.015,0,0,0,2-2v7a2.006,2.006,0,0,0,2,2,2.015,2.015,0,0,0,2-2v-.279A1.959,1.959,0,0,1,56,25a2.006,2.006,0,0,1-2-2V16a2.015,2.015,0,0,1-2,2,2.006,2.006,0,0,1-2-2V8H49V18A2.006,2.006,0,0,0,51,20Z" style="fill:#e6677d"/><path d="M52.335,10.331a3.37,3.37,0,0,0,.911,1.368c.542.593,1.053,1.216,1.625,1.781.363.36.966,1.137,1.536,1.05.9-.138.829-1.493.6-2.112a6.764,6.764,0,0,0-1.446-2.09A5.409,5.409,0,0,0,54.431,9.3C53.54,8.756,51.99,8.95,52.335,10.331Z" style="fill:#ffd5b3"/><circle cx="58" cy="16" r="1" style="fill:#ffd5b3"/><path d="M21,62C10.878,62,2,54.056,2,44.936A64.143,64.143,0,0,1,9.813,13.919C13.944,6.456,18.125,2,21,2c1.895,0,4.452,2.015,7.2,5.672l1.6-1.2C26.573,2.177,23.612,0,21,0,15.98,0,10.74,8.114,8.063,12.95A66.215,66.215,0,0,0,0,45C0,55.3,9.617,64,21,64a21.933,21.933,0,0,0,15.72-6.622l-1.439-1.389A19.922,19.922,0,0,1,21,62Z"/><path d="M30.792,11.519,32.5,10.477q-.645-1.056-1.3-2.037l-1.66,1.114Q30.17,10.5,30.792,11.519Z"/><path d="M54.552,7.166A1,1,0,0,0,54,7H46c-9.757,0-18,7.637-18,16.733a58.853,58.853,0,0,0,6.868,27.912C37.158,55.886,41.65,63,46,63s8.842-7.114,11.132-11.355C61.818,42.971,64,35.14,64,27,64,13.577,54.938,7.422,54.552,7.166ZM61.686,23H60.5A1.5,1.5,0,0,1,59,21.5V21a1,1,0,0,0-2,0v2a1,1,0,0,1-2,0V15a1,1,0,0,0-2,0v1a1,1,0,0,1-2,0V9h2.676A22.257,22.257,0,0,1,61.686,23ZM48.457,9H49v7a3,3,0,0,0,4,2.829V23a3,3,0,0,0,5.624,1.454A3.486,3.486,0,0,0,60.5,25h1.423c.05.647.077,1.313.077,2a42.519,42.519,0,0,1-1.264,10.185A5.4,5.4,0,0,1,57,39c-4.2,0-12-9.252-12-18C45,13.887,47.624,10.042,48.457,9Zm6.916,41.7C51.939,57.051,48.348,61,46,61s-5.939-3.949-9.373-10.3A56.916,56.916,0,0,1,30,23.677C30,15.858,37.477,9,46,9h.016A22.407,22.407,0,0,0,43,21c0,9.465,8.345,20,14,20a7.543,7.543,0,0,0,2.849-.675A60.616,60.616,0,0,1,55.373,50.7Z"/><rect x="4" y="44" width="2" height="2"/><rect x="4" y="40" width="2" height="2"/></g></svg>