<svg xmlns="http://www.w3.org/2000/svg" viewBox="0 0 64 64"><g id="_09-Fishing_hook" data-name="09-Fishing hook"><path d="M47,10c1.1,0,2-1.84,2-3.5S48.1,4,47,4s-2,.84-2,2.5S45.9,10,47,10Zm5-4a8.1,8.1,0,0,1-3,6.34,3.36,3.36,0,0,1-4,0A8.1,8.1,0,0,1,42,6a4.684,4.684,0,0,1,5-5A4.684,4.684,0,0,1,52,6Z" style="fill:#475163"/><path d="M49,12.34V45A18.254,18.254,0,0,1,30.5,63,18.254,18.254,0,0,1,12,45V31L22,44l-4.55-2.28a1,1,0,0,0-1.45.9V45c0,7.73,6.55,14,14.5,14S45,52.73,45,45V12.34a3.36,3.36,0,0,0,4,0Z" style="fill:#b8b5b7"/><path d="M47,4a1.911,1.911,0,0,1,1.877,1.561A5.087,5.087,0,0,0,49,4.5C49,2.84,48.1,2,47,2s-2,.84-2,2.5a5.087,5.087,0,0,0,.123,1.061A1.911,1.911,0,0,1,47,4Z" style="fill:#2a2e37"/><path d="M50.98,7.99C50.07,9.72,48.62,11,47,11s-3.07-1.28-3.98-3.01a8.832,8.832,0,0,1-.94-2.907A6.334,6.334,0,0,0,42,6a8.694,8.694,0,0,0,1.02,3.99C43.93,11.72,45.38,13,47,13s3.07-1.28,3.98-3.01A8.694,8.694,0,0,0,52,6a6.334,6.334,0,0,0-.08-.917A8.832,8.832,0,0,1,50.98,7.99Z" style="fill:#2a2e37"/><path d="M47,13a3.541,3.541,0,0,1-2-.66V45c0,7.73-6.55,14-14.5,14S16,52.73,16,45V42.62a1,1,0,0,1,1.45-.9L22,44l-8-7v7.5a16.5,16.5,0,0,0,33,0V19a2,2,0,0,1,2-2V12.34A3.541,3.541,0,0,1,47,13Z" style="fill:#838182"/><rect x="47" y="21" width="2" height="4" rx="1" style="fill:#dddcd7"/><rect x="47" y="26" width="2" height="16" rx="1" style="fill:#dddcd7"/><path d="M53,6a5.68,5.68,0,0,0-6-6,5.68,5.68,0,0,0-6,6c0,3.776,2.566,8,6,8a4.155,4.155,0,0,0,1-.133V45A17.275,17.275,0,0,1,30.5,62,17.275,17.275,0,0,1,13,45V33.94l5.552,7.218-.657-.329A2,2,0,0,0,15,42.618V45A15.273,15.273,0,0,0,30.5,60,15.273,15.273,0,0,0,46,45V19H44V45A13.272,13.272,0,0,1,30.5,58,13.272,13.272,0,0,1,17,45V42.618L21.553,44.9a1,1,0,0,0,1.239-1.505l-10-13A1,1,0,0,0,11,31V45A19.277,19.277,0,0,0,30.5,64,19.277,19.277,0,0,0,50,45V12.828A9.275,9.275,0,0,0,53,6ZM43,6a3.675,3.675,0,0,1,4-4,3.675,3.675,0,0,1,4,4c0,2.972-2.019,6-4,6S43,8.972,43,6Z"/><path d="M47,3C45.555,3,44,4.1,44,6.5c0,2.173,1.206,4.5,3,4.5s3-2.327,3-4.5C50,4.1,48.445,3,47,3Zm0,6a2.987,2.987,0,0,1-1-2.5c0-.451.1-1.5,1-1.5s1,1.049,1,1.5A2.987,2.987,0,0,1,47,9Z"/><rect x="44" y="15" width="2" height="2"/></g></svg>