<svg xmlns="http://www.w3.org/2000/svg" xmlns:xlink="http://www.w3.org/1999/xlink" viewBox="0 0 64 64"><defs><linearGradient id="linear-gradient" x1="32" y1="1.304" x2="32" y2="63.304" gradientUnits="userSpaceOnUse"><stop offset="0" stop-color="#ffe100"/><stop offset="1" stop-color="#f98900"/></linearGradient><linearGradient id="linear-gradient-2" x1="14" y1="41.001" x2="50" y2="41.001" gradientUnits="userSpaceOnUse"><stop offset="0" stop-color="#b8b4b2"/><stop offset="0.143" stop-color="#d0ccc9"/><stop offset="0.374" stop-color="#f2edea"/><stop offset="0.5" stop-color="#fffaf6"/><stop offset="0.638" stop-color="#f9f5f1"/><stop offset="0.825" stop-color="#e8e5e3"/><stop offset="1" stop-color="#d1d1d1"/></linearGradient><linearGradient id="linear-gradient-3" x1="32" y1="53.275" x2="32" y2="37.041" gradientUnits="userSpaceOnUse"><stop offset="0" stop-color="#69101b"/><stop offset="0.427" stop-color="#400a10"/></linearGradient><linearGradient id="linear-gradient-4" x1="32" y1="38.163" x2="32" y2="44.885" xlink:href="#linear-gradient-2"/><linearGradient id="linear-gradient-5" x1="32" y1="38.163" x2="32" y2="44.885" gradientUnits="userSpaceOnUse"><stop offset="0" stop-color="#ababab" stop-opacity="0.5"/><stop offset="0.541" stop-color="#c1c1c1" stop-opacity="0.216"/><stop offset="1" stop-color="#d1d1d1" stop-opacity="0"/></linearGradient></defs><g id="_09-Grinning_Squinting_Face" data-name="09-Grinning Squinting Face"><path d="M32,63C4.3,63,.962,39,1,33V31C.962,25,4.3,1,32,1h0C59.7,1,63.038,25,63,31v2C63.038,39,59.7,63,32,63Z" style="fill:url(#linear-gradient)"/><path d="M48.806,37.034a.986.986,0,0,1,1.19,1.1,14.5,14.5,0,0,1-.43,2.46A34.766,34.766,0,0,1,32,45a34.766,34.766,0,0,1-17.566-4.409,14.5,14.5,0,0,1-.43-2.46.986.986,0,0,1,1.19-1.1A63.8,63.8,0,0,0,32,39.4,63.8,63.8,0,0,0,48.806,37.034Z" style="fill:url(#linear-gradient-2)"/><path d="M38.918,51.76a19.918,19.918,0,0,1-13.836,0C25.411,50.89,26.9,48,32,48S38.589,50.89,38.918,51.76Z" style="fill:#8f030e"/><path d="M49.076,42.152a15.591,15.591,0,0,1-5.089,6.709,19.067,19.067,0,0,1-5.069,2.9C38.589,50.89,37.1,48,32,48s-6.589,2.889-6.918,3.759a19.067,19.067,0,0,1-5.069-2.9,15.591,15.591,0,0,1-5.089-6.709,12.814,12.814,0,0,1-.49-1.559A34.766,34.766,0,0,0,32,45a34.766,34.766,0,0,0,17.566-4.409A12.814,12.814,0,0,1,49.076,42.152Z" style="fill:url(#linear-gradient-3)"/><path d="M48.806,37.034a.986.986,0,0,1,1.19,1.1,14.5,14.5,0,0,1-.43,2.46A34.766,34.766,0,0,1,32,45a34.766,34.766,0,0,1-17.566-4.409,14.5,14.5,0,0,1-.43-2.46.986.986,0,0,1,1.19-1.1A63.8,63.8,0,0,0,32,39.4,63.8,63.8,0,0,0,48.806,37.034Z" style="fill:url(#linear-gradient-4)"/><path d="M48.806,37.034a.986.986,0,0,1,1.19,1.1,14.5,14.5,0,0,1-.43,2.46A34.766,34.766,0,0,1,32,45a34.766,34.766,0,0,1-17.566-4.409,14.5,14.5,0,0,1-.43-2.46.986.986,0,0,1,1.19-1.1A63.8,63.8,0,0,0,32,39.4,63.8,63.8,0,0,0,48.806,37.034Z" style="fill:url(#linear-gradient-5)"/><path d="M55.045,10c.592.649,1.141,1.318,1.651,2" style="fill:none;stroke:#1d1d1b;stroke-linejoin:round;stroke-width:2px"/><path d="M8.09,53C2.05,45.666.977,36.416,1,33V31C.96,25,4.3,1,32,1c9.68,0,16.385,2.931,21.011,7" style="fill:none;stroke:#1d1d1b;stroke-linejoin:round;stroke-width:2px"/><path d="M58.061,14A34.4,34.4,0,0,1,63,30.89V33c.04,6-3.3,30-31,30-10.393,0-17.357-3.379-22-7.918" style="fill:none;stroke:#1d1d1b;stroke-linejoin:round;stroke-width:2px"/><path d="M49.084,42.148A14.847,14.847,0,0,0,50,38.126a.98.98,0,0,0-1.19-1.092A64.117,64.117,0,0,1,32,39.4a64.117,64.117,0,0,1-16.806-2.363A.98.98,0,0,0,14,38.126a14.847,14.847,0,0,0,.912,4.022,15.616,15.616,0,0,0,5.093,6.711A18.8,18.8,0,0,0,32,53a18.8,18.8,0,0,0,11.991-4.141A15.616,15.616,0,0,0,49.084,42.148Z" style="fill:none;stroke:#1d1d1b;stroke-linejoin:round;stroke-width:2px"/><path d="M14.43,40.59A34.768,34.768,0,0,0,32,45a34.768,34.768,0,0,0,17.57-4.41" style="fill:none;stroke:#1d1d1b;stroke-linejoin:round;stroke-width:2px"/><path d="M25.08,51.76C25.41,50.89,26.9,48,32,48s6.59,2.89,6.92,3.76" style="fill:none;stroke:#1d1d1b;stroke-linejoin:round;stroke-width:2px"/><path d="M14,18s11,3,12,10c0,0-7-2-13-1" style="fill:none;stroke:#1d1d1b;stroke-linejoin:round;stroke-width:2px"/><path d="M50,18S39,21,38,28c0,0,7-2,13-1" style="fill:none;stroke:#1d1d1b;stroke-linejoin:round;stroke-width:2px"/></g></svg>