<svg xmlns="http://www.w3.org/2000/svg" viewBox="0 0 64 64"><title>09-Weight</title><g id="_09-Weight" data-name="09-Weight"><path d="M60,63H4V11H18V21H46V11H60ZM55,29a2.006,2.006,0,0,0-2-2H39a2.015,2.015,0,0,0-2,2,2.006,2.006,0,0,0,2,2H53a2.015,2.015,0,0,0,2-2Zm0,8a2.006,2.006,0,0,0-2-2H39a2.015,2.015,0,0,0-2,2,2.006,2.006,0,0,0,2,2H53a2.015,2.015,0,0,0,2-2Zm0,8a2.006,2.006,0,0,0-2-2H39a2.015,2.015,0,0,0-2,2,2.006,2.006,0,0,0,2,2H53a2.015,2.015,0,0,0,2-2Zm0,8a2.006,2.006,0,0,0-2-2H39a2.015,2.015,0,0,0-2,2,2.006,2.006,0,0,0,2,2H53a2.015,2.015,0,0,0,2-2ZM27,29a2.006,2.006,0,0,0-2-2H11a2.015,2.015,0,0,0-2,2,2.006,2.006,0,0,0,2,2H25a2.015,2.015,0,0,0,2-2Zm0,8a2.006,2.006,0,0,0-2-2H11a2.015,2.015,0,0,0-2,2,2.006,2.006,0,0,0,2,2H25a2.015,2.015,0,0,0,2-2Zm0,8a2.006,2.006,0,0,0-2-2H11a2.015,2.015,0,0,0-2,2,2.006,2.006,0,0,0,2,2H25a2.015,2.015,0,0,0,2-2Zm0,8a2.006,2.006,0,0,0-2-2H11a2.015,2.015,0,0,0-2,2,2.006,2.006,0,0,0,2,2H25a2.015,2.015,0,0,0,2-2Z" style="fill:#dce1eb"/><path d="M25,27a2.006,2.006,0,0,1,2,2,2.015,2.015,0,0,1-2,2H11a2.006,2.006,0,0,1-2-2,2.015,2.015,0,0,1,2-2Z" style="fill:#ff73a5"/><path d="M25,35a2.006,2.006,0,0,1,2,2,2.015,2.015,0,0,1-2,2H11a2.006,2.006,0,0,1-2-2,2.015,2.015,0,0,1,2-2Z" style="fill:#ff73a5"/><path d="M25,43a2.006,2.006,0,0,1,2,2,2.015,2.015,0,0,1-2,2H11a2.006,2.006,0,0,1-2-2,2.015,2.015,0,0,1,2-2Z" style="fill:#ff73a5"/><path d="M25,51a2.006,2.006,0,0,1,2,2,2.015,2.015,0,0,1-2,2H11a2.006,2.006,0,0,1-2-2,2.015,2.015,0,0,1,2-2Z" style="fill:#ff73a5"/><path d="M53,51a2.006,2.006,0,0,1,2,2,2.015,2.015,0,0,1-2,2H39a2.006,2.006,0,0,1-2-2,2.015,2.015,0,0,1,2-2Z" style="fill:#ff73a5"/><path d="M53,43a2.006,2.006,0,0,1,2,2,2.015,2.015,0,0,1-2,2H39a2.006,2.006,0,0,1-2-2,2.015,2.015,0,0,1,2-2Z" style="fill:#ff73a5"/><path d="M53,35a2.006,2.006,0,0,1,2,2,2.015,2.015,0,0,1-2,2H39a2.006,2.006,0,0,1-2-2,2.015,2.015,0,0,1,2-2Z" style="fill:#ff73a5"/><path d="M53,27a2.006,2.006,0,0,1,2,2,2.015,2.015,0,0,1-2,2H39a2.006,2.006,0,0,1-2-2,2.015,2.015,0,0,1,2-2Z" style="fill:#ff73a5"/><path d="M37.59,29.59A1.955,1.955,0,0,1,39,29H53a2,2,0,0,1,1.721,1A1.963,1.963,0,0,0,55,29a2.006,2.006,0,0,0-2-2H39a1.984,1.984,0,0,0-1.721,3A1.938,1.938,0,0,1,37.59,29.59Z" style="fill:#ff8fb8"/><path d="M37.59,37.59A1.955,1.955,0,0,1,39,37H53a2,2,0,0,1,1.721,1A1.963,1.963,0,0,0,55,37a2.006,2.006,0,0,0-2-2H39a1.984,1.984,0,0,0-1.721,3A1.938,1.938,0,0,1,37.59,37.59Z" style="fill:#ff8fb8"/><path d="M37.59,45.59A1.955,1.955,0,0,1,39,45H53a2,2,0,0,1,1.721,1A1.963,1.963,0,0,0,55,45a2.006,2.006,0,0,0-2-2H39a1.984,1.984,0,0,0-1.721,3A1.938,1.938,0,0,1,37.59,45.59Z" style="fill:#ff8fb8"/><path d="M37.59,53.59A1.955,1.955,0,0,1,39,53H53a2,2,0,0,1,1.721,1A1.963,1.963,0,0,0,55,53a2.006,2.006,0,0,0-2-2H39a1.984,1.984,0,0,0-1.721,3A1.938,1.938,0,0,1,37.59,53.59Z" style="fill:#ff8fb8"/><path d="M9.59,29.59A1.955,1.955,0,0,1,11,29H25a2,2,0,0,1,1.721,1A1.963,1.963,0,0,0,27,29a2.006,2.006,0,0,0-2-2H11a1.984,1.984,0,0,0-1.721,3A1.938,1.938,0,0,1,9.59,29.59Z" style="fill:#ff8fb8"/><path d="M9.59,37.59A1.955,1.955,0,0,1,11,37H25a2,2,0,0,1,1.721,1A1.963,1.963,0,0,0,27,37a2.006,2.006,0,0,0-2-2H11a1.984,1.984,0,0,0-1.721,3A1.938,1.938,0,0,1,9.59,37.59Z" style="fill:#ff8fb8"/><path d="M9.59,45.59A1.955,1.955,0,0,1,11,45H25a2,2,0,0,1,1.721,1A1.963,1.963,0,0,0,27,45a2.006,2.006,0,0,0-2-2H11a1.984,1.984,0,0,0-1.721,3A1.938,1.938,0,0,1,9.59,45.59Z" style="fill:#ff8fb8"/><path d="M9.59,53.59A1.955,1.955,0,0,1,11,53H25a2,2,0,0,1,1.721,1A1.963,1.963,0,0,0,27,53a2.006,2.006,0,0,0-2-2H11a1.984,1.984,0,0,0-1.721,3A1.938,1.938,0,0,1,9.59,53.59Z" style="fill:#ff8fb8"/><path d="M18,5v6H10V7a2.006,2.006,0,0,1,2-2Z" style="fill:#9196aa"/><path d="M54,7v4H46V5h6A2.006,2.006,0,0,1,54,7Z" style="fill:#9196aa"/><path d="M46,11V21H18V1H46V11Zm-4,6V5H22V17H42Z" style="fill:#ff73a5"/><path d="M34.12,14.88A3,3,0,0,0,29,17H22V5H42V17H35A2.993,2.993,0,0,0,34.12,14.88Z" style="fill:#f2f6fc"/><rect x="32.568" y="12.25" width="6.364" height="2" transform="translate(1.102 29.16) rotate(-45)" style="fill:#9196aa"/><path d="M34.12,14.88A2.993,2.993,0,0,1,35,17H29a3,3,0,0,1,5.12-2.12Z" style="fill:#b674f2"/><rect x="57" y="11" width="3" height="52" style="fill:#cdd2e1"/><rect x="4" y="11" width="3" height="52" style="fill:#cdd2e1"/><rect x="22" y="5" width="2" height="12" style="fill:#cdd2e1"/><rect x="40" y="5" width="2" height="12" style="fill:#cdd2e1"/><rect x="18" y="1" width="2" height="20" style="fill:#cf6799"/><rect x="44" y="1" width="2" height="20" style="fill:#cf6799"/><rect x="46" y="5" width="3" height="6" style="fill:#7e8596"/><rect x="15" y="5" width="3" height="6" style="fill:#7e8596"/><path d="M60,10H55V7a3,3,0,0,0-3-3H47V1a1,1,0,0,0-1-1H18a1,1,0,0,0-1,1V4H12A3,3,0,0,0,9,7v3H4a1,1,0,0,0-1,1V63a1,1,0,0,0,1,1H60a1,1,0,0,0,1-1V11A1,1,0,0,0,60,10ZM52,6a1,1,0,0,1,1,1v3H47V6ZM19,2H45V20H19ZM11,7a1,1,0,0,1,1-1h5v4H11ZM59,62H5V12H17v9a1,1,0,0,0,1,1H46a1,1,0,0,0,1-1V12H59Z"/><path d="M42,4H22a1,1,0,0,0-1,1V17a1,1,0,0,0,1,1H42a1,1,0,0,0,1-1V5A1,1,0,0,0,42,4ZM33.413,15.587a1.988,1.988,0,0,1,.309.413H30.278a1.987,1.987,0,0,1,3.135-.413ZM41,16H35.858a3.93,3.93,0,0,0-.424-1.02l3.273-3.273-1.414-1.414L34.02,13.566A3.952,3.952,0,0,0,32,13a4,4,0,0,0-3.858,3H24.069A7.99,7.99,0,0,1,35.556,9.836l.888-1.792A9.979,9.979,0,0,0,23,12.67V6H41Z"/><rect x="31" y="28" width="2" height="32"/><rect x="31" y="24" width="2" height="2"/><path d="M25,26H11a3.015,3.015,0,0,0-3,3,3,3,0,0,0,3,3H25a3.015,3.015,0,0,0,3-3A3,3,0,0,0,25,26Zm.694,3.712A.957.957,0,0,1,25,30H11a1,1,0,0,1-1-1,.974.974,0,0,1,.306-.712A.957.957,0,0,1,11,28H25a1,1,0,0,1,1,1A.974.974,0,0,1,25.694,29.712Z"/><path d="M25,34H11a3.015,3.015,0,0,0-3,3,3,3,0,0,0,3,3H25a3.015,3.015,0,0,0,3-3A3,3,0,0,0,25,34Zm.694,3.712A.957.957,0,0,1,25,38H11a1,1,0,0,1-1-1,.974.974,0,0,1,.306-.712A.957.957,0,0,1,11,36H25a1,1,0,0,1,1,1A.974.974,0,0,1,25.694,37.712Z"/><path d="M25,42H11a3.015,3.015,0,0,0-3,3,3,3,0,0,0,3,3H25a3.015,3.015,0,0,0,3-3A3,3,0,0,0,25,42Zm.694,3.712A.957.957,0,0,1,25,46H11a1,1,0,0,1-1-1,.974.974,0,0,1,.306-.712A.957.957,0,0,1,11,44H25a1,1,0,0,1,1,1A.974.974,0,0,1,25.694,45.712Z"/><path d="M25,50H11a3.015,3.015,0,0,0-3,3,3,3,0,0,0,3,3H25a3.015,3.015,0,0,0,3-3A3,3,0,0,0,25,50Zm.694,3.712A.957.957,0,0,1,25,54H11a1,1,0,0,1-1-1,.974.974,0,0,1,.306-.712A.957.957,0,0,1,11,52H25a1,1,0,0,1,1,1A.974.974,0,0,1,25.694,53.712Z"/><path d="M39,26a3.015,3.015,0,0,0-3,3,3,3,0,0,0,3,3H53a3.015,3.015,0,0,0,3-3,3,3,0,0,0-3-3Zm15,3a.974.974,0,0,1-.306.712A.957.957,0,0,1,53,30H39a1,1,0,0,1-1-1,.974.974,0,0,1,.306-.712A.957.957,0,0,1,39,28H53A1,1,0,0,1,54,29Z"/><path d="M53,34H39a3.015,3.015,0,0,0-3,3,3,3,0,0,0,3,3H53a3.015,3.015,0,0,0,3-3A3,3,0,0,0,53,34Zm.694,3.712A.957.957,0,0,1,53,38H39a1,1,0,0,1-1-1,.974.974,0,0,1,.306-.712A.957.957,0,0,1,39,36H53a1,1,0,0,1,1,1A.974.974,0,0,1,53.694,37.712Z"/><path d="M53,42H39a3.015,3.015,0,0,0-3,3,3,3,0,0,0,3,3H53a3.015,3.015,0,0,0,3-3A3,3,0,0,0,53,42Zm.694,3.712A.957.957,0,0,1,53,46H39a1,1,0,0,1-1-1,.974.974,0,0,1,.306-.712A.957.957,0,0,1,39,44H53a1,1,0,0,1,1,1A.974.974,0,0,1,53.694,45.712Z"/><path d="M53,50H39a3.015,3.015,0,0,0-3,3,3,3,0,0,0,3,3H53a3.015,3.015,0,0,0,3-3A3,3,0,0,0,53,50Zm.694,3.712A.957.957,0,0,1,53,54H39a1,1,0,0,1-1-1,.974.974,0,0,1,.306-.712A.957.957,0,0,1,39,52H53a1,1,0,0,1,1,1A.974.974,0,0,1,53.694,53.712Z"/></g></svg>