<?xml version="1.0" encoding="utf-8"?>
<!-- Generator: Adobe Illustrator 16.0.0, SVG Export Plug-In . SVG Version: 6.00 Build 0)  -->
<!DOCTYPE svg PUBLIC "-//W3C//DTD SVG 1.1//EN" "http://www.w3.org/Graphics/SVG/1.1/DTD/svg11.dtd">
<svg version="1.1" xmlns="http://www.w3.org/2000/svg" xmlns:xlink="http://www.w3.org/1999/xlink" x="0px" y="0px" width="64px"
	 height="64px" viewBox="0 0 64 64" enable-background="new 0 0 64 64" xml:space="preserve">
<g id="_x32_5_purse_x2C__money_x2C__coin_x2C__banknote_x2C__payment_x2C__shop_x2C__shopping">
</g>
<g id="_x32_4_pay_x2C__click_x2C__hand_x2C__coin_x2C__money_x2C__shop_x2C__payment">
</g>
<g id="_x32_3_card_x2C__discount_x2C__sale_x2C__shop_x2C__shopping_x2C__commerce_x2C__market">
</g>
<g id="_x32_2_safe_x2C__box_x2C__key_x2C__thing_x2C__shop_x2C__shopping_x2C__commerce">
</g>
<g id="_x32_1_cashbox_x2C__money_x2C__purchase_x2C__list_x2C__check_x2C__shop_x2C__shopping">
</g>
<g id="_x32_0_search_x2C__magnifier_x2C__basket_x2C__shop_x2C__shopping_x2C__commerce_x2C__market">
</g>
<g id="_x31_9_return_x2C__box_x2C__purchase_x2C__shipping_x2C__delivery_x2C__shop_x2C__shopping">
</g>
<g id="_x31_8_review_x2C__client_x2C__buyer_x2C__talk_x2C__shop_x2C__shopping_x2C__commerce">
</g>
<g id="_x31_7_manager_x2C__consultant_x2C__shop_x2C__shopping_x2C__commerce_x2C__market_x2C__badge">
</g>
<g id="_x31_6_check_x2C__list_x2C__cashbox_x2C__purchase_x2C__shop_x2C__shopping_x2C__commerce">
</g>
<g id="_x31_5_coupon_x2C__sale_x2C__discount_x2C__shop_x2C__shopping_x2C__commerce_x2C__market">
</g>
<g id="_x31_4_sale_x2C__discount_x2C__box_x2C__gift_x2C__shop_x2C__shopping_x2C__commerce">
</g>
<g id="_x31_3_map_x2C__pin_x2C__marker_x2C__location_x2C__shop_x2C__shopping_x2C__basket">
</g>
<g id="_x31_2_operator_x2C__call_x2C__center_x2C__shop_x2C__shopping_x2C__commerce_x2C__market">
</g>
<g id="_x31_1_courier_x2C__box_x2C__shipping_x2C__purchase_x2C__shop_x2C__shopping_x2C__commerce">
</g>
<g id="_x31_0_box_x2C__shipping_x2C__delivery_x2C__purchase_x2C__shop_x2C__shopping_x2C__commerce">
</g>
<g id="_x39__shipping_x2C__delivery_x2C__box_x2C__crane_x2C__shop_x2C__shopping_x2C__commerce">
</g>
<g id="_x38__computer_x2C__monitor_x2C__desktop_x2C__shop_x2C__shopping_x2C__commerce_x2C__market">
</g>
<g id="_x37__mobile_x2C__phone_x2C__app_x2C__shop_x2C__shopping_x2C__commerce_x2C__market">
</g>
<g id="_x36__food_x2C__market_x2C__purchase_x2C__shop_x2C__shopping_x2C__commerce_x2C__basket">
</g>
<g id="_x35__discount_x2C__sale_x2C__purchase_x2C__pocket_x2C__shop_x2C__shopping_x2C__commerce">
</g>
<g id="_x34__badge_x2C__discount_x2C__sale_x2C__shop_x2C__shopping_x2C__commerce_x2C__market">
</g>
<g id="_x33__food_x2C__pocket_x2C__purchase_x2C__shop_x2C__shopping_x2C__commerce_x2C__supermarket">
</g>
<g id="_x32__shop_x2C__shopping_x2C__commerce_x2C__supermarket_x2C__market_x2C__cart">
</g>
<g id="_x31__list_x2C__check_x2C__notebook_x2C__pen_x2C__shop_x2C__shopping_x2C__commerce">
	<g>
		<path fill="#E6E9ED" d="M49,62.752c0,0.275-0.225,0.5-0.5,0.5h-44c-0.275,0-0.5-0.225-0.5-0.5V9.75c0-0.274,0.225-0.5,0.5-0.5h44
			c0.275,0,0.5,0.226,0.5,0.5V62.752z"/>
		<path fill="#CCD1D9" d="M49,61.751c0,0.275-0.225,0.5-0.5,0.5h-44c-0.275,0-0.5-0.225-0.5-0.5V8.75c0-0.275,0.225-0.5,0.5-0.5h44
			c0.275,0,0.5,0.225,0.5,0.5V61.751z"/>
		<path fill="#E6E9ED" d="M49,60.75c0,0.275-0.225,0.5-0.5,0.5h-44c-0.275,0-0.5-0.225-0.5-0.5V7.749c0-0.274,0.225-0.5,0.5-0.5h44
			c0.275,0,0.5,0.226,0.5,0.5V60.75z"/>
		<path fill="#CCD1D9" d="M49,59.749c0,0.275-0.225,0.5-0.5,0.5h-44c-0.275,0-0.5-0.225-0.5-0.5v-53c0-0.275,0.225-0.5,0.5-0.5h44
			c0.275,0,0.5,0.225,0.5,0.5V59.749z"/>
		<path fill="#E6E9ED" d="M49,58.748c0,0.275-0.225,0.5-0.5,0.5h-44c-0.275,0-0.5-0.225-0.5-0.5v-53c0-0.274,0.225-0.5,0.5-0.5h44
			c0.275,0,0.5,0.226,0.5,0.5V58.748z"/>
		<g>
			<path fill="#656D78" d="M10.5,0.748c-0.826,0-1.5,0.673-1.5,1.5v6c0,0.827,0.674,1.5,1.5,1.5c0.828,0,1.5-0.673,1.5-1.5v-6
				C12,1.421,11.328,0.748,10.5,0.748z"/>
			<path fill="#656D78" d="M18.502,0.748c-0.828,0-1.5,0.673-1.5,1.5v6c0,0.827,0.672,1.5,1.5,1.5c0.826,0,1.5-0.673,1.5-1.5v-6
				C20.002,1.421,19.328,0.748,18.502,0.748z"/>
			<path fill="#656D78" d="M26.502,0.748c-0.826,0-1.5,0.673-1.5,1.5v6c0,0.827,0.674,1.5,1.5,1.5c0.828,0,1.5-0.673,1.5-1.5v-6
				C28.002,1.421,27.33,0.748,26.502,0.748z"/>
			<path fill="#656D78" d="M34.504,0.748c-0.828,0-1.5,0.673-1.5,1.5v6c0,0.827,0.672,1.5,1.5,1.5c0.826,0,1.5-0.673,1.5-1.5v-6
				C36.004,1.421,35.33,0.748,34.504,0.748z"/>
			<path fill="#656D78" d="M42.504,0.748c-0.826,0-1.5,0.673-1.5,1.5v6c0,0.827,0.674,1.5,1.5,1.5c0.828,0,1.5-0.673,1.5-1.5v-6
				C44.004,1.421,43.332,0.748,42.504,0.748z"/>
		</g>
		<g>
			<path fill="#8CC152" d="M13,22.748c-0.127,0-0.256-0.049-0.354-0.146l-2-2c-0.195-0.195-0.195-0.512,0-0.707s0.512-0.195,0.707,0
				l2,2c0.195,0.195,0.195,0.512,0,0.707C13.256,22.699,13.129,22.748,13,22.748z"/>
		</g>
		<g>
			<path fill="#8CC152" d="M13,22.748c-0.127,0-0.256-0.049-0.354-0.146c-0.195-0.195-0.195-0.512,0-0.707l4-4
				c0.195-0.195,0.512-0.195,0.707,0s0.195,0.512,0,0.707l-4,4C13.256,22.699,13.129,22.748,13,22.748z"/>
		</g>
		<g>
			<path fill="#8CC152" d="M13,35.748c-0.127,0-0.256-0.049-0.354-0.146l-2-2c-0.195-0.195-0.195-0.512,0-0.707s0.512-0.195,0.707,0
				l2,2c0.195,0.195,0.195,0.512,0,0.707C13.256,35.699,13.129,35.748,13,35.748z"/>
		</g>
		<g>
			<path fill="#8CC152" d="M13,35.748c-0.127,0-0.256-0.049-0.354-0.146c-0.195-0.195-0.195-0.512,0-0.707l4-3.999
				c0.195-0.195,0.512-0.195,0.707,0s0.195,0.512,0,0.707l-4,3.999C13.256,35.699,13.129,35.748,13,35.748z"/>
		</g>
		<g>
			<path fill="#CCD1D9" d="M42,17.748H22c-0.275,0-0.5-0.224-0.5-0.5s0.225-0.5,0.5-0.5h20c0.277,0,0.5,0.224,0.5,0.5
				S42.277,17.748,42,17.748z"/>
		</g>
		<g>
			<path fill="#CCD1D9" d="M42,20.748H22c-0.275,0-0.5-0.224-0.5-0.5s0.225-0.5,0.5-0.5h20c0.277,0,0.5,0.224,0.5,0.5
				S42.277,20.748,42,20.748z"/>
		</g>
		<g>
			<path fill="#CCD1D9" d="M32,23.748H22c-0.275,0-0.5-0.224-0.5-0.5s0.225-0.5,0.5-0.5h10c0.277,0,0.5,0.224,0.5,0.5
				S32.277,23.748,32,23.748z"/>
		</g>
		<g>
			<path fill="#CCD1D9" d="M42,30.748H22c-0.275,0-0.5-0.224-0.5-0.5s0.225-0.5,0.5-0.5h20c0.277,0,0.5,0.224,0.5,0.5
				S42.277,30.748,42,30.748z"/>
		</g>
		<g>
			<path fill="#CCD1D9" d="M42,33.748H22c-0.275,0-0.5-0.224-0.5-0.5s0.225-0.5,0.5-0.5h20c0.277,0,0.5,0.224,0.5,0.5
				S42.277,33.748,42,33.748z"/>
		</g>
		<g>
			<path fill="#CCD1D9" d="M32,36.748H22c-0.275,0-0.5-0.224-0.5-0.5s0.225-0.5,0.5-0.5h10c0.277,0,0.5,0.224,0.5,0.5
				S32.277,36.748,32,36.748z"/>
		</g>
		<g>
			<path fill="#8CC152" d="M13,48.748c-0.127,0-0.256-0.049-0.354-0.146l-2-2c-0.195-0.195-0.195-0.512,0-0.707s0.512-0.195,0.707,0
				l2,2c0.195,0.195,0.195,0.512,0,0.707C13.256,48.699,13.129,48.748,13,48.748z"/>
		</g>
		<g>
			<path fill="#8CC152" d="M13,48.748c-0.127,0-0.256-0.049-0.354-0.146c-0.195-0.195-0.195-0.512,0-0.707l4-4
				c0.195-0.195,0.512-0.195,0.707,0s0.195,0.512,0,0.707l-4,4C13.256,48.699,13.129,48.748,13,48.748z"/>
		</g>
		<g>
			<path fill="#CCD1D9" d="M42,43.748H22c-0.275,0-0.5-0.224-0.5-0.5s0.225-0.5,0.5-0.5h20c0.277,0,0.5,0.224,0.5,0.5
				S42.277,43.748,42,43.748z"/>
		</g>
		<g>
			<path fill="#CCD1D9" d="M42,46.748H22c-0.275,0-0.5-0.224-0.5-0.5s0.225-0.5,0.5-0.5h20c0.277,0,0.5,0.224,0.5,0.5
				S42.277,46.748,42,46.748z"/>
		</g>
		<g>
			<path fill="#CCD1D9" d="M32,49.748H22c-0.275,0-0.5-0.224-0.5-0.5s0.225-0.5,0.5-0.5h10c0.277,0,0.5,0.224,0.5,0.5
				S32.277,49.748,32,49.748z"/>
		</g>
		<g>
			<g>
				<path fill="#434A54" d="M58,12.747h-2c-0.277,0-0.5-0.224-0.5-0.5s0.223-0.5,0.5-0.5h2c0.275,0,0.5,0.224,0.5,0.5
					S58.275,12.747,58,12.747z"/>
			</g>
			<polygon fill="#FFCE54" points="58,49.246 58,49.247 56,49.247 56,49.246 54.498,52.246 57,56.247 59.5,52.246 			"/>
			<g>
				<polygon fill="#656D78" points="59,43.247 59,49.247 58,49.247 56,49.247 55,49.247 55,43.247 				"/>
			</g>
			<g>
				<rect x="55" y="41.247" fill="#FFCE54" width="4" height="2"/>
			</g>
			<g>
				<path fill="#656D78" d="M60,16.247l-1,25h-4l-1-25c0-2.21,0.789-4,3-4h0.1C59.23,12.307,60,14.067,60,16.247z"/>
			</g>
			<g>
				<path fill="#FFCE54" d="M57,29.747c-0.277,0-0.5-0.224-0.5-0.5v-15c0-0.276,0.223-0.5,0.5-0.5c0.275,0,0.5,0.224,0.5,0.5v15
					C57.5,29.523,57.275,29.747,57,29.747z"/>
			</g>
		</g>
	</g>
</g>
</svg>
