<svg id="_1-App_Development" data-name="1-App Development" xmlns="http://www.w3.org/2000/svg" viewBox="0 0 90 90"><title>1-App Development</title><g id="_Group_" data-name="&lt;Group&gt;"><path d="M45,90a44.743,44.743,0,0,1-24.547-7.283,43.515,43.515,0,0,1-4.091-3.007A45,45,0,0,1,8.183,19.124l1.634,1.152a43,43,0,0,0,7.82,57.893,41.936,41.936,0,0,0,3.906,2.872,43.012,43.012,0,0,0,46.91,0,41.865,41.865,0,0,0,3.909-2.873,43.01,43.01,0,0,0-43-73.239l-.728-1.862a45.006,45.006,0,0,1,45,76.642,43.446,43.446,0,0,1-4.094,3.008A44.734,44.734,0,0,1,45,90Z"/><polygon points="16 79 16 31 18 31 18 78.94 16 79"/><path d="M72,79V26a5.006,5.006,0,0,0-5-5H43V19H67a7.008,7.008,0,0,1,7,7V78.94Z"/><path d="M51,29H39V27H51a1,1,0,0,0,0-2H37V23H51a3,3,0,0,1,0,6Z"/><rect x="41" y="31" width="32" height="2"/><path d="M70,82H68V37H31V35H69a1,1,0,0,1,1,1Z"/><path d="M22,82H20V36a1,1,0,0,1,1-1h3v2H22Z"/><path d="M28,37H24a1,1,0,0,1-.973-.771l-1.158-4.911a12.562,12.562,0,0,1-1.671-.686l-4.28,2.648a1,1,0,0,1-1.234-.141l-2.83-2.821a1,1,0,0,1-.144-1.235L14.368,24.8a12.536,12.536,0,0,1-.686-1.669L8.771,21.973A1,1,0,0,1,8,21V17a1,1,0,0,1,.771-.973l4.911-1.158a12.536,12.536,0,0,1,.686-1.669L11.71,8.917a1,1,0,0,1,.143-1.234l2.83-2.83a1,1,0,0,1,1.234-.143L20.2,7.368a12.536,12.536,0,0,1,1.669-.686l1.158-4.911A1,1,0,0,1,24,1h4a1,1,0,0,1,.973.771l1.158,4.911a12.536,12.536,0,0,1,1.669.686L36.083,4.71a1,1,0,0,1,1.234.143l2.83,2.83a1,1,0,0,1,.143,1.234L37.632,13.2a12.536,12.536,0,0,1,.686,1.669l4.911,1.158A1,1,0,0,1,44,17v4a1,1,0,0,1-.771.973l-4.911,1.158a11.714,11.714,0,0,1-.485,1.238c-.063.145-.131.288-.2.429l2.659,4.286a1,1,0,0,1-.145,1.234l-2.829,2.819a1,1,0,0,1-1.233.144L31.8,30.632a12.6,12.6,0,0,1-1.67.686l-1.158,4.911A1,1,0,0,1,28,37Zm-3.208-2h2.416l1.109-4.7a1,1,0,0,1,.7-.733,10.558,10.558,0,0,0,2.329-.959,1,1,0,0,1,1.017.021l4.1,2.535,1.709-1.7-2.541-4.093a1,1,0,0,1-.027-1.012c.145-.261.281-.523.4-.794l.01-.022a10.069,10.069,0,0,0,.555-1.52,1,1,0,0,1,.733-.7L42,20.208V17.792l-4.7-1.109a1,1,0,0,1-.733-.7,10.558,10.558,0,0,0-.959-2.329,1,1,0,0,1,.022-1.018l2.542-4.1L36.463,6.828l-4.1,2.542a1,1,0,0,1-1.018.022,10.558,10.558,0,0,0-2.329-.959,1,1,0,0,1-.7-.733L27.208,3H24.792L23.683,7.7a1,1,0,0,1-.7.733,10.558,10.558,0,0,0-2.329.959,1,1,0,0,1-1.018-.022l-4.1-2.542L13.828,8.537l2.542,4.1a1,1,0,0,1,.022,1.018,10.558,10.558,0,0,0-.959,2.329,1,1,0,0,1-.733.7L10,17.792v2.416l4.7,1.109a1,1,0,0,1,.733.7,10.558,10.558,0,0,0,.959,2.329,1,1,0,0,1-.022,1.018l-2.541,4.095,1.706,1.7,4.1-2.534a1.007,1.007,0,0,1,1.016-.021,10.558,10.558,0,0,0,2.329.959,1,1,0,0,1,.7.733Z"/><path d="M26,26a7,7,0,1,1,7-7A7.008,7.008,0,0,1,26,26Zm0-12a5,5,0,1,0,5,5A5.006,5.006,0,0,0,26,14Z"/><path d="M36.293,67.707l-7-7a1,1,0,0,1,0-1.414l7-7,1.414,1.414L31.414,60l6.293,6.293Z"/><rect x="34.986" y="59.5" width="18.028" height="2" transform="translate(-27.7 81.84) rotate(-70.548)"/><path d="M53.707,67.707l-1.414-1.414L58.586,60l-6.293-6.293,1.414-1.414,7,7a1,1,0,0,1,0,1.414Z"/></g></svg>