<svg id="_1-App" data-name="1-App" xmlns="http://www.w3.org/2000/svg" viewBox="0 0 64 64"><title>1-App</title><g id="_Group_" data-name="&lt;Group&gt;"><path d="M61,51H3a3,3,0,0,1-3-3V4A3,3,0,0,1,3,1H61a3,3,0,0,1,3,3V48A3,3,0,0,1,61,51ZM3,3A1,1,0,0,0,2,4V48a1,1,0,0,0,1,1H61a1,1,0,0,0,1-1V4a1,1,0,0,0-1-1Z"/><path d="M45,63H19a1,1,0,0,1-1-1V59a1,1,0,0,1,.126-.486l5-9,1.748.972L20,59.259V61H44V59.259l-4.874-8.773,1.748-.972,5,9A1,1,0,0,1,46,59v3A1,1,0,0,1,45,63Z"/><rect x="19" y="58" width="26" height="2"/><rect x="16" y="61" width="3" height="2"/><rect x="45" y="61" width="3" height="2"/><rect x="1" y="41" width="62" height="2"/></g><g id="_Group_2" data-name="&lt;Group&gt;"><path d="M19,35H5a1,1,0,0,1-1-1V20a1,1,0,0,1,1-1H19a1,1,0,0,1,1,1V34A1,1,0,0,1,19,35ZM6,33H18V21H6Z"/><rect x="2.204" y="26.25" width="19.092" height="2" transform="translate(-15.827 16.29) rotate(-45)"/><path d="M33,21H19a1,1,0,0,1-1-1V6a1,1,0,0,1,1-1H33a1,1,0,0,1,1,1V20A1,1,0,0,1,33,21ZM20,19H32V7H20Z"/><rect x="16.204" y="12.25" width="19.092" height="2" transform="translate(-1.827 22.089) rotate(-45)"/><path d="M59,39H39a1,1,0,0,1-1-1V16a1,1,0,0,1,1-1H59a1,1,0,0,1,1,1V38A1,1,0,0,1,59,39ZM40,37H58V17H40Z"/><rect x="39" y="23" width="20" height="2"/></g><path d="M30.707,38.707l-1.414-1.414L31.586,35l-2.293-2.293,1.414-1.414,3,3a1,1,0,0,1,0,1.414Z"/><rect x="24" y="34" width="9" height="2"/><path d="M30.707,29.707l-1.414-1.414L31.586,26l-2.293-2.293,1.414-1.414,3,3a1,1,0,0,1,0,1.414Z"/><rect x="24" y="25" width="9" height="2"/><rect x="42" y="19" width="2" height="2"/><rect x="46" y="19" width="2" height="2"/></svg>