<svg xmlns="http://www.w3.org/2000/svg" viewBox="0 0 64 64"><g id="Layer_2" data-name="Layer 2"><path d="M32,1h0a14.585,14.585,0,0,0-13.6,9.328L8.461,36.043A6.584,6.584,0,0,0,14.6,45H49.4a6.584,6.584,0,0,0,6.141-8.957L45.6,10.328A14.585,14.585,0,0,0,32,1Z" style="fill:#85b27c"/><path d="M42,8.958a1,1,0,0,1-.793-.392,11.7,11.7,0,0,0-1.722-1.8,1,1,0,0,1,1.291-1.527,13.615,13.615,0,0,1,2.017,2.113A1,1,0,0,1,42,8.958Z" style="fill:#fff"/><path d="M53.4,42H46.17A25.487,25.487,0,0,1,22.4,7.328h0A14.544,14.544,0,0,1,25.371,2.6,14.57,14.57,0,0,0,18.4,10.328L8.461,36.043A6.584,6.584,0,0,0,14.6,45H49.4a6.536,6.536,0,0,0,5.637-3.2A6.637,6.637,0,0,1,53.4,42Z" style="fill:#699b5d"/><path d="M46,47V45H43v1a2,2,0,0,1-2,2H40a2,2,0,0,1-2-2V45H26v1a2,2,0,0,1-2,2H23a2,2,0,0,1-2-2V45H18v2a4,4,0,0,0,4,4h2a2,2,0,0,1,2,2v.111a7.994,7.994,0,0,1-.845,3.578l-1.708,3.417A2,2,0,0,0,25.236,63H38.764a2,2,0,0,0,1.789-2.894l-1.708-3.417A7.994,7.994,0,0,1,38,53.111V53a2,2,0,0,1,2-2h2A4,4,0,0,0,46,47Z" style="fill:#c67a60"/><path d="M25.723,47H38.277A1.987,1.987,0,0,1,38,46V45H26v1A1.987,1.987,0,0,1,25.723,47Z" style="fill:#b26049"/><path d="M43,45v1a1.987,1.987,0,0,1-.277,1H46V45Z" style="fill:#b26049"/><path d="M33.055,61a4.361,4.361,0,0,1-3.9-6.311h0A7.994,7.994,0,0,0,30,51.111V51a2,2,0,0,0-2-2H26a3.963,3.963,0,0,1-2.62-1H23a2,2,0,0,1-2-2V45H18v2a4,4,0,0,0,4,4h2a2,2,0,0,1,2,2v.112a7.99,7.99,0,0,1-.845,3.577l-1.708,3.417A2,2,0,0,0,25.236,63H38.764a1.993,1.993,0,0,0,1.991-2Z" style="fill:#b26049"/><path d="M56.472,35.683,47.956,13.64a1,1,0,1,0-1.866.72L54.607,36.4A5.585,5.585,0,0,1,49.4,44H14.6a5.585,5.585,0,0,1-5.209-7.6l9.936-25.715a13.584,13.584,0,0,1,25.342,0l.26.672a1,1,0,1,0,1.865-.722l-.259-.671a15.584,15.584,0,0,0-29.074,0L7.528,35.683A7.584,7.584,0,0,0,14.6,46H17v1a5.006,5.006,0,0,0,5,5h2a1,1,0,0,1,1,1v.111a7.031,7.031,0,0,1-.739,3.131l-1.708,3.416A3,3,0,0,0,25.236,64H38.764a3,3,0,0,0,2.683-4.342l-1.708-3.416A7.031,7.031,0,0,1,39,53.111V53a1,1,0,0,1,1-1h2a5.006,5.006,0,0,0,5-5V46h2.4a7.584,7.584,0,0,0,7.074-10.317ZM42,46a1,1,0,0,1-1,1H40a1,1,0,0,1-1-1ZM25,46a1,1,0,0,1-1,1H23a1,1,0,0,1-1-1Zm20,1a3,3,0,0,1-3,3H40a3,3,0,0,0-3,3v.111a9.05,9.05,0,0,0,.95,4.025l1.708,3.417A1,1,0,0,1,38.764,62H25.236a1,1,0,0,1-.894-1.447l1.708-3.417A9.05,9.05,0,0,0,27,53.111V53a3,3,0,0,0-3-3H22a3,3,0,0,1-3-3V46h1a3,3,0,0,0,3,3h1a3,3,0,0,0,3-3H37a3,3,0,0,0,3,3h1a3,3,0,0,0,3-3h1Z"/></g></svg>