<?xml version="1.0" encoding="utf-8"?>
<!-- Generator: Adobe Illustrator 16.0.0, SVG Export Plug-In . SVG Version: 6.00 Build 0)  -->
<!DOCTYPE svg PUBLIC "-//W3C//DTD SVG 1.1//EN" "http://www.w3.org/Graphics/SVG/1.1/DTD/svg11.dtd">
<svg version="1.1" id="Layer_1" xmlns="http://www.w3.org/2000/svg" xmlns:xlink="http://www.w3.org/1999/xlink" x="0px" y="0px"
	 width="512px" height="512px" viewBox="0 0 512 512" enable-background="new 0 0 512 512" xml:space="preserve">
<g id="_x31_._saber_x2C__sword_x2C__pirate_x2C__seafaring_x2C__crime_x2C__bandit">
	<g>
		<g>
			<path d="M32.23,487.697c-10.836,0-20.797-6.355-25.38-16.185c-3.162-6.769-3.49-14.372-0.922-21.392
				c2.561-7.018,7.706-12.623,14.482-15.785c3.731-1.733,7.697-2.615,11.789-2.615c10.836,0,20.797,6.347,25.38,16.176
				c6.519,13.982,0.43,30.658-13.545,37.177C40.287,486.814,36.321,487.697,32.23,487.697z M32.199,439.715
				c-2.92,0-5.746,0.633-8.416,1.874c-4.84,2.248-8.51,6.261-10.344,11.272c-1.835,5.013-1.601,10.438,0.656,15.279
				c4.504,9.664,16.808,14.216,26.559,9.688c9.985-4.652,14.334-16.566,9.681-26.559C47.064,444.251,39.944,439.715,32.199,439.715z
				"/>
		</g>
	</g>
	<g>
		<g>
			<path d="M57.837,442.963c-1.39,0-2.748-0.734-3.482-2.038c-1.085-1.921-0.406-4.356,1.522-5.441l90.835-51.12
				c1.92-1.085,4.356-0.398,5.441,1.522c1.085,1.929,0.398,4.364-1.522,5.441l-90.834,51.12
				C59.18,442.799,58.509,442.963,57.837,442.963z"/>
		</g>
	</g>
	<g>
		<g>
			<path d="M64.583,457.46c-1.616,0-3.139-0.983-3.747-2.592c-0.766-2.069,0.281-4.372,2.342-5.145l97.587-36.623
				c2.061-0.772,4.372,0.266,5.153,2.335c0.765,2.068-0.281,4.371-2.342,5.152l-97.587,36.623
				C65.519,457.382,65.051,457.46,64.583,457.46z"/>
		</g>
	</g>
	<g>
		<g>
			<path d="M169.415,417.457c-0.468,0-0.921-0.078-1.374-0.242c-0.991-0.359-1.803-1.108-2.248-2.068l-13.49-28.987
				c-0.938-1.999-0.062-4.372,1.936-5.31l28.979-13.506c0.953-0.437,2.062-0.483,3.061-0.133c0.992,0.367,1.804,1.109,2.249,2.069
				l13.506,28.995c0.453,0.96,0.499,2.061,0.132,3.061c-0.367,0.991-1.108,1.803-2.069,2.248l-28.995,13.498
				C170.57,417.332,169.993,417.457,169.415,417.457z M161.233,386.408l10.118,21.743l21.75-10.126l-10.133-21.742L161.233,386.408z
				"/>
		</g>
	</g>
	<g>
		<g>
			<g>
				<path d="M152.552,381.225c-1.515,0-2.951-0.851-3.63-2.311l-20.243-43.485c-0.937-1.998-0.062-4.38,1.936-5.309
					c2.015-0.929,4.388-0.062,5.309,1.937l20.244,43.484c0.929,2.007,0.07,4.38-1.937,5.309
					C153.684,381.107,153.114,381.225,152.552,381.225z"/>
			</g>
		</g>
		<g>
			<g>
				<path d="M167.042,374.479c-1.265,0-2.521-0.608-3.295-1.733l-27.496-40.111c-1.249-1.827-0.78-4.311,1.031-5.559
					c1.827-1.242,4.31-0.781,5.559,1.038l27.496,40.112c1.25,1.818,0.781,4.309-1.031,5.559
					C168.611,374.253,167.822,374.479,167.042,374.479z"/>
			</g>
		</g>
		<g>
			<g>
				<path d="M127.491,329.933c-6.191,0-11.882-3.63-14.498-9.251c-1.804-3.864-1.991-8.205-0.523-12.218
					c1.452-4.013,4.395-7.214,8.268-9.018c7.76-3.614,17.636,0,21.243,7.737c1.804,3.872,1.991,8.213,0.531,12.226
					c-1.468,4.013-4.403,7.222-8.275,9.017C132.105,329.426,129.833,329.933,127.491,329.933z M127.483,305.942
					c-1.163,0-2.303,0.249-3.365,0.749c-1.944,0.906-3.412,2.506-4.138,4.513c-0.734,2.007-0.64,4.169,0.258,6.104
					c1.803,3.873,6.714,5.707,10.625,3.873c1.937-0.898,3.404-2.498,4.138-4.505c0.734-2.015,0.641-4.185-0.266-6.121
					C133.424,307.753,130.583,305.942,127.483,305.942z"/>
			</g>
		</g>
	</g>
	<g>
		<g>
			<g>
				<path d="M193.039,468.188c-1.499,0-2.951-0.852-3.622-2.312l-20.251-43.485c-0.937-1.998-0.062-4.379,1.936-5.309
					c2.014-0.929,4.388-0.062,5.309,1.937l20.251,43.485c0.937,1.998,0.062,4.379-1.936,5.309
					C194.179,468.07,193.601,468.188,193.039,468.188z"/>
			</g>
		</g>
		<g>
			<g>
				<path d="M200.284,464.814c-1.749,0-3.357-1.155-3.856-2.928l-12.991-46.865c-0.593-2.123,0.656-4.333,2.779-4.918
					c2.139-0.578,4.333,0.655,4.918,2.779l13.006,46.865c0.586,2.131-0.655,4.332-2.787,4.926
					C200.994,464.768,200.635,464.814,200.284,464.814z"/>
			</g>
		</g>
		<g>
			<g>
				<path d="M205.101,496.62c-6.191,0-11.882-3.63-14.498-9.235c-1.804-3.881-1.991-8.229-0.531-12.234
					c1.468-4.021,4.403-7.221,8.276-9.017c7.784-3.63,17.659,0.016,21.25,7.752c1.796,3.856,1.983,8.198,0.516,12.21
					c-1.452,4.014-4.396,7.222-8.268,9.018C209.714,496.112,207.451,496.62,205.101,496.62z M205.093,472.629
					c-1.171,0-2.303,0.258-3.373,0.758c-1.937,0.897-3.404,2.49-4.138,4.496c-0.734,2.007-0.64,4.186,0.266,6.121
					c1.795,3.856,6.698,5.691,10.617,3.864c1.944-0.897,3.412-2.498,4.138-4.505c0.734-2.006,0.64-4.176-0.258-6.104
					C211.042,474.448,208.2,472.629,205.093,472.629z"/>
			</g>
		</g>
	</g>
	<g>
		<g>
			<path d="M182.468,398.15c-0.453,0-0.921-0.078-1.374-0.242l-10.618-3.88c-2.077-0.757-3.138-3.053-2.381-5.121
				c0.758-2.085,3.053-3.131,5.129-2.39l10.618,3.881c2.076,0.757,3.138,3.053,2.381,5.129
				C185.63,397.151,184.1,398.15,182.468,398.15z"/>
		</g>
	</g>
	<g>
		<g>
			<path d="M175.223,401.531c-0.453,0-0.921-0.078-1.366-0.242c-2.077-0.75-3.146-3.045-2.389-5.121l3.872-10.634
				c0.757-2.068,3.053-3.138,5.121-2.389c2.077,0.757,3.146,3.053,2.389,5.121l-3.873,10.634
				C178.393,400.523,176.855,401.531,175.223,401.531z"/>
		</g>
	</g>
	<g>
		<g>
			<path d="M95.592,512c-15.559,0-34.242-4.567-52.486-20.283c-1.678-1.436-1.866-3.966-0.421-5.637
				c1.444-1.678,3.966-1.857,5.637-0.421c22.851,19.689,46.412,20.024,62.151,16.832c26.739-5.411,52.244-25.506,64.985-51.19
				c0.983-1.976,3.388-2.787,5.355-1.804c1.983,0.976,2.795,3.372,1.812,5.355c-13.803,27.816-41.502,49.598-70.575,55.477
				C107.177,511.32,101.619,512,95.592,512z"/>
		</g>
	</g>
	<g>
		<g>
			<path d="M24.97,467.078c-1.499,0-2.951-0.851-3.623-2.311c-2.795-5.988-0.188-13.139,5.809-15.934
				c1.991-0.93,4.38-0.062,5.309,1.936c0.937,1.998,0.062,4.38-1.936,5.309c-0.968,0.453-1.702,1.257-2.069,2.256
				c-0.367,1.008-0.32,2.093,0.133,3.061c0.937,1.999,0.062,4.38-1.936,5.309C26.11,466.961,25.532,467.078,24.97,467.078z"/>
		</g>
	</g>
	<g>
		<g>
			<path d="M205.67,400.578c-1.546,0-3.014-0.897-3.669-2.404c-0.875-2.021,0.055-4.38,2.076-5.254
				C477.463,274.27,499.604,6.747,499.807,4.058c0.156-2.202,1.951-3.861,4.264-3.701c2.201,0.156,3.863,2.069,3.699,4.27
				c-0.188,2.736-22.727,275.068-300.506,395.623C206.748,400.477,206.202,400.578,205.67,400.578z"/>
		</g>
	</g>
	<g>
		<g>
			<g>
				<path d="M215.992,378.328c-1.491,0-2.928-0.843-3.607-2.279c-0.952-1.998-0.102-4.38,1.89-5.324
					c175.08-83.137,237.224-230.814,258.685-311.44c0.57-2.14,2.787-3.369,4.895-2.838c2.131,0.57,3.404,2.76,2.834,4.891
					c-21.82,81.966-84.994,232.091-262.979,316.609C217.147,378.203,216.569,378.328,215.992,378.328z"/>
			</g>
		</g>
	</g>
	<g>
		<g>
			<path d="M192.18,371.591c-1.335,0-2.639-0.671-3.404-1.897c-1.155-1.873-0.577-4.34,1.304-5.496
				c1.976-1.225,197.932-124.15,203.225-278.58c0.047-1.163,0.584-2.249,1.49-2.979s2.084-1.03,3.225-0.816
				c0.234,0.035,24.592,3.705,58.365-28.578c40.768-38.969,43.352-48.938,43.438-49.344c-0.133-2.202,1.523-3.755,3.732-3.896
				c2.225-0.125,4.082,1.881,4.223,4.083c0.422,6.647-16.293,26.672-45.865,54.934c-28.699,27.426-51.48,30.885-60.801,30.955
				C392.43,246.753,196.279,369.764,194.28,370.998C193.632,371.404,192.898,371.591,192.18,371.591z"/>
		</g>
	</g>
</g>
</svg>
