<?xml version="1.0" encoding="utf-8"?>
<!-- Generator: Adobe Illustrator 16.0.0, SVG Export Plug-In . SVG Version: 6.00 Build 0)  -->
<!DOCTYPE svg PUBLIC "-//W3C//DTD SVG 1.1//EN" "http://www.w3.org/Graphics/SVG/1.1/DTD/svg11.dtd">
<svg version="1.1" xmlns="http://www.w3.org/2000/svg" xmlns:xlink="http://www.w3.org/1999/xlink" x="0px" y="0px" width="64px"
	 height="64px" viewBox="0 0 64 64" enable-background="new 0 0 64 64" xml:space="preserve">
<g id="_x32_5_purse_x2C__money_x2C__coin_x2C__banknote_x2C__payment_x2C__shop_x2C__shopping">
</g>
<g id="_x32_4_pay_x2C__click_x2C__hand_x2C__coin_x2C__money_x2C__shop_x2C__payment">
</g>
<g id="_x32_3_card_x2C__discount_x2C__sale_x2C__shop_x2C__shopping_x2C__commerce_x2C__market">
</g>
<g id="_x32_2_safe_x2C__box_x2C__key_x2C__thing_x2C__shop_x2C__shopping_x2C__commerce">
</g>
<g id="_x32_1_cashbox_x2C__money_x2C__purchase_x2C__list_x2C__check_x2C__shop_x2C__shopping">
</g>
<g id="_x32_0_search_x2C__magnifier_x2C__basket_x2C__shop_x2C__shopping_x2C__commerce_x2C__market">
</g>
<g id="_x31_9_return_x2C__box_x2C__purchase_x2C__shipping_x2C__delivery_x2C__shop_x2C__shopping">
</g>
<g id="_x31_8_review_x2C__client_x2C__buyer_x2C__talk_x2C__shop_x2C__shopping_x2C__commerce">
</g>
<g id="_x31_7_manager_x2C__consultant_x2C__shop_x2C__shopping_x2C__commerce_x2C__market_x2C__badge">
</g>
<g id="_x31_6_check_x2C__list_x2C__cashbox_x2C__purchase_x2C__shop_x2C__shopping_x2C__commerce">
</g>
<g id="_x31_5_coupon_x2C__sale_x2C__discount_x2C__shop_x2C__shopping_x2C__commerce_x2C__market">
</g>
<g id="_x31_4_sale_x2C__discount_x2C__box_x2C__gift_x2C__shop_x2C__shopping_x2C__commerce">
</g>
<g id="_x31_3_map_x2C__pin_x2C__marker_x2C__location_x2C__shop_x2C__shopping_x2C__basket">
</g>
<g id="_x31_2_operator_x2C__call_x2C__center_x2C__shop_x2C__shopping_x2C__commerce_x2C__market">
</g>
<g id="_x31_1_courier_x2C__box_x2C__shipping_x2C__purchase_x2C__shop_x2C__shopping_x2C__commerce">
</g>
<g id="_x31_0_box_x2C__shipping_x2C__delivery_x2C__purchase_x2C__shop_x2C__shopping_x2C__commerce">
	<g>
		<rect x="4.5" y="20.998" fill="#E6E9ED" width="11" height="6"/>
		<polygon fill="#FFD2A6" points="10.5,3.998 0.5,13.998 21.5,13.998 23.5,13.998 33.5,3.998 		"/>
		<path fill="#FFD2A6" d="M41.5,3.998l-9,9l-1,1v5l-1,1l-1-1l-1,1l-1-1l-1,1l-1-1l-1,1l-1-1v-5h-2h-21v43h2h49h2v-43l10-10H41.5z
			 M15.5,26.998h-11v-6h11V26.998z"/>
		<polygon fill="#F6BB42" points="53.5,56.998 53.5,59.998 0.5,59.998 0.5,56.998 2.5,56.998 51.5,56.998 		"/>
		<polygon fill="#F6BB42" points="53.5,13.998 53.5,16.998 0.5,16.998 0.5,13.998 2.5,13.998 51.5,13.998 		"/>
		<polygon fill="#F7C292" points="63.5,3.998 63.5,49.998 53.5,59.998 53.5,56.998 53.5,13.998 		"/>
		<polygon fill="#EDAB37" points="53.5,13.998 53.5,17.002 63.5,7.002 63.5,3.998 		"/>
		<polygon fill="#EDAB37" points="53.5,56.998 53.5,60.002 63.5,50.002 63.5,46.998 		"/>
		<path fill="#656D78" d="M50,50.998c0.275,0,0.5,0.225,0.5,0.5v2c0,0.275-0.225,0.5-0.5,0.5h-2c-0.275,0-0.5-0.225-0.5-0.5v-2
			c0-0.275,0.225-0.5,0.5-0.5H50z"/>
		<path fill="#656D78" d="M46.001,50.998c0.275,0,0.5,0.225,0.5,0.5v2c0,0.275-0.225,0.5-0.5,0.5h-2c-0.275,0-0.5-0.225-0.5-0.5v-2
			c0-0.275,0.225-0.5,0.5-0.5H46.001z"/>
		<polygon fill="#DA4453" points="37,3.998 41.5,3.998 32.5,12.998 31.5,13.998 31.5,18.998 30.5,19.998 29.5,18.998 28.5,19.998 
			27.5,18.998 26.5,19.998 25.5,18.998 24.5,19.998 23.5,18.998 23.5,13.998 33.5,3.998 		"/>
		<polygon fill="#ED5565" points="24.5,19.998 25.5,18.998 26.5,19.998 27.5,18.998 28.5,19.998 29.5,18.998 30.5,19.998 
			31.5,18.998 31.5,13.998 23.5,13.998 23.5,18.998 		"/>
		<g>
			<path fill="#E2AD81" d="M29,40.498c-0.128,0-0.256-0.049-0.354-0.146l-4-4c-0.195-0.195-0.195-0.512,0-0.707s0.512-0.195,0.707,0
				l4,4c0.195,0.195,0.195,0.512,0,0.707C29.256,40.449,29.128,40.498,29,40.498z"/>
		</g>
		<g>
			<path fill="#E2AD81" d="M25,36.498c-0.128,0-0.256-0.049-0.354-0.146c-0.195-0.195-0.195-0.512,0-0.707l9.999-10
				c0.195-0.195,0.513-0.193,0.708,0c0.195,0.195,0.195,0.512,0.001,0.707l-10.001,10C25.256,36.449,25.128,36.498,25,36.498z"/>
		</g>
		<g>
			<path fill="#E2AD81" d="M20,49.498c-0.128,0-0.257-0.049-0.354-0.146c-0.194-0.195-0.194-0.512,0.002-0.707l8.999-9
				c0.195-0.195,0.512-0.195,0.707,0s0.195,0.512,0,0.707l-9.001,9.002C20.255,49.449,20.128,49.498,20,49.498z"/>
		</g>
		<g>
			<path fill="#E2AD81" d="M58.5,45.498c-0.276,0-0.5-0.223-0.5-0.5v-28c0-0.275,0.224-0.5,0.5-0.5s0.5,0.225,0.5,0.5v28
				C59,45.275,58.776,45.498,58.5,45.498z"/>
		</g>
		<g>
			<path fill="#CCD1D9" d="M13.5,23.498h-7c-0.276,0-0.5-0.223-0.5-0.5c0-0.275,0.224-0.5,0.5-0.5h7c0.276,0,0.5,0.225,0.5,0.5
				C14,23.275,13.776,23.498,13.5,23.498z"/>
		</g>
		<g>
			<path fill="#CCD1D9" d="M10.5,25.498h-4c-0.276,0-0.5-0.223-0.5-0.5c0-0.275,0.224-0.5,0.5-0.5h4c0.276,0,0.5,0.225,0.5,0.5
				C11,25.275,10.776,25.498,10.5,25.498z"/>
		</g>
		<g>
			<path fill="#E2AD81" d="M27,47.498c-5.238,0-9.5-4.262-9.5-9.5s4.262-9.5,9.5-9.5s9.5,4.262,9.5,9.5S32.238,47.498,27,47.498z
				 M27,29.498c-4.687,0-8.5,3.814-8.5,8.5c0,4.688,3.813,8.5,8.5,8.5s8.5-3.813,8.5-8.5C35.5,33.313,31.687,29.498,27,29.498z"/>
		</g>
	</g>
</g>
<g id="_x39__shipping_x2C__delivery_x2C__box_x2C__crane_x2C__shop_x2C__shopping_x2C__commerce">
</g>
<g id="_x38__computer_x2C__monitor_x2C__desktop_x2C__shop_x2C__shopping_x2C__commerce_x2C__market">
</g>
<g id="_x37__mobile_x2C__phone_x2C__app_x2C__shop_x2C__shopping_x2C__commerce_x2C__market">
</g>
<g id="_x36__food_x2C__market_x2C__purchase_x2C__shop_x2C__shopping_x2C__commerce_x2C__basket">
</g>
<g id="_x35__discount_x2C__sale_x2C__purchase_x2C__pocket_x2C__shop_x2C__shopping_x2C__commerce">
</g>
<g id="_x34__badge_x2C__discount_x2C__sale_x2C__shop_x2C__shopping_x2C__commerce_x2C__market">
</g>
<g id="_x33__food_x2C__pocket_x2C__purchase_x2C__shop_x2C__shopping_x2C__commerce_x2C__supermarket">
</g>
<g id="_x32__shop_x2C__shopping_x2C__commerce_x2C__supermarket_x2C__market_x2C__cart">
</g>
<g id="_x31__list_x2C__check_x2C__notebook_x2C__pen_x2C__shop_x2C__shopping_x2C__commerce">
</g>
</svg>
