<svg xmlns="http://www.w3.org/2000/svg" viewBox="0 0 64 64"><g id="_10-Answer" data-name="10-Answer"><path d="M19,16v7a3,3,0,0,0-3-3,2.772,2.772,0,0,0-1,.18V5a4,4,0,0,1,4-4H59a4,4,0,0,1,4,4V43a4,4,0,0,1-4,4H50l-8,8V47H25s3,0,4-4V32s0-2-4-2V16a3,3,0,0,0-6,0ZM41,28.8A10,10,0,1,0,29,19h4a6,6,0,1,1,6,6H37v6h4ZM41,39V35H37v4Z" style="fill:#e4e4e4"/><rect x="41" y="35" width="3" height="4" style="fill:#cfcfcf"/><path d="M33,19h3a6,6,0,0,1,4.5-5.8A5.978,5.978,0,0,0,33,19Z" style="fill:#cfcfcf"/><path d="M42,9a10.029,10.029,0,0,0-1.5.125A9.994,9.994,0,0,1,41,28.8V31h3V28.8A10,10,0,0,0,42,9Z" style="fill:#cfcfcf"/><path d="M42,47h0v8l3-3V50A3,3,0,0,0,42,47Z" style="fill:#cfcfcf"/><path d="M18,5a4,4,0,0,1,4-4H19a4,4,0,0,0-4,4V20.18A2.772,2.772,0,0,1,16,20a3,3,0,0,1,3,3V20a2.772,2.772,0,0,0-1,.18Z" style="fill:#cfcfcf"/><path d="M32,43V32s0-2-4-2V16a3,3,0,0,0-3-3,2.961,2.961,0,0,0-1.5.416A2.984,2.984,0,0,1,25,16V30c4,0,4,2,4,2V43c-1,4-4,4-4,4h3S31,47,32,43Z" style="fill:#cfcfcf"/><rect x="37" y="35" width="4" height="4" style="fill:#fc9942"/><path d="M49,19a10.009,10.009,0,0,1-8,9.8V31H37V25h2a6,6,0,1,0-6-6H29a10,10,0,0,1,20,0Z" style="fill:#fc9942"/><rect x="1" y="53" width="26" height="10" rx="2" style="fill:#19cffc"/><path d="M25,60H3a2.006,2.006,0,0,1-2-2v3a2.006,2.006,0,0,0,2,2H25a2.006,2.006,0,0,0,2-2V58A2.006,2.006,0,0,1,25,60Z" style="fill:#1ea1e3"/><path d="M19,23V16a3,3,0,0,1,6,0V30c4,0,4,2,4,2V43c-1,4-4,4-4,4v6H3V49a6.194,6.194,0,0,1-2-4V26a3,3,0,0,1,6,0V24a3,3,0,0,1,6,0V23a2.993,2.993,0,0,1,.88-2.12,2.838,2.838,0,0,1,1.12-.7A2.772,2.772,0,0,1,16,20,3,3,0,0,1,19,23Z" style="fill:#ffcdbe"/><rect x="22" y="57" width="2" height="2" style="fill:#6e6e6e"/><rect x="58" y="26" width="2" height="14" style="fill:#c1c1c1"/><rect x="58" y="42" width="2" height="2" style="fill:#c1c1c1"/><path d="M10.5,21.5h17a3,3,0,0,1,3,3v0a0,0,0,0,1,0,0h-20a0,0,0,0,1,0,0v-3A0,0,0,0,1,10.5,21.5Z" transform="translate(-2.5 43.5) rotate(-90)" style="fill:#faa68e"/><path d="M2.5,25.5h9a3,3,0,0,1,3,3v0a0,0,0,0,1,0,0H2.5a0,0,0,0,1,0,0v-3A0,0,0,0,1,2.5,25.5Z" transform="translate(-18.5 35.5) rotate(-90)" style="fill:#faa68e"/><path d="M8,25H18a3,3,0,0,1,3,3v0a0,0,0,0,1,0,0H8a0,0,0,0,1,0,0V25A0,0,0,0,1,8,25Z" transform="translate(-12 41) rotate(-90)" style="fill:#faa68e"/><path d="M4,30V45a6.194,6.194,0,0,0,2,4v4H3V49a6.194,6.194,0,0,1-2-4V26a3,3,0,0,1,3-3v7Z" style="fill:#faa68e"/><path d="M25,30V47s3,0,4-4V32S29,30,25,30Z" style="fill:#faa68e"/><path d="M30,32c0-.114-.056-2.59-4-2.952V16a4,4,0,0,0-8,0v3.556a3.937,3.937,0,0,0-5.425,1.409,3.956,3.956,0,0,0-6.336,1.722A4,4,0,0,0,0,26V45a7.057,7.057,0,0,0,2,4.4v2.784A3,3,0,0,0,0,55v6a3,3,0,0,0,3,3H25a3,3,0,0,0,3-3V55a3,3,0,0,0-2-2.816V47.839c1.206-.336,3.165-1.377,3.97-4.6A1,1,0,0,0,30,43ZM26,61a1,1,0,0,1-1,1H3a1,1,0,0,1-1-1V55a1,1,0,0,1,1-1H25a1,1,0,0,1,1,1Zm2-18.127c-.794,2.978-2.786,3.121-3,3.127a1,1,0,0,0-1,1v5H4V49a1,1,0,0,0-.293-.707A5.261,5.261,0,0,1,2,45V26a2,2,0,0,1,4,0v7H8V24a2,2,0,0,1,4,0v9h2V23a2,2,0,0,1,4,0V33h2V16a2,2,0,0,1,4,0V38h2V31.059c1.462.168,1.961.684,2,.941Z"/><rect x="22" y="57" width="2" height="2"/><path d="M59,0H19a5.006,5.006,0,0,0-5,5V18h2V5a3,3,0,0,1,3-3H59a3,3,0,0,1,3,3V43a3,3,0,0,1-3,3H50a1,1,0,0,0-.707.293L43,52.586V47a1,1,0,0,0-1-1H30v2H41v7a1,1,0,0,0,1.707.707L50.414,48H59a5.006,5.006,0,0,0,5-5V5A5.006,5.006,0,0,0,59,0Z"/><path d="M42,29.585A11,11,0,1,0,28,19a1,1,0,0,0,1,1h4a1,1,0,0,0,1-1,5,5,0,1,1,5,5H37a1,1,0,0,0-1,1v6a1,1,0,0,0,1,1h4a1,1,0,0,0,1-1Zm-1.2-1.766a1,1,0,0,0-.8.98V30H38V26h1a7,7,0,1,0-6.929-8H30.056A9,9,0,1,1,40.8,27.819Z"/><path d="M41,34H37a1,1,0,0,0-1,1v4a1,1,0,0,0,1,1h4a1,1,0,0,0,1-1V35A1,1,0,0,0,41,34Zm-1,4H38V36h2Z"/><rect x="58" y="26" width="2" height="14"/><rect x="58" y="42" width="2" height="2"/></g></svg>