<svg xmlns="http://www.w3.org/2000/svg" viewBox="0 0 64 64"><title>10-Development</title><g id="_10-Development" data-name="10-Development"><g id="_Group_" data-name="&lt;Group&gt;"><path d="M61,51H3a3,3,0,0,1-3-3V4A3,3,0,0,1,3,1H61a3,3,0,0,1,3,3V48A3,3,0,0,1,61,51ZM3,3A1,1,0,0,0,2,4V48a1,1,0,0,0,1,1H61a1,1,0,0,0,1-1V4a1,1,0,0,0-1-1Z"/><path d="M45,63H19a1,1,0,0,1-1-1V59a1,1,0,0,1,.126-.486l5-9,1.748.972L20,59.259V61H44V59.259l-4.874-8.773,1.748-.972,5,9A1,1,0,0,1,46,59v3A1,1,0,0,1,45,63Z"/><rect x="19" y="58" width="26" height="2"/><rect x="16" y="61" width="3" height="2"/><rect x="45" y="61" width="3" height="2"/><rect x="1" y="41" width="62" height="2"/><path d="M22,39a1,1,0,0,1-.447-.1l-2-1a1,1,0,0,1-.544-.762l-.491-3.661a11.8,11.8,0,0,1-2.169-.894l-2.933,2.237a1,1,0,0,1-.924.153l-2.119-.71a1,1,0,0,1-.631-.631l-.71-2.12a1,1,0,0,1,.154-.924l2.237-2.932a11.751,11.751,0,0,1-.895-2.168l-3.661-.492a1,1,0,0,1-.762-.544l-1-2a1,1,0,0,1,0-.894l1-2a1,1,0,0,1,.762-.544l3.661-.492a11.751,11.751,0,0,1,.895-2.168L9.186,13.417a1,1,0,0,1-.154-.924l.71-2.12a1,1,0,0,1,.631-.631l2.119-.71a1,1,0,0,1,.924.153l2.933,2.237a11.8,11.8,0,0,1,2.169-.894l.491-3.661a1,1,0,0,1,.544-.762l2-1a1,1,0,0,1,.894,0l2,1a1,1,0,0,1,.544.762l.491,3.661a11.8,11.8,0,0,1,2.169.894l2.933-2.237a1,1,0,0,1,.924-.153l2.119.71a1,1,0,0,1,.631.631l.71,2.12a1,1,0,0,1-.154.924l-2.237,2.932a11.751,11.751,0,0,1,.9,2.168l3.661.492a1,1,0,0,1,.762.544l1,2a1,1,0,0,1,0,.894l-1,2a1,1,0,0,1-.762.544l-3.661.492a11.751,11.751,0,0,1-.9,2.168l2.237,2.932a1,1,0,0,1,.154.924l-.71,2.12a1,1,0,0,1-.631.631l-2.119.71a1,1,0,0,1-.924-.153l-2.933-2.237a11.8,11.8,0,0,1-2.169.894l-.491,3.661a1,1,0,0,1-.544.762l-2,1A1,1,0,0,1,22,39Zm-1.079-2.658,1.079.54,1.079-.54.51-3.8a1,1,0,0,1,.759-.839,9.828,9.828,0,0,0,2.859-1.18,1,1,0,0,1,1.13.057L31.376,32.9l1.144-.383.383-1.145-2.318-3.039a1,1,0,0,1-.057-1.129,9.8,9.8,0,0,0,1.179-2.859,1,1,0,0,1,.84-.759l3.8-.51L36.882,22l-.539-1.079-3.8-.51a1,1,0,0,1-.84-.759,9.8,9.8,0,0,0-1.179-2.859,1,1,0,0,1,.057-1.129L32.9,12.625,32.52,11.48,31.376,11.1l-3.039,2.318a1,1,0,0,1-1.13.057,9.828,9.828,0,0,0-2.859-1.18,1,1,0,0,1-.759-.839l-.51-3.795L22,7.118l-1.079.54-.51,3.795a1,1,0,0,1-.759.839,9.828,9.828,0,0,0-2.859,1.18,1,1,0,0,1-1.13-.057L12.624,11.1l-1.144.383L11.1,12.625l2.318,3.039a1,1,0,0,1,.057,1.129,9.8,9.8,0,0,0-1.179,2.859,1,1,0,0,1-.84.759l-3.8.51L7.118,22l.539,1.079,3.8.51a1,1,0,0,1,.84.759,9.8,9.8,0,0,0,1.179,2.859,1,1,0,0,1-.057,1.129L11.1,31.375l.383,1.145,1.144.383,3.039-2.318a1,1,0,0,1,1.13-.057,9.828,9.828,0,0,0,2.859,1.18,1,1,0,0,1,.759.839Z"/><path d="M22,29a7,7,0,1,1,7-7A7.008,7.008,0,0,1,22,29Zm0-12a5,5,0,1,0,5,5A5.006,5.006,0,0,0,22,17Z"/><path d="M56,29H54V27h.865a5.865,5.865,0,0,1,.877-3.977A2.715,2.715,0,0,1,57,22.155V22h2v1a1,1,0,0,1-1,1,.812.812,0,0,0-.71.291c-.61.742-.472,2.688-.31,3.514A1,1,0,0,1,56,29Z"/><path d="M59,22H57v-.155a2.715,2.715,0,0,1-1.258-.868A5.865,5.865,0,0,1,54.865,17H54V15h2a1,1,0,0,1,.98,1.2c-.162.826-.3,2.772.31,3.514A.812.812,0,0,0,58,20a1,1,0,0,1,1,1Z"/><rect x="46" y="21" width="2" height="2"/><rect x="51" y="21" width="2" height="2"/><rect x="41" y="21" width="2" height="2"/></g></g></svg>