<svg xmlns="http://www.w3.org/2000/svg" viewBox="0 0 90 90"><title>10-Error</title><g id="_10-Error" data-name="10-Error"><g id="_Group_" data-name="&lt;Group&gt;"><path d="M73.341,12.662a43,43,0,0,0-56.682,0l-1.318-1.5a45,45,0,0,1,59.318,0Z"/><path d="M45,90A45,45,0,0,1,8.183,19.124l1.634,1.152a43,43,0,1,0,70.5,49.253,43.009,43.009,0,0,0,.069-48.96l1.644-1.138A45,45,0,0,1,45,90Z"/><path d="M82,70H80V14a1,1,0,0,0-1-1H11a1,1,0,0,0-1,1V70H8V14a3,3,0,0,1,3-3H79a3,3,0,0,1,3,3Z"/><path d="M15,21a3,3,0,1,1,3-3A3,3,0,0,1,15,21Zm0-4a1,1,0,1,0,1,1A1,1,0,0,0,15,17Z"/><path d="M23,21a3,3,0,1,1,3-3A3,3,0,0,1,23,21Zm0-4a1,1,0,1,0,1,1A1,1,0,0,0,23,17Z"/><rect x="72" y="15" width="5" height="2"/><rect x="72" y="19" width="5" height="2"/><rect x="9" y="23" width="72" height="2"/><rect x="67" y="12" width="2" height="12"/><path d="M34,59H16a1,1,0,0,1-.926-1.378l9-22,1.852.756L17.489,57H34Z"/><rect x="28" y="40" width="2" height="28"/><path d="M75,59H57a1,1,0,0,1-.926-1.378l9-22,1.852.756L58.489,57H75Z"/><rect x="69" y="40" width="2" height="28"/><path d="M45,68a8.009,8.009,0,0,1-8-8V44a8,8,0,0,1,16,0V60A8.009,8.009,0,0,1,45,68Zm0-30a6.006,6.006,0,0,0-6,6V60a6,6,0,0,0,12,0V44A6.006,6.006,0,0,0,45,38Z"/></g></g></svg>