<svg xmlns="http://www.w3.org/2000/svg" xmlns:xlink="http://www.w3.org/1999/xlink" viewBox="0 0 64 64"><defs><linearGradient id="linear-gradient" x1="32" y1="1.304" x2="32" y2="63.304" gradientUnits="userSpaceOnUse"><stop offset="0" stop-color="#ffe100"/><stop offset="1" stop-color="#f98900"/></linearGradient><linearGradient id="linear-gradient-2" x1="31.811" y1="53.622" x2="32.111" y2="27.297" gradientUnits="userSpaceOnUse"><stop offset="0" stop-color="#69101b"/><stop offset="0.134" stop-color="#5c0e18"/><stop offset="0.368" stop-color="#4c0c13"/><stop offset="0.634" stop-color="#430a11"/><stop offset="1" stop-color="#400a10"/></linearGradient><linearGradient id="linear-gradient-3" x1="12" y1="37.76" x2="52" y2="37.76" gradientUnits="userSpaceOnUse"><stop offset="0" stop-color="#b8b4b2"/><stop offset="0.143" stop-color="#d0ccc9"/><stop offset="0.374" stop-color="#f2edea"/><stop offset="0.5" stop-color="#fffaf6"/><stop offset="0.638" stop-color="#f9f5f1"/><stop offset="0.825" stop-color="#e8e5e3"/><stop offset="1" stop-color="#d1d1d1"/></linearGradient><linearGradient id="linear-gradient-4" x1="-22.901" y1="27.977" x2="-10.826" y2="40.239" gradientTransform="matrix(-1, 0, 0, 1, -8, 0)" gradientUnits="userSpaceOnUse"><stop offset="0.005" stop-color="#72e9ff"/><stop offset="0.402" stop-color="#53cdff"/><stop offset="1" stop-color="#29a6ff"/></linearGradient><linearGradient id="linear-gradient-5" x1="-21.459" y1="29.481" x2="-15.091" y2="35.949" gradientTransform="matrix(-1, 0, 0, 1, -8, 0)" gradientUnits="userSpaceOnUse"><stop offset="0" stop-color="#ccedff"/><stop offset="0.142" stop-color="#c1e9ff"/><stop offset="0.394" stop-color="#a3dfff"/><stop offset="0.724" stop-color="#73cfff"/><stop offset="1" stop-color="#45bfff"/></linearGradient><linearGradient id="linear-gradient-6" x1="-68.901" y1="27.977" x2="-56.826" y2="40.239" gradientTransform="translate(118)" xlink:href="#linear-gradient-4"/><linearGradient id="linear-gradient-7" x1="-67.459" y1="29.481" x2="-61.091" y2="35.949" gradientTransform="translate(118)" xlink:href="#linear-gradient-5"/></defs><g id="_10-Face_with_Tears_of_Joy" data-name="10-Face with Tears of Joy"><path d="M32,63C4.3,63,.962,39,1,33V31C.962,25,4.3,1,32,1h0C59.7,1,63.038,25,63,31v2C63.038,39,59.7,63,32,63Z" style="fill:url(#linear-gradient)"/><path d="M32,47.76a7.781,7.781,0,0,1,7.53,4.709A21.133,21.133,0,0,1,32,53.759a21.133,21.133,0,0,1-7.53-1.29A7.781,7.781,0,0,1,32,47.76Z" style="fill:#8f030e"/><path d="M51.709,37c-.88,4.55-4.01,12.4-12.179,15.469A7.781,7.781,0,0,0,32,47.76a7.781,7.781,0,0,0-7.53,4.709C16.3,49.4,13.171,41.55,12.291,37A43.23,43.23,0,0,0,32,41.76,43.23,43.23,0,0,0,51.709,37Z" style="fill:url(#linear-gradient-2)"/><path d="M50.9,33.77A.978.978,0,0,1,52,34.81a15.95,15.95,0,0,1-.28,2.19h-.01A43.23,43.23,0,0,1,32,41.76,43.23,43.23,0,0,1,12.291,37h-.01A15.95,15.95,0,0,1,12,34.81a.978.978,0,0,1,1.1-1.04A134.586,134.586,0,0,0,32,35.6,134.586,134.586,0,0,0,50.9,33.77Z" style="fill:url(#linear-gradient-3)"/><path d="M2.773,31.668a6.052,6.052,0,0,0,8.559,8.559C13.7,37.864,15,28,15,28S5.136,29.305,2.773,31.668Z" style="fill:url(#linear-gradient-4)"/><path d="M7.06,30.821a3.62,3.62,0,0,0,5.119,5.119c.816-.816,1.421-3.125,1.787-4.933a1.673,1.673,0,0,0-1.973-1.973C10.185,29.4,7.876,30.005,7.06,30.821Z" style="fill:url(#linear-gradient-5)"/><path d="M61.227,31.668a6.052,6.052,0,0,1-8.559,8.559C50.305,37.864,49,28,49,28S58.864,29.305,61.227,31.668Z" style="fill:url(#linear-gradient-6)"/><path d="M56.94,30.821a3.62,3.62,0,0,1-5.119,5.119c-.816-.816-1.421-3.125-1.787-4.933a1.673,1.673,0,0,1,1.973-1.973C53.815,29.4,56.124,30.005,56.94,30.821Z" style="fill:url(#linear-gradient-7)"/><path d="M55.045,10c.592.649,1.141,1.318,1.651,2" style="fill:none;stroke:#1d1d1b;stroke-linejoin:round;stroke-width:2px"/><path d="M1.084,29C1.747,20.918,6.765,1,32,1c9.68,0,16.385,2.931,21.011,7" style="fill:none;stroke:#1d1d1b;stroke-linejoin:round;stroke-width:2px"/><path d="M58.061,14a34.708,34.708,0,0,1,4.855,15" style="fill:none;stroke:#1d1d1b;stroke-linejoin:round;stroke-width:2px"/><path d="M61.227,31.668a6.052,6.052,0,0,1-8.559,8.559C50.305,37.864,49,28,49,28S58.864,29.305,61.227,31.668Z" style="fill:none;stroke:#1d1d1b;stroke-linejoin:round;stroke-width:2px"/><path d="M2.773,31.668a6.052,6.052,0,0,0,8.559,8.559C13.7,37.864,15,28,15,28S5.136,29.305,2.773,31.668Z" style="fill:none;stroke:#1d1d1b;stroke-linejoin:round;stroke-width:2px"/><path d="M15,38.5A42.738,42.738,0,0,0,32,42a42.738,42.738,0,0,0,17-3.5" style="fill:none;stroke:#1d1d1b;stroke-linejoin:round;stroke-width:2px"/><path d="M24.47,52.71A7.78,7.78,0,0,1,32,48a7.78,7.78,0,0,1,7.53,4.71" style="fill:none;stroke:#1d1d1b;stroke-linejoin:round;stroke-width:2px"/><path d="M50,18S39,21,38,28a32.549,32.549,0,0,1,13-3" style="fill:none;stroke:#1d1d1b;stroke-linejoin:round;stroke-width:2px"/><path d="M14,18s11,3,12,10a32.549,32.549,0,0,0-13-3" style="fill:none;stroke:#1d1d1b;stroke-linejoin:round;stroke-width:2px"/><path d="M48,34.456a122.415,122.415,0,0,1-16,1.387,122.415,122.415,0,0,1-16-1.387" style="fill:none;stroke:#1d1d1b;stroke-linejoin:round;stroke-width:2px"/><path d="M13.357,41c2.178,5.8,7.4,13,18.643,13s16.465-7.2,18.643-13" style="fill:none;stroke:#1d1d1b;stroke-linejoin:round;stroke-width:2px"/><path d="M61.283,43C58.357,51.974,50.774,63,32,63S5.643,51.974,2.717,43" style="fill:none;stroke:#1d1d1b;stroke-linejoin:round;stroke-width:2px"/></g></svg>