<svg xmlns="http://www.w3.org/2000/svg" viewBox="0 0 64 64"><g id="_10-Fishing_worm" data-name="10-Fishing worm"><path d="M32.69,49.21a4.465,4.465,0,0,1,3.28,3.5,12.551,12.551,0,0,0-2.1,1.99,4.977,4.977,0,0,0-4.42-2.68A30.532,30.532,0,0,0,32.69,49.21Z" style="fill:#b8896f"/><path d="M34.92,34.13a43.013,43.013,0,0,1,2.84,4.07A9.08,9.08,0,0,1,32,40c-.48-.84-.96-1.56-1.33-2.09-.44-.62-.82-1.27-1.2-1.92C30.7,35.93,34,35.64,34.92,34.13Z" style="fill:#b8896f"/><path d="M35.88,22a24.038,24.038,0,0,0-2.9,2.99c-3.37-.85-3.89-3.11-3.96-3.79a12.155,12.155,0,0,0,2.12-1.88A5.084,5.084,0,0,0,35.88,22Z" style="fill:#b8896f"/><path d="M33.58,59.69A2.459,2.459,0,0,1,31.2,63h-.21a2.569,2.569,0,0,1-1.91-.82A8.473,8.473,0,0,1,27,56.33c0-1.9,1.11-3.16,2.45-4.31a4.977,4.977,0,0,1,4.42,2.68A3.643,3.643,0,0,0,33,57,5.994,5.994,0,0,0,33.58,59.69Z" style="fill:#f6ddc9"/><path d="M40,46v1c0,2.62-2.12,4.18-4.03,5.71a4.465,4.465,0,0,0-3.28-3.5A4.72,4.72,0,0,0,34,46a13.165,13.165,0,0,0-2-6,9.08,9.08,0,0,0,5.76-1.8C38.97,40.17,40,42.34,40,44Z" style="fill:#f6ddc9"/><path d="M34,33s.36.42.92,1.13c-.92,1.51-4.22,1.8-5.45,1.86-.04-.07-.08-.13-.12-.2-.73-1.28-1.37-2.13-1.83-2.94a11.04,11.04,0,0,1-.9-1.98l-.07-.23A10.439,10.439,0,0,1,26,27.27V26c0-2.39,1.51-3.64,3.02-4.8.07.68.59,2.94,3.96,3.79A5.018,5.018,0,0,0,32,28,10.772,10.772,0,0,0,34,33Z" style="fill:#f6ddc9"/><path d="M35.92,11.82A8.473,8.473,0,0,1,38,17.67,5.885,5.885,0,0,1,35.88,22a5.084,5.084,0,0,1-4.74-2.68A3.536,3.536,0,0,0,32,17a5.994,5.994,0,0,0-.58-2.69A2.459,2.459,0,0,1,33.8,11h.21A2.569,2.569,0,0,1,35.92,11.82Z" style="fill:#f6ddc9"/><path d="M32.45,52.02c.692-.59,1.436-1.148,2.126-1.74a5.545,5.545,0,0,0-1.886-1.07,30.532,30.532,0,0,1-3.24,2.81,5.7,5.7,0,0,1,2.33.61C32,52.418,32.222,52.215,32.45,52.02Z" style="fill:#a17259"/><path d="M33.67,37.91c-.44-.62-.82-1.27-1.2-1.92-.04-.07-.08-.13-.12-.2s-.068-.112-.1-.173a15.776,15.776,0,0,1-2.777.373c.38.65.76,1.3,1.2,1.92.37.53.85,1.25,1.33,2.09a10.652,10.652,0,0,0,2.786-.362C34.38,38.955,33.985,38.361,33.67,37.91Z" style="fill:#a17259"/><path d="M32.02,21.2c.14-.107.278-.214.416-.321a4.71,4.71,0,0,1-1.3-1.559,12.155,12.155,0,0,1-2.12,1.88,3.87,3.87,0,0,0,.882,2A10.26,10.26,0,0,1,32.02,21.2Z" style="fill:#a17259"/><path d="M31.485,59.478A3.084,3.084,0,0,1,30,57.206a4.713,4.713,0,0,1,.224-2.279,5.882,5.882,0,0,1,1.557-2.3,5.7,5.7,0,0,0-2.33-.61C28.11,53.17,27,54.43,27,56.33a8.473,8.473,0,0,0,2.08,5.85,2.569,2.569,0,0,0,1.91.82h.21a2.459,2.459,0,0,0,2.383-3.3,4.406,4.406,0,0,1-.537.047A3.787,3.787,0,0,1,31.485,59.478Z" style="fill:#efc1aa"/><path d="M35.69,49.21A4.72,4.72,0,0,0,37,46a13.165,13.165,0,0,0-2-6c-.072-.126-.143-.243-.214-.362A10.652,10.652,0,0,1,32,40a13.165,13.165,0,0,1,2,6,4.72,4.72,0,0,1-1.31,3.21,5.545,5.545,0,0,1,1.886,1.07A10.884,10.884,0,0,0,35.69,49.21Z" style="fill:#efc1aa"/><path d="M30.52,32.85a11.04,11.04,0,0,1-.9-1.98l-.07-.23A10.439,10.439,0,0,1,29,27.27V26a4.58,4.58,0,0,1,.9-2.8,3.87,3.87,0,0,1-.882-2C27.51,22.36,26,23.61,26,26v1.27a10.439,10.439,0,0,0,.55,3.37l.07.23a11.04,11.04,0,0,0,.9,1.98c.46.81,1.1,1.66,1.83,2.94.04.07.08.13.12.2a15.776,15.776,0,0,0,2.777-.373C31.561,34.439,30.958,33.62,30.52,32.85Z" style="fill:#efc1aa"/><path d="M32.436,20.879a9.861,9.861,0,0,0,1.7-1.559A3.536,3.536,0,0,0,35,17a5.994,5.994,0,0,0-.58-2.69,2.41,2.41,0,0,1,.993-2.9A2.627,2.627,0,0,0,34.01,11H33.8a2.459,2.459,0,0,0-2.38,3.31A5.994,5.994,0,0,1,32,17a3.536,3.536,0,0,1-.86,2.32A4.71,4.71,0,0,0,32.436,20.879Z" style="fill:#efc1aa"/><polygon points="28 3 29 3 29 1 25 1 25 3 26 3 27 3 28 3" style="fill:#6293b1"/><rect x="25" y="2" width="4" height="1" style="fill:#5787b7"/><rect x="20" y="43" width="2" height="2"/><rect x="20" y="47" width="2" height="2"/><rect x="42" y="1" width="2" height="2"/><rect x="42" y="5" width="2" height="2"/><path d="M33,28c0-1.945,1.242-3.1,2.681-4.434C37.236,22.122,39,20.484,39,17.667a9.4,9.4,0,0,0-2.341-6.519A3.584,3.584,0,0,0,34.005,10H33.8a3.676,3.676,0,0,0-1.1.166l.6,1.908A1.687,1.687,0,0,1,33.8,12h.205a1.581,1.581,0,0,1,1.176.495A7.434,7.434,0,0,1,37,17.667a4.62,4.62,0,0,1-1.505,3.288,4.175,4.175,0,0,1-3.157-1.6A4.406,4.406,0,0,0,33,17H31c0,1.351-.917,2.123-2.413,3.271-.482.369-1,.773-1.483,1.229A3.987,3.987,0,0,1,25,18V16H23v2a6,6,0,0,0,2.8,5.068A5.537,5.537,0,0,0,25,26v1.27a11.63,11.63,0,0,0,.6,3.689l.075.224a12.079,12.079,0,0,0,.976,2.166c.214.373.463.755.743,1.182.326.5.694,1.063,1.09,1.755.378.661.837,1.439,1.37,2.2C30.8,39.833,33,43.266,33,46a3.506,3.506,0,0,1-.679,2.053c-.028-.007-.051-.016-.079-.023l-.05.2a13.271,13.271,0,0,1-2.315,2.153c-.254.2-.511.409-.768.621-.037,0-.071-.005-.109-.005v.1c-1.543,1.289-3,2.828-3,5.234a9.4,9.4,0,0,0,2.341,6.519A3.584,3.584,0,0,0,31,64h.2A3.546,3.546,0,0,0,34.126,62.5a3.432,3.432,0,0,0,.387-3.157l-.115-.3A4.525,4.525,0,0,1,34,57c0-1.433,1.342-2.507,2.9-3.75C38.82,51.71,41,49.965,41,47V44c0-4.247-5.6-10.906-6.194-11.592A9.913,9.913,0,0,1,33,28Zm-4.613,4.356a10.07,10.07,0,0,1-.817-1.807l-.075-.223A9.678,9.678,0,0,1,27,27.27V26a3.611,3.611,0,0,1,.677-2.152A5.947,5.947,0,0,0,31.4,23.5l-.8-1.833a3.94,3.94,0,0,1-.885.26l.09-.07c.4-.3.8-.621,1.194-.964a5.807,5.807,0,0,0,2.715,1.777C32.34,23.986,31,25.545,31,28a11.68,11.68,0,0,0,2.241,5.651c.1.119.214.253.335.4a8.942,8.942,0,0,1-3.562.9c-.339-.571-.662-1.076-.948-1.514C28.812,33.047,28.582,32.7,28.387,32.356Zm2.784,4.49a8.742,8.742,0,0,0,3.642-1.214c.513.689,1.063,1.47,1.592,2.285a8.638,8.638,0,0,1-3.852,1.051c-.377-.625-.747-1.182-1.064-1.634C31.376,37.173,31.277,37.009,31.171,36.846Zm1.766,13.542a3.491,3.491,0,0,1,1.919,1.944q-.449.372-.864.765A5.789,5.789,0,0,0,31.7,51.484C32.124,51.14,32.542,50.776,32.937,50.388Zm-.455,10.967A1.527,1.527,0,0,1,31.2,62H31a1.581,1.581,0,0,1-1.176-.495A7.434,7.434,0,0,1,28,56.333a4.355,4.355,0,0,1,1.778-3.264,4.082,4.082,0,0,1,2.9,1.591A4.4,4.4,0,0,0,32,57a6.434,6.434,0,0,0,.531,2.755l.109.285A1.408,1.408,0,0,1,32.482,61.355ZM39,47c0,1.685-1.155,2.875-2.548,4.032a5.413,5.413,0,0,0-2.229-2.23A5.35,5.35,0,0,0,35,46a12.228,12.228,0,0,0-1.4-5.106,10.2,10.2,0,0,0,3.84-1.275A10.209,10.209,0,0,1,39,44Z"/><path d="M25,4h1V7.36a5.849,5.849,0,0,0,4.226,5.6,3.827,3.827,0,0,1,2.741,3.171l1.982-.265a5.822,5.822,0,0,0-4.175-4.828A3.843,3.843,0,0,1,28,7.36V4h1a1,1,0,0,0,1-1V1H28V2H26V1H24V3A1,1,0,0,0,25,4Z"/></g></svg>