<svg xmlns="http://www.w3.org/2000/svg" viewBox="0 0 64 64"><g id="_10-Moisturizer" data-name="10-Moisturizer"><path d="M37,37.4V41a7.943,7.943,0,0,1-7-4l-3,3V37.4A4.662,4.662,0,0,1,31.88,33h.24A4.662,4.662,0,0,1,37,37.4Z" style="fill:#885655"/><polygon points="57 16 57 22 7 22 7 16 9 16 55 16 57 16" style="fill:#f0e5e4"/><path d="M59,56v3a4,4,0,0,1-4,4H9a4,4,0,0,1-4-4V56H59Z" style="fill:#edc9cb"/><path d="M57,22a2.006,2.006,0,0,1,2,2v6H5V24a2.006,2.006,0,0,1,2-2Z" style="fill:#f8eae9"/><path d="M32.12,30H5V56H59V30ZM37,41v1.5A4.768,4.768,0,0,1,32,47a5.273,5.273,0,0,1-3.54-1.32A4.279,4.279,0,0,1,27,42.5V37.4A4.662,4.662,0,0,1,31.88,33h.24A4.662,4.662,0,0,1,37,37.4Z" style="fill:#e6677d"/><path d="M37,42v.5A4.768,4.768,0,0,1,32,47a5.273,5.273,0,0,1-3.54-1.32A4.279,4.279,0,0,1,27,42.5V40l3-3a7.943,7.943,0,0,0,7,4Z" style="fill:#fadfcc"/><path d="M55,14v2H9V14a6,6,0,0,1,6-6h3.98S38.73,4.5,40,1c0,0,7,3.5,7,7h2A6,6,0,0,1,55,14Z" style="fill:#fadfcc"/><path d="M7,16h8v1a3,3,0,0,0,3,3H57v2H7Z" style="fill:#dbd1d0"/><rect x="47" y="16" width="5" height="4" style="fill:#fff"/><path d="M15,22H7a2.006,2.006,0,0,0-2,2v6H15Z" style="fill:#edc9cb"/><path d="M55,53H38A23,23,0,0,1,15,30H5V56H59V49A4,4,0,0,1,55,53Z" style="fill:#d45f73"/><rect x="49" y="30" width="4" height="23" style="fill:#ff728a"/><rect x="49" y="22" width="4" height="8" style="fill:#fff"/><path d="M40,1C38.73,4.5,18.98,8,18.98,8H47C47,4.5,40,1,40,1Z" style="fill:#faccc8"/><path d="M49,8H15a6,6,0,0,0-6,6v2H55V14A6,6,0,0,0,49,8Z" style="fill:#fadbd8"/><path d="M51,13H19.5a2.5,2.5,0,0,1,0-5H15a6,6,0,0,0-6,6v2H55V14a5.955,5.955,0,0,0-.681-2.767A4,4,0,0,1,51,13Z" style="fill:#faccc8"/><rect x="45" y="9" width="4" height="2" rx="1" style="fill:#fff3f2"/><rect x="38" y="9" width="6" height="2" rx="1" style="fill:#fff3f2"/><path d="M47,8c0-1.492-1.274-2.981-2.733-4.2C40.748,6.2,32.384,6.9,24.026,6.989,21.117,7.62,18.98,8,18.98,8Z" style="fill:#fabab4"/><path d="M57,60H20a5,5,0,0,1-4.9-4H5v3a4,4,0,0,0,4,4H55a4,4,0,0,0,4-4V58A2,2,0,0,1,57,60Z" style="fill:#d6b6b7"/><path d="M58,21.184V16a1,1,0,0,0-1-1H56V14a7.008,7.008,0,0,0-7-7H47.863C46.9,3.429,41.155.459,40.447.105A1,1,0,0,0,39.06.659C38.4,2.479,28.1,5.362,18.892,7H15a7.008,7.008,0,0,0-7,7v1H7a1,1,0,0,0-1,1v5.184A3,3,0,0,0,4,24V59a5.006,5.006,0,0,0,5,5H55a5.006,5.006,0,0,0,5-5V24A3,3,0,0,0,58,21.184ZM10,14a5.006,5.006,0,0,1,5-5h3.979a1.017,1.017,0,0,0,.175-.015c4.36-.773,17.828-3.388,21.14-6.7C42.757,3.656,46,6.1,46,8a1,1,0,0,0,1,1h2a5.006,5.006,0,0,1,5,5v1H10ZM7,23h3V21H8V17H56v4H16v2H57a1,1,0,0,1,1,1v5H6V24A1,1,0,0,1,7,23ZM55,62H9a3,3,0,0,1-3-3V57H54V55H6V31H58V55H56v2h2v2A3,3,0,0,1,55,62Z"/><rect x="12" y="21" width="2" height="2"/><path d="M32,48a5.772,5.772,0,0,0,6-5.5V37.4A5.662,5.662,0,0,0,32.116,32h-.232A5.662,5.662,0,0,0,26,37.4v5.1A5.772,5.772,0,0,0,32,48Zm4-5.5A3.779,3.779,0,0,1,32,46a3.779,3.779,0,0,1-4-3.5V40.414l1.846-1.846A8.845,8.845,0,0,0,36,41.951V42.5ZM31.884,34h.232A3.668,3.668,0,0,1,36,37.4V39.93A6.887,6.887,0,0,1,30.9,36.553a1,1,0,0,0-1.6-.26L28,37.586V37.4A3.668,3.668,0,0,1,31.884,34Z"/><rect x="25" y="49" width="14" height="2"/><rect x="28" y="52" width="8" height="2"/></g></svg>