<svg xmlns="http://www.w3.org/2000/svg" viewBox="0 0 64 64"><title>10-Therapy</title><g id="_10-Therapy" data-name="10-Therapy"><path d="M45,35V59H19V35c2,0,2,2,4,2s2-2,4-2a2.171,2.171,0,0,1,.59.07v.01L21.75,53.06l3.81,1.24L30,40.64V55h4V35.21A2.278,2.278,0,0,1,35,35c2,0,2,2,4,2s2-2,4-2Z" style="fill:#b674f2"/><rect x="30" y="55" width="4" height="4" style="fill:#8f4cd6"/><polygon points="22.925 53.442 21.75 57.06 25.56 58.3 30 44.64 30 40.64 25.56 54.3 22.925 53.442" style="fill:#8f4cd6"/><path d="M43,35c-2,0-2,2-4,2s-2-2-4-2a2.278,2.278,0,0,0-1,.21v4A2.278,2.278,0,0,1,35,39c2,0,2,2,4,2s2-2,4-2h2V35Z" style="fill:#8f4cd6"/><path d="M26.281,39.11l1.309-4.03v-.01A2.171,2.171,0,0,0,27,35c-2,0-2,2-4,2s-2-2-4-2v4c2,0,2,2,4,2C24.724,41,24.968,39.52,26.281,39.11Z" style="fill:#8f4cd6"/><path d="M49,34V63H15V34c0-5,4-9,4-13h4c0,4-4,8-4,12V59H45V33c0-4-4-8-4-12h4C45,25,49,29,49,34Z" style="fill:#e9edf5"/><polygon points="46 17 46 21 45 21 41 21 36.38 21 34 21 30 21 23 21 19 21 18 21 18 17 30 17 33.47 17 34 17 37.68 17 46 17" style="fill:#9196aa"/><path d="M45,33v2H43c-2,0-2,2-4,2s-2-2-4-2a2.278,2.278,0,0,0-1,.21V28.33L36.38,21H41C41,25,45,29,45,33Z" style="fill:#cdd2e1"/><polygon points="42.25 2.94 37.68 17 34 17 34 15.36 38.44 1.7 42.25 2.94" style="fill:#ff73a5"/><polygon points="40.249 2.289 38.44 1.7 34 15.36 34 17 36 17 36 15.36 40.249 2.289" style="fill:#cf6799"/><polygon points="36.38 21 34 28.33 34 21 36.38 21" style="fill:#cf6799"/><path d="M34,35.21V55H30V36.79A2.278,2.278,0,0,0,31,37a1.148,1.148,0,0,0,.19-.01C32.62,36.9,32.96,35.71,34,35.21Z" style="fill:#d2a0f5"/><path d="M34,28.33v6.88c-1.04.5-1.38,1.69-2.81,1.78A1.148,1.148,0,0,1,31,37a2.278,2.278,0,0,1-1-.21V21h4Z" style="fill:#8f4cd6"/><polygon points="34 1 34 17 34 17 30 17 30 1 34 1" style="fill:#b674f2"/><polygon points="34 1 34 17 34 17 32 17 32 1 34 1" style="fill:#8f4cd6"/><path d="M30,36.79v3.85L25.56,54.3l-3.81-1.24,5.84-17.98C28.7,35.33,29.07,36.34,30,36.79Z" style="fill:#ff8fb8"/><path d="M30,27.67v9.12c-.93-.45-1.3-1.46-2.41-1.71v-.01Z" style="fill:#cf6799"/><path d="M30,21v6.67l-2.41,7.4A2.171,2.171,0,0,0,27,35c-2,0-2,2-4,2s-2-2-4-2V33c0-4,4-8,4-12Z" style="fill:#cdd2e1"/><path d="M47.737,26.344A18.151,18.151,0,0,1,46.1,21.98.99.99,0,0,0,47,21V17a1,1,0,0,0-1-1H39.056L43.2,3.249a1,1,0,0,0-.641-1.26L38.75.75a1,1,0,0,0-1.261.641L35,9.049V1a1,1,0,0,0-1-1H30a1,1,0,0,0-1,1V16H18a1,1,0,0,0-1,1v4a.99.99,0,0,0,.9.98,18.151,18.151,0,0,1-1.64,4.364C15.2,28.59,14,31.137,14,34V63a1,1,0,0,0,1,1H49a1,1,0,0,0,1-1V34C50,31.137,48.8,28.59,47.737,26.344ZM39.082,2.96l1.908.622L36.953,16H35v-.481ZM31,2h2V15.2l-.258.8H31ZM19,18H45v2H19Zm10,4v5.51l-2.116,6.5a3.6,3.6,0,0,0-2.591,1.285c-.49.49-.731.707-1.293.707s-.8-.217-1.293-.707A4.047,4.047,0,0,0,20,34.146V33c0-1.764.92-3.6,1.895-5.553A18.039,18.039,0,0,0,23.925,22Zm4,6.33v6.332a6.669,6.669,0,0,0-.707.63c-.451.452-.689.67-1.166.7-.032,0-.095,0-.127.008V22h2Zm-4,6.331c-.058-.043-.123-.081-.186-.121L29,33.969Zm-.843,1.91.15.146a6.625,6.625,0,0,0,.693.62v3.144L24.918,53.04l-1.908-.622ZM31,40.64V38a1.443,1.443,0,0,0,.254-.012A3.163,3.163,0,0,0,33,37.343V54H31ZM20,36.425c.091.083.184.173.293.282a3.48,3.48,0,0,0,5.414,0,5.673,5.673,0,0,1,.43-.394L20.8,52.751a1,1,0,0,0,.641,1.26l3.81,1.239a.967.967,0,0,0,.31.05,1,1,0,0,0,.951-.691L29,46.951V55a1,1,0,0,0,1,1h4a1,1,0,0,0,1-1V36c.562,0,.8.217,1.293.707a3.48,3.48,0,0,0,5.414,0c.49-.49.73-.707,1.293-.707h1V58H20ZM44,34H43a3.564,3.564,0,0,0-2.707,1.293c-.49.49-.731.707-1.293.707s-.8-.217-1.293-.707A3.564,3.564,0,0,0,35,34V28.488L37.107,22h2.968a18.039,18.039,0,0,0,2.03,5.447C43.08,29.4,44,31.236,44,33ZM35,22.012V22h0ZM48,62H16V34c0-2.415,1.053-4.646,2.071-6.8A18.2,18.2,0,0,0,19.925,22H21.9a17.619,17.619,0,0,1-1.795,4.553C19.07,28.623,18,30.764,18,33V59a1,1,0,0,0,1,1H45a1,1,0,0,0,1-1V33c0-2.236-1.07-4.377-2.1-6.447A17.619,17.619,0,0,1,42.1,22h1.975a18.2,18.2,0,0,0,1.854,5.2C46.947,29.354,48,31.585,48,34Z"/></g></svg>