<svg xmlns="http://www.w3.org/2000/svg" viewBox="0 0 64 64"><title>100-Bug. Fix</title><g id="_100-Bug._Fix" data-name="100-Bug. Fix"><g id="_Group_" data-name="&lt;Group&gt;"><path d="M61,51H3a3,3,0,0,1-3-3V4A3,3,0,0,1,3,1H61a3,3,0,0,1,3,3V48A3,3,0,0,1,61,51ZM3,3A1,1,0,0,0,2,4V48a1,1,0,0,0,1,1H61a1,1,0,0,0,1-1V4a1,1,0,0,0-1-1Z"/><path d="M45,63H19a1,1,0,0,1-1-1V59a.991.991,0,0,1,.126-.485l5-9,1.748.97L20,59.259V61H44V59.259l-4.874-8.774,1.748-.97,5,9A.991.991,0,0,1,46,59v3A1,1,0,0,1,45,63Z"/><rect x="19" y="58" width="26" height="2"/><rect x="16" y="61" width="3" height="2"/><rect x="45" y="61" width="3" height="2"/><rect x="1" y="41" width="62" height="2"/></g><path d="M8,37V35c3.149,0,4-3.114,4.031-3.247l1.939.489A6.256,6.256,0,0,1,8,37Z"/><path d="M33.97,37A6.255,6.255,0,0,1,28,32.242l1.938-.489c.036.133.882,3.247,4.032,3.247Z"/><path d="M29.938,18.247,28,17.758A6.255,6.255,0,0,1,33.97,13v2C30.82,15,29.974,18.114,29.938,18.247Z"/><path d="M12.031,18.247C12,18.114,11.149,15,8,15V13a6.256,6.256,0,0,1,5.97,4.758Z"/><path d="M37.553,25.9l-1.934-.967c-2.1-.674-2.718.508-2.724.519l-1.79-.894c.481-.96,2.188-2.51,5.211-1.5a.876.876,0,0,1,.131.053l2,1Z"/><path d="M4.447,25.9l-.894-1.79,2-1a.876.876,0,0,1,.131-.053c3.025-1.007,4.731.542,5.211,1.5l-1.78.913c-.068-.125-.725-1.18-2.734-.538Z"/><g id="_Group_2" data-name="&lt;Group&gt;"><path d="M21,39a6.408,6.408,0,0,1-3.543-1.272c-4.278-2.872-8.171-9.949-8.335-10.249A1,1,0,0,1,9,27c0-6.3,2.338-10.869,6.583-12.874A12.614,12.614,0,0,1,21,13a12.614,12.614,0,0,1,5.417,1.126C30.662,16.131,33,20.7,33,27a1,1,0,0,1-.122.479c-.164.3-4.056,7.375-8.338,10.25A6.406,6.406,0,0,1,21,39ZM11,26.741c.684,1.2,4.093,6.993,7.574,9.329A4.51,4.51,0,0,0,21,37a4.493,4.493,0,0,0,2.418-.927l.006,0c3.486-2.34,6.89-8.126,7.574-9.329-.038-3.213-.83-8.632-5.435-10.806A10.618,10.618,0,0,0,21,15a10.618,10.618,0,0,0-4.563.935C11.832,18.109,11.04,23.527,11,26.741Z"/><path d="M21,15a4,4,0,1,1,4-4A4,4,0,0,1,21,15Zm0-6a2,2,0,1,0,2,2A2,2,0,0,0,21,9Z"/><path d="M23.019,37.192l-.02-.1L21,25.088l-2.019,12.1-1.962-.384.019-.1,2.976-17.872a1,1,0,0,1,1.972,0l3,17.972Z"/><path d="M21,20a6.209,6.209,0,0,1-5.951-4.691A1.13,1.13,0,0,1,15,15h1l.913-.4a1.055,1.055,0,0,1,.064.173A4.312,4.312,0,0,0,21,18a4.312,4.312,0,0,0,4.023-3.226,1.055,1.055,0,0,1,.064-.173l.84.4H27l-.065.28.022.006A6.21,6.21,0,0,1,21,20Z"/></g><path d="M18.684,9.948c-.139-.046-3.407-1.157-4.579-3.5l1.79-.894c.667,1.337,2.7,2.257,3.421,2.5Z"/><path d="M23.316,9.948l-.633-1.9c.726-.245,2.759-1.172,3.422-2.5l1.79.894C26.723,8.791,23.455,9.9,23.316,9.948Z"/><path d="M43,39a1,1,0,0,1-.447-.1l-2-1a1,1,0,0,1-.544-.763l-.488-3.657a11.894,11.894,0,0,1-2.776-1.247l1.045-1.706a9.911,9.911,0,0,0,2.869,1.19,1,1,0,0,1,.757.841l.505,3.79L43,36.882l1.079-.539.505-3.79a1,1,0,0,1,.757-.841,9.911,9.911,0,0,0,2.869-1.19,1,1,0,0,1,1.13.059L52.379,32.9l1.143-.382.382-1.143L51.581,28.34a1,1,0,0,1-.059-1.13,9.911,9.911,0,0,0,1.19-2.869,1,1,0,0,1,.841-.757l3.79-.5L57.882,22l-.539-1.079-3.79-.5a1,1,0,0,1-.841-.757,9.911,9.911,0,0,0-1.19-2.869,1,1,0,0,1,.059-1.13L53.9,12.621l-.382-1.143L52.379,11.1,49.34,13.419a1,1,0,0,1-1.13.059,9.911,9.911,0,0,0-2.869-1.19,1,1,0,0,1-.757-.841l-.505-3.79L43,7.118l-1.079.539-.505,3.79a1,1,0,0,1-.757.841,9.911,9.911,0,0,0-2.869,1.19,1,1,0,0,1-1.13-.059L33.621,11.1,32,11.635l-.633-1.9,2.121-.707a.985.985,0,0,1,.924.155l2.932,2.241a11.867,11.867,0,0,1,2.174-.9l.488-3.657a1,1,0,0,1,.544-.763l2-1a1,1,0,0,1,.894,0l2,1a1,1,0,0,1,.544.763l.488,3.657a11.867,11.867,0,0,1,2.174.9l2.932-2.241a.984.984,0,0,1,.924-.155l2.121.707a.994.994,0,0,1,.632.632l.707,2.121a1,1,0,0,1-.155.924l-2.241,2.932a11.867,11.867,0,0,1,.9,2.174l3.657.488a1,1,0,0,1,.763.544l1,2a1,1,0,0,1,0,.894l-1,2a1,1,0,0,1-.763.544l-3.657.488a11.867,11.867,0,0,1-.9,2.174l2.241,2.932a1,1,0,0,1,.155.924l-.707,2.121a.994.994,0,0,1-.632.632l-2.121.707a1,1,0,0,1-.924-.155l-2.932-2.241a11.867,11.867,0,0,1-2.174.9l-.488,3.657a1,1,0,0,1-.544.763l-2,1A1,1,0,0,1,43,39Z"/><path d="M43,29a6.964,6.964,0,0,1-3.871-1.167l1.107-1.666A5,5,0,1,0,38,22H36a7,7,0,1,1,7,7Z"/></g></svg>