<?xml version="1.0" encoding="utf-8"?>
<!-- Generator: Adobe Illustrator 16.0.0, SVG Export Plug-In . SVG Version: 6.00 Build 0)  -->
<!DOCTYPE svg PUBLIC "-//W3C//DTD SVG 1.1//EN" "http://www.w3.org/Graphics/SVG/1.1/DTD/svg11.dtd">
<svg version="1.1" xmlns="http://www.w3.org/2000/svg" xmlns:xlink="http://www.w3.org/1999/xlink" x="0px" y="0px" width="64px"
	 height="64px" viewBox="0 0 64 64" enable-background="new 0 0 64 64" xml:space="preserve">
<g id="_x32_5_purse_x2C__money_x2C__coin_x2C__banknote_x2C__payment_x2C__shop_x2C__shopping">
</g>
<g id="_x32_4_pay_x2C__click_x2C__hand_x2C__coin_x2C__money_x2C__shop_x2C__payment">
</g>
<g id="_x32_3_card_x2C__discount_x2C__sale_x2C__shop_x2C__shopping_x2C__commerce_x2C__market">
</g>
<g id="_x32_2_safe_x2C__box_x2C__key_x2C__thing_x2C__shop_x2C__shopping_x2C__commerce">
</g>
<g id="_x32_1_cashbox_x2C__money_x2C__purchase_x2C__list_x2C__check_x2C__shop_x2C__shopping">
</g>
<g id="_x32_0_search_x2C__magnifier_x2C__basket_x2C__shop_x2C__shopping_x2C__commerce_x2C__market">
</g>
<g id="_x31_9_return_x2C__box_x2C__purchase_x2C__shipping_x2C__delivery_x2C__shop_x2C__shopping">
</g>
<g id="_x31_8_review_x2C__client_x2C__buyer_x2C__talk_x2C__shop_x2C__shopping_x2C__commerce">
</g>
<g id="_x31_7_manager_x2C__consultant_x2C__shop_x2C__shopping_x2C__commerce_x2C__market_x2C__badge">
</g>
<g id="_x31_6_check_x2C__list_x2C__cashbox_x2C__purchase_x2C__shop_x2C__shopping_x2C__commerce">
</g>
<g id="_x31_5_coupon_x2C__sale_x2C__discount_x2C__shop_x2C__shopping_x2C__commerce_x2C__market">
</g>
<g id="_x31_4_sale_x2C__discount_x2C__box_x2C__gift_x2C__shop_x2C__shopping_x2C__commerce">
</g>
<g id="_x31_3_map_x2C__pin_x2C__marker_x2C__location_x2C__shop_x2C__shopping_x2C__basket">
</g>
<g id="_x31_2_operator_x2C__call_x2C__center_x2C__shop_x2C__shopping_x2C__commerce_x2C__market">
</g>
<g id="_x31_1_courier_x2C__box_x2C__shipping_x2C__purchase_x2C__shop_x2C__shopping_x2C__commerce">
	<g>
		<g>
			<path fill="#DA4453" d="M43.5,42.5v-1l-2.32-0.22C38.1,43.92,34.71,45.5,32,45.5s-6.1-1.58-9.18-4.22L20.5,41.5v1
				c-9.943,7.109-16.998,5-16.998,14c0,4,0,7,0,7H14.5v-1v-6l5-4h8h3H32h1.5h3h8l5,4v6v1h10.998c0,0,0-3,0-7
				C60.498,47.5,53.443,49.609,43.5,42.5z"/>
			<polygon fill="#ED5564" points="36.5,49.5 43.5,42.5 43.5,41.5 43.516,38.187 32,44.499 32,47.563 			"/>
			<polygon fill="#ED5564" points="27.5,49.5 20.5,42.5 20.5,41.5 20.484,38.187 32,44.499 32,47.563 			"/>
		</g>
		<path fill="#DA4453" d="M32,18.501c-7.029,0-14.141,1.24-17.5,2.55V18c0-9.67,7.83-17.5,17.5-17.5S49.5,8.33,49.5,18v3.051
			C46.141,19.741,39.029,18.501,32,18.501z"/>
		<path fill="#ED5564" d="M49.5,22.501h-35h-2c0-0.45,0.73-0.96,2-1.45c3.359-1.31,10.471-2.55,17.5-2.55s14.141,1.24,17.5,2.55
			c1.27,0.49,2,1,2,1.45H49.5z"/>
		<path fill="#F0C7B7" d="M14.5,22.5L14.5,22.5l35,0.001V22.5v2c0,6.8-3.82,12.93-8.32,16.78C38.1,43.92,34.71,45.5,32,45.5
			c-3.12,0-7.16-2.1-10.58-5.51c-3.859-3.86-6.92-9.41-6.92-15.49V22.5z"/>
		<polygon fill="#FFD2A6" points="14.5,56.5 19.5,52.5 30.5,52.5 29.5,56.5 34.5,56.5 33.5,52.5 36.5,52.5 44.5,52.5 49.5,56.5 
			49.5,62.5 49.5,63.5 14.5,63.5 14.5,62.5 		"/>
		<g>
			<polygon fill="#F7C292" points="14.5,56.5 29.5,56.5 30.5,52.5 19.5,52.5 			"/>
		</g>
		<g>
			<polygon fill="#F7C292" points="36.5,52.5 33.5,52.5 34.5,56.5 49.5,56.5 44.5,52.5 			"/>
		</g>
		<g>
			<g>
				<path fill="#FFCE54" d="M32,15c-0.637,0-1.26-0.132-1.852-0.392c-0.584-0.275-1.085-0.645-1.5-1.103
					C27.906,12.668,27.5,11.602,27.5,10.5C27.5,8.019,29.519,6,32,6c0.603,0,1.184,0.118,1.727,0.352
					C35.409,7.046,36.5,8.676,36.5,10.5c0,1.273-0.545,2.495-1.495,3.352C34.183,14.592,33.116,15,32,15z M32,7
					c-1.93,0-3.5,1.57-3.5,3.5c0,0.857,0.317,1.688,0.894,2.339c0.322,0.355,0.717,0.646,1.169,0.859
					c1.242,0.544,2.77,0.314,3.772-0.589c0.74-0.667,1.165-1.618,1.165-2.609c0-1.418-0.849-2.685-2.162-3.228
					C32.915,7.091,32.467,7,32,7z"/>
			</g>
			<g>
				<path fill="#FFCE54" d="M33,12c-0.128,0-0.256-0.049-0.354-0.146l-2-2c-0.195-0.195-0.195-0.512,0-0.707s0.512-0.195,0.707,0
					l2,2c0.195,0.195,0.195,0.512,0,0.707C33.256,11.951,33.128,12,33,12z"/>
			</g>
			<g>
				<path fill="#FFCE54" d="M29,16c-0.128,0-0.256-0.049-0.354-0.146c-0.195-0.195-0.195-0.512,0-0.707l4-4
					c0.195-0.195,0.512-0.195,0.707,0s0.195,0.512,0,0.707l-4,4C29.256,15.951,29.128,16,29,16z"/>
			</g>
			<g>
				<path fill="#FFCE54" d="M31,10c-0.123,0-0.246-0.045-0.343-0.136c-0.201-0.189-0.211-0.506-0.021-0.707l3.881-4.12
					c0.188-0.202,0.507-0.212,0.706-0.021c0.201,0.189,0.21,0.506,0.021,0.706l-3.879,4.12C31.266,9.947,31.133,10,31,10z"/>
			</g>
		</g>
		<g>
			<path fill="#F6BB42" d="M30.5,60c-0.276,0-0.5-0.224-0.5-0.5V59c0-0.276,0.224-0.5,0.5-0.5S31,58.724,31,59v0.5
				C31,59.776,30.776,60,30.5,60z"/>
		</g>
		<g>
			<path fill="#F6BB42" d="M32,60c-0.276,0-0.5-0.224-0.5-0.5V59c0-0.276,0.224-0.5,0.5-0.5s0.5,0.224,0.5,0.5v0.5
				C32.5,59.776,32.276,60,32,60z"/>
		</g>
		<g>
			<path fill="#F6BB42" d="M33.5,60c-0.276,0-0.5-0.224-0.5-0.5V59c0-0.276,0.224-0.5,0.5-0.5S34,58.724,34,59v0.5
				C34,59.776,33.776,60,33.5,60z"/>
		</g>
		<polygon fill="#F6BB42" points="34.5,56.5 29.5,56.5 30.5,52.5 33.5,52.5 		"/>
		<path fill="#FFCE54" d="M34,56.5h-4h-0.5V57v2c0,0.275,0.225,0.5,0.5,0.5h4c0.275,0,0.5-0.225,0.5-0.5v-2v-0.5H34z"/>
	</g>
</g>
<g id="_x31_0_box_x2C__shipping_x2C__delivery_x2C__purchase_x2C__shop_x2C__shopping_x2C__commerce">
</g>
<g id="_x39__shipping_x2C__delivery_x2C__box_x2C__crane_x2C__shop_x2C__shopping_x2C__commerce">
</g>
<g id="_x38__computer_x2C__monitor_x2C__desktop_x2C__shop_x2C__shopping_x2C__commerce_x2C__market">
</g>
<g id="_x37__mobile_x2C__phone_x2C__app_x2C__shop_x2C__shopping_x2C__commerce_x2C__market">
</g>
<g id="_x36__food_x2C__market_x2C__purchase_x2C__shop_x2C__shopping_x2C__commerce_x2C__basket">
</g>
<g id="_x35__discount_x2C__sale_x2C__purchase_x2C__pocket_x2C__shop_x2C__shopping_x2C__commerce">
</g>
<g id="_x34__badge_x2C__discount_x2C__sale_x2C__shop_x2C__shopping_x2C__commerce_x2C__market">
</g>
<g id="_x33__food_x2C__pocket_x2C__purchase_x2C__shop_x2C__shopping_x2C__commerce_x2C__supermarket">
</g>
<g id="_x32__shop_x2C__shopping_x2C__commerce_x2C__supermarket_x2C__market_x2C__cart">
</g>
<g id="_x31__list_x2C__check_x2C__notebook_x2C__pen_x2C__shop_x2C__shopping_x2C__commerce">
</g>
</svg>
