<svg xmlns="http://www.w3.org/2000/svg" viewBox="0 0 64 64"><title>11-Cobra</title><g id="_11-Cobra" data-name="11-Cobra"><path d="M11,31.5V34H8V31.5a1.5,1.5,0,0,1,3,0Z" style="fill:#8f4cd6"/><path d="M10,30.091A1.488,1.488,0,0,0,8,31.5V34H9V31.5A1.494,1.494,0,0,1,10,30.091Z" style="fill:#d2a0f5"/><path d="M17,16v6l-3-3a2.835,2.835,0,0,1-1.16-.24,5.026,5.026,0,0,0-1.3-2.3A4.691,4.691,0,0,0,11,16c0-1.66,1.34-2,3-2S17,14.34,17,16Z" style="fill:#7e8596"/><path d="M15.5,17.5a2.835,2.835,0,0,1-1.16-.24,5.026,5.026,0,0,0-1.3-2.3,4.691,4.691,0,0,0-.54-.46,2.385,2.385,0,0,1,.038-.354A1.746,1.746,0,0,0,11,16a4.691,4.691,0,0,1,.54.46,5.026,5.026,0,0,1,1.3,2.3A2.835,2.835,0,0,0,14,19l3,3V19Z" style="fill:#707789"/><path d="M8,34v1.5L5,33a17.834,17.834,0,0,1,1.62-6.19A5.225,5.225,0,0,0,8,27a4.971,4.971,0,0,0,3.49-1.42L22,38l-5,5-6-5V31.5a1.5,1.5,0,0,0-3,0Z" style="fill:#b674f2"/><path d="M11.49,25.58A4.971,4.971,0,0,1,8,27a5.225,5.225,0,0,1-1.38-.19c-.232.538-.542,1.309-.83,2.175.07,0,.138.015.21.015a4.971,4.971,0,0,0,3.49-1.42L20,40l2-2Z" style="fill:#8f4cd6"/><path d="M53,41v5H21c-4-2-4-3-4-3l5-5s1-1,4-1,2,1,5,3l7,1Z" style="fill:#7e8596"/><path d="M25.5,43.5h-2c-4-2-4-3-4-3L17,43s0,1,4,3H53V43.5Z" style="fill:#707789"/><polygon points="57 41 61 46 53 46 53 41 57 41" style="fill:#ffdecf"/><path d="M11,38v6a2.006,2.006,0,0,1-2,2H6l2-3V34h3Z" style="fill:#ffdecf"/><path d="M12.84,18.76A4.635,4.635,0,0,1,13,20v2a5,5,0,0,1-5,5,5.225,5.225,0,0,1-1.38-.19A5.009,5.009,0,0,1,3,22V20a5,5,0,0,1,5-5,4.941,4.941,0,0,1,3,1,4.691,4.691,0,0,1,.54.46A5.026,5.026,0,0,1,12.84,18.76Z" style="fill:#ffdecf"/><path d="M12.84,18.76a5.026,5.026,0,0,0-1.3-2.3A4.691,4.691,0,0,0,11,16a4.842,4.842,0,0,0-4.466-.756A4.9,4.9,0,0,1,8,16a4.691,4.691,0,0,1,.54.46,5.026,5.026,0,0,1,1.3,2.3A4.635,4.635,0,0,1,10,20v2a4.93,4.93,0,0,1-3.526,4.755c.05.016.1.041.146.055A5.225,5.225,0,0,0,8,27a5,5,0,0,0,5-5V20A4.635,4.635,0,0,0,12.84,18.76Z" style="fill:#ffcdbe"/><rect x="1" y="46" width="62" height="4" style="fill:#ff73a5"/><rect x="1" y="48" width="62" height="2" style="fill:#cf6799"/><path d="M31.132,36.5C27.479,30.1,20.3,30,20,30l0-2c.351,0,8.629.085,12.868,7.5Z" style="fill:#dce1eb"/><path d="M35.071,34.372C31.389,25.165,20.2,25.987,20.083,26L19.917,24c.128-.01,12.787-.937,17.012,9.625Z" style="fill:#dce1eb"/><path d="M63,45H61.481l-3.7-4.625A1,1,0,0,0,57,40H38.071l-6.7-.957a9.2,9.2,0,0,1-1.778-1.586C28.756,36.526,28.177,36,26,36a8.774,8.774,0,0,0-3.788.7L12.8,25.583A5.95,5.95,0,0,0,14,22V20.414l2.293,2.293A1,1,0,0,0,18,22V16c0-1.991-1.346-3-4-3-1.869,0-3.075.511-3.633,1.5A5.939,5.939,0,0,0,8,14a6.006,6.006,0,0,0-6,6v2a6.03,6.03,0,0,0,3.316,5.357A16.58,16.58,0,0,0,4,33a1,1,0,0,0,.359.768L7,35.969V42.7L5.465,45H1a1,1,0,0,0-1,1v4a1,1,0,0,0,1,1H63a1,1,0,0,0,1-1V46A1,1,0,0,0,63,45Zm-4.081,0H54V42h2.52ZM28.1,38.793a11.187,11.187,0,0,0,2.341,2.039,1,1,0,0,0,.413.158l7,1A.969.969,0,0,0,38,42H52v3H21.238a13.062,13.062,0,0,1-2.949-1.875l4.4-4.4c.027-.023.9-.729,3.315-.729C27.392,38,27.528,38.152,28.1,38.793ZM10,33H9V31.5a.5.5,0,0,1,1,0ZM8.832,43.555A1.006,1.006,0,0,0,9,43V35h1v9a1,1,0,0,1-1,1H7.868ZM12,44V40.135l4.168,3.474A4.276,4.276,0,0,0,17.422,45H11.816A2.966,2.966,0,0,0,12,44Zm2-29c2,0,2,.531,2,1v3.586l-1.293-1.293A1,1,0,0,0,14,18a1.981,1.981,0,0,1-.356-.032,6.075,6.075,0,0,0-1.4-2.215c-.062-.063-.126-.123-.19-.182C12.186,15.257,12.608,15,14,15ZM4,22V20a4,4,0,0,1,4-4,3.931,3.931,0,0,1,2.4.8v0l.01.012a3.446,3.446,0,0,1,.42.356A4.023,4.023,0,0,1,11.87,19c0,.008.009.014.011.022h-.005A3.651,3.651,0,0,1,12,20v2a3.984,3.984,0,0,1-1.209,2.865A4,4,0,0,1,4,22ZM6.017,32.545a16.57,16.57,0,0,1,1.215-4.6A6.044,6.044,0,0,0,8,28a5.952,5.952,0,0,0,3.354-1.033l9.289,10.976-3.705,3.7L12,37.531V31.5a2.5,2.5,0,0,0-5,0v1.865ZM62,49H2V47H62Z"/><path d="M20,28l0,2c.3,0,7.481.1,11.134,6.5l1.736-.992C28.629,28.085,20.351,28,20,28Z"/><path d="M35.071,34.372l1.858-.744C32.7,23.066,20.045,23.993,19.917,24L20.083,26C20.2,25.987,31.389,25.165,35.071,34.372Z"/></g></svg>