<svg xmlns="http://www.w3.org/2000/svg" viewBox="0 0 64 64"><title>11-Develop</title><g id="_11-Develop" data-name="11-Develop"><g id="_Group_" data-name="&lt;Group&gt;"><path d="M61,64H3a3,3,0,0,1-3-3V3A3,3,0,0,1,3,0H61a3,3,0,0,1,3,3V61A3,3,0,0,1,61,64ZM3,2A1,1,0,0,0,2,3V61a1,1,0,0,0,1,1H61a1,1,0,0,0,1-1V3a1,1,0,0,0-1-1Z"/><rect x="1" y="10" width="62" height="2"/></g><rect x="5" y="5" width="2" height="2"/><rect x="9" y="5" width="2" height="2"/><rect x="14" y="5" width="45" height="2"/><path d="M32,60a1,1,0,0,1-.447-.1l-2-1a1,1,0,0,1-.544-.763l-.488-3.657a11.954,11.954,0,0,1-2.174-.9l-2.932,2.242a1.008,1.008,0,0,1-.924.155l-2.121-.708a1,1,0,0,1-.632-.632l-.708-2.121a1,1,0,0,1,.155-.924l2.242-2.932a11.954,11.954,0,0,1-.9-2.174l-3.657-.488a1,1,0,0,1-.763-.544l-1-2a1,1,0,0,1,0-.894l1-2a1,1,0,0,1,.763-.544l3.657-.488a11.954,11.954,0,0,1,.9-2.174l-2.242-2.932a1,1,0,0,1-.155-.924l.708-2.121a1,1,0,0,1,.632-.632l2.121-.708a1,1,0,0,1,.924.155l2.932,2.242a11.954,11.954,0,0,1,2.174-.9l.488-3.657a1,1,0,0,1,.544-.763l2-1a1,1,0,0,1,.894,0l2,1a1,1,0,0,1,.544.763l.488,3.657a11.954,11.954,0,0,1,2.174.9l2.932-2.242a1,1,0,0,1,.924-.155l2.121.708a1,1,0,0,1,.632.632l.708,2.121a1,1,0,0,1-.155.924l-2.242,2.932a11.954,11.954,0,0,1,.9,2.174l3.657.488a1,1,0,0,1,.763.544l1,2a1,1,0,0,1,0,.894l-1,2a1,1,0,0,1-.763.544l-3.657.488a11.954,11.954,0,0,1-.9,2.174l2.242,2.932a1,1,0,0,1,.155.924l-.708,2.121a1,1,0,0,1-.632.632l-2.121.708a1.007,1.007,0,0,1-.924-.155l-2.932-2.242a11.954,11.954,0,0,1-2.174.9l-.488,3.657a1,1,0,0,1-.544.763l-2,1A1,1,0,0,1,32,60Zm-1.079-2.657L32,57.882l1.079-.539.505-3.791a1,1,0,0,1,.757-.84,9.934,9.934,0,0,0,2.869-1.19,1,1,0,0,1,1.13.059l3.039,2.324,1.144-.382.382-1.144L40.581,49.34a1,1,0,0,1-.059-1.13,9.934,9.934,0,0,0,1.19-2.869,1,1,0,0,1,.84-.757l3.791-.505L46.882,43l-.539-1.079-3.791-.505a1,1,0,0,1-.84-.757,9.934,9.934,0,0,0-1.19-2.869,1,1,0,0,1,.059-1.13l2.324-3.039-.382-1.144L41.379,32.1,38.34,34.419a1,1,0,0,1-1.13.059,9.934,9.934,0,0,0-2.869-1.19,1,1,0,0,1-.757-.84l-.505-3.791L32,28.118l-1.079.539-.5,3.791a1,1,0,0,1-.757.84,9.934,9.934,0,0,0-2.869,1.19,1,1,0,0,1-1.13-.059L22.621,32.1l-1.144.382L21.1,33.621l2.324,3.039a1,1,0,0,1,.059,1.13,9.934,9.934,0,0,0-1.19,2.869,1,1,0,0,1-.84.757l-3.791.505L17.118,43l.539,1.079,3.791.505a1,1,0,0,1,.84.757,9.934,9.934,0,0,0,1.19,2.869,1,1,0,0,1-.059,1.13L21.1,52.379l.382,1.144,1.144.382,3.039-2.324a1,1,0,0,1,1.13-.059,9.934,9.934,0,0,0,2.869,1.19,1,1,0,0,1,.757.84Z"/><path d="M32,50a7,7,0,1,1,7-7A7.008,7.008,0,0,1,32,50Zm0-12a5,5,0,1,0,5,5A5.006,5.006,0,0,0,32,38Z"/><path d="M43,28H41V16H23V28H21V15a1,1,0,0,1,1-1H42a1,1,0,0,1,1,1Z"/><rect x="22" y="22" width="20" height="2"/><rect x="25" y="18" width="2" height="2"/><rect x="29" y="18" width="2" height="2"/><path d="M59,37H47V35H58V19H42V17H59a1,1,0,0,1,1,1V36A1,1,0,0,1,59,37Z"/><rect x="42" y="25" width="17" height="2"/><rect x="46" y="21" width="2" height="2"/><path d="M17,37H5a1,1,0,0,1-1-1V18a1,1,0,0,1,1-1H22v2H6V35H17Z"/><rect x="5" y="25" width="17" height="2"/><rect x="8" y="21" width="2" height="2"/><rect x="12" y="21" width="2" height="2"/><path d="M55,56H53V54h.865a5.871,5.871,0,0,1,.877-3.977A2.715,2.715,0,0,1,56,49.155V49h2v1a1,1,0,0,1-1,1,.81.81,0,0,0-.71.291c-.611.742-.472,2.688-.309,3.514A1,1,0,0,1,55,56Z"/><path d="M58,49H56v-.155a2.715,2.715,0,0,1-1.258-.868A5.871,5.871,0,0,1,53.865,44H53V42h2a1,1,0,0,1,.981,1.2c-.163.826-.3,2.772.309,3.514A.81.81,0,0,0,57,47a1,1,0,0,1,1,1Z"/><path d="M8,49H6V48a1,1,0,0,1,1-1,.81.81,0,0,0,.71-.291c.611-.742.472-2.688.309-3.514A1,1,0,0,1,9,42h2v2h-.865a5.871,5.871,0,0,1-.877,3.977A2.715,2.715,0,0,1,8,48.845Z"/><path d="M11,56H9a1,1,0,0,1-.981-1.2c.163-.826.3-2.772-.309-3.514A.81.81,0,0,0,7,51a1,1,0,0,1-1-1V49H8v.155a2.715,2.715,0,0,1,1.258.868A5.871,5.871,0,0,1,10.135,54H11Z"/></g></svg>