<svg xmlns="http://www.w3.org/2000/svg" viewBox="0 0 64 64"><g id="_11-email" data-name="11-email"><rect x="30" y="24" width="4" height="4" style="fill:#ffc9c9"/><polygon points="35 10 34 20 30 20 29 10 35 10" style="fill:#ffc9c9"/><path d="M32,6A13,13,0,1,1,19,19,13,13,0,0,1,32,6Zm2,14,1-10H29l1,10Zm0,8V24H30v4Z" style="fill:#ff636e"/><path d="M20,1V7a2.006,2.006,0,0,1-2,2H12Z" style="fill:#c1c1c1"/><path d="M39.16,43.16,32,49l-7.16-5.84L12,32.7V9h6a2.006,2.006,0,0,0,2-2V1H52V32.7ZM45,19A13,13,0,1,0,32,32,13,13,0,0,0,45,19Z" style="fill:#f0f0f0"/><path d="M32,4A13,13,0,0,0,19,17c0,.338.025.669.051,1a12.987,12.987,0,0,1,25.9,0c.026-.331.051-.662.051-1A13,13,0,0,0,32,4Z" style="fill:#d9d9d9"/><polygon points="32 47 24.84 41.16 12 30.7 12 32.7 24.84 43.16 32 49 39.16 43.16 52 32.7 52 30.7 39.16 41.16 32 47" style="fill:#d9d9d9"/><polygon points="59 27 52 32.7 52 20 59 27" style="fill:#a37862"/><polygon points="12 20 12 32.7 5 27 12 20" style="fill:#a37862"/><polygon points="12 32.7 24.84 43.16 5 63 5 27 12 32.7" style="fill:#ffac5a"/><polygon points="52 32.7 59 27 59 63 39.16 43.16 52 32.7" style="fill:#ffac5a"/><polygon points="59 63 5 63 24.84 43.16 32 49 39.16 43.16 59 63" style="fill:#ffcf94"/><rect x="25" y="35" width="18" height="2" style="fill:#6e6e6e"/><rect x="21" y="35" width="2" height="2" style="fill:#6e6e6e"/><rect x="26" y="39" width="13" height="2" style="fill:#6e6e6e"/><path d="M22,19A13,13,0,0,1,33.5,6.093a13,13,0,1,0,0,25.814A13,13,0,0,1,22,19Z" style="fill:#ff475a"/><polygon points="24.84 43.16 12 32.7 5 27 5 32 22.082 45.918 24.84 43.16" style="fill:#fc9942"/><polygon points="52 32.7 39.16 43.16 41.918 45.918 59 32 59 27 52 32.7" style="fill:#fc9942"/><polygon points="32 54 41.918 45.918 39.16 43.16 32 49 24.84 43.16 22.082 45.918 32 54" style="fill:#ffc170"/><path d="M59.7,26.3l0,0L53,19.586V1a1,1,0,0,0-1-1H20a1,1,0,0,0-.707.293l-8,8A1,1,0,0,0,11,9V19.586L4.293,26.293l0,0A1,1,0,0,0,4,27V63a1,1,0,0,0,1,1H59a1,1,0,0,0,1-1V27A1,1,0,0,0,59.7,26.3ZM23.347,43.239,6,60.586V29.105Zm1.558,1.27,6.463,5.266a1,1,0,0,0,1.264,0L39.1,44.509,56.586,62H7.414Zm15.748-1.27L58,29.105V60.586ZM57.51,26.924,53,30.6V22.414ZM51,32.228,32,47.71,13,32.228V10h5a3,3,0,0,0,3-3V2H51ZM14.414,8,19,3.414V7a1,1,0,0,1-1,1ZM11,30.6,6.49,26.924,11,22.414Z"/><path d="M18,19A14,14,0,1,0,32,5,14.015,14.015,0,0,0,18,19ZM32,7A12,12,0,1,1,20,19,12.013,12.013,0,0,1,32,7Z"/><path d="M30,21h4a1,1,0,0,0,.995-.9l1-10A1,1,0,0,0,35,9H29a1,1,0,0,0-1,1.1l1,10A1,1,0,0,0,30,21Zm3.9-10-.8,8h-2.19l-.8-8Z"/><path d="M34,23H30a1,1,0,0,0-1,1v4a1,1,0,0,0,1,1h4a1,1,0,0,0,1-1V24A1,1,0,0,0,34,23Zm-1,4H31V25h2Z"/><rect x="25" y="35" width="18" height="2"/><rect x="21" y="35" width="2" height="2"/><rect x="26" y="39" width="13" height="2"/></g></svg>