<svg xmlns="http://www.w3.org/2000/svg" viewBox="0 0 64 64"><g id="_11-Fishing_worm" data-name="11-Fishing worm"><path d="M54,48c3.31,0,6-2.24,6-5s-2.69-5-6-5-6,2.24-6,5S50.69,48,54,48Zm0-13c4.97,0,9,3.58,9,8s-4.03,8-9,8-9-3.58-9-8l-4-6V33l8.76,2.94A9.875,9.875,0,0,1,54,35Z" style="fill:#6da3c4"/><path d="M54,26c3.31,0,6-2.24,6-5s-2.69-5-6-5-6,2.24-6,5S50.69,26,54,26Zm0-13c4.97,0,9,3.58,9,8s-4.03,8-9,8a9.875,9.875,0,0,1-4.24-.94L41,31V27l4-6C45,16.58,49.03,13,54,13Z" style="fill:#6da3c4"/><path d="M6,19l8.99,3.6c.01.13.01.26.01.4a6.014,6.014,0,0,1-.08.99,5.186,5.186,0,0,1-.87,2.24L14,26.2,1,21Z" style="fill:#a6a0a1"/><path d="M33.5,30l-5,2-9.29-3.71a9.632,9.632,0,0,0,2.38-3.06Z" style="fill:#a6a0a1"/><polygon points="41 33 41 37 33.5 34 38.5 32 41 33" style="fill:#a6a0a1"/><polygon points="20.59 39.16 14.82 41.47 6 45 1 43 12.78 38.29 17.89 36.24 28.5 32 33.5 30 41 27 41 31 38.5 32 33.5 34 20.59 39.16" style="fill:#dddcd7"/><path d="M13.67,9.54A7.458,7.458,0,0,0,18,11h3v5H18a15.766,15.766,0,0,1-4.83-.74C12.48,14.97,12,14.57,12,14l1-5A5.4,5.4,0,0,0,13.67,9.54Z" style="fill:#b8896f"/><path d="M13,57a10.343,10.343,0,0,0,4,1,4.5,4.5,0,0,0,2.95-.96c.2.39.42.74.63,1.1a3.212,3.212,0,0,1-4.72,4.19,3.286,3.286,0,0,1-1.15-1.73,15.441,15.441,0,0,0-1.77-3.57Z" style="fill:#ebb28d"/><path d="M19.88,49.1A7.941,7.941,0,0,0,19,53a4.38,4.38,0,0,1-3,1,10.343,10.343,0,0,1-4-1,7.973,7.973,0,0,1,.95-4.04L13,49a10.343,10.343,0,0,0,4,1A4.566,4.566,0,0,0,19.88,49.1Z" style="fill:#ebb28d"/><path d="M22,43c0,.38-.02.73-.05,1.05C21.64,44.34,19.82,46,18,46a4.38,4.38,0,0,1-3-1l-.19-.04A9.3,9.3,0,0,0,15,43a6,6,0,0,0-.18-1.53l5.77-2.31A5.587,5.587,0,0,1,22,43Z" style="fill:#ebb28d"/><path d="M17,32l.08.01A6.014,6.014,0,0,0,17,33a5.226,5.226,0,0,0,.08.99L17,34s0,1-3,1a4.333,4.333,0,0,1-4-2,5.591,5.591,0,0,1,1.26-3.66A7.535,7.535,0,0,0,17,32Z" style="fill:#f6ddc9"/><path d="M14.99,22.6a11.841,11.841,0,0,0-.22-2.18A5.681,5.681,0,0,0,17,21a9.49,9.49,0,0,0,4.5-1.66A12.028,12.028,0,0,1,22,23a6.659,6.659,0,0,1-.08,1.04A10.214,10.214,0,0,1,18,25a4.38,4.38,0,0,1-3-1l-.08-.01A6.014,6.014,0,0,0,15,23C15,22.86,15,22.73,14.99,22.6Z" style="fill:#ebb28d"/><path d="M19,53a7.973,7.973,0,0,0,.95,4.04A4.5,4.5,0,0,1,17,58a10.343,10.343,0,0,1-4-1l-.06.03A8.074,8.074,0,0,1,12,53a10.343,10.343,0,0,0,4,1A4.38,4.38,0,0,0,19,53Z" style="fill:#f6ddc9"/><path d="M15,45a4.38,4.38,0,0,0,3,1c1.82,0,3.64-1.66,3.95-1.95-.24,2.44-1.29,3.51-2.06,5.04a.01.01,0,0,1-.01.01A4.566,4.566,0,0,1,17,50a10.343,10.343,0,0,1-4-1l-.05-.04a13.239,13.239,0,0,0,1.86-4Z" style="fill:#f6ddc9"/><path d="M17.08,33.99a5.1,5.1,0,0,0,.72,2.02l.09.23-5.11,2.05C11.45,36.93,10,35.7,10,33a4.333,4.333,0,0,0,4,2c3,0,3-1,3-1Z" style="fill:#ebb28d"/><path d="M18.56,28.98a5.671,5.671,0,0,0-1.48,3.03L17,32a7.535,7.535,0,0,1-5.74-2.66c.62-.78,1.37-1.43,2.03-2.16h.01A12.556,12.556,0,0,0,18.56,28.98Z" style="fill:#ebb28d"/><path d="M18,25a10.214,10.214,0,0,0,3.92-.96,5.175,5.175,0,0,1-.33,1.19,9.632,9.632,0,0,1-2.38,3.06c-.22.23-.44.45-.65.69a12.556,12.556,0,0,1-5.26-1.8,10.112,10.112,0,0,0,.75-.95,5.186,5.186,0,0,0,.87-2.24L15,24A4.38,4.38,0,0,0,18,25Z" style="fill:#f6ddc9"/><path d="M20.32,16.01c.32,1.3.81,2.16,1.18,3.33A9.49,9.49,0,0,1,17,21a5.681,5.681,0,0,1-2.23-.58c-.4-2.04-1.24-3-1.6-5.16A15.766,15.766,0,0,0,18,16h2.32Z" style="fill:#f6ddc9"/><path d="M22,4.5V5c0,4.16-1.38,3.48-1.85,6H18a7.458,7.458,0,0,1-4.33-1.46A6.335,6.335,0,0,0,15,5V4.5A3.5,3.5,0,0,1,18.5,1,3.517,3.517,0,0,1,22,4.5Z" style="fill:#f6ddc9"/><path d="M17.71,60.6a9.682,9.682,0,0,0-1.228-2.63A10.918,10.918,0,0,1,13,57l-.06.03a15.441,15.441,0,0,1,1.77,3.57,3.286,3.286,0,0,0,1.15,1.73,3.224,3.224,0,0,0,1.96.67,3.173,3.173,0,0,0,1.5-.376,3.324,3.324,0,0,1-.463-.294A3.286,3.286,0,0,1,17.71,60.6Z" style="fill:#d19e7d"/><path d="M15,53a8.378,8.378,0,0,1,.54-3.155A11.234,11.234,0,0,1,13,49l-.05-.04A7.973,7.973,0,0,0,12,53a11.263,11.263,0,0,0,3.042.924C15.017,53.634,15,53.331,15,53Z" style="fill:#d19e7d"/><path d="M17.523,45.971a7.4,7.4,0,0,0,.287-1.011A9.3,9.3,0,0,0,18,43V42l3.607-1.187A5.988,5.988,0,0,0,20.59,39.16l-5.77,2.31A6,6,0,0,1,15,43a9.3,9.3,0,0,1-.19,1.96L15,45A4.283,4.283,0,0,0,17.523,45.971Z" style="fill:#d19e7d"/><path d="M13.313,34.943a6.163,6.163,0,0,1,.011-3.911A7.832,7.832,0,0,1,11.26,29.34,5.591,5.591,0,0,0,10,33,4.239,4.239,0,0,0,13.313,34.943Z" style="fill:#efc1aa"/><path d="M17.674,24.98a5.251,5.251,0,0,0,.246-.99A6.014,6.014,0,0,0,18,23c0-.14,0-.27-.01-.4a11.723,11.723,0,0,0-.145-1.689A4.739,4.739,0,0,1,17,21a5.681,5.681,0,0,1-2.23-.58,11.841,11.841,0,0,1,.22,2.18c.01.13.01.26.01.4a6.014,6.014,0,0,1-.08.99L15,24A4.346,4.346,0,0,0,17.674,24.98Z" style="fill:#d19e7d"/><path d="M16.482,57.97c-.185-.307-.369-.615-.542-.94a7.76,7.76,0,0,1-.9-3.106A11.263,11.263,0,0,1,12,53a8.074,8.074,0,0,0,.94,4.03L13,57A10.918,10.918,0,0,0,16.482,57.97Z" style="fill:#efc1aa"/><path d="M15.54,49.845a8.221,8.221,0,0,1,.41-.885,21.4,21.4,0,0,0,1.573-2.989A4.283,4.283,0,0,1,15,45l-.19-.04a13.239,13.239,0,0,1-1.86,4L13,49A11.234,11.234,0,0,0,15.54,49.845Z" style="fill:#efc1aa"/><path d="M10,33c0,2.7,1.45,3.93,2.78,5.29l2.155-.864a6.732,6.732,0,0,1-1.622-2.483A4.239,4.239,0,0,1,10,33Z" style="fill:#d19e7d"/><path d="M13.324,31.032a5.841,5.841,0,0,1,.936-1.692,14.475,14.475,0,0,1,1.055-1.156,14.288,14.288,0,0,1-2.015-1h-.01c-.66.73-1.41,1.38-2.03,2.16A7.832,7.832,0,0,0,13.324,31.032Z" style="fill:#d19e7d"/><path d="M16.29,27.18h.01a10.112,10.112,0,0,0,.75-.95,5.351,5.351,0,0,0,.624-1.25A4.346,4.346,0,0,1,15,24l-.08-.01a5.186,5.186,0,0,1-.87,2.24,10.112,10.112,0,0,1-.75.95,14.288,14.288,0,0,0,2.015,1C15.644,27.853,15.978,27.525,16.29,27.18Z" style="fill:#efc1aa"/><path d="M18,16a15.766,15.766,0,0,1-4.83-.74c.36,2.16,1.2,3.12,1.6,5.16A5.681,5.681,0,0,0,17,21a4.739,4.739,0,0,0,.845-.089c-.026-.163-.045-.341-.075-.491-.291-1.484-.376-1.476-.539-2.192A1,1,0,0,1,18.206,17H20.62c-.109-.308-.211-.631-.3-.99V16Z" style="fill:#efc1aa"/><path d="M18,5V4.5a3.5,3.5,0,0,1,2-3.149A3.456,3.456,0,0,0,18.5,1,3.5,3.5,0,0,0,15,4.5V5a6.335,6.335,0,0,1-1.33,4.54,7.827,7.827,0,0,0,2.482,1.2A10.422,10.422,0,0,0,18,5Z" style="fill:#efc1aa"/><polygon points="39 27.8 39 30 3.517 44.007 6 45 14.82 41.47 20.59 39.16 33.5 34 38.5 32 41 31 41 27 39 27.8" style="fill:#c9c6c8"/><path d="M3.25,20.1,1,21l12.06,4.824a7.082,7.082,0,0,0,.558-1.577Z" style="fill:#c9c6c8"/><path d="M20.463,26.985c-.4.456-.829.877-1.253,1.3L26.248,31.1l2.252-.9Z" style="fill:#c9c6c8"/><path d="M15.391,12.045l.291-1.453A7.913,7.913,0,0,1,13.67,9.54,5.4,5.4,0,0,1,13,9l-1,5c0,.57.48.97,1.17,1.26A15.766,15.766,0,0,0,18,16h3V14a13.285,13.285,0,0,1-3.76.436A1.992,1.992,0,0,1,15.391,12.045Z" style="fill:#a17259"/><path d="M61,21c0-3.309-3.141-6-7-6s-7,2.691-7,6,3.141,6,7,6S61,24.309,61,21ZM49,21c0-2.206,2.243-4,5-4s5,1.794,5,4-2.243,4-5,4S49,23.206,49,21Z"/><path d="M54,37c-3.859,0-7,2.691-7,6s3.141,6,7,6,7-2.691,7-6S57.859,37,54,37Zm0,10c-2.757,0-5-1.794-5-4s2.243-4,5-4,5,1.794,5,4S56.757,47,54,47Z"/><path d="M54,34a10.957,10.957,0,0,0-4.294.872L41.35,32.063,41.193,32l.157-.063,8.356-2.809A10.957,10.957,0,0,0,54,30c5.514,0,10-4.038,10-9s-4.486-9-10-9c-5.4,0-9.812,3.869-9.994,8.688l-3.666,5.5L33.5,28.923,22.807,24.646A7.135,7.135,0,0,0,23,23a12.528,12.528,0,0,0-1.071-5.372c-.114-.284-.224-.562-.328-.849A.982.982,0,0,0,22,16V11a.988.988,0,0,0-.521-.861,6,6,0,0,1,.353-.584C22.38,8.734,23,7.8,23,5V4.5a4.5,4.5,0,0,0-9,0V5a5.44,5.44,0,0,1-.606,3.09A.986.986,0,0,0,12.02,8.8l-1,5A1,1,0,0,0,11,14a2.217,2.217,0,0,0,1.286,1.941,14.285,14.285,0,0,0,.785,2.431,11.141,11.141,0,0,1,.794,2.7l-7.494-3a1.011,1.011,0,0,0-.742,0l-5,2a1,1,0,0,0,0,1.858l7,2.8.742-1.858L3.692,21,6,20.077l7.983,3.193c-.088,1.9-1.06,2.893-2.19,4.023C10.483,28.6,9,30.086,9,33a6.751,6.751,0,0,0,2.026,4.912L.629,42.071a1,1,0,0,0,0,1.858l5,2a1,1,0,0,0,.742,0l7.62-3.048c0,.041.009.077.009.119a7.483,7.483,0,0,1-1.357,4.485,10.076,10.076,0,0,0,0,11.029,8.937,8.937,0,0,1,1.1,2.344A4.24,4.24,0,0,0,17.818,64a4.216,4.216,0,0,0,3.624-6.373l-.087-.144A7.483,7.483,0,0,1,20,53a7.071,7.071,0,0,1,.683-3.27l.024-.023L20.7,49.7c.2-.407.422-.788.659-1.183A9.474,9.474,0,0,0,23,43a6.6,6.6,0,0,0-.861-3.378L33.5,35.077l6.84,2.736,3.666,5.5C44.188,48.131,48.6,52,54,52c5.514,0,10-4.038,10-9S59.514,34,54,34ZM42,27.3l3.832-5.748A1.006,1.006,0,0,0,46,21c0-3.86,3.589-7,8-7s8,3.14,8,7-3.589,7-8,7a8.925,8.925,0,0,1-3.811-.847,1,1,0,0,0-.748-.045L42,29.609ZM30.807,30l-2.307.923-7.126-2.851-.742,1.858L25.807,32l-7.418,2.967A4.731,4.731,0,0,1,18,33c0-2.086,1.022-3.108,2.207-4.293A11.712,11.712,0,0,0,22.063,26.5Zm-19.79,2.729a4.62,4.62,0,0,1,.425-1.8A8.417,8.417,0,0,0,16,32.938c0,.022,0,.04,0,.062,0,.236.022.459.042.684A4.225,4.225,0,0,1,14,34,3.544,3.544,0,0,1,11.017,32.729Zm2.462-4.3a14.659,14.659,0,0,0,3.336,1.288,6.265,6.265,0,0,0-.526,1.239,6.453,6.453,0,0,1-3.67-1.649c.189-.2.385-.4.588-.6ZM21,23c0,.125-.015.234-.022.352A8.611,8.611,0,0,1,18,24a3.806,3.806,0,0,1-2.031-.522c.01-.16.031-.309.031-.478,0-.406-.016-.774-.039-1.124A4.921,4.921,0,0,0,17,22a8.836,8.836,0,0,0,3.838-1.126A12.643,12.643,0,0,1,21,23Zm-5.454,2.5A6,6,0,0,0,18,26a9,9,0,0,0,2.193-.3,11.2,11.2,0,0,1-1.4,1.594c-.208.208-.42.425-.631.647a11.17,11.17,0,0,1-3.344-1.072A6.508,6.508,0,0,0,15.546,25.5Zm.5,8.24c.008.085.01.173.021.257H16A.673.673,0,0,1,16.045,33.743Zm-3.03-19.718.656-3.28A8.374,8.374,0,0,0,18,12h2v3H18C15.543,15,13.3,14.461,13.015,14.025ZM16,5V4.5a2.5,2.5,0,0,1,5,0V5c0,2.2-.386,2.776-.832,3.445A5.862,5.862,0,0,0,19.373,10H18a6.257,6.257,0,0,1-2.951-.779A7.114,7.114,0,0,0,16,5Zm2,12h1.566c.159.5.333.941.505,1.371.071.178.141.355.209.533A7.49,7.49,0,0,1,17,20a4.054,4.054,0,0,1-1.371-.322,15.569,15.569,0,0,0-.7-2.049c-.122-.3-.237-.606-.347-.917A19.272,19.272,0,0,0,18,17ZM11.754,35.622A6.444,6.444,0,0,0,14,36a7.513,7.513,0,0,0,2.508-.349c.008.02.013.041.021.06l-3.5,1.4A9.582,9.582,0,0,1,11.754,35.622ZM6,43.923,3.692,43,40,28.477v1.846Zm9.415,2.523A5.972,5.972,0,0,0,18,47a5.283,5.283,0,0,0,2.236-.565c-.181.357-.382.7-.593,1.05-.182.3-.369.617-.549.953A3.749,3.749,0,0,1,17,49a8.184,8.184,0,0,1-2.624-.517A12.464,12.464,0,0,0,15.415,46.446Zm2.707,8.2a8.547,8.547,0,0,0,.552,2.025A4.06,4.06,0,0,1,17,57a9.048,9.048,0,0,1-3.354-.8,6.443,6.443,0,0,1-.529-1.691A9.789,9.789,0,0,0,16,55,6.18,6.18,0,0,0,18.122,54.641Zm1.628,6.233A2.2,2.2,0,0,1,17.818,62a2.238,2.238,0,0,1-2.144-1.665,8.439,8.439,0,0,0-.6-1.573A8.791,8.791,0,0,0,17,59a5.974,5.974,0,0,0,2.6-.56l.043.072.085.142A2.182,2.182,0,0,1,19.75,60.874Zm-1.73-8.389A3.81,3.81,0,0,1,16,53a8.6,8.6,0,0,1-2.976-.648,6.922,6.922,0,0,1,.424-2.077A10.477,10.477,0,0,0,17,51a6.4,6.4,0,0,0,1.207-.12A10.237,10.237,0,0,0,18.02,52.485ZM21,43c0,.2-.011.39-.021.575A5.393,5.393,0,0,1,18,45a3.755,3.755,0,0,1-2.1-.563A11.188,11.188,0,0,0,16,43a7.568,7.568,0,0,0-.069-.9l4.321-1.729A4.547,4.547,0,0,1,21,43Zm17.5-9.923,1.5.6v1.846L36.193,34ZM54,50c-4.411,0-8-3.14-8-7a1.006,1.006,0,0,0-.168-.555L42,36.7V34.391l7.441,2.5a1,1,0,0,0,.748-.045A8.925,8.925,0,0,1,54,36c4.411,0,8,3.14,8,7S58.411,50,54,50Z"/><rect x="10" y="23.92" width="1.999" height="2.159" transform="translate(-16.297 25.933) rotate(-68.209)"/></g></svg>