<svg xmlns="http://www.w3.org/2000/svg" viewBox="0 0 64 64"><g id="_11-Oil" data-name="11-Oil"><polygon points="50 21 50 52 49 59 47 59 46 52 46 21 50 21" style="fill:#f8eae9"/><path d="M51,12.06a3.917,3.917,0,0,0,.42,1.78L52,15H44l.58-1.16A3.917,3.917,0,0,0,45,12.06V8a3,3,0,0,1,3.16-3A3.128,3.128,0,0,1,51,8.17Z" style="fill:#e6677d"/><polygon points="54 15 54 21 50 21 46 21 42 21 42 15 44 15 52 15 54 15" style="fill:#e6677d"/><polygon points="30 1 30 7 28 7 20 7 18 7 18 1 30 1" style="fill:#e6677d"/><path d="M38,56v1a6,6,0,0,1-6,6H16a6,6,0,0,1-6-6V56Z" style="fill:#f8eae9"/><path d="M38,21v1H10V21c0-4.42,5.58-10,10-10V7h8v4C32.42,11,38,16.58,38,21Z" style="fill:#f8eae9"/><path d="M28,46c-4,0-4,4-4,4s0-4-4-4c0,0,0,4,4,4S28,46,28,46ZM38,22V56H10V22ZM24,43a3,3,0,0,0,3-3c0-1.66-2-5-3-5s-3,3.34-3,5A3,3,0,0,0,24,43Z" style="fill:#e6677d"/><path d="M46,21V52l1,7h1V26a2,2,0,0,1,2-2V21Z" style="fill:#dbd1d0"/><path d="M42,15h3v2a2,2,0,0,0,2,2h7v2H42Z" style="fill:#d45f73"/><path d="M18,1h3V3a2,2,0,0,0,2,2h7V7H18Z" style="fill:#a14756"/><path d="M20,7v4c-4.42,0-10,5.58-10,10v1h5.082a10.564,10.564,0,0,1,6.295-8.451A2.76,2.76,0,0,0,23,11h0a2,2,0,0,1,2-2h3V7Z" style="fill:#dbd1d0"/><path d="M51.114,13H50a3,3,0,0,1-3-3V6a.994.994,0,0,1,.944-.989A2.994,2.994,0,0,0,45,8v4.06a3.917,3.917,0,0,1-.42,1.78L44,15h8l-.58-1.16A3.825,3.825,0,0,1,51.114,13Z" style="fill:#a14756"/><path d="M37.714,53A23.052,23.052,0,0,1,15,29.848v-6.6A10.7,10.7,0,0,1,15.082,22H10V56H38V53Z" style="fill:#a14756"/><path d="M20,46c4,0,4,4,4,4C20,50,20,46,20,46Z" style="fill:#80c4bb"/><path d="M24,50s0-4,4-4C28,46,28,50,24,50Z" style="fill:#80c4bb"/><path d="M27,40a3,3,0,0,1-6,0c0-1.66,2-5,3-5S27,38.34,27,40Z" style="fill:#80acc5"/><path d="M33,61H20a5,5,0,0,1-5-5H10v1a6,6,0,0,0,6,6H32a6,6,0,0,0,6-6V56A5,5,0,0,1,33,61Z" style="fill:#dbd1d0"/><path d="M33.427,21.5a1.5,1.5,0,0,1-1.483-1.287,5.478,5.478,0,0,0-2.608-3.925,1.5,1.5,0,0,1,1.551-2.569,8.469,8.469,0,0,1,4.026,6.068,1.5,1.5,0,0,1-1.271,1.7A1.576,1.576,0,0,1,33.427,21.5Z" style="fill:#fff"/><path d="M35,22H32V52.227a22.5,22.5,0,0,0,3,.585Z" style="fill:#ff728a"/><path d="M23,38a6.954,6.954,0,0,1,1.05-2.99A.442.442,0,0,0,24,35c-1,0-3,3.34-3,5a2.992,2.992,0,0,0,5.86.86A2.95,2.95,0,0,1,26,41,3,3,0,0,1,23,38Z" style="fill:#6c9bb5"/><rect x="33" y="24" width="2" height="8" rx="1" style="fill:#fff"/><rect x="33" y="33" width="2" height="4" rx="1" style="fill:#fff"/><rect x="23" y="1" width="2" height="4" style="fill:#d45f73"/><rect x="27" y="1" width="2" height="4" style="fill:#d45f73"/><path d="M29,10.079V8h1a1,1,0,0,0,1-1V1a1,1,0,0,0-1-1H18a1,1,0,0,0-1,1V7a1,1,0,0,0,1,1h1v2.079C14.283,10.8,9,16.4,9,21V57a7.008,7.008,0,0,0,7,7H32a7.008,7.008,0,0,0,7-7V21C39,16.4,33.717,10.8,29,10.079ZM19,2H29V6H19ZM32,62H16a5.006,5.006,0,0,1-5-5H37A5.006,5.006,0,0,1,32,62Zm5-39V55H11V23h2V21H11c0-3.869,5.131-9,9-9a1,1,0,0,0,1-1V8h6v3a1,1,0,0,0,1,1c3.869,0,9,5.131,9,9H19v2Z"/><rect x="15" y="21" width="2" height="2"/><path d="M24,44a4,4,0,0,0,4-4c0-1.789-2.092-6-4-6s-4,4.211-4,6A4,4,0,0,0,24,44Zm0-7.931A7.544,7.544,0,0,1,26,40a2,2,0,0,1-4,0A7.544,7.544,0,0,1,24,36.069Z"/><path d="M24,51a4.821,4.821,0,0,0,5-5,1,1,0,0,0-1-1,4.641,4.641,0,0,0-4,1.877A4.641,4.641,0,0,0,20,45a1,1,0,0,0-1,1A4.821,4.821,0,0,0,24,51Zm2.783-3.807a2.559,2.559,0,0,1-1.566,1.614A2.559,2.559,0,0,1,26.783,47.193Zm-4,1.614a2.554,2.554,0,0,1-1.566-1.614A2.557,2.557,0,0,1,22.783,48.807Z"/><path d="M54,14H52.618l-.3-.6A3.022,3.022,0,0,1,52,12.056V8.17a4.089,4.089,0,0,0-3.786-4.164A3.976,3.976,0,0,0,45.247,5.1,4.016,4.016,0,0,0,44,8v4.056a3.014,3.014,0,0,1-.316,1.341l-.3.6H42a1,1,0,0,0-1,1v6a1,1,0,0,0,1,1h7V51.929L48.133,58h-.266L47,51.929V24H45V52a.969.969,0,0,0,.01.142l1,7A1,1,0,0,0,47,60h2a1,1,0,0,0,.99-.858l1-7A.969.969,0,0,0,51,52V22h3a1,1,0,0,0,1-1V15A1,1,0,0,0,54,14Zm-8-1.944V8a2,2,0,0,1,2.108-2A2.119,2.119,0,0,1,50,8.17v3.886A5.021,5.021,0,0,0,50.394,14H45.606A5.036,5.036,0,0,0,46,12.056ZM53,20H43V16H53Z"/></g></svg>