<svg xmlns="http://www.w3.org/2000/svg" viewBox="0 0 64 64"><g id="Layer_2" data-name="Layer 2"><path d="M22.371,35.9,20,28l-3,2,2.446,8.152a4,4,0,0,0,2.345,2.565L30,44V40l-4.9-1.4A4,4,0,0,1,22.371,35.9Z" style="fill:#c67a60"/><path d="M30,41a1.281,1.281,0,0,1-1.243-.97l-.1-.415L25.1,38.6c-.108-.031-.21-.072-.313-.111l1.142,3.883L30,44Z" style="fill:#b26049"/><path d="M22.264,35.547,20,28l-3,2,2.072,6.908A6.953,6.953,0,0,0,22.264,35.547Z" style="fill:#b26049"/><path d="M47,33l-3-2-1.553,5.434a4,4,0,0,1-1.861,2.374l-1.41.806a1.281,1.281,0,0,1-1.864-1.474L40,29H36L33.243,40.03A1.281,1.281,0,0,1,32,41h0a1.281,1.281,0,0,1-1.243-.97L28,29H24l4.785,16.269a3.991,3.991,0,0,1,.146,1.49l-.847,9.316a8.007,8.007,0,0,1-.378,1.806l-.829,2.487A2,2,0,0,0,28.775,63h6.45a2,2,0,0,0,1.9-2.632l-.829-2.487a8.007,8.007,0,0,1-.378-1.806L35.227,48.5a4,4,0,0,1,1.926-3.792l6.493-3.895a4.005,4.005,0,0,0,1.788-2.332Z" style="fill:#c67a60"/><path d="M45.859,36.992,47,33l-3-2-1.451,5.08A6.951,6.951,0,0,0,45.859,36.992Z" style="fill:#b26049"/><path d="M34.121,36.517a5.031,5.031,0,0,0,2.05-1.767A6.985,6.985,0,0,0,38,35c.081,0,.159-.009.239-.012L40,29H36Z" style="fill:#b26049"/><path d="M37,60H34.4a3.89,3.89,0,0,1-3.69-5.119h0a8.007,8.007,0,0,0,.378-1.806l.847-9.316a3.991,3.991,0,0,0-.146-1.49l-.43-1.462a1.265,1.265,0,0,1-.6-.777l-2.09-8.363L27.882,29H24l4.785,16.269a3.991,3.991,0,0,1,.146,1.49l-.847,9.316a8.007,8.007,0,0,1-.378,1.806l-.829,2.487A2,2,0,0,0,28.775,63h6.45a2,2,0,0,0,1.9-2.632Z" style="fill:#b26049"/><path d="M58.571,16.257A9,9,0,0,0,50.055,10a8.9,8.9,0,0,0-9.477-4.88,10.985,10.985,0,0,0-17.156,0A8.9,8.9,0,0,0,13.945,10a9,9,0,0,0-8.516,6.254,9,9,0,0,0,7.286,16.324,6.989,6.989,0,0,0,10.657-.1,6.9,6.9,0,0,0,4.457.265,4.991,4.991,0,0,0,8.342,0,6.9,6.9,0,0,0,4.457-.265,6.989,6.989,0,0,0,10.657.1,9,9,0,0,0,7.286-16.324Z" style="fill:#85b27c"/><path d="M47,10.105a1,1,0,0,1-.717-.3,5.926,5.926,0,0,0-1.712-1.227,1,1,0,1,1,.858-1.806,7.9,7.9,0,0,1,2.288,1.639,1,1,0,0,1-.717,1.7Z" style="fill:#fff"/><path d="M57,30a9.014,9.014,0,0,1-1.727-.167,2.027,2.027,0,0,0-1.715.472,6.984,6.984,0,0,1-9.143-.018,2.071,2.071,0,0,0-1.838-.468A6.944,6.944,0,0,1,41,30a6.827,6.827,0,0,1-.7-.037,2.088,2.088,0,0,0-1.735.541,4.986,4.986,0,0,1-7.122,0,2.088,2.088,0,0,0-1.735-.541A6.827,6.827,0,0,1,29,30a6.944,6.944,0,0,1-1.577-.181,2.071,2.071,0,0,0-1.838.468,6.986,6.986,0,0,1-9.144.018,2.007,2.007,0,0,0-1.7-.475A9,9,0,0,1,4.016,21.538,8.909,8.909,0,0,1,5.322,16.33a8.991,8.991,0,0,0,7.393,16.251,6.989,6.989,0,0,0,10.657-.1,6.9,6.9,0,0,0,4.457.265,4.991,4.991,0,0,0,8.342,0,6.9,6.9,0,0,0,4.457-.265,6.989,6.989,0,0,0,10.657.1,8.986,8.986,0,0,0,10.393-3.9A8.944,8.944,0,0,1,57,30Z" style="fill:#699b5d"/><path d="M59.4,15.6a10.063,10.063,0,0,0-5-5.574,1,1,0,1,0-.88,1.8,8.049,8.049,0,0,1,4.1,4.746,1,1,0,0,0,.443.555,8,8,0,0,1-6.475,14.51,1,1,0,0,0-1.057.3,5.989,5.989,0,0,1-9.134-.082,1,1,0,0,0-1.144-.285,5.893,5.893,0,0,1-3.819.226,1,1,0,0,0-1.1.414,3.992,3.992,0,0,1-6.674,0,1,1,0,0,0-1.1-.414,5.9,5.9,0,0,1-3.819-.226,1,1,0,0,0-1.144.285,5.989,5.989,0,0,1-9.134.082,1,1,0,0,0-1.057-.3,8,8,0,0,1-6.475-14.51,1,1,0,0,0,.443-.555A7.979,7.979,0,0,1,13.951,11a1,1,0,0,0,.89-.555,7.9,7.9,0,0,1,8.424-4.337.992.992,0,0,0,.936-.362,9.987,9.987,0,0,1,15.6,0,.991.991,0,0,0,.936.362,7.9,7.9,0,0,1,8.424,4.337,1,1,0,0,0,1.791-.89A9.942,9.942,0,0,0,42,4a9.026,9.026,0,0,0-1.012.059,11.981,11.981,0,0,0-17.976,0A9.026,9.026,0,0,0,22,4a9.935,9.935,0,0,0-8.665,5.024A9.973,9.973,0,0,0,4.6,15.6a10,10,0,0,0,7.8,18.113,8.029,8.029,0,0,0,1.347,1.057l.461,1.609A5.022,5.022,0,0,0,19.018,40h.257a4.994,4.994,0,0,0,2.145,1.645l5.958,2.383.447,1.522a2.964,2.964,0,0,1,.11,1.119l-.847,9.316a6.967,6.967,0,0,1-.331,1.58l-.827,2.486A3,3,0,0,0,28.774,64h6.452a3,3,0,0,0,2.845-3.948l-.829-2.488a7,7,0,0,1-.33-1.579l-.688-7.575a3.014,3.014,0,0,1,1.444-2.844l6.492-3.9a4.957,4.957,0,0,0,.863-.67h1.094a4.993,4.993,0,0,0,4.743-3.418L52.119,33.8A9.984,9.984,0,0,0,59.4,15.6ZM40.338,33.649a7.983,7.983,0,0,0,1.526,1.187l-.379,1.323A2.98,2.98,0,0,1,40.09,37.94l-1.41.806a.281.281,0,0,1-.409-.323l1.352-4.6C39.863,33.773,40.1,33.721,40.338,33.649Zm-7.085,2.216-.981,3.922a.291.291,0,0,1-.544,0l-.982-3.922a5.887,5.887,0,0,0,2.507,0Zm-9.591-2.216c.236.072.475.124.715.175l1.133,3.853-.132-.037a2.99,2.99,0,0,1-2.049-2.023l-.4-1.328A7.9,7.9,0,0,0,23.662,33.649Zm-7.529,2.175-.017-.06a7.988,7.988,0,0,0,1.636.224l.576,1.921A3.009,3.009,0,0,1,16.133,35.824Zm6.029,3.964A2.988,2.988,0,0,1,20.4,37.865l-.621-2.073a7.972,7.972,0,0,0,1.378-.446l.253.845a4.976,4.976,0,0,0,3.416,3.371l1.349.386.482,1.639Zm20.969.167-6.492,3.9a5.028,5.028,0,0,0-2.408,4.74l.689,7.575a9,9,0,0,0,.425,2.031l.829,2.488A1,1,0,0,1,35.226,62H28.774a1,1,0,0,1-.947-1.316l.827-2.487a8.946,8.946,0,0,0,.426-2.031l.847-9.315a4.987,4.987,0,0,0-.183-1.865L26.507,33.98a8.165,8.165,0,0,0,.912-.112,6.02,6.02,0,0,0,1,.941l1.367,5.463a2.28,2.28,0,0,0,4.424,0l1.366-5.462a5.953,5.953,0,0,0,1-.942,8.165,8.165,0,0,0,.912.112l-1.14,3.878a2.278,2.278,0,0,0,3.319,2.624l1.41-.806a4.973,4.973,0,0,0,2.327-2.967l.3-1.046a7.962,7.962,0,0,0,1.409.285l-.645,2.259A2.987,2.987,0,0,1,43.131,39.955Zm3.175-.97c.027-.078.067-.149.09-.229l.817-2.858a7.98,7.98,0,0,0,2.35-.746l-.6,1.8A2.992,2.992,0,0,1,46.306,38.985Z"/></g></svg>