<?xml version="1.0" encoding="utf-8"?>
<!-- Generator: Adobe Illustrator 16.0.0, SVG Export Plug-In . SVG Version: 6.00 Build 0)  -->
<!DOCTYPE svg PUBLIC "-//W3C//DTD SVG 1.1//EN" "http://www.w3.org/Graphics/SVG/1.1/DTD/svg11.dtd">
<svg version="1.1" xmlns="http://www.w3.org/2000/svg" xmlns:xlink="http://www.w3.org/1999/xlink" x="0px" y="0px" width="64px"
	 height="64px" viewBox="0 0 64 64" enable-background="new 0 0 64 64" xml:space="preserve">
<g id="_x32_5_purse_x2C__money_x2C__coin_x2C__banknote_x2C__payment_x2C__shop_x2C__shopping">
</g>
<g id="_x32_4_pay_x2C__click_x2C__hand_x2C__coin_x2C__money_x2C__shop_x2C__payment">
</g>
<g id="_x32_3_card_x2C__discount_x2C__sale_x2C__shop_x2C__shopping_x2C__commerce_x2C__market">
</g>
<g id="_x32_2_safe_x2C__box_x2C__key_x2C__thing_x2C__shop_x2C__shopping_x2C__commerce">
</g>
<g id="_x32_1_cashbox_x2C__money_x2C__purchase_x2C__list_x2C__check_x2C__shop_x2C__shopping">
</g>
<g id="_x32_0_search_x2C__magnifier_x2C__basket_x2C__shop_x2C__shopping_x2C__commerce_x2C__market">
</g>
<g id="_x31_9_return_x2C__box_x2C__purchase_x2C__shipping_x2C__delivery_x2C__shop_x2C__shopping">
</g>
<g id="_x31_8_review_x2C__client_x2C__buyer_x2C__talk_x2C__shop_x2C__shopping_x2C__commerce">
</g>
<g id="_x31_7_manager_x2C__consultant_x2C__shop_x2C__shopping_x2C__commerce_x2C__market_x2C__badge">
</g>
<g id="_x31_6_check_x2C__list_x2C__cashbox_x2C__purchase_x2C__shop_x2C__shopping_x2C__commerce">
</g>
<g id="_x31_5_coupon_x2C__sale_x2C__discount_x2C__shop_x2C__shopping_x2C__commerce_x2C__market">
</g>
<g id="_x31_4_sale_x2C__discount_x2C__box_x2C__gift_x2C__shop_x2C__shopping_x2C__commerce">
</g>
<g id="_x31_3_map_x2C__pin_x2C__marker_x2C__location_x2C__shop_x2C__shopping_x2C__basket">
</g>
<g id="_x31_2_operator_x2C__call_x2C__center_x2C__shop_x2C__shopping_x2C__commerce_x2C__market">
	<g>
		<polygon fill="#EDAB37" points="21.5,20.498 12.5,23.5 12.5,48.744 21.5,48.744 		"/>
		<polygon fill="#EDAB37" points="51.5,21.59 42.5,16.586 42.5,48.744 51.5,48.744 		"/>
		<path fill="#E5B6A8" d="M42.5,42c0,1.09,0.439,2.02,1.17,2.83L43.5,45c0,0-2,5-11.5,5s-11.84-5-11.84-5
			c0.83-0.84,1.34-1.83,1.34-3v-3.881C24.9,41.719,28.9,44,32,44s7.109-2.281,10.5-5.881V42z"/>
		<path fill="#ED5564" d="M61.5,63h-59c0,0,0-2,0-6s2-5.5,6-7c1.18-0.441,2.88-0.891,4.68-1.471c2.6-0.83,5.381-1.91,6.98-3.529
			c0,0,2.34,5,11.84,5s11.5-5,11.5-5l0.17-0.17c2.609,2.859,8.9,4.08,11.83,5.17c4,1.5,6,3,6,7S61.5,63,61.5,63z"/>
		<path fill="#F0C7B7" d="M49.33,23.061c0,11.453-10.839,22-17.5,22c-6.66,0-17.5-10.547-17.5-22s7.836-19,17.5-19
			C41.495,4.061,49.33,11.607,49.33,23.061z"/>
		<path fill="#FFCE54" d="M44.5,5.529c0,0-3.48,3.49-9.15,7.471c-5.8,4.07-13.879,8.65-22.85,10.5v-3C12.5,9.73,21.23,1,32,1
			C36.75,1,41.109,2.701,44.5,5.529z"/>
		<path fill="#F6BB42" d="M44.5,5.529c4.279,3.58,7,8.961,7,14.971v1.09h-0.02C42.08,18.16,35.35,13,35.35,13
			C41.02,9.02,44.5,5.529,44.5,5.529z"/>
		<g>
			<path fill="#FFCE54" d="M23.5,61.539c-0.055,0-0.109-0.008-0.164-0.027c-0.261-0.09-0.398-0.375-0.309-0.637
				c0.261-0.75,0.616-1.467,1.056-2.131c2.148-3.232,6.043-4.879,10.014-4.014c0.27,0.059,0.44,0.326,0.382,0.596
				s-0.32,0.441-0.595,0.381c-3.57-0.775-7.046,0.697-8.968,3.59c-0.393,0.594-0.711,1.236-0.943,1.906
				C23.9,61.41,23.707,61.539,23.5,61.539z"/>
		</g>
		<g>
			<path fill="#FFCE54" d="M40.5,61.539c-0.207,0-0.4-0.129-0.473-0.336c-0.232-0.67-0.551-1.313-0.944-1.908
				c-0.408-0.607-0.886-1.158-1.416-1.633c-0.206-0.184-0.224-0.5-0.04-0.705c0.184-0.207,0.502-0.223,0.706-0.041
				c0.593,0.531,1.125,1.145,1.582,1.824c0.441,0.668,0.797,1.385,1.058,2.135c0.09,0.262-0.048,0.547-0.309,0.637
				C40.609,61.531,40.555,61.539,40.5,61.539z"/>
		</g>
		<g>
			<path fill="#FFCE54" d="M31,61.5c-0.128,0-0.256-0.049-0.354-0.146c-0.195-0.195-0.195-0.512,0-0.707l9-9
				c0.195-0.195,0.512-0.195,0.707,0s0.195,0.512,0,0.707l-9,9C31.256,61.451,31.128,61.5,31,61.5z"/>
		</g>
		<path fill="#545C66" d="M48.211,29.537c0.074,0.322,0.119,0.639,0.119,0.943c0,3.773-5.724,5.682-9.137,6.484
			c-1.62,0.387-2.813,0.537-2.825,0.539c-0.274,0.035-0.469,0.285-0.435,0.559c0.031,0.252,0.247,0.438,0.495,0.438
			c0.021,0,0.042,0,0.063-0.004c0.051-0.006,1.257-0.158,2.933-0.559c3.7-0.869,9.906-2.994,9.906-7.457
			c0-0.814-0.219-1.672-0.637-2.553C48.554,28.471,48.391,29.006,48.211,29.537z"/>
		<path fill="#656D78" d="M35.119,36.5c1.106,0,2.005,0.676,2.005,1.5s-0.898,1.5-2.005,1.5c-1.097,0-1.995-0.676-1.995-1.5
			S34.022,36.5,35.119,36.5z"/>
		<path fill="#FFCE54" d="M23.623,63c0.497-4.217,4.088-7.5,8.436-7.5s7.938,3.283,8.436,7.5h1.011c-0.502-4.77-4.546-8.5-9.446-8.5
			s-8.944,3.73-9.446,8.5H23.623z"/>
		<path fill="#FFCE54" d="M32.294,63h1.414l-2.354-2.355c-0.195-0.195-0.512-0.195-0.707,0c-0.098,0.098-0.146,0.227-0.146,0.354
			c0,0.129,0.049,0.256,0.146,0.354L32.294,63z"/>
	</g>
</g>
<g id="_x31_1_courier_x2C__box_x2C__shipping_x2C__purchase_x2C__shop_x2C__shopping_x2C__commerce">
</g>
<g id="_x31_0_box_x2C__shipping_x2C__delivery_x2C__purchase_x2C__shop_x2C__shopping_x2C__commerce">
</g>
<g id="_x39__shipping_x2C__delivery_x2C__box_x2C__crane_x2C__shop_x2C__shopping_x2C__commerce">
</g>
<g id="_x38__computer_x2C__monitor_x2C__desktop_x2C__shop_x2C__shopping_x2C__commerce_x2C__market">
</g>
<g id="_x37__mobile_x2C__phone_x2C__app_x2C__shop_x2C__shopping_x2C__commerce_x2C__market">
</g>
<g id="_x36__food_x2C__market_x2C__purchase_x2C__shop_x2C__shopping_x2C__commerce_x2C__basket">
</g>
<g id="_x35__discount_x2C__sale_x2C__purchase_x2C__pocket_x2C__shop_x2C__shopping_x2C__commerce">
</g>
<g id="_x34__badge_x2C__discount_x2C__sale_x2C__shop_x2C__shopping_x2C__commerce_x2C__market">
</g>
<g id="_x33__food_x2C__pocket_x2C__purchase_x2C__shop_x2C__shopping_x2C__commerce_x2C__supermarket">
</g>
<g id="_x32__shop_x2C__shopping_x2C__commerce_x2C__supermarket_x2C__market_x2C__cart">
</g>
<g id="_x31__list_x2C__check_x2C__notebook_x2C__pen_x2C__shop_x2C__shopping_x2C__commerce">
</g>
</svg>
