<svg xmlns="http://www.w3.org/2000/svg" viewBox="0 0 64 64"><g id="Layer_2" data-name="Layer 2"><polygon points="20 24 14 19 11 19 18 27 28 27 28 24 20 24" style="fill:#c67a60"/><polygon points="28 27 28 24 23.111 24 25.444 27 28 27" style="fill:#b26049"/><polygon points="30 9 26 11 23 17 25 21 30 9" style="fill:#c67a60"/><polygon points="26.674 16.983 24.405 14.19 23 17 25 21 26.674 16.983" style="fill:#b26049"/><path d="M44.3,33.139l-6.424,2.409a2,2,0,0,1-2.7-1.8l-.122-3.4a4,4,0,0,1,.73-2.45L46.634,12.519A2,2,0,0,0,47,11.365V5.828a2,2,0,0,0-.586-1.414L43,1v9.345a2,2,0,0,1-.387,1.183L33.532,23.911a2,2,0,0,1-3.165.079L19.61,10.751a2,2,0,0,1-.4-1.7L21,1,17.334,4.666a1.993,1.993,0,0,0-.483.782L15.338,9.985a2,2,0,0,0,.319,1.86L28.108,27.853a4,4,0,0,1,.84,2.6l-.2,5.5a2,2,0,0,1-2.484,1.869L15,35l1.607,3.213a2,2,0,0,0,1.239,1.029l9.174,2.621a2,2,0,0,1,1.449,1.994l-.448,12.567a4,4,0,0,1-.2,1.122L26,63H38l-1.818-5.454a4,4,0,0,1-.2-1.122l-.519-14.54a2,2,0,0,1,1.281-1.938l9.666-3.718a2,2,0,0,0,.946-.757L50.664,30.5A2,2,0,0,0,51,29.394V26l-5.918,6.6A2,2,0,0,1,44.3,33.139Z" style="fill:#c67a60"/><path d="M30.818,54.547h0a4.015,4.015,0,0,0,.2-1.123l.315-8.843a6.761,6.761,0,0,0-4.9-6.742h0c-.057-.009-.113-.008-.17-.022L15,35l1.607,3.213a2,2,0,0,0,1.239,1.029l9.174,2.621a2,2,0,0,1,1.449,1.994l-.448,12.567a4.015,4.015,0,0,1-.2,1.123L26,63H38l-1-3H34.748A4.143,4.143,0,0,1,30.818,54.547Z" style="fill:#b26049"/><polygon points="53 7 47 11 47 7 53 4 53 7" style="fill:#c67a60"/><polygon points="47 7 47 11 49 9.667 49 6 47 7" style="fill:#b26049"/><path d="M59.707,15.293a1,1,0,0,0-1.414,0l-2,2A1,1,0,0,0,56,18v1.382l-2.407-1.2-1.886-1.885a1,1,0,0,0-1.414,1.414l2,2a1.028,1.028,0,0,0,.26.188L56,21.618v1.847l-4,2.667V26a1,1,0,0,0-1.744-.667l-5.919,6.6a1,1,0,0,1-.393.267l-6.425,2.41a1,1,0,0,1-1.35-.9l-.122-3.4a3.022,3.022,0,0,1,.548-1.837l5.575-7.9a1,1,0,0,0-1.635-1.154l-5.575,7.9a5.025,5.025,0,0,0-.911,3.061l.122,3.4a3,3,0,0,0,4.051,2.7l6.425-2.41a3.006,3.006,0,0,0,1.179-.806L50,28.613V29.4a1,1,0,0,1-.168.554l-3.311,4.967a1,1,0,0,1-.474.379l-9.665,3.718a3,3,0,0,0-1.921,2.906L34.98,56.46a4.984,4.984,0,0,0,.254,1.4L36.612,62H27.388l1.378-4.137a5,5,0,0,0,.254-1.4l.449-12.567A3,3,0,0,0,27.3,40.9L18.12,38.28a1,1,0,0,1-.619-.514L16.867,36.5l9.158,2.289a3,3,0,0,0,3.726-2.8l.2-5.5A5,5,0,0,0,28.9,27.24L16.447,11.231a1,1,0,0,1-.16-.931L17.8,5.766a1.018,1.018,0,0,1,.242-.393l1.238-1.238-1.046,4.7a2.982,2.982,0,0,0,.6,2.543L29.59,24.621a3.042,3.042,0,0,0,2.4,1.107A2.98,2.98,0,0,0,34.338,24.5L43.42,12.119A3.025,3.025,0,0,0,44,10.345V3.414l1.707,1.707A1,1,0,0,1,46,5.829v5.536a.988.988,0,0,1-.184.577l-3.163,4.481a1,1,0,0,0,1.635,1.154L47.45,13.1a2.969,2.969,0,0,0,.536-1.551l5.569-3.712A1,1,0,0,0,54,7V4a1,1,0,0,0-1.447-.895L47.958,5.4a2.972,2.972,0,0,0-.837-1.7L43.707.293A1,1,0,0,0,42,1v9.345a1,1,0,0,1-.193.592L32.725,23.32a.993.993,0,0,1-.782.408.955.955,0,0,1-.8-.369l-3.994-4.916L28.583,15h2.76a4.967,4.967,0,0,0,3.536-1.465l2.828-2.828a1,1,0,0,0-1.414-1.414l-2.828,2.828A2.98,2.98,0,0,1,31.343,13H29.417l1.506-3.615a1,1,0,0,0-1.37-1.28L28.2,8.783l-2.49-2.49a1,1,0,0,0-1.414,1.414l2.019,2.019-.759.379a1,1,0,0,0-.448.448L23.442,13.88l-3.055-3.76a.987.987,0,0,1-.2-.848l1.79-8.055A1,1,0,0,0,20.293.293L16.627,3.959A3.02,3.02,0,0,0,15.9,5.132L14.391,9.667a2.992,2.992,0,0,0,.477,2.791L23.067,23H20.362l-5.721-4.768A1,1,0,0,0,14,18H11a1,1,0,0,0-.753,1.659l7,8A1,1,0,0,0,18,28h8.956l.363.467a3.007,3.007,0,0,1,.63,1.949l-.2,5.5a1,1,0,0,1-1.243.935L15.242,34.03a1,1,0,0,0-1.137,1.417l.234.467-2.53-.723L9.962,28.725a1,1,0,0,0-1.924.55l.88,3.081L4.629,34.071a1,1,0,0,0,.742,1.858l4.1-1.64.567,1.986a1,1,0,0,0,.688.686l4.826,1.38.16.32A3.008,3.008,0,0,0,17.571,40.2l9.175,2.621a1,1,0,0,1,.725,1l-.45,12.567a2.977,2.977,0,0,1-.152.841l-1.817,5.454A1,1,0,0,0,26,64H38a1,1,0,0,0,.948-1.316l-1.817-5.455a2.964,2.964,0,0,1-.152-.84l-.52-14.541a1,1,0,0,1,.642-.969l9.664-3.717a2.993,2.993,0,0,0,1.42-1.136L51.5,31.058A2.988,2.988,0,0,0,52,29.4v-.86l5.555-3.7A1,1,0,0,0,58,24V18.414l1.707-1.707A1,1,0,0,0,59.707,15.293ZM52,6.465,48,9.131V7.618l4-2ZM26.745,11.746l1.3-.649-2.326,5.584-.891-1.1ZM18.454,26,13.2,20h.434l5.721,4.768A1,1,0,0,0,20,25h4.623l.777,1Z"/><path d="M45,10a1,1,0,0,1-1-1V7a1,1,0,0,1,2,0V9A1,1,0,0,1,45,10Z" style="fill:#fff"/></g></svg>