<svg xmlns="http://www.w3.org/2000/svg" viewBox="0 0 64 64"><g id="_12-Eyeshadow" data-name="12-Eyeshadow"><rect x="14" y="46" width="3" height="3" style="fill:#c2b2b3"/><rect x="47" y="46" width="3" height="3" style="fill:#c2b2b3"/><rect x="17" y="46" width="30" height="3" style="fill:#e6677d"/><path d="M14,46v3s0,1-3,1-3-2-3-2V47s0-2,3-2S14,46,14,46Z" style="fill:#5c514b"/><path d="M53,45c3,0,3,2,3,2v1s0,2-3,2-3-1-3-1V46S50,45,53,45Z" style="fill:#5c514b"/><path d="M9,47V46a1.693,1.693,0,0,1,.158-.631A1.963,1.963,0,0,0,8,47v1s0,2,3,2,3-1,3-1v-.225A7.207,7.207,0,0,1,12,49C9,49,9,47,9,47Z" style="fill:#38312d"/><path d="M54.842,45.369A1.693,1.693,0,0,1,55,46v1s0,2-3,2a7.207,7.207,0,0,1-2-.225V49s0,1,3,1,3-2,3-2V47A1.963,1.963,0,0,0,54.842,45.369Z" style="fill:#38312d"/><rect x="28" y="26" width="6" height="16" style="fill:#f8bcbc"/><rect x="37" y="26" width="4" height="16" style="fill:#ffd6d6"/><rect x="19" y="26" width="6" height="16" style="fill:#f59ca2"/><rect x="44" y="26" width="12" height="4" style="fill:#fff0e6"/><rect x="44" y="33" width="12" height="8" style="fill:#f4c39a"/><rect x="8" y="26" width="8" height="16" style="fill:#e6677d"/><rect x="4" y="20" width="6" height="3" style="fill:#a14756"/><rect x="54" y="20" width="6" height="3" style="fill:#a14756"/><polygon points="63 12 63 12 60 20 54 20 10 20 4 20 1 12 1 12 63 12" style="fill:#b89a9c"/><rect x="1" y="9" width="62" height="3" style="fill:#f8eae9"/><path d="M44,33v8H56V33Zm12-3V26H44v4ZM11,45c-3,0-3,2-3,2v1s0,2,3,2,3-1,3-1H50s0,1,3,1,3-2,3-2V47s0-2-3-2-3,1-3,1H14S14,45,11,45ZM8,42h8V26H8ZM19,26V42h6V26Zm9,0V42h6V26ZM10,23H60V55H40l-2-2H26l-2,2H4V23Zm27,3V42h4V26Z" style="fill:#f2d2d7"/><path d="M60,20H54v3h2a2,2,0,0,1,2-2h2Z" style="fill:#803844"/><path d="M10,20H4v3H6a2,2,0,0,1,2-2h2Z" style="fill:#803844"/><polygon points="16 13 11 18 19 18 24 13 16 13" style="fill:#8dbdd9"/><polygon points="6 13 8 18 13 13 6 13" style="fill:#8dbdd9"/><polygon points="24 13 19 18 34 18 39 13 24 13" style="fill:#a6deff"/><polygon points="13 13 8 18 11 18 16 13 13 13" style="fill:#a6deff"/><polygon points="58 13 50 13 45 18 56 18 58 13" style="fill:#d1eeff"/><polygon points="39 13 34 18 37 18 42 13 39 13" style="fill:#d1eeff"/><polygon points="42 13 37 18 45 18 50 13 42 13" style="fill:#a6deff"/><path d="M8,9H8a2,2,0,0,0,2,2H63v1H1V9Z" style="fill:#edc9cb"/><polygon points="40 53 39 52 25 52 24 53 4 53 4 55 22 55 24 55 26 53 38 53 40 55 42 55 60 55 60 53 40 53" style="fill:#d6a7ae"/><rect x="4" y="23" width="56" height="1" style="fill:#d6a7ae"/><path d="M14,46h1v1a1,1,0,0,0,1,1h1v1H14Z" style="fill:#b89a9c"/><rect x="17" y="48" width="30" height="1" style="fill:#d45f73"/><path d="M50,46v3H47V48h1a1,1,0,0,0,1-1V46Z" style="fill:#b89a9c"/><rect x="26" y="9" width="26" height="2" rx="1" style="fill:#fff5f5"/><rect x="54" y="9" width="5" height="2" rx="1" style="fill:#fff5f5"/><path d="M53,44c-2.1,0-3.1.49-3.579,1H14.579C14.1,44.49,13.1,44,11,44c-3.164,0-4,1.962-4,3v1c0,1.038.836,3,4,3,2.1,0,3.1-.49,3.579-1H49.421c.476.51,1.48,1,3.579,1,3.164,0,4-1.962,4-3V47C57,45.962,56.164,44,53,44Zm-4,4H48V47h1Zm-3,0H18V47H46ZM9,48v-.971c.012-.172.16-1.029,2-1.029a4.615,4.615,0,0,1,2,.292v2.416A4.615,4.615,0,0,1,11,49C9.159,49,9.011,48.143,9,48Zm6-1h1v1H15Zm38,2a4.615,4.615,0,0,1-2-.292V46.292A4.615,4.615,0,0,1,53,46c1.841,0,1.989.857,2,1v.971C54.989,48.143,54.841,49,53,49Z"/><path d="M56,32H44a1,1,0,0,0-1,1v8a1,1,0,0,0,1,1H56a1,1,0,0,0,1-1V33A1,1,0,0,0,56,32Zm-1,8H45V34H55Z"/><path d="M43,26v4a1,1,0,0,0,1,1H56a1,1,0,0,0,1-1V26a1,1,0,0,0-1-1H44A1,1,0,0,0,43,26Zm2,1H55v2H45Z"/><path d="M8,43h8a1,1,0,0,0,1-1V26a1,1,0,0,0-1-1H8a1,1,0,0,0-1,1V42A1,1,0,0,0,8,43ZM9,27h6V41H9Z"/><path d="M19,43h6a1,1,0,0,0,1-1V26a1,1,0,0,0-1-1H19a1,1,0,0,0-1,1V42A1,1,0,0,0,19,43Zm1-16h4V41H20Z"/><path d="M28,43h6a1,1,0,0,0,1-1V26a1,1,0,0,0-1-1H28a1,1,0,0,0-1,1V42A1,1,0,0,0,28,43Zm1-16h4V41H29Z"/><path d="M37,43h4a1,1,0,0,0,1-1V26a1,1,0,0,0-1-1H37a1,1,0,0,0-1,1V42A1,1,0,0,0,37,43Zm1-16h2V41H38Z"/><path d="M64,9a1,1,0,0,0-1-1H1A1,1,0,0,0,0,9v3a.991.991,0,0,0,.07.349l-.007,0L3,20.182V55a1,1,0,0,0,1,1H24a1,1,0,0,0,.707-.293L26.414,54H37.586l1.707,1.707A1,1,0,0,0,40,56H60a1,1,0,0,0,1-1V20.182l2.937-7.831-.007,0A.991.991,0,0,0,64,12ZM2,10H62v1H10v2H61.557l-2.25,6H54a1,1,0,0,0-1,1v2H11V21H51V19H4.693l-2.25-6H4V11H2ZM59,22H55V21h4ZM9,22H5V21H9ZM59,54H40.414l-1.707-1.707A1,1,0,0,0,38,52H26a1,1,0,0,0-.707.293L23.586,54H5V24H59Z"/><rect x="6" y="11" width="2" height="2"/></g></svg>