<svg xmlns="http://www.w3.org/2000/svg" viewBox="0 0 64 64"><g id="_12-Fishing_hook" data-name="12-Fishing hook"><path d="M27,30.482c-3.83-4.62-5.55-9.961-4.84-14.192a22.189,22.189,0,0,0,6.51,12.032c6.9,6.891,16.222,8.752,20.822,4.161a8.612,8.612,0,0,0,2.35-4.771c.52,3.471-.21,6.631-2.35,8.771-2.88,2.871-7.611,3.221-12.441,1.381a24.254,24.254,0,0,1-8.381-5.541A23.553,23.553,0,0,1,27,30.482Z" style="fill:#3a73a0"/><path d="M30,9.059c4.711-.47,10.591,1.89,15.332,6.621a22.189,22.189,0,0,1,6.51,12.032,8.612,8.612,0,0,1-2.35,4.771c-4.6,4.591-13.921,2.73-20.822-4.161a22.189,22.189,0,0,1-6.51-12.032,8.612,8.612,0,0,1,2.35-4.771A8.855,8.855,0,0,1,30,9.059Zm0,3a4.716,4.716,0,0,0-1.08.26c-2.13.741-3.37,2.541-2.77,4.021s2.8,2.08,4.93,1.34,3.371-2.54,2.771-4.02C33.348,12.429,31.747,11.809,30,12.059Z" style="fill:#6da3c4"/><path d="M37.05,37.86,37,38a3,3,0,0,1-3,3H30a3,3,0,0,1-3-3V30.48a23.723,23.723,0,0,0,1.67,1.84A24.247,24.247,0,0,0,37.05,37.86Z" style="fill:#55634a"/><polygon points="34 41 34 45 33 47 32 47 31 47 30 45 30 41 34 41" style="fill:#5b6880"/><ellipse cx="30" cy="4" rx="2" ry="3" style="fill:#6293b1"/><path d="M30,5c-.866,0-1.6-.836-1.877-2A4.285,4.285,0,0,0,28,4c0,1.66.9,3,2,3s2-1.34,2-3a4.285,4.285,0,0,0-.123-1C31.6,4.164,30.866,5,30,5Z" style="fill:#3a73a0"/><path d="M24.964,11.107c-.155.133-.308.267-.454.413a8.609,8.609,0,0,0-2.35,4.77,22.184,22.184,0,0,0,6.51,12.03c6.9,6.89,16.22,8.75,20.82,4.16a8.52,8.52,0,0,0,2.277-4.459c-.258.028-.515.06-.767.067C27.391,28.721,24.516,17.827,24.964,11.107Z" style="fill:#6597b5"/><path d="M36.239,13.581A5.943,5.943,0,0,0,37.66,15.1a35.174,35.174,0,0,0,6.3,4.448,3.91,3.91,0,0,0,1.111.434.812.812,0,0,0,.254.014.561.561,0,0,0,.251-.113,1.184,1.184,0,0,0,.312-1.431,4.325,4.325,0,0,0-1.082-1.423,28.923,28.923,0,0,0-5.778-4.1c-.617-.352-1.783-1.083-2.537-.9C35.772,12.2,35.984,13.12,36.239,13.581Z" style="fill:#82b3d1"/><path d="M46,36.5a2.5,2.5,0,0,0-.73-1.766c-4.886,1.092-11.424-1.245-16.6-6.414-.251-.25-.478-.511-.715-.767a1.873,1.873,0,0,0-2.041,1.511c.343.477.7.951,1.086,1.416a23.723,23.723,0,0,0,1.67,1.84,24.247,24.247,0,0,0,8.38,5.54,15.345,15.345,0,0,0,7.031,1.065A2.5,2.5,0,0,0,46,36.5Z" style="fill:#33658c"/><path d="M37.05,37.86a24.247,24.247,0,0,1-8.38-5.54A23.723,23.723,0,0,1,27,30.48V38a3,3,0,0,0,3,3,1,1,0,0,1-1-1V37.394a1,1,0,0,1,1.632-.772A10.2,10.2,0,0,0,36.82,38.99,2.98,2.98,0,0,0,37,38Z" style="fill:#455040"/><path d="M48.446,23.346a3.954,3.954,0,0,0-.559-2.364,1.3,1.3,0,0,0-2.027-.633c-.936.794.131,2.337.617,2.977a2.58,2.58,0,0,0,.46.5,1.013,1.013,0,0,0,.875.2A.917.917,0,0,0,48.446,23.346Z" style="fill:#82b3d1"/><path d="M29,7.763v3.5c-.136.038-.272.061-.408.109a5.486,5.486,0,0,0-3.269,2.755,3.259,3.259,0,0,0-.1,2.585A4.125,4.125,0,0,0,29.24,19a6.608,6.608,0,0,0,2.168-.376,5.486,5.486,0,0,0,3.269-2.755,3.259,3.259,0,0,0,.1-2.585A4.049,4.049,0,0,0,31,11.019V7.763A4.024,4.024,0,0,0,33,4c0-2.243-1.317-4-3-4s-3,1.757-3,4A4.024,4.024,0,0,0,29,7.763Zm3.923,6.272a1.251,1.251,0,0,1-.067,1.01,3.552,3.552,0,0,1-2.1,1.695c-1.737.6-3.332.076-3.675-.775a1.251,1.251,0,0,1,.067-1.01A3.428,3.428,0,0,1,29,13.37V15h2V13.014A2.147,2.147,0,0,1,32.923,14.035ZM30,2c.408,0,1,.779,1,2s-.592,2-1,2-1-.779-1-2S29.592,2,30,2Z"/><path d="M33.9,47.447l1-2A1,1,0,0,0,35,45V41.858a3.993,3.993,0,0,0,2.809-2.7,16.814,16.814,0,0,0,5,.816A10.2,10.2,0,0,0,50.2,37.187c2.281-2.28,3.215-5.7,2.63-9.623a23.419,23.419,0,0,0-6.8-12.591C41.9,10.84,36.8,8.308,32.061,8.026l-.12,2c4.2.25,8.94,2.629,12.679,6.366a21.5,21.5,0,0,1,6.2,11.291c-.04.219-.1.424-.15.633-.045.173-.079.354-.132.52-.073.228-.169.438-.259.653-.062.147-.113.3-.182.445a7.377,7.377,0,0,1-.393.661c-.066.1-.121.219-.193.319a6.666,6.666,0,0,1-.728.862c-4.2,4.2-12.91,2.332-19.407-4.16q-.629-.628-1.2-1.291c-.149-.172-.283-.352-.427-.526-.226-.275-.457-.546-.668-.827-.156-.207-.3-.421-.443-.632-.181-.256-.369-.51-.537-.771-.145-.223-.27-.452-.405-.677-.153-.255-.313-.508-.454-.765-.125-.23-.231-.463-.347-.694-.129-.258-.266-.515-.382-.774-.105-.233-.189-.467-.284-.7-.105-.26-.218-.519-.31-.78-.082-.232-.143-.463-.215-.7-.081-.263-.169-.526-.236-.788-.059-.228-.1-.454-.144-.681-.051-.243-.108-.486-.146-.727a7.547,7.547,0,0,1,2.038-4.055,7.331,7.331,0,0,1,3.079-1.816L27.707,8.5A9.313,9.313,0,0,0,23.8,10.813a9.566,9.566,0,0,0-2.628,5.308h0c-.9,5.343,1.7,11.82,6.792,16.905a25.336,25.336,0,0,0,7.974,5.445A2,2,0,0,1,34,40H30a2,2,0,0,1-2-2V34H26v4a4,4,0,0,0,3,3.858V45a1,1,0,0,0,.105.447l1,2A1,1,0,0,0,31,48V58a3.98,3.98,0,0,1-1.5,3.1A3.958,3.958,0,0,1,28,58V54.414l1.293,1.293,1.414-1.414-3-3A1,1,0,0,0,26,52v6a5.94,5.94,0,0,0,1.489,3.951A3.931,3.931,0,0,1,27,62a4,4,0,0,1-4-4V54.414l1.293,1.293,1.414-1.414-3-3A1,1,0,0,0,21,52v6a6,6,0,0,0,11,3.31A6,6,0,0,0,43,58V52a1,1,0,0,0-1.707-.707l-3,3,1.414,1.414L41,54.414V58a4,4,0,0,1-8,0V48A1,1,0,0,0,33.9,47.447ZM24.708,25.086q.353.523.735,1.033l.009.012c.334.446.69.881,1.056,1.31.093.11.187.218.283.327.378.429.765.851,1.173,1.259s.826.791,1.249,1.164c.088.077.174.155.262.23q.622.535,1.263,1.022c.07.053.142.1.213.156q.6.447,1.216.851c.06.039.119.081.179.12.443.285.889.549,1.338.8l.273.149c.457.247.916.482,1.377.692l.041.018c.453.206.907.39,1.361.56.083.031.165.064.248.094.454.163.907.31,1.358.437.074.021.148.039.221.059.431.116.86.217,1.286.3l.127.026c.448.083.891.143,1.33.187l.262.025c.418.035.833.059,1.24.059l.053,0c.058,0,.114-.006.172-.007q.561-.009,1.1-.065c.125-.013.248-.029.371-.046q.463-.061.91-.157c.112-.024.224-.045.334-.072a10.245,10.245,0,0,0,1.153-.348c.03-.011.058-.026.088-.037a10,10,0,0,0,.988-.447c.105-.055.207-.114.309-.173.251-.142.493-.3.729-.462.095-.066.191-.13.283-.2a8.829,8.829,0,0,0,.9-.771c.123-.123.241-.249.357-.378a7.27,7.27,0,0,1-1.771,2.963c-4.2,4.2-12.91,2.332-19.407-4.16A23.9,23.9,0,0,1,24.708,25.086ZM32.382,46h-.764L31,44.764V42h2v2.764Z"/></g></svg>