<svg xmlns="http://www.w3.org/2000/svg" viewBox="0 0 64 64"><title>12-Yoga</title><g id="_12-Yoga" data-name="12-Yoga"><rect x="1" y="57" width="62" height="4" style="fill:#ff73a5"/><rect x="1" y="59" width="62" height="2" style="fill:#cf6799"/><path d="M45,38V36a4,4,0,0,0,4-4h2A6.006,6.006,0,0,1,45,38Z" style="fill:#dce1eb"/><path d="M45,43V41a9.01,9.01,0,0,0,9-9h2A11.013,11.013,0,0,1,45,43Z" style="fill:#dce1eb"/><path d="M30,5v6L27,8a2.835,2.835,0,0,1-1.16-.24,5.026,5.026,0,0,0-1.3-2.3A4.691,4.691,0,0,0,24,5c0-1.66,1.34-2,3-2S30,3.34,30,5Z" style="fill:#7e8596"/><path d="M28.5,6.5a2.835,2.835,0,0,1-1.16-.24,5.026,5.026,0,0,0-1.3-2.3,4.691,4.691,0,0,0-.54-.46,2.385,2.385,0,0,1,.038-.354A1.746,1.746,0,0,0,24,5a4.691,4.691,0,0,1,.54.46,5.026,5.026,0,0,1,1.3,2.3A2.835,2.835,0,0,0,27,8l3,3V8Z" style="fill:#707789"/><path d="M31.96,19.82l-2.4.75-2.77.87a2.236,2.236,0,0,1-2.64-1.17,2.036,2.036,0,0,1-.18-.83,2.107,2.107,0,0,1,1.63-2.05l1.06-.25,4.37-1.03Z" style="fill:#8f4cd6"/><path d="M29.56,20.57,35,27l-5,5L18,22a17.834,17.834,0,0,1,1.62-6.19A5.225,5.225,0,0,0,21,16a4.971,4.971,0,0,0,3.49-1.42l2.17,2.56-1.06.25a2.107,2.107,0,0,0-1.63,2.05,2.036,2.036,0,0,0,.18.83,2.236,2.236,0,0,0,2.64,1.17Z" style="fill:#b674f2"/><path d="M26.5,17.179l.164-.039-.188-.222,0,.022A1.94,1.94,0,0,0,26.5,17.179Z" style="fill:#8f4cd6"/><path d="M21.128,15.987c-.043,0-.084.013-.128.013a5.225,5.225,0,0,1-1.38-.19A17.834,17.834,0,0,0,18,22L30,32l2.5-2.5-12-10A12.587,12.587,0,0,1,21.128,15.987Z" style="fill:#8f4cd6"/><polygon points="36 54 36 57 29 57 31 54 36 54" style="fill:#ffdecf"/><polygon points="48 12 46 16 42 16 42 12 48 12" style="fill:#ffdecf"/><path d="M40.47,15.42a1.661,1.661,0,0,1,.08.58,1.636,1.636,0,0,1-1.14,1.5l-7.45,2.32-.93-3.71,7.52-1.77A1.631,1.631,0,0,1,40.47,15.42Z" style="fill:#ffdecf"/><path d="M41.1,27.01c.24-4.24.8-10.02.89-10.9A.866.866,0,0,0,42,16h4V30a2.938,2.938,0,0,1-3,3H37a31.393,31.393,0,0,1-1,9,4.38,4.38,0,0,0,1,3,41.263,41.263,0,0,1-1,9H31V35a4.38,4.38,0,0,0-1-3l5-5h6Z" style="fill:#7e8596"/><path d="M35,33a31.393,31.393,0,0,1-1,9,4.38,4.38,0,0,0,1,3,41.263,41.263,0,0,1-1,9h2a41.263,41.263,0,0,0,1-9,4.38,4.38,0,0,1-1-3,31.393,31.393,0,0,0,1-9Z" style="fill:#707789"/><path d="M44,16V30a2.938,2.938,0,0,1-3,3h2a2.938,2.938,0,0,0,3-3V16Z" style="fill:#707789"/><path d="M24.49,14.58A4.971,4.971,0,0,1,21,16a5.225,5.225,0,0,1-1.38-.19A5.009,5.009,0,0,1,16,11V9a5,5,0,0,1,5-5,4.941,4.941,0,0,1,3,1,4.691,4.691,0,0,1,.54.46,5.026,5.026,0,0,1,1.3,2.3A4.635,4.635,0,0,1,26,9v2A5,5,0,0,1,24.49,14.58Z" style="fill:#ffdecf"/><path d="M25.84,7.76a5.026,5.026,0,0,0-1.3-2.3A4.691,4.691,0,0,0,24,5a4.842,4.842,0,0,0-4.466-.756A4.9,4.9,0,0,1,21,5a4.691,4.691,0,0,1,.54.46,5.026,5.026,0,0,1,1.3,2.3A4.635,4.635,0,0,1,23,9v2a4.93,4.93,0,0,1-3.526,4.755c.05.016.1.041.146.055A5.225,5.225,0,0,0,21,16a5,5,0,0,0,5-5V9A4.635,4.635,0,0,0,25.84,7.76Z" style="fill:#ffcdbe"/><path d="M63,56H37V54.119A42.393,42.393,0,0,0,38,45a1.047,1.047,0,0,0-.281-.7A3.383,3.383,0,0,1,37,42.143,32.936,32.936,0,0,0,37.982,34H43a3.888,3.888,0,0,0,4-4V16.236l1.9-3.789A1,1,0,0,0,48,11H42a1,1,0,0,0-1,1v2.329a2.622,2.622,0,0,0-2.68-.963L30.8,15.136h0l-3.774.889L25.8,14.583A5.945,5.945,0,0,0,27,11V9.414l2.293,2.293A1,1,0,0,0,31,11V5c0-1.991-1.346-3-4-3-1.869,0-3.075.511-3.633,1.5A5.939,5.939,0,0,0,21,3a6.006,6.006,0,0,0-6,6v2a6.03,6.03,0,0,0,3.316,5.357A16.58,16.58,0,0,0,17,22a1,1,0,0,0,.359.768L29.3,32.721A3.5,3.5,0,0,1,30,35V53.7L28.465,56H1a1,1,0,0,0-1,1v4a1,1,0,0,0,1,1H63a1,1,0,0,0,1-1V57A1,1,0,0,0,63,56ZM31.535,55H35v1H30.868ZM45,30a1.882,1.882,0,0,1-2,2H34v2h1.99a29.529,29.529,0,0,1-.938,7.684A1,1,0,0,0,35,42a5.66,5.66,0,0,0,1,3.352A41.969,41.969,0,0,1,35.2,53H32V35a5.84,5.84,0,0,0-.706-2.88L35.414,28h4.638c-.034.811-.052,1.475-.052,2h2c0-.7.032-1.662.1-2.934.2-3.473.616-8.068.808-10.066H45Zm1.382-17-1,2H43V13Zm-5.554,4.744c-.194,2.073-.487,5.4-.669,8.256H35.464L31.3,21.079l8.4-2.623A2.6,2.6,0,0,0,40.828,17.744Zm-15,.619L30.3,17.31l.463,1.843-4.267,1.332a1.246,1.246,0,0,1-1.43-.621,1.049,1.049,0,0,1-.094-.424A1.1,1.1,0,0,1,25.829,18.363Zm12.946-3.049a.628.628,0,0,1,.742.41.661.661,0,0,1,.034.231.643.643,0,0,1-.438.59l-6.442,2.012-.426-1.706ZM27,4c2,0,2,.531,2,1V8.586L27.707,7.293A1,1,0,0,0,27,7a1.981,1.981,0,0,1-.356-.032,6.075,6.075,0,0,0-1.4-2.215c-.062-.063-.126-.123-.19-.182C25.186,4.257,25.608,4,27,4ZM17,11V9a4,4,0,0,1,4-4,3.931,3.931,0,0,1,2.4.8v0l.01.012a3.446,3.446,0,0,1,.42.356A4.023,4.023,0,0,1,24.87,8c0,.008.009.014.011.022h0A3.651,3.651,0,0,1,25,9v2a3.984,3.984,0,0,1-1.209,2.865A4,4,0,0,1,17,11Zm3.232,5.947A6.044,6.044,0,0,0,21,17a5.951,5.951,0,0,0,3.355-1.034l.518.612a3.089,3.089,0,0,0-1.9,2.862,3.011,3.011,0,0,0,.259,1.219,3.2,3.2,0,0,0,2.938,1.874,3.117,3.117,0,0,0,.923-.139l2.138-.667,4.415,5.216-3.705,3.7-10.921-9.1A16.57,16.57,0,0,1,20.232,16.947ZM62,60H2V58H62Z"/><path d="M45,36v2a6.006,6.006,0,0,0,6-6H49A4,4,0,0,1,45,36Z"/><path d="M45,43A11.013,11.013,0,0,0,56,32H54a9.01,9.01,0,0,1-9,9Z"/></g></svg>