<?xml version="1.0" encoding="utf-8"?>
<!-- Generator: Adobe Illustrator 16.0.0, SVG Export Plug-In . SVG Version: 6.00 Build 0)  -->
<!DOCTYPE svg PUBLIC "-//W3C//DTD SVG 1.1//EN" "http://www.w3.org/Graphics/SVG/1.1/DTD/svg11.dtd">
<svg version="1.1" xmlns="http://www.w3.org/2000/svg" xmlns:xlink="http://www.w3.org/1999/xlink" x="0px" y="0px" width="64px"
	 height="64px" viewBox="0 0 64 64" enable-background="new 0 0 64 64" xml:space="preserve">
<g id="_x32_5_purse_x2C__money_x2C__coin_x2C__banknote_x2C__payment_x2C__shop_x2C__shopping">
</g>
<g id="_x32_4_pay_x2C__click_x2C__hand_x2C__coin_x2C__money_x2C__shop_x2C__payment">
</g>
<g id="_x32_3_card_x2C__discount_x2C__sale_x2C__shop_x2C__shopping_x2C__commerce_x2C__market">
</g>
<g id="_x32_2_safe_x2C__box_x2C__key_x2C__thing_x2C__shop_x2C__shopping_x2C__commerce">
</g>
<g id="_x32_1_cashbox_x2C__money_x2C__purchase_x2C__list_x2C__check_x2C__shop_x2C__shopping">
</g>
<g id="_x32_0_search_x2C__magnifier_x2C__basket_x2C__shop_x2C__shopping_x2C__commerce_x2C__market">
</g>
<g id="_x31_9_return_x2C__box_x2C__purchase_x2C__shipping_x2C__delivery_x2C__shop_x2C__shopping">
</g>
<g id="_x31_8_review_x2C__client_x2C__buyer_x2C__talk_x2C__shop_x2C__shopping_x2C__commerce">
</g>
<g id="_x31_7_manager_x2C__consultant_x2C__shop_x2C__shopping_x2C__commerce_x2C__market_x2C__badge">
</g>
<g id="_x31_6_check_x2C__list_x2C__cashbox_x2C__purchase_x2C__shop_x2C__shopping_x2C__commerce">
</g>
<g id="_x31_5_coupon_x2C__sale_x2C__discount_x2C__shop_x2C__shopping_x2C__commerce_x2C__market">
</g>
<g id="_x31_4_sale_x2C__discount_x2C__box_x2C__gift_x2C__shop_x2C__shopping_x2C__commerce">
</g>
<g id="_x31_3_map_x2C__pin_x2C__marker_x2C__location_x2C__shop_x2C__shopping_x2C__basket">
	<g>
		<g>
			<rect x="0.5" y="11.001" fill="#E6E9ED" width="63.002" height="42"/>
			<polygon fill="#F5F7FA" points="12.5,49.001 8.5,53.001 0.499,53.001 0.5,37.05 0.55,37.05 			"/>
			<polygon fill="#F5F7FA" points="40.5,48.999 36.501,53.001 32.501,53.001 20.66,41.161 16.66,45.161 3.5,32.001 13.5,22.001 			
				"/>
			<polygon fill="#F5F7FA" points="25.501,53.001 23.502,53.001 15.499,52.999 20.5,47.999 			"/>
			<polygon fill="#F5F7FA" points="63.501,47.001 63.501,53.001 57.501,53.001 			"/>
			<polygon fill="#E6E9ED" points="63.501,40.001 63.501,47.001 57.501,53.001 50.501,53.001 			"/>
			<polygon fill="#CCD1D9" points="50.501,53.001 45.5,52.999 48.5,50.001 12.719,14.22 17.501,14.001 51.001,47.501 63.5,35.001 
				63.501,40.001 			"/>
			<polygon fill="#F5F7FA" points="63.501,19.001 63.501,27.001 61.499,29.001 57.501,25.001 			"/>
			<polygon fill="#F5F7FA" points="50.501,40.001 57.501,33.001 35.5,11.001 21.5,11.001 			"/>
			<polygon fill="#F5F7FA" points="3.44,24.021 0.499,21.071 0.5,26.96 			"/>
			<polygon fill="#CCD1D9" points="14.5,10.999 9.5,11.001 12.719,14.22 17.501,14.001 			"/>
		</g>
		<g>
			<path fill="#FFCE54" d="M36.05,27H28h-2v2h1v0.03L28,35h8l1-5.97V29h1v-2H36.05z M32,16c6.63,0,12,5.37,12,12
				c0,6.62-9.391,20-12,20c-1.79,0-6.79-6.319-9.74-12.43c-0.67-1.39-1.24-2.761-1.63-4.05C20.23,30.229,20,29.03,20,28
				C20,21.37,25.37,16,32,16z"/>
			<g>
				<path fill="#656D78" d="M28,28.501c-0.104,0-0.21-0.032-0.3-0.1c-0.221-0.166-0.266-0.479-0.101-0.7l3-4
					c0.168-0.221,0.481-0.266,0.7-0.101c0.221,0.166,0.266,0.479,0.101,0.7l-3,4C28.302,28.432,28.151,28.501,28,28.501z"/>
			</g>
			<g>
				<path fill="#656D78" d="M36.05,28.501c-0.15,0-0.299-0.067-0.397-0.197l-3.05-4c-0.168-0.219-0.125-0.533,0.095-0.7
					c0.217-0.168,0.532-0.127,0.7,0.095l3.05,4c0.168,0.219,0.125,0.533-0.095,0.7C36.263,28.468,36.156,28.501,36.05,28.501z"/>
			</g>
			<polygon fill="#EF6C77" points="37,29 27,29 26,29 26,27 28,27 36.05,27 38,27 38,29 			"/>
			<polygon fill="#ED5564" points="27,29 37,29 37,29.03 36,35 28,35 27,29.03 			"/>
			<g>
				<path fill="#DA4453" d="M30,33.5c-0.276,0-0.5-0.224-0.5-0.5v-2c0-0.276,0.224-0.5,0.5-0.5s0.5,0.224,0.5,0.5v2
					C30.5,33.276,30.276,33.5,30,33.5z"/>
			</g>
			<g>
				<path fill="#DA4453" d="M32,33.5c-0.276,0-0.5-0.224-0.5-0.5v-2c0-0.276,0.224-0.5,0.5-0.5s0.5,0.224,0.5,0.5v2
					C32.5,33.276,32.276,33.5,32,33.5z"/>
			</g>
			<g>
				<path fill="#DA4453" d="M34,33.5c-0.276,0-0.5-0.224-0.5-0.5v-2c0-0.276,0.224-0.5,0.5-0.5s0.5,0.224,0.5,0.5v2
					C34.5,33.276,34.276,33.5,34,33.5z"/>
			</g>
		</g>
	</g>
</g>
<g id="_x31_2_operator_x2C__call_x2C__center_x2C__shop_x2C__shopping_x2C__commerce_x2C__market">
</g>
<g id="_x31_1_courier_x2C__box_x2C__shipping_x2C__purchase_x2C__shop_x2C__shopping_x2C__commerce">
</g>
<g id="_x31_0_box_x2C__shipping_x2C__delivery_x2C__purchase_x2C__shop_x2C__shopping_x2C__commerce">
</g>
<g id="_x39__shipping_x2C__delivery_x2C__box_x2C__crane_x2C__shop_x2C__shopping_x2C__commerce">
</g>
<g id="_x38__computer_x2C__monitor_x2C__desktop_x2C__shop_x2C__shopping_x2C__commerce_x2C__market">
</g>
<g id="_x37__mobile_x2C__phone_x2C__app_x2C__shop_x2C__shopping_x2C__commerce_x2C__market">
</g>
<g id="_x36__food_x2C__market_x2C__purchase_x2C__shop_x2C__shopping_x2C__commerce_x2C__basket">
</g>
<g id="_x35__discount_x2C__sale_x2C__purchase_x2C__pocket_x2C__shop_x2C__shopping_x2C__commerce">
</g>
<g id="_x34__badge_x2C__discount_x2C__sale_x2C__shop_x2C__shopping_x2C__commerce_x2C__market">
</g>
<g id="_x33__food_x2C__pocket_x2C__purchase_x2C__shop_x2C__shopping_x2C__commerce_x2C__supermarket">
</g>
<g id="_x32__shop_x2C__shopping_x2C__commerce_x2C__supermarket_x2C__market_x2C__cart">
</g>
<g id="_x31__list_x2C__check_x2C__notebook_x2C__pen_x2C__shop_x2C__shopping_x2C__commerce">
</g>
</svg>
