<svg xmlns="http://www.w3.org/2000/svg" viewBox="0 0 64 64"><g id="_13-Buoy" data-name="13-Buoy"><polygon points="20.87 34.13 19 36 17 34 16 33 17.87 31.13 20.87 34.13" style="fill:#c9c6c8"/><path d="M21.39,30.61a15.01,15.01,0,0,0,3.14,2.41l-1.69,1.69a.972.972,0,0,1-1.39,0l-.58-.58-3-3-.58-.58a.972.972,0,0,1,0-1.39l1.69-1.69A15.01,15.01,0,0,0,21.39,30.61Z" style="fill:#6d805f"/><path d="M46.43,9.74a1.968,1.968,0,0,1,0,2.77l-.93.93A15.09,15.09,0,0,0,38.56,6.5l.93-.93a1.968,1.968,0,0,1,2.77,0l2.1,2.1Z" style="fill:#6d805f"/><path d="M24.529,33.021a15,15,0,0,1-4.57-21.97l.1.07c2.08-.69,7.43,1.88,13.18,7.64s8.33,11.1,7.64,13.18l.07.1A15.043,15.043,0,0,1,24.529,33.021Z" style="fill:#edece7"/><path d="M40.879,31.941c.69-2.08-1.88-7.43-7.64-13.18s-11.1-8.33-13.18-7.64l-.1-.07a14.988,14.988,0,0,1,18.6-4.55,15.09,15.09,0,0,1,6.94,6.94,14.988,14.988,0,0,1-4.55,18.6Z" style="fill:#993c35"/><path d="M40.154,28.087A14.986,14.986,0,0,1,20.29,11.071a2.166,2.166,0,0,0-.23.049l-.1-.07a15,15,0,0,0,20.99,20.991l-.07-.1C41.154,31.114,40.9,29.766,40.154,28.087Z" style="fill:#c9c6c8"/><path d="M20.29,11.071c.041-.205.093-.408.142-.612-.16.2-.323.39-.473.591l.1.07A2.166,2.166,0,0,1,20.29,11.071Z" style="fill:#672e25"/><path d="M45.609,24.61a15.042,15.042,0,0,1-1.66,1.431,14.879,14.879,0,0,1-3.795,2.046c.75,1.679,1,3.027.725,3.853l.07.1a14.956,14.956,0,0,0,5.631-8.51C46.275,23.9,45.956,24.264,45.609,24.61Z" style="fill:#672e25"/><path d="M28.21,13.181q-.819-.57-1.59-1.035l-1.035,1.71c.478.29.974.612,1.482.966Z"/><path d="M57.5,45H56c-5.426,0-13.161,3.433-19.985,6.461-1.315.583-2.6,1.153-3.835,1.685A34.862,34.862,0,0,1,18.332,56H17C7.047,56,2,52.972,2,47a9.02,9.02,0,0,1,1.477-5.109l2.816,2.816,1.414-1.414-6-6L.293,38.707l1.754,1.754A10.858,10.858,0,0,0,0,47c0,5.019,2.949,11,17,11h1.332A36.851,36.851,0,0,0,32.97,54.983c1.241-.534,2.534-1.108,3.856-1.694C43.469,50.341,51,47,56,47h1.5a4.5,4.5,0,0,1,0,9H51a7.007,7.007,0,0,0-6.613,4.7A1.964,1.964,0,0,1,42.52,62H42a2,2,0,0,1-2-2V57.414l.293.293,1.414-1.414-2-2A1,1,0,0,0,38,55v5a4,4,0,0,0,4,4h.52a3.965,3.965,0,0,0,3.756-2.644A5.005,5.005,0,0,1,51,58h6.5a6.5,6.5,0,0,0,0-13Z"/><path d="M10.707,41.293,8.513,39.1A11.961,11.961,0,0,1,10,39c4.734,0,6.658-1.716,7.447-3.139l.846.846a1,1,0,0,0,1.414,0l1.174-1.174a1.964,1.964,0,0,0,2.663-.113l1.176-1.176A15.988,15.988,0,0,0,46.681,13.671l.451-.452a2.965,2.965,0,0,0,0-4.189L45.848,7.746A7.6,7.6,0,0,1,50,6c.14,0,14-.294,14-5H62c0,1.448-7.043,3-12,3a9.82,9.82,0,0,0-5.579,2.319L42.97,4.868a2.963,2.963,0,0,0-4.189,0l-.452.451A15.986,15.986,0,0,0,17.758,27.277l-1.177,1.179a1.976,1.976,0,0,0-.114,2.663l-1.174,1.174a1,1,0,0,0,0,1.414l.638.638C15.7,35.148,14.658,37,10,37a12.706,12.706,0,0,0-3.2.389l-2.1-2.1L3.293,36.707l6,6ZM41.556,6.282l4.162,4.162a.963.963,0,0,1,0,1.359A15.462,15.462,0,0,0,40.2,6.28.964.964,0,0,1,41.556,6.282ZM20.489,12.05a6.138,6.138,0,0,1,3.339.852l.86-1.8a12.281,12.281,0,0,0-2.643-.935c.02-.02.036-.042.056-.061A14,14,0,0,1,41.9,29.9c-.02.021-.043.039-.064.059-.65-3.1-3.559-7.583-7.884-11.909a45.334,45.334,0,0,0-4.342-3.841l-1.221,1.584a43.383,43.383,0,0,1,4.149,3.671c5.734,5.735,7.78,10.508,7.409,12.057A13.99,13.99,0,0,1,20.489,12.05Zm-1.672,17a15.889,15.889,0,0,0,1.87,2.266,16.061,16.061,0,0,0,2.271,1.881l-.8.812L18,29.87Zm-.948,3.5,1.585,1.586L19,34.586,17.414,33Z"/></g></svg>