<svg xmlns="http://www.w3.org/2000/svg" viewBox="0 0 64 64"><g id="_13-Eyebrows" data-name="13-Eyebrows"><path d="M63,25,49.52,22.11A5.35,5.35,0,0,0,48.47,22H2a1,1,0,0,1-1-1,8,8,0,0,1,8-8H44.37a16.008,16.008,0,0,1,11.32,4.69Z" style="fill:#5c514d"/><path d="M57,42a82.418,82.418,0,0,1-28,5c-15,0-19.61-.92-19.98-.99A.031.031,0,0,0,9,46S9,28,21,28C37,28,57,42,57,42Z" style="fill:#cd8d6a"/><path d="M42.24,49.16c-.35.1-.7.2-1.06.29A7.965,7.965,0,0,0,45,54a8.108,8.108,0,0,1-6.89-3.87c-.33.07-.66.13-1,.18C37.53,54.52,39,56,39,56c-3.8-1.08-5.23-3.34-5.76-5.18-.37.03-.74.06-1.11.08L30,58l-1.4-7.01c-.32,0-.64,0-.94-.01-.57,1.81-2.02,3.97-5.71,5.02,0,0,1.38-1.39,1.85-5.3-.41-.05-.81-.1-1.19-.16A8.033,8.033,0,0,1,16,54a8.178,8.178,0,0,0,3.65-4.03c-.53-.13-1.03-.26-1.51-.41A12.021,12.021,0,0,1,12,51a16.747,16.747,0,0,0,3.88-2.22c-4.81-1.92-6.65-2.68-6.86-2.77C9.39,46.08,14,47,29,47a82.418,82.418,0,0,0,28-5,40.164,40.164,0,0,1-7.91,4.72L51,48a25.738,25.738,0,0,1-4.18-.35q-1.005.39-2.1.75A15.016,15.016,0,0,0,49,51,11.354,11.354,0,0,1,42.24,49.16Z" style="fill:#453d38"/><path d="M41.345,18H12.693a2.5,2.5,0,1,1,0-5H9a8,8,0,0,0-8,8,1,1,0,0,0,1,1H48.47a5.35,5.35,0,0,1,1.05.11L63,25l-8.969-4.185A30,30,0,0,0,41.345,18Z" style="fill:#3b3430"/><path d="M25.124,41.828a6.935,6.935,0,0,1-.788-13.635A31.021,31.021,0,0,0,21,28C9,28,9,46,9,46a.031.031,0,0,1,.02.01C9.39,46.08,14,47,29,47a82.418,82.418,0,0,0,28-5C48.037,44.068,33.369,42.809,25.124,41.828Z" style="fill:#9e6d52"/><polygon points="52.64 31 42.63 31 41 28 51 28 52.64 31" style="fill:#f0e5e4"/><polygon points="63 50 63 63 60 63 42.63 31 52.64 31 63 50" style="fill:#d45f73"/><path d="M46.14,19.08,51,28H41L35,17h7.63A4.007,4.007,0,0,1,46.14,19.08Z" style="fill:#3d3633"/><polygon points="45.753 28 41 28 42.63 31 47.338 31 45.753 28" style="fill:#dbd1d0"/><path d="M60,44.5v2.408a2,2,0,0,1-3.77.931L47.338,31H42.63L60,63h3V50Z" style="fill:#b85162"/><path d="M43.081,22.941a2.684,2.684,0,0,1,3.065-3.85l-.006-.011A4.007,4.007,0,0,0,42.63,17H35l6,11h4.753Z" style="fill:#211d1c"/><rect x="33" y="21" width="2.001" height="2"/><path d="M63.707,24.293l-7.313-7.314A16.893,16.893,0,0,0,44.373,12H9a9.011,9.011,0,0,0-9,9,2,2,0,0,0,2,2H31V21H2a7.008,7.008,0,0,1,7-7H44.373a14.9,14.9,0,0,1,10.606,4.394L59.9,23.312l-9.689-2.076-.418,1.956,13,2.786a1,1,0,0,0,.916-1.685Z"/><path d="M47.015,18.605A5,5,0,0,0,42.625,16H35a1,1,0,0,0-.878,1.479l6,11h0l2.261,4.166C34.231,28.905,27.045,27,21,27,10.717,27,8,39.429,8,46h.01a.992.992,0,0,0,.6.923s1.349.564,5.159,2.094a19.484,19.484,0,0,1-2.145,1.055A1,1,0,0,0,12,52a13.442,13.442,0,0,0,6.2-1.332,7.686,7.686,0,0,1-2.646,2.438A1,1,0,0,0,16,55a8.79,8.79,0,0,0,6.531-2.819A7.325,7.325,0,0,1,21.24,55.3a1,1,0,0,0,.985,1.666,9.057,9.057,0,0,0,5.72-4.141L29.02,58.2a1,1,0,0,0,.933.8H30a1,1,0,0,0,.958-.713l1.789-5.962a8.852,8.852,0,0,0,5.979,4.637,1,1,0,0,0,1.12-.444,1.012,1.012,0,0,0-.124-1.21,7.367,7.367,0,0,1-1.317-3.192A8.764,8.764,0,0,0,45,55a1,1,0,0,0,.448-1.9A7.517,7.517,0,0,1,42.8,50.666,13.436,13.436,0,0,0,49,52a1,1,0,0,0,.373-1.928,18.134,18.134,0,0,1-2.6-1.334l.157-.059A26.33,26.33,0,0,0,51,49a.971.971,0,0,0,.241-.039l7.88,14.517,1.758-.956L42.681,29h7.725l.546,1H46v2h6.043L62.122,50.479l1.756-.958-12-22ZM10.029,45.16a31.243,31.243,0,0,1,1.433-7.884C13.3,31.785,16.513,29,21,29c7.842,0,16.733,3.538,23,6.623L48.332,43.6A82.921,82.921,0,0,1,29,46C17.23,46,11.882,45.427,10.029,45.16Zm38.657.649a1,1,0,0,0-.6.828.87.87,0,0,0,0,.184q-.552-.066-1.1-.158a1.014,1.014,0,0,0-.52.052c-.658.251-1.346.5-2.064.739a1,1,0,0,0-.493,1.533,7.39,7.39,0,0,1-1.09-.637,1.011,1.011,0,0,0-.851-.149q-.508.144-1.033.278a1,1,0,0,0-.719,1.219,7.173,7.173,0,0,0,.985,2.181,8.24,8.24,0,0,1-2.263-2.3,1,1,0,0,0-1.02-.425q-.481.093-.972.176a1,1,0,0,0-.829,1.085,16.516,16.516,0,0,0,.725,3.576,5.886,5.886,0,0,1-2.638-3.447,1,1,0,0,0-.961-.726.877.877,0,0,0-.088,0c-.361.032-.724.061-1.092.084a1,1,0,0,0-.893.711l-.977,3.257L29.579,50.8a1,1,0,0,0-.974-.8c-.309,0-.619-.006-.917-.014a1,1,0,0,0-.984.7,5.9,5.9,0,0,1-2.6,3.307,16.079,16.079,0,0,0,.681-3.169,1,1,0,0,0-.876-1.111q-.594-.07-1.16-.155a1.011,1.011,0,0,0-.951.394A7.99,7.99,0,0,1,19.782,51.9a7.346,7.346,0,0,0,.811-1.592,1,1,0,0,0-.7-1.312q-.765-.186-1.464-.393a.994.994,0,0,0-.787.092,8.011,8.011,0,0,1-.817.414,1,1,0,0,0-.573-1.257l-.409-.164C18.911,47.863,23.178,48,29,48a85.143,85.143,0,0,0,20.318-2.581l.043.078C49.135,45.6,48.908,45.711,48.686,45.809ZM41.594,27l-4.909-9h5.94a3,3,0,0,1,2.634,1.563L49.315,27Z"/></g></svg>