<svg xmlns="http://www.w3.org/2000/svg" viewBox="0 0 90 90"><title>13-Flowchart</title><g id="_13-Flowchart" data-name="13-Flowchart"><g id="_Group_" data-name="&lt;Group&gt;"><path d="M73.341,12.662a43,43,0,0,0-56.681,0l-1.32-1.5a45,45,0,0,1,59.319,0Z"/><path d="M45,90A45,45,0,0,1,8.183,19.124l1.634,1.152a43,43,0,1,0,70.5,49.252,43.009,43.009,0,0,0,.069-48.96l1.644-1.136A45,45,0,0,1,45,90Z"/><path d="M82,70H80V14a1,1,0,0,0-1-1H11a1,1,0,0,0-1,1V70H8V14a3,3,0,0,1,3-3H79a3,3,0,0,1,3,3Z"/><path d="M15,21a3,3,0,1,1,3-3A3,3,0,0,1,15,21Zm0-4a1,1,0,1,0,1,1A1,1,0,0,0,15,17Z"/><path d="M23,21a3,3,0,1,1,3-3A3,3,0,0,1,23,21Zm0-4a1,1,0,1,0,1,1A1,1,0,0,0,23,17Z"/><rect x="72" y="15" width="5" height="2"/><rect x="72" y="19" width="5" height="2"/><rect x="9" y="23" width="72" height="2"/><rect x="67" y="12" width="2" height="12"/><path d="M54,40H36a1,1,0,0,1-1-1V29a1,1,0,0,1,1-1H54a1,1,0,0,1,1,1V39A1,1,0,0,1,54,40ZM37,38H53V30H37Z"/><path d="M52,75H38a1,1,0,0,1-1-1V64a1,1,0,0,1,1-1H52a1,1,0,0,1,1,1V74A1,1,0,0,1,52,75ZM39,73H51V65H39Z"/><path d="M71,75H57a1,1,0,0,1-1-1V64a1,1,0,0,1,1-1H71a1,1,0,0,1,1,1V74A1,1,0,0,1,71,75ZM58,73H70V65H58Z"/><path d="M33,75H19a1,1,0,0,1-1-1V64a1,1,0,0,1,1-1H33a1,1,0,0,1,1,1V74A1,1,0,0,1,33,75ZM20,73H32V65H20Z"/><path d="M45,58a1,1,0,0,1-.479-.122l-11-6a1,1,0,0,1,0-1.756l11-6a1,1,0,0,1,.958,0l11,6a1,1,0,0,1,0,1.756l-11,6A1,1,0,0,1,45,58Zm-8.912-7L45,55.861,53.912,51,45,46.139Z"/><path d="M70,57a6,6,0,1,1,6-6A6.006,6.006,0,0,1,70,57Zm0-10a4,4,0,1,0,4,4A4,4,0,0,0,70,47Z"/><path d="M20,57a6,6,0,1,1,6-6A6.006,6.006,0,0,1,20,57Zm0-10a4,4,0,1,0,4,4A4,4,0,0,0,20,47Z"/><rect x="44" y="39" width="2" height="6"/><rect x="25" y="50" width="10" height="2"/><rect x="56" y="50" width="9" height="2"/><rect x="44" y="57" width="2" height="7"/><rect x="33" y="68" width="5" height="2"/><rect x="52" y="68" width="5" height="2"/><path d="M15.707,38.707l-1.414-1.414L17.586,34l-3.293-3.293,1.414-1.414,4,4a1,1,0,0,1,0,1.414Z"/><rect x="21" y="37" width="7" height="2"/></g></g></svg>