<svg xmlns="http://www.w3.org/2000/svg" viewBox="0 0 64 64"><g id="_13-phone" data-name="13-phone"><rect x="31.738" y="50.842" width="3.974" height="10.946" transform="translate(-29.943 40.341) rotate(-45)" style="fill:#d9d9d9"/><rect x="5.698" y="24.802" width="3.974" height="10.946" transform="translate(-19.157 14.301) rotate(-45)" style="fill:#d9d9d9"/><path d="M36.19,61.59,34.78,63H29.15s-7.04-2.81-16.19-11.96S1,34.85,1,34.85V29.22l1.41-1.41,7.74,7.74v.01l-1.41,1.4a46.06,46.06,0,0,0,7.74,10.56,46.06,46.06,0,0,0,10.56,7.74l1.41-1.41Z" style="fill:#ffac5a"/><path d="M31.15,61s-7.04-2.81-16.19-11.96S3,32.85,3,32.85V28.4l-.59-.59L1,29.22v5.63s2.81,7.04,11.96,16.19S29.15,63,29.15,63h5.63l1.41-1.41L35.6,61Z" style="fill:#fc9942"/><path d="M63,43V56a2.006,2.006,0,0,1-2,2H45a2.006,2.006,0,0,1-2-2V53l-4-4h4V45l-.01-.09a21.766,21.766,0,0,0,10.89-4.08L54,41h7A2.006,2.006,0,0,1,63,43Z" style="fill:#80dbff"/><path d="M43,49h2V45l-.01-.09A21.753,21.753,0,0,0,55.629,41H54l-.12-.17a21.766,21.766,0,0,1-10.89,4.08L43,45Z" style="fill:#19cffc"/><path d="M45,56V53l-4-4H39l4,4v3a2.006,2.006,0,0,0,2,2h2A2.006,2.006,0,0,1,45,56Z" style="fill:#19cffc"/><path d="M3,4H29.9A21.979,21.979,0,0,0,19.21,20H13v4L9,20H3a2.006,2.006,0,0,1-2-2V6A2.006,2.006,0,0,1,3,4Z" style="fill:#64e1dc"/><path d="M3,18V6A2.006,2.006,0,0,1,5,4H3A2.006,2.006,0,0,0,1,6V18a2.006,2.006,0,0,0,2,2H5A2.006,2.006,0,0,1,3,18Z" style="fill:#00c8c8"/><rect x="39" y="34" width="4" height="4" style="fill:#ff636e"/><path d="M51,18a10.009,10.009,0,0,1-8,9.8V30H39V24h2a6,6,0,1,0-6-6H31a10,10,0,0,1,20,0Z" style="fill:#ff636e"/><path d="M29.9,4A22,22,0,0,1,53.88,40.83a21.766,21.766,0,0,1-10.89,4.08c-.65.06-1.32.09-1.99.09a21.883,21.883,0,0,1-13.49-4.63L21,42l2.08-6.24A21.874,21.874,0,0,1,19,23a21.189,21.189,0,0,1,.21-3A21.979,21.979,0,0,1,29.9,4ZM43,27.8A10,10,0,1,0,31,18h4a6,6,0,1,1,6,6H39v6h4ZM43,38V34H39v4Z" style="fill:#e4e4e4"/><path d="M42.5,12.2A5.978,5.978,0,0,0,35,18h3A6,6,0,0,1,42.5,12.2Z" style="fill:#c1c1c1"/><rect x="43" y="34" width="3" height="4" style="fill:#c1c1c1"/><path d="M51,18a10.009,10.009,0,0,1-8,9.8V30h3V27.8A9.993,9.993,0,0,0,42.5,8.125,10,10,0,0,1,51,18Z" style="fill:#c1c1c1"/><path d="M30.51,40.37l-2.222.556A21.843,21.843,0,0,0,41,45c.489,0,.97-.034,1.451-.066A21.871,21.871,0,0,1,30.51,40.37Z" style="fill:#c1c1c1"/><path d="M24.273,41.18l1.807-5.42A21.874,21.874,0,0,1,22,23a21.189,21.189,0,0,1,.21-3A21.973,21.973,0,0,1,42.462,1.054C41.978,1.022,41.492,1,41,1A21.977,21.977,0,0,0,19.21,20,21.189,21.189,0,0,0,19,23a21.874,21.874,0,0,0,4.08,12.76L21,42Z" style="fill:#c1c1c1"/><path d="M50.5,39.457l-1-1.73A17.068,17.068,0,0,0,58,23h2A19.069,19.069,0,0,1,50.5,39.457Z" style="fill:#c1c1c1"/><path d="M46.278,41.258l-.556-1.922a16.942,16.942,0,0,0,1.888-.669l.78,1.842A18.931,18.931,0,0,1,46.278,41.258Z" style="fill:#c1c1c1"/><rect x="5" y="9" width="2" height="2" style="fill:#1cadb5"/><rect x="9" y="9" width="10" height="2" style="fill:#1cadb5"/><rect x="5" y="13" width="12" height="2" style="fill:#1cadb5"/><rect x="46" y="47" width="2" height="2" style="fill:#1ea1e3"/><rect x="50" y="47" width="10" height="2" style="fill:#1ea1e3"/><rect x="46" y="51" width="14" height="2" style="fill:#1ea1e3"/><path d="M31.966,50.33a1,1,0,0,0-1.414,0l-3.7,3.7a45.615,45.615,0,0,1-9.666-7.215,45.63,45.63,0,0,1-7.216-9.666l3.7-3.7a1,1,0,0,0,0-1.414L5.929,24.293a1,1,0,0,0-1.414,0L.293,28.515A1,1,0,0,0,0,29.222v5.63a1.007,1.007,0,0,0,.071.371c.118.3,3,7.334,12.185,16.521s16.225,12.067,16.52,12.185a1.012,1.012,0,0,0,.372.071h5.63a1,1,0,0,0,.707-.293l4.222-4.223a1,1,0,0,0,0-1.414ZM5.222,26.414l6.327,6.327-1.4,1.4L3.821,27.815ZM29.354,62c-1.108-.491-7.58-3.566-15.684-11.67S2.491,35.753,2,34.646v-5.01l.407-.407,6.327,6.327-.7.7a1,1,0,0,0-.188,1.154,46.4,46.4,0,0,0,7.928,10.816A46.381,46.381,0,0,0,26.59,56.153a.994.994,0,0,0,1.154-.187l.7-.7,6.327,6.327L34.364,62Zm6.831-1.821-6.326-6.327,1.4-1.4,6.327,6.326Z"/><path d="M41,7A11.013,11.013,0,0,0,30,18a1,1,0,0,0,1,1h4a1,1,0,0,0,1-1,5,5,0,1,1,5,5H39a1,1,0,0,0-1,1v6a1,1,0,0,0,1,1h4a1,1,0,0,0,1-1V28.585A11,11,0,0,0,41,7Zm1.8,19.819a1,1,0,0,0-.8.98V29H40V25h1a7,7,0,1,0-6.929-8H32.055A9,9,0,1,1,42.8,26.819Z"/><path d="M43,33H39a1,1,0,0,0-1,1v4a1,1,0,0,0,1,1h4a1,1,0,0,0,1-1V34A1,1,0,0,0,43,33Zm-1,4H40V35h2Z"/><path d="M58,23a17.068,17.068,0,0,1-8.5,14.727l1,1.73A19.069,19.069,0,0,0,60,23Z"/><path d="M45.722,39.336l.556,1.922a18.931,18.931,0,0,0,2.112-.749l-.78-1.842A16.942,16.942,0,0,1,45.722,39.336Z"/><rect x="5" y="9" width="2" height="2"/><rect x="9" y="9" width="10" height="2"/><rect x="5" y="13" width="12" height="2"/><path d="M61,40H56.476A22.987,22.987,0,0,0,29.664,3H3A3,3,0,0,0,0,6V18a3,3,0,0,0,3,3H8.586l3.707,3.707A1,1,0,0,0,14,24V21h4.092c-.057.66-.092,1.326-.092,2a22.829,22.829,0,0,0,3.974,12.916l-1.923,5.768a1,1,0,0,0,1.192,1.286l6.044-1.511A22.757,22.757,0,0,0,41,46c.335,0,.668-.011,1-.025V48H39a1,1,0,0,0-.707,1.707L42,53.414V56a3,3,0,0,0,3,3H61a3,3,0,0,0,3-3V43A3,3,0,0,0,61,40ZM13,19a1,1,0,0,0-1,1v1.586L9.707,19.293A1,1,0,0,0,9,19H3a1,1,0,0,1-1-1V6A1,1,0,0,1,3,5H26.707a23.013,23.013,0,0,0-8.352,14ZM28.124,39.583a1,1,0,0,0-.856-.181l-4.743,1.186,1.505-4.516a1,1,0,0,0-.135-.9,21.016,21.016,0,1,1,4.229,4.408ZM62,56a1,1,0,0,1-1,1H45a1,1,0,0,1-1-1V53a1,1,0,0,0-.293-.707L41.414,50H43a1,1,0,0,0,1-1V45.8A22.851,22.851,0,0,0,54,41.96V42h7a1,1,0,0,1,1,1Z"/><rect x="46" y="47" width="2" height="2"/><rect x="50" y="47" width="10" height="2"/><rect x="46" y="51" width="14" height="2"/></g></svg>