<svg xmlns="http://www.w3.org/2000/svg" viewBox="0 0 64 64"><g id="Layer_2" data-name="Layer 2"><path d="M43,41v3.438a2,2,0,0,1-1.515,1.941L35,48v3l9.526-2.6A2,2,0,0,0,46,46.472V41Z" style="fill:#c67a60"/><path d="M21,39v7.438a2,2,0,0,0,1.515,1.941L29,50v3l-9.526-2.6A2,2,0,0,1,18,48.472V39Z" style="fill:#c67a60"/><path d="M18,39v5.583c1,.059,2,.092,3,.137V39Z" style="fill:#b26049"/><path d="M40.633,57H23.367a1.266,1.266,0,0,1-1.054-1.969h0A16,16,0,0,0,25,46.156V41H39v5.156a16,16,0,0,0,2.687,8.875h0A1.266,1.266,0,0,1,40.633,57Z" style="fill:#c67a60"/><path d="M41.676,55.014q-.33-.5-.62-1.014H38.393a10.31,10.31,0,0,1-9.477-6.276,1.992,1.992,0,0,1,1.876-2.753c2.736.021,5.472,0,8.208-.078V41H25v5.887a15.835,15.835,0,0,1-2.716,8.189A1.267,1.267,0,0,0,23.367,57H40.633A1.269,1.269,0,0,0,41.676,55.014Z" style="fill:#b26049"/><path d="M46,44.583V41H43v3.438a2.025,2.025,0,0,1-.024.283C43.984,44.675,44.992,44.642,46,44.583Z" style="fill:#b26049"/><path d="M56.356,29.854a8.039,8.039,0,0,0-2.642-3.309,2.068,2.068,0,0,1-.834-2.008,9.976,9.976,0,0,0-5.173-10.351,4.084,4.084,0,0,1-1.617-1.625A6.986,6.986,0,0,0,40,9c-.192,0-.382.009-.57.025A3.963,3.963,0,0,1,37.092,8.4a9.985,9.985,0,0,0-10.184,0,3.963,3.963,0,0,1-2.338.629C24.382,9.009,24.192,9,24,9a6.986,6.986,0,0,0-6.09,3.561,4.084,4.084,0,0,1-1.617,1.625A9.976,9.976,0,0,0,11.12,24.537a2.068,2.068,0,0,1-.834,2.008,8.039,8.039,0,0,0-2.642,3.309,14.993,14.993,0,0,1-5.575,6.433l-.178.119A2,2,0,0,0,1,38.07v1.157a2.01,2.01,0,0,0,1.76,1.994,241.187,241.187,0,0,0,58.48,0A2.01,2.01,0,0,0,63,39.227V38.07a2,2,0,0,0-.891-1.664l-.178-.119A14.993,14.993,0,0,1,56.356,29.854Z" style="fill:#85b27c"/><path d="M44.35,14.545a1,1,0,0,1-.872-.508,4.038,4.038,0,0,0-1.88-1.7,1,1,0,1,1,.8-1.831,6.058,6.058,0,0,1,2.816,2.548,1,1,0,0,1-.869,1.492Z" style="fill:#fff"/><path d="M5.76,38.221A2.01,2.01,0,0,1,4,36.227V35.07a1.976,1.976,0,0,1,.039-.317,17.3,17.3,0,0,1-1.97,1.534l-.178.119A2,2,0,0,0,1,38.07v1.157a2.01,2.01,0,0,0,1.76,1.994,241.187,241.187,0,0,0,58.48,0A2.01,2.01,0,0,0,63,39.227v-.874A241.149,241.149,0,0,1,5.76,38.221Z" style="fill:#699b5d"/><path d="M62.665,35.575l-.179-.12a13.983,13.983,0,0,1-5.212-5.995A9.005,9.005,0,0,0,54.3,25.738a1.068,1.068,0,0,1-.435-1.046A10.966,10.966,0,0,0,50.844,15.3a1,1,0,0,0-1.425,1.4,8.96,8.96,0,0,1,2.473,7.679,3.074,3.074,0,0,0,1.232,2.972,7.023,7.023,0,0,1,2.313,2.9,15.971,15.971,0,0,0,5.938,6.868l.18.12A1,1,0,0,1,62,38.07v1.158a1.007,1.007,0,0,1-.881,1A242.232,242.232,0,0,1,32.983,42a1,1,0,0,0,0,2h0c1.665-.007,3.338-.053,5.009-.095v2.252a16.958,16.958,0,0,0,2.855,9.432.252.252,0,0,1,.014.272.256.256,0,0,1-.236.141H23.367a.266.266,0,0,1-.222-.414A16.952,16.952,0,0,0,26,46.155V43.9c1,.025,1.993.066,2.986.078H29a1,1,0,0,0,.012-2A242.149,242.149,0,0,1,2.88,40.228a1,1,0,0,1-.88-1V38.07a1,1,0,0,1,.446-.833l.178-.118a15.971,15.971,0,0,0,5.939-6.87,7.032,7.032,0,0,1,2.312-2.9,3.072,3.072,0,0,0,1.233-2.971,8.975,8.975,0,0,1,4.656-9.314,5.1,5.1,0,0,0,2.017-2.015A6.007,6.007,0,0,1,24,10c.163,0,.325.007.483.021a4.867,4.867,0,0,0,2.936-.766,9.131,9.131,0,0,1,9.162,0,4.917,4.917,0,0,0,2.935.765c.159-.014.321-.021.484-.021a6.005,6.005,0,0,1,5.219,3.054,5.168,5.168,0,0,0,1.622,1.778,1,1,0,1,0,1.112-1.663,3.183,3.183,0,0,1-.993-1.1A8.009,8.009,0,0,0,40,8c-.221,0-.439.01-.657.029a2.976,2.976,0,0,1-1.74-.492,11.164,11.164,0,0,0-11.206,0,2.92,2.92,0,0,1-1.742.492C24.439,8.01,24.221,8,24,8a8.01,8.01,0,0,0-6.96,4.069,3.072,3.072,0,0,1-1.218,1.236,10.976,10.976,0,0,0-5.69,11.388A1.065,1.065,0,0,1,9.7,25.738a9.014,9.014,0,0,0-2.97,3.721,13.984,13.984,0,0,1-5.213,6l-.177.118A3,3,0,0,0,0,38.07v1.158a3.009,3.009,0,0,0,2.639,2.986c2.652.322,5.316.587,7.983.823l3.337,3.336a3.023,3.023,0,0,0,1.172.725L17,47.72v.753a3.006,3.006,0,0,0,2.21,2.894l3.462.944a15.03,15.03,0,0,1-1.191,2.165A2.267,2.267,0,0,0,23.367,58H40.633a2.266,2.266,0,0,0,1.886-3.523A15.008,15.008,0,0,1,40.64,50.5l4.15-1.132A3.007,3.007,0,0,0,46.951,47H48a3.017,3.017,0,0,0,2.4-1.2l2.014-2.685c2.99-.253,5.976-.54,8.947-.9A3.009,3.009,0,0,0,64,39.228V38.07A2.994,2.994,0,0,0,62.665,35.575ZM24,46.155a14.909,14.909,0,0,1-.089,1.542l-1.153-.288A1,1,0,0,1,22,46.438V43.787c.668.027,1.333.041,2,.063ZM15.766,45.2a1.018,1.018,0,0,1-.393-.242L13.7,43.285c1.1.083,2.2.166,3.3.234v2.094Zm3.971,4.237A1,1,0,0,1,19,48.473V43.626l1,.054v2.758a3,3,0,0,0,2.273,2.911l1.3.325c-.061.254-.124.506-.2.756ZM42,43.771v.667a1,1,0,0,1-.758.971L40,45.72V43.865C40.666,43.843,41.333,43.8,42,43.771Zm3,2.7a1,1,0,0,1-.737.965L40.2,48.546c-.042-.261-.073-.525-.1-.789l1.633-.408A3,3,0,0,0,44,44.438v-.764c.333-.016.667-.03,1-.048ZM48.8,44.6a1.007,1.007,0,0,1-.8.4H47V43.529c.921-.057,1.839-.141,2.76-.208Z"/></g></svg>