<svg xmlns="http://www.w3.org/2000/svg" viewBox="0 0 64 64"><title>13-yoga</title><g id="_13-yoga" data-name="13-yoga"><path d="M39,4V9L36,7a4.691,4.691,0,0,0-.46-.54,5.026,5.026,0,0,0-2.3-1.3A2.835,2.835,0,0,1,33,4a3,3,0,0,1,6,0Z" style="fill:#7e8596"/><path d="M37.5,5.5a4.691,4.691,0,0,0-.46-.54,5.026,5.026,0,0,0-2.3-1.3A2.835,2.835,0,0,1,34.5,2.5a2.977,2.977,0,0,1,.269-1.231A2.991,2.991,0,0,0,33,4a2.835,2.835,0,0,0,.24,1.16,5.026,5.026,0,0,1,2.3,1.3A4.691,4.691,0,0,1,36,7l3,2V6.5Z" style="fill:#707789"/><polygon points="27 29 23 29 23 23 30 21 32 23 34 21 41 23 41 29 37 29 37 31 32 33.5 27 31 27 29" style="fill:#b674f2"/><polygon points="34 21 32 23 30 21 23 23 23 25 30 23 32 25 34 23 41 25 41 23 34 21" style="fill:#d2a0f5"/><path d="M27,40v6H20a3,3,0,0,1,0-6h7Z" style="fill:#7e8596"/><path d="M38,40h6a3,3,0,0,1,0,6H36V40Z" style="fill:#7e8596"/><path d="M32,49s-4,2-4,5H24c0-3-8-5-8-5v5H12c0-1.25-1.38-2.32-3-3.15V50a4,4,0,0,1,4-4H51a4,4,0,0,1,4,4v.85c-1.62.83-3,1.9-3,3.15H48V49s-8,2-8,5H36C36,51,32,49,32,49Z" style="fill:#afb4c8"/><path d="M9.161,48.937A3.972,3.972,0,0,0,9,50v.85c1.62.83,3,1.9,3,3.15h4V52H12C12,50.792,10.709,49.755,9.161,48.937Z" style="fill:#9196aa"/><path d="M48,47s-8,2-8,5H36c0-3-4-5-4-5s-4,2-4,5H24c0-3-8-5-8-5v2s8,2,8,5h4c0-3,4-5,4-5s4,2,4,5h4c0-3,8-5,8-5Z" style="fill:#9196aa"/><path d="M52,52H48v2h4c0-1.25,1.38-2.32,3-3.15V50a3.972,3.972,0,0,0-.161-1.063C53.291,49.755,52,50.792,52,52Z" style="fill:#9196aa"/><polygon points="58 58 58 63 6 63 6 58 10 58 18 58 22 58 30 58 34 58 42 58 46 58 54 58 58 58" style="fill:#afb4c8"/><path d="M54,58H46a4.333,4.333,0,0,0,2-4h4A4.333,4.333,0,0,0,54,58Z" style="fill:#7e8596"/><path d="M42,58H34a4.333,4.333,0,0,0,2-4h4A4.333,4.333,0,0,0,42,58Z" style="fill:#7e8596"/><path d="M30,58H22a4.333,4.333,0,0,0,2-4h4A4.333,4.333,0,0,0,30,58Z" style="fill:#7e8596"/><path d="M18,58H10a4.333,4.333,0,0,0,2-4h4A4.333,4.333,0,0,0,18,58Z" style="fill:#7e8596"/><path d="M55,50.85A26.786,26.786,0,0,1,60,49v5a4.333,4.333,0,0,1-2,4H54a4.333,4.333,0,0,1-2-4C52,52.75,53.38,51.68,55,50.85Z" style="fill:#ff73a5"/><path d="M48,49v5a4.333,4.333,0,0,1-2,4H42a4.333,4.333,0,0,1-2-4C40,51,48,49,48,49Z" style="fill:#ff73a5"/><path d="M36,54a4.333,4.333,0,0,1-2,4H30a4.333,4.333,0,0,1-2-4c0-3,4-5,4-5S36,51,36,54Z" style="fill:#ff73a5"/><path d="M24,54a4.333,4.333,0,0,1-2,4H18a4.333,4.333,0,0,1-2-4V49S24,51,24,54Z" style="fill:#ff73a5"/><path d="M9,50.85c1.62.83,3,1.9,3,3.15a4.333,4.333,0,0,1-2,4H6a4.333,4.333,0,0,1-2-4V49A26.786,26.786,0,0,1,9,50.85Z" style="fill:#ff73a5"/><path d="M55,50.85c-1.62.83-3,1.9-3,3.15a5.436,5.436,0,0,0,.339,1.949A6.794,6.794,0,0,1,55,53.85,26.786,26.786,0,0,1,60,52V49A26.786,26.786,0,0,0,55,50.85Z" style="fill:#ff8fb8"/><path d="M40,54a5.424,5.424,0,0,0,.336,1.941C41.849,53.539,48,52,48,52V49S40,51,40,54Z" style="fill:#ff8fb8"/><path d="M32,52s2.859,1.437,3.739,3.7A5.481,5.481,0,0,0,36,54c0-3-4-5-4-5s-4,2-4,5a5.481,5.481,0,0,0,.261,1.7C29.141,53.437,32,52,32,52Z" style="fill:#ff8fb8"/><path d="M23.664,55.941A5.424,5.424,0,0,0,24,54c0-3-8-5-8-5v3S22.151,53.539,23.664,55.941Z" style="fill:#ff8fb8"/><path d="M11.661,55.949A5.436,5.436,0,0,0,12,54c0-1.25-1.38-2.32-3-3.15A26.786,26.786,0,0,0,4,49v3a26.786,26.786,0,0,1,5,1.85A6.794,6.794,0,0,1,11.661,55.949Z" style="fill:#ff8fb8"/><path d="M30,18.59a5.083,5.083,0,0,0,4,0V21l-2,2-2-2Z" style="fill:#ffbeaa"/><path d="M38,35.67V40H34a2.965,2.965,0,0,0-2,.77A2.965,2.965,0,0,0,30,40H26V35.67L32,37Z" style="fill:#ffbeaa"/><path d="M31,43a2.94,2.94,0,0,0,1,2.23A2.965,2.965,0,0,1,30,46H27V40h3a2.965,2.965,0,0,1,2,.77,1.2,1.2,0,0,0-.12.11A2.993,2.993,0,0,0,31,43Z" style="fill:#ffdecf"/><path d="M36,40v6H34a3,3,0,0,1-2.12-5.12,1.2,1.2,0,0,1,.12-.11A2.965,2.965,0,0,1,34,40Z" style="fill:#ffdecf"/><path d="M17.416,41.5A2.961,2.961,0,0,0,17,43a3,3,0,0,0,3,3h7V43H20A2.984,2.984,0,0,1,17.416,41.5Z" style="fill:#707789"/><path d="M46.12,42.12A2.993,2.993,0,0,1,44,43H36v3h8a2.983,2.983,0,0,0,2.584-4.5A3.033,3.033,0,0,1,46.12,42.12Z" style="fill:#707789"/><path d="M31.418,41.5a3.005,3.005,0,0,1,.462-.62,1.2,1.2,0,0,1,.12-.11,2.962,2.962,0,0,0-.98-.585A2.933,2.933,0,0,0,31.418,41.5Z" style="fill:#ffcdbe"/><path d="M31.019,42.816A2.994,2.994,0,0,1,30,43H27v3h3a2.965,2.965,0,0,0,2-.77A2.94,2.94,0,0,1,31,43C31,42.937,31.015,42.878,31.019,42.816Z" style="fill:#ffcdbe"/><path d="M32,42.23a2.864,2.864,0,0,1-.582-.73A2.993,2.993,0,0,0,34,46h2V43H34A2.965,2.965,0,0,1,32,42.23Z" style="fill:#ffcdbe"/><polygon points="26 35.67 23 35 23 29 27 29 27 31 32 33.5 33 34 32 37 26 35.67" style="fill:#ffcdbe"/><polygon points="38 35.67 32 37 33 34 32 33.5 37 31 37 29 41 29 41 35 38 35.67" style="fill:#ffdecf"/><path d="M30,18.59A5.029,5.029,0,0,1,27,14V10a5,5,0,0,1,5-5,4.635,4.635,0,0,1,1.24.16,5.026,5.026,0,0,1,2.3,1.3A4.691,4.691,0,0,1,36,7a4.941,4.941,0,0,1,1,3v4a5.029,5.029,0,0,1-3,4.59,5.083,5.083,0,0,1-4,0Z" style="fill:#ffdecf"/><path d="M34,16.59a5.083,5.083,0,0,1-4,0A5.029,5.029,0,0,1,27,12v2a5.029,5.029,0,0,0,3,4.59,5.083,5.083,0,0,0,4,0A5.029,5.029,0,0,0,37,14V12A5.029,5.029,0,0,1,34,16.59Z" style="fill:#ffcdbe"/><path d="M34,46H30a2.965,2.965,0,0,0,2-.77A2.965,2.965,0,0,0,34,46Z" style="fill:#7e8596"/><path d="M60.616,48.212a1.006,1.006,0,0,0-.858-.183,29.5,29.5,0,0,0-3.827,1.288A4.992,4.992,0,0,0,51,45H47.445A3.959,3.959,0,0,0,48,43a4,4,0,0,0-4-4H39V36.469l2.218-.493A1,1,0,0,0,42,35V23a1,1,0,0,0-.725-.961L35,20.246V19.187A6.018,6.018,0,0,0,38,14V10c0-.166-.026-.327-.039-.491l.484.323A1,1,0,0,0,40,9V4a4,4,0,0,0-8,0,6.006,6.006,0,0,0-6,6v4a6.019,6.019,0,0,0,3,5.186v1.06l-6.275,1.793A1,1,0,0,0,22,23V35a1,1,0,0,0,.782.976L25,36.469V39H20a3.973,3.973,0,0,0-3.444,6H13a4.992,4.992,0,0,0-4.931,4.317,29.5,29.5,0,0,0-3.827-1.288A1,1,0,0,0,3,49v5a5.533,5.533,0,0,0,2,4.524V63a1,1,0,0,0,1,1H58a1,1,0,0,0,1-1V58.524A5.533,5.533,0,0,0,61,54V49A1,1,0,0,0,60.616,48.212ZM46,43a2,2,0,0,1-2,2H37V41h7A2,2,0,0,1,46,43ZM30,41a1.972,1.972,0,0,1,.514.076,3.863,3.863,0,0,0,0,3.849A2.007,2.007,0,0,1,30,45H28V41Zm2.657,3.477A1.95,1.95,0,0,1,32,43a1.986,1.986,0,0,1,.587-1.413l.084-.076A1.979,1.979,0,0,1,34,41h1v4H34A1.993,1.993,0,0,1,32.657,44.477Zm.85-8.836.442-1.325a1,1,0,0,0-.017-.664L37.447,31.9A1,1,0,0,0,38,31V30h2v4.2ZM31,19.91a5.6,5.6,0,0,0,2,0v.676l-1,1-1-1ZM36,2a2,2,0,0,1,2,2V7.131l-1.3-.87a5.678,5.678,0,0,0-.453-.513,6.063,6.063,0,0,0-2.21-1.392A1.972,1.972,0,0,1,34,4,2,2,0,0,1,36,2Zm-8,8a4,4,0,0,1,4-4,3.651,3.651,0,0,1,.975.124v0c.008,0,.014.009.022.011a4.024,4.024,0,0,1,1.835,1.037,3.651,3.651,0,0,1,.362.427l.01.009h0A3.933,3.933,0,0,1,36,10v4a4.025,4.025,0,0,1-2.393,3.67,4.113,4.113,0,0,1-3.2.006A4.032,4.032,0,0,1,28,14Zm1.709,12.123,1.584,1.584a1,1,0,0,0,1.414,0l1.584-1.584L40,23.754V28H38V25H36v5.382l-4,2-4-2V25H26v3H24V23.754ZM24,30h2v1a1,1,0,0,0,.553.895l5,2.5.224.112-.441,1.321L24,34.2Zm3,6.913,4.784,1.064A1.065,1.065,0,0,0,32,38a.956.956,0,0,0,.214-.034l0,.011L37,36.913V39H34a4,4,0,0,0-2.009.542A3.974,3.974,0,0,0,30,39H27ZM18,43a2,2,0,0,1,2-2h6v4H20A2,2,0,0,1,18,43Zm-5,4H51a3,3,0,0,1,3,3v.261A5.851,5.851,0,0,0,51.191,53H49V49a1,1,0,0,0-.385-.788.985.985,0,0,0-.858-.182c-1.32.33-7.376,2-8.545,4.97H36.874c-.694-2.985-4.259-4.811-4.427-4.9a1,1,0,0,0-.894,0c-.168.084-3.733,1.91-4.427,4.9H24.788c-1.169-2.969-7.225-4.64-8.545-4.97A1,1,0,0,0,15,49v4H12.809A5.851,5.851,0,0,0,10,50.261V50A3,3,0,0,1,13,47ZM51.72,57H48.276a5.8,5.8,0,0,0,.65-2h2.147A5.816,5.816,0,0,0,51.72,57ZM12.927,55h2.147a5.8,5.8,0,0,0,.65,2H12.28A5.816,5.816,0,0,0,12.927,55Zm5.367,2A3.526,3.526,0,0,1,17,54V50.321c2.825.882,6,2.424,6,3.679a3.527,3.527,0,0,1-1.292,3Zm6.632-2h2.148a5.8,5.8,0,0,0,.65,2H24.276A5.8,5.8,0,0,0,24.926,55Zm5.368,2A3.526,3.526,0,0,1,29,54c0-1.684,1.872-3.171,2.994-3.852C32.924,50.718,35,52.193,35,54a3.526,3.526,0,0,1-1.294,3Zm6.632-2h2.148a5.8,5.8,0,0,0,.65,2H36.276A5.8,5.8,0,0,0,36.926,55Zm5.368,2A3.526,3.526,0,0,1,41,54c0-1.255,3.175-2.8,6-3.679V54a3.526,3.526,0,0,1-1.294,3ZM5,50.328a23.39,23.39,0,0,1,3.544,1.411C10.105,52.539,11,53.363,11,54a3.558,3.558,0,0,1-1.29,3H6.29A3.558,3.558,0,0,1,5,54ZM7,62V59H57v3Zm52-8a3.56,3.56,0,0,1-1.288,3H54.29A3.558,3.558,0,0,1,53,54c0-.637.9-1.461,2.458-2.262A23.31,23.31,0,0,1,59,50.329Z"/></g></svg>