<?xml version="1.0" encoding="utf-8"?>
<!-- Generator: Adobe Illustrator 16.0.0, SVG Export Plug-In . SVG Version: 6.00 Build 0)  -->
<!DOCTYPE svg PUBLIC "-//W3C//DTD SVG 1.1//EN" "http://www.w3.org/Graphics/SVG/1.1/DTD/svg11.dtd">
<svg version="1.1" id="Layer_1" xmlns="http://www.w3.org/2000/svg" xmlns:xlink="http://www.w3.org/1999/xlink" x="0px" y="0px"
	 width="512px" height="512px" viewBox="0 0 512 512" enable-background="new 0 0 512 512" xml:space="preserve">
<g id="_x31_3._wanted_x2C__notice_x2C__search_x2C__wild_x2C__west_x2C__crime_x2C__bandit">
	<g>
		<g>
			<g>
				<path d="M432.119,24.163c-2.211,0-4.037-1.787-4.037-3.997c0-2.209,1.748-3.997,3.951-3.997h0.086
					c2.201,0,3.996,1.788,3.996,3.997C436.115,22.376,434.32,24.163,432.119,24.163z"/>
			</g>
		</g>
		<g>
			<g>
				<path d="M432.119,495.831c-2.211,0-4.037-1.788-4.037-3.998c0-2.209,1.748-3.997,3.951-3.997h0.086
					c2.201,0,3.996,1.788,3.996,3.997C436.115,494.043,434.32,495.831,432.119,495.831z"/>
			</g>
		</g>
		<g>
			<g>
				<path d="M80.358,495.831c-2.202,0-4.028-1.788-4.028-3.998c0-2.209,1.749-3.997,3.951-3.997h0.078
					c2.217,0,3.998,1.788,3.998,3.997C84.356,494.043,82.576,495.831,80.358,495.831z"/>
			</g>
		</g>
		<g>
			<g>
				<path d="M80.358,24.163c-2.202,0-4.028-1.787-4.028-3.997c0-2.209,1.749-3.997,3.951-3.997h0.078
					c2.217,0,3.998,1.788,3.998,3.997C84.356,22.376,82.576,24.163,80.358,24.163z"/>
			</g>
		</g>
		<g>
			<g>
				<g>
					<g>
						<path d="M192.28,327.949c-2.202,0-4.028-1.788-4.028-3.997c0-2.21,1.749-3.998,3.95-3.998h0.078
							c2.217,0,3.997,1.788,3.997,3.998C196.277,326.161,194.497,327.949,192.28,327.949z"/>
					</g>
				</g>
				<g>
					<g>
						<path d="M208.268,343.938c-2.201,0-4.028-1.788-4.028-3.997s1.749-3.997,3.95-3.997h0.078c2.217,0,3.997,1.788,3.997,3.997
							S210.485,343.938,208.268,343.938z"/>
					</g>
				</g>
				<g>
					<g>
						<path d="M224.257,359.927c-2.202,0-4.029-1.788-4.029-3.998c0-2.209,1.749-3.996,3.951-3.996h0.078
							c2.217,0,3.997,1.787,3.997,3.996C228.254,358.139,226.474,359.927,224.257,359.927z"/>
					</g>
				</g>
				<g>
					<g>
						<path d="M240.246,375.915c-2.201,0-4.028-1.787-4.028-3.997s1.749-3.997,3.95-3.997h0.078c2.217,0,3.997,1.787,3.997,3.997
							S242.463,375.915,240.246,375.915z"/>
					</g>
				</g>
				<g>
					<g>
						<path d="M256.234,391.903c-2.202,0-4.028-1.787-4.028-3.996c0-2.21,1.749-3.998,3.95-3.998h0.078
							c2.217,0,4.006,1.788,4.006,3.998C260.24,390.116,258.451,391.903,256.234,391.903z"/>
					</g>
				</g>
				<g>
					<g>
						<path d="M224.257,327.949c-2.202,0-4.029-1.788-4.029-3.997c0-2.21,1.749-3.998,3.951-3.998h0.078
							c2.217,0,3.997,1.788,3.997,3.998C228.254,326.161,226.474,327.949,224.257,327.949z"/>
					</g>
				</g>
				<g>
					<g>
						<path d="M240.246,343.938c-2.201,0-4.028-1.788-4.028-3.997s1.749-3.997,3.95-3.997h0.078c2.217,0,3.997,1.788,3.997,3.997
							S242.463,343.938,240.246,343.938z"/>
					</g>
				</g>
				<g>
					<g>
						<path d="M256.234,359.927c-2.202,0-4.028-1.788-4.028-3.998c0-2.209,1.749-3.996,3.95-3.996h0.078
							c2.217,0,4.006,1.787,4.006,3.996C260.24,358.139,258.451,359.927,256.234,359.927z"/>
					</g>
				</g>
				<g>
					<g>
						<path d="M272.23,375.915c-2.209,0-4.035-1.787-4.035-3.997s1.748-3.997,3.949-3.997h0.086c2.203,0,3.998,1.787,3.998,3.997
							S274.434,375.915,272.23,375.915z"/>
					</g>
				</g>
				<g>
					<g>
						<path d="M272.23,343.938c-2.209,0-4.035-1.788-4.035-3.997s1.748-3.997,3.949-3.997h0.086c2.203,0,3.998,1.788,3.998,3.997
							S274.434,343.938,272.23,343.938z"/>
					</g>
				</g>
				<g>
					<g>
						<path d="M288.221,359.927c-2.211,0-4.037-1.788-4.037-3.998c0-2.209,1.748-3.996,3.951-3.996h0.086
							c2.201,0,3.996,1.787,3.996,3.996C292.217,358.139,290.422,359.927,288.221,359.927z"/>
					</g>
				</g>
				<g>
					<g>
						<path d="M288.221,327.949c-2.211,0-4.037-1.788-4.037-3.997c0-2.21,1.748-3.998,3.951-3.998h0.086
							c2.201,0,3.996,1.788,3.996,3.998C292.217,326.161,290.422,327.949,288.221,327.949z"/>
					</g>
				</g>
				<g>
					<g>
						<path d="M304.209,343.938c-2.209,0-4.037-1.788-4.037-3.997s1.75-3.997,3.951-3.997h0.086c2.201,0,3.996,1.788,3.996,3.997
							S306.41,343.938,304.209,343.938z"/>
					</g>
				</g>
				<g>
					<g>
						<path d="M320.197,327.949c-2.209,0-4.037-1.788-4.037-3.997c0-2.21,1.75-3.998,3.951-3.998h0.086
							c2.201,0,3.998,1.788,3.998,3.998C324.195,326.161,322.398,327.949,320.197,327.949z"/>
					</g>
				</g>
			</g>
			<g>
				<g>
					<g>
						<path d="M174.41,299.399c-1.772,0-3.396-1.188-3.865-2.982c-2.225-8.479-3.357-16.988-3.357-25.287
							c0-2.209,1.788-3.997,3.997-3.997s3.997,1.788,3.997,3.997c0,7.611,1.046,15.442,3.092,23.257
							c0.562,2.132-0.71,4.317-2.842,4.88C175.088,299.36,174.745,299.399,174.41,299.399z"/>
					</g>
				</g>
				<g>
					<g>
						<path d="M337.834,299.392c-0.336,0-0.68-0.039-1.016-0.133c-2.139-0.562-3.412-2.748-2.85-4.88
							c2.053-7.814,3.1-15.638,3.1-23.249c0-2.209,1.787-3.997,3.996-3.997c2.211,0,3.998,1.788,3.998,3.997
							c0,8.299-1.133,16.809-3.365,25.279C341.229,298.204,339.605,299.392,337.834,299.392z"/>
					</g>
				</g>
				<g>
					<g>
						<path d="M256.125,271.988c-2.202,0-3.998-1.788-3.998-3.997s1.795-3.997,3.998-3.997c30.392,0,49.714-5.129,72.082-11.07
							c15.613-4.146,33.125-8.799,56.539-12.022c-6.465-3.49-22.18-7.374-41.127-8.896c-2.203-0.18-3.842-2.104-3.662-4.306
							c0.172-2.205,2.139-3.849,4.301-3.665c15.529,1.249,51.645,5.695,51.645,19.975c0,2.021-1.516,3.728-3.521,3.97
							c-26.264,3.149-44.492,7.99-62.121,12.671C308.299,266.484,287.564,271.988,256.125,271.988z"/>
					</g>
				</g>
				<g>
					<g>
						<path d="M256,271.988c-31.431,0-52.167-5.504-74.12-11.339c-17.636-4.681-35.865-9.521-62.128-12.671
							c-2.014-0.242-3.521-1.948-3.521-3.97c0-14.279,36.115-18.726,51.643-19.975c2.264-0.148,4.13,1.464,4.309,3.665
							c0.172,2.202-1.468,4.126-3.669,4.306c-18.94,1.526-34.663,5.41-41.127,8.896c23.413,3.224,40.924,7.877,56.538,12.022
							c22.375,5.941,41.689,11.07,72.074,11.07c2.208,0,3.998,1.788,3.998,3.997S258.209,271.988,256,271.988z"/>
					</g>
				</g>
				<g>
					<g>
						<path d="M256,248.006c-2.21,0-3.998-1.788-3.998-3.997c0-2.21,1.788-3.998,3.998-3.998c33.578,0,65.843-10.973,75.509-14.563
							c-4.887-30.92-13.834-57.386-19.549-57.386c-11.336,0-43.195,11.348-54.523,15.72c-2.046,0.8-4.373-0.23-5.169-2.287
							c-0.796-2.062,0.234-4.372,2.295-5.169c1.717-0.663,42.258-16.258,57.397-16.258c16.246,0,24.951,47.111,27.941,67.37
							c0.266,1.812-0.734,3.576-2.428,4.274C335.857,232.38,297.572,248.006,256,248.006z"/>
					</g>
				</g>
				<g>
					<g>
						<path d="M256,248.006c-41.58,0-79.866-15.626-81.474-16.294c-1.686-0.698-2.693-2.463-2.42-4.274
							c2.982-20.259,11.68-67.37,27.934-67.37c15.138,0,55.68,15.595,57.398,16.258c2.061,0.797,3.084,3.107,2.295,5.169
							c-0.797,2.057-3.124,3.087-5.168,2.287c-11.32-4.372-43.188-15.72-54.524-15.72c-5.715,0-14.661,26.466-19.549,57.386
							c9.665,3.591,41.932,14.563,75.51,14.563c2.208,0,3.998,1.788,3.998,3.998C259.998,246.218,258.209,248.006,256,248.006z"/>
					</g>
				</g>
				<g>
					<g>
						<path d="M256.125,327.949c-2.202,0-3.998-1.788-3.998-3.997c0-2.21,1.795-3.998,3.998-3.998
							c21.056,0,78.179-15.684,78.757-15.848c2.107-0.547,4.332,0.672,4.918,2.795s-0.664,4.325-2.795,4.918
							C334.617,312.476,278.258,327.949,256.125,327.949z"/>
					</g>
				</g>
				<g>
					<g>
						<path d="M256.125,327.949c-26.974,0-79.015-15.497-81.217-16.161c-2.115-0.632-3.317-2.857-2.678-4.973
							c0.625-2.115,2.85-3.334,4.974-2.678c0.522,0.156,53.118,15.816,78.921,15.816c2.216,0,3.998,1.788,3.998,3.998
							C260.123,326.161,258.342,327.949,256.125,327.949z"/>
					</g>
				</g>
				<g>
					<g>
						<path d="M256.125,399.898c-0.578,0-1.171-0.125-1.733-0.398c-71.395-34.468-81.864-88.547-82.271-90.826
							c-0.39-2.171,1.046-4.247,3.217-4.638c2.178-0.406,4.255,1.046,4.653,3.209c0.093,0.522,10.352,52.463,77.875,85.057
							c1.99,0.961,2.824,3.35,1.865,5.34C259.045,399.063,257.609,399.898,256.125,399.898z"/>
					</g>
				</g>
				<g>
					<g>
						<path d="M256.125,399.898c-1.483,0-2.912-0.827-3.6-2.257c-0.96-1.99-0.125-4.379,1.866-5.34
							c67.741-32.703,77.524-84.511,77.618-85.025c0.375-2.187,2.451-3.686,4.621-3.248c2.178,0.375,3.631,2.451,3.248,4.622
							c-0.398,2.287-10.617,56.382-82.02,90.85C257.305,399.773,256.71,399.898,256.125,399.898z"/>
					</g>
				</g>
			</g>
		</g>
		<g>
			<g>
				<path d="M447.865,511.819H64.135c-2.209,0-3.997-1.788-3.997-3.997V4.178c0-2.21,1.788-3.997,3.997-3.997h383.73
					c2.209,0,3.996,1.787,3.996,3.997v503.645C451.861,510.031,450.074,511.819,447.865,511.819z M68.133,503.825h375.734V8.175
					H68.133V503.825z"/>
			</g>
		</g>
		<g>
			<g>
				<g>
					<path d="M128.09,120.096c-1.834,0-3.489-1.269-3.903-3.131l-15.989-71.949c-0.476-2.154,0.882-4.29,3.037-4.77
						c2.147-0.465,4.286,0.882,4.771,3.037l15.988,71.949c0.477,2.154-0.882,4.289-3.037,4.77
						C128.668,120.064,128.372,120.096,128.09,120.096z"/>
				</g>
			</g>
			<g>
				<g>
					<path d="M128.09,120.096c-0.219,0-0.437-0.016-0.656-0.055c-2.178-0.363-3.654-2.42-3.287-4.599l11.991-71.949
						c0.359-2.182,2.42-3.692,4.599-3.286c2.178,0.362,3.653,2.42,3.287,4.598l-11.992,71.949
						C131.713,118.71,130.011,120.096,128.09,120.096z"/>
				</g>
			</g>
			<g>
				<g>
					<path d="M152.074,120.096c-1.921,0-3.623-1.386-3.942-3.342l-11.992-71.949c-0.367-2.178,1.109-4.235,3.287-4.598
						c2.193-0.398,4.231,1.112,4.598,3.286l11.992,71.949c0.367,2.179-1.108,4.235-3.287,4.599
						C152.511,120.08,152.292,120.096,152.074,120.096z"/>
				</g>
			</g>
			<g>
				<g>
					<path d="M152.074,120.096c-0.281,0-0.578-0.031-0.867-0.094c-2.155-0.48-3.513-2.615-3.037-4.77l15.989-71.949
						c0.484-2.155,2.646-3.494,4.771-3.037c2.154,0.479,3.513,2.615,3.037,4.77l-15.989,71.949
						C155.563,118.827,153.908,120.096,152.074,120.096z"/>
				</g>
			</g>
			<g>
				<g>
					<path d="M176.057,120.096c-0.351,0-0.71-0.047-1.07-0.145c-2.131-0.593-3.372-2.795-2.787-4.922l19.986-71.949
						c0.593-2.128,2.795-3.357,4.926-2.783c2.132,0.593,3.373,2.795,2.787,4.922l-19.985,71.949
						C179.414,118.937,177.805,120.096,176.057,120.096z"/>
				</g>
			</g>
			<g>
				<g>
					<path d="M216.028,120.096c-1.749,0-3.357-1.159-3.856-2.928l-19.986-71.949c-0.586-2.127,0.655-4.329,2.787-4.922
						c2.131-0.574,4.333,0.655,4.926,2.783l19.986,71.949c0.585,2.127-0.656,4.329-2.787,4.922
						C216.739,120.049,216.379,120.096,216.028,120.096z"/>
				</g>
			</g>
			<g>
				<g>
					<path d="M209.361,96.112h-26.637c-2.218,0-3.998-1.787-3.998-3.997c0-2.209,1.78-3.997,3.998-3.997h26.637
						c2.217,0,3.997,1.788,3.997,3.997C213.358,94.325,211.579,96.112,209.361,96.112z"/>
				</g>
			</g>
			<g>
				<g>
					<path d="M232.017,120.096c-2.209,0-3.997-1.788-3.997-3.997V44.149c0-2.21,1.788-3.997,3.997-3.997
						c2.209,0,3.997,1.787,3.997,3.997v71.949C236.014,118.308,234.227,120.096,232.017,120.096z"/>
				</g>
			</g>
			<g>
				<g>
					<path d="M263.994,120.096c-1.529,0-2.99-0.882-3.652-2.373l-31.978-71.949c-0.891-2.019,0.016-4.38,2.029-5.277
						c2.015-0.906,4.372,0.012,5.278,2.029l31.978,71.949c0.898,2.019-0.016,4.38-2.029,5.277
						C265.088,119.986,264.541,120.096,263.994,120.096z"/>
				</g>
			</g>
			<g>
				<g>
					<path d="M263.994,120.096c-2.209,0-3.996-1.788-3.996-3.997V44.149c0-2.21,1.787-3.997,3.996-3.997s3.998,1.787,3.998,3.997
						v71.949C267.992,118.308,266.203,120.096,263.994,120.096z"/>
				</g>
			</g>
			<g>
				<g>
					<path d="M295.973,120.096c-2.209,0-3.998-1.788-3.998-3.997V44.149c0-2.21,1.789-3.997,3.998-3.997s3.996,1.787,3.996,3.997
						v71.949C299.969,118.308,298.182,120.096,295.973,120.096z"/>
				</g>
			</g>
			<g>
				<g>
					<path d="M311.961,48.146h-31.977c-2.211,0-3.998-1.788-3.998-3.997c0-2.21,1.787-3.997,3.998-3.997h31.977
						c2.209,0,3.998,1.787,3.998,3.997C315.959,46.358,314.17,48.146,311.961,48.146z"/>
				</g>
			</g>
			<g>
				<g>
					<path d="M327.949,120.096c-2.209,0-3.996-1.788-3.996-3.997V44.149c0-2.21,1.787-3.997,3.996-3.997s3.998,1.787,3.998,3.997
						v71.949C331.947,118.308,330.158,120.096,327.949,120.096z"/>
				</g>
			</g>
			<g>
				<g>
					<path d="M351.934,48.146h-23.984c-2.209,0-3.996-1.788-3.996-3.997c0-2.21,1.787-3.997,3.996-3.997h23.984
						c2.209,0,3.996,1.787,3.996,3.997C355.93,46.358,354.143,48.146,351.934,48.146z"/>
				</g>
			</g>
			<g>
				<g>
					<path d="M351.934,120.096h-23.984c-2.209,0-3.996-1.788-3.996-3.997s1.787-3.997,3.996-3.997h23.984
						c2.209,0,3.996,1.788,3.996,3.997S354.143,120.096,351.934,120.096z"/>
				</g>
			</g>
			<g>
				<g>
					<path d="M343.938,84.121h-15.988c-2.209,0-3.996-1.788-3.996-3.997c0-2.21,1.787-3.997,3.996-3.997h15.988
						c2.211,0,3.998,1.787,3.998,3.997C347.936,82.333,346.148,84.121,343.938,84.121z"/>
				</g>
			</g>
			<g>
				<g>
					<path d="M367.922,120.096c-2.209,0-3.998-1.788-3.998-3.997V44.149c0-2.21,1.789-3.997,3.998-3.997s3.996,1.787,3.996,3.997
						v71.949C371.918,118.308,370.131,120.096,367.922,120.096z"/>
				</g>
			</g>
			<g>
				<g>
					<path d="M395.902,64.135c-2.211,0-3.998-1.787-3.998-3.997c0-6.612-5.379-11.991-11.992-11.991
						c-2.209,0-3.996-1.788-3.996-3.997c0-2.21,1.787-3.997,3.996-3.997c11.023,0,19.986,8.966,19.986,19.985
						C399.898,62.348,398.111,64.135,395.902,64.135z"/>
				</g>
			</g>
			<g>
				<g>
					<path d="M379.912,120.088c-2.209,0-3.996-1.788-3.996-3.997s1.787-3.997,3.996-3.997c6.613,0,11.992-5.379,11.992-11.992
						c0-2.209,1.787-3.997,3.998-3.997c2.209,0,3.996,1.788,3.996,3.997C399.898,111.122,390.936,120.088,379.912,120.088z"/>
				</g>
			</g>
			<g>
				<g>
					<path d="M395.902,104.1c-2.211,0-3.998-1.788-3.998-3.998V60.138c0-2.209,1.787-3.997,3.998-3.997
						c2.209,0,3.996,1.788,3.996,3.997v39.964C399.898,102.312,398.111,104.1,395.902,104.1z"/>
				</g>
			</g>
			<g>
				<g>
					<path d="M379.912,120.088h-11.99c-2.209,0-3.998-1.788-3.998-3.997s1.789-3.997,3.998-3.997h11.99
						c2.211,0,3.998,1.788,3.998,3.997S382.123,120.088,379.912,120.088z"/>
				</g>
			</g>
			<g>
				<g>
					<path d="M379.912,48.146h-11.99c-2.209,0-3.998-1.788-3.998-3.997c0-2.21,1.789-3.997,3.998-3.997h11.99
						c2.211,0,3.998,1.787,3.998,3.997C383.91,46.358,382.123,48.146,379.912,48.146z"/>
				</g>
			</g>
		</g>
		<g>
			<g>
				<path d="M407.893,439.87H104.107c-2.209,0-3.998-1.788-3.998-3.997v-15.989c0-2.209,1.788-3.997,3.998-3.997h303.785
					c2.211,0,3.998,1.788,3.998,3.997v15.989C411.891,438.082,410.104,439.87,407.893,439.87z M108.104,431.876h295.792v-7.994
					H108.104V431.876z"/>
			</g>
		</g>
		<g>
			<g>
				<g>
					<path d="M192.053,479.842c-2.209,0-3.997-1.788-3.997-3.997v-23.983c0-2.209,1.788-3.997,3.997-3.997
						c2.209,0,3.997,1.788,3.997,3.997v23.983C196.05,478.054,194.262,479.842,192.053,479.842z"/>
				</g>
			</g>
			<g>
				<g>
					<g>
						<path d="M224.031,463.821c-2.209,0-3.997-1.787-3.997-3.996c0-2.187-1.78-3.967-3.966-3.967s-3.966,1.78-3.966,3.967
							c0,2.209-1.788,3.996-3.998,3.996c-2.209,0-3.997-1.787-3.997-3.996c0-6.598,5.363-11.961,11.96-11.961
							s11.96,5.363,11.96,11.961C228.028,462.034,226.24,463.821,224.031,463.821z"/>
					</g>
				</g>
				<g>
					<g>
						<path d="M216.036,479.795c-6.597,0-11.96-5.363-11.96-11.96c0-2.21,1.788-3.998,3.997-3.998c2.21,0,3.998,1.788,3.998,3.998
							c0,2.186,1.78,3.966,3.966,3.966s3.966-1.78,3.966-3.966c0-2.21,1.788-3.998,3.997-3.998c2.209,0,3.997,1.788,3.997,3.998
							C227.997,474.432,222.633,479.795,216.036,479.795z"/>
					</g>
				</g>
				<g>
					<g>
						<path d="M208.104,471.848c-2.209,0-3.997-1.788-3.997-3.997v-8.025c0-2.21,1.788-3.998,3.997-3.998
							c2.21,0,3.998,1.788,3.998,3.998v8.025C212.102,470.06,210.314,471.848,208.104,471.848z"/>
					</g>
				</g>
				<g>
					<g>
						<path d="M224.031,471.848c-2.209,0-3.997-1.788-3.997-3.997v-8.025c0-2.21,1.788-3.998,3.997-3.998
							c2.209,0,3.997,1.788,3.997,3.998v8.025C228.028,470.06,226.24,471.848,224.031,471.848z"/>
					</g>
				</g>
			</g>
			<g>
				<g>
					<g>
						<path d="M263.986,463.821c-2.209,0-3.996-1.787-3.996-3.996c0-2.187-1.781-3.967-3.966-3.967c-2.187,0-3.966,1.78-3.966,3.967
							c0,2.209-1.788,3.996-3.997,3.996s-3.998-1.787-3.998-3.996c0-6.598,5.364-11.961,11.961-11.961s11.96,5.363,11.96,11.961
							C267.984,462.034,266.195,463.821,263.986,463.821z"/>
					</g>
				</g>
				<g>
					<g>
						<path d="M255.993,479.795c-6.597,0-11.96-5.363-11.96-11.96c0-2.21,1.788-3.998,3.997-3.998s3.997,1.788,3.997,3.998
							c0,2.186,1.78,3.966,3.966,3.966c2.185,0,3.966-1.78,3.966-3.966c0-2.21,1.787-3.998,3.996-3.998
							c2.211,0,3.998,1.788,3.998,3.998C267.953,474.432,262.59,479.795,255.993,479.795z"/>
					</g>
				</g>
				<g>
					<g>
						<path d="M248.061,471.848c-2.209,0-3.998-1.788-3.998-3.997v-8.025c0-2.21,1.788-3.998,3.998-3.998s3.997,1.788,3.997,3.998
							v8.025C252.058,470.06,250.27,471.848,248.061,471.848z"/>
					</g>
				</g>
				<g>
					<g>
						<path d="M263.986,471.848c-2.209,0-3.996-1.788-3.996-3.997v-8.025c0-2.21,1.787-3.998,3.996-3.998s3.998,1.788,3.998,3.998
							v8.025C267.984,470.06,266.195,471.848,263.986,471.848z"/>
					</g>
				</g>
			</g>
			<g>
				<g>
					<g>
						<path d="M295.965,463.821c-2.209,0-3.998-1.787-3.998-3.996c0-2.187-1.779-3.967-3.965-3.967c-2.188,0-3.967,1.78-3.967,3.967
							c0,2.209-1.787,3.996-3.998,3.996c-2.209,0-3.996-1.787-3.996-3.996c0-6.598,5.363-11.961,11.961-11.961
							c6.596,0,11.959,5.363,11.959,11.961C299.961,462.034,298.174,463.821,295.965,463.821z"/>
					</g>
				</g>
				<g>
					<g>
						<path d="M287.971,479.795c-6.598,0-11.961-5.363-11.961-11.96c0-2.21,1.787-3.998,3.998-3.998
							c2.209,0,3.996,1.788,3.996,3.998c0,2.186,1.779,3.966,3.967,3.966c2.186,0,3.965-1.78,3.965-3.966
							c0-2.21,1.789-3.998,3.998-3.998s3.996,1.788,3.996,3.998C299.93,474.432,294.566,479.795,287.971,479.795z"/>
					</g>
				</g>
				<g>
					<g>
						<path d="M280.037,471.848c-2.209,0-3.996-1.788-3.996-3.997v-8.025c0-2.21,1.787-3.998,3.996-3.998
							c2.211,0,3.998,1.788,3.998,3.998v8.025C284.035,470.06,282.248,471.848,280.037,471.848z"/>
					</g>
				</g>
				<g>
					<g>
						<path d="M295.965,471.848c-2.209,0-3.998-1.788-3.998-3.997v-8.025c0-2.21,1.789-3.998,3.998-3.998s3.996,1.788,3.996,3.998
							v8.025C299.961,470.06,298.174,471.848,295.965,471.848z"/>
					</g>
				</g>
			</g>
			<g>
				<g>
					<g>
						<path d="M327.941,463.821c-2.209,0-3.996-1.787-3.996-3.996c0-2.187-1.781-3.967-3.967-3.967s-3.965,1.78-3.965,3.967
							c0,2.209-1.789,3.996-3.998,3.996s-3.998-1.787-3.998-3.996c0-6.598,5.363-11.961,11.961-11.961s11.961,5.363,11.961,11.961
							C331.939,462.034,330.15,463.821,327.941,463.821z"/>
					</g>
				</g>
				<g>
					<g>
						<path d="M319.947,479.795c-6.598,0-11.961-5.363-11.961-11.96c0-2.21,1.789-3.998,3.998-3.998s3.998,1.788,3.998,3.998
							c0,2.186,1.779,3.966,3.965,3.966s3.967-1.78,3.967-3.966c0-2.21,1.787-3.998,3.996-3.998s3.998,1.788,3.998,3.998
							C331.908,474.432,326.545,479.795,319.947,479.795z"/>
					</g>
				</g>
				<g>
					<g>
						<path d="M312.016,471.848c-2.209,0-3.998-1.788-3.998-3.997v-8.025c0-2.21,1.789-3.998,3.998-3.998s3.998,1.788,3.998,3.998
							v8.025C316.014,470.06,314.225,471.848,312.016,471.848z"/>
					</g>
				</g>
				<g>
					<g>
						<path d="M327.941,471.848c-2.209,0-3.996-1.788-3.996-3.997v-8.025c0-2.21,1.787-3.998,3.996-3.998s3.998,1.788,3.998,3.998
							v8.025C331.939,470.06,330.15,471.848,327.941,471.848z"/>
					</g>
				</g>
			</g>
		</g>
		<g>
			<g>
				<path d="M88.119,391.903H64.135c-2.209,0-3.997-1.787-3.997-3.996c0-2.21,1.788-3.998,3.997-3.998h23.983
					c2.209,0,3.997,1.788,3.997,3.998C92.116,390.116,90.328,391.903,88.119,391.903z"/>
			</g>
		</g>
		<g>
			<g>
				<path d="M72.13,112.102h-7.995c-2.209,0-3.997-1.788-3.997-3.997c0-2.21,1.788-3.997,3.997-3.997h7.995
					c2.209,0,3.998,1.787,3.998,3.997C76.127,110.313,74.339,112.102,72.13,112.102z"/>
			</g>
		</g>
		<g>
			<g>
				<path d="M447.865,176.057h-31.979c-2.209,0-3.996-1.788-3.996-3.998c0-2.209,1.787-3.997,3.996-3.997h31.979
					c2.209,0,3.996,1.788,3.996,3.997C451.861,174.269,450.074,176.057,447.865,176.057z"/>
			</g>
		</g>
		<g>
			<g>
				<path d="M447.865,351.933h-7.994c-2.209,0-3.998-1.788-3.998-3.998c0-2.209,1.789-3.997,3.998-3.997h7.994
					c2.209,0,3.996,1.788,3.996,3.997C451.861,350.145,450.074,351.933,447.865,351.933z"/>
			</g>
		</g>
	</g>
	<g>
		<g>
			<path d="M399.898,136.084H112.102c-2.21,0-3.998-1.787-3.998-3.997c0-2.209,1.788-3.997,3.998-3.997h287.796
				c2.209,0,3.998,1.788,3.998,3.997C403.896,134.297,402.107,136.084,399.898,136.084z"/>
		</g>
	</g>
</g>
</svg>
