<?xml version="1.0" encoding="utf-8"?>
<!-- Generator: Adobe Illustrator 16.0.0, SVG Export Plug-In . SVG Version: 6.00 Build 0)  -->
<!DOCTYPE svg PUBLIC "-//W3C//DTD SVG 1.1//EN" "http://www.w3.org/Graphics/SVG/1.1/DTD/svg11.dtd">
<svg version="1.1" xmlns="http://www.w3.org/2000/svg" xmlns:xlink="http://www.w3.org/1999/xlink" x="0px" y="0px" width="64px"
	 height="64px" viewBox="0 0 64 64" enable-background="new 0 0 64 64" xml:space="preserve">
<g id="_x32_5_purse_x2C__money_x2C__coin_x2C__banknote_x2C__payment_x2C__shop_x2C__shopping">
</g>
<g id="_x32_4_pay_x2C__click_x2C__hand_x2C__coin_x2C__money_x2C__shop_x2C__payment">
</g>
<g id="_x32_3_card_x2C__discount_x2C__sale_x2C__shop_x2C__shopping_x2C__commerce_x2C__market">
</g>
<g id="_x32_2_safe_x2C__box_x2C__key_x2C__thing_x2C__shop_x2C__shopping_x2C__commerce">
</g>
<g id="_x32_1_cashbox_x2C__money_x2C__purchase_x2C__list_x2C__check_x2C__shop_x2C__shopping">
</g>
<g id="_x32_0_search_x2C__magnifier_x2C__basket_x2C__shop_x2C__shopping_x2C__commerce_x2C__market">
</g>
<g id="_x31_9_return_x2C__box_x2C__purchase_x2C__shipping_x2C__delivery_x2C__shop_x2C__shopping">
</g>
<g id="_x31_8_review_x2C__client_x2C__buyer_x2C__talk_x2C__shop_x2C__shopping_x2C__commerce">
</g>
<g id="_x31_7_manager_x2C__consultant_x2C__shop_x2C__shopping_x2C__commerce_x2C__market_x2C__badge">
</g>
<g id="_x31_6_check_x2C__list_x2C__cashbox_x2C__purchase_x2C__shop_x2C__shopping_x2C__commerce">
</g>
<g id="_x31_5_coupon_x2C__sale_x2C__discount_x2C__shop_x2C__shopping_x2C__commerce_x2C__market">
</g>
<g id="_x31_4_sale_x2C__discount_x2C__box_x2C__gift_x2C__shop_x2C__shopping_x2C__commerce">
	<g>
		<path fill="#A0D468" d="M58.383,47.511c-0.429-1.014-1.13-2.671-1.559-3.683s-0.953-2.254-1.165-2.76s-0.561-1.334-0.774-1.84
			s-0.565-1.336-0.78-1.845s-0.566-1.339-0.78-1.845s-0.74-1.749-1.168-2.762l-0.004-0.008c-0.428-1.013-1.129-2.671-1.557-3.684
			l-3.113-7.365c-0.428-1.013-1.607-1.49-2.62-1.061l-2.756,1.168c-1.013,0.43-1.491,1.609-1.063,2.622l4.672,11.046
			c0.429,1.013,1.129,2.671,1.557,3.685l1.555,3.686c0.428,1.014,1.128,2.672,1.556,3.685l4.674,11.057
			c0.428,1.013,1.607,1.491,2.621,1.063l2.754-1.164c1.014-0.428,1.493-1.607,1.064-2.621L58.383,47.511z"/>
		<g>
			<path fill="#FFE6A9" d="M38.012,21.831c-4.701-3.752-10.654-6-17.137-6s-12.436,2.248-17.137,6H38.012z"/>
		</g>
		<g>
			<path fill="#FFDA7E" d="M33.676,21.827c-3.633-2.519-8.041-3.999-12.799-3.999c-4.756,0-9.166,1.48-12.801,3.999H33.676z"/>
		</g>
		<g>
			<path fill="#FFCE54" d="M28.98,21.831c-2.426-1.273-5.184-2.003-8.115-2.003c-2.93,0-5.688,0.729-8.115,2.003H28.98z"/>
		</g>
		<g>
			<path fill="#A0D468" d="M40.867,56.828c0,1.1-0.9,2-2,2H2.865c-1.1,0-2-0.9-2-2V23.827c0-1.101,0.9-2,2-2h36.002
				c1.1,0,2,0.899,2,2V56.828z"/>
		</g>
		<g>
			<rect x="16.873" y="21.827" fill="#DA4453" width="8" height="37.005"/>
		</g>
		<g>
			<path fill="#DA4453" d="M55.405,35.309c-0.91,0.721-1.691,1.15-1.691,1.15l-0.779-1.84l-1.561-3.691h0.01
				c0,0,1.281-6.339,5.521-2.329C59.634,31.188,57.265,33.838,55.405,35.309z"/>
		</g>
		<g>
			<path fill="#ED5565" d="M57.265,37.139c0.699,1.67,0.01,2.6,0.01,2.6c-1.15,0.15-2,0.41-2,0.41l-0.779-1.84l-0.781-1.85
				c0,0,0.781-0.43,1.691-1.15C55.405,35.309,56.554,35.469,57.265,37.139z"/>
		</g>
		<g>
			<path fill="#DA4453" d="M57.274,39.738c2.34-0.309,5.91-0.17,5.859,3.6c-0.08,5.83-5.52,2.33-5.52,2.33h-0.01l-1.561-3.68
				l-0.77-1.84C55.274,40.148,56.124,39.889,57.274,39.738z"/>
		</g>
		<g>
			<path fill="#FFE6A9" d="M20.871,13.168c-0.276,0-0.5-0.224-0.5-0.5v-7c0-0.276,0.224-0.5,0.5-0.5s0.5,0.224,0.5,0.5v7
				C21.371,12.944,21.147,13.168,20.871,13.168z"/>
		</g>
		<g>
			<path fill="#FFE6A9" d="M15.747,13.616c-0.237,0-0.448-0.171-0.491-0.413L14.041,6.31c-0.048-0.272,0.134-0.531,0.405-0.579
				c0.268-0.048,0.531,0.132,0.579,0.405l1.215,6.894c0.048,0.271-0.134,0.531-0.405,0.579
				C15.806,13.613,15.776,13.616,15.747,13.616z"/>
		</g>
		<g>
			<path fill="#FFE6A9" d="M10.781,14.946c-0.204,0-0.396-0.126-0.47-0.329L7.917,8.039C7.822,7.78,7.956,7.493,8.216,7.398
				c0.261-0.095,0.546,0.04,0.641,0.299l2.395,6.578c0.095,0.26-0.039,0.547-0.299,0.641C10.896,14.937,10.838,14.946,10.781,14.946
				z"/>
		</g>
		<g>
			<path fill="#FFE6A9" d="M6.121,17.119c-0.172,0-0.341-0.089-0.433-0.25l-3.501-6.063c-0.139-0.239-0.057-0.545,0.183-0.683
				c0.238-0.138,0.545-0.058,0.683,0.183l3.501,6.063c0.139,0.239,0.057,0.545-0.183,0.684C6.292,17.098,6.206,17.119,6.121,17.119z
				"/>
		</g>
		<g>
			<path fill="#FFE6A9" d="M35.619,17.121c-0.085,0-0.171-0.021-0.25-0.066c-0.239-0.139-0.321-0.444-0.183-0.684l3.498-6.063
				c0.137-0.239,0.441-0.322,0.683-0.183c0.239,0.138,0.321,0.443,0.183,0.683l-3.498,6.063
				C35.96,17.031,35.792,17.121,35.619,17.121z"/>
		</g>
		<g>
			<path fill="#FFE6A9" d="M30.957,14.948c-0.057,0-0.114-0.01-0.171-0.03c-0.26-0.095-0.394-0.382-0.299-0.641l2.393-6.578
				c0.094-0.259,0.382-0.393,0.641-0.299c0.26,0.095,0.394,0.382,0.299,0.641l-2.393,6.578
				C31.354,14.822,31.161,14.948,30.957,14.948z"/>
		</g>
		<g>
			<path fill="#FFE6A9" d="M25.992,13.617c-0.029,0-0.059-0.002-0.088-0.008c-0.271-0.048-0.453-0.307-0.405-0.579l1.214-6.894
				c0.049-0.271,0.314-0.453,0.579-0.405c0.271,0.048,0.453,0.308,0.405,0.579l-1.214,6.894
				C26.44,13.446,26.229,13.617,25.992,13.617z"/>
		</g>
		<path fill="#D3374E" d="M19.371,47.168c-0.276,0-0.5,0.224-0.5,0.5v11.164h1V47.668C19.871,47.392,19.647,47.168,19.371,47.168z"
			/>
		<path fill="#D3374E" d="M21.871,21.827v12.841c0,0.276,0.224,0.5,0.5,0.5s0.5-0.224,0.5-0.5V21.827H21.871z"/>
		<g>
			<polygon fill="#ED5565" points="55.274,40.148 56.044,41.988 49.604,44.709 46.495,37.338 52.935,34.619 53.714,36.459 
				54.495,38.309 			"/>
		</g>
		<path fill="#ED5565" d="M31.73,38.686c-0.223,0.332-0.171,0.836,0.115,1.119c0.285,0.284,0.285,0.75,0,1.035
			c-0.286,0.286-0.338,0.793-0.115,1.125c0.223,0.333,0.133,0.788-0.199,1.01c-0.333,0.223-0.479,0.709-0.326,1.08
			c0.154,0.372-0.023,0.802-0.395,0.955c-0.371,0.154-0.609,0.602-0.529,0.995c0.079,0.394-0.18,0.778-0.576,0.854
			c-0.396,0.077-0.718,0.469-0.715,0.871c0.003,0.401-0.323,0.729-0.725,0.729c-0.402,0-0.796,0.321-0.875,0.715
			c-0.08,0.394-0.467,0.649-0.86,0.569c-0.394-0.079-0.841,0.159-0.995,0.531c-0.153,0.371-0.581,0.549-0.949,0.395
			c-0.369-0.154-0.854-0.006-1.076,0.33c-0.222,0.336-0.679,0.426-1.014,0.2c-0.336-0.226-0.842-0.176-1.125,0.11
			c-0.284,0.285-0.747,0.285-1.031,0c-0.283-0.286-0.787-0.338-1.119-0.115c-0.333,0.222-0.788,0.132-1.01-0.201
			c-0.223-0.332-0.709-0.479-1.08-0.324c-0.372,0.154-0.802-0.023-0.955-0.395c-0.154-0.372-0.6-0.61-0.99-0.531
			c-0.391,0.08-0.775-0.179-0.855-0.574c-0.079-0.396-0.473-0.72-0.875-0.72c-0.401,0-0.729-0.326-0.729-0.726
			c0-0.398-0.321-0.79-0.715-0.869c-0.394-0.08-0.649-0.467-0.569-0.86c0.079-0.394-0.159-0.841-0.531-0.995
			c-0.371-0.154-0.549-0.582-0.395-0.95s0.008-0.853-0.324-1.075c-0.333-0.222-0.423-0.679-0.201-1.015
			c0.223-0.336,0.174-0.842-0.109-1.125c-0.284-0.283-0.286-0.744-0.006-1.024c0.281-0.281,0.328-0.783,0.105-1.115
			c-0.223-0.333-0.131-0.788,0.205-1.01c0.336-0.223,0.484-0.709,0.33-1.08c-0.154-0.372,0.021-0.802,0.39-0.955
			c0.368-0.154,0.607-0.602,0.53-0.995s0.182-0.778,0.575-0.854c0.394-0.077,0.715-0.469,0.715-0.871
			c0-0.401,0.328-0.729,0.729-0.729c0.402,0,0.794-0.322,0.871-0.716c0.076-0.393,0.461-0.651,0.854-0.574s0.841-0.163,0.995-0.535
			c0.153-0.371,0.583-0.549,0.955-0.395c0.371,0.153,0.857,0.007,1.08-0.325c0.222-0.332,0.677-0.423,1.01-0.2
			c0.332,0.223,0.836,0.173,1.119-0.11c0.284-0.283,0.747-0.283,1.031,0c0.283,0.283,0.789,0.333,1.125,0.11
			c0.335-0.223,0.789-0.132,1.01,0.2c0.22,0.332,0.703,0.479,1.074,0.325c0.372-0.154,0.802,0.023,0.955,0.395
			c0.154,0.372,0.602,0.61,0.995,0.53s0.78,0.176,0.86,0.569c0.079,0.394,0.473,0.715,0.875,0.715c0.401,0,0.728,0.329,0.725,0.73
			s0.319,0.793,0.715,0.87c0.396,0.077,0.655,0.462,0.576,0.854c-0.08,0.394,0.158,0.842,0.529,0.996
			c0.371,0.153,0.549,0.583,0.395,0.955c-0.153,0.371-0.007,0.857,0.326,1.08C31.863,37.897,31.953,38.353,31.73,38.686z"/>
		<g>
			<path fill="#F5F7FA" d="M16.365,45.33c-0.128,0-0.256-0.049-0.354-0.146c-0.195-0.195-0.195-0.512,0-0.707l9-9
				c0.195-0.195,0.512-0.195,0.707,0s0.195,0.512,0,0.707l-9,9C16.621,45.281,16.493,45.33,16.365,45.33z"/>
		</g>
		<g>
			<path fill="#F5F7FA" d="M24.136,45.33c-1.229,0-2.23-1.001-2.23-2.23s1.001-2.229,2.23-2.229s2.229,1,2.229,2.229
				S25.365,45.33,24.136,45.33z M24.136,41.87c-0.679,0-1.23,0.552-1.23,1.229c0,0.679,0.552,1.23,1.23,1.23
				c0.678,0,1.229-0.552,1.229-1.23C25.365,42.422,24.813,41.87,24.136,41.87z"/>
		</g>
		<g>
			<path fill="#F5F7FA" d="M17.596,39.33c-1.229,0-2.23-1.001-2.23-2.23s1.001-2.229,2.23-2.229s2.229,1,2.229,2.229
				S18.825,39.33,17.596,39.33z M17.596,35.87c-0.679,0-1.23,0.552-1.23,1.229c0,0.679,0.552,1.23,1.23,1.23
				c0.678,0,1.229-0.552,1.229-1.23C18.825,36.422,18.273,35.87,17.596,35.87z"/>
		</g>
	</g>
</g>
<g id="_x31_3_map_x2C__pin_x2C__marker_x2C__location_x2C__shop_x2C__shopping_x2C__basket">
</g>
<g id="_x31_2_operator_x2C__call_x2C__center_x2C__shop_x2C__shopping_x2C__commerce_x2C__market">
</g>
<g id="_x31_1_courier_x2C__box_x2C__shipping_x2C__purchase_x2C__shop_x2C__shopping_x2C__commerce">
</g>
<g id="_x31_0_box_x2C__shipping_x2C__delivery_x2C__purchase_x2C__shop_x2C__shopping_x2C__commerce">
</g>
<g id="_x39__shipping_x2C__delivery_x2C__box_x2C__crane_x2C__shop_x2C__shopping_x2C__commerce">
</g>
<g id="_x38__computer_x2C__monitor_x2C__desktop_x2C__shop_x2C__shopping_x2C__commerce_x2C__market">
</g>
<g id="_x37__mobile_x2C__phone_x2C__app_x2C__shop_x2C__shopping_x2C__commerce_x2C__market">
</g>
<g id="_x36__food_x2C__market_x2C__purchase_x2C__shop_x2C__shopping_x2C__commerce_x2C__basket">
</g>
<g id="_x35__discount_x2C__sale_x2C__purchase_x2C__pocket_x2C__shop_x2C__shopping_x2C__commerce">
</g>
<g id="_x34__badge_x2C__discount_x2C__sale_x2C__shop_x2C__shopping_x2C__commerce_x2C__market">
</g>
<g id="_x33__food_x2C__pocket_x2C__purchase_x2C__shop_x2C__shopping_x2C__commerce_x2C__supermarket">
</g>
<g id="_x32__shop_x2C__shopping_x2C__commerce_x2C__supermarket_x2C__market_x2C__cart">
</g>
<g id="_x31__list_x2C__check_x2C__notebook_x2C__pen_x2C__shop_x2C__shopping_x2C__commerce">
</g>
</svg>
