<svg xmlns="http://www.w3.org/2000/svg" viewBox="0 0 64 64"><g id="_14-chat" data-name="14-chat"><rect x="13" y="9" width="38" height="46" style="fill:#80dbff"/><path d="M51,55v4a4,4,0,0,1-4,4H17a4,4,0,0,1-4-4V55Z" style="fill:#f0f0f0"/><path d="M51,5V9H13V5a4,4,0,0,1,4-4H47A4,4,0,0,1,51,5Z" style="fill:#f0f0f0"/><rect x="13" y="9" width="4" height="46" style="fill:#19cffc"/><rect x="47" y="9" width="4" height="46" style="fill:#19cffc"/><path d="M17,59V55H13v4a4,4,0,0,0,4,4h4A4,4,0,0,1,17,59Z" style="fill:#d9d9d9"/><path d="M21,1H17a4,4,0,0,0-4,4V9h4V5A4,4,0,0,1,21,1Z" style="fill:#d9d9d9"/><path d="M47,59V55h4v4a4,4,0,0,1-4,4H43A4,4,0,0,0,47,59Z" style="fill:#d9d9d9"/><path d="M43,1h4a4,4,0,0,1,4,4V9H47V5A4,4,0,0,0,43,1Z" style="fill:#d9d9d9"/><rect x="27" y="4" width="10" height="2" style="fill:#6e6e6e"/><rect x="27" y="58" width="10" height="2" style="fill:#6e6e6e"/><rect x="46" y="12" width="2" height="2" style="fill:#4ab8f7"/><rect x="46" y="16" width="2" height="13" style="fill:#4ab8f7"/><rect x="16" y="31" width="4" height="4" style="fill:#ffc9c9"/><polygon points="21 17 20 27 16 27 15 17 21 17" style="fill:#ffc9c9"/><path d="M35,15V25H31a2.006,2.006,0,0,0-2,2V39H23v6l-6-6H3a2.006,2.006,0,0,1-2-2V15a2.006,2.006,0,0,1,2-2H33A2.006,2.006,0,0,1,35,15ZM20,27l1-10H15l1,10Zm0,8V31H16v4Z" style="fill:#ff636e"/><path d="M33,13H30a2.006,2.006,0,0,1,2,2V25h3V15A2.006,2.006,0,0,0,33,13Z" style="fill:#ff475a"/><polygon points="13 27 16 27 15 17 12 17 13 27" style="fill:#ff475a"/><rect x="13" y="31" width="3" height="4" style="fill:#ff475a"/><path d="M26,27V39h3V27a2.006,2.006,0,0,1,2-2H28A2.006,2.006,0,0,0,26,27Z" style="fill:#ff475a"/><polygon points="20 42 23 45 23 39 20 39 20 42" style="fill:#ff475a"/><circle cx="55" cy="39" r="2" style="fill:#ffeccf"/><path d="M63,27V49a2.006,2.006,0,0,1-2,2H31a2.006,2.006,0,0,1-2-2V27a2.006,2.006,0,0,1,2-2H41V19l6,6H61A2.006,2.006,0,0,1,63,27ZM57,39a2,2,0,1,0-2,2A2.006,2.006,0,0,0,57,39Zm-9,0a2,2,0,1,0-2,2A2.006,2.006,0,0,0,48,39Zm-9,0a2,2,0,1,0-2,2A2.006,2.006,0,0,0,39,39Z" style="fill:#ffac5a"/><path d="M40,41a2,2,0,1,0-1.5-3.307,1.958,1.958,0,0,1,0,2.614A1.991,1.991,0,0,0,40,41Z" style="fill:#ff873c"/><path d="M58,37a1.991,1.991,0,0,0-1.5.693,1.958,1.958,0,0,1,0,2.614A2,2,0,1,0,58,37Z" style="fill:#ff873c"/><path d="M49,41a2,2,0,1,0-1.5-3.307,1.958,1.958,0,0,1,0,2.614A1.991,1.991,0,0,0,49,41Z" style="fill:#ff873c"/><path d="M32,49V27a2.006,2.006,0,0,1,2-2H31a2.006,2.006,0,0,0-2,2V49a2.006,2.006,0,0,0,2,2h3A2.006,2.006,0,0,1,32,49Z" style="fill:#ff873c"/><polygon points="44 22 41 19 41 25 44 25 44 22" style="fill:#ff873c"/><circle cx="46" cy="39" r="2" style="fill:#ffeccf"/><circle cx="37" cy="39" r="2" style="fill:#ffeccf"/><path d="M21,52H17a1,1,0,0,1-1-1V47h2v3h3Z" style="fill:#4ab8f7"/><rect x="23" y="50" width="2" height="2" style="fill:#4ab8f7"/><rect x="27" y="4" width="10" height="2"/><rect x="27" y="58" width="10" height="2"/><path d="M61,24H52V5a5.006,5.006,0,0,0-5-5H17a5.006,5.006,0,0,0-5,5v7H3a3,3,0,0,0-3,3V37a3,3,0,0,0,3,3h9V59a5.006,5.006,0,0,0,5,5H47a5.006,5.006,0,0,0,5-5V52h9a3,3,0,0,0,3-3V27A3,3,0,0,0,61,24ZM17,2H47a3,3,0,0,1,3,3V8H14V5A3,3,0,0,1,17,2Zm-3,8H50V24H47.414l-5.707-5.707A1,1,0,0,0,40,19v5H36V15a3,3,0,0,0-3-3H14ZM2,37V15a1,1,0,0,1,1-1H33a1,1,0,0,1,1,1v9H31a3,3,0,0,0-3,3V38H23a1,1,0,0,0-1,1v3.586l-4.293-4.293A1,1,0,0,0,17,38H3A1,1,0,0,1,2,37ZM47,62H17a3,3,0,0,1-3-3V56H50v3A3,3,0,0,1,47,62Zm3-8H14V40h2.586l5.707,5.707A1,1,0,0,0,23,46a.987.987,0,0,0,.383-.076A1,1,0,0,0,24,45V40h4v9a3,3,0,0,0,3,3H50Zm12-5a1,1,0,0,1-1,1H31a1,1,0,0,1-1-1V27a1,1,0,0,1,1-1H41a1,1,0,0,0,1-1V21.414l4.293,4.293A1,1,0,0,0,47,26H61a1,1,0,0,1,1,1Z"/><path d="M16,28h4a1,1,0,0,0,1-.9l1-10A1,1,0,0,0,21,16H15a1,1,0,0,0-.995,1.1l1,10A1,1,0,0,0,16,28ZM19.9,18l-.8,8h-2.19l-.8-8Z"/><path d="M18,47H16v4a1,1,0,0,0,1,1h4V50H18Z"/><rect x="23" y="50" width="2" height="2"/><path d="M21,35V31a1,1,0,0,0-1-1H16a1,1,0,0,0-1,1v4a1,1,0,0,0,1,1h4A1,1,0,0,0,21,35Zm-2-1H17V32h2Z"/><path d="M37,36a3,3,0,1,0,3,3A3,3,0,0,0,37,36Zm0,4a1,1,0,1,1,1-1A1,1,0,0,1,37,40Z"/><path d="M46,36a3,3,0,1,0,3,3A3,3,0,0,0,46,36Zm0,4a1,1,0,1,1,1-1A1,1,0,0,1,46,40Z"/><path d="M55,36a3,3,0,1,0,3,3A3,3,0,0,0,55,36Zm0,4a1,1,0,1,1,1-1A1,1,0,0,1,55,40Z"/></g></svg>