<svg xmlns="http://www.w3.org/2000/svg" viewBox="0 0 64 64"><g id="_14-Eyeshadow" data-name="14-Eyeshadow"><path d="M63,25,49.52,22.11A5.35,5.35,0,0,0,48.47,22H2a1,1,0,0,1-1-1,8,8,0,0,1,8-8H44.37a16.008,16.008,0,0,1,11.32,4.69Z" style="fill:#5c514d"/><path d="M57,42a82.418,82.418,0,0,1-28,5c-15,0-19.61-.92-19.98-.99A.031.031,0,0,0,9,46S9,28,21,28C37,28,57,42,57,42Z" style="fill:#d45f73"/><path d="M42.24,49.16c-.35.1-.7.2-1.06.29A7.965,7.965,0,0,0,45,54a8.108,8.108,0,0,1-6.89-3.87c-.33.07-.66.13-1,.18C37.53,54.52,39,56,39,56c-3.8-1.08-5.23-3.34-5.76-5.18-.37.03-.74.06-1.11.08L30,58l-1.4-7.01c-.32,0-.64,0-.94-.01-.57,1.81-2.02,3.97-5.71,5.02,0,0,1.38-1.39,1.85-5.3-.41-.05-.81-.1-1.19-.16A8.033,8.033,0,0,1,16,54a8.178,8.178,0,0,0,3.65-4.03c-.53-.13-1.03-.26-1.51-.41A12.021,12.021,0,0,1,12,51a16.747,16.747,0,0,0,3.88-2.22c-4.81-1.92-6.65-2.68-6.86-2.77C9.39,46.08,14,47,29,47a82.418,82.418,0,0,0,28-5,40.164,40.164,0,0,1-7.91,4.72L51,48a25.738,25.738,0,0,1-4.18-.35q-1.005.39-2.1.75A15.016,15.016,0,0,0,49,51,11.354,11.354,0,0,1,42.24,49.16Z" style="fill:#453d38"/><path d="M41.345,18H12.693a2.5,2.5,0,1,1,0-5H9a8,8,0,0,0-8,8,1,1,0,0,0,1,1H48.47a5.35,5.35,0,0,1,1.05.11L63,25l-8.969-4.185A30,30,0,0,0,41.345,18Z" style="fill:#3b3430"/><path d="M25.124,41.828a6.935,6.935,0,0,1-.788-13.635A31.021,31.021,0,0,0,21,28C9,28,9,46,9,46a.031.031,0,0,1,.02.01C9.39,46.08,14,47,29,47a82.418,82.418,0,0,0,28-5C48.037,44.068,33.369,42.809,25.124,41.828Z" style="fill:#b85162"/><polygon points="63 60 63 63 58 63 38 48 42 44 63 60" style="fill:#d45f73"/><path d="M36.2,33.06,42,44l-4,4L26.06,43.2s-.73-3.62,2.9-7.24S36.2,33.06,36.2,33.06Z" style="fill:#f8eae9"/><path d="M60,57.714V59a1,1,0,0,1-1.6.8L40,46l-2,2L58,63h5V60Z" style="fill:#b85162"/><path d="M26.5,39.7a7.111,7.111,0,0,0-.442,3.5L38,48l2-2Z" style="fill:#edc9cb"/><rect x="13" y="12" width="2" height="2"/><path d="M63.707,24.293l-7.313-7.314A16.893,16.893,0,0,0,44.373,12H17v2H44.373a14.9,14.9,0,0,1,10.606,4.394L59.9,23.312l-10.17-2.179A6.04,6.04,0,0,0,48.47,21H2a7.008,7.008,0,0,1,7-7h2V12H9a9.011,9.011,0,0,0-9,9,2,2,0,0,0,2,2H48.47a4.005,4.005,0,0,1,.839.089l13.482,2.889a1,1,0,0,0,.916-1.685Z"/><path d="M37.087,32.591c-.005-.008-.014-.013-.019-.022a105.064,105.064,0,0,1,17.725,9.168c-1.186.4-2.908.948-5.047,1.509l.508,1.934a63.747,63.747,0,0,0,7.121-2.253,1,1,0,0,0,.2-1.746C56.746,40.6,37.13,27,21,27,10.717,27,8,39.429,8,46h.01a.992.992,0,0,0,.6.923s1.349.564,5.159,2.094a19.484,19.484,0,0,1-2.145,1.055A1,1,0,0,0,12,52a13.442,13.442,0,0,0,6.2-1.332,7.686,7.686,0,0,1-2.646,2.438A1,1,0,0,0,16,55a8.79,8.79,0,0,0,6.531-2.819A7.325,7.325,0,0,1,21.24,55.3a1,1,0,0,0,.985,1.666,9.057,9.057,0,0,0,5.72-4.141L29.02,58.2a1,1,0,0,0,.933.8H30a1,1,0,0,0,.958-.713l1.789-5.962a8.852,8.852,0,0,0,5.979,4.637,1,1,0,0,0,1.12-.444,1.012,1.012,0,0,0-.124-1.21c-.013-.013-1.244-1.381-1.614-5.092l-1.99.2a16.516,16.516,0,0,0,.725,3.576,5.886,5.886,0,0,1-2.638-3.447.992.992,0,0,0-1.049-.722c-.361.032-.724.061-1.092.084a1,1,0,0,0-.893.711l-.977,3.257L29.579,50.8a1,1,0,0,0-.974-.8c-.309,0-.619-.006-.918-.014a1.008,1.008,0,0,0-.983.7,5.9,5.9,0,0,1-2.6,3.307,16.079,16.079,0,0,0,.681-3.169,1,1,0,0,0-.876-1.111q-.594-.07-1.16-.155a1.012,1.012,0,0,0-.951.394A7.99,7.99,0,0,1,19.782,51.9a7.346,7.346,0,0,0,.811-1.592,1,1,0,0,0-.7-1.312q-.765-.186-1.464-.393a1,1,0,0,0-.787.092,8.011,8.011,0,0,1-.817.414,1,1,0,0,0-.573-1.257l-.409-.164C18.911,47.863,23.178,48,29,48V46c-11.771,0-17.118-.573-18.971-.84a31.243,31.243,0,0,1,1.433-7.884C13.3,31.785,16.513,29,21,29a43.9,43.9,0,0,1,14.563,3A10.033,10.033,0,0,0,28.25,35.25c-3.956,3.956-3.206,7.979-3.171,8.149a1,1,0,0,0,.608.732l11.818,4.747L57.4,63.8l1.2-1.6L39.522,47.892l2.567-2.567L62.394,60.8,63.606,59.2,42.78,43.337Zm.673,14.235L27,42.5a8.057,8.057,0,0,1,2.667-5.838A8.054,8.054,0,0,1,35.569,34l5.2,9.816Z"/></g></svg>