<svg xmlns="http://www.w3.org/2000/svg" viewBox="0 0 64 64"><title>14-Programming</title><g id="_14-Programming" data-name="14-Programming"><g id="_Group_" data-name="&lt;Group&gt;"><path d="M61,51H3a3,3,0,0,1-3-3V4A3,3,0,0,1,3,1H61a3,3,0,0,1,3,3V48A3,3,0,0,1,61,51ZM3,3A1,1,0,0,0,2,4V48a1,1,0,0,0,1,1H61a1,1,0,0,0,1-1V4a1,1,0,0,0-1-1Z"/><path d="M45,63H19a1,1,0,0,1-1-1V59a1,1,0,0,1,.126-.486l5-9,1.748.972L20,59.259V61H44V59.259l-4.874-8.773,1.748-.972,5,9A1,1,0,0,1,46,59v3A1,1,0,0,1,45,63Z"/><rect x="19" y="58" width="26" height="2"/><rect x="16" y="61" width="3" height="2"/><rect x="45" y="61" width="3" height="2"/><rect x="1" y="41" width="62" height="2"/></g><path d="M32,30H12a1,1,0,0,1-1-1V7a1,1,0,0,1,1-1H32a1,1,0,0,1,1,1V29A1,1,0,0,1,32,30ZM13,28H31V8H13Z"/><rect x="12" y="14" width="20" height="2"/><rect x="15" y="10" width="2" height="2"/><rect x="19" y="10" width="2" height="2"/><path d="M52,38H32a1,1,0,0,1-1-1V15a1,1,0,0,1,1-1H52a1,1,0,0,1,1,1V37A1,1,0,0,1,52,38ZM33,36H51V16H33Z"/><rect x="32" y="22" width="20" height="2"/><rect x="35" y="18" width="2" height="2"/><rect x="39" y="18" width="2" height="2"/><path d="M57,38H55V36h.865a5.865,5.865,0,0,1,.877-3.977A2.715,2.715,0,0,1,58,31.155V31h2v1a1,1,0,0,1-1,1,.812.812,0,0,0-.71.291c-.61.742-.472,2.688-.31,3.514A1,1,0,0,1,57,38Z"/><path d="M60,31H58v-.155a2.715,2.715,0,0,1-1.258-.868A5.865,5.865,0,0,1,55.865,26H55V24h2a1,1,0,0,1,.98,1.2c-.162.826-.3,2.772.31,3.514A.812.812,0,0,0,59,29a1,1,0,0,1,1,1Z"/><path d="M6,13H4V12a1,1,0,0,1,1-1,.812.812,0,0,0,.71-.291c.61-.742.472-2.688.31-3.514A1,1,0,0,1,7,6H9V8H8.135a5.865,5.865,0,0,1-.877,3.977A2.715,2.715,0,0,1,6,12.845Z"/><path d="M9,20H7a1,1,0,0,1-.98-1.2c.162-.826.3-2.772-.31-3.514A.812.812,0,0,0,5,15a1,1,0,0,1-1-1V13H6v.155a2.715,2.715,0,0,1,1.258.868A5.865,5.865,0,0,1,8.135,18H9Z"/><path d="M26.293,25.707l-3-3a1,1,0,0,1,0-1.414l3-3,1.414,1.414L25.414,22l2.293,2.293Z"/><path d="M37.707,33.707l-1.414-1.414L38.586,30l-2.293-2.293,1.414-1.414,3,3a1,1,0,0,1,0,1.414Z"/></g></svg>