<svg xmlns="http://www.w3.org/2000/svg" xmlns:xlink="http://www.w3.org/1999/xlink" viewBox="0 0 64 64"><defs><linearGradient id="linear-gradient" x1="32" y1="1.304" x2="32" y2="63.304" gradientUnits="userSpaceOnUse"><stop offset="0" stop-color="#ffe100"/><stop offset="1" stop-color="#f98900"/></linearGradient><radialGradient id="radial-gradient" cx="39.467" cy="25.072" r="8.5" gradientTransform="translate(5.569 8.503) scale(1.176)" gradientUnits="userSpaceOnUse"><stop offset="0" stop-color="#f60"/><stop offset="0.098" stop-color="#ff6800" stop-opacity="0.978"/><stop offset="0.222" stop-color="#fe6d01" stop-opacity="0.916"/><stop offset="0.36" stop-color="#fe7501" stop-opacity="0.814"/><stop offset="0.509" stop-color="#fd8003" stop-opacity="0.672"/><stop offset="0.666" stop-color="#fc8e04" stop-opacity="0.488"/><stop offset="0.83" stop-color="#fba006" stop-opacity="0.264"/><stop offset="0.997" stop-color="#f9b508" stop-opacity="0.004"/><stop offset="1" stop-color="#f9b508" stop-opacity="0"/></radialGradient><radialGradient id="radial-gradient-2" cx="5.467" cy="25.072" r="8.5" xlink:href="#radial-gradient"/><linearGradient id="linear-gradient-2" x1="32" y1="47.725" x2="32" y2="41.929" gradientUnits="userSpaceOnUse"><stop offset="0" stop-color="#911625"/><stop offset="0.587" stop-color="#630f19"/><stop offset="1" stop-color="#400a10"/></linearGradient><linearGradient id="linear-gradient-3" x1="56.064" y1="2.799" x2="51.845" y2="16.637" gradientUnits="userSpaceOnUse"><stop offset="0" stop-color="#ff5f6f"/><stop offset="0.346" stop-color="#ff2d44"/><stop offset="0.722" stop-color="#d41e32"/><stop offset="0.853" stop-color="#d61f33"/><stop offset="0.918" stop-color="#de2337"/><stop offset="0.968" stop-color="#eb293e"/><stop offset="1" stop-color="#f82f44"/></linearGradient><linearGradient id="linear-gradient-4" x1="60.73" y1="5.375" x2="57.73" y2="10.588" gradientUnits="userSpaceOnUse"><stop offset="0" stop-color="#ff5f5f"/><stop offset="0.283" stop-color="#ff565a"/><stop offset="0.746" stop-color="#ff3d4d"/><stop offset="1" stop-color="#ff2d44"/></linearGradient><linearGradient id="linear-gradient-5" x1="54.016" y1="4.042" x2="52.216" y2="6.348" xlink:href="#linear-gradient-4"/><linearGradient id="linear-gradient-6" x1="59.272" y1="46.728" x2="49.878" y2="56.122" xlink:href="#linear-gradient-3"/><linearGradient id="linear-gradient-7" x1="59.594" y1="51.009" x2="57.493" y2="54.66" xlink:href="#linear-gradient-4"/><linearGradient id="linear-gradient-8" x1="4.806" y1="6.794" x2="14.031" y2="16.057" xlink:href="#linear-gradient-3"/><linearGradient id="linear-gradient-9" x1="12.083" y1="4.957" x2="10.031" y2="8.523" gradientTransform="matrix(0.657, -0.753, 0.753, 0.657, -1.066, 10.851)" xlink:href="#linear-gradient-4"/><linearGradient id="linear-gradient-10" x1="7.477" y1="9.808" x2="5.634" y2="12.169" gradientTransform="translate(-6.768 9.964) rotate(-53.372)" xlink:href="#linear-gradient-4"/><linearGradient id="linear-gradient-11" x1="4.867" y1="50.653" x2="16.005" y2="62.465" xlink:href="#linear-gradient-3"/><linearGradient id="linear-gradient-12" x1="13.892" y1="48.678" x2="11.734" y2="52.428" gradientTransform="translate(-32.586 24.317) rotate(-45)" xlink:href="#linear-gradient-4"/><linearGradient id="linear-gradient-13" x1="8.367" y1="54.347" x2="6.567" y2="56.654" gradientTransform="translate(-38.571 22.908) rotate(-46.06)" xlink:href="#linear-gradient-4"/></defs><g id="_14-Smiling_Face_with_Hearts" data-name="14-Smiling Face with Hearts"><path d="M32,63C4.3,63,.962,39,1,33V31C.962,25,4.3,1,32,1h0C59.7,1,63.038,25,63,31v2C63.038,39,59.7,63,32,63Z" style="fill:url(#linear-gradient)"/><circle cx="52" cy="38" r="10" style="fill:url(#radial-gradient)"/><circle cx="12" cy="38" r="10" style="fill:url(#radial-gradient-2)"/><path d="M43.681,40.054a.985.985,0,0,1,1.15,1.471C43.108,44.132,39.318,48,32,48s-11.108-3.868-12.831-6.475a.985.985,0,0,1,1.15-1.471A39.557,39.557,0,0,0,32,42.132,39.557,39.557,0,0,0,43.681,40.054Z" style="fill:url(#linear-gradient-2)"/><path d="M60.214,3.554a5,5,0,0,0-4.7.721,5.3,5.3,0,0,0-3.726-3.1c-3.009-.848-4.258,1.527-4.582,2.8a6.567,6.567,0,0,0-.084,2.915A21.415,21.415,0,0,0,52.277,17a19.889,19.889,0,0,0,9.263-6.042A6.36,6.36,0,0,0,62.852,8.39,3.758,3.758,0,0,0,60.214,3.554Z" style="fill:url(#linear-gradient-3)"/><path d="M58.492,9.934A1.656,1.656,0,0,0,61,10.525a4.367,4.367,0,0,0,.747-.806,2.849,2.849,0,0,0,.108-3.266,2.873,2.873,0,0,0-1.5-.971c-1.078-.317-3.942-.025-3.928,1.564.007.734,1.048,1.361,1.454,1.906A6.819,6.819,0,0,1,58.492,9.934Z" style="fill:url(#linear-gradient-4)"/><path d="M53,6.212c.355.624.99.941,1.281.654a1.223,1.223,0,0,0,.261-.379,2.088,2.088,0,0,0-.35-1.9,2.692,2.692,0,0,0-.842-.753c-.559-.317-1.9-.5-1.7.432.094.43.672.924.936,1.293C52.735,5.772,52.874,5.99,53,6.212Z" style="fill:url(#linear-gradient-5)"/><path d="M61.843,50.04a4.779,4.779,0,0,0-4.954-.929,4.779,4.779,0,0,0-.929-4.954,3.343,3.343,0,0,0-5.015-.027,5.513,5.513,0,0,0-1.362,2.219,18.354,18.354,0,0,0,.177,9.891,18.354,18.354,0,0,0,9.891.177,5.513,5.513,0,0,0,2.219-1.362A3.343,3.343,0,0,0,61.843,50.04Z" style="fill:url(#linear-gradient-6)"/><path d="M58.026,54.2a1.159,1.159,0,0,0,1.756.413,3.045,3.045,0,0,0,.524-.563,1.823,1.823,0,0,0-.975-2.968c-.755-.222-2.76-.017-2.75,1.095,0,.514.733.953,1.018,1.335A4.781,4.781,0,0,1,58.026,54.2Z" style="fill:url(#linear-gradient-7)"/><path d="M2.157,10.04a4.779,4.779,0,0,1,4.954-.929A4.779,4.779,0,0,1,8.04,4.157a3.343,3.343,0,0,1,5.015-.027,5.513,5.513,0,0,1,1.362,2.219,18.354,18.354,0,0,1-.177,9.891,18.354,18.354,0,0,1-9.891.177A5.513,5.513,0,0,1,2.13,15.055,3.343,3.343,0,0,1,2.157,10.04Z" style="fill:url(#linear-gradient-8)"/><path d="M11.957,8.211a1.133,1.133,0,0,0,1.432-1.027,2.994,2.994,0,0,0-.079-.747,1.948,1.948,0,0,0-1.635-1.525,1.972,1.972,0,0,0-1.175.336c-.648.413-1.785,2.021-.96,2.728.382.326,1.172.072,1.636.108A4.591,4.591,0,0,1,11.957,8.211Z" style="fill:url(#linear-gradient-9)"/><path d="M6.71,11.985c.711.09,1.344-.24,1.286-.658a1.26,1.26,0,0,0-.147-.449A2.065,2.065,0,0,0,6.121,10a2.609,2.609,0,0,0-1.105.235c-.586.266-1.533,1.268-.667,1.673a4.766,4.766,0,0,0,1.593.021A7.286,7.286,0,0,1,6.71,11.985Z" style="fill:url(#linear-gradient-10)"/><path d="M8.9,48.3A5.591,5.591,0,0,0,7,53a5.591,5.591,0,0,0-4.7,1.9,3.751,3.751,0,0,0-.03,5.627,6.177,6.177,0,0,0,2.49,1.529,21.164,21.164,0,0,0,11.568.27,21.164,21.164,0,0,0-.27-11.568,6.177,6.177,0,0,0-1.529-2.49A3.751,3.751,0,0,0,8.9,48.3Z" style="fill:url(#linear-gradient-11)"/><path d="M12.839,52.372a1.192,1.192,0,0,0,1.575-.975,3.124,3.124,0,0,0-.029-.79,2.051,2.051,0,0,0-1.607-1.717,2.07,2.07,0,0,0-1.257.269c-.709.387-2.017,1.993-1.2,2.794.377.369,1.225.159,1.709.229A4.9,4.9,0,0,1,12.839,52.372Z" style="fill:url(#linear-gradient-12)"/><path d="M7.227,56.832c.7.177,1.365-.06,1.36-.469a1.2,1.2,0,0,0-.092-.451,2.087,2.087,0,0,0-1.608-1.064,2.693,2.693,0,0,0-1.126.084c-.616.182-1.681,1.024-.87,1.524a4.919,4.919,0,0,0,1.58.224A7.382,7.382,0,0,1,7.227,56.832Z" style="fill:url(#linear-gradient-13)"/><path d="M43,2.511q1.035.314,2,.685" style="fill:none;stroke:#1d1d1b;stroke-linejoin:round;stroke-width:2px"/><path d="M17,4.053A34.521,34.521,0,0,1,32,1a39.412,39.412,0,0,1,9,.974" style="fill:none;stroke:#1d1d1b;stroke-linejoin:round;stroke-width:2px"/><path d="M5.346,49A34.5,34.5,0,0,1,1,33V31A34.349,34.349,0,0,1,3.436,19" style="fill:none;stroke:#1d1d1b;stroke-linejoin:round;stroke-width:2px"/><path d="M49,58.891C44.727,61.386,39.183,63,32,63a36.077,36.077,0,0,1-13-2.2" style="fill:none;stroke:#1d1d1b;stroke-linejoin:round;stroke-width:2px"/><path d="M59.7,17A34.687,34.687,0,0,1,63,30.89V33a34.349,34.349,0,0,1-2.436,12" style="fill:none;stroke:#1d1d1b;stroke-linejoin:round;stroke-width:2px"/><path d="M38,29c0-4,2-8,5-8s5,4,5,8" style="fill:none;stroke:#1d1d1b;stroke-linejoin:round;stroke-width:2px"/><path d="M16,29c0-4,2-8,5-8s5,4,5,8" style="fill:none;stroke:#1d1d1b;stroke-linejoin:round;stroke-width:2px"/><path d="M38,29c0-4,2-8,5-8s5,4,5,8" style="fill:none;stroke:#1d1d1b;stroke-linejoin:round;stroke-width:2px"/><path d="M16,29c0-4,2-8,5-8s5,4,5,8" style="fill:none;stroke:#1d1d1b;stroke-linejoin:round;stroke-width:2px"/><path d="M60.214,3.554a5,5,0,0,0-4.7.721,5.3,5.3,0,0,0-3.726-3.1c-3.009-.848-4.258,1.527-4.582,2.8a6.567,6.567,0,0,0-.084,2.915A21.415,21.415,0,0,0,52.277,17a19.889,19.889,0,0,0,9.263-6.042A6.36,6.36,0,0,0,62.852,8.39,3.758,3.758,0,0,0,60.214,3.554Z" style="fill:none;stroke:#1d1d1b;stroke-linejoin:round;stroke-width:2px"/><path d="M8.9,48.3A5.591,5.591,0,0,0,7,53a5.591,5.591,0,0,0-4.7,1.9,3.751,3.751,0,0,0-.03,5.627,6.177,6.177,0,0,0,2.49,1.529,21.164,21.164,0,0,0,11.568.27,21.164,21.164,0,0,0-.27-11.568,6.177,6.177,0,0,0-1.529-2.49A3.751,3.751,0,0,0,8.9,48.3Z" style="fill:none;stroke:#1d1d1b;stroke-linejoin:round;stroke-width:2px"/><path d="M61.843,50.04a4.779,4.779,0,0,0-4.954-.929,4.779,4.779,0,0,0-.929-4.954,3.343,3.343,0,0,0-5.015-.027,5.513,5.513,0,0,0-1.362,2.219,18.354,18.354,0,0,0,.177,9.891,18.354,18.354,0,0,0,9.891.177,5.513,5.513,0,0,0,2.219-1.362A3.343,3.343,0,0,0,61.843,50.04Z" style="fill:none;stroke:#1d1d1b;stroke-linejoin:round;stroke-width:2px"/><path d="M2.157,10.04a4.779,4.779,0,0,1,4.954-.929A4.779,4.779,0,0,1,8.04,4.157a3.343,3.343,0,0,1,5.015-.027,5.513,5.513,0,0,1,1.362,2.219,18.354,18.354,0,0,1-.177,9.891,18.354,18.354,0,0,1-9.891.177A5.513,5.513,0,0,1,2.13,15.055,3.343,3.343,0,0,1,2.157,10.04Z" style="fill:none;stroke:#1d1d1b;stroke-linejoin:round;stroke-width:2px"/><path d="M10,26A13.845,13.845,0,0,1,22,16" style="fill:none;stroke:#1d1d1b;stroke-linejoin:round;stroke-width:2px"/><path d="M54,26A13.845,13.845,0,0,0,42,16" style="fill:none;stroke:#1d1d1b;stroke-linejoin:round;stroke-width:2px"/><path d="M43.681,40.054a.985.985,0,0,1,1.15,1.471C43.108,44.132,39.318,48,32,48s-11.108-3.868-12.831-6.475a.985.985,0,0,1,1.15-1.471A39.557,39.557,0,0,0,32,42.132,39.557,39.557,0,0,0,43.681,40.054Z" style="fill:none;stroke:#1d1d1b;stroke-linejoin:round;stroke-width:2px"/></g></svg>