<svg xmlns="http://www.w3.org/2000/svg" viewBox="0 0 64 64"><g id="_14-Tackle_Bag" data-name="14-Tackle Bag"><polygon points="42 11 42 13 22 13 22 11 22 10 42 10 42 11" style="fill:#3a73a0"/><polygon points="42 5 42 10 22 10 22 5 22 4 42 4 42 5" style="fill:#6da3c4"/><polygon points="7 25 7 29 5 29 5 11 7 11 7 23 7.57 23 7 25" style="fill:#838182"/><polygon points="59 11 59 29 57 29 57 25 56.43 23 57 23 57 11 59 11" style="fill:#838182"/><path d="M22,10v1H5V29H4a2.653,2.653,0,0,0-.94.16L3,29V9A4,4,0,0,1,7,5H22Z" style="fill:#c9c6c8"/><path d="M61,9V29l-.06.16A2.653,2.653,0,0,0,60,29H59V11H42V5H57A4,4,0,0,1,61,9Z" style="fill:#c9c6c8"/><path d="M48,45v4a2,2,0,0,1-4,0V45Z" style="fill:#dddcd7"/><path d="M53,29v2a2,2,0,0,1-4,0V28a1,1,0,0,1,1-1h2a1,1,0,0,1,1,1Z" style="fill:#dddcd7"/><path d="M51,31V28a1,1,0,0,1,1-1H50a1,1,0,0,0-1,1v3a2.006,2.006,0,0,0,2,2,1.975,1.975,0,0,0,1-.279A2,2,0,0,1,51,31Z" style="fill:#b8b5b7"/><polygon points="52 42 52 45 48 45 44 45 12 45 12 42 52 42" style="fill:#55634a"/><path d="M7,25H57v4H53V28a1,1,0,0,0-1-1H50a1,1,0,0,0-1,1v1H7Z" style="fill:#55634a"/><polygon points="7 38 7 42 2 42 2 38 3 38 7 38" style="fill:#55634a"/><polygon points="62 38 62 42 57 42 57 38 61 38 62 38" style="fill:#55634a"/><polygon points="7 32 7 38 3 38 2 38 1 38 1 32 7 32" style="fill:#3a73a0"/><polygon points="63 32 63 38 62 38 61 38 57 38 57 32 63 32" style="fill:#3a73a0"/><path d="M62,42v8c0,2.21-2.15,4-4.8,4h-.33A3.657,3.657,0,0,0,57,53V42Z" style="fill:#3a73a0"/><path d="M7.13,54H6.8C4.15,54,2,52.21,2,50V42H7V53A3.657,3.657,0,0,0,7.13,54Z" style="fill:#3a73a0"/><path d="M7,29v3H1a2.979,2.979,0,0,1,2.06-2.84A2.653,2.653,0,0,1,4,29H7Z" style="fill:#6da3c4"/><path d="M60,29a2.653,2.653,0,0,1,.94.16A2.979,2.979,0,0,1,63,32H57V29h3Z" style="fill:#6da3c4"/><path d="M56.43,23,57,25H7l.57-2,.67-2.35A3.944,3.944,0,0,1,12.12,18H51.88a3.944,3.944,0,0,1,3.88,2.65Z" style="fill:#6da3c4"/><path d="M55.76,20.65c-.015-.052-.041-.1-.059-.15A3.964,3.964,0,0,1,51.88,23H12.12A3.964,3.964,0,0,1,8.3,20.5c-.018.051-.044.1-.059.15L7.57,23,7,25H57l-.57-2Z" style="fill:#6293b1"/><path d="M52,39v3H12V39a4,4,0,0,1,4-4H48A4,4,0,0,1,52,39Z" style="fill:#efc1aa"/><path d="M48,35H16a4,4,0,0,0-4,4v3a4,4,0,0,1,4-4H48a4,4,0,0,1,4,4V39A4,4,0,0,0,48,35Z" style="fill:#f6ddc9"/><path d="M57,32V53a3.657,3.657,0,0,1-.13,1A3.992,3.992,0,0,1,53,57H52l-.12-.03A3.848,3.848,0,0,0,52,56V39a4,4,0,0,0-4-4H16a4,4,0,0,0-4,4V56a3.848,3.848,0,0,0,.12.97L12,57H11a3.992,3.992,0,0,1-3.87-3A3.657,3.657,0,0,1,7,53V29H49v2a2,2,0,0,0,4,0V29h4Z" style="fill:#6293b1"/><path d="M52,45V56a3.848,3.848,0,0,1-.12.97A4,4,0,0,1,48,60H16a4,4,0,0,1-3.88-3.03A3.848,3.848,0,0,1,12,56V45H44v4a2,2,0,0,0,4,0V45Z" style="fill:#6da3c4"/><path d="M14,42h0a2,2,0,0,0,2,2H48a2,2,0,0,0,2-2h2v3H12V42Z" style="fill:#455040"/><path d="M10,39V51a2,2,0,0,1-2,2H7a3.657,3.657,0,0,0,.13,1A3.992,3.992,0,0,0,11,57h1l.12-.03A3.848,3.848,0,0,1,12,56V39a4,4,0,0,1,4-4H14A4,4,0,0,0,10,39Z" style="fill:#4b759e"/><path d="M54,51V39a4,4,0,0,0-4-4H48a4,4,0,0,1,4,4V56a3.848,3.848,0,0,1-.12.97L52,57h1a3.992,3.992,0,0,0,3.87-3A3.657,3.657,0,0,0,57,53H56A2,2,0,0,1,54,51Z" style="fill:#4b759e"/><path d="M48,46V45H44v3.927a2.057,2.057,0,0,0,1.222,1.912A1.945,1.945,0,0,0,47,50.721,2,2,0,0,1,46,49V47a1,1,0,0,1,1-1Z" style="fill:#b8b5b7"/><path d="M49,58H21.748A6.666,6.666,0,0,1,15,51.708c-.006-.192,0-.382.007-.571A5.625,5.625,0,0,1,20.715,46H42v3.915a2.06,2.06,0,0,0,1.513,2.026,1.991,1.991,0,0,0,2.222-.968A2,2,0,0,1,44,49V45H12V56a3.848,3.848,0,0,0,.12.97A4,4,0,0,0,16,60H48a4,4,0,0,0,3.88-3.03A3.848,3.848,0,0,0,52,56V55A3,3,0,0,1,49,58Z" style="fill:#6293b1"/><rect x="48" y="45" width="4" height="1" style="fill:#6293b1"/><path d="M50,56.5H48v-1h1.5V54h1v2A.5.5,0,0,1,50,56.5Z" style="fill:#99c3de"/><rect x="49.5" y="52" width="1" height="1" style="fill:#99c3de"/><rect x="18" y="35" width="20" height="2" rx="1" style="fill:#ffedd8"/><rect x="40.105" y="35" width="5.895" height="2" rx="1" style="fill:#ffedd8"/><rect x="18" y="19" width="20" height="2" rx="1" style="fill:#99c3de"/><rect x="40.105" y="19" width="5.895" height="2" rx="1" style="fill:#99c3de"/><path d="M59,41a1,1,0,0,1,1-1h2V38H57v4h2Z" style="fill:#455040"/><path d="M59,42H57V53a3.657,3.657,0,0,1-.13,1H57a2,2,0,0,0,2-2V45a2,2,0,0,1,2-2h1V42Z" style="fill:#475163"/><path d="M5,41v1H7V38H2v2H4A1,1,0,0,1,5,41Z" style="fill:#455040"/><path d="M7,42H2v1H3a2,2,0,0,1,2,2v7a2,2,0,0,0,2,2h.13A3.657,3.657,0,0,1,7,53Z" style="fill:#475163"/><rect x="7" y="29" width="42" height="2" style="fill:#4b759e"/><rect x="53" y="29" width="4" height="2" style="fill:#4b759e"/><path d="M49,28a1,1,0,0,1,1-1H49a1,1,0,0,0-1,1v1h1Z" style="fill:#455040"/><path d="M57,32v6h2V35a2,2,0,0,1,2-2h2V32Z" style="fill:#475163"/><path d="M62.826,31H60a1,1,0,0,1,0-2H57v3h6A3.006,3.006,0,0,0,62.826,31Z" style="fill:#6293b1"/><path d="M1,33H3a2,2,0,0,1,2,2v3H7V32H1Z" style="fill:#475163"/><path d="M5,29H4a1,1,0,0,1,0,2H1.174A3.006,3.006,0,0,0,1,32H7V29Z" style="fill:#6293b1"/><path d="M55,25a2,2,0,0,1-2,2H52a1,1,0,0,1,1,1v1h4V25Z" style="fill:#455040"/><path d="M9,25H7v4H49V28a1,1,0,0,1,1-1H11A2,2,0,0,1,9,25Z" style="fill:#455040"/><polyline points="42 11 42 5 44 5 44 9 60 9 60 27 61 27" style="fill:none"/><path d="M20,7a2,2,0,0,1-2,2H5a1,1,0,0,0-1,1V27H3v2l.06.16A2.653,2.653,0,0,1,4,29H5V11H22V5H18A2,2,0,0,1,20,7Z" style="fill:#b8b5b7"/><path d="M60,10a1,1,0,0,0-1-1H46a2,2,0,0,1,0-4H42v6H59V29h1a2.653,2.653,0,0,1,.94.16L61,29V27H60Z" style="fill:#b8b5b7"/><path d="M22,13V10H42v3H40a2,2,0,0,0-2-2H26a2,2,0,0,0-2,2H22Z" style="fill:#316187"/><path d="M24,4V7a1,1,0,0,0,1,1H39a1,1,0,0,0,1-1V4h2v6H22V4Z" style="fill:#6293b1"/><rect x="25" y="5" width="8" height="2" rx="1" style="fill:#99c3de"/><rect x="35" y="5" width="4" height="2" rx="1" style="fill:#99c3de"/><rect x="12" y="28" width="2" height="2"/><path d="M62,28.556V9a5.006,5.006,0,0,0-5-5H45V6H57a3,3,0,0,1,3,3V28H58V25h-.026a.94.94,0,0,0-.013-.275l-.285-1A.99.99,0,0,0,58,23V14H56v4.96A5.169,5.169,0,0,0,51.877,17H12.123A5.169,5.169,0,0,0,8,18.96V14H6v9a.99.99,0,0,0,.324.728l-.285,1A.94.94,0,0,0,6.026,25H6v3H4V9A3,3,0,0,1,7,6H21v4H5v2H21v1a1,1,0,0,0,1,1H42a1,1,0,0,0,1-1V12H59V10H43V4a1,1,0,0,0-1-1H22a1,1,0,0,0-1,1H7A5.006,5.006,0,0,0,2,9V28.556A3.987,3.987,0,0,0,0,32v6a1,1,0,0,0,1,1V50c0,2.645,2.4,4.811,5.415,4.983A5,5,0,0,0,11,58h.424A5,5,0,0,0,16,61H48a5,5,0,0,0,4.576-3H53a5,5,0,0,0,4.585-3.017C60.6,54.811,63,52.645,63,50V39a1,1,0,0,0,1-1V32A3.987,3.987,0,0,0,62,28.556ZM23,12V11H41v1Zm0-7H41V9H23ZM62,37H58V33h4ZM52,26h4v2H54A2,2,0,0,0,52,26Zm9.722,5H58V30h2A1.993,1.993,0,0,1,61.722,31ZM9.2,20.926A2.934,2.934,0,0,1,12.123,19H51.877A2.934,2.934,0,0,1,54.8,20.926L55.674,24H8.326ZM2,33H6v4H2Zm4-3v1H2.278A1.993,1.993,0,0,1,4,30Zm0,9v2H3V39ZM3,50V43H6v9.93A3.273,3.273,0,0,1,3,50Zm42-4h2v3a1,1,0,0,1-2,0Zm3-2H13V43H51v1Zm3-3H13V39a3,3,0,0,1,3-3H48a3,3,0,0,1,3,3ZM48,59H16a3,3,0,0,1-3-3V46H43v3a3,3,0,0,0,6,0V46h2V56A3,3,0,0,1,48,59Zm5-3V39a5.006,5.006,0,0,0-5-5H16a5.006,5.006,0,0,0-5,5V56a3,3,0,0,1-3-3V30h2V28H8V26H50a2,2,0,0,0-2,2H16v2H48v1a3,3,0,0,0,6,0V30h2V53A3,3,0,0,1,53,56ZM52,28v3a1,1,0,0,1-2,0V28Zm6,24.93V43h3v7A3.273,3.273,0,0,1,58,52.93ZM61,41H58V39h3Z"/></g></svg>