<svg xmlns="http://www.w3.org/2000/svg" viewBox="0 0 64 64"><title>14-yoga</title><g id="_14-yoga" data-name="14-yoga"><polygon points="50 39 48 43 45 43 45 39 47 39 50 39" style="fill:#d2a0f5"/><polygon points="24 22 22 26 19 26 19 22 21 22 24 22" style="fill:#d2a0f5"/><polygon points="43 39 45 39 45 43 42 43 40 39 43 39" style="fill:#b674f2"/><polygon points="19 22 19 26 16 26 14 22 17 22 19 22" style="fill:#b674f2"/><polygon points="14 22 16 26 6 36 6 38 2 38 2 34 14 22" style="fill:#dce1eb"/><polygon points="36 34 36 38 32 38 32 36 22 26 24 22 36 34" style="fill:#dce1eb"/><polygon points="62 51 62 55 58 55 58 53 48 43 50 39 62 51" style="fill:#dce1eb"/><polygon points="58 55 62 55 63 55 63 63 57 63 57 62 57 56 57 55 58 55" style="fill:#9196aa"/><polygon points="57.5 55 59.5 55 60 55 60 63 57 63 57 62 57 56 57 55 57.5 55" style="fill:#7e8596"/><polygon points="33 56 33 62 33 63 27 63 27 55 28 55 32 55 33 55 33 56" style="fill:#9196aa"/><polygon points="7 39 7 45 7 46 1 46 1 38 2 38 6 38 7 38 7 39" style="fill:#9196aa"/><polygon points="32 38 36 38 37 38 37 42 33 46 31 46 31 45 31 39 31 38 32 38" style="fill:#9196aa"/><rect x="7" y="39" width="24" height="6" style="fill:#b674f2"/><rect x="33" y="56" width="24" height="6" style="fill:#b674f2"/><rect x="33" y="59" width="24" height="3" style="fill:#8f4cd6"/><rect x="7" y="42" width="24" height="3" style="fill:#8f4cd6"/><path d="M47,16V39H43V16a11,11,0,0,0-22,0v6H17V16a15,15,0,0,1,30,0Z" style="fill:#b674f2"/><path d="M43,14a11,11,0,0,0-22,0v2a11,11,0,1,1,22,0Z" style="fill:#8f4cd6"/><polygon points="17 20 17 22 19 22 21 22 21 20 19 20 17 20" style="fill:#8f4cd6"/><polygon points="43 37 43 39 45 39 47 39 47 37 45 37 43 37" style="fill:#8f4cd6"/><polygon points="30.5 55 32.5 55 33 55 33 63 30 63 30 62 30 56 30 55 30.5 55" style="fill:#7e8596"/><polygon points="40 39 42 43 32 53 32 55 28 55 28 51 33 46 37 42 40 39" style="fill:#dce1eb"/><polygon points="31.5 38 33.5 38 34 38 34 46 31 46 31 45 31 39 31 38 31.5 38" style="fill:#7e8596"/><polygon points="4.5 38 6.5 38 7 38 7 46 4 46 4 45 4 39 4 38 4.5 38" style="fill:#7e8596"/><path d="M63,54V51a1,1,0,0,0-.293-.707l-12-12A1,1,0,0,0,50,38H48V16A16.019,16.019,0,0,0,32,0,16.021,16.021,0,0,0,16,16v5H14a1,1,0,0,0-.707.293l-12,12A1,1,0,0,0,1,34v3a1,1,0,0,0-1,1v8a1,1,0,0,0,1,1H7a1,1,0,0,0,1-1H30a.993.993,0,0,0,.655.93l-3.362,3.363A1,1,0,0,0,27,51v3a1,1,0,0,0-1,1v8a1,1,0,0,0,1,1h6a1,1,0,0,0,1-1H56a1,1,0,0,0,1,1h6a1,1,0,0,0,1-1V55A1,1,0,0,0,63,54Zm-2,0H59V53a1,1,0,0,0-.293-.707l-9.49-9.49,1.057-2.115L61,51.414Zm-5,1H34a1,1,0,0,0-1-1v-.586L42.414,44h5.172L57,53.414V54A1,1,0,0,0,56,55ZM7,37v-.586L16.414,27h5.172L31,36.414V37a1,1,0,0,0-1,1H8A1,1,0,0,0,7,37ZM17,23h1v2H16.618l-1-2Zm4,0h1.382l-1,2H20V23ZM32.707,35.293l-9.49-9.49,1.057-2.115L35,34.414V37H33V36A1,1,0,0,0,32.707,35.293ZM37,37V34a1,1,0,0,0-.293-.707l-12-12A1,1,0,0,0,24,21H22V16a10,10,0,1,1,20,0V38H40a1,1,0,0,0-.707.293L38,39.586V38A1,1,0,0,0,37,37Zm6,3h1v2H42.618l-1-2Zm5.382,0-1,2H46V40h2.382ZM18,16A14.022,14.022,0,0,1,32,2,14.015,14.015,0,0,1,46,16V38H44V16a12,12,0,0,0-24,0v5H18ZM3,34.414,13.726,23.688,14.783,25.8l-9.49,9.49A1,1,0,0,0,5,36v1H3ZM6,45H2V39H6Zm2-1V40H30v4Zm24,1V39h4v2.586L32.586,45Zm-3,6.414L39.726,40.688,40.783,42.8l-9.49,9.49A1,1,0,0,0,31,53v1H29ZM32,62H28V56h4Zm2-1V57H56v4Zm28,1H58V56h4Z"/></g></svg>