<?xml version="1.0" encoding="utf-8"?>
<!-- Generator: Adobe Illustrator 16.0.0, SVG Export Plug-In . SVG Version: 6.00 Build 0)  -->
<!DOCTYPE svg PUBLIC "-//W3C//DTD SVG 1.1//EN" "http://www.w3.org/Graphics/SVG/1.1/DTD/svg11.dtd">
<svg version="1.1" id="Layer_1" xmlns="http://www.w3.org/2000/svg" xmlns:xlink="http://www.w3.org/1999/xlink" x="0px" y="0px"
	 width="512px" height="512px" viewBox="0 0 512 512" enable-background="new 0 0 512 512" xml:space="preserve">
<g id="_x31_4._saloon_x2C__building_x2C__wild_x2C__west_x2C__crime_x2C__bandit">
	<g>
		<g>
			<path d="M256.265,184.057c-2.209,0-4.036-1.788-4.036-3.998s1.749-3.997,3.95-3.997h0.086c2.202,0,3.998,1.788,3.998,3.997
				S258.467,184.057,256.265,184.057z"/>
		</g>
	</g>
	<g>
		<g>
			<path d="M507.822,128.096H4.178c-2.21,0-3.998-1.788-3.998-3.997s1.788-3.997,3.998-3.997h503.645
				c2.209,0,3.997,1.788,3.997,3.997S510.031,128.096,507.822,128.096z"/>
		</g>
	</g>
	<g>
		<g>
			<path d="M108.104,431.878H4.178c-2.21,0-3.998-1.788-3.998-3.998c0-2.209,1.788-3.996,3.998-3.996h103.926
				c2.209,0,3.998,1.787,3.998,3.996C112.102,430.09,110.313,431.878,108.104,431.878z"/>
		</g>
	</g>
	<g>
		<g>
			<path d="M507.822,431.878H403.896c-2.209,0-3.997-1.788-3.997-3.998c0-2.209,1.788-3.996,3.997-3.996h103.927
				c2.209,0,3.997,1.787,3.997,3.996C511.819,430.09,510.031,431.878,507.822,431.878z"/>
		</g>
	</g>
	<g>
		<g>
			<path d="M44.149,423.884c-2.21,0-3.997-1.788-3.997-3.998V132.093c0-2.209,1.787-3.997,3.997-3.997
				c2.209,0,3.997,1.788,3.997,3.997v287.793C48.146,422.096,46.358,423.884,44.149,423.884z"/>
		</g>
	</g>
	<g>
		<g>
			<path d="M467.851,423.884c-2.21,0-3.998-1.788-3.998-3.998V132.093c0-2.209,1.788-3.997,3.998-3.997
				c2.209,0,3.997,1.788,3.997,3.997v287.793C471.848,422.096,470.06,423.884,467.851,423.884z"/>
		</g>
	</g>
	<g>
		<g>
			<path d="M4.178,447.866c-2.21,0-3.998-1.787-3.998-3.997V427.88c0-2.209,1.788-3.996,3.998-3.996
				c2.209,0,3.997,1.787,3.997,3.996v15.989C8.175,446.079,6.387,447.866,4.178,447.866z"/>
		</g>
	</g>
	<g>
		<g>
			<path d="M507.822,447.866c-2.21,0-3.997-1.787-3.997-3.997V427.88c0-2.209,1.787-3.996,3.997-3.996
				c2.209,0,3.997,1.787,3.997,3.996v15.989C511.819,446.079,510.031,447.866,507.822,447.866z"/>
		</g>
	</g>
	<g>
		<g>
			<path d="M108.104,447.866H4.178c-2.21,0-3.998-1.787-3.998-3.997c0-2.209,1.788-3.997,3.998-3.997h103.926
				c2.209,0,3.998,1.788,3.998,3.997C112.102,446.079,110.313,447.866,108.104,447.866z"/>
		</g>
	</g>
	<g>
		<g>
			<path d="M507.822,447.866H403.896c-2.209,0-3.997-1.787-3.997-3.997c0-2.209,1.788-3.997,3.997-3.997h103.927
				c2.209,0,3.997,1.788,3.997,3.997C511.819,446.079,510.031,447.866,507.822,447.866z"/>
		</g>
	</g>
	<g>
		<g>
			<path d="M339.94,431.878H172.059c-2.209,0-3.997-1.788-3.997-3.998c0-2.209,1.788-3.996,3.997-3.996H339.94
				c2.209,0,3.997,1.787,3.997,3.996C343.938,430.09,342.149,431.878,339.94,431.878z"/>
		</g>
	</g>
	<g>
		<g>
			<path d="M355.929,447.866H156.07c-2.209,0-3.997-1.787-3.997-3.997c0-2.209,1.788-3.997,3.997-3.997h199.858
				c2.21,0,3.998,1.788,3.998,3.997C359.927,446.079,358.139,447.866,355.929,447.866z"/>
		</g>
	</g>
	<g>
		<g>
			<path d="M172.059,415.889c-2.209,0-3.997-1.788-3.997-3.997V275.987c0-2.209,1.788-3.997,3.997-3.997
				c2.21,0,3.998,1.788,3.998,3.997v135.904C176.056,414.101,174.269,415.889,172.059,415.889z"/>
		</g>
	</g>
	<g>
		<g>
			<path d="M339.94,279.985H172.059c-2.209,0-3.997-1.788-3.997-3.998c0-2.209,1.788-3.997,3.997-3.997H339.94
				c2.209,0,3.997,1.788,3.997,3.997C343.938,278.197,342.149,279.985,339.94,279.985z"/>
		</g>
	</g>
	<g>
		<g>
			<path d="M339.94,415.889c-2.209,0-3.997-1.788-3.997-3.997V278.985c0-2.209,1.788-3.997,3.997-3.997s3.997,1.788,3.997,3.997
				v132.906C343.938,414.101,342.149,415.889,339.94,415.889z"/>
		</g>
	</g>
	<g>
		<g>
			<path d="M124.093,447.866c-2.209,0-3.997-1.787-3.997-3.997V252.008c0-2.209,1.788-3.997,3.997-3.997s3.997,1.788,3.997,3.997
				v191.861C128.09,446.079,126.302,447.866,124.093,447.866z"/>
		</g>
	</g>
	<g>
		<g>
			<path d="M140.082,447.866c-2.209,0-3.998-1.787-3.998-3.997V252.008c0-2.209,1.788-3.997,3.998-3.997s3.997,1.788,3.997,3.997
				v191.861C144.079,446.079,142.291,447.866,140.082,447.866z"/>
		</g>
	</g>
	<g>
		<g>
			<path d="M371.918,447.866c-2.21,0-3.997-1.787-3.997-3.997V252.008c0-2.209,1.787-3.997,3.997-3.997s3.997,1.788,3.997,3.997
				v191.861C375.915,446.079,374.128,447.866,371.918,447.866z"/>
		</g>
	</g>
	<g>
		<g>
			<path d="M387.907,447.866c-2.21,0-3.998-1.787-3.998-3.997V252.008c0-2.209,1.788-3.997,3.998-3.997
				c2.209,0,3.996,1.788,3.996,3.997v191.861C391.903,446.079,390.116,447.866,387.907,447.866z"/>
		</g>
	</g>
	<g>
		<g>
			<path d="M403.896,248.011H108.104c-2.209,0-3.997-1.788-3.997-3.997s1.788-3.998,3.997-3.998h295.792
				c2.209,0,3.997,1.788,3.997,3.998S406.104,248.011,403.896,248.011z"/>
		</g>
	</g>
	<g>
		<g>
			<path d="M108.104,248.011c-2.209,0-3.997-1.788-3.997-3.997v-15.989c0-2.209,1.788-3.997,3.997-3.997s3.998,1.788,3.998,3.997
				v15.989C112.102,246.224,110.313,248.011,108.104,248.011z"/>
		</g>
	</g>
	<g>
		<g>
			<path d="M403.896,232.022H108.104c-2.209,0-3.997-1.788-3.997-3.997c0-2.209,1.788-3.997,3.997-3.997h295.792
				c2.209,0,3.997,1.788,3.997,3.997C407.893,230.234,406.104,232.022,403.896,232.022z"/>
		</g>
	</g>
	<g>
		<g>
			<path d="M403.896,248.011c-2.209,0-3.997-1.788-3.997-3.997v-15.989c0-2.209,1.788-3.997,3.997-3.997s3.997,1.788,3.997,3.997
				v15.989C407.893,246.224,406.104,248.011,403.896,248.011z"/>
		</g>
	</g>
	<g>
		<g>
			<path d="M363.924,216.034H148.076c-2.21,0-3.998-1.788-3.998-3.997s1.788-3.997,3.998-3.997h215.848
				c2.209,0,3.997,1.788,3.997,3.997S366.133,216.034,363.924,216.034z"/>
		</g>
	</g>
	<g>
		<g>
			<path d="M148.076,216.034c-2.21,0-3.998-1.788-3.998-3.997v-31.978c0-2.209,1.788-3.997,3.998-3.997
				c2.209,0,3.997,1.788,3.997,3.997v31.978C152.073,214.246,150.285,216.034,148.076,216.034z"/>
		</g>
	</g>
	<g>
		<g>
			<path d="M220.025,184.057h-71.949c-2.21,0-3.998-1.788-3.998-3.998s1.788-3.997,3.998-3.997h71.949
				c2.209,0,3.997,1.788,3.997,3.997S222.234,184.057,220.025,184.057z"/>
		</g>
	</g>
	<g>
		<g>
			<path d="M220.025,184.057c-2.21,0-3.998-1.788-3.998-3.998c0-22.039,17.933-39.972,39.972-39.972
				c2.209,0,3.997,1.788,3.997,3.997s-1.788,3.998-3.997,3.998c-17.636,0-31.978,14.345-31.978,31.977
				C224.022,182.269,222.234,184.057,220.025,184.057z"/>
		</g>
	</g>
	<g>
		<g>
			<path d="M363.924,216.034c-2.21,0-3.997-1.788-3.997-3.997v-31.978c0-2.209,1.787-3.997,3.997-3.997
				c2.209,0,3.997,1.788,3.997,3.997v31.978C367.921,214.246,366.133,216.034,363.924,216.034z"/>
		</g>
	</g>
	<g>
		<g>
			<path d="M363.924,184.057h-71.949c-2.21,0-3.997-1.788-3.997-3.998s1.787-3.997,3.997-3.997h71.949
				c2.209,0,3.997,1.788,3.997,3.997S366.133,184.057,363.924,184.057z"/>
		</g>
	</g>
	<g>
		<g>
			<path d="M291.975,184.057c-2.21,0-3.997-1.788-3.997-3.998c0-17.632-14.342-31.977-31.978-31.977
				c-2.21,0-3.998-1.788-3.998-3.998s1.788-3.997,3.998-3.997c22.039,0,39.972,17.933,39.972,39.972
				C295.972,182.269,294.184,184.057,291.975,184.057z"/>
		</g>
	</g>
	<g>
		<g>
			<path d="M339.94,200.045H172.059c-2.209,0-3.997-1.788-3.997-3.997c0-2.209,1.788-3.997,3.997-3.997H339.94
				c2.209,0,3.997,1.788,3.997,3.997C343.938,198.257,342.149,200.045,339.94,200.045z"/>
		</g>
	</g>
	<g>
		<g>
			<path d="M236.014,184.057c-2.209,0-3.997-1.788-3.997-3.998c0-13.225,10.758-23.983,23.983-23.983
				c2.209,0,3.997,1.788,3.997,3.997s-1.788,3.997-3.997,3.997c-8.814,0-15.989,7.171-15.989,15.989
				C240.011,182.269,238.223,184.057,236.014,184.057z"/>
		</g>
	</g>
	<g>
		<g>
			<path d="M276.009,184.064c-2.209,0-3.997-1.788-3.997-3.998c0-8.822-7.175-15.997-15.988-15.997c-2.21,0-3.998-1.788-3.998-3.997
				s1.788-3.997,3.998-3.997c13.225,0,23.983,10.762,23.983,23.991C280.007,182.276,278.219,184.064,276.009,184.064z"/>
		</g>
	</g>
	<g>
		<g>
			<path d="M4.178,128.096c-0.68,0-1.359-0.168-1.983-0.527c-1.92-1.093-2.584-3.537-1.491-5.453l31.978-55.96
				c1.101-1.933,3.56-2.576,5.457-1.487c1.921,1.093,2.584,3.537,1.491,5.453l-31.978,55.96
				C6.91,127.374,5.56,128.096,4.178,128.096z"/>
		</g>
	</g>
	<g>
		<g>
			<path d="M507.822,128.096c-1.382,0-2.732-0.722-3.475-2.014l-31.978-55.96c-1.093-1.917-0.429-4.36,1.491-5.453
				c1.89-1.089,4.349-0.445,5.458,1.487l31.977,55.96c1.094,1.917,0.43,4.36-1.49,5.453
				C509.181,127.928,508.501,128.096,507.822,128.096z"/>
		</g>
	</g>
	<g>
		<g>
			<path d="M475.845,72.135H36.155c-2.209,0-3.997-1.788-3.997-3.997s1.788-3.998,3.997-3.998h439.69
				c2.209,0,3.997,1.788,3.997,3.998S478.054,72.135,475.845,72.135z"/>
		</g>
	</g>
	<g>
		<g>
			<path d="M60.138,192.051H44.149c-2.21,0-3.997-1.788-3.997-3.997c0-2.209,1.787-3.997,3.997-3.997h15.988
				c2.209,0,3.997,1.788,3.997,3.997C64.135,190.263,62.347,192.051,60.138,192.051z"/>
		</g>
	</g>
	<g>
		<g>
			<path d="M60.138,240.017H44.149c-2.21,0-3.997-1.788-3.997-3.997c0-2.209,1.787-3.997,3.997-3.997h15.988
				c2.209,0,3.997,1.788,3.997,3.997C64.135,238.229,62.347,240.017,60.138,240.017z"/>
		</g>
	</g>
	<g>
		<g>
			<path d="M60.138,287.979H44.149c-2.21,0-3.997-1.788-3.997-3.998c0-2.209,1.787-3.996,3.997-3.996h15.988
				c2.209,0,3.997,1.787,3.997,3.996C64.135,286.191,62.347,287.979,60.138,287.979z"/>
		</g>
	</g>
	<g>
		<g>
			<path d="M60.138,335.945H44.149c-2.21,0-3.997-1.788-3.997-3.997s1.787-3.997,3.997-3.997h15.988
				c2.209,0,3.997,1.788,3.997,3.997S62.347,335.945,60.138,335.945z"/>
		</g>
	</g>
	<g>
		<g>
			<path d="M60.138,383.911H44.149c-2.21,0-3.997-1.787-3.997-3.997c0-2.209,1.787-3.997,3.997-3.997h15.988
				c2.209,0,3.997,1.788,3.997,3.997C64.135,382.124,62.347,383.911,60.138,383.911z"/>
		</g>
	</g>
	<g>
		<g>
			<path d="M467.851,192.051h-15.989c-2.209,0-3.997-1.788-3.997-3.997c0-2.209,1.788-3.997,3.997-3.997h15.989
				c2.209,0,3.997,1.788,3.997,3.997C471.848,190.263,470.06,192.051,467.851,192.051z"/>
		</g>
	</g>
	<g>
		<g>
			<path d="M467.851,240.017h-15.989c-2.209,0-3.997-1.788-3.997-3.997c0-2.209,1.788-3.997,3.997-3.997h15.989
				c2.209,0,3.997,1.788,3.997,3.997C471.848,238.229,470.06,240.017,467.851,240.017z"/>
		</g>
	</g>
	<g>
		<g>
			<path d="M467.851,287.979h-15.989c-2.209,0-3.997-1.788-3.997-3.998c0-2.209,1.788-3.996,3.997-3.996h15.989
				c2.209,0,3.997,1.787,3.997,3.996C471.848,286.191,470.06,287.979,467.851,287.979z"/>
		</g>
	</g>
	<g>
		<g>
			<path d="M467.851,335.945h-15.989c-2.209,0-3.997-1.788-3.997-3.997s1.788-3.997,3.997-3.997h15.989
				c2.209,0,3.997,1.788,3.997,3.997S470.06,335.945,467.851,335.945z"/>
		</g>
	</g>
	<g>
		<g>
			<path d="M467.851,383.911h-15.989c-2.209,0-3.997-1.787-3.997-3.997c0-2.209,1.788-3.997,3.997-3.997h15.989
				c2.209,0,3.997,1.788,3.997,3.997C471.848,382.124,470.06,383.911,467.851,383.911z"/>
		</g>
	</g>
	<g>
		<g>
			<path d="M104.911,128.096c-0.43,0-0.867-0.07-1.296-0.215c-2.093-0.718-3.201-2.99-2.483-5.078l19.182-55.961
				c0.71-2.088,2.982-3.196,5.074-2.486c2.092,0.719,3.201,2.99,2.482,5.079l-19.182,55.96
				C108.127,127.054,106.574,128.096,104.911,128.096z"/>
		</g>
	</g>
	<g>
		<g>
			<path d="M204.044,128.096c-0.187,0-0.382-0.012-0.569-0.039c-2.187-0.312-3.709-2.338-3.396-4.524l7.994-55.96
				c0.312-2.186,2.366-3.716,4.521-3.393c2.186,0.312,3.708,2.338,3.396,4.524l-7.995,55.96
				C207.706,126.659,205.996,128.096,204.044,128.096z"/>
		</g>
	</g>
	<g>
		<g>
			<path d="M306.347,128.096c-1.998,0-3.731-1.503-3.966-3.544l-6.386-55.961c-0.25-2.193,1.327-4.173,3.521-4.423
				c2.124-0.292,4.169,1.315,4.427,3.518l6.387,55.96c0.249,2.194-1.328,4.173-3.521,4.423
				C306.651,128.088,306.503,128.096,306.347,128.096z"/>
		</g>
	</g>
	<g>
		<g>
			<path d="M407.097,128.096c-1.663,0-3.209-1.042-3.779-2.701l-19.189-55.96c-0.718-2.088,0.391-4.36,2.482-5.079
				c2.093-0.718,4.356,0.395,5.075,2.486l19.189,55.961c0.718,2.088-0.391,4.36-2.482,5.078
				C407.963,128.025,407.525,128.096,407.097,128.096z"/>
		</g>
	</g>
	<g>
		<g>
			<path d="M188.048,327.951h-7.995c-2.209,0-3.997-1.788-3.997-3.997c0-2.21,1.788-3.998,3.997-3.998h7.995
				c5.629,0,11.523-2.357,18.979-5.34c11.859-4.746,26.622-10.648,48.974-10.648c2.209,0,3.997,1.788,3.997,3.997
				c0,2.21-1.788,3.997-3.997,3.997c-20.813,0-34.78,5.59-45.999,10.071C202.062,325.211,195.215,327.951,188.048,327.951z"/>
		</g>
	</g>
	<g>
		<g>
			<path d="M331.946,327.951h-7.994c-7.167,0-14.014-2.74-21.953-5.918c-11.219-4.481-25.186-10.071-45.999-10.071
				c-2.21,0-3.998-1.787-3.998-3.997c0-2.209,1.788-3.997,3.998-3.997c22.351,0,37.114,5.902,48.973,10.648
				c7.456,2.982,13.351,5.34,18.979,5.34h7.994c2.209,0,3.997,1.788,3.997,3.998C335.943,326.163,334.155,327.951,331.946,327.951z"
				/>
		</g>
	</g>
	<g>
		<g>
			<path d="M256,399.9c-2.21,0-3.998-1.788-3.998-3.997v-87.938c0-2.209,1.788-3.997,3.998-3.997c2.209,0,3.997,1.788,3.997,3.997
				v87.938C259.997,398.112,258.209,399.9,256,399.9z"/>
		</g>
	</g>
	<g>
		<g>
			<path d="M331.946,399.9H180.053c-2.209,0-3.997-1.788-3.997-3.997c0-2.21,1.788-3.998,3.997-3.998h151.893
				c2.209,0,3.997,1.788,3.997,3.998C335.943,398.112,334.155,399.9,331.946,399.9z"/>
		</g>
	</g>
	<g>
		<g>
			<path d="M236.014,351.935h-47.966c-2.209,0-3.997-1.788-3.997-3.998c0-2.209,1.788-3.997,3.997-3.997h47.966
				c2.209,0,3.997,1.788,3.997,3.997C240.011,350.146,238.223,351.935,236.014,351.935z"/>
		</g>
	</g>
	<g>
		<g>
			<path d="M236.014,375.917h-47.966c-2.209,0-3.997-1.787-3.997-3.997s1.788-3.997,3.997-3.997h47.966
				c2.209,0,3.997,1.787,3.997,3.997S238.223,375.917,236.014,375.917z"/>
		</g>
	</g>
	<g>
		<g>
			<path d="M323.952,351.935h-47.967c-2.209,0-3.997-1.788-3.997-3.998c0-2.209,1.788-3.997,3.997-3.997h47.967
				c2.209,0,3.997,1.788,3.997,3.997C327.949,350.146,326.161,351.935,323.952,351.935z"/>
		</g>
	</g>
	<g>
		<g>
			<path d="M323.952,375.917h-47.967c-2.209,0-3.997-1.787-3.997-3.997s1.788-3.997,3.997-3.997h47.967
				c2.209,0,3.997,1.787,3.997,3.997S326.161,375.917,323.952,375.917z"/>
		</g>
	</g>
</g>
</svg>
