<?xml version="1.0" encoding="utf-8"?>
<!-- Generator: Adobe Illustrator 16.0.0, SVG Export Plug-In . SVG Version: 6.00 Build 0)  -->
<!DOCTYPE svg PUBLIC "-//W3C//DTD SVG 1.1//EN" "http://www.w3.org/Graphics/SVG/1.1/DTD/svg11.dtd">
<svg version="1.1" xmlns="http://www.w3.org/2000/svg" xmlns:xlink="http://www.w3.org/1999/xlink" x="0px" y="0px" width="64px"
	 height="64px" viewBox="0 0 64 64" enable-background="new 0 0 64 64" xml:space="preserve">
<g id="_x32_5_purse_x2C__money_x2C__coin_x2C__banknote_x2C__payment_x2C__shop_x2C__shopping">
</g>
<g id="_x32_4_pay_x2C__click_x2C__hand_x2C__coin_x2C__money_x2C__shop_x2C__payment">
</g>
<g id="_x32_3_card_x2C__discount_x2C__sale_x2C__shop_x2C__shopping_x2C__commerce_x2C__market">
</g>
<g id="_x32_2_safe_x2C__box_x2C__key_x2C__thing_x2C__shop_x2C__shopping_x2C__commerce">
</g>
<g id="_x32_1_cashbox_x2C__money_x2C__purchase_x2C__list_x2C__check_x2C__shop_x2C__shopping">
</g>
<g id="_x32_0_search_x2C__magnifier_x2C__basket_x2C__shop_x2C__shopping_x2C__commerce_x2C__market">
</g>
<g id="_x31_9_return_x2C__box_x2C__purchase_x2C__shipping_x2C__delivery_x2C__shop_x2C__shopping">
</g>
<g id="_x31_8_review_x2C__client_x2C__buyer_x2C__talk_x2C__shop_x2C__shopping_x2C__commerce">
</g>
<g id="_x31_7_manager_x2C__consultant_x2C__shop_x2C__shopping_x2C__commerce_x2C__market_x2C__badge">
</g>
<g id="_x31_6_check_x2C__list_x2C__cashbox_x2C__purchase_x2C__shop_x2C__shopping_x2C__commerce">
</g>
<g id="_x31_5_coupon_x2C__sale_x2C__discount_x2C__shop_x2C__shopping_x2C__commerce_x2C__market">
	<g>
		<g>
			<path fill="#ED5565" d="M63.5,48.504c0,0.275-0.225,0.5-0.5,0.5H15c-0.275,0-0.659-0.159-0.854-0.354l-0.293-0.293
				c-0.194-0.194-0.513-0.194-0.707,0l-0.294,0.293c-0.194,0.194-0.578,0.354-0.854,0.354H1c-0.275,0-0.5-0.225-0.5-0.5v-25
				c0-0.275,0.225-0.5,0.5-0.5h10.999c0.275,0,0.659,0.159,0.854,0.354l0.293,0.293c0.194,0.194,0.513,0.194,0.707,0l0.294-0.293
				c0.194-0.194,0.578-0.354,0.854-0.354h48c0.275,0,0.5,0.225,0.5,0.5V48.504z"/>
			<path fill="#FFCE54" d="M13.5,23.796c-0.129,0-0.257-0.048-0.354-0.146l-0.293-0.293c-0.194-0.194-0.578-0.354-0.854-0.354H1
				c-0.275,0-0.5,0.225-0.5,0.5v25c0,0.275,0.225,0.5,0.5,0.5h10.999c0.275,0,0.659-0.159,0.854-0.354l0.294-0.293
				c0.098-0.098,0.226-0.146,0.354-0.146V24.003V23.796z"/>
		</g>
		<g>
			<path fill="#DA4453" d="M63.5,47.503c0,0.275-0.225,0.5-0.5,0.5H15c-0.275,0-0.659-0.159-0.854-0.354l-0.293-0.293
				c-0.194-0.194-0.513-0.194-0.707,0l-0.294,0.293c-0.194,0.194-0.578,0.354-0.854,0.354H1c-0.275,0-0.5-0.225-0.5-0.5v-25
				c0-0.275,0.225-0.5,0.5-0.5h10.999c0.275,0,0.659,0.159,0.854,0.354l0.293,0.293c0.194,0.194,0.513,0.194,0.707,0l0.294-0.293
				c0.194-0.194,0.578-0.354,0.854-0.354h48c0.275,0,0.5,0.225,0.5,0.5V47.503z"/>
			<path fill="#F6BB42" d="M13.5,22.795c-0.129,0-0.257-0.048-0.354-0.146l-0.293-0.293c-0.194-0.194-0.578-0.354-0.854-0.354H1
				c-0.275,0-0.5,0.225-0.5,0.5v25c0,0.275,0.225,0.5,0.5,0.5h10.999c0.275,0,0.659-0.159,0.854-0.354l0.294-0.293
				c0.098-0.098,0.226-0.146,0.354-0.146V23.002V22.795z"/>
		</g>
		<g>
			<path fill="#ED5565" d="M63.5,46.502c0,0.275-0.225,0.5-0.5,0.5H15c-0.275,0-0.659-0.159-0.854-0.354l-0.293-0.293
				c-0.194-0.194-0.513-0.194-0.707,0l-0.294,0.293c-0.194,0.194-0.578,0.354-0.854,0.354H1c-0.275,0-0.5-0.225-0.5-0.5v-25
				c0-0.275,0.225-0.5,0.5-0.5h10.999c0.275,0,0.659,0.159,0.854,0.354l0.293,0.293c0.194,0.194,0.513,0.194,0.707,0l0.294-0.293
				c0.194-0.194,0.578-0.354,0.854-0.354h48c0.275,0,0.5,0.225,0.5,0.5V46.502z"/>
			<path fill="#FFCE54" d="M13.5,21.794c-0.129,0-0.257-0.048-0.354-0.146l-0.293-0.293c-0.194-0.194-0.578-0.354-0.854-0.354H1
				c-0.275,0-0.5,0.225-0.5,0.5v25c0,0.275,0.225,0.5,0.5,0.5h10.999c0.275,0,0.659-0.159,0.854-0.354l0.294-0.293
				c0.098-0.098,0.226-0.146,0.354-0.146V22.001V21.794z"/>
		</g>
		<g>
			<path fill="#DA4453" d="M63.5,45.501c0,0.275-0.225,0.5-0.5,0.5H15c-0.275,0-0.659-0.159-0.854-0.354l-0.293-0.293
				c-0.194-0.194-0.513-0.194-0.707,0l-0.294,0.293c-0.194,0.194-0.578,0.354-0.854,0.354H1c-0.275,0-0.5-0.225-0.5-0.5v-25
				c0-0.275,0.225-0.5,0.5-0.5h10.999c0.275,0,0.659,0.159,0.854,0.354l0.293,0.293c0.194,0.194,0.513,0.194,0.707,0l0.294-0.293
				c0.194-0.194,0.578-0.354,0.854-0.354h48c0.275,0,0.5,0.225,0.5,0.5V45.501z"/>
			<path fill="#F6BB42" d="M13.5,20.793c-0.129,0-0.257-0.048-0.354-0.146l-0.293-0.293c-0.194-0.194-0.578-0.354-0.854-0.354H1
				c-0.275,0-0.5,0.225-0.5,0.5v25c0,0.275,0.225,0.5,0.5,0.5h10.999c0.275,0,0.659-0.159,0.854-0.354l0.294-0.293
				c0.098-0.098,0.226-0.146,0.354-0.146V21V20.793z"/>
		</g>
		<g>
			<path fill="#ED5565" d="M63.5,44.5c0,0.275-0.225,0.5-0.5,0.5H15c-0.275,0-0.659-0.159-0.854-0.354l-0.293-0.293
				c-0.194-0.194-0.513-0.194-0.707,0l-0.294,0.293C12.658,44.841,12.274,45,11.999,45H1c-0.275,0-0.5-0.225-0.5-0.5v-25
				C0.5,19.225,0.725,19,1,19h10.999c0.275,0,0.659,0.159,0.854,0.354l0.293,0.293c0.194,0.194,0.513,0.194,0.707,0l0.294-0.293
				C14.341,19.159,14.725,19,15,19h48c0.275,0,0.5,0.225,0.5,0.5V44.5z"/>
			<path fill="#FFCE54" d="M13.5,19.792c-0.129,0-0.257-0.048-0.354-0.146l-0.293-0.293C12.658,19.159,12.274,19,11.999,19H1
				c-0.275,0-0.5,0.225-0.5,0.5v25C0.5,44.775,0.725,45,1,45h10.999c0.275,0,0.659-0.159,0.854-0.354l0.294-0.293
				c0.098-0.098,0.226-0.146,0.354-0.146V19.999V19.792z"/>
		</g>
		<g>
			<path fill="#DA4453" d="M63.5,43.499c0,0.275-0.225,0.5-0.5,0.5H15c-0.275,0-0.659-0.159-0.854-0.354l-0.293-0.293
				c-0.194-0.194-0.513-0.194-0.707,0l-0.294,0.293c-0.194,0.194-0.578,0.354-0.854,0.354H1c-0.275,0-0.5-0.225-0.5-0.5v-25
				c0-0.275,0.225-0.5,0.5-0.5h10.999c0.275,0,0.659,0.159,0.854,0.354l0.293,0.293c0.194,0.194,0.513,0.194,0.707,0l0.294-0.293
				c0.194-0.194,0.578-0.354,0.854-0.354h48c0.275,0,0.5,0.225,0.5,0.5V43.499z"/>
			<path fill="#F6BB42" d="M13.5,18.791c-0.129,0-0.257-0.048-0.354-0.146l-0.293-0.293c-0.194-0.194-0.578-0.354-0.854-0.354H1
				c-0.275,0-0.5,0.225-0.5,0.5v25c0,0.275,0.225,0.5,0.5,0.5h10.999c0.275,0,0.659-0.159,0.854-0.354l0.294-0.293
				c0.098-0.098,0.226-0.146,0.354-0.146V18.998V18.791z"/>
		</g>
		<g>
			<path fill="#ED5565" d="M63.5,42.498c0,0.275-0.225,0.5-0.5,0.5H15c-0.275,0-0.659-0.159-0.854-0.354l-0.293-0.293
				c-0.194-0.194-0.513-0.194-0.707,0l-0.294,0.293c-0.194,0.194-0.578,0.354-0.854,0.354H1c-0.275,0-0.5-0.225-0.5-0.5v-25
				c0-0.275,0.225-0.5,0.5-0.5h10.999c0.275,0,0.659,0.159,0.854,0.354l0.293,0.293c0.194,0.194,0.513,0.194,0.707,0l0.294-0.293
				c0.194-0.194,0.578-0.354,0.854-0.354h48c0.275,0,0.5,0.225,0.5,0.5V42.498z"/>
			<path fill="#FFCE54" d="M13.5,17.79c-0.129,0-0.257-0.048-0.354-0.146l-0.293-0.293c-0.194-0.194-0.578-0.354-0.854-0.354H1
				c-0.275,0-0.5,0.225-0.5,0.5v25c0,0.275,0.225,0.5,0.5,0.5h10.999c0.275,0,0.659-0.159,0.854-0.354l0.294-0.293
				c0.098-0.098,0.226-0.146,0.354-0.146V17.997V17.79z"/>
		</g>
		<g>
			<path fill="#DA4453" d="M63.5,41.497c0,0.275-0.225,0.5-0.5,0.5H15c-0.275,0-0.659-0.159-0.854-0.354l-0.293-0.293
				c-0.194-0.194-0.513-0.194-0.707,0l-0.294,0.293c-0.194,0.194-0.578,0.354-0.854,0.354H1c-0.275,0-0.5-0.225-0.5-0.5v-25
				c0-0.275,0.225-0.5,0.5-0.5h10.999c0.275,0,0.659,0.159,0.854,0.354l0.293,0.293c0.194,0.194,0.513,0.194,0.707,0l0.294-0.293
				c0.194-0.194,0.578-0.354,0.854-0.354h48c0.275,0,0.5,0.225,0.5,0.5V41.497z"/>
			<path fill="#F6BB42" d="M13.5,16.789c-0.129,0-0.257-0.048-0.354-0.146l-0.293-0.293c-0.194-0.194-0.578-0.354-0.854-0.354H1
				c-0.275,0-0.5,0.225-0.5,0.5v25c0,0.275,0.225,0.5,0.5,0.5h10.999c0.275,0,0.659-0.159,0.854-0.354l0.294-0.293
				c0.098-0.098,0.226-0.146,0.354-0.146V16.996V16.789z"/>
		</g>
		<g>
			<path fill="#ED5565" d="M63.5,40.496c0,0.275-0.225,0.5-0.5,0.5H15c-0.275,0-0.659-0.159-0.854-0.354l-0.293-0.293
				c-0.194-0.194-0.513-0.194-0.707,0l-0.294,0.293c-0.194,0.194-0.578,0.354-0.854,0.354H1c-0.275,0-0.5-0.225-0.5-0.5v-25
				c0-0.275,0.225-0.5,0.5-0.5h10.999c0.275,0,0.659,0.159,0.854,0.354l0.293,0.293c0.194,0.194,0.513,0.194,0.707,0l0.294-0.293
				c0.194-0.194,0.578-0.354,0.854-0.354h48c0.275,0,0.5,0.225,0.5,0.5V40.496z"/>
			<path fill="#FFCE54" d="M13.5,15.788c-0.129,0-0.257-0.048-0.354-0.146l-0.293-0.293c-0.194-0.194-0.578-0.354-0.854-0.354H1
				c-0.275,0-0.5,0.225-0.5,0.5v25c0,0.275,0.225,0.5,0.5,0.5h10.999c0.275,0,0.659-0.159,0.854-0.354l0.294-0.293
				c0.098-0.098,0.226-0.146,0.354-0.146V15.995V15.788z"/>
		</g>
		<g>
			<path fill="#ED5565" d="M13.53,18.496c-0.276,0-0.505-0.224-0.505-0.5s0.219-0.5,0.494-0.5h0.011c0.275,0,0.5,0.224,0.5,0.5
				S13.806,18.496,13.53,18.496z"/>
		</g>
		<g>
			<path fill="#DA4453" d="M59.53,19.496c-0.276,0-0.505-0.224-0.505-0.5s0.219-0.5,0.494-0.5h0.011c0.275,0,0.5,0.224,0.5,0.5
				S59.806,19.496,59.53,19.496z"/>
		</g>
		<g>
			<path fill="#DA4453" d="M57.53,19.496c-0.276,0-0.505-0.224-0.505-0.5s0.219-0.5,0.494-0.5h0.011c0.275,0,0.5,0.224,0.5,0.5
				S57.806,19.496,57.53,19.496z"/>
		</g>
		<g>
			<path fill="#DA4453" d="M55.53,19.496c-0.276,0-0.505-0.224-0.505-0.5s0.219-0.5,0.494-0.5h0.011c0.275,0,0.5,0.224,0.5,0.5
				S55.806,19.496,55.53,19.496z"/>
		</g>
		<g>
			<path fill="#DA4453" d="M53.53,19.496c-0.276,0-0.505-0.224-0.505-0.5s0.219-0.5,0.494-0.5h0.011c0.275,0,0.5,0.224,0.5,0.5
				S53.806,19.496,53.53,19.496z"/>
		</g>
		<g>
			<path fill="#ED5565" d="M13.53,20.496c-0.276,0-0.505-0.224-0.505-0.5s0.219-0.5,0.494-0.5h0.011c0.275,0,0.5,0.224,0.5,0.5
				S13.806,20.496,13.53,20.496z"/>
		</g>
		<g>
			<path fill="#ED5565" d="M13.53,22.496c-0.276,0-0.505-0.224-0.505-0.5s0.219-0.5,0.494-0.5h0.011c0.275,0,0.5,0.224,0.5,0.5
				S13.806,22.496,13.53,22.496z"/>
		</g>
		<g>
			<path fill="#ED5565" d="M13.53,24.496c-0.276,0-0.505-0.224-0.505-0.5s0.219-0.5,0.494-0.5h0.011c0.275,0,0.5,0.224,0.5,0.5
				S13.806,24.496,13.53,24.496z"/>
		</g>
		<g>
			<path fill="#ED5565" d="M13.53,26.496c-0.276,0-0.505-0.224-0.505-0.5s0.219-0.5,0.494-0.5h0.011c0.275,0,0.5,0.224,0.5,0.5
				S13.806,26.496,13.53,26.496z"/>
		</g>
		<g>
			<path fill="#ED5565" d="M13.53,28.496c-0.276,0-0.505-0.224-0.505-0.5s0.219-0.5,0.494-0.5h0.011c0.275,0,0.5,0.224,0.5,0.5
				S13.806,28.496,13.53,28.496z"/>
		</g>
		<g>
			<path fill="#ED5565" d="M13.53,30.496c-0.276,0-0.505-0.224-0.505-0.5s0.219-0.5,0.494-0.5h0.011c0.275,0,0.5,0.224,0.5,0.5
				S13.806,30.496,13.53,30.496z"/>
		</g>
		<g>
			<path fill="#ED5565" d="M13.53,32.496c-0.276,0-0.505-0.224-0.505-0.5s0.219-0.5,0.494-0.5h0.011c0.275,0,0.5,0.224,0.5,0.5
				S13.806,32.496,13.53,32.496z"/>
		</g>
		<g>
			<path fill="#ED5565" d="M13.53,34.496c-0.276,0-0.505-0.224-0.505-0.5s0.219-0.5,0.494-0.5h0.011c0.275,0,0.5,0.224,0.5,0.5
				S13.806,34.496,13.53,34.496z"/>
		</g>
		<g>
			<path fill="#ED5565" d="M13.53,36.496c-0.276,0-0.505-0.224-0.505-0.5s0.219-0.5,0.494-0.5h0.011c0.275,0,0.5,0.224,0.5,0.5
				S13.806,36.496,13.53,36.496z"/>
		</g>
		<g>
			<path fill="#ED5565" d="M13.53,38.496c-0.276,0-0.505-0.224-0.505-0.5s0.219-0.5,0.494-0.5h0.011c0.275,0,0.5,0.224,0.5,0.5
				S13.806,38.496,13.53,38.496z"/>
		</g>
		<g>
			<path fill="#FFCE54" d="M19.5,25.496c-0.276,0-0.5-0.224-0.5-0.5v-5.834c0-0.276,0.224-0.5,0.5-0.5s0.5,0.224,0.5,0.5v5.834
				C20,25.272,19.776,25.496,19.5,25.496z"/>
		</g>
		<g>
			<path fill="#FFCE54" d="M23.5,25.496c-1.379,0-2.5-1.121-2.5-2.5v-2c0-1.379,1.121-2.5,2.5-2.5s2.5,1.121,2.5,2.5v2
				C26,24.375,24.879,25.496,23.5,25.496z M23.5,19.496c-0.827,0-1.5,0.673-1.5,1.5v2c0,0.827,0.673,1.5,1.5,1.5s1.5-0.673,1.5-1.5
				v-2C25,20.169,24.327,19.496,23.5,19.496z"/>
		</g>
		<g>
			<path fill="#FFCE54" d="M29.5,25.496c-1.379,0-2.5-1.121-2.5-2.5v-2c0-1.379,1.121-2.5,2.5-2.5s2.5,1.121,2.5,2.5v2
				C32,24.375,30.879,25.496,29.5,25.496z M29.5,19.496c-0.827,0-1.5,0.673-1.5,1.5v2c0,0.827,0.673,1.5,1.5,1.5s1.5-0.673,1.5-1.5
				v-2C31,20.169,30.327,19.496,29.5,19.496z"/>
		</g>
		<g>
			<path fill="#FFCE54" d="M54,33.496c-1.103,0-2-0.897-2-2s0.897-2,2-2s2,0.897,2,2S55.103,33.496,54,33.496z M54,30.496
				c-0.552,0-1,0.448-1,1s0.448,1,1,1s1-0.448,1-1S54.552,30.496,54,30.496z"/>
		</g>
		<g>
			<path fill="#FFCE54" d="M58,37.496c-1.103,0-2-0.897-2-2s0.897-2,2-2s2,0.897,2,2S59.103,37.496,58,37.496z M58,34.496
				c-0.552,0-1,0.448-1,1s0.448,1,1,1s1-0.448,1-1S58.552,34.496,58,34.496z"/>
		</g>
		<g>
			<path fill="#FFCE54" d="M52.5,37.496c-0.128,0-0.256-0.049-0.354-0.146c-0.195-0.195-0.195-0.512,0-0.707l7-7
				c0.195-0.195,0.512-0.195,0.707,0s0.195,0.512,0,0.707l-7,7C52.756,37.447,52.628,37.496,52.5,37.496z"/>
		</g>
		<g>
			<path fill="#DA4453" d="M39.5,33.496h-20c-0.276,0-0.5-0.224-0.5-0.5s0.224-0.5,0.5-0.5h20c0.276,0,0.5,0.224,0.5,0.5
				S39.776,33.496,39.5,33.496z"/>
		</g>
		<g>
			<path fill="#DA4453" d="M39.5,35.496h-20c-0.276,0-0.5-0.224-0.5-0.5s0.224-0.5,0.5-0.5h20c0.276,0,0.5,0.224,0.5,0.5
				S39.776,35.496,39.5,35.496z"/>
		</g>
		<g>
			<path fill="#DA4453" d="M29.5,37.496h-10c-0.276,0-0.5-0.224-0.5-0.5s0.224-0.5,0.5-0.5h10c0.276,0,0.5,0.224,0.5,0.5
				S29.776,37.496,29.5,37.496z"/>
		</g>
		<g>
			<path fill="#EDAB37" d="M9.5,33.496c0.276,0,0.5-0.224,0.5-0.5v-10c0-0.276-0.224-0.5-0.5-0.5S9,22.72,9,22.996v10
				C9,33.272,9.224,33.496,9.5,33.496z"/>
		</g>
		<g>
			<path fill="#EDAB37" d="M7.5,38.496c0.276,0,0.5-0.224,0.5-0.5v-20c0-0.276-0.224-0.5-0.5-0.5S7,17.72,7,17.996v20
				C7,38.272,7.224,38.496,7.5,38.496z"/>
		</g>
		<g>
			<path fill="#EDAB37" d="M4.5,27.996c0.827,0,1.5,0.673,1.5,1.5s-0.673,1.5-1.5,1.5S3,30.323,3,29.496S3.673,27.996,4.5,27.996z
				 M4.5,29.996c0.275,0,0.5-0.225,0.5-0.5s-0.225-0.5-0.5-0.5S4,29.221,4,29.496S4.225,29.996,4.5,29.996z"/>
		</g>
		<g>
			<path fill="#EDAB37" d="M4.5,24.996c0.827,0,1.5,0.673,1.5,1.5s-0.673,1.5-1.5,1.5S3,27.323,3,26.496S3.673,24.996,4.5,24.996z
				 M4.5,26.996c0.275,0,0.5-0.225,0.5-0.5s-0.225-0.5-0.5-0.5S4,26.221,4,26.496S4.225,26.996,4.5,26.996z"/>
		</g>
		<g>
			<path fill="#EDAB37" d="M3.5,31.496h2c0.276,0,0.5,0.224,0.5,0.5s-0.224,0.5-0.5,0.5h-2c-0.276,0-0.5-0.224-0.5-0.5
				S3.224,31.496,3.5,31.496z"/>
		</g>
	</g>
</g>
<g id="_x31_4_sale_x2C__discount_x2C__box_x2C__gift_x2C__shop_x2C__shopping_x2C__commerce">
</g>
<g id="_x31_3_map_x2C__pin_x2C__marker_x2C__location_x2C__shop_x2C__shopping_x2C__basket">
</g>
<g id="_x31_2_operator_x2C__call_x2C__center_x2C__shop_x2C__shopping_x2C__commerce_x2C__market">
</g>
<g id="_x31_1_courier_x2C__box_x2C__shipping_x2C__purchase_x2C__shop_x2C__shopping_x2C__commerce">
</g>
<g id="_x31_0_box_x2C__shipping_x2C__delivery_x2C__purchase_x2C__shop_x2C__shopping_x2C__commerce">
</g>
<g id="_x39__shipping_x2C__delivery_x2C__box_x2C__crane_x2C__shop_x2C__shopping_x2C__commerce">
</g>
<g id="_x38__computer_x2C__monitor_x2C__desktop_x2C__shop_x2C__shopping_x2C__commerce_x2C__market">
</g>
<g id="_x37__mobile_x2C__phone_x2C__app_x2C__shop_x2C__shopping_x2C__commerce_x2C__market">
</g>
<g id="_x36__food_x2C__market_x2C__purchase_x2C__shop_x2C__shopping_x2C__commerce_x2C__basket">
</g>
<g id="_x35__discount_x2C__sale_x2C__purchase_x2C__pocket_x2C__shop_x2C__shopping_x2C__commerce">
</g>
<g id="_x34__badge_x2C__discount_x2C__sale_x2C__shop_x2C__shopping_x2C__commerce_x2C__market">
</g>
<g id="_x33__food_x2C__pocket_x2C__purchase_x2C__shop_x2C__shopping_x2C__commerce_x2C__supermarket">
</g>
<g id="_x32__shop_x2C__shopping_x2C__commerce_x2C__supermarket_x2C__market_x2C__cart">
</g>
<g id="_x31__list_x2C__check_x2C__notebook_x2C__pen_x2C__shop_x2C__shopping_x2C__commerce">
</g>
</svg>
