<svg xmlns="http://www.w3.org/2000/svg" viewBox="0 0 64 64"><title>15-Browser</title><g id="_15-Browser" data-name="15-Browser"><g id="_Group_" data-name="&lt;Group&gt;"><path d="M61,64H3a3,3,0,0,1-3-3V3A3,3,0,0,1,3,0H61a3,3,0,0,1,3,3V61A3,3,0,0,1,61,64ZM3,2A1,1,0,0,0,2,3V61a1,1,0,0,0,1,1H61a1,1,0,0,0,1-1V3a1,1,0,0,0-1-1Z"/><rect x="1" y="10" width="62" height="2"/></g><rect x="5" y="5" width="2" height="2"/><rect x="9" y="5" width="2" height="2"/><rect x="14" y="5" width="45" height="2"/><g id="_Group_2" data-name="&lt;Group&gt;"><path d="M41.45,58H8.55a3,3,0,0,1-2.565-4.55L22.435,26.3a3,3,0,0,1,5.128,0L44.016,53.452A3,3,0,0,1,41.45,58ZM25,26.86a.988.988,0,0,0-.856.48L7.7,54.488A.995.995,0,0,0,8.55,56h32.9a.983.983,0,0,0,.874-.51.972.972,0,0,0-.018-1L25.854,27.338A.985.985,0,0,0,25,26.86Z"/></g><g id="_Group_3" data-name="&lt;Group&gt;"><path d="M25,46a3,3,0,0,1-3-3V35a3,3,0,0,1,6,0v8A3,3,0,0,1,25,46Zm0-12a1,1,0,0,0-1,1v8a1,1,0,0,0,2,0V35A1,1,0,0,0,25,34Z"/><path d="M25,54a3,3,0,1,1,3-3A3,3,0,0,1,25,54Zm0-4a1,1,0,1,0,1,1A1,1,0,0,0,25,50Z"/></g><path d="M44.991,48.132l-1.982-.264.575-4.316a1,1,0,0,1,.758-.84,9.94,9.94,0,0,0,2.868-1.19,1,1,0,0,1,1.13.059l3.039,2.324,1.143-.382.382-1.144L50.581,39.34a1,1,0,0,1-.059-1.131,9.894,9.894,0,0,0,1.19-2.868,1,1,0,0,1,.841-.757l3.79-.505L56.882,33l-.539-1.079-3.79-.5a1,1,0,0,1-.841-.757,9.894,9.894,0,0,0-1.19-2.868,1,1,0,0,1,.059-1.131L52.9,23.621l-.382-1.144L51.379,22.1,48.34,24.419a1,1,0,0,1-1.13.059,9.94,9.94,0,0,0-2.868-1.19,1,1,0,0,1-.758-.84l-.505-3.791L42,18.118l-1.079.539-.505,3.791a1,1,0,0,1-.758.84,9.94,9.94,0,0,0-2.868,1.19,1,1,0,0,1-1.13-.059L32.621,22.1l-1.143.382L31.1,23.621l2.323,3.039-1.588,1.215-2.645-3.46a1,1,0,0,1-.155-.924l.707-2.121a1,1,0,0,1,.632-.632l2.121-.708a1,1,0,0,1,.924.155l2.932,2.242a11.925,11.925,0,0,1,2.174-.9l.488-3.657a1,1,0,0,1,.544-.763l2-1a1,1,0,0,1,.894,0l2,1a1,1,0,0,1,.544.763l.488,3.657a11.925,11.925,0,0,1,2.174.9l2.932-2.242a1,1,0,0,1,.924-.155l2.121.708a1,1,0,0,1,.632.632l.707,2.121a1,1,0,0,1-.155.924l-2.241,2.932a11.9,11.9,0,0,1,.9,2.174l3.657.488a1,1,0,0,1,.763.544l1,2a1,1,0,0,1,0,.894l-1,2a1,1,0,0,1-.763.544l-3.657.488a11.9,11.9,0,0,1-.9,2.174l2.241,2.932a1,1,0,0,1,.155.924l-.707,2.121a1,1,0,0,1-.632.632l-2.121.708a1,1,0,0,1-.924-.155l-2.932-2.242a11.925,11.925,0,0,1-2.174.9Z"/><path d="M42,40a7,7,0,1,1,7-7A7.008,7.008,0,0,1,42,40Zm0-12a5,5,0,1,0,5,5A5.006,5.006,0,0,0,42,28Z"/><path d="M9.293,23.707l-3-3a1,1,0,0,1,0-1.414l3-3,1.414,1.414L8.414,20l2.293,2.293Z"/><path d="M18.707,23.707l-1.414-1.414L19.586,20l-2.293-2.293,1.414-1.414,3,3a1,1,0,0,1,0,1.414Z"/><rect x="10.36" y="19.5" width="7.28" height="2.001" transform="translate(-9.558 28.328) rotate(-74.051)"/></g></svg>