<svg xmlns="http://www.w3.org/2000/svg" viewBox="0 0 64 64"><g id="_15-call_center" data-name="15-call center"><rect x="55" y="34" width="4" height="10" style="fill:#c1c1c1"/><rect x="49" y="32" width="6" height="14" rx="2" style="fill:#19cffc"/><path d="M52,44V34a2,2,0,0,1,1.5-1.929A1.966,1.966,0,0,0,53,32H51a2.006,2.006,0,0,0-2,2V44a2.006,2.006,0,0,0,2,2h2a1.966,1.966,0,0,0,.5-.071A2,2,0,0,1,52,44Z" style="fill:#1ea1e3"/><path d="M46,34A14,14,0,0,1,35.11,47.64L32,52l-3.11-4.36A14,14,0,1,1,46,34ZM34,35l1-10H29l1,10Zm0,8V39H30v4Z" style="fill:#ff636e"/><path d="M35.11,44.64,32,49l-3.11-4.36a14.007,14.007,0,0,1-10.8-12.161A14.152,14.152,0,0,0,18,34,14,14,0,0,0,28.89,47.64L32,52l3.11-4.36A14,14,0,0,0,46,34a14.152,14.152,0,0,0-.086-1.521A14.007,14.007,0,0,1,35.11,44.64Z" style="fill:#ff475a"/><polygon points="35 25 34 35 30 35 29 25 35 25" style="fill:#ffc9c9"/><rect x="30" y="39" width="4" height="4" style="fill:#ffc9c9"/><rect x="9" y="32" width="6" height="14" rx="2" style="fill:#19cffc"/><rect x="5" y="34" width="4" height="10" style="fill:#c1c1c1"/><path d="M12,44V34a2,2,0,0,1,1.5-1.929A1.966,1.966,0,0,0,13,32H11a2.006,2.006,0,0,0-2,2V44a2.006,2.006,0,0,0,2,2h2a1.966,1.966,0,0,0,.5-.071A2,2,0,0,1,12,44Z" style="fill:#1ea1e3"/><path d="M30,62H17A11.013,11.013,0,0,1,6,51V44H8v7a9.01,9.01,0,0,0,9,9H30Z" style="fill:#6e6e6e"/><rect x="40" y="60" width="6" height="2" style="fill:#ffac5a"/><rect x="39.172" y="55" width="5.657" height="2" transform="translate(-27.296 46.101) rotate(-45)" style="fill:#ffac5a"/><rect x="7" y="26" width="2" height="8" style="fill:#6e6e6e"/><rect x="55" y="26" width="2" height="8" style="fill:#6e6e6e"/><rect x="28" y="59" width="8" height="4" rx="2" style="fill:#adadad"/><path d="M34,61H30a1.994,1.994,0,0,1-1.723-1A1.988,1.988,0,0,0,30,63h4a1.988,1.988,0,0,0,1.723-3A1.994,1.994,0,0,1,34,61Z" style="fill:#848484"/><path d="M32,1h0A25,25,0,0,0,7,26h4A21,21,0,0,1,32,5h0A21,21,0,0,1,53,26h4A25,25,0,0,0,32,1Z" style="fill:#19cffc"/><path d="M59,33H57V27a1,1,0,0,0,1-1A26,26,0,0,0,6,26a1,1,0,0,0,1,1v6H5a1,1,0,0,0-1,1V44a1,1,0,0,0,1,1H6v6A11.013,11.013,0,0,0,17,62H27.184A3,3,0,0,0,30,64h4a3,3,0,0,0,0-6H30a3,3,0,0,0-2.816,2H17a9.01,9.01,0,0,1-9-9V45h.184A3,3,0,0,0,11,47h2a3,3,0,0,0,3-3V34a3,3,0,0,0-3-3H11a2.981,2.981,0,0,0-2,.78V27h2a1,1,0,0,0,1-1,20,20,0,0,1,40,0,1,1,0,0,0,1,1h2v4.78A2.981,2.981,0,0,0,53,31H51a3,3,0,0,0-3,3V44a3,3,0,0,0,3,3h2a3,3,0,0,0,2.816-2H59a1,1,0,0,0,1-1V34A1,1,0,0,0,59,33ZM30,60h4a1,1,0,0,1,0,2H30a1,1,0,0,1,0-2ZM6,35H8v8H6Zm4-1a1,1,0,0,1,1-1h2a1,1,0,0,1,1,1V44a1,1,0,0,1-1,1H11a1,1,0,0,1-1-1ZM32,4A22.029,22.029,0,0,0,10.022,25h-2a24,24,0,0,1,47.958,0h-2A22.029,22.029,0,0,0,32,4ZM54,44a1,1,0,0,1-1,1H51a1,1,0,0,1-1-1V34a1,1,0,0,1,1-1h2a1,1,0,0,1,1,1Zm4-1H56V35h2Z"/><path d="M32,19a15,15,0,0,0-3.711,29.525l2.9,4.056a1,1,0,0,0,1.626,0l2.9-4.056A15,15,0,0,0,32,19Zm2.893,27.666a.992.992,0,0,0-.592.394L32,50.279,29.7,47.06a.992.992,0,0,0-.592-.394,13,13,0,1,1,5.786,0Z"/><path d="M35,24H29a1,1,0,0,0-1,1.1l1,10a1,1,0,0,0,1,.9h4a1,1,0,0,0,.995-.9l1-10A1,1,0,0,0,35,24ZM33.1,34h-2.19l-.8-8H33.9Z"/><path d="M34,38H30a1,1,0,0,0-1,1v4a1,1,0,0,0,1,1h4a1,1,0,0,0,1-1V39A1,1,0,0,0,34,38Zm-1,4H31V40h2Z"/><rect x="40" y="60" width="6" height="2"/><rect x="39.172" y="55" width="5.657" height="2" transform="translate(-27.296 46.101) rotate(-45)"/></g></svg>