<svg xmlns="http://www.w3.org/2000/svg" viewBox="0 0 64 64"><g id="_15-Eyeliner" data-name="15-Eyeliner"><path d="M63,26,49.52,23.11A5.35,5.35,0,0,0,48.47,23H2a1,1,0,0,1-1-1,8,8,0,0,1,8-8H44.37a16.008,16.008,0,0,1,11.32,4.69Z" style="fill:#5c514d"/><path d="M57,43a82.418,82.418,0,0,1-28,5c-15,0-19.61-.92-19.98-.99A.031.031,0,0,0,9,47S9,29,21,29C37,29,57,43,57,43Z" style="fill:#d45f73"/><path d="M42.24,50.16c-.35.1-.7.2-1.06.29A7.965,7.965,0,0,0,45,55a8.108,8.108,0,0,1-6.89-3.87c-.33.07-.66.13-1,.18C37.53,55.52,39,57,39,57c-3.8-1.08-5.23-3.34-5.76-5.18-.37.03-.74.06-1.11.08L30,59l-1.4-7.01c-.32,0-.64,0-.94-.01-.57,1.81-2.02,3.97-5.71,5.02,0,0,1.38-1.39,1.85-5.3-.41-.05-.81-.1-1.19-.16A8.033,8.033,0,0,1,16,55a8.178,8.178,0,0,0,3.65-4.03c-.53-.13-1.03-.26-1.51-.41A12.021,12.021,0,0,1,12,52a16.747,16.747,0,0,0,3.88-2.22c-4.81-1.92-6.65-2.68-6.86-2.77C9.39,47.08,14,48,29,48a82.418,82.418,0,0,0,28-5,40.164,40.164,0,0,1-7.91,4.72L51,49a25.738,25.738,0,0,1-4.18-.35q-1.005.39-2.1.75A15.016,15.016,0,0,0,49,52,11.354,11.354,0,0,1,42.24,50.16Z" style="fill:#453d38"/><path d="M41.345,19H12.693a2.5,2.5,0,1,1,0-5H9a8,8,0,0,0-8,8,1,1,0,0,0,1,1H48.47a5.35,5.35,0,0,1,1.05.11L63,26l-8.969-4.185A30,30,0,0,0,41.345,19Z" style="fill:#3b3430"/><path d="M25.124,42.828a6.935,6.935,0,0,1-.788-13.635A31.021,31.021,0,0,0,21,29C9,29,9,47,9,47a.031.031,0,0,1,.02.01C9.39,47.08,14,48,29,48a82.418,82.418,0,0,0,28-5C48.037,45.068,33.369,43.809,25.124,42.828Z" style="fill:#b85162"/><path d="M57,43a82.418,82.418,0,0,1-28,5c-15,0-19.61-.92-19.98-.99A.031.031,0,0,0,9,47s1-3,7-3c4.8,0,25.59-.64,38.83-2.43A57.517,57.517,0,0,0,63,40Z" style="fill:#0f0d0c"/><path d="M50.991,24.831l-.07.06-4.03,4.03-.06.07L23.862,6.022a2.942,2.942,0,0,1,4.16-4.16Z" style="fill:#3b3430"/><path d="M53,26.841v1.39l-.04.04-2.69,2.69-.04.04h-1.39l-2.01-2.01.06-.07,4.03-4.03.07-.06Z" style="fill:#d45f73"/><polygon points="52.961 28.271 54.28 29.591 53.59 30.281 52.281 31.59 51.591 32.28 50.271 30.961 52.961 28.271" style="fill:#b85162"/><path d="M53.59,30.281c1.48.72,3.07,1.579,3.83,2.979L61,39l-5.74-3.58c-1.4-.76-2.259-2.35-2.979-3.83Z" style="fill:#0f0d0c"/><path d="M48.906,26.906,25.582,3.582a1.992,1.992,0,0,1-.242-2.515,2.936,2.936,0,0,0-1.478,4.955L46.831,28.991l.06-.07Z" style="fill:#0f0d0c"/><path d="M46.891,28.921l-.06.07L48.841,31h1.39l.04-.041,1.345-1.344-2.71-2.71Z" style="fill:#b85162"/><rect x="35" y="22" width="2" height="2"/><path d="M33,22H2a7.008,7.008,0,0,1,7-7H28V13H9a9.011,9.011,0,0,0-9,9,2,2,0,0,0,2,2H33Z"/><path d="M63.93,39.632a1,1,0,0,0-1.217-.59c-.237.071-.5.14-.759.209a.99.99,0,0,0-.105-.78L58.3,32.778a7.463,7.463,0,0,0-3.1-2.79,1,1,0,0,0-.208-1.1L54,27.9V26.837a1,1,0,0,0-.293-.707l-1.4-1.4,10.482,2.246a1,1,0,0,0,.916-1.685l-7.313-7.314A16.893,16.893,0,0,0,44.373,13h-3.8L28.732,1.155a4.038,4.038,0,0,0-5.577,0,3.942,3.942,0,0,0,0,5.576L48.131,31.707a1,1,0,0,0,.707.293H49.9l.989.989a.988.988,0,0,0,.707.292,1.01,1.01,0,0,0,.392-.083,7.379,7.379,0,0,0,2.739,3.069l5.451,3.4c-1.491.312-3.221.6-5.129.861C48.721,36.523,33.751,28,21,28,10.717,28,8,40.429,8,47h.01a.992.992,0,0,0,.6.923s1.349.564,5.159,2.094a19.484,19.484,0,0,1-2.145,1.055A1,1,0,0,0,12,53a13.442,13.442,0,0,0,6.2-1.332,7.686,7.686,0,0,1-2.646,2.438A1,1,0,0,0,16,56a8.79,8.79,0,0,0,6.531-2.819A7.325,7.325,0,0,1,21.24,56.3a1,1,0,0,0,.985,1.666,9.057,9.057,0,0,0,5.72-4.141L29.02,59.2a1,1,0,0,0,.933.8H30a1,1,0,0,0,.958-.713l1.789-5.962a8.852,8.852,0,0,0,5.979,4.637,1,1,0,0,0,1.12-.444,1.012,1.012,0,0,0-.124-1.21,7.367,7.367,0,0,1-1.317-3.192A8.764,8.764,0,0,0,45,56a1,1,0,0,0,.448-1.9A7.517,7.517,0,0,1,42.8,51.666,13.436,13.436,0,0,0,49,53a1,1,0,0,0,.373-1.928,18.134,18.134,0,0,1-2.6-1.334l.157-.059A26.339,26.339,0,0,0,51,50a1,1,0,0,0,.555-1.832l-.44-.293a41.87,41.87,0,0,0,6.422-4.025l5.91-2.955A1,1,0,0,0,63.93,39.632ZM44.373,15a14.9,14.9,0,0,1,10.606,4.394L59.9,24.312,49.727,22.133l-.02,0L42.577,15ZM24,3.943a1.932,1.932,0,0,1,.569-1.374,1.991,1.991,0,0,1,2.749,0L49.575,24.826l-2.749,2.748L24.569,5.317A1.93,1.93,0,0,1,24,3.943ZM48.24,28.988l2.749-2.748L52,27.251v.56L49.811,30h-.559Zm7.493,5.552A6.3,6.3,0,0,1,53.5,31.79l.29-.29a6.346,6.346,0,0,1,2.779,2.285l1.3,2.086ZM21,30c11,0,23.906,6.727,30.886,10.922C38.777,42.426,20.411,43,16,43a10.937,10.937,0,0,0-5.823,1.36,29.685,29.685,0,0,1,1.285-6.084C13.3,32.785,16.513,30,21,30ZM48.686,46.808a1,1,0,0,0-.6.829.87.87,0,0,0,0,.184q-.552-.066-1.1-.158a1.036,1.036,0,0,0-.52.052c-.658.251-1.346.5-2.064.739a1,1,0,0,0-.493,1.533,7.39,7.39,0,0,1-1.09-.637,1,1,0,0,0-.851-.149q-.508.144-1.033.278a1,1,0,0,0-.719,1.219,7.173,7.173,0,0,0,.985,2.181,8.24,8.24,0,0,1-2.263-2.3,1,1,0,0,0-1.02-.425q-.481.093-.972.176a1,1,0,0,0-.829,1.085,16.516,16.516,0,0,0,.725,3.576,5.886,5.886,0,0,1-2.638-3.447,1,1,0,0,0-.961-.726.877.877,0,0,0-.088,0c-.361.032-.724.061-1.092.084a1,1,0,0,0-.893.711l-.977,3.257L29.579,51.8a1,1,0,0,0-.974-.8c-.309,0-.619-.006-.918-.014a1,1,0,0,0-.983.7,5.9,5.9,0,0,1-2.6,3.307,16.079,16.079,0,0,0,.681-3.169,1,1,0,0,0-.876-1.111q-.594-.07-1.16-.155a1.006,1.006,0,0,0-.951.394A7.99,7.99,0,0,1,19.782,52.9a7.346,7.346,0,0,0,.811-1.592,1,1,0,0,0-.7-1.312q-.765-.186-1.464-.393a1,1,0,0,0-.787.092,8.011,8.011,0,0,1-.817.414,1,1,0,0,0-.573-1.257l-.409-.164C18.911,48.863,23.178,49,29,49a84.688,84.688,0,0,0,20.732-2.673Q49.219,46.575,48.686,46.808ZM29,47a161.733,161.733,0,0,1-18.116-.729A8.448,8.448,0,0,1,16,45c5.551,0,26.429-.687,39.524-2.52A83.513,83.513,0,0,1,29,47Z"/></g></svg>