<svg xmlns="http://www.w3.org/2000/svg" viewBox="0 0 64 64"><title>15-Namaste</title><g id="_15-Namaste" data-name="15-Namaste"><path d="M49.48,39.52l-6.07,6.07L41.5,47.5a2.121,2.121,0,0,1-3-3L41,42l5-5,1.5-1.5a2.121,2.121,0,0,1,3,3Z" style="fill:#ffa426"/><path d="M20.59,45.59l-6.07-6.07L13.5,38.5a2.121,2.121,0,0,1,3-3L18,37l5,5,2.5,2.5a2.121,2.121,0,0,1-3,3Z" style="fill:#ffa426"/><path d="M14.52,39.52l6.07,6.07C15.89,52.6,14,63,14,63H1V52C6.13,48.58,12.73,41.49,14.52,39.52Z" style="fill:#ffdecf"/><path d="M17.59,42.59C12.89,49.6,11,60,11,60H1v3H14s1.89-10.4,6.59-17.41Z" style="fill:#ffbeaa"/><path d="M63,52V63H50s-1.89-10.4-6.59-17.41l6.07-6.07C51.27,41.49,57.87,48.58,63,52Z" style="fill:#ffdecf"/><path d="M53.5,59.5s-1.89-10.4-6.59-17.41l-3.5,3.5C48.11,52.6,50,63,50,63H63V59.5Z" style="fill:#ffbeaa"/><polygon points="28 19 32 19 32 33 23 42 18 37 21 33 20 17 28 1 32 2 26 17 28 19" style="fill:#ffdecf"/><polygon points="28.818 1.205 23.5 14.5 25.5 16.5 26.2 16.5 32 2 28.818 1.205" style="fill:#ffbeaa"/><polygon points="29.5 30.5 20.5 39.5 23 42 32 33 32 19 29.5 19 29.5 30.5" style="fill:#ffbeaa"/><polygon points="36 19 38 17 32 2 36 1 44 17 43 33 46 37 41 42 32 33 32 19 36 19" style="fill:#ffdecf"/><polygon points="38.5 16.5 40.5 14.5 35.182 1.205 32 2 37.8 16.5 38.5 16.5" style="fill:#ffbeaa"/><polygon points="34.5 19 32 19 32 33 41 42 43.5 39.5 34.5 30.5 34.5 19" style="fill:#ffbeaa"/><path d="M63.555,51.168c-4.59-3.06-10.489-9.241-12.69-11.619l.342-.342a3.121,3.121,0,0,0-4.414-4.414l-.685.685L44.021,32.7,45,17.062a1,1,0,0,0-.1-.509l-8-16A1,1,0,0,0,35.757.03L32,.969,28.243.03a1,1,0,0,0-1.138.523l-8,16a1,1,0,0,0-.1.509L19.979,32.7l-2.087,2.783-.685-.685a3.121,3.121,0,0,0-4.414,4.414l.342.342C10.95,41.91,5.042,48.1.445,51.168A1,1,0,0,0,0,52V63a1,1,0,0,0,1,1H14a1,1,0,0,0,.984-.821c.018-.1,1.727-9.3,5.781-16l1.028,1.028a3.121,3.121,0,0,0,4.414-4.414L24.414,42,32,34.414,39.586,42l-1.793,1.793a3.121,3.121,0,0,0,4.414,4.414l1.027-1.027c4.053,6.707,5.764,15.9,5.782,16A1,1,0,0,0,50,64H63a1,1,0,0,0,1-1V52A1,1,0,0,0,63.555,51.168ZM28.414,18l-1.241-1.241L32,4.693l4.827,12.066L35.586,18H28.414ZM21.8,33.6a1,1,0,0,0,.2-.662l-.983-15.731L28.536,2.165l2.11.527L25.071,16.628a1,1,0,0,0,.222,1.079L27,19.414V27h2V20h2V32.586l-8,8-3.68-3.68ZM13.18,62H2V52.529c4.632-3.217,10.151-8.969,12.551-11.564l4.765,4.765C15.574,51.687,13.713,59.467,13.18,62ZM25.12,46a1.1,1.1,0,0,1-.327.793,1.123,1.123,0,0,1-1.586,0l-9-9a1.125,1.125,0,0,1,0-1.586,1.123,1.123,0,0,1,1.586,0l1.5,1.5,5,5,2.5,2.5A1.1,1.1,0,0,1,25.12,46ZM33,20h2v7h2V19.414l1.707-1.707a1,1,0,0,0,.222-1.079L33.354,2.692l2.11-.527,7.521,15.042L42,32.938a1,1,0,0,0,.2.662l2.48,3.306L41,40.586l-8-8Zm6.207,26.793a1.125,1.125,0,0,1,0-1.586l2.5-2.5,5-5,1.5-1.5a1.123,1.123,0,0,1,1.586,0,1.125,1.125,0,0,1,0,1.586l-9,9A1.123,1.123,0,0,1,39.207,46.793ZM62,62H50.82c-.533-2.531-2.393-10.3-6.137-16.269l4.766-4.766C51.862,43.574,57.374,49.316,62,52.529Z"/></g></svg>