<svg xmlns="http://www.w3.org/2000/svg" viewBox="0 0 64 64"><g id="_15-Ships" data-name="15-Ships"><polygon points="18 1 18 12.46 15.03 14.06 15 14 15 1 18 1" style="fill:#a17259"/><path d="M57.13,45.05a27.476,27.476,0,0,0,1.55-5.81A28.211,28.211,0,0,0,59,35V15a2.006,2.006,0,0,1,2-2,2.015,2.015,0,0,1,2,2V32A31,31,0,0,1,32,63v-.03A27.953,27.953,0,0,0,57.13,45.05Z" style="fill:#885947"/><path d="M59,34v1a28.211,28.211,0,0,1-.32,4.24C55.83,41.39,34.35,57.07,12,58H6.56a17.672,17.672,0,0,1-3.14-4H11C35,53,59,34,59,34Z" style="fill:#d19e7d"/><path d="M59,24v5S33,49,9,50H1.71a17.081,17.081,0,0,1-.68-4H9C33,45,59,24,59,24Z" style="fill:#d19e7d"/><path d="M13.08,62C37.03,61.97,50.48,49.17,57,45l.13.05A27.953,27.953,0,0,1,32,62.97c-.33.02-.66.03-1,.03H19A17.857,17.857,0,0,1,13.08,62Z" style="fill:#d19e7d"/><path d="M58.68,39.24a27.476,27.476,0,0,1-1.55,5.81L57,45c-6.52,4.17-19.97,16.97-43.92,17a17.938,17.938,0,0,1-6.52-4H12C34.35,57.07,55.83,41.39,58.68,39.24Z" style="fill:#efc1aa"/><path d="M59,29v5S35,53,11,54H3.42a17.288,17.288,0,0,1-1.71-4H9C33,49,59,29,59,29Z" style="fill:#efc1aa"/><path d="M45,28.57c5.49-3.2,10.47-7.04,14-11.57v7S33,45,9,46H1.03c-.02-.33-.03-.67-.03-1V42H8a145.77,145.77,0,0,0,22-6.4c1.32-.5,2.65-1.03,4-1.6,2.71-1.14,5.44-2.41,8.1-3.81C43.08,29.67,44.05,29.13,45,28.57Z" style="fill:#efc1aa"/><polygon points="18 12.46 30 6 30 11 8 22 4 24 4 20 15.03 14.06 18 12.46" style="fill:#d19e7d"/><polygon points="48 6 48 11 45 11 30 11 30 6 48 6" style="fill:#efc1aa"/><circle cx="19" cy="29" r="3" style="fill:#edece7"/><path d="M22,29a2.993,2.993,0,0,0-5.555-1.555,2.987,2.987,0,0,1,4.11,4.11A2.984,2.984,0,0,0,22,29Z" style="fill:#c9c6c8"/><path d="M22,29a3,3,0,1,0-3,3A3,3,0,0,0,22,29Zm-3-6a6,6,0,1,1-6,6A6,6,0,0,1,19,23Z" style="fill:#b8b5b7"/><polygon points="33 16 43 16 43 19 42 19 34 19 33 19 33 16" style="fill:#efc1aa"/><path d="M42,30l.1.19c-2.66,1.4-5.39,2.67-8.1,3.81V19h8Z" style="fill:#313845"/><path d="M45,11V28.57c-.95.56-1.92,1.1-2.9,1.62L42,30V19h1V16H33v3h1V34c-1.35.57-2.68,1.1-4,1.6V11Z" style="fill:#6da3c4"/><path d="M30,11V35.6A145.77,145.77,0,0,1,8,42V22ZM25,29a6,6,0,1,0-6,6A6,6,0,0,0,25,29Z" style="fill:#6293b1"/><path d="M25.844,55.707a25.82,25.82,0,0,1-8.3-2.4A53.227,53.227,0,0,1,11,54H3.42a17.672,17.672,0,0,0,3.14,4H12A61.506,61.506,0,0,0,25.844,55.707Z" style="fill:#b8896f"/><path d="M53.668,42.724c2.572-1.676,4.33-2.97,5.012-3.484A28.211,28.211,0,0,0,59,35V34s-1.2.951-3.328,2.433A23.158,23.158,0,0,1,53.668,42.724Z" style="fill:#b8896f"/><path d="M12.5,49.713A17.848,17.848,0,0,1,9.61,45.959c-.2.011-.407.033-.61.041H1.03a17.081,17.081,0,0,0,.68,4H9C10.162,49.952,11.33,49.846,12.5,49.713Z" style="fill:#b8896f"/><path d="M56,31.159C57.912,29.834,59,29,59,29V24s-1.088.876-3,2.266Z" style="fill:#b8896f"/><path d="M13.08,62A17.857,17.857,0,0,0,19,63H31c.34,0,.67-.01,1-.03A27.953,27.953,0,0,0,57.13,45.05L57,45C50.48,49.17,37.03,61.97,13.08,62Z" style="fill:#b8896f"/><path d="M32.471,55.96h0a38.838,38.838,0,0,1-6.627-.253A61.506,61.506,0,0,1,12,58H6.56a17.938,17.938,0,0,0,6.52,4C37.03,61.97,50.48,49.17,57,45l.13.05a27.476,27.476,0,0,0,1.55-5.81c-.682.514-2.44,1.808-5.012,3.484A23.541,23.541,0,0,1,32.471,55.96Z" style="fill:#dfa985"/><path d="M56,32.554a23.4,23.4,0,0,1-.328,3.879C57.8,34.951,59,34,59,34V29s-1.088.834-3,2.159Z" style="fill:#dfa985"/><path d="M17.544,53.3a19.29,19.29,0,0,1-5.046-3.59c-1.168.133-2.336.239-3.5.287H1.71a17.288,17.288,0,0,0,1.71,4H11A53.227,53.227,0,0,0,17.544,53.3Z" style="fill:#dfa985"/><path d="M56,20.359v5.907C57.912,24.876,59,24,59,24V17A35.268,35.268,0,0,1,56,20.359Z" style="fill:#dfa985"/><path d="M9.61,45.959A14.229,14.229,0,0,1,8,42H1v3c0,.33.01.67.03,1H9C9.2,45.992,9.407,45.97,9.61,45.959Z" style="fill:#dfa985"/><path d="M42,30V19H34v3h5v9.73c1.038-.5,2.077-1,3.1-1.54Z" style="fill:#28272d"/><path d="M42,19V30l.1.19c.3-.161.6-.338.9-.5V19Z" style="fill:#3a73a0"/><path d="M30,33.2v2.4c1.32-.5,2.65-1.03,4-1.6V19H33V32Z" style="fill:#3a73a0"/><polygon points="30 15.75 45 12 45 11 30 11 30 15.75" style="fill:#3a73a0"/><path d="M17.989,23.092,30,13.583V11L8,22v9l5.471-4.331A6.012,6.012,0,0,1,17.989,23.092Z" style="fill:#3a73a0"/><path d="M13,29a5.989,5.989,0,0,1,.241-1.671,6,6,0,1,0,9.518,6.342A5.995,5.995,0,0,1,13,29Z" style="fill:#3a73a0"/><path d="M19,26a2.981,2.981,0,0,1,2,.776V23.35a5.889,5.889,0,0,0-4,0v3.426A2.981,2.981,0,0,1,19,26Z" style="fill:#a6a0a1"/><path d="M19,32a2.981,2.981,0,0,1-2-.776V34.65a5.889,5.889,0,0,0,4,0V31.224A2.981,2.981,0,0,1,19,32Z" style="fill:#a6a0a1"/><path d="M21.224,27a2.965,2.965,0,0,1,0,4H24.65a5.889,5.889,0,0,0,0-4Z" style="fill:#a6a0a1"/><path d="M16,29a2.981,2.981,0,0,1,.776-2H13.35a5.889,5.889,0,0,0,0,4h3.426A2.981,2.981,0,0,1,16,29Z" style="fill:#a6a0a1"/><path d="M33,6V7a2,2,0,0,0,2,2H48v2H30V6Z" style="fill:#d19e7d"/><path d="M27,7.615V8.788a2,2,0,0,1-1.075,1.773L4,22v2l4-2L30,11V6Z" style="fill:#a17259"/><path d="M10.86,52.1a2.994,2.994,0,0,0,4.28,0l2.52,1.68a6,6,0,0,1-9.32,0Z" style="fill:#993c35"/><path d="M13,47a2.958,2.958,0,0,0-2.14.9L8.34,46.22a6,6,0,0,1,9.32,0L15.14,47.9A2.958,2.958,0,0,0,13,47Z" style="fill:#993c35"/><path d="M10,50a2.988,2.988,0,0,0,.86,2.1L8.34,53.78a6,6,0,0,1,0-7.56l2.52,1.68A2.988,2.988,0,0,0,10,50Z" style="fill:#edece7"/><path d="M17.66,46.22a6,6,0,0,1,0,7.56L15.14,52.1a2.994,2.994,0,0,0,0-4.2Z" style="fill:#edece7"/><rect x="59" y="19" width="4" height="16" rx="2" style="fill:#755946"/><path d="M12,49a2.965,2.965,0,0,1,1.744.564q1.072-.147,2.143-.335A3,3,0,0,0,15.14,47.9a2.989,2.989,0,0,0-4.251-.025c.289.377.612.758.957,1.14C11.9,49.012,11.947,49,12,49Z" style="fill:#96624f"/><path d="M14.14,49.9a2.985,2.985,0,0,1,.837,1.87c.09.063.188.123.28.186a2.874,2.874,0,0,0,.63-2.727q-1.071.189-2.143.335A2.894,2.894,0,0,1,14.14,49.9Z" style="fill:#b3876a"/><path d="M10.024,49.761a2.948,2.948,0,0,1,1.822-.746c-.345-.382-.668-.763-.957-1.14-.009.009-.02.016-.029.025A2.984,2.984,0,0,0,10.024,49.761Z" style="fill:#885947"/><path d="M15,52c0,.082-.017.159-.024.239.054-.048.114-.087.164-.139s.077-.1.117-.144c-.092-.063-.19-.123-.28-.186C14.983,51.847,15,51.921,15,52Z" style="fill:#96624f"/><path d="M16.66,55.78a5.932,5.932,0,0,0,1.089-2.13c-.032.042-.056.089-.089.13A5.987,5.987,0,0,1,8.54,54H6.345A5.99,5.99,0,0,0,12,58c.241-.01.481-.031.721-.045A6.011,6.011,0,0,0,16.66,55.78Z" style="fill:#885947"/><path d="M7.251,48.35A6.02,6.02,0,0,0,6.35,50H7A5.967,5.967,0,0,1,7.251,48.35Z" style="fill:#885947"/><path d="M8.34,53.78A5.986,5.986,0,0,1,7,50H6.35a5.929,5.929,0,0,0,0,4H8.54C8.474,53.926,8.4,53.857,8.34,53.78Z" style="fill:#b8896f"/><path d="M61,12a3,3,0,0,0-3,3v1.639A46.116,46.116,0,0,1,46,26.782V12h2a1,1,0,0,0,1-1V6a1,1,0,0,0-1-1C37.257,5,18.443.083,18.254.033l0,.017A.99.99,0,0,0,18,0H15a.988.988,0,0,0-.948.741L14.035.736C14.006.844,11,11.584,3.293,19.293l0,0A1,1,0,0,0,3,20v4a1,1,0,0,0,1.447.895L7,23.618V39H9V22.618l20-10V34.882A147.531,147.531,0,0,1,7.9,41H5V39H6V37H5V35H6V33H1a1,1,0,0,0-1,1V45A19.021,19.021,0,0,0,19,64H31c.335,0,.667-.014,1-.025V64A32.036,32.036,0,0,0,64,32V15A3,3,0,0,0,61,12ZM43,28.541V20a1,1,0,0,0,1-1v8.97C43.667,28.16,43.337,28.355,43,28.541ZM42,18H34V17h8Zm-7,2h6v9.612c-1.976,1.024-3.99,1.973-6,2.849ZM47,10H31V7H47ZM30,5V5a.993.993,0,0,0-.474.117L19,10.787v-8.5C21.177,2.834,25.9,3.976,31.278,5ZM17,2v9.864L16,12.4V2ZM8.291,16.554A49.755,49.755,0,0,0,14,6.628V13.48Zm-.738,4.551L5,22.382V20.6L29,7.674v2.708ZM31,12H44v4a1,1,0,0,0-1-1H33a1,1,0,0,0-1,1v3a1,1,0,0,0,1,1V33.31q-1,.414-2,.806ZM15,50a2,2,0,1,1-2-2A2,2,0,0,1,15,50ZM8,50a4.929,4.929,0,0,1,.63-2.378l.831.554a3.839,3.839,0,0,0,0,3.648l-.831.554A4.929,4.929,0,0,1,8,50Zm2.8,3.335a3.972,3.972,0,0,0,4.4,0l.871.581a4.892,4.892,0,0,1-6.142,0ZM18,50a4.929,4.929,0,0,1-.63,2.378l-.831-.554a3.839,3.839,0,0,0,0-3.648l.831-.554A4.929,4.929,0,0,1,18,50Zm-2.8-3.335a3.972,3.972,0,0,0-4.4,0l-.871-.581a4.892,4.892,0,0,1,6.142,0ZM3,41H2V39H3Zm0-6v2H2V35ZM2,45V43H8a.969.969,0,0,0,.186-.018c.036-.006,1.461-.28,3.814-.839v.937a7,7,0,1,0,2,0V41.652a152.524,152.524,0,0,0,14.592-4.463C41.982,32.32,51.857,26.456,58,19.732v3.783C55.505,25.46,40.491,36.821,23.7,42.191l.609,1.9C39.576,39.214,53.391,29.479,58,26.029V28.5c-2.694,2-19.317,13.957-37.252,18.639l.5,1.935C37.741,44.77,53.117,34.454,58,30.97v2.537c-2.636,2-19.021,14.037-37.22,18.143l.44,1.952c16.7-3.769,31.869-14.039,36.754-17.587a26.888,26.888,0,0,1-.233,2.681c-3.307,2.445-19.113,13.6-36.939,17.2l.4,1.961c16.034-3.244,30.442-12.432,35.994-16.309a26.776,26.776,0,0,1-.813,2.662c-1,.64-2.123,1.454-3.427,2.4-7.412,5.357-19.8,14.3-39.664,14.385A17.014,17.014,0,0,1,2,45ZM24.381,62C38.543,59.469,48,52.658,54.125,48.228c.231-.168.45-.325.671-.484A27.024,27.024,0,0,1,31,62ZM62,32a29.858,29.858,0,0,1-6.922,19.144A28.839,28.839,0,0,0,59.6,39.8l.021-.017-.015-.019A29.051,29.051,0,0,0,60,35V15a1,1,0,0,1,2,0Z"/><path d="M26,29a7,7,0,1,0-7,7A7.008,7.008,0,0,0,26,29ZM14,29a5,5,0,1,1,5,5A5.006,5.006,0,0,1,14,29Z"/><path d="M23,29a4,4,0,1,0-4,4A4,4,0,0,0,23,29Zm-6,0a2,2,0,1,1,2,2A2,2,0,0,1,17,29Z"/><path d="M22.277,44.714l-.554-1.922q-.982.282-1.972.537l.5,1.938Q21.266,45,22.277,44.714Z"/></g></svg>