<?xml version="1.0" encoding="utf-8"?>
<!-- Generator: Adobe Illustrator 16.0.0, SVG Export Plug-In . SVG Version: 6.00 Build 0)  -->
<!DOCTYPE svg PUBLIC "-//W3C//DTD SVG 1.1//EN" "http://www.w3.org/Graphics/SVG/1.1/DTD/svg11.dtd">
<svg version="1.1" id="Layer_1" xmlns="http://www.w3.org/2000/svg" xmlns:xlink="http://www.w3.org/1999/xlink" x="0px" y="0px"
	 width="512px" height="512px" viewBox="0 0 512 512" enable-background="new 0 0 512 512" xml:space="preserve">
<g id="_x31_5._boot_x2C__spur_x2C__wild_x2C__west_x2C__crime_x2C__bandit">
	<g>
		<g>
			<path d="M228.256,399.791c-2.21,0-4.036-1.796-4.036-3.997c0-2.218,1.749-3.997,3.95-3.997h0.086
				c2.201,0,3.997,1.779,3.997,3.997C232.253,397.995,230.457,399.791,228.256,399.791z"/>
		</g>
	</g>
	<g>
		<g>
			<path d="M60.374,399.791c-2.209,0-4.036-1.796-4.036-3.997c0-2.218,1.749-3.997,3.95-3.997h0.086
				c2.202,0,3.997,1.779,3.997,3.997C64.371,397.995,62.576,399.791,60.374,399.791z"/>
		</g>
	</g>
	<g>
		<g>
			<path d="M132.073,439.763c-2.053,0-3.802-1.577-3.974-3.669c-0.492-5.793-0.819-11.148-1.015-16.177
				c-0.078-2.201,1.64-4.06,3.849-4.138c2.17-0.016,4.06,1.64,4.146,3.841c0.18,4.903,0.508,10.134,0.983,15.802
				c0.188,2.202-1.444,4.138-3.646,4.325C132.3,439.747,132.19,439.763,132.073,439.763z"/>
		</g>
	</g>
	<g>
		<g>
			<path d="M133.26,375.808c-0.148,0-0.289-0.016-0.429-0.031c-2.202-0.234-3.787-2.201-3.553-4.387l0.68-6.262
				c4.809-44.078,11.398-104.446-9.345-304.688c-0.226-2.198,1.366-4.161,3.56-4.392c2.17-0.223,4.161,1.366,4.388,3.564
				c20.837,201.092,14.193,261.953,9.345,306.374l-0.679,6.246C137.008,374.277,135.274,375.808,133.26,375.808z"/>
		</g>
	</g>
	<g>
		<g>
			<path d="M479.84,431.769c-1.64,0-3.17-1.016-3.763-2.639c-0.234-0.625-5.418-13.351-28.215-13.351
				c-25.81,0-69.014,0-94.152-16.66c-20.954-13.88-27.262-73.775-19.283-183.105c5.777-79.315,17.426-155.828,17.551-156.592
				c0.327-2.187,2.326-3.662,4.559-3.346c2.17,0.332,3.67,2.374,3.342,4.556c-12.882,84.081-38.316,307.604-1.749,331.82
				c23.14,15.333,64.829,15.333,89.733,15.333c28.808,0,35.475,17.894,35.74,18.644c0.734,2.092-0.359,4.371-2.436,5.105
				C480.729,431.69,480.277,431.769,479.84,431.769z"/>
		</g>
	</g>
	<g>
		<g>
			<g>
				<path d="M465.054,437.904c-1.405,0-2.764-0.749-3.482-2.092l0,0c0,0-2.717-4.044-13.709-4.044
					c-27.605,0-73.822,0-102.975-19.314c-2.607-1.733-4.918-3.67-7.057-5.949c-1.515-1.593-1.437-4.122,0.172-5.637
					c1.607-1.53,4.137-1.452,5.637,0.156c1.732,1.827,3.575,3.373,5.667,4.762c27.138,17.988,71.841,17.988,98.556,17.988
					c10.82,0,16.285,3.341,18.846,5.839c0.906,0.5,1.594,1.343,1.89,2.39c1.03,1.951,0.297,4.402-1.64,5.434
					C466.35,437.749,465.693,437.904,465.054,437.904z"/>
			</g>
		</g>
	</g>
	<g>
		<g>
			<path d="M348.589,511.931c-31.057,0.016-63.127-6.293-92.595-21.5v17.284c0,2.201-1.788,3.997-3.997,3.997h-95.933
				c-1.601,0-3.045-0.952-3.677-2.42l-23.983-55.961c-0.523-1.249-0.398-2.654,0.344-3.778c0.733-1.124,1.99-1.796,3.333-1.796
				h103.927c2.209,0,3.997,1.78,3.997,3.997c0,2.202-1.788,3.997-3.997,3.997H138.14l20.563,47.967h89.296v-19.986
				c0-1.421,0.758-2.732,1.983-3.45c1.241-0.734,2.756-0.734,3.981-0.031c68.534,38.723,153.692,24.873,203.813-4.372
				c17.69-10.321,28.979-22,29.979-30.869l-5.199-6.823c-1.343-1.749-0.999-4.263,0.749-5.605c1.749-1.327,4.264-1.015,5.605,0.75
				l6.09,7.994c0.531,0.702,0.828,1.562,0.828,2.436c0,12.179-12.398,26.403-34.023,39.02
				C432.451,499.907,391.496,511.931,348.589,511.931z"/>
		</g>
	</g>
	<g>
		<g>
			<path d="M349.854,487.683c-33.617,0-68.671-6.965-99.824-24.562c-1.921-1.077-2.6-3.528-1.515-5.449s3.529-2.592,5.449-1.515
				c87.755,49.605,205.656,9.665,228.499-22.703c1.265-1.811,3.778-2.232,5.574-0.952c1.796,1.265,2.233,3.763,0.952,5.559
				C471.408,462.996,413.168,487.683,349.854,487.683z"/>
		</g>
	</g>
	<g>
		<g>
			<path d="M251.997,463.637c-0.602,0-1.203-0.125-1.772-0.406l-15.989-7.9c-1.975-0.968-2.787-3.373-1.811-5.355
				c0.983-1.983,3.396-2.779,5.355-1.812l15.988,7.9c1.976,0.969,2.787,3.373,1.812,5.355
				C254.886,462.824,253.464,463.637,251.997,463.637z"/>
		</g>
	</g>
	<g>
		<g>
			<path d="M355.927,64.016c-1.264,0-2.498-0.593-3.278-1.698c-0.188-0.273-20.048-27.571-77.242-35.858
				c-2.187-0.316-3.7-2.342-3.389-4.528c0.312-2.19,2.452-3.744,4.528-3.381c60.957,8.826,81.802,37.962,82.66,39.195
				c1.249,1.808,0.812,4.286-0.999,5.547C357.521,63.782,356.724,64.016,355.927,64.016z"/>
		</g>
	</g>
	<g>
		<g>
			<path d="M124.587,64.016c-0.797,0-1.593-0.234-2.288-0.722c-1.803-1.261-2.248-3.735-0.999-5.547
				c0.859-1.229,21.586-30.209,82.146-39.133c2.225-0.324,4.216,1.187,4.543,3.373c0.32,2.182-1.195,4.216-3.373,4.536
				c-56.827,8.373-76.563,35.522-76.751,35.795C127.085,63.423,125.844,64.016,124.587,64.016z"/>
		</g>
	</g>
	<g>
		<g>
			<g>
				<path d="M342.796,73.143c-1.202,0-2.404-0.543-3.186-1.577c-0.687-0.902-17.362-22.164-66.5-29.288
					c-2.186-0.316-3.7-2.342-3.388-4.528c0.327-2.194,2.436-3.759,4.528-3.38c51.463,7.456,69.794,29.83,71.73,32.356
					c1.327,1.756,0.983,4.266-0.766,5.602C344.482,72.877,343.64,73.143,342.796,73.143z"/>
			</g>
		</g>
	</g>
	<g>
		<g>
			<g>
				<path d="M137.718,73.119c-0.812,0-1.632-0.242-2.334-0.753c-1.765-1.285-2.194-3.728-0.937-5.512
					c0.164-0.246,17.722-24.525,71.325-32.422c2.249-0.355,4.216,1.187,4.544,3.372c0.32,2.183-1.195,4.216-3.373,4.536
					c-48.981,7.218-65.844,28.956-66.008,29.175C140.146,72.564,138.936,73.119,137.718,73.119z"/>
			</g>
		</g>
	</g>
	<g>
		<g>
			<path d="M220.02,72.019c-2.21,0-3.998-1.788-3.998-3.998V4.066c0-2.21,1.788-3.998,3.998-3.998c2.209,0,3.997,1.788,3.997,3.998
				v63.955C224.017,70.23,222.229,72.019,220.02,72.019z"/>
		</g>
	</g>
	<g>
		<g>
			<path d="M259.991,72.019c-2.209,0-3.997-1.788-3.997-3.998V4.066c0-2.21,1.788-3.998,3.997-3.998s3.997,1.788,3.997,3.998v63.955
				C263.988,70.23,262.2,72.019,259.991,72.019z"/>
		</g>
	</g>
	<g>
		<g>
			<path d="M259.991,8.063H220.02c-2.21,0-3.998-1.788-3.998-3.997c0-2.21,1.788-3.998,3.998-3.998h39.972
				c2.209,0,3.997,1.788,3.997,3.998C263.988,6.275,262.2,8.063,259.991,8.063z"/>
		</g>
	</g>
	<g>
		<g>
			<path d="M259.991,72.019H220.02c-2.21,0-3.998-1.788-3.998-3.998s1.788-3.997,3.998-3.997h39.972
				c2.209,0,3.997,1.788,3.997,3.997S262.2,72.019,259.991,72.019z"/>
		</g>
	</g>
	<g>
		<g>
			<g>
				<path d="M240.005,32.046c-2.209,0-3.997-1.788-3.997-3.997v-7.995c0-2.209,1.788-3.997,3.997-3.997
					c2.21,0,3.998,1.788,3.998,3.997v7.995C244.003,30.259,242.215,32.046,240.005,32.046z"/>
			</g>
		</g>
		<g>
			<g>
				<path d="M240.005,56.029c-2.209,0-3.997-1.788-3.997-3.997v-7.994c0-2.209,1.788-3.997,3.997-3.997
					c2.21,0,3.998,1.788,3.998,3.997v7.994C244.003,54.242,242.215,56.029,240.005,56.029z"/>
			</g>
		</g>
	</g>
	<g>
		<g>
			<path d="M236.008,439.653c-2.209,0-3.997-1.78-3.997-3.997c0-4.45-0.227-8.619-0.671-12.397
				c-0.265-2.186,1.304-4.169,3.498-4.435c2.038-0.328,4.169,1.296,4.435,3.497c0.492,4.076,0.733,8.557,0.733,13.335
				C240.005,437.873,238.217,439.653,236.008,439.653z"/>
		</g>
	</g>
	<g>
		<g>
			<path d="M202.758,387.659c-0.398,0-0.796-0.062-1.202-0.188c-3.139-0.984-6.401-1.874-9.72-2.779
				c-15.606-4.247-33.289-9.057-46.912-26.403c-1.358-1.733-1.062-4.247,0.679-5.621c1.725-1.343,4.239-1.062,5.613,0.687
				c11.984,15.256,27.605,19.518,42.72,23.624c3.419,0.938,6.777,1.843,10.024,2.873c2.101,0.656,3.271,2.904,2.608,5.013
				C206.037,386.565,204.46,387.659,202.758,387.659z"/>
		</g>
	</g>
	<g>
		<g>
			<path d="M228.014,415.779c-11.023,0-19.986-8.962-19.986-19.985s8.962-19.986,19.986-19.986s19.985,8.963,19.985,19.986
				S239.037,415.779,228.014,415.779z M228.014,383.802c-6.612,0-11.992,5.371-11.992,11.992c0,6.604,5.379,11.991,11.992,11.991
				s11.991-5.387,11.991-11.991C240.005,389.173,234.626,383.802,228.014,383.802z"/>
		</g>
	</g>
	<g>
		<g>
			<path d="M259.991,399.791c-1.468,0-2.881-0.812-3.584-2.233c-0.976-1.967-0.172-4.371,1.812-5.355l64.575-31.977
				c1.968-0.969,4.372-0.172,5.355,1.811c0.984,1.983,0.172,4.372-1.811,5.355l-64.576,31.978
				C261.193,399.65,260.593,399.791,259.991,399.791z"/>
		</g>
	</g>
	<g>
		<g>
			<path d="M251.997,383.802c-1.375,0-2.717-0.718-3.459-1.998c-1.108-1.905-0.453-4.356,1.452-5.465l68.994-39.972
				c1.905-1.108,4.356-0.469,5.465,1.452c1.108,1.92,0.453,4.355-1.452,5.465l-68.994,39.972
				C253.371,383.63,252.684,383.802,251.997,383.802z"/>
		</g>
	</g>
	<g>
		<g>
			<path d="M204.03,407.785H92.109c-2.209,0-3.997-1.796-3.997-3.997c0-2.217,1.788-3.997,3.997-3.997H204.03
				c2.21,0,3.998,1.78,3.998,3.997C208.028,405.989,206.24,407.785,204.03,407.785z"/>
		</g>
	</g>
	<g>
		<g>
			<path d="M172.053,391.797H92.109c-2.209,0-3.997-1.796-3.997-3.997c0-2.218,1.788-3.998,3.997-3.998h79.943
				c2.21,0,3.998,1.78,3.998,3.998C176.05,390.001,174.263,391.797,172.053,391.797z"/>
		</g>
	</g>
	<g>
		<g>
			<path d="M60.132,415.779c-11.023,0-19.985-8.962-19.985-19.985s8.962-19.986,19.985-19.986s19.986,8.963,19.986,19.986
				S71.155,415.779,60.132,415.779z M60.132,383.802c-6.612,0-11.991,5.371-11.991,11.992c0,6.604,5.379,11.991,11.991,11.991
				c6.613,0,11.992-5.387,11.992-11.991C72.124,389.173,66.745,383.802,60.132,383.802z"/>
		</g>
	</g>
	<g>
		<g>
			<path d="M60.132,375.808c-2.209,0-3.997-1.795-3.997-3.997v-15.988c0-2.218,1.788-3.997,3.997-3.997
				c2.209,0,3.997,1.779,3.997,3.997v15.988C64.129,374.013,62.341,375.808,60.132,375.808z"/>
		</g>
	</g>
	<g>
		<g>
			<path d="M60.132,439.763c-2.209,0-3.997-1.796-3.997-3.997v-15.989c0-2.217,1.788-3.997,3.997-3.997
				c2.209,0,3.997,1.78,3.997,3.997v15.989C64.129,437.967,62.341,439.763,60.132,439.763z"/>
		</g>
	</g>
	<g>
		<g>
			<path d="M43.175,382.834c-1.023,0-2.045-0.39-2.826-1.171l-11.304-11.305c-1.562-1.562-1.562-4.091,0-5.652
				c1.561-1.562,4.091-1.562,5.652,0l11.305,11.305c1.561,1.562,1.561,4.091,0,5.652C45.221,382.444,44.198,382.834,43.175,382.834z
				"/>
		</g>
	</g>
	<g>
		<g>
			<path d="M88.394,428.052c-1.023,0-2.046-0.39-2.826-1.171l-11.305-11.304c-1.562-1.562-1.562-4.092,0-5.652
				c1.562-1.562,4.091-1.562,5.652,0l11.305,11.305c1.562,1.561,1.562,4.09,0,5.651C90.438,427.662,89.416,428.052,88.394,428.052z"
				/>
		</g>
	</g>
	<g>
		<g>
			<path d="M36.149,399.791H20.168c-2.209,0-3.997-1.796-3.997-3.997c0-2.218,1.788-3.997,3.997-3.997h15.981
				c2.209,0,3.998,1.779,3.998,3.997C40.146,397.995,38.358,399.791,36.149,399.791z"/>
		</g>
	</g>
	<g>
		<g>
			<path d="M31.878,428.052c-1.023,0-2.045-0.39-2.826-1.171c-1.562-1.562-1.562-4.091,0-5.651l11.296-11.305
				c1.561-1.562,4.091-1.562,5.652,0c1.561,1.561,1.561,4.09,0,5.652l-11.297,11.304C33.924,427.662,32.901,428.052,31.878,428.052z
				"/>
		</g>
	</g>
	<g>
		<g>
			<path d="M77.097,382.834c-1.022,0-2.045-0.39-2.826-1.171c-1.562-1.562-1.562-4.091,0-5.652l11.305-11.305
				c1.562-1.562,4.091-1.562,5.652,0c1.561,1.562,1.561,4.091,0,5.652l-11.305,11.305C79.142,382.444,78.119,382.834,77.097,382.834
				z"/>
		</g>
	</g>
	<g>
		<g>
			<g>
				<path d="M188.042,151.962c-0.602,0-1.21-0.137-1.788-0.422l-31.978-15.988c-1.975-0.988-2.771-3.389-1.788-5.364
					c0.992-1.975,3.388-2.76,5.364-1.788l31.977,15.988c1.975,0.988,2.771,3.389,1.788,5.364
					C190.915,151.154,189.502,151.962,188.042,151.962z"/>
			</g>
		</g>
		<g>
			<g>
				<g>
					<path d="M156.064,167.95c-1.46,0-2.873-0.808-3.576-2.209c-0.984-1.976-0.187-4.376,1.788-5.363l31.978-15.989
						c1.991-0.976,4.372-0.195,5.363,1.788c0.984,1.976,0.188,4.376-1.788,5.363l-31.977,15.989
						C157.274,167.814,156.666,167.95,156.064,167.95z"/>
				</g>
			</g>
		</g>
	</g>
	<g>
		<g>
			<g>
				<path d="M188.042,183.939c-0.602,0-1.21-0.137-1.788-0.422l-31.978-15.988c-1.975-0.988-2.771-3.389-1.788-5.364
					c0.992-1.979,3.388-2.752,5.364-1.788l31.977,15.988c1.975,0.988,2.771,3.389,1.788,5.364
					C190.915,183.131,189.502,183.939,188.042,183.939z"/>
			</g>
		</g>
		<g>
			<g>
				<g>
					<path d="M156.064,199.928c-1.46,0-2.873-0.808-3.576-2.209c-0.984-1.976-0.187-4.376,1.788-5.363l31.978-15.989
						c1.991-0.979,4.372-0.191,5.363,1.788c0.984,1.975,0.188,4.376-1.788,5.363l-31.977,15.989
						C157.274,199.791,156.666,199.928,156.064,199.928z"/>
				</g>
			</g>
		</g>
	</g>
	<g>
		<g>
			<g>
				<path d="M188.042,215.917c-0.602,0-1.21-0.137-1.788-0.422l-31.978-15.989c-1.975-0.988-2.771-3.388-1.788-5.363
					c0.992-1.975,3.388-2.756,5.364-1.788l31.977,15.988c1.975,0.988,2.771,3.389,1.788,5.363
					C190.915,215.108,189.502,215.917,188.042,215.917z"/>
			</g>
		</g>
		<g>
			<g>
				<g>
					<path d="M156.064,231.905c-1.46,0-2.873-0.808-3.576-2.209c-0.984-1.976-0.187-4.376,1.788-5.364l31.978-15.989
						c1.991-0.972,4.372-0.191,5.363,1.788c0.984,1.975,0.188,4.376-1.788,5.363l-31.977,15.989
						C157.274,231.769,156.666,231.905,156.064,231.905z"/>
				</g>
			</g>
		</g>
	</g>
	<g>
		<g>
			<g>
				<path d="M188.042,247.894c-0.602,0-1.21-0.136-1.788-0.421l-31.978-15.989c-1.975-0.988-2.771-3.388-1.788-5.364
					c0.992-1.975,3.388-2.76,5.364-1.788l31.977,15.989c1.975,0.987,2.771,3.388,1.788,5.363
					C190.915,247.086,189.502,247.894,188.042,247.894z"/>
			</g>
		</g>
		<g>
			<g>
				<g>
					<path d="M156.064,263.883c-1.46,0-2.873-0.808-3.576-2.209c-0.984-1.976-0.187-4.376,1.788-5.363l31.978-15.989
						c1.991-0.976,4.372-0.195,5.363,1.788c0.984,1.975,0.188,4.375-1.788,5.363l-31.977,15.988
						C157.274,263.746,156.666,263.883,156.064,263.883z"/>
				</g>
			</g>
		</g>
	</g>
	<g>
		<g>
			<g>
				<path d="M291.973,151.962c-1.468,0-2.873-0.808-3.576-2.209c-0.983-1.975-0.187-4.375,1.78-5.364l31.978-15.988
					c1.983-0.98,4.372-0.191,5.371,1.788c0.983,1.975,0.188,4.376-1.796,5.364l-31.977,15.988
					C293.175,151.825,292.565,151.962,291.973,151.962z"/>
			</g>
		</g>
		<g>
			<g>
				<g>
					<path d="M323.95,167.95c-0.609,0-1.219-0.136-1.796-0.421l-31.978-15.989c-1.967-0.987-2.764-3.388-1.78-5.363
						c0.999-1.975,3.389-2.756,5.356-1.788l31.977,15.989c1.983,0.987,2.779,3.388,1.796,5.363
						C326.823,167.143,325.401,167.95,323.95,167.95z"/>
				</g>
			</g>
		</g>
	</g>
	<g>
		<g>
			<g>
				<path d="M291.973,183.939c-1.468,0-2.873-0.809-3.576-2.209c-0.983-1.975-0.187-4.376,1.78-5.364l31.978-15.988
					c1.983-0.972,4.372-0.191,5.371,1.788c0.983,1.975,0.188,4.375-1.796,5.364l-31.977,15.988
					C293.175,183.803,292.565,183.939,291.973,183.939z"/>
			</g>
		</g>
		<g>
			<g>
				<g>
					<path d="M323.95,199.928c-0.609,0-1.219-0.137-1.796-0.421l-31.978-15.989c-1.967-0.987-2.764-3.388-1.78-5.363
						c0.999-1.975,3.389-2.76,5.356-1.788l31.977,15.989c1.983,0.987,2.779,3.388,1.796,5.363
						C326.823,199.12,325.401,199.928,323.95,199.928z"/>
				</g>
			</g>
		</g>
	</g>
	<g>
		<g>
			<g>
				<path d="M291.973,215.917c-1.468,0-2.873-0.809-3.576-2.21c-0.983-1.975-0.187-4.375,1.78-5.363l31.978-15.988
					c1.983-0.976,4.372-0.195,5.371,1.788c0.983,1.975,0.188,4.375-1.796,5.363l-31.977,15.989
					C293.175,215.78,292.565,215.917,291.973,215.917z"/>
			</g>
		</g>
		<g>
			<g>
				<g>
					<path d="M323.95,231.905c-0.609,0-1.219-0.137-1.796-0.421l-31.978-15.989c-1.967-0.987-2.764-3.388-1.78-5.363
						c0.999-1.979,3.389-2.752,5.356-1.788l31.977,15.989c1.983,0.988,2.779,3.388,1.796,5.364
						C326.823,231.098,325.401,231.905,323.95,231.905z"/>
				</g>
			</g>
		</g>
	</g>
	<g>
		<g>
			<g>
				<path d="M291.973,247.894c-1.468,0-2.873-0.808-3.576-2.209c-0.983-1.975-0.187-4.376,1.78-5.363l31.978-15.989
					c1.983-0.98,4.372-0.191,5.371,1.788c0.983,1.976,0.188,4.376-1.796,5.364l-31.977,15.989
					C293.175,247.758,292.565,247.894,291.973,247.894z"/>
			</g>
		</g>
		<g>
			<g>
				<g>
					<path d="M323.95,263.883c-0.609,0-1.219-0.137-1.796-0.422l-31.978-15.988c-1.967-0.988-2.764-3.389-1.78-5.363
						c0.999-1.976,3.389-2.756,5.356-1.788l31.977,15.989c1.983,0.987,2.779,3.388,1.796,5.363
						C326.823,263.075,325.401,263.883,323.95,263.883z"/>
				</g>
			</g>
		</g>
	</g>
</g>
</svg>
