<?xml version="1.0" encoding="utf-8"?>
<!-- Generator: Adobe Illustrator 16.0.0, SVG Export Plug-In . SVG Version: 6.00 Build 0)  -->
<!DOCTYPE svg PUBLIC "-//W3C//DTD SVG 1.1//EN" "http://www.w3.org/Graphics/SVG/1.1/DTD/svg11.dtd">
<svg version="1.1" xmlns="http://www.w3.org/2000/svg" xmlns:xlink="http://www.w3.org/1999/xlink" x="0px" y="0px" width="64px"
	 height="64px" viewBox="0 0 64 64" enable-background="new 0 0 64 64" xml:space="preserve">
<g id="_x32_5_purse_x2C__money_x2C__coin_x2C__banknote_x2C__payment_x2C__shop_x2C__shopping">
</g>
<g id="_x32_4_pay_x2C__click_x2C__hand_x2C__coin_x2C__money_x2C__shop_x2C__payment">
</g>
<g id="_x32_3_card_x2C__discount_x2C__sale_x2C__shop_x2C__shopping_x2C__commerce_x2C__market">
</g>
<g id="_x32_2_safe_x2C__box_x2C__key_x2C__thing_x2C__shop_x2C__shopping_x2C__commerce">
</g>
<g id="_x32_1_cashbox_x2C__money_x2C__purchase_x2C__list_x2C__check_x2C__shop_x2C__shopping">
</g>
<g id="_x32_0_search_x2C__magnifier_x2C__basket_x2C__shop_x2C__shopping_x2C__commerce_x2C__market">
</g>
<g id="_x31_9_return_x2C__box_x2C__purchase_x2C__shipping_x2C__delivery_x2C__shop_x2C__shopping">
</g>
<g id="_x31_8_review_x2C__client_x2C__buyer_x2C__talk_x2C__shop_x2C__shopping_x2C__commerce">
</g>
<g id="_x31_7_manager_x2C__consultant_x2C__shop_x2C__shopping_x2C__commerce_x2C__market_x2C__badge">
</g>
<g id="_x31_6_check_x2C__list_x2C__cashbox_x2C__purchase_x2C__shop_x2C__shopping_x2C__commerce">
	<g>
		<path fill="#AAB2BD" d="M59,25.073v-5.643c0-0.55-0.427-0.857-0.948-0.684l-1.104,0.367c-0.521,0.174-1.385,0.207-1.918,0.074
			l-2.061-0.516c-0.533-0.133-1.406-0.133-1.939,0l-2.061,0.516c-0.533,0.133-1.396,0.1-1.918-0.074l-1.104-0.367
			c-0.521-0.174-1.375-0.174-1.896,0l-1.104,0.367c-0.521,0.174-1.375,0.174-1.896,0l-1.104-0.367c-0.521-0.174-1.375-0.174-1.896,0
			l-1.104,0.367c-0.521,0.174-1.375,0.174-1.896,0l-1.104-0.367c-0.521-0.174-1.375-0.174-1.896,0l-1.104,0.367
			c-0.521,0.174-1.375,0.174-1.896,0l-1.104-0.367c-0.521-0.174-1.375-0.174-1.896,0l-1.104,0.367c-0.521,0.174-1.375,0.174-1.896,0
			l-1.104-0.367c-0.521-0.174-1.375-0.174-1.896,0l-1.104,0.367c-0.521,0.174-1.375,0.174-1.896,0l-1.104-0.367
			C15.427,18.573,15,18.881,15,19.431v5.643H59z"/>
		<path fill="#AAB2BD" d="M59,20.575v6.496c0,1.38-1.12,2.5-2.5,2.5s-2.5-1.12-2.5-2.5v-6.496H59z"/>
		<path fill="#E6E9ED" d="M7.5,0.571c-1.38,0-2.5,1.12-2.5,2.5v59.5c0,0.55,0.427,0.857,0.948,0.684l1.104-0.367
			c0.521-0.174,1.385-0.207,1.918-0.074l2.061,0.516c0.533,0.133,1.406,0.133,1.939,0l2.061-0.516
			c0.533-0.133,1.396-0.1,1.918,0.074l1.104,0.367c0.521,0.174,1.375,0.174,1.896,0l1.104-0.367c0.521-0.174,1.375-0.174,1.896,0
			l1.104,0.367c0.521,0.174,1.375,0.174,1.896,0l1.104-0.367c0.521-0.174,1.375-0.174,1.896,0l1.104,0.367
			c0.521,0.174,1.375,0.174,1.896,0l1.104-0.367c0.521-0.174,1.375-0.174,1.896,0l1.104,0.367c0.521,0.174,1.375,0.174,1.896,0
			l1.104-0.367c0.521-0.174,1.375-0.174,1.896,0l1.104,0.367c0.521,0.174,1.375,0.174,1.896,0l1.104-0.367
			c0.521-0.174,1.375-0.174,1.896,0l1.104,0.367C48.573,63.429,49,63.121,49,62.571v-33V3.091c0-1.39,1.12-2.5,2.5-2.5v-0.02H7.5z"
			/>
		<path fill="#CCD1D9" d="M54,27.071c0,1.38,1.12,2.5,2.5,2.5H49V3.091c0-1.39,1.12-2.5,2.5-2.5s2.5,1.11,2.5,2.5v13.48V27.071z"/>
		<g>
			<g>
				<path fill="#656D78" d="M21,13.072c-0.11,0-0.22-0.036-0.313-0.109c-0.216-0.173-0.25-0.487-0.078-0.703l4-5
					c0.174-0.216,0.488-0.247,0.703-0.078c0.216,0.173,0.25,0.487,0.078,0.703l-4,5C21.292,13.008,21.146,13.072,21,13.072z"/>
			</g>
			<g>
				<path fill="#656D78" d="M33,13.072c-0.146,0-0.292-0.064-0.391-0.188l-4-5c-0.172-0.216-0.138-0.53,0.078-0.703
					c0.218-0.171,0.531-0.136,0.703,0.078l4,5c0.172,0.216,0.138,0.53-0.078,0.703C33.22,13.036,33.109,13.072,33,13.072z"/>
			</g>
			<polygon fill="#EF6C77" points="18.001,11.571 21,11.571 33,11.571 35.999,11.571 35.999,13.571 34.999,13.571 19.001,13.571 
				18.001,13.571 			"/>
			<polygon fill="#ED5564" points="19.001,13.571 34.999,13.571 32.999,22.57 21.001,22.57 			"/>
			<g>
				<path fill="#DA4453" d="M27,20.07c-0.276,0-0.5-0.224-0.5-0.5v-2.999c0-0.276,0.224-0.5,0.5-0.5s0.5,0.224,0.5,0.5v2.999
					C27.5,19.847,27.276,20.07,27,20.07z"/>
			</g>
			<g>
				<path fill="#DA4453" d="M30,20.07c-0.276,0-0.5-0.224-0.5-0.5v-2.999c0-0.276,0.224-0.5,0.5-0.5s0.5,0.224,0.5,0.5v2.999
					C30.5,19.847,30.276,20.07,30,20.07z"/>
			</g>
			<g>
				<path fill="#DA4453" d="M24,20.07c-0.276,0-0.5-0.224-0.5-0.5v-2.999c0-0.276,0.224-0.5,0.5-0.5s0.5,0.224,0.5,0.5v2.999
					C24.5,19.847,24.276,20.07,24,20.07z"/>
			</g>
		</g>
		<g>
			<path fill="#CCD1D9" d="M44,31.071H10c-0.276,0-0.5-0.224-0.5-0.5v-2c0-0.276,0.224-0.5,0.5-0.5h34c0.276,0,0.5,0.224,0.5,0.5v2
				C44.5,30.848,44.276,31.071,44,31.071z M10.5,30.071h33v-1h-33V30.071z"/>
		</g>
		<g>
			<path fill="#AAB2BD" d="M26,36.071H10c-0.276,0-0.5-0.224-0.5-0.5s0.224-0.5,0.5-0.5h16c0.276,0,0.5,0.224,0.5,0.5
				S26.276,36.071,26,36.071z"/>
		</g>
		<g>
			<path fill="#AAB2BD" d="M44,36.071h-3c-0.276,0-0.5-0.224-0.5-0.5s0.224-0.5,0.5-0.5h3c0.276,0,0.5,0.224,0.5,0.5
				S44.276,36.071,44,36.071z"/>
		</g>
		<g>
			<path fill="#AAB2BD" d="M29,40.071H10c-0.276,0-0.5-0.224-0.5-0.5s0.224-0.5,0.5-0.5h19c0.276,0,0.5,0.224,0.5,0.5
				S29.276,40.071,29,40.071z"/>
		</g>
		<g>
			<path fill="#AAB2BD" d="M44,40.071h-3c-0.276,0-0.5-0.224-0.5-0.5s0.224-0.5,0.5-0.5h3c0.276,0,0.5,0.224,0.5,0.5
				S44.276,40.071,44,40.071z"/>
		</g>
		<g>
			<path fill="#AAB2BD" d="M25,44.071H10c-0.276,0-0.5-0.224-0.5-0.5s0.224-0.5,0.5-0.5h15c0.276,0,0.5,0.224,0.5,0.5
				S25.276,44.071,25,44.071z"/>
		</g>
		<g>
			<path fill="#AAB2BD" d="M44,44.071h-3c-0.276,0-0.5-0.224-0.5-0.5s0.224-0.5,0.5-0.5h3c0.276,0,0.5,0.224,0.5,0.5
				S44.276,44.071,44,44.071z"/>
		</g>
		<g>
			<path fill="#CCD1D9" d="M44,50.071H10c-0.276,0-0.5-0.224-0.5-0.5s0.224-0.5,0.5-0.5h34c0.276,0,0.5,0.224,0.5,0.5
				S44.276,50.071,44,50.071z"/>
		</g>
		<g>
			<path fill="#AAB2BD" d="M18,56.071h-8c-0.276,0-0.5-0.224-0.5-0.5s0.224-0.5,0.5-0.5h8c0.276,0,0.5,0.224,0.5,0.5
				S18.276,56.071,18,56.071z"/>
		</g>
		<g>
			<path fill="#AAB2BD" d="M39,56.071h-3c-0.276,0-0.5-0.224-0.5-0.5s0.224-0.5,0.5-0.5h3c0.276,0,0.5,0.224,0.5,0.5
				S39.276,56.071,39,56.071z"/>
		</g>
		<g>
			<path fill="#AAB2BD" d="M44,57.071h-2c-0.276,0-0.5-0.224-0.5-0.5s0.224-0.5,0.5-0.5h1.065l-1.481-2.223
				c-0.103-0.153-0.112-0.351-0.024-0.514c0.087-0.162,0.256-0.264,0.44-0.264h2c0.276,0,0.5,0.224,0.5,0.5s-0.224,0.5-0.5,0.5
				h-1.065l1.481,2.223c0.103,0.153,0.112,0.351,0.024,0.514C44.354,56.97,44.185,57.071,44,57.071z"/>
		</g>
		<g>
			<path fill="#AAB2BD" d="M43,54.071c-0.276,0-0.5-0.224-0.5-0.5v-0.5c0-0.276,0.224-0.5,0.5-0.5s0.5,0.224,0.5,0.5v0.5
				C43.5,53.848,43.276,54.071,43,54.071z"/>
		</g>
		<g>
			<path fill="#AAB2BD" d="M43,57.571c-0.276,0-0.5-0.224-0.5-0.5v-0.5c0-0.276,0.224-0.5,0.5-0.5s0.5,0.224,0.5,0.5v0.5
				C43.5,57.348,43.276,57.571,43,57.571z"/>
		</g>
		<g>
			<path fill="#CCD1D9" d="M13,30.071c-0.276,0-0.5-0.224-0.5-0.5v-1c0-0.276,0.224-0.5,0.5-0.5s0.5,0.224,0.5,0.5v1
				C13.5,29.848,13.276,30.071,13,30.071z"/>
		</g>
		<g>
			<path fill="#CCD1D9" d="M17,30.071c-0.276,0-0.5-0.224-0.5-0.5v-1c0-0.276,0.224-0.5,0.5-0.5s0.5,0.224,0.5,0.5v1
				C17.5,29.848,17.276,30.071,17,30.071z"/>
		</g>
		<g>
			<path fill="#CCD1D9" d="M21,30.071c-0.276,0-0.5-0.224-0.5-0.5v-1c0-0.276,0.224-0.5,0.5-0.5s0.5,0.224,0.5,0.5v1
				C21.5,29.848,21.276,30.071,21,30.071z"/>
		</g>
		<g>
			<path fill="#CCD1D9" d="M25,30.071c-0.276,0-0.5-0.224-0.5-0.5v-1c0-0.276,0.224-0.5,0.5-0.5s0.5,0.224,0.5,0.5v1
				C25.5,29.848,25.276,30.071,25,30.071z"/>
		</g>
		<g>
			<path fill="#CCD1D9" d="M29,30.071c-0.276,0-0.5-0.224-0.5-0.5v-1c0-0.276,0.224-0.5,0.5-0.5s0.5,0.224,0.5,0.5v1
				C29.5,29.848,29.276,30.071,29,30.071z"/>
		</g>
		<g>
			<path fill="#CCD1D9" d="M33,30.071c-0.276,0-0.5-0.224-0.5-0.5v-1c0-0.276,0.224-0.5,0.5-0.5s0.5,0.224,0.5,0.5v1
				C33.5,29.848,33.276,30.071,33,30.071z"/>
		</g>
		<g>
			<path fill="#CCD1D9" d="M37,30.071c-0.276,0-0.5-0.224-0.5-0.5v-1c0-0.276,0.224-0.5,0.5-0.5s0.5,0.224,0.5,0.5v1
				C37.5,29.848,37.276,30.071,37,30.071z"/>
		</g>
		<g>
			<path fill="#CCD1D9" d="M41,30.071c-0.276,0-0.5-0.224-0.5-0.5v-1c0-0.276,0.224-0.5,0.5-0.5s0.5,0.224,0.5,0.5v1
				C41.5,29.848,41.276,30.071,41,30.071z"/>
		</g>
	</g>
</g>
<g id="_x31_5_coupon_x2C__sale_x2C__discount_x2C__shop_x2C__shopping_x2C__commerce_x2C__market">
</g>
<g id="_x31_4_sale_x2C__discount_x2C__box_x2C__gift_x2C__shop_x2C__shopping_x2C__commerce">
</g>
<g id="_x31_3_map_x2C__pin_x2C__marker_x2C__location_x2C__shop_x2C__shopping_x2C__basket">
</g>
<g id="_x31_2_operator_x2C__call_x2C__center_x2C__shop_x2C__shopping_x2C__commerce_x2C__market">
</g>
<g id="_x31_1_courier_x2C__box_x2C__shipping_x2C__purchase_x2C__shop_x2C__shopping_x2C__commerce">
</g>
<g id="_x31_0_box_x2C__shipping_x2C__delivery_x2C__purchase_x2C__shop_x2C__shopping_x2C__commerce">
</g>
<g id="_x39__shipping_x2C__delivery_x2C__box_x2C__crane_x2C__shop_x2C__shopping_x2C__commerce">
</g>
<g id="_x38__computer_x2C__monitor_x2C__desktop_x2C__shop_x2C__shopping_x2C__commerce_x2C__market">
</g>
<g id="_x37__mobile_x2C__phone_x2C__app_x2C__shop_x2C__shopping_x2C__commerce_x2C__market">
</g>
<g id="_x36__food_x2C__market_x2C__purchase_x2C__shop_x2C__shopping_x2C__commerce_x2C__basket">
</g>
<g id="_x35__discount_x2C__sale_x2C__purchase_x2C__pocket_x2C__shop_x2C__shopping_x2C__commerce">
</g>
<g id="_x34__badge_x2C__discount_x2C__sale_x2C__shop_x2C__shopping_x2C__commerce_x2C__market">
</g>
<g id="_x33__food_x2C__pocket_x2C__purchase_x2C__shop_x2C__shopping_x2C__commerce_x2C__supermarket">
</g>
<g id="_x32__shop_x2C__shopping_x2C__commerce_x2C__supermarket_x2C__market_x2C__cart">
</g>
<g id="_x31__list_x2C__check_x2C__notebook_x2C__pen_x2C__shop_x2C__shopping_x2C__commerce">
</g>
</svg>
