<svg xmlns="http://www.w3.org/2000/svg" viewBox="0 0 64 64"><g id="_16-Checklist" data-name="16-Checklist"><path d="M17,4V9H1V3A2.006,2.006,0,0,1,3,1H14A2.938,2.938,0,0,1,17,4Z" style="fill:#96e8ff"/><path d="M14,1H61a2.006,2.006,0,0,1,2,2V9H17V4A2.938,2.938,0,0,0,14,1Z" style="fill:#19cffc"/><path d="M17,1H14a2.938,2.938,0,0,1,3,3V9h3V4A2.938,2.938,0,0,0,17,1Z" style="fill:#4ab8f7"/><path d="M63,9V61a2.006,2.006,0,0,1-2,2H3a2.006,2.006,0,0,1-2-2V9H63Z" style="fill:#f0f0f0"/><path d="M4,61V9H1V61a2.006,2.006,0,0,0,2,2H6A2.006,2.006,0,0,1,4,61Z" style="fill:#c1c1c1"/><path d="M60,61V9h3V61a2.006,2.006,0,0,1-2,2H58A2.006,2.006,0,0,0,60,61Z" style="fill:#c1c1c1"/><rect x="4" y="4" width="2" height="2" style="fill:#2b75ad"/><rect x="8" y="4" width="2" height="2" style="fill:#2b75ad"/><rect x="12" y="4" width="2" height="2" style="fill:#2b75ad"/><rect x="20" y="4" width="40" height="2" style="fill:#2b75ad"/><rect x="7" y="16" width="10" height="10" style="fill:#64e1dc"/><rect x="7" y="31" width="10" height="10" style="fill:#64e1dc"/><rect x="7" y="46" width="10" height="10" style="fill:#64e1dc"/><path d="M17,16v1.42l-5.29,5.29a1.014,1.014,0,0,1-1.42,0l-2-2,1.42-1.42L11,20.59,15.58,16Z" style="fill:#1cadb5"/><path d="M17,31v1.42l-5.29,5.29a1.014,1.014,0,0,1-1.42,0l-2-2,1.42-1.42L11,35.59,15.58,31Z" style="fill:#1cadb5"/><path d="M17,46v1.42l-5.29,5.29a1.014,1.014,0,0,1-1.42,0l-2-2,1.42-1.42L11,50.59,15.58,46Z" style="fill:#1cadb5"/><rect x="22" y="18" width="2" height="2" style="fill:#6e6e6e"/><rect x="26" y="18" width="32" height="2" style="fill:#6e6e6e"/><rect x="22" y="22" width="32" height="2" style="fill:#6e6e6e"/><rect x="22" y="33" width="2" height="2" style="fill:#6e6e6e"/><rect x="26" y="33" width="32" height="2" style="fill:#6e6e6e"/><rect x="22" y="37" width="32" height="2" style="fill:#6e6e6e"/><rect x="22" y="48" width="2" height="2" style="fill:#6e6e6e"/><rect x="26" y="48" width="32" height="2" style="fill:#6e6e6e"/><rect x="22" y="52" width="32" height="2" style="fill:#6e6e6e"/><path d="M61,0H3A3,3,0,0,0,0,3V61a3,3,0,0,0,3,3H61a3,3,0,0,0,3-3V3A3,3,0,0,0,61,0Zm1,3V8H18V4a4.08,4.08,0,0,0-.487-2H61A1,1,0,0,1,62,3ZM3,2H13.992A1.884,1.884,0,0,1,16,4V8H2V3A1,1,0,0,1,3,2ZM61,62H3a1,1,0,0,1-1-1V10H62V61A1,1,0,0,1,61,62Z"/><rect x="4" y="4" width="2" height="2"/><rect x="8" y="4" width="2" height="2"/><rect x="12" y="4" width="2" height="2"/><rect x="20" y="4" width="40" height="2"/><path d="M17,15H7a1,1,0,0,0-1,1V26a1,1,0,0,0,1,1H17a1,1,0,0,0,1-1V16A1,1,0,0,0,17,15ZM8,25V17h6.586L11,20.586,9.707,19.293,8.293,20.707l2,2a1,1,0,0,0,1.414,0L16,18.414V25Z"/><path d="M17,30H7a1,1,0,0,0-1,1V41a1,1,0,0,0,1,1H17a1,1,0,0,0,1-1V31A1,1,0,0,0,17,30ZM8,40V32h6.586L11,35.586,9.707,34.293,8.293,35.707l2,2a1,1,0,0,0,1.414,0L16,33.414V40Z"/><path d="M17,45H7a1,1,0,0,0-1,1V56a1,1,0,0,0,1,1H17a1,1,0,0,0,1-1V46A1,1,0,0,0,17,45ZM8,55V47h6.586L11,50.586,9.707,49.293,8.293,50.707l2,2a1,1,0,0,0,1.414,0L16,48.414V55Z"/><rect x="22" y="18" width="2" height="2"/><rect x="26" y="18" width="32" height="2"/><rect x="22" y="22" width="32" height="2"/><rect x="22" y="33" width="2" height="2"/><rect x="26" y="33" width="32" height="2"/><rect x="22" y="37" width="32" height="2"/><rect x="22" y="48" width="2" height="2"/><rect x="26" y="48" width="32" height="2"/><rect x="22" y="52" width="32" height="2"/></g></svg>