<svg xmlns="http://www.w3.org/2000/svg" viewBox="0 0 64 64"><title>16-Development</title><g id="_16-Development" data-name="16-Development"><g id="_Group_" data-name="&lt;Group&gt;"><path d="M61,48H20a3,3,0,0,1-3-3V27h2V45a1,1,0,0,0,1,1H61a1,1,0,0,0,1-1V4a1,1,0,0,0-1-1H20a1,1,0,0,0-1,1V6H17V4a3,3,0,0,1,3-3H61a3,3,0,0,1,3,3V45A3,3,0,0,1,61,48Z"/><path d="M58,53H13a1,1,0,0,1-1-1V27h2V51H57V47h2v5A1,1,0,0,1,58,53Z"/><path d="M52,58H7a1,1,0,0,1-1-1V24H8V56H51V52h2v5A1,1,0,0,1,52,58Z"/><path d="M46,63H1a1,1,0,0,1-1-1V17a1,1,0,0,1,1-1H4v2H2V61H45V57h2v5A1,1,0,0,1,46,63Z"/><path d="M15,28a11.712,11.712,0,0,1-2.155-.2A11.975,11.975,0,0,1,3.054,17.087C3.021,16.73,3,16.371,3,16A12.013,12.013,0,0,1,15,4a11.605,11.605,0,0,1,3.277.459,12,12,0,0,1-.115,23.116A11.642,11.642,0,0,1,15,28ZM15,6A10.011,10.011,0,0,0,5,16c0,.309.019.61.046.91A10,10,0,1,0,17.729,6.382l-.011,0A9.608,9.608,0,0,0,15,6Z"/></g><path d="M43,42a1,1,0,0,1-.447-.1l-2-1a1,1,0,0,1-.544-.763l-.488-3.657a11.954,11.954,0,0,1-2.174-.9l-2.932,2.242a1.008,1.008,0,0,1-.924.155l-2.121-.708a1,1,0,0,1-.632-.632l-.708-2.121a1,1,0,0,1,.155-.924l2.242-2.932a11.954,11.954,0,0,1-.9-2.174l-3.657-.488a1,1,0,0,1-.763-.544l-1-2a1,1,0,0,1,0-.894l1-2a1,1,0,0,1,.763-.544l3.657-.488a11.954,11.954,0,0,1,.9-2.174l-2.242-2.932a1,1,0,0,1-.155-.924l.708-2.121a1,1,0,0,1,.632-.632l2.121-.708a1,1,0,0,1,.924.155l2.932,2.242a11.954,11.954,0,0,1,2.174-.9l.488-3.657a1,1,0,0,1,.544-.763l2-1a1,1,0,0,1,.894,0l2,1a1,1,0,0,1,.544.763l.488,3.657a11.954,11.954,0,0,1,2.174.9l2.932-2.242a1,1,0,0,1,.924-.155l2.121.708a1,1,0,0,1,.632.632l.708,2.121a1,1,0,0,1-.155.924l-2.242,2.932a11.954,11.954,0,0,1,.9,2.174l3.657.488a1,1,0,0,1,.763.544l1,2a1,1,0,0,1,0,.894l-1,2a1,1,0,0,1-.763.544l-3.657.488a11.954,11.954,0,0,1-.9,2.174l2.242,2.932a1,1,0,0,1,.155.924l-.708,2.121a1,1,0,0,1-.632.632l-2.121.708a1.007,1.007,0,0,1-.924-.155l-2.932-2.242a11.954,11.954,0,0,1-2.174.9l-.488,3.657a1,1,0,0,1-.544.763l-2,1A1,1,0,0,1,43,42Zm-1.079-2.657L43,39.882l1.079-.539.505-3.791a1,1,0,0,1,.757-.84,9.934,9.934,0,0,0,2.869-1.19,1,1,0,0,1,1.13.059l3.039,2.324,1.144-.382.382-1.144L51.581,31.34a1,1,0,0,1-.059-1.13,9.934,9.934,0,0,0,1.19-2.869,1,1,0,0,1,.84-.757l3.791-.5L57.882,25l-.539-1.079-3.791-.5a1,1,0,0,1-.84-.757,9.934,9.934,0,0,0-1.19-2.869,1,1,0,0,1,.059-1.13l2.324-3.039-.382-1.144L52.379,14.1,49.34,16.419a1,1,0,0,1-1.13.059,9.934,9.934,0,0,0-2.869-1.19,1,1,0,0,1-.757-.84l-.505-3.791L43,10.118l-1.079.539-.505,3.791a1,1,0,0,1-.757.84,9.934,9.934,0,0,0-2.869,1.19,1,1,0,0,1-1.13-.059L33.621,14.1l-1.144.382L32.1,15.621l2.324,3.039a1,1,0,0,1,.059,1.13,9.934,9.934,0,0,0-1.19,2.869,1,1,0,0,1-.84.757l-3.791.5L28.118,25l.539,1.079,3.791.5a1,1,0,0,1,.84.757,9.934,9.934,0,0,0,1.19,2.869,1,1,0,0,1-.059,1.13L32.1,34.379l.382,1.144,1.144.382,3.039-2.324a1,1,0,0,1,1.13-.059,9.934,9.934,0,0,0,2.869,1.19,1,1,0,0,1,.757.84Z"/><path d="M43,32a7,7,0,1,1,7-7A7.008,7.008,0,0,1,43,32Zm0-12a5,5,0,1,0,5,5A5.006,5.006,0,0,0,43,20Z"/><path d="M10.293,19.707l-3-3a1,1,0,0,1,0-1.414l3-3,1.414,1.414L9.414,16l2.293,2.293Z"/><path d="M19.707,19.707l-1.414-1.414L20.586,16l-2.293-2.293,1.414-1.414,3,3a1,1,0,0,1,0,1.414Z"/><rect x="11.36" y="15.5" width="7.28" height="2" transform="matrix(0.275, -0.961, 0.961, 0.275, -4.988, 26.386)"/><rect x="57" y="6" width="2" height="2"/><rect x="53" y="6" width="2" height="2"/><rect x="26" y="41" width="2" height="2"/><rect x="22" y="41" width="2" height="2"/></g></svg>