<svg xmlns="http://www.w3.org/2000/svg" xmlns:xlink="http://www.w3.org/1999/xlink" viewBox="0 0 64 64"><defs><linearGradient id="linear-gradient" x1="32" y1="1.304" x2="32" y2="63.304" gradientUnits="userSpaceOnUse"><stop offset="0" stop-color="#ffe100"/><stop offset="1" stop-color="#f98900"/></linearGradient><linearGradient id="linear-gradient-2" x1="14" y1="41.001" x2="50" y2="41.001" gradientUnits="userSpaceOnUse"><stop offset="0" stop-color="#b8b4b2"/><stop offset="0.143" stop-color="#d0ccc9"/><stop offset="0.374" stop-color="#f2edea"/><stop offset="0.5" stop-color="#fffaf6"/><stop offset="0.638" stop-color="#f9f5f1"/><stop offset="0.825" stop-color="#e8e5e3"/><stop offset="1" stop-color="#d1d1d1"/></linearGradient><linearGradient id="linear-gradient-3" x1="32" y1="53.162" x2="32" y2="38.895" gradientUnits="userSpaceOnUse"><stop offset="0" stop-color="#69101b"/><stop offset="1" stop-color="#400a10"/></linearGradient><linearGradient id="linear-gradient-4" x1="32" y1="58.9" x2="32" y2="42.698" gradientUnits="userSpaceOnUse"><stop offset="0" stop-color="#d10415"/><stop offset="1" stop-color="#8f030e"/></linearGradient></defs><g id="_16-Face_with_Tongue" data-name="16-Face with Tongue"><path d="M32,63C4.3,63,.962,39,1,33V31C.962,25,4.3,1,32,1h0C59.7,1,63.038,25,63,31v2C63.038,39,59.7,63,32,63Z" style="fill:url(#linear-gradient)"/><path d="M48.806,37.034a.986.986,0,0,1,1.19,1.1,14.5,14.5,0,0,1-.43,2.46A34.766,34.766,0,0,1,32,45a34.766,34.766,0,0,1-17.566-4.409,14.5,14.5,0,0,1-.43-2.46.986.986,0,0,1,1.19-1.1A63.8,63.8,0,0,0,32,39.4,63.8,63.8,0,0,0,48.806,37.034Z" style="fill:url(#linear-gradient-2)"/><path d="M49.084,42.148A14.847,14.847,0,0,0,50,38.126a.98.98,0,0,0-1.19-1.092A64.117,64.117,0,0,1,32,39.4a64.117,64.117,0,0,1-16.806-2.363A.98.98,0,0,0,14,38.126a14.847,14.847,0,0,0,.912,4.022,15.616,15.616,0,0,0,5.093,6.711A18.8,18.8,0,0,0,32,53a18.8,18.8,0,0,0,11.991-4.141A15.616,15.616,0,0,0,49.084,42.148Z" style="fill:url(#linear-gradient-3)"/><path d="M35,42a22.052,22.052,0,0,1,3.293.274A1.946,1.946,0,0,1,39.581,45.4h0A6.186,6.186,0,0,0,38,49v4a5.9,5.9,0,0,1-6.194,6A5.821,5.821,0,0,1,26,53V49a6.186,6.186,0,0,0-1.581-3.6h0a1.946,1.946,0,0,1,1.288-3.126A22.052,22.052,0,0,1,29,42Z" style="fill:url(#linear-gradient-4)"/><path d="M31.806,59A5.821,5.821,0,0,1,26,53v1.294c0,3.672,2.348,6.593,5.806,6.7,3.578.114,6.194-2.931,6.194-6.7V53A5.9,5.9,0,0,1,31.806,59Z" style="fill:#e87400"/><path d="M55.045,10c.592.649,1.141,1.318,1.651,2" style="fill:none;stroke:#1d1d1b;stroke-linejoin:round;stroke-width:2px"/><path d="M8.09,53C2.05,45.666.977,36.416,1,33V31C.96,25,4.3,1,32,1c9.68,0,16.385,2.931,21.011,7" style="fill:none;stroke:#1d1d1b;stroke-linejoin:round;stroke-width:2px"/><path d="M58.061,14A34.4,34.4,0,0,1,63,30.89V33c.04,6-3.3,30-31,30-10.393,0-17.357-3.379-22-7.918" style="fill:none;stroke:#1d1d1b;stroke-linejoin:round;stroke-width:2px"/><path d="M38,52.09a19.081,19.081,0,0,0,5.991-3.231,15.616,15.616,0,0,0,5.093-6.711A14.847,14.847,0,0,0,50,38.126a.98.98,0,0,0-1.19-1.092A64.117,64.117,0,0,1,32,39.4a64.117,64.117,0,0,1-16.806-2.363A.98.98,0,0,0,14,38.126a14.847,14.847,0,0,0,.912,4.022,15.616,15.616,0,0,0,5.093,6.711A19.081,19.081,0,0,0,26,52.09" style="fill:none;stroke:#1d1d1b;stroke-linejoin:round;stroke-width:2px"/><path d="M14,18s11,3,12,10c0,0-7-2-13-1" style="fill:none;stroke:#1d1d1b;stroke-linejoin:round;stroke-width:2px"/><path d="M50,18S39,21,38,28c0,0,7-2,13-1" style="fill:none;stroke:#1d1d1b;stroke-linejoin:round;stroke-width:2px"/><path d="M35,42a22.052,22.052,0,0,1,3.293.274A1.946,1.946,0,0,1,39.581,45.4h0A6.186,6.186,0,0,0,38,49v4a5.9,5.9,0,0,1-6.194,6A5.821,5.821,0,0,1,26,53V49a6.186,6.186,0,0,0-1.581-3.6h0a1.946,1.946,0,0,1,1.288-3.126A22.052,22.052,0,0,1,29,42Z" style="fill:none;stroke:#1d1d1b;stroke-linejoin:round;stroke-width:2px"/><line x1="32" y1="42" x2="32" y2="54" style="fill:none;stroke:#1d1d1b;stroke-linejoin:round;stroke-width:2px"/></g></svg>