<svg xmlns="http://www.w3.org/2000/svg" viewBox="0 0 64 64"><g id="_16-Mask" data-name="16-Mask"><ellipse cx="24.5" cy="28.5" rx="1.5" ry="2.5" style="fill:#5c514d"/><ellipse cx="39.5" cy="28.5" rx="1.5" ry="2.5" style="fill:#5c514d"/><path d="M50,19v6c0-9.94-8.06-19-18-19S14,15.06,14,25V19a18,18,0,1,1,36,0Z" style="fill:#5c514d"/><path d="M50,26v2a5.992,5.992,0,0,1-1.2,3.6L47,34h-.04c.03-.33.04-.66.04-1V27a16.5,16.5,0,0,0-4.4-11.32A14.5,14.5,0,0,0,32,11c-8.28,0-15,7.16-15,16v6c0,.34.01.67.04,1H17l-1.8-2.4A5.992,5.992,0,0,1,14,28V25c0-9.94,8.06-19,18-19s18,9.06,18,19Z" style="fill:#c25769"/><path d="M34,39l3,2s-2,3-5,3-5-3-5-3l3-2,2,1Z" style="fill:#cd8d6a"/><path d="M26,28.5c0-1.38-.67-2.5-1.5-2.5S23,27.12,23,28.5s.67,2.5,1.5,2.5S26,29.88,26,28.5ZM24,24a5,5,0,1,1-5,5A5,5,0,0,1,24,24Z" style="fill:#cd8d6a"/><path d="M41,28.5c0-1.38-.67-2.5-1.5-2.5S38,27.12,38,28.5s.67,2.5,1.5,2.5S41,29.88,41,28.5ZM40,24a5,5,0,1,1-5,5A5,5,0,0,1,40,24Z" style="fill:#cd8d6a"/><path d="M24,24a5,5,0,0,0-4.9,6A5,5,0,0,1,24,26c.107,0,.207.025.312.031A.934.934,0,0,1,24.5,26a.945.945,0,0,1,.375.088A5,5,0,0,1,28.9,30,5,5,0,0,0,24,24Z" style="fill:#b57d5e"/><path d="M39.125,26.088A.945.945,0,0,1,39.5,26a.934.934,0,0,1,.188.031c.1-.006.2-.031.312-.031a5,5,0,0,1,4.9,4,5,5,0,1,0-9.8,0A5,5,0,0,1,39.125,26.088Z" style="fill:#b57d5e"/><path d="M24,24a5,5,0,1,0,5,5A5,5,0,0,0,24,24Zm23,3v6c0,.34-.01.67-.04,1-.42,5.82-4.43,10.8-8.96,13.28A12.649,12.649,0,0,1,32,49a12.649,12.649,0,0,1-6-1.72C21.47,44.8,17.46,39.82,17.04,34c-.03-.33-.04-.66-.04-1V27c0-8.84,6.72-16,15-16a14.5,14.5,0,0,1,10.6,4.68A16.5,16.5,0,0,1,47,27Zm-2,2a5,5,0,1,0-5,5A5,5,0,0,0,45,29ZM37,41l-3-2-2,1-2-1-3,2s2,3,5,3S37,41,37,41Z" style="fill:#f8eae9"/><path d="M21.04,34c-.03-.33-.04-.66-.04-1v-.024a4.968,4.968,0,0,1,.143-8.071C22.021,17.759,27.31,12.112,34,11.159A14.052,14.052,0,0,0,32,11c-8.28,0-15,7.16-15,16v6c0,.34.01.67.04,1,.42,5.82,4.43,10.8,8.96,13.28A12.649,12.649,0,0,0,32,49a10.117,10.117,0,0,0,2-.213,14.075,14.075,0,0,1-4-1.507C25.47,44.8,21.46,39.82,21.04,34Z" style="fill:#ebdddc"/><path d="M55.97,58.9l2.1.46A3.709,3.709,0,0,1,61,63H3a3.724,3.724,0,0,1,2.93-3.64l2.1-.46,14.82-3.22A3.982,3.982,0,0,0,26,51.78v-4.5A12.649,12.649,0,0,0,32,49a12.649,12.649,0,0,0,6-1.72v4.5a3.982,3.982,0,0,0,3.15,3.9Z" style="fill:#cd8d6a"/><path d="M15.5,27A1.5,1.5,0,0,1,14,25.5V28a5.992,5.992,0,0,0,1.2,3.6L17,34h.04c-.03-.33-.04-.66-.04-1V27c0-.5.028-1,.071-1.493L17,25.5A1.5,1.5,0,0,1,15.5,27Z" style="fill:#a14756"/><path d="M48.5,27A1.5,1.5,0,0,1,47,25.5l-.071,0C46.972,26,47,26.5,47,27v6c0,.34-.01.67-.04,1H47l1.8-2.4A5.992,5.992,0,0,0,50,28V25.5A1.5,1.5,0,0,1,48.5,27Z" style="fill:#a14756"/><path d="M42,9.5c0-.056-.014-.107-.016-.162a16.6,16.6,0,0,0-19.968,0c0,.055-.016.106-.016.162a3.5,3.5,0,0,0,2.846,3.434,14.2,14.2,0,0,1,14.308,0A3.5,3.5,0,0,0,42,9.5Z" style="fill:#e6677d"/><path d="M22,4.034A17.981,17.981,0,0,0,14,19v6A19.424,19.424,0,0,1,26.405,7H25A3,3,0,0,1,22,4.034Z" style="fill:#38312f"/><path d="M44.73,6.27A18.191,18.191,0,0,0,42,4.034,3,3,0,0,1,39,7H37.6A19.424,19.424,0,0,1,50,25V19A17.983,17.983,0,0,0,44.73,6.27Z" style="fill:#38312f"/><path d="M38,47.28A12.649,12.649,0,0,1,32,49a12.649,12.649,0,0,1-6-1.72v4.5a3.981,3.981,0,0,1-.288,1.467L38,50.455Z" style="fill:#b57d5e"/><path d="M58.281,58.385,41.362,54.707A3.015,3.015,0,0,1,39,51.776V47.862a19.2,19.2,0,0,0,3.664-2.837,17.279,17.279,0,0,0,5.258-10.588L49.6,32.2A7.04,7.04,0,0,0,51,28V19a19,19,0,0,0-38,0v9a7.04,7.04,0,0,0,1.4,4.2l1.678,2.237a17.279,17.279,0,0,0,5.258,10.588A19.2,19.2,0,0,0,25,47.862v3.914a3.014,3.014,0,0,1-2.363,2.931L5.719,58.385A4.75,4.75,0,0,0,2,63a1,1,0,0,0,1,1H61a1,1,0,0,0,1-1A4.75,4.75,0,0,0,58.281,58.385ZM15,26V25a18.7,18.7,0,0,1,4.807-12.331L18.32,11.331a20.779,20.779,0,0,0-2.99,4.353,17,17,0,0,1,33.3-.185A19.124,19.124,0,0,0,32,5,17.957,17.957,0,0,0,20.357,9.362l1.286,1.531A15.987,15.987,0,0,1,32,7c9.056,0,17,8.411,17,18v3a5.028,5.028,0,0,1-1,3V27c0-9.374-7.178-17-16-17S16,17.626,16,27v4a5.028,5.028,0,0,1-1-3Zm3,7V27c0-8.271,6.28-15,14-15s14,6.729,14,15v6c0,8.078-7.7,15-14,15S18,41.078,18,33ZM4.193,62a2.733,2.733,0,0,1,1.952-1.66l16.917-3.678A5.029,5.029,0,0,0,27,51.776v-2.9A12.872,12.872,0,0,0,32,50a12.872,12.872,0,0,0,5-1.125v2.9a5.029,5.029,0,0,0,3.937,4.886L57.855,60.34A2.733,2.733,0,0,1,59.807,62Z"/><path d="M37.832,41.555a1,1,0,0,0-.277-1.387l-3-2a1,1,0,0,0-1-.063L32,38.882,30.447,38.1a1,1,0,0,0-1,.063l-3,2a1,1,0,0,0-.277,1.387C26.262,41.7,28.505,45,32,45S37.738,41.7,37.832,41.555Zm-7.76-1.4,1.481.741a1,1,0,0,0,.894,0l1.481-.741,1.6,1.064A5.156,5.156,0,0,1,32,43a5.156,5.156,0,0,1-3.523-1.782Z"/><path d="M40,23a6,6,0,1,0,6,6A6.006,6.006,0,0,0,40,23Zm0,5.5a2.073,2.073,0,0,1-.479,1.5A1.853,1.853,0,0,1,39,28.5a2.073,2.073,0,0,1,.479-1.5A1.853,1.853,0,0,1,40,28.5ZM40,33a4,4,0,0,1-1.562-7.682A3.682,3.682,0,0,0,37,28.5c0,2,1.075,3.5,2.5,3.5S42,30.5,42,28.5c0-1.891-.97-3.325-2.284-3.471.1-.007.187-.029.284-.029a4,4,0,0,1,0,8Z"/><path d="M24,35a6,6,0,1,0-6-6A6.006,6.006,0,0,0,24,35Zm1-6.5a2.073,2.073,0,0,1-.479,1.5A1.853,1.853,0,0,1,24,28.5a2.073,2.073,0,0,1,.479-1.5A1.853,1.853,0,0,1,25,28.5ZM24,25c.1,0,.188.022.284.029C22.97,25.175,22,26.609,22,28.5c0,2,1.075,3.5,2.5,3.5S27,30.5,27,28.5a3.682,3.682,0,0,0-1.438-3.182A4,4,0,1,1,24,25Z"/></g></svg>