<svg xmlns="http://www.w3.org/2000/svg" viewBox="0 0 64 64"><title>16-Mudra</title><g id="_16-Mudra" data-name="16-Mudra"><path d="M52,34h1.42a21.995,21.995,0,0,1-42.84,0H12l5,5H47Z" style="fill:#dce1eb"/><path d="M12,38l5,5H47l5-5h.059a21.717,21.717,0,0,0,1.361-4H52l-5,5H17l-5-5H10.58a21.717,21.717,0,0,0,1.361,4Z" style="fill:#cdd2e1"/><path d="M32,25a3,3,0,0,0,3,3h6a3,3,0,0,1,0,6H23a3,3,0,0,1,0-6h6a3,3,0,0,0,3-3Z" style="fill:#dce1eb"/><path d="M23,32h6a3,3,0,0,0,3-3,3,3,0,0,0,3,3h6a3.418,3.418,0,0,1,2.324,1A2.894,2.894,0,0,0,44,31a2.938,2.938,0,0,0-3-3H35a3,3,0,0,1-3-3,3,3,0,0,1-3,3H23a2.938,2.938,0,0,0-3,3,2.894,2.894,0,0,0,.676,2A3.418,3.418,0,0,1,23,32Z" style="fill:#cdd2e1"/><path d="M53.42,24H50l-2-2H35a3,3,0,0,0-3,3,3,3,0,0,0-3-3H16l-2,2H10.58a21.995,21.995,0,0,1,42.84,0Z" style="fill:#dce1eb"/><path d="M34.5,34a2.5,2.5,0,1,1,0,5H17l-5-5H10.58a21.842,21.842,0,0,1,0-10H14l2-2H29a3,3,0,0,1,0,6H23a3,3,0,0,0,0,6H34.5Z" style="fill:#ffdecf"/><path d="M29,25H23a2.938,2.938,0,0,0-3,3,3.166,3.166,0,0,0,.338,1.5A3.2,3.2,0,0,1,23,28h6a2.983,2.983,0,0,0,2.584-4.5,3.033,3.033,0,0,1-.464.623A2.993,2.993,0,0,1,29,25Z" style="fill:#ffcdbe"/><path d="M36.27,35.27A2.5,2.5,0,0,1,34.5,36H17l-5-5H10.58a21.476,21.476,0,0,1-.524-3.5C10.022,28,10,28.5,10,29a21.654,21.654,0,0,0,.58,5H12l5,5H34.5a2.489,2.489,0,0,0,1.99-4A2.357,2.357,0,0,1,36.27,35.27Z" style="fill:#ffcdbe"/><path d="M37,36.5A2.5,2.5,0,0,0,34.5,34H41a3,3,0,0,0,0-6H35a3,3,0,0,1,0-6H48l2,2h3.42a21.842,21.842,0,0,1,0,10H52l-5,5H34.5A2.492,2.492,0,0,0,37,36.5Z" style="fill:#ffdecf"/><path d="M34.5,34a2.487,2.487,0,0,1,1.99,1,2.491,2.491,0,0,0,.46-1Z" style="fill:#ffcdbe"/><path d="M41,28a3.2,3.2,0,0,1,2.662,1.5A3.166,3.166,0,0,0,44,28a2.938,2.938,0,0,0-3-3H35a2.984,2.984,0,0,1-2.584-1.5A2.961,2.961,0,0,0,32,25a3,3,0,0,0,3,3Z" style="fill:#ffcdbe"/><path d="M53.42,31H52l-5,5H36.95a2.577,2.577,0,0,1,.05.5A2.492,2.492,0,0,1,34.5,39H47l5-5h1.42A21.654,21.654,0,0,0,54,29c0-.5-.022-1-.056-1.5A21.476,21.476,0,0,1,53.42,31Z" style="fill:#ffcdbe"/><path d="M40,36.5A2.5,2.5,0,0,0,37.5,34h-3a2.5,2.5,0,1,1,0,5h3A2.492,2.492,0,0,0,40,36.5Z" style="fill:#ffbeaa"/><path d="M53.42,24a21.995,21.995,0,0,0-42.84,0,21.842,21.842,0,0,0,0,10,21.995,21.995,0,0,0,42.84,0,21.842,21.842,0,0,0,0-10ZM60,29A28,28,0,0,1,38.85,56.15L32,63l-6.85-6.85A28,28,0,1,1,60,29Z" style="fill:#b674f2"/><path d="M54.4,23.775a23,23,0,0,0-44.788-.006A23,23,0,0,0,32,52,22.986,22.986,0,0,0,54.4,23.775ZM32,8A20.856,20.856,0,0,1,52.107,23H50.414l-1.707-1.707A1,1,0,0,0,48,21H35a3.975,3.975,0,0,0-2.827,1.173c-.065.065-.113.141-.173.21A3.973,3.973,0,0,0,29,21H16a1,1,0,0,0-.707.293L13.586,23H11.893A20.854,20.854,0,0,1,32,8ZM53,29a20.818,20.818,0,0,1-.394,4H52a1,1,0,0,0-.707.293L46.586,38H37.648A3.514,3.514,0,0,0,38,36.5a3.464,3.464,0,0,0-.351-1.5H41a4,4,0,0,0,0-8H35a2,2,0,0,1,0-4H47.586l1.707,1.707A1,1,0,0,0,50,25h2.606A20.818,20.818,0,0,1,53,29ZM11.394,33a20.476,20.476,0,0,1,0-8H14a1,1,0,0,0,.707-.293L16.414,23H29a2,2,0,0,1,0,4H23a4,4,0,0,0,0,8H34.5a1.5,1.5,0,1,1,0,3H17.414l-4.707-4.707A1,1,0,0,0,12,33ZM35,29h6a2,2,0,0,1,0,4H23a2,2,0,0,1,0-4h6a3.975,3.975,0,0,0,2.827-1.173c.065-.065.113-.141.173-.21A3.973,3.973,0,0,0,35,29ZM32,50A20.864,20.864,0,0,1,12.01,35.424l4.283,4.283A1,1,0,0,0,17,40H47a1,1,0,0,0,.707-.293l4.283-4.283A20.864,20.864,0,0,1,32,50Z"/><path d="M32,0a29,29,0,0,0-7.363,57.051l6.656,6.656a1,1,0,0,0,1.414,0l6.656-6.656A29,29,0,0,0,32,0Zm6.606,55.181a1,1,0,0,0-.463.262L32,61.586l-6.143-6.143a1,1,0,0,0-.463-.262,27,27,0,1,1,13.212,0Z"/></g></svg>