<svg xmlns="http://www.w3.org/2000/svg" viewBox="0 0 64 64"><g id="Layer_16" data-name="Layer 16"><path d="M21,18c2.948.571,7.336,4.468,12,9V23q-6-6-12-8Z" style="fill:#b26049"/><path d="M45,31c-2.948.571-7.336,4.468-12,9V36q6-6,12-8Z" style="fill:#c67a60"/><path d="M19,28c2.948.571,7.336,4.468,12,9V33q-6-6-12-8Z" style="fill:#c67a60"/><path d="M27.029,33.275C28.311,34.42,29.643,35.681,31,37V33a43.136,43.136,0,0,0-3.824-3.4Z" style="fill:#b26049"/><path d="M36.971,36.275C35.689,37.42,34.357,38.681,33,40V36a43.136,43.136,0,0,1,3.824-3.4Z" style="fill:#b26049"/><path d="M25.812,14.986A2.937,2.937,0,0,0,26,14a2.99,2.99,0,0,0-4.116-2.78A2.993,2.993,0,0,0,16,12a3,3,0,0,0-3,3,2.963,2.963,0,0,0,.092.7A2.988,2.988,0,0,0,15,21c.061,0,.118-.014.178-.018a2.984,2.984,0,0,0,5.628.051,2.989,2.989,0,0,0,4.78-3.536,2.879,2.879,0,0,0,.226-2.511Z" style="fill:#85b27c"/><path d="M21,20a2.99,2.99,0,0,1-2.822-2.018c-.06,0-.117.018-.178.018a2.988,2.988,0,0,1-1.908-5.3A2.963,2.963,0,0,1,16,12a3,3,0,0,0-3,3,2.963,2.963,0,0,0,.092.7A2.988,2.988,0,0,0,15,21c.061,0,.118-.014.178-.018a2.984,2.984,0,0,0,5.628.051A2.992,2.992,0,0,0,26,19a2.939,2.939,0,0,1-.97-.163,2.059,2.059,0,0,0-2.057.415A2.964,2.964,0,0,1,21,20Z" style="fill:#699b5d"/><path d="M38.188,16.986A2.937,2.937,0,0,1,38,16a2.99,2.99,0,0,1,4.116-2.78A2.993,2.993,0,0,1,48,14a3,3,0,0,1,3,3,2.963,2.963,0,0,1-.092.7A2.988,2.988,0,0,1,49,23c-.061,0-.118-.014-.178-.018a2.984,2.984,0,0,1-5.628.051,2.989,2.989,0,0,1-4.78-3.536,2.879,2.879,0,0,1-.226-2.511Z" style="fill:#85b27c"/><path d="M49,22a2.992,2.992,0,0,1-2.806-1.967,2.989,2.989,0,0,1-4.78-3.536,2.879,2.879,0,0,1-.226-2.511A2.937,2.937,0,0,1,41,13a3,3,0,0,0-3,3,2.937,2.937,0,0,0,.188.986,2.879,2.879,0,0,0,.226,2.511A2.964,2.964,0,0,0,38,21a2.992,2.992,0,0,0,5.194,2.033,2.984,2.984,0,0,0,5.628-.051c.06,0,.117.018.178.018a3,3,0,0,0,3-3c-.061,0-.118-.014-.178-.018A2.99,2.99,0,0,1,49,22Z" style="fill:#699b5d"/><path d="M24.812,24.986A2.937,2.937,0,0,0,25,24a2.99,2.99,0,0,0-4.116-2.78A2.993,2.993,0,0,0,15,22a3,3,0,0,0-3,3,2.963,2.963,0,0,0,.092.7A2.988,2.988,0,0,0,14,31c.061,0,.118-.014.178-.018a2.984,2.984,0,0,0,5.628.051,2.989,2.989,0,0,0,4.78-3.536,2.879,2.879,0,0,0,.226-2.511Z" style="fill:#629955"/><path d="M22,19a2.984,2.984,0,0,0-1.116.22A2.993,2.993,0,0,0,15,20a2.984,2.984,0,0,0-1.655.5A2.984,2.984,0,0,0,15,21c.061,0,.118-.014.178-.018a2.984,2.984,0,0,0,5.628.051,2.958,2.958,0,0,0,4.1.264A2.994,2.994,0,0,0,22,19Z" style="fill:#629955"/><path d="M20,30a2.99,2.99,0,0,1-2.822-2.018c-.06,0-.117.018-.178.018a2.988,2.988,0,0,1-1.908-5.3A2.963,2.963,0,0,1,15,22a3,3,0,0,0-3,3,2.963,2.963,0,0,0,.092.7A2.988,2.988,0,0,0,14,31c.061,0,.118-.014.178-.018a2.984,2.984,0,0,0,5.628.051A2.992,2.992,0,0,0,25,29a2.982,2.982,0,0,1-2.194-.967A2.992,2.992,0,0,1,20,30Z" style="fill:#508c3f"/><path d="M39.188,26.986A2.937,2.937,0,0,1,39,26a2.99,2.99,0,0,1,4.116-2.78A2.993,2.993,0,0,1,49,24a3,3,0,0,1,3,3,2.963,2.963,0,0,1-.092.7A2.988,2.988,0,0,1,50,33c-.061,0-.118-.014-.178-.018a2.984,2.984,0,0,1-5.628.051,2.989,2.989,0,0,1-4.78-3.536,2.879,2.879,0,0,1-.226-2.511Z" style="fill:#629955"/><path d="M49,22a2.993,2.993,0,0,0-5.884-.78A2.98,2.98,0,0,0,39.092,23.3a2.958,2.958,0,0,0,4.1-.264,2.984,2.984,0,0,0,5.628-.051c.06,0,.117.018.178.018a2.984,2.984,0,0,0,1.655-.5A2.984,2.984,0,0,0,49,22Z" style="fill:#629955"/><path d="M50,32a2.992,2.992,0,0,1-2.806-1.967,2.989,2.989,0,0,1-4.78-3.536,2.879,2.879,0,0,1-.226-2.511A2.937,2.937,0,0,1,42,23a3,3,0,0,0-3,3,2.937,2.937,0,0,0,.188.986,2.879,2.879,0,0,0,.226,2.511A2.964,2.964,0,0,0,39,31a2.992,2.992,0,0,0,5.194,2.033,2.984,2.984,0,0,0,5.628-.051c.06,0,.117.018.178.018a3,3,0,0,0,3-3c-.061,0-.118-.014-.178-.018A2.99,2.99,0,0,1,50,32Z" style="fill:#508c3f"/><polygon points="39 63 34 61 32 63 30 61 25 63 28 59 30 9 34 9 36 59 39 63" style="fill:#c67a60"/><path d="M34,59l-1-1-.358.143A1.4,1.4,0,0,1,31,56h0L32.88,9H30L28,59l-3,4,5-2,2,2,2-2,5,2-3-4h0A1.415,1.415,0,0,1,34,59Z" style="fill:#b26049"/><path d="M38.908,7.7A2.963,2.963,0,0,0,39,7a3,3,0,0,0-3-3c-.047,0-.091.012-.137.014a3.984,3.984,0,0,0-7.5-.67A2.979,2.979,0,0,0,24.4,7.47a2.995,2.995,0,1,0,3.763,4.6,3.981,3.981,0,0,0,7.469.586A2.985,2.985,0,0,0,38.908,7.7Z" style="fill:#85b27c"/><path d="M34,5.8a1,1,0,0,1-.968-.753l-.074-.29A1,1,0,0,0,32,4a1,1,0,0,1,0-2,2.994,2.994,0,0,1,2.9,2.26l.074.291A1,1,0,0,1,34,5.8Z" style="fill:#fff"/><path d="M38.75,12.428a4.041,4.041,0,0,0-.764-.291c0-.046.014-.09.014-.137a3,3,0,0,0-6,0,3,3,0,0,0-2.771,1.856A3.934,3.934,0,0,0,32,15a3.994,3.994,0,0,0,3.632-2.344,2.932,2.932,0,0,0,3.118-.228Z" style="fill:#699b5d"/><path d="M23,11a2.908,2.908,0,0,0-.864.144A2.954,2.954,0,0,0,22,12a3,3,0,0,0,3,3,2.928,2.928,0,0,0,.847-.138A2.8,2.8,0,0,0,26,14,3,3,0,0,0,23,11Z" style="fill:#699b5d"/><path d="M35,13a3.957,3.957,0,0,1-3.041-1.421,1.985,1.985,0,0,0-2.083-.71A3,3,0,0,1,27.4,5.47,2.97,2.97,0,0,1,27,4a2.962,2.962,0,0,1,.177-.977C27.117,3.019,27.061,3,27,3a3,3,0,0,0-3,3,2.97,2.97,0,0,0,.4,1.47,2.995,2.995,0,1,0,3.763,4.6,3.972,3.972,0,0,0,7.3.9A4.133,4.133,0,0,1,35,13Z" style="fill:#699b5d"/><path d="M37.986,14.137c0-.046.014-.09.014-.137a3,3,0,0,0-6,0,3,3,0,1,0,1.368,5.656,3.994,3.994,0,1,0,4.618-5.519Z" style="fill:#629955"/><path d="M39.986,14.137c0-.046.014-.09.014-.137a2.953,2.953,0,0,0-.116-.78A3,3,0,0,0,38,16a2.937,2.937,0,0,0,.188.986,2.879,2.879,0,0,0,.226,2.511,2.859,2.859,0,0,0-.262,2.4,3.988,3.988,0,0,0,1.834-7.762Z" style="fill:#629955"/><path d="M40,20a3.967,3.967,0,0,1-2.967-1.329,1.941,1.941,0,0,0-1.667-.7,2.855,2.855,0,0,1-1.136-.082,3.042,3.042,0,0,1-2.2-2.479A3,3,0,0,1,35,12a2.962,2.962,0,0,1,.178-.982c-.06,0-.117-.018-.178-.018a3,3,0,0,0-3,3,3,3,0,0,0-2.972,3.415,3.042,3.042,0,0,0,2.2,2.479,2.889,2.889,0,0,0,2.138-.238,3.977,3.977,0,0,0,7.1.3A4.061,4.061,0,0,1,40,20Z" style="fill:#508c3f"/><path d="M33.973,21.187A1.905,1.905,0,0,0,34,20.924a2,2,0,0,0-4,0,2,2,0,1,0,1.5,3.31,1.993,1.993,0,1,0,2.473-3.047Z" style="fill:#629955"/><path d="M34.3,21.431a1.971,1.971,0,0,1-2.8-.2,1.971,1.971,0,0,1-2.81.19,1.992,1.992,0,1,0,2.81,2.81,1.988,1.988,0,1,0,2.8-2.8Z" style="fill:#508c3f"/><path d="M52.982,27.353c.012-.12.018-.237.018-.353a3.991,3.991,0,0,0-2.1-3.5,3.958,3.958,0,0,0,1.08-6.144c.012-.12.018-.237.018-.353a4.007,4.007,0,0,0-3.1-3.9,3.992,3.992,0,0,0-6.471-2.157,1,1,0,0,0,1.3,1.525A1.949,1.949,0,0,1,45,12a2,2,0,0,1,2,2,1,1,0,0,0,1,1,2,2,0,0,1,2,2,2.052,2.052,0,0,1-.063.468,1,1,0,0,0,.332,1,1.985,1.985,0,0,1-.842,3.48,3.981,3.981,0,0,0-6.9.084A3.871,3.871,0,0,0,42,22a4,4,0,0,0-4,4,3.657,3.657,0,0,0,.141.986A3.814,3.814,0,0,0,38,28a3.867,3.867,0,0,0,.3,1.5,3.9,3.9,0,0,0-.245.945c-.71.488-1.421,1.027-2.134,1.6l-.306-7.676A2.965,2.965,0,0,0,36,22.924c0-.008,0-.017,0-.025a5.063,5.063,0,0,0,1,.1,4.989,4.989,0,0,0,2.019-9.556A4,4,0,0,0,41,10a3.962,3.962,0,0,0-1.018-2.647C39.994,7.233,40,7.116,40,7a4.007,4.007,0,0,0-3.412-3.957,4.98,4.98,0,0,0-8.66-.929A3.84,3.84,0,0,0,27,2a4,4,0,0,0-4,4,3.827,3.827,0,0,0,.182,1.169,3.98,3.98,0,0,0,1.8,6.683c0,.05.02.1.02.148a1.984,1.984,0,0,1-.131.655,1.007,1.007,0,0,0,0,.67A1.882,1.882,0,0,1,24.721,17a1,1,0,0,0,0,1.005A1.969,1.969,0,0,1,25,19a1.991,1.991,0,0,1-.87,1.627A3.964,3.964,0,0,0,22,20a3.871,3.871,0,0,0-.528.036A3.991,3.991,0,0,0,14.1,21.1,4.007,4.007,0,0,0,11,25c0,.116.006.233.018.353A3.962,3.962,0,0,0,10,28a4.006,4.006,0,0,0,3.533,3.973,3.976,3.976,0,0,0,6.567.539,3.948,3.948,0,0,0,4.2-.253c1.064.867,2.261,1.921,3.637,3.206l-.927,23.184L24.2,62.4a1,1,0,0,0,1.171,1.529l4.388-1.755,1.534,1.533a1,1,0,0,0,1.414,0l1.534-1.533,4.388,1.755A1,1,0,0,0,39.8,62.4l-2.814-3.751-.811-20.292c1.642-1.529,3.039-2.735,4.253-3.68a3.962,3.962,0,0,0,3.472-.165,3.975,3.975,0,0,0,6.566-.539A4.006,4.006,0,0,0,54,30,3.962,3.962,0,0,0,52.982,27.353ZM28.2,29.123c-.813-.657-1.628-1.266-2.438-1.815a3.685,3.685,0,0,0,.1-2.322A3.638,3.638,0,0,0,26,24a3.943,3.943,0,0,0-.5-1.89c.1-.082.2-.17.289-.261.39.308.794.637,1.215.993,0,.028-.007.054-.007.082a3,3,0,0,0,1.343,2.5ZM27.8,20.9c-.331-.274-.651-.53-.963-.773a4.027,4.027,0,0,0,.149-.92c.508.354,1.016.727,1.524,1.126A3,3,0,0,0,27.8,20.9Zm.232-3.4q-.555-.384-1.107-.734A3.907,3.907,0,0,0,27,16a3.859,3.859,0,0,0-.14-1.014A3.638,3.638,0,0,0,27,14c0-.045-.008-.089-.009-.134a3.854,3.854,0,0,0,.753-.267,4.978,4.978,0,0,0,.97,1.147A3.959,3.959,0,0,0,28,17,4.127,4.127,0,0,0,28.031,17.5ZM30,23.924a1,1,0,0,1,0-2,1,1,0,0,0,1-1,1,1,0,1,1,1.989.08l-.007.049a1,1,0,0,0,.5,1.006.985.985,0,0,1,.517.865,1,1,0,0,1-1,1,.987.987,0,0,1-.747-.347,1,1,0,0,0-1.506,0A.987.987,0,0,1,30,23.924ZM40,18a3,3,0,0,1-3,3,2.959,2.959,0,0,1-2.111-.881,2.985,2.985,0,0,0-4.382-1.789A2,2,0,0,1,32,15a1,1,0,0,0,1-1,2,2,0,0,1,4-.065c-.005.033-.015.127-.016.16a1,1,0,0,0,.752,1.011A2.992,2.992,0,0,1,40,18ZM24,10a1.989,1.989,0,0,1,.936-1.685,1,1,0,0,0,.334-1.339A1.96,1.96,0,0,1,25,6a2,2,0,0,1,2.91-1.767,1,1,0,0,0,1.368-.474,2.985,2.985,0,0,1,5.617.5.986.986,0,0,0,1.011.752C35.96,5.01,36.013,5,36,5a2,2,0,0,1,2,2,2.052,2.052,0,0,1-.063.468,1,1,0,0,0,.332,1,1.978,1.978,0,0,1-.08,3.132A3.989,3.989,0,0,0,31.1,13.1a3.845,3.845,0,0,0-.846.313,3.045,3.045,0,0,1-1.13-1.614,1,1,0,0,0-1.686-.422A1.978,1.978,0,0,1,26,12,2,2,0,0,1,24,10ZM22,31a1.973,1.973,0,0,1-1.461-.647,1,1,0,0,0-1.672.335,1.984,1.984,0,0,1-3.745-.035,1,1,0,0,0-.944-.671c-.022,0-.043,0-.066,0S14.024,30,14,30a1.988,1.988,0,0,1-1.269-3.528,1,1,0,0,0,.332-1A2.052,2.052,0,0,1,13,25a2,2,0,0,1,2-2,1,1,0,0,0,1-1,1.994,1.994,0,0,1,3.92-.519,1,1,0,0,0,1.338.666,1.963,1.963,0,0,1,2.611,2.508,1.007,1.007,0,0,0,0,.67A1.882,1.882,0,0,1,23.721,27a1,1,0,0,0,0,1.005A1.969,1.969,0,0,1,24,29,2,2,0,0,1,22,31Zm3.591-.271a3.985,3.985,0,0,0,.308-.86c.731.549,1.465,1.143,2.2,1.781l-.048,1.2C27.156,32.043,26.343,31.343,25.591,30.729Zm8.78,29.342a1,1,0,0,0-1.078.222L32,61.586l-1.293-1.293a1,1,0,0,0-1.078-.222l-1.69.676L28.8,59.6a1,1,0,0,0,.2-.56l1.327-33.16a2.96,2.96,0,0,0,1.174-.364,2.912,2.912,0,0,0,2.173.326L35,59.04a1,1,0,0,0,.2.56l.861,1.147Zm1.652-25.519c.785-.681,1.572-1.3,2.358-1.875a3.94,3.94,0,0,0,.438.721c-.836.667-1.742,1.435-2.749,2.34ZM50.035,32l-.147-.016a.978.978,0,0,0-1.01.668,1.983,1.983,0,0,1-3.745.036,1,1,0,0,0-.742-.635,1.013,1.013,0,0,0-.2-.02,1,1,0,0,0-.733.32A1.973,1.973,0,0,1,42,33a2,2,0,0,1-2-2,1.969,1.969,0,0,1,.277-1,1,1,0,0,0,0-1.005A1.979,1.979,0,0,1,40,28a1.95,1.95,0,0,1,.129-.673,1,1,0,0,0,0-.675A1.949,1.949,0,0,1,40,26a1.991,1.991,0,0,1,2.742-1.853,1,1,0,0,0,1.338-.666A1.994,1.994,0,0,1,48,24a1,1,0,0,0,1,1,2,2,0,0,1,2,2,2.052,2.052,0,0,1-.063.468,1,1,0,0,0,.332,1A1.988,1.988,0,0,1,50.035,32Z"/><path d="M11.228,19.333a1,1,0,0,0,.943.668.987.987,0,0,0,.332-.057,1,1,0,0,0,.611-1.276,1.976,1.976,0,0,1,.617-2.2,1,1,0,0,0,.332-1A2.052,2.052,0,0,1,14,15a2,2,0,0,1,2-2,1,1,0,0,0,1-1,2,2,0,0,1,2-2,1.95,1.95,0,0,1,.663.114,1,1,0,0,0,.674-1.883A3.962,3.962,0,0,0,19,8a4.007,4.007,0,0,0-3.9,3.1A4.007,4.007,0,0,0,12,15c0,.116.006.233.018.353a3.969,3.969,0,0,0-.79,3.98Z"/></g></svg>