<svg xmlns="http://www.w3.org/2000/svg" viewBox="0 0 64 64"><g id="_17-Bar" data-name="17-Bar"><path d="M45,59a3.995,3.995,0,0,1,4,4H15a4,4,0,0,1,4-4Z" style="fill:#c1c1c1"/><polygon points="43 53 45 59 19 59 21 53 43 53" style="fill:#9c9c9c"/><path d="M63,11V51a2.006,2.006,0,0,1-2,2H3a2.006,2.006,0,0,1-2-2V11A2.006,2.006,0,0,1,3,9H61A2.006,2.006,0,0,1,63,11ZM59,45V15a2.006,2.006,0,0,0-2-2H7a2.006,2.006,0,0,0-2,2V45a2.006,2.006,0,0,0,2,2H57A2.006,2.006,0,0,0,59,45Z" style="fill:#e4e4e4"/><path d="M57,11H7a2.006,2.006,0,0,0-2,2v2a2.006,2.006,0,0,1,2-2H57a2.006,2.006,0,0,1,2,2V13A2.006,2.006,0,0,0,57,11Z" style="fill:#c1c1c1"/><path d="M61,51H3a2.006,2.006,0,0,1-2-2v2a2.006,2.006,0,0,0,2,2H61a2.006,2.006,0,0,0,2-2V49A2.006,2.006,0,0,1,61,51Z" style="fill:#c1c1c1"/><rect x="5" y="13" width="54" height="34" rx="2" style="fill:#80dbff"/><path d="M8,45V15a2.006,2.006,0,0,1,2-2H7a2.006,2.006,0,0,0-2,2V45a2.006,2.006,0,0,0,2,2h3A2.006,2.006,0,0,1,8,45Z" style="fill:#19cffc"/><path d="M56,45V15a2.006,2.006,0,0,0-2-2h3a2.006,2.006,0,0,1,2,2V45a2.006,2.006,0,0,1-2,2H54A2.006,2.006,0,0,0,56,45Z" style="fill:#19cffc"/><polygon points="43 53 21 53 20.333 55 43.667 55 43 53" style="fill:#848484"/><rect x="40" y="33" width="10" height="10" style="fill:#ff636e"/><rect x="40" y="33" width="5" height="10" style="fill:#ff475a"/><rect x="27" y="30" width="10" height="13" style="fill:#ffac5a"/><rect x="27" y="30" width="5" height="13" style="fill:#fc9942"/><rect x="14" y="27" width="10" height="16" style="fill:#64e1dc"/><rect x="14" y="27" width="5" height="16" style="fill:#00c8c8"/><path d="M14,12H24s0,5-5,5S14,12,14,12Z" style="fill:#ff7d81"/><path d="M23.375,14.5A6.228,6.228,0,0,0,24,12H19A4.5,4.5,0,0,1,23.375,14.5Z" style="fill:#ff636e"/><path d="M19,12H14a6.228,6.228,0,0,0,.625,2.5A4.5,4.5,0,0,1,19,12Z" style="fill:#ff636e"/><path d="M29,11a10,10,0,0,1-7.3,9.62L19,24l-2.7-3.38A10,10,0,1,1,29,11Zm-5,1H14s0,5,5,5S24,12,24,12Z" style="fill:#ffc170"/><path d="M21.7,18.62,19,22l-2.7-3.38A10,10,0,0,1,9.052,9.977,10.169,10.169,0,0,0,9,11a10,10,0,0,0,7.3,9.62L19,24l2.7-3.38A10,10,0,0,0,29,11a10.169,10.169,0,0,0-.052-1.023A10,10,0,0,1,21.7,18.62Z" style="fill:#ffac5a"/><path d="M55,11a10,10,0,0,1-7.3,9.62L45,24l-2.7-3.38A10,10,0,1,1,55,11Z" style="fill:#ff636e"/><path d="M47.7,18.62,45,22l-2.7-3.38a10,10,0,0,1-7.248-8.643A10.169,10.169,0,0,0,35,11a10,10,0,0,0,7.3,9.62L45,24l2.7-3.38A10,10,0,0,0,55,11a10.169,10.169,0,0,0-.052-1.023A10,10,0,0,1,47.7,18.62Z" style="fill:#ff475a"/><rect x="8" y="42" width="2" height="2" style="fill:#6e6e6e"/><rect x="12" y="42" width="44" height="2" style="fill:#6e6e6e"/><rect x="15" y="7" width="2" height="2" style="fill:#595959"/><rect x="21" y="7" width="2" height="2" style="fill:#595959"/><path d="M49,17a3.851,3.851,0,0,0-4-4c-3.954,0-4,3.837-4,4H39a6,6,0,0,1,12,0H50Z" style="fill:#ffb0b0"/><rect x="41" y="7" width="2" height="2" style="fill:#595959"/><rect x="47" y="7" width="2" height="2" style="fill:#595959"/><path d="M61,8H55.574A10.988,10.988,0,0,0,34.426,8H29.574A10.988,10.988,0,0,0,8.426,8H3a3,3,0,0,0-3,3V51a3,3,0,0,0,3,3H19.613l-1.358,4.075A4.994,4.994,0,0,0,14,63a1,1,0,0,0,1,1H49a1,1,0,0,0,1-1,4.994,4.994,0,0,0-4.255-4.925L44.387,54H61a3,3,0,0,0,3-3V11A3,3,0,0,0,61,8ZM45,2a9,9,0,0,1,2.434,17.657,1,1,0,0,0-.511.338L45,22.4,43.077,20a1,1,0,0,0-.511-.338A9,9,0,0,1,45,2ZM34.051,10c-.03.33-.051.662-.051,1s.019.669.05,1h-4.1c.031-.331.05-.664.05-1s-.021-.67-.051-1ZM19,2a9,9,0,0,1,2.434,17.657,1,1,0,0,0-.511.338L19,22.4,17.077,20a1,1,0,0,0-.511-.338A9,9,0,0,1,19,2ZM47.829,62H16.171A3.006,3.006,0,0,1,19,60H45A3.006,3.006,0,0,1,47.829,62Zm-4.217-4H20.388l1.333-4H42.279ZM62,51a1,1,0,0,1-1,1H3a1,1,0,0,1-1-1V11a1,1,0,0,1,1-1H8.051c-.03.33-.051.662-.051,1a11.033,11.033,0,0,0,7.711,10.489l2.508,3.136a1,1,0,0,0,1.562,0l2.508-3.136A11.039,11.039,0,0,0,29.57,14h4.86a11.039,11.039,0,0,0,7.281,7.489l2.508,3.136a1,1,0,0,0,1.562,0l2.508-3.136A11.033,11.033,0,0,0,56,11c0-.338-.021-.67-.051-1H61a1,1,0,0,1,1,1Z"/><path d="M57,12v2a1,1,0,0,1,1,1V45a1,1,0,0,1-1,1H7a1,1,0,0,1-1-1V15a1,1,0,0,1,1-1V12a3,3,0,0,0-3,3V45a3,3,0,0,0,3,3H57a3,3,0,0,0,3-3V15A3,3,0,0,0,57,12Z"/><rect x="8" y="42" width="2" height="2"/><path d="M24,44H56V42H51V33a1,1,0,0,0-1-1H40a1,1,0,0,0-1,1v9H38V30a1,1,0,0,0-1-1H27a1,1,0,0,0-1,1V42H25V27a1,1,0,0,0-1-1H14a1,1,0,0,0-1,1V42H12v2H24ZM41,34h8v8H41ZM28,31h8V42H28ZM15,28h8V42H15Z"/><path d="M19,18a5.785,5.785,0,0,0,6-6,1,1,0,0,0-1-1H14a1,1,0,0,0-1,1A5.785,5.785,0,0,0,19,18Zm3.869-5A3.657,3.657,0,0,1,19,16a3.643,3.643,0,0,1-3.873-3Z"/><rect x="15" y="7" width="2" height="2"/><rect x="21" y="7" width="2" height="2"/><path d="M45,13a3.851,3.851,0,0,1,4,4l1,0h1a6,6,0,0,0-12,0h2C41,16.837,41.046,13,45,13Z"/><rect x="41" y="7" width="2" height="2"/><rect x="47" y="7" width="2" height="2"/></g></svg>