<svg xmlns="http://www.w3.org/2000/svg" viewBox="0 0 64 64"><title>17-Coding</title><g id="_17-Coding" data-name="17-Coding"><g id="_Group_" data-name="&lt;Group&gt;"><path d="M61,51H3a3,3,0,0,1-3-3V4A3,3,0,0,1,3,1H61a3,3,0,0,1,3,3V48A3,3,0,0,1,61,51ZM3,3A1,1,0,0,0,2,4V48a1,1,0,0,0,1,1H61a1,1,0,0,0,1-1V4a1,1,0,0,0-1-1Z"/><path d="M45,63H19a1,1,0,0,1-1-1V59a1,1,0,0,1,.126-.486l5-9,1.748.972L20,59.259V61H44V59.259l-4.874-8.773,1.748-.972,5,9A1,1,0,0,1,46,59v3A1,1,0,0,1,45,63Z"/><rect x="19" y="58" width="26" height="2"/><rect x="16" y="61" width="3" height="2"/><rect x="45" y="61" width="3" height="2"/><rect x="1" y="41" width="62" height="2"/></g><path d="M16,34a8.009,8.009,0,0,1-8-8V18a8,8,0,0,1,16,0H22a6,6,0,0,0-12,0v8a6,6,0,0,0,12,0h2A8.009,8.009,0,0,1,16,34Z"/><rect x="29" y="18" width="2" height="8"/><rect x="26" y="21" width="8" height="2"/><rect x="40" y="18" width="2" height="8"/><rect x="37" y="21" width="8" height="2"/><rect x="38" y="36" width="21" height="2"/><rect x="38" y="32" width="21" height="2"/><rect x="38" y="10" width="21" height="2"/><rect x="38" y="6" width="21" height="2"/><rect x="54" y="28" width="5" height="2"/><rect x="47" y="28" width="5" height="2"/><rect x="54" y="14" width="5" height="2"/><rect x="47" y="14" width="5" height="2"/></g></svg>