<svg xmlns="http://www.w3.org/2000/svg" viewBox="0 0 64 64"><g id="_17-Lighten_dark_circles" data-name="17-Lighten dark circles"><path d="M47,27v6c0,.34-.01.67-.04,1-.42,5.82-4.43,10.8-8.96,13.28A12.649,12.649,0,0,1,32,49a12.649,12.649,0,0,1-6-1.72C21.47,44.8,17.46,39.82,17.04,34c-.03-.33-.04-.66-.04-1V27c0-8.84,6.72-16,15-16a14.5,14.5,0,0,1,10.6,4.68A16.5,16.5,0,0,1,47,27Z" style="fill:#cd8d6a"/><path d="M50,19v6c0-9.94-8.06-19-18-19S14,15.06,14,25V19a18,18,0,1,1,36,0Z" style="fill:#5c514d"/><path d="M50,26v2a5.992,5.992,0,0,1-1.2,3.6L47,34h-.04c.03-.33.04-.66.04-1V27a16.5,16.5,0,0,0-4.4-11.32A14.5,14.5,0,0,0,32,11c-8.28,0-15,7.16-15,16v6c0,.34.01.67.04,1H17l-1.8-2.4A5.992,5.992,0,0,1,14,28V25c0-9.94,8.06-19,18-19s18,9.06,18,19Z" style="fill:#c25769"/><path d="M55.97,58.9l2.1.46A3.709,3.709,0,0,1,61,63H3a3.724,3.724,0,0,1,2.93-3.64l2.1-.46,14.82-3.22A3.982,3.982,0,0,0,26,51.78v-4.5A12.649,12.649,0,0,0,32,49a12.649,12.649,0,0,0,6-1.72v4.5a3.982,3.982,0,0,0,3.15,3.9Z" style="fill:#cd8d6a"/><path d="M15.5,27A1.5,1.5,0,0,1,14,25.5V28a5.992,5.992,0,0,0,1.2,3.6L17,34h.04c-.03-.33-.04-.66-.04-1V27c0-.5.028-1,.071-1.493L17,25.5A1.5,1.5,0,0,1,15.5,27Z" style="fill:#a14756"/><path d="M48.5,27A1.5,1.5,0,0,1,47,25.5l-.071,0C46.972,26,47,26.5,47,27v6c0,.34-.01.67-.04,1H47l1.8-2.4A5.992,5.992,0,0,0,50,28V25.5A1.5,1.5,0,0,1,48.5,27Z" style="fill:#a14756"/><path d="M42,9.5c0-.056-.014-.107-.016-.162a16.6,16.6,0,0,0-19.968,0c0,.055-.016.106-.016.162a3.5,3.5,0,0,0,2.846,3.434,14.2,14.2,0,0,1,14.308,0A3.5,3.5,0,0,0,42,9.5Z" style="fill:#e6677d"/><path d="M22,4.034A17.981,17.981,0,0,0,14,19v6A19.424,19.424,0,0,1,26.405,7H25A3,3,0,0,1,22,4.034Z" style="fill:#38312f"/><path d="M38,47.28A12.649,12.649,0,0,1,32,49a12.649,12.649,0,0,1-6-1.72v4.5a3.981,3.981,0,0,1-.288,1.467L38,50.455Z" style="fill:#b57d5e"/><path d="M44.73,6.27A18.191,18.191,0,0,0,42,4.034,3,3,0,0,1,39,7H37.6A19.424,19.424,0,0,1,50,25V19A17.983,17.983,0,0,0,44.73,6.27Z" style="fill:#38312f"/><path d="M37,41l-3-2-2,1-2-1-3,2s2,3,5,3S37,41,37,41Z" style="fill:#c25769"/><path d="M30.805,27.994l-.792,6.62a1.974,1.974,0,0,0,1.177,2.01L32,37l.81-.376a1.974,1.974,0,0,0,1.177-2.01l-.792-6.62A1.174,1.174,0,0,0,32,27h0A1.174,1.174,0,0,0,30.805,27.994Z" style="fill:#b57d5e"/><path d="M21.04,34c-.03-.33-.04-.66-.04-1V27c0-8.114,5.667-14.8,13-15.841A14.052,14.052,0,0,0,32,11c-8.28,0-15,7.16-15,16v6c0,.34.01.67.04,1,.42,5.82,4.43,10.8,8.96,13.28A12.649,12.649,0,0,0,32,49a10.117,10.117,0,0,0,2-.213,14.075,14.075,0,0,1-4-1.507C25.47,44.8,21.46,39.82,21.04,34Z" style="fill:#b57d5e"/><path d="M35.422,30.889a1.837,1.837,0,0,1,2.205-.779,7.279,7.279,0,0,0,2.506.419,7.674,7.674,0,0,0,1.692-.181A1.748,1.748,0,0,1,44,31.937h0A1.569,1.569,0,0,1,42.946,33.4a11.794,11.794,0,0,1-4.1.6c-2.246,0-3.188-.781-3.582-1.435a1.393,1.393,0,0,1,.01-1.409Z" style="fill:#f8eae9"/><path d="M28.655,30.889a1.837,1.837,0,0,0-2.206-.779,7.274,7.274,0,0,1-2.506.419,7.672,7.672,0,0,1-1.691-.181,1.748,1.748,0,0,0-2.175,1.589h0A1.569,1.569,0,0,0,21.131,33.4a11.794,11.794,0,0,0,4.1.6c2.246,0,3.187-.781,3.582-1.435a1.393,1.393,0,0,0-.011-1.409Z" style="fill:#f8eae9"/><path d="M43,27c0,1.105-1.342,2-3,2s-3-.895-3-2a3.7,3.7,0,0,1,3-2A3.7,3.7,0,0,1,43,27Z" style="fill:#b57d5e"/><path d="M21,27c0,1.105,1.342,2,3,2s3-.895,3-2a3.7,3.7,0,0,0-3-2A3.7,3.7,0,0,0,21,27Z" style="fill:#b57d5e"/><path d="M27,41s2,3,5,3,5-3,5-3H27Z" style="fill:#a14756"/><path d="M58.281,58.385,41.362,54.707A3.015,3.015,0,0,1,39,51.776V47.862a19.2,19.2,0,0,0,3.664-2.837,17.279,17.279,0,0,0,5.258-10.588L49.6,32.2A7.04,7.04,0,0,0,51,28V19a19,19,0,0,0-38,0v9a7.04,7.04,0,0,0,1.4,4.2l1.678,2.237a17.279,17.279,0,0,0,5.258,10.588A19.2,19.2,0,0,0,25,47.862v3.914a3.014,3.014,0,0,1-2.363,2.931L5.719,58.385A4.75,4.75,0,0,0,2,63a1,1,0,0,0,1,1H61a1,1,0,0,0,1-1A4.75,4.75,0,0,0,58.281,58.385ZM15,26V25a18.711,18.711,0,0,1,4.747-12.264l-1.494-1.33a20.777,20.777,0,0,0-2.924,4.285A17,17,0,0,1,48.634,15.5,19.124,19.124,0,0,0,32,5,17.961,17.961,0,0,0,20.357,9.361l1.286,1.532A15.985,15.985,0,0,1,32,7c9.056,0,17,8.411,17,18v3a5.028,5.028,0,0,1-1,3V27c0-9.374-7.178-17-16-17S16,17.626,16,27v4a5.028,5.028,0,0,1-1-3Zm3,7V27c0-8.271,6.28-15,14-15s14,6.729,14,15v6c0,8.078-7.7,15-14,15S18,41.078,18,33ZM4.193,62a2.733,2.733,0,0,1,1.952-1.66l16.917-3.678A5.029,5.029,0,0,0,27,51.776v-2.9A12.872,12.872,0,0,0,32,50a12.872,12.872,0,0,0,5-1.125v2.9a5.029,5.029,0,0,0,3.937,4.886L57.855,60.34A2.733,2.733,0,0,1,59.807,62Z"/><path d="M37.832,41.555a1,1,0,0,0-.277-1.387l-3-2a1,1,0,0,0-1-.063L32,38.882,30.447,38.1a1,1,0,0,0-1,.063l-3,2a1,1,0,0,0-.277,1.387C26.262,41.7,28.505,45,32,45S37.738,41.7,37.832,41.555Zm-7.76-1.4,1.481.741a1,1,0,0,0,.894,0l1.481-.741,1.6,1.064A5.156,5.156,0,0,1,32,43a5.156,5.156,0,0,1-3.523-1.782Z"/><path d="M38.845,35a12.913,12.913,0,0,0,4.449-.668,2.537,2.537,0,0,0,.714-4.409,2.821,2.821,0,0,0-1.5-.59A2.771,2.771,0,0,0,44,27H42c0,.408-.779,1-2,1s-2-.592-2-1H36a2.617,2.617,0,0,0,1.017,2,2.793,2.793,0,0,0-2.469,1.4l-.148.266a2.382,2.382,0,0,0,.006,2.412C34.934,33.956,36.132,35,38.845,35Zm-2.7-3.358.149-.267A.81.81,0,0,1,37,31a.826.826,0,0,1,.283.049,8.837,8.837,0,0,0,4.76.274.837.837,0,0,1,.714.161.607.607,0,0,1,.242.452.576.576,0,0,1-.4.521A10.857,10.857,0,0,1,38.845,33c-1.388,0-2.356-.338-2.726-.951A.429.429,0,0,1,36.147,31.642Z"/><path d="M29.669,33.082a2.384,2.384,0,0,0,.009-2.413l-.149-.266h0a2.793,2.793,0,0,0-2.553-1.393A2.623,2.623,0,0,0,28,27H26c0,.408-.779,1-2,1s-2-.592-2-1H20a2.777,2.777,0,0,0,1.5,2.34,2.816,2.816,0,0,0-1.43.584,2.536,2.536,0,0,0,.714,4.408,12.919,12.919,0,0,0,4.45.668C27.944,35,29.143,33.956,29.669,33.082Zm-1.712-1.033c-.37.613-1.337.951-2.725.951a10.864,10.864,0,0,1-3.753-.542.576.576,0,0,1-.4-.521.607.607,0,0,1,.242-.452.838.838,0,0,1,.524-.182.887.887,0,0,1,.191.021,8.824,8.824,0,0,0,4.759-.274.842.842,0,0,1,.99.326l.148.265A.434.434,0,0,1,27.957,32.049Z"/><path d="M40,24a3.469,3.469,0,0,1,2.3.718l1.4-1.425A5.311,5.311,0,0,0,40,22c-4.943,0-5,2.877-5,3l2,.056C37.047,24.69,37.737,24,40,24Z"/><path d="M24,24c2.263,0,2.953.69,3,1h2c0-.123-.057-3-5-3a5.311,5.311,0,0,0-3.707,1.293l1.4,1.425A3.469,3.469,0,0,1,24,24Z"/></g></svg>