<svg xmlns="http://www.w3.org/2000/svg" viewBox="0 0 64 64"><g id="Layer_2" data-name="Layer 2"><polygon points="34 7 30 7 29 63 35 63 34 7" style="fill:#c67a60"/><path d="M32,47a4.713,4.713,0,0,0,2.7-.808l-.155-8.667c-.03.041-.067.078-.095.12a4.976,4.976,0,0,0-4.9,0c-.028-.042-.065-.079-.1-.12L29.3,46.192A4.713,4.713,0,0,0,32,47Z" style="fill:#b26049"/><path d="M29.74,21.55l-.157,8.824a4.979,4.979,0,0,0,4.834,0L34.26,21.55a4.918,4.918,0,0,0-4.52,0Z" style="fill:#b26049"/><path d="M34.132,14.376,34,7H30l-.132,7.376a3.954,3.954,0,0,0,4.264,0Z" style="fill:#b26049"/><path d="M37,3a4,4,0,1,1-1.409,7.732,3.977,3.977,0,0,1-7.182,0,4,4,0,1,1,0-7.464,3.977,3.977,0,0,1,7.182,0A3.975,3.975,0,0,1,37,3Z" style="fill:#85b27c"/><path d="M38.732,7a1,1,0,0,1-.866-.5A1.006,1.006,0,0,0,37,6a1,1,0,0,1,0-2,3.015,3.015,0,0,1,2.6,1.5A1,1,0,0,1,38.732,7Z" style="fill:#fff"/><path d="M39,8a3.64,3.64,0,0,1-.393-.021,1.92,1.92,0,0,0-1.627.671,3.964,3.964,0,0,1-5.96,0,1.92,1.92,0,0,0-1.627-.671A3.64,3.64,0,0,1,29,8a4,4,0,0,1-4-4,4.061,4.061,0,0,1,.047-.471,3.952,3.952,0,0,0-.051,6.9,3.831,3.831,0,0,0,3.413.3,3.977,3.977,0,0,0,7.182,0,3.954,3.954,0,0,0,5.362-3.261A3.959,3.959,0,0,1,39,8Z" style="fill:#699b5d"/><path d="M43,19a8.765,8.765,0,0,0-1.828.191A4.528,4.528,0,0,0,38,18a4.27,4.27,0,0,0-3.55,1.645,4.976,4.976,0,0,0-4.9,0A4.27,4.27,0,0,0,26,18a4.528,4.528,0,0,0-3.172,1.191A8.765,8.765,0,0,0,21,19c-3.314,0-6,1.791-6,4s2.686,4,6,4a8.765,8.765,0,0,0,1.828-.191A4.528,4.528,0,0,0,26,28a4.849,4.849,0,0,0,2.45-.645A4.27,4.27,0,0,0,32,29a4.27,4.27,0,0,0,3.55-1.645A4.849,4.849,0,0,0,38,28a4.528,4.528,0,0,0,3.172-1.191A8.765,8.765,0,0,0,43,27c3.314,0,6-1.791,6-4S46.314,19,43,19Z" style="fill:#85b27c"/><path d="M47,24a9.017,9.017,0,0,1-1.077-.065,1.974,1.974,0,0,0-1.32.33A4.772,4.772,0,0,1,42,25a5.035,5.035,0,0,1-1.467-.216,1.965,1.965,0,0,0-1.742.351,4.935,4.935,0,0,1-5.582,0,1.965,1.965,0,0,0-1.742-.351A5.035,5.035,0,0,1,30,25a4.772,4.772,0,0,1-2.6-.735,1.974,1.974,0,0,0-1.32-.33A9.017,9.017,0,0,1,25,24c-3.314,0-6-1.791-6-4a2.743,2.743,0,0,1,.12-.8C16.728,19.73,15,21.229,15,23c0,2.209,2.686,4,6,4a8.765,8.765,0,0,0,1.828-.191A4.528,4.528,0,0,0,26,28a4.849,4.849,0,0,0,2.45-.645A4.27,4.27,0,0,0,32,29a4.27,4.27,0,0,0,3.55-1.645A4.849,4.849,0,0,0,38,28a4.528,4.528,0,0,0,3.172-1.191A8.765,8.765,0,0,0,43,27c2.9,0,5.326-1.376,5.88-3.2A8.771,8.771,0,0,1,47,24Z" style="fill:#699b5d"/><path d="M48,34a9.672,9.672,0,0,0-1.191.078A6.66,6.66,0,0,0,43,33a6.592,6.592,0,0,0-3.885,1.133A5.172,5.172,0,0,0,38,34a4.27,4.27,0,0,0-3.55,1.645,4.976,4.976,0,0,0-4.9,0A4.27,4.27,0,0,0,26,34a5.172,5.172,0,0,0-1.115.133A6.592,6.592,0,0,0,21,33a6.66,6.66,0,0,0-3.809,1.078A9.672,9.672,0,0,0,16,34c-3.866,0-7,2.239-7,5s3.134,5,7,5a8.984,8.984,0,0,0,3.9-.862,2.984,2.984,0,0,0,3.824.312,4.982,4.982,0,0,0,4.727-.1A4.27,4.27,0,0,0,32,45a4.27,4.27,0,0,0,3.55-1.645,4.982,4.982,0,0,0,4.727.1,2.984,2.984,0,0,0,3.824-.312A8.984,8.984,0,0,0,48,44c3.866,0,7-2.239,7-5S51.866,34,48,34Z" style="fill:#85b27c"/><path d="M51,41a9.211,9.211,0,0,1-2.979-.485,1.886,1.886,0,0,0-1.543.094,2.979,2.979,0,0,1-2.569.183,1.845,1.845,0,0,0-1.29-.058,5.074,5.074,0,0,1-3.086.05,1.965,1.965,0,0,0-1.742.351,4.935,4.935,0,0,1-5.582,0,1.965,1.965,0,0,0-1.742-.351,5.074,5.074,0,0,1-3.086-.05,1.845,1.845,0,0,0-1.29.058,2.979,2.979,0,0,1-2.569-.183,1.886,1.886,0,0,0-1.543-.094A9.211,9.211,0,0,1,19,41c-3.866,0-7-2.239-7-5a3.634,3.634,0,0,1,.212-1.2C10.281,35.69,9,37.237,9,39c0,2.761,3.134,5,7,5a8.984,8.984,0,0,0,3.9-.862,2.984,2.984,0,0,0,3.824.312,4.982,4.982,0,0,0,4.727-.1A4.27,4.27,0,0,0,32,45a4.27,4.27,0,0,0,3.55-1.645,4.982,4.982,0,0,0,4.727.1,2.984,2.984,0,0,0,3.824-.312A8.984,8.984,0,0,0,48,44c3.286,0,6.035-1.619,6.788-3.8A9.076,9.076,0,0,1,51,41Z" style="fill:#699b5d"/><path d="M50.208,33.229a1,1,0,1,0-.416,1.957C52.27,35.712,54,37.28,54,39c0,2.168-2.748,4-6,4a8,8,0,0,1-3.463-.763,1,1,0,0,0-1.136.187,2.018,2.018,0,0,1-2.547.209,1,1,0,0,0-1.043-.068,4.048,4.048,0,0,1-3.756-.073,1,1,0,0,0-1.331.3,3.675,3.675,0,0,1-5.448,0,1,1,0,0,0-1.331-.3,4.048,4.048,0,0,1-3.756.073,1,1,0,0,0-1.043.068,2.02,2.02,0,0,1-2.547-.209,1,1,0,0,0-1.136-.187A8,8,0,0,1,16,43c-3.252,0-6-1.832-6-4s2.748-4,6-4a8.789,8.789,0,0,1,1.069.07,1.012,1.012,0,0,0,.7-.177A5.676,5.676,0,0,1,21,34a5.591,5.591,0,0,1,3.285.934,1,1,0,0,0,.814.175A4.2,4.2,0,0,1,26,35a3.321,3.321,0,0,1,2.724,1.208,1,1,0,0,0,1.331.3,4.047,4.047,0,0,1,3.89,0,1,1,0,0,0,1.331-.3A3.321,3.321,0,0,1,38,35a4.2,4.2,0,0,1,.9.109,1,1,0,0,0,.814-.175A5.591,5.591,0,0,1,43,34a6.251,6.251,0,0,1,2.582.521,1,1,0,0,0,.836-1.816,8.709,8.709,0,0,0-7.522.368A5.613,5.613,0,0,0,38,33a5.889,5.889,0,0,0-2.525.577L35.447,32h2.288a5.024,5.024,0,0,0,4.287-2.427L42.967,28H43c3.925,0,7-2.2,7-5s-3.075-5-7-5a9.824,9.824,0,0,0-1.537.12A5.681,5.681,0,0,0,38,17a5.849,5.849,0,0,0-2.808.714l-.035-1.973.629-.157a5.021,5.021,0,0,0,3.691-3.87l.089-.445A4.986,4.986,0,0,0,37,2a4.723,4.723,0,0,0-.943.1,4.974,4.974,0,0,0-8.114,0A4.723,4.723,0,0,0,27,2a4.986,4.986,0,0,0-2.566,9.269l.089.445a5.021,5.021,0,0,0,3.691,3.87l.63.157-.036,1.973A5.849,5.849,0,0,0,26,17a5.536,5.536,0,0,0-3.873,1.477,1,1,0,0,0,1.4,1.427A3.572,3.572,0,0,1,26,19a3.321,3.321,0,0,1,2.724,1.208,1,1,0,0,0,1.332.3,4.043,4.043,0,0,1,3.888,0,1,1,0,0,0,1.332-.3A3.321,3.321,0,0,1,38,19a3.572,3.572,0,0,1,2.471.9,1,1,0,0,0,.909.264A7.854,7.854,0,0,1,43,20c2.71,0,5,1.374,5,3s-2.29,3-5,3a7.808,7.808,0,0,1-1.619-.168,1.006,1.006,0,0,0-.91.264,3.993,3.993,0,0,1-4.415.4,1,1,0,0,0-1.332.3,3.675,3.675,0,0,1-5.448,0,1,1,0,0,0-1.332-.3,3.993,3.993,0,0,1-4.415-.4,1,1,0,0,0-.91-.264A7.808,7.808,0,0,1,21,26c-2.71,0-5-1.374-5-3,0-1.2,1.328-2.351,3.229-2.8a1,1,0,1,0-.458-1.947C15.917,18.927,14,20.834,14,23c0,2.8,3.075,5,7,5h.033l.945,1.574A5.024,5.024,0,0,0,26.265,32h2.288l-.028,1.577A5.889,5.889,0,0,0,26,33a5.613,5.613,0,0,0-.9.073A7.886,7.886,0,0,0,21,32a7.825,7.825,0,0,0-4.059,1.045C16.614,33.015,16.3,33,16,33c-4.411,0-8,2.691-8,6s3.589,6,8,6a10.463,10.463,0,0,0,1.666-.142l.4,1A4.975,4.975,0,0,0,22.708,49H28.25L28,62.982A1,1,0,0,0,29,64h6a1,1,0,0,0,1-1.018L35.751,49h5.984a5.024,5.024,0,0,0,4.287-2.428L47,44.951c.333.031.668.049,1.005.049,4.411,0,8-2.691,8-6C56,36.284,53.672,33.965,50.208,33.229ZM35.3,13.644l-.182.045-.014-.785a4.988,4.988,0,0,0,.95-1A4.74,4.74,0,0,0,37,12c.1,0,.2-.024.3-.03A3.01,3.01,0,0,1,35.3,13.644ZM28.055,4.2a1,1,0,0,0,1.255-.5,2.975,2.975,0,0,1,5.38,0,1,1,0,0,0,1.255.5,2.991,2.991,0,1,1,0,5.592,1,1,0,0,0-1.255.5,2.975,2.975,0,0,1-5.38,0,1,1,0,0,0-1.255-.5,2.991,2.991,0,1,1,0-5.592Zm.643,9.44a3.01,3.01,0,0,1-2-1.674c.1.006.2.03.3.03a4.74,4.74,0,0,0,.944-.1,4.988,4.988,0,0,0,.95,1l-.014.785Zm2.1,4.484.076-4.258a4.911,4.911,0,0,0,2.245,0l.076,4.258A6.236,6.236,0,0,0,30.8,18.128Zm5,10.46a6.2,6.2,0,0,0,4.514-.061l-.01.016A3.015,3.015,0,0,1,37.735,30H35.411l-.02-1.1A4.622,4.622,0,0,0,35.8,28.588Zm-2.4,1.229.079,4.393a6.149,6.149,0,0,0-2.972,0l.079-4.393a5.5,5.5,0,0,0,2.814,0ZM26.265,30a3.015,3.015,0,0,1-2.573-1.457l-.01-.017a6.2,6.2,0,0,0,4.514.062,4.755,4.755,0,0,0,.412.314L28.589,30ZM19.923,45.114l-.309-.772c.041-.016.085-.027.126-.043a4.039,4.039,0,0,0,2.626.67L23.382,47h-.674A2.985,2.985,0,0,1,19.923,45.114ZM25.618,47l-1.1-2.211a6.111,6.111,0,0,0,3.683-.2c.039.037.09.064.131.1L28.286,47Zm4.4,15,.291-16.261a5.612,5.612,0,0,0,3.383,0L33.982,62Zm5.656-17.313c.04-.036.091-.062.13-.1a6.111,6.111,0,0,0,4.119.075L37.586,47H35.715Zm8.634.856A3.017,3.017,0,0,1,41.735,47H40.414l2.044-2.044a3.962,3.962,0,0,0,1.8-.657c.214.085.437.155.659.225Z"/></g></svg>