<svg xmlns="http://www.w3.org/2000/svg" viewBox="0 0 64 64"><title>17-Yoga</title><g id="_17-Yoga" data-name="17-Yoga"><path d="M35,16v8H22a1.959,1.959,0,0,1-2-2H14V18h6a1.959,1.959,0,0,1,2-2Z" style="fill:#b674f2"/><path d="M22,16a1.959,1.959,0,0,0-2,2H14v2h6a1.959,1.959,0,0,1,2-2H35V16Z" style="fill:#8f4cd6"/><path d="M11,18a3,3,0,0,1,3-3l4-2-1,5H11Z" style="fill:#7e8596"/><path d="M14,18v4H3a1.955,1.955,0,0,1-1.41-.59A1.955,1.955,0,0,1,1,20a2.006,2.006,0,0,1,2-2H14Z" style="fill:#ffdecf"/><path d="M42,21a83.672,83.672,0,0,1-1,12,4.38,4.38,0,0,0,1,3v8H37V26a1.959,1.959,0,0,0-2-2V16H60v5Z" style="fill:#7e8596"/><path d="M57.5,16v2.5h-18a83.672,83.672,0,0,1-1,12,4.38,4.38,0,0,0,1,3v8H37V44h5V36a4.38,4.38,0,0,1-1-3,83.672,83.672,0,0,0,1-12H60V16Z" style="fill:#707789"/><polygon points="42 44 42 47 35 47 37 44 42 44" style="fill:#ffdecf"/><polygon points="63 16 63 24 60 21 60 16 63 16" style="fill:#ffdecf"/><path d="M14,22h6a2.938,2.938,0,0,1-3,3H14a2.938,2.938,0,0,1-3-3Z" style="fill:#ffcdbe"/><rect x="1" y="47" width="62" height="4" style="fill:#ff73a5"/><rect x="1" y="49" width="62" height="2" style="fill:#cf6799"/><path d="M33,36c-9.886,0-10-8.91-10-9h1l1,0c0,.286.139,7,8,7Z" style="fill:#dce1eb"/><path d="M33,42C18.172,42,18,27.15,18,27h2c0,.53.187,13,13,13Z" style="fill:#dce1eb"/><path d="M59.586,22l2.707,2.707A1,1,0,0,0,64,24V16a1,1,0,0,0-1-1H22a2.818,2.818,0,0,0-2.833,2H18.22l.76-3.8a1,1,0,0,0-1.427-1.091l-3.805,1.9A4,4,0,0,0,10.143,17H3a3,3,0,0,0-3,3,2.922,2.922,0,0,0,.874,2.108A2.944,2.944,0,0,0,3,23h7.14A3.769,3.769,0,0,0,14,26h3a4.158,4.158,0,0,0,3.218-1.539A2.961,2.961,0,0,0,22,25H35a.915.915,0,0,1,1,1V43.7L34.465,46H1a1,1,0,0,0-1,1v4a1,1,0,0,0,1,1H63a1,1,0,0,0,1-1V47a1,1,0,0,0-1-1H43V36a1.039,1.039,0,0,0-.281-.7A3.422,3.422,0,0,1,42,33.078,85.605,85.605,0,0,0,42.991,22ZM14,16a1,1,0,0,0,.447-.105l2.171-1.086L16.18,17h-3.9A1.993,1.993,0,0,1,14,16ZM2.287,20.694A.965.965,0,0,1,2,20a1,1,0,0,1,1-1H13v2H3A.978.978,0,0,1,2.287,20.694ZM17,24H14a1.769,1.769,0,0,1-1.765-1h6.549A2,2,0,0,1,17,24Zm17-1H22a.915.915,0,0,1-1-1,1,1,0,0,0-1-1H15V19h5a1.012,1.012,0,0,0,1-.988A.918.918,0,0,1,22,17H34Zm28-1.414-1-1V17h1ZM62,50H2V48H62ZM36.868,46l.667-1H41v1ZM41,36.354V43H38V26a2.961,2.961,0,0,0-2-2.838V17H59v3H40v2h.99a85.115,85.115,0,0,1-.976,10.835A1.021,1.021,0,0,0,40,33,5.657,5.657,0,0,0,41,36.354Z"/><path d="M33,36V34c-7.861,0-8-6.717-8-7l-1,0H23C23,27.09,23.114,36,33,36Z"/><path d="M18,27c0,.15.172,15,15,15V40C20.187,40,20,27.529,20,27Z"/></g></svg>