<?xml version="1.0" encoding="utf-8"?>
<!-- Generator: Adobe Illustrator 16.0.0, SVG Export Plug-In . SVG Version: 6.00 Build 0)  -->
<!DOCTYPE svg PUBLIC "-//W3C//DTD SVG 1.1//EN" "http://www.w3.org/Graphics/SVG/1.1/DTD/svg11.dtd">
<svg version="1.1" xmlns="http://www.w3.org/2000/svg" xmlns:xlink="http://www.w3.org/1999/xlink" x="0px" y="0px" width="64px"
	 height="64px" viewBox="0 0 64 64" enable-background="new 0 0 64 64" xml:space="preserve">
<g id="_x32_5_purse_x2C__money_x2C__coin_x2C__banknote_x2C__payment_x2C__shop_x2C__shopping">
</g>
<g id="_x32_4_pay_x2C__click_x2C__hand_x2C__coin_x2C__money_x2C__shop_x2C__payment">
</g>
<g id="_x32_3_card_x2C__discount_x2C__sale_x2C__shop_x2C__shopping_x2C__commerce_x2C__market">
</g>
<g id="_x32_2_safe_x2C__box_x2C__key_x2C__thing_x2C__shop_x2C__shopping_x2C__commerce">
</g>
<g id="_x32_1_cashbox_x2C__money_x2C__purchase_x2C__list_x2C__check_x2C__shop_x2C__shopping">
</g>
<g id="_x32_0_search_x2C__magnifier_x2C__basket_x2C__shop_x2C__shopping_x2C__commerce_x2C__market">
</g>
<g id="_x31_9_return_x2C__box_x2C__purchase_x2C__shipping_x2C__delivery_x2C__shop_x2C__shopping">
</g>
<g id="_x31_8_review_x2C__client_x2C__buyer_x2C__talk_x2C__shop_x2C__shopping_x2C__commerce">
	<g>
		<path fill="#ED5564" d="M62.5,5.5h-22c-0.55,0-1,0.45-1,1v16c0,0.55,0.45,1,1,1h2v2l4-2h16c0.55,0,1-0.45,1-1v-16
			C63.5,5.95,63.05,5.5,62.5,5.5z"/>
		<rect x="7.541" y="29.625" fill="#773E3E" width="9.209" height="18.915"/>
		<rect x="26.291" y="29.625" fill="#773E3E" width="9.209" height="18.915"/>
		<path fill="#F0C7B7" d="M33.59,30.414c0,7.854-7.432,15.086-12,15.086c-4.567,0-12-7.232-12-15.086s5.373-13.029,12-13.029
			S33.59,22.561,33.59,30.414z"/>
		<path fill="#844747" d="M35.5,28.5v2c-0.48-0.19-0.95-0.38-1.4-0.58c-6.72-2.979-9.6-7.01-9.6-7.01c4.439-2.91,6-5.13,6-5.13
			C33.56,20.35,35.5,24.2,35.5,28.5z"/>
		<path fill="#965353" d="M30.5,17.78c0,0-1.561,2.22-6,5.13c-3.57,2.35-9.01,5.14-17,7.59v-2c0-7.73,6.27-14,14-14
			C24.92,14.5,28.061,15.73,30.5,17.78z"/>
		<path fill="#AC92EC" d="M42.5,54.3c0,2.8,0,4.2,0,4.2h-42c0,0,0-1.4,0-4.2s1.4-3.85,4.189-4.899c0.82-0.311,2.08-0.631,3.44-1.03
			c1.53-0.45,3.181-1.021,4.41-1.79c0.319,0.56,2.54,3.92,8.96,3.92s8.63-3.36,8.95-3.92c2.319,1.45,6.109,2.17,7.859,2.82
			C41.1,50.45,42.5,51.5,42.5,54.3z"/>
		<path fill="#E5B6A8" d="M30.45,46.58c-0.32,0.56-2.53,3.92-8.95,3.92s-8.641-3.36-8.96-3.92c1.16-0.72,1.96-1.61,1.96-2.78v-2.24
			l0.01-0.01c2.27,2.431,4.92,3.95,6.99,3.95s4.721-1.52,6.99-3.95l0.01,0.01v2.24C28.5,44.96,29.29,45.86,30.45,46.58z"/>
		<path fill="#FFCE54" d="M47.976,13.996c-0.059-0.181-0.215-0.313-0.403-0.341l-1.12-0.162l-0.504-1.023
			c-0.168-0.342-0.729-0.342-0.896,0l-0.504,1.023l-1.12,0.162c-0.188,0.027-0.345,0.16-0.403,0.341
			c-0.059,0.182-0.01,0.381,0.128,0.514l0.81,0.785l-0.194,1.119c-0.033,0.188,0.044,0.378,0.197,0.49
			c0.154,0.111,0.357,0.127,0.527,0.038l1.008-0.528l1.008,0.528C46.581,16.981,46.661,17,46.74,17c0.104,0,0.207-0.032,0.295-0.096
			c0.153-0.112,0.23-0.303,0.197-0.49l-0.194-1.119l0.81-0.785C47.985,14.377,48.034,14.178,47.976,13.996z"/>
		<path fill="#FFCE54" d="M53.976,13.996c-0.059-0.181-0.215-0.313-0.403-0.341l-1.12-0.162l-0.504-1.023
			c-0.168-0.342-0.729-0.342-0.896,0l-0.504,1.023l-1.12,0.162c-0.188,0.027-0.345,0.16-0.403,0.341
			c-0.059,0.182-0.01,0.381,0.128,0.514l0.81,0.785l-0.194,1.119c-0.033,0.188,0.044,0.378,0.197,0.49
			c0.155,0.111,0.357,0.127,0.527,0.038l1.008-0.528l1.008,0.528C52.581,16.981,52.661,17,52.74,17c0.104,0,0.207-0.032,0.295-0.096
			c0.153-0.112,0.23-0.303,0.197-0.49l-0.194-1.119l0.81-0.785C53.985,14.377,54.034,14.178,53.976,13.996z"/>
		<path fill="#FFCE54" d="M59.976,13.996c-0.059-0.181-0.215-0.313-0.403-0.341l-1.12-0.162l-0.504-1.023
			c-0.168-0.342-0.729-0.342-0.896,0l-0.504,1.023l-1.12,0.162c-0.188,0.027-0.345,0.16-0.403,0.341
			c-0.059,0.182-0.01,0.381,0.128,0.514l0.81,0.785l-0.194,1.119c-0.033,0.188,0.044,0.378,0.197,0.49
			c0.154,0.111,0.357,0.127,0.527,0.038l1.008-0.528l1.008,0.528C58.581,16.981,58.661,17,58.74,17c0.104,0,0.207-0.032,0.295-0.096
			c0.153-0.112,0.23-0.303,0.197-0.49l-0.194-1.119l0.81-0.785C59.985,14.377,60.034,14.178,59.976,13.996z"/>
	</g>
</g>
<g id="_x31_7_manager_x2C__consultant_x2C__shop_x2C__shopping_x2C__commerce_x2C__market_x2C__badge">
</g>
<g id="_x31_6_check_x2C__list_x2C__cashbox_x2C__purchase_x2C__shop_x2C__shopping_x2C__commerce">
</g>
<g id="_x31_5_coupon_x2C__sale_x2C__discount_x2C__shop_x2C__shopping_x2C__commerce_x2C__market">
</g>
<g id="_x31_4_sale_x2C__discount_x2C__box_x2C__gift_x2C__shop_x2C__shopping_x2C__commerce">
</g>
<g id="_x31_3_map_x2C__pin_x2C__marker_x2C__location_x2C__shop_x2C__shopping_x2C__basket">
</g>
<g id="_x31_2_operator_x2C__call_x2C__center_x2C__shop_x2C__shopping_x2C__commerce_x2C__market">
</g>
<g id="_x31_1_courier_x2C__box_x2C__shipping_x2C__purchase_x2C__shop_x2C__shopping_x2C__commerce">
</g>
<g id="_x31_0_box_x2C__shipping_x2C__delivery_x2C__purchase_x2C__shop_x2C__shopping_x2C__commerce">
</g>
<g id="_x39__shipping_x2C__delivery_x2C__box_x2C__crane_x2C__shop_x2C__shopping_x2C__commerce">
</g>
<g id="_x38__computer_x2C__monitor_x2C__desktop_x2C__shop_x2C__shopping_x2C__commerce_x2C__market">
</g>
<g id="_x37__mobile_x2C__phone_x2C__app_x2C__shop_x2C__shopping_x2C__commerce_x2C__market">
</g>
<g id="_x36__food_x2C__market_x2C__purchase_x2C__shop_x2C__shopping_x2C__commerce_x2C__basket">
</g>
<g id="_x35__discount_x2C__sale_x2C__purchase_x2C__pocket_x2C__shop_x2C__shopping_x2C__commerce">
</g>
<g id="_x34__badge_x2C__discount_x2C__sale_x2C__shop_x2C__shopping_x2C__commerce_x2C__market">
</g>
<g id="_x33__food_x2C__pocket_x2C__purchase_x2C__shop_x2C__shopping_x2C__commerce_x2C__supermarket">
</g>
<g id="_x32__shop_x2C__shopping_x2C__commerce_x2C__supermarket_x2C__market_x2C__cart">
</g>
<g id="_x31__list_x2C__check_x2C__notebook_x2C__pen_x2C__shop_x2C__shopping_x2C__commerce">
</g>
</svg>
