<svg xmlns="http://www.w3.org/2000/svg" viewBox="0 0 64 64"><g id="_18-Highlight_and_Contour" data-name="18-Highlight and Contour"><path d="M34,45l4,2s-3,3-6,3-6-3-6-3l4-2,2,1Z" style="fill:#db9b82"/><path d="M39.45,19.34a1.125,1.125,0,0,1,.55.97c0,.63-.37.69-1,.69H36.24a2,2,0,0,0-1.79,1.11l-1,2a1.626,1.626,0,0,1-2.9,0l-1-2A2,2,0,0,0,27.76,21H25c-.63,0-1-.06-1-.69a1.125,1.125,0,0,1,.55-.97l3.62-2.18a1.213,1.213,0,0,1,.59-.16h6.48a1.213,1.213,0,0,1,.59.16Z" style="fill:#fee0c8"/><path d="M49.98,40.01a4.874,4.874,0,0,0,.02-.54V32.53q0-.78-.06-1.53H52a2.006,2.006,0,0,1,2,2v4a6,6,0,0,1-2.4,4.8L50,43h-.41A14.837,14.837,0,0,0,49.98,40.01Z" style="fill:#ebb996"/><path d="M54,22c0,6-2,9-2,9H49.94a18.791,18.791,0,0,0-5.21-11.58A17.707,17.707,0,0,0,32,14V1h1A21,21,0,0,1,54,22Z" style="fill:#5c514d"/><path d="M50,32.53v6.94a4.874,4.874,0,0,1-.02.54L47,42l-4,7-3.41,6.81a16.313,16.313,0,0,1-7.15,2.18,1.475,1.475,0,0,0,1.01-.59l2.25-3a1.543,1.543,0,0,0,.3-.9A1.5,1.5,0,0,0,34.5,52h-5A1.5,1.5,0,0,0,28,53.5a1.543,1.543,0,0,0,.3.9l2.25,3a1.475,1.475,0,0,0,1.01.59,15.837,15.837,0,0,1-6.61-1.89L21,49l-4-7-2.98-1.99a4.874,4.874,0,0,1-.02-.54V32.53q0-.78.06-1.53A18.222,18.222,0,0,1,32,14a17.707,17.707,0,0,1,12.73,5.42A18.791,18.791,0,0,1,49.94,31Q50,31.75,50,32.53ZM45.87,37.7A1.992,1.992,0,0,0,44.02,35H38.45A1.462,1.462,0,0,0,37,36.47a1.487,1.487,0,0,0,.34.94l4.16,5.06a1.447,1.447,0,0,0,1.12.53h.29a1.445,1.445,0,0,0,1.35-.95ZM40,20.31a1.125,1.125,0,0,0-.55-.97l-3.62-2.18a1.213,1.213,0,0,0-.59-.16H28.76a1.213,1.213,0,0,0-.59.16l-3.62,2.18a1.125,1.125,0,0,0-.55.97c0,.63.37.69,1,.69h2.76a2,2,0,0,1,1.79,1.11l1,2a1.626,1.626,0,0,0,2.9,0l1-2A2,2,0,0,1,36.24,21H39C39.63,21,40,20.94,40,20.31ZM38,47l-4-2-2,1-2-1-4,2s3,3,6,3S38,47,38,47ZM26.66,37.41a1.487,1.487,0,0,0,.34-.94A1.462,1.462,0,0,0,25.55,35H19.98a1.992,1.992,0,0,0-1.85,2.7l1.61,4.35a1.445,1.445,0,0,0,1.35.95h.29a1.447,1.447,0,0,0,1.12-.53Z" style="fill:#ebb996"/><path d="M49.59,43A19.957,19.957,0,0,1,42,54.23a19.937,19.937,0,0,1-2.41,1.58L43,49l4-7,2.98-1.99A14.837,14.837,0,0,1,49.59,43Z" style="fill:#d9a987"/><path d="M24.95,56.1a15.837,15.837,0,0,0,6.61,1.89h.01a1.087,1.087,0,0,0,.18.01h.5a1.087,1.087,0,0,0,.18-.01h.01a16.313,16.313,0,0,0,7.15-2.18A19.937,19.937,0,0,0,42,54.23v.45A8.776,8.776,0,0,0,48,63H16a8.778,8.778,0,0,0,6-8.32v-.45A20.261,20.261,0,0,0,24.95,56.1Z" style="fill:#ebb996"/><path d="M46.19,25.78,47,27H36V26a2.006,2.006,0,0,1,2-2h4.86A4,4,0,0,1,46.19,25.78Z" style="fill:#38312f"/><path d="M44.02,35a1.992,1.992,0,0,1,1.85,2.7l-1.61,4.35a1.445,1.445,0,0,1-1.35.95h-.29a1.447,1.447,0,0,1-1.12-.53l-4.16-5.06a1.487,1.487,0,0,1-.34-.94A1.462,1.462,0,0,1,38.45,35Z" style="fill:#fee0c8"/><path d="M36,53.5a1.543,1.543,0,0,1-.3.9l-2.25,3a1.475,1.475,0,0,1-1.01.59h-.01c-.14.01-.29.01-.43.01s-.29,0-.43-.01h-.01a1.475,1.475,0,0,1-1.01-.59l-2.25-3a1.543,1.543,0,0,1-.3-.9A1.5,1.5,0,0,1,29.5,52h5A1.5,1.5,0,0,1,36,53.5Z" style="fill:#fee0c8"/><path d="M32,1V14A18.222,18.222,0,0,0,14.06,31H12a10.265,10.265,0,0,1-1-2.25A21.343,21.343,0,0,1,10,22,21,21,0,0,1,31,1Z" style="fill:#5c514d"/><path d="M28,26v1H17l.81-1.22A4,4,0,0,1,21.14,24H26A2.006,2.006,0,0,1,28,26Z" style="fill:#38312f"/><path d="M27,36.47a1.487,1.487,0,0,1-.34.94L22.5,42.47a1.447,1.447,0,0,1-1.12.53h-.29a1.445,1.445,0,0,1-1.35-.95L18.13,37.7A1.992,1.992,0,0,1,19.98,35h5.57A1.462,1.462,0,0,1,27,36.47Z" style="fill:#fee0c8"/><path d="M22,54.23A19.957,19.957,0,0,1,14.41,43a14.837,14.837,0,0,1-.39-2.99L17,42l4,7,3.95,7.1A20.261,20.261,0,0,1,22,54.23Z" style="fill:#d9a987"/><path d="M14.02,40.01A14.837,14.837,0,0,0,14.41,43H14l-1.6-1.2A6,6,0,0,1,10,37V33a2.006,2.006,0,0,1,2-2h2.06q-.06.75-.06,1.53v6.94A4.874,4.874,0,0,0,14.02,40.01Z" style="fill:#ebb996"/><path d="M32,27a1.085,1.085,0,0,0-1.082,1L30,39.08a1.871,1.871,0,0,0,.59,1.36,2.055,2.055,0,0,0,2.82,0A1.871,1.871,0,0,0,34,39.08L33.082,28A1.085,1.085,0,0,0,32,27Z" style="fill:#fee0c8"/><path d="M53,37V33.667A1.862,1.862,0,0,0,51,32H49.979c.005.178.021.35.021.53v6.94a4.874,4.874,0,0,1-.02.54c-.014.488-.055.971-.115,1.449L50.6,41A4.774,4.774,0,0,0,53,37Z" style="fill:#d7a37e"/><path d="M14,39.47V32.53c0-.18.016-.352.021-.53H13a1.862,1.862,0,0,0-2,1.667V37a4.774,4.774,0,0,0,2.4,4l.735.459c-.06-.478-.1-.961-.115-1.449A4.874,4.874,0,0,1,14,39.47Z" style="fill:#d7a37e"/><polygon points="32 46 30 45 26 47 38 47 34 45 32 46" style="fill:#c87f6e"/><path d="M42,54.68v-.45a19.937,19.937,0,0,1-2.41,1.58,16.313,16.313,0,0,1-7.15,2.18h-.01a1.087,1.087,0,0,1-.18.01h-.5a1.087,1.087,0,0,1-.18-.01h-.01a15.837,15.837,0,0,1-6.61-1.89A20.261,20.261,0,0,1,22,54.23v.45A8.778,8.778,0,0,1,16,63l26.419-5.661A8.732,8.732,0,0,1,42,54.68Z" style="fill:#cc9b78"/><path d="M52.246,26a1.742,1.742,0,0,1-1.632-1.115c-1.136-2.964-4.929-10.927-13.4-12.581A3.987,3.987,0,0,1,34,8.388V3a2,2,0,0,1,1.3-1.868A21.068,21.068,0,0,0,33,1H32V14a17.707,17.707,0,0,1,12.73,5.42A18.791,18.791,0,0,1,49.94,31H52a14.849,14.849,0,0,0,1.821-6A1.748,1.748,0,0,1,52.246,26Z" style="fill:#38312f"/><path d="M31,1a21.068,21.068,0,0,0-2.3.132A2,2,0,0,1,30,3V8.388A3.987,3.987,0,0,1,26.787,12.3c-8.472,1.654-12.265,9.617-13.4,12.581a1.748,1.748,0,0,1-3.207.12A19.31,19.31,0,0,0,11,28.75,10.265,10.265,0,0,0,12,31h2.06A18.222,18.222,0,0,1,32,14V1Z" style="fill:#38312f"/><ellipse cx="41.5" cy="31" rx="1.5" ry="2" style="fill:#38312f"/><ellipse cx="22.5" cy="31" rx="1.5" ry="2" style="fill:#38312f"/><path d="M38.987,46.84a1,1,0,0,0-.54-.735l-4-2a1,1,0,0,0-.894,0L32,44.882l-1.553-.777a1,1,0,0,0-.894,0l-4,2a1,1,0,0,0-.26,1.6C25.428,47.842,28.625,51,32,51s6.572-3.158,6.707-3.293A1,1,0,0,0,38.987,46.84ZM32,49a7.675,7.675,0,0,1-4.2-1.781l2.2-1.1,1.553.777a1,1,0,0,0,.894,0L34,46.118l2.2,1.1A7.675,7.675,0,0,1,32,49Z"/><path d="M33,39.082a.878.878,0,0,1-.278.635,1.067,1.067,0,0,1-1.444,0A.878.878,0,0,1,31,39.082V30H29v9.082a2.9,2.9,0,0,0,.894,2.078,3.073,3.073,0,0,0,4.212,0A2.9,2.9,0,0,0,35,39.082V30H33Z"/><path d="M47,28a1,1,0,0,0,.832-1.555l-.812-1.218A4.994,4.994,0,0,0,42.859,23H38a3,3,0,0,0-3,3v1a1,1,0,0,0,1,1H47ZM37,26a1,1,0,0,1,1-1h4.859A3,3,0,0,1,45.1,26Z"/><path d="M44,31a3.592,3.592,0,0,0-.074-.7,10.568,10.568,0,0,1,1.628.6A1,1,0,0,0,46,31h1V29h-.777A11.142,11.142,0,0,0,42,28c-.137,0-.262.008-.393.013-.036,0-.07-.013-.107-.013-.065,0-.125.017-.188.022-3.929.22-5.083,2.283-5.207,2.531l1.777.918a2.751,2.751,0,0,1,1.153-.9A3.759,3.759,0,0,0,39,31a2.754,2.754,0,0,0,2.5,3A2.754,2.754,0,0,0,44,31Zm-2.5,1c-.177,0-.5-.38-.5-1a1.054,1.054,0,0,1,.431-.969l.123-.007A1.031,1.031,0,0,1,42,31C42,31.62,41.677,32,41.5,32Z"/><path d="M29,26a3,3,0,0,0-3-3H21.141a4.994,4.994,0,0,0-4.161,2.227l-.812,1.218A1,1,0,0,0,17,28H28a1,1,0,0,0,1-1ZM18.9,26a3,3,0,0,1,2.237-1H26a1,1,0,0,1,1,1Z"/><path d="M22,28a11.142,11.142,0,0,0-4.223,1H17v2h1a1,1,0,0,0,.446-.105,10.568,10.568,0,0,1,1.628-.6A3.592,3.592,0,0,0,20,31a2.754,2.754,0,0,0,2.5,3A2.754,2.754,0,0,0,25,31a3.759,3.759,0,0,0-.035-.43,2.751,2.751,0,0,1,1.153.9l1.777-.918c-.124-.248-1.278-2.311-5.207-2.531-.063,0-.123-.022-.188-.022-.037,0-.071.011-.107.013C22.262,28.008,22.137,28,22,28Zm1,3c0,.62-.323,1-.5,1s-.5-.38-.5-1a1.031,1.031,0,0,1,.446-.976l.123.007A1.054,1.054,0,0,1,23,31Z"/><path d="M42.906,44a2.46,2.46,0,0,0,2.3-1.6L46.81,38.05a3.024,3.024,0,0,0-.352-2.774A2.969,2.969,0,0,0,44.023,34H38.45A2.463,2.463,0,0,0,36,36.469a2.489,2.489,0,0,0,.563,1.575l4.166,5.062A2.433,2.433,0,0,0,42.615,44Zm-4.8-7.227a.479.479,0,0,1-.108-.3A.46.46,0,0,1,38.45,36h5.573a.954.954,0,0,1,.793.419,1.006,1.006,0,0,1,.119.935L43.326,41.7a.452.452,0,0,1-.42.3h-.291a.441.441,0,0,1-.341-.164Z"/><path d="M17.542,35.276a3.024,3.024,0,0,0-.352,2.774L18.8,42.394A2.46,2.46,0,0,0,21.094,44h.291a2.435,2.435,0,0,0,1.886-.893l4.166-5.064A2.472,2.472,0,0,0,25.55,34H19.977A2.969,2.969,0,0,0,17.542,35.276ZM25.55,36a.46.46,0,0,1,.45.469.474.474,0,0,1-.108.3l-4.166,5.065a.443.443,0,0,1-.341.163h-.291a.452.452,0,0,1-.42-.3l-1.609-4.345a1.006,1.006,0,0,1,.119-.935A.954.954,0,0,1,19.977,36Z"/><path d="M25,22h2.764a1,1,0,0,1,.894.553l1,2a2.619,2.619,0,0,0,4.684,0l1-2A1,1,0,0,1,36.236,22H39c1.653,0,2-.919,2-1.69a2.144,2.144,0,0,0-1.036-1.831L36.338,16.3a2.135,2.135,0,0,0-1.1-.3H28.759a2.139,2.139,0,0,0-1.1.3l-3.624,2.175A2.144,2.144,0,0,0,23,20.31C23,21.081,23.347,22,25,22Zm3.759-4,6.552.019L38.612,20H36.236a2.983,2.983,0,0,0-2.683,1.658l-1,2a.641.641,0,0,1-1.106,0l-1-2A2.983,2.983,0,0,0,27.764,20H25.391Z"/><path d="M53.44,30.385A20.737,20.737,0,0,0,55,22,22.025,22.025,0,0,0,33,0H31A22.025,22.025,0,0,0,9,22a20.737,20.737,0,0,0,1.56,8.385A2.988,2.988,0,0,0,9,33v4a7.035,7.035,0,0,0,2.8,5.6l1.6,1.2a1.032,1.032,0,0,0,.221.115A20.377,20.377,0,0,0,19.356,53.3c.528.5,1.079.969,1.641,1.414a7.764,7.764,0,0,1-5.313,7.341l.632,1.9a9.753,9.753,0,0,0,6.582-7.9,17.731,17.731,0,0,0,8.575,2.918A2.327,2.327,0,0,0,31.75,59h.5a2.351,2.351,0,0,0,.277-.033A17.734,17.734,0,0,0,41.1,56.049a9.753,9.753,0,0,0,6.582,7.9l.632-1.9A7.764,7.764,0,0,1,43,54.711c.562-.445,1.113-.911,1.641-1.414a20.377,20.377,0,0,0,5.736-9.382A1.032,1.032,0,0,0,50.6,43.8l1.6-1.2A7.033,7.033,0,0,0,55,37V33A2.988,2.988,0,0,0,53.44,30.385ZM53,22a18.1,18.1,0,0,1-1.59,8h-.588A19.221,19.221,0,0,0,33,13.052V2A20.023,20.023,0,0,1,53,22ZM31,2V13.052A19.221,19.221,0,0,0,13.178,30H12.59A18.1,18.1,0,0,1,11,22,20.023,20.023,0,0,1,31,2ZM13,41a5.025,5.025,0,0,1-2-4V33a1,1,0,0,1,1-1h1.026c0,.177-.026.349-.026.526v6.948c0,.533.039,1.063.089,1.593ZM31.35,56.8l-2.249-3a.51.51,0,0,1-.1-.3.5.5,0,0,1,.5-.5h5a.5.5,0,0,1,.5.5.51.51,0,0,1-.1.3l-2.25,3a.493.493,0,0,1-.308.178c-.113,0-.229.022-.342.022s-.229-.018-.343-.022A.5.5,0,0,1,31.35,56.8Zm4.025-.3L36.5,55a2.5,2.5,0,0,0-2-4h-5a2.5,2.5,0,0,0-2,4l1.125,1.5C22.581,54.829,16.5,49.015,15.254,42.038l.995.663,3.883,6.8,1.736-.992-4-7a1,1,0,0,0-.313-.336L15,39.465V32.526C15,22.862,22.626,15,32,15s17,7.862,17,17.526v6.939l-2.555,1.7a1,1,0,0,0-.313.336l-4,7,1.736.992,3.883-6.8,1-.663C47.5,49.015,41.419,54.829,35.375,56.5ZM53,37a5.023,5.023,0,0,1-2,4l-.088.066c.05-.529.089-1.06.089-1.592V32.526c0-.177-.021-.349-.026-.526H52a1,1,0,0,1,1,1Z"/></g></svg>