<svg xmlns="http://www.w3.org/2000/svg" viewBox="0 0 64 64"><title>18-Programming</title><g id="_18-Programming" data-name="18-Programming"><g id="_Group_" data-name="&lt;Group&gt;"><path d="M61,64H3a3,3,0,0,1-3-3V3A3,3,0,0,1,3,0H61a3,3,0,0,1,3,3V61A3,3,0,0,1,61,64ZM3,2A1,1,0,0,0,2,3V61a1,1,0,0,0,1,1H61a1,1,0,0,0,1-1V3a1,1,0,0,0-1-1Z"/><rect x="1" y="10" width="62" height="2"/></g><rect x="5" y="5" width="2" height="2"/><rect x="9" y="5" width="2" height="2"/><rect x="14" y="5" width="45" height="2"/><path d="M26,40H6a1,1,0,0,1-1-1V17a1,1,0,0,1,1-1H26a1,1,0,0,1,1,1V39A1,1,0,0,1,26,40ZM7,38H25V18H7Z"/><rect x="6" y="24" width="20" height="2"/><path d="M58,40H38a1,1,0,0,1-1-1V17a1,1,0,0,1,1-1H58a1,1,0,0,1,1,1V39A1,1,0,0,1,58,40ZM39,38H57V18H39Z"/><rect x="38" y="24" width="20" height="2"/><path d="M42,58H22a1,1,0,0,1-1-1V39h2V56H41V39h2V57A1,1,0,0,1,42,58Z"/><rect x="26" y="34" width="12" height="2"/><rect x="22" y="42" width="20" height="2"/><rect x="9" y="20" width="2" height="2"/><rect x="13" y="20" width="2" height="2"/><rect x="41" y="20" width="2" height="2"/><rect x="45" y="20" width="2" height="2"/><path d="M15,49H13V48a1,1,0,0,1,1-1,.81.81,0,0,0,.71-.291c.611-.742.472-2.688.309-3.514A1,1,0,0,1,16,42h2v2h-.865a5.871,5.871,0,0,1-.877,3.977A2.715,2.715,0,0,1,15,48.845Z"/><path d="M18,56H16a1,1,0,0,1-.981-1.2c.163-.826.3-2.772-.309-3.514A.81.81,0,0,0,14,51a1,1,0,0,1-1-1V49h2v.155a2.715,2.715,0,0,1,1.258.868A5.871,5.871,0,0,1,17.135,54H18Z"/><path d="M48,56H46V54h.865a5.865,5.865,0,0,1,.877-3.977A2.715,2.715,0,0,1,49,49.155V49h2v1a1,1,0,0,1-1,1,.812.812,0,0,0-.71.291c-.61.742-.472,2.688-.31,3.514A1,1,0,0,1,48,56Z"/><path d="M51,49H49v-.155a2.715,2.715,0,0,1-1.258-.868A5.865,5.865,0,0,1,46.865,44H46V42h2a1,1,0,0,1,.98,1.2c-.162.826-.3,2.772.31,3.514A.812.812,0,0,0,50,47a1,1,0,0,1,1,1Z"/><rect x="31" y="49" width="2" height="2"/><rect x="36" y="49" width="2" height="2"/><rect x="26" y="49" width="2" height="2"/></g></svg>