<svg xmlns="http://www.w3.org/2000/svg" viewBox="0 0 64 64"><g id="_18-Suggestion" data-name="18-Suggestion"><path d="M25,39l.71,4.99a3.665,3.665,0,0,1-3.3-2.93L22,39h3Z" style="fill:#faa68e"/><path d="M41,39h1l-.41,2.06a3.665,3.665,0,0,1-3.3,2.93L39,39Z" style="fill:#faa68e"/><polygon points="37 51.55 37 53 34 56 32 54 35 51 37 51.55" style="fill:#4ab8f7"/><polygon points="32 54 30 56 27 53 27 51.55 29 51 32 54" style="fill:#4ab8f7"/><polygon points="46 54 46 63 32 63 32 54 34 56 37 53 37 51.55 46 54" style="fill:#19cffc"/><polygon points="32 54 32 63 18 63 18 54 27 51.55 27 53 30 56 32 54" style="fill:#96e8ff"/><polygon points="35 47.5 35 51 32 54 29 51 29 47.5 32 49 35 47.5" style="fill:#faa68e"/><path d="M39,39l-.71,4.99L38,46l-3,1.5L32,49l-3-1.5L26,46l-.29-2.01L25,39s4,0,4-3C29,36,29,39,39,39Z" style="fill:#ffcdbe"/><path d="M29,38s.006,2.94,9.716,3L39,39c-10,0-10-3-10-3,0,3-4,3-4,3l.283,1.986C26.186,40.922,29,40.52,29,38Z" style="fill:#ffbeaa"/><path d="M42,35l-1,4H39c-10,0-10-3-10-3,0,3-4,3-4,3H23l-1-4a10,10,0,0,1,20,0Z" style="fill:#595959"/><path d="M24.93,30.93A10,10,0,0,1,41.775,35.9L42,35a10,10,0,0,0-20,0l.225.9A9.989,9.989,0,0,1,24.93,30.93Z" style="fill:#474747"/><path d="M63,43V57a2.006,2.006,0,0,1-2,2H52a2.006,2.006,0,0,1-2-2V48l-4-4h4V43a2.006,2.006,0,0,1,2-2h9A2.006,2.006,0,0,1,63,43Z" style="fill:#e4e4e4"/><path d="M53,43a2.006,2.006,0,0,1,2-2H52a2.006,2.006,0,0,0-2,2v1h3Z" style="fill:#c1c1c1"/><path d="M53,57V48l-4-4H46l4,4v9a2.006,2.006,0,0,0,2,2h3A2.006,2.006,0,0,1,53,57Z" style="fill:#c1c1c1"/><path d="M21,48H17v1a2.006,2.006,0,0,1-2,2H3a2.006,2.006,0,0,1-2-2V35a2.006,2.006,0,0,1,2-2H15a2.006,2.006,0,0,1,2,2v9Z" style="fill:#e4e4e4"/><path d="M4,49V35a2.006,2.006,0,0,1,2-2H3a2.006,2.006,0,0,0-2,2V49a2.006,2.006,0,0,0,2,2H6A2.006,2.006,0,0,1,4,49Z" style="fill:#c1c1c1"/><polygon points="56 14 46 24 42 20 44 18 46 20 54 12 56 14" style="fill:#ffb0b0"/><path d="M63,9V27a2.006,2.006,0,0,1-2,2H53l-5,5V29H40a9.99,9.99,0,0,0-5-3.54V9a2.006,2.006,0,0,1,2-2H61A2.006,2.006,0,0,1,63,9ZM46,24,56,14l-2-2-8,8-2-2-2,2Z" style="fill:#ff636e"/><polygon points="59 14 57 12 55.5 13.5 56 14 47.5 22.5 49 24 59 14" style="fill:#ff475a"/><rect x="45.439" y="18.646" width="2.121" height="0.707" transform="translate(0.185 38.445) rotate(-45)" style="fill:#ff475a"/><path d="M49,29H48v5l3-3h0A2,2,0,0,0,49,29Z" style="fill:#ff475a"/><path d="M38,25.46V9a2.006,2.006,0,0,1,2-2H37a2.006,2.006,0,0,0-2,2V25.46A9.99,9.99,0,0,1,40,29h3A9.99,9.99,0,0,0,38,25.46Z" style="fill:#ff475a"/><path d="M29,3V21a2.006,2.006,0,0,1-2,2H16v5l-5-5H3a2.006,2.006,0,0,1-2-2V3A2.006,2.006,0,0,1,3,1H27A2.006,2.006,0,0,1,29,3Z" style="fill:#ffc170"/><polygon points="14 23 11 23 16 28 16 25 14 23" style="fill:#fc9942"/><path d="M4,21V3A2.006,2.006,0,0,1,6,1H3A2.006,2.006,0,0,0,1,3V21a2.006,2.006,0,0,0,2,2H6A2.006,2.006,0,0,1,4,21Z" style="fill:#fc9942"/><rect x="4" y="37" width="2" height="2" style="fill:#848484"/><rect x="8" y="37" width="6" height="2" style="fill:#848484"/><rect x="4" y="41" width="10" height="2" style="fill:#848484"/><rect x="4" y="45" width="10" height="2" style="fill:#848484"/><rect x="52" y="45" width="2" height="2" style="fill:#848484"/><rect x="56" y="45" width="4" height="2" style="fill:#848484"/><rect x="52" y="49" width="8" height="2" style="fill:#848484"/><rect x="52" y="53" width="8" height="2" style="fill:#848484"/><path d="M15,17H13V15a1,1,0,0,1,1-1,4,4,0,1,0-4-4H8a6,6,0,1,1,7,5.917Z" style="fill:#ff873c"/><rect x="13" y="18" width="2" height="2" style="fill:#ff873c"/><path d="M61,6H37a3,3,0,0,0-3,3V24.191A10.962,10.962,0,0,0,21,35a.984.984,0,0,0,.03.242l.7,2.818a.983.983,0,0,0-.508.306,1,1,0,0,0-.207.83l.412,2.059a4.661,4.661,0,0,0,3.39,3.575l.188,1.312a1,1,0,0,0,.543.753L28,48.118v2.118l-10.263,2.8A1,1,0,0,0,17,54v9a1,1,0,0,0,1,1H46a1,1,0,0,0,1-1V54a1,1,0,0,0-.737-.965L36,50.236V48.118L38.447,46.9a1,1,0,0,0,.543-.753l.188-1.312a4.661,4.661,0,0,0,3.39-3.575L42.98,39.2a1,1,0,0,0-.207-.83.983.983,0,0,0-.508-.306l.7-2.818A.984.984,0,0,0,43,35a10.928,10.928,0,0,0-1.214-5H47v4a1,1,0,0,0,.617.924A.987.987,0,0,0,48,35a1,1,0,0,0,.707-.293L53.414,30H61a3,3,0,0,0,3-3V9A3,3,0,0,0,61,6ZM32,26a9.009,9.009,0,0,1,9,8.88L40.22,38H39c-7.98,0-8.943-1.942-9-2.094A1,1,0,0,0,28,36c0,1.959-2.881,2-3,2H23.78L23,34.88A9.009,9.009,0,0,1,32,26ZM23.393,40.862,23.22,40h.912l.36,2.517A2.643,2.643,0,0,1,23.393,40.862ZM28.7,52.117,30.586,54,30,54.586l-2-2v-.277Zm6.594,0,.7.192v.277l-2,2L33.414,54ZM19,54.764l7-1.909V53a1,1,0,0,0,.293.707l3,3a1,1,0,0,0,1.414,0L31,56.414V62H19ZM45,62H33V56.414l.293.293a1,1,0,0,0,1.414,0l3-3A1,1,0,0,0,38,53v-.145l7,1.909ZM34,50.586l-2,2-2-2V49.118l1.553.777a1,1,0,0,0,.894,0L34,49.118Zm3.084-5.246L32,47.882,26.916,45.34,26.138,39.9a4.99,4.99,0,0,0,3.223-1.788c1.278.9,3.743,1.758,8.488,1.878Zm3.523-4.478a2.643,2.643,0,0,1-1.1,1.655L39.868,40h.912ZM62,27a1,1,0,0,1-1,1H53a1,1,0,0,0-.707.293L49,31.586V29a1,1,0,0,0-1-1H40.479A11.044,11.044,0,0,0,36,24.764V9a1,1,0,0,1,1-1H61a1,1,0,0,1,1,1Z"/><path d="M3,24h7.586l4.707,4.707A1,1,0,0,0,17,28V24H27a3,3,0,0,0,3-3V3a3,3,0,0,0-3-3H3A3,3,0,0,0,0,3V21A3,3,0,0,0,3,24ZM2,3A1,1,0,0,1,3,2H27a1,1,0,0,1,1,1V21a1,1,0,0,1-1,1H16a1,1,0,0,0-1,1v2.586l-3.293-3.293A1,1,0,0,0,11,22H3a1,1,0,0,1-1-1Z"/><path d="M14,6a4,4,0,0,1,0,8,1,1,0,0,0-1,1v2h2V15.917A6,6,0,1,0,8,10h2A4,4,0,0,1,14,6Z"/><rect x="13" y="18" width="2" height="2"/><path d="M54.707,11.293a1,1,0,0,0-1.414,0L46,18.586l-1.293-1.293a1,1,0,0,0-1.414,0l-2,2a1,1,0,0,0,0,1.414l4,4a1,1,0,0,0,1.414,0l10-10a1,1,0,0,0,0-1.414ZM46,22.586,43.414,20,44,19.414l1.293,1.293a1,1,0,0,0,1.414,0L54,13.414l.586.586Z"/><path d="M18,49h3a1,1,0,0,0,.707-1.707L18,43.586V35a3,3,0,0,0-3-3H3a3,3,0,0,0-3,3V49a3,3,0,0,0,3,3H15A3,3,0,0,0,18,49Zm-2-1v1a1,1,0,0,1-1,1H3a1,1,0,0,1-1-1V35a1,1,0,0,1,1-1H15a1,1,0,0,1,1,1v9a1,1,0,0,0,.293.707L18.586,47H17A1,1,0,0,0,16,48Z"/><path d="M61,40H52a3,3,0,0,0-3,3H46a1,1,0,0,0-.707,1.707L49,48.414V57a3,3,0,0,0,3,3h9a3,3,0,0,0,3-3V43A3,3,0,0,0,61,40Zm1,17a1,1,0,0,1-1,1H52a1,1,0,0,1-1-1V48a1,1,0,0,0-.293-.707L48.414,45H50a1,1,0,0,0,1-1V43a1,1,0,0,1,1-1h9a1,1,0,0,1,1,1Z"/><rect x="4" y="37" width="2" height="2"/><rect x="8" y="37" width="6" height="2"/><rect x="4" y="41" width="10" height="2"/><rect x="4" y="45" width="10" height="2"/><rect x="52" y="45" width="2" height="2"/><rect x="56" y="45" width="4" height="2"/><rect x="52" y="49" width="8" height="2"/><rect x="52" y="53" width="8" height="2"/></g></svg>