<svg xmlns="http://www.w3.org/2000/svg" viewBox="0 0 64 64"><g id="Layer_2" data-name="Layer 2"><path d="M39,22l-3-2-4,8.667L28,20l-3,2,4.612,10.147a4.008,4.008,0,0,1,.357,1.789L29,63h6l-.969-29.064a4.008,4.008,0,0,1,.357-1.789Z" style="fill:#c67a60"/><path d="M33.628,25.14a9.941,9.941,0,0,1,3.394,1.211L39,22l-3-2Z" style="fill:#b26049"/><path d="M32.1,57.1l.872-26.166a4.014,4.014,0,0,0-.356-1.788l-.415-.911-.2.43L28,20l-3,2,4.613,10.148a4.014,4.014,0,0,1,.356,1.788L29,63h6l-.1-3h0A2.8,2.8,0,0,1,32.1,57.1Z" style="fill:#b26049"/><path d="M32,1C18.193,1,7,9.059,7,19c0,6.7,5.077,12.535,12.61,15.636a1.72,1.72,0,0,0,2.39-1.6,9.284,9.284,0,0,1,.181-1.86,10.166,10.166,0,0,1,10.255-8.165A10,10,0,0,1,42,33v.027a1.712,1.712,0,0,0,2.37,1.617C51.914,31.545,57,25.7,57,19,57,9.059,45.807,1,32,1Z" style="fill:#85b27c"/><path d="M46,7.313a1.006,1.006,0,0,1-.472-.118c-.609-.327-1.256-.636-1.92-.921a1,1,0,1,1,.786-1.838c.718.306,1.418.642,2.08,1A1,1,0,0,1,46,7.313Z" style="fill:#fff"/><path d="M10,16a14.282,14.282,0,0,1,3.317-8.955C9.39,10.224,7,14.41,7,19c0,6.694,5.076,12.533,12.606,15.634A1.725,1.725,0,0,0,22,33.042a9.437,9.437,0,0,1,.143-1.613C14.872,28.281,10,22.554,10,16Z" style="fill:#699b5d"/><path d="M56.475,12.559a1,1,0,0,0-1.8.882A12.522,12.522,0,0,1,56,19c0,6.037-4.6,11.676-12.01,14.719a.7.7,0,0,1-.669-.06A.755.755,0,0,1,43,33,10.973,10.973,0,0,0,32.479,22.01,11.119,11.119,0,0,0,21.2,30.979a10.413,10.413,0,0,0-.2,2.059.716.716,0,0,1-.316.61.726.726,0,0,1-.693.063C12.6,30.667,8,25.03,8,19,8,9.626,18.767,2,32,2c8.6,0,16.6,3.305,20.876,8.626a1,1,0,1,0,1.559-1.252C49.79,3.592,41.193,0,32,0,17.663,0,6,8.523,6,19c0,6.856,5.069,13.2,13.229,16.561a2.73,2.73,0,0,0,2.571-.253,2.691,2.691,0,0,0,.608-.587l6.439,2.861L28,62.967A1,1,0,0,0,29,64h6a1,1,0,0,0,1-1.033l-.846-25.385,6.437-2.861a2.585,2.585,0,0,0,2.117,1.054,2.732,2.732,0,0,0,1.043-.207C52.923,32.212,58,25.863,58,19A14.518,14.518,0,0,0,56.475,12.559Zm-16.948,15.5-2.184,2.184-1.5,1.127L38.1,26.388A9.028,9.028,0,0,1,39.527,28.059Zm1.252,2.993a9.132,9.132,0,0,1,.21,1.747l-1.184.526Zm-7.757-6.986L32,26.28l-1.019-2.207a8.725,8.725,0,0,1,1.413-.065C32.606,24.017,32.814,24.043,33.022,24.066Zm-4.636,7.8-2.679-1.607-.536-.8,2.331.466Zm-3.341-4.476a9.337,9.337,0,0,1,.877-.945l.56,1.233ZM23.011,32.8a8.481,8.481,0,0,1,.15-1.429,9.362,9.362,0,0,1,.249-.952l.758,1.137a.994.994,0,0,0,.317.3l4.464,2.678-.03.89ZM30.034,62l.934-28.031a5,5,0,0,0-.446-2.235l-2.957-6.505A9.079,9.079,0,0,1,29,24.553l2.092,4.532a1,1,0,0,0,1.816,0l2.109-4.569a8.914,8.914,0,0,1,1.441.66l-2.98,6.557a5.01,5.01,0,0,0-.446,2.236L33.966,62Zm5.015-27.537,3.085-2.314-1.016,2.37-2.037.906Z"/></g></svg>