<svg xmlns="http://www.w3.org/2000/svg" viewBox="0 0 64 64"><title>18-Ying yang</title><g id="_18-Ying_yang" data-name="18-Ying yang"><circle cx="32" cy="12" r="3" style="fill:#e9edf5"/><path d="M32,37a3,3,0,1,0-3-3A3,3,0,0,0,32,37Zm8,2H26l-3.73,3.73A21.993,21.993,0,0,1,31.35,1.02,11,11,0,0,0,32,23a11,11,0,0,1,8,18.55Z" style="fill:#e9edf5"/><circle cx="32" cy="34" r="3" style="fill:#7e8596"/><path d="M31.35,1.02C31.56,1,31.78,1,32,1s.44,0,.65.02a21.991,21.991,0,0,1,7.7,42.33L40,43V41.55A11,11,0,0,0,32,23a11,11,0,0,1-.65-21.98ZM35,12a3,3,0,1,0-3,3A3,3,0,0,0,35,12Z" style="fill:#7e8596"/><rect x="11.172" y="46.515" width="5.657" height="16.971" transform="translate(-34.79 26.009) rotate(-45)" style="fill:#cf6799"/><polygon points="25 56 22 59 10 47 13 44 17 48 22 53 25 56" style="fill:#ff73a5"/><polygon points="40 41.55 40 43 40.35 43.35 42 45 54.94 39.82 57 39 58 43 42 51 26 50 22 53 17 48 21.29 43.71 22.27 42.73 26 39 40 39 40 41.55" style="fill:#ffdecf"/><polygon points="40 43.55 40 45 40.35 45.35 42 47 54.94 41.82 57 41 57.556 43.222 58 43 57 39 54.94 39.82 42 45 40.35 43.35 40 43 40 43.55" style="fill:#ffbeaa"/><polygon points="21.29 45.71 22.27 44.73 26 41 40 41 40 39 26 39 22.27 42.73 21.29 43.71 17 48 18 49 21.29 45.71" style="fill:#ffbeaa"/><path d="M58.97,42.758l-1-4a1,1,0,0,0-1.34-.687L42.241,43.826l-.163-.163A22.985,22.985,0,0,0,32.745.024a8.212,8.212,0,0,0-1.471,0h-.009A22.988,22.988,0,0,0,20.611,42.975L17,46.586l-3.293-3.293a1,1,0,0,0-1.414,0l-3,3-4,4a1,1,0,0,0,0,1.414l12,12a1,1,0,0,0,1.414,0l4-4,3-3a1,1,0,0,0,0-1.414l-2.185-2.185,2.784-2.087L41.937,52a1.021,1.021,0,0,0,.51-.1l16-8A1,1,0,0,0,58.97,42.758ZM31.444,2.016C31.624,2,31.812,2,32,2s.376,0,.622.02A20.992,20.992,0,0,1,41,41.971v-.033A12,12,0,0,0,32,22a10,10,0,0,1-.594-19.981ZM11,23A20.867,20.867,0,0,1,23.1,3.958,11.992,11.992,0,0,0,32,24a10,10,0,0,1,8.9,14.572A1,1,0,0,0,40,38H26a1,1,0,0,0-.707.293l-3.216,3.215A20.853,20.853,0,0,1,11,23Zm7,38.586L7.414,51,10,48.414,20.586,59Zm4-4L11.414,47,13,45.414l3.293,3.293,5,5L23.586,56Zm19.794-7.6L26.062,49a1.024,1.024,0,0,0-.662.2l-3.306,2.48L18.414,48l4.563-4.562L26.414,40H39v2H32v2h7.586l.057.057,1.65,1.65a1,1,0,0,0,1.079.222l13.936-5.576.527,2.111Z"/><path d="M32,16a4,4,0,1,0-4-4A4,4,0,0,0,32,16Zm0-6a2,2,0,1,1-2,2A2,2,0,0,1,32,10Z"/><path d="M36,34a4,4,0,1,0-4,4A4,4,0,0,0,36,34Zm-4,2a2,2,0,1,1,2-2A2,2,0,0,1,32,36Z"/></g></svg>