<?xml version="1.0" encoding="utf-8"?>
<!-- Generator: Adobe Illustrator 16.0.0, SVG Export Plug-In . SVG Version: 6.00 Build 0)  -->
<!DOCTYPE svg PUBLIC "-//W3C//DTD SVG 1.1//EN" "http://www.w3.org/Graphics/SVG/1.1/DTD/svg11.dtd">
<svg version="1.1" xmlns="http://www.w3.org/2000/svg" xmlns:xlink="http://www.w3.org/1999/xlink" x="0px" y="0px" width="64px"
	 height="64px" viewBox="0 0 64 64" enable-background="new 0 0 64 64" xml:space="preserve">
<g id="_x32_5_purse_x2C__money_x2C__coin_x2C__banknote_x2C__payment_x2C__shop_x2C__shopping">
</g>
<g id="_x32_4_pay_x2C__click_x2C__hand_x2C__coin_x2C__money_x2C__shop_x2C__payment">
</g>
<g id="_x32_3_card_x2C__discount_x2C__sale_x2C__shop_x2C__shopping_x2C__commerce_x2C__market">
</g>
<g id="_x32_2_safe_x2C__box_x2C__key_x2C__thing_x2C__shop_x2C__shopping_x2C__commerce">
</g>
<g id="_x32_1_cashbox_x2C__money_x2C__purchase_x2C__list_x2C__check_x2C__shop_x2C__shopping">
</g>
<g id="_x32_0_search_x2C__magnifier_x2C__basket_x2C__shop_x2C__shopping_x2C__commerce_x2C__market">
</g>
<g id="_x31_9_return_x2C__box_x2C__purchase_x2C__shipping_x2C__delivery_x2C__shop_x2C__shopping">
	<g>
		<circle fill="#A0D468" cx="30.5" cy="32" r="30"/>
		<polygon fill="#F2C397" points="41.5,19.5 21.5,19.5 17.5,23.5 45.5,23.5 		"/>
		<rect x="17.5" y="23.5" fill="#FFD2A6" width="28" height="22"/>
		<polygon fill="#DA4453" points="32.5,19.5 30.5,19.5 28.5,23.5 34.5,23.5 		"/>
		<path fill="#656D78" d="M40.499,43c0,0.275-0.225,0.5-0.5,0.5h-1c-0.275,0-0.5-0.225-0.5-0.5v-1c0-0.275,0.225-0.5,0.5-0.5h1
			c0.275,0,0.5,0.225,0.5,0.5V43z"/>
		<path fill="#656D78" d="M43.5,43c0,0.275-0.225,0.5-0.5,0.5h-1c-0.275,0-0.5-0.225-0.5-0.5v-1c0-0.275,0.225-0.5,0.5-0.5h1
			c0.275,0,0.5,0.225,0.5,0.5V43z"/>
		<g>
			<path fill="#656D78" d="M30.5,62.5C13.683,62.5,0,48.817,0,32S13.683,1.5,30.5,1.5c9.791,0,19.055,4.753,24.779,12.713
				c0.161,0.225,0.109,0.537-0.114,0.698c-0.225,0.16-0.537,0.11-0.698-0.114C48.93,7.097,39.97,2.5,30.5,2.5
				C14.233,2.5,1,15.733,1,32s13.233,29.5,29.5,29.5S60,48.267,60,32c0-0.276,0.224-0.5,0.5-0.5S61,31.724,61,32
				C61,48.817,47.317,62.5,30.5,62.5z"/>
		</g>
		<g>
			<path fill="#656D78" d="M63.5,35.5c-0.128,0-0.256-0.049-0.354-0.146l-3-3c-0.195-0.195-0.195-0.512,0-0.707s0.512-0.195,0.707,0
				l3,3c0.195,0.195,0.195,0.512,0,0.707C63.756,35.451,63.628,35.5,63.5,35.5z"/>
		</g>
		<g>
			<path fill="#656D78" d="M57.5,35.5c-0.128,0-0.256-0.049-0.354-0.146c-0.195-0.195-0.195-0.512,0-0.707l3-3
				c0.195-0.195,0.512-0.195,0.707,0s0.195,0.512,0,0.707l-3,3C57.756,35.451,57.628,35.5,57.5,35.5z"/>
		</g>
		<g>
			<path fill="#DA4453" d="M29.5,28c-0.276,0-0.5-0.224-0.5-0.5V27c0-0.276,0.224-0.5,0.5-0.5S30,26.724,30,27v0.5
				C30,27.776,29.776,28,29.5,28z"/>
		</g>
		<g>
			<path fill="#DA4453" d="M31.5,28c-0.276,0-0.5-0.224-0.5-0.5V27c0-0.276,0.224-0.5,0.5-0.5S32,26.724,32,27v0.5
				C32,27.776,31.776,28,31.5,28z"/>
		</g>
		<g>
			<path fill="#DA4453" d="M33.5,28c-0.276,0-0.5-0.224-0.5-0.5V27c0-0.276,0.224-0.5,0.5-0.5S34,26.724,34,27v0.5
				C34,27.776,33.776,28,33.5,28z"/>
		</g>
		<g>
			<path fill="#E2AD81" d="M29.5,42h-10c-0.276,0-0.5-0.224-0.5-0.5s0.224-0.5,0.5-0.5h10c0.276,0,0.5,0.224,0.5,0.5
				S29.776,42,29.5,42z"/>
		</g>
		<g>
			<path fill="#E2AD81" d="M24.5,44h-5c-0.276,0-0.5-0.224-0.5-0.5s0.224-0.5,0.5-0.5h5c0.276,0,0.5,0.224,0.5,0.5
				S24.776,44,24.5,44z"/>
		</g>
		<path fill="#ED5565" d="M34.5,24c0-0.275-0.225-0.5-0.5-0.5h-5c-0.275,0-0.5,0.225-0.5,0.5v3c0,0.275,0.225,0.5,0.5,0.5h5
			c0.275,0,0.5-0.225,0.5-0.5V24z"/>
		<rect x="28.5" y="23.5" fill="#ED5565" width="6" height="1.797"/>
	</g>
</g>
<g id="_x31_8_review_x2C__client_x2C__buyer_x2C__talk_x2C__shop_x2C__shopping_x2C__commerce">
</g>
<g id="_x31_7_manager_x2C__consultant_x2C__shop_x2C__shopping_x2C__commerce_x2C__market_x2C__badge">
</g>
<g id="_x31_6_check_x2C__list_x2C__cashbox_x2C__purchase_x2C__shop_x2C__shopping_x2C__commerce">
</g>
<g id="_x31_5_coupon_x2C__sale_x2C__discount_x2C__shop_x2C__shopping_x2C__commerce_x2C__market">
</g>
<g id="_x31_4_sale_x2C__discount_x2C__box_x2C__gift_x2C__shop_x2C__shopping_x2C__commerce">
</g>
<g id="_x31_3_map_x2C__pin_x2C__marker_x2C__location_x2C__shop_x2C__shopping_x2C__basket">
</g>
<g id="_x31_2_operator_x2C__call_x2C__center_x2C__shop_x2C__shopping_x2C__commerce_x2C__market">
</g>
<g id="_x31_1_courier_x2C__box_x2C__shipping_x2C__purchase_x2C__shop_x2C__shopping_x2C__commerce">
</g>
<g id="_x31_0_box_x2C__shipping_x2C__delivery_x2C__purchase_x2C__shop_x2C__shopping_x2C__commerce">
</g>
<g id="_x39__shipping_x2C__delivery_x2C__box_x2C__crane_x2C__shop_x2C__shopping_x2C__commerce">
</g>
<g id="_x38__computer_x2C__monitor_x2C__desktop_x2C__shop_x2C__shopping_x2C__commerce_x2C__market">
</g>
<g id="_x37__mobile_x2C__phone_x2C__app_x2C__shop_x2C__shopping_x2C__commerce_x2C__market">
</g>
<g id="_x36__food_x2C__market_x2C__purchase_x2C__shop_x2C__shopping_x2C__commerce_x2C__basket">
</g>
<g id="_x35__discount_x2C__sale_x2C__purchase_x2C__pocket_x2C__shop_x2C__shopping_x2C__commerce">
</g>
<g id="_x34__badge_x2C__discount_x2C__sale_x2C__shop_x2C__shopping_x2C__commerce_x2C__market">
</g>
<g id="_x33__food_x2C__pocket_x2C__purchase_x2C__shop_x2C__shopping_x2C__commerce_x2C__supermarket">
</g>
<g id="_x32__shop_x2C__shopping_x2C__commerce_x2C__supermarket_x2C__market_x2C__cart">
</g>
<g id="_x31__list_x2C__check_x2C__notebook_x2C__pen_x2C__shop_x2C__shopping_x2C__commerce">
</g>
</svg>
