<svg xmlns="http://www.w3.org/2000/svg" viewBox="0 0 64 64"><title>19-Coding</title><g id="_19-Coding" data-name="19-Coding"><g id="_Group_" data-name="&lt;Group&gt;"><path d="M61,64H3a3,3,0,0,1-3-3V3A3,3,0,0,1,3,0H61a3,3,0,0,1,3,3V61A3,3,0,0,1,61,64ZM3,2A1,1,0,0,0,2,3V61a1,1,0,0,0,1,1H61a1,1,0,0,0,1-1V3a1,1,0,0,0-1-1Z"/><rect x="1" y="10" width="62" height="2"/></g><rect x="5" y="5" width="2" height="2"/><rect x="9" y="5" width="2" height="2"/><rect x="14" y="5" width="45" height="2"/><path d="M34,52H30a1,1,0,0,1-.861-.491l-13-22a1,1,0,0,1,.029-1.064l4-6A1,1,0,0,1,21,22H43a1,1,0,0,1,.832.445l4,6a1,1,0,0,1,.029,1.064l-13,22A1,1,0,0,1,34,52Zm-3.43-2h2.86L45.819,29.032,42.465,24H21.535l-3.354,5.032Z"/><rect x="17" y="28" width="30" height="2"/><path d="M38,30a1,1,0,0,1-.707-.293l-5.226-5.226-4.3,5.159a1,1,0,0,1-.724.359.993.993,0,0,1-.752-.292l-6-6,1.414-1.414,5.226,5.226,4.3-5.159A1,1,0,0,1,31.955,22a.993.993,0,0,1,.752.292l5.226,5.226,4.3-5.159,1.538,1.28-5,6a1,1,0,0,1-.724.359Z"/><path d="M32,52h-.021a1,1,0,0,1-.955-.778l-5-22,1.952-.444,4.112,18.1,4.947-18.139,1.93.526-6,22A1,1,0,0,1,32,52Z"/><path d="M55,49H53V47h.865a5.865,5.865,0,0,1,.877-3.977A2.715,2.715,0,0,1,56,42.155V42h2v1a1,1,0,0,1-1,1,.812.812,0,0,0-.71.291c-.61.742-.472,2.688-.31,3.514A1,1,0,0,1,55,49Z"/><path d="M58,42H56v-.155a2.715,2.715,0,0,1-1.258-.868A5.865,5.865,0,0,1,53.865,37H53V35h2a1,1,0,0,1,.98,1.2c-.162.826-.3,2.772.31,3.514A.812.812,0,0,0,57,40a1,1,0,0,1,1,1Z"/><rect x="45" y="41" width="2" height="2"/><rect x="49" y="41" width="2" height="2"/><rect x="13" y="41" width="2" height="2"/><rect x="17" y="41" width="2" height="2"/><path d="M8,42H6V41a1,1,0,0,1,1-1,.812.812,0,0,0,.71-.291c.61-.742.472-2.688.31-3.514A1,1,0,0,1,9,35h2v2h-.865a5.865,5.865,0,0,1-.877,3.977A2.715,2.715,0,0,1,8,41.845Z"/><path d="M11,49H9a1,1,0,0,1-.98-1.2c.162-.826.3-2.772-.31-3.514A.812.812,0,0,0,7,44a1,1,0,0,1-1-1V42H8v.155a2.715,2.715,0,0,1,1.258.868A5.865,5.865,0,0,1,10.135,47H11Z"/></g></svg>