<svg xmlns="http://www.w3.org/2000/svg" viewBox="0 0 64 64"><g id="_19-Fishing_Barometer" data-name="19-Fishing Barometer"><path d="M35,2V5l-.02.15a29.676,29.676,0,0,0-5.96,0L29,5V2a1,1,0,0,1,1-1h4A1,1,0,0,1,35,2Z" style="fill:#5b6880"/><path d="M33.48,49.26,36,48v4l-2.52-1.26A3.253,3.253,0,0,1,31,52a3.7,3.7,0,0,1-3-2,3.7,3.7,0,0,1,3-2A3.253,3.253,0,0,1,33.48,49.26Z" style="fill:#5cb7ae"/><path d="M33.34,32.52A1.989,1.989,0,0,1,34,34a2,2,0,1,1-4,0,1.989,1.989,0,0,1,.66-1.48A1.934,1.934,0,0,1,32,32a1.7,1.7,0,0,1,.51.07A1.92,1.92,0,0,1,33.34,32.52Z" style="fill:#475163"/><path d="M42,34a9.987,9.987,0,0,1-5.21,8.78L33,35.83l-.04-.07A2.028,2.028,0,0,0,34,34a1.989,1.989,0,0,0-.66-1.48L38,26A9.991,9.991,0,0,1,42,34Z" style="fill:#5cb7ae"/><path d="M34.57,24.34A9.967,9.967,0,0,0,26,26l4.66,6.52A1.934,1.934,0,0,1,32,32a1.7,1.7,0,0,1,.51.07,1.92,1.92,0,0,1,.83.45L38,26A9.852,9.852,0,0,0,34.57,24.34Z" style="fill:#6da3c4"/><path d="M31.04,35.76l-.04.07-3.79,6.95A10,10,0,0,1,26,26l4.66,6.52A1.989,1.989,0,0,0,30,34,2.028,2.028,0,0,0,31.04,35.76Z" style="fill:#993c35"/><path d="M41.58,51.57l2.39,4.38a25.014,25.014,0,0,1-23.94,0l2.39-4.38,4.79-8.79L31,35.83l.04-.07a2.04,2.04,0,0,0,1.92,0l.04.07,3.79,6.95ZM36,52V48l-2.52,1.26A3.253,3.253,0,0,0,31,48a3.7,3.7,0,0,0-3,2,3.7,3.7,0,0,0,3,2,3.253,3.253,0,0,0,2.48-1.26Z" style="fill:#dddcd7"/><path d="M51.97,33a19.995,19.995,0,0,0-39.94,0c-.02.33-.03.67-.03,1a19.938,19.938,0,0,0,5.86,14.14,20.423,20.423,0,0,0,4.56,3.43l4.79-8.79a10,10,0,0,1,7.36-18.44A9.852,9.852,0,0,1,38,26a10,10,0,0,1-1.21,16.78l4.79,8.79a20.2,20.2,0,0,0,4.56-3.43A19.938,19.938,0,0,0,52,34C52,33.67,51.99,33.33,51.97,33Z" style="fill:#edece7"/><path d="M51.97,33a19.995,19.995,0,0,0-39.94,0c-.02.33-.03.67-.03,1a19.938,19.938,0,0,0,5.86,14.14,20.423,20.423,0,0,0,4.56,3.43l-2.39,4.38a25,25,0,1,1,23.94,0l-2.39-4.38a20.2,20.2,0,0,0,4.56-3.43A19.938,19.938,0,0,0,52,34C52,33.67,51.99,33.33,51.97,33Z" style="fill:#99c3de"/><path d="M43.97,55.95A25.014,25.014,0,1,0,32,59,24.995,24.995,0,0,0,43.97,55.95ZM63,31v6H60.85a29.006,29.006,0,0,1-57.7,0H1V31H3.15a29.006,29.006,0,0,1,57.7,0Z" style="fill:#6293b1"/><path d="M34,3.15H30a1,1,0,0,1-1-1V5l.02.15a29.676,29.676,0,0,1,5.96,0L35,5V2.15A1,1,0,0,1,34,3.15Z" style="fill:#475163"/><path d="M54,34A22,22,0,1,0,21.466,53.318l.954-1.748a20.423,20.423,0,0,1-4.56-3.43A19.938,19.938,0,0,1,12,34c0-.33.01-.67.03-1a19.995,19.995,0,0,1,39.94,0c.02.33.03.67.03,1a19.938,19.938,0,0,1-5.86,14.14,20.2,20.2,0,0,1-4.56,3.43l.954,1.748A22,22,0,0,0,54,34Z" style="fill:#6293b1"/><path d="M19.6,55.7l-.028.047L20,56l.469.189.007-.012c-.148-.077-.3-.147-.446-.227S19.744,55.779,19.6,55.7Z" style="fill:#353e61"/><rect x="33" y="55" width="7" height="1" style="fill:#a6a0a1"/><rect x="24" y="55" width="7" height="1" style="fill:#a6a0a1"/><path d="M44.342,54.54l-1.42-2.6a21,21,0,1,0-21.844,0l-1.435,2.631A24.01,24.01,0,0,1,8,34H6a26,26,0,0,0,51.918,2.079l-1.994-.158A24.039,24.039,0,0,1,44.342,54.54ZM19.288,48.126,22.1,45.313,20.687,43.9l-2.813,2.814A18.918,18.918,0,0,1,13,34h4V32H13.107A18.92,18.92,0,0,1,17.9,21.312L20.687,24.1,22.1,22.687,19.312,19.9A18.892,18.892,0,0,1,31,15.051V19h2V15.051A18.892,18.892,0,0,1,44.688,19.9L41.9,22.687,43.313,24.1,46.1,21.312A18.92,18.92,0,0,1,50.893,32H47v2h4a18.913,18.913,0,0,1-4.874,12.712L43.313,43.9,41.9,45.313l2.812,2.813a19.066,19.066,0,0,1-2.749,2.049l-3.838-7.036a10.991,10.991,0,0,0-2.338-19.454L36.4,21.4l.772,1.158,1.664-1.11-2-3-.006,0a.957.957,0,0,0-.243-.261,1,1,0,0,0-1.138-.02l-3,2,1.11,1.664.8-.531-.5,1.868a10.994,10.994,0,0,0-7.977,19.97l-3.838,7.037A19.156,19.156,0,0,1,19.288,48.126Zm7.553-6.757a8.976,8.976,0,0,1-1.018-13.9L29.416,32.5a2.93,2.93,0,0,0,.358,3.489Zm4.917-10.345a2.979,2.979,0,0,0-.814.178l-3.525-4.935A8.935,8.935,0,0,1,32,25a9.052,9.052,0,0,1,1.336.11Zm3.511-5.4a8.908,8.908,0,0,1,1.312.643l-2.367,3.314ZM31,34a1,1,0,1,1,1,1A1,1,0,0,1,31,34Zm3.584-1.5,3.593-5.031a8.976,8.976,0,0,1-1.018,13.9l-2.933-5.377a2.93,2.93,0,0,0,.358-3.489ZM21.4,55.524l10.13-18.572a2.345,2.345,0,0,0,.944,0L42.591,55.5a23.827,23.827,0,0,1-21.193.02Z"/><path d="M32,8A25.939,25.939,0,0,0,6.753,27.761l1.943.478A24,24,0,0,1,56,34h2A26.029,26.029,0,0,0,32,8Z"/><path d="M8.306,30.159l-1.975-.318c-.11.683-.194,1.383-.249,2.08l1.994.158C8.126,31.436,8.2,30.789,8.306,30.159Z"/><path d="M36.526,47.149a1,1,0,0,0-.973-.044l-1.871.936A4.027,4.027,0,0,0,31,47a4.694,4.694,0,0,0-3.895,2.553,1,1,0,0,0,0,.894A4.694,4.694,0,0,0,31,53a4.027,4.027,0,0,0,2.682-1.041l1.871.936A1,1,0,0,0,37,52V48A1,1,0,0,0,36.526,47.149ZM32.72,50.093A2.248,2.248,0,0,1,31,51a2.386,2.386,0,0,1-1.8-1A2.39,2.39,0,0,1,31,49a2.248,2.248,0,0,1,1.72.907.88.88,0,0,0,.09.093A.88.88,0,0,0,32.72,50.093Zm2.28.289L34.235,50,35,49.618Z"/><path d="M63,30H61.735A29.881,29.881,0,0,0,36,4.266V2a2,2,0,0,0-2-2H30a2,2,0,0,0-2,2V4.266A29.881,29.881,0,0,0,2.265,30H1a1,1,0,0,0-1,1v6a1,1,0,0,0,1,1H2.265a30,30,0,0,0,59.47,0H63a1,1,0,0,0,1-1V31A1,1,0,0,0,63,30ZM30,2h4V4.073C33.338,4.03,32.673,4,32,4s-1.338.03-2,.073ZM62,36H60.846a1,1,0,0,0-.995.9,28,28,0,0,1-55.7,0,1,1,0,0,0-1-.9H2V32H3.154a1,1,0,0,0,1-.9,28,28,0,0,1,55.7,0,1,1,0,0,0,.995.9H62Z"/></g></svg>