<svg xmlns="http://www.w3.org/2000/svg" xmlns:xlink="http://www.w3.org/1999/xlink" viewBox="0 0 64 64"><defs><linearGradient id="linear-gradient" x1="32" y1="1.304" x2="32" y2="63.304" gradientUnits="userSpaceOnUse"><stop offset="0" stop-color="#ff3d3d"/><stop offset="0.307" stop-color="#db2a28"/><stop offset="0.771" stop-color="#a90f0b"/><stop offset="1" stop-color="#960500"/></linearGradient><linearGradient id="linear-gradient-2" x1="43" y1="34.075" x2="43" y2="26.102" gradientUnits="userSpaceOnUse"><stop offset="0.005" stop-color="#414d4d"/><stop offset="0.206" stop-color="#3a4545"/><stop offset="0.522" stop-color="#272e2e"/><stop offset="0.914" stop-color="#080909"/><stop offset="1"/></linearGradient><linearGradient id="linear-gradient-3" x1="21" y1="34.019" x2="21" y2="26.216" xlink:href="#linear-gradient-2"/></defs><g id="_19-Pouting_Face" data-name="19-Pouting Face"><path d="M32,63C4.3,63,.962,39,1,33V31C.962,25,4.3,1,32,1h0C59.7,1,63.038,25,63,31v2C63.038,39,59.7,63,32,63Z" style="fill:url(#linear-gradient)"/><path d="M43.023,26a7.788,7.788,0,0,0-2.834,2.64A5.177,5.177,0,0,0,40,30c0,2.209,1.343,4,3,4s3-1.791,3-4S44.669,26.02,43.023,26Z" style="fill:url(#linear-gradient-2)"/><path d="M20.977,26a7.788,7.788,0,0,1,2.834,2.64A5.177,5.177,0,0,1,24,30c0,2.209-1.343,4-3,4s-3-1.791-3-4S19.331,26.02,20.977,26Z" style="fill:url(#linear-gradient-3)"/><path d="M55.045,10c.592.649,1.141,1.318,1.651,2" style="fill:none;stroke:#1d1d1b;stroke-linejoin:round;stroke-width:2px"/><path d="M8.09,53C2.05,45.666.977,36.416,1,33V31C.96,25,4.3,1,32,1c9.68,0,16.385,2.931,21.011,7" style="fill:none;stroke:#1d1d1b;stroke-linejoin:round;stroke-width:2px"/><path d="M58.061,14A34.4,34.4,0,0,1,63,30.89V33c.04,6-3.3,30-31,30-10.393,0-17.357-3.379-22-7.918" style="fill:none;stroke:#1d1d1b;stroke-linejoin:round;stroke-width:2px"/><path d="M21,50s.863-2.716,4.749-4.592a14.582,14.582,0,0,1,12.5,0C42.137,47.284,43,50,43,50" style="fill:none;stroke:#1d1d1b;stroke-linejoin:round;stroke-width:2px"/><path d="M43.023,26a7.788,7.788,0,0,0-2.834,2.64A5.177,5.177,0,0,0,40,30c0,2.209,1.343,4,3,4s3-1.791,3-4S44.669,26.02,43.023,26Z" style="fill:none;stroke:#1d1d1b;stroke-linejoin:round;stroke-width:2px"/><path d="M40,29s2-5,12-5" style="fill:none;stroke:#1d1d1b;stroke-linejoin:round;stroke-width:2px"/><path d="M20.977,26a7.788,7.788,0,0,1,2.834,2.64A5.177,5.177,0,0,1,24,30c0,2.209-1.343,4-3,4s-3-1.791-3-4S19.331,26.02,20.977,26Z" style="fill:none;stroke:#1d1d1b;stroke-linejoin:round;stroke-width:2px"/><path d="M24,29s-2-5-12-5" style="fill:none;stroke:#1d1d1b;stroke-linejoin:round;stroke-width:2px"/></g></svg>