<svg xmlns="http://www.w3.org/2000/svg" viewBox="0 0 90 90"><title>19-Programming</title><g id="_19-Programming" data-name="19-Programming"><g id="_Group_" data-name="&lt;Group&gt;"><path d="M73.341,12.662a43,43,0,0,0-56.682,0l-1.318-1.5a45,45,0,0,1,59.318,0Z"/><path d="M45,90A45,45,0,0,1,8.183,19.124l1.634,1.152A43,43,0,0,0,73.379,77.3a43,43,0,0,0,7.009-56.732l1.644-1.136A45.005,45.005,0,0,1,45,90Z"/><path d="M82,70H80V14a1,1,0,0,0-1-1H11a1,1,0,0,0-1,1V70H8V14a3,3,0,0,1,3-3H79a3,3,0,0,1,3,3Z"/><path d="M15,21a3,3,0,1,1,3-3A3,3,0,0,1,15,21Zm0-4a1,1,0,1,0,1,1A1,1,0,0,0,15,17Z"/><path d="M23,21a3,3,0,1,1,3-3A3,3,0,0,1,23,21Zm0-4a1,1,0,1,0,1,1A1,1,0,0,0,23,17Z"/><rect x="72" y="15" width="5" height="2"/><rect x="72" y="19" width="5" height="2"/><rect x="9" y="23" width="72" height="2"/><rect x="67" y="12" width="2" height="12"/><path d="M75,78H73V32a1,1,0,0,0-1-1H18a1,1,0,0,0-1,1V78H15V32a3,3,0,0,1,3-3H72a3,3,0,0,1,3,3Z"/><rect x="16" y="34" width="58" height="2"/><path d="M54,84a1,1,0,0,1-.979-.8C52.982,83.037,51.97,79,44,79H26a5.006,5.006,0,0,1-5-5V44a5.006,5.006,0,0,1,5-5H64a5.006,5.006,0,0,1,5,5V74a5.006,5.006,0,0,1-5,5H55v4a1,1,0,0,1-.9,1C54.065,84,54.032,84,54,84ZM26,41a3,3,0,0,0-3,3V74a3,3,0,0,0,3,3H44c4.736,0,7.453,1.325,9,2.71V78a1,1,0,0,1,1-1H64a3,3,0,0,0,3-3V44a3,3,0,0,0-3-3Z"/><path d="M28.707,54.707l-1.414-1.414L30.586,50l-3.293-3.293,1.414-1.414,4,4a1,1,0,0,1,0,1.414Z"/><rect x="33" y="53" width="6" height="2"/><rect x="27" y="71" width="36" height="2"/><rect x="27" y="66" width="36" height="2"/><rect x="27" y="61" width="36" height="2"/><rect x="45" y="56" width="18" height="2"/><rect x="57" y="51" width="6" height="2"/></g></g></svg>