<svg xmlns="http://www.w3.org/2000/svg" viewBox="0 0 64 64"><g id="_19-report" data-name="19-report"><path d="M45,59a3.995,3.995,0,0,1,4,4H15a4,4,0,0,1,4-4Z" style="fill:#c1c1c1"/><polygon points="43 53 45 59 19 59 21 53 43 53" style="fill:#9c9c9c"/><path d="M63,11V51a2.006,2.006,0,0,1-2,2H3a2.006,2.006,0,0,1-2-2V11A2.006,2.006,0,0,1,3,9H61A2.006,2.006,0,0,1,63,11ZM59,45V15a2.006,2.006,0,0,0-2-2H7a2.006,2.006,0,0,0-2,2V45a2.006,2.006,0,0,0,2,2H57A2.006,2.006,0,0,0,59,45Z" style="fill:#e4e4e4"/><path d="M57,11H7a2.006,2.006,0,0,0-2,2v2a2.006,2.006,0,0,1,2-2H57a2.006,2.006,0,0,1,2,2V13A2.006,2.006,0,0,0,57,11Z" style="fill:#c1c1c1"/><path d="M61,51H3a2.006,2.006,0,0,1-2-2v2a2.006,2.006,0,0,0,2,2H61a2.006,2.006,0,0,0,2-2V49A2.006,2.006,0,0,1,61,51Z" style="fill:#c1c1c1"/><rect x="5" y="13" width="54" height="34" rx="2" style="fill:#80dbff"/><path d="M8,45V15a2.006,2.006,0,0,1,2-2H7a2.006,2.006,0,0,0-2,2V45a2.006,2.006,0,0,0,2,2h3A2.006,2.006,0,0,1,8,45Z" style="fill:#19cffc"/><path d="M56,45V15a2.006,2.006,0,0,0-2-2h3a2.006,2.006,0,0,1,2,2V45a2.006,2.006,0,0,1-2,2H54A2.006,2.006,0,0,0,56,45Z" style="fill:#19cffc"/><polygon points="43 53 21 53 20.333 55 43.667 55 43 53" style="fill:#848484"/><rect x="17" y="37" width="6" height="6" style="fill:#00c8c8"/><rect x="17" y="27" width="6" height="6" style="fill:#00c8c8"/><rect x="17" y="27" width="3" height="6" style="fill:#64e1dc"/><rect x="17" y="37" width="3" height="6" style="fill:#64e1dc"/><circle cx="32" cy="14" r="9" style="fill:#00c8c8"/><path d="M26,14a9,9,0,0,1,7.5-8.865,9,9,0,1,0,0,17.73A9,9,0,0,1,26,14Z" style="fill:#1cadb5"/><path d="M17,1V7H11Z" style="fill:#9c9c9c"/><path d="M53,1V47H11V7h6V1ZM41,14a9,9,0,1,0-9,9A9,9,0,0,0,41,14ZM23,43V37H17v6Zm0-10V27H17v6Z" style="fill:#f0f0f0"/><path d="M35,5a9.045,9.045,0,0,0-1.5.135,8.989,8.989,0,0,1,0,17.73A9,9,0,1,0,35,5Z" style="fill:#d9d9d9"/><rect x="23" y="27" width="3" height="6" style="fill:#d9d9d9"/><rect x="23" y="37" width="3" height="6" style="fill:#d9d9d9"/><rect x="17" y="1" width="3" height="6" style="fill:#d9d9d9"/><rect x="11" y="7" width="3" height="40" style="fill:#d9d9d9"/><rect x="26" y="27" width="2" height="2" style="fill:#6e6e6e"/><rect x="30" y="27" width="17" height="2" style="fill:#6e6e6e"/><rect x="26" y="31" width="21" height="2" style="fill:#6e6e6e"/><rect x="26" y="37" width="2" height="2" style="fill:#6e6e6e"/><rect x="30" y="37" width="17" height="2" style="fill:#6e6e6e"/><rect x="26" y="41" width="21" height="2" style="fill:#6e6e6e"/><path d="M30,18a1,1,0,0,1-.707-.293l-2-2,1.414-1.414L30,15.586l5.293-5.293,1.414,1.414-6,6A1,1,0,0,1,30,18Z" style="fill:#cbf7f7"/><path d="M61,8H54V1a1,1,0,0,0-1-1H17a1,1,0,0,0-.707.293l-6,6A1,1,0,0,0,10,7V8H3a3,3,0,0,0-3,3V51a3,3,0,0,0,3,3H19.612l-1.358,4.075A4.994,4.994,0,0,0,14,63a1,1,0,0,0,1,1H49a1,1,0,0,0,1-1,4.994,4.994,0,0,0-4.254-4.925L44.388,54H61a3,3,0,0,0,3-3V11A3,3,0,0,0,61,8Zm-7,6h3a1,1,0,0,1,1,1V45a1,1,0,0,1-1,1H54ZM52,46H12V8h5a1,1,0,0,0,1-1V2H52ZM7,46a1,1,0,0,1-1-1V15a1,1,0,0,1,1-1h3V46ZM13.414,6,16,3.414V6ZM47.829,62H16.171A3.006,3.006,0,0,1,19,60H45A3.006,3.006,0,0,1,47.829,62Zm-4.216-4H20.387l1.334-4H42.279ZM62,51a1,1,0,0,1-1,1H3a1,1,0,0,1-1-1V11a1,1,0,0,1,1-1h7v2H7a3,3,0,0,0-3,3V45a3,3,0,0,0,3,3H57a3,3,0,0,0,3-3V15a3,3,0,0,0-3-3H54V10h7a1,1,0,0,1,1,1Z"/><path d="M23,26H17a1,1,0,0,0-1,1v6a1,1,0,0,0,1,1h6a1,1,0,0,0,1-1V27A1,1,0,0,0,23,26Zm-1,6H18V28h4Z"/><rect x="26" y="27" width="2" height="2"/><rect x="30" y="27" width="17" height="2"/><rect x="26" y="31" width="21" height="2"/><path d="M23,36H17a1,1,0,0,0-1,1v6a1,1,0,0,0,1,1h6a1,1,0,0,0,1-1V37A1,1,0,0,0,23,36Zm-1,6H18V38h4Z"/><rect x="26" y="37" width="2" height="2"/><rect x="30" y="37" width="17" height="2"/><rect x="26" y="41" width="21" height="2"/><path d="M32,24A10,10,0,1,0,22,14,10.011,10.011,0,0,0,32,24ZM32,6a8,8,0,1,1-8,8A8.009,8.009,0,0,1,32,6Z"/><path d="M30,18a1,1,0,0,0,.707-.293l6-6-1.414-1.414L30,15.586l-1.293-1.293-1.414,1.414,2,2A1,1,0,0,0,30,18Z"/></g></svg>