<svg xmlns="http://www.w3.org/2000/svg" viewBox="0 0 64 64"><g id="Layer_2" data-name="Layer 2"><path d="M38,63H26l1.179-3.537A15.992,15.992,0,0,0,28,54.4V45h8v9.4a15.992,15.992,0,0,0,.821,5.059Z" style="fill:#c67a60"/><path d="M36,45H28v9.4a15.86,15.86,0,0,1-.155,2.134,18.915,18.915,0,0,0,8.31,0A15.86,15.86,0,0,1,36,54.4Z" style="fill:#b26049"/><path d="M31.179,56.463h0A15.992,15.992,0,0,0,32,51.4V45H28v9.4a15.992,15.992,0,0,1-.821,5.059L26,63H38l-1-3H33.728A2.687,2.687,0,0,1,31.179,56.463Z" style="fill:#b26049"/><path d="M50,33c0,14.912-8.059,22-18,22S14,47.912,14,33,22.059,1,32,1,50,18.088,50,33Z" style="fill:#629955"/><path d="M35,52c-9.941,0-18-7.088-18-22,0-9.659,3.384-20.225,8.467-26.474C18.757,8.817,14,21.546,14,33c0,14.912,8.059,22,18,22a16.511,16.511,0,0,0,13.508-6.383A17.062,17.062,0,0,1,35,52Z" style="fill:#508c3f"/><path d="M32,1C22.059,1,14,18.088,14,33a34.213,34.213,0,0,0,.507,5.968,3.744,3.744,0,0,0,.643,1.555A5.982,5.982,0,0,0,20,43c.173,0,.344-.012.513-.026a5.969,5.969,0,0,0,6.681,1.606,5.982,5.982,0,0,0,9.612,0,5.969,5.969,0,0,0,6.681-1.606c.169.014.34.026.513.026a5.982,5.982,0,0,0,4.85-2.477,3.744,3.744,0,0,0,.643-1.555A34.213,34.213,0,0,0,50,33C50,18.088,41.941,1,32,1Z" style="fill:#85b27c"/><path d="M46.959,40c-.173,0-.344-.012-.513-.026A5.98,5.98,0,0,1,41.959,42a5.92,5.92,0,0,1-1.145-.112,2.011,2.011,0,0,0-1.779.507,5.978,5.978,0,0,1-8.152,0,2.011,2.011,0,0,0-1.779-.507A5.92,5.92,0,0,1,27.959,42a5.98,5.98,0,0,1-4.487-2.026c-.169.014-.34.026-.513.026a5.984,5.984,0,0,1-4.85-2.476,3.752,3.752,0,0,1-.643-1.557A34.193,34.193,0,0,1,16.959,30c0-9.659,3.384-20.225,8.467-26.474C18.716,8.817,13.959,21.546,13.959,33a34.193,34.193,0,0,0,.507,5.967,3.752,3.752,0,0,0,.643,1.557A5.984,5.984,0,0,0,19.959,43c.173,0,.344-.012.513-.026a5.969,5.969,0,0,0,6.681,1.606,5.982,5.982,0,0,0,9.612,0,5.969,5.969,0,0,0,6.681-1.606c.169.014.34.026.513.026a5.982,5.982,0,0,0,4.85-2.477,3.56,3.56,0,0,0,.486-1.006A5.943,5.943,0,0,1,46.959,40Z" style="fill:#699b5d"/><path d="M20.021,28.917a6.955,6.955,0,0,0,6.84,1.825,6.977,6.977,0,0,0,10.278,0,6.955,6.955,0,0,0,6.84-1.825A7.008,7.008,0,0,0,45,29a6.9,6.9,0,0,0,.765-.042,3.953,3.953,0,0,0,3.381-4.677C46.825,12.141,40.027,1,32,1S17.175,12.141,14.854,24.281a3.953,3.953,0,0,0,3.381,4.677A6.9,6.9,0,0,0,19,29,7.008,7.008,0,0,0,20.021,28.917Z" style="fill:#629955"/><path d="M48,27a7.008,7.008,0,0,1-1.021-.083A6.976,6.976,0,0,1,42,29a6.886,6.886,0,0,1-.969-.07,1.965,1.965,0,0,0-1.55.439,6.971,6.971,0,0,1-8.962,0,1.965,1.965,0,0,0-1.55-.439A6.886,6.886,0,0,1,28,29a6.976,6.976,0,0,1-4.979-2.083,6.6,6.6,0,0,1-1.779.042,3.956,3.956,0,0,1-3.388-4.678C19.446,13.953,23.145,6.1,27.9,1.983c-6.178,2.968-11.135,12.289-13.048,22.3a3.955,3.955,0,0,0,3.38,4.678A6.927,6.927,0,0,0,19,29a7.008,7.008,0,0,0,1.021-.083,6.955,6.955,0,0,0,6.84,1.825,6.977,6.977,0,0,0,10.278,0,6.955,6.955,0,0,0,6.84-1.825A7.008,7.008,0,0,0,45,29a6.9,6.9,0,0,0,.765-.042,3.834,3.834,0,0,0,2.928-2A6.9,6.9,0,0,1,48,27Z" style="fill:#508c3f"/><path d="M25,17a9.1,9.1,0,0,0,1.232-.094,8.991,8.991,0,0,0,11.536,0A9.1,9.1,0,0,0,39,17a8.962,8.962,0,0,0,3.432-.679,3.987,3.987,0,0,0,1.911-5.62C41.12,4.947,36.777,1,32,1s-9.12,3.947-12.343,9.7a3.987,3.987,0,0,0,1.911,5.62A8.962,8.962,0,0,0,25,17Z" style="fill:#85b27c"/><path d="M38,6.692a1,1,0,0,1-.667-.254,11.542,11.542,0,0,0-2.172-1.559,1,1,0,1,1,.953-1.758,13.553,13.553,0,0,1,2.553,1.826A1,1,0,0,1,38,6.692Z" style="fill:#fff"/><path d="M42,15a9.1,9.1,0,0,1-1.232-.094,8.991,8.991,0,0,1-11.536,0A9.1,9.1,0,0,1,28,15h-.083a5.219,5.219,0,0,1-4.17-8.107A23.026,23.026,0,0,1,27.92,1.976c-3.151,1.507-5.986,4.661-8.261,8.723a3.993,3.993,0,0,0,1.924,5.628A8.947,8.947,0,0,0,25,17a9.1,9.1,0,0,0,1.232-.094,8.991,8.991,0,0,0,11.536,0A9.1,9.1,0,0,0,39,17a8.962,8.962,0,0,0,3.432-.679A3.866,3.866,0,0,0,44.3,14.693,8.972,8.972,0,0,1,42,15Z" style="fill:#699b5d"/><path d="M51,33a47.577,47.577,0,0,0-.868-8.867l-.012-.062C47.719,11.577,40.644,0,32,0c-5.169,0-9.775,4.146-13.158,10.147-.017.024-.1.165-.12.213A48.709,48.709,0,0,0,13,33c0,13.856,6.553,20.422,13.96,22.361a14.98,14.98,0,0,1-.73,3.785l-1.179,3.538A1,1,0,0,0,26,64H38a1,1,0,0,0,.949-1.316L37.77,59.146a14.98,14.98,0,0,1-.73-3.785C44.447,53.422,51,46.856,51,33ZM35.873,59.779,36.613,62H27.387l.74-2.221a16.975,16.975,0,0,0,.808-4.013,20.19,20.19,0,0,0,6.13,0A16.975,16.975,0,0,0,35.873,59.779ZM32,54c-7.373,0-12.769-3.991-15.331-10.856a6.808,6.808,0,0,0,3.44.855,7.062,7.062,0,0,0,6.752,1.746,6.983,6.983,0,0,0,10.278,0A7.06,7.06,0,0,0,43.891,44a6.383,6.383,0,0,0,1.275-.1,1,1,0,1,0-.332-1.972,5.172,5.172,0,0,1-1.261.047.97.97,0,0,0-.835.333,5.038,5.038,0,0,1-5.565,1.338,1,1,0,0,0-1.168.333,4.983,4.983,0,0,1-8.01,0,1,1,0,0,0-1.168-.333,5.036,5.036,0,0,1-5.565-1.338.98.98,0,0,0-.835-.333,5.065,5.065,0,0,1-4.468-2.042,2.693,2.693,0,0,1-.435-1.028A32.892,32.892,0,0,1,15,33a48.141,48.141,0,0,1,3.72-18.071,4.889,4.889,0,0,0,2.466,2.316A9.922,9.922,0,0,0,25,18a9.26,9.26,0,0,0,.936-.051,9.99,9.99,0,0,0,12.128,0A9.275,9.275,0,0,0,39,18a9.934,9.934,0,0,0,3.334-.571,1,1,0,1,0-.668-1.885A7.938,7.938,0,0,1,39,16a8.1,8.1,0,0,1-1.1-.085,1.013,1.013,0,0,0-.776.224,7.99,7.99,0,0,1-10.252,0,1,1,0,0,0-.776-.224A8.083,8.083,0,0,1,25,16a7.938,7.938,0,0,1-3.05-.6,2.883,2.883,0,0,1-1.633-1.746,3.019,3.019,0,0,1,.213-2.462l0-.01C23.552,5.749,27.573,2,32,2c7.583,0,13.973,11,16.176,22.61a3.009,3.009,0,0,1-.552,2.205,2.812,2.812,0,0,1-1.971,1.149,5.593,5.593,0,0,1-1.529-.036,1,1,0,0,0-.856.287A5.926,5.926,0,0,1,37.4,29.778a1,1,0,0,0-1,.285,5.975,5.975,0,0,1-8.808,0,1,1,0,0,0-1-.285,5.927,5.927,0,0,1-5.865-1.563,1,1,0,0,0-.856-.287,5.526,5.526,0,0,1-1.531.036c-.057-.006-.115-.014-.171-.024a1,1,0,1,0-.348,1.969c.1.018.2.031.3.043a7.327,7.327,0,0,0,1.551.015,7.9,7.9,0,0,0,6.874,1.877,7.971,7.971,0,0,0,10.9,0,7.9,7.9,0,0,0,6.874-1.877,7.229,7.229,0,0,0,1.548-.015,4.738,4.738,0,0,0,2.88-1.421A42.692,42.692,0,0,1,49,33C49,45.953,42.486,54,32,54Z"/></g></svg>