<svg xmlns="http://www.w3.org/2000/svg" viewBox="0 0 64 64"><title>19-Warrior</title><g id="_19-Warrior" data-name="19-Warrior"><path d="M39,22c0,3-2,5-2,7H25c0-2-2-4-2-7H21V18h7a5,5,0,0,0,6,0h7v4Z" style="fill:#b674f2"/><path d="M34,18a5,5,0,0,1-6,0H21v2h7a5,5,0,0,0,6,0h7V18Z" style="fill:#d2a0f5"/><path d="M37,37,53,57l-3,3L33,43H21L20,60H15V41a4,4,0,0,1,4-4H37Z" style="fill:#7e8596"/><path d="M19,41H37L51.222,58.778,53,57,37,37H19a4,4,0,0,0-4,4v4A4,4,0,0,1,19,41Z" style="fill:#707789"/><polygon points="56 60 52 63 48 63 50 60 53 57 56 60" style="fill:#ffdecf"/><polygon points="20 60 20 63 12 63 15 60 20 60" style="fill:#ffdecf"/><path d="M37,37H25c0-3,1-5,1-8H36C36,32,37,34,37,37Z" style="fill:#ffdecf"/><path d="M25.146,35A14.413,14.413,0,0,0,25,37H37a14.413,14.413,0,0,0-.146-2Z" style="fill:#ffbeaa"/><path d="M21,18v4H8a2.015,2.015,0,0,1-2-2,2.006,2.006,0,0,1,2-2Z" style="fill:#ffdecf"/><path d="M54,18a2.006,2.006,0,0,1,2,2,2.015,2.015,0,0,1-2,2H41V18Z" style="fill:#ffdecf"/><path d="M6.59,19.41A1.938,1.938,0,0,1,6.279,19,2,2,0,0,0,8,22H21V20H8A1.955,1.955,0,0,1,6.59,19.41Z" style="fill:#ffcdbe"/><path d="M55.41,19.41A1.955,1.955,0,0,1,54,20H41v2H54a1.984,1.984,0,0,0,1.721-3A1.938,1.938,0,0,1,55.41,19.41Z" style="fill:#ffcdbe"/><path d="M38,4V9L35,7a4.691,4.691,0,0,0-.46-.54,5.026,5.026,0,0,0-2.3-1.3A2.835,2.835,0,0,1,32,4a3,3,0,0,1,6,0Z" style="fill:#7e8596"/><path d="M29,18.59A5.029,5.029,0,0,1,26,14V10a5,5,0,0,1,5-5,4.635,4.635,0,0,1,1.24.16,5.026,5.026,0,0,1,2.3,1.3A4.691,4.691,0,0,1,35,7a4.941,4.941,0,0,1,1,3v4a5.029,5.029,0,0,1-3,4.59,5.083,5.083,0,0,1-4,0Z" style="fill:#ffdecf"/><path d="M33,16.59a5.083,5.083,0,0,1-4,0A5.029,5.029,0,0,1,26,12v2a5.029,5.029,0,0,0,3,4.59,5.083,5.083,0,0,0,4,0A5.029,5.029,0,0,0,36,14V12A5.029,5.029,0,0,1,33,16.59Z" style="fill:#ffcdbe"/><path d="M31,20a5.91,5.91,0,0,1-3.6-1.2A6.036,6.036,0,0,1,25,14V10a6.006,6.006,0,0,1,6-6,5.59,5.59,0,0,1,1.506.2l-.531,1.928A3.651,3.651,0,0,0,31,6a4,4,0,0,0-4,4v4a4,4,0,1,0,8,0V10a3.931,3.931,0,0,0-.8-2.4L35.8,6.4A5.906,5.906,0,0,1,37,10v4a6.037,6.037,0,0,1-2.4,4.8A5.906,5.906,0,0,1,31,20Z"/><path d="M38,10a1.006,1.006,0,0,1-.555-.168l-3-2a1.017,1.017,0,0,1-.251-.239,3.553,3.553,0,0,0-.361-.426A4.024,4.024,0,0,0,32,6.13a1,1,0,0,1-.671-.564A3.822,3.822,0,0,1,31,4a4,4,0,0,1,8,0V9a1,1,0,0,1-1,1ZM35.7,6.262l1.3.87V4a2,2,0,0,0-4,0,1.981,1.981,0,0,0,.032.356,6.06,6.06,0,0,1,2.21,1.391A5.548,5.548,0,0,1,35.7,6.262Z"/><path d="M25,23H8a3.017,3.017,0,0,1-3-3,3,3,0,0,1,3-3H28v2H8a1,1,0,0,0-1,1,.957.957,0,0,0,.288.694A.978.978,0,0,0,8,21H25Z"/><path d="M54,23H37V21H54a.965.965,0,0,0,.694-.287A.978.978,0,0,0,55,20a1,1,0,0,0-1-1H34V17H54a3,3,0,0,1,3,3,3.015,3.015,0,0,1-3,3Z"/><path d="M37,30H25a1,1,0,0,1-1-1,6.482,6.482,0,0,0-.761-2.378A10.844,10.844,0,0,1,22,22h2a9.115,9.115,0,0,0,1.063,3.8,11.711,11.711,0,0,1,.821,2.2H36.116a11.711,11.711,0,0,1,.821-2.2A9.115,9.115,0,0,0,38,22h2a10.844,10.844,0,0,1-1.239,4.622A6.482,6.482,0,0,0,38,29,1,1,0,0,1,37,30Z"/><rect x="20" y="18" width="2" height="4"/><rect x="40" y="18" width="2" height="4"/><path d="M26,37H24a20.294,20.294,0,0,1,.52-4.2A18.479,18.479,0,0,0,25,29h2a20.294,20.294,0,0,1-.52,4.2A18.479,18.479,0,0,0,26,37Z"/><path d="M50,61a1,1,0,0,1-.707-.293L32.586,44H21.943L21,60.059A1,1,0,0,1,20,61H15a1,1,0,0,1-1-1V41a5.006,5.006,0,0,1,5-5H35.96a23.086,23.086,0,0,0-.44-2.8A20.294,20.294,0,0,1,35,29h2a18.479,18.479,0,0,0,.48,3.8A21.376,21.376,0,0,1,38,36.644L53.781,56.375a1,1,0,0,1-.074,1.332l-3,3A1,1,0,0,1,50,61ZM16,59h3.057L20,42.941A1,1,0,0,1,21,42H33a1,1,0,0,1,.707.293L50,58.586l1.66-1.66L36.52,38H19a3,3,0,0,0-3,3Z"/><path d="M20,64H12a1,1,0,0,1-.707-1.707l3-3,1.414,1.414L14.414,62H19V60h2v3A1,1,0,0,1,20,64Z"/><path d="M52,64H48a1,1,0,0,1-.832-1.555l2-3,1.664,1.11L49.869,62h1.8l2.811-2.108-2.185-2.185,1.414-1.414,3,3A1,1,0,0,1,56.6,60.8l-4,3A1,1,0,0,1,52,64Z"/></g></svg>