<?xml version="1.0" encoding="utf-8"?>
<!-- Generator: Adobe Illustrator 16.0.0, SVG Export Plug-In . SVG Version: 6.00 Build 0)  -->
<!DOCTYPE svg PUBLIC "-//W3C//DTD SVG 1.1//EN" "http://www.w3.org/Graphics/SVG/1.1/DTD/svg11.dtd">
<svg version="1.1" id="Layer_1" xmlns="http://www.w3.org/2000/svg" xmlns:xlink="http://www.w3.org/1999/xlink" x="0px" y="0px"
	 width="512px" height="512px" viewBox="0 0 512 512" enable-background="new 0 0 512 512" xml:space="preserve">
<g id="_x31_9._cactus_x2C__desert_x2C__sun_x2C__wild_x2C__west_x2C__crime_x2C__bandit">
	<g>
		<g>
			<path d="M507.814,511.819H4.17c-2.21,0-3.997-1.787-3.997-3.996c0-2.211,1.787-3.998,3.997-3.998h503.645
				c2.209,0,3.997,1.787,3.997,3.998C511.812,510.032,510.023,511.819,507.814,511.819z"/>
		</g>
	</g>
	<g>
		<g>
			<g>
				<path d="M176.306,224.023c-2.209,0-4.036-1.788-4.036-3.997c0-2.21,1.749-3.998,3.95-3.998h0.086
					c2.202,0,3.998,1.788,3.998,3.998C180.304,222.235,178.508,224.023,176.306,224.023z"/>
			</g>
		</g>
		<g>
			<g>
				<path d="M176.306,271.989c-2.209,0-4.036-1.789-4.036-3.998s1.749-3.996,3.95-3.996h0.086c2.202,0,3.998,1.787,3.998,3.996
					S178.508,271.989,176.306,271.989z"/>
			</g>
		</g>
		<g>
			<g>
				<path d="M176.306,319.954c-2.209,0-4.036-1.787-4.036-3.996s1.749-3.998,3.95-3.998h0.086c2.202,0,3.998,1.789,3.998,3.998
					S178.508,319.954,176.306,319.954z"/>
			</g>
		</g>
		<g>
			<g>
				<path d="M176.306,367.921c-2.209,0-4.036-1.787-4.036-3.996c0-2.211,1.749-3.998,3.95-3.998h0.086
					c2.202,0,3.998,1.787,3.998,3.998C180.304,366.134,178.508,367.921,176.306,367.921z"/>
			</g>
		</g>
		<g>
			<g>
				<path d="M176.306,415.888c-2.209,0-4.036-1.789-4.036-3.998s1.749-3.996,3.95-3.996h0.086c2.202,0,3.998,1.787,3.998,3.996
					S178.508,415.888,176.306,415.888z"/>
			</g>
		</g>
		<g>
			<g>
				<path d="M176.306,463.853c-2.209,0-4.036-1.787-4.036-3.996s1.749-3.998,3.95-3.998h0.086c2.202,0,3.998,1.789,3.998,3.998
					S178.508,463.853,176.306,463.853z"/>
			</g>
		</g>
		<g>
			<g>
				<path d="M136.334,244.009c-2.209,0-4.036-1.788-4.036-3.998c0-2.209,1.749-3.997,3.95-3.997h0.086
					c2.202,0,3.997,1.788,3.997,3.997C140.331,242.221,138.536,244.009,136.334,244.009z"/>
			</g>
		</g>
		<g>
			<g>
				<path d="M136.334,291.976c-2.209,0-4.036-1.789-4.036-3.998s1.749-3.998,3.95-3.998h0.086c2.202,0,3.997,1.789,3.997,3.998
					S138.536,291.976,136.334,291.976z"/>
			</g>
		</g>
		<g>
			<g>
				<path d="M136.334,339.94c-2.209,0-4.036-1.787-4.036-3.996c0-2.211,1.749-3.998,3.95-3.998h0.086
					c2.202,0,3.997,1.787,3.997,3.998C140.331,338.153,138.536,339.94,136.334,339.94z"/>
			</g>
		</g>
		<g>
			<g>
				<path d="M136.334,387.907c-2.209,0-4.036-1.787-4.036-3.998c0-2.209,1.749-3.996,3.95-3.996h0.086
					c2.202,0,3.997,1.787,3.997,3.996C140.331,386.12,138.536,387.907,136.334,387.907z"/>
			</g>
		</g>
		<g>
			<g>
				<path d="M136.334,435.874c-2.209,0-4.036-1.789-4.036-3.998s1.749-3.998,3.95-3.998h0.086c2.202,0,3.997,1.789,3.997,3.998
					S138.536,435.874,136.334,435.874z"/>
			</g>
		</g>
		<g>
			<g>
				<path d="M136.334,483.839c-2.209,0-4.036-1.787-4.036-3.996s1.749-3.998,3.95-3.998h0.086c2.202,0,3.997,1.789,3.997,3.998
					S138.536,483.839,136.334,483.839z"/>
			</g>
		</g>
		<g>
			<g>
				<path d="M216.278,244.009c-2.21,0-4.037-1.788-4.037-3.998c0-2.209,1.749-3.997,3.951-3.997h0.086
					c2.201,0,3.997,1.788,3.997,3.997C220.275,242.221,218.479,244.009,216.278,244.009z"/>
			</g>
		</g>
		<g>
			<g>
				<path d="M216.278,291.976c-2.21,0-4.037-1.789-4.037-3.998s1.749-3.998,3.951-3.998h0.086c2.201,0,3.997,1.789,3.997,3.998
					S218.479,291.976,216.278,291.976z"/>
			</g>
		</g>
		<g>
			<g>
				<path d="M216.278,339.94c-2.21,0-4.037-1.787-4.037-3.996c0-2.211,1.749-3.998,3.951-3.998h0.086
					c2.201,0,3.997,1.787,3.997,3.998C220.275,338.153,218.479,339.94,216.278,339.94z"/>
			</g>
		</g>
		<g>
			<g>
				<path d="M216.278,387.907c-2.21,0-4.037-1.787-4.037-3.998c0-2.209,1.749-3.996,3.951-3.996h0.086
					c2.201,0,3.997,1.787,3.997,3.996C220.275,386.12,218.479,387.907,216.278,387.907z"/>
			</g>
		</g>
		<g>
			<g>
				<path d="M216.278,435.874c-2.21,0-4.037-1.789-4.037-3.998s1.749-3.998,3.951-3.998h0.086c2.201,0,3.997,1.789,3.997,3.998
					S218.479,435.874,216.278,435.874z"/>
			</g>
		</g>
		<g>
			<g>
				<path d="M216.278,483.839c-2.21,0-4.037-1.787-4.037-3.996s1.749-3.998,3.951-3.998h0.086c2.201,0,3.997,1.789,3.997,3.998
					S218.479,483.839,216.278,483.839z"/>
			</g>
		</g>
		<g>
			<g>
				<path d="M236.021,220.026c-2.209,0-3.997-1.788-3.997-3.998c0-30.853-25.107-55.96-55.96-55.96
					c-30.854,0-55.961,25.107-55.961,55.96c0,2.209-1.788,3.998-3.997,3.998s-3.997-1.788-3.997-3.998
					c0-35.264,28.69-63.955,63.955-63.955c35.264,0,63.954,28.69,63.954,63.955C240.019,218.238,238.231,220.026,236.021,220.026z"
					/>
			</g>
		</g>
		<g>
			<g>
				<path d="M116.106,495.831c-2.209,0-3.997-1.787-3.997-3.998V216.028c0-2.209,1.788-3.997,3.997-3.997s3.997,1.788,3.997,3.997
					v275.805C120.104,494.044,118.315,495.831,116.106,495.831z"/>
			</g>
		</g>
		<g>
			<g>
				<path d="M236.021,495.831c-2.209,0-3.997-1.787-3.997-3.998V216.028c0-2.209,1.788-3.997,3.997-3.997
					c2.21,0,3.997,1.788,3.997,3.997v275.805C240.019,494.044,238.231,495.831,236.021,495.831z"/>
			</g>
		</g>
		<g>
			<g>
				<g>
					<path d="M108.112,367.921H84.129c-2.209,0-3.997-1.787-3.997-3.996c0-2.211,1.788-3.998,3.997-3.998h23.983
						c2.209,0,3.997,1.787,3.997,3.998C112.109,366.134,110.321,367.921,108.112,367.921z"/>
				</g>
			</g>
			<g>
				<g>
					<path d="M108.112,407.894H68.141c-2.21,0-3.998-1.789-3.998-3.998s1.788-3.996,3.998-3.996h39.972
						c2.209,0,3.997,1.787,3.997,3.996S110.321,407.894,108.112,407.894z"/>
				</g>
			</g>
			<g>
				<g>
					<path d="M68.141,407.894c-19.838,0-35.975-16.137-35.975-35.975c0-2.211,1.787-3.998,3.997-3.998
						c2.209,0,3.997,1.787,3.997,3.998c0,15.426,12.554,27.98,27.98,27.98c2.209,0,3.997,1.787,3.997,3.996
						S70.35,407.894,68.141,407.894z"/>
				</g>
			</g>
			<g>
				<g>
					<path d="M36.163,375.915c-2.21,0-3.997-1.787-3.997-3.996V248.006c0-2.209,1.787-3.997,3.997-3.997
						c2.209,0,3.997,1.788,3.997,3.997v123.913C40.16,374.128,38.372,375.915,36.163,375.915z"/>
				</g>
			</g>
			<g>
				<g>
					<path d="M76.135,359.927c-2.21,0-3.997-1.787-3.997-3.998V248.006c0-2.209,1.787-3.997,3.997-3.997
						c2.209,0,3.997,1.788,3.997,3.997v107.923C80.132,358.14,78.344,359.927,76.135,359.927z"/>
				</g>
			</g>
			<g>
				<g>
					<path d="M76.135,252.003c-2.21,0-3.997-1.788-3.997-3.997c0-8.814-7.175-15.989-15.989-15.989
						c-8.813,0-15.988,7.175-15.988,15.989c0,2.209-1.788,3.997-3.997,3.997c-2.21,0-3.997-1.788-3.997-3.997
						c0-13.225,10.758-23.983,23.982-23.983c13.226,0,23.983,10.758,23.983,23.983C80.132,250.215,78.344,252.003,76.135,252.003z"
						/>
				</g>
			</g>
			<g>
				<g>
					<path d="M84.129,367.921c-6.612,0-11.991-5.379-11.991-11.992c0-2.209,1.787-3.996,3.997-3.996
						c2.209,0,3.997,1.787,3.997,3.996c0,2.203,1.796,3.998,3.997,3.998c2.209,0,3.997,1.787,3.997,3.998
						C88.126,366.134,86.338,367.921,84.129,367.921z"/>
				</g>
			</g>
			<g>
				<g>
					<path d="M56.148,232.017c-2.209,0-3.997-1.788-3.997-3.997v-7.994c0-2.21,1.788-3.998,3.997-3.998
						c2.21,0,3.997,1.788,3.997,3.998v7.994C60.146,230.229,58.358,232.017,56.148,232.017z"/>
				</g>
			</g>
			<g>
				<g>
					<path d="M36.163,252.003h-7.995c-2.209,0-3.997-1.788-3.997-3.997s1.788-3.997,3.997-3.997h7.995
						c2.209,0,3.997,1.788,3.997,3.997S38.372,252.003,36.163,252.003z"/>
				</g>
			</g>
			<g>
				<g>
					<path d="M84.129,252.003h-7.994c-2.21,0-3.997-1.788-3.997-3.997s1.787-3.997,3.997-3.997h7.994
						c2.209,0,3.997,1.788,3.997,3.997S86.338,252.003,84.129,252.003z"/>
				</g>
			</g>
			<g>
				<g>
					<path d="M84.129,291.983h-7.994c-2.21,0-3.997-1.789-3.997-3.998s1.787-3.998,3.997-3.998h7.994
						c2.209,0,3.997,1.789,3.997,3.998S86.338,291.983,84.129,291.983z"/>
				</g>
			</g>
			<g>
				<g>
					<path d="M84.129,331.962h-7.994c-2.21,0-3.997-1.787-3.997-3.996c0-2.211,1.787-3.998,3.997-3.998h7.994
						c2.209,0,3.997,1.787,3.997,3.998C88.126,330.175,86.338,331.962,84.129,331.962z"/>
				</g>
			</g>
			<g>
				<g>
					<path d="M36.163,291.983h-7.995c-2.209,0-3.997-1.789-3.997-3.998s1.788-3.998,3.997-3.998h7.995
						c2.209,0,3.997,1.789,3.997,3.998S38.372,291.983,36.163,291.983z"/>
				</g>
			</g>
			<g>
				<g>
					<path d="M36.163,331.962h-7.995c-2.209,0-3.997-1.787-3.997-3.996c0-2.211,1.788-3.998,3.997-3.998h7.995
						c2.209,0,3.997,1.787,3.997,3.998C40.16,330.175,38.372,331.962,36.163,331.962z"/>
				</g>
			</g>
			<g>
				<g>
					<g>
						<path d="M36.179,375.915h-8.011c-2.209,0-3.997-1.787-3.997-3.996c0-2.211,1.788-3.998,3.997-3.998h8.011
							c2.209,0,3.997,1.787,3.997,3.998C40.176,374.128,38.388,375.915,36.179,375.915z"/>
					</g>
				</g>
				<g>
					<g>
						<path d="M48.154,410.532c-0.68,0-1.366-0.172-1.999-0.531c-1.912-1.109-2.568-3.553-1.468-5.465l3.998-6.934
							c1.101-1.912,3.536-2.568,5.465-1.467c1.912,1.109,2.568,3.553,1.468,5.465l-3.998,6.932
							C50.879,409.813,49.536,410.532,48.154,410.532z"/>
					</g>
				</g>
			</g>
			<g>
				<g>
					<path d="M100.117,367.257c-2.209,0-3.997-1.787-3.997-3.996v-7.332c0-2.209,1.788-3.996,3.997-3.996
						c2.21,0,3.998,1.787,3.998,3.996v7.332C104.115,365.47,102.327,367.257,100.117,367.257z"/>
				</g>
			</g>
			<g>
				<g>
					<path d="M88.126,415.888c-2.209,0-3.997-1.789-3.997-3.998v-7.994c0-2.209,1.788-3.996,3.997-3.996
						c2.21,0,3.997,1.787,3.997,3.996v7.994C92.123,414.099,90.336,415.888,88.126,415.888z"/>
				</g>
			</g>
		</g>
		<g>
			<g>
				<g>
					<path d="M267.999,311.96h-23.982c-2.21,0-3.998-1.787-3.998-3.996s1.788-3.998,3.998-3.998h23.982
						c2.209,0,3.997,1.789,3.997,3.998S270.208,311.96,267.999,311.96z"/>
				</g>
			</g>
			<g>
				<g>
					<path d="M283.987,351.933h-39.971c-2.21,0-3.998-1.787-3.998-3.998c0-2.209,1.788-3.996,3.998-3.996h39.971
						c2.21,0,3.998,1.787,3.998,3.996C287.985,350.146,286.197,351.933,283.987,351.933z"/>
				</g>
			</g>
			<g>
				<g>
					<path d="M283.987,351.933c-2.209,0-3.996-1.787-3.996-3.998c0-2.209,1.787-3.996,3.996-3.996
						c15.428,0,27.98-12.555,27.98-27.98c0-2.209,1.788-3.998,3.998-3.998c2.209,0,3.996,1.789,3.996,3.998
						C319.962,335.796,303.825,351.933,283.987,351.933z"/>
				</g>
			</g>
			<g>
				<g>
					<path d="M315.966,319.954c-2.21,0-3.998-1.787-3.998-3.996V192.045c0-2.209,1.788-3.997,3.998-3.997
						c2.209,0,3.996,1.788,3.996,3.997v123.913C319.962,318.167,318.175,319.954,315.966,319.954z"/>
				</g>
			</g>
			<g>
				<g>
					<path d="M275.993,303.966c-2.209,0-3.997-1.787-3.997-3.996V192.045c0-2.209,1.788-3.997,3.997-3.997
						c2.21,0,3.998,1.788,3.998,3.997V299.97C279.991,302.179,278.203,303.966,275.993,303.966z"/>
				</g>
			</g>
			<g>
				<g>
					<path d="M315.966,196.042c-2.21,0-3.998-1.788-3.998-3.997c0-8.814-7.174-15.989-15.988-15.989s-15.988,7.174-15.988,15.989
						c0,2.209-1.788,3.997-3.998,3.997c-2.209,0-3.997-1.788-3.997-3.997c0-13.225,10.759-23.983,23.983-23.983
						s23.982,10.758,23.982,23.983C319.962,194.254,318.175,196.042,315.966,196.042z"/>
				</g>
			</g>
			<g>
				<g>
					<path d="M267.999,311.96c-2.209,0-3.997-1.787-3.997-3.996s1.788-3.998,3.997-3.998c2.201,0,3.997-1.795,3.997-3.996
						c0-2.211,1.788-3.998,3.997-3.998c2.21,0,3.998,1.787,3.998,3.998C279.991,306.581,274.611,311.96,267.999,311.96z"/>
				</g>
			</g>
			<g>
				<g>
					<path d="M295.979,176.057c-2.209,0-3.997-1.788-3.997-3.998v-7.994c0-2.209,1.788-3.997,3.997-3.997s3.997,1.788,3.997,3.997
						v7.994C299.977,174.269,298.188,176.057,295.979,176.057z"/>
				</g>
			</g>
			<g>
				<g>
					<path d="M323.976,196.042h-7.994c-2.21,0-3.998-1.788-3.998-3.997c0-2.209,1.788-3.997,3.998-3.997h7.994
						c2.209,0,3.997,1.788,3.997,3.997C327.973,194.254,326.185,196.042,323.976,196.042z"/>
				</g>
			</g>
			<g>
				<g>
					<path d="M276.009,196.042h-7.994c-2.209,0-3.997-1.788-3.997-3.997c0-2.209,1.788-3.997,3.997-3.997h7.994
						c2.21,0,3.998,1.788,3.998,3.997C280.007,194.254,278.219,196.042,276.009,196.042z"/>
				</g>
			</g>
			<g>
				<g>
					<path d="M276.009,236.014h-7.994c-2.209,0-3.997-1.788-3.997-3.997c0-2.209,1.788-3.997,3.997-3.997h7.994
						c2.21,0,3.998,1.788,3.998,3.997C280.007,234.227,278.219,236.014,276.009,236.014z"/>
				</g>
			</g>
			<g>
				<g>
					<path d="M276.009,276.001h-7.994c-2.209,0-3.997-1.787-3.997-3.996s1.788-3.998,3.997-3.998h7.994
						c2.21,0,3.998,1.789,3.998,3.998S278.219,276.001,276.009,276.001z"/>
				</g>
			</g>
			<g>
				<g>
					<path d="M323.976,236.014h-7.994c-2.21,0-3.998-1.788-3.998-3.997c0-2.209,1.788-3.997,3.998-3.997h7.994
						c2.209,0,3.997,1.788,3.997,3.997C327.973,234.227,326.185,236.014,323.976,236.014z"/>
				</g>
			</g>
			<g>
				<g>
					<path d="M323.976,276.001h-7.994c-2.21,0-3.998-1.787-3.998-3.996s1.788-3.998,3.998-3.998h7.994
						c2.209,0,3.997,1.789,3.997,3.998S326.185,276.001,323.976,276.001z"/>
				</g>
			</g>
			<g>
				<g>
					<g>
						<path d="M323.96,319.954h-8.01c-2.21,0-3.998-1.787-3.998-3.996s1.788-3.998,3.998-3.998h8.01
							c2.209,0,3.997,1.789,3.997,3.998S326.169,319.954,323.96,319.954z"/>
					</g>
				</g>
				<g>
					<g>
						<path d="M303.974,354.571c-1.382,0-2.725-0.719-3.467-1.998l-3.996-6.934c-1.102-1.912-0.445-4.355,1.467-5.465
							c1.913-1.092,4.356-0.445,5.465,1.469l3.998,6.932c1.101,1.912,0.444,4.357-1.468,5.465
							C305.34,354.399,304.653,354.571,303.974,354.571z"/>
					</g>
				</g>
			</g>
			<g>
				<g>
					<path d="M252.011,311.298c-2.21,0-3.997-1.789-3.997-3.998v-7.33c0-2.211,1.787-3.998,3.997-3.998
						c2.209,0,3.997,1.787,3.997,3.998v7.33C256.008,309.509,254.22,311.298,252.011,311.298z"/>
				</g>
			</g>
			<g>
				<g>
					<path d="M264.002,359.927c-2.21,0-3.997-1.787-3.997-3.998v-7.994c0-2.209,1.787-3.996,3.997-3.996
						c2.209,0,3.997,1.787,3.997,3.996v7.994C267.999,358.14,266.211,359.927,264.002,359.927z"/>
				</g>
			</g>
		</g>
		<g>
			<g>
				<path d="M156.078,495.831c-2.209,0-3.997-1.787-3.997-3.998V212.031c0-2.209,1.788-3.997,3.997-3.997s3.997,1.788,3.997,3.997
					v279.802C160.075,494.044,158.287,495.831,156.078,495.831z"/>
			</g>
		</g>
		<g>
			<g>
				<path d="M196.05,495.831c-2.209,0-3.997-1.787-3.997-3.998V212.031c0-2.209,1.788-3.997,3.997-3.997
					c2.21,0,3.997,1.788,3.997,3.997v279.802C200.047,494.044,198.26,495.831,196.05,495.831z"/>
			</g>
		</g>
		<g>
			<g>
				<path d="M176.064,160.068c-17.637,0-31.978-14.341-31.978-31.978c0-2.209,1.787-3.997,3.997-3.997
					c2.209,0,3.997,1.788,3.997,3.997c0,13.225,10.758,23.983,23.983,23.983c13.225,0,23.982-10.758,23.982-23.983
					c0-2.209,1.788-3.997,3.997-3.997c2.21,0,3.998,1.788,3.998,3.997C208.042,145.727,193.7,160.068,176.064,160.068z"/>
			</g>
		</g>
		<g>
			<g>
				<path d="M164.072,136.084c-0.32,0-0.64-0.039-0.968-0.117l-15.988-3.998c-2.147-0.538-3.443-2.709-2.912-4.848
					c0.53-2.147,2.686-3.443,4.848-2.912l15.989,3.997c2.146,0.539,3.442,2.709,2.911,4.848
					C167.5,134.875,165.868,136.084,164.072,136.084z"/>
			</g>
		</g>
		<g>
			<g>
				<path d="M188.056,136.084c-1.796,0-3.428-1.21-3.88-3.029c-0.531-2.139,0.765-4.309,2.912-4.848l15.988-3.997
					c2.093-0.539,4.31,0.765,4.849,2.912c0.53,2.139-0.766,4.31-2.912,4.848l-15.989,3.998
					C188.703,136.046,188.376,136.084,188.056,136.084z"/>
			</g>
		</g>
		<g>
			<g>
				<path d="M164.072,136.084c-0.835,0-1.679-0.257-2.396-0.796c-1.765-1.327-2.123-3.833-0.804-5.598l11.991-15.989
					c1.343-1.764,3.849-2.116,5.598-0.804c1.765,1.327,2.123,3.833,0.804,5.598l-11.991,15.989
					C166.485,135.531,165.282,136.084,164.072,136.084z"/>
			</g>
		</g>
		<g>
			<g>
				<path d="M188.056,136.084c-1.21,0-2.412-0.554-3.201-1.6l-11.991-15.989c-1.319-1.765-0.96-4.271,0.804-5.598
					c1.757-1.312,4.263-0.96,5.598,0.804l11.992,15.989c1.319,1.765,0.96,4.271-0.805,5.598
					C189.734,135.827,188.891,136.084,188.056,136.084z"/>
			</g>
		</g>
	</g>
	<g>
		<g>
			<path d="M423.874,136.084c-26.451,0-47.967-21.516-47.967-47.966s21.516-47.966,47.967-47.966
				c26.449,0,47.966,21.516,47.966,47.966S450.323,136.084,423.874,136.084z M423.874,48.147c-22.039,0-39.973,17.933-39.973,39.972
				s17.934,39.972,39.973,39.972s39.971-17.933,39.971-39.972S445.913,48.147,423.874,48.147z"/>
		</g>
	</g>
	<g>
		<g>
			<path d="M423.874,32.158c-2.21,0-3.998-1.788-3.998-3.998V4.178c0-2.21,1.788-3.998,3.998-3.998c2.209,0,3.996,1.788,3.996,3.998
				v23.982C427.87,30.371,426.083,32.158,423.874,32.158z"/>
		</g>
	</g>
	<g>
		<g>
			<path d="M423.874,176.057c-2.21,0-3.998-1.788-3.998-3.998v-23.982c0-2.21,1.788-3.998,3.998-3.998
				c2.209,0,3.996,1.788,3.996,3.998v23.982C427.87,174.269,426.083,176.057,423.874,176.057z"/>
		</g>
	</g>
	<g>
		<g>
			<path d="M393.895,40.191c-1.374,0-2.725-0.718-3.458-1.999l-11.992-20.774c-1.108-1.913-0.453-4.356,1.46-5.457
				c1.921-1.116,4.356-0.453,5.457,1.46l11.992,20.774c1.108,1.913,0.452,4.356-1.46,5.457
				C395.261,40.02,394.574,40.191,393.895,40.191z"/>
		</g>
	</g>
	<g>
		<g>
			<path d="M465.844,164.814c-1.374,0-2.725-0.718-3.458-1.999l-11.992-20.767c-1.108-1.913-0.452-4.356,1.46-5.457
				c1.897-1.116,4.356-0.461,5.457,1.46l11.992,20.767c1.108,1.913,0.452,4.356-1.46,5.457
				C467.21,164.643,466.523,164.814,465.844,164.814z"/>
		</g>
	</g>
	<g>
		<g>
			<path d="M371.957,62.137c-0.679,0-1.366-0.172-1.999-0.539l-20.766-11.991c-1.913-1.101-2.569-3.545-1.461-5.457
				c1.094-1.913,3.553-2.561,5.457-1.46l20.768,11.991c1.912,1.101,2.568,3.544,1.459,5.457
				C374.682,61.418,373.331,62.137,371.957,62.137z"/>
		</g>
	</g>
	<g>
		<g>
			<path d="M496.572,134.086c-0.679,0-1.366-0.172-1.999-0.539l-20.766-11.991c-1.913-1.101-2.569-3.544-1.461-5.457
				c1.102-1.913,3.553-2.561,5.457-1.46l20.768,11.991c1.912,1.101,2.568,3.544,1.459,5.457
				C499.297,133.368,497.946,134.086,496.572,134.086z"/>
		</g>
	</g>
	<g>
		<g>
			<path d="M363.932,92.116h-23.983c-2.209,0-3.997-1.788-3.997-3.997s1.788-3.997,3.997-3.997h23.983
				c2.209,0,3.997,1.788,3.997,3.997S366.141,92.116,363.932,92.116z"/>
		</g>
	</g>
	<g>
		<g>
			<path d="M507.83,92.116h-23.983c-2.209,0-3.997-1.788-3.997-3.997s1.788-3.997,3.997-3.997h23.983
				c2.209,0,3.997,1.788,3.997,3.997S510.039,92.116,507.83,92.116z"/>
		</g>
	</g>
	<g>
		<g>
			<path d="M351.19,134.086c-1.374,0-2.717-0.719-3.459-1.999c-1.108-1.913-0.452-4.356,1.461-5.457l20.781-12.007
				c1.913-1.124,4.349-0.461,5.457,1.46c1.109,1.913,0.453,4.356-1.459,5.457l-20.783,12.007
				C352.557,133.915,351.87,134.086,351.19,134.086z"/>
		</g>
	</g>
	<g>
		<g>
			<path d="M475.821,62.129c-1.382,0-2.725-0.719-3.459-1.999c-1.108-1.913-0.452-4.356,1.461-5.457l20.766-11.983
				c1.921-1.125,4.356-0.453,5.457,1.46c1.109,1.912,0.453,4.356-1.459,5.457L477.819,61.59
				C477.188,61.958,476.501,62.129,475.821,62.129z"/>
		</g>
	</g>
	<g>
		<g>
			<path d="M381.919,164.799c-0.68,0-1.366-0.171-1.999-0.539c-1.913-1.101-2.568-3.544-1.46-5.457l11.992-20.774
				c1.101-1.913,3.56-2.568,5.457-1.46c1.912,1.101,2.568,3.544,1.459,5.457L385.377,162.8
				C384.644,164.081,383.293,164.799,381.919,164.799z"/>
		</g>
	</g>
	<g>
		<g>
			<path d="M453.868,40.176c-0.68,0-1.366-0.172-1.999-0.539c-1.912-1.101-2.568-3.544-1.46-5.457l11.992-20.759
				c1.101-1.913,3.552-2.561,5.457-1.46c1.912,1.101,2.568,3.544,1.46,5.457l-11.992,20.759
				C456.585,39.458,455.242,40.176,453.868,40.176z"/>
		</g>
	</g>
	<g>
		<g>
			<path d="M476.36,495.901c-0.352,0-0.711-0.047-1.086-0.102l0.562-3.959l-3.584-1.764c0.016-0.047,2.265-4.77,4.303-11.727
				c0.616-2.123,2.834-3.35,4.949-2.717c2.123,0.617,3.342,2.834,2.717,4.949C480.279,494.122,478.444,495.901,476.36,495.901z
				 M483.519,467.788c-0.133,0-0.266-0.008-0.39-0.016c-2.202-0.219-3.81-2.17-3.6-4.363c0.195-1.969,0.305-3.975,0.305-5.988
				c0-9.385-2.396-17.137-7.12-23.039c-5.074-6.34-7.752-16.09-7.752-28.199c0-14.379,3.653-28.432,7.268-35.982
				c0.961-2.006,3.373-2.818,5.333-1.881c1.99,0.961,2.834,3.342,1.881,5.332c-3.122,6.52-6.487,19.479-6.487,32.531
				c0,10.275,2.076,18.301,6.004,23.203c5.887,7.361,8.868,16.793,8.868,28.035c0,2.279-0.125,4.535-0.335,6.752
				C487.29,466.243,485.549,467.788,483.519,467.788z"/>
		</g>
	</g>
	<g>
		<g>
			<path d="M419.876,495.839c-0.577,0-1.171-0.125-1.725-0.391c-1.991-0.961-2.834-3.342-1.882-5.332
				c0.078-0.164,7.604-16.09,7.604-32.695c0-9.385-2.397-17.137-7.121-23.039c-5.886-7.361-8.868-16.793-8.868-28.035
				c-0.008-1.256,0.031-2.537,0.109-3.801c0.133-2.203,2.038-3.936,4.224-3.756c2.209,0.133,3.888,2.021,3.755,4.223
				c-0.062,1.094-0.102,2.203-0.094,3.311c0,9.408,2.397,17.16,7.12,23.062c5.887,7.361,8.869,16.793,8.869,28.035
				c0,18.463-8.049,35.436-8.385,36.154C422.796,495.003,421.367,495.839,419.876,495.839z M414.575,391.015
				c-0.328,0-0.671-0.039-1.007-0.133c-2.14-0.555-3.419-2.74-2.857-4.871c2.389-9.158,5.434-15.545,5.566-15.818
				c0.96-1.982,3.356-2.826,5.324-1.865c1.991,0.953,2.834,3.334,1.882,5.324c-0.031,0.062-2.857,6.012-5.043,14.373
				C417.972,389.827,416.355,391.015,414.575,391.015z"/>
		</g>
	</g>
	<g>
		<g>
			<path d="M363.916,495.839c-0.578,0-1.171-0.125-1.726-0.391c-1.99-0.953-2.834-3.342-1.881-5.332
				c0.022-0.055,2.404-5.059,4.48-12.312c0.602-2.123,2.779-3.395,4.941-2.74c2.124,0.609,3.35,2.818,2.74,4.943
				c-2.271,7.947-4.848,13.342-4.949,13.561C366.836,495.003,365.407,495.839,363.916,495.839z M371.652,467.218
				c-0.125,0-0.242-0.008-0.366-0.016c-2.202-0.195-3.818-2.139-3.623-4.34c0.164-1.789,0.25-3.607,0.25-5.441
				c0-9.385-2.396-17.137-7.12-23.039c-5.887-7.361-8.868-16.793-8.868-28.035c0-18.463,8.049-35.436,8.385-36.154
				c0.952-1.982,3.356-2.818,5.332-1.873c1.99,0.961,2.834,3.342,1.881,5.332c-0.078,0.164-7.604,16.09-7.604,32.695
				c0,9.385,2.396,17.137,7.119,23.039c5.887,7.361,8.869,16.793,8.869,28.035c0,2.068-0.102,4.137-0.281,6.16
				C375.438,465.657,373.698,467.218,371.652,467.218z"/>
		</g>
	</g>
</g>
</svg>
