<?xml version="1.0" encoding="utf-8"?>
<!-- Generator: Adobe Illustrator 16.0.0, SVG Export Plug-In . SVG Version: 6.00 Build 0)  -->
<!DOCTYPE svg PUBLIC "-//W3C//DTD SVG 1.1//EN" "http://www.w3.org/Graphics/SVG/1.1/DTD/svg11.dtd">
<svg version="1.1" xmlns="http://www.w3.org/2000/svg" xmlns:xlink="http://www.w3.org/1999/xlink" x="0px" y="0px" width="64px"
	 height="64px" viewBox="0 0 64 64" enable-background="new 0 0 64 64" xml:space="preserve">
<g id="_x32_5_purse_x2C__money_x2C__coin_x2C__banknote_x2C__payment_x2C__shop_x2C__shopping">
</g>
<g id="_x32_4_pay_x2C__click_x2C__hand_x2C__coin_x2C__money_x2C__shop_x2C__payment">
</g>
<g id="_x32_3_card_x2C__discount_x2C__sale_x2C__shop_x2C__shopping_x2C__commerce_x2C__market">
</g>
<g id="_x32_2_safe_x2C__box_x2C__key_x2C__thing_x2C__shop_x2C__shopping_x2C__commerce">
</g>
<g id="_x32_1_cashbox_x2C__money_x2C__purchase_x2C__list_x2C__check_x2C__shop_x2C__shopping">
</g>
<g id="_x32_0_search_x2C__magnifier_x2C__basket_x2C__shop_x2C__shopping_x2C__commerce_x2C__market">
</g>
<g id="_x31_9_return_x2C__box_x2C__purchase_x2C__shipping_x2C__delivery_x2C__shop_x2C__shopping">
</g>
<g id="_x31_8_review_x2C__client_x2C__buyer_x2C__talk_x2C__shop_x2C__shopping_x2C__commerce">
</g>
<g id="_x31_7_manager_x2C__consultant_x2C__shop_x2C__shopping_x2C__commerce_x2C__market_x2C__badge">
</g>
<g id="_x31_6_check_x2C__list_x2C__cashbox_x2C__purchase_x2C__shop_x2C__shopping_x2C__commerce">
</g>
<g id="_x31_5_coupon_x2C__sale_x2C__discount_x2C__shop_x2C__shopping_x2C__commerce_x2C__market">
</g>
<g id="_x31_4_sale_x2C__discount_x2C__box_x2C__gift_x2C__shop_x2C__shopping_x2C__commerce">
</g>
<g id="_x31_3_map_x2C__pin_x2C__marker_x2C__location_x2C__shop_x2C__shopping_x2C__basket">
</g>
<g id="_x31_2_operator_x2C__call_x2C__center_x2C__shop_x2C__shopping_x2C__commerce_x2C__market">
</g>
<g id="_x31_1_courier_x2C__box_x2C__shipping_x2C__purchase_x2C__shop_x2C__shopping_x2C__commerce">
</g>
<g id="_x31_0_box_x2C__shipping_x2C__delivery_x2C__purchase_x2C__shop_x2C__shopping_x2C__commerce">
</g>
<g id="_x39__shipping_x2C__delivery_x2C__box_x2C__crane_x2C__shop_x2C__shopping_x2C__commerce">
</g>
<g id="_x38__computer_x2C__monitor_x2C__desktop_x2C__shop_x2C__shopping_x2C__commerce_x2C__market">
</g>
<g id="_x37__mobile_x2C__phone_x2C__app_x2C__shop_x2C__shopping_x2C__commerce_x2C__market">
</g>
<g id="_x36__food_x2C__market_x2C__purchase_x2C__shop_x2C__shopping_x2C__commerce_x2C__basket">
</g>
<g id="_x35__discount_x2C__sale_x2C__purchase_x2C__pocket_x2C__shop_x2C__shopping_x2C__commerce">
</g>
<g id="_x34__badge_x2C__discount_x2C__sale_x2C__shop_x2C__shopping_x2C__commerce_x2C__market">
</g>
<g id="_x33__food_x2C__pocket_x2C__purchase_x2C__shop_x2C__shopping_x2C__commerce_x2C__supermarket">
</g>
<g id="_x32__shop_x2C__shopping_x2C__commerce_x2C__supermarket_x2C__market_x2C__cart">
	<g>
		<path fill="#967ADC" d="M60.412,30l0.16-1h-7.5v-6h8.46l0.16-1h-8.62v-5.5h-1V22h-6v-5.5h-1V22h-6v-5.5h-1V22h-6v-5.5h-1V22h-6
			v-5.5h-1V22h-9.562l0.27,1h9.292v6h-7.677l0.27,1h7.407v6h-5.791l0.27,1h5.521v7.025l1-0.073V37h6v6.514l1-0.073V37h6v6.001
			l1-0.073V37h6v5.489l1-0.073V37h6v4.978l1-0.073V37h6.22l0.16-1h-6.38v-6H60.412z M31.072,36h-6v-6h6V36z M31.072,29h-6v-6h6V29z
			 M38.072,36h-6v-6h6V36z M38.072,29h-6v-6h6V29z M45.072,36h-6v-6h6V36z M45.072,29h-6v-6h6V29z M52.072,36h-6v-6h6V36z
			 M52.072,29h-6v-6h6V29z"/>
		<circle fill="#656D78" cx="25.073" cy="59" r="3.5"/>
		<circle fill="#656D78" cx="51.073" cy="59" r="3.5"/>
		<path fill="#AC92EC" d="M21.451,45.287c-0.973,0-1.895-0.703-2.145-1.635l-6.98-25.917c-0.321-1.198-0.362-1.353-0.136-1.738
			l0.206-0.35l0.393-0.107c0.147-0.04,0.147-0.04,1.283-0.04h47.5c0.556,0,1.073,0.234,1.421,0.641
			c0.348,0.408,0.496,0.956,0.408,1.504l-3.684,23.025c-0.161,1.008-1.05,1.825-2.068,1.901L21.451,45.287z M14.334,17.5
			l6.904,25.634c0.017,0.061,0.134,0.153,0.213,0.153v1l0.004-1l36.047-2.709c0.085-0.007,0.228-0.138,0.241-0.224L61.399,17.5
			H14.334z"/>
		<path fill="#AC92EC" d="M21.573,52.5h36c0.55,0,1,0.45,1,1s-0.45,1-1,1h-36c-2.76,0-5-1.79-5-4h0.02l2.951-6.12L8.573,3.5h-7
			c-0.55,0-1-0.45-1-1s0.45-1,1-1h8.42l4.04,15.01l7.5,27.85l-2.96,6.141C18.573,51.609,20.193,52.5,21.573,52.5z"/>
		<path fill="#967ADC" d="M22.19,54.5c0,0,1.906,5.5,2.906,5.5s2.859-5.5,2.859-5.5H22.19z"/>
		<path fill="#967ADC" d="M48.19,54.5c0,0,1.906,5.5,2.906,5.5s2.859-5.5,2.859-5.5H48.19z"/>
	</g>
</g>
<g id="_x31__list_x2C__check_x2C__notebook_x2C__pen_x2C__shop_x2C__shopping_x2C__commerce">
</g>
</svg>
