<svg xmlns="http://www.w3.org/2000/svg" viewBox="0 0 64 64"><title>2-Coding</title><g id="_2-Coding" data-name="2-Coding"><g id="_Group_" data-name="&lt;Group&gt;"><g id="_Group_2" data-name="&lt;Group&gt;"><path d="M61,64H3a3,3,0,0,1-3-3V3A3,3,0,0,1,3,0H61a3,3,0,0,1,3,3V61A3,3,0,0,1,61,64ZM3,2A1,1,0,0,0,2,3V61a1,1,0,0,0,1,1H61a1,1,0,0,0,1-1V3a1,1,0,0,0-1-1Z"/><rect x="1" y="10" width="62" height="2"/></g></g><g id="_Group_3" data-name="&lt;Group&gt;"><path d="M18,42A14,14,0,1,1,32,28,14.015,14.015,0,0,1,18,42Zm0-26A12,12,0,1,0,30,28,12.013,12.013,0,0,0,18,16Z"/></g><path d="M13.293,33.707l-5-5a1,1,0,0,1,0-1.414l5-5,1.414,1.414L10.414,28l4.293,4.293Z"/><path d="M22.707,33.707l-1.414-1.414L25.586,28l-4.293-4.293,1.414-1.414,5,5a1,1,0,0,1,0,1.414Z"/><path d="M58,38H38a1,1,0,0,1-1-1V15a1,1,0,0,1,1-1H58a1,1,0,0,1,1,1V37A1,1,0,0,1,58,38ZM39,36H57V16H39Z"/><rect x="38" y="22" width="20" height="2"/><path d="M53,60H33a1,1,0,0,1-1-1V37a1,1,0,0,1,1-1H53a1,1,0,0,1,1,1V59A1,1,0,0,1,53,60ZM34,58H52V38H34Z"/><rect x="33" y="44" width="20" height="2"/><rect x="7" y="56" width="21" height="2"/><rect x="7" y="51" width="21" height="2"/><rect x="15" y="46" width="13" height="2"/><rect x="7" y="46" width="4" height="2"/><rect x="5" y="5" width="2" height="2"/><rect x="9" y="5" width="2" height="2"/><rect x="14" y="5" width="45" height="2"/><rect x="41" y="18" width="2" height="2"/><rect x="45" y="18" width="2" height="2"/><rect x="40" y="40" width="2" height="2"/><rect x="36" y="40" width="2" height="2"/><rect x="11.917" y="27" width="12.166" height="2" transform="translate(-12.58 41.147) rotate(-80.528)"/></g></svg>