<svg xmlns="http://www.w3.org/2000/svg" viewBox="0 0 90 90"><title>2-Programming</title><g id="_2-Programming" data-name="2-Programming"><g id="_Group_" data-name="&lt;Group&gt;"><path d="M45,90A45,45,0,1,1,81.96,70.672,45.071,45.071,0,0,1,45,90ZM45,2A43,43,0,0,0,9.68,69.528h0A43,43,0,1,0,45,2Z"/><path d="M10,70H8V32a3,3,0,0,1,3-3H28v2H11a1,1,0,0,0-1,1Z"/><path d="M82,70H80V32a1,1,0,0,0-1-1H62V29H79a3,3,0,0,1,3,3Z"/><path d="M15,39a3,3,0,1,1,3-3A3,3,0,0,1,15,39Zm0-4a1,1,0,1,0,1,1A1,1,0,0,0,15,35Z"/><path d="M23,39a3,3,0,1,1,3-3A3,3,0,0,1,23,39Zm0-4a1,1,0,1,0,1,1A1,1,0,0,0,23,35Z"/><rect x="9" y="41" width="26" height="2"/><rect x="72" y="33" width="5" height="2"/><rect x="72" y="37" width="5" height="2"/><rect x="67" y="30" width="2" height="12"/><path d="M47,47H43a1,1,0,0,1-.973-.771l-1.158-4.911a12.6,12.6,0,0,1-1.67-.686l-4.283,2.649a1,1,0,0,1-1.233-.144l-2.829-2.819a1,1,0,0,1-.144-1.235L33.368,34.8a12.536,12.536,0,0,1-.686-1.669l-4.911-1.158A1,1,0,0,1,27,31V27a1,1,0,0,1,.771-.973l4.911-1.158a12.536,12.536,0,0,1,.686-1.669L30.71,18.917a1,1,0,0,1,.143-1.234l2.83-2.83a1,1,0,0,1,1.234-.143L39.2,17.368a12.536,12.536,0,0,1,1.669-.686l1.158-4.911A1,1,0,0,1,43,11h4a1,1,0,0,1,.973.771l1.158,4.911a12.536,12.536,0,0,1,1.669.686l4.283-2.658a1,1,0,0,1,1.234.143l2.83,2.83a1,1,0,0,1,.143,1.234L56.632,23.2a12.536,12.536,0,0,1,.686,1.669l4.911,1.158A1,1,0,0,1,63,27v4a1,1,0,0,1-.771.973l-4.911,1.158a12.536,12.536,0,0,1-.686,1.669l2.658,4.283a1,1,0,0,1-.144,1.235l-2.829,2.819a1,1,0,0,1-1.233.144L50.8,40.632a12.6,12.6,0,0,1-1.67.686l-1.158,4.911A1,1,0,0,1,47,47Zm-3.208-2h2.416l1.109-4.7a1,1,0,0,1,.7-.733,10.558,10.558,0,0,0,2.329-.959,1,1,0,0,1,1.017.021l4.1,2.535,1.708-1.7-2.541-4.1a1,1,0,0,1-.022-1.018,10.558,10.558,0,0,0,.959-2.329,1,1,0,0,1,.733-.7L61,30.208V27.792l-4.7-1.109a1,1,0,0,1-.733-.7,10.558,10.558,0,0,0-.959-2.329,1,1,0,0,1,.022-1.018l2.542-4.1-1.709-1.709-4.1,2.542a1,1,0,0,1-1.018.022,10.558,10.558,0,0,0-2.329-.959,1,1,0,0,1-.7-.733L46.208,13H43.792l-1.109,4.7a1,1,0,0,1-.7.733,10.558,10.558,0,0,0-2.329.959,1,1,0,0,1-1.018-.022l-4.1-2.542-1.709,1.709,2.542,4.1a1,1,0,0,1,.022,1.018,10.558,10.558,0,0,0-.959,2.329,1,1,0,0,1-.733.7L29,27.792v2.416l4.7,1.109a1,1,0,0,1,.733.7,10.558,10.558,0,0,0,.959,2.329,1,1,0,0,1-.022,1.018l-2.541,4.1,1.708,1.7,4.1-2.535a1.006,1.006,0,0,1,1.017-.021,10.558,10.558,0,0,0,2.329.959,1,1,0,0,1,.7.733Z"/><path d="M45,36a7,7,0,1,1,7-7A7.008,7.008,0,0,1,45,36Zm0-12a5,5,0,1,0,5,5A5.006,5.006,0,0,0,45,24Z"/><polygon points="81 43 56.04 43 56 41 81 41 81 43"/><rect x="27" y="47" width="2" height="34"/><path d="M43.293,70.707l-7-7a1,1,0,0,1,0-1.414l7-7,1.414,1.414L38.414,63l6.293,6.293Z"/><rect x="41.986" y="62.5" width="18.028" height="2" transform="translate(-25.86 90.442) rotate(-70.548)"/><path d="M60.707,70.707l-1.414-1.414L65.586,63l-6.293-6.293,1.414-1.414,7,7a1,1,0,0,1,0,1.414Z"/><rect x="13" y="47" width="3" height="2"/><rect x="18" y="47" width="6" height="2"/><rect x="13" y="52" width="3" height="2"/><rect x="18" y="52" width="6" height="2"/><rect x="13" y="57" width="3" height="2"/><rect x="18" y="57" width="6" height="2"/><rect x="13" y="62" width="3" height="2"/><rect x="18" y="62" width="6" height="2"/><rect x="13" y="67" width="3" height="2"/><rect x="18" y="67" width="6" height="2"/><rect x="18" y="72" width="6" height="2"/></g></g></svg>