<svg xmlns="http://www.w3.org/2000/svg" viewBox="0 0 64 64"><g id="Layer_2" data-name="Layer 2"><path d="M38,63H26l1.179-3.537A15.992,15.992,0,0,0,28,54.4V45h8v9.4a15.992,15.992,0,0,0,.821,5.059Z" style="fill:#c67a60"/><path d="M37,60H32.728a2.674,2.674,0,0,1-2.565-3.489,15.472,15.472,0,0,0,.5-1.889,2.008,2.008,0,0,1,1.964-1.632c1.123,0,2.245-.017,3.368-.051V45H28v9.4a15.992,15.992,0,0,1-.821,5.059L26,63H38Z" style="fill:#b26049"/><path d="M48.531,30.06A8.039,8.039,0,0,0,51,24.262V21.738a7.982,7.982,0,0,0-6-7.752V13A12,12,0,0,0,33,1H31A12,12,0,0,0,19,13v.986a7.982,7.982,0,0,0-6,7.752v2.524a8.039,8.039,0,0,0,2.469,5.8A8.006,8.006,0,0,0,9,37.913v4.174a8.011,8.011,0,0,0,7.05,7.951,132.673,132.673,0,0,0,31.9,0A8.01,8.01,0,0,0,55,42.087V37.913A8.006,8.006,0,0,0,48.531,30.06Z" style="fill:#85b27c"/><path d="M42.54,11a1,1,0,0,1-.953-.7A8.961,8.961,0,0,0,40.2,7.6a1,1,0,0,1,1.6-1.2,10.927,10.927,0,0,1,1.7,3.3,1,1,0,0,1-.653,1.255A1.014,1.014,0,0,1,42.54,11Z" style="fill:#fff"/><path d="M16.169,27.894a2.033,2.033,0,0,0,.812-2.782A8.031,8.031,0,0,1,16,21.262V18.738a8.015,8.015,0,0,1,1.055-3.972A8.015,8.015,0,0,0,13,21.738v2.524a8.02,8.02,0,0,0,1.582,4.776A8.109,8.109,0,0,1,16.169,27.894Z" style="fill:#699b5d"/><path d="M50.95,47.038a132.69,132.69,0,0,1-27.43.464A12.631,12.631,0,0,1,12,34.913h0a7.967,7.967,0,0,1,1.044-3.947A8,8,0,0,0,9,37.913v4.174a8.033,8.033,0,0,0,7.107,7.958,132.714,132.714,0,0,0,31.843-.007,8,8,0,0,0,6-3.994A7.97,7.97,0,0,1,50.95,47.038Z" style="fill:#699b5d"/><path d="M50.3,29.539A9.09,9.09,0,0,0,52,24.262V21.738A8.979,8.979,0,0,0,48.626,14.7a1,1,0,1,0-1.251,1.56A6.992,6.992,0,0,1,50,21.738v2.524a7.071,7.071,0,0,1-2.162,5.076,1,1,0,0,0,.5,1.7A7.018,7.018,0,0,1,54,37.913v4.174a7.013,7.013,0,0,1-6.17,6.958,132.329,132.329,0,0,1-31.66,0A7.013,7.013,0,0,1,10,42.087V37.913a7.018,7.018,0,0,1,5.661-6.872,1,1,0,0,0,.5-1.7A7.071,7.071,0,0,1,14,24.262V21.738a6.955,6.955,0,0,1,5.243-6.782,1,1,0,0,0,.757-.97V13A11.013,11.013,0,0,1,31,2h2A11.013,11.013,0,0,1,44,13v.986a1,1,0,1,0,2,0V13A13.015,13.015,0,0,0,33,0H31A13.015,13.015,0,0,0,18,13v.241a8.961,8.961,0,0,0-6,8.5v2.524a9.09,9.09,0,0,0,1.7,5.277A9.025,9.025,0,0,0,8,37.913v4.174a9.015,9.015,0,0,0,7.931,8.944c3.676.443,7.37.723,11.069.861V54.4a14.97,14.97,0,0,1-.77,4.744l-1.179,3.537A1,1,0,0,0,26,64H38a1,1,0,0,0,.949-1.316L37.77,59.147A14.97,14.97,0,0,1,37,54.4V51.891c3.7-.137,7.394-.417,11.069-.86A9.015,9.015,0,0,0,56,42.087V37.913A9.025,9.025,0,0,0,50.3,29.539ZM35.873,59.78l.74,2.22H27.387l.74-2.22A16.949,16.949,0,0,0,29,54.4V51.951c1,.022,2,.045,3,.045s2-.023,3-.045V54.4A16.949,16.949,0,0,0,35.873,59.78Z"/></g></svg>