<?xml version="1.0" encoding="utf-8"?>
<!-- Generator: Adobe Illustrator 16.0.0, SVG Export Plug-In . SVG Version: 6.00 Build 0)  -->
<!DOCTYPE svg PUBLIC "-//W3C//DTD SVG 1.1//EN" "http://www.w3.org/Graphics/SVG/1.1/DTD/svg11.dtd">
<svg version="1.1" xmlns="http://www.w3.org/2000/svg" xmlns:xlink="http://www.w3.org/1999/xlink" x="0px" y="0px" width="64px"
	 height="64px" viewBox="0 0 64 64" enable-background="new 0 0 64 64" xml:space="preserve">
<g id="_x32_5_purse_x2C__money_x2C__coin_x2C__banknote_x2C__payment_x2C__shop_x2C__shopping">
</g>
<g id="_x32_4_pay_x2C__click_x2C__hand_x2C__coin_x2C__money_x2C__shop_x2C__payment">
</g>
<g id="_x32_3_card_x2C__discount_x2C__sale_x2C__shop_x2C__shopping_x2C__commerce_x2C__market">
</g>
<g id="_x32_2_safe_x2C__box_x2C__key_x2C__thing_x2C__shop_x2C__shopping_x2C__commerce">
</g>
<g id="_x32_1_cashbox_x2C__money_x2C__purchase_x2C__list_x2C__check_x2C__shop_x2C__shopping">
</g>
<g id="_x32_0_search_x2C__magnifier_x2C__basket_x2C__shop_x2C__shopping_x2C__commerce_x2C__market">
	<g>
		
			<rect x="38.555" y="35.903" transform="matrix(0.7071 -0.7071 0.7071 0.7071 -17.0034 41.0527)" fill="#CCD1D9" width="4.997" height="10.296"/>
		<circle fill="#E6E9ED" cx="23.52" cy="23.524" r="23"/>
		<path fill="#5D9CEC" d="M43.02,23.524c-0.001,10.768-8.731,19.5-19.499,19.502C12.751,43.022,4.021,34.293,4.02,23.523
			c0.001-10.768,8.73-19.5,19.501-19.498C34.288,4.025,43.02,12.757,43.02,23.524z"/>
		<g>
			<g>
				<path fill="#656D78" d="M17.519,21.025c-0.13-0.001-0.257-0.051-0.354-0.146c-0.196-0.195-0.196-0.512,0-0.707l5.001-5.002
					c0.195-0.195,0.513-0.194,0.707,0c0.195,0.195,0.195,0.512,0,0.707l-5.001,5.002C17.774,20.976,17.646,21.025,17.519,21.025z"/>
			</g>
			<g>
				<path fill="#656D78" d="M29.519,21.025c-0.129-0.001-0.257-0.051-0.354-0.146l-5-5.002c-0.196-0.195-0.196-0.513,0-0.707
					c0.195-0.195,0.511-0.195,0.707,0l5,5.002c0.195,0.195,0.195,0.512,0,0.707C29.774,20.976,29.646,21.025,29.519,21.025z"/>
			</g>
			<path fill="#FFCE54" d="M33.519,21.023c-0.001,0.275-0.226,0.499-0.5,0.499H14.018c-0.274,0-0.499-0.224-0.5-0.499l0.001-1
				c-0.001-0.275,0.224-0.5,0.5-0.5h18.999c0.276,0,0.501,0.225,0.5,0.5L33.519,21.023z"/>
			<polygon fill="#F6BB42" points="30.519,32.525 16.519,32.525 14.519,21.523 32.519,21.522 			"/>
			<g>
				<path fill="#EDAB37" d="M23.519,30.023c-0.278,0-0.5-0.224-0.5-0.5v-5c0-0.275,0.225-0.5,0.5-0.499c0.277,0,0.5,0.224,0.5,0.499
					v5C24.019,29.8,23.794,30.024,23.519,30.023z"/>
			</g>
			<g>
				<path fill="#EDAB37" d="M26.518,30.023c-0.276,0.001-0.5-0.224-0.5-0.5v-4.999c0-0.276,0.226-0.5,0.5-0.5
					c0.275-0.001,0.5,0.224,0.5,0.499v5C27.019,29.801,26.793,30.024,26.518,30.023z"/>
			</g>
			<g>
				<path fill="#EDAB37" d="M20.519,30.024L20.519,30.024c-0.276,0-0.5-0.224-0.5-0.5v-5.001c-0.001-0.276,0.225-0.5,0.5-0.499l0,0
					c0.277-0.001,0.5,0.224,0.5,0.5v5C21.019,29.801,20.793,30.024,20.519,30.024z"/>
			</g>
		</g>
		<path fill="#656D78" d="M62.283,57.33l-14.76-14.761h-0.006c-0.196-0.191-0.509-0.191-0.703,0.003c0,0,0,0,0,0.001l-4.24,4.239
			c-0.176,0.177-0.186,0.468-0.046,0.663l14.421,14.419c0.441,0.448,0.475,0.504,0.52,0.55c1.377,1.376,3.605,1.374,4.979,0
			c1.375-1.375,1.376-3.604,0.001-4.979C62.398,57.413,62.337,57.378,62.283,57.33z"/>
	</g>
</g>
<g id="_x31_9_return_x2C__box_x2C__purchase_x2C__shipping_x2C__delivery_x2C__shop_x2C__shopping">
</g>
<g id="_x31_8_review_x2C__client_x2C__buyer_x2C__talk_x2C__shop_x2C__shopping_x2C__commerce">
</g>
<g id="_x31_7_manager_x2C__consultant_x2C__shop_x2C__shopping_x2C__commerce_x2C__market_x2C__badge">
</g>
<g id="_x31_6_check_x2C__list_x2C__cashbox_x2C__purchase_x2C__shop_x2C__shopping_x2C__commerce">
</g>
<g id="_x31_5_coupon_x2C__sale_x2C__discount_x2C__shop_x2C__shopping_x2C__commerce_x2C__market">
</g>
<g id="_x31_4_sale_x2C__discount_x2C__box_x2C__gift_x2C__shop_x2C__shopping_x2C__commerce">
</g>
<g id="_x31_3_map_x2C__pin_x2C__marker_x2C__location_x2C__shop_x2C__shopping_x2C__basket">
</g>
<g id="_x31_2_operator_x2C__call_x2C__center_x2C__shop_x2C__shopping_x2C__commerce_x2C__market">
</g>
<g id="_x31_1_courier_x2C__box_x2C__shipping_x2C__purchase_x2C__shop_x2C__shopping_x2C__commerce">
</g>
<g id="_x31_0_box_x2C__shipping_x2C__delivery_x2C__purchase_x2C__shop_x2C__shopping_x2C__commerce">
</g>
<g id="_x39__shipping_x2C__delivery_x2C__box_x2C__crane_x2C__shop_x2C__shopping_x2C__commerce">
</g>
<g id="_x38__computer_x2C__monitor_x2C__desktop_x2C__shop_x2C__shopping_x2C__commerce_x2C__market">
</g>
<g id="_x37__mobile_x2C__phone_x2C__app_x2C__shop_x2C__shopping_x2C__commerce_x2C__market">
</g>
<g id="_x36__food_x2C__market_x2C__purchase_x2C__shop_x2C__shopping_x2C__commerce_x2C__basket">
</g>
<g id="_x35__discount_x2C__sale_x2C__purchase_x2C__pocket_x2C__shop_x2C__shopping_x2C__commerce">
</g>
<g id="_x34__badge_x2C__discount_x2C__sale_x2C__shop_x2C__shopping_x2C__commerce_x2C__market">
</g>
<g id="_x33__food_x2C__pocket_x2C__purchase_x2C__shop_x2C__shopping_x2C__commerce_x2C__supermarket">
</g>
<g id="_x32__shop_x2C__shopping_x2C__commerce_x2C__supermarket_x2C__market_x2C__cart">
</g>
<g id="_x31__list_x2C__check_x2C__notebook_x2C__pen_x2C__shop_x2C__shopping_x2C__commerce">
</g>
</svg>
