<svg xmlns="http://www.w3.org/2000/svg" viewBox="0 0 64 64"><g id="_20-call_center" data-name="20-call center"><rect x="11" y="9" width="38" height="46" style="fill:#80dbff"/><path d="M49,55v4a4,4,0,0,1-4,4H15a4,4,0,0,1-4-4V55Z" style="fill:#f0f0f0"/><path d="M49,5V9H11V5a4,4,0,0,1,4-4H45A4,4,0,0,1,49,5Z" style="fill:#f0f0f0"/><rect x="11" y="9" width="4" height="46" style="fill:#19cffc"/><rect x="45" y="9" width="4" height="46" style="fill:#19cffc"/><path d="M15,59V55H11v4a4,4,0,0,0,4,4h4A4,4,0,0,1,15,59Z" style="fill:#d9d9d9"/><path d="M19,1H15a4,4,0,0,0-4,4V9h4V5A4,4,0,0,1,19,1Z" style="fill:#d9d9d9"/><path d="M45,59V55h4v4a4,4,0,0,1-4,4H41A4,4,0,0,0,45,59Z" style="fill:#d9d9d9"/><path d="M41,1h4a4,4,0,0,1,4,4V9H45V5A4,4,0,0,0,41,1Z" style="fill:#d9d9d9"/><rect x="25" y="4" width="10" height="2" style="fill:#6e6e6e"/><rect x="25" y="58" width="10" height="2" style="fill:#6e6e6e"/><rect x="44" y="12" width="2" height="2" style="fill:#4ab8f7"/><rect x="44" y="16" width="2" height="13" style="fill:#4ab8f7"/><circle cx="30" cy="26" r="13" style="fill:#ff636e"/><path d="M20,26A13,13,0,0,1,31.5,13.093a13,13,0,1,0,0,25.814A13,13,0,0,1,20,26Z" style="fill:#ff475a"/><rect x="28" y="31" width="4" height="4" style="fill:#ffc9c9"/><polygon points="33 17 32 27 28 27 27 17 33 17" style="fill:#ffc9c9"/><path d="M49,56c3.73-1.49,4.68-3.54,4.91-4.48l2.87.78C55.94,53.45,53,57.86,53,63H45c0-5.14-2.94-9.55-3.78-10.7l2.87-.78C44.32,52.46,45.27,54.51,49,56Z" style="fill:#f0f0f0"/><path d="M63,54v9H53c0-5.14,2.94-9.55,3.78-10.7Z" style="fill:#fc9942"/><path d="M45,63H35V54l6.22-1.7C42.06,53.45,45,57.86,45,63Z" style="fill:#fc9942"/><path d="M52,51l1.91.52c-.23.94-1.18,2.99-4.91,4.48-3.73-1.49-4.68-3.54-4.91-4.48L46,51V47.5L49,49l3-1.5Z" style="fill:#faa68e"/><path d="M52,47.5,49,49l-3-1.5L43,46l-1-7s4,0,4-3c0,0,0,3,10,3l-1,7Z" style="fill:#ffcdbe"/><path d="M46,38s.006,2.94,9.715,3L56,39c-10,0-10-3-10-3,0,3-4,3-4,3l.284,1.986C43.188,40.921,46,40.519,46,38Z" style="fill:#ffbeaa"/><path d="M59,35a35.412,35.412,0,0,0,2,12,11.6,11.6,0,0,1-9,4V47.5L55,46l1-7c-10,0-10-3-10-3,0,3-4,3-4,3l1,7,3,1.5V51a11.6,11.6,0,0,1-9-4,35.412,35.412,0,0,0,2-12,10,10,0,0,1,20,0Z" style="fill:#966857"/><path d="M52,47.5v3L55,49l1-7c-.147,0-.285,0-.428,0L55,46Z" style="fill:#8d5c4d"/><path d="M37.709,47.766A37.658,37.658,0,0,0,39,38a10,10,0,0,1,20,0,37.658,37.658,0,0,0,1.291,9.766A7.557,7.557,0,0,0,61,47a35.412,35.412,0,0,1-2-12,10,10,0,0,0-20,0,35.412,35.412,0,0,1-2,12A7.557,7.557,0,0,0,37.709,47.766Z" style="fill:#8d5c4d"/><path d="M42.425,41.974C42.166,42,42,42,42,42l1,7,3,1.5v-3L43,46Z" style="fill:#8d5c4d"/><path d="M44.678,60A14.8,14.8,0,0,1,45,63h8a14.8,14.8,0,0,1,.322-3Z" style="fill:#d9d9d9"/><path d="M53.322,60A14.8,14.8,0,0,0,53,63H63V60Z" style="fill:#ff873c"/><path d="M42,60a4,4,0,0,1-4-4V53.18L35,54v9H45a14.8,14.8,0,0,0-.322-3Z" style="fill:#ff873c"/><polygon points="50 44 50 46 43 46 42.71 44 50 44" style="fill:#595959"/><path d="M12,10H48V22h2V5a5.006,5.006,0,0,0-5-5H15a5.006,5.006,0,0,0-5,5V59a5.006,5.006,0,0,0,5,5H32V62H15a3,3,0,0,1-3-3V56H32V54H12Zm3-8H45a3,3,0,0,1,3,3V8H12V5A3,3,0,0,1,15,2Z"/><rect x="25" y="4" width="10" height="2"/><rect x="25" y="58" width="7" height="2"/><path d="M63.263,53.035,56.569,51.21A12.014,12.014,0,0,0,61.8,47.6a1,1,0,0,0,.129-.97A34.828,34.828,0,0,1,60,35a11,11,0,0,0-22,0,34.828,34.828,0,0,1-1.929,11.63,1,1,0,0,0,.129.97,12.014,12.014,0,0,0,5.231,3.61l-6.694,1.825A1,1,0,0,0,34,54v9a1,1,0,0,0,1,1H63a1,1,0,0,0,1-1V54A1,1,0,0,0,63.263,53.035ZM43.725,44l-.587-4.1a4.99,4.99,0,0,0,3.223-1.788c1.278.9,3.743,1.758,8.488,1.878l-.765,5.354L49,47.882,45.236,46H50V44Zm2.538,7.965A1,1,0,0,0,47,51V49.118l1.553.777a1,1,0,0,0,.894,0L51,49.118V51a1,1,0,0,0,.737.965l.813.222A7.4,7.4,0,0,1,49,54.917a7.372,7.372,0,0,1-3.552-2.73Zm2.365,4.964a1.01,1.01,0,0,0,.744,0c3.156-1.263,4.541-2.952,5.15-4.205l.644.176A20.4,20.4,0,0,0,52.039,62H45.961a20.4,20.4,0,0,0-3.127-9.1l.644-.176C44.087,53.977,45.472,55.666,48.628,56.929ZM40,35a9,9,0,0,1,18,0,37.481,37.481,0,0,0,1.859,11.791A10.714,10.714,0,0,1,53,49.936V48.118L55.447,46.9a1,1,0,0,0,.543-.753l1-7A1,1,0,0,0,56,38c-7.981,0-8.943-1.942-9-2.094A1,1,0,0,0,45,36c0,1.959-2.88,2-3,2a1,1,0,0,0-.99,1.142l1,7a1,1,0,0,0,.543.753L45,48.118v1.818a10.709,10.709,0,0,1-6.859-3.145A37.481,37.481,0,0,0,40,35ZM36,54.764l4.807-1.311A18.919,18.919,0,0,1,43.959,62H36ZM62,62H54.041A19.007,19.007,0,0,1,57.2,53.453L62,54.764Z"/><path d="M41.859,24.152l1.976-.3a14,14,0,1,0-7.373,14.574l-.924-1.774a12,12,0,1,1,6.321-12.5Z"/><path d="M33.741,16.329A1,1,0,0,0,33,16H27a1,1,0,0,0-1,1.1l1,10a1,1,0,0,0,1,.9h4a1,1,0,0,0,.995-.9l1-10A1,1,0,0,0,33.741,16.329ZM31.1,26h-2.19l-.8-8H31.9Z"/><path d="M32,30H28a1,1,0,0,0-1,1v4a1,1,0,0,0,1,1h4a1,1,0,0,0,1-1V31A1,1,0,0,0,32,30Zm-1,4H29V32h2Z"/><path d="M14,47v4a1,1,0,0,0,1,1h4V50H16V47Z"/><rect x="21" y="50" width="2" height="2"/></g></svg>