<svg xmlns="http://www.w3.org/2000/svg" viewBox="0 0 64 64"><g id="Layer_2" data-name="Layer 2"><path d="M27.811,51H34.98q-.163-2.09-.307-4.143A2,2,0,0,0,32.68,45H29.821a2,2,0,0,0-2,1.989Q27.8,48.96,27.811,51Z" style="fill:#c67a60"/><path d="M30.813,45.99c0-.331,0-.66.005-.99h-1a2,2,0,0,0-2,1.989Q27.8,48.96,27.811,51H34.98c-.079-1.009-.15-2-.223-3H32.814A2,2,0,0,1,30.813,45.99Z" style="fill:#b26049"/><path d="M27.842,45h6.7q-.139-2.076-.255-4.116A1.994,1.994,0,0,0,32.3,39H29.923a2,2,0,0,0-2,1.939Q27.87,42.93,27.842,45Z" style="fill:#c67a60"/><path d="M30.881,39.953c.007-.318.014-.635.022-.953h-.98a2,2,0,0,0-2,1.939Q27.87,42.93,27.842,45h6.7c-.067-1.009-.127-2-.186-3H32.88A2,2,0,0,1,30.881,39.953Z" style="fill:#b26049"/><path d="M27.869,57h7.6q-.178-2.1-.345-4.163A2,2,0,0,0,33.133,51h-3.31a2,2,0,0,0-2,2.005Q27.836,54.972,27.869,57Z" style="fill:#c67a60"/><path d="M30.843,52.019c0-.34-.007-.679-.01-1.019h-1.01a2,2,0,0,0-2,2.005q.015,1.967.048,3.995h7.6c-.086-1.008-.167-2-.249-3H32.843A2,2,0,0,1,30.843,52.019Z" style="fill:#b26049"/><path d="M29.949,63h3.864A2,2,0,0,0,35.8,60.818q-.09-1-.176-1.995A2,2,0,0,0,33.637,57H29.906a2,2,0,0,0-2,2.043q.02,1,.044,2.008A2,2,0,0,0,29.949,63Z" style="fill:#c67a60"/><path d="M32.949,60a2,2,0,0,1-2-1.949c-.009-.353-.016-.7-.023-1.051H29.906a2,2,0,0,0-2,2.043q.02,1,.044,2.008a2,2,0,0,0,2,1.949h3.864A2,2,0,0,0,35.8,60.818c-.024-.274-.048-.545-.072-.818Z" style="fill:#b26049"/><path d="M28.157,34.889q-.1,2.01-.174,4.111h6.206q-.106-2.059-.187-4.081a1.994,1.994,0,0,0-2-1.919H30.154A2,2,0,0,0,28.157,34.889Z" style="fill:#c67a60"/><path d="M31.068,33.908,31.11,33h-.956a2,2,0,0,0-2,1.889q-.1,2.01-.174,4.111h6.206c-.053-1.009-.095-2.005-.138-3h-.985A2,2,0,0,1,31.068,33.908Z" style="fill:#b26049"/><path d="M31.843,27h-1.3a2,2,0,0,0-1.993,1.827q-.165,2.031-.292,4.173h5.672q-.066-2.04-.094-4.031A2,2,0,0,0,31.843,27Z" style="fill:#c67a60"/><path d="M31.407,27.851,31.471,27h-.925a2,2,0,0,0-1.993,1.827q-.165,2.031-.292,4.173h5.672c-.033-1.012-.051-2.006-.07-3H33.4A2,2,0,0,1,31.407,27.851Z" style="fill:#b26049"/><path d="M41,31.588l-1.207,2.826A35.4,35.4,0,0,0,46,40.249a26.029,26.029,0,0,0,1.016-5.921l-2.284-.275,2.3-2.023a16.991,16.991,0,0,0-1.314-6.1l-3.256.2,1.8-2.721a16.95,16.95,0,0,0-4.626-4.189l-2.9.982.9-2.116A26.033,26.033,0,0,0,32,16a35.388,35.388,0,0,0,1.949,8.293L37,24.66l-2.089,2.02A31.575,31.575,0,0,0,36.4,29.624a31.6,31.6,0,0,0,1.8,2.764Z" style="fill:#629955"/><path d="M47.429,7.421l2.8,1.285A36.8,36.8,0,0,0,56,2.1a24.18,24.18,0,0,0-5.86-1.082L49.867,3.45l-2-2.45a15.8,15.8,0,0,0-6.038,1.4l.194,3.464L39.327,3.951a17.667,17.667,0,0,0-4.146,4.924l.972,3.089L34.059,11A29.085,29.085,0,0,0,32,17a32.933,32.933,0,0,0,8.208-2.075l.363-3.246,2,2.223a30.649,30.649,0,0,0,2.915-1.587A31.392,31.392,0,0,0,48.22,10.4Z" style="fill:#629955"/><path d="M16.571,7.421l-2.8,1.285A36.8,36.8,0,0,1,8,2.1a24.18,24.18,0,0,1,5.86-1.082l.273,2.432,2-2.45a15.8,15.8,0,0,1,6.038,1.4l-.194,3.464,2.694-1.912a17.667,17.667,0,0,1,4.146,4.924l-.972,3.089L29.941,11A29.085,29.085,0,0,1,32,17a32.933,32.933,0,0,1-8.208-2.075l-.363-3.246-2,2.223a30.649,30.649,0,0,1-2.915-1.587A31.392,31.392,0,0,1,15.78,10.4Z" style="fill:#629955"/><path d="M23,31.588l1.207,2.826A35.4,35.4,0,0,1,18,40.249a26.029,26.029,0,0,1-1.016-5.921l2.284-.275-2.3-2.023a16.991,16.991,0,0,1,1.314-6.1l3.256.2-1.8-2.721a16.95,16.95,0,0,1,4.626-4.189l2.9.982-.9-2.116A26.033,26.033,0,0,1,32,16a35.388,35.388,0,0,1-1.949,8.293L27,24.66l2.089,2.02A31.575,31.575,0,0,1,27.6,29.624a31.6,31.6,0,0,1-1.8,2.764Z" style="fill:#629955"/><path d="M34,17H30q-.8,4.589-1.289,10h5.106C33.791,23.568,33.842,20.228,34,17Z" style="fill:#c67a60"/><path d="M31.923,21.867q.268-2.526.607-4.867H30q-.8,4.589-1.289,10h5.106c-.008-1.014.006-2,.013-3h0A1.923,1.923,0,0,1,31.923,21.867Z" style="fill:#b26049"/><path d="M48.914,22.156l.892,2.941a35.371,35.371,0,0,0,8.505.48,26.022,26.022,0,0,0-3.027-5.19l-1.927,1.258.463-3.029a16.971,16.971,0,0,0-4.928-3.829L46.524,17.03l-.373-3.24a16.937,16.937,0,0,0-6.236-.235l-1.593,2.618-.668-2.2A26.025,26.025,0,0,0,32,16a35.385,35.385,0,0,0,6.824,5.1L41.4,19.42l-.3,2.89a31.638,31.638,0,0,0,3.035,1.3,31.594,31.594,0,0,0,3.158.957Z" style="fill:#85b27c"/><path d="M51,19.636a1,1,0,0,1-.665-.253A13.668,13.668,0,0,0,48.653,18.1a1,1,0,0,1,1.081-1.682,15.546,15.546,0,0,1,1.931,1.474A1,1,0,0,1,51,19.636Z" style="fill:#fff"/><path d="M15.086,22.156,14.194,25.1a35.371,35.371,0,0,1-8.505.48,26.022,26.022,0,0,1,3.027-5.19l1.927,1.258-.463-3.029a16.971,16.971,0,0,1,4.928-3.829l2.368,2.243.373-3.24a16.937,16.937,0,0,1,6.236-.235l1.593,2.618.668-2.2A26.025,26.025,0,0,1,32,16a35.385,35.385,0,0,1-6.824,5.1L22.6,19.42l.3,2.89a31.638,31.638,0,0,1-3.035,1.3,31.594,31.594,0,0,1-3.158.957Z" style="fill:#85b27c"/><path d="M48.033,31.988a19.577,19.577,0,0,0-.638-4.3,1,1,0,1,0-1.93.524,17.22,17.22,0,0,1,.544,3.384l-1.937,1.7a1,1,0,0,0,.54,1.744l1.335.16a26.752,26.752,0,0,1-.533,3.335,37.041,37.041,0,0,1-4.457-4.307l.962-2.253a1,1,0,0,0-1.194-1.354l-2.114.6c-.412-.592-.785-1.168-1.13-1.744a1,1,0,1,0-1.716,1.026c.484.81,1.018,1.616,1.632,2.462a1.006,1.006,0,0,0,1.084.375l.774-.222-.381.893a1,1,0,0,0,.155,1.039,36.092,36.092,0,0,0,6.4,6.013,1,1,0,0,0,.567.176,1.02,1.02,0,0,0,.322-.053,1,1,0,0,0,.629-.638,26.931,26.931,0,0,0,1.064-6.173,1,1,0,0,0-.879-1.05l-.064-.008.622-.546A1,1,0,0,0,48.033,31.988Z"/><path d="M59.238,25.2a26.743,26.743,0,0,0-3.153-5.412,1,1,0,0,0-1.348-.238l-.053.034.125-.817a1.006,1.006,0,0,0-.25-.827,17.946,17.946,0,0,0-5.223-4.05,1,1,0,0,0-1.131.17l-.916.867-.144-1.253a1,1,0,0,0-.758-.858,17.932,17.932,0,0,0-6.605-.254,1,1,0,0,0-.722.472l-.43.707-.019-.061A1,1,0,0,0,37.425,13a28.254,28.254,0,0,0-3.544,1.092c.192-.546.413-1.133.679-1.757l1.176.541a1,1,0,0,0,1.371-1.209l-.836-2.659a16.986,16.986,0,0,1,3.106-3.791l2.065,1.465a1,1,0,0,0,1.577-.871l-.155-2.772a14.885,14.885,0,0,1,4.55-1.008l1.679,2.054a1,1,0,0,0,1.768-.521L51.025,2.1a24.648,24.648,0,0,1,3.343.581,38.356,38.356,0,0,1-4.332,4.843l-2.19-1.006a1,1,0,0,0-1.384,1.166l.62,2.327-.16.12a1,1,0,1,0,1.191,1.605q.367-.271.722-.548a1,1,0,0,0,.351-1.045l-.245-.921.867.4A1,1,0,0,0,50.9,9.446,37.6,37.6,0,0,0,56.842,2.64a1,1,0,0,0-.512-1.484A24.982,24.982,0,0,0,50.2.021a1,1,0,0,0-1.055.886l-.008.071-.5-.611A.991.991,0,0,0,47.82,0,16.762,16.762,0,0,0,41.4,1.494a1,1,0,0,0-.572.96l.077,1.392-1-.71a1,1,0,0,0-1.2.031,18.6,18.6,0,0,0-4.387,5.2,1,1,0,0,0-.093.809l.3.939-.046-.021a1,1,0,0,0-1.323.484C32.68,11.588,32.3,12.553,32,13.409a30.542,30.542,0,0,0-1.152-2.832,1,1,0,0,0-1.323-.484l-.046.021.3-.939a1,1,0,0,0-.093-.809,18.6,18.6,0,0,0-4.387-5.2,1,1,0,0,0-1.2-.031l-1,.71.077-1.392a1,1,0,0,0-.572-.96A16.762,16.762,0,0,0,16.18,0a1,1,0,0,0-.82.366l-.5.611L14.854.907A1,1,0,0,0,13.8.021,24.982,24.982,0,0,0,7.67,1.156,1,1,0,0,0,7.158,2.64,37.6,37.6,0,0,0,13.1,9.446a1,1,0,0,0,1.089.169l.867-.4-.245.921a1,1,0,0,0,.352,1.046q.386.3.787.6a1,1,0,1,0,1.188-1.607l-.223-.167.62-2.327a1,1,0,0,0-1.384-1.166l-2.19,1.006A38.356,38.356,0,0,1,9.632,2.676,24.648,24.648,0,0,1,12.975,2.1l.164,1.466a1,1,0,0,0,1.768.521l1.679-2.054a14.885,14.885,0,0,1,4.55,1.008l-.155,2.772a1,1,0,0,0,1.577.871l2.065-1.465a16.986,16.986,0,0,1,3.106,3.791l-.836,2.659a1,1,0,0,0,1.371,1.209l1.176-.541c.266.625.488,1.215.679,1.758A28.024,28.024,0,0,0,26.575,13a1,1,0,0,0-1.186.684l-.019.061-.43-.707a1,1,0,0,0-.722-.472,17.953,17.953,0,0,0-6.6.254,1,1,0,0,0-.758.858l-.144,1.253-.916-.867a1,1,0,0,0-1.131-.17,17.946,17.946,0,0,0-5.223,4.05,1.006,1.006,0,0,0-.25.827l.125.817-.053-.034a1,1,0,0,0-1.348.238A26.743,26.743,0,0,0,4.762,25.2a1,1,0,0,0,.831,1.37c.071.007.875.081,2.191.081a39.006,39.006,0,0,0,6.58-.57,1,1,0,0,0,.787-.7l.282-.93.45.667a1.006,1.006,0,0,0,1.071.411,32.342,32.342,0,0,0,3.258-.988,32.611,32.611,0,0,0,3.131-1.337,1,1,0,0,0,.556-1l-.083-.8.814.532a1,1,0,0,0,1.049.027c1.04-.6,1.981-1.219,2.814-1.8-.3,2.11-.559,4.37-.778,6.748a1,1,0,0,0,.032.273c-.329.682-.661,1.331-1.015,1.943-.4.7-.845,1.392-1.343,2.107l-2.114-.6a1,1,0,0,0-1.194,1.354l.962,2.253a37.041,37.041,0,0,1-4.457,4.307,26.752,26.752,0,0,1-.533-3.335l1.335-.16a1,1,0,0,0,.54-1.744l-1.937-1.7a17.188,17.188,0,0,1,.54-3.371,1,1,0,0,0-1.93-.521,19.571,19.571,0,0,0-.634,4.28,1,1,0,0,0,.339.793l.622.546-.064.008a1,1,0,0,0-.879,1.05,26.931,26.931,0,0,0,1.064,6.173,1,1,0,0,0,.629.638,1.02,1.02,0,0,0,.322.053,1,1,0,0,0,.567-.176,36.092,36.092,0,0,0,6.4-6.013,1,1,0,0,0,.155-1.039l-.381-.893.774.222a1.006,1.006,0,0,0,1.084-.375c.259-.358.492-.7.726-1.053-.022.34-.045.675-.066,1.018a.99.99,0,0,0,.232.683,2.967,2.967,0,0,0-.336,1.216q-.1,2.017-.175,4.127a1,1,0,0,0,.258.694,2.994,2.994,0,0,0-.317,1.251q-.054,2-.083,4.075a1,1,0,0,0,.288.716,2.963,2.963,0,0,0-.31,1.279q-.015,1.976-.009,4.022a.991.991,0,0,0,.306.714,2.957,2.957,0,0,0-.3,1.3q.015,1.97.048,4a.989.989,0,0,0,.329.717,2.967,2.967,0,0,0-.292,1.328l.044,2.012a3.016,3.016,0,0,0,3,2.926h3.864A3,3,0,0,0,36.8,60.73l-.176-1.994a3.006,3.006,0,0,0-.354-1.166.993.993,0,0,0,.2-.655q-.18-2.1-.345-4.158a3.021,3.021,0,0,0-.349-1.176,1,1,0,0,0,.2-.658q-.162-2.088-.307-4.137a2.956,2.956,0,0,0-.346-1.181.987.987,0,0,0,.219-.671q-.137-2.073-.253-4.107a2.986,2.986,0,0,0-.337-1.2.991.991,0,0,0,.234-.677Q35.082,36.9,35,34.88a2.985,2.985,0,0,0-.322-1.227,1,1,0,0,0,.254-.685q-.066-2.033-.095-4.014A2.957,2.957,0,0,0,34.53,27.7a.994.994,0,0,0,.286-.705c-.019-2.6.008-5,.079-7.272a39.273,39.273,0,0,0,3.426,2.243,1,1,0,0,0,1.049-.027l.814-.532-.083.8a1,1,0,0,0,.556,1,32.611,32.611,0,0,0,3.131,1.337,32.342,32.342,0,0,0,3.258.988,1,1,0,0,0,1.071-.411l.45-.667.282.93a1,1,0,0,0,.787.7,39.014,39.014,0,0,0,6.58.57c1.315,0,2.12-.074,2.191-.081a1,1,0,0,0,.831-1.37ZM25.2,19.922l-2.053-1.339a1,1,0,0,0-1.541.94l.229,2.188c-.792.367-1.552.682-2.308.957s-1.546.523-2.384.751L15.914,21.6a1,1,0,0,0-1.786.269l-.711,2.345a37.163,37.163,0,0,1-6.182.434,26.9,26.9,0,0,1,1.735-2.9l1.126.734a1,1,0,0,0,1.535-.988l-.389-2.55a16.144,16.144,0,0,1,3.7-2.937l1.848,1.749a1,1,0,0,0,1.681-.612l.291-2.528a16.26,16.26,0,0,1,4.722-.128l1.34,2.2a1,1,0,0,0,1.812-.229l.39-1.286a26.774,26.774,0,0,1,3.191,1.1A36.975,36.975,0,0,1,25.2,19.922ZM28.854,56q-.023-1.519-.033-3a.975.975,0,0,1,.285-.7,1,1,0,0,1,.717-.3h3.31a.992.992,0,0,1,.995.917q.123,1.532.254,3.083H28.854Zm.969-6H28.809q0-1.521.011-3a1.006,1.006,0,0,1,1-1H32.68a1,1,0,0,1,.995.927q.108,1.526.225,3.073H29.823Zm0-6h-.964q.027-1.539.067-3.035a1,1,0,0,1,1-.965H32.3a1,1,0,0,1,1,.94q.087,1.52.186,3.06H29.821Zm.1-6h-.9q.06-1.555.136-3.06a1,1,0,0,1,1-.94h1.853a1,1,0,0,1,1,.958q.059,1.509.134,3.042H29.923Zm2.915-9.017q.024,1.5.065,3.017H29.325q.1-1.576.224-3.092a1,1,0,0,1,1-.908h1.3A.988.988,0,0,1,32.838,28.983Zm1.71,32.693a.986.986,0,0,1-.735.324H29.949a1.006,1.006,0,0,1-1-.973l-.043-2.005a1,1,0,0,1,1-1.022h3.731a.993.993,0,0,1,.995.911l.176,2A1,1,0,0,1,34.548,61.676ZM32.811,26h-3c.269-2.712.593-5.252.965-7.571.5-.413.911-.77,1.224-1.054.253.229.569.507.947.823C32.848,20.643,32.8,23.205,32.811,26Zm17.772-1.789-.711-2.345a1,1,0,0,0-1.786-.269l-1.231,1.822c-.838-.228-1.623-.475-2.384-.751s-1.516-.59-2.308-.957l.229-2.188a1,1,0,0,0-1.541-.94L38.8,19.922a36.975,36.975,0,0,1-5.014-3.642,26.774,26.774,0,0,1,3.191-1.1l.39,1.286a1,1,0,0,0,.832.7,1.015,1.015,0,0,0,.98-.473l1.34-2.2a16.2,16.2,0,0,1,4.723.128l.29,2.528a1,1,0,0,0,1.681.612l1.848-1.749a16.144,16.144,0,0,1,3.7,2.937l-.389,2.55a1,1,0,0,0,1.535.988l1.126-.734a26.9,26.9,0,0,1,1.735,2.9A37.041,37.041,0,0,1,50.583,24.211Z"/></g></svg>