<svg xmlns="http://www.w3.org/2000/svg" viewBox="0 0 90 90"><title>20-Develop</title><g id="_20-Develop" data-name="20-Develop"><g id="_Group_" data-name="&lt;Group&gt;"><path d="M73.341,12.662a43,43,0,0,0-56.682,0l-1.318-1.5a45,45,0,0,1,59.318,0Z"/><path d="M6.008,67.471l-.218-.385A45.01,45.01,0,0,1,8.183,19.124l1.634,1.152A43.013,43.013,0,0,0,7.54,66.118l.231.411Z"/><path d="M45,90a45.116,45.116,0,0,1-20.854-5.114l.928-1.772A43.093,43.093,0,0,0,45,88a42.43,42.43,0,0,0,10.444-1.289c.145-.03.212-.042.274-.06l.564,1.918c-.119.035-.251.063-.372.086A44.336,44.336,0,0,1,45,90Z"/><path d="M70.842,81.84l-1.084-1.68A43.268,43.268,0,0,0,80.319,69.528a43.009,43.009,0,0,0,.069-48.96l1.644-1.136a45,45,0,0,1-.072,51.239A45.274,45.274,0,0,1,70.979,81.745Z"/><path d="M82,70H80V14a1,1,0,0,0-1-1H11a1,1,0,0,0-1,1V57.95L8,58V14a3,3,0,0,1,3-3H79a3,3,0,0,1,3,3Z"/><path d="M15,21a3,3,0,1,1,3-3A3,3,0,0,1,15,21Zm0-4a1,1,0,1,0,1,1A1,1,0,0,0,15,17Z"/><path d="M23,21a3,3,0,1,1,3-3A3,3,0,0,1,23,21Zm0-4a1,1,0,1,0,1,1A1,1,0,0,0,23,17Z"/><rect x="72" y="15" width="5" height="2"/><rect x="72" y="19" width="5" height="2"/><rect x="9" y="23" width="72" height="2"/><rect x="67" y="12" width="2" height="12"/><path d="M75,45H62a3,3,0,0,1-3-3V29h2V42a1,1,0,0,0,1,1H75Z"/><path d="M76,70H74V44.414L59.586,30H17a1,1,0,0,0-1,1V58H14V31a3,3,0,0,1,3-3H60a1,1,0,0,1,.707.293l15,15A1,1,0,0,1,76,44Z"/><rect x="74" y="74" width="2" height="3"/><path d="M24,87H20a1,1,0,0,1-.974-.771l-1.158-4.911a12.759,12.759,0,0,1-1.669-.686L11.915,83.28a1,1,0,0,1-1.231-.142l-2.83-2.82a1,1,0,0,1-.144-1.235L10.367,74.8a12.55,12.55,0,0,1-.685-1.668L4.771,71.974A1,1,0,0,1,4,71V67a1,1,0,0,1,.772-.974l4.91-1.157a12.563,12.563,0,0,1,.685-1.669L7.71,58.917a1,1,0,0,1,.144-1.235l2.829-2.829a1,1,0,0,1,1.234-.143L16.2,57.367a12.55,12.55,0,0,1,1.668-.685l1.158-4.911A1,1,0,0,1,20,51h4a1,1,0,0,1,.974.771l1.158,4.911a12.55,12.55,0,0,1,1.668.685l4.283-2.657a1,1,0,0,1,1.234.143l2.83,2.83a1,1,0,0,1,.143,1.234L33.633,63.2a12.55,12.55,0,0,1,.685,1.668l4.911,1.158A1,1,0,0,1,40,67v4a1,1,0,0,1-.771.974l-4.911,1.158a12.55,12.55,0,0,1-.685,1.668l2.657,4.283a1,1,0,0,1-.144,1.235l-2.83,2.82a1,1,0,0,1-1.231.142L27.8,80.632a12.7,12.7,0,0,1-1.669.686L24.973,86.23A1,1,0,0,1,24,87Zm-3.208-2h2.417l1.107-4.7a1,1,0,0,1,.7-.734,10.588,10.588,0,0,0,2.331-.959,1,1,0,0,1,1.014.022l4.1,2.534,1.708-1.7-2.541-4.1a1,1,0,0,1-.023-1.016,10.588,10.588,0,0,0,.959-2.331,1,1,0,0,1,.734-.7L38,70.208V67.792l-4.7-1.108a1,1,0,0,1-.734-.7,10.588,10.588,0,0,0-.959-2.331,1,1,0,0,1,.023-1.016l2.542-4.1-1.709-1.709-4.1,2.542a1,1,0,0,1-1.016.023,10.588,10.588,0,0,0-2.331-.959,1,1,0,0,1-.7-.734L23.208,53H20.792l-1.108,4.7a1,1,0,0,1-.7.734,10.588,10.588,0,0,0-2.331.959,1,1,0,0,1-1.016-.023l-4.1-2.542-1.708,1.71,2.541,4.1a1,1,0,0,1,.023,1.016,10.588,10.588,0,0,0-.959,2.331,1,1,0,0,1-.733.7L6,67.794v2.414l4.7,1.108a1,1,0,0,1,.734.7,10.588,10.588,0,0,0,.959,2.331,1,1,0,0,1-.023,1.016l-2.541,4.1,1.708,1.7,4.1-2.534a1,1,0,0,1,1.014-.022,10.588,10.588,0,0,0,2.331.959,1,1,0,0,1,.7.734Z"/><path d="M22,76a7,7,0,1,1,7-7A7.009,7.009,0,0,1,22,76Zm0-12a5,5,0,1,0,5,5A5.006,5.006,0,0,0,22,64Z"/><path d="M60,90H56a1,1,0,0,1-.974-.771l-1.157-4.911a12.58,12.58,0,0,1-1.67-.686L47.915,86.28a1,1,0,0,1-1.231-.142l-2.83-2.82a1,1,0,0,1-.144-1.235L46.367,77.8a12.55,12.55,0,0,1-.685-1.668l-4.911-1.158A1,1,0,0,1,40,74V70a1,1,0,0,1,.771-.974l4.911-1.158a12.55,12.55,0,0,1,.685-1.668L43.71,61.917a1,1,0,0,1,.143-1.234l2.83-2.83a1,1,0,0,1,1.234-.143L52.2,60.367a12.55,12.55,0,0,1,1.668-.685l1.158-4.911A1,1,0,0,1,56,54h4a1,1,0,0,1,.974.771l1.158,4.911a12.55,12.55,0,0,1,1.668.685l4.283-2.657a1,1,0,0,1,1.234.143l2.83,2.83a1,1,0,0,1,.143,1.234L69.633,66.2a12.55,12.55,0,0,1,.685,1.668l4.911,1.158A1,1,0,0,1,76,70v4a1,1,0,0,1-.771.974l-4.911,1.158a12.6,12.6,0,0,1-.685,1.668l2.658,4.284a1,1,0,0,1-.145,1.234l-2.83,2.82a1,1,0,0,1-1.231.142L63.8,83.632a12.759,12.759,0,0,1-1.669.686l-1.158,4.911A1,1,0,0,1,60,90Zm-3.207-2h2.415l1.108-4.7a1,1,0,0,1,.7-.734,10.588,10.588,0,0,0,2.331-.959,1,1,0,0,1,1.014.022l4.1,2.534,1.709-1.7-2.542-4.095a1,1,0,0,1-.023-1.016,10.588,10.588,0,0,0,.959-2.331,1,1,0,0,1,.734-.7L74,73.208V70.792l-4.7-1.108a1,1,0,0,1-.734-.7,10.588,10.588,0,0,0-.959-2.331,1,1,0,0,1,.023-1.016l2.542-4.1-1.709-1.709-4.1,2.542a1,1,0,0,1-1.016.023,10.588,10.588,0,0,0-2.331-.959,1,1,0,0,1-.7-.734L59.208,56H56.792l-1.108,4.7a1,1,0,0,1-.7.734,10.588,10.588,0,0,0-2.331.959,1,1,0,0,1-1.016-.023l-4.1-2.542-1.709,1.709,2.542,4.1a1,1,0,0,1,.023,1.016,10.588,10.588,0,0,0-.959,2.331,1,1,0,0,1-.734.7L42,70.792v2.416l4.7,1.108a1,1,0,0,1,.734.7,10.588,10.588,0,0,0,.959,2.331,1,1,0,0,1-.023,1.016l-2.541,4.1,1.708,1.7,4.1-2.534a1,1,0,0,1,1.014-.022,10.588,10.588,0,0,0,2.331.959,1,1,0,0,1,.7.734Z"/><path d="M58,79a7,7,0,1,1,7-7A7.009,7.009,0,0,1,58,79Zm0-12a5,5,0,1,0,5,5A5.006,5.006,0,0,0,58,67Z"/><path d="M21.707,43.707l-1.414-1.414L23.586,39l-3.293-3.293,1.414-1.414,4,4a1,1,0,0,1,0,1.414Z"/><rect x="26" y="42" width="6" height="2"/></g></g></svg>