<svg xmlns="http://www.w3.org/2000/svg" viewBox="0 0 64 64"><g id="_20-Mascara" data-name="20-Mascara"><polygon points="25 19 25 41 21 41 21 19 23 19 25 19" style="fill:#5c514d"/><polygon points="48 23 48 29 34 29 34 23 37 23 45 23 48 23" style="fill:#f8eae9"/><rect x="37" y="17" width="8" height="6" style="fill:#5c514d"/><path d="M30,41v2.9a9.885,9.885,0,0,1-.24,2.17L26.35,61.43A2.007,2.007,0,0,1,24.4,63H21.6a2.007,2.007,0,0,1-1.95-1.57L16.24,46.07A9.885,9.885,0,0,1,16,43.9V41H30Z" style="fill:#d45f73"/><path d="M22.65,59.43,20.24,46.07A9.885,9.885,0,0,1,20,43.9V41H16v2.9a9.885,9.885,0,0,0,.24,2.17l3.41,15.36A2.007,2.007,0,0,0,21.6,63h2.8a2.007,2.007,0,0,0,1.95-1.57l.095-.43H24.6A2.007,2.007,0,0,1,22.65,59.43Z" style="fill:#b85162"/><path d="M48,29V39.37A61.862,61.862,0,0,1,46.15,54.4l-1.77,7.09A1.992,1.992,0,0,1,42.44,63H39.56a1.992,1.992,0,0,1-1.94-1.51L35.85,54.4A61.862,61.862,0,0,1,34,39.37V29Z" style="fill:#d45f73"/><polygon points="38 23 37 23 34 23 34 29 38 29 38 23" style="fill:#d6b6b7"/><path d="M41.62,59.49,39.85,52.4A46.782,46.782,0,0,1,38,39.37V29H34V39.37A61.862,61.862,0,0,0,35.85,54.4l1.77,7.09A1.992,1.992,0,0,0,39.56,63h2.88a1.992,1.992,0,0,0,1.94-1.51L44.5,61H43.56A1.992,1.992,0,0,1,41.62,59.49Z" style="fill:#b85162"/><path d="M39,17v2a2,2,0,0,0,2,2h4v2H37V17Z" style="fill:#453d38"/><path d="M23,19V37a2,2,0,0,0,2,2h0v2H21V19Z" style="fill:#453d38"/><rect x="44" y="31" width="2" height="2" style="fill:#ff728b"/><rect x="44" y="35" width="2" height="2" style="fill:#ff728b"/><path d="M48,22H46V17a1,1,0,0,0-1-1H37a1,1,0,0,0-1,1v5H34a1,1,0,0,0-1,1V39.367a63.051,63.051,0,0,0,1.881,15.279l1.77,7.083A3,3,0,0,0,39.562,64h2.876a3,3,0,0,0,2.911-2.272l1.77-7.082A63.051,63.051,0,0,0,49,39.367V23A1,1,0,0,0,48,22ZM38,18h6v4H38Zm-1,6H47v4H35V24Zm8.179,30.162-1.77,7.08a1,1,0,0,1-.971.758H39.562a1,1,0,0,1-.971-.757l-1.77-7.081A61.077,61.077,0,0,1,35,39.367V30H47v9.367A61.077,61.077,0,0,1,45.179,54.162Z"/><path d="M30,40H26V19a1,1,0,0,0-1-1H24V16h3V14H24V13h3V11H24V10h3V8H24V7h3V5H24V4h3V2H24V1H22V2H19V4h3V5H19V7h3V8H19v2h3v1H19v2h3v1H19v2h3v2H21a1,1,0,0,0-1,1V38h2V20h2V40H16a1,1,0,0,0-1,1v2.9a11.005,11.005,0,0,0,.262,2.386L18.676,61.65A2.982,2.982,0,0,0,21.6,64H24.4a2.982,2.982,0,0,0,2.928-2.35l3.414-15.362A11.005,11.005,0,0,0,31,43.9V41A1,1,0,0,0,30,40Zm-1,3.9a9.022,9.022,0,0,1-.214,1.952L25.372,61.217A.994.994,0,0,1,24.4,62H21.6a.994.994,0,0,1-.976-.783L17.214,45.854A9.022,9.022,0,0,1,17,43.9V42H29Z"/><rect x="44" y="31" width="2" height="2"/><rect x="44" y="35" width="2" height="2"/></g></svg>