<svg xmlns="http://www.w3.org/2000/svg" viewBox="0 0 64 64"><defs><style>.cls-1{fill:#b5efff;}</style></defs><title>20-Report</title><g id="_20-Report" data-name="20-Report"><g id="_Group_" data-name="&lt;Group&gt;"><path class="cls-1" d="M14,57l4.913-4.913C18.17,52.033,17.344,52,16.394,52a25.36,25.36,0,0,0-6.829.8,20.044,20.044,0,0,0,3.3,4.344Z"/><path d="M61,57H47V55H61a1,1,0,0,0,1-1V3a1,1,0,0,0-1-1H3A1,1,0,0,0,2,3V54a1,1,0,0,0,1,1H7v2H3a3,3,0,0,1-3-3V3A3,3,0,0,1,3,0H61a3,3,0,0,1,3,3V54A3,3,0,0,1,61,57Z"/><rect x="1" y="10" width="62" height="2"/><rect x="5" y="5" width="2" height="2"/><rect x="9" y="5" width="2" height="2"/><rect x="14" y="5" width="45" height="2"/><path d="M27,64A21,21,0,0,1,6.031,44.049C6.011,43.711,6,43.351,6,43A21,21,0,1,1,27,64Zm0-40A19.021,19.021,0,0,0,8,43c0,.31.009.628.028.938a19,19,0,1,0,37.1-6.637v0A19.084,19.084,0,0,0,38.4,27.8,18.833,18.833,0,0,0,27,24Z"/><path d="M14.707,57.707l-1.414-1.414L26,43.586V23h2V44a1,1,0,0,1-.293.707Z"/><polygon points="27 45 7.03 45 7 43 27 43 27 45"/><path d="M59,38H46.08L46,36H58V16H40V27H38V15a1,1,0,0,1,1-1H59a1,1,0,0,1,1,1V37A1,1,0,0,1,59,38Z"/><rect x="39" y="22" width="20" height="2"/><rect x="42" y="18" width="2" height="2"/><rect x="46" y="18" width="2" height="2"/><path d="M8.293,21.707l-3-3a1,1,0,0,1,0-1.414l3-3,1.414,1.414L7.414,18l2.293,2.293Z"/><path d="M17.707,21.707l-1.414-1.414L18.586,18l-2.293-2.293,1.414-1.414,3,3a1,1,0,0,1,0,1.414Z"/><rect x="9.36" y="17.5" width="7.28" height="2.001" transform="translate(-8.36 25.916) rotate(-74.051)"/></g></g></svg>