<svg xmlns="http://www.w3.org/2000/svg" viewBox="0 0 64 64"><g id="_20-Shrimp" data-name="20-Shrimp"><path d="M36,56a1.425,1.425,0,0,1,0,2l-3,3-2-2,3-3A1.418,1.418,0,0,1,36,56Z" style="fill:#55634a"/><polygon points="28.43 52.57 27 54 25 52 25 50 27.77 47.24 30.77 50.24 28.43 52.57" style="fill:#c9c6c8"/><path d="M37,44.76a3.7,3.7,0,0,1-1.1,2.65l-.24.25-5.31-5.31.24-.25A3.755,3.755,0,0,1,37,44.76Z" style="fill:#c9c6c8"/><path d="M30.77,50.24l-3-3-.5-.5a.942.942,0,0,1,0-1.32l1.58-1.57,1.5-1.5,5.31,5.31-3.08,3.07a.942.942,0,0,1-1.32,0Z" style="fill:#6da3c4"/><polygon points="19.31 41.31 22.69 44.69 21.22 46.22 19.74 47.74 16.26 44.26 19.31 41.31" style="fill:#6d805f"/><polygon points="28.59 38.59 25.41 35.41 28.46 32.46 31.54 35.54 30.18 36.94 28.59 38.59" style="fill:#6d805f"/><polygon points="26.13 41.13 22.69 44.69 19.31 41.31 25.41 35.41 28.59 38.59 26.13 41.13" style="fill:#c9c6c8"/><path d="M19.74,47.74,5.83,62.14A2.807,2.807,0,0,1,3.81,63,2.8,2.8,0,0,1,1,60.19a2.807,2.807,0,0,1,.86-2.02l14.4-13.91Z" style="fill:#6da3c4"/><path d="M28.46,32.46,60.59,1.4a1.4,1.4,0,0,1,.99-.4A1.425,1.425,0,0,1,63,2.42a1.4,1.4,0,0,1-.4.99L61,5.07,57.55,8.63l-6.7,6.94-6.88,7.12-.18.18-6.72,6.95-.16.16-5.37,5.56Z" style="fill:#6da3c4"/><path d="M27.77,47.24,26.5,48.5l.79.79a1,1,0,0,1,0,1.414L25.5,52.5,27,54l1.43-1.43,2.34-2.33Z" style="fill:#969192"/><path d="M36.414,44.586a2,2,0,0,1-2.828,0l-2.715-2.715a3.6,3.6,0,0,0-.281.229l-.24.25,5.31,5.31.24-.25A3.7,3.7,0,0,0,37,44.76a3.759,3.759,0,0,0-.066-.694Z" style="fill:#969192"/><path d="M33.414,47.586a2,2,0,0,1-2.828,0l-2.739-2.739-.577.573a.942.942,0,0,0,0,1.32l.5.5,3,3,.49.49a.942.942,0,0,0,1.32,0l3.08-3.07L34.5,46.5Z" style="fill:#5787b7"/><polygon points="18 46 19.74 47.74 21.22 46.22 22.69 44.69 21 43 18 46" style="fill:#55634a"/><polygon points="27 37 28.59 38.59 30.18 36.94 31.54 35.54 30 34 27 37" style="fill:#55634a"/><polygon points="21 43 22.69 44.69 26.13 41.13 28.59 38.59 27 37 21 43" style="fill:#969192"/><path d="M3,61a1.4,1.4,0,0,1-1.83.113,2.879,2.879,0,0,0,.65,1.067A2.855,2.855,0,0,0,3.81,63a2.807,2.807,0,0,0,2.02-.86l13.91-14.4L18,46Z" style="fill:#5787b7"/><path d="M30,34l1.54,1.54,5.37-5.56.16-.16,6.72-6.95.18-.18,6.88-7.12,6.7-6.94L61,5.07l1.6-1.66a1.4,1.4,0,0,0,.4-.99,1.419,1.419,0,0,0-.417-1Z" style="fill:#5787b7"/><path d="M22.69,44.69l-1.124,1.17,3.788,3.787L27.77,47.24l-.5-.5a.942.942,0,0,1,0-1.32L28.5,44.2,25.783,41.49Z" style="fill:none"/><polygon points="28.496 44.202 28.646 44.353 29.354 43.647 29.203 43.497 28.85 43.85 28.496 44.202" style="fill:#6da3c4"/><path d="M63,49a2.015,2.015,0,0,0-2-2,2.006,2.006,0,0,0-2,2v1h4Z" style="fill:#993c35"/><path d="M59,50v1a2,2,0,0,0,4,0V50Z" style="fill:#edece7"/><path d="M60,49V48a1.974,1.974,0,0,1,.181-.819A2,2,0,0,0,59,49v1h1Z" style="fill:#672e25"/><path d="M60,50H59v1a2,2,0,0,0,3.819.819A1.974,1.974,0,0,1,62,52,2.006,2.006,0,0,1,60,50Z" style="fill:#c9c6c8"/><path d="M34.414,58.586a2,2,0,0,1-2.828,0L31.5,58.5,31,59l2,2,3-3a1.4,1.4,0,0,0,.41-1,1.469,1.469,0,0,0-.065-.345Z" style="fill:#455040"/><path d="M53.648,18a6.678,6.678,0,0,0,3.88-1.473,5.522,5.522,0,0,0,2.422-3.707,6.283,6.283,0,0,0-1.037-4.154L60,7.542V40h2V5.473l1.318-1.364A2.424,2.424,0,0,0,59.891.682L6.305,52.481,7.7,53.919l8.547-8.263,2.1,2.1L5.109,61.448a1.809,1.809,0,1,1-2.558-2.557l3.282-3.172-1.39-1.438L1.161,57.453a3.809,3.809,0,1,0,5.386,5.386L21.233,47.647,24,50.414V52a1,1,0,0,0,.293.707l2,2a1,1,0,0,0,1.414,0l.614-.613L30,56.333V59a1,1,0,0,0,.293.707l2,2a1,1,0,0,0,1.414,0l3-3a2.419,2.419,0,0,0,0-3.414,2.473,2.473,0,0,0-3.415,0L32,56.586V56a1,1,0,0,0-.2-.6l-2.051-2.735,1.038-1.038a1.928,1.928,0,0,0,2.5-.194l2.364-2.365.639.639,1.414-1.414-.686-.686a4.729,4.729,0,0,0-6.628-6.629l-.686-.685-1.414,1.414.639.639-.086.086-1.308-1.308L30.266,38.3a4.3,4.3,0,0,0,1.619.635,4.622,4.622,0,0,0,.763.064,6.678,6.678,0,0,0,3.88-1.473,5.522,5.522,0,0,0,2.422-3.707,5.311,5.311,0,0,0-.091-1.891l.026.007a4.622,4.622,0,0,0,.763.064,6.678,6.678,0,0,0,3.88-1.473,5.522,5.522,0,0,0,2.422-3.707,5.311,5.311,0,0,0-.091-1.891l.026.007a4.622,4.622,0,0,0,.763.064,6.678,6.678,0,0,0,3.88-1.473,5.522,5.522,0,0,0,2.422-3.707,5.311,5.311,0,0,0-.091-1.891l.026.007A4.622,4.622,0,0,0,53.648,18ZM34.708,56.707a.349.349,0,0,1,.584,0,.415.415,0,0,1,0,.586L33,59.586,32.414,59Zm23.26-44.154a3.62,3.62,0,0,1-1.615,2.358c-2.147,1.561-3.47,1.1-4.1.647l5.22-5.4A4.047,4.047,0,0,1,57.968,12.553ZM61.281,2.119a.439.439,0,0,1,.719.3.422.422,0,0,1-.119.295L31.53,34.116,29.884,32.47Zm-38.6,41.15-1.952-1.952L25.4,36.809l1.8,1.8Zm4.15-7.85,1.613-1.559,1.694,1.694-1.559,1.613ZM17.68,44.266l1.613-1.559,2,2L19.734,46.32ZM26,51.586V50.414l1.765-1.765,1.586,1.586L27,52.586ZM33.247,42a2.746,2.746,0,0,1,2.346,4.178l-3.772-3.772A2.745,2.745,0,0,1,33.247,42Zm.993,5.653-2.321,2.322-3.937-3.852,2.364-2.364Zm-6.808-3.808-.864.863a1.928,1.928,0,0,0-.2,2.5L25,48.586l-2.377-2.377,3.525-3.647Zm9.536-10.293a3.62,3.62,0,0,1-1.615,2.358c-1.724,1.254-2.916,1.2-3.647.9l4.988-5.16A3.713,3.713,0,0,1,36.968,33.553Zm7-7a3.62,3.62,0,0,1-1.615,2.358c-1.856,1.35-3.1,1.191-3.809.828l5.082-5.258A3.833,3.833,0,0,1,43.968,26.553Zm7-7a3.62,3.62,0,0,1-1.615,2.358c-2,1.452-3.281,1.158-3.96.742l5.156-5.334A3.92,3.92,0,0,1,50.968,19.553Z"/><path d="M62,46.184V42H60v4.184A3,3,0,0,0,58,49v2a2.994,2.994,0,0,0,2.03,2.825A7.747,7.747,0,0,0,62,58.4v.1a1.5,1.5,0,0,1-3,0V58H57v.5a3.5,3.5,0,0,0,7,0V58a1,1,0,0,0-.293-.707,5.786,5.786,0,0,1-1.671-3.488A3,3,0,0,0,64,51V49A3,3,0,0,0,62,46.184ZM60,49a1,1,0,0,1,2,0v2a1,1,0,0,1-2,0Z"/></g></svg>