<svg xmlns="http://www.w3.org/2000/svg" viewBox="0 0 64 64"><title>20-Yoga</title><g id="_20-Yoga" data-name="20-Yoga"><path d="M36,63H28a3.995,3.995,0,0,0,4-4A4,4,0,0,0,36,63Z" style="fill:#7e8596"/><path d="M26,55v8H14a4,4,0,0,1-2.83-6.83,4.238,4.238,0,0,1,.93-.69A4.026,4.026,0,0,1,14,55H26Z" style="fill:#7e8596"/><path d="M51.55,55.32A3.982,3.982,0,0,1,54,59a3.995,3.995,0,0,1-4,4H38V55H50A3.8,3.8,0,0,1,51.55,55.32Z" style="fill:#7e8596"/><path d="M39,50l1,5H36a3.995,3.995,0,0,0-4,4,4,4,0,0,0-4-4H24l1-5H39Z" style="fill:#7e8596"/><path d="M28,55a4,4,0,1,1,0,8H26V55Z" style="fill:#ffdecf"/><path d="M38,55v8H36a4,4,0,1,1,0-8Z" style="fill:#ffdecf"/><path d="M10.3,57.5A3.987,3.987,0,0,0,14,63H26V60H14A4,4,0,0,1,10.3,57.5Z" style="fill:#707789"/><path d="M52.83,58.83A4.025,4.025,0,0,1,50,60H38v3H50a3.995,3.995,0,0,0,4-4,3.967,3.967,0,0,0-.3-1.494A4.094,4.094,0,0,1,52.83,58.83Z" style="fill:#707789"/><path d="M30.83,58.83A4.025,4.025,0,0,1,28,60H26v3h2a3.992,3.992,0,0,0,3.7-5.5A4.082,4.082,0,0,1,30.83,58.83Z" style="fill:#ffbeaa"/><path d="M32.3,57.5A3.987,3.987,0,0,0,36,63h2V60H36A4,4,0,0,1,32.3,57.5Z" style="fill:#ffbeaa"/><path d="M38,50H26c0-3,1-5,1-8H37C37,45,38,47,38,50Z" style="fill:#ffdecf"/><path d="M26.146,48A14.413,14.413,0,0,0,26,50H38a14.413,14.413,0,0,0-.146-2Z" style="fill:#ffbeaa"/><path d="M39,17v5l-3-2a4.691,4.691,0,0,0-.46-.54,5.026,5.026,0,0,0-2.3-1.3A2.835,2.835,0,0,1,33,17a3,3,0,0,1,6,0Z" style="fill:#7e8596"/><path d="M30,31.59A5.029,5.029,0,0,1,27,27V23a5,5,0,0,1,5-5,4.635,4.635,0,0,1,1.24.16,5.026,5.026,0,0,1,2.3,1.3A4.691,4.691,0,0,1,36,20a4.941,4.941,0,0,1,1,3v4a5.029,5.029,0,0,1-3,4.59,5.083,5.083,0,0,1-4,0Z" style="fill:#ffdecf"/><path d="M34,29.59a5.083,5.083,0,0,1-4,0A5.029,5.029,0,0,1,27,25v2a5.029,5.029,0,0,0,3,4.59,5.083,5.083,0,0,0,4,0A5.029,5.029,0,0,0,37,27V25A5.029,5.029,0,0,1,34,29.59Z" style="fill:#ffcdbe"/><path d="M48,22v1s0,9-8,9v3c0,3-2,5-2,7H26c0-2-2-4-2-7V32c-8,0-8-10-8-10h5l.09-.02C21.8,26.13,27,27,27,27a5,5,0,0,0,10,0s5.2-.87,5.91-5.02L43,22Z" style="fill:#b674f2"/><path d="M43,22l-.09-.02C42.2,26.13,37,27,37,27a5,5,0,0,1-10,0s-5.2-.87-5.91-5.02L21,22H16a15.089,15.089,0,0,0,.385,3H21l.09-.02C21.8,29.13,27,30,27,30a5,5,0,0,0,10,0s5.2-.87,5.91-5.02L43,25h4.771A11.815,11.815,0,0,0,48,23V22Z" style="fill:#d2a0f5"/><polygon points="32 1 32 8 28 8 25 4 29 4 32 1" style="fill:#ffbeaa"/><polygon points="39 4 36 8 32 8 32 1 35 4 39 4" style="fill:#ffbeaa"/><path d="M21,21a5.1,5.1,0,0,0,.09.98L21,22H16V13l9-9,3,4-7,7Z" style="fill:#ffdecf"/><path d="M48,13v9H43l-.09-.02A5.1,5.1,0,0,0,43,21V15L36,8l3-4Z" style="fill:#ffdecf"/><path d="M32,33a6.006,6.006,0,0,1-6-6V23a6.006,6.006,0,0,1,6-6,5.59,5.59,0,0,1,1.506.2l-.531,1.928A3.651,3.651,0,0,0,32,19a4,4,0,0,0-4,4v4a4,4,0,0,0,8,0V23a3.931,3.931,0,0,0-.8-2.4L36.8,19.4A5.906,5.906,0,0,1,38,23v4A6.006,6.006,0,0,1,32,33Z"/><path d="M39,23a1.006,1.006,0,0,1-.555-.168l-3-2a1.017,1.017,0,0,1-.251-.239,3.553,3.553,0,0,0-.361-.426A4.024,4.024,0,0,0,33,19.13a1,1,0,0,1-.671-.564A3.822,3.822,0,0,1,32,17a4,4,0,0,1,8,0v5a1,1,0,0,1-1,1Zm-2.3-3.738,1.3.87V17a2,2,0,0,0-4,0,1.981,1.981,0,0,0,.032.356,6.06,6.06,0,0,1,2.21,1.391A5.548,5.548,0,0,1,36.7,19.262Z"/><path d="M26.835,27.986c-.241-.04-5.911-1.043-6.731-5.837A6.007,6.007,0,0,1,20,21V15a1,1,0,0,1,.293-.707l7-7A1,1,0,0,1,28,7h4V9H28.414L22,15.414V21a4.075,4.075,0,0,0,.072.791c.587,3.431,5.048,4.215,5.093,4.223Z"/><path d="M38,43H26a1,1,0,0,1-1-1,6.482,6.482,0,0,0-.761-2.378A10.844,10.844,0,0,1,23,35V32.95c-6.3-.64-8-7.33-8-10.95V13a1,1,0,0,1,.293-.707l9-9A1,1,0,0,1,25,3h3.586L31.293.293a1,1,0,0,1,1.414,0L35.414,3H39a1,1,0,0,1,.707.293l9,9A1,1,0,0,1,49,13V23c0,3.291-1.7,9.372-8,9.955V35a10.844,10.844,0,0,1-1.239,4.622A6.482,6.482,0,0,0,39,42,1,1,0,0,1,38,43ZM26.884,41H37.116a11.711,11.711,0,0,1,.821-2.2A9.115,9.115,0,0,0,39,35V32a1,1,0,0,1,1-1c6.891,0,7-7.675,7-8V13.414L38.586,5H35a1,1,0,0,1-.707-.293L32,2.414,29.707,4.707A1,1,0,0,1,29,5H25.414L17,13.414V22c0,.366.1,9,7,9a1,1,0,0,1,1,1v3a9.115,9.115,0,0,0,1.063,3.8A11.711,11.711,0,0,1,26.884,41Z"/><rect x="31" y="1" width="2" height="7"/><path d="M37.165,27.986l-.33-1.972L37,27l-.167-.986c.045-.008,4.512-.815,5.091-4.2A4.131,4.131,0,0,0,42,21V15.414L35.586,9H32V7h4a1,1,0,0,1,.707.293l7,7A1,1,0,0,1,44,15v6a6.06,6.06,0,0,1-.108,1.17C43.076,26.943,37.406,27.946,37.165,27.986Z"/><path d="M27,50H25a20.294,20.294,0,0,1,.52-4.2A18.479,18.479,0,0,0,26,42h2a20.294,20.294,0,0,1-.52,4.2A18.479,18.479,0,0,0,27,50Z"/><path d="M39,50H37a18.479,18.479,0,0,0-.48-3.8A20.294,20.294,0,0,1,36,42h2a18.479,18.479,0,0,0,.48,3.8A20.294,20.294,0,0,1,39,50Z"/><rect x="35" y="5" width="5" height="1.999" transform="translate(10.205 32.405) rotate(-53.141)"/><rect x="25.5" y="3.5" width="1.999" height="5" transform="translate(1.7 17.1) rotate(-36.87)"/><path d="M39.02,55.2,38.18,51H25.82l-.84,4.2L23.02,54.8l1-5A1,1,0,0,1,25,49H39a1,1,0,0,1,.98.8l1,5Z"/><path d="M28,64H14a5,5,0,1,1,0-10H28a5,5,0,1,1,0,10ZM14,56a3,3,0,0,0,0,6H28a3,3,0,0,0,0-6Z"/><path d="M50,64H36a5,5,0,1,1,0-10H50a5,5,0,1,1,0,10ZM36,56a3,3,0,0,0,0,6H50a3,3,0,0,0,0-6Z"/><rect x="25" y="55" width="2" height="8"/><rect x="37" y="55" width="2" height="8"/><rect x="43" y="21" width="5" height="2"/><rect x="16" y="21" width="5" height="2"/></g></svg>