<?xml version="1.0" encoding="utf-8"?>
<!-- Generator: Adobe Illustrator 16.0.0, SVG Export Plug-In . SVG Version: 6.00 Build 0)  -->
<!DOCTYPE svg PUBLIC "-//W3C//DTD SVG 1.1//EN" "http://www.w3.org/Graphics/SVG/1.1/DTD/svg11.dtd">
<svg version="1.1" id="Layer_1" xmlns="http://www.w3.org/2000/svg" xmlns:xlink="http://www.w3.org/1999/xlink" x="0px" y="0px"
	 width="512px" height="512px" viewBox="0 0 512 512" enable-background="new 0 0 512 512" xml:space="preserve">
<g id="_x32_0._saddle_x2C__wild_x2C__west_x2C__crime_x2C__bandit_x2C__horse">
	<g>
		<g>
			<path d="M289.08,120.096c-2.21,0-4.036-1.788-4.036-3.997s1.748-3.997,3.95-3.997h0.086c2.201,0,3.997,1.788,3.997,3.997
				S291.281,120.096,289.08,120.096z"/>
		</g>
	</g>
	<g>
		<g>
			<path d="M393.007,88.118c-2.21,0-4.036-1.788-4.036-3.997s1.749-3.997,3.95-3.997h0.086c2.201,0,3.997,1.788,3.997,3.997
				S395.208,88.118,393.007,88.118z"/>
		</g>
	</g>
	<g>
		<g>
			<path d="M408.995,72.13c-2.209,0-4.036-1.788-4.036-3.997c0-2.21,1.749-3.998,3.95-3.998h0.086c2.202,0,3.997,1.788,3.997,3.998
				C412.992,70.342,411.197,72.13,408.995,72.13z"/>
		</g>
	</g>
	<g>
		<g>
			<path d="M112.786,56.141c-2.209,0-4.036-1.787-4.036-3.997c0-2.209,1.749-3.997,3.95-3.997h0.086
				c2.202,0,3.997,1.788,3.997,3.997C116.783,54.354,114.987,56.141,112.786,56.141z"/>
		</g>
	</g>
	<g>
		<g>
			<path d="M81.23,136.084c-2.209,0-4.036-1.787-4.036-3.997c0-2.209,1.749-3.997,3.95-3.997h0.086c2.202,0,3.997,1.788,3.997,3.997
				C85.227,134.297,83.432,136.084,81.23,136.084z"/>
		</g>
	</g>
	<g>
		<g>
			<path d="M288.838,161.066c-1.812,0-3.45-1.241-3.888-3.075c-0.508-2.147,0.819-4.302,2.967-4.81
				c0.258-0.062,26.146-6.222,56.546-16.184c2.084-0.672,4.349,0.46,5.043,2.561c0.688,2.092-0.46,4.356-2.561,5.043
				c-30.736,10.063-56.929,16.294-57.187,16.356C289.446,161.035,289.143,161.066,288.838,161.066z"/>
		</g>
	</g>
	<g>
		<g>
			<path d="M402.242,122.719c-1.483,0-2.912-0.835-3.599-2.264c-0.961-1.991-0.125-4.38,1.865-5.332
				c18.089-8.713,30.768-17.238,37.677-25.35c6.113-7.175,8.01-13.42,5.637-18.565c-4.536-9.829-23.28-15.067-35.069-15.067h-23.982
				c-2.21,0-3.998-1.787-3.998-3.997c0-2.209,1.788-3.997,3.998-3.997h23.982c13.795,0,36.053,6.113,42.33,19.713
				c2.607,5.652,3.544,14.942-6.808,27.098c-7.644,8.971-21.204,18.175-40.3,27.363
				C403.413,122.594,402.828,122.719,402.242,122.719z"/>
		</g>
	</g>
	<g>
		<g>
			<g>
				<path d="M400.01,101.562c-1.444,0-2.842-0.788-3.553-2.162c-1.015-1.96-0.241-4.372,1.718-5.387
					c12.015-6.207,20.353-11.991,24.787-17.199c0.711-0.827,1.21-1.507,1.585-2.045c1.257-1.827,3.739-2.28,5.559-1.016
					c1.819,1.258,2.271,3.748,1.015,5.559c-0.5,0.727-1.155,1.624-2.084,2.702c-5.098,5.987-14.256,12.421-27.191,19.104
					C401.259,101.422,400.634,101.562,400.01,101.562z"/>
			</g>
		</g>
		<g>
			<g>
				<path d="M312.821,134.078c-1.741,0-3.342-1.14-3.842-2.896c-0.608-2.123,0.617-4.333,2.74-4.941
					c6.379-1.835,12.991-3.826,19.674-5.957c2.085-0.648,4.349,0.5,5.021,2.6c0.671,2.1-0.492,4.349-2.601,5.02
					c-6.744,2.147-13.436,4.169-19.892,6.02C313.555,134.031,313.188,134.078,312.821,134.078z"/>
			</g>
		</g>
	</g>
	<g>
		<g>
			<g>
				<path d="M294.35,184.402c-1.819,0-3.458-1.242-3.888-3.076c-0.508-2.155,0.819-4.302,2.967-4.81
					c8.275-1.951,37.762-9.188,69.716-20.321c2.054-0.711,4.356,0.375,5.091,2.467c0.726,2.085-0.383,4.364-2.467,5.09
					c-32.313,11.25-62.129,18.565-70.498,20.541C294.958,184.371,294.646,184.402,294.35,184.402z"/>
			</g>
		</g>
		<g>
			<g>
				<path d="M401.665,149.419c-1.53,0-2.99-0.883-3.654-2.373c-0.897-2.022,0.016-4.38,2.03-5.278
					c19.767-8.767,35.326-17.745,46.248-26.676c1.702-1.397,4.224-1.156,5.621,0.562c1.397,1.71,1.147,4.224-0.562,5.621
					c-11.477,9.392-27.645,18.745-48.061,27.801C402.758,149.31,402.211,149.419,401.665,149.419z"/>
			</g>
		</g>
	</g>
	<g>
		<g>
			<path d="M272.849,56.141c-32.528,0-124.658-15.388-128.569-16.043c-2.178-0.367-3.646-2.428-3.279-4.606
				c0.367-2.178,2.475-3.614,4.606-3.278c0.945,0.155,95.378,15.934,127.242,15.934c12.688,0,21.04-6.667,31.619-15.099
				c13.889-11.086,31.165-24.873,64.313-24.873c2.21,0,3.997,1.788,3.997,3.997v13.654c0,2.21-1.787,3.997-3.997,3.997
				c-2.209,0-3.997-1.787-3.997-3.997v-9.587c-27.73,1.03-42.36,12.702-55.336,23.054C298.589,47.959,288.339,56.141,272.849,56.141
				z"/>
		</g>
	</g>
	<g>
		<g>
			<path d="M136.496,203.6c-38.652,0-66.992-10.883-75.174-29.964c-21.977-51.261,37.833-136.208,40.394-139.8
				c0.75-1.054,1.96-1.678,3.256-1.678h23.983c2.209,0,3.997,1.787,3.997,3.997c0,2.209-1.788,3.997-3.997,3.997h-21.883
				c-8.252,12.14-57.022,86.892-38.395,130.33c8.494,19.821,46.725,29.214,95.151,23.405c63.557-7.659,136.057-40.472,145.05-94.434
				c0.367-2.186,2.483-3.669,4.599-3.287c2.179,0.359,3.653,2.421,3.287,4.599c-9.673,58.021-85.561,93.06-151.976,101.062
				C154.889,203.014,145.419,203.592,136.496,203.6z"/>
		</g>
	</g>
	<g>
		<g>
			<g>
				<path d="M130.578,187.524c-0.047,0-0.085,0-0.132,0c-2.834-0.102-5.559-0.249-8.182-0.468c-2.201-0.18-3.833-2.108-3.653-4.31
					c0.18-2.21,2.334-3.764,4.31-3.654c2.498,0.203,5.098,0.352,7.791,0.438c2.21,0.078,3.935,1.929,3.865,4.13
					C134.497,185.823,132.725,187.524,130.578,187.524z M146.559,187.353c-2.116,0-3.88-1.654-3.989-3.794
					c-0.117-2.201,1.577-4.083,3.786-4.192c2.545-0.133,5.152-0.312,7.822-0.546c2.054-0.125,4.13,1.421,4.333,3.63
					c0.195,2.193-1.429,4.138-3.63,4.333c-2.764,0.25-5.48,0.43-8.119,0.562C146.692,187.353,146.622,187.353,146.559,187.353z
					 M170.386,184.878c-1.936,0-3.638-1.413-3.942-3.388c-0.335-2.179,1.155-4.224,3.341-4.56c2.576-0.398,5.168-0.835,7.752-1.319
					c2.124-0.422,4.254,1.015,4.661,3.193c0.406,2.17-1.022,4.255-3.193,4.66c-2.662,0.5-5.332,0.953-8.002,1.366
					C170.799,184.862,170.589,184.878,170.386,184.878z M106.782,184.815c-0.281,0-0.562-0.031-0.843-0.086
					c-2.896-0.624-5.598-1.335-8.096-2.123c-2.1-0.664-3.271-2.904-2.607-5.013c0.656-2.1,2.92-3.263,5.012-2.607
					c2.264,0.711,4.731,1.358,7.362,1.921c2.162,0.469,3.536,2.592,3.076,4.747C110.28,183.535,108.625,184.815,106.782,184.815z
					 M193.9,180.132c-1.795,0-3.419-1.21-3.88-3.021c-0.531-2.147,0.765-4.317,2.904-4.856c2.538-0.632,5.075-1.312,7.589-2.037
					c2.092-0.625,4.333,0.616,4.949,2.732c0.609,2.115-0.608,4.333-2.732,4.949c-2.607,0.758-5.223,1.452-7.854,2.116
					C194.548,180.093,194.22,180.132,193.9,180.132z M84.735,175.846c-0.875,0-1.749-0.281-2.483-0.859
					c-1.866-1.483-3.396-3.052-4.551-4.676c-0.687-0.977-1.249-1.968-1.678-2.967c-0.875-2.022,0.055-4.372,2.084-5.254
					c2.015-0.883,4.372,0.047,5.254,2.084c0.21,0.492,0.507,1.007,0.867,1.522c0.702,0.983,1.717,2.007,2.99,3.014
					c1.725,1.374,2.021,3.888,0.655,5.621C87.085,175.322,85.914,175.846,84.735,175.846z M216.861,173.176
					c-1.64,0-3.178-1.016-3.763-2.646c-0.742-2.077,0.335-4.364,2.412-5.114c2.482-0.89,4.934-1.818,7.354-2.779
					c2.045-0.804,4.372,0.188,5.191,2.241c0.812,2.053-0.188,4.38-2.241,5.191c-2.499,0.991-5.043,1.952-7.604,2.873
					C217.766,173.098,217.306,173.176,216.861,173.176z M238.962,163.885c-1.476,0-2.889-0.819-3.583-2.232
					c-0.977-1.983-0.164-4.38,1.818-5.348c2.366-1.163,4.685-2.365,6.956-3.607c1.937-1.046,4.364-0.335,5.426,1.601
					c1.054,1.944,0.336,4.372-1.6,5.426c-2.381,1.288-4.793,2.538-7.252,3.748C240.157,163.752,239.556,163.885,238.962,163.885z
					 M259.706,151.894c-1.272,0-2.529-0.609-3.303-1.749c-1.241-1.818-0.772-4.31,1.055-5.551c1.709-1.163,3.372-2.357,4.988-3.583
					c1.745-1.327,4.267-0.991,5.594,0.772c1.335,1.757,0.983,4.271-0.773,5.598c-1.725,1.304-3.493,2.576-5.312,3.818
					C261.268,151.667,260.487,151.894,259.706,151.894z"/>
			</g>
		</g>
	</g>
	<g>
		<g>
			<path d="M99.35,142.666c-0.469,0-0.937-0.078-1.39-0.25c-1.272-0.469-2.217-1.554-2.514-2.881
				c-10.766-48.356,21.594-76.368,22.976-77.539c1.101-0.929,2.631-1.187,3.981-0.695c1.358,0.508,2.334,1.71,2.553,3.139
				c8.221,53.213-21.922,76.462-23.21,77.43C101.044,142.393,100.201,142.666,99.35,142.666z M118.032,73.901
				c-7.604,9.104-19.83,28.598-16.067,56.687C108.976,122.594,120.522,104.505,118.032,73.901z"/>
		</g>
	</g>
	<g>
		<g>
			<path d="M336.804,359.927c-1.717,0-3.302-1.109-3.825-2.834l-55.96-183.87c-0.641-2.108,0.546-4.341,2.662-4.989
				c2.146-0.655,4.348,0.555,4.988,2.662l55.961,183.871c0.64,2.107-0.547,4.34-2.662,4.988
				C337.577,359.872,337.187,359.927,336.804,359.927z"/>
		</g>
	</g>
	<g>
		<g>
			<path d="M192.909,391.903c-1.709,0-3.294-1.108-3.825-2.834l-53.681-175.883c-0.641-2.108,0.546-4.341,2.662-4.989
				c2.092-0.64,4.341,0.555,4.988,2.662l53.681,175.884c0.64,2.108-0.546,4.341-2.662,4.989
				C193.69,391.849,193.292,391.903,192.909,391.903z"/>
		</g>
	</g>
	<g>
		<g>
			<g>
				<path d="M308.637,349.777c-1.718,0-3.303-1.108-3.825-2.834l-2.327-7.651c-0.64-2.115,0.555-4.348,2.662-4.988
					c2.14-0.647,4.349,0.555,4.989,2.662l2.326,7.651c0.641,2.115-0.555,4.349-2.662,4.988
					C309.409,349.723,309.019,349.777,308.637,349.777z M301.657,326.833c-1.718,0-3.303-1.109-3.826-2.834l-2.326-7.651
					c-0.64-2.115,0.555-4.349,2.662-4.988c2.132-0.656,4.349,0.554,4.989,2.662l2.326,7.65c0.64,2.116-0.554,4.349-2.662,4.989
					C302.43,326.778,302.04,326.833,301.657,326.833z M294.67,303.888c-1.718,0-3.303-1.108-3.825-2.834l-2.327-7.643
					c-0.64-2.108,0.547-4.341,2.662-4.989c2.132-0.647,4.349,0.555,4.989,2.663l2.326,7.643c0.641,2.107-0.547,4.341-2.662,4.988
					C295.442,303.833,295.052,303.888,294.67,303.888z M287.69,280.943c-1.718,0-3.303-1.108-3.826-2.834l-2.326-7.644
					c-0.64-2.107,0.547-4.34,2.662-4.988c2.147-0.648,4.349,0.555,4.989,2.662l2.326,7.643c0.64,2.108-0.546,4.341-2.662,4.989
					C288.463,280.889,288.073,280.943,287.69,280.943z M280.711,257.998c-1.71,0-3.295-1.108-3.825-2.826l-2.335-7.643
					c-0.64-2.115,0.547-4.349,2.655-4.996c2.123-0.641,4.34,0.554,4.996,2.654l2.334,7.643c0.641,2.116-0.547,4.349-2.654,4.997
					C281.491,257.943,281.093,257.998,280.711,257.998z M273.724,235.054c-1.718,0-3.303-1.108-3.825-2.834l-2.327-7.643
					c-0.64-2.108,0.547-4.341,2.662-4.989c2.147-0.64,4.349,0.555,4.989,2.662l2.326,7.644c0.641,2.107-0.546,4.341-2.662,4.988
					C274.497,234.999,274.106,235.054,273.724,235.054z M266.744,212.109c-1.718,0-3.299-1.109-3.821-2.834l-2.326-7.644
					c-0.641-2.107,0.546-4.341,2.662-4.988c2.135-0.648,4.344,0.546,4.984,2.662l2.326,7.643c0.641,2.108-0.547,4.341-2.662,4.989
					C267.517,212.055,267.127,212.109,266.744,212.109z M259.683,189.086c-1.726,0-3.28-1.085-3.771-2.834l-0.055-0.195
					c-0.594-2.123,0.647-4.332,2.772-4.926c2.131-0.617,4.333,0.647,4.926,2.771c0.59,2.123-0.616,4.427-2.74,5.027
					C260.433,189.031,260.05,189.086,259.683,189.086z"/>
			</g>
		</g>
	</g>
	<g>
		<g>
			<g>
				<path d="M209.202,363.143c-1.717,0-3.294-1.108-3.826-2.833l-2.334-7.651c-0.64-2.108,0.546-4.341,2.662-4.989
					c2.084-0.632,4.341,0.555,4.989,2.662l2.334,7.651c0.64,2.108-0.547,4.341-2.662,4.989
					C209.983,363.089,209.584,363.143,209.202,363.143z M202.207,340.198c-1.709,0-3.294-1.108-3.826-2.826l-2.334-7.643
					c-0.64-2.116,0.547-4.35,2.654-4.997c2.131-0.647,4.349,0.555,4.997,2.654l2.334,7.644c0.64,2.115-0.547,4.348-2.654,4.996
					C202.988,340.144,202.589,340.198,202.207,340.198z M195.205,317.261c-1.71,0-3.295-1.108-3.826-2.826l-2.334-7.643
					c-0.64-2.115,0.547-4.349,2.654-4.996c2.132-0.641,4.349,0.554,4.997,2.654l2.334,7.643c0.64,2.116-0.547,4.349-2.654,4.996
					C195.985,317.206,195.586,317.261,195.205,317.261z M188.202,294.324c-1.71,0-3.295-1.108-3.826-2.826l-2.334-7.644
					c-0.64-2.115,0.547-4.348,2.654-4.996c2.132-0.632,4.349,0.555,4.997,2.654l2.334,7.644c0.64,2.115-0.547,4.349-2.654,4.996
					C188.982,294.27,188.584,294.324,188.202,294.324z M181.199,271.388c-1.718,0-3.295-1.109-3.826-2.834l-2.334-7.651
					c-0.64-2.107,0.547-4.341,2.662-4.988c2.101-0.641,4.341,0.547,4.989,2.662l2.334,7.65c0.64,2.108-0.546,4.341-2.662,4.989
					C181.979,271.333,181.581,271.388,181.199,271.388z M174.204,248.45c-1.718,0-3.295-1.108-3.826-2.834l-2.334-7.65
					c-0.64-2.108,0.547-4.341,2.662-4.989c2.093-0.647,4.341,0.555,4.989,2.663l2.334,7.65c0.64,2.108-0.546,4.341-2.662,4.988
					C174.984,248.396,174.586,248.45,174.204,248.45z M167.201,225.506c-1.71,0-3.295-1.108-3.825-2.826l-2.335-7.644
					c-0.64-2.115,0.547-4.348,2.655-4.996c2.147-0.64,4.348,0.555,4.997,2.654l2.334,7.644c0.641,2.115-0.546,4.348-2.654,4.996
					C167.981,225.451,167.583,225.506,167.201,225.506z"/>
			</g>
		</g>
	</g>
	<g>
		<g>
			<path d="M368.781,56.141c-2.209,0-3.997-1.787-3.997-3.997V25.826c0-2.209,1.788-3.997,3.997-3.997
				c2.21,0,3.997,1.788,3.997,3.997v26.317C372.778,54.354,370.991,56.141,368.781,56.141z"/>
		</g>
	</g>
	<g>
		<g>
			<path d="M304.827,88.118c-1.616,0-3.139-0.983-3.74-2.592c-0.78-2.062,0.266-4.372,2.334-5.145
				c23.921-9.002,45.375-44.109,45.375-52.222c0-2.209,1.787-3.997,3.997-3.997c2.209,0,3.997,1.788,3.997,3.997
				c0,12.788-25.381,50.23-50.559,59.7C305.771,88.04,305.295,88.118,304.827,88.118z"/>
		</g>
	</g>
	<g>
		<g>
			<path d="M312.829,104.107c-0.164,0-0.328-0.008-0.492-0.031c-101.23-12.335-184.671-64.01-185.506-64.533
				c-1.866-1.171-2.436-3.638-1.265-5.512c1.171-1.857,3.606-2.451,5.512-1.265c0.812,0.516,82.816,51.261,182.227,63.377
				c2.194,0.266,3.748,2.257,3.482,4.45C316.545,102.624,314.819,104.107,312.829,104.107z"/>
		</g>
	</g>
	<g>
		<g>
			<path d="M97.382,42.682c-1.67,0-3.231-1.062-3.794-2.732l-5.254-15.786h-7.347c-6.612,0-11.991-5.379-11.991-11.991
				S74.375,0.181,80.988,0.181h15.989c0.375,0,0.742,0.055,1.085,0.148c4.731,0.421,8.791,3.544,10.29,8.049l7.994,23.982
				c0.695,2.093-0.437,4.356-2.529,5.06c-2.077,0.71-4.356-0.438-5.059-2.529l-7.994-23.983c-0.531-1.601-2.015-2.631-3.787-2.631
				c-0.312,0-0.609-0.031-0.898-0.102H80.988c-2.201,0-3.997,1.796-3.997,3.997s1.796,3.997,3.997,3.997h10.228
				c1.717,0,3.248,1.101,3.794,2.732l6.167,18.519c0.695,2.092-0.437,4.356-2.529,5.059C98.226,42.619,97.804,42.682,97.382,42.682z
				"/>
		</g>
	</g>
	<g>
		<g>
			<path d="M448.819,122.181c-2.202,0-3.99-1.78-3.998-3.99l-0.094-40.721c-0.008-2.21,1.78-3.997,3.99-4.005h0.008
				c2.201,0,3.989,1.779,3.997,3.989l0.093,40.721c0.008,2.21-1.779,3.998-3.988,4.006H448.819z"/>
		</g>
	</g>
	<g>
		<g>
			<path d="M320.815,96.112c-1.694,0-3.271-1.085-3.81-2.787c-0.664-2.107,0.499-4.355,2.6-5.02
				c46.108-14.606,45.21-35.607,45.194-35.818c-0.148-2.171,1.468-4.099,3.639-4.286c2.287-0.234,4.098,1.358,4.316,3.528
				c0.117,1.109,2.226,27.419-50.729,44.195C321.619,96.05,321.214,96.112,320.815,96.112z"/>
		</g>
	</g>
	<g>
		<g>
			<path d="M192.909,391.903c-1.834,0-3.489-1.264-3.903-3.13c-0.476-2.155,0.882-4.286,3.037-4.771l143.895-31.978
				c2.187-0.476,4.294,0.891,4.771,3.037c0.476,2.155-0.883,4.286-3.037,4.771l-143.895,31.978
				C193.487,391.872,193.19,391.903,192.909,391.903z"/>
		</g>
	</g>
	<g>
		<g>
			<path d="M192.909,439.87c-2.209,0-3.997-1.788-3.997-3.997v-39.972c0-2.21,1.788-3.998,3.997-3.998
				c2.21,0,3.998,1.788,3.998,3.998v39.972C196.906,438.082,195.119,439.87,192.909,439.87z"/>
		</g>
	</g>
	<g>
		<g>
			<path d="M224.886,439.87c-2.209,0-3.997-1.788-3.997-3.997v-47.966c0-2.21,1.788-3.998,3.997-3.998
				c2.209,0,3.997,1.788,3.997,3.998v47.966C228.883,438.082,227.096,439.87,224.886,439.87z"/>
		</g>
	</g>
	<g>
		<g>
			<path d="M208.898,511.819c-2.21,0-3.997-1.788-3.997-3.997c0-2.21,1.787-3.997,3.997-3.997c13.217,0,43.969-2.725,43.969-27.98
				c0-9.642-4.294-14.6-9.728-20.868c-6.683-7.722-14.256-16.465-14.256-35.093c0-2.209,1.788-3.997,3.998-3.997
				s3.997,1.788,3.997,3.997c0,15.646,5.98,22.547,12.304,29.854c5.746,6.628,11.679,13.482,11.679,26.106
				C260.861,498.368,241.437,511.819,208.898,511.819z"/>
		</g>
	</g>
	<g>
		<g>
			<path d="M208.898,511.819c-32.54,0-51.964-13.451-51.964-35.975c0-12.624,5.934-19.479,11.68-26.106
				c6.323-7.308,12.304-14.209,12.304-29.854c0-2.209,1.788-3.997,3.997-3.997c2.209,0,3.997,1.788,3.997,3.997
				c0,18.628-7.572,27.371-14.255,35.093c-5.434,6.269-9.728,11.227-9.728,20.868c0,25.256,30.751,27.98,43.969,27.98
				c2.209,0,3.997,1.787,3.997,3.997C212.895,510.031,211.107,511.819,208.898,511.819z"/>
		</g>
	</g>
	<g>
		<g>
			<path d="M208.898,495.831c-22.859,0-35.975-7.284-35.975-19.986c0-2.209,1.788-3.997,3.997-3.997
				c2.209,0,3.997,1.788,3.997,3.997c0,11.125,21.415,11.991,27.98,11.991c6.565,0,27.98-0.866,27.98-11.991
				c0-2.209,1.788-3.997,3.998-3.997c2.209,0,3.997,1.788,3.997,3.997C244.873,488.547,231.756,495.831,208.898,495.831z"/>
		</g>
	</g>
	<g>
		<g>
			<path d="M224.886,415.887h-31.978c-2.209,0-3.997-1.788-3.997-3.997s1.788-3.997,3.997-3.997h31.978
				c2.209,0,3.997,1.788,3.997,3.997S227.096,415.887,224.886,415.887z"/>
		</g>
	</g>
	<g>
		<g>
			<path d="M224.886,439.87h-31.978c-2.209,0-3.997-1.788-3.997-3.997c0-2.21,1.788-3.997,3.997-3.997h31.978
				c2.209,0,3.997,1.787,3.997,3.997C228.883,438.082,227.096,439.87,224.886,439.87z"/>
		</g>
	</g>
	<g>
		<g>
			<path d="M144.943,263.994c-33.062,0-59.958-26.895-59.958-59.958c0-2.209,1.788-3.997,3.997-3.997
				c2.21,0,3.998,1.788,3.998,3.997c0,28.652,23.312,51.964,51.963,51.964c2.209,0,3.997,1.788,3.997,3.997
				S147.152,263.994,144.943,263.994z"/>
		</g>
	</g>
	<g>
		<g>
			<path d="M136.941,247.209c-0.266,0-0.531-0.023-0.805-0.078c-17.315-3.513-30.775-16.979-34.288-34.296
				c-0.437-2.162,0.96-4.278,3.123-4.716c2.201-0.429,4.278,0.953,4.715,3.123c2.873,14.17,13.881,25.178,28.042,28.051
				c2.163,0.438,3.56,2.553,3.123,4.716C140.469,245.905,138.799,247.209,136.941,247.209z"/>
		</g>
	</g>
	<g>
		<g>
			<g>
				<path d="M367.04,139.793c-11.608,0-22.491-7.292-26.684-17.995c-0.805-2.062,0.211-4.38,2.264-5.184
					c2.077-0.805,4.38,0.21,5.184,2.264c3.045,7.783,11.75,13.303,19.916,12.905c2.146-0.102,4.06,1.654,4.138,3.856
					c0.078,2.209-1.655,4.06-3.856,4.138C367.681,139.785,367.36,139.793,367.04,139.793z"/>
			</g>
		</g>
		<g>
			<g>
				<path d="M382.725,133.953c-1.116,0-2.232-0.469-3.021-1.382c-1.445-1.671-1.266-4.192,0.405-5.637
					c6.394-5.535,8.619-14.544,5.527-22.422c-0.804-2.061,0.211-4.38,2.265-5.184c2.076-0.804,4.379,0.211,5.184,2.264
					c4.316,11.031,1.202,23.64-7.745,31.385C384.583,133.633,383.653,133.953,382.725,133.953z"/>
			</g>
		</g>
		<g>
			<g>
				<path d="M436.624,315.317c-1.592,0-3.107-0.961-3.724-2.537l-74.12-189.148c-0.804-2.053,0.211-4.379,2.265-5.184
					c2.068-0.796,4.38,0.203,5.184,2.265l74.12,189.147c0.804,2.053-0.211,4.38-2.265,5.184
					C437.601,315.231,437.108,315.317,436.624,315.317z"/>
			</g>
		</g>
		<g>
			<g>
				<path d="M451.521,309.485c-1.593,0-3.107-0.96-3.725-2.537l-74.119-189.155c-0.805-2.054,0.211-4.38,2.264-5.185
					c2.084-0.804,4.38,0.211,5.184,2.265l74.12,189.155c0.804,2.053-0.211,4.38-2.265,5.184
					C452.496,309.399,452.004,309.485,451.521,309.485z"/>
			</g>
		</g>
		<g>
			<g>
				<path d="M362.505,126.162c-1.593,0-3.107-0.961-3.725-2.538c-0.804-2.061,0.211-4.379,2.265-5.184l14.896-5.832
					c2.084-0.804,4.38,0.211,5.184,2.265c0.805,2.061-0.211,4.38-2.264,5.184l-14.896,5.832
					C363.48,126.076,362.989,126.162,362.505,126.162z"/>
			</g>
		</g>
	</g>
	<g>
		<g>
			<path d="M448.726,319.954c-0.336,0-0.688-0.047-1.031-0.132c-2.131-0.57-3.403-2.764-2.834-4.896l2.795-10.469
				c0.57-2.132,2.732-3.373,4.896-2.834c2.131,0.569,3.403,2.764,2.834,4.895l-2.795,10.47
				C452.113,318.776,450.497,319.954,448.726,319.954z"/>
		</g>
	</g>
	<g>
		<g>
			<path d="M448.726,319.954c-0.523,0-1.055-0.102-1.562-0.319l-12.335-5.231c-2.03-0.858-2.982-3.208-2.116-5.238
				c0.851-2.037,3.225-2.982,5.238-2.115l12.335,5.23c2.03,0.859,2.982,3.209,2.116,5.238
				C451.762,319.041,450.278,319.954,448.726,319.954z"/>
		</g>
	</g>
</g>
</svg>
