<?xml version="1.0" encoding="utf-8"?>
<!-- Generator: Adobe Illustrator 16.0.0, SVG Export Plug-In . SVG Version: 6.00 Build 0)  -->
<!DOCTYPE svg PUBLIC "-//W3C//DTD SVG 1.1//EN" "http://www.w3.org/Graphics/SVG/1.1/DTD/svg11.dtd">
<svg version="1.1" xmlns="http://www.w3.org/2000/svg" xmlns:xlink="http://www.w3.org/1999/xlink" x="0px" y="0px" width="64px"
	 height="64px" viewBox="0 0 64 64" enable-background="new 0 0 64 64" xml:space="preserve">
<g id="_x32_5_purse_x2C__money_x2C__coin_x2C__banknote_x2C__payment_x2C__shop_x2C__shopping">
</g>
<g id="_x32_4_pay_x2C__click_x2C__hand_x2C__coin_x2C__money_x2C__shop_x2C__payment">
</g>
<g id="_x32_3_card_x2C__discount_x2C__sale_x2C__shop_x2C__shopping_x2C__commerce_x2C__market">
</g>
<g id="_x32_2_safe_x2C__box_x2C__key_x2C__thing_x2C__shop_x2C__shopping_x2C__commerce">
</g>
<g id="_x32_1_cashbox_x2C__money_x2C__purchase_x2C__list_x2C__check_x2C__shop_x2C__shopping">
	<g>
		<polygon fill="#656D78" points="32,37.75 6.5,37.75 8.5,27.75 32,27.75 		"/>
		<g>
			<path fill="#3A3847" d="M24,33.25h-8.999c-0.276,0-0.5-0.224-0.5-0.5s0.224-0.5,0.5-0.5H24c0.276,0,0.5,0.224,0.5,0.5
				S24.276,33.25,24,33.25z"/>
		</g>
		<path fill="#E6E9ED" d="M15.5,32.75v-5v-6v-17c0-0.83-0.67-1.5-1.5-1.5h8c0.83,0,1.5,0.67,1.5,1.5v23v5H15.5z"/>
		<path fill="#5D9CEC" d="M52.5,23.753c0,0.55-0.45,1-1,1h-14c-0.55,0-1-0.45-1-1v-6.002c0-0.55,0.45-1,1-1h14c0.55,0,1,0.45,1,1
			V23.753z"/>
		<rect x="43" y="24.753" fill="#656D78" width="3" height="2.997"/>
		<polygon fill="#5D9CEC" points="57.5,37.75 32,37.75 32,27.75 55.5,27.75 		"/>
		<polygon fill="#CCD1D9" points="57.5,37.75 6.5,37.75 0.5,47.75 63.5,47.75 		"/>
		<polygon fill="#E6E9ED" points="55.825,45.746 8.175,45.746 11.229,39.75 52.771,39.746 		"/>
		<rect x="0.5" y="49.75" fill="#CCD1D9" width="63" height="11"/>
		<rect x="0.5" y="47.75" fill="#656D78" width="63" height="2"/>
		<circle fill="#F5F7FA" cx="32" cy="55.25" r="3"/>
		<path fill="#E6E9ED" d="M6.5,14.75v1.5c0,0.83-0.67,1.5-1.5,1.5s-1.5-0.67-1.5-1.5v-1.5H6.5z"/>
		<path fill="#CCD1D9" d="M9.5,11.25v6.5H5c0.83,0,1.5-0.67,1.5-1.5v-1.5v-3.5c0-0.83,0.67-1.5,1.5-1.5S9.5,10.42,9.5,11.25z"/>
		<path fill="#E6E9ED" d="M12.5,9.75v10.5c0,0.83-0.67,1.5-1.5,1.5s-1.5-0.67-1.5-1.5v-2.5v-6.5c0-0.83-0.67-1.5-1.5-1.5H12.5z"/>
		<path fill="#CCD1D9" d="M15.5,4.75v17H11c0.83,0,1.5-0.67,1.5-1.5V9.75v-4.9v-0.1c0-0.83,0.67-1.5,1.5-1.5S15.5,3.92,15.5,4.75z"
			/>
		<g>
			<path fill="#CCD1D9" d="M21.53,8.25c-0.276,0-0.505-0.224-0.505-0.5s0.219-0.5,0.494-0.5h0.011c0.275,0,0.5,0.224,0.5,0.5
				S21.806,8.25,21.53,8.25z"/>
		</g>
		<g>
			<path fill="#CCD1D9" d="M21.53,11.25c-0.276,0-0.505-0.224-0.505-0.5s0.219-0.5,0.494-0.5h0.011c0.275,0,0.5,0.224,0.5,0.5
				S21.806,11.25,21.53,11.25z"/>
		</g>
		<g>
			<path fill="#CCD1D9" d="M21.53,14.25c-0.276,0-0.505-0.224-0.505-0.5s0.219-0.5,0.494-0.5h0.011c0.275,0,0.5,0.224,0.5,0.5
				S21.806,14.25,21.53,14.25z"/>
		</g>
		<g>
			<path fill="#CCD1D9" d="M21.53,17.25c-0.276,0-0.505-0.224-0.505-0.5s0.219-0.5,0.494-0.5h0.011c0.275,0,0.5,0.224,0.5,0.5
				S21.806,17.25,21.53,17.25z"/>
		</g>
		<g>
			<path fill="#CCD1D9" d="M21.53,20.25c-0.276,0-0.505-0.224-0.505-0.5s0.219-0.5,0.494-0.5h0.011c0.275,0,0.5,0.224,0.5,0.5
				S21.806,20.25,21.53,20.25z"/>
		</g>
		<g>
			<path fill="#CCD1D9" d="M21.53,23.25c-0.276,0-0.505-0.224-0.505-0.5s0.219-0.5,0.494-0.5h0.011c0.275,0,0.5,0.224,0.5,0.5
				S21.806,23.25,21.53,23.25z"/>
		</g>
		<g>
			<path fill="#CCD1D9" d="M21.53,26.25c-0.276,0-0.505-0.224-0.505-0.5s0.219-0.5,0.494-0.5h0.011c0.275,0,0.5,0.224,0.5,0.5
				S21.806,26.25,21.53,26.25z"/>
		</g>
		<g>
			<path fill="#CCD1D9" d="M21.53,29.25c-0.276,0-0.505-0.224-0.505-0.5s0.219-0.5,0.494-0.5h0.011c0.275,0,0.5,0.224,0.5,0.5
				S21.806,29.25,21.53,29.25z"/>
		</g>
		<g>
			<path fill="#CCD1D9" d="M32,56.75c-0.276,0-0.5-0.224-0.5-0.5v-2.001c0-0.276,0.224-0.5,0.5-0.5s0.5,0.224,0.5,0.5v2.001
				C32.5,56.526,32.276,56.75,32,56.75z"/>
		</g>
		<polygon fill="#CCD1D9" points="49.831,43.25 54.555,43.25 54.045,42.25 49.449,42.25 48.493,39.746 47.424,39.746 48.379,42.25 
			43.794,42.25 43.156,39.747 42.124,39.747 42.762,42.25 38.146,42.25 37.824,39.747 36.815,39.748 37.137,42.25 32.5,42.25 
			32.5,39.748 31.5,39.748 31.5,42.25 26.867,42.25 27.184,39.748 26.176,39.749 25.859,42.25 21.238,42.25 21.875,39.749 
			20.844,39.749 20.206,42.25 15.627,42.25 16.585,39.75 15.515,39.75 14.557,42.25 9.956,42.25 9.446,43.25 14.173,43.25 
			13.216,45.746 14.287,45.746 15.243,43.25 19.951,43.25 19.315,45.746 20.348,45.746 20.983,43.25 25.732,43.25 25.416,45.746 
			26.424,45.746 26.74,43.25 31.5,43.25 31.5,45.746 32.5,45.746 32.5,43.25 37.265,43.25 37.585,45.746 38.594,45.746 
			38.273,43.25 43.017,43.25 43.652,45.746 44.685,45.746 44.049,43.25 48.761,43.25 49.713,45.746 50.784,45.746 		"/>
		<g>
			<path fill="#4A89DC" d="M49.5,31.25h-14c-0.276,0-0.5-0.224-0.5-0.5s0.224-0.5,0.5-0.5h14c0.276,0,0.5,0.224,0.5,0.5
				S49.776,31.25,49.5,31.25z"/>
		</g>
		<g>
			<path fill="#4A89DC" d="M52.5,33.25h-17c-0.276,0-0.5-0.224-0.5-0.5s0.224-0.5,0.5-0.5h17c0.276,0,0.5,0.224,0.5,0.5
				S52.776,33.25,52.5,33.25z"/>
		</g>
		<g>
			<path fill="#4A89DC" d="M46.5,35.25h-11c-0.276,0-0.5-0.224-0.5-0.5s0.224-0.5,0.5-0.5h11c0.276,0,0.5,0.224,0.5,0.5
				S46.776,35.25,46.5,35.25z"/>
		</g>
		<g>
			<path fill="#F5F7FA" d="M40,22.252c-0.276,0-0.5-0.224-0.5-0.5v-2c0-0.276,0.224-0.5,0.5-0.5s0.5,0.224,0.5,0.5v2
				C40.5,22.028,40.276,22.252,40,22.252z"/>
		</g>
		<g>
			<path fill="#F5F7FA" d="M42.5,22.252c-0.827,0-1.5-0.673-1.5-1.5s0.673-1.5,1.5-1.5s1.5,0.673,1.5,1.5S43.327,22.252,42.5,22.252
				z M42.5,20.252c-0.275,0-0.5,0.225-0.5,0.5s0.225,0.5,0.5,0.5s0.5-0.225,0.5-0.5S42.775,20.252,42.5,20.252z"/>
		</g>
		<g>
			<path fill="#F5F7FA" d="M45.5,22.252c-0.827,0-1.5-0.673-1.5-1.5s0.673-1.5,1.5-1.5s1.5,0.673,1.5,1.5S46.327,22.252,45.5,22.252
				z M45.5,20.252c-0.275,0-0.5,0.225-0.5,0.5s0.225,0.5,0.5,0.5s0.5-0.225,0.5-0.5S45.775,20.252,45.5,20.252z"/>
		</g>
		<g>
			<path fill="#F5F7FA" d="M48.5,22.252c-0.827,0-1.5-0.673-1.5-1.5s0.673-1.5,1.5-1.5s1.5,0.673,1.5,1.5S49.327,22.252,48.5,22.252
				z M48.5,20.252c-0.275,0-0.5,0.225-0.5,0.5s0.225,0.5,0.5,0.5s0.5-0.225,0.5-0.5S48.775,20.252,48.5,20.252z"/>
		</g>
		<g>
			<path fill="#CCD1D9" d="M19.5,8.25h-2c-0.276,0-0.5-0.224-0.5-0.5s0.224-0.5,0.5-0.5h2c0.276,0,0.5,0.224,0.5,0.5
				S19.776,8.25,19.5,8.25z"/>
		</g>
		<g>
			<path fill="#CCD1D9" d="M19.5,11.25h-2c-0.276,0-0.5-0.224-0.5-0.5s0.224-0.5,0.5-0.5h2c0.276,0,0.5,0.224,0.5,0.5
				S19.776,11.25,19.5,11.25z"/>
		</g>
		<g>
			<path fill="#CCD1D9" d="M19.5,14.25h-2c-0.276,0-0.5-0.224-0.5-0.5s0.224-0.5,0.5-0.5h2c0.276,0,0.5,0.224,0.5,0.5
				S19.776,14.25,19.5,14.25z"/>
		</g>
		<g>
			<path fill="#CCD1D9" d="M19.5,17.25h-2c-0.276,0-0.5-0.224-0.5-0.5s0.224-0.5,0.5-0.5h2c0.276,0,0.5,0.224,0.5,0.5
				S19.776,17.25,19.5,17.25z"/>
		</g>
		<g>
			<path fill="#CCD1D9" d="M19.5,20.25h-2c-0.276,0-0.5-0.224-0.5-0.5s0.224-0.5,0.5-0.5h2c0.276,0,0.5,0.224,0.5,0.5
				S19.776,20.25,19.5,20.25z"/>
		</g>
		<g>
			<path fill="#CCD1D9" d="M19.5,23.25h-2c-0.276,0-0.5-0.224-0.5-0.5s0.224-0.5,0.5-0.5h2c0.276,0,0.5,0.224,0.5,0.5
				S19.776,23.25,19.5,23.25z"/>
		</g>
		<g>
			<path fill="#CCD1D9" d="M19.5,26.25h-2c-0.276,0-0.5-0.224-0.5-0.5s0.224-0.5,0.5-0.5h2c0.276,0,0.5,0.224,0.5,0.5
				S19.776,26.25,19.5,26.25z"/>
		</g>
		<g>
			<path fill="#CCD1D9" d="M19.5,29.25h-2c-0.276,0-0.5-0.224-0.5-0.5s0.224-0.5,0.5-0.5h2c0.276,0,0.5,0.224,0.5,0.5
				S19.776,29.25,19.5,29.25z"/>
		</g>
	</g>
</g>
<g id="_x32_0_search_x2C__magnifier_x2C__basket_x2C__shop_x2C__shopping_x2C__commerce_x2C__market">
</g>
<g id="_x31_9_return_x2C__box_x2C__purchase_x2C__shipping_x2C__delivery_x2C__shop_x2C__shopping">
</g>
<g id="_x31_8_review_x2C__client_x2C__buyer_x2C__talk_x2C__shop_x2C__shopping_x2C__commerce">
</g>
<g id="_x31_7_manager_x2C__consultant_x2C__shop_x2C__shopping_x2C__commerce_x2C__market_x2C__badge">
</g>
<g id="_x31_6_check_x2C__list_x2C__cashbox_x2C__purchase_x2C__shop_x2C__shopping_x2C__commerce">
</g>
<g id="_x31_5_coupon_x2C__sale_x2C__discount_x2C__shop_x2C__shopping_x2C__commerce_x2C__market">
</g>
<g id="_x31_4_sale_x2C__discount_x2C__box_x2C__gift_x2C__shop_x2C__shopping_x2C__commerce">
</g>
<g id="_x31_3_map_x2C__pin_x2C__marker_x2C__location_x2C__shop_x2C__shopping_x2C__basket">
</g>
<g id="_x31_2_operator_x2C__call_x2C__center_x2C__shop_x2C__shopping_x2C__commerce_x2C__market">
</g>
<g id="_x31_1_courier_x2C__box_x2C__shipping_x2C__purchase_x2C__shop_x2C__shopping_x2C__commerce">
</g>
<g id="_x31_0_box_x2C__shipping_x2C__delivery_x2C__purchase_x2C__shop_x2C__shopping_x2C__commerce">
</g>
<g id="_x39__shipping_x2C__delivery_x2C__box_x2C__crane_x2C__shop_x2C__shopping_x2C__commerce">
</g>
<g id="_x38__computer_x2C__monitor_x2C__desktop_x2C__shop_x2C__shopping_x2C__commerce_x2C__market">
</g>
<g id="_x37__mobile_x2C__phone_x2C__app_x2C__shop_x2C__shopping_x2C__commerce_x2C__market">
</g>
<g id="_x36__food_x2C__market_x2C__purchase_x2C__shop_x2C__shopping_x2C__commerce_x2C__basket">
</g>
<g id="_x35__discount_x2C__sale_x2C__purchase_x2C__pocket_x2C__shop_x2C__shopping_x2C__commerce">
</g>
<g id="_x34__badge_x2C__discount_x2C__sale_x2C__shop_x2C__shopping_x2C__commerce_x2C__market">
</g>
<g id="_x33__food_x2C__pocket_x2C__purchase_x2C__shop_x2C__shopping_x2C__commerce_x2C__supermarket">
</g>
<g id="_x32__shop_x2C__shopping_x2C__commerce_x2C__supermarket_x2C__market_x2C__cart">
</g>
<g id="_x31__list_x2C__check_x2C__notebook_x2C__pen_x2C__shop_x2C__shopping_x2C__commerce">
</g>
</svg>
