<svg xmlns="http://www.w3.org/2000/svg" viewBox="0 0 64 64"><g id="_21-browser" data-name="21-browser"><path d="M17,4V9H1V3A2.006,2.006,0,0,1,3,1H14A2.938,2.938,0,0,1,17,4Z" style="fill:#96e8ff"/><path d="M14,1H61a2.006,2.006,0,0,1,2,2V9H17V4A2.938,2.938,0,0,0,14,1Z" style="fill:#19cffc"/><path d="M17,1H14a2.938,2.938,0,0,1,3,3V9h3V4A2.938,2.938,0,0,0,17,1Z" style="fill:#4ab8f7"/><path d="M63,9V55a2.006,2.006,0,0,1-2,2H3a2.006,2.006,0,0,1-2-2V9H63Z" style="fill:#f0f0f0"/><path d="M4,55V9H1V55a2.006,2.006,0,0,0,2,2H6A2.006,2.006,0,0,1,4,55Z" style="fill:#c1c1c1"/><path d="M60,55V9h3V55a2.006,2.006,0,0,1-2,2H58A2.006,2.006,0,0,0,60,55Z" style="fill:#c1c1c1"/><rect x="4" y="4" width="2" height="2" style="fill:#2b75ad"/><rect x="8" y="4" width="2" height="2" style="fill:#2b75ad"/><rect x="12" y="4" width="2" height="2" style="fill:#2b75ad"/><rect x="20" y="4" width="40" height="2" style="fill:#2b75ad"/><rect x="5" y="13" width="10" height="4" style="fill:#ff636e"/><rect x="5" y="15" width="10" height="2" style="fill:#ff475a"/><rect x="19" y="13" width="14" height="4" style="fill:#64e1dc"/><rect x="19" y="15" width="14" height="2" style="fill:#1cadb5"/><polygon points="59 13 59 39 48 26 59 13" style="fill:#ffcf94"/><polygon points="37 13 48 26 37 39 37 13" style="fill:#ffcf94"/><polygon points="48 26 59 39 37 39 48 26" style="fill:#ffac5a"/><polygon points="59 13 48 26 37 13 59 13" style="fill:#ffac5a"/><rect x="36" y="42" width="2" height="2" style="fill:#6e6e6e"/><rect x="40" y="42" width="20" height="2" style="fill:#6e6e6e"/><rect x="36" y="46" width="24" height="2" style="fill:#6e6e6e"/><rect x="36" y="50" width="24" height="2" style="fill:#6e6e6e"/><rect x="5" y="53" width="26" height="10" rx="2" style="fill:#ffac5a"/><path d="M29,60H7a2.006,2.006,0,0,1-2-2v3a2.006,2.006,0,0,0,2,2H29a2.006,2.006,0,0,0,2-2V58A2.006,2.006,0,0,1,29,60Z" style="fill:#ff873c"/><path d="M23,23V16a3,3,0,0,1,6,0V30c4,0,4,2,4,2V43c-1,4-4,4-4,4v6H7V49a6.194,6.194,0,0,1-2-4V26a3,3,0,0,1,6,0V24a3,3,0,0,1,6,0V23a2.993,2.993,0,0,1,.88-2.12,2.838,2.838,0,0,1,1.12-.7A2.772,2.772,0,0,1,20,20,3,3,0,0,1,23,23Z" style="fill:#ffcdbe"/><rect x="26" y="57" width="2" height="2" style="fill:#6e6e6e"/><path d="M14.5,21.5h17a3,3,0,0,1,3,3v0a0,0,0,0,1,0,0h-20a0,0,0,0,1,0,0v-3A0,0,0,0,1,14.5,21.5Z" transform="translate(1.5 47.5) rotate(-90)" style="fill:#faa68e"/><path d="M6.5,25.5h9a3,3,0,0,1,3,3v0a0,0,0,0,1,0,0H6.5a0,0,0,0,1,0,0v-3A0,0,0,0,1,6.5,25.5Z" transform="translate(-14.5 39.5) rotate(-90)" style="fill:#faa68e"/><path d="M12,25H22a3,3,0,0,1,3,3v0a0,0,0,0,1,0,0H12a0,0,0,0,1,0,0V25A0,0,0,0,1,12,25Z" transform="translate(-8 45) rotate(-90)" style="fill:#faa68e"/><path d="M8,30V45a6.194,6.194,0,0,0,2,4v4H7V49a6.194,6.194,0,0,1-2-4V26a3,3,0,0,1,3-3v7Z" style="fill:#faa68e"/><path d="M29,30V47s3,0,4-4V32S33,30,29,30Z" style="fill:#faa68e"/><path d="M61,0H3A3,3,0,0,0,0,3V55a3,3,0,0,0,3,3H4v3a3,3,0,0,0,3,3H29a3,3,0,0,0,3-3V58H61a3,3,0,0,0,3-3V3A3,3,0,0,0,61,0Zm1,3V8H18V4a4.08,4.08,0,0,0-.487-2H61A1,1,0,0,1,62,3ZM3,2H13.993A1.885,1.885,0,0,1,16,4V8H2V3A1,1,0,0,1,3,2ZM30,61a1,1,0,0,1-1,1H7a1,1,0,0,1-1-1V55a1,1,0,0,1,1-1H29a1,1,0,0,1,1,1ZM12,33V24a2,2,0,0,1,4,0v9h2V23a2,2,0,0,1,4,0V33h2V16a2,2,0,0,1,4,0V38h2V31.059c1.462.168,1.961.684,2,.941V42.873c-.794,2.978-2.786,3.121-3,3.127a1,1,0,0,0-1,1v5H8V49a1,1,0,0,0-.293-.707A5.261,5.261,0,0,1,6,45V26a2,2,0,0,1,4,0v7ZM61,56H32V55a3,3,0,0,0-2-2.816V47.84c1.206-.337,3.165-1.378,3.97-4.6A.984.984,0,0,0,34,43V32c0-.113-.056-2.59-4-2.952V18h3a1,1,0,0,0,1-1V13a1,1,0,0,0-1-1H30v2h2v2H30a4,4,0,0,0-8,0H20V14h2V12H19a1,1,0,0,0-1,1v4a1,1,0,0,0,1,1h3v1.556a3.937,3.937,0,0,0-5.425,1.409,3.956,3.956,0,0,0-6.336,1.723A4,4,0,0,0,4,26V45a7.066,7.066,0,0,0,2,4.4v2.784A3,3,0,0,0,4,55v1H3a1,1,0,0,1-1-1V10H62V55A1,1,0,0,1,61,56Z"/><rect x="4" y="4" width="2" height="2"/><rect x="8" y="4" width="2" height="2"/><rect x="12" y="4" width="2" height="2"/><rect x="20" y="4" width="40" height="2"/><rect x="26" y="57" width="2" height="2"/><path d="M15,12H5a1,1,0,0,0-1,1v4a1,1,0,0,0,1,1H15a1,1,0,0,0,1-1V13A1,1,0,0,0,15,12Zm-1,4H6V14h8Z"/><path d="M59,12H37a1,1,0,0,0-1,1V39a1,1,0,0,0,1,1H59a1,1,0,0,0,1-1V13A1,1,0,0,0,59,12ZM46.691,26,38,36.271V15.729ZM39.156,14H56.844L48,24.453ZM48,27.547,56.844,38H39.156ZM49.309,26,58,15.729V36.271Z"/><rect x="36" y="42" width="2" height="2"/><rect x="40" y="42" width="20" height="2"/><rect x="36" y="46" width="24" height="2"/><rect x="36" y="50" width="24" height="2"/></g></svg>