<svg xmlns="http://www.w3.org/2000/svg" xmlns:xlink="http://www.w3.org/1999/xlink" viewBox="0 0 64 64"><defs><linearGradient id="linear-gradient" x1="32" y1="63.1" x2="32" y2="1.728" gradientUnits="userSpaceOnUse"><stop offset="0" stop-color="#ffe100"/><stop offset="0.359" stop-color="#f98900"/><stop offset="0.717" stop-color="#dd2b29"/><stop offset="1" stop-color="#960500"/></linearGradient><linearGradient id="linear-gradient-2" x1="47.915" y1="34.241" x2="38.971" y2="42.931" gradientUnits="userSpaceOnUse"><stop offset="0" stop-color="#ff3d3d"/><stop offset="0.307" stop-color="#db2a28"/><stop offset="0.771" stop-color="#a90f0b"/><stop offset="1" stop-color="#960500"/></linearGradient><linearGradient id="linear-gradient-3" x1="43" y1="29.941" x2="43" y2="22.23" gradientUnits="userSpaceOnUse"><stop offset="0.005" stop-color="#414d4d"/><stop offset="0.206" stop-color="#3a4545"/><stop offset="0.522" stop-color="#272e2e"/><stop offset="0.914" stop-color="#080909"/><stop offset="1"/></linearGradient><linearGradient id="linear-gradient-4" x1="21" y1="29.941" x2="21" y2="22.23" xlink:href="#linear-gradient-3"/></defs><g id="_21-Face_with_Thermometer" data-name="21-Face with Thermometer"><path d="M32,63C4.3,63,.962,39,1,33V31C.962,25,4.3,1,32,1h0C59.7,1,63.038,25,63,31v2C63.038,39,59.7,63,32,63Z" style="fill:url(#linear-gradient)"/><path d="M38.01,43.99c-.12-.05-.24-.1-.37-.14s-.26-.09-.4-.13a11.02,11.02,0,0,0-1.32-.34.037.037,0,0,0-.03-.01,14.778,14.778,0,0,0-1.48-.24l9.21-9.21a3.163,3.163,0,0,1,4.46,0,3.157,3.157,0,0,1,0,4.46l-7.26,7.25c-.08-.07-.16-.14-.25-.21s-.18-.14-.27-.2a7.733,7.733,0,0,0-1.39-.84c-.14-.07-.28-.14-.43-.2S38.18,44.05,38.01,43.99Z" style="fill:url(#linear-gradient-2)"/><path d="M40.116,44.925l7.254-7.254a2.15,2.15,0,0,0,0-3.041,2.2,2.2,0,0,0-3.041,0l-8.695,8.7a11.707,11.707,0,0,1,4.412,1.708A1.046,1.046,0,0,1,40.116,44.925Z" style="fill:none"/><ellipse cx="43" cy="26" rx="3" ry="4" style="fill:url(#linear-gradient-3)"/><ellipse cx="21" cy="26" rx="3" ry="4" style="fill:url(#linear-gradient-4)"/><path d="M55.045,10c.592.649,1.141,1.318,1.651,2" style="fill:none;stroke:#1d1d1b;stroke-linejoin:round;stroke-width:2px"/><path d="M8.09,53C2.05,45.666.977,36.416,1,33V31C.96,25,4.3,1,32,1c9.68,0,16.385,2.931,21.011,7" style="fill:none;stroke:#1d1d1b;stroke-linejoin:round;stroke-width:2px"/><path d="M58.061,14A34.4,34.4,0,0,1,63,30.89V33c.04,6-3.3,30-31,30-10.393,0-17.357-3.379-22-7.918" style="fill:none;stroke:#1d1d1b;stroke-linejoin:round;stroke-width:2px"/><ellipse cx="43" cy="26" rx="3" ry="4" style="fill:none;stroke:#1d1d1b;stroke-linejoin:round;stroke-width:2px"/><ellipse cx="21" cy="26" rx="3" ry="4" style="fill:none;stroke:#1d1d1b;stroke-linejoin:round;stroke-width:2px"/><path d="M41,15s3,4,12,8" style="fill:none;stroke:#1d1d1b;stroke-linejoin:round;stroke-width:2px"/><path d="M23,15s-3,4-12,8" style="fill:none;stroke:#1d1d1b;stroke-linejoin:round;stroke-width:2px"/><path d="M38.011,43.989a9.352,9.352,0,0,1,2.812,1.643l7.254-7.254a3.149,3.149,0,0,0,0-4.455h0a3.149,3.149,0,0,0-4.455,0L34.405,43.14a14.638,14.638,0,0,1,3.606.849L44,38" style="fill:none;stroke:#1d1d1b;stroke-linejoin:round;stroke-width:2px"/><path d="M22,47s2-4,10-4,10,4,10,4" style="fill:none;stroke:#1d1d1b;stroke-linejoin:round;stroke-width:2px"/></g></svg>