<svg xmlns="http://www.w3.org/2000/svg" viewBox="0 0 64 64"><g id="_21-Powder_foundation" data-name="21-Powder foundation"><ellipse cx="32" cy="11" rx="18" ry="7" style="fill:#f8eae9"/><path d="M32,54A17,17,0,0,0,46.04,27.41c1.06-.26,2.07-.55,3.01-.87a20,20,0,1,1-34.1,0c.94.32,1.95.61,3.01.87A17,17,0,0,0,32,54Z" style="fill:#a14756"/><path d="M49,37a17,17,0,1,1-31.04-9.59A58.961,58.961,0,0,0,32,29a58.961,58.961,0,0,0,14.04-1.59A16.979,16.979,0,0,1,49,37Z" style="fill:#fff0e6"/><path d="M54.52,23.99A26.008,26.008,0,1,1,9.49,24a22.6,22.6,0,0,0,5.46,2.54,20,20,0,1,0,34.1,0A22.868,22.868,0,0,0,54.52,23.99Z" style="fill:#d45f73"/><path d="M54.52,23.99a22.868,22.868,0,0,1-5.47,2.55c-.94.32-1.95.61-3.01.87A58.961,58.961,0,0,1,32,29a58.961,58.961,0,0,1-14.04-1.59c-1.06-.26-2.07-.55-3.01-.87A22.6,22.6,0,0,1,9.49,24C7.27,22.53,6,20.82,6,19V11c0,5.52,11.64,10,26,10s26-4.48,26-10v8C58,20.82,56.73,22.53,54.52,23.99Z" style="fill:#c25769"/><path d="M49.05,32.54c.793-.263,1.526-.551,2.229-.85a19.994,19.994,0,0,0-2.229-5.15c-.94.32-1.95.61-3.01.87a17.034,17.034,0,0,1,2.406,5.319C48.647,32.666,48.856,32.606,49.05,32.54Z" style="fill:#873c48"/><path d="M14.95,32.54c.194.066.4.126.6.189A17.034,17.034,0,0,1,17.96,27.41c-1.06-.26-2.07-.55-3.01-.87a19.982,19.982,0,0,0-2.23,5.153C13.423,31.99,14.157,32.277,14.95,32.54Z" style="fill:#873c48"/><path d="M9.49,30a19.259,19.259,0,0,0,3.23,1.693,19.982,19.982,0,0,1,2.23-5.153A22.6,22.6,0,0,1,9.49,24a25.824,25.824,0,0,0-2,4.333A10.908,10.908,0,0,0,9.49,30Z" style="fill:#a14756"/><path d="M49.05,26.54a19.994,19.994,0,0,1,2.229,5.15,19.7,19.7,0,0,0,3.241-1.7,10.736,10.736,0,0,0,1.992-1.66,25.978,25.978,0,0,0-1.992-4.34A22.868,22.868,0,0,1,49.05,26.54Z" style="fill:#a14756"/><path d="M58,11c0,5.52-11.64,10-26,10S6,16.52,6,11,17.64,1,32,1,58,5.48,58,11Zm-8,0c0-3.87-8.06-7-18-7S14,7.13,14,11s8.06,7,18,7S50,14.87,50,11Z" style="fill:#e6677d"/><path d="M46.322,19.344A59,59,0,0,1,32,21a59,59,0,0,1-14.322-1.656,5.984,5.984,0,0,0-.367,7.893c.217.057.427.119.649.173A58.961,58.961,0,0,0,32,29a58.961,58.961,0,0,0,14.04-1.59c.222-.054.432-.116.649-.173a5.984,5.984,0,0,0-.367-7.893Z" style="fill:#b35061"/><path d="M48.031,31.37l-.045-.126q-.213-.59-.466-1.158c-.033-.076-.066-.152-.1-.227-.16-.345-.332-.682-.514-1.014-.047-.087-.091-.177-.139-.263-.229-.4-.469-.793-.727-1.172-.691.172-1.413.327-2.147.474A61.317,61.317,0,0,1,32,29a61.317,61.317,0,0,1-11.893-1.116c-.734-.147-1.456-.3-2.147-.474-.258.379-.5.772-.727,1.172-.048.086-.092.176-.139.263-.182.332-.354.669-.514,1.014-.034.075-.067.151-.1.227q-.253.569-.466,1.158l-.045.126a17,17,0,1,0,32.062,0ZM32,52A15,15,0,0,1,17.47,33.28c.164.043.323.089.49.13A58.961,58.961,0,0,0,32,35a58.961,58.961,0,0,0,14.04-1.59c.167-.041.326-.087.49-.13A15,15,0,0,1,32,52Z" style="fill:#f5c3aa"/><rect x="40" y="44" width="2" height="2" style="fill:#fad8c1"/><rect x="37" y="47" width="2" height="2" style="fill:#fad8c1"/><path d="M59,19V11C59,4.832,47.14,0,32,0,17.689,0,6.315,4.318,5.112,10H5v9c0,1.919,1.149,3.709,3.188,5.264a27,27,0,1,0,47.624,0C57.851,22.709,59,20.919,59,19ZM32,2c14.955,0,25,4.653,25,9s-10.045,9-25,9S7,15.347,7,11,17.045,2,32,2ZM7,19V15.227C10.99,19.238,20.556,22,32,22s21.01-2.762,25-6.773V19c0,1.323-.936,2.675-2.654,3.915l-1.193.754.007.013C48.925,26.144,41.443,28,32,28s-16.925-1.856-21.16-4.318l.006-.01-1.157-.731C7.948,21.694,7,20.333,7,19ZM32,30a56.7,56.7,0,0,0,16.592-2.266,19,19,0,1,1-33.183,0A56.683,56.683,0,0,0,32,30Zm25,7A25,25,0,1,1,9.869,25.375a24.716,24.716,0,0,0,3.631,1.7,21,21,0,1,0,37,0,24.716,24.716,0,0,0,3.631-1.7A24.941,24.941,0,0,1,57,37Z"/><path d="M32,55A18.009,18.009,0,0,0,48.41,29.592l-1.823.824a16,16,0,1,1-29.172,0l-1.823-.824A18.009,18.009,0,0,0,32,55Z"/><path d="M32,19c10.832,0,19-3.439,19-8S42.832,3,32,3,13,6.439,13,11,21.168,19,32,19ZM32,5c10.019,0,17,3.162,17,6s-6.981,6-17,6-17-3.162-17-6S21.981,5,32,5Z"/></g></svg>