<svg xmlns="http://www.w3.org/2000/svg" viewBox="0 0 64 64"><g id="_21-Shrimp" data-name="21-Shrimp"><path d="M34,23V19S15.84,17.66,6,16.62c-2.16-.23-3.92-.44-5-.62l5.18,3.02L13,23v3a12.085,12.085,0,0,0,1.54,3c.22.32.47.65.75,1a15.282,15.282,0,0,0,4.77,3.89v.01a16.854,16.854,0,0,0,2.9,1.22,21.5,21.5,0,0,0,3.35.76,10.419,10.419,0,0,0,7.79-1.86,6.4,6.4,0,0,0,.98-.88A3.062,3.062,0,0,0,36,31.1V27ZM18,24a2,2,0,1,1,2-2A2.006,2.006,0,0,1,18,24Z" style="fill:#969192"/><path d="M63,41v5H59l-2-1V43c0-.34-.03-.67-.06-.99L57,42s0-6.58,5.47-6.98A36.05,36.05,0,0,1,63,41Z" style="fill:#969192"/><path d="M59,46h4c0,9-10,14-10,14V53C53,49,59,46,59,46Z" style="fill:#5b6880"/><path d="M60.15,26.93a37.16,37.16,0,0,1,2.32,8.09C57,35.42,57,42,57,42l-.06.01a7.853,7.853,0,0,0-2.91-5.2V36.8c.19-1.25,1.44-7.99,5.97-9.8Z" style="fill:#b8b5b7"/><path d="M51,35.17a8.364,8.364,0,0,0-.98-.27A34.275,34.275,0,0,0,51,28c0-1.92,0-6.6,2.66-9.62,2.75,1.71,4.93,4.86,6.49,8.55L60,27c-4.53,1.81-5.78,8.55-5.97,9.8A9.311,9.311,0,0,0,51,35.17Z" style="fill:#969192"/><path d="M57,45l2,1s-6,3-6,7v2l-4,4V53C49,48,57,45,57,45Z" style="fill:#5b6880"/><path d="M53.66,18.38C51,21.4,51,26.08,51,28a34.275,34.275,0,0,1-.98,6.9,10.515,10.515,0,0,0-1.71-.26L47,34.54V31a8.419,8.419,0,0,0-1.83-4.6A6.023,6.023,0,0,1,44,22.84V17.43A26.136,26.136,0,0,1,49,17,8.649,8.649,0,0,1,53.66,18.38Z" style="fill:#b8b5b7"/><path d="M43,34.23,40,34h-.25A2.491,2.491,0,0,0,40,33V19s.99-.99,4-1.57v5.41a6.023,6.023,0,0,0,1.17,3.56A8.419,8.419,0,0,1,47,31v3.54Z" style="fill:#969192"/><path d="M40,19V33a2.491,2.491,0,0,1-.25,1A1.8,1.8,0,0,1,38,35a3.579,3.579,0,0,1-2.92-1.86A3.062,3.062,0,0,0,36,31.1V27l-2-4V19Z" style="fill:#737172"/><circle cx="18" cy="22" r="2" style="fill:#313845"/><path d="M61,43a2,2,0,0,1-2-2V37c-.01-.125-.033-.24-.047-.362A8.833,8.833,0,0,0,57,42l-.06.01c.03.32.06.65.06.99v2l2,1h4V41A2,2,0,0,1,61,43Z" style="fill:#838182"/><path d="M58.953,36.638a9.6,9.6,0,0,0-2.836-5.974A19,19,0,0,0,54.03,36.8v.01a7.853,7.853,0,0,1,2.91,5.2L57,42A8.833,8.833,0,0,1,58.953,36.638Z" style="fill:#a6a0a1"/><path d="M51,27.583c0,.149,0,.29,0,.417a34.275,34.275,0,0,1-.98,6.9,8.364,8.364,0,0,1,.98.27,9.311,9.311,0,0,1,3.03,1.63,19,19,0,0,1,2.087-6.136A14.148,14.148,0,0,0,51,27.583Z" style="fill:#838182"/><path d="M51,27.583A27.34,27.34,0,0,0,45.047,26.2c.044.065.077.135.123.2A8.419,8.419,0,0,1,47,31v3.54l1.31.1a10.515,10.515,0,0,1,1.71.26A34.275,34.275,0,0,0,51,28C51,27.873,51,27.732,51,27.583Z" style="fill:#a6a0a1"/><path d="M45.17,26.4c-.046-.064-.079-.134-.123-.2A41.191,41.191,0,0,0,40,25.891V33a2.491,2.491,0,0,1-.25,1H40l3,.23,4,.31V31A8.419,8.419,0,0,0,45.17,26.4Z" style="fill:#838182"/><path d="M48,21.585a1.38,1.38,0,0,1-.169-.01c-.3-.033-.6-.058-.922-.078a1.5,1.5,0,1,1,.178-2.994c.372.021.731.053,1.078.092A1.5,1.5,0,0,1,48,21.585Z" style="fill:#dddcd7"/><path d="M52.346,19.605a1.5,1.5,0,0,0-1.114,2.786c.12.047.228.1.341.149a11.3,11.3,0,0,1,1.113-2.784C52.571,19.706,52.465,19.653,52.346,19.605Z" style="fill:#dddcd7"/><path d="M55.557,26.409a1.5,1.5,0,0,0,2.89-.8,9.882,9.882,0,0,0-5.761-5.849,11.3,11.3,0,0,0-1.113,2.784A6.944,6.944,0,0,1,55.557,26.409Z" style="fill:#c9c6c8"/><path d="M52,52c-.833.833-2.346.953-2.832-.181A4.723,4.723,0,0,0,49,53v6l4-4V53c0-4,6-7,6-7l-1.133-.567C53,47.529,52.932,51.068,52,52Z" style="fill:#475163"/><path d="M56,52a7.5,7.5,0,0,1,3-6s-6,3-6,7v7a22.069,22.069,0,0,0,8.216-7.63C59.485,54.49,56,55.343,56,52Z" style="fill:#475163"/><path d="M38.5,29A1.5,1.5,0,0,1,37,27.5V26l-1-2V19H34v4l2,4v4.1a3.062,3.062,0,0,1-.92,2.04A3.579,3.579,0,0,0,38,35a1.8,1.8,0,0,0,1.75-1A2.491,2.491,0,0,0,40,33V27.5A1.5,1.5,0,0,1,38.5,29Z" style="fill:#475163"/><path d="M27,31c-8.456,0-11.906-5.15-12.771-7.358A1,1,0,0,0,13.3,23H13v3a12.085,12.085,0,0,0,1.54,3c.22.32.47.65.75,1a15.282,15.282,0,0,0,4.77,3.89v.01a16.854,16.854,0,0,0,2.9,1.22,21.5,21.5,0,0,0,3.35.76,10.419,10.419,0,0,0,7.79-1.86,6.4,6.4,0,0,0,.98-.88A3.062,3.062,0,0,0,36,31.1V27l-2-4S37,31,27,31Z" style="fill:#737172"/><circle cx="18" cy="22" r="2" style="fill:none"/><circle cx="18" cy="22" r="2" style="fill:none"/><path d="M5.5,16.566C3.571,16.357,2,16.166,1,16l4.633,2.7A11.659,11.659,0,0,1,5.5,17Z" style="fill:#969192"/><path d="M34,19S15.84,17.66,6,16.62c-2.16-.23-3.92-.44-5-.62l33,7Z" style="fill:#a6a0a1"/><path d="M49,16c-5.874,0-8.465,1.367-9.349,2H34.034C33.179,17.936,9.115,16.148,2,15.14V13.811A15.633,15.633,0,0,1,7.64,1.769L6.36.231A17.631,17.631,0,0,0,0,13.811v2.194H0V17A13.015,13.015,0,0,0,13,30h1.013a15.992,15.992,0,0,0,2.857,3H12a1,1,0,0,0-1,1v2h2V35h7v-.012a18.555,18.555,0,0,0,1.7.739L21.279,37H11a1,1,0,0,0-.8.4l-6,8a1,1,0,0,0-.149.916l2,6,1.9-.632-1.835-5.5L11.5,39H22a1,1,0,0,0,.949-.684l.66-1.981c.446.119.912.221,1.391.315v.881l-5.614,4.68-9,7A1,1,0,0,0,10,50v6h2V50.489l8.64-6.72,6-5A1,1,0,0,0,27,38V36.962c.312.024.623.037.932.037.023,0,.045,0,.068,0v1.559l-9.669,8.7A1,1,0,0,0,18,48V61h2V48.445l9.669-8.7A1,1,0,0,0,30,39V36.815a11.492,11.492,0,0,0,2-.538v2.309l-7.707,7.707A1,1,0,0,0,24,47v5a1,1,0,0,0,.09.414l5,11,1.82-.828L26,51.783V47.414l7.707-7.707A1,1,0,0,0,34,39V35.305c.242-.152.477-.313.7-.485.089-.068.168-.137.253-.206A4.389,4.389,0,0,0,37,35.867v.8L34.2,40.4l1.6,1.2,3-4A1,1,0,0,0,39,37V35.838a2.682,2.682,0,0,0,1.256-.815L42,35.157v1.492l-3.781,4.726,1.562,1.25,4-5A1,1,0,0,0,44,37V35.311l2,.154v2.184l-3.781,4.726,1.562,1.25,4-5A1,1,0,0,0,48,38V35.619l.234.018A10.8,10.8,0,0,1,50,35.92v1.747L47.2,41.4a1,1,0,0,0-.2.6v3h2V42.333L51.8,38.6A1,1,0,0,0,52,38V36.657a8.138,8.138,0,0,1,1,.612v1.4L50.2,42.4a1,1,0,0,0-.2.6v2h2V43.333L54.8,39.6a1,1,0,0,0,.145-.278A7.077,7.077,0,0,1,56,43.012c0,.064,0,.767,0,1.32-2.008.874-8,3.879-8,8.668v6a1,1,0,0,0,.617.924A.987.987,0,0,0,49,60a1,1,0,0,0,.707-.293L52,57.414V60a1,1,0,0,0,1.447.9C53.878,60.679,64,55.509,64,46V41C64,30.519,58.787,16,49,16ZM62,41v4H59.236L58,44.382V42.988A9.679,9.679,0,0,0,57.936,42H58c0-.22.079-4.86,3.639-5.818A34.347,34.347,0,0,1,62,41ZM58.857,26.449c-3.446,1.879-4.934,6.232-5.515,8.683a10.832,10.832,0,0,0-2.132-.942A32.561,32.561,0,0,0,52,28c0-1.743,0-5.553,1.877-8.283A17.365,17.365,0,0,1,58.857,26.449ZM2.039,17.764l3.245,1.893A13.032,13.032,0,0,0,9.4,26.749l1.324-1.5a11.043,11.043,0,0,1-2.908-4.116L12,23.574V26a1,1,0,0,0,.041.283,10.885,10.885,0,0,0,.724,1.7A11,11,0,0,1,2.039,17.764Zm24.41,17.128h0a16.347,16.347,0,0,1-9.09-4.123,6.966,6.966,0,0,0,4.015-2.2,7.768,7.768,0,0,0,1.616-5.716l-1.981.28a5.793,5.793,0,0,1-1.157,4.138,5.711,5.711,0,0,1-4.113,1.7A12.01,12.01,0,0,1,14,25.842V23a1,1,0,0,0-.5-.864L5.726,17.6c8.521.9,23.37,2.036,27.274,2.329V23a1,1,0,0,0,.1.447L35,27.236V31.1c0,.817-.816,1.605-1.5,2.123A9.487,9.487,0,0,1,26.449,34.892ZM39,32.988A.919.919,0,0,1,38,34a2.276,2.276,0,0,1-1.668-.847A3.68,3.68,0,0,0,37,31.1V27a1,1,0,0,0-.1-.447L35,22.764V20h4Zm1.994.086C41,33.05,41,33.023,41,33V19.51a8.04,8.04,0,0,1,2-.817v4.152a6.987,6.987,0,0,0,1.359,4.142A7.474,7.474,0,0,1,46,31v2.459ZM48,33.613V31a9.383,9.383,0,0,0-2.024-5.19A5,5,0,0,1,45,22.845V18.271A27.009,27.009,0,0,1,49,18a7.6,7.6,0,0,1,3.157.7C50,21.951,50,26.24,50,28a30.821,30.821,0,0,1-.741,5.744c-.286-.041-.575-.079-.872-.1Zm7.111,2.819c.336-1.743,1.485-6.333,4.518-8.136a36.84,36.84,0,0,1,1.671,5.9,6.489,6.489,0,0,0-4.6,4.2A9.018,9.018,0,0,0,55.111,36.432ZM50,56.586V53c0-3.23,4.455-5.823,6.773-6.826C54.83,47.492,52,49.934,52,53v1.586Zm4,1.659V53c0-2.652,3.614-5.13,5.246-6h2.7C61.419,52.7,56.5,56.611,54,58.245Z"/><path d="M18,19a3,3,0,1,0,3,3A3,3,0,0,0,18,19Zm0,4a1,1,0,1,1,1-1A1,1,0,0,1,18,23Z"/><rect x="11" y="40" width="2" height="6"/><path d="M5,14H7v-.189A15.633,15.633,0,0,1,12.64,1.769L11.36.231A17.631,17.631,0,0,0,5,13.811Z"/></g></svg>