<?xml version="1.0" encoding="utf-8"?>
<!-- Generator: Adobe Illustrator 16.0.0, SVG Export Plug-In . SVG Version: 6.00 Build 0)  -->
<!DOCTYPE svg PUBLIC "-//W3C//DTD SVG 1.1//EN" "http://www.w3.org/Graphics/SVG/1.1/DTD/svg11.dtd">
<svg version="1.1" id="Layer_1" xmlns="http://www.w3.org/2000/svg" xmlns:xlink="http://www.w3.org/1999/xlink" x="0px" y="0px"
	 width="512px" height="512px" viewBox="0 0 512 512" enable-background="new 0 0 512 512" xml:space="preserve">
<g id="_x32_1._laundering_x2C__money_x2C__banknote_x2C__mafia_x2C__crime_x2C__bandit">
	<g>
		<g>
			<g>
				<path d="M411.891,417.822c-2.209,0-3.996-1.788-3.996-3.997V185.588c-7.814-1.6-13.998-7.768-15.592-15.59h-4.395
					c-2.209,0-3.998-1.788-3.998-3.997c0-2.21,1.789-3.997,3.998-3.997h7.994c2.209,0,3.998,1.787,3.998,3.997
					c0,6.612,5.379,11.991,11.99,11.991c2.209,0,3.998,1.788,3.998,3.997v231.836C415.889,416.034,414.1,417.822,411.891,417.822z"
					/>
			</g>
		</g>
		<g>
			<g>
				<path d="M307.965,417.822c-2.209,0-3.998-1.788-3.998-3.997V181.989c0-2.209,1.789-3.997,3.998-3.997
					c6.611,0,11.99-5.379,11.99-11.991c0-2.21,1.789-3.997,3.998-3.997h7.994c2.209,0,3.998,1.787,3.998,3.997
					c0,2.209-1.789,3.997-3.998,3.997h-4.395c-1.594,7.822-7.775,13.99-15.592,15.59v228.237
					C311.961,416.034,310.174,417.822,307.965,417.822z"/>
			</g>
		</g>
		<g>
			<g>
				<path d="M427.879,449.8c-2.209,0-3.996-1.788-3.996-3.997V150.011c0-2.209,1.787-3.997,3.996-3.997
					c2.211,0,3.998,1.788,3.998,3.997v295.792C431.877,448.012,430.09,449.8,427.879,449.8z"/>
			</g>
		</g>
		<g>
			<g>
				<path d="M331.939,154.009h-39.971c-2.211,0-3.998-1.788-3.998-3.998c0-2.209,1.787-3.997,3.998-3.997h39.971
					c2.209,0,3.998,1.788,3.998,3.997C335.938,152.221,334.148,154.009,331.939,154.009z"/>
			</g>
		</g>
		<g>
			<g>
				<path d="M427.879,154.009h-39.971c-2.209,0-3.998-1.788-3.998-3.998c0-2.209,1.789-3.997,3.998-3.997h39.971
					c2.211,0,3.998,1.788,3.998,3.997C431.877,152.221,430.09,154.009,427.879,154.009z"/>
			</g>
		</g>
		<g>
			<g>
				<path d="M291.977,449.8c-2.211,0-3.998-1.788-3.998-3.997V150.011c0-2.209,1.787-3.997,3.998-3.997
					c2.209,0,3.996,1.788,3.996,3.997v295.792C295.973,448.012,294.186,449.8,291.977,449.8z"/>
			</g>
		</g>
		<g>
			<g>
				<path d="M395.902,433.811h-71.949c-2.209,0-3.998-1.787-3.998-3.997c0-6.612-5.379-11.991-11.99-11.991
					c-2.209,0-3.998-1.788-3.998-3.997c0-2.21,1.789-3.997,3.998-3.997c9.656,0,17.729,6.878,19.588,15.988h64.75
					c1.859-9.11,9.932-15.988,19.588-15.988c2.209,0,3.998,1.787,3.998,3.997c0,2.209-1.789,3.997-3.998,3.997
					c-6.611,0-11.99,5.379-11.99,11.991C399.9,432.023,398.111,433.811,395.902,433.811z"/>
			</g>
		</g>
		<g>
			<g>
				<path d="M427.879,449.8H291.977c-2.211,0-3.998-1.788-3.998-3.997c0-2.21,1.787-3.998,3.998-3.998h135.902
					c2.211,0,3.998,1.788,3.998,3.998C431.877,448.012,430.09,449.8,427.879,449.8z"/>
			</g>
		</g>
		<g>
			<g>
				<path d="M359.928,225.958c-8.814,0-15.988-7.175-15.988-15.989c0-8.814,7.174-15.989,15.988-15.989s15.988,7.174,15.988,15.989
					C375.916,218.783,368.742,225.958,359.928,225.958z M359.928,201.975c-4.41,0-7.994,3.583-7.994,7.994s3.584,7.994,7.994,7.994
					s7.994-3.583,7.994-7.994S364.338,201.975,359.928,201.975z"/>
			</g>
		</g>
		<g>
			<g>
				<path d="M359.928,401.834c-8.814,0-15.988-7.176-15.988-15.989c0-8.814,7.174-15.989,15.988-15.989s15.988,7.175,15.988,15.989
					C375.916,394.658,368.742,401.834,359.928,401.834z M359.928,377.851c-4.41,0-7.994,3.583-7.994,7.994s3.584,7.994,7.994,7.994
					s7.994-3.583,7.994-7.994S364.338,377.851,359.928,377.851z"/>
			</g>
		</g>
		<g>
			<g>
				<path d="M359.857,333.811c-22.039,0-39.973-16.137-39.973-35.975c0-19.837,17.934-35.975,39.973-35.975
					s39.973,16.138,39.973,35.975C399.83,317.674,381.896,333.811,359.857,333.811z M359.857,269.856
					c-17.629,0-31.977,12.554-31.977,27.979c0,15.427,14.348,27.98,31.977,27.98s31.977-12.554,31.977-27.98
					C391.834,282.41,377.486,269.856,359.857,269.856z"/>
			</g>
		</g>
		<g>
			<g>
				<g>
					<path d="M352.84,313.896c-9.674,0-16.965-6.878-16.965-15.997c0-9.11,7.291-15.98,16.965-15.98
						c9.789,0,19.01,9.002,19.01,15.98C371.85,304.887,362.629,313.896,352.84,313.896z M352.84,289.912
						c-5.287,0-8.971,3.287-8.971,7.986c0,4.716,3.684,8.003,8.971,8.003c6.057,0,11.016-6.043,11.016-8.003
						C363.855,295.939,358.896,289.912,352.84,289.912z"/>
				</g>
			</g>
			<g>
				<g>
					<g>
						<path d="M379.914,327.886c-1.633,0-3.17-1.007-3.756-2.639c-2.326-6.426-5.449-14.115-6.697-16.138
							c-0.977-0.726-1.609-1.896-1.609-3.208c0-2.21,1.789-3.997,3.998-3.997c2.725,0,4.371,0,11.818,20.626
							c0.75,2.076-0.318,4.364-2.396,5.113C380.826,327.808,380.367,327.886,379.914,327.886z"/>
					</g>
				</g>
				<g>
					<g>
						<path d="M371.85,309.898h-8.924c-2.209,0-3.998-1.788-3.998-3.997c0-2.21,1.789-3.997,3.998-3.997h8.924
							c2.209,0,3.996,1.787,3.996,3.997C375.846,308.11,374.059,309.898,371.85,309.898z"/>
					</g>
				</g>
			</g>
			<g>
				<g>
					<g>
						<path d="M371.85,293.909c-2.209,0-3.998-1.787-3.998-3.997c0-1.296,0.617-2.443,1.57-3.178
							c1.24-2.076,4.379-10.078,6.721-16.769c0.734-2.085,3.014-3.201,5.09-2.452c2.078,0.727,3.186,3.006,2.451,5.091
							C376.252,293.909,374.598,293.909,371.85,293.909z"/>
					</g>
				</g>
				<g>
					<g>
						<path d="M371.85,293.909h-8.924c-2.209,0-3.998-1.787-3.998-3.997c0-2.209,1.789-3.997,3.998-3.997h8.924
							c2.209,0,3.996,1.788,3.996,3.997C375.846,292.122,374.059,293.909,371.85,293.909z"/>
					</g>
				</g>
			</g>
		</g>
	</g>
	<g>
		<g>
			<g>
				<g>
					<path d="M387.9,123.67c-1.826,0-3.482-1.265-3.896-3.13c-0.477-2.155,0.883-4.286,3.037-4.77
						c39.066-8.682,77.57-21.438,114.42-37.918c0.977-0.437,1.717-1.226,2.107-2.225c0.375-0.991,0.344-2.077-0.094-3.053
						c-0.891-2.021-3.24-2.904-5.285-2.021c-35.248,15.762-72.051,28.089-109.391,36.622c-2.164,0.5-4.303-0.851-4.787-3.005
						c-0.49-2.155,0.859-4.294,3.006-4.786c36.826-8.416,73.137-20.579,107.916-36.131c6.074-2.725,13.164,0.031,15.85,6.066
						c1.303,2.912,1.389,6.175,0.248,9.166c-1.146,2.99-3.387,5.363-6.307,6.667c-37.342,16.699-76.354,29.628-115.949,38.426
						C388.479,123.639,388.197,123.67,387.9,123.67z"/>
				</g>
			</g>
			<g>
				<g>
					<path d="M256.005,122.031c-25.631,0-51.347-1.631-76.454-4.84c-2.186-0.281-3.739-2.287-3.458-4.474
						c0.281-2.186,2.303-3.739,4.473-3.458c49.536,6.339,101.338,6.339,150.874,0c2.203-0.297,4.193,1.272,4.475,3.458
						c0.281,2.187-1.273,4.192-3.459,4.474C307.348,120.4,281.631,122.031,256.005,122.031z"/>
				</g>
			</g>
			<g>
				<g>
					<path d="M124.106,123.67c-0.281,0-0.578-0.031-0.866-0.093c-39.605-8.798-78.617-21.735-115.965-38.434
						C1.24,82.45-1.477,75.345,1.208,69.311c2.717-6.042,9.821-8.736,15.848-6.066c34.78,15.56,71.075,27.715,107.885,36.131
						c2.155,0.492,3.498,2.631,3.005,4.786c-0.492,2.147-2.639,3.49-4.785,3.005c-37.325-8.533-74.112-20.853-109.36-36.622
						c-2.007-0.898-4.388,0.008-5.293,2.029c-0.89,1.999,0.016,4.372,2.03,5.278c36.857,16.48,75.361,29.237,114.435,37.918
						c2.155,0.484,3.513,2.615,3.037,4.77C127.596,122.406,125.941,123.67,124.106,123.67z"/>
				</g>
			</g>
			<g>
				<g>
					<path d="M256.005,138.02c-25.654,0-51.378-1.585-76.438-4.716c-2.194-0.273-3.747-2.271-3.474-4.458s2.256-3.787,4.458-3.474
						c49.481,6.168,101.424,6.168,150.905,0c2.219-0.312,4.186,1.288,4.459,3.474s-1.281,4.185-3.475,4.458
						C307.379,136.435,281.654,138.02,256.005,138.02z"/>
				</g>
			</g>
		</g>
		<g>
			<g>
				<path d="M256.005,138.02c-2.21,0-3.998-1.788-3.998-3.997v-15.989c0-2.209,1.788-3.998,3.998-3.998
					c2.209,0,3.997,1.788,3.997,3.998v15.989C260.002,136.232,258.215,138.02,256.005,138.02z"/>
			</g>
		</g>
		<g>
			<g>
				<path d="M287.908,137.177c-2.115,0-3.881-1.655-3.998-3.787l-0.842-15.934c-0.109-2.202,1.576-4.083,3.785-4.2
					c2.086-0.266,4.084,1.577,4.209,3.778l0.844,15.934c0.109,2.202-1.578,4.083-3.787,4.2
					C288.049,137.177,287.971,137.177,287.908,137.177z"/>
			</g>
		</g>
		<g>
			<g>
				<path d="M319.715,134.632c-2.016,0-3.748-1.522-3.967-3.576l-1.67-15.801c-0.234-2.194,1.357-4.161,3.551-4.396
					c2.248-0.203,4.162,1.358,4.396,3.552l1.67,15.801c0.234,2.194-1.357,4.161-3.553,4.396
					C319.994,134.624,319.854,134.632,319.715,134.632z"/>
			</g>
		</g>
		<g>
			<g>
				<path d="M413.773,117.183c-1.766,0-3.373-1.171-3.857-2.951l-4.139-15.317c-0.576-2.131,0.688-4.333,2.811-4.902
					c2.109-0.555,4.326,0.679,4.904,2.811l4.137,15.317c0.578,2.131-0.688,4.333-2.811,4.902
					C414.467,117.136,414.115,117.183,413.773,117.183z"/>
			</g>
		</g>
		<g>
			<g>
				<path d="M444.385,108.182c-1.68,0-3.256-1.07-3.803-2.756l-4.957-15.208c-0.68-2.1,0.461-4.356,2.568-5.043
					c2.1-0.656,4.355,0.469,5.035,2.561l4.957,15.208c0.688,2.101-0.469,4.356-2.561,5.044
					C445.211,108.119,444.797,108.182,444.385,108.182z"/>
			</g>
		</g>
		<g>
			<g>
				<path d="M474.496,97.611c-1.609,0-3.123-0.976-3.732-2.561l-5.809-15.083c-0.797-2.062,0.234-4.372,2.295-5.168
					c2.062-0.773,4.373,0.234,5.168,2.295l5.809,15.083c0.797,2.061-0.234,4.372-2.295,5.168
					C475.463,97.525,474.979,97.611,474.496,97.611z"/>
			</g>
		</g>
		<g>
			<g>
				<path d="M37.534,97.58c-0.476,0-0.96-0.086-1.429-0.266c-2.061-0.788-3.091-3.099-2.303-5.16l5.77-15.052
					c0.796-2.061,3.107-3.076,5.16-2.303c2.069,0.789,3.1,3.1,2.304,5.161l-5.77,15.052C40.657,96.604,39.142,97.58,37.534,97.58z"
					/>
			</g>
		</g>
		<g>
			<g>
				<path d="M67.638,108.15c-0.406,0-0.82-0.062-1.226-0.195c-2.108-0.68-3.256-2.936-2.577-5.036l4.911-15.177
					c0.679-2.092,2.928-3.24,5.035-2.568c2.093,0.68,3.248,2.936,2.569,5.036l-4.911,15.177
					C70.894,107.073,69.324,108.15,67.638,108.15z"/>
			</g>
		</g>
		<g>
			<g>
				<path d="M98.265,117.16c-0.344,0-0.688-0.039-1.031-0.133c-2.139-0.57-3.404-2.756-2.842-4.895l4.067-15.294
					c0.57-2.132,2.764-3.428,4.895-2.834c2.131,0.569,3.404,2.756,2.834,4.895l-4.067,15.294
					C101.645,115.981,100.029,117.16,98.265,117.16z"/>
			</g>
		</g>
		<g>
			<g>
				<path d="M192.308,134.593c-0.141,0-0.281-0.008-0.422-0.023c-2.186-0.227-3.794-2.186-3.56-4.38l1.624-15.762
					c0.234-2.202,2.194-3.802,4.387-3.568c2.187,0.227,3.794,2.186,3.561,4.38l-1.624,15.762
					C196.063,133.062,194.33,134.593,192.308,134.593z"/>
			</g>
		</g>
		<g>
			<g>
				<path d="M224.316,133.164c-0.078,0-0.14,0-0.21-0.008c-2.21-0.109-3.896-1.991-3.787-4.192l0.406-7.971
					c0.109-2.209,1.913-4.122,4.192-3.786c2.209,0.109,3.896,1.991,3.787,4.192l-0.406,7.971
					C228.189,131.509,226.424,133.164,224.316,133.164z"/>
			</g>
		</g>
	</g>
	<g>
		<g>
			<g>
				<path d="M347.936,185.986c-2.209,0-3.996-1.788-3.996-3.997V70.083c0-2.209,1.787-3.997,3.996-3.997
					c2.211,0,3.998,1.788,3.998,3.997v111.905C351.934,184.198,350.146,185.986,347.936,185.986z"/>
			</g>
		</g>
		<g>
			<g>
				<path d="M371.92,185.986c-2.211,0-3.998-1.788-3.998-3.997V70.083c0-2.209,1.787-3.997,3.998-3.997
					c2.209,0,3.996,1.788,3.996,3.997v111.905C375.916,184.198,374.129,185.986,371.92,185.986z"/>
			</g>
		</g>
		<g>
			<g>
				<path d="M371.92,185.986h-23.984c-2.209,0-3.996-1.788-3.996-3.997c0-2.209,1.787-3.997,3.996-3.997h23.984
					c2.209,0,3.996,1.788,3.996,3.997C375.916,184.198,374.129,185.986,371.92,185.986z"/>
			</g>
		</g>
		<g>
			<g>
				<path d="M371.92,74.081h-23.984c-2.209,0-3.996-1.788-3.996-3.997s1.787-3.997,3.996-3.997h23.984
					c2.209,0,3.996,1.788,3.996,3.997S374.129,74.081,371.92,74.081z"/>
			</g>
		</g>
		<g>
			<g>
				<path d="M371.92,138.02h-23.984c-2.209,0-3.996-1.788-3.996-3.997c0-2.209,1.787-3.997,3.996-3.997h23.984
					c2.209,0,3.996,1.788,3.996,3.997C375.916,136.232,374.129,138.02,371.92,138.02z"/>
			</g>
		</g>
	</g>
	<g>
		<g>
			<g>
				<path d="M204.049,417.822c-2.209,0-3.997-1.788-3.997-3.997V185.588c-7.822-1.6-13.99-7.768-15.583-15.59h-4.403
					c-2.209,0-3.997-1.788-3.997-3.997c0-2.21,1.788-3.997,3.997-3.997h7.995c2.209,0,3.997,1.787,3.997,3.997
					c0,6.612,5.379,11.991,11.991,11.991c2.21,0,3.997,1.788,3.997,3.997v231.836C208.046,416.034,206.259,417.822,204.049,417.822z
					"/>
			</g>
		</g>
		<g>
			<g>
				<path d="M100.123,417.822c-2.209,0-3.997-1.788-3.997-3.997V181.989c0-2.209,1.788-3.997,3.997-3.997
					c6.613,0,11.992-5.379,11.992-11.991c0-2.21,1.787-3.997,3.997-3.997h7.994c2.209,0,3.997,1.787,3.997,3.997
					c0,2.209-1.788,3.997-3.997,3.997h-4.403c-1.593,7.822-7.76,13.99-15.583,15.59v228.237
					C104.12,416.034,102.333,417.822,100.123,417.822z"/>
			</g>
		</g>
		<g>
			<g>
				<path d="M220.039,449.8c-2.21,0-3.998-1.788-3.998-3.997V150.011c0-2.209,1.788-3.997,3.998-3.997
					c2.209,0,3.997,1.788,3.997,3.997v295.792C224.036,448.012,222.248,449.8,220.039,449.8z"/>
			</g>
		</g>
		<g>
			<g>
				<path d="M124.098,154.009H84.126c-2.209,0-3.997-1.788-3.997-3.998c0-2.209,1.788-3.997,3.997-3.997h39.972
					c2.209,0,3.997,1.788,3.997,3.997C128.095,152.221,126.308,154.009,124.098,154.009z"/>
			</g>
		</g>
		<g>
			<g>
				<path d="M220.039,154.009h-39.972c-2.209,0-3.997-1.788-3.997-3.998c0-2.209,1.788-3.997,3.997-3.997h39.972
					c2.209,0,3.997,1.788,3.997,3.997C224.036,152.221,222.248,154.009,220.039,154.009z"/>
			</g>
		</g>
		<g>
			<g>
				<path d="M84.134,449.8c-2.209,0-3.997-1.788-3.997-3.997V150.011c0-2.209,1.788-3.997,3.997-3.997
					c2.209,0,3.997,1.788,3.997,3.997v295.792C88.131,448.012,86.343,449.8,84.134,449.8z"/>
			</g>
		</g>
		<g>
			<g>
				<path d="M188.061,433.811h-71.949c-2.21,0-3.997-1.787-3.997-3.997c0-6.612-5.379-11.991-11.992-11.991
					c-2.209,0-3.997-1.788-3.997-3.997c0-2.21,1.788-3.997,3.997-3.997c9.649,0,17.722,6.878,19.58,15.988h64.767
					c1.858-9.11,9.93-15.988,19.58-15.988c2.21,0,3.997,1.787,3.997,3.997c0,2.209-1.787,3.997-3.997,3.997
					c-6.612,0-11.991,5.379-11.991,11.991C192.058,432.023,190.27,433.811,188.061,433.811z"/>
			</g>
		</g>
		<g>
			<g>
				<path d="M220.039,449.8H84.134c-2.209,0-3.997-1.788-3.997-3.997c0-2.21,1.788-3.998,3.997-3.998h135.904
					c2.209,0,3.997,1.788,3.997,3.998C224.036,448.012,222.248,449.8,220.039,449.8z"/>
			</g>
		</g>
		<g>
			<g>
				<path d="M152.086,225.958c-8.822,0-15.989-7.175-15.989-15.989c0-8.814,7.167-15.989,15.989-15.989
					c8.822,0,15.988,7.174,15.988,15.989C168.075,218.783,160.908,225.958,152.086,225.958z M152.086,201.975
					c-4.403,0-7.995,3.583-7.995,7.994s3.591,7.994,7.995,7.994c4.403,0,7.994-3.583,7.994-7.994S156.489,201.975,152.086,201.975z"
					/>
			</g>
		</g>
		<g>
			<g>
				<path d="M152.086,401.834c-8.822,0-15.989-7.176-15.989-15.989c0-8.814,7.167-15.989,15.989-15.989
					c8.822,0,15.988,7.175,15.988,15.989C168.075,394.658,160.908,401.834,152.086,401.834z M152.086,377.851
					c-4.403,0-7.995,3.583-7.995,7.994s3.591,7.994,7.995,7.994c4.403,0,7.994-3.583,7.994-7.994S156.489,377.851,152.086,377.851z"
					/>
			</g>
		</g>
		<g>
			<g>
				<path d="M152.016,333.811c-22.039,0-39.972-16.137-39.972-35.975c0-19.837,17.933-35.975,39.972-35.975
					s39.972,16.138,39.972,35.975C191.988,317.674,174.055,333.811,152.016,333.811z M152.016,269.856
					c-17.636,0-31.978,12.554-31.978,27.979c0,15.427,14.341,27.98,31.978,27.98c17.636,0,31.978-12.554,31.978-27.98
					C183.994,282.41,169.652,269.856,152.016,269.856z"/>
			</g>
		</g>
		<g>
			<g>
				<g>
					<path d="M144.998,313.896c-9.673,0-16.965-6.878-16.965-15.997c0-9.11,7.292-15.98,16.965-15.98
						c9.79,0,19.01,9.002,19.01,15.98C164.007,304.887,154.788,313.896,144.998,313.896z M144.998,289.912
						c-5.277,0-8.97,3.287-8.97,7.986c0,4.716,3.693,8.003,8.97,8.003c6.058,0,11.016-6.043,11.016-8.003
						C156.013,295.939,151.056,289.912,144.998,289.912z"/>
				</g>
			</g>
			<g>
				<g>
					<g>
						<path d="M172.072,327.886c-1.639,0-3.169-1.007-3.763-2.639c-2.326-6.426-5.441-14.115-6.683-16.138
							c-0.984-0.726-1.616-1.896-1.616-3.208c0-2.21,1.788-3.997,3.997-3.997c2.725,0,4.364,0,11.828,20.626
							c0.749,2.076-0.328,4.364-2.405,5.113C172.978,327.808,172.525,327.886,172.072,327.886z"/>
					</g>
				</g>
				<g>
					<g>
						<path d="M164.007,309.898h-8.923c-2.21,0-3.998-1.788-3.998-3.997c0-2.21,1.788-3.997,3.998-3.997h8.923
							c2.209,0,3.997,1.787,3.997,3.997C168.004,308.11,166.217,309.898,164.007,309.898z"/>
					</g>
				</g>
			</g>
			<g>
				<g>
					<g>
						<path d="M164.007,293.909c-2.209,0-3.997-1.787-3.997-3.997c0-1.296,0.617-2.443,1.569-3.178
							c1.249-2.076,4.388-10.078,6.714-16.769c0.734-2.085,3.014-3.201,5.098-2.452c2.084,0.727,3.177,3.006,2.459,5.091
							C168.403,293.909,166.748,293.909,164.007,293.909z"/>
					</g>
				</g>
				<g>
					<g>
						<path d="M164.007,293.909h-8.923c-2.21,0-3.998-1.787-3.998-3.997c0-2.209,1.788-3.997,3.998-3.997h8.923
							c2.209,0,3.997,1.788,3.997,3.997C168.004,292.122,166.217,293.909,164.007,293.909z"/>
					</g>
				</g>
			</g>
		</g>
	</g>
	<g>
		<g>
			<g>
				<path d="M140.095,185.986c-2.209,0-3.998-1.788-3.998-3.997V70.083c0-2.209,1.788-3.997,3.998-3.997s3.997,1.788,3.997,3.997
					v111.905C144.092,184.198,142.304,185.986,140.095,185.986z"/>
			</g>
		</g>
		<g>
			<g>
				<path d="M164.078,185.986c-2.209,0-3.997-1.788-3.997-3.997V70.083c0-2.209,1.788-3.997,3.997-3.997
					c2.209,0,3.997,1.788,3.997,3.997v111.905C168.075,184.198,166.287,185.986,164.078,185.986z"/>
			</g>
		</g>
		<g>
			<g>
				<path d="M164.078,185.986h-23.983c-2.209,0-3.998-1.788-3.998-3.997c0-2.209,1.788-3.997,3.998-3.997h23.983
					c2.209,0,3.997,1.788,3.997,3.997C168.075,184.198,166.287,185.986,164.078,185.986z"/>
			</g>
		</g>
		<g>
			<g>
				<path d="M164.078,74.081h-23.983c-2.209,0-3.998-1.788-3.998-3.997s1.788-3.997,3.998-3.997h23.983
					c2.209,0,3.997,1.788,3.997,3.997S166.287,74.081,164.078,74.081z"/>
			</g>
		</g>
		<g>
			<g>
				<path d="M164.078,138.02h-23.983c-2.209,0-3.998-1.788-3.998-3.997c0-2.209,1.788-3.997,3.998-3.997h23.983
					c2.209,0,3.997,1.788,3.997,3.997C168.075,136.232,166.287,138.02,164.078,138.02z"/>
			</g>
		</g>
	</g>
</g>
</svg>
