<?xml version="1.0" encoding="utf-8"?>
<!-- Generator: Adobe Illustrator 16.0.0, SVG Export Plug-In . SVG Version: 6.00 Build 0)  -->
<!DOCTYPE svg PUBLIC "-//W3C//DTD SVG 1.1//EN" "http://www.w3.org/Graphics/SVG/1.1/DTD/svg11.dtd">
<svg version="1.1" xmlns="http://www.w3.org/2000/svg" xmlns:xlink="http://www.w3.org/1999/xlink" x="0px" y="0px" width="64px"
	 height="64px" viewBox="0 0 64 64" enable-background="new 0 0 64 64" xml:space="preserve">
<g id="_x32_5_purse_x2C__money_x2C__coin_x2C__banknote_x2C__payment_x2C__shop_x2C__shopping">
</g>
<g id="_x32_4_pay_x2C__click_x2C__hand_x2C__coin_x2C__money_x2C__shop_x2C__payment">
</g>
<g id="_x32_3_card_x2C__discount_x2C__sale_x2C__shop_x2C__shopping_x2C__commerce_x2C__market">
</g>
<g id="_x32_2_safe_x2C__box_x2C__key_x2C__thing_x2C__shop_x2C__shopping_x2C__commerce">
	<g>
		<rect x="1.501" y="11" fill="#5D9CEC" width="57.998" height="45"/>
		<rect x="20.5" y="26" fill="#656D78" width="7" height="15"/>
		<polygon fill="#434A54" points="21.001,40.5 27,40.5 26.999,26.5 		"/>
		<polygon fill="#4A89DC" points="59.499,11 1.501,11 4.501,8 62.499,8 		"/>
		<polygon fill="#4A89DC" points="59.499,11 1.501,11 4.501,8 62.499,8 		"/>
		<polygon fill="#387BC6" points="62.499,53 62.499,8 59.499,11 59.499,56 		"/>
		<polygon fill="#5D9CEC" points="29.5,42 40.5,41 40.5,26 29.5,25 		"/>
		<rect x="22.5" y="31" fill="#A0D468" width="5" height="8"/>
		<polygon fill="#8CC152" points="27.5,29 24.5,29 22.5,31 27.5,31 		"/>
		<rect x="22.5" y="31" fill="#B8E57F" width="5" height="8"/>
		<polygon fill="#A0D468" points="27.5,29 24.5,29 22.5,31 27.5,31 		"/>
		<polygon fill="#A0D468" points="26.999,31 25.071,31 22.5,37.001 22.5,39 27,39 		"/>
		<polygon fill="#8CC152" points="25.071,31 26.999,31 26.999,29 25.928,29 		"/>
		<circle fill="#F5F7FA" cx="7.001" cy="48.5" r="1.5"/>
		<circle fill="#F5F7FA" cx="26" cy="48.5" r="1.5"/>
		<circle fill="#F5F7FA" cx="46" cy="48.5" r="1.5"/>
		<circle fill="#F5F7FA" cx="46" cy="33.5" r="1.5"/>
		<circle fill="#F5F7FA" cx="7.001" cy="33.5" r="1.5"/>
		<circle fill="#F5F7FA" cx="7.001" cy="18.5" r="1.5"/>
		<circle fill="#F5F7FA" cx="26" cy="18.5" r="1.5"/>
		<circle fill="#F5F7FA" cx="46" cy="18.5" r="1.5"/>
		<g>
			
				<rect x="24.586" y="20.586" transform="matrix(0.7071 -0.7071 0.7071 0.7071 -7.9411 24.8284)" fill="#87BCF4" width="2.828" height="2.828"/>
		</g>
		<g>
			
				<rect x="44.586" y="50.586" transform="matrix(0.7071 -0.7071 0.7071 0.7071 -23.2965 47.7574)" fill="#87BCF4" width="2.828" height="2.828"/>
		</g>
		<g>
			
				<rect x="5.614" y="50.586" transform="matrix(0.7071 -0.7071 0.7071 0.7071 -34.711 20.2002)" fill="#87BCF4" width="2.828" height="2.828"/>
		</g>
		<g>
			<path fill="#E6E9ED" d="M7.031,19c-0.276,0-0.505-0.224-0.505-0.5S6.745,18,7.021,18h0.011c0.275,0,0.5,0.224,0.5,0.5
				S7.307,19,7.031,19z"/>
		</g>
		<g>
			<path fill="#E6E9ED" d="M7.031,34c-0.276,0-0.505-0.224-0.505-0.5S6.745,33,7.021,33h0.011c0.275,0,0.5,0.224,0.5,0.5
				S7.307,34,7.031,34z"/>
		</g>
		<g>
			<path fill="#E6E9ED" d="M7.031,49c-0.276,0-0.505-0.224-0.505-0.5S6.745,48,7.021,48h0.011c0.275,0,0.5,0.224,0.5,0.5
				S7.307,49,7.031,49z"/>
		</g>
		<g>
			<path fill="#E6E9ED" d="M26.03,49c-0.276,0-0.505-0.224-0.505-0.5S25.744,48,26.02,48h0.011c0.275,0,0.5,0.224,0.5,0.5
				S26.306,49,26.03,49z"/>
		</g>
		<g>
			<path fill="#E6E9ED" d="M46.03,49c-0.276,0-0.505-0.224-0.505-0.5S45.744,48,46.02,48h0.011c0.275,0,0.5,0.224,0.5,0.5
				S46.306,49,46.03,49z"/>
		</g>
		<g>
			<path fill="#E6E9ED" d="M46.03,19c-0.276,0-0.505-0.224-0.505-0.5S45.744,18,46.02,18h0.011c0.275,0,0.5,0.224,0.5,0.5
				S46.306,19,46.03,19z"/>
		</g>
		<g>
			<path fill="#E6E9ED" d="M26.03,19c-0.276,0-0.505-0.224-0.505-0.5S25.744,18,26.02,18h0.011c0.275,0,0.5,0.224,0.5,0.5
				S26.306,19,26.03,19z"/>
		</g>
		<path fill="#4A89DC" d="M59.499,41.5v-1H41v-14h18.499v-1H41V11h-1v14.5H21V11h-1v14.5H1.501v1H20v14H1.501v1H20V56h1V41.5h19V56
			h1V41.5H59.499z M40,40.5H21v-14h19V40.5z"/>
		<g>
			<path fill="#E6E9ED" d="M46.047,34c-0.276,0-0.505-0.224-0.505-0.5s0.219-0.5,0.494-0.5h0.011c0.275,0,0.5,0.224,0.5,0.5
				S46.322,34,46.047,34z"/>
		</g>
		<rect x="26.999" y="25.5" fill="#E6E9ED" width="0.999" height="15.999"/>
		<polygon fill="#6FB0F7" points="27.998,41.499 39.999,40.499 39.999,26.5 27.998,25.5 		"/>
		<ellipse fill="#F5F7FA" cx="30.997" cy="33.5" rx="1" ry="1.5"/>
		<g>
			<path fill="#E6E9ED" d="M31.027,34c-0.276,0-0.505-0.224-0.505-0.5s0.219-0.5,0.494-0.5h0.011c0.275,0,0.5,0.224,0.5,0.5
				S31.303,34,31.027,34z"/>
		</g>
	</g>
</g>
<g id="_x32_1_cashbox_x2C__money_x2C__purchase_x2C__list_x2C__check_x2C__shop_x2C__shopping">
</g>
<g id="_x32_0_search_x2C__magnifier_x2C__basket_x2C__shop_x2C__shopping_x2C__commerce_x2C__market">
</g>
<g id="_x31_9_return_x2C__box_x2C__purchase_x2C__shipping_x2C__delivery_x2C__shop_x2C__shopping">
</g>
<g id="_x31_8_review_x2C__client_x2C__buyer_x2C__talk_x2C__shop_x2C__shopping_x2C__commerce">
</g>
<g id="_x31_7_manager_x2C__consultant_x2C__shop_x2C__shopping_x2C__commerce_x2C__market_x2C__badge">
</g>
<g id="_x31_6_check_x2C__list_x2C__cashbox_x2C__purchase_x2C__shop_x2C__shopping_x2C__commerce">
</g>
<g id="_x31_5_coupon_x2C__sale_x2C__discount_x2C__shop_x2C__shopping_x2C__commerce_x2C__market">
</g>
<g id="_x31_4_sale_x2C__discount_x2C__box_x2C__gift_x2C__shop_x2C__shopping_x2C__commerce">
</g>
<g id="_x31_3_map_x2C__pin_x2C__marker_x2C__location_x2C__shop_x2C__shopping_x2C__basket">
</g>
<g id="_x31_2_operator_x2C__call_x2C__center_x2C__shop_x2C__shopping_x2C__commerce_x2C__market">
</g>
<g id="_x31_1_courier_x2C__box_x2C__shipping_x2C__purchase_x2C__shop_x2C__shopping_x2C__commerce">
</g>
<g id="_x31_0_box_x2C__shipping_x2C__delivery_x2C__purchase_x2C__shop_x2C__shopping_x2C__commerce">
</g>
<g id="_x39__shipping_x2C__delivery_x2C__box_x2C__crane_x2C__shop_x2C__shopping_x2C__commerce">
</g>
<g id="_x38__computer_x2C__monitor_x2C__desktop_x2C__shop_x2C__shopping_x2C__commerce_x2C__market">
</g>
<g id="_x37__mobile_x2C__phone_x2C__app_x2C__shop_x2C__shopping_x2C__commerce_x2C__market">
</g>
<g id="_x36__food_x2C__market_x2C__purchase_x2C__shop_x2C__shopping_x2C__commerce_x2C__basket">
</g>
<g id="_x35__discount_x2C__sale_x2C__purchase_x2C__pocket_x2C__shop_x2C__shopping_x2C__commerce">
</g>
<g id="_x34__badge_x2C__discount_x2C__sale_x2C__shop_x2C__shopping_x2C__commerce_x2C__market">
</g>
<g id="_x33__food_x2C__pocket_x2C__purchase_x2C__shop_x2C__shopping_x2C__commerce_x2C__supermarket">
</g>
<g id="_x32__shop_x2C__shopping_x2C__commerce_x2C__supermarket_x2C__market_x2C__cart">
</g>
<g id="_x31__list_x2C__check_x2C__notebook_x2C__pen_x2C__shop_x2C__shopping_x2C__commerce">
</g>
</svg>
