<svg xmlns="http://www.w3.org/2000/svg" viewBox="0 0 64 64"><g id="_22-Foundation" data-name="22-Foundation"><path d="M10,14a3,3,0,0,1-6,0c0-1.66,2-5,3-5S10,12.34,10,14Z" style="fill:#f4c39a"/><path d="M6,12A6.954,6.954,0,0,1,7.05,9.01.442.442,0,0,0,7,9c-1,0-3,3.34-3,5a2.992,2.992,0,0,0,5.86.86A2.95,2.95,0,0,1,9,15,3,3,0,0,1,6,12Z" style="fill:#e3b58f"/><rect x="34" y="1" width="22" height="24" style="fill:#5c514d"/><rect x="40" y="34" width="10" height="18" style="fill:#fff0e6"/><rect x="14" y="34" width="10" height="18" style="fill:#fff0e6"/><polygon points="23 7 23 14 15 14 15 8 12 8 12 5 15 5 17 5 23 7" style="fill:#4a413e"/><polygon points="25 14 25 17 13 17 13 14 15 14 23 14 25 14" style="fill:#f4c39a"/><polygon points="26 17 26 25 12 25 12 17 13 17 25 17 26 17" style="fill:#4a413e"/><path d="M56,53v3a3,3,0,0,1-3,3H37a3,3,0,0,1-3-3V25H56Zm-6-1V34H40V52Z" style="fill:#e6a382"/><path d="M30,53v3a3,3,0,0,1-3,3H11a3,3,0,0,1-3-3V25H30Zm-6-1V34H14V52Z" style="fill:#f4c39a"/><path d="M27,59H11a3,3,0,0,1-3-3v5a2.006,2.006,0,0,0,2,2H28a2.006,2.006,0,0,0,2-2V56A3,3,0,0,1,27,59Z" style="fill:#f8eae9"/><path d="M53,59H37a3,3,0,0,1-3-3v5a2.006,2.006,0,0,0,2,2H54a2.006,2.006,0,0,0,2-2V56A3,3,0,0,1,53,59Z" style="fill:#f8eae9"/><path d="M12,17h5v3a3,3,0,0,0,3,3h6v2H12Z" style="fill:#2e2827"/><polygon points="15 8 17 8 20 9 20 12 23 12 23 14 15 14 15 8" style="fill:#2e2827"/><rect x="13" y="14" width="6" height="3" style="fill:#c29b7a"/><path d="M8,25h8v9H14V52h2a3,3,0,0,0,3,3H30v1a3,3,0,0,1-3,3H11a3,3,0,0,1-3-3Z" style="fill:#e3b58f"/><rect x="14" y="34" width="2" height="18" style="fill:#dbd1d0"/><path d="M27,32h0a1,1,0,0,1-1-1V30H24a1,1,0,0,1-1-1h0a1,1,0,0,1,1-1h3a1,1,0,0,1,1,1v2A1,1,0,0,1,27,32Z" style="fill:#fff0e6"/><rect x="26" y="33.5" width="2" height="3" rx="1" style="fill:#fff0e6"/><rect x="16" y="25" width="14" height="2" style="fill:#ffd5b3"/><path d="M27,59H11a3,3,0,0,1-3-3v5a2.006,2.006,0,0,0,2,2h6a2,2,0,0,1,2-2H28a2,2,0,0,0,2-2V56A3,3,0,0,1,27,59Z" style="fill:#dbd1d0"/><path d="M34,25h8v9H40V52h2a3,3,0,0,0,3,3H56v1a3,3,0,0,1-3,3H37a3,3,0,0,1-3-3Z" style="fill:#d49778"/><rect x="40" y="34" width="2" height="18" style="fill:#dbd1d0"/><path d="M53,32h0a1,1,0,0,1-1-1V30H50a1,1,0,0,1-1-1h0a1,1,0,0,1,1-1h3a1,1,0,0,1,1,1v2A1,1,0,0,1,53,32Z" style="fill:#fff0e6"/><rect x="52" y="33.5" width="2" height="3" rx="1" style="fill:#fff0e6"/><rect x="42" y="25" width="14" height="2" style="fill:#ffb590"/><path d="M53,59H37a3,3,0,0,1-3-3v5a2.006,2.006,0,0,0,2,2h6a2,2,0,0,1,2-2H54a2,2,0,0,0,2-2V56A3,3,0,0,1,53,59Z" style="fill:#dbd1d0"/><rect x="24" y="61" width="3" height="2" style="fill:#fff3f2"/><path d="M34,1h8V18a4,4,0,0,0,4,4H56v3H34Z" style="fill:#2e2827"/><path d="M11,14c0-1.788-2.092-6-4-6s-4,4.212-4,6a4,4,0,0,0,8,0ZM5,14a7.54,7.54,0,0,1,2-3.931A7.54,7.54,0,0,1,9,14a2,2,0,0,1-4,0Z"/><path d="M30,24H27V17a1,1,0,0,0-1-1V14a1,1,0,0,0-1-1H24V7a1,1,0,0,0-.684-.948l-6-2A1,1,0,0,0,17,4H12a1,1,0,0,0-1,1V8a1,1,0,0,0,1,1h2v4H13a1,1,0,0,0-1,1v2a1,1,0,0,0-1,1v7H8a1,1,0,0,0-1,1V61a3,3,0,0,0,3,3H28a3,3,0,0,0,3-3V25A1,1,0,0,0,30,24ZM15,7H13V6h3.838L22,7.721V13H16V8A1,1,0,0,0,15,7Zm-1,8H24v1H14Zm-1,3H25v6H13ZM28,62H10a1,1,0,0,1-1-1V59.444A3.959,3.959,0,0,0,11,60H27a3.959,3.959,0,0,0,2-.556V61A1,1,0,0,1,28,62Zm1-6a2,2,0,0,1-2,2H11a2,2,0,0,1-2-2V26H29V56Z"/><path d="M24,33H14a1,1,0,0,0-1,1V52a1,1,0,0,0,1,1H24a1,1,0,0,0,1-1V34A1,1,0,0,0,24,33ZM23,51H15V35h8Z"/><path d="M56,0H34a1,1,0,0,0-1,1V16h2V2H55V24H35V22H33V61a3,3,0,0,0,3,3H54a3,3,0,0,0,3-3V1A1,1,0,0,0,56,0ZM54,62H36a1,1,0,0,1-1-1V59.444A3.959,3.959,0,0,0,37,60H53a3.959,3.959,0,0,0,2-.556V61A1,1,0,0,1,54,62Zm1-6a2,2,0,0,1-2,2H37a2,2,0,0,1-2-2V26H55V56Z"/><rect x="33" y="18" width="2" height="2"/><rect x="51" y="4" width="2" height="2"/><path d="M50,33H40a1,1,0,0,0-1,1V52a1,1,0,0,0,1,1H50a1,1,0,0,0,1-1V34A1,1,0,0,0,50,33ZM49,51H41V35h8Z"/><rect x="51" y="8" width="2" height="2"/></g></svg>