<svg xmlns="http://www.w3.org/2000/svg" viewBox="0 0 64 64"><title>22-Lotus flower</title><g id="_22-Lotus_flower" data-name="22-Lotus flower"><rect x="1" y="41" width="62" height="22" style="fill:#b674f2"/><rect x="1" y="41" width="62" height="6" style="fill:#d2a0f5"/><rect x="1" y="57" width="62" height="6" style="fill:#8f4cd6"/><path d="M28.24,29.99A15.183,15.183,0,0,1,19,33c-9,0-15-7-15-7a22.84,22.84,0,0,1,9.83-6.22,17.929,17.929,0,0,0,3.8,5.67A15.12,15.12,0,0,0,28.24,29.99Z" style="fill:#ffcfe2"/><path d="M50.17,19.78A22.84,22.84,0,0,1,60,26s-6,7-15,7a15.183,15.183,0,0,1-9.24-3.01,15.12,15.12,0,0,0,10.61-4.54A17.929,17.929,0,0,0,50.17,19.78Z" style="fill:#ffcfe2"/><path d="M6.115,28A22.442,22.442,0,0,1,13.83,23.78a17.929,17.929,0,0,0,3.8,5.67,15.465,15.465,0,0,0,4.623,3.215A15.052,15.052,0,0,0,28.24,29.99a15.12,15.12,0,0,1-10.61-4.54,17.929,17.929,0,0,1-3.8-5.67A22.84,22.84,0,0,0,4,26,19.619,19.619,0,0,0,6.115,28Z" style="fill:#fac0dc"/><path d="M46.37,29.45a17.929,17.929,0,0,0,3.8-5.67A22.442,22.442,0,0,1,57.885,28,19.619,19.619,0,0,0,60,26a22.84,22.84,0,0,0-9.83-6.22,17.929,17.929,0,0,1-3.8,5.67,15.12,15.12,0,0,1-10.61,4.54,15.052,15.052,0,0,0,5.987,2.675A15.465,15.465,0,0,0,46.37,29.45Z" style="fill:#fac0dc"/><path d="M30.02,28.47a12.331,12.331,0,0,0,1.51,1.22,12,12,0,0,1-1.53.24,13.591,13.591,0,0,1-1.76.06,15.12,15.12,0,0,1-10.61-4.54,17.929,17.929,0,0,1-3.8-5.67,22.884,22.884,0,0,1-1.81-9.76,22.222,22.222,0,0,1,13.27,3.79A18.19,18.19,0,0,0,25,17a15.581,15.581,0,0,0,.34,3.31A15.29,15.29,0,0,0,30.02,28.47Z" style="fill:#ffa1c8"/><path d="M51.98,10.02a22.884,22.884,0,0,1-1.81,9.76,17.929,17.929,0,0,1-3.8,5.67,15.12,15.12,0,0,1-10.61,4.54A13.591,13.591,0,0,1,34,29.93a12,12,0,0,1-1.53-.24,12.331,12.331,0,0,0,1.51-1.22,15.29,15.29,0,0,0,4.68-8.16A15.581,15.581,0,0,0,39,17a18.19,18.19,0,0,0-.29-3.19A22.222,22.222,0,0,1,51.98,10.02Z" style="fill:#ffa1c8"/><path d="M25.085,18.674A16.741,16.741,0,0,1,25,17a18.19,18.19,0,0,1,.29-3.19,22.222,22.222,0,0,0-13.27-3.79A21.623,21.623,0,0,0,12.4,15,22.26,22.26,0,0,1,25.085,18.674Z" style="fill:#e090b7"/><path d="M25,22a15.581,15.581,0,0,0,.34,3.31,14.914,14.914,0,0,0,1.81,4.623c.38.033.745.051,1.09.057A13.591,13.591,0,0,0,30,29.93a12,12,0,0,0,1.53-.24,12.331,12.331,0,0,1-1.51-1.22,15.29,15.29,0,0,1-4.68-8.16c-.06-.274-.092-.573-.137-.862A17.714,17.714,0,0,0,25,22Z" style="fill:#e090b7"/><path d="M38.915,18.674A22.26,22.26,0,0,1,51.6,15a21.623,21.623,0,0,0,.376-4.984,22.222,22.222,0,0,0-13.27,3.79A18.19,18.19,0,0,1,39,17,16.741,16.741,0,0,1,38.915,18.674Z" style="fill:#e090b7"/><path d="M35.76,29.99c.345-.006.71-.024,1.09-.057a14.914,14.914,0,0,0,1.81-4.623A15.581,15.581,0,0,0,39,22a17.714,17.714,0,0,0-.2-2.552c-.045.289-.077.588-.137.862a15.29,15.29,0,0,1-4.68,8.16,12.331,12.331,0,0,1-1.51,1.22,12,12,0,0,0,1.53.24A13.591,13.591,0,0,0,35.76,29.99Z" style="fill:#e090b7"/><path d="M32,1s5.38,5.61,6.71,12.81A18.19,18.19,0,0,1,39,17a15.581,15.581,0,0,1-.34,3.31,15.29,15.29,0,0,1-4.68,8.16,12.331,12.331,0,0,1-1.51,1.22c-.3.21-.47.31-.47.31s-.17-.1-.47-.31a12.331,12.331,0,0,1-1.51-1.22,15.29,15.29,0,0,1-4.68-8.16A15.581,15.581,0,0,1,25,17a18.19,18.19,0,0,1,.29-3.19C26.62,6.61,32,1,32,1Z" style="fill:#ff73a5"/><path d="M25.373,20.436C26.816,13.419,32,8,32,8s5.184,5.419,6.627,12.436c.01-.043.024-.082.033-.126A15.581,15.581,0,0,0,39,17a18.19,18.19,0,0,0-.29-3.19C37.38,6.61,32,1,32,1s-5.38,5.61-6.71,12.81A18.19,18.19,0,0,0,25,17a15.581,15.581,0,0,0,.34,3.31C25.349,20.354,25.363,20.393,25.373,20.436Z" style="fill:#ff8fb8"/><path d="M34,30V57H30V29.93a12,12,0,0,0,1.53-.24c.3.21.47.31.47.31s.17-.1.47-.31a12,12,0,0,0,1.53.24Z" style="fill:#c4548c"/><path d="M52.97,45.06C58.66,45.37,63,47.02,63,49c0,2.21-5.37,4-12,4s-12-1.79-12-4c0-1.87,3.87-3.44,9.09-3.88L51,49Z" style="fill:#a7e340"/><path d="M39.884,50.5c1.426-1.17,4.465-2.068,8.206-2.383L51,52l1.97-3.94c4.168.227,7.6,1.175,9.147,2.443A2.023,2.023,0,0,0,63,49c0-1.98-4.34-3.63-10.03-3.94L51,49l-2.91-3.88C42.87,45.56,39,47.13,39,49A2.021,2.021,0,0,0,39.884,50.5Z" style="fill:#86c42b"/><path d="M23.4,57c1.02.59,1.6,1.27,1.6,2,0,2.21-5.37,4-12,4S1,61.21,1,59c0-1.87,3.87-3.44,9.09-3.88L13,59l1.97-3.94A20.58,20.58,0,0,1,23.4,57Z" style="fill:#a7e340"/><path d="M1.884,60.5c1.426-1.17,4.465-2.068,8.206-2.383L13,62l1.97-3.94c4.168.227,7.6,1.175,9.147,2.443A2.023,2.023,0,0,0,25,59c0-1.98-4.34-3.63-10.03-3.94L13,59l-2.91-3.88C4.87,55.56,1,57.13,1,59A2.021,2.021,0,0,0,1.884,60.5Z" style="fill:#86c42b"/><rect x="8" y="46" width="22" height="2" style="fill:#7a3eb5"/><rect x="18" y="50" width="12" height="2" style="fill:#7a3eb5"/><rect x="14" y="50" width="2" height="2" style="fill:#7a3eb5"/><rect x="53" y="58" width="10" height="2" style="fill:#7a3eb5"/><rect x="27" y="57" width="10" height="2" style="fill:#7a3eb5"/><rect x="39" y="57" width="2" height="2" style="fill:#7a3eb5"/><path d="M32,31a1,1,0,0,1-.506-.136s-.194-.112-.537-.352l.73-1.043-.193-.329c.016-.01.159-.1.4-.267l.1.149.1-.149c.243.17.386.257.4.268l-.2.329.73,1.042c-.343.24-.537.352-.537.352A1,1,0,0,1,32,31Z"/><path d="M37.727,13.991C36.756,8.736,33.471,4.3,32,2.521c-1.471,1.776-4.756,6.215-5.727,11.47l-1.966-.363C25.676,6.22,31.05.546,31.278.308a1.032,1.032,0,0,1,1.444,0c.228.238,5.6,5.912,6.971,13.32Z"/><path d="M45,34a16.1,16.1,0,0,1-9.838-3.208l1.2-1.6A14.144,14.144,0,0,0,45,32c6.842,0,11.91-4.324,13.615-6a22.057,22.057,0,0,0-8.732-5.263l.574-1.916a23.668,23.668,0,0,1,10.3,6.528,1,1,0,0,1,0,1.3C60.5,26.951,54.353,34,45,34Z"/><path d="M19,34C9.647,34,3.5,26.951,3.241,26.65a1,1,0,0,1,0-1.3,23.668,23.668,0,0,1,10.3-6.528l.574,1.916A21.985,21.985,0,0,0,5.385,26C7.1,27.672,12.18,32,19,32a14.144,14.144,0,0,0,8.643-2.812l1.2,1.6A16.1,16.1,0,0,1,19,34Z"/><path d="M35.344,31a14.312,14.312,0,0,1-1.445-.071,12.973,12.973,0,0,1-1.618-.252,1.017,1.017,0,0,1-.782-.794,1,1,0,0,1,.416-1.021A11.238,11.238,0,0,0,33.3,27.739a14.28,14.28,0,0,0,4.384-7.634A14.629,14.629,0,0,0,38,17a17.425,17.425,0,0,0-.274-3.016,1,1,0,0,1,.4-.987A23.046,23.046,0,0,1,52.057,9.022a1,1,0,0,1,.921.922,23.77,23.77,0,0,1-1.889,10.231,18.95,18.95,0,0,1-4.012,5.982,16.108,16.108,0,0,1-11.3,4.833C35.633,30.994,35.488,31,35.344,31Zm-.453-2.008c.276.009.557.011.839,0a14.149,14.149,0,0,0,9.933-4.247,16.993,16.993,0,0,0,3.588-5.356v0A22.34,22.34,0,0,0,51,11a21.4,21.4,0,0,0-11.2,3.272A19.041,19.041,0,0,1,40,17a16.653,16.653,0,0,1-.362,3.522A16.229,16.229,0,0,1,34.891,28.988Z"/><path d="M28.656,31c-.147,0-.3,0-.445-.006a16.1,16.1,0,0,1-11.288-4.833,18.933,18.933,0,0,1-4.012-5.983,23.743,23.743,0,0,1-1.889-10.23,1,1,0,0,1,.921-.922A23.033,23.033,0,0,1,25.874,13a1,1,0,0,1,.4.987A17.425,17.425,0,0,0,26,17a14.564,14.564,0,0,0,.317,3.1,14.277,14.277,0,0,0,4.377,7.635,11.32,11.32,0,0,0,1.391,1.126,1,1,0,0,1-.344,1.81l-.211-.978.189.983a13.037,13.037,0,0,1-1.628.253A14.249,14.249,0,0,1,28.656,31ZM13,11a22.424,22.424,0,0,0,1.748,8.382,16.985,16.985,0,0,0,3.589,5.36,14.143,14.143,0,0,0,9.921,4.247c.289.009.573.007.851,0a16.226,16.226,0,0,1-4.748-8.474A16.588,16.588,0,0,1,24,17a19.041,19.041,0,0,1,.2-2.727A21.4,21.4,0,0,0,13,11Z"/><rect x="29" y="30" width="2" height="27"/><rect x="33" y="30" width="2" height="27"/><rect x="23" y="56" width="20" height="2"/><rect x="45" y="56" width="2" height="2"/><path d="M51,54c-6.46,0-13-1.718-13-5,0-2.975,5.169-4.469,10.006-4.876a.969.969,0,0,1,.884.4l1.939,2.584,1.246-2.493a.958.958,0,0,1,.949-.55C58.088,44.337,64,45.8,64,49,64,52.282,57.46,54,51,54Zm-3.375-7.833C42.31,46.7,40,48.282,40,49c0,1.019,3.883,3,11,3s11-1.981,11-3c0-.846-2.817-2.486-8.433-2.9L51.9,49.447a1,1,0,0,1-.8.549.977.977,0,0,1-.89-.4Z"/><path d="M13,64C6.54,64,0,62.282,0,59c0-2.975,5.169-4.469,10.006-4.876a.97.97,0,0,1,.884.4l1.939,2.584,1.246-2.493a.987.987,0,0,1,.95-.55A21.446,21.446,0,0,1,23.9,56.133c1.739,1,2.1,2.114,2.1,2.867C26,62.282,19.46,64,13,64ZM9.625,56.167C4.31,56.7,2,58.282,2,59c0,1.019,3.883,3,11,3s11-1.981,11-3c0-.24-.289-.665-1.1-1.135A18.932,18.932,0,0,0,15.567,56.1L13.9,59.447a1,1,0,0,1-.8.549.988.988,0,0,1-.89-.4Z"/><rect x="18" y="40" width="12" height="2"/><rect x="14" y="40" width="2" height="2"/><rect x="1" y="40" width="11" height="2"/><rect x="34" y="40" width="29" height="2"/><rect x="8" y="46" width="22" height="2"/><rect x="18" y="50" width="12" height="2"/><rect x="14" y="50" width="2" height="2"/><rect x="61" y="62" width="2" height="2"/><rect x="32" y="62" width="27" height="2"/><rect x="53" y="58" width="10" height="2"/></g></svg>