<svg xmlns="http://www.w3.org/2000/svg" viewBox="0 0 64 64"><g id="_22-Shrimp" data-name="22-Shrimp"><path d="M21,28v7.5A7.5,7.5,0,0,0,28.5,43H31a.994.994,0,0,1,1,.99V45a1,1,0,0,1-1,1H29c-.17.01-.33,0-.5,0A10.516,10.516,0,0,1,18,35.5V20s5,7,8,9Z" style="fill:#838182"/><polygon points="39 9.02 39 11 36 11 36 9.35 36 6 38 6 39 6 39 9.02" style="fill:#838182"/><path d="M32,49s-4,3-4,7v2l-4,4V56c0-4.52,4.9-7.4,5.84-7.92A2.565,2.565,0,0,0,32,49Z" style="fill:#475163"/><path d="M32,49h4c0,9-8,14-8,14V56C28,52,32,49,32,49Z" style="fill:#5b6880"/><path d="M39,11V9.02c.32-.01.66-.02,1-.02h5a8.613,8.613,0,0,1-8,5c-5.06,0-6.57-.71-6.91-.93.3-.74,1.54-2.88,5.91-3.72V11Z" style="fill:#f5f4ef"/><path d="M46,27.4a16.539,16.539,0,0,1-6.08,2.43,8.581,8.581,0,0,1-1.75.17H38s-4.01,0-6.35-1.76A3.824,3.824,0,0,1,30,25.05C30,21.34,32,21,32,21l.07-.08a4.316,4.316,0,0,0,2.47.98c3.54.24,9.94.26,11.89-2.55C47.2,20.08,48,21.44,48,24A4.269,4.269,0,0,1,46,27.4Z" style="fill:#dddcd7"/><path d="M42,40.43A6.35,6.35,0,0,1,38,42H36s-3.47,0-5.52-1.4A3.017,3.017,0,0,1,29,38c0-3.38,2-3.88,2-3.88l.01-.01C33.16,36,38,36,38,36s4.81,0,6.97-2.33A9.718,9.718,0,0,1,42,40.43Z" style="fill:#dddcd7"/><path d="M30.48,40.6C32.53,42,36,42,36,42h2a6.35,6.35,0,0,0,4-1.57V42.2a5.808,5.808,0,0,1-1.49,3.96A10.111,10.111,0,0,1,36,49H32a2.565,2.565,0,0,1-2.16-.92A4.018,4.018,0,0,1,29.09,46H31a1,1,0,0,0,1-1V43.99A.994.994,0,0,0,31,43H29.15A7.351,7.351,0,0,1,30.48,40.6Z" style="fill:#edece7"/><path d="M45,9s2,2.11,2,8.44a3.318,3.318,0,0,1-.57,1.91c-1.95,2.81-8.35,2.79-11.89,2.55a4.316,4.316,0,0,1-2.47-.98,4.138,4.138,0,0,1-1.3-1.91A18.317,18.317,0,0,1,30,13.33a1.42,1.42,0,0,1,.09-.26c.34.22,1.85.93,6.91.93A8.613,8.613,0,0,0,45,9Z" style="fill:#edece7"/><path d="M46,27.4V31a3.791,3.791,0,0,1-1.03,2.67C42.81,36,38,36,38,36s-4.84,0-6.99-1.89A2.716,2.716,0,0,1,30,32a4.541,4.541,0,0,1,1.65-3.76C33.99,30,38,30,38,30h.17a8.581,8.581,0,0,0,1.75-.17A16.539,16.539,0,0,0,46,27.4Z" style="fill:#edece7"/><path d="M29.84,48.08A15.513,15.513,0,0,0,27.8,49.45L30,50s-3,1-3,4-3,4-3,2v6l4-4V56c0-4,4-7,4-7A2.565,2.565,0,0,1,29.84,48.08Z" style="fill:#313845"/><path d="M30,55a9.048,9.048,0,0,1,2.325-4.483A1.943,1.943,0,0,1,33.668,50h2.277c.023-.331.055-.657.055-1H32s-4,3-4,7v7a19.883,19.883,0,0,0,5.044-5H33S29,59,30,55Z" style="fill:#475163"/><path d="M38,36s-4.84,0-6.99-1.89l-.01.01s-2,.5-2,3.88a3.017,3.017,0,0,0,1.48,2.6,7.948,7.948,0,0,0,2.765,1.082,2.413,2.413,0,0,1,1.28-4.522c5.636.236,8.58-.52,10.069-1.2a12.735,12.735,0,0,0,.376-2.289C42.81,36,38,36,38,36Z" style="fill:#c9c6c8"/><path d="M34,27a3,3,0,0,1,3-3c6.74,0,9.347-1.876,10.358-3.33a4.39,4.39,0,0,0-.928-1.32c-1.95,2.81-8.35,2.79-11.89,2.55a4.316,4.316,0,0,1-2.47-.98L32,21s-2,.34-2,4.05a3.824,3.824,0,0,0,1.65,3.19,9.981,9.981,0,0,0,4.412,1.6A2.988,2.988,0,0,1,34,27Z" style="fill:#c9c6c8"/><path d="M42,40.43A6.35,6.35,0,0,1,38,42H36s-3.47,0-5.52-1.4A7.351,7.351,0,0,0,29.15,43H31a.992.992,0,0,1,1,.97c8,.03,9-.97,10-2.515Z" style="fill:#c9c6c8"/><path d="M31,46H29.09a4.018,4.018,0,0,0,.75,2.08A2.565,2.565,0,0,0,32,49h4a10,10,0,0,0,3.582-1.955C31.98,47.92,31,46,31,46Z" style="fill:#c9c6c8"/><path d="M39.92,29.83a8.581,8.581,0,0,1-1.75.17H38s-4.01,0-6.35-1.76A4.541,4.541,0,0,0,30,32a2.716,2.716,0,0,0,1.01,2.11,8.944,8.944,0,0,0,4.327,1.657,2.33,2.33,0,0,1,1.228-4.426c5.629.543,8.234-.7,9.435-1.826V27.4A16.539,16.539,0,0,1,39.92,29.83Z" style="fill:#c9c6c8"/><path d="M34,18a4,4,0,0,1,4-4v-.052c-.321.032-.652.052-1,.052-5.06,0-6.57-.71-6.91-.93a1.42,1.42,0,0,0-.09.26,18.317,18.317,0,0,0,.77,5.68,4.138,4.138,0,0,0,1.3,1.91,4.316,4.316,0,0,0,2.47.98c.963.065,2.14.112,3.38.092A4,4,0,0,1,34,18Z" style="fill:#dddcd7"/><path d="M39,11V9H38a1,1,0,0,1-1-1V6H36v5Z" style="fill:#5e5d5e"/><path d="M20,36a8,8,0,0,0,8,8h2a1,1,0,0,0,1-1H28.5A7.5,7.5,0,0,1,21,35.5V28l5,1-6-4Z" style="fill:#5e5d5e"/><path d="M41.432,29.457a17.246,17.246,0,0,0,3.217-1.229A42.165,42.165,0,0,0,45,23.005a1.488,1.488,0,0,0-.059-.4,12.542,12.542,0,0,1-2.952.95A40.028,40.028,0,0,1,41.432,29.457Z" style="fill:#edece7"/><path d="M40.487,38.409A1.466,1.466,0,0,0,41,38.5a1.5,1.5,0,0,0,1.409-.987c.111-.3.209-.616.313-.924a20.672,20.672,0,0,1-3.218.5A1.5,1.5,0,0,0,40.487,38.409Z" style="fill:#edece7"/><path d="M39.8,35.853a11.9,11.9,0,0,0,3.458-.976A43.528,43.528,0,0,0,44.28,30.6a10.961,10.961,0,0,1-3.222.778A39.743,39.743,0,0,1,39.8,35.853Z" style="fill:#fffaf7"/><path d="M39.591,36.487a1.492,1.492,0,0,0-.087.6,20.672,20.672,0,0,0,3.218-.5q.286-.849.538-1.712a11.9,11.9,0,0,1-3.458.976C39.729,36.066,39.669,36.273,39.591,36.487Z" style="fill:#dddcd7"/><path d="M43.505,21.5H43.5A1.5,1.5,0,0,0,42,23c0,.176-.008.376-.011.563a12.542,12.542,0,0,0,2.952-.95A1.494,1.494,0,0,0,43.505,21.5Z" style="fill:#dddcd7"/><path d="M41.058,31.378A10.961,10.961,0,0,0,44.28,30.6q.217-1.182.369-2.372a17.246,17.246,0,0,1-3.217,1.229Q41.274,30.39,41.058,31.378Z" style="fill:#dddcd7"/><path d="M41.808,19.162a1.5,1.5,0,0,0,2.982-.324c-.044-.405-.09-.757-.133-1.05a1.5,1.5,0,0,0-2.969.426C41.726,18.479,41.768,18.8,41.808,19.162Z" style="fill:#fffaf7"/><path d="M47.638,19.222A4.414,4.414,0,0,0,48,17.441C48,11.356,46.233,8.9,45.8,8.4A1,1,0,0,0,45,8H40V6a1,1,0,0,0-1-1V1H37V5H36a1,1,0,0,0-1,1V8.55c-5.15,1.284-5.942,4.419-5.975,4.558a1.07,1.07,0,0,0-.025.225,19.607,19.607,0,0,0,.821,5.981,5.076,5.076,0,0,0,.7,1.4c-.741.66-1.52,1.921-1.52,4.333a4.678,4.678,0,0,0,1.2,3.226A5.818,5.818,0,0,0,29,32a3.647,3.647,0,0,0,.523,1.872A5.234,5.234,0,0,0,28,38a3.837,3.837,0,0,0,1.126,2.766A8.29,8.29,0,0,0,28.455,42,6.507,6.507,0,0,1,22,35.5V29.22l3.8.76a.99.99,0,0,0,1.12-.6,1,1,0,0,0-.369-1.215c-2.813-1.875-7.693-8.681-7.742-8.749A1,1,0,0,0,17,20v8h2V23c1.012,1.3,2.327,2.916,3.638,4.308L21.2,27.02A1,1,0,0,0,20,28v7.5A8.51,8.51,0,0,0,28.5,44l.146,0A3.306,3.306,0,0,0,29,44l2-.006V45H28.953c-.089.005-.179,0-.269,0L28.5,45A9.511,9.511,0,0,1,19,35.5V34H17v1.5A11.508,11.508,0,0,0,28.257,46.988a5.369,5.369,0,0,0,.239.732C26.64,48.907,23,51.77,23,56v6a1,1,0,0,0,.617.924A.987.987,0,0,0,24,63a1,1,0,0,0,.707-.293L27,60.414V63a1,1,0,0,0,1.53.848c.337-.21,8.02-5.142,8.431-14.114a11.367,11.367,0,0,0,4.29-2.9A6.82,6.82,0,0,0,43,42.2v-1.35a10.764,10.764,0,0,0,2.936-6.771A4.743,4.743,0,0,0,47,31V27.873A4.991,4.991,0,0,0,49,24,7.578,7.578,0,0,0,47.638,19.222ZM37,7h1v3H37Zm-2,3.617V11a1,1,0,0,0,1,1h3a1,1,0,0,0,1-1V10h3.244A7.557,7.557,0,0,1,37,13a24.439,24.439,0,0,1-5.407-.443A7.006,7.006,0,0,1,35,10.617ZM30.71,42c.017-.027.033-.057.051-.085.057.028.113.058.172.085ZM27,56v1.586l-2,2V56c0-3.336,3.22-5.741,4.707-6.674a3.075,3.075,0,0,0,.275.174A9.85,9.85,0,0,0,27,56Zm2,4.976V56c0-2.916,2.554-5.317,3.357-6h2.6C34.567,55.4,31.076,59.184,29,60.976ZM39.776,45.485A9.341,9.341,0,0,1,35.859,48H32a1.565,1.565,0,0,1-1.422-.591,2.073,2.073,0,0,1-.22-.409H31a1.8,1.8,0,0,0,1.414-.582A2,2,0,0,0,33,45v-1a1.974,1.974,0,0,0-.7-1.5A13.994,13.994,0,0,0,36,43H37.31c.373,0,.689,0,.727,0a7.377,7.377,0,0,0,2.957-.728A4.816,4.816,0,0,1,39.776,45.485ZM45,31c0,3.939-6.931,4-7,4a18.375,18.375,0,0,1-2.825-.272L34.824,36.7A20.09,20.09,0,0,0,38,37a15.07,15.07,0,0,0,5.609-1.173C42.774,38.935,40.7,40.9,37.976,41,37.824,41,36,41,36,41c-.06,0-6-.082-6-3a3.259,3.259,0,0,1,.928-2.7,7.78,7.78,0,0,0,1.743.848l.662-1.886C31,33.441,31,32.356,31,32a3.885,3.885,0,0,1,.766-2.475A14.422,14.422,0,0,0,38,31h.167a9.546,9.546,0,0,0,1.958-.194A20.655,20.655,0,0,0,45,29.164Zm-5.285-2.151A7.612,7.612,0,0,1,38.167,29H38c-.07,0-7-.045-7-3.95,0-2.05.656-2.746.984-2.968a5.353,5.353,0,0,0,2.488.815c.837.058,1.828.1,2.885.1a26.321,26.321,0,0,0,4.83-.4l-.376-1.965a29.74,29.74,0,0,1-7.2.264,3.2,3.2,0,0,1-2.88-2.192,16.448,16.448,0,0,1-.693-4.232A25.762,25.762,0,0,0,37,15a9.472,9.472,0,0,0,7.985-4A17.094,17.094,0,0,1,46,17.441c0,.769-.244,1.883-2.357,2.692L44.357,22a7.022,7.022,0,0,0,1.985-1.125A6.5,6.5,0,0,1,47,24C47,27.08,41.424,28.49,39.715,28.849Z"/><rect x="17" y="30" width="2" height="2"/></g></svg>