<svg xmlns="http://www.w3.org/2000/svg" viewBox="0 0 64 64"><g id="_22-service" data-name="22-service"><rect x="13" y="9" width="38" height="46" style="fill:#80dbff"/><path d="M51,55v4a4,4,0,0,1-4,4H17a4,4,0,0,1-4-4V55Z" style="fill:#f0f0f0"/><path d="M51,5V9H13V5a4,4,0,0,1,4-4H47A4,4,0,0,1,51,5Z" style="fill:#f0f0f0"/><rect x="13" y="9" width="4" height="46" style="fill:#19cffc"/><rect x="47" y="9" width="4" height="46" style="fill:#19cffc"/><path d="M17,59V55H13v4a4,4,0,0,0,4,4h4A4,4,0,0,1,17,59Z" style="fill:#d9d9d9"/><path d="M21,1H17a4,4,0,0,0-4,4V9h4V5A4,4,0,0,1,21,1Z" style="fill:#d9d9d9"/><path d="M47,59V55h4v4a4,4,0,0,1-4,4H43A4,4,0,0,0,47,59Z" style="fill:#d9d9d9"/><path d="M43,1h4a4,4,0,0,1,4,4V9H47V5A4,4,0,0,0,43,1Z" style="fill:#d9d9d9"/><rect x="27" y="4" width="10" height="2" style="fill:#6e6e6e"/><rect x="27" y="58" width="10" height="2" style="fill:#6e6e6e"/><circle cx="27" cy="26" r="2" style="fill:#ffdfb0"/><circle cx="18" cy="26" r="2" style="fill:#ffdfb0"/><circle cx="9" cy="26" r="2" style="fill:#ffdfb0"/><path d="M35,33l.02.03A16.811,16.811,0,0,0,30.51,39H23v6l-6-6H3a2.006,2.006,0,0,1-2-2V15a2.006,2.006,0,0,1,2-2H33a2.006,2.006,0,0,1,2,2Zm-6-7a2,2,0,1,0-2,2A2.006,2.006,0,0,0,29,26Zm-9,0a2,2,0,1,0-2,2A2.006,2.006,0,0,0,20,26Zm-9,0a2,2,0,1,0-2,2A2.006,2.006,0,0,0,11,26Z" style="fill:#ffac5a"/><polygon points="20 39 17 39 23 45 23 42 20 39" style="fill:#ff873c"/><path d="M4,37V15a2.006,2.006,0,0,1,2-2H3a2.006,2.006,0,0,0-2,2V37a2.006,2.006,0,0,0,2,2H6A2.006,2.006,0,0,1,4,37Z" style="fill:#ff873c"/><rect x="27" y="4" width="10" height="2" style="fill:#6e6e6e"/><rect x="27" y="58" width="10" height="2" style="fill:#6e6e6e"/><path d="M21,52H17a1,1,0,0,1-1-1V47h2v3h3Z" style="fill:#1ea1e3"/><rect x="23" y="50" width="2" height="2" style="fill:#1ea1e3"/><path d="M48,17H46V14H43V12h4a1,1,0,0,1,1,1Z" style="fill:#1ea1e3"/><rect x="39" y="12" width="2" height="2" style="fill:#1ea1e3"/><circle cx="46" cy="46" r="17" style="fill:#cbf7f7"/><path d="M33,46A16.994,16.994,0,0,1,48,29.128a17,17,0,1,0,0,33.744A16.994,16.994,0,0,1,33,46Z" style="fill:#96ebe6"/><path d="M49.175,28.279l-.35,1.969a16.06,16.06,0,1,1-5.478-.009l-2.054,2.054,1.414,1.414,4-4a1,1,0,0,0,0-1.414l-4-4-1.414,1.414,2.45,2.45a17.939,17.939,0,1,0,5.432.122Z" style="fill:#00c8c8"/><path d="M42,39H38a3,3,0,0,0-3,3h2a1,1,0,0,1,1-1h4a1,1,0,0,1,1,1v2a1,1,0,0,1-1,1H38a3,3,0,0,0-3,3v2a3,3,0,0,0,3,3h7V51H38a1,1,0,0,1-1-1V48a1,1,0,0,1,1-1h4a3,3,0,0,0,3-3V42A3,3,0,0,0,42,39Z" style="fill:#00a0aa"/><path d="M56,47H54V39H52v8H49v-.86l1.961-6.866-1.922-.548-2,7A.97.97,0,0,0,47,46v2a1,1,0,0,0,1,1h4v4h2V49h2Z" style="fill:#00a0aa"/><rect x="27" y="4" width="10" height="2"/><path d="M17,52h4V50H18V47H16v4A1,1,0,0,0,17,52Z"/><rect x="23" y="50" width="2" height="2"/><path d="M47,12H43v2h3v3h2V13A1,1,0,0,0,47,12Z"/><rect x="39" y="12" width="2" height="2"/><path d="M49.176,28.279l-.352,1.969a16.06,16.06,0,1,1-5.477-.009l-2.054,2.054,1.414,1.414,4-4a1,1,0,0,0,0-1.414l-4-4-1.414,1.414,2.45,2.45A17.89,17.89,0,0,0,36,31.044V15a3,3,0,0,0-3-3H14V10H50V27h2V5a5.006,5.006,0,0,0-5-5H17a5.006,5.006,0,0,0-5,5v7H3a3,3,0,0,0-3,3V37a3,3,0,0,0,3,3h9V59a5.006,5.006,0,0,0,5,5H46a18,18,0,0,0,3.176-35.721ZM17,2H47a3,3,0,0,1,3,3V8H14V5A3,3,0,0,1,17,2ZM2,37V15a1,1,0,0,1,1-1H33a1,1,0,0,1,1,1V32.622A18.065,18.065,0,0,0,29.9,38H23a1,1,0,0,0-1,1v3.586l-4.293-4.293A1,1,0,0,0,17,38H3A1,1,0,0,1,2,37Zm14.586,3,5.707,5.707A1,1,0,0,0,23,46a.987.987,0,0,0,.383-.076A1,1,0,0,0,24,45V40h5.05a17.739,17.739,0,0,0,.85,14H14V40ZM17,62a3,3,0,0,1-3-3V56H31.044a18.156,18.156,0,0,0,1.578,2H27v2h7.712a18.085,18.085,0,0,0,3.08,2Z"/><path d="M38,47h4a3,3,0,0,0,3-3V42a3,3,0,0,0-3-3H38a3,3,0,0,0-3,3h2a1,1,0,0,1,1-1h4a1,1,0,0,1,1,1v2a1,1,0,0,1-1,1H38a3,3,0,0,0-3,3v2a3,3,0,0,0,3,3h7V51H38a1,1,0,0,1-1-1V48A1,1,0,0,1,38,47Z"/><path d="M50.962,39.274l-1.924-.548-2,7A1.007,1.007,0,0,0,47,46v2a1,1,0,0,0,1,1h4v4h2V49h2V47H54V39H52v8H49v-.86Z"/><path d="M9,23a3,3,0,1,0,3,3A3,3,0,0,0,9,23Zm0,4a1,1,0,1,1,1-1A1,1,0,0,1,9,27Z"/><path d="M21,26a3,3,0,1,0-3,3A3,3,0,0,0,21,26Zm-4,0a1,1,0,1,1,1,1A1,1,0,0,1,17,26Z"/><path d="M27,29a3,3,0,1,0-3-3A3,3,0,0,0,27,29Zm0-4a1,1,0,1,1-1,1A1,1,0,0,1,27,25Z"/></g></svg>