<svg xmlns="http://www.w3.org/2000/svg" viewBox="0 0 64 64"><title>22-Web Programming</title><g id="_22-Web_Programming" data-name="22-Web Programming"><g id="_Group_" data-name="&lt;Group&gt;"><path d="M58,60H56a1,1,0,0,1-.707-.293l-2-2A1,1,0,0,1,53,57V9a1,1,0,0,1,.684-.949l3-1a1,1,0,0,1,.632,0l3,1A1,1,0,0,1,61,9V57a1,1,0,0,1-.293.707l-2,2A1,1,0,0,1,58,60Zm-1.586-2h1.172L59,56.586V9.721l-2-.667-2,.667V56.586Z"/><rect x="54" y="53" width="6" height="2"/><path d="M59.063,9.351,57,3.848l-2.063,5.5-1.874-.7,3-8a1,1,0,0,1,1.874,0l3,8Z"/></g><path d="M49,10H41a1,1,0,0,1-1-1V1a1,1,0,0,1,1-1h8a1,1,0,0,1,1,1V9A1,1,0,0,1,49,10ZM42,8h6V2H42Z"/><rect x="39.343" y="4" width="11.314" height="2" transform="translate(9.645 33.284) rotate(-45)"/><path d="M49,23H41a1,1,0,0,1-1-1V14a1,1,0,0,1,1-1h8a1,1,0,0,1,1,1v8A1,1,0,0,1,49,23Zm-7-2h6V15H42Z"/><rect x="39.343" y="17" width="11.314" height="2" transform="translate(0.452 37.092) rotate(-45)"/><g id="_Group_2" data-name="&lt;Group&gt;"><path d="M18,38H6a3,3,0,0,1-3-3V3A3,3,0,0,1,6,0H34a3,3,0,0,1,3,3V27H35V3a1,1,0,0,0-1-1H6A1,1,0,0,0,5,3V35a1,1,0,0,0,1,1H18Z"/><rect x="9" y="1" width="2" height="36"/><rect x="10" y="6" width="26" height="2"/><path d="M48,64H20a3,3,0,0,1-3-3V29a3,3,0,0,1,3-3H48a3,3,0,0,1,3,3V61A3,3,0,0,1,48,64ZM20,28a1,1,0,0,0-1,1V61a1,1,0,0,0,1,1H48a1,1,0,0,0,1-1V29a1,1,0,0,0-1-1Z"/><rect x="26" y="27" width="2" height="36"/><rect x="27" y="54" width="23" height="2"/><path d="M49.293,50.707,43,44.414l-2.293,2.293a1,1,0,0,1-1.414,0L35,42.414l-7.293,7.293-1.414-1.414,8-8a1,1,0,0,1,1.414,0L40,44.586l2.293-2.293a1,1,0,0,1,1.414,0l7,7Z"/></g><path d="M40,39a4,4,0,1,1,4-4A4,4,0,0,1,40,39Zm0-6a2,2,0,1,0,2,2A2,2,0,0,0,40,33Z"/><path d="M15,17H13V16a1,1,0,0,1,1-1,.81.81,0,0,0,.71-.291c.611-.742.472-2.688.309-3.514A1,1,0,0,1,16,10h2v2h-.865a5.871,5.871,0,0,1-.877,3.977A2.715,2.715,0,0,1,15,16.845Z"/><path d="M18,24H16a1,1,0,0,1-.981-1.2c.163-.826.3-2.772-.309-3.514A.81.81,0,0,0,14,19a1,1,0,0,1-1-1V17h2v.155a2.715,2.715,0,0,1,1.258.868A5.871,5.871,0,0,1,17.135,22H18Z"/><path d="M30,24H28V22h.865a5.871,5.871,0,0,1,.877-3.977A2.715,2.715,0,0,1,31,17.155V17h2v1a1,1,0,0,1-1,1,.81.81,0,0,0-.71.291c-.611.742-.472,2.688-.309,3.514A1,1,0,0,1,30,24Z"/><path d="M33,17H31v-.155a2.715,2.715,0,0,1-1.258-.868A5.871,5.871,0,0,1,28.865,12H28V10h2a1,1,0,0,1,.981,1.2c-.163.826-.3,2.772.309,3.514A.81.81,0,0,0,32,15a1,1,0,0,1,1,1Z"/><rect x="22" y="16" width="2" height="2"/><rect x="18" y="16" width="2" height="2"/><rect x="26" y="16" width="2" height="2"/><path d="M13,51H5a1,1,0,0,1-1-1V42a1,1,0,0,1,1-1h8a1,1,0,0,1,1,1v8A1,1,0,0,1,13,51ZM6,49h6V43H6Z"/><rect x="3.343" y="45" width="11.314" height="2" transform="translate(-29.891 19.837) rotate(-45)"/><path d="M13,64H5a1,1,0,0,1-1-1V55a1,1,0,0,1,1-1h8a1,1,0,0,1,1,1v8A1,1,0,0,1,13,64ZM6,62h6V56H6Z"/><rect x="3.343" y="58" width="11.314" height="2" transform="translate(-39.083 23.645) rotate(-45)"/></g></svg>