<?xml version="1.0" encoding="utf-8"?>
<!-- Generator: Adobe Illustrator 16.0.0, SVG Export Plug-In . SVG Version: 6.00 Build 0)  -->
<!DOCTYPE svg PUBLIC "-//W3C//DTD SVG 1.1//EN" "http://www.w3.org/Graphics/SVG/1.1/DTD/svg11.dtd">
<svg version="1.1" id="Layer_1" xmlns="http://www.w3.org/2000/svg" xmlns:xlink="http://www.w3.org/1999/xlink" x="0px" y="0px"
	 width="512px" height="512px" viewBox="0 0 512 512" enable-background="new 0 0 512 512" xml:space="preserve">
<g id="_x32_2._molotov_x2C__cocktail_x2C__lighter_x2C__mafia_x2C__crime_x2C__bandit">
	<g>
		<g>
			<path d="M128.09,503.825c-2.209,0-3.997-1.788-3.997-3.998V273.323c0-2.209,1.788-3.997,3.997-3.997
				c2.209,0,3.997,1.788,3.997,3.997v226.504C132.087,502.037,130.3,503.825,128.09,503.825z"/>
		</g>
	</g>
	<g>
		<g>
			<path d="M136.084,511.819c-6.612,0-11.991-5.379-11.991-11.992c0-2.209,1.788-3.996,3.997-3.996c2.209,0,3.997,1.787,3.997,3.996
				c0,2.202,1.796,3.998,3.997,3.998c2.21,0,3.998,1.787,3.998,3.997C140.082,510.031,138.294,511.819,136.084,511.819z"/>
		</g>
	</g>
	<g>
		<g>
			<path d="M287.979,511.819c-2.211,0-3.998-1.788-3.998-3.997c0-2.21,1.787-3.997,3.998-3.997c2.201,0,3.996-1.796,3.996-3.998
				c0-2.209,1.789-3.996,3.998-3.996s3.996,1.787,3.996,3.996C299.969,506.44,294.59,511.819,287.979,511.819z"/>
		</g>
	</g>
	<g>
		<g>
			<path d="M287.979,511.819H136.084c-2.209,0-3.997-1.788-3.997-3.997c0-2.21,1.788-3.997,3.997-3.997h151.894
				c2.209,0,3.996,1.787,3.996,3.997C291.975,510.031,290.188,511.819,287.979,511.819z"/>
		</g>
	</g>
	<g>
		<g>
			<path d="M128.09,277.32c-2.209,0-3.997-1.787-3.997-3.997c0-47.403,26.231-69.521,45.39-85.674
				c4.31-3.638,8.385-7.073,11.742-10.422c1.561-1.562,4.091-1.562,5.652,0c1.561,1.562,1.561,4.091,0,5.652
				c-3.592,3.591-7.792,7.136-12.242,10.883c-18.956,15.98-42.548,35.873-42.548,79.561C132.087,275.533,130.3,277.32,128.09,277.32
				z"/>
		</g>
	</g>
	<g>
		<g>
			<path d="M184.051,184.051c-2.21,0-3.998-1.788-3.998-3.997V76.127c0-2.21,1.788-3.997,3.998-3.997
				c2.209,0,3.997,1.787,3.997,3.997v103.927C188.048,182.263,186.26,184.051,184.051,184.051z"/>
		</g>
	</g>
	<g>
		<g>
			<path d="M295.973,503.825c-2.209,0-3.998-1.788-3.998-3.998V273.323c0-2.209,1.789-3.997,3.998-3.997s3.996,1.788,3.996,3.997
				v226.504C299.969,502.037,298.182,503.825,295.973,503.825z"/>
		</g>
	</g>
	<g>
		<g>
			<path d="M295.973,277.32c-2.209,0-3.998-1.787-3.998-3.997c0-43.68-23.584-63.572-42.532-79.553
				c-4.45-3.755-8.658-7.3-12.25-10.891c-1.561-1.562-1.561-4.091,0-5.652c1.562-1.562,4.091-1.562,5.652,0
				c3.35,3.349,7.425,6.792,11.75,10.43c19.143,16.153,45.374,38.271,45.374,85.666C299.969,275.533,298.182,277.32,295.973,277.32z
				"/>
		</g>
	</g>
	<g>
		<g>
			<path d="M240.019,184.051c-2.209,0-3.997-1.788-3.997-3.997V76.127c0-2.21,1.788-3.997,3.997-3.997
				c2.21,0,3.998,1.787,3.998,3.997v103.927C244.017,182.263,242.229,184.051,240.019,184.051z"/>
		</g>
	</g>
	<g>
		<g>
			<path d="M240.019,80.124h-55.968c-2.21,0-3.998-1.788-3.998-3.997c0-2.21,1.788-3.997,3.998-3.997h55.968
				c2.21,0,3.998,1.787,3.998,3.997C244.017,78.336,242.229,80.124,240.019,80.124z"/>
		</g>
	</g>
	<g>
		<g>
			<path d="M192.045,96.112h-7.994c-2.21,0-3.998-1.787-3.998-3.997c0-2.209,1.788-3.997,3.998-3.997h7.994
				c2.209,0,3.997,1.788,3.997,3.997C196.042,94.325,194.254,96.112,192.045,96.112z"/>
		</g>
	</g>
	<g>
		<g>
			<path d="M240.019,96.112h-8.002c-2.209,0-3.997-1.787-3.997-3.997c0-2.209,1.788-3.997,3.997-3.997h8.002
				c2.21,0,3.998,1.788,3.998,3.997C244.017,94.325,242.229,96.112,240.019,96.112z"/>
		</g>
	</g>
	<g>
		<g>
			<path d="M156.071,511.819c-2.209,0-3.997-1.788-3.997-3.997v-3.997c0-2.21,1.788-3.998,3.997-3.998
				c2.209,0,3.997,1.788,3.997,3.998v3.997C160.068,510.031,158.28,511.819,156.071,511.819z"/>
		</g>
	</g>
	<g>
		<g>
			<path d="M172.059,511.819c-2.209,0-3.997-1.788-3.997-3.997v-3.997c0-2.21,1.788-3.998,3.997-3.998
				c2.21,0,3.998,1.788,3.998,3.998v3.997C176.057,510.031,174.269,511.819,172.059,511.819z"/>
		</g>
	</g>
	<g>
		<g>
			<path d="M188.048,511.819c-2.209,0-3.997-1.788-3.997-3.997v-3.997c0-2.21,1.788-3.998,3.997-3.998
				c2.209,0,3.997,1.788,3.997,3.998v3.997C192.045,510.031,190.257,511.819,188.048,511.819z"/>
		</g>
	</g>
	<g>
		<g>
			<path d="M204.037,511.819c-2.209,0-3.997-1.788-3.997-3.997v-3.997c0-2.21,1.788-3.998,3.997-3.998
				c2.21,0,3.998,1.788,3.998,3.998v3.997C208.034,510.031,206.247,511.819,204.037,511.819z"/>
		</g>
	</g>
	<g>
		<g>
			<path d="M220.026,511.819c-2.21,0-3.998-1.788-3.998-3.997v-3.997c0-2.21,1.788-3.998,3.998-3.998
				c2.209,0,3.997,1.788,3.997,3.998v3.997C224.023,510.031,222.235,511.819,220.026,511.819z"/>
		</g>
	</g>
	<g>
		<g>
			<path d="M236.014,511.819c-2.209,0-3.997-1.788-3.997-3.997v-3.997c0-2.21,1.788-3.998,3.997-3.998
				c2.209,0,3.997,1.788,3.997,3.998v3.997C240.011,510.031,238.224,511.819,236.014,511.819z"/>
		</g>
	</g>
	<g>
		<g>
			<path d="M252.003,511.819c-2.209,0-3.997-1.788-3.997-3.997v-3.997c0-2.21,1.788-3.998,3.997-3.998s3.998,1.788,3.998,3.998
				v3.997C256,510.031,254.212,511.819,252.003,511.819z"/>
		</g>
	</g>
	<g>
		<g>
			<path d="M267.992,511.819c-2.209,0-3.998-1.788-3.998-3.997v-3.997c0-2.21,1.789-3.998,3.998-3.998s3.996,1.788,3.996,3.998
				v3.997C271.988,510.031,270.201,511.819,267.992,511.819z"/>
		</g>
	</g>
	<g>
		<g>
			<path d="M184.051,319.954h-39.972c-2.209,0-3.997-1.787-3.997-3.996c0-2.21,1.788-3.998,3.997-3.998h39.972
				c2.209,0,3.997,1.788,3.997,3.998C188.048,318.167,186.26,319.954,184.051,319.954z"/>
		</g>
	</g>
	<g>
		<g>
			<path d="M192.045,447.864c-0.047,0-0.109,0-0.156,0c-2.209-0.094-3.927-1.951-3.841-4.153
				c0.078-1.999,7.994-200.327,7.994-247.669V60.138c0-2.209,1.788-3.997,3.997-3.997c2.209,0,3.997,1.788,3.997,3.997v135.904
				c0,47.498-7.916,245.982-7.994,247.981C195.949,446.178,194.185,447.864,192.045,447.864z"/>
		</g>
	</g>
	<g>
		<g>
			<path d="M232.017,455.858c-2.139,0-3.911-1.686-3.997-3.841c-0.078-2.084-7.994-208.485-7.994-255.976V52.144
				c0-2.209,1.788-3.997,3.997-3.997c2.209,0,3.997,1.788,3.997,3.997v143.898c0,47.342,7.916,253.587,7.994,255.663
				c0.078,2.21-1.64,4.067-3.841,4.153C232.119,455.858,232.064,455.858,232.017,455.858z"/>
		</g>
	</g>
	<g>
		<g>
			<path d="M232.017,455.858c-0.952,0-1.897-0.336-2.654-1.015c-13.42-11.952-36.225-7.128-36.459-7.073
				c-2.139,0.461-4.293-0.897-4.762-3.045c-0.469-2.154,0.89-4.285,3.037-4.762c1.101-0.234,27.012-5.77,43.493,8.916
				c1.655,1.467,1.796,3.988,0.328,5.644C234.211,455.406,233.118,455.858,232.017,455.858z"/>
		</g>
	</g>
	<g>
		<g>
			<path d="M279.984,319.954h-39.973c-2.209,0-3.997-1.787-3.997-3.996c0-2.21,1.788-3.998,3.997-3.998h39.973
				c2.209,0,3.996,1.788,3.996,3.998C283.98,318.167,282.193,319.954,279.984,319.954z"/>
		</g>
	</g>
	<g>
		<g>
			<path d="M224.023,56.141c-2.209,0-3.997-1.787-3.997-3.997c0-24.24-19.721-43.969-43.969-43.969
				c-2.209,0-3.998-1.788-3.998-3.997c0-2.21,1.788-3.997,3.998-3.997c28.652,0,51.963,23.312,51.963,51.963
				C228.02,54.354,226.232,56.141,224.023,56.141z"/>
		</g>
	</g>
	<g>
		<g>
			<path d="M96.113,128.09c-2.209,0-3.997-1.787-3.997-3.997c0-50.526,32.696-123.912,83.941-123.912
				c2.209,0,3.997,1.787,3.997,3.997c0,2.209-1.788,3.997-3.997,3.997c-45.655,0-75.947,69.771-75.947,115.918
				C100.11,126.303,98.323,128.09,96.113,128.09z"/>
		</g>
	</g>
	<g>
		<g>
			<path d="M200.04,64.135c-2.209,0-3.997-1.787-3.997-3.997c0-6.612-5.379-11.991-11.991-11.991c-2.21,0-3.998-1.788-3.998-3.997
				c0-2.21,1.788-3.997,3.998-3.997c11.023,0,19.985,8.962,19.985,19.985C204.037,62.348,202.249,64.135,200.04,64.135z"/>
		</g>
	</g>
	<g>
		<g>
			<path d="M144.079,128.09c-2.209,0-3.997-1.787-3.997-3.997c0-24.701,12.647-83.94,43.969-83.94c2.209,0,3.997,1.787,3.997,3.997
				c0,2.209-1.788,3.997-3.997,3.997c-22.312,0-35.975,49.168-35.975,75.946C148.077,126.303,146.289,128.09,144.079,128.09z"/>
		</g>
	</g>
	<g>
		<g>
			<path d="M144.079,128.09c-0.421,0-0.843-0.062-1.265-0.203l-23.983-7.994c-12.804-4.271-19.034,5.832-19.291,6.254
				c-1.132,1.889-3.592,2.529-5.488,1.374c-1.89-1.133-2.499-3.592-1.366-5.48c3.333-5.559,13.592-14.771,28.675-9.735l23.983,7.994
				c2.092,0.702,3.224,2.959,2.529,5.059C147.311,127.028,145.75,128.09,144.079,128.09z"/>
		</g>
	</g>
	<g>
		<g>
			<path d="M335.943,511.819c-2.209,0-3.996-1.788-3.996-3.997V331.946c0-2.209,1.787-3.997,3.996-3.997
				c2.211,0,3.998,1.788,3.998,3.997v175.876C339.941,510.031,338.154,511.819,335.943,511.819z"/>
		</g>
	</g>
	<g>
		<g>
			<path d="M415.887,335.943h-79.943c-2.209,0-3.996-1.788-3.996-3.997s1.787-3.997,3.996-3.997h79.943
				c2.211,0,3.998,1.788,3.998,3.997S418.098,335.943,415.887,335.943z"/>
		</g>
	</g>
	<g>
		<g>
			<path d="M415.887,511.819c-2.209,0-3.996-1.788-3.996-3.997V331.946c0-2.209,1.787-3.997,3.996-3.997
				c2.211,0,3.998,1.788,3.998,3.997v175.876C419.885,510.031,418.098,511.819,415.887,511.819z"/>
		</g>
	</g>
	<g>
		<g>
			<path d="M415.887,511.819h-79.943c-2.209,0-3.996-1.788-3.996-3.997c0-2.21,1.787-3.997,3.996-3.997h79.943
				c2.211,0,3.998,1.787,3.998,3.997C419.885,510.031,418.098,511.819,415.887,511.819z"/>
		</g>
	</g>
	<g>
		<g>
			<path d="M335.943,335.943c-2.209,0-3.996-1.788-3.996-3.997v-39.972c0-2.21,1.787-3.997,3.996-3.997
				c2.211,0,3.998,1.787,3.998,3.997v39.972C339.941,334.155,338.154,335.943,335.943,335.943z"/>
		</g>
	</g>
	<g>
		<g>
			<path d="M375.916,295.972h-39.973c-2.209,0-3.996-1.788-3.996-3.997c0-2.21,1.787-3.997,3.996-3.997h39.973
				c2.209,0,3.996,1.787,3.996,3.997C379.912,294.184,378.125,295.972,375.916,295.972z"/>
		</g>
	</g>
	<g>
		<g>
			<path d="M391.904,335.943c-2.209,0-3.996-1.788-3.996-3.997v-23.983c0-2.209,1.787-3.997,3.996-3.997s3.998,1.788,3.998,3.997
				v23.983C395.902,334.155,394.113,335.943,391.904,335.943z"/>
		</g>
	</g>
	<g>
		<g>
			<path d="M391.904,311.96c-2.209,0-3.996-1.787-3.996-3.997c0-6.612-5.381-11.991-11.992-11.991c-2.209,0-3.998-1.788-3.998-3.997
				c0-2.21,1.789-3.997,3.998-3.997c11.023,0,19.986,8.962,19.986,19.985C395.902,310.173,394.113,311.96,391.904,311.96z"/>
		</g>
	</g>
	<g>
		<g>
			<path d="M415.887,311.96h-15.988c-2.209,0-3.996-1.787-3.996-3.997c0-2.209,1.787-3.997,3.996-3.997h15.988
				c2.211,0,3.998,1.788,3.998,3.997C419.885,310.173,418.098,311.96,415.887,311.96z"/>
		</g>
	</g>
	<g>
		<g>
			<path d="M407.893,335.943c-2.209,0-3.996-1.788-3.996-3.997v-23.983c0-2.209,1.787-3.997,3.996-3.997
				c2.211,0,3.998,1.788,3.998,3.997v23.983C411.891,334.155,410.104,335.943,407.893,335.943z"/>
		</g>
	</g>
	<g>
		<g>
			<path d="M375.916,311.96h-23.234c-2.209,0-3.996-1.787-3.996-3.997c0-2.209,1.787-3.997,3.996-3.997h23.234
				c2.209,0,3.996,1.788,3.996,3.997C379.912,310.173,378.125,311.96,375.916,311.96z"/>
		</g>
	</g>
	<g>
		<g>
			<path d="M335.943,319.954h-7.994c-2.209,0-3.996-1.787-3.996-3.996c0-2.21,1.787-3.998,3.996-3.998h7.994
				c2.211,0,3.998,1.788,3.998,3.998C339.941,318.167,338.154,319.954,335.943,319.954z"/>
		</g>
	</g>
	<g>
		<g>
			<path d="M415.887,351.933h-79.943c-2.209,0-3.996-1.788-3.996-3.998c0-2.209,1.787-3.997,3.996-3.997h79.943
				c2.211,0,3.998,1.788,3.998,3.997C419.885,350.145,418.098,351.933,415.887,351.933z"/>
		</g>
	</g>
	<g>
		<g>
			<path d="M359.928,279.983c-11.023,0-19.986-8.963-19.986-19.986c0-3.552,5.559-51.963,19.986-51.963
				c14.426,0,19.984,48.411,19.984,51.963C379.912,271.021,370.951,279.983,359.928,279.983z M359.654,215.981
				c-4.334,2.131-11.719,32.805-11.719,44.016c0,6.612,5.379,11.991,11.992,11.991c6.611,0,11.99-5.379,11.99-11.991
				C371.918,248.786,364.533,218.112,359.654,215.981z"/>
		</g>
	</g>
	<g>
		<g>
			<path d="M375.916,447.864c-11.023,0-19.986-8.963-19.986-19.986s8.963-19.985,19.986-19.985s19.986,8.962,19.986,19.985
				S386.939,447.864,375.916,447.864z M375.916,415.887c-6.613,0-11.992,5.379-11.992,11.991c0,6.613,5.379,11.992,11.992,11.992
				c6.611,0,11.992-5.379,11.992-11.992C387.908,421.266,382.527,415.887,375.916,415.887z"/>
		</g>
	</g>
	<g>
		<g>
			<path d="M375.916,471.848c-2.209,0-3.998-1.788-3.998-3.997v-79.943c0-2.21,1.789-3.998,3.998-3.998s3.996,1.788,3.996,3.998
				v79.943C379.912,470.06,378.125,471.848,375.916,471.848z"/>
		</g>
	</g>
</g>
</svg>
