<?xml version="1.0" encoding="utf-8"?>
<!-- Generator: Adobe Illustrator 16.0.0, SVG Export Plug-In . SVG Version: 6.00 Build 0)  -->
<!DOCTYPE svg PUBLIC "-//W3C//DTD SVG 1.1//EN" "http://www.w3.org/Graphics/SVG/1.1/DTD/svg11.dtd">
<svg version="1.1" xmlns="http://www.w3.org/2000/svg" xmlns:xlink="http://www.w3.org/1999/xlink" x="0px" y="0px" width="64px"
	 height="64px" viewBox="0 0 64 64" enable-background="new 0 0 64 64" xml:space="preserve">
<g id="_x32_5_purse_x2C__money_x2C__coin_x2C__banknote_x2C__payment_x2C__shop_x2C__shopping">
</g>
<g id="_x32_4_pay_x2C__click_x2C__hand_x2C__coin_x2C__money_x2C__shop_x2C__payment">
</g>
<g id="_x32_3_card_x2C__discount_x2C__sale_x2C__shop_x2C__shopping_x2C__commerce_x2C__market">
	<g>
		<path fill="#EDAB37" d="M58.148,13.5l-0.547-0.951l-3.49-6.066l-1.996-3.468c-0.549-0.953-1.777-1.285-2.73-0.736l-1.084,0.624
			L29.883,13.5H58.148z"/>
		<path fill="#F6BB42" d="M60.631,13.5l-0.771-3.636c-0.227-1.075-1.295-1.77-2.371-1.542l-1.221,0.259L33.068,13.5H60.631z"/>
		<path fill="#FFCE54" d="M55.5,39.5c1.1,0,2,0.9,2,2s-0.9,2-2,2s-2-0.9-2-2S54.4,39.5,55.5,39.5z"/>
		<path fill="#FFCE54" d="M49.5,33.5c1.1,0,2,0.9,2,2s-0.9,2-2,2s-2-0.9-2-2S48.4,33.5,49.5,33.5z"/>
		<path fill="#FFCE54" d="M63.5,26.5v22c0,1.1-0.9,2-2,2H31.46h-7.13H2.5c-1.1,0-2-0.9-2-2v-22h2h59H63.5z M57.5,41.5
			c0-1.1-0.9-2-2-2s-2,0.9-2,2s0.9,2,2,2S57.5,42.6,57.5,41.5z M51.5,35.5c0-1.1-0.9-2-2-2s-2,0.9-2,2s0.9,2,2,2
			S51.5,36.6,51.5,35.5z"/>
		<polygon fill="#656D78" points="63.5,19.5 63.5,26.5 61.5,26.5 2.5,26.5 0.5,26.5 0.5,19.5 2.5,19.5 61.5,19.5 		"/>
		<path fill="#FFCE54" d="M63.5,15.5v4h-2h-59h-2v-4c0-1.1,0.9-2,2-2h30.04h27.71h1.25C62.6,13.5,63.5,14.4,63.5,15.5z"/>
		<path fill="#EDAB37" d="M5.898,50.5l0.547,0.951l3.49,6.066l1.996,3.468c0.549,0.953,1.777,1.285,2.73,0.736l1.084-0.624
			L34.165,50.5H5.898z"/>
		<path fill="#F6BB42" d="M3.416,50.5l0.771,3.636c0.227,1.075,1.295,1.77,2.371,1.542l1.221-0.259L30.979,50.5H3.416z"/>
		<g>
			<g>
				<path fill="#545C66" d="M3.005,24.79c-0.056,0-0.113-0.01-0.169-0.029c-0.26-0.093-0.395-0.38-0.302-0.64l1-2.79
					c0.093-0.259,0.38-0.392,0.64-0.302c0.26,0.093,0.395,0.38,0.302,0.64l-1,2.79C3.402,24.663,3.21,24.79,3.005,24.79z"/>
			</g>
			<g>
				<path fill="#545C66" d="M6.005,24.79c-0.056,0-0.113-0.01-0.169-0.029c-0.26-0.093-0.395-0.38-0.302-0.64l1-2.79
					c0.093-0.259,0.379-0.392,0.64-0.302c0.26,0.093,0.395,0.38,0.302,0.64l-1,2.79C6.402,24.663,6.21,24.79,6.005,24.79z"/>
			</g>
			<g>
				<path fill="#545C66" d="M9.005,24.79c-0.056,0-0.113-0.01-0.169-0.029c-0.26-0.093-0.395-0.38-0.302-0.64l1-2.79
					c0.094-0.259,0.379-0.392,0.64-0.302c0.26,0.093,0.395,0.38,0.302,0.64l-1,2.79C9.402,24.663,9.21,24.79,9.005,24.79z"/>
			</g>
			<g>
				<path fill="#545C66" d="M12.005,24.79c-0.056,0-0.113-0.01-0.169-0.029c-0.26-0.093-0.395-0.38-0.302-0.64l1-2.79
					c0.093-0.259,0.38-0.392,0.64-0.302c0.26,0.093,0.395,0.38,0.302,0.64l-1,2.79C12.402,24.663,12.21,24.79,12.005,24.79z"/>
			</g>
			<g>
				<path fill="#545C66" d="M15.005,24.79c-0.056,0-0.113-0.01-0.169-0.029c-0.26-0.093-0.395-0.38-0.302-0.64l1-2.79
					c0.094-0.259,0.379-0.392,0.64-0.302c0.26,0.093,0.395,0.38,0.302,0.64l-1,2.79C15.402,24.663,15.21,24.79,15.005,24.79z"/>
			</g>
			<g>
				<path fill="#545C66" d="M18.005,24.79c-0.056,0-0.113-0.01-0.169-0.029c-0.26-0.093-0.395-0.38-0.302-0.64l1-2.79
					c0.094-0.259,0.38-0.392,0.64-0.302c0.26,0.093,0.395,0.38,0.302,0.64l-1,2.79C18.402,24.663,18.21,24.79,18.005,24.79z"/>
			</g>
			<g>
				<path fill="#545C66" d="M21.005,24.79c-0.056,0-0.113-0.01-0.169-0.029c-0.26-0.093-0.395-0.38-0.302-0.64l1-2.79
					c0.093-0.259,0.38-0.392,0.64-0.302c0.26,0.093,0.395,0.38,0.302,0.64l-1,2.79C21.402,24.663,21.21,24.79,21.005,24.79z"/>
			</g>
			<g>
				<path fill="#545C66" d="M24.005,24.79c-0.056,0-0.113-0.01-0.169-0.029c-0.26-0.093-0.395-0.38-0.302-0.64l1-2.79
					c0.093-0.259,0.379-0.392,0.64-0.302c0.26,0.093,0.395,0.38,0.302,0.64l-1,2.79C24.402,24.663,24.21,24.79,24.005,24.79z"/>
			</g>
			<g>
				<path fill="#545C66" d="M27.005,24.79c-0.056,0-0.113-0.01-0.169-0.029c-0.26-0.093-0.395-0.38-0.302-0.64l1-2.79
					c0.094-0.259,0.38-0.392,0.64-0.302c0.26,0.093,0.395,0.38,0.302,0.64l-1,2.79C27.402,24.663,27.21,24.79,27.005,24.79z"/>
			</g>
			<g>
				<path fill="#545C66" d="M30.005,24.79c-0.056,0-0.113-0.01-0.169-0.029c-0.26-0.093-0.395-0.38-0.302-0.64l1-2.79
					c0.093-0.259,0.381-0.392,0.64-0.302c0.26,0.093,0.395,0.38,0.302,0.64l-1,2.79C30.402,24.663,30.21,24.79,30.005,24.79z"/>
			</g>
			<g>
				<path fill="#545C66" d="M33.005,24.79c-0.056,0-0.113-0.01-0.169-0.029c-0.26-0.093-0.395-0.38-0.302-0.64l1-2.79
					c0.094-0.259,0.379-0.392,0.64-0.302c0.26,0.093,0.395,0.38,0.302,0.64l-1,2.79C33.402,24.663,33.21,24.79,33.005,24.79z"/>
			</g>
			<g>
				<path fill="#545C66" d="M35.995,24.79c-0.056,0-0.113-0.01-0.169-0.029c-0.26-0.093-0.395-0.38-0.302-0.64l1-2.79
					c0.093-0.259,0.381-0.392,0.64-0.302c0.26,0.093,0.395,0.38,0.302,0.64l-1,2.79C36.393,24.663,36.2,24.79,35.995,24.79z"/>
			</g>
			<g>
				<path fill="#545C66" d="M38.995,24.79c-0.056,0-0.113-0.01-0.169-0.029c-0.26-0.093-0.395-0.38-0.302-0.64l1-2.79
					c0.094-0.259,0.379-0.392,0.64-0.302c0.26,0.093,0.395,0.38,0.302,0.64l-1,2.79C39.393,24.663,39.2,24.79,38.995,24.79z"/>
			</g>
			<g>
				<path fill="#545C66" d="M41.995,24.79c-0.056,0-0.113-0.01-0.169-0.029c-0.26-0.093-0.395-0.38-0.302-0.64l1-2.79
					c0.093-0.259,0.38-0.392,0.64-0.302c0.26,0.093,0.395,0.38,0.302,0.64l-1,2.79C42.393,24.663,42.2,24.79,41.995,24.79z"/>
			</g>
			<g>
				<path fill="#545C66" d="M44.995,24.79c-0.056,0-0.113-0.01-0.169-0.029c-0.26-0.093-0.395-0.38-0.302-0.64l1-2.79
					c0.094-0.259,0.381-0.392,0.64-0.302c0.26,0.093,0.395,0.38,0.302,0.64l-1,2.79C45.393,24.663,45.2,24.79,44.995,24.79z"/>
			</g>
			<g>
				<path fill="#545C66" d="M47.995,24.79c-0.056,0-0.113-0.01-0.169-0.029c-0.26-0.093-0.395-0.38-0.302-0.64l1-2.79
					c0.094-0.259,0.379-0.392,0.64-0.302c0.26,0.093,0.395,0.38,0.302,0.64l-1,2.79C48.393,24.663,48.2,24.79,47.995,24.79z"/>
			</g>
			<g>
				<path fill="#545C66" d="M50.995,24.79c-0.056,0-0.113-0.01-0.169-0.029c-0.26-0.093-0.395-0.38-0.302-0.64l1-2.79
					c0.093-0.259,0.38-0.392,0.64-0.302c0.26,0.093,0.395,0.38,0.302,0.64l-1,2.79C51.393,24.663,51.2,24.79,50.995,24.79z"/>
			</g>
			<g>
				<path fill="#545C66" d="M53.995,24.79c-0.056,0-0.113-0.01-0.169-0.029c-0.26-0.093-0.395-0.38-0.302-0.64l1-2.79
					c0.093-0.259,0.379-0.392,0.64-0.302c0.26,0.093,0.395,0.38,0.302,0.64l-1,2.79C54.393,24.663,54.2,24.79,53.995,24.79z"/>
			</g>
			<g>
				<path fill="#545C66" d="M56.995,24.79c-0.056,0-0.113-0.01-0.169-0.029c-0.26-0.093-0.395-0.38-0.302-0.64l1-2.79
					c0.094-0.259,0.379-0.392,0.64-0.302c0.26,0.093,0.395,0.38,0.302,0.64l-1,2.79C57.393,24.663,57.2,24.79,56.995,24.79z"/>
			</g>
			<g>
				<path fill="#545C66" d="M59.995,24.79c-0.056,0-0.113-0.01-0.169-0.029c-0.26-0.093-0.395-0.38-0.302-0.64l1-2.79
					c0.094-0.259,0.379-0.392,0.64-0.302c0.26,0.093,0.395,0.38,0.302,0.64l-1,2.79C60.393,24.663,60.2,24.79,59.995,24.79z"/>
			</g>
		</g>
		<g>
			<g>
				<path fill="#DA4453" d="M11.5,44C8.464,44,6,41.534,6,38.5c0-3.032,2.468-5.5,5.5-5.5s5.5,2.468,5.5,5.5S14.532,44,11.5,44z
					 M11.5,34C9.019,34,7,36.019,7,38.5S9.019,43,11.5,43s4.5-2.019,4.5-4.5S13.981,34,11.5,34z"/>
			</g>
			<g>
				<path fill="#DA4453" d="M10.5,38c-0.128,0-0.256-0.049-0.354-0.146c-0.195-0.195-0.195-0.512,0-0.707l4.999-4.999
					c0.195-0.195,0.512-0.195,0.707,0s0.195,0.512,0,0.707l-4.999,4.999C10.756,37.951,10.628,38,10.5,38z"/>
			</g>
			<g>
				<path fill="#DA4453" d="M12.5,40c-0.128,0-0.256-0.049-0.354-0.146l-2-2c-0.195-0.195-0.195-0.512,0-0.707s0.512-0.195,0.707,0
					l2,2c0.195,0.195,0.195,0.512,0,0.707C12.756,39.951,12.628,40,12.5,40z"/>
			</g>
			<g>
				<path fill="#DA4453" d="M7.501,44.999c-0.128,0-0.256-0.049-0.354-0.146c-0.195-0.195-0.195-0.512,0-0.707l4.999-4.999
					c0.195-0.195,0.512-0.195,0.707,0s0.195,0.512,0,0.707l-4.999,4.999C7.757,44.95,7.629,44.999,7.501,44.999z"/>
			</g>
		</g>
		<g>
			<path fill="#EDAB37" d="M41.5,36h-19c-0.276,0-0.5-0.224-0.5-0.5s0.224-0.5,0.5-0.5h19c0.276,0,0.5,0.224,0.5,0.5
				S41.776,36,41.5,36z"/>
		</g>
		<g>
			<path fill="#EDAB37" d="M41.5,39h-19c-0.276,0-0.5-0.224-0.5-0.5s0.224-0.5,0.5-0.5h19c0.276,0,0.5,0.224,0.5,0.5
				S41.776,39,41.5,39z"/>
		</g>
		<g>
			<path fill="#EDAB37" d="M31.5,42h-9c-0.276,0-0.5-0.224-0.5-0.5s0.224-0.5,0.5-0.5h9c0.276,0,0.5,0.224,0.5,0.5
				S31.776,42,31.5,42z"/>
		</g>
		<g>
			<path fill="#EDAB37" d="M49.5,38c-1.379,0-2.5-1.121-2.5-2.5s1.121-2.5,2.5-2.5s2.5,1.121,2.5,2.5S50.879,38,49.5,38z M49.5,34
				c-0.827,0-1.5,0.673-1.5,1.5s0.673,1.5,1.5,1.5s1.5-0.673,1.5-1.5S50.327,34,49.5,34z"/>
		</g>
		<g>
			<path fill="#EDAB37" d="M55.5,44c-1.379,0-2.5-1.121-2.5-2.5s1.121-2.5,2.5-2.5s2.5,1.121,2.5,2.5S56.879,44,55.5,44z M55.5,40
				c-0.827,0-1.5,0.673-1.5,1.5s0.673,1.5,1.5,1.5s1.5-0.673,1.5-1.5S56.327,40,55.5,40z"/>
		</g>
		<g>
			<path fill="#EDAB37" d="M47.5,44c-0.128,0-0.256-0.049-0.354-0.146c-0.195-0.195-0.195-0.512,0-0.707l9.99-10
				c0.195-0.195,0.512-0.195,0.707,0s0.195,0.512,0,0.707l-9.99,10C47.756,43.951,47.628,44,47.5,44z"/>
		</g>
	</g>
</g>
<g id="_x32_2_safe_x2C__box_x2C__key_x2C__thing_x2C__shop_x2C__shopping_x2C__commerce">
</g>
<g id="_x32_1_cashbox_x2C__money_x2C__purchase_x2C__list_x2C__check_x2C__shop_x2C__shopping">
</g>
<g id="_x32_0_search_x2C__magnifier_x2C__basket_x2C__shop_x2C__shopping_x2C__commerce_x2C__market">
</g>
<g id="_x31_9_return_x2C__box_x2C__purchase_x2C__shipping_x2C__delivery_x2C__shop_x2C__shopping">
</g>
<g id="_x31_8_review_x2C__client_x2C__buyer_x2C__talk_x2C__shop_x2C__shopping_x2C__commerce">
</g>
<g id="_x31_7_manager_x2C__consultant_x2C__shop_x2C__shopping_x2C__commerce_x2C__market_x2C__badge">
</g>
<g id="_x31_6_check_x2C__list_x2C__cashbox_x2C__purchase_x2C__shop_x2C__shopping_x2C__commerce">
</g>
<g id="_x31_5_coupon_x2C__sale_x2C__discount_x2C__shop_x2C__shopping_x2C__commerce_x2C__market">
</g>
<g id="_x31_4_sale_x2C__discount_x2C__box_x2C__gift_x2C__shop_x2C__shopping_x2C__commerce">
</g>
<g id="_x31_3_map_x2C__pin_x2C__marker_x2C__location_x2C__shop_x2C__shopping_x2C__basket">
</g>
<g id="_x31_2_operator_x2C__call_x2C__center_x2C__shop_x2C__shopping_x2C__commerce_x2C__market">
</g>
<g id="_x31_1_courier_x2C__box_x2C__shipping_x2C__purchase_x2C__shop_x2C__shopping_x2C__commerce">
</g>
<g id="_x31_0_box_x2C__shipping_x2C__delivery_x2C__purchase_x2C__shop_x2C__shopping_x2C__commerce">
</g>
<g id="_x39__shipping_x2C__delivery_x2C__box_x2C__crane_x2C__shop_x2C__shopping_x2C__commerce">
</g>
<g id="_x38__computer_x2C__monitor_x2C__desktop_x2C__shop_x2C__shopping_x2C__commerce_x2C__market">
</g>
<g id="_x37__mobile_x2C__phone_x2C__app_x2C__shop_x2C__shopping_x2C__commerce_x2C__market">
</g>
<g id="_x36__food_x2C__market_x2C__purchase_x2C__shop_x2C__shopping_x2C__commerce_x2C__basket">
</g>
<g id="_x35__discount_x2C__sale_x2C__purchase_x2C__pocket_x2C__shop_x2C__shopping_x2C__commerce">
</g>
<g id="_x34__badge_x2C__discount_x2C__sale_x2C__shop_x2C__shopping_x2C__commerce_x2C__market">
</g>
<g id="_x33__food_x2C__pocket_x2C__purchase_x2C__shop_x2C__shopping_x2C__commerce_x2C__supermarket">
</g>
<g id="_x32__shop_x2C__shopping_x2C__commerce_x2C__supermarket_x2C__market_x2C__cart">
</g>
<g id="_x31__list_x2C__check_x2C__notebook_x2C__pen_x2C__shop_x2C__shopping_x2C__commerce">
</g>
</svg>
