<svg xmlns="http://www.w3.org/2000/svg" viewBox="0 0 64 64"><g id="_23-Fishing_worm" data-name="23-Fishing worm"><path d="M33.86,21.33a6.637,6.637,0,0,0,.96,1.35,11.274,11.274,0,0,1,1.11,1.39A8.978,8.978,0,0,1,30,26l-.13.03a12.95,12.95,0,0,0-1.35-3.18q-.225-.39-.42-.81C28.78,22.29,32.72,23.63,33.86,21.33Z" style="fill:#b8896f"/><path d="M36.88,12c-.28.28-.58.56-.88.84a14.6,14.6,0,0,0-2.02,2.15c-3.37-.85-3.89-3.11-3.96-3.79a12.155,12.155,0,0,0,2.12-1.88A5.084,5.084,0,0,0,36.88,12Z" style="fill:#b8896f"/><path d="M5,17a4.477,4.477,0,0,1-3.82,2.99A7.281,7.281,0,0,1,1,18.38V16c3,0,4-1,4-1v1.15a1.763,1.763,0,0,0,.17.76Z" style="fill:#b8896f"/><path d="M19,22v5H14a27.228,27.228,0,0,0-.33-4.01A13.782,13.782,0,0,0,19,22Z" style="fill:#b8896f"/><path d="M5,13v2s-1,1-4,1V13a2,2,0,0,1,2.11-2A1.831,1.831,0,0,1,5,13Z" style="fill:#f6ddc9"/><path d="M5.17,16.91A1.845,1.845,0,0,0,6.85,18a1.9,1.9,0,0,0,1.6-.9A4.091,4.091,0,0,1,12,15a6.958,6.958,0,0,1,4.95,2.05,5.345,5.345,0,0,1,.45.5A6.96,6.96,0,0,1,19,22a13.782,13.782,0,0,1-5.33.99C13.4,21.42,12.9,20,12,20a2.493,2.493,0,0,0-2.33,1.63A3.618,3.618,0,0,1,6,24a4.667,4.667,0,0,1-4.82-4.01A4.477,4.477,0,0,0,5,17Z" style="fill:#f6ddc9"/><path d="M20.92,21.06A29.522,29.522,0,0,0,18.04,18a5.1,5.1,0,0,0,4.82-2.68,12.155,12.155,0,0,0,2.12,1.88c-.08.68-.6,2.95-3.98,3.8Z" style="fill:#b8896f"/><path d="M20.2,7a2.459,2.459,0,0,1,2.38,3.31A5.994,5.994,0,0,0,22,13a3.536,3.536,0,0,0,.86,2.32A5.1,5.1,0,0,1,18.04,18c-.18-.18-.35-.37-.51-.56A5.6,5.6,0,0,1,16,13.67a8.473,8.473,0,0,1,2.08-5.85A2.569,2.569,0,0,1,19.99,7Z" style="fill:#f6ddc9"/><path d="M27.99,21.81a4.439,4.439,0,0,0-.77-2.43,9.665,9.665,0,0,0-2.24-2.18c-.08.68-.6,2.95-3.98,3.8l-.08.06A5.207,5.207,0,0,1,22,24.24V27h6V22A1.148,1.148,0,0,0,27.99,21.81Z" style="fill:#f6ddc9"/><path d="M39,7.67A5.885,5.885,0,0,1,36.88,12a5.084,5.084,0,0,1-4.74-2.68A3.536,3.536,0,0,0,33,7a5.994,5.994,0,0,0-.58-2.69A2.459,2.459,0,0,1,34.8,1h.21a2.569,2.569,0,0,1,1.91.82A8.473,8.473,0,0,1,39,7.67Z" style="fill:#f6ddc9"/><path d="M33.86,21.33c-1.14,2.3-5.08.96-5.76.71a1.627,1.627,0,0,1-.11-.23,4.439,4.439,0,0,0-.77-2.43A9.946,9.946,0,0,1,27,17.27V16c0-2.39,1.51-3.64,3.02-4.8.07.68.59,2.94,3.96,3.79A5.018,5.018,0,0,0,33,18,6.881,6.881,0,0,0,33.86,21.33Z" style="fill:#f6ddc9"/><path d="M30,26a8.978,8.978,0,0,0,5.93-1.93.55.55,0,0,1,.07.09V27H30a4.178,4.178,0,0,0-.13-.97Z" style="fill:#f6ddc9"/><path d="M45.96,18a29.522,29.522,0,0,0-2.88,3.06L43,21c-3.38-.85-3.9-3.12-3.98-3.8a12.155,12.155,0,0,0,2.12-1.88A5.1,5.1,0,0,0,45.96,18Z" style="fill:#b8896f"/><path d="M43,21c-3.38-.85-3.9-3.12-3.98-3.8C37.51,18.36,36,19.61,36,22v5h6V24.24a5.207,5.207,0,0,1,1.08-3.18Z" style="fill:#f6ddc9"/><path d="M45.92,7.82A8.473,8.473,0,0,1,48,13.67a5.6,5.6,0,0,1-1.53,3.77c-.16.19-.33.38-.51.56a5.1,5.1,0,0,1-4.82-2.68A3.536,3.536,0,0,0,42,13a5.994,5.994,0,0,0-.58-2.69A2.459,2.459,0,0,1,43.8,7h.21A2.569,2.569,0,0,1,45.92,7.82Z" style="fill:#f6ddc9"/><path d="M63,16v2.38a7.281,7.281,0,0,1-.18,1.61A4.477,4.477,0,0,1,59,17h-.22a1.633,1.633,0,0,0,.22-.85V15S60,16,63,16Z" style="fill:#b8896f"/><path d="M50.33,22.99c-.03.17-.06.34-.08.51A28.272,28.272,0,0,0,50,27H45V22A13.782,13.782,0,0,0,50.33,22.99Z" style="fill:#b8896f"/><path d="M63,13v3c-3,0-4-1-4-1V13a1.831,1.831,0,0,1,1.89-2,2.169,2.169,0,0,1,1.49.55A1.933,1.933,0,0,1,63,13Z" style="fill:#f6ddc9"/><path d="M62.82,19.99A4.667,4.667,0,0,1,58,24a3.618,3.618,0,0,1-3.67-2.37A2.493,2.493,0,0,0,52,20c-.9,0-1.4,1.42-1.67,2.99A13.782,13.782,0,0,1,45,22a7.007,7.007,0,0,1,7-7,3.81,3.81,0,0,1,2.29.72,4.693,4.693,0,0,1,1.26,1.38,1.9,1.9,0,0,0,1.6.9,1.833,1.833,0,0,0,1.63-1H59A4.477,4.477,0,0,0,62.82,19.99Z" style="fill:#f6ddc9"/><path d="M33.48,46.26,36,45v4l-2.52-1.26A3.253,3.253,0,0,1,31,49a3.7,3.7,0,0,1-3-2,3.7,3.7,0,0,1,3-2A3.253,3.253,0,0,1,33.48,46.26Z" style="fill:#6d805f"/><path d="M32,40c5.52,0,10,3.13,10,7s-4.48,7-10,7-10-3.13-10-7S26.48,40,32,40Zm4,9V45l-2.52,1.26A3.253,3.253,0,0,0,31,45a3.7,3.7,0,0,0-3,2,3.7,3.7,0,0,0,3,2,3.253,3.253,0,0,0,2.48-1.26Z" style="fill:#dddcd7"/><polygon points="30 27 36 27 37 27 42 27 45 27 50 27 52 27 52 33 50 33 14 33 12 33 12 27 14 27 19 27 22 27 28 27 30 27" style="fill:#dddcd7"/><path d="M50,33V61a2.006,2.006,0,0,1-2,2H16a2.006,2.006,0,0,1-2-2V33ZM42,47c0-3.87-4.48-7-10-7s-10,3.13-10,7,4.48,7,10,7S42,50.87,42,47Z" style="fill:#6293b1"/><path d="M17,27v1a2,2,0,0,0,2,2H52v3H12V27Z" style="fill:#c9c6c8"/><path d="M19,59V40a4,4,0,0,1,4-4H50V33H14V61a2.006,2.006,0,0,0,2,2h7A4,4,0,0,1,19,59Z" style="fill:#3a73a0"/><path d="M47,60.5H45v-1h1.5V58h1v2A.5.5,0,0,1,47,60.5Z" style="fill:#99c3de"/><rect x="46.5" y="56" width="1" height="1" style="fill:#99c3de"/><rect x="18" y="27" width="20" height="2" rx="1" style="fill:#edece7"/><rect x="40.105" y="27" width="5.895" height="2" rx="1" style="fill:#edece7"/><path d="M3,19V15.818A10.181,10.181,0,0,1,1,16v2.38a7.281,7.281,0,0,0,.18,1.61,3.821,3.821,0,0,0,1.862-.552A3.27,3.27,0,0,1,3,19Z" style="fill:#a17259"/><path d="M17.844,25a1.992,1.992,0,0,1-1.979-1.722c-.02-.148-.045-.3-.071-.461a19.99,19.99,0,0,1-2.124.173A27.228,27.228,0,0,1,14,27h5V25Z" style="fill:#a17259"/><path d="M3,12a.993.993,0,0,1,.644-.928A2.159,2.159,0,0,0,3.11,11,2,2,0,0,0,1,13v3a10.181,10.181,0,0,0,2-.182Z" style="fill:#efc1aa"/><path d="M12,18c-4,0-3,4-6,4a2.812,2.812,0,0,1-2.958-2.562,3.821,3.821,0,0,1-1.862.552A4.667,4.667,0,0,0,6,24a3.618,3.618,0,0,0,3.67-2.37A2.493,2.493,0,0,1,12,20c.9,0,1.4,1.42,1.67,2.99a19.99,19.99,0,0,0,2.124-.173C15.446,20.763,14.513,18,12,18Z" style="fill:#efc1aa"/><path d="M23.428,19.859a9.536,9.536,0,0,0-2.478-2.576A5.869,5.869,0,0,1,18.04,18a29.522,29.522,0,0,1,2.88,3.06L21,21A6.265,6.265,0,0,0,23.428,19.859Z" style="fill:#a17259"/><path d="M18,14c-.741-2.222,1.261-4.992,2.35-6.28a2.039,2.039,0,0,1,.745-.55A2.628,2.628,0,0,0,20.2,7h-.21a2.569,2.569,0,0,0-1.91.82A8.473,8.473,0,0,0,16,13.67a5.6,5.6,0,0,0,1.53,3.77c.16.19.33.38.51.56a5.869,5.869,0,0,0,2.91-.717C19.7,16.291,18.449,15.346,18,14Z" style="fill:#efc1aa"/><path d="M26,25a2,2,0,0,1-2-2V22a4.242,4.242,0,0,0-.572-2.141A6.265,6.265,0,0,1,21,21l-.08.06A5.207,5.207,0,0,1,22,24.24V27h6V25Z" style="fill:#efc1aa"/><path d="M33.486,24a2.055,2.055,0,0,1-1.93-1.36,9.448,9.448,0,0,1-3.456-.6q.2.42.42.81a12.95,12.95,0,0,1,1.35,3.18L30,26a8.978,8.978,0,0,0,5.93-1.93,10.32,10.32,0,0,0-.751-.976A2.042,2.042,0,0,1,33.486,24Z" style="fill:#a17259"/><path d="M31.439,13.747a8.709,8.709,0,0,0,2.549-2.5A4.768,4.768,0,0,1,32.14,9.32a12.155,12.155,0,0,1-2.12,1.88A3.988,3.988,0,0,0,31.439,13.747Z" style="fill:#a17259"/><path d="M33.988,11.247A10.672,10.672,0,0,0,35,9c1.1-3.292.69-5.38.1-6.594a.977.977,0,0,1,.537-1.326A2.724,2.724,0,0,0,35.01,1H34.8a2.459,2.459,0,0,0-2.38,3.31A5.994,5.994,0,0,1,33,7a3.536,3.536,0,0,1-.86,2.32A4.768,4.768,0,0,0,33.988,11.247Z" style="fill:#efc1aa"/><path d="M31.556,22.64c-.007-.018-.02-.031-.026-.049l-1.1-3.3a6.534,6.534,0,0,1-.258-3.362,3.422,3.422,0,0,1,1.267-2.18A3.988,3.988,0,0,1,30.02,11.2C28.51,12.36,27,13.61,27,16v1.27a9.946,9.946,0,0,0,.22,2.11,4.439,4.439,0,0,1,.77,2.43,1.627,1.627,0,0,0,.11.23A9.448,9.448,0,0,0,31.556,22.64Z" style="fill:#efc1aa"/><path d="M29.87,26.03A4.178,4.178,0,0,1,30,27h6V24.16a.55.55,0,0,0-.07-.09A8.978,8.978,0,0,1,30,26Z" style="fill:#d1a995"/><path d="M42.6,17A4.769,4.769,0,0,1,41.14,15.32a12.155,12.155,0,0,1-2.12,1.88,3.978,3.978,0,0,0,1.015,2.154C40.726,18.5,41.674,17.969,42.6,17Z" style="fill:#a17259"/><path d="M39,23a5.366,5.366,0,0,1,1.035-3.646A3.978,3.978,0,0,1,39.02,17.2C37.51,18.36,36,19.61,36,22v5h6V25H41A2,2,0,0,1,39,23Z" style="fill:#efc1aa"/><path d="M42.6,17A7.967,7.967,0,0,0,44,15a7.509,7.509,0,0,0-.185-6.586.991.991,0,0,1,.625-1.371A2.678,2.678,0,0,0,44.01,7H43.8a2.459,2.459,0,0,0-2.38,3.31A5.994,5.994,0,0,1,42,13a3.536,3.536,0,0,1-.86,2.32A4.769,4.769,0,0,0,42.6,17Z" style="fill:#efc1aa"/><path d="M61,16a16.047,16.047,0,0,1-.292,3.274,3.822,3.822,0,0,0,2.112.716A7.281,7.281,0,0,0,63,18.38V16a10.181,10.181,0,0,1-2-.182Z" style="fill:#a17259"/><path d="M48.135,23.278A1.992,1.992,0,0,1,46.156,25H45v2h5a28.272,28.272,0,0,1,.25-3.5c.02-.17.05-.34.08-.51a19.99,19.99,0,0,1-2.124-.173C48.18,22.975,48.155,23.13,48.135,23.278Z" style="fill:#a17259"/><path d="M61,13v2.818A10.181,10.181,0,0,0,63,16V13a1.933,1.933,0,0,0-.62-1.45A1.971,1.971,0,0,0,62,11.28,1.991,1.991,0,0,0,61,13Z" style="fill:#efc1aa"/><path d="M57,22c-1-1-1-4-5-4-2.513,0-3.446,2.763-3.794,4.817a19.99,19.99,0,0,0,2.124.173C50.6,21.42,51.1,20,52,20a2.493,2.493,0,0,1,2.33,1.63A3.618,3.618,0,0,0,58,24a4.667,4.667,0,0,0,4.82-4.01,3.822,3.822,0,0,1-2.112-.716C59.93,22.961,57.81,22.81,57,22Z" style="fill:#efc1aa"/><path d="M43,47c0-4.411-4.935-8-11-8s-11,3.589-11,8,4.935,8,11,8S43,51.411,43,47ZM23,47c0-3.309,4.037-6,9-6s9,2.691,9,6-4.037,6-9,6S23,50.309,23,47Z"/><path d="M60.9,10A2.821,2.821,0,0,0,58,13v3.146a.856.856,0,0,1-.854.854.876.876,0,0,1-.742-.43A5.081,5.081,0,0,0,52,14a7.949,7.949,0,0,0-3.074.616A6.273,6.273,0,0,0,49,13.667a9.4,9.4,0,0,0-2.341-6.52A3.588,3.588,0,0,0,44.005,6H43.8a3.546,3.546,0,0,0-2.926,1.505,3.43,3.43,0,0,0-.387,3.156l.115.3A4.52,4.52,0,0,1,41,13c0,1.352-.917,2.123-2.413,3.271-1.473,1.129-3.259,2.53-3.532,5.073A5.876,5.876,0,0,1,34,18c0-1.944,1.242-3.1,2.681-4.434C38.236,12.121,40,10.484,40,7.667a9.4,9.4,0,0,0-2.341-6.52A3.588,3.588,0,0,0,35.005,0H34.8a3.546,3.546,0,0,0-2.926,1.505,3.43,3.43,0,0,0-.387,3.156l.115.3A4.52,4.52,0,0,1,32,7c0,1.352-.917,2.123-2.413,3.271C27.989,11.5,26,13.022,26,16h2a3.966,3.966,0,0,1,1.518-3.091,5.633,5.633,0,0,0,3.006,2.647A5.89,5.89,0,0,0,32,18a7.906,7.906,0,0,0,.69,3.222,1.2,1.2,0,0,1-.3.221,5.7,5.7,0,0,1-3.45-.181c-.3-2.492-2.068-3.874-3.525-4.991C23.917,15.123,23,14.352,23,13a4.52,4.52,0,0,1,.4-2.037l.115-.3a3.43,3.43,0,0,0-.387-3.156A3.546,3.546,0,0,0,20.2,6H20a3.588,3.588,0,0,0-2.654,1.147A9.4,9.4,0,0,0,15,13.667a6.273,6.273,0,0,0,.074.949A7.949,7.949,0,0,0,12,14a5.079,5.079,0,0,0-4.4,2.569A.878.878,0,0,1,6.854,17,.856.856,0,0,1,6,16.146V13a2.821,2.821,0,0,0-2.895-3A2.987,2.987,0,0,0,0,13v5.385C0,21.678,1.855,25,6,25a4.606,4.606,0,0,0,4.6-3.012,1.543,1.543,0,0,1,1.326-1.007c.495.311.952,2.573,1.055,5.019H12a1,1,0,0,0-1,1v6a1,1,0,0,0,1,1H49V61a1,1,0,0,1-1,1H16a1,1,0,0,1-1-1V36H13V61a3,3,0,0,0,3,3H48a3,3,0,0,0,3-3V34h1a1,1,0,0,0,1-1V27a1,1,0,0,0-1-1h-.978c.1-2.445.551-4.706.978-5a1.51,1.51,0,0,1,1.4.987A4.608,4.608,0,0,0,58,25c4.145,0,6-3.322,6-6.615V13A2.987,2.987,0,0,0,60.9,10ZM42.518,8.645A1.525,1.525,0,0,1,43.8,8h.205a1.585,1.585,0,0,1,1.176.495A7.432,7.432,0,0,1,47,13.667a4.784,4.784,0,0,1-1.447,3.294,4.186,4.186,0,0,1-3.215-1.6A4.406,4.406,0,0,0,43,13a6.441,6.441,0,0,0-.53-2.753l-.11-.287A1.407,1.407,0,0,1,42.518,8.645ZM46,23.4a17.453,17.453,0,0,0,3.16.523c-.08.709-.123,1.418-.144,2.08H46Zm-5-6.5A5.832,5.832,0,0,0,43.828,18.7c-.376.372-.749.763-1.1,1.181a3.721,3.721,0,0,1-2.6-2.271C40.419,17.382,40.713,17.145,41,16.893Zm3.029,4.559c-.013.182-.028.363-.028.548v4H43V24.238A4.415,4.415,0,0,1,44.028,21.452ZM37,22a3.966,3.966,0,0,1,1.518-3.091A5.656,5.656,0,0,0,41.6,21.588a6.036,6.036,0,0,0-.6,2.65V26H37ZM33.518,2.645A1.525,1.525,0,0,1,34.8,2h.205a1.585,1.585,0,0,1,1.176.5A7.432,7.432,0,0,1,38,7.667a4.622,4.622,0,0,1-1.505,3.288,4.175,4.175,0,0,1-3.157-1.6A4.406,4.406,0,0,0,34,7a6.441,6.441,0,0,0-.53-2.753l-.11-.287A1.407,1.407,0,0,1,33.518,2.645ZM31.124,11.61c.3-.228.589-.465.875-.717a5.807,5.807,0,0,0,2.715,1.777,14.287,14.287,0,0,0-1.108,1.167A3.675,3.675,0,0,1,31.124,11.61ZM29,23.358a9.357,9.357,0,0,0,2.2.295,4.8,4.8,0,0,0,2.023-.394,3.435,3.435,0,0,0,.52-.307c.11.137.22.274.34.4A11.015,11.015,0,0,1,35,24.49V26H29Zm-3.518-4.449A3.966,3.966,0,0,1,27,22v4H23V24.238a6.036,6.036,0,0,0-.6-2.65A5.656,5.656,0,0,0,25.482,18.909ZM23,16.893c.286.252.58.489.875.717a3.721,3.721,0,0,1-2.6,2.271c-.351-.418-.724-.809-1.1-1.181A5.832,5.832,0,0,0,23,16.893Zm-3.029,4.559A4.415,4.415,0,0,1,21,24.238V26H20V22C20,21.815,19.985,21.634,19.972,21.452ZM18.819,8.495A1.585,1.585,0,0,1,20,8h.2a1.525,1.525,0,0,1,1.282.645A1.407,1.407,0,0,1,21.64,9.96l-.11.287A6.441,6.441,0,0,0,21,13a4.415,4.415,0,0,0,.666,2.364,4.154,4.154,0,0,1-3.2,1.615A4.8,4.8,0,0,1,17,13.667,7.432,7.432,0,0,1,18.819,8.495ZM2,13a1.016,1.016,0,0,1,1.105-1c.74,0,.9.544.9,1v1.457a5.726,5.726,0,0,1-2,.494Zm0,5.385V16.959a9.079,9.079,0,0,0,2.044-.373c.005.03,0,.063.01.093h0a3.772,3.772,0,0,1-2.037,2.127C2,18.627,2,18.481,2,18.385ZM12,19a3.5,3.5,0,0,0-3.268,2.265A2.625,2.625,0,0,1,6,23a3.54,3.54,0,0,1-3.516-2.221A5.236,5.236,0,0,0,5.329,18.55,2.838,2.838,0,0,0,6.854,19,2.867,2.867,0,0,0,9.3,17.623,3.138,3.138,0,0,1,12,16a6.006,6.006,0,0,1,5.959,5.325,14.682,14.682,0,0,1-3.465.619C14.073,20.287,13.322,19,12,19Zm6,4.4V26H14.984c-.021-.662-.064-1.371-.144-2.08A17.453,17.453,0,0,0,18,23.4ZM51,32H13V28H51Zm7-9a2.627,2.627,0,0,1-2.733-1.736A3.5,3.5,0,0,0,52,19c-1.322,0-2.073,1.287-2.494,2.944a14.682,14.682,0,0,1-3.465-.619A6.006,6.006,0,0,1,52,16a3.14,3.14,0,0,1,2.7,1.624,2.839,2.839,0,0,0,3.967.926,5.236,5.236,0,0,0,2.845,2.229A3.54,3.54,0,0,1,58,23Zm4-4.615c0,.1,0,.242-.016.421a3.772,3.772,0,0,1-2.037-2.127h0c.006-.03.005-.063.01-.093A9.079,9.079,0,0,0,62,16.959Zm0-3.434a5.726,5.726,0,0,1-2-.494V13c0-.456.155-1,.9-1A1.016,1.016,0,0,1,62,13Z"/><path d="M35.553,49.9A1,1,0,0,0,37,49V45a1,1,0,0,0-1.447-.9l-1.871.936A4.027,4.027,0,0,0,31,44a4.693,4.693,0,0,0-3.895,2.553,1,1,0,0,0,0,.894A4.693,4.693,0,0,0,31,50a4.027,4.027,0,0,0,2.682-1.041ZM35,46.618v.764L34.235,47Zm-2.28.475A2.248,2.248,0,0,1,31,48a2.386,2.386,0,0,1-1.8-1A2.39,2.39,0,0,1,31,46a2.248,2.248,0,0,1,1.72.907.8.8,0,0,0,.091.093A.8.8,0,0,0,32.72,47.093Z"/></g></svg>