<svg xmlns="http://www.w3.org/2000/svg" viewBox="0 0 64 64"><g id="_23-service" data-name="23-service"><rect x="13" y="9" width="38" height="46" style="fill:#80dbff"/><path d="M51,55v4a4,4,0,0,1-4,4H17a4,4,0,0,1-4-4V55Z" style="fill:#f0f0f0"/><path d="M51,5V9H13V5a4,4,0,0,1,4-4H47A4,4,0,0,1,51,5Z" style="fill:#f0f0f0"/><rect x="13" y="9" width="4" height="46" style="fill:#19cffc"/><rect x="47" y="9" width="4" height="46" style="fill:#19cffc"/><path d="M17,59V55H13v4a4,4,0,0,0,4,4h4A4,4,0,0,1,17,59Z" style="fill:#d9d9d9"/><path d="M21,1H17a4,4,0,0,0-4,4V9h4V5A4,4,0,0,1,21,1Z" style="fill:#d9d9d9"/><path d="M47,59V55h4v4a4,4,0,0,1-4,4H43A4,4,0,0,0,47,59Z" style="fill:#d9d9d9"/><path d="M43,1h4a4,4,0,0,1,4,4V9H47V5A4,4,0,0,0,43,1Z" style="fill:#d9d9d9"/><rect x="27" y="4" width="10" height="2" style="fill:#6e6e6e"/><rect x="27" y="58" width="10" height="2" style="fill:#6e6e6e"/><rect x="46" y="12" width="2" height="2" style="fill:#4ab8f7"/><rect x="46" y="16" width="2" height="13" style="fill:#4ab8f7"/><path d="M45.19,37.06a6.018,6.018,0,0,1,1.45,6.33L43.6,40.35a2.3,2.3,0,1,0-3.25,3.25l3.04,3.04a6.108,6.108,0,0,1-7.78-7.77L32,35.26,35.26,32l3.61,3.61A6,6,0,0,1,45.19,37.06Z" style="fill:#ffcf94"/><path d="M32,28.74,28.74,32l-3.61-3.61a6.108,6.108,0,0,1-7.77-7.78l3.04,3.04a2.3,2.3,0,1,0,3.25-3.25l-3.04-3.04a6.108,6.108,0,0,1,7.78,7.77Z" style="fill:#ffcf94"/><path d="M46.64,20.61a6.108,6.108,0,0,1-7.77,7.78L35.26,32,32,35.26l-3.61,3.61a6.108,6.108,0,0,1-7.78,7.77l3.04-3.04a2.3,2.3,0,1,0-3.25-3.25l-3.04,3.04a6.108,6.108,0,0,1,7.77-7.78L28.74,32,32,28.74l3.61-3.61a6.108,6.108,0,0,1,7.78-7.77L40.35,20.4a2.3,2.3,0,1,0,3.25,3.25Z" style="fill:#ffac5a"/><path d="M47,0H17a5.006,5.006,0,0,0-5,5V59a5.006,5.006,0,0,0,5,5H47a5.006,5.006,0,0,0,5-5V5A5.006,5.006,0,0,0,47,0ZM17,2H47a3,3,0,0,1,3,3V8H14V5A3,3,0,0,1,17,2Zm33,8V54H14V10ZM47,62H17a3,3,0,0,1-3-3V56H50v3A3,3,0,0,1,47,62Z"/><rect x="27" y="4" width="10" height="2"/><rect x="27" y="58" width="10" height="2"/><path d="M24.853,29.526,27.329,32l-2.473,2.473a7.116,7.116,0,0,0-8.433,9.261,1,1,0,0,0,1.644.358l3.038-3.038a1.453,1.453,0,0,1,.993-.433,1.265,1.265,0,0,1,.919.36,1.251,1.251,0,0,1,.36.919,1.453,1.453,0,0,1-.433.993l-3.038,3.038a1,1,0,0,0,.358,1.644,6.776,6.776,0,0,0,2.36.423,7.147,7.147,0,0,0,6.9-8.856L32,36.671l2.476,2.476a7.048,7.048,0,0,0,1.879,6.75A7.13,7.13,0,0,0,41.38,48a6.737,6.737,0,0,0,2.359-.424,1,1,0,0,0,.358-1.643l-3.04-3.04a1.443,1.443,0,0,1-.432-.989,1.245,1.245,0,0,1,.362-.917,1.266,1.266,0,0,1,.917-.362,1.443,1.443,0,0,1,.989.432l3.04,3.04a1,1,0,0,0,1.643-.358,7.117,7.117,0,0,0-8.429-9.265L36.671,32l2.473-2.473a7.116,7.116,0,0,0,8.433-9.261,1,1,0,0,0-1.644-.358L42.9,22.944a1.453,1.453,0,0,1-.993.433,1.27,1.27,0,0,1-.919-.36,1.251,1.251,0,0,1-.36-.919,1.453,1.453,0,0,1,.433-.993l3.038-3.038a1,1,0,0,0-.358-1.644,7.116,7.116,0,0,0-9.261,8.433L32,27.329l-2.476-2.476a7.117,7.117,0,0,0-9.265-8.429,1,1,0,0,0-.358,1.643l3.04,3.04a1.443,1.443,0,0,1,.432.989,1.248,1.248,0,0,1-.366.921,1.232,1.232,0,0,1-.877.359,1.5,1.5,0,0,1-1.025-.433l-3.04-3.04a1,1,0,0,0-1.643.358,7.117,7.117,0,0,0,8.429,9.265Zm13.31,6.791a1,1,0,0,0,1.057.23,5.009,5.009,0,0,1,5.263,1.22A5.132,5.132,0,0,1,46,41.337l-1.694-1.694a3.433,3.433,0,0,0-2.362-1.018,3.372,3.372,0,0,0-2.372.948,3.225,3.225,0,0,0-.948,2.372,3.433,3.433,0,0,0,1.018,2.362L41.337,46a5.132,5.132,0,0,1-3.57-1.518,5.01,5.01,0,0,1-1.22-5.263,1,1,0,0,0-.23-1.057l-2.905-2.906,1.845-1.845ZM36.549,24.785a5.014,5.014,0,0,1,1.218-5.27A5.121,5.121,0,0,1,41.333,18l-1.691,1.692a3.438,3.438,0,0,0-1.018,2.363,3.229,3.229,0,0,0,.945,2.377,3.191,3.191,0,0,0,2.377.945,3.438,3.438,0,0,0,2.363-1.018L46,22.667a5.121,5.121,0,0,1-1.516,3.566,5.009,5.009,0,0,1-5.27,1.218,1,1,0,0,0-1.057.231L27.682,38.158a1,1,0,0,0-.231,1.057,5.014,5.014,0,0,1-1.218,5.27A5.121,5.121,0,0,1,22.667,46l1.691-1.692a3.438,3.438,0,0,0,1.018-2.363,3.23,3.23,0,0,0-3.247-3.323h-.075a3.438,3.438,0,0,0-2.363,1.018L18,41.333a5.121,5.121,0,0,1,1.516-3.566,5.01,5.01,0,0,1,5.27-1.218,1,1,0,0,0,1.057-.231L36.318,25.842A1,1,0,0,0,36.549,24.785Zm-16.856-.428a3.421,3.421,0,0,0,2.434,1.019h.011a3.24,3.24,0,0,0,3.237-3.321,3.433,3.433,0,0,0-1.018-2.362L22.663,18a5.132,5.132,0,0,1,3.57,1.518,5.01,5.01,0,0,1,1.22,5.263,1,1,0,0,0,.23,1.057l2.905,2.906-1.845,1.845-2.906-2.905a1,1,0,0,0-1.057-.23,5,5,0,0,1-5.263-1.22A5.132,5.132,0,0,1,18,22.663Z"/></g></svg>