<svg xmlns="http://www.w3.org/2000/svg" viewBox="0 0 64 64"><g id="Layer_2" data-name="Layer 2"><path d="M57,30.08c0,2.761-3.582,3-8,3s-8-.239-8-3,3.582-7,8-7S57,27.318,57,30.08Z" style="fill:#629955"/><path d="M56.99,29.826l-.011-.019A5.947,5.947,0,0,0,54,29h-.014a3.552,3.552,0,0,1-2.25-.7,6,6,0,0,0-8.349.863,5.57,5.57,0,0,0-2.241-.1A4.046,4.046,0,0,0,41,30.08c0,2.761,3.582,3,8,3C53.55,33.08,57.213,32.827,56.99,29.826Z" style="fill:#508c3f"/><path d="M29.743,15.273a5.972,5.972,0,0,0-7.128-4.106,6,6,0,0,0-9.23,0,5.974,5.974,0,0,0-7.13,4.108C4.222,16.3,3,17.591,3,19c0,3.314,6.716,6,15,6s15-2.686,15-6C33,17.591,31.777,16.3,29.743,15.273Z" style="fill:#629955"/><path d="M29.743,15.273a5.972,5.972,0,0,0-7.128-4.106A5.989,5.989,0,0,0,18.7,9.041,3.918,3.918,0,0,0,17,12c0,3.314,5.82,6,13,6,.934,0,1.843-.048,2.722-.134A6.339,6.339,0,0,0,29.743,15.273Z" style="fill:#508c3f"/><path d="M21,22c-8.284,0-15-2.686-15-6a2.46,2.46,0,0,1,.094-.637C4.162,16.372,3,17.63,3,19c0,3.314,6.716,6,15,6,7.748,0,14.121-2.35,14.914-5.365C30.174,21.07,25.864,22,21,22Z" style="fill:#508c3f"/><path d="M44.828,25h.515a4,4,0,0,0,2.829-1.172L58,14l-3-3-8.828,8.828A4,4,0,0,1,43.343,21H36a2,2,0,0,1-2-2V15H30v4a2.033,2.033,0,0,1-2.074,2A7,7,0,0,0,21,28v3a4,4,0,0,1-4,4H13a2,2,0,0,1-2-2V31H7v4a4,4,0,0,0,4,4H23a4,4,0,0,1,4,4v1.1a16,16,0,0,1-1.019,5.618L22.013,60.3A2,2,0,0,0,23.886,63H36.734a2,2,0,0,0,1.985-2.248L37.124,47.988A15.857,15.857,0,0,1,37,46V40.828A7.828,7.828,0,0,0,29.15,33a4.089,4.089,0,0,1-4.038-3.039A4.007,4.007,0,0,1,29,25h3.343a4,4,0,0,1,2.829,1.172L45,36l3-3-4.586-4.586A2,2,0,0,1,44.828,25Z" style="fill:#c67a60"/><path d="M34.368,34.984c-.035.1-.083.19-.113.291C32.222,36.3,31,37.591,31,39c0,1.961,2.363,3.7,6,4.792V40.828A7.8,7.8,0,0,0,34.368,34.984Z" style="fill:#b26049"/><path d="M43.414,28.414c-.044-.044-.066-.1-.105-.143a6.024,6.024,0,0,0-.924.9A6.015,6.015,0,0,0,41,29a5.931,5.931,0,0,0-2.455.545L45,36l3-3Z" style="fill:#b26049"/><path d="M47.988,18.012c1.041.731,2.827.967,4.962,1.038L58,14l-3-3Z" style="fill:#b26049"/><path d="M30,18.922c.654.046,1.318.078,2,.078s1.346-.032,2-.078V15H30Z" style="fill:#b26049"/><path d="M38.625,60h-.438a9.831,9.831,0,0,1-9.206-13.283h0A16,16,0,0,0,30,41.1V40a4,4,0,0,0-4-4H14a4,4,0,0,1-4-4V31H7v4a4,4,0,0,0,4,4H23a4,4,0,0,1,4,4v1.1a16,16,0,0,1-1.019,5.618L22.013,60.3A2,2,0,0,0,23.886,63H36.734a2,2,0,0,0,1.985-2.248Z" style="fill:#b26049"/><path d="M17,30c0,2.761-3.582,3-8,3s-8-.239-8-3,3.582-7,8-7S17,27.239,17,30Z" style="fill:#85b27c"/><path d="M12,30c-4.418,0-8-.239-8-3a5.516,5.516,0,0,1,.916-2.76C2.574,25.7,1,28.172,1,30c0,2.761,3.582,3,8,3s8-.239,8-3c0-.1-.015-.2-.024-.309A27.933,27.933,0,0,1,12,30Z" style="fill:#699b5d"/><path d="M63,14.08c0,2.761-3.582,3-8,3s-8-.239-8-3,3.582-7,8-7S63,11.318,63,14.08Z" style="fill:#85b27c"/><path d="M58,14.08c-4.418,0-8-.239-8-3a5.522,5.522,0,0,1,.916-2.761C48.574,9.784,47,12.252,47,14.08c0,2.761,3.582,3,8,3s8-.239,8-3c0-.1-.015-.206-.024-.309A28.027,28.027,0,0,1,58,14.08Z" style="fill:#699b5d"/><path d="M42.924,7.755a3.981,3.981,0,0,0-5.99-4.165,5.993,5.993,0,0,0-9.608-.347A3.947,3.947,0,0,0,26,3a4,4,0,0,0-4,4c0,.055.014.105.016.159C20.134,8.2,19,9.539,19,11c0,3.314,5.82,6,13,6s13-2.686,13-6A4.183,4.183,0,0,0,42.924,7.755Z" style="fill:#85b27c"/><path d="M40.732,7a1,1,0,0,1-.866-.5A1,1,0,0,0,39,6a1,1,0,0,1,0-2,3.014,3.014,0,0,1,2.6,1.5A1,1,0,0,1,40.732,7Z" style="fill:#fff"/><path d="M36,14c-7.18,0-13-2.686-13-6,0-1.461,1.134-2.8,3.016-3.841,0-.054-.016-.1-.016-.159a3.971,3.971,0,0,1,.137-.987C26.091,3.011,26.047,3,26,3a4,4,0,0,0-4,4c0,.055.014.105.016.159C20.134,8.2,19,9.539,19,11c0,3.314,5.82,6,13,6,6.053,0,11.125-1.912,12.572-4.5A23.308,23.308,0,0,1,36,14Z" style="fill:#699b5d"/><path d="M59.743,35.273a5.972,5.972,0,0,0-7.128-4.106,6,6,0,0,0-9.23,0,5.974,5.974,0,0,0-7.13,4.108C34.222,36.3,33,37.591,33,39c0,3.314,6.716,6,15,6s15-2.686,15-6C63,37.591,61.777,36.3,59.743,35.273Z" style="fill:#85b27c"/><path d="M51,42c-8.284,0-15-2.686-15-6a2.46,2.46,0,0,1,.094-.637C34.162,36.372,33,37.63,33,39c0,3.314,6.716,6,15,6,7.748,0,14.121-2.35,14.914-5.365C60.174,41.07,55.864,42,51,42Z" style="fill:#699b5d"/><path d="M60.562,34.573a7,7,0,0,0-7.585-4.494,6.973,6.973,0,0,0-7.911-1.427l-.945-.945A1,1,0,0,1,44.828,26h.515a4.969,4.969,0,0,0,3.536-1.465l.427-.427a7.84,7.84,0,0,1,6.253,4.325,1,1,0,1,0,1.8-.868,10.112,10.112,0,0,0-6.294-5.218l4.267-4.267c3.762,0,8.666-.115,8.666-4,0-3.146-3.864-8-9-8s-9,4.854-9,8a3.152,3.152,0,0,0,1.621,2.885l-2.156,2.156A2.982,2.982,0,0,1,43.343,20H36a1,1,0,0,1-1-1V17.842c6.361-.67,11-3.434,11-6.842a4.83,4.83,0,0,0-2.011-3.688C44,7.208,44,7.1,44,7a5.006,5.006,0,0,0-5-5,4.906,4.906,0,0,0-1.781.339A6.993,6.993,0,0,0,27,2.109a4.981,4.981,0,0,0-5.978,4.478C19.066,7.807,18,9.358,18,11c0,3.408,4.639,6.172,11,6.842V19a1.042,1.042,0,0,1-1.085,1,8.008,8.008,0,0,0-6.739,3.857,36.522,36.522,0,0,1-6.945-.057A8.826,8.826,0,0,0,9,22a8.158,8.158,0,0,0-1.645.177.931.931,0,0,0-.126-.09C5.177,21.17,4,20.045,4,19c0-.934.986-1.966,2.705-2.833a1,1,0,0,0,.508-.605,4.969,4.969,0,0,1,5.941-3.422,1,1,0,0,0,1-.333,5.017,5.017,0,0,1,2.181-1.523A1,1,0,0,0,15.666,8.4a7.008,7.008,0,0,0-2.643,1.68,6.987,6.987,0,0,0-7.588,4.5C2.607,16.111,2,17.817,2,19c0,1.518,1.02,2.935,2.88,4.094C1.935,24.707,0,27.776,0,30c0,3,2.932,3.751,6,3.938V35a5.006,5.006,0,0,0,5,5H23a3,3,0,0,1,3,3v1.1a14.934,14.934,0,0,1-.955,5.266L21.077,59.947A3,3,0,0,0,23.886,64H36.734a3,3,0,0,0,2.977-3.372L38.116,47.863A14.929,14.929,0,0,1,38,46V44.537A31.619,31.619,0,0,0,48,46c9.121,0,16-3.01,16-7C64,37.816,63.392,36.109,60.562,34.573ZM55,8.08c3.8,0,7,3.686,7,6,0,1.673-2.566,2-7,2s-7-.327-7-2C48,11.766,51.2,8.08,55,8.08ZM20,11c0-1.021.888-2.073,2.5-2.966a1,1,0,0,0,.515-.911A.4.4,0,0,0,23,7a2.962,2.962,0,0,1,4-2.814,1,1,0,0,0,1.11-.317,4.994,4.994,0,0,1,8.007.291,1,1,0,0,0,1.342.285A2.94,2.94,0,0,1,39,4a3,3,0,0,1,3,3,3.036,3.036,0,0,1-.059.567,1,1,0,0,0,.4,1A3.376,3.376,0,0,1,44,11c0,2.365-4.928,5-12,5S20,13.365,20,11ZM18,26c.767,0,1.529-.031,2.285-.076A7.917,7.917,0,0,0,20,28v3a3,3,0,0,1-3,3H13a.986.986,0,0,1-.43-.106C15.421,33.647,18,32.816,18,30a7.182,7.182,0,0,0-1.595-4.043C16.935,25.979,17.465,26,18,26ZM2,30c0-2.314,3.2-6,7-6s7,3.686,7,6c0,1.673-2.566,2-7,2S2,31.673,2,30ZM36.132,48.112l1.595,12.764A1,1,0,0,1,36.734,62H23.886a1,1,0,0,1-.936-1.351l3.968-10.581A16.944,16.944,0,0,0,28,44.1V43a5.006,5.006,0,0,0-5-5H11a3,3,0,0,1-3-3V34l1,0c.382,0,.779,0,1.183-.005A2.994,2.994,0,0,0,13,36h4a5.006,5.006,0,0,0,5-5V28a6.02,6.02,0,0,1,5.937-6A3.023,3.023,0,0,0,31,19V17.976c.331.011.662.024,1,.024s.669-.013,1-.024V19a3,3,0,0,0,3,3h7.343a4.969,4.969,0,0,0,3.536-1.465l2.808-2.808a17.614,17.614,0,0,0,2.855.317l-5.077,5.077A2.982,2.982,0,0,1,45.343,24h-.515a3,3,0,0,0-2.121,5.121l.651.651c-.113.1-.228.2-.336.307a6.854,6.854,0,0,0-2.462.067l-4.681-4.681A4.969,4.969,0,0,0,32.343,24H29a4.973,4.973,0,0,0-3.917,1.893,5.026,5.026,0,0,0-.944,4.295,5.1,5.1,0,0,0,5,3.812h.036a6.826,6.826,0,0,1,4.545,1.739A4.282,4.282,0,0,0,32,39c0,1.853,1.5,3.489,4,4.716V46A16.781,16.781,0,0,0,36.132,48.112Zm-.7-13.537-.03.018A8.817,8.817,0,0,0,29.172,32a.215.215,0,0,0-.036,0,3.083,3.083,0,0,1-3.05-2.266A3.007,3.007,0,0,1,29,26h3.343a2.98,2.98,0,0,1,2.122.879l4.054,4.054A7.041,7.041,0,0,0,35.435,34.575ZM48,44c-8.25,0-14-2.635-14-5,0-.934.986-1.966,2.7-2.833a1,1,0,0,0,.508-.605,4.974,4.974,0,0,1,5.941-3.422,1,1,0,0,0,1-.333,5,5,0,0,1,7.692,0,1,1,0,0,0,1,.333,4.967,4.967,0,0,1,5.94,3.421,1,1,0,0,0,.509.606C61.014,37.032,62,38.065,62,39,62,41.365,56.25,44,48,44Z"/></g></svg>