<svg xmlns="http://www.w3.org/2000/svg" viewBox="0 0 64 64"><title>23-Warrior</title><g id="_23-Warrior" data-name="23-Warrior"><rect x="1" y="60" width="62" height="3" style="fill:#ff73a5"/><rect x="1" y="61.5" width="62" height="1.5" style="fill:#cf6799"/><path d="M32,18v3a1.959,1.959,0,0,1,2,2V36H26V23a1.959,1.959,0,0,1,2-2V16h4Z" style="fill:#b674f2"/><path d="M32,21V16H30v5a1.959,1.959,0,0,1,2,2V36h2V23A1.959,1.959,0,0,0,32,21Z" style="fill:#8f4cd6"/><path d="M32,12v4H28V3a1.955,1.955,0,0,1,.59-1.41A1.955,1.955,0,0,1,30,1a2.006,2.006,0,0,1,2,2Z" style="fill:#ffdecf"/><polygon points="53 55 51 60 46 60 48 59 48 57 50 54 53 55" style="fill:#ffdecf"/><polygon points="18 57 18 60 11 60 14 57 18 57" style="fill:#ffdecf"/><path d="M28,16v5a2.938,2.938,0,0,1-3-3V15a2.938,2.938,0,0,1,3-3Z" style="fill:#ffbeaa"/><path d="M35,15l2,4-5-1V12A3,3,0,0,1,35,15Z" style="fill:#7e8596"/><path d="M33.5,16.5V12.415A2.974,2.974,0,0,0,32,12v6l5,1-1-2Z" style="fill:#707789"/><path d="M34,36v2a3.994,3.994,0,0,1-2.97,3.79l-1.77.47L19,45,18,57H14V42l12-6Z" style="fill:#7e8596"/><polygon points="15.5 43.5 27.5 37.5 34 37.5 34 36 26 36 14 42 14 57 15.5 57 15.5 43.5" style="fill:#707789"/><path d="M50,54l-2,3L36,49l-6.74-6.74,1.77-.47A3.994,3.994,0,0,0,34,38l6,8Z" style="fill:#7e8596"/><path d="M39,49l-6.74-6.74,1.77-.47a3.985,3.985,0,0,0,1.924-1.184L34,38a3.994,3.994,0,0,1-2.97,3.79l-1.77.47L36,49l12,8,.923-1.385Z" style="fill:#707789"/><path d="M34,37H26a1,1,0,0,1-1-1V23a2.818,2.818,0,0,1,2-2.833V3A2.937,2.937,0,0,1,27.893.873,2.92,2.92,0,0,1,30,0a3,3,0,0,1,3,3V20.167A2.818,2.818,0,0,1,35,23V36A1,1,0,0,1,34,37Zm-7-2h6V23a.918.918,0,0,0-1.012-1A1.012,1.012,0,0,1,31,21V3a1,1,0,0,0-1-1,.959.959,0,0,0-.693.287A.977.977,0,0,0,29,3V21a1,1,0,0,1-1,1,.915.915,0,0,0-1,1Z"/><path d="M28,22a3.888,3.888,0,0,1-4-4V15a3.888,3.888,0,0,1,4-4l.008,2A1.885,1.885,0,0,0,26,15v3a1.883,1.883,0,0,0,2,2Z"/><path d="M37,20a.932.932,0,0,1-.2-.02l-5-1,.392-1.96,3,.6L34.1,15.447A1,1,0,0,1,34,15a2,2,0,0,0-2-2V11a4,4,0,0,1,3.992,3.748l1.9,3.805A1,1,0,0,1,37,20Z"/><path d="M18,58H14a1,1,0,0,1-1-1V42a1,1,0,0,1,.553-.9l12-6,.894,1.79L15,42.618V56h2.08L18,44.917a1,1,0,0,1,.738-.883l12.031-3.211A3.005,3.005,0,0,0,33,37.983V36h2v1.93a5.038,5.038,0,0,1-3.713,4.827L19.938,45.784,19,57.083A1,1,0,0,1,18,58Z"/><path d="M48,58a1,1,0,0,1-.554-.168l-12-8a1,1,0,0,1-.152-.125l-7-7,1.414-1.414,6.93,6.93,11.086,7.39.936-1.405-9.284-7.427A1.035,1.035,0,0,1,39.2,46.6l-6-8,1.6-1.2,5.924,7.9,9.9,7.92a1,1,0,0,1,.207,1.336l-2,3A1,1,0,0,1,48,58Z"/><rect x="17" y="57" width="2" height="3"/><rect x="10.379" y="57.5" width="4.243" height="2" transform="translate(-37.705 25.973) rotate(-45)"/><path d="M51.929,60.371l-1.858-.742,1.607-4.016-1.994-.665.632-1.9,3,1a1,1,0,0,1,.613,1.319Z"/><path d="M46.447,60.9l-.894-1.79L47,58.382V57h2v2a1,1,0,0,1-.553.9Z"/><path d="M63,64H1a1,1,0,0,1-1-1V60a1,1,0,0,1,1-1H63a1,1,0,0,1,1,1v3A1,1,0,0,1,63,64ZM2,62H62V61H2Z"/><rect x="28" y="15" width="4" height="2"/></g></svg>