<?xml version="1.0" encoding="utf-8"?>
<!-- Generator: Adobe Illustrator 16.0.0, SVG Export Plug-In . SVG Version: 6.00 Build 0)  -->
<!DOCTYPE svg PUBLIC "-//W3C//DTD SVG 1.1//EN" "http://www.w3.org/Graphics/SVG/1.1/DTD/svg11.dtd">
<svg version="1.1" id="Layer_1" xmlns="http://www.w3.org/2000/svg" xmlns:xlink="http://www.w3.org/1999/xlink" x="0px" y="0px"
	 width="512px" height="512px" viewBox="0 0 512 512" enable-background="new 0 0 512 512" xml:space="preserve">
<g id="_x32_3._mafioso_x2C__hat_x2C__costume_x2C__mafia_x2C__crime_x2C__bandit">
	<g>
		<g>
			<path d="M256,359.888c-54.212,0-143.898-84.066-143.898-179.874c0-2.209,1.788-3.997,3.997-3.997
				c2.209,0,3.997,1.788,3.997,3.997c0,88.634,84.784,171.88,135.904,171.88s135.903-83.246,135.903-171.88
				c0-2.209,1.788-3.997,3.998-3.997c2.209,0,3.997,1.788,3.997,3.997C399.898,275.821,310.212,359.888,256,359.888z"/>
		</g>
	</g>
	<g>
		<g>
			<g>
				<path d="M499.827,511.78H12.172c-2.209,0-3.997-1.788-3.997-3.997v-63.955c0-34.312,17.769-47.459,50.565-59.708
					c17.854-6.651,33.922-13.092,47.756-19.15c2.045-0.874,4.387,0.039,5.27,2.061c0.882,2.022-0.039,4.38-2.053,5.263
					c-13.982,6.12-30.19,12.616-48.177,19.322c-30.736,11.476-45.366,22.219-45.366,52.213v59.958h479.662v-59.958
					c0-29.994-14.631-40.737-45.367-52.213c-18.533-6.94-34.288-13.265-48.153-19.338c-2.022-0.882-2.943-3.24-2.062-5.263
					c0.891-2.014,3.248-2.927,5.263-2.061c13.74,6.012,29.362,12.28,47.755,19.174c32.789,12.241,50.559,25.389,50.559,59.7v63.955
					C503.825,509.992,502.037,511.78,499.827,511.78z"/>
			</g>
		</g>
		<g>
			<g>
				<path d="M275.985,407.854h-39.972c-1.515,0-2.896-0.858-3.575-2.209l-7.995-15.989c-0.984-1.975-0.187-4.372,1.788-5.363
					c1.976-0.991,4.364-0.18,5.363,1.788l6.886,13.779h35.038l6.886-13.779c0.999-1.968,3.389-2.771,5.363-1.788
					c1.976,0.991,2.771,3.389,1.788,5.363l-7.994,15.989C278.882,406.995,277.5,407.854,275.985,407.854z"/>
			</g>
		</g>
		<g>
			<g>
				<path d="M228.02,447.825c-0.5,0-0.999-0.094-1.483-0.289c-2.045-0.819-3.045-3.146-2.232-5.191l15.988-39.972
					c0.82-2.046,3.17-3.037,5.199-2.226c2.046,0.82,3.045,3.146,2.233,5.192l-15.989,39.972
					C231.111,446.873,229.604,447.825,228.02,447.825z"/>
			</g>
		</g>
		<g>
			<g>
				<path d="M283.979,447.825c-1.584,0-3.083-0.952-3.708-2.514l-15.988-39.972c-0.82-2.046,0.172-4.372,2.225-5.192
					c2.046-0.827,4.372,0.18,5.192,2.226l15.988,39.972c0.819,2.046-0.172,4.372-2.225,5.191
					C284.979,447.731,284.472,447.825,283.979,447.825z"/>
			</g>
		</g>
		<g>
			<g>
				<path d="M315.364,495.792c-0.914,0-1.827-0.312-2.584-0.945c-1.687-1.429-1.897-3.95-0.469-5.637l39.113-46.248l-7.284-21.852
					c-0.437-1.312-0.164-2.764,0.726-3.826l37.63-45.163l-37.388-37.388c-1.561-1.562-1.561-4.091,0-5.652
					c1.562-1.562,4.092-1.562,5.652,0l39.973,39.972c1.459,1.46,1.568,3.794,0.241,5.387l-38.543,46.257l7.292,21.867
					c0.438,1.327,0.156,2.779-0.742,3.849l-40.564,47.966C317.628,495.308,316.496,495.792,315.364,495.792z"/>
			</g>
		</g>
		<g>
			<g>
				<path d="M291.975,495.792c-0.438,0-0.882-0.07-1.319-0.227c-2.085-0.727-3.186-3.006-2.451-5.091l55.96-159.887
					c0.733-2.085,3.006-3.186,5.091-2.451c2.084,0.726,3.185,3.005,2.451,5.09l-55.961,159.888
					C295.167,494.761,293.622,495.792,291.975,495.792z"/>
			</g>
		</g>
		<g>
			<g>
				<path d="M315.958,391.864c-0.492,0-1-0.093-1.484-0.288l-59.957-23.983c-2.046-0.819-3.045-3.146-2.233-5.191
					c0.82-2.054,3.169-3.045,5.2-2.225l59.957,23.982c2.054,0.82,3.045,3.146,2.226,5.191
					C319.041,390.912,317.542,391.864,315.958,391.864z"/>
			</g>
		</g>
		<g>
			<g>
				<path d="M196.635,495.792c-1.132,0-2.264-0.484-3.052-1.414l-40.565-47.966c-0.897-1.069-1.179-2.521-0.741-3.849l7.292-21.867
					l-38.551-46.257c-1.319-1.593-1.218-3.927,0.25-5.387l39.972-39.972c1.562-1.562,4.091-1.562,5.652,0s1.562,4.091,0,5.652
					l-37.396,37.388l37.646,45.163c0.882,1.062,1.155,2.514,0.718,3.826l-7.292,21.852l39.121,46.248
					c1.429,1.687,1.21,4.208-0.476,5.637C198.462,495.479,197.549,495.792,196.635,495.792z"/>
			</g>
		</g>
		<g>
			<g>
				<path d="M220.025,495.792c-1.655,0-3.201-1.031-3.779-2.678l-55.96-159.888c-0.718-2.085,0.375-4.364,2.459-5.09
					c2.1-0.727,4.364,0.374,5.098,2.451l55.96,159.887c0.718,2.085-0.375,4.364-2.459,5.091
					C220.907,495.722,220.462,495.792,220.025,495.792z"/>
			</g>
		</g>
		<g>
			<g>
				<path d="M196.042,391.864c-1.585,0-3.092-0.952-3.716-2.514c-0.812-2.045,0.187-4.371,2.232-5.191l59.958-23.982
					c2.021-0.812,4.38,0.179,5.199,2.225c0.812,2.045-0.188,4.372-2.232,5.191l-59.958,23.983
					C197.041,391.771,196.542,391.864,196.042,391.864z"/>
			</g>
		</g>
		<g>
			<g>
				<path d="M256,495.792c-2.21,0-3.998-1.788-3.998-3.998v-63.955c0-2.209,1.788-3.996,3.998-3.996
					c2.209,0,3.997,1.787,3.997,3.996v63.955C259.997,494.004,258.209,495.792,256,495.792z"/>
			</g>
		</g>
	</g>
	<g>
		<g>
			<path d="M252.002,176.017c-82.481,0-183.862-26.45-183.862-47.966c0-8.471,6.566-9.493,18.479-11.352
				c4.356-0.679,9.853-1.538,16.715-2.888c2.163-0.453,4.263,0.976,4.692,3.146c0.429,2.163-0.984,4.271-3.146,4.692
				c-6.987,1.382-12.585,2.256-17.027,2.951c-5.324,0.827-10.828,1.686-11.632,2.623l0,0c0,0-0.085,0.21-0.085,0.827
				c0,9.501,81.122,39.972,175.868,39.972c94.753,0,175.875-30.471,175.875-39.972c0-0.64-0.093-0.835-0.093-0.843
				c-0.789-0.921-6.301-1.78-11.633-2.607c-4.442-0.695-10.04-1.569-17.027-2.951c-2.17-0.422-3.575-2.53-3.146-4.692
				c0.421-2.17,2.561-3.599,4.691-3.146c6.862,1.351,12.358,2.209,16.715,2.888c11.922,1.858,18.487,2.881,18.487,11.352
				C435.873,149.566,334.483,176.017,252.002,176.017z"/>
		</g>
	</g>
	<g>
		<g>
			<path d="M252.002,144.039c-67.663,0-132.235-15.95-132.875-16.106c-1.054-0.265-1.952-0.944-2.498-1.881
				c-0.531-0.937-0.671-2.053-0.375-3.091c0.195-0.695,19.876-69.623,32.008-107.292c2.381-7.377,6.527-12.179,12.335-14.278
				c14.661-5.278,35.982,8.26,56.601,21.359c13.436,8.533,27.324,17.363,34.803,17.363c2.209,0,3.998,1.788,3.998,3.997
				c0,2.209-1.788,3.997-3.998,3.997c-9.797,0-23.374-8.627-39.097-18.612c-18.104-11.507-38.652-24.521-49.59-20.587
				c-3.404,1.233-5.84,4.247-7.433,9.212c-10.407,32.282-26.388,87.672-30.791,102.998c15.037,3.42,69.873,14.927,126.911,14.927
				c2.209,0,3.998,1.788,3.998,3.997S254.212,144.039,252.002,144.039z"/>
		</g>
	</g>
	<g>
		<g>
			<path d="M252.002,144.039c-2.209,0-3.997-1.788-3.997-3.997s1.788-3.997,3.997-3.997c57.038,0,111.875-11.507,126.911-14.927
				c-4.403-15.325-20.384-70.716-30.783-102.998c-1.601-4.965-4.036-7.979-7.439-9.212c-11.039-3.935-31.494,9.096-49.598,20.587
				c-15.716,9.985-29.293,18.612-39.09,18.612c-2.209,0-3.997-1.788-3.997-3.997c0-2.209,1.788-3.997,3.997-3.997
				c7.479,0,21.368-8.83,34.803-17.363C307.433,9.642,328.784-3.872,343.399,1.39c5.809,2.1,9.961,6.901,12.335,14.278
				c12.14,37.669,31.821,106.597,32.017,107.292c0.296,1.038,0.164,2.154-0.383,3.091c-0.539,0.937-1.437,1.616-2.49,1.881
				C384.237,128.089,319.666,144.039,252.002,144.039z"/>
		</g>
	</g>
	<g>
		<g>
			<path d="M252.002,128.05c-45.687,0-90.17-7.549-112.608-12.054c-2.17-0.438-3.576-2.537-3.139-4.708
				c0.438-2.162,2.53-3.591,4.7-3.13c22.156,4.442,66.047,11.898,111.046,11.898c44.992,0,88.875-7.456,111.032-11.898
				c2.131-0.453,4.27,0.96,4.707,3.13c0.438,2.171-0.968,4.271-3.131,4.708C342.157,120.501,297.682,128.05,252.002,128.05z"/>
		</g>
	</g>
	<g>
		<g>
			<path d="M395.901,184.011c-2.21,0-3.998-1.788-3.998-3.998v-7.994c0-2.209,1.788-3.998,3.998-3.998
				c2.209,0,3.997,1.788,3.997,3.998v7.994C399.898,182.223,398.11,184.011,395.901,184.011z"/>
		</g>
	</g>
	<g>
		<g>
			<path d="M116.099,184.011c-2.209,0-3.997-1.788-3.997-3.998v-7.994c0-2.209,1.788-3.998,3.997-3.998
				c2.209,0,3.997,1.788,3.997,3.998v7.994C120.096,182.223,118.308,184.011,116.099,184.011z"/>
		</g>
	</g>
	<g>
		<g>
			<path d="M275.993,335.904c-1.537,0-3.006-0.89-3.661-2.396c-0.882-2.022,0.039-4.372,2.062-5.263l0.952-0.421
				c30.4-13.312,54.415-23.835,101.241-93.622c1.241-1.834,3.739-2.311,5.543-1.093c1.834,1.226,2.326,3.708,1.093,5.543
				c-48.114,71.724-74.323,83.208-104.669,96.496l-0.96,0.421C277.079,335.795,276.532,335.904,275.993,335.904z"/>
		</g>
	</g>
	<g>
		<g>
			<path d="M236.014,335.904c-0.539,0-1.077-0.109-1.608-0.336l-0.96-0.421c-30.354-13.296-56.562-24.779-104.676-96.496
				c-1.226-1.834-0.742-4.317,1.093-5.543c1.834-1.233,4.317-0.749,5.543,1.093c46.818,69.779,70.833,80.303,101.249,93.622
				l0.968,0.421c2.014,0.891,2.936,3.24,2.053,5.263C239.02,335.015,237.552,335.904,236.014,335.904z"/>
		</g>
	</g>
	<g>
		<g>
			<path d="M275.993,335.904c-1.022,0-2.045-0.391-2.826-1.171l-7.994-7.994c-1.562-1.562-1.562-4.092,0-5.652
				c1.562-1.562,4.091-1.562,5.652,0l7.994,7.994c1.562,1.562,1.562,4.091,0,5.652C278.039,335.514,277.017,335.904,275.993,335.904
				z"/>
		</g>
	</g>
	<g>
		<g>
			<path d="M236.014,335.904c-1.022,0-2.045-0.391-2.826-1.171c-1.562-1.562-1.562-4.091,0-5.652l7.995-7.994
				c1.561-1.562,4.091-1.562,5.652,0c1.562,1.561,1.562,4.091,0,5.652l-7.994,7.994C238.06,335.514,237.037,335.904,236.014,335.904
				z"/>
		</g>
	</g>
	<g>
		<g>
			<path d="M267.999,327.91h-23.991c-2.209,0-3.998-1.788-3.998-3.997c0-2.21,1.788-3.998,3.998-3.998h23.991
				c2.209,0,3.997,1.788,3.997,3.998C271.996,326.122,270.208,327.91,267.999,327.91z"/>
		</g>
	</g>
	<g>
		<g>
			<g>
				<path d="M371.918,455.819c-2.21,0-3.997-1.787-3.997-3.997v-23.983c0-2.209,1.787-3.996,3.997-3.996s3.997,1.787,3.997,3.996
					v23.983C375.915,454.032,374.128,455.819,371.918,455.819z"/>
			</g>
		</g>
		<g>
			<g>
				<path d="M403.896,455.819c-2.209,0-3.997-1.787-3.997-3.997v-23.983c0-2.209,1.788-3.996,3.997-3.996s3.997,1.787,3.997,3.996
					v23.983C407.893,454.032,406.104,455.819,403.896,455.819z"/>
			</g>
		</g>
		<g>
			<g>
				<path d="M387.907,471.809c-11.023,0-19.986-8.963-19.986-19.986c0-2.209,1.787-3.997,3.997-3.997s3.997,1.788,3.997,3.997
					c0,6.612,5.379,11.992,11.992,11.992c6.612,0,11.991-5.38,11.991-11.992c0-2.209,1.788-3.997,3.997-3.997
					s3.997,1.788,3.997,3.997C407.893,462.846,398.931,471.809,387.907,471.809z"/>
			</g>
		</g>
		<g>
			<g>
				<path d="M387.907,439.831c-11.391,0-19.986-5.152-19.986-11.992c0-6.838,8.596-11.991,19.986-11.991
					c11.39,0,19.985,5.153,19.985,11.991C407.893,434.679,399.297,439.831,387.907,439.831z M387.907,423.843
					c-7.737,0-11.992,3.005-11.992,3.996c0,0.992,4.255,3.998,11.992,3.998c7.736,0,11.991-3.006,11.991-3.998
					C399.898,426.848,395.644,423.843,387.907,423.843z"/>
			</g>
		</g>
		<g>
			<g>
				<path d="M387.907,495.792c-2.21,0-3.998-1.788-3.998-3.998v-23.982c0-2.21,1.788-3.997,3.998-3.997
					c2.209,0,3.996,1.787,3.996,3.997v23.982C391.903,494.004,390.116,495.792,387.907,495.792z"/>
			</g>
		</g>
		<g>
			<g>
				<path d="M395.901,487.797h-15.989c-2.209,0-3.997-1.788-3.997-3.997s1.788-3.997,3.997-3.997h15.989
					c2.209,0,3.997,1.788,3.997,3.997S398.11,487.797,395.901,487.797z"/>
			</g>
		</g>
	</g>
</g>
</svg>
