<?xml version="1.0" encoding="utf-8"?>
<!-- Generator: Adobe Illustrator 16.0.0, SVG Export Plug-In . SVG Version: 6.00 Build 0)  -->
<!DOCTYPE svg PUBLIC "-//W3C//DTD SVG 1.1//EN" "http://www.w3.org/Graphics/SVG/1.1/DTD/svg11.dtd">
<svg version="1.1" xmlns="http://www.w3.org/2000/svg" xmlns:xlink="http://www.w3.org/1999/xlink" x="0px" y="0px" width="64px"
	 height="64px" viewBox="0 0 64 64" enable-background="new 0 0 64 64" xml:space="preserve">
<g id="_x32_5_purse_x2C__money_x2C__coin_x2C__banknote_x2C__payment_x2C__shop_x2C__shopping">
</g>
<g id="_x32_4_pay_x2C__click_x2C__hand_x2C__coin_x2C__money_x2C__shop_x2C__payment">
	<g>
		<circle fill="#F6BB42" cx="26.212" cy="16" r="12.472"/>
		<path fill="#EDAB37" d="M20.74,15.084c-0.275,0-0.5,1.13-0.5,2.526v9.34c0.324,0.178,0.66,0.337,1,0.485V17.61
			C21.24,16.214,21.018,15.084,20.74,15.084z"/>
		<path fill="#EDAB37" d="M31.738,18.084c-0.275,0-0.5,0.793-0.5,1.773v7.552c0.342-0.151,0.676-0.313,1-0.492v-7.06
			C32.238,18.877,32.016,18.084,31.738,18.084z"/>
		<path fill="#EDAB37" d="M36.24,23.394v-5.739c0-0.914-0.225-1.654-0.5-1.654c-0.277,0-0.5,0.74-0.5,1.654v6.935
			C35.598,24.213,35.93,23.813,36.24,23.394z"/>
		<path fill="#EDAB37" d="M16.74,15.584c-0.277,0-0.5,0.787-0.5,1.759v6.125c0.311,0.414,0.641,0.811,1,1.183v-7.308
			C17.24,16.371,17.016,15.584,16.74,15.584z"/>
		<rect x="13.74" y="12.973" fill="#F6BB42" width="24.943" height="3.027"/>
		<circle fill="#FFCE54" cx="26.212" cy="12.973" r="12.472"/>
		<g>
			<g>
				<path fill="#EDAB37" d="M25.24,16.003c-0.277,0-0.5-0.224-0.5-0.5V8.498c0-0.276,0.223-0.5,0.5-0.5c0.275,0,0.5,0.224,0.5,0.5
					v7.005C25.74,15.779,25.516,16.003,25.24,16.003z"/>
			</g>
			<g>
				<path fill="#EDAB37" d="M27.24,16.003c-0.277,0-0.5-0.224-0.5-0.5V7.5c0-0.276,0.223-0.5,0.5-0.5c0.275,0,0.5,0.224,0.5,0.5
					v8.003C27.74,15.779,27.516,16.003,27.24,16.003z"/>
			</g>
		</g>
		<g>
			<path fill="#EDAB37" d="M23.24,10c-0.184,0-0.359-0.102-0.447-0.276c-0.123-0.247-0.023-0.547,0.223-0.671l4-2
				c0.248-0.123,0.547-0.023,0.672,0.224c0.123,0.247,0.023,0.547-0.225,0.671l-4,2C23.391,9.983,23.314,10,23.24,10z"/>
		</g>
		<path fill="#F0C7B7" d="M50.24,36.708V32.5c0-1.657-1.344-3-3-3c-1.658,0-3,1.343-3,3v2c0,0.276-0.225,0.5-0.5,0.5
			c-0.277,0-0.5-0.224-0.5-0.5v-2c0-1.657-1.344-3-3-3c-1.658,0-3,1.343-3,3v2c0,0.276-0.225,0.5-0.5,0.5
			c-0.277,0-0.5-0.224-0.5-0.5v-2c0-1.657-1.344-3-3-3c-1.658,0-3,1.343-3,3v2c0,0.276-0.225,0.5-0.5,0.5
			c-0.277,0-0.5-0.224-0.5-0.5v-18c0-1.657-1.344-3-3-3c-1.658,0-3,1.343-3,3h-0.027v26.517l-3.289-4.637
			c-0.021-0.034-0.047-0.066-0.07-0.1l-0.098-0.139c0,0-0.012-0.003-0.02-0.005c-0.551-0.678-1.381-1.12-2.322-1.12
			c-1.656,0-3,1.343-3,3c0,0.051,0.014,0.098,0.016,0.147c-0.047,0.51,0.055,1.038,0.33,1.516l9,14.471
			c2.311,4.369,6.9,7.35,12.189,7.35c7.621,0,14.311-6.17,14.311-13.79L50.24,36.708z"/>
	</g>
</g>
<g id="_x32_3_card_x2C__discount_x2C__sale_x2C__shop_x2C__shopping_x2C__commerce_x2C__market">
</g>
<g id="_x32_2_safe_x2C__box_x2C__key_x2C__thing_x2C__shop_x2C__shopping_x2C__commerce">
</g>
<g id="_x32_1_cashbox_x2C__money_x2C__purchase_x2C__list_x2C__check_x2C__shop_x2C__shopping">
</g>
<g id="_x32_0_search_x2C__magnifier_x2C__basket_x2C__shop_x2C__shopping_x2C__commerce_x2C__market">
</g>
<g id="_x31_9_return_x2C__box_x2C__purchase_x2C__shipping_x2C__delivery_x2C__shop_x2C__shopping">
</g>
<g id="_x31_8_review_x2C__client_x2C__buyer_x2C__talk_x2C__shop_x2C__shopping_x2C__commerce">
</g>
<g id="_x31_7_manager_x2C__consultant_x2C__shop_x2C__shopping_x2C__commerce_x2C__market_x2C__badge">
</g>
<g id="_x31_6_check_x2C__list_x2C__cashbox_x2C__purchase_x2C__shop_x2C__shopping_x2C__commerce">
</g>
<g id="_x31_5_coupon_x2C__sale_x2C__discount_x2C__shop_x2C__shopping_x2C__commerce_x2C__market">
</g>
<g id="_x31_4_sale_x2C__discount_x2C__box_x2C__gift_x2C__shop_x2C__shopping_x2C__commerce">
</g>
<g id="_x31_3_map_x2C__pin_x2C__marker_x2C__location_x2C__shop_x2C__shopping_x2C__basket">
</g>
<g id="_x31_2_operator_x2C__call_x2C__center_x2C__shop_x2C__shopping_x2C__commerce_x2C__market">
</g>
<g id="_x31_1_courier_x2C__box_x2C__shipping_x2C__purchase_x2C__shop_x2C__shopping_x2C__commerce">
</g>
<g id="_x31_0_box_x2C__shipping_x2C__delivery_x2C__purchase_x2C__shop_x2C__shopping_x2C__commerce">
</g>
<g id="_x39__shipping_x2C__delivery_x2C__box_x2C__crane_x2C__shop_x2C__shopping_x2C__commerce">
</g>
<g id="_x38__computer_x2C__monitor_x2C__desktop_x2C__shop_x2C__shopping_x2C__commerce_x2C__market">
</g>
<g id="_x37__mobile_x2C__phone_x2C__app_x2C__shop_x2C__shopping_x2C__commerce_x2C__market">
</g>
<g id="_x36__food_x2C__market_x2C__purchase_x2C__shop_x2C__shopping_x2C__commerce_x2C__basket">
</g>
<g id="_x35__discount_x2C__sale_x2C__purchase_x2C__pocket_x2C__shop_x2C__shopping_x2C__commerce">
</g>
<g id="_x34__badge_x2C__discount_x2C__sale_x2C__shop_x2C__shopping_x2C__commerce_x2C__market">
</g>
<g id="_x33__food_x2C__pocket_x2C__purchase_x2C__shop_x2C__shopping_x2C__commerce_x2C__supermarket">
</g>
<g id="_x32__shop_x2C__shopping_x2C__commerce_x2C__supermarket_x2C__market_x2C__cart">
</g>
<g id="_x31__list_x2C__check_x2C__notebook_x2C__pen_x2C__shop_x2C__shopping_x2C__commerce">
</g>
</svg>
