<svg xmlns="http://www.w3.org/2000/svg" viewBox="0 0 64 64"><title>24-Coding</title><g id="_24-Coding" data-name="24-Coding"><g id="_Group_" data-name="&lt;Group&gt;"><path d="M61,57V55a1,1,0,0,0,1-1V3a1,1,0,0,0-1-1H3A1,1,0,0,0,2,3V54a1,1,0,0,0,1,1H28v2H3a3,3,0,0,1-3-3V3A3,3,0,0,1,3,0H61a3,3,0,0,1,3,3V54A3,3,0,0,1,61,57Z"/><rect x="1" y="10" width="62" height="2"/></g><rect x="5" y="5" width="2" height="2"/><rect x="9" y="5" width="2" height="2"/><rect x="14" y="5" width="45" height="2"/><path d="M14,25H6a1,1,0,0,1-1-1V16a1,1,0,0,1,1-1h8a1,1,0,0,1,1,1v8A1,1,0,0,1,14,25ZM7,23h6V17H7Z"/><rect x="4.343" y="19" width="11.314" height="2" transform="translate(-11.213 12.929) rotate(-45)"/><path d="M14,39H6a1,1,0,0,1-1-1V30a1,1,0,0,1,1-1h8a1,1,0,0,1,1,1v8A1,1,0,0,1,14,39ZM7,37h6V31H7Z"/><rect x="4.343" y="33" width="11.314" height="2" transform="translate(-21.113 17.029) rotate(-45)"/><path d="M14,53H6a1,1,0,0,1-1-1V44a1,1,0,0,1,1-1h8a1,1,0,0,1,1,1v8A1,1,0,0,1,14,53ZM7,51h6V45H7Z"/><rect x="4.343" y="47" width="11.314" height="2" transform="translate(-31.012 21.13) rotate(-45)"/><rect x="18" y="15" width="22" height="2"/><rect x="18" y="20" width="10" height="2"/><rect x="18" y="29" width="19" height="2"/><rect x="18" y="34" width="10" height="2"/><rect x="18" y="43" width="7" height="2"/><rect x="18" y="48" width="5" height="2"/><g id="_Group_2" data-name="&lt;Group&gt;"><path d="M44,64A16,16,0,1,1,60,48,16.019,16.019,0,0,1,44,64Zm0-30A14,14,0,1,0,58,48,14.015,14.015,0,0,0,44,34Z"/></g><path d="M45.293,25.707l-3-3a1,1,0,0,1,0-1.414l3-3,1.414,1.414L44.414,22l2.293,2.293Z"/><path d="M54.707,25.707l-1.414-1.414L55.586,22l-2.293-2.293,1.414-1.414,3,3a1,1,0,0,1,0,1.414Z"/><rect x="46.36" y="21.5" width="7.28" height="2.001" transform="translate(14.627 64.393) rotate(-74.051)"/><path d="M41,55c-1.169,0-3.2-1.791-4.707-3.293l1.414-1.414a18.376,18.376,0,0,0,3.157,2.628C42.117,51.833,46.454,46.4,50.2,41.4l1.6,1.2C42.5,55,41.561,55,41,55Zm-.34-1.923Z"/></g></svg>