<svg xmlns="http://www.w3.org/2000/svg" viewBox="0 0 64 64"><g id="_24-Fishing_Line" data-name="24-Fishing Line"><polygon points="55 11 55 53 9 53 9 11 32 11 55 11" style="fill:#82b3d1"/><path d="M9,53v3a4,4,0,0,1-8,0V8A4,4,0,1,1,9,8V53Z" style="fill:#c9c6c8"/><path d="M63,8V56a4,4,0,0,1-8,0V8a4,4,0,1,1,8,0Z" style="fill:#c9c6c8"/><path d="M58,48V4.141A3.989,3.989,0,0,0,55,8V56a4,4,0,0,0,8,0V51.859A3.953,3.953,0,0,1,58,48Z" style="fill:#a6a0a1"/><rect x="58" y="11" width="5" height="12" style="fill:#dddcd7"/><path d="M6,48V4.141A3.989,3.989,0,0,1,9,8V56a4,4,0,0,1-8,0V51.859A3.977,3.977,0,0,0,2,52,4,4,0,0,0,6,48Z" style="fill:#a6a0a1"/><rect x="1" y="11" width="5" height="12" style="fill:#dddcd7"/><path d="M14,11V40a6,6,0,0,0,6,6H44a6,6,0,0,0,6-6V11h5V53H9V11Z" style="fill:#6293b1"/><path d="M59,3a5.006,5.006,0,0,0-5,5v2H33V4H31v6H10V8A5,5,0,0,0,0,8V56a5,5,0,0,0,10,0V54H54v2a5,5,0,0,0,10,0V8A5.006,5.006,0,0,0,59,3ZM8,56a3,3,0,0,1-6,0V8A3,3,0,0,1,8,8V56Zm2-4V12h3V47h2V12h2V51h2V12h2V51h2V12h2V51h2V12h2V51h2V12h2V51h2V12h2V51h2V12h2V51h2V12h2V51h2V12h2v2h2V12h3V52Zm52,4a3,3,0,0,1-6,0V8a3,3,0,0,1,6,0Z"/><rect x="13" y="49" width="2" height="2"/><rect x="49" y="16" width="2" height="35"/><rect x="31" y="1" width="2" height="2"/></g></svg>