<svg xmlns="http://www.w3.org/2000/svg" xmlns:xlink="http://www.w3.org/1999/xlink" viewBox="0 0 64 64"><defs><linearGradient id="linear-gradient" x1="32" y1="1.304" x2="32" y2="63.304" gradientUnits="userSpaceOnUse"><stop offset="0" stop-color="#ffe100"/><stop offset="1" stop-color="#f98900"/></linearGradient><linearGradient id="linear-gradient-2" x1="15" y1="45" x2="49" y2="45" gradientUnits="userSpaceOnUse"><stop offset="0" stop-color="#b8b4b2"/><stop offset="0.143" stop-color="#d0ccc9"/><stop offset="0.374" stop-color="#f2edea"/><stop offset="0.5" stop-color="#fffaf6"/><stop offset="0.638" stop-color="#f9f5f1"/><stop offset="0.825" stop-color="#e8e5e3"/><stop offset="1" stop-color="#d1d1d1"/></linearGradient><linearGradient id="linear-gradient-3" y1="39" y2="39" xlink:href="#linear-gradient-2"/><linearGradient id="linear-gradient-4" x1="32" y1="47.95" x2="32" y2="36.024" gradientUnits="userSpaceOnUse"><stop offset="0" stop-color="#d1d1d1" stop-opacity="0"/><stop offset="0.05" stop-color="#cecece" stop-opacity="0.041"/><stop offset="0.322" stop-color="#c1c1c1" stop-opacity="0.24"/><stop offset="0.579" stop-color="#b8b8b8" stop-opacity="0.383"/><stop offset="0.812" stop-color="#b2b2b2" stop-opacity="0.47"/><stop offset="1" stop-color="#b0b0b0" stop-opacity="0.5"/></linearGradient><linearGradient id="linear-gradient-5" x1="32" y1="36.625" x2="32" y2="42.479" gradientUnits="userSpaceOnUse"><stop offset="0" stop-color="#ababab" stop-opacity="0.5"/><stop offset="0.541" stop-color="#c1c1c1" stop-opacity="0.216"/><stop offset="1" stop-color="#d1d1d1" stop-opacity="0"/></linearGradient></defs><g id="_24-Grimacing_Face" data-name="24-Grimacing Face"><path d="M32,63C4.3,63,.962,39,1,33V31C.962,25,4.3,1,32,1h0C59.7,1,63.038,25,63,31v2C63.038,39,59.7,63,32,63Z" style="fill:url(#linear-gradient)"/><path d="M21,48H43a6,6,0,0,0,6-6H15A6,6,0,0,0,21,48Z" style="fill:url(#linear-gradient-2)"/><path d="M43,36H21a6,6,0,0,0-6,6H49A6,6,0,0,0,43,36Z" style="fill:url(#linear-gradient-3)"/><path d="M43,36H21a6,6,0,0,0,0,12H43a6,6,0,0,0,0-12Z" style="fill:url(#linear-gradient-4)"/><path d="M43,36H21a6,6,0,0,0-6,6H49A6,6,0,0,0,43,36Z" style="fill:url(#linear-gradient-5)"/><path d="M55.045,10c.592.649,1.141,1.318,1.651,2" style="fill:none;stroke:#1d1d1b;stroke-linejoin:round;stroke-width:2px"/><path d="M8.09,53C2.05,45.666.977,36.416,1,33V31C.96,25,4.3,1,32,1c9.68,0,16.385,2.931,21.011,7" style="fill:none;stroke:#1d1d1b;stroke-linejoin:round;stroke-width:2px"/><path d="M58.061,14A34.4,34.4,0,0,1,63,30.89V33c.04,6-3.3,30-31,30-10.393,0-17.357-3.379-22-7.918" style="fill:none;stroke:#1d1d1b;stroke-linejoin:round;stroke-width:2px"/><rect x="15" y="36" width="34" height="12" rx="6" style="fill:none;stroke:#1d1d1b;stroke-linejoin:round;stroke-width:2px"/><line x1="15" y1="42" x2="49" y2="42" style="fill:none;stroke:#1d1d1b;stroke-linejoin:round;stroke-width:2px"/><path d="M38,25s1-4,5-4,5,4,5,4" style="fill:none;stroke:#1d1d1b;stroke-linejoin:round;stroke-width:2px"/><path d="M16,25s1-4,5-4,5,4,5,4" style="fill:none;stroke:#1d1d1b;stroke-linejoin:round;stroke-width:2px"/></g></svg>