<svg xmlns="http://www.w3.org/2000/svg" viewBox="0 0 64 64"><g id="_24-report" data-name="24-report"><path d="M45,59a3.995,3.995,0,0,1,4,4H15a4,4,0,0,1,4-4Z" style="fill:#c1c1c1"/><polygon points="43 53 45 59 19 59 21 53 43 53" style="fill:#9c9c9c"/><path d="M63,11V51a2.006,2.006,0,0,1-2,2H3a2.006,2.006,0,0,1-2-2V11A2.006,2.006,0,0,1,3,9H61A2.006,2.006,0,0,1,63,11ZM59,45V15a2.006,2.006,0,0,0-2-2H7a2.006,2.006,0,0,0-2,2V45a2.006,2.006,0,0,0,2,2H57A2.006,2.006,0,0,0,59,45Z" style="fill:#e4e4e4"/><path d="M57,11H7a2.006,2.006,0,0,0-2,2v2a2.006,2.006,0,0,1,2-2H57a2.006,2.006,0,0,1,2,2V13A2.006,2.006,0,0,0,57,11Z" style="fill:#c1c1c1"/><path d="M61,51H3a2.006,2.006,0,0,1-2-2v2a2.006,2.006,0,0,0,2,2H61a2.006,2.006,0,0,0,2-2V49A2.006,2.006,0,0,1,61,51Z" style="fill:#c1c1c1"/><rect x="5" y="13" width="54" height="34" rx="2" style="fill:#80dbff"/><path d="M8,45V15a2.006,2.006,0,0,1,2-2H7a2.006,2.006,0,0,0-2,2V45a2.006,2.006,0,0,0,2,2h3A2.006,2.006,0,0,1,8,45Z" style="fill:#19cffc"/><path d="M56,45V15a2.006,2.006,0,0,0-2-2h3a2.006,2.006,0,0,1,2,2V45a2.006,2.006,0,0,1-2,2H54A2.006,2.006,0,0,0,56,45Z" style="fill:#19cffc"/><polygon points="43 53 21 53 20.333 55 43.667 55 43 53" style="fill:#848484"/><polygon points="48 41.14 45.14 44 41.57 40.43 40.14 41.86 38 34 45.86 36.14 44.43 37.57 48 41.14" style="fill:#19cffc"/><rect x="30" y="24" width="4" height="4" style="fill:#ffc9c9"/><polygon points="35 10 34 20 30 20 29 10 35 10" style="fill:#ffc9c9"/><path d="M32,6A13,13,0,1,1,19,19,13,13,0,0,1,32,6Zm2,14,1-10H29l1,10Zm0,8V24H30v4Z" style="fill:#ff636e"/><path d="M20,1V7a2.006,2.006,0,0,1-2,2H12Z" style="fill:#ff873c"/><path d="M52,47H12V9h6a2.006,2.006,0,0,0,2-2V1H52Zm-6.86-3L48,41.14l-3.57-3.57,1.43-1.43L38,34l2.14,7.86,1.43-1.43ZM45,19A13,13,0,1,0,32,32,13,13,0,0,0,45,19Z" style="fill:#ffc170"/><path d="M33.5,31.907a13,13,0,1,0,0-25.814,12.993,12.993,0,0,1,0,25.814Z" style="fill:#ffac5a"/><polygon points="48.86 36.14 41 34 41.24 34.882 45.86 36.14 44.43 37.57 48 41.14 46.64 42.5 48.14 44 51 41.14 47.43 37.57 48.86 36.14" style="fill:#ffac5a"/><path d="M23,7V1H20V7a2.006,2.006,0,0,1-2,2h3A2.006,2.006,0,0,0,23,7Z" style="fill:#ffac5a"/><rect x="12" y="9" width="3" height="38" style="fill:#ffac5a"/><rect x="25" y="35" width="11" height="2" style="fill:#6e6e6e"/><rect x="21" y="35" width="2" height="2" style="fill:#6e6e6e"/><rect x="21" y="39" width="15" height="2" style="fill:#6e6e6e"/><path d="M22,19A13,13,0,0,1,33.5,6.093a13,13,0,1,0,0,25.814A13,13,0,0,1,22,19Z" style="fill:#ff475a"/><path d="M61,8H55v2h6a1,1,0,0,1,1,1V51a1,1,0,0,1-1,1H3a1,1,0,0,1-1-1V11a1,1,0,0,1,1-1H9V8H3a3,3,0,0,0-3,3V51a3,3,0,0,0,3,3H19.613l-1.358,4.075A4.994,4.994,0,0,0,14,63a1,1,0,0,0,1,1H49a1,1,0,0,0,1-1,4.994,4.994,0,0,0-4.255-4.925L44.387,54H61a3,3,0,0,0,3-3V11A3,3,0,0,0,61,8ZM47.829,62H16.171A3.006,3.006,0,0,1,19,60H45A3.006,3.006,0,0,1,47.829,62Zm-4.217-4H20.388l1.333-4H42.279Z"/><path d="M7,12a3,3,0,0,0-3,3V45a3,3,0,0,0,3,3H57a3,3,0,0,0,3-3V15a3,3,0,0,0-3-3H53V1a1,1,0,0,0-1-1H20a1,1,0,0,0-.707.293l-8,8A1,1,0,0,0,11,9v3ZM6,45V15a1,1,0,0,1,1-1h4V46H7A1,1,0,0,1,6,45ZM57,14a1,1,0,0,1,1,1V45a1,1,0,0,1-1,1H53V14ZM51,46H13V10h5a3,3,0,0,0,3-3V2H51ZM14.414,8,19,3.414V7a1,1,0,0,1-1,1Z"/><path d="M18,19A14,14,0,1,0,32,5,14.015,14.015,0,0,0,18,19ZM32,7A12,12,0,1,1,20,19,12.013,12.013,0,0,1,32,7Z"/><path d="M30,21h4a1,1,0,0,0,.995-.9l1-10A1,1,0,0,0,35,9H29a1,1,0,0,0-1,1.1l1,10A1,1,0,0,0,30,21Zm3.9-10-.8,8h-2.19l-.8-8Z"/><path d="M34,23H30a1,1,0,0,0-1,1v4a1,1,0,0,0,1,1h4a1,1,0,0,0,1-1V24A1,1,0,0,0,34,23Zm-1,4H31V25h2Z"/><rect x="25" y="35" width="11" height="2"/><rect x="21" y="35" width="2" height="2"/><rect x="21" y="39" width="15" height="2"/><path d="M37.293,33.293a1,1,0,0,0-.258.97l2.143,7.857a1,1,0,0,0,1.672.444l.721-.721,2.865,2.864a1,1,0,0,0,1.414,0l2.857-2.857a1,1,0,0,0,0-1.414l-2.864-2.865.721-.721a1,1,0,0,0-.444-1.672l-7.857-2.143A1,1,0,0,0,37.293,33.293Zm6.639,3.361-.21.21a1,1,0,0,0,0,1.414l2.864,2.865-1.443,1.443-2.865-2.864a1,1,0,0,0-1.414,0l-.21.21-1.229-4.507Z"/></g></svg>