<svg xmlns="http://www.w3.org/2000/svg" viewBox="0 0 64 64"><g id="Layer_2" data-name="Layer 2"><path d="M35.225,63h-6.45a2,2,0,0,1-1.9-2.632l.712-2.136A8,8,0,0,0,28,55.7V31h8V55.7a8,8,0,0,0,.411,2.53l.712,2.136A2,2,0,0,1,35.225,63Z" style="fill:#c67a60"/><path d="M28,42.557a18.28,18.28,0,0,0,8,0V31H28Z" style="fill:#b26049"/><path d="M37,60H34.026a3.624,3.624,0,0,1-3.437-4.768h0A8,8,0,0,0,31,52.7V31H28V55.7a8,8,0,0,1-.411,2.53l-.711,2.136A2,2,0,0,0,28.775,63h6.45a2,2,0,0,0,1.9-2.632Z" style="fill:#b26049"/><ellipse cx="32" cy="21" rx="19.167" ry="20" style="fill:#85b27c"/><path d="M42,7.377a.994.994,0,0,1-.6-.2,16.024,16.024,0,0,0-2.015-1.3,1,1,0,1,1,.953-1.758A18.186,18.186,0,0,1,42.6,5.578a1,1,0,0,1-.6,1.8Z" style="fill:#fff"/><path d="M20,23a8.967,8.967,0,0,0-6.572,2.865A19.773,19.773,0,0,0,24.877,39.557,9,9,0,0,0,20,23Z" style="fill:#699b5d"/><path d="M51.1,22.476a8.994,8.994,0,1,0-7.6,14.5A20.181,20.181,0,0,0,51.1,22.476Z" style="fill:#699b5d"/><path d="M35,38c-10.585,0-19.167-8.954-19.167-20A20.445,20.445,0,0,1,20.277,5.2,20.263,20.263,0,0,0,12.833,21c0,11.046,8.582,20,19.167,20a18.82,18.82,0,0,0,14.723-7.2A18.561,18.561,0,0,1,35,38Z" style="fill:#699b5d"/><path d="M44,27V39a4,4,0,0,1-4,4H36v4h4a8,8,0,0,0,8-8V27Z" style="fill:#c67a60"/><path d="M44,38.769a8.774,8.774,0,0,0,4,0V27H44Z" style="fill:#b26049"/><path d="M20,31V43a4,4,0,0,0,4,4h4v4H24a8,8,0,0,1-8-8V31Z" style="fill:#c67a60"/><path d="M20,43V31H16V43a8.041,8.041,0,0,0,.216,1.822,8.883,8.883,0,0,0,4.161-.15A3.966,3.966,0,0,1,20,43Z" style="fill:#b26049"/><rect x="26" y="47" width="2" height="4" style="fill:#b26049"/><rect x="36" y="43" width="2" height="4" style="fill:#b26049"/><circle cx="46" cy="28" r="9" style="fill:#629955"/><circle cx="18" cy="34" r="9" style="fill:#629955"/><path d="M21,40a8.986,8.986,0,0,1-7.678-13.678A8.993,8.993,0,1,0,25.678,38.678,8.944,8.944,0,0,1,21,40Z" style="fill:#508c3f"/><path d="M49,34a8.986,8.986,0,0,1-7.678-13.678A8.993,8.993,0,1,0,53.678,32.678,8.944,8.944,0,0,1,49,34Z" style="fill:#508c3f"/><path d="M56,28a10,10,0,1,0-14.256,9.035,17.38,17.38,0,0,1-15.17,2.085,9.963,9.963,0,0,0-1.907-12.573,1,1,0,0,0-1.334,1.49,7.969,7.969,0,1,1-2.667-1.582,1,1,0,0,0,.668-1.885,9.985,9.985,0,0,0-7.139.187A19.967,19.967,0,0,1,13.833,21C13.833,10.523,21.982,2,32,2A18.321,18.321,0,0,1,49.592,16.239a1,1,0,1,0,1.941-.478A20.315,20.315,0,0,0,32,0C20.88,0,11.833,9.421,11.833,21a21.93,21.93,0,0,0,.526,4.75,10,10,0,0,0,2.669,17.8A9,9,0,0,0,24,52h3v3.7a7.024,7.024,0,0,1-.358,2.213l-.712,2.136A3,3,0,0,0,28.774,64h6.452a3,3,0,0,0,2.844-3.949l-.711-2.135A7.007,7.007,0,0,1,37,55.7V48h3a9.01,9.01,0,0,0,9-9V37.539A10.018,10.018,0,0,0,56,28ZM37,41.347a19.525,19.525,0,0,0,6-2.754V39a3,3,0,0,1-3,3H37ZM25.31,40.8q.836.306,1.69.535V46H24a3,3,0,0,1-2.948-2.481A10,10,0,0,0,25.31,40.8ZM24,50a7.005,7.005,0,0,1-6.927-6.047c.3.028.614.047.927.047a10.156,10.156,0,0,0,1.095-.063A5,5,0,0,0,24,48h3v2ZM36.036,61.585a.985.985,0,0,1-.81.415H28.774a1,1,0,0,1-.948-1.316l.713-2.137A8.988,8.988,0,0,0,29,55.7V41.751a18.6,18.6,0,0,0,6,.011V55.7a8.972,8.972,0,0,0,.462,2.846l.712,2.136A.991.991,0,0,1,36.036,61.585ZM47,39a7.009,7.009,0,0,1-7,7H37V44h3a5.006,5.006,0,0,0,5-5V37.949a9.829,9.829,0,0,0,2,0Zm-1-3a8,8,0,1,1,8-8A8.009,8.009,0,0,1,46,36Z"/></g></svg>