<?xml version="1.0" encoding="utf-8"?>
<!-- Generator: Adobe Illustrator 16.0.0, SVG Export Plug-In . SVG Version: 6.00 Build 0)  -->
<!DOCTYPE svg PUBLIC "-//W3C//DTD SVG 1.1//EN" "http://www.w3.org/Graphics/SVG/1.1/DTD/svg11.dtd">
<svg version="1.1" id="Layer_1" xmlns="http://www.w3.org/2000/svg" xmlns:xlink="http://www.w3.org/1999/xlink" x="0px" y="0px"
	 width="512px" height="512px" viewBox="0 0 512 512" enable-background="new 0 0 512 512" xml:space="preserve">
<g id="_x32_4._brass_x2C__knuckles_x2C__weapon_x2C__mafia_x2C__crime_x2C__bandit">
	<g>
		<g>
			<path d="M76.127,299.969c-28.652,0-51.964-23.312-51.964-51.963c0-28.652,23.312-51.964,51.964-51.964
				c28.651,0,51.963,23.312,51.963,51.964C128.09,276.657,104.778,299.969,76.127,299.969z M76.127,204.036
				c-24.241,0-43.969,19.729-43.969,43.97c0,24.24,19.728,43.969,43.969,43.969c24.24,0,43.969-19.729,43.969-43.969
				C120.096,223.765,100.367,204.036,76.127,204.036z"/>
		</g>
	</g>
	<g>
		<g>
			<path d="M435.873,299.969c-28.651,0-51.964-23.312-51.964-51.963c0-28.652,23.312-51.964,51.964-51.964
				s51.963,23.312,51.963,51.964C487.836,276.657,464.524,299.969,435.873,299.969z M435.873,204.036
				c-24.241,0-43.97,19.729-43.97,43.97c0,24.24,19.729,43.969,43.97,43.969c24.24,0,43.969-19.729,43.969-43.969
				C479.842,223.765,460.113,204.036,435.873,204.036z"/>
		</g>
	</g>
	<g>
		<g>
			<path d="M323.952,236.014c-28.652,0-51.964-23.312-51.964-51.963s23.312-51.964,51.964-51.964
				c28.651,0,51.963,23.312,51.963,51.964S352.604,236.014,323.952,236.014z M323.952,140.082
				c-24.241,0-43.969,19.728-43.969,43.969c0,24.24,19.728,43.969,43.969,43.969c24.24,0,43.969-19.729,43.969-43.969
				C367.921,159.81,348.192,140.082,323.952,140.082z"/>
		</g>
	</g>
	<g>
		<g>
			<path d="M188.048,236.014c-28.651,0-51.964-23.312-51.964-51.963s23.312-51.964,51.964-51.964s51.963,23.312,51.963,51.964
				S216.699,236.014,188.048,236.014z M188.048,140.082c-24.241,0-43.969,19.728-43.969,43.969c0,24.24,19.728,43.969,43.969,43.969
				c24.24,0,43.969-19.729,43.969-43.969C232.017,159.81,212.288,140.082,188.048,140.082z"/>
		</g>
	</g>
	<g>
		<g>
			<path d="M119.494,256.663c-3.567-21.227-21.805-36.638-43.367-36.638c-21.563,0-39.8,15.411-43.368,36.638l-7.885-1.327
				c4.216-25.092,25.771-43.305,51.253-43.305c25.481,0,47.037,18.213,51.253,43.305L119.494,256.663z"/>
		</g>
	</g>
	<g>
		<g>
			<path d="M388.578,259.997c-0.219,0-0.445-0.016-0.671-0.055c-2.179-0.367-3.646-2.428-3.279-4.606
				c4.208-25.092,25.755-43.305,51.245-43.305c25.481,0,47.029,18.205,51.245,43.289c0.367,2.179-1.102,4.239-3.279,4.606
				c-2.131,0.391-4.239-1.101-4.605-3.279c-3.568-21.219-21.798-36.622-43.36-36.622c-21.571,0-39.8,15.411-43.36,36.638
				C392.185,258.615,390.491,259.997,388.578,259.997z"/>
		</g>
	</g>
	<g>
		<g>
			<path d="M371.247,196.058c-1.913,0-3.607-1.382-3.936-3.341c-3.552-21.235-21.789-36.646-43.359-36.646
				c-21.571,0-39.801,15.411-43.36,36.639c-0.367,2.178-2.389,3.646-4.606,3.278c-2.178-0.367-3.646-2.428-3.278-4.605
				c4.208-25.092,25.755-43.306,51.245-43.306c25.497,0,47.045,18.222,51.245,43.329c0.366,2.17-1.108,4.23-3.287,4.598
				C371.691,196.042,371.465,196.058,371.247,196.058z"/>
		</g>
	</g>
	<g>
		<g>
			<path d="M140.761,196.042c-0.219,0-0.445-0.016-0.663-0.055c-2.179-0.367-3.654-2.428-3.287-4.598
				c4.2-25.1,25.747-43.313,51.237-43.313c25.482,0,47.029,18.214,51.245,43.298c0.367,2.178-1.101,4.238-3.279,4.605
				c-2.115,0.383-4.239-1.093-4.605-3.278c-3.568-21.228-21.798-36.631-43.36-36.631c-21.57,0-39.8,15.403-43.353,36.631
				C144.367,194.66,142.674,196.042,140.761,196.042z"/>
		</g>
	</g>
	<g>
		<g>
			<path d="M256,387.907c-2.21,0-3.997-1.788-3.997-3.998c0-2.209,1.787-3.997,3.997-3.997c64.696,0,138.972-5.894,158.575-7.549
				l-3.115-9.923c-7.541-0.109-26.895-1.374-37.013-11.109c-4.333-4.169-6.526-9.345-6.526-15.388
				c0-7.026,2.365-12.921,7.026-17.511c10.312-10.142,28.229-9.946,29.011-9.97c2.201,0.031,3.966,1.851,3.935,4.052
				s-2.24,4.021-4.052,3.942c-0.336-0.141-15.442-0.07-23.296,7.69c-3.115,3.067-4.63,6.932-4.63,11.796
				c0,3.833,1.335,6.979,4.067,9.618c10.017,9.649,33.977,8.932,34.257,8.869c1.585,0.07,3.42,1.077,3.959,2.795l5.496,17.487
				c0.366,1.155,0.188,2.412-0.484,3.419c-0.672,1.008-1.757,1.655-2.967,1.765C419.361,379.975,331.259,387.907,256,387.907z"/>
		</g>
	</g>
	<g>
		<g>
			<path d="M255.984,387.907c-75.26,0-163.361-7.933-164.243-8.011c-1.211-0.109-2.296-0.757-2.967-1.765
				c-0.672-1.007-0.852-2.264-0.484-3.419l5.496-17.487c0.539-1.718,2.381-2.764,3.958-2.795c0.289,0.062,24.241,0.78,34.257-8.869
				c2.732-2.639,4.067-5.785,4.067-9.618c0-4.872-1.521-8.744-4.645-11.819c-6.581-6.473-18.963-7.753-23.272-7.667
				c-0.023,0-0.039,0-0.062,0c-2.179,0-3.966-1.749-3.997-3.935c-0.031-2.209,1.725-4.028,3.935-4.06
				c0.749,0,18.697-0.172,29.011,9.97c4.66,4.59,7.026,10.484,7.026,17.511c0,6.043-2.194,11.219-6.527,15.388
				c-10.117,9.735-29.471,11-37.013,11.109l-3.115,9.923c19.604,1.655,93.888,7.549,158.576,7.549c2.209,0,3.997,1.788,3.997,3.997
				C259.981,386.119,258.193,387.907,255.984,387.907z"/>
		</g>
	</g>
	<g>
		<g>
			<path d="M256,403.896c-2.21,0-3.997-1.788-3.997-3.997c0-2.21,1.787-3.997,3.997-3.997c74.9,0,162.643-7.9,163.524-7.979
				c1.999-0.172,4.139,1.42,4.342,3.622c0.202,2.193-1.422,4.138-3.623,4.341C419.361,395.964,331.259,403.896,256,403.896z"/>
		</g>
	</g>
	<g>
		<g>
			<path d="M255.984,403.896c-75.26,0-163.361-7.932-164.243-8.01c-2.202-0.203-3.818-2.147-3.623-4.341
				c0.203-2.202,2.35-3.778,4.341-3.622c0.882,0.078,88.641,7.979,163.525,7.979c2.209,0,3.997,1.787,3.997,3.997
				C259.981,402.107,258.193,403.896,255.984,403.896z"/>
		</g>
	</g>
	<g>
		<g>
			<path d="M255.984,364.049c-2.21,0-3.997-1.788-3.997-3.997c0-2.21,1.787-3.998,3.997-3.998c34.312,0,60.777-9.719,78.655-28.901
				c22.266-23.882,25.303-56.444,25.568-69.442c-41.128,16.348-62.729,4.504-80.201-5.122c-8.486-4.668-15.817-8.704-24.022-8.704
				c-2.21,0-3.997-1.788-3.997-3.998c0-2.209,1.787-3.997,3.997-3.997c10.266,0,18.822,4.708,27.878,9.696
				c17.559,9.673,37.459,20.642,78.656,2.483c1.187-0.523,2.553-0.43,3.669,0.233c1.116,0.672,1.835,1.843,1.929,3.139
				c0.141,1.952,3.084,48.161-27.582,81.107C321.087,353.454,292.638,364.049,255.984,364.049z"/>
		</g>
	</g>
	<g>
		<g>
			<path d="M255.984,364.049c-36.639,0-65.079-10.595-84.526-31.493c-30.658-32.938-27.715-79.147-27.574-81.1
				c0.094-1.296,0.812-2.467,1.928-3.139c1.117-0.655,2.476-0.765,3.67-0.233c41.205,18.135,61.09,7.166,78.632-2.499
				c9.056-4.988,17.604-9.696,27.871-9.696c2.209,0,3.997,1.788,3.997,3.997c0,2.21-1.788,3.998-3.997,3.998
				c-8.205,0-15.528,4.036-24.015,8.704c-17.448,9.61-38.988,21.47-80.178,5.138c0.266,12.99,3.303,45.553,25.568,69.435
				c17.87,19.175,44.32,28.894,78.624,28.894c2.209,0,3.997,1.788,3.997,3.998C259.981,362.261,258.193,364.049,255.984,364.049z"/>
		</g>
	</g>
	<g>
		<g>
			<path d="M255.984,364.049c-2.21,0-3.997-1.788-3.997-3.997c0-2.21,1.787-3.998,3.997-3.998c34.312,0,60.777-9.719,78.655-28.901
				c22.266-23.882,25.303-56.444,25.568-69.442c-41.128,16.348-62.729,4.504-80.201-5.122c-8.486-4.668-15.817-8.704-24.022-8.704
				c-2.21,0-3.997-1.788-3.997-3.998c0-2.209,1.787-3.997,3.997-3.997c10.266,0,18.822,4.708,27.878,9.696
				c17.559,9.673,37.459,20.642,78.656,2.483c1.187-0.523,2.553-0.43,3.669,0.233c1.116,0.672,1.835,1.843,1.929,3.139
				c0.141,1.952,3.084,48.161-27.582,81.107C321.087,353.454,292.638,364.049,255.984,364.049z"/>
		</g>
	</g>
	<g>
		<g>
			<path d="M255.984,364.049c-36.639,0-65.079-10.595-84.526-31.493c-30.658-32.938-27.715-79.147-27.574-81.1
				c0.094-1.296,0.812-2.467,1.928-3.139c1.117-0.655,2.476-0.765,3.67-0.233c41.205,18.135,61.09,7.166,78.632-2.499
				c9.056-4.988,17.604-9.696,27.871-9.696c2.209,0,3.997,1.788,3.997,3.997c0,2.21-1.788,3.998-3.997,3.998
				c-8.205,0-15.528,4.036-24.015,8.704c-17.448,9.61-38.988,21.47-80.178,5.138c0.266,12.99,3.303,45.553,25.568,69.435
				c17.87,19.175,44.32,28.894,78.624,28.894c2.209,0,3.997,1.788,3.997,3.998C259.981,362.261,258.193,364.049,255.984,364.049z"/>
		</g>
	</g>
	<g>
		<g>
			<path d="M322.679,281.935c-18.619,0-31.485-7.081-42.672-13.232c-8.486-4.669-15.817-8.705-24.022-8.705
				c-2.21,0-3.997-1.788-3.997-3.997c0-2.21,1.787-3.997,3.997-3.997c10.266,0,18.822,4.707,27.878,9.688
				c17.488,9.627,37.295,20.533,78.133,2.718c2.022-0.875,4.38,0.039,5.262,2.061c0.883,2.022-0.039,4.38-2.061,5.262
				C348.13,279.179,334.288,281.935,322.679,281.935z"/>
		</g>
	</g>
	<g>
		<g>
			<path d="M189.312,281.942c-11.602,0-25.428-2.748-42.478-10.181c-2.022-0.882-2.943-3.231-2.062-5.262
				c0.891-2.022,3.256-2.936,5.262-2.061c40.8,17.776,60.606,6.878,78.086-2.741c9.048-4.988,17.604-9.695,27.863-9.695
				c2.209,0,3.997,1.787,3.997,3.997c0,2.209-1.788,3.997-3.997,3.997c-8.205,0-15.528,4.036-24.007,8.705
				C220.798,274.854,207.933,281.942,189.312,281.942z"/>
		</g>
	</g>
	<g>
		<g>
			<path d="M435.873,323.952c-6.285,0-11.82-2.116-17.168-4.153c-5.059-1.937-9.899-3.764-14.45-3.35
				c-2.366,0.086-4.146-1.437-4.333-3.63c-0.195-2.202,1.437-4.138,3.63-4.333c6.402-0.586,12.319,1.671,18.003,3.841
				c4.888,1.866,9.501,3.631,14.318,3.631c37.466,0,67.952-30.486,67.952-67.952s-30.486-67.952-67.952-67.952
				c-13.6,0-26.731,4.005-37.958,11.577c-1.249,0.859-2.889,0.922-4.216,0.164c-1.319-0.757-2.1-2.193-2.006-3.716l0.078-1.147
				c0.062-0.953,0.132-1.913,0.132-2.881c0-37.466-30.486-67.952-67.951-67.952c-28.918,0-54.712,18.401-64.174,45.78
				c-0.719,2.084-2.99,3.201-5.082,2.475c-2.093-0.718-3.193-2.998-2.475-5.082c10.578-30.604,39.401-51.167,71.73-51.167
				c40.9,0,74.354,32.5,75.892,73.026c11.023-5.957,23.343-9.072,36.029-9.072c41.876,0,75.946,34.07,75.946,75.947
				C511.819,289.882,477.749,323.952,435.873,323.952z"/>
		</g>
	</g>
	<g>
		<g>
			<path d="M76.127,323.952c-41.877,0-75.946-34.07-75.946-75.946c0-41.877,34.069-75.947,75.946-75.947
				c12.687,0,25.006,3.115,36.029,9.072c1.538-40.526,34.99-73.026,75.892-73.026c32.329,0,61.152,20.563,71.73,51.167
				c0.719,2.084-0.383,4.364-2.475,5.082c-2.077,0.711-4.364-0.391-5.082-2.475c-9.463-27.379-35.257-45.78-64.174-45.78
				c-37.466,0-67.952,30.486-67.952,67.952c0,0.968,0.07,1.928,0.133,2.881l0.078,1.147c0.094,1.522-0.688,2.959-2.007,3.716
				c-1.327,0.758-2.959,0.695-4.216-0.164c-11.227-7.572-24.357-11.577-37.957-11.577c-37.466,0-67.952,30.486-67.952,67.952
				s30.486,67.952,67.952,67.952c4.816,0,9.431-1.765,14.325-3.631c5.684-2.17,11.586-4.435,17.995-3.841
				c2.194,0.195,3.826,2.131,3.631,4.333c-0.188,2.193-2.007,3.771-4.333,3.63c-4.575-0.421-9.384,1.413-14.443,3.35
				C87.946,321.836,82.411,323.952,76.127,323.952z"/>
		</g>
	</g>
	<g>
		<g>
			<path d="M92.1,395.901c-2.209,0-3.997-1.788-3.997-3.998v-15.988c0-2.209,1.788-3.997,3.997-3.997
				c2.21,0,3.997,1.788,3.997,3.997v15.988C96.097,394.113,94.31,395.901,92.1,395.901z"/>
		</g>
	</g>
	<g>
		<g>
			<path d="M419.884,395.901c-2.209,0-3.997-1.788-3.997-3.998v-15.988c0-2.209,1.788-3.997,3.997-3.997
				c2.21,0,3.998,1.788,3.998,3.997v15.988C423.882,394.113,422.094,395.901,419.884,395.901z"/>
		</g>
	</g>
</g>
</svg>
