<?xml version="1.0" encoding="utf-8"?>
<!-- Generator: Adobe Illustrator 16.0.0, SVG Export Plug-In . SVG Version: 6.00 Build 0)  -->
<!DOCTYPE svg PUBLIC "-//W3C//DTD SVG 1.1//EN" "http://www.w3.org/Graphics/SVG/1.1/DTD/svg11.dtd">
<svg version="1.1" xmlns="http://www.w3.org/2000/svg" xmlns:xlink="http://www.w3.org/1999/xlink" x="0px" y="0px" width="64px"
	 height="64px" viewBox="0 0 64 64" enable-background="new 0 0 64 64" xml:space="preserve">
<g id="_x32_5_purse_x2C__money_x2C__coin_x2C__banknote_x2C__payment_x2C__shop_x2C__shopping">
	<g>
		<g>
			<g>
				<path fill="#CCD1D9" d="M29.711,29.008c0.182,0,0.357-0.1,0.445-0.273l2.486-4.893c0.125-0.246,0.025-0.547-0.221-0.672
					c-0.244-0.123-0.547-0.025-0.672,0.221l-2.486,4.893c-0.125,0.246-0.025,0.547,0.221,0.672
					C29.557,28.99,29.635,29.008,29.711,29.008z"/>
			</g>
			<path fill="#E6E9ED" d="M32.5,25.002c1.107,0,2-0.895,2-2c0-1.107-0.893-2-2-2c-1.105,0-2,0.893-2,2
				C30.5,24.107,31.395,25.002,32.5,25.002z"/>
			<g>
				<path fill="#CCD1D9" d="M30.291,29.008c-0.182,0-0.357-0.1-0.445-0.273l-2.486-4.893c-0.125-0.246-0.025-0.547,0.221-0.672
					c0.244-0.123,0.547-0.025,0.672,0.221l2.486,4.893c0.125,0.246,0.025,0.547-0.221,0.672
					C30.445,28.99,30.367,29.008,30.291,29.008z"/>
			</g>
			<path fill="#E6E9ED" d="M27.502,25.002c-1.107,0-2-0.895-2-2c0-1.107,0.893-2,2-2c1.105,0,2,0.893,2,2
				C29.502,24.107,28.607,25.002,27.502,25.002z"/>
		</g>
		<path fill="#E6E9ED" d="M30,29c-6.51,0-11.67,2.201-15.389,5.441L14.6,34.43L13.17,33c1.98-1.76,4.361-3.26,7.16-4.32
			C23.131,27.621,26.35,27,30,27c7.291,0,12.861,2.49,16.83,6l-1.439,1.441C41.67,31.201,36.51,29,30,29z"/>
		<path fill="#AC92EC" d="M45.391,34.441c8.029,6.949,9.41,18.719,3.359,23.709C48.281,58.541,44.52,63,30,63
			s-18.279-4.459-18.75-4.85c-6.049-4.99-4.67-16.76,3.361-23.709C18.33,31.201,23.49,29,30,29S41.67,31.201,45.391,34.441z"/>
		<path fill="#967ADC" d="M48.75,55.15C48.281,55.541,44.52,60,30,60s-18.279-4.459-18.75-4.85
			c-2.162-1.783-3.359-4.441-3.658-7.428c-0.387,4.174,0.793,8.064,3.658,10.428C11.721,58.541,15.48,63,30,63
			s18.281-4.459,18.75-4.85c2.867-2.363,4.045-6.254,3.658-10.428C52.109,50.709,50.914,53.367,48.75,55.15z"/>
		<path fill="#F6BB42" d="M15.5,6.822c-0.309,0.119-0.65,0.18-1,0.18s-0.689-0.061-1-0.18c-1.17-0.4-2-1.512-2-2.82v2
			c0,1.309,0.83,2.42,2,2.82c0.311,0.119,0.65,0.18,1,0.18s0.691-0.061,1-0.18c1.17-0.4,2-1.512,2-2.82v-2
			C17.5,5.311,16.67,6.422,15.5,6.822z"/>
		<path fill="#FFCE54" d="M11.5,4.002c0-1.66,1.34-3,3-3s3,1.34,3,3c0,1.309-0.83,2.42-2,2.82c-0.309,0.119-0.65,0.18-1,0.18
			s-0.689-0.061-1-0.18C12.33,6.422,11.5,5.311,11.5,4.002z"/>
		<path fill="#A0D468" d="M57.498,1v12h-6.5V5.5c0-0.83-0.67-1.5-1.5-1.5h-0.1h-0.4c-0.83,0-1.5-0.67-1.5-1.5s0.67-1.5,1.5-1.5
			H57.498z"/>
		<path fill="#A0D468" d="M36.498,7h11h2c0.83,0,1.5-0.67,1.5-1.5V13v4.5c0,0.83-0.67,1.5-1.5,1.5h-13V7z"/>
		<path fill="#B8E57F" d="M39.498,9c0,0.553-0.447,1-1,1v5.998L38.5,16c0.553,0,0.998,0.447,0.998,1h11.5V9H39.498z"/>
		<path fill="#F6BB42" d="M24.998,13.33c-1.379,0-2.5-1.119-2.5-2.5v2c0,1.381,1.121,2.5,2.5,2.5c1.381,0,2.5-1.119,2.5-2.5v-2
			C27.498,12.211,26.379,13.33,24.998,13.33z"/>
		<circle fill="#FFCE54" cx="24.998" cy="10.83" r="2.5"/>
		<path fill="#F6BB42" d="M13.502,21.24c-0.721,0.479-1.57,0.76-2.5,0.76s-1.781-0.281-2.5-0.76c-1.211-0.801-2-2.182-2-3.74v2
			c0,1.559,0.789,2.939,2,3.74c0.719,0.479,1.57,0.76,2.5,0.76s1.779-0.281,2.5-0.76c1.209-0.801,2-2.182,2-3.74v-2
			C15.502,19.059,14.711,20.439,13.502,21.24z"/>
		<path fill="#FFCE54" d="M11.002,13c2.49,0,4.5,2.01,4.5,4.5c0,1.559-0.791,2.939-2,3.74c-0.721,0.479-1.57,0.76-2.5,0.76
			s-1.781-0.281-2.5-0.76c-1.211-0.801-2-2.182-2-3.74C6.502,15.01,8.512,13,11.002,13z"/>
		<polygon fill="#B8E57F" points="47.498,3 54.449,3 55.449,4 55.449,10 54.449,11 50.998,11 50.998,5.5 47.498,4.75 		"/>
		<path fill="#8CC152" d="M50.998,11c-1.104,0-2,0.895-2,2c0,1.104,0.896,2,2,2V11z"/>
		<path fill="#EDAB37" d="M10.502,21.963v2C10.666,23.98,10.83,24,11.002,24c0.17,0,0.334-0.02,0.5-0.037v-2
			C11.336,21.98,11.172,22,11.002,22C10.83,22,10.666,21.98,10.502,21.963z"/>
		<path fill="#EDAB37" d="M14.502,22.318v-1.906c0-0.029-0.008-0.053-0.01-0.082c-0.283,0.35-0.613,0.66-0.99,0.91v2
			C13.883,22.988,14.215,22.674,14.502,22.318z"/>
		<path fill="#EDAB37" d="M7.502,20.318v2c0.285,0.355,0.619,0.67,1,0.922v-2C8.121,20.988,7.787,20.674,7.502,20.318z"/>
		<g>
			<path fill="#EDAB37" d="M11.002,19.5c-0.277,0-0.5-0.225-0.5-0.5v-3c0-0.277,0.223-0.5,0.5-0.5c0.275,0,0.5,0.223,0.5,0.5v3
				C11.502,19.275,11.277,19.5,11.002,19.5z"/>
		</g>
		<g>
			<path fill="#EDAB37" d="M14.5,5.502c-0.275,0-0.5-0.225-0.5-0.5v-2c0-0.277,0.225-0.5,0.5-0.5c0.277,0,0.5,0.223,0.5,0.5v2
				C15,5.277,14.777,5.502,14.5,5.502z"/>
		</g>
		<path fill="#EDAB37" d="M15.502,8.822c0.375-0.129,0.711-0.338,1-0.596v-2c-0.289,0.258-0.625,0.467-1,0.596V8.822z"/>
		<path fill="#EDAB37" d="M12.5,6.227v2c0.289,0.258,0.625,0.467,1,0.596v-2C13.125,6.693,12.789,6.484,12.5,6.227z"/>
		<g>
			<path fill="#EDAB37" d="M24.998,11.83c-0.275,0-0.5-0.223-0.5-0.5v-1c0-0.275,0.225-0.5,0.5-0.5c0.277,0,0.5,0.225,0.5,0.5v1
				C25.498,11.607,25.275,11.83,24.998,11.83z"/>
		</g>
		<path fill="#EDAB37" d="M24.498,13.279v2c0.162,0.033,0.33,0.051,0.5,0.051c0.172,0,0.338-0.018,0.5-0.051v-2
			c-0.162,0.033-0.328,0.051-0.5,0.051C24.828,13.33,24.66,13.313,24.498,13.279z"/>
		<path fill="#8CC152" d="M49.498,4c0.83,0,1.5,0.67,1.5,1.5s-0.67,1.5-1.5,1.5h-2V2.5c0,0.83,0.67,1.5,1.5,1.5h0.4H49.498z"/>
	</g>
</g>
<g id="_x32_4_pay_x2C__click_x2C__hand_x2C__coin_x2C__money_x2C__shop_x2C__payment">
</g>
<g id="_x32_3_card_x2C__discount_x2C__sale_x2C__shop_x2C__shopping_x2C__commerce_x2C__market">
</g>
<g id="_x32_2_safe_x2C__box_x2C__key_x2C__thing_x2C__shop_x2C__shopping_x2C__commerce">
</g>
<g id="_x32_1_cashbox_x2C__money_x2C__purchase_x2C__list_x2C__check_x2C__shop_x2C__shopping">
</g>
<g id="_x32_0_search_x2C__magnifier_x2C__basket_x2C__shop_x2C__shopping_x2C__commerce_x2C__market">
</g>
<g id="_x31_9_return_x2C__box_x2C__purchase_x2C__shipping_x2C__delivery_x2C__shop_x2C__shopping">
</g>
<g id="_x31_8_review_x2C__client_x2C__buyer_x2C__talk_x2C__shop_x2C__shopping_x2C__commerce">
</g>
<g id="_x31_7_manager_x2C__consultant_x2C__shop_x2C__shopping_x2C__commerce_x2C__market_x2C__badge">
</g>
<g id="_x31_6_check_x2C__list_x2C__cashbox_x2C__purchase_x2C__shop_x2C__shopping_x2C__commerce">
</g>
<g id="_x31_5_coupon_x2C__sale_x2C__discount_x2C__shop_x2C__shopping_x2C__commerce_x2C__market">
</g>
<g id="_x31_4_sale_x2C__discount_x2C__box_x2C__gift_x2C__shop_x2C__shopping_x2C__commerce">
</g>
<g id="_x31_3_map_x2C__pin_x2C__marker_x2C__location_x2C__shop_x2C__shopping_x2C__basket">
</g>
<g id="_x31_2_operator_x2C__call_x2C__center_x2C__shop_x2C__shopping_x2C__commerce_x2C__market">
</g>
<g id="_x31_1_courier_x2C__box_x2C__shipping_x2C__purchase_x2C__shop_x2C__shopping_x2C__commerce">
</g>
<g id="_x31_0_box_x2C__shipping_x2C__delivery_x2C__purchase_x2C__shop_x2C__shopping_x2C__commerce">
</g>
<g id="_x39__shipping_x2C__delivery_x2C__box_x2C__crane_x2C__shop_x2C__shopping_x2C__commerce">
</g>
<g id="_x38__computer_x2C__monitor_x2C__desktop_x2C__shop_x2C__shopping_x2C__commerce_x2C__market">
</g>
<g id="_x37__mobile_x2C__phone_x2C__app_x2C__shop_x2C__shopping_x2C__commerce_x2C__market">
</g>
<g id="_x36__food_x2C__market_x2C__purchase_x2C__shop_x2C__shopping_x2C__commerce_x2C__basket">
</g>
<g id="_x35__discount_x2C__sale_x2C__purchase_x2C__pocket_x2C__shop_x2C__shopping_x2C__commerce">
</g>
<g id="_x34__badge_x2C__discount_x2C__sale_x2C__shop_x2C__shopping_x2C__commerce_x2C__market">
</g>
<g id="_x33__food_x2C__pocket_x2C__purchase_x2C__shop_x2C__shopping_x2C__commerce_x2C__supermarket">
</g>
<g id="_x32__shop_x2C__shopping_x2C__commerce_x2C__supermarket_x2C__market_x2C__cart">
</g>
<g id="_x31__list_x2C__check_x2C__notebook_x2C__pen_x2C__shop_x2C__shopping_x2C__commerce">
</g>
</svg>
