<svg xmlns="http://www.w3.org/2000/svg" viewBox="0 0 64 64"><g id="_25-Eyeshadow" data-name="25-Eyeshadow"><rect x="51" y="25" width="6" height="8" style="fill:#a79490"/><rect x="42" y="25" width="6" height="8" style="fill:#d9a9a7"/><rect x="34" y="25" width="5" height="8" style="fill:#eca9a0"/><rect x="25" y="25" width="5" height="8" style="fill:#daadaa"/><rect x="16" y="25" width="6" height="8" style="fill:#86635f"/><rect x="7" y="25" width="6" height="8" style="fill:#523a3a"/><rect x="51" y="14" width="6" height="8" style="fill:#ffeddf"/><rect x="42" y="14" width="6" height="8" style="fill:#f5d9d5"/><rect x="34" y="14" width="5" height="8" style="fill:#fdd6d7"/><rect x="25" y="14" width="5" height="8" style="fill:#f0b4b6"/><rect x="16" y="14" width="6" height="8" style="fill:#d28c96"/><rect x="7" y="14" width="6" height="8" style="fill:#e6677d"/><path d="M7,25v8h6V25Zm6-3V14H7v8Zm3,3v8h6V25Zm6-3V14H16v8Zm3,3v8h5V25Zm5-3V14H25v8Zm4,3v8h5V25Zm5-3V14H34v8Zm3,3v8h6V25Zm6-3V14H42v8Zm3,3v8h6V25Zm6-3V14H51v8Zm3-11V37H4V11Z" style="fill:#e4b5ad"/><path d="M60,11H4V37H60Zm3-3V48H1V8Z" style="fill:#f8e2e4"/><polygon points="60 33 63 30 63 24 60 27 60 33" style="fill:#fffafb"/><polygon points="50 37 39 48 45 48 56 37 50 37" style="fill:#fffafb"/><polygon points="16 37 5 48 19 48 30 37 16 37" style="fill:#fffafb"/><polygon points="56 11 59 8 45 8 42 11 56 11" style="fill:#fffafb"/><rect x="1" y="46" width="62" height="2" style="fill:#d6a7ae"/><rect x="45" y="52" width="4" height="3" style="fill:#c2b2b3"/><path d="M45,52v3H10.5a1.5,1.5,0,0,1,0-3Z" style="fill:#d45f73"/><path d="M52.53,51.03A2.269,2.269,0,0,1,55,53.5,2.342,2.342,0,0,1,52.88,56a2.068,2.068,0,0,1-.35-.03L49,55V52Z" style="fill:#f2d2d7"/><path d="M10.5,54a1.494,1.494,0,0,1-1.409-1A1.488,1.488,0,0,0,10.5,55H45V54Z" style="fill:#b85162"/><path d="M52.88,55a2.068,2.068,0,0,1-.35-.03L49,54v1l3.53.97a2.068,2.068,0,0,0,.35.03A2.342,2.342,0,0,0,55,53.5a2.941,2.941,0,0,0-.046-.484A2.252,2.252,0,0,1,52.88,55Z" style="fill:#d6a7ae"/><path d="M48,52h0a2,2,0,0,1-2,2H45v1h4V52Z" style="fill:#a89a9b"/><rect x="51" y="14" width="6" height="2" style="fill:#fff"/><rect x="51" y="20" width="6" height="2" style="fill:#f0dfd2"/><rect x="42" y="14" width="6" height="2" style="fill:#ffe0db"/><rect x="42" y="20" width="6" height="2" style="fill:#dec4c1"/><rect x="34" y="14" width="5" height="2" style="fill:#ffdedf"/><rect x="34" y="20" width="5" height="2" style="fill:#f2cccd"/><rect x="25" y="14" width="5" height="2" style="fill:#ffbfc1"/><rect x="25" y="20" width="5" height="2" style="fill:#d9a3a4"/><rect x="16" y="14" width="6" height="2" style="fill:#e699a4"/><rect x="16" y="20" width="6" height="2" style="fill:#b3777f"/><rect x="7" y="14" width="6" height="2" style="fill:#ff728a"/><rect x="7" y="20" width="6" height="2" style="fill:#d45f73"/><rect x="51" y="25" width="6" height="2" style="fill:#b8a39e"/><rect x="51" y="31" width="6" height="2" style="fill:#877874"/><rect x="42" y="25" width="6" height="2" style="fill:#e0b8b5"/><rect x="42" y="31" width="6" height="2" style="fill:#c49c99"/><rect x="34" y="25" width="5" height="2" style="fill:#ffb7ac"/><rect x="34" y="31" width="5" height="2" style="fill:#d4988f"/><rect x="25" y="25" width="5" height="2" style="fill:#e0b8b5"/><rect x="25" y="31" width="5" height="2" style="fill:#c49c99"/><rect x="16" y="25" width="6" height="2" style="fill:#bd8b86"/><rect x="16" y="31" width="6" height="2" style="fill:#634a47"/><rect x="7" y="25" width="6" height="2" style="fill:#704f4f"/><rect x="7" y="31" width="6" height="2" style="fill:#3b2929"/><path d="M61,37V11a1,1,0,0,0-1-1H4a1,1,0,0,0-1,1V37a1,1,0,0,0,1,1H60A1,1,0,0,0,61,37Zm-2-1H5V12H59Z"/><path d="M63,7H11V9H62V47H2V9H5V7H1A1,1,0,0,0,0,8V48a1,1,0,0,0,1,1H63a1,1,0,0,0,1-1V8A1,1,0,0,0,63,7Z"/><rect x="7" y="7" width="2" height="2"/><path d="M7,23h6a1,1,0,0,0,1-1V14a1,1,0,0,0-1-1H7a1,1,0,0,0-1,1v8A1,1,0,0,0,7,23Zm1-8h4v6H8Z"/><path d="M7,34h6a1,1,0,0,0,1-1V25a1,1,0,0,0-1-1H7a1,1,0,0,0-1,1v8A1,1,0,0,0,7,34Zm1-8h4v6H8Z"/><path d="M16,23h6a1,1,0,0,0,1-1V14a1,1,0,0,0-1-1H16a1,1,0,0,0-1,1v8A1,1,0,0,0,16,23Zm1-8h4v6H17Z"/><path d="M16,34h6a1,1,0,0,0,1-1V25a1,1,0,0,0-1-1H16a1,1,0,0,0-1,1v8A1,1,0,0,0,16,34Zm1-8h4v6H17Z"/><path d="M25,23h5a1,1,0,0,0,1-1V14a1,1,0,0,0-1-1H25a1,1,0,0,0-1,1v8A1,1,0,0,0,25,23Zm1-8h3v6H26Z"/><path d="M34,23h5a1,1,0,0,0,1-1V14a1,1,0,0,0-1-1H34a1,1,0,0,0-1,1v8A1,1,0,0,0,34,23Zm1-8h3v6H35Z"/><path d="M25,34h5a1,1,0,0,0,1-1V25a1,1,0,0,0-1-1H25a1,1,0,0,0-1,1v8A1,1,0,0,0,25,34Zm1-8h3v6H26Z"/><path d="M34,34h5a1,1,0,0,0,1-1V25a1,1,0,0,0-1-1H34a1,1,0,0,0-1,1v8A1,1,0,0,0,34,34Zm1-8h3v6H35Z"/><path d="M42,23h6a1,1,0,0,0,1-1V14a1,1,0,0,0-1-1H42a1,1,0,0,0-1,1v8A1,1,0,0,0,42,23Zm1-8h4v6H43Z"/><path d="M42,34h6a1,1,0,0,0,1-1V25a1,1,0,0,0-1-1H42a1,1,0,0,0-1,1v8A1,1,0,0,0,42,34Zm1-8h4v6H43Z"/><path d="M51,23h6a1,1,0,0,0,1-1V14a1,1,0,0,0-1-1H51a1,1,0,0,0-1,1v8A1,1,0,0,0,51,23Zm1-8h4v6H52Z"/><path d="M51,34h6a1,1,0,0,0,1-1V25a1,1,0,0,0-1-1H51a1,1,0,0,0-1,1v8A1,1,0,0,0,51,34Zm1-8h4v6H52Z"/><rect x="23" y="40" width="18" height="2"/><rect x="28" y="43" width="8" height="2"/><path d="M52.271,50.069,48.865,51H10.5a2.5,2.5,0,0,0,0,5H48.865l3.476.947a2.831,2.831,0,0,0,2.386-.622,3.771,3.771,0,0,0,0-5.65A2.875,2.875,0,0,0,52.271,50.069ZM10,53.5a.5.5,0,0,1,.5-.5H44v1H10.5A.5.5,0,0,1,10,53.5ZM48,54H46V53h2Zm5.456.78A.837.837,0,0,1,52.8,55L50,54.236V52.763l2.727-.747a.866.866,0,0,1,.729.2,1.778,1.778,0,0,1,0,2.56Z"/></g></svg>