<svg xmlns="http://www.w3.org/2000/svg" viewBox="0 0 64 64"><g id="_25-Fishing_net" data-name="25-Fishing net"><polygon points="12.54 52.72 8.73 50.44 8 50 11 45 16 48 13 53 12.54 52.72" style="fill:#6293b1"/><polygon points="18.23 42.54 19 43 16 48 11 45 14 40 15.15 40.69 18.23 42.54" style="fill:#55634a"/><polygon points="12.54 52.72 6 63 1 63 8.73 50.44 12.54 52.72" style="fill:#5b6880"/><path d="M57.01,27.23a34.179,34.179,0,0,1-6.97,5.92C43.08,37.67,32.98,41,19,41c0,0,6,4,9,8s3,14,19,14c6.86,0,10.78-6.07,13.02-13a55.489,55.489,0,0,0,1.49-5.8,77.242,77.242,0,0,0,1.23-8.93C63,32.11,63,30,63,30V14C63,17.56,61.2,22.52,57.01,27.23Z" style="fill:#fffaf7"/><path d="M57.01,27.23a34.179,34.179,0,0,1-6.97,5.92C43.08,37.67,32.98,41,19,41l-.77,1.54-3.08-1.85L16,39s-6.13-6.94-1.24-19C21.64,3,39.05,1,42,1,55,1,63,6,63,14,63,17.56,61.2,22.52,57.01,27.23Z" style="fill:#edece7"/><path d="M48.5,5C44.75,5,44,9,44,9a10.276,10.276,0,0,1,4.5-1.333A1.424,1.424,0,0,0,50,6.333,1.424,1.424,0,0,0,48.5,5Z" style="fill:#6293b1"/><path d="M3,2C8,2,9,8,9,8A12.677,12.677,0,0,0,3,6,2,2,0,0,1,3,2Z" style="fill:#6293b1"/><path d="M6.5,10c3.75,0,4.5,4,4.5,4a10.276,10.276,0,0,0-4.5-1.333A1.424,1.424,0,0,1,5,11.333,1.424,1.424,0,0,1,6.5,10Z" style="fill:#6293b1"/><polygon points="8 50 8.73 50.44 12.54 52.72 13 53 16 48 11 45 8 50" style="fill:#6da3c4"/><polygon points="14 40 11 45 16 48 19 43 18.23 42.54 15.15 40.69 14 40" style="fill:#6d805f"/><polygon points="1 63 6 63 12.54 52.72 8.73 50.44 1 63" style="fill:#5b6880"/><path d="M50.04,33.15c-.145.094-.3.185-.447.278h0c.147-.093.3-.184.447-.278s.282-.2.429-.3h0C50.322,32.949,50.19,33.053,50.04,33.15Z"/><path d="M43,49c-.377-4.529-3.177-7.774-6.515-10.062A69.7,69.7,0,0,1,19,41s6,4,9,8,3,14,19,14c6.86,0,10.78-6.07,13.02-13a54.673,54.673,0,0,0,1.392-5.373C56.832,57.226,43.823,58.877,43,49Z" style="fill:#edece7"/><path d="M13.036,49.316a2,2,0,0,1-2.732.666L8.618,48.971,8,50l.73.44,3.81,2.28L13,53l3-5-1.573-.944Z" style="fill:#6293b1"/><polygon points="17.482 42.091 14.427 47.056 16 48 19 43 18.23 42.54 17.482 42.091" style="fill:#55634a"/><path d="M8.73,50.44,7.472,52.483l.729.438a2,2,0,0,1,.636,2.824L4,63H6l6.54-10.28Z" style="fill:#313845"/><path d="M29,3,28,5a11.119,11.119,0,0,0-1.68,5.95A31.333,31.333,0,0,0,27,16l-2,1-3-3s-.07-6.46,2.2-9.98L25,3l2-2,2.04,1.96Z" style="fill:#ffedd8"/><path d="M19.26,10.27,24.2,4.02C21.93,7.54,22,14,22,14l-2.74-2.5A.852.852,0,0,1,19.26,10.27Z" style="fill:#dfa985"/><path d="M42.29,26.24A1.947,1.947,0,0,1,43,27.69a1.493,1.493,0,0,1-.51,1.13s-.14.12-.38.29c-.82.57-2.87,1.66-4.68.05C35.1,27.1,35,25.81,35,25.81l2.02-1.79.02-.02,4,1.39a2.42,2.42,0,0,1,.84.48Z" style="fill:#475163"/><path d="M53,22a2.934,2.934,0,0,1-3,3l-.17.05a20.846,20.846,0,0,0-4.69-8.61c-.86-.88-1.7-1.69-2.51-2.43C52.04,14.25,53,20,53,20Z" style="fill:#5b6880"/><path d="M54.94,38.85a4.91,4.91,0,0,1-1.79,2.92,5.1,5.1,0,0,1-1.19,1.02,20.181,20.181,0,0,0-1.56-5.26A15.973,15.973,0,0,0,51,33,22.226,22.226,0,0,1,54.94,38.85Z" style="fill:#5b6880"/><path d="M51.96,42.79c.01.01,0,.01,0,.01A2.1,2.1,0,0,1,51,43a5.636,5.636,0,0,1-3-1l-.02-.02a11.874,11.874,0,0,0,2.42-4.45A20.181,20.181,0,0,1,51.96,42.79Z" style="fill:#475163"/><path d="M55,38a5.573,5.573,0,0,1-.06.85A22.226,22.226,0,0,0,51,33a28.353,28.353,0,0,0-.87-6.86A17.833,17.833,0,0,1,55,38Z" style="fill:#70809e"/><path d="M42.67,43.63a3.092,3.092,0,0,0,2.84.68c-.32.26-.63.52-.96.76-3.84,1.1-6.58-3.51-6.79-3.89.35-.38.75-.8,1.22-1.26a25.257,25.257,0,0,1,1.84-1.78A6.548,6.548,0,0,0,42.67,43.63Z" style="fill:#313845"/><path d="M35,49a9.053,9.053,0,0,1-7.12-2.9L27,45s4.92,3.09,8,0a8.216,8.216,0,0,0,7.96,1.19C40.35,47.88,38,49,35,49Z" style="fill:#2a2e37"/><path d="M37.76,41.18c.21.38,2.95,4.99,6.79,3.89-.52.4-1.04.77-1.59,1.12A8.216,8.216,0,0,1,35,45S34.79,44.37,37.76,41.18Z" style="fill:#475163"/><path d="M45,37.04c.32-.03.65-.04,1-.04,0,0-4.56,5.39-3.33,6.63a6.548,6.548,0,0,1-1.85-5.49A2.2,2.2,0,0,1,41,38,11.639,11.639,0,0,1,45,37.04Z" style="fill:#5b6880"/><path d="M50.13,26.13s.01,0,0,.01A28.353,28.353,0,0,1,51,33a15.973,15.973,0,0,1-.6,4.53,11.874,11.874,0,0,1-2.42,4.45c-.13.14-.25.28-.38.41a25,25,0,0,1-2.09,1.92,3.092,3.092,0,0,1-2.84-.68C41.44,42.39,46,37,46,37c-.35,0-.68.01-1,.04V37s2.47-2.53,0-5l-2.89-2.89c.24-.17.38-.29.38-.29A1.493,1.493,0,0,0,43,27.69a1.947,1.947,0,0,0-.71-1.45l-.41-.37a2.42,2.42,0,0,0-.84-.48l-4-1.39-.02.02L37,24l-1.66-1.66A9.475,9.475,0,0,0,37,21c3.7-3.71,0-8,0-8l1.75-2.19c1.15.86,2.47,1.92,3.88,3.2.81.74,1.65,1.55,2.51,2.43a20.846,20.846,0,0,1,4.69,8.61Q50,25.59,50.13,26.13Z" style="fill:#6293b1"/><path d="M30.09,23.49a7.411,7.411,0,0,0,5.25-1.15L37,24l.02.02L35,25.81s.1,1.29,2.43,3.35c1.81,1.61,3.86.52,4.68-.05L45,32c2.47,2.47,0,5,0,5v.04A11.639,11.639,0,0,0,41,38a24.034,24.034,0,0,1-6.34-4.88C31.57,30.03,30.39,25.06,30.09,23.49Z" style="fill:#f6ddc9"/><path d="M32.2,9.65a1.747,1.747,0,1,0,0,2.47A1.75,1.75,0,0,0,32.2,9.65ZM28,5l1-2,.04-.04L34.05,7.8a31.776,31.776,0,0,1,4.7,3.01L37,13s3.7,4.29,0,8a9.475,9.475,0,0,1-1.66,1.34,7.411,7.411,0,0,1-5.25,1.15A5.694,5.694,0,0,1,27,22a8.568,8.568,0,0,1-2-5l2-1a31.333,31.333,0,0,1-.68-5.05A11.119,11.119,0,0,1,28,5Z" style="fill:#6da3c4"/><path d="M37,21a9.475,9.475,0,0,1-1.66,1.34l1.583,1.583A9.9,9.9,0,0,0,38,23c2.995-3,1.143-6.383.327-7.564A5.141,5.141,0,0,1,37,21Z" style="fill:#5787b7"/><path d="M36.34,24.34c.195-.122.389-.271.583-.417L35.34,22.34a7.411,7.411,0,0,1-5.25,1.15c.079.416.223,1.073.445,1.867.183.047.362.1.555.133A7.411,7.411,0,0,0,36.34,24.34Z" style="fill:#ebb28d"/><path d="M26.984,17.508a1.52,1.52,0,0,0,.816-1.655,19.437,19.437,0,0,1-.48-3.9A11.119,11.119,0,0,1,29,6l1-2,.04-.04-1.02-.98L29,3,28,5a11.119,11.119,0,0,0-1.68,5.95A31.333,31.333,0,0,0,27,16l-2,1,.222.222A1.526,1.526,0,0,0,26.984,17.508Z" style="fill:#6293b1"/><path d="M35.34,20.34a7.411,7.411,0,0,1-5.25,1.15A5.694,5.694,0,0,1,27,20a12.27,12.27,0,0,1-1.983-2.793A8.324,8.324,0,0,0,27,22a5.694,5.694,0,0,0,3.09,1.49,7.411,7.411,0,0,0,5.25-1.15A9.475,9.475,0,0,0,37,21a5.081,5.081,0,0,0,1.543-4.748A5.363,5.363,0,0,1,37,19,9.475,9.475,0,0,1,35.34,20.34Z" style="fill:#3a73a0"/><circle cx="30.965" cy="10.885" r="1.747" style="fill:#262c3c"/><path d="M28.434,2.377c-2.923,2.128-3.47,5.735-3.513,7.877a1.789,1.789,0,0,1-2.815,1.422C21.991,13.046,22,14,22,14l3,3,2-1a31.333,31.333,0,0,1-.68-5.05A11.119,11.119,0,0,1,28,5l1-2,.04-.04Z" style="fill:#efc1aa"/><path d="M51,22c0-3.419-4.208-6.369-6.869-7.894-.477-.046-.971-.083-1.5-.1.81.74,1.65,1.55,2.51,2.43a20.846,20.846,0,0,1,4.69,8.61L50,25a2.934,2.934,0,0,0,3-3V20A2,2,0,0,1,51,22Z" style="fill:#475163"/><path d="M54.116,40.661a1.592,1.592,0,0,1-2.349.106,1.563,1.563,0,0,1-.363-1.674,14.214,14.214,0,0,0,.91-4.576A15.618,15.618,0,0,0,51,33a15.973,15.973,0,0,1-.6,4.53,20.181,20.181,0,0,1,1.56,5.26,5.1,5.1,0,0,0,1.19-1.02A8.413,8.413,0,0,0,54.416,40.3Z" style="fill:#475163"/><path d="M47.98,41.98,48,42a5.636,5.636,0,0,0,3,1,2.1,2.1,0,0,0,.96-.2s.01,0,0-.01a20.181,20.181,0,0,0-1.56-5.26A11.874,11.874,0,0,1,47.98,41.98Z" style="fill:#313845"/><path d="M51.536,27.773A13.866,13.866,0,0,0,50.13,26.14,28.353,28.353,0,0,1,51,33a15.618,15.618,0,0,1,1.314,1.517A23.569,23.569,0,0,0,51.536,27.773Z" style="fill:#475163"/><path d="M38.248,25.168l.738-.492L37.04,24l-.02.02L35,25.81s.1,1.29,2.43,3.35a3.577,3.577,0,0,0,4.456.1l-3.638-2.425A1,1,0,0,1,38.248,25.168Z" style="fill:#313845"/><path d="M41,36l-2-1c-5-2-4-9-4-9a7.874,7.874,0,0,0,2.43,5.16c1.81,1.61,3.86.52,4.68-.05.24-.17.38-.29.38-.29a1.484,1.484,0,0,0,.481-.849l-.861-.861c-.82.57-2.87,1.66-4.68.05A7.135,7.135,0,0,1,35.041,26,1.535,1.535,0,0,1,35,25.81l2.02-1.79L37,24l-1.66-1.66a7.411,7.411,0,0,1-5.25,1.15c.3,1.57,1.48,6.54,4.57,9.63A24.034,24.034,0,0,0,41,38a11.639,11.639,0,0,1,4-.96V37a4.546,4.546,0,0,0,.716-1.065C41.959,35.054,41,36,41,36Z" style="fill:#f6d1b4"/><path d="M47,38H45.2c-1.247,1.618-3.429,4.725-2.531,5.63a3.059,3.059,0,0,0,2.786.69C43.579,41.43,47,38,47,38Z" style="fill:#5787b7"/><path d="M41.033,16.211a4.652,4.652,0,0,0,.7,1.479A25.6,25.6,0,0,0,45.354,22.4a2.7,2.7,0,0,0,.714.546A.533.533,0,0,0,46.25,23a.4.4,0,0,0,.207-.047,1.089,1.089,0,0,0,.539-1.1,3.49,3.49,0,0,0-.478-1.342,21.033,21.033,0,0,0-3.312-4.33c-.372-.394-1.061-1.19-1.649-1.177C40.994,15.013,40.948,15.794,41.033,16.211Z" style="fill:#6da3c4"/><path d="M48.788,26.216a2.5,2.5,0,0,0,.123-1.71,1.1,1.1,0,0,0-1.381-.959c-.889.275-.44,1.578-.221,2.13a1.953,1.953,0,0,0,.23.456.9.9,0,0,0,.615.363A.68.68,0,0,0,48.788,26.216Z" style="fill:#6da3c4"/><path d="M63.938,13C63.3,4.957,55.034,0,42,0a31.571,31.571,0,0,0-9.806,2.062l.694,1.876A29.863,29.863,0,0,1,42,2C54.336,2,62,6.6,62,14c0,3.851-2.425,9.87-8.376,15.149a15.9,15.9,0,0,0-2.433-3.342,3.944,3.944,0,0,0,1.7-1.008A3.86,3.86,0,0,0,54,22V20a.9.9,0,0,0-.014-.164c-.044-.27-1.207-6.377-10.947-6.8A41.839,41.839,0,0,0,34.63,6.969L27.694.28a1,1,0,0,0-1.4.013l-2,2c-.027.027-.049.06-.075.087h0l-.025.032a6.987,6.987,0,0,0-.705.892L18.5,9.609a1.888,1.888,0,0,0,.082,2.632l2.728,2.483,2.726,2.726a9.23,9.23,0,0,0,2.256,5.256,6.5,6.5,0,0,0,2.95,1.62c.473,2.1,1.768,6.554,4.713,9.505a34.934,34.934,0,0,0,3.338,2.963l1.223-1.584a32.833,32.833,0,0,1-3.145-2.791c-2.286-2.292-3.467-5.767-4-7.838a8.475,8.475,0,0,0,3.809-.991l.385.385-1.224,1.084a1,1,0,0,0-.334.824c.021.283.255,1.807,2.766,4.029A4.1,4.1,0,0,0,39.547,31a5.315,5.315,0,0,0,2.409-.63c.519.518,1.316,1.315,2.336,2.338a3.1,3.1,0,0,1,.57.758l1.776-.92a5.12,5.12,0,0,0-.93-1.25c-.91-.912-1.648-1.651-2.166-2.168A2.476,2.476,0,0,0,44,27.687a2.971,2.971,0,0,0-1.043-2.2l-.411-.363a3.552,3.552,0,0,0-1.175-.685l-3.85-1.333-.647-.647c.278-.229.557-.476.834-.754,3.443-3.451,1.538-7.631.05-9.358l-1.518,1.3c.126.148,3.038,3.65.052,6.644a7.066,7.066,0,0,1-5.057,2.292,5.113,5.113,0,0,1-3.527-1.292,6.957,6.957,0,0,1-1.635-3.712l1.374-.687a1,1,0,0,0,.546-1.012c-.043-.365-.129-.8-.228-1.3-.437-2.2-1.1-5.516,1.13-9.135l.415-.83,4.042,3.9a1,1,0,0,0,.262.181A40.168,40.168,0,0,1,42,14.8V15c.081,0,.15.007.23.008.709.654,1.443,1.363,2.192,2.134,3.148,3.234,5.318,9.087,5.554,14.825C43.189,36.537,33.166,40,19,40a1,1,0,0,0-.895.553l-.286.572-1.356-.814.432-.864a1,1,0,0,0-.143-1.106c-.232-.268-5.642-6.678-1.069-17.965a30,30,0,0,1,2.485-4.839l-1.686-1.074a31.849,31.849,0,0,0-2.652,5.162c-4.339,10.708-.387,17.564.994,19.49l-.082.164-.227-.136a1,1,0,0,0-1.372.342l-3,5-3,5a.986.986,0,0,0,.222,1.263L.148,62.476A1,1,0,0,0,1,64H6a1,1,0,0,0,.844-.463l6.076-9.548A.683.683,0,0,0,13,54a1,1,0,0,0,.858-.485l3-5,3-5a.975.975,0,0,0,.122-.593A37.9,37.9,0,0,1,27.2,49.6a16.518,16.518,0,0,1,1.608,3.091C30.923,57.464,33.82,64,47,64c7.057,0,12.234-5.97,14.972-17.265.146-.6.28-1.208.406-1.809l.028-.012-.018-.04a78.018,78.018,0,0,0,1.322-9.169l.038-.041-.032-.028C63.992,32.4,64,30.175,64,30V13ZM41.221,26.623l.41.363a.977.977,0,0,1,.369.7.486.486,0,0,1-.174.383c-.084.076-2.079,1.808-3.732.344a8.064,8.064,0,0,1-1.934-2.3l1.108-.981,3.448,1.2A1.513,1.513,0,0,1,41.221,26.623ZM21.417,9.144c-.165.977-.268,1.9-.328,2.676l-1.039-.946Zm5.732-4.668c-2.6,4.21-1.813,8.145-1.345,10.5.032.161.063.315.091.462l-.7.348-2.2-2.2c.033-2.087.447-6.52,2.025-9.008l.724-.915L27.013,2.4l.789.762ZM56.055,29.533c.006.9,0,2-.025,3.258a35.994,35.994,0,0,1-4.456,3.323c-.143-1.14-.3-2.01-.424-2.585.256-.175.505-.351.753-.529H52c0-.023,0-.046,0-.07A35.679,35.679,0,0,0,56.055,29.533ZM51.714,46.072c.079-.926.133-1.816.162-2.662a29.445,29.445,0,0,0,3.568-1.559c-.128,1.143-.282,2.3-.467,3.455C53.966,45.575,52.877,45.837,51.714,46.072Zm2.879,1.41c-.176.893-.374,1.774-.593,2.637-.88.134-1.833.263-2.848.381q.2-1.2.342-2.341C52.585,47.953,53.621,47.724,54.593,47.482ZM57.6,40.63a32.778,32.778,0,0,0,3.873-2.814c-.2,1.753-.476,3.682-.857,5.667-.776.3-1.981.743-3.509,1.214C57.312,43.325,57.475,41.96,57.6,40.63Zm4.16-5.793a29.833,29.833,0,0,1-3.948,3.228c.107-1.549.172-3.012.209-4.341A52.323,52.323,0,0,0,62,29.737V30C62,30.077,61.987,31.992,61.763,34.837Zm-6.079,4.577A28.774,28.774,0,0,1,51.9,41.236c-.01-1.06-.052-2.033-.115-2.915a33.9,33.9,0,0,0,4.151-2.838C55.883,36.722,55.8,38.045,55.684,39.414ZM45.4,15.294c5.469,1,6.474,4.287,6.6,4.808v1.92a1.89,1.89,0,0,1-.536,1.379,1.978,1.978,0,0,1-.935.526,21.443,21.443,0,0,0-4.673-8.18C45.7,15.591,45.555,15.446,45.4,15.294Zm6.435,14.754c.072.132.134.276.2.411l-.149.116C51.878,30.4,51.857,30.224,51.839,30.048ZM5.451,62H2.79L9.064,51.805l2.08,1.248Zm7.206-10.372L9.372,49.657l1.971-3.285,3.285,1.971Zm3-5-3.285-1.971,1.971-3.285,3.285,1.971ZM47,62c-11.879,0-14.365-5.61-16.363-10.119A18.1,18.1,0,0,0,28.8,48.4,37.146,37.146,0,0,0,22,41.938c11.915-.421,20.838-3.33,27.324-7.245.11.637.231,1.478.333,2.5A14.934,14.934,0,0,1,43,39v2a16.384,16.384,0,0,0,6.82-1.659c.04.8.062,1.668.057,2.6A23.524,23.524,0,0,1,43,43v2a25.7,25.7,0,0,0,6.821-.938c-.036.762-.09,1.555-.168,2.38A42.4,42.4,0,0,1,43,47v2a44.327,44.327,0,0,0,6.418-.495c-.1.717-.211,1.455-.344,2.209C47.163,50.886,45.108,51,43,51v2c1.969,0,3.877-.1,5.672-.242a56.274,56.274,0,0,1-1.621,5.926l1.9.632a59.331,59.331,0,0,0,1.82-6.754c.928-.1,1.808-.211,2.636-.328a24.512,24.512,0,0,1-2.262,5.251l1.714,1.03A28.041,28.041,0,0,0,55.6,51.9c1.149-.192,2.124-.379,2.88-.535C56.292,57.222,52.752,62,47,62ZM59.234,49.152c-.587.133-1.656.361-3.082.614.222-.943.423-1.9.6-2.865,1.333-.387,2.473-.767,3.377-1.094C59.867,46.928,59.572,48.05,59.234,49.152ZM62,26.65a50.557,50.557,0,0,1-3.932,4.271c.005-1.617-.027-2.83-.049-3.474A28.328,28.328,0,0,0,62,21.472Z"/><path d="M30.965,8.138h0a2.747,2.747,0,0,0,0,5.494h0a2.72,2.72,0,0,0,1.94-.806,2.754,2.754,0,0,0,0-3.884A2.726,2.726,0,0,0,30.965,8.138Zm.524,3.276a.759.759,0,0,1-1.049,0,.751.751,0,0,1,0-1.059.742.742,0,0,1,1.049,0h0A.75.75,0,0,1,31.489,11.414Z"/><path d="M44,10a1,1,0,0,0,.51-.14A9.161,9.161,0,0,1,48.5,8.667,2.424,2.424,0,0,0,51,6.333,2.424,2.424,0,0,0,48.5,4c-3.623,0-5.17,3.15-5.483,4.815A1,1,0,0,0,44,10Zm4.5-4c.286,0,.5.176.5.333s-.214.334-.5.334a8.777,8.777,0,0,0-2.453.388A3.2,3.2,0,0,1,48.5,6Z"/><path d="M3,7A11.725,11.725,0,0,1,8.446,8.833,1.012,1.012,0,0,0,9,9a1,1,0,0,0,.986-1.163C9.592,5.472,7.625,1,3,1A3,3,0,0,0,3,7ZM3,3A4.738,4.738,0,0,1,7.277,5.976,11.3,11.3,0,0,0,3,5,1,1,0,0,1,3,3Z"/><path d="M4,11.333a2.424,2.424,0,0,0,2.5,2.334,9.336,9.336,0,0,1,3.992,1.194,1,1,0,0,0,1.491-1.046C11.67,12.15,10.123,9,6.5,9A2.424,2.424,0,0,0,4,11.333Zm2.5.334c-.286,0-.5-.177-.5-.334S6.214,11,6.5,11a3.183,3.183,0,0,1,2.433,1.05A8.719,8.719,0,0,0,6.5,11.667Z"/></g></svg>