<svg xmlns="http://www.w3.org/2000/svg" xmlns:xlink="http://www.w3.org/1999/xlink" viewBox="0 0 64 64"><defs><linearGradient id="linear-gradient" x1="32" y1="1.304" x2="32" y2="63.304" gradientUnits="userSpaceOnUse"><stop offset="0" stop-color="#ffe100"/><stop offset="1" stop-color="#f98900"/></linearGradient><linearGradient id="linear-gradient-2" x1="32" y1="43.019" x2="32" y2="34.298" gradientUnits="userSpaceOnUse"><stop offset="0" stop-color="#911625"/><stop offset="0.412" stop-color="#69101b"/><stop offset="0.788" stop-color="#4b0c13"/><stop offset="1" stop-color="#400a10"/></linearGradient><linearGradient id="linear-gradient-3" x1="15.935" y1="22.937" x2="15.935" y2="62.102" gradientUnits="userSpaceOnUse"><stop offset="0" stop-color="#8ad4ff"/><stop offset="0.535" stop-color="#3e9ff5"/><stop offset="1" stop-color="#0073ed"/></linearGradient><linearGradient id="linear-gradient-4" x1="48" y1="22.825" x2="48" y2="61.873" xlink:href="#linear-gradient-3"/><linearGradient id="linear-gradient-5" x1="3.584" y1="66.425" x2="13.315" y2="60.632" gradientUnits="userSpaceOnUse"><stop offset="0" stop-color="#8ad4ff"/><stop offset="0.26" stop-color="#5ab3f9"/><stop offset="0.745" stop-color="#0577ee"/><stop offset="1" stop-color="#0073ed"/></linearGradient><linearGradient id="linear-gradient-6" x1="58.765" y1="67.207" x2="51.312" y2="61.835" xlink:href="#linear-gradient-5"/></defs><g id="_25-Loudly_Crying_Face" data-name="25-Loudly Crying Face"><path d="M32,63C4.3,63,.962,39,1,33V31C.962,25,4.3,1,32,1h0C59.7,1,63.038,25,63,31v2C63.038,39,59.7,63,32,63Z" style="fill:url(#linear-gradient)"/><path d="M44,45.16c.04.53-.37.95-.8.81C41.44,45.41,37.07,43,32,43s-9.44,2.41-11.2,2.97c-.43.14-.84-.28-.8-.81a12.428,12.428,0,0,1,.61-3.02,11.636,11.636,0,0,1,3.4-5.03,11.819,11.819,0,0,1,15.98,0,11.636,11.636,0,0,1,3.4,5.03A12.428,12.428,0,0,1,44,45.16Z" style="fill:url(#linear-gradient-2)"/><path d="M17,59.95a34.025,34.025,0,0,0,13.87,3.04V63H3a1.955,1.955,0,0,1-1.41-.59,1.98,1.98,0,0,1,0-2.82A1.955,1.955,0,0,1,3,59a4,4,0,0,0,4-4V51.58C7.07,32.87,12,24,12,24l-.08-.17a33.052,33.052,0,0,1,8.99-2.57c-.46,1.42-2.57,8.62-3.48,23.75C17.17,49.33,17,54.29,17,59.95Z" style="fill:url(#linear-gradient-3)"/><path d="M47,59.95c0-5.66-.17-10.62-.43-14.94-.91-15.13-3.02-22.33-3.48-23.75a33.052,33.052,0,0,1,8.99,2.57L52,24s4.93,8.87,5,27.58V55a4,4,0,0,0,4,4,2,2,0,0,1,0,4H33v-.01A33.916,33.916,0,0,0,47,59.95Z" style="fill:url(#linear-gradient-4)"/><path d="M18,60.4c-.137-.058-.265-.124-.4-.184-.2-.088-.406-.172-.6-.264v-.012A25.834,25.834,0,0,1,7,51.571V55a4,4,0,0,1-4,4,1.955,1.955,0,0,0-1.41.59,1.98,1.98,0,0,0,0,2.82A1.955,1.955,0,0,0,3,63H30.87v-.01A34.4,34.4,0,0,1,17.6,60.214C17.735,60.274,17.863,60.34,18,60.4Z" style="fill:url(#linear-gradient-5)"/><path d="M62.41,59.59A1.955,1.955,0,0,0,61,59a4,4,0,0,1-4-4V51.571a25.834,25.834,0,0,1-10,8.367v.012c-.2.1-.421.185-.631.278-.124.056-.242.116-.369.17.127-.054.245-.114.369-.17A34.3,34.3,0,0,1,33,62.99V63H61a1.994,1.994,0,0,0,1.41-3.41Z" style="fill:url(#linear-gradient-6)"/><path d="M55.045,10c.592.649,1.141,1.318,1.651,2" style="fill:none;stroke:#1d1d1b;stroke-linejoin:round;stroke-width:2px"/><path d="M7,51.584A34,34,0,0,1,1,33V31C.96,25,4.3,1,32,1c9.68,0,16.385,2.931,21.011,7" style="fill:none;stroke:#1d1d1b;stroke-linejoin:round;stroke-width:2px"/><path d="M40,21a31.971,31.971,0,0,1,16,5" style="fill:none;stroke:#1d1d1b;stroke-linejoin:round;stroke-width:2px"/><path d="M42,12s2,8,14,8" style="fill:none;stroke:#1d1d1b;stroke-linejoin:round;stroke-width:2px"/><path d="M20.611,42.139A12.331,12.331,0,0,0,20,45.156c-.041.531.367.955.793.818C22.562,45.409,26.928,43,32,43s9.438,2.409,11.2,2.974c.426.137.834-.287.793-.818a12.331,12.331,0,0,0-.608-3.017A12.275,12.275,0,0,0,32,34a12.275,12.275,0,0,0-11.389,8.139Z" style="fill:none;stroke:#1d1d1b;stroke-linejoin:round;stroke-width:2px"/><path d="M52,24s5,9,5,28v3a4,4,0,0,0,4,4h0a2,2,0,0,1,2,2h0a2,2,0,0,1-2,2H33" style="fill:none;stroke:#1d1d1b;stroke-linejoin:round;stroke-width:2px"/><path d="M24,21A31.971,31.971,0,0,0,8,26" style="fill:none;stroke:#1d1d1b;stroke-linejoin:round;stroke-width:2px"/><path d="M22,12s-2,8-14,8" style="fill:none;stroke:#1d1d1b;stroke-linejoin:round;stroke-width:2px"/><path d="M57,51.584A34.006,34.006,0,0,0,63,33V30.89A34.4,34.4,0,0,0,58.06,14" style="fill:none;stroke:#1d1d1b;stroke-linejoin:round;stroke-width:2px"/><path d="M21,21s-4,11-4,39v-.053A34.521,34.521,0,0,0,32,63a34.521,34.521,0,0,0,15-3.053V60c0-28-4-39-4-39" style="fill:none;stroke:#1d1d1b;stroke-linejoin:round;stroke-width:2px"/><path d="M12,24S7,33,7,52v3a4,4,0,0,1-4,4H3a2,2,0,0,0-2,2H1a2,2,0,0,0,2,2H31" style="fill:none;stroke:#1d1d1b;stroke-linejoin:round;stroke-width:2px"/></g></svg>