<svg xmlns="http://www.w3.org/2000/svg" viewBox="0 0 64 64"><g id="Layer_2" data-name="Layer 2"><polygon points="39 63 34 61 32 63 30 61 25 63 28 59 30 31 34 31 36 59 39 63" style="fill:#c67a60"/><path d="M28.15,56.905A3.891,3.891,0,0,0,29,57a3.972,3.972,0,0,0,3-1.38A3.972,3.972,0,0,0,35,57a3.891,3.891,0,0,0,.85-.095L34.857,43H29.143Z" style="fill:#b26049"/><path d="M31.084,57.826,33,31H30L28,59l-3,4,4.286-1.714,1.008-1.345A4,4,0,0,0,31.084,57.826Z" style="fill:#b26049"/><path d="M19,41q-5,5-6,10a3.985,3.985,0,0,0,7,2.62,3.951,3.951,0,0,0,6,0,3.951,3.951,0,0,0,6,0,3.951,3.951,0,0,0,6,0,3.951,3.951,0,0,0,6,0A3.985,3.985,0,0,0,51,51q-1-5-6-10Z" style="fill:#85b27c"/><path d="M50,52a3.914,3.914,0,0,1-1.937-.511,2.13,2.13,0,0,0-2.126,0,3.927,3.927,0,0,1-3.874,0,2.13,2.13,0,0,0-2.126,0,3.927,3.927,0,0,1-3.874,0,2.13,2.13,0,0,0-2.126,0,3.927,3.927,0,0,1-3.874,0,2.13,2.13,0,0,0-2.126,0,3.927,3.927,0,0,1-3.874,0,2.13,2.13,0,0,0-2.126,0A3.914,3.914,0,0,1,20,52a3.882,3.882,0,0,1-3.713-5.161A18.288,18.288,0,0,1,19.375,41H19q-5,5-6,10a3.985,3.985,0,0,0,7,2.62,3.951,3.951,0,0,0,6,0,3.951,3.951,0,0,0,6,0,3.951,3.951,0,0,0,6,0,3.951,3.951,0,0,0,6,0,3.976,3.976,0,0,0,6.892-1.728A3.974,3.974,0,0,1,50,52Z" style="fill:#699b5d"/><path d="M20,31q-4,5-4,10a3.985,3.985,0,0,0,7,2.62,3.951,3.951,0,0,0,6,0,3.951,3.951,0,0,0,6,0,3.951,3.951,0,0,0,6,0A3.985,3.985,0,0,0,48,41q0-5-4-10Z" style="fill:#629955"/><path d="M47,42a3.914,3.914,0,0,1-1.937-.511,2.13,2.13,0,0,0-2.126,0,3.927,3.927,0,0,1-3.874,0,2.13,2.13,0,0,0-2.126,0,3.927,3.927,0,0,1-3.874,0,2.13,2.13,0,0,0-2.126,0,3.927,3.927,0,0,1-3.874,0,2.132,2.132,0,0,0-2.127,0,3.926,3.926,0,0,1-2.427.48A4.113,4.113,0,0,1,19,37.78,14.333,14.333,0,0,1,20.975,31H20a16.271,16.271,0,0,0-3.991,9.535,4.18,4.18,0,0,0,3.476,4.432A3.966,3.966,0,0,0,23,43.62a3.951,3.951,0,0,0,6,0,3.951,3.951,0,0,0,6,0,3.951,3.951,0,0,0,6,0,3.976,3.976,0,0,0,6.892-1.728A3.974,3.974,0,0,1,47,42Z" style="fill:#508c3f"/><path d="M23,21c-1.5,3.333-3.667,6.667-4,10a3.985,3.985,0,0,0,7,2.62,3.951,3.951,0,0,0,6,0,3.951,3.951,0,0,0,6,0A3.985,3.985,0,0,0,45,31c-.333-3.333-2.5-6.667-4-10Z" style="fill:#85b27c"/><path d="M44,32a3.914,3.914,0,0,1-1.937-.511,2.13,2.13,0,0,0-2.126,0,3.927,3.927,0,0,1-3.874,0,2.13,2.13,0,0,0-2.126,0,3.927,3.927,0,0,1-3.874,0,2.13,2.13,0,0,0-2.126,0A3.914,3.914,0,0,1,26,32a4,4,0,0,1-4-4,21.06,21.06,0,0,1,2.539-7H23c-1.5,3.333-3.667,6.667-4,10a3.985,3.985,0,0,0,7,2.62,3.951,3.951,0,0,0,6,0,3.951,3.951,0,0,0,6,0,3.976,3.976,0,0,0,6.892-1.728A3.974,3.974,0,0,1,44,32Z" style="fill:#699b5d"/><path d="M26,11c-1.429,3.333-3.667,6.667-4,10a3.985,3.985,0,0,0,7,2.62,3.951,3.951,0,0,0,6,0A3.985,3.985,0,0,0,42,21c-.333-3.333-2.571-6.667-4-10Z" style="fill:#629955"/><path d="M41,22a3.914,3.914,0,0,1-1.937-.511,2.13,2.13,0,0,0-2.126,0,3.927,3.927,0,0,1-3.874,0,2.13,2.13,0,0,0-2.126,0A3.914,3.914,0,0,1,29,22a4,4,0,0,1-4-4c.233-2.333,1.4-4.667,2.569-7H26c-1.429,3.333-3.667,6.667-4,10a3.985,3.985,0,0,0,7,2.62,3.951,3.951,0,0,0,6,0,3.976,3.976,0,0,0,6.892-1.728A3.974,3.974,0,0,1,41,22Z" style="fill:#508c3f"/><path d="M28.837,2.749A33.644,33.644,0,0,0,25,11a3.985,3.985,0,0,0,7,2.62A3.985,3.985,0,0,0,39,11a33.644,33.644,0,0,0-3.837-8.251A3.744,3.744,0,0,0,32,1h0A3.744,3.744,0,0,0,28.837,2.749Z" style="fill:#85b27c"/><path d="M34.747,7a1,1,0,0,1-.882-.527c-.379-.7-.8-1.419-1.24-2.124a1,1,0,0,1,1.691-1.067c.47.744.911,1.5,1.31,2.245A1,1,0,0,1,34.747,7Z" style="fill:#fff"/><path d="M38,12a3.914,3.914,0,0,1-1.937-.511,2.13,2.13,0,0,0-2.126,0A3.914,3.914,0,0,1,32,12a4,4,0,0,1-4-4,32.677,32.677,0,0,1,3.022-6.867,3.748,3.748,0,0,0-2.185,1.616A33.644,33.644,0,0,0,25,11a3.985,3.985,0,0,0,7,2.62,3.976,3.976,0,0,0,6.892-1.728A3.974,3.974,0,0,1,38,12Z" style="fill:#699b5d"/><path d="M51.98,50.8a16.766,16.766,0,0,0-2.123-5.319,1,1,0,0,0-1.714,1.03A14.9,14.9,0,0,1,50,51.094,3,3,0,0,1,47,54a1,1,0,0,0,0,2,5.006,5.006,0,0,0,5-5A.925.925,0,0,0,51.98,50.8Z"/><path d="M43.247,52.962a3.017,3.017,0,0,1-4.494,0,1.034,1.034,0,0,0-1.506,0,3.017,3.017,0,0,1-4.494,0,1.034,1.034,0,0,0-1.506,0,3.017,3.017,0,0,1-4.494,0,1.034,1.034,0,0,0-1.506,0,3.017,3.017,0,0,1-4.494,0,1.034,1.034,0,0,0-1.506,0A2.955,2.955,0,0,1,17,54a3,3,0,0,1-3-2.906,14.9,14.9,0,0,1,1.856-4.579,1,1,0,1,0-1.714-1.03A16.766,16.766,0,0,0,12.02,50.8.925.925,0,0,0,12,51a4.981,4.981,0,0,0,8,3.981,5.068,5.068,0,0,0,6,0,4.728,4.728,0,0,0,1.237.661l-.214,2.994L24.2,62.4a1,1,0,0,0,1.172,1.529l4.387-1.755,1.534,1.533a1,1,0,0,0,1.414,0l1.534-1.533,4.387,1.755A1.011,1.011,0,0,0,39,64a1,1,0,0,0,.8-1.6l-2.823-3.764-.214-2.994A4.728,4.728,0,0,0,38,54.981a4.94,4.94,0,0,0,6.753-.7,1,1,0,1,0-1.506-1.316Zm-8.875,7.109a1,1,0,0,0-1.079.222L32,61.586l-1.293-1.293a1,1,0,0,0-1.079-.222l-1.689.676L28.8,59.6a1.006,1.006,0,0,0,.2-.529l.223-3.124A4.927,4.927,0,0,0,32,54.981a4.927,4.927,0,0,0,2.779.966L35,59.071a1.006,1.006,0,0,0,.2.529l.861,1.147Z"/><path d="M20,46a4.957,4.957,0,0,0,3-1.019,5.068,5.068,0,0,0,6,0,5.068,5.068,0,0,0,6,0,5.068,5.068,0,0,0,6,0A4.981,4.981,0,0,0,49,41a14.813,14.813,0,0,0-1.539-6.433,1,1,0,0,0-1.8.866A12.831,12.831,0,0,1,47,41a3,3,0,0,1-3,3,2.955,2.955,0,0,1-2.247-1.038,1.034,1.034,0,0,0-1.506,0,3.017,3.017,0,0,1-4.494,0,1.034,1.034,0,0,0-1.506,0,3.017,3.017,0,0,1-4.494,0,1.034,1.034,0,0,0-1.506,0,3.017,3.017,0,0,1-4.494,0,1.034,1.034,0,0,0-1.506,0A2.955,2.955,0,0,1,20,44a3,3,0,0,1-3-3,12.831,12.831,0,0,1,1.341-5.567,1,1,0,0,0-1.8-.866A14.813,14.813,0,0,0,15,41,5.006,5.006,0,0,0,20,46Z"/><path d="M42.52,24.1a1,1,0,0,0-.458,1.338A17.723,17.723,0,0,1,44,31a3,3,0,0,1-3,3,2.955,2.955,0,0,1-2.247-1.038,1.034,1.034,0,0,0-1.506,0,3.017,3.017,0,0,1-4.494,0,1.034,1.034,0,0,0-1.506,0A2.955,2.955,0,0,1,29,34a1,1,0,0,0,0,2,4.957,4.957,0,0,0,3-1.019,5.068,5.068,0,0,0,6,0A4.957,4.957,0,0,0,41,36,5.021,5.021,0,0,0,46,30.9a19.284,19.284,0,0,0-2.137-6.34A1,1,0,0,0,42.52,24.1Z"/><path d="M23,36a5,5,0,0,0,3.753-1.722,1,1,0,0,0-1.506-1.316A2.955,2.955,0,0,1,23,34a2.992,2.992,0,0,1-3-2.9,17.549,17.549,0,0,1,1.943-5.66,1,1,0,0,0-1.8-.88A19.185,19.185,0,0,0,18,31,5.006,5.006,0,0,0,23,36Z"/><path d="M26,26a4.957,4.957,0,0,0,3-1.019,5.068,5.068,0,0,0,6,0A4.957,4.957,0,0,0,38,26,5.021,5.021,0,0,0,43,20.9a19.237,19.237,0,0,0-2.169-6.341,1,1,0,1,0-1.794.882A17.837,17.837,0,0,1,41,21a3,3,0,0,1-3,3,2.955,2.955,0,0,1-2.247-1.038,1.034,1.034,0,0,0-1.506,0,3.017,3.017,0,0,1-4.494,0,1.034,1.034,0,0,0-1.506,0A2.955,2.955,0,0,1,26,24a2.992,2.992,0,0,1-3-2.9,17.655,17.655,0,0,1,1.973-5.659,1,1,0,1,0-1.794-.882A19.138,19.138,0,0,0,21,21,5.006,5.006,0,0,0,26,26Z"/><path d="M29,16a4.957,4.957,0,0,0,3-1.019A4.981,4.981,0,0,0,40,11a.992.992,0,0,0-.042-.287,34.808,34.808,0,0,0-3.949-8.5,4.734,4.734,0,0,0-8.018,0,34.808,34.808,0,0,0-3.949,8.5A.992.992,0,0,0,24,11,5.006,5.006,0,0,0,29,16Zm.683-12.718a2.735,2.735,0,0,1,4.634,0A32.965,32.965,0,0,1,38,11.138,3,3,0,0,1,35,14a2.955,2.955,0,0,1-2.247-1.038,1,1,0,0,0-1.506,0A2.955,2.955,0,0,1,29,14a3,3,0,0,1-3-2.862A32.965,32.965,0,0,1,29.683,3.282Z"/></g></svg>