<svg xmlns="http://www.w3.org/2000/svg" viewBox="0 0 64 64"><g id="_25-refun" data-name="25-refun"><path d="M49,56c3.73-1.49,4.68-3.54,4.91-4.48l2.87.78C55.94,53.45,53,57.86,53,63H45c0-5.14-2.94-9.55-3.78-10.7l2.87-.78C44.32,52.46,45.27,54.51,49,56Z" style="fill:#f0f0f0"/><path d="M63,54v9H53c0-5.14,2.94-9.55,3.78-10.7Z" style="fill:#fc9942"/><path d="M45,63H35V54l6.22-1.7C42.06,53.45,45,57.86,45,63Z" style="fill:#fc9942"/><path d="M52,51l1.91.52c-.23.94-1.18,2.99-4.91,4.48-3.73-1.49-4.68-3.54-4.91-4.48L46,51V47.5L49,49l3-1.5Z" style="fill:#faa68e"/><path d="M52,47.5,49,49l-3-1.5L43,46l-1-7s4,0,4-3c0,0,0,3,10,3l-1,7Z" style="fill:#ffcdbe"/><path d="M46,38s.006,2.94,9.715,3L56,39c-10,0-10-3-10-3,0,3-4,3-4,3l.284,1.986C43.188,40.921,46,40.519,46,38Z" style="fill:#ffbeaa"/><path d="M59,35a35.412,35.412,0,0,0,2,12,11.6,11.6,0,0,1-9,4V47.5L55,46l1-7c-10,0-10-3-10-3,0,3-4,3-4,3l1,7,3,1.5V51a11.6,11.6,0,0,1-9-4,35.412,35.412,0,0,0,2-12,10,10,0,0,1,20,0Z" style="fill:#966857"/><path d="M52,47.5v3L55,49l1-7c-.147,0-.285,0-.428,0L55,46Z" style="fill:#8d5c4d"/><path d="M37.709,47.766A37.658,37.658,0,0,0,39,38a10,10,0,0,1,20,0,37.658,37.658,0,0,0,1.291,9.766A7.557,7.557,0,0,0,61,47a35.412,35.412,0,0,1-2-12,10,10,0,0,0-20,0,35.412,35.412,0,0,1-2,12A7.557,7.557,0,0,0,37.709,47.766Z" style="fill:#8d5c4d"/><path d="M42.425,41.974C42.166,42,42,42,42,42l1,7,3,1.5v-3L43,46Z" style="fill:#8d5c4d"/><path d="M44.678,60A14.8,14.8,0,0,1,45,63h8a14.8,14.8,0,0,1,.322-3Z" style="fill:#d9d9d9"/><path d="M53.322,60A14.8,14.8,0,0,0,53,63H63V60Z" style="fill:#ff873c"/><path d="M42,60a4,4,0,0,1-4-4V53.18L35,54v9H45a14.8,14.8,0,0,0-.322-3Z" style="fill:#ff873c"/><polygon points="50 44 50 46 43 46 42.71 44 50 44" style="fill:#595959"/><path d="M8,15l.71,4.99a3.665,3.665,0,0,1-3.3-2.93L5,15H8Z" style="fill:#faa68e"/><path d="M24,15h1l-.41,2.06a3.665,3.665,0,0,1-3.3,2.93L22,15Z" style="fill:#faa68e"/><polygon points="20 27.55 20 29 17 32 15 30 18 27 20 27.55" style="fill:#4ab8f7"/><polygon points="15 30 13 32 10 29 10 27.55 12 27 15 30" style="fill:#4ab8f7"/><polygon points="29 30 29 39 15 39 15 30 17 32 20 29 20 27.55 29 30" style="fill:#19cffc"/><polygon points="15 30 15 39 1 39 1 30 10 27.55 10 29 13 32 15 30" style="fill:#96e8ff"/><polygon points="18 23.5 18 27 15 30 12 27 12 23.5 15 25 18 23.5" style="fill:#faa68e"/><path d="M22,15l-.71,4.99L21,22l-3,1.5L15,25l-3-1.5L9,22l-.29-2.01L8,15s4,0,4-3C12,12,12,15,22,15Z" style="fill:#ffcdbe"/><path d="M12,14s.006,2.94,9.716,3L22,15c-10,0-10-3-10-3,0,3-4,3-4,3l.283,1.986C9.186,16.922,12,16.52,12,14Z" style="fill:#ffbeaa"/><path d="M25,11l-1,4H22c-10,0-10-3-10-3,0,3-4,3-4,3H6L5,11a10,10,0,0,1,20,0Z" style="fill:#595959"/><path d="M7.93,6.93A10,10,0,0,1,24.775,11.9L25,11A10,10,0,0,0,5,11l.225.9A9.989,9.989,0,0,1,7.93,6.93Z" style="fill:#474747"/><path d="M31,57H27v4a2.006,2.006,0,0,1-2,2H3a2.006,2.006,0,0,1-2-2V45a2.006,2.006,0,0,1,2-2H25a2.006,2.006,0,0,1,2,2v8Z" style="fill:#ffac5a"/><path d="M4,61V45a2.006,2.006,0,0,1,2-2H3a2.006,2.006,0,0,0-2,2V61a2.006,2.006,0,0,0,2,2H6A2.006,2.006,0,0,1,4,61Z" style="fill:#ff873c"/><rect x="46" y="15" width="4" height="3" style="fill:#ffc9c9"/><polygon points="51 4 50 12 46 12 45 4 51 4" style="fill:#ffc9c9"/><path d="M61,1H35a2.006,2.006,0,0,0-2,2v8l-4,4h4v4a2.006,2.006,0,0,0,2,2H61a2.006,2.006,0,0,0,2-2V3A2.006,2.006,0,0,0,61,1ZM50,18H46V15h4Zm0-6H46L45,4h6Z" style="fill:#ff636e"/><rect x="50" y="15" width="3" height="3" style="fill:#ff475a"/><polygon points="50 12 53 12 54 4 51 4 50 12" style="fill:#ff475a"/><path d="M36,3a2.006,2.006,0,0,1,2-2H35a2.006,2.006,0,0,0-2,2v8l-4,4h3l4-4Z" style="fill:#ff475a"/><path d="M36,19V15H33v4a2.006,2.006,0,0,0,2,2h3A2.006,2.006,0,0,1,36,19Z" style="fill:#ff475a"/><path d="M13,50h2a1,1,0,0,1,1,1h2a3,3,0,0,0-3-3V47H13v1a3,3,0,0,0,0,6h2a1,1,0,0,1,0,2H13a1,1,0,0,1-1-1H10a3,3,0,0,0,3,3v1h2V58a3,3,0,0,0,0-6H13a1,1,0,0,1,0-2Z" style="fill:#ffcf94"/><rect x="20" y="52" width="2" height="2" style="fill:#ffcf94"/><rect x="6" y="52" width="2" height="2" style="fill:#ffcf94"/><path d="M63.263,53.035,56.569,51.21A12.014,12.014,0,0,0,61.8,47.6a1,1,0,0,0,.129-.97A34.828,34.828,0,0,1,60,35a11,11,0,0,0-22,0,34.828,34.828,0,0,1-1.929,11.63,1,1,0,0,0,.129.97,12.014,12.014,0,0,0,5.231,3.61l-6.694,1.825A1,1,0,0,0,34,54v9a1,1,0,0,0,1,1H63a1,1,0,0,0,1-1V54A1,1,0,0,0,63.263,53.035ZM43.725,44l-.587-4.1a4.99,4.99,0,0,0,3.223-1.788c1.278.9,3.743,1.758,8.488,1.878l-.765,5.354L49,47.882,45.236,46H50V44Zm2.538,7.965A1,1,0,0,0,47,51V49.118l1.553.777a1,1,0,0,0,.894,0L51,49.118V51a1,1,0,0,0,.737.965l.813.222A7.4,7.4,0,0,1,49,54.917a7.372,7.372,0,0,1-3.552-2.73Zm2.365,4.964a1.01,1.01,0,0,0,.744,0c3.156-1.263,4.541-2.952,5.15-4.205l.644.176A20.4,20.4,0,0,0,52.039,62H45.961a20.4,20.4,0,0,0-3.127-9.1l.644-.176C44.087,53.977,45.472,55.666,48.628,56.929ZM40,35a9,9,0,0,1,18,0,37.481,37.481,0,0,0,1.859,11.791A10.714,10.714,0,0,1,53,49.936V48.118L55.447,46.9a1,1,0,0,0,.543-.753l1-7A1,1,0,0,0,56,38c-7.981,0-8.943-1.942-9-2.094A1,1,0,0,0,45,36c0,1.959-2.88,2-3,2a1,1,0,0,0-.99,1.142l1,7a1,1,0,0,0,.543.753L45,48.118v1.818a10.709,10.709,0,0,1-6.859-3.145A37.481,37.481,0,0,0,40,35ZM36,54.764l4.807-1.311A18.919,18.919,0,0,1,43.959,62H36ZM62,62H54.041A19.007,19.007,0,0,1,57.2,53.453L62,54.764Z"/><path d="M1,40H29a1,1,0,0,0,1-1V30a1,1,0,0,0-.737-.965L19,26.236V24.118L21.447,22.9a1,1,0,0,0,.543-.753l.187-1.312a4.661,4.661,0,0,0,3.392-3.575L25.98,15.2a1,1,0,0,0-.207-.83.98.98,0,0,0-.507-.306l.7-2.818A.984.984,0,0,0,26,11,11,11,0,0,0,4,11a.984.984,0,0,0,.03.242l.7,2.818a.98.98,0,0,0-.507.306,1,1,0,0,0-.207.83l.411,2.059A4.661,4.661,0,0,0,7.823,20.83l.187,1.312a1,1,0,0,0,.543.753L11,24.118v2.118L.737,29.035A1,1,0,0,0,0,30v9A1,1,0,0,0,1,40ZM18.3,28.117l.7.192v.277l-2,2L16.414,30ZM28,38H16V32.414l.293.293a1,1,0,0,0,1.414,0l3-3A1,1,0,0,0,21,29v-.145l7,1.909ZM23.608,16.862a2.651,2.651,0,0,1-1.1,1.656L22.867,16h.913ZM15,2a9.01,9.01,0,0,1,9,8.88L23.219,14H22c-7.981,0-8.943-1.942-9-2.094A1,1,0,0,0,11,12c0,1.959-2.88,2-3,2H6.781L6,10.88A9.01,9.01,0,0,1,15,2ZM6.392,16.862,6.22,16h.913l.36,2.518A2.651,2.651,0,0,1,6.392,16.862ZM9.138,15.9a4.99,4.99,0,0,0,3.223-1.788c1.278.9,3.743,1.758,8.488,1.878l-.765,5.354L15,23.882,9.916,21.34Zm5.415,10a1,1,0,0,0,.894,0L17,25.118v1.468l-2,2-2-2V25.118ZM11.7,28.117,13.586,30,13,30.586l-2-2v-.277ZM2,30.764l7-1.909V29a1,1,0,0,0,.293.707l3,3a1,1,0,0,0,1.414,0L14,32.414V38H2Z"/><path d="M61,0H35a3,3,0,0,0-3,3v7.586l-3.707,3.707A1,1,0,0,0,29,16h3v3a3,3,0,0,0,3,3H61a3,3,0,0,0,3-3V3A3,3,0,0,0,61,0Zm1,19a1,1,0,0,1-1,1H35a1,1,0,0,1-1-1V15a1,1,0,0,0-1-1H31.414l2.293-2.293A1,1,0,0,0,34,11V3a1,1,0,0,1,1-1H61a1,1,0,0,1,1,1Z"/><path d="M28,52.586V45a3,3,0,0,0-3-3H3a3,3,0,0,0-3,3V61a3,3,0,0,0,3,3H25a3,3,0,0,0,3-3V58h3a1,1,0,0,0,.707-1.707ZM27,56a1,1,0,0,0-1,1v4a1,1,0,0,1-1,1H3a1,1,0,0,1-1-1V45a1,1,0,0,1,1-1H25a1,1,0,0,1,1,1v8a1,1,0,0,0,.293.707L28.586,56Z"/><path d="M13,50h2a1,1,0,0,1,1,1h2a3,3,0,0,0-3-3V47H13v1a3,3,0,0,0,0,6h2a1,1,0,0,1,0,2H13a1,1,0,0,1-1-1H10a3,3,0,0,0,3,3v1h2V58a3,3,0,0,0,0-6H13a1,1,0,0,1,0-2Z"/><rect x="20" y="52" width="2" height="2"/><rect x="6" y="52" width="2" height="2"/><path d="M51,3H45a1,1,0,0,0-.992,1.124l1,8A1,1,0,0,0,46,13h4a1,1,0,0,0,.992-.876l1-8A1,1,0,0,0,51,3Zm-1.883,8H46.883l-.75-6h3.734Z"/><path d="M50,14H46a1,1,0,0,0-1,1v3a1,1,0,0,0,1,1h4a1,1,0,0,0,1-1V15A1,1,0,0,0,50,14Zm-1,3H47V16h2Z"/></g></svg>