<svg xmlns="http://www.w3.org/2000/svg" viewBox="0 0 64 64"><title>25-Yoga_1</title><g id="_26-aroma" data-name="26-aroma"><path d="M17,26a2.015,2.015,0,0,1,2-2,2.006,2.006,0,0,1,2,2V50l-2,2V63H5V53L1,49V33s4,0,4,4V25a2.006,2.006,0,0,1,2-2,2.015,2.015,0,0,1,2,2V23a2.015,2.015,0,0,1,2-2,2.006,2.006,0,0,1,2,2v2a2.015,2.015,0,0,1,2-2,2.006,2.006,0,0,1,2,2Z" style="fill:#ffdecf"/><path d="M3,49V33.5A4.983,4.983,0,0,0,1,33V49l4,4V63H7V53Z" style="fill:#ffbeaa"/><path d="M7,23H7a0,0,0,0,1,0,0V41a0,0,0,0,1,0,0H5a0,0,0,0,1,0,0V25A2,2,0,0,1,7,23Z" style="fill:#ffbeaa"/><path d="M11,21h0a0,0,0,0,1,0,0V34a0,0,0,0,1,0,0H9a0,0,0,0,1,0,0V23A2,2,0,0,1,11,21Z" style="fill:#ffbeaa"/><path d="M15,23h0a0,0,0,0,1,0,0V34a0,0,0,0,1,0,0H13a0,0,0,0,1,0,0V25A2,2,0,0,1,15,23Z" style="fill:#ffbeaa"/><path d="M19,24h0a0,0,0,0,1,0,0V34a0,0,0,0,1,0,0H17a0,0,0,0,1,0,0V26A2,2,0,0,1,19,24Z" style="fill:#ffbeaa"/><path d="M5,41H8a4,4,0,0,1,4,4v5h2V45a6,6,0,0,0-6-6H5Z" style="fill:#ffbeaa"/><path d="M47,26a2.015,2.015,0,0,0-2-2,2.006,2.006,0,0,0-2,2V50l2,2V63H59V53l4-4V33s-4,0-4,4V25a2.006,2.006,0,0,0-2-2,2.015,2.015,0,0,0-2,2V23a2.015,2.015,0,0,0-2-2,2.006,2.006,0,0,0-2,2v2a2.015,2.015,0,0,0-2-2,2.006,2.006,0,0,0-2,2Z" style="fill:#ffdecf"/><path d="M61,49V33.5a4.983,4.983,0,0,1,2-.5V49l-4,4V63H57V53Z" style="fill:#ffbeaa"/><path d="M57,23h2a0,0,0,0,1,0,0V41a0,0,0,0,1,0,0h0a2,2,0,0,1-2-2V23A0,0,0,0,1,57,23Z" transform="translate(116 64) rotate(-180)" style="fill:#ffbeaa"/><path d="M53,21h2a0,0,0,0,1,0,0V34a0,0,0,0,1,0,0h0a2,2,0,0,1-2-2V21A0,0,0,0,1,53,21Z" transform="translate(108 55) rotate(-180)" style="fill:#ffbeaa"/><path d="M49,23h2a0,0,0,0,1,0,0V34a0,0,0,0,1,0,0h0a2,2,0,0,1-2-2V23A0,0,0,0,1,49,23Z" transform="translate(100 57) rotate(-180)" style="fill:#ffbeaa"/><path d="M45,24h2a0,0,0,0,1,0,0V34a0,0,0,0,1,0,0h0a2,2,0,0,1-2-2V24A0,0,0,0,1,45,24Z" transform="translate(92 58) rotate(-180)" style="fill:#ffbeaa"/><path d="M59,41H56a4,4,0,0,0-4,4v5H50V45a6,6,0,0,1,6-6h3Z" style="fill:#ffbeaa"/><path d="M30.02,28.47a12.331,12.331,0,0,0,1.51,1.22,12,12,0,0,1-1.53.24,13.591,13.591,0,0,1-1.76.06,15.12,15.12,0,0,1-10.61-4.54,17.929,17.929,0,0,1-3.8-5.67,22.884,22.884,0,0,1-1.81-9.76,22.222,22.222,0,0,1,13.27,3.79A18.19,18.19,0,0,0,25,17a15.581,15.581,0,0,0,.34,3.31A15.29,15.29,0,0,0,30.02,28.47Z" style="fill:#ffa1c8"/><path d="M51.98,10.02a22.884,22.884,0,0,1-1.81,9.76,17.929,17.929,0,0,1-3.8,5.67,15.12,15.12,0,0,1-10.61,4.54A13.591,13.591,0,0,1,34,29.93a12,12,0,0,1-1.53-.24,12.331,12.331,0,0,0,1.51-1.22,15.29,15.29,0,0,0,4.68-8.16A15.581,15.581,0,0,0,39,17a18.19,18.19,0,0,0-.29-3.19A22.222,22.222,0,0,1,51.98,10.02Z" style="fill:#ffa1c8"/><path d="M25.085,18.674A16.741,16.741,0,0,1,25,17a18.19,18.19,0,0,1,.29-3.19,22.222,22.222,0,0,0-13.27-3.79A21.623,21.623,0,0,0,12.4,15,22.26,22.26,0,0,1,25.085,18.674Z" style="fill:#e090b7"/><path d="M25,22a15.581,15.581,0,0,0,.34,3.31,14.914,14.914,0,0,0,1.81,4.623c.38.033.745.051,1.09.057A13.591,13.591,0,0,0,30,29.93a12,12,0,0,0,1.53-.24,12.331,12.331,0,0,1-1.51-1.22,15.29,15.29,0,0,1-4.68-8.16c-.06-.274-.092-.573-.137-.862A17.714,17.714,0,0,0,25,22Z" style="fill:#e090b7"/><path d="M38.915,18.674A22.26,22.26,0,0,1,51.6,15a21.623,21.623,0,0,0,.376-4.984,22.222,22.222,0,0,0-13.27,3.79A18.19,18.19,0,0,1,39,17,16.741,16.741,0,0,1,38.915,18.674Z" style="fill:#e090b7"/><path d="M35.76,29.99c.345-.006.71-.024,1.09-.057a14.914,14.914,0,0,0,1.81-4.623A15.581,15.581,0,0,0,39,22a17.714,17.714,0,0,0-.2-2.552c-.045.289-.077.588-.137.862a15.29,15.29,0,0,1-4.68,8.16,12.331,12.331,0,0,1-1.51,1.22,12,12,0,0,0,1.53.24A13.591,13.591,0,0,0,35.76,29.99Z" style="fill:#e090b7"/><path d="M32,1s5.38,5.61,6.71,12.81A18.19,18.19,0,0,1,39,17a15.581,15.581,0,0,1-.34,3.31,15.29,15.29,0,0,1-4.68,8.16,12.331,12.331,0,0,1-1.51,1.22c-.3.21-.47.31-.47.31s-.17-.1-.47-.31a12.331,12.331,0,0,1-1.51-1.22,15.29,15.29,0,0,1-4.68-8.16A15.581,15.581,0,0,1,25,17a18.19,18.19,0,0,1,.29-3.19C26.62,6.61,32,1,32,1Z" style="fill:#ff73a5"/><path d="M25.373,20.436C26.816,13.419,32,8,32,8s5.184,5.419,6.627,12.436c.01-.043.024-.082.033-.126A15.581,15.581,0,0,0,39,17a18.19,18.19,0,0,0-.29-3.19C37.38,6.61,32,1,32,1s-5.38,5.61-6.71,12.81A18.19,18.19,0,0,0,25,17a15.581,15.581,0,0,0,.34,3.31C25.349,20.354,25.363,20.393,25.373,20.436Z" style="fill:#ff8fb8"/><path d="M6,63H4V53.414L.293,49.707A1,1,0,0,1,0,49V33a1,1,0,0,1,1-1,4.821,4.821,0,0,1,5,5v3H9c.04,0,4,.068,4,6v4H11V46c0-3.794-1.815-3.99-2.022-4H5a1,1,0,0,1-1-1V37a2.686,2.686,0,0,0-2-2.846V48.586l3.707,3.707A1,1,0,0,1,6,53Z"/><path d="M6,37H4V25a3,3,0,0,1,6,0v9H8V25a1,1,0,0,0-2,0Z"/><path d="M14,34H12V23a1,1,0,0,0-2,0V34H8V23a3,3,0,0,1,6,0Z"/><path d="M20,63H18V52a1,1,0,0,1,.293-.707L20,49.586V28h2V50a1,1,0,0,1-.293.707L20,52.414Z"/><path d="M60,63H58V53a1,1,0,0,1,.293-.707L62,48.586V34.153A2.687,2.687,0,0,0,60,37v4a1,1,0,0,1-1,1H55c-.185.01-2,.206-2,4v4H51V46c0-5.932,3.96-6,4-6h3V37a4.821,4.821,0,0,1,5-5,1,1,0,0,1,1,1V49a1,1,0,0,1-.293.707L60,53.414Z"/><path d="M60,37H58V25a1,1,0,0,0-2,0v9H54V25a3,3,0,0,1,6,0Z"/><path d="M56,34H54V23a1,1,0,0,0-2,0V34H50V23a3,3,0,0,1,6,0Z"/><path d="M46,63H44V52.414l-1.707-1.707A1,1,0,0,1,42,50V28h2V49.586l1.707,1.707A1,1,0,0,1,46,52Z"/><path d="M32,31a1,1,0,0,1-.506-.136s-.2-.112-.537-.352a13.193,13.193,0,0,1-1.62-1.31,16.249,16.249,0,0,1-4.976-8.686A16.588,16.588,0,0,1,24,17a19.222,19.222,0,0,1,.306-3.366C25.675,6.22,31.05.546,31.278.308a1.032,1.032,0,0,1,1.444,0c.228.238,5.6,5.912,6.971,13.32v.006A19.222,19.222,0,0,1,40,17a16.587,16.587,0,0,1-.363,3.522,16.245,16.245,0,0,1-4.982,8.685,13.034,13.034,0,0,1-1.631,1.315c-.323.228-.518.34-.518.34A1,1,0,0,1,32,31ZM32,2.521c-1.471,1.776-4.756,6.215-5.727,11.47A17.23,17.23,0,0,0,26,17a14.564,14.564,0,0,0,.317,3.1A14.277,14.277,0,0,0,30.7,27.732,11.884,11.884,0,0,0,32,28.8a11.812,11.812,0,0,0,1.3-1.062,14.273,14.273,0,0,0,4.384-7.634A14.563,14.563,0,0,0,38,17a17.23,17.23,0,0,0-.274-3.012C36.755,8.734,33.471,4.3,32,2.521Z"/><path d="M35.391,31a14.107,14.107,0,0,1-3.151-.331,1,1,0,0,1-.325-1.806A11.18,11.18,0,0,0,33.3,27.739a14.273,14.273,0,0,0,4.384-7.634A14.563,14.563,0,0,0,38,17a17.255,17.255,0,0,0-.274-3.015,1,1,0,0,1,.4-.988,23.066,23.066,0,0,1,13.93-3.975,1,1,0,0,1,.921.922,23.722,23.722,0,0,1-1.89,10.234,18.921,18.921,0,0,1-4.01,5.979,16.108,16.108,0,0,1-11.3,4.833C35.646,30.993,35.517,31,35.391,31Zm-.5-2.01c.264.011.546.013.843,0a14.144,14.144,0,0,0,9.927-4.247,16.94,16.94,0,0,0,3.587-5.356l0,0A22.424,22.424,0,0,0,51,11a21.4,21.4,0,0,0-11.2,3.272A19,19,0,0,1,40,17a16.587,16.587,0,0,1-.363,3.522A16.218,16.218,0,0,1,34.893,28.985Z"/><path d="M28.605,30.994c-.126,0-.256,0-.389,0a16.1,16.1,0,0,1-11.293-4.833,18.933,18.933,0,0,1-4.012-5.983,23.716,23.716,0,0,1-1.888-10.23,1,1,0,0,1,.921-.922A23.063,23.063,0,0,1,25.874,13a1,1,0,0,1,.4.988A17.255,17.255,0,0,0,26,17a14.564,14.564,0,0,0,.317,3.1A14.277,14.277,0,0,0,30.7,27.732a11.262,11.262,0,0,0,1.39,1.126,1,1,0,0,1-.325,1.806A14.133,14.133,0,0,1,28.605,30.994ZM13,11a22.424,22.424,0,0,0,1.748,8.382,16.952,16.952,0,0,0,3.589,5.36,14.142,14.142,0,0,0,9.921,4.247c.3.007.583,0,.849,0a16.218,16.218,0,0,1-4.746-8.471A16.588,16.588,0,0,1,24,17a19,19,0,0,1,.2-2.727A21.4,21.4,0,0,0,13,11Z"/><rect x="16" y="25" width="2" height="9"/><rect x="46" y="25" width="2" height="9"/></g></svg>