<?xml version="1.0" encoding="utf-8"?>
<!-- Generator: Adobe Illustrator 16.0.0, SVG Export Plug-In . SVG Version: 6.00 Build 0)  -->
<!DOCTYPE svg PUBLIC "-//W3C//DTD SVG 1.1//EN" "http://www.w3.org/Graphics/SVG/1.1/DTD/svg11.dtd">
<svg version="1.1" id="Layer_1" xmlns="http://www.w3.org/2000/svg" xmlns:xlink="http://www.w3.org/1999/xlink" x="0px" y="0px"
	 width="512px" height="512px" viewBox="0 0 512 512" enable-background="new 0 0 512 512" xml:space="preserve">
<g id="_x32_5._blood_x2C__money_x2C__banknote_x2C__mafia_x2C__crime_x2C__bandit">
	<g>
		<g>
			<g>
				<path d="M335.288,423.858c-2.21,0-4.037-1.788-4.037-3.998c0-2.209,1.749-3.997,3.951-3.997h0.086
					c2.201,0,3.996,1.788,3.996,3.997C339.284,422.07,337.489,423.858,335.288,423.858z"/>
			</g>
		</g>
		<g>
			<g>
				<path d="M137.295,471.699c-1.062,0-2.077-0.422-2.826-1.171l-96.12-96.112c-0.75-0.749-1.171-1.765-1.171-2.826
					s0.421-2.084,1.171-2.826c2.271-2.264,3.521-5.277,3.529-8.47c0-3.201-1.25-6.215-3.521-8.486c-1.562-1.562-1.562-4.092,0-5.652
					L349.27,35.241c0.75-0.749,1.765-1.171,2.826-1.171l0,0c1.062,0,2.077,0.422,2.826,1.171c2.272,2.272,5.278,3.521,8.479,3.521
					c0.008,0,0.008,0,0.008,0c3.201,0,6.207-1.25,8.471-3.521c0.741-0.749,1.765-1.171,2.826-1.171l0,0
					c1.062,0,2.077,0.422,2.826,1.171l50.87,50.886c1.562,1.561,1.562,4.091,0,5.652c-1.562,1.562-4.091,1.562-5.652,0
					l-48.325-48.333c-3.239,2.155-7.034,3.311-11.016,3.311c0,0,0,0-0.008,0c-3.981,0-7.783-1.155-11.023-3.318L46.554,349.262
					c2.163,3.248,3.318,7.05,3.318,11.032c-0.007,3.98-1.163,7.775-3.318,11.016l91.014,91.014c3.24-2.155,7.034-3.311,11.008-3.318
					c0.008,0,0.016,0,0.016,0c3.982,0,7.784,1.163,11.023,3.318l104.871-104.855c1.562-1.562,4.092-1.562,5.652,0
					c1.562,1.561,1.562,4.09,0,5.651L162.722,470.521c-0.749,0.749-1.764,1.171-2.826,1.171l0,0c-1.062,0-2.076-0.422-2.826-1.171
					c-2.264-2.271-5.277-3.521-8.479-3.521h-0.008c-3.2,0.008-6.198,1.258-8.455,3.521c-0.75,0.757-1.764,1.179-2.826,1.179
					C137.295,471.699,137.295,471.699,137.295,471.699z"/>
			</g>
		</g>
		<g>
			<g>
				<path d="M148.591,505.604c-1.062,0-2.076-0.421-2.826-1.171L4.451,363.111c-1.562-1.562-1.562-4.091,0-5.651L360.574,1.328
					c1.499-1.499,4.153-1.499,5.652,0L507.549,142.65c1.562,1.562,1.562,4.091,0,5.652L151.417,504.434
					C150.668,505.184,149.653,505.604,148.591,505.604z M12.929,360.286l135.662,135.67l350.479-350.48L363.4,9.806L12.929,360.286z
					"/>
			</g>
		</g>
		<g>
			<g>
				<path d="M267.078,293.013c-1.796,0-3.631-0.086-5.496-0.25c-13.615-1.233-26.286-6.792-34.756-15.271l5.652-5.652
					c7.167,7.175,18.042,11.898,29.822,12.96c10.063,0.882,19.432-1.116,23.335-5.027c7.44-7.448,8.463-36.756-7.939-53.15
					l5.652-5.652c18.292,18.284,20.009,52.361,7.939,64.455C286.455,290.257,277.469,293.013,267.078,293.013z"/>
			</g>
		</g>
		<g>
			<g>
				<g>
					<path d="M303.505,266.352c-3.045,0-4.098-1.054-4.918-1.866c-1.562-1.561-1.562-4.09-0.008-5.659
						c1.366-1.366,3.49-1.538,5.035-0.516c1.796,0.211,8.822-1.343,23.983-8.104c1.991-0.898,4.372,0,5.277,2.03
						c0.897,2.014-0.008,4.379-2.029,5.278C315.286,264.447,307.597,266.352,303.505,266.352z"/>
				</g>
			</g>
			<g>
				<g>
					<path d="M301.413,265.649c-1.022,0-2.045-0.391-2.826-1.172l-6.933-6.939c-1.562-1.562-1.562-4.091,0-5.652
						c1.562-1.562,4.091-1.562,5.652,0l6.933,6.94c1.562,1.562,1.562,4.091,0,5.651
						C303.458,265.259,302.436,265.649,301.413,265.649z"/>
				</g>
			</g>
		</g>
		<g>
			<g>
				<g>
					<path d="M259.724,327.348c-0.547,0-1.093-0.109-1.624-0.343c-2.013-0.898-2.927-3.264-2.029-5.278
						c6.721-15.114,8.228-22.086,8.095-23.944c-1.038-1.545-0.874-3.661,0.483-5.035c1.569-1.554,4.092-1.577,5.66-0.023
						c1.921,1.913,5.138,5.105-6.932,32.251C262.714,326.466,261.254,327.348,259.724,327.348z"/>
				</g>
			</g>
			<g>
				<g>
					<path d="M267.491,299.562c-1.022,0-2.045-0.39-2.826-1.171l-6.908-6.925c-1.562-1.569-1.562-4.099,0-5.652
						c1.561-1.562,4.09-1.562,5.652,0l6.908,6.925c1.562,1.569,1.562,4.099,0,5.652
						C269.537,299.173,268.515,299.562,267.491,299.562z"/>
				</g>
			</g>
		</g>
		<g>
			<g>
				<path d="M265.392,327.566c-3.708,0-7.472-0.281-11.195-0.819c-17.612-2.561-34.562-11.211-47.716-24.358
					c-31.158-31.173-33.695-79.358-5.645-107.408c12.593-12.593,29.823-19.525,48.521-19.525c21.422,0,42.883,9.181,58.88,25.186
					c15.044,15.036,23.944,34.444,25.068,54.648c1.14,20.368-5.754,39.105-19.4,52.752
					C301.304,320.634,284.073,327.566,265.392,327.566z M249.356,183.449c-16.559,0-31.782,6.105-42.868,17.184
					c-24.936,24.936-22.398,68.046,5.645,96.104c11.945,11.938,27.293,19.783,43.219,22.094c19.994,2.943,39.581-3.146,52.9-16.441
					c12.015-12.015,18.081-28.589,17.074-46.654c-1.015-18.237-9.088-35.795-22.742-49.441
					C288.071,191.779,268.671,183.449,249.356,183.449z"/>
			</g>
		</g>
		<g>
			<g>
				<path d="M229.261,278.117c-0.039,0.008-0.102,0-0.156,0c-0.905,0-1.811-0.312-2.553-0.921c-14.49-12-21.438-25.1-20.642-38.926
					c1.444-25.255,28.347-43.063,29.487-43.813c1.483-0.96,3.388-0.843,4.747,0.281c1.351,1.124,1.804,2.998,1.125,4.614
					c-0.281,0.671-0.484,1.233-0.625,1.694c1.632-0.898,4.988-2.358,9.704-2.358c7.587,0,19.439,3.856,32.851,22.203
					c1.022,1.39,1.03,3.279,0.023,4.685c-0.999,1.405-2.779,1.975-4.442,1.491l-21.234-6.644
					c-1.772,4.356-5.512,11.632-12.655,18.784c-7.112,7.104-14.287,10.773-18.604,12.507l6.324,20.212
					c0.413,0.633,0.647,1.382,0.647,2.194C233.258,276.329,231.471,278.117,229.261,278.117z M233.125,206.332
					c-7.401,6.449-18.448,18.338-19.236,32.422c-0.382,6.831,1.71,13.553,6.254,20.104l-2.655-8.471
					c-0.328-1.062-0.203-2.209,0.343-3.17c0.547-0.968,1.468-1.655,2.553-1.913c0.078-0.023,9.517-2.428,18.854-11.75
					c9.337-9.345,11.913-18.986,11.937-19.08c0.273-1.062,0.968-1.968,1.929-2.506c0.952-0.531,2.076-0.648,3.138-0.328
					l11.515,3.606c-14.067-13.193-23.342-7.175-23.538-7.034c-0.218,0.156-0.507,0.32-0.757,0.422
					c-0.367,0.156-2.319,0.929-4.458,0.929c-3.264,0-4.911-1.741-5.605-2.779C233.305,206.636,233.211,206.488,233.125,206.332z"/>
			</g>
		</g>
		<g>
			<g>
				<path d="M150.934,381.927c-6.41,0-12.437-2.49-16.965-7.019c-9.337-9.36-9.337-24.577,0-33.922
					c9.048-9.056,24.857-9.056,33.921,0c9.345,9.345,9.345,24.562,0,33.922C163.363,379.437,157.343,381.927,150.934,381.927z
					 M150.934,341.955c-4.278,0-8.292,1.663-11.312,4.684c-6.223,6.23-6.223,16.38,0,22.617c6.035,6.019,16.582,6.034,22.617,0
					c6.23-6.237,6.23-16.387,0-22.617C159.217,343.618,155.204,341.955,150.934,341.955z"/>
			</g>
		</g>
		<g>
			<g>
				<path d="M165.064,376.079c-1.023,0-2.045-0.391-2.826-1.171l-28.269-28.27c-1.562-1.562-1.562-4.091,0-5.652
					s4.091-1.562,5.652,0l28.269,28.27c1.561,1.562,1.561,4.091,0,5.652C167.11,375.688,166.087,376.079,165.064,376.079z"/>
			</g>
		</g>
		<g>
			<g>
				<g>
					<path d="M352.486,177.344c-1.022,0-2.046-0.39-2.826-1.171l-16.957-16.957c-1.562-1.562-1.562-4.091,0-5.652
						c1.562-1.562,4.091-1.562,5.652,0l16.957,16.957c1.562,1.561,1.562,4.091,0,5.652
						C354.532,176.954,353.509,177.344,352.486,177.344z"/>
				</g>
			</g>
			<g>
				<g>
					<path d="M363.799,162.722L363.799,162.722c-3.201,0-6.215-1.241-8.479-3.497l-5.66-5.66c-4.661-4.685-4.661-12.289,0-16.965
						c4.536-4.56,12.46-4.552,16.98,0.008l5.645,5.652c4.653,4.653,4.66,12.249,0.016,16.941
						C370.013,161.48,366.999,162.722,363.799,162.722z M358.146,141.073c-1.069,0-2.077,0.414-2.834,1.179
						c-1.554,1.554-1.554,4.099,0.008,5.668l5.645,5.645c0.749,0.749,1.765,1.163,2.834,1.163l0,0c1.069,0,2.084-0.414,2.842-1.171
						c1.538-1.554,1.546-4.091-0.008-5.645l-5.652-5.66C360.224,141.487,359.216,141.073,358.146,141.073z"/>
				</g>
			</g>
			<g>
				<g>
					<path d="M386.399,140.113L386.399,140.113c-3.2-0.008-6.206-1.25-8.478-3.513l-5.652-5.66c-2.265-2.256-3.514-5.27-3.506-8.479
						c0-3.201,1.249-6.214,3.506-8.479c4.56-4.543,12.429-4.528,16.956,0l5.652,5.652c2.265,2.256,3.521,5.27,3.521,8.463
						c0,3.209-1.249,6.223-3.521,8.494C392.614,138.855,389.601,140.113,386.399,140.113z M380.755,118.464
						c-1.068,0-2.076,0.422-2.841,1.179c-0.742,0.742-1.155,1.749-1.155,2.818c0,1.07,0.405,2.077,1.163,2.826l5.651,5.66
						c0.758,0.75,1.757,1.163,2.826,1.171l0,0c1.062,0,2.069-0.421,2.826-1.179c0.758-0.757,1.18-1.765,1.18-2.834
						c0-1.062-0.422-2.061-1.18-2.818l-5.652-5.652C382.816,118.878,381.817,118.464,380.755,118.464z"/>
				</g>
			</g>
		</g>
		<g>
			<g>
				<path d="M478.944,216.004c-2.21,0-3.998-1.788-3.998-3.997v-16.77c0-2.209,1.788-3.997,3.998-3.997
					c2.209,0,3.997,1.788,3.997,3.997v16.77C482.941,214.217,481.153,216.004,478.944,216.004z"/>
			</g>
		</g>
		<g>
			<g>
				<path d="M478.944,289.047c-2.21,0-3.998-1.788-3.998-3.997v-56.741c0-2.21,1.788-3.998,3.998-3.998
					c2.209,0,3.997,1.788,3.997,3.998v56.741C482.941,287.259,481.153,289.047,478.944,289.047z"/>
			</g>
		</g>
		<g>
			<g>
				<path d="M335.046,407.869c-2.21,0-3.998-1.788-3.998-3.997v-64.728c0-2.21,1.788-3.997,3.998-3.997
					c2.209,0,3.997,1.787,3.997,3.997v64.728C339.043,406.081,337.255,407.869,335.046,407.869z"/>
			</g>
		</g>
		<g>
			<g>
				<path d="M430.978,391.88c-2.209,0-3.997-1.787-3.997-3.996V363.9c0-2.21,1.788-3.997,3.997-3.997
					c2.21,0,3.998,1.787,3.998,3.997v23.983C434.976,390.093,433.188,391.88,430.978,391.88z M430.978,351.909
					c-2.209,0-3.997-1.788-3.997-3.998V243.985c0-2.209,1.788-3.998,3.997-3.998c2.21,0,3.998,1.788,3.998,3.998v103.926
					C434.976,350.121,433.188,351.909,430.978,351.909z"/>
			</g>
		</g>
		<g>
			<g>
				<path d="M436.896,126.864c-1.022,0-2.045-0.391-2.826-1.171c-3.778-3.779-5.855-8.791-5.855-14.131s2.077-10.352,5.855-14.131
					c1.562-1.561,4.091-1.561,5.652,0c1.562,1.562,1.562,4.091,0,5.652c-2.264,2.264-3.514,5.277-3.514,8.479
					s1.25,6.214,3.514,8.479c1.562,1.562,1.562,4.091,0,5.652C438.94,126.474,437.918,126.864,436.896,126.864z"/>
			</g>
		</g>
		<g>
			<g>
				<path d="M436.896,104.255c-1.022,0-2.045-0.39-2.826-1.171c-1.562-1.562-1.562-4.091,0-5.652l11.305-11.304
					c1.562-1.562,4.091-1.562,5.652,0c1.562,1.561,1.562,4.091,0,5.652l-11.305,11.305
					C438.94,103.865,437.918,104.255,436.896,104.255z"/>
			</g>
		</g>
		<g>
			<g>
				<path d="M419.923,200.352c-1.022,0-2.045-0.391-2.826-1.171c-17.128-17.145-17.128-45.039,0-62.183
					c1.562-1.562,4.092-1.562,5.652,0c1.562,1.561,1.562,4.091,0,5.652c-14.014,14.029-14.014,36.849,0,50.878
					c1.562,1.562,1.562,4.091,0,5.652C421.969,199.961,420.946,200.352,419.923,200.352z"/>
			</g>
		</g>
		<g>
			<g>
				<path d="M419.923,143.821c-1.022,0-2.045-0.391-2.826-1.171c-1.561-1.561-1.561-4.091,0-5.652l16.973-16.957
					c1.562-1.562,4.091-1.562,5.652,0s1.562,4.091,0,5.652l-16.973,16.957C421.969,143.431,420.946,143.821,419.923,143.821z"/>
			</g>
		</g>
		<g>
			<g>
				<path d="M284.261,347.326c-1.022,0-2.045-0.391-2.826-1.171c-1.561-1.562-1.561-4.092,0-5.652l141.314-141.322
					c1.562-1.562,4.091-1.562,5.652,0s1.562,4.091,0,5.652L287.087,346.155C286.307,346.936,285.284,347.326,284.261,347.326z"/>
			</g>
		</g>
		<g>
			<g>
				<path d="M425.575,206.004c-1.022,0-2.045-0.391-2.826-1.171l-5.652-5.652c-1.561-1.562-1.561-4.091,0-5.652
					c1.562-1.562,4.092-1.562,5.652,0l5.652,5.652c1.562,1.562,1.562,4.091,0,5.652
					C427.621,205.613,426.599,206.004,425.575,206.004z"/>
			</g>
		</g>
		<g>
			<g>
				<path d="M284.261,369.935c-1.022,0-2.045-0.39-2.826-1.171c-7.791-7.791-7.791-20.47,0-28.261c1.562-1.562,4.092-1.562,5.652,0
					c1.562,1.561,1.562,4.091,0,5.652c-4.676,4.676-4.676,12.28,0,16.956c1.562,1.562,1.562,4.091,0,5.652
					C286.307,369.545,285.284,369.935,284.261,369.935z"/>
			</g>
		</g>
	</g>
	<g>
		<g>
			<path d="M383.012,511.796c-2.21,0-3.997-1.788-3.997-3.997V371.114c0-2.21,1.787-3.998,3.997-3.998s3.997,1.788,3.997,3.998
				v136.685C387.009,510.008,385.222,511.796,383.012,511.796z M383.012,359.122c-2.21,0-3.997-1.787-3.997-3.997v-23.983
				c0-2.209,1.787-3.997,3.997-3.997s3.997,1.788,3.997,3.997v23.983C387.009,357.335,385.222,359.122,383.012,359.122z"/>
		</g>
	</g>
</g>
</svg>
