<svg xmlns="http://www.w3.org/2000/svg" viewBox="0 0 64 64"><g id="_26-Blotting_paper" data-name="26-Blotting paper"><polygon points="58 18 58 29 55 29 55 22 12 22 12 18 58 18" style="fill:#ffeee6"/><polygon points="55 22 55 29 53 29 51 41 13 41 11 29 9 29 9 22 12 22 55 22" style="fill:#fff"/><path d="M40,5H63V8H1V5H24l1.72-3.45a1,1,0,0,1,.9-.55H37.38a1,1,0,0,1,.9.55Z" style="fill:#e6677d"/><polygon points="63 8 60 29 58 29 58 18 12 18 12 22 9 22 9 29 4 29 1 8 63 8" style="fill:#f8e2e4"/><polygon points="55 29 53 29 51 41 13 41 11 29 9 29 4 29 4 63 13 63 51 63 60 63 60 29 58 29 55 29" style="fill:#e6677d"/><polygon points="40 5 37 7 27 7 24 5 1 5 1 8 63 8 63 5 40 5" style="fill:#b85162"/><path d="M37.38,1H26.62a1,1,0,0,0-.9.55L24,5l1.992-1.328A4,4,0,0,1,28.211,3h7.578a4,4,0,0,1,2.219.672L40,5,38.28,1.55A1,1,0,0,0,37.38,1Z" style="fill:#ff728b"/><path d="M10,21.75c-2.313.127-4.643.218-7,.235L3.571,26h0L4,29H9V22h3V19H10Z" style="fill:#e3bfc1"/><path d="M63,8a106.669,106.669,0,0,1-16.611,7H13v3H58V29h2l.429-3h0Z" style="fill:#e3bfc1"/><rect x="4" y="60" width="56" height="3" style="fill:#b85162"/><rect x="13" y="41" width="38" height="2" style="fill:#b85162"/><path d="M37,49.4V53a7.943,7.943,0,0,1-7-4l-3,3V49.4A4.662,4.662,0,0,1,31.88,45h.24A4.662,4.662,0,0,1,37,49.4Z" style="fill:#885655"/><path d="M37,54v.5A4.768,4.768,0,0,1,32,59a5.273,5.273,0,0,1-3.54-1.32A4.279,4.279,0,0,1,27,54.5V52l3-3a7.943,7.943,0,0,0,7,4Z" style="fill:#fadfcc"/><polygon points="48 38 16 38 14 30 11.167 30 13 41 51 41 52.833 30 50 30 48 38" style="fill:#ffeee6"/><rect x="51" y="56" width="2" height="2" style="fill:#fff"/><rect x="55" y="56" width="2" height="2" style="fill:#fff"/><path d="M63,4H40.618L39.171,1.105A1.99,1.99,0,0,0,37.382,0H26.618a1.99,1.99,0,0,0-1.789,1.105L23.382,4H1A1,1,0,0,0,0,5V8a.969.969,0,0,0,.01.142L3,29.07V63a1,1,0,0,0,1,1H60a1,1,0,0,0,1-1V29.07L63.99,8.142A.969.969,0,0,0,64,8V5A1,1,0,0,0,63,4ZM59,62H5V30h5.153l1.861,11.164A1,1,0,0,0,13,42H51a1,1,0,0,0,.986-.836L53.847,30H59ZM54,23v5H53a1,1,0,0,0-.986.836L50.153,40H13.847L11.986,28.836A1,1,0,0,0,11,28H10V23ZM62,7.929,59.133,28H56V22a1,1,0,0,0-1-1H13V19H57v7h2V18a1,1,0,0,0-1-1H12a1,1,0,0,0-1,1v3H9a1,1,0,0,0-1,1v6H4.867L2.153,9H54V7H2V6H24a1,1,0,0,0,.895-.553L26.618,2H37.382L39.1,5.447A1,1,0,0,0,40,6H62Z"/><path d="M32.116,44h-.232A5.662,5.662,0,0,0,26,49.4v5.1A5.773,5.773,0,0,0,32,60a5.773,5.773,0,0,0,6-5.5V49.4A5.662,5.662,0,0,0,32.116,44Zm-.232,2h.232A3.669,3.669,0,0,1,36,49.4V51.93A6.887,6.887,0,0,1,30.9,48.553a1,1,0,0,0-1.6-.26L28,49.586V49.4A3.669,3.669,0,0,1,31.884,46ZM36,54.5A3.779,3.779,0,0,1,32,58a3.779,3.779,0,0,1-4-3.5V52.414l1.846-1.846A8.845,8.845,0,0,0,36,53.951V54.5Z"/><rect x="56" y="7" width="2" height="2"/></g></svg>