<svg xmlns="http://www.w3.org/2000/svg" viewBox="0 0 64 64"><title>26-Browser</title><g id="_26-Browser" data-name="26-Browser"><g id="_Group_" data-name="&lt;Group&gt;"><path d="M61,61H3a3,3,0,0,1-3-3V6A3,3,0,0,1,3,3H61a3,3,0,0,1,3,3V58A3,3,0,0,1,61,61ZM3,5A1,1,0,0,0,2,6V58a1,1,0,0,0,1,1H61a1,1,0,0,0,1-1V6a1,1,0,0,0-1-1Z"/><rect x="1" y="13" width="62" height="2"/></g><rect x="5" y="8" width="2" height="2"/><rect x="9" y="8" width="2" height="2"/><rect x="14" y="8" width="45" height="2"/><path d="M38,56H10a3,3,0,0,1-3-3V21a3,3,0,0,1,3-3H38a3,3,0,0,1,3,3V53A3,3,0,0,1,38,56ZM10,20a1,1,0,0,0-1,1V53a1,1,0,0,0,1,1H38a1,1,0,0,0,1-1V21a1,1,0,0,0-1-1Z"/><rect x="16" y="44" width="2" height="11"/><rect x="17" y="46" width="23" height="2"/><g id="_Group_2" data-name="&lt;Group&gt;"><path d="M55,56H46a2,2,0,0,1-2-2V20a2,2,0,0,1,2-2h9a2,2,0,0,1,2,2V54A2,2,0,0,1,55,56ZM45,54h0Zm1,0,9,0V20H46Z"/></g><rect x="52" y="36" width="4" height="2"/><rect x="52" y="26" width="4" height="2"/><rect x="52" y="46" width="4" height="2"/><rect x="49" y="41" width="7" height="2"/><rect x="49" y="31" width="7" height="2"/><path d="M16,35H14V34a1,1,0,0,1,1-1,.81.81,0,0,0,.71-.291c.611-.742.472-2.688.309-3.514A1,1,0,0,1,17,28h2v2h-.865a5.871,5.871,0,0,1-.877,3.977A2.715,2.715,0,0,1,16,34.845Z"/><path d="M19,42H17a1,1,0,0,1-.981-1.2c.163-.826.3-2.772-.309-3.514A.81.81,0,0,0,15,37a1,1,0,0,1-1-1V35h2v.155a2.715,2.715,0,0,1,1.258.868A5.871,5.871,0,0,1,18.135,40H19Z"/><path d="M31,42H29V40h.865a5.871,5.871,0,0,1,.877-3.977A2.715,2.715,0,0,1,32,35.155V35h2v1a1,1,0,0,1-1,1,.81.81,0,0,0-.71.291c-.611.742-.472,2.688-.309,3.514A1,1,0,0,1,31,42Z"/><path d="M34,35H32v-.155a2.715,2.715,0,0,1-1.258-.868A5.871,5.871,0,0,1,29.865,30H29V28h2a1,1,0,0,1,.981,1.2c-.163.826-.3,2.772.309,3.514A.81.81,0,0,0,33,33a1,1,0,0,1,1,1Z"/><rect x="23" y="34" width="2" height="2"/><rect x="19" y="34" width="2" height="2"/><rect x="27" y="34" width="2" height="2"/><rect x="16" y="19" width="2" height="7"/></g></svg>