<svg xmlns="http://www.w3.org/2000/svg" xmlns:xlink="http://www.w3.org/1999/xlink" viewBox="0 0 64 64"><defs><linearGradient id="linear-gradient" x1="32" y1="62.462" x2="32" y2="11.453" gradientUnits="userSpaceOnUse"><stop offset="0" stop-color="#ffe100"/><stop offset="0.217" stop-color="#f98900"/><stop offset="0.465" stop-color="#eca483"/><stop offset="0.697" stop-color="#83beec"/><stop offset="0.995" stop-color="#2a97ec"/></linearGradient><radialGradient id="radial-gradient" cx="44" cy="27" r="9" gradientUnits="userSpaceOnUse"><stop offset="0" stop-color="#fff"/><stop offset="0.505" stop-color="#fff"/><stop offset="0.588" stop-color="#fff"/><stop offset="0.804" stop-color="#fdfeff"/><stop offset="0.886" stop-color="#f6faff"/><stop offset="0.945" stop-color="#eaf3ff"/><stop offset="0.993" stop-color="#d9eaff"/><stop offset="1" stop-color="#d6e8ff"/></radialGradient><radialGradient id="radial-gradient-2" cx="20" xlink:href="#radial-gradient"/><linearGradient id="linear-gradient-2" x1="32" y1="49.225" x2="32" y2="39.414" gradientUnits="userSpaceOnUse"><stop offset="0" stop-color="#911625"/><stop offset="0.139" stop-color="#821421"/><stop offset="0.507" stop-color="#5e0e18"/><stop offset="0.807" stop-color="#480b12"/><stop offset="1" stop-color="#400a10"/></linearGradient></defs><g id="_26-Fearful_Face" data-name="26-Fearful Face"><path d="M32,63C4.3,63,.962,39,1,33V31C.962,25,4.3,1,32,1h0C59.7,1,63.038,25,63,31v2C63.038,39,59.7,63,32,63Z" style="fill:url(#linear-gradient)"/><circle cx="44" cy="27" r="9" style="fill:url(#radial-gradient)"/><circle cx="44" cy="27" r="5" style="fill:#2e2e2e"/><circle cx="20" cy="27" r="9" style="fill:url(#radial-gradient-2)"/><circle cx="20" cy="27" r="5" style="fill:#2e2e2e"/><path d="M32,39a12.013,12.013,0,0,0-10.429,6.379A4.464,4.464,0,0,0,21,47.592v1.22a1.989,1.989,0,0,0,2.521,2.068A25.465,25.465,0,0,1,32,49a25.465,25.465,0,0,1,8.479,1.88A1.989,1.989,0,0,0,43,48.812v-1.22a4.464,4.464,0,0,0-.571-2.213A12.013,12.013,0,0,0,32,39Z" style="fill:url(#linear-gradient-2)"/><path d="M55.045,10c.592.649,1.141,1.318,1.651,2" style="fill:none;stroke:#1d1d1b;stroke-linejoin:round;stroke-width:2px"/><path d="M8.09,53C2.05,45.666.978,36.416,1,33V31C.96,25,4.3,1,32,1c9.68,0,16.385,2.931,21.011,7" style="fill:none;stroke:#1d1d1b;stroke-linejoin:round;stroke-width:2px"/><path d="M58.06,14A34.4,34.4,0,0,1,63,30.89V33c.04,6-3.3,30-31,30-10.393,0-17.357-3.379-22-7.918" style="fill:none;stroke:#1d1d1b;stroke-linejoin:round;stroke-width:2px"/><circle cx="44" cy="27" r="9" style="fill:none;stroke:#1d1d1b;stroke-linejoin:round;stroke-width:2px"/><circle cx="44" cy="27" r="4" style="fill:none;stroke:#1d1d1b;stroke-linejoin:round;stroke-width:2px"/><circle cx="20" cy="27" r="9" style="fill:none;stroke:#1d1d1b;stroke-linejoin:round;stroke-width:2px"/><circle cx="20" cy="27" r="4" style="fill:none;stroke:#1d1d1b;stroke-linejoin:round;stroke-width:2px"/><path d="M41,12s8.167,0,14,6" style="fill:none;stroke:#1d1d1b;stroke-linejoin:round;stroke-width:2px"/><path d="M23,12s-8.167,0-14,6" style="fill:none;stroke:#1d1d1b;stroke-linejoin:round;stroke-width:2px"/><path d="M32,39a12.013,12.013,0,0,0-10.429,6.379A4.464,4.464,0,0,0,21,47.592v1.22a1.989,1.989,0,0,0,2.521,2.068A25.465,25.465,0,0,1,32,49a25.465,25.465,0,0,1,8.479,1.88A1.989,1.989,0,0,0,43,48.812v-1.22a4.464,4.464,0,0,0-.571-2.213A12.013,12.013,0,0,0,32,39Z" style="fill:none;stroke:#1d1d1b;stroke-linejoin:round;stroke-width:2px"/></g></svg>