<svg xmlns="http://www.w3.org/2000/svg" xmlns:xlink="http://www.w3.org/1999/xlink" viewBox="0 0 64 64"><defs><linearGradient id="linear-gradient" x1="32" y1="1.304" x2="32" y2="63.304" gradientUnits="userSpaceOnUse"><stop offset="0" stop-color="#ffe100"/><stop offset="1" stop-color="#f98900"/></linearGradient><linearGradient id="linear-gradient-2" x1="35.48" y1="47.326" x2="35.742" y2="62.701" gradientUnits="userSpaceOnUse"><stop offset="0" stop-color="#8ad4ff"/><stop offset="0.063" stop-color="#7eccfd"/><stop offset="0.378" stop-color="#48a6f6"/><stop offset="0.651" stop-color="#218af1"/><stop offset="0.867" stop-color="#0979ee"/><stop offset="1" stop-color="#0073ed"/></linearGradient><linearGradient id="linear-gradient-3" x1="31" y1="56.5" x2="35.681" y2="56.5" gradientUnits="userSpaceOnUse"><stop offset="0" stop-color="#fa9200" stop-opacity="0.1"/><stop offset="1" stop-color="#964200"/></linearGradient><linearGradient id="linear-gradient-4" x1="32" y1="51.663" x2="32" y2="40.58" gradientUnits="userSpaceOnUse"><stop offset="0" stop-color="#911625"/><stop offset="0.235" stop-color="#831421"/><stop offset="0.677" stop-color="#5f0f18"/><stop offset="1" stop-color="#400a10"/></linearGradient></defs><g id="_27-Drooling_Face" data-name="27-Drooling Face"><path d="M32,63C4.3,63,.962,39,1,33V31C.962,25,4.3,1,32,1h0C59.7,1,63.038,25,63,31v2C63.038,39,59.7,63,32,63Z" style="fill:url(#linear-gradient)"/><path d="M40,59c0,2,0,4-4,4-2,0-3-1-3-4s1-3,1-6a2.938,2.938,0,0,0-3-3,6.925,6.925,0,0,1,4-3,6.925,6.925,0,0,1,5,0,9.015,9.015,0,0,0-1,5C39,54,40,57,40,59Z" style="fill:url(#linear-gradient-2)"/><path d="M33,59c0-3,1-3,1-6a2.938,2.938,0,0,0-3-3s2,0,2,3-2,3-2,6a3.663,3.663,0,0,0,4,4c.242,0,.467-.008.681-.022C33.9,62.868,33,61.83,33,59Z" style="fill:url(#linear-gradient-3)"/><path d="M32,42a33,33,0,0,0,11.76-1.94c.91-.3,1.46.58,1.16,1.47-.48,1.42-2.1,3.53-4.92,5.47a6.925,6.925,0,0,0-5,0,6.925,6.925,0,0,0-4,3,14.722,14.722,0,0,1-11.92-8.47c-.3-.89.25-1.77,1.16-1.47A33,33,0,0,0,32,42Z" style="fill:url(#linear-gradient-4)"/><path d="M55.045,10c.592.649,1.141,1.318,1.651,2" style="fill:none;stroke:#1d1d1b;stroke-linejoin:round;stroke-width:2px"/><path d="M8.09,53C2.05,45.666.977,36.416,1,33V31C.96,25,4.3,1,32,1c9.68,0,16.385,2.931,21.011,7" style="fill:none;stroke:#1d1d1b;stroke-linejoin:round;stroke-width:2px"/><path d="M32,63h0c-10.393,0-17.357-3.379-22-7.918" style="fill:none;stroke:#1d1d1b;stroke-linejoin:round;stroke-width:2px"/><path d="M58.061,14A34.4,34.4,0,0,1,63,30.89V33c.035,5.184-2.454,23.807-21,28.775" style="fill:none;stroke:#1d1d1b;stroke-linejoin:round;stroke-width:2px"/><path d="M40,47c2.82-1.94,4.44-4.05,4.92-5.47.3-.89-.25-1.77-1.16-1.47A33,33,0,0,1,32,42a33,33,0,0,1-11.76-1.94c-.91-.3-1.46.58-1.16,1.47A14.722,14.722,0,0,0,31,50" style="fill:none;stroke:#1d1d1b;stroke-linejoin:round;stroke-width:2px"/><path d="M52,24c-1.7-2.543-5-6-10-6" style="fill:none;stroke:#1d1d1b;stroke-linejoin:round;stroke-width:2px"/><path d="M38,28a4.833,4.833,0,0,1,4.444-3c2.223,0,3.738.7,5.556,5" style="fill:none;stroke:#1d1d1b;stroke-linejoin:round;stroke-width:2px"/><path d="M26,28a4.833,4.833,0,0,0-4.444-3c-2.223,0-3.738.7-5.556,5" style="fill:none;stroke:#1d1d1b;stroke-linejoin:round;stroke-width:2px"/><path d="M13,20c1.7-2.543,5-6,10-6" style="fill:none;stroke:#1d1d1b;stroke-linejoin:round;stroke-width:2px"/><path d="M31,50a2.938,2.938,0,0,1,3,3c0,3-1,3-1,6s1,4,3,4c4,0,4-2,4-4s-1-5-1-7a9.015,9.015,0,0,1,1-5,6.925,6.925,0,0,0-5,0A6.925,6.925,0,0,0,31,50Z" style="fill:none;stroke:#1d1d1b;stroke-linejoin:round;stroke-width:2px"/></g></svg>