<svg xmlns="http://www.w3.org/2000/svg" viewBox="0 0 64 64"><g id="Layer_2" data-name="Layer 2"><polygon points="39 63 34 61 32 63 30 61 25 63 28 59 30 31 34 31 36 59 39 63" style="fill:#c67a60"/><path d="M34.005,51.99a7.445,7.445,0,0,0,1.523.4L34.929,44H29.071l-.6,8.386A7.445,7.445,0,0,0,30,51.99L32,56Z" style="fill:#b26049"/><path d="M31.042,58.413,33,31H30L28,59l-3,4,4.286-1.714,1.361-1.815A2.005,2.005,0,0,0,31.042,58.413Z" style="fill:#b26049"/><path d="M48,48a26.244,26.244,0,0,1-12-7H28a26.231,26.231,0,0,1-12,7s9.672,2.727,14,.99L32,53l2.005-4.01C38.328,50.727,48,48,48,48Z" style="fill:#629955"/><path d="M26.648,45.986,32,49l5.352-3.014a30.193,30.193,0,0,0,4.662-.421A23.863,23.863,0,0,1,36,41H28a24.45,24.45,0,0,1-6.006,4.566A30.214,30.214,0,0,0,26.648,45.986Z" style="fill:#508c3f"/><polygon points="24 34 32 40 40 34 24 34" style="fill:#85b27c"/><path d="M37.352,43.986A29.992,29.992,0,0,0,55,38c-5.118-.234-10.009-.977-13-6H22c-3.577,4.259-8.113,5.652-13,6a29.992,29.992,0,0,0,17.648,5.986L32,47Z" style="fill:#85b27c"/><path d="M42,32H22a15.873,15.873,0,0,1-4.054,3.472,21.528,21.528,0,0,0,7.519,2.364,4.143,4.143,0,0,1,2.016.775L32,42l4.513-3.385a4.193,4.193,0,0,1,2.03-.781,21.52,21.52,0,0,0,7.006-2.116A10.936,10.936,0,0,1,42,32Z" style="fill:#699b5d"/><path d="M37.417,35.937A22.271,22.271,0,0,0,51,30c-5.065-.482-8.9-2.223-10.739-6H23.739C21.9,27.777,18.065,29.518,13,30a22.271,22.271,0,0,0,13.583,5.937L32,40Z" style="fill:#629955"/><path d="M40.261,24H23.739a9.242,9.242,0,0,1-3.623,3.9,14.943,14.943,0,0,0,6.658,2.923,3.911,3.911,0,0,1,2.157,1.108L32,35l3.069-3.069a3.911,3.911,0,0,1,2.157-1.108A14.943,14.943,0,0,0,43.884,27.9,9.242,9.242,0,0,1,40.261,24Z" style="fill:#508c3f"/><path d="M47,22a18.127,18.127,0,0,1-11-6H28c-2.017,3.672-5.873,5.48-11,6,3.176,3.652,7,5.706,10.951,5.951L32,32l4.049-4.049C40,27.706,43.824,25.652,47,22Z" style="fill:#85b27c"/><path d="M36,16H28a10.394,10.394,0,0,1-4.914,4.444A10.476,10.476,0,0,0,27.9,22.857a3.9,3.9,0,0,1,2.489,1.72L32,27l1.733-2.6a3.781,3.781,0,0,1,2.457-1.561,10.79,10.79,0,0,0,5.072-2.711A18.789,18.789,0,0,1,36,16Z" style="fill:#699b5d"/><path d="M44,14q-4.608-1-6.783-6H26.783Q24.608,13,20,14c2.693,3.871,5.965,5.97,9.33,6L32,24l2.67-4C38.035,19.97,41.307,17.871,44,14Z" style="fill:#629955"/><path d="M24.679,11.318a16.839,16.839,0,0,0,14.642,0,10.1,10.1,0,0,1-.7-.857A12.043,12.043,0,0,1,35,8H29a12.043,12.043,0,0,1-3.621,2.461A10.1,10.1,0,0,1,24.679,11.318Z" style="fill:#508c3f"/><path d="M32,1a12.019,12.019,0,0,1-8,8A17,17,0,0,0,40,9,12.019,12.019,0,0,1,32,1Z" style="fill:#85b27c"/><path d="M33.183,8a1,1,0,0,1-.737-.324,14.317,14.317,0,0,1-1.271-1.6,1,1,0,0,1,1.65-1.129,12.656,12.656,0,0,0,1.094,1.38A1,1,0,0,1,33.183,8Z" style="fill:#fff"/><path d="M27.5,7.235A13.272,13.272,0,0,1,24,9,17,17,0,0,0,40,9c-.41-.137-.8-.3-1.178-.461A16.808,16.808,0,0,1,27.5,7.235Z" style="fill:#699b5d"/><path d="M55.956,37.706a1,1,0,0,0-.91-.705,23.837,23.837,0,0,1-6.715-1.041,1,1,0,0,0-.662,1.889,19.952,19.952,0,0,0,4.389.937,28.8,28.8,0,0,1-14.717,4.2.993.993,0,0,0-.479.129L32,45.853l-4.862-2.739a.993.993,0,0,0-.479-.129,28.8,28.8,0,0,1-14.884-4.3,21.594,21.594,0,0,0,3.075-.733,1,1,0,1,0-.609-1.9A22.676,22.676,0,0,1,8.929,37,1,1,0,0,0,8.4,38.8a30.729,30.729,0,0,0,13.368,5.743,28.676,28.676,0,0,1-6.047,2.5,1,1,0,0,0,.008,1.923c.337.094,6.99,1.944,11.876,1.539l-.582,8.134L24.2,62.4a1,1,0,0,0,1.172,1.529l4.387-1.755,1.534,1.533a1,1,0,0,0,1.414,0l1.534-1.533,4.387,1.755A1.011,1.011,0,0,0,39,64a1,1,0,0,0,.8-1.6l-2.823-3.764L36.4,50.5c4.886.407,11.538-1.446,11.875-1.54a1,1,0,0,0,.011-1.922,29.278,29.278,0,0,1-6.048-2.5A30.722,30.722,0,0,0,55.6,38.8,1,1,0,0,0,55.956,37.706ZM34.372,60.071a1,1,0,0,0-1.079.222L32,61.586l-1.293-1.293a1,1,0,0,0-1.079-.222l-1.689.676L28.8,59.6a1.006,1.006,0,0,0,.2-.529l.615-8.609,1.492,2.985a1,1,0,0,0,1.79,0l1.492-2.985L35,59.071a1.006,1.006,0,0,0,.2.529l.861,1.147ZM44.414,47.812c-3.306.651-7.716,1.182-10.036.25a1,1,0,0,0-1.267.48L32,50.764l-1.111-2.222a1,1,0,0,0-1.267-.48c-2.319.931-6.724.4-10.027-.249A26.991,26.991,0,0,0,24.977,44.9c.466.03.931.072,1.4.081l5.131,2.89a1,1,0,0,0,.982,0l5.131-2.89c.468-.009.93-.051,1.4-.081A27.209,27.209,0,0,0,44.414,47.812Z"/><path d="M44.093,28.1a1,1,0,0,0,.486,1.328,17.189,17.189,0,0,0,4.035,1.246,21.594,21.594,0,0,1-7.842,3.746,1,1,0,0,0,.234,1.972.951.951,0,0,0,.235-.029A24,24,0,0,0,51.672,30.74a1,1,0,0,0-.577-1.735,17.518,17.518,0,0,1-5.674-1.39A1,1,0,0,0,44.093,28.1Z"/><path d="M26.218,36.913,31.4,40.8a1,1,0,0,0,1.2,0l5.418-4.064a1,1,0,0,0-1.2-1.6L32,38.75l-4.817-3.613a1.011,1.011,0,0,0-.537-.2,20.814,20.814,0,0,1-11.263-4.262,17.136,17.136,0,0,0,4.038-1.246,1,1,0,0,0-.842-1.815,17.518,17.518,0,0,1-5.674,1.39,1,1,0,0,0-.577,1.735A23.22,23.22,0,0,0,26.218,36.913Z"/><path d="M27.506,28.92l3.787,3.787a1,1,0,0,0,1.414,0l3.787-3.787c4.125-.367,8.011-2.526,11.26-6.264a1,1,0,0,0-.6-1.644A17.8,17.8,0,0,1,43.365,20a1,1,0,1,0-.731,1.861,19.228,19.228,0,0,0,2.4.763,14.275,14.275,0,0,1-9.047,4.327,1,1,0,0,0-.645.291L32,30.586l-3.342-3.342a1,1,0,0,0-.645-.291,14.229,14.229,0,0,1-8.947-4.23,19.436,19.436,0,0,0,3.278-.868,1,1,0,1,0-.688-1.876A19.694,19.694,0,0,1,16.9,21.005a1,1,0,0,0-.653,1.651C19.5,26.394,23.381,28.553,27.506,28.92Z"/><path d="M28.781,20.975l2.387,3.58a1,1,0,0,0,1.664,0l2.387-3.58c3.489-.236,6.88-2.491,9.6-6.4a1,1,0,0,0-.609-1.549,7.748,7.748,0,0,1-3.549-1.771,1,1,0,1,0-1.325,1.5,9.6,9.6,0,0,0,3,1.8c-2.308,2.856-5,4.423-7.675,4.443a1,1,0,0,0-.825.445L32,22.2,30.162,19.44A1,1,0,0,0,29.337,19c-2.678-.02-5.367-1.587-7.675-4.443a9.579,9.579,0,0,0,3-1.8,1,1,0,1,0-1.325-1.5,7.746,7.746,0,0,1-3.55,1.771,1,1,0,0,0-.609,1.549C21.9,18.484,25.292,20.739,28.781,20.975Z"/><path d="M23.553,9.9A18.752,18.752,0,0,0,32,12a18.752,18.752,0,0,0,8.447-2.1,1,1,0,0,0-.131-1.843A10.981,10.981,0,0,1,32.949.684a1,1,0,0,0-1.9,0,10.981,10.981,0,0,1-7.367,7.368A1,1,0,0,0,23.553,9.9ZM32,3.563a12.611,12.611,0,0,0,5.458,5.449,15.388,15.388,0,0,1-10.916,0A12.611,12.611,0,0,0,32,3.563Z"/></g></svg>