<svg xmlns="http://www.w3.org/2000/svg" viewBox="0 0 64 64"><title>27-yoga</title><g id="_27-yoga" data-name="27-yoga"><path d="M39,4V9L36,7a4.691,4.691,0,0,0-.46-.54,5.026,5.026,0,0,0-2.3-1.3A2.835,2.835,0,0,1,33,4a3,3,0,0,1,6,0Z" style="fill:#7e8596"/><path d="M37.5,5.5a4.691,4.691,0,0,0-.46-.54,5.026,5.026,0,0,0-2.3-1.3A2.835,2.835,0,0,1,34.5,2.5a2.977,2.977,0,0,1,.269-1.231A2.991,2.991,0,0,0,33,4a2.835,2.835,0,0,0,.24,1.16,5.026,5.026,0,0,1,2.3,1.3A4.691,4.691,0,0,1,36,7l3,2V6.5Z" style="fill:#707789"/><path d="M24,22H22V18h7a5,5,0,0,0,6,0h7v4H40c0,3-2,5-2,7H26C26,27,24,25,24,22Z" style="fill:#b674f2"/><path d="M35,18a5,5,0,0,1-6,0H22v2h7a5,5,0,0,0,6,0h7V18Z" style="fill:#d2a0f5"/><path d="M26,42v4H20.5a4.5,4.5,0,0,1,0-9H38L37,60H33L32,42H26Z" style="fill:#7e8596"/><path d="M20.5,40H37.87L38,37H20.5a4.458,4.458,0,0,0-4.225,6A4.478,4.478,0,0,1,20.5,40Z" style="fill:#707789"/><polygon points="29 42 29 49 26 46 26 42 29 42" style="fill:#ffdecf"/><polygon points="40 63 33 63 33 60 37 60 40 63" style="fill:#ffdecf"/><path d="M38,37H26c0-3,1-5,1-8H37C37,32,38,34,38,37Z" style="fill:#ffdecf"/><path d="M26.146,35A14.413,14.413,0,0,0,26,37H38a14.413,14.413,0,0,0-.146-2Z" style="fill:#ffbeaa"/><path d="M22,18v4H13V12a2.015,2.015,0,0,1,2-2,2.006,2.006,0,0,1,2,2v6Z" style="fill:#ffdecf"/><path d="M51,12V22H42V18h5V12a2.006,2.006,0,0,1,2-2,2.015,2.015,0,0,1,2,2Z" style="fill:#ffdecf"/><path d="M36,7a4.941,4.941,0,0,1,1,3v4a5.01,5.01,0,0,1-2,4,5,5,0,0,1-6,0,5.01,5.01,0,0,1-2-4V10a5,5,0,0,1,5-5,4.635,4.635,0,0,1,1.24.16,5.026,5.026,0,0,1,2.3,1.3A4.691,4.691,0,0,1,36,7Z" style="fill:#ffdecf"/><rect x="13" y="20" width="9" height="2" style="fill:#ffcdbe"/><rect x="42" y="20" width="9" height="2" style="fill:#ffcdbe"/><path d="M35,16a5,5,0,0,1-6,0,5.01,5.01,0,0,1-2-4v2a5.01,5.01,0,0,0,2,4,5,5,0,0,0,6,0,5.01,5.01,0,0,0,2-4V12A5.01,5.01,0,0,1,35,16Z" style="fill:#ffcdbe"/><path d="M32,20a5.91,5.91,0,0,1-3.6-1.2A6.036,6.036,0,0,1,26,14V10a6.006,6.006,0,0,1,6-6,5.59,5.59,0,0,1,1.506.2l-.531,1.928A3.651,3.651,0,0,0,32,6a4,4,0,0,0-4,4v4a4,4,0,1,0,8,0V10a3.931,3.931,0,0,0-.8-2.4L36.8,6.4A5.906,5.906,0,0,1,38,10v4a6.037,6.037,0,0,1-2.4,4.8A5.906,5.906,0,0,1,32,20Z"/><path d="M39,10a1.006,1.006,0,0,1-.555-.168l-3-2a1.017,1.017,0,0,1-.251-.239,3.553,3.553,0,0,0-.361-.426A4.024,4.024,0,0,0,33,6.13a1,1,0,0,1-.671-.564A3.822,3.822,0,0,1,32,4a4,4,0,0,1,8,0V9a1,1,0,0,1-1,1ZM36.7,6.262l1.3.87V4a2,2,0,0,0-4,0,1.981,1.981,0,0,0,.032.356,6.06,6.06,0,0,1,2.21,1.391A5.548,5.548,0,0,1,36.7,6.262Z"/><path d="M38,30H26a1,1,0,0,1-1-1,6.482,6.482,0,0,0-.761-2.378A10.844,10.844,0,0,1,23,22h2a9.115,9.115,0,0,0,1.063,3.8,11.711,11.711,0,0,1,.821,2.2H37.116a11.711,11.711,0,0,1,.821-2.2A9.115,9.115,0,0,0,39,22h2a10.844,10.844,0,0,1-1.239,4.622A6.482,6.482,0,0,0,39,29,1,1,0,0,1,38,30Z"/><rect x="21" y="18" width="2" height="4"/><rect x="41" y="18" width="2" height="4"/><path d="M38,38H26a1,1,0,0,1-1-1,20.294,20.294,0,0,1,.52-4.2A18.479,18.479,0,0,0,26,29h2a20.294,20.294,0,0,1-.52,4.2,23.086,23.086,0,0,0-.44,2.8h9.92a23.086,23.086,0,0,0-.44-2.8A20.294,20.294,0,0,1,36,29h2a18.479,18.479,0,0,0,.48,3.8A20.294,20.294,0,0,1,39,37,1,1,0,0,1,38,38Z"/><path d="M37,61H33a1,1,0,0,1-1-.944L31.054,43H22V41H32a1,1,0,0,1,1,.944L33.946,59h2.1L37,36.957l2,.086-1,23A1,1,0,0,1,37,61Z"/><path d="M26,47H20.5A5.505,5.505,0,0,1,15,41.5,5.506,5.506,0,0,1,20.5,36H26v2H20.5A3.5,3.5,0,0,0,17,41.5,3.506,3.506,0,0,0,20.5,45H26Z"/><path d="M29,50a1,1,0,0,1-.707-.293l-3-3A1,1,0,0,1,25,46V42h2v3.586l1,1V42h2v7a1,1,0,0,1-.617.924A.987.987,0,0,1,29,50Z"/><path d="M40,64H33a1,1,0,0,1-1-1V60h2v2h3.586l-1.293-1.293,1.414-1.414,3,3A1,1,0,0,1,40,64Z"/><path d="M51,23H38V21H50V12a.957.957,0,0,0-.288-.694A.978.978,0,0,0,49,11a1,1,0,0,0-1,1v6a1,1,0,0,1-1,1H35V17H46V12a3,3,0,0,1,3-3,3.017,3.017,0,0,1,3,3V22A1,1,0,0,1,51,23Z"/><path d="M26,23H13a1,1,0,0,1-1-1V12a3.015,3.015,0,0,1,3-3,3,3,0,0,1,3,3v5H29v2H17a1,1,0,0,1-1-1V12a1,1,0,0,0-1-1,.965.965,0,0,0-.694.287A.978.978,0,0,0,14,12v9H26Z"/></g></svg>