<svg xmlns="http://www.w3.org/2000/svg" viewBox="0 0 64 64"><g id="_28-Beauty_mirror" data-name="28-Beauty mirror"><path d="M34,43v4H30V43l.01-.09c.65.06,1.32.09,1.99.09s1.34-.03,1.99-.09Z" style="fill:#e6677d"/><path d="M44,62v1H20V62a3,3,0,0,1,3-3H41A3,3,0,0,1,44,62Z" style="fill:#e6677d"/><path d="M33,47a13.382,13.382,0,0,1,1,5v7H30V52c0-4,1-5,1-5Z" style="fill:#f8eae9"/><path d="M48,19.76A16,16,0,1,0,32.24,36,16.01,16.01,0,0,0,48,19.76ZM50.76,17A18.589,18.589,0,0,1,51,20a19.011,19.011,0,1,1-.24-3Z" style="fill:#e6677d"/><path d="M48,19.76A16,16,0,1,1,31.76,4,16.01,16.01,0,0,1,48,19.76Z" style="fill:#f8e2e4"/><path d="M41,61H23a2.982,2.982,0,0,1-2.224-1A2.981,2.981,0,0,0,20,62v1H44V62a2.981,2.981,0,0,0-.776-2A2.982,2.982,0,0,1,41,61Z" style="fill:#a14756"/><path d="M40.527,6.473,18.479,28.521a16.014,16.014,0,0,0,1.732,2.268l22.58-22.58A16.062,16.062,0,0,0,40.527,6.473Z" style="fill:#fff"/><path d="M35.58,4.42,16.411,23.589a15.893,15.893,0,0,0,2.068,4.932L40.527,6.473A15.877,15.877,0,0,0,35.58,4.42Z" style="fill:#ffe8ea"/><path d="M31.76,4A15.98,15.98,0,0,0,16.411,23.589L35.58,4.42A16,16,0,0,0,31.76,4Z" style="fill:#fffafb"/><path d="M42.791,8.209l-22.58,22.58a16.011,16.011,0,0,0,5.91,4.09L46.868,14.132A16.009,16.009,0,0,0,42.791,8.209Z" style="fill:#f8e2e4"/><path d="M46.868,14.132,26.121,34.879a15.925,15.925,0,0,0,4,1L47.889,18.111A15.861,15.861,0,0,0,46.868,14.132Z" style="fill:#fff"/><path d="M30.124,35.876A15.894,15.894,0,0,0,48,19.76a16.3,16.3,0,0,0-.111-1.649Z" style="fill:#fffafb"/><path d="M13,17l.23.04A19.178,19.178,0,0,0,13,20H9V17Z" style="fill:#a14756"/><path d="M55,17v3H51a18.589,18.589,0,0,0-.24-3Z" style="fill:#a14756"/><path d="M55,16H51.6A20,20,0,0,0,12.4,16H9a1,1,0,0,0-1,1v3A24.031,24.031,0,0,0,29,43.806V47a.987.987,0,0,0,.5.85A14.2,14.2,0,0,0,29,52v6H23a4,4,0,0,0-4,4v1a1,1,0,0,0,1,1H44a1,1,0,0,0,1-1V62a4,4,0,0,0-4-4H35V52a16.27,16.27,0,0,0-.584-4.1A1,1,0,0,0,35,47V43.806A24.031,24.031,0,0,0,56,20V17A1,1,0,0,0,55,16Zm-1,2v1H51.949c-.016-.333-.017-.671-.05-1ZM32,2A18,18,0,1,1,14,20,18.021,18.021,0,0,1,32,2ZM12.1,18c-.033.329-.034.667-.05,1H10V18ZM43,62H21a2,2,0,0,1,2-2H41A2,2,0,0,1,43,62ZM31,58V52a10.3,10.3,0,0,1,.573-4h.768A13.674,13.674,0,0,1,33,52v6Zm2-12H31V43.975c.332.013.665.025,1,.025s.668-.012,1-.025Zm-1-4A22.029,22.029,0,0,1,10.022,21h2.029a19.973,19.973,0,0,0,39.9,0h2.029A22.029,22.029,0,0,1,32,42Z"/><path d="M31.993,37l.265,0A17,17,0,0,0,43.837,7.8a17,17,0,0,0-27.6,5.826l1.854.75A15.018,15.018,0,1,1,17,20.228L17,20H15l0,.258A17,17,0,0,0,31.993,37Z"/><path d="M17.473,16.248l-1.938-.5a17.076,17.076,0,0,0-.4,2.127l1.984.248A14.934,14.934,0,0,1,17.473,16.248Z"/></g></svg>