<svg xmlns="http://www.w3.org/2000/svg" viewBox="0 0 64 64"><title>28-Coding</title><g id="_28-Coding" data-name="28-Coding"><g id="_Group_" data-name="&lt;Group&gt;"><path d="M61,64H3a3,3,0,0,1-3-3V3A3,3,0,0,1,3,0H61a3,3,0,0,1,3,3V61A3,3,0,0,1,61,64ZM3,2A1,1,0,0,0,2,3V61a1,1,0,0,0,1,1H61a1,1,0,0,0,1-1V3a1,1,0,0,0-1-1Z"/><rect x="1" y="10" width="62" height="2"/></g><rect x="5" y="5" width="2" height="2"/><rect x="9" y="5" width="2" height="2"/><rect x="14" y="5" width="45" height="2"/><path d="M44.991,48.132l-1.982-.264.575-4.316a1,1,0,0,1,.758-.84,9.94,9.94,0,0,0,2.868-1.19,1.006,1.006,0,0,1,1.13.059l3.039,2.324,1.143-.382.382-1.144L50.581,39.34a1,1,0,0,1-.059-1.131,9.894,9.894,0,0,0,1.19-2.868,1,1,0,0,1,.841-.757l3.79-.505L56.882,33l-.539-1.079-3.79-.5a1,1,0,0,1-.841-.757,9.894,9.894,0,0,0-1.19-2.868,1,1,0,0,1,.059-1.131L52.9,23.621l-.382-1.144L51.379,22.1,48.34,24.419a1,1,0,0,1-1.13.059,9.94,9.94,0,0,0-2.868-1.19,1,1,0,0,1-.758-.84l-.505-3.791L42,18.118l-1.079.539-.505,3.791a1,1,0,0,1-.758.84,9.94,9.94,0,0,0-2.868,1.19,1,1,0,0,1-1.13-.059L32.621,22.1l-1.144.382L31.1,23.621l2.324,3.039-1.588,1.215-2.646-3.46a1,1,0,0,1-.155-.924l.708-2.121a1,1,0,0,1,.632-.632l2.121-.708a1,1,0,0,1,.924.155l2.932,2.242a11.925,11.925,0,0,1,2.174-.9l.488-3.657a1,1,0,0,1,.544-.763l2-1a1,1,0,0,1,.894,0l2,1a1,1,0,0,1,.544.763l.488,3.657a11.925,11.925,0,0,1,2.174.9l2.932-2.242a1,1,0,0,1,.924-.155l2.121.708a1,1,0,0,1,.632.632l.707,2.121a1,1,0,0,1-.155.924l-2.241,2.932a11.9,11.9,0,0,1,.9,2.174l3.657.488a1,1,0,0,1,.763.544l1,2a1,1,0,0,1,0,.894l-1,2a1,1,0,0,1-.763.544l-3.657.488a11.9,11.9,0,0,1-.9,2.174l2.241,2.932a1,1,0,0,1,.155.924l-.707,2.121a1,1,0,0,1-.632.632l-2.121.708a1,1,0,0,1-.924-.155l-2.932-2.242a11.925,11.925,0,0,1-2.174.9Z"/><path d="M42,40V38a5,5,0,1,0-5-5H35a7,7,0,1,1,7,7Z"/><path d="M19,53H17V40a2.852,2.852,0,0,0-3-3H12a2.853,2.853,0,0,0-3,3.005V53H7V40a4.821,4.821,0,0,1,5-5h2a4.821,4.821,0,0,1,5,5Z"/><rect x="8" y="46" width="10" height="2"/><path d="M23,53H21V36a1,1,0,0,1,1-1h4c1.729,0,5,.836,5,4,0,4.961-4.821,7.2-8,7.847Zm0-16v7.789c2.013-.488,6-1.941,6-5.789,0-1.958-2.88-2-3-2Z"/><rect x="32" y="35" width="8" height="2"/><rect x="32" y="51" width="8" height="2"/><rect x="35" y="36" width="2" height="16"/><rect x="9" y="31" width="22" height="2"/><rect x="17" y="27" width="10" height="2"/></g></svg>