<svg xmlns="http://www.w3.org/2000/svg" viewBox="0 0 64 64"><g id="_28-Fish_tank" data-name="28-Fish tank"><rect x="3" y="7" width="58" height="50" style="fill:#94d9ff"/><rect x="1" y="1" width="62" height="6" rx="2" style="fill:#5b6880"/><rect x="1" y="57" width="62" height="6" rx="2" style="fill:#5b6880"/><path d="M61,61H3a2,2,0,0,1-2-2v2a2,2,0,0,0,2,2H61a2,2,0,0,0,2-2V59A2,2,0,0,1,61,61Z" style="fill:#313845"/><path d="M61,5H3A2,2,0,0,1,1,3V5A2,2,0,0,0,3,7H61a2,2,0,0,0,2-2V3A2,2,0,0,1,61,5Z" style="fill:#313845"/><path d="M8,15a4,4,0,0,1,4-4H61V7H3V57H61V53H45C24.565,53,8,35.435,8,15Z" style="fill:#74bfe8"/><path d="M46,42v4l-4.5-2.7A15.3,15.3,0,0,0,43.78,42Z" style="fill:#475163"/><path d="M46,46v1.21a3.652,3.652,0,0,1-.87,2.53L36,45v-.12a17.868,17.868,0,0,0,5.5-1.58Z" style="fill:#5b6880"/><path d="M23,44.69a33.221,33.221,0,0,0,4.65.31H29v6c-3.48-.75-4.35-4.5-4.35-4.5L23,45Z" style="fill:#475163"/><path d="M24,32v4s-1,1-4,1a2.015,2.015,0,0,1-2-2V34A8.76,8.76,0,0,1,24,32Z" style="fill:#c9c6c8"/><path d="M36,26l-1.56.78c-.26-.11-.52-.21-.76-.31A21.232,21.232,0,0,0,29,25.3V25l5-3,.09-.08A6.053,6.053,0,0,1,36,26Z" style="fill:#a6a0a1"/><polygon points="51.04 40 52 37 57 41 58 46 51 40 51.01 39.98 51.04 40" style="fill:#5b6880"/><polygon points="56 36 52 36 52 34 57 31 56 36" style="fill:#5b6880"/><polygon points="56 36 57 41 52 37 52 36 56 36" style="fill:#70809e"/><polygon points="58 26 57 31 52 34 52 32 58 26" style="fill:#70809e"/><path d="M46,28v3.26c-1.34-.44-2.93-1.03-4.58-1.68L44,27S46,27,46,28Z" style="fill:#5b6880"/><path d="M30,19a15.476,15.476,0,0,1,4.09,2.92L34,22l-5,3v.3a25.361,25.361,0,0,0-3.78-.3H24Z" style="fill:#c9c6c8"/><path d="M11.83,39a4.537,4.537,0,0,0,1.65,2.16,9.839,9.839,0,0,0,1.18.83C8,41.8,8,36,8,36h2.87A4.271,4.271,0,0,1,11.83,39Z" style="fill:#70809e"/><path d="M18,37v1a5.324,5.324,0,0,1-2,4H15c-.12,0-.23,0-.34-.01a9.839,9.839,0,0,1-1.18-.83A4.537,4.537,0,0,1,11.83,39a4.271,4.271,0,0,0-.96-3L8,33s.55-5.68,10-7.47V37Zm-4-5a1,1,0,1,0-1,1A1,1,0,0,0,14,32Z" style="fill:#6da3c4"/><path d="M29,25.3a21.232,21.232,0,0,1,4.68,1.17c.24.1.5.2.76.31,2.08.82,4.6,1.86,6.98,2.8,1.65.65,3.24,1.24,4.58,1.68a12.025,12.025,0,0,0,3.13.74H52v4c-6.5-.5-15,3-22,3a35.412,35.412,0,0,1-12-2V35a2.015,2.015,0,0,0,2,2c3,0,4-1,4-1V32a8.76,8.76,0,0,0-6,2V25.53A33.087,33.087,0,0,1,24,25h1.22A25.361,25.361,0,0,1,29,25.3Z" style="fill:#6293b1"/><path d="M30,39c7,0,15.5-3.5,22-3v1l-.96,3-.03-.02-1.26-.66A2.879,2.879,0,0,0,48.44,39a4.83,4.83,0,0,0-1.81.78A10.131,10.131,0,0,0,45,41a8.609,8.609,0,0,1-1.22,1,15.3,15.3,0,0,1-2.28,1.3A17.868,17.868,0,0,1,36,44.88a15.269,15.269,0,0,1-1.93.12H27.65A33.221,33.221,0,0,1,23,44.69,24.3,24.3,0,0,1,16.61,43a14.359,14.359,0,0,1-1.95-1.01c.11.01.22.01.34.01h1a5.324,5.324,0,0,0,2-4V37A35.412,35.412,0,0,0,30,39Z" style="fill:#dddcd7"/><path d="M18,25.53V34a7.71,7.71,0,0,1,3-1.571v-7.3A29.42,29.42,0,0,0,18,25.53Z" style="fill:#5787b7"/><path d="M49.13,32a3.609,3.609,0,0,1-.428-.039A1.991,1.991,0,0,1,49,33v2a1.984,1.984,0,0,1-.3,1.048A20.612,20.612,0,0,1,52,36V32Z" style="fill:#5787b7"/><path d="M21,36.958c-.306.026-.637.042-1,.042a1.947,1.947,0,0,1-1.324-.518c-.028-.025-.06-.045-.086-.072A1.955,1.955,0,0,1,18,35v2a25.7,25.7,0,0,0,3,.907c.851.211,1.856.426,3,.609V36A5,5,0,0,1,21,36.958Z" style="fill:#5787b7"/><path d="M21,39V37.907A25.7,25.7,0,0,1,18,37v1a5.324,5.324,0,0,1-2,4H15c-.12,0-.23,0-.34-.01A14.359,14.359,0,0,0,16.61,43,24.3,24.3,0,0,0,23,44.69a33.221,33.221,0,0,0,4.65.31h6.42A15.269,15.269,0,0,0,36,44.88a17.868,17.868,0,0,0,5.5-1.58A15.3,15.3,0,0,0,43.78,42,8.609,8.609,0,0,0,45,41a10.131,10.131,0,0,1,1.63-1.22A4.83,4.83,0,0,1,48.44,39a2.879,2.879,0,0,1,1.31.32l1.26.66.03.02L52,37V36a20.612,20.612,0,0,0-3.3.048c-.353.569-1.054.63-1.7.952-2,1-7,6-13,6a62.216,62.216,0,0,1-11.807-1.445A1.8,1.8,0,0,1,21,39Z" style="fill:#c9c6c8"/><path d="M20,33.78v-1A7.117,7.117,0,0,0,18,34v1a2.015,2.015,0,0,0,2,2c3,0,4-1,4-1V34.2l-2.8.561A1,1,0,0,1,20,33.78Z" style="fill:#a6a0a1"/><path d="M14.66,41.99a9.839,9.839,0,0,1-1.18-.83A4.537,4.537,0,0,1,11.83,39a4.271,4.271,0,0,0-.96-3H10l.591,2.366a1.313,1.313,0,0,1-1,1.6A6.767,6.767,0,0,0,14.66,41.99Z" style="fill:#5b6880"/><path d="M23.824,28a6.3,6.3,0,0,0,2,.768A33.759,33.759,0,0,0,33.437,30a3.441,3.441,0,0,0,1.148-.115.659.659,0,0,0,.215-.108.489.489,0,0,0,.142-.227,1.45,1.45,0,0,0-.538-1.51,4.751,4.751,0,0,0-1.672-.839,27.827,27.827,0,0,0-6.988-1.15c-.7-.041-2.056-.182-2.572.348C22.678,26.9,23.36,27.677,23.824,28Z" style="fill:#6da3c4"/><path d="M39.986,31.323c-.162-.754-.917-1.177-1.533-1.574a1.673,1.673,0,0,0-2.318.564c-.627,1.119,1.087,1.777,1.841,2.027a2.627,2.627,0,0,0,.674.157,1.416,1.416,0,0,0,.97-.3A.944.944,0,0,0,39.986,31.323Z" style="fill:#6da3c4"/><polygon points="24 33 19 34 24 34 24 33" style="fill:#5b6880"/><polygon points="24 35 19 36 24 36 24 35" style="fill:#5b6880"/><path d="M31.045,23.773,29,25v.3a21.232,21.232,0,0,1,4.68,1.17c.24.1.5.2.76.31l1.37-.685A17.407,17.407,0,0,0,31.045,23.773Z" style="fill:#838182"/><path d="M31.045,23.773a18.76,18.76,0,0,0-4.975-.843L24,25h1.22a25.361,25.361,0,0,1,3.78.3V25Z" style="fill:#a6a0a1"/><path d="M43.973,44.2a2.957,2.957,0,0,0,1.02-2.2H43.78a15.3,15.3,0,0,1-2.28,1.3l2.054,1.233C43.7,44.423,43.841,44.313,43.973,44.2Z" style="fill:#313845"/><path d="M41.5,43.3A17.868,17.868,0,0,1,36,44.88V45l3.47,1.8a22.135,22.135,0,0,0,4.084-2.268Z" style="fill:#475163"/><circle cx="13" cy="32" r="1" style="fill:#28272d"/><path d="M14,37H12.922a3.976,3.976,0,0,1-1.58-.342A5.137,5.137,0,0,1,11.83,39a4.537,4.537,0,0,0,1.65,2.16,9.839,9.839,0,0,0,1.18.83c.11.01.22.01.34.01h1a5.324,5.324,0,0,0,2-4V33A4,4,0,0,1,14,37Z" style="fill:#5787b7"/><path d="M14.85,28.008a1.377,1.377,0,0,0-.3.379.447.447,0,0,0-.053.206.36.36,0,0,0,.25.31,1.6,1.6,0,0,0,1.036.021,5.712,5.712,0,0,0,1-.431,1.806,1.806,0,0,0,.414-.258.909.909,0,0,0,.284-.475.711.711,0,0,0-.1-.576c-.3-.365-.913-.094-1.251.026A3.509,3.509,0,0,0,14.85,28.008Z" style="fill:#edece7"/><circle cx="11" cy="22" r="2" style="fill:#edece7"/><circle cx="11" cy="13" r="2" style="fill:#edece7"/><rect x="18" y="2" width="20" height="2" rx="1" style="fill:#6e7e9c"/><rect x="40.105" y="2" width="5.895" height="2" rx="1" style="fill:#6e7e9c"/><rect x="18" y="58" width="20" height="2" rx="1" style="fill:#6e7e9c"/><rect x="40.105" y="58" width="5.895" height="2" rx="1" style="fill:#6e7e9c"/><path d="M61,0H3A3,3,0,0,0,0,3V5A3,3,0,0,0,2,7.816V10H4V8H60V52h2V7.816A3,3,0,0,0,64,5V3A3,3,0,0,0,61,0Zm1,5a1,1,0,0,1-1,1H3A1,1,0,0,1,2,5V3A1,1,0,0,1,3,2H61a1,1,0,0,1,1,1Z"/><path d="M62,56.184V54H60v2H4V16H2V56.184A3,3,0,0,0,0,59v2a3,3,0,0,0,3,3H61a3,3,0,0,0,3-3V59A3,3,0,0,0,62,56.184ZM62,61a1,1,0,0,1-1,1H3a1,1,0,0,1-1-1V59a1,1,0,0,1,1-1H61a1,1,0,0,1,1,1Z"/><rect x="54" y="3" width="2" height="2"/><rect x="58" y="3" width="2" height="2"/><circle cx="13" cy="32" r="2"/><path d="M7,36c0,.068.109,6.577,7.341,6.963a16.013,16.013,0,0,0,1.874.956,25.174,25.174,0,0,0,6,1.669.9.9,0,0,0,.108.151l1.435,1.308a7.061,7.061,0,0,0,5.028,4.931A1.08,1.08,0,0,0,29,52a1,1,0,0,0,1-1V46h4.074c.522,0,1.033-.031,1.536-.075l9.058,4.7a1.008,1.008,0,0,0,.461.112,1,1,0,0,0,.7-.281A4.574,4.574,0,0,0,47,47.211V42a.994.994,0,0,0-.562-.889,7.594,7.594,0,0,1,2-1.111,1.86,1.86,0,0,1,.852.21l1.081.565,6.981,5.984a1,1,0,0,0,1.63-.955L57.02,36l1.96-9.8a1,1,0,0,0-1.687-.9L51.586,31H49.131A8.825,8.825,0,0,1,47,30.532V28c0-1.477-1.616-2-3-2a1,1,0,0,0-.707.293L41.18,28.406c-1.222-.485-2.443-.979-3.554-1.43l-.86-.349A.987.987,0,0,0,37,26c0-4.794-6.31-7.782-6.578-7.907a1,1,0,0,0-1.129.2l-5.718,5.718C8.04,24.253,7.04,32.544,7.005,32.9a1,1,0,0,0,.272.788L8.529,35H8A1,1,0,0,0,7,36Zm49.372-6.957-.265,1.327-2.656,1.593ZM53,34.566l2.576-1.546L55.18,35H53ZM55.481,38.5,53.6,37H55.18Zm-2.97.187,3.58,2.864.36,1.8L52.189,39.7ZM9.128,37h1.243a3.846,3.846,0,0,1,.455,2,1.052,1.052,0,0,0,.028.237,3.434,3.434,0,0,0,.307.776A4.828,4.828,0,0,1,9.128,37ZM28,49.56a5.626,5.626,0,0,1-2.381-3.287.988.988,0,0,0-.162-.342c.717.041,1.444.069,2.191.069H28Zm17-2.349a3.234,3.234,0,0,1-.223,1.218l-5.938-3.082a19.107,19.107,0,0,0,2.6-.92L45,46.566Zm0-2.977-1.473-.884c.192-.117.377-.233.553-.35H45Zm-.613-16.207a2.561,2.561,0,0,1,.613.145V29.86c-.57-.2-1.169-.428-1.784-.662Zm-9.438-2.621-.547.273-.354-.141a19.961,19.961,0,0,0-2.657-.806l2.515-1.51A4.926,4.926,0,0,1,34.949,25.406Zm-4.762-5.179a15.53,15.53,0,0,1,2.266,1.535l-3.968,2.381c-.028.017-.05.041-.077.061-.674-.082-1.352-.144-2.022-.176ZM24.261,26h.957a24.213,24.213,0,0,1,8.1,1.4c.344.135.723.288,1.094.436l.029.06.054-.027c.759.3,1.548.623,2.38.961C40.1,30.137,42.85,31.237,45,31.979V32h.06a14.984,14.984,0,0,0,4.071,1H51v3.845l-.548,1.717-.238-.124A3.86,3.86,0,0,0,48.436,38c-1.259,0-3.61,1.734-4.146,2.3a11.181,11.181,0,0,1-2.738,1.87l-.037-.022-.035.057A16.737,16.737,0,0,1,34.074,44H27.648a27.309,27.309,0,0,1-10.385-1.817A6.108,6.108,0,0,0,19,38v-.182A2.989,2.989,0,0,0,20,38h.007c3.247,0,4.488-1.082,4.7-1.3A1,1,0,0,0,25,35.995V32a1,1,0,0,0-1-1,10.923,10.923,0,0,0-5,1.136V31H17v7a4.218,4.218,0,0,1-1.368,3h-.66a5.4,5.4,0,0,1-2.147-2.144,5.082,5.082,0,0,0-1.233-3.546L9.084,32.687C9.512,31.146,11.868,26,24.261,26ZM19,35v-.527a8.09,8.09,0,0,1,4-1.421v2.409A6.762,6.762,0,0,1,20,36H20a1,1,0,0,1-1-1Z"/><path d="M11,25a3,3,0,1,0-3-3A3,3,0,0,0,11,25Zm0-4a1,1,0,1,1-1,1A1,1,0,0,1,11,21Z"/><path d="M11,16a3,3,0,1,0-3-3A3,3,0,0,0,11,16Zm0-4a1,1,0,1,1-1,1A1,1,0,0,1,11,12Z"/><rect x="2" y="12" width="2" height="2"/></g></svg>