<svg xmlns="http://www.w3.org/2000/svg" viewBox="0 0 64 64"><title>28-massage</title><g id="_28-massage" data-name="28-massage"><path d="M27.25,38.45a1.406,1.406,0,0,1,.67,1.71L23.43,52,20,56l1,7H10V56L7.76,53,5.81,43,4.02,33.89A1.785,1.785,0,0,1,4,33.66a1.189,1.189,0,0,1,.65-1.07,1.16,1.16,0,0,1,1.61.65L8.74,40l-.9-10.19c0-.04-.01-.08-.01-.12a1.2,1.2,0,0,1,.65-1.05,1.153,1.153,0,0,1,1.64.72L12.66,38l-.87-9.73c0-.05-.01-.09-.01-.13a1.616,1.616,0,0,1,1.09-1.54,1.564,1.564,0,0,1,2.05,1.26L16.58,38l.84-12.13a1.979,1.979,0,1,1,3.95.25L20.49,44l5.18-5.29a1.373,1.373,0,0,1,.97-.41A1.31,1.31,0,0,1,27.25,38.45Z" style="fill:#ffdecf"/><path d="M9.76,53,7.81,43,6.02,33.89A1.785,1.785,0,0,1,6,33.66a1.224,1.224,0,0,1,.166-.612A1.154,1.154,0,0,0,4.65,32.59,1.189,1.189,0,0,0,4,33.66a1.785,1.785,0,0,0,.02.23L5.81,43,7.76,53,10,56v7h2V56Z" style="fill:#ffbeaa"/><path d="M19,48l8.453-9.393a1.249,1.249,0,0,0-.2-.157,1.31,1.31,0,0,0-.61-.15,1.373,1.373,0,0,0-.97.41L20.49,44l.88-17.88a2,2,0,0,0-1.613-2.082L18,46Z" style="fill:#ffbeaa"/><path d="M36.75,38.45a1.406,1.406,0,0,0-.67,1.71L40.57,52,44,56l-1,7H54V56l2.24-3,1.95-10,1.79-9.11a1.785,1.785,0,0,0,.02-.23,1.189,1.189,0,0,0-.65-1.07,1.16,1.16,0,0,0-1.61.65L55.26,40l.9-10.19c0-.04.01-.08.01-.12a1.2,1.2,0,0,0-.65-1.05,1.153,1.153,0,0,0-1.64.72L51.34,38l.87-9.73c0-.05.01-.09.01-.13a1.616,1.616,0,0,0-1.09-1.54,1.564,1.564,0,0,0-2.05,1.26L47.42,38l-.84-12.13a1.979,1.979,0,1,0-3.95.25L43.51,44l-5.18-5.29a1.373,1.373,0,0,0-.97-.41A1.31,1.31,0,0,0,36.75,38.45Z" style="fill:#ffdecf"/><path d="M54.24,53l1.95-10,1.79-9.11a1.785,1.785,0,0,0,.02-.23,1.224,1.224,0,0,0-.166-.612,1.154,1.154,0,0,1,1.516-.458A1.189,1.189,0,0,1,60,33.66a1.785,1.785,0,0,1-.02.23L58.19,43,56.24,53,54,56v7H52V56Z" style="fill:#ffbeaa"/><path d="M45,48l-8.453-9.393a1.249,1.249,0,0,1,.2-.157,1.31,1.31,0,0,1,.61-.15,1.373,1.373,0,0,1,.97.41L43.51,44l-.88-17.88a2,2,0,0,1,1.613-2.082L46,46Z" style="fill:#ffbeaa"/><path d="M62,15H60C60,7.953,47.178,2,32,2S4,7.953,4,15H2C2,6.589,15.178,0,32,0S62,6.589,62,15Z" style="fill:#7e8596"/><path d="M54,16H52c0-3.311-8.214-7-20-7s-20,3.689-20,7H10c0-5.131,9.458-9,22-9S54,10.869,54,16Z" style="fill:#7e8596"/><path d="M21.994,18.042,20,18c0-3.157,7.543-4,12-4s12,.843,12,4H42c-.273-.671-3.956-2-10-2S22.273,17.329,21.994,18.042Z" style="fill:#7e8596"/><path d="M20.01,63.142l-1-7a1,1,0,0,1,.231-.793l3.317-3.868,4.427-11.674a.4.4,0,0,0-.194-.468.339.339,0,0,0-.4.07l-5.18,5.29a1,1,0,0,1-1.714-.748l.876-17.882a1.027,1.027,0,0,0-.283-.769A.946.946,0,0,0,19.4,25a1,1,0,0,0-.974.944l-.847,12.125a1,1,0,0,1-1.985.092l-1.655-10.14a.594.594,0,0,0-.285-.427.549.549,0,0,0-.462-.051.619.619,0,0,0-.4.64l.866,9.728a1,1,0,0,1-1.955.371L9.163,29.643a.18.18,0,0,0-.1-.122.14.14,0,0,0-.128,0,.2.2,0,0,0-.1.2l.906,10.187a1,1,0,0,1-1.934.434l-2.482-6.76a.172.172,0,0,0-.1-.108.14.14,0,0,0-.12.006.2.2,0,0,0-.1.22L8.7,52.585,10.8,55.4a1,1,0,0,1,.2.6v7H9V56.332L6.963,53.6a1,1,0,0,1-.18-.406L3.041,34.086A2.212,2.212,0,0,1,4.19,31.7a2.156,2.156,0,0,1,1.761-.088,2.182,2.182,0,0,1,1.133,1.018L6.841,29.9a2.188,2.188,0,0,1,1.183-2.156,2.147,2.147,0,0,1,1.828-.06,2.173,2.173,0,0,1,.958.8L10.8,28.36a2.6,2.6,0,0,1,1.746-2.71,2.539,2.539,0,0,1,2.135.228,2.61,2.61,0,0,1,1.23,1.821l.27,1.655.248-3.549A3,3,0,0,1,19.4,23a2.928,2.928,0,0,1,2.139.921,3.055,3.055,0,0,1,.833,2.245l-.747,15.253,3.338-3.409a2.334,2.334,0,0,1,2.741-.452,2.406,2.406,0,0,1,1.163,2.934l-4.5,11.862a.981.981,0,0,1-.176.3l-3.135,3.656.936,6.551Z"/><path d="M43.99,63.142l-1.98-.284.936-6.551-3.135-3.656a.981.981,0,0,1-.176-.3L35.146,40.516A2.412,2.412,0,0,1,36.3,37.558a2.338,2.338,0,0,1,2.741.451l3.339,3.41-.747-15.252a3.056,3.056,0,0,1,.833-2.246A2.928,2.928,0,0,1,44.6,23a3,3,0,0,1,2.968,2.8l.249,3.55.27-1.655a2.61,2.61,0,0,1,1.23-1.821,2.538,2.538,0,0,1,2.135-.228A2.6,2.6,0,0,1,53.2,28.36l-.012.128a2.173,2.173,0,0,1,.958-.8,2.149,2.149,0,0,1,1.829.06A2.189,2.189,0,0,1,57.159,29.9l-.243,2.731a2.158,2.158,0,0,1,2.9-.93,2.211,2.211,0,0,1,1.148,2.382L57.217,53.192a1.012,1.012,0,0,1-.18.406L55,56.332V63H53V56a1,1,0,0,1,.2-.6l2.1-2.817L59,33.7a.2.2,0,0,0-.1-.218.143.143,0,0,0-.121-.006.172.172,0,0,0-.1.108L56.2,40.345a1,1,0,0,1-1.934-.434l.906-10.187a.2.2,0,0,0-.1-.2.151.151,0,0,0-.129,0,.176.176,0,0,0-.1.121L52.3,38.282a1,1,0,0,1-1.955-.371l.866-9.728a.619.619,0,0,0-.4-.64.541.541,0,0,0-.462.051.594.594,0,0,0-.285.427L48.41,38.161a1,1,0,0,1-1.985-.092l-.848-12.126A1,1,0,0,0,44.6,25a.946.946,0,0,0-.691.3,1.028,1.028,0,0,0-.283.77l.876,17.881a1,1,0,0,1-1.714.748l-5.181-5.291a.342.342,0,0,0-.4-.069.4.4,0,0,0-.185.491l4.419,11.651,3.317,3.868a1,1,0,0,1,.231.793Z"/><path d="M62,15H60C60,7.953,47.178,2,32,2S4,7.953,4,15H2C2,6.589,15.178,0,32,0S62,6.589,62,15Z"/><path d="M54,16H52c0-3.311-8.214-7-20-7s-20,3.689-20,7H10c0-5.131,9.458-9,22-9S54,10.869,54,16Z"/><path d="M21.994,18.042,20,18c0-3.157,7.543-4,12-4s12,.843,12,4H42c-.273-.671-3.956-2-10-2S22.273,17.329,21.994,18.042Z"/></g></svg>