<svg xmlns="http://www.w3.org/2000/svg" viewBox="0 0 64 64"><g id="_28-support" data-name="28-support"><path d="M32,37a8,8,0,1,0-8,8A8,8,0,0,0,32,37Zm1-6h1.4a12.016,12.016,0,1,1-.69-1.06Z" style="fill:#9c9c9c"/><path d="M47,33.97V41H42.57a18.869,18.869,0,0,1-2.62,6.3l3.14,3.13-5.65,5.66L34.3,52.95A18.869,18.869,0,0,1,28,55.57V60H20V55.57a18.869,18.869,0,0,1-6.3-2.62l-3.14,3.14L4.91,50.43,8.05,47.3A18.869,18.869,0,0,1,5.43,41H1V33H5.43a18.869,18.869,0,0,1,2.62-6.3L4.91,23.56l5.65-5.65,3.14,3.14A18.869,18.869,0,0,1,20,18.43V14h8v4.43a18.647,18.647,0,0,1,5.06,1.89,14.893,14.893,0,0,0,2.43,6.95l-1.78,2.67A11.926,11.926,0,1,0,34.4,31h4.63A14.911,14.911,0,0,0,47,33.97Z" style="fill:#e4e4e4"/><rect x="46" y="24" width="4" height="4" style="fill:#ffc9c9"/><polygon points="51 10 50 20 46 20 45 10 51 10" style="fill:#ffc9c9"/><path d="M48,4a15,15,0,0,1,0,30c-.34,0-.67-.01-1-.03A14.911,14.911,0,0,1,39.03,31H33l.71-1.06,1.78-2.67a14.893,14.893,0,0,1-2.43-6.95Q33,19.675,33,19A15.005,15.005,0,0,1,48,4Zm2,16,1-10H45l1,10Zm0,8V24H46v4Z" style="fill:#ff636e"/><polygon points="53 20 54 10 51 10 50 20 53 20" style="fill:#ff475a"/><rect x="50" y="24" width="3" height="4" style="fill:#ff475a"/><path d="M38.49,27.27a14.893,14.893,0,0,1-2.43-6.95Q36,19.675,36,19A15.006,15.006,0,0,1,49.5,4.076C49.006,4.027,48.506,4,48,4A15.005,15.005,0,0,0,33,19q0,.675.06,1.32a14.893,14.893,0,0,0,2.43,6.95l-1.78,2.67L33,31h3l.71-1.06Z" style="fill:#ff475a"/><path d="M42.03,31h-3A14.911,14.911,0,0,0,47,33.97c.33.02.66.03,1,.03a15.316,15.316,0,0,0,1.538-.078A14.917,14.917,0,0,1,42.03,31Z" style="fill:#ff475a"/><rect x="51" y="44" width="8" height="2" style="fill:#ffac5a"/><rect x="49.964" y="38.5" width="7.071" height="2" transform="translate(-12.261 49.399) rotate(-45)" style="fill:#ffac5a"/><rect x="52.5" y="46.964" width="2" height="7.071" transform="translate(-20.039 52.621) rotate(-45)" style="fill:#ffac5a"/><path d="M24,28a9,9,0,1,0,9,9A9.01,9.01,0,0,0,24,28Zm0,16a7,7,0,1,1,7-7A7.009,7.009,0,0,1,24,44Z"/><path d="M51,9H45a1,1,0,0,0-.995,1.1l1,10A1,1,0,0,0,46,21h4A1,1,0,0,0,51,20.1l1-10A1,1,0,0,0,51,9ZM49.1,19h-2.19l-.8-8H49.9Z"/><path d="M50,23H46a1,1,0,0,0-1,1v4a1,1,0,0,0,1,1h4a1,1,0,0,0,1-1V24A1,1,0,0,0,50,23Zm-1,4H47V25h2Z"/><path d="M48,3A16.012,16.012,0,0,0,32.015,18.7,19.648,19.648,0,0,0,29,17.64V14a1,1,0,0,0-1-1H20a1,1,0,0,0-1,1v3.639a19.818,19.818,0,0,0-5.153,2.143L11.267,17.2a1,1,0,0,0-1.414,0L4.2,22.853a1,1,0,0,0,0,1.414l2.579,2.58A19.818,19.818,0,0,0,4.639,32H1a1,1,0,0,0-1,1v8a1,1,0,0,0,1,1H4.639a19.757,19.757,0,0,0,2.143,5.151L4.2,49.722a1,1,0,0,0,0,1.414l5.65,5.66a1,1,0,0,0,.707.294h0a1,1,0,0,0,.707-.293l2.58-2.579A19.818,19.818,0,0,0,19,56.361V60a1,1,0,0,0,1,1h8a1,1,0,0,0,1-1V56.361a19.818,19.818,0,0,0,5.153-2.143l2.58,2.579a1,1,0,0,0,.707.293h0a1,1,0,0,0,.707-.294l5.65-5.66a1,1,0,0,0,0-1.414l-2.578-2.571A19.757,19.757,0,0,0,43.361,42H47a1,1,0,0,0,1-1V35A16,16,0,0,0,48,3ZM46,40H42.57a1,1,0,0,0-.977.79,17.863,17.863,0,0,1-2.483,5.967,1,1,0,0,0,.134,1.251l2.431,2.424-4.236,4.243-2.432-2.432a1,1,0,0,0-1.25-.133,17.863,17.863,0,0,1-5.967,2.483,1,1,0,0,0-.79.977V59H21V55.57a1,1,0,0,0-.79-.977,17.863,17.863,0,0,1-5.967-2.483,1,1,0,0,0-1.25.133l-2.432,2.432L6.325,50.432l2.431-2.424a1,1,0,0,0,.134-1.251A17.863,17.863,0,0,1,6.407,40.79,1,1,0,0,0,5.43,40H2V34H5.43a1,1,0,0,0,.977-.79A17.863,17.863,0,0,1,8.89,27.243a1,1,0,0,0-.133-1.25L6.324,23.56l4.236-4.236,2.433,2.433a1,1,0,0,0,1.25.133,17.863,17.863,0,0,1,5.967-2.483A1,1,0,0,0,21,18.43V15h6v3.43a1,1,0,0,0,.788.977,17.707,17.707,0,0,1,4.339,1.562,15.891,15.891,0,0,0,2.17,6.283l-.676,1.013A12.882,12.882,0,1,0,36.006,32H38.7A15.842,15.842,0,0,0,46,34.864ZM35,37a11.039,11.039,0,1,1-2.535-7l-.3.445A1,1,0,0,0,33,32h.781A10.976,10.976,0,0,1,35,37Zm13-4a13.869,13.869,0,0,1-8.373-2.8,1,1,0,0,0-.6-.2H34.868l1.453-2.179a1,1,0,0,0,0-1.106A14,14,0,1,1,48,33Z"/><rect x="51" y="44" width="8" height="2"/><rect x="49.964" y="38.5" width="7.071" height="2" transform="translate(-12.261 49.399) rotate(-45)"/><rect x="52.5" y="46.964" width="2" height="7.071" transform="translate(-20.039 52.621) rotate(-45)"/></g></svg>