<svg xmlns="http://www.w3.org/2000/svg" viewBox="0 0 64 64"><g id="Layer_2" data-name="Layer 2"><path d="M16,29a6.237,6.237,0,0,0-1.414-4.243,6.237,6.237,0,0,0-4.243-1.414,6.237,6.237,0,0,0,1.414,4.243A6.237,6.237,0,0,0,16,29Z" style="fill:#85b27c"/><path d="M18.828,31.586a6.237,6.237,0,0,0,2-4,6.237,6.237,0,0,0-2-4,6.237,6.237,0,0,0-2,4A6.237,6.237,0,0,0,18.828,31.586Z" style="fill:#629955"/><path d="M18.586,31.828a6.237,6.237,0,0,1-4,2,6.237,6.237,0,0,1-4-2,6.237,6.237,0,0,1,4-2A6.237,6.237,0,0,1,18.586,31.828Z" style="fill:#629955"/><path d="M48,31a6.237,6.237,0,0,1,1.414-4.243,6.237,6.237,0,0,1,4.243-1.414,6.237,6.237,0,0,1-1.414,4.243A6.237,6.237,0,0,1,48,31Z" style="fill:#85b27c"/><path d="M45.172,33.586a6.237,6.237,0,0,1-2-4,6.237,6.237,0,0,1,2-4,6.237,6.237,0,0,1,2,4A6.237,6.237,0,0,1,45.172,33.586Z" style="fill:#629955"/><path d="M45.414,33.828a6.237,6.237,0,0,0,4,2,6.237,6.237,0,0,0,4-2,6.237,6.237,0,0,0-4-2A6.237,6.237,0,0,0,45.414,33.828Z" style="fill:#629955"/><path d="M16,15a6.237,6.237,0,0,0-1.414-4.243,6.237,6.237,0,0,0-4.243-1.414,6.237,6.237,0,0,0,1.414,4.243A6.237,6.237,0,0,0,16,15Z" style="fill:#85b27c"/><path d="M18.828,17.586a6.237,6.237,0,0,0,2-4,6.237,6.237,0,0,0-2-4,6.237,6.237,0,0,0-2,4A6.237,6.237,0,0,0,18.828,17.586Z" style="fill:#629955"/><path d="M18.586,17.828a6.237,6.237,0,0,1-4,2,6.237,6.237,0,0,1-4-2,6.237,6.237,0,0,1,4-2A6.237,6.237,0,0,1,18.586,17.828Z" style="fill:#629955"/><path d="M30,37a2,2,0,0,0-1.053-1.762A1.908,1.908,0,0,1,28,33.54V24.46a1.908,1.908,0,0,1,.947-1.7,2,2,0,0,0,0-3.524A1.908,1.908,0,0,1,28,17.54V15a2,2,0,0,0-2-2h0a2,2,0,0,0-2,2v2.54a1.908,1.908,0,0,1-.947,1.7,2,2,0,0,0,0,3.524A1.908,1.908,0,0,1,24,24.46v9.08a1.908,1.908,0,0,1-.947,1.7,2,2,0,0,0,0,3.524A1.908,1.908,0,0,1,24,40.46v9.08a1.908,1.908,0,0,1-.947,1.7,2,2,0,0,0,0,3.524A1.908,1.908,0,0,1,24,56.46V63h4V56.46a1.908,1.908,0,0,1,.947-1.7,2,2,0,0,0,0-3.524A1.908,1.908,0,0,1,28,49.54V40.46a1.908,1.908,0,0,1,.947-1.7A2,2,0,0,0,30,37Z" style="fill:#629955"/><path d="M28,21H24a1.991,1.991,0,0,0-1.725,1,2.009,2.009,0,0,0,.778.758A1.908,1.908,0,0,1,24,24.46V25h4v-.54a1.908,1.908,0,0,1,.947-1.7A2.009,2.009,0,0,0,29.725,22,1.991,1.991,0,0,0,28,21Z" style="fill:#508c3f"/><path d="M28,37H24a1.991,1.991,0,0,0-1.725,1,2.009,2.009,0,0,0,.778.758A1.908,1.908,0,0,1,24,40.46V41h4v-.54a1.908,1.908,0,0,1,.947-1.7A2.009,2.009,0,0,0,29.725,38,1.991,1.991,0,0,0,28,37Z" style="fill:#508c3f"/><path d="M28,53H24a1.991,1.991,0,0,0-1.725,1,2.009,2.009,0,0,0,.778.758A1.908,1.908,0,0,1,24,56.46V57h4v-.54a1.908,1.908,0,0,1,.947-1.7A2.009,2.009,0,0,0,29.725,54,1.991,1.991,0,0,0,28,53Z" style="fill:#508c3f"/><rect x="22" y="19" width="8" height="4" rx="2" style="fill:#85b27c"/><path d="M25,21a2,2,0,0,1,2-2H24a2,2,0,0,0,0,4h3A2,2,0,0,1,25,21Z" style="fill:#699b5d"/><rect x="22" y="35" width="8" height="4" rx="2" style="fill:#85b27c"/><path d="M25,37a2,2,0,0,1,2-2H24a2,2,0,0,0,0,4h3A2,2,0,0,1,25,37Z" style="fill:#699b5d"/><rect x="22" y="51" width="8" height="4" rx="2" style="fill:#85b27c"/><path d="M25,53a2,2,0,0,1,2-2H24a2,2,0,0,0,0,4h3A2,2,0,0,1,25,53Z" style="fill:#699b5d"/><path d="M42,37a2,2,0,0,0-1.053-1.762A1.908,1.908,0,0,1,40,33.54V24.46a1.908,1.908,0,0,1,.947-1.7,2,2,0,0,0,0-3.524A1.908,1.908,0,0,1,40,17.54V15a2,2,0,0,0-2-2h0a2,2,0,0,0-2,2v2.54a1.908,1.908,0,0,1-.947,1.7,2,2,0,0,0,0,3.524A1.908,1.908,0,0,1,36,24.46v9.08a1.908,1.908,0,0,1-.947,1.7,2,2,0,0,0,0,3.524A1.908,1.908,0,0,1,36,40.46v9.08a1.908,1.908,0,0,1-.947,1.7,2,2,0,0,0,0,3.524A1.908,1.908,0,0,1,36,56.46V63h4V56.46a1.908,1.908,0,0,1,.947-1.7,2,2,0,0,0,0-3.524A1.908,1.908,0,0,1,40,49.54V40.46a1.908,1.908,0,0,1,.947-1.7A2,2,0,0,0,42,37Z" style="fill:#629955"/><path d="M40,21H36a1.991,1.991,0,0,0-1.725,1,2.009,2.009,0,0,0,.778.758A1.908,1.908,0,0,1,36,24.46V25h4v-.54a1.908,1.908,0,0,1,.947-1.7A2.009,2.009,0,0,0,41.725,22,1.991,1.991,0,0,0,40,21Z" style="fill:#508c3f"/><rect x="34" y="19" width="8" height="4" rx="2" style="fill:#85b27c"/><path d="M40,37H36a1.991,1.991,0,0,0-1.725,1,2.009,2.009,0,0,0,.778.758A1.908,1.908,0,0,1,36,40.46V41h4v-.54a1.908,1.908,0,0,1,.947-1.7A2.009,2.009,0,0,0,41.725,38,1.991,1.991,0,0,0,40,37Z" style="fill:#508c3f"/><path d="M40,53H36a1.991,1.991,0,0,0-1.725,1,2.009,2.009,0,0,0,.778.758A1.908,1.908,0,0,1,36,56.46V57h4v-.54a1.908,1.908,0,0,1,.947-1.7A2.009,2.009,0,0,0,41.725,54,1.991,1.991,0,0,0,40,53Z" style="fill:#508c3f"/><rect x="34" y="35" width="8" height="4" rx="2" style="fill:#85b27c"/><rect x="34" y="51" width="8" height="4" rx="2" style="fill:#85b27c"/><path d="M37,21a2,2,0,0,1,2-2H36a2,2,0,0,0,0,4h3A2,2,0,0,1,37,21Z" style="fill:#699b5d"/><path d="M37,37a2,2,0,0,1,2-2H36a2,2,0,0,0,0,4h3A2,2,0,0,1,37,37Z" style="fill:#699b5d"/><path d="M37,53a2,2,0,0,1,2-2H36a2,2,0,0,0,0,4h3A2,2,0,0,1,37,53Z" style="fill:#699b5d"/><path d="M46,13a6.237,6.237,0,0,1,1.414-4.243,6.237,6.237,0,0,1,4.243-1.414,6.237,6.237,0,0,1-1.414,4.243A6.237,6.237,0,0,1,46,13Z" style="fill:#85b27c"/><path d="M43.172,15.586a6.237,6.237,0,0,1-2-4,6.237,6.237,0,0,1,2-4,6.237,6.237,0,0,1,2,4A6.237,6.237,0,0,1,43.172,15.586Z" style="fill:#629955"/><path d="M43.414,15.828a6.237,6.237,0,0,0,4,2,6.237,6.237,0,0,0,4-2,6.237,6.237,0,0,0-4-2A6.237,6.237,0,0,0,43.414,15.828Z" style="fill:#629955"/><path d="M26,9a6.237,6.237,0,0,1-2-4,6.237,6.237,0,0,1,2-4,6.237,6.237,0,0,1,2,4A6.237,6.237,0,0,1,26,9Z" style="fill:#85b27c"/><path d="M25.828,12.828a6.235,6.235,0,0,1-4.242-1.414,6.235,6.235,0,0,1-1.414-4.242,6.235,6.235,0,0,1,4.242,1.414A6.235,6.235,0,0,1,25.828,12.828Z" style="fill:#629955"/><path d="M26.172,12.828a6.235,6.235,0,0,0,4.242-1.414,6.235,6.235,0,0,0,1.414-4.242,6.235,6.235,0,0,0-4.242,1.414A6.235,6.235,0,0,0,26.172,12.828Z" style="fill:#629955"/><path d="M38,9a6.237,6.237,0,0,1-2-4,6.237,6.237,0,0,1,2-4,6.237,6.237,0,0,1,2,4A6.237,6.237,0,0,1,38,9Z" style="fill:#85b27c"/><path d="M37.828,12.828a6.235,6.235,0,0,1-4.242-1.414,6.235,6.235,0,0,1-1.414-4.242,6.235,6.235,0,0,1,4.242,1.414A6.235,6.235,0,0,1,37.828,12.828Z" style="fill:#629955"/><path d="M38.172,12.828a6.235,6.235,0,0,0,4.242-1.414,6.235,6.235,0,0,0,1.414-4.242,6.235,6.235,0,0,0-4.242,1.414A6.235,6.235,0,0,0,38.172,12.828Z" style="fill:#629955"/><path d="M51.5,31.291a5.135,5.135,0,0,0,1.452-1,7.212,7.212,0,0,0,1.706-5,1,1,0,0,0-.943-.943,7.183,7.183,0,0,0-5.005,1.706,5.162,5.162,0,0,0-1,1.446,8.42,8.42,0,0,0-1.867-2.656,1,1,0,0,0-1.334,0,7.22,7.22,0,0,0-2.333,4.745,6.2,6.2,0,0,0,1.307,3.565,18.112,18.112,0,0,0-1.557,1.565,2.982,2.982,0,0,0-.585-.387.822.822,0,0,0-.049-.067A.979.979,0,0,1,41,33.54V24.46a.982.982,0,0,1,.288-.723c.021-.019.029-.045.048-.065a2.973,2.973,0,0,0,.463-5.057L43.313,17.1a6.588,6.588,0,0,0,4.1,1.727A7.22,7.22,0,0,0,52.159,16.5a1,1,0,0,0,0-1.334,8.427,8.427,0,0,0-2.662-1.87,5.135,5.135,0,0,0,1.452-1,7.212,7.212,0,0,0,1.706-5,1,1,0,0,0-.943-.943,7.175,7.175,0,0,0-5.005,1.706,5.161,5.161,0,0,0-.994,1.433,7.573,7.573,0,0,0-.9-1.547,6.889,6.889,0,0,0,.016-.821,1,1,0,0,0-.942-.942,8.217,8.217,0,0,0-3.2.547A5.121,5.121,0,0,0,41,5,7.22,7.22,0,0,0,38.667.255a1,1,0,0,0-1.334,0A7.22,7.22,0,0,0,35,5a5.121,5.121,0,0,0,.318,1.721,8.224,8.224,0,0,0-3.2-.547c-.041,0-.191,0-.232,0a8.219,8.219,0,0,0-3.2.547A5.121,5.121,0,0,0,29,5,7.22,7.22,0,0,0,26.667.255a1,1,0,0,0-1.334,0A7.22,7.22,0,0,0,23,5a5.121,5.121,0,0,0,.318,1.721,8.217,8.217,0,0,0-3.2-.547,1,1,0,0,0-.942.942,8.04,8.04,0,0,0,.108,1.6.988.988,0,0,0-1.121.129A8.42,8.42,0,0,0,16.294,11.5a5.162,5.162,0,0,0-1-1.446,7.186,7.186,0,0,0-5-1.706,1,1,0,0,0-.943.943,7.212,7.212,0,0,0,1.706,5,5.135,5.135,0,0,0,1.452,1,8.427,8.427,0,0,0-2.662,1.87,1,1,0,0,0,0,1.334,7.22,7.22,0,0,0,4.745,2.333,6.588,6.588,0,0,0,4.1-1.727l2.36,2.36a2.989,2.989,0,0,0,1.617,2.211c.019.02.027.046.048.065A.983.983,0,0,1,23,24.46v9.08a1.119,1.119,0,0,1-.044.251,19.27,19.27,0,0,0-2.438-2.637,6.191,6.191,0,0,0,1.31-3.568A7.22,7.22,0,0,0,19.5,22.841a1,1,0,0,0-1.334,0A8.42,8.42,0,0,0,16.294,25.5a5.162,5.162,0,0,0-1-1.446,7.175,7.175,0,0,0-5-1.706,1,1,0,0,0-.943.943,7.212,7.212,0,0,0,1.706,5,5.135,5.135,0,0,0,1.452,1,8.427,8.427,0,0,0-2.662,1.87,1,1,0,0,0,0,1.334,7.22,7.22,0,0,0,4.745,2.333,7.04,7.04,0,0,0,4.6-2.182,17.838,17.838,0,0,1,2.378,2.616,2.971,2.971,0,0,0,1.1,4.409c.019.02.028.047.049.066A.982.982,0,0,1,23,40.46v9.08a1.014,1.014,0,0,1-.25.685.832.832,0,0,0-.054.086,2.979,2.979,0,0,0-.032,5.361c.019.02.027.046.048.065A.982.982,0,0,1,23,56.46V63a1,1,0,0,0,1,1h4a1,1,0,0,0,1-1V56.46a.989.989,0,0,1,.289-.724c.021-.018.029-.044.047-.064a2.977,2.977,0,0,0,0-5.344.8.8,0,0,0-.048-.066A.986.986,0,0,1,29,49.54V40.46a.983.983,0,0,1,.288-.723c.021-.019.029-.045.048-.065a2.977,2.977,0,0,0,0-5.343.822.822,0,0,0-.049-.067A.979.979,0,0,1,29,33.54V29a1,1,0,0,0-2,0v4.54a3.186,3.186,0,0,0,.046.46H24.957A3.074,3.074,0,0,0,25,33.54V24.46a3.2,3.2,0,0,0-.046-.46h2.092a3.2,3.2,0,0,0-.046.46V25a1,1,0,0,0,2,0v-.54a.982.982,0,0,1,.288-.723c.021-.019.029-.045.048-.065a2.979,2.979,0,0,0-.043-5.367.873.873,0,0,0-.055-.093A1.024,1.024,0,0,1,29,17.54V15a2.956,2.956,0,0,0-.407-1.48,5.684,5.684,0,0,0,2.528-1.4,5.053,5.053,0,0,0,.879-1.2,5.053,5.053,0,0,0,.879,1.2,5.684,5.684,0,0,0,2.528,1.4A2.956,2.956,0,0,0,35,15v2.54a.982.982,0,0,1-.289.723.805.805,0,0,0-.049.066,2.977,2.977,0,0,0,0,5.343c.019.02.027.046.048.065A.983.983,0,0,1,35,24.46v9.08a1.014,1.014,0,0,1-.252.688.643.643,0,0,0-.052.083,2.978,2.978,0,0,0-.034,5.36c.019.02.028.047.049.066A.982.982,0,0,1,35,40.46V41a1,1,0,0,0,2,0v-.54a3.186,3.186,0,0,0-.046-.46h2.092a3.2,3.2,0,0,0-.046.46v9.08a3.064,3.064,0,0,0,.046.46H36.957A3.074,3.074,0,0,0,37,49.54V45a1,1,0,0,0-2,0v4.54a1.014,1.014,0,0,1-.25.685.832.832,0,0,0-.054.086,2.979,2.979,0,0,0-.032,5.361c.019.02.027.046.048.065A.982.982,0,0,1,35,56.46V63a1,1,0,0,0,1,1h4a1,1,0,0,0,1-1V56.46a.989.989,0,0,1,.289-.724c.021-.018.029-.044.047-.064a2.977,2.977,0,0,0,0-5.344.8.8,0,0,0-.048-.066A.986.986,0,0,1,41,49.54V40.46a.983.983,0,0,1,.288-.723c.021-.019.029-.045.048-.065A2.993,2.993,0,0,0,43,37a3.048,3.048,0,0,0-.041-.408,16.788,16.788,0,0,1,1.851-1.949,7.053,7.053,0,0,0,4.6,2.185,7.22,7.22,0,0,0,4.745-2.333,1,1,0,0,0,0-1.334A8.427,8.427,0,0,0,51.5,31.291ZM48.121,9.465A4.364,4.364,0,0,1,50.6,8.4a4.364,4.364,0,0,1-1.065,2.479,4.349,4.349,0,0,1-2.477,1.063A4.349,4.349,0,0,1,48.121,9.465Zm-.707,5.363a4.355,4.355,0,0,1,2.5,1,4.351,4.351,0,0,1-2.5,1,4.356,4.356,0,0,1-2.505-1A4.356,4.356,0,0,1,47.414,14.828ZM12.465,26.879A4.364,4.364,0,0,1,11.4,24.4a4.364,4.364,0,0,1,2.479,1.065,4.349,4.349,0,0,1,1.063,2.477A4.349,4.349,0,0,1,12.465,26.879Zm2.121,5.949a4.355,4.355,0,0,1-2.505-1,4.351,4.351,0,0,1,2.505-1,4.356,4.356,0,0,1,2.505,1A4.356,4.356,0,0,1,14.586,32.828Zm4.242-2.737a4.356,4.356,0,0,1-1-2.505,4.355,4.355,0,0,1,1-2.5,4.351,4.351,0,0,1,1,2.5A4.356,4.356,0,0,1,18.828,30.091ZM26,2.5A4.354,4.354,0,0,1,27,5a4.354,4.354,0,0,1-1,2.505A4.354,4.354,0,0,1,25,5,4.36,4.36,0,0,1,26,2.5ZM25,17.54V15a1,1,0,0,1,2,0v2.54a3.049,3.049,0,0,0,.041.46H24.954A3.186,3.186,0,0,0,25,17.54ZM23.707,9.293a4.35,4.35,0,0,1,1.064,2.478,4.35,4.35,0,0,1-2.478-1.064,4.356,4.356,0,0,1-1.064-2.478A4.353,4.353,0,0,1,23.707,9.293ZM12.465,12.879A4.364,4.364,0,0,1,11.4,10.4a4.364,4.364,0,0,1,2.479,1.065,4.349,4.349,0,0,1,1.063,2.477A4.349,4.349,0,0,1,12.465,12.879Zm2.121,5.949a4.355,4.355,0,0,1-2.505-1,4.351,4.351,0,0,1,2.505-1,4.356,4.356,0,0,1,2.505,1A4.356,4.356,0,0,1,14.586,18.828Zm4.242-2.737a4.356,4.356,0,0,1-1-2.505,4.355,4.355,0,0,1,1-2.505,4.351,4.351,0,0,1,1,2.505A4.356,4.356,0,0,1,18.828,16.091Zm3.883,2.172a.805.805,0,0,0-.049.066,3,3,0,0,0-1.047.872L20.1,17.687a6.588,6.588,0,0,0,1.727-4.1,4.683,4.683,0,0,0-.08-.792,6.324,6.324,0,0,0,1.659.726A2.956,2.956,0,0,0,23,15v2.54A.982.982,0,0,1,22.711,18.263ZM24,52h4a1,1,0,0,1,0,2H24a1,1,0,0,1,0-2Zm3.046-2H24.957A3.074,3.074,0,0,0,25,49.54V40.46a3.186,3.186,0,0,0-.046-.46h2.092a3.2,3.2,0,0,0-.046.46v9.08A3.064,3.064,0,0,0,27.046,50ZM27,62H25V56.46a3.2,3.2,0,0,0-.046-.46h2.092a3.2,3.2,0,0,0-.046.46Zm1-26a1,1,0,0,1,0,2H24a1,1,0,0,1,0-2Zm1-15a1,1,0,0,1-1,1H24a1,1,0,0,1,0-2h4A1,1,0,0,1,29,21Zm.707-10.293a4.35,4.35,0,0,1-2.478,1.064,4.35,4.35,0,0,1,1.064-2.478,4.356,4.356,0,0,1,2.478-1.064A4.35,4.35,0,0,1,29.707,10.707ZM41,16.586V15a2.953,2.953,0,0,0-.123-.8A8.494,8.494,0,0,0,41.9,15.691ZM44.059,10.8a3.046,3.046,0,0,1,.113.786,4.354,4.354,0,0,1-1,2.5,5.467,5.467,0,0,1-.779-1.381,4.833,4.833,0,0,0,.728-.588A5.079,5.079,0,0,0,44.059,10.8ZM40.293,9.293a4.356,4.356,0,0,1,2.478-1.064,4.35,4.35,0,0,1-1.064,2.478,4.35,4.35,0,0,1-2.478,1.064A4.35,4.35,0,0,1,40.293,9.293ZM38,2.5A4.354,4.354,0,0,1,39,5a4.354,4.354,0,0,1-1,2.505A4.354,4.354,0,0,1,37,5,4.36,4.36,0,0,1,38,2.5ZM37,17.54V15a1,1,0,0,1,2,0v2.54a3.049,3.049,0,0,0,.041.46H36.954A3.186,3.186,0,0,0,37,17.54Zm-2.707-6.833a4.356,4.356,0,0,1-1.064-2.478,4.353,4.353,0,0,1,2.478,1.064,4.35,4.35,0,0,1,1.064,2.478A4.35,4.35,0,0,1,34.293,10.707ZM36,20h4a1,1,0,0,1,0,2H36a1,1,0,0,1,0-2Zm.954,4h2.092a3.2,3.2,0,0,0-.046.46v9.08a3.186,3.186,0,0,0,.046.46H36.957A3.074,3.074,0,0,0,37,33.54V24.46A3.2,3.2,0,0,0,36.954,24ZM36,52h4a1,1,0,0,1,0,2H36a1,1,0,0,1,0-2Zm3,10H37V56.46a3.2,3.2,0,0,0-.046-.46h2.092a3.2,3.2,0,0,0-.046.46Zm1-24H36a1,1,0,0,1,0-2h4a1,1,0,0,1,0,2ZM50.121,27.465A4.364,4.364,0,0,1,52.6,26.4a4.364,4.364,0,0,1-1.065,2.479,4.349,4.349,0,0,1-2.477,1.063A4.349,4.349,0,0,1,50.121,27.465Zm-4.949,4.626a4.356,4.356,0,0,1-1-2.505,4.355,4.355,0,0,1,1-2.5,4.351,4.351,0,0,1,1,2.5A4.356,4.356,0,0,1,45.172,32.091Zm4.242,2.737a4.356,4.356,0,0,1-2.505-1,4.356,4.356,0,0,1,2.505-1,4.355,4.355,0,0,1,2.5,1A4.351,4.351,0,0,1,49.414,34.828Z"/><path d="M40,22H39a1,1,0,0,1,0-2h1a1,1,0,0,1,0,2Z" style="fill:#fff"/></g></svg>