<svg xmlns="http://www.w3.org/2000/svg" viewBox="0 0 64 64"><g id="_29-Cleansing_foam" data-name="29-Cleansing foam"><polygon points="49 15 51 16 49 17 48 19 47 17 45 16 47 15 48 13 49 15" style="fill:#f4c39a"/><polygon points="19 47 21 48 19 49 18 51 17 49 15 48 17 47 18 45 19 47" style="fill:#f4c39a"/><polygon points="54.01 55 53 56 49 52.04 50 51.05 58 43.13 59 42.14 63 46.1 54.01 55" style="fill:#fff3f2"/><polygon points="63 46.1 63 63 54.01 55 63 46.1" style="fill:#d45f73"/><path d="M36,39a2.015,2.015,0,0,1,2-2h5c3-1.98,3-2,7-2,.29,0,.57.01.83.03C55.11,35.34,56,38,56,38v3l2,2.13-8,7.92-2-1.98L30,45.11,21.68,37.7a2.111,2.111,0,0,1-.08-3.08A2.175,2.175,0,0,1,23.12,34a2.152,2.152,0,0,1,1.39.51L30,39h6Z" style="fill:#ebb996"/><path d="M46,33h2a3,3,0,0,1,2.83,2v.03c-.26-.02-.54-.03-.83-.03-4,0-4,.02-7,2H38a2.015,2.015,0,0,0-2,2H34a3,3,0,0,1,0-6h2c-1.66,0-2-1.34-2-3a3,3,0,0,1,3-3h2a1.959,1.959,0,0,1-2-2c0-2,3-3,4-4,1,1,4,2,4,4a1.959,1.959,0,0,1-2,2h2a3,3,0,0,1,3,3C48,31.66,47.66,33,46,33Z" style="fill:#fff3f2"/><polygon points="35.39 7.91 32.58 10.67 29.77 7.91 32.58 5.15 35.39 7.91" style="fill:#dbd1d0"/><path d="M32.58,1,41,9.29v2.76l-.7.7L35.39,7.91,32.58,5.15,30.47,3.07Z" style="fill:#8dbdd9"/><polygon points="34.68 12.75 31.88 15.51 24.86 8.6 27.67 5.84 29.77 7.91 34.68 12.75" style="fill:#e6677d"/><path d="M15.04,34.85a1.986,1.986,0,0,0,2.8,0L13.63,39,1,26.56l4.21-4.14a1.938,1.938,0,0,0,0,2.76Z" style="fill:#f0e5e4"/><path d="M33.28,19.65,18.54,34.16l-.7.69a1.986,1.986,0,0,1-2.8,0L5.21,25.18a1.938,1.938,0,0,1,0-2.76l.7-.69L20.65,7.22a2.017,2.017,0,0,1,2.81,0l1.4,1.38,7.02,6.91,1.4,1.38A1.92,1.92,0,0,1,33.28,19.65Z" style="fill:#8dbdd9"/><path d="M31,43H47.817L45,41H38a2.006,2.006,0,0,1-2-2H30l-5.49-4.49A2.152,2.152,0,0,0,23.12,34a2.175,2.175,0,0,0-1.168.343,1.978,1.978,0,0,0,.615,1.067Z" style="fill:#d7a37e"/><path d="M50.83,35.03c-.26-.02-.54-.03-.83-.03-4,0-4,.02-7,2H38a1.984,1.984,0,0,0-1.721,3A1.987,1.987,0,0,1,38,39h5c3-1.98,3-2,7-2,.29,0,.57.01.83.03C55.11,37.34,56,40,56,40V38S55.11,35.34,50.83,35.03Z" style="fill:#fcc7a1"/><polygon points="56 41 47.943 49.057 48 49.07 50 51.05 58 43.13 56 41" style="fill:#d7a37e"/><path d="M61.442,44.558l-5.321,5.321a3,3,0,0,1-4.242,0l-.346-.346L50,51.05l-1,.99L53,56l1.01-1L63,46.1Z" style="fill:#dbd1d0"/><path d="M59.378,56.114a3,3,0,0,1-.128-4.364L63,48V46.1L54.01,55,63,63V59.333Z" style="fill:#a14756"/><path d="M33.28,16.89l-1.093-1.077L20.243,27.757a6,6,0,0,1-8.486,0L5.819,21.819l-.609.6a1.938,1.938,0,0,0,0,2.76l9.83,9.67a1.986,1.986,0,0,0,2.8,0l.7-.69L33.28,19.65A1.92,1.92,0,0,0,33.28,16.89Z" style="fill:#6c9bb5"/><path d="M15.04,34.85l-.995-.979a2,2,0,0,1-2.459-.285L2.8,24.8,1,26.56,13.63,39l4.21-4.15A1.986,1.986,0,0,1,15.04,34.85Z" style="fill:#dbd1d0"/><path d="M32.586,9.414l-.637.637.631.619,2.81-2.76L32.58,5.15l-.721.709.727.727A2,2,0,0,1,32.586,9.414Z" style="fill:#b8afae"/><polygon points="24.86 8.6 31.88 15.51 33.204 14.204 26.242 7.242 24.86 8.6" style="fill:#a14756"/><path d="M34.17,36a3,3,0,0,1,3-3h2c-1.66,0-2-1.34-2-3a3,3,0,0,1,3-3h2a1.959,1.959,0,0,1-2-2c0-1.3,1.257-2.17,2.415-2.9A9.994,9.994,0,0,1,41,21c-1,1-4,2-4,4a1.959,1.959,0,0,0,2,2H37a3,3,0,0,0-3,3c0,1.66.34,3,2,3H34a3,3,0,0,0,0,6h2a1.93,1.93,0,0,1,.023-.229A2.992,2.992,0,0,1,34.17,36Z" style="fill:#f5e9e8"/><rect x="40" y="27" width="6" height="2" rx="1" style="fill:#fff"/><rect x="39" y="33" width="8" height="2" rx="1" style="fill:#fff"/><path d="M19,13h0a1,1,0,0,1,0-1.414l2.293-2.293a1,1,0,0,1,1.414,0L24,10.586A1,1,0,0,1,24,12h0a1,1,0,0,1-1.414,0L22,11.414,20.414,13A1,1,0,0,1,19,13Z" style="fill:#fff"/><path d="M17,16a1,1,0,0,1-.707-1.707l1-1a1,1,0,0,1,1.414,1.414l-1,1A1,1,0,0,1,17,16Z" style="fill:#fff"/><path d="M63.98,46a.987.987,0,0,0-.277-.61l-4-3.959a1,1,0,0,0-1.406,0l-.27.267L57,40.6V38a1,1,0,0,0-.052-.316c-.045-.136-1.074-3.02-5.432-3.582a4,4,0,0,0-2.8-2.037A6.6,6.6,0,0,0,49,30a4.006,4.006,0,0,0-3.171-3.914A3.335,3.335,0,0,0,46,25c0-1.95-1.821-3.084-3.151-3.913a7.49,7.49,0,0,1-1.142-.794,1.029,1.029,0,0,0-1.414,0,7.49,7.49,0,0,1-1.142.794C37.821,21.916,36,23.05,36,25a3.309,3.309,0,0,0,.171,1.086A4.006,4.006,0,0,0,33,30a6.621,6.621,0,0,0,.281,2.064A4,4,0,0,0,34,40h1.184A3,3,0,0,0,38,42h6.681l2.74,1.946,1.158-1.631-3-2.13A1,1,0,0,0,45,40H38a1,1,0,0,1,0-2h5a1.284,1.284,0,0,0,.619-.211C46.331,36,46.331,36,50,36c3.647,0,4.765,1.733,5,2.2V41a1,1,0,0,0,.271.685l1.333,1.42L50,49.644l-1.3-1.285a1.017,1.017,0,0,0-.489-.265L30.47,44.19l-8.127-7.239a1.113,1.113,0,0,1-.043-1.619,1.169,1.169,0,0,1,1.574-.047l5.493,4.489,1.266-1.548-5.48-4.478a3.177,3.177,0,0,0-4.259.162,3.11,3.11,0,0,0,.119,4.534l8.322,7.414a1,1,0,0,0,.45.23l17.717,3.9,1.076,1.067-.281.278a1,1,0,0,0,0,1.422l4,3.96a1,1,0,0,0,1.406,0l.339-.336,8.294,7.372A1,1,0,0,0,63,64a.978.978,0,0,0,.409-.088A1,1,0,0,0,64,63V46ZM42.7,36H38a3,3,0,0,0-2.816,2H34a2,2,0,0,1,0-4h2a1,1,0,0,0,0-2c-.469,0-1,0-1-2a2,2,0,0,1,2-2h2.015a1,1,0,0,0-.005-2A.918.918,0,0,1,38,25c0-.839,1.225-1.6,2.209-2.215.275-.172.544-.339.791-.509.247.17.516.337.791.509C42.775,23.4,44,24.161,44,25a.915.915,0,0,1-1,1,1,1,0,0,0,0,2h2a2,2,0,0,1,2,2c0,2-.531,2-1,2a1,1,0,0,0,0,2h2c.038,0,.073.015.111.017C45.761,34.085,45.11,34.414,42.7,36Zm7.722,16.04.281-.278,8-7.92.3-.293L61.578,46.1,53,54.593Zm5.044,2.926L62,48.5V60.773Z"/><rect x="15.632" y="9.897" width="2.559" height="2.001" transform="translate(-2.784 15.001) rotate(-44.565)"/><path d="M18.864,35.251l.381-.374h0l14.736-14.51a2.933,2.933,0,0,0,0-4.189l-.679-.669,2.084-2.051a1,1,0,0,0,0-1.426l-1.381-1.36,1.381-1.36L39.6,13.458a1,1,0,0,0,1.4,0l.7-.69a1,1,0,0,0,.3-.713V9.291a1,1,0,0,0-.3-.713L33.28.287a1,1,0,0,0-1.4,0L29.772,2.359a1,1,0,0,0,0,1.426l1.382,1.36-1.382,1.36-1.4-1.382a1,1,0,0,0-1.4,0L24.86,7.2l-.7-.691a3.012,3.012,0,0,0-4.209,0L18.3,8.129l1.4,1.426,1.651-1.624a1,1,0,0,1,1.4,0L32.578,17.6a.932.932,0,0,1,0,1.337L17.416,33.871l-.276.272a1,1,0,0,1-1.4,0L5.912,24.469a.932.932,0,0,1,0-1.338l9.566-9.418-1.4-1.426L5,21.224l-.489.481,0,0L.3,25.851a1,1,0,0,0,0,1.425L12.931,39.713a1,1,0,0,0,1.4,0ZM32.579,2.4,40,9.71v1.339L31.9,3.072Zm0,4.146,1.382,1.36-1.382,1.36L31.2,7.909Zm-4.912.69,1.4,1.38,0,0,2.808,2.764h0l1.38,1.359-1.382,1.36L26.285,8.6ZM2.426,26.563l1.508-1.485a2.955,2.955,0,0,0,.576.817l9.823,9.672a2.932,2.932,0,0,0,.8.549l-1.5,1.481Z"/><path d="M44.553,16.9l1.7.85.85,1.7a1,1,0,0,0,1.79,0l.85-1.7,1.7-.85a1,1,0,0,0,0-1.79l-1.7-.85-.85-1.7a1.042,1.042,0,0,0-1.79,0l-.85,1.7-1.7.85a1,1,0,0,0,0,1.79Zm2.894-1a1,1,0,0,0,.448-.448l.1-.211.1.211a1,1,0,0,0,.448.448l.211.105-.211.105a1,1,0,0,0-.448.448l-.1.211-.1-.211a1,1,0,0,0-.448-.448L47.236,16Z"/><path d="M21.447,47.105l-1.7-.85-.85-1.7a1.042,1.042,0,0,0-1.79,0l-.85,1.7-1.7.85a1,1,0,0,0,0,1.79l1.7.85.85,1.7a1,1,0,0,0,1.79,0l.85-1.7,1.7-.85a1,1,0,0,0,0-1.79Zm-2.894,1a1,1,0,0,0-.448.448L18,48.764l-.105-.211a1,1,0,0,0-.448-.448l-.211-.1.211-.1a1,1,0,0,0,.448-.448L18,47.236l.105.211a1,1,0,0,0,.448.448l.211.1Z"/></g></svg>