<svg xmlns="http://www.w3.org/2000/svg" viewBox="0 0 64 64"><title>29-happy</title><g id="_29-happy" data-name="29-happy"><path d="M55,1H33a4,4,0,0,0-4,4V27a4,4,0,0,0,4,4H44v5l5-5h6a4,4,0,0,0,4-4V5A4,4,0,0,0,55,1Z" style="fill:#ff73a5"/><path d="M33,27V5a4,4,0,0,1,4-4H33a4,4,0,0,0-4,4V27a4,4,0,0,0,4,4h4A4,4,0,0,1,33,27Z" style="fill:#ff8fb8"/><path d="M55,1H51a4,4,0,0,1,4,4V27a4,4,0,0,1-4,4h4a4,4,0,0,0,4-4V5A4,4,0,0,0,55,1Z" style="fill:#cf6799"/><circle cx="39" cy="12" r="2" style="fill:#ffcfe2"/><circle cx="49" cy="12" r="2" style="fill:#ffcfe2"/><path d="M21,16v5l3-2a4.691,4.691,0,0,1,.46-.54,5.026,5.026,0,0,1,2.3-1.3A2.835,2.835,0,0,0,27,16a3,3,0,0,0-6,0Z" style="fill:#7e8596"/><path d="M35.23,46.35l2.2,3.3,4.3-3.43L39,36l-9-2-2,2-2-2-9,2L14.27,46.22l4.3,3.43,2.2-3.3A10.559,10.559,0,0,1,22,50H34A10.559,10.559,0,0,1,35.23,46.35Z" style="fill:#b674f2"/><polygon points="39 38 30 36 28 38 26 36 17 38 14.71 46.571 14.27 46.22 17 36 26 34 28 36 30 34 39 36 41.73 46.22 41.29 46.571 39 38" style="fill:#d2a0f5"/><path d="M26,30.59V34l2,2,2-2V30.59a5.083,5.083,0,0,1-4,0Z" style="fill:#ffbeaa"/><polygon points="37.43 49.65 39 52 49 62 51 59 43 51 41.73 46.22 37.43 49.65" style="fill:#ffdecf"/><polygon points="5 59 7 62 7.06 61.94 17 52 18.57 49.65 14.27 46.22 13 51 5 59" style="fill:#ffdecf"/><path d="M22,58H34c0-3-1-5-1-8H23C23,53,22,55,22,58Z" style="fill:#ffdecf"/><path d="M33.854,56A14.413,14.413,0,0,1,34,58H22a14.413,14.413,0,0,1,.146-2Z" style="fill:#ffbeaa"/><path d="M30,30.59A5.029,5.029,0,0,0,33,26V22a5,5,0,0,0-5-5,4.635,4.635,0,0,0-1.24.16,5.026,5.026,0,0,0-2.3,1.3A4.691,4.691,0,0,0,24,19a4.941,4.941,0,0,0-1,3v4a5.029,5.029,0,0,0,3,4.59,5.083,5.083,0,0,0,4,0Z" style="fill:#ffdecf"/><path d="M26,28.59a5.083,5.083,0,0,0,4,0A5.029,5.029,0,0,0,33,24v2a5.029,5.029,0,0,1-3,4.59,5.083,5.083,0,0,1-4,0A5.029,5.029,0,0,1,23,26V24A5.029,5.029,0,0,0,26,28.59Z" style="fill:#ffcdbe"/><polygon points="21 58 20 63 36 63 35 58 21 58" style="fill:#7e8596"/><path d="M44,23a5.785,5.785,0,0,1-6-6h1l1,0a3.851,3.851,0,0,0,4,4c3.954,0,4-3.837,4-4h2A5.785,5.785,0,0,1,44,23Z" style="fill:#ffb9d5"/><rect x="15.5" y="44.798" width="2.001" height="6.403" transform="translate(-31.289 30.899) rotate(-51.34)"/><rect x="36.298" y="47" width="6.403" height="2.001" transform="matrix(0.781, -0.625, 0.625, 0.781, -21.33, 35.194)"/><path d="M28,37a1,1,0,0,1-.707-.293l-2-2,1.414-1.414L28,34.586l1.293-1.293,1.414,1.414-2,2A1,1,0,0,1,28,37Z"/><path d="M28,32a6.006,6.006,0,0,1-6-6V22a5.912,5.912,0,0,1,1.2-3.6,5.588,5.588,0,0,1,.55-.643,6.012,6.012,0,0,1,2.765-1.563A5.531,5.531,0,0,1,28,16a6.006,6.006,0,0,1,6,6v4A6.006,6.006,0,0,1,28,32Zm0-14a3.651,3.651,0,0,0-.975.124,4.055,4.055,0,0,0-1.864,1.049,3.422,3.422,0,0,0-.354.419A3.931,3.931,0,0,0,24,22v4a4,4,0,0,0,8,0V22A4,4,0,0,0,28,18Z"/><path d="M21,22a1,1,0,0,1-1-1V16a4,4,0,0,1,8,0,3.821,3.821,0,0,1-.326,1.566A1,1,0,0,1,27,18.13a4.031,4.031,0,0,0-1.841,1.043,3.422,3.422,0,0,0-.354.419,1.008,1.008,0,0,1-.252.24l-3,2A1,1,0,0,1,21,22Zm3-8a2,2,0,0,0-2,2v3.132l1.3-.87a5.229,5.229,0,0,1,.448-.509,6.062,6.062,0,0,1,2.216-1.4A2.077,2.077,0,0,0,26,16,2,2,0,0,0,24,14Z"/><path d="M34,51H22a1,1,0,0,1-1-1,6.482,6.482,0,0,0-.761-2.378A10.844,10.844,0,0,1,19,43V42h2v1a9.1,9.1,0,0,0,1.063,3.8,11.711,11.711,0,0,1,.821,2.2H33.116a11.711,11.711,0,0,1,.821-2.2A9.1,9.1,0,0,0,35,43V42h2v1a10.844,10.844,0,0,1-1.239,4.622A6.482,6.482,0,0,0,35,50,1,1,0,0,1,34,51Z"/><path d="M35,58H33a18.479,18.479,0,0,0-.48-3.8A20.294,20.294,0,0,1,32,50h2a18.479,18.479,0,0,0,.48,3.8A20.294,20.294,0,0,1,35,58Z"/><path d="M23,58H21a20.294,20.294,0,0,1,.52-4.2A18.479,18.479,0,0,0,22,50h2a20.294,20.294,0,0,1-.52,4.2A18.479,18.479,0,0,0,23,58Z"/><path d="M35.02,63.2,34.181,59H21.819l-.839,4.2L19.02,62.8l1-5A1,1,0,0,1,21,57H35a1,1,0,0,1,.98.8l1,5Z"/><path d="M7,63c-.032,0-.065,0-.1-.005a1,1,0,0,1-.733-.44l-2-3a1,1,0,0,1,.125-1.262l7.81-7.811,3.931-14.74a1,1,0,0,1,.749-.719L25,33.2V30h2v4a1,1,0,0,1-.783.977L17.81,36.845,13.966,51.258a1,1,0,0,1-.259.449l-7.42,7.42.868,1.3,9.068-9.068,3.945-5.918,1.664,1.11-4,6a1,1,0,0,1-.125.152l-10,10A1,1,0,0,1,7,63Z"/><path d="M49,63a1,1,0,0,1-.707-.293l-10-10a1,1,0,0,1-.125-.152l-4-6,1.664-1.11,3.945,5.918,9.068,9.068.868-1.3-7.42-7.42a1,1,0,0,1-.259-.449L38.19,36.845l-8.407-1.868A1,1,0,0,1,29,34V30h2v3.2l8.217,1.825a1,1,0,0,1,.749.719L43.9,50.482l7.81,7.811a1,1,0,0,1,.125,1.262l-2,3A1,1,0,0,1,49.1,63C49.065,63,49.032,63,49,63Z"/><path d="M44,37a.987.987,0,0,1-.383-.076A1,1,0,0,1,43,36V32H34V30H44a1,1,0,0,1,1,1v2.586l3.293-3.293A1,1,0,0,1,49,30h6a3,3,0,0,0,3-3V5a3,3,0,0,0-3-3H33a3,3,0,0,0-3,3v9H28V5a5.006,5.006,0,0,1,5-5H55a5.006,5.006,0,0,1,5,5V27a5.006,5.006,0,0,1-5,5H49.414l-4.707,4.707A1,1,0,0,1,44,37Z"/><path d="M39,15a3,3,0,1,1,3-3A3,3,0,0,1,39,15Zm0-4a1,1,0,1,0,1,1A1,1,0,0,0,39,11Z"/><path d="M49,15a3,3,0,1,1,3-3A3,3,0,0,1,49,15Zm0-4a1,1,0,1,0,1,1A1,1,0,0,0,49,11Z"/><path d="M44,23a5.785,5.785,0,0,1-6-6h1l1,0a3.851,3.851,0,0,0,4,4c3.954,0,4-3.837,4-4h2A5.785,5.785,0,0,1,44,23Z"/></g></svg>