<svg xmlns="http://www.w3.org/2000/svg" viewBox="0 0 64 64"><g id="_29-Ring_Lifeguard" data-name="29-Ring Lifeguard"><path d="M33,1a3,3,0,0,1,3,3l-.04.28a28.143,28.143,0,0,0-7.92,0L28,4a3,3,0,0,1,3-3Z" style="fill:#edece7"/><path d="M59.84,29a28.205,28.205,0,0,1,0,6H56.83A.927.927,0,0,1,56,34V30a.927.927,0,0,1,.83-1Z" style="fill:#b8b5b7"/><path d="M35,56.83v3.01a28.205,28.205,0,0,1-6,0V56.83A.927.927,0,0,1,30,56h4A.927.927,0,0,1,35,56.83Z" style="fill:#b8b5b7"/><path d="M8,30v4a.927.927,0,0,1-.83,1H4.16a28.2,28.2,0,0,1,0-6H7.17A.927.927,0,0,1,8,30Z" style="fill:#b8b5b7"/><path d="M14.3,10.3,22,18l.12.17a16.6,16.6,0,0,0-3.54,3.41l-7.82-7.82A28.932,28.932,0,0,1,14.3,10.3Z" style="fill:#6d805f"/><path d="M18.58,42.42a16.6,16.6,0,0,0,3.54,3.41L22,46l-7.7,7.7a28.932,28.932,0,0,1-3.54-3.46Z" style="fill:#6d805f"/><path d="M49.7,53.7,42,46l-.12-.17a16.6,16.6,0,0,0,3.54-3.41l7.82,7.82A28.932,28.932,0,0,1,49.7,53.7Z" style="fill:#6d805f"/><path d="M42,18l7.7-7.7a28.932,28.932,0,0,1,3.54,3.46l-7.82,7.82a16.6,16.6,0,0,0-3.54-3.41Z" style="fill:#6d805f"/><path d="M42,46l7.7,7.7A27.864,27.864,0,0,1,35,59.84V56.83A.927.927,0,0,0,34,56H30a.927.927,0,0,0-1,.83v3.01A27.864,27.864,0,0,1,14.3,53.7L22,46l.12-.17a16.982,16.982,0,0,0,19.76,0Z" style="fill:#6da3c4"/><path d="M18.58,42.42l-7.82,7.82A27.874,27.874,0,0,1,4.16,35H7.17A.927.927,0,0,0,8,34V30a.927.927,0,0,0-.83-1H4.16a27.874,27.874,0,0,1,6.6-15.24l7.82,7.82a16.954,16.954,0,0,0,0,20.84Z" style="fill:#dddcd7"/><path d="M49.7,10.3,42,18l-.12.17a16.982,16.982,0,0,0-19.76,0L22,18l-7.7-7.7A27.953,27.953,0,0,1,28.04,4.28a28.143,28.143,0,0,1,7.92,0A27.953,27.953,0,0,1,49.7,10.3Z" style="fill:#6da3c4"/><path d="M59.84,29H56.83A.927.927,0,0,0,56,30v4a.927.927,0,0,0,.83,1h3.01a27.874,27.874,0,0,1-6.6,15.24l-7.82-7.82a16.954,16.954,0,0,0,0-20.84l7.82-7.82A27.874,27.874,0,0,1,59.84,29Z" style="fill:#dddcd7"/><path d="M59.84,29H57.822a25.37,25.37,0,0,1,0,6H59.84a28.205,28.205,0,0,0,0-6Z" style="fill:#969192"/><path d="M32,58a26.069,26.069,0,0,1-3-.178V59.84a28.205,28.205,0,0,0,6,0V57.822A26.069,26.069,0,0,1,32,58Z" style="fill:#969192"/><path d="M6,32a26.069,26.069,0,0,1,.178-3H4.16a28.2,28.2,0,0,0,0,6H6.178A26.069,26.069,0,0,1,6,32Z" style="fill:#969192"/><path d="M15.728,11.728,14.3,10.3a28.932,28.932,0,0,0-3.54,3.46l1.421,1.421A26.073,26.073,0,0,1,15.728,11.728Z" style="fill:#455040"/><path d="M12.181,48.819,10.76,50.24A28.932,28.932,0,0,0,14.3,53.7l1.428-1.428A26.073,26.073,0,0,1,12.181,48.819Z" style="fill:#455040"/><path d="M48.272,52.272,49.7,53.7a28.932,28.932,0,0,0,3.54-3.46l-1.421-1.421A26.073,26.073,0,0,1,48.272,52.272Z" style="fill:#455040"/><path d="M51.819,15.181,53.24,13.76A28.932,28.932,0,0,0,49.7,10.3l-1.428,1.428A26.073,26.073,0,0,1,51.819,15.181Z" style="fill:#455040"/><path d="M15.728,52.272,14.3,53.7A27.864,27.864,0,0,0,29,59.84V57.822A25.865,25.865,0,0,1,15.728,52.272Z" style="fill:#5787b7"/><path d="M35,57.822V59.84A27.864,27.864,0,0,0,49.7,53.7l-1.428-1.428A25.865,25.865,0,0,1,35,57.822Z" style="fill:#5787b7"/><path d="M6.178,35H4.16a27.874,27.874,0,0,0,6.6,15.24l1.421-1.421A25.869,25.869,0,0,1,6.178,35Z" style="fill:#c9c6c8"/><path d="M12.181,15.181,10.76,13.76A27.874,27.874,0,0,0,4.16,29H6.178A25.869,25.869,0,0,1,12.181,15.181Z" style="fill:#c9c6c8"/><path d="M32,6a25.881,25.881,0,0,1,16.272,5.728L49.7,10.3A27.953,27.953,0,0,0,35.96,4.28a28.143,28.143,0,0,0-7.92,0A27.953,27.953,0,0,0,14.3,10.3l1.428,1.428A25.881,25.881,0,0,1,32,6Z" style="fill:#5787b7"/><path d="M51.819,48.819,53.24,50.24A27.874,27.874,0,0,0,59.84,35H57.822A25.869,25.869,0,0,1,51.819,48.819Z" style="fill:#c9c6c8"/><path d="M57.822,29H59.84a27.874,27.874,0,0,0-6.6-15.24l-1.421,1.421A25.869,25.869,0,0,1,57.822,29Z" style="fill:#c9c6c8"/><path d="M22.12,18.17,22,18l-2.7-2.7A21.079,21.079,0,0,0,15.73,18.73l2.85,2.85A16.6,16.6,0,0,1,22.12,18.17Z" style="fill:#7e9066"/><path d="M22.12,45.83a16.6,16.6,0,0,1-3.54-3.41l-2.85,2.85A21.079,21.079,0,0,0,19.3,48.7L22,46Z" style="fill:#7e9066"/><path d="M41.88,45.83,42,46l2.7,2.7A21.079,21.079,0,0,0,48.27,45.27l-2.85-2.85A16.6,16.6,0,0,1,41.88,45.83Z" style="fill:#7e9066"/><path d="M44.7,15.3,42,18l-.12.17a16.6,16.6,0,0,1,3.54,3.41l2.85-2.85A21.079,21.079,0,0,0,44.7,15.3Z" style="fill:#7e9066"/><path d="M41.88,45.83a16.982,16.982,0,0,1-19.76,0L22,46l-2.7,2.7a20.891,20.891,0,0,0,25.4,0L42,46Z" style="fill:#82b3d1"/><path d="M15,32a16.846,16.846,0,0,1,3.58-10.42l-2.85-2.85a20.979,20.979,0,0,0,0,26.54l2.85-2.85A16.846,16.846,0,0,1,15,32Z" style="fill:#edece7"/><path d="M22.12,18.17a16.982,16.982,0,0,1,19.76,0L42,18l2.7-2.7a20.891,20.891,0,0,0-25.4,0L22,18Z" style="fill:#82b3d1"/><path d="M49,32a16.846,16.846,0,0,1-3.58,10.42l2.85,2.85a20.979,20.979,0,0,0,0-26.54l-2.85,2.85A16.846,16.846,0,0,1,49,32Z" style="fill:#edece7"/><path d="M61,32A29.042,29.042,0,0,0,36.947,3.431,4,4,0,0,0,33,0H31a3.993,3.993,0,0,0-3.942,3.43A28.973,28.973,0,0,0,5.654,44.1l-.123.013C7.031,57.68,11.947,64,21,64c7.22,0,10.422-2.079,10.555-2.168A1,1,0,0,0,32,61a1,1,0,0,0,.445.832C32.578,61.921,35.78,64,43,64c9.053,0,13.969-6.32,15.469-19.89l-.123-.013A28.817,28.817,0,0,0,61,32ZM34,58H30V57l4,.014Zm0-3H30a1.924,1.924,0,0,0-2,1.833V58.7a26.87,26.87,0,0,1-12.184-5.1l6.469-6.469a17.872,17.872,0,0,0,19.43,0L48.184,53.6A26.87,26.87,0,0,1,36,58.7V56.833A1.924,1.924,0,0,0,34,55ZM32,16A16,16,0,1,1,16,32,16.019,16.019,0,0,1,32,16ZM20.64,45.946l-6.381,6.381a27.373,27.373,0,0,1-2.116-2.056l6.38-6.38A18.105,18.105,0,0,0,20.64,45.946Zm29.1,6.381L43.36,45.946a18.105,18.105,0,0,0,2.117-2.055l6.38,6.38A27.373,27.373,0,0,1,49.741,52.327Zm3.417-3.583-6.429-6.429a17.9,17.9,0,0,0,0-20.63l1.978-1.978-1.414-1.414-1.816,1.816a18.105,18.105,0,0,0-2.117-2.055l1.347-1.347-1.414-1.414-1.578,1.578a17.872,17.872,0,0,0-19.43,0l-1.579-1.579-1.414,1.414,1.348,1.348a18.105,18.105,0,0,0-2.117,2.055L16.7,18.291,15.291,19.7l1.98,1.98a17.9,17.9,0,0,0,0,20.63l-6.429,6.429A26.877,26.877,0,0,1,5.3,36H7.167A1.924,1.924,0,0,0,9,34V30a1.937,1.937,0,0,0-1.661-1.981L28.189,5.274a26.64,26.64,0,0,1,7.622,0l20.85,22.745A1.937,1.937,0,0,0,55,30v4a1.924,1.924,0,0,0,1.833,2H58.7A26.877,26.877,0,0,1,53.158,48.744ZM5,32c0-.335.013-.668.025-1H7l-.011,3h-1.9C5.033,33.339,5,32.673,5,32Zm52.01-1h1.965c.012.332.025.665.025,1,0,.673-.033,1.339-.082,2H57ZM51.857,13.729l-2.564,2.564,1.414,1.414,2.451-2.451A26.9,26.9,0,0,1,58.55,27.12L39.164,5.972a26.93,26.93,0,0,1,9.02,4.43l-1.891,1.891,1.414,1.414,2.034-2.034A27.373,27.373,0,0,1,51.857,13.729ZM31,2h2a2,2,0,0,1,1.8,1.137C33.876,3.049,32.944,3,32,3s-1.876.049-2.8.137A2,2,0,0,1,31,2ZM14.259,11.673,16.3,13.709,17.709,12.3,15.816,10.4a26.913,26.913,0,0,1,9.019-4.429L5.45,27.12a26.9,26.9,0,0,1,5.392-11.864l2.451,2.451,1.414-1.414-2.564-2.564A27.373,27.373,0,0,1,14.259,11.673ZM21,62c-6.859,0-10.891-4.181-12.755-13.4A29.014,29.014,0,0,0,28.937,60.837,23.762,23.762,0,0,1,21,62Zm22,0a23.776,23.776,0,0,1-7.938-1.163A29.011,29.011,0,0,0,55.755,48.6C53.891,57.819,49.859,62,43,62Z"/></g></svg>