<?xml version="1.0" encoding="utf-8"?>
<!-- Generator: Adobe Illustrator 16.0.0, SVG Export Plug-In . SVG Version: 6.00 Build 0)  -->
<!DOCTYPE svg PUBLIC "-//W3C//DTD SVG 1.1//EN" "http://www.w3.org/Graphics/SVG/1.1/DTD/svg11.dtd">
<svg version="1.1" xmlns="http://www.w3.org/2000/svg" xmlns:xlink="http://www.w3.org/1999/xlink" x="0px" y="0px" width="64px"
	 height="64px" viewBox="0 0 64 64" enable-background="new 0 0 64 64" xml:space="preserve">
<g id="_x32_5_purse_x2C__money_x2C__coin_x2C__banknote_x2C__payment_x2C__shop_x2C__shopping">
</g>
<g id="_x32_4_pay_x2C__click_x2C__hand_x2C__coin_x2C__money_x2C__shop_x2C__payment">
</g>
<g id="_x32_3_card_x2C__discount_x2C__sale_x2C__shop_x2C__shopping_x2C__commerce_x2C__market">
</g>
<g id="_x32_2_safe_x2C__box_x2C__key_x2C__thing_x2C__shop_x2C__shopping_x2C__commerce">
</g>
<g id="_x32_1_cashbox_x2C__money_x2C__purchase_x2C__list_x2C__check_x2C__shop_x2C__shopping">
</g>
<g id="_x32_0_search_x2C__magnifier_x2C__basket_x2C__shop_x2C__shopping_x2C__commerce_x2C__market">
</g>
<g id="_x31_9_return_x2C__box_x2C__purchase_x2C__shipping_x2C__delivery_x2C__shop_x2C__shopping">
</g>
<g id="_x31_8_review_x2C__client_x2C__buyer_x2C__talk_x2C__shop_x2C__shopping_x2C__commerce">
</g>
<g id="_x31_7_manager_x2C__consultant_x2C__shop_x2C__shopping_x2C__commerce_x2C__market_x2C__badge">
</g>
<g id="_x31_6_check_x2C__list_x2C__cashbox_x2C__purchase_x2C__shop_x2C__shopping_x2C__commerce">
</g>
<g id="_x31_5_coupon_x2C__sale_x2C__discount_x2C__shop_x2C__shopping_x2C__commerce_x2C__market">
</g>
<g id="_x31_4_sale_x2C__discount_x2C__box_x2C__gift_x2C__shop_x2C__shopping_x2C__commerce">
</g>
<g id="_x31_3_map_x2C__pin_x2C__marker_x2C__location_x2C__shop_x2C__shopping_x2C__basket">
</g>
<g id="_x31_2_operator_x2C__call_x2C__center_x2C__shop_x2C__shopping_x2C__commerce_x2C__market">
</g>
<g id="_x31_1_courier_x2C__box_x2C__shipping_x2C__purchase_x2C__shop_x2C__shopping_x2C__commerce">
</g>
<g id="_x31_0_box_x2C__shipping_x2C__delivery_x2C__purchase_x2C__shop_x2C__shopping_x2C__commerce">
</g>
<g id="_x39__shipping_x2C__delivery_x2C__box_x2C__crane_x2C__shop_x2C__shopping_x2C__commerce">
</g>
<g id="_x38__computer_x2C__monitor_x2C__desktop_x2C__shop_x2C__shopping_x2C__commerce_x2C__market">
</g>
<g id="_x37__mobile_x2C__phone_x2C__app_x2C__shop_x2C__shopping_x2C__commerce_x2C__market">
</g>
<g id="_x36__food_x2C__market_x2C__purchase_x2C__shop_x2C__shopping_x2C__commerce_x2C__basket">
</g>
<g id="_x35__discount_x2C__sale_x2C__purchase_x2C__pocket_x2C__shop_x2C__shopping_x2C__commerce">
</g>
<g id="_x34__badge_x2C__discount_x2C__sale_x2C__shop_x2C__shopping_x2C__commerce_x2C__market">
</g>
<g id="_x33__food_x2C__pocket_x2C__purchase_x2C__shop_x2C__shopping_x2C__commerce_x2C__supermarket">
	<g>
		<polygon fill="#E2AD81" points="15.5,16 51.5,16 47.5,19 11.5,19 		"/>
		<rect x="22.501" y="11" fill="#5D9CEC" width="10" height="8.531"/>
		<path fill="#A0D468" d="M12.501,2L14.772,20l3.582-1.009C18.354,18.992,15.001,5.5,12.501,2z"/>
		<path fill="#8CC152" d="M15.501,2l-0.998,4.114l3.852,14.99L21.001,18C18.714,8.527,15.501,2,15.501,2z"/>
		<path fill="#FFCE54" d="M46.866,1.501c-3.373-1.228-6.873-0.12-7.817,2.476l-4.986,15.179l2.313,1.751L39.501,20l2.858,0.992
			L47.5,19l2.765-10.577C51.209,5.826,50.241,2.729,46.866,1.501z"/>
		<path fill="#FFD2A6" d="M47.5,19c0,0-2-1-3-1s-2,1-3,1s-2-1-3-1s-2,1-3,1s-2-1-3-1s-2,1-3,1s-2-1-3-1s-2,1-3,1s-2-1-3-1s-2,1-3,1
			s-2-1-3-1s-3,1-3,1l-2,44h40L47.5,19z"/>
		<polygon fill="#F2C397" points="51.5,16 54.5,60 49.5,63 47.5,19 		"/>
		<polygon fill="#E6E9ED" points="31.501,9 23.501,9 22.501,11 22.501,11 32.501,11 32.501,11 		"/>
		<circle fill="#E6E9ED" cx="27.501" cy="15" r="2"/>
		<g>
			<path fill="#F2C397" d="M44.497,61.5H14.503c-0.276,0-0.5-0.224-0.5-0.5s0.224-0.5,0.5-0.5h29.994c0.276,0,0.5,0.224,0.5,0.5
				S44.773,61.5,44.497,61.5z"/>
		</g>
		<g>
			<path fill="#F6BB42" d="M47.987,10.851c-0.165,0-0.327-0.082-0.422-0.231c-0.007-0.01-0.843-1.261-3.072-2.071
				c-2.229-0.811-3.673-0.39-3.688-0.387c-0.258,0.079-0.543-0.066-0.624-0.331C40.1,7.568,40.244,7.29,40.507,7.207
				c0.07-0.023,1.759-0.535,4.328,0.402c2.573,0.935,3.535,2.412,3.574,2.474c0.148,0.232,0.079,0.542-0.153,0.689
				C48.172,10.826,48.079,10.851,47.987,10.851z"/>
		</g>
		<g>
			<path fill="#F6BB42" d="M45.935,16.49c-0.165,0-0.327-0.082-0.422-0.231c-0.007-0.01-0.843-1.261-3.071-2.071
				c-2.232-0.813-3.674-0.391-3.688-0.387c-0.256,0.08-0.542-0.066-0.624-0.33c-0.081-0.264,0.063-0.542,0.326-0.625
				c0.07-0.021,1.758-0.533,4.328,0.402c2.572,0.936,3.534,2.412,3.573,2.475c0.148,0.232,0.079,0.542-0.153,0.689
				C46.119,16.464,46.026,16.49,45.935,16.49z"/>
		</g>
		<g>
			<path fill="#E2AD81" d="M31.5,43.5c-0.128,0-0.256-0.049-0.354-0.146l-4-4c-0.195-0.195-0.195-0.512,0-0.707s0.512-0.195,0.707,0
				l4,4c0.195,0.195,0.195,0.512,0,0.707C31.756,43.451,31.628,43.5,31.5,43.5z"/>
		</g>
		<g>
			<path fill="#E2AD81" d="M27.5,39.5c-0.128,0-0.256-0.049-0.354-0.146c-0.195-0.195-0.195-0.512,0-0.707l10-10
				c0.195-0.195,0.512-0.195,0.707,0s0.195,0.512,0,0.707l-10,10C27.756,39.451,27.628,39.5,27.5,39.5z"/>
		</g>
		<g>
			<path fill="#E2AD81" d="M22.5,52.5c-0.128,0-0.256-0.049-0.354-0.146c-0.195-0.195-0.195-0.512,0-0.707l9-9
				c0.195-0.195,0.512-0.195,0.707,0s0.195,0.512,0,0.707l-9,9C22.756,52.451,22.628,52.5,22.5,52.5z"/>
		</g>
		<path fill="#E2AD81" d="M29.5,50.5c-5.238,0-9.5-4.262-9.5-9.5s4.262-9.5,9.5-9.5S39,35.762,39,41S34.738,50.5,29.5,50.5z
			 M29.5,32.5c-4.687,0-8.5,3.814-8.5,8.5s3.813,8.5,8.5,8.5S38,45.687,38,41S34.187,32.5,29.5,32.5z"/>
	</g>
</g>
<g id="_x32__shop_x2C__shopping_x2C__commerce_x2C__supermarket_x2C__market_x2C__cart">
</g>
<g id="_x31__list_x2C__check_x2C__notebook_x2C__pen_x2C__shop_x2C__shopping_x2C__commerce">
</g>
</svg>
