<svg xmlns="http://www.w3.org/2000/svg" viewBox="0 0 90 90"><title>3-Coding</title><g id="_3-Coding" data-name="3-Coding"><g id="_Group_" data-name="&lt;Group&gt;"><path d="M82.84,69.362l-1.68-1.085a43.018,43.018,0,0,0-51.8-63.346l-.728-1.862a45.011,45.011,0,0,1,54.2,66.293Z"/><path d="M7.288,69.555l-.079-.125A45.013,45.013,0,0,1,6.025,22.5l1.73,1A43.014,43.014,0,0,0,8.84,68.268l.071.112Z"/><path d="M80,90H10a3,3,0,0,1-3-3V58a3,3,0,0,1,3-3H80a3,3,0,0,1,3,3V87A3,3,0,0,1,80,90ZM10,57a1,1,0,0,0-1,1V87a1,1,0,0,0,1,1H80a1,1,0,0,0,1-1V58a1,1,0,0,0-1-1Z"/><path d="M39,48a1,1,0,0,1-.979-.8C37.983,47.037,36.97,43,29,43H11a5.006,5.006,0,0,1-5-5V8a5.006,5.006,0,0,1,5-5H49a5.006,5.006,0,0,1,5,5V38a5.029,5.029,0,0,1-3.575,4.789A4.975,4.975,0,0,1,49,43H40v4a1,1,0,0,1-.9.995A.848.848,0,0,1,39,48ZM11,5A3,3,0,0,0,8,8V38a3,3,0,0,0,3,3H29c4.736,0,7.454,1.325,9,2.71V42a1,1,0,0,1,1-1H49a2.932,2.932,0,0,0,.848-.126A3.019,3.019,0,0,0,52,38V8a3,3,0,0,0-3-3Z"/><path d="M16,84H14a2,2,0,0,1-2-2V80a2,2,0,0,1,2-2h2a2,2,0,0,1,2,2v2A2,2,0,0,1,16,84Zm-3-2h0Zm1,0,2,0V80H14Z"/><path d="M34,75H32a2,2,0,0,1-2-2V71a2,2,0,0,1,2-2h2a2,2,0,0,1,2,2v2A2,2,0,0,1,34,75Zm-3-2h0Zm1,0,2,0V71H32Z"/><path d="M42,75H40a2,2,0,0,1-2-2V71a2,2,0,0,1,2-2h2a2,2,0,0,1,2,2v2A2,2,0,0,1,42,75Zm-3-2h0Zm1,0,2,0V71H40Z"/><path d="M50,75H48a2,2,0,0,1-2-2V71a2,2,0,0,1,2-2h2a2,2,0,0,1,2,2v2A2,2,0,0,1,50,75Zm-3-2h0Zm1,0,2,0V71H48Z"/><path d="M58,75H56a2,2,0,0,1-2-2V71a2,2,0,0,1,2-2h2a2,2,0,0,1,2,2v2A2,2,0,0,1,58,75Zm-3-2h0Zm1,0,2,0V71H56Z"/><path d="M66,75H64a2,2,0,0,1-2-2V71a2,2,0,0,1,2-2h2a2,2,0,0,1,2,2v2A2,2,0,0,1,66,75Zm-3-2h0Zm1,0,2,0V71H64Z"/><path d="M74,75H72a2,2,0,0,1-2-2V71a2,2,0,0,1,2-2h2a2,2,0,0,1,2,2v2A2,2,0,0,1,74,75Zm-3-2h0Zm1,0,2,0V71H72Z"/><path d="M18,66H16a2,2,0,0,1-2-2V62a2,2,0,0,1,2-2h2a2,2,0,0,1,2,2v2A2,2,0,0,1,18,66Zm-3-2h0Zm1,0,2,0V62H16Z"/><path d="M26,66H24a2,2,0,0,1-2-2V62a2,2,0,0,1,2-2h2a2,2,0,0,1,2,2v2A2,2,0,0,1,26,66Zm-3-2h0Zm1,0,2,0V62H24Z"/><path d="M34,66H32a2,2,0,0,1-2-2V62a2,2,0,0,1,2-2h2a2,2,0,0,1,2,2v2A2,2,0,0,1,34,66Zm-3-2h0Zm1,0,2,0V62H32Z"/><path d="M42,66H40a2,2,0,0,1-2-2V62a2,2,0,0,1,2-2h2a2,2,0,0,1,2,2v2A2,2,0,0,1,42,66Zm-3-2h0Zm1,0,2,0V62H40Z"/><path d="M50,66H48a2,2,0,0,1-2-2V62a2,2,0,0,1,2-2h2a2,2,0,0,1,2,2v2A2,2,0,0,1,50,66Zm-3-2h0Zm1,0,2,0V62H48Z"/><path d="M58,66H56a2,2,0,0,1-2-2V62a2,2,0,0,1,2-2h2a2,2,0,0,1,2,2v2A2,2,0,0,1,58,66Zm-3-2h0Zm1,0,2,0V62H56Z"/><path d="M24,84H22a2,2,0,0,1-2-2V80a2,2,0,0,1,2-2h2a2,2,0,0,1,2,2v2A2,2,0,0,1,24,84Zm-3-2h0Zm1,0,2,0V80H22Z"/><path d="M76,84H74a2,2,0,0,1-2-2V80a2,2,0,0,1,2-2h2a2,2,0,0,1,2,2v2A2,2,0,0,1,76,84Zm-3-2h0Zm1,0,2,0V80H74Z"/><path d="M68,84H30a2,2,0,0,1-2-2V80a2,2,0,0,1,2-2H68a2,2,0,0,1,2,2v2A2,2,0,0,1,68,84ZM29,82h0Zm1,0,38,0V80H30Z"/><path d="M54,56H52a2.854,2.854,0,0,0-3.006-3H28a4.821,4.821,0,0,1-5-5V42h2v6a2.852,2.852,0,0,0,3,3H49A4.821,4.821,0,0,1,54,56Z"/><path d="M64,52H60a1,1,0,0,1-.974-.771l-1.158-4.911a12.671,12.671,0,0,1-1.669-.686l-4.283,2.649a1,1,0,0,1-1.232-.142l-2.83-2.821a1,1,0,0,1-.144-1.235l1.62-2.61,1.7,1.054-1.2,1.935,1.708,1.7,4.1-2.535a1,1,0,0,1,1.016-.021,10.614,10.614,0,0,0,2.33.959,1,1,0,0,1,.7.733L60.792,50h2.416l1.108-4.7a1,1,0,0,1,.7-.733,10.614,10.614,0,0,0,2.33-.959,1,1,0,0,1,1.016.021l4.1,2.535,1.708-1.7-2.541-4.1a1,1,0,0,1-.023-1.017,10.561,10.561,0,0,0,.959-2.33,1,1,0,0,1,.734-.7L78,35.208V32.792l-4.7-1.109a1,1,0,0,1-.734-.7,10.561,10.561,0,0,0-.959-2.33,1,1,0,0,1,.023-1.017l2.542-4.1-1.709-1.709-4.1,2.542a1,1,0,0,1-1.017.022,10.614,10.614,0,0,0-2.33-.959,1,1,0,0,1-.7-.733L63.208,18H60.792l-1.108,4.7a1,1,0,0,1-.7.733,10.614,10.614,0,0,0-2.33.959,1,1,0,0,1-1.017-.022l-3.16-1.96,1.054-1.7L56.2,22.368a12.591,12.591,0,0,1,1.669-.686l1.158-4.911A1,1,0,0,1,60,16h4a1,1,0,0,1,.974.771l1.158,4.911a12.646,12.646,0,0,1,1.669.686l4.282-2.658a1,1,0,0,1,1.234.143l2.83,2.83a1,1,0,0,1,.143,1.234L73.633,28.2a12.563,12.563,0,0,1,.685,1.669l4.911,1.158A1,1,0,0,1,80,32v4a1,1,0,0,1-.771.973l-4.911,1.158a12.563,12.563,0,0,1-.685,1.669l2.657,4.283a1,1,0,0,1-.144,1.235l-2.83,2.821a1,1,0,0,1-1.232.142L67.8,45.632a12.74,12.74,0,0,1-1.67.686l-1.158,4.911A1,1,0,0,1,64,52Z"/><path d="M63,41a7,7,0,1,1,7-7A7.008,7.008,0,0,1,63,41Zm0-12a5,5,0,1,0,5,5A5.006,5.006,0,0,0,63,29Z"/><path d="M26,75H16a2,2,0,0,1-2-2V71a2,2,0,0,1,2-2H26a2,2,0,0,1,2,2v2A2,2,0,0,1,26,75ZM16,71v2H26V71Z"/><path d="M74,66H64a2,2,0,0,1-2-2V62a2,2,0,0,1,2-2H74a2,2,0,0,1,2,2v2A2,2,0,0,1,74,66ZM64,62v2H74V62Z"/><path d="M21.293,31.707l-8-8a1,1,0,0,1,0-1.414l8-8,1.414,1.414L15.414,23l7.293,7.293Z"/><path d="M38.707,31.707l-1.414-1.414L44.586,23l-7.293-7.293,1.414-1.414,8,8a1,1,0,0,1,0,1.414Z"/><rect x="19.376" y="22.5" width="20.248" height="2" transform="translate(-2.748 43.059) rotate(-69.778)"/></g></g></svg>