<?xml version="1.0" encoding="utf-8"?>
<!-- Generator: Adobe Illustrator 16.0.0, SVG Export Plug-In . SVG Version: 6.00 Build 0)  -->
<!DOCTYPE svg PUBLIC "-//W3C//DTD SVG 1.1//EN" "http://www.w3.org/Graphics/SVG/1.1/DTD/svg11.dtd">
<svg version="1.1" id="Layer_1" xmlns="http://www.w3.org/2000/svg" xmlns:xlink="http://www.w3.org/1999/xlink" x="0px" y="0px"
	 width="512px" height="512px" viewBox="0 0 512 512" enable-background="new 0 0 512 512" xml:space="preserve">
<g id="_x33_._ship_x2C__pirate_x2C__seafaring_x2C__crime_x2C__bandit">
	<g>
		<g>
			<path d="M108.347,423.882c-2.209,0-4.037-1.788-4.037-3.998c0-2.209,1.749-3.997,3.958-3.997h0.078
				c2.209,0,3.997,1.788,3.997,3.997C112.344,422.094,110.556,423.882,108.347,423.882z"/>
		</g>
	</g>
	<g>
		<g>
			<path d="M140.324,423.882c-2.209,0-4.036-1.788-4.036-3.998c0-2.209,1.749-3.997,3.958-3.997h0.078
				c2.21,0,3.998,1.788,3.998,3.997C144.321,422.094,142.534,423.882,140.324,423.882z"/>
		</g>
	</g>
	<g>
		<g>
			<path d="M172.301,423.882c-2.209,0-4.036-1.788-4.036-3.998c0-2.209,1.749-3.997,3.958-3.997h0.078
				c2.209,0,3.997,1.788,3.997,3.997C176.298,422.094,174.511,423.882,172.301,423.882z"/>
		</g>
	</g>
	<g>
		<g>
			<path d="M204.279,423.882c-2.209,0-4.036-1.788-4.036-3.998c0-2.209,1.749-3.997,3.958-3.997h0.078
				c2.209,0,3.997,1.788,3.997,3.997C208.276,422.094,206.488,423.882,204.279,423.882z"/>
		</g>
	</g>
	<g>
		<g>
			<path d="M236.256,423.882c-2.209,0-4.036-1.788-4.036-3.998c0-2.209,1.749-3.997,3.958-3.997h0.078
				c2.209,0,3.997,1.788,3.997,3.997C240.253,422.094,238.466,423.882,236.256,423.882z"/>
		</g>
	</g>
	<g>
		<g>
			<path d="M268.234,423.882c-2.209,0-4.036-1.788-4.036-3.998c0-2.209,1.749-3.997,3.95-3.997h0.086
				c2.201,0,3.997,1.788,3.997,3.997C272.231,422.094,270.436,423.882,268.234,423.882z"/>
		</g>
	</g>
	<g>
		<g>
			<path d="M300.212,423.882c-2.21,0-4.036-1.788-4.036-3.998c0-2.209,1.748-3.997,3.95-3.997h0.086
				c2.201,0,3.997,1.788,3.997,3.997C304.209,422.094,302.413,423.882,300.212,423.882z"/>
		</g>
	</g>
	<g>
		<g>
			<path d="M332.189,423.882c-2.21,0-4.037-1.788-4.037-3.998c0-2.209,1.749-3.997,3.951-3.997h0.086
				c2.201,0,3.997,1.788,3.997,3.997C336.187,422.094,334.391,423.882,332.189,423.882z"/>
		</g>
	</g>
	<g>
		<g>
			<path d="M339.941,479.842H68.133c-2.209,0-3.998-1.788-3.998-3.997s1.788-3.997,3.998-3.997h271.809
				c2.209,0,3.997,1.788,3.997,3.997S342.15,479.842,339.941,479.842z"/>
		</g>
	</g>
	<g>
		<g>
			<path d="M68.133,479.842c-2.209,0-3.998-1.788-3.998-3.997v-23.647c0-2.21,1.788-3.997,3.998-3.997s3.997,1.787,3.997,3.997
				v23.647C72.13,478.054,70.342,479.842,68.133,479.842z"/>
		</g>
	</g>
	<g>
		<g>
			<path d="M339.941,479.842c-1.632,0-3.17-1.007-3.755-2.639c-0.758-2.069,0.319-4.364,2.389-5.121
				c84.19-30.549,85.3-89.671,85.308-92.17c0.008-2.201,1.795-3.997,3.996-3.997c2.202,0,3.99,1.78,3.998,3.981
				c0.008,2.732-0.852,67.141-90.569,99.711C340.855,479.764,340.395,479.842,339.941,479.842z"/>
		</g>
	</g>
	<g>
		<g>
			<path d="M336.85,463.853H84.122c-2.209,0-3.997-1.787-3.997-3.996c0-2.21,1.788-3.998,3.997-3.998h251.995
				c24.545-9.376,43.368-22.312,55.96-38.465c1.352-1.74,3.865-2.053,5.613-0.694c1.741,1.358,2.054,3.872,0.695,5.612
				c-13.631,17.465-33.859,31.361-60.122,41.284C337.811,463.768,337.334,463.853,336.85,463.853z"/>
		</g>
	</g>
	<g>
		<g>
			<path d="M371.919,375.915c-1.366,0-2.701-0.702-3.442-1.967c-1.125-1.905-0.484-4.356,1.412-5.48l135.904-79.944
				c1.897-1.116,4.349-0.483,5.473,1.421c1.125,1.905,0.484,4.356-1.413,5.48l-135.903,79.943
				C373.309,375.743,372.613,375.915,371.919,375.915z"/>
		</g>
	</g>
	<g>
		<g>
			<path d="M68.133,456.194c-2.209,0-3.998-1.787-3.998-3.997c0-20.954-28.659-28.362-28.948-28.44
				c-2.139-0.531-3.442-2.701-2.904-4.841c0.531-2.147,2.694-3.45,4.841-2.904c1.437,0.352,35.006,9.056,35.006,36.186
				C72.13,454.407,70.342,456.194,68.133,456.194z"/>
		</g>
	</g>
	<g>
		<g>
			<path d="M10.173,351.933c-1.616,0-3.138-0.984-3.739-2.593l-5.996-15.988c-0.772-2.069,0.273-4.372,2.335-5.153
				c2.068-0.757,4.372,0.266,5.152,2.343l5.996,15.988c0.773,2.069-0.273,4.372-2.342,5.153
				C11.118,351.854,10.642,351.933,10.173,351.933z"/>
		</g>
	</g>
	<g>
		<g>
			<path d="M36.163,423.882c-1.218,0-2.42-0.547-3.201-1.601l-11.992-15.989c-1.327-1.764-0.968-4.271,0.796-5.598
				c1.765-1.319,4.271-0.968,5.598,0.805l11.991,15.988c1.327,1.765,0.968,4.271-0.804,5.598
				C37.833,423.616,36.999,423.882,36.163,423.882z"/>
		</g>
	</g>
	<g>
		<g>
			<path d="M60.146,399.898c-0.188,0-0.382-0.016-0.57-0.039l-55.96-7.995c-2.186-0.312-3.708-2.334-3.396-4.52
				c0.32-2.186,2.358-3.686,4.528-3.396l55.961,7.994c2.186,0.312,3.7,2.335,3.388,4.521
				C63.815,398.462,62.106,399.898,60.146,399.898z"/>
		</g>
	</g>
	<g>
		<g>
			<path d="M52.152,366.781c-0.188,0-0.383-0.016-0.57-0.039l-47.966-6.854c-2.186-0.312-3.708-2.334-3.396-4.521
				c0.32-2.187,2.358-3.685,4.528-3.396l47.966,6.854c2.186,0.312,3.701,2.335,3.388,4.521
				C55.821,365.345,54.111,366.781,52.152,366.781z"/>
		</g>
	</g>
	<g>
		<g>
			<path d="M4.178,391.903c-2.21,0-3.998-1.787-3.998-3.996v-31.979c0-2.209,1.788-3.996,3.998-3.996
				c2.209,0,3.997,1.787,3.997,3.996v31.979C8.175,390.116,6.387,391.903,4.178,391.903z"/>
		</g>
	</g>
	<g>
		<g>
			<path d="M36.155,335.943H4.178c-2.21,0-3.998-1.788-3.998-3.997s1.788-3.997,3.998-3.997h31.977c2.209,0,3.998,1.788,3.998,3.997
				S38.365,335.943,36.155,335.943z"/>
		</g>
	</g>
	<g>
		<g>
			<path d="M36.155,343.938c-2.209,0-3.997-1.788-3.997-3.997v-7.994c0-2.209,1.788-3.997,3.997-3.997s3.998,1.788,3.998,3.997
				v7.994C40.153,342.149,38.365,343.938,36.155,343.938z"/>
		</g>
	</g>
	<g>
		<g>
			<path d="M84.129,351.933c-0.219,0-0.438-0.016-0.664-0.055L35.5,343.883c-2.178-0.366-3.646-2.42-3.287-4.599
				c0.367-2.178,2.428-3.677,4.598-3.286l47.966,7.994c2.178,0.367,3.654,2.421,3.287,4.599
				C87.744,350.542,86.05,351.933,84.129,351.933z"/>
		</g>
	</g>
	<g>
		<g>
			<path d="M84.122,359.927c-2.209,0-3.997-1.788-3.997-3.998v-7.994c0-2.209,1.788-3.997,3.997-3.997
				c2.209,0,3.997,1.788,3.997,3.997v7.994C88.119,358.139,86.331,359.927,84.122,359.927z"/>
		</g>
	</g>
	<g>
		<g>
			<path d="M148.077,359.927H84.122c-2.209,0-3.997-1.788-3.997-3.998c0-2.209,1.788-3.996,3.997-3.996h63.955
				c2.209,0,3.997,1.787,3.997,3.996C152.074,358.139,150.286,359.927,148.077,359.927z"/>
		</g>
	</g>
	<g>
		<g>
			<path d="M156.079,375.915c-1.468,0-2.881-0.812-3.583-2.209l-7.995-15.989c-0.983-1.975-0.187-4.38,1.788-5.363
				c1.983-0.983,4.372-0.188,5.363,1.788l7.994,15.988c0.992,1.976,0.188,4.38-1.788,5.363
				C157.289,375.774,156.68,375.915,156.079,375.915z"/>
		</g>
	</g>
	<g>
		<g>
			<path d="M371.919,375.915H156.071c-2.209,0-3.997-1.787-3.997-3.997s1.788-3.997,3.997-3.997h215.848
				c2.21,0,3.997,1.787,3.997,3.997S374.129,375.915,371.919,375.915z"/>
		</g>
	</g>
	<g>
		<g>
			<path d="M367.5,359.927c-1.413,0-2.787-0.75-3.513-2.093c-1.054-1.937-0.336-4.356,1.601-5.418l132.328-71.949
				c1.936-1.038,4.372-0.344,5.426,1.608c1.054,1.936,0.336,4.356-1.601,5.418l-132.328,71.949
				C368.804,359.771,368.148,359.927,367.5,359.927z"/>
		</g>
	</g>
	<g>
		<g>
			<path d="M339.949,335.943c-1.288,0-2.553-0.624-3.326-1.78c-1.225-1.826-0.733-4.309,1.094-5.543
				c0.461-0.305,46.193-31.938,46.193-108.595c0-76.915-45.726-108.287-46.186-108.596c-1.835-1.226-2.334-3.704-1.109-5.543
				c1.234-1.838,3.717-2.326,5.543-1.108c2.03,1.354,49.746,34.097,49.746,115.247c0,81.146-47.716,113.888-49.746,115.247
				C341.479,335.725,340.707,335.943,339.949,335.943z"/>
		</g>
	</g>
	<g>
		<g>
			<path d="M100.118,335.943c-1.288,0-2.553-0.624-3.325-1.78c-1.226-1.826-0.734-4.309,1.093-5.543
				c0.468-0.305,46.194-31.938,46.194-108.595c0-76.915-45.726-108.287-46.186-108.596c-1.835-1.226-2.334-3.704-1.108-5.543
				c1.226-1.842,3.7-2.33,5.543-1.108c2.029,1.354,49.746,34.097,49.746,115.247c0,81.146-47.717,113.888-49.746,115.247
				C101.648,335.725,100.883,335.943,100.118,335.943z"/>
		</g>
	</g>
	<g>
		<g>
			<path d="M291.976,56.141h-39.973c-2.209,0-3.997-1.787-3.997-3.997c0-2.209,1.788-3.997,3.997-3.997h39.973
				c2.209,0,3.997,1.788,3.997,3.997C295.973,54.354,294.185,56.141,291.976,56.141z"/>
		</g>
	</g>
	<g>
		<g>
			<path d="M291.976,72.13h-39.973c-2.209,0-3.997-1.788-3.997-3.997c0-2.21,1.788-3.998,3.997-3.998h39.973
				c2.209,0,3.997,1.788,3.997,3.998C295.973,70.342,294.185,72.13,291.976,72.13z"/>
		</g>
	</g>
	<g>
		<g>
			<path d="M347.936,64.135H299.97c-2.21,0-3.997-1.787-3.997-3.997c0-2.209,1.787-3.997,3.997-3.997h47.966
				c2.21,0,3.998,1.788,3.998,3.997C351.934,62.348,350.146,64.135,347.936,64.135z"/>
		</g>
	</g>
	<g>
		<g>
			<path d="M347.936,80.124H283.98c-2.209,0-3.996-1.788-3.996-3.997c0-2.21,1.787-3.997,3.996-3.997h63.955
				c2.21,0,3.998,1.787,3.998,3.997C351.934,78.336,350.146,80.124,347.936,80.124z"/>
		</g>
	</g>
	<g>
		<g>
			<path d="M347.936,80.124c-1.022,0-2.045-0.391-2.826-1.171l-7.994-7.994c-1.562-1.562-1.562-4.092,0-5.652
				c1.562-1.562,4.091-1.562,5.652,0l7.994,7.994c1.562,1.562,1.562,4.091,0,5.652C349.981,79.733,348.959,80.124,347.936,80.124z"
				/>
		</g>
	</g>
	<g>
		<g>
			<path d="M339.941,72.13c-1.093,0-2.178-0.445-2.967-1.315c-1.476-1.636-1.351-4.165,0.289-5.645l8.838-7.995
				c1.615-1.486,4.161-1.358,5.645,0.281c1.475,1.636,1.35,4.165-0.289,5.645l-8.838,7.994
				C341.862,71.79,340.902,72.13,339.941,72.13z"/>
		</g>
	</g>
	<g>
		<g>
			<path d="M339.941,112.102H100.11c-2.209,0-3.997-1.788-3.997-3.997c0-2.21,1.788-3.997,3.997-3.997h239.832
				c2.209,0,3.997,1.787,3.997,3.997C343.938,110.313,342.15,112.102,339.941,112.102z"/>
		</g>
	</g>
	<g>
		<g>
			<path d="M339.941,335.943H100.11c-2.209,0-3.997-1.788-3.997-3.997s1.788-3.997,3.997-3.997h239.832
				c2.209,0,3.997,1.788,3.997,3.997S342.15,335.943,339.941,335.943z"/>
		</g>
	</g>
	<g>
		<g>
			<path d="M244.009,367.921c-2.209,0-3.998-1.788-3.998-3.997V339.94c0-2.209,1.788-3.997,3.998-3.997s3.997,1.788,3.997,3.997
				v23.983C248.006,366.133,246.218,367.921,244.009,367.921z"/>
		</g>
	</g>
	<g>
		<g>
			<path d="M244.009,104.107c-2.209,0-3.998-1.788-3.998-3.998V36.155c0-2.21,1.788-3.997,3.998-3.997s3.997,1.787,3.997,3.997
				v63.954C248.006,102.319,246.218,104.107,244.009,104.107z"/>
		</g>
	</g>
	<g>
		<g>
			<path d="M252.003,96.112h-15.989c-2.209,0-3.997-1.787-3.997-3.997c0-2.209,1.788-3.997,3.997-3.997h15.989
				c2.209,0,3.998,1.788,3.998,3.997C256,94.325,254.212,96.112,252.003,96.112z"/>
		</g>
	</g>
	<g>
		<g>
			<path d="M427.879,383.909c-2.209,0-3.996-1.787-3.996-3.997v-23.976c0-2.209,1.787-3.996,3.996-3.996
				c2.21,0,3.998,1.787,3.998,3.996v23.976C431.877,382.122,430.089,383.909,427.879,383.909z"/>
		</g>
	</g>
	<g>
		<g>
			<path d="M283.98,241.588c-1.373,0-2.717-0.714-3.458-1.994c-1.108-1.913-0.453-4.356,1.46-5.461
				c13.561-7.847,21.984-22.441,21.984-38.091c0-24.244-19.721-43.969-43.969-43.969c-24.242,0-43.97,19.725-43.97,43.969
				c0,15.642,8.424,30.232,21.977,38.075c1.904,1.104,2.561,3.548,1.452,5.461c-1.101,1.908-3.545,2.564-5.457,1.456
				c-16.013-9.264-25.966-26.505-25.966-44.992c0-28.651,23.312-51.963,51.964-51.963c28.651,0,51.963,23.312,51.963,51.963
				c0,18.495-9.953,35.74-25.981,45.008C285.355,241.416,284.66,241.588,283.98,241.588z"/>
		</g>
	</g>
	<g>
		<g>
			<path d="M236.014,256c-2.209,0-3.997-1.788-3.997-3.997v-14.412c0-2.209,1.788-3.997,3.997-3.997
				c2.209,0,3.997,1.788,3.997,3.997v14.412C240.011,254.212,238.224,256,236.014,256z"/>
		</g>
	</g>
	<g>
		<g>
			<path d="M283.98,256h-47.966c-2.209,0-3.997-1.788-3.997-3.997c0-2.21,1.788-3.997,3.997-3.997h47.966
				c2.21,0,3.998,1.787,3.998,3.997C287.979,254.212,286.19,256,283.98,256z"/>
		</g>
	</g>
	<g>
		<g>
			<path d="M283.98,256c-2.209,0-3.996-1.788-3.996-3.997v-14.412c0-2.209,1.787-3.997,3.996-3.997c2.21,0,3.998,1.788,3.998,3.997
				v14.412C287.979,254.212,286.19,256,283.98,256z"/>
		</g>
	</g>
	<g>
		<g>
			<path d="M244.009,200.039c-6.613,0-11.992-5.379-11.992-11.991s5.379-11.991,11.992-11.991c6.612,0,11.992,5.379,11.992,11.991
				S250.621,200.039,244.009,200.039z M244.009,184.051c-2.202,0-3.998,1.792-3.998,3.997s1.796,3.997,3.998,3.997
				c2.209,0,3.997-1.792,3.997-3.997S246.218,184.051,244.009,184.051z"/>
		</g>
	</g>
	<g>
		<g>
			<path d="M275.986,200.039c-6.612,0-11.991-5.379-11.991-11.991s5.379-11.991,11.991-11.991c6.613,0,11.992,5.379,11.992,11.991
				S282.6,200.039,275.986,200.039z M275.986,184.051c-2.201,0-3.997,1.792-3.997,3.997s1.796,3.997,3.997,3.997
				c2.202,0,3.998-1.792,3.998-3.997S278.188,184.051,275.986,184.051z"/>
		</g>
	</g>
	<g>
		<g>
			<path d="M252.003,224.022c-1.023,0-2.045-0.391-2.826-1.171c-1.562-1.562-1.562-4.095,0-5.652l7.995-7.986
				c1.562-1.562,4.091-1.562,5.652,0c1.569,1.562,1.562,4.095,0,5.652l-7.995,7.986
				C254.048,223.632,253.026,224.022,252.003,224.022z"/>
		</g>
	</g>
	<g>
		<g>
			<path d="M267.992,224.022c-1.022,0-2.045-0.391-2.826-1.171l-7.994-7.986c-1.562-1.562-1.562-4.091,0-5.652
				c1.562-1.562,4.091-1.562,5.652,0l7.994,7.986c1.562,1.562,1.562,4.091,0,5.652C270.037,223.632,269.015,224.022,267.992,224.022
				z"/>
		</g>
	</g>
	<g>
		<g>
			<path d="M252.003,256c-2.209,0-3.997-1.788-3.997-3.997v-3.997c0-2.21,1.788-3.997,3.997-3.997s3.998,1.787,3.998,3.997v3.997
				C256,254.212,254.212,256,252.003,256z"/>
		</g>
	</g>
	<g>
		<g>
			<path d="M267.992,256c-2.209,0-3.997-1.788-3.997-3.997v-3.997c0-2.21,1.788-3.997,3.997-3.997s3.997,1.787,3.997,3.997v3.997
				C271.989,254.212,270.201,256,267.992,256z"/>
		</g>
	</g>
	<g>
		<g>
			<path d="M507.823,295.972c-1.022,0-2.046-0.391-2.826-1.171l-7.994-7.995c-1.562-1.561-1.562-4.09,0-5.652
				c1.562-1.561,4.091-1.561,5.651,0l7.995,7.995c1.562,1.562,1.562,4.091,0,5.652C509.868,295.581,508.846,295.972,507.823,295.972
				z"/>
		</g>
	</g>
	<g>
		<g>
			<path d="M323.953,296.768c-0.32,0-0.641-0.039-0.969-0.124l-127.91-31.979c-2.14-0.53-3.443-2.701-2.904-4.84
				c0.531-2.146,2.686-3.466,4.84-2.908l127.911,31.981c2.147,0.53,3.442,2.701,2.912,4.841
				C327.38,295.558,325.748,296.768,323.953,296.768z"/>
		</g>
	</g>
	<g>
		<g>
			<path d="M196.042,296.768c-1.796,0-3.419-1.21-3.872-3.028c-0.539-2.14,0.765-4.311,2.904-4.841l127.91-31.981
				c2.093-0.565,4.31,0.766,4.849,2.908c0.53,2.139-0.765,4.31-2.912,4.84L197.01,296.644
				C196.69,296.729,196.363,296.768,196.042,296.768z"/>
		</g>
	</g>
</g>
</svg>
