<svg xmlns="http://www.w3.org/2000/svg" viewBox="0 0 64 64"><title>30-aroma</title><g id="_30-aroma" data-name="30-aroma"><path d="M9.161,48.937A3.972,3.972,0,0,0,9,50v.85c1.62.83,3,1.9,3,3.15h4V52H12C12,50.792,10.709,49.755,9.161,48.937Z" style="fill:#9196aa"/><path d="M48,47s-8,2-8,5H36c0-3-4-5-4-5s-4,2-4,5H24c0-3-8-5-8-5v2s8,2,8,5h4c0-3,4-5,4-5s4,2,4,5h4c0-3,8-5,8-5Z" style="fill:#9196aa"/><path d="M52,52H48v2h4c0-1.25,1.38-2.32,3-3.15V50a3.972,3.972,0,0,0-.161-1.063C53.291,49.755,52,50.792,52,52Z" style="fill:#9196aa"/><polygon points="58 58 58 63 6 63 6 58 10 58 18 58 22 58 30 58 34 58 42 58 46 58 54 58 58 58" style="fill:#afb4c8"/><path d="M54,58H46a4.333,4.333,0,0,0,2-4h4A4.333,4.333,0,0,0,54,58Z" style="fill:#7e8596"/><path d="M42,58H34a4.333,4.333,0,0,0,2-4h4A4.333,4.333,0,0,0,42,58Z" style="fill:#7e8596"/><path d="M30,58H22a4.333,4.333,0,0,0,2-4h4A4.333,4.333,0,0,0,30,58Z" style="fill:#7e8596"/><path d="M18,58H10a4.333,4.333,0,0,0,2-4h4A4.333,4.333,0,0,0,18,58Z" style="fill:#7e8596"/><path d="M55,50.85A26.786,26.786,0,0,1,60,49v5a4.333,4.333,0,0,1-2,4H54a4.333,4.333,0,0,1-2-4C52,52.75,53.38,51.68,55,50.85Z" style="fill:#ff73a5"/><path d="M48,49v5a4.333,4.333,0,0,1-2,4H42a4.333,4.333,0,0,1-2-4C40,51,48,49,48,49Z" style="fill:#ff73a5"/><path d="M36,54a4.333,4.333,0,0,1-2,4H30a4.333,4.333,0,0,1-2-4c0-3,4-5,4-5S36,51,36,54Z" style="fill:#ff73a5"/><path d="M24,54a4.333,4.333,0,0,1-2,4H18a4.333,4.333,0,0,1-2-4V49S24,51,24,54Z" style="fill:#ff73a5"/><path d="M9,50.85c1.62.83,3,1.9,3,3.15a4.333,4.333,0,0,1-2,4H6a4.333,4.333,0,0,1-2-4V49A26.786,26.786,0,0,1,9,50.85Z" style="fill:#ff73a5"/><path d="M55,50.85c-1.62.83-3,1.9-3,3.15a5.436,5.436,0,0,0,.339,1.949A6.794,6.794,0,0,1,55,53.85,26.786,26.786,0,0,1,60,52V49A26.786,26.786,0,0,0,55,50.85Z" style="fill:#ff8fb8"/><path d="M40,54a5.424,5.424,0,0,0,.336,1.941C41.849,53.539,48,52,48,52V49S40,51,40,54Z" style="fill:#ff8fb8"/><path d="M32,52s2.859,1.437,3.739,3.7A5.481,5.481,0,0,0,36,54c0-3-4-5-4-5s-4,2-4,5a5.481,5.481,0,0,0,.261,1.7C29.141,53.437,32,52,32,52Z" style="fill:#ff8fb8"/><path d="M23.664,55.941A5.424,5.424,0,0,0,24,54c0-3-8-5-8-5v3S22.151,53.539,23.664,55.941Z" style="fill:#ff8fb8"/><path d="M11.661,55.949A5.436,5.436,0,0,0,12,54c0-1.25-1.38-2.32-3-3.15A26.786,26.786,0,0,0,4,49v3a26.786,26.786,0,0,1,5,1.85A6.794,6.794,0,0,1,11.661,55.949Z" style="fill:#ff8fb8"/><polygon points="16.78 5 17.89 9.93 12.11 11.29 11 6.37 16.78 5" style="fill:#ff7045"/><rect x="29" y="1" width="6" height="5" style="fill:#ff7045"/><polygon points="53 6.37 51.89 11.29 46.11 9.93 47.22 5 53 6.37" style="fill:#ff7045"/><polygon points="17.89 9.93 25 41.47 22.11 42.16 19.22 42.84 12.11 11.29 17.89 9.93" style="fill:#ffa426"/><polygon points="51.89 11.29 44.78 42.84 41.89 42.16 39 41.47 46.11 9.93 51.89 11.29" style="fill:#ffa426"/><polygon points="35 6 35 38 32 38 29 38 29 6 35 6" style="fill:#ffa426"/><rect x="32" y="1" width="3" height="5" style="fill:#f05e3a"/><polygon points="35 6 35 38 33.5 38 32 38 32 6 35 6" style="fill:#ff9500"/><rect x="31" y="38" width="2" height="8" style="fill:#7e8596"/><polygon points="41.995 46.221 40 46 40.914 41.939 42.865 42.381 41.995 46.221" style="fill:#7e8596"/><polygon points="22.005 46.221 21.135 42.381 23.086 41.939 24 46 22.005 46.221" style="fill:#7e8596"/><path d="M32,49s-4,2-4,5H24c0-3-8-5-8-5v5H12c0-1.25-1.38-2.32-3-3.15V50a4,4,0,0,1,4-4H51a4,4,0,0,1,4,4v.85c-1.62.83-3,1.9-3,3.15H48V49s-8,2-8,5H36C36,51,32,49,32,49Z" style="fill:#afb4c8"/><path d="M34.447,58.9l-.894-1.79L34,58l-.46-.888A3.392,3.392,0,0,0,35,54c0-1.807-2.075-3.282-3.006-3.852C30.871,50.829,29,52.316,29,54a3.392,3.392,0,0,0,1.46,3.112L29.553,58.9A5.316,5.316,0,0,1,27,54c0-3.577,4.367-5.8,4.553-5.9a1,1,0,0,1,.894,0C32.633,48.2,37,50.423,37,54A5.316,5.316,0,0,1,34.447,58.9Z"/><path d="M46.447,58.9l-.894-1.79L46,58l-.46-.888A3.392,3.392,0,0,0,47,54V50.321c-2.824.882-6,2.424-6,3.679a3.392,3.392,0,0,0,1.46,3.112L41.553,58.9A5.316,5.316,0,0,1,39,54c0-3.6,7.3-5.6,8.758-5.97A1,1,0,0,1,49,49v5A5.316,5.316,0,0,1,46.447,58.9Z"/><path d="M58,59H6a1,1,0,0,1-.447-.1A5.316,5.316,0,0,1,3,54V49a1,1,0,0,1,1.241-.971,27.609,27.609,0,0,1,5.217,1.932C11.841,51.182,13,52.5,13,54a6.114,6.114,0,0,1-.72,3H51.72A6.1,6.1,0,0,1,51,54c0-1.5,1.159-2.818,3.544-4.04a27.6,27.6,0,0,1,5.215-1.931A1,1,0,0,1,61,49v5a5.316,5.316,0,0,1-2.553,4.9A1,1,0,0,1,58,59Zm-3.71-2h3.423A3.563,3.563,0,0,0,59,54V50.329a23.31,23.31,0,0,0-3.542,1.409C53.9,52.539,53,53.363,53,54A3.558,3.558,0,0,0,54.29,57Zm-48,0H9.71A3.558,3.558,0,0,0,11,54c0-.637-.9-1.461-2.456-2.261A23.316,23.316,0,0,0,5,50.329V54A3.558,3.558,0,0,0,6.29,57Z"/><path d="M22.447,58.9l-.894-1.79A3.4,3.4,0,0,0,23,54c0-1.255-3.176-2.8-6-3.679V54a3.392,3.392,0,0,0,1.46,3.112L17.553,58.9A5.316,5.316,0,0,1,15,54V49a1,1,0,0,1,1.242-.97C17.7,48.4,25,50.4,25,54A5.316,5.316,0,0,1,22.447,58.9Z"/><rect x="12" y="53" width="4" height="2"/><rect x="24" y="53" width="4" height="2"/><rect x="36" y="53" width="4" height="2"/><rect x="48" y="53" width="4" height="2"/><path d="M56,51H54V50a3,3,0,0,0-3-3H13a3,3,0,0,0-3,3v1H8V50a5.006,5.006,0,0,1,5-5H51a5.006,5.006,0,0,1,5,5Z"/><path d="M58,64H6a1,1,0,0,1-1-1V58H7v4H57V58h2v5A1,1,0,0,1,58,64Z"/><path d="M35,39H29a1,1,0,0,1-1-1V1a1,1,0,0,1,1-1h6a1,1,0,0,1,1,1V38A1,1,0,0,1,35,39Zm-5-2h4V2H30Z"/><rect x="29" y="5" width="6" height="2"/><rect x="31" y="38" width="2" height="8"/><path d="M44.78,43.84a.98.98,0,0,1-.228-.027l-5.784-1.371a1,1,0,0,1-.744-1.192l8.22-36.47a1,1,0,0,1,1.206-.753L53.23,5.4a1,1,0,0,1,.746,1.193l-8.22,36.47a1,1,0,0,1-.976.78Zm-4.588-3.113,3.834.909L50.914,11.07h0l.893-3.955-3.833-.909Z"/><rect x="48" y="7.641" width="2.001" height="5.937" transform="translate(27.445 55.875) rotate(-76.755)"/><polygon points="41.981 46.292 40.019 45.907 40.038 45.808 40.914 41.939 42.865 42.381 41.981 46.292"/><path d="M19.22,43.84a1,1,0,0,1-.976-.78L10.024,6.59A1,1,0,0,1,10.77,5.4l5.78-1.37a1,1,0,0,1,1.206.753l8.22,36.47a1,1,0,0,1-.744,1.192l-5.784,1.371A.98.98,0,0,1,19.22,43.84ZM12.193,7.115l.893,3.955h0l6.888,30.566,3.834-.909L16.026,6.206Z"/><rect x="12.031" y="9.61" width="5.937" height="2.001" transform="translate(-2.034 3.724) rotate(-13.263)"/><polygon points="22.022 46.303 21.135 42.381 23.086 41.939 23.956 45.779 23.978 45.877 22.022 46.303"/></g></svg>