<svg xmlns="http://www.w3.org/2000/svg" viewBox="0 0 64 64"><g id="Layer_2" data-name="Layer 2"><path d="M49,22h0a5,5,0,0,1-5,5H39v8h7A13,13,0,0,0,59,22h0a5,5,0,0,0-5-5h0A5,5,0,0,0,49,22Z" style="fill:#629955"/><path d="M15,26h0a5,5,0,0,0,5,5h5v8H18A13,13,0,0,1,5,26H5a5,5,0,0,1,5-5h0A5,5,0,0,1,15,26Z" style="fill:#629955"/><path d="M20.1,31l.255,2.459a2.011,2.011,0,0,1-2.5,2.144A12.99,12.99,0,0,1,8,23a4.947,4.947,0,0,1,.313-1.687A4.986,4.986,0,0,0,5,26,13,13,0,0,0,18,39h7V31Z" style="fill:#508c3f"/><path d="M58.854,20.848A12.992,12.992,0,0,1,46,32h0a2.364,2.364,0,0,1-2.351-2.607L43.9,27H39v8h7A13,13,0,0,0,59,22,4.972,4.972,0,0,0,58.854,20.848Z" style="fill:#508c3f"/><path d="M32,1h0A11.724,11.724,0,0,0,20.338,13.931L25,59H39l4.662-45.069A11.724,11.724,0,0,0,32,1Z" style="fill:#85b27c"/><path d="M36.29,5a1,1,0,0,1-.441-.1,8.668,8.668,0,0,0-2.055-.709,1,1,0,1,1,.412-1.958,10.706,10.706,0,0,1,2.526.873A1,1,0,0,1,36.29,5Z" style="fill:#fff"/><path d="M39.31,56A12.541,12.541,0,0,1,26.836,44.75l-3.5-33.819a11.645,11.645,0,0,1,2.018-7.854,11.7,11.7,0,0,0-5.018,10.854L25,59H39l.31-3Z" style="fill:#699b5d"/><path d="M11,59H53a2,2,0,0,1,2,2v2a0,0,0,0,1,0,0H9a0,0,0,0,1,0,0V61A2,2,0,0,1,11,59Z" style="fill:#c67a60"/><path d="M14,59H11a2,2,0,0,0-2,2v2h3V61A2,2,0,0,1,14,59Z" style="fill:#b26049"/><circle cx="10" cy="18" r="3" style="fill:#ff938d"/><path d="M10,15a3,3,0,1,0,3,3A3,3,0,0,1,10,15Z" style="fill:#f27875"/><circle cx="54" cy="14" r="3" style="fill:#ff938d"/><path d="M54,11a3,3,0,1,0,3,3A3,3,0,0,1,54,11Z" style="fill:#f27875"/><path d="M61,23H59.949c.024-.332.051-.662.051-1a6,6,0,0,0-3.107-5.253,4,4,0,1,0-5.786,0A6,6,0,0,0,48,22a4,4,0,0,1-4,4h-.581l.207-2H46a1,1,0,0,0,0-2H43.833l.414-4H46a1,1,0,0,0,0-2H44.454l.2-1.967A12.559,12.559,0,0,0,44.686,12H46a1,1,0,0,0,0-2H44.425a12.754,12.754,0,0,0-1.642-4H44a1,1,0,0,0,0-2H41.246a12.7,12.7,0,0,0-18.7.2A12.593,12.593,0,0,0,21.217,6H18a1,1,0,0,0,0,2h2.2a12.7,12.7,0,0,0-.89,4H18a1,1,0,0,0,0,2h1.341c0,.011,0,.022,0,.033L19.753,18H18a1,1,0,0,0,0,2h1.96l.414,4H18a1,1,0,0,0,0,2h2.581l.413,4H20a4,4,0,0,1-4-4,6,6,0,0,0-3.107-5.253,4,4,0,1,0-5.786,0A6,6,0,0,0,4,26a13.893,13.893,0,0,0,1.37,6H5a1,1,0,0,0,0,2H6.527A13.986,13.986,0,0,0,18,40h1a1,1,0,0,0,0-2H18a11.961,11.961,0,0,1-8.919-4H10a1,1,0,0,0,0-2H7.623A11.91,11.91,0,0,1,6,26a4,4,0,0,1,8,0,6.006,6.006,0,0,0,6,6h1.2l1.242,12H21a1,1,0,0,0,0,2h1.65l.413,4H22a1,1,0,0,0,0,2h1.27l.621,6H11a3,3,0,0,0-3,3v2a1,1,0,0,0,1,1H55a1,1,0,0,0,1-1V61a3,3,0,0,0-3-3H40.109l.414-4H42a1,1,0,0,0,0-2H40.73l.414-4H43a1,1,0,0,0,0-2H41.35l.414-4H44a1,1,0,0,0,0-2H41.971l1.241-12H44a6.006,6.006,0,0,0,6-6,4,4,0,0,1,8,0c0,.338-.023.669-.051,1H56a1,1,0,0,0,0,2h1.6A12.009,12.009,0,0,1,46,34H45a1,1,0,0,0,0,2h1A14.018,14.018,0,0,0,59.668,25H61a1,1,0,0,0,0-2ZM8,18a2,2,0,1,1,2,2A2,2,0,0,1,8,18ZM54,61v1H10V61a1,1,0,0,1,1-1H53A1,1,0,0,1,54,61ZM39,42h.753l-.414,4H38a1,1,0,0,0,0,2h1.132l-.414,4H37a1,1,0,0,0,0,2h1.511L38.1,58H25.9l-.62-6H27a1,1,0,0,0,0-2H25.075l-.414-4H26a1,1,0,0,0,0-2H24.454L22.592,26H23a1,1,0,0,0,0-2h-.615l-.414-4H23a1,1,0,0,0,0-2H21.765l-.414-4H23a1,1,0,0,0,0-2H21.315a10.731,10.731,0,0,1,1.074-4H23a1,1,0,0,0,1-1,.983.983,0,0,0-.473-.829c.164-.213.327-.428.509-.629A10.7,10.7,0,0,1,38.462,4.178.984.984,0,0,0,38,5a1,1,0,0,0,1,1h1.335a10.714,10.714,0,0,1,2.021,4H41a1,1,0,0,0,0,2h1.685a10.635,10.635,0,0,1-.018,1.828L42.442,16H41a1,1,0,0,0,0,2h1.235l-.413,4H41a1,1,0,0,0,0,2h.615L39.96,40H39a1,1,0,0,0,0,2ZM52,14a2,2,0,1,1,2,2A2,2,0,0,1,52,14Z"/><path d="M34,8H30a1,1,0,0,0,0,2h4a1,1,0,0,0,0-2Z"/><path d="M34,21H30a1,1,0,0,0,0,2h4a1,1,0,0,0,0-2Z"/><path d="M34,34H30a1,1,0,0,0,0,2h4a1,1,0,0,0,0-2Z"/><path d="M34,47H30a1,1,0,0,0,0,2h4a1,1,0,0,0,0-2Z"/></g></svg>