<svg xmlns="http://www.w3.org/2000/svg" viewBox="0 0 64 64"><g id="_30-Fishing" data-name="30-Fishing"><path d="M48.8,41.57a2.049,2.049,0,0,1,.99.77A48.315,48.315,0,0,0,45.59,51h-.33l3.2-9.55Z" style="fill:#6293b1"/><polygon points="45.78 40.49 59 1 62 1 48.46 41.45 45.26 51 42.26 51 42.96 48.89 45.78 40.49" style="fill:#6d805f"/><polygon points="51.52 58 52 63 48.67 58 51.52 58" style="fill:#ebb28d"/><path d="M48.67,58,52,63H45V59a1,1,0,0,0,1-1V54Z" style="fill:#f6ddc9"/><path d="M50.12,43.27,51.52,58H48.67L46,54V51h-.41a48.315,48.315,0,0,1,4.2-8.66A2,2,0,0,1,50.12,43.27Z" style="fill:#edece7"/><path d="M44,14.52c-.96.06-1.98.12-3,.18-2.88.17-5.83.3-8,.3H31c-2.17,0-5.12-.13-8-.3-1.02-.06-2.04-.12-3-.18-3.87-.26-7-.52-7-.52l9-4s3,1,10,1,10-1,10-1l9,4S47.87,14.26,44,14.52Z" style="fill:#ebb28d"/><path d="M46,54v4a1,1,0,0,1-1,1H40a2.048,2.048,0,0,1-.56-.08A2.019,2.019,0,0,1,38,57V54.32a1.975,1.975,0,0,1,.1-.63L39,51h7Z" style="fill:#f6ddc9"/><path d="M45.78,40.49l-2.82,8.4-.56-1.7a1.745,1.745,0,0,0-3.4.55V48a4.38,4.38,0,0,0,1,3H39l-.9,2.69a1.975,1.975,0,0,0-.1.63V56H36v7H32V53c4.39-5.27,7.24-12.86,7.87-14.62Z" style="fill:#6293b1"/><path d="M36,32.08a9.156,9.156,0,0,1-8,0A9.045,9.045,0,0,1,23,26l-1.66-1.11A2.993,2.993,0,0,1,20,22.39V21a2.006,2.006,0,0,1,2-2h1V14.7c2.88.17,5.83.3,8,.3h2c2.17,0,5.12-.13,8-.3V19h1a2.006,2.006,0,0,1,2,2v1.39a2.993,2.993,0,0,1-1.34,2.5L41,26A9.045,9.045,0,0,1,36,32.08ZM35,27H29a3,3,0,0,0,6,0Z" style="fill:#f6ddc9"/><path d="M44,14.52V21a2.006,2.006,0,0,0-2-2H41V14.7C42.02,14.64,43.04,14.58,44,14.52Z" style="fill:#475163"/><path d="M42.4,47.19l.56,1.7L42.26,51H40a4.38,4.38,0,0,1-1-3v-.26a1.745,1.745,0,0,1,3.4-.55Z" style="fill:#f6ddc9"/><path d="M42.42,59,41,63H38l1.42-4,.02-.08A2.048,2.048,0,0,0,40,59Z" style="fill:#6d805f"/><path d="M42,7v3s-3,1-10,1-10-1-10-1V7s3,1,10,1S42,7,42,7Z" style="fill:#7e9066"/><path d="M40.63,3.2,42,7S39,8,32,8,22,7,22,7l1.37-3.8A3.042,3.042,0,0,1,26.29,1h2.99a3.055,3.055,0,0,1,1.36.32A2.985,2.985,0,0,0,32,1.64a2.985,2.985,0,0,0,1.36-.32A3.055,3.055,0,0,1,34.72,1h2.99A3.042,3.042,0,0,1,40.63,3.2Z" style="fill:#ebb28d"/><path d="M36,37l3.87,1.38C39.24,40.14,36.39,47.73,32,53c-4.39-5.27-7.24-12.86-7.87-14.62L28,37s0,2,4,2S36,37,36,37Z" style="fill:#edece7"/><path d="M33.659,47.806a2.012,2.012,0,0,1-3.318,0,54.378,54.378,0,0,1-5.188-9.791l-1.023.365C24.76,40.14,27.61,47.73,32,53c4.39-5.27,7.24-12.86,7.87-14.62l-1.023-.365A54.378,54.378,0,0,1,33.659,47.806Z" style="fill:#dddcd7"/><path d="M36,58V56h2v1a2.019,2.019,0,0,0,1.44,1.92l-.02.08L38,63H36Z" style="fill:#dddcd7"/><path d="M36,32.08V37s0,2-4,2-4-2-4-2V32.08a9.156,9.156,0,0,0,8,0Z" style="fill:#f6ddc9"/><path d="M29,27h6a3,3,0,0,1-6,0Z" style="fill:#dfa985"/><path d="M32,53V63H28V56H22v7H19V54c0-3.5-3.83-10.06-4.79-11.65a1.968,1.968,0,0,1,.99-.78l8.93-3.19C24.76,40.14,27.61,47.73,32,53Z" style="fill:#6293b1"/><path d="M28,58v5H22V58a1,1,0,0,0,1,1h4A1,1,0,0,0,28,58Z" style="fill:#dddcd7"/><path d="M28,57v1a1,1,0,0,1-1,1H23a1,1,0,0,1-1-1V56h6Z" style="fill:#6d805f"/><path d="M38,57V56H36v2a1,1,0,0,0,1,1h2.42l.02-.08A2.019,2.019,0,0,1,38,57Z" style="fill:#6d805f"/><path d="M23,14.7V19H22a2.006,2.006,0,0,0-2,2V14.52C20.96,14.58,21.98,14.64,23,14.7Z" style="fill:#475163"/><path d="M33,15H31c-2.17,0-5.12-.13-8-.3v2.057c2.551.141,5.081.243,7,.243h2c2.17,0,5.12-.13,8-.3l1-.059V14.7C38.12,14.87,35.17,15,33,15Z" style="fill:#eb9f87"/><path d="M41,14.7v1.941c.681-.04,1.355-.081,2-.121l1-.068V14.52C43.04,14.58,42.02,14.64,41,14.7Z" style="fill:#2a2e37"/><path d="M23,16.757V14.7c-1.02-.06-2.04-.12-3-.18v2.061l2,.119C22.333,16.72,22.667,16.739,23,16.757Z" style="fill:#2a2e37"/><polygon points="19 58 19 63 12 63 12.48 58 19 58" style="fill:#f6ddc9"/><path d="M19,54v4H12.48l1.4-14.73a1.86,1.86,0,0,1,.33-.92C15.17,43.94,19,50.5,19,54Z" style="fill:#edece7"/><path d="M29,27h6a3,3,0,0,1-6,0Z" style="fill:#eb9f87"/><ellipse cx="36.5" cy="20.5" rx="1" ry="2" style="fill:#43251a"/><ellipse cx="27.5" cy="20.5" rx="1" ry="2" style="fill:#43251a"/><ellipse cx="32" cy="23" rx="0.5" ry="1" style="fill:#bf8762"/><path d="M34.4,16.987a.32.32,0,0,1-.042.01c-.2.036-.353-.282-.353-.5,0-.061.023-1.5,2-1.5s2,1.439,2,1.5a.528.528,0,0,1-.225.45c-.145.089-.287.006-.4-.13-.055-.068-.1-.152-.157-.216a.761.761,0,0,0-.2-.142,2.943,2.943,0,0,0-.553-.251,1.6,1.6,0,0,0-1.486.327A2.117,2.117,0,0,1,34.4,16.987Z" style="fill:#43251a"/><path d="M29.605,16.987a.32.32,0,0,0,.042.01c.2.036.353-.282.353-.5,0-.061-.023-1.5-2-1.5s-2,1.439-2,1.5a.528.528,0,0,0,.225.45c.145.089.287.006.4-.13.055-.068.1-.152.157-.216a.761.761,0,0,1,.2-.142,2.943,2.943,0,0,1,.553-.251,1.6,1.6,0,0,1,1.486.327A2.117,2.117,0,0,0,29.605,16.987Z" style="fill:#43251a"/><path d="M26,29a3,3,0,1,0-3-3,8.4,8.4,0,0,0,.678,1.878A2.981,2.981,0,0,0,26,29Z" style="fill:#fca27d"/><path d="M38,23a3,3,0,1,0,2.313,4.889A8.514,8.514,0,0,0,41,26,3,3,0,0,0,38,23Z" style="fill:#fca27d"/><path d="M19,58H12.48l-.1,1H15a2,2,0,0,1,2,2v2h2Z" style="fill:#efc1aa"/><path d="M14.21,42.35a1.86,1.86,0,0,0-.33.92l-.253,2.659,2.87,5.165a4,4,0,0,1,.5,1.942V58h2V54C19,50.5,15.17,43.94,14.21,42.35Z" style="fill:#c9c6c8"/><path d="M47,58.586V55.5L46,54v4a1,1,0,0,1-1,1v4h4l-2.293-2.293a1,1,0,0,1,0-1.414h0A1,1,0,0,0,47,58.586Z" style="fill:#efb99e"/><path d="M44,58H42a2,2,0,0,1-2-2V54l1-3H39l-.9,2.69a1.975,1.975,0,0,0-.1.63V57a2.019,2.019,0,0,0,1.44,1.92A2.048,2.048,0,0,0,40,59h5a1,1,0,0,0,1-1V56A2,2,0,0,1,44,58Z" style="fill:#efc1aa"/><path d="M42.4,48.808a1.743,1.743,0,0,1-3.359-.193A4.188,4.188,0,0,0,40,51h2.26l.7-2.11L42.667,48Z" style="fill:#ebb28d"/><rect x="23" y="59" width="4" height="4" style="fill:#c9c6c8"/><path d="M27,59H23a1,1,0,0,1-1-1v1a1,1,0,0,0,1,1h4a1,1,0,0,0,1-1V58A1,1,0,0,1,27,59Z" style="fill:#a6a0a1"/><path d="M27,58H23a1,1,0,0,1-1-1v1a1,1,0,0,0,1,1h4a1,1,0,0,0,1-1V57A1,1,0,0,1,27,58Z" style="fill:#55634a"/><path d="M37,59a1,1,0,0,1-1-1v1a1,1,0,0,0,1,1h2.065l.355-1Z" style="fill:#a6a0a1"/><path d="M37,59h2.42l.02-.08A2.04,2.04,0,0,1,38.277,58H37a1,1,0,0,1-1-1v1A1,1,0,0,0,37,59Z" style="fill:#55634a"/><path d="M40.677,60h1.388l.355-1H40a2.048,2.048,0,0,1-.56-.08l-.02.08L38,63h.8l.949-2.371A1,1,0,0,1,40.677,60Z" style="fill:#55634a"/><polygon points="41 63 42 63 42 60.183 41 63" style="fill:#a6a0a1"/><polygon points="45 59 42.42 59 42 60.183 42 63 45 63 45 59" style="fill:#3a73a0"/><path d="M35,58a3,3,0,0,1-3,3v2h4V56H35Z" style="fill:#3a73a0"/><rect x="28" y="61" width="4" height="2" style="fill:#3a73a0"/><path d="M21,56v4.816A2.99,2.99,0,0,1,19,58v5h3V56Z" style="fill:#3a73a0"/><rect x="22" y="56" width="6" height="1" style="fill:#7e9066"/><rect x="36" y="56" width="2" height="1" style="fill:#7e9066"/><path d="M50.222,44.343l-.1-1.073a2,2,0,0,0-.33-.93A48.315,48.315,0,0,0,45.59,51H46v3l1,1.5V51A45.663,45.663,0,0,1,50.222,44.343Z" style="fill:#c9c6c8"/><polygon points="12.48 58 19 58 19 57 12.575 57 12.48 58" style="fill:#3a73a0"/><polygon points="48.003 57 48.67 58 51.52 58 51.425 57 48.003 57" style="fill:#3a73a0"/><rect x="17" y="57" width="2" height="1" style="fill:#295070"/><polygon points="60.333 1 59 1 45.78 40.49 42.96 48.89 42.26 51 45.26 51 45.595 50 44 50 60.333 1" style="fill:#55634a"/><path d="M36,32.08a9.156,9.156,0,0,1-8,0V37a1.039,1.039,0,0,0,.019.145L36,33.462Z" style="fill:#eb9f87"/><path d="M40,7.438V8.2a.993.993,0,0,1-.787.977A37.032,37.032,0,0,1,32,10a37.032,37.032,0,0,1-7.213-.823A.993.993,0,0,1,24,8.2V7.438A15.129,15.129,0,0,1,22,7v3s3,1,10,1,10-1,10-1V7A15.129,15.129,0,0,1,40,7.438Z" style="fill:#55634a"/><path d="M48.787,13.016C47.113,13.143,35.7,14,32,14a49.64,49.64,0,0,1-5.12-.338A1.994,1.994,0,0,1,25.4,10.639,19.909,19.909,0,0,1,22,10l-9,4s3.13.26,7,.52c.96.06,1.98.12,3,.18,2.88.17,5.83.3,8,.3h2c2.17,0,5.12-.13,8-.3,1.02-.06,2.04-.12,3-.18,3.87-.26,7-.52,7-.52Z" style="fill:#b8896f"/><path d="M28.834,6.693A2.868,2.868,0,0,1,29.311,1c-.01,0-.021,0-.031,0H26.29a3.042,3.042,0,0,0-2.92,2.2L22,7s3,1,10,1S42,7,42,7l-.338-.936A58.239,58.239,0,0,1,32,7,18.279,18.279,0,0,1,28.834,6.693Z" style="fill:#b8896f"/><rect x="1" y="57" width="4" height="6" rx="2" style="fill:#993c35"/><path d="M32,30a2.938,2.938,0,0,0,3-3H29A2.938,2.938,0,0,0,32,30Z" style="fill:none"/><path d="M1,60v1a2,2,0,0,0,4,0V60Z" style="fill:#edece7"/><path d="M2,59V58a1.974,1.974,0,0,1,.181-.819A2,2,0,0,0,1,59v1H2Z" style="fill:#672e25"/><path d="M2,60H1v1a2,2,0,0,0,3.819.819A1.974,1.974,0,0,1,4,62,2.006,2.006,0,0,1,2,60Z" style="fill:#c9c6c8"/><path d="M58.5,49c-3.75,0-4.5,4-4.5,4a10.276,10.276,0,0,1,4.5-1.333A1.343,1.343,0,1,0,58.5,49Z" style="fill:#6293b1"/><path d="M8,31c5,0,6,6,6,6a12.677,12.677,0,0,0-6-2,2,2,0,0,1,0-4Z" style="fill:#6293b1"/><path d="M2.5,17C6.25,17,7,21,7,21a10.276,10.276,0,0,0-4.5-1.333A1.343,1.343,0,1,1,2.5,17Z" style="fill:#6293b1"/><path d="M28,55H22a1,1,0,0,0-1,1v7h2V60h4v3h2V56A1,1,0,0,0,28,55Zm-1,3H23V57h4Z"/><ellipse cx="36.5" cy="20.5" rx="1.5" ry="2.5"/><ellipse cx="27.5" cy="20.5" rx="1.5" ry="2.5"/><path d="M36,27a1,1,0,0,0-1-1H29a1,1,0,0,0-1,1,4,4,0,0,0,8,0Zm-5.775,1h3.55A1.785,1.785,0,0,1,32,29,1.785,1.785,0,0,1,30.225,28Z"/><path d="M63,0H59a1,1,0,0,0-.948.683L46.972,33.771c-.927-.5-1.9-1.055-2.922-1.636-.819-.467-1.671-.952-2.561-1.447l-.97,1.749c.882.49,1.728.972,2.541,1.435,1.139.65,2.231,1.271,3.268,1.825l-1.176,3.51L37,36.3V32.708a10,10,0,0,0,4.876-6.091l1.343-.894A3.993,3.993,0,0,0,45,22.4V15.451c3.4-.232,6.027-.45,6.083-.455a1,1,0,0,0,.323-1.91L43,9.35V7h-.009a.985.985,0,0,0-.051-.34L41.591,2.928A4.055,4.055,0,0,0,37.709,0H34.717a4.057,4.057,0,0,0-1.806.426,2.048,2.048,0,0,1-1.822,0A4.057,4.057,0,0,0,29.283,0H26.291A4.031,4.031,0,0,0,22.43,2.863l-1.37,3.8a.985.985,0,0,0-.051.34H21V9.35l-8.406,3.736A1,1,0,0,0,12.917,15c.056,0,2.686.223,6.083.455V22.4a3.993,3.993,0,0,0,1.781,3.328l1.343.894A10,10,0,0,0,27,32.708V36.3L14.861,40.631a3.009,3.009,0,0,0-1.976,2.54l-.077.8a5.287,5.287,0,0,0-1.336-2.838A4.03,4.03,0,0,0,8.5,40H8c-5.795,0-6-5.389-6-6V32.009c0-.286.268-7.009,13-7.009.982,0,1.97.032,2.936.095l.128-2C17.057,23.033,16.025,23,15,23,.171,23,0,31.633,0,32v2c0,2.767,1.672,8,8,8h.5a2.088,2.088,0,0,1,1.557.547C11,43.494,11,45.6,11,46.855V48c0,2.091-1.764,5-3.5,5H6a4,4,0,0,0-3.906,3.155A2.994,2.994,0,0,0,0,59v2a3,3,0,0,0,6,0V59a3,3,0,0,0-1.846-2.768A2,2,0,0,1,6,55H8a1,1,0,0,0,.517-.144,6.313,6.313,0,0,0,3.578-3.4l-1.09,11.448L13,63.1,13.385,59H18v4h2V54c0-3.376-3.129-9.1-4.512-11.463.016-.006.029-.018.045-.023l8-2.858A52.928,52.928,0,0,0,31,53.358V63h2V53.358a52.9,52.9,0,0,0,7.465-13.7L44.517,41.1l-1.646,4.918A2.738,2.738,0,0,0,38,47.743V48a6.142,6.142,0,0,0,.392,2.211,1,1,0,0,0-.34.473l-.9,2.691a2.994,2.994,0,0,0-.154.949V57a2.991,2.991,0,0,0,1.217,2.4l-1.159,3.267A1,1,0,0,0,38,64h3a1,1,0,0,0,.942-.666L43.125,60H44v3h2V59.722A1.993,1.993,0,0,0,47,58v-.7l4.168,6.252A1,1,0,0,0,53,62.905l-1.88-19.734a3,3,0,0,0-1.422-2.266l1.089-3.255a8.729,8.729,0,0,0,2.472.4,6.315,6.315,0,0,0,.888-.062c2.981-.426,5.57-2.4,7.486-5.707A18.33,18.33,0,0,0,64,23.085V1A1,1,0,0,0,63,0ZM4,61a1,1,0,0,1-2,0V59a1,1,0,0,1,2,0Zm14-4H13.576L14.7,45.21C16.212,48,18,51.822,18,54ZM43,18.184A2.966,2.966,0,0,0,42,18V15.644l1-.062ZM24.331,3.479A2.048,2.048,0,0,1,26.291,2h2.992a2.038,2.038,0,0,1,.911.215,4.067,4.067,0,0,0,3.612,0A2.038,2.038,0,0,1,34.717,2h2.992a2.073,2.073,0,0,1,1.98,1.543l.994,2.751A44.079,44.079,0,0,1,32,7c-1.753,0-3.406-.064-4.916-.19L26.916,8.8c1.565.132,3.276.2,5.084.2a46.2,46.2,0,0,0,9-.728v.955A42.358,42.358,0,0,1,32,10a42.4,42.4,0,0,1-9-.773V8.271c.484.1,1.1.207,1.867.31L25.133,6.6c-.765-.1-1.368-.211-1.817-.3Zm-2.255,7.582A40.714,40.714,0,0,0,32,12a40.714,40.714,0,0,0,9.924-.939l5.054,2.246C42.944,13.6,36.751,14,33,14H31c-3.751,0-9.944-.4-13.978-.693ZM22,15.644V18a2.966,2.966,0,0,0-1,.184v-2.6Zm1.976,10.134a1,1,0,0,0-.421-.61l-1.664-1.109A2,2,0,0,1,21,22.4V21a1,1,0,0,1,1-1h1a1,1,0,0,0,1-1V15.759c2.559.139,5.088.241,7,.241h2c1.912,0,4.441-.1,7-.241V19a1,1,0,0,0,1,1h1a1,1,0,0,1,1,1V22.4a2,2,0,0,1-.891,1.664l-1.664,1.109a1,1,0,0,0-.421.61,8.285,8.285,0,0,1-16.048,0ZM32,34a10.323,10.323,0,0,0,3-.453v3.4c-.055.367-.748,1.05-3,1.05s-2.945-.683-3-1.05v-3.4A10.323,10.323,0,0,0,32,34Zm0,17.386a53.417,53.417,0,0,1-6.578-12.4l2.011-.718C27.978,39.084,29.211,40,32,40s4.022-.916,4.567-1.736l2.011.718A53.281,53.281,0,0,1,32,51.386ZM59.72,2h.89L44.538,50h-.891ZM45,58H40a1,1,0,0,1-1-1V54.324a.985.985,0,0,1,.051-.315L39.721,52H45ZM40,47.743a.743.743,0,0,1,1.449-.234l.461,1.381L41.538,50H40.5a3.839,3.839,0,0,1-.5-2ZM40.294,62h-.878l.709-2H41ZM47,53.7V51a.975.975,0,0,0-.168-.522,43.19,43.19,0,0,1,2.47-5.263l1.326,13.924ZM59.9,31.281c-1.621,2.8-3.652,4.388-6.039,4.729a5.892,5.892,0,0,1-2.441-.255L62,4.149V23.085A16.337,16.337,0,0,1,59.9,31.281Z"/><path d="M58.5,48c-3.623,0-5.171,3.15-5.482,4.815A1,1,0,0,0,54.51,53.86a9.161,9.161,0,0,1,3.99-1.193A2.339,2.339,0,1,0,58.5,48Zm0,2.667a8.764,8.764,0,0,0-2.452.388A3.2,3.2,0,0,1,58.5,50c.286,0,.5.176.5.333S58.786,50.667,58.5,50.667Z"/><path d="M8,30a3,3,0,0,0,0,6,11.72,11.72,0,0,1,5.446,1.833,1.006,1.006,0,0,0,1.1.006,1,1,0,0,0,.442-1C14.593,34.472,12.625,30,8,30Zm0,4a1,1,0,0,1,0-2,4.734,4.734,0,0,1,4.276,2.976A11.283,11.283,0,0,0,8,34Z"/><path d="M2.5,20.667a9.323,9.323,0,0,1,3.991,1.194,1,1,0,0,0,1.491-1.046C7.671,19.15,6.123,16,2.5,16a2.339,2.339,0,1,0,0,4.667ZM2.5,18a3.187,3.187,0,0,1,2.434,1.05A8.732,8.732,0,0,0,2.5,18.667c-.286,0-.5-.177-.5-.334S2.214,18,2.5,18Z"/></g></svg>