<svg xmlns="http://www.w3.org/2000/svg" viewBox="0 0 64 64"><g id="_30-Facial_massage" data-name="30-Facial massage"><rect x="7" y="60" width="4" height="3" style="fill:#e6677d"/><rect x="7" y="42" width="4" height="3" style="fill:#e6677d"/><rect x="7" y="26" width="4" height="3" style="fill:#e6677d"/><rect x="7" y="11" width="4" height="3" style="fill:#e6677d"/><polygon points="27 5 27 21 21 21 22 19 21 17 22 15 21 13 22 11 21 9 22 7 21 5 27 5" style="fill:#f8eae9"/><path d="M6,21.5V22H1v-.5a2.5,2.5,0,0,1,5,0Z" style="fill:#fadbd8"/><path d="M12,22H6a3,3,0,0,1,6,0Z" style="fill:#fadbd8"/><path d="M17,22H12v-.5a2.5,2.5,0,0,1,5,0Z" style="fill:#fadbd8"/><path d="M12,1a5,5,0,0,1,5,5V7H1V6A5,5,0,0,1,6,1Z" style="fill:#f8eae9"/><path d="M17,37v1H1V37a3,3,0,0,1,3-3H14A3,3,0,0,1,17,37Z" style="fill:#f8eae9"/><polygon points="13 50 17 50 17 56 1 56 1 50 5 50 9 50 13 50" style="fill:#f8eae9"/><path d="M17,59a1,1,0,0,1-1,1H2a1,1,0,0,1-1-1V56H17Z" style="fill:#e6677d"/><path d="M17,41a1,1,0,0,1-1,1H2a1,1,0,0,1-1-1V38H17Z" style="fill:#e6677d"/><path d="M17,25a1,1,0,0,1-1,1H2a1,1,0,0,1-1-1V22H17Z" style="fill:#e6677d"/><path d="M17,10a1,1,0,0,1-1,1H2a1,1,0,0,1-1-1V7H17Z" style="fill:#e6677d"/><path d="M31,7V20a1,1,0,0,1-1,1H27V5h3a1,1,0,0,1,1,1Z" style="fill:#f0e5e4"/><path d="M63,11v.68a9.145,9.145,0,0,1-.68,3.45L62,15c-6.12,0-6.89-9.19-6.99-11.48C59.46,5.14,63,7.6,63,11Z" style="fill:#e6677d"/><path d="M45,35a4,4,0,0,1,4,4,17.486,17.486,0,0,0-1,2.75A26.547,26.547,0,0,0,47,49c0,6,2,5,2,9,0,3.5-1.53,3.94-1.91,3.99h-.01C44.2,59.71,43,53.76,43,46a50.025,50.025,0,0,1,1.24-11Z" style="fill:#d45f73"/><path d="M34.24,3.28A13.617,13.617,0,0,1,37,12a18.407,18.407,0,0,1-2.63,9.45A10.072,10.072,0,0,1,31,19V7A11.882,11.882,0,0,1,34.24,3.28Z" style="fill:#e6677d"/><path d="M52,27V63H50a4.535,4.535,0,0,1-2.91-1.01C47.47,61.94,49,61.5,49,58c0-4-2-3-2-9a26.547,26.547,0,0,1,1-7.25A17.486,17.486,0,0,1,49,39a4,4,0,0,0-4-4h-.76c.83-3.72,1.76-6.33,1.76-8,0-3-2-3-2-3a27.051,27.051,0,0,1-9.63-2.55A18.407,18.407,0,0,0,37,12a13.617,13.617,0,0,0-2.76-8.72A10.881,10.881,0,0,1,41,1c.91,0,1.95.05,3.08.15C44.88,2.79,52,17.57,52,27Z" style="fill:#f8eae9"/><path d="M62,15l.32.13a9.514,9.514,0,0,1-2.3,3.36C58.12,20.3,56,22.8,56,25v1a78.9,78.9,0,0,1,2,17c0,9-2,20-6,20V27c0-9.43-7.12-24.21-7.92-25.85A45.38,45.38,0,0,1,55.01,3.52C55.11,5.81,55.88,15,62,15Z" style="fill:#faccc8"/><path d="M45,49a26.547,26.547,0,0,1,1-7.25A17.486,17.486,0,0,1,47,39a3.986,3.986,0,0,0-2.8-3.8A49.886,49.886,0,0,0,43,46c0,6.977.974,12.481,3.263,15.18A5.494,5.494,0,0,0,47,58C47,54,45,55,45,49Z" style="fill:#e6677d"/><path d="M11,26H7v3H9V28a1,1,0,0,1,1-1h1Z" style="fill:#a14756"/><path d="M5,22H1v3a1,1,0,0,0,1,1H16a1,1,0,0,0,1-1V24H7A2,2,0,0,1,5,22Z" style="fill:#bd5566"/><path d="M11,11H7v3H9V13a1,1,0,0,1,1-1h1Z" style="fill:#a14756"/><path d="M5,7H1v3a1,1,0,0,0,1,1H16a1,1,0,0,0,1-1V9H7A2,2,0,0,1,5,7Z" style="fill:#bd5566"/><path d="M11,42H7v3H9V44a1,1,0,0,1,1-1h1Z" style="fill:#a14756"/><path d="M5,38H1v3a1,1,0,0,0,1,1H16a1,1,0,0,0,1-1V40H7A2,2,0,0,1,5,38Z" style="fill:#bd5566"/><path d="M11,60H7v3H9V62a1,1,0,0,1,1-1h1Z" style="fill:#a14756"/><path d="M5,56H1v3a1,1,0,0,0,1,1H16a1,1,0,0,0,1-1V58H7A2,2,0,0,1,5,56Z" style="fill:#bd5566"/><path d="M15,5H7A2,2,0,0,1,7,1H6A5,5,0,0,0,1,6V7H17V6a4.957,4.957,0,0,0-.365-1.854A1.994,1.994,0,0,1,15,5Z" style="fill:#edc9cb"/><path d="M15,36H6a1,1,0,0,1,0-2H4a3,3,0,0,0-3,3v1H17V37a2.984,2.984,0,0,0-.511-1.677A1.986,1.986,0,0,1,15,36Z" style="fill:#edc9cb"/><path d="M5,50v2a2,2,0,0,0,2,2H17v2H1V50Z" style="fill:#edc9cb"/><path d="M27,13V5H25V15a2,2,0,0,1-2,2H21l1,2-1,2h6V13Z" style="fill:#edc9cb"/><path d="M30,5H29V16a1,1,0,0,1-2,0v5h3a1,1,0,0,0,1-1V6A1,1,0,0,0,30,5Z" style="fill:#dbd1d0"/><path d="M45,20a24.31,24.31,0,0,1-9.187-1.554,17.891,17.891,0,0,1-1.443,3A27.051,27.051,0,0,0,44,24s2,0,2,3c0,1.67-.93,4.28-1.76,8H45a4,4,0,0,1,4,4V24A4,4,0,0,0,45,20Z" style="fill:#edc9cb"/><path d="M49,50V39a17.486,17.486,0,0,0-1,2.75A26.547,26.547,0,0,0,47,49c0,6,2,5,2,9,0,3.5-1.53,3.94-1.91,3.99A4.535,4.535,0,0,0,50,63h2V54.578A5,5,0,0,1,49,50Z" style="fill:#edc9cb"/><path d="M52,54.578V63c2.4,0,4.074-3.95,5.035-9.052a4.922,4.922,0,0,1-5.035.63Z" style="fill:#faaaa3"/><path d="M63,11.68V11a4.71,4.71,0,0,0-.036-.547v.028a1.99,1.99,0,0,1-3.2,1.392c-2.247-1.77-3.155-5.3-3.52-7.867-.4-.169-.814-.332-1.236-.486.094,2.162.791,10.462,6.016,11.387h0A5.521,5.521,0,0,0,62,15l.32.13a9.365,9.365,0,0,0,.339-1.015c.009-.032.016-.065.024-.1A9.037,9.037,0,0,0,63,11.68Z" style="fill:#d45f73"/><path d="M61.026,14.907a10.336,10.336,0,0,1-1.939,1.625A6.9,6.9,0,0,0,56,22.333V25c0-2.2,2.12-4.7,4.02-6.51a9.514,9.514,0,0,0,2.3-3.36L62,15A5.521,5.521,0,0,1,61.026,14.907Z" style="fill:#faaaa3"/><path d="M35.779,18.432a3.452,3.452,0,0,1-2.03-3.877A13.49,13.49,0,0,0,34,12a12.223,12.223,0,0,0-1.928-6.594A10.58,10.58,0,0,0,31,7V19a10.072,10.072,0,0,0,3.37,2.45,17.891,17.891,0,0,0,1.443-3Z" style="fill:#d45f73"/><path d="M42,3h-.024c-.662.017-1.344.045-2.042.092a1,1,0,0,0,.066,2l.068,0c.669-.045,1.323-.073,1.956-.088A1,1,0,0,0,42,3Z" style="fill:#fff"/><path d="M44,3.985a1,1,0,0,0,.958,1.04q.451.019.883.045C45.5,4.3,45.2,3.614,44.931,3.041A.96.96,0,0,0,44,3.985Z" style="fill:#fff"/><path d="M52.737,6.055A1.039,1.039,0,0,0,53,6.09a1,1,0,0,0,.263-1.965,40.347,40.347,0,0,0-8.222-1.1,1,1,0,0,0-.11.014c.264.573.572,1.256.911,2.029A37.995,37.995,0,0,1,52.737,6.055Z" style="fill:#fff3f2"/><path d="M54.956,2.432A46.555,46.555,0,0,0,41,0a12.157,12.157,0,0,0-9.572,4.6A1.991,1.991,0,0,0,30,4H21a1,1,0,0,0-.895,1.447L20.882,7l-.777,1.553a1,1,0,0,0,0,.894L20.882,11l-.777,1.553a1,1,0,0,0,0,.894L20.882,15l-.777,1.553a1,1,0,0,0,0,.894L20.882,19l-.777,1.553A1,1,0,0,0,21,22h9a1.993,1.993,0,0,0,1.723-1c1.845,1.368,5.562,3.335,12.249,4,.171.012,1.028.16,1.028,2a19.743,19.743,0,0,1-.829,4.1A54.977,54.977,0,0,0,42,46c0,14.877,4.351,18,8,18h2c5.537,0,7-13.736,7-21a79.394,79.394,0,0,0-2-17.121V25c0-1.461,1.318-3.515,3.712-5.783A10.462,10.462,0,0,0,64,11.678V11C64,7.474,60.873,4.51,54.956,2.432ZM22.9,18.553,22.118,17l.777-1.553a1,1,0,0,0,0-.894L22.118,13l.777-1.553a1,1,0,0,0,0-.894L22.118,9,22.9,7.447a1,1,0,0,0,0-.894L22.618,6H26V20H22.618l.277-.553A1,1,0,0,0,22.9,18.553ZM28,20V6h2V7h0V19l0,.011V20ZM32,7.254a11.045,11.045,0,0,1,2.048-2.53A13.466,13.466,0,0,1,36,12a17.543,17.543,0,0,1-2.016,8.094A10,10,0,0,1,32,18.617ZM44,46a48.3,48.3,0,0,1,1.046-10,3,3,0,0,1,2.947,2.789A25.772,25.772,0,0,0,46,49c0,3.545.7,4.908,1.262,6A5.461,5.461,0,0,1,48,58a4.067,4.067,0,0,1-.709,2.824C44.492,58.006,44,50.734,44,46ZM59.336,17.766C56.459,20.492,55,22.926,55,25v1a.984.984,0,0,0,.03.242A78.44,78.44,0,0,1,57,43c0,8.828-1.778,16.708-4,18.578V27c0-4.322-1.4-10.164-4.163-17.362l-1.867.716C49.606,17.225,51,22.98,51,27V62H50a3.7,3.7,0,0,1-1-.138A6.229,6.229,0,0,0,50,58a7.345,7.345,0,0,0-.959-3.909C48.529,53.093,48,52.062,48,49a23.557,23.557,0,0,1,1.9-9.555A1.006,1.006,0,0,0,50,39a4.99,4.99,0,0,0-4.511-4.951c.211-.873.422-1.692.617-2.44A20.554,20.554,0,0,0,47,27c0-3.154-1.951-4-2.893-4H44.1A27.62,27.62,0,0,1,35.775,21,19.4,19.4,0,0,0,38,12a15.283,15.283,0,0,0-2.351-8.493A9.948,9.948,0,0,1,41,2c.748,0,1.564.034,2.422.1.245.512.616,1.3,1.068,2.306l1.824-.818c-.208-.464-.4-.883-.57-1.25a43.954,43.954,0,0,1,8.305,1.881c.2,3.038,1.261,10.711,6.771,11.676A8.67,8.67,0,0,1,59.336,17.766ZM62,11.678a8.084,8.084,0,0,1-.345,2.3c-4.039-.3-5.194-5.872-5.523-8.961C59.531,6.491,62,8.49,62,11Z"/><path d="M45.362,6.4c.265.62.543,1.284.826,1.983l1.854-.752c-.289-.711-.571-1.387-.84-2.017Z"/><path d="M17,49H1a1,1,0,0,0-1,1v9a2,2,0,0,0,2,2H6v2a1,1,0,0,0,1,1h4a1,1,0,0,0,1-1V61h4a2,2,0,0,0,2-2V50A1,1,0,0,0,17,49ZM4,51v3H6V51H8v3h2V51h2v3h2V51h2v4H2V51Zm6,11H8V61h2ZM2,59V57H16v2Z"/><path d="M14,33H4a4,4,0,0,0-4,4v4a2,2,0,0,0,2,2H6v2a1,1,0,0,0,1,1h4a1,1,0,0,0,1-1V43h4a2,2,0,0,0,2-2V37A4,4,0,0,0,14,33ZM4,35H14a2,2,0,0,1,2,2H2A2,2,0,0,1,4,35Zm6,9H8V43h2ZM2,41V39H16v2Z"/><path d="M12,0H6A6.006,6.006,0,0,0,0,6v4a2,2,0,0,0,2,2H6v2a1,1,0,0,0,1,1h4a1,1,0,0,0,1-1V12h4a2,2,0,0,0,2-2V6A6.006,6.006,0,0,0,12,0ZM6,2h6a4,4,0,0,1,4,4H2A4,4,0,0,1,6,2Zm4,11H8V12h2ZM2,10V8H16v2Z"/><rect x="5" y="3" width="2" height="2"/><rect x="8" y="3" width="2" height="2"/><rect x="11" y="3" width="2" height="2"/><path d="M14.5,18a3.48,3.48,0,0,0-2.634,1.22,3.976,3.976,0,0,0-5.732,0A3.485,3.485,0,0,0,0,21.5V25a2,2,0,0,0,2,2H6v2a1,1,0,0,0,1,1h4a1,1,0,0,0,1-1V27h4a2,2,0,0,0,2-2V21.5A3.5,3.5,0,0,0,14.5,18Zm0,2a1.5,1.5,0,0,1,1.414,1H13.086A1.5,1.5,0,0,1,14.5,20ZM9,20a2,2,0,0,1,1.731,1H7.269A2,2,0,0,1,9,20ZM3.5,20a1.5,1.5,0,0,1,1.414,1H2.086A1.5,1.5,0,0,1,3.5,20ZM10,28H8V27h2ZM2,25V23H16v2Z"/></g></svg>