<svg xmlns="http://www.w3.org/2000/svg" viewBox="0 0 64 64"><title>33-Development</title><g id="_33-Development" data-name="33-Development"><g id="_Group_" data-name="&lt;Group&gt;"><path d="M61,51H3a3,3,0,0,1-3-3V4A3,3,0,0,1,3,1H61a3,3,0,0,1,3,3V48A3,3,0,0,1,61,51ZM3,3A1,1,0,0,0,2,4V48a1,1,0,0,0,1,1H61a1,1,0,0,0,1-1V4a1,1,0,0,0-1-1Z"/><path d="M45,63H19a1,1,0,0,1-1-1V59a1,1,0,0,1,.126-.486l5-9,1.748.972L20,59.259V61H44V59.259l-4.874-8.773,1.748-.972,5,9A1,1,0,0,1,46,59v3A1,1,0,0,1,45,63Z"/><rect x="19" y="58" width="26" height="2"/><rect x="16" y="61" width="3" height="2"/><rect x="45" y="61" width="3" height="2"/><rect x="1" y="41" width="62" height="2"/><path d="M34,37H30a1,1,0,0,1-.861-.491l-13-22a1,1,0,0,1,.029-1.064l4-6A1,1,0,0,1,21,7H43a1,1,0,0,1,.832.445l4,6a1,1,0,0,1,.029,1.064l-13,22A1,1,0,0,1,34,37Zm-3.429-2H33.43L45.819,14.032,42.465,9H21.535l-3.354,5.032Z"/><rect x="17" y="13" width="30" height="2"/><path d="M38,15a1,1,0,0,1-.707-.293L32.067,9.481l-4.3,5.159a1,1,0,0,1-1.475.067l-6-6,1.414-1.414,5.226,5.226,4.3-5.159a1,1,0,0,1,1.475-.067l5.226,5.226,4.3-5.159,1.538,1.28-5,6a1,1,0,0,1-.724.359Z"/><path d="M32,37h-.021a1,1,0,0,1-.954-.778l-5-22,1.95-.444,4.113,18.1,4.947-18.139,1.93.526-6,22A1,1,0,0,1,32,37Z"/><path d="M55,34H53V32h.865a5.865,5.865,0,0,1,.877-3.977A2.715,2.715,0,0,1,56,27.155V27h2v1a1,1,0,0,1-1,1,.812.812,0,0,0-.71.291c-.61.742-.472,2.688-.31,3.514A1,1,0,0,1,55,34Z"/><path d="M58,27H56v-.155a2.715,2.715,0,0,1-1.258-.868A5.865,5.865,0,0,1,53.865,22H53V20h2a1,1,0,0,1,.98,1.2c-.162.826-.3,2.772.31,3.514A.812.812,0,0,0,57,25a1,1,0,0,1,1,1Z"/><rect x="45" y="26" width="2" height="2"/><rect x="49" y="26" width="2" height="2"/><rect x="13" y="26" width="2" height="2"/><rect x="17" y="26" width="2" height="2"/><path d="M8,27H6V26a1,1,0,0,1,1-1,.81.81,0,0,0,.71-.291c.611-.742.472-2.688.309-3.514A1,1,0,0,1,9,20h2v2h-.865a5.871,5.871,0,0,1-.877,3.977A2.715,2.715,0,0,1,8,26.845Z"/><path d="M11,34H9a1,1,0,0,1-.981-1.2c.163-.826.3-2.772-.309-3.514A.81.81,0,0,0,7,29a1,1,0,0,1-1-1V27H8v.155a2.715,2.715,0,0,1,1.258.868A5.871,5.871,0,0,1,10.135,32H11Z"/></g></g></svg>