<svg xmlns="http://www.w3.org/2000/svg" viewBox="0 0 64 64"><title>34-Flowchart</title><g id="_34-Flowchart" data-name="34-Flowchart"><path d="M54,64H10a3,3,0,0,1-3-3V13a1,1,0,0,1,.263-.676l11-12A1,1,0,0,1,19,0H54a3,3,0,0,1,3,3V61A3,3,0,0,1,54,64ZM9,13.389V61a1,1,0,0,0,1,1H54a1,1,0,0,0,1-1V3a1,1,0,0,0-1-1H19.439Z"/><path d="M19,14H8V12H18V1h2V13A1,1,0,0,1,19,14Z"/><path d="M21,31H13a1,1,0,0,1-1-1V22a1,1,0,0,1,1-1h8a1,1,0,0,1,1,1v8A1,1,0,0,1,21,31Zm-7-2h6V23H14Z"/><rect x="11.343" y="25" width="11.314" height="2" transform="translate(-13.406 19.636) rotate(-45)"/><path d="M51,31H43a1,1,0,0,1-1-1V22a1,1,0,0,1,1-1h8a1,1,0,0,1,1,1v8A1,1,0,0,1,51,31Zm-7-2h6V23H44Z"/><rect x="41.343" y="25" width="11.314" height="2" transform="translate(-4.619 40.849) rotate(-45)"/><g id="_Group_" data-name="&lt;Group&gt;"><path d="M32,22a6,6,0,1,1,6-6A6.006,6.006,0,0,1,32,22Zm0-10a4,4,0,1,0,4,4A4,4,0,0,0,32,12Z"/><path d="M38.27,45H25.73a2,2,0,0,1-1.74-2.993l6.272-10.973a2,2,0,0,1,3.481.008L40.008,42a2,2,0,0,1-1.738,3ZM32,32.026,25.729,43,38.27,43h0Z"/><path d="M43,58H21a1,1,0,0,1-1-1V51a1,1,0,0,1,1-1H43a1,1,0,0,1,1,1v6A1,1,0,0,1,43,58ZM22,56H42V52H22Z"/></g><rect x="31" y="21" width="2" height="10"/><rect x="21" y="25" width="7" height="2"/><rect x="36" y="25" width="7" height="2"/><rect x="31" y="44" width="2" height="7"/><rect x="26" y="39" width="12" height="2"/><path d="M49,18H47V16h.865a5.865,5.865,0,0,1,.877-3.977A2.715,2.715,0,0,1,50,11.155V11h2v1a1,1,0,0,1-1,1,.812.812,0,0,0-.71.291c-.61.742-.472,2.688-.31,3.514A1,1,0,0,1,49,18Z"/><path d="M52,11H50v-.155a2.715,2.715,0,0,1-1.258-.868A5.865,5.865,0,0,1,47.865,6H47V4h2a1,1,0,0,1,.98,1.2c-.162.826-.3,2.772.31,3.514A.812.812,0,0,0,51,9a1,1,0,0,1,1,1Z"/><path d="M14,51H12V50a1,1,0,0,1,1-1,.812.812,0,0,0,.71-.291c.61-.742.472-2.688.31-3.514A1,1,0,0,1,15,44h2v2h-.865a5.865,5.865,0,0,1-.877,3.977A2.715,2.715,0,0,1,14,50.845Z"/><path d="M17,58H15a1,1,0,0,1-.98-1.2c.162-.826.3-2.772-.31-3.514A.812.812,0,0,0,13,53a1,1,0,0,1-1-1V51h2v.155a2.715,2.715,0,0,1,1.258.868A5.865,5.865,0,0,1,16.135,56H17Z"/></g></svg>