<svg xmlns="http://www.w3.org/2000/svg" viewBox="0 0 64 64"><title>4-Browser</title><g id="_4-Browser" data-name="4-Browser"><path d="M61,64H3a3,3,0,0,1-3-3V3A3,3,0,0,1,3,0H61a3,3,0,0,1,3,3V61A3,3,0,0,1,61,64ZM3,2A1,1,0,0,0,2,3V61a1,1,0,0,0,1,1H61a1,1,0,0,0,1-1V3a1,1,0,0,0-1-1Z"/><rect x="1" y="10" width="62" height="2"/><rect x="5" y="5" width="2" height="2"/><rect x="9" y="5" width="2" height="2"/><rect x="14" y="5" width="45" height="2"/><g id="_Group_" data-name="&lt;Group&gt;"><path d="M29,37H5a1,1,0,0,1-1-1V16a1,1,0,0,1,1-1H29a1,1,0,0,1,1,1V36A1,1,0,0,1,29,37ZM6,35H28V17H6Z"/><path d="M25,60a.994.994,0,0,1-.515-.143L20,57.166l-4.485,2.691A1,1,0,0,1,14,59V36h2V57.234l3.485-2.091a1,1,0,0,1,1.03,0L24,57.234V37h2V59a1,1,0,0,1-1,1Z"/></g><rect x="4" y="40" width="8" height="2"/><rect x="4" y="45" width="8" height="2"/><rect x="4" y="50" width="8" height="2"/><rect x="28" y="40" width="32" height="2"/><rect x="32" y="35" width="28" height="2"/><rect x="32" y="30" width="28" height="2"/><rect x="32" y="25" width="28" height="2"/><rect x="32" y="20" width="28" height="2"/><rect x="37" y="15" width="23" height="2"/><rect x="28" y="45" width="32" height="2"/><rect x="28" y="50" width="32" height="2"/><rect x="4" y="55" width="8" height="2"/><rect x="54" y="55" width="6" height="2"/><rect x="28" y="55" width="24" height="2"/></g></svg>