<svg xmlns="http://www.w3.org/2000/svg" viewBox="0 0 90 90"><title>4-Programming</title><g id="_4-Programming" data-name="4-Programming"><g id="_Group_" data-name="&lt;Group&gt;"><path d="M57,78H15V76H57V25H6V23H58a1,1,0,0,1,1,1V76A2,2,0,0,1,57,78Z"/><rect x="26" y="76.89" width="2" height="9.22" transform="translate(-17.039 7.799) rotate(-12.53)"/><path d="M54,74H11.06L11,72H53V29H4V27H54a1,1,0,0,1,1,1V73A1,1,0,0,1,54,74Z"/><rect x="58" y="31" width="29" height="2"/><rect x="58" y="36" width="31" height="2"/><rect x="32" y="77" width="2" height="11"/><rect x="62" y="41" width="2" height="38"/><path d="M72,47H68a1,1,0,0,1-1-1V42a1,1,0,0,1,1-1h4a1,1,0,0,1,1,1v4A1,1,0,0,1,72,47Zm-3-2h2V43H69Z"/><path d="M80,47H76a1,1,0,0,1-1-1V42a1,1,0,0,1,1-1h4a1,1,0,0,1,1,1v4A1,1,0,0,1,80,47Zm-3-2h2V43H77Z"/><rect x="67" y="49" width="16" height="2"/><rect x="67" y="53" width="7" height="2"/><rect x="67" y="57" width="7" height="2"/><rect x="67" y="61" width="13" height="2"/><rect x="67" y="65" width="8" height="2"/><path d="M82,59H77a1,1,0,0,1-1-1V54a1,1,0,0,1,1-1h5a1,1,0,0,1,1,1v4A1,1,0,0,1,82,59Zm-4-2h3V55H78Z"/><rect x="67" y="69" width="4" height="2"/><path d="M19.293,57.707l-8-8a1,1,0,0,1,0-1.414l8-8,1.414,1.414L13.414,49l7.293,7.293Z"/><path d="M36.707,57.707l-1.414-1.414L42.586,49l-7.293-7.293,1.414-1.414,8,8a1,1,0,0,1,0,1.414Z"/><rect x="17.376" y="48.5" width="20.248" height="2" transform="translate(-28.454 58.195) rotate(-69.778)"/><path d="M45,90a45.089,45.089,0,0,1-12.272-1.7A43.436,43.436,0,0,1,27.51,86.47a44.424,44.424,0,0,1-13.285-8.652,42.365,42.365,0,0,1-3.938-4.184,45.027,45.027,0,0,1-6.8-46.022,41.834,41.834,0,0,1,1.966-4.094A45.009,45.009,0,0,1,88,31.7a42.779,42.779,0,0,1,1.258,5.122h0A45.016,45.016,0,0,1,45,90ZM45,2A42.992,42.992,0,0,0,7.209,24.478a39.92,39.92,0,0,0-1.876,3.906,43.03,43.03,0,0,0,6.5,43.979,40.574,40.574,0,0,0,3.76,3.993,42.462,42.462,0,0,0,12.7,8.272,41.633,41.633,0,0,0,4.983,1.749A43.015,43.015,0,0,0,87.286,37.183v-.005a40.841,40.841,0,0,0-1.2-4.889A42.791,42.791,0,0,0,45,2Z"/><rect x="31" y="8" width="9" height="2"/><rect x="47" y="8" width="13" height="2"/><rect x="46" y="16" width="12" height="2"/><rect x="65" y="16" width="8" height="2"/><rect x="17" y="16" width="12" height="2"/><rect x="34" y="16" width="8" height="2"/><path d="M34,21H29a1,1,0,0,1-1-1V14a1,1,0,0,1,1-1h5a1,1,0,0,1,1,1v6A1,1,0,0,1,34,21Zm-4-2h3V15H30Z"/><path d="M47,13H40a1,1,0,0,1-1-1V6a1,1,0,0,1,1-1h7a1,1,0,0,1,1,1v6A1,1,0,0,1,47,13Zm-6-2h5V7H41Z"/><path d="M65,21H58a1,1,0,0,1-1-1V14a1,1,0,0,1,1-1h7a1,1,0,0,1,1,1v6A1,1,0,0,1,65,21Zm-6-2h5V15H59Z"/></g></g></svg>