<svg xmlns="http://www.w3.org/2000/svg" viewBox="0 0 64 64"><title>40-Coding</title><g id="_40-Coding" data-name="40-Coding"><rect x="6" y="5" width="2" height="14"/><rect x="12" y="5" width="2" height="14"/><rect x="7" y="11" width="6" height="2"/><rect x="7" y="11" width="6" height="2"/><rect x="16" y="5" width="8" height="2"/><rect x="19" y="6" width="2" height="13"/><path d="M34,19H32V11.515l-1.063,2.836a1,1,0,0,1-1.874,0L28,11.515V19H26V6a1,1,0,0,1,1.937-.351L30,11.152l2.063-5.5A1,1,0,0,1,34,6Z"/><path d="M43,19H39a2.916,2.916,0,0,1-3-3V5h2V16a.915.915,0,0,0,1,1h4Z"/><g id="_Group_" data-name="&lt;Group&gt;"><path d="M16,29a1,1,0,0,1-1-1V24H1a1,1,0,0,1-1-1V1A1,1,0,0,1,1,0H47a1,1,0,0,1,1,1V23a1,1,0,0,1-1,1H21.414l-4.707,4.707A1,1,0,0,1,16,29ZM2,22H16a1,1,0,0,1,1,1v2.586l3.293-3.293A1,1,0,0,1,21,22H46V2H2Z"/><path d="M38,64a1,1,0,0,1-1-1V59H15a1,1,0,0,1-1-1V34a1,1,0,0,1,1-1H63a1,1,0,0,1,1,1V58a1,1,0,0,1-1,1H43.414l-4.707,4.707A1,1,0,0,1,38,64ZM16,57H38a1,1,0,0,1,1,1v2.586l3.293-3.293A1,1,0,0,1,43,57H62V35H16Z"/></g><path d="M51,47a5,5,0,1,1,5-5H54a3,3,0,1,0-3,3Z"/><path d="M51,55a5.006,5.006,0,0,1-5-5h2a3,3,0,1,0,3-3V45a5,5,0,0,1,0,10Z"/><path d="M39,47a5,5,0,1,1,5-5H42a3,3,0,1,0-3,3Z"/><path d="M39,55a5.006,5.006,0,0,1-5-5h2a3,3,0,1,0,3-3V45a5,5,0,0,1,0,10Z"/><path d="M27,55a5.006,5.006,0,0,1-5-5V42a5,5,0,0,1,10,0H30a3,3,0,0,0-6,0v8a3,3,0,0,0,6,0h2A5.006,5.006,0,0,1,27,55Z"/><path d="M55,30H22V28H55a2.853,2.853,0,0,0,3-3V24h2v1A4.821,4.821,0,0,1,55,30Z"/><path d="M60,18H58V16a2.854,2.854,0,0,0-3.006-3H50V11h5a4.821,4.821,0,0,1,5,5Z"/><path d="M12,48H9a5.785,5.785,0,0,1-6-6V41H5v1a3.85,3.85,0,0,0,4,4h3Z"/><path d="M5,35H3V34a5.785,5.785,0,0,1,6-6h3v2H9a3.85,3.85,0,0,0-4,4Z"/><path d="M59,25a4,4,0,1,1,4-4A4,4,0,0,1,59,25Zm0-6a2,2,0,1,0,2,2A2,2,0,0,0,59,19Z"/><path d="M4,42a4,4,0,1,1,4-4A4,4,0,0,1,4,42Zm0-6a2,2,0,1,0,2,2A2,2,0,0,0,4,36Z"/></g></svg>