<svg xmlns="http://www.w3.org/2000/svg" viewBox="0 0 64 64"><title>42-App Development</title><g id="_42-App_Development" data-name="42-App Development"><path d="M54,21H52V4a2,2,0,0,0-2-2H16a2,2,0,0,0-2,2V18H12V4a4,4,0,0,1,4-4H50a4,4,0,0,1,4,4Z"/><path d="M50,64H16a4,4,0,0,1-4-4V46h2V60a2,2,0,0,0,2,2H50a2,2,0,0,0,2-2V43h2V60A4,4,0,0,1,50,64Z"/><path d="M48,60H18a1.959,1.959,0,0,1-2-2V50h2v8H48V43h2V58A1.959,1.959,0,0,1,48,60Z"/><path d="M50,21H48V7H40.588C40.1,7.807,39.173,9,38,9H28c-1.173,0-2.1-1.193-2.588-2H18V19H16V7a1.959,1.959,0,0,1,2-2h8a1,1,0,0,1,.894.551,3.775,3.775,0,0,0,1.15,1.454L38,7a4.184,4.184,0,0,0,1.106-1.449A1,1,0,0,1,40,5h8a1.959,1.959,0,0,1,2,2Z"/><path d="M59,44H39a1,1,0,0,1-1-1V21a1,1,0,0,1,1-1H59a1,1,0,0,1,1,1V43A1,1,0,0,1,59,44ZM40,42H58V22H40Z"/><rect x="39" y="28" width="20" height="2"/><rect x="42" y="24" width="2" height="2"/><rect x="46" y="24" width="2" height="2"/><path d="M46.293,39.707l-3-3a1,1,0,0,1,0-1.414l3-3,1.414,1.414L45.414,36l2.293,2.293Z"/><path d="M51.707,39.707l-1.414-1.414L52.586,36l-2.293-2.293,1.414-1.414,3,3a1,1,0,0,1,0,1.414Z"/><path d="M22,48H18a1,1,0,0,1-.861-.491l-13-22a1,1,0,0,1,.029-1.064l4-6A1,1,0,0,1,9,18H31a1,1,0,0,1,.832.445l4,6a1,1,0,0,1,.029,1.064l-13,22A1,1,0,0,1,22,48Zm-3.429-2h2.858l12.39-20.968L30.465,20H9.535L6.181,25.032Z"/><rect x="5" y="24" width="30" height="2"/><path d="M26,26a1,1,0,0,1-.707-.293l-5.226-5.226-4.3,5.159a1,1,0,0,1-1.475.067l-6-6,1.414-1.414,5.226,5.226,4.3-5.159a1,1,0,0,1,1.475-.067l5.226,5.226,4.3-5.159,1.536,1.28-5,6a1,1,0,0,1-.723.359Z"/><path d="M20,48h-.021a1,1,0,0,1-.954-.778l-5-22,1.95-.444,4.113,18.1,4.947-18.139,1.93.526-6,22A1,1,0,0,1,20,48Z"/></g></svg>