<svg xmlns="http://www.w3.org/2000/svg" viewBox="0 0 64 64"><title>43-Css File</title><g id="_43-Css_File" data-name="43-Css File"><path d="M54,64H10a3,3,0,0,1-3-3V13a1,1,0,0,1,.263-.676l11-12A1,1,0,0,1,19,0H54a3,3,0,0,1,3,3V61A3,3,0,0,1,54,64ZM9,13.389V61a1,1,0,0,0,1,1H54a1,1,0,0,0,1-1V3a1,1,0,0,0-1-1H19.44Z"/><path d="M19,14H8V12H18V1h2V13A1,1,0,0,1,19,14Z"/><path d="M49,18H47V16h.865a5.865,5.865,0,0,1,.877-3.977A2.715,2.715,0,0,1,50,11.155V11h2v1a1,1,0,0,1-1,1,.812.812,0,0,0-.71.291c-.61.742-.472,2.688-.31,3.514A1,1,0,0,1,49,18Z"/><path d="M52,11H50v-.155a2.715,2.715,0,0,1-1.258-.868A5.865,5.865,0,0,1,47.865,6H47V4h2a1,1,0,0,1,.98,1.2c-.162.826-.3,2.772.31,3.514A.812.812,0,0,0,51,9a1,1,0,0,1,1,1Z"/><path d="M14,51H12V50a1,1,0,0,1,1-1,.81.81,0,0,0,.71-.291c.611-.742.472-2.688.309-3.514A1,1,0,0,1,15,44h2v2h-.865a5.871,5.871,0,0,1-.877,3.977A2.715,2.715,0,0,1,14,50.845Z"/><path d="M17,58H15a1,1,0,0,1-.981-1.2c.163-.826.3-2.772-.309-3.514A.81.81,0,0,0,13,53a1,1,0,0,1-1-1V51h2v.155a2.715,2.715,0,0,1,1.258.868A5.871,5.871,0,0,1,16.135,56H17Z"/><path d="M44,32a5,5,0,1,1,5-5H47a3,3,0,1,0-3,3Z"/><path d="M44,40a5.006,5.006,0,0,1-5-5h2a3,3,0,1,0,3-3V30a5,5,0,0,1,0,10Z"/><path d="M32,32a5,5,0,1,1,5-5H35a3,3,0,1,0-3,3Z"/><path d="M32,40a5.006,5.006,0,0,1-5-5h2a3,3,0,1,0,3-3V30a5,5,0,0,1,0,10Z"/><path d="M20,40a5.006,5.006,0,0,1-5-5V27a5,5,0,0,1,10,0H23a3,3,0,0,0-6,0v8a3,3,0,0,0,6,0h2A5.006,5.006,0,0,1,20,40Z"/><rect x="27" y="14" width="15" height="2"/><rect x="27" y="10" width="15" height="2"/><rect x="36" y="6" width="6" height="2"/><rect x="20" y="46" width="15" height="2"/><rect x="20" y="50" width="15" height="2"/><rect x="20" y="54" width="6" height="2"/></g></svg>