<svg xmlns="http://www.w3.org/2000/svg" viewBox="0 0 64 64"><title>46-File Management</title><g id="_46-File_Management" data-name="46-File Management"><path d="M37,64H8a3,3,0,0,1-3-3V13a1,1,0,0,1,.263-.676l11-12A1,1,0,0,1,17,0H52a3,3,0,0,1,3,3V32H53V3a1,1,0,0,0-1-1H17.44L7,13.389V61a1,1,0,0,0,1,1H37Z"/><path d="M17,14H6V12H16V1h2V13A1,1,0,0,1,17,14Z"/><path d="M47,18H45V16h.865a5.871,5.871,0,0,1,.877-3.977A2.715,2.715,0,0,1,48,11.155V11h2v1a1,1,0,0,1-1,1,.81.81,0,0,0-.71.291c-.611.742-.472,2.688-.309,3.514A1,1,0,0,1,47,18Z"/><path d="M50,11H48v-.155a2.715,2.715,0,0,1-1.258-.868A5.871,5.871,0,0,1,45.865,6H45V4h2a1,1,0,0,1,.981,1.2c-.163.826-.3,2.772.309,3.514A.81.81,0,0,0,49,9a1,1,0,0,1,1,1Z"/><path d="M12,51H10V50a1,1,0,0,1,1-1,.81.81,0,0,0,.71-.291c.611-.742.472-2.688.309-3.514A1,1,0,0,1,13,44h2v2h-.865a5.871,5.871,0,0,1-.877,3.977A2.715,2.715,0,0,1,12,50.845Z"/><path d="M15,58H13a1,1,0,0,1-.981-1.2c.163-.826.3-2.772-.309-3.514A.81.81,0,0,0,11,53a1,1,0,0,1-1-1V51h2v.155a2.715,2.715,0,0,1,1.258.868A5.871,5.871,0,0,1,14.135,56H15Z"/><rect x="25" y="14" width="15" height="2"/><rect x="25" y="10" width="15" height="2"/><rect x="34" y="6" width="6" height="2"/><rect x="18" y="46" width="5" height="2"/><rect x="18" y="50" width="5" height="2"/><rect x="18" y="54" width="9" height="2"/><path d="M43,64a1,1,0,0,1-.447-.1l-2-1a1,1,0,0,1-.544-.763l-.488-3.657a11.954,11.954,0,0,1-2.174-.9l-2.932,2.242a1.008,1.008,0,0,1-.924.155l-2.121-.708a1,1,0,0,1-.632-.632l-.708-2.121a1,1,0,0,1,.155-.924l2.242-2.932a11.954,11.954,0,0,1-.9-2.174l-3.657-.488a1,1,0,0,1-.763-.544l-1-2a1,1,0,0,1,0-.894l1-2a1,1,0,0,1,.763-.544l3.657-.488a11.954,11.954,0,0,1,.9-2.174l-2.242-2.932a1,1,0,0,1-.155-.924l.708-2.121a1,1,0,0,1,.632-.632l2.121-.708a1,1,0,0,1,.924.155l2.932,2.242a11.954,11.954,0,0,1,2.174-.9l.488-3.657a1,1,0,0,1,.544-.763l2-1a1,1,0,0,1,.894,0l2,1a1,1,0,0,1,.544.763l.488,3.657a11.954,11.954,0,0,1,2.174.9l2.932-2.242a1,1,0,0,1,.924-.155l2.121.708a1,1,0,0,1,.632.632l.708,2.121a1,1,0,0,1-.155.924l-2.242,2.932a11.954,11.954,0,0,1,.9,2.174l3.657.488a1,1,0,0,1,.763.544l1,2a1,1,0,0,1,0,.894l-1,2a1,1,0,0,1-.763.544l-3.657.488a11.954,11.954,0,0,1-.9,2.174l2.242,2.932a1,1,0,0,1,.155.924l-.708,2.121a1,1,0,0,1-.632.632l-2.121.708a1.007,1.007,0,0,1-.924-.155l-2.932-2.242a11.954,11.954,0,0,1-2.174.9l-.488,3.657a1,1,0,0,1-.544.763l-2,1A1,1,0,0,1,43,64Zm-1.079-2.657L43,61.882l1.079-.539.505-3.791a1,1,0,0,1,.757-.84,9.934,9.934,0,0,0,2.869-1.19,1,1,0,0,1,1.13.059l3.039,2.324,1.144-.382.382-1.144L51.581,53.34a1,1,0,0,1-.059-1.13,9.934,9.934,0,0,0,1.19-2.869,1,1,0,0,1,.84-.757l3.791-.505L57.882,47l-.539-1.079-3.791-.505a1,1,0,0,1-.84-.757,9.934,9.934,0,0,0-1.19-2.869,1,1,0,0,1,.059-1.13l2.324-3.039-.382-1.144L52.379,36.1,49.34,38.419a1,1,0,0,1-1.13.059,9.934,9.934,0,0,0-2.869-1.19,1,1,0,0,1-.757-.84l-.505-3.791L43,32.118l-1.079.539-.505,3.791a1,1,0,0,1-.757.84,9.934,9.934,0,0,0-2.869,1.19,1,1,0,0,1-1.13-.059L33.621,36.1l-1.144.382L32.1,37.621l2.324,3.039a1,1,0,0,1,.059,1.13,9.934,9.934,0,0,0-1.19,2.869,1,1,0,0,1-.84.757l-3.791.505L28.118,47l.539,1.079,3.791.505a1,1,0,0,1,.84.757,9.934,9.934,0,0,0,1.19,2.869,1,1,0,0,1-.059,1.13L32.1,56.379l.382,1.144,1.144.382,3.039-2.324a1,1,0,0,1,1.13-.059,9.934,9.934,0,0,0,2.869,1.19,1,1,0,0,1,.757.84Z"/><path d="M43,54a7,7,0,1,1,7-7A7.008,7.008,0,0,1,43,54Zm0-12a5,5,0,1,0,5,5A5.006,5.006,0,0,0,43,42Z"/></g></svg>