<svg xmlns="http://www.w3.org/2000/svg" viewBox="0 0 64 64"><title>48-Develop</title><g id="_48-Develop" data-name="48-Develop"><path d="M32,64a1,1,0,0,1-.555-.168l-3-2A1,1,0,0,1,28,61.069L27.625,55.6a24.01,24.01,0,0,1-9.217-3.821l-4.136,3.6a.994.994,0,0,1-.853.227L9.883,54.9a1,1,0,0,1-.784-.784l-.707-3.536a1,1,0,0,1,.227-.853l3.6-4.136A24.01,24.01,0,0,1,8.4,36.375L2.931,36a1,1,0,0,1-.763-.443l-2-3a1,1,0,0,1,0-1.11l2-3A1,1,0,0,1,2.931,28L8.4,27.625a24.01,24.01,0,0,1,3.821-9.217l-3.6-4.136a1,1,0,0,1-.227-.853L9.1,9.883A1,1,0,0,1,9.883,9.1l3.536-.707a1,1,0,0,1,.853.227l4.136,3.6A24.01,24.01,0,0,1,27.625,8.4L28,2.931a1,1,0,0,1,.443-.763l3-2a1,1,0,0,1,1.11,0l3,2A1,1,0,0,1,36,2.931L36.375,8.4a24.021,24.021,0,0,1,9.218,3.821l4.135-3.6a1,1,0,0,1,.853-.227l3.535.707a1,1,0,0,1,.784.784l.707,3.536a1,1,0,0,1-.226.853l-3.6,4.136A24.013,24.013,0,0,1,55.6,27.625L61.068,28a1,1,0,0,1,.764.443l2,3a1,1,0,0,1,0,1.11l-2,3a1,1,0,0,1-.764.443l-5.468.377a24.013,24.013,0,0,1-3.821,9.217l3.6,4.136a1,1,0,0,1,.226.853L54.9,54.117a1,1,0,0,1-.784.784l-3.535.707a1,1,0,0,1-.853-.227l-4.135-3.6A24.021,24.021,0,0,1,36.375,55.6L36,61.069a1,1,0,0,1-.443.763l-3,2A1,1,0,0,1,32,64Zm-2.036-3.559L32,61.8l2.036-1.357.4-5.766a1,1,0,0,1,.849-.92A21.976,21.976,0,0,0,45.06,49.7a1,1,0,0,1,1.252.05l4.359,3.8,2.4-.479.48-2.4-3.8-4.36a1,1,0,0,1-.05-1.251,22,22,0,0,0,4.052-9.776,1,1,0,0,1,.921-.85l5.764-.4L61.8,32,60.44,29.964l-5.764-.4a1,1,0,0,1-.921-.85A22,22,0,0,0,49.7,18.94a1,1,0,0,1,.05-1.251l3.8-4.36-.48-2.4-2.4-.479-4.359,3.8a1,1,0,0,1-1.252.05,21.976,21.976,0,0,0-9.777-4.052,1,1,0,0,1-.849-.92l-.4-5.766L32,2.2,29.964,3.559l-.4,5.766a1,1,0,0,1-.85.92A21.981,21.981,0,0,0,18.94,14.3a1,1,0,0,1-1.251-.05l-4.36-3.8-2.4.48-.48,2.4,3.8,4.36a1,1,0,0,1,.05,1.251,21.981,21.981,0,0,0-4.052,9.776,1,1,0,0,1-.92.85l-5.766.4L2.2,32l1.357,2.036,5.766.4a1,1,0,0,1,.92.85A21.981,21.981,0,0,0,14.3,45.06a1,1,0,0,1-.05,1.251l-3.8,4.36.48,2.4,2.4.48,4.36-3.8a1,1,0,0,1,1.251-.05,21.981,21.981,0,0,0,9.776,4.052,1,1,0,0,1,.85.92Z"/><path d="M32,51A19,19,0,1,1,51,32,19.021,19.021,0,0,1,32,51Zm0-36A17,17,0,1,0,49,32,17.019,17.019,0,0,0,32,15Z"/><path d="M41,39H39V37h.865a5.865,5.865,0,0,1,.877-3.977A2.715,2.715,0,0,1,42,32.155V32h2v1a1,1,0,0,1-1,1,.812.812,0,0,0-.71.291c-.61.742-.472,2.688-.31,3.514A1,1,0,0,1,41,39Z"/><path d="M44,32H42v-.155a2.715,2.715,0,0,1-1.258-.868A5.865,5.865,0,0,1,39.865,27H39V25h2a1,1,0,0,1,.98,1.2c-.162.826-.3,2.772.31,3.514A.812.812,0,0,0,43,30a1,1,0,0,1,1,1Z"/><rect x="31" y="31" width="2" height="2"/><rect x="27" y="31" width="2" height="2"/><rect x="35" y="31" width="2" height="2"/><path d="M22,32H20V31a1,1,0,0,1,1-1,.81.81,0,0,0,.71-.291c.611-.742.472-2.688.309-3.514A1,1,0,0,1,23,25h2v2h-.865a5.871,5.871,0,0,1-.877,3.977A2.715,2.715,0,0,1,22,31.845Z"/><path d="M25,39H23a1,1,0,0,1-.981-1.2c.163-.826.3-2.772-.309-3.514A.81.81,0,0,0,21,34a1,1,0,0,1-1-1V32h2v.155a2.715,2.715,0,0,1,1.258.868A5.871,5.871,0,0,1,24.135,37H25Z"/></g></svg>