<svg xmlns="http://www.w3.org/2000/svg" viewBox="0 0 64 64"><title>49-Coding</title><g id="_49-Coding" data-name="49-Coding"><g id="_Group_" data-name="&lt;Group&gt;"><path d="M32,64a1,1,0,0,1-.555-.168l-3-2A1,1,0,0,1,28,61.068l-.375-5.47a23.841,23.841,0,0,1-9.216-3.815l-4.134,3.6a.987.987,0,0,1-.853.226l-3.54-.71a1,1,0,0,1-.784-.783l-.71-3.54a1,1,0,0,1,.226-.854l3.6-4.134A23.846,23.846,0,0,1,8.4,36.374L2.932,36a1,1,0,0,1-.764-.443l-2-3a1,1,0,0,1,0-1.11l2-3A1,1,0,0,1,2.932,28l5.47-.376a23.846,23.846,0,0,1,3.815-9.215l-3.6-4.134a1,1,0,0,1-.226-.854l.71-3.54A1,1,0,0,1,9.884,9.1l3.54-.71a1,1,0,0,1,.853.226l4.134,3.6A23.841,23.841,0,0,1,27.627,8.4L28,2.932a1,1,0,0,1,.443-.764l3-2a1,1,0,0,1,1.11,0l3,2A1,1,0,0,1,36,2.932l.375,5.47a23.841,23.841,0,0,1,9.216,3.815l4.134-3.6a1,1,0,0,1,.853-.226l3.54.71a1,1,0,0,1,.784.783l.71,3.54a1,1,0,0,1-.226.854l-3.6,4.134A23.846,23.846,0,0,1,55.6,27.626l5.47.376a1,1,0,0,1,.764.443l2,3a1,1,0,0,1,0,1.11l-2,3a1,1,0,0,1-.764.443l-5.47.376a23.846,23.846,0,0,1-3.815,9.215l3.6,4.134a1,1,0,0,1,.226.854l-.71,3.54a1,1,0,0,1-.784.783l-3.54.71a.991.991,0,0,1-.853-.226l-4.134-3.6A23.841,23.841,0,0,1,36.373,55.6L36,61.068a1,1,0,0,1-.443.764l-3,2A1,1,0,0,1,32,64Zm-2.036-3.559L32,61.8l2.036-1.357.4-5.769a1,1,0,0,1,.851-.921,21.822,21.822,0,0,0,9.772-4.044,1,1,0,0,1,1.253.049l4.358,3.8,2.4-.483.483-2.4-3.8-4.359a1,1,0,0,1-.049-1.253,21.816,21.816,0,0,0,4.044-9.77,1,1,0,0,1,.921-.851l5.768-.4L61.8,32,60.44,29.964l-5.768-.4a1,1,0,0,1-.921-.851,21.816,21.816,0,0,0-4.044-9.77,1,1,0,0,1,.049-1.253l3.8-4.359-.483-2.4-2.4-.483-4.358,3.8a1,1,0,0,1-1.253.049,21.822,21.822,0,0,0-9.772-4.044,1,1,0,0,1-.851-.921l-.4-5.769L32,2.2,29.964,3.559l-.4,5.769a1,1,0,0,1-.851.921,21.822,21.822,0,0,0-9.772,4.044,1,1,0,0,1-1.253-.049l-4.358-3.8-2.4.483-.483,2.4,3.8,4.359a1,1,0,0,1,.049,1.253,21.816,21.816,0,0,0-4.044,9.77,1,1,0,0,1-.921.851l-5.768.4L2.2,32,3.56,34.036l5.768.4a1,1,0,0,1,.921.851,21.816,21.816,0,0,0,4.044,9.77,1,1,0,0,1-.049,1.253l-3.8,4.359.483,2.4,2.4.483,4.358-3.8a1,1,0,0,1,1.253-.049,21.822,21.822,0,0,0,9.772,4.044,1,1,0,0,1,.851.921Z"/></g><path d="M34,48H30a1,1,0,0,1-.861-.491l-13-22a1,1,0,0,1,.029-1.064l4-6A1,1,0,0,1,21,18H43a1,1,0,0,1,.832.445l4,6a1,1,0,0,1,.029,1.064l-13,22A1,1,0,0,1,34,48Zm-3.43-2h2.86L45.819,25.032,42.465,20H21.535l-3.354,5.032Z"/><rect x="17" y="24" width="30" height="2"/><path d="M38,26a1,1,0,0,1-.707-.293l-5.226-5.226-4.3,5.159a1,1,0,0,1-.724.359.993.993,0,0,1-.752-.292l-6-6,1.414-1.414,5.226,5.226,4.3-5.159A1,1,0,0,1,31.955,18a1.028,1.028,0,0,1,.752.292l5.226,5.226,4.3-5.159,1.538,1.28-5,6a1,1,0,0,1-.724.359Z"/><path d="M32,48h-.021a1,1,0,0,1-.955-.778l-5-22,1.952-.444,4.112,18.1,4.947-18.139,1.93.526-6,22A1,1,0,0,1,32,48Z"/><path d="M32,48A17.019,17.019,0,0,1,15,31h2a15,15,0,0,0,30,0h2A17.019,17.019,0,0,1,32,48Z"/></g></svg>