<?xml version="1.0" encoding="utf-8"?>
<!-- Generator: Adobe Illustrator 16.0.0, SVG Export Plug-In . SVG Version: 6.00 Build 0)  -->
<!DOCTYPE svg PUBLIC "-//W3C//DTD SVG 1.1//EN" "http://www.w3.org/Graphics/SVG/1.1/DTD/svg11.dtd">
<svg version="1.1" xmlns="http://www.w3.org/2000/svg" xmlns:xlink="http://www.w3.org/1999/xlink" x="0px" y="0px" width="64px"
	 height="64px" viewBox="0 0 64 64" enable-background="new 0 0 64 64" xml:space="preserve">
<g id="_x32_5_purse_x2C__money_x2C__coin_x2C__banknote_x2C__payment_x2C__shop_x2C__shopping">
</g>
<g id="_x32_4_pay_x2C__click_x2C__hand_x2C__coin_x2C__money_x2C__shop_x2C__payment">
</g>
<g id="_x32_3_card_x2C__discount_x2C__sale_x2C__shop_x2C__shopping_x2C__commerce_x2C__market">
</g>
<g id="_x32_2_safe_x2C__box_x2C__key_x2C__thing_x2C__shop_x2C__shopping_x2C__commerce">
</g>
<g id="_x32_1_cashbox_x2C__money_x2C__purchase_x2C__list_x2C__check_x2C__shop_x2C__shopping">
</g>
<g id="_x32_0_search_x2C__magnifier_x2C__basket_x2C__shop_x2C__shopping_x2C__commerce_x2C__market">
</g>
<g id="_x31_9_return_x2C__box_x2C__purchase_x2C__shipping_x2C__delivery_x2C__shop_x2C__shopping">
</g>
<g id="_x31_8_review_x2C__client_x2C__buyer_x2C__talk_x2C__shop_x2C__shopping_x2C__commerce">
</g>
<g id="_x31_7_manager_x2C__consultant_x2C__shop_x2C__shopping_x2C__commerce_x2C__market_x2C__badge">
</g>
<g id="_x31_6_check_x2C__list_x2C__cashbox_x2C__purchase_x2C__shop_x2C__shopping_x2C__commerce">
</g>
<g id="_x31_5_coupon_x2C__sale_x2C__discount_x2C__shop_x2C__shopping_x2C__commerce_x2C__market">
</g>
<g id="_x31_4_sale_x2C__discount_x2C__box_x2C__gift_x2C__shop_x2C__shopping_x2C__commerce">
</g>
<g id="_x31_3_map_x2C__pin_x2C__marker_x2C__location_x2C__shop_x2C__shopping_x2C__basket">
</g>
<g id="_x31_2_operator_x2C__call_x2C__center_x2C__shop_x2C__shopping_x2C__commerce_x2C__market">
</g>
<g id="_x31_1_courier_x2C__box_x2C__shipping_x2C__purchase_x2C__shop_x2C__shopping_x2C__commerce">
</g>
<g id="_x31_0_box_x2C__shipping_x2C__delivery_x2C__purchase_x2C__shop_x2C__shopping_x2C__commerce">
</g>
<g id="_x39__shipping_x2C__delivery_x2C__box_x2C__crane_x2C__shop_x2C__shopping_x2C__commerce">
</g>
<g id="_x38__computer_x2C__monitor_x2C__desktop_x2C__shop_x2C__shopping_x2C__commerce_x2C__market">
</g>
<g id="_x37__mobile_x2C__phone_x2C__app_x2C__shop_x2C__shopping_x2C__commerce_x2C__market">
</g>
<g id="_x36__food_x2C__market_x2C__purchase_x2C__shop_x2C__shopping_x2C__commerce_x2C__basket">
</g>
<g id="_x35__discount_x2C__sale_x2C__purchase_x2C__pocket_x2C__shop_x2C__shopping_x2C__commerce">
	<g>
		<g>
			<g>
				<polygon fill="#8CC152" points="2.502,30.743 31.498,30.743 33.498,33.743 0.5,33.743 				"/>
			</g>
			<path fill="#A0D468" d="M3.5,33.743h26.998h3v3l-0.002,18.999c0,1.65-1.35,3-3,3H3.502c-1.65,0-3-1.35-3-3L0.5,36.743v-3H3.5z"/>
			<g>
				<path fill="#F5F7FA" d="M17,47.242c7.818,0,9.969-10.298,9.99-10.402c0.053-0.271-0.121-0.533-0.393-0.588
					c-0.266-0.057-0.533,0.12-0.588,0.392c-0.02,0.097-2.012,9.599-9.01,9.599c-7.01,0-8.99-9.502-9.01-9.598
					c-0.055-0.272-0.332-0.446-0.588-0.393c-0.271,0.054-0.447,0.317-0.393,0.588C7.029,36.944,9.18,47.242,17,47.242z"/>
			</g>
			<g>
				<path fill="#8CC152" d="M6.504,55.145h20.992c0.277,0,0.5-0.224,0.5-0.5s-0.223-0.5-0.5-0.5H6.504c-0.277,0-0.5,0.224-0.5,0.5
					S6.227,55.145,6.504,55.145z"/>
			</g>
		</g>
		<g>
			<path fill="#ED5565" d="M63.5,18.742v2.584v4.979v29.438c0,1.65-1.35,3-3,3H26.996c-1.65,0-3-1.35-3-3V26.305v-4.563v-3H63.5z"/>
			<g>
				<path fill="#DA4453" d="M30.493,55.145h27.001c0.275,0,0.5-0.224,0.5-0.5s-0.225-0.5-0.5-0.5H30.493c-0.275,0-0.5,0.224-0.5,0.5
					S30.218,55.145,30.493,55.145z"/>
			</g>
			<g>
				<polygon fill="#DA4453" points="23.996,18.742 63.5,18.742 61.498,15.741 25.998,15.741 				"/>
			</g>
		</g>
		<g>
			<path fill="#656D78" d="M52.998,24.242c0.014,0,0.027-0.001,0.043-0.002c0.273-0.022,0.479-0.265,0.455-0.54
				c-0.063-0.753-1.629-18.442-9.498-18.442S34.563,22.947,34.5,23.7c-0.023,0.275,0.182,0.518,0.457,0.54
				c0.279,0.022,0.518-0.181,0.539-0.456c0.016-0.176,1.547-17.526,8.502-17.526c6.959,0,8.488,17.351,8.502,17.526
				C52.521,24.045,52.74,24.242,52.998,24.242z"/>
		</g>
		<g>
			<g>
				<path fill="#F5F7FA" d="M34.992,48.732c-0.128,0-0.256-0.049-0.354-0.146c-0.195-0.195-0.195-0.512,0-0.707l18-17.998
					c0.195-0.195,0.512-0.195,0.707,0c0.195,0.195,0.195,0.511,0,0.707l-18,17.999C35.248,48.684,35.12,48.732,34.992,48.732z"/>
			</g>
			<g>
				<path fill="#F5F7FA" d="M49.494,48.732c-2.206,0-4-1.794-4-4s1.794-4,4-4s4,1.794,4,4S51.7,48.732,49.494,48.732z
					 M49.494,41.732c-1.654,0-3,1.346-3,3s1.346,3,3,3s3-1.346,3-3S51.148,41.732,49.494,41.732z"/>
			</g>
			<g>
				<path fill="#F5F7FA" d="M38.494,37.732c-2.206,0-4-1.794-4-4c0-2.205,1.794-3.998,4-3.998s4,1.793,4,3.998
					C42.494,35.938,40.7,37.732,38.494,37.732z M38.494,30.734c-1.654,0-3,1.345-3,2.999c0,1.654,1.346,3,3,3s3-1.346,3-3
					C41.494,32.079,40.148,30.734,38.494,30.734z"/>
			</g>
		</g>
	</g>
</g>
<g id="_x34__badge_x2C__discount_x2C__sale_x2C__shop_x2C__shopping_x2C__commerce_x2C__market">
</g>
<g id="_x33__food_x2C__pocket_x2C__purchase_x2C__shop_x2C__shopping_x2C__commerce_x2C__supermarket">
</g>
<g id="_x32__shop_x2C__shopping_x2C__commerce_x2C__supermarket_x2C__market_x2C__cart">
</g>
<g id="_x31__list_x2C__check_x2C__notebook_x2C__pen_x2C__shop_x2C__shopping_x2C__commerce">
</g>
</svg>
