<svg xmlns="http://www.w3.org/2000/svg" viewBox="0 0 64 64"><title>5-Browser</title><g id="_5-Browser" data-name="5-Browser"><g id="_Group_" data-name="&lt;Group&gt;"><path d="M61,51H3a3,3,0,0,1-3-3V4A3,3,0,0,1,3,1H61a3,3,0,0,1,3,3V48A3,3,0,0,1,61,51ZM3,3A1,1,0,0,0,2,4V48a1,1,0,0,0,1,1H61a1,1,0,0,0,1-1V4a1,1,0,0,0-1-1Z"/><path d="M45,63H19a1,1,0,0,1-1-1V59a1,1,0,0,1,.126-.486l5-9,1.748.972L20,59.259V61H44V59.259l-4.874-8.773,1.748-.972,5,9A1,1,0,0,1,46,59v3A1,1,0,0,1,45,63Z"/><rect x="19" y="58" width="26" height="2"/><rect x="16" y="61" width="3" height="2"/><rect x="45" y="61" width="3" height="2"/><rect x="1" y="41" width="62" height="2"/></g><rect x="1" y="12" width="62" height="2"/><rect x="4" y="16" width="2" height="2"/><rect x="8" y="16" width="2" height="2"/><rect x="13" y="16" width="46" height="2"/><rect x="1" y="20" width="62" height="2"/></g></svg>