<svg xmlns="http://www.w3.org/2000/svg" viewBox="0 0 64 64"><g id="Layer_2" data-name="Layer 2"><path d="M40,63l-3.317-1.106A4.576,4.576,0,0,0,32,63h0a4.576,4.576,0,0,0-4.683-1.106L24,63l2.192-2.923a4.574,4.574,0,0,0,.9-2.42L28,45h8l.9,12.657a4.574,4.574,0,0,0,.9,2.42Z" style="fill:#c67a60"/><path d="M37.808,60.077a4.568,4.568,0,0,1-.667-1.282A4.57,4.57,0,0,0,35,60a4.576,4.576,0,0,0-4.683-1.106A1.092,1.092,0,0,1,29.1,57.2l.094-.126a4.574,4.574,0,0,0,.9-2.42h0A1.79,1.79,0,0,1,31.9,53H32c1.566,0,3.09-.061,4.557-.2L36,45H28l-.557,7.8h0L27.1,57.657a4.574,4.574,0,0,1-.9,2.42L24,63l3.317-1.106A4.576,4.576,0,0,1,32,63a4.576,4.576,0,0,1,4.683-1.106L40,63Z" style="fill:#b26049"/><path d="M53,34c0,13.807-9.4,17-21,17S11,47.807,11,34,32,1,32,1,53,20.193,53,34Z" style="fill:#85b27c"/><path d="M52.492,30.055a6.039,6.039,0,0,1-2.342,6.323,13.975,13.975,0,0,1-15.993.213,3.866,3.866,0,0,0-4.314,0,13.975,13.975,0,0,1-15.993-.213,6.039,6.039,0,0,1-2.342-6.323C14.7,16.811,32,1,32,1S49.3,16.811,52.492,30.055Z" style="fill:#629955"/><path d="M35,48c-11.6,0-21-3.193-21-17C14,20.961,25.1,8.082,31.156,1.8,27.246,5.545,11,21.854,11,34c0,13.807,9.4,17,21,17,7.792,0,14.587-1.447,18.212-6.58C46.386,47.144,40.988,48,35,48Z" style="fill:#699b5d"/><path d="M46,36a13.92,13.92,0,0,1-7.843-2.409,3.866,3.866,0,0,0-4.314,0,13.975,13.975,0,0,1-15.993-.213,6.04,6.04,0,0,1-2.342-6.323C17.786,17.6,27.254,6.839,32.486,1.454,32.176,1.161,32,1,32,1S14.7,16.811,11.508,30.055a6.04,6.04,0,0,0,2.342,6.323,13.975,13.975,0,0,0,15.993.213,3.866,3.866,0,0,1,4.314,0,13.975,13.975,0,0,0,15.993-.213A6,6,0,0,0,51.644,34.8,13.912,13.912,0,0,1,46,36Z" style="fill:#508c3f"/><path d="M32,1A106.761,106.761,0,0,0,16.747,18.845a4,4,0,0,0,3.364,6.149L22,25a13.917,13.917,0,0,0,7.842-2.407,3.865,3.865,0,0,1,4.316,0A13.917,13.917,0,0,0,42,25l1.889-.006a4,4,0,0,0,3.364-6.149A106.761,106.761,0,0,0,32,1Z" style="fill:#85b27c"/><path d="M47,22a13.917,13.917,0,0,1-7.842-2.407,3.865,3.865,0,0,0-4.316,0A13.917,13.917,0,0,1,27,22l-1.889-.006a4,4,0,0,1-3.364-6.15A98.4,98.4,0,0,1,33.007,1.953C32.376,1.345,32,1,32,1A106.779,106.779,0,0,0,16.747,18.844a4,4,0,0,0,3.364,6.15L22,25a13.917,13.917,0,0,0,7.842-2.407,3.865,3.865,0,0,1,4.316,0A13.917,13.917,0,0,0,42,25l1.889-.006a4,4,0,0,0,3.869-3Z" style="fill:#699b5d"/><path d="M37.917,11a1,1,0,0,1-.75-.339c-.616-.7-1.217-1.361-1.79-1.983a1,1,0,1,1,1.469-1.357c.585.633,1.2,1.307,1.821,2.018A1,1,0,0,1,37.917,11Z" style="fill:#fff"/><path d="M54,34C54,19.914,33.545,1.058,32.675.262a1,1,0,0,0-1.35,0C30.455,1.058,10,19.914,10,34c0,13.138,8.326,16.815,16.517,17.727L26.1,57.586a3.573,3.573,0,0,1-.706,1.891L23.2,62.4a1,1,0,0,0,1.116,1.549l3.317-1.106a3.559,3.559,0,0,1,3.66.864,1,1,0,0,0,1.414,0,3.555,3.555,0,0,1,3.66-.864l3.317,1.106A1.019,1.019,0,0,0,40,64a1,1,0,0,0,.8-1.6l-2.193-2.923a3.573,3.573,0,0,1-.706-1.891l-.418-5.859C45.674,50.815,54,47.138,54,34ZM35.907,57.729a5.558,5.558,0,0,0,1.1,2.948l.271.362L37,60.946a5.541,5.541,0,0,0-5,.747,5.536,5.536,0,0,0-5-.747l-.279.093.271-.362a5.558,5.558,0,0,0,1.1-2.948l.416-5.831c1.19.074,2.363.1,3.491.1s2.3-.028,3.491-.1ZM32,50c-13.832,0-20-4.935-20-16,0-3.463,1.412-7.314,3.493-11.116a5.141,5.141,0,0,0,.22.479A4.95,4.95,0,0,0,20.107,26L22,26a14.969,14.969,0,0,0,4.217-.6,1,1,0,1,0-.563-1.919A12.978,12.978,0,0,1,22,24l-1.89,0a2.977,2.977,0,0,1-2.641-1.584,2.921,2.921,0,0,1,.109-3.011A105.938,105.938,0,0,1,32,2.375c3.2,3.066,16.8,16.61,19.519,27.914h0a5.022,5.022,0,0,1-1.954,5.276,12.974,12.974,0,0,1-14.847.2,4.878,4.878,0,0,0-5.438,0,12.981,12.981,0,0,1-13.765.5,1,1,0,1,0-1,1.731,14.981,14.981,0,0,0,15.89-.578,2.864,2.864,0,0,1,3.192,0,14.976,14.976,0,0,0,17.138-.229,7,7,0,0,0,1.183-1.1C51.157,45.687,44.927,50,32,50Z"/><path d="M30.4,23.42a2.867,2.867,0,0,1,3.194,0A14.9,14.9,0,0,0,42,26l1.89,0a5,5,0,0,0,2.62-.744,1,1,0,0,0-1.055-1.7A2.955,2.955,0,0,1,43.887,24L42,24a12.9,12.9,0,0,1-7.28-2.235,4.885,4.885,0,0,0-5.44,0A1,1,0,0,0,30.4,23.42Z"/></g></svg>