<?xml version="1.0" encoding="utf-8"?>
<!-- Generator: Adobe Illustrator 16.0.0, SVG Export Plug-In . SVG Version: 6.00 Build 0)  -->
<!DOCTYPE svg PUBLIC "-//W3C//DTD SVG 1.1//EN" "http://www.w3.org/Graphics/SVG/1.1/DTD/svg11.dtd">
<svg version="1.1" id="Layer_1" xmlns="http://www.w3.org/2000/svg" xmlns:xlink="http://www.w3.org/1999/xlink" x="0px" y="0px"
	 width="512px" height="512px" viewBox="0 0 512 512" enable-background="new 0 0 512 512" xml:space="preserve">
<g id="_x35_._anchor_x2C__pirate_x2C__seafaring_x2C__crime_x2C__bandit_x2C__rope_1_">
	<g>
		<path d="M80.116,423.882c-2.069,0-3.818-1.594-3.974-3.686L68.148,316.27c-0.133-1.64,0.75-3.177,2.217-3.903
			c1.476-0.703,3.216-0.469,4.442,0.625l79.944,71.949c1.64,1.467,1.772,3.997,0.297,5.637c-1.483,1.646-3.998,1.779-5.652,0.296
			l-72.512-65.267l7.222,93.965c0.172,2.202-1.476,4.131-3.677,4.295C80.327,423.882,80.226,423.882,80.116,423.882z"/>
	</g>
	<g>
		<path d="M256,511.819c-1.499,0-2.936-0.844-3.615-2.295c-1.475-3.123-14.638-5.535-26.255-7.667
			c-38.176-6.979-102.084-18.674-125.81-88.688c-0.71-2.092,0.414-4.356,2.506-5.066c2.085-0.71,4.364,0.413,5.067,2.506
			c22.211,65.548,83.222,76.72,119.681,83.395c17.355,3.169,28.824,5.27,32.04,12.116c0.945,1.999,0.086,4.38-1.912,5.324
			C257.155,511.694,256.569,511.819,256,511.819z"/>
	</g>
	<g>
		<path d="M233.57,464.071c-20.54,0-81.849-5.34-108.611-66.57c-0.882-2.021,0.039-4.379,2.061-5.262
			c2.022-0.882,4.38,0.039,5.262,2.062c29.94,68.476,106.558,61.644,107.331,61.573c2.163-0.188,4.153,1.39,4.372,3.584
			c0.226,2.193-1.382,4.161-3.576,4.379C240.269,463.853,237.771,464.071,233.57,464.071z"/>
	</g>
	<g>
		<path d="M240.011,386.205c-2.209,0-3.997-1.788-3.997-3.997V221.681l-13.646-13.646h-76.196c-2.209,0-3.997-1.788-3.997-3.998
			c0-2.209,1.788-3.997,3.997-3.997h77.852c1.062,0,2.076,0.422,2.826,1.171l15.988,15.989c0.75,0.749,1.171,1.765,1.171,2.826
			v162.183C244.008,384.417,242.221,386.205,240.011,386.205z"/>
	</g>
	<g>
		<path d="M240.011,463.853c-2.209,0-3.997-1.787-3.997-3.996V422.78c0-2.209,1.788-3.997,3.997-3.997
			c2.21,0,3.998,1.788,3.998,3.997v37.076C244.008,462.065,242.221,463.853,240.011,463.853z"/>
	</g>
	<g>
		<path d="M80.124,423.882c-0.703,0-1.413-0.188-2.054-0.57c-1.897-1.132-2.514-3.592-1.374-5.488l23.983-39.972
			c0.843-1.405,2.49-2.132,4.083-1.882l47.966,7.994c2.179,0.367,3.654,2.42,3.287,4.599c-0.367,2.187-2.467,3.677-4.599,3.286
			l-45.28-7.549l-22.586,37.646C82.802,423.194,81.475,423.882,80.124,423.882z"/>
	</g>
	<g>
		<path d="M431.884,423.882c-0.109,0-0.211,0-0.312-0.016c-2.201-0.164-3.849-2.093-3.678-4.295l7.222-93.965l-72.511,65.267
			c-1.647,1.468-4.169,1.343-5.652-0.296c-1.476-1.64-1.343-4.17,0.297-5.637l79.943-71.949c1.226-1.094,2.975-1.328,4.442-0.625
			c1.468,0.727,2.35,2.264,2.217,3.903l-7.994,103.927C435.701,422.288,433.944,423.882,431.884,423.882z"/>
	</g>
	<g>
		<path d="M256,511.819c-0.602,0-1.21-0.141-1.788-0.422c-1.975-0.983-2.771-3.388-1.788-5.363
			c3.186-6.37,13.632-8.268,30.932-11.406c36.771-6.667,98.321-17.815,120.751-84.019c0.702-2.093,2.99-3.224,5.066-2.506
			c2.092,0.71,3.217,2.975,2.506,5.066c-23.943,70.669-88.391,82.349-126.895,89.328c-11.164,2.029-23.812,4.317-25.209,7.112
			C258.873,511.007,257.46,511.819,256,511.819z"/>
	</g>
	<g>
		<path d="M278.429,464.071c-4.207,0-6.698-0.219-6.838-0.234c-2.194-0.218-3.795-2.186-3.576-4.371
			c0.219-2.202,2.217-3.771,4.364-3.592c3.177,0.312,77.453,6.793,107.338-61.573c0.891-2.022,3.248-2.943,5.263-2.062
			c2.021,0.883,2.943,3.24,2.061,5.262C360.286,458.724,298.978,464.071,278.429,464.071z"/>
	</g>
	<g>
		<path d="M271.988,389.108c-2.209,0-3.997-1.787-3.997-3.996V220.025c0-1.062,0.422-2.077,1.171-2.826l15.989-15.989
			c0.749-0.749,1.764-1.171,2.826-1.171h86.08c2.209,0,3.996,1.788,3.996,3.997c0,2.21-1.787,3.998-3.996,3.998h-84.426
			l-13.646,13.646v163.432C275.985,387.321,274.198,389.108,271.988,389.108z"/>
	</g>
	<g>
		<path d="M271.988,463.853c-2.209,0-3.997-1.787-3.997-3.996v-34.07c0-2.209,1.788-3.997,3.997-3.997
			c2.21,0,3.997,1.788,3.997,3.997v34.07C275.985,462.065,274.198,463.853,271.988,463.853z"/>
	</g>
	<g>
		<path d="M374.042,176.057h-86.064c-1.062,0-2.077-0.422-2.826-1.172l-15.989-15.988c-1.562-1.562-1.562-4.091,0-5.652
			s4.091-1.562,5.652,0l14.817,14.817h84.41c2.209,0,3.996,1.788,3.996,3.997C378.038,174.269,376.251,176.057,374.042,176.057z"/>
	</g>
	<g>
		<path d="M224.022,176.057h-78.195c-2.209,0-3.997-1.788-3.997-3.998c0-2.209,1.788-3.997,3.997-3.997h76.54l14.817-14.817
			c1.562-1.562,4.091-1.562,5.652,0s1.562,4.091,0,5.652l-15.988,15.988C226.099,175.635,225.084,176.057,224.022,176.057z"/>
	</g>
	<g>
		<path d="M431.876,423.882c-1.351,0-2.678-0.688-3.428-1.937L405.862,384.3l-45.28,7.549c-2.123,0.391-4.231-1.1-4.599-3.286
			c-0.366-2.179,1.109-4.231,3.287-4.599l47.967-7.994c1.592-0.273,3.239,0.477,4.082,1.882l23.983,39.972
			c1.14,1.896,0.523,4.356-1.374,5.488C433.289,423.694,432.578,423.882,431.876,423.882z"/>
	</g>
	<g>
		<path d="M127.965,216.028c-15.427,0-27.98-12.554-27.98-27.98s12.553-27.98,27.98-27.98c11.82,0,22.422,7.483,26.372,18.624
			c0.742,2.08-0.343,4.368-2.428,5.105c-2.069,0.718-4.364-0.352-5.098-2.428c-2.833-7.959-10.399-13.308-18.846-13.308
			c-11.023,0-19.985,8.967-19.985,19.986s8.962,19.986,19.985,19.986c8.455,0,16.028-5.353,18.838-13.323
			c0.742-2.076,3.053-3.15,5.098-2.439c2.084,0.737,3.178,3.018,2.443,5.102C150.402,208.529,139.809,216.028,127.965,216.028z"/>
	</g>
	<g>
		<path d="M391.88,216.028c-11.812,0-22.405-7.483-26.355-18.628c-0.734-2.08,0.351-4.364,2.436-5.102
			c2.084-0.738,4.356,0.344,5.105,2.432c2.818,7.959,10.384,13.304,18.822,13.304c0,0,0.008,0,0.016,0
			c11.023,0,19.986-8.967,19.986-19.986s-8.963-19.986-19.986-19.986c-8.462,0.008-16.035,5.36-18.838,13.319
			c-0.733,2.08-3.014,3.165-5.098,2.443c-2.085-0.733-3.178-3.018-2.443-5.098c3.927-11.152,14.528-18.651,26.379-18.659
			c15.428,0,27.98,12.554,27.98,27.98s-12.553,27.98-27.98,27.98C391.896,216.028,391.888,216.028,391.88,216.028z"/>
	</g>
	<g>
		<path d="M263.986,103.443c-1.913,0-3.606-1.382-3.935-3.338c-0.367-2.174,1.101-4.234,3.279-4.602
			c9.789-1.64,18.838-6.651,25.489-14.111c1.468-1.647,3.981-1.804,5.645-0.324c1.647,1.468,1.788,3.993,0.32,5.641
			c-7.854,8.818-18.558,14.739-30.128,16.68C264.432,103.428,264.205,103.443,263.986,103.443z"/>
	</g>
	<g>
		<path d="M248.013,103.443c-0.218,0-0.445-0.016-0.671-0.055c-25.092-4.204-43.306-25.759-43.306-51.245
			c0-28.651,23.312-51.963,51.964-51.963c25.427,0,46.975,18.175,51.222,43.215c0.367,2.175-1.102,4.239-3.271,4.61
			c-2.115,0.355-4.239-1.093-4.613-3.275C295.745,23.551,277.516,8.175,256,8.175c-24.241,0-43.969,19.725-43.969,43.969
			c0,21.567,15.411,39.804,36.638,43.36c2.178,0.367,3.646,2.424,3.279,4.602C251.62,102.062,249.926,103.443,248.013,103.443z"/>
	</g>
	<g>
		<path d="M256,80.124c-15.427,0-27.98-12.554-27.98-27.98s12.554-27.98,27.98-27.98c6.261,0,12.179,2.026,17.128,5.859
			c1.741,1.351,2.062,3.86,0.711,5.605c-1.351,1.753-3.856,2.065-5.613,0.711c-3.529-2.737-7.752-4.181-12.226-4.181
			c-11.023,0-19.986,8.966-19.986,19.985S244.977,72.13,256,72.13c3.356,0,6.55-0.805,9.478-2.39
			c1.936-1.038,4.372-0.339,5.418,1.608c1.054,1.944,0.328,4.368-1.608,5.418C265.235,78.965,260.638,80.124,256,80.124z"/>
	</g>
	<g>
		<path d="M256,64.135c-6.613,0-11.992-5.379-11.992-11.991S249.387,40.152,256,40.152c2.209,0,3.997,1.787,3.997,3.997
			c0,2.209-1.788,3.997-3.997,3.997c-2.202,0-3.998,1.792-3.998,3.997c0,2.206,1.795,3.997,3.998,3.997
			c2.209,0,3.997,1.788,3.997,3.997C259.997,62.348,258.209,64.135,256,64.135z"/>
	</g>
	<g>
		<path d="M240.011,160.067c-2.209,0-3.997-1.788-3.997-3.997V97.385c0-2.209,1.788-3.997,3.997-3.997
			c2.21,0,3.998,1.788,3.998,3.997v58.686C244.008,158.279,242.221,160.067,240.011,160.067z"/>
	</g>
	<g>
		<path d="M271.988,160.067c-2.209,0-3.997-1.788-3.997-3.997V97.385c0-2.209,1.788-3.997,3.997-3.997
			c2.21,0,3.997,1.788,3.997,3.997v58.686C275.985,158.279,274.198,160.067,271.988,160.067z"/>
	</g>
	<g>
		<path d="M244.008,204.036c-1.023,0-2.045-0.39-2.826-1.171c-1.562-1.562-1.562-4.091,0-5.652l23.983-23.982
			c1.562-1.562,4.091-1.562,5.652,0s1.562,4.091,0,5.652l-23.983,23.982C246.054,203.646,245.031,204.036,244.008,204.036z"/>
	</g>
	<g>
		<path d="M267.991,204.036c-1.022,0-2.045-0.39-2.826-1.171l-23.983-23.982c-1.562-1.562-1.562-4.091,0-5.652
			c1.561-1.562,4.091-1.562,5.652,0l23.983,23.982c1.562,1.562,1.562,4.091,0,5.652
			C270.036,203.646,269.014,204.036,267.991,204.036z"/>
	</g>
	<g>
		<path d="M343.938,136.084c-2.209,0-3.997-1.787-3.997-3.997c0-46.283-37.653-83.94-83.94-83.94c-2.21,0-3.998-1.788-3.998-3.997
			c0-2.21,1.788-3.997,3.998-3.997c50.69,0,91.935,41.24,91.935,91.935C347.935,134.297,346.147,136.084,343.938,136.084z"/>
	</g>
	<g>
		<path d="M327.949,136.084c-2.21,0-3.997-1.787-3.997-3.997c0-37.47-30.486-67.952-67.952-67.952c-2.21,0-3.998-1.787-3.998-3.997
			c0-2.209,1.788-3.997,3.998-3.997c41.876,0,75.946,34.07,75.946,75.946C331.946,134.297,330.158,136.084,327.949,136.084z"/>
	</g>
	<g>
		<path d="M340.628,160.067c-0.359,0-0.727-0.047-1.086-0.152c-2.123-0.601-3.364-2.807-2.764-4.934
			c2.101-7.413,3.162-15.114,3.162-22.895c0-2.209,1.788-3.997,3.997-3.997c2.21,0,3.997,1.788,3.997,3.997
			c0,8.514-1.163,16.949-3.458,25.072C343.977,158.92,342.376,160.067,340.628,160.067z"/>
	</g>
	<g>
		<path d="M323.858,160.075c-0.445,0-0.891-0.074-1.335-0.23c-2.077-0.733-3.17-3.018-2.437-5.098
			c2.568-7.253,3.865-14.876,3.865-22.66c0-2.209,1.787-3.997,3.997-3.997c2.209,0,3.997,1.788,3.997,3.997
			c0,8.693-1.452,17.215-4.317,25.322C327.044,159.053,325.505,160.075,323.858,160.075z"/>
	</g>
	<g>
		<path d="M152.073,311.96c-2.209,0-3.997-1.787-3.997-3.997c0-37.286,18.822-71.418,50.347-91.318
			c1.851-1.179,4.333-0.628,5.512,1.245c1.179,1.87,0.617,4.337-1.249,5.516c-29.19,18.425-46.615,50.035-46.615,84.558
			C156.07,310.173,154.282,311.96,152.073,311.96z"/>
	</g>
	<g>
		<path d="M168.062,311.96c-2.209,0-3.997-1.787-3.997-3.997c0-38.004,23.843-72.562,59.341-86.002
			c2.054-0.784,4.372,0.262,5.153,2.323c0.781,2.064-0.257,4.372-2.327,5.156c-32.398,12.269-54.173,43.828-54.173,78.522
			C172.059,310.173,170.271,311.96,168.062,311.96z"/>
	</g>
	<g>
		<path d="M256,415.887c-59.513,0-107.924-48.419-107.924-107.924c0-2.209,1.788-3.997,3.997-3.997c2.209,0,3.997,1.788,3.997,3.997
			c0,55.103,44.828,99.93,99.93,99.93c2.209,0,3.997,1.788,3.997,3.997S258.209,415.887,256,415.887z"/>
	</g>
	<g>
		<path d="M256,399.898c-50.691,0-91.936-41.237-91.936-91.936c0-2.209,1.788-3.997,3.997-3.997c2.21,0,3.997,1.788,3.997,3.997
			c0,46.28,37.653,83.94,83.941,83.94c2.209,0,3.997,1.788,3.997,3.998C259.997,398.11,258.209,399.898,256,399.898z"/>
	</g>
	<g>
		<path d="M333.227,438.887c-1.226,0-2.428-0.562-3.217-1.624c-17.276-23.39-44.952-37.356-74.025-37.356
			c-2.21,0-3.997-1.788-3.997-3.997c0-2.21,1.787-3.998,3.997-3.998c31.603,0,61.675,15.178,80.459,40.604
			c1.312,1.78,0.937,4.278-0.844,5.59C334.89,438.637,334.054,438.887,333.227,438.887z"/>
	</g>
	<g>
		<path d="M318.237,445.616c-1.164,0-2.318-0.508-3.107-1.483c-14.498-17.956-36.053-28.246-59.13-28.246
			c-2.21,0-3.998-1.788-3.998-3.997s1.788-3.997,3.998-3.997c25.505,0,49.324,11.383,65.345,31.212
			c1.389,1.718,1.124,4.232-0.594,5.621C320.009,445.327,319.119,445.616,318.237,445.616z"/>
	</g>
</g>
</svg>
