<svg xmlns="http://www.w3.org/2000/svg" viewBox="0 0 64 64"><title>50-Programmer</title><g id="_50-Programmer" data-name="50-Programmer"><path d="M32,40a8.788,8.788,0,0,1-5.707-2.293C24.165,35.58,24,34.332,24,34V23c0-5.537,3.925-7,6-7h5c6.328,0,8,5.887,8,9a1,1,0,0,1-1,1H40v8c0,.332-.165,1.58-2.293,3.707A8.788,8.788,0,0,1,32,40Zm-6-6a6.47,6.47,0,0,0,1.707,2.3A6.8,6.8,0,0,0,32,38a6.8,6.8,0,0,0,4.293-1.707C37.859,34.726,38,33.927,38,33.919L38,26H31.843c-.773,2.361-4.191,3.431-5.843,3.816V34Zm4-16c-.4,0-4,.191-4,5v4.752c1.757-.48,4-1.451,4-2.752a1,1,0,0,1,1-1h9.922c-.253-1.94-1.332-6-5.922-6Z"/><path d="M45,64H19a1,1,0,0,1-1-1V46a5.785,5.785,0,0,1,6-6h5v2H24a3.85,3.85,0,0,0-4,4V62H44V46c0-3.955-3.837-4-4-4H35V40h5a5.785,5.785,0,0,1,6,6V63A1,1,0,0,1,45,64Z"/><path d="M32,46a3.887,3.887,0,0,1-4-4V38h2v4a2,2,0,0,0,4,0V38h2v4A3.887,3.887,0,0,1,32,46Z"/><rect x="24" y="50" width="2" height="13"/><rect x="38" y="50" width="2" height="13"/><path d="M32,50c-4.565,0-6.8-4.367-6.895-4.553a1,1,0,0,1,.188-1.154l3-3,1.414,1.414L27.264,45.15A6.471,6.471,0,0,0,31,47.894V45h2v4A1,1,0,0,1,32,50Z"/><path d="M32,50a1,1,0,0,1-1-1V45h2v2.894a6.47,6.47,0,0,0,3.736-2.744l-2.443-2.443,1.414-1.414,3,3a1,1,0,0,1,.188,1.154C38.8,45.633,36.565,50,32,50Z"/><rect x="31" y="49" width="2" height="10"/><path d="M40,33H39V31h1a1,1,0,0,0,0-2H39V27h1a3,3,0,0,1,0,6Z"/><path d="M25,33H24a3,3,0,0,1,0-6h1v2H24a1,1,0,0,0,0,2h1Z"/><path d="M18,30H14a1,1,0,0,1-.861-.491l-13-22A1,1,0,0,1,.168,6.445l4-6A1,1,0,0,1,5,0H27a1,1,0,0,1,.832.445l4,6a1,1,0,0,1,.029,1.064l-4.727,8-1.723-1.018,4.408-7.459L26.465,2H5.535L2.181,7.032,14.57,28h2.86l3.709-6.278,1.722,1.018-4,6.769A1,1,0,0,1,18,30Z"/><rect x="1" y="6" width="30" height="2"/><path d="M22,8a1,1,0,0,1-.707-.293L16.067,2.481l-4.3,5.159A1,1,0,0,1,11.045,8a1.018,1.018,0,0,1-.752-.292l-6-6L5.707.293l5.226,5.226L15.231.36A1,1,0,0,1,16.707.293l5.226,5.226L26.231.36l1.538,1.28-5,6A1,1,0,0,1,22.045,8Z"/><path d="M16,30h-.021a1,1,0,0,1-.955-.778l-5-22,1.952-.444,4.112,18.1L21.035,6.737l1.93.526-6,22A1,1,0,0,1,16,30Z"/><path d="M61,14H59V12h.865a5.865,5.865,0,0,1,.877-3.977A2.715,2.715,0,0,1,62,7.155V7h2V8a1,1,0,0,1-1,1,.812.812,0,0,0-.71.291c-.61.742-.472,2.688-.31,3.514A1,1,0,0,1,61,14Z"/><path d="M64,7H62V6.845a2.715,2.715,0,0,1-1.258-.868A5.865,5.865,0,0,1,59.865,2H59V0h2a1,1,0,0,1,.98,1.2c-.162.826-.3,2.772.31,3.514A.812.812,0,0,0,63,5a1,1,0,0,1,1,1Z"/><rect x="51" y="6" width="2" height="2"/><rect x="47" y="6" width="2" height="2"/><rect x="55" y="6" width="2" height="2"/><path d="M42,7H40V6a1,1,0,0,1,1-1,.812.812,0,0,0,.71-.291c.61-.742.472-2.688.31-3.514A1,1,0,0,1,43,0h2V2h-.865a5.865,5.865,0,0,1-.877,3.977A2.715,2.715,0,0,1,42,6.845Z"/><path d="M45,14H43a1,1,0,0,1-.98-1.2c.162-.826.3-2.772-.31-3.514A.812.812,0,0,0,41,9a1,1,0,0,1-1-1V7h2v.155a2.715,2.715,0,0,1,1.258.868A5.865,5.865,0,0,1,44.135,12H45Z"/><path d="M63,44H44V42H62V22H41V20H63a1,1,0,0,1,1,1V43A1,1,0,0,1,63,44Z"/><rect x="46" y="28" width="17" height="2"/><rect x="46" y="24" width="2" height="2"/><rect x="50" y="24" width="2" height="2"/><path d="M50.293,39.707l-3-3a1,1,0,0,1,0-1.414l3-3,1.414,1.414L49.414,36l2.293,2.293Z"/><path d="M55.707,39.707l-1.414-1.414L56.586,36l-2.293-2.293,1.414-1.414,3,3a1,1,0,0,1,0,1.414Z"/><path d="M20,57H1a1,1,0,0,1-1-1V34a1,1,0,0,1,1-1H20v2H2V55H20Z"/><rect x="1" y="41" width="20" height="2"/><rect x="8" y="37" width="2" height="2"/><rect x="4" y="37" width="2" height="2"/><path d="M13.707,52.707l-1.414-1.414L14.586,49l-2.293-2.293,1.414-1.414,3,3a1,1,0,0,1,0,1.414Z"/><path d="M8.293,52.707l-3-3a1,1,0,0,1,0-1.414l3-3,1.414,1.414L7.414,49l2.293,2.293Z"/></g></svg>