<svg xmlns="http://www.w3.org/2000/svg" viewBox="0 0 64 64"><title>51-Programmer</title><g id="_51-Programmer" data-name="51-Programmer"><path d="M44,40a8.788,8.788,0,0,1-5.707-2.293C36.166,35.579,36,34.332,36,34V23c0-5.537,3.925-7,6-7h5c6.328,0,8,5.887,8,9a1,1,0,0,1-1,1H52v8c0,.332-.166,1.579-2.293,3.707A8.788,8.788,0,0,1,44,40Zm-6-6.005a6.466,6.466,0,0,0,1.707,2.3,6.252,6.252,0,0,0,8.586,0C49.86,34.727,50,33.927,50,33.919L50,26H43.843c-.773,2.36-4.191,3.431-5.843,3.816v4.179ZM42,18c-.4,0-4,.191-4,5v4.752c1.757-.48,4-1.451,4-2.752a1,1,0,0,1,1-1h9.922c-.254-1.94-1.333-6-5.922-6Z"/><path d="M57,64H31a1,1,0,0,1-1-1V46a5.785,5.785,0,0,1,6-6h5v2H36a3.85,3.85,0,0,0-4,4V62H56V46c0-3.954-3.837-4-4-4H47V40h5a5.785,5.785,0,0,1,6,6V63A1,1,0,0,1,57,64Z"/><path d="M44,46a3.888,3.888,0,0,1-4-4V38h2v4a2,2,0,0,0,4,0V38h2v4A3.888,3.888,0,0,1,44,46Z"/><rect x="36" y="50" width="2" height="13"/><rect x="50" y="50" width="2" height="13"/><path d="M44,50c-4.565,0-6.8-4.367-6.9-4.553a1,1,0,0,1,.188-1.154l3-3,1.414,1.414L39.264,45.15A6.472,6.472,0,0,0,43,47.894V45h2v4A1,1,0,0,1,44,50Z"/><path d="M44,50a1,1,0,0,1-1-1V45h2v2.894a6.474,6.474,0,0,0,3.736-2.744l-2.443-2.443,1.414-1.414,3,3a1,1,0,0,1,.188,1.154C50.8,45.633,48.565,50,44,50Z"/><rect x="43" y="49" width="2" height="10"/><path d="M52,33H51V31h1a1,1,0,0,0,0-2H51V27h1a3,3,0,0,1,0,6Z"/><path d="M37,33H36a3,3,0,0,1,0-6h1v2H36a1,1,0,0,0,0,2h1Z"/><g id="_Group_" data-name="&lt;Group&gt;"><path d="M61,57H60V55h1a1,1,0,0,0,1-1V3a1,1,0,0,0-1-1H3A1,1,0,0,0,2,3V54a1,1,0,0,0,1,1H28v2H3a3,3,0,0,1-3-3V3A3,3,0,0,1,3,0H61a3,3,0,0,1,3,3V54A3,3,0,0,1,61,57Z"/><rect x="1" y="10" width="62" height="2"/></g><rect x="5" y="5" width="2" height="2"/><rect x="9" y="5" width="2" height="2"/><rect x="14" y="5" width="45" height="2"/><path d="M14,25H6a1,1,0,0,1-1-1V16a1,1,0,0,1,1-1h8a1,1,0,0,1,1,1v8A1,1,0,0,1,14,25ZM7,23h6V17H7Z"/><rect x="4.343" y="19" width="11.314" height="2" transform="translate(-11.213 12.929) rotate(-45)"/><path d="M14,39H6a1,1,0,0,1-1-1V30a1,1,0,0,1,1-1h8a1,1,0,0,1,1,1v8A1,1,0,0,1,14,39ZM7,37h6V31H7Z"/><rect x="4.343" y="33" width="11.314" height="2" transform="translate(-21.113 17.029) rotate(-45)"/><path d="M14,53H6a1,1,0,0,1-1-1V44a1,1,0,0,1,1-1h8a1,1,0,0,1,1,1v8A1,1,0,0,1,14,53ZM7,51h6V45H7Z"/><rect x="4.343" y="47" width="11.314" height="2" transform="translate(-31.012 21.13) rotate(-45)"/><rect x="18" y="15" width="16" height="2"/><rect x="18" y="20" width="10" height="2"/><rect x="18" y="29" width="13" height="2"/><rect x="18" y="34" width="10" height="2"/><rect x="18" y="43" width="7" height="2"/><rect x="18" y="48" width="5" height="2"/></g></svg>