<svg xmlns="http://www.w3.org/2000/svg" viewBox="0 0 64 64"><title>53-Programmer</title><g id="_53-Programmer" data-name="53-Programmer"><path d="M22,40a8.788,8.788,0,0,1-5.707-2.293C14.166,35.579,14,34.332,14,34V23c0-5.537,3.925-7,6-7h5c6.328,0,8,5.887,8,9a1,1,0,0,1-1,1H30v8c0,.332-.166,1.579-2.293,3.707A8.788,8.788,0,0,1,22,40Zm-6-6.005a6.466,6.466,0,0,0,1.707,2.3A6.8,6.8,0,0,0,22,38a6.8,6.8,0,0,0,4.293-1.707C27.86,34.727,28,33.927,28,33.919L28,26H21.843c-.773,2.36-4.191,3.431-5.843,3.816v4.179ZM20,18c-.4,0-4,.191-4,5v4.752c1.757-.48,4-1.451,4-2.752a1,1,0,0,1,1-1h9.922c-.254-1.94-1.333-6-5.922-6Z"/><path d="M35,64H9a1,1,0,0,1-1-1V46a5.785,5.785,0,0,1,6-6h5v2H14a3.85,3.85,0,0,0-4,4V62H34V46c0-3.954-3.837-4-4-4H25V40h5a5.785,5.785,0,0,1,6,6V63A1,1,0,0,1,35,64Z"/><path d="M22,46a3.888,3.888,0,0,1-4-4V38h2v4a1.882,1.882,0,0,0,2,2,1.882,1.882,0,0,0,2-2V38h2v4A3.888,3.888,0,0,1,22,46Z"/><rect x="14" y="50" width="2" height="13"/><rect x="28" y="50" width="2" height="13"/><path d="M22,50c-4.565,0-6.8-4.367-6.895-4.553a1,1,0,0,1,.188-1.154l3-3,1.414,1.414L17.264,45.15A6.472,6.472,0,0,0,21,47.894V45h2v4A1,1,0,0,1,22,50Z"/><path d="M22,50a1,1,0,0,1-1-1V45h2v2.894a6.474,6.474,0,0,0,3.736-2.744l-2.443-2.443,1.414-1.414,3,3a1,1,0,0,1,.188,1.154C28.8,45.633,26.565,50,22,50Z"/><rect x="21" y="49" width="2" height="10"/><path d="M30,33H29V31h1a1,1,0,0,0,0-2H29V27h1a3,3,0,0,1,0,6Z"/><path d="M15,33H14a3,3,0,0,1,0-6h1v2H14a1,1,0,0,0,0,2h1Z"/><path d="M35.109,55.829l-.218-1.988a26,26,0,1,0-24.513-11.4L8.716,43.557A28,28,0,1,1,35.109,55.829Z"/><path d="M38.991,38.132l-1.982-.264.575-4.315a1,1,0,0,1,.757-.841,9.911,9.911,0,0,0,2.869-1.19,1,1,0,0,1,1.13.059L45.379,33.9l1.143-.382.382-1.143L44.581,29.34a1,1,0,0,1-.059-1.13,9.911,9.911,0,0,0,1.19-2.869,1,1,0,0,1,.841-.757l3.79-.5L50.882,23l-.539-1.079-3.79-.5a1,1,0,0,1-.841-.757,9.911,9.911,0,0,0-1.19-2.869,1,1,0,0,1,.059-1.13L46.9,13.621l-.382-1.143L45.379,12.1,42.34,14.419a1,1,0,0,1-1.13.059,9.911,9.911,0,0,0-2.869-1.19,1,1,0,0,1-.757-.841l-.505-3.79L36,8.118l-1.079.539-.505,3.79a1,1,0,0,1-.757.841,9.894,9.894,0,0,0-2.868,1.19,1,1,0,0,1-1.131-.059L26.621,12.1l-1.144.382L25.1,13.621l2.324,3.039-1.588,1.215-2.646-3.46a1,1,0,0,1-.155-.924l.708-2.121a1,1,0,0,1,.632-.632l2.121-.707a.989.989,0,0,1,.924.155l2.932,2.241a11.9,11.9,0,0,1,2.174-.9l.488-3.657a1,1,0,0,1,.544-.763l2-1a1,1,0,0,1,.894,0l2,1a1,1,0,0,1,.544.763l.488,3.657a11.867,11.867,0,0,1,2.174.9l2.932-2.241a.99.99,0,0,1,.924-.155l2.121.707a.994.994,0,0,1,.632.632l.707,2.121a1,1,0,0,1-.155.924l-2.241,2.932a11.867,11.867,0,0,1,.9,2.174l3.657.488a1,1,0,0,1,.763.544l1,2a1,1,0,0,1,0,.894l-1,2a1,1,0,0,1-.763.544l-3.657.488a11.867,11.867,0,0,1-.9,2.174l2.241,2.932a1,1,0,0,1,.155.924l-.707,2.121a.994.994,0,0,1-.632.632l-2.121.707a.993.993,0,0,1-.924-.155l-2.932-2.241a11.867,11.867,0,0,1-2.174.9Z"/><path d="M36,30V28a5,5,0,1,0-4.168-7.764l-1.665-1.107A7,7,0,1,1,36,30Z"/></g></svg>