<svg xmlns="http://www.w3.org/2000/svg" viewBox="0 0 64 64"><title>54-Programmer</title><g id="_54-Programmer" data-name="54-Programmer"><g id="_Group_" data-name="&lt;Group&gt;"><path d="M18,40a9.384,9.384,0,0,1-3.388-.748,7.6,7.6,0,0,1-2.319-1.545C10.165,35.579,10,34.332,10,34V23c0-5.537,3.925-7,6-7h5c6.328,0,8,5.887,8,9a1,1,0,0,1-1,1H26v8c0,.332-.165,1.579-2.293,3.707a7.557,7.557,0,0,1-2.3,1.537A9.4,9.4,0,0,1,18,40Zm-6-6.005a6.466,6.466,0,0,0,1.707,2.3,5.622,5.622,0,0,0,1.7,1.123A7.452,7.452,0,0,0,18,38a7.471,7.471,0,0,0,2.612-.592,5.581,5.581,0,0,0,1.681-1.115C23.859,34.727,24,33.927,24,33.919L24,26H17.843c-.773,2.36-4.191,3.431-5.843,3.816v4.179ZM16,18c-.4,0-4,.191-4,5v4.752c1.757-.48,4-1.451,4-2.752a1,1,0,0,1,1-1h9.922c-.253-1.94-1.332-6-5.922-6Z"/><path d="M31,64H5a1,1,0,0,1-1-1V46a5.785,5.785,0,0,1,6-6h5v2H10a3.85,3.85,0,0,0-4,4V62H30V46c0-3.954-3.837-4-4-4H21V40h5a5.785,5.785,0,0,1,6,6V63A1,1,0,0,1,31,64Z"/><path d="M18,46a3.888,3.888,0,0,1-4-4V38h2v4a1.883,1.883,0,0,0,2,2,1.883,1.883,0,0,0,2-2V38h2v4A3.888,3.888,0,0,1,18,46Z"/><rect x="10" y="50" width="2" height="13"/><rect x="24" y="50" width="2" height="13"/><path d="M18,50c-4.565,0-6.8-4.367-6.895-4.553a1,1,0,0,1,.188-1.154l3-3,1.414,1.414L13.264,45.15A6.023,6.023,0,0,0,18,48Z"/><path d="M18,50a1,1,0,0,1-1-1V45h2v2.894a6.474,6.474,0,0,0,3.736-2.744l-2.443-2.443,1.414-1.414,3,3a1,1,0,0,1,.188,1.154C24.8,45.633,22.565,50,18,50Z"/><rect x="17" y="49" width="2" height="10"/><path d="M26,33H25V31h1a1,1,0,0,0,0-2H25V27h1a3,3,0,0,1,0,6Z"/><path d="M11,33H10a3,3,0,0,1,0-6h1v2H10a1,1,0,0,0,0,2h1Z"/><rect x="33" y="8" width="20" height="2"/><rect x="36" y="4" width="2" height="2"/><rect x="40" y="4" width="2" height="2"/><path d="M40.293,19.707l-3-3a1,1,0,0,1,0-1.414l3-3,1.414,1.414L39.414,16l2.293,2.293Z"/><path d="M45.707,19.707l-1.414-1.414L46.586,16l-2.293-2.293,1.414-1.414,3,3a1,1,0,0,1,0,1.414Z"/><path d="M39,28a1,1,0,0,1-1-1V24H33a1,1,0,0,1-1-1V1a1,1,0,0,1,1-1H53a1,1,0,0,1,1,1V23a1,1,0,0,1-1,1H45.3l-5.748,3.832A1,1,0,0,1,39,28Zm-5-6h5a1,1,0,0,1,1,1v2.132l4.445-2.964A1.006,1.006,0,0,1,45,22h7V2H34Z"/><path d="M57,45H55V43h.865a5.866,5.866,0,0,1,.877-3.977A2.717,2.717,0,0,1,58,38.154V38h2v1a1,1,0,0,1-1,1,.811.811,0,0,0-.71.29c-.61.743-.472,2.689-.31,3.516A1,1,0,0,1,57,45Z"/><path d="M60,38H58v-.154a2.717,2.717,0,0,1-1.258-.869A5.866,5.866,0,0,1,55.865,33H55V31h2a1,1,0,0,1,.98,1.194c-.162.827-.3,2.773.31,3.516A.811.811,0,0,0,59,36a1,1,0,0,1,1,1Z"/><rect x="47" y="37" width="2" height="2"/><rect x="43" y="37" width="2" height="2"/><rect x="51" y="37" width="2" height="2"/><path d="M38,38H36V37a1,1,0,0,1,1-1,.811.811,0,0,0,.71-.29c.61-.743.472-2.689.31-3.516A1,1,0,0,1,39,31h2v2h-.865a5.866,5.866,0,0,1-.877,3.977A2.717,2.717,0,0,1,38,37.846Z"/><path d="M41,45H39a1,1,0,0,1-.98-1.194c.162-.827.3-2.773-.31-3.516A.811.811,0,0,0,37,40a1,1,0,0,1-1-1V38h2v.154a2.717,2.717,0,0,1,1.258.869A5.866,5.866,0,0,1,40.135,43H41Z"/><rect x="36" y="56" width="20" height="2"/><rect x="39" y="52" width="2" height="2"/><rect x="43" y="52" width="2" height="2"/><path d="M56,64H36a1,1,0,0,1-1-1V49a1,1,0,0,1,1-1H56a1,1,0,0,1,1,1V63A1,1,0,0,1,56,64ZM37,62H55V50H37Z"/></g></g></svg>