<svg xmlns="http://www.w3.org/2000/svg" viewBox="0 0 64 64"><title>55-Programmer</title><g id="_55-Programmer" data-name="55-Programmer"><rect x="25" y="25" width="2" height="4"/><path d="M19,40a8.788,8.788,0,0,1-5.707-2.293C11.165,35.579,11,34.332,11,34V23c0-5.537,3.925-7,6-7h5c6.328,0,8,5.887,8,9a1,1,0,0,1-1,1H18.843c-.773,2.36-4.191,3.431-5.843,3.816v4.179a6.466,6.466,0,0,0,1.707,2.3A6.8,6.8,0,0,0,19,38a7.244,7.244,0,0,0,2.6-.6L22.4,39.24A9.148,9.148,0,0,1,19,40ZM17,18c-.4,0-4,.191-4,5v4.752c1.757-.48,4-1.451,4-2.752a1,1,0,0,1,1-1h9.922c-.253-1.94-1.332-6-5.922-6Z"/><path d="M30,64H6a1,1,0,0,1-1-1V46a5.785,5.785,0,0,1,6-6h5v2H11a3.85,3.85,0,0,0-4,4V62H30Z"/><path d="M19,46a3.888,3.888,0,0,1-4-4V38h2v4a1.883,1.883,0,0,0,2,2,1.883,1.883,0,0,0,2-2V38h2v4A3.888,3.888,0,0,1,19,46Z"/><rect x="11" y="50" width="2" height="13"/><rect x="25" y="55" width="2" height="8"/><path d="M19,50c-4.565,0-6.8-4.367-6.895-4.553a1,1,0,0,1,.188-1.154l3-3,1.414,1.414L14.264,45.15A6.475,6.475,0,0,0,18,47.894V45h2v4A1,1,0,0,1,19,50Z"/><rect x="18" y="45" width="2" height="4"/><rect x="18" y="49" width="2" height="10"/><path d="M12,33H11a3,3,0,0,1,0-6h1v2H11a1,1,0,0,0,0,2h1Z"/><g id="_Group_" data-name="&lt;Group&gt;"><path d="M58,56H44V54H57V30H23V54H36v2H22a1,1,0,0,1-1-1V29a1,1,0,0,1,1-1H58a1,1,0,0,1,1,1V55A1,1,0,0,1,58,56Z"/><path d="M44.008,63.124,43.117,56H36.883l-.891,7.124-1.984-.248,1-8A1,1,0,0,1,36,54h8a1,1,0,0,1,.992.876l1,8Z"/><rect x="32" y="62" width="16" height="2"/><path d="M40,46a3,3,0,1,1,3-3A3,3,0,0,1,40,46Zm0-4a1,1,0,1,0,1,1A1,1,0,0,0,40,42Z"/></g><rect x="35" y="8" width="20" height="2"/><rect x="38" y="4" width="2" height="2"/><rect x="42" y="4" width="2" height="2"/><path d="M42.293,19.707l-3-3a1,1,0,0,1,0-1.414l3-3,1.414,1.414L41.414,16l2.293,2.293Z"/><path d="M47.707,19.707l-1.414-1.414L48.586,16l-2.293-2.293,1.414-1.414,3,3a1,1,0,0,1,0,1.414Z"/><path d="M41,27a1,1,0,0,1-1-1V24H35a1,1,0,0,1-1-1V1a1,1,0,0,1,1-1H55a1,1,0,0,1,1,1V23a1,1,0,0,1-1,1H45.333L41.6,26.8A1,1,0,0,1,41,27Zm-5-5h5a1,1,0,0,1,1,1v1l2.4-1.8A1,1,0,0,1,45,22h9V2H36Z"/><path d="M29,14H27V12h.865a5.866,5.866,0,0,1,.877-3.977A2.717,2.717,0,0,1,30,7.154V7h2V8a1,1,0,0,1-1,1,.811.811,0,0,0-.71.29c-.61.743-.472,2.689-.31,3.516A1,1,0,0,1,29,14Z"/><path d="M32,7H30V6.846a2.717,2.717,0,0,1-1.258-.869A5.866,5.866,0,0,1,27.865,2H27V0h2a1,1,0,0,1,.98,1.194c-.162.827-.3,2.773.31,3.516A.811.811,0,0,0,31,5a1,1,0,0,1,1,1Z"/><rect x="19" y="6" width="2" height="2"/><rect x="15" y="6" width="2" height="2"/><rect x="23" y="6" width="2" height="2"/><path d="M10,7H8V6A1,1,0,0,1,9,5a.811.811,0,0,0,.71-.29c.61-.743.472-2.689.31-3.516A1,1,0,0,1,11,0h2V2h-.865a5.866,5.866,0,0,1-.877,3.977A2.717,2.717,0,0,1,10,6.846Z"/><path d="M13,14H11a1,1,0,0,1-.98-1.194c.162-.827.3-2.773-.31-3.516A.811.811,0,0,0,9,9,1,1,0,0,1,8,8V7h2v.154a2.717,2.717,0,0,1,1.258.869A5.866,5.866,0,0,1,12.135,12H13Z"/></g></svg>