<svg xmlns="http://www.w3.org/2000/svg" viewBox="0 0 64 64"><title>57-Error Site</title><g id="_57-Error_Site" data-name="57-Error Site"><g id="_Group_" data-name="&lt;Group&gt;"><path d="M61,51H3a3,3,0,0,1-3-3V4A3,3,0,0,1,3,1H61a3,3,0,0,1,3,3V48A3,3,0,0,1,61,51ZM3,3A1,1,0,0,0,2,4V48a1,1,0,0,0,1,1H61a1,1,0,0,0,1-1V4a1,1,0,0,0-1-1Z"/><path d="M45,63H19a1,1,0,0,1-1-1V59a.991.991,0,0,1,.126-.485l5-9,1.748.97L20,59.259V61H44V59.259l-4.874-8.774,1.748-.97,5,9A.991.991,0,0,1,46,59v3A1,1,0,0,1,45,63Z"/><rect x="19" y="58" width="26" height="2"/><rect x="16" y="61" width="3" height="2"/><rect x="45" y="61" width="3" height="2"/><rect x="1" y="41" width="62" height="2"/></g><path d="M19,30H6a1,1,0,0,1-1-1V7A1,1,0,0,1,6,6H26a1,1,0,0,1,1,1V17H25V8H7V28H19Z"/><rect x="6" y="14" width="20" height="2"/><rect x="9" y="10" width="2" height="2"/><rect x="13" y="10" width="2" height="2"/><path d="M30,38H28V34H24a2.916,2.916,0,0,1-3-3,1.026,1.026,0,0,1,.06-.342l4-11A1,1,0,0,1,26,19h3a1,1,0,0,1,1,1V32h3v2H30Zm-6.99-6.853A.888.888,0,0,0,24,32h4V21H26.7Z"/><path d="M56,38H54V34H50a2.916,2.916,0,0,1-3-3,1.026,1.026,0,0,1,.06-.342l4-11A1,1,0,0,1,52,19h3a1,1,0,0,1,1,1V32h3v2H56Zm-6.99-6.853A.888.888,0,0,0,50,32h4V21H52.7Z"/><path d="M42,38H38a3,3,0,0,1-3-3V22a3,3,0,0,1,3-3h4a3,3,0,0,1,3,3V35A3,3,0,0,1,42,38ZM38,21a1,1,0,0,0-1,1V35a1,1,0,0,0,1,1h4a1,1,0,0,0,1-1V22a1,1,0,0,0-1-1Z"/><path d="M13.293,25.707l-3-3a1,1,0,0,1,0-1.414l3-3,1.414,1.414L12.414,22l2.293,2.293Z"/><path d="M18.707,25.707l-1.414-1.414L19.586,22l-2.293-2.293,1.414-1.414,3,3a1,1,0,0,1,0,1.414Z"/><rect x="30" y="15" width="11" height="2"/><rect x="30" y="11" width="6" height="2"/></g></svg>