<?xml version="1.0" encoding="utf-8"?>
<!-- Generator: Adobe Illustrator 16.0.0, SVG Export Plug-In . SVG Version: 6.00 Build 0)  -->
<!DOCTYPE svg PUBLIC "-//W3C//DTD SVG 1.1//EN" "http://www.w3.org/Graphics/SVG/1.1/DTD/svg11.dtd">
<svg version="1.1" xmlns="http://www.w3.org/2000/svg" xmlns:xlink="http://www.w3.org/1999/xlink" x="0px" y="0px" width="64px"
	 height="64px" viewBox="0 0 64 64" enable-background="new 0 0 64 64" xml:space="preserve">
<g id="_x32_5_purse_x2C__money_x2C__coin_x2C__banknote_x2C__payment_x2C__shop_x2C__shopping">
</g>
<g id="_x32_4_pay_x2C__click_x2C__hand_x2C__coin_x2C__money_x2C__shop_x2C__payment">
</g>
<g id="_x32_3_card_x2C__discount_x2C__sale_x2C__shop_x2C__shopping_x2C__commerce_x2C__market">
</g>
<g id="_x32_2_safe_x2C__box_x2C__key_x2C__thing_x2C__shop_x2C__shopping_x2C__commerce">
</g>
<g id="_x32_1_cashbox_x2C__money_x2C__purchase_x2C__list_x2C__check_x2C__shop_x2C__shopping">
</g>
<g id="_x32_0_search_x2C__magnifier_x2C__basket_x2C__shop_x2C__shopping_x2C__commerce_x2C__market">
</g>
<g id="_x31_9_return_x2C__box_x2C__purchase_x2C__shipping_x2C__delivery_x2C__shop_x2C__shopping">
</g>
<g id="_x31_8_review_x2C__client_x2C__buyer_x2C__talk_x2C__shop_x2C__shopping_x2C__commerce">
</g>
<g id="_x31_7_manager_x2C__consultant_x2C__shop_x2C__shopping_x2C__commerce_x2C__market_x2C__badge">
</g>
<g id="_x31_6_check_x2C__list_x2C__cashbox_x2C__purchase_x2C__shop_x2C__shopping_x2C__commerce">
</g>
<g id="_x31_5_coupon_x2C__sale_x2C__discount_x2C__shop_x2C__shopping_x2C__commerce_x2C__market">
</g>
<g id="_x31_4_sale_x2C__discount_x2C__box_x2C__gift_x2C__shop_x2C__shopping_x2C__commerce">
</g>
<g id="_x31_3_map_x2C__pin_x2C__marker_x2C__location_x2C__shop_x2C__shopping_x2C__basket">
</g>
<g id="_x31_2_operator_x2C__call_x2C__center_x2C__shop_x2C__shopping_x2C__commerce_x2C__market">
</g>
<g id="_x31_1_courier_x2C__box_x2C__shipping_x2C__purchase_x2C__shop_x2C__shopping_x2C__commerce">
</g>
<g id="_x31_0_box_x2C__shipping_x2C__delivery_x2C__purchase_x2C__shop_x2C__shopping_x2C__commerce">
</g>
<g id="_x39__shipping_x2C__delivery_x2C__box_x2C__crane_x2C__shop_x2C__shopping_x2C__commerce">
</g>
<g id="_x38__computer_x2C__monitor_x2C__desktop_x2C__shop_x2C__shopping_x2C__commerce_x2C__market">
</g>
<g id="_x37__mobile_x2C__phone_x2C__app_x2C__shop_x2C__shopping_x2C__commerce_x2C__market">
</g>
<g id="_x36__food_x2C__market_x2C__purchase_x2C__shop_x2C__shopping_x2C__commerce_x2C__basket">
	<g>
		<polygon fill="#DA4453" points="60,26.5 1,26.5 4,24.5 63,24.5 		"/>
		<polygon fill="#48CFAD" points="55.64,30.504 44.968,30.504 52.079,10.012 61.47,13.432 		"/>
		<polygon fill="#E6E9ED" points="53.499,30.504 47.124,30.504 51.329,17.932 56.959,19.982 		"/>
		<rect x="38.498" y="21.502" fill="#CCD1D9" width="3.001" height="2"/>
		<path fill="#A0D468" d="M39.999,22.496c-2.209,0-4,1.793-4,4v3.668h1.039h5.922h1.039v-3.668
			C43.999,24.289,42.208,22.496,39.999,22.496z"/>
		<rect x="11.002" y="14.021" fill="#E6E9ED" width="10" height="2"/>
		<polygon fill="#FFD77D" points="21.002,16.021 11.002,16.021 9.002,19.021 19.002,19.021 		"/>
		<rect x="9.002" y="19.021" fill="#FFCE54" width="10" height="7.5"/>
		<polygon fill="#F6BB42" points="19.002,26.521 23.002,26.521 23.002,19.021 21.002,16.021 19.002,19.021 		"/>
		<path fill="#FC6E51" d="M10.997,28.021c0,1.656,1.343,3,3,3s3-1.344,3-3s-1.343-4-3-4S10.997,26.365,10.997,28.021z"/>
		<polygon fill="#DA4453" points="60.724,30.018 58,30.5 52,59.5 55,57.5 		"/>
		<polygon fill="#ED5564" points="52,59.5 9,59.5 3,30.5 58,30.5 		"/>
		<polygon fill="#ED5564" points="63,28.5 60,30.5 60,26.5 63,24.5 		"/>
		<rect x="1" y="26.5" fill="#EF6C77" width="59" height="4"/>
		<rect x="29" y="6.5" fill="#7A8189" width="3" height="21.5"/>
		<polygon fill="#656D78" points="35,4.5 32,4.5 29,6.5 32,6.5 		"/>
		<polygon fill="#545C66" points="32,6.5 35,4.5 35,24.5 32,24.5 		"/>
		<path fill="#DA4453" d="M44,38l-1,14c0,0.83-0.67,1.5-1.5,1.5S40,52.83,40,52l1-14c0-0.83,0.67-1.5,1.5-1.5S44,37.17,44,38z"/>
		<polygon fill="#E6E9ED" points="40.999,21.502 38.999,21.502 36.998,21.502 36.998,18.5 44,19.5 44,21.502 		"/>
		<path fill="#37BC9B" d="M57.289,10.313c2.59,0.939,4.46,2.34,4.181,3.119c-0.281,0.781-2.611,0.641-5.211-0.299
			c-2.59-0.951-4.47-2.352-4.18-3.121C52.358,9.232,54.688,9.361,57.289,10.313z"/>
		<path fill="#DA4453" d="M32,38v14c0,0.83-0.67,1.5-1.5,1.5S29,52.83,29,52V38c0-0.83,0.67-1.5,1.5-1.5S32,37.17,32,38z"/>
		<path fill="#DA4453" d="M20,38l1,14c0,0.83-0.67,1.5-1.5,1.5S18,52.83,18,52l-1-14c0-0.83,0.67-1.5,1.5-1.5S20,37.17,20,38z"/>
		<circle fill="#7A8189" cx="30.5" cy="28" r="1.5"/>
	</g>
</g>
<g id="_x35__discount_x2C__sale_x2C__purchase_x2C__pocket_x2C__shop_x2C__shopping_x2C__commerce">
</g>
<g id="_x34__badge_x2C__discount_x2C__sale_x2C__shop_x2C__shopping_x2C__commerce_x2C__market">
</g>
<g id="_x33__food_x2C__pocket_x2C__purchase_x2C__shop_x2C__shopping_x2C__commerce_x2C__supermarket">
</g>
<g id="_x32__shop_x2C__shopping_x2C__commerce_x2C__supermarket_x2C__market_x2C__cart">
</g>
<g id="_x31__list_x2C__check_x2C__notebook_x2C__pen_x2C__shop_x2C__shopping_x2C__commerce">
</g>
</svg>
