<svg xmlns="http://www.w3.org/2000/svg" viewBox="0 0 64 64"><title>6-Programming</title><g id="_6-Programming" data-name="6-Programming"><g id="_Group_" data-name="&lt;Group&gt;"><path d="M61,51H3a3,3,0,0,1-3-3V4A3,3,0,0,1,3,1H61a3,3,0,0,1,3,3V48A3,3,0,0,1,61,51ZM3,3A1,1,0,0,0,2,4V48a1,1,0,0,0,1,1H61a1,1,0,0,0,1-1V4a1,1,0,0,0-1-1Z"/><path d="M45,63H19a1,1,0,0,1-1-1V59a1,1,0,0,1,.126-.486l5-9,1.748.972L20,59.259V61H44V59.259l-4.874-8.773,1.748-.972,5,9A1,1,0,0,1,46,59v3A1,1,0,0,1,45,63Z"/><rect x="19" y="58" width="26" height="2"/><rect x="16" y="61" width="3" height="2"/><rect x="45" y="61" width="3" height="2"/><rect x="1" y="41" width="62" height="2"/></g><rect x="31" y="2" width="2" height="40"/><path d="M26,29H6a1,1,0,0,1-1-1V6A1,1,0,0,1,6,5H26a1,1,0,0,1,1,1V28A1,1,0,0,1,26,29ZM7,27H25V7H7Z"/><rect x="6" y="13" width="20" height="2"/><rect x="9" y="9" width="2" height="2"/><rect x="13" y="9" width="2" height="2"/><path d="M26,39H6a1,1,0,0,1-1-1V32a1,1,0,0,1,1-1H26a1,1,0,0,1,1,1v6A1,1,0,0,1,26,39ZM7,37H25V33H7Z"/><path d="M13.293,24.707l-3-3a1,1,0,0,1,0-1.414l3-3,1.414,1.414L12.414,21l2.293,2.293Z"/><path d="M18.707,24.707l-1.414-1.414L19.586,21l-2.293-2.293,1.414-1.414,3,3a1,1,0,0,1,0,1.414Z"/><path d="M39,24H37V23a1,1,0,0,1,1-1,.81.81,0,0,0,.71-.291c.611-.742.472-2.688.309-3.514A1,1,0,0,1,40,17h2v2h-.865a5.871,5.871,0,0,1-.877,3.977A2.715,2.715,0,0,1,39,23.845Z"/><path d="M42,31H40a1,1,0,0,1-.981-1.2c.163-.826.3-2.772-.309-3.514A.81.81,0,0,0,38,26a1,1,0,0,1-1-1V24h2v.155a2.715,2.715,0,0,1,1.258.868A5.871,5.871,0,0,1,41.135,29H42Z"/><path d="M56,31H54V29h.865a5.871,5.871,0,0,1,.877-3.977A2.715,2.715,0,0,1,57,24.155V24h2v1a1,1,0,0,1-1,1,.81.81,0,0,0-.71.291c-.611.742-.472,2.688-.309,3.514A1,1,0,0,1,56,31Z"/><path d="M59,24H57v-.155a2.715,2.715,0,0,1-1.258-.868A5.871,5.871,0,0,1,54.865,19H54V17h2a1,1,0,0,1,.981,1.2c-.163.826-.3,2.772.309,3.514A.81.81,0,0,0,58,22a1,1,0,0,1,1,1Z"/><rect x="47" y="23" width="2" height="2"/><rect x="51" y="23" width="2" height="2"/><rect x="43" y="23" width="2" height="2"/></g></svg>