<svg xmlns="http://www.w3.org/2000/svg" viewBox="0 0 64 64"><g id="Layer_2" data-name="Layer 2"><path d="M35.225,63h-6.45a2,2,0,0,1-1.9-2.632l.3-.905A15.992,15.992,0,0,0,28,54.4V31h8V54.4a15.992,15.992,0,0,0,.821,5.059l.3.905A2,2,0,0,1,35.225,63Z" style="fill:#c67a60"/><path d="M37.123,60.368,37,60H32.728a2.687,2.687,0,0,1-2.549-3.537A15.992,15.992,0,0,0,31,51.4V37.939A8.675,8.675,0,0,0,32,38a8.9,8.9,0,0,0,4-.958V31H28V54.4a15.992,15.992,0,0,1-.821,5.059l-.3.905A2,2,0,0,0,28.775,63h6.45A2,2,0,0,0,37.123,60.368Z" style="fill:#b26049"/><path d="M53,16A8.972,8.972,0,0,0,41.912,7.253,10.977,10.977,0,0,0,23.267,5.331a7.987,7.987,0,0,0-9.461,11.151A8.989,8.989,0,0,0,23.978,31.064a8.987,8.987,0,0,0,16.044,0A9,9,0,0,0,52.294,19.5,8.984,8.984,0,0,0,53,16Z" style="fill:#85b27c"/><path d="M48.9,12a1,1,0,0,1-.7-.285,6.016,6.016,0,0,0-1.625-1.136,1,1,0,0,1,.86-1.806,8.026,8.026,0,0,1,2.164,1.512A1,1,0,0,1,48.9,12Z" style="fill:#fff"/><path d="M44,32a8.985,8.985,0,0,0,7.417-3.907,5.839,5.839,0,0,0-2.184-.966,5.966,5.966,0,0,0-3.872.491A4.829,4.829,0,0,0,41.5,27.24a4.97,4.97,0,0,0-3.277,6.225,9.03,9.03,0,0,0,1.8-2.4A8.943,8.943,0,0,0,44,32Z" style="fill:#629955"/><path d="M35,33a8.976,8.976,0,0,1-7.265-3.7,1.913,1.913,0,0,0-2.091-.7,8.99,8.99,0,0,1-8.838-15.116,7.946,7.946,0,0,1,.243-7.433,7.972,7.972,0,0,0-3.243,10.433A8.989,8.989,0,0,0,23.978,31.064a8.966,8.966,0,0,0,15.668.631A8.914,8.914,0,0,1,35,33Z" style="fill:#699b5d"/><path d="M36,42c2.211-1.154,5.5-3.887,9-9h4c-4.051,7.106-8.423,10.788-13,13Z" style="fill:#c67a60"/><path d="M28,40a17.524,17.524,0,0,1-7-7H17c2.623,5.127,6.154,8.983,11,11Z" style="fill:#c67a60"/><path d="M26,43.009A18.688,18.688,0,0,0,28,44V40a23.207,23.207,0,0,1-2-1.327Z" style="fill:#b26049"/><path d="M38,45.009A18.688,18.688,0,0,1,36,46V42a23.207,23.207,0,0,0,2-1.327Z" style="fill:#b26049"/><path d="M21.5,27.24a4.829,4.829,0,0,0-3.861.378,5.966,5.966,0,0,0-3.872-.491,6,6,0,1,0,5.741,9.823A4.711,4.711,0,0,0,20,37a4.994,4.994,0,0,0,1.5-9.76Z" style="fill:#629955"/><path d="M23.978,31.064a8.96,8.96,0,0,0,1.167,1.73A4.983,4.983,0,0,0,22.5,25.24a4.829,4.829,0,0,0-3.861.378,5.916,5.916,0,0,0-6.822,1.112,8.97,8.97,0,0,0,12.161,4.334Z" style="fill:#629955"/><path d="M23,33a4.711,4.711,0,0,1-.492-.05,6,6,0,0,1-10.474-4.6,5.842,5.842,0,0,1,.117-.62,5.993,5.993,0,1,0,7.357,9.219A4.711,4.711,0,0,0,20,37,5,5,0,0,0,24.957,32.6,4.967,4.967,0,0,1,23,33Z" style="fill:#508c3f"/><path d="M42.5,29.24a4.829,4.829,0,0,1,3.861.378,5.966,5.966,0,0,1,3.872-.491,6,6,0,1,1-5.741,9.823A4.711,4.711,0,0,1,44,39a4.994,4.994,0,0,1-1.5-9.76Z" style="fill:#629955"/><path d="M52,38a5.978,5.978,0,0,1-4.508-2.05A4.711,4.711,0,0,1,47,36a5,5,0,0,1-4.927-5.87,4.715,4.715,0,0,1,.221-.809A4.986,4.986,0,0,0,44,39a4.711,4.711,0,0,0,.492-.05,5.992,5.992,0,0,0,9.976-1.48A5.977,5.977,0,0,1,52,38Z" style="fill:#508c3f"/><path d="M10.061,24.109a1,1,0,0,0,.993.891,1.028,1.028,0,0,0,.11-.006,1,1,0,0,0,.885-1.1A8.2,8.2,0,0,1,12,23,7.923,7.923,0,0,1,14.5,17.207a1,1,0,0,0,.211-1.161A6.921,6.921,0,0,1,14,13a6.99,6.99,0,0,1,8.983-6.71,1,1,0,0,0,1.078-.352A9.932,9.932,0,0,1,32,2a10.056,10.056,0,0,1,9.011,5.686,1,1,0,1,0,1.8-.865A12.063,12.063,0,0,0,32,0a11.9,11.9,0,0,0-9.107,4.2A8.906,8.906,0,0,0,21,4a9.01,9.01,0,0,0-9,9,8.877,8.877,0,0,0,.619,3.264A9.888,9.888,0,0,0,10,23,10.136,10.136,0,0,0,10.061,24.109Z"/><path d="M55.96,34.248a7.027,7.027,0,0,0-3.8-5.476A9.982,9.982,0,0,0,53.37,19.5,10.007,10.007,0,0,0,45.083,6.058a.984.984,0,0,0-1.1.887,1,1,0,0,0,.887,1.1,8.007,8.007,0,0,1,6.5,11.065,1,1,0,0,0,0,.778,7.987,7.987,0,0,1-1.228,8.22,6.963,6.963,0,0,0-3.765.4,5.789,5.789,0,0,0-4.185-.227,6.08,6.08,0,0,0-3.735,3.437c-.011.014-.028.02-.038.034a7.973,7.973,0,0,1-12.43.506,6.2,6.2,0,0,0-.079-1.3,6.037,6.037,0,0,0-4.108-4.676,5.784,5.784,0,0,0-4.185.227,6.952,6.952,0,0,0-4.054-.367,7,7,0,1,0,5.756,12.348A20.94,20.94,0,0,0,27,44.641V54.4a14.953,14.953,0,0,1-.771,4.745l-.3.9A3,3,0,0,0,28.774,64h6.452a3,3,0,0,0,2.845-3.948l-.3-.905A14.97,14.97,0,0,1,37,54.4V46.609a27.191,27.191,0,0,0,7.805-6.021,6.992,6.992,0,0,0,11.155-6.34Zm-17.886.678a5.979,5.979,0,0,0,1.342,2.946c.046.055.1.1.147.156A21.392,21.392,0,0,1,37,40.2V35.648A9.879,9.879,0,0,0,38.074,34.926ZM27,35.649v2.516a17.839,17.839,0,0,1-2.551-2.149c.044-.049.092-.093.135-.144a5.97,5.97,0,0,0,.852-1.353A10,10,0,0,0,27,35.649ZM15,38a5,5,0,0,1-1.031-9.894A5.129,5.129,0,0,1,15,28a4.963,4.963,0,0,1,2.2.515,1,1,0,0,0,.917-.018,3.813,3.813,0,0,1,3.08-.306,4.019,4.019,0,0,1,2.745,3.1A4,4,0,0,1,20,36a1.523,1.523,0,0,1-.192-.02l-.2-.025a1,1,0,0,0-.851.336A5,5,0,0,1,15,38Zm6.362-.159a5.953,5.953,0,0,0,1.507-.58A20.7,20.7,0,0,0,27,40.564V42.43A18.6,18.6,0,0,1,21.362,37.841ZM36.037,61.584a.987.987,0,0,1-.811.416H28.774a1,1,0,0,1-.947-1.317l.3-.9A16.977,16.977,0,0,0,29,54.4V36.53a9.8,9.8,0,0,0,6,0V54.4a16.994,16.994,0,0,0,.872,5.376l.3.906A.988.988,0,0,1,36.037,61.584ZM37,44.348v-1.76a21.3,21.3,0,0,0,4.15-3.317,5.959,5.959,0,0,0,1.579.592A25.168,25.168,0,0,1,37,44.348Zm15.717-6a4.993,4.993,0,0,1-7.473-.053,1,1,0,0,0-.752-.341c-.032,0-.3.029-.3.029A1.315,1.315,0,0,1,44,38a3.994,3.994,0,0,1-1.2-7.808,3.817,3.817,0,0,1,3.08.306,1,1,0,0,0,.917.018,5,5,0,0,1,5.915,7.829Z"/></g></svg>