<?xml version="1.0" encoding="utf-8"?>
<!-- Generator: Adobe Illustrator 16.0.0, SVG Export Plug-In . SVG Version: 6.00 Build 0)  -->
<!DOCTYPE svg PUBLIC "-//W3C//DTD SVG 1.1//EN" "http://www.w3.org/Graphics/SVG/1.1/DTD/svg11.dtd">
<svg version="1.1" id="Layer_1" xmlns="http://www.w3.org/2000/svg" xmlns:xlink="http://www.w3.org/1999/xlink" x="0px" y="0px"
	 width="512px" height="512px" viewBox="0 0 512 512" enable-background="new 0 0 512 512" xml:space="preserve">
<g id="_x36_._bottle_x2C__letter_x2C__paper_x2C__pirate_x2C__seafaring_x2C__crime_x2C__bandit">
	<g>
		<g>
			<g>
				<path d="M72.512,312.21c-1.022,0-2.045-0.391-2.826-1.171c-1.561-1.562-1.561-4.091,0-5.652l179.272-179.272
					c1.562-1.561,4.091-1.561,5.652,0c1.561,1.562,1.561,4.091,0,5.652L75.338,311.039C74.558,311.819,73.535,312.21,72.512,312.21z
					"/>
			</g>
		</g>
		<g>
			<g>
				<path d="M366.711,311.96c-1.022,0-2.046-0.391-2.826-1.171c-1.562-1.562-1.562-4.091,0-5.652l32.048-32.056
					c1.561-1.561,4.091-1.561,5.652,0c1.561,1.562,1.561,4.092,0,5.652l-32.048,32.056
					C368.756,311.569,367.733,311.96,366.711,311.96z"/>
			</g>
		</g>
	</g>
	<g>
		<g>
			<g>
				<path d="M362.011,130.112c-1.022,0-2.045-0.391-2.826-1.171c-1.562-1.561-1.562-4.091,0-5.652l50.879-50.878
					c1.561-1.561,4.09-1.561,5.651,0c1.562,1.562,1.562,4.091,0,5.652l-50.878,50.878
					C364.057,129.722,363.034,130.112,362.011,130.112z"/>
			</g>
		</g>
		<g>
			<g>
				<path d="M401.585,169.686c-1.023,0-2.046-0.391-2.826-1.171c-1.562-1.562-1.562-4.091,0-5.652l50.87-50.886
					c1.562-1.562,4.091-1.562,5.652,0s1.562,4.091,0,5.652l-50.87,50.886C403.63,169.295,402.607,169.686,401.585,169.686z"/>
			</g>
		</g>
	</g>
	<g>
		<g>
			<path d="M342.595,138.013c-10.32,0-21.375-3.974-32.227-7.873c-20.486-7.366-39.816-14.311-55.758,1.627
				c-1.562,1.561-4.091,1.561-5.652,0c-1.562-1.562-1.562-4.091,0-5.652c19.518-19.521,43.203-11.012,64.111-3.501
				c18.463,6.636,34.413,12.374,46.115,0.675c1.562-1.561,4.091-1.561,5.652,0c1.562,1.562,1.562,4.091,0,5.652
				C358.162,135.62,350.597,138.013,342.595,138.013z"/>
		</g>
	</g>
	<g>
		<g>
			<g>
				<path d="M338.021,153.814c-0.117,0-0.234-0.004-0.352-0.016c-11.453-0.984-22.68-5.012-32.595-8.568
					c-23.202-8.346-31.603-9.716-39.159-2.159c-1.562,1.562-4.092,1.562-5.652,0c-1.562-1.557-1.562-4.091,0-5.652
					c11.757-11.765,25.677-7.565,47.404,0.242c9.555,3.436,20.267,7.276,30.688,8.174c2.194,0.188,3.833,2.124,3.638,4.325
					C341.814,152.241,340.065,153.814,338.021,153.814z"/>
			</g>
		</g>
	</g>
	<g>
		<g>
			<path d="M398.759,279.905c-1.023,0-2.046-0.391-2.826-1.172c-1.562-1.561-1.562-4.091,0-5.652
				c15.934-15.934,8.985-35.271,1.623-55.745c-6.916-19.268-14.083-39.195,1.203-54.474c1.561-1.562,4.091-1.562,5.652,0
				c1.561,1.562,1.561,4.091,0,5.652c-11.695,11.695-5.965,27.648,0.671,46.116c7.511,20.899,16.021,44.582-3.497,64.103
				C400.804,279.515,399.781,279.905,398.759,279.905z"/>
		</g>
	</g>
	<g>
		<g>
			<path d="M483.55,93.364c-1.022,0-2.045-0.39-2.826-1.171l-45.226-45.218c-1.562-1.562-1.562-4.091,0-5.652s4.091-1.562,5.652,0
				l45.226,45.218c1.562,1.562,1.562,4.091,0,5.652C485.596,92.974,484.573,93.364,483.55,93.364z"/>
		</g>
	</g>
	<g>
		<g>
			<path d="M455.281,121.634c-1.022,0-2.046-0.391-2.826-1.171l-45.218-45.227c-1.562-1.561-1.562-4.091,0-5.652
				c1.561-1.562,4.09-1.562,5.652,0l45.218,45.226c1.562,1.561,1.562,4.091,0,5.652
				C457.326,121.243,456.304,121.634,455.281,121.634z"/>
		</g>
	</g>
	<g>
		<g>
			<path d="M410.063,76.408c-1.023,0-2.046-0.39-2.826-1.171c-1.562-1.561-1.562-4.091,0-5.652l28.261-28.261
				c1.562-1.562,4.091-1.562,5.652,0s1.562,4.091,0,5.652L412.89,75.236C412.108,76.018,411.086,76.408,410.063,76.408z"/>
		</g>
	</g>
	<g>
		<g>
			<path d="M455.281,121.634c-1.022,0-2.046-0.391-2.826-1.171c-1.562-1.562-1.562-4.091,0-5.652l28.269-28.27
				c1.562-1.562,4.092-1.562,5.652,0c1.562,1.562,1.562,4.091,0,5.652l-28.269,28.27
				C457.326,121.243,456.304,121.634,455.281,121.634z"/>
		</g>
	</g>
	<g>
		<g>
			<path d="M95.379,311.96c-1.031,0-2.046-0.391-2.826-1.171c-1.562-1.562-1.562-4.091,0-5.652l167.71-167.717
				c1.561-1.562,4.091-1.562,5.652,0c1.561,1.561,1.561,4.091,0,5.652L98.205,310.789C97.424,311.569,96.394,311.96,95.379,311.96z"
				/>
		</g>
	</g>
	<g>
		<g>
			<path d="M432.672,65.103c-1.022,0-2.046-0.39-2.826-1.171l-5.652-5.652c-1.562-1.561-1.562-4.091,0-5.652
				c1.562-1.562,4.091-1.562,5.652,0l5.652,5.652c1.562,1.562,1.562,4.091,0,5.652C434.718,64.713,433.694,65.103,432.672,65.103z"
				/>
		</g>
	</g>
	<g>
		<g>
			<path d="M466.586,110.321c-1.023,0-2.046-0.391-2.826-1.171l-5.652-5.652c-1.562-1.562-1.562-4.091,0-5.652s4.091-1.562,5.652,0
				l5.651,5.652c1.562,1.562,1.562,4.091,0,5.652C468.631,109.931,467.608,110.321,466.586,110.321z"/>
		</g>
	</g>
	<g>
		<g>
			<g>
				<path d="M193.81,311.96c-1.015,0-2.046-0.391-2.826-1.171c-1.562-1.562-1.562-4.091,0-5.652l112.639-112.639
					c1.562-1.561,4.092-1.561,5.652,0c1.562,1.562,1.562,4.091,0,5.652L196.635,310.789
					C195.854,311.569,194.84,311.96,193.81,311.96z"/>
			</g>
		</g>
		<g>
			<g>
				<path d="M261.652,311.968c-1.022,0-2.046-0.391-2.826-1.171c-1.562-1.562-1.562-4.091,0-5.652l73.315-73.331
					c1.561-1.562,4.091-1.562,5.652,0c1.561,1.562,1.561,4.091,0,5.652l-73.316,73.331
					C263.697,311.577,262.675,311.968,261.652,311.968z"/>
			</g>
		</g>
		<g>
			<g>
				<path d="M334.976,238.637c-0.406,0-0.82-0.062-1.234-0.195c-13.412-4.329-27.324-18.237-31.656-31.662
					c-2.709-8.361,0.163-12.874,2.1-14.821c1.951-1.948,6.464-4.813,14.833-2.108c8.986,2.889,18.3,12.195,21.204,21.188
					c0.672,2.101,2.264,7.026-0.797,10.075c-3.044,3.053-7.924,1.464-10.008,0.792c-6.559-2.123-12.429-9.396-14.311-15.2
					c-0.68-2.1,0.469-4.352,2.568-5.035c2.124-0.675,4.356,0.473,5.035,2.568c1.352,4.146,5.723,8.943,9.174,10.063
					c0.406,0.129,0.75,0.234,1.062,0.316c-0.094-0.324-0.203-0.699-0.343-1.128c-2.116-6.578-9.463-13.92-16.036-16.032
					c-3.061-0.999-5.652-0.937-6.722,0.152c-1.085,1.081-1.147,3.653-0.156,6.71c3.514,10.867,15.653,23.007,26.521,26.517
					c2.092,0.675,3.247,2.928,2.568,5.031C338.23,237.56,336.661,238.637,334.976,238.637z"/>
			</g>
		</g>
	</g>
	<g>
		<g>
			<g>
				<path d="M164.064,391.903c-1.022,0-2.045-0.39-2.826-1.17l-5.168-5.169l-5.168,5.169c-1.562,1.561-4.091,1.561-5.652,0
					l-5.168-5.169l-5.168,5.169c-1.562,1.561-4.091,1.561-5.652,0l-5.168-5.169l-5.168,5.169c-1.562,1.561-4.091,1.561-5.652,0
					l-5.168-5.169l-5.168,5.169c-1.561,1.561-4.091,1.561-5.652,0l-5.168-5.169l-5.168,5.169c-1.562,1.561-4.091,1.561-5.652,0
					c-1.562-1.562-1.562-4.092,0-5.652l7.994-7.995c1.562-1.562,4.091-1.562,5.652,0l5.168,5.169l5.168-5.169
					c1.562-1.562,4.091-1.562,5.652,0l5.168,5.169l5.168-5.169c1.562-1.562,4.091-1.562,5.652,0l5.168,5.169l5.168-5.169
					c1.562-1.562,4.091-1.562,5.652,0l5.168,5.169l5.168-5.169c1.562-1.562,4.091-1.562,5.652,0l7.994,7.995
					c1.562,1.561,1.562,4.09,0,5.652C166.11,391.514,165.087,391.903,164.064,391.903z"/>
			</g>
		</g>
		<g>
			<g>
				<path d="M435.873,431.876c-1.022,0-2.046-0.391-2.826-1.172l-5.169-5.168l-5.168,5.168c-1.561,1.562-4.091,1.562-5.652,0
					l-5.168-5.168l-5.168,5.168c-1.562,1.562-4.091,1.562-5.652,0l-5.168-5.168l-5.168,5.168c-1.562,1.562-4.092,1.562-5.652,0
					l-5.169-5.168l-5.168,5.168c-1.562,1.562-4.091,1.562-5.652,0l-5.168-5.168l-5.169,5.168c-1.561,1.562-4.09,1.562-5.652,0
					l-5.168-5.168l-5.168,5.168c-1.562,1.562-4.091,1.562-5.652,0l-5.168-5.168l-5.168,5.168c-1.562,1.562-4.092,1.562-5.652,0
					c-1.562-1.561-1.562-4.09,0-5.651l7.994-7.995c1.562-1.561,4.091-1.561,5.652,0l5.168,5.169l5.168-5.169
					c1.562-1.561,4.092-1.561,5.652,0l5.168,5.169l5.169-5.169c1.562-1.561,4.091-1.561,5.652,0l5.168,5.169l5.168-5.169
					c1.562-1.561,4.091-1.561,5.652,0l5.169,5.169l5.168-5.169c1.561-1.561,4.091-1.561,5.652,0l5.168,5.169l5.168-5.169
					c1.562-1.561,4.091-1.561,5.652,0l5.168,5.169l5.169-5.169c1.562-1.561,4.091-1.561,5.651,0l7.995,7.995
					c1.562,1.562,1.562,4.091,0,5.651C437.918,431.485,436.896,431.876,435.873,431.876z"/>
			</g>
		</g>
		<g>
			<g>
				<path d="M252.002,471.848c-1.023,0-2.045-0.391-2.826-1.171l-5.168-5.168l-5.168,5.168c-1.562,1.561-4.091,1.561-5.652,0
					l-5.168-5.168l-5.168,5.168c-1.562,1.561-4.091,1.561-5.652,0l-5.168-5.168l-5.168,5.168c-1.562,1.561-4.091,1.561-5.652,0
					l-5.168-5.168l-5.168,5.168c-1.562,1.561-4.091,1.561-5.652,0c-1.562-1.562-1.562-4.091,0-5.652l7.994-7.994
					c1.562-1.562,4.091-1.562,5.652,0l5.168,5.168l5.168-5.168c1.562-1.562,4.091-1.562,5.652,0l5.168,5.168l5.168-5.168
					c1.562-1.562,4.091-1.562,5.652,0l5.168,5.168l5.168-5.168c1.561-1.562,4.091-1.562,5.652,0l7.995,7.994
					c1.562,1.562,1.562,4.091,0,5.652C254.048,471.457,253.025,471.848,252.002,471.848z"/>
			</g>
		</g>
		<g>
			<g>
				<g>
					<path d="M475.845,327.949c-1.022,0-2.045-0.391-2.826-1.171l-5.168-5.169l-5.168,5.169c-1.562,1.561-4.092,1.561-5.652,0
						l-5.169-5.169l-5.168,5.169c-1.562,1.561-4.091,1.561-5.652,0l-5.168-5.169l-5.169,5.169c-1.561,1.561-4.09,1.561-5.651,0
						l-5.169-5.169l-5.168,5.169c-1.562,1.561-4.091,1.561-5.652,0l-5.168-5.169l-5.168,5.169c-1.562,1.561-4.092,1.561-5.652,0
						l-5.168-5.169l-5.169,5.169c-1.562,1.561-4.091,1.561-5.652,0l-5.168-5.169l-5.168,5.169c-1.562,1.561-4.091,1.561-5.652,0
						l-5.169-5.169l-5.168,5.169c-1.561,1.561-4.091,1.561-5.652,0l-5.168-5.169l-5.168,5.169c-1.562,1.561-4.091,1.561-5.652,0
						l-5.168-5.169l-5.168,5.169c-1.562,1.561-4.092,1.561-5.652,0l-5.169-5.169l-5.168,5.169c-1.562,1.561-4.091,1.561-5.652,0
						l-5.168-5.169l-5.169,5.169c-1.561,1.561-4.09,1.561-5.652,0l-5.168-5.169l-5.168,5.169c-1.562,1.561-4.091,1.561-5.652,0
						l-5.168-5.169l-5.176,5.169c-1.561,1.561-4.091,1.561-5.652,0L244,321.609l-5.168,5.169c-0.749,0.749-1.764,1.171-2.826,1.171
						l0,0c-1.062,0-2.076-0.422-2.826-1.171l-5.16-5.169l-5.168,5.169c-1.562,1.561-4.091,1.561-5.652,0l-5.168-5.169l-5.176,5.169
						c-1.562,1.561-4.091,1.561-5.652,0l-5.168-5.169l-5.168,5.169c-1.562,1.561-4.091,1.561-5.652,0l-5.168-5.169l-5.161,5.169
						c-0.749,0.749-1.764,1.171-2.826,1.171l0,0c-1.062,0-2.076-0.422-2.826-1.171l-5.176-5.169l-5.168,5.169
						c-1.562,1.561-4.091,1.561-5.652,0l-5.168-5.169l-5.161,5.169c-0.75,0.749-1.764,1.171-2.826,1.171l0,0
						c-1.062,0-2.077-0.422-2.826-1.171l-5.168-5.169l-5.168,5.169c-1.499,1.498-4.153,1.498-5.652,0l-5.168-5.169l-5.168,5.169
						c-1.561,1.561-4.091,1.561-5.652,0l-5.168-5.169l-5.168,5.169c-1.499,1.498-4.153,1.498-5.652,0l-5.168-5.169l-5.176,5.169
						c-1.561,1.561-4.091,1.561-5.652,0l-5.168-5.169l-5.161,5.169c-1.499,1.498-4.153,1.498-5.652,0l-5.168-5.169l-5.176,5.169
						c-1.562,1.561-4.091,1.561-5.652,0l-5.168-5.169l-5.161,5.169c-1.499,1.498-4.153,1.498-5.652,0l-7.994-7.994
						c-1.562-1.562-1.562-4.092,0-5.652c1.562-1.562,4.091-1.562,5.652,0l5.168,5.168l5.161-5.168c1.499-1.5,4.153-1.5,5.652,0
						l5.168,5.168l5.176-5.168c1.562-1.562,4.091-1.562,5.652,0l5.168,5.168l5.161-5.168c1.499-1.5,4.153-1.5,5.652,0l5.168,5.168
						l5.176-5.168c1.562-1.562,4.091-1.562,5.652,0l5.168,5.168l5.161-5.168c0.75-0.75,1.764-1.172,2.826-1.172l0,0
						c1.054,0,2.077,0.422,2.826,1.172l5.176,5.168l5.168-5.168c1.562-1.562,4.091-1.562,5.652,0l5.168,5.168l5.16-5.168
						c0.75-0.75,1.765-1.172,2.826-1.172l0,0c1.054,0,2.077,0.422,2.826,1.172l5.176,5.168l5.161-5.168c1.491-1.5,4.146-1.5,5.652,0
						l5.168,5.168l5.168-5.168c1.562-1.562,4.091-1.562,5.652,0l5.176,5.168l5.161-5.168c1.491-1.5,4.146-1.5,5.652,0l5.168,5.168
						l5.168-5.168c1.562-1.562,4.091-1.562,5.652,0l5.168,5.168l5.176-5.168c1.562-1.562,4.091-1.562,5.652,0l5.168,5.168
						l5.168-5.168c0.75-0.75,1.765-1.172,2.826-1.172l0,0c1.062,0,2.077,0.422,2.826,1.172l5.16,5.168l5.168-5.168
						c1.561-1.562,4.091-1.562,5.652,0l5.169,5.168l5.176-5.168c1.562-1.562,4.091-1.562,5.652,0l5.168,5.168l5.168-5.168
						c1.562-1.562,4.092-1.562,5.652,0l5.168,5.168l5.169-5.168c1.562-1.562,4.091-1.562,5.652,0l5.168,5.168l5.168-5.168
						c1.562-1.562,4.091-1.562,5.652,0l5.169,5.168l5.168-5.168c1.561-1.562,4.091-1.562,5.652,0l5.168,5.168l5.168-5.168
						c1.562-1.562,4.091-1.562,5.652,0l5.168,5.168l5.168-5.168c1.562-1.562,4.092-1.562,5.652,0l5.169,5.168l5.168-5.168
						c1.562-1.562,4.091-1.562,5.652,0l5.168,5.168l5.169-5.168c1.561-1.562,4.09-1.562,5.652,0l5.168,5.168l5.168-5.168
						c1.562-1.562,4.091-1.562,5.652,0l5.168,5.168l5.168-5.168c1.562-1.562,4.092-1.562,5.652,0l5.168,5.168l5.169-5.168
						c1.562-1.562,4.091-1.562,5.652,0l5.168,5.168l5.168-5.168c1.562-1.562,4.091-1.562,5.652,0l5.169,5.168l5.168-5.168
						c1.562-1.562,4.091-1.562,5.652,0l5.168,5.168l5.168-5.168c1.562-1.562,4.091-1.562,5.652,0c1.562,1.561,1.562,4.09,0,5.652
						l-7.994,7.994C477.89,327.559,476.867,327.949,475.845,327.949z"/>
				</g>
			</g>
			<g>
				<g>
					<path d="M12.172,327.957c-1.023,0-2.046-0.391-2.826-1.171c-1.562-1.554-1.562-4.092,0-5.652l7.994-8.002
						c1.562-1.562,4.091-1.562,5.652,0c1.562,1.561,1.562,4.09,0,5.652l-7.994,8.002C14.217,327.566,13.194,327.957,12.172,327.957z
						"/>
				</g>
			</g>
			<g>
				<g>
					<path d="M12.172,327.957c-1.023,0-2.046-0.391-2.826-1.171l-7.994-8.002c-1.562-1.562-1.562-4.092,0-5.652
						c1.561-1.562,4.091-1.562,5.652,0l7.995,8.002c1.562,1.561,1.562,4.099,0,5.652C14.217,327.566,13.194,327.957,12.172,327.957z
						"/>
				</g>
			</g>
			<g>
				<g>
					<path d="M491.833,327.949c-1.022,0-2.045-0.391-2.826-1.171l-7.994-7.994c-1.562-1.562-1.562-4.092,0-5.652
						c1.562-1.562,4.091-1.562,5.652,0l7.994,7.994c1.562,1.561,1.562,4.091,0,5.652
						C493.879,327.559,492.856,327.949,491.833,327.949z"/>
				</g>
			</g>
			<g>
				<g>
					<path d="M491.833,327.949c-1.022,0-2.045-0.391-2.826-1.171c-1.561-1.562-1.561-4.092,0-5.652l7.995-7.986
						c1.562-1.562,4.091-1.562,5.651,0c1.562,1.561,1.562,4.098,0,5.652l-7.994,7.986
						C493.879,327.559,492.856,327.949,491.833,327.949z"/>
				</g>
			</g>
			<g>
				<g>
					<path d="M507.822,327.949c-1.022,0-2.046-0.391-2.826-1.171l-7.994-7.986c-1.562-1.555-1.562-4.092,0-5.652
						c1.562-1.562,4.091-1.562,5.651,0l7.995,7.986c1.562,1.561,1.562,4.091,0,5.652
						C509.867,327.559,508.845,327.949,507.822,327.949z"/>
				</g>
			</g>
		</g>
	</g>
</g>
</svg>
