<svg xmlns="http://www.w3.org/2000/svg" viewBox="0 0 64 64"><title>62-Flowchart</title><g id="_62-Flowchart" data-name="62-Flowchart"><path d="M30,64H10a1,1,0,0,1-1-1V41a1,1,0,0,1,1-1H30a1,1,0,0,1,1,1V63A1,1,0,0,1,30,64ZM11,62H29V42H11Z"/><rect x="10" y="48" width="20" height="2"/><rect x="13" y="44" width="2" height="2"/><rect x="17" y="44" width="2" height="2"/><path d="M17.293,59.707l-3-3a1,1,0,0,1,0-1.414l3-3,1.414,1.414L16.414,56l2.293,2.293Z"/><path d="M22.707,59.707l-1.414-1.414L23.586,56l-2.293-2.293,1.414-1.414,3,3a1,1,0,0,1,0,1.414Z"/><path d="M54,64H34a1,1,0,0,1-1-1V41a1,1,0,0,1,1-1H54a1,1,0,0,1,1,1V63A1,1,0,0,1,54,64ZM35,62H53V42H35Z"/><rect x="34" y="48" width="20" height="2"/><rect x="37" y="44" width="2" height="2"/><rect x="41" y="44" width="2" height="2"/><path d="M41.293,59.707l-3-3a1,1,0,0,1,0-1.414l3-3,1.414,1.414L40.414,56l2.293,2.293Z"/><path d="M46.707,59.707l-1.414-1.414L47.586,56l-2.293-2.293,1.414-1.414,3,3a1,1,0,0,1,0,1.414Z"/><path d="M32,12a6,6,0,1,1,6-6A6.006,6.006,0,0,1,32,12ZM32,2a4,4,0,1,0,4,4A4,4,0,0,0,32,2Z"/><path d="M38.269,33H25.731a2,2,0,0,1-1.74-3L30.259,19.03a2.007,2.007,0,0,1,3.482,0L40.009,30a2,2,0,0,1-1.74,3ZM32,20.022,25.727,30.993,38.269,31h.006Z"/><path d="M21,21H13a1,1,0,0,1-1-1V12a1,1,0,0,1,1-1h8a1,1,0,0,1,1,1v8A1,1,0,0,1,21,21Zm-7-2h6V13H14Z"/><rect x="11.343" y="15" width="11.314" height="2" transform="translate(-6.335 16.707) rotate(-45)"/><path d="M51,21H43a1,1,0,0,1-1-1V12a1,1,0,0,1,1-1h8a1,1,0,0,1,1,1v8A1,1,0,0,1,51,21Zm-7-2h6V13H44Z"/><rect x="41.343" y="15" width="11.314" height="2" transform="translate(2.452 37.92) rotate(-45)"/><rect x="31" y="11" width="2" height="8"/><rect x="21" y="15" width="7" height="2"/><rect x="36" y="15" width="7" height="2"/><rect x="31" y="32" width="2" height="5"/><rect x="26" y="27" width="12" height="2"/><path d="M45,41H43V38H21v3H19V37a1,1,0,0,1,1-1H44a1,1,0,0,1,1,1Z"/></g></svg>