<svg xmlns="http://www.w3.org/2000/svg" viewBox="0 0 64 64"><title>67-Programmer</title><g id="_67-Programmer" data-name="67-Programmer"><path d="M25,27a8.788,8.788,0,0,1-5.707-2.293C17.166,22.579,17,21.332,17,21V10c0-5.537,3.925-7,6-7h5c6.328,0,8,5.887,8,9a1,1,0,0,1-1,1H33v8c0,.332-.166,1.579-2.293,3.707A8.788,8.788,0,0,1,25,27Zm-6-6a6.466,6.466,0,0,0,1.707,2.3A6.8,6.8,0,0,0,25,25a6.8,6.8,0,0,0,4.293-1.707C30.86,21.727,31,20.927,31,20.919L31,13H24.843c-.773,2.36-4.191,3.431-5.843,3.816V21ZM23,5c-.4,0-4,.191-4,5v4.752c1.757-.48,4-1.451,4-2.752a1,1,0,0,1,1-1h9.922C33.668,9.06,32.589,5,28,5Z"/><path d="M38,50H12a1,1,0,0,1-1-1V33a5.785,5.785,0,0,1,6-6h5v2H17a3.85,3.85,0,0,0-4,4V48H37V33c0-3.954-3.837-4-4-4H28V27h5a5.785,5.785,0,0,1,6,6V49A1,1,0,0,1,38,50Z"/><path d="M25,33a3.888,3.888,0,0,1-4-4V25h2v4a2,2,0,0,0,4,0V25h2v4A3.888,3.888,0,0,1,25,33Z"/><rect x="17" y="37" width="2" height="12"/><rect x="31" y="37" width="2" height="12"/><path d="M25,37c-4.565,0-6.8-4.367-6.895-4.553a1,1,0,0,1,.188-1.154l3-3,1.414,1.414L20.264,32.15A6.472,6.472,0,0,0,24,34.894V32h2v4A1,1,0,0,1,25,37Z"/><path d="M25,37a1,1,0,0,1-1-1V32h2v2.894a6.474,6.474,0,0,0,3.736-2.744l-2.443-2.443,1.414-1.414,3,3a1,1,0,0,1,.188,1.154C31.8,32.633,29.565,37,25,37Z"/><rect x="24" y="36" width="2" height="10"/><path d="M33,20H32V18h1a1,1,0,0,0,0-2H32V14h1a3,3,0,0,1,0,6Z"/><path d="M18,20H17a3,3,0,0,1,0-6h1v2H17a1,1,0,0,0,0,2h1Z"/><path d="M62,61H2a1,1,0,0,1-.707-.293l-1-1A1,1,0,0,1,0,59V53a1,1,0,0,1,1-1H24a1,1,0,0,1,1,1v2H39V53a1,1,0,0,1,1-1H63a1,1,0,0,1,1,1v6a1,1,0,0,1-.293.707l-1,1A1,1,0,0,1,62,61ZM2.414,59H61.586L62,58.586V54H41v1a2,2,0,0,1-2,2H25a2,2,0,0,1-2-2V54H2v4.586Z"/><path d="M62,53H60V11.414L59.586,11H35V9H60a1,1,0,0,1,.707.293l1,1A1,1,0,0,1,62,11Z"/><path d="M4,53H2V11a1,1,0,0,1,.293-.707l1-1A1,1,0,0,1,4,9H18v2H4.414L4,11.414Z"/><path d="M56,50H8a2,2,0,0,1-2-2V15a2,2,0,0,1,2-2h5v2H8V48H56V15H37V13H56a2,2,0,0,1,2,2V48A2,2,0,0,1,56,50Z"/><path d="M41.293,25.707l-3-3a1,1,0,0,1,0-1.414l3-3,1.414,1.414L40.414,22l2.293,2.293Z"/><path d="M50.707,25.707l-1.414-1.414L51.586,22l-2.293-2.293,1.414-1.414,3,3a1,1,0,0,1,0,1.414Z"/><rect x="42.36" y="21.5" width="7.28" height="2" transform="translate(11.739 60.558) rotate(-74.07)"/><rect x="43" y="42" width="11" height="2"/><rect x="43" y="37" width="11" height="2"/><rect x="48" y="32" width="6" height="2"/></g></svg>