<svg xmlns="http://www.w3.org/2000/svg" viewBox="0 0 64 64"><title>68-JS Code</title><g id="_69-Cloud" data-name="69-Cloud"><path d="M51,46V44a10.995,10.995,0,0,0,2.937-21.591,1,1,0,0,1-.673-1.306A11.986,11.986,0,0,0,31.8,10.7a.988.988,0,0,1-1.012.46A11.048,11.048,0,0,0,29,11,10.93,10.93,0,0,0,18.015,21.728a1,1,0,0,1-1.335.918A10.995,10.995,0,1,0,13,44v2a13,13,0,0,1,0-26,12.814,12.814,0,0,1,3.109.386A12.907,12.907,0,0,1,29,9a11.923,11.923,0,0,1,1.462.093,13.982,13.982,0,0,1,25,11.707A12.994,12.994,0,0,1,51,46Z"/><rect x="9" y="27" width="2" height="14"/><rect x="15" y="27" width="2" height="14"/><rect x="10" y="33" width="6" height="2"/><rect x="10" y="33" width="6" height="2"/><rect x="19" y="27" width="8" height="2"/><rect x="22" y="28" width="2" height="13"/><path d="M37,41H35V33.515l-1.063,2.837a1,1,0,0,1-1.874,0L31,33.515V41H29V28a1,1,0,0,1,1.937-.352L33,33.152l2.063-5.5A1,1,0,0,1,37,28Z"/><path d="M46,41H42a2.916,2.916,0,0,1-3-3V27h2V38a.915.915,0,0,0,1,1h4Z"/><path d="M45,53a5,5,0,1,1,5-5H48a3,3,0,1,0-3,3Z"/><path d="M45,61a5.006,5.006,0,0,1-5-5h2a3,3,0,1,0,3-3V51a5,5,0,0,1,0,10Z"/><path d="M33,53a5,5,0,1,1,5-5H36a3,3,0,1,0-3,3Z"/><path d="M33,61a5.006,5.006,0,0,1-5-5h2a3,3,0,1,0,3-3V51a5,5,0,0,1,0,10Z"/><path d="M21,61a5.006,5.006,0,0,1-5-5V48a5,5,0,0,1,10,0H24a3,3,0,0,0-6,0v8a3,3,0,0,0,6,0h2A5.006,5.006,0,0,1,21,61Z"/><rect x="43" y="32" width="2" height="2"/><rect x="47" y="32" width="2" height="2"/><rect x="12" y="51" width="2" height="2"/><rect x="8" y="51" width="2" height="2"/><path d="M32,26H30a3.887,3.887,0,0,1-4-4V20h2v2a1.883,1.883,0,0,0,2,2h2a2.854,2.854,0,0,0,3-3.006V11h2V21A4.821,4.821,0,0,1,32,26Z"/><path d="M45,18a5,5,0,1,1,5-5H48a3,3,0,1,0-3,3Z"/><path d="M45,26a5.006,5.006,0,0,1-5-5h2a3,3,0,1,0,3-3V16a5,5,0,0,1,0,10Z"/><rect x="30" y="15" width="2" height="2"/><rect x="26" y="15" width="2" height="2"/></g></svg>