<?xml version="1.0" encoding="utf-8"?>
<!-- Generator: Adobe Illustrator 16.0.0, SVG Export Plug-In . SVG Version: 6.00 Build 0)  -->
<!DOCTYPE svg PUBLIC "-//W3C//DTD SVG 1.1//EN" "http://www.w3.org/Graphics/SVG/1.1/DTD/svg11.dtd">
<svg version="1.1" xmlns="http://www.w3.org/2000/svg" xmlns:xlink="http://www.w3.org/1999/xlink" x="0px" y="0px" width="64px"
	 height="64px" viewBox="0 0 64 64" enable-background="new 0 0 64 64" xml:space="preserve">
<g id="_x32_5_purse_x2C__money_x2C__coin_x2C__banknote_x2C__payment_x2C__shop_x2C__shopping">
</g>
<g id="_x32_4_pay_x2C__click_x2C__hand_x2C__coin_x2C__money_x2C__shop_x2C__payment">
</g>
<g id="_x32_3_card_x2C__discount_x2C__sale_x2C__shop_x2C__shopping_x2C__commerce_x2C__market">
</g>
<g id="_x32_2_safe_x2C__box_x2C__key_x2C__thing_x2C__shop_x2C__shopping_x2C__commerce">
</g>
<g id="_x32_1_cashbox_x2C__money_x2C__purchase_x2C__list_x2C__check_x2C__shop_x2C__shopping">
</g>
<g id="_x32_0_search_x2C__magnifier_x2C__basket_x2C__shop_x2C__shopping_x2C__commerce_x2C__market">
</g>
<g id="_x31_9_return_x2C__box_x2C__purchase_x2C__shipping_x2C__delivery_x2C__shop_x2C__shopping">
</g>
<g id="_x31_8_review_x2C__client_x2C__buyer_x2C__talk_x2C__shop_x2C__shopping_x2C__commerce">
</g>
<g id="_x31_7_manager_x2C__consultant_x2C__shop_x2C__shopping_x2C__commerce_x2C__market_x2C__badge">
</g>
<g id="_x31_6_check_x2C__list_x2C__cashbox_x2C__purchase_x2C__shop_x2C__shopping_x2C__commerce">
</g>
<g id="_x31_5_coupon_x2C__sale_x2C__discount_x2C__shop_x2C__shopping_x2C__commerce_x2C__market">
</g>
<g id="_x31_4_sale_x2C__discount_x2C__box_x2C__gift_x2C__shop_x2C__shopping_x2C__commerce">
</g>
<g id="_x31_3_map_x2C__pin_x2C__marker_x2C__location_x2C__shop_x2C__shopping_x2C__basket">
</g>
<g id="_x31_2_operator_x2C__call_x2C__center_x2C__shop_x2C__shopping_x2C__commerce_x2C__market">
</g>
<g id="_x31_1_courier_x2C__box_x2C__shipping_x2C__purchase_x2C__shop_x2C__shopping_x2C__commerce">
</g>
<g id="_x31_0_box_x2C__shipping_x2C__delivery_x2C__purchase_x2C__shop_x2C__shopping_x2C__commerce">
</g>
<g id="_x39__shipping_x2C__delivery_x2C__box_x2C__crane_x2C__shop_x2C__shopping_x2C__commerce">
</g>
<g id="_x38__computer_x2C__monitor_x2C__desktop_x2C__shop_x2C__shopping_x2C__commerce_x2C__market">
</g>
<g id="_x37__mobile_x2C__phone_x2C__app_x2C__shop_x2C__shopping_x2C__commerce_x2C__market">
	<g>
		<path fill="#E6E9ED" d="M45.988,8.493c0,1.1-0.9,2-2,2c-1.109,0-2-0.9-2-2c0,1.1-0.9,2-2,2c-1.109,0-2-0.9-2-2c0,1.1-0.9,2-2,2
			c-1.109,0-2-0.9-2-2c0,1.1-0.9,2-2,2s-2-0.9-2-2c0,1.1-0.9,2-2,2s-2-0.9-2-2c0,1.1-0.9,2-2,2s-2-0.9-2-2c0,1.1-0.9,2-2,2
			s-2-0.9-2-2c0,1.1-0.9,2-2,2v41.505h15.5h16.5V10.493C46.879,10.492,45.988,9.593,45.988,8.493z"/>
		<path fill="#434A54" d="M47.012,54.499H31.514h-14.5h-2v5c0,2.2,1.801,4,4,4h12.5h13.498c2.201,0,4-1.8,4-4v-5H47.012z"/>
		<circle fill="#CCD1D9" cx="31.488" cy="56.498" r="2.5"/>
		<path fill="#656D78" d="M47.012,51.998H31.514h-14.5h-2v5c0,2.2,1.801,4,4,4h12.5h13.498c2.201,0,4-1.8,4-4v-5H47.012z
			 M31.514,58.998c-1.381,0-2.5-1.12-2.5-2.5s1.119-2.5,2.5-2.5c1.379,0,2.5,1.12,2.5,2.5S32.893,58.998,31.514,58.998z"/>
		<rect x="15.014" y="7.501" fill="#656D78" width="2" height="45.499"/>
		<rect x="46.988" y="7.501" fill="#656D78" width="2" height="45.499"/>
		<path fill="#656D78" d="M16.99,6.501h-2v-2c0-2.2,1.799-4,4-4h25.998c2.199,0,4,1.8,4,4v2h-2H16.99z"/>
		<path fill="#DA4453" d="M49.037,6.498h-2.051H15.039l-3.053,3.835v2.164c0,0.891,0.59,1.66,1.41,1.91
			c0.18,0.061,0.381,0.09,0.59,0.09c1.1,0,2-0.9,2-2c0,1.1,0.9,2,2,2s2-0.9,2-2c0,1.1,0.9,2,2,2s2-0.9,2-2c0,1.1,0.9,2,2,2
			s2-0.9,2-2c0,1.1,0.9,2,2,2s2-0.9,2-2c0,1.1,0.891,2,2,2c1.1,0,2-0.9,2-2c0,1.1,0.891,2,2,2c1.1,0,2-0.9,2-2c0,1.1,0.891,2,2,2
			c1.1,0,2-0.9,2-2c0,1.1,0.891,2,2,2c1.1,0,2-0.9,2-2c0,0.96,0.68,1.77,1.59,1.96c0.131,0.03,0.27,0.04,0.41,0.04c1.1,0,2-0.9,2-2
			v-2L49.037,6.498z"/>
		<g>
			<g>
				<path fill="#5D9CEC" d="M26.031,4.001c-0.277,0-0.506-0.224-0.506-0.5s0.219-0.5,0.494-0.5h0.012c0.275,0,0.5,0.224,0.5,0.5
					S26.307,4.001,26.031,4.001z"/>
			</g>
			<g>
				<path fill="#434A54" d="M38,4.001h-9c-0.275,0-0.5-0.224-0.5-0.5s0.225-0.5,0.5-0.5h9c0.277,0,0.5,0.224,0.5,0.5
					S38.277,4.001,38,4.001z"/>
			</g>
		</g>
		<g>
			<g>
				<path fill="#FFFFFF" d="M44.969,34.995h-12V24.993h3h3h6V34.995z"/>
			</g>
			<path fill="#CCD1D9" d="M41.467,30.995h-4h-1c-0.551,0-1,0.451-1,1c0,0.551,0.449,1,1,1h1h4c0.549,0,1-0.449,1-1
				C42.467,31.446,42.016,30.995,41.467,30.995z"/>
			<g>
				<polygon fill="#FFFFFF" points="41.969,20.993 44.969,24.993 38.969,24.993 39.449,24.353 				"/>
			</g>
			<g>
				<polygon fill="#F5F7FA" points="37.969,22.493 39.449,24.353 38.969,24.993 35.969,24.993 				"/>
			</g>
			<g>
				<path fill="#FFCE54" d="M35.969,18.993c0.549,0,1,0.449,1,1c0,0.549-0.451,1-1,1c-0.551,0-1-0.451-1-1
					C34.969,19.442,35.418,18.993,35.969,18.993z"/>
			</g>
			<g>
				<path fill="#5D9CEC" d="M35.969,20.993c0.549,0,1-0.451,1-1c0-0.551-0.451-1-1-1c-0.551,0-1,0.449-1,1
					C34.969,20.542,35.418,20.993,35.969,20.993z M32.969,16.993h12v8l-3-4l-2.52,3.359l-1.48-1.859l-2,2.5h-3V16.993z"/>
			</g>
			<g>
				<path fill="#E6E9ED" d="M41.971,27.995h-6.004c-0.275,0-0.5-0.225-0.5-0.5c0-0.277,0.225-0.5,0.5-0.5h6.004
					c0.277,0,0.5,0.223,0.5,0.5C42.471,27.771,42.248,27.995,41.971,27.995z"/>
			</g>
			<g>
				<path fill="#E6E9ED" d="M39.969,29.993h-2c-0.275,0-0.5-0.225-0.5-0.5c0-0.277,0.225-0.5,0.5-0.5h2c0.277,0,0.5,0.223,0.5,0.5
					C40.469,29.769,40.246,29.993,39.969,29.993z"/>
			</g>
		</g>
		<g>
			<g>
				<path fill="#FFFFFF" d="M30.967,34.995H18.965V24.993h3.002h3h6V34.995z"/>
			</g>
			<path fill="#CCD1D9" d="M27.463,30.995h-4h-1c-0.549,0-1,0.451-1,1c0,0.551,0.451,1,1,1h1h4c0.551,0,1-0.449,1-1
				C28.463,31.446,28.014,30.995,27.463,30.995z"/>
			<g>
				<polygon fill="#FFFFFF" points="27.967,20.993 30.967,24.993 24.967,24.993 25.447,24.353 				"/>
			</g>
			<g>
				<polygon fill="#F5F7FA" points="23.967,22.493 25.447,24.353 24.967,24.993 21.967,24.993 				"/>
			</g>
			<g>
				<path fill="#FFCE54" d="M21.965,18.993c0.551,0,1,0.449,1,1c0,0.549-0.449,1-1,1c-0.549,0-1-0.451-1-1
					C20.965,19.442,21.416,18.993,21.965,18.993z"/>
			</g>
			<g>
				<path fill="#5D9CEC" d="M21.965,20.993c0.551,0,1-0.451,1-1c0-0.551-0.449-1-1-1c-0.549,0-1,0.449-1,1
					C20.965,20.542,21.416,20.993,21.965,20.993z M18.965,16.993h12.002v8l-3-4l-2.52,3.359l-1.48-1.859l-2,2.5h-3.002V16.993z"/>
			</g>
			<g>
				<path fill="#E6E9ED" d="M27.969,27.995h-6.004c-0.277,0-0.5-0.225-0.5-0.5c0-0.277,0.223-0.5,0.5-0.5h6.004
					c0.275,0,0.5,0.223,0.5,0.5C28.469,27.771,28.244,27.995,27.969,27.995z"/>
			</g>
			<g>
				<path fill="#E6E9ED" d="M25.967,29.993h-2c-0.277,0-0.5-0.225-0.5-0.5c0-0.277,0.223-0.5,0.5-0.5h2c0.275,0,0.5,0.223,0.5,0.5
					C26.467,29.769,26.242,29.993,25.967,29.993z"/>
			</g>
		</g>
		<g>
			<g>
				<path fill="#FFFFFF" d="M44.969,51.998h-12v-7.001h3h3h6V51.998z"/>
			</g>
			<g>
				<polygon fill="#FFFFFF" points="41.969,40.997 44.969,44.997 38.969,44.997 39.449,44.356 				"/>
			</g>
			<g>
				<polygon fill="#F5F7FA" points="37.969,42.497 39.449,44.356 38.969,44.997 35.969,44.997 				"/>
			</g>
			<g>
				<path fill="#FFCE54" d="M35.969,38.997c0.549,0,1,0.449,1,1c0,0.549-0.451,1-1,1c-0.551,0-1-0.451-1-1
					C34.969,39.446,35.418,38.997,35.969,38.997z"/>
			</g>
			<g>
				<path fill="#5D9CEC" d="M35.969,40.997c0.549,0,1-0.451,1-1c0-0.551-0.451-1-1-1c-0.551,0-1,0.449-1,1
					C34.969,40.546,35.418,40.997,35.969,40.997z M32.969,36.997h12v8l-3-4l-2.52,3.359l-1.48-1.859l-2,2.5h-3V36.997z"/>
			</g>
			<g>
				<path fill="#E6E9ED" d="M41.971,47.999h-6.004c-0.275,0-0.5-0.225-0.5-0.5c0-0.277,0.225-0.5,0.5-0.5h6.004
					c0.277,0,0.5,0.223,0.5,0.5C42.471,47.774,42.248,47.999,41.971,47.999z"/>
			</g>
			<g>
				<path fill="#E6E9ED" d="M39.969,49.997h-2c-0.275,0-0.5-0.225-0.5-0.5c0-0.277,0.225-0.5,0.5-0.5h2c0.277,0,0.5,0.223,0.5,0.5
					C40.469,49.772,40.246,49.997,39.969,49.997z"/>
			</g>
		</g>
		<g>
			<g>
				<path fill="#FFFFFF" d="M30.967,51.998H18.965v-7.001h3.002h3h6V51.998z"/>
			</g>
			<g>
				<polygon fill="#FFFFFF" points="27.967,40.997 30.967,44.997 24.967,44.997 25.447,44.356 				"/>
			</g>
			<g>
				<polygon fill="#F5F7FA" points="23.967,42.497 25.447,44.356 24.967,44.997 21.967,44.997 				"/>
			</g>
			<g>
				<path fill="#FFCE54" d="M21.965,38.997c0.551,0,1,0.449,1,1c0,0.549-0.449,1-1,1c-0.549,0-1-0.451-1-1
					C20.965,39.446,21.416,38.997,21.965,38.997z"/>
			</g>
			<g>
				<path fill="#5D9CEC" d="M21.965,40.997c0.551,0,1-0.451,1-1c0-0.551-0.449-1-1-1c-0.549,0-1,0.449-1,1
					C20.965,40.546,21.416,40.997,21.965,40.997z M18.965,36.997h12.002v8l-3-4l-2.52,3.359l-1.48-1.859l-2,2.5h-3.002V36.997z"/>
			</g>
			<g>
				<path fill="#E6E9ED" d="M27.969,47.999h-6.004c-0.277,0-0.5-0.225-0.5-0.5c0-0.277,0.223-0.5,0.5-0.5h6.004
					c0.275,0,0.5,0.223,0.5,0.5C28.469,47.774,28.244,47.999,27.969,47.999z"/>
			</g>
			<g>
				<path fill="#E6E9ED" d="M25.967,49.997h-2c-0.277,0-0.5-0.225-0.5-0.5c0-0.277,0.223-0.5,0.5-0.5h2c0.275,0,0.5,0.223,0.5,0.5
					C26.467,49.772,26.242,49.997,25.967,49.997z"/>
			</g>
		</g>
		<path fill="#ED5564" d="M12.014,10.497v2c0,0.891,0.59,1.66,1.41,1.91c0.18,0.061,0.379,0.09,0.59,0.09c1.1,0,2-0.9,2-2
			c0,1.1,0.9,2,2,2s2-0.9,2-2c0,1.1,0.9,2,2,2s2-0.9,2-2c0,1.1,0.9,2,2,2s2-0.9,2-2c0,1.1,0.9,2,2,2s2-0.9,2-2c0,1.1,0.891,2,2,2
			c1.1,0,2-0.9,2-2c0,1.1,0.891,2,2,2c1.1,0,2-0.9,2-2c0,1.1,0.891,2,2,2c1.1,0,2-0.9,2-2c0,1.1,0.891,2,2,2c1.1,0,2-0.9,2-2
			c0,0.96,0.68,1.77,1.59,1.96c0.131,0.03,0.27,0.04,0.41,0.04c1.1,0,2-0.9,2-2v-2H12.014z"/>
	</g>
</g>
<g id="_x36__food_x2C__market_x2C__purchase_x2C__shop_x2C__shopping_x2C__commerce_x2C__basket">
</g>
<g id="_x35__discount_x2C__sale_x2C__purchase_x2C__pocket_x2C__shop_x2C__shopping_x2C__commerce">
</g>
<g id="_x34__badge_x2C__discount_x2C__sale_x2C__shop_x2C__shopping_x2C__commerce_x2C__market">
</g>
<g id="_x33__food_x2C__pocket_x2C__purchase_x2C__shop_x2C__shopping_x2C__commerce_x2C__supermarket">
</g>
<g id="_x32__shop_x2C__shopping_x2C__commerce_x2C__supermarket_x2C__market_x2C__cart">
</g>
<g id="_x31__list_x2C__check_x2C__notebook_x2C__pen_x2C__shop_x2C__shopping_x2C__commerce">
</g>
</svg>
