<svg xmlns="http://www.w3.org/2000/svg" viewBox="0 0 64 64"><title>7-Check List</title><g id="_7-Check_List" data-name="7-Check List"><path d="M31,16H23a1,1,0,0,1-1-1V7a1,1,0,0,1,1-1h8a1,1,0,0,1,1,1v8A1,1,0,0,1,31,16Zm-7-2h6V8H24Z"/><rect x="21.343" y="10" width="11.314" height="2" transform="translate(0.13 22.314) rotate(-45)"/><path d="M31,30H23a1,1,0,0,1-1-1V21a1,1,0,0,1,1-1h8a1,1,0,0,1,1,1v8A1,1,0,0,1,31,30Zm-7-2h6V22H24Z"/><rect x="21.343" y="24" width="11.314" height="2" transform="translate(-9.77 26.414) rotate(-45)"/><path d="M31,44H23a1,1,0,0,1-1-1V35a1,1,0,0,1,1-1h8a1,1,0,0,1,1,1v8A1,1,0,0,1,31,44Zm-7-2h6V36H24Z"/><rect x="21.343" y="38" width="11.314" height="2" transform="translate(-19.669 30.515) rotate(-45)"/><path d="M31,58H23a1,1,0,0,1-1-1V49a1,1,0,0,1,1-1h8a1,1,0,0,1,1,1v8A1,1,0,0,1,31,58Zm-7-2h6V50H24Z"/><rect x="21.343" y="52" width="11.314" height="2" transform="translate(-29.569 34.615) rotate(-45)"/><path d="M5,58H2a1.959,1.959,0,0,1-2-2V34H2V56H5Z"/><g id="_Group_" data-name="&lt;Group&gt;"><path d="M11,64H7a1,1,0,0,1-.707-.293l-2-2A1,1,0,0,1,4,61V9a1,1,0,0,1,.757-.97l4-1a1,1,0,0,1,.486,0l4,1A1,1,0,0,1,14,9V61a1,1,0,0,1-.293.707l-2,2A1,1,0,0,1,11,64ZM7.414,62h3.172L12,60.586V9.781l-3-.75-3,.75V60.586Z"/><rect x="5" y="53" width="8" height="2"/><path d="M12.105,9.447,9,3.236,5.9,9.447l-1.79-.894,4-8a1.042,1.042,0,0,1,1.79,0l4,8Z"/></g><rect x="8" y="12" width="2" height="39"/><g id="_Group_2" data-name="&lt;Group&gt;"><path d="M61,64H19a3,3,0,0,1-3-3V3a3,3,0,0,1,3-3H61a3,3,0,0,1,3,3V61A3,3,0,0,1,61,64ZM19,2a1,1,0,0,0-1,1V61a1,1,0,0,0,1,1H61a1,1,0,0,0,1-1V3a1,1,0,0,0-1-1Z"/></g><rect x="35" y="6" width="22" height="2"/><rect x="35" y="11" width="10" height="2"/><rect x="35" y="20" width="22" height="2"/><rect x="35" y="25" width="10" height="2"/><rect x="35" y="34" width="22" height="2"/><rect x="35" y="39" width="10" height="2"/><rect x="35" y="48" width="22" height="2"/><rect x="35" y="53" width="10" height="2"/></g></svg>