<svg xmlns="http://www.w3.org/2000/svg" viewBox="0 0 64 64"><g id="Layer_2" data-name="Layer 2"><path d="M18.082,13.694l-2.58.939a16,16,0,0,0-9.028,8.273L5.689,24.59,12.266,22.2l1.2-2.563,2.563,1.2,3.759-1.368,1.2-2.563,2.564,1.2L32,15.013l-1.684-.785A16,16,0,0,0,18.082,13.694Z" style="fill:#629955"/><path d="M45.918,13.694l2.58.939a16,16,0,0,1,9.028,8.273l.785,1.684L51.734,22.2l-1.2-2.563-2.563,1.2-3.759-1.368-1.2-2.563-2.564,1.2L32,15.013l1.684-.785A16,16,0,0,1,45.918,13.694Z" style="fill:#629955"/><path d="M40.581,3.131l-.645.372a16,16,0,0,0-7.455,9.715L32,15.013l8.66-5,.732-2.732,2.732.732,1.732-1,.732-2.732,2.733.732,5.2-3-1.8-.481A16,16,0,0,0,40.581,3.131Z" style="fill:#85b27c"/><path d="M43,5.148a1,1,0,0,1-.4-1.917,15.006,15.006,0,0,1,1.842-.661A1,1,0,1,1,45,4.492a13,13,0,0,0-1.6.573A.988.988,0,0,1,43,5.148Z" style="fill:#fff"/><path d="M23.419,3.131l.645.372a16,16,0,0,1,7.455,9.715l.481,1.8-8.66-5-.732-2.732-2.732.732-1.732-1-.732-2.732-2.733.732-5.2-3,1.8-.481A16,16,0,0,1,23.419,3.131Z" style="fill:#85b27c"/><path d="M20.118,23.594l.372-.645a16,16,0,0,1,9.715-7.455l1.8-.481-5,8.66-2.732.732L25,27.137l-1,1.732-2.732.732L22,32.334l-3,5.2-.481-1.8A16,16,0,0,1,20.118,23.594Z" style="fill:#85b27c"/><path d="M43.882,23.594l-.372-.645A16,16,0,0,0,33.8,15.494L32,15.013l5,8.66,2.732.732L39,27.137l1,1.732,2.732.732L42,32.334l3,5.2.481-1.8A16,16,0,0,0,43.882,23.594Z" style="fill:#85b27c"/><path d="M34,19.013H30a98.338,98.338,0,0,0-3.248,42.262A2,2,0,0,0,28.74,63h5.574a1.993,1.993,0,0,0,1.928-2.524A96.748,96.748,0,0,1,34,19.013Z" style="fill:#c67a60"/><path d="M36.114,60h0a6.923,6.923,0,0,1-6.884-6.3,97.853,97.853,0,0,1,2.918-34.688H30a98.338,98.338,0,0,0-3.248,42.262A2,2,0,0,0,28.74,63h5.574a2,2,0,0,0,1.924-2.537C36.194,60.309,36.157,60.154,36.114,60Z" style="fill:#b26049"/><circle cx="29" cy="20.013" r="3" style="fill:#629955"/><path d="M31,21a3,3,0,0,1-3-3,2.947,2.947,0,0,1,.136-.845,2.992,2.992,0,1,0,3.728,3.7A2.939,2.939,0,0,1,31,21Z" style="fill:#508c3f"/><circle cx="35" cy="20" r="3" style="fill:#629955"/><circle cx="32" cy="15" r="3" style="fill:#629955"/><path d="M34,16a3,3,0,0,1-3-3,2.947,2.947,0,0,1,.136-.845,2.992,2.992,0,1,0,3.728,3.7A2.939,2.939,0,0,1,34,16Z" style="fill:#508c3f"/><path d="M37,21a3,3,0,0,1-3-3,2.947,2.947,0,0,1,.136-.845,2.992,2.992,0,1,0,3.728,3.7A2.939,2.939,0,0,1,37,21Z" style="fill:#508c3f"/><path d="M59.218,24.167l-.785-1.684a16.9,16.9,0,0,0-9.593-8.79l-2.58-.939a17,17,0,0,0-6.636-.988l1.536-.887a1,1,0,0,0,.466-.607L42.1,8.505l1.767.474a1,1,0,0,0,.759-.1l1.731-1a1,1,0,0,0,.466-.607L47.3,5.506l1.767.473a1,1,0,0,0,.758-.1l5.2-3a1,1,0,0,0-.242-1.832L52.981.566a16.893,16.893,0,0,0-12.9,1.7l-.645.372a17,17,0,0,0-7.26,8.394c-.06,0-.116-.018-.176-.018s-.116.015-.176.018a17,17,0,0,0-7.259-8.393l-.646-.374a16.891,16.891,0,0,0-12.9-1.7l-1.794.481a1,1,0,0,0-.242,1.832l5.2,3a1,1,0,0,0,.758.1L16.7,5.506l.473,1.766a1,1,0,0,0,.466.607l1.731,1a1,1,0,0,0,.759.1L21.9,8.505l.473,1.767a1,1,0,0,0,.466.607l1.535.887a17,17,0,0,0-6.635.988l-2.579.939a16.894,16.894,0,0,0-9.594,8.79l-.785,1.684a1,1,0,0,0,1.249,1.362l6.578-2.394a1,1,0,0,0,.564-.517l.773-1.657,1.657.772a1,1,0,0,0,.764.034L20.126,20.4a.992.992,0,0,0,.564-.517l1.2-2.564a1,1,0,0,0-1.813-.844l-1.02,2.188-2.98,1.084-2.189-1.02a1,1,0,0,0-1.328.483L11.535,21.4,7.629,22.819a14.9,14.9,0,0,1,8.216-7.247l2.579-.939a15.022,15.022,0,0,1,9.634-.2,4.072,4.072,0,0,0-.058.577c0,.06.014.117.016.177a17,17,0,0,0-8.392,7.259l-.373.645a16.891,16.891,0,0,0-1.7,12.9l.481,1.8a1,1,0,0,0,.836.732.947.947,0,0,0,.13.009,1,1,0,0,0,.866-.5l3-5.2a.994.994,0,0,0,.1-.758l-.473-1.766,1.766-.474a1,1,0,0,0,.607-.465l1-1.733a1,1,0,0,0,.1-.759l-.473-1.766,1.766-.473a.977.977,0,0,0,.22-.108A100.241,100.241,0,0,0,25.761,61.41,3.01,3.01,0,0,0,28.74,64h5.573a2.983,2.983,0,0,0,2.4-1.2,2.947,2.947,0,0,0,.49-2.6A94.659,94.659,0,0,1,34.372,23.95a4.062,4.062,0,0,0,.628.063,3.949,3.949,0,0,0,.966-.131l.168.291a1,1,0,0,0,.607.466l1.766.473-.473,1.766a1,1,0,0,0,.1.759l1,1.733a1,1,0,0,0,.607.465l1.766.474-.473,1.766a.994.994,0,0,0,.1.758l3,5.2a1,1,0,0,0,.866.5.947.947,0,0,0,.13-.009,1,1,0,0,0,.836-.732l.481-1.8a16.891,16.891,0,0,0-1.7-12.9l-.373-.645a17.04,17.04,0,0,0-8.39-7.266c0-.057.014-.113.014-.17a4.072,4.072,0,0,0-.058-.577,15.021,15.021,0,0,1,9.634.2l2.58.94a14.886,14.886,0,0,1,8.215,7.246L52.465,21.4l-1.021-2.188a1,1,0,0,0-1.328-.483l-2.189,1.02-2.98-1.084-1.02-2.188a1,1,0,0,0-1.813.844l1.2,2.564a.992.992,0,0,0,.564.517l3.759,1.368a.988.988,0,0,0,.764-.034l1.657-.772.773,1.657a1,1,0,0,0,.564.517l6.578,2.394a1,1,0,0,0,1.249-1.362ZM32.45,16.958a2.013,2.013,0,0,1-.894,0,3.973,3.973,0,0,0-1.078-.658,2,2,0,1,1,3.094-.054c-.011.014-.013.031-.023.046A3.932,3.932,0,0,0,32.45,16.958ZM29,22.013a2,2,0,1,1,2-2A2,2,0,0,1,29,22.013ZM40.436,4.369,41.081,4A14.9,14.9,0,0,1,51.913,2.361L49.179,3.94l-2.332-.625a1,1,0,0,0-1.224.707L45,6.354l-1.015.586-2.332-.625a1,1,0,0,0-1.225.707L39.8,9.354l-4.952,2.859a4.028,4.028,0,0,0-.756-.593A15,15,0,0,1,40.436,4.369ZM23.574,7.022a1,1,0,0,0-1.225-.707l-2.332.625L19,6.354l-.625-2.332a1,1,0,0,0-1.224-.707l-2.332.625L12.087,2.361A14.9,14.9,0,0,1,22.918,4l.646.374a15,15,0,0,1,6.343,7.25,4.028,4.028,0,0,0-.756.593L24.2,9.354Zm.435,16.417a1,1,0,0,0-.707,1.225L23.927,27l-.586,1.015-2.332.625A1,1,0,0,0,20.3,29.86l.625,2.332-1.579,2.734a14.89,14.89,0,0,1,1.636-10.832l.372-.645A15,15,0,0,1,25.1,19.157a3.954,3.954,0,0,0,1.093,3.7ZM31.812,32H30a1,1,0,0,0,0,2h1.774a98.24,98.24,0,0,0,.4,10H29a1,1,0,0,0,0,2h3.383A92.316,92.316,0,0,0,34.07,56H30a1,1,0,0,0,0,2h4.549c.231.921.471,1.838.731,2.75a.964.964,0,0,1-.162.849,1,1,0,0,1-.8.4H28.74a1.006,1.006,0,0,1-1-.859Q27.12,56.554,26.915,52H31a1,1,0,0,0,0-2H26.845a98.466,98.466,0,0,1,.242-10H30a1,1,0,0,0,0-2H27.262a96.053,96.053,0,0,1,1.494-10H30a1,1,0,0,0,0-2h-.81q.232-1.031.491-2.056A3.971,3.971,0,0,0,32,22.631a4.017,4.017,0,0,0,.453.441Q31.938,27.575,31.812,32ZM33,20.013a2,2,0,1,1,2,2A2,2,0,0,1,33,20.013Zm9.644,3.436.372.645a14.9,14.9,0,0,1,1.636,10.832l-1.579-2.734L43.7,29.86a1,1,0,0,0-.707-1.224l-2.332-.625L40.073,27l.625-2.332a1,1,0,0,0-.707-1.225l-2.181-.584A3.955,3.955,0,0,0,38.9,19.161,15.029,15.029,0,0,1,42.644,23.449Z"/><circle cx="32" cy="14" r="1" style="fill:#fff"/></g></svg>