<svg xmlns="http://www.w3.org/2000/svg" viewBox="0 0 90 90"><title>7-Code</title><g id="_7-Code" data-name="7-Code"><g id="_Group_" data-name="&lt;Group&gt;"><path d="M45,90A45.042,45.042,0,0,1,2.322,30.683l1.9.634a43.005,43.005,0,1,0,83.069,5.865,42.042,42.042,0,0,0-1.505-5.864,43.077,43.077,0,0,0-54.465-27.1l-.634-1.9a45.074,45.074,0,0,1,57,28.36,43.973,43.973,0,0,1,1.576,6.14A45.017,45.017,0,0,1,45,90Z"/><rect x="33" y="36" width="56" height="2"/><polygon points="27.004 86.095 26.964 85.675 22.416 41.102 24.405 40.898 28.996 85.905 27.004 86.095"/><path d="M87,32H69a1,1,0,0,1-1-1V26H46.414l-4.707,4.707A1,1,0,0,1,41,31H39V29h1.586l4.707-4.707A1,1,0,0,1,46,24H69a1,1,0,0,1,1,1v5H87Z"/><path d="M12.293,28.707l-7-7a1,1,0,0,1,0-1.414l7-7,1.414,1.414L7.414,21l6.293,6.293Z"/><rect x="10.986" y="20.5" width="18.028" height="2" transform="translate(-6.933 33.198) rotate(-70.548)"/><path d="M29.707,28.707l-1.414-1.414L34.586,21l-6.293-6.293,1.414-1.414,7,7a1,1,0,0,1,0,1.414Z"/><path d="M21,42A20.992,20.992,0,1,1,42,21a20.754,20.754,0,0,1-2.216,9.389A20.972,20.972,0,0,1,23.507,41.843,19.734,19.734,0,0,1,21,42ZM21,2a19,19,0,0,0,0,38,17.867,17.867,0,0,0,2.263-.142,18.987,18.987,0,0,0,7.067-35.4l0,0A18.881,18.881,0,0,0,21,2Z"/><path d="M55,80H51a1,1,0,0,1-.973-.771l-1.158-4.911a12.6,12.6,0,0,1-1.67-.686l-4.283,2.649a1,1,0,0,1-1.232-.142l-2.83-2.821a1,1,0,0,1-.144-1.235L41.368,67.8a12.536,12.536,0,0,1-.686-1.669l-4.911-1.158A1,1,0,0,1,35,64V60a1,1,0,0,1,.771-.973l4.911-1.158a12.536,12.536,0,0,1,.686-1.669L38.71,51.917a1,1,0,0,1,.143-1.234l2.83-2.83a1,1,0,0,1,1.234-.143L47.2,50.368a12.536,12.536,0,0,1,1.669-.686l1.158-4.911A1,1,0,0,1,51,44h4a1,1,0,0,1,.973.771l1.158,4.911a12.536,12.536,0,0,1,1.669.686l4.283-2.658a1,1,0,0,1,1.234.143l2.83,2.83a1,1,0,0,1,.143,1.234L64.632,56.2a12.536,12.536,0,0,1,.686,1.669l4.911,1.158A1,1,0,0,1,71,60v4a1,1,0,0,1-.771.973l-4.911,1.158a12.536,12.536,0,0,1-.686,1.669l2.658,4.283a1,1,0,0,1-.144,1.235l-2.83,2.821a1,1,0,0,1-1.232.142L58.8,73.632a12.6,12.6,0,0,1-1.67.686l-1.158,4.911A1,1,0,0,1,55,80Zm-3.208-2h2.416l1.109-4.7a1,1,0,0,1,.7-.733,10.558,10.558,0,0,0,2.329-.959,1,1,0,0,1,1.017.021l4.1,2.535,1.707-1.7L62.63,68.367a1,1,0,0,1-.022-1.018,10.558,10.558,0,0,0,.959-2.329,1,1,0,0,1,.733-.7L69,63.208V60.792l-4.7-1.109a1,1,0,0,1-.733-.7,10.558,10.558,0,0,0-.959-2.329,1,1,0,0,1,.022-1.018l2.542-4.1-1.709-1.709-4.1,2.542a1,1,0,0,1-1.018.022,10.558,10.558,0,0,0-2.329-.959,1,1,0,0,1-.7-.733L54.208,46H51.792l-1.109,4.7a1,1,0,0,1-.7.733,10.558,10.558,0,0,0-2.329.959,1,1,0,0,1-1.018-.022l-4.1-2.542-1.709,1.709,2.542,4.1a1,1,0,0,1,.022,1.018,10.558,10.558,0,0,0-.959,2.329,1,1,0,0,1-.733.7L37,60.792v2.416l4.7,1.109a1,1,0,0,1,.733.7,10.558,10.558,0,0,0,.959,2.329,1,1,0,0,1-.022,1.018l-2.541,4.095,1.707,1.7,4.1-2.535a1,1,0,0,1,1.017-.021,10.558,10.558,0,0,0,2.329.959,1,1,0,0,1,.7.733Z"/><path d="M53,69a7,7,0,1,1,7-7A7.008,7.008,0,0,1,53,69Zm0-12a5,5,0,1,0,5,5A5.006,5.006,0,0,0,53,57Z"/></g></g></svg>