<svg xmlns="http://www.w3.org/2000/svg" viewBox="0 0 64 64"><title>72-Html Code</title><g id="_72-Html_Code" data-name="72-Html Code"><path d="M62,60H2a1,1,0,0,1-.707-.293l-1-1A1,1,0,0,1,0,58V52a1,1,0,0,1,1-1H24a1,1,0,0,1,1,1v2H39V52a1,1,0,0,1,1-1H63a1,1,0,0,1,1,1v6a1,1,0,0,1-.293.707l-1,1A1,1,0,0,1,62,60ZM2.414,58H61.586L62,57.586V53H41v1a2,2,0,0,1-2,2H25a2,2,0,0,1-2-2V53H2v4.586Z"/><path d="M4,52H2V10a1,1,0,0,1,.293-.707l1-1A1,1,0,0,1,4,8H31v2H4.414L4,10.414Z"/><path d="M56,49H8a2,2,0,0,1-2-2V14a2,2,0,0,1,2-2H30v2H8V47H56V36h2V47A2,2,0,0,1,56,49Z"/><path d="M54.192,34.021a1,1,0,0,1-.607-.207l-2.932-2.241a11.91,11.91,0,0,1-2.844,1.084l-.468-1.945a9.894,9.894,0,0,0,2.868-1.19,1,1,0,0,1,1.131.059L54.379,31.9l1.144-.382.382-1.143L53.581,27.34a1,1,0,0,1-.059-1.13,9.94,9.94,0,0,0,1.19-2.868,1,1,0,0,1,.84-.758l3.791-.5L59.882,21l-.539-1.079-3.791-.5a1,1,0,0,1-.84-.758,9.94,9.94,0,0,0-1.19-2.868,1,1,0,0,1,.059-1.13l2.324-3.039-.382-1.143L54.379,10.1,51.34,12.419a1,1,0,0,1-1.131.059,9.894,9.894,0,0,0-2.868-1.19,1,1,0,0,1-.757-.841l-.505-3.79L45,6.118l-1.079.539-.505,3.79a1,1,0,0,1-.757.841,9.894,9.894,0,0,0-2.868,1.19,1,1,0,0,1-1.131-.059L35.621,10.1l-1.144.382L34.1,11.621l2.324,3.039-1.588,1.215-2.646-3.46a1,1,0,0,1-.155-.924l.708-2.121a1,1,0,0,1,.632-.632l2.121-.707a.992.992,0,0,1,.924.155l2.932,2.241a11.9,11.9,0,0,1,2.174-.9l.488-3.657a1,1,0,0,1,.544-.763l2-1a1,1,0,0,1,.894,0l2,1a1,1,0,0,1,.544.763l.488,3.657a11.9,11.9,0,0,1,2.174.9l2.932-2.241a.992.992,0,0,1,.924-.155l2.121.707a1,1,0,0,1,.632.632l.708,2.121a1,1,0,0,1-.155.924l-2.242,2.932a11.925,11.925,0,0,1,.9,2.174l3.657.488a1,1,0,0,1,.763.544l1,2a1,1,0,0,1,0,.894l-1,2a1,1,0,0,1-.763.544l-3.657.488a11.925,11.925,0,0,1-.9,2.174l2.242,2.932a1,1,0,0,1,.155.924l-.708,2.121a1,1,0,0,1-.632.632l-2.121.707A.993.993,0,0,1,54.192,34.021Z"/><path d="M45,28V26a5,5,0,1,0-4.332-7.5l-1.731-1A7,7,0,1,1,45,28Z"/><rect x="60" y="26" width="2" height="26"/><path d="M53,45H48a1,1,0,0,1-1-1V39a1,1,0,0,1,1-1h5a1,1,0,0,1,1,1v5A1,1,0,0,1,53,45Zm-4-2h3V40H49Z"/><path d="M44,45H39a1,1,0,0,1-1-1V39a1,1,0,0,1,1-1h5a1,1,0,0,1,1,1v5A1,1,0,0,1,44,45Zm-4-2h3V40H40Z"/><rect x="10" y="22" width="2" height="14"/><rect x="16" y="22" width="2" height="14"/><rect x="11" y="28" width="6" height="2"/><rect x="11" y="28" width="6" height="2"/><rect x="20" y="22" width="8" height="2"/><rect x="23" y="23" width="2" height="13"/><path d="M38,36H36V28.515l-1.063,2.837a1,1,0,0,1-1.874,0L32,28.515V36H30V23a1,1,0,0,1,1.937-.352L34,28.152l2.063-5.5A1,1,0,0,1,38,23Z"/><path d="M47,36H43a2.916,2.916,0,0,1-3-3V22h2V33a.915.915,0,0,0,1,1h4Z"/></g></svg>