<svg xmlns="http://www.w3.org/2000/svg" viewBox="0 0 64 64"><title>73-Css Code</title><g id="_73-Css_Code" data-name="73-Css Code"><path d="M62,60H2a1,1,0,0,1-.707-.293l-1-1A1,1,0,0,1,0,58V52a1,1,0,0,1,1-1H24a1,1,0,0,1,1,1v2H39V52a1,1,0,0,1,1-1H63a1,1,0,0,1,1,1v6a1,1,0,0,1-.293.707l-1,1A1,1,0,0,1,62,60ZM2.414,58H61.586L62,57.586V53H41v1a2,2,0,0,1-2,2H25a2,2,0,0,1-2-2V53H2v4.586Z"/><path d="M4,52H2V10a1,1,0,0,1,.293-.707l1-1A1,1,0,0,1,4,8H31v2H4.414L4,10.414Z"/><path d="M56,49H8a2,2,0,0,1-2-2V14a2,2,0,0,1,2-2H30v2H8V47H56V36h2V47A2,2,0,0,1,56,49Z"/><path d="M47.991,36.132l-1.982-.264.575-4.315a1,1,0,0,1,.757-.841,9.911,9.911,0,0,0,2.869-1.19,1,1,0,0,1,1.13.059L54.379,31.9l1.143-.382.382-1.143L53.581,27.34a1,1,0,0,1-.059-1.13,9.911,9.911,0,0,0,1.19-2.869,1,1,0,0,1,.841-.757l3.79-.5L59.882,21l-.539-1.079-3.79-.5a1,1,0,0,1-.841-.757,9.911,9.911,0,0,0-1.19-2.869,1,1,0,0,1,.059-1.13L55.9,11.621l-.382-1.143L54.379,10.1,51.34,12.419a1,1,0,0,1-1.13.059,9.911,9.911,0,0,0-2.869-1.19,1,1,0,0,1-.757-.841l-.505-3.79L45,6.118l-1.079.539-.505,3.79a1,1,0,0,1-.757.841,9.911,9.911,0,0,0-2.869,1.19,1,1,0,0,1-1.13-.059L35.621,10.1l-1.144.382L34.1,11.621l2.323,3.039-1.588,1.215-2.646-3.46a1,1,0,0,1-.155-.924l.708-2.121a.994.994,0,0,1,.632-.632l2.121-.707a.991.991,0,0,1,.924.155l2.932,2.241a11.867,11.867,0,0,1,2.174-.9l.488-3.657a1,1,0,0,1,.544-.763l2-1a1,1,0,0,1,.894,0l2,1a1,1,0,0,1,.544.763l.488,3.657a11.867,11.867,0,0,1,2.174.9l2.932-2.241a.99.99,0,0,1,.924-.155l2.121.707a.994.994,0,0,1,.632.632l.707,2.121a1,1,0,0,1-.155.924l-2.241,2.932a11.867,11.867,0,0,1,.9,2.174l3.657.488a1,1,0,0,1,.763.544l1,2a1,1,0,0,1,0,.894l-1,2a1,1,0,0,1-.763.544l-3.657.488a11.867,11.867,0,0,1-.9,2.174l2.241,2.932a1,1,0,0,1,.155.924l-.707,2.121a.994.994,0,0,1-.632.632l-2.121.707a.993.993,0,0,1-.924-.155l-2.932-2.241a11.867,11.867,0,0,1-2.174.9Z"/><path d="M47.333,27.6l-.666-1.887A5,5,0,1,0,40,21H38a7,7,0,1,1,9.333,6.6Z"/><rect x="60" y="26" width="2" height="26"/><path d="M53,45H48a1,1,0,0,1-1-1V39a1,1,0,0,1,1-1h5a1,1,0,0,1,1,1v5A1,1,0,0,1,53,45Zm-4-2h3V40H49Z"/><path d="M39,33a5,5,0,1,1,5-5H42a3,3,0,1,0-3,3Z"/><path d="M39,41a5.006,5.006,0,0,1-5-5h2a3,3,0,1,0,3-3V31a5,5,0,0,1,0,10Z"/><path d="M27,33a5,5,0,1,1,5-5H30a3,3,0,1,0-3,3Z"/><path d="M27,41a5.006,5.006,0,0,1-5-5h2a3,3,0,1,0,3-3V31a5,5,0,0,1,0,10Z"/><path d="M15,41a5.006,5.006,0,0,1-5-5V28a5,5,0,0,1,10,0H18a3,3,0,0,0-6,0v8a3,3,0,0,0,6,0h2A5.006,5.006,0,0,1,15,41Z"/></g></svg>