<svg xmlns="http://www.w3.org/2000/svg" viewBox="0 0 64 64"><title>78-Coding</title><g id="_78-Coding" data-name="78-Coding"><path d="M32,48A24,24,0,1,1,49.241,7.305L47.8,8.7A22,22,0,1,0,32,46,21.924,21.924,0,0,0,52.962,30.7l1.906.608A23.92,23.92,0,0,1,32,48Z"/><path d="M32,43A19,19,0,1,1,40.713,7.111L39.8,8.889A16.813,16.813,0,0,0,32,7a17,17,0,1,0,6.61,32.667l.78,1.842A18.892,18.892,0,0,1,32,43Z"/><path d="M32,56a5,5,0,1,1,5-5A5.006,5.006,0,0,1,32,56Zm0-8a3,3,0,1,0,3,3A3,3,0,0,0,32,48Z"/><rect x="27" y="51" width="2" height="13"/><rect x="35" y="51" width="2" height="13"/><rect x="28" y="58" width="8" height="2"/><path d="M46,39H42a1,1,0,0,1-.851-.474l-13-21a1,1,0,0,1,.018-1.081l4-6A1,1,0,0,1,33,10H55a1,1,0,0,1,.832.445l4,6a1,1,0,0,1,.019,1.081l-13,21A1,1,0,0,1,46,39Zm-3.443-2h2.886L57.812,17.021,54.465,12H33.535l-3.347,5.021Z"/><rect x="29" y="16" width="30" height="2"/><path d="M50,18a.993.993,0,0,1-.707-.293l-5.226-5.226-4.3,5.16a1.007,1.007,0,0,1-.724.358.943.943,0,0,1-.752-.292l-6-6,1.414-1.414,5.226,5.226,4.3-5.16A1.007,1.007,0,0,1,43.955,10a.974.974,0,0,1,.752.292l5.226,5.226,4.3-5.16,1.538,1.282-5,6a1.007,1.007,0,0,1-.724.358Z"/><path d="M44,39h-.022a1,1,0,0,1-.951-.769l-5-21,1.946-.462,4.115,17.283,4.95-17.326,1.924.548-6,21A1,1,0,0,1,44,39Z"/><path d="M32,38A14.015,14.015,0,0,1,18,24h2A12.013,12.013,0,0,0,32,36Z"/></g></svg>