<?xml version="1.0" encoding="utf-8"?>
<!-- Generator: Adobe Illustrator 16.0.0, SVG Export Plug-In . SVG Version: 6.00 Build 0)  -->
<!DOCTYPE svg PUBLIC "-//W3C//DTD SVG 1.1//EN" "http://www.w3.org/Graphics/SVG/1.1/DTD/svg11.dtd">
<svg version="1.1" xmlns="http://www.w3.org/2000/svg" xmlns:xlink="http://www.w3.org/1999/xlink" x="0px" y="0px" width="64px"
	 height="64px" viewBox="0 0 64 64" enable-background="new 0 0 64 64" xml:space="preserve">
<g id="_x32_5_purse_x2C__money_x2C__coin_x2C__banknote_x2C__payment_x2C__shop_x2C__shopping">
</g>
<g id="_x32_4_pay_x2C__click_x2C__hand_x2C__coin_x2C__money_x2C__shop_x2C__payment">
</g>
<g id="_x32_3_card_x2C__discount_x2C__sale_x2C__shop_x2C__shopping_x2C__commerce_x2C__market">
</g>
<g id="_x32_2_safe_x2C__box_x2C__key_x2C__thing_x2C__shop_x2C__shopping_x2C__commerce">
</g>
<g id="_x32_1_cashbox_x2C__money_x2C__purchase_x2C__list_x2C__check_x2C__shop_x2C__shopping">
</g>
<g id="_x32_0_search_x2C__magnifier_x2C__basket_x2C__shop_x2C__shopping_x2C__commerce_x2C__market">
</g>
<g id="_x31_9_return_x2C__box_x2C__purchase_x2C__shipping_x2C__delivery_x2C__shop_x2C__shopping">
</g>
<g id="_x31_8_review_x2C__client_x2C__buyer_x2C__talk_x2C__shop_x2C__shopping_x2C__commerce">
</g>
<g id="_x31_7_manager_x2C__consultant_x2C__shop_x2C__shopping_x2C__commerce_x2C__market_x2C__badge">
</g>
<g id="_x31_6_check_x2C__list_x2C__cashbox_x2C__purchase_x2C__shop_x2C__shopping_x2C__commerce">
</g>
<g id="_x31_5_coupon_x2C__sale_x2C__discount_x2C__shop_x2C__shopping_x2C__commerce_x2C__market">
</g>
<g id="_x31_4_sale_x2C__discount_x2C__box_x2C__gift_x2C__shop_x2C__shopping_x2C__commerce">
</g>
<g id="_x31_3_map_x2C__pin_x2C__marker_x2C__location_x2C__shop_x2C__shopping_x2C__basket">
</g>
<g id="_x31_2_operator_x2C__call_x2C__center_x2C__shop_x2C__shopping_x2C__commerce_x2C__market">
</g>
<g id="_x31_1_courier_x2C__box_x2C__shipping_x2C__purchase_x2C__shop_x2C__shopping_x2C__commerce">
</g>
<g id="_x31_0_box_x2C__shipping_x2C__delivery_x2C__purchase_x2C__shop_x2C__shopping_x2C__commerce">
</g>
<g id="_x39__shipping_x2C__delivery_x2C__box_x2C__crane_x2C__shop_x2C__shopping_x2C__commerce">
</g>
<g id="_x38__computer_x2C__monitor_x2C__desktop_x2C__shop_x2C__shopping_x2C__commerce_x2C__market">
	<g>
		<rect x="5.502" y="10.762" fill="#E6E9ED" width="52.996" height="27.979"/>
		<g>
			<path fill="#E6E9ED" d="M32,41.74H2.502v4v0.02c0,1.65,1.35,3,3,3H32h26.498c1.65,0,3-1.35,3-3v-4.02H32z M32,46.74
				c-0.83,0-1.5-0.67-1.5-1.5s0.67-1.5,1.5-1.5s1.5,0.67,1.5,1.5S32.83,46.74,32,46.74z"/>
			<g>
				<circle fill="#CCD1D9" cx="32" cy="45.24" r="1.5"/>
			</g>
			<path fill="#CCD1D9" d="M58.498,48.76H32H5.502c-1.65,0-3-1.35-3-3v1.98c0,1.689,1.311,3,3,3c0.71,0,8.628,0,20.008,0
				c4.26,0,8.721,0,12.98,0c11.38,0,19.298,0,20.008,0c1.689,0,3-1.311,3-3v-1.98C61.498,47.41,60.148,48.76,58.498,48.76z"/>
			<g>
				<path fill="#CCD1D9" d="M38.49,50.74l2,9H23.51l2-9C29.77,50.74,34.23,50.74,38.49,50.74z"/>
			</g>
			<g>
				<path fill="#656D78" d="M61.498,6.76v34.98H32H2.502V6.76c0-1.648,1.35-3,3-3h52.996C60.148,3.76,61.498,5.111,61.498,6.76z
					 M58.498,38.74v-30v-2h-2h-2H53.5h0.002h-2H47.5h-2h-22h-4h-4h-1.998H7.5H5.502v2v30H58.498z"/>
			</g>
			<g>
				<path fill="#E6E9ED" d="M42,60.24H22c-0.276,0-0.5-0.225-0.5-0.5c0-0.277,0.224-0.5,0.5-0.5h20c0.276,0,0.5,0.223,0.5,0.5
					C42.5,60.016,42.276,60.24,42,60.24z"/>
			</g>
			<path fill="#AAB2BD" d="M38.713,51.742L38.49,50.74c-4.26,0-8.721,0-12.98,0l-0.223,1.002H38.713z"/>
		</g>
		<polygon fill="#DA4453" points="64,10.762 61.498,6.74 2.502,6.74 0,10.762 		"/>
		<path fill="#ED5564" d="M8,10.762H4v2c0,0.959,0.689,1.77,1.6,1.959c0.131,0.031,0.26,0.041,0.4,0.041c1.109,0,2-0.9,2-2
			c0,0.959,0.689,1.77,1.6,1.959c0.131,0.031,0.26,0.041,0.4,0.041c1.109,0,2-0.9,2-2c0,1.1,0.9,2,2,2c1.109,0,2-0.9,2-2
			c0,1.1,0.9,2,2,2c1.109,0,2-0.9,2-2c0,1.1,0.9,2,2,2c1.109,0,2-0.9,2-2c0,1.1,0.9,2,2,2c1.109,0,2-0.9,2-2c0,1.1,0.9,2,2,2
			c1.109,0,2-0.9,2-2c0,1.1,0.9,2,2,2c1.109,0,2-0.9,2-2c0,1.1,0.9,2,2,2c1.111,0,2-0.9,2-2c0,1.1,0.9,2,2,2c1.111,0,2-0.9,2-2
			c0,1.1,0.9,2,2,2c1.111,0,2-0.9,2-2c0,1.1,0.9,2,2,2c1.111,0,2-0.9,2-2c0,1.1,0.9,2,2,2c1.111,0,2-0.9,2-2c0,1.1,0.9,2,2,2
			c1.111,0,2-0.9,2-2c0,0.959,0.691,1.77,1.6,1.959c0.131,0.031,0.262,0.041,0.4,0.041c1.111,0,2-0.9,2-2v-2H8z"/>
		<path fill="#ED5564" d="M0,10.762v2c0,0.959,0.689,1.77,1.6,1.959c0.131,0.031,0.26,0.041,0.4,0.041c1.109,0,2-0.9,2-2v-2H0z"/>
		<g>
			<g>
				<g>
					<path fill="#FFFFFF" d="M21.999,35.732H9.998V25.73h3.001h3h6V35.732z"/>
				</g>
				<path fill="#CCD1D9" d="M18.496,31.732h-4h-1c-0.55,0-1,0.451-1,1c0,0.551,0.45,1,1,1h1h4c0.55,0,1-0.449,1-1
					C19.496,32.184,19.046,31.732,18.496,31.732z"/>
				<g>
					<polygon fill="#FFFFFF" points="18.999,21.73 21.999,25.73 15.999,25.73 16.479,25.09 					"/>
				</g>
				<g>
					<polygon fill="#F5F7FA" points="14.999,23.23 16.479,25.09 15.999,25.73 12.999,25.73 					"/>
				</g>
				<g>
					<path fill="#FFCE54" d="M12.998,19.73c0.55,0,1,0.449,1,1c0,0.549-0.45,1-1,1s-1-0.451-1-1
						C11.998,20.18,12.448,19.73,12.998,19.73z"/>
				</g>
				<g>
					<path fill="#5D9CEC" d="M12.998,21.73c0.55,0,1-0.451,1-1c0-0.551-0.45-1-1-1s-1,0.449-1,1
						C11.998,21.279,12.448,21.73,12.998,21.73z M9.998,17.73h12.001v8l-3-4l-2.52,3.359l-1.48-1.859l-2,2.5H9.998V17.73z"/>
				</g>
				<g>
					<path fill="#E6E9ED" d="M19.001,28.732h-6.004c-0.276,0-0.5-0.225-0.5-0.5c0-0.277,0.224-0.5,0.5-0.5h6.004
						c0.276,0,0.5,0.223,0.5,0.5C19.501,28.508,19.277,28.732,19.001,28.732z"/>
				</g>
				<g>
					<path fill="#E6E9ED" d="M16.999,30.73h-2c-0.276,0-0.5-0.225-0.5-0.5c0-0.277,0.224-0.5,0.5-0.5h2c0.276,0,0.5,0.223,0.5,0.5
						C17.499,30.506,17.275,30.73,16.999,30.73z"/>
				</g>
			</g>
			<g>
				<g>
					<path fill="#FFFFFF" d="M38.011,35.732H26.01V25.73h3.001h3h6V35.732z"/>
				</g>
				<path fill="#CCD1D9" d="M34.508,31.732h-4h-1c-0.55,0-1,0.451-1,1c0,0.551,0.45,1,1,1h1h4c0.55,0,1-0.449,1-1
					C35.508,32.184,35.058,31.732,34.508,31.732z"/>
				<g>
					<polygon fill="#FFFFFF" points="35.011,21.73 38.011,25.73 32.011,25.73 32.491,25.09 					"/>
				</g>
				<g>
					<polygon fill="#F5F7FA" points="31.011,23.23 32.491,25.09 32.011,25.73 29.011,25.73 					"/>
				</g>
				<g>
					<path fill="#FFCE54" d="M29.01,19.73c0.55,0,1,0.449,1,1c0,0.549-0.45,1-1,1s-1-0.451-1-1C28.01,20.18,28.46,19.73,29.01,19.73
						z"/>
				</g>
				<g>
					<path fill="#5D9CEC" d="M29.01,21.73c0.55,0,1-0.451,1-1c0-0.551-0.45-1-1-1s-1,0.449-1,1
						C28.01,21.279,28.46,21.73,29.01,21.73z M26.01,17.73h12.001v8l-3-4l-2.52,3.359l-1.48-1.859l-2,2.5H26.01V17.73z"/>
				</g>
				<g>
					<path fill="#E6E9ED" d="M35.013,28.732h-6.004c-0.276,0-0.5-0.225-0.5-0.5c0-0.277,0.224-0.5,0.5-0.5h6.004
						c0.276,0,0.5,0.223,0.5,0.5C35.513,28.508,35.289,28.732,35.013,28.732z"/>
				</g>
				<g>
					<path fill="#E6E9ED" d="M33.011,30.73h-2c-0.276,0-0.5-0.225-0.5-0.5c0-0.277,0.224-0.5,0.5-0.5h2c0.276,0,0.5,0.223,0.5,0.5
						C33.511,30.506,33.287,30.73,33.011,30.73z"/>
				</g>
			</g>
			<g>
				<g>
					<path fill="#FFFFFF" d="M54,35.732H41.999V25.73H45h3h6V35.732z"/>
				</g>
				<path fill="#CCD1D9" d="M50.497,31.732h-4h-1c-0.55,0-1,0.451-1,1c0,0.551,0.45,1,1,1h1h4c0.55,0,1-0.449,1-1
					C51.497,32.184,51.047,31.732,50.497,31.732z"/>
				<g>
					<polygon fill="#FFFFFF" points="51,21.73 54,25.73 48,25.73 48.48,25.09 					"/>
				</g>
				<g>
					<polygon fill="#F5F7FA" points="47,23.23 48.48,25.09 48,25.73 45,25.73 					"/>
				</g>
				<g>
					<path fill="#FFCE54" d="M44.999,19.73c0.55,0,1,0.449,1,1c0,0.549-0.45,1-1,1s-1-0.451-1-1
						C43.999,20.18,44.449,19.73,44.999,19.73z"/>
				</g>
				<g>
					<path fill="#5D9CEC" d="M44.999,21.73c0.55,0,1-0.451,1-1c0-0.551-0.45-1-1-1s-1,0.449-1,1
						C43.999,21.279,44.449,21.73,44.999,21.73z M41.999,17.73H54v8l-3-4l-2.52,3.359L47,23.23l-2,2.5h-3.001V17.73z"/>
				</g>
				<g>
					<path fill="#E6E9ED" d="M51.002,28.732h-6.004c-0.276,0-0.5-0.225-0.5-0.5c0-0.277,0.224-0.5,0.5-0.5h6.004
						c0.276,0,0.5,0.223,0.5,0.5C51.502,28.508,51.278,28.732,51.002,28.732z"/>
				</g>
				<g>
					<path fill="#E6E9ED" d="M49,30.73h-2c-0.276,0-0.5-0.225-0.5-0.5c0-0.277,0.224-0.5,0.5-0.5h2c0.276,0,0.5,0.223,0.5,0.5
						C49.5,30.506,49.276,30.73,49,30.73z"/>
				</g>
			</g>
		</g>
	</g>
</g>
<g id="_x37__mobile_x2C__phone_x2C__app_x2C__shop_x2C__shopping_x2C__commerce_x2C__market">
</g>
<g id="_x36__food_x2C__market_x2C__purchase_x2C__shop_x2C__shopping_x2C__commerce_x2C__basket">
</g>
<g id="_x35__discount_x2C__sale_x2C__purchase_x2C__pocket_x2C__shop_x2C__shopping_x2C__commerce">
</g>
<g id="_x34__badge_x2C__discount_x2C__sale_x2C__shop_x2C__shopping_x2C__commerce_x2C__market">
</g>
<g id="_x33__food_x2C__pocket_x2C__purchase_x2C__shop_x2C__shopping_x2C__commerce_x2C__supermarket">
</g>
<g id="_x32__shop_x2C__shopping_x2C__commerce_x2C__supermarket_x2C__market_x2C__cart">
</g>
<g id="_x31__list_x2C__check_x2C__notebook_x2C__pen_x2C__shop_x2C__shopping_x2C__commerce">
</g>
</svg>
