<svg xmlns="http://www.w3.org/2000/svg" viewBox="0 0 64 64"><title>80-Programming</title><g id="_80-Programming" data-name="80-Programming"><g id="_Group_" data-name="&lt;Group&gt;"><path d="M61,60H36V58H61a1,1,0,0,0,1-1V3a1,1,0,0,0-1-1H3A1,1,0,0,0,2,3V57a1,1,0,0,0,1,1H28v2H3a3,3,0,0,1-3-3V3A3,3,0,0,1,3,0H61a3,3,0,0,1,3,3V57A3,3,0,0,1,61,60Z"/><rect x="1" y="10" width="15" height="2"/></g><rect x="5" y="5" width="2" height="2"/><rect x="9" y="5" width="2" height="2"/><rect x="48" y="10" width="15" height="2"/><g id="_Group_2" data-name="&lt;Group&gt;"><path d="M32,47A20,20,0,1,1,52,27,20.023,20.023,0,0,1,32,47ZM32,9A18,18,0,1,0,50,27,18.021,18.021,0,0,0,32,9Z"/><path d="M32,55a5,5,0,1,1,5-5A5.006,5.006,0,0,1,32,55Zm0-8a3,3,0,1,0,3,3A3,3,0,0,0,32,47Z"/><rect x="35" y="50" width="2" height="14"/><rect x="27" y="50" width="2" height="14"/><path d="M32,43A16,16,0,1,1,48,27,16.019,16.019,0,0,1,32,43Zm0-30A14,14,0,1,0,46,27,14.015,14.015,0,0,0,32,13Z"/></g><path d="M26.293,32.707l-5-5a1,1,0,0,1,0-1.414l5-5,1.414,1.414L23.414,27l4.293,4.293Z"/><path d="M37.707,32.707l-1.414-1.414L40.586,27l-4.293-4.293,1.414-1.414,5,5a1,1,0,0,1,0,1.414Z"/><rect x="26.41" y="26.5" width="11.18" height="1.999" transform="translate(-0.778 54.067) rotate(-79.7)"/><path d="M57,34H55V32h.865a5.866,5.866,0,0,1,.877-3.977A2.717,2.717,0,0,1,58,27.154V27h2v1a1,1,0,0,1-1,1,.811.811,0,0,0-.71.29c-.61.743-.472,2.689-.31,3.516A1,1,0,0,1,57,34Z"/><path d="M60,27H58v-.154a2.717,2.717,0,0,1-1.258-.869A5.866,5.866,0,0,1,55.865,22H55V20h2a1,1,0,0,1,.98,1.194c-.162.827-.3,2.773.31,3.516A.811.811,0,0,0,59,25a1,1,0,0,1,1,1Z"/><path d="M6,27H4V26a1,1,0,0,1,1-1,.811.811,0,0,0,.71-.29c.61-.743.472-2.689.31-3.516A1,1,0,0,1,7,20H9v2H8.135a5.866,5.866,0,0,1-.877,3.977A2.717,2.717,0,0,1,6,26.846Z"/><path d="M9,34H7a1,1,0,0,1-.98-1.194c.162-.827.3-2.773-.31-3.516A.811.811,0,0,0,5,29a1,1,0,0,1-1-1V27H6v.154a2.717,2.717,0,0,1,1.258.869A5.866,5.866,0,0,1,8.135,32H9Z"/><rect x="57" y="49" width="2" height="7"/><rect x="45" y="49" width="2" height="7"/><path d="M53,56H51a2,2,0,0,1-2-2V51a2,2,0,0,1,2-2h2a2,2,0,0,1,2,2v3A2,2,0,0,1,53,56Zm-2-5v3l2,0V51Z"/><path d="M58,47H56a2,2,0,0,1-2-2V42a2,2,0,0,1,2-2h2a2,2,0,0,1,2,2v3A2,2,0,0,1,58,47Zm-2-5v3l2,0V42Z"/><rect x="5" y="49" width="2" height="7"/><rect x="17" y="49" width="2" height="7"/><path d="M13,56H11a2,2,0,0,1-2-2V51a2,2,0,0,1,2-2h2a2,2,0,0,1,2,2v3A2,2,0,0,1,13,56Zm-2-5v3h2V51Z"/><path d="M8,47H6a2,2,0,0,1-2-2V42a2,2,0,0,1,2-2H8a2,2,0,0,1,2,2v3A2,2,0,0,1,8,47ZM6,42v3H8V42Z"/></g></svg>