<svg xmlns="http://www.w3.org/2000/svg" viewBox="0 0 64 64"><title>82-Code</title><g id="_82-Code" data-name="82-Code"><path d="M62,60H2a1,1,0,0,1-.707-.293l-1-1A1,1,0,0,1,0,58V52a1,1,0,0,1,1-1H24a1,1,0,0,1,1,1v2H39V52a1,1,0,0,1,1-1H63a1,1,0,0,1,1,1v6a1,1,0,0,1-.293.707l-1,1A1,1,0,0,1,62,60ZM2.414,58H61.586L62,57.586V53H41v1a2,2,0,0,1-2,2H25a2,2,0,0,1-2-2V53H2v4.586Z"/><path d="M4,52H2V10a1,1,0,0,1,.293-.707l1-1A1,1,0,0,1,4,8H31v2H4.414L4,10.414Z"/><path d="M56,49H8a2,2,0,0,1-2-2V14a2,2,0,0,1,2-2H30v2H8V47H56V36h2V47A2,2,0,0,1,56,49Z"/><path d="M54.192,34.021a1,1,0,0,1-.607-.207l-3.46-2.645,1.215-1.588L54.379,31.9l1.144-.382.382-1.143L53.581,27.34a1,1,0,0,1-.059-1.13,9.94,9.94,0,0,0,1.19-2.868,1,1,0,0,1,.84-.758l3.791-.5L59.882,21l-.539-1.079-3.791-.5a1,1,0,0,1-.84-.758,9.94,9.94,0,0,0-1.19-2.868,1,1,0,0,1,.059-1.13l2.324-3.039-.382-1.143L54.379,10.1,51.34,12.419a1,1,0,0,1-1.131.059,9.894,9.894,0,0,0-2.868-1.19,1,1,0,0,1-.757-.841l-.505-3.79L45,6.118l-1.079.539-.505,3.79a1,1,0,0,1-.757.841,9.894,9.894,0,0,0-2.868,1.19,1,1,0,0,1-1.131-.059L35.621,10.1l-1.144.382L34.1,11.621l2.324,3.039-1.588,1.215-2.646-3.46a1,1,0,0,1-.155-.924l.708-2.121a1,1,0,0,1,.632-.632l2.121-.707a.992.992,0,0,1,.924.155l2.932,2.241a11.9,11.9,0,0,1,2.174-.9l.488-3.657a1,1,0,0,1,.544-.763l2-1a1,1,0,0,1,.894,0l2,1a1,1,0,0,1,.544.763l.488,3.657a11.9,11.9,0,0,1,2.174.9l2.932-2.241a.992.992,0,0,1,.924-.155l2.121.707a1,1,0,0,1,.632.632l.708,2.121a1,1,0,0,1-.155.924l-2.242,2.932a11.925,11.925,0,0,1,.9,2.174l3.657.488a1,1,0,0,1,.763.544l1,2a1,1,0,0,1,0,.894l-1,2a1,1,0,0,1-.763.544l-3.657.488a11.925,11.925,0,0,1-.9,2.174l2.242,2.932a1,1,0,0,1,.155.924l-.708,2.121a1,1,0,0,1-.632.632l-2.121.707A.993.993,0,0,1,54.192,34.021Z"/><path d="M51.6,23.333l-1.886-.666A5,5,0,1,0,40,21H38a7,7,0,1,1,13.6,2.333Z"/><rect x="60" y="26" width="2" height="26"/><path d="M15,40H14a4,4,0,0,1-4-4V28a4,4,0,0,1,4-4h1a4,4,0,0,1,4,4H17a2,2,0,0,0-2-2H14a2,2,0,0,0-2,2v8a2,2,0,0,0,2,2h1a2,2,0,0,0,2-2h2A4,4,0,0,1,15,40Z"/><path d="M26,40H25a4,4,0,0,1-4-4V28a4,4,0,0,1,4-4h1a4,4,0,0,1,4,4v8A4,4,0,0,1,26,40ZM25,26a2,2,0,0,0-2,2v8a2,2,0,0,0,2,2h1a2,2,0,0,0,2-2V28a2,2,0,0,0-2-2Z"/><path d="M36,40H33a1,1,0,0,1-1-1V25a1,1,0,0,1,1-1h3a4,4,0,0,1,4,4v8A4,4,0,0,1,36,40Zm-2-2h2a2,2,0,0,0,2-2V28a2,2,0,0,0-2-2H34Z"/><path d="M49,40H43a1,1,0,0,1-1-1V25a1,1,0,0,1,1-1h6v2H44V38h5Z"/><rect x="43" y="31" width="6" height="2"/></g></svg>