<svg xmlns="http://www.w3.org/2000/svg" viewBox="0 0 64 64"><title>86-Cloud</title><g id="_86-Cloud" data-name="86-Cloud"><path d="M51,46V44a10.995,10.995,0,0,0,2.937-21.591,1,1,0,0,1-.673-1.306A11.986,11.986,0,0,0,31.8,10.7a.99.99,0,0,1-1.012.46A11.048,11.048,0,0,0,29,11,10.93,10.93,0,0,0,18.015,21.728a1,1,0,0,1-1.335.918A10.995,10.995,0,1,0,13,44h8v2H13a13,13,0,0,1,0-26,12.814,12.814,0,0,1,3.109.386A12.907,12.907,0,0,1,29,9a11.923,11.923,0,0,1,1.462.093,13.981,13.981,0,0,1,25,11.707A12.994,12.994,0,0,1,51,46Z"/><path d="M18,41H17a4,4,0,0,1-4-4V29a4,4,0,0,1,4-4h1a4,4,0,0,1,4,4H20a2,2,0,0,0-2-2H17a2,2,0,0,0-2,2v8a2,2,0,0,0,2,2h1a2,2,0,0,0,2-2h2A4,4,0,0,1,18,41Z"/><path d="M29,41H28a4,4,0,0,1-4-4V29a4,4,0,0,1,4-4h1a4,4,0,0,1,4,4v8A4,4,0,0,1,29,41ZM28,27a2,2,0,0,0-2,2v8a2,2,0,0,0,2,2h1a2,2,0,0,0,2-2V29a2,2,0,0,0-2-2Z"/><path d="M39,41H36a1,1,0,0,1-1-1V26a1,1,0,0,1,1-1h3a4,4,0,0,1,4,4v8A4,4,0,0,1,39,41Zm-2-2h2a2,2,0,0,0,2-2V29a2,2,0,0,0-2-2H37Z"/><path d="M52,41H46a1,1,0,0,1-1-1V26a1,1,0,0,1,1-1h6v2H47V39h5Z"/><rect x="46" y="32" width="6" height="2"/><rect x="28" y="53" width="2" height="7"/><rect x="14" y="53" width="2" height="7"/><rect x="37" y="43" width="2" height="7"/><rect x="32" y="43" width="2" height="7"/><path d="M23,60H21a2,2,0,0,1-2-2V55a2,2,0,0,1,2-2h2a2,2,0,0,1,2,2v3A2,2,0,0,1,23,60Zm-2-5v3h2V55Z"/><path d="M46,50H44a2,2,0,0,1-2-2V45a2,2,0,0,1,2-2h2a2,2,0,0,1,2,2v3A2,2,0,0,1,46,50Zm-2-5v3h2V45Z"/><path d="M27,50H25a2,2,0,0,1-2-2V45a2,2,0,0,1,2-2h2a2,2,0,0,1,2,2v3A2,2,0,0,1,27,50Zm-2-5v3h2V45Z"/><rect x="43" y="53" width="2" height="7"/><path d="M38,60H36a2,2,0,0,1-2-2V55a2,2,0,0,1,2-2h2a2,2,0,0,1,2,2v3A2,2,0,0,1,38,60Zm0-5H36v3h2Z"/></g></svg>