<svg xmlns="http://www.w3.org/2000/svg" viewBox="0 0 64 64"><title>88-Php File</title><g id="_88-Php_File" data-name="88-Php File"><path d="M5,58H2a1.959,1.959,0,0,1-2-2V34H2V56H5Z"/><g id="_Group_" data-name="&lt;Group&gt;"><path d="M11,64H7a1,1,0,0,1-.707-.293l-2-2A1,1,0,0,1,4,61V9a1,1,0,0,1,.757-.97l4-1a.976.976,0,0,1,.486,0l4,1A1,1,0,0,1,14,9V61a1,1,0,0,1-.293.707l-2,2A1,1,0,0,1,11,64ZM7.414,62h3.172L12,60.586V9.781l-3-.75-3,.75V60.586Z"/><rect x="5" y="53" width="8" height="2"/><path d="M12.105,9.447,9,3.236,5.9,9.447l-1.79-.894,4-8a1.042,1.042,0,0,1,1.79,0l4,8Z"/></g><rect x="8" y="12" width="2" height="39"/><g id="_Group_2" data-name="&lt;Group&gt;"><path d="M61,64H19a3,3,0,0,1-3-3V3a3,3,0,0,1,3-3H61a3,3,0,0,1,3,3V61A3,3,0,0,1,61,64ZM19,2a1,1,0,0,0-1,1V61a1,1,0,0,0,1,1H61a1,1,0,0,0,1-1V3a1,1,0,0,0-1-1Z"/></g><g id="_Group_3" data-name="&lt;Group&gt;"><path d="M33,32a1,1,0,0,1-.515-.143L28,29.166l-4.485,2.691A1,1,0,0,1,22,31V1h2V29.233l3.485-2.09a1,1,0,0,1,1.03,0L32,29.233V1h2V31a1,1,0,0,1-1,1Z"/></g><path d="M56,25H54V23h.865a5.866,5.866,0,0,1,.877-3.977A2.717,2.717,0,0,1,57,18.154V18h2v1a1,1,0,0,1-1,1,.811.811,0,0,0-.71.29c-.61.743-.472,2.689-.31,3.516A1,1,0,0,1,56,25Z"/><path d="M59,18H57v-.154a2.717,2.717,0,0,1-1.258-.869A5.866,5.866,0,0,1,54.865,13H54V11h2a1,1,0,0,1,.98,1.194c-.162.827-.3,2.773.31,3.516A.811.811,0,0,0,58,16a1,1,0,0,1,1,1Z"/><path d="M39,18H37V17a1,1,0,0,1,1-1,.811.811,0,0,0,.71-.29c.61-.743.472-2.689.31-3.516A1,1,0,0,1,40,11h2v2h-.865a5.866,5.866,0,0,1-.877,3.977A2.717,2.717,0,0,1,39,17.846Z"/><path d="M42,25H40a1,1,0,0,1-.98-1.194c.162-.827.3-2.773-.31-3.516A.811.811,0,0,0,38,20a1,1,0,0,1-1-1V18h2v.154a2.717,2.717,0,0,1,1.258.869A5.866,5.866,0,0,1,41.135,23H42Z"/><rect x="43" y="17" width="2" height="2"/><rect x="51" y="17" width="2" height="2"/><rect x="47" y="17" width="2" height="2"/><path d="M26,55H24V38a1,1,0,0,1,1-1h4a3.887,3.887,0,0,1,4,4,5.624,5.624,0,0,1-1.838,4.466A7.934,7.934,0,0,1,26,47.062Zm0-9.938a6.018,6.018,0,0,0,3.857-1.112A3.674,3.674,0,0,0,31,41a1.883,1.883,0,0,0-2-2H26Z"/><path d="M49,55H47V38a1,1,0,0,1,1-1h4a3.888,3.888,0,0,1,4,4,5.621,5.621,0,0,1-1.838,4.466A7.979,7.979,0,0,1,49,47.062Zm0-9.938a6.123,6.123,0,0,0,3.856-1.112A3.671,3.671,0,0,0,54,41a1.883,1.883,0,0,0-2-2H49Z"/><rect x="35" y="37" width="2" height="18"/><rect x="43" y="37" width="2" height="18"/><rect x="36" y="45" width="8" height="2"/></g></svg>