<?xml version="1.0" encoding="utf-8"?>
<!-- Generator: Adobe Illustrator 16.0.0, SVG Export Plug-In . SVG Version: 6.00 Build 0)  -->
<!DOCTYPE svg PUBLIC "-//W3C//DTD SVG 1.1//EN" "http://www.w3.org/Graphics/SVG/1.1/DTD/svg11.dtd">
<svg version="1.1" xmlns="http://www.w3.org/2000/svg" xmlns:xlink="http://www.w3.org/1999/xlink" x="0px" y="0px" width="64px"
	 height="64px" viewBox="0 0 64 64" enable-background="new 0 0 64 64" xml:space="preserve">
<g id="_x32_5_purse_x2C__money_x2C__coin_x2C__banknote_x2C__payment_x2C__shop_x2C__shopping">
</g>
<g id="_x32_4_pay_x2C__click_x2C__hand_x2C__coin_x2C__money_x2C__shop_x2C__payment">
</g>
<g id="_x32_3_card_x2C__discount_x2C__sale_x2C__shop_x2C__shopping_x2C__commerce_x2C__market">
</g>
<g id="_x32_2_safe_x2C__box_x2C__key_x2C__thing_x2C__shop_x2C__shopping_x2C__commerce">
</g>
<g id="_x32_1_cashbox_x2C__money_x2C__purchase_x2C__list_x2C__check_x2C__shop_x2C__shopping">
</g>
<g id="_x32_0_search_x2C__magnifier_x2C__basket_x2C__shop_x2C__shopping_x2C__commerce_x2C__market">
</g>
<g id="_x31_9_return_x2C__box_x2C__purchase_x2C__shipping_x2C__delivery_x2C__shop_x2C__shopping">
</g>
<g id="_x31_8_review_x2C__client_x2C__buyer_x2C__talk_x2C__shop_x2C__shopping_x2C__commerce">
</g>
<g id="_x31_7_manager_x2C__consultant_x2C__shop_x2C__shopping_x2C__commerce_x2C__market_x2C__badge">
</g>
<g id="_x31_6_check_x2C__list_x2C__cashbox_x2C__purchase_x2C__shop_x2C__shopping_x2C__commerce">
</g>
<g id="_x31_5_coupon_x2C__sale_x2C__discount_x2C__shop_x2C__shopping_x2C__commerce_x2C__market">
</g>
<g id="_x31_4_sale_x2C__discount_x2C__box_x2C__gift_x2C__shop_x2C__shopping_x2C__commerce">
</g>
<g id="_x31_3_map_x2C__pin_x2C__marker_x2C__location_x2C__shop_x2C__shopping_x2C__basket">
</g>
<g id="_x31_2_operator_x2C__call_x2C__center_x2C__shop_x2C__shopping_x2C__commerce_x2C__market">
</g>
<g id="_x31_1_courier_x2C__box_x2C__shipping_x2C__purchase_x2C__shop_x2C__shopping_x2C__commerce">
</g>
<g id="_x31_0_box_x2C__shipping_x2C__delivery_x2C__purchase_x2C__shop_x2C__shopping_x2C__commerce">
</g>
<g id="_x39__shipping_x2C__delivery_x2C__box_x2C__crane_x2C__shop_x2C__shopping_x2C__commerce">
	<g>
		<path fill="#656D78" d="M50.207,18.064l-15.191-6.918v0.936h-0.357l15.135,6.893C49.86,19.006,49.931,19.02,50,19.02
			c0.189,0,0.371-0.107,0.455-0.293C50.569,18.477,50.459,18.18,50.207,18.064z"/>
		<g>
			<path fill="#FFCE54" d="M34.806,6.658c-0.304-0.295-0.603-0.578-0.82-0.781L33.86,5.76l0.837-2.199l0.021-2.08h-5.356l0.003,2.08
				l0.91,3.287c0.021,0.07,0.064,0.135,0.123,0.188l2.048,1.854c0.468,0.484,0.464,1.246,0,1.709c-0.456,0.459-1.255,0.455-1.71,0
				l-2.371-1.732c-0.069-0.061-0.168-0.1-0.271-0.1c-0.187,0-0.349,0.127-0.395,0.305c-0.134,0.436-0.199,0.875-0.199,1.32
				c0,2.451,2.101,3.912,4.554,3.912c2.451,0,4.446-1.994,4.446-4.447c0-0.578-0.043-1.188-0.355-1.74
				C36.075,7.969,35.87,7.689,34.806,6.658z"/>
		</g>
		<g>
			<path fill="#656D78" d="M14,19.02c-0.189,0-0.371-0.107-0.455-0.293c-0.114-0.25-0.004-0.547,0.248-0.662l17.98-8.188
				c0.253-0.113,0.548-0.004,0.662,0.248c0.114,0.25,0.004,0.547-0.248,0.662l-17.98,8.188C14.14,19.006,14.069,19.02,14,19.02z"/>
		</g>
		<path fill="#E6E9ED" d="M14,17.521c-0.553,0-1,0.447-1,1V18.52h2v0.002C15,17.969,14.553,17.521,14,17.521z"/>
		<path fill="#E6E9ED" d="M50,17.521c-0.553,0-1,0.447-1,1V18.52h2v0.002C51,17.969,50.553,17.521,50,17.521z"/>
		<rect x="14" y="22.52" fill="#F7C292" width="36" height="36"/>
		<g>
			<rect x="15.5" y="22.52" fill="#E2AD81" width="1" height="35"/>
			<rect x="19.5" y="22.52" fill="#E2AD81" width="1" height="36"/>
			<rect x="23.5" y="22.52" fill="#E2AD81" width="1" height="36"/>
			<rect x="27.5" y="22.52" fill="#E2AD81" width="1" height="36"/>
			<rect x="31.5" y="22.52" fill="#E2AD81" width="1" height="36"/>
			<rect x="35.5" y="22.52" fill="#E2AD81" width="1" height="36"/>
			<rect x="39.5" y="22.52" fill="#E2AD81" width="1" height="36"/>
			<rect x="43.5" y="22.52" fill="#E2AD81" width="1" height="36"/>
		</g>
		<g>
			<rect x="47.5" y="23.521" fill="#E2AD81" width="1" height="34.998"/>
		</g>
		<polygon fill="#FFD2A6" points="45.999,23.521 15,54.52 15,57.52 18,57.52 48.999,26.521 48.999,23.521 		"/>
		<rect x="10" y="18.52" fill="#FFD2A6" width="44" height="4"/>
		<rect x="10" y="58.52" fill="#FFD2A6" width="44" height="4"/>
		<rect x="50" y="22.52" fill="#FFD2A6" width="4" height="36"/>
		<rect x="10" y="22.52" fill="#FFD2A6" width="4" height="36"/>
		<g>
			<path fill="#E6E9ED" d="M12.03,21.02c-0.276,0-0.505-0.223-0.505-0.5c0-0.275,0.219-0.5,0.494-0.5h0.011
				c0.275,0,0.5,0.225,0.5,0.5C12.53,20.797,12.306,21.02,12.03,21.02z"/>
		</g>
		<g>
			<path fill="#E6E9ED" d="M12.03,26.021c-0.276,0-0.505-0.225-0.505-0.5c0-0.277,0.219-0.5,0.494-0.5h0.011
				c0.275,0,0.5,0.223,0.5,0.5C12.53,25.797,12.306,26.021,12.03,26.021z"/>
		</g>
		<g>
			<path fill="#E6E9ED" d="M52.03,26.021c-0.276,0-0.505-0.225-0.505-0.5c0-0.277,0.219-0.5,0.494-0.5h0.011
				c0.275,0,0.5,0.223,0.5,0.5C52.53,25.797,52.306,26.021,52.03,26.021z"/>
		</g>
		<g>
			<path fill="#E6E9ED" d="M52.03,56.02c-0.276,0-0.505-0.225-0.505-0.5c0-0.277,0.219-0.5,0.494-0.5h0.011
				c0.275,0,0.5,0.223,0.5,0.5C52.53,55.795,52.306,56.02,52.03,56.02z"/>
		</g>
		<g>
			<path fill="#E6E9ED" d="M52.03,61.02c-0.276,0-0.505-0.223-0.505-0.5c0-0.275,0.219-0.5,0.494-0.5h0.011
				c0.275,0,0.5,0.225,0.5,0.5C52.53,60.797,52.306,61.02,52.03,61.02z"/>
		</g>
		<g>
			<path fill="#E6E9ED" d="M12.03,61.02c-0.276,0-0.505-0.223-0.505-0.5c0-0.275,0.219-0.5,0.494-0.5h0.011
				c0.275,0,0.5,0.225,0.5,0.5C12.53,60.797,12.306,61.02,12.03,61.02z"/>
		</g>
		<g>
			<path fill="#E6E9ED" d="M12.03,56.02c-0.276,0-0.505-0.225-0.505-0.5c0-0.277,0.219-0.5,0.494-0.5h0.011
				c0.275,0,0.5,0.223,0.5,0.5C12.53,55.795,12.306,56.02,12.03,56.02z"/>
		</g>
		<g>
			<path fill="#E6E9ED" d="M18.031,55.02c-0.276,0-0.505-0.225-0.505-0.5c0-0.277,0.219-0.5,0.494-0.5h0.011
				c0.275,0,0.5,0.223,0.5,0.5C18.531,54.795,18.307,55.02,18.031,55.02z"/>
		</g>
		<g>
			<path fill="#E6E9ED" d="M52.03,21.02c-0.276,0-0.505-0.223-0.505-0.5c0-0.275,0.219-0.5,0.494-0.5h0.011
				c0.275,0,0.5,0.225,0.5,0.5C52.53,20.797,52.306,21.02,52.03,21.02z"/>
		</g>
		<g>
			<path fill="#E6E9ED" d="M46.029,27.021c-0.276,0-0.505-0.225-0.505-0.5c0-0.277,0.219-0.5,0.494-0.5h0.011
				c0.275,0,0.5,0.223,0.5,0.5C46.529,26.797,46.305,27.021,46.029,27.021z"/>
		</g>
		<rect x="10" y="57.52" fill="#F7C292" width="4" height="1"/>
		<rect x="10" y="22.52" fill="#F7C292" width="4" height="1"/>
		<rect x="50" y="57.52" fill="#F7C292" width="4" height="1"/>
		<rect x="50" y="22.52" fill="#F7C292" width="4" height="1"/>
	</g>
</g>
<g id="_x38__computer_x2C__monitor_x2C__desktop_x2C__shop_x2C__shopping_x2C__commerce_x2C__market">
</g>
<g id="_x37__mobile_x2C__phone_x2C__app_x2C__shop_x2C__shopping_x2C__commerce_x2C__market">
</g>
<g id="_x36__food_x2C__market_x2C__purchase_x2C__shop_x2C__shopping_x2C__commerce_x2C__basket">
</g>
<g id="_x35__discount_x2C__sale_x2C__purchase_x2C__pocket_x2C__shop_x2C__shopping_x2C__commerce">
</g>
<g id="_x34__badge_x2C__discount_x2C__sale_x2C__shop_x2C__shopping_x2C__commerce_x2C__market">
</g>
<g id="_x33__food_x2C__pocket_x2C__purchase_x2C__shop_x2C__shopping_x2C__commerce_x2C__supermarket">
</g>
<g id="_x32__shop_x2C__shopping_x2C__commerce_x2C__supermarket_x2C__market_x2C__cart">
</g>
<g id="_x31__list_x2C__check_x2C__notebook_x2C__pen_x2C__shop_x2C__shopping_x2C__commerce">
</g>
</svg>
