<svg xmlns="http://www.w3.org/2000/svg" viewBox="0 0 64 64"><g id="Layer_2" data-name="Layer 2"><path d="M40.633,63H23.367a1.266,1.266,0,0,1-1.054-1.969h0A16,16,0,0,0,25,52.156V41H39V52.156a16,16,0,0,0,2.687,8.875h0A1.266,1.266,0,0,1,40.633,63Z" style="fill:#c67a60"/><path d="M25,48.648a5.95,5.95,0,0,0,5.8-1,1.92,1.92,0,0,1,2.41,0,5.95,5.95,0,0,0,5.8,1V41H25Z" style="fill:#b26049"/><path d="M41.056,60H35.95a8.034,8.034,0,0,1-8.073-8.863A15.952,15.952,0,0,0,28,49.156V41H25V52.886a15.838,15.838,0,0,1-2.716,8.19A1.267,1.267,0,0,0,23.367,63H40.633a1.269,1.269,0,0,0,1.043-1.986Q41.346,60.518,41.056,60Z" style="fill:#b26049"/><path d="M23.125,6.357,11.661,39.11a5.884,5.884,0,0,0,4.726,7.859A5.906,5.906,0,0,0,17,47a5.993,5.993,0,0,0,5-2.686,6,6,0,0,0,10,0,6,6,0,0,0,10,0A5.993,5.993,0,0,0,47,47a5.74,5.74,0,0,0,5.339-7.89L40.875,6.357A8,8,0,0,0,33.324,1H30.676A8,8,0,0,0,23.125,6.357Z" style="fill:#85b27c"/><path d="M51.613,43.969A5.906,5.906,0,0,1,51,44a5.972,5.972,0,0,1-3.8-1.354,1.92,1.92,0,0,0-2.41,0,6,6,0,0,1-7.59,0,1.92,1.92,0,0,0-2.41,0,6,6,0,0,1-7.59,0,1.92,1.92,0,0,0-2.41,0,6,6,0,0,1-4.4,1.324,5.88,5.88,0,0,1-4.74-7.855L27.125,3.357a7.993,7.993,0,0,1,1.013-1.938,8,8,0,0,0-5.013,4.938L11.66,39.115A5.88,5.88,0,0,0,16.4,46.97,6,6,0,0,0,22,44.314a6,6,0,0,0,10,0,6,6,0,0,0,10,0A5.993,5.993,0,0,0,47,47a5.906,5.906,0,0,0,.613-.031,5.545,5.545,0,0,0,4.379-3.062C51.866,43.928,51.743,43.956,51.613,43.969Z" style="fill:#699b5d"/><path d="M23.137,6.383,16.65,25.122A5.744,5.744,0,0,0,22,33a5.993,5.993,0,0,0,5-2.686,6,6,0,0,0,10,0A5.993,5.993,0,0,0,42,33a5.744,5.744,0,0,0,5.35-7.878L40.863,6.383A8,8,0,0,0,33.3,1H30.7A8,8,0,0,0,23.137,6.383Z" style="fill:#629955"/><path d="M46.613,28.969A5.906,5.906,0,0,1,46,29a5.972,5.972,0,0,1-3.8-1.354,1.92,1.92,0,0,0-2.41,0,6,6,0,0,1-7.59,0,1.92,1.92,0,0,0-2.41,0,6,6,0,0,1-4.4,1.324,5.885,5.885,0,0,1-4.751-7.844L27.137,2.383c.08-.231.19-.444.29-.663a7.976,7.976,0,0,0-4.29,4.663L16.649,25.126A5.885,5.885,0,0,0,21.4,32.97,6,6,0,0,0,27,30.314a6,6,0,0,0,10,0A5.993,5.993,0,0,0,42,33a5.906,5.906,0,0,0,.613-.031,5.655,5.655,0,0,0,4.817-4.153A5.41,5.41,0,0,1,46.613,28.969Z" style="fill:#508c3f"/><path d="M23.177,6.47,21.6,11.216a5.882,5.882,0,0,0,3.621,7.514A6,6,0,0,0,32,16.314a6,6,0,0,0,6.784,2.416,5.882,5.882,0,0,0,3.621-7.514L40.823,6.47A8,8,0,0,0,33.234,1H30.766A8,8,0,0,0,23.177,6.47Z" style="fill:#85b27c"/><path d="M37,5.327a.988.988,0,0,1-.627-.222,5,5,0,0,0-1.667-.884,1,1,0,0,1,.588-1.912,6.934,6.934,0,0,1,2.333,1.24A1,1,0,0,1,37,5.327Z" style="fill:#fff"/><path d="M41.784,15.73a6.005,6.005,0,0,1-5.579-1.084,1.92,1.92,0,0,0-2.41,0,6.006,6.006,0,0,1-5.576,1.085,5.881,5.881,0,0,1-3.625-7.514L26.177,3.47a7.933,7.933,0,0,1,.643-1.406A7.972,7.972,0,0,0,23.177,6.47l-1.583,4.747a5.881,5.881,0,0,0,3.625,7.514A6,6,0,0,0,32,16.314a6,6,0,0,0,6.784,2.416,5.534,5.534,0,0,0,3.436-3.162C42.077,15.626,41.934,15.684,41.784,15.73Z" style="fill:#699b5d"/><path d="M53.282,38.78,41.819,6.027A9.01,9.01,0,0,0,33.324,0H30.676a9.01,9.01,0,0,0-8.495,6.027h0L10.718,38.78a7.142,7.142,0,0,0,.714,6.148,6.521,6.521,0,0,0,4.854,3.036A7.006,7.006,0,0,0,22,45.9a6.968,6.968,0,0,0,2,1.419v4.84a14.957,14.957,0,0,1-2.519,8.32A2.266,2.266,0,0,0,23.367,64H40.633a2.266,2.266,0,0,0,1.886-3.524A14.957,14.957,0,0,1,40,52.156v-4.84A6.968,6.968,0,0,0,42,45.9a7.006,7.006,0,0,0,5.714,2.067,6.521,6.521,0,0,0,4.854-3.036A7.142,7.142,0,0,0,53.282,38.78ZM40.855,61.585a.266.266,0,0,1-.222.415H23.367a.266.266,0,0,1-.222-.415A16.946,16.946,0,0,0,26,52.156V47.92A7.061,7.061,0,0,0,27,48a6.984,6.984,0,0,0,5-2.1A6.984,6.984,0,0,0,37,48a7.061,7.061,0,0,0,1-.08v4.236A16.946,16.946,0,0,0,40.855,61.585ZM50.881,43.854a4.54,4.54,0,0,1-3.369,2.121,5.061,5.061,0,0,1-4.679-2.214,1,1,0,0,0-1.666,0,5,5,0,0,1-8.334,0,1.037,1.037,0,0,0-1.666,0,5,5,0,0,1-8.334,0,1.037,1.037,0,0,0-1.666,0,5.043,5.043,0,0,1-4.679,2.213,4.536,4.536,0,0,1-3.369-2.12,5.133,5.133,0,0,1-.514-4.413l3.32-9.485a7.048,7.048,0,0,0,.509.979,6.529,6.529,0,0,0,4.852,3.029A7.006,7.006,0,0,0,27,31.9a7,7,0,0,0,10,0,7.006,7.006,0,0,0,5.714,2.067,6.4,6.4,0,0,0,4.02-1.97A1,1,0,1,0,45.29,30.61a4.421,4.421,0,0,1-2.778,1.364A4.809,4.809,0,0,1,42,32a4.993,4.993,0,0,1-4.167-2.239,1.037,1.037,0,0,0-1.666,0,5,5,0,0,1-8.334,0,1.037,1.037,0,0,0-1.666,0,5.052,5.052,0,0,1-4.679,2.213,4.48,4.48,0,0,1-3.368-2.115,5.138,5.138,0,0,1-.525-4.41c.046-.135,6.474-18.761,6.474-18.761A7.007,7.007,0,0,1,30.676,2h2.648a7.007,7.007,0,0,1,6.607,4.688s1.467,4.668,1.526,4.845a5.153,5.153,0,0,1-.3,3.957,4.508,4.508,0,0,1-2.672,2.285,5,5,0,0,1-5.654-2.014,1.037,1.037,0,0,0-1.666,0,5.008,5.008,0,0,1-5.654,2.015A4.367,4.367,0,0,1,23.728,16.7a1,1,0,1,0-1.405,1.424,6.371,6.371,0,0,0,2.6,1.558A7.011,7.011,0,0,0,32,17.9a7.011,7.011,0,0,0,7.081,1.789A6.491,6.491,0,0,0,42.939,16.4c.082-.16.151-.325.22-.49L51.4,39.441A5.133,5.133,0,0,1,50.881,43.854Z"/></g></svg>