<svg xmlns="http://www.w3.org/2000/svg" viewBox="0 0 64 64"><title>90-Pho File</title><g id="_90-Pho_File" data-name="90-Pho File"><path d="M54,64H10a3,3,0,0,1-3-3V13a1,1,0,0,1,.263-.676l11-12A1,1,0,0,1,19,0H54a3,3,0,0,1,3,3V61A3,3,0,0,1,54,64ZM9,13.389V61a1,1,0,0,0,1,1H54a1,1,0,0,0,1-1V3a1,1,0,0,0-1-1H19.439Z"/><path d="M19,14H8V12H18V1h2V13A1,1,0,0,1,19,14Z"/><path d="M49,18H47V16h.865a5.866,5.866,0,0,1,.877-3.977A2.717,2.717,0,0,1,50,11.154V11h2v1a1,1,0,0,1-1,1,.811.811,0,0,0-.71.29c-.61.743-.472,2.689-.31,3.516A1,1,0,0,1,49,18Z"/><path d="M52,11H50v-.154a2.717,2.717,0,0,1-1.258-.869A5.866,5.866,0,0,1,47.865,6H47V4h2a1,1,0,0,1,.98,1.194c-.162.827-.3,2.773.31,3.516A.811.811,0,0,0,51,9a1,1,0,0,1,1,1Z"/><path d="M14,51H12V50a1,1,0,0,1,1-1,.811.811,0,0,0,.71-.29c.61-.743.472-2.689.31-3.516A1,1,0,0,1,15,44h2v2h-.865a5.866,5.866,0,0,1-.877,3.977A2.717,2.717,0,0,1,14,50.846Z"/><path d="M17,58H15a1,1,0,0,1-.98-1.194c.162-.827.3-2.773-.31-3.516A.811.811,0,0,0,13,53a1,1,0,0,1-1-1V51h2v.154a2.717,2.717,0,0,1,1.258.869A5.866,5.866,0,0,1,16.135,56H17Z"/><rect x="27" y="14" width="15" height="2"/><rect x="27" y="10" width="15" height="2"/><rect x="36" y="6" width="6" height="2"/><rect x="20" y="46" width="15" height="2"/><rect x="20" y="50" width="15" height="2"/><rect x="20" y="54" width="6" height="2"/><path d="M18,40H16V23a1,1,0,0,1,1-1h4a3.888,3.888,0,0,1,4,4,5.621,5.621,0,0,1-1.838,4.466A8.063,8.063,0,0,1,18,32.062Zm0-9.938a6.132,6.132,0,0,0,3.856-1.112A3.671,3.671,0,0,0,23,26a1.883,1.883,0,0,0-2-2H18Z"/><path d="M41,40H39V23a1,1,0,0,1,1-1h4a3.888,3.888,0,0,1,4,4,5.621,5.621,0,0,1-1.838,4.466A8.044,8.044,0,0,1,41,32.062Zm0-9.938a6.142,6.142,0,0,0,3.856-1.112A3.671,3.671,0,0,0,46,26a1.883,1.883,0,0,0-2-2H41Z"/><rect x="27" y="22" width="2" height="18"/><rect x="35" y="22" width="2" height="18"/><rect x="28" y="30" width="8" height="2"/></g></svg>