<svg xmlns="http://www.w3.org/2000/svg" viewBox="0 0 64 64"><title>92-Html Code</title><g id="_92-Html_Code" data-name="92-Html Code"><rect x="23" y="35" width="2" height="14"/><rect x="29" y="35" width="2" height="14"/><rect x="24" y="41" width="6" height="2"/><rect x="24" y="41" width="6" height="2"/><rect x="33" y="35" width="8" height="2"/><rect x="36" y="36" width="2" height="13"/><path d="M51,49H49V41.515l-1.063,2.837a1,1,0,0,1-1.874,0L45,41.515V49H43V36a1,1,0,0,1,1.937-.352L47,41.152l2.063-5.5A1,1,0,0,1,51,36Z"/><path d="M60,49H56a2.916,2.916,0,0,1-3-3V35h2V46a.915.915,0,0,0,1,1h4Z"/><g id="_Group_" data-name="&lt;Group&gt;"><path d="M61,64H3a3,3,0,0,1-3-3V3A3,3,0,0,1,3,0H61a3,3,0,0,1,3,3V61A3,3,0,0,1,61,64ZM3,2A1,1,0,0,0,2,3V61a1,1,0,0,0,1,1H61a1,1,0,0,0,1-1V3a1,1,0,0,0-1-1Z"/><rect x="1" y="10" width="62" height="2"/></g><rect x="5" y="5" width="2" height="2"/><rect x="9" y="5" width="2" height="2"/><rect x="14" y="5" width="45" height="2"/><path d="M18,44H5a1,1,0,0,1-1-1V21a1,1,0,0,1,1-1H25a1,1,0,0,1,1,1V31H24V22H6V42H18Z"/><rect x="5" y="28" width="20" height="2"/><rect x="8" y="24" width="2" height="2"/><rect x="12" y="24" width="2" height="2"/><path d="M12.293,39.707l-3-3a1,1,0,0,1,0-1.414l3-3,1.414,1.414L11.414,36l2.293,2.293Z"/><path d="M17.707,39.707l-1.414-1.414L18.586,36l-2.293-2.293,1.414-1.414,3,3a1,1,0,0,1,0,1.414Z"/><rect x="29" y="29" width="11" height="2"/><rect x="29" y="25" width="6" height="2"/></g></svg>