<svg xmlns="http://www.w3.org/2000/svg" viewBox="0 0 64 64"><title>96-C Code</title><g id="_96-C_Code" data-name="96-C Code"><g id="_Group_" data-name="&lt;Group&gt;"><path d="M61,64H3a3,3,0,0,1-3-3V3A3,3,0,0,1,3,0H61a3,3,0,0,1,3,3V61A3,3,0,0,1,61,64ZM3,2A1,1,0,0,0,2,3V61a1,1,0,0,0,1,1H61a1,1,0,0,0,1-1V3a1,1,0,0,0-1-1Z"/><rect x="1" y="10" width="62" height="2"/></g><rect x="5" y="5" width="2" height="2"/><rect x="9" y="5" width="2" height="2"/><rect x="14" y="5" width="45" height="2"/><path d="M20,44H7a1,1,0,0,1-1-1V21a1,1,0,0,1,1-1H27a1,1,0,0,1,1,1V31H26V22H8V42H20Z"/><rect x="7" y="28" width="20" height="2"/><rect x="10" y="24" width="2" height="2"/><rect x="14" y="24" width="2" height="2"/><path d="M14.293,39.707l-3-3a1,1,0,0,1,0-1.414l3-3,1.414,1.414L13.414,36l2.293,2.293Z"/><path d="M19.707,39.707l-1.414-1.414L20.586,36l-2.293-2.293,1.414-1.414,3,3a1,1,0,0,1,0,1.414Z"/><rect x="31" y="29" width="11" height="2"/><rect x="31" y="25" width="6" height="2"/><path d="M29,52a5.006,5.006,0,0,1-5-5V39a5,5,0,0,1,10,0H32a3,3,0,0,0-6,0v8a3,3,0,0,0,6,0h2A5.006,5.006,0,0,1,29,52Z"/><rect x="40" y="34" width="2" height="18"/><rect x="46" y="34" width="2" height="18"/><rect x="37" y="38" width="14" height="2"/><rect x="37" y="46" width="14" height="2"/></g></svg>