<svg xmlns="http://www.w3.org/2000/svg" viewBox="0 0 64 64"><title>97-404 Error Site</title><g id="_97-404_Error_Site" data-name="97-404 Error Site"><g id="_Group_" data-name="&lt;Group&gt;"><path d="M61,64H3a3,3,0,0,1-3-3V3A3,3,0,0,1,3,0H61a3,3,0,0,1,3,3V61A3,3,0,0,1,61,64ZM3,2A1,1,0,0,0,2,3V61a1,1,0,0,0,1,1H61a1,1,0,0,0,1-1V3a1,1,0,0,0-1-1Z"/><rect x="1" y="10" width="62" height="2"/></g><rect x="5" y="5" width="2" height="2"/><rect x="9" y="5" width="2" height="2"/><rect x="14" y="5" width="45" height="2"/><g id="_Group_2" data-name="&lt;Group&gt;"><path d="M56,19H8a1,1,0,0,1-.707-.293l-3-3,1.414-1.414L8.414,17H55.586l2.707-2.707,1.414,1.414-3,3A1,1,0,0,1,56,19Z"/><path d="M58.293,59.707,55.586,57H8.414L5.707,59.707,4.293,58.293l3-3A1,1,0,0,1,8,55H56a1,1,0,0,1,.707.293l3,3Z"/></g><path d="M21,51H19V47H15a2.916,2.916,0,0,1-3-3,1.026,1.026,0,0,1,.06-.342l4-11A1,1,0,0,1,17,32h3a1,1,0,0,1,1,1V45h3v2H21Zm-6.99-6.853A.888.888,0,0,0,15,45h4V34H17.7Z"/><path d="M48,51H46V47H42a2.916,2.916,0,0,1-3-3,1.026,1.026,0,0,1,.06-.342l4-11A1,1,0,0,1,44,32h3a1,1,0,0,1,1,1V45h3v2H48Zm-6.99-6.853A.888.888,0,0,0,42,45h4V34H44.7Z"/><path d="M34,51H29a3,3,0,0,1-3-3V35a3,3,0,0,1,3-3h5a3,3,0,0,1,3,3V48A3,3,0,0,1,34,51ZM29,34a1,1,0,0,0-1,1V48a1,1,0,0,0,1,1h5a1,1,0,0,0,1-1V35a1,1,0,0,0-1-1Z"/><g id="_Group_3" data-name="&lt;Group&gt;"><path d="M51,29H13a1,1,0,0,1-1-1V23a1,1,0,0,1,1-1H51a1,1,0,0,1,1,1v5A1,1,0,0,1,51,29ZM14,27H50V24H14Z"/><rect x="14.964" y="24.5" width="7.071" height="2" transform="translate(-12.613 20.55) rotate(-45)"/><rect x="21.964" y="24.5" width="7.071" height="2" transform="translate(-10.562 25.5) rotate(-45)"/><rect x="28.964" y="24.5" width="7.071" height="2" transform="translate(-8.512 30.45) rotate(-45)"/><rect x="35.964" y="24.5" width="7.071" height="2" transform="translate(-6.462 35.399) rotate(-45)"/><rect x="42.964" y="24.5" width="7.071" height="2" transform="translate(-4.412 40.349) rotate(-45)"/></g></g></svg>