<svg xmlns="http://www.w3.org/2000/svg" viewBox="0 0 64 64"><title>98-Bug</title><g id="_98-Bug" data-name="98-Bug"><g id="_Group_" data-name="&lt;Group&gt;"><path d="M61,64H3a3,3,0,0,1-3-3V3A3,3,0,0,1,3,0H61a3,3,0,0,1,3,3V61A3,3,0,0,1,61,64ZM3,2A1,1,0,0,0,2,3V61a1,1,0,0,0,1,1H61a1,1,0,0,0,1-1V3a1,1,0,0,0-1-1Z"/><rect x="1" y="10" width="62" height="2"/></g><rect x="5" y="5" width="2" height="2"/><rect x="9" y="5" width="2" height="2"/><rect x="14" y="5" width="45" height="2"/><path d="M19,51V49c3.15,0,4-3.114,4.031-3.247l1.939.489A6.255,6.255,0,0,1,19,51Z"/><path d="M44.97,51A6.255,6.255,0,0,1,39,46.242l1.938-.489c.036.133.882,3.247,4.032,3.247Z"/><path d="M40.938,32.247,39,31.758A6.255,6.255,0,0,1,44.97,27v2C41.82,29,40.974,32.114,40.938,32.247Z"/><path d="M23.031,32.247C23,32.114,22.15,29,19,29V27a6.255,6.255,0,0,1,5.97,4.758Z"/><path d="M48.553,39.9l-1.934-.967c-2.1-.673-2.718.507-2.724.519l-1.79-.894c.481-.96,2.187-2.509,5.211-1.5a.876.876,0,0,1,.131.053l2,1Z"/><path d="M15.447,39.9l-.894-1.79,2-1a.876.876,0,0,1,.131-.053c3.025-1.007,4.731.542,5.211,1.5l-1.78.913c-.069-.125-.729-1.18-2.734-.538Z"/><g id="_Group_2" data-name="&lt;Group&gt;"><path d="M32,55a5.844,5.844,0,0,1-3.579-1.483c-4.28-3.382-8.166-11.744-8.329-12.1A1,1,0,0,1,20,41c0-6.3,2.338-10.869,6.583-12.874A12.614,12.614,0,0,1,32,27a12.614,12.614,0,0,1,5.417,1.126C41.662,30.131,44,34.7,44,41a1,1,0,0,1-.092.419c-.163.354-4.05,8.716-8.328,12.1l0,0A5.841,5.841,0,0,1,32,55ZM22,40.778c.608,1.273,4.1,8.353,7.659,11.167A4.043,4.043,0,0,0,32,53a4.051,4.051,0,0,0,2.342-1.056c3.566-2.818,7.049-9.893,7.657-11.166-.033-3.209-.813-8.66-5.436-10.843A10.618,10.618,0,0,0,32,29a10.629,10.629,0,0,0-4.564.935C22.814,32.118,22.035,37.569,22,40.778Z"/><path d="M32,29a4,4,0,1,1,4-4A4,4,0,0,1,32,29Zm0-6a2,2,0,1,0,2,2A2,2,0,0,0,32,23Z"/><path d="M34.011,53.146,32,39.74,29.989,53.146l-1.978-.292,3-20a1,1,0,0,1,1.978,0l3,20Z"/><path d="M32,34a6.215,6.215,0,0,1-5.951-4.69A1.143,1.143,0,0,1,26,29h1l.913-.4a1.041,1.041,0,0,1,.063.172C28.011,28.905,28.87,32,32,32a4.312,4.312,0,0,0,4.023-3.226,1.055,1.055,0,0,1,.064-.173l.84.4H38l-.065.28.022.006A6.21,6.21,0,0,1,32,34Z"/></g><path d="M29.684,23.948c-.139-.046-3.407-1.157-4.579-3.5l1.79-.894c.668,1.337,2.7,2.257,3.421,2.5Z"/><path d="M34.316,23.948l-.633-1.9c.726-.245,2.759-1.172,3.422-2.5l1.79.894C37.723,22.791,34.455,23.9,34.316,23.948Z"/><path d="M22.965,19.189a8.605,8.605,0,0,1-.1-2.189H22V15h2a1,1,0,0,1,.981,1.2,8.085,8.085,0,0,0-.052,2.616Z"/><path d="M7,22H5V21a1,1,0,0,1,1-1,.81.81,0,0,0,.71-.29c.611-.743.472-2.689.309-3.516A1,1,0,0,1,8,15h2v2H9.135a5.872,5.872,0,0,1-.877,3.977A2.717,2.717,0,0,1,7,21.846Z"/><path d="M10,29H8a1,1,0,0,1-.981-1.194c.163-.827.3-2.773-.309-3.516A.81.81,0,0,0,6,24a1,1,0,0,1-1-1V22H7v.154a2.717,2.717,0,0,1,1.258.869A5.872,5.872,0,0,1,9.135,27H10Z"/><rect x="11" y="21" width="2" height="2"/><rect x="19" y="21" width="2" height="2"/><rect x="15" y="21" width="2" height="2"/><path d="M47.293,59.707l-3-3a1,1,0,0,1,0-1.414l3-3,1.414,1.414L46.414,56l2.293,2.293Z"/><path d="M55.707,59.707l-1.414-1.414L56.586,56l-2.293-2.293,1.414-1.414,3,3a1,1,0,0,1,0,1.414Z"/></g></svg>