<?xml version="1.0" encoding="utf-8"?>
<!-- Generator: Adobe Illustrator 24.0.0, SVG Export Plug-In . SVG Version: 6.00 Build 0)  -->
<svg version="1.1" xmlns="http://www.w3.org/2000/svg" xmlns:xlink="http://www.w3.org/1999/xlink" x="0px" y="0px"
	 viewBox="0 0 256 256" enable-background="new 0 0 256 256" xml:space="preserve">
<g id="Layer_1">
</g>
<g id="Layer_2">
</g>
<g id="Layer_3">
</g>
<g id="Layer_4">
</g>
<g id="Layer_5">
</g>
<g id="Layer_6">
</g>
<g id="Layer_7">
	<g>
		<g>
			<g>
				<circle fill="#DAE6F1" cx="202.168" cy="92.113" r="28.834"/>
			</g>
		</g>
		<g>
			<g>
				<path fill="#FCA265" d="M43.672,124.157c0-28.104,15.103-54.363,39.414-68.53c2.959-1.725,3.961-5.522,2.236-8.482
					c-1.725-2.959-5.521-3.961-8.482-2.236c-28.111,16.381-45.573,46.747-45.573,79.248c0,33.787,18.378,63.359,45.661,79.255h46
					C79.225,203.412,43.672,167.859,43.672,124.157z"/>
			</g>
		</g>
		<g>
			<g>
				<path fill="#FCA265" d="M236.177,205.229l-15.379-15.379c-2.422-2.422-6.35-2.422-8.772,0c-2.422,2.422-2.422,6.349,0,8.772
					l4.791,4.791h-47.89c-13.529,7.882-29.245,12.405-46,12.405h93.89l-4.791,4.792c-2.422,2.422-2.422,6.349,0,8.772
					c2.423,2.422,6.349,2.422,8.772,0l15.379-15.38C238.599,211.578,238.599,207.651,236.177,205.229z"/>
			</g>
		</g>
		<g>
			<g>
				<path fill="#F5C84C" d="M127.225,32.601l4.545-4.545c2.422-2.422,2.422-6.349,0-8.772c-2.422-2.422-6.35-2.422-8.772,0
					l-15.379,15.379c-2.422,2.422-2.422,6.349,0,8.772l15.379,15.38c2.421,2.421,6.349,2.423,8.772,0
					c2.422-2.422,2.422-6.349,0-8.772l-5.045-5.045c21.957,1.041,41.591,11.068,55.33,26.464c3.004-2.926,6.642-5.2,10.69-6.599
					C176.786,46.102,153.433,33.816,127.225,32.601z"/>
			</g>
		</g>
		<g>
			<g>
				<path fill="#70D6F9" d="M214.375,118.237c-3.708,1.736-7.843,2.711-12.207,2.711c-0.022,0-0.043-0.002-0.065-0.002
					c0.043,1.067,0.079,2.135,0.079,3.212c0,43.701-35.554,79.255-79.256,79.255H24.209c-3.425,0-6.202,2.777-6.202,6.202
					s2.777,6.202,6.202,6.202h98.718c50.542,0,91.66-41.119,91.66-91.66C214.588,122.166,214.501,120.197,214.375,118.237z"/>
			</g>
		</g>
		<g>
			<g>
				<path fill="#F5C84C" d="M31.8,55.182c-4.5-0.8-8-4.3-8.9-8.7c0-0.2-0.4-0.2-0.4,0c-0.9,4.4-4.4,7.9-8.9,8.7
					c-0.2,0-0.2,0.3,0,0.4c4.5,0.8,8,4.3,8.9,8.7c0,0.2,0.4,0.2,0.4,0c0.9-4.4,4.4-7.9,8.9-8.7C32,55.482,32,55.182,31.8,55.182z"/>
			</g>
		</g>
		<g>
			<g>
				<path fill="#F5C84C" d="M122.61,234.542c-3.158-0.561-5.613-3.017-6.245-6.104c0-0.14-0.281-0.14-0.281,0
					c-0.631,3.087-3.087,5.543-6.245,6.104c-0.14,0-0.14,0.211,0,0.281c3.158,0.561,5.613,3.017,6.245,6.104
					c0,0.14,0.281,0.14,0.281,0c0.631-3.087,3.087-5.543,6.245-6.104C122.75,234.753,122.75,234.542,122.61,234.542z"/>
			</g>
		</g>
		<g>
			<g>
				<path fill="#FC657E" d="M252.8,172.432h-2.3v-2.3c0-1.7-1.4-3.2-3.2-3.2s-3.2,1.4-3.2,3.2v2.3h-2.3c-1.7,0-3.2,1.4-3.2,3.2
					c0,1.8,1.4,3.2,3.2,3.2h2.3v2.3c0,1.7,1.4,3.2,3.2,3.2s3.2-1.4,3.2-3.2v-2.3h2.3c1.7,0,3.2-1.4,3.2-3.2
					C256,173.832,254.6,172.432,252.8,172.432z"/>
			</g>
		</g>
		<g>
			<g>
				<path fill="#87D147" d="M3.4,84.332c-1.878,0-3.4,1.522-3.4,3.4s1.522,3.4,3.4,3.4c1.878,0,3.4-1.522,3.4-3.4
					S5.278,84.332,3.4,84.332z"/>
			</g>
		</g>
		<g>
			<g>
				<path fill="#70D6F9" d="M237.8,141.332c-1.878,0-3.4,1.522-3.4,3.4s1.522,3.4,3.4,3.4c1.878,0,3.4-1.522,3.4-3.4
					S239.678,141.332,237.8,141.332z"/>
			</g>
		</g>
		<g>
			<g>
				<path fill="#B2E26D" d="M215.784,83.946c-2.073-2.072-5.432-2.072-7.505,0l-8.515,8.515l-4.268-4.268
					c-2.073-2.072-5.432-2.072-7.505,0c-2.072,2.072-2.072,5.433,0,7.505l8.021,8.021c1.036,1.036,2.394,1.554,3.753,1.554
					c1.358,0,2.716-0.518,3.753-1.554l12.267-12.267C217.857,89.379,217.857,86.019,215.784,83.946z"/>
			</g>
		</g>
		<g>
			<g>
				<g>
					<g>
						<path d="M217.552,82.178c-3.044-3.042-7.996-3.042-11.04,0l-6.747,6.747l-2.501-2.501c-3.044-3.042-7.996-3.042-11.041,0
							c-3.043,3.044-3.043,7.997,0,11.041l8.021,8.021c1.475,1.474,3.436,2.286,5.521,2.286c2.084,0,4.045-0.812,5.52-2.287
							l12.267-12.267c1.475-1.475,2.287-3.435,2.287-5.521S219.026,83.653,217.552,82.178z M214.017,89.684l-12.267,12.267
							c-1.061,1.061-2.91,1.059-3.97,0l-8.021-8.021c-1.094-1.095-1.094-2.875,0-3.969c0.548-0.547,1.267-0.821,1.986-0.821
							c0.719,0,1.438,0.273,1.985,0.82l4.269,4.269c0.976,0.977,2.56,0.977,3.535,0l8.515-8.514c1.095-1.094,2.876-1.094,3.97,0
							c0.53,0.53,0.822,1.235,0.822,1.984S214.547,89.153,214.017,89.684z"/>
					</g>
				</g>
			</g>
		</g>
		<g>
			<g>
				<g>
					<path d="M202.168,60.779c-17.278,0-31.334,14.056-31.334,31.334s14.056,31.334,31.334,31.334s31.334-14.056,31.334-31.334
						S219.446,60.779,202.168,60.779z M202.168,118.447c-14.521,0-26.334-11.813-26.334-26.334s11.813-26.334,26.334-26.334
						s26.334,11.813,26.334,26.334S216.689,118.447,202.168,118.447z"/>
				</g>
			</g>
		</g>
		<g>
			<g>
				<path d="M122.927,200.913c-42.323,0-76.756-34.432-76.756-76.755c0-27.217,14.627-52.649,38.173-66.37
					c4.146-2.416,5.553-7.754,3.137-11.901c-2.417-4.145-7.755-5.552-11.9-3.137c-28.876,16.828-46.814,48.021-46.814,81.408
					c0,33.114,17.772,64.193,46.38,81.108c1.189,0.703,2.722,0.309,3.424-0.879c0.703-1.188,0.309-2.722-0.879-3.424
					c-27.094-16.02-43.925-45.45-43.925-76.805c0-31.614,16.987-61.152,44.332-77.087c1.762-1.027,4.035-0.429,5.063,1.334
					s0.429,4.035-1.335,5.063c-25.077,14.614-40.655,41.7-40.655,70.69c0,45.08,36.675,81.755,81.756,81.755
					c1.381,0,2.5-1.119,2.5-2.5S124.308,200.913,122.927,200.913z"/>
			</g>
		</g>
		<g>
			<g>
				<path d="M237.944,203.461l-15.379-15.379c-1.644-1.644-3.829-2.549-6.154-2.549c-2.325,0-4.51,0.905-6.153,2.549
					c-1.644,1.644-2.549,3.829-2.549,6.153c0,2.325,0.905,4.51,2.549,6.153l0.524,0.524H170c-1.381,0-2.5,1.119-2.5,2.5
					s1.119,2.5,2.5,2.5h46.817c1.011,0,1.923-0.609,2.31-1.543c0.387-0.934,0.173-2.009-0.542-2.724l-4.792-4.792
					c-0.699-0.699-1.084-1.628-1.084-2.618c0-0.989,0.385-1.918,1.084-2.618c1.398-1.397,3.838-1.398,5.236,0l15.379,15.379
					c0.699,0.7,1.084,1.629,1.084,2.618s-0.385,1.918-1.084,2.618l-15.38,15.38c-1.442,1.443-3.792,1.442-5.236,0
					c-0.699-0.7-1.084-1.629-1.084-2.618s0.385-1.918,1.084-2.618l4.792-4.792c0.715-0.715,0.929-1.79,0.542-2.724
					c-0.387-0.935-1.298-1.543-2.31-1.543h-93.89c-1.381,0-2.5,1.119-2.5,2.5s1.119,2.5,2.5,2.5h87.854l-0.523,0.524
					c-1.644,1.644-2.549,3.829-2.549,6.153s0.905,4.51,2.55,6.154c1.697,1.696,3.925,2.544,6.154,2.544
					c2.228,0,4.457-0.848,6.152-2.544l15.379-15.38C241.337,212.375,241.337,206.854,237.944,203.461z"/>
			</g>
		</g>
		<g>
			<g>
				<path d="M193.882,62.352c-15.628-17.918-37.63-29.33-61.044-31.828l0.7-0.701c1.644-1.644,2.549-3.829,2.549-6.153
					c0-2.325-0.905-4.51-2.549-6.154c-3.394-3.393-8.914-3.393-12.307,0l-15.379,15.379c-1.644,1.644-2.549,3.829-2.549,6.153
					c0,2.325,0.905,4.51,2.549,6.153l15.379,15.38c3.393,3.394,8.914,3.394,12.307,0c3.393-3.393,3.393-8.914,0-12.307l-0.161-0.162
					c17.753,2.413,33.985,10.932,46.268,24.408c0.493,0.541,1.169,0.816,1.848,0.816c0.601,0,1.204-0.215,1.684-0.652
					c1.021-0.93,1.094-2.511,0.164-3.532c-14.726-16.158-34.79-25.624-56.496-26.653c-1.03-0.053-1.987,0.541-2.405,1.486
					c-0.417,0.944-0.211,2.049,0.519,2.779l5.045,5.045c1.443,1.444,1.443,3.792,0,5.236c-1.444,1.443-3.792,1.444-5.236,0
					l-15.379-15.38c-0.699-0.699-1.084-1.628-1.084-2.618c0-0.989,0.385-1.918,1.084-2.618l15.379-15.379
					c1.444-1.442,3.792-1.443,5.236,0c1.443,1.444,1.443,3.793,0,5.236l-4.545,4.545c-0.7,0.7-0.921,1.748-0.563,2.671
					c0.357,0.923,1.226,1.549,2.215,1.594c24.086,1.118,47.051,12.249,63.004,30.54c0.908,1.041,2.488,1.148,3.527,0.241
					C194.681,64.971,194.789,63.392,193.882,62.352z"/>
			</g>
		</g>
		<g>
			<g>
				<path d="M216.92,118.906c-0.08-1.379-1.282-2.428-2.641-2.35c-1.378,0.08-2.431,1.263-2.35,2.641
					c0.106,1.827,0.158,3.449,0.158,4.96c0,49.163-39.997,89.16-89.16,89.16H24.209c-2.042,0-3.703-1.661-3.703-3.703
					s1.661-3.702,3.703-3.702h98.718c45.08,0,81.755-36.675,81.755-81.755c0-0.804-0.019-1.603-0.046-2.4
					c-0.047-1.379-1.188-2.461-2.584-2.413c-1.38,0.047-2.46,1.204-2.413,2.584c0.025,0.74,0.043,1.482,0.043,2.228
					c0,42.323-34.432,76.755-76.755,76.755H24.209c-4.799,0-8.703,3.904-8.703,8.702c0,4.799,3.904,8.703,8.703,8.703h98.718
					c51.92,0,94.16-42.24,94.16-94.16C217.087,122.548,217.033,120.83,216.92,118.906z"/>
			</g>
		</g>
	</g>
</g>
<g id="Layer_8">
</g>
<g id="Layer_9">
</g>
<g id="Layer_10">
</g>
<g id="Layer_11">
</g>
<g id="Layer_12">
</g>
<g id="Layer_13">
</g>
<g id="Layer_14">
</g>
<g id="Layer_15">
</g>
<g id="Layer_16">
</g>
<g id="Layer_17">
</g>
<g id="Layer_18">
</g>
<g id="Layer_19">
</g>
<g id="Layer_20">
</g>
<g id="Layer_21">
</g>
<g id="Layer_22">
</g>
<g id="Layer_23">
</g>
<g id="Layer_24">
</g>
<g id="Layer_25">
</g>
<g id="Layer_26">
</g>
<g id="Layer_27">
</g>
<g id="Layer_28">
</g>
<g id="Layer_29">
</g>
<g id="Layer_30">
</g>
<g id="Layer_31">
</g>
<g id="Layer_32">
</g>
<g id="Layer_33">
</g>
<g id="Layer_34">
</g>
<g id="Layer_35">
</g>
<g id="Layer_36">
</g>
<g id="Layer_37">
</g>
<g id="Layer_38">
</g>
<g id="Layer_39">
</g>
<g id="Layer_40">
</g>
<g id="Layer_41">
</g>
<g id="Layer_42">
</g>
<g id="Layer_43">
</g>
<g id="Layer_44">
</g>
<g id="Layer_45">
</g>
<g id="Layer_46">
</g>
<g id="Layer_47">
</g>
<g id="Layer_48">
</g>
<g id="Layer_49">
</g>
<g id="Layer_50">
</g>
<g id="Layer_51">
</g>
<g id="Layer_52">
</g>
<g id="Layer_53">
</g>
<g id="Layer_54">
</g>
<g id="Layer_55">
</g>
<g id="Layer_56">
</g>
<g id="Layer_57">
</g>
<g id="Layer_58">
</g>
<g id="Layer_59">
</g>
<g id="Layer_60">
</g>
<g id="Layer_61">
</g>
<g id="Layer_62">
</g>
<g id="Layer_63">
</g>
<g id="Layer_64">
</g>
<g id="Layer_65">
</g>
<g id="Layer_66">
</g>
<g id="Layer_67">
</g>
<g id="Layer_68">
</g>
<g id="Layer_69">
</g>
<g id="Layer_70">
</g>
<g id="Layer_71">
</g>
<g id="Layer_72">
</g>
<g id="Layer_73">
</g>
<g id="Layer_74">
</g>
<g id="Layer_75">
</g>
<g id="Layer_76">
</g>
<g id="Layer_77">
</g>
<g id="Layer_78">
</g>
<g id="Layer_79">
</g>
<g id="Layer_80">
</g>
<g id="Layer_81">
</g>
<g id="Layer_82">
</g>
<g id="Layer_83">
</g>
<g id="Layer_84">
</g>
<g id="Layer_85">
</g>
<g id="Layer_86">
</g>
<g id="Layer_87">
</g>
<g id="Layer_88">
</g>
<g id="Layer_89">
</g>
<g id="Layer_90">
</g>
</svg>
