<?xml version="1.0" encoding="utf-8"?>
<!-- Generator: Adobe Illustrator 24.0.0, SVG Export Plug-In . SVG Version: 6.00 Build 0)  -->
<svg version="1.1" xmlns="http://www.w3.org/2000/svg" xmlns:xlink="http://www.w3.org/1999/xlink" x="0px" y="0px"
	 viewBox="0 0 256 256" enable-background="new 0 0 256 256" xml:space="preserve">
<g id="Layer_1">
</g>
<g id="Layer_2">
</g>
<g id="Layer_3">
</g>
<g id="Layer_4">
</g>
<g id="Layer_5">
</g>
<g id="Layer_6">
</g>
<g id="Layer_7">
</g>
<g id="Layer_8">
</g>
<g id="Layer_9">
</g>
<g id="Layer_10">
</g>
<g id="Layer_11">
</g>
<g id="Layer_12">
</g>
<g id="Layer_13">
</g>
<g id="Layer_14">
</g>
<g id="Layer_15">
</g>
<g id="Layer_16">
</g>
<g id="Layer_17">
</g>
<g id="Layer_18">
</g>
<g id="Layer_19">
</g>
<g id="Layer_20">
</g>
<g id="Layer_21">
</g>
<g id="Layer_22">
</g>
<g id="Layer_23">
</g>
<g id="Layer_24">
</g>
<g id="Layer_25">
</g>
<g id="Layer_26">
</g>
<g id="Layer_27">
</g>
<g id="Layer_28">
</g>
<g id="Layer_29">
</g>
<g id="Layer_30">
</g>
<g id="Layer_31">
</g>
<g id="Layer_32">
</g>
<g id="Layer_33">
</g>
<g id="Layer_34">
</g>
<g id="Layer_35">
</g>
<g id="Layer_36">
</g>
<g id="Layer_37">
</g>
<g id="Layer_38">
</g>
<g id="Layer_39">
</g>
<g id="Layer_40">
</g>
<g id="Layer_41">
</g>
<g id="Layer_42">
</g>
<g id="Layer_43">
</g>
<g id="Layer_44">
</g>
<g id="Layer_45">
	<g>
		<g>
			<g>
				<path fill="#70D6F9" d="M184.837,12.987H71.163c-2.677,0-4.867,2.19-4.867,4.867v111.402c0,2.677,2.19,4.867,4.867,4.867
					h113.674c2.677,0,4.867-2.19,4.867-4.867V17.854C189.704,15.177,187.514,12.987,184.837,12.987z"/>
			</g>
		</g>
		<g>
			<g>
				<path fill="#FCDD86" d="M72.956,181H27.044c-2.371,0-4.294,1.922-4.294,4.294v63.912c0,2.372,1.923,4.294,4.294,4.294h45.912
					c2.371,0,4.294-1.923,4.294-4.294v-63.912C77.25,182.922,75.327,181,72.956,181z"/>
			</g>
		</g>
		<g>
			<g>
				<path fill="#FCDD86" d="M150.956,181h-45.912c-2.371,0-4.294,1.922-4.294,4.294v63.912c0,2.372,1.923,4.294,4.294,4.294h45.912
					c2.371,0,4.294-1.923,4.294-4.294v-63.912C155.25,182.922,153.327,181,150.956,181z"/>
			</g>
		</g>
		<g>
			<g>
				<path fill="#FCDD86" d="M228.956,181h-45.912c-2.371,0-4.294,1.922-4.294,4.294v63.912c0,2.372,1.923,4.294,4.294,4.294h45.912
					c2.371,0,4.294-1.923,4.294-4.294v-63.912C233.25,182.922,231.327,181,228.956,181z"/>
			</g>
		</g>
		<g>
			<g>
				<path fill="#3A70BF" d="M184.837,12.987H71.163c-2.677,0-4.867,2.19-4.867,4.867v13.55h123.408v-13.55
					C189.704,15.177,187.514,12.987,184.837,12.987z"/>
			</g>
		</g>
		<g>
			<g>
				<path fill="#F5C84C" d="M72.956,181H27.044c-2.371,0-4.294,1.922-4.294,4.294V196h54.5v-10.706
					C77.25,182.922,75.327,181,72.956,181z"/>
			</g>
		</g>
		<g>
			<g>
				<path fill="#F5C84C" d="M150.956,181h-45.912c-2.371,0-4.294,1.922-4.294,4.294V196h54.5v-10.706
					C155.25,182.922,153.327,181,150.956,181z"/>
			</g>
		</g>
		<g>
			<g>
				<path fill="#F5C84C" d="M228.956,181h-45.912c-2.371,0-4.294,1.922-4.294,4.294V196h54.5v-10.706
					C233.25,182.922,231.327,181,228.956,181z"/>
			</g>
		</g>
		<g>
			<g>
				<path fill="#EDF4FC" d="M161.87,77.571l-12.527-13.293c-1.893-2.009-5.058-2.104-7.067-0.21s-2.104,5.059-0.21,7.067L151.361,81
					l-9.296,9.864c-1.894,2.009-1.8,5.174,0.21,7.067c2.01,1.896,5.175,1.798,7.067-0.21l12.527-13.293
					C163.685,82.503,163.685,79.497,161.87,77.571z"/>
			</g>
		</g>
		<g>
			<g>
				<path fill="#EDF4FC" d="M104.639,81l9.296-9.864c1.894-2.009,1.8-5.174-0.21-7.067c-2.007-1.894-5.173-1.801-7.067,0.21
					L94.13,77.571c-1.815,1.926-1.815,4.932,0,6.857l12.527,13.293c1.894,2.01,5.059,2.104,7.067,0.21
					c2.01-1.894,2.104-5.059,0.21-7.067L104.639,81z"/>
			</g>
		</g>
		<g>
			<g>
				<path fill="#EDF4FC" d="M136.48,59.525c-2.55-1.062-5.476,0.144-6.538,2.692l-14.047,33.719
					c-1.063,2.549,0.144,5.477,2.692,6.538c2.554,1.063,5.479-0.147,6.538-2.692l14.047-33.719
					C140.235,63.515,139.029,60.587,136.48,59.525z"/>
			</g>
		</g>
		<g>
			<g>
				<path fill="#5290DB" d="M71.163,12.987c-2.677,0-4.867,2.19-4.867,4.867v13.55h20.757V12.987H71.163z"/>
			</g>
		</g>
		<g>
			<g>
				<path fill="#70D6F9" d="M61.61,6.21c-3.157-0.561-5.613-3.017-6.245-6.104c0-0.14-0.281-0.14-0.281,0
					c-0.632,3.087-3.087,5.543-6.245,6.104c-0.14,0-0.14,0.21,0,0.281c3.157,0.562,5.613,3.017,6.245,6.104
					c0,0.14,0.281,0.14,0.281,0c0.631-3.087,3.087-5.543,6.245-6.104C61.75,6.42,61.75,6.21,61.61,6.21z"/>
			</g>
		</g>
		<g>
			<g>
				<path fill="#F5C84C" d="M218.8,62.85c-4.5-0.8-8-4.3-8.9-8.7c0-0.2-0.4-0.2-0.4,0c-0.9,4.4-4.4,7.9-8.9,8.7
					c-0.2,0-0.2,0.3,0,0.4c4.5,0.8,8,4.3,8.9,8.7c0,0.2,0.4,0.2,0.4,0c0.9-4.4,4.4-7.9,8.9-8.7C219,63.15,219,62.85,218.8,62.85z"/>
			</g>
		</g>
		<g>
			<g>
				<path fill="#87D147" d="M204.8,84c-1.878,0-3.4,1.522-3.4,3.4c0,1.878,1.522,3.4,3.4,3.4c1.878,0,3.4-1.522,3.4-3.4
					C208.2,85.522,206.678,84,204.8,84z"/>
			</g>
		</g>
		<g>
			<g>
				<path fill="#FC657E" d="M34.7,150.1h-2.3v-2.3c0-1.7-1.4-3.2-3.2-3.2c-1.8,0-3.2,1.4-3.2,3.2v2.3h-2.3c-1.7,0-3.2,1.4-3.2,3.2
					s1.4,3.2,3.2,3.2H26v2.3c0,1.7,1.4,3.2,3.2,3.2c1.8,0,3.2-1.4,3.2-3.2v-2.3h2.3c1.7,0,3.2-1.4,3.2-3.2S36.5,150.1,34.7,150.1z"
					/>
			</g>
		</g>
		<g>
			<g>
				<path fill="#F5C84C" d="M43.8,124c-1.878,0-3.4,1.522-3.4,3.4c0,1.878,1.522,3.4,3.4,3.4c1.878,0,3.4-1.522,3.4-3.4
					C47.2,125.522,45.678,124,43.8,124z"/>
			</g>
		</g>
		<g>
			<g>
				<path d="M177.955,19.417H161.58c-1.381,0-2.5,1.119-2.5,2.5s1.119,2.5,2.5,2.5h16.375c1.381,0,2.5-1.119,2.5-2.5
					S179.336,19.417,177.955,19.417z"/>
			</g>
		</g>
		<g>
			<g>
				<path d="M150.771,19.417H97.989c-1.381,0-2.5,1.119-2.5,2.5s1.119,2.5,2.5,2.5h52.781c1.381,0,2.5-1.119,2.5-2.5
					S152.151,19.417,150.771,19.417z"/>
			</g>
		</g>
		<g>
			<g>
				<g>
					<path d="M72.956,178.5H27.044c-3.746,0-6.794,3.048-6.794,6.794v63.912c0,3.746,3.048,6.794,6.794,6.794h45.912
						c3.746,0,6.794-3.048,6.794-6.794v-63.912C79.75,181.548,76.702,178.5,72.956,178.5z M74.75,249.206
						c0,0.989-0.805,1.794-1.794,1.794H27.044c-0.989,0-1.794-0.805-1.794-1.794v-63.912c0-0.989,0.805-1.794,1.794-1.794h45.912
						c0.989,0,1.794,0.805,1.794,1.794V249.206z"/>
				</g>
			</g>
		</g>
		<g>
			<g>
				<g>
					<path d="M72.956,178.5H27.044c-3.746,0-6.794,3.048-6.794,6.794v63.912c0,3.746,3.048,6.794,6.794,6.794h45.912
						c3.746,0,6.794-3.048,6.794-6.794v-63.912C79.75,181.548,76.702,178.5,72.956,178.5z M74.75,249.206
						c0,0.989-0.805,1.794-1.794,1.794H27.044c-0.989,0-1.794-0.805-1.794-1.794v-63.912c0-0.989,0.805-1.794,1.794-1.794h45.912
						c0.989,0,1.794,0.805,1.794,1.794V249.206z"/>
				</g>
			</g>
		</g>
		<g>
			<g>
				<path d="M42.299,210.854c-0.909-1.038-2.487-1.145-3.528-0.235l-5.334,4.667c-1.039,0.909-1.145,2.488-0.235,3.527
					c0.494,0.565,1.187,0.854,1.883,0.854c0.584,0,1.171-0.204,1.646-0.619l5.334-4.667
					C43.103,213.473,43.208,211.893,42.299,210.854z"/>
			</g>
		</g>
		<g>
			<g>
				<path d="M42.063,210.619l-5.334-4.667c-1.041-0.911-2.62-0.803-3.528,0.235c-0.909,1.039-0.804,2.619,0.235,3.527l5.334,4.667
					c0.475,0.415,1.062,0.619,1.646,0.619c0.696,0,1.389-0.289,1.883-0.854C43.208,213.107,43.103,211.527,42.063,210.619z"/>
			</g>
		</g>
		<g>
			<g>
				<path d="M53.25,209.5h-3c-1.381,0-2.5,1.119-2.5,2.5s1.119,2.5,2.5,2.5h3c1.381,0,2.5-1.119,2.5-2.5S54.631,209.5,53.25,209.5z"
					/>
			</g>
		</g>
		<g>
			<g>
				<path d="M65.25,209.5h-3c-1.381,0-2.5,1.119-2.5,2.5s1.119,2.5,2.5,2.5h3c1.381,0,2.5-1.119,2.5-2.5S66.631,209.5,65.25,209.5z"
					/>
			</g>
		</g>
		<g>
			<g>
				<path d="M42.299,233.854c-0.909-1.038-2.487-1.145-3.528-0.235l-5.334,4.667c-1.039,0.909-1.145,2.488-0.235,3.527
					c0.494,0.565,1.187,0.854,1.883,0.854c0.584,0,1.171-0.204,1.646-0.619l5.334-4.667
					C43.103,236.473,43.208,234.893,42.299,233.854z"/>
			</g>
		</g>
		<g>
			<g>
				<path d="M42.063,233.619l-5.334-4.667c-1.041-0.911-2.62-0.804-3.528,0.235c-0.909,1.039-0.804,2.619,0.235,3.527l5.334,4.667
					c0.475,0.415,1.062,0.619,1.646,0.619c0.696,0,1.389-0.289,1.883-0.854C43.208,236.107,43.103,234.527,42.063,233.619z"/>
			</g>
		</g>
		<g>
			<g>
				<path d="M53.25,232.5h-3c-1.381,0-2.5,1.119-2.5,2.5s1.119,2.5,2.5,2.5h3c1.381,0,2.5-1.119,2.5-2.5S54.631,232.5,53.25,232.5z"
					/>
			</g>
		</g>
		<g>
			<g>
				<path d="M65.25,232.5h-3c-1.381,0-2.5,1.119-2.5,2.5s1.119,2.5,2.5,2.5h3c1.381,0,2.5-1.119,2.5-2.5S66.631,232.5,65.25,232.5z"
					/>
			</g>
		</g>
		<g>
			<g>
				<g>
					<path d="M150.956,178.5h-45.912c-3.746,0-6.794,3.048-6.794,6.794v63.912c0,3.746,3.048,6.794,6.794,6.794h45.912
						c3.746,0,6.794-3.048,6.794-6.794v-63.912C157.75,181.548,154.702,178.5,150.956,178.5z M152.75,249.206
						c0,0.989-0.805,1.794-1.794,1.794h-45.912c-0.989,0-1.794-0.805-1.794-1.794v-63.912c0-0.989,0.805-1.794,1.794-1.794h45.912
						c0.989,0,1.794,0.805,1.794,1.794V249.206z"/>
				</g>
			</g>
		</g>
		<g>
			<g>
				<g>
					<path d="M150.956,178.5h-45.912c-3.746,0-6.794,3.048-6.794,6.794v63.912c0,3.746,3.048,6.794,6.794,6.794h45.912
						c3.746,0,6.794-3.048,6.794-6.794v-63.912C157.75,181.548,154.702,178.5,150.956,178.5z M152.75,249.206
						c0,0.989-0.805,1.794-1.794,1.794h-45.912c-0.989,0-1.794-0.805-1.794-1.794v-63.912c0-0.989,0.805-1.794,1.794-1.794h45.912
						c0.989,0,1.794,0.805,1.794,1.794V249.206z"/>
				</g>
			</g>
		</g>
		<g>
			<g>
				<path d="M120.299,210.854c-0.908-1.038-2.488-1.145-3.528-0.235l-5.334,4.667c-1.039,0.909-1.145,2.488-0.235,3.527
					c0.494,0.565,1.187,0.854,1.883,0.854c0.584,0,1.171-0.204,1.646-0.619l5.334-4.667
					C121.103,213.473,121.208,211.893,120.299,210.854z"/>
			</g>
		</g>
		<g>
			<g>
				<path d="M120.063,210.619l-5.334-4.667c-1.041-0.911-2.62-0.803-3.528,0.235c-0.909,1.039-0.804,2.619,0.235,3.527l5.334,4.667
					c0.475,0.415,1.062,0.619,1.646,0.619c0.696,0,1.389-0.289,1.883-0.854C121.208,213.107,121.103,211.527,120.063,210.619z"/>
			</g>
		</g>
		<g>
			<g>
				<path d="M131.25,209.5h-3c-1.381,0-2.5,1.119-2.5,2.5s1.119,2.5,2.5,2.5h3c1.381,0,2.5-1.119,2.5-2.5
					S132.631,209.5,131.25,209.5z"/>
			</g>
		</g>
		<g>
			<g>
				<path d="M143.25,209.5h-3c-1.381,0-2.5,1.119-2.5,2.5s1.119,2.5,2.5,2.5h3c1.381,0,2.5-1.119,2.5-2.5
					S144.631,209.5,143.25,209.5z"/>
			</g>
		</g>
		<g>
			<g>
				<path d="M120.299,233.854c-0.908-1.038-2.488-1.145-3.528-0.235l-5.334,4.667c-1.039,0.909-1.145,2.488-0.235,3.527
					c0.494,0.565,1.187,0.854,1.883,0.854c0.584,0,1.171-0.204,1.646-0.619l5.334-4.667
					C121.103,236.473,121.208,234.893,120.299,233.854z"/>
			</g>
		</g>
		<g>
			<g>
				<path d="M120.063,233.619l-5.334-4.667c-1.041-0.911-2.62-0.804-3.528,0.235c-0.909,1.039-0.804,2.619,0.235,3.527l5.334,4.667
					c0.475,0.415,1.062,0.619,1.646,0.619c0.696,0,1.389-0.289,1.883-0.854C121.208,236.107,121.103,234.527,120.063,233.619z"/>
			</g>
		</g>
		<g>
			<g>
				<path d="M131.25,232.5h-3c-1.381,0-2.5,1.119-2.5,2.5s1.119,2.5,2.5,2.5h3c1.381,0,2.5-1.119,2.5-2.5
					S132.631,232.5,131.25,232.5z"/>
			</g>
		</g>
		<g>
			<g>
				<path d="M143.25,232.5h-3c-1.381,0-2.5,1.119-2.5,2.5s1.119,2.5,2.5,2.5h3c1.381,0,2.5-1.119,2.5-2.5
					S144.631,232.5,143.25,232.5z"/>
			</g>
		</g>
		<g>
			<g>
				<g>
					<path d="M228.956,178.5h-45.912c-3.746,0-6.794,3.048-6.794,6.794v63.912c0,3.746,3.048,6.794,6.794,6.794h45.912
						c3.746,0,6.794-3.048,6.794-6.794v-63.912C235.75,181.548,232.702,178.5,228.956,178.5z M230.75,249.206
						c0,0.989-0.805,1.794-1.794,1.794h-45.912c-0.989,0-1.794-0.805-1.794-1.794v-63.912c0-0.989,0.805-1.794,1.794-1.794h45.912
						c0.989,0,1.794,0.805,1.794,1.794V249.206z"/>
				</g>
			</g>
		</g>
		<g>
			<g>
				<g>
					<path d="M228.956,178.5h-45.912c-3.746,0-6.794,3.048-6.794,6.794v63.912c0,3.746,3.048,6.794,6.794,6.794h45.912
						c3.746,0,6.794-3.048,6.794-6.794v-63.912C235.75,181.548,232.702,178.5,228.956,178.5z M230.75,249.206
						c0,0.989-0.805,1.794-1.794,1.794h-45.912c-0.989,0-1.794-0.805-1.794-1.794v-63.912c0-0.989,0.805-1.794,1.794-1.794h45.912
						c0.989,0,1.794,0.805,1.794,1.794V249.206z"/>
				</g>
			</g>
		</g>
		<g>
			<g>
				<path d="M198.299,210.854c-0.908-1.038-2.488-1.145-3.528-0.235l-5.334,4.667c-1.039,0.909-1.145,2.488-0.235,3.527
					c0.494,0.565,1.187,0.854,1.883,0.854c0.584,0,1.171-0.204,1.646-0.619l5.334-4.667
					C199.103,213.473,199.208,211.893,198.299,210.854z"/>
			</g>
		</g>
		<g>
			<g>
				<path d="M198.063,210.619l-5.334-4.667c-1.042-0.911-2.62-0.803-3.528,0.235c-0.909,1.039-0.804,2.619,0.235,3.527l5.334,4.667
					c0.475,0.415,1.062,0.619,1.646,0.619c0.696,0,1.389-0.289,1.883-0.854C199.208,213.107,199.103,211.527,198.063,210.619z"/>
			</g>
		</g>
		<g>
			<g>
				<path d="M209.25,209.5h-3c-1.381,0-2.5,1.119-2.5,2.5s1.119,2.5,2.5,2.5h3c1.381,0,2.5-1.119,2.5-2.5
					S210.631,209.5,209.25,209.5z"/>
			</g>
		</g>
		<g>
			<g>
				<path d="M221.25,209.5h-3c-1.381,0-2.5,1.119-2.5,2.5s1.119,2.5,2.5,2.5h3c1.381,0,2.5-1.119,2.5-2.5
					S222.631,209.5,221.25,209.5z"/>
			</g>
		</g>
		<g>
			<g>
				<path d="M198.299,233.854c-0.908-1.038-2.488-1.145-3.528-0.235l-5.334,4.667c-1.039,0.909-1.145,2.488-0.235,3.527
					c0.494,0.565,1.187,0.854,1.883,0.854c0.584,0,1.171-0.204,1.646-0.619l5.334-4.667
					C199.103,236.473,199.208,234.893,198.299,233.854z"/>
			</g>
		</g>
		<g>
			<g>
				<path d="M198.063,233.619l-5.334-4.667c-1.042-0.911-2.62-0.804-3.528,0.235c-0.909,1.039-0.804,2.619,0.235,3.527l5.334,4.667
					c0.475,0.415,1.062,0.619,1.646,0.619c0.696,0,1.389-0.289,1.883-0.854C199.208,236.107,199.103,234.527,198.063,233.619z"/>
			</g>
		</g>
		<g>
			<g>
				<path d="M209.25,232.5h-3c-1.381,0-2.5,1.119-2.5,2.5s1.119,2.5,2.5,2.5h3c1.381,0,2.5-1.119,2.5-2.5
					S210.631,232.5,209.25,232.5z"/>
			</g>
		</g>
		<g>
			<g>
				<path d="M221.25,232.5h-3c-1.381,0-2.5,1.119-2.5,2.5s1.119,2.5,2.5,2.5h3c1.381,0,2.5-1.119,2.5-2.5
					S222.631,232.5,221.25,232.5z"/>
			</g>
		</g>
		<g>
			<g>
				<path d="M95.5,133.449c-1.381,0-2.5,1.119-2.5,2.5v21.127H49.5c-1.381,0-2.5,1.119-2.5,2.5v18.901c0,1.381,1.119,2.5,2.5,2.5
					s2.5-1.119,2.5-2.5v-16.401h43.5c1.381,0,2.5-1.119,2.5-2.5v-23.627C98,134.568,96.881,133.449,95.5,133.449z"/>
			</g>
		</g>
		<g>
			<g>
				<path d="M206.5,157.076H163v-21.127c0-1.381-1.119-2.5-2.5-2.5s-2.5,1.119-2.5,2.5v23.627c0,1.381,1.119,2.5,2.5,2.5H204v16.401
					c0,1.381,1.119,2.5,2.5,2.5s2.5-1.119,2.5-2.5v-18.901C209,158.195,207.881,157.076,206.5,157.076z"/>
			</g>
		</g>
		<g>
			<g>
				<path d="M128,133c-1.381,0-2.5,1.119-2.5,2.5v44c0,1.381,1.119,2.5,2.5,2.5s2.5-1.119,2.5-2.5v-44
					C130.5,134.119,129.381,133,128,133z"/>
			</g>
		</g>
		<g>
			<g>
				<path d="M188.708,28.904H67.031c-1.381,0-2.5,1.119-2.5,2.5s1.119,2.5,2.5,2.5h121.677c1.381,0,2.5-1.119,2.5-2.5
					S190.089,28.904,188.708,28.904z"/>
			</g>
		</g>
		<g>
			<g>
				<g>
					<path d="M184.837,10.487H71.163c-4.063,0-7.367,3.305-7.367,7.367v111.402c0,4.063,3.305,7.367,7.367,7.367h113.674
						c4.063,0,7.367-3.305,7.367-7.367V17.854C192.204,13.792,188.899,10.487,184.837,10.487z M187.204,129.255
						c0,1.305-1.062,2.367-2.367,2.367H71.163c-1.306,0-2.367-1.062-2.367-2.367V17.854c0-1.305,1.062-2.367,2.367-2.367h113.674
						c1.306,0,2.367,1.062,2.367,2.367V129.255z"/>
				</g>
			</g>
		</g>
		<g>
			<g>
				<path d="M76.458,193.5H23.5c-1.381,0-2.5,1.119-2.5,2.5s1.119,2.5,2.5,2.5h52.958c1.381,0,2.5-1.119,2.5-2.5
					S77.839,193.5,76.458,193.5z"/>
			</g>
		</g>
		<g>
			<g>
				<path d="M154.125,193.5h-52.437c-1.381,0-2.5,1.119-2.5,2.5s1.119,2.5,2.5,2.5h52.437c1.381,0,2.5-1.119,2.5-2.5
					S155.506,193.5,154.125,193.5z"/>
			</g>
		</g>
		<g>
			<g>
				<path d="M232.417,193.5h-52.625c-1.381,0-2.5,1.119-2.5,2.5s1.119,2.5,2.5,2.5h52.625c1.381,0,2.5-1.119,2.5-2.5
					S233.798,193.5,232.417,193.5z"/>
			</g>
		</g>
		<g>
			<g>
				<g>
					<g>
						<path d="M163.688,75.857l-12.527-13.293c-1.373-1.458-3.232-2.293-5.234-2.353c-1.987-0.048-3.908,0.665-5.366,2.038
							c-3.01,2.836-3.151,7.592-0.315,10.602L147.926,81l-7.681,8.15c-2.836,3.01-2.694,7.766,0.315,10.602
							c1.401,1.321,3.218,2.042,5.136,2.042c0.077,0,0.154-0.001,0.231-0.003c2.002-0.06,3.861-0.896,5.233-2.354l12.526-13.292
							C166.408,83.26,166.408,78.74,163.688,75.857z M160.05,82.714l-12.528,13.293c-0.457,0.485-1.076,0.764-1.744,0.784
							c-0.632,0.029-1.301-0.22-1.786-0.678c-0.001,0-0.001-0.001-0.001-0.001c-1.004-0.945-1.051-2.53-0.106-3.533l9.297-9.864
							c0.907-0.963,0.907-2.466,0-3.43l-9.297-9.864c-0.944-1.003-0.897-2.588,0.106-3.533c0.467-0.44,1.072-0.681,1.712-0.681
							c0.025,0,0.051,0,0.076,0.001c0.667,0.02,1.286,0.298,1.744,0.784l12.528,13.293C160.957,80.248,160.957,81.752,160.05,82.714
							z"/>
					</g>
				</g>
			</g>
		</g>
		<g>
			<g>
				<g>
					<g>
						<path d="M108.074,81l7.681-8.15c2.836-3.01,2.694-7.766-0.314-10.6c-1.456-1.375-3.4-2.103-5.364-2.04
							c-2.004,0.059-3.863,0.895-5.237,2.354L92.313,75.856c-2.721,2.884-2.721,7.404-0.001,10.288l12.527,13.292
							c1.373,1.458,3.232,2.294,5.235,2.354c0.076,0.002,0.152,0.003,0.229,0.003c1.919,0,3.735-0.721,5.137-2.042
							c3.01-2.836,3.151-7.592,0.315-10.602L108.074,81z M112.009,96.113c-0.483,0.458-1.108,0.698-1.786,0.679
							c-0.668-0.02-1.287-0.298-1.744-0.784l-0.001,0L95.949,82.713c-0.906-0.961-0.906-2.466,0.001-3.427l12.527-13.293
							c0.458-0.486,1.078-0.765,1.746-0.785c0.025,0,0.051-0.001,0.076-0.001c0.639,0,1.243,0.24,1.71,0.681
							c1.004,0.945,1.051,2.53,0.106,3.533l-9.297,9.864c-0.907,0.963-0.907,2.466,0,3.43l9.297,9.864
							C113.061,93.582,113.014,95.167,112.009,96.113z"/>
					</g>
				</g>
			</g>
		</g>
		<g>
			<g>
				<g>
					<g>
						<path d="M141.492,61.285c-0.763-1.853-2.201-3.297-4.051-4.068c-3.818-1.587-8.218,0.223-9.808,4.039l-14.047,33.718
							c-0.771,1.849-0.774,3.888-0.012,5.741c0.764,1.852,2.202,3.296,4.052,4.066c0,0,0,0,0,0c0.939,0.391,1.914,0.576,2.873,0.576
							c2.939,0,5.735-1.738,6.933-4.615l14.047-33.718C142.25,65.176,142.255,63.138,141.492,61.285z M136.864,65.102
							l-14.047,33.719c-0.529,1.271-1.992,1.876-3.269,1.345c-0.616-0.257-1.096-0.738-1.351-1.355
							c-0.254-0.618-0.253-1.297,0.004-1.913l14.047-33.718c0.529-1.271,1.994-1.876,3.271-1.347
							c0.616,0.257,1.095,0.738,1.349,1.355C137.123,63.806,137.121,64.485,136.864,65.102z"/>
					</g>
				</g>
			</g>
		</g>
		<g>
			<g>
				<path d="M87.053,11.5c-1.381,0-2.5,1.119-2.5,2.5v16.375c0,1.381,1.119,2.5,2.5,2.5s2.5-1.119,2.5-2.5V14
					C89.553,12.619,88.434,11.5,87.053,11.5z"/>
			</g>
		</g>
	</g>
</g>
<g id="Layer_46">
</g>
<g id="Layer_47">
</g>
<g id="Layer_48">
</g>
<g id="Layer_49">
</g>
<g id="Layer_50">
</g>
<g id="Layer_51">
</g>
<g id="Layer_52">
</g>
<g id="Layer_53">
</g>
<g id="Layer_54">
</g>
<g id="Layer_55">
</g>
<g id="Layer_56">
</g>
<g id="Layer_57">
</g>
<g id="Layer_58">
</g>
<g id="Layer_59">
</g>
<g id="Layer_60">
</g>
<g id="Layer_61">
</g>
<g id="Layer_62">
</g>
<g id="Layer_63">
</g>
<g id="Layer_64">
</g>
<g id="Layer_65">
</g>
<g id="Layer_66">
</g>
<g id="Layer_67">
</g>
<g id="Layer_68">
</g>
<g id="Layer_69">
</g>
<g id="Layer_70">
</g>
<g id="Layer_71">
</g>
<g id="Layer_72">
</g>
<g id="Layer_73">
</g>
<g id="Layer_74">
</g>
<g id="Layer_75">
</g>
<g id="Layer_76">
</g>
<g id="Layer_77">
</g>
<g id="Layer_78">
</g>
<g id="Layer_79">
</g>
<g id="Layer_80">
</g>
<g id="Layer_81">
</g>
<g id="Layer_82">
</g>
<g id="Layer_83">
</g>
<g id="Layer_84">
</g>
<g id="Layer_85">
</g>
<g id="Layer_86">
</g>
<g id="Layer_87">
</g>
<g id="Layer_88">
</g>
<g id="Layer_89">
</g>
<g id="Layer_90">
</g>
</svg>
