<?xml version="1.0" encoding="utf-8"?>
<!-- Generator: Adobe Illustrator 24.0.0, SVG Export Plug-In . SVG Version: 6.00 Build 0)  -->
<svg version="1.1" xmlns="http://www.w3.org/2000/svg" xmlns:xlink="http://www.w3.org/1999/xlink" x="0px" y="0px"
	 viewBox="0 0 256 256" enable-background="new 0 0 256 256" xml:space="preserve">
<g id="Layer_1">
</g>
<g id="Layer_2">
</g>
<g id="Layer_3">
</g>
<g id="Layer_4">
	<g>
		<g>
			<g>
				<path fill="#EDF4FC" d="M140.271,20.092h-38.862c-1.971,0-3.569,1.598-3.569,3.569v11.862c0,1.971,1.598,3.569,3.569,3.569
					h38.862c1.971,0,3.569-1.598,3.569-3.569V23.66C143.84,21.689,142.242,20.092,140.271,20.092z"/>
			</g>
		</g>
		<g>
			<g>
				<path fill="#C7D7E5" d="M111.34,39.092v16.044c3.12-0.348,6.287-0.544,9.5-0.544s6.38,0.195,9.5,0.544V39.092H111.34z"/>
			</g>
		</g>
		<g>
			<g>
				<path fill="#C7D7E5" d="M120.84,8.592c-5.247,0-9.5,4.253-9.5,9.5v2h19v-2C130.34,12.845,126.087,8.592,120.84,8.592z"/>
			</g>
		</g>
		<g>
			<g>
				<path fill="#EDF4FC" d="M172.869,51.856c-2.863-1.673-6.537-0.709-8.208,2.152l-5.653,9.671c3.588,1.813,7.028,3.871,10.3,6.157
					l5.712-9.772C176.693,57.202,175.729,53.528,172.869,51.856z"/>
			</g>
		</g>
		<g>
			<g>
				<path fill="#EDF4FC" d="M77.02,54.008c-1.673-2.861-5.346-3.825-8.208-2.152c-2.86,1.672-3.824,5.347-2.151,8.208l5.712,9.772
					c3.272-2.286,6.713-4.344,10.3-6.157L77.02,54.008z"/>
			</g>
		</g>
		<g>
			<g>
				<path fill="#3CAADC" d="M66.692,204.092H11.774c-2.127,0-3.85,1.724-3.85,3.85v12.299c0,2.127,1.724,3.85,3.85,3.85h110.207
					C101.044,224.092,81.706,216.577,66.692,204.092z"/>
			</g>
		</g>
		<g>
			<g>
				<path fill="#70D6F9" d="M245.149,207.02l-23.317-23.317c-4.062-4.061-10.744-3.899-14.597,0.485
					c-3.516,4.001-3.072,10.131,0.695,13.898l4.914,4.914c0.403,0.403,0.117,1.091-0.452,1.091h-36.895
					c19.12-16.156,31.001-40.611,30.04-67.819c-1.578-44.657-38.23-80.742-82.906-81.663c-48.01-0.99-87.169,37.953-86.532,85.884
					c0.618,46.543,39.337,83.598,85.884,83.598h90.41c0.57,0,0.855,0.689,0.452,1.091l-4.913,4.913
					c-3.767,3.767-4.212,9.9-0.694,13.901c3.854,4.383,10.534,4.542,14.595,0.483l23.317-23.317
					C249.053,217.258,249.052,210.924,245.149,207.02z"/>
			</g>
		</g>
		<g>
			<g>
				
					<ellipse transform="matrix(0.7071 -0.7071 0.7071 0.7071 -63.1361 126.2592)" fill="#F5C84C" cx="120.84" cy="139.342" rx="64.75" ry="64.75"/>
			</g>
		</g>
		<g>
			<g>
				
					<ellipse transform="matrix(0.9999 -0.0161 0.0161 0.9999 -2.2309 1.9664)" fill="#FCDD86" cx="120.84" cy="139.342" rx="46.84" ry="46.84"/>
			</g>
		</g>
		<g>
			<g>
				
					<ellipse transform="matrix(0.9871 -0.1602 0.1602 0.9871 -20.7597 21.1557)" fill="#F98FA6" cx="120.84" cy="139.342" rx="9.34" ry="9.34"/>
			</g>
		</g>
		<g>
			<g>
				<path fill="#FC657E" d="M159.389,155.824l-29.229-16.875c0.006,0.131,0.02,0.26,0.02,0.392c0,3.589-2.038,6.707-5.015,8.271
					l29.224,16.872c2.391,1.382,5.449,0.561,6.83-1.83C162.6,160.263,161.781,157.205,159.389,155.824z"/>
			</g>
		</g>
		<g>
			<g>
				<path d="M180.507,201.592H120.84c-1.381,0-2.5,1.119-2.5,2.5s1.119,2.5,2.5,2.5h59.667c1.381,0,2.5-1.119,2.5-2.5
					S181.888,201.592,180.507,201.592z"/>
			</g>
		</g>
		<g>
			<g>
				<path d="M120.84,73.092c-1.381,0-2.5,1.119-2.5,2.5v5c0,1.381,1.119,2.5,2.5,2.5s2.5-1.119,2.5-2.5v-5
					C123.34,74.211,122.221,73.092,120.84,73.092z"/>
			</g>
		</g>
		<g>
			<g>
				<path d="M120.84,195.592c-1.381,0-2.5,1.119-2.5,2.5v5c0,1.381,1.119,2.5,2.5,2.5s2.5-1.119,2.5-2.5v-5
					C123.34,196.711,122.221,195.592,120.84,195.592z"/>
			</g>
		</g>
		<g>
			<g>
				<path d="M93.63,87.212l-2.5-4.33c-0.69-1.197-2.221-1.605-3.415-0.915c-1.195,0.69-1.605,2.219-0.915,3.415l2.5,4.33
					c0.463,0.802,1.304,1.25,2.167,1.25c0.425,0,0.854-0.108,1.248-0.335C93.91,89.937,94.32,88.408,93.63,87.212z"/>
			</g>
		</g>
		<g>
			<g>
				<path d="M154.88,193.301l-2.5-4.33c-0.691-1.197-2.222-1.604-3.415-0.915c-1.195,0.69-1.605,2.219-0.915,3.415l2.5,4.33
					c0.463,0.802,1.304,1.25,2.167,1.25c0.425,0,0.854-0.108,1.248-0.335C155.16,196.025,155.57,194.497,154.88,193.301z"/>
			</g>
		</g>
		<g>
			<g>
				<path d="M71.211,107.802l-4.33-2.5c-1.193-0.69-2.725-0.282-3.415,0.915c-0.69,1.196-0.28,2.725,0.915,3.415l4.33,2.5
					c0.394,0.228,0.823,0.335,1.248,0.335c0.863,0,1.704-0.448,2.167-1.25C72.816,110.021,72.406,108.492,71.211,107.802z"/>
			</g>
		</g>
		<g>
			<g>
				<path d="M177.3,169.052l-4.33-2.5c-1.194-0.69-2.725-0.282-3.415,0.915c-0.69,1.196-0.28,2.725,0.915,3.415l4.33,2.5
					c0.394,0.228,0.823,0.335,1.248,0.335c0.863,0,1.704-0.448,2.167-1.25C178.905,171.271,178.495,169.742,177.3,169.052z"/>
			</g>
		</g>
		<g>
			<g>
				<path d="M62.09,136.842h-5c-1.381,0-2.5,1.119-2.5,2.5s1.119,2.5,2.5,2.5h5c1.381,0,2.5-1.119,2.5-2.5
					S63.471,136.842,62.09,136.842z"/>
			</g>
		</g>
		<g>
			<g>
				<path d="M184.59,136.842h-5c-1.381,0-2.5,1.119-2.5,2.5s1.119,2.5,2.5,2.5h5c1.381,0,2.5-1.119,2.5-2.5
					S185.971,136.842,184.59,136.842z"/>
			</g>
		</g>
		<g>
			<g>
				<path d="M72.126,167.467c-0.69-1.197-2.222-1.605-3.415-0.915l-4.33,2.5c-1.195,0.69-1.605,2.219-0.915,3.415
					c0.463,0.802,1.304,1.25,2.167,1.25c0.425,0,0.854-0.108,1.248-0.335l4.33-2.5C72.406,170.191,72.816,168.663,72.126,167.467z"
					/>
			</g>
		</g>
		<g>
			<g>
				<path d="M178.215,106.217c-0.69-1.197-2.221-1.605-3.415-0.915l-4.33,2.5c-1.195,0.69-1.605,2.219-0.915,3.415
					c0.463,0.802,1.304,1.25,2.167,1.25c0.425,0,0.854-0.108,1.248-0.335l4.33-2.5C178.495,108.941,178.905,107.413,178.215,106.217
					z"/>
			</g>
		</g>
		<g>
			<g>
				<path d="M92.715,188.056c-1.192-0.689-2.725-0.282-3.415,0.915l-2.5,4.33c-0.69,1.196-0.28,2.725,0.915,3.415
					c0.394,0.228,0.823,0.335,1.248,0.335c0.863,0,1.704-0.448,2.167-1.25l2.5-4.33C94.32,190.275,93.91,188.746,92.715,188.056z"/>
			</g>
		</g>
		<g>
			<g>
				<path d="M153.965,81.967c-1.193-0.69-2.725-0.282-3.415,0.915l-2.5,4.33c-0.69,1.196-0.28,2.725,0.915,3.415
					c0.394,0.228,0.823,0.335,1.248,0.335c0.863,0,1.704-0.448,2.167-1.25l2.5-4.33C155.57,84.187,155.16,82.658,153.965,81.967z"/>
			</g>
		</g>
		<g>
			<g>
				<g>
					<path d="M140.271,17.592h-38.862c-3.347,0-6.069,2.723-6.069,6.069v11.862c0,3.346,2.723,6.069,6.069,6.069h38.862
						c3.346,0,6.068-2.723,6.068-6.069V23.661C146.34,20.314,143.617,17.592,140.271,17.592z M141.34,35.523
						c0,0.589-0.479,1.069-1.068,1.069h-38.862c-0.59,0-1.069-0.479-1.069-1.069V23.661c0-0.589,0.479-1.069,1.069-1.069h38.862
						c0.589,0,1.068,0.479,1.068,1.069V35.523z"/>
				</g>
			</g>
		</g>
		<g>
			<g>
				<path d="M130.34,37.688c-1.381,0-2.5,1.119-2.5,2.5v13.938c0,1.381,1.119,2.5,2.5,2.5s2.5-1.119,2.5-2.5V40.188
					C132.84,38.807,131.721,37.688,130.34,37.688z"/>
			</g>
		</g>
		<g>
			<g>
				<path d="M111.34,37.5c-1.381,0-2.5,1.119-2.5,2.5v14.125c0,1.381,1.119,2.5,2.5,2.5s2.5-1.119,2.5-2.5V40
					C113.84,38.619,112.721,37.5,111.34,37.5z"/>
			</g>
		</g>
		<g>
			<g>
				<path d="M120.84,6.092c-6.617,0-12,5.383-12,12v1.033c0,1.381,1.119,2.5,2.5,2.5s2.5-1.119,2.5-2.5v-1.033c0-3.86,3.141-7,7-7
					s7,3.14,7,7v1.325c0,1.381,1.119,2.5,2.5,2.5s2.5-1.119,2.5-2.5v-1.325C132.84,11.475,127.457,6.092,120.84,6.092z"/>
			</g>
		</g>
		<g>
			<g>
				<path d="M178.063,54.88c-0.576-2.196-1.973-4.037-3.933-5.182c-1.962-1.146-4.251-1.46-6.447-0.885
					c-2.196,0.576-4.036,1.973-5.181,3.933l-5.191,8.88c-0.697,1.192-0.296,2.723,0.896,3.42c1.189,0.696,2.724,0.296,3.42-0.896
					l5.192-8.881c0.471-0.807,1.229-1.382,2.132-1.619c0.905-0.236,1.848-0.107,2.655,0.365c0.807,0.472,1.382,1.229,1.619,2.134
					s0.107,1.847-0.364,2.654l-5.293,9.055c-0.697,1.192-0.296,2.723,0.896,3.42c0.396,0.232,0.831,0.342,1.26,0.342
					c0.858,0,1.695-0.443,2.16-1.239l5.293-9.055C178.324,59.365,178.638,57.076,178.063,54.88z"/>
			</g>
		</g>
		<g>
			<g>
				<path d="M84.468,61.794l-5.29-9.048c-2.365-4.046-7.581-5.413-11.628-3.048c-1.96,1.146-3.356,2.986-3.933,5.182
					c-0.575,2.196-0.262,4.485,0.885,6.445l5.303,9.07c0.465,0.795,1.302,1.239,2.16,1.239c0.429,0,0.863-0.11,1.26-0.342
					c1.192-0.697,1.594-2.228,0.896-3.42l-5.303-9.07c-0.472-0.807-0.602-1.75-0.364-2.654s0.813-1.662,1.619-2.134
					c1.665-0.974,3.813-0.41,4.788,1.255l5.29,9.048c0.697,1.192,2.229,1.592,3.42,0.896C84.764,64.518,85.165,62.986,84.468,61.794
					z"/>
			</g>
		</g>
		<g>
			<g>
				<path d="M120.84,221.592H11.774c-0.745,0-1.351-0.606-1.351-1.351v-12.299c0-0.745,0.605-1.35,1.351-1.35h53.289
					c1.381,0,2.5-1.119,2.5-2.5s-1.119-2.5-2.5-2.5H11.774c-3.502,0-6.351,2.849-6.351,6.35v12.299c0,3.502,2.849,6.351,6.351,6.351
					H120.84c1.381,0,2.5-1.119,2.5-2.5S122.221,221.592,120.84,221.592z"/>
			</g>
		</g>
		<g>
			<g>
				<path d="M120.84,90.217c-1.381,0-2.5,1.119-2.5,2.5v36.25c0,1.381,1.119,2.5,2.5,2.5s2.5-1.119,2.5-2.5v-36.25
					C123.34,91.336,122.221,90.217,120.84,90.217z"/>
			</g>
		</g>
		<g>
			<g>
				<path fill="#F5C84C" d="M182.8,22.85c-4.5-0.8-8-4.3-8.9-8.7c0-0.2-0.4-0.2-0.4,0c-0.9,4.4-4.4,7.9-8.9,8.7
					c-0.2,0-0.2,0.3,0,0.4c4.5,0.8,8,4.3,8.9,8.7c0,0.2,0.4,0.2,0.4,0c0.9-4.4,4.4-7.9,8.9-8.7C183,23.15,183,22.85,182.8,22.85z"/>
			</g>
		</g>
		<g>
			<g>
				<path fill="#FC657E" d="M26.61,162.21c-3.158-0.561-5.613-3.017-6.245-6.104c0-0.14-0.281-0.14-0.281,0
					c-0.631,3.087-3.087,5.543-6.245,6.104c-0.14,0-0.14,0.211,0,0.281c3.158,0.561,5.613,3.017,6.245,6.104
					c0,0.14,0.281,0.14,0.281,0c0.631-3.087,3.087-5.543,6.245-6.104C26.75,162.42,26.75,162.21,26.61,162.21z"/>
			</g>
		</g>
		<g>
			<g>
				<path fill="#70D6F9" d="M161.7,244.1h-2.3v-2.3c0-1.7-1.4-3.2-3.2-3.2c-1.8,0-3.2,1.4-3.2,3.2v2.3h-2.3c-1.7,0-3.2,1.4-3.2,3.2
					s1.4,3.2,3.2,3.2h2.3v2.3c0,1.7,1.4,3.2,3.2,3.2c1.8,0,3.2-1.4,3.2-3.2v-2.3h2.3c1.7,0,3.2-1.4,3.2-3.2S163.5,244.1,161.7,244.1
					z"/>
			</g>
		</g>
		<g>
			<g>
				<path fill="#B2E26D" d="M151.8,0c-1.878,0-3.4,1.522-3.4,3.4c0,1.878,1.522,3.4,3.4,3.4c1.878,0,3.4-1.522,3.4-3.4
					C155.2,1.522,153.678,0,151.8,0z"/>
			</g>
		</g>
		<g>
			<g>
				<path fill="#F5C84C" d="M124.8,236c-1.878,0-3.4,1.522-3.4,3.4c0,1.878,1.522,3.4,3.4,3.4c1.878,0,3.4-1.522,3.4-3.4
					C128.2,237.522,126.678,236,124.8,236z"/>
			</g>
		</g>
		<g>
			<g>
				<g>
					<path d="M246.916,205.253l-23.317-23.317c-2.434-2.434-5.818-3.773-9.243-3.654c-3.489,0.113-6.686,1.625-8.999,4.257
						c-4.331,4.927-3.978,12.533,0.805,17.316l1.737,1.737h-25.942c17.514-17.156,26.953-40.644,26.078-65.407
						c-0.785-22.238-10.032-43.165-26.035-58.925c-16.001-15.759-37.067-24.69-59.317-25.149
						c-23.879-0.476-46.372,8.496-63.309,25.309c-16.938,16.815-26.093,39.227-25.775,63.107
						c0.631,47.457,40.279,86.065,88.384,86.065h85.917l-1.735,1.736c-4.784,4.784-5.138,12.391-0.805,17.32
						c2.313,2.631,5.509,4.142,8.996,4.254c0.133,0.004,0.266,0.007,0.398,0.007c3.301,0,6.505-1.321,8.846-3.661l23.317-23.317
						C251.789,218.057,251.789,210.126,246.916,205.253z M243.381,219.396l-23.317,23.316c-1.481,1.481-3.44,2.255-5.548,2.193
						c-2.092-0.067-4.011-0.976-5.401-2.559c-2.598-2.954-2.341-7.558,0.584-10.482l4.911-4.911c0.902-0.901,1.17-2.244,0.683-3.422
						s-1.626-1.938-2.9-1.938h-90.41c-45.384,0-82.79-36.396-83.384-81.131c-0.299-22.513,8.33-43.641,24.298-59.493
						c15.551-15.438,36.062-23.876,57.927-23.876c0.584,0,1.171,0.006,1.756,0.018c20.969,0.433,40.825,8.854,55.912,23.712
						c15.089,14.861,23.807,34.585,24.548,55.54c0.897,25.415-9.729,49.406-29.155,65.821c-0.802,0.677-1.095,1.783-0.734,2.769
						c0.36,0.986,1.298,1.641,2.348,1.641h36.896c1.274,0,2.413-0.761,2.9-1.938c0.487-1.178,0.22-2.521-0.682-3.421l-4.914-4.913
						c-2.923-2.924-3.18-7.527-0.584-10.479c1.392-1.584,3.311-2.493,5.404-2.561c2.093-0.077,4.064,0.711,5.547,2.192
						l23.317,23.317C246.305,211.712,246.305,216.471,243.381,219.396z"/>
				</g>
			</g>
		</g>
		<g>
			<g>
				<g>
					<path d="M120.84,72.092c-37.082,0-67.25,30.168-67.25,67.25s30.168,67.25,67.25,67.25s67.25-30.168,67.25-67.25
						S157.922,72.092,120.84,72.092z M120.84,201.592c-34.325,0-62.25-27.925-62.25-62.25s27.925-62.25,62.25-62.25
						s62.25,27.925,62.25,62.25S155.165,201.592,120.84,201.592z"/>
				</g>
			</g>
		</g>
		<g>
			<g>
				<g>
					<path d="M120.84,90.001c-27.206,0-49.34,22.134-49.34,49.34s22.134,49.34,49.34,49.34s49.34-22.134,49.34-49.34
						S148.046,90.001,120.84,90.001z M120.84,183.682c-24.449,0-44.34-19.891-44.34-44.34s19.891-44.34,44.34-44.34
						s44.34,19.891,44.34,44.34S145.289,183.682,120.84,183.682z"/>
				</g>
			</g>
		</g>
		<g>
			<g>
				<g>
					<path d="M120.84,127.501c-6.528,0-11.84,5.312-11.84,11.84c0,6.528,5.312,11.84,11.84,11.84c6.529,0,11.841-5.312,11.841-11.84
						C132.681,132.813,127.369,127.501,120.84,127.501z M120.84,146.182c-3.771,0-6.84-3.068-6.84-6.84
						c0-3.772,3.068-6.84,6.84-6.84c3.772,0,6.841,3.068,6.841,6.84C127.681,143.113,124.612,146.182,120.84,146.182z"/>
				</g>
			</g>
		</g>
		<g>
			<g>
				<g>
					<path d="M164.133,158.214c-0.519-1.935-1.759-3.552-3.494-4.554l-29.229-16.875c-0.79-0.458-1.768-0.445-2.548,0.028
						c-0.78,0.474-1.24,1.336-1.199,2.249l0.018,0.281c0,2.545-1.409,4.866-3.677,6.057c-0.807,0.424-1.319,1.252-1.337,2.164
						c-0.019,0.911,0.46,1.759,1.249,2.215l29.222,16.872c1.155,0.668,2.438,1.01,3.738,1.01c0.651,0,1.308-0.086,1.954-0.259
						c1.935-0.519,3.552-1.76,4.554-3.495S164.651,160.148,164.133,158.214z M159.054,161.405c-0.334,0.579-0.874,0.992-1.519,1.166
						c-0.648,0.172-1.318,0.083-1.896-0.25l-26.028-15.028c1.134-1.247,1.988-2.722,2.504-4.327l26.024,15.025
						C159.332,158.679,159.743,160.211,159.054,161.405z"/>
				</g>
			</g>
		</g>
	</g>
</g>
<g id="Layer_5">
</g>
<g id="Layer_6">
</g>
<g id="Layer_7">
</g>
<g id="Layer_8">
</g>
<g id="Layer_9">
</g>
<g id="Layer_10">
</g>
<g id="Layer_11">
</g>
<g id="Layer_12">
</g>
<g id="Layer_13">
</g>
<g id="Layer_14">
</g>
<g id="Layer_15">
</g>
<g id="Layer_16">
</g>
<g id="Layer_17">
</g>
<g id="Layer_18">
</g>
<g id="Layer_19">
</g>
<g id="Layer_20">
</g>
<g id="Layer_21">
</g>
<g id="Layer_22">
</g>
<g id="Layer_23">
</g>
<g id="Layer_24">
</g>
<g id="Layer_25">
</g>
<g id="Layer_26">
</g>
<g id="Layer_27">
</g>
<g id="Layer_28">
</g>
<g id="Layer_29">
</g>
<g id="Layer_30">
</g>
<g id="Layer_31">
</g>
<g id="Layer_32">
</g>
<g id="Layer_33">
</g>
<g id="Layer_34">
</g>
<g id="Layer_35">
</g>
<g id="Layer_36">
</g>
<g id="Layer_37">
</g>
<g id="Layer_38">
</g>
<g id="Layer_39">
</g>
<g id="Layer_40">
</g>
<g id="Layer_41">
</g>
<g id="Layer_42">
</g>
<g id="Layer_43">
</g>
<g id="Layer_44">
</g>
<g id="Layer_45">
</g>
<g id="Layer_46">
</g>
<g id="Layer_47">
</g>
<g id="Layer_48">
</g>
<g id="Layer_49">
</g>
<g id="Layer_50">
</g>
<g id="Layer_51">
</g>
<g id="Layer_52">
</g>
<g id="Layer_53">
</g>
<g id="Layer_54">
</g>
<g id="Layer_55">
</g>
<g id="Layer_56">
</g>
<g id="Layer_57">
</g>
<g id="Layer_58">
</g>
<g id="Layer_59">
</g>
<g id="Layer_60">
</g>
<g id="Layer_61">
</g>
<g id="Layer_62">
</g>
<g id="Layer_63">
</g>
<g id="Layer_64">
</g>
<g id="Layer_65">
</g>
<g id="Layer_66">
</g>
<g id="Layer_67">
</g>
<g id="Layer_68">
</g>
<g id="Layer_69">
</g>
<g id="Layer_70">
</g>
<g id="Layer_71">
</g>
<g id="Layer_72">
</g>
<g id="Layer_73">
</g>
<g id="Layer_74">
</g>
<g id="Layer_75">
</g>
<g id="Layer_76">
</g>
<g id="Layer_77">
</g>
<g id="Layer_78">
</g>
<g id="Layer_79">
</g>
<g id="Layer_80">
</g>
<g id="Layer_81">
</g>
<g id="Layer_82">
</g>
<g id="Layer_83">
</g>
<g id="Layer_84">
</g>
<g id="Layer_85">
</g>
<g id="Layer_86">
</g>
<g id="Layer_87">
</g>
<g id="Layer_88">
</g>
<g id="Layer_89">
</g>
<g id="Layer_90">
</g>
</svg>
