<?xml version="1.0" encoding="utf-8"?>
<!-- Generator: Adobe Illustrator 24.0.0, SVG Export Plug-In . SVG Version: 6.00 Build 0)  -->
<svg version="1.1" xmlns="http://www.w3.org/2000/svg" xmlns:xlink="http://www.w3.org/1999/xlink" x="0px" y="0px"
	 viewBox="0 0 256 256" enable-background="new 0 0 256 256" xml:space="preserve">
<g id="Layer_1">
</g>
<g id="Layer_2">
</g>
<g id="Layer_3">
</g>
<g id="Layer_4">
</g>
<g id="Layer_5">
	<g>
		<g>
			<g>
				<circle fill="#F5C84C" cx="128" cy="15.5" r="13"/>
			</g>
		</g>
		<g>
			<g>
				<circle fill="#5290DB" cx="128" cy="240.5" r="13"/>
			</g>
		</g>
		<g>
			<g>
				
					<ellipse transform="matrix(0.3528 -0.9357 0.9357 0.3528 -47.3501 75.0437)" fill="#70D6F9" cx="30.572" cy="71.75" rx="13" ry="13"/>
			</g>
		</g>
		<g>
			<g>
				<path fill="#FC657E" d="M231.928,172.992c-6.218-3.59-14.168-1.46-17.758,4.758c-3.59,6.218-1.459,14.168,4.758,17.758
					c6.218,3.59,14.168,1.46,17.758-4.758C240.276,184.532,238.146,176.582,231.928,172.992z"/>
			</g>
		</g>
		<g>
			<g>
				
					<ellipse transform="matrix(0.9689 -0.2475 0.2475 0.9689 -44.6562 13.3014)" fill="#87D147" cx="30.572" cy="184.25" rx="13" ry="13"/>
			</g>
		</g>
		<g>
			<g>
				<path fill="#FCA265" d="M236.686,65.25c-3.59-6.218-11.541-8.348-17.758-4.758c-6.218,3.59-8.348,11.54-4.758,17.758
					c3.59,6.218,11.541,8.348,17.758,4.758C238.146,79.418,240.276,71.468,236.686,65.25z"/>
			</g>
		</g>
		<g>
			<g>
				<circle fill="#70D6F9" cx="128" cy="128" r="60.75"/>
			</g>
		</g>
		<g>
			<g>
				<path fill="#FCDD86" d="M135.5,85.158h-15c-20.448,3.556-36,21.377-36,42.842s15.552,39.287,36,42.842h15
					c20.448-3.556,36-21.377,36-42.842S155.948,88.713,135.5,85.158z"/>
			</g>
		</g>
		<g>
			<g>
				<path fill="#F5C84C" d="M128,104.359c-10.515,0-19.401,6.876-22.471,16.369v14.545c3.07,9.493,11.955,16.369,22.471,16.369
					s19.401-6.876,22.471-16.369v-14.545C147.401,111.235,138.515,104.359,128,104.359z"/>
			</g>
		</g>
		<g>
			<g>
				<path fill="#F5C84C" d="M219.875,129.81c-3.157-0.561-5.613-3.017-6.245-6.104c0-0.14-0.281-0.14-0.281,0
					c-0.632,3.087-3.087,5.543-6.245,6.104c-0.14,0-0.14,0.21,0,0.281c3.157,0.561,5.613,3.017,6.245,6.104
					c0,0.14,0.281,0.14,0.281,0c0.631-3.087,3.087-5.543,6.245-6.104C220.016,130.02,220.016,129.81,219.875,129.81z"/>
			</g>
		</g>
		<g>
			<g>
				<path fill="#70D6F9" d="M92.7,220.1h-2.3v-2.3c0-1.7-1.4-3.2-3.2-3.2c-1.8,0-3.2,1.4-3.2,3.2v2.3h-2.3c-1.7,0-3.2,1.4-3.2,3.2
					s1.4,3.2,3.2,3.2H84v2.3c0,1.7,1.4,3.2,3.2,3.2c1.8,0,3.2-1.4,3.2-3.2v-2.3h2.3c1.7,0,3.2-1.4,3.2-3.2S94.5,220.1,92.7,220.1z"
					/>
			</g>
		</g>
		<g>
			<g>
				<path fill="#F5C84C" d="M69.8,195.6c-1.878,0-3.4,1.522-3.4,3.4s1.522,3.4,3.4,3.4c1.878,0,3.4-1.522,3.4-3.4
					S71.678,195.6,69.8,195.6z"/>
			</g>
		</g>
		<g>
			<g>
				<path fill="#FC657E" d="M181.85,27.45c-4.5-0.8-8-4.3-8.9-8.7c0-0.2-0.4-0.2-0.4,0c-0.9,4.4-4.4,7.9-8.9,8.7
					c-0.2,0-0.2,0.3,0,0.4c4.5,0.8,8,4.3,8.9,8.7c0,0.2,0.4,0.2,0.4,0c0.9-4.4,4.4-7.9,8.9-8.7
					C182.05,27.75,182.05,27.45,181.85,27.45z"/>
			</g>
		</g>
		<g>
			<g>
				<path fill="#87D147" d="M160.8,0c-1.878,0-3.4,1.522-3.4,3.4c0,1.878,1.522,3.4,3.4,3.4c1.878,0,3.4-1.522,3.4-3.4
					C164.2,1.522,162.678,0,160.8,0z"/>
			</g>
		</g>
		<g>
			<g>
				<g>
					<path d="M128,64.75c-34.876,0-63.25,28.374-63.25,63.25s28.374,63.25,63.25,63.25s63.25-28.374,63.25-63.25
						S162.876,64.75,128,64.75z M128,186.25c-32.119,0-58.25-26.131-58.25-58.25S95.881,69.75,128,69.75s58.25,26.131,58.25,58.25
						S160.119,186.25,128,186.25z"/>
				</g>
			</g>
		</g>
		<g>
			<g>
				<path d="M135.929,82.695c-1.361-0.236-2.655,0.674-2.892,2.035c-0.236,1.36,0.674,2.655,2.034,2.891
					C154.731,91.039,169,108.021,169,128s-14.269,36.961-33.929,40.379c-1.36,0.236-2.271,1.531-2.034,2.891
					c0.211,1.215,1.268,2.072,2.46,2.072c0.143,0,0.286-0.012,0.432-0.038C157.988,169.469,174,150.416,174,128
					S157.988,86.531,135.929,82.695z"/>
			</g>
		</g>
		<g>
			<g>
				<path d="M120.929,168.379C101.269,164.961,87,147.979,87,128s14.269-36.961,33.929-40.379c1.36-0.236,2.271-1.531,2.034-2.891
					s-1.525-2.27-2.892-2.035C98.012,86.531,82,105.584,82,128s16.012,41.469,38.071,45.305c0.146,0.025,0.289,0.038,0.432,0.038
					c1.192,0,2.249-0.857,2.46-2.072C123.199,169.91,122.289,168.616,120.929,168.379z"/>
			</g>
		</g>
		<g>
			<g>
				<path d="M142.048,174.211l-6.885-2.848l2.849-6.884c0.527-1.276-0.079-2.738-1.354-3.266c-1.277-0.529-2.737,0.079-3.267,1.354
					l-3.804,9.194c-0.253,0.612-0.253,1.301,0.001,1.913c0.254,0.613,0.741,1.099,1.354,1.353l9.194,3.804
					c0.313,0.129,0.637,0.19,0.955,0.19c0.981,0,1.912-0.582,2.312-1.545C143.93,176.201,143.323,174.739,142.048,174.211z"/>
			</g>
		</g>
		<g>
			<g>
				<path d="M125.401,82.369c-0.254-0.612-0.741-1.099-1.354-1.352l-9.194-3.803c-1.281-0.528-2.739,0.079-3.267,1.354
					s0.079,2.738,1.354,3.266l6.885,2.848l-2.849,6.884c-0.527,1.276,0.079,2.738,1.354,3.266c0.313,0.129,0.637,0.19,0.955,0.19
					c0.981,0,1.912-0.582,2.312-1.545l3.804-9.194C125.655,83.669,125.655,82.981,125.401,82.369z"/>
			</g>
		</g>
		<g>
			<g>
				<path d="M114.753,133.34l-9.4-3.261c-0.626-0.218-1.314-0.177-1.91,0.112c-0.597,0.29-1.054,0.804-1.271,1.431l-3.26,9.401
					c-0.452,1.304,0.238,2.729,1.543,3.181c0.271,0.094,0.548,0.139,0.819,0.139c1.035,0,2.004-0.648,2.362-1.682l2.44-7.039
					l7.038,2.441c1.307,0.454,2.729-0.238,3.182-1.542C116.748,135.217,116.058,133.792,114.753,133.34z"/>
			</g>
		</g>
		<g>
			<g>
				<path d="M156.753,113.08c-1.308-0.454-2.729,0.238-3.182,1.543l-2.44,7.039l-7.038-2.441c-1.307-0.455-2.729,0.238-3.182,1.542
					c-0.452,1.305,0.238,2.729,1.543,3.181l9.4,3.261c0.266,0.092,0.543,0.138,0.819,0.138c0.374,0,0.748-0.084,1.091-0.25
					c0.597-0.29,1.054-0.804,1.271-1.431l3.26-9.401C158.748,114.956,158.058,113.532,156.753,113.08z"/>
			</g>
		</g>
		<g>
			<g>
				<path d="M152.85,119.958c-3.502-10.826-13.487-18.099-24.85-18.099s-21.348,7.273-24.85,18.099
					c-0.425,1.314,0.296,2.723,1.609,3.148c1.31,0.422,2.723-0.295,3.148-1.609c2.831-8.756,10.906-14.638,20.092-14.638
					s17.261,5.882,20.092,14.638c0.343,1.058,1.323,1.731,2.378,1.731c0.255,0,0.515-0.039,0.771-0.122
					C152.554,122.681,153.274,121.272,152.85,119.958z"/>
			</g>
		</g>
		<g>
			<g>
				<path d="M151.24,132.894c-1.313-0.423-2.723,0.295-3.148,1.609c-2.831,8.756-10.906,14.638-20.092,14.638
					s-17.261-5.882-20.092-14.638c-0.426-1.314-1.834-2.034-3.148-1.609c-1.313,0.425-2.034,1.834-1.609,3.148
					c3.502,10.826,13.487,18.099,24.85,18.099s21.348-7.273,24.85-18.099C153.274,134.728,152.554,133.319,151.24,132.894z"/>
			</g>
		</g>
		<g>
			<g>
				<g>
					<path d="M128,0c-8.547,0-15.5,6.953-15.5,15.5S119.453,31,128,31s15.5-6.953,15.5-15.5S136.547,0,128,0z M128,26
						c-5.79,0-10.5-4.71-10.5-10.5S122.21,5,128,5s10.5,4.71,10.5,10.5S133.79,26,128,26z"/>
				</g>
			</g>
		</g>
		<g>
			<g>
				<g>
					<path d="M128,225c-8.547,0-15.5,6.953-15.5,15.5S119.453,256,128,256s15.5-6.953,15.5-15.5S136.547,225,128,225z M128,251
						c-5.79,0-10.5-4.71-10.5-10.5S122.21,230,128,230s10.5,4.71,10.5,10.5S133.79,251,128,251z"/>
				</g>
			</g>
		</g>
		<g>
			<g>
				<path d="M128,186.813c-1.381,0-2.5,1.119-2.5,2.5V226.5c0,1.381,1.119,2.5,2.5,2.5s2.5-1.119,2.5-2.5v-37.187
					C130.5,187.932,129.381,186.813,128,186.813z"/>
			</g>
		</g>
		<g>
			<g>
				<path d="M128,27c-1.381,0-2.5,1.119-2.5,2.5v37.125c0,1.381,1.119,2.5,2.5,2.5s2.5-1.119,2.5-2.5V29.5
					C130.5,28.119,129.381,27,128,27z"/>
			</g>
		</g>
		<g>
			<g>
				<g>
					<path d="M45.544,67.738c-1.071-3.999-3.636-7.341-7.222-9.412c-7.401-4.272-16.9-1.729-21.174,5.673
						c-2.07,3.585-2.62,7.763-1.548,11.762c1.071,3.999,3.636,7.341,7.222,9.412c2.435,1.406,5.096,2.074,7.724,2.074
						c5.36,0,10.582-2.78,13.449-7.747C46.065,75.915,46.615,71.737,45.544,67.738z M39.665,77
						c-2.896,5.014-9.331,6.737-14.343,3.843c-5.015-2.895-6.738-9.33-3.844-14.343c1.942-3.365,5.479-5.248,9.111-5.248
						c1.78,0,3.583,0.453,5.232,1.405C40.836,65.551,42.56,71.986,39.665,77z"/>
				</g>
			</g>
		</g>
		<g>
			<g>
				<g>
					<path d="M240.399,180.238c-1.071-3.999-3.636-7.341-7.222-9.412c-7.4-4.273-16.9-1.729-21.173,5.673
						c-2.07,3.585-2.62,7.763-1.549,11.762s3.636,7.341,7.222,9.412c2.436,1.406,5.096,2.074,7.725,2.074
						c5.36,0,10.582-2.78,13.449-7.747C240.922,188.415,241.472,184.237,240.399,180.238z M234.521,189.5
						c-2.895,5.014-9.331,6.737-14.344,3.843c-5.014-2.895-6.737-9.329-3.843-14.343c1.942-3.365,5.479-5.248,9.11-5.248
						c1.78,0,3.583,0.453,5.232,1.405C235.692,178.052,237.416,184.486,234.521,189.5z"/>
				</g>
			</g>
		</g>
		<g>
			<g>
				<path d="M214.554,175.085l-32.205-18.594c-1.192-0.69-2.725-0.281-3.415,0.915c-0.69,1.196-0.28,2.725,0.915,3.415
					l32.205,18.594c0.394,0.228,0.823,0.335,1.248,0.335c0.863,0,1.704-0.449,2.167-1.25
					C216.159,177.304,215.749,175.775,214.554,175.085z"/>
			</g>
		</g>
		<g>
			<g>
				<path d="M76.098,95.147L43.946,76.585c-1.193-0.69-2.725-0.281-3.415,0.915c-0.69,1.196-0.28,2.725,0.915,3.415l32.151,18.563
					c0.394,0.228,0.823,0.335,1.248,0.335c0.863,0,1.704-0.449,2.167-1.25C77.703,97.367,77.293,95.838,76.098,95.147z"/>
			</g>
		</g>
		<g>
			<g>
				<g>
					<path d="M43.995,176.5c-4.274-7.402-13.771-9.947-21.173-5.673c-3.586,2.07-6.15,5.413-7.222,9.412
						c-1.072,3.999-0.522,8.176,1.548,11.762c2.868,4.967,8.088,7.747,13.449,7.747c2.628,0,5.29-0.668,7.725-2.074
						c3.586-2.07,6.15-5.413,7.222-9.412S46.065,180.085,43.995,176.5z M35.822,193.343c-5.015,2.894-11.449,1.17-14.344-3.843
						s-1.171-11.448,3.844-14.343c1.649-0.952,3.452-1.405,5.232-1.405c3.631,0,7.168,1.884,9.11,5.248
						C42.56,184.014,40.836,190.449,35.822,193.343z"/>
				</g>
			</g>
		</g>
		<g>
			<g>
				<g>
					<path d="M238.852,64c-4.274-7.402-13.772-9.947-21.174-5.673c-3.586,2.07-6.15,5.413-7.222,9.412s-0.521,8.176,1.549,11.762
						c2.868,4.967,8.088,7.747,13.449,7.747c2.628,0,5.289-0.668,7.724-2.074c3.586-2.07,6.15-5.413,7.222-9.412
						C241.472,71.763,240.922,67.585,238.852,64z M230.678,80.843c-5.014,2.895-11.448,1.17-14.343-3.843
						c-2.895-5.014-1.171-11.449,3.843-14.343c1.649-0.952,3.452-1.405,5.232-1.405c3.632,0,7.169,1.883,9.111,5.248
						C237.416,71.514,235.692,77.948,230.678,80.843z"/>
				</g>
			</g>
		</g>
		<g>
			<g>
				<path d="M215.469,77.5c-0.69-1.197-2.222-1.605-3.415-0.915l-32.205,18.594c-1.195,0.69-1.605,2.219-0.915,3.415
					c0.463,0.802,1.304,1.25,2.167,1.25c0.425,0,0.854-0.108,1.248-0.335l32.205-18.594C215.749,80.225,216.159,78.696,215.469,77.5
					z"/>
			</g>
		</g>
		<g>
			<g>
				<path d="M77.013,157.438c-0.69-1.197-2.222-1.605-3.415-0.915l-32.151,18.563c-1.195,0.69-1.605,2.219-0.915,3.415
					c0.463,0.802,1.304,1.25,2.167,1.25c0.425,0,0.854-0.108,1.248-0.335l32.151-18.563
					C77.293,160.162,77.703,158.633,77.013,157.438z"/>
			</g>
		</g>
	</g>
</g>
<g id="Layer_6">
</g>
<g id="Layer_7">
</g>
<g id="Layer_8">
</g>
<g id="Layer_9">
</g>
<g id="Layer_10">
</g>
<g id="Layer_11">
</g>
<g id="Layer_12">
</g>
<g id="Layer_13">
</g>
<g id="Layer_14">
</g>
<g id="Layer_15">
</g>
<g id="Layer_16">
</g>
<g id="Layer_17">
</g>
<g id="Layer_18">
</g>
<g id="Layer_19">
</g>
<g id="Layer_20">
</g>
<g id="Layer_21">
</g>
<g id="Layer_22">
</g>
<g id="Layer_23">
</g>
<g id="Layer_24">
</g>
<g id="Layer_25">
</g>
<g id="Layer_26">
</g>
<g id="Layer_27">
</g>
<g id="Layer_28">
</g>
<g id="Layer_29">
</g>
<g id="Layer_30">
</g>
<g id="Layer_31">
</g>
<g id="Layer_32">
</g>
<g id="Layer_33">
</g>
<g id="Layer_34">
</g>
<g id="Layer_35">
</g>
<g id="Layer_36">
</g>
<g id="Layer_37">
</g>
<g id="Layer_38">
</g>
<g id="Layer_39">
</g>
<g id="Layer_40">
</g>
<g id="Layer_41">
</g>
<g id="Layer_42">
</g>
<g id="Layer_43">
</g>
<g id="Layer_44">
</g>
<g id="Layer_45">
</g>
<g id="Layer_46">
</g>
<g id="Layer_47">
</g>
<g id="Layer_48">
</g>
<g id="Layer_49">
</g>
<g id="Layer_50">
</g>
<g id="Layer_51">
</g>
<g id="Layer_52">
</g>
<g id="Layer_53">
</g>
<g id="Layer_54">
</g>
<g id="Layer_55">
</g>
<g id="Layer_56">
</g>
<g id="Layer_57">
</g>
<g id="Layer_58">
</g>
<g id="Layer_59">
</g>
<g id="Layer_60">
</g>
<g id="Layer_61">
</g>
<g id="Layer_62">
</g>
<g id="Layer_63">
</g>
<g id="Layer_64">
</g>
<g id="Layer_65">
</g>
<g id="Layer_66">
</g>
<g id="Layer_67">
</g>
<g id="Layer_68">
</g>
<g id="Layer_69">
</g>
<g id="Layer_70">
</g>
<g id="Layer_71">
</g>
<g id="Layer_72">
</g>
<g id="Layer_73">
</g>
<g id="Layer_74">
</g>
<g id="Layer_75">
</g>
<g id="Layer_76">
</g>
<g id="Layer_77">
</g>
<g id="Layer_78">
</g>
<g id="Layer_79">
</g>
<g id="Layer_80">
</g>
<g id="Layer_81">
</g>
<g id="Layer_82">
</g>
<g id="Layer_83">
</g>
<g id="Layer_84">
</g>
<g id="Layer_85">
</g>
<g id="Layer_86">
</g>
<g id="Layer_87">
</g>
<g id="Layer_88">
</g>
<g id="Layer_89">
</g>
<g id="Layer_90">
</g>
</svg>
