<svg id="Filled_stroke_cut_Ex" data-name="Filled stroke cut Ex" xmlns="http://www.w3.org/2000/svg" width="512" height="512" viewBox="0 0 512 512">
  <title>alert- siren- emergency- warning- alarm</title>
  <g>
    <rect x="240" y="24" width="32" height="80" rx="16" ry="16" style="fill: #e64b30"/>
    <path d="M256,112a24.028,24.028,0,0,1-24-24V40a24,24,0,0,1,48,0V88A24.028,24.028,0,0,1,256,112Zm0-80a8.009,8.009,0,0,0-8,8V88a8,8,0,0,0,16,0V40A8.009,8.009,0,0,0,256,32Z"/>
    <rect x="44" y="220" width="32" height="72" rx="16" ry="16" transform="translate(-196 316) rotate(-90)" style="fill: #e64b30"/>
    <path d="M80,280H40a24,24,0,0,1,0-48H80a24,24,0,0,1,0,48ZM40,248a8,8,0,0,0,0,16H80a8,8,0,0,0,0-16Z"/>
    <rect x="436" y="220" width="32" height="72" rx="16" ry="16" transform="translate(196 708) rotate(-90)" style="fill: #e64b30"/>
    <path d="M472,280H432a24,24,0,0,1,0-48h40a24,24,0,0,1,0,48Zm-40-32a8,8,0,0,0,0,16h40a8,8,0,0,0,0-16Z"/>
    <rect x="67.799" y="39.799" width="32" height="88" rx="16" ry="16" transform="translate(-34.711 83.799) rotate(-45)" style="fill: #e64b30"/>
    <path d="M103.6,127.6a23.84,23.84,0,0,1-16.971-7.03l-39.6-39.6A24,24,0,1,1,80.971,47.03l39.6,39.6a24.028,24.028,0,0,1,0,33.941h0A23.841,23.841,0,0,1,103.6,127.6ZM64,56a8,8,0,0,0-5.657,13.656l39.6,39.6a8,8,0,0,0,11.314-11.314l-39.6-39.6A7.944,7.944,0,0,0,64,56Z"/>
    <rect x="384.201" y="67.799" width="88" height="32" rx="16" ry="16" transform="translate(66.162 327.328) rotate(-45)" style="fill: #e64b30"/>
    <path d="M408.4,127.6a23.841,23.841,0,0,1-16.97-7.029h0a24.028,24.028,0,0,1,0-33.941l39.6-39.6A24,24,0,1,1,464.97,80.971l-39.6,39.6A23.84,23.84,0,0,1,408.4,127.6Zm-5.657-18.343a8,8,0,0,0,11.314,0l39.6-39.6a8,8,0,1,0-11.312-11.314l-39.6,39.6a8.01,8.01,0,0,0,0,11.314Z"/>
    <g>
      <path d="M400,432H112l29.173-269.141A30,30,0,0,1,171.008,136H340.992a30,30,0,0,1,29.835,26.859Z" style="fill: #e64b30"/>
      <rect x="240" y="304" width="32" height="136" style="fill: #b33a25"/>
      <polygon points="256 304 152 344 168 216 256 272 256 304" style="fill: #fdbf44"/>
      <polygon points="256 304 360 344 344 216 256 272 256 304" style="fill: #fdbf44"/>
      <path d="M108,432H404a20,20,0,0,1,20,20v36a0,0,0,0,1,0,0H88a0,0,0,0,1,0,0V452A20,20,0,0,1,108,432Z" style="fill: #fdbf44"/>
      <circle cx="256" cy="288" r="32" style="fill: #b33a25"/>
      <g>
        <path d="M407.2,424.182l-3.582-33.044-15.906,1.724L391.086,424H280V321.8l77.128,29.665a8,8,0,0,0,10.81-8.459l-16-128a8,8,0,0,0-12.233-5.758l-66.792,42.5a39.976,39.976,0,0,0-33.826,0L172.3,209.25a8,8,0,0,0-12.233,5.758l-16,128a8,8,0,0,0,10.81,8.459L232,321.8V424H120.914l23.319-215.138-15.906-1.724L104.8,424.182A28.04,28.04,0,0,0,80,452v36a8,8,0,0,0,8,8H424a8,8,0,0,0,8-8V452A28.04,28.04,0,0,0,407.2,424.182Zm-56.794-92.444-60.134-23.129a39.926,39.926,0,0,0-3.813-46.509l51.172-32.564ZM280,288a24,24,0,1,1-24-24A24.027,24.027,0,0,1,280,288ZM174.37,229.536,225.542,262.1a39.926,39.926,0,0,0-3.813,46.509L161.6,331.738ZM248,327.2a40.2,40.2,0,0,0,16,0V424H248ZM416,480H96V452a12.013,12.013,0,0,1,12-12H404a12.013,12.013,0,0,1,12,12Z"/>
        <path d="M149.129,163.7A21.954,21.954,0,0,1,171.008,144H340.992a21.96,21.96,0,0,1,21.882,19.722l23.1,213.14,15.906-1.724-23.1-213.116A37.919,37.919,0,0,0,340.992,128H171.008a37.912,37.912,0,0,0-37.788,34l-3.159,29.141,15.906,1.724Z"/>
        <rect x="144" y="392" width="16" height="16"/>
        <rect x="352" y="392" width="16" height="16"/>
      </g>
    </g>
  </g>
</svg>
