<svg id="Filled_stroke_cut_Ex_Revise" data-name="Filled stroke cut Ex Revise" xmlns="http://www.w3.org/2000/svg" width="512" height="512" viewBox="0 0 512 512">
  <title>alien- spooky- character- cosplay- halloween- avatar- horror</title>
  <path d="M437.422,400.35,304,360l-12.7-50.82c31.318-18.339,56.5-59.321,68.7-104.676V224h6.115a40,40,0,0,0,39.456-33.424L416,128H402a41.943,41.943,0,0,0-34,17.34c-.27-80.926-50.31-120.673-112-120.673S144.272,64.414,144,145.34A41.943,41.943,0,0,0,110,128H96l10.429,62.576A40,40,0,0,0,145.885,224H152V204.5c12.2,45.355,37.387,86.337,68.705,104.676L208,360,74.578,400.35A30,30,0,0,0,56,428.091V488H456V428.091A30,30,0,0,0,437.422,400.35Z" style="fill: #e6e6e6"/>
  <path d="M216.672,325.314a82.2,82.2,0,0,0,78.656,0L291.3,309.18h-70.59Z" style="fill: #ccc"/>
  <path d="M226.85,117.6C242.471,133.216,245,163.5,232.507,176s-35.291,2.471-50.912-13.15-18.153-38.415-5.656-50.911S211.229,101.974,226.85,117.6Z" style="fill: #333"/>
  <path d="M330.405,162.85c15.621-15.621,18.153-38.415,5.656-50.911s-35.29-9.965-50.911,5.656S267,163.5,279.493,176,314.784,178.471,330.405,162.85Z" style="fill: #333"/>
  <g>
    <path d="M440.468,392.953c-.239-.1-.483-.185-.73-.26L310.66,353.656l-10.179-40.715c15.181-10.164,29.289-25.542,41.541-45.588A221.747,221.747,0,0,0,359.359,232h6.756a47.85,47.85,0,0,0,47.347-40.109l10.429-62.576A8,8,0,0,0,416,120H402a50.082,50.082,0,0,0-26.84,7.838c-2.2-23.069-8.712-43.235-19.44-60.127l-13.507,8.577C354.016,94.873,360,118.327,360,146c0,38.356-11.824,80.6-31.63,113.009-20.324,33.253-46.7,52.324-72.37,52.324s-52.046-19.071-72.37-52.324C163.824,226.6,152,184.356,152,146c0-36.126,10.528-65.695,30.446-85.509,18.3-18.2,43.733-27.824,73.554-27.824,30.449,0,56.253,10,74.624,28.907L342.1,50.425C320.646,28.34,290.874,16.667,256,16.667c-34.141,0-63.477,11.231-84.838,32.481-19.469,19.367-31.169,46.332-34.305,78.7A50.092,50.092,0,0,0,110,120H96a8,8,0,0,0-7.891,9.315l10.429,62.577A47.85,47.85,0,0,0,145.885,232h6.756a221.747,221.747,0,0,0,17.337,35.353c12.252,20.046,26.36,35.424,41.541,45.588L201.34,353.656l-91.656,27.719,4.632,15.315,96-29.032a8,8,0,0,0,5.445-5.718l10.256-41.023a73.266,73.266,0,0,0,59.966,0l10.256,41.023a8,8,0,0,0,5.445,5.718l133.023,40.229A21.925,21.925,0,0,1,448,428.091V480H393.759l6.086-30.431-15.69-3.138L377.442,480H134.558l-6.713-33.569-15.69,3.138L118.241,480H64V428.091a21.926,21.926,0,0,1,13.293-20.2l21.023-6.358-4.632-15.315-21.422,6.479c-.248.075-.491.161-.73.26A37.876,37.876,0,0,0,48,428.091V488a8,8,0,0,0,8,8H456a8,8,0,0,0,8-8V428.091A37.876,37.876,0,0,0,440.468,392.953ZM402,136h4.556l-8.876,53.261A31.9,31.9,0,0,1,366.115,216h-1.176a240.108,240.108,0,0,0,11.05-67.9A34.141,34.141,0,0,1,402,136ZM145.885,216a31.9,31.9,0,0,1-31.565-26.739L105.444,136H110a34.141,34.141,0,0,1,26.011,12.1,240.108,240.108,0,0,0,11.05,67.9Z"/>
    <rect x="224" y="256" width="64" height="16"/>
    <path d="M170.282,106.282c-15.6,15.6-13.058,43.51,5.656,62.225,12.3,12.3,28.342,21.068,42.467,21.068a27.046,27.046,0,0,0,19.759-7.918c15.866-15.866,13.011-51.051-5.657-69.719C213.792,93.225,185.879,90.687,170.282,106.282Zm56.569,64.061c-8.281,8.276-26.635-.186-39.6-13.15-12.477-12.476-15.014-30.24-5.657-39.6a20.311,20.311,0,0,1,14.678-5.646c8.262,0,17.521,3.9,24.92,11.3C232.223,134.282,237.128,160.066,226.851,170.343Z"/>
    <path d="M336.062,168.507c18.714-18.715,21.252-46.629,5.656-62.225s-43.511-13.058-62.225,5.656c-18.668,18.668-21.523,53.853-5.657,69.719a27.042,27.042,0,0,0,19.759,7.918C307.719,189.575,323.76,180.809,336.062,168.507Zm-45.255-45.255c7.4-7.4,16.657-11.3,24.92-11.3a20.315,20.315,0,0,1,14.678,5.646c9.357,9.358,6.82,27.122-5.657,39.6-12.965,12.964-31.319,21.428-39.6,13.15C274.872,160.066,279.777,134.282,290.807,123.252Z"/>
    <rect x="228.686" y="208" width="22.627" height="16" transform="translate(-82.441 232.971) rotate(-45)"/>
    <rect x="264" y="204.686" width="16" height="22.627" transform="translate(-73.068 255.598) rotate(-45)"/>
  </g>
</svg>
