<?xml version="1.0" encoding="utf-8"?>
<!-- Generator: Adobe Illustrator 24.0.0, SVG Export Plug-In . SVG Version: 6.00 Build 0)  -->
<svg version="1.1" xmlns="http://www.w3.org/2000/svg" xmlns:xlink="http://www.w3.org/1999/xlink" x="0px" y="0px"
	 viewBox="0 0 256 256" enable-background="new 0 0 256 256" xml:space="preserve">
<g id="Layer_1">
</g>
<g id="Layer_2">
</g>
<g id="Layer_3">
</g>
<g id="Layer_4">
</g>
<g id="Layer_5">
</g>
<g id="Layer_6">
</g>
<g id="Layer_7">
</g>
<g id="Layer_8">
</g>
<g id="Layer_9">
</g>
<g id="Layer_10">
</g>
<g id="Layer_11">
</g>
<g id="Layer_12">
</g>
<g id="Layer_13">
</g>
<g id="Layer_14">
</g>
<g id="Layer_15">
</g>
<g id="Layer_16">
</g>
<g id="Layer_17">
</g>
<g id="Layer_18">
</g>
<g id="Layer_19">
</g>
<g id="Layer_20">
</g>
<g id="Layer_21">
</g>
<g id="Layer_22">
</g>
<g id="Layer_23">
</g>
<g id="Layer_24">
</g>
<g id="Layer_25">
</g>
<g id="Layer_26">
</g>
<g id="Layer_27">
</g>
<g id="Layer_28">
</g>
<g id="Layer_29">
</g>
<g id="Layer_30">
</g>
<g id="Layer_31">
</g>
<g id="Layer_32">
</g>
<g id="Layer_33">
</g>
<g id="Layer_34">
</g>
<g id="Layer_35">
</g>
<g id="Layer_36">
</g>
<g id="Layer_37">
</g>
<g id="Layer_38">
	<g>
		<g>
			<g>
				<path fill="#5290DB" d="M135.88,106.717V92.659c0-12.881,7.868-24.01,19.034-28.827V31.941c0-3.854-3.153-7.007-7.007-7.007
					H23.856c-3.854,0-7.007,3.153-7.007,7.007v99.829c0,3.854,3.153,7.007,7.007,7.007h124.05c0.063,0,0.124-0.008,0.186-0.01
					c-1.258-3-2.041-6.241-2.269-9.629c-0.34,0.055-0.683,0.099-1.029,0.13v0.001c-0.329,0.029-0.661,0.046-0.998,0.046
					c-7.009,0-12.69-5.682-12.69-12.69C131.107,112.613,132.974,109.042,135.88,106.717z"/>
			</g>
		</g>
		<g>
			<g>
				<path fill="#FCA265" d="M85.882,37.045v44.81h51.935c1.187-3.204,2.88-6.167,4.986-8.787V37.045H85.882z"/>
			</g>
		</g>
		<g>
			<g>
				<rect x="28.96" y="81.855" fill="#F5C84C" width="56.922" height="44.811"/>
			</g>
		</g>
		<g>
			<g>
				<rect x="28.96" y="37.045" fill="#FC657E" width="56.922" height="44.81"/>
			</g>
		</g>
		<g>
			<g>
				<path fill="#87D147" d="M131.107,116.625c0-4.011,1.866-7.582,4.772-9.908V92.659c0-3.793,0.688-7.432,1.937-10.804H85.882
					v44.811h50.176C133.052,124.345,131.107,120.716,131.107,116.625z"/>
			</g>
		</g>
		<g>
			<g>
				<path fill="#5290DB" d="M109.527,153.337H62.236c-1.982,0-3.604,1.622-3.604,3.604v4.903c0,1.982,1.622,3.604,3.604,3.604
					h47.291c1.982,0,3.604-1.622,3.604-3.604v-4.903C113.131,154.958,111.509,153.337,109.527,153.337z"/>
			</g>
		</g>
		<g>
			<g>
				<path fill="#F9D0B4" d="M113.655,91.169c-4.231,0-7.66,3.43-7.66,7.66c0,4.231,3.43,7.66,7.66,7.66c4.231,0,7.66-3.43,7.66-7.66
					C121.315,94.599,117.886,91.169,113.655,91.169z"/>
			</g>
		</g>
		<g>
			<g>
				<path fill="#70D6F9" d="M121.258,114.753h-14.472c-5.295,0-9.169,4.476-9.169,9.464v2.449h32.81v-2.449
					C130.427,119.22,126.545,114.753,121.258,114.753z"/>
			</g>
		</g>
		<g>
			<g>
				<path fill="#F9D0B4" d="M57.374,91.169c-4.231,0-7.66,3.43-7.66,7.66c0,4.231,3.43,7.66,7.66,7.66c4.231,0,7.66-3.43,7.66-7.66
					C65.034,94.599,61.605,91.169,57.374,91.169z"/>
			</g>
		</g>
		<g>
			<g>
				<path fill="#70D6F9" d="M64.977,114.753H50.505c-5.295,0-9.169,4.476-9.169,9.464v2.449h32.81v-2.449
					C74.146,119.22,70.265,114.753,64.977,114.753z"/>
			</g>
		</g>
		<g>
			<g>
				<path fill="#F9D0B4" d="M113.655,46.358c-4.231,0-7.66,3.43-7.66,7.66s3.43,7.66,7.66,7.66c4.231,0,7.66-3.43,7.66-7.66
					S117.886,46.358,113.655,46.358z"/>
			</g>
		</g>
		<g>
			<g>
				<path fill="#70D6F9" d="M121.258,69.942h-14.472c-5.295,0-9.169,4.476-9.169,9.464v2.449h32.81v-2.449
					C130.427,74.409,126.545,69.942,121.258,69.942z"/>
			</g>
		</g>
		<g>
			<g>
				<path fill="#F9D0B4" d="M57.374,46.358c-4.231,0-7.66,3.43-7.66,7.66s3.43,7.66,7.66,7.66c4.231,0,7.66-3.43,7.66-7.66
					S61.605,46.358,57.374,46.358z"/>
			</g>
		</g>
		<g>
			<g>
				<path fill="#70D6F9" d="M64.977,69.942H50.505c-5.295,0-9.169,4.476-9.169,9.464v2.449h32.81v-2.449
					C74.146,74.409,70.265,69.942,64.977,69.942z"/>
			</g>
		</g>
		<g>
			<g>
				<rect x="79.826" y="138.777" fill="#5290DB" width="12.111" height="14.56"/>
			</g>
		</g>
		<g>
			<g>
				<path fill="#70D6F9" d="M184.61,35.66c-3.158-0.561-5.613-3.017-6.245-6.104c0-0.14-0.281-0.14-0.281,0
					c-0.631,3.087-3.087,5.543-6.245,6.104c-0.14,0-0.14,0.21,0,0.281c3.158,0.561,5.613,3.017,6.245,6.104
					c0,0.14,0.281,0.14,0.281,0c0.631-3.087,3.087-5.543,6.245-6.104C184.75,35.87,184.75,35.66,184.61,35.66z"/>
			</g>
		</g>
		<g>
			<g>
				<path fill="#F5C84C" d="M35.8,161c-4.5-0.8-8-4.3-8.9-8.7c0-0.2-0.4-0.2-0.4,0c-0.9,4.4-4.4,7.9-8.9,8.7c-0.2,0-0.2,0.3,0,0.4
					c4.5,0.8,8,4.3,8.9,8.7c0,0.2,0.4,0.2,0.4,0c0.9-4.4,4.4-7.9,8.9-8.7C36,161.3,36,161,35.8,161z"/>
			</g>
		</g>
		<g>
			<g>
				<path fill="#F5C84C" d="M228.8,143.15c-1.878,0-3.4,1.522-3.4,3.4c0,1.878,1.522,3.4,3.4,3.4c1.878,0,3.4-1.522,3.4-3.4
					C232.2,144.672,230.678,143.15,228.8,143.15z"/>
			</g>
		</g>
		<g>
			<g>
				<path fill="#87D147" d="M3.4,140.15c-1.878,0-3.4,1.522-3.4,3.4c0,1.878,1.522,3.4,3.4,3.4c1.878,0,3.4-1.522,3.4-3.4
					C6.8,141.672,5.278,140.15,3.4,140.15z"/>
			</g>
		</g>
		<g>
			<g>
				<path fill="#FC657E" d="M252.8,118.25h-2.3v-2.3c0-1.7-1.4-3.2-3.2-3.2s-3.2,1.4-3.2,3.2v2.3h-2.3c-1.7,0-3.2,1.4-3.2,3.2
					s1.4,3.2,3.2,3.2h2.3v2.3c0,1.7,1.4,3.2,3.2,3.2s3.2-1.4,3.2-3.2v-2.3h2.3c1.7,0,3.2-1.4,3.2-3.2S254.6,118.25,252.8,118.25z"/>
			</g>
		</g>
		<g>
			<g>
				<path d="M147.907,22.434H23.856c-5.242,0-9.507,4.265-9.507,9.507v99.829c0,5.242,4.265,9.507,9.507,9.507h123.477
					c1.381,0,2.5-1.119,2.5-2.5s-1.119-2.5-2.5-2.5H23.856c-2.485,0-4.507-2.022-4.507-4.507V31.941
					c0-2.485,2.022-4.507,4.507-4.507h124.051c2.485,0,4.507,2.022,4.507,4.507v31.497c0,1.381,1.119,2.5,2.5,2.5s2.5-1.119,2.5-2.5
					V31.941C157.414,26.699,153.149,22.434,147.907,22.434z"/>
			</g>
		</g>
		<g>
			<g>
				<g>
					<path d="M109.527,150.837H62.236c-3.366,0-6.104,2.738-6.104,6.104v4.903c0,3.366,2.738,6.104,6.104,6.104h47.292
						c3.366,0,6.104-2.738,6.104-6.104v-4.903C115.631,153.575,112.893,150.837,109.527,150.837z M110.631,161.844
						c0,0.599-0.505,1.104-1.104,1.104H62.236c-0.599,0-1.104-0.505-1.104-1.104v-4.903c0-0.599,0.505-1.104,1.104-1.104h47.292
						c0.599,0,1.104,0.505,1.104,1.104V161.844z"/>
				</g>
			</g>
		</g>
		<g>
			<g>
				<path d="M142.803,34.544H28.96c-1.381,0-2.5,1.119-2.5,2.5v89.621c0,1.381,1.119,2.5,2.5,2.5h106.446c1.381,0,2.5-1.119,2.5-2.5
					s-1.119-2.5-2.5-2.5H31.46V39.544h108.843v33.369c0,1.381,1.119,2.5,2.5,2.5s2.5-1.119,2.5-2.5V37.044
					C145.303,35.664,144.184,34.544,142.803,34.544z"/>
			</g>
		</g>
		<g>
			<g>
				<g>
					<path d="M113.655,88.669c-5.603,0-10.16,4.558-10.16,10.16s4.558,10.16,10.16,10.16s10.16-4.558,10.16-10.16
						S119.257,88.669,113.655,88.669z M113.655,103.989c-2.845,0-5.16-2.315-5.16-5.16s2.315-5.16,5.16-5.16s5.16,2.315,5.16,5.16
						S116.5,103.989,113.655,103.989z"/>
				</g>
			</g>
		</g>
		<g>
			<g>
				<g>
					<path d="M121.258,112.253h-14.473c-6.434,0-11.668,5.367-11.668,11.964v2.449c0,1.381,1.119,2.5,2.5,2.5h32.81
						c1.381,0,2.5-1.119,2.5-2.5v-2.449C132.927,117.62,127.692,112.253,121.258,112.253z M100.117,124.166
						c0.027-3.816,3.008-6.913,6.668-6.913h14.473c3.661,0,6.642,3.096,6.668,6.913H100.117z"/>
				</g>
			</g>
		</g>
		<g>
			<g>
				<g>
					<path d="M57.374,88.669c-5.603,0-10.16,4.558-10.16,10.16s4.558,10.16,10.16,10.16s10.16-4.558,10.16-10.16
						S62.977,88.669,57.374,88.669z M57.374,103.989c-2.845,0-5.16-2.315-5.16-5.16s2.315-5.16,5.16-5.16s5.16,2.315,5.16,5.16
						S60.219,103.989,57.374,103.989z"/>
				</g>
			</g>
		</g>
		<g>
			<g>
				<g>
					<path d="M64.978,112.253H50.505c-6.434,0-11.668,5.367-11.668,11.964v2.449c0,1.381,1.119,2.5,2.5,2.5h32.81
						c1.381,0,2.5-1.119,2.5-2.5v-2.449C76.646,117.62,71.412,112.253,64.978,112.253z M43.836,124.166
						c0.027-3.816,3.008-6.913,6.668-6.913h14.473c3.661,0,6.642,3.096,6.668,6.913H43.836z"/>
				</g>
			</g>
		</g>
		<g>
			<g>
				<g>
					<path d="M113.655,43.858c-5.603,0-10.16,4.558-10.16,10.16s4.558,10.16,10.16,10.16s10.16-4.558,10.16-10.16
						S119.257,43.858,113.655,43.858z M113.655,59.179c-2.845,0-5.16-2.315-5.16-5.16s2.315-5.16,5.16-5.16s5.16,2.315,5.16,5.16
						S116.5,59.179,113.655,59.179z"/>
				</g>
			</g>
		</g>
		<g>
			<g>
				<g>
					<path d="M121.258,67.442h-14.473c-6.434,0-11.668,5.367-11.668,11.964v2.449c0,1.381,1.119,2.5,2.5,2.5h32.81
						c1.381,0,2.5-1.119,2.5-2.5v-2.449C132.927,72.81,127.692,67.442,121.258,67.442z M100.117,79.355
						c0.027-3.816,3.008-6.913,6.668-6.913h14.473c3.661,0,6.642,3.096,6.668,6.913H100.117z"/>
				</g>
			</g>
		</g>
		<g>
			<g>
				<g>
					<path d="M57.374,43.858c-5.603,0-10.16,4.558-10.16,10.16s4.558,10.16,10.16,10.16s10.16-4.558,10.16-10.16
						S62.977,43.858,57.374,43.858z M57.374,59.179c-2.845,0-5.16-2.315-5.16-5.16s2.315-5.16,5.16-5.16s5.16,2.315,5.16,5.16
						S60.219,59.179,57.374,59.179z"/>
				</g>
			</g>
		</g>
		<g>
			<g>
				<g>
					<path d="M64.978,67.442H50.505c-6.434,0-11.668,5.367-11.668,11.964v2.449c0,1.381,1.119,2.5,2.5,2.5h32.81
						c1.381,0,2.5-1.119,2.5-2.5v-2.449C76.646,72.81,71.412,67.442,64.978,67.442z M43.836,79.355
						c0.027-3.816,3.008-6.913,6.668-6.913h14.473c3.661,0,6.642,3.096,6.668,6.913H43.836z"/>
				</g>
			</g>
		</g>
		<g>
			<g>
				<path d="M85.882,34.626c-1.381,0-2.5,1.119-2.5,2.5v89.458c0,1.381,1.119,2.5,2.5,2.5s2.5-1.119,2.5-2.5V37.126
					C88.382,35.745,87.263,34.626,85.882,34.626z"/>
			</g>
		</g>
		<g>
			<g>
				<path d="M142.153,79.355H30.393c-1.381,0-2.5,1.119-2.5,2.5s1.119,2.5,2.5,2.5h111.761c1.381,0,2.5-1.119,2.5-2.5
					S143.534,79.355,142.153,79.355z"/>
			</g>
		</g>
		<g>
			<g>
				<path d="M91.937,137.375c-1.381,0-2.5,1.119-2.5,2.5V152.5c0,1.381,1.119,2.5,2.5,2.5s2.5-1.119,2.5-2.5v-12.625
					C94.437,138.495,93.318,137.375,91.937,137.375z"/>
			</g>
		</g>
		<g>
			<g>
				<path d="M79.826,137.25c-1.381,0-2.5,1.119-2.5,2.5V152.5c0,1.381,1.119,2.5,2.5,2.5s2.5-1.119,2.5-2.5V139.75
					C82.326,138.37,81.207,137.25,79.826,137.25z"/>
			</g>
		</g>
		<g>
			<g>
				<g>
					<path fill="#9BE5F9" d="M172.346,175.984l-12.237-12.238c-0.905-0.905-2.372-0.905-3.277,0l-5.476,5.476
						c-0.905,0.905-0.905,2.372,0,3.277l12.237,12.238c0.905,0.905,2.372,0.905,3.277,0l5.476-5.476
						C173.251,178.357,173.251,176.889,172.346,175.984z"/>
				</g>
			</g>
			<g>
				<g>
					<path fill="#9BE5F9" d="M200.932,169.223l-5.476-5.476c-0.905-0.905-2.372-0.905-3.277,0l-12.237,12.238
						c-0.905,0.905-0.905,2.372,0,3.277l5.476,5.476c0.905,0.905,2.372,0.905,3.277,0l12.237-12.238
						C201.837,171.595,201.837,170.128,200.932,169.223z"/>
				</g>
			</g>
			<g>
				<g>
					<path fill="#F9D0B4" d="M190.146,158.992v-4.947c-4.198,2.197-8.96,3.449-14.003,3.449h0c-5.043,0-9.805-1.252-14.003-3.449
						v4.947c0,1.913-0.522,3.745-1.457,5.329l11.663,11.663c0.393,0.394,0.605,0.894,0.657,1.408h6.282
						c0.051-0.514,0.263-1.014,0.657-1.408l11.673-11.673C190.68,162.727,190.146,160.904,190.146,158.992z"/>
				</g>
			</g>
			<g>
				<g>
					<path fill="#70D6F9" d="M237,189.43c-0.292-5.241-3.958-9.683-9.048-10.965l-17.448-4.392
						c-3.048-0.767-6.026-1.782-8.911-3.018c-0.044,0.526-0.257,1.042-0.66,1.445l-12.237,12.238c-0.905,0.905-2.372,0.905-3.277,0
						l-5.476-5.476c-0.511-0.511-0.723-1.202-0.657-1.869h-6.282c0.067,0.667-0.145,1.358-0.657,1.869l-5.476,5.476
						c-0.905,0.905-2.372,0.905-3.277,0L151.355,172.5c-0.401-0.401-0.614-0.912-0.659-1.436c-2.879,1.232-5.853,2.239-8.892,3.004
						l-17.468,4.397c-5.09,1.281-8.756,5.724-9.048,10.965l-2.143,36.959c-0.147,2.538,1.871,4.677,4.413,4.677H234.73
						c2.542,0,4.561-2.139,4.413-4.677L237,189.43z"/>
				</g>
			</g>
			<g>
				<g>
					<path fill="#F9D0B4" d="M206.534,99.548c-0.017-0.862-0.707-1.573-1.569-1.598c-12.627-0.37-19.28-5.375-21.837-7.881
						c-0.698-0.684-1.824-0.612-2.433,0.153c-11.102,13.961-27.479,11.991-32.986,10.839c-1.001-0.209-1.961,0.545-1.962,1.567
						c0,0.007,0,0.014,0,0.021v24.45c0,16.718,13.678,30.395,30.395,30.395h0c16.717,0,30.395-13.678,30.395-30.395v-27.076
						C206.539,99.865,206.537,99.706,206.534,99.548z"/>
				</g>
			</g>
			<g>
				<g>
					<path fill="#754E34" d="M199.928,67.307c-3.239,0-6.267,0.915-8.869,2.476c-3.04-5.073-8.577-8.498-14.89-8.498h-8.916
						c-17.256,0-31.374,14.118-31.374,31.374v14.058c2.171-1.737,4.921-2.782,7.918-2.782c0.664,0,1.314,0.056,1.95,0.155v-1.44
						c0-0.007,0-0.014,0-0.021c0.001-1.022,0.961-1.777,1.962-1.567c5.506,1.152,21.884,3.122,32.985-10.839
						c0.608-0.765,1.735-0.837,2.433-0.153c2.557,2.506,9.21,7.51,21.837,7.881c0.862,0.025,1.552,0.736,1.569,1.598
						c0.003,0.158,0.005,0.316,0.005,0.475v4.065c0.636-0.099,1.286-0.155,1.95-0.155c3.421,0,6.52,1.36,8.802,3.561V84.669
						C217.291,75.12,209.478,67.307,199.928,67.307z"/>
				</g>
			</g>
			<g>
				<g>
					<path fill="#F9D0B4" d="M208.489,103.934c-0.664,0-1.314,0.056-1.951,0.155c0,3.234,0,18.202,0,23.011
						c0,0.685-0.031,1.364-0.077,2.038c0.662,0.106,1.335,0.177,2.027,0.177c7.009,0,12.69-5.682,12.69-12.69
						C221.179,109.616,215.498,103.934,208.489,103.934z"/>
				</g>
			</g>
			<g>
				<g>
					<path fill="#F9D0B4" d="M145.748,127.099c0-3.149,0-16.749,0-23.011c-0.636-0.099-1.287-0.155-1.951-0.155
						c-7.009,0-12.69,5.682-12.69,12.69c0,7.009,5.682,12.69,12.69,12.69c0.692,0,1.365-0.07,2.027-0.177v-0.001
						C145.779,128.463,145.748,127.785,145.748,127.099z"/>
				</g>
			</g>
			<g>
				<g>
					<path fill="#F9D0B4" d="M238.481,214.963h-20.017v16.104h16.266c2.542,0,4.561-2.139,4.413-4.677L238.481,214.963z"/>
				</g>
			</g>
			<g>
				<g>
					<path fill="#F9D0B4" d="M113.806,214.963l-0.663,11.427c-0.147,2.538,1.871,4.677,4.413,4.677h16.708v-16.104H113.806z"/>
				</g>
			</g>
			<g>
				<g>
					<path d="M186.84,132.395c-1.058-0.887-2.633-0.748-3.522,0.309c-1.383,1.65-3.746,2.635-6.319,2.635
						c-2.574,0-4.937-0.985-6.319-2.635c-0.888-1.059-2.466-1.197-3.521-0.31c-1.059,0.887-1.197,2.463-0.311,3.522
						c2.321,2.77,6.116,4.423,10.151,4.423c4.034,0,7.829-1.653,10.151-4.422C188.036,134.859,187.897,133.282,186.84,132.395z"/>
				</g>
			</g>
			<g>
				<g>
					<circle cx="189.61" cy="118.232" r="3.879"/>
				</g>
			</g>
			<g>
				<g>
					<path d="M163.561,114.354c-2.142,0-3.879,1.737-3.879,3.879c0,2.142,1.737,3.879,3.879,3.879s3.879-1.736,3.879-3.879
						C167.44,116.09,165.703,114.354,163.561,114.354z"/>
				</g>
			</g>
			<g>
				<g>
					<path d="M218.464,197c-1.381,0-2.5,1.119-2.5,2.5v29.588c0,1.381,1.119,2.5,2.5,2.5s2.5-1.119,2.5-2.5V199.5
						C220.964,198.119,219.845,197,218.464,197z"/>
				</g>
			</g>
			<g>
				<g>
					<path d="M134.265,197c-1.381,0-2.5,1.119-2.5,2.5v29.588c0,1.381,1.119,2.5,2.5,2.5s2.5-1.119,2.5-2.5V199.5
						C136.765,198.119,135.646,197,134.265,197z"/>
				</g>
			</g>
			<g>
				<g>
					<g>
						<path d="M174.113,174.216l-12.237-12.238c-1.879-1.877-4.934-1.877-6.813,0l-5.478,5.477
							c-1.876,1.877-1.876,4.933,0.001,6.812l12.237,12.238c0.91,0.91,2.12,1.411,3.406,1.411c1.287,0,2.497-0.501,3.406-1.411
							l5.477-5.477c0.91-0.91,1.411-2.12,1.411-3.406C175.524,176.336,175.023,175.126,174.113,174.216z M165.23,182.841
							l-11.979-11.979l5.219-5.218l11.979,11.979L165.23,182.841z"/>
					</g>
				</g>
			</g>
			<g>
				<g>
					<g>
						<path d="M202.699,167.456l-5.476-5.477c-0.91-0.91-2.12-1.411-3.406-1.411c-1.287,0-2.497,0.501-3.406,1.411l-12.238,12.238
							l-0.001,0c-1.876,1.877-1.876,4.933,0.001,6.813l5.477,5.476c0.939,0.938,2.173,1.408,3.406,1.408s2.467-0.469,3.406-1.408
							l12.237-12.237c0.91-0.91,1.411-2.12,1.411-3.406C204.11,169.575,203.609,168.365,202.699,167.456z M187.056,182.841
							l-5.219-5.218l11.98-11.979l5.218,5.218L187.056,182.841z"/>
					</g>
				</g>
			</g>
			<g>
				<g>
					<path d="M193.601,162.744c-0.624-1.164-0.954-2.461-0.954-3.751v-4.444c0-1.381-1.119-2.5-2.5-2.5s-2.5,1.119-2.5,2.5v4.444
						c0,2.112,0.535,4.226,1.548,6.114c0.451,0.841,1.313,1.319,2.205,1.319c0.399,0,0.804-0.096,1.18-0.297
						C193.796,165.476,194.253,163.96,193.601,162.744z"/>
				</g>
			</g>
			<g>
				<g>
					<path d="M178.573,174.892h-5.16c-1.381,0-2.5,1.119-2.5,2.5s1.119,2.5,2.5,2.5h5.16c1.381,0,2.5-1.119,2.5-2.5
						S179.954,174.892,178.573,174.892z"/>
				</g>
			</g>
			<g>
				<g>
					<path d="M162.141,152.314c-1.381,0-2.5,1.119-2.5,2.5v4.178c0,1.276-0.313,2.55-0.903,3.685
						c-0.639,1.225-0.163,2.734,1.062,3.373c0.369,0.192,0.764,0.283,1.153,0.283c0.902,0,1.773-0.49,2.219-1.345
						c0.962-1.845,1.47-3.918,1.47-5.996v-4.178C164.641,153.434,163.521,152.314,162.141,152.314z"/>
				</g>
			</g>
			<g>
				<g>
					<path d="M241.64,226.245l-2.144-36.954c-0.354-6.368-4.749-11.693-10.934-13.25l-17.448-4.392
						c-2.619-0.659-5.243-1.527-7.798-2.581c-1.275-0.529-2.737,0.082-3.265,1.358c-0.526,1.277,0.082,2.738,1.358,3.264
						c2.777,1.146,5.632,2.09,8.483,2.807l17.448,4.392c4.052,1.02,6.93,4.508,7.162,8.685l2.144,36.959
						c0.031,0.534-0.154,1.042-0.521,1.43c-0.367,0.389-0.863,0.603-1.397,0.603H117.557c-0.534,0-1.03-0.214-1.397-0.603
						s-0.551-0.896-0.521-1.43l2.144-36.965c0.232-4.172,3.111-7.66,7.163-8.68l17.467-4.397c2.988-0.751,5.957-1.742,8.824-2.943
						c1.273-0.533,1.873-1.998,1.34-3.271c-0.534-1.274-2-1.875-3.271-1.34c-2.637,1.104-5.366,2.015-8.112,2.706l-17.468,4.397
						c-6.185,1.557-10.579,6.882-10.934,13.245l-2.143,36.959c-0.11,1.894,0.573,3.771,1.875,5.151
						c1.302,1.379,3.137,2.171,5.034,2.171h117.173c1.896,0,3.731-0.791,5.033-2.17C241.064,230.017,241.749,228.14,241.64,226.245z
						"/>
				</g>
			</g>
			<g>
				<g>
					<g>
						<path d="M209.033,99.497c-0.045-2.204-1.8-3.981-3.995-4.046c-11.954-0.35-18.081-5.129-20.16-7.167
							c-0.837-0.819-1.976-1.251-3.152-1.176c-1.168,0.072-2.257,0.641-2.987,1.559c-10.051,12.639-24.688,11.166-30.517,9.948
							c-1.22-0.256-2.484,0.049-3.456,0.838c-0.963,0.782-1.517,1.938-1.518,3.197V127.1c0,18.138,14.757,32.895,32.896,32.895
							s32.896-14.757,32.896-32.895v-27.076L209.033,99.497z M204.039,127.1c0,15.381-12.514,27.895-27.896,27.895
							s-27.896-12.514-27.896-27.895V103.71c6.194,1.1,22.433,2.367,33.816-11.211c3.338,3.004,10.167,7.379,21.975,7.918V127.1z"/>
					</g>
				</g>
			</g>
			<g>
				<g>
					<path d="M199.929,64.807c-2.773,0-5.52,0.596-8.06,1.737c-3.745-4.835-9.569-7.759-15.699-7.759h-8.916
						c-18.678,0-33.874,15.196-33.874,33.874v13.407c0,1.381,1.119,2.5,2.5,2.5s2.5-1.119,2.5-2.5V92.659
						c0-15.921,12.953-28.874,28.874-28.874h8.916c5.169,0,10.053,2.791,12.745,7.283c0.341,0.569,0.895,0.979,1.537,1.14
						c0.642,0.159,1.324,0.06,1.894-0.281c2.312-1.387,4.934-2.12,7.583-2.12c8.195,0,14.862,6.667,14.862,14.862v22.229
						c0,1.381,1.119,2.5,2.5,2.5s2.5-1.119,2.5-2.5V84.669C219.791,73.717,210.881,64.807,199.929,64.807z"/>
				</g>
			</g>
			<g>
				<g>
					<path d="M208.489,101.434c-0.425,0-0.843,0.019-1.258,0.055c-1.376,0.119-2.394,1.331-2.274,2.707s1.336,2.401,2.706,2.275
						c0.272-0.023,0.548-0.036,0.826-0.036c5.619,0,10.19,4.571,10.19,10.19s-4.571,10.19-10.19,10.19
						c-0.312,0-0.618-0.019-0.92-0.05c-1.378-0.138-2.603,0.856-2.744,2.229c-0.143,1.373,0.855,2.602,2.229,2.744
						c0.499,0.052,0.969,0.077,1.436,0.077c8.376,0,15.19-6.814,15.19-15.19S216.865,101.434,208.489,101.434z"/>
				</g>
			</g>
			<g>
				<g>
					<path d="M144.569,126.779c-0.254,0.023-0.512,0.036-0.771,0.036c-5.619,0-10.19-4.571-10.19-10.19s4.571-10.19,10.19-10.19
						c0.268,0,0.532,0.012,0.794,0.033c1.373,0.114,2.582-0.912,2.695-2.289c0.112-1.376-0.913-2.583-2.289-2.695
						c-0.396-0.032-0.796-0.05-1.2-0.05c-8.376,0-15.19,6.814-15.19,15.19s6.814,15.19,15.19,15.19c0.412,0,0.82-0.02,1.223-0.057
						c1.375-0.125,2.389-1.341,2.265-2.716C147.16,127.668,145.94,126.66,144.569,126.779z"/>
				</g>
			</g>
			<g>
				<g>
					<path d="M237.5,212.462h-18.202c-1.381,0-2.5,1.119-2.5,2.5s1.119,2.5,2.5,2.5H237.5c1.381,0,2.5-1.119,2.5-2.5
						S238.881,212.462,237.5,212.462z"/>
				</g>
			</g>
			<g>
				<g>
					<path d="M133.344,212.462h-18.868c-1.381,0-2.5,1.119-2.5,2.5s1.119,2.5,2.5,2.5h18.868c1.381,0,2.5-1.119,2.5-2.5
						S134.725,212.462,133.344,212.462z"/>
				</g>
			</g>
		</g>
	</g>
</g>
<g id="Layer_39">
</g>
<g id="Layer_40">
</g>
<g id="Layer_41">
</g>
<g id="Layer_42">
</g>
<g id="Layer_43">
</g>
<g id="Layer_44">
</g>
<g id="Layer_45">
</g>
<g id="Layer_46">
</g>
<g id="Layer_47">
</g>
<g id="Layer_48">
</g>
<g id="Layer_49">
</g>
<g id="Layer_50">
</g>
<g id="Layer_51">
</g>
<g id="Layer_52">
</g>
<g id="Layer_53">
</g>
<g id="Layer_54">
</g>
<g id="Layer_55">
</g>
<g id="Layer_56">
</g>
<g id="Layer_57">
</g>
<g id="Layer_58">
</g>
<g id="Layer_59">
</g>
<g id="Layer_60">
</g>
<g id="Layer_61">
</g>
<g id="Layer_62">
</g>
<g id="Layer_63">
</g>
<g id="Layer_64">
</g>
<g id="Layer_65">
</g>
<g id="Layer_66">
</g>
<g id="Layer_67">
</g>
<g id="Layer_68">
</g>
<g id="Layer_69">
</g>
<g id="Layer_70">
</g>
<g id="Layer_71">
</g>
<g id="Layer_72">
</g>
<g id="Layer_73">
</g>
<g id="Layer_74">
</g>
<g id="Layer_75">
</g>
<g id="Layer_76">
</g>
<g id="Layer_77">
</g>
<g id="Layer_78">
</g>
<g id="Layer_79">
</g>
<g id="Layer_80">
</g>
<g id="Layer_81">
</g>
<g id="Layer_82">
</g>
<g id="Layer_83">
</g>
<g id="Layer_84">
</g>
<g id="Layer_85">
</g>
<g id="Layer_86">
</g>
<g id="Layer_87">
</g>
<g id="Layer_88">
</g>
<g id="Layer_89">
</g>
<g id="Layer_90">
</g>
</svg>
