<svg xmlns="http://www.w3.org/2000/svg" width="128" height="128" viewBox="0 0 128 128">
  <title>ANGLE GRINDER</title>
  <g>
    <g>
      <path d="M37.875,52.75a7,7,0,0,1,7-7h38.25a7,7,0,0,1,7,7v4.91a34.062,34.062,0,1,0-52.25,0Z" fill="#e5e5e5"/>
      <path d="M44.875,45.75h38.25a7,7,0,0,1,7,7V80.2a5,5,0,0,1-5,5H42.875a5,5,0,0,1-5-5V52.75A7,7,0,0,1,44.875,45.75Z" fill="#57555c"/>
      <rect x="45.875" y="53.75" width="36.25" height="23.447" fill="#3c3a41"/>
      <path d="M51.094,85.2H76.906a0,0,0,0,1,0,0v35.05a6,6,0,0,1-6,6H57.094a6,6,0,0,1-6-6V85.2A0,0,0,0,1,51.094,85.2Z" fill="#6e77e5"/>
      <path d="M44.875,45.75h38.25a6.963,6.963,0,0,1,4.3,1.481,26.062,26.062,0,1,0-46.842,0A6.963,6.963,0,0,1,44.875,45.75Z" fill="#aeadb3"/>
      <path d="M20.5,60.25H37.875a0,0,0,0,1,0,0V70.7a0,0,0,0,1,0,0H20.5a3,3,0,0,1-3-3V63.25A3,3,0,0,1,20.5,60.25Z" fill="#fedb41"/>
      <rect x="60" y="93.816" width="8" height="23.813" fill="#485ad8"/>
    </g>
    <g>
      <path d="M82.125,52H45.875a1.751,1.751,0,0,0-1.75,1.75V77.2a1.75,1.75,0,0,0,1.75,1.75h36.25a1.75,1.75,0,0,0,1.75-1.75V53.75A1.751,1.751,0,0,0,82.125,52Zm-1.75,23.447H47.625V55.5h32.75Z"/>
      <path d="M51.094,107.472a1.75,1.75,0,0,0,1.75-1.75V101.9a1.75,1.75,0,0,0-3.5,0v3.819A1.749,1.749,0,0,0,51.094,107.472Z"/>
      <path d="M99.813,35.81A35.813,35.813,0,1,0,36.125,58.274V58.5H20.5a4.756,4.756,0,0,0-4.75,4.75V67.7a4.756,4.756,0,0,0,4.75,4.75H36.125V80.2a6.758,6.758,0,0,0,6.75,6.75h6.469v6.178a1.75,1.75,0,0,0,3.5,0V86.947H75.156v33.3a4.255,4.255,0,0,1-4.25,4.25H57.094a4.255,4.255,0,0,1-4.25-4.25V114.5a1.75,1.75,0,0,0-3.5,0v5.747a7.759,7.759,0,0,0,7.75,7.75H70.906a7.759,7.759,0,0,0,7.75-7.75v-33.3h6.469a6.758,6.758,0,0,0,6.75-6.75V58.274A35.84,35.84,0,0,0,99.813,35.81ZM64,3.5a32.306,32.306,0,0,1,27.856,48.68,8.821,8.821,0,0,0-2.321-5.367,27.738,27.738,0,0,0-2.241-26.183,1.75,1.75,0,0,0-2.929,1.915,24.277,24.277,0,0,1,2.252,22.185A9.013,9.013,0,0,0,83.125,44H44.875a9.013,9.013,0,0,0-3.492.727,24.013,24.013,0,0,1-1.7-8.917A24.3,24.3,0,0,1,77.873,15.855a1.751,1.751,0,0,0,2-2.871A27.8,27.8,0,0,0,38.465,46.81a8.821,8.821,0,0,0-2.321,5.367A32.307,32.307,0,0,1,64,3.5ZM20.5,68.947a1.25,1.25,0,0,1-1.25-1.25V63.25A1.25,1.25,0,0,1,20.5,62H36.125v6.947ZM88.375,80.2a3.254,3.254,0,0,1-3.25,3.25H42.875a3.254,3.254,0,0,1-3.25-3.25V52.75a5.3,5.3,0,0,1,5.25-5.25h38.25a5.3,5.3,0,0,1,5.25,5.25Z"/>
      <path d="M68,119.378a1.75,1.75,0,0,0,1.75-1.75V93.816A1.751,1.751,0,0,0,68,92.066H60a1.751,1.751,0,0,0-1.75,1.75v23.812a1.75,1.75,0,0,0,1.75,1.75ZM61.75,95.566h4.5v20.312h-4.5Z"/>
    </g>
  </g>
</svg>
