<?xml version="1.0" encoding="utf-8"?>
<!-- Generator: Adobe Illustrator 16.0.0, SVG Export Plug-In . SVG Version: 6.00 Build 0)  -->
<!DOCTYPE svg PUBLIC "-//W3C//DTD SVG 1.0//EN" "http://www.w3.org/TR/2001/REC-SVG-20010904/DTD/svg10.dtd">
<svg version="1.0" id="Layer_1" xmlns="http://www.w3.org/2000/svg" xmlns:xlink="http://www.w3.org/1999/xlink" x="0px" y="0px"
	 width="100px" height="100px" viewBox="0 0 100 100" enable-background="new 0 0 100 100" xml:space="preserve">
<path fill="#EC407A" d="M80,26.666c0,0,4.033-6.625,4.201-6.603l-7.13-7.133C75.261,11.121,72.761,10,70,10c-5.526,0-10,4.479-10,10
	v7.239c0,4.604,3.347,10.014,6.667,13.335l8.047,8.046c1.257,1.26,1.953,2.937,1.953,4.713C76.667,57.01,73.673,60,70,60
	c0-13.805-11.126-25.003-24.856-25c-6.861,0-13.072,2.8-17.571,7.326L10,60v6.666h60c7.363,0,13.333-5.97,13.333-13.333
	c0-3.682-1.496-7.015-3.905-9.425l-8.047-8.049c-2.591-2.593-4.714-6.472-4.714-8.62v-0.573H80z M19.4,60l12.898-12.975
	c3.435-3.457,7.999-5.359,12.849-5.359h0.003c4.85,0,9.407,1.902,12.839,5.355c3.443,3.468,5.344,8.074,5.344,12.979H19.4z
	 M70,16.666c1.198,0,1.993,0.613,2.357,0.978L74.713,20h-8.046C66.667,18.165,68.158,16.666,70,16.666z"/>
<polygon fill="#F38EB0" points="66.667,76.666 56.667,76.666 56.667,66.666 50,66.666 50,76.666 36.095,76.666 46.095,66.666 
	36.667,66.666 26.667,76.666 26.667,83.333 50,83.333 50,90 56.667,90 56.667,83.333 66.667,83.333 "/>
<path fill="#FBE3EB" d="M45.15,41.666h-0.003c-4.85,0-9.414,1.902-12.849,5.359L19.4,60h43.933c0-4.904-1.9-9.511-5.344-12.979
	C54.558,43.568,50,41.666,45.15,41.666z"/>
<rect x="50" y="66.664" fill="#AD1F59" width="6.667" height="4.002"/>
<rect x="50" y="83.333" fill="#AD1F59" width="6.667" height="4.005"/>
<polygon fill="#F38EB0" points="37.069,60 43.734,53.333 36.664,53.333 29.999,60 "/>
<polygon fill="#AD1F59" points="36.667,66.666 32.667,70.666 42.095,70.666 46.095,66.666 "/>
<path fill="#FBE3EB" d="M66.667,20h8.046l-2.355-2.356c-0.364-0.364-1.159-0.978-2.357-0.978C68.158,16.666,66.667,18.165,66.667,20
	z"/>
<path fill="#F38EB0" d="M84.201,20.063C84.033,20.043,80,26.666,80,26.666l10,6.667v-6.667C90,23.281,87.471,20.49,84.201,20.063z"
	/>
</svg>
