<?xml version="1.0" encoding="utf-8"?>
<!-- Generator: Adobe Illustrator 16.0.0, SVG Export Plug-In . SVG Version: 6.00 Build 0)  -->
<!DOCTYPE svg PUBLIC "-//W3C//DTD SVG 1.0//EN" "http://www.w3.org/TR/2001/REC-SVG-20010904/DTD/svg10.dtd">
<svg version="1.0" id="Layer_1" xmlns="http://www.w3.org/2000/svg" xmlns:xlink="http://www.w3.org/1999/xlink" x="0px" y="0px"
	 width="100px" height="100px" viewBox="0 0 100 100" enable-background="new 0 0 100 100" xml:space="preserve">
<path fill="#FFC00E" d="M20,20.001c0-0.022,0.003-0.044,0.004-0.067c-2.775,2.124-6.237,3.4-10.004,3.4v3.333
	c5.521,2.226,12.767,3.334,20,3.334C24.479,30.001,20,25.523,20,20.001z"/>
<path fill="#F68E1E" d="M30,30.001c-5.521,0-10-4.478-10-10c0-0.024,0.004-0.046,0.004-0.07c-1.167,0.89-2.446,1.64-3.828,2.198
	c0.41,2.673,1.572,5.101,3.273,7.053C22.829,29.729,26.416,30.001,30,30.001z"/>
<path fill="#4CAE4E" d="M51.191,76.666c-9.857,0-17.859-7.461-17.859-16.667c0-9.205,8.002-16.666,17.859-16.666
	c6.276,0,11.959,1.914,16.075,5c4.432,3.333,10.253,5,16.066,5C83.333,66.224,68.946,76.666,51.191,76.666z"/>
<path fill="#8D6F64" d="M81.35,61.42c-1.626,3.197-4.188,6.063-7.446,8.425c2.896-0.273,5.764-0.836,8.525-1.722
	c-3.32,8.621-15.3,15.21-29.095,15.21c-16.258,0-30.001-9.161-30.001-20c0-4.648,2.148-9.076,6.048-12.467
	c3.086-2.689,5.515-5.807,7.285-9.191v8.635c1.715-2.232,4.003-4.055,6.666-5.276V23.334c0-7.362-5.963-13.333-13.332-13.333
	c-5.521,0-10,4.48-10,10c0,5.522,4.479,10,10,10c1.158,0,2.246-0.233,3.274-0.591c-0.293,5.97-3.027,11.868-8.269,16.423
	c-5.149,4.479-8.339,10.671-8.339,17.5c0,14.727,16.419,26.666,36.667,26.666C73.587,89.999,90,78.06,90,63.333v-6.667
	C87.431,58.733,84.487,60.313,81.35,61.42z"/>
<path fill="#EEEAE8" d="M82.429,68.123c-2.762,0.886-5.629,1.448-8.525,1.722c-5.814,4.215-13.843,6.821-22.712,6.821
	c-9.857,0-17.859-7.461-17.859-16.667c0-3.615,1.238-6.958,3.334-9.689v-8.635c-1.771,3.385-4.199,6.502-7.285,9.191
	c-3.899,3.391-6.048,7.818-6.048,12.467c0,10.839,13.743,20,30.001,20C67.129,83.333,79.108,76.744,82.429,68.123z"/>
<path fill="#6D4D41" d="M81.362,61.396c-1.623,3.201-4.185,6.072-7.442,8.437c2.492-0.237,4.961-0.69,7.361-1.379
	c2.481-2.817,4.291-5.999,5.255-9.416C84.9,59.988,83.16,60.762,81.362,61.396z"/>
<path fill="#6D4D41" d="M43.332,45.033V40.72c-2.468,0.904-4.722,2.216-6.666,3.854v5.736
	C38.381,48.077,40.669,46.255,43.332,45.033z"/>
<path fill="#F1F7E9" d="M51.191,69.999c-6.172,0-11.191-4.484-11.191-10c0-5.515,5.02-10,11.191-10c4.564,0,8.966,1.334,12.07,3.666
	c3.386,2.545,7.422,4.375,11.797,5.396C71.398,65.371,61.946,69.999,51.191,69.999z"/>
<path fill="#EEEAE8" d="M30,23.334c-1.836,0-3.334-1.496-3.334-3.333c0-1.835,1.498-3.334,3.334-3.334
	c2.962,0,5.475,1.938,6.348,4.611l-5.268,1.836C30.65,23.264,30.299,23.334,30,23.334z"/>
</svg>
