<?xml version="1.0" encoding="utf-8"?>
<!-- Generator: Adobe Illustrator 16.0.0, SVG Export Plug-In . SVG Version: 6.00 Build 0)  -->
<!DOCTYPE svg PUBLIC "-//W3C//DTD SVG 1.0//EN" "http://www.w3.org/TR/2001/REC-SVG-20010904/DTD/svg10.dtd">
<svg version="1.0" id="Layer_1" xmlns="http://www.w3.org/2000/svg" xmlns:xlink="http://www.w3.org/1999/xlink" x="0px" y="0px"
	 width="100px" height="100px" viewBox="0 0 100 100" enable-background="new 0 0 100 100" xml:space="preserve">
<path fill="#FFC00E" d="M50.026,72.684V79.4c-3.354-0.545-6.641-1.462-9.818-2.836c-1.533-0.67-3.001-1.445-4.43-2.28l6.803-3.963
	c-2.383-1.06-4.595-2.357-6.629-3.854l-12.229,7.134c4.05,3.739,8.679,6.844,13.832,9.077c6.104,2.649,12.542,3.988,19.137,3.988
	V73.329C54.479,73.333,52.248,73.121,50.026,72.684z"/>
<path fill="#FFC00E" d="M42.59,29.686l-6.815-3.975c1.433-0.827,2.9-1.602,4.434-2.271c5.264-2.279,10.811-3.438,16.484-3.438
	c3.347,0,6.641,0.456,9.864,1.257l-2.888,6.134c2.159,0.449,4.308,1.117,6.423,2.005l5.689-12.077
	c-6.094-2.644-12.513-3.985-19.089-3.985c-6.592,0-13.03,1.342-19.134,3.992c-5.156,2.232-9.785,5.331-13.831,9.074l12.247,7.143
	C38.049,32.014,40.265,30.718,42.59,29.686z"/>
<path fill="#00ABC0" d="M30.732,61.799c3.337,3.618,7.405,6.602,12.126,8.652c9.206,3.99,19.082,3.698,27.616-0.007
	C79.003,66.746,86.19,59.636,90,50.001c-3.536-8.933-10.318-16.466-19.525-20.449c-9.198-3.99-19.078-3.696-27.61,0.007
	c-4.524,1.959-8.652,4.908-12.115,8.652l-14.082-8.21L10,33.334v33.332l6.667,3.335L30.732,61.799z"/>
<path fill="#F68E1E" d="M35.952,66.467l-3.732,2.177c1.94,1.562,4.01,2.934,6.202,4.101l4.159-2.423
	C40.198,69.262,37.986,67.964,35.952,66.467z"/>
<path fill="#F68E1E" d="M50.026,72.684v4.063c2.18,0.383,4.39,0.588,6.619,0.588c0.016,0,0.031-0.002,0.047-0.002v-4.003
	C54.479,73.333,52.248,73.121,50.026,72.684z"/>
<path fill="#F68E1E" d="M42.59,29.686l-4.157-2.424c-2.182,1.163-4.249,2.535-6.194,4.104l3.735,2.178
	C38.049,32.014,40.265,30.718,42.59,29.686z"/>
<path fill="#F68E1E" d="M70.092,29.396l1.707-3.622c-2.086-0.887-4.219-1.58-6.387-2.087l-1.743,3.704
	C65.828,27.841,67.977,28.509,70.092,29.396z"/>
<path fill="#E0F2F7" d="M67.825,35.666c-3.567-1.55-7.312-2.332-11.133-2.332c-3.838,0-7.597,0.789-11.178,2.338
	c-5.397,2.344-9.896,6.243-13.105,11.229l-15.742-9.186V62.28l15.742-9.18c3.209,4.987,7.708,8.894,13.105,11.231
	c3.567,1.549,7.311,2.334,11.126,2.334c3.841,0,7.604-0.785,11.185-2.342c6.478-2.806,11.686-7.838,14.889-14.323
	C79.505,43.511,74.297,38.472,67.825,35.666z"/>
<path fill="#37474F" d="M75,46.667c0,1.844-1.49,3.334-3.333,3.334c-1.836,0-3.334-1.49-3.334-3.334
	c0-1.842,1.498-3.333,3.334-3.333C73.51,43.334,75,44.825,75,46.667z"/>
<path fill="#37474F" d="M68.68,63.931c-3.401-6.101-5.347-13.117-5.347-20.597h-6.666c0,8.058,1.947,15.815,5.596,22.758
	c1.892-0.391,3.75-0.98,5.563-1.768C68.114,64.199,68.396,64.064,68.68,63.931z"/>
<path fill="#FFF8E1" d="M35.774,25.711l6.815,3.975c0.093-0.041,0.182-0.087,0.274-0.127c6.456-2.802,13.684-3.647,20.805-2.167
	l2.888-6.134c-3.224-0.801-6.518-1.257-9.864-1.257c-5.674,0-11.221,1.159-16.484,3.438C38.675,24.109,37.207,24.884,35.774,25.711z
	"/>
<path fill="#FFF8E1" d="M35.778,74.284c1.429,0.835,2.896,1.61,4.43,2.28c3.178,1.374,6.465,2.291,9.818,2.836v-6.717
	c-2.411-0.475-4.812-1.211-7.168-2.232c-0.095-0.042-0.184-0.089-0.277-0.13L35.778,74.284z"/>
</svg>
