<?xml version="1.0" encoding="utf-8"?>
<!-- Generator: Adobe Illustrator 16.0.0, SVG Export Plug-In . SVG Version: 6.00 Build 0)  -->
<!DOCTYPE svg PUBLIC "-//W3C//DTD SVG 1.0//EN" "http://www.w3.org/TR/2001/REC-SVG-20010904/DTD/svg10.dtd">
<svg version="1.0" id="Layer_1" xmlns="http://www.w3.org/2000/svg" xmlns:xlink="http://www.w3.org/1999/xlink" x="0px" y="0px"
	 width="100px" height="100px" viewBox="0 0 100 100" enable-background="new 0 0 100 100" xml:space="preserve">
<path fill="#E8E9F5" d="M80.661,65.427c-1.625,1.749-3.427,3.331-5.377,4.72c0,0,0-0.001,0.002-0.002l0.592,1.631
	c2.077,5.712,5.677,8.227,6.692,8.222c0.521-0.55,1.654-4.788-0.43-10.505L80.661,65.427z"/>
<path fill="#3F4DA0" d="M20,41.667c0,13.754,7.956,25.623,19.499,31.344l0.391,2.218c1.595,9.059,7.304,15.637,12.74,14.678
	c4.506-0.794,7.37-6.536,7.325-13.63c16.979-2.412,30.044-16.97,30.044-34.61v-10c0-11.963-9.693-21.666-21.665-21.666
	c-11.967,0-21.667,9.703-21.667,21.666v10c0,4.6-3.73,8.334-8.333,8.334C33.73,50,30,46.267,30,41.667H20z"/>
<path fill="#3F4DA0" d="M85.406,58.974c-1.334,2.333-2.929,4.497-4.745,6.453l1.479,4.065c2.084,5.717,0.951,9.955,0.43,10.505
	c-1.016,0.005-4.615-2.51-6.692-8.222l-0.592-1.631c-1.833,1.304-3.795,2.437-5.865,3.373l0.193,0.535
	c3.146,8.643,9.909,14.131,15.098,12.239c5.183-1.888,6.843-10.436,3.692-19.078L85.406,58.974z"/>
<path fill="#2D2F78" d="M75.286,70.145c-1.833,1.304-3.795,2.437-5.865,3.373l0.193,0.535c0.4,1.098,0.859,2.146,1.365,3.133
	c2.043-0.925,3.988-2.018,5.82-3.262c-0.328-0.661-0.639-1.373-0.922-2.148L75.286,70.145z"/>
<path fill="#2D2F78" d="M80.661,65.427l1.479,4.065c0.008,0.021,0.013,0.039,0.021,0.059c1.839-1.793,3.496-3.767,4.954-5.883
	l-1.708-4.694C84.072,61.307,82.478,63.471,80.661,65.427z"/>
<path fill="#C4C9E5" d="M30,41.667v-8.333c0-5.52,4.479-10,10-10v-6.666c-6.634,0-12.318,3.906-15,9.521
	c-2.679-5.619-8.362-9.521-15-9.521v6.666c5.524,0,10,4.48,10,10v8.333H30z"/>
<path fill="#E8E9F5" d="M45.429,68.266c-7.116-2.571-12.93-7.862-16.103-14.674c2.516,1.904,5.615,3.074,9.007,3.074
	c8.287,0,14.999-6.717,14.999-15v-10c0-8.281,6.712-15,15.001-15c8.287,0,15,6.718,15,15v10c0,14.212-10.477,25.948-24.121,27.989
	l-1.947-11.028l-6.562,1.159l2.311,13.128c1.061,5.989-0.794,9.967-1.4,10.419c-1.002-0.169-4.101-3.273-5.162-9.261L45.429,68.266z
	"/>
<ellipse fill="#37474F" cx="59.166" cy="35.001" rx="2.5" ry="4.166"/>
<path fill="#A0A7D4" d="M63.332,43.333v25.381c2.37-0.728,4.607-1.756,6.667-3.042V43.333c0-5.514,4.485-10,9.999-10
	c1.171,0,2.291,0.213,3.335,0.583v-2.25c0-1.675-0.286-3.282-0.794-4.786c-0.83-0.127-1.674-0.214-2.541-0.214
	C70.794,26.667,63.332,34.128,63.332,43.333z"/>
<path fill="#E8E9F5" d="M66.414,67.556v0.015c0.075-0.033,0.147-0.073,0.223-0.106C66.563,67.495,66.488,67.523,66.414,67.556z"/>
<path fill="#E8E9F5" d="M68.361,66.617c-0.271,0.146-0.552,0.275-0.828,0.411C67.81,66.893,68.09,66.763,68.361,66.617z"/>
<path fill="#E8E9F5" d="M69.999,43.333v22.339c-0.143,0.09-0.293,0.168-0.437,0.254c8.244-4.945,13.771-13.943,13.771-24.259v-7.75
	c-1.044-0.37-2.164-0.583-3.335-0.583C74.484,33.333,69.999,37.819,69.999,43.333z"/>
</svg>
