<?xml version="1.0" encoding="utf-8"?>
<!-- Generator: Adobe Illustrator 16.0.0, SVG Export Plug-In . SVG Version: 6.00 Build 0)  -->
<!DOCTYPE svg PUBLIC "-//W3C//DTD SVG 1.0//EN" "http://www.w3.org/TR/2001/REC-SVG-20010904/DTD/svg10.dtd">
<svg version="1.0" id="Layer_1" xmlns="http://www.w3.org/2000/svg" xmlns:xlink="http://www.w3.org/1999/xlink" x="0px" y="0px"
	 width="100px" height="100px" viewBox="0 0 100 100" enable-background="new 0 0 100 100" xml:space="preserve">
<path fill="#455A64" d="M45,53.334v3.332c0,3.68-2.988,6.667-6.667,6.667h-1.667l2.917,23.333h6.719l-2.253-18
	c4.492-2.149,7.617-6.692,7.617-12v-3.332H45z"/>
<path fill="#CFD8DB" d="M68.522,26.776L53.334,36.9v3.101h19.999v6.666H39.434c-3.672,0-6.667,2.988-6.667,6.667
	c0,5.431-2.181,10.352-5.703,13.959h10.098l-0.495-3.96h1.667c3.679,0,6.667-2.987,6.667-6.667v-3.332h6.666v3.332
	c0,4.361-2.11,8.202-5.354,10.627h11.266l-0.911-7.292h10c9.2,0,16.667-7.461,16.667-16.667
	C83.333,34.758,76.849,27.701,68.522,26.776z"/>
<polygon fill="#FFC00E" points="63.077,22.394 54.024,13.334 51.666,15.691 58.191,25.65 "/>
<polygon fill="#F68E1E" points="63.077,22.394 60.194,19.509 56.001,22.305 58.193,25.65 "/>
<path fill="#455A64" d="M90,43.334c0-12.889-10.456-23.333-23.334-23.333l-20,13.333v6.667h-7.232c-0.157,0-0.311,0.019-0.467,0.023
	C28.448,40.268,18.013,44.398,10,52.423l4.714,4.708c3.496-3.501,7.594-6.176,12.055-7.948c-0.43,1.308-0.668,2.701-0.668,4.151
	c0,4.694-2.436,8.803-6.101,11.179l2.767,22.153h6.719l-2.422-19.373c3.522-3.607,5.703-8.528,5.703-13.959
	c0-3.514,2.735-6.392,6.181-6.643c0.338-0.009,0.675-0.024,1.014-0.024h33.372v-6.666H53.334V36.9l15.188-10.124
	c8.326,0.925,14.811,7.981,14.811,16.558c0,9.206-7.467,16.667-16.667,16.667h-10l3.335,26.665h6.719l-2.501-20h18.327l-3.334,6.667
	h-9.211V80h13.332L90,66.666v-6.665h-7.012C87.313,55.767,90,49.866,90,43.334z"/>
<path fill="#263238" d="M66.666,66.666h14.221c2.864-1.75,5.378-4.017,7.422-6.665h-5.32C78.778,64.122,73.019,66.666,66.666,66.666
	z"/>
<path fill="#263238" d="M26.769,49.183c-0.43,1.308-0.668,2.701-0.668,4.151c0,0.176-0.011,0.35-0.017,0.523
	c2.211-1.078,4.545-1.891,6.963-2.426c0.768-2.571,3.046-4.494,5.796-4.737C34.646,46.822,30.574,47.67,26.769,49.183z"/>
</svg>
