<?xml version="1.0" encoding="utf-8"?>
<!-- Generator: Adobe Illustrator 16.0.0, SVG Export Plug-In . SVG Version: 6.00 Build 0)  -->
<!DOCTYPE svg PUBLIC "-//W3C//DTD SVG 1.0//EN" "http://www.w3.org/TR/2001/REC-SVG-20010904/DTD/svg10.dtd">
<svg version="1.0" id="Layer_1" xmlns="http://www.w3.org/2000/svg" xmlns:xlink="http://www.w3.org/1999/xlink" x="0px" y="0px"
	 width="100px" height="100px" viewBox="0 0 100 100" enable-background="new 0 0 100 100" xml:space="preserve">
<path fill="#C4C9E5" d="M20,50c0-5.52-4.476-10-10-10v-6.667c5.479,0,10.296,2.68,13.333,6.759
	c3.041-4.079,7.858-6.759,13.334-6.759V40c-5.521,0-10,4.48-10,10H20z"/>
<path fill="#3D82C3" d="M90,81.329c-6.667-2.762-13.815-2.558-20,0c-6.178,2.552-13.333,2.762-20,0c-6.66-2.762-13.815-2.558-20,0
	c-6.179,2.552-13.333,2.762-20,0v7.07c7.383,2.377,15.286,2.091,22.549-0.91c4.808-1.986,10.107-1.993,14.899,0
	c8.093,3.353,17.005,3.345,25.097,0c4.817-1.986,10.104-1.986,14.909,0c0.84,0.345,1.692,0.637,2.546,0.91V81.329z"/>
<path fill="#BDBCBC" d="M86.667,16.666c-9.2,0-16.667,7.462-16.667,16.667h-6.667c0-9.2-7.461-16.667-16.666-16.667V10
	c8.502,0,15.924,4.566,20,11.364C70.748,14.564,78.17,10,86.667,10V16.666z"/>
<path fill="#3F4DA0" d="M66.667,37.711c-6.427,0-12.259,2.62-16.498,6.836l-17.813,17.81c-0.602,0.603-1.436,0.977-2.356,0.977
	c-1.839,0-3.333-1.494-3.333-3.333V50H20v10c0,5.521,4.479,10,10,10c2.669,0,5.176-1.039,7.07-2.93l17.8-17.796
	c3.177-3.158,7.362-4.896,11.797-4.896c9.192,0,16.666,7.472,16.666,16.664v5.178c-4.588-0.592-9.178,0.059-13.333,1.775
	c-6.178,2.554-13.333,2.761-20,0v7.089c7.388,2.379,15.295,2.069,22.545-0.93c4.817-1.984,10.104-1.984,14.909,0
	c0.84,0.346,1.692,0.64,2.546,0.911V61.042C90,48.164,79.55,37.711,66.667,37.711z"/>
<path fill="#E8E9F5" d="M70,67.995c4.155-1.717,8.745-2.367,13.333-1.775v-5.178c0-9.191-7.474-16.664-16.666-16.664
	c-4.435,0-8.62,1.738-11.797,4.896L38.06,66.081c3.953-0.298,8.031,0.294,11.94,1.914C56.667,70.756,63.822,70.549,70,67.995z"/>
<path fill="#37474F" d="M76.667,59.166c0,1.383-1.114,2.5-2.5,2.5c-1.381,0-2.5-1.117-2.5-2.5s1.119-2.5,2.5-2.5
	C75.553,56.666,76.667,57.783,76.667,59.166z"/>
</svg>
