<?xml version="1.0" encoding="utf-8"?>
<!-- Generator: Adobe Illustrator 16.0.0, SVG Export Plug-In . SVG Version: 6.00 Build 0)  -->
<!DOCTYPE svg PUBLIC "-//W3C//DTD SVG 1.0//EN" "http://www.w3.org/TR/2001/REC-SVG-20010904/DTD/svg10.dtd">
<svg version="1.0" id="Layer_1" xmlns="http://www.w3.org/2000/svg" xmlns:xlink="http://www.w3.org/1999/xlink" x="0px" y="0px"
	 width="100px" height="100px" viewBox="0 0 100 100" enable-background="new 0 0 100 100" xml:space="preserve">
<path fill="#EEEAE8" d="M55.963,34.767L17.159,50.632l0.592,2.363c0.332,0.338,1.217,0.886,2.123,0.964l36.792,3.275v13.348
	c3.881,1.374,6.668,5.068,6.668,9.418c0,5.521-4.48,10-10,10h29.999c0-25.389-8.867-49.4-25.149-68.554L55.963,34.767z"/>
<path fill="#8D6F64" d="M50.001,73.982V63.333L19.268,60.6c-3.652-0.334-7.207-2.871-7.9-5.651
	c-0.693-2.773-1.263-5.045-1.263-5.045c-0.446-1.785,0.576-3.816,2.269-4.52L50.001,30l3.333-20h3.332
	C78.896,32.078,90,61.049,90,90h-6.667c0-25.389-8.867-49.4-25.149-68.554l-2.221,13.32L17.159,50.632l0.592,2.363
	c0.332,0.338,1.217,0.886,2.123,0.964l36.792,3.275v17.915L50.001,73.982z"/>
<circle fill="#37474F" cx="56.667" cy="43.333" r="3.333"/>
<path fill="#FFC00E" d="M63.334,80c0,5.521-4.48,10-10,10c-5.524,0-10-4.479-10-10c0-5.521,4.476-10,10-10
	C58.854,70,63.334,74.479,63.334,80z"/>
<path fill="#37474F" d="M53.334,70c3.493,0,6.565,1.797,8.354,4.514l26.144-6.535c-0.433-2.179-0.933-4.344-1.494-6.496
	l-34.676,8.669C52.206,70.06,52.763,70,53.334,70z"/>
<path fill="#FFF8E1" d="M56.666,80c0,1.837-1.49,3.333-3.332,3.333c-1.84,0-3.333-1.496-3.333-3.333
	c0-1.843,1.493-3.334,3.333-3.334C55.176,76.666,56.666,78.157,56.666,80z"/>
</svg>
