<?xml version="1.0" encoding="utf-8"?>
<!-- Generator: Adobe Illustrator 16.0.0, SVG Export Plug-In . SVG Version: 6.00 Build 0)  -->
<!DOCTYPE svg PUBLIC "-//W3C//DTD SVG 1.0//EN" "http://www.w3.org/TR/2001/REC-SVG-20010904/DTD/svg10.dtd">
<svg version="1.0" id="Layer_1" xmlns="http://www.w3.org/2000/svg" xmlns:xlink="http://www.w3.org/1999/xlink" x="0px" y="0px"
	 width="100px" height="100px" viewBox="0 0 100 100" enable-background="new 0 0 100 100" xml:space="preserve">
<path fill="#37474F" d="M82.765,33.732l3.823-3.822c4.544-4.547,4.551-11.933-0.006-16.49c-4.559-4.557-11.939-4.557-16.496-0.007
	l-5.863,5.866c-4.42-1.682-9.211-2.611-14.222-2.611c-5.01,0-9.8,0.929-14.219,2.612l-5.862-5.867
	c-4.561-4.55-11.944-4.55-16.501,0.007c-4.557,4.557-4.55,11.943-0.003,16.49l3.823,3.823C12.682,40.227,10,48.132,10,56.665
	c0,10.734,9.537,19.963,23.249,24.194c4.241,5.628,10.175,9.14,16.751,9.14c6.575,0,12.505-3.512,16.751-9.14
	C80.469,76.631,90,67.403,90,56.665C90,48.132,87.319,40.227,82.765,33.732z"/>
<path fill="#CFD8DB" d="M50,83.332c-4.216,0-8.275-2.303-11.426-6.487l-1.299-1.722l-2.061-0.635
	c-11.267-3.477-18.547-10.472-18.547-17.823c0-18.376,14.954-33.332,33.333-33.332c18.379,0,33.333,14.956,33.333,33.332
	c0,7.355-7.278,14.351-18.54,17.823l-2.065,0.635l-1.295,1.722C58.275,81.029,54.219,83.332,50,83.332z"/>
<path fill="#37474F" d="M70.177,46.492c-4.977-4.977-11.706-6.321-15.021-3c-3.32,3.313-1.972,10.042,3.001,15.018
	c4.981,4.979,11.707,6.325,15.021,3.005C76.504,58.196,75.156,51.466,70.177,46.492z"/>
<path fill="#37474F" d="M44.847,43.491c-3.317-3.32-10.045-1.977-15.021,3c-4.975,4.974-6.323,11.702-3.002,15.019
	c3.317,3.32,10.045,1.977,15.019-3.002C46.822,53.533,48.164,46.804,44.847,43.491z"/>
<path fill="#212120" d="M65.001,50c0,1.842-1.492,3.333-3.335,3.333c-1.834,0-3.332-1.491-3.332-3.333
	c0-1.842,1.498-3.333,3.332-3.333C63.509,46.667,65.001,48.158,65.001,50z"/>
<path fill="#212120" d="M41.667,50c0,1.842-1.491,3.333-3.333,3.333C36.497,53.333,35,51.842,35,50c0-1.842,1.496-3.333,3.333-3.333
	C40.176,46.667,41.667,48.158,41.667,50z"/>
<path fill="#607D8B" d="M46.337,64.821c-3.023,0-3.912,1.902-1.976,4.222l2.123,2.549c1.935,2.322,5.101,2.322,7.039,0l2.123-2.549
	c1.934-2.319,1.048-4.222-1.979-4.222H46.337z"/>
<path fill="#263238" d="M35.782,19.279l-3.067-3.069c-7.358,3.156-13.682,8.265-18.331,14.667l2.854,2.855
	C21.8,27.229,28.243,22.148,35.782,19.279z"/>
<path fill="#263238" d="M82.764,33.732l2.854-2.853c-4.649-6.403-10.973-11.513-18.33-14.668l-3.067,3.068
	C71.761,22.147,78.203,27.229,82.764,33.732z"/>
</svg>
