<?xml version="1.0" encoding="utf-8"?>
<!-- Generator: Adobe Illustrator 16.0.0, SVG Export Plug-In . SVG Version: 6.00 Build 0)  -->
<!DOCTYPE svg PUBLIC "-//W3C//DTD SVG 1.0//EN" "http://www.w3.org/TR/2001/REC-SVG-20010904/DTD/svg10.dtd">
<svg version="1.0" id="Layer_1" xmlns="http://www.w3.org/2000/svg" xmlns:xlink="http://www.w3.org/1999/xlink" x="0px" y="0px"
	 width="100px" height="100px" viewBox="0 0 100 100" enable-background="new 0 0 100 100" xml:space="preserve">
<path fill="#C4C9E5" d="M63.334,30h-3.333c-7.366,0-13.334,5.97-13.334,13.333h-6.666c0-6.959,3.558-13.085,8.954-16.667
	c-5.394-3.581-8.951-9.7-8.951-16.667h6.666c0,7.371,5.971,13.333,13.331,13.333h3.333V30z"/>
<path fill="#7A85C1" d="M40.406,39.333c-0.263,1.294-0.405,2.631-0.405,4h6.666c0-1.393,0.216-2.736,0.612-4H40.406z"/>
<path fill="#3F4DA0" d="M63.334,23.333V30C67.016,30,70,32.988,70,36.667c0,3.685-2.984,6.667-6.666,6.667H10
	c0,17.286,13.157,31.491,30.001,33.165V90c8.7,0,16.087-5.566,18.838-13.334h4.495C78.061,76.666,90,64.727,90,50
	C90,35.273,78.061,23.333,63.334,23.333z"/>
<path fill="#E8E9F5" d="M27.809,50H17.543c2.691,10.449,11.543,18.406,22.458,19.773v-7.582C34.318,60.184,29.817,55.682,27.809,50z
	"/>
<path fill="#E8E9F5" d="M76.495,34.967c0.075,0.566,0.173,1.121,0.173,1.7C76.668,44.03,70.697,50,63.334,50H35.132
	c2.306,3.982,6.602,6.666,11.535,6.666v24.818c3.969-2.311,6.667-6.563,6.667-11.484h10c11.045,0,20-8.951,20-20
	C83.334,44.004,80.678,38.633,76.495,34.967z"/>
</svg>
