<?xml version="1.0" encoding="utf-8"?>
<!-- Generator: Adobe Illustrator 16.0.0, SVG Export Plug-In . SVG Version: 6.00 Build 0)  -->
<!DOCTYPE svg PUBLIC "-//W3C//DTD SVG 1.0//EN" "http://www.w3.org/TR/2001/REC-SVG-20010904/DTD/svg10.dtd">
<svg version="1.0" id="Layer_1" xmlns="http://www.w3.org/2000/svg" xmlns:xlink="http://www.w3.org/1999/xlink" x="0px" y="0px"
	 width="100px" height="100px" viewBox="0 0 100 100" enable-background="new 0 0 100 100" xml:space="preserve">
<polygon fill="#FFC00E" points="60.413,30.859 72.354,12.358 69.997,10.002 54.837,25.162 "/>
<polygon fill="#BDBCBC" points="59.998,89.998 52.004,69.999 43.664,67.108 52.817,89.998 "/>
<path fill="#BDBCBC" d="M34.608,50c-3.522,8.503,0.514,18.247,9.023,21.77c6.933,2.878,14.642,0.657,19.179-4.85l14.491,4.83
	c2.604,0.865,6.334-0.012,8.274-1.952l2.93-2.932c1.946-1.945,1.998-5.175,0.117-7.186L39.999,10.002
	c-4.447,5.521-6.667,12.761-6.667,19.999C18.906,45.352,10,66.562,10,89.998h6.666c0-20.976,7.65-40.661,21.529-55.433l1.803-1.922
	v-2.643c0-3.157,0.508-6.197,1.465-8.977l41.281,42.177l-1.829,1.837c-0.313,0.234-1.186,0.442-1.504,0.385l-19.712-6.568
	l-0.457,1.345c-1.021,2.468-2.941,4.391-5.409,5.412c-2.468,1.028-5.182,1.022-7.657,0c-2.467-1.021-4.387-2.944-5.41-5.412
	c-1.021-2.467-1.021-5.18,0-7.648L34.608,50z"/>
<path fill="#767676" d="M45.816,72.49l1.759,4.399c0.78,0.09,1.565,0.142,2.357,0.142c1.589,0,3.153-0.185,4.668-0.537l-1.511-3.778
	C50.729,73.18,48.252,73.125,45.816,72.49z"/>
<path fill="#F4F5F5" d="M43.631,71.77C35.122,68.247,31.086,58.503,34.608,50l6.158,2.551c-1.021,2.469-1.021,5.182,0,7.648
	c1.023,2.468,2.943,4.391,5.41,5.412c2.475,1.022,5.189,1.028,7.657,0c2.468-1.021,4.388-2.944,5.409-5.412l0.457-1.345
	l19.712,6.568c0.318,0.058,1.191-0.15,1.504-0.385l1.829-1.837L41.463,21.024c-0.957,2.779-1.465,5.819-1.465,8.977v2.643
	l-1.803,1.922C24.316,49.337,16.666,69.022,16.666,89.998h36.151L45.816,72.49C45.083,72.3,44.352,72.067,43.631,71.77z"/>
<path fill="#37474F" d="M56.665,48.333c0,1.844-1.491,3.332-3.333,3.332c-1.843,0-3.333-1.488-3.333-3.332
	c0-1.842,1.491-3.333,3.333-3.333C55.174,45,56.665,46.491,56.665,48.333z"/>
<polygon fill="#F68E1E" points="60.413,30.859 62.637,27.414 57.665,22.334 54.837,25.162 "/>
</svg>
