<?xml version="1.0" encoding="utf-8"?>
<!-- Generator: Adobe Illustrator 16.0.0, SVG Export Plug-In . SVG Version: 6.00 Build 0)  -->
<!DOCTYPE svg PUBLIC "-//W3C//DTD SVG 1.0//EN" "http://www.w3.org/TR/2001/REC-SVG-20010904/DTD/svg10.dtd">
<svg version="1.0" id="Layer_1" xmlns="http://www.w3.org/2000/svg" xmlns:xlink="http://www.w3.org/1999/xlink" x="0px" y="0px"
	 width="100px" height="100px" viewBox="0 0 100 100" enable-background="new 0 0 100 100" xml:space="preserve">
<path fill="#8D6F64" d="M47.469,51.666h5.866l0.208-0.33V27.81c4.098,1.453,7.573,4.214,9.953,7.768l3.813-6.038
	c-4.892-5.83-12.229-9.54-20.434-9.54v31.628C47.078,51.648,47.279,51.666,47.469,51.666z"/>
<path fill="#EEEAE8" d="M57.014,58.333l16.93-26.81c5.803,9.581,6.857,21.46,2.436,32.153l-1.722,4.191
	c-3.633-0.786-7.436-1.202-11.322-1.202h-6.667c-6.045,0-11.663-1.841-15.82-5.19c-4.054-3.265-8.907-5.619-14.181-6.93v-2.88
	c0-1.838,1.494-3.333,3.33-3.333c0.889,0,1.722,0.347,2.354,0.979l4.713,4.714c2.54,2.539,6.817,4.308,10.405,4.308H57.014z"/>
<path fill="#8D6F64" d="M82.539,66.223c6.355-15.375,3.295-33.726-9.204-46.224l-20,31.667h-5.866c-1.83,0-4.395-1.059-5.69-2.355
	l-4.715-4.714c-1.806-1.814-4.303-2.931-7.066-2.931c-5.523,0-9.996,4.474-9.996,10H20v8.498c6.478,0.611,12.29,2.979,16.667,6.502
	c5.521,4.448,12.765,6.668,20.001,6.668h6.667c9.115,0,17.362,2.547,23.333,6.667L90,76.666
	C88.027,72.86,85.477,69.393,82.539,66.223z M63.335,66.666h-6.667c-6.045,0-11.663-1.841-15.82-5.19
	c-4.054-3.265-8.907-5.619-14.181-6.93v-2.88c0-1.838,1.494-3.333,3.33-3.333c0.889,0,1.722,0.347,2.354,0.979l4.713,4.714
	c2.54,2.539,6.817,4.308,10.405,4.308h9.545l16.93-26.81c5.803,9.581,6.857,21.46,2.436,32.153l-1.722,4.191
	C71.024,67.082,67.222,66.666,63.335,66.666z"/>
<path fill="#6D4D41" d="M67.308,29.542c-0.882-1.051-1.843-2.034-2.875-2.938l-3.626,5.741c1.005,0.979,1.904,2.063,2.689,3.232
	L67.308,29.542z"/>
<path fill="#6D4D41" d="M47.469,51.666h5.866l0.208-0.33v-7.49l-2.413,3.82h-3.661c-0.166,0-0.372-0.033-0.593-0.085v4.046
	C47.078,51.648,47.279,51.666,47.469,51.666z"/>
<path fill="#FFC00E" d="M10,55c0,2.761,2.985,5,6.667,5c1.128,0,2.239,0.062,3.333,0.164v-8.498L10,55z"/>
<path fill="#D7CCC8" d="M28.351,49.311l4.713,4.714c2.54,2.539,6.817,4.308,10.405,4.308h4c-3.588,0-7.865-1.769-10.405-4.308
	l-4.713-4.714c-0.632-0.631-1.465-0.979-2.354-0.979c-0.754,0-1.442,0.262-2.001,0.687C28.117,49.111,28.24,49.201,28.351,49.311z"
	/>
<path fill="#D7CCC8" d="M73.943,31.523l-2.172,3.44c4.14,8.896,4.514,19.265,0.607,28.713l-1.455,3.541
	c1.26,0.179,2.509,0.386,3.733,0.65l1.722-4.191C80.801,52.983,79.746,41.104,73.943,31.523z"/>
<path fill="#EEEAE8" d="M53.543,51.336l9.953-15.759c-2.38-3.554-5.855-6.315-9.953-7.768V51.336z"/>
<path fill="#D7CCC8" d="M60.799,32.356l-7.256,11.489v7.49l9.953-15.759C62.713,34.409,61.802,33.336,60.799,32.356z"/>
</svg>
