<?xml version="1.0" encoding="utf-8"?>
<!-- Generator: Adobe Illustrator 16.0.0, SVG Export Plug-In . SVG Version: 6.00 Build 0)  -->
<!DOCTYPE svg PUBLIC "-//W3C//DTD SVG 1.0//EN" "http://www.w3.org/TR/2001/REC-SVG-20010904/DTD/svg10.dtd">
<svg version="1.0" id="Layer_1" xmlns="http://www.w3.org/2000/svg" xmlns:xlink="http://www.w3.org/1999/xlink" x="0px" y="0px"
	 width="100px" height="100px" viewBox="0 0 100 100" enable-background="new 0 0 100 100" xml:space="preserve">
<path fill="#C4C9E5" d="M56.666,80v-6.667c-5.52-0.002-9.999-4.479-9.999-10H40c0,5.477,2.683,10.294,6.758,13.333
	C42.683,79.701,40,84.521,40,90h6.667C46.667,84.477,51.146,79.997,56.666,80z"/>
<path fill="#3F4DA0" d="M66.666,30c0-7.812,2.547-14.882,6.668-20c-13.672,0-25.411,8.243-30.554,20.021
	c-7.885,0.117-15.176,2.656-21.179,6.907C14.89,37.573,10,39.441,10,41.666c0,2.229,4.89,4.097,11.602,4.741
	c6.146,4.349,13.633,6.926,21.731,6.926h1.82C48.313,60.217,55.261,65,63.334,65c-2.414-2.995-3.919-7.114-3.991-11.667h3.991
	c5.52,0,10,4.477,10,10c0,5.524-4.48,10-10,10h-6.668V80h6.668C78.053,80,90,68.065,90,53.333C90,40.45,79.557,30,66.666,30z"/>
<path fill="#2D2F78" d="M59.339,53.333H45.158c0.658,1.431,1.474,2.774,2.436,4h12.203C59.524,56.053,59.363,54.714,59.339,53.333z"
	/>
<path fill="#E8E9F5" d="M79.961,64.432C79.986,64.069,80,63.701,80,63.333c0-9.188-7.48-16.667-16.666-16.667H43.333
	c-6.009,0-11.81-1.724-16.849-5c4.896-3.176,10.534-4.895,16.394-4.979l4.297-0.063l1.718-3.936c2.539-5.826,7-10.416,12.441-13.164
	C60.455,22.872,60,26.4,60,30v6.666h6.666c9.188,0,16.668,7.479,16.668,16.667C83.334,57.436,82.09,61.255,79.961,64.432z"/>
</svg>
