<?xml version="1.0" encoding="utf-8"?>
<!-- Generator: Adobe Illustrator 16.0.0, SVG Export Plug-In . SVG Version: 6.00 Build 0)  -->
<!DOCTYPE svg PUBLIC "-//W3C//DTD SVG 1.0//EN" "http://www.w3.org/TR/2001/REC-SVG-20010904/DTD/svg10.dtd">
<svg version="1.0" id="Layer_1" xmlns="http://www.w3.org/2000/svg" xmlns:xlink="http://www.w3.org/1999/xlink" x="0px" y="0px"
	 width="100px" height="100px" viewBox="0 0 100 100" enable-background="new 0 0 100 100" xml:space="preserve">
<path fill="#37474F" d="M39.999,10c-7.363,0-13.333,5.972-13.333,13.333c0,7.365,5.97,13.333,13.333,13.333
	c2.432,0,4.706-0.661,6.669-1.799v18.465c0,11.044,8.959,20,19.999,20v-10c0-4.931,2.686-9.227,6.667-11.534V90h6.667V50.001
	C80.001,27.912,62.098,10,39.999,10z M60.002,63.333v1.545c-3.979-2.312-6.669-6.621-6.669-11.545v-30
	c0-1.454-0.24-2.85-0.671-4.161c10.527,4.34,18.358,13.917,20.234,25.469C65.366,47.513,60.002,54.807,60.002,63.333z"/>
<path fill="#FFC00E" d="M26.667,23.333c0-0.388,0.026-0.77,0.058-1.149l-6.726,4.483v3.333h8.466
	C27.328,28.038,26.667,25.766,26.667,23.333z"/>
<path fill="#F68E1E" d="M26.667,23.333c0-0.388,0.026-0.77,0.058-1.149l-3.988,2.659c0.157,1.813,0.591,3.547,1.266,5.157h4.463
	C27.328,28.038,26.667,25.766,26.667,23.333z"/>
<path fill="#CFD8DB" d="M46.668,23.333c0,3.68-2.982,6.667-6.669,6.667c-3.678,0-6.667-2.987-6.667-6.667
	c0-3.683,2.989-6.666,6.667-6.666C43.686,16.667,46.668,19.65,46.668,23.333z"/>
<path fill="#CFD8DB" d="M72.896,44.642c-1.876-11.552-9.707-21.128-20.234-25.469c0.431,1.311,0.671,2.707,0.671,4.161v30
	c0,4.924,2.69,9.233,6.669,11.545v-1.545C60.002,54.807,65.366,47.513,72.896,44.642z"/>
<circle fill="#37474F" cx="39.166" cy="22.501" r="2.5"/>
<path fill="#F4F5F5" d="M66.667,63.333v10c-11.04,0-19.999-8.956-19.999-20V34.868c-1.963,1.138-4.237,1.799-6.669,1.799
	c-1.258,0-2.473-0.178-3.625-0.506c-1.98,4.319-3.038,9.035-3.042,13.84c0,18.379,14.957,33.332,33.334,33.332h6.667V51.799
	C69.353,54.106,66.667,58.402,66.667,63.333z"/>
<path fill="#BDBCBC" d="M66.667,83.333c-18.378,0-33.334-14.953-33.334-33.332c0.004-4.807,1.062-9.525,3.044-13.845
	c-2.219-0.626-4.207-1.8-5.794-3.384c-2.503,5.214-3.912,11.054-3.916,17.229c0,22.09,17.912,39.999,40,39.999h6.667v-6.667H66.667z
	"/>
<path fill="#37474F" d="M33.333,83.333V90h33.334c-8.174,0-15.772-2.457-22.106-6.667H33.333z"/>
<path fill="#263238" d="M37.994,83.333c3.113,2.683,6.601,4.933,10.377,6.667h18.296c-8.174,0-15.772-2.457-22.106-6.667H37.994z"/>
<path fill="#767676" d="M30.594,32.783c-0.607,1.268-1.158,2.569-1.632,3.907c1.734,1.435,3.751,2.54,5.954,3.217
	c0.409-1.279,0.905-2.529,1.465-3.75C34.165,35.533,32.18,34.362,30.594,32.783z"/>
</svg>
