<?xml version="1.0" encoding="utf-8"?>
<!-- Generator: Adobe Illustrator 16.0.0, SVG Export Plug-In . SVG Version: 6.00 Build 0)  -->
<!DOCTYPE svg PUBLIC "-//W3C//DTD SVG 1.0//EN" "http://www.w3.org/TR/2001/REC-SVG-20010904/DTD/svg10.dtd">
<svg version="1.0" id="Layer_1" xmlns="http://www.w3.org/2000/svg" xmlns:xlink="http://www.w3.org/1999/xlink" x="0px" y="0px"
	 width="100px" height="100px" viewBox="0 0 100 100" enable-background="new 0 0 100 100" xml:space="preserve">
<path fill="#5E6BB1" d="M88.932,18.437l-13.647,6.365c1.219-6.094,0.298-11.406-3.097-14.802L52.618,29.568
	c0.461-1.441,0.714-2.975,0.714-4.569c0-8.287-6.712-15-15-15c-8.281,0-15,6.713-15,15c0,8.282,6.719,15,15,15
	c2.115,0,4.125-0.442,5.949-1.231c-1.729,3.704-1.076,8.246,1.981,11.304c2.805,2.8,6.856,3.581,10.366,2.359
	c2.375,0.832,5.063,0.778,7.524-0.367C82.506,43.502,93.606,28.45,88.932,18.437z"/>
<path fill="#FFC00E" d="M24.231,30.073L10,44.31l2.356,2.356l14.896-11.582C25.938,33.642,24.905,31.945,24.231,30.073z"/>
<path fill="#E8E9F5" d="M72.293,33.554c-1.555,3.291-3.607,6.646-6.117,9.928c5.691-3.32,10.516-7.414,13.635-11.647
	c0.645-0.866,1.198-1.725,1.674-2.565L72.293,33.554z"/>
<path fill="#E8E9F5" d="M53.332,46.334c-0.892,0-1.725-0.352-2.363-0.983c-1.295-1.295-1.295-3.412,0.007-4.713l17.911-17.911
	c-0.15,0.952-0.386,1.947-0.691,2.989c-1.888,6.42-6.445,13.581-12.506,19.642C54.843,46.204,53.854,46.334,53.332,46.334z"/>
<path fill="#F68E1E" d="M24.23,30.073l-3.064,3.065c0.766,1.608,1.752,3.089,2.917,4.411l3.169-2.465
	C25.938,33.642,24.905,31.945,24.23,30.073z"/>
<circle fill="#E8E9F5" cx="38.332" cy="25" r="8.333"/>
<circle fill="#212120" cx="35.832" cy="24.166" r="2.5"/>
<path fill="#2D2F78" d="M60.402,50.072c-1.099,1.098-2.391,1.875-3.764,2.355c2.315,0.805,4.924,0.774,7.333-0.29
	c4.683-4.821,8.391-9.968,11.039-15.065c-2.544,2.312-5.544,4.481-8.826,6.399C64.465,45.722,62.537,47.938,60.402,50.072z"/>
<path fill="#2D2F78" d="M75.284,24.801c-0.558,2.79-1.568,5.743-2.991,8.753l5.351-2.493c1.018-2.848,1.688-5.632,1.97-8.279
	L75.284,24.801z"/>
<path fill="#E8E9F5" d="M64.152,52.064c-2.462,1.146-5.149,1.199-7.524,0.367c-3.51,1.222-7.561,0.44-10.366-2.359
	c-3.058-3.058-3.71-7.6-1.981-11.304C42.456,39.558,40.446,40,38.332,40c-0.316,0-0.626-0.028-0.938-0.048
	C40.17,52.458,50.67,62.006,63.964,63.19l3.001,0.268l1.777,2.428c1.484,2.025,2.773,4.153,3.848,6.368
	c0.496-2.071,0.742-4.213,0.742-6.388c0-5.777-1.782-11.282-5.074-15.896C66.933,50.701,65.566,51.404,64.152,52.064z"/>
<path fill="#33429A" d="M68.258,49.971c3.292,4.613,5.074,10.118,5.074,15.896c0,2.175-0.246,4.316-0.742,6.388
	c-1.074-2.215-2.363-4.343-3.848-6.368l-1.777-2.428l-3.001-0.268C50.67,62.006,40.17,52.458,37.394,39.952
	c-2.618-0.163-5.052-0.99-7.136-2.326c2.002,17.146,15.83,30.665,33.113,32.205C67.52,75.489,70,82.442,70,90.001
	c11.857-11.86,13.159-30.252,3.925-43.553C72.152,47.686,70.258,48.865,68.258,49.971z"/>
<path fill="#2D2F78" d="M68.253,49.973c0.778,1.094,1.479,2.233,2.085,3.418c1.982-1.102,3.882-2.278,5.682-3.525
	c-0.623-1.17-1.338-2.303-2.105-3.41C72.144,47.692,70.25,48.869,68.253,49.973z"/>
</svg>
