<?xml version="1.0" encoding="utf-8"?>
<!-- Generator: Adobe Illustrator 16.0.0, SVG Export Plug-In . SVG Version: 6.00 Build 0)  -->
<!DOCTYPE svg PUBLIC "-//W3C//DTD SVG 1.0//EN" "http://www.w3.org/TR/2001/REC-SVG-20010904/DTD/svg10.dtd">
<svg version="1.0" id="Layer_1" xmlns="http://www.w3.org/2000/svg" xmlns:xlink="http://www.w3.org/1999/xlink" x="0px" y="0px"
	 width="100px" height="100px" viewBox="0 0 100 100" enable-background="new 0 0 100 100" xml:space="preserve">
<path fill="#455A64" d="M56.663,26.667L10,73.332l4.713,4.715l8.048-8.048H30l0,0c18.403,0,33.33-14.915,33.33-33.332v-10H56.663z
	 M56.663,36.667c0,14.705-11.961,26.665-26.664,26.665h-0.571l27.235-27.236V36.667z"/>
<path fill="#EEEAE8" d="M83.333,26.667c0-5.513-4.486-9.999-10-9.999c-5.517,0-10.003,4.486-10.003,9.999v10
	c0,10.908-5.237,20.586-13.33,26.665h6.663c11.03,0,20.003-8.97,20.003-19.999v-10h-6.669v-6.666H83.333z"/>
<path fill="#CFD8DB" d="M56.663,36.667v-0.571L29.428,63.332h0.571C44.702,63.332,56.663,51.372,56.663,36.667z"/>
<path fill="#AFBDC4" d="M33.688,59.071l-4.261,4.261h0.571c14.703,0,26.664-11.96,26.664-26.665v-0.571l-0.261,0.262
	C54.767,48.114,45.443,57.438,33.688,59.071z"/>
<path fill="#D7CCC8" d="M72.666,43.333c0,11.029-8.973,19.999-20.003,19.999h4c11.03,0,20.003-8.97,20.003-19.999v-10h-4V43.333z"/>
<path fill="#D7CCC8" d="M73.333,16.668c-0.685,0-1.354,0.069-2,0.201c4.559,0.929,8,4.97,8,9.798h4
	C83.333,21.154,78.847,16.668,73.333,16.668z"/>
<path fill="#7A5649" d="M90,26.667c0-9.204-7.461-16.665-16.667-16.665c-9.209,0-16.67,7.461-16.67,16.665h6.667
	c0-5.513,4.486-9.999,10.003-9.999c5.514,0,10,4.486,10,9.999H69.997v6.666h6.669v10c0,11.029-8.973,19.999-20.003,19.999H50
	c-5.571,4.186-12.496,6.667-20,6.667h26.663c14.724,0,26.67-11.936,26.67-26.666v-10H90V26.667z"/>
<rect x="36.665" y="69.999" fill="#9D9D9D" width="6.667" height="13.332"/>
<polygon fill="#9D9D9D" points="61.487,83.331 54.821,69.999 47.368,69.999 54.035,83.331 "/>
<rect x="36.665" y="69.999" fill="#616262" width="6.667" height="4"/>
<path fill="#616262" d="M47.368,69.999l2,4h7.295c0.053,0,0.104-0.003,0.157-0.003l-1.998-3.997H47.368z"/>
<rect x="10" y="83.331" fill="#C3996B" width="80" height="6.667"/>
<rect x="76.666" y="33.333" fill="#4E342E" width="6.667" height="4"/>
</svg>
