<svg id="icons" xmlns="http://www.w3.org/2000/svg" viewBox="0 0 64 64"><defs><style>.cls-1{fill:none;stroke:#000;stroke-linecap:round;stroke-linejoin:round;}</style></defs><title>apple</title><g id="apple"><path class="cls-1" d="M33.25261,59.29833a5.24505,5.24505,0,0,0-2.50126-.04055C4.898,65.8199,6.48785,26.71074,6.48785,26.71074a12.75588,12.75588,0,0,1,12.75957-12.7495c4.35451,0,8.18236.3342,10.49127,2.24815a6.88038,6.88038,0,0,0,1.74175.33414c.06076,0,.638-.06076,1.24556-.13165.20255-.03035.395-.06076.58737-.10125a8.29414,8.29414,0,0,0,2.08609-.69874,14.851,14.851,0,0,1,3.35192-1.24556c.69874-.12151,1.438-.21268,2.2076-.28357,1.195-.09111,2.48105-.12152,3.7975-.12152a12.76456,12.76456,0,0,1,12.76977,12.7495S58.49837,64.9591,33.25261,59.29833Z"/><path class="cls-1" d="M9.90783,29.30139c0-7.04026,4.74515-11.78541,11.7951-11.78541"/><path class="cls-1" d="M48.64111,51.09531a14.92344,14.92344,0,0,1-11.36568,5.6128"/><path class="cls-1" d="M33.3944,15.6423v.02021c-.02028.09117-.06076.45572-.081.64812-.19241.04049-.38482.0709-.58737.10125-.60757.07089-1.1848.13165-1.24556.13165-.21262-5.76207-2.0456-8.68863-3.32151-9.97474a1.47656,1.47656,0,0,1-.04055-2.09623l.05063-.05062A1.47358,1.47358,0,0,1,30.05261,4.27c2.26836,1.57976,3.05821,4.85071,3.3013,7.60513.02021.40509.05062.78991.06076,1.15446.01008.14178.01008.28351.01008.4253C33.45516,14.34606,33.42475,15.10556,33.3944,15.6423Z"/><path class="cls-1" d="M40.98939,14.06255c-.01013.01007-.02027.02021-.03041.02021-.76957.07089-1.50886.16206-2.2076.28357a14.851,14.851,0,0,0-3.35192,1.24556,8.29414,8.29414,0,0,1-2.08609.69874c.02027-.1924.06075-.557.081-.64812V15.6423c.03035-.53674.06076-1.29624.03035-2.18739a6.446,6.446,0,0,1,.42536-1.74176A8.653,8.653,0,0,1,35.764,8.827a8.31279,8.31279,0,0,1,6.795-2.45064,1.01068,1.01068,0,0,1,.881.881A8.30064,8.30064,0,0,1,40.98939,14.06255Z"/><line class="cls-1" x1="38.4476" y1="11.35871" x2="33.55278" y2="16.26352"/></g></svg>