<svg xmlns="http://www.w3.org/2000/svg" width="128" height="128" viewBox="0 0 128 128">
  <title>APRON</title>
  <g>
    <g>
      <path d="M85.715,43.082V29.938H42.284V43.082a9,9,0,0,1-9,9H28.562V126.25H99.437V52.082H94.715A9,9,0,0,1,85.715,43.082Z" fill="#57555c"/>
      <rect x="42.285" y="1.75" width="9.215" height="28.188" fill="#6e77e5"/>
      <rect x="76.5" y="1.75" width="9.215" height="28.188" fill="#6e77e5"/>
      <path d="M126.25,92.577h-6.517a9.011,9.011,0,0,1-8.932-7.9l-2.918-23.712a1,1,0,0,0-.993-.878H99.437v-8h7.453a9.01,9.01,0,0,1,8.932,7.9L118.74,83.7a1,1,0,0,0,.993.879h6.517Z" fill="#6e77e5"/>
      <path d="M1.75,92.577H8.267a9.011,9.011,0,0,0,8.932-7.9l2.918-23.712a1,1,0,0,1,.993-.878h7.452v-8H21.11a9.01,9.01,0,0,0-8.932,7.9L9.26,83.7a1,1,0,0,1-.993.879H1.75Z" fill="#6e77e5"/>
      <rect x="36.562" y="79.815" width="54.875" height="38.435" fill="#fedb41"/>
      <path d="M44.562,92.284h0a4.469,4.469,0,0,1,4.469-4.469H78.969a4.468,4.468,0,0,1,4.468,4.469h0a4.468,4.468,0,0,1-4.468,4.469H49.031A4.469,4.469,0,0,1,44.562,92.284Z" fill="#fea832"/>
    </g>
    <g>
      <path d="M126.25,82.827H120.4l-1.317-10.71a1.751,1.751,0,0,0-3.475.428L117,83.912a2.754,2.754,0,0,0,2.73,2.415H124.5v4.5h-4.767a7.259,7.259,0,0,1-7.2-6.365L109.62,60.75a2.755,2.755,0,0,0-2.73-2.415h-5.7v-4.5h5.7a7.258,7.258,0,0,1,7.195,6.365,1.751,1.751,0,0,0,3.475-.428,10.765,10.765,0,0,0-10.67-9.437l-12.174,0a7.258,7.258,0,0,1-7.25-7.25V1.75A1.75,1.75,0,0,0,85.716,0H76.5a1.75,1.75,0,0,0-1.75,1.75V28.188H53.25V1.75A1.75,1.75,0,0,0,51.5,0H42.284a1.75,1.75,0,0,0-1.75,1.75V43.083a7.258,7.258,0,0,1-7.25,7.25l-12.174,0a10.765,10.765,0,0,0-10.67,9.437L7.6,82.827H1.75A1.749,1.749,0,0,0,0,84.577v8a1.75,1.75,0,0,0,1.75,1.75H8.267A10.764,10.764,0,0,0,18.936,84.89l2.837-23.055h5.039V126.25a1.751,1.751,0,0,0,1.75,1.75H99.437a1.75,1.75,0,0,0,1.75-1.75V61.835h5.04l2.836,23.055a10.765,10.765,0,0,0,10.67,9.437h6.517a1.75,1.75,0,0,0,1.75-1.75v-8A1.749,1.749,0,0,0,126.25,82.827ZM78.25,3.5h5.716V28.188H78.25Zm-34.216,0H49.75V28.188H44.034ZM21.11,58.335a2.755,2.755,0,0,0-2.73,2.414L15.462,84.462a7.259,7.259,0,0,1-7.195,6.365H3.5v-4.5H8.267A2.754,2.754,0,0,0,11,83.912L13.915,60.2a7.258,7.258,0,0,1,7.2-6.365h5.7v4.5ZM97.687,124.5H30.312V53.833h2.972a10.762,10.762,0,0,0,10.75-10.75V31.688H83.966v11.4a10.762,10.762,0,0,0,10.75,10.75h2.971Z"/>
      <path d="M58.071,81.565H64a1.75,1.75,0,0,0,0-3.5H58.071a1.75,1.75,0,0,0,0,3.5Z"/>
      <path d="M91.437,78.065H75.179a1.75,1.75,0,0,0,0,3.5H89.687V116.5H38.312V81.565h8.581a1.75,1.75,0,0,0,0-3.5H36.562a1.751,1.751,0,0,0-1.75,1.75V118.25a1.751,1.751,0,0,0,1.75,1.75H91.437a1.75,1.75,0,0,0,1.75-1.75V79.815A1.75,1.75,0,0,0,91.437,78.065Z"/>
      <path d="M42.812,92.284A6.226,6.226,0,0,0,49.031,98.5H78.969a6.219,6.219,0,0,0,0-12.438H49.031A6.226,6.226,0,0,0,42.812,92.284Zm6.219-2.719H78.969a2.719,2.719,0,0,1,0,5.438H49.031a2.719,2.719,0,1,1,0-5.438Z"/>
    </g>
  </g>
</svg>
