<?xml version="1.0" encoding="utf-8"?>
<!-- Generator: Adobe Illustrator 16.0.0, SVG Export Plug-In . SVG Version: 6.00 Build 0)  -->
<!DOCTYPE svg PUBLIC "-//W3C//DTD SVG 1.0//EN" "http://www.w3.org/TR/2001/REC-SVG-20010904/DTD/svg10.dtd">
<svg version="1.0" id="Layer_1" xmlns="http://www.w3.org/2000/svg" xmlns:xlink="http://www.w3.org/1999/xlink" x="0px" y="0px"
	 width="100px" height="100px" viewBox="0 0 100 100" enable-background="new 0 0 100 100" xml:space="preserve">
<path d="M66.667,53.333l-6.186,4.125C52.207,51.235,40.729,52.065,33.333,60c7.393,7.93,18.867,8.77,27.146,2.542l6.188,4.125
	V53.333z"/>
<path d="M72.093,13.333H27.907C17.119,20.498,10,32.747,10,46.666c0,22.094,17.91,40.001,40,40.001c22.093,0,40-17.907,40-40.001
	C90,32.747,82.881,20.498,72.093,13.333z M30.02,20H69.98c3.75,2.811,6.765,6.354,9.007,10.323
	C68.991,29.378,59.046,30.911,50,34.658c-10.052,4.16-21.208,5.582-32.317,3.911C19.524,31.214,23.828,24.642,30.02,20z M50,80
	c-18.379,0-33.333-14.954-33.333-33.334c0-0.493,0.064-0.977,0.084-1.466c3.288,0.511,6.596,0.802,9.909,0.802
	c8.77,0,17.539-1.729,25.892-5.186c9.453-3.917,19.574-5.011,29.421-3.39c0.859,2.97,1.36,6.064,1.36,9.239
	C83.333,65.046,68.379,80,50,80z"/>
</svg>
