<svg id="icons" xmlns="http://www.w3.org/2000/svg" viewBox="0 0 64 64"><defs><style>.cls-1{fill:none;stroke:#000;stroke-linecap:round;stroke-linejoin:round;}</style></defs><title>asparagus</title><g id="asparagus"><path class="cls-1" d="M23.92275,28.80372,8.25139,44.21745a1.97844,1.97844,0,0,1-2.76513,0L4.1037,42.85761a1.90082,1.90082,0,0,1,0-2.71967l8.12947-7.99583"/><path class="cls-1" d="M16.38778,28.05581,28.21561,16.42242a1.85333,1.85333,0,0,0,.51155-.8839c.17282-.65952.51155-1.91736,1.00927-3.2772a13.30743,13.30743,0,0,1,2.57849-4.61664,12.74738,12.74738,0,0,1,7.26537-3.52877,12.9135,12.9135,0,0,1,4.39655.16318.98069.98069,0,0,1,.73276.72071,12.14,12.14,0,0,1,.16591,4.32428,12.19987,12.19987,0,0,1-1.92868,5.147,12.544,12.544,0,0,1-1.65907,1.999,13.4399,13.4399,0,0,1-4.68689,2.52929,34.25206,34.25206,0,0,1-3.3389.99948,1.8998,1.8998,0,0,0-.89866.50314L27.95984,24.833"/><path class="cls-1" d="M12.23317,32.14211a5.032,5.032,0,0,1-1.05766-3.10722A5.1933,5.1933,0,0,1,13.837,24.54063a5.17535,5.17535,0,0,1,2.55083,3.51518,4.58767,4.58767,0,0,1,.10369.98588,5.11839,5.11839,0,0,1-1.62754,3.741"/><path class="cls-1" d="M23.32244,26.57922a5.31416,5.31416,0,0,1,8.55813.81889,5.31475,5.31475,0,0,1-7.95544,1.40151"/><polyline class="cls-1" points="29.738 12.256 37.411 11.459 36.601 19.007"/><line class="cls-1" x1="34.34845" y1="11.77713" x2="34.34845" y2="6.01708"/><line class="cls-1" x1="37.08429" y1="14.46799" x2="42.94792" y2="14.46799"/><polyline class="cls-1" points="39.581 4.109 39.577 9.329 44.884 9.325"/><line class="cls-1" x1="37.41088" y1="11.45913" x2="39.57668" y2="9.32895"/><path class="cls-1" d="M39.39643,44.023,23.72506,59.43674a1.97844,1.97844,0,0,1-2.76513,0L19.57737,58.0769a1.90082,1.90082,0,0,1,0-2.71967l8.12948-7.99583"/><path class="cls-1" d="M31.86145,43.2751,43.68929,31.64171a1.85349,1.85349,0,0,0,.51155-.8839c.17282-.65952.51154-1.91736,1.00927-3.2772A13.30751,13.30751,0,0,1,47.78859,22.864,12.74738,12.74738,0,0,1,55.054,19.3352a12.91382,12.91382,0,0,1,4.39656.16318.9807.9807,0,0,1,.73276.72071,12.46177,12.46177,0,0,1-1.76277,9.47125,12.544,12.544,0,0,1-1.65908,1.999,13.43981,13.43981,0,0,1-4.68689,2.52929,34.25289,34.25289,0,0,1-3.33889.99948,1.89983,1.89983,0,0,0-.89867.50314l-4.40347,4.33108"/><path class="cls-1" d="M27.70685,47.3614a5.03194,5.03194,0,0,1-1.05767-3.10722,5.1933,5.1933,0,0,1,2.66144-4.49426,5.17535,5.17535,0,0,1,2.55083,3.51518,4.58767,4.58767,0,0,1,.10369.98588,5.11839,5.11839,0,0,1-1.62754,3.741"/><path class="cls-1" d="M38.79612,41.79852a5.31414,5.31414,0,0,1,8.55812.81888,5.31474,5.31474,0,0,1-7.95543,1.40151"/><polyline class="cls-1" points="45.211 27.475 52.885 26.678 52.075 34.226"/><line class="cls-1" x1="49.82212" y1="26.99642" x2="49.82212" y2="21.23637"/><line class="cls-1" x1="52.55796" y1="29.68729" x2="58.42159" y2="29.68729"/><polyline class="cls-1" points="55.054 19.328 55.05 24.548 60.358 24.545"/><line class="cls-1" x1="52.88456" y1="26.67843" x2="55.05035" y2="24.54824"/></g></svg>