<svg xmlns="http://www.w3.org/2000/svg" xmlns:xlink="http://www.w3.org/1999/xlink" viewBox="0 0 570.94 472.04"><defs><style>.cls-1{fill:none;}.cls-2{fill:#e6e6e6;}.cls-3{clip-path:url(#clip-path);}.cls-4{fill:#f5f5f5;}.cls-5{fill:#fff;}.cls-6{fill:#dbdbdb;}.cls-7{fill:#00b5f4;}.cls-8{fill:#34234d;}.cls-9{fill:#ff5168;}.cls-10{fill:#212121;opacity:0.25;}.cls-11{fill:#d2d2d1;}.cls-12{fill:#ccc;}.cls-13{fill:#c44661;}</style><clipPath id="clip-path" transform="translate(0 4.98)"><path class="cls-1" d="M499.63,328.16c-35.38,60.63-105.07,112.46-182.18,125.7a223.3,223.3,0,0,1-37.83,3.27c-3,0-6-.06-9-.2-51.3-2.17-103.46-23.13-149.13-71C50.91,311.93,30,239.6,42.86,177.36A179.22,179.22,0,0,1,62.33,125.8C142.21-16.38,233.64,72.43,345.37,88c77.07,10.75,164.53,41.38,183.21,111.16C537.52,232.53,530.75,274.82,499.63,328.16Z"/></clipPath></defs><title>Asset 31</title><g id="Layer_2" data-name="Layer 2"><g id="Layer_1-2" data-name="Layer 1"><path class="cls-2" d="M415.93,61.57C362,103.67,287.68,73.17,263,43.7,190-43.31,469.86,19.47,415.93,61.57Z" transform="translate(0 4.98)"/><path class="cls-2" d="M499.63,328.16c-35.38,60.63-105.07,112.46-182.18,125.7a223.3,223.3,0,0,1-37.83,3.27c-3,0-6-.06-9-.2-51.3-2.17-103.46-23.13-149.13-71C50.91,311.93,30,239.6,42.86,177.36A179.22,179.22,0,0,1,62.33,125.8C142.21-16.38,233.64,72.43,345.37,88c77.07,10.75,164.53,41.38,183.21,111.16C537.52,232.53,530.75,274.82,499.63,328.16Z" transform="translate(0 4.98)"/><g class="cls-3"><path class="cls-4" d="M8.9,259.66c0,78.64,60,152.57,182.77,176,162.14,31,370.53,33,370.53-121.7,0-58.1,5.83-216.82-27.28-238.25H450.07v196.1l-46.52,75.87v-156H372.09V127.79l-88.4-67.18v89H208.78V34.3c-22.53,2.85-44.08,13.1-63.08,29.26V230H111.79V192.27l-100.36-51C8.65,157.25,8.9,242.22,8.9,259.66ZM196.36,308h58.35v37.77H196.36Zm36.13-137.7h26.89v109H232.49Zm-39.36-78.5H162.37V68.56h30.76Zm0,29.48H162.37V98.05h30.76Zm0,29.49H162.37V127.53h30.76Zm0,29.48H162.37V157h30.76Zm307.76-38.15h-38V86.73h38Zm0,70.24h-38V157h38Zm0,70.24h-38V227.21h38Zm0,70.24h-38V297.45h38Zm-340.09-127h43.93v50.26H160.8Z" transform="translate(0 4.98)"/><rect class="cls-5" x="456.56" y="77.66" width="1.02" height="340.96"/><rect class="cls-5" x="357.65" width="1.02" height="418.62"/><rect class="cls-5" x="258.75" width="1.02" height="418.62"/><rect class="cls-5" x="159.84" width="1.02" height="418.62"/><rect class="cls-5" x="58.87" y="77.54" width="1.02" height="341.08"/><rect class="cls-6" x="21.45" y="419.17" width="479.59" height="43.38"/><rect class="cls-5" x="21.45" y="413.97" width="479.59" height="5.16"/><rect class="cls-5" x="21.45" y="348.98" width="479.59" height="1.02"/><rect class="cls-5" x="21.45" y="279.85" width="479.59" height="1.02"/><rect class="cls-5" x="21.45" y="210.73" width="479.59" height="1.02"/><rect class="cls-5" x="21.45" y="139.33" width="479.59" height="1.02"/><rect class="cls-5" x="21.45" y="67.93" width="479.59" height="1.02"/></g><path class="cls-7" d="M102.52,215.36l5-16.38-10.06-4.06A43.09,43.09,0,0,0,96,180l9.1-5.89-8-15.11-10,4.25a43.17,43.17,0,0,0-11.59-9.56L77.79,143,61.4,138l-4,10.06a43.36,43.36,0,0,0-15,1.45l-5.89-9.1-15.11,8,4.25,10A43.24,43.24,0,0,0,16.07,170l-10.6-2.26-5,16.38,10.06,4.05a43.33,43.33,0,0,0,1.44,15l-9.09,5.9,8,15.11,10-4.25a43.53,43.53,0,0,0,11.6,9.56L30.21,240.1l16.38,5,4-10a43.31,43.31,0,0,0,15-1.45l5.89,9.1,15.11-8-4.24-10a43.49,43.49,0,0,0,9.56-11.59ZM45,221.13a30.91,30.91,0,1,1,38.6-20.53A30.91,30.91,0,0,1,45,221.13Z" transform="translate(0 4.98)"/><polygon class="cls-8" points="7.16 192.25 0 189.36 3.77 177.01 4.5 177.23 0.93 188.92 7.44 191.55 7.16 192.25"/><path class="cls-8" d="M30.58,240.18l-.75-.16L32,229.7A36.09,36.09,0,0,1,23,222.75l.56-.51a35.06,35.06,0,0,0,9.1,6.91l.27.13Z" transform="translate(0 4.98)"/><path class="cls-8" d="M71.41,217.57,71,217c19.9-14,11.92-35.27,11.84-35.48l.7-.27C83.61,181.42,91.79,203.26,71.41,217.57Z" transform="translate(0 4.98)"/><path class="cls-8" d="M97.21,188.25a69.18,69.18,0,0,0-1.55-8.19l-.07-.26,3.34-2.17.41.64-2.88,1.86a70.23,70.23,0,0,1,1.5,8Z" transform="translate(0 4.98)"/><path class="cls-8" d="M51.27,244.35l-17.05-5.21,2.28-10.67a41.68,41.68,0,0,1-11.29-9.31l-10,4.27L6.81,207.71,16,201.77a43.38,43.38,0,0,1-1.4-14.55L4.44,183.14l5.21-17,10.68,2.28c.79-1.38,4.78-8.06,9.29-11.31l-4.26-10,15.72-8.36L47,147.82a35.52,35.52,0,0,1,14.57-1.39l4.08-10.12,17,5.21-2.28,10.67c1.3.73,7.38,4.26,11.29,9.3l10-4.27L110.12,173,101,178.88a38.15,38.15,0,0,1,1.41,14.56l10.11,4.08-5.21,17L96.61,212.3a39,39,0,0,1-9.31,11.28l4.27,10L75.84,242l-5.92-9.14a33.66,33.66,0,0,1-14.57,1.4ZM35.1,238.62l15.73,4.81,4-10,.29,0A32.08,32.08,0,0,0,69.93,232l.29-.11L76.1,241l14.51-7.71-4.23-9.93.23-.18a37.73,37.73,0,0,0,9.46-11.46l.12-.27,10.57,2.25L111.57,198l-10-4,0-.29a36.48,36.48,0,0,0-1.43-14.79l-.1-.28,9.07-5.87-7.72-14.52-9.93,4.23-.18-.23c-4.26-5.64-11.4-9.42-11.47-9.46l-.25-.13L81.83,142l-15.74-4.81-4,10-.28,0A34.75,34.75,0,0,0,47,148.62l-.28.12-5.88-9.08-14.51,7.72,4.23,10-.25.17c-4.9,3.38-9.41,11.39-9.45,11.47l-.14.24L10.17,167,5.36,182.7l10,4,0,.28a42.19,42.19,0,0,0,1.43,14.81l.08.28L7.8,208l7.71,14.51,9.93-4.22.18.22c4.45,5.72,11.41,9.43,11.48,9.47l.25.13Z" transform="translate(0 4.98)"/><path class="cls-8" d="M58.46,221.64a31.32,31.32,0,1,1,31.32-31.31A31.34,31.34,0,0,1,58.46,221.64Zm0-61.88A30.57,30.57,0,1,0,89,190.33,30.6,30.6,0,0,0,58.46,159.76Z" transform="translate(0 4.98)"/><rect class="cls-8" x="74.28" y="462.11" width="422.93" height="1.02"/><rect class="cls-8" x="450.88" y="199.9" width="81.28" height="262"/><rect class="cls-8" x="332.14" y="311.06" width="81.28" height="150.84"/><rect class="cls-8" x="213.39" y="374.07" width="81.28" height="87.83"/><rect class="cls-8" x="94.65" y="353.97" width="81.28" height="107.93"/><rect class="cls-7" x="441.85" y="199.91" width="81.28" height="261.99"/><rect class="cls-9" x="323.1" y="311.06" width="81.28" height="150.84"/><rect class="cls-7" x="204.36" y="374.07" width="81.28" height="87.83"/><rect class="cls-9" x="85.61" y="353.97" width="81.29" height="107.93"/><path class="cls-10" d="M496.2,292.76c.11,15.34-8.92,28.17-20.82,30.7a20.64,20.64,0,0,1-4.17.45l-6.1.2c-6.76,0-13.16-3.17-18-9.06a32.32,32.32,0,0,1-5.23-9V279.7a31.76,31.76,0,0,1,4.82-8.48c4.72-5.9,11-9.17,17.79-9.22l6.33,0c6.74,0,13.1,3.14,17.9,9A34.64,34.64,0,0,1,496.2,292.76Z" transform="translate(0 4.98)"/><path class="cls-10" d="M166.9,349V456.91H150.36a3.39,3.39,0,0,1-2.68-3.84l.12,0c0-2.68,1.51-6.39,3.65-10.24a31.47,31.47,0,0,0,3.18-10.59,32.23,32.23,0,0,0-4.14.12c-11.69-9.85-9.82-28.15-2.33-49.61,2.68-7.65,12.2-18.72-1.75-19.86-14.93-1.23-41.79-3.18-57.88-13.94Z" transform="translate(0 4.98)"/><path class="cls-8" d="M255.16,330.31l-17.93,13.6s9.1,5.56,7.08,13S242.09,371,247,370.83s25.06-.52,34.44-.42,32-1.25,32-1.25A17.64,17.64,0,0,0,297,359.9C287,360.29,265.63,344.51,255.16,330.31Z" transform="translate(0 4.98)"/><path class="cls-5" d="M257.76,368.14c-.47-12.26-12.44-13.13-12.95-13.16l.05-.82c.13,0,13.21.94,13.72,13.95Z" transform="translate(0 4.98)"/><path class="cls-5" d="M255.87,360.32l-.71-.41c.06-.11,6.49-11.06,19.81-11.66l0,.82C262.14,349.65,255.93,360.21,255.87,360.32Z" transform="translate(0 4.98)"/><path class="cls-5" d="M258.09,364.07l-.71-.4c.07-.11,6.81-11.84,20.82-12.47l0,.82C264.68,352.63,258.16,364,258.09,364.07Z" transform="translate(0 4.98)"/><path class="cls-5" d="M290.17,366.49a6.78,6.78,0,0,1,5.69-7.4l.1.81c-.21,0-5.2.74-5,6.56Z" transform="translate(0 4.98)"/><path class="cls-5" d="M243.12,367.75a3.45,3.45,0,0,0,3.89,3.08c4.91-.19,25.06-.52,34.44-.42s32-1.25,32-1.25a16.27,16.27,0,0,0-2.33-3.33Z" transform="translate(0 4.98)"/><path class="cls-8" d="M191,422.56l-21.52-.87s.11,10.08-3.65,16.83-5.55,13.14-.73,14.14,24.44,5.54,33.53,7.9,31.31,6.5,31.31,6.5a17.65,17.65,0,0,0-13.7-12.95C206.41,452.08,193.36,436.72,191,422.56Z" transform="translate(0 4.98)"/><path class="cls-5" d="M176.94,452.81l-.8-.17c2.5-12-9.27-15.86-9.39-15.9L167,436C167.12,436,179.59,440.06,176.94,452.81Z" transform="translate(0 4.98)"/><path class="cls-5" d="M176.19,444.59l-.59-.56c.09-.09,9-9.18,22-6.53l-.16.8C184.85,435.75,176.28,444.5,176.19,444.59Z" transform="translate(0 4.98)"/><path class="cls-5" d="M177.44,448.78l-.59-.56c.09-.1,9.47-9.85,23.22-7.08l-.17.8C186.61,439.27,177.53,448.68,177.44,448.78Z" transform="translate(0 4.98)"/><path class="cls-5" d="M208.79,459l-.8-.17a6.79,6.79,0,0,1,7.31-5.8l-.1.81h0C214.9,453.84,210,453.38,208.79,459Z" transform="translate(0 4.98)"/><path class="cls-5" d="M162,448.73a3.45,3.45,0,0,0,3,3.93c4.81,1,24.44,5.54,33.53,7.9s31.31,6.5,31.31,6.5a16.1,16.1,0,0,0-1.46-3.79Z" transform="translate(0 4.98)"/><path class="cls-5" d="M208.39,198.34c-1.3-2.53-.8-5.71-3.36-7.48a14.23,14.23,0,0,1-4-4.42,41.9,41.9,0,0,0,10.41-8.88c2.08-2.76,2.26-4.89.77-4-3.38,2.07-13.8,7-17.45,10a.24.24,0,0,0-.08.09c-2.84,1.74-5.09,7-5.87,9.2-1.17,3.26-4.67,12.73-5.64,15.35-9.38,11.52-34.06,20-37.68,24.31-11.62,13.82,9,34.2,23.37,24.38,11.47-7.82,16.78-26.9,22.61-39.5h0c3-6.56,9.36-8,12.57-10.53S209.69,200.86,208.39,198.34Z" transform="translate(0 4.98)"/><path class="cls-8" d="M160.6,259.9c-5.41,0-10.58-2.9-14-6.68-4.51-5-7.58-13.46-1.34-20.88,1.41-1.68,5.74-3.88,11.22-6.67,8.7-4.43,20.61-10.49,26.43-17.6,1.05-2.85,4.47-12.09,5.61-15.28.43-1.21,2.75-7.33,6-9.36l.09-.09c2.45-2.06,7.9-4.92,12.27-7.21,2.2-1.16,4.1-2.16,5.22-2.84.75-.46,1.13-.22,1.29,0,.68.74-.36,2.86-1.61,4.52a41.37,41.37,0,0,1-10.19,8.77l.13.21a12.73,12.73,0,0,0,3.54,3.82c1.74,1.2,2.15,3,2.56,4.76a12.3,12.3,0,0,0,.91,2.85h0c1.48,2.88-1.44,6.65-4.39,9a24,24,0,0,1-3.5,2.14c-3.23,1.74-6.89,3.72-9,8.26l-.21.45h0c-1.25,2.73-2.47,5.73-3.75,8.89-4.6,11.34-9.82,24.19-18.78,30.3A14.85,14.85,0,0,1,160.6,259.9Zm52.25-86.19a1,1,0,0,0-.42.17c-1.14.7-3.05,1.7-5.26,2.86-4.34,2.28-9.75,5.12-12.14,7.13l-.13.12c-3.11,1.91-5.47,8.31-5.73,9-1.15,3.22-4.6,12.56-5.63,15.35l-.06.09c-5.89,7.25-17.91,13.36-26.69,17.83-5.19,2.64-9.68,4.93-11,6.49-5.95,7.08-3,15.19,1.33,20,5,5.54,13.9,9.13,21.58,3.9,8.79-6,14-18.74,18.53-30,1.35-3.35,2.64-6.51,4-9.38l.21-.45,0,0c2.22-4.45,6-6.49,9.06-8.14a22.62,22.62,0,0,0,3.39-2.07c2.75-2.19,5.5-5.65,4.21-8.15h0a13.53,13.53,0,0,1-1-3c-.39-1.7-.76-3.3-2.28-4.35a13.34,13.34,0,0,1-3.71-4l-.55-.8.32-.19c3.24-1.95,7.85-5.53,10.31-8.79C212.76,175.28,213,173.91,212.85,173.71Z" transform="translate(0 4.98)"/><path class="cls-8" d="M114.05,150.72c-.16-8.14,8.2-8.34,8.2-8.34-8.48-22.66-23.86-8.91-27.33-1.3-4.54,10-4,29.32,1.19,31.6l1.53-1.37,1.19,2.7c2.92,2.1,10.74,4.81,13,4.31C111.83,178.32,114.06,151.22,114.05,150.72Z" transform="translate(0 4.98)"/><path class="cls-5" d="M135.11,175l-3.9,14.87c-1.13,1.21-7-.58-16.22-8l5.3-13.09A113.31,113.31,0,0,0,135.11,175Z" transform="translate(0 4.98)"/><path class="cls-8" d="M130.08,190.54c-2.6,0-8-2.58-15.31-8.38l-.2-.16,5.54-13.69.34.18a114.15,114.15,0,0,0,14.77,6.15l.3.11-4.06,15.33A1.83,1.83,0,0,1,130.08,190.54Zm-14.67-8.76c9.08,7.19,14.47,8.67,15.49,7.88l3.79-14.47a118,118,0,0,1-14.22-5.91Z" transform="translate(0 4.98)"/><path class="cls-8" d="M133.92,179.5l-1.73,6.59c-8.75.18-5.58-10.54-5.57-10.53C130.12,178.24,132.66,179.63,133.92,179.5Z" transform="translate(0 4.98)"/><path class="cls-5" d="M135.84,181.53c-4.72,0-13.35-6.48-15.26-10.8-.68-1.54,1.3-25.83,6.11-27.53,2-.71,14.6,1.48,16.51,1.48,4.36,0,4.41,10.93,4.45,17.21C147.69,168.93,144.18,181.59,135.84,181.53Z" transform="translate(0 4.98)"/><path class="cls-8" d="M135.9,181.87h-.06c-5,0-13.67-6.68-15.58-11-.6-1.35.62-17.64,3.67-24.69.81-1.88,1.68-3,2.64-3.31,1.32-.46,6.17.14,11.91.91,2.2.3,4.1.56,4.72.56,4.69,0,4.76,10.94,4.8,17.48,0,4.59-1.53,12.93-5.94,17.34A8.55,8.55,0,0,1,135.9,181.87Zm-7.83-38.47a4.28,4.28,0,0,0-1.27.13c-.75.26-1.52,1.28-2.24,2.93-3,6.87-4.18,23-3.66,24.13,1.79,4.06,10.27,10.56,14.94,10.59h.06a7.86,7.86,0,0,0,5.67-2.51c3.81-3.81,5.77-11.32,5.73-16.78,0-5.94-.1-16.86-4.1-16.86-.67,0-2.5-.25-4.82-.56C135.08,144,130.43,143.4,128.07,143.4Z" transform="translate(0 4.98)"/><path class="cls-8" d="M119.77,176a46.73,46.73,0,0,1,5.17-1.85c2.4-4.39,7.44-13.48,9.09-15.62s4.17,10.71,4.17,10.71c3.25-7.37,2.31-14.58,5.76-16.25,3.69-1.78,9-13.77-5.05-13.77-7.63,0-16.85-5.59-23.59,3.57C105.9,155.53,121.28,171.77,119.77,176Z" transform="translate(0 4.98)"/><path class="cls-5" d="M135.59,160.21a4.42,4.42,0,1,1-5.56-2.86A4.42,4.42,0,0,1,135.59,160.21Z" transform="translate(0 4.98)"/><path class="cls-8" d="M131.37,166.32a4.77,4.77,0,1,1,4.55-6.22h0a4.78,4.78,0,0,1-3.09,6A4.89,4.89,0,0,1,131.37,166.32Zm0-8.84a3.77,3.77,0,0,0-1.23.2,4.07,4.07,0,1,0,2.48,7.75,4.08,4.08,0,0,0,2.64-5.12h0A4.1,4.1,0,0,0,131.37,157.48Z" transform="translate(0 4.98)"/><path class="cls-8" d="M131.26,164.83a3.14,3.14,0,0,1-1.39-.36l.37-.72s1.24.6,1.6,0c.11-.18.11-.18-.17-.45a1.72,1.72,0,0,1-.63-1.79,2.75,2.75,0,0,1,.77-1.38c.37-.42.46-.52-.08-1.19a.69.69,0,0,0-.56-.28h0c-.89,0-2.15,1.27-2.56,1.77l-.63-.53c.18-.21,1.76-2.06,3.19-2.06h0a1.47,1.47,0,0,1,1.18.59c.91,1.12.58,1.65.06,2.24a2,2,0,0,0-.58,1,1,1,0,0,0,.4,1,1,1,0,0,1,.31,1.45A1.4,1.4,0,0,1,131.26,164.83Z" transform="translate(0 4.98)"/><path class="cls-9" d="M125.66,286.62c-4.28,4.51-22,62.85,36.28,41.82,13.11-4.74,42.89-30.17,45.67-27.51,10.3,9.86,2.16,32.18,25,50.51,9.3-3.69,29.75-18.65,33.06-18.78,5.64-8.27,2.05-14.49-1.43-24.67-4.43-12.93-14.25-39.64-30.69-57.62C209.5,224.11,132.08,280.74,125.66,286.62Z" transform="translate(0 4.98)"/><path class="cls-11" d="M301.65,193.09a1.23,1.23,0,0,1,.25.12,3.17,3.17,0,0,1,.53.4,4.65,4.65,0,0,1,1.35,2.07,4.81,4.81,0,0,1-.49,3.59c-.41.85-25.78,49.78-30.18,58.33-1.5,2.94-2.69,5.34-5.89,4.58l34.4-69Z" transform="translate(0 4.98)"/><path class="cls-5" d="M196.12,167.9,301,192.85a2.31,2.31,0,0,1,1.51,3.32l-33.06,62.57L159.26,232.39l33.2-62.82A3.28,3.28,0,0,1,196.12,167.9Z" transform="translate(0 4.98)"/><path class="cls-8" d="M269.62,259l-.19,0L158.89,232.56l.15-.28,33.2-62.83a3.51,3.51,0,0,1,3.94-1.79L301.1,192.6a2.61,2.61,0,0,1,1.74,1.43,2.57,2.57,0,0,1-.06,2.25Zm-110-26.8,109.73,26.22,33-62.4a2,2,0,0,0,.05-1.81,2.08,2.08,0,0,0-1.4-1.15l-104.92-25a3,3,0,0,0-3.37,1.54Z" transform="translate(0 4.98)"/><path class="cls-7" d="M193.76,171.46a1,1,0,0,1,1.13-.51l104.19,24.77a1,1,0,0,1,.66,1.45L270.87,251.7a1,1,0,0,1-1.12.51L165.56,227.44a1,1,0,0,1-.66-1.45Z" transform="translate(0 4.98)"/><path class="cls-11" d="M124.32,249.15l34.06-15.08a1.38,1.38,0,0,1,.78,0l109.67,24.39c2,.47,2.27,2.28.25,3.8l-33,17.25a5.8,5.8,0,0,1-3.91.43L124.34,254.28C122,253.72,122.84,249.59,124.32,249.15Z" transform="translate(0 4.98)"/><polygon class="cls-8" points="256.63 271.01 256.06 273.4 250.46 276.32 251 274.06 256.63 271.01"/><polygon class="cls-8" points="263.96 267.61 263.5 269.5 261.93 270.33 261.91 270.33 262.36 268.45 263.96 267.61"/><path class="cls-5" d="M124.86,248.86l33.86-16.62a1.63,1.63,0,0,1,.79,0l110,26.39-36,19.11-108.6-26A1.51,1.51,0,0,1,124.86,248.86Z" transform="translate(0 4.98)"/><path class="cls-8" d="M233.57,278l-.09,0L124.88,252a1.76,1.76,0,0,1-.11-3.39L158.61,232a1.86,1.86,0,0,1,1,0l110.66,26.54Zm-74.42-45.55a1.49,1.49,0,0,0-.36,0L124.93,249.1a1.26,1.26,0,0,0,.07,2.43l108.5,25.92,35.33-18.75L159.45,232.47A1,1,0,0,0,159.15,232.43Z" transform="translate(0 4.98)"/><path class="cls-11" d="M165.86,259.55a.61.61,0,0,0,.47.59L198,267.67a1.91,1.91,0,0,0,1.27-.14l9.47-4.64a.62.62,0,0,0-.12-1.15l-32-7.75a.61.61,0,0,0-.35,0l-10,4.93A.61.61,0,0,0,165.86,259.55Zm.18,0a.43.43,0,0,1,.33-.44l10-4.94a.49.49,0,0,1,.24,0l32,7.75a.45.45,0,0,1,.34.38h0a.43.43,0,0,1-.25.44l-9.47,4.64a1.75,1.75,0,0,1-1.15.12L166.38,260A.42.42,0,0,1,166,259.55Z" transform="translate(0 4.98)"/><path class="cls-8" d="M235.92,266.41l2.24-1a.33.33,0,0,1,.17,0l5.75,1.4c.08,0,0,.13-.07.17l-2.46,1a.41.41,0,0,1-.26,0l-5.37-1.28A.21.21,0,0,1,235.92,266.41Z" transform="translate(0 4.98)"/><path class="cls-8" d="M232.82,263.27l2.24-.95a.22.22,0,0,1,.16,0l12.6,3c.07,0,0,.13-.07.18l-2.48,1a.47.47,0,0,1-.25,0l-12.21-2.91A.21.21,0,0,1,232.82,263.27Z" transform="translate(0 4.98)"/><path class="cls-8" d="M239.24,262.38l2.25-.95a.25.25,0,0,1,.17,0l9.69,2.33c.07,0,0,.14-.07.18l-2.49,1a.4.4,0,0,1-.26,0l-9.3-2.21C239,262.74,239,262.47,239.24,262.38Z" transform="translate(0 4.98)"/><path class="cls-8" d="M229,264.77l2.23-.94a.23.23,0,0,1,.16,0l5.76,1.4c.08,0,0,.13-.07.18l-2.45,1a.4.4,0,0,1-.26,0L229,265.17C228.83,265.12,228.83,264.86,229,264.77Z" transform="translate(0 4.98)"/><path class="cls-8" d="M246.42,261.67l2.27-1a.29.29,0,0,1,.16,0l5.8,1.41c.07,0,0,.13-.07.18l-2.5,1a.41.41,0,0,1-.26,0l-5.41-1.28C246.2,262,246.21,261.76,246.42,261.67Z" transform="translate(0 4.98)"/><path class="cls-8" d="M239.49,260l2.26-1a.29.29,0,0,1,.16,0l5.8,1.41c.07,0,0,.13-.07.18l-2.49,1a.49.49,0,0,1-.26,0l-5.41-1.29C239.27,260.38,239.28,260.11,239.49,260Z" transform="translate(0 4.98)"/><path class="cls-8" d="M249.67,260l2.28-1a.25.25,0,0,1,.17,0l5.81,1.41c.07,0,0,.13-.08.18l-2.51,1a.41.41,0,0,1-.26,0l-5.42-1.29C249.45,260.37,249.46,260.1,249.67,260Z" transform="translate(0 4.98)"/><path class="cls-8" d="M251.83,257.48h.09l8.47,2s0,.08,0,.1l-1.33.55a.21.21,0,0,1-.13,0l-8.27-2c-.11,0-.11-.17,0-.22Z" transform="translate(0 4.98)"/><path class="cls-8" d="M242.57,255.28h.09l8.47,2s0,.08,0,.1l-1.32.55a.24.24,0,0,1-.14,0l-8.27-2c-.11,0-.11-.17,0-.22Z" transform="translate(0 4.98)"/><path class="cls-8" d="M233.32,253.08a.11.11,0,0,1,.08,0l8.48,2s0,.07,0,.1l-1.31.55a.24.24,0,0,1-.14,0l-8.27-2a.11.11,0,0,1,0-.22Z" transform="translate(0 4.98)"/><path class="cls-8" d="M224.06,250.88a.14.14,0,0,1,.09,0l8.47,2s0,.07,0,.1l-1.3.56a.23.23,0,0,1-.14,0l-8.27-2a.11.11,0,0,1,0-.22Z" transform="translate(0 4.98)"/><path class="cls-8" d="M214.8,248.68a.14.14,0,0,1,.09,0l8.47,2s0,.07,0,.09l-1.3.57a.36.36,0,0,1-.14,0l-8.27-2a.12.12,0,0,1,0-.22Z" transform="translate(0 4.98)"/><path class="cls-8" d="M205.54,246.48a.1.1,0,0,1,.09,0l8.48,2s0,.07,0,.09l-1.29.57a.22.22,0,0,1-.13,0l-8.27-2a.11.11,0,0,1,0-.22Z" transform="translate(0 4.98)"/><path class="cls-8" d="M196.29,244.27a.11.11,0,0,1,.08,0l8.48,2s0,.07,0,.09l-1.28.57a.21.21,0,0,1-.13,0l-8.27-2a.11.11,0,0,1,0-.22Z" transform="translate(0 4.98)"/><path class="cls-8" d="M187,242.07h.09l8.47,2s0,.07,0,.09l-1.28.57a.21.21,0,0,1-.13,0l-8.27-2a.11.11,0,0,1,0-.22Z" transform="translate(0 4.98)"/><path class="cls-8" d="M177.77,239.87h.09l8.47,2s0,.08,0,.1l-1.27.57a.2.2,0,0,1-.13,0l-8.27-2c-.11,0-.11-.17,0-.22Z" transform="translate(0 4.98)"/><path class="cls-8" d="M168.52,237.67h.08l8.48,2s0,.08,0,.1l-1.26.57a.2.2,0,0,1-.13,0l-8.27-2c-.11,0-.11-.17,0-.22Z" transform="translate(0 4.98)"/><path class="cls-8" d="M161.23,235.94a.14.14,0,0,1,.09,0l6.5,1.56s0,.08,0,.1l-1.26.57a.2.2,0,0,1-.13,0l-6.29-1.5a.12.12,0,0,1,0-.22Z" transform="translate(0 4.98)"/><path class="cls-8" d="M242.73,258.36l2.27-1a.3.3,0,0,1,.16,0l5.81,1.41c.08,0,0,.14-.07.18l-2.5,1a.41.41,0,0,1-.26,0l-5.42-1.29C242.51,258.72,242.52,258.45,242.73,258.36Z" transform="translate(0 4.98)"/><path class="cls-8" d="M222.16,263.13l2.22-.94a.23.23,0,0,1,.16,0l5.76,1.4c.07,0,0,.14-.07.18l-2.44,1a.5.5,0,0,1-.26,0l-5.37-1.28A.21.21,0,0,1,222.16,263.13Z" transform="translate(0 4.98)"/><path class="cls-8" d="M215.27,261.5l2.22-.95a.3.3,0,0,1,.16,0l5.76,1.4c.07,0,0,.14-.07.18l-2.44,1a.39.39,0,0,1-.25,0l-5.38-1.28A.21.21,0,0,1,215.27,261.5Z" transform="translate(0 4.98)"/><path class="cls-8" d="M225.85,261.61l2.23-.95a.3.3,0,0,1,.16,0l5.77,1.41c.08,0,0,.13-.07.17l-2.45,1a.49.49,0,0,1-.26,0L225.84,262C225.64,262,225.64,261.7,225.85,261.61Z" transform="translate(0 4.98)"/><path class="cls-8" d="M219,260l2.22-1a.23.23,0,0,1,.16,0l5.77,1.4c.08,0,0,.14-.06.18l-2.45,1a.39.39,0,0,1-.25,0L219,260.38A.21.21,0,0,1,219,260Z" transform="translate(0 4.98)"/><path class="cls-8" d="M212.05,258.33l2.21-1a.3.3,0,0,1,.16,0l5.78,1.4c.07,0,0,.14-.07.18l-2.44,1a.39.39,0,0,1-.25,0l-5.39-1.28A.21.21,0,0,1,212.05,258.33Z" transform="translate(0 4.98)"/><path class="cls-8" d="M205.15,256.69l2.21-1a.22.22,0,0,1,.16,0l5.77,1.4c.07,0,0,.13-.07.18l-2.42,1a.41.41,0,0,1-.26,0l-5.38-1.28A.21.21,0,0,1,205.15,256.69Z" transform="translate(0 4.98)"/><path class="cls-8" d="M198.09,255l2.2-1a.22.22,0,0,1,.16,0l5.77,1.4c.07,0,0,.13-.07.18l-2.41,1a.39.39,0,0,1-.25,0l-5.39-1.28A.21.21,0,0,1,198.09,255Z" transform="translate(0 4.98)"/><path class="cls-8" d="M191.19,253.37l2.19-1a.3.3,0,0,1,.16,0l5.77,1.41c.07,0,0,.13-.06.17L196.84,255a.39.39,0,0,1-.25,0l-5.39-1.28A.21.21,0,0,1,191.19,253.37Z" transform="translate(0 4.98)"/><path class="cls-8" d="M184.29,251.73l2.18-1a.23.23,0,0,1,.16,0l5.77,1.4c.08,0,0,.14-.06.18l-2.39,1a.39.39,0,0,1-.25,0l-5.39-1.28A.21.21,0,0,1,184.29,251.73Z" transform="translate(0 4.98)"/><path class="cls-8" d="M177.4,250.09l2.16-1a.29.29,0,0,1,.16,0l5.77,1.4c.08,0,0,.14-.06.18l-2.38,1.05a.39.39,0,0,1-.25,0l-5.39-1.28A.21.21,0,0,1,177.4,250.09Z" transform="translate(0 4.98)"/><path class="cls-8" d="M170.33,248.41l2.16-1a.22.22,0,0,1,.16,0l5.77,1.4c.08,0,0,.13,0,.18L176,250.07a.45.45,0,0,1-.25,0l-5.39-1.28A.22.22,0,0,1,170.33,248.41Z" transform="translate(0 4.98)"/><path class="cls-8" d="M163.44,246.77l2.14-1a.3.3,0,0,1,.16,0l5.78,1.41c.07,0,0,.13-.06.18l-2.37,1.06a.34.34,0,0,1-.24,0l-5.39-1.28A.21.21,0,0,1,163.44,246.77Z" transform="translate(0 4.98)"/><path class="cls-8" d="M225.05,259l2.24-1a.29.29,0,0,1,.16,0l5.78,1.4c.08,0,0,.14-.06.18l-2.47,1.05a.45.45,0,0,1-.25,0l-5.4-1.28A.21.21,0,0,1,225.05,259Z" transform="translate(0 4.98)"/><path class="cls-8" d="M232.19,260.71l2.24-1a.33.33,0,0,1,.17,0l5.78,1.4c.07,0,0,.14-.07.18l-2.47,1a.41.41,0,0,1-.26,0l-5.4-1.29C232,261.06,232,260.79,232.19,260.71Z" transform="translate(0 4.98)"/><path class="cls-8" d="M218.14,257.36l2.22-.95a.33.33,0,0,1,.17,0l5.78,1.41c.07,0,0,.13-.07.18l-2.45,1a.39.39,0,0,1-.25,0l-5.4-1.29C217.93,257.73,217.93,257.45,218.14,257.36Z" transform="translate(0 4.98)"/><path class="cls-8" d="M211.22,255.72l2.22-1a.22.22,0,0,1,.16,0l5.79,1.4c.07,0,0,.14-.07.18l-2.44,1.05a.47.47,0,0,1-.25,0l-5.4-1.29A.21.21,0,0,1,211.22,255.72Z" transform="translate(0 4.98)"/><path class="cls-8" d="M204.31,254.08l2.21-1a.29.29,0,0,1,.16,0l5.78,1.41c.08,0,0,.13-.06.17l-2.43,1a.39.39,0,0,1-.25,0l-5.4-1.28A.21.21,0,0,1,204.31,254.08Z" transform="translate(0 4.98)"/><path class="cls-8" d="M197.23,252.39l2.2-1a.3.3,0,0,1,.16,0l5.79,1.41c.07,0,0,.14-.07.18l-2.42,1.05a.38.38,0,0,1-.25,0l-5.4-1.28A.22.22,0,0,1,197.23,252.39Z" transform="translate(0 4.98)"/><path class="cls-8" d="M190.32,250.75l2.19-1a.29.29,0,0,1,.16,0l5.79,1.4c.07,0,0,.14-.07.18L196,252.41a.47.47,0,0,1-.25,0l-5.4-1.29A.21.21,0,0,1,190.32,250.75Z" transform="translate(0 4.98)"/><path class="cls-8" d="M183.41,249.11l2.18-1a.29.29,0,0,1,.16,0l5.78,1.41c.08,0,0,.13-.06.18l-2.4,1.06a.38.38,0,0,1-.25,0l-5.4-1.28A.21.21,0,0,1,183.41,249.11Z" transform="translate(0 4.98)"/><path class="cls-8" d="M176.49,247.46l2.17-1a.22.22,0,0,1,.16,0l5.79,1.4c.07,0,0,.14-.06.18l-2.39,1.06a.39.39,0,0,1-.25,0l-5.4-1.28A.22.22,0,0,1,176.49,247.46Z" transform="translate(0 4.98)"/><path class="cls-8" d="M169.42,245.78l2.16-1a.22.22,0,0,1,.16,0l5.78,1.41c.08,0,0,.13-.06.18l-2.38,1.06a.35.35,0,0,1-.24,0l-5.41-1.29A.21.21,0,0,1,169.42,245.78Z" transform="translate(0 4.98)"/><path class="cls-8" d="M162.5,244.14l2.15-1a.3.3,0,0,1,.16,0l5.79,1.41c.07,0,0,.14-.06.18l-2.37,1.07a.37.37,0,0,1-.25,0l-5.4-1.28A.22.22,0,0,1,162.5,244.14Z" transform="translate(0 4.98)"/><path class="cls-8" d="M232.24,258.3l2.25-1a.3.3,0,0,1,.16,0l5.8,1.41c.08,0,0,.14-.07.18l-2.48,1a.38.38,0,0,1-.25,0l-5.41-1.28A.21.21,0,0,1,232.24,258.3Z" transform="translate(0 4.98)"/><path class="cls-8" d="M225.31,256.65l2.24-1a.33.33,0,0,1,.17,0l5.79,1.41c.08,0,0,.14-.07.18L231,258.31a.52.52,0,0,1-.26,0l-5.41-1.29A.21.21,0,0,1,225.31,256.65Z" transform="translate(0 4.98)"/><path class="cls-8" d="M218.38,255l2.23-1a.33.33,0,0,1,.17,0l5.8,1.41c.07,0,0,.14-.07.18l-2.46,1.05a.41.41,0,0,1-.26,0l-5.41-1.29A.21.21,0,0,1,218.38,255Z" transform="translate(0 4.98)"/><path class="cls-8" d="M211.45,253.35l2.23-1a.3.3,0,0,1,.16,0l5.8,1.41c.07,0,0,.14-.07.18L217.12,255a.38.38,0,0,1-.25,0l-5.41-1.28A.22.22,0,0,1,211.45,253.35Z" transform="translate(0 4.98)"/><path class="cls-8" d="M204.36,251.67l2.21-1a.25.25,0,0,1,.17,0l5.79,1.4c.08,0,0,.14-.06.18L210,253.33a.47.47,0,0,1-.25,0l-5.41-1.29A.21.21,0,0,1,204.36,251.67Z" transform="translate(0 4.98)"/><path class="cls-8" d="M197.43,250l2.21-1a.3.3,0,0,1,.16,0l5.8,1.41c.07,0,0,.14-.07.18l-2.42,1.06a.41.41,0,0,1-.26,0l-5.41-1.29A.21.21,0,0,1,197.43,250Z" transform="translate(0 4.98)"/><path class="cls-8" d="M190.5,248.37l2.2-1a.22.22,0,0,1,.16,0l5.8,1.4c.07,0,0,.14-.07.18L196.18,250a.38.38,0,0,1-.25,0l-5.42-1.28A.22.22,0,0,1,190.5,248.37Z" transform="translate(0 4.98)"/><path class="cls-8" d="M183.57,246.72l2.19-1a.3.3,0,0,1,.16,0l5.8,1.41c.07,0,0,.14-.06.18l-2.41,1.07a.47.47,0,0,1-.25,0l-5.41-1.29A.22.22,0,0,1,183.57,246.72Z" transform="translate(0 4.98)"/><path class="cls-8" d="M176.48,245l2.18-1a.22.22,0,0,1,.16,0l5.8,1.41c.07,0,0,.13-.06.18l-2.4,1.06a.38.38,0,0,1-.25,0l-5.41-1.29A.21.21,0,0,1,176.48,245Z" transform="translate(0 4.98)"/><path class="cls-8" d="M169.55,243.39l2.17-1a.22.22,0,0,1,.16,0l5.8,1.41c.07,0,0,.13-.06.18l-2.39,1.07a.34.34,0,0,1-.24,0l-5.42-1.28A.22.22,0,0,1,169.55,243.39Z" transform="translate(0 4.98)"/><path class="cls-8" d="M235.53,256.65l2.26-1a.29.29,0,0,1,.16,0l5.81,1.41c.07,0,0,.14-.07.18l-2.49,1.05a.47.47,0,0,1-.25,0l-5.43-1.29A.21.21,0,0,1,235.53,256.65Z" transform="translate(0 4.98)"/><path class="cls-8" d="M228.58,255l2.25-1a.35.35,0,0,1,.17,0l5.81,1.42c.07,0,0,.13-.07.17l-2.48,1.06a.49.49,0,0,1-.26,0l-5.42-1.29A.22.22,0,0,1,228.58,255Z" transform="translate(0 4.98)"/><path class="cls-8" d="M221.64,253.34l2.24-1a.23.23,0,0,1,.16,0l5.81,1.41c.08,0,0,.14-.06.18L227.32,255a.49.49,0,0,1-.26,0l-5.42-1.29A.22.22,0,0,1,221.64,253.34Z" transform="translate(0 4.98)"/><path class="cls-8" d="M214.69,251.69l2.24-1a.22.22,0,0,1,.16,0l5.81,1.41c.07,0,0,.14-.07.18l-2.46,1.06a.38.38,0,0,1-.25,0l-5.42-1.29A.21.21,0,0,1,214.69,251.69Z" transform="translate(0 4.98)"/><path class="cls-8" d="M207.59,250l2.22-1a.3.3,0,0,1,.16,0l5.81,1.42c.08,0,0,.13-.06.18l-2.45,1.06a.47.47,0,0,1-.25,0l-5.43-1.29A.22.22,0,0,1,207.59,250Z" transform="translate(0 4.98)"/><path class="cls-8" d="M200.64,248.35l2.22-1a.22.22,0,0,1,.16,0l5.81,1.41c.07,0,0,.14-.07.18L206.33,250a.49.49,0,0,1-.26,0l-5.42-1.29A.22.22,0,0,1,200.64,248.35Z" transform="translate(0 4.98)"/><path class="cls-8" d="M193.7,246.7l2.2-1a.22.22,0,0,1,.16,0l5.81,1.41c.08,0,0,.14-.06.18l-2.43,1.07a.37.37,0,0,1-.25,0l-5.42-1.29A.21.21,0,0,1,193.7,246.7Z" transform="translate(0 4.98)"/><path class="cls-8" d="M186.75,245.05l2.2-1a.3.3,0,0,1,.16,0l5.81,1.42c.07,0,0,.13-.06.18l-2.42,1.07a.38.38,0,0,1-.25,0l-5.42-1.29A.21.21,0,0,1,186.75,245.05Z" transform="translate(0 4.98)"/><path class="cls-8" d="M179.65,243.36l2.18-1a.23.23,0,0,1,.16,0l5.81,1.41c.08,0,0,.14-.06.18l-2.4,1.08a.38.38,0,0,1-.25,0l-5.43-1.29A.21.21,0,0,1,179.65,243.36Z" transform="translate(0 4.98)"/><path class="cls-8" d="M172.7,241.71l2.18-1a.22.22,0,0,1,.16,0l5.81,1.41c.07,0,0,.14-.06.18l-2.4,1.08a.37.37,0,0,1-.25,0l-5.42-1.29A.21.21,0,0,1,172.7,241.71Z" transform="translate(0 4.98)"/><path class="cls-8" d="M146.92,242.84l2.13-1a.3.3,0,0,1,.16,0l15.36,3.69c.08,0,0,.13,0,.18l-2.36,1.06a.37.37,0,0,1-.25,0l-15-3.55A.22.22,0,0,1,146.92,242.84Z" transform="translate(0 4.98)"/><path class="cls-8" d="M153.71,239.62l2.14-1a.3.3,0,0,1,.16,0l15,3.59c.07,0,0,.14-.06.18l-2.37,1.07a.39.39,0,0,1-.25,0L153.73,240A.22.22,0,0,1,153.71,239.62Z" transform="translate(0 4.98)"/><path class="cls-8" d="M157,238l2.16-1a.22.22,0,0,1,.16,0l14.48,3.47c.07,0,0,.14-.06.18l-2.38,1.08a.47.47,0,0,1-.25,0L157,238.39A.22.22,0,0,1,157,238Z" transform="translate(0 4.98)"/><path class="cls-8" d="M150.36,241.25l2.13-1a.3.3,0,0,1,.16,0l11,2.65c.07,0,0,.14-.06.18l-2.36,1.07a.45.45,0,0,1-.25,0l-10.61-2.53A.22.22,0,0,1,150.36,241.25Z" transform="translate(0 4.98)"/><path class="cls-8" d="M164.82,249.5l2.15-1a.23.23,0,0,1,.16,0l5.76,1.4c.07,0,0,.14-.06.18l-2.36,1.05a.39.39,0,0,1-.25,0l-5.38-1.28A.22.22,0,0,1,164.82,249.5Z" transform="translate(0 4.98)"/><path class="cls-8" d="M157.94,247.86l2.14-1a.22.22,0,0,1,.16,0l5.76,1.4c.07,0,0,.14-.06.18l-2.35,1.06a.38.38,0,0,1-.25,0L158,248.27A.22.22,0,0,1,157.94,247.86Z" transform="translate(0 4.98)"/><path class="cls-8" d="M151.06,246.23l2.12-1a.23.23,0,0,1,.16,0l5.76,1.4c.08,0,0,.14,0,.18l-2.34,1.06a.47.47,0,0,1-.25,0l-5.38-1.28A.22.22,0,0,1,151.06,246.23Z" transform="translate(0 4.98)"/><path class="cls-8" d="M143.69,244.47l2.12-1a.29.29,0,0,1,.16,0l6.24,1.51c.07,0,0,.14-.05.18l-2.33,1.06a.39.39,0,0,1-.25,0l-5.86-1.39A.22.22,0,0,1,143.69,244.47Z" transform="translate(0 4.98)"/><path class="cls-8" d="M172,251.19l2.15-1a.22.22,0,0,1,.16,0l42.25,10.07c.08,0,0,.14-.06.18l-2.43,1a.38.38,0,0,1-.25,0L172,251.6A.21.21,0,0,1,172,251.19Z" transform="translate(0 4.98)"/><path class="cls-8" d="M236,266.15l2.25-.94a.3.3,0,0,1,.16,0l5.76,1.4c.07,0,0,.14-.07.18l-2.47,1a.4.4,0,0,1-.26,0L236,266.55C235.77,266.5,235.78,266.24,236,266.15Z" transform="translate(0 4.98)"/><path class="cls-8" d="M232.88,263l2.24-.95a.29.29,0,0,1,.16,0l12.6,3c.08,0,0,.14-.07.18l-2.48,1a.39.39,0,0,1-.25,0l-12.21-2.9C232.67,263.37,232.67,263.1,232.88,263Z" transform="translate(0 4.98)"/><path class="cls-8" d="M239.3,262.13l2.25-1a.33.33,0,0,1,.17,0l9.69,2.33c.07,0,0,.14-.07.18l-2.49,1a.49.49,0,0,1-.26,0l-9.3-2.22C239.08,262.48,239.09,262.21,239.3,262.13Z" transform="translate(0 4.98)"/><path class="cls-8" d="M229.1,264.51l2.23-.94a.33.33,0,0,1,.17,0l5.75,1.4c.08,0,0,.14-.07.18l-2.45,1a.49.49,0,0,1-.26,0l-5.37-1.28A.21.21,0,0,1,229.1,264.51Z" transform="translate(0 4.98)"/><path class="cls-8" d="M246.48,261.41l2.27-1a.3.3,0,0,1,.16,0l5.8,1.41c.07,0,0,.14-.07.18l-2.5,1a.52.52,0,0,1-.26,0l-5.41-1.29C246.26,261.77,246.27,261.5,246.48,261.41Z" transform="translate(0 4.98)"/><path class="cls-8" d="M239.55,259.76l2.26-.95a.23.23,0,0,1,.16,0l5.8,1.41c.07,0,0,.14-.07.18l-2.49,1a.41.41,0,0,1-.26,0l-5.41-1.29C239.33,260.12,239.34,259.85,239.55,259.76Z" transform="translate(0 4.98)"/><path class="cls-8" d="M249.73,259.75l2.28-1a.33.33,0,0,1,.17,0l5.81,1.41c.07,0,0,.14-.08.18l-2.51,1.05a.38.38,0,0,1-.25,0l-5.43-1.29C249.51,260.11,249.52,259.84,249.73,259.75Z" transform="translate(0 4.98)"/><path class="cls-8" d="M251.89,257.23a.1.1,0,0,1,.09,0l8.47,2s0,.07,0,.09l-1.33.56a.3.3,0,0,1-.13,0l-8.27-2c-.11,0-.11-.17,0-.22Z" transform="translate(0 4.98)"/><path class="cls-8" d="M242.63,255a.14.14,0,0,1,.09,0l8.48,2s0,.07,0,.09l-1.32.56a.24.24,0,0,1-.14,0l-8.27-2c-.11,0-.11-.17,0-.22Z" transform="translate(0 4.98)"/><path class="cls-8" d="M233.38,252.82h.08l8.48,2s0,.07,0,.09l-1.31.56a.24.24,0,0,1-.14,0l-8.27-2c-.11,0-.1-.17,0-.22Z" transform="translate(0 4.98)"/><path class="cls-8" d="M224.12,250.62h.09l8.47,2s0,.08,0,.1l-1.3.56a.24.24,0,0,1-.14,0l-8.26-2c-.11,0-.11-.17,0-.22Z" transform="translate(0 4.98)"/><path class="cls-8" d="M214.86,248.42H215l8.47,2s0,.08,0,.1l-1.3.56a.24.24,0,0,1-.14,0l-8.26-2c-.11,0-.11-.17,0-.22Z" transform="translate(0 4.98)"/><path class="cls-8" d="M205.61,246.22a.11.11,0,0,1,.08,0l8.48,2s0,.07,0,.1l-1.29.56a.21.21,0,0,1-.13,0l-8.27-2c-.11,0-.11-.17,0-.22Z" transform="translate(0 4.98)"/><path class="cls-8" d="M196.35,244a.12.12,0,0,1,.08,0l8.48,2s0,.07,0,.1l-1.28.56a.21.21,0,0,1-.13,0l-8.27-2c-.11,0-.11-.17,0-.22Z" transform="translate(0 4.98)"/><path class="cls-8" d="M187.09,241.82a.14.14,0,0,1,.09,0l8.47,2s0,.07,0,.1l-1.28.56a.21.21,0,0,1-.13,0l-8.27-2a.12.12,0,0,1,0-.23Z" transform="translate(0 4.98)"/><path class="cls-8" d="M177.83,239.62a.1.1,0,0,1,.09,0l8.47,2s0,.07,0,.09l-1.27.57a.2.2,0,0,1-.13,0l-8.27-2a.12.12,0,0,1,0-.22Z" transform="translate(0 4.98)"/><path class="cls-8" d="M168.58,237.41h.08l8.48,2s0,.07,0,.09l-1.27.57a.2.2,0,0,1-.13,0l-8.27-2a.12.12,0,0,1,0-.22Z" transform="translate(0 4.98)"/><path class="cls-8" d="M161.3,235.68h.08l6.5,1.57s0,.07,0,.09l-1.26.57a.15.15,0,0,1-.13,0l-6.29-1.49a.11.11,0,0,1,0-.22Z" transform="translate(0 4.98)"/><path class="cls-8" d="M242.79,258.1l2.27-1a.22.22,0,0,1,.16,0l5.81,1.41c.08,0,0,.13-.07.18l-2.5,1a.4.4,0,0,1-.26,0l-5.42-1.29C242.57,258.46,242.58,258.19,242.79,258.1Z" transform="translate(0 4.98)"/><path class="cls-8" d="M222.22,262.88l2.22-.95a.22.22,0,0,1,.16,0l5.76,1.39c.07,0,0,.14-.07.18l-2.44,1a.41.41,0,0,1-.26,0l-5.37-1.28A.21.21,0,0,1,222.22,262.88Z" transform="translate(0 4.98)"/><path class="cls-8" d="M215.33,261.24l2.22-.95a.22.22,0,0,1,.16,0l5.76,1.4c.07,0,0,.13-.07.17l-2.44,1a.37.37,0,0,1-.25,0l-5.37-1.28C215.13,261.6,215.13,261.33,215.33,261.24Z" transform="translate(0 4.98)"/><path class="cls-8" d="M225.91,261.35l2.23-1a.29.29,0,0,1,.16,0l5.77,1.4c.08,0,0,.13-.07.18l-2.45,1a.41.41,0,0,1-.26,0l-5.39-1.28C225.7,261.71,225.7,261.44,225.91,261.35Z" transform="translate(0 4.98)"/><path class="cls-8" d="M219,259.71l2.22-.95a.22.22,0,0,1,.16,0l5.78,1.4c.07,0,0,.13-.07.17l-2.45,1a.39.39,0,0,1-.25,0L219,260.12A.21.21,0,0,1,219,259.71Z" transform="translate(0 4.98)"/><path class="cls-8" d="M212.11,258.07l2.21-.95a.33.33,0,0,1,.17,0l5.77,1.41c.07,0,0,.13-.07.17l-2.44,1.05a.44.44,0,0,1-.25,0l-5.39-1.28A.21.21,0,0,1,212.11,258.07Z" transform="translate(0 4.98)"/><path class="cls-8" d="M205.21,256.43l2.21-1a.23.23,0,0,1,.16,0l5.77,1.4c.07,0,0,.14-.07.18l-2.42,1a.45.45,0,0,1-.25,0l-5.39-1.28A.21.21,0,0,1,205.21,256.43Z" transform="translate(0 4.98)"/><path class="cls-8" d="M198.15,254.75l2.2-1a.29.29,0,0,1,.16,0l5.77,1.4c.07,0,0,.14-.07.18l-2.41,1.05a.38.38,0,0,1-.25,0l-5.39-1.28A.21.21,0,0,1,198.15,254.75Z" transform="translate(0 4.98)"/><path class="cls-8" d="M191.25,253.11l2.19-1a.22.22,0,0,1,.16,0l5.77,1.4c.07,0,0,.13-.06.18l-2.41,1.05a.37.37,0,0,1-.25,0l-5.39-1.28A.21.21,0,0,1,191.25,253.11Z" transform="translate(0 4.98)"/><path class="cls-8" d="M184.35,251.47l2.18-1a.3.3,0,0,1,.16,0l5.77,1.41c.08,0,0,.13-.06.17L190,253.13a.38.38,0,0,1-.25,0l-5.39-1.28A.21.21,0,0,1,184.35,251.47Z" transform="translate(0 4.98)"/><path class="cls-8" d="M177.46,249.83l2.16-1a.23.23,0,0,1,.16,0l5.78,1.4c.07,0,0,.14-.06.18l-2.39,1.06a.38.38,0,0,1-.25,0l-5.39-1.28A.21.21,0,0,1,177.46,249.83Z" transform="translate(0 4.98)"/><path class="cls-8" d="M170.4,248.15l2.15-1a.23.23,0,0,1,.16,0l5.78,1.4c.07,0,0,.14-.06.18l-2.38,1.06a.45.45,0,0,1-.25,0l-5.39-1.29A.21.21,0,0,1,170.4,248.15Z" transform="translate(0 4.98)"/><path class="cls-8" d="M163.5,246.51l2.15-1a.2.2,0,0,1,.15,0l5.78,1.4c.07,0,0,.14-.06.18l-2.36,1.06a.47.47,0,0,1-.25,0l-5.39-1.29A.21.21,0,0,1,163.5,246.51Z" transform="translate(0 4.98)"/><path class="cls-8" d="M225.11,258.75l2.24-.95a.23.23,0,0,1,.16,0l5.78,1.41c.08,0,0,.13-.06.17l-2.47,1.05a.47.47,0,0,1-.25,0l-5.4-1.29A.21.21,0,0,1,225.11,258.75Z" transform="translate(0 4.98)"/><path class="cls-8" d="M232.25,260.45l2.25-.95a.23.23,0,0,1,.16,0l5.78,1.41c.08,0,0,.13-.07.17l-2.47,1.05a.48.48,0,0,1-.26,0l-5.4-1.28C232,260.81,232,260.54,232.25,260.45Z" transform="translate(0 4.98)"/><path class="cls-8" d="M218.2,257.11l2.22-1a.25.25,0,0,1,.17,0l5.78,1.4c.08,0,0,.14-.07.18l-2.45,1a.38.38,0,0,1-.25,0l-5.4-1.28A.21.21,0,0,1,218.2,257.11Z" transform="translate(0 4.98)"/><path class="cls-8" d="M211.28,255.46l2.22-1a.29.29,0,0,1,.16,0l5.79,1.4c.07,0,0,.14-.07.18l-2.44,1.05a.39.39,0,0,1-.25,0l-5.4-1.29A.21.21,0,0,1,211.28,255.46Z" transform="translate(0 4.98)"/><path class="cls-8" d="M204.37,253.82l2.21-1a.3.3,0,0,1,.16,0l5.79,1.41c.07,0,0,.13-.07.18l-2.43,1a.47.47,0,0,1-.25,0l-5.4-1.29A.21.21,0,0,1,204.37,253.82Z" transform="translate(0 4.98)"/><path class="cls-8" d="M197.29,252.14l2.2-1a.29.29,0,0,1,.16,0l5.79,1.4c.07,0,0,.14-.07.18L203,253.8a.4.4,0,0,1-.26,0l-5.4-1.28A.21.21,0,0,1,197.29,252.14Z" transform="translate(0 4.98)"/><path class="cls-8" d="M190.38,250.49l2.19-1a.23.23,0,0,1,.16,0l5.79,1.41c.07,0,0,.13-.07.18L196,252.15a.38.38,0,0,1-.25,0l-5.4-1.28A.22.22,0,0,1,190.38,250.49Z" transform="translate(0 4.98)"/><path class="cls-8" d="M183.47,248.85l2.18-1a.22.22,0,0,1,.16,0l5.78,1.4c.08,0,0,.14-.06.18l-2.4,1.06a.47.47,0,0,1-.25,0l-5.4-1.29A.21.21,0,0,1,183.47,248.85Z" transform="translate(0 4.98)"/><path class="cls-8" d="M176.55,247.21l2.17-1a.29.29,0,0,1,.16,0l5.79,1.41c.07,0,0,.13-.06.17l-2.39,1.07a.38.38,0,0,1-.25,0l-5.4-1.28A.21.21,0,0,1,176.55,247.21Z" transform="translate(0 4.98)"/><path class="cls-8" d="M169.48,245.52l2.16-1a.3.3,0,0,1,.16,0l5.78,1.41c.08,0,0,.14-.06.18l-2.37,1.06a.39.39,0,0,1-.25,0l-5.4-1.28A.22.22,0,0,1,169.48,245.52Z" transform="translate(0 4.98)"/><path class="cls-8" d="M162.56,243.88l2.15-1a.3.3,0,0,1,.16,0l5.79,1.4c.07,0,0,.14-.06.18l-2.37,1.07a.35.35,0,0,1-.24,0l-5.41-1.29A.22.22,0,0,1,162.56,243.88Z" transform="translate(0 4.98)"/><path class="cls-8" d="M232.3,258l2.25-1a.25.25,0,0,1,.17,0l5.79,1.41c.08,0,0,.13-.07.17L238,259.7a.47.47,0,0,1-.25,0l-5.41-1.29A.21.21,0,0,1,232.3,258Z" transform="translate(0 4.98)"/><path class="cls-8" d="M225.37,256.39l2.24-1a.25.25,0,0,1,.17,0l5.79,1.41c.08,0,0,.13-.07.17L231,258.05a.41.41,0,0,1-.26,0l-5.41-1.29A.21.21,0,0,1,225.37,256.39Z" transform="translate(0 4.98)"/><path class="cls-8" d="M218.44,254.74l2.24-1a.22.22,0,0,1,.16,0l5.8,1.41c.07,0,0,.13-.07.17l-2.46,1.06a.38.38,0,0,1-.25,0l-5.42-1.28A.22.22,0,0,1,218.44,254.74Z" transform="translate(0 4.98)"/><path class="cls-8" d="M211.51,253.1l2.23-1a.22.22,0,0,1,.16,0l5.8,1.41c.07,0,0,.13-.07.17l-2.45,1.06a.47.47,0,0,1-.25,0l-5.41-1.29A.21.21,0,0,1,211.51,253.1Z" transform="translate(0 4.98)"/><path class="cls-8" d="M204.42,251.41l2.22-1a.29.29,0,0,1,.16,0l5.79,1.41c.08,0,0,.13-.06.18l-2.44,1a.39.39,0,0,1-.25,0l-5.41-1.29A.21.21,0,0,1,204.42,251.41Z" transform="translate(0 4.98)"/><path class="cls-8" d="M197.49,249.76l2.21-1a.29.29,0,0,1,.16,0l5.8,1.41c.07,0,0,.13-.07.18l-2.42,1.06a.4.4,0,0,1-.26,0l-5.41-1.28A.22.22,0,0,1,197.49,249.76Z" transform="translate(0 4.98)"/><path class="cls-8" d="M190.56,248.12l2.2-1a.29.29,0,0,1,.16,0l5.8,1.41c.07,0,0,.13-.07.18l-2.41,1.06a.47.47,0,0,1-.25,0l-5.41-1.29A.21.21,0,0,1,190.56,248.12Z" transform="translate(0 4.98)"/><path class="cls-8" d="M183.64,246.47l2.18-1a.29.29,0,0,1,.16,0l5.8,1.41c.07,0,0,.13-.06.18l-2.41,1.06a.39.39,0,0,1-.25,0l-5.41-1.29A.21.21,0,0,1,183.64,246.47Z" transform="translate(0 4.98)"/><path class="cls-8" d="M176.54,244.78l2.18-1a.23.23,0,0,1,.16,0l5.8,1.41c.07,0,0,.14-.06.18l-2.4,1.07a.37.37,0,0,1-.25,0l-5.41-1.28A.22.22,0,0,1,176.54,244.78Z" transform="translate(0 4.98)"/><path class="cls-8" d="M169.61,243.13l2.17-1a.23.23,0,0,1,.16,0l5.8,1.41c.07,0,0,.14-.06.18l-2.38,1.07a.47.47,0,0,1-.25,0l-5.42-1.29A.22.22,0,0,1,169.61,243.13Z" transform="translate(0 4.98)"/><path class="cls-8" d="M235.59,256.39l2.26-1a.23.23,0,0,1,.16,0l5.81,1.41c.08,0,0,.14-.07.18l-2.49,1.05a.39.39,0,0,1-.25,0l-5.43-1.29C235.37,256.75,235.38,256.48,235.59,256.39Z" transform="translate(0 4.98)"/><path class="cls-8" d="M228.64,254.74l2.26-1a.29.29,0,0,1,.16,0l5.81,1.41c.07,0,0,.14-.07.18l-2.48,1a.39.39,0,0,1-.25,0l-5.43-1.29A.21.21,0,0,1,228.64,254.74Z" transform="translate(0 4.98)"/><path class="cls-8" d="M221.7,253.09l2.24-1a.31.31,0,0,1,.16,0l5.82,1.42c.07,0,0,.13-.07.17l-2.47,1.06a.41.41,0,0,1-.26,0l-5.42-1.29A.21.21,0,0,1,221.7,253.09Z" transform="translate(0 4.98)"/><path class="cls-8" d="M214.76,251.44l2.23-1a.23.23,0,0,1,.16,0l5.81,1.41c.07,0,0,.14-.07.18l-2.45,1.06a.41.41,0,0,1-.26,0l-5.42-1.29A.21.21,0,0,1,214.76,251.44Z" transform="translate(0 4.98)"/><path class="cls-8" d="M207.65,249.74l2.22-1a.29.29,0,0,1,.16,0l5.81,1.41c.08,0,0,.14-.06.18l-2.45,1.06a.39.39,0,0,1-.25,0l-5.43-1.29C207.44,250.11,207.44,249.84,207.65,249.74Z" transform="translate(0 4.98)"/><path class="cls-8" d="M200.7,248.09l2.22-1a.3.3,0,0,1,.16,0l5.81,1.42c.07,0,0,.13-.07.18l-2.43,1.06a.39.39,0,0,1-.25,0l-5.43-1.29A.22.22,0,0,1,200.7,248.09Z" transform="translate(0 4.98)"/><path class="cls-8" d="M193.76,246.44l2.2-1a.23.23,0,0,1,.16,0l5.82,1.41c.07,0,0,.14-.07.18l-2.42,1.07a.41.41,0,0,1-.26,0l-5.42-1.29A.22.22,0,0,1,193.76,246.44Z" transform="translate(0 4.98)"/><path class="cls-8" d="M186.81,244.79l2.2-1a.22.22,0,0,1,.16,0l5.81,1.41c.08,0,0,.14-.06.18l-2.42,1.07a.45.45,0,0,1-.25,0l-5.42-1.29A.22.22,0,0,1,186.81,244.79Z" transform="translate(0 4.98)"/><path class="cls-8" d="M179.71,243.1l2.18-1a.3.3,0,0,1,.16,0l5.81,1.42c.08,0,0,.13-.06.18l-2.4,1.07a.47.47,0,0,1-.25,0l-5.43-1.29A.22.22,0,0,1,179.71,243.1Z" transform="translate(0 4.98)"/><path class="cls-8" d="M172.76,241.45l2.18-1a.23.23,0,0,1,.16,0l5.81,1.41c.07,0,0,.14-.06.18l-2.39,1.08a.47.47,0,0,1-.25,0l-5.43-1.29A.22.22,0,0,1,172.76,241.45Z" transform="translate(0 4.98)"/><path class="cls-8" d="M147,242.59l2.12-1a.22.22,0,0,1,.16,0l15.36,3.68c.08,0,0,.13,0,.18l-2.36,1.06a.37.37,0,0,1-.25,0L147,243A.22.22,0,0,1,147,242.59Z" transform="translate(0 4.98)"/><path class="cls-8" d="M153.77,239.37l2.14-1a.22.22,0,0,1,.16,0L171,242c.07,0,0,.14-.06.18l-2.37,1.07a.39.39,0,0,1-.25,0l-14.55-3.46A.22.22,0,0,1,153.77,239.37Z" transform="translate(0 4.98)"/><path class="cls-8" d="M157.05,237.71l2.15-1a.23.23,0,0,1,.16,0l14.48,3.47c.07,0,0,.14-.06.18l-2.38,1.08a.39.39,0,0,1-.25,0l-14.08-3.35A.22.22,0,0,1,157.05,237.71Z" transform="translate(0 4.98)"/><path class="cls-8" d="M150.42,241l2.13-1a.22.22,0,0,1,.16,0l11,2.64c.07,0,0,.14-.06.18l-2.36,1.07a.38.38,0,0,1-.25,0l-10.61-2.52A.22.22,0,0,1,150.42,241Z" transform="translate(0 4.98)"/><path class="cls-8" d="M164.88,249.24l2.15-1a.3.3,0,0,1,.16,0l5.76,1.4c.07,0,0,.14-.06.18l-2.36,1a.33.33,0,0,1-.25,0l-5.37-1.28A.21.21,0,0,1,164.88,249.24Z" transform="translate(0 4.98)"/><path class="cls-8" d="M158,247.61l2.14-1a.29.29,0,0,1,.16,0l5.76,1.4c.07,0,0,.14-.06.18l-2.35,1.06a.47.47,0,0,1-.25,0L158,248A.22.22,0,0,1,158,247.61Z" transform="translate(0 4.98)"/><path class="cls-8" d="M151.12,246l2.13-1a.19.19,0,0,1,.15,0l5.76,1.4c.08,0,0,.13,0,.17l-2.34,1.06a.39.39,0,0,1-.25,0l-5.38-1.28A.22.22,0,0,1,151.12,246Z" transform="translate(0 4.98)"/><path class="cls-8" d="M143.75,244.22l2.12-1a.3.3,0,0,1,.16,0l6.24,1.52c.07,0,0,.13-.05.18L149.89,246a.38.38,0,0,1-.25,0l-5.86-1.39A.21.21,0,0,1,143.75,244.22Z" transform="translate(0 4.98)"/><path class="cls-8" d="M172,250.94l2.16-1a.22.22,0,0,1,.16,0L216.58,260c.07,0,0,.13-.07.17l-2.43,1a.45.45,0,0,1-.25,0L172,251.35A.21.21,0,0,1,172,250.94Z" transform="translate(0 4.98)"/><polygon class="cls-11" points="201.72 271.11 201.68 271.28 167.99 263.27 168.03 263.1 201.72 271.11"/><polygon class="cls-11" points="185.11 267.31 182.15 268.85 182.05 268.7 185.01 267.16 185.11 267.31"/><path class="cls-9" d="M162.51,378.44c-7.49,21.45-9.37,39.75,2.32,49.61,7.3-.83,29.41,2.36,33.21,3.16,17.5-11.59,14.41-41.29,18.24-60.84,8.19-41.7-4.88-53.95-27.25-61.76-26.71-8.74-44-15.27-71.64-12.22-8.86,1-26.95,13.37-27.65,22.43-2.69,34.31,48.14,37.87,71,39.75C174.71,359.72,165.18,370.78,162.51,378.44Z" transform="translate(0 4.98)"/><path class="cls-8" d="M164,358.93l-.75-.33c.18-.4,4.44-9.81,11.84-11.58,3.56-.85,7.23.23,10.92,3.23l-.52.63c-3.47-2.82-6.91-3.86-10.21-3.07C168.24,349.49,164,358.84,164,358.93Z" transform="translate(0 4.98)"/><path class="cls-5" d="M150.19,253.73c3.8-21.09-9.33-61.15-10.56-63-4.18-6.44-18.54-14.6-23.57-13.14C91.4,184.72,62,227.87,62,257.48c0,35.45,8.2,65.4,27.11,77.36,0,0,29.22-24.39,40.33-42.29,2.78-3.75,14.68-17.31,7.56-15.71.36-.46,1.48-2.43-.7-2.33C136.87,272.94,148.9,260.91,150.19,253.73Z" transform="translate(0 4.98)"/><path class="cls-8" d="M89.12,335.27l-.21-.13C71.33,324,61.64,296.44,61.64,257.48c0-29.52,29.45-73,54.33-80.26,5.07-1.48,19.61,6.59,23.95,13.28,1.35,2.08,14.4,42.21,10.61,63.29h0c-.94,5.24-7.38,12.87-11.23,17.44-1,1.23-2,2.33-2.42,3a1.22,1.22,0,0,1,.94.6,1.86,1.86,0,0,1-.15,1.59,1.64,1.64,0,0,1,1.7.59c1.17,1.86-3,7.38-7.76,13.35-.79,1-1.46,1.84-1.9,2.43-11,17.73-40.1,42.11-40.39,42.36Zm28.3-157.54a4.84,4.84,0,0,0-1.26.15c-24.65,7.17-53.82,50.32-53.82,79.6,0,38.55,9.49,65.86,26.73,76.93,2.56-2.16,29.58-25.15,40.06-42.05.46-.62,1.14-1.47,1.94-2.47,2.83-3.55,8.72-10.95,7.71-12.55-.24-.4-1.07-.31-1.71-.16l-.95.21.6-.76c.27-.36.67-1.16.49-1.52s-.62-.26-.9-.25l-.53,0,.19-.49a22.17,22.17,0,0,1,2.8-3.61c3.81-4.51,10.17-12.06,11.08-17.11,3.76-20.92-9.17-60.73-10.51-62.8C135.53,185,123.06,177.73,117.42,177.73Z" transform="translate(0 4.98)"/><path class="cls-12" d="M97.15,226.38c1.81,3,12.07,19.69,14.28,22.37,2.87-3.44,4-4.81,5.19-8.61-6.28-15.41-2.54-34.13-7.54-47.14C105.71,200,93,219.61,97.15,226.38Z" transform="translate(0 4.98)"/><path class="cls-8" d="M111.67,287.94l-.28-.77a39,39,0,0,0,6.56-3.11,8.41,8.41,0,0,0,3.55-3.3l.73.36a9.35,9.35,0,0,1-3.86,3.65A40.61,40.61,0,0,1,111.67,287.94Z" transform="translate(0 4.98)"/><path class="cls-8" d="M107.83,291.24l-.08-.82a21.55,21.55,0,0,0,9.17-3.06l.43.7A22.45,22.45,0,0,1,107.83,291.24Z" transform="translate(0 4.98)"/><path class="cls-5" d="M205.39,256.8c2.22-1.56,5.3-1.5,6.65-4.15a13.53,13.53,0,0,1,3.67-4.33,39.68,39.68,0,0,0,9.75,8.71c2.88,1.61,4.91,1.51,3.86.22-2.39-2.94-8.38-12.17-11.74-15.23l-.1-.06c-2-2.47-12.09-7.74-14.26-8.2-3.24-.68-9.18-.64-16.27,3.71C175.71,246.14,136,256,131.72,259.2,117.9,269.52,132.6,293,148.14,287c12.38-4.77,36.35-28.7,44.52-39.15h0c4.24-5.45,1.2,3.29,4,6S203.17,258.35,205.39,256.8Z" transform="translate(0 4.98)"/><path class="cls-8" d="M143,288.32c-6.46,0-11.94-4.51-14.79-9.66-3.11-5.64-4.11-14.19,3.32-19.73,1.66-1.24,8.22-3.37,16.53-6.07,13.39-4.34,31.72-10.29,38.69-15.67,7.95-4.87,14.22-4.26,16.55-3.76s12.22,5.67,14.42,8.26l.1.08c2.26,2,5.68,6.84,8.42,10.68,1.38,1.94,2.57,3.61,3.36,4.58.53.65.36,1.05.21,1.23-.63.74-2.78,0-4.51-.93a39.52,39.52,0,0,1-9.62-8.51l-.16.14a12,12,0,0,0-3.16,3.84c-.92,1.81-2.58,2.44-4.18,3a12,12,0,0,0-2.58,1.23h0c-2.54,1.77-6.38-.38-9.12-3-1.34-1.28-1.46-3.64-1.56-5.54,0-.79-.1-2-.32-2.12,0,0-.39,0-1.65,1.62l-.34.44v0c-8.76,11-32.29,34.2-44.33,38.84A14.77,14.77,0,0,1,143,288.32Zm56.93-54.53a24.48,24.48,0,0,0-12.79,4c-7,5.44-25.43,11.4-38.86,15.76-7.93,2.57-14.77,4.79-16.34,6-7.07,5.28-6.1,13.45-3.12,18.85,3.45,6.25,10.93,11.52,19.21,8.33,12.09-4.66,35.94-28.26,44.37-39l.34-.44v0c1-1.18,1.58-1.59,2.08-1.43.66.21.71,1.22.79,2.75.09,1.77.21,4,1.35,5.07,2.43,2.31,6,4.46,8.24,2.92h0a12.44,12.44,0,0,1,2.73-1.31c1.55-.59,3-1.14,3.81-2.71a12.8,12.8,0,0,1,3.32-4.05l.7-.62.23.28a38.89,38.89,0,0,0,9.65,8.62c2.12,1.19,3.45,1.27,3.63,1.1,0,0,0-.12-.21-.35-.8-1-2-2.67-3.39-4.62-2.72-3.81-6.11-8.56-8.32-10.57l-.13-.1c-2-2.43-12-7.64-14.06-8.08A16,16,0,0,0,199.92,233.79Z" transform="translate(0 4.98)"/><path class="cls-7" d="M121,272c7.77,5.42,41.34-4,41.18-8.6-.72-21.48-11.71-48.19-19.21-64.66-3.94-8.65-15.67-15.25-24.66-12.18-12.7,4.34-18,20.07-16.88,27.62C102,218,115.29,268.05,121,272Z" transform="translate(0 4.98)"/><path class="cls-8" d="M136.51,255.69c-.21-.16-21.18-15.82-24.51-31.58l.8-.17c3.27,15.46,24,30.93,24.2,31.09Z" transform="translate(0 4.98)"/><path class="cls-8" d="M199,391.91a3.88,3.88,0,0,1-2-2.66c-2.08-7.06,5-24.54,5.34-25.28l.76.3c-.08.18-7.31,18-5.31,24.75a2.86,2.86,0,0,0,1.92,2.27c3.11.77,8.32-4.51,8.37-4.56l.59.57c-.23.23-5.6,5.67-9.15,4.79A3.68,3.68,0,0,1,199,391.91Z" transform="translate(0 4.98)"/><path class="cls-13" d="M138.08,162.09a8,8,0,1,1-5.39-10A8,8,0,0,1,138.08,162.09Z" transform="translate(0 4.98)"/><path class="cls-8" d="M134,160.86a3.72,3.72,0,1,1-2.5-4.63A3.73,3.73,0,0,1,134,160.86Z" transform="translate(0 4.98)"/><path class="cls-5" d="M133.33,138.49s-1.82-1.71-6.13-.78a22.73,22.73,0,0,1,2.24,9.89,42.55,42.55,0,0,1-.65,8c-.23,1.39-1.54,3.25-1,4.61,1,2.47,4.82,1.58,5.41-.74C136.28,147.48,133.33,138.49,133.33,138.49Z" transform="translate(0 4.98)"/><path class="cls-8" d="M130.12,162a2.73,2.73,0,0,1-2.62-1.69c-.42-1,0-2.23.46-3.29a7.64,7.64,0,0,0,.49-1.5,43.52,43.52,0,0,0,.65-7.91,22.33,22.33,0,0,0-2.21-9.74l-.2-.4.44-.09c4.43-1,6.36.79,6.44.86l.09.15a41.43,41.43,0,0,1-.09,21.14,3.57,3.57,0,0,1-3.19,2.46Zm-2.41-24a23.08,23.08,0,0,1,2.08,9.63,44.8,44.8,0,0,1-.65,8,8.63,8.63,0,0,1-.53,1.64c-.39,1-.79,2-.47,2.77a2.09,2.09,0,0,0,2.19,1.26,2.85,2.85,0,0,0,2.56-1.94,41,41,0,0,0,.14-20.66C132.69,138.43,131,137.37,127.71,138Z" transform="translate(0 4.98)"/><path class="cls-8" d="M195,311.46c-.19-.09-19.14-8.55-30.45-10.12l.14-1c11.45,1.59,30.53,10.11,30.72,10.2Z" transform="translate(0 4.98)"/><path class="cls-8" d="M205,301.33s-19.16,2.44-24.56,3.81l11.52,4.46S202,302.49,205,301.33Z" transform="translate(0 4.98)"/><path class="cls-8" d="M364.47,294.89h-.06a1,1,0,0,1-.94-1,1,1,0,0,1-2-.15c-.38-4.05-.8-8.06-1.23-11.93a1,1,0,0,1,2-.22c.43,3.87.85,7.89,1.23,11.94.25-3.84.54-7.76.88-11.68a1,1,0,1,1,2,.17c-.34,4-.64,8-.9,12A1,1,0,0,1,364.47,294.89Zm2-24h-.11a1,1,0,0,1-.89-1.1c.42-4,.87-8,1.36-12A1,1,0,0,1,368,257a1,1,0,0,1,.87,1.11c-.48,3.92-.93,7.94-1.35,11.93A1,1,0,0,1,366.5,270.93Zm-6.7-.19a1,1,0,0,1-1-.87c-.54-4.05-1.12-8-1.73-11.86a1,1,0,0,1,2-.31c.6,3.83,1.19,7.84,1.74,11.91a1,1,0,0,1-.86,1.12Zm9.65-23.68h-.14a1,1,0,0,1-.85-1.13c.58-4,1.21-8,1.86-11.9a1,1,0,1,1,2,.33c-.65,3.86-1.27,7.85-1.85,11.85A1,1,0,0,1,369.45,247.06ZM356,247a1,1,0,0,1-1-.82c-.76-4-1.57-8-2.41-11.73a1,1,0,0,1,1.95-.43c.85,3.78,1.66,7.75,2.42,11.79a1,1,0,0,1-.8,1.17Zm-5.27-23.43a1,1,0,0,1-1-.74c-1.07-4-2.2-7.84-3.37-11.48a1,1,0,1,1,1.91-.61c1.18,3.67,2.32,7.56,3.39,11.57a1,1,0,0,1-.71,1.22A.78.78,0,0,1,350.75,223.6Zm22.7-.25a.68.68,0,0,1-.2,0,1,1,0,0,1-.79-1.17c.79-4,1.62-8,2.47-11.78a1,1,0,1,1,1.95.44c-.85,3.78-1.67,7.72-2.45,11.72A1,1,0,0,1,373.45,223.35Zm-154.6-6.22h-.16a1,1,0,0,1-.82-1.15,74.1,74.1,0,0,1,3.3-11.77,1,1,0,0,1,1.88.68,75.12,75.12,0,0,0-3.21,11.42A1,1,0,0,1,218.85,217.13Zm124.5-16.36a1,1,0,0,1-.93-.64c-1.52-3.85-3.13-7.52-4.8-10.9a1,1,0,0,1,1.79-.89c1.7,3.43,3.33,7.15,4.87,11.06a1,1,0,0,1-.56,1.3A1.21,1.21,0,0,1,343.35,200.77Zm35.39-.86-.25,0a1,1,0,0,1-.71-1.22c1-4,2.15-7.9,3.28-11.6a1,1,0,1,1,1.91.58c-1.12,3.67-2.22,7.55-3.26,11.53A1,1,0,0,1,378.74,199.91Zm-151.87-5.4a1,1,0,0,1-.46-.11,1,1,0,0,1-.43-1.34,87.47,87.47,0,0,1,6.23-10.42,1,1,0,1,1,1.64,1.15A84.8,84.8,0,0,0,227.76,194,1,1,0,0,1,226.87,194.51ZM483,191a1.85,1.85,0,0,1-1.88-1.75c-.07-.86-.14-1.77-.22-2.72a1,1,0,0,1,.9-1.09,1,1,0,0,1,1.09.91c.06.67.11,1.31.16,1.93.37-1.91.78-3.84,1.21-5.78a1,1,0,0,1,1.95.44c-.49,2.19-.95,4.39-1.35,6.52A1.86,1.86,0,0,1,483,191ZM332.65,179.32a1,1,0,0,1-.84-.46,77.71,77.71,0,0,0-7.09-9.46,1,1,0,1,1,1.49-1.33,79.76,79.76,0,0,1,7.28,9.71,1,1,0,0,1-.84,1.54ZM385.81,177a1,1,0,0,1-.34-.06,1,1,0,0,1-.6-1.28c1.42-3.93,2.92-7.71,4.45-11.23a1,1,0,0,1,1.84.8c-1.52,3.48-3,7.22-4.41,11.11A1,1,0,0,1,385.81,177Zm94.6-1.49a1,1,0,0,1-1-.84c-.65-4.07-1.44-8-2.34-11.7a1,1,0,0,1,.73-1.21,1,1,0,0,1,1.21.74c.92,3.74,1.72,7.73,2.38,11.86a1,1,0,0,1-.83,1.14Zm-239.79-.53a1,1,0,0,1-.73-1.69,72.71,72.71,0,0,1,9.11-8.05,1,1,0,0,1,1.19,1.61,70.07,70.07,0,0,0-8.85,7.82A1,1,0,0,1,240.62,174.93ZM488.23,172a1,1,0,0,1-.28,0,1,1,0,0,1-.68-1.24c1.13-3.9,2.39-7.76,3.73-11.49a1,1,0,0,1,1.88.68c-1.33,3.68-2.57,7.51-3.69,11.37A1,1,0,0,1,488.23,172ZM316.67,161.62a1,1,0,0,1-.59-.19,43.1,43.1,0,0,0-10.22-5.62,1,1,0,0,1,.71-1.87,45.31,45.31,0,0,1,10.7,5.88,1,1,0,0,1-.6,1.8Zm-56.87-.89a1,1,0,0,1-.44-1.89,71.7,71.7,0,0,1,11.29-4.47,1,1,0,0,1,1.24.67,1,1,0,0,1-.67,1.25,70.34,70.34,0,0,0-11,4.34A1,1,0,0,1,259.8,160.73ZM395.47,155a.89.89,0,0,1-.47-.12,1,1,0,0,1-.41-1.35,105.09,105.09,0,0,1,6.33-10.33,1,1,0,1,1,1.64,1.15,106.13,106.13,0,0,0-6.21,10.13A1,1,0,0,1,395.47,155Zm-112.84-1.19a1,1,0,0,1-.14-2q1.54-.22,3.15-.39a49.65,49.65,0,0,1,9-.13,1,1,0,0,1,.92,1.08,1,1,0,0,1-1.08.92,46.49,46.49,0,0,0-8.65.12c-1.05.11-2.07.24-3.08.38Zm191.94-1.59a1,1,0,0,1-.94-.65,74.3,74.3,0,0,0-4.91-10.77,1,1,0,1,1,1.74-1,75.67,75.67,0,0,1,5.05,11.06,1,1,0,0,1-.6,1.28A1,1,0,0,1,474.57,152.19Zm21.83-2.73a1.15,1.15,0,0,1-.41-.08,1,1,0,0,1-.51-1.32c1.67-3.77,3.46-7.42,5.32-10.86a1,1,0,0,1,1.76,1c-1.84,3.39-3.61,7-5.25,10.71A1,1,0,0,1,496.4,149.46Zm-87.06-14a1,1,0,0,1-.71-1.7,52.26,52.26,0,0,1,9.42-7.71,1,1,0,0,1,1.07,1.69,50.27,50.27,0,0,0-9.06,7.42A1,1,0,0,1,409.34,135.48Zm53.19-3.87a1,1,0,0,1-.72-.3,31.5,31.5,0,0,0-9.32-6.81,1,1,0,1,1,.84-1.82,33.72,33.72,0,0,1,9.92,7.24,1,1,0,0,1-.72,1.69Zm45.36-3.2a1,1,0,0,1-.56-.17,1,1,0,0,1-.27-1.39,107.44,107.44,0,0,1,7.29-9.66,1,1,0,0,1,1.52,1.3,105.29,105.29,0,0,0-7.15,9.48A1,1,0,0,1,507.89,128.41Zm-78.41-5.28a1,1,0,0,1-.26-2q.75-.19,1.5-.36a41.32,41.32,0,0,1,10.68-1,1,1,0,1,1-.09,2,39.06,39.06,0,0,0-10.16,1c-.48.11-.95.22-1.42.35A1.07,1.07,0,0,1,429.48,123.13Zm94-12.9a1,1,0,0,1-.67-1.74,80.41,80.41,0,0,1,9.59-7.44,1,1,0,0,1,1.38.28,1,1,0,0,1-.28,1.39,79.24,79.24,0,0,0-9.35,7.25A1,1,0,0,1,523.44,110.23Zm20-13.11a1,1,0,0,1-.4-1.92,72.18,72.18,0,0,1,11.45-4,1,1,0,1,1,.5,1.93A70.66,70.66,0,0,0,543.81,97,1,1,0,0,1,543.4,97.12Z" transform="translate(0 4.98)"/><polygon class="cls-8" points="555.32 107.16 570.94 94.76 552.39 87.43 555.32 107.16"/><path class="cls-5" d="M152.38,31.58l71.17.29c6.09,0,11,5.29,11,11.72l-.41,54.29c0,6.44-5.08,11.7-11.17,11.68l-37-.26-28.56,17.53,1.38-17.59-7,0c-6.09,0-11-5.29-11-11.72l.42-54.3C141.25,36.83,146.28,31.57,152.38,31.58Z" transform="translate(0 4.98)"/><path class="cls-8" d="M157,127.53l1.41-17.92-6.6,0a11,11,0,0,1-7.85-3.34,12.39,12.39,0,0,1-3.52-8.76l.41-54.29c.06-6.65,5.22-12,11.52-12h0l71.17.29a11,11,0,0,1,7.84,3.33,12.43,12.43,0,0,1,3.52,8.77l-.41,54.29a11.87,11.87,0,0,1-11.54,12l-36.89-.26Zm2.21-18.66-1.36,17.27,28-17.21H186l37,.26h0c5.9,0,10.73-5.07,10.78-11.31l.41-54.29a11.64,11.64,0,0,0-3.3-8.23,10.27,10.27,0,0,0-7.32-3.12L152.37,32h0c-5.89,0-10.73,5.06-10.77,11.31l-.42,54.29a11.61,11.61,0,0,0,3.31,8.23,10.27,10.27,0,0,0,7.31,3.12Z" transform="translate(0 4.98)"/><rect class="cls-7" x="159.91" y="86.75" width="9.95" height="16.79" rx="3.93"/><rect class="cls-9" x="174.59" y="74.82" width="9.95" height="28.72" rx="3.93"/><rect class="cls-7" x="190.84" y="66.02" width="9.95" height="37.52" rx="3.93"/><rect class="cls-9" x="206.76" y="55.69" width="9.95" height="47.85" rx="3.93"/><polygon class="cls-7" points="200.23 47.67 205.59 50.7 206 44.09 200.23 47.67"/><path class="cls-7" d="M161,71.07a.68.68,0,0,1-.61-.39.52.52,0,0,1,.45-.66c.27-.06,27.74-6.35,42.43-27.51a.76.76,0,0,1,.91-.19.5.5,0,0,1,.27.74c-15,21.54-42.94,27.94-43.22,28A.6.6,0,0,1,161,71.07Z" transform="translate(0 4.98)"/><path class="cls-5" d="M334.49,121c10.7-5.91,16.54-20.39,13.42-35.58s-14.05-26-26.11-27.38L321.59,57l-6.71,1.38c-14.56,3-23.38,19.95-19.69,37.89s18.48,30.06,33,27.07l6.51-1.17Z" transform="translate(0 4.98)"/><path class="cls-8" d="M323.78,124.28c-13.22,0-25.72-11.59-29.07-27.91a37.58,37.58,0,0,1,3.05-24.88c3.78-7.29,9.83-12.12,17-13.6L322,56.42l.24,1.19c12.4,1.57,23.14,12.91,26.18,27.73S346,115,335,121.27l.27,1.3-7,1.25A22.54,22.54,0,0,1,323.78,124.28Zm-2.58-66.7L315,58.86c-6.9,1.41-12.7,6.06-16.35,13.08a36.67,36.67,0,0,0-3,24.23c3.62,17.65,18.18,29.62,32.45,26.69l6-1.08-.2-1,.31-.17c10.78-6,16.2-20.36,13.18-35s-13.55-25.65-25.68-27l-.36,0Z" transform="translate(0 4.98)"/><path class="cls-2" d="M354.62,84.06c3.69,17.94-5.34,35.12-19.89,38.11s-29.15-9.34-32.83-27.28S307,60,321.59,57,350.94,66.12,354.62,84.06Z" transform="translate(0 4.98)"/><path class="cls-8" d="M330.39,123.16c-13.16,0-25.64-11.71-29-28.16-3.74-18.2,5.28-35.49,20.11-38.53,7.21-1.48,14.68.57,21,5.79A37.68,37.68,0,0,1,355.15,84h0c3.76,18.29-5.35,35.68-20.32,38.75A21.6,21.6,0,0,1,330.39,123.16Zm-4.32-66.08a21.54,21.54,0,0,0-4.37.45c-14.25,2.92-22.89,19.64-19.27,37.25,3.27,15.94,15.3,27.29,27.95,27.29a21.11,21.11,0,0,0,4.24-.43c14.38-3,23.11-19.76,19.47-37.47h0A36.57,36.57,0,0,0,341.84,63.1,24.92,24.92,0,0,0,326.07,57.08Z" transform="translate(0 4.98)"/><path class="cls-5" d="M349.92,85c3,14.74-4.39,28.85-16.35,31.3s-23.93-7.67-27-22.4,4.22-28.67,16.17-31.13S346.89,70.31,349.92,85Z" transform="translate(0 4.98)"/><path class="cls-8" d="M330,117.21A21.08,21.08,0,0,1,316.43,112,31.55,31.55,0,0,1,306.13,94c-3.08-15,4.35-29.2,16.55-31.71,5.94-1.22,12.09.48,17.33,4.77a32.27,32.27,0,0,1,7.79,38.43c-3.17,6.07-8.19,10.08-14.13,11.3A18.71,18.71,0,0,1,330,117.21Zm-3.49-54.28a17.41,17.41,0,0,0-3.58.37c-11.67,2.39-18.75,16.1-15.79,30.54a30.57,30.57,0,0,0,10,17.37c5,4.16,10.8,5.81,16.42,4.65s10.42-5,13.45-10.79a30.08,30.08,0,0,0,2.51-19.93h0a30,30,0,0,0-10.05-17.28A20.43,20.43,0,0,0,326.46,62.93Z" transform="translate(0 4.98)"/><path class="cls-5" d="M327.33,75.91a9.55,9.55,0,0,1,2.45.08,7.33,7.33,0,0,1,2.27.76A6.83,6.83,0,0,1,334,78.28a8.19,8.19,0,0,1,1.47,2.39l-2.91.68a5.9,5.9,0,0,0-2-2,4.57,4.57,0,0,0-2.58-.58l1.87,8.15c.64.11,1.29.23,1.92.36s1.25.28,1.85.45a12.73,12.73,0,0,1,1.7.65,7,7,0,0,1,1.45.92,5.58,5.58,0,0,1,1.12,1.3,5.67,5.67,0,0,1,.7,1.74,6.4,6.4,0,0,1,0,3,6.67,6.67,0,0,1-1.16,2.43,7.78,7.78,0,0,1-2,1.84,11.43,11.43,0,0,1-2.43,1.2l.94,4.07-3,.68-1-4.14a8,8,0,0,1-2.69-.44A8.83,8.83,0,0,1,325,99.69a10.14,10.14,0,0,1-2.06-2A11.4,11.4,0,0,1,321.38,95l3.1-.71a8.75,8.75,0,0,0,.9,1.62,6.87,6.87,0,0,0,1.15,1.29,5.07,5.07,0,0,0,1.36.87,4.68,4.68,0,0,0,1.52.4l-2-8.85c-.9-.17-1.77-.37-2.62-.6a10.86,10.86,0,0,1-2.35-.93,6.52,6.52,0,0,1-1.84-1.49,5.46,5.46,0,0,1-1.09-2.31,5.31,5.31,0,0,1,0-2.41,6.12,6.12,0,0,1,.94-2.18,7.65,7.65,0,0,1,1.7-1.81,9.34,9.34,0,0,1,2.29-1.29l-.6-2.61,3-.68Zm-4.82,7.56a3,3,0,0,0,.51,1.12,4,4,0,0,0,.9.83,6.4,6.4,0,0,0,1.23.6,13.9,13.9,0,0,0,1.49.42l-1.6-7a4.27,4.27,0,0,0-2.16,1.72A3,3,0,0,0,322.51,83.47Zm13,9.63a2.32,2.32,0,0,0-.61-1.13,4.17,4.17,0,0,0-1.14-.82,8.54,8.54,0,0,0-1.5-.61c-.55-.16-1.12-.3-1.7-.42L332.41,98A5.91,5.91,0,0,0,334,97.1a5.19,5.19,0,0,0,1.08-1.18,3.88,3.88,0,0,0,.54-1.36A3.6,3.6,0,0,0,335.55,93.1Z" transform="translate(0 4.98)"/><path class="cls-8" d="M330.67,106.14l-1-4.25a8.61,8.61,0,0,1-2.46-.45,9.67,9.67,0,0,1-2.58-1.36A10.82,10.82,0,0,1,322.5,98a11.36,11.36,0,0,1-1.57-2.79l-.21-.53,4.06-.93.16.38a8.07,8.07,0,0,0,.84,1.53,6.54,6.54,0,0,0,1.07,1.2,5,5,0,0,0,1.24.8,4.19,4.19,0,0,0,.68.23L327,90c-.83-.16-1.62-.35-2.35-.55a10.79,10.79,0,0,1-2.45-1,6.9,6.9,0,0,1-2-1.6,5.86,5.86,0,0,1-1.2-2.52,6,6,0,0,1,0-2.63,6.79,6.79,0,0,1,1-2.35,8.41,8.41,0,0,1,1.81-1.92,9.93,9.93,0,0,1,2-1.19l-.62-2.69,3.91-.9.62,2.68a10.25,10.25,0,0,1,2.14.11,8.52,8.52,0,0,1,2.42.81A7.68,7.68,0,0,1,334.36,78a9.18,9.18,0,0,1,1.56,2.53l.22.54-3.82.88-.19-.29a5.46,5.46,0,0,0-1.8-1.86,3.8,3.8,0,0,0-1.73-.5l1.66,7.22,1.62.31a19.3,19.3,0,0,1,1.89.46,13.43,13.43,0,0,1,1.76.67,7.63,7.63,0,0,1,1.57,1,5.93,5.93,0,0,1,1.22,1.41,6.14,6.14,0,0,1,.76,1.89,6.84,6.84,0,0,1,0,3.24,7.16,7.16,0,0,1-1.24,2.61,8.54,8.54,0,0,1-2.11,2,11.94,11.94,0,0,1-2.13,1.1l.95,4.13Zm-.19-5.23.93,4,2-.46-.93-4,.42-.14a11.25,11.25,0,0,0,2.33-1.16,7.45,7.45,0,0,0,1.86-1.72,6.09,6.09,0,0,0,1.07-2.25,5.83,5.83,0,0,0,0-2.78,4.9,4.9,0,0,0-1.65-2.77,6.69,6.69,0,0,0-1.36-.86,11.85,11.85,0,0,0-1.62-.61,17.53,17.53,0,0,0-1.8-.45l-1.92-.36-.32-.06-2.08-9,.59,0a5.09,5.09,0,0,1,2.86.64,6.33,6.33,0,0,1,1.95,1.89l2-.46a7.79,7.79,0,0,0-1.14-1.72,6.76,6.76,0,0,0-1.81-1.43,7.05,7.05,0,0,0-2.12-.7,9,9,0,0,0-2.32-.08l-.43,0-.59-2.55-2,.46.58,2.54-.39.16a8.86,8.86,0,0,0-2.17,1.22,7.51,7.51,0,0,0-1.6,1.69,6.06,6.06,0,0,0-.86,2,5,5,0,0,0,0,2.2,4.89,4.89,0,0,0,1,2.1,5.76,5.76,0,0,0,1.7,1.38,10.36,10.36,0,0,0,2.24.89c.8.21,1.67.41,2.59.59l.31.06L330,99l-.67,0a5.22,5.22,0,0,1-1.68-.44,5.41,5.41,0,0,1-1.48-1A7.71,7.71,0,0,1,325,96.19a8.52,8.52,0,0,1-.78-1.34l-2.13.49a10.2,10.2,0,0,0,1.21,2,9.94,9.94,0,0,0,2,1.93,8.6,8.6,0,0,0,2.32,1.22,7.74,7.74,0,0,0,2.52.41Zm1.57-2.28L330,89.49l.75.15c.59.12,1.18.26,1.74.43a8.79,8.79,0,0,1,1.59.64,5.31,5.31,0,0,1,1.27.92A2.88,2.88,0,0,1,336,93h0a4,4,0,0,1,.05,1.65,4.23,4.23,0,0,1-.61,1.55,5.3,5.3,0,0,1-1.18,1.29,6,6,0,0,1-1.71,1Zm-.8-7.86,1.5,6.52a4.65,4.65,0,0,0,.92-.58,4.15,4.15,0,0,0,1-1,3.12,3.12,0,0,0,.47-1.19,3.35,3.35,0,0,0,0-1.26,2,2,0,0,0-.49-.89,3.94,3.94,0,0,0-1-.74,7.93,7.93,0,0,0-1.42-.56C331.86,90.93,331.56,90.84,331.25,90.77Zm-3.95-3.68-.76-.17a13.15,13.15,0,0,1-1.55-.44,6.42,6.42,0,0,1-1.34-.65,4.37,4.37,0,0,1-1-.94,3.35,3.35,0,0,1-.6-1.31h0a3.52,3.52,0,0,1,.42-2.64,4.83,4.83,0,0,1,2.4-1.92l.54-.23Zm-2.6-6.91a3.4,3.4,0,0,0-1.4,1.26,2.47,2.47,0,0,0-.31,1.92h0a2.33,2.33,0,0,0,.42.93,3.38,3.38,0,0,0,.78.72,5.39,5.39,0,0,0,1.13.54c.21.08.43.15.66.22Z" transform="translate(0 4.98)"/><path class="cls-8" d="M323.78,124.15c-13.17,0-25.61-11.55-28.95-27.8a37.52,37.52,0,0,1,3-24.8c3.77-7.26,9.78-12.06,16.93-13.53l6.71-1.38c7.16-1.47,14.58.58,20.9,5.76A37.49,37.49,0,0,1,355,84a37.54,37.54,0,0,1-3.14,24.9c-3.83,7.33-9.88,12.17-17,13.64l-6.51,1.17A23,23,0,0,1,323.78,124.15Zm2.29-67.24a21.23,21.23,0,0,0-4.41.45L315,58.73c-6.93,1.43-12.77,6.1-16.43,13.16a36.77,36.77,0,0,0-3,24.31c3.26,15.91,15.4,27.22,28.23,27.22a21.67,21.67,0,0,0,4.37-.44l6.51-1.17c6.93-1.42,12.8-6.13,16.53-13.26a36.75,36.75,0,0,0,3.07-24.42h0A36.75,36.75,0,0,0,342,63,25.06,25.06,0,0,0,326.07,56.91Z" transform="translate(0 4.98)"/><path class="cls-5" d="M451.43,294.63c-11.29,0-22.5-9.06-26.79-22.73s-.32-27.35,8.83-33.83l-.3-.95,6-1.9c13.1-4.11,27.83,5.65,32.89,21.8s-1.46,32.57-14.56,36.67l-5.78,2Z" transform="translate(0 4.98)"/><path class="cls-8" d="M451.47,296.25l-.37-1.17c-11.64-.15-22.67-9.58-26.89-23.05s-.59-27.31,8.73-34.14l-.35-1.07,6.48-2c6.47-2,13.52-.84,19.85,3.36a34.76,34.76,0,0,1,13.61,18.73c5.13,16.36-1.53,33.07-14.86,37.25Zm.29-2.08.29.92,5.34-1.82c12.86-4,19.26-20.23,14.28-36.12a33.94,33.94,0,0,0-13.25-18.25c-6.1-4-12.88-5.19-19.08-3.24l-5.6,1.75.26.84-.27.19c-9.2,6.52-12.76,20.22-8.66,33.32s15,22.42,26.31,22.42h.38Z" transform="translate(0 4.98)"/><path class="cls-2" d="M418.6,273.79c5.06,16.15,20.06,26,33.16,21.88s19.36-20.61,14.3-36.76-19.79-25.9-32.89-21.79S413.54,257.64,418.6,273.79Z" transform="translate(0 4.98)"/><path class="cls-8" d="M445.56,297.12c-11.59,0-23.08-9.27-27.44-23.18h0a34.83,34.83,0,0,1,.49-23.19c2.8-7.07,7.92-12.08,14.41-14.11,13.34-4.19,28.38,5.74,33.52,22.12s-1.4,33.24-14.63,37.39A21.33,21.33,0,0,1,445.56,297.12Zm-6.26-60.44a20.25,20.25,0,0,0-6,.91c-6.19,1.94-11.08,6.75-13.77,13.53a33.8,33.8,0,0,0-.46,22.52h0c4.22,13.48,15.32,22.48,26.47,22.48a20,20,0,0,0,6.06-.93c12.7-4,19-20.19,14-36.13C461.38,245.64,450.36,236.68,439.3,236.68Z" transform="translate(0 4.98)"/><path class="cls-5" d="M422.84,272.48c4.16,13.26,16.48,21.34,27.24,18s15.9-16.92,11.75-30.19-16.26-21.27-27-17.9S418.69,259.21,422.84,272.48Z" transform="translate(0 4.98)"/><path class="cls-8" d="M445,291.67a20.55,20.55,0,0,1-11.27-3.59,29.81,29.81,0,0,1-10.93-34.54c2.31-5.82,6.52-9.95,11.86-11.62s11.15-.69,16.37,2.77a28.6,28.6,0,0,1,11.22,15.43,29.07,29.07,0,0,1-.29,19.1c-2.25,5.85-6.43,10-11.75,11.66A17.47,17.47,0,0,1,445,291.67ZM439.88,242a16.32,16.32,0,0,0-4.94.76c-5.07,1.59-9.08,5.52-11.29,11.08a27.77,27.77,0,0,0-.37,18.47h0a27.76,27.76,0,0,0,11,15c5.05,3.33,10.63,4.28,15.7,2.69s9-5.53,11.19-11.12a28.19,28.19,0,0,0,.26-18.5,27.79,27.79,0,0,0-10.85-14.95A19.36,19.36,0,0,0,439.88,242Z" transform="translate(0 4.98)"/><path class="cls-5" d="M438.62,254.92a9,9,0,0,1,2.26,0,6.73,6.73,0,0,1,2.13.58,6.38,6.38,0,0,1,1.87,1.32,7.45,7.45,0,0,1,1.48,2.14l-2.66.76a5.47,5.47,0,0,0-1.92-1.77,4.19,4.19,0,0,0-2.42-.39l2.13,7.42q.9.1,1.8.24c.59.08,1.17.19,1.73.32a12.33,12.33,0,0,1,1.59.51,6.33,6.33,0,0,1,1.39.79,5,5,0,0,1,1.1,1.14,5.3,5.3,0,0,1,.73,1.57,5.83,5.83,0,0,1,.18,2.78,5.89,5.89,0,0,1-.95,2.29,6.88,6.88,0,0,1-1.74,1.79,10.35,10.35,0,0,1-2.19,1.24l1.07,3.71-2.69.77-1.09-3.78a7.28,7.28,0,0,1-2.5-.26A8.56,8.56,0,0,1,437.6,277a9.52,9.52,0,0,1-2-1.77,10,10,0,0,1-1.53-2.39l2.83-.81a8,8,0,0,0,.91,1.46,7,7,0,0,0,1.12,1.13,5,5,0,0,0,1.3.74,4.32,4.32,0,0,0,1.42.28l-2.31-8.06c-.84-.11-1.66-.25-2.45-.42a10.16,10.16,0,0,1-2.22-.74,6,6,0,0,1-1.77-1.29,4.89,4.89,0,0,1-1.12-2.08,4.8,4.8,0,0,1-.14-2.22,5.77,5.77,0,0,1,.76-2.06,7.18,7.18,0,0,1,1.48-1.75,8.5,8.5,0,0,1,2.05-1.3l-.69-2.39,2.69-.77Zm-4.08,7.21a2.57,2.57,0,0,0,.53,1,3.12,3.12,0,0,0,.88.72,5.12,5.12,0,0,0,1.16.49,12.89,12.89,0,0,0,1.39.33l-1.82-6.36a4,4,0,0,0-1.91,1.7A2.74,2.74,0,0,0,434.54,262.13Zm12.51,8.24a2.08,2.08,0,0,0-.61-1,4,4,0,0,0-1.1-.71,7.07,7.07,0,0,0-1.41-.48c-.52-.12-1.05-.23-1.59-.31l2.05,7.16a5.22,5.22,0,0,0,1.41-.89,4.71,4.71,0,0,0,.94-1.13,3.58,3.58,0,0,0,.43-1.29A3.45,3.45,0,0,0,447.05,270.37Z" transform="translate(0 4.98)"/><path class="cls-8" d="M443.2,282.65l-1.12-3.87a7.6,7.6,0,0,1-2.28-.3,8.62,8.62,0,0,1-2.45-1.12,10.15,10.15,0,0,1-2.1-1.85,11.08,11.08,0,0,1-1.59-2.5l-.22-.48,3.7-1.06.17.34a8,8,0,0,0,.85,1.38,6.13,6.13,0,0,0,1,1.05,4.33,4.33,0,0,0,1.18.67,3.61,3.61,0,0,0,.64.19L439,268q-1.14-.17-2.19-.39a10.28,10.28,0,0,1-2.31-.77,6.52,6.52,0,0,1-1.91-1.39,5.47,5.47,0,0,1-1.23-2.26,5.59,5.59,0,0,1-.15-2.43,6.43,6.43,0,0,1,.82-2.21,7.48,7.48,0,0,1,1.58-1.86,8.86,8.86,0,0,1,1.8-1.21l-.71-2.45,3.56-1,.71,2.44a10.08,10.08,0,0,1,2,0,7.37,7.37,0,0,1,2.27.63,6.94,6.94,0,0,1,2,1.41,8.25,8.25,0,0,1,1.57,2.26l.23.48-3.49,1-.18-.27a5.1,5.1,0,0,0-1.76-1.62,3.54,3.54,0,0,0-1.61-.38l1.89,6.58c.5.07,1,.13,1.5.21a16.77,16.77,0,0,1,1.77.33,14.07,14.07,0,0,1,1.66.53,7,7,0,0,1,1.49.84,5.49,5.49,0,0,1,2,2.95,6.33,6.33,0,0,1,.2,3,6.74,6.74,0,0,1-1,2.47,7.76,7.76,0,0,1-1.85,1.9,11.21,11.21,0,0,1-1.91,1.12l1.08,3.77Zm-.44-4.81,1.06,3.69,1.82-.52-1.06-3.67.38-.15a10.08,10.08,0,0,0,2.09-1.18,7.06,7.06,0,0,0,1.64-1.68,5.83,5.83,0,0,0,.88-2.13,5.49,5.49,0,0,0-.18-2.57,4.84,4.84,0,0,0-.66-1.43,4.71,4.71,0,0,0-1-1,6.24,6.24,0,0,0-1.29-.73,12,12,0,0,0-1.53-.49c-.55-.13-1.11-.23-1.69-.32l-1.78-.23-.3,0-2.36-8.23.54-.06a4.72,4.72,0,0,1,2.67.45,5.67,5.67,0,0,1,1.89,1.65l1.82-.53a6.93,6.93,0,0,0-1.14-1.53,6,6,0,0,0-1.74-1.22,6.13,6.13,0,0,0-2-.55,8.62,8.62,0,0,0-2.15,0l-.39.06-.67-2.33-1.82.53.67,2.32-.35.16a8,8,0,0,0-1.94,1.24,6.45,6.45,0,0,0-1.39,1.63,5.4,5.4,0,0,0-.7,1.9,4.4,4.4,0,0,0,.13,2,4.5,4.5,0,0,0,1,1.89,5.81,5.81,0,0,0,1.64,1.19,9.17,9.17,0,0,0,2.11.7c.76.16,1.57.31,2.42.42l.29,0,2.57,9-.62,0a5.05,5.05,0,0,1-1.58-.32,5.34,5.34,0,0,1-1.41-.8,7.64,7.64,0,0,1-1.2-1.21,8.24,8.24,0,0,1-.78-1.2l-1.95.56a10,10,0,0,0,1.22,1.8,8.69,8.69,0,0,0,1.91,1.69,7.91,7.91,0,0,0,2.19,1,6.93,6.93,0,0,0,2.35.25Zm1.34-2.19-2.39-8.33.69.1c.55.08,1.1.19,1.63.32a8.11,8.11,0,0,1,1.51.51,4.69,4.69,0,0,1,1.21.79,2.6,2.6,0,0,1,.74,1.21h0a3.76,3.76,0,0,1,.13,1.52,4.07,4.07,0,0,1-.49,1.46,4.67,4.67,0,0,1-1,1.25,5.55,5.55,0,0,1-1.52,1ZM443,268.44l1.71,5.94a4.58,4.58,0,0,0,.82-.57,4.23,4.23,0,0,0,.84-1,3,3,0,0,0,.28-2.28,1.83,1.83,0,0,0-.49-.8,3.59,3.59,0,0,0-1-.62,7.27,7.27,0,0,0-1.34-.46C443.54,268.55,443.26,268.49,443,268.44Zm-3.83-3.2-.71-.12a13,13,0,0,1-1.45-.33,5.82,5.82,0,0,1-1.26-.53,3.8,3.8,0,0,1-1-.82,3,3,0,0,1-.62-1.18,3.18,3.18,0,0,1,.26-2.45,4.4,4.4,0,0,1,2.11-1.9l.49-.23ZM436.4,259a3.24,3.24,0,0,0-1.23,1.24A2.31,2.31,0,0,0,435,262h0a2.11,2.11,0,0,0,.44.84,2.7,2.7,0,0,0,.75.62,4.78,4.78,0,0,0,1.07.45l.62.16Z" transform="translate(0 4.98)"/><path class="cls-8" d="M457.65,294l-5.79,2c-6.44,2-13.5.82-19.88-3.38a36.1,36.1,0,0,1-13.22-41.8c2.79-7,7.87-12,14.3-14l6-1.89c6.44-2,13.45-.83,19.75,3.34a34.66,34.66,0,0,1,13.57,18.68c4.59,14.63-.29,29.54-10.93,35.44A20.49,20.49,0,0,1,457.65,294Zm-38.27-42.95a34.06,34.06,0,0,0-.46,22.63h0A34,34,0,0,0,432.35,292c6.21,4.09,13.07,5.26,19.3,3.31l5.79-2a20.25,20.25,0,0,0,3.73-1.6c10.36-5.75,15.1-20.33,10.61-34.65a34,34,0,0,0-13.3-18.31c-6.13-4.06-12.94-5.22-19.17-3.27l-6,1.9a20,20,0,0,0-3.77,1.61A23.19,23.19,0,0,0,419.38,251.06Z" transform="translate(0 4.98)"/></g></g></svg>