<svg xmlns="http://www.w3.org/2000/svg" xmlns:xlink="http://www.w3.org/1999/xlink" viewBox="0 0 564.13 473.54"><defs><style>.cls-1{fill:none;}.cls-2{fill:#e6e6e6;}.cls-3{clip-path:url(#clip-path);}.cls-4{fill:#f5f5f5;}.cls-5{fill:#fff;}.cls-6{fill:#dbdbdb;}.cls-7{fill:#ff5168;}.cls-8{fill:#34234d;}.cls-9{fill:#00b5f4;}.cls-10{fill:#212121;opacity:0.2;}.cls-11{fill:#221733;}.cls-12{fill:#e6a19b;}.cls-13{fill:#2b1d40;}.cls-14{fill:url(#Безымянный_градиент_17);}.cls-15{fill:url(#Безымянный_градиент_17-2);}.cls-16{fill:url(#Безымянный_градиент_17-3);}.cls-17{fill:url(#Безымянный_градиент_17-4);}.cls-18{fill:url(#Безымянный_градиент_17-5);}.cls-19{fill:url(#Безымянный_градиент_17-6);}.cls-20{fill:url(#Безымянный_градиент_17-7);}</style><clipPath id="clip-path" transform="translate(50.44)"><path class="cls-1" d="M73.21,193.4c140-52.78,98.39-159.71,234.35-166.78C415.15,21,468.25,134.35,462.92,244c-6.33,130-88.72,219.92-236.26,227.52C18.23,482.29-76.79,250,73.21,193.4Z"/></clipPath><linearGradient id="Безымянный_градиент_17" x1="-387.78" y1="235.58" x2="-380.4" y2="235.58" gradientTransform="translate(471.37)" gradientUnits="userSpaceOnUse"><stop offset="0" stop-color="#aaceff"/><stop offset="1" stop-color="#dbe9ff"/></linearGradient><linearGradient id="Безымянный_градиент_17-2" x1="-396.67" y1="235.58" x2="-389.29" y2="235.58" xlink:href="#Безымянный_градиент_17"/><linearGradient id="Безымянный_градиент_17-3" x1="-405.56" y1="235.58" x2="-398.18" y2="235.58" xlink:href="#Безымянный_градиент_17"/><linearGradient id="Безымянный_градиент_17-4" x1="-414.44" y1="235.58" x2="-407.06" y2="235.58" xlink:href="#Безымянный_градиент_17"/><linearGradient id="Безымянный_градиент_17-5" x1="-421.84" y1="235.58" x2="-417.53" y2="235.58" xlink:href="#Безымянный_градиент_17"/><linearGradient id="Безымянный_градиент_17-6" x1="-427.08" y1="235.58" x2="-422.77" y2="235.58" xlink:href="#Безымянный_градиент_17"/><linearGradient id="Безымянный_градиент_17-7" x1="-432.01" y1="235.58" x2="-427.7" y2="235.58" xlink:href="#Безымянный_градиент_17"/></defs><title>Asset 11</title><g id="Layer_2" data-name="Layer 2"><g id="Layer_1-2" data-name="Layer 1"><path class="cls-2" d="M111.8,153.93C145.74,129,217.34,16.06,127,47.85,45.75,76.43,11.58,227.64,111.8,153.93Z" transform="translate(50.44)"/><path class="cls-2" d="M73.21,193.4c140-52.78,98.39-159.71,234.35-166.78C415.15,21,468.25,134.35,462.92,244c-6.33,130-88.72,219.92-236.26,227.52C18.23,482.29-76.79,250,73.21,193.4Z" transform="translate(50.44)"/><g class="cls-3"><path class="cls-4" d="M-50.44,275.63c0,78.64,60,152.57,182.78,176.05,162.14,31,370.52,33,370.52-121.7,0-58.1,5.83-216.83-27.28-238.25H390.74v196.1L344.22,363.7v-156H312.76V143.76l-88.4-67.17v89H149.45V50.28c-22.53,2.84-44.08,13.09-63.08,29.26V246H52.46V208.24l-100.36-51C-50.69,173.23-50.44,258.19-50.44,275.63ZM137,324h58.35v37.77H137Zm36.12-137.71h26.9v109h-26.9Zm-39.36-78.5H103V84.54h30.75Zm0,29.49H103V114h30.75Zm0,29.48H103V143.51h30.75Zm0,29.49H103V173h30.75Zm307.77-38.16h-38V102.71h38Zm0,70.25h-38V173h38Zm0,70.24h-38V243.19h38Zm0,70.24h-38V313.43h38Zm-340.09-127h43.92V292.1H101.47Z" transform="translate(50.44)"/><rect class="cls-5" x="447.67" y="88.65" width="1.02" height="340.96"/><rect class="cls-5" x="348.76" y="10.99" width="1.02" height="418.62"/><rect class="cls-5" x="249.85" y="10.99" width="1.02" height="418.62"/><rect class="cls-5" x="150.95" y="10.99" width="1.02" height="418.62"/><rect class="cls-5" x="49.98" y="88.54" width="1.02" height="341.08"/><rect class="cls-6" x="12.55" y="430.16" width="479.59" height="43.38"/><rect class="cls-5" x="12.55" y="424.97" width="479.59" height="5.16"/><rect class="cls-5" x="12.55" y="359.98" width="479.59" height="1.02"/><rect class="cls-5" x="12.55" y="290.85" width="479.59" height="1.02"/><rect class="cls-5" x="12.55" y="221.72" width="479.59" height="1.02"/><rect class="cls-5" x="12.55" y="150.32" width="479.59" height="1.02"/><rect class="cls-5" x="12.55" y="78.92" width="479.59" height="1.02"/></g><polygon class="cls-7" points="261.17 472.93 193.76 472.93 250.36 334.43 317.76 334.43 261.17 472.93"/><polygon class="cls-8" points="313.75 417.64 317.79 334.43 250.38 334.43 246.34 417.64 313.75 417.64"/><polygon class="cls-7" points="313.75 417.64 246.34 417.64 302.86 282.87 370.27 282.87 313.75 417.64"/><rect class="cls-8" x="70.62" y="471.91" width="422.93" height="1.02"/><path class="cls-9" d="M337.34,369.84c24.63-22.58,57.19,35.91,54.08,59H379.11C367.15,423.07,317.39,388.12,337.34,369.84Z" transform="translate(50.44)"/><path class="cls-8" d="M385,429.05c-18.26-33.39-47.73-58.53-48-58.78l.73-.86c.3.25,29.93,25.53,48.28,59.1Z" transform="translate(50.44)"/><path class="cls-8" d="M370.52,406.17c-.87-.09-21.48-2.25-27.75-4.6l.4-1.05c6.13,2.3,27.26,4.51,27.47,4.54Z" transform="translate(50.44)"/><path class="cls-8" d="M355.55,386.51l-1-.42c2.87-7.14,3.43-18.63,3.44-18.75l1.12.06C359.05,367.87,358.49,379.19,355.55,386.51Z" transform="translate(50.44)"/><path class="cls-8" d="M380.52,391.08c7.55,13.23,12.16,28.4,10.89,37.76C374.21,413.84,377.8,393.55,380.52,391.08Z" transform="translate(50.44)"/><path class="cls-9" d="M400.51,354.11c21.86-9.09,15.28,45.48-3.92,74.73h-9C383.16,421.54,382.81,361.46,400.51,354.11Z" transform="translate(50.44)"/><path class="cls-8" d="M392,429l-1.1-.24c3.43-16.19,12.76-68.43,12.85-69l1.11.19C404.73,360.49,395.4,412.75,392,429Z" transform="translate(50.44)"/><rect class="cls-8" x="393.5" y="405.41" width="13.54" height="1.12" transform="translate(-119.4 403.34) rotate(-45.14)"/><rect class="cls-8" x="392.7" y="378.81" width="1.12" height="13.3" transform="translate(-97.72 485.93) rotate(-54.94)"/><path class="cls-5" d="M357.28,428.92v7.53a59.24,59.24,0,0,0,5.17,24.41l1.34,3,9,8.09h25.61l9.55-8.09,1.34-3a59.24,59.24,0,0,0,5.17-24.41v-7.53Z" transform="translate(50.44)"/><path class="cls-8" d="M398.56,472.32H372.64L363.41,464l-1.34-3a59.86,59.86,0,0,1-5.2-24.58v-7.94h58v7.94a59.86,59.86,0,0,1-5.2,24.58l-1.45,3.1ZM373,471.5h25.29l9.37-7.94,1.31-2.87a59.1,59.1,0,0,0,5.13-24.24v-7.11H357.69v7.11a59.1,59.1,0,0,0,5.13,24.24l1.31,2.88Z" transform="translate(50.44)"/><rect class="cls-8" x="408.07" y="447.3" width="42.6" height="1.12"/><rect class="cls-8" x="443.41" y="463.17" width="15.24" height="1.12"/><rect class="cls-5" x="146.78" y="459.36" width="95.92" height="12.7" rx="2.26" transform="translate(49.01 0.6) rotate(-0.18)"/><path class="cls-8" d="M149.06,472.92a3,3,0,0,1-2.1-.87,3,3,0,0,1-.88-2.1l0-8.18a2.91,2.91,0,0,1,.86-2.11,3,3,0,0,1,2.1-.88l91.4-.28h0a3,3,0,0,1,3,3l0,8.18a3,3,0,0,1-.87,2.11,2.92,2.92,0,0,1-2.1.87l-91.39.29Zm91.37-13h0l-91.39.28a1.54,1.54,0,0,0-1.54,1.55l0,8.19a1.56,1.56,0,0,0,1.55,1.54h0l91.4-.29a1.54,1.54,0,0,0,1.54-1.55l0-8.18a1.59,1.59,0,0,0-.46-1.09A1.54,1.54,0,0,0,240.43,459.93Z" transform="translate(50.44)"/><path class="cls-8" d="M243.18,461.47a2.65,2.65,0,0,0-.52-1.61,2.2,2.2,0,0,0-.28-.34.55.55,0,0,0-.18-.14,2,2,0,0,0-.85-.49,2.16,2.16,0,0,0-.92-.18l-37,.12L157,459h-1.5L149,459a2.77,2.77,0,0,0-2.74,2.77l0,8.18a2.77,2.77,0,0,0,2.75,2.74h0l54.4-.16,37-.11a2.79,2.79,0,0,0,1.95-.82,2.73,2.73,0,0,0,.8-2Zm-2.72,10-37,.11-54.4.16h0a1.76,1.76,0,0,1-1.24-.5,1.79,1.79,0,0,1-.52-1.25l0-8.18A1.76,1.76,0,0,1,149,460l7.79,0,46.66-.14,37-.11a1.39,1.39,0,0,1,.72.17,1.59,1.59,0,0,1,.52.35,1.71,1.71,0,0,1,.52,1.24l0,8.18a1.68,1.68,0,0,1-.52,1.25A1.76,1.76,0,0,1,240.46,471.43Z" transform="translate(50.44)"/><path class="cls-5" d="M249.1,459.36l-91.39.28a2.26,2.26,0,0,1-2.27-2.25l0-8.19a2.26,2.26,0,0,1,2.26-2.26l91.39-.28a2.25,2.25,0,0,1,2.27,2.25l0,8.18A2.27,2.27,0,0,1,249.1,459.36Z" transform="translate(50.44)"/><path class="cls-8" d="M157.7,460.35a3,3,0,0,1-2.1-.86,3,3,0,0,1-.88-2.1l0-8.19a3,3,0,0,1,3-3l91.4-.28h0a3,3,0,0,1,3,3l0,8.18a3,3,0,0,1-.86,2.11,3,3,0,0,1-2.1.87l-91.4.28Zm91.37-13h0l-91.4.28a1.5,1.5,0,0,0-1.09.46,1.54,1.54,0,0,0-.45,1.09l0,8.18a1.56,1.56,0,0,0,1.55,1.54h0l91.4-.28a1.54,1.54,0,0,0,1.54-1.55l0-8.18A1.56,1.56,0,0,0,249.07,447.37Z" transform="translate(50.44)"/><path class="cls-8" d="M251.82,448.91a2.73,2.73,0,0,0-2.76-2.75h-4.64l-46.66.14-40.1.13a2.61,2.61,0,0,0-1.53.49,2.47,2.47,0,0,0-.41.33l-.12.16a2.7,2.7,0,0,0-.68,1.79l0,8.18a2.64,2.64,0,0,0,.53,1.59,2.3,2.3,0,0,0,.47.51,3.1,3.1,0,0,0,1.77.64l45.76-.14,37.68-.11.86,0h7.09a2.73,2.73,0,0,0,2.75-2.76Zm-2.72,9.95-7.75,0-37.88.11-45.76.14h0A1.62,1.62,0,0,1,157,459a1.76,1.76,0,0,1-1-1.58l0-8.18a1.79,1.79,0,0,1,.51-1.26,1.77,1.77,0,0,1,1.24-.52l40.1-.12,51.3-.16a1.79,1.79,0,0,1,1.78,1.76l0,8.18a1.74,1.74,0,0,1-.5,1.25A1.79,1.79,0,0,1,249.1,458.86Z" transform="translate(50.44)"/><rect class="cls-5" x="149.37" y="434.09" width="95.92" height="12.7" rx="2.26" transform="translate(49.09 0.61) rotate(-0.18)"/><path class="cls-8" d="M151.65,447.65a3,3,0,0,1-3-3l0-8.19a3,3,0,0,1,3-3l91.4-.28h0a3,3,0,0,1,3,3l0,8.19a3,3,0,0,1-.87,2.1,2.91,2.91,0,0,1-2.1.88l-91.4.28Zm91.37-13h0l-91.4.28a1.55,1.55,0,0,0-1.54,1.55l0,8.18a1.54,1.54,0,0,0,1.55,1.54h0l91.4-.28a1.5,1.5,0,0,0,1.09-.46,1.54,1.54,0,0,0,.45-1.09l0-8.18A1.54,1.54,0,0,0,243,434.67Z" transform="translate(50.44)"/><path class="cls-8" d="M245.78,436.21a2.77,2.77,0,0,0-2.76-2.75H237l-51.92.16-33.42.11a1.93,1.93,0,0,0-.76.13,2.13,2.13,0,0,0-1,.48,1.88,1.88,0,0,0-.47.51,2.66,2.66,0,0,0-.57,1.65l0,8.17a2.75,2.75,0,0,0,2.76,2.75h4.64l41.47-.13,45.29-.14a2.66,2.66,0,0,0,1.53-.47,3.21,3.21,0,0,0,.41-.34.47.47,0,0,0,.14-.17,2.72,2.72,0,0,0,.66-1.78Zm-2.73,10-45.29.14-46.11.14a1.76,1.76,0,0,1-1.76-1.76l0-8.19a1.73,1.73,0,0,1,1.14-1.63,1.69,1.69,0,0,1,.63-.13l33.42-.11,52.11-.16H243a1.76,1.76,0,0,1,1.76,1.76l0,8.18a1.66,1.66,0,0,1-.5,1.25A1.77,1.77,0,0,1,243.05,446.16Z" transform="translate(50.44)"/><path class="cls-5" d="M236.35,434.09l-91.4.29a2.26,2.26,0,0,1-2.26-2.26l0-8.18a2.27,2.27,0,0,1,2.26-2.27l91.39-.28a2.26,2.26,0,0,1,2.27,2.25l0,8.19A2.26,2.26,0,0,1,236.35,434.09Z" transform="translate(50.44)"/><path class="cls-8" d="M145,435.09a3,3,0,0,1-3-3l0-8.19a3,3,0,0,1,3-3l91.4-.28h0a3,3,0,0,1,3,3l0,8.19a3,3,0,0,1-3,3l-91.39.28Zm91.37-13h0l-91.39.28a1.52,1.52,0,0,0-1.09.45,1.56,1.56,0,0,0-.45,1.1l0,8.18a1.55,1.55,0,0,0,1.55,1.54h0l91.4-.28a1.5,1.5,0,0,0,1.09-.46,1.54,1.54,0,0,0,.45-1.09l0-8.18A1.54,1.54,0,0,0,236.32,422.11Z" transform="translate(50.44)"/><path class="cls-8" d="M239.07,423.64a2.59,2.59,0,0,0-.61-1.7,1.33,1.33,0,0,0-.19-.24,3.61,3.61,0,0,0-.3-.25,3,3,0,0,0-1.09-.51h0a3.39,3.39,0,0,0-.55,0l-44.41.14-34.63.11h-1.71l-10.66,0a2.75,2.75,0,0,0-2.74,2.75l0,8.19a2.75,2.75,0,0,0,.82,1.95,2.72,2.72,0,0,0,1.93.8H151l34-.11,51.31-.16a2.63,2.63,0,0,0,.8-.13,2.31,2.31,0,0,0,.9-.48,1.21,1.21,0,0,0,.25-.21,1.81,1.81,0,0,0,.25-.3,2.71,2.71,0,0,0,.55-1.65ZM237,433.47a1.27,1.27,0,0,1-.61.13l-51.31.15-34.18.12h-5.92a1.78,1.78,0,0,1-1.76-1.76v-8.19a1.73,1.73,0,0,1,1.74-1.76l12.23,0h0l34.75-.11,44.41-.14a1.51,1.51,0,0,1,.42.05,1.66,1.66,0,0,1,.82.45,1.83,1.83,0,0,1,.52,1.26l0,8.18a1.75,1.75,0,0,1-.52,1.25A1.8,1.8,0,0,1,237,433.47Z" transform="translate(50.44)"/><path class="cls-5" d="M249.1,421.42l-91.39.28a2.27,2.27,0,0,1-2.27-2.26l0-8.18a2.27,2.27,0,0,1,2.26-2.27l91.39-.28a2.26,2.26,0,0,1,2.27,2.25l0,8.19A2.27,2.27,0,0,1,249.1,421.42Z" transform="translate(50.44)"/><path class="cls-8" d="M157.7,422.41a3,3,0,0,1-3-3l0-8.19a3,3,0,0,1,3-3l91.4-.28h0a3,3,0,0,1,2.1.86,3,3,0,0,1,.88,2.1l0,8.19a3,3,0,0,1-3,3l-91.4.28Zm91.37-13h0l-91.4.28a1.54,1.54,0,0,0-1.09.45,1.56,1.56,0,0,0-.45,1.1l0,8.18A1.56,1.56,0,0,0,157.7,421h0l91.4-.28a1.55,1.55,0,0,0,1.54-1.55l0-8.18a1.57,1.57,0,0,0-.46-1.09A1.54,1.54,0,0,0,249.07,409.43Z" transform="translate(50.44)"/><path class="cls-8" d="M251.82,411a2.73,2.73,0,0,0-1.07-2.18,1.83,1.83,0,0,0-.46-.28,2.22,2.22,0,0,0-.67-.23h0a1.9,1.9,0,0,0-.54-.07l-44.47.14-46.93.15a2.67,2.67,0,0,0-.5,0h0a2.28,2.28,0,0,0-.63.24,1.58,1.58,0,0,0-.46.28,2.51,2.51,0,0,0-.32.25,2.75,2.75,0,0,0-.8,2l0,8.18a2.71,2.71,0,0,0,.63,1.7.8.8,0,0,0,.19.23,1.52,1.52,0,0,0,.3.26,2.8,2.8,0,0,0,1.08.5h0a3.17,3.17,0,0,0,.53.05h0l34.2-.11,44.83-.14h1.72l10.64,0h0a2.75,2.75,0,0,0,2.74-2.75Zm-2.72,9.94-12.22,0h0l-45,.15-34.2.11h0a1.84,1.84,0,0,1-.41-.05,1.89,1.89,0,0,1-.83-.46,1.77,1.77,0,0,1-.52-1.24l0-8.18a1.77,1.77,0,0,1,.51-1.26,1.61,1.61,0,0,1,.74-.44h0a1.67,1.67,0,0,1,.49-.08l47.94-.14,43.46-.15a1.78,1.78,0,0,1,.56.1,1.76,1.76,0,0,1,1.22,1.67l0,8.18A1.76,1.76,0,0,1,249.1,420.91Z" transform="translate(50.44)"/><path class="cls-5" d="M246.45,383.5l-91.39.28a2.25,2.25,0,0,1-2.27-2.25l0-8.19a2.25,2.25,0,0,1,2.25-2.26l91.4-.28a2.25,2.25,0,0,1,2.26,2.25l0,8.18A2.27,2.27,0,0,1,246.45,383.5Z" transform="translate(50.44)"/><path class="cls-8" d="M155.05,384.5a3,3,0,0,1-3-3l0-8.18a3,3,0,0,1,3-3l91.39-.28h0a3,3,0,0,1,3,3l0,8.18a3,3,0,0,1-3,3l-91.4.29Zm91.37-13h0l-91.4.28a1.55,1.55,0,0,0-1.54,1.55l0,8.19a1.54,1.54,0,0,0,1.54,1.54h0l91.4-.28a1.57,1.57,0,0,0,1.09-.46,1.5,1.5,0,0,0,.45-1.09l0-8.19A1.55,1.55,0,0,0,246.42,371.51Z" transform="translate(50.44)"/><path class="cls-8" d="M249.18,373.05a2.63,2.63,0,0,0-.62-1.71,1.33,1.33,0,0,0-.19-.24,3.75,3.75,0,0,0-.33-.26,2.69,2.69,0,0,0-1.07-.49h0a3.19,3.19,0,0,0-.54-.05l-57.71.17-27.15.1H155a2.73,2.73,0,0,0-2,.82,2.76,2.76,0,0,0-.8,1.94l0,8.2a2.76,2.76,0,0,0,2.76,2.74h0l10.56,0h2l23.2-.07,55.61-.18h.1a2.5,2.5,0,0,0,1.51-.51,2.2,2.2,0,0,0,.34-.28,1.12,1.12,0,0,0,.18-.2,2.78,2.78,0,0,0,.63-1.75ZM246.55,383h-.1l-55.88.17-22.93.08-12.58,0a1.77,1.77,0,0,1-1.78-1.76l0-8.18a1.77,1.77,0,0,1,.52-1.25,1.75,1.75,0,0,1,1.25-.51l6.48,0,27.26-.1,57.66-.17a1.84,1.84,0,0,1,.41,0,1.77,1.77,0,0,1,.83.47,1.75,1.75,0,0,1,.52,1.24l0,8.19a1.75,1.75,0,0,1-.52,1.24A1.69,1.69,0,0,1,246.55,383Z" transform="translate(50.44)"/><path class="cls-5" d="M253.31,370.82l-91.4.28a2.26,2.26,0,0,1-2.26-2.25l0-8.19a2.26,2.26,0,0,1,2.26-2.26l91.39-.28a2.25,2.25,0,0,1,2.27,2.25l0,8.18A2.25,2.25,0,0,1,253.31,370.82Z" transform="translate(50.44)"/><path class="cls-8" d="M161.91,371.82a3,3,0,0,1-3-3l0-8.18a2.91,2.91,0,0,1,.86-2.11,3,3,0,0,1,2.1-.88l91.4-.28h0a3,3,0,0,1,3,3l0,8.18a3,3,0,0,1-3,3l-91.39.28Zm91.37-13h0l-91.39.28a1.55,1.55,0,0,0-1.54,1.55l0,8.19a1.56,1.56,0,0,0,1.55,1.54h0l91.4-.28a1.59,1.59,0,0,0,1.09-.46,1.54,1.54,0,0,0,.45-1.09l0-8.19a1.54,1.54,0,0,0-1.54-1.54Z" transform="translate(50.44)"/><path class="cls-8" d="M256,360.37a2.77,2.77,0,0,0-2.76-2.75h0l-9.12,0H243l-53.33.17-27.76.08a.82.82,0,0,0-.22,0,2.46,2.46,0,0,0-1.37.5,2.6,2.6,0,0,0-.36.3.56.56,0,0,0-.16.19,2.61,2.61,0,0,0-.65,1.76l0,8.18a2.57,2.57,0,0,0,.63,1.72,1,1,0,0,0,.18.22l.33.27a2.69,2.69,0,0,0,1.21.5,2.73,2.73,0,0,0,.41,0l26.85-.08,58.07-.17h1.73l4.75,0a2.81,2.81,0,0,0,2-.82,2.75,2.75,0,0,0,.8-1.95Zm-2.73,10-6.34,0h0l-58.25.17-26.8.08-.35,0h0a1.89,1.89,0,0,1-.88-.47,1.77,1.77,0,0,1-.52-1.25l0-8.18a1.79,1.79,0,0,1,.51-1.26,1.71,1.71,0,0,1,1-.5.82.82,0,0,1,.22,0l27.57-.08,47.89-.16h6l10,0h0a1.77,1.77,0,0,1,1.25.52,1.75,1.75,0,0,1,.52,1.24l0,8.18a1.79,1.79,0,0,1-1.77,1.78Z" transform="translate(50.44)"/><path class="cls-5" d="M249.1,408.85l-91.39.29a2.27,2.27,0,0,1-2.27-2.26l0-8.18a2.27,2.27,0,0,1,2.26-2.27l91.39-.28a2.26,2.26,0,0,1,2.27,2.25l0,8.19A2.26,2.26,0,0,1,249.1,408.85Z" transform="translate(50.44)"/><path class="cls-8" d="M157.7,409.85a3,3,0,0,1-3-3l0-8.18a3,3,0,0,1,.86-2.11,3,3,0,0,1,2.1-.87l91.4-.28h0a3,3,0,0,1,2.1.86,3,3,0,0,1,.88,2.1l0,8.19a3,3,0,0,1-3,3l-91.4.28Zm91.37-13h0l-91.4.28a1.54,1.54,0,0,0-1.09.45,1.56,1.56,0,0,0-.45,1.1l0,8.18a1.56,1.56,0,0,0,1.55,1.54h0l91.4-.28a1.55,1.55,0,0,0,1.54-1.55l0-8.18a1.57,1.57,0,0,0-.46-1.09A1.54,1.54,0,0,0,249.07,396.87Z" transform="translate(50.44)"/><path class="cls-8" d="M251.82,398.41a2.7,2.7,0,0,0-.63-1.73,2,2,0,0,0-.52-.49,2.34,2.34,0,0,0-1.34-.5.59.59,0,0,0-.27,0l-53.61.18-27.89.08h-1.91l-8,0a2.68,2.68,0,0,0-1.94.82,2.73,2.73,0,0,0-.8,1.95l0,8.18a2.77,2.77,0,0,0,1.1,2.17,1.79,1.79,0,0,0,.46.27,1.87,1.87,0,0,0,.66.24h0a2.42,2.42,0,0,0,.54.06l48-.14,43.36-.14a3.15,3.15,0,0,0,.52-.05,2.7,2.7,0,0,0,.66-.22,1.36,1.36,0,0,0,.47-.29,1.73,1.73,0,0,0,.3-.25,2.76,2.76,0,0,0,.8-2Zm-2.22,9.87a2.08,2.08,0,0,1-.5.07l-44.37.15-47,.14h0a1.29,1.29,0,0,1-.53-.1h0a1.76,1.76,0,0,1-1.2-1.66l0-8.19a1.74,1.74,0,0,1,.51-1.24,1.77,1.77,0,0,1,1.24-.52l9.76,0,28.55-.1,53.09-.15a2,2,0,0,1,.35,0h0a1.79,1.79,0,0,1,1.41,1.73l0,8.18a1.67,1.67,0,0,1-.52,1.24,1.72,1.72,0,0,1-.72.45Z" transform="translate(50.44)"/><path class="cls-5" d="M259.17,396.15l-91.4.28a2.25,2.25,0,0,1-2.26-2.25l0-8.18a2.27,2.27,0,0,1,2.26-2.27l91.39-.28a2.25,2.25,0,0,1,2.27,2.25l0,8.18A2.27,2.27,0,0,1,259.17,396.15Z" transform="translate(50.44)"/><path class="cls-8" d="M167.77,397.15a3,3,0,0,1-3-3l0-8.18a3,3,0,0,1,.86-2.11,3,3,0,0,1,2.1-.88l91.4-.28h0a3,3,0,0,1,2.1.87,3,3,0,0,1,.88,2.1l0,8.18a3,3,0,0,1-3,3l-91.4.28Zm91.37-13h0l-91.4.28A1.55,1.55,0,0,0,166.2,386l0,8.19a1.56,1.56,0,0,0,1.55,1.54h0l91.4-.28a1.56,1.56,0,0,0,1.54-1.55l0-8.19a1.55,1.55,0,0,0-1.55-1.54Z" transform="translate(50.44)"/><path class="cls-8" d="M261.89,385.71a2.75,2.75,0,0,0-2.75-2.76l-10.56,0h-2l-56,.18-22.84.07h-.09a2.52,2.52,0,0,0-1.51.51,2.61,2.61,0,0,0-.51.48A2.78,2.78,0,0,0,165,386l0,8.18a2.63,2.63,0,0,0,.64,1.74,1.74,1.74,0,0,0,.18.22,1.5,1.5,0,0,0,.33.26,2.49,2.49,0,0,0,1.26.51,1.31,1.31,0,0,0,.34,0h0l28.2-.1,53.43-.15h1.78l8,0a2.77,2.77,0,0,0,2.75-2.77Zm-2.72,9.94-9.84,0-53.87.17-27.68.08a1.66,1.66,0,0,1-.22,0,1.94,1.94,0,0,1-1-.49,1.75,1.75,0,0,1-.52-1.25V386a1.65,1.65,0,0,1,.5-1.24,1.67,1.67,0,0,1,1.15-.51h.09l23.11-.08,55.71-.17,12.59,0a1.76,1.76,0,0,1,1.76,1.76l0,8.18A1.77,1.77,0,0,1,259.17,395.65Z" transform="translate(50.44)"/><path class="cls-5" d="M150.31,358.39l91.4.28a2.26,2.26,0,0,0,2.26-2.26l0-8.18a2.27,2.27,0,0,0-2.25-2.27l-91.4-.28a2.27,2.27,0,0,0-2.27,2.26l0,8.18A2.26,2.26,0,0,0,150.31,358.39Z" transform="translate(50.44)"/><path class="cls-8" d="M241.71,359.38h0l-91.4-.28a2.91,2.91,0,0,1-2.1-.88,3,3,0,0,1-.87-2.1l0-8.19a3,3,0,0,1,3-3h0l91.4.28a3,3,0,0,1,3,3l0,8.19A3,3,0,0,1,241.71,359.38Zm-91.4-1.71,91.4.28h0a1.55,1.55,0,0,0,1.55-1.54l0-8.18a1.51,1.51,0,0,0-.44-1.1,1.56,1.56,0,0,0-1.1-.45l-91.39-.28h0a1.54,1.54,0,0,0-1.09.45,1.52,1.52,0,0,0-.45,1.09l0,8.18a1.55,1.55,0,0,0,1.54,1.55Z" transform="translate(50.44)"/><path class="cls-8" d="M243.7,346.29a1.92,1.92,0,0,0-.32-.26,1.67,1.67,0,0,0-.45-.28,2.55,2.55,0,0,0-.63-.24h0a3.12,3.12,0,0,0-.52,0l-48-.15-43.37-.14h0a1.83,1.83,0,0,0-.53.07h0a1.92,1.92,0,0,0-.66.23,1.36,1.36,0,0,0-.47.29,2.74,2.74,0,0,0-1.07,2.17l0,8.18a2.76,2.76,0,0,0,2.75,2.76l9.46,0h1.89l27.76.09,52.28.16h0a2.59,2.59,0,0,0,1.59-.52,2.2,2.2,0,0,0,.34-.28,2.62,2.62,0,0,0,.17-.21,1.5,1.5,0,0,0,.33-.5,2.36,2.36,0,0,0,.32-1.23l0-8.18A2.71,2.71,0,0,0,243.7,346.29Zm-.22,10.13a1.78,1.78,0,0,1-.51,1.23h0a1.67,1.67,0,0,1-1.12.49.27.27,0,0,1-.12,0h-1.85L189.59,358l-27.93-.09-11.35,0a1.75,1.75,0,0,1-1.76-1.76l0-8.18a1.73,1.73,0,0,1,1.21-1.67,1.68,1.68,0,0,1,.55-.1l42.93.13,48.48.16a1.69,1.69,0,0,1,.5.08,1.65,1.65,0,0,1,.74.44,1.78,1.78,0,0,1,.52,1.26Z" transform="translate(50.44)"/><path class="cls-5" d="M160,320.47l91.39.28a2.26,2.26,0,0,0,2.27-2.25l0-8.19a2.25,2.25,0,0,0-2.25-2.26l-91.4-.28A2.25,2.25,0,0,0,157.8,310l0,8.18A2.27,2.27,0,0,0,160,320.47Z" transform="translate(50.44)"/><path class="cls-8" d="M251.43,321.47h0l-91.4-.29a3,3,0,0,1-3-3l0-8.18a3,3,0,0,1,.88-2.1,3,3,0,0,1,2.1-.87h0l91.39.28a3,3,0,0,1,3,3l0,8.18A3,3,0,0,1,251.43,321.47Zm-91.37-13a1.56,1.56,0,0,0-1.55,1.54l0,8.18a1.54,1.54,0,0,0,.45,1.1,1.52,1.52,0,0,0,1.09.45l91.39.29h0A1.56,1.56,0,0,0,253,318.5l0-8.19a1.56,1.56,0,0,0-1.54-1.55l-91.4-.28Z" transform="translate(50.44)"/><path class="cls-8" d="M253.41,308.37a2.71,2.71,0,0,0-1.95-.82l-91.39-.28h0a2.72,2.72,0,0,0-1.93.8,2.77,2.77,0,0,0-.82,1.95l0,8.19a2.56,2.56,0,0,0,.62,1.71,1,1,0,0,0,.19.24,1.48,1.48,0,0,0,.31.25,2.43,2.43,0,0,0,1.21.52,2.73,2.73,0,0,0,.41,0l87.79.27h0l1.09,0h2.52a2.75,2.75,0,0,0,2.75-2.74l0-8.2A2.72,2.72,0,0,0,253.41,308.37Zm-.22,10.12a1.76,1.76,0,0,1-1.76,1.76h-3.55L160,320l-.35,0h0a1.93,1.93,0,0,1-.88-.49,1.7,1.7,0,0,1-.51-1.24l0-8.19a1.75,1.75,0,0,1,.52-1.24,1.78,1.78,0,0,1,1.24-.52h0l91.39.29a1.71,1.71,0,0,1,1.24.52,1.67,1.67,0,0,1,.52,1.24Z" transform="translate(50.44)"/><path class="cls-5" d="M150.31,345.83l91.4.28a2.26,2.26,0,0,0,2.26-2.26l0-8.18a2.27,2.27,0,0,0-2.25-2.27l-91.4-.28a2.27,2.27,0,0,0-2.27,2.25l0,8.19A2.26,2.26,0,0,0,150.31,345.83Z" transform="translate(50.44)"/><path class="cls-8" d="M241.71,346.82h0l-91.4-.28a2.91,2.91,0,0,1-2.1-.88,3,3,0,0,1-.87-2.1l0-8.19a3,3,0,0,1,3-3h0l91.4.28a3,3,0,0,1,3,3l0,8.18A3,3,0,0,1,241.71,346.82Zm-91.4-1.71,91.4.28h0a1.55,1.55,0,0,0,1.55-1.54l0-8.18a1.54,1.54,0,0,0-1.54-1.55l-91.39-.28h0a1.54,1.54,0,0,0-1.09.45,1.52,1.52,0,0,0-.45,1.09l0,8.18a1.55,1.55,0,0,0,1.54,1.55Z" transform="translate(50.44)"/><path class="cls-8" d="M243.82,333.88a.79.79,0,0,0-.12-.15,2.06,2.06,0,0,0-.43-.35,2.63,2.63,0,0,0-1.52-.47l-38.86-.13-48.24-.14H154l-3.59,0h0a2.76,2.76,0,0,0-2.75,2.76l0,8.18a2.76,2.76,0,0,0,.8,1.95,1.87,1.87,0,0,0,.3.26,1.5,1.5,0,0,0,.47.28,2.56,2.56,0,0,0,.66.22,3.05,3.05,0,0,0,.52.05l42.9.12,48.49.16h0a2.33,2.33,0,0,0,.53-.06,1.85,1.85,0,0,0,.68-.24,1.92,1.92,0,0,0,.45-.27,2.73,2.73,0,0,0,1.09-2.17l0-8.18A2.69,2.69,0,0,0,243.82,333.88Zm-.34,10a1.74,1.74,0,0,1-1.18,1.66h0a1.52,1.52,0,0,1-.55.1l-48.05-.14-43.36-.15a2,2,0,0,1-.5-.07h0a1.73,1.73,0,0,1-.72-.44,1.79,1.79,0,0,1-.52-1.25l0-8.18a1.76,1.76,0,0,1,1.76-1.76l51.51.15,39.9.13a1.78,1.78,0,0,1,1.76,1.76Z" transform="translate(50.44)"/><path class="cls-5" d="M156,333.12l91.4.28a2.25,2.25,0,0,0,2.27-2.25l0-8.18a2.27,2.27,0,0,0-2.26-2.27l-91.4-.28a2.25,2.25,0,0,0-2.26,2.25l0,8.18A2.26,2.26,0,0,0,156,333.12Z" transform="translate(50.44)"/><path class="cls-8" d="M247.43,334.12h0l-91.4-.28a3,3,0,0,1-3-3l0-8.18a3,3,0,0,1,3-3h0l91.39.28a3,3,0,0,1,2.1.88,2.94,2.94,0,0,1,.87,2.11l0,8.18a3,3,0,0,1-3,3ZM156,332.41l91.4.28h0a1.54,1.54,0,0,0,1.09-.45,1.59,1.59,0,0,0,.46-1.09l0-8.19a1.54,1.54,0,0,0-.45-1.09,1.59,1.59,0,0,0-1.09-.46l-91.4-.28h0a1.56,1.56,0,0,0-1.55,1.54l0,8.19a1.55,1.55,0,0,0,1.54,1.55Z" transform="translate(50.44)"/><path class="cls-8" d="M249.6,321.25a1.33,1.33,0,0,0-.19-.24,1.48,1.48,0,0,0-.31-.25,2.46,2.46,0,0,0-1.22-.52l-.42,0-87.79-.27h0l-1.07,0h-2.53a2.76,2.76,0,0,0-2.76,2.76l0,8.17a2.71,2.71,0,0,0,.68,1.79,2.3,2.3,0,0,0,.53.5,2.75,2.75,0,0,0,1.54.48l45.85.14,41.25.12h.7l3.61,0a2.77,2.77,0,0,0,2.75-2.76l0-5.93V323A2.6,2.6,0,0,0,249.6,321.25Zm-.41,9.89a1.75,1.75,0,0,1-.52,1.25,2,2,0,0,1-1.24.52l-44.51-.14-46.9-.15a1.77,1.77,0,0,1-1.76-1.76l0-8.18a1.76,1.76,0,0,1,1.77-1.76h3.55l87.85.27a2.07,2.07,0,0,1,.35,0h0a1.93,1.93,0,0,1,.88.49,1.75,1.75,0,0,1,.52,1.24v1.81Z" transform="translate(50.44)"/><path class="cls-10" d="M261.92,393.88a2.77,2.77,0,0,1-2.75,2.77l-8,0a2.7,2.7,0,0,1,.63,1.73l0,8.18a2.76,2.76,0,0,1-.8,2,1.73,1.73,0,0,1-.3.25,2.73,2.73,0,0,1,1.07,2.18l0,8.18a2.75,2.75,0,0,1-2.74,2.75h0l-10.64,0a2.59,2.59,0,0,1,.61,1.7l0,8.18a2.71,2.71,0,0,1-.55,1.65H243a2.77,2.77,0,0,1,2.76,2.75v8.18a2.72,2.72,0,0,1-.66,1.78h3.93a2.73,2.73,0,0,1,2.76,2.75l0,8.18a2.73,2.73,0,0,1-2.75,2.76h-6.44a2.65,2.65,0,0,1,.52,1.61l0,8.18a2.73,2.73,0,0,1-.8,2,2.79,2.79,0,0,1-1.95.82l-37,.11v-3.07a2.73,2.73,0,0,1,.8-1.95,1.94,1.94,0,0,1,.31-.26l-.26-.23a2.75,2.75,0,0,1-.82-1.95l0-5.08v-3.1a2.77,2.77,0,0,1,.67-1.78l-3.6,0a2.77,2.77,0,0,1-2.75-2.76l0-5.06v-1l0-2.11a2.72,2.72,0,0,1,.65-1.75l-10.58,0a2.73,2.73,0,0,1-2.75-2.75l0-5v-3.21a2.8,2.8,0,0,1,.8-2,2.77,2.77,0,0,1,1.95-.8h4.75a2.76,2.76,0,0,1-.61-1.72v-6l0-2.17a2.71,2.71,0,0,1,.8-1.95,2.74,2.74,0,0,1,1.94-.82l20.05-.07a44.23,44.23,0,0,1-8.94-6.54.62.62,0,0,0-.14-.14c-.11-.11-.24-.24-.37-.35l-.14-.14-.36-.36-.14-.15A52.72,52.72,0,0,1,196,396.83s0,0,0,0l-.24-.45,0,0c-.09-.16-.17-.3-.25-.46a0,0,0,0,0,0,0,57.46,57.46,0,0,1-4.61-11.66v0a4.77,4.77,0,0,1-.13-.47s0,0,0,0-.08-.32-.12-.48c-.25-1-.47-1.95-.68-2.94a59.67,59.67,0,0,1-1.13-8.72v-.05a3.24,3.24,0,0,1,0-.44.06.06,0,0,1,0,0c0-.16,0-.32,0-.46v0a55.16,55.16,0,0,1,.71-11.47,1.48,1.48,0,0,1,0-.19,2.65,2.65,0,0,1,.06-.3,1.48,1.48,0,0,1,0-.19c0-.11,0-.22.05-.31s0-.13,0-.19a48.79,48.79,0,0,1,3.57-11.38.84.84,0,0,1,.06-.14,2.84,2.84,0,0,1,.16-.35,1.47,1.47,0,0,1,.06-.14c0-.11.12-.22.18-.34a.47.47,0,0,1,.06-.15l.58-1.16a41.59,41.59,0,0,1,7.54-10.39h0c.15-.16.33-.32.5-.47a0,0,0,0,1,0,0c.15-.17.33-.33.5-.49h0a33.43,33.43,0,0,1,16-8.28l9.76-2a34,34,0,0,1,20.52,2.3,3.64,3.64,0,0,1,.49.22,4.31,4.31,0,0,1,.49.22l0,5.93a2.77,2.77,0,0,1-2.75,2.76l-3.61,0a2.69,2.69,0,0,1,.68,1.8l0,8.18a2.73,2.73,0,0,1-1.09,2.17,1.92,1.92,0,0,1,.32.26,2.71,2.71,0,0,1,.8,1.95l0,8.18a2.36,2.36,0,0,1-.32,1.23l9.12,0h0a2.77,2.77,0,0,1,2.76,2.75l0,8.18a2.75,2.75,0,0,1-.8,1.95,2.81,2.81,0,0,1-2,.82l-4.75,0a2.63,2.63,0,0,1,.62,1.71l0,8.19a2.78,2.78,0,0,1-.63,1.75l10.56,0a2.75,2.75,0,0,1,2.75,2.76Z" transform="translate(50.44)"/><path class="cls-5" d="M259.25,408.46c15.57-8.59,24.06-29.66,19.53-51.75-4.51-21.94-20.44-37.89-38-39.82l-.32-1.55-9.76,2c-21.17,4.35-34,29-28.64,55.13s26.88,43.72,48.06,39.37l9.45-1.7Z" transform="translate(50.44)"/><path class="cls-8" d="M243.67,413.21c-19.23,0-37.41-16.86-42.29-40.6-2.62-12.78-1-25.63,4.44-36.19s14.3-17.63,24.76-19.78L241,314.49l.36,1.75c18,2.27,33.65,18.77,38.08,40.33,4.47,21.76-3.51,43.16-19.42,52.26l.38,1.89-10.18,1.82A32.83,32.83,0,0,1,243.67,413.21Zm-3.74-97L230.87,318c-10,2.06-18.47,8.83-23.78,19s-6.86,22.78-4.31,35.24C208.06,398,229.24,415.4,250,411.14l8.76-1.57-.3-1.48.46-.26c15.67-8.64,23.55-29.61,19.17-51-4.35-21.16-19.71-37.3-37.36-39.25l-.52-.06Z" transform="translate(50.44)"/><path class="cls-2" d="M288.54,354.7c5.36,26.1-7.77,51.09-29,55.44s-42.38-13.58-47.75-39.68,7.47-50.77,28.64-55.12S283.18,328.61,288.54,354.7Z" transform="translate(50.44)"/><path class="cls-8" d="M253.29,411.57c-19.15,0-37.3-17-42.22-40.95-5.44-26.47,7.69-51.62,29.26-56.05,10.47-2.16,21.35.84,30.61,8.43s15.74,18.75,18.37,31.55,1,25.71-4.6,36.39-14.47,17.82-25,20A31.48,31.48,0,0,1,253.29,411.57ZM247,315.46a31.85,31.85,0,0,0-6.36.65c-20.72,4.26-33.29,28.57-28,54.19,4.77,23.18,22.26,39.7,40.67,39.7a30.82,30.82,0,0,0,6.16-.63c10-2.06,18.49-8.86,23.88-19.16s7-22.92,4.45-35.35h0c-2.56-12.44-8.89-23.32-17.83-30.65C262.93,318.47,255,315.46,247,315.46Z" transform="translate(50.44)"/><path class="cls-5" d="M281.69,356.13c4.4,21.44-6.38,42-23.77,45.54s-34.82-11.16-39.22-32.59,6.13-41.71,23.52-45.28S277.29,334.7,281.69,356.13Z" transform="translate(50.44)"/><path class="cls-8" d="M252.64,402.92c-6.85,0-13.67-2.62-19.66-7.62-7.49-6.26-12.81-15.52-15-26.08-4.48-21.78,6.33-42.47,24.08-46.12,8.62-1.77,17.58.69,25.2,6.94A45.12,45.12,0,0,1,282.39,356h0a45.12,45.12,0,0,1-3.78,29.94c-4.61,8.83-11.91,14.66-20.55,16.44A27.53,27.53,0,0,1,252.64,402.92ZM247.58,324a26.17,26.17,0,0,0-5.21.53c-17,3.49-27.29,23.42-23,44.43,2.1,10.24,7.25,19.22,14.49,25.27s15.72,8.45,23.89,6.76,15.15-7.25,19.57-15.69a43.71,43.71,0,0,0,3.64-29h0a43.66,43.66,0,0,0-14.61-25.14A29.71,29.71,0,0,0,247.58,324Z" transform="translate(50.44)"/><path class="cls-5" d="M248.84,342.85a14.1,14.1,0,0,1,3.56.12,10.7,10.7,0,0,1,3.3,1.1,10.24,10.24,0,0,1,2.83,2.23,12.29,12.29,0,0,1,2.14,3.48l-4.25,1a8.43,8.43,0,0,0-2.87-2.94,6.61,6.61,0,0,0-3.76-.83l2.72,11.84c.94.17,1.88.34,2.8.53s1.82.4,2.69.66a17.29,17.29,0,0,1,2.47.94,9.88,9.88,0,0,1,2.12,1.34,8.48,8.48,0,0,1,1.63,1.89,8.22,8.22,0,0,1,1,2.53,9.16,9.16,0,0,1,0,4.38,9.65,9.65,0,0,1-1.68,3.54,11.5,11.5,0,0,1-2.89,2.66,16,16,0,0,1-3.54,1.75l1.36,5.93-4.29,1-1.39-6a11.82,11.82,0,0,1-3.91-.63,13.33,13.33,0,0,1-3.56-1.87,14.74,14.74,0,0,1-3-3,15.78,15.78,0,0,1-2.19-3.88l4.51-1a12.5,12.5,0,0,0,1.3,2.36,10.48,10.48,0,0,0,1.67,1.88,8,8,0,0,0,2,1.27,6.79,6.79,0,0,0,2.21.56l-3-12.86q-2-.37-3.81-.87a15.75,15.75,0,0,1-3.42-1.36,9.3,9.3,0,0,1-2.68-2.17,8.48,8.48,0,0,1-1.62-6.87,9.46,9.46,0,0,1,1.36-3.17,11.41,11.41,0,0,1,2.49-2.62,13.38,13.38,0,0,1,3.32-1.88l-.87-3.8,4.29-1Zm-7,11a4.29,4.29,0,0,0,.75,1.63,5.07,5.07,0,0,0,1.31,1.21,8.28,8.28,0,0,0,1.79.87,17.41,17.41,0,0,0,2.17.62L245.5,348a6.33,6.33,0,0,0-3.14,2.5A4.37,4.37,0,0,0,241.82,353.84Zm19,14a3.43,3.43,0,0,0-.89-1.64,6.44,6.44,0,0,0-1.66-1.2,11.66,11.66,0,0,0-2.18-.87c-.8-.24-1.63-.45-2.48-.62l2.63,11.42a8.39,8.39,0,0,0,2.29-1.27,7.39,7.39,0,0,0,1.57-1.71,5.55,5.55,0,0,0,.78-2A5.41,5.41,0,0,0,260.8,367.85Z" transform="translate(50.44)"/><path class="cls-8" d="M253.7,386.82l-1.42-6.17a12.39,12.39,0,0,1-3.57-.67,13.8,13.8,0,0,1-3.76-2,15.82,15.82,0,0,1-3.14-3.09,17.4,17.4,0,0,1-2.29-4.05l-.3-.78,5.9-1.35.24.55a12,12,0,0,0,1.22,2.23,10.15,10.15,0,0,0,1.56,1.75,6.88,6.88,0,0,0,1.8,1.15,5.82,5.82,0,0,0,1,.35l-2.62-11.38c-1.2-.24-2.35-.51-3.41-.79a16.83,16.83,0,0,1-3.57-1.42,10.11,10.11,0,0,1-2.88-2.33,8.61,8.61,0,0,1-1.74-3.66,8.7,8.7,0,0,1,0-3.83,10.12,10.12,0,0,1,1.47-3.41,12.24,12.24,0,0,1,2.64-2.8,14.62,14.62,0,0,1,2.93-1.74l-.9-3.91,5.69-1.31.9,3.9a15.38,15.38,0,0,1,3.11.17,11.34,11.34,0,0,1,3.52,1.18,10.84,10.84,0,0,1,3,2.38,13.17,13.17,0,0,1,2.27,3.68l.32.79-5.56,1.28-.27-.43a7.92,7.92,0,0,0-2.63-2.7,5.46,5.46,0,0,0-2.5-.74l2.42,10.51c.78.15,1.57.29,2.34.45.93.18,1.86.41,2.76.68a18.38,18.38,0,0,1,2.56,1,10.69,10.69,0,0,1,2.27,1.44,8.6,8.6,0,0,1,2.88,4.81,9.94,9.94,0,0,1,.06,4.72,10.31,10.31,0,0,1-1.81,3.79,12.21,12.21,0,0,1-3.07,2.83,17.43,17.43,0,0,1-3.09,1.6l1.38,6Zm-.28-7.6,1.35,5.89,2.91-.67-1.35-5.85.6-.21a15.74,15.74,0,0,0,3.39-1.68,10.63,10.63,0,0,0,2.71-2.5,8.84,8.84,0,0,0,1.56-3.27,8.7,8.7,0,0,0-.06-4.05,7.4,7.4,0,0,0-.92-2.31,7.23,7.23,0,0,0-1.48-1.72,9.58,9.58,0,0,0-2-1.25,18.11,18.11,0,0,0-2.36-.9c-.86-.25-1.74-.47-2.62-.64l-2.79-.53-.47-.08-3-13.14.85,0a7.37,7.37,0,0,1,4.16.93,9,9,0,0,1,2.84,2.75l2.91-.67a10.59,10.59,0,0,0-1.67-2.5,9.5,9.5,0,0,0-2.62-2.08,10.32,10.32,0,0,0-3.09-1,13.61,13.61,0,0,0-3.38-.11l-.62.05-.85-3.71-2.91.67.86,3.71-.58.22a12.75,12.75,0,0,0-3.14,1.78,10.61,10.61,0,0,0-2.33,2.46,8.74,8.74,0,0,0-1.26,2.93,7.17,7.17,0,0,0,0,3.19,7.09,7.09,0,0,0,1.44,3.06,8.83,8.83,0,0,0,2.47,2,14.66,14.66,0,0,0,3.26,1.28c1.17.32,2.43.61,3.77.87l.45.09,3.29,14.27-1-.08a7.45,7.45,0,0,1-2.44-.63,8.56,8.56,0,0,1-2.16-1.39,11.5,11.5,0,0,1-1.79-2,13.67,13.67,0,0,1-1.13-1.94l-3.1.71a15.2,15.2,0,0,0,1.77,2.94,14,14,0,0,0,2.85,2.81,12.51,12.51,0,0,0,3.37,1.77,10.94,10.94,0,0,0,3.67.59Zm2.29-3.32-3.06-13.3,1.09.22c.85.17,1.7.38,2.53.63a12.76,12.76,0,0,1,2.32.93,7,7,0,0,1,1.83,1.34,3.93,3.93,0,0,1,1.07,2h0a6.12,6.12,0,0,1,.06,2.41,6.24,6.24,0,0,1-.88,2.24,7.85,7.85,0,0,1-1.72,1.89,9.17,9.17,0,0,1-2.49,1.38Zm-1.16-11.44,2.18,9.49a7.34,7.34,0,0,0,1.33-.84,6.17,6.17,0,0,0,1.41-1.54,4.62,4.62,0,0,0,.63-3.56,2.75,2.75,0,0,0-.7-1.3,5.9,5.9,0,0,0-1.47-1.06,10.77,10.77,0,0,0-2.07-.83C255.43,364.69,255,364.57,254.55,364.46Zm-5.76-5.34-1.11-.25a18.94,18.94,0,0,1-2.25-.65,9,9,0,0,1-1.94-.94,6.13,6.13,0,0,1-1.49-1.37,4.85,4.85,0,0,1-.87-1.91,5,5,0,0,1,.61-3.83,7,7,0,0,1,3.49-2.8L246,347ZM245,349.06a5.05,5.05,0,0,0-2,1.84,3.6,3.6,0,0,0-.45,2.78h0a3.54,3.54,0,0,0,.62,1.36,4.71,4.71,0,0,0,1.13,1,7.82,7.82,0,0,0,1.64.8c.31.11.63.21,1,.31Z" transform="translate(50.44)"/><path class="cls-8" d="M243.67,413c-19.15,0-37.25-16.81-42.11-40.45-2.61-12.74-1-25.55,4.42-36.07s14.23-17.55,24.64-19.69l9.76-2c10.4-2.14,21.2.84,30.4,8.37s15.66,18.67,18.28,31.41,1,25.59-4.57,36.22-14.38,17.7-24.79,19.84l-9.47,1.7A32.53,32.53,0,0,1,243.67,413ZM247,315.21a31.64,31.64,0,0,0-6.42.65l-9.76,2c-10.08,2.07-18.57,8.86-23.91,19.13s-6.88,22.86-4.31,35.36C207.36,395.5,225,412,243.67,412a31.91,31.91,0,0,0,6.36-.64l9.47-1.7c10.08-2.07,18.62-8.92,24.05-19.29s7-23,4.47-35.52h0c-2.57-12.5-8.93-23.43-17.92-30.79C263,318.23,255,315.21,247,315.21Z" transform="translate(50.44)"/><path class="cls-5" d="M315.88,472l-91.4.28a2.25,2.25,0,0,1-2.27-2.25l0-8.18a2.26,2.26,0,0,1,2.25-2.27l91.4-.28a2.26,2.26,0,0,1,2.26,2.25l0,8.19A2.26,2.26,0,0,1,315.88,472Z" transform="translate(50.44)"/><path class="cls-8" d="M224.47,473a3,3,0,0,1-3-3l0-8.18a3,3,0,0,1,3-3l91.39-.28h0a3,3,0,0,1,2.1.86,3,3,0,0,1,.88,2.1l0,8.18a3,3,0,0,1-3,3l-91.4.28Zm91.37-13h0l-91.4.29a1.54,1.54,0,0,0-1.54,1.55l0,8.18a1.54,1.54,0,0,0,1.54,1.54h0l91.39-.28a1.54,1.54,0,0,0,1.54-1.55l0-8.19a1.55,1.55,0,0,0-1.55-1.54Z" transform="translate(50.44)"/><path class="cls-8" d="M224.47,472.73a2.75,2.75,0,0,1-2.75-2.75l0-8.18a2.75,2.75,0,0,1,2.75-2.76l91.4-.29h0a2.77,2.77,0,0,1,2.76,2.75l0,8.18a2.76,2.76,0,0,1-2.74,2.77h0l-91.4.28Zm91.37-13h0l-91.4.28a1.76,1.76,0,0,0-1.76,1.77l0,8.18a1.76,1.76,0,0,0,1.76,1.76h0l91.4-.28h0a1.76,1.76,0,0,0,1.76-1.77l0-8.19A1.77,1.77,0,0,0,315.84,459.75Z" transform="translate(50.44)"/><path class="cls-5" d="M297.44,434l-91.4.28a2.26,2.26,0,0,1-2.26-2.25l0-8.19a2.26,2.26,0,0,1,2.25-2.26l91.4-.29a2.27,2.27,0,0,1,2.27,2.26l0,8.18A2.26,2.26,0,0,1,297.44,434Z" transform="translate(50.44)"/><path class="cls-8" d="M206,435a2.93,2.93,0,0,1-2.09-.86,3,3,0,0,1-.88-2.1l0-8.19a3,3,0,0,1,3-3l91.4-.28h0a3,3,0,0,1,3,3l0,8.18a3,3,0,0,1-3,3l-91.39.28Zm91.38-13h0l-91.39.28a1.54,1.54,0,0,0-1.54,1.55l0,8.18a1.49,1.49,0,0,0,.46,1.09,1.54,1.54,0,0,0,1.09.45h0l91.4-.28a1.54,1.54,0,0,0,1.09-.45,1.56,1.56,0,0,0,.45-1.1l0-8.18A1.54,1.54,0,0,0,297.41,422.05Z" transform="translate(50.44)"/><path class="cls-8" d="M206,434.81a2.77,2.77,0,0,1-2.76-2.74l0-8.19a2.7,2.7,0,0,1,.8-1.95,2.73,2.73,0,0,1,1.94-.81l91.4-.28h0a2.75,2.75,0,0,1,2.75,2.75l0,8.18a2.75,2.75,0,0,1-2.75,2.76l-91.4.28Zm91.37-13h0l-91.39.28a1.75,1.75,0,0,0-1.25.52,1.78,1.78,0,0,0-.51,1.25l0,8.19a1.75,1.75,0,0,0,.52,1.24,1.78,1.78,0,0,0,1.25.51h0l91.4-.28a1.76,1.76,0,0,0,1.76-1.77l0-8.18a1.76,1.76,0,0,0-1.76-1.76Z" transform="translate(50.44)"/><rect class="cls-5" x="210.62" y="408.8" width="95.92" height="12.7" rx="2.26" transform="translate(49.17 0.79) rotate(-0.18)"/><path class="cls-8" d="M212.89,422.35a3,3,0,0,1-3-3l0-8.19a3,3,0,0,1,3-3l91.4-.28h0a3,3,0,0,1,3,3l0,8.18a3,3,0,0,1-.87,2.11,2.94,2.94,0,0,1-2.1.87l-91.4.28Zm91.38-13h0l-91.4.28a1.55,1.55,0,0,0-1.54,1.55l0,8.18a1.54,1.54,0,0,0,1.54,1.54h0l91.4-.28a1.54,1.54,0,0,0,1.09-.45,1.56,1.56,0,0,0,.45-1.1l0-8.18A1.54,1.54,0,0,0,304.27,409.37Z" transform="translate(50.44)"/><path class="cls-8" d="M212.89,422.13a2.75,2.75,0,0,1-2.75-2.74l0-8.19a2.81,2.81,0,0,1,.8-1.95,2.74,2.74,0,0,1,2-.81l91.4-.28h0a2.75,2.75,0,0,1,2.75,2.75l0,8.18a2.75,2.75,0,0,1-2.75,2.76l-91.4.28Zm91.38-13h0l-91.4.28a1.76,1.76,0,0,0-1.75,1.77l0,8.18a1.76,1.76,0,0,0,1.76,1.76h0l91.4-.28a1.71,1.71,0,0,0,1.24-.52,1.73,1.73,0,0,0,.52-1.25l0-8.18A1.76,1.76,0,0,0,304.27,409.15Z" transform="translate(50.44)"/><path class="cls-5" d="M315.88,459.39l-91.4.28a2.25,2.25,0,0,1-2.27-2.25l0-8.18a2.25,2.25,0,0,1,2.25-2.27l91.4-.28a2.26,2.26,0,0,1,2.26,2.25l0,8.19A2.26,2.26,0,0,1,315.88,459.39Z" transform="translate(50.44)"/><path class="cls-8" d="M224.47,460.39a3,3,0,0,1-3-3l0-8.18a3,3,0,0,1,3-3l91.39-.29h0a3,3,0,0,1,2.1.87,3,3,0,0,1,.88,2.1l0,8.18a3,3,0,0,1-3,3l-91.4.28Zm91.37-13h0l-91.4.29a1.54,1.54,0,0,0-1.54,1.55l0,8.18a1.54,1.54,0,0,0,1.54,1.54h0l91.39-.28a1.55,1.55,0,0,0,1.54-1.55l0-8.19a1.55,1.55,0,0,0-1.55-1.54Z" transform="translate(50.44)"/><path class="cls-8" d="M224.47,460.17a2.75,2.75,0,0,1-2.75-2.75l0-8.18a2.75,2.75,0,0,1,2.75-2.76l91.4-.29h0a2.7,2.7,0,0,1,1.94.81,2.67,2.67,0,0,1,.82,1.94l0,8.18a2.75,2.75,0,0,1-2.74,2.77l-91.4.28Zm91.37-13h0l-91.4.28a1.76,1.76,0,0,0-1.76,1.77l0,8.18a1.76,1.76,0,0,0,1.76,1.76h0l91.39-.28a1.76,1.76,0,0,0,1.76-1.77l0-8.19a1.75,1.75,0,0,0-.52-1.24A1.78,1.78,0,0,0,315.84,447.19Z" transform="translate(50.44)"/><path class="cls-5" d="M310.16,446.69l-91.4.28a2.25,2.25,0,0,1-2.26-2.25l0-8.19a2.26,2.26,0,0,1,2.25-2.26l91.4-.28a2.26,2.26,0,0,1,2.27,2.25l0,8.18A2.25,2.25,0,0,1,310.16,446.69Z" transform="translate(50.44)"/><path class="cls-8" d="M218.76,447.69a3,3,0,0,1-3-3l0-8.18a3,3,0,0,1,3-3l91.4-.28h0a3,3,0,0,1,3,3l0,8.18a3,3,0,0,1-3,3l-91.4.29Zm91.37-13h0l-91.39.28a1.54,1.54,0,0,0-1.54,1.55l0,8.18a1.55,1.55,0,0,0,1.55,1.55h0l91.4-.29a1.54,1.54,0,0,0,1.54-1.55l0-8.18A1.54,1.54,0,0,0,310.13,434.7Z" transform="translate(50.44)"/><path class="cls-8" d="M218.75,447.47a2.77,2.77,0,0,1-2.75-2.75l0-8.18a2.81,2.81,0,0,1,.8-2,2.76,2.76,0,0,1,1.95-.81l91.4-.28h0a2.75,2.75,0,0,1,2.75,2.75l0,8.18a2.77,2.77,0,0,1-2.75,2.77h0l-91.4.28Zm91.38-13h0l-91.39.28a1.76,1.76,0,0,0-1.76,1.77l0,8.19a1.75,1.75,0,0,0,.52,1.24,1.77,1.77,0,0,0,1.24.52h0l91.4-.29h0a1.76,1.76,0,0,0,1.76-1.77l0-8.18a1.76,1.76,0,0,0-1.76-1.76Z" transform="translate(50.44)"/><path class="cls-5" d="M231.34.48l92.35.37C331.6.86,338,7.71,338,16.06l-.54,70.45c-.06,8.36-6.59,15.18-14.49,15.16l-48-.34-37.06,22.75,1.79-22.83-9.09,0c-7.91,0-14.33-6.86-14.27-15.21l.54-70.45C216.9,7.29,223.43.46,231.34.48Z" transform="translate(50.44)"/><path class="cls-8" d="M237.31,125l1.83-23.25-8.57,0a14.25,14.25,0,0,1-10.18-4.33,16,16,0,0,1-4.57-11.37l.54-70.45C216.43,7,223.13,0,231.31,0h0L323.7.37A14.31,14.31,0,0,1,333.88,4.7a16.07,16.07,0,0,1,4.56,11.37l-.54,70.45c-.06,8.62-6.77,15.63-14.95,15.63h0l-47.87-.34Zm2.88-24.22-1.77,22.41,36.37-22.34,48.14.35h0c7.65,0,13.92-6.58,14-14.68l.54-70.45a15.06,15.06,0,0,0-4.29-10.68,13.33,13.33,0,0,0-9.5-4L231.34,1h0c-7.65,0-13.93,6.58-14,14.68l-.54,70.45a15.13,15.13,0,0,0,4.29,10.69,13.33,13.33,0,0,0,9.5,4Z" transform="translate(50.44)"/><path class="cls-9" d="M296.65,65.6h2.72a5.09,5.09,0,0,1,5.09,5.09V82.3a5.09,5.09,0,0,1-5.09,5.09h-2.72a5.1,5.1,0,0,1-5.1-5.1V70.7a5.1,5.1,0,0,1,5.1-5.1Z"/><path class="cls-7" d="M315.7,50.13h2.72a5.1,5.1,0,0,1,5.1,5.1V82.3a5.09,5.09,0,0,1-5.09,5.09H315.7a5.09,5.09,0,0,1-5.09-5.09V55.22A5.09,5.09,0,0,1,315.7,50.13Z"/><rect class="cls-9" x="331.69" y="38.7" width="12.91" height="48.69" rx="5.1"/><rect class="cls-7" x="352.35" y="25.3" width="12.91" height="62.09" rx="5.1"/><polygon class="cls-9" points="343.88 14.89 350.84 18.82 351.36 10.25 343.88 14.89"/><path class="cls-9" d="M242.57,51.73a.91.91,0,0,1-.78-.51.67.67,0,0,1,.58-.86c.36-.08,36-8.25,55.06-35.7a1,1,0,0,1,1.18-.24.64.64,0,0,1,.35.95c-19.41,28-55.71,36.25-56.08,36.33A1.05,1.05,0,0,1,242.57,51.73Z" transform="translate(50.44)"/><path class="cls-5" d="M43.6,240.77c1.51,0,3.06,0,4.57,0-1.23-2.78-2.59-6-3.66-9.17-.36-1,1.55-1.75,2.35-1,2,2,4.15,7.13,5.36,10.46l.67.09c-.33-3.14-.68-7.78.09-8.21s4.3-.89,7.28-1.27c2.14-.27,2.09.4,2.78,2.43.88,2.58,2,4.45,2.36,4.57.76.22,6.42-1.28,7.66-1.26v0a20,20,0,0,1,7.68,1.28c5.39.84,19.21-2.57,30.48-4.42a102.89,102.89,0,0,0,7-8.18c2.62-4.44,15.61-4.82,18.55,6.7a30.34,30.34,0,0,1,.59,11.91,17.22,17.22,0,0,1-3.4,9.63,9.77,9.77,0,0,1-3.66,3.61,7.73,7.73,0,0,1-1.48.5,15.17,15.17,0,0,1-5,1.26c-8.24.66-41.77-8.18-45.69-9.22a61.23,61.23,0,0,0-12.45.94c-4.69.76-8,.12-10.25-.86l-.18.07s-11.62-6.41-16.11-5S38.46,240.87,43.6,240.77Z" transform="translate(50.44)"/><path class="cls-8" d="M122.8,260.08c-9.7,0-41.13-8.29-44.8-9.27a62.19,62.19,0,0,0-12.33.95,18.64,18.64,0,0,1-10.31-.84l-.19.08-.11-.06c-.12-.07-11.58-6.34-15.9-5-1,.33-1.76.29-2.12-.11a1.27,1.27,0,0,1,0-1.37,8.07,8.07,0,0,1,6.6-4h0c1.47,0,2.86,0,4.14,0-1.43-3.25-2.6-6.2-3.49-8.78a1.15,1.15,0,0,1,.56-1.35,1.92,1.92,0,0,1,2.25.07c2,1.89,4,6.67,5.37,10.4l.16,0c-.77-7.54,0-8,.27-8.12s.86-.49,7.38-1.31c2.13-.27,2.37.45,2.88,2l.19.6a12.77,12.77,0,0,0,2.19,4.39,22.75,22.75,0,0,0,3.87-.64,23.93,23.93,0,0,1,3.71-.63h.15a21,21,0,0,1,7.62,1.3c3.73.58,11.73-.95,20.2-2.58,3.35-.64,6.81-1.3,10-1.83A104.82,104.82,0,0,0,118,226c1.29-2.18,5-3.4,8.73-2.86,2.45.35,8.36,2,10.31,9.66a30.54,30.54,0,0,1,.59,12,17.41,17.41,0,0,1-3.44,9.76,9.94,9.94,0,0,1-3.77,3.69,7.65,7.65,0,0,1-1.54.52,15.12,15.12,0,0,1-5.07,1.27C123.49,260.06,123.16,260.08,122.8,260.08Zm-46.4-9.86q1,0,1.68,0c3.86,1,37.43,9.88,45.66,9.23a14.71,14.71,0,0,0,4.94-1.24,8,8,0,0,0,1.48-.49,9.64,9.64,0,0,0,3.55-3.51,17,17,0,0,0,3.35-9.5,30.45,30.45,0,0,0-.58-11.82c-1.87-7.34-7.51-8.91-9.85-9.24-3.55-.51-7,.59-8.19,2.61a101.5,101.5,0,0,1-7,8.24l-.06.06-.09,0c-3.24.53-6.74,1.2-10.12,1.84-8.52,1.64-16.57,3.17-20.44,2.57a20.13,20.13,0,0,0-7.62-1.27l-.37,0v0c-.71.08-2,.34-3.25.6a15.8,15.8,0,0,1-4.15.63c-.64-.19-1.82-2.61-2.55-4.75l-.2-.61c-.51-1.56-.6-1.84-2.27-1.63-5.58.7-6.89,1.08-7.18,1.24,0,0-.73.5.05,7.93l0,.36-.36-.05-.66-.09-.18,0,0-.17c-1.1-3-3.25-8.4-5.3-10.35a1.37,1.37,0,0,0-1.55,0,.6.6,0,0,0-.34.69c.92,2.67,2.15,5.75,3.66,9.15l.18.41-.45,0c-1.39-.05-2.92-.06-4.55,0h0a7.4,7.4,0,0,0-6.1,3.63c-.15.35-.17.64,0,.77s.39.31,1.53,0c4.36-1.36,14.93,4.26,16.22,5l.17-.06.1,0a18,18,0,0,0,10.1.84A69.34,69.34,0,0,1,76.4,250.22Z" transform="translate(50.44)"/><polygon class="cls-5" points="140.05 426.77 120.23 421.02 125.38 394.63 150.21 401.83 140.05 426.77"/><path class="cls-8" d="M89.77,427.11l-20.31-5.89.05-.26,5.22-26.69,25.41,7.38Zm-19.66-6.29,19.33,5.61,10-24.42-24.23-7Z" transform="translate(50.44)"/><path class="cls-9" d="M69.76,411.77s5.81-.09,8.37,6.5,6.75,3.4,8.48,3.22a7.37,7.37,0,0,1,5.79,1.68s-8,26.17-11.87,34.7L19.86,440.26s.54-6.45,6.89-7.66,32-1,37.35-5.86S69.76,411.77,69.76,411.77Z" transform="translate(50.44)"/><path class="cls-8" d="M71.49,450.64l-.88-.36c4.66-11.45,16.83-12.11,17-12.12l0,1C87.48,439.13,75.92,439.77,71.49,450.64Z" transform="translate(50.44)"/><path class="cls-5" d="M82.71,452.49c-.8,2.13-1.54,4-2.18,5.38L19.86,440.26A9.76,9.76,0,0,1,22.3,435Z" transform="translate(50.44)"/><path class="cls-8" d="M80.69,458.21,19.57,440.47l0-.23a9.83,9.83,0,0,1,2.51-5.48l.12-.12.16,0,60.7,17.62-.1.29c-.86,2.27-1.59,4.09-2.19,5.4ZM20.17,440.06l60.21,17.48c.55-1.23,1.21-2.86,2-4.87l-59.95-17.4A9.54,9.54,0,0,0,20.17,440.06Z" transform="translate(50.44)"/><path class="cls-8" d="M59.21,435.77c-2.54,0-4.46-.19-4.67-.21h-.11l-6.44-4,.5-.81,6.25,3.9c1.33.12,14.24,1.15,17.44-3.41,3.4-4.86,2.53-13.07,2.52-13.15l1-.11c0,.35.93,8.65-2.69,13.81C70.59,435.15,63.86,435.77,59.21,435.77Z" transform="translate(50.44)"/><rect class="cls-8" x="59.25" y="428.14" width="0.96" height="6.75" transform="translate(-274.97 227.95) rotate(-54.26)"/><rect class="cls-8" x="65.98" y="425.96" width="0.96" height="6.75" transform="translate(-270.39 232.48) rotate(-54.26)"/><path class="cls-8" d="M160.53,252.6c-20.42,2.84-56.29,10.92-78.8,26s-6,49.63,17,47.23c23.63-2.47,48.64-9.66,76.32-19.94S194.05,247.92,160.53,252.6Z" transform="translate(50.44)"/><path class="cls-11" d="M116.18,265.51c2.84,6.87,3.51,14.82,7.14,21.31,3.78,6.74,12.76,9,18.74,3.84,7-6,7.43-13.29,8.55-21.93A139.73,139.73,0,0,0,152,254a267.37,267.37,0,0,0-37.29,9.34A6,6,0,0,1,116.18,265.51Z" transform="translate(50.44)"/><path class="cls-11" d="M142.49,293.07c-5.79,1.69-17,7.55-22.52,10s-17.85,21.48-18.63,22.48c22.85-2.72,47-9.73,73.66-19.63a24.57,24.57,0,0,0,15.13-16C187.44,289.72,154.92,289.45,142.49,293.07Z" transform="translate(50.44)"/><path class="cls-8" d="M51.53,403.79s16-79.56,19.37-107.62,49.76-11.18,53.38,11.66C128,331.3,101,412.25,101,412.25Z" transform="translate(50.44)"/><path class="cls-11" d="M64.18,399.06l-.92-.26c3.88-13.6,6.23-34.25,8.49-54.22,2.83-24.92,5.5-48.46,10.91-54.29,9.5-10.22,47.19-23.38,48.79-23.94l.32.91c-.39.13-39.07,13.63-48.41,23.68-5.2,5.6-7.85,29-10.66,53.74C70.43,364.69,68.08,385.38,64.18,399.06Z" transform="translate(50.44)"/><path class="cls-5" d="M47.89,392.26c.76,6.56,1.47,14.33,1.47,14.33a38.22,38.22,0,0,0,10,5.28c32.08,10.52,43.39,4,43.39,4s4.06-8.71,5-12.77C99.72,403,67.8,401.07,47.89,392.26Z" transform="translate(50.44)"/><path class="cls-8" d="M90.76,418.34c-7,0-17.16-1.31-31.51-6A38.3,38.3,0,0,1,49.07,407l-.17-.13v-.2c0-.08-.72-7.85-1.47-14.32l-.1-.83.76.33a88.9,88.9,0,0,0,12.59,4.38l-.25.93a93.55,93.55,0,0,1-12-4.1c.65,5.69,1.24,12.07,1.36,13.31a38,38,0,0,0,9.73,5.08c29.61,9.71,41.57,4.71,42.83,4.1l.42.87C101.71,416.9,98,418.34,90.76,418.34Z" transform="translate(50.44)"/><path class="cls-7" d="M168.44,168.37c11.87,13.69,3.19,46.42-27.14,86.09,0,0-13.1-10.87-27.22-34.11a374.55,374.55,0,0,1,23-39.11C151,160.62,163.48,162.65,168.44,168.37Z" transform="translate(50.44)"/><path class="cls-5" d="M113.9,214.57c-1,2.74-2.18,5.72-2.18,5.72a25.26,25.26,0,0,0,2.22,5c12,20.42,32.75,37.81,32.75,37.81l5.14-8.86C140.22,243.65,119.84,224.54,113.9,214.57Z" transform="translate(50.44)"/><path class="cls-8" d="M146.13,263.27c-2.26-1.74-21.88-19.54-32.61-37.73a26,26,0,0,1-2.25-5.11l0-.16.06-.16s1.18-3,2.17-5.71l.35-.94.51.86a52.14,52.14,0,0,0,3.8,5.42l-.75.59a57.16,57.16,0,0,1-3.35-4.67c-.77,2.06-1.56,4.08-1.78,4.65a25.89,25.89,0,0,0,2.12,4.74c10.65,18.07,30.12,35.74,32.36,37.47Z" transform="translate(50.44)"/><polygon class="cls-12" points="234.04 439.57 213.4 439.59 210.97 412.81 236.82 412.78 234.04 439.57"/><path class="cls-9" d="M160.35,430.72s5.55-1.72,9.85,3.89,7.43,1.38,9.05.73a7.33,7.33,0,0,1,6,0S185,462.68,183.58,472l-63.17.06s-1.29-6.35,4.47-9.29,30.41-9.88,34.22-16.07S160.35,430.72,160.35,430.72Z" transform="translate(50.44)"/><path class="cls-8" d="M172.88,467.55l-.95-.1c1.28-12.29,12.77-16.33,12.89-16.37l.31.91C185,452,174.09,455.88,172.88,467.55Z" transform="translate(50.44)"/><path class="cls-5" d="M184.17,466.19c-.17,2.27-.36,4.26-.59,5.78l-63.17.06a9.67,9.67,0,0,1,.86-5.78Z" transform="translate(50.44)"/><path class="cls-8" d="M120.18,472.31l0-.23a9.77,9.77,0,0,1,.88-6l.08-.16h.17l63.21-.06,0,.31c-.18,2.41-.38,4.37-.59,5.8l0,.24h-.25Zm1.26-5.78a9.5,9.5,0,0,0-.79,5.22l62.69-.06c.19-1.34.37-3.09.53-5.22Z" transform="translate(50.44)"/><path class="cls-8" d="M152.28,457.83,145,455.78l.26-.93,7.09,2c1.3-.25,14-2.87,15.79-8.14,1.91-5.63-1.22-13.26-1.26-13.34l.89-.37c.13.33,3.3,8.05,1.28,14s-16,8.69-16.64,8.8Z" transform="translate(50.44)"/><rect class="cls-8" x="155.76" y="449.1" width="0.96" height="6.75" transform="translate(-271.99 448.66) rotate(-70.49)"/><rect class="cls-8" x="161.61" y="445.13" width="0.96" height="6.75" transform="translate(-264.35 451.51) rotate(-70.49)"/><path class="cls-8" d="M210,288.22c-2.39,10.09-10.45,47.64-30.23,67.48,0,0-70.19,6.39-58.86-19.54,9.3-21.27,22.47-56.08,28.33-68.13S215.15,266.25,210,288.22Z" transform="translate(50.44)"/><path class="cls-11" d="M202.66,314.6A267,267,0,0,0,210,288.22c5.2-22-34.26-19.05-40.12-7-.48,1-12.25,19.74-12.82,21C159.26,304.94,178.87,319.31,202.66,314.6Z" transform="translate(50.44)"/><path class="cls-8" d="M139.85,432.57s-11.82-57.15-19.6-84.32,41.47-24.29,53.67-4.64c12.53,20.19,15.69,44.62,17.52,88.37Z" transform="translate(50.44)"/><path class="cls-11" d="M148.48,428.4c-.14-.76-14.26-76.19-15.87-83.59-1.65-7.57,20.12-47.94,21-49.66l.84.46c-.23.41-22.53,41.77-21,49,1.61,7.41,15.74,82.86,15.88,83.62Z" transform="translate(50.44)"/><path class="cls-5" d="M133.27,424.86c2.38,6.15,5,13.5,5,13.5a38.06,38.06,0,0,0,11,2.61c33.69,2.17,43-7,43-7s1.76-9.45,1.7-13.63C186.13,422.29,154.75,428.41,133.27,424.86Z" transform="translate(50.44)"/><path class="cls-8" d="M159.26,441.78c-3.06,0-6.38-.1-10-.33a38,38,0,0,1-11.19-2.65l-.2-.08-.07-.19c0-.08-2.65-7.42-5-13.5l-.31-.78.83.13a89.29,89.29,0,0,0,13.28,1.1l0,1a93.35,93.35,0,0,1-12.59-1c2,5.35,4.21,11.37,4.63,12.54a37.71,37.71,0,0,0,10.69,2.49c31.1,2,41.43-5.82,42.51-6.72l.61.74C190.87,435.84,182.44,441.78,159.26,441.78Z" transform="translate(50.44)"/><path class="cls-9" d="M177.3,160c31.39,2.2,45.85,86.63,31,135.47,0,0-46.82,1.18-84.9-37.81,0,0,1.63-12.05,12.7-22.63,0,0,3-42.73,13.79-59.85S170,159.52,177.3,160Z" transform="translate(50.44)"/><path class="cls-7" d="M134.78,285.86c1.61-1.63,14.58-3.82,14.58-15.39,0-4.17,1.83-31.21,2.46-38.92s3.53-56.8,7.47-67.66c-4.16,2-5.49,3.55-10.24,11.12-10.74,17.12-9.65,42.54-16.46,57.85-6.23,14-18.38,30.8-18.38,30.8C126.88,260.83,124.81,280.44,134.78,285.86Z" transform="translate(50.44)"/><path class="cls-8" d="M147,272.56l-.91-.27c1.59-5.26,1.1-9.23-1.48-22.61-2.66-13.81-1.24-55.88-1.23-56.31l0-1.06.77.73c1.38,1.32,3.18,3,4.52,4.28-.67-1.55-1.42-3.43-1.74-4.24l-.05-.13,0-.15c2.43-10.23,10.91-27.78,11-28l.86.42c-.08.17-8.44,17.46-10.89,27.61a66.78,66.78,0,0,0,2.65,6.14l.29.35-.3.34c-.14.14-.23.23-.68-.09l0,0-.08-.11c-.7-.54-2.16-1.91-5.47-5.07-.2,6.66-1.16,42.55,1.25,55C148.13,263.07,148.61,267.1,147,272.56Z" transform="translate(50.44)"/><path class="cls-7" d="M177.3,160s-10,14.15-10,27.42c0,15.45-7,33.18-.89,69.12,5.86,34.19-9.81,44.78-10.09,45.18,23.86,9.94,61.54-5.62,61.54-5.62C224.17,245.56,208.7,162.21,177.3,160Z" transform="translate(50.44)"/><path class="cls-8" d="M166.34,291.36l-.92-.27a57,57,0,0,1,3-7.84c2.21-4.89,4-8.75,4.64-25.42.9-22.1.09-61.76,0-67.2l-3.41,1,3-4.79a122.57,122.57,0,0,0,4.39-25.9l1,0a124.45,124.45,0,0,1-4.45,26.19l-.05.12-1.7,2.73,2.21-.64V190c0,.44,1,44.21,0,67.88-.69,16.85-2.47,20.79-4.72,25.77A55.45,55.45,0,0,0,166.34,291.36Z" transform="translate(50.44)"/><path class="cls-8" d="M200.14,184.33l-6.58,56.1S216.86,224.58,200.14,184.33Z" transform="translate(50.44)"/><path class="cls-5" d="M152.6,146.25l6.2,19.6S171.07,170,177.3,160l-5.59-19.89Z" transform="translate(50.44)"/><path class="cls-8" d="M164.63,167a20.73,20.73,0,0,1-5.92-.84l-.14,0-6.32-20,.27-.09,19.38-6.2.08.28,5.62,20-.07.1C174.07,165.71,168.74,167,164.63,167ZM159,165.62c1.34.4,12.26,3.33,18-5.63l-5.47-19.5L153,146.43Z" transform="translate(50.44)"/><path class="cls-8" d="M155.35,154.91l2,6.34c12.69.05,10.52-14.5,10.47-14.48C154.78,151.21,155.35,154.91,155.35,154.91Z" transform="translate(50.44)"/><path class="cls-5" d="M117.11,214.09c-1.37-1.72-2.41-1.65-2.84-4a11.11,11.11,0,0,0-1.87-4.2,32.08,32.08,0,0,1-9.58,4.53c-2.61.6-2.23-1.59-1.11-2.35,2.53-1.73,7.37-5.9,10.68-7.51l.09,0c2.14-1.45,11.18-3.25,13-3.1,2.68.21,7.29,1.6,11.8,6.61,6.76,9.32,35.37,26.07,38,29.56,8.38,11.19-8.42,26.06-19.14,17.84C147.56,244.87,133,224.1,129,214.1h0c-2.05-5.21-3.27,1-6.1,2.42S118.48,215.81,117.11,214.09Z" transform="translate(50.44)"/><path class="cls-8" d="M163.05,254.13a11.56,11.56,0,0,1-7.15-2.47c-8.67-6.65-22.83-26.91-27-37h0l-.16-.41c-.58-1.47-1-1.81-1.28-1.85-.47-.06-1.12.84-1.75,1.71a8.42,8.42,0,0,1-2.64,2.73c-3,1.53-4.69-.63-6.07-2.36l-.13-.16a9.61,9.61,0,0,0-1.21-1.24,4.34,4.34,0,0,1-1.69-2.93,9.72,9.72,0,0,0-1.58-3.7l-.07-.12a32.26,32.26,0,0,1-9.42,4.4c-1.55.35-2.08-.24-2.25-.63a2.07,2.07,0,0,1,.89-2.29c.81-.56,1.89-1.38,3-2.26a52.41,52.41,0,0,1,7.7-5.27.25.25,0,0,1,.09,0c2.32-1.52,11.27-3.29,13.13-3.13s7,1.12,12,6.71c4.21,5.81,17.1,14.63,26.51,21.08,5.85,4,10.47,7.16,11.48,8.51,4.52,6,1.77,12.47-1.95,16.16A15.46,15.46,0,0,1,163.05,254.13Zm-33.9-40.55.17.4c3.87,9.79,18.47,30.67,27,37.18,5.69,4.37,12.7,2,16.81-2.07,3.54-3.51,6.16-9.62,1.89-15.33-.95-1.27-5.76-4.56-11.33-8.37-9.46-6.47-22.4-15.33-26.65-21.2-4.88-5.4-9.72-6.33-11.57-6.48s-10.67,1.62-12.77,3l-.11.05a52.27,52.27,0,0,0-7.61,5.21c-1.15.88-2.23,1.72-3,2.28a1.48,1.48,0,0,0-.67,1.52c.16.36.71.45,1.53.26a31.67,31.67,0,0,0,9.47-4.48l.28-.19.42.67a10.47,10.47,0,0,1,1.66,3.93,3.76,3.76,0,0,0,1.49,2.57,10.73,10.73,0,0,1,1.29,1.31l.12.16c1.37,1.72,2.78,3.49,5.3,2.2a8,8,0,0,0,2.41-2.53c.8-1.12,1.49-2.08,2.33-2,.6.07,1.1.64,1.62,1.83Z" transform="translate(50.44)"/><path class="cls-8" d="M186.81,272.87a25,25,0,0,1-8-1l.33-.9c8.09,2.88,28-1.59,28.21-1.64l.21.94C207,270.38,195.87,272.87,186.81,272.87Z" transform="translate(50.44)"/><path class="cls-7" d="M189.33,168.43c15.63,9.18,16.42,43.16.38,90.44,0,0-16-10.23-33.35-39.77,0,0,3.32-4,9.88-27.95S182.8,164.6,189.33,168.43Z" transform="translate(50.44)"/><path class="cls-8" d="M190.34,258.51l-.91-.3c13.48-40.08,16.14-63.52,8.9-78.4l.86-.42C206.55,194.52,203.9,218.18,190.34,258.51Z" transform="translate(50.44)"/><path class="cls-5" d="M157.44,211.92c-1,2.73-2.24,5.69-2.24,5.69a25.35,25.35,0,0,0,2.16,5c11.82,20.55,32.34,38.15,32.34,38.15l5.24-8.8C183.45,241.27,163.27,222,157.44,211.92Z" transform="translate(50.44)"/><path class="cls-8" d="M189.14,261c-2.24-1.77-21.67-19.79-32.19-38.08a26.06,26.06,0,0,1-2.21-5.13l0-.16.06-.16s1.21-3,2.23-5.68l.36-.94.5.87a51,51,0,0,0,3.75,5.45l-.76.58a55.7,55.7,0,0,1-3.3-4.7c-.8,2.06-1.6,4.06-1.83,4.63a24.8,24.8,0,0,0,2.07,4.76c10.45,18.17,29.73,36.06,31.95,37.81Z" transform="translate(50.44)"/><path class="cls-8" d="M126.62,324.73l-.89-.35c.08-.21,8.25-21.25,14.08-34.56l.88.38C134.87,303.49,126.7,324.52,126.62,324.73Z" transform="translate(50.44)"/><path class="cls-8" d="M172.21,119.33c-2.29-9-17.7-4.62-17.7-4.62,12-23.57,30.49-10.62,36.62-3.28,8,9.59,13.36,31.09,8.28,35.19l-2.1-1.06-.49,3.35c-2.58,3.2-10.38,8.55-13,8.69C183.79,157.6,172.35,119.88,172.21,119.33Z" transform="translate(50.44)"/><path class="cls-5" d="M157.61,156.91c5.2-1.47,12.75-11.19,13.54-16.53.29-1.91-1.25-6.34-2.53-8.33-4-6.23-7.48-12-13.3-12.36-2.45-.17-11.4,2.87-13.5,3.45-4.81,1.32-2.55,8.7-.69,15.63C143.22,146.54,148.44,159.5,157.61,156.91Z" transform="translate(50.44)"/><path class="cls-8" d="M155.27,157.53a8.33,8.33,0,0,1-4.15-1.13C145.21,153,142,143,140.86,138.84l-.27-1c-1.82-6.71-3.69-13.65,1.16-15l2.22-.68c3.52-1.09,9.38-2.93,11.37-2.78,5.7.4,9.08,5.62,13,11.67l.53.82c1.23,1.91,2.89,6.43,2.58,8.52-.79,5.31-8.3,15.22-13.75,16.76h0A8.84,8.84,0,0,1,155.27,157.53ZM155.1,120c-2,0-7.6,1.72-11,2.77-1,.3-1.78.55-2.25.68-4.31,1.18-2.5,7.85-.76,14.29l.27,1c1.1,4.1,4.27,14,10,17.22a7.73,7.73,0,0,0,6.13.73h0c5.18-1.46,12.6-11.26,13.35-16.3.26-1.78-1.19-6.09-2.5-8.13l-.53-.83c-3.82-5.92-7.12-11-12.54-11.41Z" transform="translate(50.44)"/><path class="cls-8" d="M150.76,145.6v-.88c-1.1,0-2.88-.22-3.2-.71,0,0-.07-.11,0-.27,1.51-3.58-.56-8.14-.65-8.33l-.08-.17-.18-.06a6.12,6.12,0,0,0-5.14,1l.49.73a5.38,5.38,0,0,1,4.19-.92c.36.87,1.77,4.6.56,7.43a1.11,1.11,0,0,0,.08,1.1C147.52,145.55,150.22,145.6,150.76,145.6Z" transform="translate(50.44)"/><path class="cls-8" d="M140.6,108.33c8.41-2.31,16-2.22,25.68,1.83s7.62,31.44,6.83,34a2.73,2.73,0,0,1-.39.82l-3.07-11.16-6.69-.25c-1.25-2.8-.37-4.13-1-6.38-1.75-6.36-14.73-4-22.44-1.26C133.51,128.08,125.07,112.61,140.6,108.33Z" transform="translate(50.44)"/><path class="cls-5" d="M163.88,132.87a5.05,5.05,0,1,0,5.26-4.84A5,5,0,0,0,163.88,132.87Z" transform="translate(50.44)"/><path class="cls-8" d="M168.94,138.56h-.24a5.48,5.48,0,0,1-5.25-5.71h0a5.53,5.53,0,0,1,5.71-5.26,5.49,5.49,0,0,1-.22,11Zm-4.62-5.67a4.61,4.61,0,0,0,9.22.38,4.61,4.61,0,1,0-9.22-.38Z" transform="translate(50.44)"/><path class="cls-8" d="M170.08,135.67a3.29,3.29,0,0,0,1.19-.65l-.57-.67s-1,.82-1.5.39a.29.29,0,0,1-.08-.11,1.14,1.14,0,0,1,.14-.25,1.6,1.6,0,0,0,.13-1.83,2.76,2.76,0,0,0-1.11-1.07c-.46-.28-.53-.33-.22-1a.6.6,0,0,1,.41-.35c.86-.23,2.41.62,2.9,1l.48-.74c-.23-.14-2.25-1.44-3.61-1.06h0a1.53,1.53,0,0,0-1,.84c-.58,1.27-.09,1.71.56,2.11a1.9,1.9,0,0,1,.8.73.77.77,0,0,1-.1.95,1,1,0,0,0,.09,1.47A1.48,1.48,0,0,0,170.08,135.67Z" transform="translate(50.44)"/><path class="cls-8" d="M149.21,148.94s5,1.16,7.65-2.43c0,0-.46,5.09-2.92,5.81S149.21,148.94,149.21,148.94Z" transform="translate(50.44)"/><path class="cls-8" d="M150.77,133.62c0-.11.74-2.6,5.49-2.88l0-.87c-5.44.32-6.26,3.4-6.29,3.54Z" transform="translate(50.44)"/><path class="cls-8" d="M154.66,135.56a1.7,1.7,0,1,1-2.09-1.19A1.7,1.7,0,0,1,154.66,135.56Z" transform="translate(50.44)"/><path class="cls-8" d="M145.69,138.56a1.7,1.7,0,1,1-2.09-1.19A1.71,1.71,0,0,1,145.69,138.56Z" transform="translate(50.44)"/><path class="cls-13" d="M95.31,238.67a.43.43,0,0,0,.43.43h74.34a.85.85,0,0,0,.86-.86v-2.08H95.31Z" transform="translate(50.44)"/><path class="cls-13" d="M161.23,235.29v.87h2.66V235h-2.37A.29.29,0,0,0,161.23,235.29Z" transform="translate(50.44)"/><path class="cls-13" d="M158.15,235.29v.87h2.66V235h-2.37A.29.29,0,0,0,158.15,235.29Z" transform="translate(50.44)"/><path class="cls-13" d="M155.07,235.29v.87h2.66V235h-2.37A.29.29,0,0,0,155.07,235.29Z" transform="translate(50.44)"/><path class="cls-13" d="M142.25,235.29v.87h2.65V235h-2.36A.29.29,0,0,0,142.25,235.29Z" transform="translate(50.44)"/><path class="cls-13" d="M139.17,235.29v.87h2.65V235h-2.36A.29.29,0,0,0,139.17,235.29Z" transform="translate(50.44)"/><path class="cls-13" d="M103,235.29v.87h2.66V235h-2.37A.29.29,0,0,0,103,235.29Z" transform="translate(50.44)"/><path class="cls-13" d="M99.94,235.29v.87h2.66V235h-2.37A.29.29,0,0,0,99.94,235.29Z" transform="translate(50.44)"/><path class="cls-13" d="M145.42,235.29v.87h9.12V235h-8.83A.29.29,0,0,0,145.42,235.29Z" transform="translate(50.44)"/><path class="cls-13" d="M90,235.29v.87h9.12V235H90.24A.29.29,0,0,0,90,235.29Z" transform="translate(50.44)"/><path class="cls-13" d="M106.39,235.29v.87h31.68V235H106.68A.29.29,0,0,0,106.39,235.29Z" transform="translate(50.44)"/><path class="cls-14" d="M90.67,235H84.24a.65.65,0,0,0-.65.66v.5H91v-.87A.29.29,0,0,0,90.67,235Z" transform="translate(50.44)"/><path class="cls-15" d="M81.79,235H75.36a.65.65,0,0,0-.66.66v.5h7.37v-.87A.28.28,0,0,0,81.79,235Z" transform="translate(50.44)"/><path class="cls-16" d="M72.9,235H66.47a.66.66,0,0,0-.66.66v.5h7.38v-.87A.29.29,0,0,0,72.9,235Z" transform="translate(50.44)"/><path class="cls-17" d="M64,235H57.58a.66.66,0,0,0-.66.66v.5H64.3v-.87A.29.29,0,0,0,64,235Z" transform="translate(50.44)"/><path class="cls-18" d="M53.55,235H50.18a.65.65,0,0,0-.65.66v.5h4.31v-.87A.29.29,0,0,0,53.55,235Z" transform="translate(50.44)"/><path class="cls-19" d="M48.31,235H44.94a.65.65,0,0,0-.65.66v.5H48.6v-.87A.29.29,0,0,0,48.31,235Z" transform="translate(50.44)"/><path class="cls-20" d="M43.38,235H40a.66.66,0,0,0-.66.66v.5h4.32v-.87A.29.29,0,0,0,43.38,235Z" transform="translate(50.44)"/><path class="cls-13" d="M101.46,180.64a5.58,5.58,0,0,0-5.27-4.15l17.14,62.26a3.39,3.39,0,0,0,2.13-4.15C114.82,232,104.77,193.32,101.46,180.64Z" transform="translate(50.44)"/><path class="cls-5" d="M96.35,175.94H17.17a1.7,1.7,0,0,0-1.65,2.11L30.1,235.62h83.3L98.68,177.75A2.4,2.4,0,0,0,96.35,175.94Z" transform="translate(50.44)"/><path class="cls-8" d="M113.92,236H29.79l-.08-.31L15.14,178.15a2.07,2.07,0,0,1,.37-1.81,2.11,2.11,0,0,1,1.66-.81H96.35a2.79,2.79,0,0,1,2.72,2.12Zm-83.51-.81h82.47L98.29,177.85a2,2,0,0,0-1.94-1.51H17.17a1.28,1.28,0,0,0-1,.5,1.27,1.27,0,0,0-.23,1.11Z" transform="translate(50.44)"/><path class="cls-8" d="M29.73,238.67a.43.43,0,0,0,.43.43h81.71a.86.86,0,0,0,.86-.86v-2.63h-83Z" transform="translate(50.44)"/><rect class="cls-8" x="162.23" y="235.67" width="58.22" height="0.99"/><rect class="cls-13" x="80.18" y="235.67" width="67.92" height="0.99"/><path class="cls-5" d="M65.4,238.7c-.39-.11-1.48-2-2.36-4.56-.69-2-.64-2.69-2.78-2.43-3,.37-6.6.89-7.28,1.27s-.42,5.07-.08,8.21l-.68-.1c-1.21-3.32-3.32-8.5-5.37-10.44-.8-.77-2.7-.06-2.34,1,1.07,3.13,2.43,6.4,3.66,9.17-1.51-.06-3.07-.06-4.57,0-5.15.1-9,6.3-4.52,4.9s16.11,5,16.11,5a.76.76,0,0,1,.18-.06c2.25,1,5.55,1.61,10.25.85Z" transform="translate(50.44)"/><path class="cls-8" d="M61.68,252.1a16.11,16.11,0,0,1-6.32-1.17l-.06,0-.12.05-.12-.06c-.12-.06-11.56-6.34-15.9-5-1,.33-1.76.29-2.12-.12a1.25,1.25,0,0,1,0-1.37,8,8,0,0,1,6.6-4c1.52,0,2.88,0,4.13,0-1.42-3.24-2.6-6.19-3.49-8.79a1.15,1.15,0,0,1,.56-1.35,1.91,1.91,0,0,1,2.24.07c2,1.88,4,6.66,5.39,10.4l.15,0c-.77-7.55,0-8,.27-8.13.57-.32,3.06-.76,7.37-1.3,2.15-.26,2.38.45,2.89,2,.06.19.12.39.2.6a12.92,12.92,0,0,0,2.17,4.39l-.16.53c-.63-.18-1.81-2.6-2.54-4.74-.08-.21-.14-.42-.2-.6-.5-1.53-.6-1.85-2.29-1.64-5.77.72-6.93,1.1-7.17,1.23-.08.05-.72.64.06,7.94l0,.37-.36-.06-.66-.1-.17,0-.06-.16c-1.35-3.71-3.37-8.51-5.3-10.34a1.37,1.37,0,0,0-1.56,0,.61.61,0,0,0-.33.69c.93,2.69,2.16,5.77,3.66,9.15l.18.41-.45,0c-1.37-.05-2.86-.06-4.55,0a7.42,7.42,0,0,0-6.1,3.62c-.15.36-.17.64,0,.78s.39.31,1.54,0c4.36-1.37,14.9,4.26,16.21,5l.07,0,.1,0,.1,0a18.14,18.14,0,0,0,10.1.84l.08.55A24.41,24.41,0,0,1,61.68,252.1Z" transform="translate(50.44)"/><polygon class="cls-8" points="382.17 368.57 370.27 282.87 302.86 282.87 314.77 368.57 382.17 368.57"/><polygon class="cls-7" points="382.13 368.6 314.73 368.6 371.47 233.76 438.88 233.76 382.13 368.6"/><polygon class="cls-8" points="453.18 338.4 438.55 233.76 371.14 233.76 385.77 338.4 453.18 338.4"/><polygon class="cls-7" points="536.98 107.59 524.66 141.62 511.65 177.58 466.84 301.31 453.29 338.75 385.87 338.75 386 338.4 423.89 233.76 457.25 141.62 469.58 107.59 536.98 107.59"/><polygon class="cls-7" points="564.13 141.62 515.34 75.5 411.51 141.62 564.13 141.62"/><polygon class="cls-8" points="511.73 177.59 466.82 301.6 453.36 338.75 452.15 338.75 452.27 338.4 452.92 336.62 467.22 297.13 510.61 177.34 511.65 177.58 511.73 177.59"/><path class="cls-5" d="M275.43,221c13.87,1.61,28.91-8,36.08-24.19s4.21-33.55-6.12-42.79l.5-1.13-7.15-3.17c-15.53-6.88-35,3.06-43.46,22.19s-2.75,40.21,12.78,47.09l6.82,3.23Z" transform="translate(50.44)"/><path class="cls-8" d="M275.15,223l-7.33-3.47c-15.78-7-21.64-28.45-13-47.83a43,43,0,0,1,19.34-21.12c8.36-4.27,17.19-4.75,24.85-1.36l7.68,3.4-.57,1.28c10.49,9.68,13,27.35,6,43.16s-21.93,26-36.26,24.56Zm13.16-74.89a30.09,30.09,0,0,0-13.69,3.47,41.87,41.87,0,0,0-18.82,20.58c-8.34,18.81-2.74,39.61,12.48,46.35l6.32,3,.48-1.09.41,0c14,1.62,28.57-8.19,35.51-23.86s4.41-32.85-6-42.14l-.3-.28.44-1-6.64-2.94A25.05,25.05,0,0,0,288.31,148.13Z" transform="translate(50.44)"/><path class="cls-2" d="M318.67,200c-8.47,19.13-28.27,29.13-43.79,22.25s-20.91-28-12.44-47.15,27.93-29.07,43.45-22.19S327.14,180.89,318.67,200Z" transform="translate(50.44)"/><path class="cls-8" d="M285.38,225.09a26.52,26.52,0,0,1-10.75-2.25c-15.68-7-21.4-28.46-12.76-48s28.45-29.51,44.27-22.51c7.69,3.4,13.27,10.28,15.74,19.35a43.07,43.07,0,0,1-2.65,28.56C312.46,215.56,298.7,225.09,285.38,225.09Zm10.12-73.72c-12.73,0-26,9.23-32.5,24-8.36,18.88-2.92,39.67,12.13,46.34,15.33,6.78,34.61-3.05,43-21.94h0A41.83,41.83,0,0,0,320.68,172c-2.36-8.71-7.7-15.3-15-18.55A24.83,24.83,0,0,0,295.5,151.37Z" transform="translate(50.44)"/><path class="cls-5" d="M313.64,197.81c-7,15.71-23.22,23.93-36,18.27s-17.18-23-10.22-38.72,22.94-23.88,35.7-18.23S320.6,182.1,313.64,197.81Z" transform="translate(50.44)"/><path class="cls-8" d="M286.25,218.44a21.68,21.68,0,0,1-8.81-1.84c-6.3-2.8-10.86-8.46-12.81-16a36,36,0,0,1,2.31-23.51c7.07-16,23.42-24.27,36.43-18.51,6.33,2.8,10.93,8.46,13,15.93A35.47,35.47,0,0,1,314.15,198h0a35.4,35.4,0,0,1-16.07,17.42A26.21,26.21,0,0,1,286.25,218.44Zm8.36-60.53c-10.44,0-21.28,7.56-26.64,19.67a34.89,34.89,0,0,0-2.26,22.77c1.87,7.16,6.2,12.57,12.19,15.22s13,2.27,19.67-1.11a34.33,34.33,0,0,0,15.56-16.88h0a34.32,34.32,0,0,0,2.11-22.74c-1.93-7.14-6.31-12.53-12.32-15.19A20.38,20.38,0,0,0,294.61,157.91Z" transform="translate(50.44)"/><path class="cls-5" d="M298.69,174.33a11.26,11.26,0,0,1,2.22,1.7,8.3,8.3,0,0,1,1.61,2.21,8,8,0,0,1,.79,2.71,9.41,9.41,0,0,1-.22,3.21l-3.16-1.31a6.78,6.78,0,0,0-.49-3.19,5.24,5.24,0,0,0-2-2.25l-3.66,8.82c.52.53,1,1.07,1.55,1.61s1,1.09,1.42,1.65a16.1,16.1,0,0,1,1.15,1.72,8.46,8.46,0,0,1,.74,1.83,6.19,6.19,0,0,1-.33,4,7.22,7.22,0,0,1-2,2.83,7.52,7.52,0,0,1-2.69,1.49,9.2,9.2,0,0,1-3.06.39,12.79,12.79,0,0,1-3.06-.5l-1.84,4.41-3.19-1.33,1.86-4.48a9,9,0,0,1-2.21-2.19,10.26,10.26,0,0,1-1.43-2.82,11.53,11.53,0,0,1-.57-3.25,12.69,12.69,0,0,1,.37-3.49l3.35,1.4a9.53,9.53,0,0,0-.24,2.1,9,9,0,0,0,.21,2,6.26,6.26,0,0,0,.69,1.71,5.41,5.41,0,0,0,1.15,1.37l4-9.57c-.72-.76-1.41-1.53-2-2.31a12,12,0,0,1-1.57-2.42,7.38,7.38,0,0,1-.72-2.61,6,6,0,0,1,.52-2.87,6.17,6.17,0,0,1,1.57-2.26,7.42,7.42,0,0,1,2.32-1.4,8.81,8.81,0,0,1,2.79-.55,10.84,10.84,0,0,1,3,.31l1.17-2.83,3.2,1.33Zm-9.5,3.83a3.47,3.47,0,0,0-.27,1.39,4.42,4.42,0,0,0,.29,1.36,6.64,6.64,0,0,0,.75,1.37,13.65,13.65,0,0,0,1.1,1.39l3.13-7.55a4.93,4.93,0,0,0-3.15.17A3.39,3.39,0,0,0,289.19,178.16Zm5.75,17.61a2.67,2.67,0,0,0,.17-1.45,4.78,4.78,0,0,0-.51-1.52,9.08,9.08,0,0,0-1-1.56,18.36,18.36,0,0,0-1.3-1.52l-3.53,8.5a6.46,6.46,0,0,0,2.05.23,5.32,5.32,0,0,0,1.78-.38,4.13,4.13,0,0,0,2.34-2.3Z" transform="translate(50.44)"/><path class="cls-8" d="M286,206.43l-4.24-1.76,1.91-4.6a9.63,9.63,0,0,1-2-2,10.78,10.78,0,0,1-1.5-3,12,12,0,0,1-.6-3.41A13,13,0,0,1,280,188l.16-.64,4.4,1.83-.11.46a9.72,9.72,0,0,0-.23,2,7.84,7.84,0,0,0,.2,1.83A5.53,5.53,0,0,0,285,195a4.07,4.07,0,0,0,.48.67l3.51-8.46c-.65-.71-1.26-1.4-1.82-2.07a12.85,12.85,0,0,1-1.64-2.53,8.13,8.13,0,0,1-.77-2.81,6.52,6.52,0,0,1,.56-3.13,6.62,6.62,0,0,1,1.72-2.47,7.91,7.91,0,0,1,2.49-1.51,9.62,9.62,0,0,1,3-.58,11.39,11.39,0,0,1,2.66.22l1.21-2.91,4.24,1.76-1.21,2.9a12,12,0,0,1,1.92,1.53A9.18,9.18,0,0,1,303,178a8.64,8.64,0,0,1,.85,2.9,10.18,10.18,0,0,1-.23,3.39l-.15.65-4.14-1.72,0-.39a6.19,6.19,0,0,0-.44-2.93,4.43,4.43,0,0,0-1.27-1.61l-3.25,7.82c.44.45.87.9,1.3,1.36a21.18,21.18,0,0,1,1.45,1.69,14.72,14.72,0,0,1,1.2,1.79,8.22,8.22,0,0,1,.79,2,6.83,6.83,0,0,1,.2,2.13,6.91,6.91,0,0,1-.55,2.26,7.93,7.93,0,0,1-2.12,3,8.27,8.27,0,0,1-2.88,1.6,9.59,9.59,0,0,1-3.25.41,13.42,13.42,0,0,1-2.71-.39Zm-2.77-2.37,2.16.9,1.81-4.35.48.14a12.9,12.9,0,0,0,2.93.47,8.64,8.64,0,0,0,2.88-.36,7.07,7.07,0,0,0,2.49-1.39,6.79,6.79,0,0,0,1.81-2.62,6,6,0,0,0,.46-1.89,5.53,5.53,0,0,0-.17-1.78,7.38,7.38,0,0,0-.68-1.69,13.34,13.34,0,0,0-1.11-1.66,20.81,20.81,0,0,0-1.38-1.6c-.5-.54-1-1.08-1.54-1.61l-.26-.27,4.06-9.77.56.36a5.73,5.73,0,0,1,2.24,2.49,7.07,7.07,0,0,1,.56,3l2.17.9a8.59,8.59,0,0,0,.07-2.36,7.43,7.43,0,0,0-.73-2.53,7.94,7.94,0,0,0-1.5-2.06,11.16,11.16,0,0,0-2.11-1.62l-.43-.24,1.15-2.77-2.16-.89-1.15,2.75-.46-.11a10.49,10.49,0,0,0-2.83-.3,8.58,8.58,0,0,0-2.61.51,6.86,6.86,0,0,0-2.14,1.3,5.67,5.67,0,0,0-1.44,2.06,5.6,5.6,0,0,0-.47,2.61,6.8,6.8,0,0,0,.67,2.41,11.62,11.62,0,0,0,1.49,2.31c.61.73,1.28,1.5,2,2.27l.25.26-4.41,10.63-.59-.5a6.05,6.05,0,0,1-1.28-1.52,6.7,6.7,0,0,1-.74-1.86,8.56,8.56,0,0,1-.23-2.1,10.57,10.57,0,0,1,.16-1.76l-2.31-1a12.21,12.21,0,0,0-.21,2.68,11.12,11.12,0,0,0,.54,3.1,9.72,9.72,0,0,0,1.35,2.67,8.48,8.48,0,0,0,2.08,2.06l.37.26Zm7.3-5a7,7,0,0,1-1.88-.26l-.62-.16,4.11-9.9.59.63c.47.51.92,1,1.34,1.57a9.68,9.68,0,0,1,1.05,1.65,5.63,5.63,0,0,1,.57,1.69,3.29,3.29,0,0,1-.21,1.75h0a4.71,4.71,0,0,1-1.05,1.57,4.84,4.84,0,0,1-1.59,1,6.22,6.22,0,0,1-2,.42Zm-1-1.2a5.85,5.85,0,0,0,1.24.07,5.06,5.06,0,0,0,1.6-.34,3.78,3.78,0,0,0,1.22-.79,3.85,3.85,0,0,0,.81-1.2,2.17,2.17,0,0,0,.14-1.15,4.32,4.32,0,0,0-.46-1.35,7.9,7.9,0,0,0-.94-1.47c-.22-.28-.44-.56-.68-.83Zm1.69-13.11-.6-.66a14.13,14.13,0,0,1-1.14-1.45,7,7,0,0,1-.81-1.48,4.84,4.84,0,0,1-.33-1.56,3.84,3.84,0,0,1,.31-1.61,4,4,0,0,1,2.14-2.18,5.62,5.62,0,0,1,3.51-.2l.65.15Zm1.51-8.2a3.69,3.69,0,0,0-1.48.29,2.85,2.85,0,0,0-1.56,1.58h0a2.81,2.81,0,0,0-.23,1.15,3.64,3.64,0,0,0,.26,1.18,6,6,0,0,0,.68,1.25c.15.22.31.43.48.65l2.51-6.06A5.07,5.07,0,0,0,292.75,176.51Z" transform="translate(50.44)"/><path class="cls-8" d="M263.38,216.85c-12.25-8.73-16.16-27.73-8.48-45.07a42.89,42.89,0,0,1,19.27-21.05c8.33-4.25,17.11-4.73,24.73-1.35l7.16,3.17c7.63,3.38,13.18,10.2,15.62,19.22a44.62,44.62,0,0,1-22.07,49.5c-8.43,4.27-17.27,4.76-24.9,1.38l-6.83-3.23A24.87,24.87,0,0,1,263.38,216.85Zm46.74-61a24.78,24.78,0,0,0-4.4-2.51l-7.15-3.17c-7.39-3.27-15.92-2.8-24,1.33a42.07,42.07,0,0,0-18.89,20.65c-7.51,17-3.73,35.54,8.21,44a24.26,24.26,0,0,0,4.36,2.49l6.83,3.23c7.38,3.28,16,2.79,24.17-1.36a42.16,42.16,0,0,0,19.06-20.68h0A42,42,0,0,0,320.88,172,28.68,28.68,0,0,0,310.12,155.82Z" transform="translate(50.44)"/><path class="cls-5" d="M401.93,88.65c7.54-6.75,9.57-19.54,4.22-31.22S390,39,380,40.17l-.37-.82-5.16,2.36c-11.2,5.12-15.17,20.46-8.86,34.26S386.1,96.81,397.3,91.69l5-2.15Z" transform="translate(50.44)"/><path class="cls-8" d="M389.56,93.77c-9.5,0-19.36-6.74-24.34-17.63a31.17,31.17,0,0,1-2.16-20.65c1.7-6.6,5.69-11.62,11.22-14.15l5.53-2.53.42.93c10.31-1,21.08,6.12,26.29,17.52s3.57,24.41-4.1,31.49l.45,1-5.41,2.32A19,19,0,0,1,389.56,93.77ZM379.41,39.89l-4.79,2.19c-5.31,2.43-9.13,7.26-10.77,13.61A30.43,30.43,0,0,0,366,75.81c6.21,13.57,20.19,20.53,31.17,15.51l4.66-2-.36-.78.23-.2c7.59-6.8,9.29-19.45,4.12-30.75s-15.7-18.2-25.75-17l-.3,0Z" transform="translate(50.44)"/><path class="cls-2" d="M411.32,55.07c6.31,13.8,2.21,29.35-9,34.47s-25.27-2.12-31.58-15.92-2.34-29.15,8.86-34.27S405,41.27,411.32,55.07Z" transform="translate(50.44)"/><path class="cls-8" d="M394.76,91.62c-9.48,0-19.39-6.83-24.42-17.82-6.4-14-2.32-29.64,9.08-34.85,5.55-2.54,12-2.27,18.08.76a31.24,31.24,0,0,1,14.22,15.17,31.19,31.19,0,0,1,2.1,20.79c-1.74,6.67-5.76,11.75-11.3,14.28A18.6,18.6,0,0,1,394.76,91.62Zm-7.37-53.5a18.18,18.18,0,0,0-7.59,1.64c-11,5-14.84,20.12-8.64,33.67s20.13,20.67,31,15.71c5.29-2.43,9.13-7.29,10.81-13.69a30.39,30.39,0,0,0-2-20.2h0A30.31,30.31,0,0,0,397.1,40.52,21.81,21.81,0,0,0,387.39,38.12Z" transform="translate(50.44)"/><path class="cls-5" d="M407.7,56.74c5.18,11.33,1.82,24.11-7.38,28.31S379.56,83.3,374.38,72,372.46,48,381.66,43.83,402.52,45.4,407.7,56.74Z" transform="translate(50.44)"/><path class="cls-8" d="M394,86.82a18.49,18.49,0,0,1-8.38-2.12A26.13,26.13,0,0,1,374,72.14c-5.27-11.52-1.91-24.39,7.48-28.68,4.56-2.09,9.85-1.86,14.88.63a25.68,25.68,0,0,1,11.7,12.48h0a25.72,25.72,0,0,1,1.73,17.1c-1.44,5.49-4.74,9.66-9.31,11.75A15.48,15.48,0,0,1,394,86.82Zm-6-44a14.81,14.81,0,0,0-6.22,1.34c-9,4.1-12.16,16.49-7.08,27.6A25.33,25.33,0,0,0,386,84c4.78,2.43,9.8,2.68,14.12.7s7.49-6,8.86-11.21a24.94,24.94,0,0,0-1.68-16.56h0A24.9,24.9,0,0,0,396,44.82,17.83,17.83,0,0,0,388.05,42.86Z" transform="translate(50.44)"/><path class="cls-5" d="M387.76,53.56a7.71,7.71,0,0,1,2-.39,6.26,6.26,0,0,1,2,.19,5.7,5.7,0,0,1,1.85.88,6.76,6.76,0,0,1,1.64,1.65L393,57a4.91,4.91,0,0,0-2-1.27,3.84,3.84,0,0,0-2.2,0l3,6.23q.81,0,1.62-.06c.53,0,1.06,0,1.57,0a8.77,8.77,0,0,1,1.49.21,5.53,5.53,0,0,1,1.35.47,4.92,4.92,0,0,1,1.15.84,4.77,4.77,0,0,1,.88,1.27,5.28,5.28,0,0,1,.59,2.43,5.34,5.34,0,0,1-.48,2.18,6.74,6.74,0,0,1-1.26,1.85A9.39,9.39,0,0,1,397,72.59l1.52,3.12-2.26,1.09-1.54-3.16a6.55,6.55,0,0,1-2.25.15,7.61,7.61,0,0,1-2.22-.59,8.36,8.36,0,0,1-2-1.25,9.34,9.34,0,0,1-1.71-1.88l2.37-1.15a7.55,7.55,0,0,0,1,1.15,5.63,5.63,0,0,0,1.17.82,4.67,4.67,0,0,0,1.26.46,4,4,0,0,0,1.3,0l-3.29-6.76c-.76,0-1.5,0-2.23,0a8.61,8.61,0,0,1-2.06-.32,5.21,5.21,0,0,1-1.77-.86,4.81,4.81,0,0,1-1.78-3.61,5.37,5.37,0,0,1,.36-1.93,6.33,6.33,0,0,1,1-1.78,8,8,0,0,1,1.6-1.46l-1-2,2.26-1.1Zm-2.49,7a2.33,2.33,0,0,0,.63.81,2.92,2.92,0,0,0,.88.5,4.55,4.55,0,0,0,1.1.25,10.4,10.4,0,0,0,1.28.07l-2.59-5.33a3.58,3.58,0,0,0-1.42,1.79A2.52,2.52,0,0,0,385.27,60.56Zm12.33,5.35a2,2,0,0,0-.7-.79,3.78,3.78,0,0,0-1.08-.46,6.75,6.75,0,0,0-1.32-.21,14.15,14.15,0,0,0-1.46,0l2.92,6a4.7,4.7,0,0,0,1.11-1,4,4,0,0,0,.65-1.15,3.13,3.13,0,0,0,.18-1.2A3.07,3.07,0,0,0,397.6,65.91Z" transform="translate(50.44)"/><path class="cls-8" d="M396.08,77.35,394.5,74.1a7.17,7.17,0,0,1-2.07.09,8,8,0,0,1-2.33-.61A9.23,9.23,0,0,1,388,72.26a9.61,9.61,0,0,1-1.79-2l-.27-.39,3.11-1.5.2.27a6.27,6.27,0,0,0,1,1.08,6.46,6.46,0,0,0,1.09.78,4.39,4.39,0,0,0,1.15.41A3,3,0,0,0,393,71l-2.91-6c-.69,0-1.36,0-2,0a8.87,8.87,0,0,1-2.16-.32,5.81,5.81,0,0,1-1.9-.93A4.78,4.78,0,0,1,382.61,62a4.94,4.94,0,0,1-.52-2.12,5.73,5.73,0,0,1,.39-2.08,6.58,6.58,0,0,1,1.1-1.89A7.8,7.8,0,0,1,385,54.53l-1-2.06L387,51l1,2a8,8,0,0,1,1.75-.31,6.7,6.7,0,0,1,2.1.21,6.07,6.07,0,0,1,2,.93,7.1,7.1,0,0,1,1.74,1.76l.28.39-2.93,1.42-.2-.2a4.55,4.55,0,0,0-1.8-1.17,3.23,3.23,0,0,0-1.49-.08l2.68,5.52,1.36,0c.54,0,1.08,0,1.62,0a10.71,10.71,0,0,1,1.55.22,5.72,5.72,0,0,1,1.44.51,4.83,4.83,0,0,1,1.25.91,5.14,5.14,0,0,1,1,1.39,5.77,5.77,0,0,1,.63,2.61,6,6,0,0,1-.52,2.34,7,7,0,0,1-1.34,2,10.12,10.12,0,0,1-1.51,1.29l1.53,3.16ZM395,73.16l1.51,3.1,1.52-.74-1.49-3.08.31-.19a9.3,9.3,0,0,0,1.66-1.37,6.14,6.14,0,0,0,1.19-1.73,5.27,5.27,0,0,0,.45-2,4.87,4.87,0,0,0-.56-2.24,4.18,4.18,0,0,0-.8-1.16,4.37,4.37,0,0,0-1.05-.77,5.43,5.43,0,0,0-1.25-.44,10.15,10.15,0,0,0-1.42-.19c-.51,0-1,0-1.54,0l-1.62.07h-.26l-3.36-6.91.47-.13a4.19,4.19,0,0,1,2.43,0,5,5,0,0,1,1.92,1.16l1.53-.74a6.22,6.22,0,0,0-1.24-1.18,5.59,5.59,0,0,0-1.73-.82,6,6,0,0,0-1.84-.18,8.11,8.11,0,0,0-1.89.37l-.34.11-.95-1.95-1.52.75.94,1.94-.29.2a8.05,8.05,0,0,0-1.52,1.39,5.77,5.77,0,0,0-1,1.67,5,5,0,0,0-.33,1.78,4,4,0,0,0,.43,1.77,4,4,0,0,0,1.18,1.51,4.91,4.91,0,0,0,1.64.8,8.28,8.28,0,0,0,2,.3c.7,0,1.43,0,2.2,0h.27l3.64,7.5-.55.08a4.35,4.35,0,0,1-1.44,0,4.72,4.72,0,0,1-1.37-.5,6.16,6.16,0,0,1-1.25-.88,7.19,7.19,0,0,1-.88-.94l-1.63.8a8.6,8.6,0,0,0,1.36,1.4,8.09,8.09,0,0,0,1.94,1.2,7.09,7.09,0,0,0,2.1.55,6.24,6.24,0,0,0,2.11-.14ZM395.8,71l-3.4-7,.63,0a12.23,12.23,0,0,1,1.49,0,6.93,6.93,0,0,1,1.41.22,4.1,4.1,0,0,1,1.19.5,2.37,2.37,0,0,1,.84,1h0a3.33,3.33,0,0,1,.35,1.33,3.55,3.55,0,0,1-.21,1.36,4.23,4.23,0,0,1-.71,1.27,5.24,5.24,0,0,1-1.2,1.08Zm-2.11-6.2,2.42,5a4,4,0,0,0,1.23-1.67,2.73,2.73,0,0,0,.15-1.05,2.4,2.4,0,0,0-.26-1,1.47,1.47,0,0,0-.55-.63,3.48,3.48,0,0,0-1-.41,7,7,0,0,0-1.25-.19Q394.08,64.83,393.69,64.83Zm-4.58-2.23a10.08,10.08,0,0,1-1.28-.07,4.72,4.72,0,0,1-1.19-.28,3.26,3.26,0,0,1-1-.57,2.65,2.65,0,0,1-.73-.94h0a2.87,2.87,0,0,1-.15-2.21,4,4,0,0,1,1.58-2l.39-.28,3.08,6.35h-.7Zm-2.68-5.11a3,3,0,0,0-.9,1.28,2.09,2.09,0,0,0,.11,1.61h0a2,2,0,0,0,.51.67,2.66,2.66,0,0,0,.77.44,4.69,4.69,0,0,0,1,.23l.58.05Z" transform="translate(50.44)"/><path class="cls-8" d="M393.86,93.18C383.23,95.63,371,88.61,365.31,76.1a31.11,31.11,0,0,1-2.15-20.59c1.7-6.56,5.66-11.56,11.16-14.07l5.16-2.36c5.51-2.52,11.88-2.25,17.95.76a31.1,31.1,0,0,1,14.16,15.1,31.1,31.1,0,0,1,2.09,20.7C412,82.26,408,87.3,402.46,89.82l-5,2.15A18.69,18.69,0,0,1,393.86,93.18ZM383.21,38.45a17.32,17.32,0,0,0-3.47,1.18L374.57,42c-5.33,2.44-9.17,7.29-10.82,13.67a30.44,30.44,0,0,0,2.12,20.19c5.59,12.24,17.49,19.12,27.86,16.74a18.13,18.13,0,0,0,3.44-1.17l5-2.15c5.33-2.44,9.2-7.34,10.89-13.79A30.53,30.53,0,0,0,411,55.19h0a30.43,30.43,0,0,0-13.88-14.8A20.75,20.75,0,0,0,383.21,38.45Z" transform="translate(50.44)"/></g></g></svg>