<?xml version="1.0" encoding="utf-8"?>
<!-- Generator: Adobe Illustrator 22.0.0, SVG Export Plug-In . SVG Version: 6.00 Build 0)  -->
<svg version="1.1" id="Layer_2" xmlns="http://www.w3.org/2000/svg" xmlns:xlink="http://www.w3.org/1999/xlink" x="0px" y="0px"
	 viewBox="0 0 737 737" style="enable-background:new 0 0 737 737;" xml:space="preserve">
<style type="text/css">
	.st0{fill:#DD4522;}
	.st1{fill:#FFFFFF;}
</style>
<rect x="0" class="st0" width="737" height="737"/>
<g>
	<g>
		<path class="st1" d="M160.7,498.8c-4.8-15.5-0.7-20.3,0.7-40.2c0.2-2.5,2.2-3.2,3.6-2.2c0.8,0.6,3,3.2,4.5,5.1
			c11,13.6,10.9,28.5-1.2,41.7c7.8,5,27,13.9,33.1,16.7c11.6,5.4,16.5,6,18.5,6.9c2.2,1,1.2,4-1.3,3.3c-11.3-3.3-10.8-2.4-40-16.7
			c-12.1,13.6-27.8,29.6-45.5,25.1c-6.3-1.6-17.3-6.1-11.9-9.9c0.3-0.2,29.5-15.9,29.6-15.9c21.3-10.6,28.2,4.4-4.8-19.2
			c-26.6,36.4-66.3,16.8-52.9,11.3c13.7-5.7,18.8-10.5,28.9-14.2c22.9-8.4,22.9,8.2-9.1-23.8c-3.8,5.4-11.8,8.8-18.3,10.1
			c-15.2,3.1-28.9-11.7-22.4-14c1.4-0.5-1.3,0.3,22.5-2.9c10.1-1.4,10.4-0.1,10.8-0.7c-7.2-7-12.9-15.3-18.6-23.5
			C52.7,431,63,382.5,69.4,392.3c1.2,1.8,2.8,7.1,7.6,14c5.5,7.9,17.6,16.9,12.8,27.2c2,2.9,4.1,5.8,6.2,8.8c1.4-9.1,4-20,4-20.1
			c0.5-1.5,2.3-2,3.5-0.9c1.1,0.9,5,7.2,6.2,11.5c2.1,7.5-1.2,13-7.8,17.3c7.5,8.1,15.1,16.2,23.8,23.1c0.1-0.6-0.6-3.1-0.9-5.4
			c-0.9-7.2,3.5-30.7,3.9-31.7c0.6-1.6,2.2-2.1,3.6-1.1c1.4,1,3,3.9,3.9,5.4c10.8,19.6,1.7,36.8-1.6,39.9
			C143,486.9,151.5,493.1,160.7,498.8z M129.9,533.5c16.9,7.3,32-7.4,44.5-21c-11.3-2.2-21,2.3-49.5,18.7
			C124.8,531.5,124.3,531.1,129.9,533.5z M142,492.1c-17.7-2.7-28.9,8.6-46.1,15.8c-0.5,0.2-0.5-0.1-0.5,0.4
			C121.8,519.4,142.8,493.5,142,492.1z M87.2,428.2c-1.3-8.8-6.6-7.1-19.5-30.3c-0.2,0.9-1.2,5.1-0.9,11.5
			c0.7,14.7,13.3,22.3,19.8,22.4C87.4,430.7,87.4,429.4,87.2,428.2z M165,462.5c-1.2,12.4-5.6,28,0.6,37.8
			C174.8,491.4,177.7,475.2,165,462.5z M109.7,464.4c-5-2.3-10-0.7-34.6,2.2C88.8,481.1,106.7,469.2,109.7,464.4z M132.4,477
			c8.4-13.1,4.8-28.9-0.5-36C130.3,452.2,125.1,471.8,132.4,477z M103,427.5c-2.4,10.2-3.8,14.1-2.8,18.9
			C105.3,444.8,109.6,436.5,103,427.5z"/>
		<path class="st1" d="M98.3,523.2c7.4,2.5,14.4,2,21.8-0.5c4-1.4,2.2-4.5,0-4.1c-1.9,0.3-15.5,6.8-28.7-3.4c-1.3-1-2.5-2.3-3.2-3.8
			C86.2,506.9,78.4,514.8,98.3,523.2z"/>
		<path class="st1" d="M149.8,462.6c0.1-0.5,1.1-7.8,0.1-12.8c-0.8-4.3-1.4-5.4-6.1-13.3c-2.8-4.8-5.7-1.7-4.2,0.3
			c9.8,12.4,5.9,22.6,6.3,25.6C146.4,464.4,149,464.8,149.8,462.6z"/>
		<path class="st1" d="M58.1,416.1c0.1,1.7,0.5,3.5,0.9,5.2c2.9,11.7,9.6,14.6,16.3,18.1c2.4,1.3,4.3-1.8,2.1-3.2
			c-3.9-2.5-12.3-4.5-15.1-16.7C61.4,415.9,60.9,413.5,58.1,416.1z"/>
		<path class="st1" d="M193.4,480.5c-0.4-2-3.5-2.2-3.4,0.7c0.2,11.5-7.3,18.4-8,20c-0.7,1.6,0.7,3.1,2.1,2.7
			c1.8-0.6,5.9-7.1,6.7-8.9C191.7,493.1,194.2,484.3,193.4,480.5z"/>
		<path class="st1" d="M179.7,466.9c0.4,2.4,0.1-0.1,1.5,5.2c2,7.6,0.6,12.6,0.4,17.1c-0.2,3.8,3.7,3.2,3.8,1.1
			c0.6-8.9,1.7-15.4-2.6-24C182.3,465.2,180.4,465,179.7,466.9z"/>
		<path class="st1" d="M82.9,484.1c2.6,0.8,3.8-2.6,1.3-3.6c-8-3.2-11.5-4.2-15.2-12c-1-2.2-3.8-1-3.3,1.1
			C67.8,477.2,75.9,481.9,82.9,484.1z"/>
		<path class="st1" d="M181.1,524.2c0.8-3.5-2.4-3.4-3.1-1.9c-3,6.7-7.7,9.9-13,13.8c-2.2,1.6-0.5,5.4,3.4,2.5
			C178,531.4,181.3,524.3,181.1,524.2z"/>
		<path class="st1" d="M149,547.9c9.2-1.1,5.9-5.1,3.6-4.4c-7.4,2.5-14.9-0.7-16.6-0.7c-2,0-2.5,2.7-0.7,3.6
			C136.9,547,142.9,548.6,149,547.9z"/>
		<path class="st1" d="M92.4,485.3c5,0.1,17-3.4,13.2-6.7c-2-1.8-2.6,1.7-11.9,3.1c-0.5,0.1-1,0.1-1.5,0.2
			C90.7,482.3,90.2,484.6,92.4,485.3z"/>
		<path class="st1" d="M82.3,505.2c-0.8,2.4,2.8,3.6,3.6,1.2C86.7,504.1,83.1,502.9,82.3,505.2z"/>
		<path class="st1" d="M85.6,441.3c0.8-2.3-2.7-3.2-3.5-1.1C81.3,442.4,84.8,443.5,85.6,441.3z"/>
		<path class="st1" d="M189.5,475c2.2,0.7,3.4-2.6,1.2-3.3C188.5,471,187.3,474.3,189.5,475z"/>
		<path class="st1" d="M160.4,543c0.7-2.1-2.4-3.2-3.1-1.1C156.5,543.9,159.6,545,160.4,543z"/>
	</g>
	<g>
		<path class="st1" d="M181.9,395.3c3.4-1.2,8-2.3,12.1-6.7c1.9-2.1,4.9,0.6,2.8,2.8c-6.7,6.9-13.9,7.2-15,7.9
			c-2.4,24.3-18.2,31.1-27.7,20.4c-5.7,0.5-17.1-2.3-22.6-4.2c-24-8.4-11.1-29.9,10.3-37.5c10.2-3.7,15-3.9,16.1-4.6
			c1.8-1.1,8.1-6.1,15.5-0.1C179.7,378.4,181.5,387.2,181.9,395.3z M177.9,396c1.3-8.7-5.8-26.3-16.1-20.5
			c-8.6,4.9-13.3,23.2-7.8,36.5c6.9,16.6,21.5,8,23.7-11.9c0.1-0.8-0.6,0.2-8.4-0.1c-2.2-0.1-2.4-3.4,0.3-3.5
			C174.9,396.4,174.4,396.4,177.9,396z M153.4,378.2c-2.3,1.2-23.8,5.4-30.1,19.7c-5.3,12.1,14.8,16.7,28,17.8
			C145.9,402.9,146.7,390.5,153.4,378.2z"/>
		<path class="st1" d="M143.2,373.4c-0.1,2.1-2.6,1.4-6.2,2.8c-8.4,3.3-17.3,13.6-17.4,13.7c-1.9,1.6-4.3-0.7-2.9-2.5
			C125.6,375.7,143.4,367.8,143.2,373.4z"/>
		<path class="st1" d="M182.4,424.3c-2.1,2.4-5.1,0.1-3.2-2.3c10.5-13.5,3.4-19,7.8-19.1c1,0,1.8,0.7,1.8,1.8
			C189,414.6,187.1,418.1,182.4,424.3z"/>
		<path class="st1" d="M115,412.4c-8.3-12.2,0.1-13,0-9.7c-0.1,2.9,1.2,5.1,3,7.3C119.1,411.6,117.9,413.9,115,412.4z"/>
		<path class="st1" d="M168.5,430.5c-2.4,0.1-2.8-3.4-0.1-3.6c2.5-0.2,4,0.1,5.9-1.2C176.7,424.2,181.3,429.7,168.5,430.5z"/>
		<path class="st1" d="M115.5,396.9c-1.8,1.7-4.3-0.7-2.6-2.3C114.5,392.9,117.2,395.3,115.5,396.9z"/>
		<path class="st1" d="M162.6,426.8c1.7,1.6-1,4.1-2.6,2.5C158.4,427.7,160.9,425.2,162.6,426.8z"/>
	</g>
	<g>
		<path class="st1" d="M95,367.9c-0.2,24.3,3.7,41.3,4.2,45.8c0.2,2.3-3.4,3.9-4.3-1.7c-9.7-63,4.4-35-14.1-48.8
			C50,340,39.2,289.9,56.4,291.4c5.7,0.5,18.6,13,19.9,5.5c1.7-9.5-4.9-48.5,5-61.7c3.9-5.2,9.2-1.7,12.4,4.6
			c4.4,8.6,3.3,14.2,7.9,21.5c10.4-15.9,9.5-47.5,24.8-64.3c9-9.9,20.1-2.9,15,19.8c-5.8,26-9.8,29.6-9.1,41.7
			c0.3,5.3,7.9-12.9,23.6-14.4c5.6-0.5,9.5,2.7,8.8,8.4c-1.4,11.9-28.1,27.9-31.5,45.9c-1.2,6.2,7.1-2,14.8-3.2
			c8.8-1.4,13.8,3,14.9,9.5c2.6,15-16.2,26.8-35.9,41C110.6,357.7,103.1,366.4,95,367.9z M95.2,363.9c9.3-4.1,10.1-7.6,37.7-27.1
			c7.5-5.3,20.6-14.9,24.8-23c3-5.7,1.8-13.6-4.6-14.8c-7.4-1.3-13.3,4.7-17.5,5.5c-2.8,0.5-5-0.8-5.9-3.5
			c-4.6-13.9,29.9-39.4,31.1-48.9c0.9-6.5-8.6-4.2-14-0.4c-8.7,6.1-14.3,17.4-17.8,9.6c-3.9-8.6,5.4-27.9,8.6-45.4
			c2.9-15.9-1.1-25.7-9.7-14.6c-13.3,17.3-14.7,54.7-23.8,63c-5.3,4.8-8.8-5.9-10.5-12.9c-2.5-10-6.9-17-9.1-13.9
			c-9.4,13.4-2.2,48.6-4.4,60.5c-1.1,5.7-7.2,6.4-11.4,4.2c-9.6-5.1-15.7-12-16.4,0.3c-1.6,27.3,27,56.1,36.5,60.9
			c4.7,2.4,0,2.2,7.5-32.6c3-14,5.4-15.6,2.6-33.7c-4.7-3.2-5-2.2-7.9-2.6c-2.4-0.4-2-3.9,0.4-3.7c3.8,0.3,3.7,0.5,6.1,1.2
			c-2.2-7.8-7.1-13.6-9.1-16.4c-1.4-2,1.2-4.1,2.8-2.1c8,9.8,10.9,16.7,12.5,29.2c4.1-13.7,10.2-31.7,12-35.9c0.9-2.2,4.1-1,3.2,1.4
			c0,0.1-15.4,44.6-21,74.7c7.2-10.9,17.9-20.9,27.7-26.8c1.7-1,4.1,1.3,1.5,3.2c-7.5,5.3-12.2,9.5-16.1,13.6
			c2.2-0.5,0.2-0.4,11.2-1.3c2.1-0.2,3.7,4-1.8,4c-17.7,0-17.5,7.3-23.6,18.1C95.9,355.3,96.1,355,95.2,363.9z"/>
		<path class="st1" d="M164.1,268.9c-1.9,1.6-4.5-0.6-2.6-2.8c4-4.5,9.9-12,7.8-19.3c-0.2-0.5-0.9-2.6-1.6-3c-2.3-1.5,0-4.3,1.8-3
			C177.2,246.2,172.3,262.2,164.1,268.9z"/>
		<path class="st1" d="M80.1,232.6c-4.5,5.9-6.8,6.8-7.8,24.2c-0.2,2.7-3.5,2.5-3.8,0.4c-1.1-7.6,2.4-21.9,9-26.8
			C78.8,229.5,80.8,230.7,80.1,232.6z"/>
		<path class="st1" d="M123.5,189.3c5.2-4.1,6.4,0.3,4.1,1.5c-5.1,2.7-11.2,14.5-12.8,18.5c-1.1,2.6-4.1,1.3-3.8-0.9
			C111.2,206.8,117.9,193.8,123.5,189.3z"/>
		<path class="st1" d="M102.2,372.5c-2.3-0.8-1.9-3,0-3.5c14.5-3.7,18.4-13.8,21-10c0.7,1,0.2,2.1-0.7,2.9
			C117,366.6,109.5,371.7,102.2,372.5z"/>
		<path class="st1" d="M132.6,354c-2.7,2.3-4.6-0.8-2.8-2.3c7.9-6.7,8.2-7.6,9.8-6.7C142.5,346.7,138.4,349.2,132.6,354z"/>
		<path class="st1" d="M108.4,216.8c1.1-1.8,3.7-0.7,3.2,1.3c-2.2,8.9-1.1,9.2-2.7,9.7c-4,1.1-1.8-6.2-1-10.2
			C108.1,217.7,107.9,217.7,108.4,216.8z"/>
		<path class="st1" d="M158.9,274.8c-1.9,1.6-3.9,3.2-5.9,4.8c-1.4,1.1-3.3-0.1-3.1-1.5c0.2-1.1,0.3-1.1,6.4-5.8
			C158.5,270.7,160.4,273.4,158.9,274.8z"/>
		<path class="st1" d="M70,267.4c-2.2-0.8-1.1-4.4,1.2-3.6C73.4,264.7,72.4,268.3,70,267.4z"/>
		<path class="st1" d="M144.4,339.1c0.8-2.1,4-0.9,3.2,1.2C146.8,342.3,143.7,341.2,144.4,339.1z"/>
		<path class="st1" d="M68.3,327.9c-3.1,8.3-14.5-22.8-7.8-22.1c2.7,0.3,0,1.7,3.1,10C67.9,327.1,68.6,326.8,68.3,327.9z"/>
		<path class="st1" d="M73.9,343c-2.4-2.1-8.7-9.8-4.6-10.5c1.9-0.3,1.1,1,6.8,7.6C77.3,341.6,76.2,343.9,73.9,343z"/>
		<path class="st1" d="M121.3,260.9c-0.9,2.4-4.4,1-3.5-1.4C118.7,257.2,122.2,258.5,121.3,260.9z"/>
	</g>
	<g>
		<path class="st1" d="M186.1,123.7c-5.7-1.6-15,3.5-15.4,3.6c-2.5,0.8-3.9-2.4-1.5-3.6c2.7-1.3,5.4-2.5,8.3-3.1
			c3.7-0.8,6.1-1.3,9.9-0.2c1.4,0.4,1.6,0.8,1.6,2.2C188.5,123.7,187.6,124.2,186.1,123.7z"/>
		<path class="st1" d="M80.7,118.1c1.9-4,1.9-8.9-0.6-13.3c-3.7-6.5-6.9-9.2-8.9-11.7c-1.2-1.5-0.7-3.1,1.1-3.6
			c4-1.1,7-10.5,1.5-18.1c-1.1-1.6-2.6-3-1.2-4.4c0.7-0.7,1.7-0.8,2.7-0.2c1,0.6,2,1.2,3,1.7c9.3,5,17.2-2,20.2-3
			c1.5-0.5,3,0.6,2.8,2.2c-0.2,2.3-3.1,12.4,4.8,23c0.8,1.1,1.6,2.1,2.5,3.2c4.6-4.2,7.6-9.1,8.4-17.4c0.8-8.7-0.8-13.4-1-15.4
			c-0.2-1.7,1.2-2.7,2.8-2.3c0.5,0.2,2.5,1.1,4.1,1c6.4-0.6,10.8-4.8,14.4-10.1c0.1-0.2,0.3-0.4,0.3-0.6c0.2-1.2,1.3-1.8,2.3-1.5
			c1.2,0.4,2,1.6,1.5,2.7c-0.5,1.1-0.3,2.2,0,3.2c2,8,6.8,10.4,13.5,14.5c1.3,0.8,1.1,2.5-0.1,3.1c-3.4,1.8-5.8,4.5-7.8,7.6
			c-7.7,12.1-7.2,14.7-6.5,24.4c0,0.3,0.1,0.6,0.1,1c8.9-2.8,16.6-8.6,21.5-17.3c0.2-0.3,0.3-0.7,0.4-1c0.5-1.2,1.8-1.6,2.9-0.9
			c0.8,0.5,1.5,1.3,2.3,1.8c7.3,4.4,14.4,0.5,17,0.8c1.4,0.2,2.2,1.7,1.5,2.9c-0.7,1.3-5.9,6.2-2.1,15.1c1.1,2.6,3.1,5.2,4.2,8
			c0.4,1.1-0.3,2.2-1.5,2.2c-6.6,0.1-12.6,2.4-18.4,5.2c-2,0.9-3.8,2.2-5.7,3.4c-3.1,2-5.5,4.8-7.6,7.8c-0.1,0.1-0.1,0.2-0.2,0.3
			c5.2,6,15.6,6.1,20.7,6.6c2.7,0.2,3,3.5,1.1,3.8c-1.2,0.2-2.2,0.8-3.2,1.4c-3.5,2.2-6.1,5.2-7.4,9.1c-1.2,3.6-0.1,5.6,0.8,7.5
			c0.8,1.8-0.5,3.5-2.6,3.1c-2.6-0.5-3.6-1.1-6.4-0.2c-5,1.6-9,4.4-11.9,8.8c-1.3,2-1.5,4.2-1.2,6.5c0.2,1.8-0.6,2.6-2.4,2.5
			c-1.3-0.1-2-0.6-2.5-1.7c-3.3-6.5-12.3-12-20.5-13.9c-3.4-0.8-6.5-0.1-9.1,2.2c-12.6,11.2-10.6,10.9-14.1,44.7
			c-0.2,1.8-1.1,2.4-2.2,2.3c-1-0.1-1.8-1-1.7-2.7c3.6-35.9,2.4-23.2,3.7-32.3c0.2-1.2-0.3-4.9-0.4-6.1c-1.1-7.5-9.6-19.2-23.4-18.3
			c-1.1,0.1-2.2,0.5-3.3,0.9c-4.6,1.3-6.2,4.6-8.3,3.4c-2.5-1.4,0.3-4.6-1.8-8.9c-2.1-4.4-4.9-8.2-9.3-10.5
			c-1.2-0.7-3.6-1.3-3.7-1.3c-1.8-0.6-2-3.1,0.2-3.8c1.3-0.4,2.7-0.8,4-1.4c4.6-2.1,7.2-5.7,7.8-10.7c0.4-3.3,0.4-6.1-0.8-8.8
			c-0.7-1.4-1.3-2.9,0-3.8c2.4-1.8,4.1,2.5,8.1,4.8c2.4,1.4,5,2.5,7.7,3.1C73.9,119,74.3,118.9,80.7,118.1z M63.3,154.7
			c3.5-1.8,6.3-3.6,11-2.9c0.9,0.1,1.8,0.4,2.8,0.5c2.3,0.4,4.7,0.8,6.9,1.8c6.4,3,10.8,8,13.8,14.4c0.1,0.2,0.2,0.4,0.3,0.6
			c1.7-5.5,3.4-10.9,5.1-16.4c-2.6-3.8-10.9-8.8-22.4-9.3c-1.6-0.1-3.1,0-4.7,0c-2.7,0-2.8-3.9,0.1-3.9c6.6-0.1,6.5,0.1,11.7,0.7
			c-1.9-7.4-5-8.8-5.8-10.6c-0.9-1.9,1.6-3.9,3.3-1.9c1.6,1.9,2.9,3.3,4.2,6.3c1,2.3,1.8,4.6,2.2,7.1c4.7,1.6,9.1,3.9,12.8,7.5
			c0.5-1,2-5.6,2.3-6.3c0.1-0.4,0.2-0.9,0.2-1.4c0-7.8-1.6-15.3-4.3-22.6c-2.7-7.1-7.8-12.1-8.5-13.9c-0.8-1.9,1.4-3.5,3-2.1
			c0.3,0.3,0.6,0.6,0.8,0.9c5.5,7.5,9.4,11.7,12.2,28.8c0.4,0-0.1,0.6,2.7-7.8c3.7-11.3,3.1-9.8,7.5-20.1c0.3-0.8,0.8-1.6,1.2-2.3
			c1.3-1.9,4.1-0.4,2.9,1.8c-0.2,0.3-0.4,0.7-0.5,1c-8.3,21.7-4.5,12-9.2,26.3c-5.6,17-6.2,15.8-0.3,9.2
			c13.3-14.8,20-18.6,29.3-24.2c2.2-1.3,4.7,1.6,1.6,3.6c-4.5,2.8-10.1,5.5-17.8,12.9c-1.4,1.3-0.4-0.3,6.9,0.9c1,0.2,2,0.3,2.9,0.5
			c2.1,0.5,1.8,4.1-1.2,3.6c-3.9-0.6-7.4-1.7-13.1,0.4c-0.6,0.2-1.2,0.5-2,0.8c-11.6,12.7-10.5,11.4-10.3,11.6c6.8-1.8,9-3,24-1.8
			c1.6,0.1,3.1,0.2,4.7,0.4c2.2,0.3,2.3,3.6-0.2,3.8c-0.5,0-11.1-0.8-12.8-0.8c4.3,5.3,3.5,4.4,4.2,5c2,1.7-0.9,4.8-2.9,2.6
			c-1.4-1.5-2.8-5.4-8-7c-0.5-0.1-1-0.2-1.5-0.2c-3.9,0.5-8.8,2-12.2,3.9c-1.4,4.4-2.7,8.9-4.1,13.3c0.3,0.1,0.1,0.2,0.5-0.2
			c3.1-3.1,5.6-6.2,11.4-7.7c1-0.2,2.1-0.4,3.1-0.3c14.4,2.2,20.2,9.8,23.6,13.2c0.4-1.1,0.4-2.3,1.7-4.3c2.9-4.3,6.8-7.5,11.5-9.5
			c5.9-2.5,7.1-1.3,7.8-1.5c-1.3-7.3,2.3-12.4,7.6-16.9c-2.1-0.3-12.1-1-17.8-8.3c-1.3-1.6-1.3-2.1-0.2-3.7c1.7-2.5,3.5-5,5.9-7
			c3.7-3.1,7.7-5.5,12.2-7.3c6.4-2.6,11.3-3.3,13.8-3.8c-4.2-6.3-6-12.8-3-20.2c-5.5,0.9-10.6,0.2-15.1-2.8
			c-0.2,0.3-0.4,0.6-0.5,0.8c-6.5,11.1-19.1,17.5-25.7,17.5c-1,0-1.8-0.6-1.9-1.5c-0.2-0.8-0.3-1.7-0.4-2.5
			c-0.5-6.4-1-11.2,1.8-17.6c2.2-5.2,6.6-12.3,11.5-16.1c0.1-0.1,0.2-0.2,0.3-0.3c-0.7-0.4-1.3-0.9-1.9-1.2
			c-8.5-5.1-9.6-12.1-10.2-13.2c-4.7,5.2-10,8.9-17.4,8.3c0.1,1.3,1,5.1,0.5,12.8c-0.8,10.3-6.2,17.9-11.3,20.9
			c-1.9,1.1-2.4,1.1-3.8-0.6c-4.1-5.2-8.9-10.8-9.2-22.3c0-1.1,0-2.3,0-3.5c-5.4,3.1-11.1,4-17.3,2.4c1.4,3.4,1.7,6.7,1.2,10.1
			c-0.5,3.5-2.1,6.5-4.8,8.9c6,6.7,11.9,14.4,9.6,23.1c-0.6,2.3-0.8,4.8-3.4,5.9c-1.9,0.9-0.2,0.5-5.2,1.3
			c-5.9,0.9-9.8-1.5-15.1-4.1c0.4,8.2-2,15-9.9,19.1c0.2,0.2,0.3,0.3,0.5,0.3c4.9,2.9,10,9.8,10.8,15.1
			C63.2,153.6,63.2,154.1,63.3,154.7z"/>
		<path class="st1" d="M123.2,173.3c2.6,1,4.4,3.2,6.2,4.8c2.2,1.9-0.5,4.6-2.4,3.1c-1.9-1.5-2.4-2.9-5.3-4.3
			c-1.4-0.7-2.8-1-4.3-0.9c-3.4,0.4-5.3,0.9-8.3,2.3c-0.8,0.3-1.5,0.9-2.2,1.4c-2.2,1.6-4.1-1-2.3-2.6c0.6-0.5,1.2-1.1,1.8-1.4
			c3.3-1.7,6.7-3.1,10.4-3.4C118.9,172.1,120.5,172.3,123.2,173.3z"/>
		<path class="st1" d="M134.8,45.3c-0.4,0.6-1.1,1.7-1.9,2.6c-2.1,2.2-4.5,4.1-7.3,5.3c-1.8,0.8-3.6,1.1-5.5,1.3
			c-2.9,0.3-3.2-3.8-0.6-3.9c5-0.1,8.7-2.7,11.8-6.4c0.2-0.3,0.4-0.6,0.6-0.9c0.5-1,1.5-1.4,2.4-1C135.1,42.8,135.5,43.7,134.8,45.3
			z"/>
		<path class="st1" d="M70.1,99.3c4.8,2.3,6.2,4.1,8.1,7.9c1.2,2.4-1.9,4.2-3.3,1.7c-1.4-2.4-1.5-4.3-6.4-6.5
			c-1.3-0.6-1.8-1.3-1.5-2.4C67.6,98.8,68.8,98.8,70.1,99.3z"/>
		<path class="st1" d="M132.6,38.4c-1.9,2.3-2.6,3.7-6.3,5.3c-2.5,1.1-4-2.2-1.4-3.4c3.1-1.4,3.5-2.1,4.6-3.7
			C130.7,34.9,133.2,35.9,132.6,38.4z"/>
		<path class="st1" d="M162.4,129.3c0.3-0.9,1.4-1.4,2.3-1c0.9,0.3,1.3,1.3,1,2.2C164.9,132.5,161.6,131.4,162.4,129.3z"/>
		<path class="st1" d="M133.3,182.1c0.9,0.3,1.3,1.3,1,2.2c-0.3,0.9-1.3,1.3-2.2,1c-0.9-0.3-1.3-1.3-1-2.2
			C131.4,182.3,132.4,181.8,133.3,182.1z"/>
		<path class="st1" d="M126.2,88c0.7-2.1,2.2-6.3,3.6-8.1c1.5-1.8,3.9,0.1,2.9,1.8c-2.2,3.9-3.2,8.3-4.7,12.5
			c-0.8,2.4-4.6,1.6-3.5-1.7C125.1,91.1,125.7,89.6,126.2,88z"/>
		<path class="st1" d="M144.3,137.9c-0.4,1-1.4,1.5-2.4,1.1c-1-0.4-1.5-1.4-1.1-2.4c0.4-1,1.4-1.5,2.4-1.2
			C144.1,135.8,144.6,136.9,144.3,137.9z"/>
		<path class="st1" d="M69.9,141.5c-0.3,0.9-1.3,1.4-2.2,1c-0.9-0.3-1.3-1.4-1-2.3C67.5,138.2,70.7,139.3,69.9,141.5z"/>
		<path class="st1" d="M134,72.8c0.9,0.3,1.3,1.3,1,2.1c-0.3,0.9-1.3,1.3-2.2,1c-0.9-0.3-1.3-1.3-1-2.2
			C132.2,72.9,133.1,72.5,134,72.8z"/>
	</g>
	<g>
		<path class="st1" d="M498.8,576.3c-15.5,4.8-20.3,0.7-40.2-0.7c-2.5-0.2-3.2-2.2-2.2-3.6c0.6-0.8,3.2-3,5.1-4.5
			c13.6-11,28.5-10.9,41.7,1.2c5-7.8,13.9-27,16.7-33.1c5.4-11.6,6-16.5,6.9-18.5c1-2.2,4-1.2,3.3,1.3c-3.3,11.3-2.4,10.8-16.7,40
			c13.6,12.1,29.6,27.8,25.1,45.5c-1.6,6.3-6.1,17.3-9.9,11.9c-0.2-0.3-15.9-29.5-15.9-29.6c-10.6-21.3,4.4-28.2-19.2,4.8
			c36.4,26.6,16.8,66.3,11.3,52.9c-5.7-13.7-10.5-18.8-14.2-28.9c-8.4-22.9,8.2-22.9-23.8,9.1c5.4,3.8,8.8,11.8,10.1,18.3
			c3.1,15.2-11.7,28.9-14,22.4c-0.5-1.4,0.3,1.3-2.9-22.5c-1.4-10.1-0.1-10.4-0.7-10.8c-7,7.2-15.3,12.9-23.5,18.6
			c-4.9,34.1-53.3,23.8-43.6,17.4c1.8-1.2,7.1-2.8,14-7.6c7.9-5.5,16.9-17.6,27.2-12.8c2.9-2,5.8-4.1,8.8-6.2c-9.1-1.4-20-4-20.1-4
			c-1.5-0.5-2-2.3-0.9-3.5c0.9-1.1,7.2-5,11.5-6.2c7.5-2.1,13,1.2,17.3,7.8c8.1-7.5,16.2-15.1,23.1-23.8c-0.6-0.1-3.1,0.6-5.4,0.9
			c-7.2,0.9-30.7-3.5-31.7-3.9c-1.6-0.6-2.1-2.2-1.1-3.6c1-1.4,3.9-3,5.4-3.9c19.6-10.8,36.8-1.7,39.9,1.6
			C486.9,594,493.1,585.5,498.8,576.3z M533.5,607.1c7.3-16.9-7.4-32-21-44.5c-2.2,11.3,2.3,21,18.7,49.5
			C531.5,612.2,531.1,612.7,533.5,607.1z M492.1,595c-2.7,17.7,8.6,28.9,15.8,46.1c0.2,0.5-0.1,0.5,0.4,0.5
			C519.4,615.2,493.5,594.3,492.1,595z M428.2,649.8c-8.8,1.3-7.1,6.6-30.3,19.5c0.9,0.2,5.1,1.2,11.5,0.9
			c14.7-0.7,22.3-13.3,22.4-19.8C430.7,649.6,429.4,649.6,428.2,649.8z M462.5,572c12.4,1.2,28,5.6,37.8-0.6
			C491.4,562.2,475.2,559.3,462.5,572z M464.4,627.3c-2.3,5-0.7,10,2.2,34.6C481.1,648.2,469.2,630.3,464.4,627.3z M477,604.6
			c-13.1-8.4-28.9-4.8-36,0.5C452.2,606.7,471.8,611.9,477,604.6z M427.5,634c10.2,2.4,14.1,3.8,18.9,2.8
			C444.8,631.7,436.5,627.4,427.5,634z"/>
		<path class="st1" d="M523.2,638.7c2.5-7.4,2-14.4-0.5-21.8c-1.4-4-4.5-2.2-4.1,0c0.3,1.9,6.8,15.5-3.4,28.7
			c-1,1.3-2.3,2.5-3.8,3.2C506.9,650.9,514.8,658.6,523.2,638.7z"/>
		<path class="st1" d="M462.6,587.2c-0.5-0.1-7.8-1.1-12.8-0.1c-4.3,0.8-5.4,1.4-13.3,6.1c-4.8,2.8-1.7,5.7,0.3,4.2
			c12.4-9.8,22.6-5.9,25.6-6.3C464.4,590.7,464.8,588,462.6,587.2z"/>
		<path class="st1" d="M416.1,678.9c1.7-0.1,3.5-0.5,5.2-0.9c11.7-2.9,14.6-9.6,18.1-16.3c1.3-2.4-1.8-4.3-3.2-2.1
			c-2.5,3.9-4.5,12.3-16.7,15.1C415.9,675.6,413.5,676.1,416.1,678.9z"/>
		<path class="st1" d="M480.5,543.6c-2,0.4-2.2,3.5,0.7,3.4c11.5-0.2,18.4,7.3,20,8c1.6,0.7,3.1-0.7,2.7-2.1
			c-0.6-1.8-7.1-5.9-8.9-6.7C493.1,545.4,484.3,542.8,480.5,543.6z"/>
		<path class="st1" d="M466.9,557.3c2.4-0.4-0.1-0.1,5.2-1.5c7.6-2,12.6-0.6,17.1-0.4c3.8,0.2,3.2-3.7,1.1-3.8
			c-8.9-0.6-15.4-1.7-24,2.6C465.2,554.7,465,556.6,466.9,557.3z"/>
		<path class="st1" d="M484.1,654.1c0.8-2.6-2.6-3.8-3.6-1.3c-3.2,8-4.2,11.5-12,15.2c-2.2,1-1,3.8,1.1,3.3
			C477.2,669.2,481.9,661.1,484.1,654.1z"/>
		<path class="st1" d="M524.2,555.9c-3.5-0.8-3.4,2.4-1.9,3.1c6.7,3,9.9,7.7,13.8,13c1.6,2.2,5.4,0.5,2.5-3.4
			C531.4,559,524.3,555.7,524.2,555.9z"/>
		<path class="st1" d="M547.9,588c-1.1-9.2-5.1-5.9-4.4-3.6c2.5,7.4-0.7,14.9-0.7,16.6c0,2,2.7,2.5,3.6,0.7
			C547,600.1,548.6,594.1,547.9,588z"/>
		<path class="st1" d="M485.3,644.7c0.1-5-3.4-17-6.7-13.2c-1.8,2,1.7,2.6,3.1,11.9c0.1,0.5,0.1,1,0.2,1.5
			C482.3,646.3,484.6,646.8,485.3,644.7z"/>
		<path class="st1" d="M505.2,654.7c2.4,0.8,3.6-2.8,1.2-3.6C504.1,650.3,502.9,653.9,505.2,654.7z"/>
		<path class="st1" d="M441.3,651.4c-2.3-0.8-3.2,2.7-1.1,3.5C442.4,655.7,443.5,652.2,441.3,651.4z"/>
		<path class="st1" d="M475,547.5c0.7-2.2-2.6-3.4-3.3-1.2C471,548.5,474.3,549.8,475,547.5z"/>
		<path class="st1" d="M543,576.6c-2.1-0.7-3.2,2.4-1.1,3.1C543.9,580.5,545,577.4,543,576.6z"/>
	</g>
	<g>
		<path class="st1" d="M395.3,555.1c-1.2-3.4-2.3-8-6.7-12.1c-2.1-1.9,0.6-4.9,2.8-2.8c6.9,6.7,7.2,13.9,7.9,15
			c24.3,2.4,31.1,18.2,20.4,27.7c0.5,5.7-2.3,17.1-4.2,22.6c-8.4,24-29.9,11.1-37.5-10.3c-3.7-10.2-3.9-15-4.6-16.1
			c-1.1-1.8-6.1-8.1-0.1-15.5C378.4,557.3,387.2,555.5,395.3,555.1z M396,559.1c-8.7-1.3-26.3,5.8-20.5,16.1
			c4.9,8.6,23.2,13.3,36.5,7.8c16.6-6.9,8-21.5-11.9-23.7c-0.8-0.1,0.2,0.6-0.1,8.4c-0.1,2.2-3.4,2.4-3.5-0.3
			C396.4,562.1,396.4,562.6,396,559.1z M378.2,583.6c1.2,2.3,5.4,23.8,19.7,30.1c12.1,5.3,16.7-14.8,17.8-28
			C402.9,591.1,390.5,590.3,378.2,583.6z"/>
		<path class="st1" d="M373.4,593.8c2.1,0.1,1.4,2.6,2.8,6.2c3.3,8.4,13.6,17.3,13.7,17.4c1.6,1.9-0.7,4.3-2.5,2.9
			C375.7,611.4,367.8,593.6,373.4,593.8z"/>
		<path class="st1" d="M424.3,554.6c2.4,2.1,0.1,5.1-2.3,3.2c-13.5-10.5-19-3.4-19.1-7.8c0-1,0.7-1.8,1.8-1.8
			C414.6,548,418.1,549.9,424.3,554.6z"/>
		<path class="st1" d="M412.4,622c-12.2,8.3-13-0.1-9.7,0c2.9,0.1,5.1-1.2,7.3-3C411.6,617.9,413.9,619.1,412.4,622z"/>
		<path class="st1" d="M430.5,568.5c0.1,2.4-3.4,2.8-3.6,0.1c-0.2-2.5,0.1-4-1.2-5.9C424.2,560.3,429.7,555.7,430.5,568.5z"/>
		<path class="st1" d="M396.9,621.5c1.7,1.8-0.7,4.3-2.3,2.6C392.9,622.5,395.3,619.8,396.9,621.5z"/>
		<path class="st1" d="M426.8,574.4c1.6-1.7,4.1,1,2.5,2.6C427.7,578.6,425.2,576.1,426.8,574.4z"/>
	</g>
	<g>
		<path class="st1" d="M367.9,642c24.3,0.2,41.3-3.7,45.8-4.2c2.3-0.2,3.9,3.4-1.7,4.3c-63,9.7-35-4.4-48.8,14.1
			c-23.2,30.9-73.4,41.7-71.8,24.5c0.5-5.7,13-18.6,5.5-19.9c-9.5-1.7-48.5,4.9-61.7-5c-5.2-3.9-1.7-9.2,4.6-12.4
			c8.6-4.4,14.2-3.3,21.5-7.9c-15.9-10.4-47.5-9.5-64.3-24.8c-9.9-9-2.9-20.1,19.8-15c26,5.8,29.6,9.8,41.7,9.1
			c5.3-0.3-12.9-7.9-14.4-23.6c-0.5-5.6,2.7-9.5,8.4-8.8c11.9,1.4,27.9,28.1,45.9,31.5c6.2,1.2-2-7.1-3.2-14.8
			c-1.4-8.8,3-13.8,9.5-14.9c15-2.6,26.8,16.2,41,35.9C357.7,626.4,366.4,633.9,367.9,642z M363.9,641.8
			c-4.1-9.3-7.6-10.1-27.1-37.7c-5.3-7.5-14.9-20.6-23-24.8c-5.7-3-13.6-1.8-14.8,4.6c-1.3,7.4,4.7,13.3,5.5,17.5
			c0.5,2.8-0.8,5-3.5,5.9c-13.9,4.6-39.4-29.9-48.9-31.1c-6.5-0.9-4.2,8.6-0.4,14c6.1,8.7,17.4,14.3,9.6,17.8
			c-8.6,3.9-27.9-5.4-45.4-8.6c-15.9-2.9-25.7,1.1-14.6,9.7c17.3,13.3,54.7,14.7,63,23.8c4.8,5.3-5.9,8.8-12.9,10.5
			c-10,2.5-17,6.9-13.9,9.1c13.4,9.4,48.6,2.2,60.5,4.4c5.7,1.1,6.4,7.2,4.2,11.4c-5.1,9.6-12,15.7,0.3,16.4
			c27.3,1.6,56.1-27,60.9-36.5c2.4-4.7,2.2,0-32.6-7.5c-14-3-15.6-5.4-33.7-2.6c-3.2,4.7-2.2,5-2.6,7.9c-0.4,2.4-3.9,2-3.7-0.4
			c0.3-3.8,0.5-3.7,1.2-6.1c-7.8,2.2-13.6,7.1-16.4,9.1c-2,1.4-4.1-1.2-2.1-2.8c9.8-8,16.7-10.9,29.2-12.5
			c-13.7-4.1-31.7-10.2-35.9-12c-2.2-0.9-1-4.1,1.4-3.2c0.1,0,44.6,15.4,74.7,21c-10.9-7.2-20.9-17.9-26.8-27.7
			c-1-1.7,1.3-4.1,3.2-1.5c5.3,7.5,9.5,12.2,13.6,16.1c-0.5-2.2-0.4-0.2-1.3-11.2c-0.2-2.1,4-3.7,4,1.8c0,17.7,7.3,17.5,18.1,23.6
			C355.3,641.1,355,640.9,363.9,641.8z"/>
		<path class="st1" d="M268.9,572.9c1.6,1.9-0.6,4.5-2.8,2.6c-4.5-4-12-9.9-19.3-7.8c-0.5,0.2-2.6,0.9-3,1.6c-1.5,2.3-4.3,0-3-1.8
			C246.2,559.8,262.2,564.7,268.9,572.9z"/>
		<path class="st1" d="M232.6,656.9c5.9,4.5,6.8,6.8,24.2,7.8c2.7,0.2,2.5,3.5,0.4,3.8c-7.6,1.1-21.9-2.4-26.8-9
			C229.5,658.2,230.7,656.2,232.6,656.9z"/>
		<path class="st1" d="M189.3,613.5c-4.1-5.2,0.3-6.4,1.5-4.1c2.7,5.1,14.5,11.2,18.5,12.8c2.6,1.1,1.3,4.1-0.9,3.8
			C206.8,625.8,193.8,619.1,189.3,613.5z"/>
		<path class="st1" d="M372.5,634.8c-0.8,2.3-3,1.9-3.5,0c-3.7-14.5-13.8-18.4-10-21c1-0.7,2.1-0.2,2.9,0.7
			C366.6,620,371.7,627.5,372.5,634.8z"/>
		<path class="st1" d="M354,604.4c2.3,2.7-0.8,4.6-2.3,2.8c-6.7-7.9-7.6-8.2-6.7-9.8C346.7,594.5,349.2,598.6,354,604.4z"/>
		<path class="st1" d="M216.8,628.6c-1.8-1.1-0.7-3.7,1.3-3.2c8.9,2.2,9.2,1.1,9.7,2.7c1.1,4-6.2,1.8-10.2,1
			C217.7,628.9,217.7,629.1,216.8,628.6z"/>
		<path class="st1" d="M274.8,578.1c1.6,1.9,3.2,3.9,4.8,5.9c1.1,1.4-0.1,3.3-1.5,3.1c-1.1-0.2-1.1-0.3-5.8-6.4
			C270.7,578.5,273.4,576.6,274.8,578.1z"/>
		<path class="st1" d="M267.4,667c-0.8,2.2-4.4,1.1-3.6-1.2C264.7,663.6,268.3,664.6,267.4,667z"/>
		<path class="st1" d="M339.1,592.6c-2.1-0.8-0.9-4,1.2-3.2C342.3,590.2,341.2,593.4,339.1,592.6z"/>
		<path class="st1" d="M327.9,668.8c8.3,3.1-22.8,14.5-22.1,7.8c0.3-2.7,1.7,0,10-3.1C327.1,669.1,326.8,668.4,327.9,668.8z"/>
		<path class="st1" d="M343,663.2c-2.1,2.4-9.8,8.7-10.5,4.6c-0.3-1.9,1-1.1,7.6-6.8C341.6,659.7,343.9,660.8,343,663.2z"/>
		<path class="st1" d="M260.9,615.7c2.4,0.9,1,4.4-1.4,3.5C257.2,618.3,258.5,614.8,260.9,615.7z"/>
	</g>
	<g>
		<path class="st1" d="M123.7,550.9c-1.6,5.7,3.5,15,3.6,15.4c0.8,2.5-2.4,3.9-3.6,1.5c-1.3-2.7-2.5-5.4-3.1-8.3
			c-0.8-3.7-1.3-6.1-0.2-9.9c0.4-1.4,0.8-1.6,2.2-1.6C123.7,548.5,124.2,549.4,123.7,550.9z"/>
		<path class="st1" d="M118.1,656.3c-4-1.9-8.9-1.9-13.3,0.6c-6.5,3.7-9.2,6.9-11.7,8.9c-1.5,1.2-3.1,0.7-3.6-1.1
			c-1.1-4-10.5-7-18.1-1.5c-1.6,1.1-3,2.6-4.4,1.2c-0.7-0.7-0.8-1.7-0.2-2.7c0.6-1,1.2-2,1.7-3c5-9.3-2-17.2-3-20.2
			c-0.5-1.5,0.6-3,2.2-2.8c2.3,0.2,12.4,3.1,23-4.8c1.1-0.8,2.1-1.6,3.2-2.5c-4.2-4.6-9.1-7.6-17.4-8.4c-8.7-0.8-13.4,0.8-15.4,1
			c-1.7,0.2-2.7-1.2-2.3-2.8c0.2-0.5,1.1-2.5,1-4.1c-0.6-6.4-4.8-10.8-10.1-14.4c-0.2-0.1-0.4-0.3-0.6-0.3c-1.2-0.2-1.8-1.3-1.5-2.3
			c0.4-1.2,1.6-2,2.7-1.5c1.1,0.5,2.2,0.3,3.2,0c8-2,10.4-6.8,14.5-13.5c0.8-1.3,2.5-1.1,3.1,0.1c1.8,3.4,4.5,5.8,7.6,7.8
			c12.1,7.7,14.7,7.2,24.4,6.5c0.3,0,0.6-0.1,1-0.1c-2.8-8.9-8.6-16.6-17.3-21.5c-0.3-0.2-0.7-0.3-1-0.4c-1.2-0.5-1.6-1.8-0.9-2.9
			c0.5-0.8,1.3-1.5,1.8-2.3c4.4-7.3,0.5-14.4,0.8-17c0.2-1.4,1.7-2.2,2.9-1.5c1.3,0.7,6.2,5.9,15.1,2.1c2.6-1.1,5.2-3.1,8-4.2
			c1.1-0.4,2.2,0.3,2.2,1.5c0.1,6.6,2.4,12.6,5.2,18.4c0.9,2,2.2,3.8,3.4,5.7c2,3.1,4.8,5.5,7.8,7.6c0.1,0.1,0.2,0.1,0.3,0.2
			c6-5.2,6.1-15.6,6.6-20.7c0.2-2.7,3.5-3,3.8-1.1c0.2,1.2,0.8,2.2,1.4,3.2c2.2,3.5,5.2,6.1,9.1,7.4c3.6,1.2,5.6,0.1,7.5-0.8
			c1.8-0.8,3.5,0.5,3.1,2.6c-0.5,2.6-1.1,3.6-0.2,6.4c1.6,5,4.4,9,8.8,11.9c2,1.3,4.2,1.5,6.5,1.2c1.8-0.2,2.6,0.6,2.5,2.4
			c-0.1,1.3-0.6,2-1.7,2.5c-6.5,3.3-12,12.3-13.9,20.5c-0.8,3.4-0.1,6.5,2.2,9.1c11.2,12.6,10.9,10.6,44.7,14.1
			c1.8,0.2,2.4,1.1,2.3,2.2c-0.1,1-1,1.8-2.7,1.7c-35.9-3.6-23.2-2.4-32.3-3.7c-1.2-0.2-4.9,0.3-6.1,0.4
			c-7.5,1.1-19.2,9.6-18.3,23.4c0.1,1.1,0.5,2.2,0.9,3.3c1.3,4.6,4.6,6.2,3.4,8.3c-1.4,2.5-4.6-0.3-8.9,1.8
			c-4.4,2.1-8.2,4.9-10.5,9.3c-0.7,1.2-1.3,3.6-1.3,3.7c-0.6,1.8-3.1,2-3.8-0.2c-0.4-1.3-0.8-2.7-1.4-4c-2.1-4.6-5.7-7.2-10.7-7.8
			c-3.3-0.4-6.1-0.4-8.8,0.8c-1.4,0.7-2.9,1.3-3.8,0c-1.8-2.4,2.5-4.1,4.8-8.1c1.4-2.4,2.5-5,3.1-7.7
			C119,663.1,118.9,662.7,118.1,656.3z M154.7,673.7c-1.8-3.5-3.6-6.3-2.9-11c0.1-0.9,0.4-1.8,0.5-2.8c0.4-2.3,0.8-4.7,1.8-6.9
			c3-6.4,8-10.8,14.4-13.8c0.2-0.1,0.4-0.2,0.6-0.3c-5.5-1.7-10.9-3.4-16.4-5.1c-3.8,2.6-8.8,10.9-9.3,22.4c-0.1,1.6,0,3.1,0,4.7
			c0,2.7-3.9,2.8-3.9-0.1c-0.1-6.6,0.1-6.5,0.7-11.7c-7.4,1.9-8.8,5-10.6,5.8c-1.9,0.9-3.9-1.6-1.9-3.3c1.9-1.6,3.3-2.9,6.3-4.2
			c2.3-1,4.6-1.8,7.1-2.2c1.6-4.7,3.9-9.1,7.5-12.8c-1-0.5-5.6-2-6.3-2.3c-0.4-0.1-0.9-0.2-1.4-0.2c-7.8,0-15.3,1.6-22.6,4.3
			c-7.1,2.7-12.1,7.8-13.9,8.5c-1.9,0.8-3.5-1.4-2.1-3c0.3-0.3,0.6-0.6,0.9-0.8c7.5-5.5,11.7-9.4,28.8-12.2c0-0.4,0.6,0.1-7.8-2.7
			c-11.3-3.7-9.8-3.1-20.1-7.5c-0.8-0.3-1.6-0.8-2.3-1.2c-1.9-1.3-0.4-4.1,1.8-2.9c0.3,0.2,0.7,0.4,1,0.5c21.7,8.3,12,4.5,26.3,9.2
			c17,5.6,15.8,6.2,9.2,0.3c-14.8-13.3-18.6-20-24.2-29.3c-1.3-2.2,1.6-4.7,3.6-1.6c2.8,4.5,5.5,10.1,12.9,17.8
			c1.3,1.4-0.3,0.4,0.9-6.9c0.2-1,0.3-2,0.5-2.9c0.5-2.1,4.1-1.8,3.6,1.2c-0.6,3.9-1.7,7.4,0.4,13.1c0.2,0.6,0.5,1.2,0.8,2
			c12.7,11.6,11.4,10.5,11.6,10.3c-1.8-6.8-3-9-1.8-24c0.1-1.6,0.2-3.1,0.4-4.7c0.3-2.2,3.6-2.3,3.8,0.2c0,0.5-0.8,11.1-0.8,12.8
			c5.3-4.3,4.4-3.5,5-4.2c1.7-2,4.8,0.9,2.6,2.9c-1.5,1.4-5.4,2.8-7,8c-0.1,0.5-0.2,1-0.2,1.5c0.5,3.9,2,8.8,3.9,12.2
			c4.4,1.4,8.9,2.7,13.3,4.1c0.1-0.3,0.2-0.1-0.2-0.5c-3.1-3.1-6.2-5.6-7.7-11.4c-0.2-1-0.4-2.1-0.3-3.1
			c2.2-14.4,9.8-20.2,13.2-23.6c-1.1-0.4-2.3-0.4-4.3-1.7c-4.3-2.9-7.5-6.8-9.5-11.5c-2.5-5.9-1.3-7.1-1.5-7.8
			c-7.3,1.3-12.4-2.3-16.9-7.6c-0.3,2.1-1,12.1-8.3,17.8c-1.6,1.3-2.1,1.3-3.7,0.2c-2.5-1.7-5-3.5-7-5.9c-3.1-3.7-5.5-7.7-7.3-12.2
			c-2.6-6.4-3.3-11.3-3.8-13.8c-6.3,4.2-12.8,6-20.2,3c0.9,5.5,0.2,10.6-2.8,15.1c0.3,0.2,0.6,0.4,0.8,0.5
			c11.1,6.5,17.5,19.1,17.5,25.7c0,1-0.6,1.8-1.5,1.9c-0.8,0.2-1.7,0.3-2.5,0.4c-6.4,0.5-11.2,1-17.6-1.8
			c-5.2-2.2-12.3-6.6-16.1-11.5c-0.1-0.1-0.2-0.2-0.3-0.3c-0.4,0.7-0.9,1.3-1.2,1.9c-5.1,8.5-12.1,9.6-13.2,10.2
			c5.2,4.7,8.9,10,8.3,17.4c1.3-0.1,5.1-1,12.8-0.5c10.3,0.8,17.9,6.2,20.9,11.3c1.1,1.9,1.1,2.4-0.6,3.8
			c-5.2,4.1-10.8,8.9-22.3,9.2c-1.1,0-2.3,0-3.5,0c3.1,5.4,4,11.1,2.4,17.3c3.4-1.4,6.7-1.7,10.1-1.2c3.5,0.5,6.5,2.1,8.9,4.8
			c6.7-6,14.4-11.9,23.1-9.6c2.3,0.6,4.8,0.8,5.9,3.4c0.9,1.9,0.5,0.2,1.3,5.2c0.9,5.9-1.5,9.8-4.1,15.1c8.2-0.4,15,2,19.1,9.9
			c0.2-0.2,0.3-0.3,0.3-0.5c2.9-4.9,9.8-10,15.1-10.8C153.6,673.9,154.1,673.8,154.7,673.7z"/>
		<path class="st1" d="M173.3,613.8c1-2.6,3.2-4.4,4.8-6.2c1.9-2.2,4.6,0.5,3.1,2.4c-1.5,1.9-2.9,2.4-4.3,5.3
			c-0.7,1.4-1,2.8-0.9,4.3c0.4,3.4,0.9,5.3,2.3,8.3c0.3,0.8,0.9,1.5,1.4,2.2c1.6,2.2-1,4.1-2.6,2.3c-0.5-0.6-1.1-1.2-1.4-1.8
			c-1.7-3.3-3.1-6.7-3.4-10.4C172.1,618.1,172.3,616.5,173.3,613.8z"/>
		<path class="st1" d="M45.3,602.2c0.6,0.4,1.7,1.1,2.6,1.9c2.2,2.1,4.1,4.5,5.3,7.3c0.8,1.8,1.1,3.6,1.3,5.5
			c0.3,2.9-3.8,3.2-3.9,0.6c-0.1-5-2.7-8.7-6.4-11.8c-0.3-0.2-0.6-0.4-0.9-0.6c-1-0.5-1.4-1.5-1-2.4
			C42.8,601.9,43.7,601.6,45.3,602.2z"/>
		<path class="st1" d="M99.3,666.9c2.3-4.8,4.1-6.2,7.9-8.1c2.4-1.2,4.2,1.9,1.7,3.3c-2.4,1.4-4.3,1.5-6.5,6.4
			c-0.6,1.3-1.3,1.8-2.4,1.5C98.8,669.4,98.8,668.2,99.3,666.9z"/>
		<path class="st1" d="M38.4,604.4c2.3,1.9,3.7,2.6,5.3,6.3c1.1,2.5-2.2,4-3.4,1.4c-1.4-3.1-2.1-3.5-3.7-4.6
			C34.9,606.3,35.9,603.8,38.4,604.4z"/>
		<path class="st1" d="M129.3,574.6c-0.9-0.3-1.4-1.4-1-2.3c0.3-0.9,1.3-1.3,2.2-1C132.5,572.1,131.4,575.4,129.3,574.6z"/>
		<path class="st1" d="M182.1,603.7c0.3-0.9,1.3-1.3,2.2-1c0.9,0.3,1.3,1.3,1,2.2c-0.3,0.9-1.3,1.3-2.2,1
			C182.3,605.6,181.8,604.6,182.1,603.7z"/>
		<path class="st1" d="M88,610.8c-2.1-0.7-6.3-2.2-8.1-3.6c-1.8-1.5,0.1-3.9,1.8-2.9c3.9,2.2,8.3,3.2,12.5,4.7
			c2.4,0.8,1.6,4.6-1.7,3.5C91.1,611.9,89.6,611.4,88,610.8z"/>
		<path class="st1" d="M137.9,592.7c1,0.4,1.5,1.4,1.1,2.4c-0.4,1-1.4,1.5-2.4,1.1c-1-0.4-1.5-1.4-1.2-2.4
			C135.8,592.9,136.9,592.4,137.9,592.7z"/>
		<path class="st1" d="M141.5,667.1c0.9,0.3,1.4,1.3,1,2.2c-0.3,0.9-1.4,1.3-2.3,1C138.2,669.5,139.3,666.3,141.5,667.1z"/>
		<path class="st1" d="M72.8,603c0.3-0.9,1.3-1.3,2.1-1c0.9,0.3,1.3,1.3,1,2.2c-0.3,0.9-1.3,1.3-2.2,1
			C72.9,604.8,72.5,603.9,72.8,603z"/>
	</g>
	<g>
		<path class="st1" d="M576.3,238.2c4.8,15.5,0.7,20.3-0.7,40.2c-0.2,2.5-2.2,3.2-3.6,2.2c-0.8-0.6-3-3.2-4.5-5.1
			c-11-13.6-10.9-28.5,1.2-41.7c-7.8-5-27-13.9-33.1-16.7c-11.6-5.4-16.5-6-18.5-6.9c-2.2-1-1.2-4,1.3-3.3
			c11.3,3.3,10.8,2.4,40,16.7c12.1-13.6,27.8-29.6,45.5-25.1c6.3,1.6,17.3,6.1,11.9,9.9c-0.3,0.2-29.5,15.9-29.6,15.9
			c-21.3,10.6-28.2-4.4,4.8,19.2c26.6-36.4,66.3-16.8,52.9-11.3c-13.7,5.7-18.8,10.5-28.9,14.2c-22.9,8.4-22.9-8.2,9.1,23.8
			c3.8-5.4,11.8-8.8,18.3-10.1c15.2-3.1,28.9,11.7,22.4,14c-1.4,0.5,1.3-0.3-22.5,2.9c-10.1,1.4-10.4,0.1-10.8,0.7
			c7.2,7,12.9,15.3,18.6,23.5c34.1,4.9,23.8,53.3,17.4,43.6c-1.2-1.8-2.8-7.1-7.6-14c-5.5-7.9-17.6-16.9-12.8-27.2
			c-2-2.9-4.1-5.8-6.2-8.8c-1.4,9.1-4,20-4,20.1c-0.5,1.5-2.3,2-3.5,0.9c-1.1-0.9-5-7.2-6.2-11.5c-2.1-7.5,1.2-13,7.8-17.3
			c-7.5-8.1-15.1-16.2-23.8-23.1c-0.1,0.6,0.6,3.1,0.9,5.4c0.9,7.2-3.5,30.7-3.9,31.7c-0.6,1.6-2.2,2.1-3.6,1.1
			c-1.4-1-3-3.9-3.9-5.4c-10.8-19.6-1.7-36.8,1.6-39.9C594,250.2,585.5,243.9,576.3,238.2z M607.1,203.5c-16.9-7.3-32,7.4-44.5,21
			c11.3,2.2,21-2.3,49.5-18.7C612.2,205.5,612.7,205.9,607.1,203.5z M595,244.9c17.7,2.7,28.9-8.6,46.1-15.8
			c0.5-0.2,0.5,0.1,0.5-0.4C615.2,217.6,594.3,243.5,595,244.9z M649.8,308.8c1.3,8.8,6.6,7.1,19.5,30.3c0.2-0.9,1.2-5.1,0.9-11.5
			c-0.7-14.7-13.3-22.3-19.8-22.4C649.6,306.3,649.6,307.6,649.8,308.8z M572,274.5c1.2-12.4,5.6-28-0.6-37.8
			C562.2,245.6,559.3,261.9,572,274.5z M627.3,272.6c5,2.3,10,0.7,34.6-2.2C648.2,255.9,630.3,267.8,627.3,272.6z M604.6,260
			c-8.4,13.1-4.8,28.9,0.5,36C606.7,284.8,611.9,265.2,604.6,260z M634,309.5c2.4-10.2,3.8-14.1,2.8-18.9
			C631.7,292.2,627.4,300.5,634,309.5z"/>
		<path class="st1" d="M638.7,213.8c-7.4-2.5-14.4-2-21.8,0.5c-4,1.4-2.2,4.5,0,4.1c1.9-0.3,15.5-6.8,28.7,3.4
			c1.3,1,2.5,2.3,3.2,3.8C650.9,230.1,658.6,222.2,638.7,213.8z"/>
		<path class="st1" d="M587.2,274.4c-0.1,0.5-1.1,7.8-0.1,12.8c0.8,4.3,1.4,5.4,6.1,13.3c2.8,4.8,5.7,1.7,4.2-0.3
			c-9.8-12.4-5.9-22.6-6.3-25.6C590.7,272.6,588,272.2,587.2,274.4z"/>
		<path class="st1" d="M678.9,320.9c-0.1-1.7-0.5-3.5-0.9-5.2c-2.9-11.7-9.6-14.6-16.3-18.1c-2.4-1.3-4.3,1.8-2.1,3.2
			c3.9,2.5,12.3,4.5,15.1,16.7C675.6,321.1,676.1,323.5,678.9,320.9z"/>
		<path class="st1" d="M543.6,256.5c0.4,2,3.5,2.2,3.4-0.7c-0.2-11.5,7.3-18.4,8-20c0.7-1.6-0.7-3.1-2.1-2.7
			c-1.8,0.6-5.9,7.1-6.7,8.9C545.4,243.9,542.8,252.7,543.6,256.5z"/>
		<path class="st1" d="M557.3,270.1c-0.4-2.4-0.1,0.1-1.5-5.2c-2-7.6-0.6-12.6-0.4-17.1c0.2-3.8-3.7-3.2-3.8-1.1
			c-0.6,8.9-1.7,15.4,2.6,24C554.7,271.8,556.6,272,557.3,270.1z"/>
		<path class="st1" d="M654.1,252.9c-2.6-0.8-3.8,2.6-1.3,3.6c8,3.2,11.5,4.2,15.2,12c1,2.2,3.8,1,3.3-1.1
			C669.2,259.8,661.1,255.1,654.1,252.9z"/>
		<path class="st1" d="M555.9,212.8c-0.8,3.5,2.4,3.4,3.1,1.9c3-6.7,7.7-9.9,13-13.8c2.2-1.6,0.5-5.4-3.4-2.5
			C559,205.6,555.7,212.7,555.9,212.8z"/>
		<path class="st1" d="M588,189.1c-9.2,1.1-5.9,5.1-3.6,4.4c7.4-2.5,14.9,0.7,16.6,0.7c2,0,2.5-2.7,0.7-3.6
			C600.1,190,594.1,188.4,588,189.1z"/>
		<path class="st1" d="M644.7,251.7c-5-0.1-17,3.4-13.2,6.7c2,1.8,2.6-1.7,11.9-3.1c0.5-0.1,1-0.1,1.5-0.2
			C646.3,254.7,646.8,252.4,644.7,251.7z"/>
		<path class="st1" d="M654.7,231.8c0.8-2.4-2.8-3.6-3.6-1.2C650.3,232.9,653.9,234.1,654.7,231.8z"/>
		<path class="st1" d="M651.4,295.7c-0.8,2.3,2.7,3.2,3.5,1.1C655.7,294.6,652.2,293.5,651.4,295.7z"/>
		<path class="st1" d="M547.5,262c-2.2-0.7-3.4,2.6-1.2,3.3C548.5,266,549.8,262.7,547.5,262z"/>
		<path class="st1" d="M576.6,194.1c-0.7,2.1,2.4,3.2,3.1,1.1C580.5,193.1,577.4,192,576.6,194.1z"/>
	</g>
	<g>
		<path class="st1" d="M555.1,341.7c-3.4,1.2-8,2.3-12.1,6.7c-1.9,2.1-4.9-0.6-2.8-2.8c6.7-6.9,13.9-7.2,15-7.9
			c2.4-24.3,18.2-31.1,27.7-20.4c5.7-0.5,17.1,2.3,22.6,4.2c24,8.4,11.1,29.9-10.3,37.5c-10.2,3.7-15,3.9-16.1,4.6
			c-1.8,1.1-8.1,6.1-15.5,0.1C557.3,358.6,555.5,349.8,555.1,341.7z M559.1,341c-1.3,8.7,5.8,26.3,16.1,20.5
			c8.6-4.9,13.3-23.2,7.8-36.5c-6.9-16.6-21.5-8-23.7,11.9c-0.1,0.8,0.6-0.2,8.4,0.1c2.2,0.1,2.4,3.4-0.3,3.5
			C562.1,340.6,562.6,340.6,559.1,341z M583.6,358.8c2.3-1.2,23.8-5.4,30.1-19.7c5.3-12.1-14.8-16.7-28-17.8
			C591.1,334.1,590.3,346.5,583.6,358.8z"/>
		<path class="st1" d="M593.8,363.6c0.1-2.1,2.6-1.4,6.2-2.8c8.4-3.3,17.3-13.6,17.4-13.7c1.9-1.6,4.3,0.7,2.9,2.5
			C611.4,361.3,593.6,369.2,593.8,363.6z"/>
		<path class="st1" d="M554.6,312.8c2.1-2.4,5.1-0.1,3.2,2.3c-10.5,13.5-3.4,19-7.8,19.1c-1,0-1.8-0.7-1.8-1.8
			C548,322.4,549.9,318.9,554.6,312.8z"/>
		<path class="st1" d="M622,324.6c8.3,12.2-0.1,13,0,9.7c0.1-2.9-1.2-5.1-3-7.3C617.9,325.4,619.1,323.1,622,324.6z"/>
		<path class="st1" d="M568.5,306.5c2.4-0.1,2.8,3.4,0.1,3.6c-2.5,0.2-4-0.1-5.9,1.2C560.3,312.8,555.7,307.3,568.5,306.5z"/>
		<path class="st1" d="M621.5,340.1c1.8-1.7,4.3,0.7,2.6,2.3C622.5,344.1,619.8,341.8,621.5,340.1z"/>
		<path class="st1" d="M574.4,310.2c-1.7-1.6,1-4.1,2.6-2.5C578.6,309.3,576.1,311.8,574.4,310.2z"/>
	</g>
	<g>
		<path class="st1" d="M642,369.1c0.2-24.3-3.7-41.3-4.2-45.8c-0.2-2.3,3.4-3.9,4.3,1.7c9.7,63-4.4,35,14.1,48.8
			c30.9,23.2,41.7,73.4,24.5,71.8c-5.7-0.5-18.6-13-19.9-5.5c-1.7,9.5,4.9,48.5-5,61.7c-3.9,5.2-9.2,1.7-12.4-4.6
			c-4.4-8.6-3.3-14.2-7.9-21.5c-10.4,15.9-9.5,47.5-24.8,64.3c-9,9.9-20.1,2.9-15-19.8c5.8-26,9.8-29.6,9.1-41.7
			c-0.3-5.3-7.9,12.9-23.6,14.4c-5.6,0.5-9.5-2.7-8.8-8.4c1.4-11.9,28.1-27.9,31.5-45.9c1.2-6.2-7.1,2-14.8,3.2
			c-8.8,1.4-13.8-3-14.9-9.5c-2.6-15,16.2-26.8,35.9-41C626.4,379.3,633.9,370.6,642,369.1z M641.8,373.1
			c-9.3,4.1-10.1,7.6-37.7,27.1c-7.5,5.3-20.6,14.9-24.8,23c-3,5.7-1.8,13.6,4.6,14.8c7.4,1.3,13.3-4.7,17.5-5.5
			c2.8-0.5,5,0.8,5.9,3.5c4.6,13.9-29.9,39.4-31.1,48.9c-0.9,6.5,8.6,4.2,14,0.4c8.7-6.1,14.3-17.4,17.8-9.6
			c3.9,8.6-5.4,27.9-8.6,45.4c-2.9,15.9,1.1,25.7,9.7,14.6c13.3-17.3,14.7-54.7,23.8-63c5.3-4.8,8.8,5.9,10.5,12.9
			c2.5,10,6.9,17,9.1,13.9c9.4-13.4,2.2-48.6,4.4-60.5c1.1-5.7,7.2-6.4,11.4-4.2c9.6,5.1,15.7,12,16.4-0.3
			c1.6-27.3-27-56.1-36.5-60.9c-4.7-2.4,0-2.2-7.5,32.6c-3,14-5.4,15.6-2.6,33.7c4.7,3.2,5,2.2,7.9,2.6c2.4,0.4,2,3.9-0.4,3.7
			c-3.8-0.3-3.7-0.5-6.1-1.2c2.2,7.8,7.1,13.6,9.1,16.4c1.4,2-1.2,4.1-2.8,2.1c-8-9.8-10.9-16.7-12.5-29.2
			c-4.1,13.7-10.2,31.7-12,35.9c-0.9,2.2-4.1,1-3.2-1.4c0-0.1,15.4-44.6,21-74.7c-7.2,10.9-17.9,20.9-27.7,26.8
			c-1.7,1-4.1-1.3-1.5-3.2c7.5-5.3,12.2-9.5,16.1-13.6c-2.2,0.5-0.2,0.4-11.2,1.3c-2.1,0.2-3.7-4,1.8-4c17.7,0,17.5-7.3,23.6-18.1
			C641.1,381.7,640.9,382,641.8,373.1z"/>
		<path class="st1" d="M572.9,468.1c1.9-1.6,4.5,0.6,2.6,2.8c-4,4.5-9.9,12-7.8,19.3c0.2,0.5,0.9,2.6,1.6,3c2.3,1.5,0,4.3-1.8,3
			C559.8,490.8,564.7,474.8,572.9,468.1z"/>
		<path class="st1" d="M656.9,504.4c4.5-5.9,6.8-6.8,7.8-24.2c0.2-2.7,3.5-2.5,3.8-0.4c1.1,7.6-2.4,21.9-9,26.8
			C658.2,507.5,656.2,506.3,656.9,504.4z"/>
		<path class="st1" d="M613.5,547.7c-5.2,4.1-6.4-0.3-4.1-1.5c5.1-2.7,11.2-14.5,12.8-18.5c1.1-2.6,4.1-1.3,3.8,0.9
			C625.8,530.2,619.1,543.2,613.5,547.7z"/>
		<path class="st1" d="M634.8,364.5c2.3,0.8,1.9,3,0,3.5c-14.5,3.7-18.4,13.8-21,10c-0.7-1-0.2-2.1,0.7-2.9
			C620,370.4,627.5,365.4,634.8,364.5z"/>
		<path class="st1" d="M604.4,383c2.7-2.3,4.6,0.8,2.8,2.3c-7.9,6.7-8.2,7.6-9.8,6.7C594.5,390.3,598.6,387.8,604.4,383z"/>
		<path class="st1" d="M628.6,520.2c-1.1,1.8-3.7,0.7-3.2-1.3c2.2-8.9,1.1-9.2,2.7-9.7c4-1.1,1.8,6.2,1,10.2
			C628.9,519.4,629.1,519.3,628.6,520.2z"/>
		<path class="st1" d="M578.1,462.2c1.9-1.6,3.9-3.2,5.9-4.8c1.4-1.1,3.3,0.1,3.1,1.5c-0.2,1.1-0.3,1.1-6.4,5.8
			C578.5,466.3,576.6,463.6,578.1,462.2z"/>
		<path class="st1" d="M667,469.6c2.2,0.8,1.1,4.4-1.2,3.6C663.6,472.3,664.6,468.7,667,469.6z"/>
		<path class="st1" d="M592.6,397.9c-0.8,2.1-4,0.9-3.2-1.2C590.2,394.7,593.4,395.8,592.6,397.9z"/>
		<path class="st1" d="M668.8,409.1c3.1-8.3,14.5,22.8,7.8,22.1c-2.7-0.3,0-1.7-3.1-10C669.1,409.9,668.4,410.2,668.8,409.1z"/>
		<path class="st1" d="M663.2,394c2.4,2.1,8.7,9.8,4.6,10.5c-1.9,0.3-1.1-1-6.8-7.6C659.7,395.4,660.8,393.1,663.2,394z"/>
		<path class="st1" d="M615.7,476.2c0.9-2.4,4.4-1,3.5,1.4C618.3,479.8,614.8,478.5,615.7,476.2z"/>
	</g>
	<g>
		<path class="st1" d="M550.9,613.3c5.7,1.6,15-3.5,15.4-3.6c2.5-0.8,3.9,2.4,1.5,3.6c-2.7,1.3-5.4,2.5-8.3,3.1
			c-3.7,0.8-6.1,1.3-9.9,0.2c-1.4-0.4-1.6-0.8-1.6-2.2C548.5,613.3,549.4,612.9,550.9,613.3z"/>
		<path class="st1" d="M656.3,618.9c-1.9,4-1.9,8.9,0.6,13.3c3.7,6.5,6.9,9.2,8.9,11.7c1.2,1.5,0.7,3.1-1.1,3.6
			c-4,1.1-7,10.5-1.5,18.1c1.1,1.5,2.6,3,1.2,4.4c-0.7,0.7-1.7,0.8-2.7,0.2c-1-0.6-2-1.2-3-1.7c-9.3-5-17.2,2-20.2,3
			c-1.5,0.5-3-0.6-2.8-2.2c0.2-2.3,3.1-12.4-4.8-23c-0.8-1.1-1.6-2.1-2.5-3.2c-4.6,4.2-7.6,9.1-8.4,17.4c-0.8,8.7,0.8,13.4,1,15.4
			c0.2,1.7-1.2,2.7-2.8,2.3c-0.5-0.2-2.5-1.1-4.1-1c-6.4,0.6-10.8,4.8-14.4,10.1c-0.1,0.2-0.3,0.4-0.3,0.6c-0.2,1.2-1.3,1.8-2.3,1.5
			c-1.2-0.4-2-1.6-1.5-2.7c0.5-1.1,0.3-2.2,0-3.2c-2-8-6.8-10.4-13.5-14.5c-1.3-0.8-1.1-2.5,0.1-3.1c3.4-1.8,5.8-4.5,7.8-7.6
			c7.7-12.1,7.2-14.7,6.5-24.4c0-0.3-0.1-0.6-0.1-1c-8.9,2.8-16.6,8.6-21.5,17.3c-0.2,0.3-0.3,0.7-0.4,1c-0.5,1.2-1.8,1.6-2.9,0.9
			c-0.8-0.5-1.5-1.3-2.3-1.8c-7.3-4.4-14.4-0.5-17-0.8c-1.4-0.2-2.2-1.7-1.5-2.9c0.7-1.3,5.9-6.2,2.1-15.1c-1.1-2.6-3.1-5.2-4.2-8
			c-0.4-1.1,0.3-2.2,1.5-2.2c6.6-0.1,12.6-2.4,18.4-5.2c2-0.9,3.8-2.2,5.7-3.4c3.1-2,5.5-4.8,7.6-7.8c0.1-0.1,0.1-0.2,0.2-0.3
			c-5.2-6-15.6-6.1-20.7-6.6c-2.7-0.2-3-3.5-1.1-3.8c1.2-0.2,2.2-0.8,3.2-1.4c3.5-2.2,6.1-5.2,7.4-9.1c1.2-3.6,0.1-5.6-0.8-7.5
			c-0.8-1.8,0.5-3.5,2.6-3.1c2.6,0.5,3.6,1.1,6.4,0.2c5-1.6,9-4.4,11.9-8.8c1.3-2,1.5-4.2,1.2-6.5c-0.2-1.8,0.6-2.6,2.4-2.5
			c1.3,0.1,2,0.6,2.5,1.7c3.3,6.5,12.3,12,20.5,13.9c3.4,0.8,6.5,0.1,9.1-2.2c12.6-11.2,10.6-10.9,14.1-44.7
			c0.2-1.8,1.1-2.4,2.2-2.3c1,0.1,1.8,1,1.7,2.7c-3.6,35.9-2.4,23.2-3.7,32.3c-0.2,1.2,0.3,4.9,0.4,6.1c1.1,7.5,9.6,19.2,23.4,18.3
			c1.1-0.1,2.2-0.5,3.3-0.9c4.6-1.3,6.2-4.6,8.3-3.4c2.5,1.4-0.3,4.6,1.8,8.9c2.1,4.4,4.9,8.2,9.3,10.5c1.2,0.7,3.6,1.3,3.7,1.3
			c1.8,0.6,2,3.1-0.2,3.8c-1.3,0.4-2.7,0.8-4,1.4c-4.6,2.1-7.2,5.7-7.8,10.7c-0.4,3.3-0.4,6.1,0.8,8.8c0.7,1.4,1.3,2.9,0,3.8
			c-2.4,1.8-4.1-2.5-8.1-4.8c-2.4-1.4-5-2.5-7.7-3.1C663.1,618,662.7,618.2,656.3,618.9z M673.7,582.3c-3.5,1.8-6.3,3.6-11,2.9
			c-0.9-0.1-1.8-0.4-2.8-0.5c-2.3-0.4-4.7-0.8-6.9-1.8c-6.4-3-10.8-8-13.8-14.4c-0.1-0.2-0.2-0.4-0.3-0.6
			c-1.7,5.5-3.4,10.9-5.1,16.4c2.6,3.8,10.9,8.8,22.4,9.3c1.6,0.1,3.1,0,4.7,0c2.7,0,2.8,3.9-0.1,3.9c-6.6,0.1-6.5-0.1-11.7-0.7
			c1.9,7.4,5,8.8,5.8,10.6c0.9,1.9-1.6,3.9-3.3,1.9c-1.6-1.9-2.9-3.3-4.2-6.3c-1-2.3-1.8-4.6-2.2-7.1c-4.7-1.6-9.1-3.9-12.8-7.5
			c-0.5,1-2,5.6-2.3,6.3c-0.1,0.4-0.2,0.9-0.2,1.4c0,7.8,1.6,15.3,4.3,22.6c2.7,7.1,7.8,12.1,8.5,13.9c0.8,1.9-1.4,3.5-3,2.1
			c-0.3-0.3-0.6-0.6-0.8-0.9c-5.5-7.5-9.4-11.7-12.2-28.8c-0.4,0,0.1-0.6-2.7,7.8c-3.7,11.3-3.1,9.8-7.5,20.1
			c-0.3,0.8-0.8,1.6-1.2,2.3c-1.3,1.9-4.1,0.4-2.9-1.8c0.2-0.3,0.4-0.7,0.5-1c8.3-21.7,4.5-12,9.2-26.3c5.6-17,6.2-15.8,0.3-9.2
			c-13.3,14.8-20,18.6-29.3,24.2c-2.2,1.3-4.7-1.6-1.6-3.6c4.5-2.8,10.1-5.5,17.8-12.9c1.4-1.3,0.4,0.3-6.9-0.9
			c-1-0.2-2-0.3-2.9-0.5c-2.1-0.5-1.8-4.1,1.2-3.6c3.9,0.6,7.4,1.7,13.1-0.4c0.6-0.2,1.2-0.5,2-0.8c11.6-12.7,10.5-11.4,10.3-11.6
			c-6.8,1.8-9,3-24,1.8c-1.6-0.1-3.1-0.2-4.7-0.4c-2.2-0.3-2.3-3.6,0.2-3.8c0.5,0,11.1,0.8,12.8,0.8c-4.3-5.3-3.5-4.4-4.2-5
			c-2-1.7,0.9-4.8,2.9-2.6c1.4,1.5,2.8,5.4,8,7c0.5,0.1,1,0.2,1.5,0.2c3.9-0.5,8.8-2,12.2-3.9c1.4-4.4,2.7-8.9,4.1-13.3
			c-0.3-0.1-0.1-0.2-0.5,0.2c-3.1,3.1-5.6,6.2-11.4,7.7c-1,0.2-2.1,0.4-3.1,0.3c-14.4-2.2-20.2-9.8-23.6-13.2
			c-0.4,1.1-0.4,2.3-1.7,4.3c-2.9,4.3-6.8,7.5-11.5,9.5c-5.9,2.5-7.1,1.3-7.8,1.5c1.3,7.3-2.3,12.4-7.6,16.9
			c2.1,0.3,12.1,1,17.8,8.3c1.3,1.6,1.3,2.1,0.2,3.7c-1.7,2.5-3.5,5-5.9,7c-3.7,3.1-7.7,5.5-12.2,7.3c-6.4,2.6-11.3,3.3-13.8,3.8
			c4.2,6.3,6,12.8,3,20.2c5.5-0.9,10.6-0.2,15.1,2.8c0.2-0.3,0.4-0.6,0.5-0.8c6.5-11.1,19.1-17.5,25.7-17.5c1,0,1.8,0.6,1.9,1.5
			c0.2,0.8,0.3,1.7,0.4,2.5c0.5,6.4,1,11.2-1.8,17.6c-2.2,5.2-6.6,12.3-11.5,16.1c-0.1,0.1-0.2,0.2-0.3,0.3c0.7,0.4,1.3,0.9,1.9,1.2
			c8.5,5.1,9.6,12.1,10.2,13.2c4.7-5.2,10-8.9,17.4-8.3c-0.1-1.3-1-5.1-0.5-12.8c0.8-10.3,6.2-17.9,11.3-20.9
			c1.9-1.1,2.4-1.1,3.8,0.6c4.1,5.2,8.9,10.8,9.2,22.3c0,1.1,0,2.3,0,3.5c5.4-3.1,11.1-4,17.3-2.4c-1.4-3.4-1.7-6.7-1.2-10.1
			c0.5-3.5,2.1-6.5,4.8-8.9c-6-6.7-11.9-14.4-9.6-23.1c0.6-2.3,0.8-4.8,3.4-5.9c1.9-0.9,0.2-0.5,5.2-1.3c5.9-0.9,9.8,1.5,15.1,4.1
			c-0.4-8.2,2-15,9.9-19.1c-0.2-0.2-0.3-0.3-0.5-0.3c-4.9-2.9-10-9.8-10.8-15.1C673.9,583.4,673.8,582.9,673.7,582.3z"/>
		<path class="st1" d="M613.8,563.7c-2.6-1-4.4-3.2-6.2-4.8c-2.2-1.9,0.5-4.6,2.4-3.1c1.9,1.5,2.4,2.9,5.3,4.3
			c1.4,0.7,2.8,1,4.3,0.9c3.4-0.4,5.3-0.9,8.3-2.3c0.8-0.3,1.5-0.9,2.2-1.4c2.2-1.6,4.1,1,2.3,2.6c-0.6,0.5-1.2,1.1-1.8,1.4
			c-3.3,1.7-6.7,3.1-10.4,3.4C618.1,565,616.5,564.8,613.8,563.7z"/>
		<path class="st1" d="M602.2,691.7c0.4-0.6,1.1-1.7,1.9-2.6c2.1-2.2,4.5-4.1,7.3-5.3c1.8-0.8,3.6-1.1,5.5-1.3
			c2.9-0.3,3.2,3.8,0.6,3.9c-5,0.1-8.7,2.7-11.8,6.4c-0.2,0.3-0.4,0.6-0.6,0.9c-0.5,1-1.5,1.4-2.4,1
			C601.9,694.2,601.6,693.3,602.2,691.7z"/>
		<path class="st1" d="M666.9,637.7c-4.8-2.3-6.2-4.1-8.1-7.9c-1.2-2.4,1.9-4.2,3.3-1.7c1.4,2.4,1.5,4.3,6.4,6.5
			c1.3,0.6,1.8,1.3,1.5,2.4C669.4,638.2,668.2,638.2,666.9,637.7z"/>
		<path class="st1" d="M604.4,698.6c1.9-2.3,2.6-3.7,6.3-5.3c2.5-1.1,4,2.2,1.4,3.4c-3.1,1.4-3.5,2.1-4.6,3.7
			C606.3,702.1,603.8,701.1,604.4,698.6z"/>
		<path class="st1" d="M574.6,607.8c-0.3,0.9-1.4,1.4-2.3,1c-0.9-0.3-1.3-1.3-1-2.2C572.1,604.5,575.4,605.6,574.6,607.8z"/>
		<path class="st1" d="M603.7,554.9c-0.9-0.3-1.3-1.3-1-2.2c0.3-0.9,1.3-1.3,2.2-1c0.9,0.3,1.3,1.3,1,2.2
			C605.6,554.8,604.6,555.2,603.7,554.9z"/>
		<path class="st1" d="M610.8,649c-0.7,2.1-2.2,6.3-3.6,8.1c-1.5,1.8-3.9-0.1-2.9-1.8c2.2-3.9,3.2-8.3,4.7-12.5
			c0.8-2.4,4.6-1.6,3.5,1.7C611.9,645.9,611.4,647.5,610.8,649z"/>
		<path class="st1" d="M592.7,599.1c0.4-1,1.4-1.5,2.4-1.1c1,0.4,1.5,1.4,1.1,2.4c-0.4,1-1.4,1.5-2.4,1.2
			C592.9,601.2,592.4,600.1,592.7,599.1z"/>
		<path class="st1" d="M667.1,595.5c0.3-0.9,1.3-1.4,2.2-1c0.9,0.3,1.3,1.4,1,2.3C669.5,598.8,666.3,597.7,667.1,595.5z"/>
		<path class="st1" d="M603,664.2c-0.9-0.3-1.3-1.3-1-2.1c0.3-0.9,1.3-1.3,2.2-1c0.9,0.3,1.3,1.3,1,2.2
			C604.8,664.1,603.9,664.5,603,664.2z"/>
	</g>
	<g>
		<path class="st1" d="M238.2,160.7c15.5-4.8,20.3-0.7,40.2,0.7c2.5,0.2,3.2,2.2,2.2,3.6c-0.6,0.8-3.2,3-5.1,4.5
			c-13.6,11-28.5,10.9-41.7-1.2c-5,7.8-13.9,27-16.7,33.1c-5.4,11.6-6,16.5-6.9,18.5c-1,2.2-4,1.2-3.3-1.3
			c3.3-11.3,2.4-10.8,16.7-40c-13.6-12.1-29.6-27.8-25.1-45.5c1.6-6.3,6.1-17.3,9.9-11.9c0.2,0.3,15.9,29.5,15.9,29.6
			c10.6,21.3-4.4,28.2,19.2-4.8c-36.4-26.6-16.8-66.3-11.3-52.9c5.7,13.7,10.5,18.8,14.2,28.9c8.4,22.9-8.2,22.9,23.8-9.1
			c-5.4-3.8-8.8-11.8-10.1-18.3c-3.1-15.2,11.7-28.9,14-22.4c0.5,1.4-0.3-1.3,2.9,22.5c1.4,10.1,0.1,10.4,0.7,10.8
			c7-7.2,15.3-12.9,23.5-18.6c4.9-34.1,53.3-23.8,43.6-17.4c-1.8,1.2-7.1,2.8-14,7.6c-7.9,5.5-16.9,17.6-27.2,12.8
			c-2.9,2-5.8,4.1-8.8,6.2c9.1,1.4,20,4,20.1,4c1.5,0.5,2,2.3,0.9,3.5c-0.9,1.1-7.2,5-11.5,6.2c-7.5,2.1-13-1.2-17.3-7.8
			c-8.1,7.5-16.2,15.1-23.1,23.8c0.6,0.1,3.1-0.6,5.4-0.9c7.2-0.9,30.7,3.5,31.7,3.9c1.6,0.6,2.1,2.2,1.1,3.6c-1,1.4-3.9,3-5.4,3.9
			c-19.6,10.8-36.8,1.7-39.9-1.6C250.2,143,243.9,151.5,238.2,160.7z M203.5,129.9c-7.3,16.9,7.4,32,21,44.5
			c2.2-11.3-2.3-21-18.7-49.5C205.5,124.8,205.9,124.3,203.5,129.9z M244.9,142c2.7-17.7-8.6-28.9-15.8-46.1
			c-0.2-0.5,0.1-0.5-0.4-0.5C217.6,121.8,243.5,142.8,244.9,142z M308.8,87.2c8.8-1.3,7.1-6.6,30.3-19.5c-0.9-0.2-5.1-1.2-11.5-0.9
			c-14.7,0.7-22.3,13.3-22.4,19.8C306.3,87.4,307.6,87.4,308.8,87.2z M274.5,165c-12.4-1.2-28-5.6-37.8,0.6
			C245.6,174.8,261.9,177.7,274.5,165z M272.6,109.7c2.3-5,0.7-10-2.2-34.6C255.9,88.8,267.8,106.7,272.6,109.7z M260,132.4
			c13.1,8.4,28.9,4.8,36-0.5C284.8,130.3,265.2,125.1,260,132.4z M309.5,103c-10.2-2.4-14.1-3.8-18.9-2.8
			C292.2,105.3,300.5,109.6,309.5,103z"/>
		<path class="st1" d="M213.8,98.3c-2.5,7.4-2,14.4,0.5,21.8c1.4,4,4.5,2.2,4.1,0c-0.3-1.9-6.8-15.5,3.4-28.7c1-1.3,2.3-2.5,3.8-3.2
			C230.1,86.2,222.2,78.4,213.8,98.3z"/>
		<path class="st1" d="M274.4,149.8c0.5,0.1,7.8,1.1,12.8,0.1c4.3-0.8,5.4-1.4,13.3-6.1c4.8-2.8,1.7-5.7-0.3-4.2
			c-12.4,9.8-22.6,5.9-25.6,6.3C272.6,146.4,272.2,149,274.4,149.8z"/>
		<path class="st1" d="M320.9,58.1c-1.7,0.1-3.5,0.5-5.2,0.9c-11.7,2.9-14.6,9.6-18.1,16.3c-1.3,2.4,1.8,4.3,3.2,2.1
			c2.5-3.9,4.5-12.3,16.7-15.1C321.1,61.4,323.5,60.9,320.9,58.1z"/>
		<path class="st1" d="M256.5,193.4c2-0.4,2.2-3.5-0.7-3.4c-11.5,0.2-18.4-7.3-20-8c-1.6-0.7-3.1,0.7-2.7,2.1
			c0.6,1.8,7.1,5.9,8.9,6.7C243.9,191.7,252.7,194.2,256.5,193.4z"/>
		<path class="st1" d="M270.1,179.7c-2.4,0.4,0.1,0.1-5.2,1.5c-7.6,2-12.6,0.6-17.1,0.4c-3.8-0.2-3.2,3.7-1.1,3.8
			c8.9,0.6,15.4,1.7,24-2.6C271.8,182.3,272,180.4,270.1,179.7z"/>
		<path class="st1" d="M252.9,82.9c-0.8,2.6,2.6,3.8,3.6,1.3c3.2-8,4.2-11.5,12-15.2c2.2-1,1-3.8-1.1-3.3
			C259.8,67.8,255.1,75.9,252.9,82.9z"/>
		<path class="st1" d="M212.8,181.1c3.5,0.8,3.4-2.4,1.9-3.1c-6.7-3-9.9-7.7-13.8-13c-1.6-2.2-5.4-0.5-2.5,3.4
			C205.6,178,212.7,181.3,212.8,181.1z"/>
		<path class="st1" d="M189.1,149c1.1,9.2,5.1,5.9,4.4,3.6c-2.5-7.4,0.7-14.9,0.7-16.6c0-2-2.7-2.5-3.6-0.7
			C190,136.9,188.4,142.9,189.1,149z"/>
		<path class="st1" d="M251.7,92.4c-0.1,5,3.4,17,6.7,13.2c1.8-2-1.7-2.6-3.1-11.9c-0.1-0.5-0.1-1-0.2-1.5
			C254.7,90.7,252.4,90.2,251.7,92.4z"/>
		<path class="st1" d="M231.8,82.3c-2.4-0.8-3.6,2.8-1.2,3.6C232.9,86.7,234.1,83.1,231.8,82.3z"/>
		<path class="st1" d="M295.7,85.6c2.3,0.8,3.2-2.7,1.1-3.5C294.6,81.3,293.5,84.8,295.7,85.6z"/>
		<path class="st1" d="M262,189.5c-0.7,2.2,2.6,3.4,3.3,1.2C266,188.5,262.7,187.3,262,189.5z"/>
		<path class="st1" d="M194.1,160.4c2.1,0.7,3.2-2.4,1.1-3.1C193.1,156.5,192,159.6,194.1,160.4z"/>
	</g>
	<g>
		<path class="st1" d="M341.7,181.9c1.2,3.4,2.3,8,6.7,12.1c2.1,1.9-0.6,4.9-2.8,2.8c-6.9-6.7-7.2-13.9-7.9-15
			c-24.3-2.4-31.1-18.2-20.4-27.7c-0.5-5.7,2.3-17.1,4.2-22.6c8.4-24,29.9-11.1,37.5,10.3c3.7,10.2,3.9,15,4.6,16.1
			c1.1,1.8,6.1,8.1,0.1,15.5C358.6,179.7,349.8,181.5,341.7,181.9z M341,177.9c8.7,1.3,26.3-5.8,20.5-16.1
			c-4.9-8.6-23.2-13.3-36.5-7.8c-16.6,6.9-8,21.5,11.9,23.7c0.8,0.1-0.2-0.6,0.1-8.4c0.1-2.2,3.4-2.4,3.5,0.3
			C340.6,174.9,340.6,174.4,341,177.9z M358.8,153.4c-1.2-2.3-5.4-23.8-19.7-30.1c-12.1-5.3-16.7,14.8-17.8,28
			C334.1,145.9,346.5,146.7,358.8,153.4z"/>
		<path class="st1" d="M363.6,143.2c-2.1-0.1-1.4-2.6-2.8-6.2c-3.3-8.4-13.6-17.3-13.7-17.4c-1.6-1.9,0.7-4.3,2.5-2.9
			C361.3,125.6,369.2,143.4,363.6,143.2z"/>
		<path class="st1" d="M312.8,182.4c-2.4-2.1-0.1-5.1,2.3-3.2c13.5,10.5,19,3.4,19.1,7.8c0,1-0.7,1.8-1.8,1.8
			C322.4,189,318.9,187.1,312.8,182.4z"/>
		<path class="st1" d="M324.6,115c12.2-8.3,13,0.1,9.7,0c-2.9-0.1-5.1,1.2-7.3,3C325.4,119.1,323.1,117.9,324.6,115z"/>
		<path class="st1" d="M306.5,168.5c-0.1-2.4,3.4-2.8,3.6-0.1c0.2,2.5-0.1,4,1.2,5.9C312.8,176.7,307.3,181.3,306.5,168.5z"/>
		<path class="st1" d="M340.1,115.5c-1.7-1.8,0.7-4.3,2.3-2.6C344.1,114.5,341.8,117.2,340.1,115.5z"/>
		<path class="st1" d="M310.2,162.6c-1.6,1.7-4.1-1-2.5-2.6C309.3,158.4,311.8,160.9,310.2,162.6z"/>
	</g>
	<g>
		<path class="st1" d="M369.1,95c-24.3-0.2-41.3,3.7-45.8,4.2c-2.3,0.2-3.9-3.4,1.7-4.3c63-9.7,35,4.4,48.8-14.1
			C397,50,447.2,39.2,445.6,56.4c-0.5,5.7-13,18.6-5.5,19.9c9.5,1.7,48.5-4.9,61.7,5c5.2,3.9,1.7,9.2-4.6,12.4
			c-8.6,4.4-14.2,3.3-21.5,7.9c15.9,10.4,47.5,9.5,64.3,24.8c9.9,9,2.9,20.1-19.8,15c-26-5.8-29.6-9.8-41.7-9.1
			c-5.3,0.3,12.9,7.9,14.4,23.6c0.5,5.6-2.7,9.5-8.4,8.8c-11.9-1.4-27.9-28.1-45.9-31.5c-6.2-1.2,2,7.1,3.2,14.8
			c1.4,8.8-3,13.8-9.5,14.9c-15,2.6-26.8-16.2-41-35.9C379.3,110.6,370.6,103.1,369.1,95z M373.1,95.2c4.1,9.3,7.6,10.1,27.1,37.7
			c5.3,7.5,14.9,20.6,23,24.8c5.7,3,13.6,1.8,14.8-4.6c1.3-7.4-4.7-13.3-5.5-17.5c-0.5-2.8,0.8-5,3.5-5.9
			c13.9-4.6,39.4,29.9,48.9,31.1c6.5,0.9,4.2-8.6,0.4-14c-6.1-8.7-17.4-14.3-9.6-17.8c8.6-3.9,27.9,5.4,45.4,8.6
			c15.9,2.9,25.7-1.1,14.6-9.7c-17.3-13.3-54.7-14.7-63-23.8c-4.8-5.3,5.9-8.8,12.9-10.5c10-2.5,17-6.9,13.9-9.1
			c-13.4-9.4-48.6-2.2-60.5-4.4c-5.7-1.1-6.4-7.2-4.2-11.4c5.1-9.6,12-15.7-0.3-16.4c-27.3-1.6-56.1,27-60.9,36.5
			c-2.4,4.7-2.2,0,32.6,7.5c14,3,15.6,5.4,33.7,2.6c3.2-4.7,2.2-5,2.6-7.9c0.4-2.4,3.9-2,3.7,0.4c-0.3,3.8-0.5,3.7-1.2,6.1
			c7.8-2.2,13.6-7.1,16.4-9.1c2-1.4,4.1,1.2,2.1,2.8c-9.8,8-16.7,10.9-29.2,12.5c13.7,4.1,31.7,10.2,35.9,12c2.2,0.9,1,4.1-1.4,3.2
			c-0.1,0-44.6-15.4-74.7-21c10.9,7.2,20.9,17.9,26.8,27.7c1,1.7-1.3,4.1-3.2,1.5c-5.3-7.5-9.5-12.2-13.6-16.1
			c0.5,2.2,0.4,0.2,1.3,11.2c0.2,2.1-4,3.7-4-1.8c0-17.7-7.3-17.5-18.1-23.6C381.7,95.9,382,96.1,373.1,95.2z"/>
		<path class="st1" d="M468.1,164.1c-1.6-1.9,0.6-4.5,2.8-2.6c4.5,4,12,9.9,19.3,7.8c0.5-0.2,2.6-0.9,3-1.6c1.5-2.3,4.3,0,3,1.8
			C490.8,177.2,474.8,172.3,468.1,164.1z"/>
		<path class="st1" d="M504.4,80.1c-5.9-4.5-6.8-6.8-24.2-7.8c-2.7-0.2-2.5-3.5-0.4-3.8c7.6-1.1,21.9,2.4,26.8,9
			C507.5,78.8,506.3,80.8,504.4,80.1z"/>
		<path class="st1" d="M547.7,123.5c4.1,5.2-0.3,6.4-1.5,4.1c-2.7-5.1-14.5-11.2-18.5-12.8c-2.6-1.1-1.3-4.1,0.9-3.8
			C530.2,111.2,543.2,117.9,547.7,123.5z"/>
		<path class="st1" d="M364.5,102.2c0.8-2.3,3-1.9,3.5,0c3.7,14.5,13.8,18.4,10,21c-1,0.7-2.1,0.2-2.9-0.7
			C370.4,117,365.4,109.5,364.5,102.2z"/>
		<path class="st1" d="M383,132.6c-2.3-2.7,0.8-4.6,2.3-2.8c6.7,7.9,7.6,8.2,6.7,9.8C390.3,142.5,387.8,138.4,383,132.6z"/>
		<path class="st1" d="M520.2,108.4c1.8,1.1,0.7,3.7-1.3,3.2c-8.9-2.2-9.2-1.1-9.7-2.7c-1.1-4,6.2-1.8,10.2-1
			C519.4,108.1,519.3,107.9,520.2,108.4z"/>
		<path class="st1" d="M462.2,158.9c-1.6-1.9-3.2-3.9-4.8-5.9c-1.1-1.4,0.1-3.3,1.5-3.1c1.1,0.2,1.1,0.3,5.8,6.4
			C466.3,158.5,463.6,160.4,462.2,158.9z"/>
		<path class="st1" d="M469.6,70c0.8-2.2,4.4-1.1,3.6,1.2C472.3,73.4,468.7,72.4,469.6,70z"/>
		<path class="st1" d="M397.9,144.4c2.1,0.8,0.9,4-1.2,3.2C394.7,146.8,395.8,143.7,397.9,144.4z"/>
		<path class="st1" d="M409.1,68.3c-8.3-3.1,22.8-14.5,22.1-7.8c-0.3,2.7-1.7,0-10,3.1C409.9,67.9,410.2,68.6,409.1,68.3z"/>
		<path class="st1" d="M394,73.9c2.1-2.4,9.8-8.7,10.5-4.6c0.3,1.9-1,1.1-7.6,6.8C395.4,77.3,393.1,76.2,394,73.9z"/>
		<path class="st1" d="M476.2,121.3c-2.4-0.9-1-4.4,1.4-3.5C479.8,118.7,478.5,122.2,476.2,121.3z"/>
	</g>
	<g>
		<path class="st1" d="M613.3,186.1c1.6-5.7-3.5-15-3.6-15.4c-0.8-2.5,2.4-3.9,3.6-1.5c1.3,2.7,2.5,5.4,3.1,8.3
			c0.8,3.7,1.3,6.1,0.2,9.9c-0.4,1.4-0.8,1.6-2.2,1.6C613.3,188.5,612.9,187.6,613.3,186.1z"/>
		<path class="st1" d="M618.9,80.7c4,1.9,8.9,1.9,13.3-0.6c6.5-3.7,9.2-6.9,11.7-8.9c1.5-1.2,3.1-0.7,3.6,1.1c1.1,4,10.5,7,18.1,1.5
			c1.5-1.1,3-2.6,4.4-1.2c0.7,0.7,0.8,1.7,0.2,2.7c-0.6,1-1.2,2-1.7,3c-5,9.3,2,17.2,3,20.2c0.5,1.5-0.6,3-2.2,2.8
			c-2.3-0.2-12.4-3.1-23,4.8c-1.1,0.8-2.1,1.6-3.2,2.5c4.2,4.6,9.1,7.6,17.4,8.4c8.7,0.8,13.4-0.8,15.4-1c1.7-0.2,2.7,1.2,2.3,2.8
			c-0.2,0.5-1.1,2.5-1,4.1c0.6,6.4,4.8,10.8,10.1,14.4c0.2,0.1,0.4,0.3,0.6,0.3c1.2,0.2,1.8,1.3,1.5,2.3c-0.4,1.2-1.6,2-2.7,1.5
			c-1.1-0.5-2.2-0.3-3.2,0c-8,2-10.4,6.8-14.5,13.5c-0.8,1.3-2.5,1.1-3.1-0.1c-1.8-3.4-4.5-5.8-7.6-7.8c-12.1-7.7-14.7-7.2-24.4-6.5
			c-0.3,0-0.6,0.1-1,0.1c2.8,8.9,8.6,16.6,17.3,21.5c0.3,0.2,0.7,0.3,1,0.4c1.2,0.5,1.6,1.8,0.9,2.9c-0.5,0.8-1.3,1.5-1.8,2.3
			c-4.4,7.3-0.5,14.4-0.8,17c-0.2,1.4-1.7,2.2-2.9,1.5c-1.3-0.7-6.2-5.9-15.1-2.1c-2.6,1.1-5.2,3.1-8,4.2c-1.1,0.4-2.2-0.3-2.2-1.5
			c-0.1-6.6-2.4-12.6-5.2-18.4c-0.9-2-2.2-3.8-3.4-5.7c-2-3.1-4.8-5.5-7.8-7.6c-0.1-0.1-0.2-0.1-0.3-0.2c-6,5.2-6.1,15.6-6.6,20.7
			c-0.2,2.7-3.5,3-3.8,1.1c-0.2-1.2-0.8-2.2-1.4-3.2c-2.2-3.5-5.2-6.1-9.1-7.4c-3.6-1.2-5.6-0.1-7.5,0.8c-1.8,0.8-3.5-0.5-3.1-2.6
			c0.5-2.6,1.1-3.6,0.2-6.4c-1.6-5-4.4-9-8.8-11.9c-2-1.3-4.2-1.5-6.5-1.2c-1.8,0.2-2.6-0.6-2.5-2.4c0.1-1.3,0.6-2,1.7-2.5
			c6.5-3.3,12-12.3,13.9-20.5c0.8-3.4,0.1-6.5-2.2-9.1c-11.2-12.6-10.9-10.6-44.7-14.1c-1.8-0.2-2.4-1.1-2.3-2.2
			c0.1-1,1-1.8,2.7-1.7c35.9,3.6,23.2,2.4,32.3,3.7c1.2,0.2,4.9-0.3,6.1-0.4c7.5-1.1,19.2-9.6,18.3-23.4c-0.1-1.1-0.5-2.2-0.9-3.3
			c-1.3-4.6-4.6-6.2-3.4-8.3c1.4-2.5,4.6,0.3,8.9-1.8c4.4-2.1,8.2-4.9,10.5-9.3c0.7-1.2,1.3-3.6,1.3-3.7c0.6-1.8,3.1-2,3.8,0.2
			c0.4,1.3,0.8,2.7,1.4,4c2.1,4.6,5.7,7.2,10.7,7.8c3.3,0.4,6.1,0.4,8.8-0.8c1.4-0.7,2.9-1.3,3.8,0c1.8,2.4-2.5,4.1-4.8,8.1
			c-1.4,2.4-2.5,5-3.1,7.7C618,73.9,618.2,74.3,618.9,80.7z M582.3,63.3c1.8,3.5,3.6,6.3,2.9,11c-0.1,0.9-0.4,1.8-0.5,2.8
			c-0.4,2.3-0.8,4.7-1.8,6.9c-3,6.4-8,10.8-14.4,13.8c-0.2,0.1-0.4,0.2-0.6,0.3c5.5,1.7,10.9,3.4,16.4,5.1
			c3.8-2.6,8.8-10.9,9.3-22.4c0.1-1.6,0-3.1,0-4.7c0-2.7,3.9-2.8,3.9,0.1c0.1,6.6-0.1,6.5-0.7,11.7c7.4-1.9,8.8-5,10.6-5.8
			c1.9-0.9,3.9,1.6,1.9,3.3c-1.9,1.6-3.3,2.9-6.3,4.2c-2.3,1-4.6,1.8-7.1,2.2c-1.6,4.7-3.9,9.1-7.5,12.8c1,0.5,5.6,2,6.3,2.3
			c0.4,0.1,0.9,0.2,1.4,0.2c7.8,0,15.3-1.6,22.6-4.3c7.1-2.7,12.1-7.8,13.9-8.5c1.9-0.8,3.5,1.4,2.1,3c-0.3,0.3-0.6,0.6-0.9,0.8
			c-7.5,5.5-11.7,9.4-28.8,12.2c0,0.4-0.6-0.1,7.8,2.7c11.3,3.7,9.8,3.1,20.1,7.5c0.8,0.3,1.6,0.8,2.3,1.2c1.9,1.3,0.4,4.1-1.8,2.9
			c-0.3-0.2-0.7-0.4-1-0.5c-21.7-8.3-12-4.5-26.3-9.2c-17-5.6-15.8-6.2-9.2-0.3c14.8,13.3,18.6,20,24.2,29.3
			c1.3,2.2-1.6,4.7-3.6,1.6c-2.8-4.5-5.5-10.1-12.9-17.8c-1.3-1.4,0.3-0.4-0.9,6.9c-0.2,1-0.3,2-0.5,2.9c-0.5,2.1-4.1,1.8-3.6-1.2
			c0.6-3.9,1.7-7.4-0.4-13.1c-0.2-0.6-0.5-1.2-0.8-2c-12.7-11.6-11.4-10.5-11.6-10.3c1.8,6.8,3,9,1.8,24c-0.1,1.6-0.2,3.1-0.4,4.7
			c-0.3,2.2-3.6,2.3-3.8-0.2c0-0.5,0.8-11.1,0.8-12.8c-5.3,4.3-4.4,3.5-5,4.2c-1.7,2-4.8-0.9-2.6-2.9c1.5-1.4,5.4-2.8,7-8
			c0.1-0.5,0.2-1,0.2-1.5c-0.5-3.9-2-8.8-3.9-12.2c-4.4-1.4-8.9-2.7-13.3-4.1c-0.1,0.3-0.2,0.1,0.2,0.5c3.1,3.1,6.2,5.6,7.7,11.4
			c0.2,1,0.4,2.1,0.3,3.1c-2.2,14.4-9.8,20.2-13.2,23.6c1.1,0.4,2.3,0.4,4.3,1.7c4.3,2.9,7.5,6.8,9.5,11.5c2.5,5.9,1.3,7.1,1.5,7.8
			c7.3-1.3,12.4,2.3,16.9,7.6c0.3-2.1,1-12.1,8.3-17.8c1.6-1.3,2.1-1.3,3.7-0.2c2.5,1.7,5,3.5,7,5.9c3.1,3.7,5.5,7.7,7.3,12.2
			c2.6,6.4,3.3,11.3,3.8,13.8c6.3-4.2,12.8-6,20.2-3c-0.9-5.5-0.2-10.6,2.8-15.1c-0.3-0.2-0.6-0.4-0.8-0.5
			c-11.1-6.5-17.5-19.1-17.5-25.7c0-1,0.6-1.8,1.5-1.9c0.8-0.2,1.7-0.3,2.5-0.4c6.4-0.5,11.2-1,17.6,1.8c5.2,2.2,12.3,6.6,16.1,11.5
			c0.1,0.1,0.2,0.2,0.3,0.3c0.4-0.7,0.9-1.3,1.2-1.9c5.1-8.5,12.1-9.6,13.2-10.2c-5.2-4.7-8.9-10-8.3-17.4c-1.3,0.1-5.1,1-12.8,0.5
			c-10.3-0.8-17.9-6.2-20.9-11.3c-1.1-1.9-1.1-2.4,0.6-3.8c5.2-4.1,10.8-8.9,22.3-9.2c1.1,0,2.3,0,3.5,0c-3.1-5.4-4-11.1-2.4-17.3
			c-3.4,1.4-6.7,1.7-10.1,1.2c-3.5-0.5-6.5-2.1-8.9-4.8c-6.7,6-14.4,11.9-23.1,9.6c-2.3-0.6-4.8-0.8-5.9-3.4
			c-0.9-1.9-0.5-0.2-1.3-5.2c-0.9-5.9,1.5-9.8,4.1-15.1c-8.2,0.4-15-2-19.1-9.9c-0.2,0.2-0.3,0.3-0.3,0.5c-2.9,4.9-9.8,10-15.1,10.8
			C583.4,63.2,582.9,63.2,582.3,63.3z"/>
		<path class="st1" d="M563.7,123.2c-1,2.6-3.2,4.4-4.8,6.2c-1.9,2.2-4.6-0.5-3.1-2.4c1.5-1.9,2.9-2.4,4.3-5.3
			c0.7-1.4,1-2.8,0.9-4.3c-0.4-3.4-0.9-5.3-2.3-8.3c-0.3-0.8-0.9-1.5-1.4-2.2c-1.6-2.2,1-4.1,2.6-2.3c0.5,0.6,1.1,1.2,1.4,1.8
			c1.7,3.3,3.1,6.7,3.4,10.4C565,118.9,564.8,120.5,563.7,123.2z"/>
		<path class="st1" d="M691.7,134.8c-0.6-0.4-1.7-1.1-2.6-1.9c-2.2-2.1-4.1-4.5-5.3-7.3c-0.8-1.8-1.1-3.6-1.3-5.5
			c-0.3-2.9,3.8-3.2,3.9-0.6c0.1,5,2.7,8.7,6.4,11.8c0.3,0.2,0.6,0.4,0.9,0.6c1,0.5,1.4,1.5,1,2.4
			C694.2,135.1,693.3,135.5,691.7,134.8z"/>
		<path class="st1" d="M637.7,70.1c-2.3,4.8-4.1,6.2-7.9,8.1c-2.4,1.2-4.2-1.9-1.7-3.3c2.4-1.4,4.3-1.5,6.5-6.4
			c0.6-1.3,1.3-1.8,2.4-1.5C638.2,67.6,638.2,68.8,637.7,70.1z"/>
		<path class="st1" d="M698.6,132.6c-2.3-1.9-3.7-2.6-5.3-6.3c-1.1-2.5,2.2-4,3.4-1.4c1.4,3.1,2.1,3.5,3.7,4.6
			C702.1,130.7,701.1,133.2,698.6,132.6z"/>
		<path class="st1" d="M607.8,162.4c0.9,0.3,1.4,1.4,1,2.3c-0.3,0.9-1.3,1.3-2.2,1C604.5,164.9,605.6,161.6,607.8,162.4z"/>
		<path class="st1" d="M554.9,133.3c-0.3,0.9-1.3,1.3-2.2,1c-0.9-0.3-1.3-1.3-1-2.2c0.3-0.9,1.3-1.3,2.2-1
			C554.8,131.4,555.2,132.4,554.9,133.3z"/>
		<path class="st1" d="M649,126.2c2.1,0.7,6.3,2.2,8.1,3.6c1.8,1.5-0.1,3.9-1.8,2.9c-3.9-2.2-8.3-3.2-12.5-4.7
			c-2.4-0.8-1.6-4.6,1.7-3.5C645.9,125.1,647.5,125.7,649,126.2z"/>
		<path class="st1" d="M599.1,144.3c-1-0.4-1.5-1.4-1.1-2.4c0.4-1,1.4-1.5,2.4-1.1c1,0.4,1.5,1.4,1.2,2.4
			C601.2,144.1,600.1,144.6,599.1,144.3z"/>
		<path class="st1" d="M595.5,69.9c-0.9-0.3-1.4-1.3-1-2.2c0.3-0.9,1.4-1.3,2.3-1C598.8,67.5,597.7,70.7,595.5,69.9z"/>
		<path class="st1" d="M664.2,134c-0.3,0.9-1.3,1.3-2.1,1c-0.9-0.3-1.3-1.3-1-2.2c0.3-0.9,1.3-1.3,2.2-1
			C664.1,132.2,664.5,133.1,664.2,134z"/>
	</g>
	<g>
		<path class="st1" d="M157.4,223.2c-2,1.8-4.5-0.8-2.6-2.8c2.2-2.3,4.3-4.2,5.9-5.8c-2.8-4.4-5.4-8-2.4-16.2
			c4.4-12,15.2-22.3,22.1-29.8c1.2-1.3,2.9-1.2,3.6,0.4c2.7,5.5,5.9,10.8,7.5,16.8c4,14.9-8.2,28.4-21.2,29.9
			C160.5,216.7,169.9,211.8,157.4,223.2z M167.6,211.9c6.6-0.7,11.9-1.8,17.4-9.6c7.2-10.3,2.2-18.4-3.3-29.6
			c-9.5,9.9-27.4,28.4-18.6,38.9c10.5-14.7,9.7-25,13.5-23.4c0.9,0.4,1.2,1.3,0.8,2.4C171.8,205.9,169.6,208.1,167.6,211.9z"/>
		<path class="st1" d="M180.7,183.7c0.3,1.8-2.6,2.4-3,0.5C177.3,182.2,180.4,181.8,180.7,183.7z"/>
	</g>
	<g>
		<path class="st1" d="M231.3,584.5c1.8,2-0.8,4.5-2.8,2.6c-2.3-2.2-4.2-4.3-5.8-5.9c-4.4,2.8-8,5.4-16.2,2.4
			c-12-4.4-22.3-15.2-29.8-22.1c-1.3-1.2-1.2-2.9,0.4-3.6c5.5-2.7,10.8-5.9,16.8-7.5c14.9-4,28.4,8.2,29.9,21.2
			C224.9,581.4,220,571.9,231.3,584.5z M220.1,574.2c-0.7-6.6-1.8-11.9-9.6-17.4c-10.3-7.2-18.4-2.2-29.6,3.3
			c9.9,9.5,28.4,27.4,38.9,18.6c-14.7-10.5-25-9.7-23.4-13.5c0.4-0.9,1.3-1.2,2.4-0.8C214.1,570.1,216.3,572.3,220.1,574.2z"/>
		<path class="st1" d="M191.9,561.2c1.8-0.3,2.4,2.6,0.5,3C190.4,564.5,189.9,561.4,191.9,561.2z"/>
	</g>
	<g>
		<path class="st1" d="M57.7,515.3c0.2-2.6,3.8-2.5,3.8,0.3c-0.1,3.2-0.3,6-0.3,8.3c5,1.3,9.4,2.2,12.8,10.2
			c4.9,11.8,4.1,26.7,4,36.9c0,1.8-1.3,2.8-2.9,2.2c-5.7-2.2-11.6-3.9-16.9-7.2c-13.1-8.2-13.3-26.4-4.8-36.4
			C59.8,522.1,56.2,532.2,57.7,515.3z M57.8,530.5c-4.3,5-7.5,9.4-6.2,18.8c1.7,12.4,10.9,15,22.5,19.4c0.2-13.7,0.8-39.5-12.8-41.1
			c2.3,17.9,9.8,24.9,6,26.3c-0.9,0.3-1.7-0.1-2.2-1.2C58.9,537.8,59,534.7,57.8,530.5z"/>
		<path class="st1" d="M67.4,560.1c-1.4-1.2,0.2-3.5,1.8-2.4C70.9,558.9,68.9,561.4,67.4,560.1z"/>
	</g>
	<g>
		<path class="st1" d="M677.9,529.7c8.5,10,8.3,28.2-4.8,36.4c-5.3,3.3-11.2,5-16.9,7.2c-1.6,0.6-2.9-0.4-2.9-2.2
			c0-10.2-0.9-25.1,4-36.9c3.4-8,7.7-8.9,12.8-10.2c-0.1-2.3-0.2-5.1-0.3-8.3c-0.1-2.8,3.5-2.9,3.8-0.3
			C675,532.2,671.5,522.1,677.9,529.7z M666.1,552.7c-0.5,1.1-1.3,1.5-2.2,1.2c-3.8-1.3,3.7-8.4,6-26.3c-13.6,1.7-13,27.4-12.8,41.1
			c11.6-4.4,20.8-7,22.5-19.4c1.3-9.4-1.9-13.9-6.2-18.8C672.3,534.7,672.4,537.8,666.1,552.7z"/>
		<path class="st1" d="M663.8,560.1c1.4-1.2-0.2-3.5-1.8-2.4C660.3,558.9,662.3,561.4,663.8,560.1z"/>
	</g>
	<g>
		<path class="st1" d="M57.7,515.3c0.2-2.6,3.8-2.5,3.8,0.3c-0.1,3.2-0.3,6-0.3,8.3c5,1.3,9.4,2.2,12.8,10.2
			c4.9,11.8,4.1,26.7,4,36.9c0,1.8-1.3,2.8-2.9,2.2c-5.7-2.2-11.6-3.9-16.9-7.2c-13.1-8.2-13.3-26.4-4.8-36.4
			C59.8,522.1,56.2,532.2,57.7,515.3z M57.8,530.5c-4.3,5-7.5,9.4-6.2,18.8c1.7,12.4,10.9,15,22.5,19.4c0.2-13.7,0.8-39.5-12.8-41.1
			c2.3,17.9,9.8,24.9,6,26.3c-0.9,0.3-1.7-0.1-2.2-1.2C58.9,537.8,59,534.7,57.8,530.5z"/>
		<path class="st1" d="M67.4,560.1c-1.4-1.2,0.2-3.5,1.8-2.4C70.9,558.9,68.9,561.4,67.4,560.1z"/>
	</g>
	<g>
		<path class="st1" d="M677.9,529.7c8.5,10,8.3,28.2-4.8,36.4c-5.3,3.3-11.2,5-16.9,7.2c-1.6,0.6-2.9-0.4-2.9-2.2
			c0-10.2-0.9-25.1,4-36.9c3.4-8,7.7-8.9,12.8-10.2c-0.1-2.3-0.2-5.1-0.3-8.3c-0.1-2.8,3.5-2.9,3.8-0.3
			C675,532.2,671.5,522.1,677.9,529.7z M666.1,552.7c-0.5,1.1-1.3,1.5-2.2,1.2c-3.8-1.3,3.7-8.4,6-26.3c-13.6,1.7-13,27.4-12.8,41.1
			c11.6-4.4,20.8-7,22.5-19.4c1.3-9.4-1.9-13.9-6.2-18.8C672.3,534.7,672.4,537.8,666.1,552.7z"/>
		<path class="st1" d="M663.8,560.1c1.4-1.2-0.2-3.5-1.8-2.4C660.3,558.9,662.3,561.4,663.8,560.1z"/>
	</g>
	<g>
		<path class="st1" d="M520.9,53.9c10-8.5,28.2-8.3,36.4,4.8c3.3,5.3,5,11.2,7.2,16.9c0.6,1.6-0.4,2.9-2.2,2.9
			c-10.2,0-25.1,0.9-36.9-4c-8-3.4-8.9-7.7-10.2-12.8c-2.3,0.1-5.1,0.2-8.3,0.3c-2.8,0.1-2.9-3.5-0.3-3.8
			C523.3,56.8,513.3,60.4,520.9,53.9z M543.9,65.7c1.1,0.5,1.5,1.3,1.2,2.2c-1.3,3.8-8.4-3.7-26.3-6c1.7,13.6,27.4,13,41.1,12.8
			c-4.4-11.6-7-20.8-19.4-22.5c-9.4-1.3-13.9,1.9-18.8,6.2C525.8,59.6,529,59.5,543.9,65.7z"/>
		<path class="st1" d="M551.3,68c-1.2-1.4-3.5,0.2-2.4,1.8C550.1,71.5,552.5,69.6,551.3,68z"/>
	</g>
	<g>
		<path class="st1" d="M676.3,175.6c11.1,7,16.2,24.5,6.2,36.2c-4,4.7-9.2,8.1-14,11.9c-1.4,1.1-2.9,0.5-3.4-1.2
			c-3.1-9.8-8.3-23.7-7.1-36.5c0.8-8.7,4.8-10.8,9.2-13.5c-0.7-2.2-1.8-4.8-2.8-7.8c-0.9-2.6,2.5-3.8,3.5-1.4
			C674.3,178.9,667.9,170.4,676.3,175.6z M671.8,201.2c-0.1,1.2-0.8,1.9-1.7,1.8c-4-0.2,1.1-9.1-2-26.9c-12.5,5.7-4.3,30-0.1,43.1
			c9.8-7.7,17.8-12.8,15.7-25.2c-1.6-9.4-5.9-12.7-11.5-16.2C672.4,182.1,673.4,185,671.8,201.2z"/>
		<path class="st1" d="M671.9,208.9c1-1.5-1.3-3.3-2.5-1.7C668.2,208.8,670.8,210.5,671.9,208.9z"/>
	</g>
	<g>
		<path class="st1" d="M54.3,219.3c-7.6-10.7-5.6-28.8,8.2-35.8c5.5-2.8,11.6-3.9,17.5-5.6c1.7-0.5,2.9,0.7,2.7,2.5
			c-1,10.2-1.5,25.1-7.5,36.4c-4.1,7.7-8.5,8.1-13.7,9c-0.2,2.3-0.2,5.1-0.4,8.3c-0.2,2.8-3.8,2.6-3.8-0.1
			C57.4,217.1,60,227.4,54.3,219.3z M68.3,197.4c0.6-1.1,1.4-1.4,2.3-1c3.7,1.7-4.5,8-8.5,25.6c13.7-0.4,15.6-26.1,16.7-39.8
			c-12,3.3-21.4,5-24.2,17.2c-2.2,9.3,0.5,14,4.4,19.3C60.4,214.8,60.6,211.7,68.3,197.4z"/>
		<path class="st1" d="M71.2,190.3c-1.5,1-0.1,3.5,1.6,2.5C74.6,191.8,72.9,189.2,71.2,190.3z"/>
	</g>
	<g>
		<path class="st1" d="M177.8,58.2c8-10.4,25.9-13.8,36.6-2.7c4.3,4.5,7.2,9.9,10.5,15.1c0.9,1.5,0.2,2.9-1.5,3.3
			c-10,2.1-24.4,6-37,3.6c-8.5-1.6-10.3-5.8-12.6-10.4c-2.2,0.5-5,1.3-8,2c-2.7,0.7-3.6-2.8-1-3.6C180.8,60.5,171.7,66,177.8,58.2z
			 M202.8,65c1.2,0.2,1.8,1,1.7,1.9c-0.5,4-9-1.9-27-0.5c4.4,13,29.5,7.1,42.9,4.1c-6.7-10.5-11.1-19-23.6-18.1
			c-9.5,0.7-13.2,4.7-17.2,9.9C183.8,62.7,186.9,62,202.8,65z"/>
		<path class="st1" d="M210.5,65.7c-1.4-1.2-3.4,0.9-1.9,2.3C210,69.4,212,67,210.5,65.7z"/>
	</g>
	<g>
		<path class="st1" d="M582,509.6c2-1.8,4.5,0.8,2.6,2.8c-2.2,2.3-4.3,4.2-5.9,5.8c2.8,4.4,5.4,8,2.4,16.2
			c-4.4,12-15.2,22.3-22.1,29.8c-1.2,1.3-2.9,1.2-3.6-0.4c-2.7-5.5-5.9-10.8-7.5-16.8c-4-14.9,8.2-28.4,21.2-29.9
			C578.9,516,569.4,520.9,582,509.6z M571.7,520.8c-6.6,0.7-11.9,1.8-17.4,9.6c-7.2,10.3-2.2,18.4,3.3,29.6
			c9.5-9.9,27.4-28.4,18.6-38.9c-10.5,14.7-9.7,25-13.5,23.4c-0.9-0.4-1.2-1.3-0.8-2.4C567.6,526.9,569.7,524.6,571.7,520.8z"/>
		<path class="st1" d="M558.6,549c-0.3-1.8,2.6-2.4,3-0.5C562,550.5,558.9,551,558.6,549z"/>
	</g>
	<g>
		<path class="st1" d="M511.9,156.8c-1.8-2,0.8-4.5,2.8-2.6c2.3,2.2,4.2,4.3,5.8,5.9c4.4-2.8,8-5.4,16.2-2.4
			c12,4.4,22.3,15.2,29.8,22.1c1.3,1.2,1.2,2.9-0.4,3.6c-5.5,2.7-10.8,5.9-16.8,7.5c-14.9,4-28.4-8.2-29.9-21.2
			C518.3,159.9,523.2,169.4,511.9,156.8z M523.1,167.1c0.7,6.6,1.8,11.9,9.6,17.4c10.3,7.2,18.4,2.2,29.6-3.3
			c-9.9-9.5-28.4-27.4-38.9-18.6c14.7,10.5,25,9.7,23.4,13.5c-0.4,0.9-1.3,1.2-2.4,0.8C529.2,171.2,526.9,169,523.1,167.1z"/>
		<path class="st1" d="M551.3,180.2c-1.8,0.3-2.4-2.6-0.5-3C552.9,176.8,553.3,179.9,551.3,180.2z"/>
	</g>
</g>
<g>
	<path class="st1" d="M235.8,518.6c-1.9-1.2-0.1-4.2,2-2.8c4,2.6,8.8-0.1,11.9-3.6c4.6-5.2,8.4-13.1,9.1-24.7
		c0.6-9.9-2.3-41.4-2.3-41.5c-17.1,6.4-40.9,28.4-40.2,47.9c0.1,4.2,2.2,8.9,6.3,9.4c1.8,0.2,1.9,3.1,0.1,3.3
		c-13.6,1.7-22.3-36.5,33.6-64.9c0-4.9-3.7-53.2,7.9-61.6c12.3-9,7,21.4,19.7,49.2c0.8-0.1,9.6-4.6,15.6-9.1
		c7.5-5.7,12.2-13.1,14-22.3c0.8-3.7,4.5-2.4,4,0.1c-4.4,20.8-17.2,27.2-31.9,34.9c0,0.1,0,0.2,0,0.3c7,14.6,10.5,16,21.7,26
		c2.9,2.6,6.2,3.9,10.1,4.1c3.5,0.2,9.2,1.8,14.2-3.6c4.7-5.1,5.3-10.8,4-13.3c-1.4-2.8,3.4-4.1,4.1-0.5c1.5,7.7-2.3,14.9-8.4,19.1
		c-7.3,5-16.9,0.8-18.6,1.3c-2.4,0.7-5-1.6-16.1-11.1c-7.3-6.3-11-13.3-14.6-20.4c-7.2,3.1-14.3,6.2-21.5,9.3
		c0,20.9,11.5,68.1-18.1,76.5C240.9,520.5,239.2,520.8,235.8,518.6z M280.4,431.1c-11.7-29.2-8.4-41.6-12.9-48.4
		c-9.5,2.3-7.8,47.3-7.3,57.1C267,436.9,273.7,434,280.4,431.1z"/>
	<path class="st1" d="M410.9,210.8c8.6,4.8,10.7,13.3,10.5,23.1c-0.1,2.7-3.7,2.8-3.9,0.2c-0.2-2.4,0.7-7.8-2.3-13.8
		c-3.4-6.9-6.5-5.3-6.6-7.7C408.6,211.7,409.3,210.8,410.9,210.8z"/>
	<path class="st1" d="M550.8,287.2c-0.5,0.6-1.3,0.7-2,0.4c-1.7-0.8-1.3-3.1,0.5-3.3C550.6,284.1,551.9,285.8,550.8,287.2z"/>
	<path class="st1" d="M310.4,330.1c9.2,51.6-25.9,58.4-27.2,41.3c-0.9-12.2,14.6-31.4,22.9-42.1c-15.3-55.8-57.5-1.3-47.9,3.5
		c2.3,1.1,0.8,4-1.3,3.2c-17.5-6.4,32.1-69.9,52.3-10.6c3.2-4.1,6.3-8,9.4-12c-9.7-88.6,48-91.6,32.8-46.8
		c-5.2,15.5-19.3,35.2-28.7,47.8c2.3,12.2,6.2,27.9,17.1,33.9c7,3.9,12.4-9,13.6-16.9c3.1-19.2-5-28.7,4.5-41.7
		c7.1-9.7,20.8-3.4,16.8,9c-3.8,11.7-15.2,16.3-15.1,16.5c5,8.8,22.8,10.2,31.5-21.5c0.3-1,0.6-1.4-0.1-2.8
		c-10.4-22.7-5.6-54.3,1.7-63.9c7.7-10.2,16.9-2.1,19.3,9.7c3.6,18.1-4.1,41.8-16.1,53.6c-1,2.3,9.1,20.7,22.4,11.4
		c8.3-5.8,11.6-26.4,11.1-30.4c-1.1-8.1-0.9-23.4,0.4-28.8c4.1-18.7,18.6-6.3,13.8,13.1c-1.7,6.9-4.6,14.8-9.5,20.3
		c5.9,28.8,23.4,27.1,25.8,2.9c0.8-7.9-0.9-14.3,0.6-21.8c2-9.8,10.3-14.4,13.3-13.6c5.9,1.6,24.8-20.1,12-26.7
		c-0.9-0.5-1.3-1.7-1-2.7c2.2-6.1,17.2,7.9,3.3,24.4c-5.7,6.8-9.9,7.8-10.5,8.4c0.8,2.2,6,10-0.7,20.5c-1,1.6-2.4,2.8-4,3.7
		c-3.5,2.1-6.1,1.2-9-0.9c0,3.4,0.2,7.1-0.5,11c-1.9,11.1-9,23.8-19.6,18.9c-8.3-3.9-11.3-15.9-12.1-16.8c-1.2,5.1-2,9.2-5,14.5
		c-7.5,13.2-22.1,15.1-31.6,0.7c-0.8-1.2-0.6-0.9-0.9-1.1c-4,13-10.1,25.6-23.6,27.3c-5.4,0.7-8.8-1.7-12.7-4.9
		c0,41-26.8,48.2-38.4-0.9C316.3,322.5,313.4,326.3,310.4,330.1z M321.9,308.6c0.8-0.1,20.8-27.5,26.1-44.4
		c8.5-27.1-11.6-30.5-21.6-3.3C320.8,275.9,320.2,292.6,321.9,308.6z M393.5,287.1c0.4,0.1,1.3-0.7,1.5-1
		c24.1-31.2,11.2-67.9,2.3-58.6C389.3,235.8,385.2,263.1,393.5,287.1z M307.2,334.5c-0.4-0.2-21.8,26.1-20.1,37.1
		C288.9,382.9,313.4,372.7,307.2,334.5z M357.7,311.4c6-1.7,16.4-12.8,12.9-20.1c-1.4-2.9-5-2.9-7.4-1.4
		C359.4,292.3,354.8,302.5,357.7,311.4z M472.1,246.9c-12.1,4.4-8.7,25.1-1.4,20.7C477.5,263.4,477.8,250.8,472.1,246.9z M436.5,237
		c-6.2,5.9-3.8,33.7-3,33.9C444.1,249.9,440.3,238.4,436.5,237z"/>
	<path class="st1" d="M446.8,321.6c-11.2,7.7-10.9,41.5-11.2,43.7c-0.7,6.8-7.5,1.2-10.7,5.1c-2,2.5-1.3,4.6-3.1,5.6
		c-1.3,0.7-2.6,0.3-3.4-1.7c-4.5-13.2-4.1-12.3-4.8-12.5c-5.6,6.8-5.5,8.4-8.8,16.6c-2.3,5.7-6.9,9-11.4,4.9c-0.7-0.6-1.2-1.3-1.9-2
		c-1.7,7.1-2.9,11-5.5,13.9c-3.3,3.6-8,3.3-10.9-3.8c-1.8-4.2-2.9-9.6-3-10.5c-0.2-2.4,2.9-2.9,3.4-0.6c0.9,4.3,4.1,15.7,7.2,12.6
		c3.4-3.5,5.5-13.4,6-18.3c0.1-1.5,0.8-2.2,1.9-2.3c3.3-0.3,1.3,5.2,6.2,8.7c4.4,3.1,6.8-17.1,15.1-22.3c5.4-3.4,7,5.3,9.1,11.2
		c2.9-4.7,5.6-4.7,10.6-4.5c0.5-6.4-0.3-33.2,11-45.5c3.4-3.7,8.4-2.6,9.1,5.1c1.4,14.9-0.5,29.1,3.5,44.5
		c3.8,14.7,11.2,23.6,18.3,10.3c14.2-26.6-2.3-56.5,1.4-63.6c0.8-1.6,3-1,3.2,0.4c0.4,3.3,2.6,6,4.5,8.8c0.7-0.1,0.3-6.8,3.7-14.1
		c2.2-4.8,6.9-10.8,10.2-6.7c1.8,2.3,4.2,14.3,14,12.1c13.6-3,22.3-20.6,12.9-29.1c-0.5-0.4-1-0.9-1.5-1.4c-1.5-1.7,0.8-4.1,2.5-2.8
		c19.2,14.4-6.3,44.8-22,36c-6.1-3.4-7-8.4-8.8-12.1c-9.7,10.3-5,24.5-8.8,25.4c-2.4,0.6-3.6-3.7-5-4.5c2.8,16.1,7.5,32.7-2.7,53
		c-8.2,16.3-24.7,11.5-28-25.3C447.8,340.8,449.5,324.4,446.8,321.6z"/>
	<path class="st1" d="M318.4,438.6c4.2-4,5.9-14.5,6.2-20.3c0.1-2.9,3.8-2.8,3.9-0.1c0.3,5.6,5,12.4,7.2,10.3
		c14.2-12.7,12.5-65.6,11-64.9c-5.8,2.9-14.1,9-15.5,14.3c-0.8,2.9-5.2,1.4-2.8-2.9c15.7-28,66.3-17.9,79.4-45.9
		c2.4-5.1,1.1-7,3.4-7c1.3,0,2.6,1.1,1.9,3.5c-7.3,27.3-43.6,27.7-62.6,36.4c0,1.3,0,2.7,0.3,4c5,18.6,3.1,51.4,19.6,78.1
		c7.9,12.7,19.3,20.2,28.7,8.4c9.2-11.6,6.5-25.7,5.4-39.8c-0.3-4.3,3.8-4,4-1.2c0.7,13.4,1.5,15.3,1.3,20.6
		c-0.9,24-18.7,40.9-36.3,22.5c-10.1-10.5-16.9-28.8-19.6-43.4c-6.5-36,0.7-14.3-10,11.7c-4.2,10.2-10.4,13.9-16.9,4.3
		c-1.3,5.2-2.2,10.2-5.7,13.7c-2.8,2.7-6.9,1.5-9-3.8c-2.1-5.2-2.4-10.6-2-11.9c0.6-2,3.4-1.6,3.4,0.5
		C313.9,429.9,315.2,435.7,318.4,438.6z"/>
	<path class="st1" d="M358.4,454c-0.2-2,2.6-2.6,3.2-0.9c5.7,15.1,39.9,28.4,51.4-5.3c1-2.8,5-1.6,3.3,2.5
		C399.4,490.7,359.7,466.9,358.4,454z"/>
	<path class="st1" d="M312.7,267.7c1.2-5.2,1.9-8.6,3.8-13.7c6.4-17,23.4-28.3,32.4-28c4.3,0.1,5,2.8,3.7,3.9
		c-1.8,1.6-1.3-1.2-5.7-0.1c-1.3,0.3-2.6,0.6-3.8,1.2c-24.4,12.2-25.1,34.3-26.7,37.9C315.5,270.6,312.6,270.3,312.7,267.7z"/>
	<path class="st1" d="M263.7,369.7c-3.2,1-10.7,8.6-13.5,20.7c-1.6,6.6-1.4,10.6-1.8,17.8c-0.2,3.7-5.3,2-4-1
		c1-2.2-1.3-19.1,8.8-32.6C263.7,360.4,266.9,368.7,263.7,369.7z"/>
	<path class="st1" d="M480.7,393.3c-4.5,4.5-6.2-0.2-4.3-1.1c3.9-2,8.4-11.7,9.7-18.2c2-10,0.6-16.4-0.4-22.6
		c-0.4-2.6,3.4-3.3,3.9-0.4C492.4,365.9,491.3,382.6,480.7,393.3z"/>
	<path class="st1" d="M289.8,292.9c-12.8-1.3-22.5,7.6-30.9,17.5c-1.7,2-4.7-0.5-2.9-2.7c4.3-5.2,8.8-10.1,14.7-13.6
		c5.1-3,12.8-5.9,18.6-4.8C292.6,289.9,291.8,292.9,289.8,292.9z"/>
	<path class="st1" d="M301.9,470.4c-1.8-1.8,0.3-4,2-2.8c7.3,5.1,23.8,6.7,31.5-0.4c2-1.8,4.9,1.1,2.5,3.2
		C326.4,479.9,306.5,474.9,301.9,470.4z"/>
	<path class="st1" d="M540.8,292.4c-0.2,7.7-3,11.6-5.3,15.3c-1.6,2.6-4.9,0.5-3.5-1.8c1.6-2.6,5.4-7.5,4.8-14.8
		c-0.7-7.2-4.1-13.3-7-14.1c-1.6-0.4-1.4-3,0.2-3.2C535.9,273.2,540.6,285.7,540.8,292.4z"/>
	<path class="st1" d="M312.3,240.3c8.8-13.9,20.1-19.6,27-19.9c2.3-0.1,2.6,3.1,0.3,3.4c-9.6,1.2-18.2,10-24.1,18.8
		C314,244.9,310.6,242.9,312.3,240.3z"/>
	<path class="st1" d="M367.1,331.3c-0.8-1.6,1-3.1,2.3-2.3c3.3,2.1,14.3-0.2,20.1-10.6c1.9-3.4,1.9-5.6,4-5.3c1.5,0.2,2,1.8,1.5,3.1
		C386.4,335.2,368.9,335.1,367.1,331.3z"/>
	<path class="st1" d="M242.3,389.5c-4.1,3.7-3.5,16.9-1.4,25.8c0.4,1.6-1.1,2.7-2.5,2.3c-2.7-0.9-5.7-21.5,0.8-30
		C241.2,384.9,244.4,387.5,242.3,389.5z"/>
	<path class="st1" d="M488.9,252c-0.4-1.3-1-2.5-2.3-3.2c-1.5-0.9-0.6-3.5,1.3-3.1c2.2,0.5,3.9,3.5,4.6,5.7c2.1,7,0.8,11.1-1.6,16.9
		c-1.3,3.1-4.7,1.3-3.8-0.9C488.3,264.1,491.2,259.2,488.9,252z"/>
	<path class="st1" d="M540.8,310.5c-1.8,2.3-5.1,0-3.2-2.3c4-4.8,7.9-8.7,8.1-14.5C545.8,289.5,556.3,291.1,540.8,310.5z"/>
	<path class="st1" d="M231.2,473.7c1.7-1.1,3.9,1.2,1.9,2.9c-4.6,4-5.4,8.2-5.6,13.4c-0.1,2.6-3.5,2.6-3.8,0.3
		C222.9,485.1,226.3,477,231.2,473.7z"/>
	<path class="st1" d="M323.9,485.2c-4.1,0-3.3-3.4-0.8-3.5c5.4-0.1,11.2-3.8,12-5.3c1.6-3.1,5.8,0.6,2.5,3.2
		C330.5,485.1,323.9,485.3,323.9,485.2z"/>
	<path class="st1" d="M496.9,381.2c-1.2,1.5-3.6,0.2-2.9-1.7c2-5.7,1.9-7.7,1.7-13.4c-0.1-2,1.6-2.7,2.9-1.8
		C501.2,366.1,498.7,378.9,496.9,381.2z"/>
	<path class="st1" d="M429.3,223.6c-0.9,5.8-0.7,6.5-2.2,7.1c-1.4,0.6-3-0.4-2.5-2.3c1.1-4.2,1.5-7.2-0.3-10.9
		C422.9,214.5,428.5,210.9,429.3,223.6z"/>
	<path class="st1" d="M501.5,257.5c-1.2,5.7-1,5.5-1.6,6.1c-1.2,1.5-3.8,0.6-3.2-1.7c1.1-4.4,1.6-5.8,0.3-8
		C495.3,250.9,501.1,248.3,501.5,257.5z"/>
	<path class="st1" d="M416.9,318.6c-2.6,0-2.8-3.8-0.4-3.8C418.8,314.7,419.5,318.6,416.9,318.6z"/>
	<path class="st1" d="M415.5,440c0-2.5,3.8-2.4,3.8,0C419.3,442.5,415.5,442.5,415.5,440z"/>
	<path class="st1" d="M296.5,461.4c2.3-0.1,2,3.7-0.2,3.6C293.9,465,294.2,461.5,296.5,461.4z"/>
	<path class="st1" d="M236.8,466.2c2.4,0,2.4,3.5,0,3.4C234.4,469.5,234.3,466.1,236.8,466.2z"/>
	<path class="st1" d="M295.4,294.2c2.3,0,2.3,3.5-0.1,3.5C292.9,297.7,293.2,294.2,295.4,294.2z"/>
</g>
</svg>
