<?xml version="1.0" encoding="utf-8"?>
<!-- Generator: Adobe Illustrator 22.0.0, SVG Export Plug-In . SVG Version: 6.00 Build 0)  -->
<svg version="1.1" id="Layer_2" xmlns="http://www.w3.org/2000/svg" xmlns:xlink="http://www.w3.org/1999/xlink" x="0px" y="0px"
	 viewBox="0 0 737 737" style="enable-background:new 0 0 737 737;" xml:space="preserve">
<style type="text/css">
	.st0{fill:#F77557;}
	.st1{fill:#BE1E2D;}
	.st2{fill:#FFFFFF;}
</style>
<g>
	<rect x="0" class="st0" width="737" height="737"/>
	<g>
		<g>
			<g>
				<g>
					<path class="st1" d="M175.3,414.9c-4.9,2-8.4-3.1-7.2-6.7c2.3-7.2,11.8-5.5,11.2,1.8c4.7,5.6,6.3,5.8,11.2,23.6
						c4.3-3.4,8.1-7,11-11.2c-13.1-7-1.6-16.7,3.2-12.2c4.7,4.6,2.7,6.8,1,10c-0.5,0.9-0.9,2.6-1.6,3.6c-7.2,9.2-8.1,9.2-12.8,13.4
						c0.4,3.3,0.8,6.6,1.2,9.8c7.5,5.2,15.1,10.3,22.7,15.6c-0.2-5.3-0.3-7.3-1-9.3c-2.2-5.9-3.6-5.9-2.3-7.2
						c0.6-0.6,1.7-0.5,2.5,0.7c3.8,5.7,3.6,10.8,4.1,18c5.8,4.3,15.1,7.6,20.7,2.2c34.6-33.2,23.5-32.8,27.4-32.9
						c2.2,0,1.6,3.2,0.8,4.8c-4.3,8.2-13.4,17.6-19.7,24.2c1.7,2.3-0.1,6.7-2.7,13.7c2.4,5.2,1.8,8.9,1.8,22.4c0,1.4,9,11.7,5.3,13
						c-1.6,0.6-2.1-1.3-2.2-1.5c-6.3-13.4,0.2-3.8-10.9,17.1c4,4.6-1.3,13.1-6.7,10.2c-6.4-3.4-3.6-10.1,2.9-11.8
						c0.9-0.2,0.8,0.5,1.7-1.3c7.5-15,6.8-23.5,6.9-40.3c0.1-10.9,1,6.2-34.8,42.6c0.3,1.1,0.9,2.1,0.9,3.2
						c0.3,7.6-10.2,8.8-12.2,3.3c-0.3-0.9-0.2-2.1-0.2-3.1c-0.1-4.3,5-6.6,8.4-5.4c3.7-2,23.5-25.3,24.8-29.1
						c-4.5,3.4-9,6.9-13.6,10.4c0,6.5-7.4,9.2-10.4,3.9c-2.7-4.7,1.9-11.2,8.8-7c1.9-0.8,19.8-14.5,21.9-18c3.7-6,7.3-16.2,7.9-19.7
						c-10,9.4-20.7,17.6-33.8,21.8c-5.1,5.5-10.7,10.2-16.1,14.9c-0.2,5.4-3.2,9.8-5.2,14.1c0.9,3,3.4,11,0.2,10.8
						c-1.8-0.1-1.3-2.2-1.5-3.3c-0.7-6.5,0.4-4.8-5.8,1.9c-6.2,6.6-6.4,4.6-5.4,6.8c1.3,2.9,0.3,7.5-5.8,9.2
						c-3.3,0.9-6.9-2.5-6.9-4.1c0-3.8,0.5-6.7,4.2-8.4c5.4-2.5,4.2,4.3,15.8-10.8c3-3.9,5.2-8.4,6.9-13c-11,8.2-22.4,15.6-35.4,20.5
						c3.7,6.3-10.6,16.1-13,3.1c-0.7-3.6,0.8-3.3,1.3-4.1c1.4-2.7,5.9-3.8,8.7-2.3c4.5,2.4,32.1-15.7,31.9-16.9
						c-6.8-1.1-4.2-0.9-9.6,0c-2,0.3-2.5-2.1-0.7-2.7c4.5-1.5,8.8-1.3,13.1,1.1c5.7-4.6,11.5-9.3,17.1-14.5
						c-2.2-0.1-1.4,1.3-20.8,2.9c-7.1,0.6-4.2,0-25,1.7c-6.9,12.6-16.9,22.3-27.7,31.1c0,3.5-1.1,6.6-2.8,9.5
						c-0.8,1.4-3.1,0.5-2.5-1.3c2.5-7.3,6.6-8.5-8.4,0.2c1.1,3.2-1.4,8.7-8,9.3c-7.1,0.6-9.3-9.8,0.2-13.3c3.7-1.4,5.1,0.6,6,1
						c4.8-1.4,20.1-12,21.8-15.1c-1.5,0.3-3,0.7-4.5,1c-2.3,0.5-2.9-2.2-0.6-2.8c2.8-0.6,5.5-1.7,8.4-1.2
						c5.4-5.4,10.7-10.8,14.5-17.8c-27.9,4.3-41.5,10.8-60.9,38.7c-6.5,9.4-5.7,7.7-4.8,8.9c4.9,6.7-3.3,17.1-10.7,11.6
						c-3.8-2.8-4-5.9-1.7-9.1c0.4-0.6,1.1-1,1.5-1.6c1.8-2.3,4.1-3.6,7.2-3.4c11.7-14.5,15-27.1,40.8-40.9c-6.7-0.7-13.3-2-20-0.7
						c-1.5,5.5-6.3,11.1-6.4,11.2c-1.4,1-2.9-0.4-2.3-1.8c0.3-0.7,4.5-6.2,5.4-8.5c-9.1,2.6-15.5,8.9-22,15.2
						c2.5,5,1.3,8.4-2.2,10.2c-11.1,5.9-14.4-9.8-5.6-13.3c2-0.8,3.9-0.6,5.4,0.6c4.5-3.9,8.9-7.6,13.2-11.4
						c-3.7-0.6-2.3-0.7-9.1-0.5c-2.7,0.1-2.9-2.7-0.3-3c3.6-0.5,9.1,0,12.9,1.7c18-8.6,32.2-0.6,37.6-2.3c16-5.2,29.5-5.8,46.2-6.8
						c-3.7-4.2-20.2-10.4-29-10.9c-2.8,2.6-14.5,10.9-15.7,7.5c-0.8-2.3,5-2.8,11.5-7.9c-11.6-1.2-22.9,0.4-34.2,1.6
						c-1,2.2-2.5,3.7-4.8,4.4c-6.5,1.9-8.6-7.2-3.2-10.7c4.9-3.2,7.3,1.9,8,3.1c12.5-1.3,24.9-3.1,37.7-1.4
						c-6-8.7-19.8-17.6-28.3-18.4c-4,6.6-12.3,4-12.3-3.2c0-2.4,2.9-5.3,5.3-5.6c3.4-0.4,6.6,2,7.7,5.7
						c13.7,2.8,23.7,11.1,31.9,22.3c11,1.9,21.2,5.7,29.8,13.3c17.2-0.9,33.2-5.4,47.1-16.3c-1.9-0.3-3.7-0.6-5.4-0.9
						c-4.9,3.3-6.7,3.6-14.6,4.8c-2.3,0.3-2.8-2.3-0.6-2.8c4.9-1,7.1-0.8,11.7-3.4c-6.8-3-12.3-7.5-18-11.4
						c-3.7,0.1-7.4,0.2-10.9,0.2c-1.4,4.3-4.4,7.3-6.5,10.9c2.2,3.3,1.4,7.2-2,8.9c-6.1,3.1-12.3-7.5-5.4-9.3c1.5-0.4,3-0.7,4.6-1
						c1.8-2.8,4-5.6,5.7-9c-12.8,0.6-15.9,4.5-35.5-2c-5.7,7.4-12.6-0.6-9.9-5.2c0.3-0.6,0.7-1.1,1-1.7c2-3.6,8.3-2.3,9.7,4.2
						c18.1,6.1,19,2.2,44.1,0.8c-6.4-4.5-12.7-9.1-19.9-12.3c-0.9,0.7-4,2.7-4.9,3.2c-1.5,0.9-3.1-1.3-1.3-2.5
						c0.7-0.5-0.3,0.3,3.3-2c-11.7-5.3-36.1-7.2-36.1-7.2c-2.5,11.1-17.6,0.2-7.3-6.8c2.6-1.7,5.6,0.3,6.7,3.3
						c9.5,1.7,19.1,2.2,28.7,4.4c-4-4.8-8.3-8.6-13.8-11c-4.2,8.5-15.4,0.7-8.2-6.3c4.5-4.4,7.9,2.3,8.6,3.3
						c5.9,2.8,10.1,5.2,16.5,12.8c3.1,3.6-2.4,0.5,16.7,9.5c0-5.3-4.3-26.2-10.7-31.4C177.2,413.9,176.3,414.5,175.3,414.9z
						 M79.9,548.1c-1.2,2,3.4,6.6,7.1,2.9c4-4.1,1-8.6-2.1-8.1C84,543.4,82.8,543.3,79.9,548.1z M76.9,522.6
						c8.3-2.2,0.2-12.4-2.6-7.5c-0.6,1.1-2.2,1.7-1.5,4.7C73.5,522.3,74.3,523.3,76.9,522.6z M109,534.3c-2.1,1.3-2.1,5.5,0.5,5.7
						c5.5,0.5,8.5-6,3.2-7.9C111.6,532.8,110.3,533.5,109,534.3z M150.3,532.4c4.6-1.1,4.9-6,1.6-7.1c-3.7-1.3-4.7,1.8-5.2,2.8
						C146.8,529.7,147.9,533,150.3,532.4z M171.5,538.7c1.7-0.4,3.2-1,3.7-2.9c1-4.5-6.5-6.7-7.2,1.2
						C169,537.9,169.8,539.1,171.5,538.7z M119.8,453.6c-0.5-1.7-2.7-3-4.3-2.6c-3.7,1-2.4,7.5,1.9,6.4
						C119.1,457,120.3,455.1,119.8,453.6z M203.3,527.9c-4,1.1-3.6,7,1.3,6C209.1,532.8,206.9,526.9,203.3,527.9z M199.9,417.7
						c2.2,3.8,7.4-2.3,2.8-5.4c-2.2-1.5-3.5,1.3-4.1,2.2C199,415.6,199.3,416.8,199.9,417.7z M236,534.8c1.5-2.4,2.6-5.2-0.4-5.6
						c-1.9-0.3-2.3,1.8-3.1,3.7C232.1,535.1,235,536.3,236,534.8z M176.3,408.9c-0.9-5-5.7-1.4-5.2,1.1
						C172,414.1,176.9,411.8,176.3,408.9z M105.4,478c-1.2,2.4,0.8,4.6,3.3,2.7c1.9-1.4,2.1-2.7,0.6-4.7c-0.5-0.7-1.3-0.7-2.3-0.4
						C106.4,476.5,105.8,477.2,105.4,478z M148.2,454.3c-0.7,1.1-0.3,2.8,0.9,3.6c1.9,1.3,5.2-1.9,3-4.2c-1.2-1.3-1.6-1.5-2.7-1.4
						C149.9,452.9,149.2,452.7,148.2,454.3z M133.2,434.2c0.6,1.2,1.3,3.7,3.5,2.7c2.2-0.9,1.3-5-0.7-5.9
						C134.7,431.6,134,432.7,133.2,434.2z M211.3,504.8c-3,0.8-2.2,5.9,0.6,5.2C216.2,508.9,214,504.1,211.3,504.8z M186,473.9
						c0.1-2.2-3.7-1.7-5.7-0.5C180.8,477.9,185.9,478.1,186,473.9z M148.9,421.9c-2.6,2.5,1.1,5.6,3.3,3.2c0.2-2.6,0.6-3.6-1.8-4.4
						C149.8,421.1,149.3,421.5,148.9,421.9z"/>
					<path class="st1" d="M126.2,514.6c-10,2.6-7.1,6.9-4.8,5.5c3.6-2.2,0.4-0.6,6.3-2.9C129.2,516.6,129.2,513.9,126.2,514.6z"/>
					<path class="st1" d="M165.7,450.8c4.7-1.7,7-2,6.2-3.9c-0.7-1.6-2.2-0.6-8,1.2c-1,0.3-1.9,0.7-1.6,1.9
						C162.9,451.8,165.5,450.4,165.7,450.8z"/>
					<path class="st1" d="M206.8,476.8c-0.3-1.2-1.3-1.2-2.4-1c-4.4,0.6-6.1,0.4-6.1,2c0,2.1,2.3,1.4,6.5,1.1
						C204.8,478.4,207.2,478.7,206.8,476.8z"/>
					<path class="st1" d="M186.4,541.8c0.5,0.3,0.9,0.8,1.3,0.8c0.4,0,1.2-0.3,1.3-0.6c1.2-3.3,3.2-7.3,0.7-7.6
						C188,534.2,186.8,540.1,186.4,541.8z"/>
					<path class="st1" d="M165.2,506.2c-4.6,1.8-4.4,1.7-4.8,2c-1.4,1.1-0.2,3,1.3,2.5c4-1.4,6.5-1.9,5.9-3.7
						C167.4,506.2,166.6,505.8,165.2,506.2z"/>
					<path class="st1" d="M254.8,524.9c1.8-0.4,1.1-2.4-0.2-6.9c-0.6-1.9-3.2-1.5-2.7,0.8C253,523.4,253,525.3,254.8,524.9z"/>
					<path class="st1" d="M211,441.3c-3.7-6.8-6.9-3.8-5.1-1.7C209.1,443,209.3,443.9,211,441.3z"/>
					<path class="st1" d="M94.6,516.8c5.4-4.1,1.8-5.3,0.8-4.5c-0.9,0.8-1.8,1.6-2.6,2.5C91.8,515.8,93.4,517.7,94.6,516.8z"/>
					<path class="st1" d="M127.3,488.6c0.3,1.4,1.5,1.4,4.4,0.7c1.7-0.4,1.5-2.9-0.5-2.8C129.4,486.6,127,487,127.3,488.6z"/>
					<path class="st1" d="M191.7,479.3c0.5,1.8,3.7,1.4,3.1-0.6C194.3,477,191.2,477.3,191.7,479.3z"/>
					<path class="st1" d="M76.9,501.7c1.9-0.4,1.2-3.2-0.8-2.8C74.2,499.3,75,502.1,76.9,501.7z"/>
					<path class="st1" d="M257,529.8c-0.4-1.7-3.2-1.2-2.7,0.6C254.7,532.2,257.5,531.6,257,529.8z"/>
					<path class="st1" d="M124.7,539.1c-1.8,0.3-1.1,2.9,0.5,2.5C126.8,541.3,126.4,538.8,124.7,539.1z"/>
				</g>
				<g>
					<path class="st2" d="M198.7,656.7c-11.1-1.3-12.5-14.2-8.7-23.7c9.7-24.5,41.5-30.3,48.4-39.8c6.5-8.9-12.8-17.6-18.8-23.4
						c-14.7-14.2-1.8-26.1,14.7-23.2c13.7,2.4,40.6,12.8,39.9,0.1c-0.5-8.6-8.2-13.2-17.8-27.8c-2.4-3.7-3.9-11.2,2.7-14.9
						c13.2-7.3,33,9.6,49.6,20.2c9.9,6.3,17.7,11.4,28.4,6.8c0,0,2-0.5,2.7-1.1c26.7-25.1,30.3-40.5,33.7-38.3
						c1.3,0.8,0.7,2-0.1,3.2c-28.2,41.1-34.8,34.3-36.6,48.5c-5.4,42.7,5.2,63.9,10,83.6c4.3,17.7-6.6,31.8-19.1,23.6
						c-15.6-10.3-16.8-36.5-23.8-44.7c-5-5.9-9.9,0.1-11.9,8.1c-4.3,17.8,11.2,61.3-13.9,65.6c-7.4,1.3-12.8-4.9-15.2-11.6
						c-7.2-20.1,2.5-40-7.8-40.7C238.3,626.1,220.7,659.2,198.7,656.7z M285.2,535.2c-0.9,0.3-8.1,2.2-8.3-0.3
						c-0.1-2.7,4.2-0.8,7.7-2.8c-0.5-0.5-7.5-6.8-9.6-8.2c-2.1-1.4-0.3-4.3,1.6-2.8c1.1,0.9,2.2,2,3.6,2.9c-0.1-1.6-0.2-3.2-0.4-4.8
						c-0.4-2.8,2.2-2.5,2.7-1c0.7,2.2,0.5,4.6,0.6,8.9c10.9,7.7,8.6,7.4,8.1,0.3c-0.1-1.6,2-2.2,2.7-0.7c0.5,1,0.4,1,0.7,8
						c2.1,1,4.6,2.1,7.1,3.2c0.5-4.9-0.9-7.6-0.8-8c0.9-2.4,2.4-1.8,3.1,0.6c2.7,10.2-3.1,7,6,10.1c0.5-4.2,0.4-5.5,1.8-5.5
						c2.2,0,1.4,2.8,1.1,6c15.1,1.3,12.3,1.3,20.7-6c-1.8-0.2-10,2.4-21-4.8c-20.4-13.4-40.1-29.2-51.5-24.2
						c-6.1,2.7-4.1,9.1,0.1,14.4c12.1,15.3,15.5,18.2,15.9,25.9c0.8,15.8-25.5,7.1-40.8,3.5c-14.4-3.4-27,3.9-16.1,15.8
						c6.7,7.3,12.7,8.1,17.9,14.1c14.4,16.4-8.1,21.7-27.1,33.5c-26.7,16.5-26.5,49.3-0.1,37.5c15.1-6.8,30.5-29.3,44.8-27.1
						c14.3,2.2,2.3,24.1,10.5,44c2.1,5,6.1,9.3,11.4,8.3c20.8-3.8,7.2-43.8,10.8-61.8c3-14.7,12.1-18.1,18.2-10.3
						c4.6,5.9,5.7,13.9,10.2,25.7c10.9,28.8,30.8,23.4,27-0.8c-2.8-18.3-16.9-37.9-9.8-90c-4.5,3.8-5.9,4.4-7.7,10.3
						c-1.7,5.5-3.9,19-3.7,28.9c3.7,1.6,5.3,3.6,8,7.2c0.8,1.1,1.3,2.5,0,3.1c-2.4,1.1-3.9-5.3-7.9-6.9c-0.1,4.9-0.1,9.7,0.8,14.6
						c3.3,0.5,6.3,3,6.7,3.6c1.1,1.4-0.5,3-1.8,2.1c-5.6-3.4-5-5.2-3.2,5.1c2.7,0.7,4.2,1.1,5.3,1.6c1.9,0.9,0.9,3.4-1.2,2.7
						c-1-0.3-2-0.6-3.2-1c0.6,2.1,1.1,4,1.5,5.7c7.1,3.9,7.3,3.9,8.3,4.8c1.5,1.4,0,3.6-1.9,2.3c-6.8-4.6-6-4-3.8,0.5
						c0.9,1.9,2.5,3.6,0.9,4.5c-1.7,1-2.4-1.3-5.1-6.8c-0.2-0.4-0.3-0.8-0.5-1.4c-2.7,3.4-3.1,8.4-5.1,8.1
						c-3.4-0.5,1.8-9.2,4.3-11.6c-0.5-1.9-1.1-3.8-1.7-6c-0.8,0.8-1.3,1.3-1.9,1.9c-3.3,3.1-4.2-2.7,1.1-4.5c-0.5-2.7-1-5.5-1.6-8.3
						c-6.1,4.1-5.8,9.1-8.1,7.9c-2.7-1.3,2.7-7.4,5-9.3c3.4-2.8,2.9-0.4,2-8.5c-4.6,3.7-3.3,2.7-3.9,3.2c-1.8,1.4-3.4-0.8-1.9-2.1
						c0.9-0.8,4.3-3.5,5.9-4.6c-2.5-38.9,13.2-45.8-7.4-28.3c-0.8,11-0.8,10.4-0.8,10.7c-0.4,1.7-2.6,1.5-2.7-0.2
						c-0.5-8.3,4.4-11.1-7.6-0.6c-0.1,4.4,0,5.2-0.4,5.5c-1.1,1-2,0.5-2.4-0.7c-0.7-2.1,1.6-3.5-3,0.5c-3.9,3.5-5.6,6.1-7.1,10.8
						c4.9,2.1,9.7,7.1,13.3,10.7c1.6,1.6-0.6,4.2-2.9,1.5c-2.6-3.1-7.7-7.6-11.7-9.5c-0.5,1.3-0.9,2.5-1.4,3.7
						c2.1,4.6,8.4,7,5.7,9.1c-1.3,1-2.1-0.4-7.1-5.3c-3.1,12.4-4.8,24.8-5.5,37.2c3.4,2.6,7.1,4.8,5.4,6.4c-1.9,2-4.6-3.5-5.8-2.8
						c-0.2,9.1-0.6,5.6,1.7,7.7c4.1,3.7,4.8,4.3,3.8,5.4c-1.3,1.4-1.9,0-5.3-3.2c-0.1,2.5,1.5,11.6,1.5,12.7
						c0.1,1.1-3.8,7.4-4.8-16.7c-7.1,4.9-6.5,9.5-8.8,8.6c-3.5-1.4,4.9-9.7,8.8-11.9c0.1-2.3,0.3-4.7,0.4-7.6
						c-2.7,1.9-4.5,3.7-5.5,2c-0.9-1.5,0.8-2.1,5.8-5.6c0.7-8.5,1-8.4-0.1-7.6c-7.3,5-6.2,7.9-8.3,6.7c-2.9-1.6,4.2-8.2,9.6-10.7
						c4.6-30.8,9.1-31.2,7.9-32c-5.4,4.5-10.8,9.1-16.4,13.8c0.6,3-0.3,6.1-1.1,9.2c-0.7,2.6-3.3,2-2.8-0.7c1.3-6.6,1-4.8,1.1-6.9
						c-7.6,5.2-2,0-6.5,12.2c-0.7,1.8-1.6,3.6-2.6,5.3c-0.9,1.7-3.4,0.4-2.3-1.6c1.9-3.5,3.3-7.8,3.7-11.1
						c-11.4,6.4-15.1,9.3-16,6.7c-1.1-3.2,6.5-0.5,35.2-24.8c2.8-2.4,10.4-8.8,12.7-11.7c-7.2-0.1-14.2-0.2-21.3-0.3
						c-0.8,2.4-6.5,7.5-7.9,8.4c-1.7,1-3.2-0.9-1.6-2.3c5.4-4.8,4.3-3.9,6.4-6.3c-13.5-1.6-4.5-1.9-14.4,4.1c-1,0.6-2,0.8-2.5-0.3
						c-0.7-1.3,0-1.2,5.4-5.4c-12.7-3.8-2.8-1.9-14.7,2.9c-2.1,0.8-3.2-1.5-1.2-2.6c5.1-2.7,3.2-1.7,5.8-3.4
						c-2.4-0.9-7.1-3.2-8.5-3.9c-2-1-0.9-3.5,1.4-2.5c8.2,3.8,6.5,3,8,3.4c0.1-6-2.9-5.9-1.2-7.4c1.3-1.2,3.1,1,3.5,2.5
						c0.5,1.9,0.7,3.8,1,5.9c5.6,1.9,11.5,3,17.8,3.4c0.5-7.2-2.6-7.9-0.5-9.1c1.2-0.7,2.1,0.6,2.6,2c3.4,8.9-4.9,7.4,11.3,7.6
						c17.8,0.3,12.4,2.4,43.2-24.6c-5-0.4-9.9-0.4-14.6-1.9c-7.6,7.7-13.4,12.1-25.3,13.8c-2.2,0.3-2.8-2.4-0.4-2.8
						c11.7-2,15.7-5.8,22.4-12.1c-1.7-0.6-3.1-1.1-4.6-1.7c-4,2.7-9.2,4.6-11.9,5c-2,0.3-2.5-2.1-0.7-2.7c4.2-1.4-0.1,0.5,9.3-3.6
						C286,533.3,288.5,534,285.2,535.2z"/>
					<path class="st2" d="M229.3,621.2c7.3-5,7.2-4.9,8.6-6.1c1.2-1,0.1-2.9-1.5-2.3c-0.2,0.1,0.6-0.4-13.5,8.6
						c-0.3,0.2-2.2,1.1-1.3,2.6C223.1,626.5,228.9,620.5,229.3,621.2z"/>
					<path class="st2" d="M305.8,587.4c0.9,1.3,2.6,1.1,3.2-2.1c0.1-0.4,1.5-8.7,1.5-9.6c0-2-2.6-2.2-2.9-0.3
						C307.3,577.1,305.7,586,305.8,587.4z"/>
					<path class="st2" d="M253.3,583.4c-4.5,2.3-6,2.6-5.5,4.1c0.9,2.8,7.3-1.6,8.9-3.3c1.4-1.3-0.2-3.4-1.9-2.2
						C254.8,582,253.2,583.2,253.3,583.4z"/>
					<path class="st2" d="M266.6,515.9c6.3,8,8.9,2.7,6.1,1.5c-1.7-0.7-2.7-2.1-3.9-3.3C267.5,512.6,265.5,513.9,266.6,515.9z"/>
					<path class="st2" d="M299.9,584.2c0.3-0.7,0.4,0,0.8-6c0.2-2.4-2.7-2.6-2.9-0.2c-0.4,4.3-0.5,5.1,0,6
						C298.2,584.7,299.1,584.8,299.9,584.2z"/>
					<path class="st2" d="M312.7,593.8c-1.7-2.2-4.7,2.7-5.3,4.6c-0.5,1.6,1.4,2.7,2.5,1.2C312.6,595.6,313.5,594.9,312.7,593.8z"/>
					<path class="st2" d="M252.6,558.3c-1.5,1,0,2.5,0.7,3.8c0.7,1.3,0.9,2.9,2.4,2.5c2-0.5,0.7-2.5-0.2-4.7
						C255,560,254.3,557.2,252.6,558.3z"/>
					<path class="st2" d="M265.6,613.1c-2.1-3.2-4.7,4.1-3,5.1C264.5,619.2,266.1,614.7,265.6,613.1z"/>
					<path class="st2" d="M318.1,616.3c1.7-1.1,0.2-3.7-1.6-2.6C314.7,614.8,316.4,617.4,318.1,616.3z"/>
					<path class="st2" d="M232.1,560.6c-1.2-1.7-3.7,0.2-2.4,1.9C231,564,233.4,562.2,232.1,560.6z"/>
					<path class="st2" d="M292.5,524.4c1.7-1.2-0.1-3.6-1.8-2.5C289.1,523.1,290.8,525.7,292.5,524.4z"/>
					<path class="st2" d="M283.8,623.6c-1.2-1.7-3.8,0.2-2.5,1.8C282.6,627.1,285,625.2,283.8,623.6z"/>
					<path class="st2" d="M269.1,634.9c1.7-1.1,0-3.8-1.7-2.6C265.7,633.5,267.5,635.9,269.1,634.9z"/>
					<path class="st2" d="M283.5,546.8c1.7-1.1,0-3.6-1.6-2.6C280.1,545.3,281.8,547.9,283.5,546.8z"/>
					<path class="st2" d="M273.1,654.4c1.7-1.1,0-3.8-1.7-2.6C269.7,653,271.4,655.4,273.1,654.4z"/>
					<path class="st2" d="M215.1,627.2c-1.5,1.1-0.2,3.6,1.5,2.5C218.2,628.6,216.8,626,215.1,627.2z"/>
					<path class="st2" d="M208.4,633.4c1.1,1.6,3.6,0.2,2.5-1.4C209.8,630.4,207.3,631.9,208.4,633.4z"/>
					<path class="st2" d="M244,579.2c1.1,1.6,3.4-0.2,2.2-1.8C245,575.9,243,577.7,244,579.2z"/>
				</g>
				<g>
					<path class="st2" d="M253.2,394.9c-19,11.2-52,8.7-61.2,4.1c-2.1-1.1-3.3-3-3.1-5.2c0.4-3.6,3.6-6.2,6.1-8.4
						c-4-1.5-22.8,6.2-79.8-6.9c-13-3,2.6-8.4,8.9-16.2c-5-1.4-15.1-1.7-27.6-5.4c-17-5.1-29.3-12.9-30.8-14.6
						c-3.2-3.6,5-5.1,10.5-8.3c-2.9-0.7-5.9-1.4-8.4-3c-11.2-7.1-10.9-6.8-24.3-17C31,304.4,26.9,302,31,299.5
						c1.9-1.1,43.3-16.9,55.4-20.8c26-8.4,29.5-2.1,19.5-9.3c-4.1-3-6.1-3.4-5.5-5.3c0.5-1.5,2.2-1.4,3.7-1.1
						c51.5,8.6,60.5,10.1,90.9,29.6c-1.2-18.3,3.2-12.2,14.6-2.6c16.8,14.1,35.8,30,43.4,60.9c4.3,17.4,3.8,32.7,1.9,41.4
						c9.5,10.5,9.4,11,20.7,30.9c0.2,0.4,0.3,1,0.4,1.4C273.4,432.2,268.9,411.4,253.2,394.9z M154.7,365.9c-1.8,1.2-3,2.4-3.9,2.6
						c-1.1,0.2-4.9-1.6,6.9-7.9c19.3-10.3,40.3-7.7,41-8.1c-7.3-5.2-32.3-16.8-32.4-16.9c-21.4-10.3-27.2,9.7-30.6,11
						c-1.3,0.5-2.8-1.2-1.7-2.6c2.9-3.6,1.7-3,7.3-8.9c-1.2-0.3-15.1,3.6-21.2,9.7c-1,1-7-0.2,4.8-7.2c10.6-6.3,25.2-7.2,26-7.8
						c-18.8-8.5-57.1-14.4-68.1-16.4c-1.9-0.3-1.6-2.9,0.2-2.9c3.1,0.1,21.9,3.4,24.7,3.9c21.3,3.9,31.7,8.4,30.2,7
						c-7-6.4-10.6-11.2-10.8-11.3c-11.7-7.3-18.6-8.9-23.6-12.3c-1.6-1.1-0.2-3.3,1.4-2.5c2.7,1.3-0.3,0.2,10,4.7
						c10,4.4,7.5,3.2,7.3,2.8c-9.6-16.8-3-15.1-2.5-13.3c3.9,14.4,20.2,32.4,32.1,36.9c60.5,22.4,50,33.6,30.4,1.6
						c-2.1-3.5-13-13.2-15-14.9c-1.8-1.5,0.2-3.6,1.7-2.4c6.5,5.2,7.7,7.1,8.1,6.9c0-0.1-3.7-9.7-4.1-15.5c-0.1-1.9,2.4-2.3,2.8-0.4
						c4.4,19.5,10.4,28.4,24.2,43.7c9.9,11,12.5,11.7,16,14.3c26.7,19.7,5.6,9.1,6.6-18.6c0.1-2.2,2.8-2.2,2.9,0
						c1.4,27.6,12.4,34.7,27.1,48.4c1-8,1-20.1-0.7-29.4c-4.7-25.4-14.4-46-53.6-75.5c-0.5,4.9,1.9,14-3.3,11.6
						c-9.1-4.3-15.9-17.7-80.3-28.1c-8.3-1.3-7.7-2.4-0.1,4.1c1.9,1.7,1.5,3.6-0.2,4.2c-8.3,2.5-0.8-6.2-80.9,25.6
						c37.2,30.8,41.1,28,46.3,29.6c1.8,0.6,1.9,2.6,0.4,3.7c-2,1.5-2.8,2.2-11,5.7c8.6,4.9,21.1,13.4,48.3,16.8
						c4.6,0.6,11.4,1.2,9.9,5.1c-2,5.1-13.2,11.3-13,12.1c49.3,11.9,77.4,6.6,83.7,7.1c2,0.2,3.1,2.3,0.4,4.8
						c-3.1,2.9-9.2,7.8-4.5,9.5c16,5.6,43.6,4.1,57-3.7c-2.8-4.5-34-29.2-45.4-36C205.3,356.6,176.9,351.2,154.7,365.9z"/>
					<path class="st2" d="M217.6,285.5c-0.8,0.2-1.5,0.3-1.7,1.3c-0.3,1.3,1,1.6,1.5,2c30,22.8,34.2,39.4,39.5,53.3
						c1.1,2.9,3.5,1.5,3.4-0.1c-0.1-0.7-4.2-11.4-5.3-14C245.9,306.6,221.4,286.8,217.6,285.5z"/>
					<path class="st2" d="M116.4,387c1.7,0,2.3-2,1.1-2.8C115.8,383.1,113.8,386.1,116.4,387z"/>
					<path class="st2" d="M146.1,395.2c14.6,1.7,20.7,0.9,30.1-0.8c2.8-0.5,2.2-3.3,0.3-3.3c-0.1,0-17.5,3.5-30.1,1.2
						C144.4,391.9,143.4,394.3,146.1,395.2z"/>
					<path class="st2" d="M84.2,364.4c4.8,1.7,11.4,2.6,14.8,2.8c3.1,0.1,2.9-3,0.9-3.2c-10.2-1.2-18-2.2-25.9-8.8
						C72.4,353.7,66,356.8,84.2,364.4z"/>
					<path class="st2" d="M253.5,317.7c5.4,4.9,9,18.4,9.4,19.2c0.8,1.6,3.1,1,3-0.7c-0.1-3.7-6.4-18-10.6-20.7
						C253.8,314.6,252.3,316.6,253.5,317.7z"/>
					<path class="st2" d="M142.6,265.7c7.1-0.1,16.8,4.6,19.1,5.1c2,0.4,3-2.2,1-3C138.8,257.7,139.4,265.7,142.6,265.7z"/>
					<path class="st2" d="M138.8,392.6c1.7-0.2,2-2.6,0.2-3c-4.4-1.2-8.7-1.6-15.1-4c-1.3-0.5-2.4,0.8-1.9,1.7
						C123.2,389.8,137.8,392.7,138.8,392.6z"/>
					<path class="st2" d="M171.1,271.8c-2.3-0.8-3.2,2-1,2.7c6.8,2.4,10.4,5.2,11.6,6c2.1,1.3,3.7-1.4,1.8-2.7
						C179.8,275.3,176.3,273.5,171.1,271.8z"/>
					<path class="st2" d="M132.9,263.1c-0.6,1.8,2.2,2.7,2.7,0.9C136.2,262.2,133.5,261.4,132.9,263.1z"/>
					<path class="st2" d="M249.2,311.4c1.8,0.6,2.7-2.1,0.8-2.7C248.2,308.1,247.4,310.8,249.2,311.4z"/>
					<path class="st2" d="M222.3,335.7c-0.8,2,2.4,2.7,3.1,0.8C226,334.5,223,333.8,222.3,335.7z"/>
					<path class="st2" d="M98.1,295.1c1.7,0.6,3.1-2.2,1.2-2.9C97.5,291.5,96.3,294.4,98.1,295.1z"/>
					<path class="st2" d="M144.6,369.4c-0.6,1.8,2,2.7,2.7,0.9C147.9,368.5,145.2,367.5,144.6,369.4z"/>
				</g>
				<g>
					<path class="st2" d="M442.2,274c0.2-0.4,0.2-6.4-0.4-10c-1.7-10-5.6-18.7-13.7-25.3c-9.8-7.9-21.1-12-28.7-12.7
						c-3.1-0.3-7.7-0.1-8.8-0.3c-1-0.2-1.6-1.1-1.4-2.1c0.1-0.6,0.3-1.1,0.5-1.6c2.1-4.8,0.8-12.1-1.3-17
						c-5-11.7-14.9-17.8-16.9-20.4c-0.8-1-0.4-2.4,0.8-2.8c0.9-0.3,2.7-0.2,4.4-0.5c5.6-0.9,12.4-7.5,16.1-11.8
						c5.9-6.7,7.1-12.7,11.6-23.1c0.7-1.6,2.1-1.9,3.5-0.9c2.4,1.8,3.3,4.7,15.1,13.2c6.3,4.5,8.9,4.8,24.2,9.4c0.4-1,2-5.2,2.5-6.9
						c10-31.3-3.8-53.6-5.5-58.6c-0.6-1.8,0.6-3.2,2.4-2.8c2.5,0.5,5.9,1.9,9.2,1.3c2-0.4,4-0.7,5.9-1.3c7.4-2.2,13.8-6,19.7-10.9
						c3.5-2.9,6.6-6.3,9.6-9.8c0.5-0.6,1.2-1,2-0.8c2.7,0.7,0.3,4.6,4.2,14.4c3.3,8.5,13,20.3,25.2,27.2c2.1,1.2,4.2,2.4,6.2,3.6
						c0.2,0.1,0.3,0.2,0.5,0.3c0.7,0.3,1.2,0.7,1.6,1.4c1.3,2.3-0.8,2.4-2.1,3.5c-13,11.8-21.4,27.1-24.9,43.3
						c-0.5,2.2-0.9,4.5-1.4,6.8c0.6,0.4,1.1,0.9,1.7,1.3c6,3.8,16,5.2,23.1,5.9c7,0.7,14,0.2,20.8-1.5c3-0.7,12.4-3.5,12.7-3.7
						c0.6-0.5,1.3-0.5,2-0.3c2.5,0.5,1.2,2.8,1,3.8c-0.5,3.1-1.1,6.3-1.5,9.4c-3.1,24.1,11.5,28.8,14.4,33.5
						c0.8,1.3,0.2,2.7-1.3,3.1c-1.8,0.4-5.1-0.1-9.5,0.9c-20.2,4.4-29,25-27.1,46c0.2,1.9-2.3,2.7-3.2,0.7c-0.3-0.7-0.6-1.3-1-1.9
						c-3.4-4.7-7.7-8.6-12.7-11.6c-9-5.4-21.4-8.1-31.9-8.3c-8.8-0.1-14.3,1.2-22.7,4.3c-11.8,4.3-15.9,9.9-21.2,15.8
						c-1.4,1.6-4.9,11.6-13,24.8c-3.8,6.2-8,12.3-12.1,18.4c-1.2,1.8-3.4,0.5-3-1c0.1-0.6,0.3-0.9,4-6.2
						c11.3-16.4,15.1-25.1,20.5-36.5C442,275.2,441.9,274.6,442.2,274z M452.8,264.9c6.8-5.7,19.3-10,27.9-11.3
						c7.3-1.1,16.6-0.4,23.9,1.1c11.7,2.5,22,7.1,30.1,16.3c0.1,0.2,0.3,0.3,0.6,0.6c0.8-28.9,17.1-43.7,37.1-44.2
						c-3.2-3-4.3-3.9-5.7-5.3c-12.7-13.2-6.3-33.7-5.9-37.7c-6,1.5-16.5,6-30.5,5.1c-8.7-0.5-23.9-2.5-30-8.6
						c-0.7-0.7-1.1-1.6-0.8-2.7c1.2-5.8,2.3-11.6,4.3-17.1c3.8-10.4,9-19.8,16.3-28.1c2.1-2.4,4.6-4.5,7.2-6.8
						c-1.4-0.8-2.7-1.7-4-2.4c-9.7-4.8-19.6-13.9-25.7-23.9c-3.8-6.2-4.6-10.8-5.7-16.4c-3.8,4.1-8.5,9.4-17.7,14.6
						c-5.3,3-10.9,5.1-16.9,6.1c-4.6,0.8-8.2-0.8-8.7-0.6c1,2.3,3.4,7.2,5.2,13.4c5,17.3,4,33.6-2.4,50.2c-0.5,1.2-1.1,2.4-1.7,3.6
						c-0.2,0.3-0.5,0.6-0.8,0.9c-0.6,0.5-1.4,0.4-2.1,0c-2.2-1.5-6.1-1.6-17.3-5.7c-5.9-2.2-16.5-10.3-22.4-17.1
						c-3.8,8-4.5,19.7-22.6,32.6c-3.9,2.8-7.1,2.9-7.6,3.1c0,0-0.1,0.1-0.3,0.2c0.2,0.1,0.5,0.2,0.7,0.4c2.8,2.6,11.3,9.6,15,20
						c2.1,5.8,2.3,10.3,1.7,14.3c-0.1,1-0.4,1.9-0.6,3c0.4,0,0.8,0,1.2,0c13.4-0.4,27.4,6.4,36.7,14.4c1.6,1.4,3.2,2.9,4.7,4.3
						c0.2,0.2,0.3,0.5,0.5,0.8c1.2,2.2,6.1,7.9,8.3,19c0.3,1.4,0.3,2.9,0.7,4.2c0.3,0.9,0.2,1.8,0.3,2.8c0.6-0.9,7-18,7.3-19
						c0.3-0.7,0-1.6,0-2.4c-0.5-6.3-2.6-12.2-5.5-17.8c-4.2-8.2-9-15.9-15.1-22.9c-3.3-3.8-10.9-5.1-15.8-5c-1.1,0-2.1,0.2-3.2,0.5
						c-2.3,0.5-2.7-2.1-1.1-2.7c5.4-2,12.3,0.1,12.9-0.1c-1.1-1.2-7-6.1-12.9-9.5c-1.5-0.9-3.1-1.6-4.9-1.7c-1.6-0.1-2-3.1,0.9-2.9
						c5.1,0.4,13.8,6.9,17.7,10.3c5.5,4.8,8.2,8.2,9.5,9.6c-0.1-2.8-0.5-6.9,1.4-15.6c0.1-0.7,0.5-1.4,0.8-2
						c0.8-1.4,3.1-0.3,2.5,1.2c-1.2,3.1-1.8,10.6-1.5,14.8c0.2,3.4,0.9,6.6,2.8,9.4c15.6,23.3,13.3,31.2,14.3,28.5
						c8-23.2,13.5-39.9,16.7-61.7c0.5-3.6,0.9-4.1-0.5-9.7c-1.4-6.1-5.5-13.1-7.4-15.3c-1.3-1.5,0.8-3.4,2.2-1.9
						c2.2,2.4,5.6,8,7.3,12.7c0,0.1,0.1,0.2,0.3,0.3c0.4-2.8,5-39.8,4.5-42.5c-0.3-2,2.3-2.4,2.8-0.8c0.2,0.5,0.2,1.1,0.2,1.7
						c-0.2,6.6-2.1,24.9-2.1,25c2.7-4.1,5.6-8.2,11-12.1c0.9-0.6,1.7-0.6,2.3,0.1c0.5,0.7,0.4,1.6-0.5,2.2
						c-4.1,3.1-7.3,6.9-9.9,11.3c-4.4,7.5-4.1,8.1-4.5,10.8c-0.6,4.7-1.3,9.4-1.8,14.1c-0.1,1.4-0.5,2.8-0.7,4.2
						c-2.5,18.3-7.3,34.1-13,51.1c0.3-0.1,0.5-0.2,0.7-0.3c11-5.4,20.1-7.4,30.1-9.9c1.1-0.3,1.9-0.9,2.7-1.5c3.2-2.7,6.3-5.6,8.8-9
						c1.9-2.6,2.2-2.9,2.8-4.2c0.9-1.9,3.3-0.7,2.7,1c-0.9,2.8-5.7,8.6-8.2,11c-0.3,0.3-0.7,0.7-1,1.1c10.9-1.8,26.4-4,37.2-1.1
						c1.9,0.5,3.7,1.4,5.5,2.2c1.8,0.8,0.7,3.4-1.2,2.6c-0.6-0.2-1.2-0.5-1.7-0.7c-6.4-3-18.8-2.4-26-1.7c-0.1,0-0.3,0-0.4,0.2
						c5.4,3.9,6.5,5.6,9,9.7c1.2,1.9-1.5,3.4-2.5,1.5c-1.9-3.7-6.5-8.2-12.3-10.4c-0.3-0.1-0.7-0.1-1-0.1c-13.2,2.3-34,6.1-46.4,14
						c-1.1,0.7-0.7,2.8-11.8,31.7c-0.2,0.5-0.2,0.4-0.1,0.5C450.7,266.7,451.7,265.8,452.8,264.9z"/>
					<path class="st2" d="M560.3,241.6c-4,2.4-7.2,5.7-9.5,9.8c-3.3,5.7-3.4,7.9-4.3,9.6c-1.1,2.3,2.2,3.8,3.1,1.3
						c1-2.6,2.7-9.6,8.6-15.2c4.5-4.3,7.5-4.6,11.5-5.5c1.9-0.4,1.6-2.9-0.4-2.9C568.9,238.8,563.5,239.7,560.3,241.6z"/>
					<path class="st2" d="M443.4,134.5c-1.5-9.8-2.9-20.5-8.7-28.5c-0.4-0.5-0.7-1-1.1-1.4c-1.3-1.4-3.4,0.3-2.2,1.9
						c5.8,7.5,7.4,19.6,8.7,28.8c0.3,2.1,2.7,2,3.1,0.2C443.3,135.1,443.4,134.8,443.4,134.5z"/>
					<path class="st2" d="M400.2,234.5c6.8-0.3,17.6,4.3,20.5,8.2c1.3,1.7,3.3,0.2,2.9-1.2c-0.1-0.5-0.4-1.1-0.8-1.5
						c-2.1-2-4.4-3.7-7-5c-4.1-1.9-8.4-3.2-12.9-3.5c-1.6-0.1-3.3,0.1-5,0.2c-1.9,0.2-2,3,0.4,2.9
						C399,234.6,399.6,234.5,400.2,234.5z"/>
					<path class="st2" d="M530.8,117.2c1.7-0.3,1.6-2.6,0.2-2.8c-1.2-0.2-2.1-0.8-3.1-1.3c-5.5-2.6-8.5-5.9-13.1-10.4
						c-2.3-2.2-2.8-3.3-4.2-3.8c-1.3-0.4-2.7,1.4-1.5,2.6c6.8,6.9,9.9,10.8,17.8,14.4c2.4,1.1,1.3,0.7,3.4,1.3
						C530.4,117.1,530.4,117.2,530.8,117.2z"/>
					<path class="st2" d="M552.2,270.1c0.1,1.9,2.4,2.3,3.1,0.7c0.3-0.8,0.7-3.6,2.3-7.3c1.5-3.4,4-5.8,7.2-7.6
						c0.5-0.3,1-0.5,1.5-0.8c2-1.1,0.7-3.5-1.3-2.6c-10.3,4.5-11.2,11.7-12.8,17.3C552.2,269.8,552.2,270,552.2,270.1z"/>
					<path class="st2" d="M528.6,109.1c2,0,2.2-2.1,0.9-2.7c-3.2-1.4-5.3-3.7-11.1-9.1c-1.4-1.3-2.8-3-4.1-1.6
						c-0.7,0.7-0.6,1.7,0.2,2.5c0.6,0.6,1.3,1.3,2,1.9C519.5,102.7,524.7,107.9,528.6,109.1z"/>
					<path class="st2" d="M498,82.8c1.3,5.3,4.4,10.8,5.9,12.3c1.3,1.4,3.3-0.4,2.2-1.8c-2.2-3-4.4-8.2-4.7-10.7
						C501,80.2,497.9,80.2,498,82.8z"/>
					<path class="st2" d="M442.9,143.5c0-1.5,0.2-3.2-1.3-3.4c-0.8-0.1-1.6,0.5-1.6,1.4c-0.1,1.1,0,2.2-0.1,3.2
						c-0.6,6.1-1.2,6.8,0,7.5c1,0.7,2.3,0.1,2.5-1.4C443,142.7,443,143.5,442.9,143.5z"/>
					<path class="st2" d="M509.1,91.4c0,0.8,0.6,1.4,1.4,1.4c0.8,0,1.6-0.7,1.6-1.6c0-0.8-0.6-1.4-1.4-1.4
						C509.9,89.8,509.1,90.6,509.1,91.4z"/>
					<path class="st2" d="M548.2,271.2c0-0.8-0.7-1.4-1.5-1.4c-0.8,0-1.4,0.7-1.4,1.5C545.5,273.3,548.3,273.2,548.2,271.2z"/>
					<path class="st2" d="M427.3,246.1c-0.8,0-1.4,0.7-1.4,1.5c0,0.8,0.7,1.4,1.5,1.4C429.3,248.9,429.2,246,427.3,246.1z"/>
				</g>
				<g>
					<path class="st2" d="M385.2,565.1c-3.9,13-9,14.4-19.2,27.5c-1.3,1.7-3,1.2-3.5-0.2c-0.3-0.8-0.5-3.6-0.7-5.6
						c-1.2-14.5,5.7-24.8,20.3-28.3c-3-7.1-12.2-22.2-15.1-27c-5.5-9.2-8.6-11.8-9.5-13.4c-1.1-1.8,1-3.3,2.4-1.7
						c6.3,7.6,6.4,6.7,19.9,30.2c14.7-3.8,33-7.5,43.2,3.9c3.6,4.1,9.1,12.3,3.6,12.4c-0.3,0-27.8-2.8-27.9-2.8
						c-19.7-2.6-17.4-16.2-5.6,15.5c35.4-12.8,53.7,19.3,41.8,16.9c-12.2-2.4-17.9-1.6-26.6-3.7c-19.8-4.9-12-16.3-4.8,20.7
						c5.1-2,12.3-0.6,17.3,1.5c12,5,14.6,21.6,9,20.1c-1.2-0.3,1,0.4-16.9-8.5c-7.6-3.8-7.3-4.8-7.8-4.5c1.7,8.2,1.7,16.6,1.9,25
						c21.3,19.3-8.4,48-8.3,38.2c0-1.8,1.4-6.2,1.3-13.3c-0.1-8-4.2-19.9,3.8-24.8c-0.1-2.9-0.1-5.9-0.2-8.9
						c-5.2,5.6-12.1,12-12.1,12c-1.1,0.8-2.5,0.3-2.8-1c-0.3-1.1-0.1-7.3,1.1-10.9c2.1-6.1,7-8.4,13.5-8.3
						c-1.4-9.1-2.9-18.2-5.6-27.1c-0.3,0.4-1,2.4-1.9,4.1c-2.8,5.4-16.8,19.6-17.5,20.1c-1.1,0.8-2.5,0.4-3-0.9
						c-0.5-1.4-0.3-4.1-0.1-5.6c1.7-18.6,16-26.3,19.7-26.8C391.9,581.6,388.9,573.3,385.2,565.1z M422.7,555.5
						c-8.3-13-25.6-9.8-40.6-6.2c6.7,6.8,15.6,8.2,42.9,10.2C425.3,559.2,425.4,559.8,422.7,555.5z M395,578.4
						c11,10.1,24,7.6,39.2,10.6c0.5,0.1,0.3,0.3,0.5-0.1C421.8,569,395.2,577.1,395,578.4z M403.1,648.2c-3.2,6.7,1.2,8-0.7,30
						c0.5-0.5,3.2-3,6-7.5c6.3-10.5,1.2-21.6-3.3-24.8C404.1,646.4,403.5,647.3,403.1,648.2z M365.3,588.2
						c6.7-8,16.9-16.7,17.2-26.4C372,563.6,362.5,573.5,365.3,588.2z M404.4,612.7c2.4,4,6.6,5.1,24.9,14.6
						C426.7,610.9,408.8,610.8,404.4,612.7z M394.6,593.4c-11.9,5.2-16.8,17.8-16.4,25.1C384.5,611.5,397.2,600.4,394.6,593.4z
						 M391.8,641.3c6.4-6,9.2-8,10.7-11.7C398.3,628.3,391.5,632,391.8,641.3z"/>
					<path class="st2" d="M439.8,577.3c-3.9-5.2-9-8.1-15.3-9.8c-3.4-0.9-3.6,2.1-2,2.8c1.5,0.7,13.9,2.5,18.3,15.8
						c0.4,1.3,0.7,2.7,0.4,4.2C440.6,594.3,449.6,592.4,439.8,577.3z"/>
					<path class="st2" d="M375.9,595.2c-0.3,0.3-4.4,4.9-6.1,8.8c-1.5,3.4-1.6,4.4-2,12c-0.3,4.7,3.2,3.8,3,1.7
						c-1-13.2,6.5-18.4,7.6-20.6C379.1,595.6,377.4,594,375.9,595.2z"/>
					<path class="st2" d="M417.6,670.1c0.8-1.2,1.3-2.6,1.8-4c3.4-9.4,0.2-14.6-2.8-20.1c-1.1-2-3.8-0.7-3,1.3
						c1.5,3.5,6.4,8.8,2.7,18.6C415.2,668.8,414.4,670.6,417.6,670.1z"/>
					<path class="st2" d="M354.1,562.5c-0.6,1.6,1.4,3.1,2.7,1.1c5.3-8.1,13.6-9.3,14.9-10.1c1.3-0.8,0.9-2.5-0.2-2.8
						c-1.5-0.5-7.4,2.2-8.8,3.1C361.2,554.6,355.3,559.4,354.1,562.5z"/>
					<path class="st2" d="M357.2,578.3c0.8-1.9-0.1,0,1.4-4.3c2.2-6.2,5.5-9,7.7-12c1.9-2.6-1.1-4-2.1-2.6
						c-4.5,5.9-8.4,9.9-9.4,17.8C354.6,578.3,355.9,579.3,357.2,578.3z"/>
					<path class="st2" d="M432.2,611.6c-1.4-1.8-3.9,0.1-2.6,1.9c4,5.9,6,8.3,4.9,15.3c-0.3,2,2.2,2.5,2.8,0.8
						C439.4,623.4,436,616.4,432.2,611.6z"/>
					<path class="st2" d="M383,538c-2.2,2.1,0,3.5,1.3,2.7c5.2-3.2,9.9-3.2,15.4-3.4c2.3-0.1,2.8-3.5-1.2-3.3
						C388.5,534.5,382.9,537.8,383,538z"/>
					<path class="st2" d="M416.2,536.6c-6.9-3.6-6.5,0.8-4.6,1.3c6.2,1.7,10,7.5,11.2,8.3c1.4,0.9,3-0.7,2.1-2.1
						C424.2,542.9,420.8,539,416.2,536.6z"/>
					<path class="st2" d="M426.2,606.4c-3.4-2.4-13.3-5.6-12.3-1.6c0.6,2.2,2.6,0,9.7,3.4c0.4,0.2,0.7,0.4,1.1,0.6
						C425.9,609.2,427.3,607.9,426.2,606.4z"/>
					<path class="st2" d="M442.4,597.2c1.7-1.2-0.2-3.8-1.9-2.5C438.9,596,440.8,598.5,442.4,597.2z"/>
					<path class="st2" d="M410.3,639.9c-1.6,1.2,0.4,3.5,1.9,2.3C413.8,641.1,411.9,638.8,410.3,639.9z"/>
					<path class="st2" d="M354.2,568.1c-1.2-1.5-3.6,0.2-2.4,1.7C353,571.3,355.4,569.7,354.2,568.1z"/>
					<path class="st2" d="M406.1,534.7c-1.5,1.1,0.2,3.3,1.6,2.2C409.1,535.9,407.6,533.6,406.1,534.7z"/>
				</g>
				<g>
					<path class="st2" d="M263.4,253.6c-3.7-13.1-0.1-17,1.5-33.5c0.2-2.1,1.9-2.6,3.1-1.7c0.7,0.5,2.4,2.8,3.6,4.4
						c8.8,11.6,8.5,24-2,34.8c6.4,4.3,22.2,12.2,27.2,14.7c9.6,4.8,13.6,5.4,15.2,6.2c1.8,0.9,0.9,3.3-1.1,2.7c-9.3-3-9-2.3-33-14.9
						c-10.4,11.1-23.9,24-38.5,19.9c-5.2-1.5-14.3-5.5-9.7-8.5c0.2-0.1,25-12.5,25-12.6c18-8.3,23.4,4.3-3.6-16.1
						c-23,29.8-55.6,12.5-44.3,8.2c11.6-4.5,16-8.3,24.4-11.1c19.3-6.5,18.9,7.3-7.1-20.1c-3.3,4.4-10.1,7.1-15.5,8
						c-12.8,2.2-23.9-10.4-18.4-12.2c1.2-0.4-1.1,0.2,18.8-1.9c8.4-0.9,8.7,0.1,9-0.4c-5.9-6-10.4-13.1-15-20.1
						c-28.3-4.9-18.6-45-13.5-36.7c1,1.6,2.2,6,6,11.9c4.4,6.7,14.2,14.5,10.1,23c1.6,2.4,3.3,4.9,4.9,7.4
						c1.4-7.5,3.8-16.6,3.8-16.7c0.5-1.3,1.9-1.6,2.9-0.7c0.9,0.8,4,6.1,4.9,9.7c1.6,6.3-1.3,10.9-6.9,14.2
						c6.1,6.9,12.2,13.8,19.3,19.8c0.1-0.5-0.4-2.6-0.6-4.5c-0.6-6,3.7-25.5,4-26.4c0.5-1.3,1.9-1.7,3-0.8c1.1,0.9,2.4,3.3,3.1,4.6
						c8.5,16.6,0.6,30.7-2.2,33.2C248.9,243.2,255.9,248.6,263.4,253.6z M236.9,281.7c14,6.5,26.9-5.4,37.6-16.5
						c-9.3-2.1-17.6,1.4-41.7,14.5C232.7,280,232.3,279.6,236.9,281.7z M248,247.5c-14.7-2.6-24.3,6.5-38.8,12.1
						c-0.5,0.2-0.4-0.1-0.4,0.3C230.4,269.8,248.5,248.7,248,247.5z M203.8,193c-0.9-7.4-5.3-6.1-15.5-25.7c-0.2,0.7-1.1,4.2-1,9.6
						c0.3,12.2,10.6,18.9,16,19.2C203.8,195,203.9,194,203.8,193z M267.8,223.4c-1.3,10.3-5.3,23.2-0.3,31.5
						C275.3,247.7,278.1,234.2,267.8,223.4z M221.7,223.7c-4.1-2.1-8.4-0.8-28.9,1C203.8,237.1,219,227.6,221.7,223.7z M240.3,234.7
						c7.3-10.8,4.7-24,0.4-30C239.1,214,234.3,230.2,240.3,234.7z M216.9,192.7c-2.2,8.5-3.5,11.7-2.7,15.7
						C218.5,207.2,222.2,200.4,216.9,192.7z"/>
					<path class="st2" d="M210.8,272.5c6.1,2.2,12,2,18.2,0.1c3.4-1.1,1.9-3.7,0.1-3.4c-1.6,0.2-13,5.3-23.9-3.5
						c-1.1-0.9-2-1.9-2.6-3.3C201,258.6,194.4,265,210.8,272.5z"/>
					<path class="st2" d="M255.1,223.1c0.1-0.4,1.1-6.5,0.4-10.7c-0.6-3.6-1-4.5-4.7-11.3c-2.3-4.1-4.7-1.5-3.5,0.2
						c7.9,10.6,4.4,19,4.7,21.5C252.2,224.5,254.4,224.9,255.1,223.1z"/>
					<path class="st2" d="M179.7,182.2c0,1.5,0.3,2.9,0.6,4.4c2.2,9.8,7.7,12.4,13.2,15.5c2,1.1,3.6-1.4,1.8-2.7
						c-3.2-2.2-10.1-4-12.2-14.3C182.5,182.1,182.1,180.1,179.7,182.2z"/>
					<path class="st2" d="M291.1,239c-0.3-1.7-2.8-1.9-2.9,0.5c-0.1,9.6-6.5,15.2-7.2,16.5c-0.7,1.3,0.5,2.6,1.7,2.3
						c1.5-0.4,5-5.8,5.8-7.3C289.3,249.5,291.7,242.3,291.1,239z"/>
					<path class="st2" d="M280,227.3c0.3,2,0.1-0.1,1.1,4.4c1.5,6.4,0.2,10.5-0.1,14.3c-0.2,3.2,3,2.8,3.2,1
						c0.7-7.4,1.7-12.8-1.6-20.1C282.2,226,280.6,225.8,280,227.3z"/>
					<path class="st2" d="M198.8,239.5c2.1,0.7,3.2-2.1,1.2-3c-6.6-2.9-9.5-3.8-12.4-10.3c-0.8-1.9-3.2-0.9-2.8,0.9
						C186.4,233.4,193,237.5,198.8,239.5z"/>
					<path class="st2" d="M279.8,275.2c0.7-2.9-1.9-2.9-2.5-1.6c-2.7,5.5-6.6,8.1-11.2,11.2c-1.9,1.3-0.5,4.5,2.8,2.1
						C277.1,281.1,280,275.3,279.8,275.2z"/>
					<path class="st2" d="M252.5,294.2c7.7-0.7,5-4.2,3.1-3.6c-6.2,1.9-12.4-1-13.9-1c-1.7,0-2.2,2.2-0.7,2.9
						C242.4,293.2,247.4,294.7,252.5,294.2z"/>
					<path class="st2" d="M206.7,240.7c4.2,0.2,14.2-2.4,11.2-5.3c-1.6-1.5-2.2,1.4-10,2.3c-0.4,0.1-0.8,0-1.2,0.1
						C205.4,238.1,204.9,240,206.7,240.7z"/>
					<path class="st2" d="M197.9,257.1c-0.7,2,2.2,3.1,3,1.1C201.5,256.3,198.6,255.1,197.9,257.1z"/>
					<path class="st2" d="M202.1,203.8c0.7-1.9-2.2-2.7-2.9-1C198.5,204.7,201.4,205.7,202.1,203.8z"/>
					<path class="st2" d="M287.9,234.4c1.8,0.7,2.9-2.1,1.1-2.7C287.2,231,286.1,233.7,287.9,234.4z"/>
					<path class="st2" d="M262.1,290.3c0.7-1.7-1.9-2.7-2.6-1C258.9,291,261.4,292.1,262.1,290.3z"/>
				</g>
				<g>
					<path class="st2" d="M578.4,485.8c-1.3-2.5-3.8,2-10.9-3c-2.4-1.7-4,1.4-2.1,2.7C573.2,490.6,579.7,488.4,578.4,485.8z"/>
					<path class="st2" d="M531,428.7c8.9-2,17.9-3.1,27-3.3c0.4-10.2,11.9-9.8,14.4-3.2c3,7.9-7.3,13.8-13.1,6.6
						c-14.6,0.2-28.8,2.9-42.6,7.8c2.1,0.6,12.5-2.7,47.5,5.2c1.5,0.3,1.4-0.5,11.1-3.9c1.2-5.2,8.9-14.3,12.3-18.4
						c-9.1-6.7-0.3-19,8.8-16c9.7,3.2,5.9,18-5.2,17.2c-4.5,5-8.8,10.1-12.1,16c6.3-1.3,12.4-2.5,18.6-3.8c-1-4.9,2-8.7,5.9-9.8
						c9.1-2.6,15.5,9,8,14.7c-3.3,2.5-8.5,2.4-11.9-1.2c-3.1-0.5-27.1,4.9-29.4,6.7c8.8,2.2,17.3,5.2,25.8,7.9
						c6.3-10.3,21.5-3.6,18.5,7.3c-3.1,11.7-20.9,8.4-19.6-4c-16.7-5.9-33.6-10.7-51.1-13c0.8,0.9,8.2,6,14.5,13.1
						c2.8,3.1,4.7,5.5,10.3,12.3c7.4-8.1,17-3.9,17.5,3.9c0.8,13-19.3,16.1-19.7,3.2c0-1.3,0.2-2.5,0.4-3.9
						c-5.7-7-11.2-14.4-18.3-20.2c-4.1,17.1-5.3,11-2.4,14.9c7.4,9.6-8.4,18.3-14.9,8c-3.6-5.8,0.7-13.5,9.9-11.5
						c1.6-2.7,5.8-13,3.2-15c-1.3-1-6.1-5.7-10.2-6.1c-30.8-2.7-60.7,8-60.7,8c-2,0.3-2.6-2.2-0.8-2.9c8.3-3.2,14.2-5.3,34-7.8
						c7.2-3.9,11-4.9,18.5-7.4c0.4-0.5,0.6-1,1-1.4c15-14,15.5-11,14.5-12.8c-4.8-8.6,6.1-17.6,11.5-9.6c4.2,6.3-1.3,15.5-8.2,12.6
						C539.2,421.7,535.1,425.2,531,428.7z M606.8,462c8.2-2.4,4.5-14.7-3.8-12.3C594.6,452.2,598.5,464.5,606.8,462z M575.6,478.8
						c9.3-0.7,9.5-15.4-0.8-12.4C567.7,469.1,568.2,479.4,575.6,478.8z M591.4,417.2c3.2,0.4,6.5-2,7.1-5.2c0.6-3.4-2.3-6.1-5.8-5.5
						C586,407.7,585.4,416.4,591.4,417.2z M603.6,426.7c-5.2,2.7-2,10.5,4.2,9.1C615,433.4,610,423.4,603.6,426.7z M539.9,473.9
						c8.9-0.8,2.9-12.6-4.3-9C530.8,467.4,534.3,474.4,539.9,473.9z M544.4,415.2c3.4,3.6,8.1-3.8,4.3-7.6
						C545.2,404.2,540.7,411.2,544.4,415.2z M564.2,421c-5,1.5-2.5,8.8,2.6,7.4C571.7,426.9,569.2,419.6,564.2,421z"/>
					<path class="st2" d="M618.5,464.4c0.9-1.7-1.8-3.2-2.7-1.4c-2,4.1-8.9,7.6-16.1,3.3c-2.2-1.3-4,2-1.7,3.2
						C606.6,474,614.9,471.1,618.5,464.4z"/>
					<path class="st2" d="M554.5,467.1c-0.8-1.8-0.8-2.1-1.2-2.5c-1.2-1.3-3.2-0.2-2.5,1.6c2.3,5.9,0.1,7.9-4.6,12.2
						c-1.9,1.8,0.6,4,2.2,2.7C552.6,477.3,556.3,472.4,554.5,467.1z"/>
					<path class="st2" d="M540,479.3c-3.6,0.4-6-1.4-8.9-3.5c-1.9-1.4-3.9,1.6-1.9,2.9C542.5,487.3,543.4,478.9,540,479.3z"/>
					<path class="st2" d="M594.9,473.3c2,2,3.9,4.1,7,4.5c7.1,0.8,6.1-3.6,3.7-3.4c-4.6,0.5-4.2,0.4-7.8-2.9
						C595.8,469.7,593.7,472,594.9,473.3z"/>
					<path class="st2" d="M533.3,415c0.9,1.8,3.5,0.7,2.8-1.2c-0.8-2.3,0.2-4.6,1.3-7c1-2.2-1.4-3.4-2.8-1.7
						C533.9,406.1,531.7,411.4,533.3,415z"/>
					<path class="st2" d="M566.5,411.8c-2.5-0.1-2.7,3.6-0.2,3.3c3.5-0.3,4.7,0.3,6.8,1.7C575.9,418.6,578.8,412.3,566.5,411.8z"/>
					<path class="st2" d="M525.9,469.4c-2,0.7-1.1,3.8,0.9,3.1C528.6,471.8,527.9,468.7,525.9,469.4z"/>
					<path class="st2" d="M563.4,479.1c2-0.6,1.1-3.5-0.9-2.9C560.5,476.8,561.4,479.7,563.4,479.1z"/>
					<path class="st2" d="M540.1,399.3c-1.9,0.6-1.1,3.5,0.8,3C542.8,401.8,542.1,398.8,540.1,399.3z"/>
					<path class="st2" d="M558,416.2c0.6,2,3.5,0.9,2.9-0.9C560.3,413.4,557.4,414.3,558,416.2z"/>
					<path class="st2" d="M605.7,456.7c0.6,2,3.4,1,2.8-0.9C607.9,453.9,605.1,454.8,605.7,456.7z"/>
					<path class="st2" d="M577.1,473.7c0.6,2,3.4,1.1,2.9-0.8C579.5,471,576.6,471.8,577.1,473.7z"/>
					<path class="st2" d="M594.9,409.1c-0.7-2.1-3.8-1.1-3.2,1C592.4,412.2,595.6,411.3,594.9,409.1z"/>
					<path class="st2" d="M608.8,429.9c-0.5-1.9-3.4-1.1-2.8,0.8C606.4,432.6,609.3,431.8,608.8,429.9z"/>
					<path class="st2" d="M541.4,469c-3-0.5-2.8,3.2-0.4,3C543.2,471.9,543.3,469.3,541.4,469z"/>
					<path class="st2" d="M546.3,410.1c-1.7,0.5-1,3.2,0.8,2.7C548.9,412.2,548,409.6,546.3,410.1z"/>
					<path class="st2" d="M564.1,426.1c0.5,1.9,3.5,1.2,3-0.7C566.6,423.5,563.5,424.1,564.1,426.1z"/>
				</g>
				<g>
					<path class="st1" d="M354.9,170.5c-1.7,2.1,3.2,2.5,1.5,10.6c-0.6,2.7,2.7,2.9,3.1,0.8C361.1,173.1,356.7,168.4,354.9,170.5z"
						/>
					<path class="st1" d="M323.2,233.2c-5.1-7-9.4-14.4-13.1-22.1c-9,3.5-13-6.6-8.2-11.3c5.7-5.6,14.8,1.1,10.7,8.9
						c5.7,12.6,13.3,23.9,22.8,34c-0.2-2.1-7.1-9.9-13.5-43.2c-0.3-1.4-1-1.1-7.6-8.2c-5,0.9-15.8-2.3-20.6-3.8
						c-2.4,10.4-16.4,7.5-17.2-1.6c-0.9-9.6,13.4-11.9,16.9-2c6,2.1,12.1,3.9,18.4,4.5c-3.5-5-6.9-9.9-10.3-14.7
						c-3.9,2.7-8.3,1.5-10.7-1.4c-5.7-6.9,2-16.8,9.7-12.5c3.5,1.9,5.3,6.5,3.5,10.8c0.7,2.9,14.5,21.7,16.9,23
						c-1.4-8.4-2-16.9-2.8-25.4c-11.4-1.6-11.2-17.3-0.6-18.9c11.3-1.7,15.2,14.9,4,18.5c1.1,16.7,3.4,33.2,8,49.3
						c0.5-1,2.1-9.4,5.9-17.5c1.7-3.6,3-6.2,6.8-13.6c-9.8-3.4-9.8-13.3-3.2-16.6c11-5.6,21.3,10.6,10.2,15.9
						c-1.1,0.5-2.3,0.8-3.5,1.2c-3.9,7.6-8.3,15.2-10.6,23.5c16.4-2.9,11.6,0.5,13.8-3.6c5.6-10,19.1,0.4,12.6,9.9
						c-3.7,5.3-12,4.5-13.7-4.3c-3-0.4-13.5-0.1-14.2,2.8c-0.4,1.5-2.7,7.4-1.4,11.1c9.3,27.7,29.8,49.6,29.9,49.7
						c1,1.6-1,3.1-2.2,1.8c-5.9-6-10-10.4-19.6-26.6c-6.1-4.8-8.4-7.7-13.4-13.2c-0.6-0.1-1.1-0.2-1.6-0.4
						c-17.8-7.8-15.4-9.3-16.6-7.8c-5.6,7.5-17.6,1.3-12.6-6.3c3.9-6,13.9-4.7,14.1,2.3C314.1,228.7,318.7,230.9,323.2,233.2z
						 M323.6,154.8c-5.2-6.2-14.5,1.6-9.2,8C319.6,169.1,328.8,161,323.6,154.8z M349.9,175.5c-4.2-7.8-17-2.4-10.4,5.4
						C344.5,186,353.2,181.7,349.9,175.5z M290.4,185.1c-0.8-3-4.2-4.9-7.2-4.2c-3.2,0.8-4.5,4.3-2.6,7.1
						C284.3,193.3,292,190.6,290.4,185.1z M294.1,170.9c4.4,3.5,9.9-2.3,6.3-7.1C295.6,158.4,288.8,166.6,294.1,170.9z M359.1,208.4
						c-4-7.4-12,2.3-6.2,7.1C356.9,218.8,361.6,213.1,359.1,208.4z M306.5,226.6c1.8-4.3-6.4-5.6-8.2-0.8
						C296.6,230.1,304.4,231.4,306.5,226.6z M304.1,207.3c3.1,3.8,8.6-1.2,5.4-5C306.3,198.5,300.9,203.5,304.1,207.3z"/>
					<path class="st1" d="M321.2,143.8c-1.8-0.1-2.1,2.7-0.2,2.8c4.3,0.2,9.9,4.9,8.9,12.7c-0.3,2.4,3.2,2.7,3.4,0.3
						C334,150.5,328.4,144.3,321.2,143.8z"/>
					<path class="st1" d="M347.7,198.3c-1.3,1.4-1.5,1.5-1.7,2c-0.7,1.5,1.1,2.9,2.3,1.6c4.3-4.2,6.8-3,12.3-0.6
						c2.2,1,3.3-2,1.5-2.9C357.3,196,351.6,194.7,347.7,198.3z"/>
					<path class="st1" d="M363.8,206.2c1.7,2.9,1.1,5.7,0.3,9c-0.5,2.2,2.8,2.7,3.2,0.5C369.8,201.1,362.1,203.4,363.8,206.2z"/>
					<path class="st1" d="M337.8,160.9c1-2.5,2.1-5,1.3-7.7c-2-6.4-5.4-3.9-4.3-2c2.2,3.8,2,3.5,0.4,7.9
						C334.3,161.4,337.2,162.4,337.8,160.9z"/>
					<path class="st1" d="M310.5,236.4c1.3-1.4-0.7-3.3-2.1-2c-1.7,1.6-4.1,1.5-6.6,1.5c-2.3,0-2.4,2.5-0.4,3.1
						C302.5,239.2,308,239.1,310.5,236.4z"/>
					<path class="st1" d="M295.2,208.8c0.9,2.2,4.1,1,3-1.1c-1.6-2.9-1.5-4.2-1.1-6.5C297.6,198,290.9,197.9,295.2,208.8z"/>
					<path class="st1" d="M360.5,222.2c1.4,1.5,3.7-0.5,2.3-1.9C361.5,219,359.2,220.8,360.5,222.2z"/>
					<path class="st1" d="M354.8,186c-1.3-1.5-3.4,0.4-2.2,1.8C353.8,189.4,356,187.5,354.8,186z"/>
					<path class="st1" d="M294.3,236.3c1.2,1.4,3.5-0.4,2.3-1.8C295.4,233.1,293.1,234.8,294.3,236.3z"/>
					<path class="st1" d="M302.2,214.5c1.5-1.3-0.5-3.4-1.9-2.2C298.9,213.5,300.8,215.7,302.2,214.5z"/>
					<path class="st1" d="M319.4,157.8c1.5-1.3-0.4-3.3-1.8-2.1C316.1,156.9,317.9,159,319.4,157.8z"/>
					<path class="st1" d="M344.9,176.1c1.5-1.2-0.3-3.3-1.8-2.2C341.7,175.1,343.4,177.3,344.9,176.1z"/>
					<path class="st1" d="M282.1,185.1c-1.6,1.4,0.5,3.7,2,2.4C285.7,186.1,283.7,183.7,282.1,185.1z"/>
					<path class="st1" d="M295,165.2c-1.5,1.2,0.3,3.3,1.7,2.2C298.2,166.2,296.4,164,295,165.2z"/>
					<path class="st1" d="M354.3,208.9c0.7,2.8,3.8,1.2,2.8-0.8C356.2,206.3,353.9,207.2,354.3,208.9z"/>
					<path class="st1" d="M301.4,226.9c1.1,1.3,3.1-0.4,2-1.7C302.2,223.9,300.3,225.6,301.4,226.9z"/>
					<path class="st1" d="M308.5,205.4c1.5-1.2-0.3-3.4-1.8-2.3C305.3,204.3,307,206.7,308.5,205.4z"/>
				</g>
				<g>
					<path class="st1" d="M511.1,316.6c11.7-16.5,21.4-32.3,33.9-30.3c5.4,0.9,9.1,5,8.1,12.3c-0.9,6.4-7.7,13.4-2.5,12.4
						c15-3,28.1-25.4,38-26.7c4.8-0.6,7.5,2.6,7.1,7.3c-1.1,13.1-16.2,19.6-11.8,19.8c10.2,0.5,13.1-2.9,34.7-8
						c18.9-4.4,24.8,4.8,16.6,12.4c-13.9,13-40.3,12.5-53.4,21.3c6.2,3.7,10.8,2.8,18,6.4c5.3,2.6,8.3,7.1,4,10.3
						c-10.9,8.4-43.6,3.2-51.5,4.7c-6.2,1.2,4.3,11.8,4.8,16.5c1.5,14.4-40.4,5.8-60.1-19.8c-11.7-15.3,11.8-3.7-40.9-11.3
						c-4.7-0.7-3.4-3.7-1.4-3.5c3.8,0.4,18,3.4,38.3,3.1C494.1,336.7,501.3,330.4,511.1,316.6z M505,341.7c8.9-5.1,15-5.1,14.9-19.8
						c0-4.6,3.4-3.3,3.3-1.5c-0.6,9.2-0.6,7.6-1,9.4c3.4-3.3,6.9-7.2,11.2-13.5c1.5-2.2,3.5-0.3,2.7,1.2
						c-4.9,8.2-13.1,17.2-22.1,23.4c25.1-4.9,62.1-18.1,62.1-18.2c2-0.8,3,1.9,1.2,2.6c-3.6,1.6-18.4,6.8-29.9,10.3
						c10.4,1.2,16.2,3.5,24.4,10.1c1.7,1.3,0,3.5-1.7,2.3c-2.3-1.6-7.2-5.6-13.7-7.4c0.6,2,0.8,1.9,1,5.1c0.2,2-2.8,2.4-3.1,0.4
						c-0.4-2.4,0.4-2.7-2.2-6.6c-15.1-2.2-16.5-0.2-28.1,2.5c-29,6.6-29.2,2.7-27.1,6.6c4.1,7.9,28.4,31.5,51.2,29.9
						c10.3-0.7,4.4-5.7,0.1-13.7c-1.9-3.5-1.4-8.6,3.4-9.5c9.9-2,39.3,3.8,50.4-4.2c2.5-1.8-3.3-5.5-11.7-7.5
						c-5.8-1.4-14.8-4.2-10.8-8.7c6.8-7.7,38-9.2,52.3-20.4c9.2-7.3,0.9-10.6-12.3-8c-14.6,2.9-30.6,10.7-37.8,7.6
						c-6.5-2.9,2.8-7.6,7.8-14.9c3.1-4.5,5-12.4-0.5-11.7c-7.9,1.1-28.9,30.2-40.5,26.4c-2.2-0.7-3.4-2.6-3-4.9
						c0.6-3.5,5.6-8.5,4.4-14.6c-1-5.3-7.6-6.2-12.4-3.7c-6.7,3.6-14.6,14.6-19,20.9c-16,23.1-19,23.8-22.3,31.7
						C503.6,342.5,503.4,342.7,505,341.7z"/>
					<path class="st1" d="M574.9,285c-1.3,1.6,0.6,3.8,2.4,2.2c3.7-3.3,9.9-8.3,16-6.7c0.5,0.1,2.1,0.8,2.5,1.3
						c1.3,1.9,3.6,0,2.5-1.6C593.7,273.9,580.4,278,574.9,285z"/>
					<path class="st1" d="M605.9,354.7c-4.8,3.8-5.6,5.7-20.2,6.7c-2.2,0.2-2,2.9-0.3,3.1c6.4,0.9,18.2-2.2,22.3-7.7
						C608.5,355.8,607.5,354.1,605.9,354.7z"/>
					<path class="st1" d="M641.6,318.2c3.4-4.4-0.3-5.4-1.3-3.4c-2.2,4.3-12,9.4-15.3,10.9c-2.2,1-1,3.4,0.8,3.1
						C627.2,328.6,638,322.9,641.6,318.2z"/>
					<path class="st1" d="M489,337.5c0.7,1.9,2.5,1.5,2.9,0c3-12.2,11.4-15.5,8.2-17.6c-0.8-0.6-1.8-0.1-2.4,0.6
						C493.8,325.1,489.6,331.4,489,337.5z"/>
					<path class="st1" d="M504.2,312c-1.9,2.3,0.7,3.8,2,2.3c5.6-6.7,6.2-6.9,5.5-8.2C510.2,303.7,508.1,307.1,504.2,312z"/>
					<path class="st1" d="M618.8,331c1.5-0.9,0.6-3.1-1.1-2.6c-7.4,1.9-7.7,1-8.1,2.4c-0.9,3.3,5.2,1.4,8.5,0.7
						C618.1,331.2,618.1,331.4,618.8,331z"/>
					<path class="st1" d="M570,289.4c-1.3,1.6-2.6,3.3-3.9,4.9c-0.9,1.2,0.1,2.8,1.2,2.5c0.9-0.2,0.9-0.3,4.8-5.4
						C573.4,289.7,571.1,288.1,570,289.4z"/>
					<path class="st1" d="M576.9,363.4c0.7,1.8,3.7,0.8,3-1C579.2,360.6,576.2,361.5,576.9,363.4z"/>
					<path class="st1" d="M516.5,302c1.7-0.7,0.7-3.3-1-2.7C513.8,300,514.8,302.7,516.5,302z"/>
					<path class="st1" d="M526.5,365.5c-6.9,2.6,19.2,11.9,18.5,6.3c-0.3-2.3-1.4,0-8.4-2.5C527.2,365.7,527.4,365.1,526.5,365.5z"
						/>
					<path class="st1" d="M513.9,360.9c1.8,2,8.2,7.2,8.8,3.7c0.3-1.6-0.9-0.9-6.4-5.6C515,358,513.1,358.9,513.9,360.9z"/>
					<path class="st1" d="M582,320.6c-2,0.8-0.8,3.7,1.2,2.9C585.1,322.8,583.9,319.8,582,320.6z"/>
				</g>
				<g>
					<path class="st1" d="M428.9,499.6c25.5,6.1,42.1,9.9,55.1,17.1c21.7,12,14.4,15.1,13.7,1.9c-1.3-21.9,19.7-28.3,19.4-20.4
						c-0.8,18.7-1.8,20.4-5.3,27.8c5.7-3.2,24.4-18,47.7-18.7c16.2-0.5,38.9,14.3,28.2,18c-2.4,0.8-9.3,2.3-13.6,3.6
						c-14.2,4.2-27.1,9.4-43.4,9.2c-3.3,0,17.2,5.9,33,23c9.3,10.1,15.2,22,18,35.4c2.9,13.4,1.4,28.7-0.2,32.8
						c-1.1,2.8-3.9,2.2-6.4,0.5c-33.8-22-39.2-26.6-52.6-44.2c0.6,14.6-1.2,24.7-9.9,39.5c-3.4,5.8-14.9,21.4-21.2,19
						c-1.9-2.2-2.6-2.1-3-10.6c-1.4-31.6-4.4-54.6,5.4-74.9c3.7-7.6,3.7-7.2,2.7-6.3c-29.5,25.2-68.3,21.2-62,11.4
						c1.4-2.1,13.2-14.3,22.9-21.4c12.7-9.2,24.4-12.4,42.9-9.4c-19.9-23.8-74.1-27.4-74.5-32.1
						C426.6,499.5,427.7,499.3,428.9,499.6z M558,592.2c0.7,1.7-1.3,2.7-2.3,1.6c-1-1.1-1-4.5-6.4-12.9c-1.7-2.6-0.5-2.5-1.9,6.2
						c-0.3,1.8-2.7,1.7-3,0.1c-0.5-2.1,1.8-6.5,0.3-12.4c-0.9-3.5-10.3-12.8-13.1-15.6c0,0.5,2.1,8.1,0.1,15.9
						c-0.4,1.7-2.9,1.4-2.8-0.4c1-20.4-1.7-20.3-17.3-32.9c-0.5-0.4-0.9-0.7-0.7-0.2c5.8,12,2.8,37.2,31.9,61.5
						c10.7,8.9,32.7,23.3,35.9,25c0.2-0.6,0.4-1,0.4-1.5c11-71.1-62-91.9-68.8-89.7c10.2,7.2,19.5,15.5,28,24.6
						c6,0.5,18.6,5.2,19.5,5.7c1.7,1,0.7,3.6-1.4,2.9c-7.9-2.8-12-4.4-14.7-5C555.8,582,556.9,589.4,558,592.2z M509.5,586.5
						c2.5,2.8,3,4.4,4.6,9.2c0.7,1.9-2.1,2.9-2.9,0.8c-4-10.8-0.3-3.7-6.3,8.7c-0.4,0.9-2.1,4.1-2.3,4.3c-1.1,1.5-3.1,0.3-2.5-1.3
						c1-2.5,4.3-7.1,5.5-16.4c1-7.6,1.2-16.5,1-17.7c-1.3,1.2-1.6,2-4.5,6.5c-1.2,1.9-4.1,0.5-2.4-2.1c3.3-5.1,3.6-5.6,6.9-8.5
						c-1-25.3-0.6-22.4-0.1-27.5c0.1-1,0.2-0.7-2.2,3.6c-9.9,17.6-19,29.1-12.1,92.8c0.1,1.1,0.4,2.6,1.4,2.2
						c6.2-2.2,17.8-17,22.6-30.7c7.9-22.8,0.6-31.6-6.7-60.4C508.7,546.4,510.7,565.3,509.5,586.5z M474,544.3c-2.5,0-2.5-3.2,0-3.2
						c8.1-0.2,10.5,2.7,12.7,2c15.5-5.1,18.2-5.6,15.6-6.5c-5.6-1.9-24.2-4.1-40,6.4c-10.2,6.8-21.8,18.6-25.1,22.7
						c3,2.6,19.3,4.7,38.6-4.3c19.6-9.1,24.1-17.3,26-19.8c0.9-1.2-0.8,0.9-25.9,7.9c-0.5,0.1-0.8,0.4-1,0.9c-1.3,4.2-1.5,4-1.7,6.2
						c-0.1,2-2.6,1.9-2.9,0.4c-0.3-1.6,0.3-3.5,1-5.9c-2,0.7-10.9,5.1-11.8,5.3c-1.8,0.5-2.8-1.5-1.4-2.7
						C468.1,546.3,491.4,544.3,474,544.3z M542.8,520.1c8.6-10.9,11-4.8,8.4-3.3c-6.3,3.5-3.2,2.3,1.8,1.8c13.4-1.3,11,3.6,8.8,3.4
						c-8.5-1-13.2,0.3-24.4,2.8c-2,0.5,3.6,2.1,5.5,2.7c2,0.6,1.3,3.1-0.4,2.8c-14-2.1-0.7-8.8-30.9,3.3
						c27.9,4.7,42.1-1.9,75.2-11.2c0.3-1.1-7.3-5.9-8.3-6.5c-21.5-12.5-45.1,0.6-65.3,13.3C510.6,530.7,524,524.2,542.8,520.1z
						 M513.8,498.4c-6.3-1.1-17.2,11.8-11.2,27.6c0.2-4,0.1-8.6,1.4-10.2c0.9-1.1,3-0.1,2.6,1.4c-0.6,2.6-1.5,13.1-1,13.3
						C512.7,518.4,513.5,513.4,513.8,498.4z"/>
					<path class="st1" d="M592.2,616.4c7-22.2-7.3-50.6-11.3-48c-3.2,2.1,5.5,6,8.4,22c1.5,8.2,2.5,17.2,0.1,25.3
						C588.8,617.7,591.3,618.8,592.2,616.4z"/>
					<path class="st1" d="M579.6,502.9c-5.8-1.9-25-5.3-24-0.6c0.6,2.8,12-1.3,24.4,4.3c5.7,2.6,12.5,7,15.5,11.6
						c1.1,1.7,3.2,0.4,2.6-1.1C595.9,511.7,585.4,505.4,579.6,502.9z"/>
					<path class="st1" d="M567.8,493.8c-15.1-2.2-36.5,8.7-34.2,12.2c2.4,3.9,8.3-10.1,34-9.4C569.1,496.7,569.9,494.6,567.8,493.8z
						"/>
					<path class="st1" d="M467.6,501.7c-1.8,0.6-1.6,2.7-0.2,3c3.6,0.9,11.1,3.8,15.1,6.6c2.2,1.5,3.5-1.1,2-2.1
						C481.4,506.9,470.3,500.8,467.6,501.7z"/>
					<path class="st1" d="M566.4,552c-1.8-0.8-2.8,0.9-2.2,1.9c0.6,1.1,1.7,1.5,7.3,5.9c0.9,0.7,2.3,2.3,2.5,2.4
						C575.2,563.2,581.7,562.3,566.4,552z"/>
					<path class="st1" d="M458.1,501.4c1.8,0.6,2.7-1.8,1.3-2.6c-1-0.5-5.5-2.1-6.9-1.7c-1.4,0.4-1.5,2.4,0.2,2.8
						C459.6,501.6,456.8,501,458.1,501.4z"/>
					<path class="st1" d="M557.4,548.4c-0.7,1.8,1.9,2.8,2.6,1C560.7,547.6,558,546.6,557.4,548.4z"/>
					<path class="st1" d="M442.3,496c-0.7,1.8,2,2.8,2.6,1C445.6,495.2,443,494.2,442.3,496z"/>
					<path class="st1" d="M483.4,631.1c-0.1-1.5-1.6-6.8-2.5-31.4c-0.1-1.8-1.1-2.4-2-2.2c-1.4,0.3-2.2,0.5,0.4,26.2
						c0.2,2.3,0.8,4.6,1.2,6.9C480.7,632.3,482.7,632.5,483.4,631.1z"/>
					<path class="st1" d="M480.3,577.7c-1.2,5.9-1.8,8.7-2.1,11.7c-0.2,2.2,2.7,2.3,2.9,0.3c0.3-3,0.9-3.1,2.3-11.3
						C483.8,576.4,481.2,575.6,480.3,577.7z"/>
					<path class="st1" d="M558.5,598c-0.8,1.9,2,2.7,2.7,1C561.9,597.2,559.3,596.1,558.5,598z"/>
					<path class="st1" d="M454.1,559c0.7-1.8-2.1-2.7-2.8-0.9C450.7,559.9,453.5,560.8,454.1,559z"/>
					<path class="st1" d="M567.4,522.8c1.7,0.6,2.7-2,1-2.6C566.6,519.5,565.7,522.1,567.4,522.8z"/>
					<path class="st1" d="M508.5,510.7c0.8-2-2.2-3.1-2.9-1.2C504.8,511.5,507.7,512.7,508.5,510.7z"/>
				</g>
				<g>
					<path class="st2" d="M232.7,176c-11.8-1.2-20.4-6.4-23.1-18c-0.9-3.6-0.8-7.3-0.8-11c0-1.4,0.9-2,2.3-1.5
						c17.1,5.4,22.9,6.4,28.9,12.8c3.3,3.5,6.2,7.3,7.2,12.3c2.9,1.6,5.9,3.2,8.9,4.8c1.7,0.9,1.1,2.3,0.4,2.6
						c-1.3,0.6,0.8,0.5-12.2-5.8C240.6,174.3,237.2,176.5,232.7,176z M232.4,173.2c3.2,0.4,6-0.7,8.7-2.4
						c-3.2-1.8-16.4-8.1-14.4-10.7c1.1-1.4,2.6,0.3,4.5,1.7c4.1,3,11.2,6.7,13.1,7.4c-2.6-6.4-8.3-12.4-15.8-15.2
						c-2.4-0.8-15.4-5.2-17-5.4C212.2,158.6,213,171,232.4,173.2z"/>
					<path class="st2" d="M234.4,130.1c-11.1-7-14.3-18.7-12.1-26.5c1.2-4.2,3.6-7.9,5.3-11.8c0.5-1,1.7-1.1,2.5-0.3
						c0.6,0.5,2.7,3.6,4.9,6.3c10.7,13.3,11.1,22.3,8.7,30.1c-1.6,5.4-4.9,1.8,0.2,8.1c1.4,1.7-0.6,3.3-2,1.9
						c-1.6-1.7-1.6-1.9-3.8-5.7C236.8,131.4,235.6,130.9,234.4,130.1z M232.7,112c0.1-1.6,2.1-1.5,2.4-0.2c0,0,2.2,13.4,5.1,17.7
						c0.3-0.5,0.7-0.8,0.8-1.3c3.2-12.6,0.3-17.6-11.7-33.4c-2.3,5.5-8,11.6-2.5,23.3c2.1,4.5,6.6,8.6,9.7,10
						C233.6,118.5,232.7,112.4,232.7,112z"/>
					<path class="st2" d="M228.3,75.8c-9.6-0.1-19.4-8.9-17.7-20c0.7-4.5,2.6-8.5,4.1-12.7c0.4-1.2,1.6-1.4,2.6-0.6
						c5.6,4.9,14.2,11.5,18.4,19.9c2.8,5.7,1.2,8.5-0.5,11.9c1.3,1.1,2.9,2.3,4.7,3.8c1.6,1.3-0.1,3.3-1.6,2.2
						C228.3,73,235.6,75.8,228.3,75.8z M221.3,58.3c-0.4-0.8-0.2-1.5,0.4-1.8c2.6-1.4,2.8,6.1,11.6,15.9c5.6-8.3-8.8-20.2-16.5-26.7
						c-3.1,8.5-6.1,14.8-0.1,21.7c4.6,5.2,8.5,5.6,13.3,5.6C228.3,70.3,226.5,68.9,221.3,58.3z"/>
					<path class="st2" d="M255.3,140c2-12.4,17.8-19.2,17.9-13.2c0.1,17.1,2.4,26.6-5.9,32.9c-4.2,3.3-4.5-3.3-2.9,9.6
						c0.3,1.9-2.1,2.4-2.7,0.6c-0.2-0.8-0.2-0.4-1.3-10.9C256.3,153.8,253.9,149,255.3,140z M265.4,158.1c7-6.2,5.2-9.2,4.9-29.4
						c0-1.3,0.3-1.4-1.1-1.1c-10.9,3.1-14.8,18.5-8.6,27.3c0.5,0.6,1.3-10.2,3.6-13.8c0.9-1.4,2.7-0.5,2.2,1c-0.5,1.6-3,7.8-3,15.7
						C264.3,158.2,264.7,158.7,265.4,158.1z"/>
					<path class="st2" d="M251.1,105.1c-4.8-5.8-6.9-17.6-1.7-24.9c2.1-3.1,4.9-5.3,7.9-7.5c2.7-1.9,2.9,1.5,3.3,2.7
						c4.4,13.3,6.2,16.7,5.5,22.7c-0.8,6.9-6,11.6-8.8,11.2c0.1,0.9,0.8,4.6,1.1,5.7c0.4,2-1.9,2.7-2.7,0.8
						c-0.3-0.7-0.1-0.3-1.5-7.4C253.1,107.2,252,106.2,251.1,105.1z M249.6,86.6c-1.3,7,0.6,13.3,4.7,18.1c0,0,0.7-12.2,1.9-16.6
						c0.5-1.7,2.6-1.3,2.4,0.4c-0.6,4.7-1.6,8.5-1.5,17.8c0.4,0.1,0.7,0.2,1.2,0.4c9.8-8.3,3.8-16.8-0.6-30.9
						C254,78.7,250.4,81.7,249.6,86.6z"/>
					<path class="st2" d="M256.9,120.6c0,1.8,2.6,1.8,2.5-0.1C259.4,118.8,256.9,119,256.9,120.6z"/>
					<path class="st2" d="M219.4,157.6c0,1.5,2.3,1.6,2.3,0C221.7,156.1,219.4,156.1,219.4,157.6z"/>
					<path class="st2" d="M231.8,108.1c1.8,0.1,1.9-2.7,0-2.7C230.1,105.4,230,108.1,231.8,108.1z"/>
					<path class="st2" d="M218.3,53.5c0,1.3,2,1.6,2.2,0.1C220.6,52.1,218.4,52.1,218.3,53.5z"/>
					<path class="st2" d="M264.8,136.3c0,1.8,2.7,1.8,2.7,0C267.4,134.6,264.8,134.5,264.8,136.3z"/>
				</g>
				<g>
					<path class="st1" d="M613.8,509c13-1.9,23,4.9,26.4,12.3c1.8,4,2.4,8.3,3.6,12.5c0.3,1.1-0.6,1.9-1.7,1.9c-0.8,0-4.4-1-7.8-1.6
						c-16.8-3.2-22.9-9.8-26.2-17.2c-2.3-5.2,2.5-4.6-5.4-6c-2.2-0.4-1.7-3,0.3-2.7c2.3,0.3,2.5,0.4,6.6,1.8
						C611.1,509.5,612.4,509.2,613.8,509z M626.8,521.6c0.9,1.3-0.6,2.6-1.7,1.7c0,0-10.3-8.7-15.3-10.1c0.1,0.6,0,1.1,0.2,1.5
						c5.8,11.7,11.3,13.6,30.6,17.7c-1.9-5.6-1.5-14.1-13.2-19.3c-4.6-2-10.6-2.3-13.9-1.3C622,517.3,626.6,521.3,626.8,521.6z"/>
					<path class="st1" d="M653.7,546.3c7.3-6.2,20.6-5.8,26.5,3.7c2.4,3.8,3.6,8.2,5.1,12.3c0.4,1.2-0.3,2.1-1.6,2.1
						c-7.5,0-18.3,0.5-26.9-3.2c-5.8-2.5-6.4-5.7-7.4-9.4c-1.7,0-3.7,0.1-6,0.2c-2,0-2.1-2.6-0.2-2.7
						C655.5,548.4,648.2,551,653.7,546.3z M670.4,555.1c0.8,0.3,1.1,1,0.9,1.6c-1,2.8-6.1-2.8-19.1-4.6c1.1,9.9,19.9,9.6,29.9,9.6
						c-3.1-8.5-5-15.2-14-16.5c-6.9-1-10.1,1.3-13.8,4.4C657.3,550.5,659.6,550.4,670.4,555.1z"/>
					<path class="st1" d="M617.4,538.8c7.4,1.3,16.6,8.9,17.5,17.8c0.4,3.7-0.2,7.2-1.2,10.8c-0.8,3.2-3.2,0.7-4.3,0.1
						c-12-7.2-15.5-8.7-18.9-13.7c-3.9-5.8-3-12.7-0.6-14.2c-0.6-0.7-3.6-2.9-4.5-3.6c-1.6-1.3-0.3-3.3,1.5-2.3
						c0.6,0.4,0.3,0.1,5.9,4.7C614.5,538.5,616,538.6,617.4,538.8z M630.6,551.9c-3.6-6.2-9.1-9.7-15.4-10.7c0,0,7.4,9.7,9.3,13.8
						c0.7,1.6-1.2,2.7-2.1,1.2c-2.6-4-4.3-7.5-10.4-14.5c-0.3,0.1-0.7,0.3-1.1,0.5c-2,12.7,8,15.2,20.5,23.1
						C632.4,560.8,633.1,556.2,630.6,551.9z"/>
					<path class="st1" d="M602.8,530.8c-1.2-1.3-3.1,0.3-1.9,1.7C602.1,533.8,603.9,532,602.8,530.8z"/>
					<path class="st1" d="M630.1,524c-1.4,1.1,0.4,3.3,1.7,2.1C633.1,524.9,631.4,522.9,630.1,524z"/>
					<path class="st1" d="M675.8,556.8c-0.8-1.1-2.6,0.1-1.7,1.3C674.9,559.3,676.7,557.9,675.8,556.8z"/>
				</g>
			</g>
			<circle class="st2" cx="375.3" cy="388.4" r="142.5"/>
		</g>
		<g>
			<path class="st1" d="M304.1,438.6c0.8-2.2,2.8-1.6,3.1-0.5c1.5,5.4,7,6.3,8.2,7.5c1.3,1.3-0.3,3.4-2,2.7
				C309.3,446.5,304.1,442.8,304.1,438.6z"/>
			<path class="st1" d="M380.7,437.1c-3.9,6.6-5.6,8.2-8.5,9.5c-3,1.3-6.1,0.1-7.6-2.8c-0.3-0.7-0.6-1.5-0.8-2.2
				c-4.2,5.8-6.1,8.8-9.4,8.5c-7.4-0.8-2.9-20,10.2-17.5c0.5-0.2,0.9-0.5,1.3-0.5c1.3-0.2,2.3,1,1.9,2.4c-2.3,8.8,1.7,16.8,12.4-4.4
				c0.5-0.9,0-20.1,9.2-30.9c6.2-7.2,13.2-0.6,11.4,8.5c-2.4,12.7-12.3,22-16.9,22.9c0,19.1,8.9,28.6,16.2,6.8
				c4.5-13.3,1.8-18.2,8.2-28.6c12.1-19.7,24.5,9.5-2.1,22.6c2.2,18.9,12.7,13.2,13,2.3c0-0.1,0-0.2-0.1-0.3
				c-1.1-2.6,2.3-3.5,3.2-1.6c1.3,2.8,0.6,9.2-4.8,13.8c-4,3.4-10.7,2.4-13.7-7.1c-0.3-1,0.2-1-2,4.2c-5.7,14-16,14.7-20,1.2
				C381.6,441.6,381.2,439.3,380.7,437.1z M384.3,427.1c3.9-1.6,12.4-11.5,13.4-21.3C398.8,395,387.6,396.7,384.3,427.1z
				 M406.5,427.4c1.3,0.5,14.2-10.7,12-20.2c-0.5-2-2.6-1.7-3.6-0.5C408.6,413.9,408.1,417.8,406.5,427.4z M363.1,435.5
				c-4.6-0.4-9.4,5-8.3,11C357.5,445.3,362.8,436.4,363.1,435.5z"/>
			<path class="st1" d="M341.9,366.9c-3.6,3-2.8,1.5-3.2,5.9c-1.8,26.6-21.8,31-21.9,20.1c-0.2-9.8,11.3-19,18.5-25.3
				c-0.9-32.1-20-10.4-18-6.5c1.2,2.3-1.6,3.5-2.7,1.8c-4.3-6.5,11.8-24.2,20.2-12.3c3.5,5,3.6,11.1,4.1,14.1c1.2-1,2.3-1.9,3.4-2.8
				c1.5-13.8,6-27.1,14.8-37.8c13.5-16.3,26.7-2.5,12.3,17c-7.1,9.6-16.5,16.4-23.5,22.6c-0.8,9.9,0.4,16.9,3.2,27.4
				c0.4,1.6-1.6,2.7-2.6,1.7C342.9,389.3,341.9,372,341.9,366.9z M346.4,358.6c0.6-0.4,8.8-7.6,11.7-10.3c5.4-5,13.4-14.1,14-21.5
				C373.1,311.9,351.9,324.5,346.4,358.6z M335.2,372.5c-18.4,15.9-17.1,25.2-10.2,21.5C332,390.3,334.3,379.5,335.2,372.5z"/>
			<path class="st1" d="M378.6,368c-1.8,4.2-5.2,12.7-13.8,17c-11,5.6-16.4-10.9-8.4-20.1c6.8-7.9,18.7,4.1,1.6,16.2
				c0.4,0.8,2,1.5,3.2,1.3c1.9-0.3,3.5-1.5,5-2.6c6.2-4.6,9.9-13.5,11.4-20.8c0.4-1.8-0.7-16.2,8-29.8c8.8-13.7,23.6-13.1,18.7,3.5
				c1.1-0.2,4-2.6,16.9-3c5.7-0.2,10.4-0.5,15.3-4.6c2.7-2.2,3.8-5.9,3.2-9c-0.8-4.4-8.8-6.1-11.9,2.5c-0.8,2.3-4,1.4-3.5-1
				c2-9.6,14.3-11.4,18-4.5c3.8,7-1.9,19.4-18,20.1c-6.9,0.3-19.8,0.3-23.3,6.3c-1.1,1.9-3.6,0.6-3-1.2c0.8-2,4.5-8.1,3.3-13
				c-0.5-1.8-1.5-2.4-3.4-1.9c-17.2,4-22.1,46.1-9.7,61.1c1.9,2.3-1.2,4.8-3.8,1.1C380,378.8,379.5,372.5,378.6,368z M356.5,378
				c7.2-2.9,8.4-13.8,4-11.7C357.4,367.8,355.9,373.9,356.5,378z"/>
			<path class="st1" d="M339.4,410.9c-16.8,1.2-22.8,12.6-21.8,16.8c0.4,1.8-2.3,2.7-3,1c-2.4-6.6,6.8-20.6,23.2-21.4
				c6-0.3,12.8,2.2,21.9,2.5c15.9,0.6,22.1-9.9,18.5-16.8c-2.5-4.7-14.5-2.2-13.1,5.9c0.2,0.9,1,1.5,1.8,1.3c0.5-3.8,4.4-2.5,4,0
				c-0.8,5.6-9.8,4.8-9.6-2.5c0.1-4,2.7-8.7,8.1-10.2c20.1-5.3,19.4,29.9-14,25.5c-3.3-0.4-6.6-1-9.9-1.5c-3.3-0.5-5.8,4.5-6.3,8.1
				c-0.4,2.7,0.3,5.8,0.9,8.4c5.5,0.3,7.9,0.8,8.8-2.4c0.8-2.8,4.2-1.6,3.5,1c-0.8,2.9-3,4.9-6,5.2c-5.9,0.5-5.5-1.4-4.2,2.5
				c1.6,4.7,4.7,11.7,2,19.3c-1.2,3.4-3.4,6-6.9,7.2c-17.2,5.9-24.8-28.7-0.9-32.8C334.9,421.6,335.1,416,339.4,410.9z M337.4,431.5
				c-12.1,2.2-16.4,15.2-9.1,23.6c4.2,4.9,10.7,2.9,12.6-3.1C343.2,444.7,339.1,437.1,337.4,431.5z"/>
			<path class="st1" d="M430.2,350.2c4.9,10.6-2.2,23.4-11,15.7c-2,7.7-3.7,15.7-9,21.6c-16.4,18.3-21.7-44.2-8.5-42.1
				c7,1.1,6.2,10,4.5,16.9c-0.7,2.6-4.1,1.7-3.5-0.8c0.8-3.5,2.2-7.7,0.6-11.1c-0.7-1.5-2.4-2.5-2.9-1.2
				c-5.6,15.2-0.7,45.6,7.8,35.1c5.1-6.3,5.7-13.4,8.6-23.4c0.2-0.7-0.8-12.8,9.3-15.2c0.9-0.2,2.4,1.8,5.5,0.2
				c2.4-1.2,4.4-3.9,3.6-4.9c-2-2.3,1.7-4.7,3-2.2C440.9,343.8,435.7,349.2,430.2,350.2z M425.3,349.3c-10,6.4-1.7,22.4,2.1,12.5
				C429.1,357.1,427.7,351.9,425.3,349.3z"/>
			<path class="st1" d="M367.1,312.4c-4.7,1.6-19.8,12.9-23.2,32.5c-0.4,2.5-4.1,1.6-3.6-0.8c0.9-4,1.9-8.1,3.7-11.9
				c6.9-14.6,22.5-26.3,24-21.8C368.2,311.2,367.9,312.1,367.1,312.4z"/>
			<path class="st1" d="M318.8,404.3c2-1.1,3.7,1.6,1.5,2.8c-8.9,4.9-14.8,21.7-6.1,28.8c1.9,1.6-0.6,4.8-3.3,1.9
				C301.7,427.9,307.6,410.6,318.8,404.3z"/>
			<path class="st1" d="M321.4,340.8c4.6-1.8,5.2,2.8,2.1,2.9c-3.1,0.1-15.1,7.2-12.9,23.3c0.3,2.2-2.8,2.8-3.4,0.9
				C304.6,360.4,308.1,346.1,321.4,340.8z"/>
			<path class="st1" d="M391.1,466c-5.1-0.3-9.3-2.3-12.4-6.2c-2-2.6,1.1-4.2,2.2-2.4c2,3,6.7,5.7,11.3,4.8c2.9-0.5,4.8-2.5,6.9-4.2
				c2-1.7,4.1,1.1,2.5,2.6C396.8,465,394.6,465.5,391.1,466z"/>
			<path class="st1" d="M433.1,305.9c-3.3,0-8.1,3.6-9.9,6.9c-2.1,4-1.8,6.8-2.2,8.2c-0.6,2.2-3.6,1.6-3.5-0.5
				c0.7-11.6,9.6-18.4,16.1-17.8C435.2,302.9,435.2,305.8,433.1,305.9z"/>
			<path class="st1" d="M426.8,418c-1,2.3-4.4,1.4-3.4-1.3c0.5-1.4,1.1-2.7,1.5-4.2c1.1-3.7,1.1-9.5-1.6-12
				c-1.4-1.3,0.2-3.5,1.8-2.6c2.3,1.3,3.5,4.8,3.8,7.6C429.5,409.3,429.3,412.3,426.8,418z"/>
			<path class="st1" d="M423.7,379.9c-2.3-0.4-1.8-3.8,0.7-3.5c4.6,0.6,8.8,0.7,12.8-5.8c0.2-0.4,0.4-0.8,0.6-1.3
				c0.8-2.2,3.6-1.3,3.1,0.9c-0.7,3-5,8.6-10.7,9.9C428.2,380.5,427.4,380.6,423.7,379.9z"/>
			<path class="st1" d="M431.7,372.6c-2.5,1.8-4.5-1.1-2.5-2.7c4.5-3.6,6.9-6.7,5.8-14c-0.3-2.3,2.7-2.7,3.1-0.7
				C439.7,363.1,436.8,369.1,431.7,372.6z"/>
			<path class="st1" d="M384.8,347.8c5.5-21.9,11.8-15.6,9.6-13.3c-3.8,4-4.9,9.3-6,13.8C387.8,350.7,384.8,350.7,384.8,347.8z"/>
			<path class="st1" d="M393.2,458.3c0,4.7-12.6-0.1-15.3-9.1c-0.7-2.2,2.2-3.4,3.1-1C384.1,457.4,393.2,455.1,393.2,458.3z"/>
			<path class="st1" d="M405.1,450.7c-1.6-1.4,0.4-3.7,2.1-2.4c2.4,2,7.5,3.4,12.2,0.3c2.4-1.6,4.2,1.6,1.7,3.2
				C415.4,455.3,408.5,453.8,405.1,450.7z"/>
			<path class="st1" d="M381.9,323c0,3.1-3.3,3.2-3.6,0.5c-0.5-5.2-0.5-7.9-5.4-10.9c-2-1.2-0.4-3.9,1.7-2.7
				C381.2,313.5,381.4,318.9,381.9,323z"/>
			<path class="st1" d="M416.1,307.4c1.6-1.6,4,0.7,2.2,2.4c-3.5,3.3-3.4,7.4-3.1,11.8c0.2,3-3.4,3.1-3.6,0.4
				C411,314.2,412.7,310.8,416.1,307.4z"/>
			<path class="st1" d="M376.2,412.6c1.1-2,3.8-0.5,2.9,1.4c-1.9,3.9-2.1,7.9-1.6,12c0.3,2.7-3.2,3-3.5,0.6
				C373.3,420.9,374.3,416.2,376.2,412.6z"/>
			<path class="st1" d="M336.1,466.4c-2-0.6-1.4-3.5,0.9-3.1c3.4,0.7,5.7-1.8,7.6-3.5c1.8-1.6,4,0.9,2.4,2.5
				C344,465.3,340.1,467.5,336.1,466.4z"/>
			<path class="st1" d="M429,439.9c-1.2,11-6.5,8-4.9,5.1c1.2-2.2,1.3-3.1,1.4-5.3c0.1-1.9,2.2-2.1,3-1
				C428.8,439.1,428.9,439.7,429,439.9z"/>
			<path class="st1" d="M369.4,425.2c-2.8-9.4,3.8-8.8,2.9-5.5c-0.6,2.4,0.7,4.3,0.2,5.8C372.1,427,369.9,426.8,369.4,425.2z"/>
			<path class="st1" d="M347,456.5c0-2.3,3.5-2.4,3.5,0C350.5,458.8,347,458.8,347,456.5z"/>
			<path class="st1" d="M326.1,405.8c-2.1,0-2.1-3.3,0-3.3C328.3,402.6,328.3,405.8,326.1,405.8z"/>
			<path class="st1" d="M421.4,424.9c-2.2,0-2.2-3.2,0-3.2C423.5,421.7,423.5,424.9,421.4,424.9z"/>
			<path class="st1" d="M310.8,375.7c-2.1,0-2.1-3.2,0-3.2C312.9,372.4,312.9,375.7,310.8,375.7z"/>
			<path class="st1" d="M380.7,330.3c0,2.2-3.2,2.1-3.2-0.1C377.6,328.1,380.8,328.2,380.7,330.3z"/>
			<path class="st1" d="M386.7,357.1c-2.1,0-2.1-3.2,0-3.2C388.8,353.9,388.7,357.1,386.7,357.1z"/>
		</g>
	</g>
</g>
</svg>
