<?xml version="1.0" encoding="utf-8"?>
<!-- Generator: Adobe Illustrator 22.0.0, SVG Export Plug-In . SVG Version: 6.00 Build 0)  -->
<svg version="1.1" id="Layer_2" xmlns="http://www.w3.org/2000/svg" xmlns:xlink="http://www.w3.org/1999/xlink" x="0px" y="0px"
	 viewBox="0 0 737 737" style="enable-background:new 0 0 737 737;" xml:space="preserve">
<style type="text/css">
	.st0{fill:#BE1E2D;}
	.st1{fill:#FFFFFF;}
</style>
<g>
	<rect x="0" class="st0" width="737" height="737"/>
	<g>
		<g>
			<g>
				<path class="st1" d="M366.3,306c-2.4,51.4,3,55.2,1.6,60.4c-0.5,1.8-3.6,1.9-3.8-0.7c-4.9-54-0.9-57.1-1.9-61.3
					c-2.2-9.4-3.5-17.8-13.7-29.3c-27.2-30.7-68.9-32.7-84-20.8c-2,1.6-4.3-0.7-3-2.7c14.3-21.5,16.8-48.9-2.5-65.4
					c-4.2-3.6-8-4.9-9.7-6.5c-1.4-1.3-1.3-3.1,0.4-4.1c5.8-3.4,24.4,0,35-27.9c5.3-13.8,4-15.6,7.2-14.6
					c2.7,0.8,14.3,17.9,35.2,26.5c9.4,3.9,21,8.2,31,6.6c16.7-56.6-5.2-71.1,0.5-74.5c3.5-2.2,33.5,2.9,55.2-15.6
					c9.8-8.4,9.6-14,12.9-13.2c4,1,1.8,26.2,26.9,46.3c3.3,2.6,7.8,3,10.7,3.9c13.3,4.2-35.6,15.9-40.3,73.5c19.2,4,22.2,5.2,31.7,4
					c17.7-2.4,20.4-4.9,24-5.5c8.2-1.4-2,15.9,2.3,34.7c5.2,22.8,12.8,22.8,15,25.2c5.6,6.1-14.2,2.5-30.8,15.8
					c-11.2,8.9-11.1,17.5-11.7,19.7c-2.3,7.4-12.2-13.6-50.7-6.4C376.6,279.2,367.9,305.3,366.3,306z M363.5,292.9
					c0.1,0,6-41.5,5.9-41.8c-10.4-18.6-42-42.5-43.1-42.7c-7.5-1-15.1,1.2-19.3,4.1c-2.1,1.5-4.2-1.7-1.8-3.1
					c11.3-6.7,17.1-4.3,15-5.6c-13.1-8.6-20-12-31.4-13.5c-2.5-0.3-2.2-3.7,0.2-3.5c16.7,0.9,32.7,12.6,46.8,23.6
					c-0.1-1.4-3.8-13.1-2.9-18.5c0.4-2.1,3.6-2,3.5,0.6c-0.2,6.1,2.6,15.1,4.9,20.9c2.3,5.7,14.8,11.9,28.8,31.4
					c1.8,2.4,3.1-26.6,16.3-62.1c7.2-19.3-0.2,0.5,8-21.2c2.6-6.9,2.3-21.2-2.6-32.3c-1.1-2.5,1.9-4.2,3.3-1.5
					c11,22.3-3.8,32.6,17.1-8.7c2.2-4.4,5.3-1.2,3.8,0.7c-1.7,2.2-20.7,49.6-19.4,48.4c4.6-4,11.5-8.2,15.3-9.5
					c2.4-0.8,3.5,2.5,1.3,3.3c-22.8,8.5-30.3,33.2-40.9,98.7c-0.6,3.5,1.6-6.4,32-22.5c9.3-5,15-21.4,15.5-25.4
					c0.3-2.1,4.7-2.5,3.2,2.7c-7,24.2-15.7,18.2,8.3,12.8c6.2-1.4,19.3-3.3,25.1-0.8c3.3,1.4,1.1,4.5-0.7,3.6
					c-5.4-2.6-23,0.6-25.7,1.7c0.6,0.6,9.2,2.3,13.9,7.6c1.3,1.5-0.6,4.1-2.8,2.2c-5.3-4.6-16.7-8.5-23.1-6.1
					c-27.2,10.2-46.6,29.1-47.3,34.6c-0.2,1.3-3.2,23.5-3.1,24.8c9.8-14.5,23.5-22.6,26.2-23.3c24.4-6.4,42.6-3.6,55.7,3.9
					c1.9,1.1,1,0.9,2.3-3c8.7-24.4,40.2-26.1,38.8-27.7c-0.4-0.5-3.8-2.5-6.4-7.8c-12-24.4-5.9-37.5-5.4-48.4
					c-32,11.9-49.3,0.7-56.2,1.4c-1.6,0.2-2.6-1.2-2.6-2.6c0.5-19.6,9.3-42.5,26.9-60.5c5.5-5.6,11-9.5,13.4-11.4
					c0,0-23.9-3.9-35.1-46.9C407.7,91,389.5,94,362,95.1c9.6,26.4,7.8,45.5-0.2,72.5c-2.4,8.1-28.1-0.4-39.9-5.8
					c-15.6-7.2-24.4-18.1-30-23.2c-1.9,4.5-6.9,30.4-28.3,37.2c-2.3,0.7-4,1.1-9.2,2.4c21.2,12.1,30.3,37.6,14.3,69.3
					C302.3,236,348.1,253.5,363.5,292.9z"/>
				<path class="st1" d="M259,200.5c7.1,12,3.9,23.3,3.6,29c-0.2,3.1-4.5,2.8-4.1-0.3c0.5-3.4,2.6-12-0.5-21.5
					c-2.4-7.3-5.5-9.3-9.3-12.6c-1.8-1.6-0.1-4.1,2.1-2.9C251.3,192.4,256.6,196.5,259,200.5z"/>
				<path class="st1" d="M447.6,152.7c28.3-37.3,33.3-25.1,29.3-23.3c-10.6,4.7-19.4,16.8-26.2,26
					C449.3,157.3,446.2,156.6,447.6,152.7z"/>
				<path class="st1" d="M409.1,282.8c-3.6,1.7-6.9-6.3,9.8-5.3c10.2,0.6,15.9,3.4,21.2,6.8c2,1.3,0.4,4.4-2.1,2.9
					C427.7,280.7,413.8,280.6,409.1,282.8z"/>
				<path class="st1" d="M363.3,83.1c-1.7-1.3-0.2-3.7,1.4-3.1c1.3,0.5,2.7,0.4,4.1,0.4c12.3,0.6,23.9-5.8,26.9-5.2
					c1.6,0.3,2.1,3.1,0.1,3.7c-11.3,3.5-17,5.8-27.6,5.2C366.1,84,364.5,84.1,363.3,83.1z"/>
				<path class="st1" d="M247.5,234.9c0.5-5.4,5.4-10.9-2.8-23.4c-1.5-2.3,1.3-4.2,2.9-2.1c8.5,10.8,5.3,19.2,3.8,26.1
					C250.9,237.8,247.2,237.4,247.5,234.9z"/>
				<path class="st1" d="M371,72.3c9.1,0.7,21.5-6.8,22.6-2.8c0.3,1.1-0.3,2.2-1.6,2.6C362.8,80.6,368.9,72.1,371,72.3z"/>
				<path class="st1" d="M418.7,65.2c-4.6,5-11,9.1-13.5,9.8c-2.3,0.7-3.3-2.3-1.3-3.3c4.1-1.9,9.5-6.3,11.4-8.8
					C417,60.6,420.3,62.4,418.7,65.2z"/>
				<path class="st1" d="M446.4,159.8c1,0.3,1.4,1.4,0.9,2.5c-5.1,11.2-4.4,11.6-6.1,11.7c-1.4,0.1-2.6-1.2-1.9-3
					C442.9,162.7,444.1,158.9,446.4,159.8z"/>
				<path class="st1" d="M401.7,67.9c-1.2,2.1-4.3,0.2-3.1-1.9C399.8,63.8,402.8,65.9,401.7,67.9z"/>
				<path class="st1" d="M254.8,239.5c1.2-2.1,4.2-0.2,3,1.8C256.6,243.3,253.6,241.5,254.8,239.5z"/>
				<path class="st1" d="M400.1,282.7c2,1.2,0.2,4.2-1.8,3C396.3,284.5,398.1,281.4,400.1,282.7z"/>
			</g>
		</g>
		<g>
			<path class="st1" d="M637.2,345.2c-4.2-4.4-15.1-4.7-15.5-4.8c-2.7-0.6-2.2-4.1,0.5-3.9c6.2,0.5,13.5,1.9,17.8,6.4
				C642,345.1,639.4,347.6,637.2,345.2z"/>
			<path class="st1" d="M546.9,285.8c14.3-10-1.4-31.8,7.3-29.6c4.1,1.1,11.6-5.7,10.6-15.3c-0.2-2-0.7-4,1.2-4.5
				c1-0.3,1.9,0.2,2.5,1.2c7.6,13.4,15.8,9.8,21.1,10.9c1.6,0.3,2.3,2.1,1.3,3.4c-6.8,9.5-9,12.8-7.1,27c6.2-1.3,11.4-4.1,16.4-11
				c5.2-7.3,6.3-12.3,7.1-14.1c0.7-1.5,2.4-1.8,3.6-0.6c0.4,0.4,1.7,2.3,3.1,2.9c6,2.8,12,1.3,18-1.5c0.6-0.3,2.1-2,3.4-0.5
				c0.9,1,0.9,2.4-0.1,3.2c-1,0.7-1.4,1.8-1.7,2.8c-2.4,8.1,0.6,12.6,4.4,19.8c0.7,1.4-0.3,2.8-1.7,2.7c-3.9-0.2-7.4,1-10.8,2.7
				c-10,5.1-14.5,8.2-18.8,19.2c22.1,5.1,29.5-9,31.8-4.1c0.4,0.9,0.6,1.9,1.1,2.7c4.2,7.7,12.5,7.9,14.6,9.5
				c1.2,0.9,1.1,2.6-0.2,3.4c-1.3,0.8-8.4,2.4-9.7,12.2c-0.6,4.7,0.9,12.6-2.9,10.5c-11.5-6.4-30.5-6.2-36.8-1.8
				c1.5,8,10.7,13.5,14.9,16.5c2.3,1.6,0.8,4.7-1,3.9c-3.4-1.4-16.7,0-18,10.9c-0.2,2-2.2,2.9-3.9,1.4c-2-1.8-2.6-2.9-5.5-3.5
				c-5.2-1.2-10.2-0.8-15,1.6c-5.1,2.5-3.9,8.7-7.8,6.1c-1.1-0.7-1.4-1.6-1.3-2.8c0.5-9.2-9.2-27.8-20.1-25.6
				c-17,3.4-15,4.2-35.5,32.2c-2,2.8-5.3,0.5-3.2-2.3c23-31.6,20-25.6,22.7-32.2c3.9-9.6-0.8-25.7-14.6-29.3
				c-4.7-1.2-7.8,0.9-9.1-1.2c-1.5-2.5,2.6-3.9,3.1-8.8c0.9-9.5-2.1-13.2-5.4-17.2c-1.2-1.5-0.2-3.8,2.2-3.2
				c1.4,0.3,2.8,0.7,4.2,0.8c9.5,1,15.8-8,16.2-13.6c0.1-1.6,0.3-3.2,2-3.4c3-0.4,2.3,4.3,4.7,8.5
				C538.6,283.1,541,283.2,546.9,285.8z M512.6,309.2c8.6,0.4,8.9,1.3,13.4,5c7.6,6.2,10.9,14.3,9.9,25c-0.1,1-1.9,2.4,12.9-11.2
				c-0.4-4.7-5.1-13.4-15-19.8c-1.4-0.9-2.8-1.6-4.2-2.4c-2.4-1.5-0.5-4.9,2.1-3.4c5.9,3.3,5.7,3.4,9.9,6.7
				c2.1-7.5,0.2-10.4,0.4-12.3c0.2-2.1,3.5-2.6,3.9,0c0.3,1.8,1.7,7.2-1.3,15.2c11.4,13.3,3.3,17,12.7,8.9c2.2-1.9,7-12.6,8.8-23.3
				c1.3-7.7-0.6-14.8-0.4-16.6c0.3-2.1,3.6-2.8,4,0.9c3.9,37.5-21.1,42.3,19.3,12.4c5-3.7,6,0.4,4,1.7c-6.4,4.1-22.6,19-22.7,19.1
				c-23.6,20.9-7.7,2.1,33.3,1.7c2.6,0,3.3,3.9-0.4,4c-5.4,0.2-11.8-0.3-22.4,2.2c-2.2,0.5,1.3-0.1,8,6.3c1.6,1.5-0.5,4.5-2.9,2.6
				c-5.2-4.1-6-5.6-14.1-6.7c-16.8,5.2-15.2,4.6-15.1,4.9c5.9,1.6,10.7,2.1,26,13.6c1.8,1.4,0.2,4.4-2.1,3.3
				c-0.5-0.2-9.4-6.5-10.9-7.3c1,6.9,0.8,5.7,1.1,6.6c0.9,2.6-3.3,3.7-3.9,0.8c0-0.1-0.2-9.4-4.7-11.2c-3.8-1.6-8.8-2.8-12.8-2.8
				c-19.3,17.8-8.2,5.2,4.2,8.8c1,0.3,2.1,0.7,2.9,1.4c11.5,9.4,12.8,19.1,14,23.9c0.9-0.8,1.5-1.8,3.8-2.9
				c12.8-6.3,22.7,0.3,22.8,0.3c2.6-7.1,8.5-9.8,15.4-11c-1.7-1.3-10.1-7.1-11.5-16.5c-0.3-2,0-2.5,1.7-3.4
				c13.2-6.4,24.2-4,37.5,0.4c-0.5-7.7,1.3-14.4,7.8-19.3c-5.3-2-9.4-5.3-11.9-10.3c-18.7,9.2-35,4.3-33.6,0.4
				c2.4-6.5,6.1-13,11.6-17.1c10-7.4,18.2-8.2,18.9-8.5c-6.3-12.6-3.3-16.2-3.2-19.1c-6.8,2.2-13.5,2.7-19.7-1.6
				c-0.6,1.2-1.7,5.1-6.2,11.6c-6.1,8.7-14.7,12.6-20.8,12.6c-2.2,0-2.7-0.3-3-2.5c-1.7-12.1-1.2-16.5,5.2-27.6
				c-6.4-0.1-11.9-2.2-16.5-6.8c-1,6.6-5.3,13.4-13,14.9c1.9,9.1,3.1,18.9-3.4,25.4c-3.7,3.7-4.3,4.7-11.3,2
				c-5.7-2.2-7.9-6.4-11.2-11.4c-3.9,7.4-9.5,12.2-18.6,11.8C514.6,295.7,515.8,302,512.6,309.2z"/>
			<path class="st1" d="M559,364c0.9,2.8-2.8,3.8-3.7,1.5c-0.6-1.5-1.3-7.5-5.9-9.5c-3.5-1.6-7.3-2.6-11.2-2.2
				c-3.1,0.3-3.6-4.1,1.7-3.8C555.9,350.8,557,357.9,559,364z"/>
			<path class="st1" d="M632.4,249.5c-3.4,1.5-6.8,2.8-12.3,2.3c-10.3-1.1-6.8-6.9-4.1-5.4c5.4,3,12,1.6,14.7-0.1
				C632.9,244.9,635.2,247.2,632.4,249.5z"/>
			<path class="st1" d="M547.3,263.7c3.1,4.5,3.4,6.8,3.1,11.2c-0.2,2.8-3.8,2.7-3.8-0.2c0-2.9,0.8-4.6-2.3-9
				C542.5,263.1,545.1,261.1,547.3,263.7z"/>
			<path class="st1" d="M634,242.2c-12.5,4.6-11.4-2.7-7.8-2.3c3.4,0.4,4.2-0.1,5.9-0.9C634.1,238.1,635.8,240.3,634,242.2z"/>
			<path class="st1" d="M613.4,337.9c1.8-1.5,4.1,1.3,2.3,2.7C613.9,342.1,611.6,339.4,613.4,337.9z"/>
			<path class="st1" d="M560.3,369.6c1.5,1.8-1.2,3.9-2.7,2.2C556.2,370,558.9,367.8,560.3,369.6z"/>
			<path class="st1" d="M610.1,277.5c2.2-0.8,3.4,2.1,1.6,3.1c-4,2.3-7.2,5.7-10.7,8.6c-2,1.7-4.8-0.9-2.2-3.3
				C600.8,284.3,607.7,278.3,610.1,277.5z"/>
			<path class="st1" d="M592.9,336.1c-2,1.6-4.4-1.3-2.5-3C592.4,331.5,594.9,334.5,592.9,336.1z"/>
			<path class="st1" d="M525.3,300.9c-1.8,1.5-4-1.2-2.2-2.7C524.9,296.7,527.2,299.4,525.3,300.9z"/>
			<path class="st1" d="M617.5,273.3c1.5,1.8-1.2,3.9-2.6,2.2C613.4,273.8,616,271.5,617.5,273.3z"/>
		</g>
		<g>
			<path class="st1" d="M200.9,612.7c-1.8-1.4,0.3-4.3,2.3-2.7c3.8,3,8.9,0.7,12.5-2.6c5.2-4.8,9.8-12.6,11.6-24.3
				c1.5-10,1.6-42.4,1.6-42.5c-18,4.9-44.3,25.1-45.5,45.1c-0.3,4.3,1.4,9.3,5.5,10.1c1.9,0.4,1.7,3.3-0.2,3.4
				c-14.1,0.5-19.3-39.3,40.4-63c0.5-5,1.3-54.6,13.9-62.1c13.4-8,5.2,22.4,15.5,52c0.8-0.1,10.3-3.8,16.7-7.8
				c8.2-5.1,13.6-12.2,16.4-21.5c1.1-3.7,4.8-2,4,0.5c-6.4,20.8-20.1,26.1-35.8,32.6c0,0.1,0,0.2,0,0.3c5.7,15.6,9.2,17.3,19.7,28.5
				c2.7,2.9,6,4.6,9.9,5.1c3.5,0.5,9.2,2.7,14.8-2.3c5.3-4.8,6.4-10.5,5.4-13.2c-1.2-3,3.9-3.8,4.3-0.1c0.8,7.9-3.8,15-10.4,18.7
				c-7.9,4.5-17.3-0.8-19.1-0.4c-2.5,0.5-5-2.1-15.4-12.8c-6.8-7.1-9.9-14.6-12.9-22.1c-7.6,2.5-15.2,5-22.8,7.4
				c-2,21.3,5.3,70.5-25.7,76.2C205.9,615.1,204.2,615.2,200.9,612.7z M254.6,527.7c-9.2-30.9-4.6-43.2-8.7-50.5
				c-9.9,1.5-12.4,47.4-12.8,57.5C240.4,532.3,247.4,530,254.6,527.7z"/>
			<path class="st1" d="M408.3,315.4c8.4,5.7,9.6,14.5,8.5,24.6c-0.3,2.7-4,2.5-4-0.2c0-2.5,1.4-7.9-1-14.3c-2.9-7.4-6.1-6-6-8.4
				C405.9,316.1,406.7,315.2,408.3,315.4z"/>
			<path class="st1" d="M543.7,406.4c-0.5,0.6-1.4,0.6-2.1,0.2c-1.6-1-1-3.3,0.8-3.3C543.8,403.2,545,405,543.7,406.4z"/>
			<path class="st1" d="M294.6,427.5c4.6,53.5-31.9,57.1-31.6,39.5c0.2-12.5,17.9-30.6,27.3-40.8c-10.3-58.4-58.5-6.7-49.2-0.9
				c2.2,1.4,0.5,4.2-1.6,3.2c-17.2-8.1,39.3-68.2,54.3-5.9c3.6-3.9,7.2-7.6,10.7-11.3c-1.6-91.2,57.5-88.8,37.9-44.6
				c-6.8,15.3-22.9,34.1-33.7,46c1.2,12.7,3.7,29,14.2,36.2c6.7,4.6,13.4-8,15.5-16c5-19.3-2.4-29.7,8.5-42.1
				c8.2-9.2,21.5-1.5,16.3,10.7c-4.9,11.5-17.1,15.2-17,15.4c4.3,9.5,22.3,12.6,34.1-18.9c0.4-1,0.7-1.4,0.2-2.9
				c-8.5-24.1-0.6-55.9,7.7-65c8.8-9.7,17.5-0.5,18.7,11.7c2,18.8-8.1,42.2-21.4,53.1c-1.3,2.2,7.4,22,21.7,13.7
				c9-5.2,14.3-25.8,14.2-30c-0.3-8.4,1.3-23.9,3.1-29.4c6-18.7,19.6-4.7,12.8,14.6c-2.4,6.9-6,14.7-11.6,19.8
				c3.4,29.9,21.3,29.8,26,5.4c1.5-8,0.4-14.7,2.7-22.1c3-9.8,11.9-13.7,14.8-12.6c5.8,2.2,27.2-18.2,14.7-26
				c-0.9-0.6-1.2-1.9-0.7-2.9c2.8-6,16.8,9.7,1.1,25.2c-6.4,6.3-10.9,7-11.5,7.6c0.6,2.3,5.2,10.8-2.6,20.8
				c-1.2,1.5-2.7,2.6-4.4,3.4c-3.7,1.8-6.4,0.7-9.1-1.7c-0.3,3.5-0.5,7.2-1.5,11.2c-3,11.2-11.4,23.4-21.8,17.4
				c-8.1-4.7-10-17.3-10.7-18.3c-1.7,5.1-2.9,9.2-6.5,14.3c-8.9,12.8-23.9,13.3-32.3-2.3c-0.7-1.3-0.5-1-0.8-1.2
				c-5.3,12.9-12.7,25.1-26.6,25.6c-5.6,0.2-8.9-2.5-12.4-6.2c-3.9,41.8-31.9,46.7-39.1-4.5C301.4,420.4,298,423.9,294.6,427.5z
				 M308.3,406.7c0.8-0.1,23.8-26.1,30.8-42.8c11.2-26.8-9-32.1-21.8-5.4C310.3,373.3,308.2,390.2,308.3,406.7z M383.4,391.5
				c0.4,0.2,1.4-0.6,1.6-0.8c27.5-29.5,17.8-68.2,7.8-59.6C383.9,338.8,377.2,366.3,383.4,391.5z M291,431.7
				c-0.4-0.2-24.6,24.5-23.9,35.9C267.8,479.4,293.7,471.3,291,431.7z M344.6,412.9c6.3-1.1,17.9-11.5,15-19.2
				c-1.2-3.1-4.8-3.5-7.4-2.1C348.1,393.7,342.5,403.5,344.6,412.9z M467.2,358c-12.8,3.3-11.2,24.8-3.3,20.9
				C471.2,375.3,472.7,362.5,467.2,358z M431.9,344.5c-6.8,5.4-7,34-6.3,34.3C438.5,358.4,435.7,346.3,431.9,344.5z"/>
			<path class="st1" d="M434.4,431.7c-12.1,6.8-15,41.3-15.5,43.5c-1.4,6.9-7.7,0.5-11.4,4.2c-2.3,2.3-1.8,4.6-3.6,5.4
				c-1.4,0.6-2.7,0.1-3.3-2.1c-3.4-13.8-3-12.9-3.7-13.2c-6.3,6.4-6.4,8.1-10.6,16.1c-2.9,5.6-7.8,8.5-12.1,3.9
				c-0.6-0.7-1.1-1.4-1.8-2.3c-2.5,7.1-4,11-7,13.6c-3.7,3.3-8.4,2.6-10.8-4.9c-1.4-4.4-2-10-2-11c0-2.4,3.3-2.7,3.6-0.3
				c0.5,4.5,2.7,16.4,6.1,13.5c3.8-3.2,6.8-13.2,7.8-18.1c0.3-1.5,1.1-2.2,2.2-2.2c3.4,0,0.9,5.4,5.5,9.4
				c4.2,3.6,8.5-16.8,17.5-21.3c5.8-2.9,6.6,6.1,8.2,12.2c3.4-4.6,6.1-4.3,11.3-3.6c1.1-6.5,2.8-33.9,15.5-45.3
				c3.9-3.5,8.8-1.9,8.8,6c0,15.3-3.2,29.6-0.6,45.7c2.5,15.3,9.1,25.1,17.6,12.2c17-25.8,3-57.8,7.4-64.7c1-1.5,3.2-0.8,3.2,0.7
				c0.1,3.4,2.1,6.4,3.7,9.4c0.7,0,1-6.9,5-14c2.7-4.7,8.1-10.4,11-5.9c1.6,2.5,2.9,14.9,13.2,13.6c14.1-1.8,24.7-18.9,15.8-28.4
				c-0.5-0.5-1-1-1.4-1.5c-1.4-1.9,1.2-4.2,2.9-2.6c18.2,16.5-10.6,45.1-25.8,34.6c-5.9-4.1-6.3-9.2-7.8-13.1
				c-10.9,9.6-7.4,24.5-11.4,25.1c-2.5,0.4-3.3-4.1-4.6-5.1c1.4,16.7,4.6,34.1-7.8,53.7c-9.9,15.8-26.3,9.4-26.2-28.4
				C433.7,451.4,436.9,434.8,434.4,431.7z"/>
			<path class="st1" d="M292.6,538.9c4.6-3.7,7.4-14.2,8.2-20.1c0.4-2.9,4.1-2.5,4,0.2c-0.2,5.7,3.9,13.1,6.4,11.2
				c15.7-11.6,18.9-65.7,17.3-65.1c-6.1,2.4-15.2,7.8-17.1,13.1c-1,2.9-5.4,0.9-2.6-3.2c18.6-27,69.2-12.1,85.2-39.3
				c2.9-5,1.8-7,4.2-6.8c1.3,0.1,2.5,1.4,1.7,3.7c-10,27.1-47.1,24.2-67.2,31.2c-0.1,1.4-0.3,2.7-0.1,4.2
				c3.4,19.4-1.7,52.7,12.7,81.5c6.9,13.7,17.8,22.4,28.5,11.2c10.5-11,9.1-25.6,9.3-40c0.1-4.4,4.3-3.7,4.2-0.9
				c-0.5,13.7,0.1,15.7-0.6,21.1c-3.2,24.4-22.9,39.9-39.1,19.6c-9.3-11.7-14.5-30.9-15.8-46.1c-3.2-37.3,2.1-14.5-11.3,11
				c-5.2,10-11.9,13.2-17.6,2.8c-1.8,5.2-3.2,10.2-7.1,13.4c-3.1,2.5-7.2,0.8-8.9-4.7c-1.7-5.5-1.4-11-0.9-12.3
				c0.8-2,3.7-1.3,3.4,0.8C288.8,529.6,289.6,535.6,292.6,538.9z"/>
			<path class="st1" d="M331.9,558.4c0-2,2.9-2.4,3.4-0.6c4.4,15.9,38,32.7,52.9-0.6c1.2-2.8,5.2-1.1,3.1,2.8
				C370.3,599.7,332.1,571.6,331.9,558.4z"/>
			<path class="st1" d="M302.8,364.1c1.7-5.2,2.7-8.5,5.2-13.6c8.1-16.8,26.5-26.7,35.6-25.5c4.4,0.6,4.9,3.3,3.4,4.3
				c-2,1.4-1.3-1.3-5.8-0.7c-1.3,0.2-2.7,0.4-4,0.9c-26,10.2-28.8,32.6-30.8,36.2C305.4,367.4,302.5,366.8,302.8,364.1z"/>
			<path class="st1" d="M243.3,463.5c-3.4,0.7-11.7,7.7-15.7,19.8c-2.2,6.6-2.4,10.6-3.5,17.9c-0.6,3.8-5.6,1.6-4-1.3
				c1.2-2.2,0.4-19.6,12-32.5C244.2,454,246.7,462.8,243.3,463.5z"/>
			<path class="st1" d="M462.3,508c-5,4.2-6.3-0.8-4.2-1.6c4.2-1.6,9.7-11.1,11.6-17.6c3-10,2.1-16.6,1.7-23.1c-0.2-2.7,3.8-3.1,4,0
				C476.8,481.1,474.1,498.1,462.3,508z"/>
			<path class="st1" d="M277.1,387.7c-13-2.5-23.6,5.6-33.1,14.9c-1.9,1.9-4.7-0.9-2.7-3c4.8-4.9,10-9.5,16.3-12.5
				c5.5-2.6,13.6-4.9,19.4-3.2C280.3,384.9,279.2,387.9,277.1,387.7z"/>
			<path class="st1" d="M272.8,569.8c-1.6-2,0.7-4.1,2.3-2.7c7,5.8,23.6,9,32.1,2.5c2.2-1.7,4.9,1.6,2.3,3.5
				C296.8,581.7,277,574.8,272.8,569.8z"/>
			<path class="st1" d="M533.1,410.7c-0.9,7.9-4.1,11.5-6.8,15.1c-1.9,2.5-5,0-3.4-2.1c1.9-2.5,6.2-7.2,6.2-14.7
				c0-7.4-2.9-14-5.8-15c-1.6-0.5-1.1-3.2,0.5-3.2C529.8,390.8,533.4,403.9,533.1,410.7z"/>
			<path class="st1" d="M305,336.2c10.3-13.3,22.3-18.1,29.4-17.8c2.4,0.1,2.3,3.4,0,3.5c-9.9,0.3-19.5,8.5-26.3,16.9
				C306.3,341,303,338.7,305,336.2z"/>
			<path class="st1" d="M352.3,434.1c-0.7-1.7,1.3-3.1,2.5-2.2c3.2,2.4,14.5,1.2,21.5-8.9c2.3-3.3,2.4-5.5,4.6-5
				c1.5,0.4,1.9,2.1,1.2,3.3C371.7,439.9,353.8,438.2,352.3,434.1z"/>
			<path class="st1" d="M219.6,481.7c-4.5,3.4-5.1,16.9-3.8,26.1c0.2,1.6-1.3,2.7-2.8,2.1c-2.6-1.1-3.8-22.4,3.6-30.5
				C218.9,476.9,222,479.9,219.6,481.7z"/>
			<path class="st1" d="M483.9,364.8c-0.3-1.4-0.8-2.6-2-3.5c-1.5-1-0.3-3.6,1.7-3c2.2,0.7,3.7,3.9,4.1,6.3c1.4,7.3-0.2,11.4-3.3,17
				c-1.7,3.1-4.9,0.9-3.8-1.3C482.1,377,485.6,372.3,483.9,364.8z"/>
			<path class="st1" d="M531.3,429.2c-2.1,2.2-5.2-0.5-3-2.6c4.5-4.5,8.8-8.1,9.6-14C538.4,408.3,548.9,410.9,531.3,429.2z"/>
			<path class="st1" d="M200.4,566.5c1.9-1,3.9,1.5,1.7,3.1c-5,3.6-6.3,7.8-7,13.1c-0.3,2.6-3.8,2.4-3.9-0.1
				C190.8,577.4,195.1,569.4,200.4,566.5z"/>
			<path class="st1" d="M293.8,586.9c-4.1-0.4-3.1-3.8-0.5-3.7c5.5,0.4,11.8-2.8,12.8-4.3c2-3,5.9,1.1,2.2,3.5
				C300.6,587.4,293.8,587,293.8,586.9z"/>
			<path class="st1" d="M479.9,497.1c-1.4,1.4-3.7-0.1-2.8-2c2.6-5.6,2.7-7.7,3-13.5c0.1-2.1,1.9-2.6,3.1-1.6
				C485.8,482.2,482,495,479.9,497.1z"/>
			<path class="st1" d="M425.9,330.1c-1.5,5.8-1.4,6.6-2.9,7c-1.5,0.5-3-0.7-2.3-2.6c1.5-4.1,2.2-7.2,0.7-11.2
				C420.2,320.3,426.2,317.2,425.9,330.1z"/>
			<path class="st1" d="M496.2,371.5c-1.7,5.7-1.6,5.5-2.2,6.1c-1.4,1.4-3.9,0.3-3.1-2c1.5-4.3,2.2-5.7,1.1-8.1
				C490.6,364.2,496.7,362,496.2,371.5z"/>
			<path class="st1" d="M404.3,425.8c-2.7-0.2-2.5-4.1-0.1-4C406.6,422,407,426,404.3,425.8z"/>
			<path class="st1" d="M391.5,549.5c0.2-2.6,4.1-2.1,3.9,0.4C395.1,552.4,391.2,552,391.5,549.5z"/>
			<path class="st1" d="M268.1,560.1c2.4,0.2,1.7,3.9-0.6,3.7C265.2,563.5,265.7,559.9,268.1,560.1z"/>
			<path class="st1" d="M206.8,559.3c2.5,0.3,2.1,3.8-0.3,3.5C204.1,562.5,204.2,559,206.8,559.3z"/>
			<path class="st1" d="M282.7,389.6c2.4,0.2,2,3.8-0.5,3.5C279.8,392.9,280.5,389.4,282.7,389.6z"/>
		</g>
		<g>
			<path class="st1" d="M533.7,211.8c-2.9,7.4-17.2,41.2-21.5,34.5c-1.5-2.3,1.5-3.7,2.2-4.9c5.4-8.4,12.5-21.1,14.9-29.5
				c-7.5-1.4-14-3.4-20.8-10.2c-9.7-9.7-21.2-22.6-25-35.7c-6.3-21.7,8-34.1,23.4-20c10.7,9.8,16.1,15.1,17,15.7
				c0-14.1,1.1-27.9,6.5-40.8c7.9-19,28.1-26,31.8-5.3c1.9,10.5,1.2,28.5-4.5,44.7c28.2-17.3,45-5.7,35.6,15.6
				C585,194.2,554,209.9,533.7,211.8z M535.1,207.7c11.1,1,55.8-18.7,56.9-41.9c0.3-5.6-3.4-9.8-8.6-9.8c-4.5,0-9.1,0.3-13.3,2
				c-20,8.4-16.4,15.7-20.4,14.3c-4.7-1.6,5.9-11.4,7.6-25.5c1.3-11,2.8-21,0.7-30.9c-4-18.6-31-11.4-30.2,50.3c0,2.1-2,3.7-4,1.7
				c-3.7-3.9-5.4-7.1-21.1-20.2c-12.3-10.3-20.2,1.1-15.6,17c3.7,12.6,12.5,21.4,22.2,32.6c6.8,7.8,13.9,10.2,21.7,10.5
				c1.3-4.3,2.5-8.3,3.8-12.6c-10-4.6-13.7-5.7-18.3-11.6c-1-1.3-1.5-2.7-0.1-3.5c2.9-1.7,2.2,4.3,12.6,8.3c2.3,0.9,4.4,1.9,6.8,3
				c8.8-34.2,3-50.2,7.9-49.6c2.2,0.3,1.5,2.2,1,12c-1.8,38.9-7.9,40.6-4,38.8c17.2-7.9,18.4-12.5,20.7-10.5c1.3,1.2,0,2.8-1.4,3.7
				c-19.3,11.6-15.1,9-21.9,12.2C537,201.2,536.1,204.4,535.1,207.7z"/>
			<path class="st1" d="M495.9,155.6c0.6-3.3,3.4-2.9,3.6-0.2c0.3,3.5,0,2.9,5.5,13.4c1.6,2.9-1.5,4.3-3,2.1
				C499.4,167,496.4,160.7,495.9,155.6z"/>
			<path class="st1" d="M544.5,137.6c-2.4-0.4-1.5-2.6,0.1-13.1c0.3-1.7,0.6-3.4,2.3-3.1c1.2,0.2,1.5,1.2,1.4,2.4
				C547,134.3,547.2,138,544.5,137.6z"/>
			<path class="st1" d="M565.5,177.6c2.7-3.2,5.8-4.8,9.2-9.6c1.5-2,4.2-0.1,2.7,2.1c-3.1,4.6-8.3,8.9-9,9.2
				C566.3,180.3,565.8,178.2,565.5,177.6z"/>
			<path class="st1" d="M509.7,176.8c-2.3-0.5-1.2-3.8,1-3.3C512.9,174,511.9,177.3,509.7,176.8z"/>
		</g>
		<g>
			<path class="st1" d="M278.4,339c-5.5,19.5-3.4,17.3-5.3,18.2c-0.9,0.4-3-0.1-2.3-2.8c1.1-4.7,2.2-9.3,3.3-13.9
				c-4.3-5.7-5.6-12.2-6.2-19c-1.1-12.3,3.2-19.4,13.4-42.4c0.8-1.9,2.3-2.3,3.8-1c3.9,3.5,7.8,6.8,10.8,11.1
				c9.6,13.6,7.1,27.6-2.6,41.1C289.4,335.5,284,336.9,278.4,339z M284.2,282.3c-1.3,1.9-8.8,19.7-10.1,22.9
				c-4.2,10.4-3.2,22,1.2,30.7c1-2.6,3.8-13.5,4.4-20.7c0.3-3.2-0.1-6.4,2.4-6.3c4.6,0.3-1.1,20.1-2.2,25.1c4.4-1.3,8-3.2,10.6-6.9
				C306.3,304.8,294,292.4,284.2,282.3z"/>
			<path class="st1" d="M241.9,295c1.9,5.8,2.1,6.1,2.4,9.3c0.3,2.9-3.3,3.5-3.8,0.4c-1.9-11.2-1.1-4.4-8.3-7.7
				c-10.4-4.8-19.5-13.5-23.6-37.2c-0.8-4.9-2.1-9.9-2.1-11c0-1.6,1.2-2.8,2.7-2.3c5.8,1.8,11.9,2.8,17.4,5.4
				c10.3,5,19.6,19.2,16.6,37.4C243,291.2,242.4,293,241.9,295z M239.2,289.7c1.4-4.7,1.3-13.2-1.5-19.6
				c-7.1-16.7-18.9-16.3-26.8-19.1c5.4,27.3,7.9,35,24.2,43.4c0.6,0.3,1.3,0.2,2.1,0.3c-1.8-7-13.8-21.7-13.9-21.8
				c-1.2-1.5,0.6-3.7,2.5-2.3C226.3,271,231.8,277.5,239.2,289.7z"/>
			<path class="st1" d="M187.2,246.8c-0.3,2.7-4,2.5-3.8-0.3c0.1-3.2,0.3-6.1,0.4-8.5c-5.2-1.4-9.6-2.3-13-10.6
				c-4.9-12.1-3.9-27.3-3.8-37.8c0-1.8,1.3-2.9,3-2.2c5.8,2.3,11.9,4.1,17.2,7.5c13.3,8.5,13.4,27.2,4.6,37.3
				C185.1,239.9,188.9,229.6,187.2,246.8z M187.2,231.3c4.5-5.1,7.7-9.6,6.5-19.2c-1.6-12.8-11-15.5-22.8-20.1
				c-0.3,14.1-1.2,40.4,12.7,42.2c-2.2-18.3-9.8-25.6-5.9-27c0.9-0.3,1.8,0.1,2.2,1.3C186.2,223.9,186.1,227,187.2,231.3z"/>
			<path class="st1" d="M249.4,343.7c10,11,9.7,10.5,10.3,11.5c1.4,2.3-1.3,4.4-3.1,2.3c-12.1-13.8-5.4-7.4-12.8-6
				c-14.4,2.7-22.3-8.5-40.1-24.5c-6.3-5.6,15.6-16.1,30.5-6.5C245,327.4,247.9,334.4,249.4,343.7z M245.2,345.6
				c-8.3-7.3-17-10.5-19.3-11.5c-2.1-0.9-1.3-3.7,1-3.3c5.9,1,18.2,10.1,17.9,9.1c-3.3-14.7-23.3-25-36.7-16.4
				c-1.7,1.1-1.2,0.9,0.1,2.1c20.9,19.2,22.5,23.8,35.6,22.3C245.1,347.8,245,346.8,245.2,345.6z"/>
			<path class="st1" d="M201.9,289.8c6.3,8.1,6,7.6,6.5,8.5c1.3,2.5-1.6,4.4-3.3,2c-0.9-1.3-4.1-5.5-5-6.4c-2.2,3.3-11.9,4.4-20-1.2
				c-7-4.8-8.9-9.9-18.8-26.9c-0.9-1.5-4.3-5,0.2-6.1c5.1-1.2,10.1-2,15.3-1.3c12.5,1.5,22.9,14.7,24.6,25.1
				C201.8,285.5,201.8,287.5,201.9,289.8z M164.4,263.1c10.8,17.8,14.1,31.9,32,29.4c0.3-0.7,0.5-1.1,0.7-1.6
				c-9.6-8.8-14.6-11.3-20.1-15c-2-1.4-0.5-4,1.8-2.9c5.8,2.8,19.2,13.4,19.2,13.4c-1.2-8.8-6-16.6-14.6-21.8
				C177.4,261,171,261.8,164.4,263.1z"/>
			<path class="st1" d="M212.3,304.1c1.8,1.7-0.5,4.4-2.4,2.6C208.1,305,210.7,302.6,212.3,304.1z"/>
			<path class="st1" d="M286.3,299.1c1.6,1.4-0.5,3.9-2.1,2.5C282.4,300.2,284.6,297.7,286.3,299.1z"/>
			<path class="st1" d="M222.6,266c-1.6,2-4.6-0.6-2.9-2.5C221.4,261.7,224.2,264.1,222.6,266z"/>
			<path class="st1" d="M177.7,200.9c1.5,1.2-0.3,3.6-1.9,2.4C174.1,202.1,176.1,199.6,177.7,200.9z"/>
			<path class="st1" d="M221.5,327c2,1.7-0.6,4.5-2.5,2.8C217.2,328.2,219.6,325.4,221.5,327z"/>
		</g>
		<g>
			<path class="st1" d="M121.5,291.7c0.4,0.5,1.6,1.2,1.8,1.5c18,17.1,10.8,10.5,30.8,33.4c7.5,8.5,15,17,22.5,25.5
				c5.4,6.2,10.7,12.5,16.1,18.7c7.9,9,14,13.6,15.5,15.3c1.1,1.4,0.1,3.3-1.7,3.1c-1.9-0.2-2-1-3.3-0.5c-3.6,1.3-4.7,4.7-4.6,8.6
				c0,1.3,0.1,2.4-1.1,3c-2,1.1-2.5-1.1-4.9-1.1c-0.2,0-0.4,0.1-0.7,0.1c5,7.7,10,15.4,15,23c2.2-0.9,3.7-1.8,5.1-0.7
				c0.2,0.2,1.2,0,2,1.2c3.1,4.7,7.4,10.3,9.3,21.1c1.3,7.4,0.2,15-6,19.5c-3.7,2.7-9,2.1-13.4,0.8c-8.3-2.4-14.2-8-15.9-16.6
				c-0.6-3,0.1-5.6,2.5-7.7c0.6-0.6,1.2-1.2,1.9-1.7c1.4-1,3-0.8,4,0.6c2,2.8,3.3,9,8.5,10.2c1.2,0.3,2.2-0.4,2.7-1.5
				c0.6-1.3,0.6-2.6,0.3-4c-0.3-2.1-2.6-8-5.1-11.7c-2.6-3.9-1.8-5.3,0.6-7.3c-5-7.9-9.9-15.7-14.9-23.6c-1.4,2-1.1,3.1-1.5,4.7
				c-0.4,1.4-1.8,2.1-3.1,1.5c-0.7-0.3-3.4-2.7-5.9,0.1c-1.3,1.5-2.3,4.2-4.4,3.3c-2.4-1-2.9-3.8-10.1-24.1
				c-12.1-34.1-40.9-82.8-44.2-90.1c-0.2-0.5-0.3-1.1-0.3-1.7c-10.7-13.2-10.2-12.5-10.4-13c-0.7-1.4,0.2-3,1.8-3
				C111.9,278.6,109.9,276.9,121.5,291.7z M138,314.1C137.9,314.1,137.9,314.1,138,314.1c0,0.3,0.1,0.5,0.2,0.6
				c22,33.7,23.5,34.7,56.5,77.6c0.1,0.1,0.2,0.2,0.4,0.4c1.1-3.5,3.1-6.2,6.7-7.4c-10.3-8.8-11.9-11.6-27.1-29.2
				c-12.1-13.9-24.5-27.5-36.3-41.6C138.3,314.3,138.1,314.2,138,314.1z M205,428.2c2.6,3.9,4.6,6.8,6.5,13.5c1.9,6.6-2,13-8.6,11
				c-1.5-0.5-2.8-1.4-4-2.5c-2.6-2.2-3.7-5-5.1-7.8c-1.7,1.1-2.3,2.6-1.9,4.4c0.8,3.9,2.8,7.6,6.1,10.1c4.1,3,9.6,4.6,13.6,4.4
				c3.7-0.2,6.6-3.8,7.5-7.4c2-8-1.8-18.8-6.5-25.7c-0.8-1.1-1.5-2.2-2.2-3.4C209,425.3,206.2,427,205,428.2z M138,322
				c-0.1,0-0.1,0-0.2,0.1c0.1,0.2,0.2,0.5,0.3,0.7c29.9,57.3,30.9,68.5,36.2,82.3c1-0.8,1.9-1.7,2.9-2.2c1.1-0.5,2.3-0.7,3.6-1.1
				c-5.1-9.5-8.5-14.7-15.7-30.3c-4.8-10.4-9.7-20.8-15.5-30.7C145.8,334.1,142.4,328.1,138,322z M192.1,395.2
				c-9.3-12-18.6-24-27.9-35.9c6,14,13,27.5,20.1,40.9C186.8,396.6,186.9,396.5,192.1,395.2z"/>
			<path class="st1" d="M196.1,368.1c-1.4-1.2-13.3-12.8-20.2-20.8c-1.4-1.6-1.1-3-0.1-3.7c1.6-1,2.6,0.5,3.9,1.9
				c20,21.2,18.7,19.9,18.8,20C199.6,367.2,198.1,369.2,196.1,368.1z"/>
			<path class="st1" d="M198.8,470c-3.6-2.4-4.4-2.7-5.1-4.3c-0.7-1.6,1.2-3.5,3.1-2.1c3.1,2.4,6.4,5.2,13.2,5.1
				c1.4,0,2.7-0.2,4-0.8c1.1-0.4,2-0.1,2.5,0.8c1.2,2.7-3.8,3.6-6.7,3.7C206.1,472.6,202.7,471.8,198.8,470z"/>
			<path class="st1" d="M149.9,316.3c0.6-1.2,1.8-1.6,2.7-1c0.9,0.6,7.9,8.9,12.1,13.3c1.8,1.8-0.6,4.1-2.3,2.6
				c-3.5-3.1-4.3-4.1-11.4-11.9C150.3,318.5,149.5,317.2,149.9,316.3z"/>
			<path class="st1" d="M139.6,300.9c0.3,0.2,0.5,0.4,0.7,0.7c5.1,5.8,5.3,6,5.5,6.7c0.4,1.3-1.1,2.5-2.3,2c-0.8-0.3-0.8-0.3-5.9-6
				C135.6,302.1,138,299.9,139.6,300.9z"/>
			<path class="st1" d="M169.2,337.7c0.4-0.9,1.4-1.2,2.3-0.9c0.9,0.4,1.4,1.7,1,2.6c-0.4,0.9-1.4,1.3-2.3,0.9
				C169.2,339.8,168.7,338.6,169.2,337.7z"/>
			<path class="st1" d="M188.1,458.1c0.5-0.9,1.5-1.3,2.4-0.9c0.9,0.4,1.3,1.6,0.8,2.5C190.1,461.9,187,460.3,188.1,458.1z"/>
			<path class="st1" d="M216.9,452.8c-2.1,4.2-5.5,6.3-7,6.6c-2.1,0.3-3.3-2.3-1.2-3.6c2.1-1.3,5.5-3,5.5-7.7c0-2.3,3-2.4,3.4-0.6
				C218.1,449.4,217.6,450.4,216.9,452.8z"/>
		</g>
		<g>
			<path class="st1" d="M159.1,478c12,10.6,33.4,31.9,39.2,38.6c5.8,6.6,1.1,12.9-5.9,16.7c-9.2,4.9-22.2-18.2-44.5-37.3
				c-5.6-4.8-1.9-3.3-14.5,4.5c-2.7,1.7-5.7,3.1-8.8,4.2c-4.5,1.6-10.5-1-13.6-5.3c-6.6-8.9-4.7-17.9-6.1-29.7
				c-1.5-12.8-11.8-15.9-5.5-31.3c3.9-9.5,15.6-13.2,27.7-5.4c23.5,15.2,26.4,5.6,39.1,6.9c7.5,0.8,12.8,8.1,5.6,20.3
				C169.2,464.5,162,474.1,159.1,478z M152,481.1c15-19.4,31.2-39.3,6.9-36.8c-2.5,0.3-14.3,4.2-26.5-3.4
				c-9.3-5.8-11.4-7.1-15.8-7.9c-7.5-1.4-14,3.7-14.8,11.3c-0.9,9.2,0.6,7.9,4.2,15.7c3.3,7.2,2.9,15.3,3.9,26
				c0.9,10.8,8.5,17,13.9,15C132.8,497.7,145.2,487.1,152,481.1z M147.1,490.7c1.5,1.4,6.7,4.9,15.5,14.1
				c24.4,25.3,20.9,21.8,25.1,24.8c2.7,1.9,7.2-2.8,8.5-4.9c1.7-2.6,1.8-3.2-5.4-10.6c0,0-23.1-23.6-32.7-31.8
				C156.8,481.3,158.2,480.6,147.1,490.7z"/>
			<path class="st1" d="M122.6,468.5c-1.3,1.2-3.1,0.9-3.3-0.5c-0.7-3.9-3.2-6.7-5.1-9.9c-10.4-17.6,1.9-19.6-0.1-14.2
				C111.3,451.7,123.5,461.6,122.6,468.5z"/>
			<path class="st1" d="M124.8,475.7c1,2.6,2.4,7.1-0.3,6.6c-2.2-0.4-3.4-5.3-1.5-6.5C123.3,475.5,124.1,475.7,124.8,475.7z"/>
		</g>
		<g>
			<path class="st1" d="M453.1,314.8c-16.6,11.6-13.6,11.2-15.6,10.7c-1-0.3-2.2-1.9,0-3.6c3.8-2.9,7.6-5.8,11.3-8.7
				c0.3-7.1,3.4-13,7.2-18.7c6.9-10.2,14.7-13,37.2-24.3c1.9-0.9,3.2-0.4,3.5,1.6c0.8,5.1,1.7,10.2,1.4,15.5
				c-1.2,16.7-11.9,25.9-28.1,30.1C463.8,319.1,458.8,316.8,453.1,314.8z M493.4,274.6c-2.2,0.7-19.3,9.6-22.4,11.4
				c-9.8,5.4-16.4,15-18.5,24.6c2.4-1.3,11.5-8.1,16.5-13.2c2.3-2.3,4-5,5.8-3.3c3.4,3.2-13.6,14.8-17.6,18.1
				c4.2,1.8,8.3,2.6,12.6,1.4C496.3,306.1,494.7,288.7,493.4,274.6z"/>
			<path class="st1" d="M484.4,288.9c0.4,2.1-2.9,2.7-3.2,0.6C480.8,287.4,484.1,286.8,484.4,288.9z"/>
		</g>
		<g>
			<path class="st1" d="M494,597.7c14.6,3.8,12.5,11.3,8.1,13.7c-11.1,6.2-38.7-3.2-42.9-10.7c-35.1,17.2-20.9,7.6-3.8,13
				c6.7,2.1,13.1,4.7,12.3,11.7c-0.8,7.1-9.9,7.2-16.5,4.3c-24.1-10.7-17.2-7.7-28.6-11.9c-15.7,6.5-14.6,6-14.6,6.3
				c11.1,1.2,31.3,3.4,33.7,14.3c1.1,5-3.7,6.6-8.9,6.9c-11.9,0.9-33.5-12.9-39.4-15.7c-27.8,10.2-17.3,2.1,9,14.3
				c16.2,7.5,5.7,22.5-17.5,9.6c-14.3-7.9-14.9-9.3-20.4-13.6c-22.9,6.1-21.1,5.3-18.4,5.7c6.5,1.1,16,6.1,18.8,12.1
				c3.5,7.4-6.4,12.2-15.8,7c-7.4-4.1-12.1-10.4-17.5-16.7c-12,2.1-19.6,3.2-24.5,3.7c-11.9,1.1-14.1-4.2-2.1-4.7
				c12.4-0.5,19.6-1.7,25.1-2.7c0.8-8.2-5.4-22.3,5.3-36.6c9.2-12.1,26.8-1.2,7.1,33.9c7.2-1.6,14.1-3.4,21.1-5.6
				c-3.5-11-10.7-27.1,0.6-42.7c9.9-13.7,26.1,2.6,14.7,28.2c-2.9,6.5-4.4,9.3-5.1,11.3c20.9-7.6,19.8-7,19.5-7.8
				c-2.2-6.7-2.7-13.6-3-20.6c-0.2-5.1,1.8-9.8,4.1-14.2c10-20.1,25.1-6.3,16.9,17.2c-1.7,4.8-4.3,9.2-6.8,13.8
				c5.9-2.5,11.9-4.9,17.9-7.4c-2.1-13-2.1-10.5-3.3-17.9c-1.3-8.1-0.6-23.1,6.6-28c7.9-5.4,13.7,5,13.9,14.7
				c0.3,12.5-3.6,21.8-4.8,25.8c7.6-3.7,15-7.3,22.3-10.9c-13.4-15.1-9-48.1,1-56.8c5.4-4.8,10.1,1.7,11,7.4
				c4.6,29-4.7,41.2-4.8,45.4c7.4-3.6,14.5-7.9,21.6-12.2c-0.2-2.7-7.2-19.1,4.3-42.2c6.3-12.8,28-12.4,5.4,35.9
				c2.5-1.3,13.1-8.3,16.3-10.5c1.6-1.1,2.6-3,3.7-4.4c-0.7-3.9-0.3-7.5,0.2-11.1c1.5-11.2,0.7-19.3,10-34.6c2.9-4.7,9.5-5.7,11-0.3
				c3.1,11.3-8.8,34.3-14.4,42.8c6.7-4.5,12.8-9.6,18.7-15.1c-0.2-8.1,5.9-22.4,9.6-28.4c12.1-19.1,28.5-15.1,21.1,1.9
				c-4.7,10.9-15.2,22.4-24.2,28.2c-7.5,4.8,3.7-5.1-17.1,12.7c8.8-2.5,16.6-4.7,27-4.4c4,0.1,9.9,0.9,12.8,3.2
				c14.1,11.3-30.5,25.2-55,11.8C496,579.4,497.9,578,498,578.6c5.1-1.8,14.7-1.6,21.1-0.9c13.4,1.5,21.6,11.9,3,16.4
				c-4.5,1.1-9.1,1.3-13.7,0.1c-4.1-1-8.3-1.8-12.2-3.3c-14.3-5.2-4.8-8.5-23.5,2.4C472.7,594.3,477.7,593.4,494,597.7z
				 M462.1,542.5c-9.8,7-14.1,37.8-2.8,51.7c6.2-14.1,9.2-25.8,5.9-46C464.8,546.2,463.9,544.3,462.1,542.5z M367.1,634.9
				c22.3-29.4,7.8-54.1-1.5-36.7c-7.6,14.2-1.8,27.1,1.1,36.3C366.8,634.6,366.9,634.7,367.1,634.9z M519.4,564.4
				c14.7,6.8,50,3.3,49.3-5.3c-0.1-1.4-1.3-1.6-2.3-2C552.3,551.1,519.4,563.9,519.4,564.4z M426.2,611.9c8.3-2.6,9.8-23.1,9.4-31.6
				c-0.2-4.5-3.4-12.6-8.3-8.8C418.4,578.3,424.2,602.4,426.2,611.9z M396.4,623.6c0.2,0,0.4,0.1,0.6,0.1
				c21.5-27.7,10.4-43.8,5.7-38.3C391.9,597.6,393.2,607.5,396.4,623.6z M544.8,540.1c1.9,1.1,26-20.6,25-33.5
				c-0.3-4.3-12.4-4.4-23.3,25.5C545.9,533.7,544.9,537.9,544.8,540.1z M336.8,643c4.8-6.9,10.7-19.4,10.6-27.7c0-2-0.4-4.1-0.8-6.1
				c-1.1-4.9-12.1-0.8-13.6,14.8c-0.6,6.5,0.5,17.1,1.2,19.6C335.1,643.3,335.9,643.1,336.8,643z M500.1,535.5
				c-1.3,0.5-4.4,0.9-6.8,6c-5.6,11.7-7.4,24.2-4.4,36.7c5-8.3,9.7-16.8,11.5-28.7C501.9,539.5,502.2,537.8,500.1,535.5z
				 M462.7,598.9c1.9,4.8,27.8,14.4,37.4,9.2c4.1-2.3-2-5.1-6.5-6.4c-8-2.3-16.2-3.4-24.4-4.5C466.7,596.8,464.6,597.4,462.7,598.9z
				 M529,586.9c-1.6-7.1-27.5-7.2-37.7-2.7C495.3,587.3,515.8,595.7,529,586.9z M437.7,640.4c1.5-9.6-27.8-13.3-38-12.2
				c1.7,1.5,23.8,14.6,34.8,13.1C435.6,641.2,436.7,640.7,437.7,640.4z M518.9,554.4c0.9,0.3,16.7-24.6,14-40.3
				c-1,0.3-1.7,0.4-2.2,0.8c-3.6,2.9-8.5,14.5-9.7,22.1C520.7,539.2,518.9,552.2,518.9,554.4z M370,639.6c4.4,3.4,16.5,10.8,23.4,14
				c5.6,2.6,16,1.4,11.9-3C399.1,644,370.7,638,370,639.6z M429.7,615.8c0,0.4-0.1,0.3,0.4,0.6c23.8,10.3,25.6,11.8,30.7,11
				C467.4,626.4,466,614.1,429.7,615.8z M337.1,648.7c4.3,4.8,7.4,8.6,12.8,12c4.9,3.1,13.7,3.2,11.3-1.6
				C358.1,653,345.3,648,337.1,648.7z"/>
			<path class="st1" d="M584,526.3c-2.5-4,7.2-2.2,35-35.3c4.5-5.4,11.6-14.9,12.3-15.7c1.5-1.7,4,0.2,2.7,2.1
				C623,494.1,587.8,532.4,584,526.3z"/>
			<path class="st1" d="M621.6,405.4c1.2,1.5-1,2.5-2,5.1c-6.3,16.3-5.6,17.1-15.9,34.9c-8.4,14.6-8.1,15.7-10.2,15.1
				c-5.9-1.7,9.7-16,20.4-45.5C615.5,410.6,618.7,401.6,621.6,405.4z"/>
			<path class="st1" d="M566.6,473.4c-1.4,1.6-4-0.4-3.3-2.3c1.7-4.2,7-9.7,19-36.8c4.3-9.7,4.6-13,5.6-15.5c1-2.4,4-1.2,3.3,1
				C580.9,452,571.4,463.8,566.6,473.4z"/>
			<path class="st1" d="M613.6,470.5c-8.4,9.5-9.2,11.4-11.2,9.8c-1.8-1.6,0.5-3.9,2.9-6.3c12.6-12.5,16.2-27.6,19.8-25.1
				C627.1,450.2,625.7,452.2,613.6,470.5z"/>
			<path class="st1" d="M579,487.5c-4,6-5.9,0.7-4.1-1.2c3.9-4.3,6.8-9.2,10-14c1.6-2.4,4.1-0.6,3.1,1.5
				C586,477.8,578.8,487.3,579,487.5z"/>
			<path class="st1" d="M537.9,495.3c-1.8,1.8-3.8,0.2-3.3-1.6c3.9-14,5.1-17,7.4-15.9c1.9,1,0.4,2.8-0.6,6
				C539.5,489.8,538.9,492.3,537.9,495.3z"/>
			<path class="st1" d="M553.8,447.3c2.3-3.2,4.6-1.1,3.3,1.4c-8.6,16.6-5.3,10.7-6.3,12.4c-1.3,2.2-4.3,0.8-3.3-1.5
				C548.3,457.6,549.1,456.1,553.8,447.3z"/>
			<path class="st1" d="M596.7,490.3c2,1.4,0.6,2.2-8.8,12.1c-1.7,1.8-3.5,1-3.7-0.6c-0.3-2.1,1.5-2.4,5.4-6.3
				C593.3,491.7,594.8,488.9,596.7,490.3z"/>
			<path class="st1" d="M553.2,496.1c-1.4,1.9-4.6,0.3-2.8-2.4c4.9-7.4,4.9-7.6,5.3-8.1c1.6-2,4.1-0.1,2.9,1.9
				C555.5,492.8,554.7,493.8,553.2,496.1z"/>
			<path class="st1" d="M632,439.2c-1.9-1.6,1.1-4.2,2.9-2.9C637,437.9,633.9,440.8,632,439.2z"/>
			<path class="st1" d="M644.5,421.1c-2.1-1.5,0.3-4.6,2.3-3C648.7,419.5,646.5,422.5,644.5,421.1z"/>
			<path class="st1" d="M543.4,471.1c1.4-2,4.5,0,3,1.9C545,475,542.1,473,543.4,471.1z"/>
		</g>
		<path class="st1" d="M562.2,404.7c-10.2,0.8-9.6,0.8-10.6,0.7c-2.8-0.3-2.8-3.8,0.2-3.9c1.6-0.1,6.9-0.3,8.1-0.6
			c-1.5-3.7,3-12.3,12.1-15.9c7.9-3.1,13.2-1.9,32.8-0.6c1.8,0.1,6.6-0.8,4.9,3.6c-1.9,4.9-4,9.5-7.4,13.4
			c-8.2,9.6-24.9,10.9-34.5,6.5C565.9,407,564.2,405.8,562.2,404.7z M605.3,388.3c-20.8-0.9-34.4-6-42.2,10.2c0.4,0.6,0.6,1,0.9,1.4
			c12.7-3.1,17.5-5.8,23.6-8.3c2.3-0.9,3.6,1.9,1.5,3.1c-5.5,3.3-21.8,8.5-21.8,8.5c8,3.9,17.2,4.3,26.3,0
			C599.8,400.4,602.7,394.5,605.3,388.3z"/>
		<g>
			<path class="st1" d="M505.2,505.3c-3.1,5.3-3.1,5.6-5.4,8c-2,2.1-4.8-0.2-2.9-2.6c7.1-8.8,2.5-3.8,0.2-11.3
				c-3.3-11-2.8-23.6,12.2-42.3c3.1-3.9,6-8.1,6.9-8.9c1.2-1,2.9-0.9,3.6,0.5c2.5,5.6,5.8,10.7,7.5,16.6c3.1,11-1.4,27.4-16.9,37.2
				C508.8,503.5,507,504.3,505.2,505.3z M507.4,499.7c4.5-2.1,10.7-7.8,13.7-14.1c7.8-16.3-0.3-25-3.5-32.7
				c-16.9,22.1-20.9,29.1-16.5,46.9c0.2,0.6,0.7,1.1,1.1,1.8c4-6,7.1-24.8,7.1-24.8c0.4-1.9,3.2-2,3.4,0.3
				C512.8,477.6,511.5,486.1,507.4,499.7z"/>
			<path class="st1" d="M514.1,471.6c-2.6,0.1-2.6-3.8-0.1-3.8C516.5,467.8,516.6,471.5,514.1,471.6z"/>
		</g>
		<g>
			<path class="st1" d="M425.6,539.8c-13.2,2.6-29.3-6.8-30-22.6c-0.3-6.3,1.2-12.5,2.1-18.7c0.3-1.8,1.8-2.4,3.4-1.5
				c9.1,5.1,22.9,11.8,30.9,22.2c5.5,7,4.1,11.4,2.7,16.5c2.1,1.1,4.7,2.4,7.6,3.9c2.5,1.3,0.8,4.6-1.6,3.5
				C424.8,536,435.5,537.8,425.6,539.8z M411,517.7c-0.8-1-0.7-1.9,0-2.6c3.1-2.7,5.6,7.5,20.4,18.6c5.3-13-17.9-25.4-30.3-32.1
				c-1.9,12.6-4.2,22.1,6,29.8c7.8,5.9,13.3,5.3,19.9,3.9C424,532.3,421.2,530.7,411,517.7z"/>
			<path class="st1" d="M405.5,511.9c0.3,1.9,3.3,1.6,3-0.5C408.3,509.4,405.2,509.9,405.5,511.9z"/>
		</g>
		<g>
			<path class="st1" d="M274.9,581c9.8,0.8,10.8,9,11.4,11.1c0.4,1.4,3.7,4.9,8.7,14.8c10.3,20.8,4.6,45.9-19,35
				c-5.4-2.5-15.7-8.5-19.6-12.9c-14.6,1.2-21.5-15.1-6-34.8c-0.3-1.2-5.5-6.6-5.5-16.4c0-3.1,4-3,4-0.1c-0.1,6.2,2.5,10.3,4.1,13.6
				C259.1,585.6,266.7,580.3,274.9,581z M261.3,600.9c1.9,1.9-0.5,4.3-2.3,2.7c-6-5.3-5.8-6.5-6.3-5.9c-12.5,16.3-7.7,32.9,9.1,25.6
				c13.5-5.9,23-22.8,20.1-32.5c-3.5-11.6-21.2-3.5-26.4,3.7C257.8,597.3,257.4,597,261.3,600.9z M261.2,628
				c10.5,8.4,28.7,19.4,33.3,6.7c5.5-15-7.4-33.4-8.3-35.9C282.5,612.7,274.3,622.3,261.2,628z"/>
			<path class="st1" d="M297.2,602.5c-1.4,1.6,0.9,2.9,2.6,6.5c3.9,8.4,3.1,22.3,3.1,22.4c0.2,2.5,3.6,2.5,3.9,0.2
				C308.6,616.7,301,598.2,297.2,602.5z"/>
			<path class="st1" d="M232.2,612.3c-0.1,3.3,3.7,3.6,4,0.6c1.8-17.3,11-16.4,7.8-19.7c-0.7-0.7-1.8-0.8-2.7,0.1
				C234.2,600.5,233.1,604.3,232.2,612.3z"/>
			<path class="st1" d="M238,626.7c1.7,1.8,4.5-0.5,2.7-2.6c-1.7-2-3-2.8-3.6-5.1C236.4,616.3,229.1,617.1,238,626.7z"/>
			<path class="st1" d="M301,639.5c0.1,2.5,3.6,2.5,3.6,0.2C304.5,637.3,300.9,637.1,301,639.5z"/>
			<path class="st1" d="M245,628.2c-2.4,0-2.2,3.7,0.1,3.7C247.5,631.8,247.4,628.1,245,628.2z"/>
		</g>
	</g>
</g>
</svg>
