<?xml version="1.0" encoding="utf-8"?>
<!-- Generator: Adobe Illustrator 22.0.0, SVG Export Plug-In . SVG Version: 6.00 Build 0)  -->
<svg version="1.1" id="Layer_2" xmlns="http://www.w3.org/2000/svg" xmlns:xlink="http://www.w3.org/1999/xlink" x="0px" y="0px"
	 viewBox="0 0 737 737" style="enable-background:new 0 0 737 737;" xml:space="preserve">
<style type="text/css">
	.st0{clip-path:url(#SVGID_2_);fill:#DD4522;}
	.st1{clip-path:url(#SVGID_2_);}
	.st2{fill:#FFFFFF;}
</style>
<g>
	<defs>
		
			<rect id="SVGID_1_" x="2.3" y="0" transform="matrix(-1 -4.489665e-11 4.489665e-11 -1 741.5775 737.0079)" width="737" height="737"/>
	</defs>
	<clipPath id="SVGID_2_">
		<use xlink:href="#SVGID_1_"  style="overflow:visible;"/>
	</clipPath>
	<rect x="0" class="st0" width="737" height="737"/>
	<g class="st1">
		<path class="st2" d="M138,363.2c1.1-5.2,1.5-8.9,3.8-12.1c3.5-4.7,7-0.2,5.2,2c-3,3.4-7.6,18.2,7.1,29.9c5.5,4.4,8.9,5,7.7,8
			c-0.7,1.8-3,2.8-5.7,1C144.5,384.4,138,376.9,138,363.2z"/>
		<path class="st2" d="M377.8,489c-12.2-2.1-6.3-8.9-3.4-6.7c7.2,5.4,23-4.4,34.2-18.6c2.3-3,6.3-0.2,5.1,2.9
			C413.1,468,398,489,377.8,489z"/>
		<path class="st2" d="M282.4,362.4c-2.4,16.8-4.5,57.3-2.2,61.1c2.6,4.2-5,7.2-6.1,1.7c-2.4-12.9,0.5-47.9,1.9-61.3
			c-0.1,0-59.8,17.4-59.9,17.4c-12.5,24.7-22,55-38.7,68.5c-17.6,14.3-29-3.7-26.2-12.3c1-3.2,5.8-2.3,5.1,1.5
			c-0.9,4.8,4.5,13.9,13.7,8.8c13.5-7.6,23.4-29.9,38.6-64.8c-14.6,2.6-33.5,5.4-46.8-2.4c-4.9-2.9-9.3-7.6-9.4-13.3
			c-0.1-7.4,1.4-17.9,8-21.4c2.6-1.4,5.1,2.6,2.7,4.4c-4.4,3.2-5.1,11-4.9,16.4c0.2,3.5,2,2.7,3.5,6.7c10.8,9.9,36.1,5.8,50.2,2.7
			c13.2-25.7,42.2-76.9,66.4-92.7c10.4-6.8,16.7-3.8,18.7,2.5c5.3,16.1-14.5,60.6-13.3,70.2c36.2-4.5,22.2,16.6,31,14.9
			c7.4-1.5,15.6-10.2,20.2-11.9c10.6-3.8,3.3,17.4,6.8,24.4c1.4,2.8-1.1,4.9-3.5,4.1c-3.9-1.4-3.5-6.3-3.5-21.5
			c-6.5,4.4-13.9,11.4-22.1,11c-5.3-0.3-6.4-4.6-7.8-9.7C302.5,358.6,291.6,360.8,282.4,362.4z M219.7,373.9
			c1,1.4,37.4-11.9,57.4-16.5c0.7-2.2,3.1-14.1,5.8-24.5c4.2-16.4,17.5-56.6,0.8-45.8C259,303.2,233.4,347.8,219.7,373.9z"/>
		<path class="st2" d="M540,372.1c0.2,3.8-6.4,5.4-6.6,0.6c-0.1-1.1,0-2.2-0.2-3.4c-9.1,16-11.2,20.9-17.2,25.9
			c-6,5-12.5,7.2-17.6,1.2c-14.5-16.7,7.7-54.4,11.6-68.4c-21.3,4.1-35.8,36.4-44.3,52.3c-4.3,8.1-7.9,0.6-9.6-1.6
			c-4.6,2.1-3.2,3.3-4.5,4.2c-1.9,1.4-6.7,1.7-7.1-2.7c-1.3-16.9,1.1-19.1-14.7-6.6c-6.2,4.9-11.2,10.9-17.4,6.2
			c-3.7-2.8-4.3-6.2-5-9.2c-4.6,4-10.1,12.6-17.2,14.6c-8.9,2.5-9.2-13.2-6.7-22.5c1.3-5,6.6-2.6,5.4,1c-1.4,4.2-1.7,10.4-0.1,15.9
			c4.9-2.4,8.9-7.7,13.7-12.6c5.6-5.7,9.4-4.1,10.4,0.1c0.8,3.6,0.6,6,3.1,7.9c0.7,0.5,1.5,0.7,2.2,0.2c6.3-4.3,26.4-24.7,30.6-10.9
			c0.9,3.1,1.3,9.3,1.5,11.7c3.8-3,7.5-4.2,11.1,0.1c9-16.3,15.5-34,34.6-47.9c3.8-2.8,10.4-6.7,15-5.8c13.7,2.7-5.5,24.6-10.2,49.7
			c-5.5,29,10.7,34.2,32.2-15.9c3.8-8.8,8.4-5.1,7.6-2c-1.1,4.1-1.3,8-1.1,12.3c11.3-2.5,19.7,6.6,36.2,11.9
			c43.1,13.6,78.8-18.1,77.6-47.8c-1.1-26-27.2-30.5-34.5-16.6c-0.6,1.2-0.7,2.5-0.1,3.8c1.5,3.8-3.4,6-5.4,2.5
			c-5.7-10.3,12.5-26.4,30-17.4c33.6,17.3,12.9,79.7-41,84.5C568.2,390.4,549.1,367.6,540,372.1z"/>
		<path class="st2" d="M366,338.1c-16.4-3.6-32.5-6.3-46.7,3.5c-1.6,1.1-2.7,2.7-3,4.8c-0.5,3.6-5.5,2.9-5.2-0.5
			c0.8-9,11.5-13.9,20.3-15.8c32.2-7.1,57,16.4,96.6,14.3c21.5-1.2,45.1-10.4,59.2-28c7.7-9.7,7.6-17.8,9.3-21.7
			c1.4-3.2,6.8-2.4,5.3,2.9c-2.7,10-3.6,15.3-11.9,24.8c-15.6,17.9-40,26.8-63,28c-22.5,1.2-35.6-4.6-56.2-10.8
			c-7.6,26.3-18.5,66-17.3,94.7c1.4,33.4,20.4,43.4,36.3,29.5c13.5-11.8,18.1-28.4,23-35.3c2.4-3.3,7.1-0.6,4.9,3.4
			C409.5,447,403.6,462,390,471c-22.9,15.3-66.2-1.5-25.2-130.4C365.1,339.8,365.5,339.1,366,338.1z"/>
		<path class="st2" d="M307.3,312.9c-0.9,2.9-3.2,3.6-4.9,2.7c-3.4-1.8,0.5-6.5,3.2-19.5c2.4-11.8-0.9-26.6-12.5-30.2
			c-1.6-0.5-2.5-1.6-2.3-3.1c1-6.2,18.6,1.4,21,20.3C313.3,294.5,311.1,300.5,307.3,312.9z"/>
		<path class="st2" d="M421.7,456.2c-0.9,1.8-2.2,2.2-3.5,1.7c-7.1-2.6,11.8-18.4,12.3-44.6c0-1.8-1.3-3.2,0.4-4.7
			c1.8-1.7,5.3-0.8,5.6,2.5C438.1,427.7,427.8,444.9,421.7,456.2z"/>
		<path class="st2" d="M515.7,314.4c-3.2-2.2-0.6-5.8,2.2-4.8c5.1,1.9,10.2,7.5,10.8,14.8c0.7,9-2.8,14.1-8.7,25.4
			c-1.9,3.6-7.1,1-5.3-2.7C521.9,332.6,529,323.6,515.7,314.4z"/>
		<path class="st2" d="M644,336.3c-0.8,6.6-3.6,19.5-8.7,15.3c-2.6-2.2,1-5.6,2.1-11.2c1.9-10.3-2.1-18.1-6.8-20.9
			C623.9,315.4,639.4,305.1,644,336.3z"/>
		<path class="st2" d="M303.2,327.1c-0.8,2.9-3.3,7.9-4.7,14.3c-1.3,5.7-7.7,3.8-5.8-0.7c0-0.1,4.9-14.3,6-15.5
			C300.1,323.4,303.1,324.3,303.2,327.1z"/>
		<path class="st2" d="M174.4,393.1c-0.2,4.5-5.5,3.8-5.4,0.2C169.2,389.5,174.6,389.1,174.4,393.1z"/>
		<path class="st2" d="M629.2,362c-3.8-0.2-3.1-5.9,0.3-5.7C632.7,356.5,633.1,362.2,629.2,362z"/>
		<path class="st2" d="M358.2,480.7c0.1-3.9,5.4-3.9,5.3-0.2C363.5,484.3,358.2,484.3,358.2,480.7z"/>
		<path class="st2" d="M515.1,363.4c0.1,3.4-5.1,3.5-5.2,0.1C509.9,360.2,515.1,360.1,515.1,363.4z"/>
	</g>
	<g class="st1">
		<path class="st2" d="M667.4,241.9c-2.1,0.8-4-0.6-3.9-2.9c0.1-1.3,3.5-17.5,5.2-28.4c6.3-39.9,5-73.8,10-103.8
			c4-23.9,17.1-57,36.2-66c2.6-10.1,4.9-20.3,8.7-30.2c-29,18.9-54.7,41.5-77.9,66.4c-0.6,9.3-3.8,26.4-5.5,34
			c-12.2,55.6-23.6,94.7-62.4,119.8c-21.6,13.9-43.4,14.2-68.6,10.4c-15.7-2.3-4.4-5.6,18.6-56.9c24.2-54.1,44.5-85.9,99.7-109
			c28.5-11.9,7.9,4.4,30-17.1C708,9,737.5-2.5,752.2-10.9c-11.5-4.5-23.3-5.4-35-6.9c-6.3,20.2-40.3,40.1-60.1,45.3
			c-53.5,14.1-98.8-11-137.3-50.1c-3.6-3.6-2.4-6.2,0.1-6.7c2.2-0.5,12.3,0,20-0.5c22.9-1.6,44.7-9.8,81.4-16.1
			c30.5-5.2,85.2-4.7,97.8,23.6c39.9,5.3,36.2,10.1,39.4,8.8c35-14.3,96.3-26.9,96.6-26.8c1.9,0.3,2.8,3.2-0.6,4.1
			c-30.1,8.1-26.4,7-41.1,10.5C807.4-18,804.3-9,801.8-0.1c19.9,24.4,42,42.3,35.3,77.1c-4.9,25.5-24.5,44.1-46.6,57.6
			c-3.4,2-5.5,0.8-5.9-3.1C780,86.9,757.1,12.3,797.8-2.8c2.2-7.4,5.1-14.6,9.3-21.5c-35.5,9-54.2,17.5-74.3,29.1
			c-5.6,3.2-10.2,24.6-12,31.6c8.1,6,10.4,7,13,10.2c33.1,41.3,18,121.3-12.6,158.1c-12.8,15.4-21.4,18.8-25.2,21.8
			C690,229.8,667.5,241.9,667.4,241.9z M596.6,150.9c0.9,13.2,1.4,35.2-4.5,48.1c-0.2,0.5-0.4,1.1-0.8,1.3c-1.8,1-2.7,0.9-3.5-1.4
			c-0.1-0.5,0.2-1.1,0.4-1.6c6.2-14.7,4.2-46.2,2.7-48.4c-3.1,4.9-6.2,9.7-9.1,14.3c0.6,4.7,1.3,20.9-3.3,19.9
			c-2.4-0.5-1.3-3-1.2-4.1c1.3-13.6,3.5-13.6-16.1,17.1c-2.1,3.2-4.3,3-5.4,1.2c-1.3-2.1,1.1-3.1,1.8-4.3
			c14.5-22.5,13.5-19.4,3.2-14.1c-2.4,1.2-4.3-1.9-2.2-3.4c8.4-6,11-4.3,12.7-4c8.3-13.4,7.5-11.9,7.3-12.5
			c-27.2,6.9-27.9,16.7-30.9,12.1c-2.9-4.4,22.1-16,34.3-16.9c1.6-2.6,3.5-5.5,5.7-8.9c-10.1,0.8-13.1,3.9-14.2,0.9
			c-1.7-4.6,14.5-5.5,17.1-5.4c2.4-3.5,4.8-7,7.3-10.7c-15.3-2.4-29.1,6.6-33.7,7.9c-2.3,0.6-3.7-2.4-1.6-3.7c2-1.3,14-6.6,20.6-8
			c22.8-4.9,12.5,6.8,24.7-9.9c-9.4-0.6-3.7-0.2-7-0.2c-2.6,0-3.1-3.5-0.5-4.1c2.9-0.6,4.5-0.3,10.5,0.2c2.6-3.5,5.3-7.1,8.3-11
			c-9.5,0.5-13,4.4-14.5,1.6c-2.4-4.5,12.4-6.4,17.5-5.6c19.8-23.5,18.5-21.7,18.4-22.1c-76.4,23.7-95.4,85.3-112.3,119.2
			c-8,16.1-18,35-21.2,41.4c41.8,8.4,76.1-2.7,101-43c16.3-26.4,32.3-98.9,32.4-110c-9.6,10.7-18.1,21.7-26.5,33
			c3.1,4.1,6.5,25.7,5.7,31.5c-0.4,2.6-4,2.7-4.5,0c-0.2-1.3,0.7-9.8-3.7-26.8c-0.2-0.7-0.3-0.6-0.6-0.7
			C591,148.2,595.7,138.8,596.6,150.9z M685.6,188.4c-2.7,0.9-4.5-2.5-1.3-4c15.5-7.3,15.9-7,19.6-18.7c-0.5-0.6,0.2-0.3-3,1.3
			c-2.7,1.3-4.4-2.2-2.1-3.5c5.9-3.3,5.7-5.4,7.9-7.4c2.4-12.2,3.4-9.2-5.8-4.1c-2.7,1.5-4.7-2.1-1.9-3.6c7.7-4.2,7-5.8,10.4-8.1
			c0.2-3,0.5-6.1,0.7-9.3c-28.3,21.8-28.6,9.9-24.7,8.9c16.4-4.4,19.5-12.1,24.9-15.2c0.1-7,0.7-5.5-1.8-3.7
			c-7.8,5.7-7.3,5.3-8.6,5.7c-2.1,0.6-3.7-1.7-1.9-3.5c0.8-0.8,6.9-3,12.6-10.9c0-5.2,1.5-4.9-5.6,0.9c-1.8,1.5-4.2,2.9-5.3,0.9
			c-1.5-2.6,1.9-2.4,9.5-10.7c1.7-1.9,1.5-3.9,1.4-6.4c-24.3,22.5-26.5,12.1-22.1,10.2c13.1-5.6,18.8-13.9,22.2-17.7
			c0.2-8.8,1.3-5.3-5.9-0.5c-10.7,7-13.3,8.6-14.5,6.1c-1.2-2.4,1.7-3,8.6-7.3c5.8-3.6,8.2-6.7,11.8-10.5c-0.5-8,0.2-7.2-2.3-5.2
			c-1.1,0.9-2.5,2.5-4,1c-1.7-1.8,0.2-3.1,2-4.9c4-4.2,2.7-0.6,6.7-21.1c-4.7,3.2-8.8,8.4-11.8,13c-29.8,46.1-14.9,85.4-32.3,175.3
			c1,0,14.9-7.4,15.8-7.9c19.4-10.4,32-20.3,45.4-45c19.3-35.8,27-97.1,0.5-132c-2.2-2.9-5.1-4.7-11.1-8.8
			c-1.7,5.6-2.8,11.2-3.7,16.8c5.4,3.2,9.2,7.9,13.3,12.2c25.7,27.4,14.1,28.5,12.5,24c-2.9-8-19.9-25.7-26.4-31.2
			c-1.4,4.3-0.3,8.4-0.2,12.2c9.6,9.8,9.3,9.4,9.6,9.9c1.3,1.9-1,4.1-2.7,2.9c-7.8-5.7-6.6-12.2-6.7,4.8
			c10.9,11.2,10.9,11.1,12.1,12.8c1.7,2.3-1,4.9-3.2,2.7c-6.8-7.1-3.8-4.2-8.9-9.1c0,3.8-0.1,7.3-0.1,10.8c4.1,3.1,7,7.2,10.1,11.1
			c9.6,12.3,9.8,13.3,14.5,24.4c0.8,1.8,0.8,4.1-1.1,4.5c-3.6,0.8-1.3-4.6-9.9-16.8c-3.3-4.7-10.1-13.1-13.3-16.8
			c-0.5,0.2-0.3-1.1-0.6,10.8c9.3,14.3,8.3,12.6,8.7,13.9c1,3.1-2.4,4.2-3.9,1.6c-4-7.1-3.5-6-5.1-8.1c-3.8,30.7-5.9,21.9-1.3,40.3
			c0.9,3.7,4.3,7,1.2,8.5c-3.3,1.5-3.9-3.2-7.3-12.7c-2.2,5.9-16.3,39.5-21.8,34.7c-1.3-1.1-0.8-2.5,0.2-3.8
			c4.6-5.8,10.2-16.2,10.9-18.3C692.9,185.3,690.1,186.9,685.6,188.4z M636.6-11.2c-2.4-0.4-2.5-3.4-0.5-4.1
			c3.7-1.4,4.7,0.6,0.9-4.6c-0.2-0.3-2.5-1.8-0.9-3.7c2.5-2.8,6.7,3.6,7.9,7.3c10.4-1.2,9.2-0.9,9.5-1.5c-14-16.5-20.2-18-17.6-20.8
			c1.6-1.8,3.5,0.3,5.6,2.2c9.9,9.1,14.1,13,16.9,18.3c3.2-0.5,6.5-1,9.8-1.5c-0.6-1.1-1.1-2-1.6-2.9c-1.6-2.8,1.8-4.7,3.5-2.3
			c3.9,5.6,0.8,4.7,10.4,3.5c-0.9-4.2-3.7-7.1-4.4-8.1c-2.1-2.9,2.7-9.2,9,7.6c23.8-2.4,28.6,0.1,29.6-1.1
			c-6.1-8.9-14.3-12.9-25-16.3c-40.1-12.7-92.1,3.1-125.5,10.4C539-23.3,527-25,524.9-24.6c10.6,14.6,43.8,39.7,74.5,47.6
			c54.8,14,105.4-18.8,113.1-41.1c-4.9,0-9.6-0.1-14.3-0.1c-0.7,4.5-3.6,22.5-8.3,20c-3.5-1.8,1.7-3.4,3.5-17.9
			c0.3-2.3,1.1-1.9-8.2-1.1c0,3.9-3,18.3-6.6,16.9c-3.7-1.4,1.2-5.7,2.2-16.4c-7.8,1-6.1,0.1-7.1,3.7c-2.9,10.7-8.1,24.2-15.8,32.4
			c-1.7,1.8-4.9-0.6-2.9-2.9c8.7-10.3,11.9-22.9,13.9-29.7c0.7-2.5,1.6-2-9.4-0.3c-0.3,5.4-3.7,11.5-4,12c-1.6,2.2-4.6,0.5-3.7-1.8
			c1.9-4.8,1-0.9,3.4-9.5c-9.3,1.2-2-1.3-8.8,10.6C635,17.2,636,14.7,628.8,21.8c-1.9,1.9-5.1-0.7-2.7-3.1c1-1,5.1-4.3,8-8.8
			c3.8-6,9-14.8,11.1-21.6C638.4-11.2,637.6-11.1,636.6-11.2z M790.8,32.6c-2.8,2.3-5.2-0.9-2.9-3c1.7-1.6,3.6-3,5.9-4.8
			c0-7.1,0.8-14.7,2.7-22.4c-5.1,0.9-9.2,6.3-11.6,11.2c-14.1,29-1,70.6,4.2,116.1c4.2-1.7,20.4-13.1,30.8-26.5
			c33.2-42.7,0.9-74.7-19.2-97.4c-1.6,6.2-2.2,12.4-2.2,18.5c8.1,3.9,9.3,4.3,10.2,5c2.4,1.7,0.4,4.9-2.1,3.7c-9.8-4.8-8.2-6-8.2,1
			c6.6,2.1,24.5,11.1,29.8,20c1.7,2.9-1.6,5.1-3.7,2.7c-2.8-3.3-6.8-10.1-26.1-18.4c0,5.9,0,6.7-0.2,7.6c-0.6,3.5-5.4,2.3-4.8-1
			c0.4-2.2,0.3-1.4,0.2-3.9c-3.5,2.8-6.9,7.3-8.8,11.5c-2,4.7-11.8,0.8,8.8-17.5C793.7,28.8,794.5,29.5,790.8,32.6z"/>
		<path class="st2" d="M542.8,210c-4.6,7.2-11.9,10.2-13.2,11.3c-2.1,1.7-0.2,4.6,2.1,3.5C554,213.5,545.3,206,542.8,210z"/>
		<path class="st2" d="M573.5,212.5c0.3-0.4,2.1-2.2,3-7c1.7-9.5,2.2-12.6-0.5-12.8c-3.1-0.2-2.2,4.1-3.2,9.1
			C570.8,211.6,568.5,211.1,573.5,212.5z"/>
		<path class="st2" d="M556.5,148.1c-2.1,1.2-2.2,2.5-1.6,3.4c1.3,1.9,2.4,0.5,11-1.8c2.2-0.6,4.5,0.8,5.2-1.8
			C572.5,142.6,561.2,146.1,556.5,148.1z"/>
		<path class="st2" d="M608.5,162.8c-1.4-2.2-3.9-1.1-4,0.8c-0.1,1.4,1.4,3.4,0.4,12.2c-0.3,2.8,2.4,3.6,3.6,1.8
			C609.9,175.4,609.6,165.9,608.5,162.8z"/>
		<path class="st2" d="M581.8,118.6c0.8,1.4,1,1.7,12.5-0.7c2-0.4,3-2.8,0.9-3.7c-1.7-0.8-1.9-0.8-11.1,1.2
			C582.6,115.6,581,116.8,581.8,118.6z"/>
		<path class="st2" d="M605.6,154.9c0.7-1.5,1.3,0.5-0.5-11.7c-0.3-2.3-3.9-2.4-4.1,0.5c0,0.1,1.2,9.3,1.2,9.4
			C602.4,155,603.8,155.9,605.6,154.9z"/>
		<path class="st2" d="M629.9,107.1c-0.6-0.2-3.8-1.7-3.9,1.2c-0.2,9.7-0.4,10.8,1.8,11.1c1.1,0.1,2-0.4,2.2-1.5
			c0.4-2.5,1-7.8-0.2-10.4C629.8,107.3,629.8,107.2,629.9,107.1z"/>
		<path class="st2" d="M548.8,180.9c-3.2,2.4-7.3,4.6-5.1,6.9c1.5,1.5,3-0.1,8.5-3.8c1-0.7,3.2-1.4,2.2-3.7
			C553,177.4,549.2,181.4,548.8,180.9z"/>
		<path class="st2" d="M524.5,229.2c2.5-1.5,0.4-5.4-2.2-3.9C519.6,226.8,521.9,230.7,524.5,229.2z"/>
		<path class="st2" d="M554,202.4c-1.4-2.5-5.1,0.2-3.8,2.5C551.5,207.4,555.4,204.9,554,202.4z"/>
		<path class="st2" d="M539.9,193.8c2.3-1.5,0-4.8-2.1-3.4C535.5,191.7,537.6,195.2,539.9,193.8z"/>
		<path class="st2" d="M568.9,219.7c1.3,2.2,4.7,0.2,3.4-2C570.9,215.5,567.5,217.5,568.9,219.7z"/>
		<path class="st2" d="M604.1,184.3c1.3,2.4,4.7,0.4,3.3-1.9C606.2,180.3,602.9,182,604.1,184.3z"/>
		<path class="st2" d="M728.5,171.6c1.8-4.7,0.2-14.7-0.9-19.7c-0.3-1.5-1.4-2.8-3-2.4c-3,0.8-0.8,4.1-0.3,9.3
			C725.2,167.2,724,174.3,728.5,171.6z"/>
		<path class="st2" d="M707,191c-4.9-1.9-3.6-0.1-4.9,11.6c-0.4,3.5,3.6,3.7,4,0.9C706.4,202,707.5,193.2,707,191z"/>
		<path class="st2" d="M741.6,121c-4-5-6.2-8.8-8.5-6.6c-1.8,1.8,0.4,3.2,5.1,9.7c1.9,2.6,4.7,0.9,3.8-1.8
			C741.8,121.5,741.4,121.1,741.6,121z"/>
		<path class="st2" d="M735.4,97.5c-4.5-5.1-6.3-8.2-8.4-6.1c-1.8,1.9,0.6,3.8,5.3,8.9C734.2,102.5,737.5,100.7,735.4,97.5z"/>
		<path class="st2" d="M692.9,155.9c3.8-2.2,1.6-5.5-1.4-4.2c-5.6,2.5-8.7,3.2-8,5.6C684.4,160.3,687.8,158,692.9,155.9z"/>
		<path class="st2" d="M684,174c1.1,2.6,4.6,0.4,9.7-2.5c2.9-1.6,0.9-5.6-2.4-3.6C686.4,170.8,682.8,171.3,684,174z"/>
		<path class="st2" d="M694.2,127.3c-0.7-1.9-2.5-1.3-4-0.6c-4.9,2.2-7.2,2.7-6.4,4.8c1,2.9,4.5,0.7,8.3-0.7
			C691.9,130.3,695.1,129.8,694.2,127.3z"/>
		<path class="st2" d="M744.4,111.5c3.5-2.1-0.1-4.5-3.7-6.9c-1.7-1.1-3.2,2-2,3.3c1.2,1.2,2.6,2.3,4,3.2
			C743.3,111.6,744.1,111.5,744.4,111.5z"/>
		<path class="st2" d="M697,77.8c1.1,1.9,3.1,0.7,5.1-0.6c2-1.4,0.5-4.5-2.1-3.5C698.4,74.2,695.8,75.8,697,77.8z"/>
		<path class="st2" d="M693.5,208c1.6,2.5,5.4,0.2,3.9-2.3C695.9,202.9,691.9,205.4,693.5,208z"/>
		<path class="st2" d="M689.3,121.5c2.7-1.6,0.4-5.2-2-3.6C684.8,119.4,686.8,123,689.3,121.5z"/>
		<path class="st2" d="M696.8,117.6c2.5-1.5,0.5-5-2-3.6C692.2,115.4,694.2,119.1,696.8,117.6z"/>
		<path class="st2" d="M684.5,211.3c-1.4-2.3-4.8-0.2-3.5,2.1C682.4,215.7,685.9,213.6,684.5,211.3z"/>
		<path class="st2" d="M695.2,213.3c-1.3-2.3-4.8-0.4-3.6,1.9C692.9,217.5,696.5,215.7,695.2,213.3z"/>
		<path class="st2" d="M717.1,189.3c-2.2,1.3-0.2,4.4,1.9,3.2C721.1,191.2,719.3,188,717.1,189.3z"/>
		<path class="st2" d="M616.1-8.4c1.2-0.1,2.5-0.2,4.2-0.3c-7.6,13.7-8.7,14.1-6.5,15.4c1,0.6,2.2,0.3,3.1-1c3.1-4.6,6-9.3,8-14.5
			c0.5-1.2,3.6,0.1,4.2-2.6c0.3-1.3-0.6-2-1.5-2.6c-1.8-7.2-9.2-17.4-12-14c-1.6,1.9,0.6,3.1,4.1,7.1c1.5,1.7,1.7,2.7,3.6,7.4
			c-15.4,1.5-3.9,2.2-14.5-6.9c-2.2-1.9-5.1,0.7-2.6,3.2c4.5,4.5,3.9,4,3.6,4.5c-2.1-0.1-4.6-0.5-4.8,1.8c-0.2,2.5,3.1,2.3,5.7,2.5
			c-2.8,4.6-10.7,13.9-15.6,18.4c-3,2.8-5.9,3.4-4.8,5.7C593.6,22.2,612.2-1.9,616.1-8.4z"/>
		<path class="st2" d="M571.4-25c-2.5-2-5.2,0.9-2.6,3.2c4.1,3.6,6.7,5.3,8,9.3c-8.6-1.2-3.6-0.5-11.5-1.8c-3.4-0.6-4.1,3.4-0.8,4.1
			c3.1,0.7,5,0.9,9.3,1.8c-9.2,7-15.1,6.2-14.2,9.5c1.4,4.8,16.6-4.7,20.1-8.9c10.4-0.2,10.9-0.1,11.9-0.3c2.9-0.5,2.6-4.4-0.4-4.5
			C571.2-12.6,591.3-8.8,571.4-25z"/>
		<path class="st2" d="M655.3-40.8c-1.9-1.6-4.2,0.3-3.3,2.2c1.3,2.7,5.9,3.8,9.7,10.6c0.6,1.1,1.7,1.9,3,1.4
			C669.6-28.9,659.4-37.3,655.3-40.8z"/>
		<path class="st2" d="M644.1,21.8c1.5-1.8,0.2,0.6,7-12.5c1.7-3.3-2-5.8-4-1.8C641,19.7,639.2,20.8,644.1,21.8z"/>
		<path class="st2" d="M611.4,12.5c0.6-1,0.8-3.2-1-3.8c-2.3-0.8-2.7,1.6-3.7,3.3c-4.6,8.2-7.8,8-5.9,10.3
			C603.7,25.8,608.2,17.3,611.4,12.5z"/>
		<path class="st2" d="M603.6-21.7c3.4-2-3.5-7.2-6.9-9c-2-1.1-4.1,1.7-2,3.5c1,0.8,2.1,1.5,3,2.3C600.6-22.5,601.3-20.5,603.6-21.7
			z"/>
		<path class="st2" d="M673.9-35.1c2.5-1.5,0-3.9-2.3-5.4c-1.8-1.2-4.2,1.5-2.2,3.4C671-35.6,672.2-34.1,673.9-35.1z"/>
		<path class="st2" d="M687.1-32c2.7-1.4,0.5-5.5-2.2-4C682.3-34.5,684.6-30.6,687.1-32z"/>
		<path class="st2" d="M577.3,5.5c1.5,2.6,5.3,0.5,4-2.1C579.8,0.6,575.7,2.7,577.3,5.5z"/>
		<path class="st2" d="M629.1-31.6c1.5,2.6,5.3,0.4,3.9-2.2C631.5-36.5,627.5-34.3,629.1-31.6z"/>
		<path class="st2" d="M635.8-25.4c2.6-1.4,0.5-4.9-1.8-3.7C631.7-27.9,633.1-24,635.8-25.4z"/>
		<path class="st2" d="M674.4,11.5c-1.5-2.5-4.8,0.1-3.4,2.3C672.3,16,675.9,14,674.4,11.5z"/>
		<path class="st2" d="M555.7-14.9c-1.4-2.2-4.7-0.2-3.3,2C553.8-10.7,557.1-12.7,555.7-14.9z"/>
		<path class="st2" d="M610.8-30c1.9-1.2,0.4-4.3-1.9-3.2C606.8-32.1,608.6-28.6,610.8-30z"/>
		<path class="st2" d="M677.5,5.4c2-1.2,0.4-4.2-1.8-3.2C673.5,3.2,675.2,6.8,677.5,5.4z"/>
		<path class="st2" d="M800.2,67.9c-0.5-2.2-0.9-4.6-1.5-7.3c9,2.7,11.3,10.1,14,6.8c2.6-3.2-9.2-10.1-14.3-11.6
			c-0.6-1.4-1.1-2.7-2.8-2.4c-2.5,0.4-1.9,3.1-1.7,6.1c-1.5,1.7-3.8,3.7-2.3,5.4c1,1.2,2.1,0.9,3.5,0c0.5,2,0.9,3.9,1.3,5.8
			c-3.3,2.5-5.8,5.6-7.4,9.4c-1.5,3.6,2.1,5.3,3.8,1.8c1-2.2,2.2-4.3,4.5-6.1c0.4,6,0,8.4,2.5,8.3c4-0.1,0.9-8.6,2.2-9.4
			c12.8,12,11.4,10.2,17.2,17.8c2.9,3.8,6,1.3,3.5-2.5C817.5,82.5,806.7,72.5,800.2,67.9z"/>
		<path class="st2" d="M801.2,101.9c2.2,3.8,2.6,4.8,3.3,5c2.2,0.8,3.9-0.7,3-2.3c-4.8-9-4-7.2-5.9-8.7c-0.1-2.4,0.2-5.6-2.5-5.5
			c-3.1,0.1-1.6,4.4-3,14.7c-0.8,5.8-3.8,9.4-0.9,10.6c2.7,1.1,3-1.8,5.6-11.7C801,103.4,801.1,102.8,801.2,101.9z"/>
		<path class="st2" d="M812.8,94.4c-7-7.5-8.1-9.6-10.2-7.8c-2.2,2,1,3.9,2.6,5.8c0.9,1,4.9,6,4.9,6c2.6,0.9,3.7-0.3,3.3-1.8
			C813.1,95.4,812.4,94.8,812.8,94.4z"/>
		<path class="st2" d="M828.5,77.9c-7.4-7.8-6.9-7.4-8.1-7.9c-2.1-0.9-4.1,1.4-2.4,3.3c0.9,1-1.9-2.3,6.2,6.4c0.4,0.4,1.9,3,3.8,1.5
			C829.6,79.9,827.9,78.4,828.5,77.9z"/>
		<path class="st2" d="M790.3,69.5c1.9-3.2-1.4-4.9-3.3-2.6c-1.9,2.2-5.6,8.4-3.1,9.7C786.6,78,786.5,76,790.3,69.5z"/>
		<path class="st2" d="M816.7,38.1c2.7-1.5,0.5-5.5-2.2-3.9C812,35.6,814.2,39.5,816.7,38.1z"/>
		<path class="st2" d="M808,112.1c2.7-1.5,0.2-5.5-2.3-3.9C803.2,109.7,805.4,113.6,808,112.1z"/>
		<path class="st2" d="M816.2,104.2c2.7-1.5,0.4-5.5-2.2-4C811.5,101.7,813.6,105.6,816.2,104.2z"/>
		<path class="st2" d="M785.5,38.3c2.6-1.5,0.3-5.5-2.3-3.9C780.6,36,782.9,39.8,785.5,38.3z"/>
		<path class="st2" d="M789.8,86c-1.5-2.7-5.2-0.6-3.7,1.8C787.5,90.4,791.2,88.6,789.8,86z"/>
		<path class="st2" d="M794.6,101.3c-1.4-2.5-5-0.7-3.7,1.8C792.2,105.7,796,103.7,794.6,101.3z"/>
	</g>
	<g class="st1">
		<path class="st2" d="M-37,364.7c7.8,0.3,9.4,9.2,5.6,13.4c-7.5,8.3-19.2,0.2-14-9.3c-3-10.4-4.9-11.6-0.8-38.6
			c-7.8,1.9-15.1,4.6-21.6,8.4c13.3,17.3-8,23.4-11.6,14.5c-3.6-9,0.4-10.8,4.7-14c1.3-0.9,2.8-3,4.4-3.8c15.3-8,16.4-7.5,25.4-10.3
			c1.4-4.7,2.9-9.3,4.3-13.9c-7-11.5-14-23-21.2-34.8c-2.9,7.3-4,10.1-4.3,13.1c-0.7,9.3,1.4,10.1-1.2,11.1c-1.2,0.4-2.6-0.3-3-2.5
			c-1.7-9.9,1.8-16.7,5.4-26.7C-70,262-80.5,252-91.4,255.9c-66.6,23.7-51.4,29.9-56.8,27.6c-2.9-1.3-0.2-5.2,1.9-6.9
			c10.8-8.4,28.7-15.6,41.1-20.7c-0.9-4.1,4.2-8.9,11.8-16.8c-0.2-8.4,3-13,11.1-31.2c0.8-1.9-5-21.1,0.8-20.7c2.5,0.2,2,3,2,3.4
			c0.4,21.9-2.6,5,25-16.3c-2.6-8.6,9.6-16.8,15.2-9.6c6.5,8.4-1.3,15.8-11.1,14.1c-1.4-0.2-0.8-1.1-3.1,0.7
			c-19.2,15.6-23.3,27.5-33.7,50c-6.7,14.6,2.5-8.9,72.5-36.3c0.2-1.7,0.1-3.4,0.7-4.8c4.2-10.4,19-5.7,18.4,3
			c-0.1,1.5-1,2.9-1.6,4.3c-2.4,5.9-10.7,5.9-14.6,2.2c-6.2,0.4-47,19.8-50.9,24.1c8.1-1.9,16.3-3.9,24.6-5.8
			c3.9-8.7,15.5-7.8,16.4,1c0.8,8-9.3,13.9-16,4.1c-3,0-35.4,7.5-40.4,11c-8.6,5.9-19.6,17.4-22.5,21.7c19.2-6.6,38.5-11.2,58.7-8.9
			c10.2-4.4,20.6-7.2,30.7-10.3c3.6-7.2,10.2-11.2,15.5-15.8c0.6-4.6,2.1-16.8,6.3-14.7c2.4,1.2,0.5,3.7-0.1,5.4c-3,9.2-3.5,6.2,9,1
			c12.3-5.2,11.4-2.4,11.4-5.8c0-4.7,4.2-10.3,13.4-8.8c5,0.8,7.8,7.5,6.8,9.7c-2.3,5.1-4.7,8.6-10.8,8.7c-8.8,0.1-3-8.3-27.8,4.9
			c-6.5,3.5-12,8.1-17.1,13.3c19.8-4.4,39.6-7.5,60.1-6.2c-1.2-10.7,24-15.3,19.4,3.7c-1.3,5.2-3.1,3.9-4.2,4.8
			c-3.5,2.8-10.2,1.6-13.1-2.2c-4.5-5.9-52.6,1.7-53.2,3.4c8.5,5.5,5.1,3.7,12.8,5.8c2.9,0.8,2.1,4.4-0.7,4.1
			c-6.9-0.7-12.7-3.6-17-9.4c-10.5,2.7-21.1,5.6-31.8,9.2c2.9,1.5,2.7-0.9,29.7,8.6c9.9,3.5,5.7,2.6,34.6,12.9
			c16.9-12.8,36.2-19.7,56-25.1c2.1-4.7,5.5-8.1,9.5-11c1.9-1.4,4.5,1.3,2.6,3.3c-7.7,8.3-14.1,7.5,11.5,4.8
			c0.4-5,7.2-10.9,16.3-7.7c9.9,3.5,6.5,18.8-8.3,17.8c-5.8-0.4-6.4-3.9-7.4-5c-7.2-1.1-34.3,4-38.4,7.2c2.2,0.5,4.4,0.9,6.6,1.4
			c3.4,0.8,2.5,4.7-0.9,4.1c-4.1-0.8-8.4-1.1-12-3.4c-10.5,4-20.9,8.1-30.2,15.1c40.1,11.1,62.3,10.5,105.3-15.2
			c14.4-8.6,12.4-6.9,11.9-9.1c-2.6-11.9,14.8-21,21.5-9.1c3.4,6.1,1.9,10.3-3.2,13.2c-0.9,0.5-2,0.8-3,1.2c-3.8,2-7.7,2.3-11.7,0.3
			c-24.5,12.4-36.6,27.3-79.7,30.2c8.6,5,16.8,10.7,26.5,13.1c5.3-6.6,15.1-11.1,15.3-11.2c2.5-0.4,3.7,2.3,2,3.7
			c-0.8,0.7-9.8,5.7-12.4,8.2c13.9,2,26.3-2.6,38.7-7.1c-0.3-8.3,3.3-12,9.1-12.4c18.4-1.2,13.5,21.8-0.5,21.2
			c-3.1-0.1-5.6-1.6-7-4.1c-8.4,2.5-16.5,4.9-24.7,7.3c4.7,3,2.7,2.3,11.9,6.1c3.6,1.5,2.2,5.3-1.4,4.2c-5.2-1.6-12.2-5.6-16.3-10.1
			c-29.4,0.7-43.6-18.7-52-19.6c-24.7-2.8-43.2-10-66.2-18.8c2.4,8,20.8,26.2,32.4,32.3c5.4-1.8,26.2-5.9,25.6-0.5
			c-0.4,3.6-8.5,0.7-20.3,3.6c14.8,8.7,31,13.4,47,18.6c2.6-2.4,5.6-3.5,9.1-3c10,1.4,7.2,14.9-2.1,16.4c-8.6,1.3-8.6-7-8.9-9
			c-17.6-5.7-35.4-10.9-51.5-20.9c2.9,15.4,15.9,35.6,26.9,41.9c9.4-6.5,19,2.1,14.6,11.8c-1.5,3.2-7.1,5.4-10.5,4.3
			c-4.8-1.5-7.7-6.7-6.9-12.4c-16.7-12-25.2-29.3-29.4-49.2c-13.6-9.2-25.1-20.5-32-36c-23.7-9.3-48-12.8-73.3-6.6
			c2.3,1.6,4.5,3,6.8,4.5c8.6-1.4,11.1-0.8,22.5,2.4c3.2,0.9,2.3,4.8-0.9,4.1c-7.3-1.6-10.1-3.2-17.8-2.6c7.3,8.1,12,17.4,17.3,26.2
			c5.1,2.1,10,4.2,14.8,6.3c4.5-4.9,10.4-7.2,15.4-10.7c-1-5.8,2.5-10.5,8-10.8c10.2-0.5,12,17.5,1.7,15.7c-2.2-0.4-4.4-0.9-6.9-1.4
			c-4.2,2.6-8.8,5.1-13.1,8.6c17.5,6.9,24.1,3.6,46.5,24.1c12.2-6.5,16.7,8.4,10.2,13c-0.8,0.6-1.6,1.1-2.4,1.7
			c-4.8,3.6-12.6-1.9-10.6-11.5c-20.6-19.1-24.2-14.5-58.8-27.7c5.9,9.9,11.7,19.9,19.3,28.6c1.6-0.5,7-1.2,8.6-1.3
			c2.5-0.3,3.3,3.6,0.3,4.1c-1.2,0.2,0.5-0.2-5.6,0.8c12.6,14.2,44.2,31.5,44.3,31.5c10-13.4,23.8,10.4,5.7,13.6
			c-4.5,0.8-7.4-3.9-7-8.5c-11.7-8.1-24.4-14.5-36-23.3c2.5,8.8,6,16.5,11.8,23.2c10.8-8.8,21.1,8.3,7.3,13.4
			c-8.7,3.2-9.3-7.9-9.6-9.6c-6.3-7.3-10.4-13.1-14.4-27.2c-1.9-6.7,3.5,0.8-16.7-22.9c-3.2,7.1-10.1,37.8-4.6,48.8
			C-40.1,365-38.5,364.7-37,364.7z M172,243.4c2.8-1.9-0.5-11-7.8-8.2c-7.9,3-6.5,10.9-2.1,12.1C163.6,247.2,165.2,248,172,243.4z
			 M160.6,279.4c-12.4-2-7.8,16.6-1,11.6c1.5-1.1,4-1,4.9-5.4C165,281.8,164.6,280.1,160.6,279.4z M124.4,244.3
			c3.6-0.4,6.1-6.1,2.7-8c-7.1-4-15,2.9-9.1,8.6C120.1,244.7,122.3,244.6,124.4,244.3z M67.8,221.8c-6.8-1.3-10.2,5.1-6.4,8.6
			c4.2,4,7.4,0.4,8.7-0.6C70.9,227.6,71.4,222.5,67.8,221.8z M43.1,200.5c-2.6-0.5-4.9-0.7-6.8,1.7c-4.1,5.4,4.7,13,10.4,2.7
			C46,203.1,45.6,201,43.1,200.5z M61.1,346.3c-0.4,2.6,1.8,5.7,4.3,6.1c5.6,0.9,7.8-8.6,1.4-9.8C64.2,342.2,61.4,343.9,61.1,346.3z
			 M-6.2,195.9c6.1,1,9.1-7.3,1.9-8.8C-11,185.7-11.7,195-6.2,195.9z M-68.3,346c-0.7-6.5-11.4-1.4-7.1,5.5c2.1,3.3,5.5,0.4,6.8-0.5
			C-68.4,349.4-68.1,347.7-68.3,346z M-46,166.8c-3.5,2.3-6.6,5.4-2.9,7.8c2.3,1.5,4.2-1.1,6.4-3.1C-40.6,168.8-43.7,165.4-46,166.8
			z M-41.9,372.1c-1.8,7.3,6.8,5.3,7.7,1.6C-32.9,367.8-40.9,368-41.9,372.1z M95.4,322.1c3.1-2.5,1.7-6.7-2.7-5.7
			c-3.4,0.8-4.5,2.4-3.6,5.9c0.3,1.2,1.3,1.7,2.8,1.9C92.9,323.6,94.3,323,95.4,322.1z M23.3,328.1c1.7-1.1,2-3.6,0.9-5.4
			c-1.8-2.9-8.1-0.6-6.6,3.8c0.9,2.5,1.3,3,2.8,3.5C20.3,329.1,21,329.6,23.3,328.1z M31.3,364.3c-0.1-2,0.5-5.7-3.1-5.8
			c-3.4-0.1-4.7,5.9-2.7,8.3C27.8,366.8,29.5,365.7,31.3,364.3z M-30.9,222c4.6,0.7,6.5-6.6,2.3-7.3C-35.1,213.6-35,221.4-30.9,222z
			 M-15.6,279c-1.4,3,3.9,4.5,7.4,4.1C-6.3,276.7-12.9,273.4-15.6,279z M2.9,371.3c5-1.8,1.9-8.3-2.5-6.3c-1.8,3.3-3,4.5-0.2,7.1
			C1.1,371.8,2,371.6,2.9,371.3z"/>
		<path class="st2" d="M89.5,260.4c15,2.6,13.7-4.9,9.9-4.5c-6.2,0.7-0.8,0.6-10.3,0.1C86.5,255.9,85.1,259.5,89.5,260.4z"/>
		<path class="st2" d="M-2.3,322.3c-7.3-0.6-10.6-1.5-10.7,1.5c-0.1,2.5,2.6,2.2,11.5,3.2c1.5,0.2,3,0.2,3.3-1.6
			C2.1,322.5-2.3,322.9-2.3,322.3z"/>
		<path class="st2" d="M-41.8,262.4c-0.4,1.8,1.1,2.4,2.6,2.8c6.3,1.9,8.4,3.1,9.4,1c1.3-2.8-2.2-3.3-8.1-5.4
			C-38.1,261.4-41.2,259.6-41.8,262.4z"/>
		<path class="st2" d="M25,187.3c-0.4-0.7-0.7-1.6-1.3-1.9c-0.6-0.3-1.8-0.3-2.2,0.1c-3.7,3.7-8.7,7.9-5.5,9.8
			C18.2,196.6,23.3,189.5,25,187.3z"/>
		<path class="st2" d="M31.8,248c7.2,0.3,6.9,0.4,7.7,0.2c2.5-0.6,2.2-3.9-0.3-4.1c-6.2-0.5-9.9-1.4-10.2,1.4
			C29,246.7,29.8,247.7,31.8,248z"/>
		<path class="st2" d="M-77.3,168.7c-2.7-0.6-3,2.5-3.9,9.4c-0.4,2.9,3.5,3.9,4.1,0.6C-75.7,171.8-74.7,169.3-77.3,168.7z"/>
		<path class="st2" d="M-69,307.6c0.9,11.5,7,9.2,5.8,5.4C-65.3,306.5-65,305.1-69,307.6z"/>
		<path class="st2" d="M133.3,276.6c-9.7,2.3-5.6,6.1-3.8,5.6c1.7-0.5,3.4-1.1,5-1.8C136.4,279.5,135.5,276,133.3,276.6z"/>
		<path class="st2" d="M72.2,294.6c0.4-2-1.1-2.7-5.5-3.6c-2.6-0.5-3.8,3-1,4.1C68.2,296.1,71.7,297,72.2,294.6z"/>
		<path class="st2" d="M-20,268.2c0.4-2.8-4.1-4.2-4.5-1.1C-24.9,269.7-20.5,271.2-20,268.2z"/>
		<path class="st2" d="M148,307.5c-2.7-0.6-3.5,3.5-0.7,4.2C150.2,312.4,150.7,308.2,148,307.5z"/>
		<path class="st2" d="M-77.3,160.8c-0.5,2.6,3.6,3.5,4,0.9C-72.8,159-76.8,158-77.3,160.8z"/>
		<path class="st2" d="M106.3,228.3c2.6,0.6,3.3-3.2,0.8-3.7C104.8,224.1,103.8,227.7,106.3,228.3z"/>
	</g>
	<g class="st1">
		<path class="st2" d="M240.9,197.2c0.6,16.5-17.8,21.5-32.6,18.1c-38-8.7-53.6-53.7-68.9-61.5c-14.5-7.4-22.7,22.6-29.9,32.8
			c-17.4,24.6-37.7,8.6-37.1-16.2c0.5-20.4,9.4-62.1-8.8-58.2c-12.4,2.7-17.4,14.9-36.5,32.2c-4.8,4.4-15.5,8.3-22.4-0.5
			C-8.9,126.4,11.3,93.6,23,67.1c7-15.9,12.6-28.3,3.5-43c0-0.1-1.2-2.9-2.3-3.7c-42.6-33.2-65.9-34.9-63.5-40.5
			c0.9-2.1,2.7-1.5,4.8-0.5c66.2,31.8,57.9,42.9,78.9,42.3c63.4-1.8,92-22.1,119.6-33.4c24.9-10.3,47.8,2.4,38.7,22.5
			c-11.4,25.1-49.4,32.8-59.8,44.8c-7.5,8.7,2.5,14.5,14.5,15.5c26.9,2.2,86.9-30.2,98.8,5.4c3.5,10.5-4.3,19.7-13.5,24.8
			c-27.7,15.1-58.9,5.4-57.5,20.6C187.4,146.5,239.7,164.7,240.9,197.2z M44.3,98.6c0.7,1.3,5.1,11.4,1.4,12.1
			c-3.9,0.8-2.1-6-5.8-10.7c-0.6,0.8-8.3,12.5-9.7,15.8c-1.5,3.4-6.2,1.5-4.4-1.8c1.1-1.9,2.4-3.7,3.4-5.9c-2.3,0.5-4.7,1-6.9,1.7
			c-3.9,1.2-4.2-2.7-2-3.7c3.1-1.5,6.5-1.8,12.8-2.8c8.8-17.7,8.8-14.2-1.4-11.8c-2.4,0.6-3.6-2.4-1.6-3.7c1.3-0.9,1.4-0.8,11.5-2.8
			c0.9-3.3,2-7.1,3.1-11.1c-7.2,0.5-10.9,3-11.4,2.9c-3.7-0.7-3.2-3.1,0.2-4.6c14.2-6.3,10.9,2.9,13.4-11c-6.2,0.2-8.1,0.7-8.5-1.4
			c-0.5-3.1,3.8-2.6,8.6-2.9C45.3,34.5,46,38.6,33.5,28c0.1,2.7,5.8,14.1-2.2,31.6c-14.9,32.7-33.4,65-23.6,80.5
			c5.3,8.3,14.2,3.9,21-3.4c19.6-21.1,23-26.7,34.1-29c22.9-4.7,16.2,35.5,14.4,58.6c-1.7,21.8,11.8,38.4,26.7,19.9
			c9.2-11.4,9-20.3,16.5-29.3c20.6-24.7,33.5,6.9,54.9,31.9c30.1,35.2,77.8,27.5,54.6-8.3c-13.3-20.5-49.6-37.8-49.6-59.1
			c0-21.3,34.6-8.8,61.7-25.3c6.8-4.2,12.2-11,9.5-18.5c-10.3-29.5-65.4-0.5-92.5-1.8c-22.1-1-29.2-13.6-19.1-24.1
			c7.6-8,19-11.4,35.2-20.6c39.5-22.4,27.2-50.1-7.2-39.2c-26,8.3-51.4,33.3-128.9,34.7c6.6,5.7,7.8,7.6,16.8,8.9
			c8.4,1.3,28.6,1.4,42.9-1.2c1.4-5.8,4.1-8.5,8.6-13.2c1.4-1.5,3.4-2.4,4.5-0.7c2.2,3.2-6.8,7-8.3,13c7.2-0.9,14.2-2.1,21.1-4.4
			c0-4.9,3-9.9,3.7-10.6c1.7-1.9,4.5,0,3.5,2.2c-3.7,8.9-6.4,8.5,8.2,3.5c0.4-4,0.6-6.4,1.1-8.1c0.9-3,4.7-2.1,4.1,1.1
			c-0.3,1.5-0.5,3-0.8,4.9c3-1.3,5.6-2.5,8-3.5c4-11.2,4.1-11.6,5.2-13.2c1.7-2.6,5.2-0.9,3.7,2.3c-5.2,10.9-4.4,9.6,1.6,5.5
			c2.5-1.7,4.6-4.5,6.4-2.3c1.9,2.3-1.4,3.8-8.8,8.9c-0.5,0.4-1.1,0.6-1.9,1.1c5.6,3.1,13,2.6,13,5.6c0,5-13.8-0.5-17.9-3.6
			c-2.6,1.2-5.3,2.5-8.4,3.9c1.3,0.9,2.2,1.6,3.2,2.4c5.3,4.1-3,6.7-6.7-0.6c-3.8,1.4-7.7,2.7-11.7,4.1c7.4,8,14.5,6.4,13.4,10.1
			c-1.2,4.2-11.4-2.3-14.7-5.2c-4.8-4.3-1.3-4.1-12.8-1c6.4,5.9,4.7,4.1,5.5,5c2.5,2.4-0.4,5.1-2.6,3.2c-1.4-1.2-6.1-5.4-8.1-7.5
			C54.8,49.3,41.2,28,71.4,54.1c16.2-1.3,15.3-1.2,15.8-1.2c2.5,0.2,2.8,3.5,0.3,4c-12,2.6-17.2-3.9,0.9,11.3
			c6.4-0.8,7.6-1.1,8.2-0.6c1.7,1.4,1.2,2.9-0.5,3.7c-2.8,1.5-5.5-1.5,1.4,4.3c6,4.9,10.2,6.8,17.4,8c2-7.6,8.2-15.7,12.6-21.8
			c1.9-2.7,6.2-0.1,2.8,3.9c-4,4.5-9.3,12.9-11.3,19.1c2,0.4,3.9,0.8,5.7,1.2c6.3-4.1,8.4-13.9,11.9-10.4c1.7,1.7-0.1,3.2-6.1,11.5
			c18.7,1.8,37.2,1.4,55.4-0.4c3.1-5.5,5.3-11.4,8.2-9.4c3.3,2.3-4,7.4-2.8,9.1c13.2-1.8,8.3-0.4,10.8-4.2c4.4-6.7,5.2-8,7.1-6.7
			c2.3,1.6,0.4,2.9-3.4,8.5c3.6-0.4,16.6-4.8,18.1-5.1c1.6-0.4,11.7,3.9-23.2,10.8c8.7,9.2,15.3,7.3,14.5,10.9
			c-1.3,5.4-15.2-5-19.3-10.1c-3.3,0.3-7,0.7-11.1,1.1c3.3,3.6,6.4,5.7,4.1,7.6c-2,1.6-3.2-0.6-9.5-7.3c-12.6,0.9-12.4,0.5-11.1,1.9
			c8.9,9.5,12.9,7.2,11.6,10.6c-1.7,4.6-12.8-4.3-17.8-11.5c-45.9,0.3-47.6-6.3-48.4-4.3c7.8,6.9,15.7,13.7,23.8,20.8
			c4.3-1.5,9-1,13.7-0.5c3.9,0.4,3.6,4.3-0.4,4.2c-9.9-0.4-7.2-0.3-10.3,0c9.3,9.9,0.5,3,19.3,6.6c2.8,0.6,5.5,1.5,8.3,2.5
			c2.7,1,1.4,4.9-1.8,3.7c-5.5-2-12.1-3-17-2.9c11.9,15.2,16.9,20,13.4,21.8c-4.4,2.3-2.2-9.4-44.1-45.7
			c-4.1-3.6-15.2-13.2-19.9-15.8c1.5,10.5,3,20.8,4.4,31.1c3.7,0.7,12.4,7.7,14,9.7c1.8,2.2-0.6,4.8-3.1,2.8
			c-8.3-6.8-6.7-5.4-10.7-7.9c0.7,20-1.8,7,9.2,20.1c1.1,1.3,1.6,2.7,0.1,3.7c-1.7,1.3-1.8,0.2-9.1-6.6c-2.6,19.3-2.1,4.4,7.6,20.7
			c1.7,2.9-1.5,5-3.5,2.4c-5.1-6.8-3.2-4.3-6.3-7.6c-0.8,3.7-3.1,11.1-3.7,13.2c-1,3.1-4.9,2.1-3.9-1.4c3.6-12.8,2.9-10.1,3.2-12.4
			c-8.8,1.3-7.9,5.5-10.5,3.5c-2.1-1.7,0.8-4.7,2.8-5.6c2.6-1.1,5.4-1.8,8.4-2.8c1.6-8.5,1.7-17.5,0.9-26.6
			c-10.7,0.9-10.9,5.6-13.1,2.8c-1.3-1.7,0.5-3.2,2.3-4.2c12.2-7,11.8,5.4,8.6-18.2c-3.6-26,0.7-18.6-45.6-57.3
			c0.5,7.4,1.6,14.6,0.5,21.7C64,73.4,71.8,80.8,77,97.8c1,3.2-2.8,4.6-4,1.2c-5.6-16.5-12.1-21.6-22.7-29.9c-0.5,2.6-1,4.8-1.4,7.2
			c4.9,5.3,8.8,12.4,10,16.2c0.9,2.8-2.5,4.1-3.7,1.7c-3-5.8,0.8,0-7.4-12.8C41.3,98,41.8,94.2,44.3,98.6z"/>
		<path class="st2" d="M182.3,160.7c-8.9-9.5-8.7-9.4-10.9-11.1c-1.8-1.4-4.2,0.5-3,2.7c0.2,0.3-0.7-0.7,15.6,17.8
			c0.4,0.5,2.1,2.9,4,1.3C191.4,168.5,181.4,161.5,182.3,160.7z"/>
		<path class="st2" d="M115.8,56.8c1.7-1.7,1-4-3.8-4.2c-0.6,0-13-0.3-14.3,0c-2.9,0.5-2.6,4.3,0.2,4.3
			C100.4,57,113.8,57.3,115.8,56.8z"/>
		<path class="st2" d="M121.7,134.3c4.3,6.1,5.2,8.2,7.2,7.1c3.8-2-4-10.2-6.8-12.3c-2.2-1.7-4.9,1.1-2.7,3.3
			C119.5,132.4,121.5,134.4,121.7,134.3z"/>
		<path class="st2" d="M20.4,130.1c10.2-11,2-13.6,0.8-9.2c-0.7,2.6-2.4,4.4-3.9,6.4C15.4,129.6,17.7,132.2,20.4,130.1z"/>
		<path class="st2" d="M112.4,66.2c-1.1-0.2-0.1-0.6-8.9,0.2c-3.5,0.3-3.2,4.5,0.4,4.3c6.3-0.5,7.6-0.4,8.7-1.4
			C113.5,68.6,113.4,67.2,112.4,66.2z"/>
		<path class="st2" d="M123.5,45.3c-2.9,3,5,6.2,7.9,6.7c2.5,0.4,3.6-2.7,1.1-3.9C126.2,45.1,125,43.9,123.5,45.3z"/>
		<path class="st2" d="M85.3,141c1.8,1.9,3.7-0.6,5.3-1.8c1.7-1.3,4-1.9,3.1-4.1c-1.1-2.7-3.7-0.5-6.8,1.4
			C87.2,137,83.4,138.8,85.3,141z"/>
		<path class="st2" d="M162.2,109.6c-4.2,3.8,7.1,5.9,8.1,3.2C171.4,109.8,164.5,108.5,162.2,109.6z"/>
		<path class="st2" d="M155.1,32.3c-1.9-2.2-5.4,0.6-3.5,3C153.6,37.7,157.1,34.6,155.1,32.3z"/>
		<path class="st2" d="M93.3,170.3c-2.2,2.2,1.2,5.4,3.3,3.1C98.6,171.2,95.4,168.1,93.3,170.3z"/>
		<path class="st2" d="M26.9,90.4c-2.1-2.1-5.3,1-3.3,3.1C25.8,95.8,29.2,92.6,26.9,90.4z"/>
		<path class="st2" d="M173.5,80.7c-2.2,2.1,1.1,5.4,3.2,3.2C178.8,81.7,175.5,78.7,173.5,80.7z"/>
		<path class="st2" d="M193.2,99.6c-2-2.2-5.5,0.9-3.3,3.1C191.9,104.8,195.1,101.7,193.2,99.6z"/>
		<path class="st2" d="M61.6,98.5c-2-2.2-5.3,0.8-3.4,3C60.2,103.8,63.7,100.8,61.6,98.5z"/>
		<path class="st2" d="M220.7,89.4c-2-2.3-5.5,0.8-3.3,3.1C219.5,94.6,222.7,91.5,220.7,89.4z"/>
		<path class="st2" d="M194.2,180c1.9,2,5.2-0.6,3.3-2.7C195.6,175.1,192.2,177.9,194.2,180z"/>
		<path class="st2" d="M204.9,188.4c2.2-1.9-0.5-5.3-2.6-3.4C200.1,187.1,202.8,190.3,204.9,188.4z"/>
		<path class="st2" d="M117.7,148.7c2.1-2-1.1-4.8-3.1-2.7C112.7,148,115.8,150.6,117.7,148.7z"/>
	</g>
	<g class="st1">
		<path class="st2" d="M789.3,721.9c-32.5-0.4-72.3-28.8-80.4-41.6c-1.9-3-1.9-6.4,0.1-9c3.2-4.2,9.3-5.1,14.1-6
			c-4-4.9-33.5-9.5-95.4-69.7c-14.1-13.7,9.6-8.6,23.6-13.7c-5.2-5.6-17.7-13.7-30.6-27.9c-17.6-19.4-27-38.7-27.7-42
			c-1.4-7,10.1-2.6,19.6-2.4c-3.1-3.1-6.4-6.3-8.3-10.1c-8.7-17.5-8.6-16.9-17.7-40.1c-8.4-21.5-11.7-27.8-4.5-27.8
			c3.2,0,67.5,11.7,85.8,16.1c39.2,9.3,38.8,19.9,31.7,3.2c-2.9-6.9-5.1-9-2.9-10.9c1.7-1.5,3.8,0,5.6,1.5
			c58.4,50.2,68.5,59,92.1,106.7c12.5-23.9,13.4-13,20.4,7.9c10.4,30.7,22.2,65.1,8.3,110c-7.9,25.3-20.2,44.2-29.2,53.7
			c4,20.5,3.4,21.1,2.4,54.8c0,0.7-0.4,1.4-0.6,2.1C786.4,784.4,796.6,754.6,789.3,721.9z M687.4,610c-3.2,0.1-5.6,0.8-6.9,0.3
			c-1.6-0.7-4.9-5.8,14.8-4.7c32.3,1.7,56.8,21,57.8,21.1c-5.2-12.1-27.9-46-28-46.1c-19.1-29.3-41.7-8.6-47-9.5
			c-2.1-0.4-2.6-3.7-0.1-4.6c6.5-2.3,4.4-2.5,16.1-5.6c-1.2-1.3-21.8-7-34.1-4c-2.1,0.5-8.7-5.5,11.6-5.4
			c18.2,0.1,37.3,10.2,38.7,10c-17.3-25.1-61-61.8-73.4-72.7c-2.1-1.9,0.2-4.9,2.4-3.5c3.8,2.5,25,21,28.2,23.8
			c23.8,21.2,33.6,34.8,32.7,32c-3.9-13.5-4.8-22.2-5-22.6c-9.2-18.2-16.7-25.4-20.4-33.6c-1.2-2.7,2.3-4.4,3.7-2.1
			c2.3,3.7-0.5,0,9,13.6c9.3,13.2,7.1,9.7,7.1,9.1c0.7-28.6,7.8-21.4,7-18.6c-6,21.1,0.7,56.3,12.4,71.1
			c59.1,74.5,37.5,80.6,37,25.3c0-6-6.3-26.6-7.5-30.2c-1.1-3.3,3-4.3,3.9-1.7c4.2,11.5,4.3,14.8,4.9,14.9
			c0.1-0.2,2.7-15.1,6.7-22.6c1.3-2.5,4.8-1,3.9,1.7c-9.4,28-8.5,43.7-2.9,73.6c4.1,21.4,6.8,24.3,9.3,30.2
			c18.6,45.2,0.1,15.7,22.5-18.5c1.8-2.7,5.2-0.7,3.7,2.2c-19.4,35.9-10.9,53.3-2.9,81.7c7.4-9.3,16.6-24.5,21.6-37.6
			c13.5-35.7,17-69-9.9-136.2c-4.4,5.8-8.4,19.1-13,12.1c-8.2-12.4-6.6-34.5-79.8-96.9c-9.4-8-7.8-8.9-3.3,5.1
			c1.2,3.6-0.9,5.7-3.5,5.1c-12.4-3.1,3.7-8.4-121.5-29.5c23.3,67.3,30.5,66.7,35.8,72.7c1.9,2.1,0.4,4.7-2.3,5
			c-3.6,0.4-5.2,0.6-18.2-1.2c7.1,12.7,16.4,33,48,58.1c5.3,4.2,13.4,10.3,8.6,14c-6.4,4.9-25.3,4.1-25.7,5.3
			c53,52.7,92.7,67.5,100.1,72.9c2.4,1.7,2.2,5.3-3.2,6.4c-6.1,1.3-17.6,2.8-12.9,8.5c15.9,19.4,51.9,38.6,74.7,38.8
			c0-7.8-20.5-62.8-29.7-80C758.3,637.1,726.6,608.5,687.4,610z"/>
		<path class="st2" d="M828.1,556.7c-1.1-0.3-2.2-0.8-3.1,0.3c-1.4,1.5,0,2.8,0.4,3.6c20.4,51.7,13,75.9,9.1,97.4
			c-0.8,4.6,3.3,4.6,4.3,2.5c0.5-1,3.4-17.6,4-21.7C847.7,605,832,561.3,828.1,556.7z"/>
		<path class="st2" d="M622.9,607.5c2.2,1.3,4.4-0.7,3.5-2.6C625.2,602,620.3,604.3,622.9,607.5z"/>
		<path class="st2" d="M654.1,640.5c17.1,13.3,25.5,17,38.6,21.9c4,1.5,5.3-2.4,3-3.9c-0.1,0-24.7-8.9-38.9-21.5
			C654.5,635,651.4,637.4,654.1,640.5z"/>
		<path class="st2" d="M599.6,554.3c4.8,5.8,12.4,12,16.6,14.8c3.8,2.6,5.9-1.5,3.6-3.3c-11.9-9.3-21.1-16.5-25.9-30.9
			C592.9,531.9,582.4,530.8,599.6,554.3z"/>
		<path class="st2" d="M848.8,624.7c3.1,10.3-2.7,30.1-2.9,31.4c-0.2,2.7,3.2,3.6,4.4,1.4c2.7-4.7,5.7-27.7,2.4-34.2
			C851.6,621.1,848.1,622.4,848.8,624.7z"/>
		<path class="st2" d="M748.6,474.4c9.1,5.3,17.6,18.7,20.2,21c2.3,2.1,5.4-0.5,3.6-3.1C749.9,461.4,744.6,472.1,748.6,474.4z"/>
		<path class="st2" d="M646.9,631.6c2.3,1,4.5-1.7,2.6-3.7c-4.7-4.8-9.8-8.7-16-16.6c-1.3-1.6-3.6-0.8-3.7,0.7
			C629.3,616.2,645.6,631,646.9,631.6z"/>
		<path class="st2" d="M779.9,503.9c-2.3-2.7-5.5,0.1-3.3,2.7c6.7,8.1,9.2,14.6,10.1,16.4c1.7,3.3,5.8,1.1,4.3-2
			C788.3,515,785.2,510,779.9,503.9z"/>
		<path class="st2" d="M738.4,463.8c-2.2,1.8,0.6,5.1,2.8,3.2C743.3,465.1,740.5,462,738.4,463.8z"/>
		<path class="st2" d="M848.2,613.5c1.8,2.1,5-0.6,3.1-2.7C849.5,608.7,846.4,611.4,848.2,613.5z"/>
		<path class="st2" d="M795.7,623.6c-2.5,2,1,5.2,3.3,3.4C801.3,625,798,621.7,795.7,623.6z"/>
		<path class="st2" d="M670.1,477.6c1.6,2.1,5.6-0.3,3.8-2.7C672,472.6,668.2,475.2,670.1,477.6z"/>
		<path class="st2" d="M671.9,606.7c-2.2,1.8,0.5,5,2.7,3.2C676.8,608.2,674.1,604.9,671.9,606.7z"/>
	</g>
	<g class="st1">
		<path class="st2" d="M461.4-39.4c-0.4,0.6-1.8,9.2-1.8,14.7c0.1,15,3.6,28.6,13.8,40.1c12.4,13.9,27.8,22.6,38.7,25.3
			c4.4,1.1,11.2,2,12.7,2.6c1.4,0.5,2,1.9,1.5,3.3c-0.3,0.8-0.7,1.6-1.1,2.3c-4.2,6.5-4.1,17.5-2.2,25.1
			c4.5,18.3,17.4,29.4,19.6,33.7c0.9,1.7,0,3.6-1.9,3.9c-1.3,0.2-4-0.4-6.5-0.4c-8.4,0-19.8,8-26.3,13.3
			c-10.2,8.4-13.5,16.7-22.4,30.8c-1.4,2.2-3.6,2.3-5.3,0.4c-3-3.2-3.7-7.6-18.8-22.9c-8-8.1-11.8-9.2-33-19.5
			c-0.9,1.3-4.1,7.1-5.3,9.5c-22.1,43.1-7.4,78.9-6.2,86.5c0.4,2.7-1.6,4.5-4.2,3.5c-3.5-1.3-8.1-4.2-13.1-4.2c-3,0-6,0.1-8.9,0.5
			c-11.2,1.4-21.6,5.5-31.3,11.1c-5.9,3.4-11.2,7.6-16.3,12c-0.9,0.8-1.9,1.2-3.1,0.7c-3.7-1.7,0.6-6.8-2.6-22
			c-2.8-13.2-13.9-32.7-30.2-45.7c-2.8-2.2-5.5-4.5-8.2-6.7c-0.2-0.2-0.4-0.4-0.6-0.5c-1-0.6-1.6-1.4-2-2.5
			c-1.4-3.6,1.8-3.3,3.9-4.6c21.8-14,37.7-34.2,46.7-57c1.2-3.1,2.4-6.3,3.7-9.5c-0.7-0.7-1.4-1.5-2.2-2.2c-7.9-7-22-11.5-32.2-14.2
			c-10-2.7-20.3-3.7-30.6-2.9c-4.6,0.4-18.9,2.1-19.3,2.3c-1,0.5-2,0.4-3,0c-3.6-1.3-1.1-4.4-0.6-5.8c1.5-4.4,3.1-8.9,4.4-13.3
			C277.7,14,257.5,3.6,254.6-4c-0.9-2.2,0.4-4,2.7-4.2c2.7-0.2,7.3,1.3,14,1c30.5-1.5,48.3-29.4,50.5-60.4c0.2-2.8,4.1-3.3,4.8-0.3
			c0.3,1,0.6,2.1,1,3.1c3.8,7.7,9.1,14.3,15.6,19.9c11.8,10.1,29.1,17,44.4,19.7c12.8,2.3,21.1,1.8,34.1-0.7
			c18.2-3.5,25.5-10.5,34.6-17.8c2.4-1.9,9.9-15.7,24.9-33c7.1-8.2,14.6-15.9,22-23.9c2.2-2.4,5,0,4.2,2.1c-0.3,0.8-0.6,1.2-7.3,8.1
			c-20.4,21.1-28,33-38.7,48.1C462-41.1,462-40.2,461.4-39.4z M443.9-28.7c-11.2,6.7-30.4,9.9-43.3,9.8c-10.9-0.1-24.3-3.4-34.5-7.4
			c-16.4-6.4-30.3-15.7-39.8-31c-0.2-0.3-0.4-0.6-0.7-1C317.5-16.5,290.1,1.1,261-3c4,5.1,5.4,6.7,7,9.1
			c15.4,22.3,1.1,50.6-0.5,56.2c9.1-0.7,25.5-4.7,45.6-0.1c12.5,2.9,34.2,9.4,41.7,19.7c0.9,1.2,1.1,2.6,0.6,4.1
			c-3.1,8.1-6.1,16.3-10.4,23.9c-8,14.2-17.9,26.6-30.6,37c-3.6,2.9-7.7,5.4-12.1,8.2c1.8,1.5,3.4,3.1,5.3,4.4
			c12.9,9.3,25.2,24.9,31.7,41c4,9.9,4.1,16.8,4.3,25.3c6.6-5,14.6-11.6,29.2-17c8.4-3.1,17.1-4.8,26.1-4.8c6.8,0,11.7,3.1,12.6,3
			c-0.9-3.5-3.3-11.4-4.4-20.7c-3.1-26.3,2.3-49.9,15.6-72.5c1-1.7,2.1-3.2,3.3-4.8c0.3-0.4,0.8-0.8,1.3-1.1c1-0.5,2.2-0.3,3,0.5
			c2.9,2.7,8.5,3.7,23.9,12.5c8.1,4.6,21.5,19,28.5,30.2c7.5-10.7,11.3-27.6,40.7-42c6.3-3.1,11.1-2.5,11.8-2.7
			c0.1,0,0.1-0.1,0.5-0.3c-0.3-0.3-0.6-0.5-0.9-0.8c-3.4-4.4-14.1-16.7-17-32.7c-1.6-8.9-0.9-15.5,0.9-21.2c0.5-1.4,1-2.7,1.6-4.2
			c-0.5-0.1-1.1-0.3-1.7-0.3c-19.6-2.7-38.4-15.8-50-29.8c-2-2.4-3.9-4.9-5.9-7.5c-0.3-0.4-0.3-0.9-0.5-1.3
			c-1.2-3.5-6.9-13-7.5-29.7c-0.1-2.1,0.2-4.2-0.1-6.3c-0.2-1.4,0.1-2.7,0.2-4.2c-1,1.1-14.5,24.5-15.2,25.8c-0.6,1-0.4,2.4-0.5,3.6
			c-0.8,9.3,0.9,18.3,3.7,27.2c4.2,12.9,9.3,25.3,16.4,36.9c4,6.4,14.7,10,21.7,11.1c1.6,0.2,3.2,0.2,4.8,0.1c3.4-0.2,3.4,3.7,1,4.1
			c-8.4,1.6-17.8-3.1-18.8-3c1.2,2.1,8.7,10.6,16.5,16.9c2,1.6,4.2,3.1,6.8,3.6c2.3,0.5,2.2,5-2,3.9c-7.4-1.9-18.4-13.3-23.3-19.2
			c-6.9-8.3-10-13.9-11.5-16.3c-0.6,4.1-1,10.1-5.8,22.3c-0.4,1-1,1.9-1.6,2.7c-1.5,1.9-4.6-0.3-3.4-2.4c2.5-4.3,5.1-14.9,5.7-21.1
			c0.5-4.9,0.2-9.8-1.8-14.4c-17-37.6-11.8-48.6-13.9-44.9c-17.3,31.8-29.3,54.8-39.1,85.7c-1.6,5.1-2.2,5.8-1.7,14.2
			c0.6,9.2,4.9,20.4,7.1,24c1.5,2.4-2,4.8-3.6,2.2c-2.6-4-6.2-13.1-7.5-20.3c0-0.2-0.1-0.3-0.3-0.5c-1.2,4-16.8,56.7-16.8,60.8
			c0,2.9-3.9,2.9-4.3,0.5c-0.1-0.8,0-1.7,0.1-2.5c1.8-9.6,9.1-35.8,9.1-35.8c-4.9,5.3-10.1,10.6-18.9,14.9c-1.5,0.7-2.7,0.5-3.3-0.7
			c-0.6-1.1-0.1-2.4,1.2-3.1c6.6-3.6,12.3-8.3,17.1-14.1c8.2-9.8,8-10.9,9.2-14.7c2-6.7,4.1-13.4,6-20.1c0.6-2,1.4-4,2-5.9
			c8.1-26,18.8-47.9,31.2-71.3c-0.5,0.1-0.8,0.1-1.1,0.2c-17.4,5.2-31,5.9-46.1,7.1c-1.6,0.1-3,0.8-4.4,1.6
			c-5.3,3.2-10.5,6.6-15,10.9c-3.4,3.2-3.8,3.7-5.1,5.4c-1.8,2.5-4.9,0.2-3.7-2c2-3.9,10.4-11.1,14.6-14c0.6-0.4,1.1-0.8,1.7-1.4
			c-16.3,0.1-39.4-0.6-54.3-7.4c-2.7-1.2-5-2.9-7.5-4.6c-2.4-1.6-0.3-5.1,2.4-3.5c0.8,0.5,1.6,0.9,2.3,1.5c8.6,6,26.8,8,37.5,8.8
			c0.2,0,0.4,0,0.7-0.2c-6.9-6.9-8.2-9.7-10.8-16.2c-1.2-3.1,3-4.5,4-1.6c1.8,5.8,7.5,13.5,15.3,18.1c0.4,0.2,1,0.4,1.4,0.3
			c19.8-0.2,51-0.7,70.9-9.2c1.8-0.8,1.6-3.9,24.8-43.3c0.4-0.7,0.4-0.6,0.2-0.7C447.3-30.7,445.6-29.7,443.9-28.7z"/>
		<path class="st2" d="M281.8-20.7c6.5-2.6,11.8-6.6,16.2-12c6.2-7.6,6.9-10.7,8.5-13c2.1-3.1-2.2-6-4.1-2.7
			c-2,3.6-6.3,13.3-16.2,20.1c-7.6,5.2-12,4.8-18.1,5.2c-2.8,0.2-3.1,3.9-0.1,4.3C268.6-18.7,276.6-18.7,281.8-20.7z"/>
		<path class="st2" d="M426.1,163.3c-0.1,14.6-0.7,30.5,5.8,43.6c0.4,0.8,0.8,1.6,1.3,2.3c1.6,2.3,5,0.4,3.6-2.2
			c-6.6-12.3-6.1-30.3-5.8-44c0.1-3.1-3.4-3.6-4.5-1C426.3,162.5,426.2,162.9,426.1,163.3z"/>
		<path class="st2" d="M513,28.2c-9.9-1.1-24.6-10.5-27.9-16.8c-1.4-2.8-4.7-1.1-4.5,1c0.1,0.8,0.3,1.7,0.8,2.3
			c2.6,3.4,5.5,6.5,9,8.9c5.5,3.8,11.4,6.6,17.9,8.2c2.4,0.6,4.8,0.7,7.3,0.9c2.8,0.2,3.6-3.9,0.2-4.3
			C514.8,28.4,513.9,28.3,513,28.2z"/>
		<path class="st2" d="M294.7,167.5c-2.6,0-2.9,3.4-1,4c1.7,0.5,2.9,1.7,4.2,2.6c7.4,5.2,11,10.6,16.5,18.2c2.8,3.8,3.2,5.5,5.2,6.5
			c1.8,0.9,4.3-1.4,2.8-3.5c-8.2-11.6-11.9-18-22.4-25.2c-3.2-2.2-1.7-1.3-4.6-2.7C295.3,167.6,295.4,167.5,294.7,167.5z"/>
		<path class="st2" d="M300.4-60.2c0.4-2.8-2.9-3.9-4.3-1.7c-0.7,1.1-1.8,5-5.1,10.1c-3,4.6-7.2,7.5-12.3,9.4
			c-0.8,0.3-1.6,0.5-2.4,0.8c-3.1,1.1-1.9,4.9,1.2,4.1c16-4,19.2-14.3,22.8-22C300.4-59.8,300.4-60,300.4-60.2z"/>
		<path class="st2" d="M296,179.7c-2.9-0.5-3.7,2.6-1.9,3.7c4.4,2.9,6.9,6.7,13.9,15.9c1.7,2.2,3.3,5.1,5.5,3.4
			c1.1-0.9,1.3-2.3,0.3-3.6c-0.8-1.1-1.6-2.1-2.4-3.2C307.6,191.2,301.4,182.4,296,179.7z"/>
		<path class="st2" d="M334.2,225.3c-0.7-8.1-3.8-16.7-5.6-19.3c-1.6-2.3-4.9-0.2-3.6,2.1c2.5,4.9,4.4,13,4.3,16.7
			C329.2,228.4,333.7,229.1,334.2,225.3z"/>
		<path class="st2" d="M429,150.4c-0.3,2.2-1.1,4.6,1.1,5.3c1.2,0.4,2.4-0.3,2.7-1.7c0.4-1.6,0.6-3.1,1-4.7
			c2.3-8.8,3.3-9.6,1.8-10.9c-1.3-1.2-3.4-0.7-4,1.5C428.6,151.5,428.9,150.3,429,150.4z"/>
		<path class="st2" d="M320,210.2c0.2-1.1-0.6-2.2-1.7-2.4c-1.2-0.2-2.5,0.7-2.7,1.9c-0.2,1.2,0.5,2.2,1.7,2.4
			C318.6,212.3,319.8,211.4,320,210.2z"/>
		<path class="st2" d="M306.5-60.9c-0.1,1.2,0.7,2.3,1.8,2.4c1.1,0.1,2.2-0.7,2.4-1.9C311-63.2,306.8-63.8,306.5-60.9z"/>
		<path class="st2" d="M476.4,4.9c1.2,0.1,2.3-0.7,2.4-1.9c0.1-1.1-0.7-2.2-1.8-2.3C474.2,0.3,473.6,4.5,476.4,4.9z"/>
	</g>
	<g class="st1">
		<path class="st2" d="M-29.3,482.3c16.6,11.2,16.2,19,30.2,39.1c1.8,2.6,0.4,4.7-1.8,4.8c-1.3,0.1-5.3-0.8-8.2-1.5
			c-21-4.7-32.4-19-30.9-41.1c-11.3,1.2-36.6,7.5-44.7,9.4c-15.3,3.7-20.4,6.9-23,7.5c-3,0.7-4.2-2.9-1.3-4.1
			c13.4-5.5,12.3-6,51.3-14.6c1.2-22.4,4-49.8,24.5-59.1c7.3-3.3,21.3-7.4,19,0.4c-0.1,0.4-16.2,37.9-16.2,38
			c-12.4,26.5-30.5,17.4,19.4,14.7c-2.4-55.4,50.8-67.1,42.2-51.4C22.3,440.5,21,449,14.2,460.2C-1.3,486-14,470,41.3,476.1
			c-0.5-8.1,4.6-17.6,9.8-23.7c12.3-14.7,36.8-11,32.3-3.8c-1,1.6,1-1.3-19.4,20.1c-8.7,9.1-9.9,8.1-9.8,9
			c12.4,1.2,24.1,4.9,35.9,8.4c36.6-21.5,63.9,33,50.1,28.6c-2.6-0.8-8.1-4.6-18.1-7.6c-11.3-3.4-29.9-2.8-33.2-16.3
			c-4.2-1.2-8.4-2.4-12.7-3.7c5.6,9.8,11.6,22.3,11.6,22.4c0.7,1.9-0.7,3.6-2.7,3.5c-1.7-0.1-10.4-3.1-14.8-6.3
			c-7.7-5.6-8.8-13.5-5.8-22.6c-13.4-2.1-26.9-3.9-40.6-4c0.4,0.6,3,2.5,5,4.5c6.4,6.2,20.2,32.2,20.6,33.5c0.7,2-0.5,3.7-2.6,3.8
			c-2.1,0.1-5.9-1.4-7.9-2.3C13.7,509.1,9.2,485.5,10,480C-3.1,480.2-16.1,480.7-29.3,482.3z M-26.2,425.3
			c-21.9,6-25.1,31.7-26.6,54.4c12.5-6.5,18.4-18.3,33.2-56C-19.9,423.3-19.1,423.4-26.2,425.3z M-6.2,474.4
			c19.1-11,21.2-30.5,32.2-50.5c0.3-0.6,0.5-0.3,0.1-0.8C-7.7,432.6-8,473.6-6.2,474.4z M95.6,493.8c8,7.5,11.7,1.8,42,14.1
			c-0.5-1-2.7-5.9-8-11.8c-12-13.5-29.9-11.2-36.3-6.3C93.5,491.5,94.4,492.7,95.6,493.8z M-5.5,520.4
			c-8.3-12.9-16.1-31.2-29.6-35.8C-37.2,500.3-27.4,518.1-5.5,520.4z M46.2,476.2c6.6-1.6,10.2-7.1,31.6-28.6
			C53.5,444.1,45.4,469.3,46.2,476.2z M14.7,481.6c2,19.1,17.6,31.5,28.1,34.2C35.7,503.8,25.8,480.9,14.7,481.6z M80.9,506.6
			c-5.6-11.7-7.2-16.4-11.8-20.3C65.4,491.7,67.7,502.9,80.9,506.6z"/>
		<path class="st2" d="M11.9,410.9c-9,3.3-15.4,9.1-20.6,17.2c-2.8,4.4,1.4,6,3.1,4c1.6-1.8,9.6-18.4,30.2-18.8c2.1,0,4.1,0.2,6,1.2
			C36.2,417.2,37.6,403.7,11.9,410.9z"/>
		<path class="st2" d="M9,508.7c0.3,0.6,5,8.4,9.7,12.4c4.1,3.5,5.4,4.1,16.1,8.2c6.4,2.5,6.8-2.8,3.7-3.5
			c-19-4.4-23-17.2-25.7-19.7C10.9,504.3,8,506,9,508.7z"/>
		<path class="st2" d="M132.8,483c-1.4-1.6-3.1-3-4.8-4.3c-11.8-9-20.5-6.7-29.6-4.9c-3.3,0.6-2.7,5.1,0.5,4.7
			c5.6-0.6,15.3-5.1,27.4,4.4C129.8,485.8,132.1,487.7,132.8,483z"/>
		<path class="st2" d="M-46.7,525c2,1.6,5-0.6,2.7-3.3c-9-11-7.1-23.3-7.7-25.4c-0.5-2.1-3.1-2.4-4.1-1c-1.3,1.9-0.2,11.3,0.4,13.7
			C-54.7,511.5-50.4,521.9-46.7,525z"/>
		<path class="st2" d="M-23,527.6c-2.3-2-0.1,0.2-5.4-3.8c-7.7-5.8-10.2-11.6-13.5-16.1c-2.8-3.8-6-0.2-4.6,1.9
			c6.3,9,10.3,16.1,21,21.1C-24.2,531.2-22.2,529.9-23,527.6z"/>
		<path class="st2" d="M56.9,436.7c-3.1,1.2-1.6,5.4,1.5,4.5c10.1-3,14.3-4.8,23.8-0.1c2.7,1.3,4.4-2,2.3-3.6
			C76.7,431.7,65.3,433.4,56.9,436.7z"/>
		<path class="st2" d="M-68.4,473.5c1.9,4,4.9,1.5,4.4-0.6c-2.2-8.8-0.2-15.4,1.9-23.2c0.9-3.2-3.6-5.5-5.2,0.3
			C-71,464.2-68.7,473.6-68.4,473.5z"/>
		<path class="st2" d="M-55.7,426.1c-8.1,8.1-1.7,9.5-0.1,7c5.2-8,14.9-10.8,16.5-12.1c1.9-1.6,0.3-4.6-2-4
			C-43.4,417.6-50.4,420.7-55.7,426.1z"/>
		<path class="st2" d="M46.8,442.8c-4.9,3.8-13.7,16.2-7.6,16.6c3.3,0.2,1.2-3.7,9-12.1c0.4-0.4,0.9-0.8,1.3-1.3
			C50.8,444.4,49.4,441.9,46.8,442.8z"/>
		<path class="st2" d="M41.2,415.9c-1-2.9-5.4-1.3-4.4,1.5C37.8,420.4,42.2,418.8,41.2,415.9z"/>
		<path class="st2" d="M87.1,479.9c1,2.8,5,1,4.1-1.6C90.3,475.5,86.2,477.2,87.1,479.9z"/>
		<path class="st2" d="M-38.7,527.2c-2.6,1-1.3,5.1,1.4,4.1C-34.7,530.4-36,526.2-38.7,527.2z"/>
		<path class="st2" d="M-62.8,439.6c0.9,2.6,4.7,1.2,3.8-1.3C-59.9,435.8-63.7,437-62.8,439.6z"/>
	</g>
	<g class="st1">
		<path class="st2" d="M631.3,646.2c-2.6,2.9,4.6,3.9,1.6,15.7c-1,4,3.8,4.5,4.5,1.3C640.2,650.4,634,643.2,631.3,646.2z"/>
		<path class="st2" d="M581.1,736.8c-7.1-10.6-13.1-21.7-18-33.4c-13.4,4.7-18.7-10.5-11.5-17.1c8.7-7.9,21.7,2.5,15.3,13.7
			c7.7,18.8,18.3,36,31.8,51.4c-0.2-3-9.9-15-17.5-64.4c-0.3-2.1-1.4-1.6-10.7-12.4c-7.4,1-23.1-4.3-30.2-6.7
			c-4.2,15.2-24.6,10.1-25.3-3.3c-0.8-14.2,20.3-16.8,25-2c8.7,3.4,17.6,6.4,26.9,7.6c-4.8-7.5-9.6-14.9-14.3-22.3
			c-5.8,3.7-12.3,1.8-15.8-2.7c-8-10.4,3.9-24.7,15-17.9c5,3,7.5,9.8,4.5,16.1c0.9,4.3,20.2,32.7,23.7,34.9
			c-1.6-12.5-2.1-25.1-2.8-37.5c-16.7-3-15.6-26.1,0.1-27.8c16.8-1.8,21.6,22.9,4.8,27.5c0.8,24.7,3.2,49.1,9.1,73.1
			c0.8-1.5,3.7-13.7,9.7-25.5c2.6-5.2,4.8-8.9,10.8-19.7c-14.3-5.5-13.7-20.1-3.9-24.7c16.5-7.6,30.8,16.9,14.2,24
			c-1.6,0.7-3.4,1-5.3,1.5c-6.2,11-13.1,21.9-16.9,34.1c24.3-3.3,17,1.4,20.6-4.5c8.7-14.5,28.1,1.7,18,15.2
			c-5.7,7.7-17.9,5.9-20-7.1c-4.4-0.7-19.9-0.9-21.1,3.4c-0.7,2.3-4.4,10.8-2.7,16.3c12.2,41.4,41.2,74.8,41.3,74.9
			c1.3,2.4-1.6,4.5-3.4,2.5c-8.3-9.2-14.1-15.8-27.5-40.3c-8.7-7.4-11.9-11.9-19-20.2c-0.8-0.2-1.6-0.3-2.3-0.6
			c-25.8-12.4-22.2-14.6-24-12.4c-8.7,10.7-26,1-18.3-10c6.1-8.6,20.8-6.2,20.6,4.2C567.9,729.7,574.5,733.2,581.1,736.8z
			 M585.9,621.3c-7.4-9.5-21.4,1.6-14.1,11.2C579.3,642.2,593.3,630.8,585.9,621.3z M623.6,653.2c-5.7-11.7-24.9-4.5-15.6,7.4
			C615,668.4,628.2,662.6,623.6,653.2z M535.4,664.1c-1.1-4.4-5.9-7.5-10.3-6.6c-4.7,0.9-6.8,6.1-4.2,10.3
			C525.9,675.9,537.4,672.3,535.4,664.1z M541.7,643.4c6.2,5.4,14.7-2.8,9.7-10C544.5,625.1,534,636.7,541.7,643.4z M635.4,702.2
			c-5.5-11.1-17.8,2.7-9.5,10.1C631.5,717.4,638.8,709.3,635.4,702.2z M556.8,726.1c2.9-6.2-9.1-8.6-12-1.7
			C542.1,730.8,553.5,733.1,556.8,726.1z M554.3,697.6c4.4,5.7,12.8-1.3,8.3-7.1C558.1,684.7,549.9,691.8,554.3,697.6z"/>
		<path class="st2" d="M583.1,604.9c-2.6-0.3-3.2,3.9-0.4,4.2c6.4,0.5,14.4,7.7,12.4,19.2c-0.6,3.5,4.6,4.2,5,0.7
			C601.6,615.5,593.6,606.1,583.1,604.9z"/>
		<path class="st2" d="M619.1,686.7c-2,2-2.3,2.2-2.7,2.9c-1.1,2.1,1.4,4.3,3.4,2.5c6.5-6,10.2-4.1,18.2-0.3
			c3.3,1.6,4.9-2.8,2.3-4.2C633.4,683.9,625,681.7,619.1,686.7z"/>
		<path class="st2" d="M642.3,699.3c2.4,4.4,1.2,8.5-0.1,13.3c-0.9,3.1,4,4.2,4.7,0.9C651.5,692,640.1,695.1,642.3,699.3z"/>
		<path class="st2" d="M606.6,631c1.6-3.6,3.4-7.2,2.3-11.3c-2.6-9.6-7.8-6.1-6.3-3.1c3,5.8,2.7,5.3,0.2,11.6
			C601.4,631.6,605.6,633.2,606.6,631z"/>
		<path class="st2" d="M562.1,740.8c2-2-0.9-4.9-3-3.1c-2.6,2.3-6.1,2-9.7,1.8c-3.3-0.2-3.7,3.6-0.8,4.5
			C550.2,744.5,558.4,744.7,562.1,740.8z"/>
		<path class="st2" d="M541.1,699.2c1.2,3.3,6.1,1.8,4.4-1.5c-2.2-4.3-2-6.2-1.3-9.7C545.2,683.5,535.4,683,541.1,699.2z"/>
		<path class="st2" d="M636.6,722.7c2,2.3,5.5-0.5,3.6-2.7C638.3,718,634.7,720.5,636.6,722.7z"/>
		<path class="st2" d="M630.2,669c-1.8-2.3-5,0.3-3.3,2.6C628.6,673.9,632,671.3,630.2,669z"/>
		<path class="st2" d="M538.3,739.8c1.7,2.2,5.1-0.4,3.5-2.5C540.1,735.1,536.6,737.6,538.3,739.8z"/>
		<path class="st2" d="M551.2,708c2.3-1.8-0.5-5-2.7-3.3C546.4,706.4,549,709.7,551.2,708z"/>
		<path class="st2" d="M579.6,625.4c2.2-1.8-0.4-4.9-2.6-3.2C574.8,623.9,577.4,627.2,579.6,625.4z"/>
		<path class="st2" d="M616.2,653.9c2.3-1.7-0.3-4.9-2.5-3.3C611.5,652.3,614,655.6,616.2,653.9z"/>
		<path class="st2" d="M523.2,663.6c-2.5,1.9,0.5,5.5,2.9,3.6C528.4,665.4,525.6,661.7,523.2,663.6z"/>
		<path class="st2" d="M543.2,635.1c-2.2,1.7,0.2,4.9,2.4,3.3C547.8,636.7,545.4,633.4,543.2,635.1z"/>
		<path class="st2" d="M628.2,702.7c0.9,4.2,5.6,2,4.1-1.1C631.1,698.9,627.7,700.1,628.2,702.7z"/>
		<path class="st2" d="M549.2,726.4c1.6,2,4.7-0.4,3-2.4C550.7,721.9,547.6,724.4,549.2,726.4z"/>
		<path class="st2" d="M561,695.1c2.2-1.7-0.2-5.1-2.5-3.5C556.3,693.2,558.7,696.8,561,695.1z"/>
	</g>
	<g class="st1">
		<path class="st2" d="M341.1,721.2c-45.7-11.6-76.1-35.4-78.5-83.1c-0.3-5.9,0.5-18.4,3.6-27.8c8.1-24.3,25.2-35.2,48.8-40.4
			c18.5-4.1,31.5-0.1,49.5,5.1c1-11.6-13.3-33.4-30.3-37.9c2.2,6.7,3.3,12.1-2.9,17.1c-10.4,8.5-29.7-13.9-7.8-22.1
			c-16.8-11.7-32.2-0.7-29.5,8.6c0.3,0.9,0.5,1.8,0.7,2.8c0.6,3.1-5.4,6.3-5.8-4.7c-0.5-13.2,20.1-25.4,41.2-7.4
			c18.8,2.4,32.4,18.2,38,35.1c1.3-2.1,0.7-9.7,0.3-12.4c-1.2-8.6-5.2-11.9-6.1-15.3c-1.2-4.4,3.3-7.8,7.7-5.4
			c11.9,6.5,17.4,21.5,19,32.7c1.1,7.7,0.2,7.6,0.4,9.7c14.2-2.6,24.9-5,38.8-4.7c53.8,1.4,69.3,52.8,59.7,92
			C473.1,723.8,401,736.5,341.1,721.2z M485.5,636.3c-6.3-82.1-88.9-56.6-89-56.5c25.8,7.2,41.9,20.1,48.4,45.5
			c2.9,11.5,3.1,20.7,0.8,31.2c-12.1,56.2-54.9,64.5-54.4,66C446,720.6,489.8,691.7,485.5,636.3z M379.8,721
			c5.4-3.1,20.8-31.8,18.9-73.1c-1-22.7-5.3-46.9-21.5-63c-2.6-2.6-1.6,0.4-4.5,0c-32.1,26.5-25.6,116.5-6.4,136.2
			C378.3,722.2,377,722.6,379.8,721z M343.2,716.6c-1.3-1.1-6.5-3.9-13.3-11.9c-11-12.9-19.6-27-22.6-43.9
			c-5.4-31.1,8.9-74,49.9-80.3c3.9-0.6,5.8-0.4,5.9-0.7C250.8,540,227.5,694.5,343.2,716.6z M396.7,699.6c-5.6,16.3-9,18.8-7.7,18.3
			c3.6-1.5,7.2-2.8,10.6-4.6c44.2-23.6,58.5-88.3,21.4-116.9c-8.9-6.9-25.2-13.9-38.8-13.2C407.3,614.1,408.4,665.5,396.7,699.6z
			 M311.1,648.7c-0.2,26.7,19.7,59,47.3,70.3c0.4-2.7-7.1-4.5-12.3-48.1c-3.2-26.6,2.1-67.9,19.8-85.8
			C367.5,583.5,311.7,583.7,311.1,648.7z M373.3,541.3c-2.1-1.9-4.9-3.6-6.2-3.7c0.1,0.9,1.4,3.4,2.4,4.2c0.2,0.2,3.4,7.4,3.6,9.8
			c0.6,10.7,1.9,15.3-3.9,25.3c1.4,0.5,2.6,1.1,4.1,1.1c4.8,0,10.2-0.8,11.5-1.2c1.7-9.5-3.7-27.1-11.9-35
			C373.1,541.6,373.2,541.5,373.3,541.3z M319.1,546.3c5.4,11.1,18.4,1.6,8.8-9.9C321.8,536.9,316.4,540.8,319.1,546.3z"/>
		<path class="st2" d="M270.1,689.9c1.9,1.6,4.3-0.4,3.6-2.5c-0.5-1.4-11.1-13.2-15.7-27.7c-1.1-3.6,0-7.9-3.2-7.4
			C247.4,653.3,262.7,683.6,270.1,689.9z"/>
		<path class="st2" d="M278.7,548.5c1.2,2.9,6,2,4.6-1.6c-2.3-6-3.1-8.2-2.1-12.4c2.4-10.5,9.9-10.8,4.5-13.7
			C282.7,520.9,271.7,531.7,278.7,548.5z"/>
		<path class="st2" d="M446,565.5c23.6,8.3,28.3,17,33.9,23.2c2.9,3.2,5.9-0.3,4.2-2.4c-15.6-19.6-35.6-27-46.1-25.8
			c-3.2,0.4-2.7,4.1-0.3,4.3C439.9,564.9,442.4,564.3,446,565.5z"/>
		<path class="st2" d="M484.4,571.4c-3.1-2.2-5.5,1.5-3.1,3.1c19.3,13.7,17.5,43.1,18.1,45.3c0.6,2.4,3.7,2.3,4.4,0.3
			C505.1,616.7,504.2,586,484.4,571.4z"/>
		<path class="st2" d="M501.6,633.5c3.1,0,3-4.7,0-4.7C498.5,628.9,498.5,633.5,501.6,633.5z"/>
		<path class="st2" d="M285.2,559.9c0,2.9,4.5,2.7,4.4-0.2C289.5,556.4,285.1,556.8,285.2,559.9z"/>
		<path class="st2" d="M280.3,699.8c2.9,0.1,2.8-4.1,0-4.2C277.5,695.5,277.4,699.7,280.3,699.8z"/>
		<path class="st2" d="M279,611.7c0,3,3.5,3.8,4.6,1.1c5.9-13.7,6.8-14.6,16.9-21.3c2.5-1.7,0.7-5.1-2.2-3.7
			C288.5,592.8,281.9,601.5,279,611.7z"/>
		<path class="st2" d="M280.2,620.6c-2.9,0.2-2.8,4.6,0,4.5C283,625,283.2,620.4,280.2,620.6z"/>
		<path class="st2" d="M433,638c-0.9-7.9-0.9-17.7-10.5-28.9c-3.9-4.5-7.1-0.2-4.3,2c9.5,7.3,9.6,25.7,10.1,27.4
			C429.1,641.5,433.3,640.8,433,638z"/>
		<path class="st2" d="M430.3,661.5c5.6-18.4-3.4-15.8-2.9-12.5c0.7,3.8-0.3,7.4-1.5,11C424.9,663.2,429.5,664.3,430.3,661.5z"/>
	</g>
	<g class="st1">
		<path class="st2" d="M804.4,436.2c-29.8,0.4-57.1,2.5-65.5-14.2c-3.7-7.2-2-15.2,7.7-20.3c8.4-4.4,22.6-2.4,16.9-7.7
			c-16.5-15.3-54.7-11.5-64.7-22.1c-4.9-5.2-3.4-11.2,2.5-14.8c16.6-10.1,37.4,2.3,33.8-3.1c-8.3-12.5-14.8-13-39.7-34.5
			c-21.6-18.7-15.8-33.7,0.3-30.6c27.5,5.3,49.9,37.2,71.8,45.3c-0.9-10.6-6.1-15.3-8.1-27c-1.5-8.7,1.2-16,8.9-13.7
			c19.5,5.8,41.7,49.2,50.3,57.3c6.8,6.4,10.4-15.3,15.6-20c15.9-14.2,42,43.2,28.6,88.8c-8,27.2-14.7-10.8,22,58.5
			c3.3,6.2-1.5,7.3-3,4.8c-2.9-4.9-11.5-24.4-29.5-48.3C843.2,438.9,829.4,435.8,804.4,436.2z M839.7,421.6
			c-13.9-6.2-19.1-13.5-36.6-0.5c-5.5,4.1-6.9-1.2-4.7-2.6c11.5-7.2,9.5-5.8,12-7c-6.9-1.2-14.6-2-25.9-1.7c-4,0.1-3.4-4-0.9-4.2
			c14-1.3,31.9,0.7,47.1,6.1c-27.6-25.7-75.5-58.3-75.6-58.3c-2.6-1.7-0.4-5.2,2.1-3.7c5,2.9,24.1,16.1,38.3,26.6
			c-7.6-13.4-9.8-22.4-9.1-37.9c0.1-3.1,4.2-3,4.3,0c0.1,4.2-0.5,13.5,3.1,22.8c1.9-2.5,1.6-2.6,5.2-5.7c2.2-2,5.2,1.3,3.1,3.4
			c-2.5,2.6-3.6,1.8-5.9,8.4c10.5,19.9,14.1,19.8,27.3,31.4c33,28.8,28.5,32.5,31.4,26.7c5.9-11.8,12.9-61.2-8.7-87
			c-9.8-11.6-10.7-0.3-16.4,11.8c-2.5,5.3-9,9.1-14.3,4.3c-10.9-10.1-29.6-50.1-48.8-56.4c-4.4-1.4-3.6,8.7,1.3,20.4
			c3.4,8.1,7.9,21.3-0.9,20.4c-15.1-1.4-43.9-37.4-69.8-44.6c-16.6-4.7-13.4,8,1.1,21.6c16,14.9,39.3,27.1,41.8,38.5
			c2.3,10.3-11.5,3.2-24.6,3.6c-8.1,0.2-19.1,4.9-13.5,10.7c8.2,8.5,61.1,8.3,66.7,25.4c1.1,3.3-0.2,6.3-3.3,7.8
			c-4.7,2.3-14.9,0.7-21.3,7.4c-5.5,5.8-0.8,14.5,6.3,17.9c10.1,4.9,30.1,4.7,41.4,4.5c41.5-0.9,44.9,1.9,57.1-0.9
			C841.8,422.5,842.2,422.7,839.7,421.6z"/>
		<path class="st2" d="M711.4,387.5c3.1,0.1,4-4,0.5-4.7c-7.2-1.6-18.5-4.6-21.9-13.3c-0.2-0.6-1-3.2-0.6-4.1c1.2-3.2-3.1-4.2-4-1.6
			C681.8,374.7,698.3,387,711.4,387.5z"/>
		<path class="st2" d="M767.6,290c8.7,2.5,11.7,1.7,25.5,18.2c2.1,2.5,5.2-0.1,4-2.3c-4.5-8.4-18.4-19.8-28.6-19.9
			C766.6,286,765.5,288.6,767.6,290z"/>
		<path class="st2" d="M693,279.1c-8.1-0.2-6.1,5-2.9,4.5c7-1.1,21.7,6.1,26.2,8.8c3,1.8,5-1.7,3-3.7
			C718,287.3,701.8,279.4,693,279.1z"/>
		<path class="st2" d="M848.5,444.3c1.6-2.5-0.4-4.3-2.5-3.5c-17.1,7-28.4-0.1-28.1,5.5c0.1,1.5,1.4,2.2,2.9,2.3
			C829.6,449.4,840.7,448.8,848.5,444.3z"/>
		<path class="st2" d="M805,448.3c4.4,0.2,4-4.1,1-4.3c-12.8-0.8-13.7-1.4-14.5,0.6C789.8,448.5,795.7,447.9,805,448.3z"/>
		<path class="st2" d="M728.2,295.2c-2.4-1-4.2,2-2.2,3.6c8.6,7.2,7.9,8.3,9.8,7.6c4.7-1.8-2.8-7.4-6.5-10.8
			C729,295.8,729.3,295.7,728.2,295.2z"/>
		<path class="st2" d="M720.8,389.4c3.1,0.2,6.2,0.3,9.3,0.4c2.2,0.1,3.2-2.6,1.9-3.7c-1.1-1-1.1-0.8-10.6-1
			C718.2,385.1,718.3,389.3,720.8,389.4z"/>
		<path class="st2" d="M803.1,316.9c1.5-2.4-2.2-5.1-3.8-2.7C797.8,316.7,801.5,319.5,803.1,316.9z"/>
		<path class="st2" d="M782.3,442.3c-2.3-1.5-4.6,2-2.3,3.5C782.3,447.3,784.6,443.8,782.3,442.3z"/>
		<path class="st2" d="M849.3,375.3c9.2,6-2.5-33.1-8.5-27.5c-2.5,2.3,1.3,1.7,4.3,12.2C849.1,374.3,848.1,374.5,849.3,375.3z"/>
		<path class="st2" d="M854.9,394.3c0.8-3.8,1.4-16-3.2-13.7c-2.1,1.1-0.3,1.8-1.1,12.5C850.4,395.5,853.2,397,854.9,394.3z"/>
		<path class="st2" d="M747.7,348.1c2.6,1.7,5.1-2.3,2.5-3.9C747.6,342.5,745.1,346.5,747.7,348.1z"/>
	</g>
	<g class="st1">
		<path class="st2" d="M48.2,800.3c2.7-38.6,4.2-63.6,11.5-84.3c12.1-34.4,18.5-24.7-0.5-20.4c-31.5,7.2-45.9-21.8-34.5-23.3
			c27.3-3.4,30.1-2.4,41.8,1c-6-7.6-32.2-31-38.8-64.8C23,585.2,39,548.5,47,563.2c1.8,3.3,5.7,13,8.5,18.9
			c9.5,19.6,20.3,37.1,23.9,60.8c0.7,4.7,4.4-26.5,25.5-53.6c12.5-16,28.3-27.4,47.2-34.9c18.8-7.4,41.4-9.1,47.7-7.8
			c4.3,0.9,4.1,5.1,2.3,9.2c-23.7,54.4-29.1,63.5-51.5,87.2c21-4.5,36.2-4.2,59.9,4.8c9.3,3.6,34.8,16.4,32.7,26.2
			c-2.7,3.3-2.4,4.3-14.7,6.9c-45.6,9.8-78.3,19.6-110.3,10.4c-12-3.5-11.3-3.7-9.8-2.4c43.8,36.8,47.5,94.2,31.8,87.4
			c-3.4-1.5-24.1-15.7-36.7-28.2c-16.5-16.3-24-32.5-24.2-60.2c-29.7,34.8-21.8,114.4-28.6,116.1C48.7,803.8,48.1,802.2,48.2,800.3z
			 M151.3,590c2.3-1.4,4.3,1.2,2.9,3c-1.3,1.8-6.3,2.5-17.2,12.5c-3.4,3.1-3.5,1.3,9.5,1.3c2.7,0,3.1,3.4,0.9,4.4
			c-2.9,1.2-9.9-1-18,2.6c-4.8,2.2-16.1,18.1-19.5,22.8c0.7-0.1,11.3-5,23-4c2.6,0.2,2.7,3.9,0.1,4.2c-29.9,3.5-29.1,7.4-43.6,33.2
			c-0.5,0.8-0.9,1.5-0.1,1c16.1-11.3,53.5-13.1,81.6-61.4c10.4-17.8,25.9-53.2,27.6-58.3c-0.9-0.1-1.6-0.3-2.3-0.3
			C90.2,552.3,77.7,663.6,82.6,673c8-16.7,17.8-32.2,29-46.8c-0.7-8.8,3-28.4,3.6-29.8c1.1-2.7,5.1-1.9,4.5,1.3
			c-2.2,12.1-3.5,18.5-3.7,22.5C137.1,595.7,147.6,592.3,151.3,590z M154.9,661.9c3.4-4.3,5.6-5.4,12.2-9c2.7-1.4,4.7,2.3,1.8,4
			c-14.8,8.5-5.2,1.3,14.2,7c1.4,0.4,6.4,2,6.9,2.3c2.4,1.2,1.1,4.5-1.3,4c-3.9-0.8-11.4-4.5-25.2-4c-11.4,0.4-24.3,2.3-25.9,2.8
			c2.1,1.5,3.3,1.8,10.6,4.9c3,1.3,1.7,5.8-2.4,4c-8.3-3.6-9-3.8-14-8c-36.6,7.7-32.4,6.3-40,6.9c-1.5,0.1-1.1-0.1,5.7,2.4
			c28.1,10.1,47,20.5,137.9-5c1.5-0.4,3.7-1.2,2.9-2.6c-4.6-8.4-29.1-21.8-50.2-25.4c-35.1-5.9-46,6.9-86.2,24.4
			C96.8,672.9,123.8,665.4,154.9,661.9z M102.2,723.8c0.6,3.6-4,4.4-4.7,0.8c-2.3-11.7,1.4-15.9-0.1-18.9
			c-11.2-21.3-12.6-25.1-13.2-21.1c-1.4,8.5-0.1,36.2,19.1,56.6c12.3,13.1,32.4,27.2,39.2,31c3-5,2.1-29.2-15.6-55.1
			c-18-26.3-31-30.9-35.1-32.9c-1.9-1,1.4,0.9,17.8,35.7c0.3,0.7,0.8,1.1,1.6,1.2c6.4,0.9,6.2,1.3,9.5,0.9c3-0.3,3.5,3.3,1.2,4.1
			c-2.2,0.8-5.2,0.4-8.9-0.1c1.6,2.8,10,14.7,10.6,15.9c1.2,2.5-1.5,4.5-3.6,2.6C106.5,731.9,98,698.6,102.2,723.8z M50.2,629.6
			c-17.9-9.9-9.6-14.9-6.9-11.4c6.6,8.4,4.1,4.1,2.2-3.1c-5.1-19.2,2.6-16.8,2.7-13.6c0.7,12.6,3.6,19.1,10,34.8
			c1.1,2.8,2.2-5.7,2.5-8.7c0.3-3,4.2-2.6,4.2-0.1c0.3,20.8-12.6,3.2,12.3,44.1c0-41.7-13-60.7-34.7-106.7
			c-1.7-0.1-6.8,12.1-7.5,13.7c-13,34.3,11.8,65.4,35.3,91.7C73.5,673.9,60.8,656,50.2,629.6z M25.8,677.1
			c-0.1,9.4,21.4,22.1,42.8,9.5c-5.9,0.7-12.5,2-15.1,0.4c-1.8-1.1-0.9-4.3,1.3-4.1c3.9,0.2,19.5-1,19.6-1.8
			C55.1,673.8,47.6,673.9,25.8,677.1z"/>
		<path class="st2" d="M178.2,534.4c-33.9-4.8-71.9,22.9-67,28.2c3.9,4.2,7.4-9.4,29.9-17.6c11.6-4.2,24.4-7.9,36.7-6.2
			C180.9,539.1,182,535.2,178.2,534.4z"/>
		<path class="st2" d="M16.3,580.3c-1.3,8.9-1.7,37.7,5,35.1c3.9-1.6-4.8-17.1,0.3-36.5c2.4-8.9,7.1-19.9,13.1-25.3
			c2.2-2-0.2-4.8-2.3-3.5C25.1,554.5,18.5,571.3,16.3,580.3z"/>
		<path class="st2" d="M5.9,599.8c0.4,22.5,21.5,50.9,26.1,46.8c5.1-4.5-16.7-9.6-21.9-47.1C9.8,597.1,6.5,596.5,5.9,599.8z"/>
		<path class="st2" d="M41.7,743.5c1.3,2.5,4.2,1.6,4.4-0.5c0.4-5.5,2.8-17,6-23.6c1.7-3.5-2.5-4.9-3.6-2.4
			C46.1,722.2,39.9,739.9,41.7,743.5z"/>
		<path class="st2" d="M90.9,587.7c-0.7,2.8,1.9,3.8,3.3,2.8c1.5-1.2,1.8-2.8,6.8-12.1c0.8-1.4,2.7-4,2.9-4.2
			C105.1,572.1,102.2,562.8,90.9,587.7z"/>
		<path class="st2" d="M43.7,757.4c0.5-2.8-3.3-3.5-4-1.3c-0.6,1.6-1.7,8.4-0.7,10.5c0.9,1.9,3.9,1.6,4.1-1
			C43.6,755.2,43.4,759.5,43.7,757.4z"/>
		<path class="st2" d="M87.8,601.6c2.8,0.5,3.6-3.5,0.8-4.1C85.9,597,85,601.1,87.8,601.6z"/>
		<path class="st2" d="M39.7,781.7c2.7,0.6,3.5-3.5,0.8-4.1C37.8,777.1,36.9,781.1,39.7,781.7z"/>
		<path class="st2" d="M226.2,689.1c-2.1,0.5-9.4,3.9-45.1,11.4c-2.6,0.5-3.2,2.1-2.7,3.4c0.8,2,1.2,3.1,38-7
			c3.3-0.9,6.5-2.2,9.7-3.4C228.5,692.6,228.4,689.8,226.2,689.1z"/>
		<path class="st2" d="M149.3,706.5c8.9,0.2,13.2,0.5,17.5,0.2c3.2-0.2,2.8-4.4-0.2-4.2c-4.4,0.3-4.8-0.5-17.1-0.6
			C146.5,701.8,146,705.8,149.3,706.5z"/>
		<path class="st2" d="M159.7,587.9c3,0.6,3.4-3.6,0.7-4.2C157.8,583.1,156.8,587.2,159.7,587.9z"/>
		<path class="st2" d="M128.4,749.2c-2.8-0.5-3.5,3.8-0.7,4.3C130.6,754,131.2,749.7,128.4,749.2z"/>
		<path class="st2" d="M48.1,593.2c0.5-2.7-3.6-3.5-4.1-0.7C43.5,595.2,47.6,595.9,48.1,593.2z"/>
		<path class="st2" d="M45,681.9c-3-0.6-3.9,3.9-1,4.6C47,687.1,48,682.5,45,681.9z"/>
	</g>
</g>
</svg>
