<?xml version="1.0" encoding="utf-8"?>
<!-- Generator: Adobe Illustrator 22.0.0, SVG Export Plug-In . SVG Version: 6.00 Build 0)  -->
<svg version="1.1" id="Layer_2" xmlns="http://www.w3.org/2000/svg" xmlns:xlink="http://www.w3.org/1999/xlink" x="0px" y="0px"
	 viewBox="0 0 737 737" style="enable-background:new 0 0 737 737;" xml:space="preserve">
<style type="text/css">
	.st0{clip-path:url(#SVGID_2_);fill:#F5734F;}
	.st1{clip-path:url(#SVGID_2_);}
	.st2{fill:#FFFFFF;}
</style>
<g>
	<defs>
		<rect id="SVGID_1_" x="0" y="0" width="737" height="737"/>
	</defs>
	<clipPath id="SVGID_2_">
		<use xlink:href="#SVGID_1_"  style="overflow:visible;"/>
	</clipPath>
	<rect x="0" class="st0" width="737" height="737"/>
	<g class="st1">
		<path class="st2" d="M43.3,226.4c-3.9-3-12.4-6.3-25.2-21.8C-12.6,167.9-27.7,87.9,5.5,46.6c2.6-3.2,4.9-4.3,13-10.2
			C16.6,29.4,12,8,6.4,4.8c-20.1-11.6-38.8-20-74.3-29.1c4.2,7,7.1,14.1,9.3,21.5c40.7,15.1,17.8,89.7,13.2,134.3
			c-0.4,3.9-2.6,5.1-5.9,3.1c-22.2-13.4-41.7-32.1-46.6-57.6c-6.7-34.9,15.4-52.7,35.3-77.1C-65-9-68.1-18-74.3-25.7
			c-14.7-3.5-11-2.4-41.1-10.5c-3.3-0.9-2.5-3.9-0.6-4.1c0.3,0,61.7,12.6,96.6,26.8c3.2,1.3-0.6-3.5,39.4-8.8
			C32.7-50.6,87.4-51.2,117.9-46c36.7,6.3,58.5,14.5,81.4,16.1c7.8,0.5,17.8,0.1,20,0.5c2.5,0.5,3.6,3.1,0.1,6.7
			c-38.5,39.2-83.7,64.2-137.3,50.1C62.4,22.3,28.4,2.5,22.1-17.8c-11.7,1.5-23.5,2.4-35,6.9C1.8-2.5,31.3,9,81.8,58.3
			c22.1,21.6,1.5,5.2,30,17.1c55.2,23.1,75.4,54.9,99.7,109c23,51.2,34.3,54.6,18.6,56.9c-25.2,3.7-47.1,3.5-68.6-10.4
			c-38.8-25.1-50.2-64.2-62.4-119.8c-1.7-7.6-4.8-24.8-5.5-34C70.3,52.1,44.6,29.5,15.6,10.6c3.9,9.9,6.1,20.1,8.7,30.2
			c19.1,9,32.2,42.2,36.2,66c5,30,3.7,64,10,103.8c1.7,10.9,5.2,27.2,5.2,28.4c0.1,2.3-1.8,3.7-3.9,2.9
			C71.8,241.9,49.3,229.8,43.3,226.4z M128.3,120c-0.4,0.1-0.5,0-0.6,0.7c-4.4,17-3.4,25.6-3.7,26.8c-0.5,2.7-4.1,2.7-4.5,0
			c-0.8-5.8,2.6-27.3,5.7-31.5c-8.3-11.3-16.9-22.3-26.5-33c0.2,11.1,16.1,83.5,32.4,110c24.9,40.3,59.2,51.4,101,43
			c-3.2-6.4-13.2-25.3-21.2-41.4c-16.8-33.9-35.9-95.5-112.3-119.2c-0.1,0.4-1.5-1.4,18.4,22.1c5.1-0.8,20,1.1,17.5,5.6
			c-1.5,2.8-5.1-1-14.5-1.6c3,3.9,5.7,7.5,8.3,11c6-0.4,7.6-0.7,10.5-0.2c2.6,0.5,2.2,4-0.5,4.1c-3.3,0,2.4-0.4-7,0.2
			c12.2,16.7,1.9,4.9,24.7,9.9c6.6,1.4,18.6,6.8,20.6,8c2.1,1.3,0.6,4.3-1.6,3.7c-4.6-1.3-18.4-10.2-33.7-7.9
			c2.5,3.6,4.9,7.2,7.3,10.7c2.6-0.1,18.8,0.8,17.1,5.4c-1.1,3-4.1-0.2-14.2-0.9c2.1,3.3,4,6.3,5.7,8.9c12.2,1,37.2,12.5,34.3,16.9
			c-3,4.6-3.7-5.2-30.9-12.1c-0.2,0.6-1-0.9,7.3,12.5c1.7-0.3,4.3-2,12.7,4c2.1,1.5,0.1,4.6-2.2,3.4c-10.3-5.3-11.4-8.4,3.2,14.1
			c0.8,1.2,3.1,2.1,1.8,4.3c-1.1,1.8-3.4,2-5.4-1.2c-19.6-30.7-17.5-30.6-16.1-17.1c0.1,1.1,1.1,3.5-1.2,4.1
			c-4.6,1-3.9-15.1-3.3-19.9c-2.9-4.6-6-9.5-9.1-14.3c-1.5,2.2-3.5,33.7,2.7,48.4c0.2,0.5,0.6,1.2,0.4,1.6c-0.8,2.4-1.7,2.4-3.5,1.4
			c-0.4-0.2-0.6-0.8-0.8-1.3c-5.9-12.9-5.5-35-4.5-48.1C143.6,138.8,148.3,148.2,128.3,120z M42.6,183.4c0.6,2,6.2,12.5,10.9,18.3
			c1,1.3,1.5,2.7,0.2,3.8c-5.4,4.8-19.6-28.8-21.8-34.7c-3.4,9.6-4,14.2-7.3,12.7c-3.1-1.4,0.3-4.8,1.2-8.5
			c4.6-18.4,2.6-9.7-1.3-40.3c-1.6,2-1.1,0.9-5.1,8.1c-1.5,2.6-4.8,1.5-3.9-1.6c0.4-1.3-0.6,0.5,8.7-13.9
			c-0.3-11.8-0.1-10.6-0.6-10.8c-3.2,3.7-10,12.1-13.3,16.8C1.8,145.5,4,151,0.4,150.1c-1.9-0.5-1.9-2.7-1.1-4.5
			c4.7-11.1,4.9-12.1,14.5-24.4c3.1-3.9,6-8.1,10.1-11.1c0-3.5,0-6.9-0.1-10.8c-5.1,4.9-2.1,2-8.9,9.1c-2.2,2.3-4.9-0.4-3.2-2.7
			c1.2-1.6,1.2-1.6,12.1-12.8c-0.2-17,1.1-10.5-6.7-4.8c-1.7,1.2-4-0.9-2.7-2.9c0.3-0.5,0-0.1,9.6-9.9c0.1-3.7,1.2-7.8-0.2-12.2
			C17.5,68.8,0.4,86.5-2.5,94.5c-1.6,4.5-13.2,3.3,12.5-24c4.1-4.4,7.9-9.1,13.3-12.2c-0.9-5.6-2-11.2-3.7-16.8
			c-6,4.1-8.9,6-11.1,8.8c-26.4,34.9-18.8,96.2,0.5,132c13.3,24.7,26,34.6,45.4,45c0.9,0.5,14.8,7.9,15.8,7.9
			c-17.4-89.9-2.5-129.2-32.3-175.3c-3-4.6-7.1-9.8-11.8-13c4,20.5,2.7,16.9,6.7,21.1c1.7,1.8,3.7,3.1,2,4.9c-1.5,1.5-2.9-0.1-4-1
			c-2.4-2-1.7-2.8-2.3,5.2c3.6,3.8,6,7,11.8,10.5c6.9,4.3,9.8,4.9,8.6,7.3c-1.2,2.5-3.8,1-14.5-6.1c-7.2-4.7-6.1-8.2-5.9,0.5
			c3.3,3.8,9.1,12.1,22.2,17.7c4.5,1.9,2.2,12.2-22.1-10.2c-0.1,2.4-0.4,4.5,1.4,6.4c7.6,8.3,11,8.1,9.5,10.7
			c-1.2,2-3.5,0.6-5.3-0.9c-7-5.7-5.6-6.1-5.6-0.9c5.7,7.8,11.8,10,12.6,10.9c1.8,1.8,0.2,4.1-1.9,3.5c-1.3-0.4-0.8,0-8.6-5.7
			c-2.5-1.8-1.9-3.3-1.8,3.7c5.4,3.1,8.5,10.8,24.9,15.2c3.9,1,3.6,12.9-24.7-8.9c0.3,3.2,0.5,6.3,0.7,9.3c3.4,2.3,2.7,3.8,10.4,8.1
			c2.7,1.5,0.8,5.1-1.9,3.6c-9.2-5.1-8.2-8.1-5.8,4.1c2.2,2,2,4.1,7.9,7.4c2.3,1.3,0.6,4.9-2.1,3.5c-3.2-1.5-2.5-1.8-3-1.3
			c3.8,11.6,4.1,11.4,19.6,18.7c3.2,1.5,1.4,4.9-1.3,4C49.2,186.9,46.4,185.3,42.6,183.4z M94.1-11.8c2.1,6.8,7.3,15.6,11.1,21.6
			c2.9,4.5,7,7.8,8,8.8c2.4,2.5-0.8,5-2.7,3.1c-7.2-7.1-6.2-4.6-17.5-24.2c-6.8-11.9,0.4-9.4-8.8-10.6c2.4,8.6,1.5,4.7,3.4,9.5
			c0.9,2.4-2.1,4.1-3.7,1.8c-0.3-0.4-3.7-6.6-4-12c-11-1.7-10.2-2.1-9.4,0.3c2.1,6.8,5.3,19.4,13.9,29.7c2,2.4-1.2,4.8-2.9,2.9
			c-7.7-8.1-12.9-21.6-15.8-32.4c-1-3.6,0.8-2.7-7.1-3.7c1,10.7,5.8,15,2.2,16.4c-3.6,1.4-6.5-13-6.6-16.9c-9.3-0.8-8.5-1.2-8.2,1.1
			c1.8,14.5,7,16.1,3.5,17.9c-4.7,2.4-7.6-15.5-8.3-20c-4.8,0-9.5,0.1-14.3,0.1c7.7,22.3,58.2,55.1,113.1,41.1
			c30.7-7.8,63.9-32.9,74.5-47.6c-2.1-0.4-14.1,1.3-39.3-4.2C141.8-36.2,89.8-52,49.7-39.3C39-35.9,30.8-31.9,24.7-23
			c1,1.2,5.9-1.3,29.6,1.1c6.4-16.7,11.2-10.4,9-7.6c-0.8,1-3.5,3.9-4.4,8.1c9.6,1.2,6.5,2.1,10.4-3.5c1.7-2.4,5-0.5,3.5,2.3
			c-0.5,0.9-1,1.8-1.6,2.9c3.4,0.5,6.6,1,9.8,1.5c2.8-5.3,7-9.2,16.9-18.3c2.1-1.9,3.9-3.9,5.6-2.2c2.6,2.8-3.6,4.3-17.6,20.8
			c0.3,0.6-0.9,0.3,9.5,1.5c1.1-3.7,5.4-10.1,7.9-7.3c1.6,1.8-0.7,3.3-0.9,3.7c-3.8,5.2-2.8,3.3,0.9,4.6c2,0.7,1.9,3.7-0.5,4.1
			C101.7-11.1,100.9-11.2,94.1-11.8z M-54.5,35.3c20.6,18.3,10.8,22.2,8.8,17.5c-1.8-4.3-5.3-8.7-8.8-11.5c-0.1,2.4-0.1,1.6,0.2,3.9
			c0.5,3.2-4.2,4.4-4.8,1c-0.2-0.9-0.1-1.7-0.2-7.6c-19.2,8.3-23.2,15.1-26.1,18.4c-2.1,2.4-5.4,0.2-3.7-2.7
			c5.3-8.9,23.1-17.9,29.8-20c0-7,1.6-5.7-8.2-1c-2.6,1.2-4.6-2-2.1-3.7c1-0.7,2.1-1.2,10.2-5c0-6.1-0.6-12.3-2.2-18.5
			c-20.1,22.7-52.4,54.6-19.2,97.4c10.4,13.4,26.6,24.8,30.8,26.5c5.3-45.6,18.4-87.2,4.2-116.1C-48,8.7-52.1,3.3-57.2,2.4
			c1.9,7.7,2.6,15.3,2.7,22.4c2.2,1.8,4.1,3.2,5.9,4.8c2.3,2.1-0.1,5.3-2.9,3C-55.2,29.5-54.4,28.8-54.5,35.3z"/>
		<path class="st2" d="M196.5,210c4.6,7.2,11.9,10.2,13.2,11.3c2.1,1.7,0.2,4.6-2.1,3.5C185.3,213.5,194,206,196.5,210z"/>
		<path class="st2" d="M165.8,212.5c-0.3-0.4-2.1-2.2-3-7c-1.7-9.5-2.2-12.6,0.5-12.8c3.1-0.2,2.2,4.1,3.2,9.1
			C168.5,211.6,170.7,211.1,165.8,212.5z"/>
		<path class="st2" d="M182.8,148.1c2.1,1.2,2.2,2.5,1.6,3.4c-1.3,1.9-2.4,0.5-11-1.8c-2.2-0.6-4.5,0.8-5.2-1.8
			C166.8,142.6,178.1,146.1,182.8,148.1z"/>
		<path class="st2" d="M130.8,162.8c1.4-2.2,3.9-1.1,4,0.8c0.1,1.4-1.4,3.4-0.4,12.2c0.3,2.8-2.4,3.6-3.6,1.8
			C129.4,175.4,129.7,165.9,130.8,162.8z"/>
		<path class="st2" d="M157.5,118.6c-0.8,1.4-1,1.7-12.5-0.7c-2-0.4-3-2.8-0.9-3.7c1.7-0.8,1.9-0.8,11.1,1.2
			C156.7,115.6,158.3,116.8,157.5,118.6z"/>
		<path class="st2" d="M133.7,154.9c-0.7-1.5-1.3,0.5,0.5-11.7c0.3-2.3,3.9-2.4,4.1,0.5c0,0.1-1.2,9.3-1.2,9.4
			C136.9,155,135.5,155.9,133.7,154.9z"/>
		<path class="st2" d="M109.4,107.1c0.6-0.2,3.8-1.7,3.9,1.2c0.2,9.7,0.4,10.8-1.8,11.1c-1.1,0.1-2-0.4-2.2-1.5
			c-0.4-2.5-1-7.8,0.2-10.4C109.5,107.3,109.5,107.2,109.4,107.1z"/>
		<path class="st2" d="M190.5,180.9c3.2,2.4,7.3,4.6,5.1,6.9c-1.5,1.5-3-0.1-8.5-3.8c-1-0.7-3.2-1.4-2.2-3.7
			C186.3,177.4,190.1,181.4,190.5,180.9z"/>
		<path class="st2" d="M214.8,229.2c-2.5-1.5-0.4-5.4,2.2-3.9C219.7,226.8,217.4,230.7,214.8,229.2z"/>
		<path class="st2" d="M185.3,202.4c1.4-2.5,5.1,0.2,3.8,2.5C187.8,207.4,183.9,204.9,185.3,202.4z"/>
		<path class="st2" d="M199.4,193.8c-2.3-1.5,0-4.8,2.1-3.4C203.7,191.7,201.7,195.2,199.4,193.8z"/>
		<path class="st2" d="M170.4,219.7c-1.3,2.2-4.7,0.2-3.4-2C168.4,215.5,171.8,217.5,170.4,219.7z"/>
		<path class="st2" d="M135.2,184.3c-1.3,2.4-4.7,0.4-3.3-1.9C133.1,180.3,136.4,182,135.2,184.3z"/>
		<path class="st2" d="M10.8,171.6c-1.8-4.7-0.2-14.7,0.9-19.7c0.3-1.5,1.4-2.8,3-2.4c3,0.8,0.8,4.1,0.3,9.3
			C14.1,167.2,15.3,174.3,10.8,171.6z"/>
		<path class="st2" d="M32.3,191c4.9-1.9,3.6-0.1,4.9,11.6c0.4,3.5-3.6,3.7-4,0.9C32.9,202,31.8,193.2,32.3,191z"/>
		<path class="st2" d="M-2.3,121c4-5,6.2-8.8,8.5-6.6c1.8,1.8-0.4,3.2-5.1,9.7c-1.9,2.6-4.7,0.9-3.8-1.8
			C-2.5,121.5-2.1,121.1-2.3,121z"/>
		<path class="st2" d="M3.9,97.5c4.5-5.1,6.3-8.2,8.4-6.1c1.8,1.9-0.6,3.8-5.3,8.9C5.1,102.5,1.8,100.7,3.9,97.5z"/>
		<path class="st2" d="M46.4,155.9c-3.8-2.2-1.6-5.5,1.4-4.2c5.6,2.5,8.7,3.2,8,5.6C54.9,160.3,51.5,158,46.4,155.9z"/>
		<path class="st2" d="M55.3,174c-1.1,2.6-4.6,0.4-9.7-2.5c-2.9-1.6-0.9-5.6,2.4-3.6C52.9,170.8,56.5,171.3,55.3,174z"/>
		<path class="st2" d="M45.1,127.3c0.7-1.9,2.5-1.3,4-0.6c4.9,2.2,7.2,2.7,6.4,4.8c-1,2.9-4.5,0.7-8.3-0.7
			C47.4,130.3,44.1,129.8,45.1,127.3z"/>
		<path class="st2" d="M-5.1,111.5c-3.5-2.1,0.1-4.5,3.7-6.9c1.7-1.1,3.2,2,2,3.3c-1.2,1.2-2.6,2.3-4,3.2
			C-4,111.6-4.8,111.5-5.1,111.5z"/>
		<path class="st2" d="M42.3,77.8c-1.1,1.9-3.1,0.7-5.1-0.6c-2-1.4-0.5-4.5,2.1-3.5C40.9,74.2,43.5,75.8,42.3,77.8z"/>
		<path class="st2" d="M45.8,208c-1.6,2.5-5.4,0.2-3.9-2.3C43.3,202.9,47.4,205.4,45.8,208z"/>
		<path class="st2" d="M50,121.5c-2.7-1.6-0.4-5.2,2-3.6C54.5,119.4,52.5,123,50,121.5z"/>
		<path class="st2" d="M42.5,117.6c-2.5-1.5-0.5-5,2-3.6C47.1,115.4,45.1,119.1,42.5,117.6z"/>
		<path class="st2" d="M54.8,211.3c1.4-2.3,4.8-0.2,3.5,2.1C56.9,215.7,53.4,213.6,54.8,211.3z"/>
		<path class="st2" d="M44.1,213.3c1.3-2.3,4.8-0.4,3.6,1.9C46.4,217.5,42.8,215.7,44.1,213.3z"/>
		<path class="st2" d="M22.2,189.3c2.2,1.3,0.2,4.4-1.9,3.2C18.2,191.2,20,188,22.2,189.3z"/>
		<path class="st2" d="M123.2-8.4c-1.2-0.1-2.5-0.2-4.2-0.3c7.6,13.7,8.7,14.1,6.5,15.4c-1,0.6-2.2,0.3-3.1-1c-3.1-4.6-6-9.3-8-14.5
			c-0.5-1.2-3.6,0.1-4.2-2.6c-0.3-1.3,0.6-2,1.5-2.6c1.8-7.2,9.2-17.4,12-14c1.6,1.9-0.6,3.1-4.1,7.1c-1.5,1.7-1.7,2.7-3.6,7.4
			c15.4,1.5,3.9,2.2,14.5-6.9c2.2-1.9,5.1,0.7,2.6,3.2c-4.5,4.5-3.9,4-3.6,4.5c2.1-0.1,4.6-0.5,4.8,1.8c0.2,2.5-3.1,2.3-5.7,2.5
			c2.8,4.6,10.7,13.9,15.6,18.4c3,2.8,5.9,3.4,4.8,5.7C145.7,22.2,127.1-1.9,123.2-8.4z"/>
		<path class="st2" d="M167.9-25c2.5-2,5.2,0.9,2.6,3.2c-4.1,3.6-6.7,5.3-8,9.3c8.6-1.2,3.6-0.5,11.5-1.8c3.4-0.6,4.1,3.4,0.8,4.1
			c-3.1,0.7-5,0.9-9.3,1.8c9.2,7,15.1,6.2,14.2,9.5C178.2,6,163-3.5,159.5-7.7c-10.4-0.2-10.9-0.1-11.9-0.3
			c-2.9-0.5-2.6-4.4,0.4-4.5C168.1-12.6,148-8.8,167.9-25z"/>
		<path class="st2" d="M84-40.8c1.9-1.6,4.2,0.3,3.3,2.2c-1.3,2.7-5.9,3.8-9.7,10.6c-0.6,1.1-1.7,1.9-3,1.4
			C69.7-28.9,79.9-37.3,84-40.8z"/>
		<path class="st2" d="M95.2,21.8c-1.5-1.8-0.2,0.6-7-12.5c-1.7-3.3,2-5.8,4-1.8C98.3,19.7,100.1,20.8,95.2,21.8z"/>
		<path class="st2" d="M127.9,12.5c-0.6-1-0.8-3.2,1-3.8c2.3-0.8,2.7,1.6,3.7,3.3c4.6,8.2,7.8,8,5.9,10.3
			C135.6,25.8,131.1,17.3,127.9,12.5z"/>
		<path class="st2" d="M135.7-21.7c-3.4-2,3.5-7.2,6.9-9c2-1.1,4.1,1.7,2,3.5c-1,0.8-2.1,1.5-3,2.3C138.7-22.5,138-20.5,135.7-21.7z
			"/>
		<path class="st2" d="M65.4-35.1c-2.5-1.5,0-3.9,2.3-5.4c1.8-1.2,4.2,1.5,2.2,3.4C68.3-35.6,67.1-34.1,65.4-35.1z"/>
		<path class="st2" d="M52.2-32c-2.7-1.4-0.5-5.5,2.2-4C57-34.5,54.7-30.6,52.2-32z"/>
		<path class="st2" d="M162,5.5c-1.5,2.6-5.3,0.5-4-2.1C159.5,0.6,163.5,2.7,162,5.5z"/>
		<path class="st2" d="M110.2-31.6c-1.5,2.6-5.3,0.4-3.9-2.2C107.7-36.5,111.8-34.3,110.2-31.6z"/>
		<path class="st2" d="M103.5-25.4c-2.6-1.4-0.5-4.9,1.8-3.7C107.6-27.9,106.1-24,103.5-25.4z"/>
		<path class="st2" d="M64.9,11.5c1.5-2.5,4.8,0.1,3.4,2.3C67,16,63.4,14,64.9,11.5z"/>
		<path class="st2" d="M183.5-14.9c1.4-2.2,4.7-0.2,3.3,2C185.5-10.7,182.2-12.7,183.5-14.9z"/>
		<path class="st2" d="M128.5-30c-1.9-1.2-0.4-4.3,1.9-3.2C132.5-32.1,130.7-28.6,128.5-30z"/>
		<path class="st2" d="M61.8,5.4c-2-1.2-0.4-4.2,1.8-3.2C65.7,3.2,64.1,6.8,61.8,5.4z"/>
		<path class="st2" d="M-60.9,67.9c0.5-2.2,0.9-4.6,1.5-7.3c-9,2.7-11.3,10.1-14,6.8c-2.6-3.2,9.2-10.1,14.3-11.6
			c0.6-1.4,1.1-2.7,2.8-2.4c2.5,0.4,1.9,3.1,1.7,6.1c1.5,1.7,3.8,3.7,2.3,5.4c-1,1.2-2.1,0.9-3.5,0c-0.5,2-0.9,3.9-1.3,5.8
			c3.3,2.5,5.8,5.6,7.4,9.4c1.5,3.6-2.1,5.3-3.8,1.8c-1-2.2-2.2-4.3-4.5-6.1c-0.4,6,0,8.4-2.5,8.3c-4-0.1-0.9-8.6-2.2-9.4
			c-12.8,12-11.4,10.2-17.2,17.8c-2.9,3.8-6,1.3-3.5-2.5C-78.2,82.5-67.4,72.5-60.9,67.9z"/>
		<path class="st2" d="M-61.9,101.9c-2.2,3.8-2.6,4.8-3.3,5c-2.2,0.8-3.9-0.7-3-2.3c4.8-9,4-7.2,5.9-8.7c0.1-2.4-0.2-5.6,2.5-5.5
			c3.1,0.1,1.6,4.4,3,14.7c0.8,5.8,3.8,9.4,0.9,10.6c-2.7,1.1-3-1.8-5.6-11.7C-61.7,103.4-61.8,102.8-61.9,101.9z"/>
		<path class="st2" d="M-73.5,94.4c7-7.5,8.1-9.6,10.2-7.8c2.2,2-1,3.9-2.6,5.8c-0.9,1-4.9,6-4.9,6c-2.6,0.9-3.7-0.3-3.3-1.8
			C-73.8,95.4-73.2,94.8-73.5,94.4z"/>
		<path class="st2" d="M-89.2,77.9c7.4-7.8,6.9-7.4,8.1-7.9c2.1-0.9,4.1,1.4,2.4,3.3c-0.9,1,1.9-2.3-6.2,6.4c-0.4,0.4-1.9,3-3.8,1.5
			C-90.4,79.9-88.6,78.4-89.2,77.9z"/>
		<path class="st2" d="M-51,69.5c-1.9-3.2,1.4-4.9,3.3-2.6c1.9,2.2,5.6,8.4,3.1,9.7C-47.3,78-47.2,76-51,69.5z"/>
		<path class="st2" d="M-77.5,38.1c-2.7-1.5-0.5-5.5,2.2-3.9C-72.7,35.6-74.9,39.5-77.5,38.1z"/>
		<path class="st2" d="M-68.7,112.1c-2.7-1.5-0.2-5.5,2.3-3.9C-63.9,109.7-66.1,113.6-68.7,112.1z"/>
		<path class="st2" d="M-77,104.2c-2.7-1.5-0.4-5.5,2.2-4C-72.2,101.7-74.3,105.6-77,104.2z"/>
		<path class="st2" d="M-46.2,38.3c-2.6-1.5-0.3-5.5,2.3-3.9C-41.3,36-43.7,39.8-46.2,38.3z"/>
		<path class="st2" d="M-50.5,86c1.5-2.7,5.2-0.6,3.7,1.8C-48.2,90.4-51.9,88.6-50.5,86z"/>
		<path class="st2" d="M-55.3,101.3c1.4-2.5,5-0.7,3.7,1.8C-52.9,105.7-56.7,103.7-55.3,101.3z"/>
	</g>
	<g class="st1">
		<path class="st2" d="M741.2,397.2c6.6-10.3,3-41.6,0.5-49c-22.6,21.4-16.4,14.5-19,21c-5.5,13.5-10.2,18.9-17.2,25.5
			c-0.5,1.7-2.2,12.7-10.5,8.6c-13.2-6.5-1.2-22.5,8.6-12.6c6.5-6,10.8-13.3,14.2-21.8c-12.4,7.6-25.7,12.7-38.2,19.5
			c-0.1,4.7-3.5,9-7.9,7.8c-17.6-5-1.5-27.3,7.1-12.9c0.1,0,33.3-13.9,47.3-26.7c-6-1.6-4.4-1-5.5-1.4c-3-0.8-1.8-4.6,0.7-4.1
			c1.6,0.3,6.9,1.6,8.4,2.2c8.5-7.9,15.3-17.2,22.2-26.5c-35.7,9.5-38.8,4.6-61.3,21.4c1,9.8-7.3,14.4-11.7,10.3
			c-0.7-0.7-1.5-1.3-2.2-1.9c-6-5.3,0-19.6,11.5-11.9c24.4-18.1,30.6-14.1,48.8-19.1c-3.9-3.9-8.3-6.9-12.2-9.9
			c-2.5,0.3-4.8,0.6-7,0.7c-10.4,0.7-6.8-17.1,3.3-15.5c5.5,0.9,8.4,5.8,6.9,11.5c4.6,4,10.2,6.9,14.2,12.2
			c4.9-1.5,10.1-3.1,15.4-4.7c6.2-8.2,11.8-17,19.9-24.3c-7.6-1.5-10.6-0.1-18,0.7c-3.3,0.4-3.8-3.6-0.5-4.1c11.7-2,14.3-2.3,22.7,0
			c2.4-1.2,4.7-2.5,7.2-3.8c-24.5-8.9-49-7.8-73.6-1.1c-8.5,14.7-21.2,24.7-35.6,32.5c-6.3,19.4-16.5,35.7-34.4,45.9
			c0.2,5.8-3.1,10.6-8.1,11.6c-3.5,0.7-8.9-2.1-10-5.4c-3.4-10.2,7.1-17.6,15.7-10.2c11.5-5.1,26.7-23.9,31.1-38.9
			c-17,8.3-35.3,11.6-53.4,15.5c-0.5,2-1.4,10.3-9.8,8.1c-9.1-2.4-10.5-16.1-0.4-16.5c3.5-0.1,6.4,1.3,8.7,3.9
			c16.4-3.5,33-6.5,48.7-13.6c-11.4-4.1-19.8-2.1-19.8-5.7c0-5.3,20.3,0.8,25.4,3.2c12.1-4.8,32.3-21,35.6-28.7
			c-23.9,6.4-43,11.6-67.8,11.8c-8.4,0.1-24.6,17.8-53.7,14.1c-4.5,4-12,7.3-17.3,8.3c-3.7,0.7-4.7-3.2-0.9-4.3
			c9.5-2.9,7.5-2.4,12.5-4.9c-7.9-3.3-15.8-6.5-23.8-9.9c-1.6,2.3-4.2,3.5-7.4,3.3c-13.9-0.9-16.4-24.3,1.8-21.2
			c5.7,1,8.9,5.1,7.7,13.3c11.9,5.7,23.8,11.6,37.8,11.1c-2.3-2.8-10.7-8.6-11.5-9.4c-1.5-1.6-0.1-4.2,2.3-3.5
			c0.2,0.1,9.5,5.6,14.1,12.7c9.9-1.3,18.7-6.1,27.7-10.2c-42.6-7.4-53-23.5-76.1-38.4c-4.2,1.6-8,0.9-11.6-1.5
			c-0.9-0.6-2-0.9-2.9-1.6c-4.8-3.5-5.9-7.8-1.8-13.5c7.9-11.1,24.3-0.3,20.4,11.3c-0.7,2.2-2.6,0.2,10.9,10.3
			c40.1,30,62.1,32.9,103.2,26.1c-8.5-8-18.4-13.1-28.4-18.2c-3.8,2-8.1,1.8-12.3,2.2c-3.4,0.3-3.9-3.7-0.4-4.1
			c2.2-0.3,4.4-0.5,6.7-0.7c-3.8-3.6-30.2-11.5-37.5-11.2c-1.1,0.9-2.1,4.4-7.9,4.2c-14.9-0.6-16.7-16.2-6.4-18.6
			c9.5-2.2,15.6,4.3,15.4,9.3c25.1,5.3,18.7,5.5,11.9-3.6c-1.7-2.2,1.2-4.6,2.9-3c3.7,3.3,6.7,7.1,8.3,12
			c19.2,7.4,37.6,16.4,53.1,30.8c29.8-7.2,25.5-6.8,35.7-9.2c27.9-6.7,27.4-4.3,30.5-5.5c-10.3-4.7-20.5-8.6-30.7-12.4
			c-4.9,5.3-10.9,7.6-17.9,7.6c-2.8,0-3.1-3.7-0.2-4.1c7.9-1.3,4.4,0.2,13.4-4.4c-0.4-1.7-47.4-14.3-52.5-8.9
			c-3.3,3.5-10.1,4-13.2,0.8c-1-1-3,0.1-3.7-5.2c-2.6-19.4,22-12.2,19.7-1.7c20.5,0.8,39.9,5.9,59.1,12.4
			c-4.5-5.7-9.5-10.9-15.6-15.1c-23.3-15.7-18.5-6.7-27.2-7.7c-6-0.7-8-4.5-9.8-9.8c-0.7-2.2,2.7-8.6,7.8-8.9
			c9.3-0.5,12.9,5.5,12.4,10.1c-0.4,3.4-0.9,0.5,10.7,7c11.9,6.5,11.1,9.4,9.1,0c-0.4-1.7-2-4.4,0.5-5.3c4.4-1.7,4.6,10.6,4.7,15.2
			c4.8,5.1,10.9,9.8,13.8,17.3c9.8,4.1,19.8,8,29.5,13.5c20.3-0.2,39,6.4,57.5,15c-2.4-4.6-12.2-17.2-20.1-24
			c-4.6-3.9-36-14.8-39-15.1c-7.7,9.1-17.1,2.2-15.5-5.7c1.8-8.7,13.4-8.4,16.4,0.7c8,2.8,16,5.6,23.8,8.3
			c-3.5-4.7-42-28.2-48.1-29.3c-4.2,3.3-12.5,2.4-14.3-3.7c-0.4-1.5-1.2-3-1.2-4.4c0.2-8.7,15.5-11.9,18.6-1
			c0.4,1.5,0.1,3.2,0.1,4.9c66.8,34.5,73.5,58.9,68.4,43.6c-8-23.4-10.9-35.7-28.3-53.2c-2-2-1.6-1.1-3-1
			c-9.9,0.7-16.9-7.4-9.5-15.1c6.3-6.6,17.6,2.8,14.1,11.1c25.2,24.1,20.5,40.6,23.1,18.9c0-0.4-0.1-3.2,2.4-3.1
			c5.8,0.2-2,18.7-1.4,20.7c6.2,18.9,8.9,23.8,7.8,32.1c6.7,8.6,11.4,13.9,10,17.9c11.9,6.3,28.9,15.4,38.8,24.9
			c1.9,1.9,4.2,6.1,1.1,7c-5.6,1.8,10.1-2.9-53.6-33.4c-10.4-5-21.9,3.8-28,12.6c2.6,10.2,5.3,17.4,2.6,27.1
			c-0.6,2.2-2.1,2.8-3.2,2.2c-2.5-1.3-0.4-1.8-0.1-11.1c0.1-3.1-0.7-5.9-2.9-13.5c-8.3,10.9-16.5,21.6-24.7,32.4
			c0.9,4.7,1.9,9.5,2.8,14.3c8.6,3.8,9.8,3.4,24.1,12.9c1.5,1,2.8,3.2,4,4.3c3.9,3.6,7.8,5.9,3.2,14.4c-4.5,8.6-25.1,0.3-10.1-15.6
			c-6-4.5-13-7.9-20.6-10.6c1.3,27.2-0.8,28.2-4.8,38.3c4.2,9.9-8.3,16.8-14.9,7.8c-3.3-4.6-0.8-13.3,7-12.8
			C738,396.4,739.5,396.8,741.2,397.2z M550.6,258.7c4.6-0.8,6.7-8.5-0.8-12.3c-6.9-3.5-11.2,5.1-8.6,7.4
			C547.5,259.1,549.2,258.4,550.6,258.7z M544.2,296.6c0.4,4.5,3,4.7,4.3,5.9c6.3,5.6,12.8-12.4,0.2-11.7
			C544.8,291.1,544.2,292.8,544.2,296.6z M594.7,261c6.5-5.1-0.7-12.8-8.2-9.5c-3.6,1.6-1.7,7.4,1.9,8.2
			C590.5,260.2,592.7,260.6,594.7,261z M644,251c1.2,1,4,5,8.6,1.5c4.1-3.1,1.4-9.8-5.5-9.2C643.4,243.5,643.3,248.6,644,251z
			 M669.8,228.7c4.6,10.7,14.2,4.1,10.7-1.6c-1.6-2.5-4-2.6-6.5-2.4C671.3,224.8,670.7,226.8,669.8,228.7z M635.6,363.4
			c-6.5,0.5-5.3,10.2,0.3,9.9c2.5-0.2,5-3,4.9-5.6C640.7,365.3,638.2,363.3,635.6,363.4z M722.4,216.2c-7.3,0.7-5.1,9.2,1,8.9
			C728.9,224.9,729.2,215.5,722.4,216.2z M769.2,385.9c1.2,1,4.3,4.3,6.7,1.3c5-6.4-5.1-12.6-6.5-6.2
			C769.1,382.6,769.3,384.3,769.2,385.9z M762,204.8c2,2.2,3.6,5,6.1,3.7c4-2.1,1.2-5.5-2-8.1C763.9,198.7,760.5,201.7,762,204.8z
			 M732.7,404.9c0.5,3.8,8.8,6.7,7.8-0.8C740,399.9,732,398.9,732.7,404.9z M612.5,342.6c1.5-0.1,2.6-0.4,3-1.6
			c1.2-3.4,0.3-5.1-3-6.3c-4.3-1.4-6.1,2.5-3.3,5.3C610.2,341.1,611.5,341.8,612.5,342.6z M682.9,355.8c1.6-0.3,2.1-0.8,3.2-3.2
			c2-4.2-4.1-7.2-6.2-4.4c-1.3,1.7-1.2,4.2,0.4,5.4C682.4,355.3,683.2,354.8,682.9,355.8z M674,391.8c2.3-2.2,1.7-8.3-1.8-8.5
			c-3.6-0.2-3.4,3.5-3.7,5.5C670.2,390.3,671.8,391.6,674,391.8z M743.7,246.2c-4.3,0.3-3.1,7.7,1.5,7.5
			C749.4,253.5,750.2,245.7,743.7,246.2z M716.3,312c3.4,0.7,8.9-0.2,7.7-3.3C722,302.9,715,305.5,716.3,312z M698.7,399.7
			c3-2.3,1.9-3.6,0.5-7.1c-4.1-2.4-7.9,3.7-3.1,6C696.9,399,697.8,399.3,698.7,399.7z"/>
		<path class="st2" d="M621.5,279.3c-15.2,1-13.2-6.3-9.3-5.5c6.1,1.4,0.8,0.6,10.2,1.2C624.9,275.1,626,278.8,621.5,279.3z"/>
		<path class="st2" d="M706.3,350.5c7.3,0.2,10.7-0.4,10.5,2.6c-0.2,2.5-2.8,1.9-11.7,2c-1.5,0-3-0.2-3.1-2
			C701.9,350.2,706.3,351,706.3,350.5z"/>
		<path class="st2" d="M751.9,295c0.2,1.8-1.3,2.2-2.8,2.5c-6.5,1.2-8.7,2.2-9.5,0.1c-1-2.9,2.6-3,8.6-4.5
			C748.3,293.6,751.6,292.1,751.9,295z"/>
		<path class="st2" d="M693.3,213.3c0.5-0.7,0.9-1.5,1.5-1.8c0.6-0.2,1.8-0.2,2.2,0.3c3.3,4,7.8,8.7,4.5,10.3
			C699,223.3,694.7,215.7,693.3,213.3z"/>
		<path class="st2" d="M680.1,273c-7.2-0.4-6.9-0.3-7.7-0.6c-2.4-0.9-1.7-4.1,0.7-4c6.2,0.1,10-0.3,10,2.4
			C683.1,272,682.1,272.9,680.1,273z"/>
		<path class="st2" d="M796.9,205.5c2.7-0.3,2.7,2.8,2.9,9.7c0.1,2.9-3.8,3.5-4.2,0.1C795,208.4,794.3,205.8,796.9,205.5z"/>
		<path class="st2" d="M774.2,342.8c-2.1,11.3-7.9,8.5-6.3,4.7C770.6,341.3,770.5,339.9,774.2,342.8z"/>
		<path class="st2" d="M576.3,290.8c9.4,3.3,4.9,6.7,3.2,6c-1.6-0.7-3.2-1.5-4.8-2.3C572.8,293.5,574.1,290.1,576.3,290.8z"/>
		<path class="st2" d="M635.1,315.1c-0.2-2.1,1.4-2.6,5.9-3c2.6-0.2,3.5,3.4,0.5,4.1C638.9,317,635.4,317.6,635.1,315.1z"/>
		<path class="st2" d="M729.6,298.4c-0.1-2.8,4.6-3.7,4.6-0.6C734.2,300.5,729.8,301.5,729.6,298.4z"/>
		<path class="st2" d="M558.4,320.1c2.8-0.3,3.2,3.9,0.2,4.2C555.7,324.7,555.6,320.4,558.4,320.1z"/>
		<path class="st2" d="M797.7,197.6c0.2,2.6-3.9,3.1-4.1,0.5C793.4,195.4,797.5,194.8,797.7,197.6z"/>
		<path class="st2" d="M608.1,245.6c-2.7,0.4-2.9-3.5-0.5-3.8C610.1,241.6,610.6,245.3,608.1,245.6z"/>
	</g>
	<g class="st1">
		<path class="st2" d="M554.1,121.8c1.4-15.2-29.8-5.5-57.5-20.6c-9.3-5.1-17.1-14.2-13.5-24.8c11.9-35.7,71.9-3.2,98.8-5.4
			c12.1-1,22-6.8,14.5-15.5c-10.4-12-48.4-19.7-59.8-44.8c-9.2-20.1,13.8-32.7,38.7-22.5c27.6,11.4,56.2,31.6,119.6,33.4
			c21,0.6,12.7-10.5,78.9-42.3c2.1-1,3.8-1.6,4.8,0.5c2.4,5.6-20.9,7.3-63.5,40.5c-1.1,0.9-2.2,3.6-2.3,3.7c-9,14.7-3.5,27.1,3.5,43
			c11.7,26.5,31.9,59.3,18.2,76.8c-6.9,8.8-17.5,4.9-22.4,0.5c-19.1-17.3-24.1-29.5-36.5-32.2c-18.2-3.9-9.3,37.7-8.8,58.2
			c0.6,24.7-19.7,40.8-37.1,16.2c-7.2-10.1-15.4-40.2-29.9-32.8c-15.3,7.8-30.9,52.8-68.9,61.5c-14.8,3.4-33.2-1.6-32.6-18.1
			C499.6,164.7,551.9,146.5,554.1,121.8z M691.6,81.4c-8.1,12.8-4.3,7-7.4,12.8c-1.3,2.4-4.6,1.2-3.7-1.7c1.2-3.8,5.1-11,10-16.2
			c-0.5-2.3-0.9-4.6-1.4-7.2c-10.7,8.3-17.2,13.3-22.8,29.9c-1.2,3.4-5,2-4-1.2c5.1-17,12.9-24.5,25.9-33.8
			c-1.1-7.1,0-14.2,0.5-21.7c-46.3,38.8-42,31.3-45.6,57.3c-3.3,23.7-3.7,11.2,8.6,18.2c1.8,1,3.5,2.6,2.3,4.2
			c-2.2,2.8-2.4-1.9-13.1-2.8c-0.9,9.2-0.7,18.1,0.9,26.6c3,1,5.7,1.7,8.4,2.8c2,0.8,4.9,3.9,2.8,5.6c-2.6,2-1.8-2.2-10.5-3.5
			c0.3,2.2-0.4-0.5,3.2,12.4c1,3.5-3,4.5-3.9,1.4c-0.7-2.1-3-9.5-3.7-13.2c-3.1,3.3-1.1,0.9-6.3,7.6c-2,2.6-5.2,0.5-3.5-2.4
			c9.7-16.3,10.2-1.4,7.6-20.7c-7.3,6.8-7.3,7.9-9.1,6.6c-1.4-1-1-2.4,0.1-3.7c11-13.1,8.5-0.1,9.2-20.1c-4,2.5-2.4,1.1-10.7,7.9
			c-2.4,2-4.8-0.6-3.1-2.8c1.6-1.9,10.3-9,14-9.7c1.5-10.3,2.9-20.6,4.4-31.1c-4.7,2.6-15.8,12.3-19.9,15.8
			c-41.9,36.3-39.7,48-44.1,45.7c-3.5-1.9,1.5-6.7,13.4-21.8c-4.9-0.1-11.5,0.9-17,2.9c-3.2,1.2-4.5-2.7-1.8-3.7
			c2.7-1,5.4-2,8.3-2.5c18.7-3.7,9.9,3.3,19.3-6.6c-3.1-0.4-0.4-0.4-10.3,0c-4,0.2-4.3-3.8-0.4-4.2c4.7-0.4,9.4-1,13.7,0.5
			c8.1-7,15.9-13.9,23.8-20.8c-0.8-1.9-2.6,4.7-48.4,4.3c-5,7.2-16.1,16.1-17.8,11.5c-1.3-3.3,2.7-1.1,11.6-10.6
			c1.3-1.4,1.4-1-11.1-1.9c-6.2,6.6-7.5,8.9-9.5,7.3c-2.3-1.9,0.8-4.1,4.1-7.6c-4.1-0.4-7.8-0.8-11.1-1.1
			c-4.1,5.1-18,15.5-19.3,10.1c-0.9-3.6,5.8-1.7,14.5-10.9c-34.9-6.9-24.9-11.2-23.2-10.8c1.6,0.3,14.5,4.7,18.1,5.1
			c-3.8-5.6-5.7-6.9-3.4-8.5c1.8-1.3,2.7,0,7.1,6.7c2.5,3.8-2.5,2.4,10.8,4.2c1.2-1.6-6.1-6.8-2.8-9.1c2.8-2,5.1,3.9,8.2,9.4
			c18.2,1.9,36.7,2.2,55.4,0.4c-6-8.3-7.8-9.8-6.1-11.5c3.5-3.5,5.6,6.3,11.9,10.4c1.8-0.4,3.7-0.8,5.7-1.2
			c-1.9-6.2-7.3-14.6-11.3-19.1c-3.4-3.9,0.8-6.5,2.8-3.9c4.4,6.1,10.6,14.2,12.6,21.8c7.2-1.1,11.5-3.1,17.4-8
			c7-5.7,4.3-2.8,1.4-4.3c-1.7-0.9-2.2-2.3-0.5-3.7c0.6-0.5,1.7-0.2,8.2,0.6c18.1-15.1,12.9-8.6,0.9-11.3c-2.4-0.5-2.2-3.8,0.3-4
			c0.5,0-0.4-0.1,15.8,1.2c30.1-26,16.6-4.7-39.6-17.2c-2,2.1-6.7,6.3-8.1,7.5c-2.3,2-5.1-0.8-2.6-3.2c0.9-0.8-0.9,0.9,5.5-5
			c-11.5-3.1-8-3.3-12.8,1c-3.3,2.9-13.4,9.3-14.7,5.2c-1.1-3.7,6-2.1,13.4-10.1c-4-1.4-7.9-2.8-11.7-4.1c-3.8,7.2-12,4.7-6.7,0.6
			c0.9-0.7,1.9-1.4,3.2-2.4c-3.1-1.4-5.7-2.7-8.4-3.9c-4.1,3.1-17.9,8.6-17.9,3.6c0-3,7.4-2.5,13-5.6c-0.8-0.5-1.4-0.7-1.9-1.1
			c-7.4-5.1-10.7-6.6-8.8-8.9c1.8-2.1,3.9,0.6,6.4,2.3c6,4.1,6.8,5.4,1.6-5.5c-1.5-3.1,2-4.8,3.7-2.3c1.1,1.6,1.1,2,5.2,13.2
			c2.3,1,5,2.2,8,3.5c-0.3-1.8-0.5-3.4-0.8-4.9c-0.5-3.1,3.2-4.1,4.1-1.1c0.5,1.7,0.7,4.1,1.1,8.1c14.6,5,11.9,5.5,8.2-3.5
			c-0.9-2.2,1.8-4.1,3.5-2.2c0.7,0.8,3.6,5.7,3.7,10.6c6.9,2.4,13.9,3.5,21.1,4.4c-1.5-6.1-10.5-9.8-8.3-13c1.2-1.7,3.1-0.7,4.5,0.7
			c4.6,4.8,7.2,7.4,8.6,13.2c14.3,2.6,34.6,2.5,42.9,1.2c9.1-1.4,10.2-3.2,16.8-8.9C622.7,25.1,597.3,0.1,571.3-8.2
			c-34.4-10.9-46.8,16.8-7.2,39.2c16.2,9.2,27.6,12.7,35.2,20.6c10,10.5,3,23.1-19.1,24.1c-27.1,1.2-82.2-27.7-92.5,1.8
			c-2.6,7.6,2.7,14.4,9.5,18.5c27.1,16.5,61.7,4,61.7,25.3c0,21.3-36.3,38.6-49.6,59.1c-23.2,35.8,24.5,43.5,54.6,8.3
			c21.4-25,34.3-56.6,54.9-31.9c7.5,9,7.4,17.9,16.5,29.3c14.9,18.5,28.4,1.9,26.7-19.9c-1.8-23.1-8.5-63.3,14.4-58.6
			c11.1,2.3,14.5,7.9,34.1,29c6.8,7.3,15.7,11.8,21,3.4c9.9-15.5-8.7-47.8-23.6-80.5c-8-17.6-2.3-28.9-2.2-31.6
			c-12.5,10.6-11.8,6.5-13.4,28.8c4.7,0.3,9.1-0.2,8.6,2.9c-0.3,2.1-2.2,1.6-8.5,1.4c2.4,14-0.8,4.7,13.4,11
			c3.4,1.5,3.9,3.9,0.2,4.6c-0.6,0.1-4.2-2.5-11.4-2.9c1.1,4,2.2,7.8,3.1,11.1c10.1,2,10.2,1.9,11.5,2.8c2,1.4,0.7,4.3-1.6,3.7
			c-10.2-2.4-10.2-5.8-1.4,11.8c6.2,1,9.7,1.4,12.8,2.8c2.2,1,1.9,5-2,3.7c-2.3-0.7-4.6-1.1-6.9-1.7c1.1,2.2,2.3,4,3.4,5.9
			c1.9,3.2-2.9,5.1-4.4,1.8c-1.5-3.3-9.2-15-9.7-15.8c-3.7,4.7-1.9,11.5-5.8,10.7c-3.7-0.7,0.7-10.8,1.4-12.1
			C697.5,94.2,697.9,98,691.6,81.4z"/>
		<path class="st2" d="M557,160.7c8.9-9.5,8.7-9.4,10.9-11.1c1.8-1.4,4.2,0.5,3,2.7c-0.2,0.3,0.7-0.7-15.6,17.8
			c-0.4,0.5-2.1,2.9-4,1.3C547.9,168.5,557.9,161.5,557,160.7z"/>
		<path class="st2" d="M623.5,56.8c-1.7-1.7-1-4,3.8-4.2c0.6,0,13-0.3,14.3,0c2.9,0.5,2.6,4.3-0.2,4.3
			C638.9,57,625.5,57.3,623.5,56.8z"/>
		<path class="st2" d="M617.6,134.3c-4.3,6.1-5.2,8.2-7.2,7.1c-3.8-2,4-10.2,6.8-12.3c2.2-1.7,4.9,1.1,2.7,3.3
			C619.8,132.4,617.8,134.4,617.6,134.3z"/>
		<path class="st2" d="M718.9,130.1c-10.2-11-2-13.6-0.8-9.2c0.7,2.6,2.4,4.4,3.9,6.4C723.9,129.6,721.6,132.2,718.9,130.1z"/>
		<path class="st2" d="M626.9,66.2c1.1-0.2,0.1-0.6,8.9,0.2c3.5,0.3,3.2,4.5-0.4,4.3c-6.3-0.5-7.6-0.4-8.7-1.4
			C625.8,68.6,625.9,67.2,626.9,66.2z"/>
		<path class="st2" d="M615.8,45.3c2.9,3-5,6.2-7.9,6.7c-2.5,0.4-3.6-2.7-1.1-3.9C613.1,45.1,614.3,43.9,615.8,45.3z"/>
		<path class="st2" d="M654,141c-1.8,1.9-3.7-0.6-5.3-1.8c-1.7-1.3-4-1.9-3.1-4.1c1.1-2.7,3.7-0.5,6.8,1.4
			C652.1,137,655.9,138.8,654,141z"/>
		<path class="st2" d="M577.1,109.6c4.2,3.8-7.1,5.9-8.1,3.2C567.9,109.8,574.8,108.5,577.1,109.6z"/>
		<path class="st2" d="M584.2,32.3c1.9-2.2,5.4,0.6,3.5,3C585.7,37.7,582.2,34.6,584.2,32.3z"/>
		<path class="st2" d="M646,170.3c2.2,2.2-1.2,5.4-3.3,3.1C640.7,171.2,643.9,168.1,646,170.3z"/>
		<path class="st2" d="M712.3,90.4c2.1-2.1,5.3,1,3.3,3.1C713.5,95.8,710.1,92.6,712.3,90.4z"/>
		<path class="st2" d="M565.8,80.7c2.2,2.1-1.1,5.4-3.2,3.2C560.5,81.7,563.8,78.7,565.8,80.7z"/>
		<path class="st2" d="M546.1,99.6c2-2.2,5.5,0.9,3.3,3.1C547.4,104.8,544.1,101.7,546.1,99.6z"/>
		<path class="st2" d="M677.7,98.5c2-2.2,5.3,0.8,3.4,3C679.1,103.8,675.6,100.8,677.7,98.5z"/>
		<path class="st2" d="M518.6,89.4c2-2.3,5.5,0.8,3.3,3.1C519.8,94.6,516.6,91.5,518.6,89.4z"/>
		<path class="st2" d="M545.1,180c-1.9,2-5.2-0.6-3.3-2.7C543.7,175.1,547.1,177.9,545.1,180z"/>
		<path class="st2" d="M534.4,188.4c-2.2-1.9,0.5-5.3,2.6-3.4C539.2,187.1,536.5,190.3,534.4,188.4z"/>
		<path class="st2" d="M621.6,148.7c-2.1-2,1.1-4.8,3.1-2.7C626.6,148,623.5,150.6,621.6,148.7z"/>
	</g>
	<g class="st1">
		<path class="st2" d="M-56.4,776.8c-0.2-0.7-0.5-1.4-0.6-2.1c-1-33.7-1.6-34.3,2.4-54.8c-9-9.5-21.4-28.4-29.2-53.7
			c-13.9-44.8-2.1-79.3,8.3-110c7-20.8,8-31.8,20.4-7.9c23.6-47.8,33.7-56.6,92.1-106.7c1.7-1.5,3.8-3,5.6-1.5
			c2.2,1.9,0,3.9-2.9,10.9c-7.1,16.8-7.5,6.1,31.7-3.2c18.3-4.3,82.6-16.1,85.8-16.1c7.1,0,3.9,6.2-4.5,27.8
			c-9.1,23.2-9,22.5-17.7,40.1c-1.9,3.8-5.2,7.1-8.3,10.1c9.5-0.2,21-4.6,19.6,2.4c-0.6,3.3-10.1,22.6-27.7,42
			c-12.9,14.2-25.4,22.4-30.6,27.9c14,5.1,37.7,0,23.6,13.7c-61.9,60.2-91.5,64.8-95.4,69.7c4.8,0.9,10.9,1.8,14.1,6
			c2,2.6,2,6,0.1,9c-8.1,12.8-47.9,41.2-80.4,41.6C-57.3,754.6-47.1,784.4-56.4,776.8z M-19.1,637.1c-9.3,17.2-29.7,72.2-29.7,80
			c22.8-0.3,58.8-19.5,74.7-38.8c4.7-5.7-6.8-7.2-12.9-8.5c-5.4-1.1-5.5-4.6-3.2-6.4c7.4-5.5,47.1-20.2,100.1-72.9
			c-0.3-1.2-19.2-0.4-25.7-5.3c-4.9-3.7,3.2-9.8,8.6-14c31.6-25.1,40.9-45.4,48-58.1c-13,1.7-14.6,1.5-18.2,1.2
			c-2.7-0.3-4.2-2.8-2.3-5c5.3-6,12.5-5.5,35.8-72.7C30.8,457.7,46.9,463,34.5,466.1c-2.5,0.6-4.6-1.5-3.5-5.1
			c4.5-14,6.1-13.1-3.3-5.1c-73.3,62.4-71.6,84.5-79.8,96.9c-4.7,7-8.6-6.3-13-12.1C-91.9,608-88.5,641.3-75,677
			c5,13.1,14.2,28.3,21.6,37.6c8.1-28.5,16.5-45.8-2.9-81.7c-1.5-2.9,1.9-4.9,3.7-2.2c22.4,34.2,3.9,63.7,22.5,18.5
			c2.4-5.9,5.2-8.7,9.3-30.2c5.7-29.9,6.6-45.6-2.9-73.6c-0.9-2.7,2.6-4.2,3.9-1.7c3.9,7.5,6.6,22.4,6.7,22.6
			c0.6,0,0.7-3.4,4.9-14.9c1-2.7,5.1-1.6,3.9,1.7c-1.2,3.6-7.5,24.2-7.5,30.2c-0.4,55.3-22.1,49.2,37-25.3
			c11.7-14.7,18.4-49.9,12.4-71.1c-0.8-2.8,6.3-9.9,7,18.6c0,0.6-2.2,4.1,7.1-9.1c9.5-13.6,6.7-9.9,9-13.6c1.5-2.3,4.9-0.6,3.7,2.1
			c-3.7,8.2-11.2,15.4-20.4,33.6c-0.2,0.4-1,9.1-5,22.6c-0.8,2.8,8.9-10.8,32.7-32c3.2-2.8,24.3-21.3,28.2-23.8
			c2.2-1.4,4.5,1.6,2.4,3.5c-12.4,10.9-56.1,47.6-73.4,72.7c1.4,0.3,20.5-9.8,38.7-10c20.3-0.2,13.7,5.9,11.6,5.4
			c-12.3-3-32.9,2.7-34.1,4c11.7,3.1,9.6,3.3,16.1,5.6c2.4,0.9,1.9,4.2-0.1,4.6c-5.3,0.9-27.9-19.8-47,9.5
			c-0.1,0.1-22.8,33.9-28,46.1c1.1-0.1,25.6-19.3,57.8-21.1c19.7-1.1,16.4,4,14.8,4.7c-1.3,0.5-3.7-0.2-6.9-0.3
			C12.7,608.5-19,637.1-19.1,637.1z"/>
		<path class="st2" d="M-88.9,556.7c1.1-0.3,2.2-0.8,3.1,0.3c1.4,1.5,0,2.8-0.4,3.6c-20.4,51.7-13,75.9-9.1,97.4
			c0.8,4.6-3.3,4.6-4.3,2.5c-0.5-1-3.4-17.6-4-21.7C-108.5,605-92.7,561.3-88.9,556.7z"/>
		<path class="st2" d="M116.4,607.5c-2.2,1.3-4.4-0.7-3.5-2.6C114.1,602,119,604.3,116.4,607.5z"/>
		<path class="st2" d="M85.2,640.5c-17.1,13.3-25.5,17-38.6,21.9c-4,1.5-5.3-2.4-3-3.9c0.1,0,24.7-8.9,38.9-21.5
			C84.8,635,87.9,637.4,85.2,640.5z"/>
		<path class="st2" d="M139.7,554.3c-4.8,5.8-12.4,12-16.6,14.8c-3.8,2.6-5.9-1.5-3.6-3.3c11.9-9.3,21.1-16.5,25.9-30.9
			C146.4,531.9,156.9,530.8,139.7,554.3z"/>
		<path class="st2" d="M-109.5,624.7c-3.1,10.3,2.7,30.1,2.9,31.4c0.2,2.7-3.2,3.6-4.4,1.4c-2.7-4.7-5.7-27.7-2.4-34.2
			C-112.3,621.1-108.8,622.4-109.5,624.7z"/>
		<path class="st2" d="M-9.3,474.4c-9.1,5.3-17.6,18.7-20.2,21c-2.3,2.1-5.4-0.5-3.6-3.1C-10.6,461.4-5.3,472.1-9.3,474.4z"/>
		<path class="st2" d="M92.4,631.6c-2.3,1-4.5-1.7-2.6-3.7c4.7-4.8,9.8-8.7,16-16.6c1.3-1.6,3.6-0.8,3.7,0.7
			C110,616.2,93.7,631,92.4,631.6z"/>
		<path class="st2" d="M-40.6,503.9c2.3-2.7,5.5,0.1,3.3,2.7c-6.7,8.1-9.2,14.6-10.1,16.4c-1.7,3.3-5.8,1.1-4.3-2
			C-49,515-45.9,510-40.6,503.9z"/>
		<path class="st2" d="M0.9,463.8c2.2,1.8-0.6,5.1-2.8,3.2C-4,465.1-1.2,462,0.9,463.8z"/>
		<path class="st2" d="M-108.9,613.5c-1.8,2.1-5-0.6-3.1-2.7C-110.2,608.7-107.1,611.4-108.9,613.5z"/>
		<path class="st2" d="M-56.4,623.6c2.5,2-1,5.2-3.3,3.4C-62,625-58.7,621.7-56.4,623.6z"/>
		<path class="st2" d="M69.2,477.6c-1.6,2.1-5.6-0.3-3.8-2.7C67.2,472.6,71,475.2,69.2,477.6z"/>
		<path class="st2" d="M67.4,606.7c2.2,1.8-0.5,5-2.7,3.2C62.5,608.2,65.1,604.9,67.4,606.7z"/>
	</g>
	<g class="st1">
		<path class="st2" d="M277.8-42.2c-10.6-15.2-18.3-27-38.7-48.1c-6.6-6.8-6.9-7.3-7.3-8.1c-0.9-2.1,2-4.5,4.2-2.1
			c7.4,7.9,14.9,15.7,22,23.9c15,17.3,22.5,31.1,24.9,33c9,7.3,16.4,14.4,34.6,17.8c13,2.5,21.3,3,34.1,0.7
			c15.3-2.7,32.6-9.6,44.4-19.7c6.6-5.6,11.8-12.2,15.6-19.9c0.5-1,0.8-2,1-3.1c0.8-3,4.6-2.5,4.8,0.3c2.2,31,20,58.8,50.5,60.4
			c6.7,0.3,11.3-1.2,14-1c2.3,0.2,3.5,2,2.7,4.2c-3,7.5-23.1,17.9-12.8,52.2c1.3,4.5,2.9,8.9,4.4,13.3c0.5,1.5,3,4.5-0.6,5.8
			c-1,0.4-2,0.5-3,0c-0.4-0.2-14.7-1.9-19.3-2.3c-10.3-0.8-20.6,0.2-30.6,2.9c-10.2,2.8-24.3,7.3-32.2,14.2
			c-0.8,0.7-1.5,1.5-2.2,2.2c1.3,3.3,2.5,6.4,3.7,9.5c9.1,22.8,24.9,43.1,46.7,57c2.1,1.4,5.3,1,3.9,4.6c-0.4,1.1-1,1.9-2,2.5
			c-0.2,0.1-0.4,0.3-0.6,0.5c-2.7,2.2-5.5,4.5-8.2,6.7c-16.2,13-27.4,32.5-30.2,45.7c-3.2,15.2,1.2,20.4-2.6,22
			c-1.2,0.5-2.2,0.1-3.1-0.7c-5.2-4.4-10.5-8.6-16.3-12c-9.7-5.7-20.1-9.7-31.3-11.1c-3-0.4-6-0.4-8.9-0.5c-5-0.1-9.6,2.9-13.1,4.2
			c-2.6,0.9-4.6-0.8-4.2-3.5c1.2-7.7,16-43.5-6.2-86.5c-1.2-2.4-4.5-8.2-5.3-9.5c-21.2,10.3-25,11.4-33,19.5
			c-15.1,15.3-15.8,19.6-18.8,22.9c-1.7,1.9-3.9,1.7-5.3-0.4c-8.9-14.1-12.2-22.5-22.4-30.8c-6.4-5.3-17.9-13.3-26.3-13.3
			c-2.5,0-5.2,0.6-6.5,0.4c-1.9-0.3-2.8-2.2-1.9-3.9c2.2-4.3,15.1-15.4,19.6-33.7c1.9-7.6,2-18.6-2.2-25.1c-0.5-0.7-0.8-1.5-1.1-2.3
			c-0.5-1.4,0.1-2.8,1.5-3.3c1.5-0.5,8.3-1.4,12.7-2.6c10.9-2.8,26.3-11.5,38.7-25.3C276.1,4,279.6-9.7,279.7-24.6
			c0-5.5-1.4-14.1-1.8-14.7C277.3-40.2,277.3-41.1,277.8-42.2z M290.2-31.8c-0.1,0.1-0.2,0,0.2,0.7c23.2,39.4,23.1,42.5,24.8,43.3
			c19.9,8.5,51.1,9,70.9,9.2c0.5,0,1-0.1,1.4-0.3C395.5,16.5,401.1,8.8,403,3c0.9-2.9,5.2-1.5,4,1.6c-2.6,6.5-3.9,9.3-10.8,16.2
			c0.3,0.2,0.5,0.2,0.7,0.2c10.7-0.8,28.8-2.8,37.5-8.8c0.8-0.5,1.5-1,2.3-1.5c2.6-1.5,4.7,1.9,2.4,3.5c-2.4,1.7-4.8,3.4-7.5,4.6
			c-15,6.8-38.1,7.4-54.3,7.4c0.5,0.6,1.1,1,1.7,1.4c4.2,2.9,12.6,10.2,14.6,14c1.2,2.3-1.9,4.6-3.7,2c-1.2-1.7-1.6-2.2-5.1-5.4
			c-4.5-4.3-9.6-7.7-15-10.9c-1.3-0.8-2.7-1.4-4.4-1.6c-15.1-1.2-28.8-1.9-46.1-7.1c-0.3-0.1-0.6-0.1-1.1-0.2
			c12.4,23.4,23.2,45.3,31.2,71.3c0.6,2,1.4,3.9,2,5.9c1.9,6.7,3.9,13.4,6,20.1c1.2,3.8,0.9,4.8,9.2,14.7
			c4.8,5.8,10.5,10.5,17.1,14.1c1.4,0.7,1.8,2,1.2,3.1c-0.6,1.2-1.8,1.4-3.3,0.7c-8.9-4.3-14-9.7-18.9-14.9c0,0,7.3,26.2,9.1,35.8
			c0.2,0.8,0.2,1.7,0.1,2.5c-0.3,2.5-4.2,2.5-4.3-0.5c0-4.1-15.6-56.8-16.8-60.8c-0.2,0.2-0.3,0.3-0.3,0.5
			c-1.4,7.2-4.9,16.2-7.5,20.3c-1.7,2.6-5.1,0.2-3.6-2.2c2.2-3.6,6.5-14.8,7.1-24c0.6-8.5,0-9.1-1.7-14.2
			c-9.9-30.9-21.9-53.9-39.1-85.7c-2.1-3.8,3.1,7.2-13.9,44.9c-2.1,4.5-2.3,9.4-1.8,14.4c0.6,6.2,3.3,16.9,5.7,21.1
			c1.2,2.1-1.8,4.2-3.4,2.4c-0.7-0.8-1.3-1.7-1.6-2.7c-4.8-12.2-5.2-18.2-5.8-22.3c-1.6,2.4-4.6,8-11.5,16.3
			c-4.8,5.8-15.9,17.3-23.3,19.2c-4.2,1.1-4.3-3.4-2-3.9c2.6-0.6,4.7-2,6.8-3.6c7.8-6.3,15.3-14.8,16.5-16.9c-1-0.1-10.5,4.6-18.8,3
			c-2.4-0.5-2.4-4.3,1-4.1c1.6,0.1,3.2,0.2,4.8-0.1c7-1.1,17.8-4.8,21.7-11.1c7.2-11.5,12.3-24,16.4-36.9c2.8-8.9,4.5-17.8,3.7-27.2
			c-0.1-1.2,0-2.6-0.5-3.6c-0.8-1.3-14.2-24.7-15.2-25.8c0.1,1.5,0.4,2.8,0.2,4.2c-0.2,2.1,0,4.2-0.1,6.3
			c-0.5,16.7-6.2,26.2-7.5,29.7c-0.2,0.4-0.2,0.9-0.5,1.3c-1.9,2.5-3.8,5-5.9,7.5c-11.6,13.9-30.4,27.1-50,29.8
			c-0.6,0.1-1.2,0.2-1.7,0.3c0.6,1.5,1.2,2.8,1.6,4.2c1.8,5.7,2.5,12.3,0.9,21.2c-2.9,16-13.5,28.3-17,32.7
			c-0.2,0.3-0.6,0.5-0.9,0.8c0.4,0.2,0.4,0.3,0.5,0.3c0.8,0.1,5.5-0.4,11.8,2.7c29.4,14.4,33.2,31.3,40.7,42
			c7-11.2,20.5-25.6,28.5-30.2c15.4-8.7,21-9.8,23.9-12.5c0.8-0.8,2-1,3-0.5c0.5,0.3,1,0.6,1.3,1.1c1.1,1.6,2.3,3.1,3.3,4.8
			c13.3,22.6,18.7,46.2,15.6,72.5c-1.1,9.3-3.5,17.2-4.4,20.7c0.8,0.1,5.8-3,12.6-3c9,0,17.7,1.8,26.1,4.8
			c14.6,5.4,22.7,11.9,29.2,17c0.2-8.4,0.3-15.4,4.3-25.3c6.5-16.1,18.8-31.7,31.7-41c1.8-1.3,3.5-2.9,5.3-4.4
			c-4.4-2.8-8.5-5.2-12.1-8.2c-12.6-10.3-22.6-22.8-30.6-37c-4.3-7.6-7.3-15.8-10.4-23.9c-0.6-1.5-0.3-2.9,0.6-4.1
			c7.4-10.4,29.2-16.9,41.7-19.7c20.1-4.6,36.5-0.7,45.6,0.1c-1.5-5.7-15.8-34-0.5-56.2c1.6-2.4,3-4,7-9.1
			c-29.1,4.1-56.5-13.5-64.6-55.4c-0.3,0.5-0.5,0.7-0.7,1c-9.5,15.4-23.4,24.6-39.8,31c-10.3,4-23.7,7.3-34.5,7.4
			c-12.9,0.2-32.1-3.1-43.3-9.8C293.7-29.7,291.9-30.7,290.2-31.8z"/>
		<path class="st2" d="M457.5-20.7c-6.5-2.6-11.8-6.6-16.2-12c-6.2-7.6-6.9-10.7-8.5-13c-2.1-3.1,2.2-6,4.1-2.7
			c2,3.6,6.3,13.3,16.2,20.1c7.6,5.2,12,4.8,18.1,5.2c2.8,0.2,3.1,3.9,0.1,4.3C470.6-18.7,462.7-18.7,457.5-20.7z"/>
		<path class="st2" d="M313.2,163.3c0.1,14.6,0.7,30.5-5.8,43.6c-0.4,0.8-0.8,1.6-1.3,2.3c-1.6,2.3-5,0.4-3.6-2.2
			c6.6-12.3,6.1-30.3,5.8-44c-0.1-3.1,3.4-3.6,4.5-1C313,162.5,313.1,162.9,313.2,163.3z"/>
		<path class="st2" d="M226.3,28.2c9.9-1.1,24.6-10.5,27.9-16.8c1.4-2.8,4.7-1.1,4.5,1c-0.1,0.8-0.3,1.7-0.8,2.3
			c-2.6,3.4-5.5,6.5-9,8.9c-5.5,3.8-11.4,6.6-17.9,8.2c-2.4,0.6-4.8,0.7-7.3,0.9c-2.8,0.2-3.6-3.9-0.2-4.3
			C224.5,28.4,225.4,28.3,226.3,28.2z"/>
		<path class="st2" d="M444.6,167.5c2.6,0,2.9,3.4,1,4c-1.7,0.5-2.9,1.7-4.2,2.6c-7.4,5.2-11,10.6-16.5,18.2
			c-2.8,3.8-3.2,5.5-5.2,6.5c-1.8,0.9-4.3-1.4-2.8-3.5c8.2-11.6,11.9-18,22.4-25.2c3.2-2.2,1.7-1.3,4.6-2.7
			C444,167.6,443.9,167.5,444.6,167.5z"/>
		<path class="st2" d="M438.9-60.2c-0.4-2.8,2.9-3.9,4.3-1.7c0.7,1.1,1.8,5,5.1,10.1c3,4.6,7.2,7.5,12.3,9.4
			c0.8,0.3,1.6,0.5,2.4,0.8c3.1,1.1,1.9,4.9-1.2,4.1c-16-4-19.2-14.3-22.8-22C438.9-59.8,438.9-60,438.9-60.2z"/>
		<path class="st2" d="M443.3,179.7c2.9-0.5,3.7,2.6,1.9,3.7c-4.4,2.9-6.9,6.7-13.9,15.9c-1.7,2.2-3.3,5.1-5.5,3.4
			c-1.1-0.9-1.3-2.3-0.3-3.6c0.8-1.1,1.6-2.1,2.4-3.2C431.6,191.2,437.9,182.4,443.3,179.7z"/>
		<path class="st2" d="M405.1,225.3c0.7-8.1,3.8-16.7,5.6-19.3c1.6-2.3,4.9-0.2,3.6,2.1c-2.5,4.9-4.4,13-4.3,16.7
			C410.1,228.4,405.6,229.1,405.1,225.3z"/>
		<path class="st2" d="M310.3,150.4c0.3,2.2,1.1,4.6-1.1,5.3c-1.2,0.4-2.4-0.3-2.7-1.7c-0.4-1.6-0.6-3.1-1-4.7
			c-2.3-8.8-3.3-9.6-1.8-10.9c1.3-1.2,3.4-0.7,4,1.5C310.7,151.5,310.4,150.3,310.3,150.4z"/>
		<path class="st2" d="M419.2,210.2c-0.2-1.1,0.6-2.2,1.7-2.4c1.2-0.2,2.5,0.7,2.7,1.9c0.2,1.2-0.5,2.2-1.7,2.4
			C420.7,212.3,419.4,211.4,419.2,210.2z"/>
		<path class="st2" d="M432.8-60.9c0.1,1.2-0.7,2.3-1.8,2.4c-1.1,0.1-2.2-0.7-2.4-1.9C428.3-63.2,432.5-63.8,432.8-60.9z"/>
		<path class="st2" d="M262.9,4.9c-1.2,0.1-2.3-0.7-2.4-1.9c-0.1-1.1,0.7-2.2,1.8-2.3C265.1,0.3,265.7,4.5,262.9,4.9z"/>
	</g>
	<g class="st1">
		<path class="st2" d="M684.2,495.1c-1.6,5.3-15.6,24.8-43.1,23.6c-2.2-0.1-6.2-0.3-8.1-1.3c-1.8-0.9-2.2-3-0.7-4.5
			c0.9-1,24.4-18.7,32.8-21.7c2.7-1,5.9-1.6,6.4-2c-12.4-5.7-25.5-9.7-38.5-13.5c-1.1,9.5-5.4,16.2-14.8,18.1
			c-5.4,1-14.5,0.1-16.1-0.5c-1.8-0.8-2.3-2.9-0.9-4.3c0.1-0.1,10.7-8.9,19.9-15.4c-4.4-0.7-8.8-1.3-13-2c-8.7,10.8-25.3,2.5-37,0.8
			c-10.3-1.5-17-0.4-19.6-0.7c-14.3-1.8,33.4-39.7,57.5-4.8c12.2,1.8,24.4,3.5,36.1,7.6c0.5-0.7-1.1-0.4-5.1-12.3
			c-9.5-27.9-8.9-24.5-9.1-26.4c-1.1-8.4,22.7-1.4,27.6,17c2.1,7.8,2.8,18.5-1.1,25.6c52.8,17.7,34.5,26.9,31.2-3
			c-1.4-13.1,1-21.3-0.2-39.5c-1.2-17.8,42.1,15.1,16.6,64.4c44.1,23.4,23.8,24.1,23.8-5.2c0-0.1,1.2-40.9,1.3-41.3
			c1.2-8,12.2,1.6,17.4,7.7c14.6,17,5.7,43-2.7,63.9c31.7,24.3,30.5,24.3,40.3,34.9c2.2,2.3-0.5,5.1-2.9,3.2
			c-2.1-1.7-5.4-6.7-17.7-16.5c-6.5-5.1-26.8-21.5-36.5-27.3c-8,20.7-24.3,28.8-45.3,24.2c-2.9-0.6-6.9-1.5-8.1-2.1
			c-1.9-1-2.3-3.6,0.4-5.1c21.1-12.3,24.1-19.6,43.9-22.8C707.6,506.7,696,500.8,684.2,495.1z M734.8,456.5
			c-2.5,40.4-2.1,53.6,6.5,64.8c8.2-21.2,16.1-45.9-1.2-60.5C734.4,455.9,735.2,456.2,734.8,456.5z M693.6,436.6
			c-0.6,0.3-0.3,0-0.2,0.8c1.5,22.8-4.7,41.3,7.9,59.4C703.2,496.8,720.2,459.5,693.6,436.6z M604.5,468.8
			c-3.7-7.1-19-16.8-35.6-9.6c-7.2,3.2-11.3,6.6-12.2,7.3c32.6,1.5,33.6,8.3,44,4.9C602.3,471,603.6,470.3,604.5,468.8z
			 M723.2,518.2c-14.2-1.5-28.9,11.8-42,20C702.1,545.3,718.4,533.3,723.2,518.2z M636.4,437.1c10.3,28.6,11.2,35,16.6,39.2
			C656.7,470.4,659.9,444.2,636.4,437.1z M639.4,513.6c10.6,2,30-2.7,39.9-19.2C669.5,489.2,650.9,505.7,639.4,513.6z M627.9,475.8
			c-5.8,1.5-9.3,5.1-19.3,13.4C622.2,491.5,629,482.3,627.9,475.8z"/>
		<path class="st2" d="M711.6,431.6c6.8,6.8,10.1,14.8,11.4,24.3c0.7,5.2-3.8,4.9-4.5,2.3c-0.7-2.3-1-20.8-19.5-29.8
			c-1.9-0.9-3.8-1.5-6-1.4C686.9,427.1,691.4,414.2,711.6,431.6z"/>
		<path class="st2" d="M673,521.5c-0.5,0.4-8.1,5.5-14,7.2c-5.2,1.5-6.7,1.4-18,0.6c-6.9-0.5-5-5.4-1.9-4.8c19.1,4,28.1-5.9,31.6-7
			C673.1,516.7,675,519.4,673,521.5z"/>
		<path class="st2" d="M571.6,446c2-0.9,4.1-1.4,6.2-1.9c14.5-3.2,21.4,2.6,28.9,8c2.7,2,0.3,5.7-2.4,4.1
			c-4.9-2.9-11.7-11.1-26.7-7.5C573.1,449.8,570.2,450.5,571.6,446z"/>
		<path class="st2" d="M716.6,559.7c-2.5,0.6-4.3-2.6-1.1-4.2c12.8-6.1,16.3-18.1,17.7-19.9c1.4-1.7,3.8-0.9,4.1,0.9
			c0.4,2.3-4.6,10.4-6.2,12.3C729.5,550.9,721.3,558.5,716.6,559.7z"/>
		<path class="st2" d="M694.1,552.1c2.9-0.9,0,0.2,6.5-1.2c9.4-2,14.2-6.2,19-9c4.1-2.3,5.6,2.3,3.4,3.6
			c-9.5,5.5-16.1,10.3-27.9,10.3C693.6,555.9,692.4,553.8,694.1,552.1z"/>
		<path class="st2" d="M659.9,436c2.3,2.4-0.8,5.6-3.3,3.4c-7.9-7-11-10.4-21.5-10.1c-3,0.1-3.2-3.7-0.6-4.2
			C644.1,423.2,653.7,429.5,659.9,436z"/>
		<path class="st2" d="M758,522.2c-3.4,2.8-5.1-0.7-3.7-2.4c5.7-7,6.7-13.9,8-21.9c0.6-3.3,5.6-3.5,4.6,2.4
			C764.3,514.9,758.2,522.4,758,522.2z"/>
		<path class="st2" d="M766.5,473.9c3.9,10.7-2.5,9.3-2.8,6.4c-1.3-9.5-9-16-9.9-17.9c-1.1-2.2,1.6-4.3,3.5-2.7
			C758.9,461,763.9,466.7,766.5,473.9z"/>
		<path class="st2" d="M666.5,445.8c2.9,5.5,5.6,20.5-0.1,18.2c-3.1-1.2,0.5-3.8-3-14.8c-0.2-0.6-0.5-1.1-0.6-1.7
			C662.2,445.6,664.5,443.8,666.5,445.8z"/>
		<path class="st2" d="M682.9,423.8c2.1-2.2,5.5,1.1,3.3,3.3C684.1,429.2,680.8,426,682.9,423.8z"/>
		<path class="st2" d="M614.3,462.4c-2.1,2.2-5-1.2-3.1-3.2C613.3,457.1,616.3,460.4,614.3,462.4z"/>
		<path class="st2" d="M708.4,558.4c2,2-1,5.2-3,3.2C703.4,559.6,706.4,556.3,708.4,558.4z"/>
		<path class="st2" d="M767.3,489.1c-1.9,2-4.8-0.9-2.9-2.8C766.2,484.4,769.2,487.1,767.3,489.1z"/>
	</g>
	<g class="st1">
		<path class="st2" d="M108,646.2c2.6,2.9-4.6,3.9-1.6,15.7c1,4-3.8,4.5-4.5,1.3C99.1,650.4,105.3,643.2,108,646.2z"/>
		<path class="st2" d="M177.3,724.9c-0.2-10.4,14.5-12.9,20.6-4.2c7.8,11-9.5,20.7-18.3,10c-1.8-2.2,1.8-0.1-24,12.4
			c-0.7,0.3-1.5,0.4-2.3,0.6c-7.1,8.4-10.4,12.8-19,20.2c-13.4,24.5-19.1,31.1-27.5,40.3c-1.8,2-4.7-0.1-3.4-2.5
			c0-0.1,29.1-33.5,41.3-74.9c1.6-5.5-2.1-14.1-2.7-16.3c-1.2-4.3-16.7-4.1-21.1-3.4c-2.1,13-14.3,14.7-20,7.1
			c-10.1-13.6,9.3-29.7,18-15.2c3.5,5.9-3.7,1.2,20.6,4.5c-3.9-12.2-10.7-23.1-16.9-34.1c-1.9-0.5-3.7-0.8-5.3-1.5
			c-16.6-7.2-2.3-31.7,14.2-24c9.8,4.6,10.4,19.2-3.9,24.7c6,10.8,8.1,14.5,10.8,19.7c6,11.8,8.8,24,9.7,25.5
			c5.9-24,8.3-48.4,9.1-73.1c-16.8-4.7-12-29.4,4.8-27.5c15.7,1.7,16.8,24.9,0.1,27.8c-0.7,12.5-1.2,25-2.8,37.5
			c3.5-2.1,22.8-30.6,23.7-34.9c-3-6.3-0.5-13.1,4.5-16.1c11.2-6.8,23,7.4,15,17.9c-3.5,4.5-9.9,6.4-15.8,2.7
			c-4.8,7.4-9.5,14.8-14.3,22.3c9.4-1.3,18.2-4.3,26.9-7.6c4.7-14.8,25.8-12.2,25,2c-0.7,13.4-21.2,18.5-25.3,3.3
			c-7,2.4-22.8,7.7-30.2,6.7c-9.3,10.8-10.4,10.3-10.7,12.4c-7.6,49.5-17.2,61.4-17.5,64.4c13.4-15.5,24.1-32.6,31.8-51.4
			c-6.4-11.2,6.6-21.6,15.3-13.7c7.3,6.6,1.9,21.8-11.5,17.1c-5,11.7-11,22.8-18,33.4C164.8,733.2,171.4,729.7,177.3,724.9z
			 M167.4,632.5c7.4-9.6-6.7-20.7-14.1-11.2C146,630.8,160,642.2,167.4,632.5z M131.3,660.6c9.3-11.9-9.9-19.1-15.6-7.4
			C111.1,662.6,124.3,668.4,131.3,660.6z M218.4,667.9c2.6-4.2,0.5-9.3-4.2-10.3c-4.5-0.9-9.2,2.2-10.3,6.6
			C201.9,672.3,213.4,675.9,218.4,667.9z M188,633.3c-5,7.3,3.4,15.5,9.7,10C205.3,636.7,194.8,625.1,188,633.3z M113.4,712.4
			c8.3-7.4-4-21.2-9.5-10.1C100.5,709.3,107.8,717.4,113.4,712.4z M194.5,724.4c-2.9-6.9-15-4.5-12,1.7
			C185.8,733.1,197.2,730.8,194.5,724.4z M176.7,690.5c-4.5,5.8,3.8,12.8,8.3,7.1C189.4,691.8,181.2,684.7,176.7,690.5z"/>
		<path class="st2" d="M156.2,604.9c2.6-0.3,3.2,3.9,0.4,4.2c-6.4,0.5-14.4,7.7-12.4,19.2c0.6,3.5-4.6,4.2-5,0.7
			C137.7,615.5,145.7,606.1,156.2,604.9z"/>
		<path class="st2" d="M120.2,686.7c2,2,2.3,2.2,2.7,2.9c1.1,2.1-1.4,4.3-3.4,2.5c-6.5-6-10.2-4.1-18.2-0.3
			c-3.3,1.6-4.9-2.8-2.3-4.2C105.9,683.9,114.3,681.7,120.2,686.7z"/>
		<path class="st2" d="M96.9,699.3c-2.4,4.4-1.2,8.5,0.1,13.3c0.9,3.1-4,4.2-4.7,0.9C87.8,692,99.2,695.1,96.9,699.3z"/>
		<path class="st2" d="M132.7,631c-1.6-3.6-3.4-7.2-2.3-11.3c2.6-9.6,7.8-6.1,6.3-3.1c-3,5.8-2.7,5.3-0.2,11.6
			C137.8,631.6,133.7,633.2,132.7,631z"/>
		<path class="st2" d="M177.2,740.8c-2-2,0.9-4.9,3-3.1c2.6,2.3,6.1,2,9.7,1.8c3.3-0.2,3.7,3.6,0.8,4.5
			C189.1,744.5,180.9,744.7,177.2,740.8z"/>
		<path class="st2" d="M198.2,699.2c-1.2,3.3-6.1,1.8-4.4-1.5c2.2-4.3,2-6.2,1.3-9.7C194,683.5,203.8,683,198.2,699.2z"/>
		<path class="st2" d="M102.7,722.7c-2,2.3-5.5-0.5-3.6-2.7C101,718,104.6,720.5,102.7,722.7z"/>
		<path class="st2" d="M109.1,669c1.8-2.3,5,0.3,3.3,2.6C110.7,673.9,107.3,671.3,109.1,669z"/>
		<path class="st2" d="M201,739.8c-1.7,2.2-5.1-0.4-3.5-2.5C199.2,735.1,202.7,737.6,201,739.8z"/>
		<path class="st2" d="M188.1,708c-2.3-1.8,0.5-5,2.7-3.3C192.9,706.4,190.3,709.7,188.1,708z"/>
		<path class="st2" d="M159.7,625.4c-2.2-1.8,0.4-4.9,2.6-3.2C164.5,623.9,161.9,627.2,159.7,625.4z"/>
		<path class="st2" d="M123.1,653.9c-2.3-1.7,0.3-4.9,2.5-3.3C127.8,652.3,125.3,655.6,123.1,653.9z"/>
		<path class="st2" d="M216.1,663.6c2.5,1.9-0.5,5.5-2.9,3.6C210.9,665.4,213.7,661.7,216.1,663.6z"/>
		<path class="st2" d="M196.1,635.1c2.2,1.7-0.2,4.9-2.4,3.3C191.5,636.7,193.9,633.4,196.1,635.1z"/>
		<path class="st2" d="M111.1,702.7c-0.9,4.2-5.6,2-4.1-1.1C108.2,698.9,111.6,700.1,111.1,702.7z"/>
		<path class="st2" d="M190.1,726.4c-1.6,2-4.7-0.4-3-2.4C188.6,721.9,191.6,724.4,190.1,726.4z"/>
		<path class="st2" d="M178.3,695.1c-2.2-1.7,0.2-5.1,2.5-3.5C183,693.2,180.6,696.8,178.3,695.1z"/>
	</g>
	<g class="st1">
		<path class="st2" d="M251.3,663.2c-9.6-39.1,5.9-90.6,59.7-92c13.9-0.4,24.6,2.1,38.8,4.7c0.1-2.1-0.8-2,0.4-9.7
			c1.7-11.3,7.1-26.3,19-32.7c4.4-2.4,8.9,1,7.7,5.4c-0.9,3.5-4.9,6.8-6.1,15.3c-0.4,2.7-1,10.3,0.3,12.4
			c5.7-16.9,19.3-32.7,38-35.1c21.1-18,41.7-5.8,41.2,7.4c-0.4,11-6.4,7.8-5.8,4.7c0.2-0.9,0.4-1.9,0.7-2.8
			c2.7-9.3-12.7-20.3-29.5-8.6c21.8,8.2,2.6,30.6-7.8,22.1c-6.2-5.1-5.2-10.5-2.9-17.1c-16.9,4.4-31.3,26.2-30.3,37.9
			c18-5.2,31-9.2,49.5-5.1c23.7,5.2,40.7,16.2,48.8,40.4c3.2,9.4,3.9,21.9,3.6,27.8c-2.5,47.8-32.8,71.5-78.5,83.1
			C338.3,736.5,266.2,723.8,251.3,663.2z M348,722.4c0.5-1.5-42.2-9.7-54.4-66c-2.3-10.5-2.1-19.7,0.8-31.2
			c6.5-25.4,22.6-38.3,48.4-45.5c-0.1-0.1-82.7-25.6-89,56.5C249.5,691.7,293.3,720.6,348,722.4z M373,721
			c19.2-19.7,25.7-109.7-6.4-136.2c-2.9,0.4-1.9-2.6-4.5,0c-16.2,16.1-20.5,40.3-21.5,63c-1.8,41.3,13.6,70,18.9,73.1
			C362.3,722.6,361,722.2,373,721z M376.1,579.8c0.2,0.4,2,0.1,5.9,0.7c41.1,6.2,55.3,49.2,49.9,80.3c-2.9,16.9-11.5,31-22.6,43.9
			c-6.8,8-12,10.9-13.3,11.9C511.8,694.5,488.4,540,376.1,579.8z M357.1,583.1c-13.6-0.7-29.9,6.4-38.8,13.2
			c-37.1,28.6-22.8,93.3,21.4,116.9c3.4,1.8,7.1,3.1,10.6,4.6c1.3,0.5-2.1-2-7.7-18.3C330.9,665.5,332,614.1,357.1,583.1z
			 M373.4,585.1c17.7,17.8,23,59.2,19.8,85.8c-5.2,43.6-12.6,45.4-12.3,48.1c27.6-11.3,47.5-43.6,47.3-70.3
			C427.6,583.7,371.8,583.5,373.4,585.1z M366.4,541.8c-8.2,8-13.6,25.5-11.9,35c1.3,0.4,6.7,1.2,11.5,1.2c1.5,0,2.7-0.7,4.1-1.1
			c-5.8-10.1-4.5-14.6-3.9-25.3c0.1-2.4,3.3-9.7,3.6-9.8c1.1-0.8,2.3-3.2,2.4-4.2c-1.3,0.1-4.1,1.8-6.2,3.7
			C366.1,541.5,366.2,541.6,366.4,541.8z M411.4,536.4c-9.6,11.5,3.4,21,8.8,9.9C422.9,540.8,417.5,536.9,411.4,536.4z"/>
		<path class="st2" d="M469.1,689.9c-1.9,1.6-4.3-0.4-3.6-2.5c0.5-1.4,11.1-13.2,15.7-27.7c1.1-3.6,0-7.9,3.2-7.4
			C491.8,653.3,476.6,683.6,469.1,689.9z"/>
		<path class="st2" d="M460.5,548.5c-1.2,2.9-6,2-4.6-1.6c2.3-6,3.1-8.2,2.1-12.4c-2.4-10.5-9.9-10.8-4.5-13.7
			C456.6,520.9,467.6,531.7,460.5,548.5z"/>
		<path class="st2" d="M293.3,565.5c-23.6,8.3-28.3,17-33.9,23.2c-2.9,3.2-5.9-0.3-4.2-2.4c15.6-19.6,35.6-27,46.1-25.8
			c3.2,0.4,2.7,4.1,0.3,4.3C299.4,564.9,296.8,564.3,293.3,565.5z"/>
		<path class="st2" d="M254.9,571.4c3.1-2.2,5.5,1.5,3.1,3.1c-19.3,13.7-17.5,43.1-18.1,45.3c-0.6,2.4-3.7,2.3-4.4,0.3
			C234.2,616.7,235.1,586,254.9,571.4z"/>
		<path class="st2" d="M237.7,633.5c-3.1,0-3-4.7,0-4.7C240.8,628.9,240.8,633.5,237.7,633.5z"/>
		<path class="st2" d="M454.1,559.9c0,2.9-4.5,2.7-4.4-0.2C449.8,556.4,454.2,556.8,454.1,559.9z"/>
		<path class="st2" d="M459,699.8c-2.9,0.1-2.8-4.1,0-4.2C461.8,695.5,461.9,699.7,459,699.8z"/>
		<path class="st2" d="M460.3,611.7c0,3-3.5,3.8-4.6,1.1c-5.9-13.7-6.8-14.6-16.9-21.3c-2.5-1.7-0.7-5.1,2.2-3.7
			C450.8,592.8,457.4,601.5,460.3,611.7z"/>
		<path class="st2" d="M459.1,620.6c2.9,0.2,2.8,4.6,0,4.5C456.3,625,456,620.4,459.1,620.6z"/>
		<path class="st2" d="M306.3,638c0.9-7.9,0.9-17.7,10.5-28.9c3.9-4.5,7.1-0.2,4.3,2c-9.5,7.3-9.6,25.7-10.1,27.4
			C310.2,641.5,306,640.8,306.3,638z"/>
		<path class="st2" d="M309,661.5c-5.6-18.4,3.4-15.8,2.9-12.5c-0.7,3.8,0.3,7.4,1.5,11C314.4,663.2,309.8,664.3,309,661.5z"/>
	</g>
	<g class="st1">
		<path class="st2" d="M-60.9,345.1c-28.6,8.8-47,19.7-52.2,22c-2.6,1.2-5.9-2.5,0.4-5.6c70.2-34.9,42.6-7.9,52-34.7
			c15.7-44.9,70.5-76.2,75-55.4c1.5,6.9-8.3,26.6,1,25.4c11.7-1.6,55.1-23.8,74.2-17.2c7.5,2.6,5.4,10.2-0.8,16.3
			c-8.5,8.3-15.4,9.2-22.3,17.3c22.5,6.3,59.2-6.6,84.7,5.2c15,6.9,10.9,22.4-17.6,25c-32.7,2.9-38.3-0.5-52.3,4.8
			c-6.1,2.3,18.1,4.4,25.6,22.3c2.7,6.4,0.3,12.1-6.6,13.5c-14.4,2.8-43.2-22.6-65.5-19.8c-7.7,1,5,7.6,9.3,16.1
			c4.9,9.8,1.6,17.2-5.6,21c-16.6,8.6-37.5-9-61.5-26.8C-43.2,359.5-56.1,354-60.9,345.1z M-56.2,343.8c8.3,9.4,12.7,9,45.8,34
			c9,6.8,25.2,18.6,36.2,20.5c7.8,1.4,16.7-3,15.6-10.8c-1.2-9.1-10.5-13.8-12.9-18.4c-1.6-3.1-0.9-6.2,1.9-8.3
			c14.5-10.6,57.4,20.4,69,18.3c8-1.4,1.7-11.7-4.7-16.5c-10.4-7.9-25.7-10.2-17.9-17.2c8.7-7.8,34.7-4.1,56.4-6.8
			c19.7-2.5,29.7-10.9,13.5-16.8c-25.2-9.2-69.6,3.2-82.7-4.5c-7.6-4.5,3.7-12.5,11.2-17.1c10.8-6.6,17.4-14.5,12.9-15.9
			c-19.3-6.1-57.8,15.5-72.6,17.3c-7.1,0.9-10.1-6.1-9.1-11.8c2.4-13.1,8.2-22.9-6.5-19.1c-32.6,8.3-55.7,52.5-57.8,65.5
			c-1,6.4-2.5,0.8,41.1-3.3c17.5-1.7,20.4,0.5,40.5-9.5c1.9-6.7,0.7-6.7,0.1-10.3c-0.5-3,3.8-3.8,4.5-0.9c1.1,4.6,0.8,4.5,0.9,7.6
			c8.4-5.5,13.3-13.4,15.8-16.7c1.8-2.4,5.2-0.1,3.5,2.5c-8.5,13-15.5,19-29.5,25.5c17.7-0.3,40.9,0.1,46.6,0.7
			c2.9,0.3,2.7,4.4-0.4,4.3c-0.1,0-58-1.5-95.4,3.2c15.5,4.4,31.2,13.3,41.8,22.5c1.9,1.6,0,5.3-3.2,2.9c-9-6.8-15.6-10.7-22-13.7
			c1.4,2.4,0.6,0.1,5.7,12.7c1,2.4-3.3,5.8-5.3-0.6c-6.6-20.7-15.2-17.8-30-20.9C-45.8,341.4-45.4,341.5-56.2,343.8z"/>
		<path class="st2" d="M80.9,389.2c-2.6-1.7-1-5.6,2.3-4.1c6.8,3,17.7,7.1,25.5,2c0.6-0.4,2.7-2.1,2.9-3c0.9-3.3,5-1.6,4.2,1
			C112.4,396,91.8,396.3,80.9,389.2z"/>
		<path class="st2" d="M92.2,277.2c-8.5-3.1-10.5-5.5-31.3-0.1c-3.2,0.8-4.2-3.2-1.9-4.2c8.5-4.2,26.5-5.3,34.8,0.6
			C95.3,274.5,94.7,277.3,92.2,277.2z"/>
		<path class="st2" d="M159,311.9c6.7,4.6,2.1,7.6-0.3,5.4c-5-5-21.2-7.7-26.4-8.2c-3.5-0.3-3-4.3-0.3-4.7
			C134,304,151.7,307,159,311.9z"/>
		<path class="st2" d="M-63.6,355.2c0.1-3,2.9-3.3,4.1-1.3c9.8,15.7,23.1,16.5,19.6,20.9c-0.9,1.2-2.4,1-3.7,0.2
			C-51.2,370.4-59.9,363.5-63.6,355.2z"/>
		<path class="st2" d="M-30.6,383.9c-3.7-2.4-0.8-5.7,1.7-4.1c10.9,6.8,11.9,6.8,11.5,9C-18.4,392.9-22.8,389-30.6,383.9z"/>
		<path class="st2" d="M121.2,304.4c2.5,0.6,2.2,4-0.3,4.2c-11.2,0.8-11.2,2.2-12.4,0.4c-2.8-4.2,6.6-4.4,11.6-4.9
			C120.1,304.5,120,304.2,121.2,304.4z"/>
		<path class="st2" d="M72.1,385.2c-2.6-1.6-5.2-3.4-7.8-5.1c-1.9-1.3-1.1-3.9,0.6-4.1c1.4-0.2,1.4,0,9.2,5.4
			C76.7,383.3,74.2,386.6,72.1,385.2z"/>
		<path class="st2" d="M47.6,278.3c0.1-2.8,4.8-2.9,4.6,0.1C52.1,281.3,47.4,281.4,47.6,278.3z"/>
		<path class="st2" d="M-8.7,392.3c2.8,0.1,2.6,4.3-0.2,4.2C-11.6,396.3-11.5,392.1-8.7,392.3z"/>
		<path class="st2" d="M-24,298.8c-10.9-0.5,21.4-25.5,23-17.3c0.7,3.3-2,0.6-10.6,7.4C-23.2,298.1-22.6,298.8-24,298.8z"/>
		<path class="st2" d="M-39.6,311c1.6-3.6,8.2-13.8,10.6-9.3c1.1,2.1-0.8,1.6-6.4,10.8C-36.7,314.5-39.8,314.1-39.6,311z"/>
		<path class="st2" d="M74.4,336c-3.1-0.2-2.8-4.8,0.3-4.7C77.7,331.5,77.5,336.2,74.4,336z"/>
	</g>
	<g class="st1">
		<path class="st2" d="M661.2,819.7c-6.2-3.1,17.8-79.4-4.2-119.5c-5.9,27-16.5,41.4-36,54c-14.9,9.6-38.1,19.3-41.7,20.1
			c-16.8,3.4-1.5-52,49-79.1c1.7-0.9,2.4-0.6-10.1,0.4C585,698,555,681.7,512.3,662.8c-11.5-5.1-11-6-13-9.8c0-10,27.5-17.4,37.4-19
			c25.1-4,40-1.1,59.6,7.5c-17.1-27.8-20.5-37.8-32.6-95.9c-0.9-4.3-0.2-8.5,4.2-8.5c6.4,0,28.2,6.2,45.1,17.3
			c16.9,11.1,30.1,25.5,39,43.8c15.1,30.9,12.3,62.2,14,57.7c8.4-22.5,22.5-37.4,35.9-54.7c4-5.2,9.8-13.9,12.2-16.7
			c10.8-12.7,18.9,26.4,9.6,48.3c-13.4,31.7-43.8,49.3-51.3,55.5c12.1-0.9,15-1.4,41.1,7.6c10.9,3.7-9.1,29.2-38.5,15.7
			c-17.7-8.1-9.5-16.4-4.7,19.8c2.9,21.7-0.8,46.5-6,84.9C664.1,818.4,663.2,819.7,661.2,819.7z M634.8,626.4
			c0.7-3.9,0.7-10.5,1-22.8c0.1-3.3,4.1-3.3,4.7-0.4c0.3,1.5-0.1,21.4-2.6,29.9c8,16.6,14.4,33.8,18.8,51.7
			c6.7-8.2,17.2-119.7-86.3-142.6c-0.7-0.2-1.4-0.1-2.3-0.2c0.7,5.3,8.6,43.2,15.1,62.7c17.7,53,53.9,62.4,67.3,76.8
			c0.7,0.7,0.4-0.1,0.1-1c-8.9-28.2-7.4-31.8-35.9-41.4c-2.5-0.8-1.6-4.4,1-4.1c11.7,1.5,21.1,8.4,21.7,8.6
			c-2.4-5.3-10.1-23.2-14.4-26.3c-7.2-5.3-14.5-4.5-17.1-6.3c-2-1.4-0.9-4.7,1.7-4.1c12.7,2.7,12.2,4.4,9.5,0.7
			c-8.6-12-13.4-13.7-14.3-15.7c-0.9-2,1.5-4.2,3.5-2.3C609.6,592.5,619.2,598,634.8,626.4z M638.5,678.7
			c-35.7-25.4-43.8-40.2-79.4-41.5c-21.4-0.8-48.1,7.2-54.3,14.6c-1,1.2,0.9,2.4,2.3,3.1c83.8,43.6,104.5,37.2,134,33.1
			c7.2-1,7.6-0.7,6.1-1.1c-7.4-2.1-3.5,0.1-37.8-14.9c-5.8,3.1-6.5,3.2-15.4,5c-4.4,0.9-4.8-3.8-1.6-4.5c7.7-1.6,9-1.6,11.4-2.7
			c-1.5-0.8-13.8-5.3-24.8-8c-13.4-3.3-21.5-1.3-25.5-1.3c-2.5,0-3-3.4-0.4-4.2c0.5-0.1,5.8-0.7,7.2-0.8c20.2-1.6,28.1,7.3,15.4-4
			c-2.5-2.2,0.3-5.5,2.6-3.5c5.7,4.8,7.6,6.4,10.1,11.3C618,669,642.9,681.8,638.5,678.7z M605.4,747.1c-2.4,1.4-4.6-1.1-2.9-3.3
			c0.8-1.1,11.5-11,13.6-13.4c-3.7-0.3-6.7-0.5-8.7-1.7c-2-1.2-0.8-4.7,2-3.7c3.1,1,3,0.7,9.5,1.1c0.8,0.1,1.4-0.2,1.8-0.9
			c23.1-30.7,26.8-31.8,24.7-31.3c-4.4,1.2-18,3-41.1,25.1c-22.6,21.7-28.5,45.2-26.6,50.7c7.4-2.3,29.9-12,44.7-22.3
			c23-16.1,29.9-42.9,30.3-51.5c0.2-4.1-2-0.6-17.3,17.9c-2.1,2.6,0.6,7.5-4,18.5c-1.4,3.4-5.8,1.7-4.4-1.7
			C636.4,706.7,621.3,737.6,605.4,747.1z M669.3,684.8c28.3-21,59-46.3,53.3-82.6c-0.3-1.7-2.8-14.7-4.5-14.9
			c-30.6,40.6-47.2,56.5-55.8,97.4c32.7-35,16.5-20.4,21-40.7c0.5-2.4,4.4-2,4.1,1c-0.3,3-1,11.5,0.7,9c9.5-14.1,13.7-19.8,16.9-32
			c0.8-3.1,8.8-3.9-0.1,13.9c-3.3,6.6-6.7,10.3,1.5,3.5c3.4-2.8,10.4,3.8-9.1,9.8C681.6,672.6,665.5,687.5,669.3,684.8z
			 M663.2,694.4c-0.1,0.9,14.9,5.2,18.8,5.8c2.2,0.3,2.5,3.6,0.5,4.3c-2.9,1-9.1-1.6-14.7-3.5c18.4,16.7,42,8.7,43.9-0.6
			C690.8,692.8,683.5,691.2,663.2,694.4z"/>
		<path class="st2" d="M591.5,529.5c34.2,2.3,65.7,37.2,59.9,41.3c-4.6,3.3-5.3-10.8-25.6-23.4c-10.5-6.5-22.3-12.7-34.7-13.6
			C587.8,533.6,587.6,529.5,591.5,529.5z"/>
		<path class="st2" d="M740.6,607.7c-0.5,9-6.1,37.2-12.1,33.3c-3.5-2.3,8.2-15.8,7.1-35.8c-0.5-9.2-2.9-20.9-7.6-27.5
			c-1.7-2.4,1.2-4.7,3-3C737.3,580.5,740.2,598.3,740.6,607.7z"/>
		<path class="st2" d="M746.8,628.8c-5,21.9-31.5,45.4-35.1,40.5c-4.1-5.4,18.3-6,31.1-41.6C743.5,625.4,746.9,625.5,746.8,628.8z"
			/>
		<path class="st2" d="M682.3,762.2c-1.8,2.2-4.5,0.7-4.2-1.4c0.7-5.5,0.7-17.2-1-24.3c-0.9-3.8,3.4-4.3,4-1.6
			C682.5,740.4,684.9,759,682.3,762.2z"/>
		<path class="st2" d="M666.1,599.6c0.1,2.9-2.7,3.4-3.8,2c-1.2-1.5-1.2-3.1-4.2-13.2c-0.5-1.5-1.9-4.4-2-4.7
			C655.4,581.5,660.1,572.9,666.1,599.6z"/>
		<path class="st2" d="M677.6,775.4c0.1-2.8,3.9-2.8,4.2-0.4c0.2,1.7-0.1,8.6-1.4,10.4c-1.3,1.7-4.2,0.8-3.8-1.8
			C678.2,773.2,677.5,777.5,677.6,775.4z"/>
		<path class="st2" d="M666.2,613.9c-2.8-0.1-2.8-4.1,0.1-4.1C669.1,609.7,669.1,613.9,666.2,613.9z"/>
		<path class="st2" d="M676.5,800c-2.8,0-2.7-4.2,0-4.1C679.4,795.9,679.3,800,676.5,800z"/>
		<path class="st2" d="M512.9,671.2c2,0.9,8.4,5.7,41.8,20.3c2.5,1.1,2.7,2.8,1.9,3.9c-1.2,1.8-1.8,2.7-35.7-14.6
			c-3-1.6-5.9-3.5-8.8-5.3C509.9,674.2,510.6,671.4,512.9,671.2z"/>
		<path class="st2" d="M584.6,704c-8.8-1.6-13-2.2-17.2-3.4c-3.1-0.9-1.8-4.9,1.1-4.1c4.2,1.2,4.8,0.4,16.8,2.9
			C588.3,700,588,704,584.6,704z"/>
		<path class="st2" d="M598.7,585.7c-3,0-2.6-4.2,0.1-4.3C601.6,581.4,601.7,585.7,598.7,585.7z"/>
		<path class="st2" d="M596.4,750c2.9,0.1,2.6,4.4-0.2,4.3C593.2,754.3,593.5,749.9,596.4,750z"/>
		<path class="st2" d="M706.8,613.8c0.1-2.7,4.2-2.6,4.1,0.1C710.9,616.6,706.7,616.5,706.8,613.8z"/>
		<path class="st2" d="M691.7,701.2c3.1,0,3.1,4.7,0,4.7C688.7,705.9,688.6,701.2,691.7,701.2z"/>
	</g>
	<g class="st1">
		<path class="st2" d="M480.1,291.8c29.1,22.5-7.6,59.8-9.6,49.5c-0.7-3.4,7.5-4.2,13.9-17.4c4-8.2,2.1-20.6-5-27.5
			c-1-1-2.1-1.3-1.9-2.8C477.7,292.3,478.8,291.7,480.1,291.8z"/>
		<path class="st2" d="M578.5,381c-3.4,9.6-13.3,19.1-16.8,20.7c-2.3,1.1-4.3-1.6-2.7-3.5c0.8-0.9,8.1-5.6,13.9-15
			c3.4-5.4-0.2-7.7,2.9-8.5C579,373.8,578.8,378.2,578.5,381z"/>
		<path class="st2" d="M160.6,373.6c3.2-5.3,6.4,1.3,2.8,2.3C161.7,376.3,160.5,374.6,160.6,373.6z"/>
		<path class="st2" d="M410,439c-105.6,42.6-105.3,8-91.2-3.2c17.2-13.7,59.1-18.9,87.1-4.7c5.9,3,3.5,3.2,8.4,1.1
			c36.6-15.6,44.2-19.2,60.8-23.9c0.7-0.2,0.6,0.1,0.3-2.9c-2.5-22.4,10.5-47.8,0.5-44.3c-15.2,5.2-26.5,31.4-26.5,31.5
			c-1.5,2.4-4.6,1.8-5.1-1.1c-1.4-10.1-0.7-6.1-1.6-9.7c-8.2,5-9.8,10.1-12.9,12.7c-2.1,1.8-4.8,0.3-4.6-2.3
			c1.4-19.8,5.5-32.9-0.5-37.6c-4.6-0.4-2.8-6.8,2.1-3.7c9.3,5.9,4.3,23.2,3.9,35.2c8.7-9.4,15.2-13.8,17.4-1.6
			c17.4-32.5,39.1-35.2,36.1-16.7c-1.7,10.1-6.4,27.2-3.9,39.2c67-10,60.3,32.6,35.4,35c-17.2,1.7-32.2-6.8-39.1-29.2
			c-18.7,5.4-49.2,18.6-61.5,24.3c38.4,33.6,3.1,77.8-27.3,65.9c-19.8-7.8-11-36.3,8-27.8c2,0.9,3.1,3.6,1.2,4.9
			c-2,1.3-3.3-0.9-6.1-1.8c-5.8-1.9-12.6,6.4-8.4,14.3c5.2,9.8,21,9.6,31.3,2.6C431.7,482.8,432.6,454.2,410,439z M405,436.1
			c-0.9-1.2-20.7-11.7-51.5-7.9C299.4,434.8,295.4,479.5,405,436.1z M481.1,411.4c2.4,15.2,16.8,28.3,35.7,25.5
			C536.7,434.1,535.2,401,481.1,411.4z"/>
		<path class="st2" d="M263.3,351.8c6.5-8,22.4-27,32.6-28.3c16.2-2,9,29.4,6.8,45.3c-6.2,45.1-1.1,44.1-5.1,44.6
			c-5,0.7,0.8-5.5-12.9-29.8c-5.6-9.9-11.9-18-20.5-25.2c-17.1,22.3-24.6,43.5-35.8,52.8c-9.5,7.9-24.3,7.3-28.4-4.3
			c-3.4-9.7,6.4-25.4,16.6-22.7c2.3,0.6,2.1,3.8-0.4,4c-3.2,0.3-6.3,0.6-8.9,4.4c-5.5,8-4.2,17.9,4.8,18.9
			c19.5,2.3,24.1-23.8,48.1-55.6c1.1-1.4-28.2-23-55.2-12.8c-35.4,13.3-44.3,75.6,0,88.2c33.4,9.5,58-22.3,54.9-41.5
			c0-0.3-2.8-4.8,0.8-5c12.4-0.9-2.5,58.3-48.3,52.7C132.1,427.8,176.2,289.2,263.3,351.8z M267,354.8c32.5,27.5,25.8,55,29.1,27.7
			c3.2-26.6,10.6-57.8-0.7-54.1C286.8,331.3,269.9,350.2,267,354.8z"/>
		<path class="st2" d="M376.6,333.2c-19.6,60.5-13,67.6-11.8,77c0.4,3.1-3.9,3.8-4.5,0.9c-5.6-27.7,2.7-49.4,11.8-78.7
			c0.2-0.7,0.7-0.7-5-2c-11.1-2.5-22.7-4.1-32.9,2c-4.9,2.9-9.3,8.3-8.3,14c0.5,2.7-3.2,3.3-3.9,1.1c-2.8-8.8,6.8-23.8,28.6-23.9
			c8.7,0,15.9,2,23.2,3.8c1.4-3.6,2-5.3,4.3-10.2c1.3-2.7,5.1-1.7,3.6,2c-4.1,10.5-3.2,8-3.7,9.5c7.9,2.5,19.8,5.9,25.3,7.3
			c46.8,12.4,71.5-15,62.4-32.2c-5.7-10.8-25.5-12.4-33.8,2c-6.3,11.1,0,18.5,7.7,18.9c10.6,0.6,15.6-9.6,11.9-13
			c-5-4.6-6.5-2.2-7.1-4.7c-0.4-1.7,1.6-3.7,4.1-2.7c11.4,4.7,10.6,16,3.4,21.1c-12.5,9.1-28.8,1.4-27.1-13.1
			c2-16.7,22.1-28,38.3-17.8c20.5,12.9,7.2,53.2-46.3,48.6C401.9,341.9,382.2,334.4,376.6,333.2z"/>
		<path class="st2" d="M504.2,379.7c4.9-5,12.7-10.1,16.7-4.5c2.7,3.8,8.4,25.2,25.4,18.3c12.8-5.2,18.6-18.1,17.3-24.9
			c-0.9-4.7-3.6-5.7-8.3-8.8c-3.8-2.5-0.5-5.8,2.1-4.1c6.2,3.9,11.1,6.5,11.1,15.6c-0.2,19.2-29.9,40.3-44.5,19.5
			c-6-8.6-5.3-14.2-8.8-13.2c-7,1.9-14.3,14.1-14.8,14.6c-1.7,1.7-4.5,0.3-4-2c1.4-6.5,7.5-23.2,1.9-29.5c-2.1-2.4,0.7-5.2,3.1-2.7
			C508.1,364.7,503.6,379.3,504.2,379.7z"/>
		<path class="st2" d="M343.8,396.4c3.1,3.3-2,5.8-3.7,3.1c-1.6-2.5-1.4-10.6-0.8-13.9c0.8-4.5-3.9,5.9-14.1,14.8
			c-6.7,5.9-15.2-0.7-11.5-18.1c5.5-25.3,12.7-16.5,10.1-14.2c-5.9,5.3-9.8,34.9-1.7,28.7c8-6.1,20.7-26.2,22.2-27.4
			c1.6-1.4,4.2,0,3.8,2.2C347.5,375.6,342.5,381.4,343.8,396.4z"/>
		<path class="st2" d="M396.3,394.6c-5.9,6.5-15.2,7.1-16.8-1.2c-1.4-6.9,1.2-21.5,3.7-26.4c1.3-2.5,4.7-0.7,3.8,1.6
			c-2.3,5.7-3.8,17.1-3,23.6c0.8,5.9,7.6,1.5,11.3-3.2c3.1-3.9,11.3-14.3,15.1-19.5c2.1-2.8,5.6-0.2,3.9,2.5
			c-6.4,11-4.4,23.6-3.6,24.7c2.7,3.6-4.9,8.2-5.4-4.2C404.9,380.3,407.9,381.9,396.3,394.6z"/>
		<path class="st2" d="M222.2,320.4c12.8,1.5,14.7,3.3,23.4,7.8c1.3,0.7,1.7,2,1.1,3c-2.6,4.7-13.1-10.4-37.4-5.1
			c-5.3,1.1-7.3,2-8.3,0.2C198.2,320.9,216.3,320.3,222.2,320.4z"/>
		<path class="st2" d="M446.1,469.6c-1,7.6-6.6,24-11,20.1c-3.9-3.5,14.5-13.7,1.1-39.6c-0.4-0.7-2.5-2.4-0.9-4
			C439.3,441.9,446.2,458.7,446.1,469.6z"/>
		<path class="st2" d="M313.1,424.8c1.4,3.8-4.7,0.5-8.6,13.1c-2.1,6.9-1.2,14.7,2.6,20.9c2,3.2-2.9,5.6-5.1,0.6
			C291.1,435.5,310.8,418.6,313.1,424.8z"/>
		<path class="st2" d="M301.1,298.8c9.7,0.6,17.7,6.8,20.3,22c0.5,3-3.2,3.8-4.3,1.4c-0.4-0.9-1.1-19.4-19-19.2
			c-0.4,0-2.6,1-3.4-0.9C293.1,298.4,299.4,298.8,301.1,298.8z"/>
		<path class="st2" d="M166.8,364.2c-1.5-0.1-2.4-1.6-1.7-3.2c2.6-6,5.9-14.7,14.8-22.6c8.9-7.9,10.8-1.4,8,0
			C172.7,345.6,171.6,364.6,166.8,364.2z"/>
		<path class="st2" d="M330.6,473.8c-22.3-3.1-14.2-9.5-11.9-7.6c2.4,1.9,7.4,2.4,12,3.1c7.4,1,12.2-3.3,13.4,0.1
			C345.8,473.8,334.1,474.3,330.6,473.8z"/>
		<path class="st2" d="M328,320.1c-4.2-0.5,1.1-6.8-3.5-14.1c-0.7-1.1-2.9-2.2-1.7-4C327.4,294.6,335.8,321,328,320.1z"/>
		<path class="st2" d="M446.6,357.5c-4.5-0.3-3.2-6.4-0.1-4.9c1.4,0.7,7.2-1,7.8-1.2c1.9-0.6,4.5-2.4,5.6-2.5
			c1.9-0.2,2.9,2.4,1.4,3.5C457.2,355.6,451.2,357.4,446.6,357.5z"/>
		<path class="st2" d="M432.4,498.9c-1.4,2.9-9.6,12-12.5,10.1c-1.7-1.1-1.4-3.5,0.4-4.1c1.6-0.5,6.4-5,8.3-7.5
			C430,495.6,432.6,496.5,432.4,498.9z"/>
		<path class="st2" d="M536.5,409.5c-5.3-1.6-8.6-1.9-8.3-4.7c0.2-1.5,1.7-2.3,3-1.6c1.9,1.1,3.9,1.6,6.1,2c3.2,0.5,2.6,4.4-0.5,4.1
			C536.5,409.3,536.5,409.3,536.5,409.5z"/>
		<path class="st2" d="M230.2,387c-0.3,2.9-4.6,2.5-4.3-0.1C226.2,384,230.5,384,230.2,387z"/>
		<path class="st2" d="M548.6,404.6c0.3-2.6,4.2-2.2,4,0.5C552.3,407.7,548.3,407.3,548.6,404.6z"/>
		<path class="st2" d="M357.2,466.8c-0.2,2.6-4,2.3-3.9-0.2C353.5,464,357.4,464.3,357.2,466.8z"/>
	</g>
</g>
</svg>
