<svg id="icons" xmlns="http://www.w3.org/2000/svg" viewBox="0 0 64 64"><defs><style>.cls-1{fill:none;stroke:#000;stroke-linecap:round;stroke-linejoin:round;}</style></defs><title>avocado</title><g id="avocado"><path class="cls-1" d="M30.97872,5.792a12.53753,12.53753,0,0,0-17.4498,4.76633c-1.63424,2.90252-1.41915,5.01562-1.75074,9.71322-.38772,5.49288-3.18138,14.60162,1.30675,17.301,4.6842,2.81727,10.77034-4.31123,15.19949-7.37342,3.78788-2.61884,5.67172-3.46956,7.306-6.37208A13.4363,13.4363,0,0,0,30.97872,5.792Z"/><path class="cls-1" d="M21.97329,6.90991a12.94863,12.94863,0,0,0-5.14587,3.47771"/><ellipse class="cls-1" cx="24.98527" cy="16.43677" rx="5.87209" ry="6.06902"/><path class="cls-1" d="M28.32755,18.15073a3.90668,3.90668,0,0,1-5.43735,1.48519"/><path class="cls-1" d="M33.02128,58.208a12.53753,12.53753,0,0,0,17.4498-4.76633c1.63424-2.90252,1.41915-5.01562,1.75074-9.71322.38772-5.49288,3.18138-14.60162-1.30675-17.301-4.6842-2.81727-10.77034,4.31123-15.19949,7.37342-3.78788,2.61884-5.67172,3.46956-7.306,6.37208A13.4363,13.4363,0,0,0,33.02128,58.208Z"/><path class="cls-1" d="M42.02671,57.09009a12.94863,12.94863,0,0,0,5.14587-3.47771"/><ellipse class="cls-1" cx="39.01473" cy="47.56323" rx="5.87209" ry="6.06902"/><path class="cls-1" d="M35.67245,45.84927a3.90668,3.90668,0,0,1,5.43735-1.48519"/></g></svg>