<?xml version="1.0" encoding="utf-8"?>
<!-- Generator: Adobe Illustrator 16.0.0, SVG Export Plug-In . SVG Version: 6.00 Build 0)  -->
<!DOCTYPE svg PUBLIC "-//W3C//DTD SVG 1.0//EN" "http://www.w3.org/TR/2001/REC-SVG-20010904/DTD/svg10.dtd">
<svg version="1.0" id="Layer_1" xmlns="http://www.w3.org/2000/svg" xmlns:xlink="http://www.w3.org/1999/xlink" x="0px" y="0px"
	 width="100px" height="100px" viewBox="0 0 100 100" enable-background="new 0 0 100 100" xml:space="preserve">
<path d="M73.332,10l-20,10h-9.999v-5H30v5H20v20h3.333C27.451,45.117,30,52.19,30,60c0,5.667-0.56,11.335-1.667,16.667
	C27.444,80.95,26.925,85.456,26.748,90h6.667c0.171-4.111,0.648-8.132,1.447-11.979c1.198-5.771,1.805-11.836,1.805-18.021
	c0-7.249-1.875-14.173-5.299-20h11.966v50H50V40h3.333l20,10C82.223,38.955,82.223,21.045,73.332,10z M70.907,41.332l-16.003-7.998
	H26.666v-6.667h28.238l16.003-8.001C74.117,25.596,74.117,34.404,70.907,41.332z"/>
</svg>
