<?xml version="1.0" encoding="utf-8"?>
<!-- Generator: Adobe Illustrator 16.0.0, SVG Export Plug-In . SVG Version: 6.00 Build 0)  -->
<!DOCTYPE svg PUBLIC "-//W3C//DTD SVG 1.0//EN" "http://www.w3.org/TR/2001/REC-SVG-20010904/DTD/svg10.dtd">
<svg version="1.0" id="Layer_1" xmlns="http://www.w3.org/2000/svg" xmlns:xlink="http://www.w3.org/1999/xlink" x="0px" y="0px"
	 width="100px" height="100px" viewBox="0 0 100 100" enable-background="new 0 0 100 100" xml:space="preserve">
<path d="M74.999,10c-3.415,4.118-8.132,6.667-13.333,6.667H39.999c-9.111,0-17.359,3.823-23.333,10h16.667v10h6.666v20L46.666,70v20
	h13.333V36.667h1.667c5.201,0,9.918,2.549,13.333,6.667C86.112,34.127,86.112,19.206,74.999,10z M53.332,68.428l-6.666-13.333
	V36.667h6.666V68.428z M74.511,33.957C70.663,31.374,66.269,30,61.666,30H39.999v-6.667h21.667c4.603,0,8.997-1.374,12.845-3.957
	c1.409,2.261,2.158,4.743,2.158,7.29C76.669,29.214,75.92,31.696,74.511,33.957z"/>
</svg>
