<?xml version="1.0" encoding="utf-8"?>
<!-- Generator: Adobe Illustrator 16.0.0, SVG Export Plug-In . SVG Version: 6.00 Build 0)  -->
<!DOCTYPE svg PUBLIC "-//W3C//DTD SVG 1.0//EN" "http://www.w3.org/TR/2001/REC-SVG-20010904/DTD/svg10.dtd">
<svg version="1.0" id="Layer_1" xmlns="http://www.w3.org/2000/svg" xmlns:xlink="http://www.w3.org/1999/xlink" x="0px" y="0px"
	 width="100px" height="100px" viewBox="0 0 100 100" enable-background="new 0 0 100 100" xml:space="preserve">
<path d="M60,16.667L45.172,30.089c2.478,2.733,3.965,6.268,4.522,9.98H40V30l3.333-6.667L36.667,10L30,23.333L33.333,30v60H40
	V46.597h9.694c-0.557,3.709-2.044,7.248-4.522,9.979L60,70C73.333,55.273,73.333,31.393,60,16.667z M58.991,60.095l-5.107-4.626
	c3.672-7.485,3.672-16.786,0-24.272l5.107-4.625C64.824,36.769,64.824,49.896,58.991,60.095z"/>
</svg>
