<?xml version="1.0" encoding="utf-8"?>
<!-- Generator: Adobe Illustrator 16.0.0, SVG Export Plug-In . SVG Version: 6.00 Build 0)  -->
<!DOCTYPE svg PUBLIC "-//W3C//DTD SVG 1.0//EN" "http://www.w3.org/TR/2001/REC-SVG-20010904/DTD/svg10.dtd">
<svg version="1.0" id="Layer_1" xmlns="http://www.w3.org/2000/svg" xmlns:xlink="http://www.w3.org/1999/xlink" x="0px" y="0px"
	 width="100px" height="100px" viewBox="0 0 100 100" enable-background="new 0 0 100 100" xml:space="preserve">
<path d="M71.816,10.153L47.75,16.509L46.666,10H40l-1.491,8.95l-10.325,2.726c-2.668,0.705-4.851,3.657-4.851,6.563v3.522
	c0,2.907,2.183,5.859,4.851,6.563l7.933,2.095l-2.769,42.928C33.11,87.005,35.916,90,39.585,90h7.498
	c3.666,0,6.472-2.995,6.237-6.653l-2.52-39.05l21.016,5.55c2.666,0.703,4.851-1.097,4.851-4V14.154
	C76.667,11.249,74.482,9.448,71.816,10.153z M40.029,83.333l2.657-41.18l1.315,0.348l2.635,40.832H40.029z M70,42.471L30,31.909
	v-3.815l40-10.566V42.471z"/>
</svg>
