<?xml version="1.0" encoding="utf-8"?>
<!-- Generator: Adobe Illustrator 16.0.0, SVG Export Plug-In . SVG Version: 6.00 Build 0)  -->
<!DOCTYPE svg PUBLIC "-//W3C//DTD SVG 1.0//EN" "http://www.w3.org/TR/2001/REC-SVG-20010904/DTD/svg10.dtd">
<svg version="1.0" id="Layer_1" xmlns="http://www.w3.org/2000/svg" xmlns:xlink="http://www.w3.org/1999/xlink" x="0px" y="0px"
	 width="100px" height="100px" viewBox="0 0 100 100" enable-background="new 0 0 100 100" xml:space="preserve">
<path d="M69.999,10c0,11.046-8.958,20-20,20h-3.333V16.667h-6.667v16.667H34.95l-7.476-7.478L13.333,39.999l14.142,14.142
	l7.476-7.474h5.049v10L36.666,60l3.333,3.333V90h6.667V63.333L49.999,60l-3.333-3.333V50h3.333c11.048,0,20,8.958,20.003,20
	C92.223,53.431,92.223,26.567,69.999,10z M27.475,44.713l-4.715-4.715l4.715-4.714L32.19,40L27.475,44.713z M73.531,57.464
	c-4.496-8.401-13.359-14.13-23.532-14.13h-3.333v-6.667h3.333c10.176,0,19.036-5.728,23.532-14.129
	c4.219,5.303,6.468,11.287,6.468,17.461C79.999,46.175,77.753,52.161,73.531,57.464z"/>
</svg>
