<?xml version="1.0" encoding="utf-8"?>
<!-- Generator: Adobe Illustrator 16.0.0, SVG Export Plug-In . SVG Version: 6.00 Build 0)  -->
<!DOCTYPE svg PUBLIC "-//W3C//DTD SVG 1.0//EN" "http://www.w3.org/TR/2001/REC-SVG-20010904/DTD/svg10.dtd">
<svg version="1.0" id="Layer_1" xmlns="http://www.w3.org/2000/svg" xmlns:xlink="http://www.w3.org/1999/xlink" x="0px" y="0px"
	 width="100px" height="100px" viewBox="0 0 100 100" enable-background="new 0 0 100 100" xml:space="preserve">
<path d="M70,10c0,3.684-2.981,6.666-6.667,6.666H44.131c-9.419,0-17.954,3.824-24.131,10c9.207,0,16.666,7.463,16.666,16.668V70
	l-3.332,6.667V90H50V76.667L46.666,70V50c0-6.449,5.219-11.666,11.667-11.666C64.782,38.334,70,43.551,70,50
	C83.333,38.953,83.333,21.045,70,10z M71.653,37.417c-3.343-3.538-8.079-5.751-13.32-5.751c-6.357,0-11.97,3.254-15.261,8.183
	c-0.895-5.96-4.055-11.191-8.574-14.785c3.041-1.136,6.291-1.729,9.633-1.729h19.202c2.777,0,5.361-0.855,7.497-2.313
	c1.641,2.793,2.503,5.845,2.503,8.978C73.333,32.559,72.757,35.063,71.653,37.417z"/>
</svg>
