<?xml version="1.0" encoding="utf-8"?>
<!-- Generator: Adobe Illustrator 16.0.0, SVG Export Plug-In . SVG Version: 6.00 Build 0)  -->
<!DOCTYPE svg PUBLIC "-//W3C//DTD SVG 1.0//EN" "http://www.w3.org/TR/2001/REC-SVG-20010904/DTD/svg10.dtd">
<svg version="1.0" id="Layer_1" xmlns="http://www.w3.org/2000/svg" xmlns:xlink="http://www.w3.org/1999/xlink" x="0px" y="0px"
	 width="100px" height="100px" viewBox="0 0 100 100" enable-background="new 0 0 100 100" xml:space="preserve">
<path d="M63.333,10c-4.268,4.117-10.162,6.666-16.667,6.666h-3.332v-3.331h-6.668v3.331H30c-1.832,0-3.334,1.502-3.334,3.334v20
	c0,1.832,1.502,3.334,3.334,3.334h6.666v19.999L33.334,70v13.333L36.666,90h6.668l3.332-6.667V70l-3.332-6.667V43.334h3.332
	c6.505,0,12.399,2.549,16.667,6.666C76.667,38.955,76.667,21.045,63.333,10z M62.705,41.138c-4.763-2.911-10.28-4.472-16.039-4.472
	H33.334V23.334h13.332c5.759,0,11.276-1.561,16.039-4.472c2.581,3.345,3.962,7.177,3.962,11.138S65.286,37.793,62.705,41.138z"/>
</svg>
