<?xml version="1.0" encoding="utf-8"?>
<!-- Generator: Adobe Illustrator 16.0.0, SVG Export Plug-In . SVG Version: 6.00 Build 0)  -->
<!DOCTYPE svg PUBLIC "-//W3C//DTD SVG 1.0//EN" "http://www.w3.org/TR/2001/REC-SVG-20010904/DTD/svg10.dtd">
<svg version="1.0" id="Layer_1" xmlns="http://www.w3.org/2000/svg" xmlns:xlink="http://www.w3.org/1999/xlink" x="0px" y="0px"
	 width="100px" height="100px" viewBox="0 0 100 100" enable-background="new 0 0 100 100" xml:space="preserve">
<path d="M77.976,23.334h-41.31V10h-20v80h6.668V43.334H30V90h6.666V43.334H40c13.806,0,25,11.191,25,25
	c0,3.428-0.693,6.693-1.94,9.664l5.629,5.336C84.372,67.098,87.444,42.779,77.976,23.334z M30,16.667v6.667h-6.666v-6.667H30z
	 M23.334,36.667V30H30v6.667H23.334z M71.663,67.807C71.377,50.586,57.285,36.667,40,36.667h-3.334V30H73.61
	C78.379,42.457,77.546,56.258,71.663,67.807z"/>
</svg>
