<?xml version="1.0" encoding="utf-8"?>
<!-- Generator: Adobe Illustrator 16.0.0, SVG Export Plug-In . SVG Version: 6.00 Build 0)  -->
<!DOCTYPE svg PUBLIC "-//W3C//DTD SVG 1.0//EN" "http://www.w3.org/TR/2001/REC-SVG-20010904/DTD/svg10.dtd">
<svg version="1.0" id="Layer_1" xmlns="http://www.w3.org/2000/svg" xmlns:xlink="http://www.w3.org/1999/xlink" x="0px" y="0px"
	 width="100px" height="100px" viewBox="0 0 100 100" enable-background="new 0 0 100 100" xml:space="preserve">
<path d="M53.333,30L80,50V10H20v20h6.667v23.132L23.537,50L20,53.535L26.465,60L20,66.465L23.535,70l3.131-3.132V90h6.667v-6.667H40
	V90h6.667V63.936c2.901,6.39,9.291,10.938,16.667,11.064c-0.11-6.188-3.326-11.692-8.131-15.02c2.945-0.046,5.879-1.14,8.131-3.313
	c-4.605-4.443-12.061-4.443-16.667,0c0.091,0.088,0.202,0.146,0.293,0.23c-0.098-0.01-0.195-0.022-0.293-0.032v-0.198V30H53.333z
	 M40,76.667h-6.667V63.333H40V76.667z M40,56.667h-6.667V50H40V56.667z M40,43.333h-6.667V30H40V43.333z M26.667,23.333v-6.667
	h46.667v20L55.554,23.333H26.667z"/>
</svg>
