<?xml version="1.0" encoding="utf-8"?>
<!-- Generator: Adobe Illustrator 16.0.0, SVG Export Plug-In . SVG Version: 6.00 Build 0)  -->
<!DOCTYPE svg PUBLIC "-//W3C//DTD SVG 1.0//EN" "http://www.w3.org/TR/2001/REC-SVG-20010904/DTD/svg10.dtd">
<svg version="1.0" id="Layer_1" xmlns="http://www.w3.org/2000/svg" xmlns:xlink="http://www.w3.org/1999/xlink" x="0px" y="0px"
	 width="100px" height="100px" viewBox="0 0 100 100" enable-background="new 0 0 100 100" xml:space="preserve">
<path d="M66.628,38.088l4.518-4.517h4.714v-4.714l4.714-9.429l-9.428,4.714h-4.713v4.715l-4.519,4.517
	C56.172,25.752,55.879,15.839,61.716,10c-19.841,0.986-36.726,17.873-37.71,37.714c5.837-5.837,15.75-5.547,23.371,0.198
	l-4.515,4.517l0,0h-4.715v4.714h0.003L18.454,76.836l-6.382,1.094L10,90l12.07-2.07l1.094-6.38l19.699-19.694h4.712v-4.713
	l4.515-4.519c5.749,7.624,6.035,17.532,0.198,23.372C72.129,75.014,89.017,58.125,90,38.285
	C84.167,44.121,74.251,43.833,66.628,38.088z M63.147,66.66c0.439-7.344-2.447-15.254-8.502-21.304
	c-4.877-4.878-11.114-7.891-17.564-8.475c-1.263-0.114-2.503-0.135-3.719-0.065c3.416-7.72,9.772-14.065,17.497-17.479
	c-0.439,7.346,2.448,15.252,8.499,21.304c6.055,6.055,13.959,8.942,21.309,8.499C77.246,56.882,70.886,63.242,63.147,66.66z"/>
</svg>
