<?xml version="1.0" encoding="utf-8"?>
<!-- Generator: Adobe Illustrator 16.0.0, SVG Export Plug-In . SVG Version: 6.00 Build 0)  -->
<!DOCTYPE svg PUBLIC "-//W3C//DTD SVG 1.0//EN" "http://www.w3.org/TR/2001/REC-SVG-20010904/DTD/svg10.dtd">
<svg version="1.0" id="Layer_1" xmlns="http://www.w3.org/2000/svg" xmlns:xlink="http://www.w3.org/1999/xlink" x="0px" y="0px"
	 width="100px" height="100px" viewBox="0 0 100 100" enable-background="new 0 0 100 100" xml:space="preserve">
<path d="M70,30c0-11.045-8.952-20-20-20c-11.045,0-20,8.955-20,20H10v53.334C10,86.999,13.001,90,16.667,90h66.666
	C86.999,90,90,86.999,90,83.334V30H70z M50,16.667c7.366,0,13.333,5.97,13.333,13.333H36.667C36.667,22.637,42.637,16.667,50,16.667
	z M83.333,83.334H16.667V36.667H30v13.334h6.667V36.667h26.666v13.334H70V36.667h13.333V83.334z"/>
</svg>
