<svg xmlns="http://www.w3.org/2000/svg" width="128" height="128" viewBox="0 0 128 128">
  <title>BAND SAW</title>
  <g>
    <g>
      <rect x="23.422" y="73.753" width="81.155" height="52.497" fill="#57555c"/>
      <rect x="31.422" y="91.761" width="65.155" height="34.489" fill="#fedb41"/>
      <polygon points="104.578 27.226 23.422 47.242 23.422 1.75 104.578 1.75 104.578 27.226" fill="#57555c"/>
      <polygon points="23.422 47.241 23.422 73.753 39.125 73.753 39.125 43.369 23.422 47.241" fill="#6e77e5"/>
      <polygon points="83.234 57.907 73.672 60.909 73.672 45.534 83.234 45.534 83.234 57.907" fill="#e5e5e5"/>
      <path d="M62.563,37.588v3.946a4,4,0,0,0,4,4H90.344a4,4,0,0,0,4-4V29.749Z" fill="#6e77e5"/>
      <rect x="46.633" y="105.006" width="34.734" height="8" fill="#fea832"/>
      <polygon points="31.422 9.75 31.422 37.028 40.375 34.82 40.375 9.75 31.422 9.75" fill="#3c3a41"/>
    </g>
    <g>
      <path d="M61.625,72a1.75,1.75,0,1,0,0,3.5H66.5a1.75,1.75,0,0,0,0-3.5Z"/>
      <path d="M72.636,62.319a1.751,1.751,0,0,0,1.56.26l9.562-3a1.75,1.75,0,0,0,1.226-1.67V47.284h5.36a5.757,5.757,0,0,0,5.75-5.75V31.121l8.9-2.2a1.753,1.753,0,0,0,1.331-1.7V1.75A1.75,1.75,0,0,0,104.578,0H23.422a1.75,1.75,0,0,0-1.75,1.75v124.5a1.75,1.75,0,0,0,1.75,1.75h81.156a1.75,1.75,0,0,0,1.75-1.75v-52.5a1.75,1.75,0,0,0-1.75-1.75H79.813a1.75,1.75,0,0,0,0,3.5h23.015v49h-4.5V91.761a1.75,1.75,0,0,0-1.75-1.75H31.422a1.75,1.75,0,0,0-1.75,1.75V124.5h-4.5v-49H48.313a1.75,1.75,0,0,0,0-3.5H40.875V44.739l19.938-4.917v1.712a5.756,5.756,0,0,0,5.75,5.75h5.359V60.909A1.748,1.748,0,0,0,72.636,62.319ZM33.172,93.511H94.828V124.5H33.172ZM81.484,56.622l-6.062,1.9V47.284h6.062ZM25.172,3.5h77.656V25.854L25.172,45.007ZM37.375,72h-12.2V48.612l12.2-3.009ZM64.313,41.534V38.959l6.773-1.671,21.508-5.3v9.55a2.253,2.253,0,0,1-2.25,2.25H66.563A2.253,2.253,0,0,1,64.313,41.534Z"/>
      <path d="M81.367,103.256a1.75,1.75,0,0,0-1.75,1.75v6.25H48.383v-4.5h23.93a1.75,1.75,0,1,0,0-3.5H46.633a1.75,1.75,0,0,0-1.75,1.75v8a1.75,1.75,0,0,0,1.75,1.75H81.367a1.75,1.75,0,0,0,1.75-1.75v-8A1.75,1.75,0,0,0,81.367,103.256Z"/>
      <path d="M40.794,36.52a1.752,1.752,0,0,0,1.331-1.7V9.75A1.75,1.75,0,0,0,40.375,8H31.422a1.75,1.75,0,0,0-1.75,1.75V37.028a1.753,1.753,0,0,0,2.169,1.7ZM33.172,11.5h5.453V33.449l-5.453,1.345Z"/>
    </g>
  </g>
</svg>
