<?xml version="1.0" encoding="utf-8"?>
<!-- Generator: Adobe Illustrator 16.0.0, SVG Export Plug-In . SVG Version: 6.00 Build 0)  -->
<!DOCTYPE svg PUBLIC "-//W3C//DTD SVG 1.0//EN" "http://www.w3.org/TR/2001/REC-SVG-20010904/DTD/svg10.dtd">
<svg version="1.0" id="Layer_1" xmlns="http://www.w3.org/2000/svg" xmlns:xlink="http://www.w3.org/1999/xlink" x="0px" y="0px"
	 width="100px" height="100px" viewBox="0 0 100 100" enable-background="new 0 0 100 100" xml:space="preserve">
<path d="M74.817,56.665c1.146-1.966,1.85-4.226,1.85-6.664h-0.004l0.004-0.003v-10h6.666v-6.667H68.151
	C69.297,31.366,70,29.106,70,26.668h-0.003L70,26.665v-10h6.667V9.999H23.333v6.667H30v10c0,2.441,0.703,4.701,1.849,6.667H16.667
	v6.667h6.666v10c0,2.441,0.703,4.697,1.85,6.667H10v6.667h6.667v13.333c0,7.36,5.97,13.333,13.333,13.333h40v0.004
	c7.36,0,13.333-5.971,13.333-13.334H83.33l0.003-0.003V63.332H90v-6.667H74.817z M36.667,26.665v-10h26.666v10l0.004,0.003h-0.004
	c0,3.668-2.969,6.644-6.634,6.663H43.333C39.651,33.332,36.667,30.347,36.667,26.665z M30,49.999v-10h26.667v0.003
	c0.01,0,0.022-0.003,0.032-0.003H70v10l0.003,0.003H70c0,3.672-2.969,6.644-6.634,6.664H36.667C32.985,56.665,30,53.68,30,49.999z
	 M76.67,76.668h-0.003c0,3.682-2.985,6.667-6.667,6.667v-0.003H30c-3.682,0-6.667-2.985-6.667-6.667V63.332h40v0.003
	c0.01,0,0.023-0.003,0.033-0.003h13.301v13.333L76.67,76.668z"/>
</svg>
