<svg id="icons" xmlns="http://www.w3.org/2000/svg" viewBox="0 0 64 64"><defs><style>.cls-1{fill:none;stroke:#000;stroke-linecap:round;stroke-linejoin:round;}</style></defs><title>beans</title><g id="beans"><path class="cls-1" d="M39.39211,31.49612a8.5186,8.5186,0,0,1-.94609,4.1124v.00967c-.55992,1.02326-1.20669,2.24922-1.96929,3.56214-3.72624,6.40028-10.23276,15.127-23.33252,15.79313h-.029a8.6249,8.6249,0,0,1-8.7654-6.17827A8.72508,8.72508,0,0,1,8.73255,38.55283c.00966,0,.00966,0,.01927-.00966a8.72411,8.72411,0,0,1,1.31292-.5406,23.61137,23.61137,0,0,0,4.73018-1.892c.04826-.01932.08691-.04831.13517-.06758a23.92135,23.92135,0,0,0,8.54333-8.60131A9.66336,9.66336,0,0,1,26.022,24.37182a.00946.00946,0,0,0,.00966-.00966V24.3525l.00967-.00961c.02893-.01932.06758-.03865.09651-.05792a8.68985,8.68985,0,0,1,13.25431,7.21115Z"/><path class="cls-1" d="M22.95837,33.30553A15.77365,15.77365,0,0,1,14.103,39.87329"/><path class="cls-1" d="M7.22511,49.46489s.49831,2.31605,5.01337,3.77834"/><path class="cls-1" d="M59.27831,39.31544a9.11018,9.11018,0,0,1-9.9431,5.46392h-.029a26.85108,26.85108,0,0,1-12.82949-5.599c.7626-1.31292,1.40937-2.53888,1.96929-3.56214v-.00967a8.5186,8.5186,0,0,0,.94609-4.1124A8.68985,8.68985,0,0,0,26.1378,24.285c-.43442-1.04259-.82053-1.99828-1.168-2.84779v-.00967a8.99162,8.99162,0,0,1-.502-4.44065,9.19448,9.19448,0,0,1,14.876-5.94653l.00966.00966v.00966a.02972.02972,0,0,0,.00967.01927A10.04011,10.04011,0,0,1,41.68,14.61214,25.31217,25.31217,0,0,0,49.6634,24.65175a1.42359,1.42359,0,0,0,.1255.09657,26.18972,26.18972,0,0,0,4.75917,2.54854,9.58031,9.58031,0,0,1,1.31292.71435l.01927.01927A9.22822,9.22822,0,0,1,59.27831,39.31544Z"/><path class="cls-1" d="M41.53453,20.832a16.6952,16.6952,0,0,0,8.54109,7.95118"/><path class="cls-1" d="M56.18052,39.682s-.79691,2.37746-5.71828,3.38384"/></g></svg>