<svg id="Filled_stroke_cut_Ex" data-name="Filled stroke cut Ex" xmlns="http://www.w3.org/2000/svg" width="512" height="512" viewBox="0 0 512 512">
  <title>bed- patient- hospital- clinic- medical- service</title>
  <g>
    <g>
      <path d="M460,192a20,20,0,0,0-20,20v76H72V212a20,20,0,0,0-20-20H24V300a20,20,0,0,0,20,20H468a20,20,0,0,0,20-20V192Z" style="fill: #31cad0"/>
      <circle cx="80" cy="464" r="24" style="fill: #fdbf44"/>
      <circle cx="432" cy="464" r="24" style="fill: #fdbf44"/>
      <path d="M44,408H468a20,20,0,0,1,20,20v12a0,0,0,0,1,0,0H24a0,0,0,0,1,0,0V428A20,20,0,0,1,44,408Z" style="fill: #31cad0"/>
      <path d="M264,288H72V216H204a60,60,0,0,1,60,60Z" style="fill: #d6f4f6"/>
      <polygon points="144 408 104 408 154.807 320 194.807 320 144 408" style="fill: #57cee6"/>
      <path d="M144,288h64a0,0,0,0,1,0,0v18a30,30,0,0,1-30,30h-4a30,30,0,0,1-30-30V288A0,0,0,0,1,144,288Z" style="fill: #fdbf44"/>
      <g>
        <polygon points="368 408 408 408 357.193 320 317.193 320 368 408" style="fill: #57cee6"/>
        <path d="M334,288h4a30,30,0,0,1,30,30v18a0,0,0,0,1,0,0H304a0,0,0,0,1,0,0V318A30,30,0,0,1,334,288Z" transform="translate(672 624) rotate(-180)" style="fill: #fdbf44"/>
      </g>
    </g>
    <rect x="264" y="64" width="64" height="88" rx="10" ry="10" transform="translate(592 216) rotate(-180)" style="fill: #e64b30"/>
  </g>
  <path d="M332,240h88a20,20,0,0,1,20,20v28a0,0,0,0,1,0,0H312a0,0,0,0,1,0,0V260A20,20,0,0,1,332,240Z" style="fill: #d6f4f6"/>
  <g>
    <rect x="96" y="240" width="56" height="16"/>
    <rect x="168" y="240" width="56" height="16"/>
    <path d="M496,216V192a8,8,0,0,0-8-8H460a28.032,28.032,0,0,0-28,28v22.7a27.836,27.836,0,0,0-12-2.7H400V160h16V144H400V44a28.032,28.032,0,0,0-28-28H316a28.032,28.032,0,0,0-28,28V56H274a18.021,18.021,0,0,0-18,18v68a18.026,18.026,0,0,0,16,17.889V168h16v-8h16v8h16v-8.111A18.026,18.026,0,0,0,336,142V74a18.021,18.021,0,0,0-18-18H304V44a12.013,12.013,0,0,1,12-12h56a12.013,12.013,0,0,1,12,12V144H368v16h16v72H332a28.032,28.032,0,0,0-28,28v20H272v-4a68.077,68.077,0,0,0-68-68H79.715A28.044,28.044,0,0,0,52,184H24a8,8,0,0,0-8,8V300a28.032,28.032,0,0,0,28,28h96.951L99.382,400H44a28.032,28.032,0,0,0-28,28v12a8,8,0,0,0,8,8H52.3a32,32,0,1,0,55.41,0h19.882V432H32v-4a12.013,12.013,0,0,1,12-12H468a12.013,12.013,0,0,1,12,12v4H144v16H404.3a32,32,0,1,0,55.41,0H488a8,8,0,0,0,8-8V428a28.032,28.032,0,0,0-28-28H412.618l-41.569-72H468a28.032,28.032,0,0,0,28-28V232H480v48H448V212a12.013,12.013,0,0,1,12-12h20v16ZM320,74v68a2,2,0,0,1-2,2H274a2,2,0,0,1-2-2V74a2,2,0,0,1,2-2h44A2,2,0,0,1,320,74ZM96,464a16,16,0,1,1-16-16A16.019,16.019,0,0,1,96,464Zm352,0a16,16,0,1,1-16-16A16.019,16.019,0,0,1,448,464ZM360,306a22.025,22.025,0,0,1-22,22h-4a22.025,22.025,0,0,1-22-22V296h48Zm-208,0V296h48v10a22.025,22.025,0,0,1-22,22h-4A22.025,22.025,0,0,1,152,306Zm144-10v10a38.172,38.172,0,0,0,.474,6H215.526a38.172,38.172,0,0,0,.474-6V296ZM191.652,341.464A38.209,38.209,0,0,0,208.968,328h94.064a38.209,38.209,0,0,0,17.316,13.464L354.144,400H157.856ZM256,276v4H80V224H204A52.059,52.059,0,0,1,256,276ZM32,200H52a12.013,12.013,0,0,1,12,12v68H32Zm0,100v-4H136v10a38.172,38.172,0,0,0,.474,6H44A12.013,12.013,0,0,1,32,300Zm85.856,100,35.762-61.941a37.761,37.761,0,0,0,18.134,5.875L139.381,400Zm254.763,0-32.371-56.066a37.761,37.761,0,0,0,18.134-5.875L394.144,400ZM480,296v4a12.013,12.013,0,0,1-12,12H375.526a38.172,38.172,0,0,0,.474-6V296ZM320,280V260a12.013,12.013,0,0,1,12-12h88a12.013,12.013,0,0,1,12,12v20Z"/>
    <polygon points="288 120 304 120 304 112 312 112 312 96 304 96 304 88 288 88 288 96 280 96 280 112 288 112 288 120"/>
  </g>
</svg>
