<svg xmlns="http://www.w3.org/2000/svg" viewBox="0 0 64 64"><g id="_14-Doctor" data-name="14-Doctor"><rect x="3" y="50" width="6" height="4" style="fill:#897cac"/><rect x="55" y="50" width="6" height="4" style="fill:#897cac"/><polygon points="63 44 63 50 61 50 55 50 9 50 3 50 1 50 1 44 3 44 61 44 63 44" style="fill:#aeacd5"/><polygon points="63 47 63 50 61 50 55 50 9 50 3 50 1 50 1 47 3 47 61 47 63 47" style="fill:#9891c3"/><path d="M61,40v4H3V40a2.006,2.006,0,0,1,2-2H59A2.006,2.006,0,0,1,61,40Z" style="fill:#fcbcc5"/><path d="M5,42a2.006,2.006,0,0,1,2-2H61a2.006,2.006,0,0,0-2-2H5a2.006,2.006,0,0,0-2,2v4H5Z" style="fill:#fcacbc"/><rect x="35" y="28" width="20" height="10" rx="2" style="fill:#9891c3"/><path d="M41,35a2.006,2.006,0,0,1-2-2V28H37a2.006,2.006,0,0,0-2,2v6a2.006,2.006,0,0,0,2,2H53a2.006,2.006,0,0,0,2-2V35Z" style="fill:#897cac"/><rect x="9" y="28" width="20" height="10" rx="2" style="fill:#9891c3"/><path d="M55,18V30a2.006,2.006,0,0,0-2-2H37a2.006,2.006,0,0,0-2,2v6a2.006,2.006,0,0,0,2,2H27a2.006,2.006,0,0,0,2-2V30a2.006,2.006,0,0,0-2-2H11a2.006,2.006,0,0,0-2,2V18a1,1,0,0,1,1-1h6s0,5,9,5l.06-.03a7.991,7.991,0,0,0,13.88,0L39,22c9,0,9-5,9-5h6A1,1,0,0,1,55,18Z" style="fill:#d1d1e7"/><path d="M9,36a2.006,2.006,0,0,0,2,2H5V15a2.006,2.006,0,0,1,2-2h8c4,0,3,5,9,5a7.954,7.954,0,0,0,1.06,3.97L25,22c-9,0-9-5-9-5H10a1,1,0,0,0-1,1V36Z" style="fill:#f45b7d"/><path d="M59,15V38H53a2.006,2.006,0,0,0,2-2V18a1,1,0,0,0-1-1H48s0,5-9,5l-.06-.03A7.954,7.954,0,0,0,40,18c6,0,5-5,9-5h8A2.006,2.006,0,0,1,59,15Z" style="fill:#f45b7d"/><path d="M36.14,19.38a2.341,2.341,0,0,0,0-3.63,3.232,3.232,0,0,0-4.14,0,3.232,3.232,0,0,0-4.14,0,2.341,2.341,0,0,0,0,3.63L32,23ZM32,10a7.992,7.992,0,1,1-8,8A8,8,0,0,1,32,10Z" style="fill:#fbdbe0"/><path d="M27.86,19.38a2.341,2.341,0,0,1,0-3.63,2.974,2.974,0,0,1,1.07-.589,3.231,3.231,0,0,0-3.07.589,2.341,2.341,0,0,0,0,3.63L30,23l1-.874Z" style="fill:#fcbcc5"/><path d="M32,10a8.047,8.047,0,0,0-1,.069,7.994,7.994,0,0,1,0,15.863,7.927,7.927,0,0,0,7.94-3.962A7.992,7.992,0,0,0,32,10Z" style="fill:#fcbcc5"/><path d="M31,15.179a2.971,2.971,0,0,1,1,.571,2.974,2.974,0,0,1,1.07-.589A3.336,3.336,0,0,0,31,15.179Z" style="fill:#fcbcc5"/><path d="M36.14,15.75a2.341,2.341,0,0,1,0,3.63L32,23l-4.14-3.62a2.341,2.341,0,0,1,0-3.63,3.232,3.232,0,0,1,4.14,0A3.232,3.232,0,0,1,36.14,15.75Z" style="fill:#f45b7d"/><path d="M36.14,15.75a3.231,3.231,0,0,0-3.07-.589,2.974,2.974,0,0,1,1.07.589,2.341,2.341,0,0,1,0,3.63L31,22.126,32,23l4.14-3.62A2.341,2.341,0,0,0,36.14,15.75Z" style="fill:#d83a5c"/><path d="M15,35a2.006,2.006,0,0,1-2-2V28H11a2.006,2.006,0,0,0-2,2v6a2.006,2.006,0,0,0,2,2H27a2.006,2.006,0,0,0,2-2V35Z" style="fill:#897cac"/><path d="M61,45H3a1,1,0,0,1-1-1V40a3,3,0,0,1,3-3H59a3,3,0,0,1,3,3v4A1,1,0,0,1,61,45ZM4,43H60V40a1,1,0,0,0-1-1H5a1,1,0,0,0-1,1Z"/><path d="M63,51H1a1,1,0,0,1-1-1V44a1,1,0,0,1,1-1H63a1,1,0,0,1,1,1v6A1,1,0,0,1,63,51ZM2,49H62V45H2Z"/><path d="M9,55H3a1,1,0,0,1-1-1V50a1,1,0,0,1,1-1H9a1,1,0,0,1,1,1v4A1,1,0,0,1,9,55ZM4,53H8V51H4Z"/><path d="M61,55H55a1,1,0,0,1-1-1V50a1,1,0,0,1,1-1h6a1,1,0,0,1,1,1v4A1,1,0,0,1,61,55Zm-5-2h4V51H56Z"/><path d="M6,38H4V15a3,3,0,0,1,3-3h8c2.286,0,3.325,1.332,4.242,2.507A5.147,5.147,0,0,0,24,17v2a7.027,7.027,0,0,1-6.335-3.263C16.774,14.6,16.251,14,15,14H7a1,1,0,0,0-1,1Z"/><path d="M60,38H58V15a1,1,0,0,0-1-1H49c-1.251,0-1.774.6-2.665,1.737A7.027,7.027,0,0,1,40,19V17a5.147,5.147,0,0,0,4.758-2.493C45.675,13.332,46.714,12,49,12h8a3,3,0,0,1,3,3Z"/><path d="M32,27a9,9,0,1,1,9-9A9.011,9.011,0,0,1,32,27Zm0-16a7,7,0,1,0,7,7A7.008,7.008,0,0,0,32,11Z"/><path d="M32,24a1,1,0,0,1-.659-.248L27.2,20.128a3.343,3.343,0,0,1,0-5.13,4.229,4.229,0,0,1,4.8-.467A4.23,4.23,0,0,1,36.8,15h0a3.343,3.343,0,0,1,0,5.13l-4.142,3.624A1,1,0,0,1,32,24Zm-2.071-8a2.146,2.146,0,0,0-1.412.5,1.345,1.345,0,0,0,0,2.12L32,21.671l3.483-3.048a1.345,1.345,0,0,0,0-2.12h0a2.239,2.239,0,0,0-2.825,0,1,1,0,0,1-1.316,0A2.152,2.152,0,0,0,29.929,16Z"/><path d="M27,39H11a3,3,0,0,1-3-3V30a3,3,0,0,1,3-3H27a3,3,0,0,1,3,3v6A3,3,0,0,1,27,39ZM11,29a1,1,0,0,0-1,1v6a1,1,0,0,0,1,1H27a1,1,0,0,0,1-1V30a1,1,0,0,0-1-1Z"/><path d="M53,39H37a3,3,0,0,1-3-3V30a3,3,0,0,1,3-3H53a3,3,0,0,1,3,3v6A3,3,0,0,1,53,39ZM37,29a1,1,0,0,0-1,1v6a1,1,0,0,0,1,1H53a1,1,0,0,0,1-1V30a1,1,0,0,0-1-1Z"/><path d="M10,30H8V18a2,2,0,0,1,2-2h6a1,1,0,0,1,1,1c0,.149.213,4,8,4v2c-7.474,0-9.363-3.289-9.839-5H10Z"/><path d="M56,30H54V18H48.839c-.476,1.711-2.365,5-9.839,5V21c7.787,0,7.995-3.851,8-4.015A1.015,1.015,0,0,1,48,16h6a2,2,0,0,1,2,2Z"/></g></svg>