<svg id="icons" xmlns="http://www.w3.org/2000/svg" viewBox="0 0 64 64"><defs><style>.cls-1{fill:none;stroke:#000;stroke-linecap:round;stroke-linejoin:round;}</style></defs><title>bell_pepper</title><g id="bell_pepper" data-name="bell pepper"><path class="cls-1" d="M44.76471,28.70321c0,9.53824-3.20635,22.74652-7.80405,28.897A5.66942,5.66942,0,0,1,31.7883,60c-1.75443,0-3.42813-.15138-4.96072-2.11751-4.70859-6.01933-8.01574-19.48984-8.01574-29.17928S22.119,16.71489,26.82758,16.17045a43.43567,43.43567,0,0,1,4.96072-.17139,42.00368,42.00368,0,0,1,5.15224.19157h.03021C41.55836,16.78548,44.76471,19.165,44.76471,28.70321Z"/><path class="cls-1" d="M18.81184,28.70321c0,9.68944,3.30715,23.16,8.01574,29.17928C25.29505,59.84862,23.6213,60,21.85683,60,14.68806,60,8.88042,44.56331,8.88042,31.728s5.80764-15.72895,12.97641-15.72895a43.53035,43.53035,0,0,1,4.97075.17139C22.119,16.71489,18.81184,19.01377,18.81184,28.70321Z"/><path class="cls-1" d="M55.11958,31.728c0,12.8353-5.80764,28.272-12.97641,28.272a5.67633,5.67633,0,0,1-5.18251-2.39979c4.5977-6.15048,7.80405-19.35876,7.80405-28.897s-3.20635-11.91773-7.794-12.51258a42.33969,42.33969,0,0,1,5.17242-.19157C49.31194,15.99906,55.11958,18.89278,55.11958,31.728Z"/><path class="cls-1" d="M30.5216,16.00028V10.23935A6.305,6.305,0,0,1,34.95688,4.155q.181-.05325.37157-.10382A1.51582,1.51582,0,0,1,37.2329,5.50956v.00077a1.51923,1.51923,0,0,1-1.52,1.51926h0a1.83474,1.83474,0,0,0-1.83566,1.83474V15.999Z"/><path class="cls-1" d="M26.82758,19.11335s-4.90974-.24643-4.90974,6.03738"/><path class="cls-1" d="M38.79789,46.46641a23.81093,23.81093,0,0,1-5.1133,10.58192"/></g></svg>