<svg xmlns="http://www.w3.org/2000/svg" width="128" height="128" viewBox="0 0 128 128">
  <title>BENCH</title>
  <g>
    <g>
      <rect x="1.75" y="74.25" width="124.5" height="18.034" rx="4" fill="#896748"/>
      <rect x="12.062" y="92.284" width="16.639" height="24.645" fill="#fedb41"/>
      <rect x="99.298" y="92.284" width="16.639" height="24.645" fill="#fedb41"/>
      <rect x="12.53" y="18.12" width="102.94" height="21.47" fill="#73553a"/>
      <rect x="12.53" y="39.59" width="102.94" height="21.47" fill="#896748"/>
      <rect x="28.702" y="61.063" width="11.423" height="13.188" fill="#fedb41"/>
      <rect x="87.875" y="61.063" width="11.423" height="13.188" transform="translate(187.173 135.313) rotate(180)" fill="#fedb41"/>
      <path d="M36.16,31.44a1.752,1.752,0,0,1-1.75,1.75H12.53v-3.5H34.41A1.746,1.746,0,0,1,36.16,31.44Z" fill="#5d452f"/>
      <path d="M80.5,26.813H43.187a1.75,1.75,0,0,1,0-3.5H80.5a1.75,1.75,0,0,1,0,3.5Z" fill="#5d452f"/>
      <path d="M115.47,28.56v3.5H89.12a1.75,1.75,0,0,1,0-3.5Z" fill="#5d452f"/>
      <path d="M36.16,53.52a1.752,1.752,0,0,1-1.75,1.75H12.53v-3.5H34.41A1.746,1.746,0,0,1,36.16,53.52Z" fill="#73553a"/>
      <path d="M80.5,48.891H43.187a1.75,1.75,0,0,1,0-3.5H80.5a1.75,1.75,0,0,1,0,3.5Z" fill="#73553a"/>
      <path d="M115.47,50.64v3.5H89.12a1.75,1.75,0,0,1,0-3.5Z" fill="#73553a"/>
      <path d="M28.7,86.5a1.75,1.75,0,0,0,0-3.5H1.75v3.5Z" fill="#73553a"/>
      <path d="M64,83.625H51.625a1.75,1.75,0,0,1,0-3.5H64a1.75,1.75,0,0,1,0,3.5Z" fill="#73553a"/>
      <path d="M110.5,86.5H89.125a1.75,1.75,0,0,1,0-3.5H110.5a1.75,1.75,0,0,1,0,3.5Z" fill="#73553a"/>
    </g>
    <g>
      <path d="M122.25,72.5h-21.2V62.813h14.421a1.751,1.751,0,0,0,1.75-1.75V18.125a1.751,1.751,0,0,0-1.75-1.75H12.531a1.75,1.75,0,0,0-1.75,1.75V61.063a1.75,1.75,0,0,0,1.75,1.75H26.952V72.5H5.75A5.757,5.757,0,0,0,0,78.25V88.284a5.756,5.756,0,0,0,5.75,5.75h4.562v22.9a1.751,1.751,0,0,0,1.75,1.75H28.7a1.75,1.75,0,0,0,1.75-1.75v-22.9h67.1v22.9a1.75,1.75,0,0,0,1.75,1.75h16.639a1.75,1.75,0,0,0,1.75-1.75v-6.055a1.75,1.75,0,0,0-3.5,0v4.305H101.048V94.034h13.139v6.591a1.75,1.75,0,0,0,3.5,0V94.034h4.563a5.756,5.756,0,0,0,5.75-5.75V78.25A5.757,5.757,0,0,0,122.25,72.5Zm-24.7,0H89.625V62.813h7.923Zm16.171-52.625v8.688H89.125a1.75,1.75,0,1,0,0,3.5h24.594v5.781H14.281V33.188H34.413a1.75,1.75,0,0,0,0-3.5H14.281V19.875ZM14.281,55.266H34.413a1.75,1.75,0,0,0,0-3.5H14.281V41.344h99.438v9.3H89.125a1.75,1.75,0,0,0,0,3.5h24.594v5.172H78.5a1.75,1.75,0,0,0,0,3.5h7.625V72.5H41.875V62.813H47.75a1.75,1.75,0,0,0,0-3.5H14.281Zm16.171,7.547h7.923V72.5H30.452Zm-3.5,52.367H13.812V94.034h13.14Zm97.548-26.9a2.253,2.253,0,0,1-2.25,2.25H5.75a2.253,2.253,0,0,1-2.25-2.25V86.5H28.7a1.75,1.75,0,0,0,0-3.5H3.5V78.25A2.253,2.253,0,0,1,5.75,76h116.5a2.253,2.253,0,0,1,2.25,2.25Z"/>
      <path d="M65.75,59.313H60.5a1.75,1.75,0,0,0,0,3.5h5.25a1.75,1.75,0,0,0,0-3.5Z"/>
      <path d="M43.187,26.813H80.5a1.75,1.75,0,0,0,0-3.5H43.187a1.75,1.75,0,0,0,0,3.5Z"/>
      <path d="M43.187,48.891H80.5a1.75,1.75,0,0,0,0-3.5H43.187a1.75,1.75,0,0,0,0,3.5Z"/>
      <path d="M64,80.125H51.625a1.75,1.75,0,0,0,0,3.5H64a1.75,1.75,0,0,0,0-3.5Z"/>
      <path d="M110.5,83H89.125a1.75,1.75,0,0,0,0,3.5H110.5a1.75,1.75,0,0,0,0-3.5Z"/>
    </g>
  </g>
</svg>
