<svg xmlns="http://www.w3.org/2000/svg" viewBox="0 0 64 64"><g id="_26-Bible" data-name="26-Bible"><polygon points="28 59 28 63 24 60 20 63 20 59 20 56 28 56 28 59" style="fill:#ea5073"/><rect x="19" y="34" width="26" height="14" style="fill:#bfbfdd"/><path d="M41,34h0A10,10,0,0,1,31,44H19v4H45V34Z" style="fill:#aeacd5"/><path d="M54,14.14a3.2,3.2,0,0,1,3,.61,3.232,3.232,0,0,1,4.14,0,2.341,2.341,0,0,1,0,3.63L57,22l-3-2.62-1.14-1a2.341,2.341,0,0,1,0-3.63A2.933,2.933,0,0,1,54,14.14Z" style="fill:#ea5073"/><path d="M61.14,14.75a3.231,3.231,0,0,0-3.07-.589,2.974,2.974,0,0,1,1.07.589,2.341,2.341,0,0,1,0,3.63L56,21.126,57,22l4.14-3.62A2.341,2.341,0,0,0,61.14,14.75Z" style="fill:#d83a5c"/><path d="M54,29.5,50,33l-4.14-3.62a2.341,2.341,0,0,1,0-3.63,3.232,3.232,0,0,1,4.14,0,3.231,3.231,0,0,1,4-.11,1.344,1.344,0,0,1,.14.11,2.341,2.341,0,0,1,0,3.63Z" style="fill:#ea5073"/><path d="M54,29.5V57a2.006,2.006,0,0,1-2,2H50V33Z" style="fill:#897cac"/><path d="M54,19.38v6.26a3.231,3.231,0,0,0-4,.11V3h2a2.006,2.006,0,0,1,2,2v9.14a2.933,2.933,0,0,0-1.14.61,2.341,2.341,0,0,0,0,3.63Z" style="fill:#897cac"/><rect x="28" y="56" width="22" height="3" style="fill:#9891c3"/><path d="M50,53v3H14a4,4,0,0,1-4-4V49a4,4,0,0,0,4,4Z" style="fill:#aeacd5"/><path d="M50,33V53H14V1H50V25.75a3.232,3.232,0,0,0-4.14,0,2.341,2.341,0,0,0,0,3.63ZM45,48V34H19V48ZM40,15V11H34V6H30v5H24v4h6V26h4V15Z" style="fill:#fcbcc5"/><polygon points="40 11 40 15 34 15 34 26 30 26 30 15 24 15 24 11 30 11 30 6 34 6 34 11 40 11" style="fill:#ea5073"/><rect x="32" y="6" width="2" height="5" style="fill:#d83a5c"/><rect x="32" y="15" width="2" height="11" style="fill:#d83a5c"/><rect x="38" y="11" width="2" height="4" style="fill:#d83a5c"/><path d="M20,56v3H14a4,4,0,0,1-4-4V52a4,4,0,0,0,4,4Z" style="fill:#9891c3"/><path d="M14,1V53a4,4,0,0,1-4-4V5A4,4,0,0,1,14,1Z" style="fill:#f45b7d"/><path d="M54.14,25.75a3.231,3.231,0,0,0-3.07-.589,2.974,2.974,0,0,1,1.07.589,2.341,2.341,0,0,1,0,3.63L49,32.126,50,33l4.14-3.62A2.341,2.341,0,0,0,54.14,25.75Z" style="fill:#d83a5c"/><path d="M50,54H14a5.006,5.006,0,0,1-5-5V5a5.006,5.006,0,0,1,5-5H50a1,1,0,0,1,1,1V26H49V2H14a3,3,0,0,0-3,3V49a3,3,0,0,0,3,3H50Z"/><path d="M20,60H14a5.006,5.006,0,0,1-5-5V49h2v6a3,3,0,0,0,3,3h6Z"/><path d="M50,57H14a5.006,5.006,0,0,1-5-5h2a3,3,0,0,0,3,3H49V33h2V56A1,1,0,0,1,50,57Z"/><path d="M28,64a1,1,0,0,1-.6-.2L24,61.25,20.6,63.8A1,1,0,0,1,19,63V56h2v5l2.4-1.8a1,1,0,0,1,1.2,0L27,61V56h2v7a1,1,0,0,1-1,1Z"/><path d="M55,15H53V5a1,1,0,0,0-1-1H50V2h2a3,3,0,0,1,3,3Z"/><path d="M52,60H28V58H52a1,1,0,0,0,1-1V29h2V57A3,3,0,0,1,52,60Z"/><rect x="49" y="56" width="2" height="3"/><rect x="13" y="1" width="2" height="52"/><path d="M34,27H30a1,1,0,0,1-1-1V16H24a1,1,0,0,1-1-1V11a1,1,0,0,1,1-1h5V6a1,1,0,0,1,1-1h4a1,1,0,0,1,1,1v4h5a1,1,0,0,1,1,1v4a1,1,0,0,1-1,1H35V26A1,1,0,0,1,34,27Zm-3-2h2V15a1,1,0,0,1,1-1h5V12H34a1,1,0,0,1-1-1V7H31v4a1,1,0,0,1-1,1H25v2h5a1,1,0,0,1,1,1Z"/><path d="M45,49H19a1,1,0,0,1-1-1V34a1,1,0,0,1,1-1H45a1,1,0,0,1,1,1V48A1,1,0,0,1,45,49ZM20,47H44V35H20Z"/><path d="M50,34a1,1,0,0,1-.659-.247L45.2,30.128a3.343,3.343,0,0,1,0-5.13,4.226,4.226,0,0,1,4.8-.466A4.226,4.226,0,0,1,54.8,25h0a3.343,3.343,0,0,1,0,5.13l-4.142,3.625A1,1,0,0,1,50,34Zm-2.071-8a2.141,2.141,0,0,0-1.412.5,1.343,1.343,0,0,0,0,2.118L50,31.671l3.483-3.049a1.343,1.343,0,0,0,0-2.118h0a2.238,2.238,0,0,0-2.824,0,1,1,0,0,1-1.318,0A2.15,2.15,0,0,0,47.929,26Z"/><path d="M57,23a1,1,0,0,1-.659-.247L52.2,19.128a3.343,3.343,0,0,1,0-5.13,4.228,4.228,0,0,1,4.8-.466A4.228,4.228,0,0,1,61.8,14h0a3.343,3.343,0,0,1,0,5.13l-4.142,3.625A1,1,0,0,1,57,23Zm-2.071-8a2.141,2.141,0,0,0-1.412.5,1.343,1.343,0,0,0,0,2.118L57,20.671l3.483-3.049a1.343,1.343,0,0,0,0-2.118h0a2.236,2.236,0,0,0-2.824,0,1,1,0,0,1-1.318,0A2.15,2.15,0,0,0,54.929,15Z"/><rect x="53" y="19" width="2" height="7"/><rect x="22" y="38" width="2" height="2"/><rect x="26" y="38" width="16" height="2"/><rect x="22" y="42" width="20" height="2"/></g></svg>