<?xml version="1.0" encoding="utf-8"?>
<!-- Generator: Adobe Illustrator 16.0.0, SVG Export Plug-In . SVG Version: 6.00 Build 0)  -->
<!DOCTYPE svg PUBLIC "-//W3C//DTD SVG 1.0//EN" "http://www.w3.org/TR/2001/REC-SVG-20010904/DTD/svg10.dtd">
<svg version="1.0" id="Layer_1" xmlns="http://www.w3.org/2000/svg" xmlns:xlink="http://www.w3.org/1999/xlink" x="0px" y="0px"
	 width="100px" height="100px" viewBox="0 0 100 100" enable-background="new 0 0 100 100" xml:space="preserve">
<path d="M80.003,60H55c-11.028,0-20-8.972-20-20c0-6.79,3.405-12.793,8.594-16.409l-3.021-3.018
	c-2.416-2.412-5.749-3.906-9.428-3.906c-6.927,0-12.552,5.299-13.203,12.057L10,36.663h8.411C20.566,49.456,28.767,60.166,40,65.771
	v17.562h6.667V68.392c2.154,0.625,4.378,1.084,6.666,1.338v13.604H60V69.997h30L80.003,60z"/>
<path d="M55,53.333h18.337L48.454,28.454c-4.033,2.295-6.787,6.585-6.787,11.546C41.667,47.354,47.649,53.333,55,53.333z"/>
</svg>
