<svg xmlns="http://www.w3.org/2000/svg" width="128" height="128" viewBox="0 0 128 128">
  <title>BLUE PRINT</title>
  <g>
    <g>
      <path d="M13.3,14.689A11.548,11.548,0,0,0,1.75,26.237v75.526a11.549,11.549,0,1,1,23.1,0V26.237A11.549,11.549,0,0,0,13.3,14.689Z" fill="#6e77e5"/>
      <path d="M24.847,26.237v75.526A11.549,11.549,0,1,0,13.3,113.311H126.25V26.237Z" fill="#e5e5e5"/>
      <g>
        <ellipse cx="50.72" cy="60.404" rx="4.89" ry="9.519" fill="#5d452f"/>
        <path d="M110.914,69.923H68.448c2.7,0,4.89,4.262,4.89,9.519s-2.189,9.519-4.89,9.519h42.466c2.7,0,4.89-4.262,4.89-9.519S113.615,69.923,110.914,69.923Z" fill="#5d452f"/>
        <path d="M93.186,50.885H50.72c2.7,0,4.89,4.262,4.89,9.519s-2.19,9.519-4.89,9.519H93.186c2.7,0,4.89-4.262,4.89-9.519S95.886,50.885,93.186,50.885Z" fill="#896748"/>
        <path d="M63.558,79.442c0-5.257,2.189-9.519,4.89-9.519H39.1c2.7,0,4.889,4.262,4.889,9.519S41.8,88.961,39.1,88.961H68.448C65.747,88.961,63.558,84.7,63.558,79.442Z" fill="#5d452f"/>
        <ellipse cx="68.448" cy="79.442" rx="4.89" ry="9.519" fill="#896748"/>
        <ellipse cx="39.104" cy="79.442" rx="4.89" ry="9.519" fill="#896748"/>
        <path d="M58.469,83.912a1.75,1.75,0,0,0-1.75-1.75H43.788a13.807,13.807,0,0,1-.988,3.5H56.719A1.75,1.75,0,0,0,58.469,83.912Z" fill="#73553a"/>
        <path d="M59.71,79.556H52.873a1.75,1.75,0,0,1,0-3.5H59.71a1.75,1.75,0,0,1,0,3.5Z" fill="#73553a"/>
        <path d="M98.03,61.636a1.725,1.725,0,0,0-.241-.025H75.52a1.75,1.75,0,1,0,0,3.5H97.432A16.229,16.229,0,0,0,98.03,61.636Z" fill="#73553a"/>
        <path d="M82.785,59.472h-6.41a1.75,1.75,0,0,1,0-3.5h6.41a1.75,1.75,0,0,1,0,3.5Z" fill="#73553a"/>
        <path d="M64.654,53.861H54.266a13.209,13.209,0,0,1,1.084,3.5h9.3a1.75,1.75,0,0,0,0-3.5Z" fill="#73553a"/>
        <path d="M96.336,84.683H81.38a1.75,1.75,0,0,1,0-3.5H96.336a1.75,1.75,0,0,1,0,3.5Z" fill="#73553a"/>
        <path d="M115.16,74.735H95.97a1.75,1.75,0,0,0,0,3.5h19.79A16.236,16.236,0,0,0,115.16,74.735Z" fill="#73553a"/>
      </g>
    </g>
    <g>
      <path d="M55.48,27.987h4.23a1.75,1.75,0,0,0,0-3.5H55.48a1.75,1.75,0,0,0,0,3.5Z"/>
      <path d="M126.25,24.487H76.375a1.75,1.75,0,0,0,0,3.5H124.5V111.56H13.3a9.8,9.8,0,1,1,9.8-9.8,1.75,1.75,0,0,0,3.5,0V27.987H38.815a1.75,1.75,0,0,0,0-3.5H26.468A13.291,13.291,0,0,0,0,26.237v75.526a13.313,13.313,0,0,0,13.3,13.3H126.25a1.749,1.749,0,0,0,1.75-1.75V26.237A1.75,1.75,0,0,0,126.25,24.487ZM3.5,92.781V26.237a9.8,9.8,0,0,1,19.6,0V92.781a13.265,13.265,0,0,0-9.8-4.316A13.454,13.454,0,0,0,3.5,92.781Z"/>
      <path d="M39.1,68.173c-3.785,0-6.639,4.845-6.639,11.269S35.318,90.711,39.1,90.711H101a1.75,1.75,0,0,0,0-3.5H73.344a17.9,17.9,0,0,0,0-15.538h37.57c.755,0,1.741,1.136,2.406,3.061H95.97a1.75,1.75,0,0,0,0,3.5h18.036c.028.392.048.791.048,1.208,0,4.67-1.89,7.769-3.14,7.769a1.75,1.75,0,0,0,0,3.5c3.785,0,6.64-4.845,6.64-11.269s-2.855-11.269-6.64-11.269H98.072A16.332,16.332,0,0,0,99.826,60.4c0-6.425-2.854-11.269-6.641-11.269H50.72c-3.785,0-6.64,4.844-6.64,11.269a16.332,16.332,0,0,0,1.754,7.769Zm0,3.5c1.25,0,3.14,3.1,3.14,7.769s-1.89,7.769-3.14,7.769-3.139-3.1-3.139-7.769S37.853,71.673,39.1,71.673ZM44,87.211a15.109,15.109,0,0,0,.7-1.549H56.719a1.75,1.75,0,0,0,0-3.5H45.557A17.808,17.808,0,0,0,44,71.673H63.552a17.9,17.9,0,0,0,0,15.538Zm27.589-7.769c0,4.67-1.89,7.769-3.14,7.769s-3.14-3.1-3.14-7.769,1.89-7.769,3.14-7.769S71.588,74.772,71.588,79.442Zm21.6-26.807c1.25,0,3.141,3.1,3.141,7.769,0,.417-.02.817-.048,1.207H75.52a1.75,1.75,0,1,0,0,3.5H95.592c-.665,1.925-1.651,3.062-2.407,3.062H55.615a17.934,17.934,0,0,0,1.513-10.812h7.526a1.75,1.75,0,0,0,0-3.5H56.19c-.172-.42-.368-.826-.575-1.226ZM47.58,60.4c0-4.671,1.89-7.769,3.14-7.769s3.139,3.1,3.139,7.769-1.889,7.769-3.139,7.769S47.58,65.074,47.58,60.4Z"/>
      <path d="M59.71,76.056H52.873a1.75,1.75,0,0,0,0,3.5H59.71a1.75,1.75,0,0,0,0-3.5Z"/>
      <path d="M76.375,59.472h6.409a1.75,1.75,0,0,0,0-3.5H76.375a1.75,1.75,0,0,0,0,3.5Z"/>
      <path d="M81.381,81.184a1.75,1.75,0,0,0,0,3.5H96.336a1.75,1.75,0,0,0,0-3.5Z"/>
    </g>
  </g>
</svg>
