<?xml version="1.0" encoding="utf-8"?>
<!-- Generator: Adobe Illustrator 16.0.0, SVG Export Plug-In . SVG Version: 6.00 Build 0)  -->
<!DOCTYPE svg PUBLIC "-//W3C//DTD SVG 1.0//EN" "http://www.w3.org/TR/2001/REC-SVG-20010904/DTD/svg10.dtd">
<svg version="1.0" id="Layer_1" xmlns="http://www.w3.org/2000/svg" xmlns:xlink="http://www.w3.org/1999/xlink" x="0px" y="0px"
	 width="100px" height="100px" viewBox="0 0 100 100" enable-background="new 0 0 100 100" xml:space="preserve">
<path d="M66.667,40.003v-6.67c0-9.206-7.461-16.667-16.667-16.667s-16.667,7.461-16.667,16.667V40c0,5.521-4.479,10-10,10h-6.666V10
	H10v80h6.667V56.666h6.666C32.539,56.666,40,49.206,40,40v-6.667c0-5.521,4.479-10,10-10c5.524,0,10,4.479,10,10v6.67L36.667,63.334
	V70H50c0,7.363,5.97,13.333,13.333,13.333S76.667,77.363,76.667,70H90v-6.666L66.667,40.003z M63.333,76.667
	c-3.682,0-6.666-2.985-6.666-6.667H70C70,73.682,67.015,76.667,63.333,76.667z M46.094,63.334l17.239-17.237l17.24,17.237H46.094z"
	/>
</svg>
