<?xml version="1.0" encoding="utf-8"?>
<!-- Generator: Adobe Illustrator 24.0.0, SVG Export Plug-In . SVG Version: 6.00 Build 0)  -->
<svg version="1.1" xmlns="http://www.w3.org/2000/svg" xmlns:xlink="http://www.w3.org/1999/xlink" x="0px" y="0px"
	 viewBox="0 0 256 256" enable-background="new 0 0 256 256" xml:space="preserve">
<g id="Layer_1">
</g>
<g id="Layer_2">
</g>
<g id="Layer_3">
</g>
<g id="Layer_4">
</g>
<g id="Layer_5">
</g>
<g id="Layer_6">
</g>
<g id="Layer_7">
</g>
<g id="Layer_8">
</g>
<g id="Layer_9">
</g>
<g id="Layer_10">
</g>
<g id="Layer_11">
</g>
<g id="Layer_12">
</g>
<g id="Layer_13">
</g>
<g id="Layer_14">
</g>
<g id="Layer_15">
</g>
<g id="Layer_16">
</g>
<g id="Layer_17">
</g>
<g id="Layer_18">
</g>
<g id="Layer_19">
</g>
<g id="Layer_20">
</g>
<g id="Layer_21">
</g>
<g id="Layer_22">
</g>
<g id="Layer_23">
</g>
<g id="Layer_24">
</g>
<g id="Layer_25">
</g>
<g id="Layer_26">
</g>
<g id="Layer_27">
</g>
<g id="Layer_28">
</g>
<g id="Layer_29">
</g>
<g id="Layer_30">
</g>
<g id="Layer_31">
</g>
<g id="Layer_32">
</g>
<g id="Layer_33">
</g>
<g id="Layer_34">
</g>
<g id="Layer_35">
</g>
<g id="Layer_36">
</g>
<g id="Layer_37">
</g>
<g id="Layer_38">
</g>
<g id="Layer_39">
</g>
<g id="Layer_40">
</g>
<g id="Layer_41">
</g>
<g id="Layer_42">
</g>
<g id="Layer_43">
</g>
<g id="Layer_44">
</g>
<g id="Layer_45">
</g>
<g id="Layer_46">
</g>
<g id="Layer_47">
</g>
<g id="Layer_48">
</g>
<g id="Layer_49">
</g>
<g id="Layer_50">
</g>
<g id="Layer_51">
</g>
<g id="Layer_52">
</g>
<g id="Layer_53">
</g>
<g id="Layer_54">
</g>
<g id="Layer_55">
</g>
<g id="Layer_56">
</g>
<g id="Layer_57">
</g>
<g id="Layer_58">
</g>
<g id="Layer_59">
</g>
<g id="Layer_60">
</g>
<g id="Layer_61">
</g>
<g id="Layer_62">
</g>
<g id="Layer_63">
</g>
<g id="Layer_64">
</g>
<g id="Layer_65">
</g>
<g id="Layer_66">
</g>
<g id="Layer_67">
</g>
<g id="Layer_68">
</g>
<g id="Layer_69">
</g>
<g id="Layer_70">
</g>
<g id="Layer_71">
</g>
<g id="Layer_72">
</g>
<g id="Layer_73">
</g>
<g id="Layer_74">
</g>
<g id="Layer_75">
</g>
<g id="Layer_76">
</g>
<g id="Layer_77">
</g>
<g id="Layer_78">
</g>
<g id="Layer_79">
</g>
<g id="Layer_80">
</g>
<g id="Layer_81">
	<g>
		<g>
			<g>
				<path fill="#3A70BF" d="M198.412,21H74.308c-9.046,0-16.448,7.401-16.448,16.448v106.07
					c10.964,0.191,21.023,4.666,28.424,11.981h50.349c2.335,0,4.227,1.893,4.227,4.227v5.546c0,2.334-1.893,4.227-4.227,4.227
					c2.335,0,4.227,1.893,4.227,4.227v5.546c0,2.334-1.893,4.227-4.227,4.227c2.335,0,4.227,1.893,4.227,4.227v5.546
					c0,2.334-1.893,4.227-4.227,4.227c2.335,0,4.227,1.893,4.227,4.227v5.546c0,2.334-1.893,4.227-4.227,4.227
					c2.335,0,4.227,1.893,4.227,4.227v5.546c0,2.334-1.893,4.227-4.227,4.227c2.335,0,4.227,1.893,4.227,4.227v5.546
					c0,2.334-1.893,4.227-4.227,4.227c2.335,0,4.227,1.893,4.227,4.227v5.546c0,2.334-1.893,4.227-4.227,4.227h61.779
					c9.046,0,16.448-7.401,16.448-16.448V37.448C214.86,28.401,207.459,21,198.412,21z"/>
			</g>
		</g>
		<g>
			<g>
				<circle fill="#9BE5F9" cx="87.768" cy="121" r="10.862"/>
			</g>
		</g>
		<g>
			<g>
				<circle fill="#9BE5F9" cx="120.163" cy="121" r="10.862"/>
			</g>
		</g>
		<g>
			<g>
				<circle fill="#9BE5F9" cx="152.558" cy="121" r="10.862"/>
			</g>
		</g>
		<g>
			<g>
				<circle fill="#9BE5F9" cx="184.953" cy="121" r="10.862"/>
			</g>
		</g>
		<g>
			<g>
				<circle fill="#9BE5F9" cx="152.558" cy="153.667" r="10.862"/>
			</g>
		</g>
		<g>
			<g>
				<circle fill="#9BE5F9" cx="184.953" cy="153.667" r="10.862"/>
			</g>
		</g>
		<g>
			<g>
				<circle fill="#9BE5F9" cx="152.558" cy="186.333" r="10.862"/>
			</g>
		</g>
		<g>
			<g>
				<path fill="#FC657E" d="M184.953,175.472c-5.999,0-10.862,4.863-10.862,10.862V219c0,5.999,4.863,10.862,10.862,10.862
					c5.999,0,10.862-4.863,10.862-10.862v-32.667C195.815,180.334,190.952,175.472,184.953,175.472z"/>
			</g>
		</g>
		<g>
			<g>
				<circle fill="#9BE5F9" cx="152.558" cy="219" r="10.862"/>
			</g>
		</g>
		<g>
			<g>
				<path fill="#9BE5F9" d="M120.163,142.805c-5.999,0-10.862,4.863-10.862,10.862c0,0.626,0.065,1.236,0.166,1.833h21.391
					c0.102-0.597,0.166-1.207,0.166-1.833C131.025,147.668,126.162,142.805,120.163,142.805z"/>
			</g>
		</g>
		<g>
			<g>
				<path fill="#9BE5F9" d="M87.768,142.805c-4.368,0-8.123,2.584-9.848,6.302c3.052,1.775,5.856,3.93,8.353,6.394h12.196
					c0.102-0.597,0.161-1.208,0.161-1.833C98.63,147.668,93.767,142.805,87.768,142.805z"/>
			</g>
		</g>
		<g>
			<g>
				<path fill="#FCDD86" d="M194.86,49h-117c-2.761,0-5,2.238-5,5v33.5c0,2.762,2.239,5,5,5h117c2.761,0,5-2.238,5-5V54
					C199.86,51.238,197.622,49,194.86,49z"/>
			</g>
		</g>
		<g>
			<g>
				<path fill="#F5C84C" d="M72.86,81.5v6c0,2.762,2.239,5,5,5h117c2.761,0,5-2.238,5-5v-6H72.86z"/>
			</g>
		</g>
		<g>
			<g>
				<path fill="#F5C84C" d="M136.633,239.5h-48.46c-6.818,7.688-16.437,12.833-27.245,13.819c0.371,0.106,0.754,0.181,1.159,0.181
					h74.546c2.335,0,4.227-1.893,4.227-4.227v-5.546C140.86,241.393,138.968,239.5,136.633,239.5z"/>
			</g>
		</g>
		<g>
			<g>
				<path fill="#F5C84C" d="M136.633,225.5h-40.27c-1.799,5.212-4.605,9.957-8.19,14h48.46c2.335,0,4.227-1.893,4.227-4.227v-5.546
					C140.86,227.393,138.968,225.5,136.633,225.5z"/>
			</g>
		</g>
		<g>
			<g>
				<path fill="#F5C84C" d="M136.633,211.5H98.617c0.002,0.167,0.013,0.333,0.013,0.5c0,4.726-0.805,9.265-2.267,13.5h40.27
					c2.335,0,4.227-1.893,4.227-4.227v-5.546C140.86,213.393,138.968,211.5,136.633,211.5z"/>
			</g>
		</g>
		<g>
			<g>
				<path fill="#F5C84C" d="M136.633,197.5H96.686c-0.106,0.334-0.209,0.669-0.323,1l0,0c1.41,4.085,2.2,8.455,2.254,13h38.016
					c2.335,0,4.227-1.893,4.227-4.227v-5.546C140.86,199.393,138.968,197.5,136.633,197.5z"/>
			</g>
		</g>
		<g>
			<g>
				<path fill="#F5C84C" d="M136.633,183.5H98.592c0.018,0.499,0.038,0.997,0.038,1.5c0,4.357-0.692,8.552-1.944,12.5h39.947
					c2.335,0,4.227-1.893,4.227-4.227v-5.546C140.86,185.393,138.968,183.5,136.633,183.5z"/>
			</g>
		</g>
		<g>
			<g>
				<path fill="#F5C84C" d="M136.633,169.5H95.616c1.759,4.353,2.8,9.067,2.976,14h38.042c2.335,0,4.227-1.893,4.227-4.227v-5.546
					C140.86,171.393,138.968,169.5,136.633,169.5z"/>
			</g>
		</g>
		<g>
			<g>
				<path fill="#F5C84C" d="M136.633,155.5H86.284c3.997,3.951,7.192,8.707,9.332,14h41.018c2.335,0,4.227-1.893,4.227-4.227v-5.546
					C140.86,157.393,138.968,155.5,136.633,155.5z"/>
			</g>
		</g>
		<g>
			<g>
				<circle fill="#F5C84C" cx="57.13" cy="212" r="41.5"/>
			</g>
		</g>
		<g>
			<g>
				<path fill="#F5C84C" d="M57.13,143.5c-22.883,0-41.5,18.617-41.5,41.5c0,4.726,0.805,9.265,2.267,13.5
					c5.616-16.273,21.076-28,39.233-28s33.618,11.727,39.233,28c1.462-4.235,2.267-8.774,2.267-13.5
					C98.63,162.117,80.013,143.5,57.13,143.5z"/>
			</g>
		</g>
		<g>
			<g>
				<circle fill="#FCDD86" cx="57.13" cy="212" r="31.5"/>
			</g>
		</g>
		<g>
			<g>
				<path fill="#FCDD86" d="M57.13,153.5c-17.369,0-31.5,14.131-31.5,31.5c0,0.009,0.001,0.018,0.001,0.026
					c7.617-8.882,18.908-14.526,31.499-14.526s23.882,5.644,31.499,14.526c0-0.009,0.001-0.018,0.001-0.026
					C88.63,167.631,74.499,153.5,57.13,153.5z"/>
			</g>
		</g>
		<g>
			<g>
				<path fill="#FC657E" d="M158.53,6.21c-3.157-0.562-5.613-3.018-6.245-6.104c0-0.141-0.281-0.141-0.281,0
					c-0.632,3.087-3.087,5.543-6.245,6.104c-0.14,0-0.14,0.21,0,0.28c3.157,0.562,5.613,3.018,6.245,6.104
					c0,0.141,0.281,0.141,0.281,0c0.631-3.087,3.087-5.543,6.245-6.104C158.671,6.42,158.671,6.21,158.53,6.21z"/>
			</g>
		</g>
		<g>
			<g>
				<path fill="#70D6F9" d="M38.12,122.373h-2.3v-2.3c0-1.7-1.4-3.2-3.2-3.2c-1.8,0-3.2,1.4-3.2,3.2v2.3h-2.3
					c-1.7,0-3.2,1.4-3.2,3.2s1.4,3.2,3.2,3.2h2.3v2.3c0,1.7,1.4,3.2,3.2,3.2c1.8,0,3.2-1.4,3.2-3.2v-2.3h2.3c1.7,0,3.2-1.4,3.2-3.2
					S39.92,122.373,38.12,122.373z"/>
			</g>
		</g>
		<g>
			<g>
				<path fill="#87D147" d="M228.72,196.227c-1.878,0-3.4,1.522-3.4,3.4c0,1.877,1.522,3.4,3.4,3.4c1.878,0,3.4-1.522,3.4-3.4
					C232.12,197.749,230.598,196.227,228.72,196.227z"/>
			</g>
		</g>
		<g>
			<g>
				<path fill="#F5C84C" d="M242.72,172.623c-4.5-0.8-8-4.3-8.9-8.7c0-0.2-0.4-0.2-0.4,0c-0.9,4.4-4.4,7.9-8.9,8.7
					c-0.2,0-0.2,0.3,0,0.4c4.5,0.8,8,4.3,8.9,8.7c0,0.2,0.4,0.2,0.4,0c0.9-4.4,4.4-7.9,8.9-8.7
					C242.92,172.923,242.92,172.623,242.72,172.623z"/>
			</g>
		</g>
		<g>
			<g>
				<path fill="#F5C84C" d="M41.72,95.227c-1.878,0-3.4,1.522-3.4,3.4c0,1.877,1.522,3.4,3.4,3.4s3.4-1.522,3.4-3.4
					C45.12,96.749,43.598,95.227,41.72,95.227z"/>
			</g>
		</g>
		<g>
			<g>
				<path d="M145.86,33h-19c-1.381,0-2.5,1.119-2.5,2.5s1.119,2.5,2.5,2.5h19c1.381,0,2.5-1.119,2.5-2.5S147.241,33,145.86,33z"/>
			</g>
		</g>
		<g>
			<g>
				<g>
					<path d="M60.22,207.955h-6.18c-2.881,0-5.225-2.344-5.225-5.225s2.344-5.225,5.225-5.225h6.18c2.881,0,5.225,2.344,5.225,5.225
						c0,1.381,1.119,2.5,2.5,2.5s2.5-1.119,2.5-2.5c0-5.638-4.587-10.225-10.225-10.225h-6.18c-5.638,0-10.225,4.587-10.225,10.225
						s4.587,10.225,10.225,10.225h6.18c2.881,0,5.225,2.344,5.225,5.225v3.09c0,2.881-2.344,5.225-5.225,5.225h-6.18
						c-2.881,0-5.225-2.344-5.225-5.225c0-1.381-1.119-2.5-2.5-2.5s-2.5,1.119-2.5,2.5c0,5.638,4.587,10.225,10.225,10.225h6.18
						c5.638,0,10.225-4.587,10.225-10.225v-3.09C70.444,212.542,65.857,207.955,60.22,207.955z"/>
				</g>
			</g>
			<g>
				<g>
					<path d="M57.13,189.416c-1.381,0-2.5,1.119-2.5,2.5v40.168c0,1.381,1.119,2.5,2.5,2.5s2.5-1.119,2.5-2.5v-40.168
						C59.63,190.535,58.511,189.416,57.13,189.416z"/>
				</g>
			</g>
		</g>
		<g>
			<g>
				<path d="M198.413,18.5H74.309C63.86,18.5,55.36,27,55.36,37.448v105.351c0,1.381,1.119,2.5,2.5,2.5s2.5-1.119,2.5-2.5V37.448
					c0-7.691,6.257-13.948,13.948-13.948h124.104c7.691,0,13.948,6.257,13.948,13.947v199.604c0,7.691-6.257,13.948-13.948,13.948
					h-61.779c-1.381,0-2.5,1.119-2.5,2.5s1.119,2.5,2.5,2.5h61.779c10.448,0,18.948-8.5,18.948-18.948V37.447
					C217.36,27,208.86,18.5,198.413,18.5z"/>
			</g>
		</g>
		<g>
			<g>
				<g>
					<path d="M87.768,107.639c-7.368,0-13.362,5.994-13.362,13.361s5.994,13.361,13.362,13.361S101.13,128.367,101.13,121
						S95.136,107.639,87.768,107.639z M87.768,129.361c-4.611,0-8.362-3.751-8.362-8.361s3.751-8.361,8.362-8.361
						S96.13,116.39,96.13,121S92.379,129.361,87.768,129.361z"/>
				</g>
			</g>
		</g>
		<g>
			<g>
				<g>
					<path d="M120.163,107.639c-7.368,0-13.362,5.994-13.362,13.361s5.994,13.361,13.362,13.361s13.362-5.994,13.362-13.361
						S127.531,107.639,120.163,107.639z M120.163,129.361c-4.611,0-8.362-3.751-8.362-8.361s3.751-8.361,8.362-8.361
						s8.362,3.751,8.362,8.361S124.774,129.361,120.163,129.361z"/>
				</g>
			</g>
		</g>
		<g>
			<g>
				<g>
					<path d="M152.558,107.639c-7.368,0-13.362,5.994-13.362,13.361s5.994,13.361,13.362,13.361s13.362-5.994,13.362-13.361
						S159.925,107.639,152.558,107.639z M152.558,129.361c-4.611,0-8.362-3.751-8.362-8.361s3.751-8.361,8.362-8.361
						s8.362,3.751,8.362,8.361S157.168,129.361,152.558,129.361z"/>
				</g>
			</g>
		</g>
		<g>
			<g>
				<g>
					<path d="M184.953,107.639c-7.368,0-13.362,5.994-13.362,13.361s5.994,13.361,13.362,13.361s13.362-5.994,13.362-13.361
						S192.32,107.639,184.953,107.639z M184.953,129.361c-4.611,0-8.362-3.751-8.362-8.361s3.751-8.361,8.362-8.361
						s8.362,3.751,8.362,8.361S189.563,129.361,184.953,129.361z"/>
				</g>
			</g>
		</g>
		<g>
			<g>
				<g>
					<path d="M152.558,140.305c-7.368,0-13.362,5.994-13.362,13.362c0,7.367,5.994,13.361,13.362,13.361s13.362-5.994,13.362-13.361
						C165.919,146.299,159.925,140.305,152.558,140.305z M152.558,162.028c-4.611,0-8.362-3.751-8.362-8.361
						c0-4.611,3.751-8.362,8.362-8.362s8.362,3.751,8.362,8.362C160.919,158.277,157.168,162.028,152.558,162.028z"/>
				</g>
			</g>
		</g>
		<g>
			<g>
				<g>
					<path d="M184.953,140.305c-7.368,0-13.362,5.994-13.362,13.362c0,7.367,5.994,13.361,13.362,13.361s13.362-5.994,13.362-13.361
						C198.314,146.299,192.32,140.305,184.953,140.305z M184.953,162.028c-4.611,0-8.362-3.751-8.362-8.361
						c0-4.611,3.751-8.362,8.362-8.362s8.362,3.751,8.362,8.362C193.314,158.277,189.563,162.028,184.953,162.028z"/>
				</g>
			</g>
		</g>
		<g>
			<g>
				<g>
					<path d="M152.558,172.972c-7.368,0-13.362,5.994-13.362,13.361c0,7.368,5.994,13.362,13.362,13.362s13.362-5.994,13.362-13.362
						C165.919,178.966,159.925,172.972,152.558,172.972z M152.558,194.695c-4.611,0-8.362-3.751-8.362-8.362
						c0-4.61,3.751-8.361,8.362-8.361s8.362,3.751,8.362,8.361C160.919,190.944,157.168,194.695,152.558,194.695z"/>
				</g>
			</g>
		</g>
		<g>
			<g>
				<g>
					<path d="M184.953,172.972c-7.368,0-13.362,5.994-13.362,13.362V219c0,7.367,5.994,13.361,13.362,13.361
						s13.362-5.994,13.362-13.361v-32.666C198.314,178.966,192.32,172.972,184.953,172.972z M193.314,219
						c0,4.61-3.751,8.361-8.362,8.361s-8.362-3.751-8.362-8.361v-32.666c0-4.611,3.751-8.362,8.362-8.362s8.362,3.751,8.362,8.362
						V219z"/>
				</g>
			</g>
		</g>
		<g>
			<g>
				<g>
					<path d="M152.558,205.639c-7.368,0-13.362,5.994-13.362,13.361s5.994,13.361,13.362,13.361s13.362-5.994,13.362-13.361
						S159.925,205.639,152.558,205.639z M152.558,227.361c-4.611,0-8.362-3.751-8.362-8.361s3.751-8.361,8.362-8.361
						s8.362,3.751,8.362,8.361S157.168,227.361,152.558,227.361z"/>
				</g>
			</g>
		</g>
		<g>
			<g>
				<path d="M120.163,140.305c-7.368,0-13.362,5.994-13.362,13.361c0,0.403,0.021,0.801,0.059,1.193
					c0.125,1.293,1.213,2.26,2.485,2.26c0.08,0,0.162-0.004,0.243-0.012c1.375-0.133,2.381-1.354,2.248-2.729
					c-0.022-0.234-0.036-0.472-0.036-0.713c0-4.61,3.751-8.361,8.362-8.361s8.362,3.751,8.362,8.361
					c0,0.225-0.012,0.446-0.032,0.665c-0.125,1.375,0.887,2.592,2.262,2.717c1.385,0.135,2.591-0.887,2.717-2.262
					c0.034-0.369,0.052-0.741,0.052-1.12C133.525,146.299,127.531,140.305,120.163,140.305z"/>
			</g>
		</g>
		<g>
			<g>
				<path d="M87.768,140.305c-4.752,0-9.184,2.563-11.565,6.69c-0.69,1.196-0.281,2.725,0.915,3.415
					c1.197,0.69,2.725,0.279,3.415-0.915c1.492-2.585,4.265-4.19,7.235-4.19c4.611,0,8.362,3.751,8.362,8.361
					c0,0.243-0.012,0.482-0.034,0.72c-0.127,1.375,0.885,2.592,2.26,2.719c0.078,0.008,0.156,0.011,0.232,0.011
					c1.277,0,2.367-0.974,2.486-2.271c0.036-0.388,0.055-0.779,0.055-1.179C101.13,146.299,95.136,140.305,87.768,140.305z"/>
			</g>
		</g>
		<g>
			<g>
				<g>
					<path d="M194.86,46.5h-117c-4.136,0-7.5,3.364-7.5,7.5v33.5c0,4.136,3.364,7.5,7.5,7.5h117c4.136,0,7.5-3.364,7.5-7.5V54
						C202.36,49.864,198.996,46.5,194.86,46.5z M197.36,87.5c0,1.379-1.122,2.5-2.5,2.5h-117c-1.378,0-2.5-1.121-2.5-2.5V54
						c0-1.379,1.122-2.5,2.5-2.5h117c1.378,0,2.5,1.121,2.5,2.5V87.5z"/>
				</g>
			</g>
		</g>
		<g>
			<g>
				<path d="M199.167,79H73.422c-1.381,0-2.5,1.119-2.5,2.5s1.119,2.5,2.5,2.5h125.746c1.381,0,2.5-1.119,2.5-2.5
					S200.548,79,199.167,79z"/>
			</g>
		</g>
		<g>
			<g>
				<path d="M136.633,237H88.906c-1.381,0-2.5,1.119-2.5,2.5s1.119,2.5,2.5,2.5h47.728c0.952,0,1.727,0.774,1.727,1.727v5.547
					c0,0.952-0.775,1.727-1.727,1.727H62.087c-0.08,0-0.175-0.013-0.289-0.038c-1.346-0.3-2.684,0.545-2.986,1.893
					c-0.302,1.347,0.545,2.685,1.893,2.986c0.478,0.107,0.93,0.159,1.383,0.159h74.546c3.709,0,6.727-3.018,6.727-6.727v-5.547
					C143.36,240.018,140.343,237,136.633,237z"/>
			</g>
		</g>
		<g>
			<g>
				<path d="M136.633,223c-1.381,0-2.5,1.119-2.5,2.5s1.119,2.5,2.5,2.5c0.952,0,1.727,0.774,1.727,1.727v5.547
					c0,0.952-0.775,1.727-1.727,1.727c-1.381,0-2.5,1.119-2.5,2.5s1.119,2.5,2.5,2.5c3.709,0,6.727-3.018,6.727-6.727v-5.547
					C143.36,226.018,140.343,223,136.633,223z"/>
			</g>
		</g>
		<g>
			<g>
				<path d="M136.633,209H99.625c-1.381,0-2.5,1.119-2.5,2.5s1.119,2.5,2.5,2.5h37.008c0.952,0,1.727,0.774,1.727,1.727v5.547
					c0,0.952-0.775,1.727-1.727,1.727H97.125c-1.381,0-2.5,1.119-2.5,2.5s1.119,2.5,2.5,2.5h39.508c3.709,0,6.727-3.018,6.727-6.727
					v-5.547C143.36,212.018,140.343,209,136.633,209z"/>
			</g>
		</g>
		<g>
			<g>
				<path d="M136.633,195c-1.381,0-2.5,1.119-2.5,2.5s1.119,2.5,2.5,2.5c0.952,0,1.727,0.774,1.727,1.727v5.547
					c0,0.952-0.775,1.727-1.727,1.727c-1.381,0-2.5,1.119-2.5,2.5s1.119,2.5,2.5,2.5c3.709,0,6.727-3.018,6.727-6.727v-5.547
					C143.36,198.018,140.343,195,136.633,195z"/>
			</g>
		</g>
		<g>
			<g>
				<path d="M136.633,181H99.156c-1.381,0-2.5,1.119-2.5,2.5s1.119,2.5,2.5,2.5h37.477c0.952,0,1.727,0.774,1.727,1.727v5.547
					c0,0.952-0.775,1.727-1.727,1.727H97.167c-1.381,0-2.5,1.119-2.5,2.5s1.119,2.5,2.5,2.5h39.466c3.709,0,6.727-3.018,6.727-6.727
					v-5.547C143.36,184.018,140.343,181,136.633,181z"/>
			</g>
		</g>
		<g>
			<g>
				<path d="M136.633,167c-1.381,0-2.5,1.119-2.5,2.5s1.119,2.5,2.5,2.5c0.952,0,1.727,0.774,1.727,1.727v5.547
					c0,0.952-0.775,1.727-1.727,1.727c-1.381,0-2.5,1.119-2.5,2.5s1.119,2.5,2.5,2.5c3.709,0,6.727-3.018,6.727-6.727v-5.547
					C143.36,170.018,140.343,167,136.633,167z"/>
			</g>
		</g>
		<g>
			<g>
				<path d="M136.633,153H86.609c-1.381,0-2.5,1.119-2.5,2.5s1.119,2.5,2.5,2.5h50.024c0.952,0,1.727,0.774,1.727,1.727v5.547
					c0,0.952-0.775,1.727-1.727,1.727H96.188c-1.381,0-2.5,1.119-2.5,2.5s1.119,2.5,2.5,2.5h40.446c3.709,0,6.727-3.018,6.727-6.727
					v-5.547C143.36,156.018,140.343,153,136.633,153z"/>
			</g>
		</g>
		<g>
			<g>
				<g>
					<g>
						<path d="M57.13,168c-24.262,0-44,19.738-44,44s19.738,44,44,44s44-19.738,44-44S81.392,168,57.13,168z M57.13,251
							c-21.505,0-39-17.495-39-39s17.495-39,39-39s39,17.495,39,39S78.635,251,57.13,251z"/>
					</g>
				</g>
			</g>
		</g>
		<g>
			<g>
				<path d="M57.13,141c-24.262,0-44,19.738-44,44c0,4.615,0.725,9.183,2.155,13.576c0.427,1.313,1.836,2.036,3.151,1.604
					c1.313-0.427,2.031-1.838,1.604-3.15c-1.268-3.894-1.91-7.94-1.91-12.029c0-21.505,17.495-39,39-39s39,17.495,39,39
					c0,4.195-0.676,8.344-2.009,12.329c-0.438,1.31,0.269,2.726,1.578,3.164c0.263,0.088,0.53,0.13,0.793,0.13
					c1.045,0,2.021-0.662,2.371-1.708c1.504-4.498,2.267-9.18,2.267-13.915C101.13,160.738,81.392,141,57.13,141z"/>
			</g>
		</g>
		<g>
			<g>
				<g>
					<path d="M57.13,178c-18.748,0-34,15.252-34,34s15.252,34,34,34s34-15.252,34-34S75.877,178,57.13,178z M57.13,241
						c-15.991,0-29-13.01-29-29s13.009-29,29-29s29,13.01,29,29S73.121,241,57.13,241z"/>
				</g>
			</g>
		</g>
		<g>
			<g>
				<path d="M57.13,151c-18.541,0-33.792,15.08-33.998,33.617c-0.015,1.38,1.092,2.512,2.472,2.527h0.028
					c1.368,0,2.484-1.102,2.5-2.473C28.308,168.862,41.316,156,57.13,156c15.826,0,28.835,12.873,28.999,28.696
					c0.014,1.371,1.131,2.474,2.5,2.474h0.026c1.381-0.015,2.488-1.146,2.474-2.525C90.936,166.093,75.685,151,57.13,151z"/>
			</g>
		</g>
	</g>
</g>
<g id="Layer_82">
</g>
<g id="Layer_83">
</g>
<g id="Layer_84">
</g>
<g id="Layer_85">
</g>
<g id="Layer_86">
</g>
<g id="Layer_87">
</g>
<g id="Layer_88">
</g>
<g id="Layer_89">
</g>
<g id="Layer_90">
</g>
</svg>
