<?xml version="1.0" encoding="utf-8"?>
<!-- Generator: Adobe Illustrator 24.0.0, SVG Export Plug-In . SVG Version: 6.00 Build 0)  -->
<svg version="1.1" xmlns="http://www.w3.org/2000/svg" xmlns:xlink="http://www.w3.org/1999/xlink" x="0px" y="0px"
	 viewBox="0 0 256 256" enable-background="new 0 0 256 256" xml:space="preserve">
<g id="Layer_1">
</g>
<g id="Layer_2">
</g>
<g id="Layer_3">
</g>
<g id="Layer_4">
</g>
<g id="Layer_5">
</g>
<g id="Layer_6">
</g>
<g id="Layer_7">
</g>
<g id="Layer_8">
</g>
<g id="Layer_9">
</g>
<g id="Layer_10">
</g>
<g id="Layer_11">
</g>
<g id="Layer_12">
</g>
<g id="Layer_13">
</g>
<g id="Layer_14">
</g>
<g id="Layer_15">
</g>
<g id="Layer_16">
</g>
<g id="Layer_17">
</g>
<g id="Layer_18">
</g>
<g id="Layer_19">
</g>
<g id="Layer_20">
</g>
<g id="Layer_21">
</g>
<g id="Layer_22">
</g>
<g id="Layer_23">
</g>
<g id="Layer_24">
</g>
<g id="Layer_25">
</g>
<g id="Layer_26">
</g>
<g id="Layer_27">
</g>
<g id="Layer_28">
</g>
<g id="Layer_29">
</g>
<g id="Layer_30">
</g>
<g id="Layer_31">
</g>
<g id="Layer_32">
</g>
<g id="Layer_33">
</g>
<g id="Layer_34">
</g>
<g id="Layer_35">
</g>
<g id="Layer_36">
</g>
<g id="Layer_37">
</g>
<g id="Layer_38">
</g>
<g id="Layer_39">
</g>
<g id="Layer_40">
</g>
<g id="Layer_41">
</g>
<g id="Layer_42">
</g>
<g id="Layer_43">
</g>
<g id="Layer_44">
</g>
<g id="Layer_45">
</g>
<g id="Layer_46">
</g>
<g id="Layer_47">
	<g>
		<g>
			<g>
				<polygon fill="#3CAADC" points="88.115,30.118 88.115,75.283 125.519,92.567 125.519,47.402 				"/>
			</g>
		</g>
		<g>
			<g>
				<polygon fill="#70D6F9" points="125.519,47.402 125.519,92.567 162.924,75.283 162.924,30.118 				"/>
			</g>
		</g>
		<g>
			<g>
				<polygon fill="#9BE5F9" points="125.519,11.912 88.115,30.118 125.519,47.402 162.924,30.118 				"/>
			</g>
		</g>
		<g>
			<g>
				<polygon fill="#3CAADC" points="13.076,177.64 13.076,222.805 50.481,240.088 50.481,194.924 				"/>
			</g>
		</g>
		<g>
			<g>
				<polygon fill="#70D6F9" points="50.481,194.924 50.481,240.088 88,222.805 88,177.456 				"/>
			</g>
		</g>
		<g>
			<g>
				<polygon fill="#9BE5F9" points="50.481,159.433 13.076,177.64 50.481,194.924 88,177.456 				"/>
			</g>
		</g>
		<g>
			<g>
				<polygon fill="#3CAADC" points="88,177.456 88,222.805 125.519,240.088 125.519,194.924 				"/>
			</g>
		</g>
		<g>
			<g>
				<polygon fill="#70D6F9" points="125.519,194.924 125.519,240.088 163.039,222.805 163.039,177.456 				"/>
			</g>
		</g>
		<g>
			<g>
				<polygon fill="#9BE5F9" points="125.519,159.433 88,177.456 125.519,194.924 163.039,177.456 				"/>
			</g>
		</g>
		<g>
			<g>
				<polygon fill="#3CAADC" points="163.039,177.456 163.039,222.805 200.558,240.088 200.558,194.924 				"/>
			</g>
		</g>
		<g>
			<g>
				<polygon fill="#70D6F9" points="200.558,194.924 200.558,240.088 237.962,222.805 237.962,177.64 				"/>
			</g>
		</g>
		<g>
			<g>
				<polygon fill="#9BE5F9" points="200.558,159.433 163.039,177.456 200.558,194.924 237.962,177.64 				"/>
			</g>
		</g>
		<g>
			<g>
				<polygon fill="#3CAADC" points="125.519,114.64 125.519,159.433 163.039,177.456 163.039,131.924 				"/>
			</g>
		</g>
		<g>
			<g>
				<polygon fill="#70D6F9" points="163.039,131.924 163.039,177.456 200.443,159.433 200.443,114.64 				"/>
			</g>
		</g>
		<g>
			<g>
				<polygon fill="#9BE5F9" points="163.039,96.433 125.519,114.64 163.039,131.924 200.443,114.64 				"/>
			</g>
		</g>
		<g>
			<g>
				<polygon fill="#3CAADC" points="50.596,114.64 50.596,159.433 88,177.456 88,131.924 				"/>
			</g>
		</g>
		<g>
			<g>
				<polygon fill="#70D6F9" points="88,131.924 88,177.456 125.519,159.433 125.519,114.64 				"/>
			</g>
		</g>
		<g>
			<g>
				<polygon fill="#9BE5F9" points="88,96.433 50.596,114.64 88,131.924 125.519,114.64 				"/>
			</g>
		</g>
		<g>
			<g>
				<path fill="#F5C84C" d="M77.959,20.85c-4.5-0.8-8-4.3-8.9-8.7c0-0.2-0.4-0.2-0.4,0c-0.9,4.4-4.4,7.9-8.9,8.7
					c-0.2,0-0.2,0.3,0,0.4c4.5,0.8,8,4.3,8.9,8.7c0,0.2,0.4,0.2,0.4,0c0.9-4.4,4.4-7.9,8.9-8.7
					C78.159,21.15,78.159,20.85,77.959,20.85z"/>
			</g>
		</g>
		<g>
			<g>
				<path fill="#FC657E" d="M225.876,121.21c-3.158-0.561-5.613-3.017-6.245-6.104c0-0.14-0.281-0.14-0.281,0
					c-0.631,3.087-3.087,5.543-6.245,6.104c-0.14,0-0.14,0.21,0,0.281c3.158,0.562,5.613,3.017,6.245,6.104
					c0,0.14,0.281,0.14,0.281,0c0.631-3.087,3.087-5.543,6.245-6.104C226.016,121.42,226.016,121.21,225.876,121.21z"/>
			</g>
		</g>
		<g>
			<g>
				<path fill="#F5C84C" d="M147.959,249.2c-1.878,0-3.4,1.522-3.4,3.4c0,1.878,1.522,3.4,3.4,3.4c1.878,0,3.4-1.522,3.4-3.4
					C151.359,250.722,149.836,249.2,147.959,249.2z"/>
			</g>
		</g>
		<g>
			<g>
				<path fill="#70D6F9" d="M94.959,0c-1.878,0-3.4,1.522-3.4,3.4c0,1.878,1.522,3.4,3.4,3.4c1.878,0,3.4-1.522,3.4-3.4
					C98.359,1.522,96.836,0,94.959,0z"/>
			</g>
		</g>
		<g>
			<g>
				<path fill="#87D147" d="M94.2,244.1h-2.3v-2.3c0-1.7-1.4-3.2-3.2-3.2s-3.2,1.4-3.2,3.2v2.3h-2.3c-1.7,0-3.2,1.4-3.2,3.2
					s1.4,3.2,3.2,3.2h2.3v2.3c0,1.7,1.4,3.2,3.2,3.2s3.2-1.4,3.2-3.2v-2.3h2.3c1.7,0,3.2-1.4,3.2-3.2S96,244.1,94.2,244.1z"/>
			</g>
		</g>
		<g>
			<g>
				<path d="M50.481,192.424c-1.381,0-2.5,1.119-2.5,2.5v41.255l-32.405-14.973V177.64c0-1.381-1.119-2.5-2.5-2.5
					s-2.5,1.119-2.5,2.5v45.165c0,0.975,0.566,1.86,1.451,2.27l37.405,17.284c0.334,0.154,0.692,0.23,1.049,0.23
					c0.47,0,0.938-0.133,1.347-0.394c0.719-0.459,1.153-1.253,1.153-2.106v-45.165C52.981,193.543,51.862,192.424,50.481,192.424z"
					/>
			</g>
		</g>
		<g>
			<g>
				<path d="M88,174.956c-1.381,0-2.5,1.119-2.5,2.5v43.748l-36.065,16.614c-1.254,0.578-1.802,2.063-1.225,3.316
					c0.421,0.916,1.326,1.455,2.272,1.455c0.35,0,0.706-0.074,1.044-0.23l37.519-17.284c0.886-0.408,1.454-1.295,1.454-2.271
					v-45.349C90.5,176.075,89.381,174.956,88,174.956z"/>
			</g>
		</g>
		<g>
			<g>
				<g>
					<path d="M89.083,175.203l-37.52-18.023c-0.688-0.331-1.49-0.328-2.177,0.005l-37.404,18.207
						c-0.868,0.423-1.416,1.308-1.406,2.273c0.01,0.965,0.575,1.839,1.451,2.244l37.405,17.284c0.333,0.154,0.691,0.23,1.049,0.23
						c0.36,0,0.721-0.078,1.055-0.233l37.519-17.468c0.876-0.408,1.439-1.285,1.445-2.251S89.954,175.621,89.083,175.203z
						 M50.477,192.168l-31.568-14.587l31.579-15.371l31.665,15.211L50.477,192.168z"/>
				</g>
			</g>
		</g>
		<g>
			<g>
				<path d="M126.565,237.818l-37.519-17.284c-1.253-0.577-2.739-0.03-3.316,1.225c-0.578,1.254-0.03,2.739,1.225,3.316
					l37.519,17.284c0.339,0.156,0.694,0.23,1.044,0.23c0.945,0,1.851-0.539,2.272-1.455
					C128.367,239.88,127.819,238.396,126.565,237.818z"/>
			</g>
		</g>
		<g>
			<g>
				<path d="M165.309,221.759c-0.578-1.254-2.062-1.802-3.316-1.225l-33.974,15.65v-41.26c0-1.381-1.119-2.5-2.5-2.5
					s-2.5,1.119-2.5,2.5v45.165c0,0.852,0.434,1.646,1.152,2.105c0.409,0.262,0.877,0.395,1.348,0.395
					c0.356,0,0.713-0.076,1.046-0.229l37.52-17.284C165.338,224.498,165.887,223.013,165.309,221.759z"/>
			</g>
		</g>
		<g>
			<g>
				<g>
					<path d="M164.121,175.203l-37.52-18.023c-0.685-0.329-1.48-0.329-2.165,0l-37.519,18.023c-0.871,0.418-1.423,1.302-1.417,2.269
						s0.568,1.843,1.445,2.251l37.519,17.468c0.334,0.156,0.695,0.233,1.055,0.233s0.721-0.078,1.055-0.233l37.52-17.468
						c0.876-0.408,1.439-1.285,1.445-2.251S164.992,175.621,164.121,175.203z M125.519,192.166l-31.672-14.745l31.672-15.214
						l31.672,15.214L125.519,192.166z"/>
				</g>
			</g>
		</g>
		<g>
			<g>
				<path d="M201.604,237.818l-36.065-16.614v-39.826l33.964,15.813c1.251,0.583,2.739,0.041,3.322-1.211
					c0.583-1.251,0.04-2.739-1.211-3.322l-37.519-17.468c-0.774-0.36-1.678-0.301-2.399,0.159c-0.72,0.459-1.156,1.254-1.156,2.108
					v45.349c0,0.976,0.568,1.862,1.454,2.271l37.519,17.284c0.339,0.156,0.694,0.23,1.044,0.23c0.945,0,1.851-0.539,2.272-1.455
					C203.406,239.88,202.858,238.396,201.604,237.818z"/>
			</g>
		</g>
		<g>
			<g>
				<g>
					<path d="M239.309,175.534c-0.718-0.46-1.621-0.521-2.396-0.164l-37.405,17.284c-0.885,0.409-1.451,1.295-1.451,2.27v45.165
						c0,0.853,0.435,1.646,1.153,2.106c0.408,0.262,0.876,0.394,1.347,0.394c0.357,0,0.715-0.076,1.049-0.23l37.405-17.284
						c0.885-0.409,1.451-1.295,1.451-2.27V177.64C240.462,176.787,240.028,175.993,239.309,175.534z M235.462,221.206
						l-32.405,14.973v-39.657l32.405-14.974V221.206z"/>
				</g>
			</g>
		</g>
		<g>
			<g>
				<path d="M239.057,175.392l-37.405-18.207c-0.687-0.334-1.489-0.337-2.177-0.005l-37.519,18.023
					c-1.245,0.598-1.769,2.091-1.171,3.336c0.598,1.244,2.091,1.771,3.336,1.171l36.429-17.5l36.318,17.678
					c0.353,0.171,0.725,0.252,1.092,0.252c0.927,0,1.817-0.517,2.25-1.406C240.814,177.492,240.298,175.996,239.057,175.392z"/>
			</g>
		</g>
		<g>
			<g>
				<path d="M125.519,112.14c-1.381,0-2.5,1.119-2.5,2.5v44.793c0,1.381,1.119,2.5,2.5,2.5s2.5-1.119,2.5-2.5V114.64
					C128.019,113.259,126.9,112.14,125.519,112.14z"/>
			</g>
		</g>
		<g>
			<g>
				<path d="M200.443,112.14c-1.381,0-2.5,1.119-2.5,2.5v44.793c0,1.381,1.119,2.5,2.5,2.5s2.5-1.119,2.5-2.5V114.64
					C202.943,113.259,201.824,112.14,200.443,112.14z"/>
			</g>
		</g>
		<g>
			<g>
				<path d="M163.039,129.424c-1.381,0-2.5,1.119-2.5,2.5v45.532c0,1.381,1.119,2.5,2.5,2.5s2.5-1.119,2.5-2.5v-45.532
					C165.539,130.543,164.419,129.424,163.039,129.424z"/>
			</g>
		</g>
		<g>
			<g>
				<g>
					<path d="M201.537,112.392l-37.404-18.207c-0.69-0.335-1.496-0.336-2.186-0.001l-37.52,18.207
						c-0.87,0.422-1.418,1.308-1.409,2.274c0.01,0.967,0.576,1.841,1.454,2.246l37.52,17.284c0.332,0.153,0.689,0.229,1.046,0.229
						c0.358,0,0.716-0.077,1.049-0.23l37.404-17.284c0.876-0.405,1.441-1.279,1.451-2.244
						C202.953,113.699,202.405,112.814,201.537,112.392z M163.037,129.17l-31.67-14.589l31.67-15.368l31.573,15.368L163.037,129.17z
						"/>
				</g>
			</g>
		</g>
		<g>
			<g>
				<path d="M50.596,112.14c-1.381,0-2.5,1.119-2.5,2.5v44.793c0,1.381,1.119,2.5,2.5,2.5s2.5-1.119,2.5-2.5V114.64
					C53.096,113.259,51.977,112.14,50.596,112.14z"/>
			</g>
		</g>
		<g>
			<g>
				<path d="M88,129.424c-1.381,0-2.5,1.119-2.5,2.5v45.532c0,1.381,1.119,2.5,2.5,2.5s2.5-1.119,2.5-2.5v-45.532
					C90.5,130.543,89.381,129.424,88,129.424z"/>
			</g>
		</g>
		<g>
			<g>
				<g>
					<path d="M126.61,112.391L89.091,94.184c-0.69-0.335-1.496-0.334-2.186,0.001l-37.404,18.207
						c-0.868,0.423-1.416,1.308-1.406,2.273c0.01,0.965,0.575,1.839,1.451,2.244l37.404,17.284c0.333,0.154,0.691,0.23,1.049,0.23
						c0.357,0,0.714-0.077,1.046-0.229l37.519-17.284c0.878-0.404,1.444-1.279,1.454-2.246
						C128.029,113.698,127.48,112.813,126.61,112.391z M88.001,129.17l-31.573-14.589l31.573-15.368l31.67,15.368L88.001,129.17z"/>
				</g>
			</g>
		</g>
		<g>
			<g>
				<g>
					<path d="M126.568,45.133L89.164,27.849c-0.774-0.357-1.677-0.295-2.396,0.164c-0.719,0.459-1.153,1.253-1.153,2.106v45.165
						c0,0.975,0.566,1.86,1.451,2.27l37.404,17.284c0.334,0.154,0.692,0.23,1.049,0.23c0.47,0,0.938-0.133,1.347-0.394
						c0.719-0.459,1.153-1.253,1.153-2.106V47.402C128.019,46.428,127.453,45.542,126.568,45.133z M123.019,88.658L90.615,73.685
						V34.027l32.404,14.974V88.658z"/>
				</g>
			</g>
		</g>
		<g>
			<g>
				<path d="M162.924,27.618c-1.381,0-2.5,1.119-2.5,2.5v43.566L124.47,90.297c-1.253,0.579-1.8,2.065-1.221,3.318
					c0.422,0.914,1.327,1.452,2.271,1.452c0.351,0,0.708-0.074,1.047-0.231l37.405-17.284c0.885-0.409,1.451-1.295,1.451-2.27
					V30.118C165.424,28.737,164.305,27.618,162.924,27.618z"/>
			</g>
		</g>
		<g>
			<g>
				<path d="M164.018,27.87L126.613,9.664c-0.69-0.336-1.498-0.336-2.188,0L87.021,27.87c-1.241,0.604-1.758,2.101-1.154,3.342
					c0.605,1.242,2.101,1.758,3.342,1.154l36.31-17.674l31.572,15.368L124.47,45.133c-1.253,0.579-1.8,2.065-1.221,3.318
					c0.422,0.914,1.327,1.452,2.271,1.452c0.351,0,0.708-0.074,1.047-0.231l37.405-17.284c0.876-0.405,1.441-1.279,1.451-2.244
					C165.434,29.178,164.886,28.293,164.018,27.87z"/>
			</g>
		</g>
	</g>
</g>
<g id="Layer_48">
</g>
<g id="Layer_49">
</g>
<g id="Layer_50">
</g>
<g id="Layer_51">
</g>
<g id="Layer_52">
</g>
<g id="Layer_53">
</g>
<g id="Layer_54">
</g>
<g id="Layer_55">
</g>
<g id="Layer_56">
</g>
<g id="Layer_57">
</g>
<g id="Layer_58">
</g>
<g id="Layer_59">
</g>
<g id="Layer_60">
</g>
<g id="Layer_61">
</g>
<g id="Layer_62">
</g>
<g id="Layer_63">
</g>
<g id="Layer_64">
</g>
<g id="Layer_65">
</g>
<g id="Layer_66">
</g>
<g id="Layer_67">
</g>
<g id="Layer_68">
</g>
<g id="Layer_69">
</g>
<g id="Layer_70">
</g>
<g id="Layer_71">
</g>
<g id="Layer_72">
</g>
<g id="Layer_73">
</g>
<g id="Layer_74">
</g>
<g id="Layer_75">
</g>
<g id="Layer_76">
</g>
<g id="Layer_77">
</g>
<g id="Layer_78">
</g>
<g id="Layer_79">
</g>
<g id="Layer_80">
</g>
<g id="Layer_81">
</g>
<g id="Layer_82">
</g>
<g id="Layer_83">
</g>
<g id="Layer_84">
</g>
<g id="Layer_85">
</g>
<g id="Layer_86">
</g>
<g id="Layer_87">
</g>
<g id="Layer_88">
</g>
<g id="Layer_89">
</g>
<g id="Layer_90">
</g>
</svg>
