<?xml version="1.0" encoding="utf-8"?>
<!-- Generator: Adobe Illustrator 16.0.0, SVG Export Plug-In . SVG Version: 6.00 Build 0)  -->
<!DOCTYPE svg PUBLIC "-//W3C//DTD SVG 1.0//EN" "http://www.w3.org/TR/2001/REC-SVG-20010904/DTD/svg10.dtd">
<svg version="1.0" id="Layer_1" xmlns="http://www.w3.org/2000/svg" xmlns:xlink="http://www.w3.org/1999/xlink" x="0px" y="0px"
	 width="100px" height="100px" viewBox="0 0 100 100" enable-background="new 0 0 100 100" xml:space="preserve">
<path d="M90,26.667H75c-7.36,0-13.333,5.97-13.333,13.333v25h15C84.026,65,90,59.03,90,51.667V26.667z"/>
<path d="M71.667,90c-5.521,0-10-4.479-10-10V70h14.996c5.521,0,10,4.479,10,10v10H71.667z"/>
<path d="M10,26.667h15c7.36,0,13.333,5.97,13.333,13.333v25h-15C15.974,65,10,59.03,10,51.667V26.667z"/>
<path d="M28.333,90c5.521,0,10-4.479,10-10V70H23.337c-5.521,0-10,4.479-10,10v10H28.333z"/>
<path d="M52.637,37.214c0.654-8.945,4.421-17.272,10.83-23.679L59.932,10C55.53,14.401,52.136,19.785,50,25.769
	C47.864,19.785,44.47,14.401,40.068,10l-3.535,3.535c6.409,6.406,10.176,14.733,10.83,23.679c-2.37,1.022-4.03,3.379-4.03,6.12
	v33.333c0,3.682,2.988,6.667,6.667,6.667c3.682,0,6.667-2.985,6.667-6.667V43.334C56.667,40.593,55.007,38.236,52.637,37.214z"/>
</svg>
