<svg id="icons" xmlns="http://www.w3.org/2000/svg" viewBox="0 0 64 64"><defs><style>.cls-1{fill:none;stroke:#000;stroke-linecap:round;stroke-linejoin:round;}</style></defs><title>cabbage</title><g id="cabbage"><path class="cls-1" d="M10.56589,31.94266A21.41616,21.41616,0,1,0,52.3682,25.351l-.01374-.01374a21.14891,21.14891,0,0,0-1.799-4.06491,21.41856,21.41856,0,0,0-7.26457-7.52549,20.9214,20.9214,0,0,0-7.31954-2.84268,20.22361,20.22361,0,0,0-3.99626-.38447A21.41236,21.41236,0,0,0,10.56589,31.94266Z"/><path class="cls-1" d="M35.97137,10.90416a20.9214,20.9214,0,0,1,7.31954,2.84268,21.41856,21.41856,0,0,1,7.26457,7.52549,21.14891,21.14891,0,0,1,1.799,4.06491l.01374.01374A4.54288,4.54288,0,0,0,55.252,26.35344a4.72115,4.72115,0,0,0,2.36206-8.80262,3.141,3.141,0,0,0,1.26339-2.54059A3.21174,3.21174,0,0,0,55.664,11.78308a2.88133,2.88133,0,0,0-.769.09614,3.13751,3.13751,0,0,0,.769-2.07365A3.22453,3.22453,0,0,0,49.36074,8.858a3.97231,3.97231,0,0,0-7.22341-.31583,3.97317,3.97317,0,0,0-6.166,2.362Z"/><path class="cls-1" d="M27.991,10.90416a20.92153,20.92153,0,0,0-7.31955,2.84268,21.41862,21.41862,0,0,0-7.26456,7.52549,21.14891,21.14891,0,0,0-1.799,4.06491l-.01374.01374a4.54288,4.54288,0,0,1-2.88384,1.00246,4.72115,4.72115,0,0,1-2.36206-8.80262,3.141,3.141,0,0,1-1.26339-2.54059,3.21174,3.21174,0,0,1,3.21349-3.22715,2.88133,2.88133,0,0,1,.769.09614,3.13751,3.13751,0,0,1-.769-2.07365A3.22453,3.22453,0,0,1,14.60163,8.858,3.97231,3.97231,0,0,1,21.825,8.54218a3.97317,3.97317,0,0,1,6.166,2.362Z"/><path class="cls-1" d="M35.93242,52.98674a20.24889,20.24889,0,0,0,7.3398-2.79,24.42643,24.42643,0,0,0,7.23437-7.50327,16.81142,16.81142,0,0,0,1.8192-4.04033h0a4.84118,4.84118,0,0,1,2.99791-.97666,4.72115,4.72115,0,0,1,2.2987,8.81938,3.14107,3.14107,0,0,1,1.24508,2.54962,3.21174,3.21174,0,0,1-3.23662,3.20395,2.88125,2.88125,0,0,1-.76831-.10166,3.13751,3.13751,0,0,1,.75409,2.07912,3.22453,3.22453,0,0,1-6.30991.90221,3.97231,3.97231,0,0,1-7.22549.26387,3.97317,3.97317,0,0,1-6.14882-2.40627Z"/><path class="cls-1" d="M28.21288,53.02247a20.9462,20.9462,0,0,1-7.34371-2.798,21.41839,21.41839,0,0,1-7.35512-7.437,21.14853,21.14853,0,0,1-1.848-4.04284l-.01392-.01358a4.54287,4.54287,0,0,0-2.89575-.96748A4.72115,4.72115,0,0,0,6.501,46.59415a3.141,3.141,0,0,0-1.23254,2.5557,3.21175,3.21175,0,0,0,3.25232,3.188,2.88163,2.88163,0,0,0,.7678-.10544,3.13751,3.13751,0,0,0-.74387,2.0828,3.22453,3.22453,0,0,0,6.31427.8712,3.97231,3.97231,0,0,0,7.2267.22837,4.00632,4.00632,0,0,0,2.31573.69989A3.9238,3.9238,0,0,0,28.21288,53.02247Z"/><path class="cls-1" d="M35.97138,10.9042a20.91953,20.91953,0,0,1,7.31952,2.84267"/><path class="cls-1" d="M40.37957,17.17592a3.90249,3.90249,0,0,1,3.6529-2.52682,3.46349,3.46349,0,0,1,.65917.05493h.01373"/><path class="cls-1" d="M40.37957,17.17592a4.0721,4.0721,0,0,0-1.82644-.43945,4.01791,4.01791,0,0,0-3.83143,5.24589"/><path class="cls-1" d="M34.7217,21.98236a4.13058,4.13058,0,0,0-1.593-.32959,4.0211,4.0211,0,0,0-3.43317,1.93631"/><path class="cls-1" d="M16.58082,17.05232c.05493.02747.12359.05493.17852.0824a4.03645,4.03645,0,0,1,2.1011,2.44442"/><path class="cls-1" d="M24.29859,23.19084a4.00542,4.00542,0,0,0-4.00995-3.87262,4.05867,4.05867,0,0,0-1.4282.26092"/><path class="cls-1" d="M30.79415,26.63774a2.02712,2.02712,0,0,0,.01374-.28839,4.01839,4.01839,0,0,0-6.5093-3.15851"/><path class="cls-1" d="M35.91645,32.13082a3.8766,3.8766,0,0,0,.39825-1.74405,4.02645,4.02645,0,0,0-4.03741-4.03742,3.80723,3.80723,0,0,0-1.48314.28839"/><path class="cls-1" d="M40.99755,37.19818a4.08325,4.08325,0,0,0,.19225-1.23594,4.04166,4.04166,0,0,0-5.27335-3.83142"/><path class="cls-1" d="M44.65044,41.20813a4.01989,4.01989,0,0,0-3.65289-4.00995"/><path class="cls-1" d="M52.75289,37.17578s-2.30942-7.504-8.1-10.9949"/><path class="cls-1" d="M50.40952,32.19621a4.83173,4.83173,0,0,0-5.75661.28972"/><path class="cls-1" d="M48.0011,28.96894s-1.05105-2.92326.02534-4.986"/><path class="cls-1" d="M30.81154,53.352s-7.27042-5.60945-7.27042-11.169-7.62829-9.43272-7.62829-9.43272"/><path class="cls-1" d="M24.1967,45.23221s-1.04346-4.73011,3.09391-6.73416"/><path class="cls-1" d="M25.47139,47.6144s-2.77471-4.56332-6.84744-4.56332"/><path class="cls-1" d="M21.48381,37.17578a17.51652,17.51652,0,0,0-.81879-5.754"/><path class="cls-1" d="M47.96685,17.68479a10.71351,10.71351,0,0,1,3.7479-5.35926"/><path class="cls-1" d="M17.9652,15.73994c-.23345-.74156-1.37065-2.67258-4.72143-3.83986"/><path class="cls-1" d="M49.8408,43.86106s-1.94688,5.67007.874,8.4909"/><path class="cls-1" d="M15.63547,45.77369a7.31774,7.31774,0,0,1-1.98114,5.82216"/><line class="cls-1" x1="44.65291" y1="41.204" x2="44.67777" y2="49.18477"/></g></svg>