<svg xmlns="http://www.w3.org/2000/svg" width="128" height="128" viewBox="0 0 128 128">
  <title>CABIN</title>
  <g>
    <g>
      <rect x="79.888" y="80.041" width="28.741" height="12.88" fill="#896748"/>
      <rect x="19.372" y="80.041" width="28.741" height="12.88" fill="#896748"/>
      <rect x="19.372" y="105.8" width="28.741" height="12.88" fill="#896748"/>
      <rect x="79.888" y="105.8" width="28.741" height="12.88" fill="#896748"/>
      <rect x="48.112" y="80.041" width="31.775" height="38.639" fill="#fedb41"/>
      <polygon points="120.283 65.638 76.605 30.51 51.395 30.51 7.717 65.638 1.75 58.219 48.043 20.989 79.957 20.989 126.25 58.219 120.283 65.638" fill="#5d452f"/>
      <circle cx="64" cy="54.282" r="12.88" fill="#e5e5e5"/>
      <polygon points="90.147 41.402 76.605 30.51 51.395 30.51 37.853 41.402 90.147 41.402" fill="#896748"/>
      <g>
        <path d="M51.12,54.282H21.838l-2.466,1.983v10.9H64A12.88,12.88,0,0,1,51.12,54.282Z" fill="#896748"/>
        <path d="M106.162,54.282H76.88A12.88,12.88,0,0,1,64,67.161h44.628v-10.9Z" fill="#896748"/>
      </g>
      <g>
        <rect x="19.372" y="67.161" width="89.257" height="12.88" fill="#73553a"/>
        <rect x="19.372" y="92.921" width="28.741" height="12.88" fill="#73553a"/>
        <rect x="79.888" y="92.921" width="28.741" height="12.88" fill="#73553a"/>
        <g>
          <path d="M90.147,41.4H64a12.88,12.88,0,0,1,12.88,12.88h29.282Z" fill="#73553a"/>
          <path d="M21.838,54.282H51.12A12.88,12.88,0,0,1,64,41.4H37.853Z" fill="#73553a"/>
        </g>
      </g>
      <path d="M70.605,103.364a1.75,1.75,0,0,1-1.75-1.75V95.366a1.75,1.75,0,0,1,3.5,0v6.248A1.749,1.749,0,0,1,70.605,103.364Z" fill="#6e77e5"/>
      <rect x="90.105" y="9.32" width="23.836" height="9.821" rx="1.904" fill="#73553a"/>
      <polygon points="108.628 44.047 108.628 19.141 95.418 19.141 95.418 33.423 108.628 44.047" fill="#896748"/>
    </g>
    <g>
      <path d="M127.347,56.855,110.378,43.208V20.891h1.659a3.658,3.658,0,0,0,3.654-3.654V11.224a3.658,3.658,0,0,0-3.654-3.654H92.009a3.658,3.658,0,0,0-3.654,3.654v6.013a3.658,3.658,0,0,0,3.654,3.654h1.659V29.77L81.054,19.626a1.754,1.754,0,0,0-1.1-.387H48.043a1.752,1.752,0,0,0-1.1.387L33.76,30.23a1.75,1.75,0,0,0,2.193,2.728L48.659,22.739H79.341L123.79,58.486l-3.773,4.692L77.7,29.146a1.746,1.746,0,0,0-1.1-.386H51.4a1.746,1.746,0,0,0-1.1.386L7.983,63.178,4.21,58.486l11.54-9.28a1.75,1.75,0,0,0-2.193-2.728L.653,56.855a1.748,1.748,0,0,0-.266,2.46l5.966,7.42A1.75,1.75,0,0,0,8.813,67l8.809-7.084V118.68a1.75,1.75,0,0,0,1.75,1.75h89.256a1.75,1.75,0,0,0,1.75-1.75V59.918L119.186,67a1.753,1.753,0,0,0,1.1.386,1.709,1.709,0,0,0,.189-.01,1.743,1.743,0,0,0,1.174-.643l5.967-7.42A1.748,1.748,0,0,0,127.347,56.855ZM91.855,17.237V11.224a.154.154,0,0,1,.154-.154h20.028a.154.154,0,0,1,.154.154v6.013a.154.154,0,0,1-.154.154H92.009A.154.154,0,0,1,91.855,17.237Zm5.313,3.654h9.71v19.5l-9.71-7.809ZM81.638,94.67h7.237a1.75,1.75,0,0,0,0-3.5H81.638V81.791h25.24V91.17H100.25a1.75,1.75,0,0,0,0,3.5h6.628v9.38H81.638Zm25.24-16.379H21.122v-9.38h85.756ZM21.122,94.67h25.24v9.38H21.122Zm25.24-3.5H21.122V81.791h25.24ZM64,65.411a11.13,11.13,0,1,1,11.13-11.13A11.143,11.143,0,0,1,64,65.411ZM38.469,43.152H54.515a14.792,14.792,0,0,0-5.04,9.379H26.807Zm40.056,9.379a14.79,14.79,0,0,0-5.04-9.379H89.531l7.576,6.093,4.086,3.286ZM75.988,32.26l9.191,7.392H42.821l9.191-7.392ZM22.455,56.031h27.02a14.783,14.783,0,0,0,5.04,9.38H21.122V57.1ZM21.122,107.55h25.24v9.38H21.122Zm28.74-25.759H78.138V116.93H49.862Zm57.016,35.139H81.638v-9.38h25.24Zm0-59.827v8.308H73.485a14.787,14.787,0,0,0,5.04-9.38h27.02Z"/>
      <path d="M23.307,42.633a1.742,1.742,0,0,0,1.1-.386l2.9-2.33a1.75,1.75,0,0,0-2.194-2.728l-2.9,2.331a1.749,1.749,0,0,0,1.1,3.113Z"/>
      <path d="M70.605,93.616a1.751,1.751,0,0,0-1.75,1.75v6.248a1.75,1.75,0,0,0,3.5,0V95.366A1.75,1.75,0,0,0,70.605,93.616Z"/>
    </g>
  </g>
</svg>
