<?xml version="1.0" encoding="utf-8"?>
<!-- Generator: Adobe Illustrator 16.0.0, SVG Export Plug-In . SVG Version: 6.00 Build 0)  -->
<!DOCTYPE svg PUBLIC "-//W3C//DTD SVG 1.0//EN" "http://www.w3.org/TR/2001/REC-SVG-20010904/DTD/svg10.dtd">
<svg version="1.0" id="Layer_1" xmlns="http://www.w3.org/2000/svg" xmlns:xlink="http://www.w3.org/1999/xlink" x="0px" y="0px"
	 width="100px" height="100px" viewBox="0 0 100 100" enable-background="new 0 0 100 100" xml:space="preserve">
<path d="M83.333,13.333h-10V10h-6.666v3.333H33.333V10h-6.666v3.333h-10C13.001,13.333,10,16.332,10,20v63.333
	C10,86.999,13.001,90,16.667,90h66.666C86.999,90,90,86.999,90,83.333V20C90,16.332,86.999,13.333,83.333,13.333z M83.333,83.333
	H16.667v-50h66.666V83.333z M83.333,26.667H16.667V20h66.666V26.667z"/>
<path d="M56.66,68.86c0.003-0.853,0.329-1.705,0.979-2.356l-0.003-0.007l9.431-9.427c1.81-1.81,2.93-4.31,2.93-7.07h-0.004H70
	c0-5.521-4.479-10-10-10s-10,4.479-10,10h6.667c0-1.842,1.49-3.333,3.333-3.333s3.333,1.491,3.333,3.333H63.33
	c0,0.925-0.371,1.752-0.974,2.357l-9.43,9.434c-1.953,1.952-2.93,4.511-2.927,7.069v7.807h20V70H56.66V68.86z"/>
<polygon points="30,40 30,46.667 36.667,46.667 36.667,76.667 43.333,76.667 43.333,40 "/>
</svg>
