<svg id="icons" xmlns="http://www.w3.org/2000/svg" viewBox="0 0 64 64"><defs><style>.cls-1{fill:none;stroke:#000;stroke-linecap:round;stroke-linejoin:round;}</style></defs><title>carrot</title><g id="carrot"><path class="cls-1" d="M39.15882,20.4263a12.31791,12.31791,0,0,0,3.57993-8.39983,4.1365,4.1365,0,1,1,5.84988-5.84988,4.03209,4.03209,0,0,1,1.2,2.69994,4.36033,4.36033,0,0,1,.65-.85,4.14356,4.14356,0,0,1,5.85988,5.85988,2.48116,2.48116,0,0,1-.51.41,4.13662,4.13662,0,1,1-3.81992,6.95986,9.61187,9.61187,0,0,0-2.82994.39,13.58327,13.58327,0,0,0-5.56208,3.18214"/><line class="cls-1" x1="41.78718" y1="22.21785" x2="50.867" y2="13.13803"/><path class="cls-1" d="M46.83715,17.15893l.40866-1.6791a6.0025,6.0025,0,0,0-.40866-3.99135h0"/><path class="cls-1" d="M46.83715,17.15893h0a6.00247,6.00247,0,0,0,3.99136.40866l1.6791-.40866"/><line class="cls-1" x1="42.99584" y1="32.81809" x2="39.82238" y2="29.64463"/><line class="cls-1" x1="28.84893" y1="29.4767" x2="31.68363" y2="32.3114"/><line class="cls-1" x1="19.01984" y1="35.25755" x2="22.307" y2="38.54472"/><line class="cls-1" x1="21.4372" y1="50.43483" x2="18.89494" y2="47.89257"/><path class="cls-1" d="M6.78277,58.97519a1.41326,1.41326,0,0,1-1.75293-1.75293c2.91522-9.82925,24.6343-35.00535,24.6343-35.00535a8.57295,8.57295,0,0,1,12.124,12.124S16.612,56.06,6.78277,58.97519Z"/></g></svg>