<svg id="icons" xmlns="http://www.w3.org/2000/svg" viewBox="0 0 64 64"><defs><style>.cls-1{fill:none;stroke:#000;stroke-linecap:round;stroke-linejoin:round;}</style></defs><title>celery</title><g id="celery"><path class="cls-1" d="M44.81812,23.58481,16.74705,51.65588c-2.27519,2.27519-4.141,2.199-5.331,1.00908a2.63111,2.63111,0,0,1-.79013-2.25615,5.60192,5.60192,0,0,1,1.80873-3.06532L40.54381,19.23434a4.09637,4.09637,0,0,1,.26655-6.94932c1.228.714,4.17911,1.39938,4.17911,2.92252A5.79,5.79,0,0,1,46.703,14.7506a5.95533,5.95533,0,0,1,2.17047.15231,5.9056,5.9056,0,0,1,.11424,2.51318,5.4746,5.4746,0,0,1-.40934,1.38035c1.52313,0,2.20855,2.95108,2.92252,4.17911a4.07676,4.07676,0,0,1-6.68277.60926Z"/><path class="cls-1" d="M48.95407,17.60492c1.58867-.73477,4.14554-1.68592,5.79379-1.249a7.41909,7.41909,0,0,1-.8837,5.86817,5.43429,5.43429,0,0,1,1.44966-.19858,5.27477,5.27477,0,0,1,4.56745,2.64117,5.28345,5.28345,0,0,1-4.55752,2.65111H55.3039a4.25132,4.25132,0,0,1,.96313,4.00148,4.27161,4.27161,0,0,1-5.38164-4.40858L20.77,57.026A9.7522,9.7522,0,1,1,6.97835,43.2343l30.3735-30.37351a4.27994,4.27994,0,0,1-4.87525-5.332A4.27392,4.27392,0,0,1,36.627,8.621l.0695.06951A5.25781,5.25781,0,0,1,39.3377,4.12307a5.25778,5.25778,0,0,1,2.64117,4.56745,4.71934,4.71934,0,0,1-.20851,1.4596,7.38565,7.38565,0,0,1,5.888-.88371c.4071,1.55889-.89355,4.06678-1.529,5.576"/></g></svg>