<svg xmlns="http://www.w3.org/2000/svg" width="128" height="128" viewBox="0 0 128 128">
  <title>CHAIR</title>
  <g>
    <g>
      <path d="M63.984,88.015c-17.4,0-28.571-1.405-35.035-2.641a6.293,6.293,0,0,1-4.715-8.362h0l.464-1.3a6.287,6.287,0,0,1,7.079-4.071c5.555,1.042,15.852,2.372,32.207,2.372,16.38,0,26.683-1.334,32.232-2.377a6.285,6.285,0,0,1,7.069,4.044l.491,1.351a6.294,6.294,0,0,1-4.725,8.335C92.592,86.605,81.408,88.015,63.984,88.015Z" fill="#896748"/>
      <path d="M91.73,16.75V54.44a4,4,0,0,1-4,4H40.23a4,4,0,0,1-4-4V16.75a15.005,15.005,0,0,1,15-15h25.5A15,15,0,0,1,91.73,16.75Z" fill="#896748"/>
      <path d="M35.533,86.417l-6.365,34.438A4.563,4.563,0,0,0,38,123.077L49.362,87.646C43.838,87.351,39.27,86.906,35.533,86.417Z" fill="#5d452f"/>
      <path d="M92.435,86.417,98.8,120.855a4.563,4.563,0,0,1-8.832,2.222L78.606,87.646C84.13,87.351,88.7,86.906,92.435,86.417Z" fill="#5d452f"/>
      <path d="M56.3,73.909V58.438H45.422V73.349C48.593,73.6,52.211,73.8,56.3,73.909Z" fill="#5d452f"/>
      <path d="M71.672,73.909V58.438H82.547V73.349C79.375,73.6,75.757,73.8,71.672,73.909Z" fill="#5d452f"/>
      <path d="M58.05,47.19a1.758,1.758,0,0,1-1.75,1.75H36.23v-3.5H56.3A1.752,1.752,0,0,1,58.05,47.19Z" fill="#73553a"/>
      <path d="M66.984,36.97H54.234a1.75,1.75,0,0,1,0-3.5h12.75a1.75,1.75,0,0,1,0,3.5Z" fill="#73553a"/>
      <path d="M91.73,17.12v3.5H69.42a1.75,1.75,0,1,1,0-3.5Z" fill="#73553a"/>
      <path d="M86.671,42H79.546a1.75,1.75,0,0,1,0-3.5h7.125a1.75,1.75,0,0,1,0,3.5Z" fill="#73553a"/>
    </g>
    <g>
      <path d="M105.421,76.438l-.49-1.352a8.012,8.012,0,0,0-9.038-5.166c-2.761.519-6.58,1.084-11.6,1.531V60.189h3.438a5.757,5.757,0,0,0,5.75-5.75V16.752A16.769,16.769,0,0,0,76.734,0h-25.5a16.769,16.769,0,0,0-16.75,16.75,1.75,1.75,0,1,0,3.5,0A13.264,13.264,0,0,1,51.234,3.5h25.5a13.264,13.264,0,0,1,13.25,13.25v.375H69.421a1.75,1.75,0,0,0,0,3.5H89.984V54.439a2.252,2.252,0,0,1-2.25,2.25h-47.5a2.252,2.252,0,0,1-2.25-2.25v-5.5H56.3a1.75,1.75,0,0,0,0-3.5H37.984V30.1a1.75,1.75,0,0,0-3.5,0V54.439a5.757,5.757,0,0,0,5.75,5.75h3.437V71.451c-5-.446-8.815-1.01-11.571-1.527a8.007,8.007,0,0,0-9.049,5.2l-.459,1.283A8.044,8.044,0,0,0,28.62,87.1c1.379.263,3,.538,4.86.806l-6.033,32.637a6.313,6.313,0,0,0,12.22,3.075L50.619,89.459c3.982.191,8.415.308,13.365.308s9.382-.117,13.365-.308l2.184,6.811A1.75,1.75,0,0,0,82.866,95.2l-1.9-5.939c3.364-.218,6.731-.51,10.052-.9l6.065,32.815a2.813,2.813,0,0,1-5.445,1.37l-1.824-5.688a1.75,1.75,0,0,0-3.333,1.068l1.824,5.689a6.313,6.313,0,0,0,12.219-3.075L94.489,87.9c1.869-.27,3.5-.547,4.892-.813a8.043,8.043,0,0,0,6.04-10.65ZM80.8,60.189V71.725c-2.347.163-4.817.29-7.375.38V60.189Zm-26.25,0V72.105c-2.557-.09-5.027-.217-7.375-.38V60.189Zm3.5,0H69.921V72.205c-1.884.04-3.859.062-5.937.062s-4.054-.022-5.938-.062ZM47.006,89.263,36.334,122.544a2.813,2.813,0,0,1-5.445-1.37l6.065-32.815C40.275,88.753,43.645,89.044,47.006,89.263Zm54.805-7.825a4.528,4.528,0,0,1-3.088,2.213A157.946,157.946,0,0,1,78.555,85.9c-4.264.229-9.105.369-14.571.369S53.663,86.126,49.4,85.9a157.786,157.786,0,0,1-20.118-2.24,4.545,4.545,0,0,1-3.4-6.053l.466-1.3a4.523,4.523,0,0,1,5.108-2.941c5.841,1.1,16.227,2.4,32.529,2.4s26.709-1.309,32.556-2.408a4.525,4.525,0,0,1,5.1,2.921l.49,1.352A4.552,4.552,0,0,1,101.811,81.438Z"/>
      <path d="M86.779,107.4l-.882-2.748a1.75,1.75,0,0,0-3.333,1.068l.882,2.749a1.75,1.75,0,0,0,3.333-1.069Z"/>
      <path d="M66.984,36.971a1.75,1.75,0,0,0,0-3.5H54.234a1.75,1.75,0,0,0,0,3.5Z"/>
      <path d="M86.671,42a1.75,1.75,0,0,0,0-3.5H79.546a1.75,1.75,0,0,0,0,3.5Z"/>
    </g>
  </g>
</svg>
