<svg xmlns="http://www.w3.org/2000/svg" width="128" height="128" viewBox="0 0 128 128">
  <title>CHAINSAW</title>
  <g>
    <g>
      <path d="M24.308,54.214l-2.253,2.253,7.177,7.177-7.126,7.127-7.177-7.178-7.14,7.139a9.216,9.216,0,0,0,0,13.032l27.921,27.92L70.146,77.248,47.112,54.214A16.125,16.125,0,0,0,24.308,54.214Z" fill="#57555c"/>
      <path d="M15.508,91.483,7.745,112.914a4.607,4.607,0,0,0,1.073,4.827l7.16,7.16a4.608,4.608,0,0,0,6.516,0L35.71,111.684Zm3.728,25.362L16,113.61l2.745-7.576,5.65,5.65Z" fill="#6e77e5"/>
      <rect x="27.421" y="69.427" width="30.271" height="29.335" transform="translate(-46.999 54.723) rotate(-45)" fill="#fedb41"/>
      <rect x="36.635" y="78.642" width="11.842" height="10.906" transform="translate(-46.999 54.723) rotate(-45)" fill="#fea832"/>
      <path d="M6.529,48.068h0a5.04,5.04,0,0,0,0,7.126L22.106,70.771l7.126-7.127L13.656,48.068A5.04,5.04,0,0,0,6.529,48.068Z" fill="#6e77e5"/>
      <path d="M122.946,26.554,112.8,20.7c-.042-.1-.1-.2-.142-.3l3.059-11.414-11.414,3.058c-.1-.044-.2-.1-.306-.142L98.143,1.75l-5.752,9.962a15.9,15.9,0,0,0-2.614,1.245l-8.818-2.363,2.207,8.238-8.273,8.273L66.655,24.9l2.208,8.238-8.274,8.273L52.351,39.2l2.208,8.238-7.111,7.11,22.7,22.7,7.111-7.11L85.5,72.345l-2.208-8.238,8.273-8.273L99.8,58.041,97.591,49.8l8.273-8.273,8.238,2.208-2.363-8.819a15.863,15.863,0,0,0,1.246-2.614Z" fill="#e5e5e5"/>
      <path d="M70.146,64.216,60.48,54.55,93.1,21.926a6.835,6.835,0,1,1,9.667,9.666Z" fill="#aeadb3"/>
    </g>
    <g>
      <path d="M14.764,114.848,18,118.082a1.749,1.749,0,0,0,2.475,0l5.16-5.161a1.748,1.748,0,0,0,0-2.474l-5.65-5.651a1.751,1.751,0,0,0-2.883.642l-2.745,7.576A1.75,1.75,0,0,0,14.764,114.848Zm4.69-5.631,2.467,2.467-2.685,2.686-1.211-1.21Z"/>
      <path d="M97.937,18.177a8.526,8.526,0,0,0-6.07,2.512L85,27.559a1.75,1.75,0,1,0,2.475,2.475l6.871-6.871a5.085,5.085,0,0,1,7.191,7.192L70.146,61.741,62.955,54.55l7.359-7.36a1.75,1.75,0,0,0-2.474-2.475l-8.6,8.6a1.748,1.748,0,0,0,0,2.474l9.666,9.667a1.752,1.752,0,0,0,2.475,0L104.008,32.83a8.582,8.582,0,0,0-6.071-14.653Z"/>
      <path d="M77.077,39.7a1.743,1.743,0,0,0,1.237-.513l1.158-1.156A1.75,1.75,0,0,0,77,35.558L75.84,36.715A1.751,1.751,0,0,0,77.077,39.7Z"/>
      <path d="M41.65,74.815l-8.374,8.373a1.751,1.751,0,0,0,0,2.475l7.712,7.711a1.749,1.749,0,0,0,2.475,0l6.1-6.1A1.75,1.75,0,1,0,47.085,84.8l-4.859,4.859-5.237-5.238,7.135-7.136a1.749,1.749,0,1,0-2.474-2.474Z"/>
      <path d="M123.821,25.038l-9.175-5.3,2.763-10.31a1.75,1.75,0,0,0-2.143-2.143L104.955,10.05,99.658.875a1.75,1.75,0,0,0-3.031,0L91.184,10.3a17.573,17.573,0,0,0-1.644.778L81.412,8.9a1.75,1.75,0,0,0-2.143,2.143l1.945,7.262L74.37,25.154l-7.262-1.946a1.75,1.75,0,0,0-2.143,2.143l1.945,7.262-6.844,6.845-7.261-1.947a1.75,1.75,0,0,0-2.144,2.144l1.946,7.262-5.2,5.2a17.887,17.887,0,0,0-24.333.856l-1.015,1.015-7.161-7.161a6.789,6.789,0,0,0-9.6,9.6l7.162,7.161-5.9,5.9A10.977,10.977,0,0,0,6.552,85l6.932,6.932L6.1,112.318h0a6.383,6.383,0,0,0,1.482,6.661l7.16,7.159a6.357,6.357,0,0,0,8.99,0L77.78,72.089l7.262,1.946a1.75,1.75,0,0,0,2.143-2.143L85.239,64.63l6.845-6.844,7.262,1.946a1.75,1.75,0,0,0,2.143-2.144l-1.946-7.262,6.845-6.844,7.261,1.946a1.75,1.75,0,0,0,2.144-2.143l-2.179-8.129a17.933,17.933,0,0,0,.778-1.642l9.429-5.445a1.75,1.75,0,0,0,0-3.031ZM7.767,49.305a3.289,3.289,0,0,1,4.651,0L26.757,63.644,22.106,68.3,7.767,53.957A3.292,3.292,0,0,1,7.767,49.305ZM6.84,77.248A7.415,7.415,0,0,1,9.027,71.97l5.9-5.9,5.94,5.94a1.748,1.748,0,0,0,2.474,0l7.127-7.127a1.766,1.766,0,0,0,0-2.474l-5.94-5.94,1.015-1.015a14.392,14.392,0,0,1,20.33,0l21.8,21.8-4.041,4.041L44.124,61.783a1.75,1.75,0,0,0-2.474,0l-21.4,21.405a1.749,1.749,0,0,0,0,2.475l19.506,19.505-4.041,4.041L9.027,82.526A7.415,7.415,0,0,1,6.84,77.248Zm35.386,25.445L23.957,84.425,42.887,65.5,61.155,83.764Zm-20.97,20.97a2.927,2.927,0,0,1-4.041,0L10.056,116.5a2.868,2.868,0,0,1-.666-2.994l6.826-18.844,17.019,17.018ZM112.109,30.79a1.747,1.747,0,0,0-.767.911,14.134,14.134,0,0,1-1.109,2.326,1.752,1.752,0,0,0-.184,1.346l1.579,5.89-5.311-1.423a1.747,1.747,0,0,0-1.69.453l-8.274,8.273a1.749,1.749,0,0,0-.453,1.69l1.423,5.31-5.309-1.422a1.746,1.746,0,0,0-1.691.453L82.05,62.87a1.746,1.746,0,0,0-.453,1.69l1.423,5.31-5.31-1.423a1.751,1.751,0,0,0-1.691.453l-5.873,5.873L49.923,54.55,55.8,48.677a1.749,1.749,0,0,0,.453-1.691l-1.422-5.309L60.136,43.1a1.75,1.75,0,0,0,1.691-.454L70.1,34.373a1.749,1.749,0,0,0,.453-1.69l-1.423-5.31L74.44,28.8a1.757,1.757,0,0,0,1.691-.453L84.4,20.069a1.744,1.744,0,0,0,.453-1.69l-1.422-5.31,5.889,1.579a1.754,1.754,0,0,0,1.344-.185A14.262,14.262,0,0,1,93,13.354a1.751,1.751,0,0,0,.912-.768L98.143,5.25l4.34,7.52a1.966,1.966,0,0,0,.92.776l.2.1a1.763,1.763,0,0,0,1.15.085l8.486-2.274-2.274,8.486a1.739,1.739,0,0,0,.088,1.155l.122.261a1.741,1.741,0,0,0,.747.857l7.519,4.342Z"/>
    </g>
  </g>
</svg>
