<?xml version="1.0" encoding="utf-8"?>
<!-- Generator: Adobe Illustrator 16.0.0, SVG Export Plug-In . SVG Version: 6.00 Build 0)  -->
<!DOCTYPE svg PUBLIC "-//W3C//DTD SVG 1.0//EN" "http://www.w3.org/TR/2001/REC-SVG-20010904/DTD/svg10.dtd">
<svg version="1.0" id="Layer_1" xmlns="http://www.w3.org/2000/svg" xmlns:xlink="http://www.w3.org/1999/xlink" x="0px" y="0px"
	 width="100px" height="100px" viewBox="0 0 100 100" enable-background="new 0 0 100 100" xml:space="preserve">
<path d="M80,50c-5.521,0-10,4.479-10,10c0,4.346,2.793,8.008,6.667,9.389v2.277c0,6.445-5.222,11.668-11.667,11.668
	s-11.667-5.223-11.667-11.668v-2.002c7.604-1.545,13.334-8.271,13.334-16.33c0-8.062-5.729-14.786-13.334-16.332V16.667h10
	C67.012,16.667,70,13.682,70,10H30c0,3.68,2.985,6.667,6.667,6.667h10v20.335c-7.607,1.546-13.334,8.268-13.334,16.332
	c0,8.059,5.727,14.785,13.334,16.33v2.002c0,6.445-5.222,11.668-11.667,11.668s-11.667-5.223-11.667-11.668v-2.277
	C27.207,68.008,30,64.346,30,60c0-5.521-4.479-10-10-10s-10,4.479-10,10c0,4.346,2.793,8.008,6.667,9.389v2.277
	C16.667,81.793,24.873,90,35,90c6.208,0,11.683-3.092,15-7.813C53.317,86.908,58.792,90,65,90c10.127,0,18.333-8.207,18.333-18.334
	v-2.277C87.207,68.008,90,64.346,90,60C90,54.479,85.521,50,80,50z M20,63.334c-1.839,0-3.333-1.494-3.333-3.334
	c0-1.842,1.494-3.334,3.333-3.334s3.333,1.492,3.333,3.334C23.333,61.84,21.839,63.334,20,63.334z M50,63.334
	c-5.521,0-10-4.48-10-10c0-5.523,4.479-10,10-10s10,4.478,10,10C60,58.854,55.521,63.334,50,63.334z M80,63.334
	c-1.839,0-3.333-1.494-3.333-3.334c0-1.842,1.494-3.334,3.333-3.334s3.333,1.492,3.333,3.334C83.333,61.84,81.839,63.334,80,63.334z
	"/>
</svg>
