<svg id="Filled_stroke_cut_Ex" data-name="Filled stroke cut Ex" xmlns="http://www.w3.org/2000/svg" width="512" height="512" viewBox="0 0 512 512">
  <title>chef- man- user- avatar- people- mask</title>
  <path d="M56,488V380a30,30,0,0,1,18.462-27.692L152,320H360l77.538,32.308A30,30,0,0,1,456,380V488Z" style="fill: #333"/>
  <polygon points="256 384 320 304 304 240 208 240 192 304 256 384" style="fill: #ffd4cf"/>
  <polygon points="328 272 256 344 184 272 144 320 256 384 360 320 328 272" style="fill: #b02c14"/>
  <g>
    <path d="M304,240H208l-5.32,21.281,21.357,18.15A36.034,36.034,0,0,0,247.351,288H264.6a36.022,36.022,0,0,0,23.428-8.667l21.25-18.214Z" style="fill: #fbb8b0"/>
    <path d="M348,128H328V112H184v16H164a20,20,0,0,0-20,20v16a20,20,0,0,0,20,20h20v31.159a20,20,0,0,0,7.048,15.24L234.4,267.24A20,20,0,0,0,247.351,272H264.6a20,20,0,0,0,13.015-4.815l43.4-37.2A20,20,0,0,0,328,214.8V184h20a20,20,0,0,0,20-20V148A20,20,0,0,0,348,128Z" style="fill: #ffd4cf"/>
    <path d="M184.018,215.994a20,20,0,0,0,7.03,14.405L234.4,267.24A20,20,0,0,0,247.351,272H264.6a20,20,0,0,0,13.015-4.815l43.4-37.2a20,20,0,0,0,6.948-14L256,192Z" style="fill: #ebebeb"/>
  </g>
  <path d="M344,104l-88,24-88-24,14.392-71.961A10,10,0,0,1,192.2,24H319.8a10,10,0,0,1,9.806,8.039Z" style="fill: #4d4d4d"/>
  <path d="M128,488V408l88-48,40,24,104-64,77.538,32.308A30,30,0,0,1,456,380V488" style="fill: #4d4d4d"/>
  <path d="M283.429,432H228.571a10,10,0,0,1-9.744-12.249L240,328l16,8,16-8,21.173,91.751A10,10,0,0,1,283.429,432Z" style="fill: #e64b30"/>
  <g>
    <rect x="216" y="144" width="16" height="24"/>
    <rect x="280" y="144" width="16" height="24"/>
    <path d="M440.616,344.923l-75.3-31.376-30.656-45.985a8,8,0,0,0-12.313-1.219l-2.809,2.809L313.9,246.621l12.32-10.56A27.968,27.968,0,0,0,336,214.8V192h12a28.032,28.032,0,0,0,28-28V148a28.032,28.032,0,0,0-28-28H336v-5.526l10.105-2.756a8,8,0,0,0,5.74-9.287l-8-40-15.69,3.138,6.536,32.678L256,119.708,177.309,98.247l12.928-64.639A2,2,0,0,1,192.2,32H319.8a2,2,0,0,1,1.961,1.608l3.192,15.961,15.69-3.138L337.453,30.47A18.05,18.05,0,0,0,319.8,16H192.2a18.05,18.05,0,0,0-17.651,14.47l-14.392,71.961a8,8,0,0,0,5.74,9.287l10.1,2.756V120H164a28.032,28.032,0,0,0-28,28v16a28.032,28.032,0,0,0,28,28h12v23.159a27.956,27.956,0,0,0,9.868,21.336l12.175,10.347-5.577,22.31-2.809-2.809a8,8,0,0,0-11.8.535l-40,48a8.013,8.013,0,0,0-1.568,3l-64.9,27.043A37.9,37.9,0,0,0,48,380v28H64V380a21.942,21.942,0,0,1,13.539-20.308l69.281-28.867L198.568,360.4l-74.4,40.581A8,8,0,0,0,120,408v72H64V424H48v64a8,8,0,0,0,8,8H456a8,8,0,0,0,8-8V380A37.9,37.9,0,0,0,440.616,344.923ZM226.622,421.55,245.51,339.7l6.912,3.456a8,8,0,0,0,7.156,0l6.912-3.456,18.888,81.852A2,2,0,0,1,283.43,424H228.57a2,2,0,0,1-1.948-2.45Zm122.12-104.015-62.125,38.23-5.825-25.244,45.965-45.964ZM348,136a12.013,12.013,0,0,1,12,12v16a12.013,12.013,0,0,1-12,12H336V136Zm-94.1-.282a8,8,0,0,0,4.21,0L320,118.838V204.9l-61.47-20.49a7.992,7.992,0,0,0-5.06,0L192,204.9V118.838ZM164,176a12.013,12.013,0,0,1-12-12V148a12.013,12.013,0,0,1,12-12h12v40Zm29.641,45.219L256,200.433l62.178,20.726a11.994,11.994,0,0,1-2.369,2.753l-43.4,37.2A12.008,12.008,0,0,1,264.6,264H247.351a12.009,12.009,0,0,1-7.771-2.856L196.229,224.3A12.01,12.01,0,0,1,193.641,221.219Zm18,37.183,17.572,14.933A28.025,28.025,0,0,0,247.351,280H264.6a28.019,28.019,0,0,0,18.222-6.741l17.5-15,6.021,24.083-39.079,39.079L256,327.056l-11.261-5.631L205.66,282.346Zm-27.108,25.449,46.67,46.67-5.934,25.714-5.158-3.1a7.984,7.984,0,0,0-3.99-1.139l-59.87-34.211ZM448,480H136V412.749l79.811-43.533,5.681,3.409-10.46,45.327A18,18,0,0,0,228.57,440h54.86a18,18,0,0,0,17.538-22.047l-10.554-45.737,70.291-43.256,73.756,30.732A21.942,21.942,0,0,1,448,380Z"/>
    <rect x="152" y="424" width="16" height="16"/>
  </g>
</svg>
