<svg id="icons" xmlns="http://www.w3.org/2000/svg" viewBox="0 0 64 64"><defs><style>.cls-1{fill:none;stroke:#000;stroke-linecap:round;stroke-linejoin:round;}</style></defs><title>cherries</title><g id="cherries"><path class="cls-1" d="M42.28,21.19c0,.41-.02.83-.06006,1.25a12.10035,12.10035,0,0,1-.28,1.82,12.7271,12.7271,0,0,1-.77,2.38,13.92723,13.92723,0,0,0-11.72,8.43c-.19.02-.39.03-.58.04-.17.01-.35.01-.52.01a13.935,13.935,0,1,1,12.3-20.46,13.49041,13.49041,0,0,1,1.45,4.3A13.697,13.697,0,0,1,42.28,21.19Z"/><path class="cls-1" d="M22.9877,11.50908A13.87886,13.87886,0,0,1,29.7742,9.749"/><path class="cls-1" d="M19.822,13.92707a14.0159,14.0159,0,0,1,1.43913-1.27832"/><path class="cls-1" d="M30.97,48.68A13.93937,13.93937,0,1,1,17.41,29.8a13.85676,13.85676,0,0,0,10.94,5.32c.17,0,.35,0,.52-.01.19-.01.39-.02.58-.04a13.95883,13.95883,0,0,0,1.52,13.61Z"/><path class="cls-1" d="M13.35041,54.34492a13.99814,13.99814,0,0,1-4.87153-4.0195"/><path class="cls-1" d="M56.22,40.53a13.94381,13.94381,0,1,1-15.05-13.89,10.29625,10.29625,0,0,1,1.11-.05A13.95016,13.95016,0,0,1,56.22,40.53Z"/><path class="cls-1" d="M51.89036,46.70759a13.97477,13.97477,0,0,1-6.57557,4.84475"/><path class="cls-1" d="M43.523,52.0486a14.00787,14.00787,0,0,1-2.82641.28657"/><path class="cls-1" d="M50.83,16.65a.2498.2498,0,0,1-.04.07,14.63,14.63,0,0,0-8.69,2.24,13.49041,13.49041,0,0,0-1.45-4.3,10.65548,10.65548,0,0,1,.76-2.34,10.34172,10.34172,0,0,1,8.47-5.98A10.311,10.311,0,0,1,50.83,16.65Z"/><path class="cls-1" d="M60,21.07a13.66227,13.66227,0,0,1-9.69,8.07,13.82629,13.82629,0,0,0-8.03-2.55,10.29625,10.29625,0,0,0-1.11.05,12.7271,12.7271,0,0,0,.77-2.38,12.10035,12.10035,0,0,0,.28-1.82c.04-.42.06006-.84.06006-1.25a13.697,13.697,0,0,0-.18-2.23,14.63,14.63,0,0,1,8.69-2.24A13.51534,13.51534,0,0,1,60,21.07Z"/><line class="cls-1" x1="48.45261" y1="23.1066" x2="41.94143" y2="24.26134"/></g></svg>