<svg id="icons" xmlns="http://www.w3.org/2000/svg" viewBox="0 0 64 64"><defs><style>.cls-1{fill:none;stroke:#000;stroke-linecap:round;stroke-linejoin:round;}</style></defs><title>cherry</title><g id="cherry"><path class="cls-1" d="M57.70186,42.33881a11.536,11.536,0,0,1-19.553,12.24735c-3.24082-5.174-3.97071-11.52227,1.368-14.43753.23-.12561,2.34512-.86524,2.573-1.00236.19958-.12007,1.67114-1.65364,1.81885-1.76453C49.02825,33.53846,54.41894,37.0976,57.70186,42.33881Z"/><path class="cls-1" d="M54.86916,42.90414a9.65618,9.65618,0,0,1,1.18056,1.886"/><path class="cls-1" d="M50.42243,39.01555a8.56453,8.56453,0,0,1,2.90287,2.3417"/><path class="cls-1" d="M25.55169,55.0398A11.536,11.536,0,0,1,6.59654,41.88617c3.48063-5.01579,9.02912-8.1856,13.81051-4.42534.206.162,1.71848,1.81522,1.93425,1.97077.18893.1362,2.17794.88531,2.338.97745C30.22745,43.60236,29.07754,49.95884,25.55169,55.0398Z"/><path class="cls-1" d="M7.51652,50.98946a11.55492,11.55492,0,0,1,.02881-5.8988"/><path class="cls-1" d="M42.09,39.14627S32.209,25.092,32.209,4"/><path class="cls-1" d="M22.328,39.42037s9.881-14.0543,9.881-35.14627"/><path class="cls-1" d="M32.1073,7.96674a11.81572,11.81572,0,0,0-11.41292.25957,11.87685,11.87685,0,0,0-6.0665,8.95942.97781.97781,0,0,0,.55515.98342,11.87662,11.87662,0,0,0,10.8053-.565A11.81549,11.81549,0,0,0,32.1073,7.96674Z"/><line class="cls-1" x1="32.1073" y1="7.96674" x2="24.28292" y2="12.62697"/></g></svg>