<svg xmlns="http://www.w3.org/2000/svg" viewBox="0 0 64 64"><g id="_22-Gift_Boxes" data-name="22-Gift Boxes"><path d="M22,11.75a11.967,11.967,0,0,1,17.4,0,13.064,13.064,0,0,1,3.58,8.39A13.041,13.041,0,0,0,41,21.75a12.678,12.678,0,0,0-2.13-1.71,9.492,9.492,0,0,0-2.79-5.22,10.2,10.2,0,0,0-14.08,0,10.2,10.2,0,0,0-14.08,0,9.372,9.372,0,0,0,0,13.59L22,42l1.47-1.42,2.9,2.87L22,48,4.6,29.88a13.213,13.213,0,0,1,0-18.13A11.967,11.967,0,0,1,22,11.75Z" style="fill:#fcbcc5"/><path d="M20,11.75a12.632,12.632,0,0,1,1-.93,11.937,11.937,0,0,0-8.7-2.77A12.031,12.031,0,0,1,20,11.75Z" style="fill:#fc98b0"/><path d="M7.92,28.41a9.372,9.372,0,0,1,0-13.59,10.063,10.063,0,0,1,6.04-2.77,10.142,10.142,0,0,0-8.04,2.77,9.372,9.372,0,0,0,0,13.59L20,42l1-.966Z" style="fill:#fc98b0"/><path d="M21,13.986a9.931,9.931,0,0,1,1,.834,10.063,10.063,0,0,1,6.04-2.77A10.184,10.184,0,0,0,21,13.986Z" style="fill:#fc98b0"/><polygon points="22.458 41.558 24.37 43.45 21 46.959 22 48 26.37 43.45 23.47 40.58 22.458 41.558" style="fill:#fc98b0"/><path d="M39.4,11.75a12.009,12.009,0,0,0-9.7-3.7,12.057,12.057,0,0,1,7.7,3.7,13.064,13.064,0,0,1,3.58,8.39c-.335.22-.66.462-.978.718a12.457,12.457,0,0,1,1,.892,13.041,13.041,0,0,1,1.98-1.61A13.064,13.064,0,0,0,39.4,11.75Z" style="fill:#fc98b0"/><path d="M18.14,18.75a2.341,2.341,0,0,1,0,3.63L14,26,9.86,22.38a2.341,2.341,0,0,1,0-3.63,3.232,3.232,0,0,1,4.14,0A3.232,3.232,0,0,1,18.14,18.75Z" style="fill:#fc8aa3"/><path d="M18.14,18.75a3.231,3.231,0,0,0-3.07-.589,2.974,2.974,0,0,1,1.07.589,2.341,2.341,0,0,1,0,3.63L13,25.126,14,26l4.14-3.62A2.341,2.341,0,0,0,18.14,18.75Z" style="fill:#f45b7d"/><path d="M20.1,36a12.594,12.594,0,0,0,2.67,3.88l.7.7L22,42,7.92,28.41a9.372,9.372,0,0,1,0-13.59,10.2,10.2,0,0,1,14.08,0,10.2,10.2,0,0,1,14.08,0,9.492,9.492,0,0,1,2.79,5.22,12.972,12.972,0,0,0-16.1,1.71A12.782,12.782,0,0,0,20.1,36ZM18.14,22.38a2.341,2.341,0,0,0,0-3.63,3.232,3.232,0,0,0-4.14,0,3.232,3.232,0,0,0-4.14,0,2.341,2.341,0,0,0,0,3.63L14,26Z" style="fill:#9891c3"/><path d="M32.08,14.82a9.574,9.574,0,0,1,2.267,3.428A12.841,12.841,0,0,1,38.87,20.04a9.492,9.492,0,0,0-2.79-5.22,10.165,10.165,0,0,0-9.04-2.62A10.013,10.013,0,0,1,32.08,14.82Z" style="fill:#897cac"/><path d="M12,24.251,9.86,22.38a2.341,2.341,0,0,1,0-3.63c.022-.019.048-.032.07-.05a3.23,3.23,0,0,0-4.07.05,2.546,2.546,0,0,0-.617.8,9.242,9.242,0,0,0-.206,1.371A2.45,2.45,0,0,0,5.86,22.38L10,26Z" style="fill:#897cac"/><path d="M20.1,36a12.782,12.782,0,0,1,2.67-14.25,12.881,12.881,0,0,1,7.14-3.586A12.944,12.944,0,0,0,18.77,21.75,12.782,12.782,0,0,0,16.1,36c.087.2.192.391.291.586L22,42l1.47-1.42-.7-.7A12.594,12.594,0,0,1,20.1,36Z" style="fill:#897cac"/><path d="M12,18.006a3.128,3.128,0,0,1,2,.744c.022-.019.048-.032.07-.05A3.146,3.146,0,0,0,12,18.006Z" style="fill:#897cac"/><path d="M62.87,29a12.717,12.717,0,0,1-.97,7H20.1a12.717,12.717,0,0,1-.97-7H62.87Z" style="fill:#b7effe"/><path d="M62.87,29h-4a12.717,12.717,0,0,1-.97,7h4A12.717,12.717,0,0,0,62.87,29Z" style="fill:#2ed0fa"/><path d="M33,36H61.9a12.594,12.594,0,0,1-2.67,3.88L41,58,26.37,43.45l-2.9-2.87-.7-.7A12.594,12.594,0,0,1,20.1,36Z" style="fill:#fc708d"/><path d="M57.9,36a12.594,12.594,0,0,1-2.67,3.88L39,56.011,41,58,59.23,39.88A12.594,12.594,0,0,0,61.9,36Z" style="fill:#f45b7d"/><path d="M62.87,29H19.13a12.81,12.81,0,0,1,3.64-7.25,12.972,12.972,0,0,1,16.1-1.71A12.678,12.678,0,0,1,41,21.75a12.942,12.942,0,0,1,18.23,0A12.81,12.81,0,0,1,62.87,29Z" style="fill:#fc708d"/><path d="M59.23,21.75a12.927,12.927,0,0,0-11.142-3.589A12.8,12.8,0,0,1,58.87,29h4A12.81,12.81,0,0,0,59.23,21.75Z" style="fill:#f45b7d"/><path d="M43,28v2a2,2,0,0,1-4,0V28a2.006,2.006,0,0,1,2-2,2.015,2.015,0,0,1,2,2Z" style="fill:#ce748a"/><path d="M50,40l-3-3-2,3c0-3-4-8-4-8a2.006,2.006,0,0,0,2-2,16.2,16.2,0,0,0,5.26,3.3C50,35.37,50,40,50,40Z" style="fill:#b25d74"/><path d="M39,30a2.006,2.006,0,0,0,2,2s-4,5-4,8l-2-3-3,3s0-4.63,1.74-6.7A16.2,16.2,0,0,0,39,30Z" style="fill:#b25d74"/><path d="M55,27a2.938,2.938,0,0,0-3-3c-5,0-9,4-9,4v1H53A1.959,1.959,0,0,0,55,27Z" style="fill:#ea5073"/><path d="M53,29H43v1a16.2,16.2,0,0,0,5.26,3.3A11.049,11.049,0,0,0,52,34a2.938,2.938,0,0,0,3-3A1.959,1.959,0,0,0,53,29Z" style="fill:#d83a5c"/><path d="M29,29a1.959,1.959,0,0,0-2,2,2.938,2.938,0,0,0,3,3,11.049,11.049,0,0,0,3.74-.7A16.2,16.2,0,0,0,39,30V29Z" style="fill:#d83a5c"/><path d="M39,28s-4-4-9-4a2.938,2.938,0,0,0-3,3,1.959,1.959,0,0,0,2,2H39Z" style="fill:#ea5073"/><path d="M41,59a1,1,0,0,1-.7-.291L22.069,40.586a13.765,13.765,0,0,1,0-19.541A13.959,13.959,0,0,1,41,20.391a13.959,13.959,0,0,1,18.931.654,13.765,13.765,0,0,1,0,19.541L41.705,58.709A1,1,0,0,1,41,59ZM31.888,19.006a11.892,11.892,0,0,0-8.409,3.457,11.766,11.766,0,0,0,0,16.7L41,56.59,58.521,39.168a11.766,11.766,0,0,0,0-16.7,11.955,11.955,0,0,0-16.816,0,1,1,0,0,1-1.41,0A11.887,11.887,0,0,0,31.888,19.006Z"/><path d="M22,49h0a1,1,0,0,1-.722-.308l-17.4-18.12a14.243,14.243,0,0,1,0-19.513A12.987,12.987,0,0,1,13.3,7h.007A12.923,12.923,0,0,1,22,10.358,12.923,12.923,0,0,1,30.689,7H30.7a12.989,12.989,0,0,1,9.425,4.057,14.089,14.089,0,0,1,3.858,9.034l-2,.1a12.094,12.094,0,0,0-3.3-7.749A11.012,11.012,0,0,0,30.7,9H30.69a10.987,10.987,0,0,0-7.968,3.442,1.032,1.032,0,0,1-1.444,0A10.987,10.987,0,0,0,13.31,9H13.3A11.013,11.013,0,0,0,5.32,12.443a12.225,12.225,0,0,0,0,16.745L22,46.557l3.648-3.8,1.444,1.385-4.37,4.549A1,1,0,0,1,22,49Z"/><path d="M22,43a1,1,0,0,1-.694-.28L7.226,29.13a10.372,10.372,0,0,1,0-15.029A11.23,11.23,0,0,1,22,13.484a11.231,11.231,0,0,1,14.775.618,10.46,10.46,0,0,1,3.08,5.768l-1.97.34a8.476,8.476,0,0,0-2.5-4.671,9.2,9.2,0,0,0-12.69,0,1,1,0,0,1-1.39,0,9.2,9.2,0,0,0-12.69,0,8.373,8.373,0,0,0,0,12.152L22,40.61l.775-.749L24.164,41.3l-1.47,1.42A.994.994,0,0,1,22,43Z"/><path d="M41,33a3,3,0,0,1-3-3V28a3,3,0,0,1,6,0v2A3,3,0,0,1,41,33Zm0-6a1,1,0,0,0-1,1v2a1,1,0,0,0,2,0V28A1,1,0,0,0,41,27Z"/><path d="M52,35c-5.353,0-9.532-4.117-9.707-4.293l1.413-1.415C43.743,29.329,47.488,33,52,33a1.883,1.883,0,0,0,2-2,.915.915,0,0,0-1-1,1,1,0,0,1,0-2,.918.918,0,0,0,1-1.012A1.882,1.882,0,0,0,51.992,25c-4.5,0-8.249,3.671-8.286,3.708l-1.413-1.415C42.468,27.117,46.647,23,52,23a3.888,3.888,0,0,1,4,4,3.229,3.229,0,0,1-.713,2A3.229,3.229,0,0,1,56,31,3.888,3.888,0,0,1,52,35Z"/><path d="M30,35a3.888,3.888,0,0,1-4-4,3.229,3.229,0,0,1,.713-2A3.229,3.229,0,0,1,26,27a3.888,3.888,0,0,1,4-4c5.353,0,9.532,4.117,9.707,4.293l-1.413,1.415C38.257,28.671,34.512,25,30,25a1.883,1.883,0,0,0-2,2,.915.915,0,0,0,1,1,1,1,0,0,1,0,2,.918.918,0,0,0-1,1.012A1.882,1.882,0,0,0,30.008,33c4.5,0,8.249-3.671,8.286-3.708l1.413,1.415C39.532,30.883,35.353,35,30,35Z"/><path d="M37,41a1,1,0,0,1-.832-.445l-1.323-1.986-2.138,2.138A1,1,0,0,1,31,40c0-.511.056-5.061,1.975-7.344l1.531,1.287a7.565,7.565,0,0,0-1.264,3.4l1.051-1.051a1,1,0,0,1,1.539.152l.708,1.062a26.6,26.6,0,0,1,3.679-6.132l1.562,1.249C40.729,33.94,38,37.831,38,40a1,1,0,0,1-1,1Z"/><path d="M45,41a1,1,0,0,1-1-1c0-2.169-2.729-6.06-3.781-7.376l1.562-1.249a26.6,26.6,0,0,1,3.679,6.132l.708-1.062a1,1,0,0,1,1.539-.152l1.049,1.049a7.573,7.573,0,0,0-1.262-3.4l1.531-1.287C50.944,34.939,51,39.489,51,40a1,1,0,0,1-1.707.707l-2.138-2.138-1.323,1.986A1,1,0,0,1,45,41Z"/><rect x="53" y="28" width="10" height="2"/><rect x="19" y="28" width="10" height="2"/><rect x="20" y="35" width="13" height="2"/><rect x="38" y="35" width="6" height="2"/><rect x="49" y="35" width="13" height="2"/><path d="M14,27a1,1,0,0,1-.658-.247L9.2,23.128A3.343,3.343,0,0,1,9.2,18a4.232,4.232,0,0,1,4.8-.467A4.228,4.228,0,0,1,18.8,18h0a3.343,3.343,0,0,1,0,5.13l-4.143,3.625A1,1,0,0,1,14,27Zm-2.071-8a2.151,2.151,0,0,0-1.413.5,1.345,1.345,0,0,0,0,2.118L14,24.671l3.484-3.049a1.345,1.345,0,0,0,0-2.118,2.239,2.239,0,0,0-2.826,0,1,1,0,0,1-1.316,0A2.151,2.151,0,0,0,11.929,19Z"/><rect x="44.172" y="9" width="5.657" height="2" transform="translate(6.695 36.163) rotate(-45)"/><rect x="42" y="6" width="2" height="5"/><rect x="46" y="13" width="5" height="2"/></g></svg>