<?xml version="1.0" encoding="utf-8"?>
<!-- Generator: Adobe Illustrator 25.2.3, SVG Export Plug-In . SVG Version: 6.00 Build 0)  -->
<svg version="1.1" xmlns="http://www.w3.org/2000/svg" xmlns:xlink="http://www.w3.org/1999/xlink" x="0px" y="0px"
	 viewBox="0 0 64 64" enable-background="new 0 0 64 64" xml:space="preserve">
<g id="_x30_1_cap">
</g>
<g id="_x30_2_belt">
</g>
<g id="_x30_3_messenger_bag">
</g>
<g id="_x30_4_shorts">
</g>
<g id="_x30_5_tank_top">
</g>
<g id="_x30_6_overcoat">
</g>
<g id="_x30_7_boots">
</g>
<g id="_x30_8_jeans_skirt">
</g>
<g id="_x30_9_blouse">
</g>
<g id="_x31_0_trousers">
</g>
<g id="_x31_1_high_heel">
</g>
<g id="_x31_2_backpack">
</g>
<g id="_x31_3_tie">
</g>
<g id="_x31_4_shirt">
	<g>
		<path fill="#55817E" d="M49.76,7.64L49.7,7.69l-2.13,7.12c-0.78,2.59-1.12,5.29-1,8l0.07,1.77l6.45,6.32l8.86-9.96L49.76,7.64z"/>
		<path fill="#55817E" d="M17.44,22.8c0.11-2.7-0.23-5.4-1-8l-2.12-7.06l-0.08-0.09L2.06,20.93l8.86,9.96l6.45-6.32L17.44,22.8z"/>
		<path fill="#C6DEDC" d="M53.04,30.89c0.05,0,8.86-9.96,8.86-9.96l-2.21-2.21l-9.44,9.44L53.04,30.89z"/>
		<path fill="#C6DEDC" d="M10.92,30.89c-0.05,0-8.86-9.96-8.86-9.96l2.21-2.21l9.44,9.44L10.92,30.89z"/>
		<path fill="#71ACA8" d="M47.12,36.16c0.25,6.07,1.12,12.09,2.59,17.98l-5.37,2.69c-0.84,0.42-1.63,0.94-2.36,1.54l-2.15,1.79
			c-1.1,0.92-2.34,1.63-3.67,2.11c-1.16,0.42-2.38,0.66-3.62,0.72C32.36,63,32.18,63,32,63c-0.49,0-0.98-0.03-1.46-0.09
			c-2.33-0.28-4.55-1.22-6.37-2.75l-2.15-1.79c-0.73-0.6-1.52-1.12-2.36-1.54l-5.37-2.69c1.47-5.89,2.34-11.91,2.59-17.98
			l0.56-13.36c0.11-2.71-0.23-5.41-1.01-8l-2.14-7.16l8.85-4.43h17.72l8.85,4.43l-2.14,7.16c-0.78,2.59-1.12,5.29-1.01,8
			L47.12,36.16z"/>
		<g>
			<path fill="#55817E" d="M33.01,5.12l-0.47,57.87C32.36,63,32.18,63,32,63c-0.49,0-0.98-0.03-1.46-0.09L31.01,5.1
				c0.01-0.55,0.46-0.99,1-0.99c0.01,0,0.01,0,0.01,0C32.58,4.12,33.02,4.57,33.01,5.12z"/>
		</g>
		<polygon fill="#C6DEDC" points="25.36,1 38.64,1 32,6.54 		"/>
		<polygon fill="#395654" points="25.36,1 23.14,3.21 26.46,12.07 32,6.54 		"/>
		<polygon fill="#395654" points="38.64,1 40.86,3.21 37.54,12.07 32,6.54 		"/>
		<g>
			<path fill="#C6DEDC" d="M41.64,18.61h-5.32c-0.55,0-1-0.45-1-1s0.45-1,1-1h5.32c0.55,0,1,0.45,1,1S42.2,18.61,41.64,18.61z"/>
		</g>
	</g>
</g>
<g id="_x31_5_suit">
</g>
<g id="_x31_6_winter_vest">
</g>
<g id="_x31_7_suit_and_bow">
</g>
<g id="_x31_8_long_sleeve">
</g>
<g id="_x31_9_socks">
</g>
<g id="_x32_0_shirt">
</g>
<g id="_x32_1_sweater_hood">
</g>
<g id="_x32_2_swimsuit">
</g>
<g id="_x32_3_duffle_bag">
</g>
<g id="_x32_4_dress">
</g>
<g id="_x32_5_overcoat">
</g>
</svg>
