<?xml version="1.0" encoding="utf-8"?>
<!-- Generator: Adobe Illustrator 25.2.3, SVG Export Plug-In . SVG Version: 6.00 Build 0)  -->
<svg version="1.1" xmlns="http://www.w3.org/2000/svg" xmlns:xlink="http://www.w3.org/1999/xlink" x="0px" y="0px"
	 viewBox="0 0 64 64" enable-background="new 0 0 64 64" xml:space="preserve">
<g id="_x30_1_cap">
</g>
<g id="_x30_2_belt">
</g>
<g id="_x30_3_messenger_bag">
</g>
<g id="_x30_4_shorts">
</g>
<g id="_x30_5_tank_top">
	<g>
		<g>
			<g>
				<path fill="#395654" d="M39.42,25.26c-0.31,0-0.61-0.14-0.81-0.41L23.32,3.82L22.12,21.7c-0.04,0.55-0.51,0.96-1.06,0.93
					c-0.55-0.04-0.97-0.51-0.93-1.06L21.5,0.93c0.03-0.42,0.32-0.78,0.72-0.89c0.4-0.12,0.84,0.03,1.09,0.37l16.92,23.26
					c0.33,0.45,0.23,1.07-0.22,1.4C39.83,25.2,39.62,25.26,39.42,25.26z"/>
			</g>
			<g>
				<path fill="#395654" d="M24.58,25.26c-0.2,0-0.41-0.06-0.59-0.19c-0.45-0.32-0.55-0.95-0.22-1.4L40.69,0.41
					c0.25-0.34,0.68-0.49,1.09-0.37c0.4,0.12,0.69,0.47,0.72,0.89l1.37,20.58c0.04,0.55-0.38,1.03-0.93,1.06
					c-0.54,0.02-1.03-0.38-1.06-0.93L40.69,3.82L25.39,24.85C25.2,25.12,24.89,25.26,24.58,25.26z"/>
			</g>
		</g>
		<polygon fill="#C6DEDC" points="55,63 9,63 9.58,58.26 9.61,58 54.39,58 		"/>
		<path fill="#71ACA8" d="M50.47,26c-0.02-0.2-0.84-0.73-1.01-0.89c-0.37-0.34-0.74-0.69-1.09-1.06c-0.71-0.72-1.37-1.48-2-2.27
			c-0.68-0.86-1.3-1.77-1.87-2.7c-0.67-1.1-2.3-0.97-2.79,0.22l-0.34,0.84c-0.75,1.85-2.09,3.42-3.83,4.47l-0.46,0.28
			c-3.11,1.9-7.05,1.9-10.16,0c-2.02-1.22-3.49-3.13-4.14-5.35c0-0.01-0.01-0.02-0.01-0.04c-0.38-1.29-2.08-1.53-2.83-0.41
			c-1.7,2.57-3.8,4.86-6.24,6.76L13.53,26L9.61,58h44.78C54.39,58,50.47,26,50.47,26z"/>
	</g>
</g>
<g id="_x30_6_overcoat">
</g>
<g id="_x30_7_boots">
</g>
<g id="_x30_8_jeans_skirt">
</g>
<g id="_x30_9_blouse">
</g>
<g id="_x31_0_trousers">
</g>
<g id="_x31_1_high_heel">
</g>
<g id="_x31_2_backpack">
</g>
<g id="_x31_3_tie">
</g>
<g id="_x31_4_shirt">
</g>
<g id="_x31_5_suit">
</g>
<g id="_x31_6_winter_vest">
</g>
<g id="_x31_7_suit_and_bow">
</g>
<g id="_x31_8_long_sleeve">
</g>
<g id="_x31_9_socks">
</g>
<g id="_x32_0_shirt">
</g>
<g id="_x32_1_sweater_hood">
</g>
<g id="_x32_2_swimsuit">
</g>
<g id="_x32_3_duffle_bag">
</g>
<g id="_x32_4_dress">
</g>
<g id="_x32_5_overcoat">
</g>
</svg>
