<?xml version="1.0" encoding="utf-8"?>
<!-- Generator: Adobe Illustrator 25.2.3, SVG Export Plug-In . SVG Version: 6.00 Build 0)  -->
<svg version="1.1" xmlns="http://www.w3.org/2000/svg" xmlns:xlink="http://www.w3.org/1999/xlink" x="0px" y="0px"
	 viewBox="0 0 64 64" enable-background="new 0 0 64 64" xml:space="preserve">
<g id="_x30_1_cap">
</g>
<g id="_x30_2_belt">
</g>
<g id="_x30_3_messenger_bag">
</g>
<g id="_x30_4_shorts">
</g>
<g id="_x30_5_tank_top">
</g>
<g id="_x30_6_overcoat">
</g>
<g id="_x30_7_boots">
</g>
<g id="_x30_8_jeans_skirt">
</g>
<g id="_x30_9_blouse">
</g>
<g id="_x31_0_trousers">
</g>
<g id="_x31_1_high_heel">
</g>
<g id="_x31_2_backpack">
</g>
<g id="_x31_3_tie">
</g>
<g id="_x31_4_shirt">
</g>
<g id="_x31_5_suit">
</g>
<g id="_x31_6_winter_vest">
</g>
<g id="_x31_7_suit_and_bow">
</g>
<g id="_x31_8_long_sleeve">
</g>
<g id="_x31_9_socks">
</g>
<g id="_x32_0_shirt">
</g>
<g id="_x32_1_sweater_hood">
	<g>
		<path fill="#71ACA8" d="M44,15c0,0,2.32-9.83-7.4-13.22c-2.98-1.04-6.23-1.04-9.21,0C17.68,5.17,20,15,20,15H44z"/>
		<ellipse fill="#395654" cx="32" cy="15" rx="12" ry="7"/>
		<path fill="#55817E" d="M56.03,29.48L49,20.97l-0.85,1.87c-0.94,2.06-1.63,4.22-2.05,6.44c-0.3,1.58-0.46,3.19-0.49,4.79L50,37v23
			h9V37.6C59,34.63,57.95,31.75,56.03,29.48z"/>
		<g>
			<path fill="#55817E" d="M31.39,21.09c-0.31,0-0.62-0.14-0.81-0.42l-4.39-6.09c-0.32-0.45-0.22-1.07,0.23-1.4
				c0.45-0.32,1.08-0.22,1.4,0.23l4.39,6.09c0.32,0.45,0.22,1.07-0.23,1.4C31.79,21.03,31.59,21.09,31.39,21.09z"/>
		</g>
		<g>
			<path fill="#55817E" d="M33.05,21.09c-0.2,0-0.41-0.06-0.58-0.19c-0.45-0.32-0.55-0.95-0.23-1.4l4.39-6.09
				c0.32-0.45,0.95-0.55,1.4-0.23c0.45,0.32,0.55,0.95,0.23,1.4l-4.39,6.09C33.67,20.95,33.36,21.09,33.05,21.09z"/>
		</g>
		<path fill="#55817E" d="M17.9,29.28c-0.42-2.22-1.11-4.38-2.05-6.44L15,20.97l-7.03,8.51C6.05,31.75,5,34.63,5,37.6V60h9V37
			l4.39-2.93C18.36,32.47,18.2,30.86,17.9,29.28z"/>
		<path fill="#71ACA8" d="M45.6,61.68V34.55c0-1.77,0.17-3.53,0.5-5.27l0,0c0.42-2.22,1.11-4.38,2.05-6.44L49,20.97L39.93,17l0,0
			c-4.99,2.5-10.87,2.5-15.87,0l0,0L15,20.97l0.85,1.87c0.94,2.06,1.63,4.22,2.05,6.44l0,0c0.33,1.74,0.5,3.5,0.5,5.27v27.13
			C18.4,61.68,33.13,64.65,45.6,61.68z"/>
		<path fill="#C6DEDC" d="M25.33,32C23.49,32,22,30.66,22,29v-2c0-1.66,1.49-3,3.33-3h13.34c1.84,0,3.33,1.34,3.33,3v2
			c0,1.66-1.49,3-3.33,3H30H25.33z"/>
		<rect x="51" y="60" transform="matrix(-1 -3.845869e-11 3.845869e-11 -1 109 123)" fill="#C6DEDC" width="7" height="3"/>
		<rect x="6" y="60" fill="#C6DEDC" width="7" height="3"/>
		<polygon fill="#55817E" points="41,49 38.75,55 25.25,55 23,49 		"/>
	</g>
</g>
<g id="_x32_2_swimsuit">
</g>
<g id="_x32_3_duffle_bag">
</g>
<g id="_x32_4_dress">
</g>
<g id="_x32_5_overcoat">
</g>
</svg>
