<?xml version="1.0" encoding="utf-8"?>
<!-- Generator: Adobe Illustrator 25.2.3, SVG Export Plug-In . SVG Version: 6.00 Build 0)  -->
<svg version="1.1" xmlns="http://www.w3.org/2000/svg" xmlns:xlink="http://www.w3.org/1999/xlink" x="0px" y="0px"
	 viewBox="0 0 64 64" enable-background="new 0 0 64 64" xml:space="preserve">
<g id="_x30_1_cap">
</g>
<g id="_x30_2_belt">
</g>
<g id="_x30_3_messenger_bag">
</g>
<g id="_x30_4_shorts">
</g>
<g id="_x30_5_tank_top">
</g>
<g id="_x30_6_overcoat">
</g>
<g id="_x30_7_boots">
</g>
<g id="_x30_8_jeans_skirt">
</g>
<g id="_x30_9_blouse">
</g>
<g id="_x31_0_trousers">
	<rect x="35" y="62.99" fill="#71ACA8" width="11" height="0.01"/>
	<g>
		<path fill="#71ACA8" d="M48.24,12.29c0,1.5-0.1,3-0.29,4.49c0,0.02,0,0.03-0.01,0.05c-0.34,2.67-0.99,5.31-1.94,7.85
			c-1.32,3.5-1.87,7.25-1.62,10.99L45.76,59H35V45.32c0-9.52-1.01-15.01-3-24.32c-1.99,9.31-3,14.8-3,24.32v13.64H18.24l1.38-23.29
			c0.04-0.59,0.06-1.17,0.06-1.76c0-3.15-0.57-6.28-1.68-9.23c-0.93-2.48-1.57-5.05-1.92-7.66c-0.46-3.34-0.43-6.74,0.09-10.08
			c0.07-0.47,0.15-0.94,0.24-1.4C16.57,4.69,16.77,3.84,17,3h30c0.16,0.59,0.3,1.18,0.43,1.77c0.16,0.74,0.3,1.48,0.41,2.22
			C48.11,8.75,48.24,10.52,48.24,12.29z"/>
		<g>
			<path opacity="0.3" fill="#C6DEDC" d="M16.17,6.94c-0.51,3.34-0.54,6.74-0.09,10.08l0.52-0.27c3.39-1.73,5.77-4.97,6.4-8.73V8
				l-0.11-0.04C20.56,7.7,18.26,7.36,16.17,6.94z"/>
		</g>
		<g>
			<path opacity="0.3" fill="#C6DEDC" d="M47.43,4.77C47.43,4.77,47.43,4.77,47.43,4.77c0,0.02,0.01,0.03,0.01,0.04
				C47.44,4.8,47.43,4.78,47.43,4.77z"/>
			<path opacity="0.3" fill="#C6DEDC" d="M47.84,6.99c-2.12,0.4-4.48,0.74-6.76,1l0,0.01c0.62,3.77,3.01,7.02,6.42,8.75l0.17,0.08
				h0.27c0.01-0.02,0.01-0.03,0.01-0.05c0.19-1.49,0.29-2.99,0.29-4.49C48.24,10.52,48.11,8.75,47.84,6.99z"/>
		</g>
		<path fill="#395654" d="M47.84,6.99c-3.54,0.66-7.76,1.19-11.13,1.39l-4.48,0.13c-5.01,0-11.01-0.59-16.06-1.57
			c0.07-0.47,0.15-0.94,0.24-1.4C16.57,4.69,16.77,3.84,17,3h2.69C28,4.36,36.46,4.36,44.77,3H47C47.36,4.32,47.64,5.65,47.84,6.99z
			"/>
		<polygon fill="#C6DEDC" points="46,62.99 35,62.99 35,59 45.76,59 		"/>
		<polygon fill="#C6DEDC" points="29,58.96 29,63 18,63 18.24,58.96 		"/>
		<path fill="#C6DEDC" d="M17.2,3.04L17,3l0.2-0.04c9.77-1.95,19.83-1.95,29.6,0L47,3l-0.2,0.04C37.03,4.99,26.97,4.99,17.2,3.04z"
			/>
		<path fill="#55817E" d="M30,4.51V16l0,0c2.52-1.89,4-4.85,4-8V4.51"/>
	</g>
</g>
<g id="_x31_1_high_heel">
</g>
<g id="_x31_2_backpack">
</g>
<g id="_x31_3_tie">
</g>
<g id="_x31_4_shirt">
</g>
<g id="_x31_5_suit">
</g>
<g id="_x31_6_winter_vest">
</g>
<g id="_x31_7_suit_and_bow">
</g>
<g id="_x31_8_long_sleeve">
</g>
<g id="_x31_9_socks">
</g>
<g id="_x32_0_shirt">
</g>
<g id="_x32_1_sweater_hood">
</g>
<g id="_x32_2_swimsuit">
</g>
<g id="_x32_3_duffle_bag">
</g>
<g id="_x32_4_dress">
</g>
<g id="_x32_5_overcoat">
</g>
</svg>
