<?xml version="1.0" encoding="utf-8"?>
<!-- Generator: Adobe Illustrator 25.2.3, SVG Export Plug-In . SVG Version: 6.00 Build 0)  -->
<svg version="1.1" xmlns="http://www.w3.org/2000/svg" xmlns:xlink="http://www.w3.org/1999/xlink" x="0px" y="0px"
	 viewBox="0 0 64 64" enable-background="new 0 0 64 64" xml:space="preserve">
<g id="_x30_1_cap">
</g>
<g id="_x30_2_belt">
	<g>
		<path fill="#71ACA8" d="M60.94,29.26c-14.59-9.09-31.26-14.29-48.43-15.11h0c-1.17-0.12-2.33,0.58-2.75,1.76L5.04,29.4l55.12,0.06
			h1.1L60.94,29.26z"/>
		<path fill="#55817E" d="M61.26,29.45l-0.32-0.2c-14.59-9.09-31.26-14.29-48.43-15.11l0,0l-0.16,0c0.31,0.01,0.62,0.08,0.92,0.21
			L48.24,29.4L61.26,29.45z"/>
		<path fill="#71ACA8" d="M34.38,46.63h-9.69h-7.54H2.95C1.87,46.63,1,45.76,1,44.68V31.35c0-1.08,0.87-1.95,1.95-1.95h14.21h7.54
			h9.69h16.8h9.58c1.4,0,2.45,1.27,2.2,2.65l-2.39,12.76c-0.2,1.06-1.12,1.82-2.2,1.82h-6.76H34.38z"/>
		<path fill="#C6DEDC" d="M41.92,30.48h-7.54v-4.31H43c6.54,0,11.85,5.3,11.85,11.85v0c0,6.54-5.3,11.85-11.85,11.85h-8.61v-4.31
			h7.54c4.16,0,7.54-3.37,7.54-7.54v0C49.46,33.85,46.08,30.48,41.92,30.48z"/>
		<polygon fill="#395654" points="24.69,37 24.69,48.78 17.15,48.78 17.15,27.25 24.69,27.25 24.69,31.55 		"/>
		<circle fill="#55817E" cx="36" cy="38.55" r="1.62"/>
		<path fill="#395654" d="M57.1,40.09h-8.83c-0.54,0-0.97-0.43-0.97-0.97v-1.14c0-0.54,0.43-0.97,0.97-0.97h8.83
			c0.54,0,0.97,0.43,0.97,0.97v1.14C58.07,39.66,57.64,40.09,57.1,40.09z"/>
		<g>
			<path fill="#55817E" d="M6.38,34.71H5.31c-0.55,0-1-0.45-1-1s0.45-1,1-1h1.08c0.55,0,1,0.45,1,1S6.94,34.71,6.38,34.71z"/>
		</g>
		<g>
			<path fill="#55817E" d="M6.38,43.32H5.31c-0.55,0-1-0.45-1-1s0.45-1,1-1h1.08c0.55,0,1,0.45,1,1S6.94,43.32,6.38,43.32z"/>
		</g>
		<g>
			<path fill="#55817E" d="M11.77,34.71h-1.08c-0.55,0-1-0.45-1-1s0.45-1,1-1h1.08c0.55,0,1,0.45,1,1S12.32,34.71,11.77,34.71z"/>
		</g>
		<g>
			<path fill="#55817E" d="M11.77,43.32h-1.08c-0.55,0-1-0.45-1-1s0.45-1,1-1h1.08c0.55,0,1,0.45,1,1S12.32,43.32,11.77,43.32z"/>
		</g>
	</g>
</g>
<g id="_x30_3_messenger_bag">
</g>
<g id="_x30_4_shorts">
</g>
<g id="_x30_5_tank_top">
</g>
<g id="_x30_6_overcoat">
</g>
<g id="_x30_7_boots">
</g>
<g id="_x30_8_jeans_skirt">
</g>
<g id="_x30_9_blouse">
</g>
<g id="_x31_0_trousers">
</g>
<g id="_x31_1_high_heel">
</g>
<g id="_x31_2_backpack">
</g>
<g id="_x31_3_tie">
</g>
<g id="_x31_4_shirt">
</g>
<g id="_x31_5_suit">
</g>
<g id="_x31_6_winter_vest">
</g>
<g id="_x31_7_suit_and_bow">
</g>
<g id="_x31_8_long_sleeve">
</g>
<g id="_x31_9_socks">
</g>
<g id="_x32_0_shirt">
</g>
<g id="_x32_1_sweater_hood">
</g>
<g id="_x32_2_swimsuit">
</g>
<g id="_x32_3_duffle_bag">
</g>
<g id="_x32_4_dress">
</g>
<g id="_x32_5_overcoat">
</g>
</svg>
