<?xml version="1.0" encoding="utf-8"?>
<!-- Generator: Adobe Illustrator 25.2.3, SVG Export Plug-In . SVG Version: 6.00 Build 0)  -->
<svg version="1.1" xmlns="http://www.w3.org/2000/svg" xmlns:xlink="http://www.w3.org/1999/xlink" x="0px" y="0px"
	 viewBox="0 0 64 64" enable-background="new 0 0 64 64" xml:space="preserve">
<g id="_x30_1_cap">
</g>
<g id="_x30_2_belt">
</g>
<g id="_x30_3_messenger_bag">
</g>
<g id="_x30_4_shorts">
</g>
<g id="_x30_5_tank_top">
</g>
<g id="_x30_6_overcoat">
</g>
<g id="_x30_7_boots">
	<g>
		<path fill="#C6DEDC" d="M44,30v11.94l0,0c-4.66,3.33-9.15,6.91-13.43,10.72L28,54.94h0c-7.96,0-15.87-1.19-23.47-3.53L3,50.94l0,0
			c0.61-3.07,2.89-5.54,5.9-6.4l0.22-0.06c1.25-0.36,2.46-0.83,3.62-1.41l0,0c4.06-2.03,7.35-5.32,9.38-9.38L26,25.94l18,4"/>
		<path fill="#395654" d="M44,29.94V9.61l13.61-0.57c1.3-0.05,2.39,0.99,2.39,2.29v6.12c0,0.98,0.16,1.96,0.47,2.9l0,0
			C62.15,25.38,63,30.64,63,35.94v0l-16,8l-1.06,0.82c-5.29,4.11-10.31,8.55-15.05,13.29L30,58.94h-0.13c-9.84,0-19.6-1.69-28.87-5
			l0,0v-1.76c0-1.03,1.08-1.7,2-1.24h0l0,0l0,0l1.53,0.47c7.6,2.34,15.51,3.53,23.47,3.53h0l2.57-2.28
			c4.28-3.81,8.77-7.38,13.43-10.72l0,0V30"/>
		<path fill="#55817E" d="M63,35.94l-4,21H47v-13C47,44,63,36,63,36"/>
		<path fill="#71ACA8" d="M44,5.94L31.8,5.07c-1.03-0.07-1.94,0.63-2.14,1.64L26,25.94l18,4V5.94z"/>
	</g>
</g>
<g id="_x30_8_jeans_skirt">
</g>
<g id="_x30_9_blouse">
</g>
<g id="_x31_0_trousers">
</g>
<g id="_x31_1_high_heel">
</g>
<g id="_x31_2_backpack">
</g>
<g id="_x31_3_tie">
</g>
<g id="_x31_4_shirt">
</g>
<g id="_x31_5_suit">
</g>
<g id="_x31_6_winter_vest">
</g>
<g id="_x31_7_suit_and_bow">
</g>
<g id="_x31_8_long_sleeve">
</g>
<g id="_x31_9_socks">
</g>
<g id="_x32_0_shirt">
</g>
<g id="_x32_1_sweater_hood">
</g>
<g id="_x32_2_swimsuit">
</g>
<g id="_x32_3_duffle_bag">
</g>
<g id="_x32_4_dress">
</g>
<g id="_x32_5_overcoat">
</g>
</svg>
