<?xml version="1.0" encoding="utf-8"?>
<!-- Generator: Adobe Illustrator 25.2.3, SVG Export Plug-In . SVG Version: 6.00 Build 0)  -->
<svg version="1.1" xmlns="http://www.w3.org/2000/svg" xmlns:xlink="http://www.w3.org/1999/xlink" x="0px" y="0px"
	 viewBox="0 0 64 64" enable-background="new 0 0 64 64" xml:space="preserve">
<g id="_x30_1_cap">
</g>
<g id="_x30_2_belt">
</g>
<g id="_x30_3_messenger_bag">
</g>
<g id="_x30_4_shorts">
</g>
<g id="_x30_5_tank_top">
</g>
<g id="_x30_6_overcoat">
</g>
<g id="_x30_7_boots">
</g>
<g id="_x30_8_jeans_skirt">
	<g>
		<rect x="12" y="1" fill="#395654" width="40" height="5"/>
		<rect x="20" y="1" fill="#C6DEDC" width="24" height="5"/>
		<path fill="#71ACA8" d="M63,63H1l0.4-6.03v-0.03l1.62-24.55C3.66,22.96,6.76,13.86,12,6h40c5.24,7.86,8.34,16.96,8.98,26.39
			L62.6,57L63,63z"/>
		<path fill="#55817E" d="M5.51,19.44C7.04,14.7,9.22,10.18,12,6l0,0h12.42l0,0c-3.36,7.44-10.39,12.55-18.5,13.45L5.51,19.44z"/>
		<path fill="#55817E" d="M57.99,19.45c-8.11-0.9-15.14-6.01-18.5-13.45l0,0H52l0,0c2.79,4.18,4.97,8.71,6.49,13.45L57.99,19.45z"/>
		<polygon fill="#C6DEDC" points="63,63 1,63 1.4,56.97 62.6,57 		"/>
		<g>
			<path fill="#395654" d="M32,12.5c-1.1,0-2-0.9-2-2s0.9-2,2-2c1.1,0,2,0.9,2,2S33.1,12.5,32,12.5z M32,10.5L32,10.5L32,10.5z
				 M32,10.5L32,10.5L32,10.5z M32,10.5L32,10.5L32,10.5z M32,10.5L32,10.5L32,10.5z M32,10.5L32,10.5L32,10.5z M32,10.5L32,10.5
				L32,10.5z M32,10.5L32,10.5L32,10.5z M32,10.5L32,10.5L32,10.5z"/>
		</g>
		<g>
			<path fill="#395654" d="M32,19.5c-1.1,0-2-0.9-2-2s0.9-2,2-2c1.1,0,2,0.9,2,2S33.1,19.5,32,19.5z M32,17.5L32,17.5L32,17.5z
				 M32,17.5L32,17.5L32,17.5z M32,17.5L32,17.5L32,17.5z M32,17.5L32,17.5L32,17.5z M32,17.5L32,17.5L32,17.5z M32,17.5L32,17.5
				L32,17.5z M32,17.5L32,17.5L32,17.5z M32,17.5L32,17.5L32,17.5z"/>
		</g>
		<g>
			<path fill="#395654" d="M32,26.5c-1.1,0-2-0.9-2-2s0.9-2,2-2c1.1,0,2,0.9,2,2S33.1,26.5,32,26.5z M32,24.5L32,24.5L32,24.5z
				 M32,24.5L32,24.5L32,24.5z M32,24.5L32,24.5L32,24.5z M32,24.5L32,24.5L32,24.5z M32,24.5L32,24.5L32,24.5z M32,24.5L32,24.5
				L32,24.5z M32,24.5L32,24.5L32,24.5z M32,24.5L32,24.5L32,24.5z"/>
		</g>
	</g>
</g>
<g id="_x30_9_blouse">
</g>
<g id="_x31_0_trousers">
</g>
<g id="_x31_1_high_heel">
</g>
<g id="_x31_2_backpack">
</g>
<g id="_x31_3_tie">
</g>
<g id="_x31_4_shirt">
</g>
<g id="_x31_5_suit">
</g>
<g id="_x31_6_winter_vest">
</g>
<g id="_x31_7_suit_and_bow">
</g>
<g id="_x31_8_long_sleeve">
</g>
<g id="_x31_9_socks">
</g>
<g id="_x32_0_shirt">
</g>
<g id="_x32_1_sweater_hood">
</g>
<g id="_x32_2_swimsuit">
</g>
<g id="_x32_3_duffle_bag">
</g>
<g id="_x32_4_dress">
</g>
<g id="_x32_5_overcoat">
</g>
</svg>
