<?xml version="1.0" encoding="utf-8"?>
<!-- Generator: Adobe Illustrator 25.2.3, SVG Export Plug-In . SVG Version: 6.00 Build 0)  -->
<svg version="1.1" xmlns="http://www.w3.org/2000/svg" xmlns:xlink="http://www.w3.org/1999/xlink" x="0px" y="0px"
	 viewBox="0 0 64 64" enable-background="new 0 0 64 64" xml:space="preserve">
<g id="_x30_1_cap">
</g>
<g id="_x30_2_belt">
</g>
<g id="_x30_3_messenger_bag">
</g>
<g id="_x30_4_shorts">
</g>
<g id="_x30_5_tank_top">
</g>
<g id="_x30_6_overcoat">
</g>
<g id="_x30_7_boots">
</g>
<g id="_x30_8_jeans_skirt">
</g>
<g id="_x30_9_blouse">
</g>
<g id="_x31_0_trousers">
</g>
<g id="_x31_1_high_heel">
</g>
<g id="_x31_2_backpack">
	<g>
		<path fill="#71ACA8" d="M50.48,63H13.52C11.58,63,10,61.42,10,59.48V28c0-12.15,9.85-22,22-22h0c12.15,0,22,9.85,22,22v31.48
			C54,61.42,52.42,63,50.48,63z"/>
		<path fill="#55817E" d="M44.83,59H19.17c-2.3,0-4.17-1.87-4.17-4.17V40.17c0-2.3,1.87-4.17,4.17-4.17h25.67
			c2.3,0,4.17,1.87,4.17,4.17v14.67C49,57.13,47.13,59,44.83,59z"/>
		<rect x="15" y="42" fill="#C6DEDC" width="34" height="3"/>
		<rect x="19" y="53" fill="#C6DEDC" width="12" height="3"/>
		<path fill="#55817E" d="M49,30H15v-1c0-9.39,7.61-17,17-17h0c9.39,0,17,7.61,17,17V30z"/>
		<path fill="#395654" d="M42,45.17v4.33c0,0.83,0.67,1.5,1.5,1.5l0,0c0.83,0,1.5-0.67,1.5-1.5v-4.33"/>
		<g>
			<path fill="#395654" d="M39,9c-0.55,0-1-0.45-1-1V7c0-2.76-2.24-5-5-5h-2c-2.76,0-5,2.24-5,5v1c0,0.55-0.45,1-1,1s-1-0.45-1-1V7
				c0-3.86,3.14-7,7-7h2c3.86,0,7,3.14,7,7v1C40,8.55,39.55,9,39,9z"/>
		</g>
	</g>
</g>
<g id="_x31_3_tie">
</g>
<g id="_x31_4_shirt">
</g>
<g id="_x31_5_suit">
</g>
<g id="_x31_6_winter_vest">
</g>
<g id="_x31_7_suit_and_bow">
</g>
<g id="_x31_8_long_sleeve">
</g>
<g id="_x31_9_socks">
</g>
<g id="_x32_0_shirt">
</g>
<g id="_x32_1_sweater_hood">
</g>
<g id="_x32_2_swimsuit">
</g>
<g id="_x32_3_duffle_bag">
</g>
<g id="_x32_4_dress">
</g>
<g id="_x32_5_overcoat">
</g>
</svg>
