<?xml version="1.0" encoding="utf-8"?>
<!-- Generator: Adobe Illustrator 25.2.3, SVG Export Plug-In . SVG Version: 6.00 Build 0)  -->
<svg version="1.1" xmlns="http://www.w3.org/2000/svg" xmlns:xlink="http://www.w3.org/1999/xlink" x="0px" y="0px"
	 viewBox="0 0 64 64" enable-background="new 0 0 64 64" xml:space="preserve">
<g id="_x30_1_cap">
</g>
<g id="_x30_2_belt">
</g>
<g id="_x30_3_messenger_bag">
</g>
<g id="_x30_4_shorts">
</g>
<g id="_x30_5_tank_top">
</g>
<g id="_x30_6_overcoat">
</g>
<g id="_x30_7_boots">
</g>
<g id="_x30_8_jeans_skirt">
</g>
<g id="_x30_9_blouse">
</g>
<g id="_x31_0_trousers">
</g>
<g id="_x31_1_high_heel">
</g>
<g id="_x31_2_backpack">
</g>
<g id="_x31_3_tie">
</g>
<g id="_x31_4_shirt">
</g>
<g id="_x31_5_suit">
</g>
<g id="_x31_6_winter_vest">
</g>
<g id="_x31_7_suit_and_bow">
</g>
<g id="_x31_8_long_sleeve">
</g>
<g id="_x31_9_socks">
	<g>
		<path fill="#55817E" d="M61.82,4v33.94c0,3.89-1.91,7.53-5.11,9.75L38.49,60.3c0,0,0,0,0,0.01l-1.28,0.88
			c-1.78,1.23-3.81,1.82-5.83,1.82c-3.08,0-6.12-1.38-8.13-4c-3.58-4.66-2.52-11.38,2.34-14.71l0.58-0.36l13.07-8.25
			c1.56-0.98,2.5-2.7,2.5-4.54V4H61.82z"/>
		<path fill="#95A7A5" d="M38.49,60.3c0,0,0,0,0,0.01l-1.28,0.88c-1.78,1.23-3.81,1.82-5.83,1.82c-3.08,0-6.12-1.38-8.13-4
			c-3.58-4.66-2.52-11.38,2.34-14.71l0.58-0.36L38.49,60.3z"/>
		<rect x="41.74" y="22" fill="#2B413F" width="20.08" height="5"/>
		<rect x="41.74" y="4" fill="#C6DEDC" width="20.08" height="18"/>
		<rect x="41.74" y="4" fill="#95A7A5" width="20.08" height="18"/>
		<g>
			<path fill="#95A7A5" d="M53.77,44.95c-0.32,0-0.63-0.15-0.82-0.43c-0.31-0.45-0.2-1.08,0.25-1.39c2.26-1.57,3.61-4.14,3.61-6.89
				c0-0.55,0.45-1,1-1s1,0.45,1,1c0,3.41-1.67,6.6-4.47,8.54C54.17,44.89,53.97,44.95,53.77,44.95z"/>
		</g>
		<g>
			<path fill="#55817E" d="M47.55,4v8.78c0,0.55-0.45,1-1,1s-1-0.45-1-1V4H47.55z"/>
		</g>
		<g>
			<path fill="#55817E" d="M52.78,9.02V22h-2V9.02c0-0.55,0.45-1,1-1C52.33,8.02,52.78,8.47,52.78,9.02z"/>
		</g>
		<g>
			<path fill="#55817E" d="M58.22,4v5.02c0,0.55-0.45,1-1,1c-0.56,0-1-0.45-1-1V4H58.22z"/>
		</g>
		<g>
			<path fill="#55817E" d="M57.8,15.29V22h-2v-6.71c0-0.55,0.45-1,1-1S57.8,14.74,57.8,15.29z"/>
		</g>
		<path fill="#71ACA8" d="M42.82,1v33.94c0,3.89-1.91,7.53-5.11,9.75L19.49,57.3c0,0,0,0,0,0.01l-1.28,0.88
			c-1.78,1.23-3.81,1.82-5.83,1.82c-3.08,0-6.12-1.38-8.13-4C0.67,51.35,1.73,44.63,6.59,41.3l0.58-0.36l13.07-8.25
			c1.56-0.98,2.5-2.7,2.5-4.54V1H42.82z"/>
		<path fill="#C6DEDC" d="M19.49,57.3c0,0,0,0,0,0.01l-1.28,0.88c-1.78,1.23-3.81,1.82-5.83,1.82c-3.08,0-6.12-1.38-8.13-4
			C0.67,51.35,1.73,44.63,6.59,41.3l0.58-0.36L19.49,57.3z"/>
		<rect x="22.74" y="19" fill="#395654" width="20.08" height="5"/>
		<rect x="22.74" y="1" fill="#C6DEDC" width="20.08" height="18"/>
		<g>
			<path fill="#C6DEDC" d="M34.77,41.95c-0.32,0-0.63-0.15-0.82-0.43c-0.31-0.45-0.2-1.08,0.25-1.39c2.26-1.57,3.61-4.14,3.61-6.89
				c0-0.55,0.45-1,1-1s1,0.45,1,1c0,3.41-1.67,6.6-4.47,8.54C35.17,41.89,34.97,41.95,34.77,41.95z"/>
		</g>
		<g>
			<path fill="#71ACA8" d="M28.55,1v8.78c0,0.55-0.45,1-1,1s-1-0.45-1-1V1H28.55z"/>
		</g>
		<g>
			<path fill="#71ACA8" d="M33.78,6.02V19h-2V6.02c0-0.55,0.45-1,1-1C33.33,5.02,33.78,5.47,33.78,6.02z"/>
		</g>
		<g>
			<path fill="#71ACA8" d="M39.22,1v5.02c0,0.55-0.45,1-1,1c-0.56,0-1-0.45-1-1V1H39.22z"/>
		</g>
		<g>
			<path fill="#71ACA8" d="M38.8,12.29V19h-2v-6.71c0-0.55,0.45-1,1-1S38.8,11.74,38.8,12.29z"/>
		</g>
	</g>
</g>
<g id="_x32_0_shirt">
</g>
<g id="_x32_1_sweater_hood">
</g>
<g id="_x32_2_swimsuit">
</g>
<g id="_x32_3_duffle_bag">
</g>
<g id="_x32_4_dress">
</g>
<g id="_x32_5_overcoat">
</g>
</svg>
