<?xml version="1.0" encoding="utf-8"?>
<!-- Generator: Adobe Illustrator 25.2.3, SVG Export Plug-In . SVG Version: 6.00 Build 0)  -->
<svg version="1.1" xmlns="http://www.w3.org/2000/svg" xmlns:xlink="http://www.w3.org/1999/xlink" x="0px" y="0px"
	 viewBox="0 0 64 64" enable-background="new 0 0 64 64" xml:space="preserve">
<g id="_x30_1_cap">
</g>
<g id="_x30_2_belt">
</g>
<g id="_x30_3_messenger_bag">
</g>
<g id="_x30_4_shorts">
</g>
<g id="_x30_5_tank_top">
</g>
<g id="_x30_6_overcoat">
	<g>
		<path fill="#71ACA8" d="M54.09,63H9.91l2.45-13l7.37-31c0-7-4.91-9-4.91-9l7.36-4.31L32,5.84L42,6l-0.18-0.31L49.18,10
			c0,0-4.91,2-4.91,9l7.37,31L54.09,63z"/>
		<path opacity="0.1" d="M32,5.84V63H9.91l2.45-13l7.37-31c0-7-4.91-9-4.91-9l7.36-4.31L32,5.84z"/>
		<polygon fill="#55817E" points="32.4,29.28 40.59,20 40.41,13.38 38.14,14 35.56,11.75 32,27 		"/>
		<polygon fill="#55817E" points="23.36,13.32 23.41,20 33.23,34 32,27 28.32,11.25 25.86,14 		"/>
		<polygon fill="#2B413F" points="28.32,1 22.18,5 22.18,13 25.86,14 28.32,11.25 27.09,6 		"/>
		<polygon fill="#2B413F" points="35.68,1 41.82,5 41.82,13 38.14,14 35.56,11.75 36.91,6 		"/>
		<polygon fill="#C6DEDC" points="35.68,1 36.91,6 32,27 27.09,6 28.32,1 		"/>
		<path fill="#71ACA8" d="M49.18,10c0,0-4.91,2-4.91,9l7.36,31L59,49L49.18,10z"/>
		<path fill="#71ACA8" d="M14.87,10c0,0,4.91,2,4.91,9l-7.36,31l-7.36-1L14.87,10z"/>
		<polygon fill="#55817E" points="20.95,36 18.5,44 22.18,43 23.41,39 		"/>
		<polygon fill="#55817E" points="43.05,36 45.5,44 41.82,43 40.59,39 		"/>
		<path fill="#55817E" d="M14.82,10c0,0,4.91,2,4.91,9l-7.36,31L5,49L14.82,10"/>
		<path fill="#55817E" d="M49.18,10c0,0-4.91,2-4.91,9l7.36,31L59,49L49.18,10"/>
	</g>
</g>
<g id="_x30_7_boots">
</g>
<g id="_x30_8_jeans_skirt">
</g>
<g id="_x30_9_blouse">
</g>
<g id="_x31_0_trousers">
</g>
<g id="_x31_1_high_heel">
</g>
<g id="_x31_2_backpack">
</g>
<g id="_x31_3_tie">
</g>
<g id="_x31_4_shirt">
</g>
<g id="_x31_5_suit">
</g>
<g id="_x31_6_winter_vest">
</g>
<g id="_x31_7_suit_and_bow">
</g>
<g id="_x31_8_long_sleeve">
</g>
<g id="_x31_9_socks">
</g>
<g id="_x32_0_shirt">
</g>
<g id="_x32_1_sweater_hood">
</g>
<g id="_x32_2_swimsuit">
</g>
<g id="_x32_3_duffle_bag">
</g>
<g id="_x32_4_dress">
</g>
<g id="_x32_5_overcoat">
</g>
</svg>
