<?xml version="1.0" encoding="utf-8"?>
<!-- Generator: Adobe Illustrator 25.2.3, SVG Export Plug-In . SVG Version: 6.00 Build 0)  -->
<svg version="1.1" xmlns="http://www.w3.org/2000/svg" xmlns:xlink="http://www.w3.org/1999/xlink" x="0px" y="0px"
	 viewBox="0 0 64 64" enable-background="new 0 0 64 64" xml:space="preserve">
<g id="_x30_1_cap">
</g>
<g id="_x30_2_belt">
</g>
<g id="_x30_3_messenger_bag">
</g>
<g id="_x30_4_shorts">
</g>
<g id="_x30_5_tank_top">
</g>
<g id="_x30_6_overcoat">
</g>
<g id="_x30_7_boots">
</g>
<g id="_x30_8_jeans_skirt">
</g>
<g id="_x30_9_blouse">
</g>
<g id="_x31_0_trousers">
</g>
<g id="_x31_1_high_heel">
</g>
<g id="_x31_2_backpack">
</g>
<g id="_x31_3_tie">
</g>
<g id="_x31_4_shirt">
</g>
<g id="_x31_5_suit">
</g>
<g id="_x31_6_winter_vest">
</g>
<g id="_x31_7_suit_and_bow">
</g>
<g id="_x31_8_long_sleeve">
</g>
<g id="_x31_9_socks">
</g>
<g id="_x32_0_shirt">
</g>
<g id="_x32_1_sweater_hood">
</g>
<g id="_x32_2_swimsuit">
</g>
<g id="_x32_3_duffle_bag">
</g>
<g id="_x32_4_dress">
	<g>
		<rect x="22" y="27" fill="#C6DEDC" width="20" height="3"/>
		<path fill="#71ACA8" d="M37,27h5l4-11l0,0c-1.92-1.92-3-4.53-3-7.24V4l-5-3v2c0,3.31-2.69,6-6,6h0h0c-3.31,0-6-2.69-6-6V1l-5,3
			v4.76c0,2.72-1.08,5.32-3,7.24l0,0l4,11h5.29"/>
		<path fill="#71ACA8" d="M53,63H11l1.48-4l1.79-4.85C15.41,51.41,16,48.47,16,45.5c0-4.87,1.58-9.61,4.5-13.5l1.5-2h20l1.5,2
			c1.46,1.94,2.58,4.1,3.34,6.38C47.6,40.66,48,43.06,48,45.5c0,2.97,0.59,5.91,1.73,8.65L51.52,59L53,63z"/>
		<ellipse fill="#395654" cx="32" cy="28.5" rx="5" ry="4.5"/>
		<ellipse fill="#55817E" cx="32" cy="28.5" rx="1.67" ry="1.5"/>
		<polygon fill="#C6DEDC" points="53,63 11,63 12.48,59 51.52,59 		"/>
	</g>
</g>
<g id="_x32_5_overcoat">
</g>
</svg>
