<?xml version="1.0" encoding="utf-8"?>
<!-- Generator: Adobe Illustrator 25.2.3, SVG Export Plug-In . SVG Version: 6.00 Build 0)  -->
<svg version="1.1" xmlns="http://www.w3.org/2000/svg" xmlns:xlink="http://www.w3.org/1999/xlink" x="0px" y="0px"
	 viewBox="0 0 64 64" enable-background="new 0 0 64 64" xml:space="preserve">
<g id="_x30_1_cap">
</g>
<g id="_x30_2_belt">
</g>
<g id="_x30_3_messenger_bag">
</g>
<g id="_x30_4_shorts">
</g>
<g id="_x30_5_tank_top">
</g>
<g id="_x30_6_overcoat">
</g>
<g id="_x30_7_boots">
</g>
<g id="_x30_8_jeans_skirt">
</g>
<g id="_x30_9_blouse">
</g>
<g id="_x31_0_trousers">
</g>
<g id="_x31_1_high_heel">
</g>
<g id="_x31_2_backpack">
</g>
<g id="_x31_3_tie">
</g>
<g id="_x31_4_shirt">
</g>
<g id="_x31_5_suit">
</g>
<g id="_x31_6_winter_vest">
	<g>
		<g>
			<path fill="#C6DEDC" d="M41.05,4.38c0.8-0.31,1.61-0.36,2.37-0.21V4.09C31.83-1.94,21,4.09,21,4.09v0.02
				c0.64-0.06,1.3,0.02,1.95,0.27l7.34,2.82L32,12.86l1.71-5.66L41.05,4.38z"/>
		</g>
		<path fill="#395654" d="M40.58,7.95C40.88,7.44,41,7.12,41,7.12l5.87,2.2L47,9.12l-0.04-0.86c-0.12-2.98-3.13-4.95-5.92-3.88
			l-7.34,2.82L32,12.86C35.35,12.86,38.69,11.23,40.58,7.95z"/>
		<path fill="#395654" d="M23.42,7.95C23.12,7.44,23,7.12,23,7.12l-5.87,2.2L17,9.12l0.04-0.86c0.12-2.98,3.13-4.95,5.92-3.88
			l7.34,2.82L32,12.86C28.65,12.86,25.31,11.23,23.42,7.95z"/>
		<path fill="#71ACA8" d="M54,60.12c-6.91,1.57-13.95,2.39-21,2.46c-0.33,0.01-0.67,0.01-1,0.01s-0.67,0-1-0.01
			c-7.05-0.07-14.09-0.89-21-2.46c0,0,0.05-1.57,0.14-4c0.01-0.62,0.04-1.29,0.06-2c0.05-1.5,0.1-3.2,0.16-5
			c0.02-0.65,0.05-1.32,0.07-2c0.07-1.99,0.13-4.04,0.19-6c0.03-0.68,0.05-1.34,0.07-2c0.07-2.25,0.14-4.33,0.19-6
			c0.03-0.76,0.05-1.43,0.07-2c0.03-1.14,0.05-1.86,0.05-2c0-0.37,0.7-1.03,1.58-1.7c0.86-0.66,1.61-1.43,2.23-2.3
			c0.45-0.62,0.82-1.29,1.12-2c0.35-0.81,0.6-1.67,0.72-2.56l0.06-0.42c0.19-1.33,0.12-2.69-0.2-3.99L15,10.12l8-3
			c0,0,0.13,0.32,0.42,0.83C25.11,10.89,28,12.52,31,12.8c0.66,0.08,1.34,0.08,2,0c3-0.28,5.89-1.91,7.58-4.85
			C40.88,7.44,41,7.12,41,7.12l8,3l-1.51,6.03c-0.32,1.3-0.39,2.66-0.2,3.99l0.06,0.42c0.12,0.89,0.37,1.75,0.72,2.56
			c0.3,0.71,0.67,1.38,1.12,2c0.62,0.87,1.37,1.64,2.23,2.3c0.88,0.67,1.58,1.33,1.58,1.7c0,0.14,0.02,0.86,0.05,2
			c0.02,0.57,0.04,1.24,0.07,2c0.05,1.67,0.12,3.75,0.19,6c0.02,0.66,0.04,1.32,0.07,2c0.06,1.96,0.12,4.01,0.19,6
			c0.02,0.68,0.05,1.35,0.07,2c0.06,1.8,0.11,3.5,0.16,5c0.02,0.71,0.05,1.38,0.06,2C53.95,58.55,54,60.12,54,60.12z"/>
		<g>
			<path fill="#395654" d="M33,12.8v49.78c-0.33,0.01-0.67,0.01-1,0.01s-0.67,0-1-0.01V12.8C31.66,12.88,32.34,12.88,33,12.8z"/>
		</g>
		<g>
			<path fill="#C6DEDC" d="M49.19,25.12H41c-0.55,0-1-0.44-1-1c0-0.55,0.45-1,1-1h7.07C48.37,23.83,48.74,24.5,49.19,25.12z"/>
		</g>
		<g>
			<path fill="#C6DEDC" d="M53.12,33.12H41c-0.55,0-1-0.44-1-1c0-0.55,0.45-1,1-1h12.05C53.07,31.69,53.09,32.36,53.12,33.12z"/>
		</g>
		<g>
			<path fill="#55817E" d="M36,53.12h-8c-0.55,0-1-0.45-1-1s0.45-1,1-1h8c0.55,0,1,0.45,1,1S36.55,53.12,36,53.12z"/>
		</g>
		<g>
			<path fill="#C6DEDC" d="M53.86,56.12H45c-0.55,0-1-0.44-1-1c0-0.55,0.45-1,1-1h8.8C53.82,54.83,53.85,55.5,53.86,56.12z"/>
		</g>
		<g>
			<path fill="#C6DEDC" d="M53.64,49.12H44c-0.55,0-1-0.44-1-1c0-0.55,0.45-1,1-1h9.57C53.59,47.8,53.62,48.47,53.64,49.12z"/>
		</g>
		<g>
			<path fill="#C6DEDC" d="M53.38,41.12H47c-0.55,0-1-0.44-1-1c0-0.55,0.45-1,1-1h6.31C53.33,39.78,53.35,40.44,53.38,41.12z"/>
		</g>
		<g>
			<path fill="#C6DEDC" d="M19.64,55.12c0,0.56-0.45,1-1,1h-8.5c0.01-0.62,0.04-1.29,0.06-2h8.44
				C19.19,54.12,19.64,54.57,19.64,55.12z"/>
		</g>
		<g>
			<path fill="#C6DEDC" d="M20.64,48.12c0,0.56-0.45,1-1,1h-9.28c0.02-0.65,0.05-1.32,0.07-2h9.21
				C20.19,47.12,20.64,47.57,20.64,48.12z"/>
		</g>
		<g>
			<path fill="#C6DEDC" d="M17.64,40.12c0,0.56-0.45,1-1,1h-6.02c0.03-0.68,0.05-1.34,0.07-2h5.95
				C17.19,39.12,17.64,39.57,17.64,40.12z"/>
		</g>
		<g>
			<path fill="#C6DEDC" d="M24.18,24.12c0,0.56-0.45,1-1,1h-8.37c0.45-0.62,0.82-1.29,1.12-2h7.25
				C23.73,23.12,24.18,23.57,24.18,24.12z"/>
		</g>
		<g>
			<path fill="#C6DEDC" d="M24.18,32.12c0,0.56-0.45,1-1,1h-12.3c0.03-0.76,0.05-1.43,0.07-2h12.23
				C23.73,31.12,24.18,31.57,24.18,32.12z"/>
		</g>
		<g>
			<path fill="#55817E" d="M36,45.12h-8.19c-0.55,0-1-0.45-1-1s0.45-1,1-1H36c0.55,0,1,0.45,1,1S36.55,45.12,36,45.12z"/>
		</g>
		<g>
			<path fill="#55817E" d="M36,37.12h-8.19c-0.55,0-1-0.45-1-1s0.45-1,1-1H36c0.55,0,1,0.45,1,1S36.55,37.12,36,37.12z"/>
		</g>
		<g>
			<path fill="#55817E" d="M36,29.12h-8.19c-0.55,0-1-0.45-1-1s0.45-1,1-1H36c0.55,0,1,0.45,1,1S36.55,29.12,36,29.12z"/>
		</g>
		<g>
			<path fill="#55817E" d="M36,21.12h-8.19c-0.55,0-1-0.45-1-1s0.45-1,1-1H36c0.55,0,1,0.45,1,1S36.55,21.12,36,21.12z"/>
		</g>
		
			<rect x="43" y="41.12" transform="matrix(0.7071 0.7071 -0.7071 0.7071 46.0015 -17.8106)" fill="#55817E" width="3" height="11"/>
		
			<rect x="18" y="41.12" transform="matrix(-0.7071 0.7071 -0.7071 -0.7071 66.2563 65.8026)" fill="#55817E" width="3" height="11"/>
	</g>
</g>
<g id="_x31_7_suit_and_bow">
</g>
<g id="_x31_8_long_sleeve">
</g>
<g id="_x31_9_socks">
</g>
<g id="_x32_0_shirt">
</g>
<g id="_x32_1_sweater_hood">
</g>
<g id="_x32_2_swimsuit">
</g>
<g id="_x32_3_duffle_bag">
</g>
<g id="_x32_4_dress">
</g>
<g id="_x32_5_overcoat">
</g>
</svg>
