<?xml version="1.0" encoding="utf-8"?>
<!-- Generator: Adobe Illustrator 25.2.3, SVG Export Plug-In . SVG Version: 6.00 Build 0)  -->
<svg version="1.1" xmlns="http://www.w3.org/2000/svg" xmlns:xlink="http://www.w3.org/1999/xlink" x="0px" y="0px"
	 viewBox="0 0 64 64" enable-background="new 0 0 64 64" xml:space="preserve">
<g id="_x30_1_cap">
</g>
<g id="_x30_2_belt">
</g>
<g id="_x30_3_messenger_bag">
	<g>
		<rect x="11.98" y="8" fill="#55817E" width="3" height="4.04"/>
		<rect x="48.98" y="8" fill="#55817E" width="3" height="4.04"/>
		<path fill="#71ACA8" d="M8.02,13.41L8.02,13.41c-2.86,0-5.25,2.17-5.53,5.02l0,0.02c-1,10.31-0.54,20.71,1.37,30.9l0,0
			c0.08,0.42,0.02,0.86-0.17,1.24L2.4,53.16C1.74,54.47,2.69,56,4.15,56h55.7c1.46,0,2.4-1.53,1.75-2.84l-1.29-2.57
			c-0.19-0.38-0.25-0.82-0.17-1.24l0,0c1.91-10.18,2.37-20.59,1.37-30.9l0-0.02c-0.28-2.85-2.67-5.02-5.53-5.02h0H8.02z"/>
		<path fill="#C6DEDC" d="M57.6,37H6.35c-1.65,0-2.88-1.51-2.55-3.13l3.63-17.61C8.06,13.2,10.77,11,13.9,11h36.16
			c3.13,0,5.83,2.2,6.47,5.27l3.63,17.61C60.48,35.49,59.25,37,57.6,37z"/>
		<rect x="29.98" y="37" fill="#395654" width="4" height="4"/>
		<ellipse fill="#C6DEDC" cx="31.98" cy="46" rx="7" ry="6"/>
		<ellipse fill="#395654" cx="31.98" cy="46" rx="3" ry="2.57"/>
		<g>
			<path fill="#395654" d="M19.98,19C19.98,19,19.98,19,19.98,19l-12.9-0.05c-0.55,0-1-0.45-1-1c0-0.55,0.45-1,1-1c0,0,0,0,0,0
				L19.98,17c0.55,0,1,0.45,1,1C20.98,18.55,20.53,19,19.98,19z"/>
		</g>
		<g>
			<path fill="#395654" d="M30.98,25h-18c-0.55,0-1-0.45-1-1s0.45-1,1-1h18c0.55,0,1,0.45,1,1S31.53,25,30.98,25z"/>
		</g>
		<g>
			<path fill="#395654" d="M16.98,33h-10c-0.55,0-1-0.45-1-1s0.45-1,1-1h10c0.55,0,1,0.45,1,1S17.53,33,16.98,33z"/>
		</g>
		<g>
			<path fill="#395654" d="M57.29,21H44.98c-0.55,0-1-0.45-1-1s0.45-1,1-1h12.31c0.55,0,1,0.45,1,1S57.84,21,57.29,21z"/>
		</g>
		<g>
			<path fill="#395654" d="M58.98,30h-9c-0.55,0-1-0.45-1-1s0.45-1,1-1h9c0.55,0,1,0.45,1,1S59.53,30,58.98,30z"/>
		</g>
		<g>
			<path fill="#395654" d="M40.98,21h-2c-0.55,0-1-0.45-1-1s0.45-1,1-1h2c0.55,0,1,0.45,1,1S41.53,21,40.98,21z"/>
		</g>
		<g>
			<path fill="#395654" d="M45.98,30h-2c-0.55,0-1-0.45-1-1s0.45-1,1-1h2c0.55,0,1,0.45,1,1S46.53,30,45.98,30z"/>
		</g>
		<g>
			<path fill="#395654" d="M59.98,50h-12c-0.55,0-1-0.45-1-1s0.45-1,1-1h12c0.55,0,1,0.45,1,1S60.53,50,59.98,50z"/>
		</g>
		<g>
			<path fill="#395654" d="M49.98,45h-5c-0.55,0-1-0.45-1-1s0.45-1,1-1h5c0.55,0,1,0.45,1,1S50.53,45,49.98,45z"/>
		</g>
		<g>
			<path fill="#395654" d="M60.98,42h-3c-0.55,0-1-0.45-1-1s0.45-1,1-1h3c0.55,0,1,0.45,1,1S61.53,42,60.98,42z"/>
		</g>
		<g>
			<path fill="#395654" d="M10.98,43h-8c-0.55,0-1-0.45-1-1s0.45-1,1-1h8c0.55,0,1,0.45,1,1S11.53,43,10.98,43z"/>
		</g>
		<g>
			<path fill="#395654" d="M14.98,48h-6c-0.55,0-1-0.45-1-1s0.45-1,1-1h6c0.55,0,1,0.45,1,1S15.53,48,14.98,48z"/>
		</g>
		<g>
			<path fill="#395654" d="M7.98,53h-5c-0.55,0-1-0.45-1-1s0.45-1,1-1h5c0.55,0,1,0.45,1,1S8.53,53,7.98,53z"/>
		</g>
	</g>
</g>
<g id="_x30_4_shorts">
</g>
<g id="_x30_5_tank_top">
</g>
<g id="_x30_6_overcoat">
</g>
<g id="_x30_7_boots">
</g>
<g id="_x30_8_jeans_skirt">
</g>
<g id="_x30_9_blouse">
</g>
<g id="_x31_0_trousers">
</g>
<g id="_x31_1_high_heel">
</g>
<g id="_x31_2_backpack">
</g>
<g id="_x31_3_tie">
</g>
<g id="_x31_4_shirt">
</g>
<g id="_x31_5_suit">
</g>
<g id="_x31_6_winter_vest">
</g>
<g id="_x31_7_suit_and_bow">
</g>
<g id="_x31_8_long_sleeve">
</g>
<g id="_x31_9_socks">
</g>
<g id="_x32_0_shirt">
</g>
<g id="_x32_1_sweater_hood">
</g>
<g id="_x32_2_swimsuit">
</g>
<g id="_x32_3_duffle_bag">
</g>
<g id="_x32_4_dress">
</g>
<g id="_x32_5_overcoat">
</g>
</svg>
