<?xml version="1.0" encoding="utf-8"?>
<!-- Generator: Adobe Illustrator 25.2.3, SVG Export Plug-In . SVG Version: 6.00 Build 0)  -->
<svg version="1.1" xmlns="http://www.w3.org/2000/svg" xmlns:xlink="http://www.w3.org/1999/xlink" x="0px" y="0px"
	 viewBox="0 0 64 64" enable-background="new 0 0 64 64" xml:space="preserve">
<g id="_x30_1_cap">
	<g>
		<path fill="#C6DEDC" d="M55.18,40.79c0,0-2.1,0.3-4.99,0.45l0,0c0.95-22.22-4.24-25.09-4.24-25.09l-0.09-0.02
			c17.05,2.94,16.87,10.2,17.11,22.96c0.02,1.13-1.04,1.99-2.18,1.76C59.3,40.56,57.25,40.36,55.18,40.79"/>
		<path fill="#71ACA8" d="M16.17,38.21c0,0-5.6-25.17,21.27-23.08c3.32,0.26,6.21,0.61,8.72,1.05l-0.21-0.04
			c0,0,5.19,2.87,4.24,25.09l0,0c-4.08,0.2-9.73,0.1-13.26-1.61C30.9,36.71,16.17,38.21,16.17,38.21"/>
		<path fill="#55817E" d="M26.16,45.71c19.53,9.6,29.02-4.92,29.02-4.92s-12.23,1.75-18.26-1.17c-6.03-2.92-20.75-1.42-20.75-1.42
			s-10.94,3.5-14.64,7.5S15.66,40.54,26.16,45.71z"/>
		<polygon fill="#C6DEDC" points="32.12,21.46 33.64,25.91 38.3,27.22 34.4,30 34.55,34.69 30.61,31.95 26.05,33.54 27.52,29.07 
			24.55,25.37 29.4,25.34 		"/>
		<circle fill="#55817E" cx="54" cy="37" r="1"/>
		<circle fill="#55817E" cx="58" cy="37" r="1"/>
	</g>
</g>
<g id="_x30_2_belt">
</g>
<g id="_x30_3_messenger_bag">
</g>
<g id="_x30_4_shorts">
</g>
<g id="_x30_5_tank_top">
</g>
<g id="_x30_6_overcoat">
</g>
<g id="_x30_7_boots">
</g>
<g id="_x30_8_jeans_skirt">
</g>
<g id="_x30_9_blouse">
</g>
<g id="_x31_0_trousers">
</g>
<g id="_x31_1_high_heel">
</g>
<g id="_x31_2_backpack">
</g>
<g id="_x31_3_tie">
</g>
<g id="_x31_4_shirt">
</g>
<g id="_x31_5_suit">
</g>
<g id="_x31_6_winter_vest">
</g>
<g id="_x31_7_suit_and_bow">
</g>
<g id="_x31_8_long_sleeve">
</g>
<g id="_x31_9_socks">
</g>
<g id="_x32_0_shirt">
</g>
<g id="_x32_1_sweater_hood">
</g>
<g id="_x32_2_swimsuit">
</g>
<g id="_x32_3_duffle_bag">
</g>
<g id="_x32_4_dress">
</g>
<g id="_x32_5_overcoat">
</g>
</svg>
