<?xml version="1.0" encoding="utf-8"?>
<!-- Generator: Adobe Illustrator 25.2.3, SVG Export Plug-In . SVG Version: 6.00 Build 0)  -->
<svg version="1.1" xmlns="http://www.w3.org/2000/svg" xmlns:xlink="http://www.w3.org/1999/xlink" x="0px" y="0px"
	 viewBox="0 0 64 64" enable-background="new 0 0 64 64" xml:space="preserve">
<g id="_x30_1_cap">
</g>
<g id="_x30_2_belt">
</g>
<g id="_x30_3_messenger_bag">
</g>
<g id="_x30_4_shorts">
</g>
<g id="_x30_5_tank_top">
</g>
<g id="_x30_6_overcoat">
</g>
<g id="_x30_7_boots">
</g>
<g id="_x30_8_jeans_skirt">
</g>
<g id="_x30_9_blouse">
</g>
<g id="_x31_0_trousers">
</g>
<g id="_x31_1_high_heel">
</g>
<g id="_x31_2_backpack">
</g>
<g id="_x31_3_tie">
</g>
<g id="_x31_4_shirt">
</g>
<g id="_x31_5_suit">
	<g>
		<path fill="#71ACA8" d="M46.05,49L49,63H15l2.95-14l0.63-3L19,44l-1-20L14,7l11-4h2.22l0.27,2.37c0.34,3.08,0.97,6.12,1.88,9.08
			L32,23l2.63-8.55c0.91-2.96,1.54-6,1.88-9.08L36.78,3H39l11,4l-4,17l-1,20l0.42,2L46.05,49z"/>
		<g>
			<path fill="#71ACA8" d="M46.05,49L49,63H30V30.3l1.83-2.75C31.94,27.39,32,27.2,32,27v-4l2.63-8.55c0.91-2.96,1.54-6,1.88-9.08
				L36.78,3H39l11,4l-4,17l-1,20l0.42,2L46.05,49z"/>
		</g>
		<g opacity="0.1">
			<path d="M46.05,49L49,63H30V30.3l1.83-2.75C31.94,27.39,32,27.2,32,27v-4l2.63-8.55c0.91-2.96,1.54-6,1.88-9.08L36.78,3H39l11,4
				l-4,17l-1,20l0.42,2L46.05,49z"/>
		</g>
		<path fill="#55817E" d="M17.03,19.86c-1.33,3.98-2.12,8.27-2.28,12.46l-0.61,15.17L14,51H5l0.38-3.51L7.4,28.62
			c0.4-3.73,1.27-7.4,2.58-10.91L14,7L17.03,19.86z"/>
		<polygon fill="#C6DEDC" points="14.14,47.49 14,51 5,51 5.38,47.49 		"/>
		<path fill="#55817E" d="M59,51h-9l-0.14-3.51l-0.61-15.17c-0.16-4.19-0.95-8.48-2.28-12.46L50,7l4.02,10.71
			c1.31,3.51,2.18,7.18,2.58,10.91l2.02,18.87L59,51z"/>
		<polygon fill="#C6DEDC" points="59,51 50,51 49.86,47.49 58.62,47.49 		"/>
		<polyline fill="#55817E" points="48.16,59 39,59 39,46.18 45.46,46.18 48.16,58.83 		"/>
		<polyline fill="#55817E" points="15.84,58.83 18.54,46.18 25,46.18 25,59 15.84,59 		"/>
		<polygon fill="#395654" points="46.05,49 39,49 39,46 45.42,46 		"/>
		<polygon fill="#395654" points="25,46 25,49 17.95,49 18.58,46 		"/>
		<g>
			<path fill="#395654" d="M33.5,58c-0.83,0-1.5-0.67-1.5-1.5s0.67-1.5,1.5-1.5s1.5,0.67,1.5,1.5S34.33,58,33.5,58z"/>
		</g>
		<path fill="#55817E" d="M40.18,9.59L40.18,9.59c-1.03,0.47-2.28,0.3-3.11-0.55l-0.95-0.9c-0.17,0.99-0.37,1.97-0.59,2.94
			c-0.03,0.14-0.07,0.29-0.1,0.43c-0.24,0.99-0.5,1.97-0.79,2.94L32,23v4l1.96-1.96C37.94,21.06,41.02,16.27,43,11L40.18,9.59z"/>
		<path fill="#55817E" d="M27.89,8.17l-0.96,1c-0.83,0.79-2.02,0.94-3.01,0.49c-0.02-0.01-0.03-0.01-0.05-0.02L21,12l0.67,1.33
			c1.55,3.1,3.5,5.98,5.8,8.57L32,27v-4l-2.63-8.55C28.74,12.4,28.25,10.3,27.89,8.17z"/>
		<path fill="#395654" d="M27.49,5.37L27,1c-1.99,1.99-3.64,4.28-4.9,6.79L22,8l1.12,1.12c1.04,1.04,2.73,1.07,3.8,0.05l0.96-1
			C27.73,7.24,27.59,6.31,27.49,5.37z"/>
		<path fill="#395654" d="M41.9,7.79C40.64,5.28,38.99,2.99,37,1l-0.49,4.37c-0.1,0.93-0.24,1.85-0.4,2.77l0.95,0.9
			c1.06,1.08,2.8,1.09,3.87,0.01L42,8L41.9,7.79z"/>
		<path fill="#C6DEDC" d="M37,1l-0.49,4.37c-0.34,3.08-0.97,6.12-1.89,9.09L32,23l-2.63-8.55c-0.91-2.96-1.54-6.01-1.89-9.09L27,1
			H37z"/>
		<g>
			<path fill="#395654" d="M33.5,50c-0.83,0-1.5-0.67-1.5-1.5s0.67-1.5,1.5-1.5s1.5,0.67,1.5,1.5S34.33,50,33.5,50z"/>
		</g>
		<g>
			<path fill="#395654" d="M33.5,42c-0.83,0-1.5-0.67-1.5-1.5s0.67-1.5,1.5-1.5s1.5,0.67,1.5,1.5S34.33,42,33.5,42z"/>
		</g>
		<g>
			<path fill="#395654" d="M33.5,34c-0.83,0-1.5-0.67-1.5-1.5s0.67-1.5,1.5-1.5s1.5,0.67,1.5,1.5S34.33,34,33.5,34z"/>
		</g>
	</g>
</g>
<g id="_x31_6_winter_vest">
</g>
<g id="_x31_7_suit_and_bow">
</g>
<g id="_x31_8_long_sleeve">
</g>
<g id="_x31_9_socks">
</g>
<g id="_x32_0_shirt">
</g>
<g id="_x32_1_sweater_hood">
</g>
<g id="_x32_2_swimsuit">
</g>
<g id="_x32_3_duffle_bag">
</g>
<g id="_x32_4_dress">
</g>
<g id="_x32_5_overcoat">
</g>
</svg>
