<?xml version="1.0" encoding="utf-8"?>
<!-- Generator: Adobe Illustrator 25.2.3, SVG Export Plug-In . SVG Version: 6.00 Build 0)  -->
<svg version="1.1" xmlns="http://www.w3.org/2000/svg" xmlns:xlink="http://www.w3.org/1999/xlink" x="0px" y="0px"
	 viewBox="0 0 64 64" enable-background="new 0 0 64 64" xml:space="preserve">
<g id="_x30_1_cap">
</g>
<g id="_x30_2_belt">
</g>
<g id="_x30_3_messenger_bag">
</g>
<g id="_x30_4_shorts">
</g>
<g id="_x30_5_tank_top">
</g>
<g id="_x30_6_overcoat">
</g>
<g id="_x30_7_boots">
</g>
<g id="_x30_8_jeans_skirt">
</g>
<g id="_x30_9_blouse">
</g>
<g id="_x31_0_trousers">
</g>
<g id="_x31_1_high_heel">
	<g>
		<path fill="#C6DEDC" d="M32.33,49.77H17.66l-5.41,1.2L7.82,51.6c-2.78,0.4-5.27,1.96-6.82,4.3h18.99h1.84l3.91-1.47
			C28.33,53.46,30.58,51.84,32.33,49.77z"/>
		<path fill="#C6DEDC" d="M51.67,31.71c2.94-3.43,6.34-10.28,7.3-14.69l-0.81-2.17c0,0-10.42,7.66-10.51,20.65c0,0,0,0,0,0
			C49.11,34.37,50.46,33.11,51.67,31.71z"/>
		<path fill="#395654" d="M24.28,49.77c-1.01-2.38-0.96-5.48-7.35-6.13c0,2.07,0.25,4.13,0.74,6.13H24.28z"/>
		<path fill="#55817E" d="M13.25,55.9c-0.49-0.98-0.78-2.73-0.96-4.49c-0.31-3.13,1.36-6.12,4.18-7.53l0.46-0.23v0
			c0,4.03,0.94,8,2.74,11.61l0.32,0.65H13.25z"/>
		<path fill="#395654" d="M56.15,8.1H37.15c-1.02,0-1.84,0.82-1.84,1.84v0c0,1.02,0.82,1.84,1.84,1.84H57.2L56.15,8.1z"/>
		<path fill="#71ACA8" d="M60.72,20.92L60.72,20.92c-0.61-1.22-1.2-2.54-1.71-3.81l-1.81-5.33h-2.81l0,0
			c2.79,6.06,2.23,13.21-1.68,18.61c-0.35,0.48-0.7,0.93-1.04,1.32c-1.9,2.22-4.15,4.12-6.66,5.63l-4.69,2.81
			c-2.58,1.55-4.55,3.87-5.92,6.54c-1.82,3.57-4.9,6.33-8.66,7.74l-3.91,1.47h12.25c5.71-6.53,11.85-12.67,18.38-18.38
			c1.57,1.57,2.45,3.7,2.45,5.92V55.9h4.9l1.03-13.45c0.14-1.78,0.56-3.52,1.1-5.22C63.69,31.84,63.25,25.99,60.72,20.92z"/>
	</g>
</g>
<g id="_x31_2_backpack">
</g>
<g id="_x31_3_tie">
</g>
<g id="_x31_4_shirt">
</g>
<g id="_x31_5_suit">
</g>
<g id="_x31_6_winter_vest">
</g>
<g id="_x31_7_suit_and_bow">
</g>
<g id="_x31_8_long_sleeve">
</g>
<g id="_x31_9_socks">
</g>
<g id="_x32_0_shirt">
</g>
<g id="_x32_1_sweater_hood">
</g>
<g id="_x32_2_swimsuit">
</g>
<g id="_x32_3_duffle_bag">
</g>
<g id="_x32_4_dress">
</g>
<g id="_x32_5_overcoat">
</g>
</svg>
