<?xml version="1.0" encoding="utf-8"?>
<!-- Generator: Adobe Illustrator 25.2.3, SVG Export Plug-In . SVG Version: 6.00 Build 0)  -->
<svg version="1.1" xmlns="http://www.w3.org/2000/svg" xmlns:xlink="http://www.w3.org/1999/xlink" x="0px" y="0px"
	 viewBox="0 0 64 64" enable-background="new 0 0 64 64" xml:space="preserve">
<g id="_x30_1_cap">
</g>
<g id="_x30_2_belt">
</g>
<g id="_x30_3_messenger_bag">
</g>
<g id="_x30_4_shorts">
</g>
<g id="_x30_5_tank_top">
</g>
<g id="_x30_6_overcoat">
</g>
<g id="_x30_7_boots">
</g>
<g id="_x30_8_jeans_skirt">
</g>
<g id="_x30_9_blouse">
</g>
<g id="_x31_0_trousers">
</g>
<g id="_x31_1_high_heel">
</g>
<g id="_x31_2_backpack">
</g>
<g id="_x31_3_tie">
	<g>
		<polygon fill="#71ACA8" points="35.1,23.73 37.43,37.95 37.96,41.3 40.27,55.77 32,63 23.73,55.77 28.9,23.73 		"/>
		<path fill="#71ACA8" d="M41.97,6L41.97,6c-0.07,0.82-0.35,1.63-0.85,2.34l-4.99,7.13h0l-1.03,8.27c1.38-1.18,4.59-4.94,5.49-6.51
			C42.39,14.08,42.56,9.57,41.97,6z"/>
		<path fill="#71ACA8" d="M27.87,15.47l-4.99-7.13c-0.49-0.71-0.77-1.51-0.84-2.32c-0.59,3.57-0.43,8.07,1.37,11.21
			c0.9,1.57,4.11,5.33,5.49,6.51L27.87,15.47L27.87,15.47z"/>
		<path fill="#395654" d="M41.96,6c-6.39-2.57-13.53-2.57-19.91,0l-0.01-0.01c-0.01-0.11-0.01-0.21-0.01-0.32
			c0-1.2,0.47-2.4,1.37-3.3C24.28,1.49,25.46,1,26.7,1h10.6c1.24,0,2.42,0.49,3.3,1.37C41.58,3.35,42.05,4.69,41.96,6z"/>
		<polygon fill="#55817E" points="36.13,15.47 35.1,23.73 28.9,23.73 27.87,15.47 		"/>
		<path fill="#395654" d="M34.07,41.3H30.4c-0.83,0-1.5-0.67-1.5-1.5v-0.1c0-0.83,0.67-1.5,1.5-1.5h7.33c0.83,0,1.5,0.67,1.5,1.5
			v0.1c0,0.83-0.67,1.5-1.5,1.5H37"/>
	</g>
</g>
<g id="_x31_4_shirt">
</g>
<g id="_x31_5_suit">
</g>
<g id="_x31_6_winter_vest">
</g>
<g id="_x31_7_suit_and_bow">
</g>
<g id="_x31_8_long_sleeve">
</g>
<g id="_x31_9_socks">
</g>
<g id="_x32_0_shirt">
</g>
<g id="_x32_1_sweater_hood">
</g>
<g id="_x32_2_swimsuit">
</g>
<g id="_x32_3_duffle_bag">
</g>
<g id="_x32_4_dress">
</g>
<g id="_x32_5_overcoat">
</g>
</svg>
