<svg xmlns="http://www.w3.org/2000/svg" width="128" height="128" viewBox="0 0 128 128">
  <title>CIRCULAR SAW</title>
  <g>
    <g>
      <path d="M83.675,31.222H34.131L24.84,79.9h86.687V59.073A27.851,27.851,0,0,0,83.675,31.222Z" fill="#57555c"/>
      <rect x="17.964" y="79.896" width="100.438" height="8.878" fill="#6e77e5"/>
      <path d="M109.462,91.613l-3.384-2.84H30.289l-3.384,2.84L35.932,94.9c.223.709.476,1.4.744,2.092l-4.793,8.3h9.471q.731.953,1.527,1.85l-1.641,9.3,8.791-3.2c.715.457,1.446.892,2.2,1.294l1.619,9.184,7.112-5.967q1.273.278,2.583.457l4.641,8.038,4.641-8.038q1.308-.18,2.584-.457l7.111,5.967,1.62-9.184c.751-.4,1.481-.837,2.2-1.294l8.79,3.2-1.64-9.3q.8-.9,1.527-1.85h9.47l-4.792-8.3c.268-.688.52-1.383.743-2.092Z" fill="#e5e5e5"/>
      <rect x="40.941" y="47.171" width="54.484" height="32.725" fill="#fedb41"/>
      <rect x="53.909" y="59.181" width="28.548" height="8.704" rx="4.352" fill="#fea832"/>
      <path d="M30.211,51.759,22.153,41.446a15.265,15.265,0,0,1,2.176-21.112l8.929-7.555a7.438,7.438,0,0,1,10.156.529L60.6,31.222H73.468L50.114,6.88A16.746,16.746,0,0,0,27.261,5.691l-8.928,7.555a24.524,24.524,0,0,0-3.5,33.916L27.9,63.878Z" fill="#6e77e5"/>
      <path d="M44.622,88.773a23.975,23.975,0,0,0,47.122,0Z" fill="#aeadb3"/>
    </g>
    <g>
      <path d="M118.4,78.146h-5.126V59.073a29.634,29.634,0,0,0-29.6-29.6H74.214L51.377,5.668A18.5,18.5,0,0,0,26.132,4.355L17.2,11.91a26.269,26.269,0,0,0-3.744,36.328L26.03,64.329,23.392,78.146H17.964a1.749,1.749,0,0,0-1.75,1.75v8.877a1.749,1.749,0,0,0,1.75,1.75H25.55a1.736,1.736,0,0,0,.756,2.735l8.232,3c.065.189.135.383.207.581l-4.377,7.582a1.75,1.75,0,0,0,1.516,2.625H40.5q.251.31.509.616l-1.5,8.482a1.75,1.75,0,0,0,2.322,1.948l7.989-2.907q.415.252.821.483l1.475,8.362a1.751,1.751,0,0,0,2.849,1.038l6.463-5.425c.334.064.671.124,1.012.178l4.22,7.308a1.75,1.75,0,0,0,3.031,0l4.219-7.308c.341-.054.679-.114,1.013-.178l6.463,5.425a1.751,1.751,0,0,0,2.849-1.038l1.474-8.362q.407-.231.821-.484l7.989,2.908a1.751,1.751,0,0,0,2.323-1.948l-1.5-8.483c.171-.2.341-.408.508-.615h8.621A1.75,1.75,0,0,0,106,104.417l-4.378-7.582c.072-.2.142-.391.208-.582l8.231-3a1.736,1.736,0,0,0,.756-2.735H118.4a1.749,1.749,0,0,0,1.75-1.75V79.9A1.749,1.749,0,0,0,118.4,78.146ZM19.463,14.582l8.929-7.555a14.992,14.992,0,0,1,20.46,1.065l20.511,21.38H61.348L44.678,12.1a9.188,9.188,0,0,0-12.55-.654L23.2,19a17.01,17.01,0,0,0-2.425,23.525l7.569,9.688L26.9,59.761,16.216,46.084A22.78,22.78,0,0,1,19.463,14.582Zm4.069,25.787a13.522,13.522,0,0,1,1.927-18.7l8.93-7.555a5.68,5.68,0,0,1,7.762.4L56.5,29.472H34.131a1.749,1.749,0,0,0-1.719,1.422l-3.2,16.748Zm12.046-7.4h48.1a26.131,26.131,0,0,1,26.1,26.1V78.146h-12.6V47.171a1.749,1.749,0,0,0-1.75-1.75h-20.3a1.75,1.75,0,0,0,0,3.5h18.55V78.146H42.691V48.921h7.934a1.75,1.75,0,0,0,0-3.5H40.941a1.75,1.75,0,0,0-1.75,1.75V78.146H26.955Zm70.438,58.033-6.18,2.249a1.75,1.75,0,0,0-1.07,1.118c-.2.619-.426,1.268-.706,1.982a1.751,1.751,0,0,0,.115,1.512l3.277,5.676H95.013a1.748,1.748,0,0,0-1.388.685c-.463.6-.95,1.192-1.448,1.755a1.746,1.746,0,0,0-.414,1.464l1.113,6.317L86.935,111.6a1.75,1.75,0,0,0-1.541.17c-.727.463-1.408.865-2.082,1.225a1.755,1.755,0,0,0-.9,1.239l-1.093,6.2-4.789-4.02a1.757,1.757,0,0,0-1.5-.369c-.79.173-1.614.318-2.45.433a1.75,1.75,0,0,0-1.276.859l-3.125,5.413-3.126-5.413a1.754,1.754,0,0,0-1.277-.859c-.837-.115-1.66-.26-2.449-.433a1.812,1.812,0,0,0-.373-.04,1.75,1.75,0,0,0-1.125.409l-4.789,4.02-1.094-6.2a1.753,1.753,0,0,0-.9-1.239c-.676-.362-1.357-.763-2.08-1.225a1.756,1.756,0,0,0-1.541-.17l-5.943,2.163,1.114-6.317a1.746,1.746,0,0,0-.414-1.464c-.5-.569-.991-1.16-1.449-1.755a1.748,1.748,0,0,0-1.388-.685H34.915l3.276-5.676a1.75,1.75,0,0,0,.116-1.51c-.285-.73-.516-1.379-.706-1.984a1.754,1.754,0,0,0-1.071-1.118l-6.178-2.248.574-.483h12.31a25.71,25.71,0,0,0,24.948,19.54,1.75,1.75,0,0,0,0-3.5,22.228,22.228,0,0,1-21.35-16.04h42.7A22.22,22.22,0,0,1,79.279,103.6a1.75,1.75,0,0,0,1.75,3.031A25.7,25.7,0,0,0,93.153,90.523h12.288Zm10.636-3.982H19.714V81.646h96.938Z"/>
      <path d="M61.75,48.921H64a1.75,1.75,0,0,0,0-3.5H61.75a1.75,1.75,0,0,0,0,3.5Z"/>
      <path d="M58.262,69.635H78.105a6.1,6.1,0,1,0,0-12.2H58.262a6.1,6.1,0,1,0,0,12.2Zm0-8.7H78.105a2.6,2.6,0,1,1,0,5.2H58.262a2.6,2.6,0,1,1,0-5.2Z"/>
    </g>
  </g>
</svg>
