<svg xmlns="http://www.w3.org/2000/svg" width="128" height="128" viewBox="0 0 128 128">
  <title>CLAMP</title>
  <g>
    <g>
      <polygon points="99.978 43.631 72.307 43.631 72.307 37.018 77.655 30.405 94.63 30.405 99.978 37.018 99.978 43.631" fill="#fedb41"/>
      <polygon points="72.307 59.708 99.978 59.708 99.978 66.321 94.63 72.934 77.655 72.934 72.307 66.321 72.307 59.708" fill="#fedb41"/>
      <path d="M29.909,83.63v-71.2H80.8V30.405H91.486V7.091a5.344,5.344,0,0,0-5.343-5.344h-57.3a9.619,9.619,0,0,0-9.619,9.619V84.7a9.619,9.619,0,0,0,9.619,9.619H91.486V83.63Z" fill="#57555c"/>
      <rect x="80.799" y="72.942" width="10.687" height="10.687" fill="#e5e5e5"/>
      <path d="M80.8,94.317H91.486a0,0,0,0,1,0,0v28.729a3.2,3.2,0,0,1-3.2,3.2H84a3.2,3.2,0,0,1-3.2-3.2V94.317A0,0,0,0,1,80.8,94.317Z" fill="#e5e5e5"/>
      <rect x="70.722" y="110.886" width="10.077" height="7.214" fill="#6e77e5"/>
      <rect x="91.486" y="110.886" width="10.078" height="7.214" fill="#6e77e5"/>
      <path d="M105.171,105.187h0a3.607,3.607,0,0,0-3.607,3.607v11.4a3.607,3.607,0,0,0,3.607,3.607h0a3.607,3.607,0,0,0,3.607-3.607v-11.4A3.607,3.607,0,0,0,105.171,105.187Z" fill="#fedb41"/>
      <path d="M67.115,105.187h0a3.606,3.606,0,0,0-3.607,3.607v11.4a3.606,3.606,0,0,0,3.607,3.607h0a3.607,3.607,0,0,0,3.607-3.607v-11.4A3.607,3.607,0,0,0,67.115,105.187Z" fill="#fedb41"/>
    </g>
    <g>
      <path d="M54.344,81.882a1.75,1.75,0,1,0,0,3.5H57.25a1.75,1.75,0,0,0,0-3.5Z"/>
      <path d="M105.171,103.44a5.364,5.364,0,0,0-5.357,5.357v.342H93.236V74.686H94.63a1.751,1.751,0,0,0,1.361-.649l5.348-6.613a1.748,1.748,0,0,0,.389-1.1V59.711a1.751,1.751,0,0,0-1.75-1.75H72.308a1.75,1.75,0,0,0-1.75,1.75v6.613a1.748,1.748,0,0,0,.389,1.1l5.347,6.613a1.751,1.751,0,0,0,1.361.649h1.394v7.2H68.781a1.75,1.75,0,0,0,0,3.5H89.736V92.57H28.841A7.878,7.878,0,0,1,20.972,84.7V11.369A7.878,7.878,0,0,1,28.841,3.5h57.3a3.6,3.6,0,0,1,3.593,3.594V28.658H82.549V12.438a1.749,1.749,0,0,0-1.75-1.75H29.91a1.749,1.749,0,0,0-1.75,1.75V83.632a1.749,1.749,0,0,0,1.75,1.75h12.9a1.75,1.75,0,0,0,0-3.5H31.66V14.188H79.049v14.47H77.655a1.752,1.752,0,0,0-1.361.65L70.947,35.92a1.753,1.753,0,0,0-.389,1.1v6.613a1.75,1.75,0,0,0,1.75,1.75H89.875a1.75,1.75,0,0,0,0-3.5H74.058V37.64l4.433-5.482h15.3l4.434,5.482v5.994a1.75,1.75,0,0,0,3.5,0V37.021a1.753,1.753,0,0,0-.389-1.1l-5.348-6.612a1.752,1.752,0,0,0-1.361-.65H93.236V7.094A7.1,7.1,0,0,0,86.143,0h-57.3A11.382,11.382,0,0,0,17.472,11.369V84.7A11.382,11.382,0,0,0,28.841,96.07H79.049v13.069H72.472V108.8a5.357,5.357,0,0,0-10.714,0v11.4a5.357,5.357,0,0,0,10.714,0v-.341h6.577v3.2A4.957,4.957,0,0,0,84,128h4.285a4.957,4.957,0,0,0,4.951-4.951v-3.2h6.578v.341a5.357,5.357,0,1,0,10.714,0V108.8A5.364,5.364,0,0,0,105.171,103.44ZM74.058,65.705V61.461h24.17v4.244l-4.434,5.481h-15.3Zm8.491,16.177V74.695h7.187v7.187ZM68.972,120.193a1.857,1.857,0,0,1-3.714,0V108.8a1.857,1.857,0,0,1,3.714,0Zm3.5-3.841v-3.713h6.577v3.713Zm17.264,6.7a1.453,1.453,0,0,1-1.451,1.451H84a1.453,1.453,0,0,1-1.451-1.451V96.07h7.187Zm3.5-6.7v-3.713h6.578v3.713Zm13.792,3.841a1.857,1.857,0,1,1-3.714,0V108.8a1.857,1.857,0,1,1,3.714,0Z"/>
    </g>
  </g>
</svg>
