<svg id="Layer_1" data-name="Layer 1" xmlns="http://www.w3.org/2000/svg" viewBox="0 0 64 64"><title>clean-cleaning-laundry-basket-cloth-wash</title><path d="M51.023,63H12.977a2.684,2.684,0,0,1-2.545-2.019L3.026,34.648A2.805,2.805,0,0,1,5.57,31H58.43a2.805,2.805,0,0,1,2.544,3.648L53.568,60.981A2.684,2.684,0,0,1,51.023,63Z" style="fill:none;stroke:#231f20;stroke-linejoin:round;stroke-width:2px"/><rect x="21" y="35" width="22" height="5" rx="2.5" style="fill:none;stroke:#231f20;stroke-linejoin:round;stroke-width:2px"/><polygon points="17 50 11.61 50 10 44 15.25 44 17 50" style="fill:none;stroke:#231f20;stroke-linejoin:round;stroke-width:2px"/><polygon points="26 50 20.61 50 19 44 24.25 44 26 50" style="fill:none;stroke:#231f20;stroke-linejoin:round;stroke-width:2px"/><polygon points="38 50 43.39 50 45 44 39.75 44 38 50" style="fill:none;stroke:#231f20;stroke-linejoin:round;stroke-width:2px"/><polygon points="47 50 52.39 50 54 44 48.75 44 47 50" style="fill:none;stroke:#231f20;stroke-linejoin:round;stroke-width:2px"/><polygon points="37 59 41.62 59 43 54 38.5 54 37 59" style="fill:none;stroke:#231f20;stroke-linejoin:round;stroke-width:2px"/><polygon points="45 59 49.62 59 51 54 46.5 54 45 59" style="fill:none;stroke:#231f20;stroke-linejoin:round;stroke-width:2px"/><polygon points="27 59 22.38 59 21 54 25.5 54 27 59" style="fill:none;stroke:#231f20;stroke-linejoin:round;stroke-width:2px"/><polygon points="19 59 14.38 59 13 54 17.5 54 19 59" style="fill:none;stroke:#231f20;stroke-linejoin:round;stroke-width:2px"/><polygon points="34.5 50 29.5 50 28 44 36 44 34.5 50" style="fill:none;stroke:#231f20;stroke-linejoin:round;stroke-width:2px"/><polygon points="33.667 59 30.333 59 29 54 35 54 33.667 59" style="fill:none;stroke:#231f20;stroke-linejoin:round;stroke-width:2px"/><path d="M54,19a8,8,0,0,0-8-8H13a3,3,0,0,0-3,3h0a3,3,0,0,0,3,3H43a2,2,0,0,1,2,2h0a2,2,0,0,1-2,2H13a3,3,0,0,0-3,3h0a3,3,0,0,0,3,3H46a8,8,0,0,0,8-8Z" style="fill:none;stroke:#231f20;stroke-linejoin:round;stroke-width:2px"/><rect x="13" y="1" width="38" height="6" rx="3" style="fill:none;stroke:#231f20;stroke-linejoin:round;stroke-width:2px"/></svg>