<svg xmlns="http://www.w3.org/2000/svg" viewBox="0 0 64 64"><title>cleaning-clean-plunger-toilet</title><g id="Layer_13" data-name="Layer 13"><rect x="10" y="59" width="44" height="4" rx="2" style="fill:none;stroke:#231f20;stroke-linejoin:round;stroke-width:2px"/><path d="M30,42h4A17,17,0,0,1,51,59v0a0,0,0,0,1,0,0H13a0,0,0,0,1,0,0v0A17,17,0,0,1,30,42Z" style="fill:none;stroke:#231f20;stroke-linejoin:round;stroke-width:2px"/><path d="M36,46a9,9,0,0,1,8.488,6" style="fill:none;stroke:#231f20;stroke-linejoin:round;stroke-width:2px"/><rect x="28.5" y="38" width="7" height="4" style="fill:none;stroke:#231f20;stroke-linejoin:round;stroke-width:2px"/><path d="M32,1h0a2.5,2.5,0,0,1,2.5,2.5V38a0,0,0,0,1,0,0h-5a0,0,0,0,1,0,0V3.5A2.5,2.5,0,0,1,32,1Z" style="fill:none;stroke:#231f20;stroke-linejoin:round;stroke-width:2px"/><path d="M18,40a6,6,0,0,0-6,6h0" style="fill:none;stroke:#231f20;stroke-linejoin:round;stroke-width:2px"/><path d="M14,34a9,9,0,0,0-9,9H5" style="fill:none;stroke:#231f20;stroke-linejoin:round;stroke-width:2px"/><path d="M51.5,46.5a6,6,0,0,0-6-6h0" style="fill:none;stroke:#231f20;stroke-linejoin:round;stroke-width:2px"/><path d="M57.5,42.5a9,9,0,0,0-9-9h0" style="fill:none;stroke:#231f20;stroke-linejoin:round;stroke-width:2px"/><circle cx="15" cy="23" r="5" style="fill:none;stroke:#231f20;stroke-linejoin:round;stroke-width:2px"/><path d="M17,23a2,2,0,0,1-2,2" style="fill:none;stroke:#231f20;stroke-linejoin:round;stroke-width:2px"/><circle cx="56" cy="8" r="5" style="fill:none;stroke:#231f20;stroke-linejoin:round;stroke-width:2px"/><path d="M58,8a2,2,0,0,1-2,2" style="fill:none;stroke:#231f20;stroke-linejoin:round;stroke-width:2px"/></g></svg>