<svg xmlns="http://www.w3.org/2000/svg" viewBox="0 0 64 64"><title>cleaning-clean-tap-water-wash</title><g id="Layer_20" data-name="Layer 20"><polyline points="37 30 37 24 57 24 57 59 37 59 37 37" style="fill:none;stroke:#231f20;stroke-linejoin:round;stroke-width:2px"/><rect x="41" y="18" width="12" height="6" style="fill:none;stroke:#231f20;stroke-linejoin:round;stroke-width:2px"/><path d="M53,18h0a8.248,8.248,0,0,0-5.709-7.847L22.121,2.01A2.386,2.386,0,0,0,19,4.28h0a2.386,2.386,0,0,0,1.632,2.264l18.573,6.191A5.55,5.55,0,0,1,43,18H53Z" style="fill:none;stroke:#231f20;stroke-linejoin:round;stroke-width:2px"/><path d="M40,36H4a6,6,0,0,1,6-6H42" style="fill:none;stroke:#231f20;stroke-linejoin:round;stroke-width:2px"/><rect x="4" y="36" width="10" height="6" style="fill:none;stroke:#231f20;stroke-linejoin:round;stroke-width:2px"/><path d="M8.5,47.182,5.433,52.758A3.5,3.5,0,0,0,5,54.444V54.5A3.5,3.5,0,0,0,8.5,58h0A3.5,3.5,0,0,0,12,54.5v-.056a3.5,3.5,0,0,0-.433-1.686Z" style="fill:none;stroke:#231f20;stroke-linejoin:round;stroke-width:2px"/><rect x="33" y="59" width="28" height="4" style="fill:none;stroke:#231f20;stroke-linejoin:round;stroke-width:2px"/><polyline points="48 28 53 28 53 32" style="fill:none;stroke:#231f20;stroke-linejoin:round;stroke-width:2px"/><line x1="53" y1="34" x2="53" y2="56" style="fill:none;stroke:#231f20;stroke-linejoin:round;stroke-width:2px"/></g></svg>