<svg xmlns="http://www.w3.org/2000/svg" viewBox="0 0 64 64"><title>cleaning-clean-wash-car-vehicle-transportation</title><g id="_28-car_wash" data-name="28-car wash"><path d="M23,47H3V36.947A5.948,5.948,0,0,1,8.947,31H55.053A5.948,5.948,0,0,1,61,36.947V47H41" style="fill:#57a4ff"/><path d="M17.947,31h-9A5.948,5.948,0,0,0,3,36.947V47h9V36.947A5.948,5.948,0,0,1,17.947,31Z" style="fill:#006df0"/><path d="M52,25h5.766A1.33,1.33,0,0,1,59,26.41v1.18A1.33,1.33,0,0,1,57.766,29H53.75" style="fill:#c6c5ca"/><polygon points="52 25 53.75 29 56.75 29 55 25 52 25" style="fill:#898890"/><path d="M11,25H5.234A1.33,1.33,0,0,0,4,26.41v1.18A1.33,1.33,0,0,0,5.234,29H9.25" style="fill:#c6c5ca"/><path d="M6,27.59V26.41A1.33,1.33,0,0,1,7.234,25h-2A1.33,1.33,0,0,0,4,26.41v1.18A1.33,1.33,0,0,0,5.234,29h2A1.33,1.33,0,0,1,6,27.59Z" style="fill:#898890"/><rect x="23" y="45" width="18" height="8" style="fill:#b3d8f4"/><rect x="23" y="45" width="4" height="8" style="fill:#57a4ff"/><path d="M5,51H15a0,0,0,0,1,0,0v4.624A2.376,2.376,0,0,1,12.624,58H7.376A2.376,2.376,0,0,1,5,55.624V51A0,0,0,0,1,5,51Z" style="fill:#898890"/><path d="M8,55.624V51H5v4.624A2.376,2.376,0,0,0,7.376,58h3A2.376,2.376,0,0,1,8,55.624Z" style="fill:#3e3d42"/><path d="M49,51H59a0,0,0,0,1,0,0v4.624A2.376,2.376,0,0,1,56.624,58H51.376A2.376,2.376,0,0,1,49,55.624V51A0,0,0,0,1,49,51Z" style="fill:#898890"/><path d="M52,55.624V51H49v4.624A2.376,2.376,0,0,0,51.376,58h3A2.376,2.376,0,0,1,52,55.624Z" style="fill:#3e3d42"/><rect x="1" y="47" width="22" height="4" style="fill:#c6c5ca"/><rect x="41" y="47" width="22" height="4" style="fill:#c6c5ca"/><path d="M55,31H9l5.612-12.828A5.294,5.294,0,0,1,19.462,15H44.538a5.294,5.294,0,0,1,4.85,3.172Z" style="fill:#ddedff"/><path d="M26.462,15h-7a5.294,5.294,0,0,0-4.85,3.172L9,31h7l5.612-12.828A5.294,5.294,0,0,1,26.462,15Z" style="fill:#b3d8f4"/><path d="M8,34h9.475a1.288,1.288,0,0,1,1.271,1.5L18,40h0A14.485,14.485,0,0,1,7.757,35.757l-.34-.34A.83.83,0,0,1,8,34Z" style="fill:#fff5cc"/><path d="M11.757,35.757l-.34-.34A.83.83,0,0,1,12,34H8a.83.83,0,0,0-.587,1.417l.34.34A14.485,14.485,0,0,0,18,40l.092-.55A14.468,14.468,0,0,1,11.757,35.757Z" style="fill:#ffb655"/><path d="M55.936,34H46.461a1.288,1.288,0,0,0-1.271,1.5l.75,4.5h0a14.485,14.485,0,0,0,10.243-4.243l.34-.34A.83.83,0,0,0,55.936,34Z" style="fill:#fff5cc"/><path d="M48.19,35.5A1.288,1.288,0,0,1,49.461,34h-3a1.288,1.288,0,0,0-1.271,1.5l.75,4.5a14.5,14.5,0,0,0,2.949-.308Z" style="fill:#ffb655"/><path d="M62,9.5h0A4.5,4.5,0,0,1,57.5,5h0A4.5,4.5,0,0,1,53,9.5h0A4.5,4.5,0,0,1,57.5,14h0A4.5,4.5,0,0,1,62,9.5Z" style="fill:#ffb655"/><path d="M11,15.5h0A4.5,4.5,0,0,1,6.5,11h0A4.5,4.5,0,0,1,2,15.5H2A4.5,4.5,0,0,1,6.5,20h0A4.5,4.5,0,0,1,11,15.5Z" style="fill:#ffb655"/><path d="M55,31H9l5.612-12.828A5.294,5.294,0,0,1,19.462,15H44.538a5.294,5.294,0,0,1,4.85,3.172Z" style="fill:none;stroke:#000;stroke-linejoin:round;stroke-width:2px"/><path d="M23,47H3V36.947A5.948,5.948,0,0,1,8.947,31H55.053A5.948,5.948,0,0,1,61,36.947V47H41" style="fill:none;stroke:#000;stroke-linejoin:round;stroke-width:2px"/><path d="M8,34h9.475a1.288,1.288,0,0,1,1.271,1.5L18,40h0A14.485,14.485,0,0,1,7.757,35.757l-.34-.34A.83.83,0,0,1,8,34Z" style="fill:none;stroke:#000;stroke-linejoin:round;stroke-width:2px"/><path d="M55.936,34H46.461a1.288,1.288,0,0,0-1.271,1.5l.75,4.5h0a14.485,14.485,0,0,0,10.243-4.243l.34-.34A.83.83,0,0,0,55.936,34Z" style="fill:none;stroke:#000;stroke-linejoin:round;stroke-width:2px"/><rect x="23" y="45" width="18" height="8" style="fill:none;stroke:#000;stroke-linejoin:round;stroke-width:2px"/><rect x="1" y="47" width="22" height="4" style="fill:none;stroke:#000;stroke-linejoin:round;stroke-width:2px"/><rect x="41" y="47" width="22" height="4" style="fill:none;stroke:#000;stroke-linejoin:round;stroke-width:2px"/><line x1="25" y1="35" x2="39" y2="35" style="fill:none;stroke:#000;stroke-linejoin:round;stroke-width:2px"/><line x1="26" y1="38" x2="38" y2="38" style="fill:none;stroke:#000;stroke-linejoin:round;stroke-width:2px"/><line x1="27" y1="41" x2="37" y2="41" style="fill:none;stroke:#000;stroke-linejoin:round;stroke-width:2px"/><path d="M5,51H15a0,0,0,0,1,0,0v4.624A2.376,2.376,0,0,1,12.624,58H7.376A2.376,2.376,0,0,1,5,55.624V51A0,0,0,0,1,5,51Z" style="fill:none;stroke:#000;stroke-linejoin:round;stroke-width:2px"/><path d="M49,51H59a0,0,0,0,1,0,0v4.624A2.376,2.376,0,0,1,56.624,58H51.376A2.376,2.376,0,0,1,49,55.624V51A0,0,0,0,1,49,51Z" style="fill:none;stroke:#000;stroke-linejoin:round;stroke-width:2px"/><path d="M52,25h5.766A1.33,1.33,0,0,1,59,26.41v1.18A1.33,1.33,0,0,1,57.766,29H53.75" style="fill:none;stroke:#000;stroke-linejoin:round;stroke-width:2px"/><path d="M11,25H5.234A1.33,1.33,0,0,0,4,26.41v1.18A1.33,1.33,0,0,0,5.234,29H9.25" style="fill:none;stroke:#000;stroke-linejoin:round;stroke-width:2px"/><path d="M62,9.5h0A4.5,4.5,0,0,1,57.5,5h0A4.5,4.5,0,0,1,53,9.5h0A4.5,4.5,0,0,1,57.5,14h0A4.5,4.5,0,0,1,62,9.5Z" style="fill:none;stroke:#000;stroke-linejoin:round;stroke-width:2px"/><path d="M11,15.5h0A4.5,4.5,0,0,1,6.5,11h0A4.5,4.5,0,0,1,2,15.5H2A4.5,4.5,0,0,1,6.5,20h0A4.5,4.5,0,0,1,11,15.5Z" style="fill:none;stroke:#000;stroke-linejoin:round;stroke-width:2px"/></g></svg>