<svg xmlns="http://www.w3.org/2000/svg" viewBox="0 0 64 64"><title>cleaning-clean-bottle-laundry-liquid-detergent-chore</title><g id="_21-detergent" data-name="21-detergent"><path d="M49.859,20.084l-4.1-5.579A11.037,11.037,0,0,0,36.865,10h-24l-.447.468a8.735,8.735,0,0,0,0,12.064l.447.468V57H52V26.617A11.039,11.039,0,0,0,49.859,20.084Zm-5.471,7.5a2.966,2.966,0,0,1-4.243-.429l-2.843-3.6a3.112,3.112,0,0,1,.434-4.3L40.393,17,47,25.374Z" style="fill:#fff5cc"/><path d="M16.417,22.532a8.735,8.735,0,0,1,0-12.064L16.864,10h-4l-.447.468a8.735,8.735,0,0,0,0,12.064l.447.468V57h4V23Z" style="fill:#ffb655"/><rect x="13" y="6" width="12" height="4" style="fill:#c6c5ca"/><rect x="13" y="6" width="4" height="4" style="fill:#898890"/><path d="M55,59.03V63H10V59.03A2.031,2.031,0,0,1,12.03,57H52.97A2.031,2.031,0,0,1,55,59.03Z" style="fill:#57a4ff"/><path d="M17,57v6H10V59.03A2.031,2.031,0,0,1,12.03,57Z" style="fill:#006df0"/><rect x="14" y="1" width="10" height="5" style="fill:#57a4ff"/><rect x="14" y="1" width="4" height="5" style="fill:#006df0"/><path d="M19.533,23h8.838a5.943,5.943,0,0,1,4.4,1.946L39.454,32.3A5.941,5.941,0,0,1,41,36.3v9.223A2.479,2.479,0,0,1,38.521,48H13V23h4.667" style="fill:#ffb655"/><rect x="13" y="23" width="4" height="25" style="fill:#b2782a"/><path d="M12.033,57H52.967A2.033,2.033,0,0,1,55,59.033V63a0,0,0,0,1,0,0H10a0,0,0,0,1,0,0V59.033A2.033,2.033,0,0,1,12.033,57Z" style="fill:none;stroke:#000;stroke-linejoin:round;stroke-width:2px"/><path d="M36.865,10h-24l-.447.468A8.732,8.732,0,0,0,10,16.5h0a8.732,8.732,0,0,0,2.417,6.032l.447.468V57H52V26.617a11.039,11.039,0,0,0-2.141-6.533l-4.1-5.579A11.037,11.037,0,0,0,36.865,10Z" style="fill:none;stroke:#000;stroke-linejoin:round;stroke-width:2px"/><rect x="13" y="6" width="12" height="4" style="fill:none;stroke:#000;stroke-linejoin:round;stroke-width:2px"/><rect x="14" y="1" width="10" height="5" style="fill:none;stroke:#000;stroke-linejoin:round;stroke-width:2px"/><path d="M40.393,17,47,25.374l-2.612,2.208a2.966,2.966,0,0,1-4.243-.429l-2.843-3.6a3.112,3.112,0,0,1,.434-4.3Z" style="fill:none;stroke:#000;stroke-linejoin:round;stroke-width:2px"/><line x1="17" y1="6" x2="17" y2="10" style="fill:none;stroke:#000;stroke-linejoin:round;stroke-width:2px"/><line x1="21" y1="6" x2="21" y2="9" style="fill:none;stroke:#000;stroke-linejoin:round;stroke-width:2px"/><path d="M19.533,23h8.838a5.943,5.943,0,0,1,4.4,1.946L39.454,32.3A5.941,5.941,0,0,1,41,36.3v9.223A2.479,2.479,0,0,1,38.521,48H13V23h4.667" style="fill:none;stroke:#000;stroke-linejoin:round;stroke-width:2px"/><line x1="19" y1="32" x2="31" y2="32" style="fill:none;stroke:#000;stroke-linejoin:round;stroke-width:2px"/><line x1="17" y1="37" x2="34" y2="37" style="fill:none;stroke:#000;stroke-linejoin:round;stroke-width:2px"/><line x1="17" y1="42" x2="34" y2="42" style="fill:none;stroke:#000;stroke-linejoin:round;stroke-width:2px"/><line x1="50" y1="60" x2="52" y2="60" style="fill:none;stroke:#000;stroke-linejoin:round;stroke-width:2px"/><line x1="46" y1="60" x2="48" y2="60" style="fill:none;stroke:#000;stroke-linejoin:round;stroke-width:2px"/></g></svg>