<svg xmlns="http://www.w3.org/2000/svg" viewBox="0 0 64 64"><title>cleaning-clean-bursh-chore-brush-dust-dirt</title><g id="_22-bursh" data-name="22-bursh"><path d="M51.586,45.95a4,4,0,0,0,5.657-5.657l1.585,2.243a4,4,0,0,0,0-8l1.415.242a4,4,0,1,0-5.657-5.657" style="fill:#c6c5ca"/><path d="M18.925,5.646a4,4,0,0,0-8,0l.464-2.707A4,4,0,0,0,5.732,8.6L4.9,7.425a4,4,0,0,0,0,8" style="fill:#c6c5ca"/><path d="M42.556,32.414a11.946,11.946,0,0,0,3.5-8.23A10.6,10.6,0,1,0,33.816,11.941,11.954,11.954,0,0,0,22.2,22.243,12,12,0,1,0,35.757,35.8,11.934,11.934,0,0,0,42.556,32.414Z" style="fill:#fff5cc"/><path d="M20.4,29.626a11.931,11.931,0,0,1,6.8-3.383,11.954,11.954,0,0,1,11.613-10.3A10.581,10.581,0,0,1,53.069,7.862,10.595,10.595,0,0,0,36.758,6.251a10.544,10.544,0,0,0-2.942,5.69A11.954,11.954,0,0,0,22.2,22.243a11.987,11.987,0,0,0-3.021,22.9A11.991,11.991,0,0,1,20.4,29.626Z" style="fill:#ffb655"/><path d="M17.1,43.728,7.908,52.92a2,2,0,0,0,0,2.829h0a2,2,0,0,0,2.829,0h0a2,2,0,0,1,2.828,0h0a2,2,0,0,1,0,2.828h0a6,6,0,0,1-8.485,0h0a6,6,0,0,1,0-8.485L14.272,40.9" style="fill:#57a4ff"/><path d="M42.556,32.414a11.946,11.946,0,0,0,3.5-8.23A10.6,10.6,0,1,0,33.816,11.941,11.954,11.954,0,0,0,22.2,22.243,12,12,0,1,0,35.757,35.8,11.934,11.934,0,0,0,42.556,32.414Z" style="fill:none;stroke:#000;stroke-linejoin:round;stroke-width:2px"/><path d="M17.1,43.728,7.908,52.92a2,2,0,0,0,0,2.829h0a2,2,0,0,0,2.829,0h0a2,2,0,0,1,2.828,0h0a2,2,0,0,1,0,2.828h0a6,6,0,0,1-8.485,0h0a6,6,0,0,1,0-8.485L14.272,40.9" style="fill:none;stroke:#000;stroke-linejoin:round;stroke-width:2px"/><line x1="33.364" y1="11.908" x2="35.485" y2="14.029" style="fill:none;stroke:#000;stroke-linejoin:round;stroke-width:2px"/><line x1="36.192" y1="35.95" x2="34.071" y2="33.828" style="fill:none;stroke:#000;stroke-linejoin:round;stroke-width:2px"/><path d="M48.92,10.494a5,5,0,0,1,0,7.071" style="fill:none;stroke:#000;stroke-linejoin:round;stroke-width:2px"/><path d="M18.161,37.718a5.5,5.5,0,0,1,0-7.779" style="fill:none;stroke:#000;stroke-linejoin:round;stroke-width:2px"/><path d="M4.9,15.425a4,4,0,0,1,0-8" style="fill:none;stroke:#000;stroke-linejoin:round;stroke-width:2px"/><path d="M5.732,8.6a4,4,0,0,1,5.657-5.657" style="fill:none;stroke:#000;stroke-linejoin:round;stroke-width:2px"/><path d="M10.925,5.646a4,4,0,0,1,8,0" style="fill:none;stroke:#000;stroke-linejoin:round;stroke-width:2px"/><line x1="4" y1="12" x2="6" y2="12" style="fill:none;stroke:#000;stroke-linejoin:round;stroke-width:2px"/><line x1="14" y1="5" x2="16" y2="5" style="fill:none;stroke:#000;stroke-linejoin:round;stroke-width:2px"/><path d="M54.586,29.121a4,4,0,1,1,5.657,5.657" style="fill:none;stroke:#000;stroke-linejoin:round;stroke-width:2px"/><path d="M58.828,34.536a4,4,0,0,1,0,8" style="fill:none;stroke:#000;stroke-linejoin:round;stroke-width:2px"/><path d="M57.243,40.293a4,4,0,0,1-5.657,5.657" style="fill:none;stroke:#000;stroke-linejoin:round;stroke-width:2px"/><line x1="56" y1="32" x2="58" y2="32" style="fill:none;stroke:#000;stroke-linejoin:round;stroke-width:2px"/><line x1="54" y1="43" x2="56" y2="43" style="fill:none;stroke:#000;stroke-linejoin:round;stroke-width:2px"/></g></svg>