<svg xmlns="http://www.w3.org/2000/svg" viewBox="0 0 64 64"><title>cleaning-clean-brush-hygiene-toilet</title><g id="_03-brush" data-name="03-brush"><path d="M12,55h6.5A2.5,2.5,0,0,1,21,57.5h0A2.5,2.5,0,0,1,18.5,60H6a4,4,0,0,0-4,4H62a5,5,0,0,0-5-5H51.5A3.5,3.5,0,0,1,48,55.5h0V52h5.5A3.5,3.5,0,0,0,57,48.5V40H17v2a4,4,0,0,1-4,4h0Z" style="fill:#ddedff"/><path d="M48,55.5h0A3.5,3.5,0,0,0,51.5,59H57a5,5,0,0,1,5,5h0" style="fill:none;stroke:#000;stroke-linejoin:round;stroke-width:2px"/><circle cx="48" cy="52" r="4" style="fill:#b3d8f4"/><path d="M47,52a4,4,0,0,1,2.5-3.7,4,4,0,1,0,0,7.406A4,4,0,0,1,47,52Z" style="fill:#57a4ff"/><circle cx="9" cy="50" r="6" style="fill:#b3d8f4"/><path d="M7,50a6,6,0,0,1,4-5.651,6,6,0,1,0,0,11.3A6,6,0,0,1,7,50Z" style="fill:#57a4ff"/><rect x="4" y="19" width="56" height="21" style="fill:#fff5cc"/><rect x="4" y="19" width="7" height="21" style="fill:#ffb655"/><rect x="2" y="11" width="60" height="8" style="fill:#57a4ff"/><rect x="2" y="11" width="8" height="8" style="fill:#006df0"/><polygon points="15 11 15 5 49 5 49 11 55 11 55 1 9 1 9 11 15 11" style="fill:#898890"/><polygon points="15 11 15 5 49 5 49 11 55 11 55 1 9 1 9 11 15 11" style="fill:#898890"/><polygon points="23 1 15 1 14 1 9 1 9 11 15 11 15 5 23 5 23 1" style="fill:#3e3d42"/><rect x="2" y="11" width="60" height="8" style="fill:none;stroke:#000;stroke-linejoin:round;stroke-width:2px"/><rect x="4" y="19" width="56" height="21" style="fill:none;stroke:#000;stroke-linejoin:round;stroke-width:2px"/><line x1="5" y1="15" x2="7" y2="15" style="fill:none;stroke:#000;stroke-linejoin:round;stroke-width:2px"/><line x1="9" y1="15" x2="11" y2="15" style="fill:none;stroke:#000;stroke-linejoin:round;stroke-width:2px"/><line x1="11" y1="28" x2="11" y2="30" style="fill:none;stroke:#000;stroke-linejoin:round;stroke-width:2px"/><line x1="11" y1="32" x2="11" y2="39" style="fill:none;stroke:#000;stroke-linejoin:round;stroke-width:2px"/><line x1="20" y1="31" x2="20" y2="40" style="fill:none;stroke:#000;stroke-linejoin:round;stroke-width:2px"/><line x1="43" y1="32" x2="43" y2="39" style="fill:none;stroke:#000;stroke-linejoin:round;stroke-width:2px"/><line x1="52" y1="39" x2="52" y2="30" style="fill:none;stroke:#000;stroke-linejoin:round;stroke-width:2px"/><line x1="29" y1="39" x2="29" y2="34" style="fill:none;stroke:#000;stroke-linejoin:round;stroke-width:2px"/><line x1="29" y1="32" x2="29" y2="30" style="fill:none;stroke:#000;stroke-linejoin:round;stroke-width:2px"/><circle cx="9" cy="50" r="6" style="fill:none;stroke:#000;stroke-linejoin:round;stroke-width:2px"/><path d="M12,50a3,3,0,0,1-3,3" style="fill:none;stroke:#000;stroke-linejoin:round;stroke-width:2px"/><circle cx="48" cy="52" r="4" style="fill:none;stroke:#000;stroke-linejoin:round;stroke-width:2px"/><path d="M57,40v8.5A3.5,3.5,0,0,1,53.5,52H52" style="fill:none;stroke:#000;stroke-linejoin:round;stroke-width:2px"/><path d="M17,40v2a4,4,0,0,1-4,4h0" style="fill:none;stroke:#000;stroke-linejoin:round;stroke-width:2px"/><path d="M34,56h0a4,4,0,0,0,4,4h1a4,4,0,0,1,4,4h0" style="fill:none;stroke:#000;stroke-linejoin:round;stroke-width:2px"/><polygon points="15 11 15 5 49 5 49 11 55 11 55 1 9 1 9 11 15 11" style="fill:none;stroke:#000;stroke-linejoin:round;stroke-width:2px"/><path d="M12,55h6.5A2.5,2.5,0,0,1,21,57.5h0A2.5,2.5,0,0,1,18.5,60H6a4,4,0,0,0-4,4H2" style="fill:none;stroke:#000;stroke-linejoin:round;stroke-width:2px"/></g></svg>