<svg xmlns="http://www.w3.org/2000/svg" viewBox="0 0 64 64"><title>cleaning-clean-tap-water-wash-toilet</title><g id="_20-tap" data-name="20-tap"><path d="M53,18h0a8.672,8.672,0,0,0-5.709-8.281L22.121,1.124A2.411,2.411,0,0,0,19,3.52h0a2.509,2.509,0,0,0,1.632,2.389l18.573,6.535A5.839,5.839,0,0,1,43,18H53Z" style="fill:#c6c5ca"/><path d="M42.582,11.463,21.824,3.776a2.893,2.893,0,0,1-1.787-2.325A2.536,2.536,0,0,0,19,3.52a2.509,2.509,0,0,0,1.632,2.389l18.573,6.534A5.841,5.841,0,0,1,43,18h3.824A6.87,6.87,0,0,0,42.582,11.463Z" style="fill:#898890"/><rect x="41" y="18" width="12" height="6" style="fill:#b3d8f4"/><rect x="41" y="18" width="3" height="6" style="fill:#57a4ff"/><rect x="33" y="59" width="28" height="4" style="fill:#57a4ff"/><path d="M37,24v6H10a6,6,0,0,0-6,6H37V59H57V24Z" style="fill:#898890"/><rect x="33" y="59" width="7" height="4" style="fill:#006df0"/><rect x="37" y="24" width="3" height="6" style="fill:#3e3d42"/><polygon points="40 36 37 36 37 37 37 59 40 59 40 37 40 36" style="fill:#3e3d42"/><path d="M13,30H10a6,6,0,0,0-6,6H7A6,6,0,0,1,13,30Z" style="fill:#3e3d42"/><rect x="4" y="36" width="10" height="6" style="fill:#c6c5ca"/><path d="M8.5,47.182,5.433,52.758A3.5,3.5,0,0,0,5,54.444V54.5A3.5,3.5,0,0,0,8.5,58h0A3.5,3.5,0,0,0,12,54.5v-.056a3.5,3.5,0,0,0-.433-1.686Z" style="fill:#b3d8f4"/><rect x="4" y="36" width="3" height="6" style="fill:#898890"/><path d="M7,54.5v-.056a3.5,3.5,0,0,1,.433-1.686L9.5,49l-1-1.818L5.433,52.758A3.5,3.5,0,0,0,5,54.444V54.5A3.5,3.5,0,0,0,8.5,58a3.449,3.449,0,0,0,1-.163A3.488,3.488,0,0,1,7,54.5Z" style="fill:#57a4ff"/><polyline points="37 30 37 24 57 24 57 59 37 59 37 37" style="fill:none;stroke:#000;stroke-linejoin:round;stroke-width:2px"/><rect x="41" y="18" width="12" height="6" style="fill:none;stroke:#000;stroke-linejoin:round;stroke-width:2px"/><path d="M53,18h0a8.672,8.672,0,0,0-5.709-8.281L22.121,1.124A2.411,2.411,0,0,0,19,3.52h0a2.509,2.509,0,0,0,1.632,2.389l18.573,6.535A5.839,5.839,0,0,1,43,18H53Z" style="fill:none;stroke:#000;stroke-linejoin:round;stroke-width:2px"/><path d="M40,36H4a6,6,0,0,1,6-6H42" style="fill:none;stroke:#000;stroke-linejoin:round;stroke-width:2px"/><rect x="4" y="36" width="10" height="6" style="fill:none;stroke:#000;stroke-linejoin:round;stroke-width:2px"/><path d="M8.5,47.182,5.433,52.758A3.5,3.5,0,0,0,5,54.444V54.5A3.5,3.5,0,0,0,8.5,58h0A3.5,3.5,0,0,0,12,54.5v-.056a3.5,3.5,0,0,0-.433-1.686Z" style="fill:none;stroke:#000;stroke-linejoin:round;stroke-width:2px"/><rect x="33" y="59" width="28" height="4" style="fill:none;stroke:#000;stroke-linejoin:round;stroke-width:2px"/><polyline points="48 28 53 28 53 32" style="fill:none;stroke:#000;stroke-linejoin:round;stroke-width:2px"/><line x1="53" y1="34" x2="53" y2="56" style="fill:none;stroke:#000;stroke-linejoin:round;stroke-width:2px"/></g></svg>