<svg xmlns="http://www.w3.org/2000/svg" viewBox="0 0 64 64"><title>cleaning-clean-wash-kitchen-dish-dishwashing-chore</title><g id="_19-wash_dish" data-name="19-wash dish"><rect x="9" y="6" width="6" height="4" style="fill:#fff5cc"/><rect x="9" y="6" width="2" height="4" style="fill:#ffb655"/><rect x="8" y="10" width="8" height="3" style="fill:#898890"/><polygon points="16 6 20 6 20 9 23 9 23 3 16 3 16 6" style="fill:#b3d8f4"/><rect x="8" y="10" width="3" height="3" style="fill:#3e3d42"/><rect x="8" y="1" width="8" height="5" style="fill:#c6c5ca"/><rect x="8" y="1" width="3" height="5" style="fill:#898890"/><path d="M53,17h0a4,4,0,0,1,4,4h0a4,4,0,0,1,4-4h0a4,4,0,0,1-4-4h0a4,4,0,0,1-4,4Z" style="fill:#ffb655"/><path d="M27,12h0a4,4,0,0,1,4,4h0a4,4,0,0,1,4-4h0a4,4,0,0,1-4-4h0a4,4,0,0,1-4,4Z" style="fill:#ffb655"/><path d="M23,29.826A23.975,23.975,0,0,0,16.1,13H7.9A23.975,23.975,0,0,0,1,29.826V63H23V53" style="fill:#57a4ff"/><path d="M11.9,13h-4A23.975,23.975,0,0,0,1,29.826V63H5V29.826A23.975,23.975,0,0,1,11.9,13Z" style="fill:#006df0"/><rect x="1" y="29" width="22" height="16" style="fill:#fff5cc"/><rect x="1" y="29" width="4" height="16" style="fill:#ffb655"/><rect x="8" y="1" width="8" height="5" style="fill:none;stroke:#000;stroke-linejoin:round;stroke-width:2px"/><rect x="9" y="6" width="6" height="4" style="fill:none;stroke:#000;stroke-linejoin:round;stroke-width:2px"/><rect x="8" y="10" width="8" height="3" style="fill:none;stroke:#000;stroke-linejoin:round;stroke-width:2px"/><path d="M23,29.826A23.975,23.975,0,0,0,16.1,13H7.9A23.975,23.975,0,0,0,1,29.826V63H23V53" style="fill:none;stroke:#000;stroke-linejoin:round;stroke-width:2px"/><polyline points="20 45 1 45 1 29 23 29 23 30" style="fill:none;stroke:#000;stroke-linejoin:round;stroke-width:2px"/><line x1="8" y1="33" x2="19" y2="33" style="fill:none;stroke:#000;stroke-linejoin:round;stroke-width:2px"/><line x1="19" y1="37" x2="5" y2="37" style="fill:none;stroke:#000;stroke-linejoin:round;stroke-width:2px"/><line x1="5" y1="41" x2="14" y2="41" style="fill:none;stroke:#000;stroke-linejoin:round;stroke-width:2px"/><line x1="16" y1="41" x2="18" y2="41" style="fill:none;stroke:#000;stroke-linejoin:round;stroke-width:2px"/><polyline points="19 55 19 59 15 59" style="fill:none;stroke:#000;stroke-linejoin:round;stroke-width:2px"/><line x1="13" y1="59" x2="11" y2="59" style="fill:none;stroke:#000;stroke-linejoin:round;stroke-width:2px"/><polygon points="16 6 20 6 20 9 23 9 23 3 16 3 16 6" style="fill:none;stroke:#000;stroke-linejoin:round;stroke-width:2px"/><circle cx="41.5" cy="41.5" r="21.5" style="fill:#898890"/><path d="M26,41.5A21.487,21.487,0,0,1,44.5,20.233a21.5,21.5,0,1,0,0,42.534A21.487,21.487,0,0,1,26,41.5Z" style="fill:#3e3d42"/><circle cx="41.5" cy="41.5" r="15.5" style="fill:#c6c5ca"/><path d="M30,41.5A15.494,15.494,0,0,1,43.5,26.143a15.7,15.7,0,0,0-2-.143,15.5,15.5,0,0,0,0,31,15.7,15.7,0,0,0,2-.143A15.494,15.494,0,0,1,30,41.5Z" style="fill:#898890"/><circle cx="41.5" cy="41.5" r="21.5" style="fill:none;stroke:#000;stroke-linejoin:round;stroke-width:2px"/><circle cx="41.5" cy="41.5" r="15.5" style="fill:none;stroke:#000;stroke-linejoin:round;stroke-width:2px"/><path d="M31,41.5A10.5,10.5,0,0,1,41.5,31" style="fill:none;stroke:#000;stroke-linejoin:round;stroke-width:2px"/><line x1="43" y1="31" x2="45" y2="31" style="fill:none;stroke:#000;stroke-linejoin:round;stroke-width:2px"/><path d="M53,17h0a4,4,0,0,1,4,4h0a4,4,0,0,1,4-4h0a4,4,0,0,1-4-4h0a4,4,0,0,1-4,4Z" style="fill:none;stroke:#000;stroke-linejoin:round;stroke-width:2px"/><path d="M27,12h0a4,4,0,0,1,4,4h0a4,4,0,0,1,4-4h0a4,4,0,0,1-4-4h0a4,4,0,0,1-4,4Z" style="fill:none;stroke:#000;stroke-linejoin:round;stroke-width:2px"/></g></svg>