<svg xmlns="http://www.w3.org/2000/svg" viewBox="0 0 64 64"><title>cleaning-clean-soap-gel-bottle-wash-hygiene</title><g id="Layer_5" data-name="Layer 5"><path d="M50,59v4H14V32a8,8,0,0,1,8-8H42a8,8,0,0,1,8,8V49" style="fill:none;stroke:#231f20;stroke-linejoin:round;stroke-width:2px"/><path d="M50,31.45a3.6,3.6,0,0,1-6.219,2.47,1.331,1.331,0,0,0-1.962,0,3.6,3.6,0,0,1-5.238,0,1.331,1.331,0,0,0-1.962,0,3.6,3.6,0,0,1-5.238,0,1.331,1.331,0,0,0-1.962,0,3.6,3.6,0,0,1-5.238,0,1.331,1.331,0,0,0-1.962,0A3.6,3.6,0,0,1,14,31.45" style="fill:none;stroke:#231f20;stroke-linejoin:round;stroke-width:2px"/><path d="M27.183,14h9.633A4.183,4.183,0,0,1,41,18.183V24a0,0,0,0,1,0,0H23a0,0,0,0,1,0,0V18.183A4.183,4.183,0,0,1,27.183,14Z" style="fill:none;stroke:#231f20;stroke-linejoin:round;stroke-width:2px"/><rect x="29" y="5" width="6" height="9" style="fill:none;stroke:#231f20;stroke-linejoin:round;stroke-width:2px"/><path d="M51,5H26a2,2,0,0,1-2-2h0a2,2,0,0,1,2-2H54Z" style="fill:none;stroke:#231f20;stroke-linejoin:round;stroke-width:2px"/><polyline points="48 57 25 57 25 38 50 38 50 49" style="fill:none;stroke:#231f20;stroke-linejoin:round;stroke-width:2px"/><circle cx="8.5" cy="8.5" r="7.5" style="fill:none;stroke:#231f20;stroke-linejoin:round;stroke-width:2px"/><path d="M13,8.5A4.5,4.5,0,0,1,8.5,13" style="fill:none;stroke:#231f20;stroke-linejoin:round;stroke-width:2px"/><path d="M52.5,9.182l-3.067,5.576A3.5,3.5,0,0,0,49,16.444V16.5A3.5,3.5,0,0,0,52.5,20h0A3.5,3.5,0,0,0,56,16.5v-.056a3.5,3.5,0,0,0-.433-1.686Z" style="fill:none;stroke:#231f20;stroke-linejoin:round;stroke-width:2px"/><line x1="28" y1="17" x2="28" y2="21" style="fill:none;stroke:#231f20;stroke-linejoin:round;stroke-width:2px"/><line x1="32" y1="17" x2="32" y2="21" style="fill:none;stroke:#231f20;stroke-linejoin:round;stroke-width:2px"/><line x1="36" y1="17" x2="36" y2="21" style="fill:none;stroke:#231f20;stroke-linejoin:round;stroke-width:2px"/><circle cx="53" cy="54" r="6" style="fill:none;stroke:#231f20;stroke-linejoin:round;stroke-width:2px"/><path d="M56,54a3,3,0,0,1-3,3" style="fill:none;stroke:#231f20;stroke-linejoin:round;stroke-width:2px"/></g></svg>