<svg xmlns="http://www.w3.org/2000/svg" viewBox="0 0 64 64"><title>cleaning-clean-broom-chore-dirty-dust</title><g id="_17-broom" data-name="17-broom"><path d="M14,10.5a4.5,4.5,0,0,1,9,0" style="fill:#c6c5ca"/><path d="M6,6.5a5.5,5.5,0,0,1,11,0" style="fill:#c6c5ca"/><path d="M1,9A3,3,0,0,1,7,9" style="fill:#c6c5ca"/><path d="M41,10.5a4.5,4.5,0,0,1,9,0" style="fill:#c6c5ca"/><path d="M58,6.5a5.5,5.5,0,0,0-11,0" style="fill:#c6c5ca"/><path d="M63,9a3,3,0,0,0-6,0" style="fill:#c6c5ca"/><rect x="29" y="45" width="6" height="18" style="fill:#898890"/><rect x="29" y="45" width="3" height="18" style="fill:#3e3d42"/><rect x="29" y="45" width="6" height="4" style="fill:#57a4ff"/><rect x="29" y="45" width="3" height="4" style="fill:#006df0"/><path d="M21,39H43a0,0,0,0,1,0,0v0a6,6,0,0,1-6,6H27a6,6,0,0,1-6-6v0A0,0,0,0,1,21,39Z" style="fill:#c6c5ca"/><path d="M26,39H21a6,6,0,0,0,6,6h5A6,6,0,0,1,26,39Z" style="fill:#898890"/><path d="M43.2,39H20.8L12.986,16.8A2.1,2.1,0,0,1,14.969,14H49.031a2.1,2.1,0,0,1,1.983,2.8Z" style="fill:#fff5cc"/><path d="M19.969,14h-5a2.1,2.1,0,0,0-1.983,2.8L20.8,39h5L17.986,16.8A2.1,2.1,0,0,1,19.969,14Z" style="fill:#ffb655"/><path d="M43.2,39H20.8L12.986,16.8A2.1,2.1,0,0,1,14.969,14H49.031a2.1,2.1,0,0,1,1.983,2.8Z" style="fill:none;stroke:#000;stroke-linejoin:round;stroke-width:2px"/><path d="M21,39H43a0,0,0,0,1,0,0v0a6,6,0,0,1-6,6H27a6,6,0,0,1-6-6v0A0,0,0,0,1,21,39Z" style="fill:none;stroke:#000;stroke-linejoin:round;stroke-width:2px"/><rect x="29" y="45" width="6" height="18" style="fill:none;stroke:#000;stroke-linejoin:round;stroke-width:2px"/><line x1="29" y1="49.286" x2="35" y2="49.286" style="fill:none;stroke:#000;stroke-linejoin:round;stroke-width:2px"/><line x1="28" y1="19" x2="28" y2="25" style="fill:none;stroke:#000;stroke-linejoin:round;stroke-width:2px"/><line x1="36" y1="14" x2="36" y2="23" style="fill:none;stroke:#000;stroke-linejoin:round;stroke-width:2px"/><line x1="36" y1="25" x2="36" y2="27" style="fill:none;stroke:#000;stroke-linejoin:round;stroke-width:2px"/><line x1="28" y1="17" x2="28" y2="15" style="fill:none;stroke:#000;stroke-linejoin:round;stroke-width:2px"/><line x1="44" y1="14" x2="44" y2="20" style="fill:none;stroke:#000;stroke-linejoin:round;stroke-width:2px"/><line x1="44" y1="23" x2="44" y2="25" style="fill:none;stroke:#000;stroke-linejoin:round;stroke-width:2px"/><line x1="21" y1="14" x2="21" y2="23" style="fill:none;stroke:#000;stroke-linejoin:round;stroke-width:2px"/><path d="M1,9A3,3,0,0,1,7,9" style="fill:none;stroke:#000;stroke-linejoin:round;stroke-width:2px"/><path d="M6,6.5a5.5,5.5,0,0,1,11,0" style="fill:none;stroke:#000;stroke-linejoin:round;stroke-width:2px"/><line x1="10" y1="5" x2="12" y2="5" style="fill:none;stroke:#000;stroke-linejoin:round;stroke-width:2px"/><line x1="18" y1="9" x2="20" y2="9" style="fill:none;stroke:#000;stroke-linejoin:round;stroke-width:2px"/><path d="M63,9a3,3,0,0,0-6,0" style="fill:none;stroke:#000;stroke-linejoin:round;stroke-width:2px"/><path d="M58,6.5a5.5,5.5,0,0,0-11,0" style="fill:none;stroke:#000;stroke-linejoin:round;stroke-width:2px"/><line x1="54" y1="5" x2="52" y2="5" style="fill:none;stroke:#000;stroke-linejoin:round;stroke-width:2px"/><line x1="46" y1="9" x2="44" y2="9" style="fill:none;stroke:#000;stroke-linejoin:round;stroke-width:2px"/><path d="M14,10.5a4.5,4.5,0,0,1,9,0" style="fill:none;stroke:#000;stroke-linejoin:round;stroke-width:2px"/><path d="M41,10.5a4.5,4.5,0,0,1,9,0" style="fill:none;stroke:#000;stroke-linejoin:round;stroke-width:2px"/></g></svg>