<svg xmlns="http://www.w3.org/2000/svg" viewBox="0 0 64 64"><title>cleaning-clean-glove-hand-wash-hospital</title><g id="_09-glove" data-name="09-glove"><path d="M23,59V44.536a49.728,49.728,0,0,1,.5-7.036h0a49.728,49.728,0,0,0,.5-7.036V11a2,2,0,0,0-2-2h0a2,2,0,0,0-2,2V6a2,2,0,0,0-2-2h0a2,2,0,0,0-2,2V3a2,2,0,0,0-2-2h0a2,2,0,0,0-2,2V6a2,2,0,0,0-2-2h0A2,2,0,0,0,8,6V30L6.467,23.868A2.466,2.466,0,0,0,4.074,22h0a2.466,2.466,0,0,0-2.407,3L3,31,8,41V59H5v4H26V59Z" style="fill:#b3d8f4"/><path d="M23,59V44.536a49.728,49.728,0,0,1,.5-7.036h0a49.728,49.728,0,0,0,.5-7.036V11a2,2,0,0,0-2-2h0a2,2,0,0,0-2,2V6a2,2,0,0,0-2-2h0a2,2,0,0,0-2,2V3a2,2,0,0,0-2-2h0a2,2,0,0,0-2,2V6a2,2,0,0,0-2-2h0A2,2,0,0,0,8,6V30L6.467,23.868A2.466,2.466,0,0,0,4.074,22h0a2.466,2.466,0,0,0-2.407,3L3,31,8,41V59H5v4H26V59Z" style="fill:#b3d8f4"/><path d="M14,1V63H5V59H8V41L3,31,1.67,25a2.573,2.573,0,0,1-.06-.55,2.467,2.467,0,0,1,4.86-.58L8,30V6a2.015,2.015,0,0,1,2-2,2.006,2.006,0,0,1,2,2V3a1.955,1.955,0,0,1,.59-1.41A1.955,1.955,0,0,1,14,1Z" style="fill:#57a4ff"/><path d="M62.39,24.45a2.573,2.573,0,0,1-.06.55L61,31,56,41V59h3v4H38V59h3V44.54a50.18,50.18,0,0,0-.5-7.04,50.18,50.18,0,0,1-.5-7.04V11a2.006,2.006,0,0,1,2-2,2.015,2.015,0,0,1,2,2V6a2.006,2.006,0,0,1,2-2,2.015,2.015,0,0,1,2,2V3a2.006,2.006,0,0,1,2-2,1.955,1.955,0,0,1,1.41.59A1.955,1.955,0,0,1,52,3V6a2.006,2.006,0,0,1,2-2,2.015,2.015,0,0,1,2,2V30l1.53-6.13a2.467,2.467,0,0,1,4.86.58Z" style="fill:#b3d8f4"/><path d="M46,4V63H38V59h3V44.54a50.18,50.18,0,0,0-.5-7.04,50.18,50.18,0,0,1-.5-7.04V11a2.006,2.006,0,0,1,2-2,2.015,2.015,0,0,1,2,2V6A2.006,2.006,0,0,1,46,4Z" style="fill:#57a4ff"/><path d="M23,59V44.536a49.728,49.728,0,0,1,.5-7.036h0a49.728,49.728,0,0,0,.5-7.036V11a2,2,0,0,0-2-2h0a2,2,0,0,0-2,2V6a2,2,0,0,0-2-2h0a2,2,0,0,0-2,2V3a2,2,0,0,0-2-2h0a2,2,0,0,0-2,2V6a2,2,0,0,0-2-2h0A2,2,0,0,0,8,6V30L6.467,23.868A2.466,2.466,0,0,0,4.074,22h0a2.466,2.466,0,0,0-2.407,3L3,31,8,41V59H5v4H26V59Z" style="fill:none;stroke:#000;stroke-linejoin:round;stroke-width:2px"/><path d="M41,59V44.536a49.728,49.728,0,0,0-.5-7.036h0a49.728,49.728,0,0,1-.5-7.036V11a2,2,0,0,1,2-2h0a2,2,0,0,1,2,2V6a2,2,0,0,1,2-2h0a2,2,0,0,1,2,2V3a2,2,0,0,1,2-2h0a2,2,0,0,1,2,2V6a2,2,0,0,1,2-2h0a2,2,0,0,1,2,2V30l1.533-6.132A2.466,2.466,0,0,1,59.926,22h0a2.466,2.466,0,0,1,2.407,3L61,31,56,41V59h3v4H38V59Z" style="fill:none;stroke:#000;stroke-linejoin:round;stroke-width:2px"/></g></svg>