<svg xmlns="http://www.w3.org/2000/svg" viewBox="0 0 64 64"><title>cleaning-clean-liquid-wash-laundry</title><g id="Layer_18" data-name="Layer 18"><path d="M24.538,13H13.462A37.58,37.58,0,0,0,6,35.477V63H32V35.477A37.58,37.58,0,0,0,24.538,13Z" style="fill:none;stroke:#231f20;stroke-linejoin:round;stroke-width:2px"/><rect x="15" y="1" width="8" height="6" style="fill:none;stroke:#231f20;stroke-linejoin:round;stroke-width:2px"/><rect x="13" y="7" width="12" height="6" style="fill:none;stroke:#231f20;stroke-linejoin:round;stroke-width:2px"/><line x1="16" y1="7" x2="16" y2="13" style="fill:none;stroke:#231f20;stroke-linejoin:round;stroke-width:2px"/><line x1="19" y1="7" x2="19" y2="13" style="fill:none;stroke:#231f20;stroke-linejoin:round;stroke-width:2px"/><line x1="22" y1="7" x2="22" y2="13" style="fill:none;stroke:#231f20;stroke-linejoin:round;stroke-width:2px"/><path d="M24,23H14a19.333,19.333,0,0,0-3,10.315V43H27V33.315A19.333,19.333,0,0,0,24,23Z" style="fill:none;stroke:#231f20;stroke-linejoin:round;stroke-width:2px"/><line x1="17" y1="27" x2="24" y2="27" style="fill:none;stroke:#231f20;stroke-linejoin:round;stroke-width:2px"/><line x1="14" y1="31" x2="24" y2="31" style="fill:none;stroke:#231f20;stroke-linejoin:round;stroke-width:2px"/><line x1="14" y1="35" x2="24" y2="35" style="fill:none;stroke:#231f20;stroke-linejoin:round;stroke-width:2px"/><line x1="14" y1="39" x2="20" y2="39" style="fill:none;stroke:#231f20;stroke-linejoin:round;stroke-width:2px"/><line x1="22" y1="39" x2="24" y2="39" style="fill:none;stroke:#231f20;stroke-linejoin:round;stroke-width:2px"/><polyline points="28 55 28 59 24 59" style="fill:none;stroke:#231f20;stroke-linejoin:round;stroke-width:2px"/><line x1="22" y1="59" x2="20" y2="59" style="fill:none;stroke:#231f20;stroke-linejoin:round;stroke-width:2px"/><rect x="36" y="44" width="22" height="19" style="fill:none;stroke:#231f20;stroke-linejoin:round;stroke-width:2px"/><rect x="36" y="34" width="22" height="6" style="fill:none;stroke:#231f20;stroke-linejoin:round;stroke-width:2px"/><rect x="37" y="40" width="20" height="4" style="fill:none;stroke:#231f20;stroke-linejoin:round;stroke-width:2px"/><line x1="41" y1="40" x2="41" y2="43" style="fill:none;stroke:#231f20;stroke-linejoin:round;stroke-width:2px"/><line x1="45" y1="40" x2="45" y2="43" style="fill:none;stroke:#231f20;stroke-linejoin:round;stroke-width:2px"/><line x1="49" y1="40" x2="49" y2="44" style="fill:none;stroke:#231f20;stroke-linejoin:round;stroke-width:2px"/><line x1="53" y1="40" x2="53" y2="43" style="fill:none;stroke:#231f20;stroke-linejoin:round;stroke-width:2px"/><circle cx="47" cy="53.5" r="5.5" style="fill:none;stroke:#231f20;stroke-linejoin:round;stroke-width:2px"/><line x1="59" y1="27" x2="61" y2="27" style="fill:none;stroke:#231f20;stroke-linejoin:round;stroke-width:2px"/><line x1="61" y1="29" x2="63" y2="29" style="fill:none;stroke:#231f20;stroke-linejoin:round;stroke-width:2px"/><line x1="59" y1="31" x2="61" y2="31" style="fill:none;stroke:#231f20;stroke-linejoin:round;stroke-width:2px"/><line x1="59" y1="29" x2="57" y2="29" style="fill:none;stroke:#231f20;stroke-linejoin:round;stroke-width:2px"/><line x1="37" y1="22" x2="39" y2="22" style="fill:none;stroke:#231f20;stroke-linejoin:round;stroke-width:2px"/><line x1="39" y1="24" x2="41" y2="24" style="fill:none;stroke:#231f20;stroke-linejoin:round;stroke-width:2px"/><line x1="37" y1="26" x2="39" y2="26" style="fill:none;stroke:#231f20;stroke-linejoin:round;stroke-width:2px"/><line x1="37" y1="24" x2="35" y2="24" style="fill:none;stroke:#231f20;stroke-linejoin:round;stroke-width:2px"/></g></svg>