<svg xmlns="http://www.w3.org/2000/svg" viewBox="0 0 64 64"><title>cleaning-clean-vacuum-cleaner-dust-dirty-chore</title><g id="_16-vaccum_cleaner" data-name="16-vaccum cleaner"><polygon points="42.203 35.975 37.96 40.218 32.303 34.561 38.667 32.439 42.203 35.975" style="fill:#57a4ff"/><polygon points="42.203 35.975 42.203 35.975 38.667 32.439 32.303 34.561 34.303 36.561 40.667 34.439 42.203 35.975" style="fill:#006df0"/><polygon points="62.589 15.589 42.203 35.975 38.667 32.439 56.607 14.5 62.589 15.589" style="fill:#fff5cc"/><polygon points="59.145 14.962 56.607 14.5 38.667 32.439 40.167 33.939 59.145 14.962" style="fill:#ffb655"/><path d="M15.333,33.146,3.312,39.51l4.95,4.95L20.282,38.1ZM8.262,40.218l6.364-3.536L16.747,38.8l-6.364,3.536Z" style="fill:#57a4ff"/><polygon points="4.02 45.87 18.16 60.02 30.09 48.09 19.78 37.78 4.02 45.87" style="fill:#898890"/><polygon points="7.02 48.87 22.78 40.78 19.78 37.78 4.02 45.87 18.16 60.02 18.161 60.019 7.02 48.87" style="fill:#3e3d42"/><path d="M12.157,46.232h.295a0,0,0,0,1,0,0v20a0,0,0,0,1,0,0h-.295a9,9,0,0,1-9-9v-2a9,9,0,0,1,9-9Z" transform="translate(-37.476 21.988) rotate(-45)" style="fill:#b3d8f4"/><path d="M6.811,49.083l.208-.209-3-3-.208.209a9,9,0,0,0,0,12.728l1.414,1.414a9.149,9.149,0,0,0,.847.738A9,9,0,0,1,6.811,49.083Z" style="fill:#57a4ff"/><path d="M54,11a4.5,4.5,0,0,1,9,0" style="fill:#c6c5ca"/><path d="M46,6.5a5.5,5.5,0,0,1,11,0" style="fill:#c6c5ca"/><path d="M47,9a3,3,0,0,0-6,0" style="fill:#c6c5ca"/><path d="M24.9,14.041a4.992,4.992,0,0,0-9.081-1.778,3.492,3.492,0,0,0-3.161,6.2A3.5,3.5,0,1,0,19,20.5a3.511,3.511,0,0,0-.062-.619,4.8,4.8,0,0,0,2.829-.218A3.489,3.489,0,1,0,24.9,14.041Z" style="fill:#c6c5ca"/><polygon points="37.96 40.22 30.09 48.09 19.78 37.78 30.18 32.44 37.96 40.22" style="fill:#b3d8f4"/><polyline points="30.18 32.44 19.78 37.78 22.78 40.78 33.18 35.44" style="fill:#57a4ff"/><polygon points="37.96 40.218 18.161 60.017 4.019 45.874 30.182 32.439 37.96 40.218" style="fill:none;stroke:#000;stroke-linejoin:round;stroke-width:2px"/><path d="M12.157,46.232h.295a0,0,0,0,1,0,0v20a0,0,0,0,1,0,0h-.295a9,9,0,0,1-9-9v-2a9,9,0,0,1,9-9Z" transform="translate(-37.476 21.988) rotate(-45)" style="fill:none;stroke:#000;stroke-linejoin:round;stroke-width:2px"/><polygon points="42.203 35.975 37.96 40.218 32.303 34.561 38.667 32.439 42.203 35.975" style="fill:none;stroke:#000;stroke-linejoin:round;stroke-width:2px"/><polygon points="62.589 15.589 42.203 35.975 38.667 32.439 56.607 14.5 62.589 15.589" style="fill:none;stroke:#000;stroke-linejoin:round;stroke-width:2px"/><line x1="19.575" y1="37.389" x2="30.182" y2="47.996" style="fill:none;stroke:#000;stroke-linejoin:round;stroke-width:2px"/><polyline points="8.262 44.46 3.312 39.51 15.333 33.146 20.282 38.096" style="fill:none;stroke:#000;stroke-linejoin:round;stroke-width:2px"/><polyline points="10.383 42.339 8.262 40.218 14.626 36.682 16.747 38.803" style="fill:none;stroke:#000;stroke-linejoin:round;stroke-width:2px"/><line x1="33.718" y1="40.218" x2="32.303" y2="41.632" style="fill:none;stroke:#000;stroke-linejoin:round;stroke-width:2px"/><line x1="23.818" y1="35.975" x2="24.525" y2="42.339" style="fill:none;stroke:#000;stroke-linejoin:round;stroke-width:2px"/><line x1="27.354" y1="33.854" x2="29.475" y2="47.289" style="fill:none;stroke:#000;stroke-linejoin:round;stroke-width:2px"/><line x1="18.161" y1="55.774" x2="23.111" y2="50.824" style="fill:none;stroke:#000;stroke-linejoin:round;stroke-width:2px"/><line x1="24.525" y1="49.41" x2="25.939" y2="47.996" style="fill:none;stroke:#000;stroke-linejoin:round;stroke-width:2px"/><path d="M47,9a3,3,0,0,0-6,0" style="fill:none;stroke:#000;stroke-linejoin:round;stroke-width:2px"/><path d="M54,11a4.5,4.5,0,0,1,9,0" style="fill:none;stroke:#000;stroke-linejoin:round;stroke-width:2px"/><path d="M46,6.5a5.5,5.5,0,0,1,11,0" style="fill:none;stroke:#000;stroke-linejoin:round;stroke-width:2px"/><line x1="50" y1="5" x2="52" y2="5" style="fill:none;stroke:#000;stroke-linejoin:round;stroke-width:2px"/><line x1="58" y1="10" x2="60" y2="10" style="fill:none;stroke:#000;stroke-linejoin:round;stroke-width:2px"/><path d="M24.9,14.041a4.992,4.992,0,0,0-9.081-1.778,3.492,3.492,0,0,0-3.161,6.2A3.5,3.5,0,1,0,19,20.5a3.511,3.511,0,0,0-.062-.619,4.8,4.8,0,0,0,2.829-.218A3.489,3.489,0,1,0,24.9,14.041Z" style="fill:none;stroke:#000;stroke-linejoin:round;stroke-width:2px"/><line x1="18" y1="14" x2="20" y2="14" style="fill:none;stroke:#000;stroke-linejoin:round;stroke-width:2px"/><line x1="15" y1="18" x2="17" y2="18" style="fill:none;stroke:#000;stroke-linejoin:round;stroke-width:2px"/><line x1="32" y1="20" x2="34" y2="20" style="fill:none;stroke:#000;stroke-linejoin:round;stroke-width:2px"/><line x1="27" y1="6" x2="29" y2="6" style="fill:none;stroke:#000;stroke-linejoin:round;stroke-width:2px"/><line x1="23" y1="26" x2="25" y2="26" style="fill:none;stroke:#000;stroke-linejoin:round;stroke-width:2px"/><line x1="56" y1="27" x2="58" y2="27" style="fill:none;stroke:#000;stroke-linejoin:round;stroke-width:2px"/><line x1="48" y1="37" x2="50" y2="37" style="fill:none;stroke:#000;stroke-linejoin:round;stroke-width:2px"/></g></svg>