<svg xmlns="http://www.w3.org/2000/svg" viewBox="0 0 64 64"><title>cleaning-clean-broom-chore</title><g id="Layer_17" data-name="Layer 17"><path d="M43.2,39H20.8L12.986,16.8A2.1,2.1,0,0,1,14.969,14H49.031a2.1,2.1,0,0,1,1.983,2.8Z" style="fill:none;stroke:#231f20;stroke-linejoin:round;stroke-width:2px"/><path d="M21,39H43a0,0,0,0,1,0,0v0a6,6,0,0,1-6,6H27a6,6,0,0,1-6-6v0A0,0,0,0,1,21,39Z" style="fill:none;stroke:#231f20;stroke-linejoin:round;stroke-width:2px"/><rect x="29" y="45" width="6" height="18" style="fill:none;stroke:#231f20;stroke-linejoin:round;stroke-width:2px"/><line x1="29" y1="49.286" x2="35" y2="49.286" style="fill:none;stroke:#231f20;stroke-linejoin:round;stroke-width:2px"/><line x1="28" y1="19" x2="28" y2="25" style="fill:none;stroke:#231f20;stroke-linejoin:round;stroke-width:2px"/><line x1="36" y1="14" x2="36" y2="23" style="fill:none;stroke:#231f20;stroke-linejoin:round;stroke-width:2px"/><line x1="36" y1="25" x2="36" y2="27" style="fill:none;stroke:#231f20;stroke-linejoin:round;stroke-width:2px"/><line x1="28" y1="17" x2="28" y2="15" style="fill:none;stroke:#231f20;stroke-linejoin:round;stroke-width:2px"/><line x1="44" y1="14" x2="44" y2="20" style="fill:none;stroke:#231f20;stroke-linejoin:round;stroke-width:2px"/><line x1="44" y1="23" x2="44" y2="25" style="fill:none;stroke:#231f20;stroke-linejoin:round;stroke-width:2px"/><line x1="21" y1="14" x2="21" y2="23" style="fill:none;stroke:#231f20;stroke-linejoin:round;stroke-width:2px"/><path d="M2,9A3,3,0,0,1,8,9" style="fill:none;stroke:#231f20;stroke-linejoin:round;stroke-width:2px"/><path d="M15,11a4.5,4.5,0,0,1,9,0" style="fill:none;stroke:#231f20;stroke-linejoin:round;stroke-width:2px"/><path d="M7,6.5a5.5,5.5,0,0,1,11,0" style="fill:none;stroke:#231f20;stroke-linejoin:round;stroke-width:2px"/><line x1="11" y1="5" x2="13" y2="5" style="fill:none;stroke:#231f20;stroke-linejoin:round;stroke-width:2px"/><line x1="19" y1="10" x2="21" y2="10" style="fill:none;stroke:#231f20;stroke-linejoin:round;stroke-width:2px"/><path d="M62,9a3,3,0,0,0-6,0" style="fill:none;stroke:#231f20;stroke-linejoin:round;stroke-width:2px"/><path d="M49,11a4.5,4.5,0,0,0-9,0" style="fill:none;stroke:#231f20;stroke-linejoin:round;stroke-width:2px"/><path d="M57,6.5a5.5,5.5,0,0,0-11,0" style="fill:none;stroke:#231f20;stroke-linejoin:round;stroke-width:2px"/><line x1="53" y1="5" x2="51" y2="5" style="fill:none;stroke:#231f20;stroke-linejoin:round;stroke-width:2px"/><line x1="45" y1="10" x2="43" y2="10" style="fill:none;stroke:#231f20;stroke-linejoin:round;stroke-width:2px"/></g></svg>