<svg xmlns="http://www.w3.org/2000/svg" viewBox="0 0 64 64"><title>cleaning-clean-liquid-wash-laundry-detergent</title><g id="_18-detergent" data-name="18-detergent"><rect x="37" y="40" width="20" height="4" style="fill:#fff5cc"/><rect x="37" y="40" width="4" height="4" style="fill:#ffb655"/><rect x="36" y="34" width="22" height="6" style="fill:#898890"/><rect x="36" y="34" width="3" height="6" style="fill:#3e3d42"/><rect x="13" y="7" width="12" height="6" style="fill:#898890"/><rect x="15" y="1" width="8" height="6" style="fill:#b3d8f4"/><rect x="15" y="1" width="3" height="6" style="fill:#57a4ff"/><rect x="36" y="44" width="22" height="19" style="fill:#c6c5ca"/><rect x="36" y="44" width="3" height="19" style="fill:#898890"/><circle cx="47" cy="53.5" r="5.5" style="fill:#b3d8f4"/><path d="M44.5,53.5a5.5,5.5,0,0,1,4-5.288,5.5,5.5,0,1,0,0,10.576A5.5,5.5,0,0,1,44.5,53.5Z" style="fill:#86a2b7"/><path d="M24.538,13H13.462A37.58,37.58,0,0,0,6,35.477V63H32V35.477A37.58,37.58,0,0,0,24.538,13Z" style="fill:#57a4ff"/><path d="M18.462,13h-5A37.58,37.58,0,0,0,6,35.477V63h5V35.477A37.58,37.58,0,0,1,18.462,13Z" style="fill:#006df0"/><path d="M24,23H14a19.333,19.333,0,0,0-3,10.315V43H27V33.315A19.333,19.333,0,0,0,24,23Z" style="fill:#fff5cc"/><path d="M17,23H14a19.333,19.333,0,0,0-3,10.315V43h3V33.315A19.333,19.333,0,0,1,17,23Z" style="fill:#ffb655"/><path d="M24.538,13H13.462A37.58,37.58,0,0,0,6,35.477V63H32V35.477A37.58,37.58,0,0,0,24.538,13Z" style="fill:none;stroke:#000;stroke-linejoin:round;stroke-width:2px"/><rect x="15" y="1" width="8" height="6" style="fill:none;stroke:#000;stroke-linejoin:round;stroke-width:2px"/><rect x="13" y="7" width="12" height="6" style="fill:none;stroke:#000;stroke-linejoin:round;stroke-width:2px"/><line x1="16" y1="7" x2="16" y2="13" style="fill:none;stroke:#000;stroke-linejoin:round;stroke-width:2px"/><line x1="19" y1="7" x2="19" y2="13" style="fill:none;stroke:#000;stroke-linejoin:round;stroke-width:2px"/><line x1="22" y1="7" x2="22" y2="13" style="fill:none;stroke:#000;stroke-linejoin:round;stroke-width:2px"/><path d="M24,23H14a19.333,19.333,0,0,0-3,10.315V43H27V33.315A19.333,19.333,0,0,0,24,23Z" style="fill:none;stroke:#000;stroke-linejoin:round;stroke-width:2px"/><line x1="17" y1="27" x2="24" y2="27" style="fill:none;stroke:#000;stroke-linejoin:round;stroke-width:2px"/><line x1="14" y1="31" x2="24" y2="31" style="fill:none;stroke:#000;stroke-linejoin:round;stroke-width:2px"/><line x1="14" y1="35" x2="24" y2="35" style="fill:none;stroke:#000;stroke-linejoin:round;stroke-width:2px"/><line x1="14" y1="39" x2="20" y2="39" style="fill:none;stroke:#000;stroke-linejoin:round;stroke-width:2px"/><line x1="22" y1="39" x2="24" y2="39" style="fill:none;stroke:#000;stroke-linejoin:round;stroke-width:2px"/><polyline points="28 55 28 59 24 59" style="fill:none;stroke:#000;stroke-linejoin:round;stroke-width:2px"/><line x1="22" y1="59" x2="20" y2="59" style="fill:none;stroke:#000;stroke-linejoin:round;stroke-width:2px"/><rect x="36" y="44" width="22" height="19" style="fill:none;stroke:#000;stroke-linejoin:round;stroke-width:2px"/><rect x="36" y="34" width="22" height="6" style="fill:none;stroke:#000;stroke-linejoin:round;stroke-width:2px"/><rect x="37" y="40" width="20" height="4" style="fill:none;stroke:#000;stroke-linejoin:round;stroke-width:2px"/><line x1="41" y1="40" x2="41" y2="43" style="fill:none;stroke:#000;stroke-linejoin:round;stroke-width:2px"/><line x1="45" y1="40" x2="45" y2="43" style="fill:none;stroke:#000;stroke-linejoin:round;stroke-width:2px"/><line x1="49" y1="40" x2="49" y2="44" style="fill:none;stroke:#000;stroke-linejoin:round;stroke-width:2px"/><line x1="53" y1="40" x2="53" y2="43" style="fill:none;stroke:#000;stroke-linejoin:round;stroke-width:2px"/><circle cx="47" cy="53.5" r="5.5" style="fill:none;stroke:#000;stroke-linejoin:round;stroke-width:2px"/><line x1="59" y1="27" x2="61" y2="27" style="fill:none;stroke:#000;stroke-linejoin:round;stroke-width:2px"/><line x1="61" y1="29" x2="63" y2="29" style="fill:none;stroke:#000;stroke-linejoin:round;stroke-width:2px"/><line x1="59" y1="31" x2="61" y2="31" style="fill:none;stroke:#000;stroke-linejoin:round;stroke-width:2px"/><line x1="59" y1="29" x2="57" y2="29" style="fill:none;stroke:#000;stroke-linejoin:round;stroke-width:2px"/><line x1="37" y1="22" x2="39" y2="22" style="fill:none;stroke:#000;stroke-linejoin:round;stroke-width:2px"/><line x1="39" y1="24" x2="41" y2="24" style="fill:none;stroke:#000;stroke-linejoin:round;stroke-width:2px"/><line x1="37" y1="26" x2="39" y2="26" style="fill:none;stroke:#000;stroke-linejoin:round;stroke-width:2px"/><line x1="37" y1="24" x2="35" y2="24" style="fill:none;stroke:#000;stroke-linejoin:round;stroke-width:2px"/></g></svg>