<svg xmlns="http://www.w3.org/2000/svg" viewBox="0 0 64 64"><title>cleaning-clean-napkin-hygiene-chore</title><g id="Layer_30" data-name="Layer 30"><path d="M56.131,45.114l-5.279-5.278a49.822,49.822,0,0,1-4.621-5.328h0a49.735,49.735,0,0,0-4.621-5.329L27.846,15.416a2,2,0,0,0-2.828,0h0a2,2,0,0,0,0,2.828L30.675,23.9l-9.193-9.192a2,2,0,0,0-2.828,0h0a2,2,0,0,0,0,2.828l9.192,9.192L16.533,15.416a2,2,0,0,0-2.829,0h0a2,2,0,0,0,0,2.828L25.018,29.558l-9.193-9.193a2,2,0,0,0-2.828,0h0a2,2,0,0,0,0,2.829l16.971,16.97-5.42-3.252a2.467,2.467,0,0,0-3.013.371h0a2.467,2.467,0,0,0,.42,3.825l5.184,3.3,10.607,3.536,7.778,7.778" style="fill:none;stroke:#231f20;stroke-linejoin:round;stroke-width:2px"/><rect x="42.034" y="49.125" width="19" height="4" transform="translate(-21.056 51.414) rotate(-45)" style="fill:none;stroke:#231f20;stroke-linejoin:round;stroke-width:2px"/><path d="M52,7.5h0A4.5,4.5,0,0,1,47.5,3h0A4.5,4.5,0,0,1,43,7.5h0A4.5,4.5,0,0,1,47.5,12h0A4.5,4.5,0,0,1,52,7.5Z" style="fill:none;stroke:#231f20;stroke-linejoin:round;stroke-width:2px"/><path d="M12,50.5h0A4.5,4.5,0,0,1,7.5,46h0A4.5,4.5,0,0,1,3,50.5H3A4.5,4.5,0,0,1,7.5,55h0A4.5,4.5,0,0,1,12,50.5Z" style="fill:none;stroke:#231f20;stroke-linejoin:round;stroke-width:2px"/><path d="M24,43l-3.97,1.323a3.932,3.932,0,0,1-3.7-.66l-3-2.4a3.919,3.919,0,0,0-.7-.446l-2.39-1.2A3.932,3.932,0,0,1,8.344,34.64h0a3.933,3.933,0,0,0-.134-3.22l-.8-1.59A3.931,3.931,0,0,1,7,28.072V19.638A3.923,3.923,0,0,0,6.8,18.4l-.554-1.664a3.934,3.934,0,0,1,2.487-4.975l4.388-1.462a3.94,3.94,0,0,1,1.8-.163l4.134.591a3.933,3.933,0,0,0,3.338-1.113l1.4-1.4a3.933,3.933,0,0,1,4.865-.554L33.2,10.5a3.922,3.922,0,0,1,1.288,1.312l1.925,3.207a3.931,3.931,0,0,0,1.613,1.494l2.405,1.2a3.929,3.929,0,0,1,1.022.736l2.212,2.212a3.933,3.933,0,0,1,1.128,3.216L44,31" style="fill:none;stroke:#231f20;stroke-linejoin:round;stroke-width:2px"/></g></svg>