<?xml version="1.0" encoding="utf-8"?>
<!-- Generator: Adobe Illustrator 16.0.0, SVG Export Plug-In . SVG Version: 6.00 Build 0)  -->
<!DOCTYPE svg PUBLIC "-//W3C//DTD SVG 1.0//EN" "http://www.w3.org/TR/2001/REC-SVG-20010904/DTD/svg10.dtd">
<svg version="1.0" id="Layer_1" xmlns="http://www.w3.org/2000/svg" xmlns:xlink="http://www.w3.org/1999/xlink" x="0px" y="0px"
	 width="100px" height="100px" viewBox="0 0 100 100" enable-background="new 0 0 100 100" xml:space="preserve">
<path d="M57.067,27.86l0.003-0.008c-1.399-0.579-2.887-0.869-4.375-0.872c-2.923,0.001-5.85,1.116-8.079,3.348l-3.606,3.608
	L18.535,11.463c-1.953-1.951-5.117-1.951-7.07,0c-1.953,1.953-1.953,5.121,0,7.072l22.471,22.472l-3.604,3.602
	c-2.227,2.227-3.34,5.153-3.346,8.079c0.006,1.488,0.293,2.976,0.872,4.375c0.007,0,7.771,18.734,13.652,32.937L90,41.511
	C75.176,35.37,57.064,27.863,57.067,27.86z M35.049,49.323L49.33,35.041c0.898-0.898,2.096-1.395,3.369-1.394
	c0.621,0,1.24,0.122,1.819,0.361l3.724,1.546l-22.682,22.68l-1.543-3.717c-0.241-0.583-0.365-1.208-0.365-1.85
	C33.656,51.419,34.147,50.222,35.049,49.323z M38.324,64.902l26.552-26.551l-0.074-0.075l13.431,5.575L43.852,78.232L38.324,64.902z
	"/>
<circle cx="15" cy="85" r="5"/>
<circle cx="26.667" cy="80" r="3.333"/>
<circle cx="16.667" cy="70" r="3.333"/>
</svg>
