<svg xmlns="http://www.w3.org/2000/svg" viewBox="0 0 64 64"><title>cleaning-clean-broom-hygiene-chore</title><g id="Layer_29" data-name="Layer 29"><path d="M8.508,34.421h14a0,0,0,0,1,0,0v1a7,7,0,0,1-7,7h0a7,7,0,0,1-7-7v-1A0,0,0,0,1,8.508,34.421Z" transform="translate(20.543 79.546) rotate(-165)" style="fill:none;stroke:#231f20;stroke-linejoin:round;stroke-width:2px"/><path d="M13.723,47.537,12.6,49.225a8.861,8.861,0,0,0,1.107,11.18h0A8.861,8.861,0,0,0,19.971,63h9.658" style="fill:none;stroke:#231f20;stroke-linejoin:round;stroke-width:2px"/><path d="M8.569,41.094l-2.4,3.846a11.807,11.807,0,0,0,.188,12.8h0A11.8,11.8,0,0,0,16.175,63h7.454" style="fill:none;stroke:#231f20;stroke-linejoin:round;stroke-width:2px"/><path d="M21.455,52.691,19.543,54.7a4.775,4.775,0,0,0-.823,5.408l.022.044h0A5.153,5.153,0,0,0,23.352,63H35.629" style="fill:none;stroke:#231f20;stroke-linejoin:round;stroke-width:2px"/><path d="M18.943,1.136h4a0,0,0,0,1,0,0v32a2,2,0,0,1-2,2h0a2,2,0,0,1-2-2v-32a0,0,0,0,1,0,0Z" transform="translate(36.478 41.075) rotate(-165)" style="fill:none;stroke:#231f20;stroke-linejoin:round;stroke-width:2px"/><path d="M48.492,34.421h0a7,7,0,0,1,7,7v1a0,0,0,0,1,0,0h-14a0,0,0,0,1,0,0v-1A7,7,0,0,1,48.492,34.421Z" transform="translate(-8.292 13.86) rotate(-15)" style="fill:none;stroke:#231f20;stroke-linejoin:round;stroke-width:2px"/><path d="M50.277,47.537,51.4,49.225A8.861,8.861,0,0,1,50.3,60.405h0A8.861,8.861,0,0,1,44.029,63H34.371" style="fill:none;stroke:#231f20;stroke-linejoin:round;stroke-width:2px"/><path d="M55.431,41.094l2.4,3.846a11.807,11.807,0,0,1-.188,12.8h0A11.8,11.8,0,0,1,47.825,63H40.371" style="fill:none;stroke:#231f20;stroke-linejoin:round;stroke-width:2px"/><path d="M42.545,52.691,44.457,54.7a4.775,4.775,0,0,1,.823,5.408l-.022.044h0A5.153,5.153,0,0,1,40.648,63" style="fill:none;stroke:#231f20;stroke-linejoin:round;stroke-width:2px"/><path d="M43.057,1.136h0a2,2,0,0,1,2,2v32a0,0,0,0,1,0,0h-4a0,0,0,0,1,0,0v-32a2,2,0,0,1,2-2Z" transform="matrix(0.966, -0.259, 0.259, 0.966, -3.227, 11.762)" style="fill:none;stroke:#231f20;stroke-linejoin:round;stroke-width:2px"/><line x1="43" y1="8" x2="58" y2="8" style="fill:none;stroke:#231f20;stroke-linejoin:round;stroke-width:2px"/><line x1="61" y1="8" x2="64" y2="8" style="fill:none;stroke:#231f20;stroke-linejoin:round;stroke-width:2px"/><line x1="60" y1="16" x2="45" y2="16" style="fill:none;stroke:#231f20;stroke-linejoin:round;stroke-width:2px"/><line x1="47" y1="23" x2="55" y2="23" style="fill:none;stroke:#231f20;stroke-linejoin:round;stroke-width:2px"/><line x1="59" y1="23" x2="64" y2="23" style="fill:none;stroke:#231f20;stroke-linejoin:round;stroke-width:2px"/><line y1="15" x2="4" y2="15" style="fill:none;stroke:#231f20;stroke-linejoin:round;stroke-width:2px"/><line x1="6" y1="15" x2="19" y2="15" style="fill:none;stroke:#231f20;stroke-linejoin:round;stroke-width:2px"/><line x1="3" y1="8" x2="12" y2="8" style="fill:none;stroke:#231f20;stroke-linejoin:round;stroke-width:2px"/><line x1="15" y1="8" x2="21" y2="8" style="fill:none;stroke:#231f20;stroke-linejoin:round;stroke-width:2px"/><line y1="25" x2="10" y2="25" style="fill:none;stroke:#231f20;stroke-linejoin:round;stroke-width:2px"/><line x1="12" y1="25" x2="14" y2="25" style="fill:none;stroke:#231f20;stroke-linejoin:round;stroke-width:2px"/></g></svg>