<svg xmlns="http://www.w3.org/2000/svg" viewBox="0 0 64 64"><title>cleaning-clean-sweep-window-chore</title><g id="Layer_27" data-name="Layer 27"><path d="M61,60V52.536a49.728,49.728,0,0,1,.5-7.036h0a49.728,49.728,0,0,0,.5-7.036V19a2,2,0,0,0-2-2h0a2,2,0,0,0-2,2V14a2,2,0,0,0-2-2h0a2,2,0,0,0-2,2V11a2,2,0,0,0-2-2h0a2,2,0,0,0-2,2v3a2,2,0,0,0-2-2h0a2,2,0,0,0-2,2V38l-1.533-6.132A2.466,2.466,0,0,0,42.074,30h0a2.466,2.466,0,0,0-2.407,3L41,39l5,10V60" style="fill:none;stroke:#231f20;stroke-linejoin:round;stroke-width:2px"/><rect x="44" y="59" width="19" height="4" style="fill:none;stroke:#231f20;stroke-linejoin:round;stroke-width:2px"/><polyline points="46 15 28 15 28 44 44 44" style="fill:none;stroke:#231f20;stroke-linejoin:round;stroke-width:2px"/><path d="M28,46.5h0A4.5,4.5,0,0,1,23.5,42h0A4.5,4.5,0,0,1,19,46.5h0A4.5,4.5,0,0,1,23.5,51h0A4.5,4.5,0,0,1,28,46.5Z" style="fill:none;stroke:#231f20;stroke-linejoin:round;stroke-width:2px"/><path d="M19,15.5h0A4.5,4.5,0,0,1,14.5,11h0A4.5,4.5,0,0,1,10,15.5h0A4.5,4.5,0,0,1,14.5,20h0A4.5,4.5,0,0,1,19,15.5Z" style="fill:none;stroke:#231f20;stroke-linejoin:round;stroke-width:2px"/><polyline points="58 63 1 63 1 1 58 1 58 14" style="fill:none;stroke:#231f20;stroke-linejoin:round;stroke-width:2px"/><polyline points="45 57 7 57 7 7 52 7 52 10" style="fill:none;stroke:#231f20;stroke-linejoin:round;stroke-width:2px"/><line x1="10" y1="30" x2="17" y2="30" style="fill:none;stroke:#231f20;stroke-linejoin:round;stroke-width:2px"/><line x1="21" y1="30" x2="25" y2="30" style="fill:none;stroke:#231f20;stroke-linejoin:round;stroke-width:2px"/><line x1="18" y1="24" x2="23" y2="24" style="fill:none;stroke:#231f20;stroke-linejoin:round;stroke-width:2px"/><line x1="25" y1="24" x2="27" y2="24" style="fill:none;stroke:#231f20;stroke-linejoin:round;stroke-width:2px"/><line x1="10" y1="36" x2="14" y2="36" style="fill:none;stroke:#231f20;stroke-linejoin:round;stroke-width:2px"/><line x1="18" y1="36" x2="28" y2="36" style="fill:none;stroke:#231f20;stroke-linejoin:round;stroke-width:2px"/></g></svg>