<svg xmlns="http://www.w3.org/2000/svg" viewBox="0 0 64 64"><title>cleaning-clean-wash-laundry-machine</title><g id="Layer_12" data-name="Layer 12"><rect x="5" y="14" width="54" height="48" style="fill:none;stroke:#231f20;stroke-linejoin:round;stroke-width:2px"/><line x1="6" y1="58" x2="58" y2="58" style="fill:none;stroke:#231f20;stroke-linejoin:round;stroke-width:2px"/><line x1="6" y1="18" x2="58" y2="18" style="fill:none;stroke:#231f20;stroke-linejoin:round;stroke-width:2px"/><circle cx="32" cy="38" r="16" style="fill:none;stroke:#231f20;stroke-linejoin:round;stroke-width:2px"/><path d="M12.509,3H51.491A5.509,5.509,0,0,1,57,8.509V14a0,0,0,0,1,0,0H7a0,0,0,0,1,0,0V8.509A5.509,5.509,0,0,1,12.509,3Z" style="fill:none;stroke:#231f20;stroke-linejoin:round;stroke-width:2px"/><path d="M39,40V36h3.81a11,11,0,1,0,0,4Z" style="fill:none;stroke:#231f20;stroke-linejoin:round;stroke-width:2px"/><path d="M24.81,38a7.157,7.157,0,0,0,7.157,7.157" style="fill:none;stroke:#231f20;stroke-linejoin:round;stroke-width:2px"/><rect x="13" y="6" width="14" height="5" style="fill:none;stroke:#231f20;stroke-linejoin:round;stroke-width:2px"/><circle cx="39.5" cy="8.5" r="2.5" style="fill:none;stroke:#231f20;stroke-linejoin:round;stroke-width:2px"/><circle cx="48.5" cy="8.5" r="2.5" style="fill:none;stroke:#231f20;stroke-linejoin:round;stroke-width:2px"/><line x1="56" y1="22" x2="54" y2="22" style="fill:none;stroke:#231f20;stroke-linejoin:round;stroke-width:2px"/><line x1="52" y1="22" x2="50" y2="22" style="fill:none;stroke:#231f20;stroke-linejoin:round;stroke-width:2px"/></g></svg>