<svg xmlns="http://www.w3.org/2000/svg" viewBox="0 0 64 64"><title>cleaning-clean-sweep-window-chore-housekeeping</title><g id="_27-window" data-name="27-window"><polyline points="58 63 1 63 1 1 58 1 58 14" style="fill:#898890"/><rect x="1" y="1" width="7" height="62" style="fill:#3e3d42"/><polyline points="45 57 7 57 7 7 52 7 52 10" style="fill:#ddedff"/><rect x="7" y="7" width="7" height="50" style="fill:#b3d8f4"/><path d="M28,46.5h0A4.5,4.5,0,0,1,23.5,42h0A4.5,4.5,0,0,1,19,46.5h0A4.5,4.5,0,0,1,23.5,51h0A4.5,4.5,0,0,1,28,46.5Z" style="fill:#ffb655"/><path d="M19,15.5h0A4.5,4.5,0,0,1,14.5,11h0A4.5,4.5,0,0,1,10,15.5h0A4.5,4.5,0,0,1,14.5,20h0A4.5,4.5,0,0,1,19,15.5Z" style="fill:#ffb655"/><rect x="44" y="59" width="19" height="4" style="fill:#ffb655"/><rect x="44" y="59" width="6" height="4" style="fill:#b2782a"/><polyline points="46 15 28 15 28 44 44 44" style="fill:#57a4ff"/><rect x="28" y="15" width="5" height="29" style="fill:#006df0"/><path d="M62,19V38.46a50.18,50.18,0,0,1-.5,7.04,50.18,50.18,0,0,0-.5,7.04V60H46V49L41,39l-1.33-6a2.573,2.573,0,0,1-.06-.55,2.467,2.467,0,0,1,4.86-.58L46,38V14a2.015,2.015,0,0,1,2-2,2.006,2.006,0,0,1,2,2V11a2.015,2.015,0,0,1,2-2,2.006,2.006,0,0,1,2,2v3a2.015,2.015,0,0,1,2-2,2.006,2.006,0,0,1,2,2v5a2.015,2.015,0,0,1,2-2A2.006,2.006,0,0,1,62,19Z" style="fill:#fff5cc"/><path d="M50,14V59H46V49L41,39l-1.33-6a2.573,2.573,0,0,1-.06-.55,2.467,2.467,0,0,1,4.86-.58L46,38V14a2.015,2.015,0,0,1,2-2A2.006,2.006,0,0,1,50,14Z" style="fill:#ffb655"/><path d="M61,60V52.536a49.728,49.728,0,0,1,.5-7.036h0a49.728,49.728,0,0,0,.5-7.036V19a2,2,0,0,0-2-2h0a2,2,0,0,0-2,2V14a2,2,0,0,0-2-2h0a2,2,0,0,0-2,2V11a2,2,0,0,0-2-2h0a2,2,0,0,0-2,2v3a2,2,0,0,0-2-2h0a2,2,0,0,0-2,2V38l-1.533-6.132A2.466,2.466,0,0,0,42.074,30h0a2.466,2.466,0,0,0-2.407,3L41,39l5,10V60" style="fill:none;stroke:#000;stroke-linejoin:round;stroke-width:2px"/><rect x="44" y="59" width="19" height="4" style="fill:none;stroke:#000;stroke-linejoin:round;stroke-width:2px"/><polyline points="46 15 28 15 28 44 44 44" style="fill:none;stroke:#000;stroke-linejoin:round;stroke-width:2px"/><path d="M28,46.5h0A4.5,4.5,0,0,1,23.5,42h0A4.5,4.5,0,0,1,19,46.5h0A4.5,4.5,0,0,1,23.5,51h0A4.5,4.5,0,0,1,28,46.5Z" style="fill:none;stroke:#000;stroke-linejoin:round;stroke-width:2px"/><path d="M19,15.5h0A4.5,4.5,0,0,1,14.5,11h0A4.5,4.5,0,0,1,10,15.5h0A4.5,4.5,0,0,1,14.5,20h0A4.5,4.5,0,0,1,19,15.5Z" style="fill:none;stroke:#000;stroke-linejoin:round;stroke-width:2px"/><polyline points="58 63 1 63 1 1 58 1 58 14" style="fill:none;stroke:#000;stroke-linejoin:round;stroke-width:2px"/><polyline points="45 57 7 57 7 7 52 7 52 10" style="fill:none;stroke:#000;stroke-linejoin:round;stroke-width:2px"/><line x1="10" y1="30" x2="17" y2="30" style="fill:none;stroke:#000;stroke-linejoin:round;stroke-width:2px"/><line x1="21" y1="30" x2="25" y2="30" style="fill:none;stroke:#000;stroke-linejoin:round;stroke-width:2px"/><line x1="18" y1="24" x2="23" y2="24" style="fill:none;stroke:#000;stroke-linejoin:round;stroke-width:2px"/><line x1="25" y1="24" x2="27" y2="24" style="fill:none;stroke:#000;stroke-linejoin:round;stroke-width:2px"/><line x1="10" y1="36" x2="14" y2="36" style="fill:none;stroke:#000;stroke-linejoin:round;stroke-width:2px"/><line x1="18" y1="36" x2="28" y2="36" style="fill:none;stroke:#000;stroke-linejoin:round;stroke-width:2px"/></g></svg>