<svg xmlns="http://www.w3.org/2000/svg" viewBox="0 0 64 64"><title>cleaning-clean-wash-chore-bucket-mop-toilet</title><g id="_24-mop" data-name="24-mop"><circle cx="59.5" cy="26.5" r="2.5" style="fill:#b3d8f4"/><path d="M59,26.5a2.5,2.5,0,0,1,1.5-2.289,2.5,2.5,0,1,0,0,4.578A2.5,2.5,0,0,1,59,26.5Z" style="fill:#57a4ff"/><circle cx="52" cy="18" r="3" style="fill:#b3d8f4"/><path d="M51,18a2.99,2.99,0,0,1,2-2.816A2.962,2.962,0,0,0,52,15a3,3,0,0,0,0,6,2.962,2.962,0,0,0,1-.184A2.99,2.99,0,0,1,51,18Z" style="fill:#57a4ff"/><polyline points="34.813 45 33 37 61 37 55.107 63 44 63" style="fill:#fff5cc"/><path d="M38,37H33l1.813,8L44,63h5L43.542,52.306A65.539,65.539,0,0,1,38,37Z" style="fill:#ffb655"/><rect x="43" y="37" width="6" height="4" style="fill:#898890"/><path d="M63,35a2.015,2.015,0,0,1-2,2H33a2.006,2.006,0,0,1-2-2,2.015,2.015,0,0,1,2-2H61A2.006,2.006,0,0,1,63,35Z" style="fill:#ffb655"/><rect x="1" y="48" width="46" height="5" style="fill:#57a4ff"/><path d="M38,33v4H33a2.006,2.006,0,0,1-2-2,2.015,2.015,0,0,1,2-2Z" style="fill:#b2782a"/><path d="M27,40H21a10.3,10.3,0,0,1-8.831,5H12v3H36V45h-.169A10.3,10.3,0,0,1,27,40Z" style="fill:#c6c5ca"/><path d="M36,45v3H12V45h.17A10.328,10.328,0,0,0,21,40h6a10.3,10.3,0,0,0,8.83,5Z" style="fill:#898890"/><rect x="1" y="48" width="7" height="5" style="fill:#006df0"/><path d="M23,40h0a8,8,0,0,1-8,8H12V45h.17A10.328,10.328,0,0,0,21,40Z" style="fill:#3e3d42"/><path d="M27,4V39a1,1,0,0,1-1,1H22a1,1,0,0,1-1-1V4a2.968,2.968,0,0,1,2-2.82A2.772,2.772,0,0,1,24,1,3,3,0,0,1,27,4Z" style="fill:#b3d8f4"/><path d="M43.972,63h-40l-.466-.583a7.07,7.07,0,0,1,0-8.834L3.972,53h40a7.07,7.07,0,0,1,0,10Z" style="fill:#c6c5ca"/><path d="M23,1.18V40H22a1,1,0,0,1-1-1V4A2.968,2.968,0,0,1,23,1.18Z" style="fill:#57a4ff"/><path d="M8.506,53.583,8.972,53h-5l-.466.583a7.07,7.07,0,0,0,0,8.834L3.972,63h5l-.466-.583A7.07,7.07,0,0,1,8.506,53.583Z" style="fill:#898890"/><path d="M9,23H9a4,4,0,0,1,4,4h0a4,4,0,0,1,4-4h0a4,4,0,0,1-4-4h0a4,4,0,0,1-4,4Z" style="fill:#ffb655"/><path d="M39,6h0a4,4,0,0,1,4,4h0a4,4,0,0,1,4-4h0a4,4,0,0,1-4-4h0a4,4,0,0,1-4,4Z" style="fill:#ffb655"/><path d="M43.972,63h-40l-.466-.583a7.07,7.07,0,0,1,0-8.834L3.972,53h40a7.07,7.07,0,0,1,0,10Z" style="fill:none;stroke:#000;stroke-linejoin:round;stroke-width:2px"/><rect x="1" y="48" width="46" height="5" style="fill:none;stroke:#000;stroke-linejoin:round;stroke-width:2px"/><path d="M27,40H21a10.3,10.3,0,0,1-8.831,5H12v3H36V45h-.169A10.3,10.3,0,0,1,27,40Z" style="fill:none;stroke:#000;stroke-linejoin:round;stroke-width:2px"/><path d="M24,1h0a3,3,0,0,1,3,3V39a1,1,0,0,1-1,1H22a1,1,0,0,1-1-1V4a3,3,0,0,1,3-3Z" style="fill:none;stroke:#000;stroke-linejoin:round;stroke-width:2px"/><rect x="31" y="33" width="32" height="4" rx="2" style="fill:none;stroke:#000;stroke-linejoin:round;stroke-width:2px"/><polyline points="34.813 45 33 37 61 37 55.107 63 44 63" style="fill:none;stroke:#000;stroke-linejoin:round;stroke-width:2px"/><rect x="43" y="37" width="6" height="4" style="fill:none;stroke:#000;stroke-linejoin:round;stroke-width:2px"/><path d="M46,41l7.462,8.819a4.665,4.665,0,0,0,7.1.022h0a4.665,4.665,0,0,0,.19-5.835L60,43" style="fill:none;stroke:#000;stroke-linejoin:round;stroke-width:2px"/><circle cx="59.5" cy="26.5" r="2.5" style="fill:none;stroke:#000;stroke-linejoin:round;stroke-width:2px"/><circle cx="52" cy="18" r="3" style="fill:none;stroke:#000;stroke-linejoin:round;stroke-width:2px"/><line x1="7" y1="34" x2="9" y2="34" style="fill:none;stroke:#000;stroke-linejoin:round;stroke-width:2px"/><line x1="10" y1="37" x2="12" y2="37" style="fill:none;stroke:#000;stroke-linejoin:round;stroke-width:2px"/><line x1="7" y1="40" x2="9" y2="40" style="fill:none;stroke:#000;stroke-linejoin:round;stroke-width:2px"/><line x1="4" y1="37" x2="6" y2="37" style="fill:none;stroke:#000;stroke-linejoin:round;stroke-width:2px"/><line x1="35" y1="23" x2="37" y2="23" style="fill:none;stroke:#000;stroke-linejoin:round;stroke-width:2px"/><line x1="38" y1="26" x2="40" y2="26" style="fill:none;stroke:#000;stroke-linejoin:round;stroke-width:2px"/><line x1="35" y1="29" x2="37" y2="29" style="fill:none;stroke:#000;stroke-linejoin:round;stroke-width:2px"/><line x1="32" y1="26" x2="34" y2="26" style="fill:none;stroke:#000;stroke-linejoin:round;stroke-width:2px"/><path d="M9,23H9a4,4,0,0,1,4,4h0a4,4,0,0,1,4-4h0a4,4,0,0,1-4-4h0a4,4,0,0,1-4,4Z" style="fill:none;stroke:#000;stroke-linejoin:round;stroke-width:2px"/><path d="M39,6h0a4,4,0,0,1,4,4h0a4,4,0,0,1,4-4h0a4,4,0,0,1-4-4h0a4,4,0,0,1-4,4Z" style="fill:none;stroke:#000;stroke-linejoin:round;stroke-width:2px"/><line x1="43" y1="60" x2="28" y2="60" style="fill:none;stroke:#000;stroke-linejoin:round;stroke-width:2px"/><line x1="26" y1="60" x2="22" y2="60" style="fill:none;stroke:#000;stroke-linejoin:round;stroke-width:2px"/></g></svg>