<svg xmlns="http://www.w3.org/2000/svg" viewBox="0 0 64 64"><title>cleaning-clean-wash-dish-kitchen-chore</title><g id="_11-wash_dish" data-name="11-wash dish"><circle cx="33" cy="32" r="27" style="fill:#c6c5ca"/><path d="M15,32A27,27,0,0,1,37.5,5.38,27,27,0,1,0,33,59a27.235,27.235,0,0,0,4.5-.38A27,27,0,0,1,15,32Z" style="fill:#898890"/><path d="M23,25.5h0A4.5,4.5,0,0,1,18.5,21h0A4.5,4.5,0,0,1,14,25.5h0A4.5,4.5,0,0,1,18.5,30h0A4.5,4.5,0,0,1,23,25.5Z" style="fill:#ffb655"/><polyline points="46 15 28 15 28 44 44 44" style="fill:#fff5cc"/><rect x="28" y="15" width="7" height="29" style="fill:#ffb655"/><rect x="44" y="59" width="19" height="4" style="fill:#b3d8f4"/><rect x="44" y="59" width="6" height="4" style="fill:#57a4ff"/><path d="M62,19V38.46a50.18,50.18,0,0,1-.5,7.04,50.18,50.18,0,0,0-.5,7.04V60H46V49L41,39l-1.33-6a2.573,2.573,0,0,1-.06-.55,2.467,2.467,0,0,1,4.86-.58L46,38V14a2.015,2.015,0,0,1,2-2,2.006,2.006,0,0,1,2,2V11a1.955,1.955,0,0,1,.59-1.41A1.813,1.813,0,0,1,51,9.27,2,2,0,0,1,54,11v3a2.015,2.015,0,0,1,2-2,2.006,2.006,0,0,1,2,2v5a2.015,2.015,0,0,1,2-2A2.006,2.006,0,0,1,62,19Z" style="fill:#57a4ff"/><path d="M50,14V60H46V49L41,39l-1.33-6a2.573,2.573,0,0,1-.06-.55,2.467,2.467,0,0,1,4.86-.58L46,38V14a2.015,2.015,0,0,1,2-2A2.006,2.006,0,0,1,50,14Z" style="fill:#006df0"/><path d="M61,60V52.536a49.728,49.728,0,0,1,.5-7.036h0a49.728,49.728,0,0,0,.5-7.036V19a2,2,0,0,0-2-2h0a2,2,0,0,0-2,2V14a2,2,0,0,0-2-2h0a2,2,0,0,0-2,2V11a2,2,0,0,0-2-2h0a2,2,0,0,0-2,2v3a2,2,0,0,0-2-2h0a2,2,0,0,0-2,2V38l-1.533-6.132A2.466,2.466,0,0,0,42.074,30h0a2.466,2.466,0,0,0-2.407,3L41,39l5,10V60" style="fill:none;stroke:#000;stroke-linejoin:round;stroke-width:2px"/><rect x="44" y="59" width="19" height="4" style="fill:none;stroke:#000;stroke-linejoin:round;stroke-width:2px"/><path d="M46,55.67A27,27,0,1,1,40.3,6" style="fill:none;stroke:#000;stroke-linejoin:round;stroke-width:2px"/><path d="M33.6,53.6A21.6,21.6,0,0,1,12,32" style="fill:none;stroke:#000;stroke-linejoin:round;stroke-width:2px"/><path d="M45,7.807A27.03,27.03,0,0,1,49.972,11" style="fill:none;stroke:#000;stroke-linejoin:round;stroke-width:2px"/><line y1="1" x2="4" y2="1" style="fill:none;stroke:#000;stroke-linejoin:round;stroke-width:2px"/><line x1="6" y1="1" x2="30" y2="1" style="fill:none;stroke:#000;stroke-linejoin:round;stroke-width:2px"/><line x1="12" y1="7" x2="2" y2="7" style="fill:none;stroke:#000;stroke-linejoin:round;stroke-width:2px"/><line y1="13" x2="6" y2="13" style="fill:none;stroke:#000;stroke-linejoin:round;stroke-width:2px"/><line y1="63" x2="2" y2="63" style="fill:none;stroke:#000;stroke-linejoin:round;stroke-width:2px"/><line x1="4" y1="63" x2="21" y2="63" style="fill:none;stroke:#000;stroke-linejoin:round;stroke-width:2px"/><line y1="57" x2="9" y2="57" style="fill:none;stroke:#000;stroke-linejoin:round;stroke-width:2px"/><line x1="11" y1="57" x2="15" y2="57" style="fill:none;stroke:#000;stroke-linejoin:round;stroke-width:2px"/><line y1="51" x2="5" y2="51" style="fill:none;stroke:#000;stroke-linejoin:round;stroke-width:2px"/><path d="M48,6.5h0A4.5,4.5,0,0,1,43.5,2h0A4.5,4.5,0,0,1,39,6.5h0A4.5,4.5,0,0,1,43.5,11h0A4.5,4.5,0,0,1,48,6.5Z" style="fill:#ffb655"/><polyline points="46 15 28 15 28 44 44 44" style="fill:none;stroke:#000;stroke-linejoin:round;stroke-width:2px"/><path d="M48,6.5h0A4.5,4.5,0,0,1,43.5,2h0A4.5,4.5,0,0,1,39,6.5h0A4.5,4.5,0,0,1,43.5,11h0A4.5,4.5,0,0,1,48,6.5Z" style="fill:none;stroke:#000;stroke-linejoin:round;stroke-width:2px"/><path d="M23,25.5h0A4.5,4.5,0,0,1,18.5,21h0A4.5,4.5,0,0,1,14,25.5h0A4.5,4.5,0,0,1,18.5,30h0A4.5,4.5,0,0,1,23,25.5Z" style="fill:none;stroke:#000;stroke-linejoin:round;stroke-width:2px"/></g></svg>