<svg xmlns="http://www.w3.org/2000/svg" viewBox="0 0 64 64"><title>cleaning-clean-spray-bottle-wash</title><g id="Layer_14" data-name="Layer 14"><path d="M38.111,17l-5.116,5.9a4.005,4.005,0,0,0,.448,5.688l.031.026a4.006,4.006,0,0,1,.1,6.046h0A19.789,19.789,0,0,0,27,49.39V60.608A2.392,2.392,0,0,0,29.392,63H54.608A2.392,2.392,0,0,0,57,60.608V33.034a6.938,6.938,0,0,0-3.063-5.755h0l-.066-.045a5.914,5.914,0,0,1-1.152-8.746L54,17Z" style="fill:none;stroke:#231f20;stroke-linejoin:round;stroke-width:2px"/><path d="M40,20c-1.464,1.689-8,6-2,8" style="fill:none;stroke:#231f20;stroke-linejoin:round;stroke-width:2px"/><rect x="38" y="13" width="16" height="4" style="fill:none;stroke:#231f20;stroke-linejoin:round;stroke-width:2px"/><path d="M38.527,13,35.145,8H25V1H44.529a6.2,6.2,0,0,1,5.885,4.242L53.8,13Z" style="fill:none;stroke:#231f20;stroke-linejoin:round;stroke-width:2px"/><rect x="25" y="1" width="5" height="7" style="fill:none;stroke:#231f20;stroke-linejoin:round;stroke-width:2px"/><path d="M30,8v2.4a11.67,11.67,0,0,1-1.663,6h0a1.891,1.891,0,0,0,1.621,2.865h0a1.891,1.891,0,0,0,1.692-1.046l2.286-4.572a11.7,11.7,0,0,0,.884-2.389l.527-2.108A.932.932,0,0,0,34.443,8Z" style="fill:none;stroke:#231f20;stroke-linejoin:round;stroke-width:2px"/><line x1="35" y1="31" x2="57" y2="31" style="fill:none;stroke:#231f20;stroke-linejoin:round;stroke-width:2px"/><line x1="27" y1="47" x2="57" y2="47" style="fill:none;stroke:#231f20;stroke-linejoin:round;stroke-width:2px"/><path d="M42,4h1.574A3.584,3.584,0,0,1,46.9,6.252L48,9" style="fill:none;stroke:#231f20;stroke-linejoin:round;stroke-width:2px"/><line x1="42" y1="13" x2="42" y2="16" style="fill:none;stroke:#231f20;stroke-linejoin:round;stroke-width:2px"/><line x1="46" y1="13" x2="46" y2="17" style="fill:none;stroke:#231f20;stroke-linejoin:round;stroke-width:2px"/><line x1="50" y1="13" x2="50" y2="16" style="fill:none;stroke:#231f20;stroke-linejoin:round;stroke-width:2px"/><line x1="21" y1="2" x2="19" y2="2" style="fill:none;stroke:#231f20;stroke-linejoin:round;stroke-width:2px"/><line x1="17" y1="2" x2="10" y2="2" style="fill:none;stroke:#231f20;stroke-linejoin:round;stroke-width:2px"/><line x1="8" y1="2" x2="6" y2="2" style="fill:none;stroke:#231f20;stroke-linejoin:round;stroke-width:2px"/><line x1="18" y1="7" x2="13" y2="7" style="fill:none;stroke:#231f20;stroke-linejoin:round;stroke-width:2px"/><line x1="9" y1="7" x2="7" y2="7" style="fill:none;stroke:#231f20;stroke-linejoin:round;stroke-width:2px"/><line x1="20" y1="7" x2="22" y2="7" style="fill:none;stroke:#231f20;stroke-linejoin:round;stroke-width:2px"/><line x1="38" y1="35" x2="54" y2="35" style="fill:none;stroke:#231f20;stroke-linejoin:round;stroke-width:2px"/><line x1="34" y1="39" x2="51" y2="39" style="fill:none;stroke:#231f20;stroke-linejoin:round;stroke-width:2px"/><line x1="36" y1="43" x2="54" y2="43" style="fill:none;stroke:#231f20;stroke-linejoin:round;stroke-width:2px"/><line x1="34" y1="43" x2="32" y2="43" style="fill:none;stroke:#231f20;stroke-linejoin:round;stroke-width:2px"/></g></svg>