<svg xmlns="http://www.w3.org/2000/svg" viewBox="0 0 64 64"><title>clean-cleaning-soap-wash-bubble-hygiene</title><g id="Layer_4" data-name="Layer 4"><circle cx="9" cy="9" r="8" style="fill:none;stroke:#231f20;stroke-linejoin:round;stroke-width:2px"/><path d="M13,9a4,4,0,0,1-4,4" style="fill:none;stroke:#231f20;stroke-linejoin:round;stroke-width:2px"/><circle cx="49" cy="15" r="14" style="fill:none;stroke:#231f20;stroke-linejoin:round;stroke-width:2px"/><path d="M59,15A10,10,0,0,1,49,25" style="fill:none;stroke:#231f20;stroke-linejoin:round;stroke-width:2px"/><path d="M15,28.08,29.212,13.868A8.379,8.379,0,0,1,35,11.417" style="fill:none;stroke:#231f20;stroke-linejoin:round;stroke-width:2px"/><path d="M53.543,29a8.4,8.4,0,0,1-2.411,6.788L29.788,57.132a8.432,8.432,0,0,1-11.89,0L7.868,47.1a8.432,8.432,0,0,1,0-11.89" style="fill:none;stroke:#231f20;stroke-linejoin:round;stroke-width:2px"/><path d="M47.585,29.843a2.4,2.4,0,0,1-.7,1.7L25.545,52.89a2.434,2.434,0,0,1-3.4,0L12.11,42.859a2.432,2.432,0,0,1,0-3.4L33.455,18.11a2.4,2.4,0,0,1,1.7-.694" style="fill:none;stroke:#231f20;stroke-linejoin:round;stroke-width:2px"/><circle cx="9.5" cy="29.5" r="5.5" style="fill:none;stroke:#231f20;stroke-linejoin:round;stroke-width:2px"/><circle cx="49.5" cy="55.5" r="7.5" style="fill:none;stroke:#231f20;stroke-linejoin:round;stroke-width:2px"/><path d="M54,55.5A4.5,4.5,0,0,1,49.5,60" style="fill:none;stroke:#231f20;stroke-linejoin:round;stroke-width:2px"/></g></svg>