<svg xmlns="http://www.w3.org/2000/svg" viewBox="0 0 64 64"><title>cleaning-clean-bucket-hygiene-bubble-bubble-washh</title><g id="_07-bucket" data-name="07-bucket"><path d="M40.977,13.524a7,7,0,0,0-13.941-.218,6.984,6.984,0,0,0-8.978,5.835A4,4,0,0,0,13,23H50A9.492,9.492,0,0,0,40.977,13.524Z" style="fill:#57a4ff"/><path d="M21,27H14a2,2,0,0,1-2-2h0a2,2,0,0,1,2-2l36,0a2,2,0,0,1,2,2h0a2,2,0,0,1-2,2H29" style="fill:#c6c5ca"/><path d="M20,27a2,2,0,0,1,0-4H14a2,2,0,1,0,0,4" style="fill:#898890"/><path d="M49,27,45.536,58.164A5.437,5.437,0,0,1,40.133,63H23.865a5.437,5.437,0,0,1-5.4-4.837L15,27" style="fill:#898890"/><path d="M28.865,63a5.437,5.437,0,0,1-5.4-4.837L20,27H15l3.462,31.164A5.437,5.437,0,0,0,23.865,63" style="fill:#3e3d42"/><path d="M21,23a4,4,0,0,1,5.058-3.858,6.984,6.984,0,0,1,8.978-5.835A6.988,6.988,0,0,1,38,8.265a6.987,6.987,0,0,0-10.963,5.041,6.984,6.984,0,0,0-8.978,5.835A4,4,0,0,0,13,23" style="fill:#006df0"/><circle cx="6" cy="36.999" r="5" style="fill:#b3d8f4"/><path d="M4,37a4.984,4.984,0,0,1,3.5-4.746A4.966,4.966,0,0,0,6,32,5,5,0,0,0,6,42a4.972,4.972,0,0,0,1.5-.254A4.984,4.984,0,0,1,4,37Z" style="fill:#57a4ff"/><circle cx="12.001" cy="6.999" r="6" style="fill:#b3d8f4"/><circle cx="12.001" cy="6.999" r="6" style="fill:#b3d8f4"/><path d="M9,7a6,6,0,0,1,4.5-5.8,6,6,0,1,0,0,11.607A6,6,0,0,1,9,7Z" style="fill:#57a4ff"/><circle cx="56.001" cy="8.001" r="7" style="fill:#b3d8f4"/><path d="M53,8A7,7,0,0,1,58,1.3a7,7,0,1,0,0,13.412A7,7,0,0,1,53,8Z" style="fill:#57a4ff"/><path d="M21,27H14a2,2,0,0,1-2-2h0a2,2,0,0,1,2-2l36,0a2,2,0,0,1,2,2h0a2,2,0,0,1-2,2H29" style="fill:none;stroke:#000;stroke-linejoin:round;stroke-width:2px"/><path d="M49,27,45.536,58.164A5.437,5.437,0,0,1,40.133,63H23.865a5.437,5.437,0,0,1-5.4-4.837L15,27" style="fill:none;stroke:#000;stroke-linejoin:round;stroke-width:2px"/><circle cx="25" cy="28.5" r="2.5" style="fill:none;stroke:#000;stroke-linejoin:round;stroke-width:2px"/><path d="M26,31,44.925,47.627a7.874,7.874,0,0,0,11.266-.856h0a7.873,7.873,0,0,0-.728-10.845L49,30" style="fill:none;stroke:#000;stroke-linejoin:round;stroke-width:2px"/><circle cx="12.001" cy="6.999" r="6" style="fill:none;stroke:#000;stroke-linejoin:round;stroke-width:2px"/><circle cx="12.001" cy="6.999" r="6" style="fill:none;stroke:#000;stroke-linejoin:round;stroke-width:2px"/><path d="M15,7a3,3,0,0,1-3,3" style="fill:none;stroke:#000;stroke-linejoin:round;stroke-width:2px"/><circle cx="56.001" cy="8.001" r="7" style="fill:none;stroke:#000;stroke-linejoin:round;stroke-width:2px"/><path d="M56,12a4,4,0,0,0,4-4" style="fill:none;stroke:#000;stroke-linejoin:round;stroke-width:2px"/><circle cx="6" cy="36.999" r="5" style="fill:none;stroke:#000;stroke-linejoin:round;stroke-width:2px"/><path d="M8,37a2,2,0,0,1-2,2" style="fill:none;stroke:#000;stroke-linejoin:round;stroke-width:2px"/><path d="M40.977,13.524a7,7,0,0,0-13.941-.218,6.984,6.984,0,0,0-8.978,5.835A4,4,0,0,0,13,23H50A9.492,9.492,0,0,0,40.977,13.524Z" style="fill:none;stroke:#000;stroke-linejoin:round;stroke-width:2px"/><line x1="37.001" y1="11" x2="35.001" y2="11" style="fill:none;stroke:#000;stroke-linejoin:round;stroke-width:2px"/><line x1="43.001" y1="19" x2="41.001" y2="19" style="fill:none;stroke:#000;stroke-linejoin:round;stroke-width:2px"/><line x1="37.001" y1="17" x2="39.001" y2="17" style="fill:none;stroke:#000;stroke-linejoin:round;stroke-width:2px"/><line x1="21.999" y1="59" x2="23.999" y2="59" style="fill:none;stroke:#000;stroke-linejoin:round;stroke-width:2px"/><line x1="25.999" y1="59" x2="27.999" y2="59" style="fill:none;stroke:#000;stroke-linejoin:round;stroke-width:2px"/></g></svg>