<svg xmlns="http://www.w3.org/2000/svg" viewBox="0 0 64 64"><title>cleaning-clean-broom-sweep-chore-housekeeping</title><g id="_06-broom" data-name="06-broom"><circle cx="57" cy="21" r="6" style="fill:#b3d8f4"/><path d="M54,21a6,6,0,0,1,4.5-5.8,6,6,0,1,0,0,11.606A6,6,0,0,1,54,21Z" style="fill:#57a4ff"/><circle cx="8.5" cy="8.5" r="7.5" style="fill:#b3d8f4"/><path d="M5,8.5a7.5,7.5,0,0,1,5.5-7.222,7.5,7.5,0,1,0,0,14.444A7.5,7.5,0,0,1,5,8.5Z" style="fill:#57a4ff"/><rect x="29" y="1" width="6" height="17" style="fill:#c6c5ca"/><rect x="29" y="1" width="2" height="17" style="fill:#898890"/><rect x="25" y="18" width="14" height="6" style="fill:#898890"/><rect x="25" y="18" width="5" height="6" style="fill:#3e3d42"/><path d="M17.112,29a11.7,11.7,0,0,1,9.6-5H37.29A11.71,11.71,0,0,1,49,35.71l.573,11.055A85.131,85.131,0,0,0,52,63H44L41,51,38,63H12a85.131,85.131,0,0,0,2.427-16.235L14.674,42" style="fill:#fff5cc"/><path d="M22.553,37.311l.851-4.538a10.6,10.6,0,0,1,9.462-8.743q.419-.03.844-.03h-7a11.7,11.7,0,0,0-9.6,5L14.674,42l-.247,4.765A85.131,85.131,0,0,1,12,63h7a85.131,85.131,0,0,0,2.427-16.235h0A71.329,71.329,0,0,1,22.553,37.311Z" style="fill:#ffb655"/><circle cx="15.5" cy="35.5" r="6.5" style="fill:#b3d8f4"/><path d="M13,35.5a6.5,6.5,0,0,1,4.5-6.183,6.5,6.5,0,1,0,0,12.366A6.5,6.5,0,0,1,13,35.5Z" style="fill:#57a4ff"/><circle cx="8.5" cy="8.5" r="7.5" style="fill:none;stroke:#000;stroke-linejoin:round;stroke-width:2px"/><path d="M13,8.5A4.5,4.5,0,0,1,8.5,13" style="fill:none;stroke:#000;stroke-linejoin:round;stroke-width:2px"/><circle cx="57" cy="21" r="6" style="fill:none;stroke:#000;stroke-linejoin:round;stroke-width:2px"/><path d="M60,21a3,3,0,0,1-3,3" style="fill:none;stroke:#000;stroke-linejoin:round;stroke-width:2px"/><circle cx="15.5" cy="35.5" r="6.5" style="fill:none;stroke:#000;stroke-linejoin:round;stroke-width:2px"/><path d="M19,35.5A3.5,3.5,0,0,1,15.5,39" style="fill:none;stroke:#000;stroke-linejoin:round;stroke-width:2px"/><path d="M17.112,29a11.7,11.7,0,0,1,9.6-5H37.29A11.71,11.71,0,0,1,49,35.71l.573,11.055A85.131,85.131,0,0,0,52,63H44L41,51,38,63H12a85.131,85.131,0,0,0,2.427-16.235L14.674,42" style="fill:none;stroke:#000;stroke-linejoin:round;stroke-width:2px"/><rect x="29" y="1" width="6" height="17" style="fill:none;stroke:#000;stroke-linejoin:round;stroke-width:2px"/><rect x="25" y="18" width="14" height="6" style="fill:none;stroke:#000;stroke-linejoin:round;stroke-width:2px"/><line x1="21" y1="63" x2="21" y2="55" style="fill:none;stroke:#000;stroke-linejoin:round;stroke-width:2px"/><line x1="27" y1="63" x2="27" y2="55" style="fill:none;stroke:#000;stroke-linejoin:round;stroke-width:2px"/><line x1="33" y1="63" x2="33" y2="55" style="fill:none;stroke:#000;stroke-linejoin:round;stroke-width:2px"/></g></svg>