<svg xmlns="http://www.w3.org/2000/svg" viewBox="0 0 64 64"><title>cleaning-clean-wash-kitchen-dish</title><g id="Layer_19" data-name="Layer 19"><rect x="8" y="1" width="8" height="5" style="fill:none;stroke:#231f20;stroke-linejoin:round;stroke-width:2px"/><rect x="9" y="6" width="6" height="4" style="fill:none;stroke:#231f20;stroke-linejoin:round;stroke-width:2px"/><rect x="8" y="10" width="8" height="3" style="fill:none;stroke:#231f20;stroke-linejoin:round;stroke-width:2px"/><path d="M23,29.826A23.975,23.975,0,0,0,16.1,13H7.9A23.975,23.975,0,0,0,1,29.826V63H23V53" style="fill:none;stroke:#231f20;stroke-linejoin:round;stroke-width:2px"/><polyline points="20 45 1 45 1 29 23 29 23 30" style="fill:none;stroke:#231f20;stroke-linejoin:round;stroke-width:2px"/><line x1="8" y1="33" x2="19" y2="33" style="fill:none;stroke:#231f20;stroke-linejoin:round;stroke-width:2px"/><line x1="19" y1="37" x2="5" y2="37" style="fill:none;stroke:#231f20;stroke-linejoin:round;stroke-width:2px"/><line x1="5" y1="41" x2="14" y2="41" style="fill:none;stroke:#231f20;stroke-linejoin:round;stroke-width:2px"/><line x1="16" y1="41" x2="18" y2="41" style="fill:none;stroke:#231f20;stroke-linejoin:round;stroke-width:2px"/><polyline points="19 55 19 59 15 59" style="fill:none;stroke:#231f20;stroke-linejoin:round;stroke-width:2px"/><line x1="13" y1="59" x2="11" y2="59" style="fill:none;stroke:#231f20;stroke-linejoin:round;stroke-width:2px"/><polygon points="16 6 20 6 20 9 23 9 23 3 16 3 16 6" style="fill:none;stroke:#231f20;stroke-linejoin:round;stroke-width:2px"/><circle cx="41.5" cy="41.5" r="21.5" style="fill:none;stroke:#231f20;stroke-linejoin:round;stroke-width:2px"/><circle cx="41.5" cy="41.5" r="15.5" style="fill:none;stroke:#231f20;stroke-linejoin:round;stroke-width:2px"/><path d="M31,41.5A10.5,10.5,0,0,1,41.5,31" style="fill:none;stroke:#231f20;stroke-linejoin:round;stroke-width:2px"/><line x1="43" y1="31" x2="45" y2="31" style="fill:none;stroke:#231f20;stroke-linejoin:round;stroke-width:2px"/><path d="M53,17h0a4,4,0,0,1,4,4h0a4,4,0,0,1,4-4h0a4,4,0,0,1-4-4h0a4,4,0,0,1-4,4Z" style="fill:none;stroke:#231f20;stroke-linejoin:round;stroke-width:2px"/><path d="M27,12h0a4,4,0,0,1,4,4h0a4,4,0,0,1,4-4h0a4,4,0,0,1-4-4h0a4,4,0,0,1-4,4Z" style="fill:none;stroke:#231f20;stroke-linejoin:round;stroke-width:2px"/></g></svg>