<svg xmlns="http://www.w3.org/2000/svg" viewBox="0 0 64 64"><title>cleaning-clean-spray-bottle-wash-chore</title><g id="_14-spray" data-name="14-spray"><path d="M30,8v2.4a11.67,11.67,0,0,1-1.663,6h0a1.891,1.891,0,0,0,1.621,2.865h0a1.891,1.891,0,0,0,1.692-1.046l2.286-4.572a11.7,11.7,0,0,0,.884-2.389l.527-2.108A.932.932,0,0,0,34.443,8Z" style="fill:#ffb655"/><rect x="38" y="13" width="16" height="4" style="fill:#fff5cc"/><path d="M53.8,13H38.53l-.04-.06L35.15,8H25V1H44.53a6.2,6.2,0,0,1,5.88,4.24Z" style="fill:#57a4ff"/><rect x="25" y="1" width="5" height="7" style="fill:#898890"/><path d="M57,33.03V60.61A2.39,2.39,0,0,1,54.61,63H29.39A2.39,2.39,0,0,1,27,60.61V49.39A19.052,19.052,0,0,1,27.15,47a19.818,19.818,0,0,1,6.42-12.34,4,4,0,0,0-.1-6.04l-.03-.03a4.011,4.011,0,0,1-.45-5.69L38.11,17H54l-1.28,1.49a5.907,5.907,0,0,0,1.15,8.74l.07.05A6.985,6.985,0,0,1,57,33.03Z" style="fill:#b3d8f4"/><path d="M34,60.61V49.39A19.052,19.052,0,0,1,34.15,47a19.818,19.818,0,0,1,6.42-12.34,4,4,0,0,0-.1-6.04l-.03-.03a4.011,4.011,0,0,1-.45-5.69L45.11,17h-7l-5.12,5.9a4.011,4.011,0,0,0,.45,5.69l.03.03a4,4,0,0,1,.1,6.04A19.818,19.818,0,0,0,27.15,47,19.052,19.052,0,0,0,27,49.39V60.61A2.39,2.39,0,0,0,29.39,63h7A2.39,2.39,0,0,1,34,60.61Z" style="fill:#57a4ff"/><path d="M57,33.03V47H27.15a19.818,19.818,0,0,1,6.42-12.34A3.984,3.984,0,0,0,34.84,31H56.69A6.887,6.887,0,0,1,57,33.03Z" style="fill:#898890"/><path d="M40.57,34.66A3.984,3.984,0,0,0,41.84,31h-7a3.984,3.984,0,0,1-1.27,3.66A19.818,19.818,0,0,0,27.15,47h7a19.818,19.818,0,0,1,6.42-12.34Z" style="fill:#3e3d42"/><path d="M38.111,17l-5.116,5.9a4.005,4.005,0,0,0,.448,5.688l.031.026a4.006,4.006,0,0,1,.1,6.046h0A19.789,19.789,0,0,0,27,49.39V60.608A2.392,2.392,0,0,0,29.392,63H54.608A2.392,2.392,0,0,0,57,60.608V33.034a6.938,6.938,0,0,0-3.063-5.755h0l-.066-.045a5.914,5.914,0,0,1-1.152-8.746L54,17Z" style="fill:none;stroke:#000;stroke-linejoin:round;stroke-width:2px"/><path d="M40,20c-1.464,1.689-8,6-2,8" style="fill:none;stroke:#000;stroke-linejoin:round;stroke-width:2px"/><rect x="38" y="13" width="16" height="4" style="fill:none;stroke:#000;stroke-linejoin:round;stroke-width:2px"/><path d="M38.527,13,35.145,8H25V1H44.529a6.2,6.2,0,0,1,5.885,4.242L53.8,13Z" style="fill:none;stroke:#000;stroke-linejoin:round;stroke-width:2px"/><rect x="25" y="1" width="5" height="7" style="fill:none;stroke:#000;stroke-linejoin:round;stroke-width:2px"/><path d="M30,8v2.4a11.67,11.67,0,0,1-1.663,6h0a1.891,1.891,0,0,0,1.621,2.865h0a1.891,1.891,0,0,0,1.692-1.046l2.286-4.572a11.7,11.7,0,0,0,.884-2.389l.527-2.108A.932.932,0,0,0,34.443,8Z" style="fill:none;stroke:#000;stroke-linejoin:round;stroke-width:2px"/><line x1="35" y1="31" x2="57" y2="31" style="fill:none;stroke:#000;stroke-linejoin:round;stroke-width:2px"/><line x1="27" y1="47" x2="57" y2="47" style="fill:none;stroke:#000;stroke-linejoin:round;stroke-width:2px"/><path d="M42,4h1.574A3.584,3.584,0,0,1,46.9,6.252L48,9" style="fill:none;stroke:#000;stroke-linejoin:round;stroke-width:2px"/><line x1="42" y1="13" x2="42" y2="16" style="fill:none;stroke:#000;stroke-linejoin:round;stroke-width:2px"/><line x1="46" y1="13" x2="46" y2="17" style="fill:none;stroke:#000;stroke-linejoin:round;stroke-width:2px"/><line x1="50" y1="13" x2="50" y2="16" style="fill:none;stroke:#000;stroke-linejoin:round;stroke-width:2px"/><line x1="21" y1="2" x2="19" y2="2" style="fill:none;stroke:#000;stroke-linejoin:round;stroke-width:2px"/><line x1="17" y1="2" x2="10" y2="2" style="fill:none;stroke:#000;stroke-linejoin:round;stroke-width:2px"/><line x1="8" y1="2" x2="6" y2="2" style="fill:none;stroke:#000;stroke-linejoin:round;stroke-width:2px"/><line x1="18" y1="7" x2="13" y2="7" style="fill:none;stroke:#000;stroke-linejoin:round;stroke-width:2px"/><line x1="9" y1="7" x2="7" y2="7" style="fill:none;stroke:#000;stroke-linejoin:round;stroke-width:2px"/><line x1="20" y1="7" x2="22" y2="7" style="fill:none;stroke:#000;stroke-linejoin:round;stroke-width:2px"/><line x1="38" y1="35" x2="54" y2="35" style="fill:none;stroke:#000;stroke-linejoin:round;stroke-width:2px"/><line x1="34" y1="39" x2="51" y2="39" style="fill:none;stroke:#000;stroke-linejoin:round;stroke-width:2px"/><line x1="36" y1="43" x2="54" y2="43" style="fill:none;stroke:#000;stroke-linejoin:round;stroke-width:2px"/><line x1="34" y1="43" x2="32" y2="43" style="fill:none;stroke:#000;stroke-linejoin:round;stroke-width:2px"/></g></svg>