<svg xmlns="http://www.w3.org/2000/svg" viewBox="0 0 64 64"><title>cleaning-clean-shower-water-toilet</title><g id="Layer_26" data-name="Layer 26"><path d="M34.5,48.182l-3.067,5.576A3.5,3.5,0,0,0,31,55.444V55.5A3.5,3.5,0,0,0,34.5,59h0A3.5,3.5,0,0,0,38,55.5v-.056a3.5,3.5,0,0,0-.433-1.686Z" style="fill:none;stroke:#231f20;stroke-linejoin:round;stroke-width:2px"/><path d="M20.5,52.182l-3.067,5.576A3.5,3.5,0,0,0,17,59.444V59.5A3.5,3.5,0,0,0,20.5,63h0A3.5,3.5,0,0,0,24,59.5v-.056a3.5,3.5,0,0,0-.433-1.686Z" style="fill:none;stroke:#231f20;stroke-linejoin:round;stroke-width:2px"/><path d="M27,21h0A17,17,0,0,1,44,38v2a0,0,0,0,1,0,0H10a0,0,0,0,1,0,0V38A17,17,0,0,1,27,21Z" style="fill:none;stroke:#231f20;stroke-linejoin:round;stroke-width:2px"/><polygon points="56 16.789 63 21 63 1 56 5.211 56 16.789" style="fill:none;stroke:#231f20;stroke-linejoin:round;stroke-width:2px"/><rect x="52" y="5" width="4" height="12" style="fill:none;stroke:#231f20;stroke-linejoin:round;stroke-width:2px"/><path d="M52,8H27a3,3,0,0,0-3,3V21h7V14H52Z" style="fill:none;stroke:#231f20;stroke-linejoin:round;stroke-width:2px"/><rect x="7" y="40" width="40" height="5" rx="2.5" style="fill:none;stroke:#231f20;stroke-linejoin:round;stroke-width:2px"/><path d="M32,27a7,7,0,0,1,7,7" style="fill:none;stroke:#231f20;stroke-linejoin:round;stroke-width:2px"/></g></svg>