<svg xmlns="http://www.w3.org/2000/svg" viewBox="0 0 64 64"><title>cleaning-clean-hygiene-cloth-wash-laundry-shirt</title><g id="_08-cloth" data-name="08-cloth"><path d="M62.41,24.34,58.22,35.88H48.78V60H15.22V35.88H5.78L1.59,24.34,24.66,17v.52a7.34,7.34,0,1,0,14.68,0V17Z" style="fill:#898890"/><path d="M27,22.89V60H15.22V35.88H5.78L1.59,24.34,24.66,17v.52A7.313,7.313,0,0,0,27,22.89Z" style="fill:#3e3d42"/><path d="M48.78,60V35.878h9.44l4.2-11.537L39.341,17v.524a7.341,7.341,0,1,1-14.682,0V17L1.585,24.341l4.2,11.537h9.44V60Z" style="fill:none;stroke:#000;stroke-linejoin:round;stroke-width:2px"/><path d="M43,29v5.326A2.674,2.674,0,0,1,40.326,37H37.674A2.674,2.674,0,0,1,35,34.326V29Z" style="fill:#fff5cc"/><path d="M38,34.326V29H35v5.326A2.674,2.674,0,0,0,37.674,37h2.652c.059,0,.115-.014.174-.018A2.666,2.666,0,0,1,38,34.326Z" style="fill:#ffb655"/><circle cx="57" cy="60" r="3" style="fill:#b3d8f4"/><path d="M56,60a2.99,2.99,0,0,1,2-2.816A2.962,2.962,0,0,0,57,57a3,3,0,0,0,0,6,2.962,2.962,0,0,0,1-.184A2.99,2.99,0,0,1,56,60Z" style="fill:#57a4ff"/><circle cx="57" cy="7" r="6" style="fill:#b3d8f4"/><path d="M54,7a6,6,0,0,1,4.5-5.8,6,6,0,1,0,0,11.606A6,6,0,0,1,54,7Z" style="fill:#57a4ff"/><circle cx="6" cy="46" r="5" style="fill:#b3d8f4"/><path d="M4,46a4.985,4.985,0,0,1,3.5-4.746A4.966,4.966,0,0,0,6,41,5,5,0,0,0,6,51a4.966,4.966,0,0,0,1.5-.254A4.985,4.985,0,0,1,4,46Z" style="fill:#57a4ff"/><circle cx="11" cy="9" r="4" style="fill:#b3d8f4"/><path d="M10,9a4,4,0,0,1,2.5-3.7,4,4,0,1,0,0,7.406A4,4,0,0,1,10,9Z" style="fill:#57a4ff"/><polyline points="25 17 30 15 34 15 39 17" style="fill:none;stroke:#000;stroke-linejoin:round;stroke-width:2px"/><path d="M32,15V7a3,3,0,0,0-3-3h0a3,3,0,0,0-3,3V8" style="fill:none;stroke:#000;stroke-linejoin:round;stroke-width:2px"/><path d="M16,20h0a14.311,14.311,0,0,1,.085,14.048L15,36" style="fill:none;stroke:#000;stroke-linejoin:round;stroke-width:2px"/><path d="M47.885,20h0A14.308,14.308,0,0,0,47.8,34.048L48.885,36" style="fill:none;stroke:#000;stroke-linejoin:round;stroke-width:2px"/><circle cx="57" cy="7" r="6" style="fill:none;stroke:#000;stroke-linejoin:round;stroke-width:2px"/><path d="M60,7a3,3,0,0,1-3,3" style="fill:none;stroke:#000;stroke-linejoin:round;stroke-width:2px"/><circle cx="6" cy="46" r="5" style="fill:none;stroke:#000;stroke-linejoin:round;stroke-width:2px"/><path d="M8,46a2,2,0,0,1-2,2" style="fill:none;stroke:#000;stroke-linejoin:round;stroke-width:2px"/><circle cx="11" cy="9" r="4" style="fill:none;stroke:#000;stroke-linejoin:round;stroke-width:2px"/><circle cx="57" cy="60" r="3" style="fill:none;stroke:#000;stroke-linejoin:round;stroke-width:2px"/><path d="M43,29v5.326A2.674,2.674,0,0,1,40.326,37H37.674A2.674,2.674,0,0,1,35,34.326V29Z" style="fill:none;stroke:#000;stroke-linejoin:round;stroke-width:2px"/></g></svg>