<svg xmlns="http://www.w3.org/2000/svg" viewBox="0 0 64 64"><title>clenaing-clean-sponge-wash-hygiene-shower</title><g id="_10-sponge" data-name="10-sponge"><circle cx="4" cy="4" r="3" style="fill:#b3d8f4"/><path d="M3,4A2.99,2.99,0,0,1,5,1.184,2.962,2.962,0,0,0,4,1,3,3,0,0,0,4,7a2.962,2.962,0,0,0,1-.184A2.99,2.99,0,0,1,3,4Z" style="fill:#57a4ff"/><path d="M2,22c0,7,7.462,22.333,16.667,22.333A21.088,21.088,0,0,0,25.25,43.3a21.691,21.691,0,0,1,13.5,0,21.088,21.088,0,0,0,6.583,1.032C54.538,44.333,62,29,62,22" style="fill:#ffd399"/><path d="M17,22H2c0,7,7.462,22.333,16.667,22.333A21.088,21.088,0,0,0,25.25,43.3a21.617,21.617,0,0,1,2.978-.736C21.7,38.335,17,27.548,17,22Z" style="fill:#b2782a"/><path d="M50,9.5A21.659,21.659,0,0,0,45.333,9a21.088,21.088,0,0,0-6.583,1.032,21.691,21.691,0,0,1-13.5,0A21.088,21.088,0,0,0,18.667,9C9.462,9,2,14.671,2,21.667S9.462,34.333,18.667,34.333A21.088,21.088,0,0,0,25.25,33.3a21.691,21.691,0,0,1,13.5,0,21.088,21.088,0,0,0,6.583,1.032c9.2,0,16.667-5.671,16.667-12.666a10.673,10.673,0,0,0-3-7.252" style="fill:#fff5cc"/><path d="M11,21.667c0-5.806,5.146-10.688,12.156-12.185A21.478,21.478,0,0,0,18.667,9C9.462,9,2,14.671,2,21.667S9.462,34.333,18.667,34.333a21.478,21.478,0,0,0,4.489-.482C16.146,32.355,11,27.473,11,21.667Z" style="fill:#ffb655"/><circle cx="43" cy="15" r="2" style="fill:#898890"/><circle cx="21" cy="28" r="2" style="fill:#c6c5ca"/><circle cx="52" cy="24" r="3" style="fill:#c6c5ca"/><path d="M51,24a2.99,2.99,0,0,1,2-2.816A2.962,2.962,0,0,0,52,21a3,3,0,0,0,0,6,2.962,2.962,0,0,0,1-.184A2.99,2.99,0,0,1,51,24Z" style="fill:#898890"/><circle cx="36.5" cy="24.5" r="3.5" style="fill:#898890"/><path d="M35,24.5a3.488,3.488,0,0,1,2.5-3.337,3.449,3.449,0,0,0-1-.163,3.5,3.5,0,0,0,0,7,3.449,3.449,0,0,0,1-.163A3.488,3.488,0,0,1,35,24.5Z" style="fill:#3e3d42"/><circle cx="14.5" cy="18.5" r="4.5" style="fill:#c6c5ca"/><path d="M13,18.5a4.486,4.486,0,0,1,3-4.224A4.445,4.445,0,0,0,14.5,14a4.5,4.5,0,0,0,0,9,4.445,4.445,0,0,0,1.5-.276A4.486,4.486,0,0,1,13,18.5Z" style="fill:#898890"/><circle cx="56" cy="9" r="6" style="fill:#b3d8f4"/><path d="M54,9a6,6,0,0,1,4-5.651,6,6,0,1,0,0,11.3A6,6,0,0,1,54,9Z" style="fill:#57a4ff"/><path d="M13.853,50.182l-3.634,6.607a4.141,4.141,0,0,0-.513,2v.066A4.147,4.147,0,0,0,13.853,63h0A4.147,4.147,0,0,0,18,58.853v-.066a4.152,4.152,0,0,0-.513-2Z" style="fill:#b3d8f4"/><path d="M14.853,60a4.145,4.145,0,0,1-4.143-4.1l-.491.893a4.141,4.141,0,0,0-.513,2v.066a4.147,4.147,0,0,0,8.294,0v-.066c0-.081-.01-.162-.015-.243A4.121,4.121,0,0,1,14.853,60Z" style="fill:#57a4ff"/><path d="M55.5,47.182l-3.067,5.576A3.5,3.5,0,0,0,52,54.444V54.5A3.5,3.5,0,0,0,55.5,58h0A3.5,3.5,0,0,0,59,54.5v-.056a3.5,3.5,0,0,0-.433-1.686Z" style="fill:#b3d8f4"/><path d="M56.5,55a3.491,3.491,0,0,1-3.481-3.308l-.586,1.066A3.5,3.5,0,0,0,52,54.444V54.5a3.5,3.5,0,0,0,7,0v-.056A3.522,3.522,0,0,0,58.944,54,3.485,3.485,0,0,1,56.5,55Z" style="fill:#57a4ff"/><path d="M50,9.5A21.659,21.659,0,0,0,45.333,9a21.088,21.088,0,0,0-6.583,1.032,21.691,21.691,0,0,1-13.5,0A21.088,21.088,0,0,0,18.667,9C9.462,9,2,14.671,2,21.667S9.462,34.333,18.667,34.333A21.088,21.088,0,0,0,25.25,33.3a21.691,21.691,0,0,1,13.5,0,21.088,21.088,0,0,0,6.583,1.032c9.2,0,16.667-5.671,16.667-12.666a10.673,10.673,0,0,0-3-7.252" style="fill:none;stroke:#000;stroke-miterlimit:10;stroke-width:2px"/><path d="M2,22c0,7,7.462,22.333,16.667,22.333A21.088,21.088,0,0,0,25.25,43.3a21.691,21.691,0,0,1,13.5,0,21.088,21.088,0,0,0,6.583,1.032C54.538,44.333,62,29,62,22" style="fill:none;stroke:#000;stroke-miterlimit:10;stroke-width:2px"/><circle cx="14.5" cy="18.5" r="4.5" style="fill:none;stroke:#000;stroke-miterlimit:10;stroke-width:2px"/><circle cx="43" cy="15" r="2" style="fill:none;stroke:#000;stroke-miterlimit:10;stroke-width:2px"/><circle cx="21" cy="28" r="2" style="fill:none;stroke:#000;stroke-miterlimit:10;stroke-width:2px"/><circle cx="52" cy="24" r="3" style="fill:none;stroke:#000;stroke-miterlimit:10;stroke-width:2px"/><circle cx="36.5" cy="24.5" r="3.5" style="fill:none;stroke:#000;stroke-miterlimit:10;stroke-width:2px"/><path d="M13.853,50.182l-3.634,6.607a4.141,4.141,0,0,0-.513,2v.066A4.147,4.147,0,0,0,13.853,63h0A4.147,4.147,0,0,0,18,58.853v-.066a4.152,4.152,0,0,0-.513-2Z" style="fill:none;stroke:#000;stroke-linejoin:round;stroke-width:2px"/><path d="M55.5,47.182l-3.067,5.576A3.5,3.5,0,0,0,52,54.444V54.5A3.5,3.5,0,0,0,55.5,58h0A3.5,3.5,0,0,0,59,54.5v-.056a3.5,3.5,0,0,0-.433-1.686Z" style="fill:none;stroke:#000;stroke-linejoin:round;stroke-width:2px"/><circle cx="4" cy="4" r="3" style="fill:none;stroke:#000;stroke-linejoin:round;stroke-width:2px"/><circle cx="56" cy="9" r="6" style="fill:none;stroke:#000;stroke-linejoin:round;stroke-width:2px"/><path d="M56,6a3,3,0,0,1,3,3" style="fill:none;stroke:#000;stroke-linejoin:round;stroke-width:2px"/></g></svg>