<svg xmlns="http://www.w3.org/2000/svg" viewBox="0 0 64 64"><title>clenaing-clean-sponge-wash-hygiene</title><g id="Layer_10" data-name="Layer 10"><path d="M50,9.5A21.659,21.659,0,0,0,45.333,9a21.088,21.088,0,0,0-6.583,1.032,21.691,21.691,0,0,1-13.5,0A21.088,21.088,0,0,0,18.667,9C9.462,9,2,14.671,2,21.667S9.462,34.333,18.667,34.333A21.088,21.088,0,0,0,25.25,33.3a21.691,21.691,0,0,1,13.5,0,21.088,21.088,0,0,0,6.583,1.032c9.2,0,16.667-5.671,16.667-12.666a10.673,10.673,0,0,0-3-7.252" style="fill:none;stroke:#231f20;stroke-miterlimit:10;stroke-width:2px"/><path d="M2,22c0,7,7.462,22.333,16.667,22.333A21.088,21.088,0,0,0,25.25,43.3a21.691,21.691,0,0,1,13.5,0,21.088,21.088,0,0,0,6.583,1.032C54.538,44.333,62,29,62,22" style="fill:none;stroke:#231f20;stroke-miterlimit:10;stroke-width:2px"/><circle cx="14.5" cy="18.5" r="4.5" style="fill:none;stroke:#231f20;stroke-miterlimit:10;stroke-width:2px"/><circle cx="43" cy="15" r="2" style="fill:none;stroke:#231f20;stroke-miterlimit:10;stroke-width:2px"/><circle cx="21" cy="28" r="2" style="fill:none;stroke:#231f20;stroke-miterlimit:10;stroke-width:2px"/><circle cx="52" cy="24" r="3" style="fill:none;stroke:#231f20;stroke-miterlimit:10;stroke-width:2px"/><circle cx="36.5" cy="24.5" r="3.5" style="fill:none;stroke:#231f20;stroke-miterlimit:10;stroke-width:2px"/><path d="M13.853,49.182l-3.634,6.607a4.141,4.141,0,0,0-.513,2v.066A4.147,4.147,0,0,0,13.853,62h0A4.147,4.147,0,0,0,18,57.853v-.066a4.152,4.152,0,0,0-.513-2Z" style="fill:none;stroke:#231f20;stroke-linejoin:round;stroke-width:2px"/><path d="M55.5,47.182l-3.067,5.576A3.5,3.5,0,0,0,52,54.444V54.5A3.5,3.5,0,0,0,55.5,58h0A3.5,3.5,0,0,0,59,54.5v-.056a3.5,3.5,0,0,0-.433-1.686Z" style="fill:none;stroke:#231f20;stroke-linejoin:round;stroke-width:2px"/><circle cx="5" cy="5" r="3" style="fill:none;stroke:#231f20;stroke-linejoin:round;stroke-width:2px"/><circle cx="56" cy="9" r="6" style="fill:none;stroke:#231f20;stroke-linejoin:round;stroke-width:2px"/><path d="M57,6a2,2,0,0,1,2,2" style="fill:none;stroke:#231f20;stroke-linejoin:round;stroke-width:2px"/></g></svg>