<?xml version="1.0" encoding="utf-8"?>
<!-- Generator: Adobe Illustrator 16.0.0, SVG Export Plug-In . SVG Version: 6.00 Build 0)  -->
<!DOCTYPE svg PUBLIC "-//W3C//DTD SVG 1.0//EN" "http://www.w3.org/TR/2001/REC-SVG-20010904/DTD/svg10.dtd">
<svg version="1.0" id="Layer_1" xmlns="http://www.w3.org/2000/svg" xmlns:xlink="http://www.w3.org/1999/xlink" x="0px" y="0px"
	 width="100px" height="100px" viewBox="0 0 100 100" enable-background="new 0 0 100 100" xml:space="preserve">
<path d="M50,10.001c-22.09,0-40,17.908-40,40c0,22.093,17.91,39.998,40,39.998c22.093,0,40-17.905,40-39.998
	C90,27.909,72.093,10.001,50,10.001z M50,83.333c-18.411,0-33.333-14.921-33.333-33.332c0-18.41,14.922-33.333,33.333-33.333
	s33.333,14.923,33.333,33.333C83.333,68.412,68.411,83.333,50,83.333z"/>
<path d="M53.333,46.668V23.334h-6.666v26.667c0,1.843,1.49,3.333,3.333,3.333h26.667v-6.666H53.333z"/>
<circle cx="50" cy="73.334" r="3.333"/>
<circle cx="26.667" cy="50.001" r="3.333"/>
</svg>
