<?xml version="1.0" encoding="utf-8"?>
<!-- Generator: Adobe Illustrator 16.0.0, SVG Export Plug-In . SVG Version: 6.00 Build 0)  -->
<!DOCTYPE svg PUBLIC "-//W3C//DTD SVG 1.0//EN" "http://www.w3.org/TR/2001/REC-SVG-20010904/DTD/svg10.dtd">
<svg version="1.0" id="Layer_1" xmlns="http://www.w3.org/2000/svg" xmlns:xlink="http://www.w3.org/1999/xlink" x="0px" y="0px"
	 width="100px" height="100px" viewBox="0 0 100 100" enable-background="new 0 0 100 100" xml:space="preserve">
<path d="M53.333,46.667V23.333h-6.666V50c0,1.842,1.49,3.334,3.333,3.334h21.667v-6.667H53.333z"/>
<circle cx="26.667" cy="50" r="3.333"/>
<path d="M41.667,87.5c0-1.762,0.264-3.457,0.729-5.072C27.656,78.984,16.667,65.791,16.667,50c0-18.408,14.922-33.333,33.333-33.333
	S83.333,31.592,83.333,50c0,3.49-0.54,6.852-1.536,10.014l5.195,5.195C88.919,60.518,90,55.387,90,50c0-22.09-17.907-40-40-40
	c-22.09,0-40,17.91-40,40c0,19.234,13.577,35.283,31.667,39.117V87.5z"/>
<path d="M89.023,74.311L78.047,63.334l-3.542,3.535l7.299,7.297H60c-7.363,0-13.333,5.971-13.333,13.334V90h5v-2.5
	c0-4.604,3.73-8.334,8.333-8.334h21.81l-7.298,7.299L78.044,90l10.979-10.977C90.325,77.721,90.325,75.611,89.023,74.311z"/>
</svg>
