<svg id="Filled_stroke_cut_Ex_Revise" data-name="Filled stroke cut Ex Revise" xmlns="http://www.w3.org/2000/svg" width="512" height="512" viewBox="0 0 512 512">
  <title>clown- spooky- character- cosplay- halloween- avatar- horror</title>
  <path d="M379.088,299.217a48.021,48.021,0,0,0,64.485-63.377,48.015,48.015,0,0,0,7.733-83.322A48,48,0,0,0,416,72a48.32,48.32,0,0,0-8,.665q0-.332,0-.665a48,48,0,0,0-83.29-32.536,160.379,160.379,0,0,0-137.42,0A48,48,0,0,0,104,72q0,.333,0,.665A48.039,48.039,0,0,0,48,120a47.827,47.827,0,0,0,12.694,32.518,48.015,48.015,0,0,0,7.733,83.322,48.019,48.019,0,0,0,64.485,63.376Z" style="fill: #fdbf44"/>
  <g>
    <path d="M87.958,394.438l-13.38,5.912A30,30,0,0,0,56,428.091V488H456V428.091a30,30,0,0,0-18.578-27.741l-11.405-5.039Z" style="fill: #e6e6e6"/>
    <path d="M310.824,320a160.005,160.005,0,0,1,63.617,13.191L464,372l-21.333,16a40,40,0,0,1-24,8H408l-37.152,26.537a30,30,0,0,1-36.642-1.366l-5.947-4.955a30,30,0,0,0-43.206,5.046L280,428a30,30,0,0,1-48,0l-5.053-6.738a30,30,0,0,0-43.206-5.046l-5.947,4.955a30,30,0,0,1-36.642,1.366L104,396H93.333a40,40,0,0,1-24-8L48,372l89.559-38.809A160.005,160.005,0,0,1,201.176,320Z" style="fill: #e64b30"/>
    <path d="M323.741,124.9,274.57,144.572a50,50,0,0,1-37.14,0L188.259,124.9a40,40,0,0,0-54.815,35.323L128,280a40,40,0,0,0,40,40h32l33.648,22.673a40,40,0,0,0,44.7,0L312,320h32a40,40,0,0,0,40-40l-5.444-119.774A40,40,0,0,0,323.741,124.9Z" style="fill: #e6e6e6"/>
    <path d="M169.1,185.652A32,32,0,1,0,224,208q0-.623-.024-1.24Z" style="fill: #fdbf44"/>
    <path d="M342.9,185.652A32,32,0,1,1,288,208q0-.623.024-1.24Z" style="fill: #fdbf44"/>
    <path d="M208,280l28.794,24a30,30,0,0,0,38.412,0L304,280Z" style="fill: #fdbf44"/>
  </g>
  <ellipse cx="256" cy="260" rx="24" ry="20" style="fill: #e64b30"/>
  <g>
    <path d="M467.181,364.659l-39.717-17.211L421.1,362.13l27.079,11.734L437.867,381.6a32.2,32.2,0,0,1-19.2,6.4H408a8,8,0,0,0-4.65,1.49L366.2,416.027a22.01,22.01,0,0,1-26.872-1l-5.947-4.956a38,38,0,0,0-54.726,6.392L273.6,423.2a22,22,0,0,1-35.2,0l-5.052-6.736a38,38,0,0,0-54.727-6.393l-5.947,4.956a22.008,22.008,0,0,1-26.871,1L108.65,389.49A8,8,0,0,0,104,388H93.333a32.194,32.194,0,0,1-19.2-6.4l-10.315-7.736,76.921-33.332a151.021,151.021,0,0,1,56.879-12.49l16.823,11.335L200.41,381.47l15.18,5.06,12.624-37.872.964.65a47.809,47.809,0,0,0,53.645,0l.963-.649L296.41,386.53l15.18-5.06-14.031-42.092,16.823-11.336a151.021,151.021,0,0,1,56.879,12.49l33.724,14.614,6.362-14.681-33.725-14.614q-5.015-2.173-10.121-4.008a48.367,48.367,0,0,0,14.65-12.745,56.051,56.051,0,0,0,71.4-69.524,56.008,56.008,0,0,0,8.9-88.286A56.008,56.008,0,0,0,415.431,64a56,56,0,0,0-92.372-34.085,168.509,168.509,0,0,0-134.118,0A56,56,0,0,0,96.569,64,55.8,55.8,0,0,0,62.63,75.024l9.541,12.844A39.674,39.674,0,0,1,96,80a40.557,40.557,0,0,1,6.682.555,8,8,0,0,0,9.322-8l0-.56a40,40,0,0,1,69.408-27.112,8.005,8.005,0,0,0,9.321,1.8,152.38,152.38,0,0,1,130.542,0,8,8,0,0,0,9.321-1.8A40,40,0,0,1,400,72l0,.56a8,8,0,0,0,9.322,8A40.548,40.548,0,0,1,416,80a40,40,0,0,1,29.423,67.1,8,8,0,0,0,1.327,12,40.014,40.014,0,0,1-6.442,69.441,8,8,0,0,0-3.994,10.668A39.642,39.642,0,0,1,440,256a40.052,40.052,0,0,1-50.292,38.669A47.825,47.825,0,0,0,392,280c0-.121,0-.242-.008-.363l-5.444-119.774a48,48,0,0,0-65.777-42.387L271.6,137.145a41.829,41.829,0,0,1-31.2,0l-49.172-19.669a48,48,0,0,0-65.777,42.387l-5.444,119.774c0,.121-.008.242-.008.363a47.825,47.825,0,0,0,2.292,14.669A40.026,40.026,0,0,1,75.686,239.2a8,8,0,0,0-3.994-10.668A40.014,40.014,0,0,1,65.25,159.1a8,8,0,0,0,1.327-12,40.028,40.028,0,0,1-5.385-46.824l-13.91-7.9a56.047,56.047,0,0,0,2.267,58.919,56.008,56.008,0,0,0,8.9,88.286,56.049,56.049,0,0,0,71.4,69.524,48.367,48.367,0,0,0,14.65,12.745q-5.106,1.834-10.121,4.008L44.819,364.659A8,8,0,0,0,43.2,378.4l21.332,16q.843.631,1.711,1.224A37.857,37.857,0,0,0,48,428.091V488a8,8,0,0,0,8,8H456a8,8,0,0,0,8-8V428.091a37.854,37.854,0,0,0-18.243-32.467q.867-.593,1.71-1.224l21.333-16a8,8,0,0,0-1.619-13.741ZM200,312H168a32.037,32.037,0,0,1-32-31.828l5.437-119.582a32,32,0,0,1,43.851-28.259L234.459,152a57.744,57.744,0,0,0,43.081,0l49.172-19.669a32,32,0,0,1,43.851,28.259L376,280.172A32.037,32.037,0,0,1,344,312H312c-.07,0-.139,0-.208,0-.323,0-.645,0-.968,0v.087a8,8,0,0,0-3.3,1.278l-33.646,22.673a31.871,31.871,0,0,1-35.765,0l-33.647-22.673a8,8,0,0,0-3.3-1.278V312c-.323,0-.645,0-.968,0C200.139,312,200.07,312,200,312Zm234.188,95.668c.063.027.125.055.189.08A21.928,21.928,0,0,1,448,428.091V480H393.759l6.086-30.431-15.69-3.138L377.441,480H134.559l-6.714-33.569-15.69,3.138L118.241,480H64V428.091a21.928,21.928,0,0,1,13.623-20.343c.064-.025.126-.053.189-.08l9.247-4.087a47.294,47.294,0,0,0,6.274.419h8.1L136.5,429.047a38.014,38.014,0,0,0,46.413-1.73l5.947-4.956a22,22,0,0,1,31.685,3.7L225.6,432.8a38,38,0,0,0,60.8,0l5.055-6.739a22,22,0,0,1,31.684-3.7l5.947,4.956a38.014,38.014,0,0,0,46.414,1.73L410.563,404h8.1a47.294,47.294,0,0,0,6.274-.419Z"/>
    <path d="M232,208c0-.517-.01-1.03-.029-1.543a8,8,0,0,0-5.122-7.164l-20.364-7.832-51.236-22.772-6.5,14.622,9,4A40.005,40.005,0,1,0,232,208Zm-64,0a23.865,23.865,0,0,1,3.679-12.783l28.686,11.033,15.117,6.719A24,24,0,0,1,168,208Z"/>
    <path d="M320,248a40.018,40.018,0,0,0,34.248-60.689l9-4-6.5-14.622-51.236,22.772-20.364,7.832a8,8,0,0,0-5.122,7.163Q280,207.224,280,208A40.045,40.045,0,0,0,320,248Zm20.321-52.783a24,24,0,1,1-43.8,17.752l15.117-6.719Z"/>
    <path d="M231.673,310.141a37.991,37.991,0,0,0,48.653,0L306.9,288H328V272H284.909A24.982,24.982,0,0,0,288,260c0-15.439-14.355-28-32-28s-32,12.561-32,28a24.982,24.982,0,0,0,3.091,12H184v16h21.1Zm38.41-12.291a22,22,0,0,1-28.167,0L230.1,288H281.9ZM240,260c0-6.5,7.327-12,16-12s16,5.5,16,12-7.327,12-16,12S240,266.505,240,260Z"/>
  </g>
</svg>
