<?xml version="1.0" encoding="utf-8"?>
<!-- Generator: Adobe Illustrator 24.0.0, SVG Export Plug-In . SVG Version: 6.00 Build 0)  -->
<svg version="1.1" xmlns="http://www.w3.org/2000/svg" xmlns:xlink="http://www.w3.org/1999/xlink" x="0px" y="0px"
	 viewBox="0 0 256 256" enable-background="new 0 0 256 256" xml:space="preserve">
<g id="Layer_1">
</g>
<g id="Layer_2">
</g>
<g id="Layer_3">
</g>
<g id="Layer_4">
</g>
<g id="Layer_5">
</g>
<g id="Layer_6">
</g>
<g id="Layer_7">
</g>
<g id="Layer_8">
</g>
<g id="Layer_9">
</g>
<g id="Layer_10">
</g>
<g id="Layer_11">
</g>
<g id="Layer_12">
</g>
<g id="Layer_13">
</g>
<g id="Layer_14">
</g>
<g id="Layer_15">
</g>
<g id="Layer_16">
</g>
<g id="Layer_17">
</g>
<g id="Layer_18">
</g>
<g id="Layer_19">
</g>
<g id="Layer_20">
</g>
<g id="Layer_21">
</g>
<g id="Layer_22">
</g>
<g id="Layer_23">
</g>
<g id="Layer_24">
</g>
<g id="Layer_25">
</g>
<g id="Layer_26">
</g>
<g id="Layer_27">
</g>
<g id="Layer_28">
</g>
<g id="Layer_29">
</g>
<g id="Layer_30">
</g>
<g id="Layer_31">
</g>
<g id="Layer_32">
</g>
<g id="Layer_33">
</g>
<g id="Layer_34">
</g>
<g id="Layer_35">
</g>
<g id="Layer_36">
</g>
<g id="Layer_37">
</g>
<g id="Layer_38">
</g>
<g id="Layer_39">
</g>
<g id="Layer_40">
</g>
<g id="Layer_41">
</g>
<g id="Layer_42">
</g>
<g id="Layer_43">
</g>
<g id="Layer_44">
</g>
<g id="Layer_45">
</g>
<g id="Layer_46">
</g>
<g id="Layer_47">
</g>
<g id="Layer_48">
</g>
<g id="Layer_49">
</g>
<g id="Layer_50">
</g>
<g id="Layer_51">
</g>
<g id="Layer_52">
</g>
<g id="Layer_53">
</g>
<g id="Layer_54">
</g>
<g id="Layer_55">
</g>
<g id="Layer_56">
</g>
<g id="Layer_57">
</g>
<g id="Layer_58">
</g>
<g id="Layer_59">
</g>
<g id="Layer_60">
</g>
<g id="Layer_61">
</g>
<g id="Layer_62">
</g>
<g id="Layer_63">
</g>
<g id="Layer_64">
</g>
<g id="Layer_65">
</g>
<g id="Layer_66">
</g>
<g id="Layer_67">
</g>
<g id="Layer_68">
</g>
<g id="Layer_69">
</g>
<g id="Layer_70">
</g>
<g id="Layer_71">
</g>
<g id="Layer_72">
</g>
<g id="Layer_73">
</g>
<g id="Layer_74">
</g>
<g id="Layer_75">
</g>
<g id="Layer_76">
</g>
<g id="Layer_77">
</g>
<g id="Layer_78">
</g>
<g id="Layer_79">
</g>
<g id="Layer_80">
	<g>
		<g>
			<g>
				<path fill="#5290DB" d="M220.345,36.238H35.655c-7.65,0-13.852,6.202-13.852,13.852v145.872h212.395V50.09
					C234.197,42.439,227.996,36.238,220.345,36.238z"/>
			</g>
		</g>
		<g>
			<g>
				<path fill="#818182" d="M220.281,46.729H35.719c-1.892,0-3.426,1.534-3.426,3.426v145.807h191.413V50.155
					C223.707,48.263,222.173,46.729,220.281,46.729z"/>
			</g>
		</g>
		<g>
			<g>
				<path fill="#DAE6F1" d="M220.281,46.729H35.719c-1.892,0-3.426,1.534-3.426,3.426v10.736h191.413V50.155
					C223.707,48.263,222.173,46.729,220.281,46.729z"/>
			</g>
		</g>
		<g>
			<g>
				<path fill="#FC657E" d="M35.719,46.729c-1.892,0-3.426,1.534-3.426,3.426v10.736H52.75V46.729H35.719z"/>
			</g>
		</g>
		<g>
			<g>
				<path d="M220.346,33.738H35.654c-9.017,0-16.352,7.335-16.352,16.352v144.785c0,1.381,1.119,2.5,2.5,2.5s2.5-1.119,2.5-2.5
					V50.09c0-6.26,5.093-11.352,11.352-11.352h184.691c6.259,0,11.352,5.092,11.352,11.352v144.827c0,1.381,1.119,2.5,2.5,2.5
					s2.5-1.119,2.5-2.5V50.09C236.697,41.073,229.362,33.738,220.346,33.738z"/>
			</g>
		</g>
		<g>
			<g>
				<path d="M220.28,44.229H35.72c-3.268,0-5.927,2.658-5.927,5.926v144.763c0,1.381,1.119,2.5,2.5,2.5s2.5-1.119,2.5-2.5V50.154
					c0-0.511,0.416-0.926,0.927-0.926H220.28c0.511,0,0.927,0.415,0.927,0.926v144.763c0,1.381,1.119,2.5,2.5,2.5s2.5-1.119,2.5-2.5
					V50.154C226.207,46.887,223.548,44.229,220.28,44.229z"/>
			</g>
		</g>
		<g>
			<g>
				<path d="M52.75,45.215c-1.381,0-2.5,1.119-2.5,2.5v12.237c0,1.381,1.119,2.5,2.5,2.5s2.5-1.119,2.5-2.5V47.715
					C55.25,46.334,54.131,45.215,52.75,45.215z"/>
			</g>
		</g>
		<g>
			<g>
				<path d="M223,58.391H34c-1.381,0-2.5,1.119-2.5,2.5s1.119,2.5,2.5,2.5h189c1.381,0,2.5-1.119,2.5-2.5S224.381,58.391,223,58.391
					z"/>
			</g>
		</g>
		<g>
			<g>
				<path fill="#F5C84C" d="M156.85,11.45c-4.5-0.8-8-4.3-8.9-8.7c0-0.2-0.4-0.2-0.4,0c-0.9,4.4-4.4,7.9-8.9,8.7
					c-0.2,0-0.2,0.3,0,0.4c4.5,0.8,8,4.3,8.9,8.7c0,0.2,0.4,0.2,0.4,0c0.9-4.4,4.4-7.9,8.9-8.7
					C157.05,11.75,157.05,11.45,156.85,11.45z"/>
			</g>
		</g>
		<g>
			<g>
				<path fill="#87D147" d="M173.8,18.6c-1.878,0-3.4,1.522-3.4,3.4s1.522,3.4,3.4,3.4c1.878,0,3.4-1.522,3.4-3.4
					S175.678,18.6,173.8,18.6z"/>
			</g>
		</g>
		<g>
			<g>
				<circle fill="#70D6F9" cx="128" cy="128" r="48.125"/>
			</g>
		</g>
		<g>
			<g>
				<path fill="#EDF4FC" d="M136.48,106.525c-2.55-1.062-5.476,0.144-6.538,2.692l-14.047,33.719
					c-1.063,2.549,0.144,5.477,2.692,6.538c2.554,1.063,5.479-0.147,6.538-2.692l14.047-33.719
					C140.235,110.515,139.029,107.587,136.48,106.525z"/>
			</g>
		</g>
		<g>
			<g>
				<path fill="#EDF4FC" d="M161.87,124.571l-12.527-13.293c-1.893-2.009-5.058-2.104-7.067-0.21s-2.104,5.059-0.21,7.067
					l9.296,9.864l-9.296,9.864c-1.894,2.009-1.8,5.174,0.21,7.067c2.01,1.896,5.175,1.798,7.067-0.21l12.527-13.293
					C163.685,129.503,163.685,126.497,161.87,124.571z"/>
			</g>
		</g>
		<g>
			<g>
				<path fill="#EDF4FC" d="M104.639,128l9.296-9.864c1.894-2.009,1.8-5.174-0.21-7.067c-2.007-1.894-5.173-1.801-7.067,0.21
					L94.13,124.571c-1.815,1.926-1.815,4.932,0,6.857l12.527,13.293c1.894,2.01,5.059,2.104,7.067,0.21
					c2.01-1.894,2.104-5.059,0.21-7.067L104.639,128z"/>
			</g>
		</g>
		<g>
			<g>
				<path fill="#EDF4FC" d="M247.968,195.962H8.032c-3.055,0-5.532,2.477-5.532,5.532c0,10.752,8.716,19.468,19.468,19.468h212.063
					c10.752,0,19.468-8.716,19.468-19.468C253.5,198.438,251.023,195.962,247.968,195.962z"/>
			</g>
		</g>
		<g>
			<g>
				<path fill="#C7D7E5" d="M83.931,195.962v5.975c0,3.174,2.573,5.748,5.748,5.748h76.641c3.175,0,5.748-2.574,5.748-5.748v-5.975
					H83.931z"/>
			</g>
		</g>
		<g>
			<g>
				<g>
					<path d="M247.969,193.462H8.031c-4.429,0-8.031,3.604-8.031,8.032c0,12.113,9.855,21.968,21.969,21.968h212.063
						c12.113,0,21.969-9.854,21.969-21.968C256,197.065,252.397,193.462,247.969,193.462z M234.031,218.462H21.969
						C12.612,218.462,5,210.851,5,201.494c0-1.672,1.359-3.032,3.031-3.032h239.938c1.672,0,3.031,1.36,3.031,3.032
						C251,210.851,243.388,218.462,234.031,218.462z"/>
				</g>
			</g>
		</g>
		<g>
			<g>
				<path d="M172.068,194.438c-1.381,0-2.5,1.119-2.5,2.5v4.999c0,1.791-1.457,3.248-3.248,3.248H89.68
					c-1.791,0-3.248-1.457-3.248-3.248v-4.873c0-1.381-1.119-2.5-2.5-2.5s-2.5,1.119-2.5,2.5v4.873c0,4.548,3.7,8.248,8.248,8.248
					h76.641c4.548,0,8.248-3.7,8.248-8.248v-4.999C174.568,195.557,173.449,194.438,172.068,194.438z"/>
			</g>
		</g>
		<g>
			<g>
				<path fill="#70D6F9" d="M12.875,93.81c-3.157-0.561-5.613-3.017-6.245-6.104c0-0.14-0.281-0.14-0.281,0
					c-0.632,3.087-3.087,5.543-6.245,6.104c-0.14,0-0.14,0.21,0,0.281c3.157,0.562,5.613,3.017,6.245,6.104
					c0,0.14,0.281,0.14,0.281,0c0.631-3.087,3.087-5.543,6.245-6.104C13.016,94.02,13.016,93.81,12.875,93.81z"/>
			</g>
		</g>
		<g>
			<g>
				<path fill="#FC657E" d="M72.7,235.7h-2.3v-2.3c0-1.7-1.4-3.2-3.2-3.2c-1.8,0-3.2,1.4-3.2,3.2v2.3h-2.3c-1.7,0-3.2,1.4-3.2,3.2
					c0,1.8,1.4,3.2,3.2,3.2H64v2.3c0,1.7,1.4,3.2,3.2,3.2c1.8,0,3.2-1.4,3.2-3.2v-2.3h2.3c1.7,0,3.2-1.4,3.2-3.2
					C75.9,237.1,74.5,235.7,72.7,235.7z"/>
			</g>
		</g>
		<g>
			<g>
				<path fill="#F5C84C" d="M95.8,246.6c-1.878,0-3.4,1.522-3.4,3.4s1.522,3.4,3.4,3.4c1.878,0,3.4-1.522,3.4-3.4
					S97.678,246.6,95.8,246.6z"/>
			</g>
		</g>
		<g>
			<g>
				<path fill="#70D6F9" d="M245.8,168.6c-1.878,0-3.4,1.522-3.4,3.4s1.522,3.4,3.4,3.4c1.878,0,3.4-1.522,3.4-3.4
					S247.678,168.6,245.8,168.6z"/>
			</g>
		</g>
		<g>
			<g>
				<g>
					<g>
						<path d="M141.492,108.285c-0.763-1.853-2.201-3.298-4.051-4.068c-3.818-1.589-8.218,0.223-9.808,4.04l-14.047,33.718
							c-0.771,1.85-0.774,3.889-0.012,5.741c0.764,1.853,2.202,3.297,4.052,4.066c0.93,0.388,1.906,0.581,2.884,0.581
							c0.969,0,1.938-0.19,2.859-0.57c1.851-0.764,3.294-2.202,4.063-4.05l14.047-33.718
							C142.25,112.176,142.255,110.138,141.492,108.285z M136.864,112.103l-14.047,33.719c-0.257,0.615-0.737,1.095-1.354,1.35
							c-0.614,0.253-1.294,0.253-1.914-0.004c-0.616-0.257-1.096-0.738-1.351-1.356c-0.254-0.617-0.253-1.296,0.004-1.913
							l14.047-33.718c0.529-1.271,1.994-1.876,3.271-1.347c0.616,0.257,1.095,0.738,1.349,1.355
							C137.123,110.806,137.121,111.485,136.864,112.103z"/>
					</g>
				</g>
			</g>
		</g>
		<g>
			<g>
				<g>
					<g>
						<path d="M163.688,122.856l-12.527-13.292c-1.373-1.458-3.232-2.294-5.234-2.354c-1.987-0.034-3.908,0.665-5.366,2.038
							c-3.01,2.836-3.151,7.592-0.315,10.602l7.681,8.149l-7.681,8.15c-2.836,3.009-2.694,7.765,0.315,10.601
							c1.401,1.322,3.218,2.042,5.137,2.042c0.075,0,0.151-0.001,0.227-0.003c2.004-0.06,3.864-0.896,5.237-2.354l12.526-13.292
							C166.408,130.26,166.408,125.74,163.688,122.856z M160.05,129.714l-12.528,13.294c-0.457,0.486-1.077,0.765-1.745,0.784
							c-0.66,0.039-1.301-0.221-1.785-0.679c-0.001,0-0.001-0.001-0.001-0.001c-1.004-0.945-1.051-2.53-0.106-3.533l9.297-9.864
							c0.907-0.963,0.907-2.467,0-3.43l-9.297-9.863c-0.944-1.004-0.897-2.589,0.106-3.534c0.467-0.44,1.072-0.68,1.712-0.68
							c0.025,0,0.051,0,0.076,0.001c0.667,0.02,1.286,0.298,1.744,0.784l12.528,13.294
							C160.957,127.247,160.957,128.753,160.05,129.714z"/>
					</g>
				</g>
			</g>
		</g>
		<g>
			<g>
				<g>
					<g>
						<path d="M108.074,128l7.681-8.15c2.836-3.009,2.694-7.765-0.314-10.6c-1.456-1.374-3.4-2.076-5.364-2.04
							c-2.004,0.06-3.863,0.896-5.237,2.354l-12.526,13.292c-2.721,2.885-2.721,7.404-0.001,10.288l12.526,13.292
							c1.374,1.459,3.234,2.295,5.237,2.354c0.076,0.002,0.152,0.003,0.228,0.003c1.919,0,3.736-0.721,5.137-2.042
							c3.01-2.836,3.151-7.592,0.315-10.602L108.074,128z M112.009,143.113c-0.483,0.458-1.134,0.713-1.785,0.679
							c-0.668-0.02-1.288-0.298-1.745-0.784c-0.001,0-0.001-0.001-0.001-0.001l-12.528-13.294c-0.906-0.96-0.906-2.466,0.001-3.427
							l12.527-13.293c0.458-0.486,1.078-0.766,1.746-0.785c0.025-0.001,0.051-0.001,0.076-0.001c0.639,0,1.243,0.239,1.71,0.681
							c1.004,0.945,1.051,2.53,0.106,3.533l-9.297,9.864c-0.907,0.963-0.907,2.467,0,3.43l9.297,9.863
							C113.061,140.582,113.014,142.167,112.009,143.113z"/>
					</g>
				</g>
			</g>
		</g>
		<g>
			<g>
				<g>
					<path d="M128,77.375c-27.915,0-50.625,22.71-50.625,50.625s22.71,50.625,50.625,50.625s50.625-22.71,50.625-50.625
						S155.915,77.375,128,77.375z M128,173.625c-25.157,0-45.625-20.468-45.625-45.625S102.843,82.375,128,82.375
						s45.625,20.468,45.625,45.625S153.157,173.625,128,173.625z"/>
				</g>
			</g>
		</g>
		<g>
			<g>
				<path d="M207,76.5h-5.167c-1.381,0-2.5,1.119-2.5,2.5s1.119,2.5,2.5,2.5H207c1.381,0,2.5-1.119,2.5-2.5S208.381,76.5,207,76.5z"
					/>
			</g>
		</g>
		<g>
			<g>
				<path d="M193.822,76.5h-34.587c-1.381,0-2.5,1.119-2.5,2.5s1.119,2.5,2.5,2.5h34.587c1.381,0,2.5-1.119,2.5-2.5
					S195.203,76.5,193.822,76.5z"/>
			</g>
		</g>
		<g>
			<g>
				<path d="M96.766,76.5H71.875c-1.381,0-2.5,1.119-2.5,2.5s1.119,2.5,2.5,2.5h24.891c1.381,0,2.5-1.119,2.5-2.5
					S98.146,76.5,96.766,76.5z"/>
			</g>
		</g>
		<g>
			<g>
				<path d="M62.178,76.5H49c-1.381,0-2.5,1.119-2.5,2.5s1.119,2.5,2.5,2.5h13.178c1.381,0,2.5-1.119,2.5-2.5
					S63.559,76.5,62.178,76.5z"/>
			</g>
		</g>
		<g>
			<g>
				<path d="M207,88.688h-11.178c-1.381,0-2.5,1.119-2.5,2.5s1.119,2.5,2.5,2.5H207c1.381,0,2.5-1.119,2.5-2.5
					S208.381,88.688,207,88.688z"/>
			</g>
		</g>
		<g>
			<g>
				<path d="M187.667,88.688h-14.72c-1.381,0-2.5,1.119-2.5,2.5s1.119,2.5,2.5,2.5h14.72c1.381,0,2.5-1.119,2.5-2.5
					S189.048,88.688,187.667,88.688z"/>
			</g>
		</g>
		<g>
			<g>
				<path d="M83.053,88.688H62.108c-1.381,0-2.5,1.119-2.5,2.5s1.119,2.5,2.5,2.5h20.944c1.381,0,2.5-1.119,2.5-2.5
					S84.434,88.688,83.053,88.688z"/>
			</g>
		</g>
		<g>
			<g>
				<path d="M53.125,88.688H49c-1.381,0-2.5,1.119-2.5,2.5s1.119,2.5,2.5,2.5h4.125c1.381,0,2.5-1.119,2.5-2.5
					S54.506,88.688,53.125,88.688z"/>
			</g>
		</g>
		<g>
			<g>
				<path d="M207,100.875h-26.356c-1.381,0-2.5,1.119-2.5,2.5s1.119,2.5,2.5,2.5H207c1.381,0,2.5-1.119,2.5-2.5
					S208.381,100.875,207,100.875z"/>
			</g>
		</g>
		<g>
			<g>
				<path d="M75.356,100.875H49c-1.381,0-2.5,1.119-2.5,2.5s1.119,2.5,2.5,2.5h26.356c1.381,0,2.5-1.119,2.5-2.5
					S76.737,100.875,75.356,100.875z"/>
			</g>
		</g>
		<g>
			<g>
				<path d="M207,113.063h-22.219c-1.381,0-2.5,1.119-2.5,2.5s1.119,2.5,2.5,2.5H207c1.381,0,2.5-1.119,2.5-2.5
					S208.381,113.063,207,113.063z"/>
			</g>
		</g>
		<g>
			<g>
				<path d="M71.216,113.063h-4.341c-1.381,0-2.5,1.119-2.5,2.5s1.119,2.5,2.5,2.5h4.341c1.381,0,2.5-1.119,2.5-2.5
					S72.597,113.063,71.216,113.063z"/>
			</g>
		</g>
		<g>
			<g>
				<path d="M58.5,113.063H49c-1.381,0-2.5,1.119-2.5,2.5s1.119,2.5,2.5,2.5h9.5c1.381,0,2.5-1.119,2.5-2.5
					S59.881,113.063,58.5,113.063z"/>
			</g>
		</g>
		<g>
			<g>
				<path d="M207,125.25h-4.375c-1.381,0-2.5,1.119-2.5,2.5s1.119,2.5,2.5,2.5H207c1.381,0,2.5-1.119,2.5-2.5
					S208.381,125.25,207,125.25z"/>
			</g>
		</g>
		<g>
			<g>
				<path d="M194.125,125.25h-8c-1.381,0-2.5,1.119-2.5,2.5s1.119,2.5,2.5,2.5h8c1.381,0,2.5-1.119,2.5-2.5
					S195.506,125.25,194.125,125.25z"/>
			</g>
		</g>
		<g>
			<g>
				<path d="M69.875,125.25H49c-1.381,0-2.5,1.119-2.5,2.5s1.119,2.5,2.5,2.5h20.875c1.381,0,2.5-1.119,2.5-2.5
					S71.256,125.25,69.875,125.25z"/>
			</g>
		</g>
		<g>
			<g>
				<path d="M207,137.438h-22.108c-1.381,0-2.5,1.119-2.5,2.5s1.119,2.5,2.5,2.5H207c1.381,0,2.5-1.119,2.5-2.5
					S208.381,137.438,207,137.438z"/>
			</g>
		</g>
		<g>
			<g>
				<path d="M71.217,137.438H49c-1.381,0-2.5,1.119-2.5,2.5s1.119,2.5,2.5,2.5h22.217c1.381,0,2.5-1.119,2.5-2.5
					S72.598,137.438,71.217,137.438z"/>
			</g>
		</g>
		<g>
			<g>
				<path d="M207,149.625h-7.875c-1.381,0-2.5,1.119-2.5,2.5s1.119,2.5,2.5,2.5H207c1.381,0,2.5-1.119,2.5-2.5
					S208.381,149.625,207,149.625z"/>
			</g>
		</g>
		<g>
			<g>
				<path d="M190.175,149.625h-9.297c-1.381,0-2.5,1.119-2.5,2.5s1.119,2.5,2.5,2.5h9.297c1.381,0,2.5-1.119,2.5-2.5
					S191.556,149.625,190.175,149.625z"/>
			</g>
		</g>
		<g>
			<g>
				<path d="M75.122,149.625H62.667c-1.381,0-2.5,1.119-2.5,2.5s1.119,2.5,2.5,2.5h12.455c1.381,0,2.5-1.119,2.5-2.5
					S76.503,149.625,75.122,149.625z"/>
			</g>
		</g>
		<g>
			<g>
				<path d="M54,149.625h-5c-1.381,0-2.5,1.119-2.5,2.5s1.119,2.5,2.5,2.5h5c1.381,0,2.5-1.119,2.5-2.5S55.381,149.625,54,149.625z"
					/>
			</g>
		</g>
		<g>
			<g>
				<path d="M207,161.813h-17.75c-1.381,0-2.5,1.119-2.5,2.5s1.119,2.5,2.5,2.5H207c1.381,0,2.5-1.119,2.5-2.5
					S208.381,161.813,207,161.813z"/>
			</g>
		</g>
		<g>
			<g>
				<path d="M180.878,161.813h-7.527c-1.381,0-2.5,1.119-2.5,2.5s1.119,2.5,2.5,2.5h7.527c1.381,0,2.5-1.119,2.5-2.5
					S182.259,161.813,180.878,161.813z"/>
			</g>
		</g>
		<g>
			<g>
				<path d="M82.649,161.813H49c-1.381,0-2.5,1.119-2.5,2.5s1.119,2.5,2.5,2.5h33.649c1.381,0,2.5-1.119,2.5-2.5
					S84.03,161.813,82.649,161.813z"/>
			</g>
		</g>
		<g>
			<g>
				<path d="M207,174h-13.375c-1.381,0-2.5,1.119-2.5,2.5s1.119,2.5,2.5,2.5H207c1.381,0,2.5-1.119,2.5-2.5S208.381,174,207,174z"/>
			</g>
		</g>
		<g>
			<g>
				<path d="M184.781,174h-24.782c-1.381,0-2.5,1.119-2.5,2.5s1.119,2.5,2.5,2.5h24.782c1.381,0,2.5-1.119,2.5-2.5
					S186.162,174,184.781,174z"/>
			</g>
		</g>
		<g>
			<g>
				<path d="M96.001,174H86c-1.381,0-2.5,1.119-2.5,2.5s1.119,2.5,2.5,2.5h10.001c1.381,0,2.5-1.119,2.5-2.5S97.382,174,96.001,174z
					"/>
			</g>
		</g>
		<g>
			<g>
				<path d="M76.375,174H49c-1.381,0-2.5,1.119-2.5,2.5s1.119,2.5,2.5,2.5h27.375c1.381,0,2.5-1.119,2.5-2.5S77.756,174,76.375,174z
					"/>
			</g>
		</g>
	</g>
</g>
<g id="Layer_81">
</g>
<g id="Layer_82">
</g>
<g id="Layer_83">
</g>
<g id="Layer_84">
</g>
<g id="Layer_85">
</g>
<g id="Layer_86">
</g>
<g id="Layer_87">
</g>
<g id="Layer_88">
</g>
<g id="Layer_89">
</g>
<g id="Layer_90">
</g>
</svg>
