<?xml version="1.0" encoding="utf-8"?>
<!-- Generator: Adobe Illustrator 24.0.0, SVG Export Plug-In . SVG Version: 6.00 Build 0)  -->
<svg version="1.1" xmlns="http://www.w3.org/2000/svg" xmlns:xlink="http://www.w3.org/1999/xlink" x="0px" y="0px"
	 viewBox="0 0 256 256" enable-background="new 0 0 256 256" xml:space="preserve">
<g id="Layer_1">
</g>
<g id="Layer_2">
</g>
<g id="Layer_3">
</g>
<g id="Layer_4">
</g>
<g id="Layer_5">
</g>
<g id="Layer_6">
</g>
<g id="Layer_7">
</g>
<g id="Layer_8">
</g>
<g id="Layer_9">
</g>
<g id="Layer_10">
</g>
<g id="Layer_11">
</g>
<g id="Layer_12">
</g>
<g id="Layer_13">
</g>
<g id="Layer_14">
</g>
<g id="Layer_15">
</g>
<g id="Layer_16">
</g>
<g id="Layer_17">
</g>
<g id="Layer_18">
</g>
<g id="Layer_19">
</g>
<g id="Layer_20">
</g>
<g id="Layer_21">
</g>
<g id="Layer_22">
</g>
<g id="Layer_23">
</g>
<g id="Layer_24">
</g>
<g id="Layer_25">
</g>
<g id="Layer_26">
</g>
<g id="Layer_27">
</g>
<g id="Layer_28">
</g>
<g id="Layer_29">
</g>
<g id="Layer_30">
</g>
<g id="Layer_31">
</g>
<g id="Layer_32">
</g>
<g id="Layer_33">
</g>
<g id="Layer_34">
</g>
<g id="Layer_35">
</g>
<g id="Layer_36">
</g>
<g id="Layer_37">
</g>
<g id="Layer_38">
</g>
<g id="Layer_39">
</g>
<g id="Layer_40">
</g>
<g id="Layer_41">
</g>
<g id="Layer_42">
</g>
<g id="Layer_43">
</g>
<g id="Layer_44">
</g>
<g id="Layer_45">
</g>
<g id="Layer_46">
</g>
<g id="Layer_47">
</g>
<g id="Layer_48">
</g>
<g id="Layer_49">
</g>
<g id="Layer_50">
</g>
<g id="Layer_51">
</g>
<g id="Layer_52">
</g>
<g id="Layer_53">
</g>
<g id="Layer_54">
</g>
<g id="Layer_55">
</g>
<g id="Layer_56">
</g>
<g id="Layer_57">
</g>
<g id="Layer_58">
</g>
<g id="Layer_59">
</g>
<g id="Layer_60">
</g>
<g id="Layer_61">
</g>
<g id="Layer_62">
</g>
<g id="Layer_63">
</g>
<g id="Layer_64">
</g>
<g id="Layer_65">
</g>
<g id="Layer_66">
</g>
<g id="Layer_67">
	<g>
		<g>
			<g>
				<path fill="#818182" d="M194.487,206.958l9.888,9.888V69.84L158.52,23.985H54.357c-3.317,0-6.006,2.689-6.006,6.006V245.58
					c0,4.171,3.381,7.552,7.552,7.552h140.92c3.078,0,5.722-1.845,6.898-4.487l-25.461-25.461c-4.481-4.481-4.481-11.746,0-16.227
					C182.741,202.477,190.006,202.476,194.487,206.958z"/>
			</g>
		</g>
		<g>
			<g>
				<path fill="#5B5D60" d="M158.52,23.985v38.303c0,4.17,3.381,7.552,7.552,7.552h38.303L158.52,23.985z"/>
			</g>
		</g>
		<g>
			<g>
				<path fill="#FC657E" d="M221.074,233.544l-26.587-26.587c-4.481-4.481-11.746-4.481-16.227,0
					c-4.481,4.481-4.481,11.746,0,16.227l26.587,26.587c4.481,4.481,11.746,4.481,16.227,0h0
					C225.555,245.291,225.555,238.025,221.074,233.544z"/>
			</g>
		</g>
		<g>
			<g>
				<path fill="#DAE6F1" d="M172.769,191.73c-1.412,1.785-2.928,3.513-4.575,5.161s-3.376,3.163-5.161,4.575l11.993,11.993
					c0.336-2.378,1.405-4.673,3.234-6.502c1.829-1.829,4.124-2.898,6.502-3.235L172.769,191.73z"/>
			</g>
		</g>
		<g>
			<g>
				<circle fill="#EDF4FC" cx="126.422" cy="155.119" r="59.075"/>
			</g>
		</g>
		<g>
			<g>
				<circle fill="#70D6F9" cx="126.422" cy="155.119" r="47.604"/>
			</g>
		</g>
		<g>
			<g>
				<path fill="#EDF4FC" d="M160.87,151.571l-12.527-13.293c-1.893-2.009-5.058-2.104-7.067-0.21s-2.104,5.059-0.21,7.067
					l9.296,9.864l-9.296,9.864c-1.894,2.009-1.8,5.174,0.21,7.067c2.01,1.896,5.175,1.798,7.067-0.21l12.527-13.293
					C162.685,156.503,162.685,153.497,160.87,151.571z"/>
			</g>
		</g>
		<g>
			<g>
				<path fill="#EDF4FC" d="M103.639,155l9.296-9.864c1.894-2.009,1.8-5.174-0.21-7.067c-2.007-1.894-5.173-1.801-7.067,0.21
					L93.13,151.571c-1.815,1.926-1.815,4.932,0,6.857l12.527,13.293c1.894,2.01,5.059,2.104,7.067,0.21
					c2.01-1.894,2.104-5.059,0.21-7.067L103.639,155z"/>
			</g>
		</g>
		<g>
			<g>
				<path fill="#EDF4FC" d="M135.48,133.525c-2.55-1.062-5.476,0.144-6.538,2.692l-14.047,33.719
					c-1.063,2.549,0.144,5.477,2.692,6.538c2.554,1.063,5.478-0.147,6.538-2.692l14.047-33.719
					C139.235,137.515,138.029,134.587,135.48,133.525z"/>
			</g>
		</g>
		<g>
			<g>
				<path fill="#F5C84C" d="M199.8,23.396c-4.5-0.8-8-4.3-8.9-8.7c0-0.2-0.4-0.2-0.4,0c-0.9,4.4-4.4,7.9-8.9,8.7
					c-0.2,0-0.2,0.3,0,0.4c4.5,0.8,8,4.3,8.9,8.7c0,0.2,0.4,0.2,0.4,0c0.9-4.4,4.4-7.9,8.9-8.7C200,23.697,200,23.396,199.8,23.396z
					"/>
			</g>
		</g>
		<g>
			<g>
				<path fill="#70D6F9" d="M228.61,191.51c-3.158-0.561-5.613-3.017-6.245-6.104c0-0.14-0.281-0.14-0.281,0
					c-0.631,3.087-3.087,5.543-6.245,6.104c-0.14,0-0.14,0.211,0,0.281c3.158,0.561,5.613,3.017,6.245,6.104
					c0,0.14,0.281,0.14,0.281,0c0.631-3.087,3.087-5.543,6.245-6.104C228.75,191.72,228.75,191.51,228.61,191.51z"/>
			</g>
		</g>
		<g>
			<g>
				<path fill="#87D147" d="M33.7,151.646h-2.3v-2.3c0-1.7-1.4-3.2-3.2-3.2s-3.2,1.4-3.2,3.2v2.3h-2.3c-1.7,0-3.2,1.4-3.2,3.2
					c0,1.8,1.4,3.2,3.2,3.2H25v2.3c0,1.7,1.4,3.2,3.2,3.2s3.2-1.4,3.2-3.2v-2.3h2.3c1.7,0,3.2-1.4,3.2-3.2
					C36.9,153.047,35.5,151.646,33.7,151.646z"/>
			</g>
		</g>
		<g>
			<g>
				<path fill="#F5C84C" d="M31.8,182c-1.878,0-3.4,1.522-3.4,3.4c0,1.878,1.522,3.4,3.4,3.4s3.4-1.522,3.4-3.4
					C35.2,183.522,33.677,182,31.8,182z"/>
			</g>
		</g>
		<g>
			<g>
				<path fill="#FC657E" d="M162.8,0c-1.878,0-3.4,1.522-3.4,3.4c0,1.878,1.522,3.4,3.4,3.4s3.4-1.522,3.4-3.4
					C166.2,1.522,164.677,0,162.8,0z"/>
			</g>
		</g>
		<g>
			<g>
				<path d="M206.142,68.072l-45.855-45.855c-0.469-0.469-1.104-0.732-1.768-0.732H54.356c-4.69,0-8.506,3.815-8.506,8.506v215.59
					c0,5.543,4.509,10.053,10.052,10.053h140.92c3.62,0,6.975-1.963,8.755-5.123c0.678-1.203,0.252-2.728-0.95-3.405
					c-1.203-0.678-2.728-0.252-3.405,0.95c-0.896,1.59-2.582,2.578-4.4,2.578H55.903c-2.786,0-5.052-2.267-5.052-5.053V29.99
					c0-1.934,1.573-3.506,3.506-3.506h103.127l44.391,44.391V216.5c0,1.381,1.119,2.5,2.5,2.5s2.5-1.119,2.5-2.5V69.84
					C206.875,69.177,206.611,68.541,206.142,68.072z"/>
			</g>
		</g>
		<g>
			<g>
				<path d="M203.25,67.34h-37.179c-2.786,0-5.052-2.267-5.052-5.052V24.937c0-1.381-1.119-2.5-2.5-2.5s-2.5,1.119-2.5,2.5v37.352
					c0,5.543,4.509,10.052,10.052,10.052h37.179c1.381,0,2.5-1.119,2.5-2.5S204.631,67.34,203.25,67.34z"/>
			</g>
		</g>
		<g>
			<g>
				<g>
					<path d="M222.841,231.777l-26.587-26.588c-5.448-5.448-14.313-5.448-19.762,0h0c-5.448,5.448-5.448,14.314,0,19.763
						l26.586,26.587c2.64,2.64,6.149,4.094,9.881,4.094c3.733,0,7.242-1.454,9.882-4.094c2.639-2.64,4.093-6.148,4.093-9.881
						C226.935,237.925,225.481,234.416,222.841,231.777z M219.306,248.004c-1.695,1.695-3.948,2.629-6.346,2.629
						c-2.397,0-4.65-0.934-6.346-2.629l-26.586-26.587c-3.499-3.499-3.499-9.193,0-12.692h0c3.499-3.497,9.192-3.499,12.692,0
						l26.587,26.588c1.695,1.695,2.628,3.948,2.628,6.346C221.935,244.055,221.001,246.309,219.306,248.004z"/>
				</g>
			</g>
		</g>
		<g>
			<g>
				<path d="M186.164,201.59l-11.003-11.003c-0.976-0.977-2.56-0.977-3.535,0c-0.977,0.977-0.977,2.56,0,3.535l11.003,11.003
					c0.488,0.488,1.128,0.732,1.768,0.732s1.28-0.244,1.768-0.732C187.14,204.148,187.14,202.565,186.164,201.59z"/>
			</g>
		</g>
		<g>
			<g>
				<path d="M176.425,211.324l-11.063-11.063c-0.976-0.977-2.56-0.977-3.535,0c-0.977,0.977-0.977,2.559,0,3.535l11.063,11.063
					c0.488,0.488,1.128,0.732,1.768,0.732s1.28-0.244,1.768-0.732C177.402,213.883,177.402,212.301,176.425,211.324z"/>
			</g>
		</g>
		<g>
			<g>
				<g>
					<g>
						<path d="M169.961,111.58c-11.612-11.612-27.075-18.008-43.54-18.008c-16.465,0-31.928,6.396-43.54,18.008
							c-11.612,11.611-18.007,27.074-18.007,43.539c0,16.466,6.395,31.928,18.007,43.54c12.004,12.004,27.772,18.006,43.54,18.006
							s31.536-6.002,43.54-18.006C193.969,174.651,193.969,135.588,169.961,111.58z M166.426,195.124
							c-22.059,22.06-57.95,22.059-80.009,0c-10.667-10.668-16.542-24.875-16.542-40.005c0-15.13,5.875-29.336,16.542-40.004
							c10.668-10.668,24.875-16.543,40.004-16.543s29.337,5.875,40.005,16.543C188.484,137.174,188.484,173.065,166.426,195.124z"/>
					</g>
				</g>
			</g>
		</g>
		<g>
			<g>
				<g>
					<path d="M161.85,119.69c-19.535-19.534-51.321-19.536-70.857,0c-19.536,19.535-19.536,51.322,0,70.857
						c9.769,9.77,22.596,14.651,35.429,14.651c12.829,0,25.662-4.885,35.428-14.651c9.449-9.448,14.653-22.031,14.653-35.429
						C176.503,141.722,171.299,129.14,161.85,119.69z M158.315,187.013c-17.586,17.587-46.201,17.586-63.787,0
						c-17.585-17.586-17.585-46.2,0-63.787c17.585-17.586,46.2-17.586,63.787,0c8.504,8.505,13.188,19.831,13.188,31.894
						C171.503,167.182,166.819,178.508,158.315,187.013z"/>
				</g>
			</g>
		</g>
		<g>
			<g>
				<g>
					<g>
						<path d="M162.689,149.856l-12.527-13.292c-1.374-1.458-3.233-2.294-5.235-2.354c-1.991-0.041-3.908,0.665-5.366,2.038
							s-2.294,3.233-2.353,5.235c-0.06,2.003,0.664,3.908,2.038,5.366l7.68,8.149l-7.68,8.149c-1.374,1.458-2.098,3.363-2.038,5.366
							c0.059,2.002,0.895,3.861,2.352,5.234c1.402,1.322,3.218,2.043,5.137,2.043c0.077,0,0.154-0.001,0.23-0.003
							c2.002-0.061,3.862-0.896,5.234-2.354l12.527-13.293C165.408,157.26,165.408,152.74,162.689,149.856z M159.05,156.714
							l-12.528,13.294c-0.458,0.485-1.077,0.764-1.745,0.784c-0.664,0.021-1.302-0.22-1.788-0.679c0-0.001,0-0.001-0.001-0.001
							c-0.486-0.458-0.764-1.078-0.784-1.745c-0.02-0.668,0.221-1.303,0.679-1.788l9.296-9.864c0.908-0.963,0.908-2.467,0-3.43
							l-9.296-9.864c-0.458-0.485-0.699-1.12-0.679-1.788c0.02-0.667,0.298-1.287,0.784-1.745c0.467-0.44,1.073-0.68,1.712-0.68
							c0.025,0,0.051,0,0.077,0.001c0.667,0.02,1.287,0.298,1.745,0.784l12.527,13.293
							C159.957,154.247,159.957,155.753,159.05,156.714z"/>
					</g>
				</g>
			</g>
		</g>
		<g>
			<g>
				<g>
					<g>
						<path d="M107.074,155l7.68-8.149c1.374-1.458,2.098-3.363,2.038-5.366c-0.059-2.002-0.895-3.862-2.352-5.234
							c-1.457-1.374-3.359-2.084-5.366-2.04c-2.003,0.06-3.863,0.896-5.237,2.354l-12.527,13.293c-2.719,2.884-2.719,7.403,0,10.287
							l12.527,13.293c1.374,1.458,3.233,2.294,5.236,2.354c0.077,0.002,0.153,0.003,0.229,0.003c1.919,0,3.736-0.721,5.136-2.042
							c1.458-1.373,2.294-3.233,2.353-5.235c0.06-2.003-0.664-3.908-2.038-5.366L107.074,155z M111.009,170.113
							c-0.485,0.457-1.128,0.696-1.786,0.679c-0.668-0.02-1.288-0.299-1.746-0.785c0,0,0,0,0,0L94.95,156.714
							c-0.906-0.961-0.906-2.467,0-3.428l12.527-13.293c0.458-0.486,1.079-0.766,1.746-0.785c0.025-0.001,0.051-0.001,0.076-0.001
							c0.64,0,1.244,0.24,1.712,0.681c0.486,0.458,0.764,1.078,0.784,1.745c0.02,0.668-0.221,1.303-0.679,1.788l-9.296,9.864
							c-0.908,0.963-0.908,2.467,0,3.43l9.296,9.864c0.458,0.485,0.699,1.12,0.679,1.788
							C111.775,169.034,111.497,169.654,111.009,170.113z"/>
					</g>
				</g>
			</g>
		</g>
		<g>
			<g>
				<g>
					<g>
						<path d="M140.492,135.284c-0.763-1.852-2.202-3.297-4.051-4.066c-3.817-1.59-8.216,0.223-9.807,4.039l-14.047,33.718
							c-0.771,1.85-0.775,3.888-0.012,5.741c0.763,1.852,2.202,3.297,4.051,4.066c0.94,0.392,1.915,0.577,2.874,0.577
							c2.939,0,5.735-1.738,6.933-4.616l14.047-33.718C141.251,139.176,141.255,137.138,140.492,135.284z M135.865,139.103
							l-14.047,33.719c-0.529,1.272-1.996,1.874-3.269,1.346c-0.616-0.257-1.096-0.738-1.35-1.355
							c-0.254-0.617-0.253-1.297,0.004-1.914l14.047-33.718c0.53-1.272,1.996-1.876,3.27-1.347c0.616,0.257,1.096,0.738,1.35,1.355
							C136.123,137.806,136.122,138.485,135.865,139.103z"/>
					</g>
				</g>
			</g>
		</g>
	</g>
</g>
<g id="Layer_68">
</g>
<g id="Layer_69">
</g>
<g id="Layer_70">
</g>
<g id="Layer_71">
</g>
<g id="Layer_72">
</g>
<g id="Layer_73">
</g>
<g id="Layer_74">
</g>
<g id="Layer_75">
</g>
<g id="Layer_76">
</g>
<g id="Layer_77">
</g>
<g id="Layer_78">
</g>
<g id="Layer_79">
</g>
<g id="Layer_80">
</g>
<g id="Layer_81">
</g>
<g id="Layer_82">
</g>
<g id="Layer_83">
</g>
<g id="Layer_84">
</g>
<g id="Layer_85">
</g>
<g id="Layer_86">
</g>
<g id="Layer_87">
</g>
<g id="Layer_88">
</g>
<g id="Layer_89">
</g>
<g id="Layer_90">
</g>
</svg>
