<?xml version="1.0" encoding="utf-8"?>
<!-- Generator: Adobe Illustrator 16.0.0, SVG Export Plug-In . SVG Version: 6.00 Build 0)  -->
<!DOCTYPE svg PUBLIC "-//W3C//DTD SVG 1.0//EN" "http://www.w3.org/TR/2001/REC-SVG-20010904/DTD/svg10.dtd">
<svg version="1.0" id="Layer_1" xmlns="http://www.w3.org/2000/svg" xmlns:xlink="http://www.w3.org/1999/xlink" x="0px" y="0px"
	 width="100px" height="100px" viewBox="0 0 100 100" enable-background="new 0 0 100 100" xml:space="preserve">
<path fill="none" stroke="#000000" stroke-width="2" stroke-linecap="round" stroke-linejoin="round" stroke-miterlimit="10" d="
	M55.001,70.001v-5.002l-7.895-0.875c-0.379-1.64-1.026-3.173-1.895-4.563l4.964-6.204l-3.534-3.535l-6.208,4.965
	c-1.385-0.865-2.915-1.513-4.555-1.888L35.001,45h-4.999l-0.879,7.899c-1.64,0.375-3.173,1.022-4.558,1.888l-6.208-4.965
	l-3.534,3.535l4.964,6.208c-0.864,1.386-1.512,2.919-1.891,4.559L10,64.999v5.002l7.896,0.879c0.379,1.636,1.026,3.169,1.891,4.554
	l-4.964,6.209l3.534,3.534l6.208-4.964c1.385,0.868,2.918,1.516,4.558,1.892L30.002,90h4.999l0.878-7.896
	c1.64-0.376,3.173-1.023,4.558-1.892l6.205,4.964l3.538-3.534l-4.968-6.205c0.868-1.385,1.516-2.918,1.895-4.562L55.001,70.001z
	 M32.5,75c-4.142,0-7.5-3.355-7.5-7.5c0-4.141,3.358-7.496,7.5-7.496c4.144,0,7.503,3.355,7.503,7.496
	C40.003,71.645,36.644,75,32.5,75z"/>
<path fill="none" stroke="#000000" stroke-width="2" stroke-linecap="round" stroke-linejoin="round" stroke-miterlimit="10" d="
	M83.038,34.211c0.271-1.611,0.282-3.274,0.003-4.936l6.957-3.831l-1.913-4.62l-7.629,2.21c-0.976-1.369-2.162-2.541-3.493-3.488
	l2.212-7.631L74.557,10l-3.835,6.962c-1.61-0.269-3.274-0.279-4.933-0.002L61.956,10l-4.62,1.913l2.212,7.633
	c-1.369,0.975-2.537,2.16-3.484,3.49l-7.638-2.214l-1.915,4.622l6.966,3.835c-0.271,1.608-0.283,3.272-0.004,4.933l-6.962,3.832
	l1.912,4.62l7.636-2.21c0.975,1.369,2.16,2.537,3.489,3.484l-2.213,7.638l4.619,1.912l3.836-6.963
	c1.611,0.271,3.275,0.283,4.936,0.004l3.831,6.959l4.619-1.916l-2.212-7.627c1.371-0.977,2.539-2.162,3.49-3.493l7.631,2.212
	L90,38.045L83.038,34.211z M68.257,39.246c-4.143,0-7.5-3.358-7.5-7.5c0-4.145,3.357-7.5,7.5-7.5s7.5,3.356,7.5,7.5
	C75.757,35.887,72.399,39.246,68.257,39.246z"/>
</svg>
