<?xml version="1.0" encoding="utf-8"?>
<!-- Generator: Adobe Illustrator 16.0.0, SVG Export Plug-In . SVG Version: 6.00 Build 0)  -->
<!DOCTYPE svg PUBLIC "-//W3C//DTD SVG 1.0//EN" "http://www.w3.org/TR/2001/REC-SVG-20010904/DTD/svg10.dtd">
<svg version="1.0" id="Layer_1" xmlns="http://www.w3.org/2000/svg" xmlns:xlink="http://www.w3.org/1999/xlink" x="0px" y="0px"
	 width="100px" height="100px" viewBox="0 0 100 100" enable-background="new 0 0 100 100" xml:space="preserve">
<circle fill="none" stroke="#000000" stroke-width="2" stroke-linecap="round" stroke-linejoin="round" stroke-miterlimit="10" cx="60.805" cy="52.5" r="10"/>
<path fill="none" stroke="#000000" stroke-width="2" stroke-linecap="round" stroke-linejoin="round" stroke-miterlimit="10" d="
	M82.235,52.5c0-0.938-0.083-1.857-0.198-2.763L90,45.265l-1.326-4.071l-9.045,1.058c-0.893-1.633-2.004-3.125-3.27-4.465
	l3.813-8.296l-3.467-2.519l-6.714,6.191c-1.648-0.786-3.407-1.372-5.252-1.716L62.947,22.5h-4.284l-1.792,8.947
	c-1.847,0.344-3.604,0.93-5.253,1.716l-6.715-6.191l-3.466,2.515l3.817,8.3c-1.271,1.34-2.381,2.833-3.273,4.465l-9.046-1.058
	l-1.323,4.071l7.961,4.473c-0.116,0.905-0.196,1.825-0.196,2.763c0,0.937,0.08,1.856,0.196,2.763l-7.961,4.469l1.323,4.078
	l9.048-1.064c0.891,1.633,2,3.129,3.271,4.465l-3.817,8.301l3.466,2.521l6.716-6.194c1.648,0.785,3.407,1.371,5.254,1.716
	l1.79,8.946h4.284l1.789-8.946c1.849-0.345,3.607-0.931,5.256-1.716l6.714,6.194l3.467-2.521l-3.813-8.301
	c1.266-1.34,2.377-2.832,3.27-4.465l9.045,1.064L90,59.731l-7.963-4.469C82.152,54.354,82.235,53.437,82.235,52.5z"/>
<circle fill="none" stroke="#000000" stroke-width="2" stroke-linecap="round" stroke-linejoin="round" stroke-miterlimit="10" cx="30" cy="30" r="5"/>
<path fill="none" stroke="#000000" stroke-width="2" stroke-linecap="round" stroke-linejoin="round" stroke-miterlimit="10" d="
	M31.612,45.265l1.323-4.071l9.046,1.058c0.893-1.633,2.002-3.125,3.273-4.465l-3.817-8.3l3.466-2.515l5.016,4.623
	C49.961,31.068,50,30.541,50,30c0-11.048-8.953-20-20-20c-11.049,0-20,8.951-20,20c0,11.049,8.95,20.002,20,20.002
	c2.639,0,5.153-0.523,7.458-1.454L31.612,45.265z"/>
<path fill="none" stroke="#000000" stroke-width="2" stroke-linecap="round" stroke-linejoin="round" stroke-miterlimit="10" d="
	M34.999,80.003C34.999,85.525,30.523,90,25,90c-5.523,0-10.001-4.475-10.001-9.997c0-5.526,4.479-10.001,10.001-10.001
	C30.523,70.002,34.999,74.477,34.999,80.003z"/>
<path fill="none" stroke="#000000" stroke-width="2" stroke-linecap="round" stroke-linejoin="round" stroke-miterlimit="10" d="
	M28.749,80.003c0,2.07-1.678,3.748-3.748,3.748s-3.752-1.678-3.752-3.748c0-2.074,1.682-3.752,3.752-3.752
	S28.749,77.929,28.749,80.003z"/>
</svg>
