<?xml version="1.0" encoding="utf-8"?>
<!-- Generator: Adobe Illustrator 16.0.0, SVG Export Plug-In . SVG Version: 6.00 Build 0)  -->
<!DOCTYPE svg PUBLIC "-//W3C//DTD SVG 1.0//EN" "http://www.w3.org/TR/2001/REC-SVG-20010904/DTD/svg10.dtd">
<svg version="1.0" id="Layer_1" xmlns="http://www.w3.org/2000/svg" xmlns:xlink="http://www.w3.org/1999/xlink" x="0px" y="0px"
	 width="100px" height="100px" viewBox="0 0 100 100" enable-background="new 0 0 100 100" xml:space="preserve">
<path fill="none" stroke="#000000" stroke-width="2" stroke-linecap="round" stroke-linejoin="round" stroke-miterlimit="10" d="
	M69.361,30.636c3.791,3.789,3.792,9.936,0.002,13.729c-3.793,3.79-9.936,3.786-13.726-0.004c-3.789-3.789-3.791-9.936,0-13.725
	C59.428,26.846,65.571,26.846,69.361,30.636z"/>
<path fill="none" stroke="#000000" stroke-width="2" stroke-linecap="round" stroke-linejoin="round" stroke-miterlimit="10" d="
	M79.949,25.768l4.855-4.854l-5.719-5.719l-4.857,4.858c-2.368-1.596-4.984-2.665-7.687-3.191L66.543,10h-8.089v6.862
	c-2.702,0.526-5.315,1.595-7.683,3.191l-4.859-4.858l-5.719,5.719l4.857,4.857c-1.595,2.366-2.663,4.981-3.189,7.686h-6.864v8.086
	h6.864c0.526,2.701,1.595,5.319,3.189,7.686l-4.857,4.854l5.719,5.719l4.857-4.857c2.365,1.595,4.982,2.663,7.685,3.189v6.863h8.088
	v-6.863c2.704-0.526,5.318-1.595,7.687-3.187l4.857,4.851l5.719-5.715l-4.859-4.854c1.596-2.366,2.663-4.984,3.188-7.686H90
	l-0.002-8.089h-6.864C82.608,30.753,81.537,28.135,79.949,25.768z"/>
<path fill="none" stroke="#000000" stroke-width="2" stroke-linecap="round" stroke-linejoin="round" stroke-miterlimit="10" d="
	M58.454,64.998v-6.863c-2.702-0.526-5.319-1.595-7.685-3.189l-4.857,4.857l-5.719-5.719l4.857-4.854
	c-1.595-2.366-2.663-4.984-3.189-7.686h-6.864v-3.318c-0.474,0.63-1.108,1.171-1.773,1.388L32.042,40
	c-1.12,0.362-2.746,0.011-3.61-0.79l-5.137-4.74l-3.47,2.522l2.922,6.349c0.489,1.071,0.323,2.726-0.372,3.676l-0.737,1.006
	c-0.696,0.951-2.226,1.62-3.394,1.481l-6.92-0.813L10,52.768l6.093,3.421c1.028,0.579,1.869,2.016,1.869,3.193v1.237
	c0,1.178-0.841,2.614-1.869,3.193L10,67.233l1.324,4.077l6.92-0.811c1.168-0.141,2.698,0.531,3.394,1.481l0.737,1.003
	c0.695,0.951,0.861,2.604,0.372,3.676l-2.922,6.35l3.47,2.521l5.137-4.737c0.866-0.803,2.492-1.153,3.613-0.788l1.175,0.386
	c1.121,0.365,2.228,1.605,2.46,2.763L37.049,90c0,0,2.143,0,2.145,0h2.142l1.369-6.846c0.23-1.157,1.337-2.401,2.46-2.767
	l1.178-0.386c1.12-0.361,2.746-0.011,3.612,0.789l5.137,4.74l3.469-2.521l-2.921-6.35c-0.491-1.071-0.324-2.725,0.37-3.676
	l0.739-1.006c0.695-0.951,2.224-1.619,3.394-1.481l6.919,0.813l1.325-4.077l-3.981-2.235H58.454z"/>
<path fill="none" stroke="#000000" stroke-width="2" stroke-linecap="round" stroke-linejoin="round" stroke-miterlimit="10" d="
	M45.912,59.803l-5.719-5.719l4.102-4.1c-1.533-0.782-3.265-1.233-5.103-1.233c-6.213,0-11.249,5.033-11.249,11.251
	c0,6.208,5.036,11.25,11.249,11.25c6.21,0,11.25-5.042,11.25-11.25c0-1.408-0.269-2.749-0.74-3.989L45.912,59.803z"/>
</svg>
