<?xml version="1.0" encoding="utf-8"?>
<!-- Generator: Adobe Illustrator 16.0.0, SVG Export Plug-In . SVG Version: 6.00 Build 0)  -->
<!DOCTYPE svg PUBLIC "-//W3C//DTD SVG 1.0//EN" "http://www.w3.org/TR/2001/REC-SVG-20010904/DTD/svg10.dtd">
<svg version="1.0" id="Layer_1" xmlns="http://www.w3.org/2000/svg" xmlns:xlink="http://www.w3.org/1999/xlink" x="0px" y="0px"
	 width="100px" height="100px" viewBox="0 0 100 100" enable-background="new 0 0 100 100" xml:space="preserve">
<path fill="none" stroke="#000000" stroke-width="2" stroke-linecap="round" stroke-linejoin="round" stroke-miterlimit="10" d="
	M87.188,46.63l-9.085-1.646c-0.284-1.615-0.711-3.18-1.257-4.688l7.045-5.974c1.197-1.017,1.535-2.96,0.749-4.32
	c-0.785-1.36-2.639-2.043-4.118-1.513l-8.682,3.107c-1.046-1.24-2.195-2.391-3.438-3.435l3.11-8.685
	c0.527-1.479-0.151-3.332-1.512-4.117c-1.362-0.785-3.306-0.447-4.323,0.751l-5.976,7.042c-1.507-0.545-3.067-0.972-4.684-1.258
	l-1.648-9.084C53.087,11.264,51.573,10,50.002,10c-1.573,0-3.087,1.265-3.369,2.812l-1.65,9.084
	c-1.614,0.286-3.175,0.713-4.682,1.261l-5.975-7.048c-1.02-1.199-2.963-1.537-4.323-0.752c-1.361,0.786-2.043,2.64-1.513,4.121
	l3.109,8.685c-1.24,1.048-2.39,2.194-3.436,3.435l-8.684-3.11c-1.479-0.527-3.333,0.151-4.119,1.513
	c-0.785,1.36-0.447,3.307,0.751,4.323l7.045,5.977c-0.545,1.506-0.972,3.066-1.258,4.683l-9.087,1.649
	C11.265,46.914,10,48.429,10,50c0,1.57,1.265,3.085,2.812,3.365l9.085,1.654c0.286,1.613,0.712,3.174,1.256,4.682l-7.044,5.975
	c-1.197,1.02-1.537,2.963-0.749,4.322c0.785,1.361,2.641,2.043,4.118,1.51l8.683-3.104c1.046,1.24,2.196,2.387,3.437,3.434
	l-3.109,8.686c-0.528,1.479,0.151,3.332,1.511,4.117c1.36,0.785,3.308,0.447,4.323-0.752l5.975-7.041
	c1.508,0.545,3.068,0.971,4.682,1.258l1.652,9.084C46.913,88.736,48.429,90,50,90c1.569,0,3.087-1.264,3.364-2.811l1.653-9.084
	c1.618-0.287,3.179-0.711,4.686-1.258l5.974,7.045c1.019,1.199,2.963,1.537,4.323,0.752c1.36-0.787,2.041-2.641,1.512-4.121
	l-3.108-8.682c1.242-1.047,2.392-2.197,3.439-3.438l8.68,3.109c1.479,0.527,3.333-0.15,4.118-1.512
	c0.786-1.361,0.448-3.307-0.751-4.324l-7.043-5.973c0.546-1.51,0.973-3.07,1.259-4.686l9.085-1.65C88.735,53.086,90,51.57,90,50
	C90,48.429,88.735,46.914,87.188,46.63z"/>
<circle fill="none" stroke="#000000" stroke-width="2" stroke-linecap="round" stroke-linejoin="round" stroke-miterlimit="10" cx="50.001" cy="50" r="20.001"/>
<circle fill="none" stroke="#000000" stroke-width="2" stroke-linecap="round" stroke-linejoin="round" stroke-miterlimit="10" cx="50.002" cy="50" r="5.714"/>
</svg>
