<?xml version="1.0" encoding="utf-8"?>
<!-- Generator: Adobe Illustrator 16.0.0, SVG Export Plug-In . SVG Version: 6.00 Build 0)  -->
<!DOCTYPE svg PUBLIC "-//W3C//DTD SVG 1.0//EN" "http://www.w3.org/TR/2001/REC-SVG-20010904/DTD/svg10.dtd">
<svg version="1.0" id="Layer_1" xmlns="http://www.w3.org/2000/svg" xmlns:xlink="http://www.w3.org/1999/xlink" x="0px" y="0px"
	 width="100px" height="100px" viewBox="0 0 100 100" enable-background="new 0 0 100 100" xml:space="preserve">
<path fill="none" stroke="#000000" stroke-width="2" stroke-linecap="round" stroke-linejoin="round" stroke-miterlimit="10" d="
	M89.996,53.748l0.004-7.5c-4.169,0-7.993-1.45-11.016-3.862c-0.7-2.67-1.749-5.188-3.111-7.51c0.46-4.086,2.303-7.748,5.06-10.508
	l-5.303-5.306c-2.945,2.946-6.674,4.624-10.515,5.058c-2.324-1.36-4.842-2.408-7.511-3.107c-2.564-3.214-3.854-7.11-3.856-11.011
	L46.248,10c0,4.169-1.452,7.992-3.865,11.018c-2.667,0.699-5.186,1.746-7.508,3.107c-4.086-0.458-7.751-2.302-10.507-5.058
	l-5.305,5.302c2.945,2.945,4.623,6.673,5.055,10.515c-1.361,2.325-2.41,4.844-3.109,7.514c-3.212,2.566-7.108,3.854-11.006,3.854
	L10,53.752c4.167,0,7.991,1.453,11.012,3.865c0.699,2.67,1.75,5.188,3.11,7.514c-0.46,4.082-2.303,7.748-5.057,10.504l5.302,5.305
	c2.945-2.945,6.675-4.623,10.514-5.053c2.326,1.361,4.848,2.408,7.515,3.107c2.565,3.211,3.854,7.107,3.855,11.006h7.5
	c0-4.164,1.45-7.988,3.861-11.01c2.67-0.699,5.19-1.75,7.514-3.113c4.084,0.461,7.747,2.305,10.505,5.057l5.304-5.303
	c-2.945-2.945-4.621-6.672-5.054-10.514c1.359-2.322,2.408-4.844,3.105-7.51C82.2,55.041,86.097,53.752,89.996,53.748z"/>
<path fill="none" stroke="#000000" stroke-width="2" stroke-linecap="round" stroke-linejoin="round" stroke-miterlimit="10" d="
	M29.254,41.371c-1.13,2.684-1.756,5.632-1.756,8.726c0,11.476,8.591,20.921,19.687,22.31V58.02c-3.27-1.16-5.626-4.254-5.626-7.919
	c0-0.527,0.062-1.037,0.155-1.536L29.254,41.371z"/>
<path fill="none" stroke="#000000" stroke-width="2" stroke-linecap="round" stroke-linejoin="round" stroke-miterlimit="10" d="
	M67.902,36.512c-4.11-5.405-10.59-8.912-17.904-8.912c-7.317,0-13.797,3.507-17.905,8.912l12.455,7.19
	c1.475-1.254,3.362-2.04,5.45-2.04s3.973,0.786,5.448,2.04L67.902,36.512z"/>
<path fill="none" stroke="#000000" stroke-width="2" stroke-linecap="round" stroke-linejoin="round" stroke-miterlimit="10" d="
	M72.497,50.096c0-3.094-0.627-6.042-1.759-8.726l-12.46,7.193c0.093,0.496,0.155,1.009,0.155,1.536c0,3.666-2.354,6.759-5.626,7.919
	v14.387C63.906,71.018,72.497,61.572,72.497,50.096z"/>
</svg>
