<?xml version="1.0" encoding="utf-8"?>
<!-- Generator: Adobe Illustrator 16.0.0, SVG Export Plug-In . SVG Version: 6.00 Build 0)  -->
<!DOCTYPE svg PUBLIC "-//W3C//DTD SVG 1.0//EN" "http://www.w3.org/TR/2001/REC-SVG-20010904/DTD/svg10.dtd">
<svg version="1.0" id="Layer_1" xmlns="http://www.w3.org/2000/svg" xmlns:xlink="http://www.w3.org/1999/xlink" x="0px" y="0px"
	 width="100px" height="100px" viewBox="0 0 100 100" enable-background="new 0 0 100 100" xml:space="preserve">
<circle fill="none" stroke="#000000" stroke-width="2" stroke-linecap="round" stroke-linejoin="round" stroke-miterlimit="10" cx="50.004" cy="49.999" r="20"/>
<circle fill="none" stroke="#000000" stroke-width="2" stroke-linecap="round" stroke-linejoin="round" stroke-miterlimit="10" cx="50.005" cy="49.999" r="7.5"/>
<path fill="none" stroke="#000000" stroke-width="2" stroke-linecap="round" stroke-linejoin="round" stroke-miterlimit="10" d="
	M86.502,57.919h0.018c-4.014-0.431-7.15-3.793-7.15-7.92c0-4.123,3.132-7.479,7.14-7.92c2.959-1.633,4.307-5.241,2.981-8.437
	c-1.326-3.197-4.833-4.796-8.078-3.852c-3.143,2.521-7.728,2.359-10.644-0.559c-2.915-2.911-3.077-7.496-0.557-10.642h0.004
	c0.941-3.249-0.658-6.756-3.857-8.079c-3.198-1.327-6.804,0.02-8.435,2.982c-0.439,4.007-3.797,7.139-7.921,7.139
	c-4.123,0-7.479-3.132-7.92-7.139c-1.631-2.963-5.242-4.31-8.438-2.982c-3.201,1.322-4.799,4.83-3.854,8.079h0.005
	c2.519,3.146,2.356,7.73-0.558,10.646c-2.915,2.914-7.5,3.076-10.644,0.555l-0.002-0.004c-3.25-0.944-6.759,0.658-8.08,3.855
	c-1.327,3.2,0.021,6.811,2.986,8.441c4.009,0.438,7.14,3.793,7.139,7.916c0,4.127-3.137,7.486-7.148,7.923l0.008-0.007
	c-2.964,1.63-4.313,5.243-2.986,8.438c1.324,3.2,4.83,4.802,8.082,3.854c3.146-2.519,7.73-2.359,10.646,0.559
	c2.914,2.914,3.076,7.501,0.556,10.646l-0.005-0.007c-0.943,3.253,0.656,6.76,3.854,8.086c3.2,1.323,6.813-0.024,8.438-2.99v0.018
	c0.435-4.014,3.793-7.152,7.92-7.152c4.128,0,7.487,3.132,7.923,7.145c1.633,2.96,5.238,4.304,8.432,2.98
	c3.2-1.326,4.799-4.833,3.856-8.079c-2.519-3.145-2.358-7.731,0.557-10.646c2.916-2.918,7.501-3.08,10.646-0.559l-0.008,0.007
	c3.251,0.94,6.76-0.661,8.084-3.858C90.813,63.155,89.467,59.545,86.502,57.919z"/>
</svg>
