<?xml version="1.0" encoding="utf-8"?>
<!-- Generator: Adobe Illustrator 16.0.0, SVG Export Plug-In . SVG Version: 6.00 Build 0)  -->
<!DOCTYPE svg PUBLIC "-//W3C//DTD SVG 1.0//EN" "http://www.w3.org/TR/2001/REC-SVG-20010904/DTD/svg10.dtd">
<svg version="1.0" id="Layer_1" xmlns="http://www.w3.org/2000/svg" xmlns:xlink="http://www.w3.org/1999/xlink" x="0px" y="0px"
	 width="100px" height="100px" viewBox="0 0 100 100" enable-background="new 0 0 100 100" xml:space="preserve">
<circle fill="none" stroke="#000000" stroke-width="2" stroke-linecap="round" stroke-linejoin="round" stroke-miterlimit="10" cx="49.999" cy="49.999" r="17.144"/>
<circle fill="none" stroke="#000000" stroke-width="2" stroke-linecap="round" stroke-linejoin="round" stroke-miterlimit="10" cx="49.999" cy="49.999" r="8.572"/>
<path fill="none" stroke="#000000" stroke-width="2" stroke-linecap="round" stroke-linejoin="round" stroke-miterlimit="10" d="
	M78.57,49.999c0-1.251-0.108-2.474-0.263-3.683l10.618-5.961l-1.769-5.432l-12.063,1.412c-1.188-2.177-2.669-4.166-4.358-5.953
	l5.087-11.063l-4.625-3.359l-8.95,8.255c-2.199-1.048-4.541-1.827-7.003-2.285L52.855,10h-5.713L44.754,21.93
	c-2.463,0.458-4.805,1.24-7.004,2.285l-8.95-8.255l-4.624,3.356l5.087,11.066c-1.693,1.788-3.173,3.776-4.36,5.953l-12.065-1.412
	l-1.764,5.432l10.618,5.961c-0.156,1.209-0.265,2.432-0.265,3.683c0,1.25,0.106,2.476,0.265,3.682l-10.618,5.961l1.764,5.437
	l12.065-1.416c1.188,2.176,2.668,4.169,4.36,5.952L24.176,80.68l4.624,3.36l8.95-8.259c2.199,1.049,4.543,1.83,7.006,2.289
	L47.142,90h5.713l2.387-11.93c2.465-0.459,4.807-1.24,7.007-2.289l8.949,8.259l4.625-3.362l-5.087-11.063
	c1.689-1.787,3.171-3.776,4.358-5.952l12.063,1.416l1.769-5.437l-10.618-5.961C78.462,52.471,78.57,51.248,78.57,49.999z"/>
</svg>
