<?xml version="1.0" encoding="utf-8"?>
<!-- Generator: Adobe Illustrator 16.0.0, SVG Export Plug-In . SVG Version: 6.00 Build 0)  -->
<!DOCTYPE svg PUBLIC "-//W3C//DTD SVG 1.0//EN" "http://www.w3.org/TR/2001/REC-SVG-20010904/DTD/svg10.dtd">
<svg version="1.0" id="Layer_1" xmlns="http://www.w3.org/2000/svg" xmlns:xlink="http://www.w3.org/1999/xlink" x="0px" y="0px"
	 width="100px" height="100px" viewBox="0 0 100 100" enable-background="new 0 0 100 100" xml:space="preserve">
<path fill="none" stroke="#000000" stroke-width="2" stroke-linecap="round" stroke-linejoin="round" stroke-miterlimit="10" d="
	M90,52.145v-4.289L78.366,46.69c-0.178-1.536-0.488-3.035-0.897-4.489l10.306-5.529l-1.639-3.958l-11.188,3.373
	c-0.751-1.34-1.608-2.608-2.558-3.8l7.411-9.057l-3.032-3.032l-9.053,7.411c-1.198-0.948-2.466-1.805-3.805-2.553l3.376-11.19
	l-3.961-1.64l-5.529,10.308c-1.455-0.413-2.95-0.724-4.491-0.898L52.146,10h-4.288l-1.165,11.635
	c-1.538,0.175-3.034,0.485-4.489,0.898l-5.528-10.311l-3.962,1.64l3.376,11.193c-1.339,0.748-2.607,1.605-3.801,2.553l-9.056-7.411
	l-3.032,3.032l7.41,9.057c-0.948,1.195-1.805,2.46-2.554,3.8L13.866,32.71l-1.64,3.958l10.311,5.533
	c-0.413,1.454-0.722,2.953-0.898,4.489L10,47.855v4.285l11.638,1.164c0.177,1.542,0.485,3.036,0.897,4.489l-10.31,5.53l1.64,3.961
	l11.189-3.375c0.749,1.34,1.606,2.607,2.555,3.804l-7.409,9.054l3.03,3.031l9.056-7.411c1.195,0.951,2.463,1.809,3.803,2.558
	l-3.377,11.188l3.959,1.641l5.53-10.308c1.455,0.41,2.952,0.721,4.491,0.898L47.856,90h4.286l1.164-11.635
	c1.541-0.178,3.038-0.488,4.493-0.898l5.527,10.308l3.961-1.641l-3.376-11.188c1.34-0.749,2.608-1.606,3.805-2.558l9.053,7.411
	l3.03-3.031l-7.409-9.054c0.949-1.196,1.807-2.464,2.558-3.804l11.188,3.375l1.638-3.957l-10.305-5.53
	c0.409-1.457,0.72-2.951,0.897-4.493L90,52.145z"/>
<path fill="none" stroke="#000000" stroke-width="2" stroke-linecap="round" stroke-linejoin="round" stroke-miterlimit="10" d="
	M64.285,49.999c0,7.893-6.394,14.287-14.284,14.287c-7.889,0-14.287-6.394-14.287-14.287c0-7.89,6.397-14.288,14.287-14.288
	C57.892,35.71,64.285,42.109,64.285,49.999z"/>
</svg>
