<?xml version="1.0" encoding="utf-8"?>
<!-- Generator: Adobe Illustrator 16.0.0, SVG Export Plug-In . SVG Version: 6.00 Build 0)  -->
<!DOCTYPE svg PUBLIC "-//W3C//DTD SVG 1.0//EN" "http://www.w3.org/TR/2001/REC-SVG-20010904/DTD/svg10.dtd">
<svg version="1.0" id="Layer_1" xmlns="http://www.w3.org/2000/svg" xmlns:xlink="http://www.w3.org/1999/xlink" x="0px" y="0px"
	 width="100px" height="100px" viewBox="0 0 100 100" enable-background="new 0 0 100 100" xml:space="preserve">
<path fill="none" stroke="#000000" stroke-width="2" stroke-linecap="round" stroke-linejoin="round" stroke-miterlimit="10" d="
	M78.571,49.998c0-1.251-0.108-2.474-0.264-3.683l10.617-5.96l-1.767-5.434l-12.063,1.413c-1.187-2.178-2.668-4.165-4.357-5.953
	l5.086-11.063l-4.625-3.359l-8.951,8.255c-2.197-1.047-4.54-1.826-7.002-2.284L52.856,10h-5.714l-2.388,11.93
	c-2.463,0.458-4.806,1.24-7.004,2.284l-8.95-8.255l-4.623,3.356l5.087,11.066c-1.693,1.788-3.173,3.775-4.36,5.953l-12.065-1.413
	l-1.764,5.434l10.618,5.96c-0.156,1.209-0.265,2.432-0.265,3.683c0,1.25,0.106,2.477,0.265,3.683l-10.618,5.96l1.764,5.437
	l12.065-1.416c1.188,2.177,2.668,4.168,4.36,5.953l-5.087,11.066L28.8,84.04l8.95-8.258c2.199,1.047,4.543,1.829,7.006,2.287
	L47.143,90h5.714l2.386-11.931c2.465-0.458,4.808-1.24,7.007-2.287l8.949,8.258l4.625-3.363l-5.086-11.063
	c1.689-1.788,3.171-3.776,4.357-5.953l12.063,1.416l1.767-5.437l-10.617-5.96C78.463,52.472,78.571,51.248,78.571,49.998z"/>
<path fill="none" stroke="#000000" stroke-width="2" stroke-linecap="round" stroke-linejoin="round" stroke-miterlimit="10" d="
	M62.499,49.998c0,2.084-0.519,4.048-1.421,5.773l5.462,5.464C68.721,58.032,70,54.166,70,49.998c0-4.165-1.277-8.034-3.458-11.235
	l-5.463,5.46C61.982,45.953,62.499,47.914,62.499,49.998z"/>
<path fill="none" stroke="#000000" stroke-width="2" stroke-linecap="round" stroke-linejoin="round" stroke-miterlimit="10" d="
	M37.5,49.998c0-2.084,0.519-4.045,1.421-5.774l-5.464-5.464C31.276,41.964,30,45.833,30,49.998c0,4.168,1.278,8.037,3.46,11.241
	l5.461-5.464C38.018,54.046,37.5,52.086,37.5,49.998z"/>
<path fill="none" stroke="#000000" stroke-width="2" stroke-linecap="round" stroke-linejoin="round" stroke-miterlimit="10" d="
	M55.774,61.077c-1.729,0.902-3.69,1.42-5.776,1.42c-2.084,0-4.046-0.518-5.771-1.42l-5.464,5.464
	c3.204,2.181,7.07,3.455,11.236,3.455c4.167,0,8.036-1.277,11.238-3.458L55.774,61.077z"/>
<path fill="none" stroke="#000000" stroke-width="2" stroke-linecap="round" stroke-linejoin="round" stroke-miterlimit="10" d="
	M44.223,38.921c1.729-0.906,3.689-1.423,5.775-1.423s4.048,0.517,5.777,1.423l5.463-5.464c-3.204-2.181-7.071-3.459-11.24-3.459
	c-4.166,0-8.035,1.278-11.238,3.459L44.223,38.921z"/>
<circle fill="none" stroke="#000000" stroke-width="2" stroke-linecap="round" stroke-linejoin="round" stroke-miterlimit="10" cx="50" cy="50.001" r="5"/>
</svg>
