<?xml version="1.0" encoding="utf-8"?>
<!-- Generator: Adobe Illustrator 16.0.0, SVG Export Plug-In . SVG Version: 6.00 Build 0)  -->
<!DOCTYPE svg PUBLIC "-//W3C//DTD SVG 1.0//EN" "http://www.w3.org/TR/2001/REC-SVG-20010904/DTD/svg10.dtd">
<svg version="1.0" id="Layer_1" xmlns="http://www.w3.org/2000/svg" xmlns:xlink="http://www.w3.org/1999/xlink" x="0px" y="0px"
	 width="100px" height="100px" viewBox="0 0 100 100" enable-background="new 0 0 100 100" xml:space="preserve">
<path fill="none" stroke="#000000" stroke-width="2" stroke-linecap="round" stroke-linejoin="round" stroke-miterlimit="10" d="
	M60,66.786v-3.572l-7.456-1.491c-0.462-2.495-1.438-4.807-2.818-6.818l4.215-6.318l-2.525-2.525l-6.321,4.214
	c-2.012-1.382-4.325-2.356-6.816-2.818l-1.491-7.455h-3.569l-1.492,7.455c-2.494,0.462-4.804,1.437-6.817,2.818l-6.32-4.214
	l-2.526,2.525l4.215,6.318c-1.382,2.016-2.354,4.323-2.816,6.818L10,63.214v3.572l7.459,1.488c0.462,2.495,1.433,4.804,2.816,6.819
	l-4.215,6.318l2.526,2.528l6.32-4.217c2.014,1.382,4.323,2.356,6.817,2.821L33.215,90h3.571l1.491-7.455
	c2.492-0.465,4.805-1.439,6.816-2.821l6.321,4.217l2.525-2.528l-4.215-6.318c1.385-2.016,2.356-4.324,2.818-6.819L60,66.786z"/>
<path fill="none" stroke="#000000" stroke-width="2" stroke-linecap="round" stroke-linejoin="round" stroke-miterlimit="10" d="
	M45.716,64.998c0,5.92-4.798,10.716-10.715,10.716c-5.918,0-10.716-4.796-10.716-10.716c0-5.915,4.798-10.714,10.716-10.714
	C40.918,54.284,45.716,59.083,45.716,64.998z"/>
<path fill="none" stroke="#000000" stroke-width="2" stroke-linecap="round" stroke-linejoin="round" stroke-miterlimit="10" d="
	M90,23.34l-1.147-2.773l-6.276,1.24c-1.159-1.788-2.662-3.27-4.384-4.389l1.24-6.271L76.659,10l-3.556,5.309
	c-2.009-0.426-4.118-0.438-6.203,0.004L63.342,10l-2.774,1.147l1.24,6.273c-1.788,1.165-3.27,2.664-4.388,4.386l-6.269-1.24
	l-1.15,2.773l5.311,3.556c-0.427,2.008-0.438,4.116,0.004,6.204l-5.314,3.559l1.15,2.773l6.273-1.24
	c1.163,1.789,2.658,3.27,4.383,4.389l-1.24,6.271l2.778,1.147l3.552-5.31c2.005,0.428,4.117,0.441,6.204-0.003l3.558,5.313
	l2.774-1.147l-1.241-6.273c1.791-1.165,3.269-2.663,4.391-4.386l6.265,1.24L90,36.659l-5.309-3.555
	c0.427-2.013,0.436-4.121-0.007-6.205L90,23.34z"/>
<path fill="none" stroke="#000000" stroke-width="2" stroke-linecap="round" stroke-linejoin="round" stroke-miterlimit="10" d="
	M78.326,26.551c1.905,4.599-0.277,9.87-4.878,11.775c-4.601,1.902-9.868-0.279-11.773-4.879c-1.903-4.596,0.279-9.866,4.875-11.775
	C71.15,19.768,76.423,21.956,78.326,26.551z"/>
</svg>
