<?xml version="1.0" encoding="utf-8"?>
<!-- Generator: Adobe Illustrator 24.0.0, SVG Export Plug-In . SVG Version: 6.00 Build 0)  -->
<svg version="1.1" xmlns="http://www.w3.org/2000/svg" xmlns:xlink="http://www.w3.org/1999/xlink" x="0px" y="0px"
	 viewBox="0 0 256 256" enable-background="new 0 0 256 256" xml:space="preserve">
<g id="Layer_1">
</g>
<g id="Layer_2">
</g>
<g id="Layer_3">
</g>
<g id="Layer_4">
</g>
<g id="Layer_5">
</g>
<g id="Layer_6">
</g>
<g id="Layer_7">
</g>
<g id="Layer_8">
</g>
<g id="Layer_9">
</g>
<g id="Layer_10">
</g>
<g id="Layer_11">
</g>
<g id="Layer_12">
</g>
<g id="Layer_13">
</g>
<g id="Layer_14">
</g>
<g id="Layer_15">
</g>
<g id="Layer_16">
</g>
<g id="Layer_17">
</g>
<g id="Layer_18">
</g>
<g id="Layer_19">
</g>
<g id="Layer_20">
</g>
<g id="Layer_21">
</g>
<g id="Layer_22">
</g>
<g id="Layer_23">
</g>
<g id="Layer_24">
</g>
<g id="Layer_25">
</g>
<g id="Layer_26">
	<g>
		<g>
			<g>
				<path fill="#70D6F9" d="M214.213,12.315H109.896c-14.062,0-25.567,11.505-25.567,25.568v79.954
					c0,14.062,11.505,25.567,25.567,25.567h0c2.315,0,4.191,1.877,4.191,4.191v23.498c0,4.708,5.912,6.81,8.884,3.158l22.795-28.007
					c1.463-1.798,3.658-2.841,5.975-2.841h62.471c14.062,0,25.567-11.505,25.567-25.567V37.882
					C239.78,23.82,228.275,12.315,214.213,12.315z"/>
			</g>
		</g>
		<g>
			<g>
				<path fill="#FCDD86" d="M151.742,143.404c-2.318,0-4.512,1.043-5.975,2.841l-22.795,28.007c-2.972,3.652-8.884,1.55-8.884-3.158
					v-23.498c0-2.315-1.877-4.191-4.191-4.191h0c-14.062,0-25.567-11.505-25.567-25.567V79.893H41.787
					c-14.062,0-25.567,11.505-25.567,25.567v79.955c0,14.062,11.505,25.567,25.567,25.567h62.471c2.318,0,4.512,1.043,5.975,2.841
					l22.795,28.007c2.972,3.652,8.884,1.55,8.884-3.158v-23.498c0-2.315,1.877-4.191,4.191-4.191
					c14.062,0,25.567-11.505,25.567-25.567v-42.01H151.742z"/>
			</g>
		</g>
		<g>
			<g>
				
					<ellipse transform="matrix(0.9871 -0.1602 0.1602 0.9871 -11.0728 19.6394)" fill="#EDF4FC" cx="116.279" cy="78.5" rx="8.472" ry="8.472"/>
			</g>
		</g>
		<g>
			<g>
				
					<ellipse transform="matrix(0.3827 -0.9239 0.9239 0.3827 18.2836 184.3634)" fill="#EDF4FC" cx="147.102" cy="78.5" rx="8.472" ry="8.472"/>
			</g>
		</g>
		<g>
			<g>
				
					<ellipse transform="matrix(0.3827 -0.9239 0.9239 0.3827 37.311 212.8399)" fill="#EDF4FC" cx="177.924" cy="78.5" rx="8.472" ry="8.472"/>
			</g>
		</g>
		<g>
			<g>
				
					<ellipse transform="matrix(0.3827 -0.9239 0.9239 0.3827 56.3384 241.3164)" fill="#EDF4FC" cx="208.747" cy="78.5" rx="8.472" ry="8.472"/>
			</g>
		</g>
		<g>
			<g>
				<path fill="#F5C84C" d="M71.8,25.85c-4.5-0.8-8-4.3-8.9-8.7c0-0.2-0.4-0.2-0.4,0c-0.9,4.4-4.4,7.9-8.9,8.7c-0.2,0-0.2,0.3,0,0.4
					c4.5,0.8,8,4.3,8.9,8.7c0,0.2,0.4,0.2,0.4,0c0.9-4.4,4.4-7.9,8.9-8.7C72,26.15,72,25.85,71.8,25.85z"/>
			</g>
		</g>
		<g>
			<g>
				<path fill="#FC657E" d="M118.61,249.51c-3.157-0.561-5.613-3.017-6.245-6.104c0-0.14-0.281-0.14-0.281,0
					c-0.632,3.087-3.087,5.543-6.245,6.104c-0.14,0-0.14,0.211,0,0.281c3.157,0.561,5.613,3.017,6.245,6.104
					c0,0.14,0.281,0.14,0.281,0c0.631-3.087,3.087-5.543,6.245-6.104C118.75,249.72,118.75,249.51,118.61,249.51z"/>
			</g>
		</g>
		<g>
			<g>
				<path fill="#70D6F9" d="M201.7,194.1h-2.3v-2.3c0-1.7-1.4-3.2-3.2-3.2s-3.2,1.4-3.2,3.2v2.3h-2.3c-1.7,0-3.2,1.4-3.2,3.2
					c0,1.8,1.4,3.2,3.2,3.2h2.3v2.3c0,1.7,1.4,3.2,3.2,3.2s3.2-1.4,3.2-3.2v-2.3h2.3c1.7,0,3.2-1.4,3.2-3.2
					C204.9,195.5,203.5,194.1,201.7,194.1z"/>
			</g>
		</g>
		<g>
			<g>
				<path fill="#F5C84C" d="M177.8,216c-1.878,0-3.4,1.522-3.4,3.4c0,1.878,1.522,3.4,3.4,3.4c1.878,0,3.4-1.522,3.4-3.4
					C181.2,217.522,179.678,216,177.8,216z"/>
			</g>
		</g>
		<g>
			<g>
				<path fill="#87D147" d="M80.8,0c-1.878,0-3.4,1.522-3.4,3.4c0,1.878,1.522,3.4,3.4,3.4c1.878,0,3.4-1.522,3.4-3.4
					C84.2,1.522,82.678,0,80.8,0z"/>
			</g>
		</g>
		<g>
			<g>
				<g>
					<path d="M214.212,9.815H109.896c-15.477,0-28.067,12.591-28.067,28.067v79.955c0,15.477,12.591,28.067,28.067,28.067
						c0.933,0,1.691,0.759,1.691,1.691v23.498c0,3.217,1.959,5.993,4.99,7.07c0.844,0.3,1.706,0.445,2.555,0.445
						c2.201,0,4.313-0.979,5.778-2.779l22.795-28.007c0.993-1.22,2.464-1.919,4.037-1.919h62.47
						c15.477,0,28.068-12.591,28.068-28.067V37.882C242.28,22.406,229.689,9.815,214.212,9.815z M237.28,117.837
						c0,12.719-10.348,23.067-23.068,23.067h-62.47c-3.083,0-5.968,1.372-7.915,3.763l-22.795,28.007
						c-1.036,1.272-2.39,0.917-2.78,0.778c-0.391-0.139-1.665-0.719-1.665-2.359v-23.498c0-3.689-3.002-6.691-6.691-6.691
						c-12.719,0-23.067-10.348-23.067-23.067V37.882c0-12.719,10.348-23.067,23.067-23.067h104.316
						c12.72,0,23.068,10.348,23.068,23.067V117.837z"/>
				</g>
			</g>
		</g>
		<g>
			<g>
				<path d="M171.671,142c-1.381,0-2.5,1.119-2.5,2.5v40.916c0,12.719-10.348,23.067-23.067,23.067
					c-3.689,0-6.691,3.002-6.691,6.691v23.498c0,1.64-1.274,2.22-1.665,2.359c-0.392,0.138-1.745,0.492-2.78-0.779l-22.795-28.007
					c-1.947-2.391-4.831-3.762-7.914-3.762h-62.47c-12.719,0-23.067-10.348-23.067-23.067V105.46
					c0-12.719,10.348-23.067,23.067-23.067h41.754c1.381,0,2.5-1.119,2.5-2.5s-1.119-2.5-2.5-2.5H41.788
					c-15.477,0-28.067,12.591-28.067,28.067v79.955c0,15.477,12.591,28.067,28.067,28.067h62.47c1.572,0,3.044,0.7,4.037,1.919
					l22.795,28.007c1.465,1.801,3.577,2.779,5.778,2.779c0.849,0,1.711-0.146,2.555-0.445c3.031-1.078,4.99-3.853,4.99-7.07v-23.498
					c0-0.933,0.759-1.691,1.691-1.691c15.477,0,28.067-12.591,28.067-28.067V144.5C174.171,143.119,173.052,142,171.671,142z"/>
			</g>
		</g>
		<g>
			<g>
				<path d="M84.031,108h-42.31c-1.381,0-2.5,1.119-2.5,2.5s1.119,2.5,2.5,2.5h42.31c1.381,0,2.5-1.119,2.5-2.5
					S85.412,108,84.031,108z"/>
			</g>
		</g>
		<g>
			<g>
				<path d="M85.063,123.2H41.721c-1.381,0-2.5,1.119-2.5,2.5s1.119,2.5,2.5,2.5h43.343c1.381,0,2.5-1.119,2.5-2.5
					S86.444,123.2,85.063,123.2z"/>
			</g>
		</g>
		<g>
			<g>
				<path d="M98.594,138.4H41.721c-1.381,0-2.5,1.119-2.5,2.5s1.119,2.5,2.5,2.5h56.873c1.381,0,2.5-1.119,2.5-2.5
					S99.975,138.4,98.594,138.4z"/>
			</g>
		</g>
		<g>
			<g>
				<path d="M113.625,153.6H41.721c-1.381,0-2.5,1.119-2.5,2.5s1.119,2.5,2.5,2.5h71.904c1.381,0,2.5-1.119,2.5-2.5
					S115.006,153.6,113.625,153.6z"/>
			</g>
		</g>
		<g>
			<g>
				<path d="M146.378,184H41.721c-1.381,0-2.5,1.119-2.5,2.5s1.119,2.5,2.5,2.5h104.658c1.381,0,2.5-1.119,2.5-2.5
					S147.759,184,146.378,184z"/>
			</g>
		</g>
		<g>
			<g>
				<path d="M113.5,168.8H41.721c-1.381,0-2.5,1.119-2.5,2.5s1.119,2.5,2.5,2.5H113.5c1.381,0,2.5-1.119,2.5-2.5
					S114.88,168.8,113.5,168.8z"/>
			</g>
		</g>
		<g>
			<g>
				<g>
					<path d="M116.279,67.528c-6.05,0-10.972,4.922-10.972,10.972s4.922,10.972,10.972,10.972c6.05,0,10.972-4.922,10.972-10.972
						S122.329,67.528,116.279,67.528z M116.279,84.472c-3.293,0-5.972-2.679-5.972-5.972s2.679-5.972,5.972-5.972
						s5.972,2.679,5.972,5.972S119.572,84.472,116.279,84.472z"/>
				</g>
			</g>
		</g>
		<g>
			<g>
				<g>
					<path d="M147.102,67.528c-6.05,0-10.972,4.922-10.972,10.972s4.922,10.972,10.972,10.972c6.05,0,10.972-4.922,10.972-10.972
						S153.151,67.528,147.102,67.528z M147.102,84.472c-3.293,0-5.972-2.679-5.972-5.972s2.679-5.972,5.972-5.972
						s5.972,2.679,5.972,5.972S150.395,84.472,147.102,84.472z"/>
				</g>
			</g>
		</g>
		<g>
			<g>
				<g>
					<path d="M177.924,67.528c-6.05,0-10.972,4.922-10.972,10.972s4.922,10.972,10.972,10.972c6.05,0,10.972-4.922,10.972-10.972
						S183.974,67.528,177.924,67.528z M177.924,84.472c-3.293,0-5.972-2.679-5.972-5.972s2.679-5.972,5.972-5.972
						s5.972,2.679,5.972,5.972S181.217,84.472,177.924,84.472z"/>
				</g>
			</g>
		</g>
		<g>
			<g>
				<g>
					<path d="M208.747,67.528c-6.05,0-10.972,4.922-10.972,10.972s4.922,10.972,10.972,10.972c6.05,0,10.972-4.922,10.972-10.972
						S214.797,67.528,208.747,67.528z M208.747,84.472c-3.293,0-5.972-2.679-5.972-5.972s2.679-5.972,5.972-5.972
						s5.972,2.679,5.972,5.972S212.04,84.472,208.747,84.472z"/>
				</g>
			</g>
		</g>
	</g>
</g>
<g id="Layer_27">
</g>
<g id="Layer_28">
</g>
<g id="Layer_29">
</g>
<g id="Layer_30">
</g>
<g id="Layer_31">
</g>
<g id="Layer_32">
</g>
<g id="Layer_33">
</g>
<g id="Layer_34">
</g>
<g id="Layer_35">
</g>
<g id="Layer_36">
</g>
<g id="Layer_37">
</g>
<g id="Layer_38">
</g>
<g id="Layer_39">
</g>
<g id="Layer_40">
</g>
<g id="Layer_41">
</g>
<g id="Layer_42">
</g>
<g id="Layer_43">
</g>
<g id="Layer_44">
</g>
<g id="Layer_45">
</g>
<g id="Layer_46">
</g>
<g id="Layer_47">
</g>
<g id="Layer_48">
</g>
<g id="Layer_49">
</g>
<g id="Layer_50">
</g>
<g id="Layer_51">
</g>
<g id="Layer_52">
</g>
<g id="Layer_53">
</g>
<g id="Layer_54">
</g>
<g id="Layer_55">
</g>
<g id="Layer_56">
</g>
<g id="Layer_57">
</g>
<g id="Layer_58">
</g>
<g id="Layer_59">
</g>
<g id="Layer_60">
</g>
<g id="Layer_61">
</g>
<g id="Layer_62">
</g>
<g id="Layer_63">
</g>
<g id="Layer_64">
</g>
<g id="Layer_65">
</g>
<g id="Layer_66">
</g>
<g id="Layer_67">
</g>
<g id="Layer_68">
</g>
<g id="Layer_69">
</g>
<g id="Layer_70">
</g>
<g id="Layer_71">
</g>
<g id="Layer_72">
</g>
<g id="Layer_73">
</g>
<g id="Layer_74">
</g>
<g id="Layer_75">
</g>
<g id="Layer_76">
</g>
<g id="Layer_77">
</g>
<g id="Layer_78">
</g>
<g id="Layer_79">
</g>
<g id="Layer_80">
</g>
<g id="Layer_81">
</g>
<g id="Layer_82">
</g>
<g id="Layer_83">
</g>
<g id="Layer_84">
</g>
<g id="Layer_85">
</g>
<g id="Layer_86">
</g>
<g id="Layer_87">
</g>
<g id="Layer_88">
</g>
<g id="Layer_89">
</g>
<g id="Layer_90">
</g>
</svg>
