<?xml version="1.0" encoding="utf-8"?>
<!-- Generator: Adobe Illustrator 16.0.0, SVG Export Plug-In . SVG Version: 6.00 Build 0)  -->
<!DOCTYPE svg PUBLIC "-//W3C//DTD SVG 1.0//EN" "http://www.w3.org/TR/2001/REC-SVG-20010904/DTD/svg10.dtd">
<svg version="1.0" id="Layer_1" xmlns="http://www.w3.org/2000/svg" xmlns:xlink="http://www.w3.org/1999/xlink" x="0px" y="0px"
	 width="100px" height="100px" viewBox="0 0 100 100" enable-background="new 0 0 100 100" xml:space="preserve">
<path d="M83.333,10H16.667C13.001,10,10,13.001,10,16.667V50c0,3.666,3.001,6.666,6.667,6.666h66.666c3.666,0,6.667-3,6.667-6.666
	V16.667C90,13.001,86.999,10,83.333,10z M83.333,16.667v20H16.667v-20H83.333z M16.667,50v-6.667h66.666V50H16.667z"/>
<rect x="23.333" y="23.333" width="6.667" height="6.667"/>
<rect x="36.667" y="23.333" width="6.666" height="6.667"/>
<path d="M26.667,63.334c0,8.293-3.229,16.09-9.089,21.953L22.292,90c7.363-7.359,11.041-17.016,11.041-26.666H26.667z"/>
<path d="M73.333,63.334h-6.666c0,9.65,3.678,19.307,11.041,26.666l4.714-4.713C76.563,79.424,73.333,71.627,73.333,63.334z"/>
<rect x="40" y="63.334" width="6.667" height="26.666"/>
<rect x="53.333" y="63.334" width="6.667" height="26.666"/>
</svg>
