<?xml version="1.0" encoding="utf-8"?>
<!-- Generator: Adobe Illustrator 24.0.0, SVG Export Plug-In . SVG Version: 6.00 Build 0)  -->
<svg version="1.1" xmlns="http://www.w3.org/2000/svg" xmlns:xlink="http://www.w3.org/1999/xlink" x="0px" y="0px"
	 viewBox="0 0 256 256" enable-background="new 0 0 256 256" xml:space="preserve">
<g id="Layer_1">
</g>
<g id="Layer_2">
</g>
<g id="Layer_3">
</g>
<g id="Layer_4">
</g>
<g id="Layer_5">
</g>
<g id="Layer_6">
</g>
<g id="Layer_7">
</g>
<g id="Layer_8">
</g>
<g id="Layer_9">
</g>
<g id="Layer_10">
</g>
<g id="Layer_11">
</g>
<g id="Layer_12">
</g>
<g id="Layer_13">
</g>
<g id="Layer_14">
</g>
<g id="Layer_15">
</g>
<g id="Layer_16">
</g>
<g id="Layer_17">
</g>
<g id="Layer_18">
</g>
<g id="Layer_19">
</g>
<g id="Layer_20">
</g>
<g id="Layer_21">
</g>
<g id="Layer_22">
</g>
<g id="Layer_23">
</g>
<g id="Layer_24">
</g>
<g id="Layer_25">
</g>
<g id="Layer_26">
</g>
<g id="Layer_27">
</g>
<g id="Layer_28">
</g>
<g id="Layer_29">
	<g>
		<g>
			<g>
				<path fill="#DAE6F1" d="M250.633,109.134h-24.807c-1.354,0-2.505-0.953-2.798-2.275c-2.484-11.218-6.901-21.708-12.888-31.102
					c-0.728-1.142-0.587-2.63,0.371-3.588l17.544-17.544c1.119-1.119,1.119-2.933,0-4.053l-22.628-22.628
					c-1.119-1.119-2.934-1.119-4.053,0L183.83,45.49c-0.958,0.958-2.445,1.099-3.588,0.371
					c-9.394-5.987-19.884-10.404-31.102-12.888c-1.322-0.293-2.275-1.444-2.275-2.798V5.367c0-1.583-1.283-2.865-2.865-2.865h-32
					c-1.583,0-2.866,1.283-2.866,2.865v24.807c0,1.354-0.953,2.505-2.275,2.798c-11.218,2.484-21.708,6.901-31.102,12.888
					c-1.142,0.728-2.63,0.587-3.588-0.371L54.626,27.945c-1.119-1.119-2.933-1.119-4.053,0L27.945,50.573
					c-1.119,1.119-1.119,2.933,0,4.053L45.49,72.17c0.958,0.958,1.099,2.445,0.371,3.588c-5.987,9.394-10.404,19.884-12.888,31.102
					c-0.293,1.322-1.444,2.275-2.798,2.275H5.367c-1.583,0-2.866,1.283-2.866,2.865v32c0,1.583,1.283,2.865,2.866,2.865h24.807
					c1.354,0,2.505,0.953,2.798,2.275c2.484,11.218,6.901,21.708,12.888,31.102c0.728,1.142,0.587,2.63-0.371,3.588l-17.544,17.544
					c-1.119,1.119-1.119,2.933,0,4.052l22.628,22.628c1.119,1.119,2.933,1.119,4.053,0L72.17,210.51
					c0.958-0.958,2.445-1.099,3.588-0.371c9.394,5.987,19.884,10.404,31.102,12.888c1.322,0.293,2.275,1.444,2.275,2.798v24.807
					c0,1.583,1.283,2.865,2.866,2.865h32c1.583,0,2.865-1.283,2.865-2.865v-24.807c0-1.354,0.953-2.505,2.275-2.798
					c11.218-2.484,21.708-6.901,31.102-12.888c1.142-0.728,2.63-0.587,3.588,0.371l17.544,17.544c1.119,1.119,2.933,1.119,4.053,0
					l22.628-22.628c1.119-1.119,1.119-2.933,0-4.052L210.51,183.83c-0.958-0.958-1.099-2.445-0.371-3.588
					c5.987-9.394,10.404-19.885,12.888-31.102c0.293-1.322,1.444-2.275,2.798-2.275h24.807c1.583,0,2.865-1.283,2.865-2.865v-32
					C253.498,110.417,252.215,109.134,250.633,109.134z"/>
			</g>
		</g>
		<g>
			<g>
				<circle fill="#5290DB" cx="128" cy="128.547" r="72.807"/>
			</g>
		</g>
		<g>
			<g>
				<path fill="#FCA265" d="M128,65.739v10c9.61,0,18.62,2.593,26.391,7.097l4.998-8.656C150.146,68.823,139.429,65.739,128,65.739z
					"/>
			</g>
		</g>
		<g>
			<g>
				<path fill="#F98FA6" d="M182.366,97.158l-8.656,4.998c4.504,7.771,7.097,16.781,7.097,26.391v0.001h10v-0.001
					C190.808,117.117,187.724,106.401,182.366,97.158z"/>
			</g>
		</g>
		<g>
			<g>
				<path fill="#FCDD86" d="M96.612,74.18c-9.52,5.518-17.46,13.458-22.978,22.978l8.656,4.998
					c4.639-8.004,11.315-14.68,19.32-19.32L96.612,74.18z"/>
			</g>
		</g>
		<g>
			<g>
				<path fill="#B2E26D" d="M75.192,128.548h-10c0,11.429,3.084,22.145,8.441,31.387l8.656-4.998
					C77.785,147.167,75.193,138.157,75.192,128.548z"/>
			</g>
		</g>
		<g>
			<g>
				<path fill="#FC657E" d="M180.808,128.548c0,9.609-2.593,18.619-7.097,26.39l8.656,4.998c5.357-9.242,8.441-19.958,8.441-31.387
					H180.808z"/>
			</g>
		</g>
		<g>
			<g>
				<path fill="#87D147" d="M73.634,97.158c-5.357,9.242-8.441,19.959-8.441,31.389c0,0,0,0,0,0.001h10v-0.001
					c0-9.61,2.593-18.62,7.097-26.391L73.634,97.158z"/>
			</g>
		</g>
		<g>
			<g>
				<path fill="#F5C84C" d="M96.612,74.18l4.997,8.656c7.771-4.504,16.781-7.097,26.391-7.097v-10
					C116.57,65.739,105.854,68.823,96.612,74.18z"/>
			</g>
		</g>
		<g>
			<g>
				<path fill="#FC8C48" d="M159.388,74.18l-4.998,8.656c8.004,4.639,14.68,11.315,19.32,19.319l8.656-4.998
					C176.849,87.638,168.908,79.698,159.388,74.18z"/>
			</g>
		</g>
		<g>
			<g>
				<circle fill="#F98FA6" cx="128" cy="128.547" r="10.727"/>
			</g>
		</g>
		<g>
			<g>
				<path fill="#FC657E" d="M163.973,105.986c-4.992-0.175-9.934,1.057-14.26,3.555l-16.611,9.59
					c1.688,0.911,3.158,2.274,4.185,4.054s1.473,3.734,1.418,5.652l16.61-9.59c4.326-2.498,7.864-6.161,10.208-10.572
					C166.16,107.48,165.325,106.034,163.973,105.986z"/>
			</g>
		</g>
		<g>
			<g>
				<path fill="#F5C84C" d="M189.8,19.85c-4.5-0.8-8-4.3-8.9-8.7c0-0.2-0.4-0.2-0.4,0c-0.9,4.4-4.4,7.9-8.9,8.7
					c-0.2,0-0.2,0.3,0,0.4c4.5,0.8,8,4.3,8.9,8.7c0,0.2,0.4,0.2,0.4,0c0.9-4.4,4.4-7.9,8.9-8.7C190,20.15,190,19.85,189.8,19.85z"/>
			</g>
		</g>
		<g>
			<g>
				<path fill="#87D147" d="M24.61,87.21c-3.158-0.561-5.613-3.017-6.245-6.104c0-0.14-0.281-0.14-0.281,0
					c-0.631,3.087-3.087,5.543-6.245,6.104c-0.14,0-0.14,0.21,0,0.281c3.158,0.561,5.613,3.017,6.245,6.104
					c0,0.14,0.281,0.14,0.281,0c0.631-3.087,3.087-5.543,6.245-6.104C24.75,87.42,24.75,87.21,24.61,87.21z"/>
			</g>
		</g>
		<g>
			<g>
				<path fill="#70D6F9" d="M90.7,244.1h-2.3v-2.3c0-1.7-1.4-3.2-3.2-3.2S82,240,82,241.8v2.3h-2.3c-1.7,0-3.2,1.4-3.2,3.2
					c0,1.8,1.4,3.2,3.2,3.2H82v2.3c0,1.7,1.4,3.2,3.2,3.2s3.2-1.4,3.2-3.2v-2.3h2.3c1.7,0,3.2-1.4,3.2-3.2
					C93.9,245.5,92.5,244.1,90.7,244.1z"/>
			</g>
		</g>
		<g>
			<g>
				<path fill="#F5C84C" d="M163.8,233c-1.878,0-3.4,1.522-3.4,3.4c0,1.878,1.522,3.4,3.4,3.4c1.878,0,3.4-1.522,3.4-3.4
					C167.2,234.522,165.678,233,163.8,233z"/>
			</g>
		</g>
		<g>
			<g>
				<path fill="#FC657E" d="M162.8,0c-1.878,0-3.4,1.522-3.4,3.4c0,1.878,1.522,3.4,3.4,3.4c1.878,0,3.4-1.522,3.4-3.4
					C166.2,1.522,164.678,0,162.8,0z"/>
			</g>
		</g>
		<g>
			<g>
				<g>
					<path d="M250.633,106.634h-24.808c-0.169,0-0.315-0.13-0.357-0.315c-2.513-11.349-6.961-22.083-13.221-31.906
						c-0.102-0.16-0.089-0.355,0.031-0.476l17.544-17.544c2.092-2.092,2.092-5.496,0-7.587l-22.628-22.628
						c-2.092-2.093-5.496-2.093-7.588,0l-17.544,17.544c-0.121,0.122-0.313,0.135-0.477,0.031
						c-9.821-6.259-20.556-10.708-31.904-13.221c-0.186-0.041-0.315-0.188-0.315-0.357V5.367c0-2.958-2.407-5.366-5.366-5.366h-32
						c-2.959,0-5.366,2.407-5.366,5.366v24.807c0,0.169-0.13,0.316-0.314,0.357c-11.35,2.513-22.084,6.961-31.904,13.22
						c-0.164,0.105-0.356,0.091-0.478-0.03L56.394,26.178c-2.092-2.093-5.496-2.093-7.588,0L26.178,48.806
						c-2.092,2.092-2.092,5.496,0,7.587l17.544,17.545c0.12,0.12,0.133,0.315,0.03,0.476c-6.259,9.822-10.707,20.557-13.22,31.905
						c-0.042,0.186-0.188,0.316-0.357,0.316H5.367c-2.958,0-5.365,2.407-5.365,5.366v32c0,2.958,2.407,5.366,5.365,5.366h24.808
						c0.169,0,0.315,0.13,0.357,0.315c2.513,11.349,6.961,22.083,13.221,31.906c0.102,0.16,0.089,0.355-0.031,0.476l-17.544,17.544
						c-2.092,2.092-2.092,5.496,0,7.587l22.628,22.628c2.092,2.093,5.496,2.093,7.588,0l17.544-17.544
						c0.121-0.122,0.314-0.135,0.477-0.031c9.821,6.259,20.556,10.708,31.904,13.221c0.186,0.041,0.315,0.188,0.315,0.357v24.807
						c0,2.958,2.407,5.366,5.366,5.366h32c2.959,0,5.366-2.407,5.366-5.366v-24.807c0-0.169,0.13-0.316,0.314-0.357
						c11.35-2.513,22.084-6.961,31.904-13.22c0.165-0.105,0.356-0.091,0.478,0.03l17.544,17.544c2.092,2.093,5.496,2.093,7.588,0
						l22.628-22.628c2.092-2.092,2.092-5.496,0-7.587l-17.544-17.545c-0.12-0.12-0.133-0.315-0.03-0.476
						c6.259-9.822,10.707-20.557,13.22-31.905c0.042-0.186,0.188-0.316,0.357-0.316h24.808c2.958,0,5.365-2.407,5.365-5.366v-32
						C255.998,109.042,253.591,106.634,250.633,106.634z M250.998,144c0,0.202-0.164,0.366-0.365,0.366h-24.808
						c-2.532,0-4.687,1.741-5.238,4.234c-2.387,10.777-6.611,20.971-12.555,30.298c-1.374,2.153-1.081,4.908,0.711,6.699
						l17.544,17.544c0.143,0.143,0.143,0.375,0,0.517l-22.628,22.628c-0.143,0.143-0.375,0.143-0.518,0l-17.544-17.545
						c-1.792-1.791-4.548-2.083-6.699-0.711c-9.327,5.945-19.521,10.169-30.299,12.556c-2.492,0.552-4.233,2.707-4.233,5.239v24.807
						c0,0.202-0.164,0.366-0.366,0.366h-32c-0.202,0-0.366-0.164-0.366-0.366v-24.807c0-2.532-1.741-4.687-4.234-5.239
						c-10.777-2.386-20.971-6.611-30.299-12.556c-0.906-0.577-1.919-0.859-2.921-0.859c-1.38,0-2.74,0.535-3.777,1.572
						l-17.544,17.544c-0.143,0.143-0.375,0.143-0.518,0l-22.628-22.628c-0.143-0.143-0.143-0.375,0-0.517l17.544-17.544
						c1.792-1.792,2.085-4.546,0.712-6.699c-5.944-9.328-10.169-19.522-12.556-30.299c-0.552-2.493-2.706-4.234-5.238-4.234H5.367
						c-0.201,0-0.365-0.164-0.365-0.366v-32c0-0.202,0.164-0.366,0.365-0.366h24.808c2.532,0,4.687-1.741,5.238-4.234
						c2.387-10.777,6.611-20.971,12.555-30.298c1.374-2.153,1.081-4.908-0.711-6.699L29.713,52.858
						c-0.143-0.143-0.143-0.375,0-0.517l22.628-22.628c0.143-0.143,0.375-0.143,0.518,0l17.544,17.545
						c1.791,1.791,4.547,2.082,6.699,0.711C86.429,42.024,96.622,37.8,107.4,35.414c2.492-0.552,4.233-2.707,4.233-5.239V5.367
						c0-0.202,0.164-0.366,0.366-0.366h32c0.202,0,0.366,0.164,0.366,0.366v24.807c0,2.532,1.741,4.687,4.234,5.239
						c10.777,2.386,20.971,6.611,30.299,12.556c2.154,1.371,4.909,1.078,6.698-0.712l17.544-17.544c0.143-0.143,0.375-0.143,0.518,0
						l22.628,22.628c0.143,0.143,0.143,0.375,0,0.517l-17.544,17.544c-1.792,1.792-2.085,4.546-0.712,6.699
						c5.944,9.328,10.169,19.522,12.556,30.299c0.552,2.493,2.706,4.234,5.238,4.234h24.808c0.201,0,0.365,0.164,0.365,0.366V144z"
						/>
				</g>
			</g>
		</g>
		<g>
			<g>
				<path d="M128.583,126h-1.166c-1.381,0-2.5,1.119-2.5,2.5s1.119,2.5,2.5,2.5h1.166c1.381,0,2.5-1.119,2.5-2.5
					S129.964,126,128.583,126z"/>
			</g>
		</g>
		<g>
			<g>
				<path d="M128,64.239c-1.381,0-2.5,1.119-2.5,2.5v11c0,1.381,1.119,2.5,2.5,2.5s2.5-1.119,2.5-2.5v-11
					C130.5,65.358,129.381,64.239,128,64.239z"/>
			</g>
		</g>
		<g>
			<g>
				<path d="M104.762,83.296l-5.5-9.526c-0.69-1.198-2.222-1.605-3.415-0.915c-1.195,0.69-1.605,2.219-0.915,3.415l5.5,9.526
					c0.463,0.802,1.304,1.25,2.167,1.25c0.425,0,0.854-0.108,1.248-0.335C105.042,86.021,105.452,84.492,104.762,83.296z"/>
			</g>
		</g>
		<g>
			<g>
				<path d="M85.25,100.978l-9.526-5.5c-1.194-0.69-2.725-0.281-3.415,0.915s-0.28,2.725,0.915,3.415l9.526,5.5
					c0.394,0.228,0.823,0.335,1.248,0.335c0.863,0,1.704-0.449,2.167-1.25C86.855,103.197,86.445,101.668,85.25,100.978z"/>
			</g>
		</g>
		<g>
			<g>
				<path d="M182.776,157.285l-9.526-5.5c-1.193-0.69-2.725-0.281-3.415,0.915s-0.28,2.725,0.915,3.415l9.526,5.5
					c0.394,0.228,0.823,0.335,1.248,0.335c0.863,0,1.704-0.449,2.167-1.25C184.382,159.504,183.972,157.976,182.776,157.285z"/>
			</g>
		</g>
		<g>
			<g>
				<path d="M77.192,126.046h-11c-1.381,0-2.5,1.119-2.5,2.5s1.119,2.5,2.5,2.5h11c1.381,0,2.5-1.119,2.5-2.5
					S78.573,126.046,77.192,126.046z"/>
			</g>
		</g>
		<g>
			<g>
				<path d="M189.808,126.047h-11c-1.381,0-2.5,1.119-2.5,2.5s1.119,2.5,2.5,2.5h11c1.381,0,2.5-1.119,2.5-2.5
					S191.188,126.047,189.808,126.047z"/>
			</g>
		</g>
		<g>
			<g>
				<path d="M86.165,152.7c-0.69-1.197-2.222-1.605-3.415-0.915l-9.526,5.5c-1.195,0.69-1.605,2.219-0.915,3.415
					c0.463,0.802,1.304,1.25,2.167,1.25c0.425,0,0.854-0.108,1.248-0.335l9.526-5.5C86.445,155.425,86.855,153.896,86.165,152.7z"/>
			</g>
		</g>
		<g>
			<g>
				<path d="M183.691,96.393c-0.69-1.197-2.221-1.605-3.415-0.915l-9.526,5.5c-1.195,0.69-1.605,2.219-0.915,3.415
					c0.463,0.802,1.304,1.25,2.167,1.25c0.425,0,0.854-0.108,1.248-0.335l9.526-5.5C183.972,99.118,184.382,97.589,183.691,96.393z"
					/>
			</g>
		</g>
		<g>
			<g>
				<path d="M160.153,72.855c-1.193-0.69-2.725-0.281-3.415,0.915l-5.5,9.526c-0.69,1.196-0.28,2.725,0.915,3.415
					c0.394,0.228,0.823,0.335,1.248,0.335c0.863,0,1.704-0.449,2.167-1.25l5.5-9.526C161.759,75.074,161.349,73.545,160.153,72.855z
					"/>
			</g>
		</g>
		<g>
			<g>
				<path d="M143.059,152.27h-30.117c-1.381,0-2.5,1.119-2.5,2.5s1.119,2.5,2.5,2.5h30.117c1.381,0,2.5-1.119,2.5-2.5
					S144.439,152.27,143.059,152.27z"/>
			</g>
		</g>
		<g>
			<g>
				<path d="M140.047,162.27h-24.094c-1.381,0-2.5,1.119-2.5,2.5s1.119,2.5,2.5,2.5h24.094c1.381,0,2.5-1.119,2.5-2.5
					S141.428,162.27,140.047,162.27z"/>
			</g>
		</g>
		<g>
			<g>
				<g>
					<g>
						<path d="M128,53.239c-41.524,0-75.308,33.783-75.308,75.308c0,41.524,33.783,75.307,75.308,75.307
							s75.308-33.783,75.308-75.307C203.308,87.022,169.524,53.239,128,53.239z M128,198.854c-38.768,0-70.308-31.54-70.308-70.307
							S89.232,58.239,128,58.239s70.308,31.54,70.308,70.308S166.768,198.854,128,198.854z"/>
					</g>
				</g>
			</g>
		</g>
		<g>
			<g>
				<g>
					<path d="M128,63.239c-36.011,0-65.308,29.297-65.308,65.308c0,11.447,3.035,22.735,8.778,32.642
						c0.692,1.194,2.222,1.599,3.413,0.911l8.655-4.998c0.575-0.332,0.994-0.879,1.165-1.52c0.172-0.642,0.081-1.324-0.252-1.899
						c-4.422-7.629-6.76-16.321-6.76-25.137c0-27.74,22.568-50.308,50.308-50.308s50.308,22.568,50.308,50.308
						c0,8.815-2.338,17.507-6.76,25.137c-0.333,0.575-0.424,1.257-0.252,1.899c0.171,0.641,0.59,1.188,1.165,1.52l8.655,4.998
						c0.394,0.228,0.823,0.335,1.248,0.335c0.862,0,1.701-0.447,2.165-1.247c5.743-9.907,8.778-21.195,8.778-32.642
						C193.308,92.536,164.011,63.239,128,63.239z M181.41,156.496l-4.33-2.5c4.081-7.844,6.228-16.59,6.228-25.449
						c0-30.497-24.811-55.308-55.308-55.308S72.692,98.05,72.692,128.547c0,8.859,2.146,17.605,6.228,25.449l-4.33,2.5
						c-4.52-8.604-6.897-18.214-6.897-27.949c0-33.254,27.054-60.308,60.308-60.308s60.308,27.054,60.308,60.308
						C188.308,138.282,185.93,147.892,181.41,156.496z"/>
				</g>
			</g>
		</g>
		<g>
			<g>
				<g>
					<path d="M128,115.32c-7.293,0-13.227,5.934-13.227,13.227c0,7.293,5.934,13.227,13.227,13.227s13.227-5.934,13.227-13.227
						C141.227,121.253,135.293,115.32,128,115.32z M128,136.773c-4.536,0-8.227-3.69-8.227-8.227c0-4.537,3.69-8.227,8.227-8.227
						s8.227,3.69,8.227,8.227C136.227,133.083,132.536,136.773,128,136.773z"/>
				</g>
			</g>
		</g>
		<g>
			<g>
				<path d="M167.659,105.652c-0.751-1.302-2.097-2.111-3.599-2.164c-5.47-0.187-10.86,1.153-15.598,3.888l-16.058,9.271
					c-1.195,0.69-1.605,2.219-0.915,3.415c0.69,1.197,2.222,1.605,3.415,0.915l16.058-9.271c3.604-2.08,7.664-3.189,11.81-3.235
					c-2.112,3.568-5.104,6.53-8.706,8.61l-16.027,9.253c-1.195,0.69-1.605,2.219-0.915,3.415c0.463,0.802,1.304,1.25,2.167,1.25
					c0.425,0,0.854-0.108,1.248-0.335l16.027-9.253c4.737-2.735,8.598-6.733,11.165-11.562
					C168.438,108.523,168.41,106.954,167.659,105.652z"/>
			</g>
		</g>
	</g>
</g>
<g id="Layer_30">
</g>
<g id="Layer_31">
</g>
<g id="Layer_32">
</g>
<g id="Layer_33">
</g>
<g id="Layer_34">
</g>
<g id="Layer_35">
</g>
<g id="Layer_36">
</g>
<g id="Layer_37">
</g>
<g id="Layer_38">
</g>
<g id="Layer_39">
</g>
<g id="Layer_40">
</g>
<g id="Layer_41">
</g>
<g id="Layer_42">
</g>
<g id="Layer_43">
</g>
<g id="Layer_44">
</g>
<g id="Layer_45">
</g>
<g id="Layer_46">
</g>
<g id="Layer_47">
</g>
<g id="Layer_48">
</g>
<g id="Layer_49">
</g>
<g id="Layer_50">
</g>
<g id="Layer_51">
</g>
<g id="Layer_52">
</g>
<g id="Layer_53">
</g>
<g id="Layer_54">
</g>
<g id="Layer_55">
</g>
<g id="Layer_56">
</g>
<g id="Layer_57">
</g>
<g id="Layer_58">
</g>
<g id="Layer_59">
</g>
<g id="Layer_60">
</g>
<g id="Layer_61">
</g>
<g id="Layer_62">
</g>
<g id="Layer_63">
</g>
<g id="Layer_64">
</g>
<g id="Layer_65">
</g>
<g id="Layer_66">
</g>
<g id="Layer_67">
</g>
<g id="Layer_68">
</g>
<g id="Layer_69">
</g>
<g id="Layer_70">
</g>
<g id="Layer_71">
</g>
<g id="Layer_72">
</g>
<g id="Layer_73">
</g>
<g id="Layer_74">
</g>
<g id="Layer_75">
</g>
<g id="Layer_76">
</g>
<g id="Layer_77">
</g>
<g id="Layer_78">
</g>
<g id="Layer_79">
</g>
<g id="Layer_80">
</g>
<g id="Layer_81">
</g>
<g id="Layer_82">
</g>
<g id="Layer_83">
</g>
<g id="Layer_84">
</g>
<g id="Layer_85">
</g>
<g id="Layer_86">
</g>
<g id="Layer_87">
</g>
<g id="Layer_88">
</g>
<g id="Layer_89">
</g>
<g id="Layer_90">
</g>
</svg>
