<?xml version="1.0" encoding="utf-8"?>
<!-- Generator: Adobe Illustrator 24.0.0, SVG Export Plug-In . SVG Version: 6.00 Build 0)  -->
<svg version="1.1" xmlns="http://www.w3.org/2000/svg" xmlns:xlink="http://www.w3.org/1999/xlink" x="0px" y="0px"
	 viewBox="0 0 256 256" enable-background="new 0 0 256 256" xml:space="preserve">
<g id="Layer_1">
</g>
<g id="Layer_2">
</g>
<g id="Layer_3">
</g>
<g id="Layer_4">
</g>
<g id="Layer_5">
</g>
<g id="Layer_6">
</g>
<g id="Layer_7">
</g>
<g id="Layer_8">
</g>
<g id="Layer_9">
</g>
<g id="Layer_10">
</g>
<g id="Layer_11">
</g>
<g id="Layer_12">
</g>
<g id="Layer_13">
	<g>
		<g>
			<g>
				<path fill="#9BE5F9" d="M247.232,158.928c-1.759-3.064-5.668-4.122-8.733-2.364l-11.36,6.52
					c16.376-62.431-23.647-125.738-86.853-137.751c-3.463-0.659-6.819,1.619-7.479,5.09c-0.66,3.471,1.619,6.819,5.09,7.479
					c55.98,10.64,91.186,66.607,76.954,121.621l-6.36-11.082c-1.759-3.064-5.665-4.122-8.734-2.364
					c-3.063,1.759-4.122,5.668-2.364,8.733l14.127,24.613c1.75,3.049,5.656,4.13,8.733,2.364l24.613-14.127
					C247.932,165.902,248.991,161.992,247.232,158.928z"/>
			</g>
		</g>
		<g>
			<g>
				<path fill="#3CAADC" d="M107.325,24.926L82.784,10.675c-3.055-1.774-6.97-0.736-8.745,2.319
					c-1.774,3.055-0.736,6.97,2.319,8.745l10.924,6.344C26.675,46.24-6.683,111.59,14.112,171.387
					c1.166,3.354,4.824,5.096,8.143,3.941c3.337-1.16,5.101-4.806,3.941-8.143C7.797,114.268,37.312,56.391,90.983,40.328
					l-6.654,11.458c-1.774,3.055-0.736,6.97,2.319,8.745c3.054,1.774,6.97,0.736,8.745-2.319l14.252-24.541
					C111.418,30.618,110.38,26.7,107.325,24.926z"/>
			</g>
		</g>
		<g>
			<g>
				<path fill="#70D6F9" d="M203.023,198.601c-2.674-2.311-6.713-2.018-9.023,0.655c-37.899,43.826-105.084,45.68-145.355,4.255
					l12.99,0.033h0.017c3.525,0,6.388-2.853,6.397-6.381c0.009-3.533-2.848-6.404-6.381-6.413l-28.378-0.072h-0.017
					c-3.525,0-6.388,2.853-6.397,6.381l-0.072,28.378c-0.009,3.533,2.848,6.404,6.381,6.413h0.017c3.525,0,6.388-2.853,6.397-6.381
					l0.033-12.879c45.694,46.814,121.448,44.298,164.046-4.966C205.988,204.952,205.694,200.912,203.023,198.601z"/>
			</g>
		</g>
		<g>
			<g>
				<polygon fill="#EDB311" points="62.958,100.685 62.958,167.684 118.445,193.324 118.445,126.324 				"/>
			</g>
		</g>
		<g>
			<g>
				<path fill="#F5C84C" d="M162,134.94c-11.499,0-21.369-6.959-25.637-16.895l-17.918,8.279v66.999l55.487-25.64v-35.422
					C170.314,133.977,166.27,134.94,162,134.94z"/>
			</g>
		</g>
		<g>
			<g>
				<path fill="#FCDD86" d="M143.727,85.982l-25.282-12.306l-55.487,27.009l55.487,25.64l17.918-8.279
					c-1.45-3.375-2.256-7.092-2.256-10.998C134.106,98.634,137.836,91.096,143.727,85.982z"/>
			</g>
		</g>
		<g>
			<g>
				
					<ellipse transform="matrix(0.3827 -0.9239 0.9239 0.3827 1.1069 215.7498)" fill="#87D147" cx="162" cy="107.047" rx="27.893" ry="27.893"/>
			</g>
		</g>
		<g>
			<g>
				<path fill="#EDF4FC" d="M175.171,99.146c-2.005-2.004-5.255-2.004-7.26,0l-8.237,8.237l-4.129-4.129
					c-2.005-2.004-5.255-2.004-7.26,0c-2.005,2.005-2.005,5.255,0,7.26l7.759,7.759c1.003,1.002,2.316,1.503,3.63,1.503
					s2.628-0.501,3.63-1.503l11.867-11.867C177.176,104.401,177.176,101.151,175.171,99.146z"/>
			</g>
		</g>
		<g>
			<g>
				<path fill="#F5C84C" d="M193.8,15.397c-4.5-0.8-8-4.3-8.9-8.7c0-0.2-0.4-0.2-0.4,0c-0.9,4.4-4.4,7.9-8.9,8.7
					c-0.2,0-0.2,0.3,0,0.4c4.5,0.8,8,4.3,8.9,8.7c0,0.2,0.4,0.2,0.4,0c0.9-4.4,4.4-7.9,8.9-8.7C194,15.697,194,15.397,193.8,15.397z
					"/>
			</g>
		</g>
		<g>
			<g>
				<path fill="#FC657E" d="M61.61,249.51c-3.158-0.561-5.613-3.017-6.245-6.104c0-0.14-0.281-0.14-0.281,0
					c-0.631,3.087-3.087,5.543-6.245,6.104c-0.14,0-0.14,0.211,0,0.281c3.158,0.561,5.613,3.017,6.245,6.104
					c0,0.14,0.281,0.14,0.281,0c0.631-3.087,3.087-5.543,6.245-6.104C61.75,249.72,61.75,249.51,61.61,249.51z"/>
			</g>
		</g>
		<g>
			<g>
				<path fill="#87D147" d="M233.7,215.647h-2.3v-2.3c0-1.7-1.4-3.2-3.2-3.2s-3.2,1.4-3.2,3.2v2.3h-2.3c-1.7,0-3.2,1.4-3.2,3.2
					s1.4,3.2,3.2,3.2h2.3v2.3c0,1.7,1.4,3.2,3.2,3.2s3.2-1.4,3.2-3.2v-2.3h2.3c1.7,0,3.2-1.4,3.2-3.2S235.5,215.647,233.7,215.647z"
					/>
			</g>
		</g>
		<g>
			<g>
				<path fill="#70D6F9" d="M148.8,0c-1.878,0-3.4,1.522-3.4,3.4c0,1.878,1.522,3.4,3.4,3.4s3.4-1.522,3.4-3.4
					C152.2,1.522,150.677,0,148.8,0z"/>
			</g>
		</g>
		<g>
			<g>
				<path fill="#F5C84C" d="M204.8,234c-1.878,0-3.4,1.522-3.4,3.4c0,1.878,1.522,3.4,3.4,3.4s3.4-1.522,3.4-3.4
					C208.2,235.522,206.677,234,204.8,234z"/>
			</g>
		</g>
		<g>
			<g>
				<g>
					<path d="M249.4,157.683c-2.442-4.254-7.892-5.729-12.145-3.288l-6.358,3.649c6.108-29.078,0.776-58.733-15.245-84.105
						c-17.04-26.987-43.64-45.121-74.898-51.063c-2.331-0.443-4.698,0.048-6.664,1.385c-1.967,1.337-3.294,3.36-3.738,5.694
						c-0.444,2.335,0.048,4.703,1.386,6.667c1.337,1.965,3.359,3.291,5.694,3.735c26.303,4.999,48.703,20.241,63.076,42.917
						c13.278,20.951,17.921,45.382,13.316,69.433l-3.164-5.512c-2.441-4.252-7.891-5.726-12.146-3.287
						c-4.253,2.442-5.729,7.89-3.287,12.145l14.128,24.612c1.18,2.056,3.09,3.532,5.379,4.156c0.778,0.212,1.567,0.317,2.353,0.317
						c1.533,0,3.047-0.4,4.413-1.185l24.613-14.127c2.062-1.183,3.539-3.098,4.16-5.392
						C250.894,162.143,250.584,159.744,249.4,157.683z M245.446,163.13c-0.272,1.005-0.92,1.843-1.822,2.361L219.01,179.62
						c-0.904,0.52-1.957,0.654-2.961,0.38c-1.004-0.273-1.842-0.92-2.358-1.82l-14.127-24.612c-1.069-1.864-0.424-4.25,1.438-5.319
						c0.61-0.35,1.277-0.516,1.935-0.516c1.353,0,2.668,0.702,3.388,1.955l6.36,11.082c0.506,0.881,1.495,1.37,2.502,1.233
						c1.007-0.136,1.832-0.868,2.086-1.852c6.978-26.971,2.406-55.966-12.542-79.55c-15.121-23.857-38.689-39.893-66.365-45.153
						c-1.023-0.194-1.909-0.775-2.495-1.636c-0.586-0.86-0.801-1.897-0.606-2.92c0.194-1.022,0.776-1.908,1.638-2.494
						c0.861-0.585,1.899-0.802,2.919-0.607c29.882,5.68,55.312,23.018,71.604,48.82c16.316,25.84,21.039,56.325,13.297,85.841
						c-0.256,0.975,0.099,2.007,0.898,2.62c0.802,0.612,1.891,0.684,2.764,0.183l11.36-6.521c1.866-1.07,4.25-0.423,5.32,1.44
						C245.582,161.075,245.718,162.125,245.446,163.13z"/>
				</g>
			</g>
		</g>
		<g>
			<g>
				<g>
					<path d="M112.712,28.178c-0.609-2.298-2.077-4.221-4.131-5.414L84.04,8.513c-4.242-2.463-9.698-1.016-12.162,3.226
						c-2.463,4.243-1.016,9.699,3.226,12.162l6.093,3.538c-27.492,9.708-49.807,29.242-63.228,55.497
						c-14.3,27.978-16.508,59.682-6.218,89.272c0.783,2.251,2.396,4.06,4.541,5.093c1.224,0.589,2.537,0.886,3.856,0.886
						c0.984,0,1.972-0.165,2.928-0.498c4.634-1.611,7.093-6.691,5.481-11.326c-8.683-24.972-6.814-51.732,5.262-75.35
						c11.053-21.615,29.249-37.829,51.67-46.205l-3.323,5.722c-1.193,2.055-1.515,4.452-0.906,6.749
						c0.609,2.297,2.077,4.219,4.131,5.413c4.244,2.465,9.698,1.017,12.163-3.226l14.251-24.541
						C113,32.873,113.321,30.476,112.712,28.178z M107.482,32.416l-14.251,24.54c-1.08,1.859-3.469,2.493-5.328,1.413
						c-0.9-0.522-1.543-1.365-1.81-2.371c-0.267-1.006-0.125-2.056,0.397-2.957l6.654-11.458c0.515-0.887,0.436-1.998-0.199-2.803
						c-0.635-0.806-1.7-1.141-2.68-0.847c-26.587,7.958-48.214,26-60.898,50.805c-12.704,24.844-14.669,52.996-5.533,79.269
						c0.706,2.03-0.371,4.255-2.401,4.961c-0.98,0.342-2.037,0.28-2.973-0.17c-0.939-0.452-1.645-1.244-1.988-2.23
						c-9.838-28.29-7.726-58.603,5.947-85.354C36.078,58.494,59.367,39.056,88,30.478c0.955-0.286,1.648-1.112,1.766-2.102
						c0.117-0.99-0.366-1.955-1.228-2.455l-10.924-6.344c-1.858-1.079-2.492-3.469-1.413-5.327c0.723-1.244,2.033-1.939,3.377-1.939
						c0.664,0,1.336,0.169,1.95,0.526l24.542,14.251c0.899,0.522,1.542,1.364,1.809,2.371
						C108.146,30.466,108.005,31.516,107.482,32.416z"/>
				</g>
			</g>
		</g>
		<g>
			<g>
				<g>
					<path d="M207.712,202.796c-0.172-2.37-1.257-4.531-3.054-6.086c-0.001,0-0.001,0-0.001,0c-1.798-1.555-4.101-2.319-6.464-2.144
						c-2.37,0.172-4.531,1.257-6.084,3.055c-17.587,20.336-43.075,32.449-69.93,33.231c-24.82,0.727-49.017-8.265-67.327-24.826
						l6.799,0.017c4.893,0,8.884-3.981,8.897-8.875c0.012-4.906-3.969-8.908-8.875-8.92l-28.401-0.072
						c-4.894,0-8.885,3.981-8.897,8.875l-0.072,28.378c-0.006,2.376,0.914,4.613,2.59,6.297c1.676,1.685,3.908,2.616,6.308,2.622
						c4.894,0,8.884-3.981,8.896-8.875l0.018-6.985c20.989,19.351,48.678,30.2,77.256,30.2c1.132,0,2.269-0.017,3.403-0.051
						c31.806-0.96,61.982-15.313,82.792-39.38C207.122,207.462,207.884,205.167,207.712,202.796z M201.786,205.989
						c-19.897,23.011-48.751,36.735-79.162,37.652c-30.829,0.928-59.654-10.718-81.205-32.797c-0.48-0.492-1.128-0.754-1.79-0.754
						c-0.316,0-0.635,0.06-0.939,0.184c-0.941,0.381-1.558,1.294-1.56,2.31l-0.033,12.879c-0.005,2.144-1.753,3.887-3.907,3.887
						c-1.041-0.002-2.019-0.41-2.753-1.148c-0.734-0.738-1.137-1.717-1.134-2.758l0.072-28.378c0.005-2.144,1.753-3.887,3.907-3.887
						l28.378,0.072c1.041,0.002,2.019,0.411,2.753,1.148s1.137,1.718,1.135,2.759c-0.006,2.144-1.754,3.887-3.907,3.887
						l-12.99-0.033c-0.002,0-0.004,0-0.006,0c-1.003,0-1.91,0.6-2.302,1.524c-0.393,0.926-0.192,1.998,0.509,2.719
						c19.704,20.269,47.209,31.413,75.472,30.597c28.252-0.823,55.066-13.565,73.567-34.959c0.681-0.788,1.626-1.263,2.664-1.338
						c1.038-0.076,2.044,0.259,2.832,0.939c0.787,0.681,1.262,1.627,1.337,2.666C202.801,204.196,202.467,205.201,201.786,205.989z"
						/>
				</g>
			</g>
		</g>
		<g>
			<g>
				<g>
					<path d="M119.494,124.055L64.006,98.416c-0.774-0.358-1.677-0.296-2.396,0.164c-0.719,0.459-1.153,1.253-1.153,2.106v66.999
						c0,0.975,0.566,1.86,1.451,2.27l55.487,25.64c0.334,0.154,0.692,0.23,1.049,0.23c0.47,0,0.938-0.133,1.347-0.394
						c0.719-0.459,1.153-1.253,1.153-2.106v-67C120.945,125.35,120.378,124.464,119.494,124.055z M115.945,189.415l-50.487-23.329
						v-61.491l50.487,23.329V189.415z"/>
				</g>
			</g>
		</g>
		<g>
			<g>
				<path d="M173.932,130.917c-1.381,0-2.5,1.119-2.5,2.5v32.669l-54.036,24.969c-1.253,0.579-1.8,2.065-1.221,3.318
					c0.422,0.914,1.327,1.452,2.271,1.452c0.351,0,0.708-0.074,1.047-0.231l55.487-25.64c0.885-0.409,1.451-1.295,1.451-2.27
					v-34.268C176.432,132.036,175.312,130.917,173.932,130.917z"/>
			</g>
		</g>
		<g>
			<g>
				<path d="M144.091,83.379l-24.552-11.951c-0.691-0.336-1.498-0.336-2.188,0L61.863,98.437c-1.241,0.604-1.758,2.101-1.154,3.342
					c0.433,0.889,1.323,1.406,2.25,1.406c0.367,0,0.74-0.081,1.092-0.252l54.393-26.477l23.458,11.419
					c1.239,0.604,2.738,0.087,3.342-1.154C145.85,85.48,145.333,83.984,144.091,83.379z"/>
			</g>
		</g>
		<g>
			<g>
				<path d="M138.064,117.258c-0.579-1.252-2.062-1.799-3.318-1.221l-17.35,8.017c-1.253,0.579-1.8,2.065-1.221,3.318
					c0.422,0.914,1.327,1.452,2.271,1.452c0.351,0,0.708-0.074,1.047-0.231l17.35-8.017
					C138.097,119.998,138.644,118.512,138.064,117.258z"/>
			</g>
		</g>
		<g>
			<g>
				<g>
					<path d="M162,76.653c-16.759,0-30.394,13.634-30.394,30.393c0,16.759,13.635,30.394,30.394,30.394s30.393-13.634,30.393-30.394
						C192.393,90.288,178.759,76.653,162,76.653z M162,132.44c-14.002,0-25.394-11.392-25.394-25.394S147.998,81.653,162,81.653
						s25.393,11.391,25.393,25.393S176.002,132.44,162,132.44z"/>
				</g>
			</g>
		</g>
		<g>
			<g>
				<g>
					<g>
						<path d="M176.939,97.377c-2.979-2.975-7.819-2.975-10.796,0.001l-6.47,6.469l-2.361-2.361c-2.977-2.976-7.818-2.975-10.795,0
							c-2.977,2.976-2.977,7.819,0,10.795l7.76,7.76c1.442,1.441,3.358,2.235,5.396,2.235s3.955-0.793,5.398-2.236l11.868-11.867
							C179.915,105.197,179.915,100.355,176.939,97.377z M173.404,104.639l-11.866,11.866c-0.996,0.995-2.729,0.995-3.727,0.001
							l-7.759-7.759c-1.026-1.027-1.026-2.698,0-3.725c0.514-0.514,1.188-0.77,1.862-0.77s1.349,0.256,1.862,0.77l4.129,4.129
							c0.977,0.977,2.559,0.977,3.535,0l8.237-8.236c1.026-1.027,2.698-1.027,3.725,0
							C174.431,101.94,174.431,103.612,173.404,104.639z"/>
					</g>
				</g>
			</g>
		</g>
	</g>
</g>
<g id="Layer_14">
</g>
<g id="Layer_15">
</g>
<g id="Layer_16">
</g>
<g id="Layer_17">
</g>
<g id="Layer_18">
</g>
<g id="Layer_19">
</g>
<g id="Layer_20">
</g>
<g id="Layer_21">
</g>
<g id="Layer_22">
</g>
<g id="Layer_23">
</g>
<g id="Layer_24">
</g>
<g id="Layer_25">
</g>
<g id="Layer_26">
</g>
<g id="Layer_27">
</g>
<g id="Layer_28">
</g>
<g id="Layer_29">
</g>
<g id="Layer_30">
</g>
<g id="Layer_31">
</g>
<g id="Layer_32">
</g>
<g id="Layer_33">
</g>
<g id="Layer_34">
</g>
<g id="Layer_35">
</g>
<g id="Layer_36">
</g>
<g id="Layer_37">
</g>
<g id="Layer_38">
</g>
<g id="Layer_39">
</g>
<g id="Layer_40">
</g>
<g id="Layer_41">
</g>
<g id="Layer_42">
</g>
<g id="Layer_43">
</g>
<g id="Layer_44">
</g>
<g id="Layer_45">
</g>
<g id="Layer_46">
</g>
<g id="Layer_47">
</g>
<g id="Layer_48">
</g>
<g id="Layer_49">
</g>
<g id="Layer_50">
</g>
<g id="Layer_51">
</g>
<g id="Layer_52">
</g>
<g id="Layer_53">
</g>
<g id="Layer_54">
</g>
<g id="Layer_55">
</g>
<g id="Layer_56">
</g>
<g id="Layer_57">
</g>
<g id="Layer_58">
</g>
<g id="Layer_59">
</g>
<g id="Layer_60">
</g>
<g id="Layer_61">
</g>
<g id="Layer_62">
</g>
<g id="Layer_63">
</g>
<g id="Layer_64">
</g>
<g id="Layer_65">
</g>
<g id="Layer_66">
</g>
<g id="Layer_67">
</g>
<g id="Layer_68">
</g>
<g id="Layer_69">
</g>
<g id="Layer_70">
</g>
<g id="Layer_71">
</g>
<g id="Layer_72">
</g>
<g id="Layer_73">
</g>
<g id="Layer_74">
</g>
<g id="Layer_75">
</g>
<g id="Layer_76">
</g>
<g id="Layer_77">
</g>
<g id="Layer_78">
</g>
<g id="Layer_79">
</g>
<g id="Layer_80">
</g>
<g id="Layer_81">
</g>
<g id="Layer_82">
</g>
<g id="Layer_83">
</g>
<g id="Layer_84">
</g>
<g id="Layer_85">
</g>
<g id="Layer_86">
</g>
<g id="Layer_87">
</g>
<g id="Layer_88">
</g>
<g id="Layer_89">
</g>
<g id="Layer_90">
</g>
</svg>
