<?xml version="1.0" encoding="utf-8"?>
<!-- Generator: Adobe Illustrator 16.0.0, SVG Export Plug-In . SVG Version: 6.00 Build 0)  -->
<!DOCTYPE svg PUBLIC "-//W3C//DTD SVG 1.0//EN" "http://www.w3.org/TR/2001/REC-SVG-20010904/DTD/svg10.dtd">
<svg version="1.0" id="Layer_1" xmlns="http://www.w3.org/2000/svg" xmlns:xlink="http://www.w3.org/1999/xlink" x="0px" y="0px"
	 width="100px" height="100px" viewBox="0 0 100 100" enable-background="new 0 0 100 100" xml:space="preserve">
<path d="M88.054,49.654L50.345,11.946c-2.598-2.595-6.836-2.595-9.427,0l-4.717,4.713c-2.595,2.592-2.595,6.836,0,9.428l16.5,16.5
	l-1.791,1.787h-5.279c-2.565-0.004-5.124,0.973-7.074,2.924c-3.902,3.907-3.902,10.241,0,14.143h0.01
	c1.303,1.303,1.296,3.412-0.003,4.715c-1.299,1.299-3.408,1.301-4.71,0h-0.01c-3.903-3.904-10.238-3.904-14.145,0
	c-1.953,1.953-2.926,4.512-2.923,7.07v5.285L10,85.293L14.72,90l8.718-8.721l0.007-8.051c-0.007-0.852,0.318-1.709,0.97-2.359
	c1.302-1.299,3.415-1.299,4.714,0h0.01c3.902,3.902,10.237,3.902,14.144,0c3.899-3.906,3.899-10.24,0-14.145l-0.007,0.004
	c-1.302-1.303-1.302-3.414,0-4.713c0.651-0.654,1.504-0.977,2.357-0.975l8.046-0.002l3.736-3.735l16.498,16.495
	c2.591,2.592,6.836,2.594,9.427,0l4.714-4.713C90.651,56.49,90.645,52.25,88.054,49.654z M78.626,59.086L40.918,21.373l4.714-4.713
	L83.34,54.371L78.626,59.086z"/>
</svg>
