<svg xmlns="http://www.w3.org/2000/svg" width="128" height="128" viewBox="0 0 128 128">
  <title>CRANE TRUCK</title>
  <g>
    <g>
      <path d="M27.327,54.608H21.466a5.142,5.142,0,0,1-4.049-1.992l-3.179-4.127a1.751,1.751,0,0,1,2.774-2.136L20.19,50.48a1.619,1.619,0,0,0,1.276.628h5.861a1.61,1.61,0,0,0,.72-3.05l-4.173-2.086a1.749,1.749,0,0,1-.968-1.565V35.452a1.75,1.75,0,0,1,3.5,0v7.873l3.205,1.6a5.11,5.11,0,0,1-2.284,9.681Z" fill="#fedb41"/>
      <rect x="1.75" y="75.052" width="82.254" height="11.494" fill="#6e77e5"/>
      <path d="M84,47.421H111.25a15,15,0,0,1,15,15V86.546a0,0,0,0,1,0,0H84a0,0,0,0,1,0,0V47.421A0,0,0,0,1,84,47.421Z" fill="#fedb41"/>
      <path d="M118.25,62.421a7.008,7.008,0,0,0-7-7H92V66.984H118.25Z" fill="#fea832"/>
      <path d="M96.75,77.546H92a1.75,1.75,0,0,1,0-3.5H96.75a1.75,1.75,0,0,1,0,3.5Z" fill="#6e77e5"/>
      <rect x="1.75" y="86.546" width="124.5" height="7.875" fill="#3c3a41"/>
      <path d="M88.822,94.421a11.031,11.031,0,1,0,19.5,0Z" fill="#57555c"/>
      <path d="M14.908,94.421a11.031,11.031,0,1,0,19.5,0Z" fill="#57555c"/>
      <path d="M69,59.421H79a5,5,0,0,1,5,5V75.052a0,0,0,0,1,0,0H64a0,0,0,0,1,0,0V64.421A5,5,0,0,1,69,59.421Z" fill="#57555c"/>
      <circle cx="24.656" cy="26.421" r="9.031" transform="translate(-6.507 44.72) rotate(-77.401)" fill="#57555c"/>
      <path d="M64,64.421a5,5,0,0,1,5-5h3.4L33.638,27.362a9.035,9.035,0,0,1-6.374,7.7L64,65.453Z" fill="#e5e5e5"/>
      <path d="M75.752,75.052V67.237a1.75,1.75,0,0,0-3.5,0v7.815h3.5Z" fill="#3c3a41"/>
    </g>
    <g>
      <path d="M111.25,45.671H84a1.75,1.75,0,0,0-1.75,1.75V58.508A6.711,6.711,0,0,0,79,57.671H73.027L57.779,45.059a1.75,1.75,0,1,0-2.23,2.7L67.69,57.8a6.846,6.846,0,0,0-5.022,4.282L30.509,35.48a10.737,10.737,0,0,0,4.144-5.008l5.133,4.246a1.75,1.75,0,0,0,2.231-2.7L35.43,26.572c0-.051.007-.1.007-.151A10.781,10.781,0,1,0,22.906,37.047v7.36a1.749,1.749,0,0,0,.968,1.565l4.173,2.086a1.61,1.61,0,0,1-.72,3.05H21.466a1.619,1.619,0,0,1-1.276-.628l-3.178-4.127a1.751,1.751,0,0,0-2.774,2.136l3.179,4.127a5.142,5.142,0,0,0,4.049,1.992h5.861a5.11,5.11,0,0,0,2.284-9.681l-3.205-1.6V37.047c.142-.023.287-.037.427-.066L62.25,66.276V73.3H1.75A1.75,1.75,0,0,0,0,75.052V94.421a1.75,1.75,0,0,0,1.75,1.75H12.357a12.781,12.781,0,1,0,24.6,0h7.17a1.75,1.75,0,0,0,0-3.5H3.5V88.3h121v4.375h-69a1.75,1.75,0,1,0,0,3.5H86.27a12.782,12.782,0,1,0,24.6,0H126.25a1.75,1.75,0,0,0,1.75-1.75v-32A16.769,16.769,0,0,0,111.25,45.671ZM17.375,26.421A7.281,7.281,0,1,1,24.656,33.7,7.29,7.29,0,0,1,17.375,26.421Zm15.914,69.75a9.153,9.153,0,0,1,.648,3.408,9.281,9.281,0,1,1-18.562,0,9.173,9.173,0,0,1,.648-3.408Zm74.562,3.408a9.282,9.282,0,0,1-18.563,0,9.173,9.173,0,0,1,.648-3.408H107.2A9.169,9.169,0,0,1,107.851,99.579ZM65.75,64.421A3.254,3.254,0,0,1,69,61.171H79a3.254,3.254,0,0,1,3.25,3.25V73.3h-6.5V67.237a1.75,1.75,0,0,0-3.5,0V73.3h-6.5ZM3.5,76.8H82.254V84.8H3.5ZM85.754,84.8V49.171h25.5a13.265,13.265,0,0,1,13.25,13.25V84.8Z"/>
      <path d="M111.25,53.671H92a1.75,1.75,0,0,0-1.75,1.75V66.983A1.749,1.749,0,0,0,92,68.733H118.25a1.749,1.749,0,0,0,1.75-1.75V62.421A8.76,8.76,0,0,0,111.25,53.671Zm5.25,11.562H93.754V57.171h17.5a5.256,5.256,0,0,1,5.25,5.25Z"/>
      <path d="M96.75,74.046H92a1.75,1.75,0,0,0,0,3.5H96.75a1.75,1.75,0,0,0,0-3.5Z"/>
      <path d="M48.715,42.1a1.75,1.75,0,0,0,2.23-2.7L48.85,37.673a1.75,1.75,0,0,0-2.231,2.7Z"/>
    </g>
  </g>
</svg>
