<svg id="Filled_stroke_cut_Ex" data-name="Filled stroke cut Ex" xmlns="http://www.w3.org/2000/svg" width="512" height="512" viewBox="0 0 512 512">
  <title>CT scan- tomography- scanner- medical</title>
  <g>
    <polygon points="337.471 360 302.529 456 398.529 456 433.471 360 337.471 360" style="fill: #31cad0"/>
    <path d="M44,456H468a20,20,0,0,1,20,20v12a0,0,0,0,1,0,0H24a0,0,0,0,1,0,0V476A20,20,0,0,1,44,456Z" style="fill: #57cee6"/>
    <path d="M184,104H72c-26.51,0-48,68.053-48,152S45.49,408,72,408H184Z" style="fill: #31cad0"/>
    <path d="M49.949,139.006l-14.828-6.012C41.966,116.117,53.919,96,72,96H184v16H72C65.05,112,56.807,122.1,49.949,139.006Z"/>
    <ellipse cx="184" cy="256" rx="48" ry="152" style="fill: #57cee6"/>
    <path d="M144,328H488v12a20,20,0,0,1-20,20H152Z" style="fill: #57cee6"/>
    <rect x="40" y="392" width="176" height="64" style="fill: #fdbf44"/>
    <path d="M136,280h72a40,40,0,0,1,40,40v8H144Z" style="fill: #fdbf44"/>
    <path d="M29.716,184a427.175,427.175,0,0,0-5.651,64h112a427.175,427.175,0,0,1,5.651-64Z" style="fill: #fdbf44"/>
    <rect x="48" y="208" width="16" height="16"/>
    <rect x="96" y="208" width="16" height="16"/>
    <polygon points="106.821 312 58.821 312 53.179 280 101.179 280 106.821 312" style="fill: #fdbf44"/>
    <g>
      <rect x="264" y="96" width="224" height="128" style="fill: #fdbf44"/>
      <rect x="360" y="16" width="32" height="80" style="fill: #31cad0"/>
      <rect x="296" y="128" width="80" height="64" style="fill: #fffcf8"/>
      <g>
        <path d="M488,88H400V16H384V88H368V16H352V88H264a8,8,0,0,0-8,8V224a8,8,0,0,0,8,8H488a8,8,0,0,0,8-8V96A8,8,0,0,0,488,88Zm-8,128H272V104H480Z"/>
        <rect x="400" y="120" width="64" height="16"/>
        <rect x="400" y="152" width="16" height="16"/>
        <rect x="432" y="152" width="32" height="16"/>
        <rect x="400" y="184" width="32" height="16"/>
        <rect x="448" y="184" width="16" height="16"/>
        <path d="M376,120H296a8,8,0,0,0-8,8v64a8,8,0,0,0,8,8h80a8,8,0,0,0,8-8V128A8,8,0,0,0,376,120Zm-8,64H304V136h64Z"/>
      </g>
    </g>
    <g>
      <rect x="64" y="416" width="16" height="16"/>
      <rect x="176" y="416" width="16" height="16"/>
      <rect x="96" y="416" width="64" height="16"/>
      <path d="M50.942,313.389A8,8,0,0,0,58.821,320h48a8,8,0,0,0,7.879-9.389l-5.642-32A8,8,0,0,0,101.179,272h-48a8,8,0,0,0-7.879,9.389ZM94.466,288l2.821,16H65.534l-2.821-16Z"/>
    </g>
  </g>
  <path d="M426.43,402.736,439.073,368H468a28.032,28.032,0,0,0,28-28V328a8,8,0,0,0-8-8H256a47.909,47.909,0,0,0-16.775-36.427c.514-9.059.775-18.314.775-27.573,0-41.4-5.125-80.422-14.431-109.889C215.218,113.328,200.843,96,184,96s-31.218,17.328-41.569,50.111A264.662,264.662,0,0,0,135.021,176H39.329c1.55-7.693,3.332-14.968,5.335-21.727l-15.34-4.546C20.731,178.715,16,216.458,16,256c0,51.626,8.066,99.08,21.45,128.415A8,8,0,0,0,32,392v58.7A28.035,28.035,0,0,0,16,476v12a8,8,0,0,0,8,8H488a8,8,0,0,0,8-8V476a28.032,28.032,0,0,0-28-28H409.955l10.65-29.264-15.035-5.472L392.928,448H361.955l29.118-80h30.973L411.4,397.264ZM240,320H148.571c-1.523-10.154-2.692-20.891-3.467-32H208A32.036,32.036,0,0,1,240,320ZM184,112c6.777,0,17.249,10.227,26.312,38.929C219.139,178.879,224,216.194,224,256c0,6.23-.123,12.455-.364,18.615A47.8,47.8,0,0,0,208,272H144.274Q144,264.077,144,256c0-39.806,4.861-77.121,13.688-105.071C166.751,122.227,177.223,112,184,112Zm-51.645,80a439.943,439.943,0,0,0-4.1,48H32.267a421.076,421.076,0,0,1,4.264-48ZM32,256h96c0,51.424,7.987,98.636,21.261,128H55.112C41,358.338,32,308.9,32,256ZM208,400v48H48V400Zm-47.975-32h47.946a114.118,114.118,0,0,1-7.082,16H167.111A113.893,113.893,0,0,1,160.025,368ZM468,464a12.013,12.013,0,0,1,12,12v4H32v-4a12.013,12.013,0,0,1,12-12ZM218.553,384.416A158.532,158.532,0,0,0,224.891,368H326.045l-29.118,80H224V392A8,8,0,0,0,218.553,384.416ZM344.927,448H313.954l29.118-80h30.973ZM155.062,352c-1.344-5.059-2.581-10.407-3.7-16H480v4a12.013,12.013,0,0,1-12,12Z"/>
</svg>
