<svg id="icons" xmlns="http://www.w3.org/2000/svg" viewBox="0 0 64 64"><defs><style>.cls-1{fill:none;stroke:#000;stroke-linecap:round;stroke-linejoin:round;}</style></defs><title>cucumber</title><g id="cucumber"><path class="cls-1" d="M34.52158,8.54911A2.38138,2.38138,0,0,1,37.89306,8.543a1.99709,1.99709,0,0,1,.31585.40092c6.41486-5.64944,12.50166-6.80361,17.64088-.35231,1.66442,2.08969,2.13826,5.13919,1.53687,8.76575a2.36238,2.36238,0,0,1,1.56724.69252A2.38148,2.38148,0,0,1,56.19,21.85874c-.10934.328-.23692.65-.3645.984q-.52851,1.33038-1.19065,2.70932a2.54513,2.54513,0,0,1,.59534.4374,2.38449,2.38449,0,0,1-2.88551,3.74806q-.92027,1.52169-2.01679,3.07378a2.34673,2.34673,0,0,1,.33413.27334A2.38436,2.38436,0,0,1,47.44847,36.602c-.71073.893-1.47006,1.77379-2.26584,2.65462l.079.079a2.38828,2.38828,0,0,1-3.37752,3.37752L41.878,42.707c-.85043.83834-1.707,1.64625-2.56954,2.41166a2.3826,2.3826,0,0,1-3.62663,3.04342c-.80186.63175-1.60369,1.23922-2.40555,1.79808A2.38477,2.38477,0,0,1,29.759,53.17367a2.445,2.445,0,0,1-.44952-.61962c-.95373.56494-1.88313,1.0813-2.80646,1.55511a2.387,2.387,0,0,1-3.48689,3.256,2.35225,2.35225,0,0,1-.68033-1.43365A26.37215,26.37215,0,0,1,17.877,57.19511a2.37,2.37,0,0,1-.68036,1.89529,2.3942,2.3942,0,0,1-3.37756,0,2.33616,2.33616,0,0,1-.69248-1.66449A8.52366,8.52366,0,0,1,8.72246,55.719c-5.23029-4.17329-5.46113-8.9723-2.33874-14.06288a2.38554,2.38554,0,0,1,2.843-3.75415c.72893-.814,1.53079-1.64016,2.40558-2.46631a2.38306,2.38306,0,0,1,3.46254-3.0495c.55886-.46164,1.136-.91728,1.73126-1.379.37055-.28549.73505-.5771,1.11168-.86868a2.384,2.384,0,0,1,3.256-2.77c.93548-.82618,1.84064-1.6827,2.72756-2.55745a2.38288,2.38288,0,0,1,2.84294-2.94016c.978-1.05091,1.91958-2.13826,2.83078-3.24389a2.39256,2.39256,0,0,1,2.44811-3.07983c.95981-1.19065,1.90742-2.30837,2.849-3.335a2.15293,2.15293,0,0,1-.37055-.29765A2.37952,2.37952,0,0,1,34.52158,8.54911Z"/><path class="cls-1" d="M16.43365,50.031a2.01918,2.01918,0,1,1-2.85555-2.85555"/><path class="cls-1" d="M18.34186,41.52737a2.01918,2.01918,0,0,1-2.85555-2.85555"/><path class="cls-1" d="M28.14477,43.38669a2.01918,2.01918,0,0,1-2.85555-2.85554"/><path class="cls-1" d="M28.03707,33.73122a2.01918,2.01918,0,0,1-2.85555-2.85555"/><path class="cls-1" d="M40.84392,35.44a2.01918,2.01918,0,0,1-2.85555-2.85555"/><path class="cls-1" d="M36.07734,25.06528a2.01918,2.01918,0,1,1-2.85554-2.85555"/><path class="cls-1" d="M48.10424,24.07153A2.01918,2.01918,0,0,1,45.24869,21.216"/><path class="cls-1" d="M47.66188,13.48074a2.01918,2.01918,0,0,1-2.85555-2.85554"/></g></svg>