<svg xmlns="http://www.w3.org/2000/svg" viewBox="0 0 64 64"><g id="_30-Love_And_Romance" data-name="30-Love And Romance"><path d="M52.71,14.13a13.719,13.719,0,0,1,0,19.93l-7.97,7.68L30,27l-3,3L41.68,44.68,32,54,11.29,34.06a13.717,13.717,0,0,1-.08-19.85l.08-.08a14.847,14.847,0,0,1,3.4-2.44A15.057,15.057,0,0,1,32,14.13,15.04,15.04,0,0,1,52.71,14.13Z" style="fill:#fc708d"/><path d="M52.71,14.13a15.04,15.04,0,0,0-20.71,0,15.057,15.057,0,0,0-17.31-2.44,14.847,14.847,0,0,0-3.4,2.44l-.08.08a14.213,14.213,0,0,0-1.06,1.16A14.988,14.988,0,0,1,30,16.13a15.04,15.04,0,0,1,20.71,0,13.7,13.7,0,0,1,.726,19.158L52.71,34.06A13.719,13.719,0,0,0,52.71,14.13Z" style="fill:#ea5073"/><polygon points="25 32 39.642 46.642 41.68 44.68 27 30 25 32" style="fill:#ea5073"/><polygon points="48.5 48.5 51 51 51 60 47 56 47 50 48.5 48.5" style="fill:#2ed0fa"/><polygon points="63 54 54 54 51 51 60 51 63 54" style="fill:#2ed0fa"/><polygon points="54 54 54 63 51 60 51 51 54 54" style="fill:#99e8fe"/><polygon points="50 47 56 47 60 51 51 51 48.5 48.5 50 47" style="fill:#99e8fe"/><polygon points="44.74 41.74 50 47 48.5 48.5 47 50 41.68 44.68 27 30 30 27 44.74 41.74" style="fill:#897cac"/><polygon points="47 47 41.68 41.68 28.5 28.5 27 30 41.68 44.68 47 50 48.5 48.5 50 47 48.5 45.5 47 47" style="fill:#7f709a"/><path d="M15,1V5H8l6.69,6.69a14.847,14.847,0,0,0-3.4,2.44l-.08.08L5,8v7H1V1Z" style="fill:#897cac"/><rect x="1" y="1" width="2" height="14" style="fill:#7f709a"/><path d="M32,55a1,1,0,0,1-.693-.279L10.6,34.78a14.715,14.715,0,0,1-.085-21.286l.071-.071A16,16,0,0,1,32,12.78a16.082,16.082,0,0,1,21.4.63,14.716,14.716,0,0,1,0,21.37l-7.968,7.68-1.389-1.439,7.97-7.681a12.719,12.719,0,0,0,0-18.489,14.052,14.052,0,0,0-19.324,0,1,1,0,0,1-1.387,0,14.141,14.141,0,0,0-16.154-2.273,13.827,13.827,0,0,0-3.169,2.274l-.066.066a12.717,12.717,0,0,0,.066,18.422L32,52.611l8.986-8.652L42.373,45.4l-9.68,9.321A1,1,0,0,1,32,55Z"/><rect x="46.379" y="47.5" width="4.243" height="2" transform="translate(-20.089 48.5) rotate(-45)"/><rect x="50" y="46.757" width="2" height="8.485" transform="translate(-21.125 51) rotate(-45)"/><path d="M52,60H50V51a1,1,0,0,1,1-1h9v2H52Z"/><path d="M5,16H1a1,1,0,0,1-1-1V1A1,1,0,0,1,1,0H15a1,1,0,0,1,1,1V5a1,1,0,0,1-1,1H10.414L15.4,10.983,13.983,12.4l-6.69-6.69A1,1,0,0,1,8,4h6V2H2V14H4V8a1,1,0,0,1,1.707-.707l6.21,6.21L10.5,14.917,6,10.414V15A1,1,0,0,1,5,16Z"/><path d="M54,64a1,1,0,0,1-.707-.293l-7-7A1,1,0,0,1,46,56V50.414L26.293,30.707a1,1,0,0,1,0-1.414l3-3a1,1,0,0,1,1.414,0L50.414,46H56a1,1,0,0,1,.707.293l7,7A1,1,0,0,1,63,55H55v8a1,1,0,0,1-.617.924A.987.987,0,0,1,54,64Zm-6-8.414,5,5V54a1,1,0,0,1,1-1h6.586l-5-5H50a1,1,0,0,1-.707-.293L30,28.414,28.414,30,47.707,49.293A1,1,0,0,1,48,50Z"/><path d="M53,24H51a8.009,8.009,0,0,0-8-8V14A10.011,10.011,0,0,1,53,24Z"/><rect x="51" y="26" width="2" height="2"/><rect x="24.247" y="32.127" width="2" height="18.746" transform="translate(-22.161 30.91) rotate(-46.093)"/><rect x="15.189" y="31.655" width="2" height="2.252" transform="translate(-18.655 21.709) rotate(-46.09)"/></g></svg>