<?xml version="1.0" encoding="utf-8"?>
<!-- Generator: Adobe Illustrator 24.0.0, SVG Export Plug-In . SVG Version: 6.00 Build 0)  -->
<svg version="1.1" xmlns="http://www.w3.org/2000/svg" xmlns:xlink="http://www.w3.org/1999/xlink" x="0px" y="0px"
	 viewBox="0 0 256 256" enable-background="new 0 0 256 256" xml:space="preserve">
<g id="Layer_1">
</g>
<g id="Layer_2">
</g>
<g id="Layer_3">
</g>
<g id="Layer_4">
</g>
<g id="Layer_5">
</g>
<g id="Layer_6">
</g>
<g id="Layer_7">
</g>
<g id="Layer_8">
</g>
<g id="Layer_9">
</g>
<g id="Layer_10">
</g>
<g id="Layer_11">
	<g>
		<g>
			<g>
				<circle fill="#FCDD86" cx="128" cy="65.523" r="33.904"/>
			</g>
		</g>
		<g>
			<g>
				<g>
					<path fill="#DAE6F1" d="M189.316,55.816h-12.404c-0.677,0-1.253-0.476-1.399-1.137c-1.242-5.609-3.451-10.854-6.444-15.551
						c-0.364-0.571-0.293-1.315,0.185-1.794l8.772-8.772c0.56-0.56,0.56-1.467,0-2.026l-11.314-11.314
						c-0.56-0.56-1.467-0.56-2.026,0l-8.772,8.772c-0.479,0.479-1.223,0.549-1.794,0.186c-4.697-2.993-9.942-5.202-15.551-6.444
						c-0.661-0.146-1.137-0.722-1.137-1.399V3.933c0-0.791-0.641-1.433-1.433-1.433h-16c-0.791,0-1.433,0.641-1.433,1.433v12.404
						c0,0.677-0.476,1.253-1.137,1.399c-5.609,1.242-10.854,3.451-15.551,6.444c-0.571,0.364-1.315,0.293-1.794-0.186l-8.772-8.772
						c-0.56-0.56-1.467-0.56-2.026,0L77.973,26.536c-0.56,0.56-0.56,1.467,0,2.026l8.772,8.772c0.479,0.479,0.549,1.223,0.186,1.794
						c-2.993,4.697-5.202,9.942-6.444,15.551c-0.146,0.661-0.722,1.137-1.399,1.137H66.684c-0.791,0-1.433,0.641-1.433,1.433v16
						c0,0.791,0.641,1.433,1.433,1.433h12.404c0.677,0,1.253,0.476,1.399,1.137c1.242,5.609,3.451,10.854,6.444,15.551
						c0.364,0.571,0.293,1.315-0.186,1.794l-8.772,8.772c-0.56,0.56-0.56,1.467,0,2.026l11.314,11.314c0.56,0.56,1.467,0.56,2.026,0
						l8.772-8.772c0.479-0.479,1.223-0.549,1.794-0.185c4.697,2.993,9.942,5.202,15.551,6.444c0.661,0.146,1.137,0.722,1.137,1.399
						v12.404c0,0.791,0.641,1.433,1.433,1.433h16c0.791,0,1.433-0.641,1.433-1.433v-12.404c0-0.677,0.476-1.253,1.137-1.399
						c5.609-1.242,10.854-3.451,15.551-6.444c0.571-0.364,1.315-0.293,1.794,0.185l8.772,8.772c0.56,0.56,1.467,0.56,2.026,0
						l11.314-11.314c0.56-0.56,0.56-1.467,0-2.026l-8.772-8.772c-0.479-0.479-0.549-1.223-0.185-1.794
						c2.993-4.697,5.202-9.942,6.444-15.551c0.146-0.661,0.722-1.137,1.399-1.137h12.404c0.791,0,1.433-0.641,1.433-1.433v-16
						C190.749,56.458,190.108,55.816,189.316,55.816z M128,99.426c-18.724,0-33.904-15.179-33.904-33.904S109.276,31.619,128,31.619
						s33.904,15.179,33.904,33.904S146.724,99.426,128,99.426z"/>
				</g>
			</g>
		</g>
		<g>
			<g>
				<path fill="#F5C84C" d="M127.081,42.978c-9.886,0.464-17.928,8.735-18.134,18.63c-0.122,5.855,2.4,11.123,6.452,14.697
					c1.216,1.073,1.881,2.639,1.881,4.261v4.578c0,1.697,1.375,3.072,3.072,3.072h15.294c1.697,0,3.072-1.375,3.072-3.072v-4.575
					c0-1.61,0.645-3.177,1.854-4.24c3.974-3.492,6.483-8.61,6.483-14.315C147.056,51.184,138.024,42.465,127.081,42.978z"/>
			</g>
		</g>
		<g>
			<g>
				<path fill="#5290DB" d="M135.647,88.216h-15.294c-0.336,0-0.653-0.067-0.956-0.167v10.273c2.748,0.719,5.63,1.104,8.603,1.104
					s5.855-0.386,8.603-1.104V88.049C136.301,88.148,135.983,88.216,135.647,88.216z"/>
			</g>
		</g>
		<g>
			<g>
				<path fill="#754E34" d="M61.625,129.064c-2.232,0-4.318,0.631-6.111,1.706c-2.094-3.495-5.909-5.855-10.259-5.855h-6.143
					c-11.889,0-21.616,9.727-21.616,21.616v9.686c1.496-1.197,3.39-1.917,5.455-1.917c0.457,0,0.905,0.039,1.344,0.107V153.4
					c0.001-0.704,0.662-1.224,1.352-1.08c3.794,0.794,15.077,2.151,22.726-7.468c0.419-0.527,1.195-0.577,1.676-0.105
					c1.761,1.727,6.345,5.175,15.045,5.43c0.594,0.017,1.069,0.507,1.081,1.101c0.002,0.109,0.003,0.218,0.003,0.328v2.801
					c0.438-0.068,0.886-0.107,1.344-0.107c2.357,0,4.492,0.937,6.064,2.453v-15.727C73.587,134.447,68.204,129.064,61.625,129.064z"
					/>
			</g>
		</g>
		<g>
			<g>
				<path fill="#F9D0B4" d="M67.523,154.3c-0.457,0-0.906,0.039-1.344,0.107v15.854c0,0.472-0.022,0.94-0.053,1.404
					c0.456,0.073,0.92,0.122,1.397,0.122c4.829,0,8.743-3.914,8.743-8.743S72.352,154.3,67.523,154.3z"/>
			</g>
		</g>
		<g>
			<g>
				<path fill="#F9D0B4" d="M24.295,170.26v-15.854c-0.438-0.068-0.886-0.107-1.344-0.107c-4.829,0-8.743,3.915-8.743,8.743
					s3.915,8.743,8.743,8.743c0.477,0,0.941-0.049,1.397-0.122v0C24.317,171.199,24.295,170.732,24.295,170.26z"/>
			</g>
		</g>
		<g>
			<g>
				<path fill="#F9D0B4" d="M66.176,151.278c-0.012-0.594-0.487-1.083-1.081-1.101c-8.7-0.255-13.284-3.703-15.045-5.43
					c-0.481-0.471-1.257-0.422-1.676,0.105c-7.649,9.619-18.933,8.262-22.726,7.468c-0.689-0.144-1.351,0.375-1.352,1.08v16.86
					c0,11.518,9.424,20.942,20.942,20.942h0c11.518,0,20.942-9.424,20.942-20.942v-18.655
					C66.179,151.496,66.178,151.387,66.176,151.278z"/>
			</g>
		</g>
		<g>
			<g>
				<path fill="#9BE5F9" d="M41.516,204.209l-7.49-7.49c-0.594,0.75-1.339,1.386-2.204,1.859c-0.098,0.053-0.997,0.5-2.072,1.031
					c-2.319,1.147-4.746,2.059-7.238,2.749l10.427,10.427c0.887,0.887,2.324,0.887,3.211,0l5.365-5.365
					C42.403,206.534,42.403,205.096,41.516,204.209z"/>
			</g>
		</g>
		<g>
			<g>
				<path fill="#9BE5F9" d="M60.567,199.528c-1.168-0.583-2.177-1.096-2.364-1.217c-0.676-0.436-1.258-0.984-1.746-1.601
					l-7.499,7.499c-0.887,0.887-0.887,2.324,0,3.211l5.365,5.365c0.887,0.887,2.324,0.887,3.211,0l10.428-10.428
					C65.413,201.651,62.934,200.711,60.567,199.528z"/>
			</g>
		</g>
		<g>
			<g>
				<path fill="#70D6F9" d="M87.166,213.205c-0.201-3.611-2.727-6.672-6.234-7.554l-12.022-3.026
					c-0.319-0.08-0.632-0.179-0.948-0.266l-10.428,10.428c-0.887,0.887-2.324,0.887-3.211,0l-5.365-5.365
					c-0.887-0.887-0.887-2.324,0-3.211l7.499-7.499c-0.992-1.254-1.572-2.817-1.572-4.477v-3.408
					c-2.892,1.514-6.173,2.376-9.648,2.376h0c-3.475,0-6.756-0.862-9.648-2.376v3.408c0,1.66-0.57,3.232-1.563,4.486l7.49,7.49
					c0.887,0.887,0.887,2.324,0,3.211l-5.365,5.365c-0.887,0.887-2.324,0.887-3.211,0l-10.427-10.427
					c-0.312,0.087-0.621,0.183-0.936,0.262L9.542,205.65c-3.507,0.883-6.033,3.944-6.234,7.555l-0.806,35.448
					c-0.08,2.653,2.049,4.847,4.704,4.847h76.063c2.654,0,4.783-2.194,4.704-4.847L87.166,213.205z"/>
			</g>
		</g>
		<g>
			<g>
				<path fill="#F9D0B4" d="M56.457,196.71c-0.992-1.254-1.572-2.817-1.572-4.477v-3.408c-2.892,1.514-6.173,2.376-9.648,2.376h0
					c-3.475,0-6.756-0.862-9.648-2.376v3.408c0,1.66-0.57,3.232-1.563,4.486l7.49,7.49c0.617,0.617,0.794,1.498,0.553,2.277h6.336
					c-0.242-0.779-0.064-1.66,0.553-2.277L56.457,196.71z"/>
			</g>
		</g>
		<g>
			<g>
				<path d="M61.625,126.564c-1.82,0-3.625,0.352-5.317,1.03c-2.731-3.239-6.79-5.179-11.052-5.179h-6.143
					c-13.298,0-24.116,10.818-24.116,24.116v9.243c0,1.381,1.119,2.5,2.5,2.5s2.5-1.119,2.5-2.5v-9.243
					c0-10.541,8.576-19.116,19.116-19.116h6.143c3.29,0,6.399,1.778,8.114,4.64c0.341,0.569,0.894,0.979,1.537,1.14
					c0.643,0.16,1.324,0.06,1.893-0.281c1.473-0.883,3.142-1.35,4.825-1.35c5.218,0,9.462,4.245,9.462,9.462v15.121
					c0,1.381,1.119,2.5,2.5,2.5s2.5-1.119,2.5-2.5v-15.121C76.087,133.052,69.599,126.564,61.625,126.564z"/>
			</g>
		</g>
		<g>
			<g>
				<path d="M67.523,151.8c-0.298,0-0.593,0.012-0.885,0.036c-1.376,0.114-2.399,1.322-2.286,2.698
					c0.115,1.377,1.333,2.393,2.698,2.286c0.156-0.013,0.313-0.02,0.473-0.02c3.442,0,6.243,2.801,6.243,6.243
					c0,3.443-2.801,6.244-6.243,6.244c-0.161,0-0.319-0.009-0.476-0.023c-1.375-0.131-2.592,0.884-2.719,2.259
					c-0.127,1.375,0.884,2.592,2.259,2.719c0.308,0.029,0.62,0.044,0.936,0.044c6.2,0,11.243-5.044,11.243-11.244
					S73.723,151.8,67.523,151.8z"/>
			</g>
		</g>
		<g>
			<g>
				<path d="M26.298,171.467c-0.149-1.372-1.378-2.363-2.755-2.215c-0.194,0.021-0.391,0.035-0.591,0.035
					c-3.443,0-6.244-2.801-6.244-6.244c0-3.442,2.801-6.243,6.244-6.243c0.189,0,0.376,0.009,0.561,0.027
					c1.374,0.131,2.593-0.882,2.722-2.257c0.128-1.375-0.882-2.593-2.257-2.722c-0.338-0.031-0.679-0.048-1.025-0.048
					c-6.2,0-11.244,5.043-11.244,11.243s5.044,11.244,11.244,11.244c0.383,0,0.759-0.023,1.131-0.064
					C25.456,174.074,26.447,172.84,26.298,171.467z"/>
			</g>
		</g>
		<g>
			<g>
				<g>
					<path d="M68.675,151.227c-0.04-1.933-1.58-3.492-3.508-3.549c-7.961-0.233-12.001-3.375-13.369-4.716
						c-0.733-0.719-1.748-1.092-2.763-1.031c-1.024,0.063-1.979,0.561-2.619,1.365c0,0,0,0.001,0,0.001
						c-6.655,8.37-16.381,7.388-20.257,6.577c-1.071-0.225-2.178,0.042-3.031,0.734c-0.847,0.687-1.332,1.704-1.333,2.806v16.846
						c0,12.926,10.516,23.441,23.442,23.441s23.441-10.516,23.441-23.441v-18.655L68.675,151.227z M63.679,170.26
						c0,10.168-8.273,18.441-18.441,18.441c-10.169,0-18.442-8.273-18.442-18.441v-15.203c4.815,0.69,15.054,0.909,22.602-7.542
						c2.48,2.032,7,4.612,14.281,5.097V170.26z"/>
				</g>
			</g>
		</g>
		<g>
			<g>
				<g>
					<path d="M43.284,202.442l-7.49-7.49c-0.503-0.504-1.203-0.771-1.912-0.728c-0.712,0.041-1.373,0.384-1.815,0.943
						c-0.397,0.501-0.883,0.911-1.419,1.205c-0.157,0.082-1.003,0.501-2.005,0.997c-2.126,1.052-4.413,1.92-6.797,2.581
						c-0.857,0.238-1.523,0.913-1.75,1.772c-0.227,0.86,0.021,1.776,0.65,2.404l10.427,10.427c0.901,0.901,2.099,1.397,3.373,1.397
						s2.472-0.496,3.373-1.397l5.365-5.365c0.901-0.901,1.397-2.099,1.397-3.373C44.681,204.54,44.185,203.342,43.284,202.442z
						 M34.545,210.855l-7.391-7.391c1.272-0.484,2.51-1.024,3.705-1.615c1.121-0.554,2.057-1.021,2.161-1.078
						c0.326-0.178,0.639-0.373,0.939-0.583l5.626,5.626L34.545,210.855z"/>
				</g>
			</g>
		</g>
		<g>
			<g>
				<g>
					<path d="M70.379,201.722c-0.226-0.86-0.892-1.535-1.749-1.772c-2.434-0.676-4.771-1.57-6.946-2.657
						c-1.786-0.892-2.124-1.082-2.127-1.082c0,0,0,0,0,0c-0.417-0.269-0.801-0.623-1.141-1.052
						c-0.443-0.559-1.104-0.902-1.815-0.943c-0.717-0.047-1.409,0.224-1.912,0.728l-7.498,7.499
						c-0.901,0.901-1.398,2.099-1.398,3.374c0,1.274,0.496,2.472,1.397,3.373l5.365,5.365c0.901,0.901,2.099,1.397,3.373,1.397
						s2.472-0.496,3.373-1.397l10.428-10.428C70.358,203.497,70.606,202.582,70.379,201.722z M55.929,210.855l-5.041-5.041
						l5.627-5.627c0.11,0.078,0.222,0.154,0.335,0.227c0.151,0.098,0.359,0.231,2.599,1.351c1.249,0.624,2.542,1.191,3.872,1.698
						L55.929,210.855z"/>
				</g>
			</g>
		</g>
		<g>
			<g>
				<path d="M35.589,187.051c-1.381,0-2.5,1.119-2.5,2.5v2.683c0,1.059-0.363,2.101-1.023,2.933
					c-0.857,1.083-0.675,2.655,0.408,3.512c0.459,0.364,1.007,0.54,1.551,0.54c0.737,0,1.468-0.325,1.961-0.948
					c1.356-1.712,2.103-3.856,2.103-6.038v-2.683C38.089,188.17,36.97,187.051,35.589,187.051z"/>
			</g>
		</g>
		<g>
			<g>
				<path d="M58.417,195.158c-0.666-0.84-1.032-1.878-1.032-2.924v-2.252c0-1.381-1.119-2.5-2.5-2.5s-2.5,1.119-2.5,2.5v2.252
					c0,2.168,0.75,4.309,2.112,6.029c0.494,0.623,1.224,0.948,1.961,0.948c0.544,0,1.091-0.176,1.551-0.54
					C59.091,197.813,59.273,196.241,58.417,195.158z"/>
			</g>
		</g>
		<g>
			<g>
				<path d="M89.662,213.065c-0.264-4.729-3.526-8.683-8.12-9.839l-12.019-3.025c-0.172-0.043-0.343-0.094-0.514-0.144l-0.378-0.108
					c-1.327-0.37-2.708,0.409-3.078,1.74c-0.37,1.33,0.409,2.708,1.74,3.078l0.32,0.092c0.227,0.066,0.454,0.132,0.687,0.19
					l12.022,3.026c2.459,0.619,4.207,2.736,4.345,5.187l0.807,35.467c0.018,0.601-0.203,1.17-0.622,1.603
					C84.432,250.762,83.87,251,83.269,251H7.206c-0.602,0-1.164-0.238-1.583-0.669c-0.419-0.432-0.64-1.001-0.622-1.621
					l0.803-35.365c0.141-2.533,1.889-4.65,4.348-5.27l12.036-3.029c0.226-0.057,0.45-0.121,0.673-0.186l0.318-0.091
					c1.331-0.368,2.111-1.745,1.743-3.076c-0.369-1.331-1.745-2.111-3.076-1.743l-0.377,0.108c-0.167,0.048-0.334,0.097-0.502,0.14
					l-12.036,3.029c-4.593,1.156-7.856,5.11-8.123,9.922l-0.806,35.429c-0.059,1.965,0.663,3.824,2.032,5.235S5.24,256,7.206,256
					h76.063c1.965,0,3.802-0.777,5.171-2.188s2.09-3.27,2.032-5.216L89.662,213.065z"/>
			</g>
		</g>
		<g>
			<g>
				<path d="M47.6,203.987h-4.887c-1.381,0-2.5,1.119-2.5,2.5s1.119,2.5,2.5,2.5H47.6c1.381,0,2.5-1.119,2.5-2.5
					S48.981,203.987,47.6,203.987z"/>
			</g>
		</g>
		<g>
			<g>
				<path fill="#754E34" d="M227.151,129.064c-2.232,0-4.318,0.631-6.111,1.706c-2.094-3.495-5.909-5.855-10.259-5.855h-6.143
					c-11.889,0-21.616,9.727-21.616,21.616v9.686c1.496-1.197,3.39-1.917,5.455-1.917c0.457,0,0.906,0.039,1.344,0.107V153.4
					c0.001-0.704,0.662-1.224,1.352-1.08c3.794,0.794,15.077,2.151,22.726-7.468c0.419-0.527,1.195-0.577,1.676-0.105
					c1.761,1.727,6.345,5.175,15.045,5.43c0.594,0.017,1.069,0.507,1.081,1.101c0.002,0.109,0.003,0.218,0.003,0.328v2.801
					c0.438-0.068,0.886-0.107,1.344-0.107c2.357,0,4.492,0.937,6.064,2.453v-15.727C239.113,134.447,233.73,129.064,227.151,129.064
					z"/>
			</g>
		</g>
		<g>
			<g>
				<path fill="#F9D0B4" d="M233.049,154.3c-0.457,0-0.906,0.039-1.344,0.107v15.854c0,0.472-0.022,0.94-0.053,1.404
					c0.456,0.073,0.92,0.122,1.397,0.122c4.829,0,8.743-3.914,8.743-8.743S237.877,154.3,233.049,154.3z"/>
			</g>
		</g>
		<g>
			<g>
				<path fill="#F9D0B4" d="M189.821,170.26v-15.854c-0.438-0.068-0.886-0.107-1.344-0.107c-4.829,0-8.743,3.915-8.743,8.743
					s3.914,8.743,8.743,8.743c0.477,0,0.941-0.049,1.397-0.122v0C189.843,171.199,189.821,170.732,189.821,170.26z"/>
			</g>
		</g>
		<g>
			<g>
				<path fill="#F9D0B4" d="M231.701,151.278c-0.012-0.594-0.487-1.083-1.081-1.101c-8.7-0.255-13.284-3.703-15.045-5.43
					c-0.481-0.471-1.257-0.422-1.676,0.105c-7.649,9.619-18.933,8.262-22.726,7.468c-0.689-0.144-1.351,0.375-1.352,1.08v16.86
					c0,11.518,9.424,20.942,20.942,20.942s20.942-9.424,20.942-20.942v-18.655C231.705,151.496,231.704,151.387,231.701,151.278z"/>
			</g>
		</g>
		<g>
			<g>
				<path fill="#9BE5F9" d="M207.042,204.209l-7.49-7.49c-0.594,0.75-1.339,1.386-2.204,1.859c-0.098,0.053-0.997,0.5-2.072,1.031
					c-2.319,1.147-4.746,2.059-7.238,2.749l10.427,10.427c0.887,0.887,2.324,0.887,3.211,0l5.365-5.365
					C207.929,206.534,207.929,205.096,207.042,204.209z"/>
			</g>
		</g>
		<g>
			<g>
				<path fill="#9BE5F9" d="M226.093,199.528c-1.168-0.583-2.177-1.096-2.364-1.217c-0.677-0.436-1.258-0.984-1.746-1.601
					l-7.499,7.499c-0.887,0.887-0.887,2.324,0,3.211l5.365,5.365c0.887,0.887,2.324,0.887,3.211,0l10.428-10.428
					C230.939,201.651,228.46,200.711,226.093,199.528z"/>
			</g>
		</g>
		<g>
			<g>
				<path fill="#70D6F9" d="M252.692,213.205c-0.201-3.611-2.727-6.672-6.234-7.554l-12.022-3.026
					c-0.319-0.08-0.632-0.179-0.948-0.266l-10.428,10.428c-0.887,0.887-2.324,0.887-3.211,0l-5.365-5.365
					c-0.887-0.887-0.887-2.324,0-3.211l7.499-7.499c-0.992-1.254-1.572-2.817-1.572-4.477v-3.408
					c-2.892,1.514-6.173,2.376-9.648,2.376h0c-3.475,0-6.756-0.862-9.648-2.376v3.408c0,1.66-0.57,3.232-1.563,4.486l7.49,7.49
					c0.887,0.887,0.887,2.324,0,3.211l-5.365,5.365c-0.887,0.887-2.324,0.887-3.211,0l-10.427-10.427
					c-0.312,0.087-0.621,0.183-0.936,0.262l-12.035,3.029c-3.507,0.883-6.033,3.944-6.234,7.555l-0.806,35.448
					c-0.08,2.653,2.049,4.847,4.704,4.847h76.063c2.654,0,4.783-2.194,4.703-4.847L252.692,213.205z"/>
			</g>
		</g>
		<g>
			<g>
				<path fill="#F9D0B4" d="M221.982,196.71c-0.992-1.254-1.572-2.817-1.572-4.477v-3.408c-2.892,1.514-6.173,2.376-9.648,2.376h0
					c-3.475,0-6.756-0.862-9.648-2.376v3.408c0,1.66-0.57,3.232-1.563,4.486l7.49,7.49c0.617,0.617,0.794,1.498,0.553,2.277h6.336
					c-0.242-0.779-0.064-1.66,0.553-2.277L221.982,196.71z"/>
			</g>
		</g>
		<g>
			<g>
				<path d="M227.15,126.564c-1.82,0-3.625,0.352-5.317,1.03c-2.731-3.239-6.79-5.179-11.053-5.179h-6.143
					c-13.298,0-24.116,10.818-24.116,24.116v9.243c0,1.381,1.119,2.5,2.5,2.5s2.5-1.119,2.5-2.5v-9.243
					c0-10.541,8.576-19.116,19.116-19.116h6.143c3.29,0,6.399,1.778,8.114,4.64c0.341,0.569,0.894,0.979,1.537,1.14
					c0.643,0.16,1.324,0.06,1.893-0.281c1.473-0.883,3.142-1.35,4.825-1.35c5.218,0,9.462,4.245,9.462,9.462v15.121
					c0,1.381,1.119,2.5,2.5,2.5s2.5-1.119,2.5-2.5v-15.121C241.613,133.052,235.125,126.564,227.15,126.564z"/>
			</g>
		</g>
		<g>
			<g>
				<path d="M233.049,151.8c-0.298,0-0.593,0.012-0.885,0.036c-1.376,0.114-2.399,1.322-2.286,2.698
					c0.114,1.377,1.332,2.393,2.698,2.286c0.156-0.013,0.313-0.02,0.473-0.02c3.442,0,6.243,2.801,6.243,6.243
					c0,3.443-2.801,6.244-6.243,6.244c-0.161,0-0.319-0.009-0.476-0.023c-1.369-0.131-2.592,0.884-2.719,2.259
					c-0.127,1.375,0.884,2.592,2.259,2.719c0.308,0.029,0.62,0.044,0.936,0.044c6.2,0,11.243-5.044,11.243-11.244
					S239.249,151.8,233.049,151.8z"/>
			</g>
		</g>
		<g>
			<g>
				<path d="M191.824,171.467c-0.149-1.372-1.378-2.363-2.755-2.215c-0.194,0.021-0.391,0.035-0.592,0.035
					c-3.442,0-6.243-2.801-6.243-6.244c0-3.442,2.801-6.243,6.243-6.243c0.189,0,0.376,0.009,0.561,0.027
					c1.375,0.131,2.593-0.882,2.722-2.257c0.128-1.375-0.882-2.593-2.257-2.722c-0.337-0.031-0.679-0.048-1.026-0.048
					c-6.2,0-11.243,5.043-11.243,11.243s5.043,11.244,11.243,11.244c0.383,0,0.76-0.023,1.132-0.064
					C190.981,174.074,191.973,172.84,191.824,171.467z"/>
			</g>
		</g>
		<g>
			<g>
				<g>
					<path d="M234.201,151.229c-0.038-1.934-1.579-3.494-3.507-3.551c-7.961-0.233-12.001-3.375-13.369-4.716
						c-0.733-0.719-1.736-1.092-2.763-1.031c-1.023,0.063-1.978,0.561-2.619,1.365c0,0,0,0.001,0,0.001
						c-6.655,8.37-16.383,7.388-20.257,6.577c-1.069-0.225-2.179,0.042-3.031,0.734c-0.847,0.687-1.332,1.704-1.333,2.806v16.846
						c0,12.926,10.516,23.441,23.442,23.441s23.441-10.516,23.441-23.441v-18.655L234.201,151.229z M229.205,170.26
						c0,10.168-8.273,18.441-18.442,18.441c-10.168,0-18.441-8.273-18.441-18.441v-15.203c4.815,0.69,15.054,0.909,22.602-7.542
						c2.48,2.032,7,4.612,14.281,5.097V170.26z"/>
				</g>
			</g>
		</g>
		<g>
			<g>
				<g>
					<path d="M208.81,202.442l-7.49-7.49c-0.503-0.504-1.202-0.771-1.912-0.728c-0.712,0.041-1.373,0.384-1.815,0.943
						c-0.397,0.501-0.883,0.911-1.419,1.205c-0.157,0.082-1.003,0.501-2.005,0.997c-2.125,1.051-4.413,1.92-6.797,2.581
						c-0.857,0.238-1.523,0.913-1.75,1.772c-0.227,0.86,0.021,1.776,0.65,2.404l10.427,10.427c0.901,0.901,2.099,1.397,3.373,1.397
						s2.472-0.496,3.373-1.397l5.365-5.365c0.901-0.901,1.397-2.099,1.397-3.373C210.207,204.54,209.71,203.342,208.81,202.442z
						 M200.071,210.855l-7.391-7.391c1.272-0.484,2.51-1.024,3.704-1.615c1.121-0.554,2.058-1.021,2.162-1.078
						c0.326-0.178,0.639-0.373,0.939-0.583l5.626,5.626L200.071,210.855z"/>
				</g>
			</g>
		</g>
		<g>
			<g>
				<g>
					<path d="M235.905,201.722c-0.226-0.86-0.892-1.535-1.749-1.772c-2.434-0.676-4.771-1.57-6.946-2.657
						c-1.786-0.892-2.124-1.082-2.127-1.082h0c-0.417-0.269-0.801-0.623-1.141-1.052c-0.443-0.559-1.104-0.902-1.815-0.943
						c-0.716-0.047-1.409,0.224-1.912,0.728l-7.498,7.499c-0.901,0.901-1.398,2.099-1.398,3.374c0,1.274,0.496,2.472,1.397,3.373
						l5.365,5.365c0.901,0.901,2.099,1.397,3.373,1.397s2.472-0.496,3.373-1.397l10.428-10.428
						C235.884,203.497,236.132,202.582,235.905,201.722z M221.455,210.855l-5.041-5.041l5.627-5.627
						c0.11,0.078,0.222,0.154,0.335,0.227c0.151,0.098,0.359,0.231,2.599,1.351c1.249,0.624,2.542,1.191,3.872,1.698
						L221.455,210.855z"/>
				</g>
			</g>
		</g>
		<g>
			<g>
				<path d="M201.115,187.051c-1.381,0-2.5,1.119-2.5,2.5v2.683c0,1.059-0.363,2.101-1.023,2.933
					c-0.857,1.083-0.675,2.655,0.408,3.512c0.459,0.364,1.007,0.54,1.551,0.54c0.737,0,1.468-0.325,1.961-0.948
					c1.356-1.712,2.103-3.856,2.103-6.038v-2.683C203.615,188.17,202.496,187.051,201.115,187.051z"/>
			</g>
		</g>
		<g>
			<g>
				<path d="M223.942,195.158c-0.666-0.84-1.032-1.878-1.032-2.924v-2.252c0-1.381-1.119-2.5-2.5-2.5s-2.5,1.119-2.5,2.5v2.252
					c0,2.168,0.75,4.309,2.112,6.029c0.494,0.623,1.224,0.948,1.961,0.948c0.544,0,1.091-0.176,1.551-0.54
					C224.617,197.813,224.799,196.241,223.942,195.158z"/>
			</g>
		</g>
		<g>
			<g>
				<path d="M255.188,213.065c-0.264-4.729-3.526-8.683-8.12-9.839l-12.019-3.025c-0.172-0.043-0.343-0.094-0.514-0.144
					l-0.378-0.108c-1.328-0.37-2.708,0.409-3.078,1.74c-0.37,1.33,0.409,2.708,1.74,3.078l0.32,0.092
					c0.227,0.066,0.454,0.132,0.687,0.19l12.022,3.026c2.459,0.619,4.207,2.736,4.345,5.187l0.807,35.467
					c0.018,0.601-0.203,1.17-0.622,1.603c-0.419,0.432-0.981,0.669-1.583,0.669h-76.063c-0.602,0-1.164-0.238-1.583-0.669
					c-0.419-0.432-0.64-1.001-0.622-1.621l0.803-35.365c0.141-2.533,1.889-4.65,4.348-5.27l12.035-3.029
					c0.227-0.057,0.452-0.122,0.676-0.187l0.316-0.09c1.331-0.368,2.111-1.745,1.743-3.076c-0.369-1.331-1.744-2.111-3.076-1.743
					l-0.375,0.107c-0.167,0.048-0.335,0.098-0.504,0.14l-12.035,3.029c-4.593,1.156-7.856,5.11-8.123,9.922l-0.806,35.429
					c-0.059,1.965,0.663,3.824,2.032,5.235s3.206,2.188,5.171,2.188h76.063c1.965,0,3.802-0.777,5.171-2.188s2.09-3.27,2.032-5.216
					L255.188,213.065z"/>
			</g>
		</g>
		<g>
			<g>
				<path d="M213.126,203.987h-4.887c-1.381,0-2.5,1.119-2.5,2.5s1.119,2.5,2.5,2.5h4.887c1.381,0,2.5-1.119,2.5-2.5
					S214.507,203.987,213.126,203.987z"/>
			</g>
		</g>
		<g>
			<g>
				<g>
					<path d="M189.316,53.316h-11.551c-1.251-5.241-3.313-10.218-6.14-14.817l8.169-8.17c0.743-0.743,1.152-1.73,1.152-2.781
						s-0.409-2.038-1.152-2.781l-11.314-11.314c-1.485-1.486-4.076-1.486-5.562,0l-8.17,8.17c-4.598-2.827-9.575-4.889-14.816-6.14
						V3.933C139.933,1.764,138.169,0,136,0h-16c-2.169,0-3.933,1.764-3.933,3.933v11.551c-5.242,1.251-10.219,3.314-14.816,6.14
						l-8.17-8.17c-1.485-1.486-4.076-1.486-5.562,0L76.205,24.768c-0.743,0.743-1.152,1.73-1.152,2.781s0.409,2.038,1.152,2.781
						l8.169,8.17c-2.826,4.599-4.889,9.576-6.14,14.817H66.684c-2.168,0-3.933,1.764-3.933,3.933v16
						c0,2.168,1.764,3.933,3.933,3.933h11.551c1.251,5.24,3.313,10.217,6.14,14.817l-8.169,8.17
						c-0.743,0.743-1.152,1.73-1.152,2.781c0,1.051,0.41,2.039,1.152,2.78l11.314,11.314c1.485,1.486,4.076,1.486,5.562,0
						l8.17-8.169c4.598,2.826,9.574,4.888,14.816,6.14v11.551c0,2.169,1.764,3.933,3.933,3.933h16c2.169,0,3.933-1.764,3.933-3.933
						v-11.551c5.242-1.251,10.219-3.314,14.817-6.14l8.169,8.169c1.485,1.486,4.076,1.486,5.562,0l11.313-11.313
						c0.743-0.743,1.153-1.73,1.153-2.781c0-1.05-0.409-2.038-1.152-2.781l-8.169-8.17c2.826-4.599,4.888-9.576,6.14-14.817h11.551
						c2.168,0,3.933-1.764,3.933-3.933v-16C193.249,55.081,191.485,53.316,189.316,53.316z M188.249,72.182h-11.336
						c-1.857,0-3.436,1.273-3.84,3.097c-1.162,5.246-3.218,10.208-6.11,14.747c-1.005,1.575-0.789,3.593,0.525,4.906l8.017,8.018
						l-9.805,9.805l-8.018-8.017c-1.314-1.313-3.331-1.53-4.905-0.526c-4.54,2.894-9.501,4.95-14.746,6.111
						c-1.824,0.403-3.098,1.982-3.098,3.84v11.336h-13.866v-11.336c0-1.858-1.274-3.438-3.097-3.84
						c-5.246-1.162-10.208-3.218-14.749-6.112c-1.576-1.003-3.593-0.786-4.904,0.527l-8.018,8.017l-9.805-9.805l8.017-8.017
						c1.315-1.313,1.531-3.332,0.527-4.905c-2.894-4.541-4.95-9.503-6.111-14.749c-0.404-1.823-1.983-3.096-3.84-3.096H67.751
						V58.316h11.336c1.856,0,3.436-1.273,3.84-3.097c1.162-5.246,3.218-10.208,6.111-14.748c1.004-1.575,0.788-3.592-0.526-4.906
						l-8.017-8.018l9.805-9.805l8.018,8.019c1.313,1.312,3.329,1.528,4.905,0.525c4.54-2.894,9.501-4.95,14.748-6.112
						c1.823-0.404,3.096-1.983,3.096-3.84V5h13.866v11.336c0,1.857,1.273,3.436,3.097,3.84c5.246,1.162,10.208,3.218,14.749,6.112
						c1.574,1.002,3.59,0.787,4.904-0.527l8.018-8.018l9.805,9.805l-8.017,8.018c-1.314,1.313-1.53,3.331-0.526,4.905
						c2.894,4.54,4.95,9.502,6.111,14.749c0.404,1.823,1.983,3.096,3.84,3.096h11.336V72.182z M128,29.119
						c-20.073,0-36.404,16.331-36.404,36.403c0,20.073,16.331,36.404,36.404,36.404s36.404-16.331,36.404-36.404
						C164.404,45.45,148.073,29.119,128,29.119z M128,96.926c-17.316,0-31.404-14.088-31.404-31.404S110.684,34.119,128,34.119
						s31.404,14.087,31.404,31.403S145.316,96.926,128,96.926z"/>
				</g>
			</g>
		</g>
		<g>
			<g>
				<path d="M55.67,63h-9.438c-5.367,0-9.733,4.366-9.733,9.733v40.935c0,1.381,1.119,2.5,2.5,2.5s2.5-1.119,2.5-2.5V72.733
					c0-2.61,2.123-4.733,4.733-4.733h9.438c1.381,0,2.5-1.119,2.5-2.5S57.051,63,55.67,63z"/>
			</g>
		</g>
		<g>
			<g>
				<path d="M209.767,63h-9.438c-1.381,0-2.5,1.119-2.5,2.5s1.119,2.5,2.5,2.5h9.438c2.61,0,4.733,2.123,4.733,4.733v40.935
					c0,1.381,1.119,2.5,2.5,2.5s2.5-1.119,2.5-2.5V72.733C219.5,67.366,215.134,63,209.767,63z"/>
			</g>
		</g>
		<g>
			<g>
				<g>
					<path d="M142.878,46.415c-4.304-4.106-9.962-6.216-15.914-5.933c-11.27,0.529-20.282,9.786-20.516,21.075
						c-0.132,6.357,2.528,12.417,7.297,16.623c0.658,0.581,1.035,1.45,1.035,2.387v4.578c0,3.072,2.5,5.572,5.572,5.572h15.294
						c3.073,0,5.572-2.5,5.572-5.572v-4.575c0-0.94,0.366-1.801,1.004-2.362c4.66-4.095,7.333-9.997,7.333-16.193
						C149.556,56.063,147.185,50.523,142.878,46.415z M138.923,74.45c-1.718,1.51-2.704,3.74-2.704,6.118v4.575
						c0,0.315-0.257,0.572-0.572,0.572h-15.294c-0.315,0-0.572-0.256-0.572-0.572v-4.578c0-2.37-0.994-4.607-2.727-6.136
						c-3.665-3.232-5.708-7.886-5.606-12.77c0.177-8.524,7.243-15.785,15.751-16.184c0.271-0.013,0.54-0.019,0.808-0.019
						c4.281,0,8.31,1.608,11.42,4.576c3.308,3.156,5.129,7.411,5.129,11.981C144.556,66.771,142.503,71.304,138.923,74.45z"/>
				</g>
			</g>
		</g>
		<g>
			<g>
				<g>
					<path d="M138.067,86.021c-0.651-0.47-1.487-0.599-2.25-0.346c-0.118,0.039-0.165,0.04-0.17,0.04h-15.294
						c-0.005,0-0.052-0.001-0.17-0.04c-0.762-0.254-1.599-0.124-2.25,0.346s-1.036,1.224-1.036,2.027v10.273
						c0,1.137,0.767,2.131,1.867,2.418c3.008,0.787,6.116,1.186,9.236,1.186s6.228-0.399,9.236-1.186
						c1.1-0.288,1.867-1.281,1.867-2.418V88.048C139.103,87.246,138.718,86.492,138.067,86.021z M134.103,96.331
						c-4.011,0.791-8.195,0.791-12.206,0v-5.616h12.206V96.331z"/>
				</g>
			</g>
		</g>
		<g>
			<g>
				<path d="M128,63c-1.381,0-2.5,1.119-2.5,2.5v21c0,1.381,1.119,2.5,2.5,2.5s2.5-1.119,2.5-2.5v-21
					C130.5,64.119,129.381,63,128,63z"/>
			</g>
		</g>
		<g>
			<g>
				<path d="M134,62h-12c-1.381,0-2.5,1.119-2.5,2.5s1.119,2.5,2.5,2.5h12c1.381,0,2.5-1.119,2.5-2.5S135.381,62,134,62z"/>
			</g>
		</g>
		<g>
			<g>
				<path fill="#F5C84C" d="M46.8,42.85c-4.5-0.8-8-4.3-8.9-8.7c0-0.2-0.4-0.2-0.4,0c-0.9,4.4-4.4,7.9-8.9,8.7c-0.2,0-0.2,0.3,0,0.4
					c4.5,0.8,8,4.3,8.9,8.7c0,0.2,0.4,0.2,0.4,0c0.9-4.4,4.4-7.9,8.9-8.7C47,43.15,47,42.85,46.8,42.85z"/>
			</g>
		</g>
		<g>
			<g>
				<path fill="#FC657E" d="M217.61,43.21c-3.158-0.561-5.613-3.017-6.245-6.104c0-0.14-0.281-0.14-0.281,0
					c-0.631,3.087-3.087,5.543-6.245,6.104c-0.14,0-0.14,0.211,0,0.281c3.158,0.561,5.613,3.017,6.245,6.104
					c0,0.14,0.281,0.14,0.281,0c0.631-3.087,3.087-5.543,6.245-6.104C217.75,43.42,217.75,43.21,217.61,43.21z"/>
			</g>
		</g>
		<g>
			<g>
				<path fill="#87D147" d="M154.7,183.1h-2.3v-2.3c0-1.7-1.4-3.2-3.2-3.2s-3.2,1.4-3.2,3.2v2.3h-2.3c-1.7,0-3.2,1.4-3.2,3.2
					s1.4,3.2,3.2,3.2h2.3v2.3c0,1.7,1.4,3.2,3.2,3.2s3.2-1.4,3.2-3.2v-2.3h2.3c1.7,0,3.2-1.4,3.2-3.2S156.5,183.1,154.7,183.1z"/>
			</g>
		</g>
		<g>
			<g>
				<path fill="#F5C84C" d="M160.8,153c-1.878,0-3.4,1.522-3.4,3.4c0,1.878,1.522,3.4,3.4,3.4c1.878,0,3.4-1.522,3.4-3.4
					C164.2,154.522,162.678,153,160.8,153z"/>
			</g>
		</g>
		<g>
			<g>
				<path fill="#70D6F9" d="M57.8,13c-1.878,0-3.4,1.522-3.4,3.4c0,1.878,1.522,3.4,3.4,3.4c1.878,0,3.4-1.522,3.4-3.4
					C61.2,14.522,59.678,13,57.8,13z"/>
			</g>
		</g>
	</g>
</g>
<g id="Layer_12">
</g>
<g id="Layer_13">
</g>
<g id="Layer_14">
</g>
<g id="Layer_15">
</g>
<g id="Layer_16">
</g>
<g id="Layer_17">
</g>
<g id="Layer_18">
</g>
<g id="Layer_19">
</g>
<g id="Layer_20">
</g>
<g id="Layer_21">
</g>
<g id="Layer_22">
</g>
<g id="Layer_23">
</g>
<g id="Layer_24">
</g>
<g id="Layer_25">
</g>
<g id="Layer_26">
</g>
<g id="Layer_27">
</g>
<g id="Layer_28">
</g>
<g id="Layer_29">
</g>
<g id="Layer_30">
</g>
<g id="Layer_31">
</g>
<g id="Layer_32">
</g>
<g id="Layer_33">
</g>
<g id="Layer_34">
</g>
<g id="Layer_35">
</g>
<g id="Layer_36">
</g>
<g id="Layer_37">
</g>
<g id="Layer_38">
</g>
<g id="Layer_39">
</g>
<g id="Layer_40">
</g>
<g id="Layer_41">
</g>
<g id="Layer_42">
</g>
<g id="Layer_43">
</g>
<g id="Layer_44">
</g>
<g id="Layer_45">
</g>
<g id="Layer_46">
</g>
<g id="Layer_47">
</g>
<g id="Layer_48">
</g>
<g id="Layer_49">
</g>
<g id="Layer_50">
</g>
<g id="Layer_51">
</g>
<g id="Layer_52">
</g>
<g id="Layer_53">
</g>
<g id="Layer_54">
</g>
<g id="Layer_55">
</g>
<g id="Layer_56">
</g>
<g id="Layer_57">
</g>
<g id="Layer_58">
</g>
<g id="Layer_59">
</g>
<g id="Layer_60">
</g>
<g id="Layer_61">
</g>
<g id="Layer_62">
</g>
<g id="Layer_63">
</g>
<g id="Layer_64">
</g>
<g id="Layer_65">
</g>
<g id="Layer_66">
</g>
<g id="Layer_67">
</g>
<g id="Layer_68">
</g>
<g id="Layer_69">
</g>
<g id="Layer_70">
</g>
<g id="Layer_71">
</g>
<g id="Layer_72">
</g>
<g id="Layer_73">
</g>
<g id="Layer_74">
</g>
<g id="Layer_75">
</g>
<g id="Layer_76">
</g>
<g id="Layer_77">
</g>
<g id="Layer_78">
</g>
<g id="Layer_79">
</g>
<g id="Layer_80">
</g>
<g id="Layer_81">
</g>
<g id="Layer_82">
</g>
<g id="Layer_83">
</g>
<g id="Layer_84">
</g>
<g id="Layer_85">
</g>
<g id="Layer_86">
</g>
<g id="Layer_87">
</g>
<g id="Layer_88">
</g>
<g id="Layer_89">
</g>
<g id="Layer_90">
</g>
</svg>
