<?xml version="1.0" encoding="utf-8"?>
<!-- Generator: Adobe Illustrator 24.0.0, SVG Export Plug-In . SVG Version: 6.00 Build 0)  -->
<svg version="1.1" xmlns="http://www.w3.org/2000/svg" xmlns:xlink="http://www.w3.org/1999/xlink" x="0px" y="0px"
	 viewBox="0 0 256 256" enable-background="new 0 0 256 256" xml:space="preserve">
<g id="Layer_1">
</g>
<g id="Layer_2">
</g>
<g id="Layer_3">
</g>
<g id="Layer_4">
</g>
<g id="Layer_5">
</g>
<g id="Layer_6">
</g>
<g id="Layer_7">
</g>
<g id="Layer_8">
</g>
<g id="Layer_9">
</g>
<g id="Layer_10">
</g>
<g id="Layer_11">
</g>
<g id="Layer_12">
</g>
<g id="Layer_13">
</g>
<g id="Layer_14">
</g>
<g id="Layer_15">
</g>
<g id="Layer_16">
</g>
<g id="Layer_17">
</g>
<g id="Layer_18">
</g>
<g id="Layer_19">
</g>
<g id="Layer_20">
</g>
<g id="Layer_21">
</g>
<g id="Layer_22">
</g>
<g id="Layer_23">
</g>
<g id="Layer_24">
</g>
<g id="Layer_25">
</g>
<g id="Layer_26">
</g>
<g id="Layer_27">
</g>
<g id="Layer_28">
</g>
<g id="Layer_29">
</g>
<g id="Layer_30">
</g>
<g id="Layer_31">
</g>
<g id="Layer_32">
</g>
<g id="Layer_33">
</g>
<g id="Layer_34">
</g>
<g id="Layer_35">
</g>
<g id="Layer_36">
</g>
<g id="Layer_37">
</g>
<g id="Layer_38">
</g>
<g id="Layer_39">
</g>
<g id="Layer_40">
</g>
<g id="Layer_41">
</g>
<g id="Layer_42">
</g>
<g id="Layer_43">
</g>
<g id="Layer_44">
</g>
<g id="Layer_45">
</g>
<g id="Layer_46">
</g>
<g id="Layer_47">
</g>
<g id="Layer_48">
</g>
<g id="Layer_49">
</g>
<g id="Layer_50">
</g>
<g id="Layer_51">
</g>
<g id="Layer_52">
</g>
<g id="Layer_53">
</g>
<g id="Layer_54">
</g>
<g id="Layer_55">
</g>
<g id="Layer_56">
</g>
<g id="Layer_57">
</g>
<g id="Layer_58">
</g>
<g id="Layer_59">
</g>
<g id="Layer_60">
	<g>
		<g>
			<g>
				<path fill="#70D6F9" d="M118.879,55.524c-48.4,0-87.974,38.484-89.745,86.459l-5.904-5.904
					c-2.342-2.342-6.142-2.343-8.485,0.001c-2.343,2.343-2.343,6.142,0.001,8.485l15.657,15.656c2.343,2.343,6.143,2.342,8.484,0
					l15.657-15.656c2.344-2.344,2.344-6.143,0.001-8.485s-6.143-2.344-8.485-0.001l-4.863,4.863
					c2.288-40.869,36.251-73.419,77.683-73.419c42.906,0,77.813,34.907,77.813,77.813s-34.907,77.813-77.813,77.813H17.873
					c-3.313,0-6,2.687-6,6s2.687,6,6,6h101.007c49.523,0,89.813-40.29,89.813-89.813S168.403,55.524,118.879,55.524z"/>
			</g>
		</g>
		<g>
			<g>
				<path fill="#3CAADC" d="M233.716,224.909l-15.656-15.657c-2.344-2.344-6.144-2.343-8.485-0.001
					c-2.344,2.344-2.344,6.143-0.001,8.485l5.415,5.415h-51.298c-13.197,7.629-28.503,12-44.811,12h96.109l-5.415,5.415
					c-2.343,2.343-2.343,6.142,0.001,8.485c2.342,2.342,6.142,2.343,8.485-0.001l15.656-15.657
					C236.059,231.051,236.059,227.252,233.716,224.909z"/>
			</g>
		</g>
		<g>
			<g>
				<path fill="#3CAADC" d="M178.051,7.966c-9.961,0-19.619,3.066-27.719,8.607l1.237-7.031c0.574-3.264-1.605-6.375-4.869-6.949
					c-3.274-0.573-6.375,1.606-6.949,4.869l-3.837,21.807c-0.574,3.265,1.608,6.376,4.869,6.949l21.808,3.837
					c3.314,0.578,6.382-1.649,6.949-4.869c0.574-3.264-1.605-6.375-4.869-6.949l-8.07-1.42c6.221-4.409,13.717-6.85,21.451-6.85
					c20.441,0,37.072,16.63,37.072,37.071c0,15.647-9.771,29.438-24.176,34.763c2.429,3.261,4.639,6.693,6.615,10.272
					c17.723-7.659,29.561-25.224,29.561-45.035C227.124,29.979,205.11,7.966,178.051,7.966z"/>
			</g>
		</g>
		<g>
			<g>
				<path fill="#F5C84C" d="M105.777,24.396c-4.5-0.8-8-4.3-8.9-8.7c0-0.2-0.4-0.2-0.4,0c-0.9,4.4-4.4,7.9-8.9,8.7
					c-0.2,0-0.2,0.3,0,0.4c4.5,0.8,8,4.3,8.9,8.7c0,0.2,0.4,0.2,0.4,0c0.9-4.4,4.4-7.9,8.9-8.7
					C105.977,24.697,105.977,24.396,105.777,24.396z"/>
			</g>
		</g>
		<g>
			<g>
				<path fill="#87D147" d="M112.338,249.51c-3.157-0.561-5.613-3.017-6.245-6.104c0-0.14-0.281-0.14-0.281,0
					c-0.631,3.087-3.087,5.543-6.245,6.104c-0.14,0-0.14,0.211,0,0.281c3.157,0.561,5.613,3.017,6.245,6.104
					c0,0.14,0.281,0.14,0.281,0c0.631-3.087,3.087-5.543,6.245-6.104C112.478,249.72,112.478,249.51,112.338,249.51z"/>
			</g>
		</g>
		<g>
			<g>
				<path fill="#FC657E" d="M243.427,140.646h-2.3v-2.3c0-1.7-1.4-3.2-3.2-3.2c-1.8,0-3.2,1.4-3.2,3.2v2.3h-2.3
					c-1.7,0-3.2,1.4-3.2,3.2c0,1.8,1.4,3.2,3.2,3.2h2.3v2.3c0,1.7,1.4,3.2,3.2,3.2c1.8,0,3.2-1.4,3.2-3.2v-2.3h2.3
					c1.7,0,3.2-1.4,3.2-3.2C246.627,142.047,245.227,140.646,243.427,140.646z"/>
			</g>
		</g>
		<g>
			<g>
				<path fill="#70D6F9" d="M117.527,0c-1.878,0-3.4,1.522-3.4,3.4c0,1.878,1.522,3.4,3.4,3.4c1.878,0,3.4-1.522,3.4-3.4
					C120.927,1.522,119.405,0,117.527,0z"/>
			</g>
		</g>
		<g>
			<g>
				<path fill="#F5C84C" d="M223.527,170c-1.878,0-3.4,1.522-3.4,3.4c0,1.878,1.522,3.4,3.4,3.4c1.878,0,3.4-1.522,3.4-3.4
					C226.927,171.522,225.405,170,223.527,170z"/>
			</g>
		</g>
		<g>
			<g>
				<path fill="#DAE6F1" d="M150.002,109.089H83.288c-4.85,0-8.781,3.932-8.781,8.781v66.714c0,4.85,3.932,8.781,8.781,8.781h66.714
					c4.85,0,8.782-3.932,8.782-8.781v-66.714C158.784,113.021,154.852,109.089,150.002,109.089z"/>
			</g>
		</g>
		<g>
			<g>
				<path fill="#FC657E" d="M150.002,109.089H83.288c-4.85,0-8.781,3.932-8.781,8.781v13.868h84.277v-13.868
					C158.784,113.021,154.852,109.089,150.002,109.089z"/>
			</g>
		</g>
		<g>
			<g>
				<path fill="#F98FA6" d="M131.75,121.482h-30.21c-2.196,0-3.977,1.78-3.977,3.977v6.28h38.163v-6.28
					C135.727,123.263,133.946,121.482,131.75,121.482z"/>
			</g>
		</g>
		<g>
			<g>
				<path fill="#87D147" d="M130.807,151.382c-2.113-2.112-5.536-2.112-7.648,0l-8.677,8.677l-4.35-4.35
					c-2.112-2.111-5.536-2.111-7.648,0c-2.112,2.112-2.112,5.536,0,7.648l8.174,8.174c1.056,1.056,2.44,1.584,3.824,1.584
					c1.384,0,2.768-0.528,3.824-1.584l12.501-12.501C132.919,156.918,132.919,153.494,130.807,151.382z"/>
			</g>
		</g>
		<g>
			<g>
				<g>
					<path d="M150.002,106.589H83.288c-6.221,0-11.281,5.062-11.281,11.282v66.714c0,6.221,5.061,11.281,11.281,11.281h66.714
						c6.221,0,11.281-5.061,11.281-11.281v-66.714C161.283,111.65,156.223,106.589,150.002,106.589z M156.283,184.585
						c0,3.464-2.817,6.281-6.281,6.281H83.288c-3.464,0-6.281-2.817-6.281-6.281v-66.714c0-3.464,2.817-6.282,6.281-6.282h66.714
						c3.464,0,6.281,2.818,6.281,6.282V184.585z"/>
				</g>
			</g>
		</g>
		<g>
			<g>
				<path d="M88.729,99.742c-1.381,0-2.5,1.119-2.5,2.5v9.48c0,1.381,1.119,2.5,2.5,2.5s2.5-1.119,2.5-2.5v-9.48
					C91.229,100.861,90.11,99.742,88.729,99.742z"/>
			</g>
		</g>
		<g>
			<g>
				<path d="M102.688,99.742c-1.381,0-2.5,1.119-2.5,2.5v9.48c0,1.381,1.119,2.5,2.5,2.5s2.5-1.119,2.5-2.5v-9.48
					C105.188,100.861,104.068,99.742,102.688,99.742z"/>
			</g>
		</g>
		<g>
			<g>
				<path d="M116.646,99.742c-1.381,0-2.5,1.119-2.5,2.5v9.48c0,1.381,1.119,2.5,2.5,2.5s2.5-1.119,2.5-2.5v-9.48
					C119.146,100.861,118.026,99.742,116.646,99.742z"/>
			</g>
		</g>
		<g>
			<g>
				<path d="M130.603,99.742c-1.381,0-2.5,1.119-2.5,2.5v9.48c0,1.381,1.119,2.5,2.5,2.5s2.5-1.119,2.5-2.5v-9.48
					C133.103,100.861,131.983,99.742,130.603,99.742z"/>
			</g>
		</g>
		<g>
			<g>
				<path d="M144.561,99.742c-1.381,0-2.5,1.119-2.5,2.5v9.48c0,1.381,1.119,2.5,2.5,2.5s2.5-1.119,2.5-2.5v-9.48
					C147.061,100.861,145.941,99.742,144.561,99.742z"/>
			</g>
		</g>
		<g>
			<g>
				<path d="M157.817,129.238H75.823c-1.381,0-2.5,1.119-2.5,2.5s1.119,2.5,2.5,2.5h81.994c1.381,0,2.5-1.119,2.5-2.5
					S159.198,129.238,157.817,129.238z"/>
			</g>
		</g>
		<g>
			<g>
				<path d="M131.75,118.982h-30.21c-3.571,0-6.477,2.905-6.477,6.477v5.095c0,1.381,1.119,2.5,2.5,2.5s2.5-1.119,2.5-2.5v-5.095
					c0-0.814,0.662-1.477,1.477-1.477h30.21c0.814,0,1.477,0.662,1.477,1.477v5.358c0,1.381,1.119,2.5,2.5,2.5s2.5-1.119,2.5-2.5
					v-5.358C138.227,121.888,135.321,118.982,131.75,118.982z"/>
			</g>
		</g>
		<g>
			<g>
				<g>
					<g>
						<path d="M132.574,149.613c-3.082-3.081-8.1-3.08-11.184,0.001l-6.909,6.909l-2.583-2.583
							c-3.082-3.081-8.101-3.08-11.183,0.001c-3.084,3.083-3.084,8.101,0,11.184l8.175,8.175c1.494,1.493,3.479,2.315,5.591,2.315
							s4.097-0.822,5.592-2.316l12.501-12.501c1.494-1.493,2.316-3.479,2.316-5.592
							C134.891,153.093,134.068,151.107,132.574,149.613z M129.039,157.263l-12.5,12.5c-1.102,1.1-3.015,1.099-4.114,0.001
							l-8.174-8.174c-0.549-0.55-0.852-1.28-0.852-2.057s0.303-1.507,0.852-2.056c0.566-0.567,1.312-0.851,2.057-0.851
							s1.489,0.283,2.057,0.85l4.35,4.35c0.977,0.977,2.559,0.977,3.535,0l8.676-8.676c1.135-1.135,2.981-1.135,4.114,0
							c0.55,0.549,0.852,1.278,0.852,2.056C129.891,155.982,129.588,156.713,129.039,157.263z"/>
					</g>
				</g>
			</g>
		</g>
		<g>
			<g>
				<g>
					<path d="M118.88,53.024c-24.019,0-46.781,9.213-64.096,25.941c-15.921,15.381-25.66,35.576-27.776,57.356l-2.01-2.01
						c-3.314-3.313-8.706-3.314-12.021,0.001c-3.314,3.313-3.313,8.706,0.001,12.021l15.657,15.656c3.312,3.313,8.704,3.313,12.02,0
						l15.657-15.656c3.314-3.314,3.315-8.707,0.001-12.021c-3.281-3.283-8.603-3.315-11.923-0.097
						c5.401-36.507,36.884-64.192,74.489-64.192c41.528,0,75.313,33.785,75.313,75.313s-33.785,75.313-75.313,75.313H17.873
						c-4.687,0-8.5,3.813-8.5,8.5s3.813,8.5,8.5,8.5H118.88c50.901,0,92.313-41.412,92.313-92.313S169.781,53.024,118.88,53.024z
						 M118.88,232.651H17.873c-1.93,0-3.5-1.57-3.5-3.5s1.57-3.5,3.5-3.5H118.88c44.285,0,80.313-36.028,80.313-80.313
						s-36.028-80.313-80.313-80.313c-42.582,0-77.801,33.286-80.18,75.778c-0.058,1.035,0.528,1.998,1.475,2.422
						c0.948,0.424,2.056,0.219,2.789-0.514l4.864-4.863c1.365-1.363,3.585-1.364,4.95,0.001c1.364,1.364,1.363,3.585-0.001,4.95
						L37.12,158.454c-1.366,1.366-3.585,1.364-4.949,0.001l-15.657-15.656c-1.365-1.365-1.365-3.586-0.001-4.95
						c1.365-1.365,3.585-1.364,4.95-0.001l5.903,5.903c0.702,0.702,1.754,0.923,2.682,0.56c0.926-0.363,1.548-1.241,1.584-2.235
						c0.835-22.595,10.291-43.731,26.626-59.514c16.378-15.823,37.906-24.537,60.622-24.537c48.145,0,87.313,39.169,87.313,87.313
						S167.024,232.651,118.88,232.651z"/>
				</g>
			</g>
		</g>
		<g>
			<g>
				<path d="M235.484,223.142l-15.656-15.657c-1.605-1.605-3.74-2.49-6.011-2.49s-4.405,0.884-6.01,2.489
					c-1.605,1.605-2.49,3.74-2.49,6.011s0.884,4.404,2.489,6.01l1.146,1.147h-45.015c-1.381,0-2.5,1.119-2.5,2.5s1.119,2.5,2.5,2.5
					h51.05c1.011,0,1.923-0.609,2.31-1.543c0.387-0.935,0.173-2.01-0.542-2.725l-5.414-5.415c-1.364-1.364-1.364-3.585,0.001-4.95
					c1.322-1.319,3.628-1.321,4.95,0.001l15.656,15.657c0.661,0.661,1.024,1.54,1.024,2.475s-0.363,1.813-1.024,2.475
					l-15.656,15.656c-1.364,1.365-3.586,1.367-4.95,0.002c-1.365-1.365-1.365-3.586-0.001-4.95l5.414-5.415
					c0.715-0.715,0.929-1.79,0.542-2.725c-0.387-0.934-1.299-1.543-2.31-1.543H118.88c-1.381,0-2.5,1.119-2.5,2.5s1.119,2.5,2.5,2.5
					h90.073l-1.146,1.147c-1.605,1.605-2.489,3.739-2.489,6.01s0.885,4.405,2.49,6.011c1.656,1.657,3.832,2.485,6.009,2.485
					c2.177-0.001,4.354-0.829,6.012-2.486l15.656-15.657c1.605-1.605,2.489-3.739,2.489-6.01S237.09,224.747,235.484,223.142z"/>
			</g>
		</g>
		<g>
			<g>
				<path d="M178.052,5.466c-8.525,0-16.824,2.098-24.302,6.107l0.281-1.599c0.394-2.236-0.107-4.492-1.41-6.352
					s-3.252-3.1-5.49-3.494c-4.612-0.801-9.03,2.287-9.842,6.898l-3.837,21.808c-0.394,2.236,0.107,4.491,1.411,6.352
					c1.304,1.859,3.252,3.1,5.486,3.492l21.812,3.838c4.614,0.81,9.028-2.289,9.841-6.898c0.813-4.616-2.282-9.033-6.897-9.845
					l-1.304-0.229c4.457-2.026,9.289-3.078,14.251-3.078c19.063,0,34.572,15.509,34.572,34.571c0,14.245-8.532,26.849-21.736,32.108
					c-1.283,0.511-1.908,1.965-1.397,3.247c0.51,1.282,1.965,1.908,3.247,1.397c15.118-6.021,24.887-20.448,24.887-36.753
					c0-21.819-17.752-39.571-39.572-39.571c-8.232,0-16.149,2.527-22.896,7.31c-0.823,0.584-1.215,1.604-0.994,2.589
					c0.222,0.983,1.013,1.738,2.006,1.913l8.07,1.42c1.901,0.335,3.175,2.153,2.841,4.054c-0.335,1.897-2.164,3.169-4.054,2.841
					l-21.809-3.837c-0.919-0.162-1.722-0.673-2.258-1.438c-0.537-0.766-0.744-1.695-0.582-2.615l3.837-21.807
					c0.335-1.9,2.156-3.17,4.054-2.841c1.901,0.335,3.175,2.153,2.841,4.054l-1.237,7.031c-0.175,0.991,0.262,1.99,1.107,2.535
					c0.847,0.544,1.937,0.531,2.766-0.038c7.814-5.345,16.912-8.17,26.309-8.17c25.68,0,46.572,20.892,46.572,46.571
					c0,18.287-10.753,34.949-27.395,42.449c-1.259,0.567-1.819,2.048-1.252,3.307c0.417,0.925,1.327,1.474,2.28,1.474
					c0.344,0,0.692-0.071,1.026-0.222c18.431-8.307,30.34-26.758,30.34-47.008C229.624,28.601,206.489,5.466,178.052,5.466z"/>
			</g>
		</g>
	</g>
</g>
<g id="Layer_61">
</g>
<g id="Layer_62">
</g>
<g id="Layer_63">
</g>
<g id="Layer_64">
</g>
<g id="Layer_65">
</g>
<g id="Layer_66">
</g>
<g id="Layer_67">
</g>
<g id="Layer_68">
</g>
<g id="Layer_69">
</g>
<g id="Layer_70">
</g>
<g id="Layer_71">
</g>
<g id="Layer_72">
</g>
<g id="Layer_73">
</g>
<g id="Layer_74">
</g>
<g id="Layer_75">
</g>
<g id="Layer_76">
</g>
<g id="Layer_77">
</g>
<g id="Layer_78">
</g>
<g id="Layer_79">
</g>
<g id="Layer_80">
</g>
<g id="Layer_81">
</g>
<g id="Layer_82">
</g>
<g id="Layer_83">
</g>
<g id="Layer_84">
</g>
<g id="Layer_85">
</g>
<g id="Layer_86">
</g>
<g id="Layer_87">
</g>
<g id="Layer_88">
</g>
<g id="Layer_89">
</g>
<g id="Layer_90">
</g>
</svg>
