<?xml version="1.0" encoding="utf-8"?>
<!-- Generator: Adobe Illustrator 24.0.0, SVG Export Plug-In . SVG Version: 6.00 Build 0)  -->
<svg version="1.1" xmlns="http://www.w3.org/2000/svg" xmlns:xlink="http://www.w3.org/1999/xlink" x="0px" y="0px"
	 viewBox="0 0 256 256" enable-background="new 0 0 256 256" xml:space="preserve">
<g id="Layer_1">
</g>
<g id="Layer_2">
</g>
<g id="Layer_3">
</g>
<g id="Layer_4">
</g>
<g id="Layer_5">
</g>
<g id="Layer_6">
</g>
<g id="Layer_7">
</g>
<g id="Layer_8">
</g>
<g id="Layer_9">
</g>
<g id="Layer_10">
</g>
<g id="Layer_11">
</g>
<g id="Layer_12">
</g>
<g id="Layer_13">
</g>
<g id="Layer_14">
</g>
<g id="Layer_15">
</g>
<g id="Layer_16">
</g>
<g id="Layer_17">
</g>
<g id="Layer_18">
</g>
<g id="Layer_19">
</g>
<g id="Layer_20">
</g>
<g id="Layer_21">
</g>
<g id="Layer_22">
</g>
<g id="Layer_23">
</g>
<g id="Layer_24">
</g>
<g id="Layer_25">
</g>
<g id="Layer_26">
</g>
<g id="Layer_27">
</g>
<g id="Layer_28">
</g>
<g id="Layer_29">
</g>
<g id="Layer_30">
</g>
<g id="Layer_31">
</g>
<g id="Layer_32">
</g>
<g id="Layer_33">
</g>
<g id="Layer_34">
</g>
<g id="Layer_35">
</g>
<g id="Layer_36">
</g>
<g id="Layer_37">
</g>
<g id="Layer_38">
</g>
<g id="Layer_39">
</g>
<g id="Layer_40">
</g>
<g id="Layer_41">
</g>
<g id="Layer_42">
</g>
<g id="Layer_43">
</g>
<g id="Layer_44">
</g>
<g id="Layer_45">
</g>
<g id="Layer_46">
</g>
<g id="Layer_47">
</g>
<g id="Layer_48">
</g>
<g id="Layer_49">
</g>
<g id="Layer_50">
</g>
<g id="Layer_51">
</g>
<g id="Layer_52">
</g>
<g id="Layer_53">
</g>
<g id="Layer_54">
</g>
<g id="Layer_55">
</g>
<g id="Layer_56">
</g>
<g id="Layer_57">
</g>
<g id="Layer_58">
</g>
<g id="Layer_59">
</g>
<g id="Layer_60">
</g>
<g id="Layer_61">
</g>
<g id="Layer_62">
</g>
<g id="Layer_63">
</g>
<g id="Layer_64">
</g>
<g id="Layer_65">
</g>
<g id="Layer_66">
</g>
<g id="Layer_67">
</g>
<g id="Layer_68">
</g>
<g id="Layer_69">
</g>
<g id="Layer_70">
</g>
<g id="Layer_71">
</g>
<g id="Layer_72">
</g>
<g id="Layer_73">
</g>
<g id="Layer_74">
</g>
<g id="Layer_75">
</g>
<g id="Layer_76">
</g>
<g id="Layer_77">
</g>
<g id="Layer_78">
</g>
<g id="Layer_79">
</g>
<g id="Layer_80">
</g>
<g id="Layer_81">
</g>
<g id="Layer_82">
</g>
<g id="Layer_83">
	<g>
		<g>
			<g>
				<path fill="#3A70BF" d="M110.079,204.345v27.642c11.793-1.297,24.05-1.297,35.842,0v-27.642H110.079z"/>
			</g>
		</g>
		<g>
			<g>
				<path fill="#5290DB" d="M232.065,26.594H23.935c-7.241,0-13.112,5.871-13.112,13.112v151.527c0,7.242,5.87,13.112,13.112,13.112
					h208.13c7.241,0,13.112-5.87,13.112-13.112V39.706C245.177,32.465,239.306,26.594,232.065,26.594z"/>
			</g>
		</g>
		<g>
			<g>
				<g>
					<path d="M232.064,24.095H23.935c-8.608,0-15.612,7.003-15.612,15.611v151.527c0,8.608,7.003,15.612,15.612,15.612h208.129
						c8.608,0,15.612-7.004,15.612-15.612V39.706C247.677,31.098,240.673,24.095,232.064,24.095z M242.677,191.233
						c0,5.852-4.761,10.612-10.612,10.612H23.935c-5.852,0-10.612-4.761-10.612-10.612V39.706c0-5.852,4.76-10.611,10.612-10.611
						h208.129c5.852,0,10.612,4.76,10.612,10.611V191.233z"/>
				</g>
			</g>
		</g>
		<g>
			<g>
				<path fill="#5290DB" d="M188.473,244.166c-32.468-17.548-88.467-17.553-120.945,0c-2.413,1.304-3.312,4.316-2.007,6.728
					c1.303,2.413,4.315,3.313,6.728,2.008c29.576-15.983,81.997-15.945,111.504,0c2.399,1.299,5.418,0.417,6.728-2.008
					C191.784,248.482,190.885,245.469,188.473,244.166z"/>
			</g>
		</g>
		<g>
			<g>
				<g>
					<g>
						<path d="M193.266,246.399c-0.569-1.911-1.851-3.485-3.604-4.433c-33.424-18.064-89.898-18.064-123.322-0.001
							c-1.754,0.948-3.035,2.522-3.605,4.434s-0.362,3.93,0.586,5.682c0.948,1.755,2.522,3.036,4.433,3.606
							c0.707,0.211,1.427,0.315,2.145,0.315c1.223-0.001,2.434-0.305,3.539-0.902c28.557-15.432,80.571-15.432,109.127,0
							c1.748,0.945,3.761,1.156,5.672,0.59c1.915-0.567,3.493-1.85,4.443-3.607C193.627,250.329,193.836,248.311,193.266,246.399z
							 M188.28,249.705c-0.314,0.581-0.835,1.005-1.467,1.191c-0.63,0.188-1.294,0.117-1.871-0.193
							c-0.001-0.001-0.001-0.001-0.002-0.001c-30.335-16.394-83.549-16.392-113.881,0c-0.58,0.313-1.246,0.382-1.876,0.194
							c-0.631-0.188-1.15-0.611-1.464-1.192c-0.313-0.578-0.381-1.244-0.193-1.875c0.188-0.631,0.611-1.15,1.19-1.464
							c15.791-8.534,37.537-12.802,59.284-12.802s43.494,4.268,59.285,12.803c0.579,0.313,1.001,0.832,1.189,1.463
							C188.663,248.459,188.594,249.125,188.28,249.705z"/>
					</g>
				</g>
			</g>
		</g>
		<g>
			<g>
				<path d="M145.921,202.583c-1.381,0-2.5,1.119-2.5,2.5v25.92c0,1.381,1.119,2.5,2.5,2.5s2.5-1.119,2.5-2.5v-25.92
					C148.421,203.702,147.302,202.583,145.921,202.583z"/>
			</g>
		</g>
		<g>
			<g>
				<path d="M110.079,202.708c-1.381,0-2.5,1.119-2.5,2.5v25.795c0,1.381,1.119,2.5,2.5,2.5s2.5-1.119,2.5-2.5v-25.795
					C112.579,203.827,111.46,202.708,110.079,202.708z"/>
			</g>
		</g>
		<g>
			<g>
				<path fill="#3A70BF" d="M232.003,36.524H23.997c-1.791,0-3.243,1.452-3.243,3.243v10.163h214.493V39.768
					C235.246,37.977,233.794,36.524,232.003,36.524z"/>
			</g>
		</g>
		<g>
			<g>
				<path fill="#FC657E" d="M23.997,36.524c-1.791,0-3.243,1.452-3.243,3.243v10.163h19.364V36.524H23.997z"/>
			</g>
		</g>
		<g>
			<g>
				<path fill="#DAE6F1" d="M20.754,49.931v141.242c0,1.791,1.452,3.243,3.243,3.243h208.007c1.791,0,3.243-1.452,3.243-3.243
					V49.931H20.754z"/>
			</g>
		</g>
		<g>
			<g>
				<rect x="134.44" y="94.36" fill="#87D147" width="11.39" height="35.493"/>
			</g>
		</g>
		<g>
			<g>
				<rect x="156.045" y="79.9" fill="#F5C84C" width="11.39" height="49.953"/>
			</g>
		</g>
		<g>
			<g>
				<rect x="177.649" y="108.82" fill="#FC8C48" width="11.39" height="21.033"/>
			</g>
		</g>
		<g>
			<g>
				<rect x="199.253" y="93.045" fill="#FC657E" width="11.39" height="36.807"/>
			</g>
		</g>
		<g>
			<g>
				<path fill="#9BE5F9" d="M93.832,63.5H39.168c-1.473,0-2.668,1.194-2.668,2.667v112.665c0,1.473,1.194,2.667,2.668,2.667h54.665
					c1.473,0,2.668-1.194,2.668-2.667V66.167C96.5,64.694,95.306,63.5,93.832,63.5z"/>
			</g>
		</g>
		<g>
			<g>
				<path fill="#3CAADC" d="M93.832,63.5H39.168c-1.473,0-2.668,1.194-2.668,2.667V79.5h60V66.167
					C96.5,64.694,95.306,63.5,93.832,63.5z"/>
			</g>
		</g>
		<g>
			<g>
				<path d="M234.246,47.431H21.753c-1.381,0-2.5,1.119-2.5,2.5s1.119,2.5,2.5,2.5h212.493c1.381,0,2.5-1.119,2.5-2.5
					S235.627,47.431,234.246,47.431z"/>
			</g>
		</g>
		<g>
			<g>
				<path d="M40.118,34.958c-1.381,0-2.5,1.119-2.5,2.5v11.584c0,1.381,1.119,2.5,2.5,2.5s2.5-1.119,2.5-2.5V37.458
					C42.618,36.077,41.499,34.958,40.118,34.958z"/>
			</g>
		</g>
		<g>
			<g>
				<g>
					<path d="M232.004,34.024H23.997c-3.167,0-5.743,2.576-5.743,5.743v151.404c0,3.167,2.576,5.743,5.743,5.743h208.007
						c3.166,0,5.742-2.576,5.742-5.743V39.768C237.746,36.601,235.17,34.024,232.004,34.024z M232.746,191.172
						c0,0.41-0.333,0.743-0.742,0.743H23.997c-0.41,0-0.743-0.333-0.743-0.743V39.768c0-0.41,0.333-0.743,0.743-0.743h208.007
						c0.409,0,0.742,0.333,0.742,0.743V191.172z"/>
				</g>
			</g>
		</g>
		<g>
			<g>
				<path fill="#F5C84C" d="M108.192,8.85c-4.5-0.8-8-4.3-8.9-8.7c0-0.2-0.4-0.2-0.4,0c-0.9,4.4-4.4,7.9-8.9,8.7
					c-0.2,0-0.2,0.3,0,0.4c4.5,0.8,8,4.3,8.9,8.7c0,0.2,0.4,0.2,0.4,0c0.9-4.4,4.4-7.9,8.9-8.7
					C108.392,9.15,108.392,8.85,108.192,8.85z"/>
			</g>
		</g>
		<g>
			<g>
				<path fill="#70D6F9" d="M71.002,222.059c-3.157-0.561-5.613-3.017-6.245-6.104c0-0.14-0.281-0.14-0.281,0
					c-0.632,3.087-3.087,5.543-6.245,6.104c-0.14,0-0.14,0.211,0,0.281c3.157,0.562,5.613,3.017,6.245,6.104
					c0,0.141,0.281,0.141,0.281,0c0.632-3.087,3.087-5.543,6.245-6.104C71.143,222.27,71.143,222.059,71.002,222.059z"/>
			</g>
		</g>
		<g>
			<g>
				<path fill="#87D147" d="M230.092,219.349h-2.3v-2.3c0-1.7-1.4-3.2-3.2-3.2s-3.2,1.4-3.2,3.2v2.3h-2.3c-1.7,0-3.2,1.4-3.2,3.2
					c0,1.8,1.4,3.2,3.2,3.2h2.3v2.3c0,1.7,1.4,3.2,3.2,3.2s3.2-1.4,3.2-3.2v-2.3h2.3c1.7,0,3.2-1.4,3.2-3.2
					C233.292,220.749,231.892,219.349,230.092,219.349z"/>
			</g>
		</g>
		<g>
			<g>
				<path fill="#F5C84C" d="M198.192,227.849c-1.878,0-3.4,1.522-3.4,3.4s1.522,3.4,3.4,3.4c1.878,0,3.4-1.522,3.4-3.4
					S200.07,227.849,198.192,227.849z"/>
			</g>
		</g>
		<g>
			<g>
				<path fill="#FC657E" d="M128.192,8.849c-1.878,0-3.4,1.522-3.4,3.4s1.522,3.4,3.4,3.4c1.878,0,3.4-1.522,3.4-3.4
					S130.07,8.849,128.192,8.849z"/>
			</g>
		</g>
		<g>
			<g>
				<path d="M214.451,127.353h-96.684c-1.381,0-2.5,1.119-2.5,2.5s1.119,2.5,2.5,2.5h96.684c1.381,0,2.5-1.119,2.5-2.5
					S215.832,127.353,214.451,127.353z"/>
			</g>
		</g>
		<g>
			<g>
				<path d="M123.295,61.601c-1.381,0-2.5,1.119-2.5,2.5v70.524c0,1.381,1.119,2.5,2.5,2.5s2.5-1.119,2.5-2.5V64.101
					C125.795,62.72,124.676,61.601,123.295,61.601z"/>
			</g>
		</g>
		<g>
			<g>
				<path d="M83.666,91.032H49.048c-1.381,0-2.5,1.119-2.5,2.5s1.119,2.5,2.5,2.5h34.618c1.381,0,2.5-1.119,2.5-2.5
					S85.046,91.032,83.666,91.032z"/>
			</g>
		</g>
		<g>
			<g>
				<path d="M83.666,103.032H49.048c-1.381,0-2.5,1.119-2.5,2.5s1.119,2.5,2.5,2.5h34.618c1.381,0,2.5-1.119,2.5-2.5
					S85.046,103.032,83.666,103.032z"/>
			</g>
		</g>
		<g>
			<g>
				<path d="M83.666,115.032H49.048c-1.381,0-2.5,1.119-2.5,2.5s1.119,2.5,2.5,2.5h34.618c1.381,0,2.5-1.119,2.5-2.5
					S85.046,115.032,83.666,115.032z"/>
			</g>
		</g>
		<g>
			<g>
				<path d="M83.666,127.032H49.048c-1.381,0-2.5,1.119-2.5,2.5s1.119,2.5,2.5,2.5h34.618c1.381,0,2.5-1.119,2.5-2.5
					S85.046,127.032,83.666,127.032z"/>
			</g>
		</g>
		<g>
			<g>
				<path d="M83.666,139.032H49.048c-1.381,0-2.5,1.119-2.5,2.5s1.119,2.5,2.5,2.5h34.618c1.381,0,2.5-1.119,2.5-2.5
					S85.046,139.032,83.666,139.032z"/>
			</g>
		</g>
		<g>
			<g>
				<path d="M83.666,151.032H49.048c-1.381,0-2.5,1.119-2.5,2.5s1.119,2.5,2.5,2.5h34.618c1.381,0,2.5-1.119,2.5-2.5
					S85.046,151.032,83.666,151.032z"/>
			</g>
		</g>
		<g>
			<g>
				<path d="M83.666,163.032H49.048c-1.381,0-2.5,1.119-2.5,2.5s1.119,2.5,2.5,2.5h34.618c1.381,0,2.5-1.119,2.5-2.5
					S85.046,163.032,83.666,163.032z"/>
			</g>
		</g>
		<g>
			<g>
				<path d="M145.83,91.859h-11.39c-1.381,0-2.5,1.119-2.5,2.5v34.45c0,1.381,1.119,2.5,2.5,2.5s2.5-1.119,2.5-2.5v-31.95h6.39
					v32.08c0,1.381,1.119,2.5,2.5,2.5s2.5-1.119,2.5-2.5v-34.58C148.33,92.979,147.211,91.859,145.83,91.859z"/>
			</g>
		</g>
		<g>
			<g>
				<path d="M167.435,77.399h-11.39c-1.381,0-2.5,1.119-2.5,2.5v49.011c0,1.381,1.119,2.5,2.5,2.5s2.5-1.119,2.5-2.5V82.399h6.39
					v46.511c0,1.381,1.119,2.5,2.5,2.5s2.5-1.119,2.5-2.5V79.899C169.935,78.519,168.815,77.399,167.435,77.399z"/>
			</g>
		</g>
		<g>
			<g>
				<path d="M189.039,106.319h-11.39c-1.381,0-2.5,1.119-2.5,2.5v19.969c0,1.381,1.119,2.5,2.5,2.5s2.5-1.119,2.5-2.5v-17.469h6.39
					v17.186c0,1.381,1.119,2.5,2.5,2.5s2.5-1.119,2.5-2.5v-19.686C191.539,107.438,190.42,106.319,189.039,106.319z"/>
			</g>
		</g>
		<g>
			<g>
				<path d="M210.644,90.545h-11.39c-1.381,0-2.5,1.119-2.5,2.5v35.746c0,1.381,1.119,2.5,2.5,2.5s2.5-1.119,2.5-2.5V95.545h6.39
					v33.246c0,1.381,1.119,2.5,2.5,2.5s2.5-1.119,2.5-2.5V93.045C213.144,91.664,212.024,90.545,210.644,90.545z"/>
			</g>
		</g>
		<g>
			<g>
				<g>
					<path d="M93.833,61H39.167C36.318,61,34,63.318,34,66.168v112.664c0,2.85,2.318,5.168,5.167,5.168h54.665
						c2.849,0,5.167-2.318,5.167-5.168V66.168C99,63.318,96.682,61,93.833,61z M94,178.832c0,0.093-0.075,0.168-0.167,0.168H39.167
						c-0.092,0-0.167-0.075-0.167-0.168V66.168C39,66.075,39.075,66,39.167,66h54.665C93.925,66,94,66.075,94,66.168V178.832z"/>
				</g>
			</g>
		</g>
		<g>
			<g>
				<path d="M95.375,77H37.438c-1.381,0-2.5,1.119-2.5,2.5s1.119,2.5,2.5,2.5h57.937c1.381,0,2.5-1.119,2.5-2.5S96.755,77,95.375,77
					z"/>
			</g>
		</g>
		<g>
			<g>
				<circle fill="#F5C84C" cx="166" cy="162.5" r="18"/>
			</g>
		</g>
		<g>
			<g>
				<path fill="#87D147" d="M166,144.5v36c9.941,0,18-8.059,18-18C184,152.559,175.941,144.5,166,144.5z"/>
			</g>
		</g>
		<g>
			<g>
				<path fill="#FC657E" d="M166,144.5v18l15.618-8.925C178.516,148.158,172.69,144.5,166,144.5z"/>
			</g>
		</g>
		<g>
			<g>
				<g>
					<path d="M166,142c-11.304,0-20.5,9.196-20.5,20.5S154.696,183,166,183s20.5-9.196,20.5-20.5S177.304,142,166,142z M166,178
						c-8.547,0-15.5-6.953-15.5-15.5S157.453,147,166,147s15.5,6.953,15.5,15.5S174.547,178,166,178z"/>
				</g>
			</g>
		</g>
		<g>
			<g>
				<path d="M166,142.837c-1.381,0-2.5,1.119-2.5,2.5v34.167c0,1.381,1.119,2.5,2.5,2.5s2.5-1.119,2.5-2.5v-34.167
					C168.5,143.956,167.381,142.837,166,142.837z"/>
			</g>
		</g>
		<g>
			<g>
				<path d="M182.893,152.847c-0.687-1.2-2.216-1.616-3.411-0.931l-14.207,8.119c-1.199,0.686-1.615,2.213-0.931,3.411
					c0.462,0.808,1.306,1.26,2.173,1.26c0.421,0,0.848-0.105,1.238-0.329l14.207-8.119
					C183.161,155.572,183.577,154.045,182.893,152.847z"/>
			</g>
		</g>
	</g>
</g>
<g id="Layer_84">
</g>
<g id="Layer_85">
</g>
<g id="Layer_86">
</g>
<g id="Layer_87">
</g>
<g id="Layer_88">
</g>
<g id="Layer_89">
</g>
<g id="Layer_90">
</g>
</svg>
