<?xml version="1.0" encoding="utf-8"?>
<!-- Generator: Adobe Illustrator 24.0.0, SVG Export Plug-In . SVG Version: 6.00 Build 0)  -->
<svg version="1.1" xmlns="http://www.w3.org/2000/svg" xmlns:xlink="http://www.w3.org/1999/xlink" x="0px" y="0px"
	 viewBox="0 0 256 256" enable-background="new 0 0 256 256" xml:space="preserve">
<g id="Layer_1">
</g>
<g id="Layer_2">
</g>
<g id="Layer_3">
</g>
<g id="Layer_4">
</g>
<g id="Layer_5">
</g>
<g id="Layer_6">
</g>
<g id="Layer_7">
</g>
<g id="Layer_8">
</g>
<g id="Layer_9">
</g>
<g id="Layer_10">
</g>
<g id="Layer_11">
</g>
<g id="Layer_12">
</g>
<g id="Layer_13">
</g>
<g id="Layer_14">
</g>
<g id="Layer_15">
</g>
<g id="Layer_16">
</g>
<g id="Layer_17">
</g>
<g id="Layer_18">
</g>
<g id="Layer_19">
</g>
<g id="Layer_20">
</g>
<g id="Layer_21">
</g>
<g id="Layer_22">
</g>
<g id="Layer_23">
</g>
<g id="Layer_24">
</g>
<g id="Layer_25">
</g>
<g id="Layer_26">
</g>
<g id="Layer_27">
</g>
<g id="Layer_28">
</g>
<g id="Layer_29">
</g>
<g id="Layer_30">
</g>
<g id="Layer_31">
</g>
<g id="Layer_32">
</g>
<g id="Layer_33">
</g>
<g id="Layer_34">
</g>
<g id="Layer_35">
</g>
<g id="Layer_36">
</g>
<g id="Layer_37">
</g>
<g id="Layer_38">
</g>
<g id="Layer_39">
</g>
<g id="Layer_40">
</g>
<g id="Layer_41">
</g>
<g id="Layer_42">
</g>
<g id="Layer_43">
</g>
<g id="Layer_44">
</g>
<g id="Layer_45">
</g>
<g id="Layer_46">
</g>
<g id="Layer_47">
</g>
<g id="Layer_48">
</g>
<g id="Layer_49">
</g>
<g id="Layer_50">
</g>
<g id="Layer_51">
</g>
<g id="Layer_52">
</g>
<g id="Layer_53">
</g>
<g id="Layer_54">
</g>
<g id="Layer_55">
</g>
<g id="Layer_56">
</g>
<g id="Layer_57">
</g>
<g id="Layer_58">
</g>
<g id="Layer_59">
</g>
<g id="Layer_60">
</g>
<g id="Layer_61">
</g>
<g id="Layer_62">
</g>
<g id="Layer_63">
</g>
<g id="Layer_64">
</g>
<g id="Layer_65">
</g>
<g id="Layer_66">
</g>
<g id="Layer_67">
</g>
<g id="Layer_68">
</g>
<g id="Layer_69">
</g>
<g id="Layer_70">
</g>
<g id="Layer_71">
</g>
<g id="Layer_72">
</g>
<g id="Layer_73">
</g>
<g id="Layer_74">
</g>
<g id="Layer_75">
</g>
<g id="Layer_76">
</g>
<g id="Layer_77">
</g>
<g id="Layer_78">
</g>
<g id="Layer_79">
</g>
<g id="Layer_80">
</g>
<g id="Layer_81">
</g>
<g id="Layer_82">
	<g>
		<g>
			<g>
				<path fill="#9BE5F9" d="M194.877,48.331c-32.377,0-58.624,6.315-58.624,14.104c0,7.79,26.247,14.105,58.624,14.105
					c32.377,0,58.623-6.315,58.623-14.105C253.5,54.646,227.253,48.331,194.877,48.331z"/>
			</g>
		</g>
		<g>
			<g>
				<path fill="#5290DB" d="M194.877,76.54c-32.377,0-58.624-6.315-58.624-14.105V87.56c0,0.969,0.408,1.916,1.182,2.83
					c25.884,0.885,46.961,5.354,54.282,11.254c1.047,0.013,2.1,0.021,3.16,0.021c32.377,0,58.623-6.315,58.623-14.105V62.435
					C253.5,70.225,227.253,76.54,194.877,76.54z"/>
			</g>
		</g>
		<g>
			<g>
				<path fill="#5290DB" d="M194.877,115.77c-0.126,0-0.25-0.002-0.377-0.002v18.959c0,2.163-1.793,4.224-5.025,6.105
					c1.78,0.039,3.579,0.062,5.401,0.062c32.377,0,58.623-6.315,58.623-14.105v-25.124C253.5,109.454,227.253,115.77,194.877,115.77
					z"/>
			</g>
		</g>
		<g>
			<g>
				<path fill="#5290DB" d="M194.877,154.999c-0.126,0-0.25-0.002-0.377-0.002v24.23c0,0.3-0.041,0.598-0.109,0.894
					c0.162,0,0.322,0.003,0.485,0.003c32.377,0,58.623-6.315,58.623-14.105v-25.125C253.5,148.684,227.253,154.999,194.877,154.999z
					"/>
			</g>
		</g>
		<g>
			<g>
				<path fill="#3A70BF" d="M245.638,94.612c-10.138,4.215-29.066,7.053-50.761,7.053c-1.064,0-2.115-0.012-3.165-0.026
					c1.806,1.454,2.789,2.993,2.789,4.588v9.541c0.126,0,0.25,0.002,0.377,0.002c32.377,0,58.623-6.315,58.623-14.105
					C253.5,99.094,250.629,96.687,245.638,94.612z"/>
			</g>
		</g>
		<g>
			<g>
				<path fill="#3A70BF" d="M245.638,133.841c-10.138,4.214-29.066,7.052-50.761,7.052c-1.822,0-3.615-0.027-5.394-0.066
					c-1.127,0.657-2.436,1.29-3.901,1.899c5.662,2.354,8.919,5.084,8.919,8v4.27c0.126,0,0.25,0.002,0.377,0.002
					c32.377,0,58.623-6.315,58.623-14.105C253.5,138.324,250.629,135.916,245.638,133.841z"/>
			</g>
		</g>
		<g>
			<g>
				<path fill="#9BE5F9" d="M61.123,48.331C28.747,48.331,2.5,54.646,2.5,62.435c0,7.79,26.247,14.105,58.623,14.105
					c32.377,0,58.624-6.315,58.624-14.105C119.747,54.646,93.5,48.331,61.123,48.331z"/>
			</g>
		</g>
		<g>
			<g>
				<path fill="#5290DB" d="M61.123,76.54C28.747,76.54,2.5,70.225,2.5,62.435V87.56c0,7.79,26.247,14.105,58.623,14.105
					c1.06,0,2.113-0.008,3.16-0.021c7.321-5.9,28.397-10.369,54.282-11.254c0.774-0.915,1.182-1.861,1.182-2.83V62.435
					C119.747,70.225,93.5,76.54,61.123,76.54z"/>
			</g>
		</g>
		<g>
			<g>
				<path fill="#5290DB" d="M61.5,134.727v-18.959c-0.126,0-0.25,0.002-0.377,0.002c-32.377,0-58.623-6.315-58.623-14.105v25.124
					c0,7.79,26.247,14.105,58.623,14.105c1.822,0,3.622-0.023,5.401-0.062C63.293,138.95,61.5,136.889,61.5,134.727z"/>
			</g>
		</g>
		<g>
			<g>
				<path fill="#5290DB" d="M61.5,179.227v-24.23c-0.126,0-0.25,0.002-0.377,0.002c-32.377,0-58.623-6.315-58.623-14.105v25.125
					c0,7.79,26.247,14.105,58.623,14.105c0.163,0,0.323-0.003,0.485-0.003C61.541,179.824,61.5,179.526,61.5,179.227z"/>
			</g>
		</g>
		<g>
			<g>
				<path fill="#3A70BF" d="M61.123,101.665c-21.695,0-40.624-2.838-50.761-7.053C5.371,96.687,2.5,99.094,2.5,101.665
					c0,7.79,26.247,14.105,58.623,14.105c0.126,0,0.25-0.002,0.377-0.002v-9.541c0-1.595,0.983-3.134,2.789-4.588
					C63.239,101.652,62.187,101.665,61.123,101.665z"/>
			</g>
		</g>
		<g>
			<g>
				<path fill="#3A70BF" d="M66.518,140.827c-1.779,0.039-3.572,0.066-5.394,0.066c-21.695,0-40.624-2.838-50.761-7.052
					c-4.991,2.075-7.862,4.482-7.862,7.052c0,7.79,26.247,14.105,58.623,14.105c0.126,0,0.25-0.002,0.377-0.002v-4.27
					c0-2.916,3.257-5.646,8.919-8C68.953,142.117,67.644,141.484,66.518,140.827z"/>
			</g>
		</g>
		<g>
			<g>
				<ellipse fill="#9BE5F9" cx="128" cy="106.227" rx="66.5" ry="16"/>
			</g>
		</g>
		<g>
			<g>
				<path fill="#5290DB" d="M128,122.227c-36.727,0-66.5-7.164-66.5-16v28.5c0,8.836,29.773,16,66.5,16s66.5-7.164,66.5-16v-28.5
					C194.5,115.063,164.727,122.227,128,122.227z"/>
			</g>
		</g>
		<g>
			<g>
				<path fill="#5290DB" d="M128,211.227c-36.727,0-66.5-7.164-66.5-16v28.5c0,8.836,29.773,16,66.5,16s66.5-7.164,66.5-16v-28.5
					C194.5,204.063,164.727,211.227,128,211.227z"/>
			</g>
		</g>
		<g>
			<g>
				<path fill="#3A70BF" d="M185.581,142.727c-11.5,4.781-32.971,8-57.581,8s-46.082-3.219-57.581-8
					c-5.662,2.354-8.919,5.084-8.919,8c0,8.836,29.773,16,66.5,16s66.5-7.164,66.5-16
					C194.5,147.811,191.243,145.081,185.581,142.727z"/>
			</g>
		</g>
		<g>
			<g>
				<path fill="#5290DB" d="M128,166.727c-36.727,0-66.5-7.164-66.5-16v28.5c0,8.836,29.773,16,66.5,16s66.5-7.164,66.5-16v-28.5
					C194.5,159.563,164.727,166.727,128,166.727z"/>
			</g>
		</g>
		<g>
			<g>
				<path fill="#3A70BF" d="M185.581,187.227c-11.5,4.781-32.971,8-57.581,8s-46.082-3.219-57.581-8
					c-5.662,2.354-8.919,5.084-8.919,8c0,8.836,29.773,16,66.5,16s66.5-7.164,66.5-16
					C194.5,192.311,191.243,189.581,185.581,187.227z"/>
			</g>
		</g>
		<g>
			<g>
				<path fill="#F5C84C" d="M137.475,22.623c-4.5-0.8-8-4.3-8.9-8.7c0-0.2-0.4-0.2-0.4,0c-0.9,4.4-4.4,7.9-8.9,8.7
					c-0.2,0-0.2,0.3,0,0.4c4.5,0.8,8,4.3,8.9,8.7c0,0.2,0.4,0.2,0.4,0c0.9-4.4,4.4-7.9,8.9-8.7
					C137.675,22.923,137.675,22.623,137.475,22.623z"/>
			</g>
		</g>
		<g>
			<g>
				<path fill="#FC657E" d="M219.285,199.437c-3.158-0.562-5.613-3.017-6.245-6.104c0-0.141-0.281-0.141-0.281,0
					c-0.631,3.087-3.087,5.543-6.245,6.104c-0.14,0-0.14,0.21,0,0.281c3.158,0.561,5.613,3.017,6.245,6.104
					c0,0.14,0.281,0.14,0.281,0c0.631-3.087,3.087-5.543,6.245-6.104C219.425,199.647,219.425,199.437,219.285,199.437z"/>
			</g>
		</g>
		<g>
			<g>
				<path fill="#70D6F9" d="M37.375,195.873h-2.3v-2.3c0-1.7-1.4-3.2-3.2-3.2s-3.2,1.4-3.2,3.2v2.3h-2.3c-1.7,0-3.2,1.4-3.2,3.2
					s1.4,3.2,3.2,3.2h2.3v2.3c0,1.7,1.4,3.2,3.2,3.2s3.2-1.4,3.2-3.2v-2.3h2.3c1.7,0,3.2-1.4,3.2-3.2S39.175,195.873,37.375,195.873
					z"/>
			</g>
		</g>
		<g>
			<g>
				<path fill="#F5C84C" d="M43.475,224.227c-1.878,0-3.4,1.522-3.4,3.4c0,1.877,1.522,3.4,3.4,3.4c1.878,0,3.4-1.522,3.4-3.4
					C46.875,225.749,45.353,224.227,43.475,224.227z"/>
			</g>
		</g>
		<g>
			<g>
				<path fill="#87D147" d="M154.475,28.227c-1.878,0-3.4,1.522-3.4,3.4c0,1.877,1.522,3.4,3.4,3.4c1.878,0,3.4-1.522,3.4-3.4
					C157.875,29.749,156.353,28.227,154.475,28.227z"/>
			</g>
		</g>
		<g>
			<g>
				<g>
					<path d="M194.876,45.83c-24.57,0-61.124,4.422-61.124,16.605c0,12.183,36.554,16.604,61.124,16.604S256,74.618,256,62.436
						C256,50.252,219.446,45.83,194.876,45.83z M194.876,74.04c-36.848,0-56.124-7.555-56.124-11.604s19.275-11.605,56.124-11.605
						S251,58.386,251,62.436S231.725,74.04,194.876,74.04z"/>
				</g>
			</g>
		</g>
		<g>
			<g>
				<path d="M139.117,88.481c-0.241-0.345-0.364-0.655-0.364-0.922V62.436c0-1.381-1.119-2.5-2.5-2.5s-2.5,1.119-2.5,2.5V87.56
					c0,1.313,0.426,2.587,1.267,3.789c0.486,0.694,1.262,1.066,2.05,1.066c0.495,0,0.995-0.146,1.431-0.451
					C139.633,91.172,139.908,89.613,139.117,88.481z"/>
			</g>
		</g>
		<g>
			<g>
				<path d="M253.5,59.936c-1.381,0-2.5,1.119-2.5,2.5V87.56c0,4.05-19.275,11.605-56.124,11.605c-0.775,0-1.546-0.005-2.313-0.012
					h-0.022c-1.37,0-2.487,1.104-2.5,2.478c-0.012,1.381,1.097,2.51,2.478,2.522c0.782,0.007,1.568,0.012,2.357,0.012
					c24.57,0,61.124-4.422,61.124-16.605V62.436C256,61.055,254.881,59.936,253.5,59.936z"/>
			</g>
		</g>
		<g>
			<g>
				<path d="M253.5,99.165c-1.381,0-2.5,1.119-2.5,2.5v25.124c0,4.05-19.275,11.604-56.124,11.604c-1.584,0-3.151-0.018-4.702-0.048
					c-1.36-0.019-2.521,1.071-2.548,2.452c-0.027,1.38,1.071,2.521,2.451,2.548c1.583,0.03,3.183,0.048,4.799,0.048
					c24.57,0,61.124-4.422,61.124-16.604v-25.124C256,100.284,254.881,99.165,253.5,99.165z"/>
			</g>
		</g>
		<g>
			<g>
				<path d="M253.5,138.394c-1.381,0-2.5,1.119-2.5,2.5v25.125c0,4.05-19.275,11.604-56.124,11.604c-1.381,0-2.5,1.119-2.5,2.5
					s1.119,2.5,2.5,2.5c24.57,0,61.124-4.422,61.124-16.604v-25.125C256,139.513,254.881,138.394,253.5,138.394z"/>
			</g>
		</g>
		<g>
			<g>
				<path d="M247.332,92.617c-1.264-0.553-2.738,0.021-3.294,1.283c-0.556,1.264,0.019,2.739,1.283,3.295
					c4.192,1.843,5.68,3.56,5.68,4.47c0,4.05-19.275,11.604-56.124,11.604c-1.381,0-2.5,1.119-2.5,2.5s1.119,2.5,2.5,2.5
					c24.57,0,61.124-4.422,61.124-16.604C256,98.189,253.083,95.146,247.332,92.617z"/>
			</g>
		</g>
		<g>
			<g>
				<path d="M247.407,131.88c-1.265-0.56-2.74,0.012-3.298,1.275c-0.558,1.263,0.013,2.739,1.275,3.297
					c4.145,1.833,5.616,3.538,5.616,4.441c0,4.05-19.275,11.605-56.124,11.605c-1.381,0-2.5,1.119-2.5,2.5s1.119,2.5,2.5,2.5
					c24.57,0,61.124-4.422,61.124-16.605C256,137.434,253.109,134.401,247.407,131.88z"/>
			</g>
		</g>
		<g>
			<g>
				<g>
					<path d="M61.124,45.83C36.554,45.83,0,50.252,0,62.436C0,74.618,36.554,79.04,61.124,79.04s61.124-4.422,61.124-16.604
						C122.247,50.252,85.693,45.83,61.124,45.83z M61.124,74.04C24.275,74.04,5,66.485,5,62.436S24.275,50.83,61.124,50.83
						s56.124,7.556,56.124,11.605S97.972,74.04,61.124,74.04z"/>
				</g>
			</g>
		</g>
		<g>
			<g>
				<path d="M119.747,59.936c-1.381,0-2.5,1.119-2.5,2.5V87.56c0,0.254-0.111,0.549-0.331,0.875
					c-0.771,1.146-0.466,2.699,0.68,3.469c0.428,0.288,0.913,0.426,1.393,0.426c0.805,0,1.594-0.388,2.077-1.105
					c0.784-1.165,1.181-2.398,1.181-3.664V62.436C122.247,61.055,121.128,59.936,119.747,59.936z"/>
			</g>
		</g>
		<g>
			<g>
				<path d="M63.807,99.149c-0.889,0.01-1.784,0.016-2.683,0.016C24.275,99.165,5,91.609,5,87.56V62.436c0-1.381-1.119-2.5-2.5-2.5
					S0,61.055,0,62.436V87.56c0,12.184,36.554,16.605,61.124,16.605c0.918,0,1.83-0.006,2.738-0.016
					c1.38-0.016,2.487-1.146,2.473-2.527C66.319,100.241,65.187,99.181,63.807,99.149z"/>
			</g>
		</g>
		<g>
			<g>
				<path d="M66.157,138.34c-0.018,0-0.035,0-0.052,0.001c-1.643,0.033-3.302,0.053-4.981,0.053C24.275,138.394,5,130.839,5,126.789
					v-25.124c0-1.381-1.119-2.5-2.5-2.5s-2.5,1.119-2.5,2.5v25.124c0,12.183,36.554,16.604,61.124,16.604
					c1.714,0,3.407-0.02,5.083-0.055c1.381-0.028,2.477-1.17,2.448-2.551C68.627,139.426,67.514,138.34,66.157,138.34z"/>
			</g>
		</g>
		<g>
			<g>
				<path d="M61.124,177.623C24.275,177.623,5,170.068,5,166.019v-25.125c0-1.381-1.119-2.5-2.5-2.5s-2.5,1.119-2.5,2.5v25.125
					c0,12.183,36.554,16.604,61.124,16.604c1.381,0,2.5-1.119,2.5-2.5S62.504,177.623,61.124,177.623z"/>
			</g>
		</g>
		<g>
			<g>
				<path d="M61.124,113.27C24.275,113.27,5,105.715,5,101.665c0-0.902,1.468-2.606,5.606-4.438
					c1.263-0.559,1.833-2.035,1.274-3.298s-2.036-1.833-3.298-1.274C2.888,95.176,0,98.207,0,101.665
					c0,12.183,36.554,16.604,61.124,16.604c1.381,0,2.5-1.119,2.5-2.5S62.504,113.27,61.124,113.27z"/>
			</g>
		</g>
		<g>
			<g>
				<path d="M61.124,152.499C24.275,152.499,5,144.943,5,140.894c0-0.911,1.491-2.63,5.694-4.476
					c1.264-0.555,1.839-2.029,1.284-3.294c-0.556-1.265-2.031-1.841-3.294-1.284C2.922,134.37,0,137.416,0,140.894
					c0,12.184,36.554,16.605,61.124,16.605c1.381,0,2.5-1.119,2.5-2.5S62.504,152.499,61.124,152.499z"/>
			</g>
		</g>
		<g>
			<g>
				<g>
					<path d="M128,87.727c-34.289,0-69,6.354-69,18.5s34.711,18.5,69,18.5s69-6.354,69-18.5S162.289,87.727,128,87.727z
						 M128,119.727c-39.068,0-64-7.995-64-13.5s24.932-13.5,64-13.5s64,7.995,64,13.5S167.068,119.727,128,119.727z"/>
				</g>
			</g>
		</g>
		<g>
			<g>
				<path d="M194.5,103.727c-1.381,0-2.5,1.119-2.5,2.5v28.5c0,5.505-24.932,13.5-64,13.5s-64-7.995-64-13.5v-28.5
					c0-1.381-1.119-2.5-2.5-2.5s-2.5,1.119-2.5,2.5v28.5c0,12.146,34.711,18.5,69,18.5s69-6.354,69-18.5v-28.5
					C197,104.846,195.881,103.727,194.5,103.727z"/>
			</g>
		</g>
		<g>
			<g>
				<path d="M194.5,192.727c-1.381,0-2.5,1.119-2.5,2.5v28.5c0,5.505-24.932,13.5-64,13.5s-64-7.995-64-13.5v-28.5
					c0-1.381-1.119-2.5-2.5-2.5s-2.5,1.119-2.5,2.5v28.5c0,12.146,34.711,18.5,69,18.5s69-6.354,69-18.5v-28.5
					C197,193.846,195.881,192.727,194.5,192.727z"/>
			</g>
		</g>
		<g>
			<g>
				<path d="M187.478,140.819c-1.262-0.557-2.738,0.011-3.298,1.273c-0.56,1.263,0.011,2.739,1.273,3.299
					c4.828,2.139,6.548,4.158,6.548,5.335c0,5.505-24.932,13.5-64,13.5s-64-7.995-64-13.5c0-1.164,1.691-3.164,6.437-5.286
					c1.261-0.563,1.826-2.042,1.262-3.303c-0.563-1.26-2.041-1.824-3.302-1.262c-6.235,2.787-9.397,6.102-9.397,9.851
					c0,12.146,34.711,18.5,69,18.5s69-6.354,69-18.5C197,146.952,193.796,143.619,187.478,140.819z"/>
			</g>
		</g>
		<g>
			<g>
				<path d="M194.5,148.227c-1.381,0-2.5,1.119-2.5,2.5v28.5c0,5.505-24.932,13.5-64,13.5s-64-7.995-64-13.5v-28.5
					c0-1.381-1.119-2.5-2.5-2.5s-2.5,1.119-2.5,2.5v28.5c0,12.146,34.711,18.5,69,18.5s69-6.354,69-18.5v-28.5
					C197,149.346,195.881,148.227,194.5,148.227z"/>
			</g>
		</g>
		<g>
			<g>
				<path d="M187.385,185.279c-1.267-0.559-2.739,0.018-3.295,1.281s0.017,2.739,1.281,3.295c4.888,2.151,6.629,4.186,6.629,5.371
					c0,5.505-24.932,13.5-64,13.5s-64-7.995-64-13.5c0-1.195,1.763-3.243,6.71-5.406c1.265-0.554,1.842-2.027,1.289-3.293
					c-0.553-1.265-2.03-1.844-3.292-1.289c-6.441,2.817-9.707,6.178-9.707,9.988c0,12.146,34.711,18.5,69,18.5s69-6.354,69-18.5
					C197,191.435,193.765,188.087,187.385,185.279z"/>
			</g>
		</g>
	</g>
</g>
<g id="Layer_83">
</g>
<g id="Layer_84">
</g>
<g id="Layer_85">
</g>
<g id="Layer_86">
</g>
<g id="Layer_87">
</g>
<g id="Layer_88">
</g>
<g id="Layer_89">
</g>
<g id="Layer_90">
</g>
</svg>
