<?xml version="1.0" encoding="utf-8"?>
<!-- Generator: Adobe Illustrator 24.0.0, SVG Export Plug-In . SVG Version: 6.00 Build 0)  -->
<svg version="1.1" xmlns="http://www.w3.org/2000/svg" xmlns:xlink="http://www.w3.org/1999/xlink" x="0px" y="0px"
	 viewBox="0 0 256 256" enable-background="new 0 0 256 256" xml:space="preserve">
<g id="Layer_1">
</g>
<g id="Layer_2">
</g>
<g id="Layer_3">
</g>
<g id="Layer_4">
</g>
<g id="Layer_5">
</g>
<g id="Layer_6">
</g>
<g id="Layer_7">
</g>
<g id="Layer_8">
</g>
<g id="Layer_9">
</g>
<g id="Layer_10">
</g>
<g id="Layer_11">
</g>
<g id="Layer_12">
</g>
<g id="Layer_13">
</g>
<g id="Layer_14">
</g>
<g id="Layer_15">
</g>
<g id="Layer_16">
</g>
<g id="Layer_17">
</g>
<g id="Layer_18">
</g>
<g id="Layer_19">
</g>
<g id="Layer_20">
</g>
<g id="Layer_21">
</g>
<g id="Layer_22">
</g>
<g id="Layer_23">
</g>
<g id="Layer_24">
</g>
<g id="Layer_25">
</g>
<g id="Layer_26">
</g>
<g id="Layer_27">
</g>
<g id="Layer_28">
</g>
<g id="Layer_29">
</g>
<g id="Layer_30">
</g>
<g id="Layer_31">
</g>
<g id="Layer_32">
</g>
<g id="Layer_33">
</g>
<g id="Layer_34">
</g>
<g id="Layer_35">
</g>
<g id="Layer_36">
</g>
<g id="Layer_37">
</g>
<g id="Layer_38">
</g>
<g id="Layer_39">
</g>
<g id="Layer_40">
</g>
<g id="Layer_41">
</g>
<g id="Layer_42">
</g>
<g id="Layer_43">
</g>
<g id="Layer_44">
</g>
<g id="Layer_45">
</g>
<g id="Layer_46">
</g>
<g id="Layer_47">
</g>
<g id="Layer_48">
</g>
<g id="Layer_49">
</g>
<g id="Layer_50">
</g>
<g id="Layer_51">
</g>
<g id="Layer_52">
</g>
<g id="Layer_53">
</g>
<g id="Layer_54">
</g>
<g id="Layer_55">
</g>
<g id="Layer_56">
</g>
<g id="Layer_57">
</g>
<g id="Layer_58">
</g>
<g id="Layer_59">
</g>
<g id="Layer_60">
</g>
<g id="Layer_61">
</g>
<g id="Layer_62">
</g>
<g id="Layer_63">
</g>
<g id="Layer_64">
</g>
<g id="Layer_65">
</g>
<g id="Layer_66">
</g>
<g id="Layer_67">
</g>
<g id="Layer_68">
</g>
<g id="Layer_69">
</g>
<g id="Layer_70">
</g>
<g id="Layer_71">
</g>
<g id="Layer_72">
</g>
<g id="Layer_73">
</g>
<g id="Layer_74">
	<g>
		<g>
			<g>
				<path fill="#F5C84C" d="M41.595,7.322c-3.04,0-5.527,2.487-5.527,5.527v23.437c0,3.04,2.487,5.527,5.527,5.527
					s5.527-2.487,5.527-5.527V12.849C47.122,9.809,44.635,7.322,41.595,7.322z"/>
			</g>
		</g>
		<g>
			<g>
				<path fill="#F5C84C" d="M76.75,7.322c-3.04,0-5.527,2.487-5.527,5.527v23.437c0,3.04,2.487,5.527,5.527,5.527
					s5.527-2.487,5.527-5.527V12.849C82.277,9.809,79.79,7.322,76.75,7.322z"/>
			</g>
		</g>
		<g>
			<g>
				<path fill="#F5C84C" d="M111.904,7.322c-3.04,0-5.527,2.487-5.527,5.527v23.437c0,3.04,2.487,5.527,5.527,5.527
					s5.527-2.487,5.527-5.527V12.849C117.432,9.809,114.944,7.322,111.904,7.322z"/>
			</g>
		</g>
		<g>
			<g>
				<path fill="#F5C84C" d="M147.059,7.322c-3.04,0-5.527,2.487-5.527,5.527v23.437c0,3.04,2.487,5.527,5.527,5.527
					s5.527-2.487,5.527-5.527V12.849C152.586,9.809,150.099,7.322,147.059,7.322z"/>
			</g>
		</g>
		<g>
			<g>
				<path fill="#F5C84C" d="M182.213,7.322c-3.04,0-5.528,2.487-5.528,5.527v23.437c0,3.04,2.487,5.527,5.528,5.527
					c3.04,0,5.527-2.487,5.527-5.527V12.849C187.741,9.809,185.253,7.322,182.213,7.322z"/>
			</g>
		</g>
		<g>
			<g>
				<path fill="#EDF4FC" d="M203.144,26.778h-15.404v9.507c0,3.04-2.487,5.527-5.527,5.527c-3.04,0-5.528-2.487-5.528-5.527v-9.507
					h-24.1v9.507c0,3.04-2.487,5.527-5.528,5.527c-3.04,0-5.527-2.487-5.527-5.527v-9.507h-24.1v9.507
					c0,3.04-2.487,5.527-5.527,5.527s-5.527-2.487-5.527-5.527v-9.507h-24.1v9.507c0,3.04-2.487,5.527-5.527,5.527
					s-5.527-2.487-5.527-5.527v-9.507h-24.1v9.507c0,3.04-2.487,5.527-5.527,5.527s-5.527-2.487-5.527-5.527v-9.507H20.664
					c-4.559,0-8.254,3.696-8.254,8.254v180.182c0,4.559,3.695,8.254,8.254,8.254h118.601c-3.231-6.812-5.045-14.427-5.045-22.468
					c0-28.995,23.505-52.5,52.5-52.5c8.922,0,17.321,2.232,24.678,6.159V35.032C211.398,30.474,207.703,26.778,203.144,26.778z"/>
			</g>
		</g>
		<g>
			<g>
				<path fill="#FC657E" d="M203.144,26.778h-15.404v9.507c0,3.04-2.487,5.527-5.527,5.527c-3.04,0-5.528-2.487-5.528-5.527v-9.507
					h-24.1v9.507c0,3.04-2.487,5.527-5.527,5.527s-5.527-2.487-5.527-5.527v-9.507h-24.1v9.507c0,3.04-2.487,5.527-5.527,5.527
					s-5.527-2.487-5.527-5.527v-9.507h-24.1v9.507c0,3.04-2.487,5.527-5.527,5.527s-5.527-2.487-5.527-5.527v-9.507h-24.1v9.507
					c0,3.04-2.487,5.527-5.527,5.527s-5.527-2.487-5.527-5.527v-9.507H20.664c-4.559,0-8.254,3.696-8.254,8.254v31.544h198.988
					V35.032C211.398,30.474,207.703,26.778,203.144,26.778z"/>
			</g>
		</g>
		<g>
			<g>
				<path fill="#F98FA6" d="M140.632,55.963H83.177c-3.413,0-6.206,2.792-6.206,6.206v4.407h69.867v-4.407
					C146.838,58.756,144.045,55.963,140.632,55.963z"/>
			</g>
		</g>
		<g>
			<g>
				<path fill="#EDF4FC" d="M51.66,80.691H37.552c-2.641,0-4.801,2.16-4.801,4.801V99.6c0,2.641,2.161,4.801,4.801,4.801H51.66
					c2.641,0,4.801-2.161,4.801-4.801V85.492C56.461,82.852,54.3,80.691,51.66,80.691z"/>
			</g>
		</g>
		<g>
			<g>
				<path fill="#EDF4FC" d="M85.309,80.691H71.201c-2.641,0-4.801,2.16-4.801,4.801V99.6c0,2.641,2.161,4.801,4.801,4.801h14.108
					c2.641,0,4.801-2.161,4.801-4.801V85.492C90.11,82.852,87.949,80.691,85.309,80.691z"/>
			</g>
		</g>
		<g>
			<g>
				<path fill="#EDF4FC" d="M118.958,80.691H104.85c-2.641,0-4.801,2.16-4.801,4.801V99.6c0,2.641,2.161,4.801,4.801,4.801h14.108
					c2.641,0,4.801-2.161,4.801-4.801V85.492C123.759,82.852,121.599,80.691,118.958,80.691z"/>
			</g>
		</g>
		<g>
			<g>
				<path fill="#EDF4FC" d="M152.607,80.691h-14.108c-2.641,0-4.801,2.16-4.801,4.801V99.6c0,2.641,2.161,4.801,4.801,4.801h14.108
					c2.641,0,4.801-2.161,4.801-4.801V85.492C157.408,82.852,155.248,80.691,152.607,80.691z"/>
			</g>
		</g>
		<g>
			<g>
				<path fill="#EDF4FC" d="M186.256,80.691h-14.108c-2.641,0-4.801,2.16-4.801,4.801V99.6c0,2.641,2.16,4.801,4.801,4.801h14.108
					c2.641,0,4.801-2.161,4.801-4.801V85.492C191.057,82.852,188.897,80.691,186.256,80.691z"/>
			</g>
		</g>
		<g>
			<g>
				<path fill="#EDF4FC" d="M51.66,114.62H37.552c-2.641,0-4.801,2.161-4.801,4.801v14.108c0,2.641,2.161,4.801,4.801,4.801H51.66
					c2.641,0,4.801-2.161,4.801-4.801v-14.108C56.461,116.78,54.3,114.62,51.66,114.62z"/>
			</g>
		</g>
		<g>
			<g>
				<path fill="#EDF4FC" d="M85.309,114.62H71.201c-2.641,0-4.801,2.161-4.801,4.801v14.108c0,2.641,2.161,4.801,4.801,4.801h14.108
					c2.641,0,4.801-2.161,4.801-4.801v-14.108C90.11,116.78,87.949,114.62,85.309,114.62z"/>
			</g>
		</g>
		<g>
			<g>
				<path fill="#EDF4FC" d="M118.958,114.62H104.85c-2.641,0-4.801,2.161-4.801,4.801v14.108c0,2.641,2.161,4.801,4.801,4.801
					h14.108c2.641,0,4.801-2.161,4.801-4.801v-14.108C123.759,116.78,121.599,114.62,118.958,114.62z"/>
			</g>
		</g>
		<g>
			<g>
				<path fill="#EDF4FC" d="M152.607,114.62h-14.108c-2.641,0-4.801,2.161-4.801,4.801v14.108c0,2.641,2.161,4.801,4.801,4.801
					h14.108c2.641,0,4.801-2.161,4.801-4.801v-14.108C157.408,116.78,155.248,114.62,152.607,114.62z"/>
			</g>
		</g>
		<g>
			<g>
				<path fill="#EDF4FC" d="M186.256,114.62h-14.108c-2.641,0-4.801,2.161-4.801,4.801v14.108c0,2.641,2.16,4.801,4.801,4.801
					h14.108c2.641,0,4.801-2.161,4.801-4.801v-14.108C191.057,116.78,188.897,114.62,186.256,114.62z"/>
			</g>
		</g>
		<g>
			<g>
				<path fill="#EDF4FC" d="M51.66,148.548H37.552c-2.641,0-4.801,2.161-4.801,4.801v14.107c0,2.641,2.161,4.801,4.801,4.801H51.66
					c2.641,0,4.801-2.16,4.801-4.801V153.35C56.461,150.709,54.3,148.548,51.66,148.548z"/>
			</g>
		</g>
		<g>
			<g>
				<path fill="#EDF4FC" d="M85.309,148.548H71.201c-2.641,0-4.801,2.161-4.801,4.801v14.107c0,2.641,2.161,4.801,4.801,4.801
					h14.108c2.641,0,4.801-2.16,4.801-4.801V153.35C90.11,150.709,87.949,148.548,85.309,148.548z"/>
			</g>
		</g>
		<g>
			<g>
				<path fill="#EDF4FC" d="M118.958,148.548H104.85c-2.641,0-4.801,2.161-4.801,4.801v14.107c0,2.641,2.161,4.801,4.801,4.801
					h14.108c2.641,0,4.801-2.16,4.801-4.801V153.35C123.759,150.709,121.599,148.548,118.958,148.548z"/>
			</g>
		</g>
		<g>
			<g>
				<path fill="#EDF4FC" d="M51.66,182.477H37.552c-2.641,0-4.801,2.161-4.801,4.801v14.107c0,2.641,2.161,4.801,4.801,4.801H51.66
					c2.641,0,4.801-2.161,4.801-4.801v-14.107C56.461,184.638,54.3,182.477,51.66,182.477z"/>
			</g>
		</g>
		<g>
			<g>
				<path fill="#EDF4FC" d="M85.309,182.477H71.201c-2.641,0-4.801,2.161-4.801,4.801v14.107c0,2.641,2.161,4.801,4.801,4.801
					h14.108c2.641,0,4.801-2.161,4.801-4.801v-14.107C90.11,184.638,87.949,182.477,85.309,182.477z"/>
			</g>
		</g>
		<g>
			<g>
				<path fill="#EDF4FC" d="M118.958,182.477H104.85c-2.641,0-4.801,2.161-4.801,4.801v14.107c0,2.641,2.161,4.801,4.801,4.801
					h14.108c2.641,0,4.801-2.161,4.801-4.801v-14.107C123.759,184.638,121.599,182.477,118.958,182.477z"/>
			</g>
		</g>
		<g>
			<g>
				<path fill="#EDF4FC" d="M152.607,148.548H138.5c-2.641,0-4.801,2.161-4.801,4.801v14.107c0,2.641,2.161,4.801,4.801,4.801h4.294
					c3.84-5.857,8.81-10.906,14.614-14.819v-4.09C157.408,150.709,155.248,148.548,152.607,148.548z"/>
			</g>
		</g>
		<g>
			<g>
				
					<ellipse transform="matrix(0.9871 -0.1602 0.1602 0.9871 -29.7856 32.5047)" fill="#FC657E" cx="186.72" cy="201" rx="52.5" ry="52.5"/>
			</g>
		</g>
		<g>
			<g>
				<path fill="#FCDD86" d="M208.72,208.5h-44c-2.761,0-5,2.239-5,5s2.239,5,5,5h44c2.761,0,5-2.239,5-5S211.481,208.5,208.72,208.5
					z"/>
			</g>
		</g>
		<g>
			<g>
				<path fill="#F5C84C" d="M186.72,166.734c-11.946,0-21.719,9.773-21.719,21.719V208.5h43.439v-20.047
					C208.439,176.507,198.666,166.734,186.72,166.734z"/>
			</g>
		</g>
		<g>
			<g>
				<path fill="#F5C84C" d="M193.635,218.5h-13.831c-1.598,1.7-2.585,3.982-2.585,6.5c0,5.247,4.253,9.5,9.5,9.5
					c5.247,0,9.5-4.253,9.5-9.5C196.22,222.482,195.234,220.2,193.635,218.5z"/>
			</g>
		</g>
		<g>
			<g>
				<g>
					<path d="M41.595,4.821c-4.427,0-8.027,3.602-8.027,8.028v23.436c0,4.427,3.601,8.028,8.027,8.028s8.027-3.602,8.027-8.028
						V12.85C49.622,8.423,46.021,4.821,41.595,4.821z M44.622,36.285c0,1.67-1.358,3.028-3.027,3.028s-3.027-1.358-3.027-3.028
						V12.85c0-1.67,1.358-3.028,3.027-3.028s3.027,1.358,3.027,3.028V36.285z"/>
				</g>
			</g>
		</g>
		<g>
			<g>
				<g>
					<path d="M76.75,4.821c-4.427,0-8.028,3.602-8.028,8.028v23.436c0,4.427,3.602,8.028,8.028,8.028s8.027-3.602,8.027-8.028V12.85
						C84.777,8.423,81.177,4.821,76.75,4.821z M79.777,36.285c0,1.67-1.358,3.028-3.027,3.028c-1.67,0-3.028-1.358-3.028-3.028
						V12.85c0-1.67,1.358-3.028,3.028-3.028c1.669,0,3.027,1.358,3.027,3.028V36.285z"/>
				</g>
			</g>
		</g>
		<g>
			<g>
				<g>
					<path d="M111.904,4.821c-4.427,0-8.027,3.602-8.027,8.028v23.436c0,4.427,3.601,8.028,8.027,8.028s8.027-3.602,8.027-8.028
						V12.85C119.932,8.423,116.331,4.821,111.904,4.821z M114.932,36.285c0,1.67-1.358,3.028-3.027,3.028s-3.027-1.358-3.027-3.028
						V12.85c0-1.67,1.358-3.028,3.027-3.028s3.027,1.358,3.027,3.028V36.285z"/>
				</g>
			</g>
		</g>
		<g>
			<g>
				<g>
					<path d="M147.059,4.821c-4.427,0-8.027,3.602-8.027,8.028v23.436c0,4.427,3.601,8.028,8.027,8.028s8.027-3.602,8.027-8.028
						V12.85C155.086,8.423,151.485,4.821,147.059,4.821z M150.086,36.285c0,1.67-1.358,3.028-3.027,3.028s-3.027-1.358-3.027-3.028
						V12.85c0-1.67,1.358-3.028,3.027-3.028s3.027,1.358,3.027,3.028V36.285z"/>
				</g>
			</g>
		</g>
		<g>
			<g>
				<g>
					<path d="M182.213,4.821c-4.427,0-8.027,3.602-8.027,8.028v23.436c0,4.427,3.601,8.028,8.027,8.028s8.028-3.602,8.028-8.028
						V12.85C190.241,8.423,186.64,4.821,182.213,4.821z M185.241,36.285c0,1.67-1.358,3.028-3.028,3.028
						c-1.669,0-3.027-1.358-3.027-3.028V12.85c0-1.67,1.358-3.028,3.027-3.028c1.67,0,3.028,1.358,3.028,3.028V36.285z"/>
				</g>
			</g>
		</g>
		<g>
			<g>
				<path fill="#F5C84C" d="M245.94,127.85c-4.5-0.8-8-4.3-8.9-8.7c0-0.2-0.4-0.2-0.4,0c-0.9,4.4-4.4,7.9-8.9,8.7
					c-0.2,0-0.2,0.3,0,0.4c4.5,0.8,8,4.3,8.9,8.7c0,0.2,0.4,0.2,0.4,0c0.9-4.4,4.4-7.9,8.9-8.7
					C246.14,128.15,246.14,127.85,245.94,127.85z"/>
			</g>
		</g>
		<g>
			<g>
				<path fill="#FC657E" d="M211.75,6.21c-3.157-0.562-5.613-3.018-6.245-6.104c0-0.141-0.281-0.141-0.281,0
					c-0.631,3.087-3.087,5.543-6.245,6.104c-0.14,0-0.14,0.21,0,0.28c3.157,0.562,5.613,3.018,6.245,6.104
					c0,0.141,0.281,0.141,0.281,0c0.631-3.087,3.087-5.543,6.245-6.104C211.891,6.42,211.891,6.21,211.75,6.21z"/>
			</g>
		</g>
		<g>
			<g>
				<path fill="#70D6F9" d="M105.84,244.1h-2.3v-2.3c0-1.7-1.4-3.2-3.2-3.2c-1.8,0-3.2,1.4-3.2,3.2v2.3h-2.3c-1.7,0-3.2,1.4-3.2,3.2
					c0,1.8,1.4,3.2,3.2,3.2h2.3v2.3c0,1.7,1.4,3.2,3.2,3.2c1.8,0,3.2-1.4,3.2-3.2v-2.3h2.3c1.7,0,3.2-1.4,3.2-3.2
					C109.04,245.5,107.64,244.1,105.84,244.1z"/>
			</g>
		</g>
		<g>
			<g>
				<path fill="#F5C84C" d="M72.94,234c-1.878,0-3.4,1.522-3.4,3.4c0,1.878,1.522,3.4,3.4,3.4s3.4-1.522,3.4-3.4
					C76.34,235.522,74.818,234,72.94,234z"/>
			</g>
		</g>
		<g>
			<g>
				<path fill="#87D147" d="M227.94,92.2c-1.878,0-3.4,1.522-3.4,3.4c0,1.877,1.522,3.4,3.4,3.4c1.878,0,3.4-1.522,3.4-3.4
					C231.34,93.722,229.818,92.2,227.94,92.2z"/>
			</g>
		</g>
		<g>
			<g>
				<path d="M70.375,24.278H47.75c-1.381,0-2.5,1.119-2.5,2.5s1.119,2.5,2.5,2.5h22.625c1.381,0,2.5-1.119,2.5-2.5
					S71.756,24.278,70.375,24.278z"/>
			</g>
		</g>
		<g>
			<g>
				<path d="M105.582,24.278H83.208c-1.381,0-2.5,1.119-2.5,2.5s1.119,2.5,2.5,2.5h22.374c1.381,0,2.5-1.119,2.5-2.5
					S106.963,24.278,105.582,24.278z"/>
			</g>
		</g>
		<g>
			<g>
				<path d="M140.958,24.278h-22.75c-1.381,0-2.5,1.119-2.5,2.5s1.119,2.5,2.5,2.5h22.75c1.381,0,2.5-1.119,2.5-2.5
					S142.339,24.278,140.958,24.278z"/>
			</g>
		</g>
		<g>
			<g>
				<path d="M176.031,24.278h-22.739c-1.381,0-2.5,1.119-2.5,2.5s1.119,2.5,2.5,2.5h22.739c1.381,0,2.5-1.119,2.5-2.5
					S177.412,24.278,176.031,24.278z"/>
			</g>
		</g>
		<g>
			<g>
				<path d="M203.145,24.278h-14.581c-1.381,0-2.5,1.119-2.5,2.5s1.119,2.5,2.5,2.5h14.581c3.173,0,5.754,2.581,5.754,5.754v119.031
					c0,1.381,1.119,2.5,2.5,2.5s2.5-1.119,2.5-2.5V35.032C213.898,29.103,209.074,24.278,203.145,24.278z"/>
			</g>
		</g>
		<g>
			<g>
				<path d="M138.688,220.968H20.664c-3.173,0-5.754-2.581-5.754-5.754V35.032c0-3.173,2.581-5.754,5.754-5.754h14.878
					c1.381,0,2.5-1.119,2.5-2.5s-1.119-2.5-2.5-2.5H20.664c-5.93,0-10.754,4.824-10.754,10.754v180.182
					c0,5.93,4.824,10.754,10.754,10.754h118.023c1.381,0,2.5-1.119,2.5-2.5S140.068,220.968,138.688,220.968z"/>
			</g>
		</g>
		<g>
			<g>
				<path d="M210.625,64.076H13.354c-1.381,0-2.5,1.119-2.5,2.5s1.119,2.5,2.5,2.5h197.271c1.381,0,2.5-1.119,2.5-2.5
					S212.006,64.076,210.625,64.076z"/>
			</g>
		</g>
		<g>
			<g>
				<path d="M140.632,53.463H83.177c-4.801,0-8.706,3.905-8.706,8.706v3.498c0,1.381,1.119,2.5,2.5,2.5s2.5-1.119,2.5-2.5v-3.498
					c0-2.044,1.662-3.706,3.706-3.706h57.455c2.044,0,3.706,1.662,3.706,3.706v3.498c0,1.381,1.119,2.5,2.5,2.5s2.5-1.119,2.5-2.5
					v-3.498C149.338,57.368,145.433,53.463,140.632,53.463z"/>
			</g>
		</g>
		<g>
			<g>
				<g>
					<path d="M51.66,78.191H37.552c-4.025,0-7.301,3.275-7.301,7.301V99.6c0,4.026,3.275,7.302,7.301,7.302H51.66
						c4.025,0,7.301-3.275,7.301-7.302V85.492C58.961,81.467,55.686,78.191,51.66,78.191z M53.961,99.6
						c0,1.27-1.032,2.302-2.301,2.302H37.552c-1.269,0-2.301-1.032-2.301-2.302V85.492c0-1.269,1.032-2.301,2.301-2.301H51.66
						c1.269,0,2.301,1.032,2.301,2.301V99.6z"/>
				</g>
			</g>
		</g>
		<g>
			<g>
				<g>
					<path d="M85.309,78.191H71.201c-4.025,0-7.301,3.275-7.301,7.301V99.6c0,4.026,3.275,7.302,7.301,7.302h14.107
						c4.026,0,7.302-3.275,7.302-7.302V85.492C92.61,81.467,89.335,78.191,85.309,78.191z M87.61,99.6
						c0,1.27-1.032,2.302-2.302,2.302H71.201c-1.269,0-2.301-1.032-2.301-2.302V85.492c0-1.269,1.032-2.301,2.301-2.301h14.107
						c1.27,0,2.302,1.032,2.302,2.301V99.6z"/>
				</g>
			</g>
		</g>
		<g>
			<g>
				<g>
					<path d="M118.958,78.191h-14.107c-4.026,0-7.302,3.275-7.302,7.301V99.6c0,4.026,3.275,7.302,7.302,7.302h14.107
						c4.025,0,7.301-3.275,7.301-7.302V85.492C126.259,81.467,122.983,78.191,118.958,78.191z M121.259,99.6
						c0,1.27-1.032,2.302-2.301,2.302h-14.107c-1.27,0-2.302-1.032-2.302-2.302V85.492c0-1.269,1.032-2.301,2.302-2.301h14.107
						c1.269,0,2.301,1.032,2.301,2.301V99.6z"/>
				</g>
			</g>
		</g>
		<g>
			<g>
				<g>
					<path d="M152.607,78.191h-14.108c-4.025,0-7.301,3.275-7.301,7.301V99.6c0,4.026,3.275,7.302,7.301,7.302h14.108
						c4.025,0,7.301-3.275,7.301-7.302V85.492C159.908,81.467,156.633,78.191,152.607,78.191z M154.908,99.6
						c0,1.27-1.032,2.302-2.301,2.302h-14.108c-1.269,0-2.301-1.032-2.301-2.302V85.492c0-1.269,1.032-2.301,2.301-2.301h14.108
						c1.269,0,2.301,1.032,2.301,2.301V99.6z"/>
				</g>
			</g>
		</g>
		<g>
			<g>
				<g>
					<path d="M186.256,78.191h-14.107c-4.025,0-7.301,3.275-7.301,7.301V99.6c0,4.026,3.275,7.302,7.301,7.302h14.107
						c4.026,0,7.302-3.275,7.302-7.302V85.492C193.558,81.467,190.282,78.191,186.256,78.191z M188.558,99.6
						c0,1.27-1.032,2.302-2.302,2.302h-14.107c-1.269,0-2.301-1.032-2.301-2.302V85.492c0-1.269,1.032-2.301,2.301-2.301h14.107
						c1.27,0,2.302,1.032,2.302,2.301V99.6z"/>
				</g>
			</g>
		</g>
		<g>
			<g>
				<g>
					<path d="M51.66,112.12H37.552c-4.025,0-7.301,3.275-7.301,7.301v14.107c0,4.026,3.275,7.302,7.301,7.302H51.66
						c4.025,0,7.301-3.275,7.301-7.302v-14.107C58.961,115.396,55.686,112.12,51.66,112.12z M53.961,133.528
						c0,1.27-1.032,2.302-2.301,2.302H37.552c-1.269,0-2.301-1.032-2.301-2.302v-14.107c0-1.269,1.032-2.301,2.301-2.301H51.66
						c1.269,0,2.301,1.032,2.301,2.301V133.528z"/>
				</g>
			</g>
		</g>
		<g>
			<g>
				<g>
					<path d="M85.309,112.12H71.201c-4.025,0-7.301,3.275-7.301,7.301v14.107c0,4.026,3.275,7.302,7.301,7.302h14.107
						c4.026,0,7.302-3.275,7.302-7.302v-14.107C92.61,115.396,89.335,112.12,85.309,112.12z M87.61,133.528
						c0,1.27-1.032,2.302-2.302,2.302H71.201c-1.269,0-2.301-1.032-2.301-2.302v-14.107c0-1.269,1.032-2.301,2.301-2.301h14.107
						c1.27,0,2.302,1.032,2.302,2.301V133.528z"/>
				</g>
			</g>
		</g>
		<g>
			<g>
				<g>
					<path d="M118.958,112.12h-14.107c-4.026,0-7.302,3.275-7.302,7.301v14.107c0,4.026,3.275,7.302,7.302,7.302h14.107
						c4.025,0,7.301-3.275,7.301-7.302v-14.107C126.259,115.396,122.983,112.12,118.958,112.12z M121.259,133.528
						c0,1.27-1.032,2.302-2.301,2.302h-14.107c-1.27,0-2.302-1.032-2.302-2.302v-14.107c0-1.269,1.032-2.301,2.302-2.301h14.107
						c1.269,0,2.301,1.032,2.301,2.301V133.528z"/>
				</g>
			</g>
		</g>
		<g>
			<g>
				<g>
					<path d="M152.607,112.12h-14.108c-4.025,0-7.301,3.275-7.301,7.301v14.107c0,4.026,3.275,7.302,7.301,7.302h14.108
						c4.025,0,7.301-3.275,7.301-7.302v-14.107C159.908,115.396,156.633,112.12,152.607,112.12z M154.908,133.528
						c0,1.27-1.032,2.302-2.301,2.302h-14.108c-1.269,0-2.301-1.032-2.301-2.302v-14.107c0-1.269,1.032-2.301,2.301-2.301h14.108
						c1.269,0,2.301,1.032,2.301,2.301V133.528z"/>
				</g>
			</g>
		</g>
		<g>
			<g>
				<g>
					<path d="M186.256,112.12h-14.107c-4.025,0-7.301,3.275-7.301,7.301v14.107c0,4.026,3.275,7.302,7.301,7.302h14.107
						c4.026,0,7.302-3.275,7.302-7.302v-14.107C193.558,115.396,190.282,112.12,186.256,112.12z M188.558,133.528
						c0,1.27-1.032,2.302-2.302,2.302h-14.107c-1.269,0-2.301-1.032-2.301-2.302v-14.107c0-1.269,1.032-2.301,2.301-2.301h14.107
						c1.27,0,2.302,1.032,2.302,2.301V133.528z"/>
				</g>
			</g>
		</g>
		<g>
			<g>
				<g>
					<path d="M51.66,146.049H37.552c-4.025,0-7.301,3.275-7.301,7.301v14.107c0,4.026,3.275,7.302,7.301,7.302H51.66
						c4.025,0,7.301-3.275,7.301-7.302V153.35C58.961,149.324,55.686,146.049,51.66,146.049z M53.961,167.457
						c0,1.27-1.032,2.302-2.301,2.302H37.552c-1.269,0-2.301-1.032-2.301-2.302V153.35c0-1.269,1.032-2.301,2.301-2.301H51.66
						c1.269,0,2.301,1.032,2.301,2.301V167.457z"/>
				</g>
			</g>
		</g>
		<g>
			<g>
				<g>
					<path d="M85.309,146.049H71.201c-4.025,0-7.301,3.275-7.301,7.301v14.107c0,4.026,3.275,7.302,7.301,7.302h14.107
						c4.026,0,7.302-3.275,7.302-7.302V153.35C92.61,149.324,89.335,146.049,85.309,146.049z M87.61,167.457
						c0,1.27-1.032,2.302-2.302,2.302H71.201c-1.269,0-2.301-1.032-2.301-2.302V153.35c0-1.269,1.032-2.301,2.301-2.301h14.107
						c1.27,0,2.302,1.032,2.302,2.301V167.457z"/>
				</g>
			</g>
		</g>
		<g>
			<g>
				<g>
					<path d="M118.958,146.049h-14.107c-4.026,0-7.302,3.275-7.302,7.301v14.107c0,4.026,3.275,7.302,7.302,7.302h14.107
						c4.025,0,7.301-3.275,7.301-7.302V153.35C126.259,149.324,122.983,146.049,118.958,146.049z M121.259,167.457
						c0,1.27-1.032,2.302-2.301,2.302h-14.107c-1.27,0-2.302-1.032-2.302-2.302V153.35c0-1.269,1.032-2.301,2.302-2.301h14.107
						c1.269,0,2.301,1.032,2.301,2.301V167.457z"/>
				</g>
			</g>
		</g>
		<g>
			<g>
				<g>
					<path d="M51.66,179.977H37.552c-4.025,0-7.301,3.275-7.301,7.302v14.107c0,4.025,3.275,7.301,7.301,7.301H51.66
						c4.025,0,7.301-3.275,7.301-7.301v-14.107C58.961,183.252,55.686,179.977,51.66,179.977z M53.961,201.386
						c0,1.269-1.032,2.301-2.301,2.301H37.552c-1.269,0-2.301-1.032-2.301-2.301v-14.107c0-1.27,1.032-2.302,2.301-2.302H51.66
						c1.269,0,2.301,1.032,2.301,2.302V201.386z"/>
				</g>
			</g>
		</g>
		<g>
			<g>
				<g>
					<path d="M85.309,179.977H71.201c-4.025,0-7.301,3.275-7.301,7.302v14.107c0,4.025,3.275,7.301,7.301,7.301h14.107
						c4.026,0,7.302-3.275,7.302-7.301v-14.107C92.61,183.252,89.335,179.977,85.309,179.977z M87.61,201.386
						c0,1.269-1.032,2.301-2.302,2.301H71.201c-1.269,0-2.301-1.032-2.301-2.301v-14.107c0-1.27,1.032-2.302,2.301-2.302h14.107
						c1.27,0,2.302,1.032,2.302,2.302V201.386z"/>
				</g>
			</g>
		</g>
		<g>
			<g>
				<g>
					<path d="M118.958,179.977h-14.107c-4.026,0-7.302,3.275-7.302,7.302v14.107c0,4.025,3.275,7.301,7.302,7.301h14.107
						c4.025,0,7.301-3.275,7.301-7.301v-14.107C126.259,183.252,122.983,179.977,118.958,179.977z M121.259,201.386
						c0,1.269-1.032,2.301-2.301,2.301h-14.107c-1.27,0-2.302-1.032-2.302-2.301v-14.107c0-1.27,1.032-2.302,2.302-2.302h14.107
						c1.269,0,2.301,1.032,2.301,2.302V201.386z"/>
				</g>
			</g>
		</g>
		<g>
			<g>
				<path d="M152.607,146.049h-14.108c-4.025,0-7.301,3.275-7.301,7.301v14.107c0,4.025,3.275,7.301,7.301,7.301h3.854
					c1.381,0,2.5-1.119,2.5-2.5s-1.119-2.5-2.5-2.5h-3.854c-1.269,0-2.301-1.032-2.301-2.301V153.35
					c0-1.269,1.032-2.301,2.301-2.301h14.108c1.269,0,2.301,1.032,2.301,2.301v3.822c0,1.381,1.119,2.5,2.5,2.5s2.5-1.119,2.5-2.5
					v-3.822C159.908,149.324,156.633,146.049,152.607,146.049z"/>
			</g>
		</g>
		<g>
			<g>
				<g>
					<path d="M186.72,146c-30.327,0-55,24.673-55,55s24.673,55,55,55s55-24.673,55-55S217.047,146,186.72,146z M186.72,251
						c-27.57,0-50-22.43-50-50s22.43-50,50-50s50,22.43,50,50S214.29,251,186.72,251z"/>
				</g>
			</g>
		</g>
		<g>
			<g>
				<g>
					<path d="M208.72,206h-44c-4.136,0-7.5,3.364-7.5,7.5s3.364,7.5,7.5,7.5h44c4.136,0,7.5-3.364,7.5-7.5S212.855,206,208.72,206z
						 M208.72,216h-44c-1.379,0-2.5-1.121-2.5-2.5s1.121-2.5,2.5-2.5h44c1.379,0,2.5,1.121,2.5,2.5S210.099,216,208.72,216z"/>
				</g>
			</g>
		</g>
		<g>
			<g>
				<path d="M186.72,164.234c-13.354,0-24.219,10.864-24.219,24.219v19.453c0,1.381,1.119,2.5,2.5,2.5s2.5-1.119,2.5-2.5v-19.453
					c0-10.598,8.621-19.219,19.219-19.219s19.22,8.621,19.22,19.219v19.505c0,1.381,1.119,2.5,2.5,2.5s2.5-1.119,2.5-2.5v-19.505
					C210.939,175.099,200.074,164.234,186.72,164.234z"/>
			</g>
		</g>
		<g>
			<g>
				<path d="M196.29,217.773c-0.834-1.099-2.399-1.316-3.503-0.483c-1.101,0.834-1.316,2.402-0.483,3.503
					c0.927,1.223,1.416,2.677,1.416,4.207c0,3.859-3.141,7-7,7s-7-3.141-7-7c0-1.569,0.513-3.055,1.483-4.296
					c0.851-1.087,0.659-2.658-0.429-3.509c-1.088-0.854-2.658-0.659-3.509,0.429c-1.666,2.129-2.546,4.679-2.546,7.376
					c0,6.617,5.383,12,12,12s12-5.383,12-12C198.72,222.371,197.88,219.872,196.29,217.773z"/>
			</g>
		</g>
	</g>
</g>
<g id="Layer_75">
</g>
<g id="Layer_76">
</g>
<g id="Layer_77">
</g>
<g id="Layer_78">
</g>
<g id="Layer_79">
</g>
<g id="Layer_80">
</g>
<g id="Layer_81">
</g>
<g id="Layer_82">
</g>
<g id="Layer_83">
</g>
<g id="Layer_84">
</g>
<g id="Layer_85">
</g>
<g id="Layer_86">
</g>
<g id="Layer_87">
</g>
<g id="Layer_88">
</g>
<g id="Layer_89">
</g>
<g id="Layer_90">
</g>
</svg>
