<?xml version="1.0" encoding="utf-8"?>
<!-- Generator: Adobe Illustrator 24.0.0, SVG Export Plug-In . SVG Version: 6.00 Build 0)  -->
<svg version="1.1" xmlns="http://www.w3.org/2000/svg" xmlns:xlink="http://www.w3.org/1999/xlink" x="0px" y="0px"
	 viewBox="0 0 256 256" enable-background="new 0 0 256 256" xml:space="preserve">
<g id="Layer_1">
</g>
<g id="Layer_2">
</g>
<g id="Layer_3">
</g>
<g id="Layer_4">
</g>
<g id="Layer_5">
</g>
<g id="Layer_6">
</g>
<g id="Layer_7">
</g>
<g id="Layer_8">
</g>
<g id="Layer_9">
</g>
<g id="Layer_10">
</g>
<g id="Layer_11">
</g>
<g id="Layer_12">
</g>
<g id="Layer_13">
</g>
<g id="Layer_14">
</g>
<g id="Layer_15">
</g>
<g id="Layer_16">
</g>
<g id="Layer_17">
</g>
<g id="Layer_18">
</g>
<g id="Layer_19">
</g>
<g id="Layer_20">
</g>
<g id="Layer_21">
</g>
<g id="Layer_22">
</g>
<g id="Layer_23">
</g>
<g id="Layer_24">
</g>
<g id="Layer_25">
</g>
<g id="Layer_26">
</g>
<g id="Layer_27">
</g>
<g id="Layer_28">
</g>
<g id="Layer_29">
</g>
<g id="Layer_30">
</g>
<g id="Layer_31">
</g>
<g id="Layer_32">
</g>
<g id="Layer_33">
</g>
<g id="Layer_34">
</g>
<g id="Layer_35">
	<g>
		<g>
			<g>
				<path fill="#70D6F9" d="M114.61,6.21c-3.157-0.561-5.613-3.017-6.245-6.104c0-0.14-0.281-0.14-0.281,0
					c-0.632,3.087-3.087,5.543-6.245,6.104c-0.14,0-0.14,0.21,0,0.281c3.157,0.561,5.613,3.017,6.245,6.104
					c0,0.14,0.281,0.14,0.281,0c0.631-3.087,3.087-5.543,6.245-6.104C114.75,6.42,114.75,6.21,114.61,6.21z"/>
			</g>
		</g>
		<g>
			<g>
				<path fill="#F5C84C" d="M214.8,136.77c-4.5-0.8-8-4.3-8.9-8.7c0-0.2-0.4-0.2-0.4,0c-0.9,4.4-4.4,7.9-8.9,8.7
					c-0.2,0-0.2,0.3,0,0.4c4.5,0.8,8,4.3,8.9,8.7c0,0.2,0.4,0.2,0.4,0c0.9-4.4,4.4-7.9,8.9-8.7C215,137.07,215,136.77,214.8,136.77z
					"/>
			</g>
		</g>
		<g>
			<g>
				<path fill="#87D147" d="M192.8,109.92c-1.878,0-3.4,1.522-3.4,3.4s1.522,3.4,3.4,3.4c1.878,0,3.4-1.522,3.4-3.4
					S194.678,109.92,192.8,109.92z"/>
			</g>
		</g>
		<g>
			<g>
				<path fill="#FC657E" d="M61.7,178.02h-2.3v-2.3c0-1.7-1.4-3.2-3.2-3.2c-1.8,0-3.2,1.4-3.2,3.2v2.3h-2.3c-1.7,0-3.2,1.4-3.2,3.2
					s1.4,3.2,3.2,3.2H53v2.3c0,1.7,1.4,3.2,3.2,3.2c1.8,0,3.2-1.4,3.2-3.2v-2.3h2.3c1.7,0,3.2-1.4,3.2-3.2S63.5,178.02,61.7,178.02z
					"/>
			</g>
		</g>
		<g>
			<g>
				<path fill="#F5C84C" d="M43.8,209.92c-1.878,0-3.4,1.522-3.4,3.4s1.522,3.4,3.4,3.4c1.878,0,3.4-1.522,3.4-3.4
					S45.678,209.92,43.8,209.92z"/>
			</g>
		</g>
		<g>
			<g>
				<path fill="#9BE5F9" d="M124.025,195.839l-12.811-12.811c-0.947-0.947-2.483-0.947-3.431,0l-5.733,5.733
					c-0.947,0.947-0.947,2.483,0,3.431l12.81,12.81c0.947,0.947,2.483,0.947,3.431,0l5.733-5.733
					C124.972,198.322,124.972,196.786,124.025,195.839z"/>
			</g>
		</g>
		<g>
			<g>
				<path fill="#9BE5F9" d="M153.949,188.761l-5.733-5.733c-0.947-0.947-2.483-0.947-3.431,0l-12.811,12.811
					c-0.947,0.947-0.947,2.483,0,3.431l5.733,5.733c0.948,0.947,2.483,0.947,3.431,0l12.81-12.81
					C154.897,191.245,154.897,189.708,153.949,188.761z"/>
			</g>
		</g>
		<g>
			<g>
				<path fill="#F9D0B4" d="M142.659,178.052v-5.178c-4.394,2.3-9.38,3.61-14.659,3.61c-5.279,0-10.264-1.31-14.659-3.61v5.178
					c0,2.002-0.546,3.92-1.526,5.578l12.209,12.209c0.412,0.412,0.634,0.936,0.687,1.474h6.576c0.054-0.538,0.275-1.062,0.687-1.474
					l12.22-12.22C143.217,181.961,142.659,180.053,142.659,178.052z"/>
			</g>
		</g>
		<g>
			<g>
				<path fill="#70D6F9" d="M191.706,209.914c-0.306-5.486-4.143-10.137-9.472-11.478l-18.265-4.597
					c-3.19-0.803-6.308-1.865-9.329-3.159c-0.046,0.551-0.269,1.091-0.691,1.512l-12.811,12.81c-0.947,0.948-2.483,0.948-3.431,0
					l-5.733-5.733c-0.535-0.535-0.757-1.258-0.687-1.957h-6.576c0.07,0.699-0.152,1.421-0.688,1.957l-5.733,5.733
					c-0.947,0.948-2.483,0.948-3.431,0l-12.811-12.81c-0.42-0.42-0.642-0.955-0.69-1.503c-3.014,1.29-6.127,2.344-9.309,3.145
					l-18.286,4.603c-5.329,1.341-9.166,5.992-9.472,11.478l-2.244,38.69c-0.154,2.657,1.959,4.896,4.62,4.896H189.33
					c2.661,0,4.774-2.239,4.62-4.896L191.706,209.914z"/>
			</g>
		</g>
		<g>
			<g>
				<path fill="#F9D0B4" d="M159.813,115.824c-0.018-0.902-0.741-1.646-1.643-1.673c-13.218-0.388-20.183-5.626-22.859-8.25
					c-0.731-0.716-1.91-0.641-2.547,0.16c-11.622,14.615-28.766,12.552-34.53,11.346c-1.047-0.219-2.052,0.57-2.053,1.641
					c0,0.007,0,0.014,0,0.022v25.595c0,17.5,14.318,31.818,31.818,31.818s31.818-14.318,31.818-31.818v-28.344
					C159.818,116.155,159.817,115.989,159.813,115.824z"/>
			</g>
		</g>
		<g>
			<g>
				<path fill="#754E34" d="M152.899,82.073c-3.391,0-6.56,0.958-9.285,2.592c-3.182-5.311-8.979-8.896-15.587-8.896h-9.333
					c-18.064,0-32.843,14.779-32.843,32.843v14.716c2.273-1.819,5.151-2.913,8.288-2.913c0.695,0,1.376,0.059,2.042,0.162v-1.529
					c0.001-1.07,1.006-1.86,2.054-1.641c5.764,1.206,22.908,3.269,34.53-11.346c0.637-0.801,1.816-0.876,2.547-0.16
					c2.676,2.623,9.641,7.862,22.859,8.25c0.902,0.026,1.625,0.77,1.643,1.672c0.003,0.166,0.005,0.332,0.005,0.498v4.256
					c0.666-0.103,1.347-0.162,2.042-0.162c3.581,0,6.825,1.424,9.214,3.728v-23.895C171.074,90.252,162.895,82.073,152.899,82.073z"
					/>
			</g>
		</g>
		<g>
			<g>
				<path fill="#F9D0B4" d="M161.86,120.415c-0.695,0-1.376,0.059-2.042,0.162v24.088c0,0.718-0.033,1.428-0.08,2.134
					c0.693,0.112,1.398,0.185,2.122,0.185c7.337,0,13.284-5.948,13.284-13.284C175.145,126.363,169.197,120.415,161.86,120.415z"/>
			</g>
		</g>
		<g>
			<g>
				<path fill="#F9D0B4" d="M96.182,144.665v-24.088c-0.666-0.103-1.347-0.162-2.042-0.162c-7.337,0-13.285,5.948-13.285,13.285
					c0,7.337,5.948,13.284,13.285,13.284c0.724,0,1.429-0.074,2.122-0.185v0C96.214,146.093,96.182,145.383,96.182,144.665z"/>
			</g>
		</g>
		<g>
			<g>
				<path fill="#F9D0B4" d="M193.256,236.642h-20.954V253.5h17.028c2.661,0,4.774-2.239,4.62-4.896L193.256,236.642z"/>
			</g>
		</g>
		<g>
			<g>
				<path fill="#F9D0B4" d="M62.744,236.642l-0.694,11.962c-0.154,2.657,1.959,4.896,4.62,4.896h17.491v-16.858H62.744z"/>
			</g>
		</g>
		<g>
			<g>
				<path d="M139.122,150.298c-1.057-0.887-2.633-0.749-3.522,0.309c-1.47,1.754-3.977,2.801-6.705,2.801s-5.235-1.047-6.705-2.8
					c-0.887-1.059-2.466-1.197-3.521-0.31c-1.059,0.887-1.197,2.464-0.311,3.522c2.408,2.873,6.347,4.588,10.537,4.588
					c4.188,0,8.128-1.715,10.537-4.588C140.318,152.762,140.18,151.186,139.122,150.298z"/>
			</g>
		</g>
		<g>
			<g>
				<circle cx="142.097" cy="135.383" r="4.06"/>
			</g>
		</g>
		<g>
			<g>
				<circle cx="114.829" cy="135.383" r="4.06"/>
			</g>
		</g>
		<g>
			<g>
				<path d="M172.302,217.955c-1.381,0-2.5,1.119-2.5,2.5v30.974c0,1.381,1.119,2.5,2.5,2.5s2.5-1.119,2.5-2.5v-30.974
					C174.802,219.074,173.683,217.955,172.302,217.955z"/>
			</g>
		</g>
		<g>
			<g>
				<path d="M84.161,217.955c-1.381,0-2.5,1.119-2.5,2.5v30.974c0,1.381,1.119,2.5,2.5,2.5s2.5-1.119,2.5-2.5v-30.974
					C86.661,219.074,85.542,217.955,84.161,217.955z"/>
			</g>
		</g>
		<g>
			<g>
				<g>
					<path d="M125.792,194.071l-12.811-12.811c-1.921-1.922-5.047-1.92-6.966,0l-5.732,5.733c-1.921,1.92-1.921,5.045,0,6.966
						l12.811,12.811c0.96,0.96,2.222,1.44,3.482,1.44c1.262,0,2.523-0.48,3.483-1.44l5.732-5.733
						C127.713,199.117,127.713,195.992,125.792,194.071z M116.577,203.182l-12.706-12.706l5.628-5.628l12.705,12.706
						L116.577,203.182z"/>
				</g>
			</g>
		</g>
		<g>
			<g>
				<g>
					<path d="M155.717,186.994l-5.732-5.733c-1.921-1.922-5.047-1.92-6.966,0l-12.811,12.811c-1.921,1.92-1.921,5.045,0,6.966
						l5.732,5.733c0.96,0.96,2.222,1.44,3.483,1.44c1.261,0,2.522-0.48,3.482-1.44l12.811-12.811
						C157.638,192.039,157.638,188.914,155.717,186.994z M139.424,203.182l-5.628-5.628l12.705-12.706l5.628,5.628L139.424,203.182z
						"/>
				</g>
			</g>
		</g>
		<g>
			<g>
				<path d="M146.171,182.034c-0.662-1.235-1.012-2.612-1.012-3.982v-4.652c0-1.381-1.119-2.5-2.5-2.5s-2.5,1.119-2.5,2.5v4.652
					c0,2.192,0.555,4.386,1.605,6.345c0.45,0.841,1.313,1.319,2.205,1.319c0.398,0,0.804-0.096,1.18-0.297
					C146.366,184.766,146.823,183.251,146.171,182.034z"/>
			</g>
		</g>
		<g>
			<g>
				<path d="M130.544,194.813h-5.402c-1.381,0-2.5,1.119-2.5,2.5s1.119,2.5,2.5,2.5h5.402c1.381,0,2.5-1.119,2.5-2.5
					S131.925,194.813,130.544,194.813z"/>
			</g>
		</g>
		<g>
			<g>
				<path d="M113.342,171.178c-1.381,0-2.5,1.119-2.5,2.5v4.374c0,1.355-0.332,2.708-0.959,3.911
					c-0.639,1.225-0.163,2.734,1.062,3.373c0.369,0.192,0.764,0.284,1.153,0.284c0.901,0,1.773-0.49,2.219-1.345
					c0.998-1.915,1.525-4.066,1.525-6.223v-4.374C115.842,172.297,114.723,171.178,113.342,171.178z"/>
			</g>
		</g>
		<g>
			<g>
				<path d="M196.445,248.459l-2.243-38.684c-0.368-6.615-4.933-12.146-11.357-13.764l-18.266-4.597
					c-2.751-0.692-5.502-1.603-8.178-2.707c-1.276-0.529-2.737,0.081-3.265,1.358c-0.526,1.276,0.082,2.738,1.358,3.264
					c2.897,1.195,5.88,2.182,8.863,2.933l18.266,4.597c4.291,1.081,7.34,4.775,7.586,9.199l2.243,38.69
					c0.034,0.591-0.17,1.153-0.576,1.583c-0.406,0.431-0.956,0.667-1.548,0.667H66.671c-0.592,0-1.142-0.237-1.548-0.667
					c-0.406-0.43-0.61-0.993-0.576-1.584l2.243-38.695c0.246-4.418,3.295-8.113,7.586-9.193l18.286-4.603
					c3.124-0.787,6.227-1.821,9.22-3.075c1.273-0.534,1.873-1.999,1.34-3.272c-0.534-1.274-2-1.874-3.271-1.34
					c-2.764,1.158-5.626,2.113-8.509,2.838l-18.286,4.603c-6.425,1.618-10.989,7.149-11.357,13.758l-2.243,38.689
					c-0.113,1.951,0.591,3.884,1.932,5.305S64.717,256,66.671,256h122.658c1.954,0,3.844-0.815,5.185-2.236
					S196.559,250.41,196.445,248.459z"/>
			</g>
		</g>
		<g>
			<g>
				<g>
					<path d="M162.313,115.775c-0.044-2.246-1.832-4.057-4.069-4.123c-12.557-0.368-18.996-5.393-21.183-7.537
						c-0.853-0.835-2.022-1.269-3.211-1.198c-1.189,0.074-2.299,0.652-3.043,1.588c-10.562,13.283-25.937,11.735-32.061,10.456
						c-1.247-0.261-2.53,0.049-3.521,0.854c-0.98,0.796-1.544,1.974-1.545,3.255v25.595c0,18.923,15.396,34.319,34.318,34.319
						s34.318-15.396,34.318-34.319v-28.344L162.313,115.775z M157.318,144.665c0,16.167-13.152,29.319-29.318,29.319
						s-29.318-13.152-29.318-29.319v-24.624c6.373,1.156,23.539,2.603,35.504-11.766c3.457,3.144,10.63,7.801,23.133,8.346V144.665z
						"/>
				</g>
			</g>
		</g>
		<g>
			<g>
				<path d="M152.898,79.573c-2.917,0-5.806,0.633-8.473,1.846c-3.896-5.077-9.987-8.15-16.398-8.15h-9.333
					c-19.488,0-35.343,15.855-35.343,35.343v14.034c0,1.381,1.119,2.5,2.5,2.5s2.5-1.119,2.5-2.5v-14.034
					c0-16.731,13.611-30.343,30.343-30.343h9.333c5.452,0,10.604,2.943,13.442,7.681c0.341,0.569,0.895,0.979,1.537,1.14
					c0.643,0.159,1.324,0.06,1.894-0.281c2.438-1.463,5.204-2.236,7.998-2.236c8.644,0,15.676,7.032,15.676,15.675v23.269
					c0,1.381,1.119,2.5,2.5,2.5s2.5-1.119,2.5-2.5v-23.269C173.574,88.848,164.299,79.573,152.898,79.573z"/>
			</g>
		</g>
		<g>
			<g>
				<path d="M161.86,117.916c-0.438,0-0.874,0.019-1.304,0.056c-1.376,0.118-2.396,1.328-2.278,2.704
					c0.118,1.375,1.326,2.4,2.704,2.277c0.289-0.024,0.582-0.038,0.878-0.038c5.946,0,10.784,4.838,10.784,10.784
					c0,5.947-4.838,10.785-10.784,10.785c-0.33,0-0.654-0.02-0.977-0.053c-1.373-0.141-2.602,0.856-2.743,2.23
					c-0.143,1.373,0.855,2.602,2.229,2.744c0.519,0.054,1.006,0.08,1.49,0.08c8.703,0,15.784-7.081,15.784-15.785
					S170.563,117.916,161.86,117.916z"/>
			</g>
		</g>
		<g>
			<g>
				<path d="M94.961,144.446c-0.271,0.024-0.544,0.039-0.821,0.039c-5.946,0-10.784-4.838-10.784-10.785
					c0-5.946,4.838-10.784,10.784-10.784c0.282,0,0.563,0.012,0.839,0.035c1.392,0.122,2.585-0.91,2.696-2.287
					c0.113-1.376-0.91-2.583-2.286-2.696c-0.413-0.034-0.828-0.051-1.249-0.051c-8.703,0-15.784,7.081-15.784,15.784
					s7.081,15.785,15.784,15.785c0.428,0,0.85-0.021,1.267-0.058c1.375-0.123,2.391-1.338,2.268-2.713
					C97.55,145.338,96.325,144.33,94.961,144.446z"/>
			</g>
		</g>
		<g>
			<g>
				<path d="M192.229,234.142h-19.055c-1.381,0-2.5,1.119-2.5,2.5s1.119,2.5,2.5,2.5h19.055c1.381,0,2.5-1.119,2.5-2.5
					S193.61,234.142,192.229,234.142z"/>
			</g>
		</g>
		<g>
			<g>
				<path d="M83.196,234.142H63.445c-1.381,0-2.5,1.119-2.5,2.5s1.119,2.5,2.5,2.5h19.751c1.381,0,2.5-1.119,2.5-2.5
					S84.577,234.142,83.196,234.142z"/>
			</g>
		</g>
		<g>
			<g>
				<circle fill="#B2E26D" cx="64.25" cy="45.057" r="34.557"/>
			</g>
		</g>
		<g>
			<g>
				<g>
					<path d="M64.25,8C43.816,8,27.192,24.624,27.192,45.057S43.816,82.115,64.25,82.115s37.058-16.624,37.058-37.058
						S84.684,8,64.25,8z M64.25,77.115c-17.677,0-32.058-14.381-32.058-32.058C32.192,27.381,46.573,13,64.25,13
						s32.058,14.381,32.058,32.057C96.308,62.734,81.927,77.115,64.25,77.115z"/>
				</g>
			</g>
		</g>
		<g>
			<g>
				<circle fill="#FC657E" cx="191.75" cy="45.057" r="34.557"/>
			</g>
		</g>
		<g>
			<g>
				<g>
					<path d="M191.75,8c-20.434,0-37.058,16.624-37.058,37.057s16.624,37.058,37.058,37.058s37.058-16.624,37.058-37.058
						S212.184,8,191.75,8z M191.75,77.115c-17.677,0-32.058-14.381-32.058-32.058C159.692,27.381,174.073,13,191.75,13
						s32.058,14.381,32.058,32.057C223.808,62.734,209.427,77.115,191.75,77.115z"/>
				</g>
			</g>
		</g>
		<g>
			<g>
				<path fill="#EDF4FC" d="M76.589,37.153c-1.923-1.922-5.04-1.922-6.963,0l-7.899,7.899l-3.96-3.96
					c-1.923-1.922-5.04-1.922-6.963,0c-1.923,1.923-1.923,5.04,0,6.963l7.441,7.441c0.961,0.961,2.221,1.442,3.481,1.442
					s2.52-0.481,3.481-1.442l11.381-11.381C78.512,42.193,78.512,39.076,76.589,37.153z"/>
			</g>
		</g>
		<g>
			<g>
				<path fill="#EDF4FC" d="M204.811,51.156l-6.098-6.098l6.098-6.098c1.922-1.923,1.922-5.04,0-6.963
					c-1.923-1.923-5.04-1.923-6.963,0l-6.098,6.098l-6.098-6.098c-1.923-1.923-5.04-1.923-6.963,0c-1.922,1.923-1.922,5.04,0,6.963
					c1.112,1.112,3.428,3.428,6.098,6.098l-6.098,6.098c-1.923,1.923-1.923,5.04,0,6.963c1.923,1.922,5.04,1.922,6.963,0
					c1.112-1.112,3.428-3.428,6.098-6.098c2.674,2.674,4.992,4.992,6.098,6.098c1.923,1.922,5.04,1.922,6.963,0
					C206.733,56.196,206.733,53.078,204.811,51.156z"/>
			</g>
		</g>
		<g>
			<g>
				<g>
					<g>
						<path d="M78.356,35.385c-2.896-2.894-7.604-2.893-10.498,0l-6.131,6.131l-2.193-2.193c-2.896-2.893-7.606-2.892-10.497,0.001
							c-2.895,2.894-2.895,7.604,0,10.498l7.441,7.441c1.401,1.402,3.266,2.174,5.249,2.174c1.981,0,3.846-0.772,5.249-2.174
							l11.38-11.38c1.402-1.402,2.175-3.266,2.175-5.25C80.531,38.651,79.759,36.787,78.356,35.385z M74.821,42.348l-11.379,11.38
							c-0.918,0.916-2.513,0.916-3.429,0.001l-7.441-7.441c-0.944-0.945-0.944-2.482,0-3.427c0.473-0.472,1.093-0.708,1.714-0.708
							S55.527,42.388,56,42.86l3.96,3.96c0.938,0.938,2.598,0.938,3.535,0l7.897-7.898c0.948-0.946,2.484-0.944,3.429,0
							c0.458,0.458,0.71,1.066,0.71,1.713C75.531,41.282,75.279,41.89,74.821,42.348z"/>
					</g>
				</g>
			</g>
		</g>
		<g>
			<g>
				<g>
					<path d="M206.578,49.388l-4.33-4.33l4.33-4.331c2.895-2.895,2.895-7.604,0-10.499c-2.895-2.894-7.604-2.894-10.498,0v0
						l-4.33,4.33l-4.33-4.331c-2.894-2.893-7.604-2.894-10.499,0.001c-2.893,2.895-2.893,7.604,0,10.498l4.331,4.331l-4.33,4.33
						c-2.895,2.894-2.895,7.604,0,10.499c2.896,2.893,7.604,2.891,10.499,0l4.329-4.33l4.33,4.331
						c1.448,1.446,3.349,2.169,5.249,2.169c1.901,0,3.802-0.724,5.249-2.17c1.402-1.402,2.175-3.266,2.175-5.25
						C208.753,52.654,207.98,50.79,206.578,49.388z M203.043,56.35c-0.944,0.944-2.482,0.946-3.427,0l-6.099-6.098
						c-0.469-0.469-1.104-0.732-1.768-0.732s-1.299,0.263-1.768,0.732l-6.098,6.097c-0.946,0.946-2.483,0.943-3.428,0.001
						c-0.458-0.458-0.71-1.066-0.71-1.714s0.252-1.256,0.71-1.714l6.098-6.098c0.977-0.976,0.977-2.559,0-3.535l-6.098-6.098
						c-0.944-0.945-0.944-2.483,0-3.427c0.945-0.945,2.482-0.945,3.428,0l6.098,6.098c0.938,0.938,2.598,0.938,3.535,0l6.098-6.098
						c0.945-0.945,2.482-0.945,3.428,0c0.944,0.945,0.944,2.482,0,3.428l-6.098,6.098c-0.977,0.976-0.977,2.559,0,3.535l6.098,6.098
						c0.458,0.458,0.71,1.066,0.71,1.714S203.501,55.893,203.043,56.35z"/>
				</g>
			</g>
		</g>
	</g>
</g>
<g id="Layer_36">
</g>
<g id="Layer_37">
</g>
<g id="Layer_38">
</g>
<g id="Layer_39">
</g>
<g id="Layer_40">
</g>
<g id="Layer_41">
</g>
<g id="Layer_42">
</g>
<g id="Layer_43">
</g>
<g id="Layer_44">
</g>
<g id="Layer_45">
</g>
<g id="Layer_46">
</g>
<g id="Layer_47">
</g>
<g id="Layer_48">
</g>
<g id="Layer_49">
</g>
<g id="Layer_50">
</g>
<g id="Layer_51">
</g>
<g id="Layer_52">
</g>
<g id="Layer_53">
</g>
<g id="Layer_54">
</g>
<g id="Layer_55">
</g>
<g id="Layer_56">
</g>
<g id="Layer_57">
</g>
<g id="Layer_58">
</g>
<g id="Layer_59">
</g>
<g id="Layer_60">
</g>
<g id="Layer_61">
</g>
<g id="Layer_62">
</g>
<g id="Layer_63">
</g>
<g id="Layer_64">
</g>
<g id="Layer_65">
</g>
<g id="Layer_66">
</g>
<g id="Layer_67">
</g>
<g id="Layer_68">
</g>
<g id="Layer_69">
</g>
<g id="Layer_70">
</g>
<g id="Layer_71">
</g>
<g id="Layer_72">
</g>
<g id="Layer_73">
</g>
<g id="Layer_74">
</g>
<g id="Layer_75">
</g>
<g id="Layer_76">
</g>
<g id="Layer_77">
</g>
<g id="Layer_78">
</g>
<g id="Layer_79">
</g>
<g id="Layer_80">
</g>
<g id="Layer_81">
</g>
<g id="Layer_82">
</g>
<g id="Layer_83">
</g>
<g id="Layer_84">
</g>
<g id="Layer_85">
</g>
<g id="Layer_86">
</g>
<g id="Layer_87">
</g>
<g id="Layer_88">
</g>
<g id="Layer_89">
</g>
<g id="Layer_90">
</g>
</svg>
