<?xml version="1.0" encoding="utf-8"?>
<!-- Generator: Adobe Illustrator 24.0.0, SVG Export Plug-In . SVG Version: 6.00 Build 0)  -->
<svg version="1.1" xmlns="http://www.w3.org/2000/svg" xmlns:xlink="http://www.w3.org/1999/xlink" x="0px" y="0px"
	 viewBox="0 0 256 256" enable-background="new 0 0 256 256" xml:space="preserve">
<g id="Layer_1">
</g>
<g id="Layer_2">
</g>
<g id="Layer_3">
</g>
<g id="Layer_4">
</g>
<g id="Layer_5">
</g>
<g id="Layer_6">
</g>
<g id="Layer_7">
</g>
<g id="Layer_8">
</g>
<g id="Layer_9">
</g>
<g id="Layer_10">
</g>
<g id="Layer_11">
</g>
<g id="Layer_12">
</g>
<g id="Layer_13">
</g>
<g id="Layer_14">
</g>
<g id="Layer_15">
</g>
<g id="Layer_16">
</g>
<g id="Layer_17">
</g>
<g id="Layer_18">
</g>
<g id="Layer_19">
</g>
<g id="Layer_20">
</g>
<g id="Layer_21">
</g>
<g id="Layer_22">
	<g>
		<g>
			<g>
				
					<ellipse transform="matrix(0.1222 -0.9925 0.9925 0.1222 -181.6825 246.5799)" fill="#F5C84C" cx="48.557" cy="226" rx="27.223" ry="27.223"/>
			</g>
		</g>
		<g>
			<g>
				<path fill="#70D6F9" d="M57.224,236.759H39.89c-5.157,0-9.522,3.395-10.981,8.072c4.955,5.169,11.923,8.392,19.648,8.392
					s14.694-3.223,19.648-8.392C66.746,240.154,62.382,236.759,57.224,236.759z"/>
			</g>
		</g>
		<g>
			<g>
				<circle fill="#5290DB" cx="129.03" cy="226" r="27.223"/>
			</g>
		</g>
		<g>
			<g>
				<path fill="#70D6F9" d="M137.697,236.759h-17.334c-5.157,0-9.522,3.395-10.981,8.072c4.955,5.169,11.923,8.392,19.648,8.392
					c7.725,0,14.693-3.223,19.648-8.392C147.218,240.154,142.854,236.759,137.697,236.759z"/>
			</g>
		</g>
		<g>
			<g>
				<circle fill="#87D147" cx="209.502" cy="226" r="27.223"/>
			</g>
		</g>
		<g>
			<g>
				<path fill="#70D6F9" d="M218.169,236.759h-17.334c-5.157,0-9.522,3.395-10.981,8.072c4.955,5.169,11.923,8.392,19.648,8.392
					c7.725,0,14.693-3.223,19.648-8.392C227.691,240.154,223.327,236.759,218.169,236.759z"/>
			</g>
		</g>
		<g>
			<g>
				<circle fill="#FC657E" cx="128" cy="63.855" r="61.355"/>
			</g>
		</g>
		<g>
			<g>
				<path fill="#70D6F9" d="M167.41,105.761l-13.272-3.341c-2.318-0.583-4.584-1.355-6.779-2.296
					c-0.034,0.401-0.195,0.792-0.502,1.099l-9.309,9.309c-0.688,0.688-1.804,0.688-2.493,0l-4.166-4.166
					c-0.389-0.389-0.55-0.914-0.5-1.422h-4.779c0.051,0.508-0.11,1.033-0.5,1.422l-4.166,4.166c-0.688,0.688-1.805,0.688-2.493,0
					l-9.309-9.309c-0.305-0.305-0.467-0.694-0.502-1.092c-2.19,0.938-4.452,1.703-6.764,2.285l-13.288,3.345
					c-1.356,0.341-2.574,0.982-3.6,1.836c11.073,10.889,26.254,17.614,43.01,17.614s31.937-6.725,43.01-17.614
					C169.984,106.744,168.766,106.103,167.41,105.761z"/>
			</g>
		</g>
		<g>
			<g>
				<g>
					<path d="M128,0C92.79,0,64.145,28.646,64.145,63.855S92.79,127.711,128,127.711s63.855-28.646,63.855-63.855S163.21,0,128,0z
						 M128,122.711c-32.453,0-58.855-26.402-58.855-58.855S95.547,5,128,5s58.855,26.402,58.855,58.855S160.453,122.711,128,122.711
						z"/>
				</g>
			</g>
		</g>
		<g>
			<g>
				<path fill="#9BE5F9" d="M125.111,103.874l-9.309-9.309c-0.688-0.688-1.805-0.688-2.493,0l-4.166,4.166
					c-0.688,0.688-0.688,1.805,0,2.493l9.309,9.309c0.688,0.688,1.805,0.688,2.493,0l4.166-4.166
					C125.8,105.679,125.8,104.563,125.111,103.874z"/>
			</g>
		</g>
		<g>
			<g>
				<path fill="#9BE5F9" d="M146.856,98.731l-4.166-4.166c-0.688-0.688-1.805-0.688-2.493,0l-9.309,9.309
					c-0.688,0.688-0.688,1.805,0,2.493l4.166,4.166c0.688,0.688,1.805,0.688,2.493,0l9.309-9.309
					C147.545,100.535,147.545,99.419,146.856,98.731z"/>
			</g>
		</g>
		<g>
			<g>
				<path fill="#F9D0B4" d="M138.652,90.949v-3.763c-3.193,1.671-6.816,2.624-10.652,2.624h0c-3.836,0-7.459-0.952-10.652-2.624
					v3.763c0,1.455-0.397,2.848-1.109,4.054l8.872,8.872c0.299,0.299,0.46,0.68,0.5,1.071h4.779c0.039-0.391,0.2-0.772,0.5-1.071
					l8.88-8.88C139.057,93.789,138.652,92.403,138.652,90.949z"/>
			</g>
		</g>
		<g>
			<g>
				<path fill="#F9D0B4" d="M151.118,45.73c-0.013-0.656-0.538-1.196-1.194-1.215c-9.605-0.282-14.666-4.088-16.611-5.995
					c-0.531-0.52-1.388-0.466-1.85,0.116c-8.445,10.62-20.903,9.121-25.092,8.245c-0.761-0.159-1.491,0.414-1.492,1.192v18.615
					c0,12.717,10.405,23.121,23.121,23.121s23.121-10.405,23.121-23.121V46.092C151.121,45.971,151.12,45.85,151.118,45.73z"/>
			</g>
		</g>
		<g>
			<g>
				<path fill="#754E34" d="M146.093,21.205c-2.464,0-4.767,0.696-6.747,1.883c-2.312-3.859-6.524-6.464-11.326-6.464h-6.782
					c-13.126,0-23.866,10.74-23.866,23.866v10.694c1.652-1.322,3.743-2.117,6.023-2.117c0.505,0,1,0.043,1.484,0.118v-1.111
					c0.001-0.778,0.731-1.351,1.492-1.192c4.189,0.877,16.647,2.375,25.092-8.245c0.463-0.582,1.32-0.637,1.85-0.116
					c1.945,1.906,7.006,5.713,16.611,5.995c0.656,0.019,1.181,0.56,1.194,1.215c0.002,0.12,0.004,0.241,0.004,0.362v3.093
					c0.484-0.075,0.979-0.118,1.484-0.118c2.602,0,4.959,1.035,6.695,2.709V34.412C159.3,27.148,153.357,21.205,146.093,21.205z"/>
			</g>
		</g>
		<g>
			<g>
				<path fill="#F9D0B4" d="M152.605,49.067c-0.505,0-1,0.043-1.484,0.118v17.504c0,0.521-0.024,1.037-0.058,1.551
					c0.503,0.081,1.016,0.135,1.542,0.135c5.331,0,9.653-4.322,9.653-9.653S157.936,49.067,152.605,49.067z"/>
			</g>
		</g>
		<g>
			<g>
				<path fill="#F9D0B4" d="M104.879,66.688c0-2.396,0-12.741,0-17.504c-0.484-0.075-0.979-0.118-1.484-0.118
					c-5.331,0-9.653,4.322-9.653,9.653s4.322,9.653,9.653,9.653c0.526,0,1.039-0.054,1.542-0.135v0
					C104.903,67.725,104.879,67.209,104.879,66.688z"/>
			</g>
		</g>
		<g>
			<g>
				<g>
					<path d="M126.879,102.106l-9.31-9.31c-1.662-1.66-4.366-1.661-6.027,0.001l-4.166,4.166c-0.805,0.805-1.249,1.875-1.249,3.014
						s0.443,2.209,1.249,3.014l9.309,9.309c0.831,0.831,1.922,1.247,3.014,1.247c1.091,0,2.183-0.416,3.014-1.246l4.166-4.166
						C128.541,106.473,128.541,103.769,126.879,102.106z M119.699,108.244l-8.267-8.266l3.124-3.124l8.266,8.267L119.699,108.244z"
						/>
				</g>
			</g>
		</g>
		<g>
			<g>
				<g>
					<path d="M148.624,96.963l-4.167-4.167c-1.661-1.66-4.365-1.66-6.027,0.001l-9.309,9.309c-1.662,1.662-1.662,4.366,0,6.029
						l4.165,4.165c0.805,0.806,1.876,1.249,3.015,1.249s2.209-0.443,3.014-1.249l9.309-9.308c0.806-0.805,1.249-1.876,1.249-3.015
						S149.429,97.769,148.624,96.963z M136.301,108.244l-3.123-3.123l8.267-8.267l3.123,3.124L136.301,108.244z"/>
				</g>
			</g>
		</g>
		<g>
			<g>
				<path d="M141.807,93.52c-0.428-0.799-0.655-1.688-0.655-2.571v-3.381c0-1.381-1.119-2.5-2.5-2.5s-2.5,1.119-2.5,2.5v3.381
					c0,1.705,0.432,3.411,1.249,4.934c0.451,0.841,1.313,1.319,2.205,1.319c0.399,0,0.803-0.096,1.179-0.297
					C142.001,96.252,142.459,94.737,141.807,93.52z"/>
			</g>
		</g>
		<g>
			<g>
				<path d="M129.849,102.445h-3.925c-1.381,0-2.5,1.119-2.5,2.5s1.119,2.5,2.5,2.5h3.925c1.381,0,2.5-1.119,2.5-2.5
					S131.229,102.445,129.849,102.445z"/>
			</g>
		</g>
		<g>
			<g>
				<path d="M117.348,85.271c-1.381,0-2.5,1.119-2.5,2.5v3.178c0,0.875-0.214,1.749-0.62,2.527
					c-0.638,1.225-0.162,2.734,1.063,3.372c0.369,0.192,0.764,0.283,1.153,0.283c0.902,0,1.774-0.49,2.219-1.346
					c0.775-1.489,1.185-3.161,1.185-4.837v-3.178C119.848,86.39,118.729,85.271,117.348,85.271z"/>
			</g>
		</g>
		<g>
			<g>
				<path d="M171.965,105.176c-1.196-0.862-2.523-1.481-3.945-1.839l-13.273-3.341c-1.965-0.494-3.933-1.146-5.849-1.936
					c-1.279-0.529-2.739,0.082-3.264,1.358c-0.526,1.276,0.082,2.738,1.358,3.264c2.139,0.882,4.337,1.609,6.535,2.162l13.272,3.341
					c0.806,0.203,1.56,0.555,2.241,1.046c0.442,0.319,0.954,0.472,1.46,0.472c0.776,0,1.541-0.36,2.03-1.038
					C173.338,107.546,173.084,105.983,171.965,105.176z"/>
			</g>
		</g>
		<g>
			<g>
				<path d="M110.625,99.303c-0.533-1.273-1.998-1.873-3.272-1.34c-1.977,0.828-4.025,1.511-6.085,2.03l-13.288,3.344
					c-1.403,0.354-2.714,0.961-3.898,1.806c-1.124,0.802-1.385,2.364-0.583,3.487c0.488,0.684,1.257,1.048,2.037,1.048
					c0.502,0,1.01-0.151,1.45-0.465c0.675-0.482,1.42-0.828,2.215-1.028l13.288-3.344c2.303-0.58,4.589-1.342,6.796-2.267
					C110.558,102.041,111.158,100.576,110.625,99.303z"/>
			</g>
		</g>
		<g>
			<g>
				<g>
					<path d="M153.617,45.68c-0.04-1.997-1.63-3.606-3.62-3.664c-8.882-0.26-13.403-3.78-14.934-5.281
						c-0.757-0.742-1.795-1.131-2.854-1.065c-1.058,0.065-2.043,0.58-2.704,1.411c-7.439,9.354-18.299,8.259-22.623,7.354
						c-1.109-0.233-2.249,0.045-3.129,0.76c-0.873,0.708-1.374,1.758-1.375,2.896v18.599c0,14.127,11.494,25.621,25.621,25.621
						s25.621-11.494,25.621-25.621V46.092L153.617,45.68z M148.621,66.688c0,11.371-9.25,20.621-20.621,20.621
						s-20.621-9.25-20.621-20.621V49.602c5.167,0.791,16.761,1.223,25.187-8.387c2.69,2.263,7.747,5.243,16.056,5.744V66.688z"/>
				</g>
			</g>
		</g>
		<g>
			<g>
				<path d="M146.093,18.705c-2.039,0-4.06,0.407-5.949,1.189c-2.966-3.605-7.432-5.771-12.125-5.771h-6.782
					c-14.538,0-26.366,11.828-26.366,26.366v10.198c0,1.381,1.119,2.5,2.5,2.5s2.5-1.119,2.5-2.5V40.49
					c0-11.781,9.584-21.366,21.366-21.366h6.782c3.724,0,7.242,2.011,9.182,5.249c0.341,0.569,0.894,0.979,1.537,1.141
					c0.642,0.16,1.324,0.06,1.893-0.281c1.667-0.999,3.555-1.527,5.461-1.527c5.904,0,10.707,4.803,10.707,10.708v16.909
					c0,1.381,1.119,2.5,2.5,2.5s2.5-1.119,2.5-2.5V34.412C161.8,25.751,154.754,18.705,146.093,18.705z"/>
			</g>
		</g>
		<g>
			<g>
				<path d="M152.605,46.566c-0.338,0-0.672,0.015-1.002,0.043c-1.376,0.116-2.397,1.325-2.282,2.701
					c0.116,1.375,1.318,2.396,2.701,2.282c0.192-0.016,0.387-0.025,0.583-0.025c3.944,0,7.153,3.209,7.153,7.153
					s-3.209,7.153-7.153,7.153c-0.215,0-0.427-0.013-0.637-0.035c-1.375-0.149-2.603,0.854-2.746,2.227
					c-0.144,1.373,0.854,2.603,2.227,2.746c0.38,0.04,0.765,0.062,1.155,0.062c6.701,0,12.153-5.452,12.153-12.153
					S159.306,46.566,152.605,46.566z"/>
			</g>
		</g>
		<g>
			<g>
				<path d="M103.935,65.848c-0.178,0.016-0.358,0.025-0.54,0.025c-3.944,0-7.153-3.209-7.153-7.153s3.209-7.153,7.153-7.153
					c0.187,0,0.371,0.008,0.554,0.023c1.378,0.115,2.583-0.911,2.696-2.287c0.113-1.376-0.911-2.583-2.287-2.696
					c-0.317-0.026-0.639-0.04-0.963-0.04c-6.701,0-12.153,5.452-12.153,12.153s5.452,12.153,12.153,12.153
					c0.33,0,0.656-0.016,0.978-0.044c1.375-0.121,2.393-1.333,2.271-2.709C106.523,66.744,105.311,65.723,103.935,65.848z"/>
			</g>
		</g>
		<g>
			<g>
				<g>
					<path d="M129.03,196.277c-16.389,0-29.723,13.333-29.723,29.723s13.333,29.723,29.723,29.723s29.723-13.333,29.723-29.723
						S145.419,196.277,129.03,196.277z M129.03,250.723c-13.632,0-24.723-11.09-24.723-24.723s11.09-24.723,24.723-24.723
						s24.723,11.09,24.723,24.723S142.662,250.723,129.03,250.723z"/>
				</g>
			</g>
		</g>
		<g>
			<g>
				<circle fill="#F9D0B4" cx="128.59" cy="219.415" r="9.631"/>
			</g>
		</g>
		<g>
			<g>
				<path d="M150.736,243.153c-2.117-5.403-7.236-8.894-13.04-8.894h-17.334c-5.82,0-11.095,3.664-13.125,9.118
					c-0.482,1.294,0.177,2.733,1.471,3.215c0.288,0.107,0.582,0.158,0.872,0.158c1.015,0,1.969-0.622,2.343-1.628
					c1.306-3.506,4.697-5.862,8.44-5.862h17.334c3.732,0,7.023,2.245,8.384,5.718c0.504,1.286,1.957,1.918,3.24,1.416
					C150.606,245.889,151.24,244.439,150.736,243.153z"/>
			</g>
		</g>
		<g>
			<g>
				<g>
					<path d="M128.59,207.284c-6.689,0-12.131,5.442-12.131,12.131s5.442,12.131,12.131,12.131s12.131-5.442,12.131-12.131
						S135.279,207.284,128.59,207.284z M128.59,226.546c-3.932,0-7.131-3.199-7.131-7.131s3.199-7.131,7.131-7.131
						s7.131,3.199,7.131,7.131S132.522,226.546,128.59,226.546z"/>
				</g>
			</g>
		</g>
		<g>
			<g>
				<g>
					<path d="M48.557,196.277c-16.389,0-29.723,13.333-29.723,29.723s13.333,29.723,29.723,29.723S78.28,242.389,78.28,226
						S64.946,196.277,48.557,196.277z M48.557,250.723c-13.632,0-24.723-11.09-24.723-24.723s11.09-24.723,24.723-24.723
						S73.28,212.368,73.28,226S62.189,250.723,48.557,250.723z"/>
				</g>
			</g>
		</g>
		<g>
			<g>
				<circle fill="#F9D0B4" cx="48.117" cy="219.415" r="9.631"/>
			</g>
		</g>
		<g>
			<g>
				<path d="M70.433,243.608c-1.97-5.592-7.278-9.349-13.209-9.349H39.89c-5.855,0-11.141,3.694-13.152,9.191
					c-0.475,1.296,0.192,2.732,1.489,3.207c1.292,0.476,2.732-0.192,3.207-1.489c1.293-3.535,4.692-5.909,8.457-5.909h17.334
					c3.813,0,7.227,2.416,8.493,6.01c0.362,1.028,1.327,1.67,2.358,1.67c0.275,0,0.556-0.046,0.831-0.143
					C70.208,246.338,70.892,244.911,70.433,243.608z"/>
			</g>
		</g>
		<g>
			<g>
				<g>
					<path d="M48.117,207.284c-6.689,0-12.131,5.442-12.131,12.131s5.442,12.131,12.131,12.131s12.131-5.442,12.131-12.131
						S54.806,207.284,48.117,207.284z M48.117,226.546c-3.932,0-7.131-3.199-7.131-7.131s3.199-7.131,7.131-7.131
						s7.131,3.199,7.131,7.131S52.049,226.546,48.117,226.546z"/>
				</g>
			</g>
		</g>
		<g>
			<g>
				<g>
					<path d="M209.502,196.277c-16.389,0-29.723,13.333-29.723,29.723s13.333,29.723,29.723,29.723s29.723-13.333,29.723-29.723
						S225.891,196.277,209.502,196.277z M209.502,250.723c-13.632,0-24.723-11.09-24.723-24.723s11.09-24.723,24.723-24.723
						s24.723,11.09,24.723,24.723S223.134,250.723,209.502,250.723z"/>
				</g>
			</g>
		</g>
		<g>
			<g>
				<circle fill="#F9D0B4" cx="209.062" cy="219.415" r="9.631"/>
			</g>
		</g>
		<g>
			<g>
				<path d="M231.318,243.439c-2.014-5.491-7.298-9.18-13.149-9.18h-17.333c-5.809,0-11.08,3.654-13.117,9.094
					c-0.484,1.293,0.172,2.733,1.465,3.218c1.294,0.484,2.734-0.172,3.218-1.465c1.309-3.497,4.699-5.847,8.434-5.847h17.333
					c3.762,0,7.16,2.372,8.455,5.902c0.372,1.012,1.329,1.64,2.348,1.64c0.286,0,0.577-0.049,0.86-0.153
					C231.128,246.172,231.793,244.736,231.318,243.439z"/>
			</g>
		</g>
		<g>
			<g>
				<g>
					<path d="M209.062,207.284c-6.689,0-12.131,5.442-12.131,12.131s5.442,12.131,12.131,12.131c6.689,0,12.131-5.442,12.131-12.131
						S215.751,207.284,209.062,207.284z M209.062,226.546c-3.932,0-7.131-3.199-7.131-7.131s3.199-7.131,7.131-7.131
						c3.932,0,7.131,3.199,7.131,7.131S212.995,226.546,209.062,226.546z"/>
				</g>
			</g>
		</g>
		<g>
			<g>
				<g>
					<path d="M128,141.085c-1.381,0-2.5,1.119-2.5,2.5v41.382c0,1.381,1.119,2.5,2.5,2.5s2.5-1.119,2.5-2.5v-41.382
						C130.5,142.205,129.381,141.085,128,141.085z"/>
				</g>
			</g>
			<g>
				<g>
					<path d="M140.012,175.283c-0.976-0.977-2.56-0.977-3.535,0L128,183.759l-8.477-8.476c-0.976-0.977-2.56-0.977-3.535,0
						c-0.977,0.976-0.977,2.559,0,3.535l10.245,10.244c0.488,0.488,1.128,0.732,1.768,0.732s1.28-0.244,1.768-0.732l10.245-10.244
						C140.989,177.842,140.989,176.259,140.012,175.283z"/>
				</g>
			</g>
		</g>
		<g>
			<g>
				<g>
					<path d="M189.542,177.047l-30.472-40.123c-0.834-1.099-2.403-1.313-3.503-0.479c-1.1,0.835-1.314,2.403-0.479,3.503
						l30.472,40.123c0.492,0.647,1.238,0.988,1.993,0.988c0.527,0,1.058-0.166,1.51-0.509
						C190.163,179.715,190.377,178.147,189.542,177.047z"/>
				</g>
			</g>
			<g>
				<g>
					<path d="M191.26,163.581c-1.373-0.188-2.629,0.771-2.816,2.138l-1.624,11.878l-11.878-1.624
						c-1.366-0.188-2.628,0.771-2.815,2.138c-0.187,1.368,0.771,2.629,2.138,2.816l14.355,1.962
						c0.115,0.016,0.229,0.023,0.341,0.023c1.23,0,2.303-0.909,2.474-2.162l1.962-14.354
						C193.585,165.029,192.627,163.768,191.26,163.581z"/>
				</g>
			</g>
		</g>
		<g>
			<g>
				<g>
					<path d="M100.433,136.446c-1.1-0.836-2.667-0.621-3.503,0.479l-30.472,40.123c-0.835,1.1-0.621,2.668,0.479,3.503
						c0.452,0.344,0.983,0.509,1.51,0.509c0.755,0,1.501-0.34,1.993-0.988l30.472-40.123
						C101.747,138.849,101.533,137.281,100.433,136.446z"/>
				</g>
			</g>
			<g>
				<g>
					<path d="M83.873,178.111c-0.187-1.368-1.443-2.327-2.815-2.138l-11.878,1.624l-1.624-11.878
						c-0.187-1.367-1.438-2.33-2.816-2.138c-1.368,0.187-2.325,1.448-2.138,2.816l1.962,14.354c0.171,1.253,1.244,2.162,2.474,2.162
						c0.112,0,0.227-0.008,0.341-0.023l14.355-1.962C83.103,180.74,84.06,179.479,83.873,178.111z"/>
				</g>
			</g>
		</g>
		<g>
			<g>
				<path fill="#F5C84C" d="M212.8,26.85c-4.5-0.8-8-4.3-8.9-8.7c0-0.2-0.4-0.2-0.4,0c-0.9,4.4-4.4,7.9-8.9,8.7
					c-0.2,0-0.2,0.3,0,0.4c4.5,0.8,8,4.3,8.9,8.7c0,0.2,0.4,0.2,0.4,0c0.9-4.4,4.4-7.9,8.9-8.7C213,27.15,213,26.85,212.8,26.85z"/>
			</g>
		</g>
		<g>
			<g>
				<path fill="#70D6F9" d="M191.61,124.21c-3.158-0.561-5.613-3.017-6.245-6.104c0-0.14-0.281-0.14-0.281,0
					c-0.631,3.087-3.087,5.543-6.245,6.104c-0.14,0-0.14,0.211,0,0.281c3.158,0.561,5.613,3.017,6.245,6.104
					c0,0.14,0.281,0.14,0.281,0c0.631-3.087,3.087-5.543,6.245-6.104C191.75,124.42,191.75,124.21,191.61,124.21z"/>
			</g>
		</g>
		<g>
			<g>
				<path fill="#FC657E" d="M36.7,167.1h-2.3v-2.3c0-1.7-1.4-3.2-3.2-3.2S28,163,28,164.8v2.3h-2.3c-1.7,0-3.2,1.4-3.2,3.2
					s1.4,3.2,3.2,3.2H28v2.3c0,1.7,1.4,3.2,3.2,3.2s3.2-1.4,3.2-3.2v-2.3h2.3c1.7,0,3.2-1.4,3.2-3.2S38.5,167.1,36.7,167.1z"/>
			</g>
		</g>
		<g>
			<g>
				<path fill="#87D147" d="M182.8,0c-1.878,0-3.4,1.522-3.4,3.4c0,1.878,1.522,3.4,3.4,3.4c1.878,0,3.4-1.522,3.4-3.4
					C186.2,1.522,184.678,0,182.8,0z"/>
			</g>
		</g>
		<g>
			<g>
				<path fill="#F5C84C" d="M46.8,142c-1.878,0-3.4,1.522-3.4,3.4c0,1.878,1.522,3.4,3.4,3.4c1.878,0,3.4-1.522,3.4-3.4
					C50.2,143.522,48.678,142,46.8,142z"/>
			</g>
		</g>
	</g>
</g>
<g id="Layer_23">
</g>
<g id="Layer_24">
</g>
<g id="Layer_25">
</g>
<g id="Layer_26">
</g>
<g id="Layer_27">
</g>
<g id="Layer_28">
</g>
<g id="Layer_29">
</g>
<g id="Layer_30">
</g>
<g id="Layer_31">
</g>
<g id="Layer_32">
</g>
<g id="Layer_33">
</g>
<g id="Layer_34">
</g>
<g id="Layer_35">
</g>
<g id="Layer_36">
</g>
<g id="Layer_37">
</g>
<g id="Layer_38">
</g>
<g id="Layer_39">
</g>
<g id="Layer_40">
</g>
<g id="Layer_41">
</g>
<g id="Layer_42">
</g>
<g id="Layer_43">
</g>
<g id="Layer_44">
</g>
<g id="Layer_45">
</g>
<g id="Layer_46">
</g>
<g id="Layer_47">
</g>
<g id="Layer_48">
</g>
<g id="Layer_49">
</g>
<g id="Layer_50">
</g>
<g id="Layer_51">
</g>
<g id="Layer_52">
</g>
<g id="Layer_53">
</g>
<g id="Layer_54">
</g>
<g id="Layer_55">
</g>
<g id="Layer_56">
</g>
<g id="Layer_57">
</g>
<g id="Layer_58">
</g>
<g id="Layer_59">
</g>
<g id="Layer_60">
</g>
<g id="Layer_61">
</g>
<g id="Layer_62">
</g>
<g id="Layer_63">
</g>
<g id="Layer_64">
</g>
<g id="Layer_65">
</g>
<g id="Layer_66">
</g>
<g id="Layer_67">
</g>
<g id="Layer_68">
</g>
<g id="Layer_69">
</g>
<g id="Layer_70">
</g>
<g id="Layer_71">
</g>
<g id="Layer_72">
</g>
<g id="Layer_73">
</g>
<g id="Layer_74">
</g>
<g id="Layer_75">
</g>
<g id="Layer_76">
</g>
<g id="Layer_77">
</g>
<g id="Layer_78">
</g>
<g id="Layer_79">
</g>
<g id="Layer_80">
</g>
<g id="Layer_81">
</g>
<g id="Layer_82">
</g>
<g id="Layer_83">
</g>
<g id="Layer_84">
</g>
<g id="Layer_85">
</g>
<g id="Layer_86">
</g>
<g id="Layer_87">
</g>
<g id="Layer_88">
</g>
<g id="Layer_89">
</g>
<g id="Layer_90">
</g>
</svg>
