<?xml version="1.0" encoding="utf-8"?>
<!-- Generator: Adobe Illustrator 24.0.0, SVG Export Plug-In . SVG Version: 6.00 Build 0)  -->
<svg version="1.1" xmlns="http://www.w3.org/2000/svg" xmlns:xlink="http://www.w3.org/1999/xlink" x="0px" y="0px"
	 viewBox="0 0 256 256" enable-background="new 0 0 256 256" xml:space="preserve">
<g id="Layer_1">
</g>
<g id="Layer_2">
</g>
<g id="Layer_3">
</g>
<g id="Layer_4">
</g>
<g id="Layer_5">
</g>
<g id="Layer_6">
</g>
<g id="Layer_7">
</g>
<g id="Layer_8">
</g>
<g id="Layer_9">
</g>
<g id="Layer_10">
</g>
<g id="Layer_11">
</g>
<g id="Layer_12">
</g>
<g id="Layer_13">
</g>
<g id="Layer_14">
</g>
<g id="Layer_15">
</g>
<g id="Layer_16">
</g>
<g id="Layer_17">
</g>
<g id="Layer_18">
</g>
<g id="Layer_19">
</g>
<g id="Layer_20">
</g>
<g id="Layer_21">
</g>
<g id="Layer_22">
</g>
<g id="Layer_23">
</g>
<g id="Layer_24">
</g>
<g id="Layer_25">
</g>
<g id="Layer_26">
</g>
<g id="Layer_27">
</g>
<g id="Layer_28">
</g>
<g id="Layer_29">
</g>
<g id="Layer_30">
</g>
<g id="Layer_31">
</g>
<g id="Layer_32">
</g>
<g id="Layer_33">
</g>
<g id="Layer_34">
</g>
<g id="Layer_35">
</g>
<g id="Layer_36">
</g>
<g id="Layer_37">
</g>
<g id="Layer_38">
</g>
<g id="Layer_39">
</g>
<g id="Layer_40">
</g>
<g id="Layer_41">
</g>
<g id="Layer_42">
</g>
<g id="Layer_43">
	<g>
		<g>
			<g>
				<circle fill="#FC657E" cx="127.5" cy="43.973" r="31.352"/>
			</g>
		</g>
		<g>
			<g>
				<path fill="#70D6F9" d="M137.482,56.365h-19.963c-5.94,0-10.966,3.91-12.647,9.296c5.706,5.953,13.732,9.665,22.629,9.665
					c8.897,0,16.922-3.712,22.629-9.665C148.448,60.274,143.421,56.365,137.482,56.365z"/>
			</g>
		</g>
		<g>
			<g>
				<circle fill="#F5C84C" cx="127.5" cy="128" r="31.352"/>
			</g>
		</g>
		<g>
			<g>
				<path fill="#70D6F9" d="M137.482,140.391h-19.963c-5.94,0-10.966,3.91-12.647,9.296c5.706,5.952,13.732,9.665,22.629,9.665
					c8.897,0,16.922-3.712,22.629-9.665C148.448,144.301,143.421,140.391,137.482,140.391z"/>
			</g>
		</g>
		<g>
			<g>
				<circle fill="#87D147" cx="127.5" cy="212.027" r="31.352"/>
			</g>
		</g>
		<g>
			<g>
				<path fill="#70D6F9" d="M137.482,224.418h-19.963c-5.94,0-10.966,3.91-12.647,9.296c5.706,5.953,13.732,9.665,22.629,9.665
					c8.897,0,16.922-3.712,22.629-9.665C148.448,228.328,143.421,224.418,137.482,224.418z"/>
			</g>
		</g>
		<g>
			<g>
				<path fill="#9BE5F9" d="M204.655,37.973H179.04c-3.313,0-6,2.687-6,6s2.687,6,6,6h25.615c12.872,0,23.345,10.473,23.345,23.345
					v25.336C228,111.527,217.527,122,204.655,122h-12.226l5.642-5.642c2.343-2.343,2.343-6.142-0.001-8.485
					c-2.342-2.343-6.142-2.343-8.485,0l-15.656,15.657c-2.343,2.343-2.343,6.142,0,8.485l15.656,15.657
					c2.342,2.342,6.142,2.344,8.485,0c2.344-2.343,2.344-6.142,0.001-8.485L192.885,134h11.77C224.145,134,240,118.144,240,98.655
					V73.318C240,53.829,224.145,37.973,204.655,37.973z"/>
			</g>
		</g>
		<g>
			<g>
				<path fill="#70D6F9" d="M81.071,207.529l-15.657-15.657c-2.344-2.343-6.143-2.343-8.485,0c-2.343,2.343-2.343,6.142,0,8.485
					l5.669,5.669H51.345C38.473,206.027,28,195.554,28,182.682v-25.336C28,144.473,38.473,134,51.345,134H75.5c3.313,0,6-2.687,6-6
					s-2.687-6-6-6H51.345C31.856,122,16,137.856,16,157.345v25.336c0,19.489,15.856,35.345,35.345,35.345h10.743l-5.159,5.159
					c-2.343,2.343-2.343,6.142,0,8.485c2.342,2.342,6.142,2.344,8.485,0l15.657-15.657
					C83.413,213.673,83.414,209.872,81.071,207.529z"/>
			</g>
		</g>
		<g>
			<g>
				<path fill="#70D6F9" d="M164.876,6.21c-3.158-0.561-5.613-3.017-6.245-6.104c0-0.14-0.281-0.14-0.281,0
					c-0.631,3.087-3.087,5.543-6.245,6.104c-0.14,0-0.14,0.21,0,0.281c3.158,0.562,5.613,3.017,6.245,6.104
					c0,0.14,0.281,0.14,0.281,0c0.631-3.087,3.087-5.543,6.245-6.104C165.016,6.42,165.016,6.21,164.876,6.21z"/>
			</g>
		</g>
		<g>
			<g>
				<path fill="#70D6F9" d="M186.7,224.068h-2.3v-2.3c0-1.7-1.4-3.2-3.2-3.2s-3.2,1.4-3.2,3.2v2.3h-2.3c-1.7,0-3.2,1.4-3.2,3.2
					s1.4,3.2,3.2,3.2h2.3v2.3c0,1.7,1.4,3.2,3.2,3.2s3.2-1.4,3.2-3.2v-2.3h2.3c1.7,0,3.2-1.4,3.2-3.2S188.5,224.068,186.7,224.068z"
					/>
			</g>
		</g>
		<g>
			<g>
				<path fill="#F5C84C" d="M156.8,249.2c-1.878,0-3.4,1.522-3.4,3.4c0,1.878,1.522,3.4,3.4,3.4c1.878,0,3.4-1.522,3.4-3.4
					C160.2,250.722,158.678,249.2,156.8,249.2z"/>
			</g>
		</g>
		<g>
			<g>
				<path fill="#F5C84C" d="M69.8,97.818c-4.5-0.8-8-4.3-8.9-8.7c0-0.2-0.4-0.2-0.4,0c-0.9,4.4-4.4,7.9-8.9,8.7
					c-0.2,0-0.2,0.3,0,0.4c4.5,0.8,8,4.3,8.9,8.7c0,0.2,0.4,0.2,0.4,0c0.9-4.4,4.4-7.9,8.9-8.7C70,98.118,70,97.818,69.8,97.818z"/>
			</g>
		</g>
		<g>
			<g>
				<path fill="#FC657E" d="M86.6,76.968c-1.878,0-3.4,1.522-3.4,3.4s1.522,3.4,3.4,3.4c1.878,0,3.4-1.522,3.4-3.4
					S88.478,76.968,86.6,76.968z"/>
			</g>
		</g>
		<g>
			<g>
				<g>
					<path d="M127.5,10.121c-18.666,0-33.852,15.186-33.852,33.852s15.186,33.852,33.852,33.852s33.852-15.186,33.852-33.852
						S146.166,10.121,127.5,10.121z M127.5,72.825c-15.909,0-28.852-12.943-28.852-28.852s12.943-28.852,28.852-28.852
						s28.852,12.943,28.852,28.852S143.409,72.825,127.5,72.825z"/>
				</g>
			</g>
		</g>
		<g>
			<g>
				<circle fill="#F9D0B4" cx="126.994" cy="36.389" r="11.092"/>
			</g>
		</g>
		<g>
			<g>
				<path d="M152.243,64.122c-2.281-6.135-8.214-10.257-14.762-10.257h-19.963c-6.652,0-12.616,4.21-14.842,10.476
					c-0.462,1.301,0.218,2.73,1.519,3.193c0.277,0.098,0.559,0.145,0.837,0.145c1.028,0,1.992-0.639,2.356-1.664
					c1.519-4.276,5.59-7.149,10.13-7.149h19.963c4.47,0,8.519,2.813,10.076,7c0.481,1.294,1.923,1.954,3.214,1.472
					C152.066,66.855,152.725,65.417,152.243,64.122z"/>
			</g>
		</g>
		<g>
			<g>
				<g>
					<path d="M126.994,22.797c-7.495,0-13.592,6.097-13.592,13.592s6.097,13.592,13.592,13.592s13.591-6.097,13.591-13.592
						S134.488,22.797,126.994,22.797z M126.994,44.981c-4.737,0-8.592-3.854-8.592-8.592s3.854-8.592,8.592-8.592
						c4.737,0,8.591,3.854,8.591,8.592S131.73,44.981,126.994,44.981z"/>
				</g>
			</g>
		</g>
		<g>
			<g>
				<g>
					<path d="M127.5,94.148c-18.666,0-33.852,15.186-33.852,33.852s15.186,33.852,33.852,33.852s33.852-15.186,33.852-33.852
						S146.166,94.148,127.5,94.148z M127.5,156.852c-15.909,0-28.852-12.943-28.852-28.852s12.943-28.852,28.852-28.852
						s28.852,12.943,28.852,28.852S143.409,156.852,127.5,156.852z"/>
				</g>
			</g>
		</g>
		<g>
			<g>
				<circle fill="#F9D0B4" cx="126.994" cy="120.416" r="11.092"/>
			</g>
		</g>
		<g>
			<g>
				<path d="M152.199,148.03c-2.313-6.064-8.227-10.139-14.718-10.139h-19.963c-6.521,0-12.445,4.1-14.742,10.201
					c-0.486,1.292,0.167,2.734,1.459,3.221c0.291,0.109,0.588,0.161,0.88,0.161c1.011,0,1.963-0.618,2.34-1.62
					c1.567-4.165,5.611-6.963,10.062-6.963h19.963c4.431,0,8.468,2.781,10.046,6.92c0.492,1.292,1.94,1.938,3.227,1.445
					C152.044,150.765,152.691,149.32,152.199,148.03z"/>
			</g>
		</g>
		<g>
			<g>
				<g>
					<path d="M126.994,106.824c-7.495,0-13.592,6.097-13.592,13.592s6.097,13.592,13.592,13.592s13.591-6.097,13.591-13.592
						S134.488,106.824,126.994,106.824z M126.994,129.008c-4.737,0-8.592-3.854-8.592-8.592s3.854-8.592,8.592-8.592
						c4.737,0,8.591,3.854,8.591,8.592S131.73,129.008,126.994,129.008z"/>
				</g>
			</g>
		</g>
		<g>
			<g>
				<g>
					<path d="M127.5,178.175c-18.666,0-33.852,15.186-33.852,33.852s15.186,33.852,33.852,33.852s33.852-15.186,33.852-33.852
						S146.166,178.175,127.5,178.175z M127.5,240.879c-15.909,0-28.852-12.943-28.852-28.852s12.943-28.852,28.852-28.852
						s28.852,12.943,28.852,28.852S143.409,240.879,127.5,240.879z"/>
				</g>
			</g>
		</g>
		<g>
			<g>
				<circle fill="#F9D0B4" cx="126.994" cy="204.443" r="11.092"/>
			</g>
		</g>
		<g>
			<g>
				<path d="M152.303,232.337c-2.24-6.232-8.196-10.419-14.821-10.419h-19.963c-6.702,0-12.682,4.252-14.879,10.582
					c-0.453,1.304,0.238,2.729,1.542,3.182c0.271,0.094,0.548,0.139,0.82,0.139c1.035,0,2.003-0.648,2.362-1.681
					c1.5-4.319,5.581-7.221,10.155-7.221h19.963c4.522,0,8.588,2.857,10.116,7.11c0.467,1.3,1.9,1.972,3.198,1.507
					C152.095,235.068,152.77,233.636,152.303,232.337z"/>
			</g>
		</g>
		<g>
			<g>
				<g>
					<path d="M126.994,190.851c-7.495,0-13.592,6.097-13.592,13.592s6.097,13.592,13.592,13.592s13.591-6.097,13.591-13.592
						S134.488,190.851,126.994,190.851z M126.994,213.035c-4.737,0-8.592-3.854-8.592-8.592s3.854-8.592,8.592-8.592
						c4.737,0,8.591,3.854,8.591,8.592S131.73,213.035,126.994,213.035z"/>
				</g>
			</g>
		</g>
		<g>
			<g>
				<g>
					<path d="M204.655,35.473H179.04c-4.687,0-8.5,3.813-8.5,8.5s3.813,8.5,8.5,8.5h25.615c11.494,0,20.845,9.351,20.845,20.845
						v25.336c0,11.494-9.351,20.845-20.845,20.845h-6.19l1.374-1.375c3.314-3.314,3.313-8.707,0-12.021
						c-1.605-1.605-3.739-2.489-6.011-2.489c-2.271,0-4.405,0.884-6.011,2.489l-15.656,15.657c-3.313,3.314-3.313,8.707,0,12.021
						l15.656,15.657c1.604,1.605,3.739,2.49,6.01,2.49h0.001c2.271,0,4.405-0.884,6.01-2.489c3.314-3.314,3.315-8.707,0.001-12.021
						l-0.918-0.918h5.734c20.867,0,37.845-16.978,37.845-37.845V73.318C242.5,52.451,225.522,35.473,204.655,35.473z M237.5,98.655
						c0,18.111-14.734,32.845-32.845,32.845h-11.771c-1.011,0-1.923,0.609-2.31,1.543s-0.173,2.009,0.542,2.725l5.187,5.186
						c1.364,1.365,1.364,3.585-0.002,4.951c-0.66,0.661-1.539,1.024-2.474,1.024c-0.936,0-1.814-0.364-2.476-1.025l-15.656-15.657
						c-1.364-1.365-1.364-3.585,0-4.95l15.656-15.656c0.661-0.661,1.541-1.025,2.476-1.025c0.936,0,1.813,0.364,2.475,1.025
						c1.365,1.364,1.365,3.585,0.001,4.95l-5.642,5.642c-0.715,0.715-0.929,1.79-0.542,2.724c0.387,0.935,1.299,1.543,2.31,1.543
						h12.226c14.251,0,25.845-11.594,25.845-25.845V73.318c0-14.251-11.594-25.845-25.845-25.845H179.04c-1.93,0-3.5-1.57-3.5-3.5
						s1.57-3.5,3.5-3.5h25.615c18.11,0,32.845,14.734,32.845,32.845V98.655z"/>
				</g>
			</g>
		</g>
		<g>
			<g>
				<g>
					<path d="M82.839,205.762l-15.657-15.657c0,0,0,0,0,0c-3.315-3.313-8.707-3.313-12.021,0c-1.605,1.605-2.49,3.74-2.49,6.01
						s0.884,4.405,2.49,6.01l1.401,1.401h-5.217c-11.494,0-20.845-9.351-20.845-20.845v-25.336c0-11.494,9.351-20.845,20.845-20.845
						H75.5c4.687,0,8.5-3.813,8.5-8.5s-3.813-8.5-8.5-8.5H51.345c-20.868,0-37.845,16.977-37.845,37.845v25.336
						c0,20.868,16.977,37.845,37.845,37.845h4.707l-0.891,0.892c-3.314,3.314-3.314,8.707,0,12.021
						c1.657,1.658,3.833,2.486,6.01,2.486c2.176,0,4.354-0.829,6.01-2.486l15.657-15.657c1.605-1.604,2.489-3.739,2.489-6.01
						C85.328,209.501,84.444,207.367,82.839,205.762z M79.304,214.247l-15.657,15.657c-1.365,1.364-3.585,1.364-4.95,0
						c-0.661-0.661-1.025-1.54-1.025-2.475s0.364-1.814,1.025-2.475l5.159-5.159c0.715-0.715,0.929-1.79,0.542-2.724
						c-0.387-0.935-1.298-1.543-2.31-1.543H51.345c-18.111,0-32.845-14.734-32.845-32.845v-25.336
						c0-18.111,14.734-32.845,32.845-32.845H75.5c1.93,0,3.5,1.57,3.5,3.5s-1.57,3.5-3.5,3.5H51.345
						c-14.251,0-25.845,11.594-25.845,25.845v25.336c0,14.251,11.594,25.845,25.845,25.845h11.252c1.011,0,1.923-0.609,2.31-1.543
						c0.387-0.934,0.173-2.009-0.542-2.724l-5.669-5.669c-1.364-1.365-1.364-3.585,0-4.95c1.366-1.365,3.585-1.363,4.95,0v0
						l15.657,15.657c0.66,0.661,1.024,1.54,1.024,2.475S79.964,213.586,79.304,214.247z"/>
				</g>
			</g>
		</g>
	</g>
</g>
<g id="Layer_44">
</g>
<g id="Layer_45">
</g>
<g id="Layer_46">
</g>
<g id="Layer_47">
</g>
<g id="Layer_48">
</g>
<g id="Layer_49">
</g>
<g id="Layer_50">
</g>
<g id="Layer_51">
</g>
<g id="Layer_52">
</g>
<g id="Layer_53">
</g>
<g id="Layer_54">
</g>
<g id="Layer_55">
</g>
<g id="Layer_56">
</g>
<g id="Layer_57">
</g>
<g id="Layer_58">
</g>
<g id="Layer_59">
</g>
<g id="Layer_60">
</g>
<g id="Layer_61">
</g>
<g id="Layer_62">
</g>
<g id="Layer_63">
</g>
<g id="Layer_64">
</g>
<g id="Layer_65">
</g>
<g id="Layer_66">
</g>
<g id="Layer_67">
</g>
<g id="Layer_68">
</g>
<g id="Layer_69">
</g>
<g id="Layer_70">
</g>
<g id="Layer_71">
</g>
<g id="Layer_72">
</g>
<g id="Layer_73">
</g>
<g id="Layer_74">
</g>
<g id="Layer_75">
</g>
<g id="Layer_76">
</g>
<g id="Layer_77">
</g>
<g id="Layer_78">
</g>
<g id="Layer_79">
</g>
<g id="Layer_80">
</g>
<g id="Layer_81">
</g>
<g id="Layer_82">
</g>
<g id="Layer_83">
</g>
<g id="Layer_84">
</g>
<g id="Layer_85">
</g>
<g id="Layer_86">
</g>
<g id="Layer_87">
</g>
<g id="Layer_88">
</g>
<g id="Layer_89">
</g>
<g id="Layer_90">
</g>
</svg>
