<svg xmlns="http://www.w3.org/2000/svg" viewBox="0 0 64 64"><g id="_18-Ring" data-name="18-Ring"><path d="M49,34a16.922,16.922,0,0,1-4.96,12H37.01a13,13,0,1,0-10.02,0H19.96A17,17,0,1,1,49,34Z" style="fill:#9891c3"/><path d="M32,17c-.338,0-.667.031-1,.05A16.984,16.984,0,0,1,42.04,46h2A17,17,0,0,0,32,17Z" style="fill:#897cac"/><path d="M19,34A12.992,12.992,0,0,1,31,21.051c-.331-.026-.662-.051-1-.051a13,13,0,0,0-5.01,25h2A13.011,13.011,0,0,1,19,34Z" style="fill:#897cac"/><path d="M56,58v3a2.006,2.006,0,0,1-2,2H10a2.006,2.006,0,0,1-2-2V58H56Z" style="fill:#b25d74"/><path d="M54,61H10a2.006,2.006,0,0,1-2-2v2a2.006,2.006,0,0,0,2,2H54a2.006,2.006,0,0,0,2-2V59A2.006,2.006,0,0,1,54,61Z" style="fill:#aa5169"/><polygon points="54 46 54 58 10 58 10 46 12 46 19.96 46 26.99 46 37.01 46 44.04 46 52 46 54 46" style="fill:#fc708d"/><path d="M52,46H50a8,8,0,0,1-8,8H10v4H54V46Z" style="fill:#f45b7d"/><path d="M45,34a13.011,13.011,0,0,1-7.99,12H26.99A13,13,0,1,1,45,34Z" style="fill:#fcacbc"/><path d="M32,21a13.032,13.032,0,0,0-1.5.093A13,13,0,0,1,34.01,46h3A13,13,0,0,0,32,21Z" style="fill:#fc98b0"/><path d="M27,12l5,5A17,17,0,0,0,19.96,46H12V14a2.006,2.006,0,0,1,2-2Z" style="fill:#fcacbc"/><path d="M32,17l-5-5H25l5,5A17,17,0,0,0,17.96,46h2A17,17,0,0,1,32,17Z" style="fill:#fc98b0"/><path d="M52,14V46H44.04A17,17,0,0,0,32,17l5-5H50A2.006,2.006,0,0,1,52,14Z" style="fill:#fcacbc"/><polygon points="28 5 20 5 24 1 28 5" style="fill:#50b9f5"/><polygon points="32 1 28 5 24 1 32 1" style="fill:#2ed0fa"/><polygon points="36 5 28 5 32 1 36 5" style="fill:#99e8fe"/><polygon points="40 1 36 5 32 1 40 1" style="fill:#b7effe"/><polygon points="44 5 36 5 40 1 44 5" style="fill:#d0f9fe"/><polygon points="44 5 37 12 32 17 36 5 44 5" style="fill:#2ed0fa"/><polygon points="36 5 32 17 28 5 36 5" style="fill:#83dcfd"/><polygon points="28 5 32 17 27 12 20 5 28 5" style="fill:#99e8fe"/><path d="M55,58H53V47H11V58H9V46a1,1,0,0,1,1-1H54a1,1,0,0,1,1,1Z"/><path d="M44,6H20a1,1,0,0,1-.707-1.707l4-4a1,1,0,0,1,1.414,0L28,3.586,31.293.293a1,1,0,0,1,1.414,0L36,3.586,39.293.293a1,1,0,0,1,1.414,0l4,4A1,1,0,0,1,44,6ZM38.414,4h3.172L40,2.414Zm-8,0h3.172L32,2.414Zm-8,0h3.172L24,2.414Z"/><rect x="24" width="16" height="2"/><path d="M32,18a1,1,0,0,1-.707-.293l-12-12,1.414-1.414L32,15.586,43.293,4.293l1.414,1.414-12,12A1,1,0,0,1,32,18Z"/><path d="M32,18a1,1,0,0,1-.948-.684l-4-12,1.9-.632L32,13.838l3.052-9.154,1.9.632-4,12A1,1,0,0,1,32,18Z"/><path d="M54,64H10a3,3,0,0,1-3-3V58a1,1,0,0,1,1-1H36v2H9v2a1,1,0,0,0,1,1H54a1,1,0,0,0,1-1V59H42V57H56a1,1,0,0,1,1,1v3A3,3,0,0,1,54,64Z"/><path d="M44.748,46.706l-1.416-1.412a16,16,0,1,0-22.664,0l-1.416,1.412a18,18,0,1,1,25.5,0Z"/><path d="M37.4,46.923l-.772-1.846a12,12,0,1,0-9.248,0L26.6,46.923a14,14,0,1,1,10.792,0Z"/><path d="M13,46H11V14a3,3,0,0,1,3-3H27v2H14a1,1,0,0,0-1,1Z"/><path d="M53,46H51V14a1,1,0,0,0-1-1H37V11H50a3,3,0,0,1,3,3Z"/><rect x="38" y="57" width="2" height="2"/><rect x="55" y="27" width="6" height="2"/><rect x="54.172" y="22" width="5.657" height="2" transform="translate(0.431 47.042) rotate(-45)"/><rect x="56" y="30.172" width="2" height="5.657" transform="translate(-6.64 49.971) rotate(-45)"/><rect x="3" y="27" width="6" height="2"/><rect x="4.172" y="32" width="5.657" height="2" transform="translate(-21.284 14.615) rotate(-45)"/><rect x="6" y="20.172" width="2" height="5.657" transform="translate(-14.213 11.686) rotate(-45)"/></g></svg>