<svg xmlns="http://www.w3.org/2000/svg" viewBox="0 0 64 64"><g id="_21-Door_Hanger" data-name="21-Door Hanger"><path d="M22.51,18H24.5a14.323,14.323,0,0,0-.44,2.71h-.01A9.072,9.072,0,0,1,22.51,18Z" style="fill:#aeacd5"/><path d="M47,7.61A15.984,15.984,0,0,1,56,22V61a2.006,2.006,0,0,1-2,2H26a2.006,2.006,0,0,1-2-2V36a4,4,0,0,1,4-4H46a3.657,3.657,0,0,0,1-.13A3.992,3.992,0,0,0,50,28V22a9.969,9.969,0,0,0-2.93-7.07c-.02-.02-.05-.04-.07-.06a9.921,9.921,0,0,0-5-2.67,10.048,10.048,0,0,0-2-.2H27.51a14.532,14.532,0,0,1,1.17-1.32A16.028,16.028,0,0,1,47,7.61Z" style="fill:#fbdbe0"/><path d="M47,7.61A15.928,15.928,0,0,0,40,6c-.392,0-.778.02-1.163.048A15.912,15.912,0,0,1,54,22V61a2.006,2.006,0,0,1-2,2h2a2.006,2.006,0,0,0,2-2V22A15.984,15.984,0,0,0,47,7.61Z" style="fill:#fcbcc5"/><path d="M47,14.87v17A3.657,3.657,0,0,1,46,32H28a4,4,0,0,0-4,4V55H17a2.006,2.006,0,0,1-2-2V18h7.51a9.072,9.072,0,0,0,1.54,2.71h.01Q24,21.355,24,22a2.938,2.938,0,0,0,3,3,2.7,2.7,0,0,0,2.4-1.14A9.335,9.335,0,0,0,31,24a8.981,8.981,0,0,0,8.48-6H42V12.2A9.921,9.921,0,0,1,47,14.87Z" style="fill:#897cac"/><path d="M47,3V7.61a16,16,0,0,0-12.17-.75A8.984,8.984,0,0,0,22.52,12H15V3a2.006,2.006,0,0,1,2-2H45A2.006,2.006,0,0,1,47,3Z" style="fill:#897cac"/><path d="M30,23.939c-.2-.022-.4-.045-.6-.079-.03.045-.076.085-.109.128C29.529,23.981,29.765,23.964,30,23.939Z" style="fill:#7f709a"/><path d="M22.06,20.71Q22,21.355,22,22a2.938,2.938,0,0,0,3,3,3.475,3.475,0,0,0,.978-.14A3.051,3.051,0,0,1,24,22q0-.645.06-1.29h-.01A9.072,9.072,0,0,1,22.51,18h-2a9.072,9.072,0,0,0,1.54,2.71Z" style="fill:#7f709a"/><path d="M22,36V55h2V36a4,4,0,0,1,4-4H26A4,4,0,0,0,22,36Z" style="fill:#7f709a"/><path d="M42,12.2v.661a9.991,9.991,0,0,1,3,2.009v17A3.657,3.657,0,0,1,44,32h2a3.657,3.657,0,0,0,1-.13v-17A9.921,9.921,0,0,0,42,12.2Z" style="fill:#7f709a"/><path d="M29,6a8.981,8.981,0,0,0-8.48,6h2a8.977,8.977,0,0,1,7.5-5.941A8.883,8.883,0,0,0,29,6Z" style="fill:#7f709a"/><path d="M38,6a15.859,15.859,0,0,0-4.015.514,8.908,8.908,0,0,1,.845.346,15.678,15.678,0,0,1,4.007-.812C38.558,6.034,38.283,6,38,6Z" style="fill:#7f709a"/><path d="M45,1H43a2.006,2.006,0,0,1,2,2V6.815a15.95,15.95,0,0,1,2,.8V3A2.006,2.006,0,0,0,45,1Z" style="fill:#7f709a"/><path d="M42,12.2V18H11a3,3,0,0,1,0-6H40A10.048,10.048,0,0,1,42,12.2Z" style="fill:#e1e2ef"/><path d="M30.84,16H11a2.963,2.963,0,0,1-2.816-2A2.991,2.991,0,0,0,11,18H42V16H30.84Z" style="fill:#d1d1e7"/><path d="M30.84,18h8.64A8.981,8.981,0,0,1,31,24a9.335,9.335,0,0,1-1.6-.14A3.587,3.587,0,0,0,30,22,9.881,9.881,0,0,1,30.84,18Z" style="fill:#aeacd5"/><path d="M34.83,6.86a15.893,15.893,0,0,0-6.15,3.82A14.532,14.532,0,0,0,27.51,12H22.52A8.984,8.984,0,0,1,34.83,6.86Z" style="fill:#aeacd5"/><path d="M24.5,18h6.34A9.881,9.881,0,0,0,30,22a3.587,3.587,0,0,1-.6,1.86A2.7,2.7,0,0,1,27,25a2.938,2.938,0,0,1-3-3q0-.645.06-1.29A14.323,14.323,0,0,1,24.5,18Z" style="fill:#fbdbe0"/><path d="M28.84,18A9.881,9.881,0,0,0,28,22a3.587,3.587,0,0,1-.6,1.86,2.493,2.493,0,0,1-1.422,1A3.55,3.55,0,0,0,27,25a2.7,2.7,0,0,0,2.4-1.14A3.587,3.587,0,0,0,30,22a9.881,9.881,0,0,1,.84-4Z" style="fill:#fcbcc5"/><path d="M50.137,48.75a2.341,2.341,0,0,1,0,3.63L46,56l-4.14-3.62a.435.435,0,0,1-.07-.06,2.344,2.344,0,0,1,.07-3.57,3.248,3.248,0,0,1,3.82-.24,2.428,2.428,0,0,1,.32.24A3.232,3.232,0,0,1,50.137,48.75Z" style="fill:#fcbcc5"/><path d="M50.138,48.75a3.231,3.231,0,0,0-3.07-.589,2.974,2.974,0,0,1,1.07.589,2.342,2.342,0,0,1,0,3.63L45,55.126,46,56l4.141-3.62A2.342,2.342,0,0,0,50.138,48.75Z" style="fill:#fc98b0"/><path d="M45.457,41.5a5.026,5.026,0,0,1,.22,7.01,3.248,3.248,0,0,0-3.82.24,2.344,2.344,0,0,0-.07,3.57L38,56l-7.46-7.25a5.042,5.042,0,0,1,0-7.25,5.388,5.388,0,0,1,7.46,0A5.388,5.388,0,0,1,45.457,41.5Z" style="fill:#ea5073"/><path d="M42.927,48.165a3.233,3.233,0,0,0-3.07.585,2.345,2.345,0,0,0-.07,3.57L37,55.029,38,56l3.79-3.68a2.345,2.345,0,0,1,.07-3.57A2.979,2.979,0,0,1,42.927,48.165Z" style="fill:#d83a5c"/><path d="M45.458,41.5a5.373,5.373,0,0,0-4.73-1.407,5.307,5.307,0,0,1,2.73,1.407,5.01,5.01,0,0,1,.59,6.513,3.166,3.166,0,0,1,1.629.5A5.026,5.026,0,0,0,45.458,41.5Z" style="fill:#d83a5c"/><path d="M27,26a3.888,3.888,0,0,1-4-4,17.032,17.032,0,0,1,.532-4.25l1.936.5A15.063,15.063,0,0,0,25,22a2,2,0,1,0,4-.008,10.819,10.819,0,0,1,.925-4.4l1.829.81A8.829,8.829,0,0,0,31,22,3.888,3.888,0,0,1,27,26Z"/><path d="M54,64H26a3,3,0,0,1-3-3V36a5.006,5.006,0,0,1,5-5H46a3,3,0,0,0,3-3V22a9.009,9.009,0,0,0-7.2-8.82A9.1,9.1,0,0,0,40,13V11a11.09,11.09,0,0,1,2.2.22A11.011,11.011,0,0,1,51,22v6a5.006,5.006,0,0,1-5,5H28a3,3,0,0,0-3,3V61a1,1,0,0,0,1,1H54a1,1,0,0,0,1-1V22A15.009,15.009,0,0,0,29.386,11.388,13.524,13.524,0,0,0,28.3,12.617l-1.574-1.234a15.35,15.35,0,0,1,1.251-1.41A17.008,17.008,0,0,1,57,22V61A3,3,0,0,1,54,64Z"/><path d="M16,12H14V3a3,3,0,0,1,3-3H45a3,3,0,0,1,3,3V8H46V3a1,1,0,0,0-1-1H17a1,1,0,0,0-1,1Z"/><path d="M24,56H17a3,3,0,0,1-3-3V18h2V53a1,1,0,0,0,1,1h7Z"/><path d="M42,19H11a4,4,0,0,1,0-8H40v2H11a2,2,0,0,0,0,4H41V12h2v6A1,1,0,0,1,42,19Z"/><path d="M23.463,12.332l-1.886-.664A10,10,0,0,1,31,5a9.858,9.858,0,0,1,4.259.957L34.4,7.764A7.865,7.865,0,0,0,31,7,8,8,0,0,0,23.463,12.332Z"/><path d="M31,25a10.389,10.389,0,0,1-1.771-.154l.341-1.971a8,8,0,0,0,8.967-5.207l1.886.664A10,10,0,0,1,31,25Z"/><path d="M23.278,21.347a10.114,10.114,0,0,1-1.709-3.008l1.882-.678a8.076,8.076,0,0,0,1.37,2.412Z"/><rect x="46" y="14.87" width="2" height="17.13"/><path d="M38,57a1,1,0,0,1-.7-.283l-7.46-7.25a6.042,6.042,0,0,1,0-8.683A6.412,6.412,0,0,1,38,40.2a6.414,6.414,0,0,1,8.157.584,6.023,6.023,0,0,1,.262,8.4l-1.479-1.346a4.03,4.03,0,0,0-.178-5.621,4.388,4.388,0,0,0-6.066,0,1,1,0,0,1-1.393,0,4.385,4.385,0,0,0-6.067,0,4.041,4.041,0,0,0,0,5.816L38,54.605l3.093-3,1.393,1.435-3.79,3.68A1,1,0,0,1,38,57Z"/><path d="M46,57a1,1,0,0,1-.659-.247L41.2,53.128a3.343,3.343,0,0,1,0-5.13,4.23,4.23,0,0,1,4.8-.467A4.231,4.231,0,0,1,50.8,48h0a3.343,3.343,0,0,1,0,5.13l-4.143,3.625A1,1,0,0,1,46,57Zm-2.071-8a2.151,2.151,0,0,0-1.413.5,1.345,1.345,0,0,0,0,2.118L46,54.671l3.483-3.049a1.343,1.343,0,0,0,0-2.118,2.238,2.238,0,0,0-2.825,0,1,1,0,0,1-1.317,0A2.15,2.15,0,0,0,43.928,49Z"/><rect x="18" y="26" width="2" height="2"/><rect x="18" y="30" width="2" height="16"/></g></svg>