<?xml version="1.0" encoding="utf-8"?>
<!-- Generator: Adobe Illustrator 24.0.0, SVG Export Plug-In . SVG Version: 6.00 Build 0)  -->
<svg version="1.1" xmlns="http://www.w3.org/2000/svg" xmlns:xlink="http://www.w3.org/1999/xlink" x="0px" y="0px"
	 viewBox="0 0 256 256" enable-background="new 0 0 256 256" xml:space="preserve">
<g id="Layer_1">
</g>
<g id="Layer_2">
</g>
<g id="Layer_3">
</g>
<g id="Layer_4">
</g>
<g id="Layer_5">
</g>
<g id="Layer_6">
</g>
<g id="Layer_7">
</g>
<g id="Layer_8">
</g>
<g id="Layer_9">
</g>
<g id="Layer_10">
</g>
<g id="Layer_11">
</g>
<g id="Layer_12">
</g>
<g id="Layer_13">
</g>
<g id="Layer_14">
</g>
<g id="Layer_15">
</g>
<g id="Layer_16">
</g>
<g id="Layer_17">
</g>
<g id="Layer_18">
</g>
<g id="Layer_19">
</g>
<g id="Layer_20">
</g>
<g id="Layer_21">
</g>
<g id="Layer_22">
</g>
<g id="Layer_23">
</g>
<g id="Layer_24">
</g>
<g id="Layer_25">
</g>
<g id="Layer_26">
</g>
<g id="Layer_27">
</g>
<g id="Layer_28">
</g>
<g id="Layer_29">
</g>
<g id="Layer_30">
</g>
<g id="Layer_31">
</g>
<g id="Layer_32">
</g>
<g id="Layer_33">
</g>
<g id="Layer_34">
</g>
<g id="Layer_35">
</g>
<g id="Layer_36">
</g>
<g id="Layer_37">
</g>
<g id="Layer_38">
</g>
<g id="Layer_39">
</g>
<g id="Layer_40">
</g>
<g id="Layer_41">
</g>
<g id="Layer_42">
</g>
<g id="Layer_43">
</g>
<g id="Layer_44">
</g>
<g id="Layer_45">
</g>
<g id="Layer_46">
</g>
<g id="Layer_47">
</g>
<g id="Layer_48">
</g>
<g id="Layer_49">
</g>
<g id="Layer_50">
</g>
<g id="Layer_51">
</g>
<g id="Layer_52">
</g>
<g id="Layer_53">
</g>
<g id="Layer_54">
</g>
<g id="Layer_55">
</g>
<g id="Layer_56">
</g>
<g id="Layer_57">
</g>
<g id="Layer_58">
</g>
<g id="Layer_59">
</g>
<g id="Layer_60">
</g>
<g id="Layer_61">
</g>
<g id="Layer_62">
</g>
<g id="Layer_63">
</g>
<g id="Layer_64">
</g>
<g id="Layer_65">
</g>
<g id="Layer_66">
</g>
<g id="Layer_67">
</g>
<g id="Layer_68">
</g>
<g id="Layer_69">
</g>
<g id="Layer_70">
</g>
<g id="Layer_71">
</g>
<g id="Layer_72">
</g>
<g id="Layer_73">
</g>
<g id="Layer_74">
</g>
<g id="Layer_75">
</g>
<g id="Layer_76">
</g>
<g id="Layer_77">
</g>
<g id="Layer_78">
</g>
<g id="Layer_79">
</g>
<g id="Layer_80">
</g>
<g id="Layer_81">
</g>
<g id="Layer_82">
</g>
<g id="Layer_83">
</g>
<g id="Layer_84">
</g>
<g id="Layer_85">
</g>
<g id="Layer_86">
</g>
<g id="Layer_87">
</g>
<g id="Layer_88">
</g>
<g id="Layer_89">
</g>
<g id="Layer_90">
	<g>
		<g>
			<g>
				<path fill="#3A70BF" d="M54.192,32.196H18.174c-4.169,0-7.581,3.411-7.581,7.581v166.005c0,4.169,3.411,7.581,7.581,7.581
					h36.018c4.169,0,7.807-3.412,7.807-7.581V39.777C61.999,35.607,58.362,32.196,54.192,32.196z"/>
			</g>
		</g>
		<g>
			<g>
				<path fill="#3A70BF" d="M105.825,32.196H69.806c-4.169,0-7.807,3.411-7.807,7.581v166.005c0,4.169,3.638,7.581,7.807,7.581
					h36.018c4.169,0,7.807-3.412,7.807-7.581V39.777C113.632,35.607,109.994,32.196,105.825,32.196z"/>
			</g>
		</g>
		<g>
			<g>
				<path fill="#3A70BF" d="M157.457,32.196h-36.018c-4.169,0-7.807,3.411-7.807,7.581v166.005c0,4.169,3.638,7.581,7.807,7.581
					h36.018c4.169,0,7.581-3.412,7.581-7.581V39.777C165.038,35.607,161.627,32.196,157.457,32.196z"/>
			</g>
		</g>
		<g>
			<g>
				<path fill="#3A70BF" d="M245.292,198.21L216.465,34.727c-0.724-4.106-4.676-6.873-8.782-6.149l-35.471,6.254
					c-4.106,0.724-7.096,4.715-6.372,8.821l28.827,163.483c0.724,4.106,4.899,6.834,9.005,6.11l35.471-6.254
					C243.249,206.268,246.016,202.316,245.292,198.21z"/>
			</g>
		</g>
		<g>
			<g>
				<path fill="#FCDD86" d="M250.67,213.363H5.33c-1.563,0-2.83,1.441-2.83,3.004v8.34c0,1.563,1.267,2.83,2.83,2.83h245.34
					c1.563,0,2.83-1.267,2.83-2.83v-8.34C253.5,214.805,252.233,213.363,250.67,213.363z"/>
			</g>
		</g>
		<g>
			<g>
				
					<ellipse transform="matrix(0.9871 -0.1602 0.1602 0.9871 -27.543 8.0538)" fill="#5290DB" cx="36.183" cy="174.865" rx="12.682" ry="12.682"/>
			</g>
		</g>
		<g>
			<g>
				
					<ellipse transform="matrix(0.9871 -0.1602 0.1602 0.9871 -26.8763 16.3244)" fill="#5290DB" cx="87.816" cy="174.865" rx="12.682" ry="12.682"/>
			</g>
		</g>
		<g>
			<g>
				
					<ellipse transform="matrix(0.3827 -0.9239 0.9239 0.3827 -75.4708 236.7804)" fill="#5290DB" cx="139.448" cy="174.865" rx="12.682" ry="12.682"/>
			</g>
		</g>
		<g>
			<g>
				<path fill="#5290DB" d="M227.211,170.004c-1.216-6.898-7.794-11.503-14.691-10.287s-11.503,7.793-10.287,14.691
					c1.216,6.897,7.794,11.503,14.691,10.287S228.427,176.902,227.211,170.004z"/>
			</g>
		</g>
		<g>
			<g>
				<path fill="#DAE6F1" d="M48.966,54.063H23.401c-2.07,0-3.749,1.678-3.749,3.749v66.529c0,2.07,1.678,3.749,3.749,3.749h25.565
					c2.07,0,3.749-1.679,3.749-3.749V57.811C52.714,55.741,51.036,54.063,48.966,54.063z"/>
			</g>
		</g>
		<g>
			<g>
				<path fill="#DAE6F1" d="M100.598,54.063H75.033c-2.07,0-3.749,1.678-3.749,3.749v66.529c0,2.07,1.678,3.749,3.749,3.749h25.565
					c2.07,0,3.749-1.679,3.749-3.749V57.811C104.347,55.741,102.668,54.063,100.598,54.063z"/>
			</g>
		</g>
		<g>
			<g>
				<path fill="#DAE6F1" d="M152.231,54.063h-25.565c-2.07,0-3.749,1.678-3.749,3.749v66.529c0,2.07,1.678,3.749,3.749,3.749h25.565
					c2.07,0,3.749-1.679,3.749-3.749V57.811C155.98,55.741,154.301,54.063,152.231,54.063z"/>
			</g>
		</g>
		<g>
			<g>
				<path fill="#DAE6F1" d="M222.229,119.578L210.676,54.06c-0.36-2.039-2.304-3.4-4.343-3.041l-25.177,4.439
					c-2.039,0.359-3.401,2.304-3.041,4.343l11.553,65.518c0.359,2.039,2.304,3.4,4.343,3.041l25.177-4.439
					C221.227,123.562,222.588,121.617,222.229,119.578z"/>
			</g>
		</g>
		<g>
			<g>
				<path fill="#FC657E" d="M48.966,54.063H23.401c-2.07,0-3.749,1.678-3.749,3.749v12.883h33.063V57.811
					C52.714,55.741,51.036,54.063,48.966,54.063z"/>
			</g>
		</g>
		<g>
			<g>
				<path fill="#FCDD86" d="M100.598,54.063H75.033c-2.07,0-3.749,1.678-3.749,3.749v12.883h33.063V57.811
					C104.347,55.741,102.668,54.063,100.598,54.063z"/>
			</g>
		</g>
		<g>
			<g>
				<path fill="#9BE5F9" d="M152.231,54.063h-25.565c-2.07,0-3.749,1.678-3.749,3.749v12.883h33.063V57.811
					C155.98,55.741,154.301,54.063,152.231,54.063z"/>
			</g>
		</g>
		<g>
			<g>
				<path fill="#B2E26D" d="M210.676,54.06c-0.36-2.039-2.304-3.4-4.343-3.041l-25.177,4.439c-2.039,0.359-3.401,2.304-3.041,4.343
					l2.237,12.688l32.561-5.742L210.676,54.06z"/>
			</g>
		</g>
		<g>
			<g>
				<path fill="#F5C84C" d="M254.125,75.85c-4.5-0.8-8-4.3-8.9-8.7c0-0.2-0.4-0.2-0.4,0c-0.9,4.4-4.4,7.9-8.9,8.7
					c-0.2,0-0.2,0.3,0,0.4c4.5,0.8,8,4.3,8.9,8.7c0,0.2,0.4,0.2,0.4,0c0.9-4.4,4.4-7.9,8.9-8.7
					C254.325,76.15,254.325,75.85,254.125,75.85z"/>
			</g>
		</g>
		<g>
			<g>
				<path fill="#FC657E" d="M132.935,6.21c-3.157-0.562-5.613-3.018-6.245-6.104c0-0.141-0.281-0.141-0.281,0
					c-0.631,3.087-3.087,5.543-6.245,6.104c-0.14,0-0.14,0.21,0,0.28c3.157,0.562,5.613,3.018,6.245,6.104
					c0,0.141,0.281,0.141,0.281,0c0.631-3.087,3.087-5.543,6.245-6.104C133.075,6.42,133.075,6.21,132.935,6.21z"/>
			</g>
		</g>
		<g>
			<g>
				<path fill="#70D6F9" d="M101.025,244.1h-2.3v-2.3c0-1.7-1.4-3.2-3.2-3.2c-1.8,0-3.2,1.4-3.2,3.2v2.3h-2.3
					c-1.7,0-3.2,1.4-3.2,3.2c0,1.8,1.4,3.2,3.2,3.2h2.3v2.3c0,1.7,1.4,3.2,3.2,3.2c1.8,0,3.2-1.4,3.2-3.2v-2.3h2.3
					c1.7,0,3.2-1.4,3.2-3.2C104.225,245.5,102.825,244.1,101.025,244.1z"/>
			</g>
		</g>
		<g>
			<g>
				<path fill="#87D147" d="M64.125,238c-1.878,0-3.4,1.522-3.4,3.4c0,1.878,1.522,3.4,3.4,3.4s3.4-1.522,3.4-3.4
					C67.525,239.522,66.003,238,64.125,238z"/>
			</g>
		</g>
		<g>
			<g>
				<path fill="#F5C84C" d="M155.125,15c-1.878,0-3.4,1.522-3.4,3.4c0,1.878,1.522,3.4,3.4,3.4s3.4-1.522,3.4-3.4
					C158.525,16.522,157.003,15,155.125,15z"/>
			</g>
		</g>
		<g>
			<g>
				<path d="M43.883,79.064H28.483c-1.381,0-2.5,1.119-2.5,2.5s1.119,2.5,2.5,2.5h15.399c1.381,0,2.5-1.119,2.5-2.5
					S45.264,79.064,43.883,79.064z"/>
			</g>
		</g>
		<g>
			<g>
				<path d="M43.883,87.896H28.483c-1.381,0-2.5,1.119-2.5,2.5s1.119,2.5,2.5,2.5h15.399c1.381,0,2.5-1.119,2.5-2.5
					S45.264,87.896,43.883,87.896z"/>
			</g>
		</g>
		<g>
			<g>
				<path d="M43.883,96.728H28.483c-1.381,0-2.5,1.119-2.5,2.5s1.119,2.5,2.5,2.5h15.399c1.381,0,2.5-1.119,2.5-2.5
					S45.264,96.728,43.883,96.728z"/>
			</g>
		</g>
		<g>
			<g>
				<path d="M43.883,105.56H28.483c-1.381,0-2.5,1.119-2.5,2.5s1.119,2.5,2.5,2.5h15.399c1.381,0,2.5-1.119,2.5-2.5
					S45.264,105.56,43.883,105.56z"/>
			</g>
		</g>
		<g>
			<g>
				<path d="M43.883,114.392H28.483c-1.381,0-2.5,1.119-2.5,2.5s1.119,2.5,2.5,2.5h15.399c1.381,0,2.5-1.119,2.5-2.5
					S45.264,114.392,43.883,114.392z"/>
			</g>
		</g>
		<g>
			<g>
				<path d="M95.516,79.064H80.116c-1.381,0-2.5,1.119-2.5,2.5s1.119,2.5,2.5,2.5h15.399c1.381,0,2.5-1.119,2.5-2.5
					S96.896,79.064,95.516,79.064z"/>
			</g>
		</g>
		<g>
			<g>
				<path d="M95.516,87.896H80.116c-1.381,0-2.5,1.119-2.5,2.5s1.119,2.5,2.5,2.5h15.399c1.381,0,2.5-1.119,2.5-2.5
					S96.896,87.896,95.516,87.896z"/>
			</g>
		</g>
		<g>
			<g>
				<path d="M95.516,96.728H80.116c-1.381,0-2.5,1.119-2.5,2.5s1.119,2.5,2.5,2.5h15.399c1.381,0,2.5-1.119,2.5-2.5
					S96.896,96.728,95.516,96.728z"/>
			</g>
		</g>
		<g>
			<g>
				<path d="M95.516,105.56H80.116c-1.381,0-2.5,1.119-2.5,2.5s1.119,2.5,2.5,2.5h15.399c1.381,0,2.5-1.119,2.5-2.5
					S96.896,105.56,95.516,105.56z"/>
			</g>
		</g>
		<g>
			<g>
				<path d="M95.516,114.392H80.116c-1.381,0-2.5,1.119-2.5,2.5s1.119,2.5,2.5,2.5h15.399c1.381,0,2.5-1.119,2.5-2.5
					S96.896,114.392,95.516,114.392z"/>
			</g>
		</g>
		<g>
			<g>
				<path d="M147.147,79.064h-15.398c-1.381,0-2.5,1.119-2.5,2.5s1.119,2.5,2.5,2.5h15.398c1.381,0,2.5-1.119,2.5-2.5
					S148.528,79.064,147.147,79.064z"/>
			</g>
		</g>
		<g>
			<g>
				<path d="M147.147,87.896h-15.398c-1.381,0-2.5,1.119-2.5,2.5s1.119,2.5,2.5,2.5h15.398c1.381,0,2.5-1.119,2.5-2.5
					S148.528,87.896,147.147,87.896z"/>
			</g>
		</g>
		<g>
			<g>
				<path d="M147.147,96.728h-15.398c-1.381,0-2.5,1.119-2.5,2.5s1.119,2.5,2.5,2.5h15.398c1.381,0,2.5-1.119,2.5-2.5
					S148.528,96.728,147.147,96.728z"/>
			</g>
		</g>
		<g>
			<g>
				<path d="M147.147,105.56h-15.398c-1.381,0-2.5,1.119-2.5,2.5s1.119,2.5,2.5,2.5h15.398c1.381,0,2.5-1.119,2.5-2.5
					S148.528,105.56,147.147,105.56z"/>
			</g>
		</g>
		<g>
			<g>
				<path d="M147.147,114.392h-15.398c-1.381,0-2.5,1.119-2.5,2.5s1.119,2.5,2.5,2.5h15.398c1.381,0,2.5-1.119,2.5-2.5
					S148.528,114.392,147.147,114.392z"/>
			</g>
		</g>
		<g>
			<g>
				<path d="M208.564,78.551c-0.24-1.359-1.532-2.267-2.896-2.027l-15.165,2.675c-1.359,0.239-2.268,1.536-2.027,2.896
					c0.214,1.213,1.269,2.065,2.459,2.065c0.145,0,0.29-0.012,0.438-0.038l15.165-2.675
					C207.896,81.208,208.805,79.911,208.564,78.551z"/>
			</g>
		</g>
		<g>
			<g>
				<path d="M210.099,87.249c-0.24-1.36-1.532-2.27-2.896-2.027l-15.165,2.674c-1.359,0.239-2.268,1.536-2.027,2.896
					c0.214,1.213,1.269,2.065,2.459,2.065c0.145,0,0.29-0.012,0.438-0.038l15.165-2.674
					C209.431,89.906,210.339,88.609,210.099,87.249z"/>
			</g>
		</g>
		<g>
			<g>
				<path d="M211.632,95.946c-0.24-1.36-1.532-2.271-2.896-2.027l-15.165,2.675c-1.359,0.239-2.268,1.536-2.027,2.896
					c0.214,1.213,1.269,2.065,2.459,2.065c0.145,0,0.29-0.012,0.438-0.038l15.165-2.675
					C210.964,98.604,211.872,97.307,211.632,95.946z"/>
			</g>
		</g>
		<g>
			<g>
				<path d="M213.166,104.645c-0.239-1.359-1.533-2.266-2.896-2.027l-15.165,2.674c-1.359,0.239-2.268,1.536-2.027,2.896
					c0.214,1.213,1.269,2.065,2.459,2.065c0.145,0,0.29-0.012,0.438-0.038l15.165-2.674
					C212.498,107.302,213.406,106.005,213.166,104.645z"/>
			</g>
		</g>
		<g>
			<g>
				<path d="M214.699,113.342c-0.239-1.359-1.533-2.268-2.896-2.027l-15.165,2.675c-1.359,0.239-2.268,1.536-2.027,2.896
					c0.214,1.213,1.269,2.065,2.459,2.065c0.145,0,0.29-0.012,0.438-0.038l15.165-2.675
					C214.031,115.999,214.939,114.702,214.699,113.342z"/>
			</g>
		</g>
		<g>
			<g>
				<g>
					<path d="M54.192,29.696H18.174c-5.559,0-10.081,4.521-10.081,10.08v166.006c0,5.559,4.522,10.081,10.081,10.081h36.019
						c5.587,0,10.307-4.616,10.307-10.081V39.776C64.499,34.313,59.779,29.696,54.192,29.696z M59.499,205.782
						c0,2.707-2.479,5.081-5.307,5.081H18.174c-2.802,0-5.081-2.279-5.081-5.081V39.776c0-2.801,2.279-5.08,5.081-5.08h36.019
						c2.827,0,5.307,2.374,5.307,5.08V205.782z"/>
				</g>
			</g>
		</g>
		<g>
			<g>
				<g>
					<path d="M105.825,29.696H69.807c-5.587,0-10.308,4.616-10.308,10.08v166.006c0,5.465,4.721,10.081,10.308,10.081h36.019
						c5.587,0,10.307-4.616,10.307-10.081V39.776C116.132,34.313,111.412,29.696,105.825,29.696z M111.132,205.782
						c0,2.707-2.479,5.081-5.307,5.081H69.807c-2.827,0-5.308-2.374-5.308-5.081V39.776c0-2.706,2.48-5.08,5.308-5.08h36.019
						c2.827,0,5.307,2.374,5.307,5.08V205.782z"/>
				</g>
			</g>
		</g>
		<g>
			<g>
				<g>
					<path d="M157.457,29.696h-36.019c-5.587,0-10.307,4.616-10.307,10.08v166.006c0,5.465,4.72,10.081,10.307,10.081h36.019
						c5.559,0,10.081-4.522,10.081-10.081V39.776C167.538,34.218,163.016,29.696,157.457,29.696z M162.538,205.782
						c0,2.802-2.279,5.081-5.081,5.081h-36.019c-2.827,0-5.307-2.374-5.307-5.081V39.776c0-2.706,2.479-5.08,5.307-5.08h36.019
						c2.802,0,5.081,2.279,5.081,5.08V205.782z"/>
				</g>
			</g>
		</g>
		<g>
			<g>
				<g>
					<path d="M247.754,197.775L218.927,34.293c-0.466-2.644-1.939-4.952-4.15-6.5c-2.21-1.547-4.886-2.144-7.526-1.678
						c0,0,0,0-0.001,0l-35.471,6.255c-5.502,0.97-9.349,6.335-8.4,11.718l28.827,163.482c0.467,2.649,1.995,4.961,4.304,6.509
						c1.751,1.175,3.764,1.786,5.809,1.786c0.596,0,1.193-0.052,1.788-0.156l35.471-6.255
						C245.051,208.489,248.719,203.251,247.754,197.775z M238.708,204.53l-35.471,6.255c-1.349,0.236-2.779-0.077-3.944-0.858
						c-1.167-0.782-1.936-1.928-2.164-3.225L168.302,43.22c-0.47-2.666,1.561-5.435,4.345-5.926l35.472-6.255
						c1.329-0.233,2.675,0.067,3.79,0.85c1.117,0.781,1.86,1.943,2.095,3.272l28.827,163.482
						C243.316,201.403,241.468,204.044,238.708,204.53z"/>
				</g>
			</g>
		</g>
		<g>
			<g>
				<g>
					<path d="M250.67,210.863H5.33c-2.89,0-5.33,2.521-5.33,5.504v8.34c0,2.939,2.391,5.33,5.33,5.33h245.34
						c2.939,0,5.33-2.391,5.33-5.33v-8.34C256,213.384,253.56,210.863,250.67,210.863z M251,224.707c0,0.182-0.148,0.33-0.33,0.33
						H5.33c-0.182,0-0.33-0.148-0.33-0.33v-8.34c0-0.277,0.249-0.504,0.33-0.504h245.34c0.081,0,0.33,0.227,0.33,0.504V224.707z"/>
				</g>
			</g>
		</g>
		<g>
			<g>
				<g>
					<path d="M36.183,159.684c-8.371,0-15.182,6.811-15.182,15.182s6.811,15.182,15.182,15.182s15.182-6.811,15.182-15.182
						S44.554,159.684,36.183,159.684z M36.183,185.047c-5.614,0-10.182-4.567-10.182-10.182s4.567-10.182,10.182-10.182
						s10.182,4.567,10.182,10.182S41.797,185.047,36.183,185.047z"/>
				</g>
			</g>
		</g>
		<g>
			<g>
				<g>
					<path d="M87.815,159.684c-8.371,0-15.182,6.811-15.182,15.182s6.811,15.182,15.182,15.182s15.182-6.811,15.182-15.182
						S96.187,159.684,87.815,159.684z M87.815,185.047c-5.614,0-10.182-4.567-10.182-10.182s4.567-10.182,10.182-10.182
						s10.182,4.567,10.182,10.182S93.43,185.047,87.815,185.047z"/>
				</g>
			</g>
		</g>
		<g>
			<g>
				<g>
					<path d="M139.448,159.684c-8.371,0-15.182,6.811-15.182,15.182s6.811,15.182,15.182,15.182s15.182-6.811,15.182-15.182
						S147.819,159.684,139.448,159.684z M139.448,185.047c-5.614,0-10.182-4.567-10.182-10.182s4.567-10.182,10.182-10.182
						s10.182,4.567,10.182,10.182S145.063,185.047,139.448,185.047z"/>
				</g>
			</g>
		</g>
		<g>
			<g>
				<g>
					<path d="M229.673,169.57c-0.704-3.994-2.921-7.475-6.243-9.8c-3.321-2.326-7.35-3.217-11.344-2.515
						c-3.994,0.704-7.475,2.921-9.8,6.242c-2.326,3.322-3.22,7.351-2.516,11.345c1.298,7.356,7.719,12.547,14.944,12.547
						c0.871,0,1.756-0.076,2.643-0.232c3.994-0.704,7.475-2.921,9.801-6.243C229.483,177.592,230.377,173.563,229.673,169.57z
						 M216.49,182.233c-5.541,0.973-10.821-2.731-11.796-8.259c-0.472-2.679,0.127-5.381,1.687-7.608
						c1.561-2.228,3.895-3.714,6.573-4.187c0.598-0.105,1.196-0.157,1.79-0.157c2.07,0,4.087,0.632,5.817,1.844
						c2.229,1.56,3.715,3.894,4.188,6.571C225.724,175.968,222.019,181.259,216.49,182.233z"/>
				</g>
			</g>
		</g>
		<g>
			<g>
				<g>
					<path d="M48.966,51.563H23.4c-3.445,0-6.249,2.804-6.249,6.249v66.528c0,3.445,2.804,6.249,6.249,6.249h25.565
						c3.445,0,6.249-2.804,6.249-6.249V57.812C55.215,54.366,52.411,51.563,48.966,51.563z M50.215,124.34
						c0,0.688-0.561,1.249-1.249,1.249H23.4c-0.688,0-1.249-0.561-1.249-1.249V57.812c0-0.688,0.561-1.249,1.249-1.249h25.565
						c0.688,0,1.249,0.561,1.249,1.249V124.34z"/>
				</g>
			</g>
		</g>
		<g>
			<g>
				<g>
					<path d="M100.598,51.563H75.033c-3.445,0-6.249,2.804-6.249,6.249v66.528c0,3.445,2.804,6.249,6.249,6.249h25.564
						c3.445,0,6.249-2.804,6.249-6.249V57.812C106.847,54.366,104.043,51.563,100.598,51.563z M101.847,124.34
						c0,0.688-0.561,1.249-1.249,1.249H75.033c-0.688,0-1.249-0.561-1.249-1.249V57.812c0-0.688,0.561-1.249,1.249-1.249h25.564
						c0.688,0,1.249,0.561,1.249,1.249V124.34z"/>
				</g>
			</g>
		</g>
		<g>
			<g>
				<g>
					<path d="M152.23,51.563h-25.564c-3.445,0-6.249,2.804-6.249,6.249v66.528c0,3.445,2.804,6.249,6.249,6.249h25.564
						c3.445,0,6.249-2.804,6.249-6.249V57.812C158.479,54.366,155.676,51.563,152.23,51.563z M153.479,124.34
						c0,0.688-0.561,1.249-1.249,1.249h-25.564c-0.688,0-1.249-0.561-1.249-1.249V57.812c0-0.688,0.561-1.249,1.249-1.249h25.564
						c0.688,0,1.249,0.561,1.249,1.249V124.34z"/>
				</g>
			</g>
		</g>
		<g>
			<g>
				<g>
					<path d="M224.69,119.144l-11.553-65.517c-0.29-1.645-1.202-3.077-2.569-4.034c-1.367-0.958-3.025-1.326-4.669-1.035
						l-25.179,4.438c-3.392,0.6-5.665,3.848-5.067,7.24l11.553,65.517c0.29,1.645,1.202,3.077,2.569,4.034
						c1.063,0.744,2.301,1.132,3.571,1.132c0.364,0,0.731-0.032,1.099-0.097l25.176-4.439c1.645-0.29,3.077-1.202,4.034-2.569
						S224.98,120.788,224.69,119.144z M218.753,121.459l-25.176,4.439c-0.446,0.082-0.775-0.096-0.934-0.207
						c-0.158-0.11-0.436-0.363-0.514-0.807l-11.553-65.517c-0.119-0.679,0.336-1.328,1.013-1.448l25.177-4.438
						c0.001,0,0.001,0,0.002,0c0.076-0.014,0.15-0.02,0.22-0.02c0.332,0,0.581,0.135,0.712,0.226
						c0.158,0.111,0.436,0.363,0.514,0.808l11.553,65.517C219.886,120.69,219.432,121.339,218.753,121.459z"/>
				</g>
			</g>
		</g>
		<g>
			<g>
				<path d="M51.563,68.194H20.563c-1.381,0-2.5,1.119-2.5,2.5s1.119,2.5,2.5,2.5h31.001c1.381,0,2.5-1.119,2.5-2.5
					S52.944,68.194,51.563,68.194z"/>
			</g>
		</g>
		<g>
			<g>
				<path d="M103.375,68.194h-31.25c-1.381,0-2.5,1.119-2.5,2.5s1.119,2.5,2.5,2.5h31.25c1.381,0,2.5-1.119,2.5-2.5
					S104.756,68.194,103.375,68.194z"/>
			</g>
		</g>
		<g>
			<g>
				<path d="M154.958,68.194h-31.207c-1.381,0-2.5,1.119-2.5,2.5s1.119,2.5,2.5,2.5h31.207c1.381,0,2.5-1.119,2.5-2.5
					S156.339,68.194,154.958,68.194z"/>
			</g>
		</g>
		<g>
			<g>
				<path d="M214.563,66.456c-0.24-1.359-1.532-2.268-2.896-2.027l-31.054,5.476c-1.359,0.239-2.268,1.536-2.027,2.896
					c0.214,1.213,1.269,2.065,2.459,2.065c0.145,0,0.29-0.012,0.438-0.038l31.054-5.476
					C213.896,69.113,214.804,67.816,214.563,66.456z"/>
			</g>
		</g>
	</g>
</g>
</svg>
