<?xml version="1.0" encoding="utf-8"?>
<!-- Generator: Adobe Illustrator 16.0.0, SVG Export Plug-In . SVG Version: 6.00 Build 0)  -->
<!DOCTYPE svg PUBLIC "-//W3C//DTD SVG 1.0//EN" "http://www.w3.org/TR/2001/REC-SVG-20010904/DTD/svg10.dtd">
<svg version="1.0" id="Layer_1" xmlns="http://www.w3.org/2000/svg" xmlns:xlink="http://www.w3.org/1999/xlink" x="0px" y="0px"
	 width="100px" height="100px" viewBox="0 0 100 100" enable-background="new 0 0 100 100" xml:space="preserve">
<path d="M39.997,66.667c0-1.843-1.491-3.334-3.334-3.334c-1.842,0-3.333,1.491-3.333,3.334l0.003,6.666
	c0,1.843,1.491,3.334,3.334,3.334c1.842,0,3.333-1.491,3.333-3.334L39.997,66.667z"/>
<path d="M63.333,47.708V33.333c0-3.682-2.984-6.667-6.666-6.667h-3.334C53.333,17.461,45.872,10,36.667,10
	C27.461,10,20,17.461,20,26.667h-3.333c-3.682,0-6.667,2.985-6.667,6.667v33.333c0,3.682,2.988,6.666,6.667,6.666H20
	C20,82.539,27.461,90,36.667,90c9.205,0,16.666-7.461,16.666-16.667h3.334c3.682,0,6.666-2.984,6.666-6.666v-4.682
	c8.217,3.415,17.221,5.322,26.664,5.322L90,58.753C80.352,58.753,70.693,55.071,63.333,47.708z M56.667,66.667h-10v6.666
	c0,5.515-4.486,10-10,10c-5.515,0-10-4.485-10-10v-6.666h-10V33.333h10v-6.667c0-5.514,4.485-10,10-10c5.514,0,10,4.486,10,10v6.667
	h10v9.102c-6.101-3.826-13.047-5.77-20-5.77c-5.524,0-10,4.477-10,10.001c0,5.523,4.476,10,10,10c6.953,0,13.662,1.048,20,2.955
	V66.667z M36.667,50c-1.836,0-3.334-1.497-3.334-3.333c0-1.837,1.498-3.333,3.334-3.333c8.294,0,16.094,3.229,21.953,9.088
	c0.403,0.407,0.813,0.801,1.23,1.188C52.363,51.211,44.593,50,36.667,50z"/>
</svg>
