<svg id="icons" xmlns="http://www.w3.org/2000/svg" viewBox="0 0 64 64"><defs><style>.cls-1{fill:none;stroke:#000;stroke-linecap:round;stroke-linejoin:round;}</style></defs><title>eggplant</title><g id="eggplant"><path class="cls-1" d="M46.906,17.32655c2.12054,30.6992-9.27007,39.31755-16.00133,41.72991a.67162.67162,0,0,1-.09727.03891,16.24634,16.24634,0,0,1-4.02708.88518C26.42039,60,26.22585,60,26.22585,60a12.02248,12.02248,0,0,1-6.73126-21.99332,31.33038,31.33038,0,0,0,14.017-20.826"/><path class="cls-1" d="M49.80473,17.025a8.76434,8.76434,0,0,1-7.14957-1.18676,7.67337,7.67337,0,0,1-2.8987-3.29755,7.67337,7.67337,0,0,1-2.8987,3.29755A8.75889,8.75889,0,0,1,29.70819,17.025a6.80345,6.80345,0,0,1,3.39486-5.68074,8.94059,8.94059,0,0,1,5.6418-1.45909,6.85261,6.85261,0,0,1,1.01161.15567,7.73224,7.73224,0,0,1,2.13027-.17515,9.06631,9.06631,0,0,1,4.5232,1.47857A6.8034,6.8034,0,0,1,49.80473,17.025Z"/><path class="cls-1" d="M44.21853,6.81993a7.29954,7.29954,0,0,0-2.3318,3.04577,7.73224,7.73224,0,0,0-2.13027.17515,6.85261,6.85261,0,0,0-1.01161-.15567,7.06493,7.06493,0,0,1,3.37809-5.73529.98874.98874,0,0,1,1.27038.18935l.94206,1.10195A.97175.97175,0,0,1,44.21853,6.81993Z"/><path class="cls-1" d="M41.88672,9.86575c-.00973.00972-.00973.00972-.00973.01945"/><path class="cls-1" d="M44.56887,21.86177a49.66026,49.66026,0,0,1,0,11.24208"/><path class="cls-1" d="M19.16231,41.49241s-3.16693,3.1455-1.70553,9.81464"/></g></svg>