<?xml version="1.0" encoding="utf-8"?>
<!-- Generator: Adobe Illustrator 21.1.0, SVG Export Plug-In . SVG Version: 6.00 Build 0)  -->
<svg version="1.1" id="Layer_1" xmlns="http://www.w3.org/2000/svg" xmlns:xlink="http://www.w3.org/1999/xlink" x="0px" y="0px"
	 viewBox="0 0 1000 1000" enable-background="new 0 0 1000 1000" xml:space="preserve">
<g>
	<g>
		<g>
			<g>
				<g>
					<linearGradient id="SVGID_1_" gradientUnits="userSpaceOnUse" x1="343.6779" y1="654.801" x2="659.783" y2="654.801">
						<stop  offset="1.862220e-02" style="stop-color:#9A8684"/>
						<stop  offset="0.4235" style="stop-color:#D3C5C6"/>
						<stop  offset="0.4999" style="stop-color:#DED1D3"/>
						<stop  offset="0.5991" style="stop-color:#D1C0C0"/>
						<stop  offset="0.7129" style="stop-color:#C7B4B1"/>
						<stop  offset="0.8064" style="stop-color:#C4AFAC"/>
						<stop  offset="0.8566" style="stop-color:#B8A19E"/>
						<stop  offset="0.9516" style="stop-color:#977E78"/>
						<stop  offset="0.9972" style="stop-color:#866B64"/>
					</linearGradient>
					<path fill="url(#SVGID_1_)" d="M501.7,496.7c0,87.3-70.8,158.1-158.1,158.1v0c87.3,0,158,70.8,158,158h0
						c0-87.3,70.8-158,158-158v0C572.5,654.8,501.7,584,501.7,496.7z"/>
				</g>
			</g>
		</g>
	</g>
	<g>
		<g>
			<g>
				<g>
					<linearGradient id="SVGID_2_" gradientUnits="userSpaceOnUse" x1="5" y1="498.665" x2="127.468" y2="498.665">
						<stop  offset="1.862220e-02" style="stop-color:#9A8684"/>
						<stop  offset="0.4235" style="stop-color:#D3C5C6"/>
						<stop  offset="0.4999" style="stop-color:#DED1D3"/>
						<stop  offset="0.5991" style="stop-color:#D1C0C0"/>
						<stop  offset="0.7129" style="stop-color:#C7B4B1"/>
						<stop  offset="0.8064" style="stop-color:#C4AFAC"/>
						<stop  offset="0.8566" style="stop-color:#B8A19E"/>
						<stop  offset="0.9516" style="stop-color:#977E78"/>
						<stop  offset="0.9972" style="stop-color:#866B64"/>
					</linearGradient>
					<path fill="url(#SVGID_2_)" d="M66.2,590.9c3.8,0,6.8-3,7-6.7c0-0.7,3.3-66.8,49-78.7c3.1-0.8,5.2-3.6,5.2-6.8
						c0-3.2-2.2-6-5.2-6.8c-45.5-11.9-49-78-49-78.7c-0.2-3.7-3.3-6.7-7-6.7c0,0,0,0,0,0c-3.8,0-6.8,3-7,6.7c0,0.7-3.3,66.8-49,78.7
						c-3.1,0.8-5.2,3.6-5.2,6.8c0,3.2,2.2,6,5.2,6.8c45.5,11.8,49,78,49,78.7C59.4,587.9,62.5,590.9,66.2,590.9
						C66.2,590.9,66.2,590.9,66.2,590.9z M66.2,449.9c5.8,17.6,16.5,37.4,35.9,48.7c-19.4,11.3-30.1,31.1-35.9,48.7
						c-5.8-17.6-16.5-37.4-35.9-48.7C49.7,487.4,60.4,467.6,66.2,449.9z"/>
				</g>
			</g>
		</g>
	</g>
	<g>
		<g>
			<g>
				<g>
					<linearGradient id="SVGID_3_" gradientUnits="userSpaceOnUse" x1="872.5329" y1="847.2999" x2="995" y2="847.2999">
						<stop  offset="1.862220e-02" style="stop-color:#9A8684"/>
						<stop  offset="0.4235" style="stop-color:#D3C5C6"/>
						<stop  offset="0.4999" style="stop-color:#DED1D3"/>
						<stop  offset="0.5991" style="stop-color:#D1C0C0"/>
						<stop  offset="0.7129" style="stop-color:#C7B4B1"/>
						<stop  offset="0.8064" style="stop-color:#C4AFAC"/>
						<stop  offset="0.8566" style="stop-color:#B8A19E"/>
						<stop  offset="0.9516" style="stop-color:#977E78"/>
						<stop  offset="0.9972" style="stop-color:#866B64"/>
					</linearGradient>
					<path fill="url(#SVGID_3_)" d="M933.8,939.5c3.8,0,6.8-3,7-6.7c0-0.7,3.3-66.8,49-78.7c3.1-0.8,5.2-3.6,5.2-6.8
						c0-3.2-2.2-6-5.2-6.8c-45.5-11.9-49-78-49-78.7c-0.2-3.7-3.3-6.7-7-6.7c0,0,0,0,0,0c-3.8,0-6.8,3-7,6.7c0,0.7-3.3,66.8-49,78.7
						c-3.1,0.8-5.2,3.6-5.2,6.8c0,3.2,2.2,6,5.2,6.8c45.5,11.8,49,78,49,78.7C926.9,936.5,930,939.5,933.8,939.5
						C933.8,939.5,933.8,939.5,933.8,939.5z M933.8,798.6c5.8,17.6,16.5,37.4,35.9,48.7c-19.4,11.3-30.1,31.1-35.9,48.7
						c-5.8-17.6-16.5-37.4-35.9-48.7C917.3,836,927.9,816.2,933.8,798.6z"/>
				</g>
			</g>
		</g>
	</g>
	<g>
		<g>
			<g>
				<g>
					<linearGradient id="SVGID_4_" gradientUnits="userSpaceOnUse" x1="574.1653" y1="152.7006" x2="696.6324" y2="152.7006">
						<stop  offset="1.862220e-02" style="stop-color:#9A8684"/>
						<stop  offset="0.4235" style="stop-color:#D3C5C6"/>
						<stop  offset="0.4999" style="stop-color:#DED1D3"/>
						<stop  offset="0.5991" style="stop-color:#D1C0C0"/>
						<stop  offset="0.7129" style="stop-color:#C7B4B1"/>
						<stop  offset="0.8064" style="stop-color:#C4AFAC"/>
						<stop  offset="0.8566" style="stop-color:#B8A19E"/>
						<stop  offset="0.9516" style="stop-color:#977E78"/>
						<stop  offset="0.9972" style="stop-color:#866B64"/>
					</linearGradient>
					<path fill="url(#SVGID_4_)" d="M635.4,244.9c3.8,0,6.8-3,7-6.7c0-0.7,3.3-66.8,49-78.7c3.1-0.8,5.2-3.6,5.2-6.8
						c0-3.2-2.2-6-5.2-6.8c-45.5-11.9-49-78-49-78.7c-0.2-3.7-3.3-6.7-7-6.7c0,0,0,0,0,0c-3.8,0-6.8,3-7,6.7c0,0.7-3.3,66.8-49,78.7
						c-3.1,0.8-5.2,3.6-5.2,6.8c0,3.2,2.2,6,5.2,6.8c45.5,11.8,49,78,49,78.7C628.6,241.9,631.6,244.9,635.4,244.9
						C635.4,244.9,635.4,244.9,635.4,244.9z M635.4,104c5.8,17.6,16.5,37.4,35.9,48.7c-19.4,11.3-30.1,31.1-35.9,48.7
						c-5.8-17.6-16.5-37.4-35.9-48.7C618.9,141.4,629.6,121.6,635.4,104z"/>
				</g>
			</g>
		</g>
	</g>
	<g>
		<g>
			<g>
				<g>
					<linearGradient id="SVGID_5_" gradientUnits="userSpaceOnUse" x1="854.4641" y1="453.4549" x2="893.7225" y2="453.4549">
						<stop  offset="1.862220e-02" style="stop-color:#9A8684"/>
						<stop  offset="0.4235" style="stop-color:#D3C5C6"/>
						<stop  offset="0.4999" style="stop-color:#DED1D3"/>
						<stop  offset="0.5991" style="stop-color:#D1C0C0"/>
						<stop  offset="0.7129" style="stop-color:#C7B4B1"/>
						<stop  offset="0.8064" style="stop-color:#C4AFAC"/>
						<stop  offset="0.8566" style="stop-color:#B8A19E"/>
						<stop  offset="0.9516" style="stop-color:#977E78"/>
						<stop  offset="0.9972" style="stop-color:#866B64"/>
					</linearGradient>
					<path fill="url(#SVGID_5_)" d="M893.6,453c-0.2,10.2-9.7,20-19.6,20.2c-9.5,0.3-19.5-10.1-19.6-20.2
						c-0.1-9.6,10.4-19.4,20.4-19.3C883.9,433.9,894.8,443.3,893.6,453z"/>
				</g>
			</g>
		</g>
	</g>
	<g>
		<g>
			<g>
				<g>
					<linearGradient id="SVGID_6_" gradientUnits="userSpaceOnUse" x1="224.3115" y1="274.4343" x2="263.5701" y2="274.4343">
						<stop  offset="1.862220e-02" style="stop-color:#9A8684"/>
						<stop  offset="0.4235" style="stop-color:#D3C5C6"/>
						<stop  offset="0.4999" style="stop-color:#DED1D3"/>
						<stop  offset="0.5991" style="stop-color:#D1C0C0"/>
						<stop  offset="0.7129" style="stop-color:#C7B4B1"/>
						<stop  offset="0.8064" style="stop-color:#C4AFAC"/>
						<stop  offset="0.8566" style="stop-color:#B8A19E"/>
						<stop  offset="0.9516" style="stop-color:#977E78"/>
						<stop  offset="0.9972" style="stop-color:#866B64"/>
					</linearGradient>
					<path fill="url(#SVGID_6_)" d="M263.5,273.9c-0.2,10.2-9.7,20-19.6,20.2c-9.5,0.3-19.5-10.1-19.6-20.2
						c-0.1-9.6,10.4-19.4,20.4-19.3C253.8,254.8,264.6,264.3,263.5,273.9z"/>
				</g>
			</g>
		</g>
	</g>
	<g>
		<g>
			<g>
				<g>
					<linearGradient id="SVGID_7_" gradientUnits="userSpaceOnUse" x1="203.8235" y1="878.7279" x2="243.0821" y2="878.7279">
						<stop  offset="1.862220e-02" style="stop-color:#9A8684"/>
						<stop  offset="0.4235" style="stop-color:#D3C5C6"/>
						<stop  offset="0.4999" style="stop-color:#DED1D3"/>
						<stop  offset="0.5991" style="stop-color:#D1C0C0"/>
						<stop  offset="0.7129" style="stop-color:#C7B4B1"/>
						<stop  offset="0.8064" style="stop-color:#C4AFAC"/>
						<stop  offset="0.8566" style="stop-color:#B8A19E"/>
						<stop  offset="0.9516" style="stop-color:#977E78"/>
						<stop  offset="0.9972" style="stop-color:#866B64"/>
					</linearGradient>
					<path fill="url(#SVGID_7_)" d="M243,878.2c-0.2,10.2-9.7,20-19.6,20.2c-9.5,0.3-19.5-10.1-19.6-20.2
						c-0.1-9.6,10.4-19.4,20.4-19.3C233.3,859.1,244.2,868.6,243,878.2z"/>
				</g>
			</g>
		</g>
	</g>
</g>
</svg>
