<?xml version="1.0" encoding="utf-8"?>
<!-- Generator: Adobe Illustrator 21.1.0, SVG Export Plug-In . SVG Version: 6.00 Build 0)  -->
<svg version="1.1" id="Layer_1" xmlns="http://www.w3.org/2000/svg" xmlns:xlink="http://www.w3.org/1999/xlink" x="0px" y="0px"
	 viewBox="0 0 1000 1000" enable-background="new 0 0 1000 1000" xml:space="preserve">
<g>
	<g>
		<g>
			<g>
				<g>
					<g>
						<linearGradient id="SVGID_1_" gradientUnits="userSpaceOnUse" x1="968.6501" y1="583.7664" x2="988.0057" y2="583.7664">
							<stop  offset="1.862220e-02" style="stop-color:#9A8684"/>
							<stop  offset="0.4235" style="stop-color:#D3C5C6"/>
							<stop  offset="0.4999" style="stop-color:#DED1D3"/>
							<stop  offset="0.5991" style="stop-color:#D1C0C0"/>
							<stop  offset="0.7129" style="stop-color:#C7B4B1"/>
							<stop  offset="0.8064" style="stop-color:#C4AFAC"/>
							<stop  offset="0.8566" style="stop-color:#B8A19E"/>
							<stop  offset="0.9516" style="stop-color:#977E78"/>
							<stop  offset="0.9972" style="stop-color:#866B64"/>
						</linearGradient>
						<path fill="url(#SVGID_1_)" d="M976.6,593.1c-4.9-1.1-8.7-6.6-7.8-11.2c0.8-4.5,6.4-8.4,11.4-7.6c4.6,0.7,8.8,6.7,7.7,11.6
							C986.8,590.3,981.1,594.6,976.6,593.1z"/>
					</g>
				</g>
			</g>
		</g>
		<g>
			<g>
				<g>
					<g>
						<linearGradient id="SVGID_2_" gradientUnits="userSpaceOnUse" x1="954.457" y1="639.5895" x2="973.5707" y2="639.5895">
							<stop  offset="1.862220e-02" style="stop-color:#9A8684"/>
							<stop  offset="0.4235" style="stop-color:#D3C5C6"/>
							<stop  offset="0.4999" style="stop-color:#DED1D3"/>
							<stop  offset="0.5991" style="stop-color:#D1C0C0"/>
							<stop  offset="0.7129" style="stop-color:#C7B4B1"/>
							<stop  offset="0.8064" style="stop-color:#C4AFAC"/>
							<stop  offset="0.8566" style="stop-color:#B8A19E"/>
							<stop  offset="0.9516" style="stop-color:#977E78"/>
							<stop  offset="0.9972" style="stop-color:#866B64"/>
						</linearGradient>
						<path fill="url(#SVGID_2_)" d="M961.3,648.6c-4.6-1.7-7.8-7.6-6.5-12.2c1.2-4.3,7.6-7.4,12.4-6c4.6,1.3,7.6,7.7,6,12.5
							C971.7,647.1,965.6,650.7,961.3,648.6z"/>
					</g>
				</g>
			</g>
		</g>
		<g>
			<g>
				<g>
					<g>
						<linearGradient id="SVGID_3_" gradientUnits="userSpaceOnUse" x1="933.2213" y1="693.0637" x2="952.2715" y2="693.0637">
							<stop  offset="1.862220e-02" style="stop-color:#9A8684"/>
							<stop  offset="0.4235" style="stop-color:#D3C5C6"/>
							<stop  offset="0.4999" style="stop-color:#DED1D3"/>
							<stop  offset="0.5991" style="stop-color:#D1C0C0"/>
							<stop  offset="0.7129" style="stop-color:#C7B4B1"/>
							<stop  offset="0.8064" style="stop-color:#C4AFAC"/>
							<stop  offset="0.8566" style="stop-color:#B8A19E"/>
							<stop  offset="0.9516" style="stop-color:#977E78"/>
							<stop  offset="0.9972" style="stop-color:#866B64"/>
						</linearGradient>
						<path fill="url(#SVGID_3_)" d="M938.7,701.5c-4.4-2.3-6.8-8.6-4.8-12.9c2-4.1,8.5-6.4,13-4.4c4.4,1.9,6.7,8.7,4.4,13.1
							C949.3,701.5,942.7,704.2,938.7,701.5z"/>
					</g>
				</g>
			</g>
		</g>
		<g>
			<g>
				<g>
					<g>
						<linearGradient id="SVGID_4_" gradientUnits="userSpaceOnUse" x1="905.3756" y1="743.3178" x2="924.1212" y2="743.3178">
							<stop  offset="1.862220e-02" style="stop-color:#9A8684"/>
							<stop  offset="0.4235" style="stop-color:#D3C5C6"/>
							<stop  offset="0.4999" style="stop-color:#DED1D3"/>
							<stop  offset="0.5991" style="stop-color:#D1C0C0"/>
							<stop  offset="0.7129" style="stop-color:#C7B4B1"/>
							<stop  offset="0.8064" style="stop-color:#C4AFAC"/>
							<stop  offset="0.8566" style="stop-color:#B8A19E"/>
							<stop  offset="0.9516" style="stop-color:#977E78"/>
							<stop  offset="0.9972" style="stop-color:#866B64"/>
						</linearGradient>
						<path fill="url(#SVGID_4_)" d="M909.6,751.2c-4.1-2.9-5.4-9.3-3-13.4c2.3-3.9,9.1-5.3,13.4-2.7c4.1,2.4,5.4,9.4,2.7,13.6
							C920.2,752.6,913.2,754.3,909.6,751.2z"/>
					</g>
				</g>
			</g>
		</g>
		<g>
			<g>
				<g>
					<g>
						<linearGradient id="SVGID_5_" gradientUnits="userSpaceOnUse" x1="871.1884" y1="789.587" x2="889.8681" y2="789.587">
							<stop  offset="1.862220e-02" style="stop-color:#9A8684"/>
							<stop  offset="0.4235" style="stop-color:#D3C5C6"/>
							<stop  offset="0.4999" style="stop-color:#DED1D3"/>
							<stop  offset="0.5991" style="stop-color:#D1C0C0"/>
							<stop  offset="0.7129" style="stop-color:#C7B4B1"/>
							<stop  offset="0.8064" style="stop-color:#C4AFAC"/>
							<stop  offset="0.8566" style="stop-color:#B8A19E"/>
							<stop  offset="0.9516" style="stop-color:#977E78"/>
							<stop  offset="0.9972" style="stop-color:#866B64"/>
						</linearGradient>
						<path fill="url(#SVGID_5_)" d="M874.5,796.8c-3.7-3.4-4.4-10.1-1.5-13.8c2.8-3.5,9.8-4,13.8-0.9c3.7,2.9,4.1,10,0.8,13.8
							C884.6,799.4,877.7,800.4,874.5,796.8z"/>
					</g>
				</g>
			</g>
		</g>
		<g>
			<g>
				<g>
					<g>
						<linearGradient id="SVGID_6_" gradientUnits="userSpaceOnUse" x1="831.3418" y1="831.0602" x2="850.0585" y2="831.0602">
							<stop  offset="1.862220e-02" style="stop-color:#9A8684"/>
							<stop  offset="0.4235" style="stop-color:#D3C5C6"/>
							<stop  offset="0.4999" style="stop-color:#DED1D3"/>
							<stop  offset="0.5991" style="stop-color:#D1C0C0"/>
							<stop  offset="0.7129" style="stop-color:#C7B4B1"/>
							<stop  offset="0.8064" style="stop-color:#C4AFAC"/>
							<stop  offset="0.8566" style="stop-color:#B8A19E"/>
							<stop  offset="0.9516" style="stop-color:#977E78"/>
							<stop  offset="0.9972" style="stop-color:#866B64"/>
						</linearGradient>
						<path fill="url(#SVGID_6_)" d="M833.6,837.5c-3.2-3.8-3-10.5,0.4-13.8c3.4-3,10.2-2.8,13.7,0.8c3.3,3.4,3,10.6-0.9,13.8
							C843.5,841.3,836.3,841.4,833.6,837.5z"/>
					</g>
				</g>
			</g>
		</g>
		<g>
			<g>
				<g>
					<g>
						<linearGradient id="SVGID_7_" gradientUnits="userSpaceOnUse" x1="786.5561" y1="867.1291" x2="805.2343" y2="867.1291">
							<stop  offset="1.862220e-02" style="stop-color:#9A8684"/>
							<stop  offset="0.4235" style="stop-color:#D3C5C6"/>
							<stop  offset="0.4999" style="stop-color:#DED1D3"/>
							<stop  offset="0.5991" style="stop-color:#D1C0C0"/>
							<stop  offset="0.7129" style="stop-color:#C7B4B1"/>
							<stop  offset="0.8064" style="stop-color:#C4AFAC"/>
							<stop  offset="0.8566" style="stop-color:#B8A19E"/>
							<stop  offset="0.9516" style="stop-color:#977E78"/>
							<stop  offset="0.9972" style="stop-color:#866B64"/>
						</linearGradient>
						<path fill="url(#SVGID_7_)" d="M788.1,872.6c-2.7-4.3-1.6-10.6,2.2-13.6c3.6-2.8,10.4-1.5,13.5,2.5c2.9,3.8,1.5,10.8-2.6,13.7
							C797.4,877.9,790.2,876.9,788.1,872.6z"/>
					</g>
				</g>
			</g>
		</g>
		<g>
			<g>
				<g>
					<g>
						<linearGradient id="SVGID_8_" gradientUnits="userSpaceOnUse" x1="737.5107" y1="897.1838" x2="756.2849" y2="897.1838">
							<stop  offset="1.862220e-02" style="stop-color:#9A8684"/>
							<stop  offset="0.4235" style="stop-color:#D3C5C6"/>
							<stop  offset="0.4999" style="stop-color:#DED1D3"/>
							<stop  offset="0.5991" style="stop-color:#D1C0C0"/>
							<stop  offset="0.7129" style="stop-color:#C7B4B1"/>
							<stop  offset="0.8064" style="stop-color:#C4AFAC"/>
							<stop  offset="0.8566" style="stop-color:#B8A19E"/>
							<stop  offset="0.9516" style="stop-color:#977E78"/>
							<stop  offset="0.9972" style="stop-color:#866B64"/>
						</linearGradient>
						<path fill="url(#SVGID_8_)" d="M738.4,901.8c-2.2-4.5-0.3-11,3.8-13.3c3.9-2.2,10.6,0,13.1,4.3c2.4,4.1,0.1,10.8-4.4,13.1
							C746.9,908,740,906.3,738.4,901.8z"/>
					</g>
				</g>
			</g>
		</g>
		<g>
			<g>
				<g>
					<g>
						<linearGradient id="SVGID_9_" gradientUnits="userSpaceOnUse" x1="684.9188" y1="920.7842" x2="703.85" y2="920.7842">
							<stop  offset="1.862220e-02" style="stop-color:#9A8684"/>
							<stop  offset="0.4235" style="stop-color:#D3C5C6"/>
							<stop  offset="0.4999" style="stop-color:#DED1D3"/>
							<stop  offset="0.5991" style="stop-color:#D1C0C0"/>
							<stop  offset="0.7129" style="stop-color:#C7B4B1"/>
							<stop  offset="0.8064" style="stop-color:#C4AFAC"/>
							<stop  offset="0.8566" style="stop-color:#B8A19E"/>
							<stop  offset="0.9516" style="stop-color:#977E78"/>
							<stop  offset="0.9972" style="stop-color:#866B64"/>
						</linearGradient>
						<path fill="url(#SVGID_9_)" d="M685.4,924.2c-1.6-4.8,1.1-10.9,5.5-12.6c4.2-1.6,10.5,1.2,12.4,5.9c1.8,4.4-1.2,11-6,12.5
							C693,931.5,686.4,928.9,685.4,924.2z"/>
					</g>
				</g>
			</g>
		</g>
		<g>
			<g>
				<g>
					<g>
						<linearGradient id="SVGID_10_" gradientUnits="userSpaceOnUse" x1="629.7623" y1="937.4382" x2="648.8021" y2="937.4382">
							<stop  offset="1.862220e-02" style="stop-color:#9A8684"/>
							<stop  offset="0.4235" style="stop-color:#D3C5C6"/>
							<stop  offset="0.4999" style="stop-color:#DED1D3"/>
							<stop  offset="0.5991" style="stop-color:#D1C0C0"/>
							<stop  offset="0.7129" style="stop-color:#C7B4B1"/>
							<stop  offset="0.8064" style="stop-color:#C4AFAC"/>
							<stop  offset="0.8566" style="stop-color:#B8A19E"/>
							<stop  offset="0.9516" style="stop-color:#977E78"/>
							<stop  offset="0.9972" style="stop-color:#866B64"/>
						</linearGradient>
						<path fill="url(#SVGID_10_)" d="M629.9,939.7c-0.9-5,2.6-10.4,7.1-11.8c4.4-1.2,10.2,2.5,11.5,7.4c1.2,4.6-2.6,10.5-7.5,11.7
							C636.6,948.1,630.3,944.4,629.9,939.7z"/>
					</g>
				</g>
			</g>
		</g>
		<g>
			<g>
				<g>
					<g>
						<linearGradient id="SVGID_11_" gradientUnits="userSpaceOnUse" x1="572.9168" y1="946.7786" x2="592.0659" y2="946.7786">
							<stop  offset="1.862220e-02" style="stop-color:#9A8684"/>
							<stop  offset="0.4235" style="stop-color:#D3C5C6"/>
							<stop  offset="0.4999" style="stop-color:#DED1D3"/>
							<stop  offset="0.5991" style="stop-color:#D1C0C0"/>
							<stop  offset="0.7129" style="stop-color:#C7B4B1"/>
							<stop  offset="0.8064" style="stop-color:#C4AFAC"/>
							<stop  offset="0.8566" style="stop-color:#B8A19E"/>
							<stop  offset="0.9516" style="stop-color:#977E78"/>
							<stop  offset="0.9972" style="stop-color:#866B64"/>
						</linearGradient>
						<path fill="url(#SVGID_11_)" d="M572.9,947.9c-0.3-5,3.8-10.3,8.6-10.9c4.5-0.6,9.9,4,10.5,9c0.6,4.7-4,10-9,10.4
							C578.5,956.9,572.7,952.7,572.9,947.9z"/>
					</g>
				</g>
			</g>
		</g>
		<g>
			<g>
				<g>
					<g>
						<linearGradient id="SVGID_12_" gradientUnits="userSpaceOnUse" x1="515.2726" y1="948.9538" x2="534.5125" y2="948.9538">
							<stop  offset="1.862220e-02" style="stop-color:#9A8684"/>
							<stop  offset="0.4235" style="stop-color:#D3C5C6"/>
							<stop  offset="0.4999" style="stop-color:#DED1D3"/>
							<stop  offset="0.5991" style="stop-color:#D1C0C0"/>
							<stop  offset="0.7129" style="stop-color:#C7B4B1"/>
							<stop  offset="0.8064" style="stop-color:#C4AFAC"/>
							<stop  offset="0.8566" style="stop-color:#B8A19E"/>
							<stop  offset="0.9516" style="stop-color:#977E78"/>
							<stop  offset="0.9972" style="stop-color:#866B64"/>
						</linearGradient>
						<path fill="url(#SVGID_12_)" d="M515.4,948.7c0.4-5,5.1-9.5,9.9-9.5c4.5-0.1,9.3,5,9.3,10c0,4.7-5.2,9.6-10.3,9.5
							C519.7,958.4,514.5,953.4,515.4,948.7z"/>
					</g>
				</g>
			</g>
		</g>
		<g>
			<g>
				<g>
					<g>
						<linearGradient id="SVGID_13_" gradientUnits="userSpaceOnUse" x1="457.8688" y1="943.6027" x2="477.1258" y2="943.6027">
							<stop  offset="1.862220e-02" style="stop-color:#9A8684"/>
							<stop  offset="0.4235" style="stop-color:#D3C5C6"/>
							<stop  offset="0.4999" style="stop-color:#DED1D3"/>
							<stop  offset="0.5991" style="stop-color:#D1C0C0"/>
							<stop  offset="0.7129" style="stop-color:#C7B4B1"/>
							<stop  offset="0.8064" style="stop-color:#C4AFAC"/>
							<stop  offset="0.8566" style="stop-color:#B8A19E"/>
							<stop  offset="0.9516" style="stop-color:#977E78"/>
							<stop  offset="0.9972" style="stop-color:#866B64"/>
						</linearGradient>
						<path fill="url(#SVGID_13_)" d="M458.1,942.4c1-4.9,6.3-9,11-8.4c4.5,0.6,8.5,6.4,7.9,11.3c-0.6,4.7-6.4,8.7-11.3,7.8
							C461.2,952.4,456.7,946.9,458.1,942.4z"/>
					</g>
				</g>
			</g>
		</g>
		<g>
			<g>
				<g>
					<g>
						<linearGradient id="SVGID_14_" gradientUnits="userSpaceOnUse" x1="401.6718" y1="931.2393" x2="420.8822" y2="931.2393">
							<stop  offset="1.862220e-02" style="stop-color:#9A8684"/>
							<stop  offset="0.4235" style="stop-color:#D3C5C6"/>
							<stop  offset="0.4999" style="stop-color:#DED1D3"/>
							<stop  offset="0.5991" style="stop-color:#D1C0C0"/>
							<stop  offset="0.7129" style="stop-color:#C7B4B1"/>
							<stop  offset="0.8064" style="stop-color:#C4AFAC"/>
							<stop  offset="0.8566" style="stop-color:#B8A19E"/>
							<stop  offset="0.9516" style="stop-color:#977E78"/>
							<stop  offset="0.9972" style="stop-color:#866B64"/>
						</linearGradient>
						<path fill="url(#SVGID_14_)" d="M402.2,928.6c1.6-4.8,7.4-8,11.9-6.7c4.4,1,7.7,7.2,6.5,12c-1.2,4.6-7.5,8-12.3,6.6
							C404,939.1,400.2,933,402.2,928.6z"/>
					</g>
				</g>
			</g>
		</g>
		<g>
			<g>
				<g>
					<g>
						<linearGradient id="SVGID_15_" gradientUnits="userSpaceOnUse" x1="347.5159" y1="911.6074" x2="366.676" y2="911.6074">
							<stop  offset="1.862220e-02" style="stop-color:#9A8684"/>
							<stop  offset="0.4235" style="stop-color:#D3C5C6"/>
							<stop  offset="0.4999" style="stop-color:#DED1D3"/>
							<stop  offset="0.5991" style="stop-color:#D1C0C0"/>
							<stop  offset="0.7129" style="stop-color:#C7B4B1"/>
							<stop  offset="0.8064" style="stop-color:#C4AFAC"/>
							<stop  offset="0.8566" style="stop-color:#B8A19E"/>
							<stop  offset="0.9516" style="stop-color:#977E78"/>
							<stop  offset="0.9972" style="stop-color:#866B64"/>
						</linearGradient>
						<path fill="url(#SVGID_15_)" d="M348.5,908c2.2-4.5,8.4-7.1,12.8-5.3c4.2,1.7,6.6,8.3,4.8,12.9c-1.8,4.4-8.4,6.8-13,4.8
							C348.9,918.5,345.9,912.1,348.5,908z"/>
					</g>
				</g>
			</g>
		</g>
		<g>
			<g>
				<g>
					<g>
						<linearGradient id="SVGID_16_" gradientUnits="userSpaceOnUse" x1="296.4631" y1="885.278" x2="315.4643" y2="885.278">
							<stop  offset="1.862220e-02" style="stop-color:#9A8684"/>
							<stop  offset="0.4235" style="stop-color:#D3C5C6"/>
							<stop  offset="0.4999" style="stop-color:#DED1D3"/>
							<stop  offset="0.5991" style="stop-color:#D1C0C0"/>
							<stop  offset="0.7129" style="stop-color:#C7B4B1"/>
							<stop  offset="0.8064" style="stop-color:#C4AFAC"/>
							<stop  offset="0.8566" style="stop-color:#B8A19E"/>
							<stop  offset="0.9516" style="stop-color:#977E78"/>
							<stop  offset="0.9972" style="stop-color:#866B64"/>
						</linearGradient>
						<path fill="url(#SVGID_16_)" d="M297.9,880.4c2.8-4.2,9.2-5.9,13.3-3.5c3.9,2.4,5.6,9,3.1,13.4c-2.3,4.1-9.3,5.9-13.5,3.1
							C297,890.9,294.9,884.1,297.9,880.4z"/>
					</g>
				</g>
			</g>
		</g>
		<g>
			<g>
				<g>
					<g>
						<linearGradient id="SVGID_17_" gradientUnits="userSpaceOnUse" x1="249.1578" y1="852.5609" x2="268.1514" y2="852.5609">
							<stop  offset="1.862220e-02" style="stop-color:#9A8684"/>
							<stop  offset="0.4235" style="stop-color:#D3C5C6"/>
							<stop  offset="0.4999" style="stop-color:#DED1D3"/>
							<stop  offset="0.5991" style="stop-color:#D1C0C0"/>
							<stop  offset="0.7129" style="stop-color:#C7B4B1"/>
							<stop  offset="0.8064" style="stop-color:#C4AFAC"/>
							<stop  offset="0.8566" style="stop-color:#B8A19E"/>
							<stop  offset="0.9516" style="stop-color:#977E78"/>
							<stop  offset="0.9972" style="stop-color:#866B64"/>
						</linearGradient>
						<path fill="url(#SVGID_17_)" d="M251.3,846.7c3.3-3.8,9.7-4.5,13.6-1.8c3.7,2.6,4.4,9.6,1.4,13.6c-2.8,3.8-9.9,4.5-13.8,1.4
							C248.9,857.1,247.8,849.9,251.3,846.7z"/>
					</g>
				</g>
			</g>
		</g>
		<g>
			<g>
				<g>
					<g>
						<linearGradient id="SVGID_18_" gradientUnits="userSpaceOnUse" x1="206.402" y1="814.0811" x2="225.3964" y2="814.0811">
							<stop  offset="1.862220e-02" style="stop-color:#9A8684"/>
							<stop  offset="0.4235" style="stop-color:#D3C5C6"/>
							<stop  offset="0.4999" style="stop-color:#DED1D3"/>
							<stop  offset="0.5991" style="stop-color:#D1C0C0"/>
							<stop  offset="0.7129" style="stop-color:#C7B4B1"/>
							<stop  offset="0.8064" style="stop-color:#C4AFAC"/>
							<stop  offset="0.8566" style="stop-color:#B8A19E"/>
							<stop  offset="0.9516" style="stop-color:#977E78"/>
							<stop  offset="0.9972" style="stop-color:#866B64"/>
						</linearGradient>
						<path fill="url(#SVGID_18_)" d="M209.2,807.3c3.7-3.4,10.4-3.4,13.9-0.1c3.3,3.1,3,10.2-0.4,13.8c-3.3,3.4-10.3,3.2-13.8-0.5
							C205.7,817.2,205.3,810.1,209.2,807.3z"/>
					</g>
				</g>
			</g>
		</g>
		<g>
			<g>
				<g>
					<g>
						<linearGradient id="SVGID_19_" gradientUnits="userSpaceOnUse" x1="168.9471" y1="770.4581" x2="187.8899" y2="770.4581">
							<stop  offset="1.862220e-02" style="stop-color:#9A8684"/>
							<stop  offset="0.4235" style="stop-color:#D3C5C6"/>
							<stop  offset="0.4999" style="stop-color:#DED1D3"/>
							<stop  offset="0.5991" style="stop-color:#D1C0C0"/>
							<stop  offset="0.7129" style="stop-color:#C7B4B1"/>
							<stop  offset="0.8064" style="stop-color:#C4AFAC"/>
							<stop  offset="0.8566" style="stop-color:#B8A19E"/>
							<stop  offset="0.9516" style="stop-color:#977E78"/>
							<stop  offset="0.9972" style="stop-color:#866B64"/>
						</linearGradient>
						<path fill="url(#SVGID_19_)" d="M172.7,762.8c4.1-2.9,10.7-2,13.6,1.7c2.7,3.6,1.8,10.4-2.1,13.6c-3.7,3-10.8,2-13.7-2.2
							C167.9,772.2,168.5,765.1,172.7,762.8z"/>
					</g>
				</g>
			</g>
		</g>
		<g>
			<g>
				<g>
					<g>
						<linearGradient id="SVGID_20_" gradientUnits="userSpaceOnUse" x1="137.1932" y1="722.4027" x2="156.3856" y2="722.4027">
							<stop  offset="1.862220e-02" style="stop-color:#9A8684"/>
							<stop  offset="0.4235" style="stop-color:#D3C5C6"/>
							<stop  offset="0.4999" style="stop-color:#DED1D3"/>
							<stop  offset="0.5991" style="stop-color:#D1C0C0"/>
							<stop  offset="0.7129" style="stop-color:#C7B4B1"/>
							<stop  offset="0.8064" style="stop-color:#C4AFAC"/>
							<stop  offset="0.8566" style="stop-color:#B8A19E"/>
							<stop  offset="0.9516" style="stop-color:#977E78"/>
							<stop  offset="0.9972" style="stop-color:#866B64"/>
						</linearGradient>
						<path fill="url(#SVGID_20_)" d="M142,714.1c4.5-2.3,10.7-0.5,13.3,3.5c2.4,3.8,0.5,10.5-3.8,13.2c-4,2.5-10.9,0.5-13.4-3.9
							C135.9,722.9,137.6,715.8,142,714.1z"/>
					</g>
				</g>
			</g>
		</g>
		<g>
			<g>
				<g>
					<g>
						<linearGradient id="SVGID_21_" gradientUnits="userSpaceOnUse" x1="111.9398" y1="670.7352" x2="131.2359" y2="670.7352">
							<stop  offset="1.862220e-02" style="stop-color:#9A8684"/>
							<stop  offset="0.4235" style="stop-color:#D3C5C6"/>
							<stop  offset="0.4999" style="stop-color:#DED1D3"/>
							<stop  offset="0.5991" style="stop-color:#D1C0C0"/>
							<stop  offset="0.7129" style="stop-color:#C7B4B1"/>
							<stop  offset="0.8064" style="stop-color:#C4AFAC"/>
							<stop  offset="0.8566" style="stop-color:#B8A19E"/>
							<stop  offset="0.9516" style="stop-color:#977E78"/>
							<stop  offset="0.9972" style="stop-color:#866B64"/>
						</linearGradient>
						<path fill="url(#SVGID_21_)" d="M117.8,661.8c4.7-1.7,11,0.7,12.9,5.1c1.9,4.1-1,10.6-5.6,12.6c-4.3,2-10.8-0.9-12.6-5.6
							C110.8,669.7,113.1,663,117.8,661.8z"/>
					</g>
				</g>
			</g>
		</g>
		<g>
			<g>
				<g>
					<g>
						<linearGradient id="SVGID_22_" gradientUnits="userSpaceOnUse" x1="93.4674" y1="616.1795" x2="112.8034" y2="616.1795">
							<stop  offset="1.862220e-02" style="stop-color:#9A8684"/>
							<stop  offset="0.4235" style="stop-color:#D3C5C6"/>
							<stop  offset="0.4999" style="stop-color:#DED1D3"/>
							<stop  offset="0.5991" style="stop-color:#D1C0C0"/>
							<stop  offset="0.7129" style="stop-color:#C7B4B1"/>
							<stop  offset="0.8064" style="stop-color:#C4AFAC"/>
							<stop  offset="0.8566" style="stop-color:#B8A19E"/>
							<stop  offset="0.9516" style="stop-color:#977E78"/>
							<stop  offset="0.9972" style="stop-color:#866B64"/>
						</linearGradient>
						<path fill="url(#SVGID_22_)" d="M100.6,606.9c4.9-1.1,10.7,2.2,12,6.7c1.1,4.4-2.2,10.3-7,11.8c-4.5,1.4-10.8-2.2-11.9-7.2
							C92.6,613.8,95.8,607.4,100.6,606.9z"/>
					</g>
				</g>
			</g>
		</g>
		<g>
			<g>
				<g>
					<g>
						<linearGradient id="SVGID_23_" gradientUnits="userSpaceOnUse" x1="82.14" y1="559.7181" x2="101.6799" y2="559.7181">
							<stop  offset="1.862220e-02" style="stop-color:#9A8684"/>
							<stop  offset="0.4235" style="stop-color:#D3C5C6"/>
							<stop  offset="0.4999" style="stop-color:#DED1D3"/>
							<stop  offset="0.5991" style="stop-color:#D1C0C0"/>
							<stop  offset="0.7129" style="stop-color:#C7B4B1"/>
							<stop  offset="0.8064" style="stop-color:#C4AFAC"/>
							<stop  offset="0.8566" style="stop-color:#B8A19E"/>
							<stop  offset="0.9516" style="stop-color:#977E78"/>
							<stop  offset="0.9972" style="stop-color:#866B64"/>
						</linearGradient>
						<path fill="url(#SVGID_23_)" d="M90.5,550.2c5-0.5,10.1,3.5,11.1,8.2c0.8,4.5-3.5,10-8.5,10.8c-4.7,0.8-10.2-3.7-10.9-8.6
							C81.5,556,85.8,550.1,90.5,550.2z"/>
					</g>
				</g>
			</g>
		</g>
		<g>
			<g>
				<g>
					<g>
						<linearGradient id="SVGID_24_" gradientUnits="userSpaceOnUse" x1="78.3123" y1="502.2334" x2="97.7939" y2="502.2334">
							<stop  offset="1.862220e-02" style="stop-color:#9A8684"/>
							<stop  offset="0.4235" style="stop-color:#D3C5C6"/>
							<stop  offset="0.4999" style="stop-color:#DED1D3"/>
							<stop  offset="0.5991" style="stop-color:#D1C0C0"/>
							<stop  offset="0.7129" style="stop-color:#C7B4B1"/>
							<stop  offset="0.8064" style="stop-color:#C4AFAC"/>
							<stop  offset="0.8566" style="stop-color:#B8A19E"/>
							<stop  offset="0.9516" style="stop-color:#977E78"/>
							<stop  offset="0.9972" style="stop-color:#866B64"/>
						</linearGradient>
						<path fill="url(#SVGID_24_)" d="M87.9,492.7c5,0.2,9.8,4.8,9.9,9.6c0.1,4.5-5,9.4-9.9,9.6c-4.8,0.2-9.7-4.9-9.6-9.9
							C78.4,497.3,83.1,492,87.9,492.7z"/>
					</g>
				</g>
			</g>
		</g>
		<g>
			<g>
				<g>
					<g>
						<linearGradient id="SVGID_25_" gradientUnits="userSpaceOnUse" x1="81.742" y1="444.712" x2="101.1031" y2="444.712">
							<stop  offset="1.862220e-02" style="stop-color:#9A8684"/>
							<stop  offset="0.4235" style="stop-color:#D3C5C6"/>
							<stop  offset="0.4999" style="stop-color:#DED1D3"/>
							<stop  offset="0.5991" style="stop-color:#D1C0C0"/>
							<stop  offset="0.7129" style="stop-color:#C7B4B1"/>
							<stop  offset="0.8064" style="stop-color:#C4AFAC"/>
							<stop  offset="0.8566" style="stop-color:#B8A19E"/>
							<stop  offset="0.9516" style="stop-color:#977E78"/>
							<stop  offset="0.9972" style="stop-color:#866B64"/>
						</linearGradient>
						<path fill="url(#SVGID_25_)" d="M92.5,435.3c5,0.8,8.9,6,8.6,10.7c-0.3,4.5-5.9,8.7-10.9,8.3c-4.7-0.4-9-6.1-8.4-11.1
							C82.2,438.7,87.9,434,92.5,435.3z"/>
					</g>
				</g>
			</g>
		</g>
		<g>
			<g>
				<g>
					<g>
						<linearGradient id="SVGID_26_" gradientUnits="userSpaceOnUse" x1="92.4872" y1="388.0825" x2="111.7538" y2="388.0825">
							<stop  offset="1.862220e-02" style="stop-color:#9A8684"/>
							<stop  offset="0.4235" style="stop-color:#D3C5C6"/>
							<stop  offset="0.4999" style="stop-color:#DED1D3"/>
							<stop  offset="0.5991" style="stop-color:#D1C0C0"/>
							<stop  offset="0.7129" style="stop-color:#C7B4B1"/>
							<stop  offset="0.8064" style="stop-color:#C4AFAC"/>
							<stop  offset="0.8566" style="stop-color:#B8A19E"/>
							<stop  offset="0.9516" style="stop-color:#977E78"/>
							<stop  offset="0.9972" style="stop-color:#866B64"/>
						</linearGradient>
						<path fill="url(#SVGID_26_)" d="M104.3,378.9c4.8,1.5,8.3,7.1,7.2,11.8c-1,4.4-7.2,7.9-12,6.8c-4.7-1-8.1-7.2-6.7-12
							C94,381.1,99.9,377.1,104.3,378.9z"/>
					</g>
				</g>
			</g>
		</g>
		<g>
			<g>
				<g>
					<g>
						<linearGradient id="SVGID_27_" gradientUnits="userSpaceOnUse" x1="110.3575" y1="333.3459" x2="129.3854" y2="333.3459">
							<stop  offset="1.862220e-02" style="stop-color:#9A8684"/>
							<stop  offset="0.4235" style="stop-color:#D3C5C6"/>
							<stop  offset="0.4999" style="stop-color:#DED1D3"/>
							<stop  offset="0.5991" style="stop-color:#D1C0C0"/>
							<stop  offset="0.7129" style="stop-color:#C7B4B1"/>
							<stop  offset="0.8064" style="stop-color:#C4AFAC"/>
							<stop  offset="0.8566" style="stop-color:#B8A19E"/>
							<stop  offset="0.9516" style="stop-color:#977E78"/>
							<stop  offset="0.9972" style="stop-color:#866B64"/>
						</linearGradient>
						<path fill="url(#SVGID_27_)" d="M123.4,324.6c4.6,2.1,7.2,8.1,5.5,12.5c-1.5,4.3-7.9,7-12.6,5.3c-4.5-1.6-7.2-8.2-5.3-12.9
							C112.7,325.3,119.2,322.2,123.4,324.6z"/>
					</g>
				</g>
			</g>
		</g>
		<g>
			<g>
				<g>
					<g>
						<linearGradient id="SVGID_28_" gradientUnits="userSpaceOnUse" x1="135.1894" y1="281.3274" x2="154.0492" y2="281.3274">
							<stop  offset="1.862220e-02" style="stop-color:#9A8684"/>
							<stop  offset="0.4235" style="stop-color:#D3C5C6"/>
							<stop  offset="0.4999" style="stop-color:#DED1D3"/>
							<stop  offset="0.5991" style="stop-color:#D1C0C0"/>
							<stop  offset="0.7129" style="stop-color:#C7B4B1"/>
							<stop  offset="0.8064" style="stop-color:#C4AFAC"/>
							<stop  offset="0.8566" style="stop-color:#B8A19E"/>
							<stop  offset="0.9516" style="stop-color:#977E78"/>
							<stop  offset="0.9972" style="stop-color:#866B64"/>
						</linearGradient>
						<path fill="url(#SVGID_28_)" d="M149.1,273.1c4.3,2.6,6.2,9,4.1,13.3c-2.1,4-8.9,5.8-13.3,3.5c-4.2-2.2-6-9-3.5-13.4
							C138.6,272.5,145.3,270.2,149.1,273.1z"/>
					</g>
				</g>
			</g>
		</g>
		<g>
			<g>
				<g>
					<g>
						<linearGradient id="SVGID_29_" gradientUnits="userSpaceOnUse" x1="166.354" y1="232.9973" x2="185.1767" y2="232.9973">
							<stop  offset="1.862220e-02" style="stop-color:#9A8684"/>
							<stop  offset="0.4235" style="stop-color:#D3C5C6"/>
							<stop  offset="0.4999" style="stop-color:#DED1D3"/>
							<stop  offset="0.5991" style="stop-color:#D1C0C0"/>
							<stop  offset="0.7129" style="stop-color:#C7B4B1"/>
							<stop  offset="0.8064" style="stop-color:#C4AFAC"/>
							<stop  offset="0.8566" style="stop-color:#B8A19E"/>
							<stop  offset="0.9516" style="stop-color:#977E78"/>
							<stop  offset="0.9972" style="stop-color:#866B64"/>
						</linearGradient>
						<path fill="url(#SVGID_29_)" d="M181.4,225.4c3.9,3.2,5,9.7,2.2,13.6c-2.7,3.6-9.5,4.7-13.6,1.8c-3.9-2.7-5-9.8-1.8-13.7
							C171,223.5,178,222.1,181.4,225.4z"/>
					</g>
				</g>
			</g>
		</g>
		<g>
			<g>
				<g>
					<g>
						<linearGradient id="SVGID_30_" gradientUnits="userSpaceOnUse" x1="203.5632" y1="189.057" x2="222.1893" y2="189.057">
							<stop  offset="1.862220e-02" style="stop-color:#9A8684"/>
							<stop  offset="0.4235" style="stop-color:#D3C5C6"/>
							<stop  offset="0.4999" style="stop-color:#DED1D3"/>
							<stop  offset="0.5991" style="stop-color:#D1C0C0"/>
							<stop  offset="0.7129" style="stop-color:#C7B4B1"/>
							<stop  offset="0.8064" style="stop-color:#C4AFAC"/>
							<stop  offset="0.8566" style="stop-color:#B8A19E"/>
							<stop  offset="0.9516" style="stop-color:#977E78"/>
							<stop  offset="0.9972" style="stop-color:#866B64"/>
						</linearGradient>
						<path fill="url(#SVGID_30_)" d="M219.5,182.2c3.5,3.7,3.6,10.1,0.4,13.7c-3,3.4-10,3.5-13.7,0.1c-3.5-3.2-3.5-10.3-0.1-13.9
							C209.3,178.9,216.6,178.5,219.5,182.2z"/>
					</g>
				</g>
			</g>
		</g>
		<g>
			<g>
				<g>
					<g>
						<linearGradient id="SVGID_31_" gradientUnits="userSpaceOnUse" x1="245.9306" y1="150.1956" x2="264.5807" y2="150.1956">
							<stop  offset="1.862220e-02" style="stop-color:#9A8684"/>
							<stop  offset="0.4235" style="stop-color:#D3C5C6"/>
							<stop  offset="0.4999" style="stop-color:#DED1D3"/>
							<stop  offset="0.5991" style="stop-color:#D1C0C0"/>
							<stop  offset="0.7129" style="stop-color:#C7B4B1"/>
							<stop  offset="0.8064" style="stop-color:#C4AFAC"/>
							<stop  offset="0.8566" style="stop-color:#B8A19E"/>
							<stop  offset="0.9516" style="stop-color:#977E78"/>
							<stop  offset="0.9972" style="stop-color:#866B64"/>
						</linearGradient>
						<path fill="url(#SVGID_31_)" d="M262.7,144.1c3,4,2.4,10.7-1.2,13.8c-3.4,2.9-10.4,2.1-13.7-1.7c-3.1-3.6-2.2-10.6,1.8-13.7
							C253.2,139.7,260.2,140,262.7,144.1z"/>
					</g>
				</g>
			</g>
		</g>
		<g>
			<g>
				<g>
					<g>
						<linearGradient id="SVGID_32_" gradientUnits="userSpaceOnUse" x1="292.8892" y1="117.0439" x2="311.66" y2="117.0439">
							<stop  offset="1.862220e-02" style="stop-color:#9A8684"/>
							<stop  offset="0.4235" style="stop-color:#D3C5C6"/>
							<stop  offset="0.4999" style="stop-color:#DED1D3"/>
							<stop  offset="0.5991" style="stop-color:#D1C0C0"/>
							<stop  offset="0.7129" style="stop-color:#C7B4B1"/>
							<stop  offset="0.8064" style="stop-color:#C4AFAC"/>
							<stop  offset="0.8566" style="stop-color:#B8A19E"/>
							<stop  offset="0.9516" style="stop-color:#977E78"/>
							<stop  offset="0.9972" style="stop-color:#866B64"/>
						</linearGradient>
						<path fill="url(#SVGID_32_)" d="M310.5,112c2.4,4.4,1,10.9-3,13.4c-3.9,2.3-10.5,0.8-13.3-3.4c-2.6-4-0.9-11,3.5-13.4
							C301.6,106.4,308.6,107.6,310.5,112z"/>
					</g>
				</g>
			</g>
		</g>
		<g>
			<g>
				<g>
					<g>
						<linearGradient id="SVGID_33_" gradientUnits="userSpaceOnUse" x1="343.7242" y1="90.1518" x2="362.571" y2="90.1518">
							<stop  offset="1.862220e-02" style="stop-color:#9A8684"/>
							<stop  offset="0.4235" style="stop-color:#D3C5C6"/>
							<stop  offset="0.4999" style="stop-color:#DED1D3"/>
							<stop  offset="0.5991" style="stop-color:#D1C0C0"/>
							<stop  offset="0.7129" style="stop-color:#C7B4B1"/>
							<stop  offset="0.8064" style="stop-color:#C4AFAC"/>
							<stop  offset="0.8566" style="stop-color:#B8A19E"/>
							<stop  offset="0.9516" style="stop-color:#977E78"/>
							<stop  offset="0.9972" style="stop-color:#866B64"/>
						</linearGradient>
						<path fill="url(#SVGID_33_)" d="M361.9,86.2c1.9,4.7-0.5,10.7-4.7,12.9c-4,2.1-10.5-0.5-12.7-5c-2.1-4.3,0.6-10.9,5.1-12.9
							C353.7,79.3,360.6,81.6,361.9,86.2z"/>
					</g>
				</g>
			</g>
		</g>
		<g>
			<g>
				<g>
					<g>
						<linearGradient id="SVGID_34_" gradientUnits="userSpaceOnUse" x1="397.5324" y1="70.0569" x2="416.5134" y2="70.0569">
							<stop  offset="1.862220e-02" style="stop-color:#9A8684"/>
							<stop  offset="0.4235" style="stop-color:#D3C5C6"/>
							<stop  offset="0.4999" style="stop-color:#DED1D3"/>
							<stop  offset="0.5991" style="stop-color:#D1C0C0"/>
							<stop  offset="0.7129" style="stop-color:#C7B4B1"/>
							<stop  offset="0.8064" style="stop-color:#C4AFAC"/>
							<stop  offset="0.8566" style="stop-color:#B8A19E"/>
							<stop  offset="0.9516" style="stop-color:#977E78"/>
							<stop  offset="0.9972" style="stop-color:#866B64"/>
						</linearGradient>
						<path fill="url(#SVGID_34_)" d="M416.2,67.1c1.3,4.9-1.8,10.8-6.3,12.3c-4.3,1.4-10.4-2-12-6.8c-1.5-4.5,2-10.6,6.8-12
							C409.1,59.4,415.5,62.3,416.2,67.1z"/>
					</g>
				</g>
			</g>
		</g>
		<g>
			<g>
				<g>
					<g>
						<linearGradient id="SVGID_35_" gradientUnits="userSpaceOnUse" x1="453.5656" y1="56.9381" x2="472.6622" y2="56.9381">
							<stop  offset="1.862220e-02" style="stop-color:#9A8684"/>
							<stop  offset="0.4235" style="stop-color:#D3C5C6"/>
							<stop  offset="0.4999" style="stop-color:#DED1D3"/>
							<stop  offset="0.5991" style="stop-color:#D1C0C0"/>
							<stop  offset="0.7129" style="stop-color:#C7B4B1"/>
							<stop  offset="0.8064" style="stop-color:#C4AFAC"/>
							<stop  offset="0.8566" style="stop-color:#B8A19E"/>
							<stop  offset="0.9516" style="stop-color:#977E78"/>
							<stop  offset="0.9972" style="stop-color:#866B64"/>
						</linearGradient>
						<path fill="url(#SVGID_35_)" d="M472.6,55.3c0.6,5-3.2,10.4-7.9,11.2c-4.5,0.7-10-3.1-11-8.1c-0.9-4.6,3.3-10.6,8.3-11.2
							C466.5,46.7,472.5,50.5,472.6,55.3z"/>
					</g>
				</g>
			</g>
		</g>
		<g>
			<g>
				<g>
					<g>
						<linearGradient id="SVGID_36_" gradientUnits="userSpaceOnUse" x1="510.8266" y1="51.2524" x2="530.0253" y2="51.2524">
							<stop  offset="1.862220e-02" style="stop-color:#9A8684"/>
							<stop  offset="0.4235" style="stop-color:#D3C5C6"/>
							<stop  offset="0.4999" style="stop-color:#DED1D3"/>
							<stop  offset="0.5991" style="stop-color:#D1C0C0"/>
							<stop  offset="0.7129" style="stop-color:#C7B4B1"/>
							<stop  offset="0.8064" style="stop-color:#C4AFAC"/>
							<stop  offset="0.8566" style="stop-color:#B8A19E"/>
							<stop  offset="0.9516" style="stop-color:#977E78"/>
							<stop  offset="0.9972" style="stop-color:#866B64"/>
						</linearGradient>
						<path fill="url(#SVGID_36_)" d="M530,50.7c0,5-4.5,9.9-9.2,10.3c-4.5,0.3-9.6-4.5-9.9-9.5c-0.3-4.7,4.6-9.8,9.6-10
							C525,41.3,530.5,45.9,530,50.7z"/>
					</g>
				</g>
			</g>
		</g>
		<g>
			<g>
				<g>
					<g>
						<linearGradient id="SVGID_37_" gradientUnits="userSpaceOnUse" x1="568.4064" y1="52.8254" x2="587.6606" y2="52.8254">
							<stop  offset="1.862220e-02" style="stop-color:#9A8684"/>
							<stop  offset="0.4235" style="stop-color:#D3C5C6"/>
							<stop  offset="0.4999" style="stop-color:#DED1D3"/>
							<stop  offset="0.5991" style="stop-color:#D1C0C0"/>
							<stop  offset="0.7129" style="stop-color:#C7B4B1"/>
							<stop  offset="0.8064" style="stop-color:#C4AFAC"/>
							<stop  offset="0.8566" style="stop-color:#B8A19E"/>
							<stop  offset="0.9516" style="stop-color:#977E78"/>
							<stop  offset="0.9972" style="stop-color:#866B64"/>
						</linearGradient>
						<path fill="url(#SVGID_37_)" d="M587.5,53.6c-0.7,5-5.7,9.3-10.5,8.9c-4.5-0.5-8.9-5.7-8.6-10.7c0.3-4.7,5.8-9.4,10.8-8.7
							C583.8,43.7,588.6,48.9,587.5,53.6z"/>
					</g>
				</g>
			</g>
		</g>
		<g>
			<g>
				<g>
					<g>
						<linearGradient id="SVGID_38_" gradientUnits="userSpaceOnUse" x1="625.3386" y1="61.6867" x2="644.5958" y2="61.6867">
							<stop  offset="1.862220e-02" style="stop-color:#9A8684"/>
							<stop  offset="0.4235" style="stop-color:#D3C5C6"/>
							<stop  offset="0.4999" style="stop-color:#DED1D3"/>
							<stop  offset="0.5991" style="stop-color:#D1C0C0"/>
							<stop  offset="0.7129" style="stop-color:#C7B4B1"/>
							<stop  offset="0.8064" style="stop-color:#C4AFAC"/>
							<stop  offset="0.8566" style="stop-color:#B8A19E"/>
							<stop  offset="0.9516" style="stop-color:#977E78"/>
							<stop  offset="0.9972" style="stop-color:#866B64"/>
						</linearGradient>
						<path fill="url(#SVGID_38_)" d="M644.2,63.6c-1.3,4.8-6.8,8.4-11.5,7.6c-4.5-0.8-8.1-6.8-7.2-11.7c0.9-4.7,6.9-8.3,11.8-7.2
							C641.8,53.2,645.9,59.1,644.2,63.6z"/>
					</g>
				</g>
			</g>
		</g>
		<g>
			<g>
				<g>
					<g>
						<linearGradient id="SVGID_39_" gradientUnits="userSpaceOnUse" x1="680.7111" y1="77.7145" x2="699.8574" y2="77.7145">
							<stop  offset="1.862220e-02" style="stop-color:#9A8684"/>
							<stop  offset="0.4235" style="stop-color:#D3C5C6"/>
							<stop  offset="0.4999" style="stop-color:#DED1D3"/>
							<stop  offset="0.5991" style="stop-color:#D1C0C0"/>
							<stop  offset="0.7129" style="stop-color:#C7B4B1"/>
							<stop  offset="0.8064" style="stop-color:#C4AFAC"/>
							<stop  offset="0.8566" style="stop-color:#B8A19E"/>
							<stop  offset="0.9516" style="stop-color:#977E78"/>
							<stop  offset="0.9972" style="stop-color:#866B64"/>
						</linearGradient>
						<path fill="url(#SVGID_39_)" d="M699.1,80.9c-1.9,4.6-7.9,7.6-12.4,6c-4.3-1.5-7.1-7.9-5.6-12.6c1.5-4.6,8-7.5,12.6-5.6
							C698,70.4,701.4,76.6,699.1,80.9z"/>
					</g>
				</g>
			</g>
		</g>
		<g>
			<g>
				<g>
					<g>
						<linearGradient id="SVGID_40_" gradientUnits="userSpaceOnUse" x1="733.4813" y1="100.7081" x2="752.5654" y2="100.7081">
							<stop  offset="1.862220e-02" style="stop-color:#9A8684"/>
							<stop  offset="0.4235" style="stop-color:#D3C5C6"/>
							<stop  offset="0.4999" style="stop-color:#DED1D3"/>
							<stop  offset="0.5991" style="stop-color:#D1C0C0"/>
							<stop  offset="0.7129" style="stop-color:#C7B4B1"/>
							<stop  offset="0.8064" style="stop-color:#C4AFAC"/>
							<stop  offset="0.8566" style="stop-color:#B8A19E"/>
							<stop  offset="0.9516" style="stop-color:#977E78"/>
							<stop  offset="0.9972" style="stop-color:#866B64"/>
						</linearGradient>
						<path fill="url(#SVGID_40_)" d="M751.4,105c-2.5,4.4-8.7,6.3-13,4.3c-4.1-1.9-6.2-8.5-4-13.1c2-4.3,8.9-6.3,13.3-4
							C751.7,94.4,754.2,101.2,751.4,105z"/>
					</g>
				</g>
			</g>
		</g>
		<g>
			<g>
				<g>
					<g>
						<linearGradient id="SVGID_41_" gradientUnits="userSpaceOnUse" x1="782.8796" y1="130.3375" x2="801.9058" y2="130.3375">
							<stop  offset="1.862220e-02" style="stop-color:#9A8684"/>
							<stop  offset="0.4235" style="stop-color:#D3C5C6"/>
							<stop  offset="0.4999" style="stop-color:#DED1D3"/>
							<stop  offset="0.5991" style="stop-color:#D1C0C0"/>
							<stop  offset="0.7129" style="stop-color:#C7B4B1"/>
							<stop  offset="0.8064" style="stop-color:#C4AFAC"/>
							<stop  offset="0.8566" style="stop-color:#B8A19E"/>
							<stop  offset="0.9516" style="stop-color:#977E78"/>
							<stop  offset="0.9972" style="stop-color:#866B64"/>
						</linearGradient>
						<path fill="url(#SVGID_41_)" d="M800.2,135.6c-3,4-9.6,5.3-13.6,2.8c-3.8-2.5-4.9-9.4-2.2-13.6c2.6-4,9.5-5.1,13.6-2.2
							C801.7,125.3,803.4,132.1,800.2,135.6z"/>
					</g>
				</g>
			</g>
		</g>
		<g>
			<g>
				<g>
					<g>
						<linearGradient id="SVGID_42_" gradientUnits="userSpaceOnUse" x1="828.04" y1="165.9962" x2="846.9449" y2="165.9962">
							<stop  offset="1.862220e-02" style="stop-color:#9A8684"/>
							<stop  offset="0.4235" style="stop-color:#D3C5C6"/>
							<stop  offset="0.4999" style="stop-color:#DED1D3"/>
							<stop  offset="0.5991" style="stop-color:#D1C0C0"/>
							<stop  offset="0.7129" style="stop-color:#C7B4B1"/>
							<stop  offset="0.8064" style="stop-color:#C4AFAC"/>
							<stop  offset="0.8566" style="stop-color:#B8A19E"/>
							<stop  offset="0.9516" style="stop-color:#977E78"/>
							<stop  offset="0.9972" style="stop-color:#866B64"/>
						</linearGradient>
						<path fill="url(#SVGID_42_)" d="M844.5,172.4c-3.5,3.6-10.2,4-13.7,0.9c-3.3-3-3.7-9.9-0.5-13.7c3-3.6,10.3-4,13.8-0.5
							C847.4,162.2,848.2,169.3,844.5,172.4z"/>
					</g>
				</g>
			</g>
		</g>
		<g>
			<g>
				<g>
					<g>
						<linearGradient id="SVGID_43_" gradientUnits="userSpaceOnUse" x1="868.1617" y1="207.1447" x2="887.1885" y2="207.1447">
							<stop  offset="1.862220e-02" style="stop-color:#9A8684"/>
							<stop  offset="0.4235" style="stop-color:#D3C5C6"/>
							<stop  offset="0.4999" style="stop-color:#DED1D3"/>
							<stop  offset="0.5991" style="stop-color:#D1C0C0"/>
							<stop  offset="0.7129" style="stop-color:#C7B4B1"/>
							<stop  offset="0.8064" style="stop-color:#C4AFAC"/>
							<stop  offset="0.8566" style="stop-color:#B8A19E"/>
							<stop  offset="0.9516" style="stop-color:#977E78"/>
							<stop  offset="0.9972" style="stop-color:#866B64"/>
						</linearGradient>
						<path fill="url(#SVGID_43_)" d="M883.9,214.4c-4,3.1-10.4,2.6-13.7-0.9c-3.1-3.3-2.5-10.2,1.2-13.6c3.5-3.2,10.6-2.5,13.9,1.3
							C888.2,204.6,887.9,211.9,883.9,214.4z"/>
					</g>
				</g>
			</g>
		</g>
		<g>
			<g>
				<g>
					<g>
						<linearGradient id="SVGID_44_" gradientUnits="userSpaceOnUse" x1="902.7416" y1="253.0374" x2="921.8452" y2="253.0374">
							<stop  offset="1.862220e-02" style="stop-color:#9A8684"/>
							<stop  offset="0.4235" style="stop-color:#D3C5C6"/>
							<stop  offset="0.4999" style="stop-color:#DED1D3"/>
							<stop  offset="0.5991" style="stop-color:#D1C0C0"/>
							<stop  offset="0.7129" style="stop-color:#C7B4B1"/>
							<stop  offset="0.8064" style="stop-color:#C4AFAC"/>
							<stop  offset="0.8566" style="stop-color:#B8A19E"/>
							<stop  offset="0.9516" style="stop-color:#977E78"/>
							<stop  offset="0.9972" style="stop-color:#866B64"/>
						</linearGradient>
						<path fill="url(#SVGID_44_)" d="M917.7,261c-4.3,2.6-10.9,1.4-13.6-2.5c-2.6-3.7-1.1-10.6,3-13.5c3.9-2.7,10.7-1.1,13.5,3.1
							C923,252,922,259,917.7,261z"/>
					</g>
				</g>
			</g>
		</g>
		<g>
			<g>
				<g>
					<g>
						<linearGradient id="SVGID_45_" gradientUnits="userSpaceOnUse" x1="931.2468" y1="303.0293" x2="950.3675" y2="303.0293">
							<stop  offset="1.862220e-02" style="stop-color:#9A8684"/>
							<stop  offset="0.4235" style="stop-color:#D3C5C6"/>
							<stop  offset="0.4999" style="stop-color:#DED1D3"/>
							<stop  offset="0.5991" style="stop-color:#D1C0C0"/>
							<stop  offset="0.7129" style="stop-color:#C7B4B1"/>
							<stop  offset="0.8064" style="stop-color:#C4AFAC"/>
							<stop  offset="0.8566" style="stop-color:#B8A19E"/>
							<stop  offset="0.9516" style="stop-color:#977E78"/>
							<stop  offset="0.9972" style="stop-color:#866B64"/>
						</linearGradient>
						<path fill="url(#SVGID_45_)" d="M945,311.7c-4.6,2-10.9-0.1-13.1-4.3c-2-4.1,0.2-10.6,4.7-12.9c4.2-2.2,11,0.1,13,4.8
							C951.5,303.4,949.6,310.2,945,311.7z"/>
					</g>
				</g>
			</g>
		</g>
		<g>
			<g>
				<g>
					<g>
						<linearGradient id="SVGID_46_" gradientUnits="userSpaceOnUse" x1="952.9865" y1="356.2603" x2="972.4046" y2="356.2603">
							<stop  offset="1.862220e-02" style="stop-color:#9A8684"/>
							<stop  offset="0.4235" style="stop-color:#D3C5C6"/>
							<stop  offset="0.4999" style="stop-color:#DED1D3"/>
							<stop  offset="0.5991" style="stop-color:#D1C0C0"/>
							<stop  offset="0.7129" style="stop-color:#C7B4B1"/>
							<stop  offset="0.8064" style="stop-color:#C4AFAC"/>
							<stop  offset="0.8566" style="stop-color:#B8A19E"/>
							<stop  offset="0.9516" style="stop-color:#977E78"/>
							<stop  offset="0.9972" style="stop-color:#866B64"/>
						</linearGradient>
						<path fill="url(#SVGID_46_)" d="M965.8,365.4c-4.9,1.4-10.6-1.5-12.4-5.9c-1.6-4.2,1.5-10.4,6.2-12.2
							c4.4-1.7,10.8,1.6,12.4,6.4C973.5,357.9,970.5,364.5,965.8,365.4z"/>
					</g>
				</g>
			</g>
		</g>
		<g>
			<g>
				<g>
					<g>
						<linearGradient id="SVGID_47_" gradientUnits="userSpaceOnUse" x1="967.7515" y1="411.852" x2="987.2107" y2="411.852">
							<stop  offset="1.862220e-02" style="stop-color:#9A8684"/>
							<stop  offset="0.4235" style="stop-color:#D3C5C6"/>
							<stop  offset="0.4999" style="stop-color:#DED1D3"/>
							<stop  offset="0.5991" style="stop-color:#D1C0C0"/>
							<stop  offset="0.7129" style="stop-color:#C7B4B1"/>
							<stop  offset="0.8064" style="stop-color:#C4AFAC"/>
							<stop  offset="0.8566" style="stop-color:#B8A19E"/>
							<stop  offset="0.9516" style="stop-color:#977E78"/>
							<stop  offset="0.9972" style="stop-color:#866B64"/>
						</linearGradient>
						<path fill="url(#SVGID_47_)" d="M979.6,421.3c-5,0.8-10.6-2.8-11.7-7.5c-1-4.4,3-10.2,7.9-11.3c4.6-1.1,10.4,3,11.3,7.9
							C987.9,414.9,984.4,421,979.6,421.3z"/>
					</g>
				</g>
			</g>
		</g>
		<g>
			<g>
				<g>
					<g>
						<linearGradient id="SVGID_48_" gradientUnits="userSpaceOnUse" x1="975.4102" y1="468.9561" x2="994.8976" y2="468.9561">
							<stop  offset="1.862220e-02" style="stop-color:#9A8684"/>
							<stop  offset="0.4235" style="stop-color:#D3C5C6"/>
							<stop  offset="0.4999" style="stop-color:#DED1D3"/>
							<stop  offset="0.5991" style="stop-color:#D1C0C0"/>
							<stop  offset="0.7129" style="stop-color:#C7B4B1"/>
							<stop  offset="0.8064" style="stop-color:#C4AFAC"/>
							<stop  offset="0.8566" style="stop-color:#B8A19E"/>
							<stop  offset="0.9516" style="stop-color:#977E78"/>
							<stop  offset="0.9972" style="stop-color:#866B64"/>
						</linearGradient>
						<path fill="url(#SVGID_48_)" d="M985.8,478.5c-5,0.1-10-4.2-10.4-8.9c-0.4-4.5,4.1-9.7,9.1-10.2c4.7-0.5,10.1,4.3,10.4,9.3
							C995,473.3,990.6,478.9,985.8,478.5z"/>
					</g>
				</g>
			</g>
		</g>
		<g>
			<g>
				<g>
					<g>
						<linearGradient id="SVGID_49_" gradientUnits="userSpaceOnUse" x1="975.5554" y1="526.5898" x2="995" y2="526.5898">
							<stop  offset="1.862220e-02" style="stop-color:#9A8684"/>
							<stop  offset="0.4235" style="stop-color:#D3C5C6"/>
							<stop  offset="0.4999" style="stop-color:#DED1D3"/>
							<stop  offset="0.5991" style="stop-color:#D1C0C0"/>
							<stop  offset="0.7129" style="stop-color:#C7B4B1"/>
							<stop  offset="0.8064" style="stop-color:#C4AFAC"/>
							<stop  offset="0.8566" style="stop-color:#B8A19E"/>
							<stop  offset="0.9516" style="stop-color:#977E78"/>
							<stop  offset="0.9972" style="stop-color:#866B64"/>
						</linearGradient>
						<path fill="url(#SVGID_49_)" d="M985,536.1c-5-0.5-9.6-5.4-9.4-10.2c0.1-4.5,5.5-9.1,10.5-9c4.7,0.1,9.3,5.5,8.9,10.5
							C994.7,532,989.7,537.1,985,536.1z"/>
					</g>
				</g>
			</g>
		</g>
	</g>
	<g>
		<g>
			<g>
				<linearGradient id="SVGID_50_" gradientUnits="userSpaceOnUse" x1="5" y1="500" x2="863.793" y2="500">
					<stop  offset="1.862220e-02" style="stop-color:#9A8684"/>
					<stop  offset="0.4235" style="stop-color:#D3C5C6"/>
					<stop  offset="0.4999" style="stop-color:#DED1D3"/>
					<stop  offset="0.5991" style="stop-color:#D1C0C0"/>
					<stop  offset="0.7129" style="stop-color:#C7B4B1"/>
					<stop  offset="0.8064" style="stop-color:#C4AFAC"/>
					<stop  offset="0.8566" style="stop-color:#B8A19E"/>
					<stop  offset="0.9516" style="stop-color:#977E78"/>
					<stop  offset="0.9972" style="stop-color:#866B64"/>
				</linearGradient>
				<path fill="url(#SVGID_50_)" d="M863.8,821.1c-0.6,0.3-1.2,0.6-1.8,0.9c-67.2,50.4-150.7,80.3-241.1,80.3
					c-222.2,0-402.3-180.1-402.3-402.3c0-222.2,180.1-402.3,402.3-402.3c90.5,0,173.9,29.9,241.1,80.3c0.6,0.3,1.2,0.6,1.8,0.9
					C774.1,75.8,641.9,10.5,494.5,10.5C224.2,10.5,5,229.7,5,500s219.2,489.5,489.5,489.5C641.9,989.5,774.1,924.2,863.8,821.1z"/>
			</g>
		</g>
	</g>
</g>
</svg>
