<?xml version="1.0" encoding="utf-8"?>
<!-- Generator: Adobe Illustrator 21.1.0, SVG Export Plug-In . SVG Version: 6.00 Build 0)  -->
<svg version="1.1" id="Layer_1" xmlns="http://www.w3.org/2000/svg" xmlns:xlink="http://www.w3.org/1999/xlink" x="0px" y="0px"
	 viewBox="0 0 1000 1000" enable-background="new 0 0 1000 1000" xml:space="preserve">
<g>
	<g>
		<g>
			<g>
				<linearGradient id="SVGID_1_" gradientUnits="userSpaceOnUse" x1="24.0276" y1="656.0929" x2="975.9725" y2="656.0929">
					<stop  offset="1.862220e-02" style="stop-color:#9A8684"/>
					<stop  offset="0.4235" style="stop-color:#D3C5C6"/>
					<stop  offset="0.4999" style="stop-color:#DED1D3"/>
					<stop  offset="0.5991" style="stop-color:#D1C0C0"/>
					<stop  offset="0.7129" style="stop-color:#C7B4B1"/>
					<stop  offset="0.8064" style="stop-color:#C4AFAC"/>
					<stop  offset="0.8566" style="stop-color:#B8A19E"/>
					<stop  offset="0.9516" style="stop-color:#977E78"/>
					<stop  offset="0.9972" style="stop-color:#866B64"/>
				</linearGradient>
				<path fill="url(#SVGID_1_)" d="M961.8,524.8c-2.5-0.6-4.7-1.1-6.9-1.4c-3.7-0.5-7.4-1-11.1-1.5c-7-0.9-14.2-1.8-21.1-3.2
					c-7.4-1.5-14.8-2.9-22.2-4.4c-30.8-6.2-62.6-12.6-94.6-16.6c-24.4-3-50.8-5.6-77.7-4.9c-41.1,0.8-76.3,9.5-107.4,26.6
					c-30.4,16.9-54.5,36.6-73.5,60.2c-20.5,25.2-43.5,48.7-67.2,72.7c-5.5,5.5-12.1,10.6-20.1,15.6c-13.3,8.3-27.5,17.4-41.1,26.8
					c-29.2,20.5-55.4,41.9-80.1,65.2c-10.5,9.7-21.1,19.9-32.1,30.5c-13.7,13.2-27.8,26.7-43,40.7c1.9-4.1,3.6-7.9,5.1-11.6
					c7.4-17,14.9-33.5,25.7-48.3c4.3-6.1,8.8-12,13.2-17.8c3.7-4.9,7.3-9.7,10.8-14.5c2-2.7,4-5.3,5.9-8c4.3-5.7,8.8-11.7,12.7-17.8
					c10.9-16.5,18.5-34,22.6-51.8c4.4-18.8,4.1-38.6-0.8-58.7c-10.2-41.9-30.2-81.1-59.5-116.6c-18.7-22.7-34.5-41.3-49.7-58.4
					C228,403,210.1,373.4,195,337.3l-8.7-20.1l-5,13.6l-0.5,1.2c-0.4,0.9-0.9,2.2-0.9,3.8c0,3.1,0.1,6.3,0.3,9.4
					c1.8,25.4,0,51.2-5.5,79c-3.7,19.1-8.1,38.8-13.1,58.8c-5.7,22-6.5,42.3-5.9,65.9c0.4,11,1.2,22,2.4,32.7
					c1,10.1,2.4,20.7,4.4,33.3c3.2,21.7,10.3,43,21,63.5c14.1,26.8,28.7,47,45.7,63.3l6.8,6.5c8.3,8.1,13,17.5,14.3,28.7
					c1.5,12,0.4,23.1-3.4,33.8c-4.6,12-8.9,21.1-13.8,29.5c-14.3,24.5-32,43.9-54.1,59.4c-27,18.8-55.9,34.9-86.1,48
					c-7.7,3.7-16,6.9-24,10.1l-17,6.6c-4.7,1.6-9.5,3.1-14.3,4.6c-5.8,1.8-12,4.3-13.4,10.1c-0.6,2.5-0.4,6.4,4,10.7l0.9,0.9
					l13.6,4.6l1.5-0.3c8.4-1.5,16.6-3.4,25.8-6.2c19-5.5,36.3-13.4,51.8-20.5l23-11.9c4.6-2.4,8.9-4.9,13.2-7.4
					c3-1.7,5.9-3.4,9.1-5.2c36.4-20.9,65.7-45,89.5-65.7c26.1-23.1,48-44.9,69.2-65.9c12.6-12.5,24.5-24.3,36.4-35.5
					c29.4-28.2,62.4-54.6,98-78.4c5.3-3.6,10.8-5.9,16.8-6.9c14.6-2.6,26.4-2.5,37.1,0.2c24.7,6.3,48.8,11.1,73.9,14.6
					c49.1,6.7,99.4,1.5,149.6-15.5c20.5-7.2,38.3-15.9,54.1-26.7c11.8-7.9,23.2-15.9,34.1-23.9c14.2-10.3,28.4-20.7,42.6-31.1
					c30.7-22.5,62.4-45.8,94.5-67.6c1.6-1.1,2.8-2.5,4.1-3.9c0.5-0.6,1.1-1.3,1.9-2.1l7.2-7.5L961.8,524.8z M589.5,694.6
					c-24.6-3.5-48.3-8.2-72.6-14.3c-12.3-3.1-25.7-3.2-41.9-0.4c-7.6,1.3-14.6,4.2-21.3,8.7c-36.1,24.2-69.6,51-99.5,79.6
					c-12,11.3-23.9,23.1-36.6,35.7c-21.1,20.9-42.9,42.5-68.7,65.4c-23.4,20.4-52,44-87.5,64.3c-3.1,1.7-6.2,3.5-9.2,5.3
					c-4.2,2.4-8.3,4.8-12.7,7.1l-22.7,11.8c-15.6,7.1-31.7,14.5-50,19.8c-8.2,2.5-15.6,4.3-23,5.6l-6.2-2.1c0.9-0.4,2-0.8,3.5-1.2
					c5-1.5,9.9-3,15-4.8l17.2-6.7c8.2-3.2,16.6-6.6,24.5-10.3c30.7-13.3,60.3-29.8,87.9-49c23.5-16.4,42.3-37,57.5-63
					c5.2-8.8,9.8-18.8,14.6-31.3c4.5-12.6,5.8-25.4,4.1-39.2c-1.6-13.7-7.6-25.7-17.7-35.6l-6.8-6.6c-16.1-15.5-29.9-34.6-43.5-60.3
					c-10.1-19.3-16.8-39.5-19.9-59.9c-1.9-12.5-3.3-22.9-4.3-32.9c-1.2-10.5-2-21.2-2.3-31.8c-0.5-22.6,0.2-42,5.5-62.7
					c5-20.1,9.5-40.1,13.2-59.4c4.5-23.1,6.6-45,6.3-66.4c13.8,29.2,29.9,54,48.8,75.4c15.1,17,30.8,35.5,49.4,58.1
					c28.1,34.1,47.4,71.8,57.2,112c4.5,18.3,4.7,36.3,0.8,53.4c-3.8,16.5-10.8,32.6-21,48c-3.8,5.8-7.9,11.3-12.3,17.2
					c-2,2.7-4,5.4-6,8.1c-3.5,4.8-7.1,9.5-10.7,14.3c-4.5,5.9-9,11.9-13.3,18c-11.5,15.7-19.3,32.8-27,50.5
					c-3.1,7.6-7.1,16-12.4,26.4c-0.5,1.1-0.9,2.2-1.5,4c-0.3,0.9-0.6,2-1.1,3.5l-6,17.4l14.9-10.8c1.6-1.2,3.1-2.2,4.3-3.1
					c2.7-1.9,4.6-3.3,6.4-4.8c18.9-16.9,35.8-33.2,52.1-48.9c10.9-10.5,21.5-20.6,31.9-30.4c24.4-23,50.1-43.9,78.8-64.1
					c13.4-9.3,27.4-18.2,40.6-26.4c8.7-5.4,16-11.1,22.1-17.3c24-24.2,47.2-48,68-73.6c18.1-22.4,41-41.2,70.1-57.3
					c29.5-16.2,62.8-24.4,102.1-25.2c26.3-0.7,52.1,1.9,76.1,4.9c31.6,3.9,63.2,10.3,93.7,16.4c7.4,1.5,14.8,3,22.3,4.4
					c7.2,1.4,14.7,2.4,21.8,3.3c3.2,0.4,6.5,0.8,9.7,1.3c-30.8,21-61.2,43.3-90.5,64.9c-14.2,10.4-28.3,20.8-42.6,31.1
					c-10.8,7.9-22.2,15.8-33.8,23.7c-15.1,10.3-31.9,18.6-51.4,25.4C685.4,696,636.8,701.1,589.5,694.6z"/>
			</g>
		</g>
	</g>
	<g>
		<g>
			<g>
				<linearGradient id="SVGID_2_" gradientUnits="userSpaceOnUse" x1="510.621" y1="614.6484" x2="742.3518" y2="614.6484">
					<stop  offset="1.862220e-02" style="stop-color:#9A8684"/>
					<stop  offset="0.4235" style="stop-color:#D3C5C6"/>
					<stop  offset="0.4999" style="stop-color:#DED1D3"/>
					<stop  offset="0.5991" style="stop-color:#D1C0C0"/>
					<stop  offset="0.7129" style="stop-color:#C7B4B1"/>
					<stop  offset="0.8064" style="stop-color:#C4AFAC"/>
					<stop  offset="0.8566" style="stop-color:#B8A19E"/>
					<stop  offset="0.9516" style="stop-color:#977E78"/>
					<stop  offset="0.9972" style="stop-color:#866B64"/>
				</linearGradient>
				<path fill="url(#SVGID_2_)" d="M742,570.7c-2.6,0.2-5.2,0-7.8,0.5c-9.1,1.8-18.2,3.3-27.1,5.7c-52.7,14.6-103.8,32.3-153.5,54
					c-12.1,5.4-23.9,11.6-35.7,17.4c-2,1-3.9,2.3-5.5,3.8c-1.7,1.4-2.6,3.6-0.9,5.3c1,1,3.1,1.2,4.7,1.2c1.3-0.1,2.5-1.2,3.8-1.8
					c11.9-5.9,23.6-12.3,35.7-17.6c17-7.4,34.3-14.4,51.7-21.3c41.2-16.4,83.4-30.1,126.3-42.7c2.9-0.8,5.8-1.9,8.7-2.8L742,570.7z"
					/>
			</g>
		</g>
	</g>
	<g>
		<g>
			<g>
				<linearGradient id="SVGID_3_" gradientUnits="userSpaceOnUse" x1="226.586" y1="621.3109" x2="277.0578" y2="621.3109">
					<stop  offset="1.862220e-02" style="stop-color:#9A8684"/>
					<stop  offset="0.4235" style="stop-color:#D3C5C6"/>
					<stop  offset="0.4999" style="stop-color:#DED1D3"/>
					<stop  offset="0.5991" style="stop-color:#D1C0C0"/>
					<stop  offset="0.7129" style="stop-color:#C7B4B1"/>
					<stop  offset="0.8064" style="stop-color:#C4AFAC"/>
					<stop  offset="0.8566" style="stop-color:#B8A19E"/>
					<stop  offset="0.9516" style="stop-color:#977E78"/>
					<stop  offset="0.9972" style="stop-color:#866B64"/>
				</linearGradient>
				<path fill="url(#SVGID_3_)" d="M267.9,725.8c-0.2,3.3-1,6.8,2.9,10.5c1.3-3.8,2.8-6.6,3.1-9.5c1.6-13,3.3-26.2,3-39
					c-1.6-46.8-12.1-92-27.4-135.9c-4.9-13.9-10.6-27.4-18.1-40.2c-1.1-1.9-2.5-3.6-3.8-5.5l-1.2,0.6c0.6,1.8,1,3.6,1.7,5.3
					c2.4,6,4.8,12,7.2,18c19.2,51.1,31.8,104,33.9,158.8C269.8,701.2,268.7,713.4,267.9,725.8z"/>
			</g>
		</g>
	</g>
	<g>
		<g>
			<g>
				<linearGradient id="SVGID_4_" gradientUnits="userSpaceOnUse" x1="427.7762" y1="291.83" x2="656.1406" y2="291.83">
					<stop  offset="1.862220e-02" style="stop-color:#9A8684"/>
					<stop  offset="0.4235" style="stop-color:#D3C5C6"/>
					<stop  offset="0.4999" style="stop-color:#DED1D3"/>
					<stop  offset="0.5991" style="stop-color:#D1C0C0"/>
					<stop  offset="0.7129" style="stop-color:#C7B4B1"/>
					<stop  offset="0.8064" style="stop-color:#C4AFAC"/>
					<stop  offset="0.8566" style="stop-color:#B8A19E"/>
					<stop  offset="0.9516" style="stop-color:#977E78"/>
					<stop  offset="0.9972" style="stop-color:#866B64"/>
				</linearGradient>
				<path fill="url(#SVGID_4_)" d="M444.5,432.3c4.5,13.4,9,25.7,13.8,37.5c4.7,10.7,6.9,22.5,6.9,38.2c0.2,6.1-0.9,12.1-3.4,17.9
					c-2.8,6.4-5.5,12.7-8.2,19.1c-3.4,8.1-6.8,16.2-10.6,24.2l-3.7,7.9l8.6,0.8c4.5,0.4,9.1,0.6,13.9,0.6c1.4,0,2.8,0,4.1-0.1
					l3.9-0.1l5.1-11.6c2.1-5.1,4-10.2,6-15.3c1-2.6,2-5.2,3-7.8l9.1-23c3-8.1,7-15.5,11.9-21.8l4.4-5.7c3.5-4.6,7.1-9.2,10.6-13.6
					l16-18.7c10.4-12.3,22.7-23.7,33.4-33.4c12-10.4,22.6-21.4,31.1-32.4c9-10.6,15.9-22.2,22.6-33.5l1.8-3.1
					c15.4-28.1,23.5-59.5,25.6-98.8c1.3-23.9,1-47.6,0.4-75.9c0-9.6-0.3-19.3-0.5-29.1c-0.3-10.3-0.5-20.7-0.5-31
					c0-3.4-0.1-6.8-0.1-10.3c-0.1-6.8-0.2-13.6-0.1-20.4c0.2-10.2,0.5-20.5,0.9-31.1c0.3-8.5,1.4-16.8,2.7-25.6
					c0.4-2.8,0.8-5.6,1.2-8.4c0.3-2.3,0.4-4.6,0.6-7.2c0.1-1.4,0.2-2.9,0.3-4.7L656.1,5l-9.8,5.3c-0.9,0.5-1.7,0.9-2.5,1.2
					c-1.8,0.9-3.5,1.7-5.1,3.1c-42.7,36.9-87.8,77.3-129.3,122.6c-8.4,9-16.2,18.5-23.9,27.7l-5.3,6.4c-7.4,9.1-13.4,19-18.3,27.5
					c-5.2,8.9-9.8,18.7-14.1,30.1c-20.7,54.3-25.6,111-14,164.1C436.7,405.1,440,418.9,444.5,432.3z M495,172.7
					c7.9-9.5,15.3-18.5,23.4-27.2c39.5-43.2,82.6-82,123.6-117.6c-0.3,2.3-0.6,4.6-1,6.8c-1.2,8.7-2.5,17.8-2.8,26.9
					c-0.4,10.6-0.7,21-0.9,31.2c-0.1,6.9,0,13.9,0.1,20.8c0.1,3.4,0.1,6.8,0.1,10.1c0,10.4,0.3,20.9,0.5,31.3
					c0.2,9.7,0.5,19.3,0.5,28.9c0.5,28.2,0.8,51.6-0.4,75.1c-2,37.4-9.6,67.2-24,93.4l-1.7,2.9c-6.8,11.3-13.1,22-21.6,32.1
					c-8.2,10.6-18.1,21-29.7,31c-11.1,10-23.8,21.8-34.6,34.6l-16.1,18.8c-3.7,4.6-7.3,9.2-10.9,14l-4.3,5.7
					c-5.6,7.3-10.2,15.7-13.6,24.9l-9.1,22.9c-1,2.6-2,5.3-3,7.9c-1.9,5-3.8,10-5.8,14.8l-1.9,4.3c-1.3,0-2.7,0-4-0.1
					c2.4-5.5,4.7-11,7.1-16.5c2.6-6.3,5.3-12.5,8.1-18.9c3.2-7.7,4.7-15.3,4.4-23.1c-0.1-17.3-2.5-30.6-7.9-42.8
					c-4.7-11.5-9.1-23.5-13.5-36.6c-4.3-12.9-7.5-26.4-10.2-38.2c-11-50.7-6.4-105,13.5-157.1c4-10.7,8.3-20,13.2-28.2
					c4.7-8.1,10.4-17.5,17.2-25.9L495,172.7z"/>
			</g>
		</g>
	</g>
	<g>
		<g>
			<g>
				<linearGradient id="SVGID_5_" gradientUnits="userSpaceOnUse" x1="492.1833" y1="351.8579" x2="571.5277" y2="351.8579">
					<stop  offset="1.862220e-02" style="stop-color:#9A8684"/>
					<stop  offset="0.4235" style="stop-color:#D3C5C6"/>
					<stop  offset="0.4999" style="stop-color:#DED1D3"/>
					<stop  offset="0.5991" style="stop-color:#D1C0C0"/>
					<stop  offset="0.7129" style="stop-color:#C7B4B1"/>
					<stop  offset="0.8064" style="stop-color:#C4AFAC"/>
					<stop  offset="0.8566" style="stop-color:#B8A19E"/>
					<stop  offset="0.9516" style="stop-color:#977E78"/>
					<stop  offset="0.9972" style="stop-color:#866B64"/>
				</linearGradient>
				<path fill="url(#SVGID_5_)" d="M499.4,466.6c1.3-1.8,2.3-3.9,3.1-5.9l6.5-18.6c2.2-6.2,4.7-12.3,6.6-18.5
					c16.5-51,32-101.5,48.1-153.5c2.7-8.8,4.8-17.7,7-26.7c0.6-2.5,0.6-5.2,0.9-7.9l-1.7-0.6c-1.1,2.8-2.3,5.6-3.3,8.5
					c-14.9,42.2-28.6,83.9-42.7,125.7c-5.7,17.6-11.3,35.3-17,52.9l-13.4,37.5c-0.5,1.4-1.4,2.7-1.3,4c0.1,1.6,0.7,3.7,1.9,4.6
					C496,469.6,498.2,468.4,499.4,466.6z"/>
			</g>
		</g>
	</g>
</g>
</svg>
