<?xml version="1.0" encoding="utf-8"?>
<!-- Generator: Adobe Illustrator 21.1.0, SVG Export Plug-In . SVG Version: 6.00 Build 0)  -->
<svg version="1.1" id="Layer_1" xmlns="http://www.w3.org/2000/svg" xmlns:xlink="http://www.w3.org/1999/xlink" x="0px" y="0px"
	 viewBox="0 0 1000 1000" enable-background="new 0 0 1000 1000" xml:space="preserve">
<g>
	<g>
		<g>
			<g>
				<g>
					<g>
						<g>
							<linearGradient id="SVGID_1_" gradientUnits="userSpaceOnUse" x1="460.0924" y1="308.6493" x2="492.0482" y2="308.6493">
								<stop  offset="1.862220e-02" style="stop-color:#9A8684"/>
								<stop  offset="0.4235" style="stop-color:#D3C5C6"/>
								<stop  offset="0.4999" style="stop-color:#DED1D3"/>
								<stop  offset="0.5991" style="stop-color:#D1C0C0"/>
								<stop  offset="0.7129" style="stop-color:#C7B4B1"/>
								<stop  offset="0.8064" style="stop-color:#C4AFAC"/>
								<stop  offset="0.8566" style="stop-color:#B8A19E"/>
								<stop  offset="0.9516" style="stop-color:#977E78"/>
								<stop  offset="0.9972" style="stop-color:#866B64"/>
							</linearGradient>
							<path fill="url(#SVGID_1_)" d="M490.8,284c-7.5-2.5-16.2,0.7-20.3,6.9c-5.2,7.9-1.3,17.9-6.4,25.7c-2.1,3.3-5,6.4-3.8,10.5
								c1,3.4,4.5,6.1,8.2,6.7c10,1.7,16.2-7.5,18.9-14.9c1.9-5.3,3.2-10.9,3.9-16.4c0.7-5.7,1.1-12.1-0.2-17.7
								c-0.3-1.4-2.7-1-2.7,0.3c0,4.2,0.5,8.4,0.3,12.6c-0.2,4.2-0.9,8.4-1.9,12.6c-1.7,7.2-4.4,17.4-12.9,20.3
								c-4,1.3-8.9,0.2-10.5-3.8c-1.5-3.7,2.4-6.8,4-9.9c3.4-6.5,1.8-13.8,3.7-20.6c2.1-7.9,10.8-12.5,19.4-11.4
								C491.2,284.9,491.3,284.2,490.8,284L490.8,284z"/>
						</g>
					</g>
				</g>
			</g>
			<g>
				<g>
					<g>
						<g>
							<linearGradient id="SVGID_2_" gradientUnits="userSpaceOnUse" x1="489.1698" y1="268.9298" x2="496.4051" y2="268.9298">
								<stop  offset="1.862220e-02" style="stop-color:#9A8684"/>
								<stop  offset="0.4235" style="stop-color:#D3C5C6"/>
								<stop  offset="0.4999" style="stop-color:#DED1D3"/>
								<stop  offset="0.5991" style="stop-color:#D1C0C0"/>
								<stop  offset="0.7129" style="stop-color:#C7B4B1"/>
								<stop  offset="0.8064" style="stop-color:#C4AFAC"/>
								<stop  offset="0.8566" style="stop-color:#B8A19E"/>
								<stop  offset="0.9516" style="stop-color:#977E78"/>
								<stop  offset="0.9972" style="stop-color:#866B64"/>
							</linearGradient>
							<path fill="url(#SVGID_2_)" d="M491.9,284c-0.1-4.9-0.5-9.8,0.1-14.6c0.6-4.9,1.9-9.8,3.9-14.4c-0.9-0.1-1.8-0.2-2.7-0.3
								c0.7,9.4,0.6,18.9-0.4,28.3c-0.2,1.6,2.6,1.6,2.7,0c1-9.4,1.1-18.9,0.4-28.3c-0.1-1.4-2.1-1.6-2.7-0.3
								c-2,4.8-3.3,9.7-3.8,14.8c-0.5,5-0.4,10.2,1.3,15.1C491,284.7,492,284.6,491.9,284L491.9,284z"/>
						</g>
					</g>
				</g>
			</g>
			<g>
				<g>
					<g>
						<g>
							<linearGradient id="SVGID_3_" gradientUnits="userSpaceOnUse" x1="487.8054" y1="283.7" x2="502.1996" y2="283.7">
								<stop  offset="1.862220e-02" style="stop-color:#9A8684"/>
								<stop  offset="0.4235" style="stop-color:#D3C5C6"/>
								<stop  offset="0.4999" style="stop-color:#DED1D3"/>
								<stop  offset="0.5991" style="stop-color:#D1C0C0"/>
								<stop  offset="0.7129" style="stop-color:#C7B4B1"/>
								<stop  offset="0.8064" style="stop-color:#C4AFAC"/>
								<stop  offset="0.8566" style="stop-color:#B8A19E"/>
								<stop  offset="0.9516" style="stop-color:#977E78"/>
								<stop  offset="0.9972" style="stop-color:#866B64"/>
							</linearGradient>
							<path fill="url(#SVGID_3_)" d="M488.2,284.6c1.1,0.1,2.1,0,3.2-0.1c1-0.1,2-0.1,3.1-0.1c2.1,0,4.2,0.2,6.3,0.6
								c1.5,0.3,2.1-1.8,0.6-2c-2.2-0.4-4.5-0.6-6.8-0.6c-1.1,0-2.2,0.1-3.3,0.3c-1.1,0.2-2.2,0.4-3.2,1
								C487.7,283.9,487.7,284.6,488.2,284.6L488.2,284.6z"/>
						</g>
					</g>
				</g>
			</g>
			<g>
				<g>
					<g>
						<g>
							<linearGradient id="SVGID_4_" gradientUnits="userSpaceOnUse" x1="486.906" y1="321.771" x2="509.9233" y2="321.771">
								<stop  offset="1.862220e-02" style="stop-color:#9A8684"/>
								<stop  offset="0.4235" style="stop-color:#D3C5C6"/>
								<stop  offset="0.4999" style="stop-color:#DED1D3"/>
								<stop  offset="0.5991" style="stop-color:#D1C0C0"/>
								<stop  offset="0.7129" style="stop-color:#C7B4B1"/>
								<stop  offset="0.8064" style="stop-color:#C4AFAC"/>
								<stop  offset="0.8566" style="stop-color:#B8A19E"/>
								<stop  offset="0.9516" style="stop-color:#977E78"/>
								<stop  offset="0.9972" style="stop-color:#866B64"/>
							</linearGradient>
							<path fill="url(#SVGID_4_)" d="M509.7,337.9c1-5.6-1.3-11.8-3.6-16.8c-1.4-3.1-3-6.1-5-8.9c-1.5-2.1-3.3-4.4-5.7-5.8
								c-1.6-0.9-4-1.7-5.7-0.7c-2,1.2-2.8,4.1-2.7,6.1c0,1.3,2,1.5,2.4,0.3c0.4-1.2,0.6-2.9,1.5-3.8c0.8-0.8,2.1-0.2,2.9,0.2
								c1.1,0.6,2,1.5,2.9,2.4c2.4,2.5,4.2,5.5,5.8,8.5c1.8,3.3,3.2,6.7,4.5,10.2c0.9,2.6,2,5.5,1.7,8.3
								C508.6,338.4,509.6,338.5,509.7,337.9L509.7,337.9z"/>
						</g>
					</g>
				</g>
			</g>
			<g>
				<g>
					<g>
						<g>
							<linearGradient id="SVGID_5_" gradientUnits="userSpaceOnUse" x1="458.5436" y1="346.5208" x2="490.3764" y2="346.5208">
								<stop  offset="1.862220e-02" style="stop-color:#9A8684"/>
								<stop  offset="0.4235" style="stop-color:#D3C5C6"/>
								<stop  offset="0.4999" style="stop-color:#DED1D3"/>
								<stop  offset="0.5991" style="stop-color:#D1C0C0"/>
								<stop  offset="0.7129" style="stop-color:#C7B4B1"/>
								<stop  offset="0.8064" style="stop-color:#C4AFAC"/>
								<stop  offset="0.8566" style="stop-color:#B8A19E"/>
								<stop  offset="0.9516" style="stop-color:#977E78"/>
								<stop  offset="0.9972" style="stop-color:#866B64"/>
							</linearGradient>
							<path fill="url(#SVGID_5_)" d="M461.2,326.5c-1.4,1.1-1.5,3-1.9,4.6c-0.4,1.5-1,3.1-0.6,4.7c0.6,2.7,3.5,3.6,5,5.8
								c1.6,2.4,1.1,5.5,2,8.1c0.4,1.1,0.9,2.2,1.8,3c1.1,1,2.6,1.5,3.7,2.5c2.2,2.2,2.3,5.5,4.4,7.8c1.2,1.2,2.8,1.7,4.5,2.2
								c2.2,0.6,8.4,2.8,10.2,0.5c0.5-0.6-0.6-1.4-1.1-0.8c-0.7,0.8-3.6,0-4.5-0.2c-1.8-0.4-3.7-0.8-5.5-1.4
								c-4.8-1.7-3.7-7.6-7.4-10.4c-1.1-0.8-2.4-1.2-3.1-2.3c-0.7-1.1-1-2.4-1.1-3.7c-0.3-2.1-0.4-4.2-1.4-6.1c-1.1-2-3.9-3-4.8-5
								c-1.3-2.8,2.1-6.2,0.8-9C462,326.4,461.6,326.3,461.2,326.5L461.2,326.5z"/>
						</g>
					</g>
				</g>
			</g>
			<g>
				<g>
					<g>
						<g>
							<g>
								<linearGradient id="SVGID_6_" gradientUnits="userSpaceOnUse" x1="486.8662" y1="355.0617" x2="494.2195" y2="355.0617">
									<stop  offset="1.862220e-02" style="stop-color:#9A8684"/>
									<stop  offset="0.4235" style="stop-color:#D3C5C6"/>
									<stop  offset="0.4999" style="stop-color:#DED1D3"/>
									<stop  offset="0.5991" style="stop-color:#D1C0C0"/>
									<stop  offset="0.7129" style="stop-color:#C7B4B1"/>
									<stop  offset="0.8064" style="stop-color:#C4AFAC"/>
									<stop  offset="0.8566" style="stop-color:#B8A19E"/>
									<stop  offset="0.9516" style="stop-color:#977E78"/>
									<stop  offset="0.9972" style="stop-color:#866B64"/>
								</linearGradient>
								<path fill="url(#SVGID_6_)" d="M490.8,375.6c1.2-0.4,2.2-1.5,2.1-2.8c0-1.3-1-2.4-2.2-2.7c0-1.4,0-2.9-0.1-4.3
									c1.3-0.3,2.2-1.4,2.2-2.7c0-1.3-0.9-2.4-2.2-2.7c0-1.4,0-2.9,0-4.3c1.3-0.3,2.2-1.4,2.3-2.7c0-1.3-0.9-2.4-2.1-2.8
									c0-1.4,0.1-2.9,0.2-4.3c1.3-0.3,2.3-1.3,2.4-2.6c0.1-1.3-0.8-2.4-2-2.8c0.1-1.4,0.3-2.9,0.4-4.3c1.3-0.2,2.3-1.2,2.5-2.5
									c0.1-1.3-0.7-2.5-1.9-2.9c0-0.1,0-0.3,0-0.4c-0.5-0.1-1-0.1-1.5-0.2c0,0.1,0,0.3,0,0.4c-1.3,0.2-2.3,1.2-2.5,2.5
									c-0.1,1.3,0.7,2.5,1.9,2.9c-0.1,1.4-0.3,2.9-0.4,4.3c-1.3,0.2-2.3,1.3-2.4,2.6c-0.1,1.3,0.8,2.5,2,2.9
									c-0.1,1.4-0.2,2.9-0.2,4.3c-1.3,0.3-2.2,1.4-2.3,2.7c0,1.3,0.9,2.4,2.1,2.8c-0.1,1.4,0,2.9,0,4.3c-1.3,0.3-2.2,1.4-2.2,2.7
									c0,1.3,0.9,2.4,2.2,2.7c0,1.4,0.1,2.9,0.1,4.3c-1.3,0.3-2.2,1.5-2.1,2.8c0,1.3,1,2.4,2.2,2.7c0,1.3,0.1,2.6,0.1,3.9
									c0.5,0,1,0,1.5,0C490.9,378.2,490.8,376.9,490.8,375.6z"/>
							</g>
						</g>
					</g>
				</g>
				<g>
					<g>
						<g>
							<g>
								<linearGradient id="SVGID_7_" gradientUnits="userSpaceOnUse" x1="487.3159" y1="403.9728" x2="495.2664" y2="403.9728">
									<stop  offset="1.862220e-02" style="stop-color:#9A8684"/>
									<stop  offset="0.4235" style="stop-color:#D3C5C6"/>
									<stop  offset="0.4999" style="stop-color:#DED1D3"/>
									<stop  offset="0.5991" style="stop-color:#D1C0C0"/>
									<stop  offset="0.7129" style="stop-color:#C7B4B1"/>
									<stop  offset="0.8064" style="stop-color:#C4AFAC"/>
									<stop  offset="0.8566" style="stop-color:#B8A19E"/>
									<stop  offset="0.9516" style="stop-color:#977E78"/>
									<stop  offset="0.9972" style="stop-color:#866B64"/>
								</linearGradient>
								<path fill="url(#SVGID_7_)" d="M493.2,424.5c1.2-0.4,2.1-1.5,2-2.8c-0.1-1.3-1-2.4-2.3-2.6c-0.1-1.4-0.2-2.9-0.2-4.3
									c1.2-0.4,2.1-1.5,2-2.8c-0.1-1.3-1.1-2.4-2.3-2.6c-0.1-1.4-0.2-2.9-0.2-4.3c1.2-0.4,2.1-1.5,2-2.8c-0.1-1.3-1.1-2.4-2.3-2.6
									c-0.1-1.4-0.2-2.9-0.2-4.3c1.2-0.4,2.1-1.5,2-2.8c-0.1-1.3-1-2.4-2.3-2.6c-0.1-1.4-0.1-2.9-0.2-4.3c1.2-0.4,2.1-1.5,2.1-2.8
									c0-1.3-1-2.4-2.3-2.7c0-0.1,0-0.3,0-0.4c-0.5,0-1,0-1.5,0c0,0.1,0,0.3,0,0.4c-1.2,0.4-2.1,1.5-2.1,2.8c0,1.3,1,2.4,2.3,2.7
									c0.1,1.4,0.1,2.9,0.2,4.3c-1.2,0.4-2.1,1.5-2,2.8c0.1,1.3,1.1,2.4,2.3,2.6c0.1,1.4,0.2,2.9,0.2,4.3c-1.2,0.4-2.1,1.5-2,2.8
									c0.1,1.3,1.1,2.4,2.3,2.6c0.1,1.4,0.2,2.9,0.2,4.3c-1.2,0.4-2.1,1.5-2,2.8c0.1,1.3,1.1,2.4,2.3,2.6c0.1,1.4,0.2,2.9,0.2,4.3
									c-1.2,0.4-2.1,1.5-2,2.8c0.1,1.3,1,2.4,2.3,2.6c0.1,1.3,0.1,2.6,0.2,3.9c0.5,0,1,0,1.5-0.1
									C493.3,427.1,493.3,425.8,493.2,424.5z"/>
							</g>
						</g>
					</g>
				</g>
				<g>
					<g>
						<g>
							<g>
								<linearGradient id="SVGID_8_" gradientUnits="userSpaceOnUse" x1="489.4973" y1="452.8796" x2="496.0164" y2="452.8796">
									<stop  offset="1.862220e-02" style="stop-color:#9A8684"/>
									<stop  offset="0.4235" style="stop-color:#D3C5C6"/>
									<stop  offset="0.4999" style="stop-color:#DED1D3"/>
									<stop  offset="0.5991" style="stop-color:#D1C0C0"/>
									<stop  offset="0.7129" style="stop-color:#C7B4B1"/>
									<stop  offset="0.8064" style="stop-color:#C4AFAC"/>
									<stop  offset="0.8566" style="stop-color:#B8A19E"/>
									<stop  offset="0.9516" style="stop-color:#977E78"/>
									<stop  offset="0.9972" style="stop-color:#866B64"/>
								</linearGradient>
								<path fill="url(#SVGID_8_)" d="M493,473.5c1.3-0.2,2.2-1.3,2.3-2.6c0.1-1.3-0.8-2.5-2-2.9c0.1-1.4,0.2-2.9,0.2-4.3
									c1.2-0.3,2.2-1.3,2.2-2.7c0-1.3-0.8-2.5-2.1-2.8c0.1-1.4,0.1-2.9,0.1-4.3c1.2-0.3,2.2-1.4,2.2-2.7c0-1.3-0.9-2.4-2.1-2.8
									c0-1.4,0-2.9,0-4.3c1.2-0.3,2.1-1.5,2.1-2.8c0-1.3-1-2.4-2.2-2.7c0-1.4-0.1-2.9-0.1-4.3c1.2-0.4,2.1-1.5,2.1-2.8
									c0-1.3-1-2.4-2.3-2.7c0-0.1,0-0.3,0-0.4c-0.5,0-1,0-1.5,0.1c0,0.1,0,0.3,0,0.4c-1.2,0.4-2.1,1.5-2.1,2.8
									c0,1.3,1,2.4,2.3,2.7c0,1.4,0.1,2.9,0.1,4.3c-1.2,0.4-2.1,1.5-2.1,2.8c0,1.3,1,2.4,2.2,2.7c0,1.4,0.1,2.9,0,4.3
									c-1.2,0.3-2.2,1.4-2.2,2.7c0,1.3,0.9,2.4,2.1,2.7c0,1.4,0,2.9-0.1,4.3c-1.2,0.3-2.2,1.4-2.2,2.7c0,1.3,0.8,2.4,2.1,2.8
									c0,1.4-0.2,2.9-0.2,4.3c-1.3,0.3-2.2,1.3-2.3,2.6c-0.1,1.3,0.8,2.4,2,2.9c-0.1,1.3-0.2,2.6-0.4,3.8c0.5,0,1,0.1,1.5,0.1
									C492.7,476.1,492.8,474.8,493,473.5z"/>
							</g>
						</g>
					</g>
				</g>
				<g>
					<g>
						<g>
							<g>
								<linearGradient id="SVGID_9_" gradientUnits="userSpaceOnUse" x1="481.7124" y1="501.4405" x2="494.4295" y2="501.4405">
									<stop  offset="1.862220e-02" style="stop-color:#9A8684"/>
									<stop  offset="0.4235" style="stop-color:#D3C5C6"/>
									<stop  offset="0.4999" style="stop-color:#DED1D3"/>
									<stop  offset="0.5991" style="stop-color:#D1C0C0"/>
									<stop  offset="0.7129" style="stop-color:#C7B4B1"/>
									<stop  offset="0.8064" style="stop-color:#C4AFAC"/>
									<stop  offset="0.8566" style="stop-color:#B8A19E"/>
									<stop  offset="0.9516" style="stop-color:#977E78"/>
									<stop  offset="0.9972" style="stop-color:#866B64"/>
								</linearGradient>
								<path fill="url(#SVGID_9_)" d="M484.6,521.9c1.3,0,2.4-0.9,2.7-2.2c0.3-1.3-0.3-2.6-1.4-3.1c0.3-1.4,0.7-2.8,1-4.2
									c1.3-0.1,2.4-1,2.7-2.3c0.3-1.3-0.4-2.5-1.5-3.1c0.3-1.4,0.6-2.8,0.8-4.3c1.3-0.1,2.4-1,2.6-2.4c0.2-1.3-0.5-2.5-1.6-3.1
									c0.2-1.4,0.5-2.8,0.7-4.3c1.3-0.1,2.3-1.1,2.5-2.4c0.2-1.3-0.5-2.5-1.7-3c0.2-1.4,0.4-2.9,0.5-4.3c1.3-0.2,2.3-1.2,2.5-2.5
									c0.1-1.3-0.7-2.5-1.9-2.9c0-0.1,0-0.3,0-0.4c-0.5,0-1-0.1-1.5-0.1c0,0.1,0,0.3,0,0.4c-1.3,0.2-2.3,1.2-2.4,2.5
									c-0.2,1.3,0.6,2.5,1.8,2.9c-0.2,1.4-0.4,2.8-0.5,4.3c-1.3,0.2-2.3,1.1-2.5,2.4c-0.2,1.3,0.6,2.5,1.7,3
									c-0.2,1.4-0.5,2.8-0.7,4.3c-1.3,0.1-2.4,1.1-2.6,2.3c-0.2,1.3,0.4,2.5,1.6,3c-0.3,1.4-0.6,2.8-0.8,4.2
									c-1.3,0.1-2.4,1-2.7,2.3c-0.3,1.3,0.4,2.5,1.5,3.1c-0.3,1.4-0.6,2.8-1,4.2c-1.3,0.1-2.4,0.9-2.7,2.2
									c-0.3,1.3,0.3,2.5,1.4,3.1c-0.3,1.3-0.6,2.5-1,3.8c0.5,0.1,1,0.2,1.4,0.3C484,524.4,484.3,523.1,484.6,521.9z"/>
							</g>
						</g>
					</g>
				</g>
				<g>
					<g>
						<g>
							<g>
								<linearGradient id="SVGID_10_" gradientUnits="userSpaceOnUse" x1="467.7701" y1="548.947" x2="485.0342" y2="548.947">
									<stop  offset="1.862220e-02" style="stop-color:#9A8684"/>
									<stop  offset="0.4235" style="stop-color:#D3C5C6"/>
									<stop  offset="0.4999" style="stop-color:#DED1D3"/>
									<stop  offset="0.5991" style="stop-color:#D1C0C0"/>
									<stop  offset="0.7129" style="stop-color:#C7B4B1"/>
									<stop  offset="0.8064" style="stop-color:#C4AFAC"/>
									<stop  offset="0.8566" style="stop-color:#B8A19E"/>
									<stop  offset="0.9516" style="stop-color:#977E78"/>
									<stop  offset="0.9972" style="stop-color:#866B64"/>
								</linearGradient>
								<path fill="url(#SVGID_10_)" d="M470.4,568.9c1.3,0.1,2.5-0.7,2.9-2c0.4-1.3-0.1-2.6-1.1-3.2c0.5-1.4,0.9-2.7,1.4-4.1
									c1.3,0,2.5-0.7,2.9-2c0.4-1.3-0.1-2.6-1.2-3.2c0.4-1.4,0.9-2.8,1.3-4.1c1.3,0,2.5-0.8,2.9-2c0.4-1.3-0.2-2.6-1.2-3.2
									c0.4-1.4,0.8-2.8,1.3-4.2c1.3,0,2.4-0.8,2.8-2.1c0.4-1.3-0.2-2.6-1.3-3.2c0.4-1.4,0.8-2.8,1.2-4.2c1.3,0,2.4-0.9,2.8-2.1
									c0.4-1.3-0.3-2.6-1.4-3.2c0-0.1,0.1-0.3,0.1-0.4c-0.5-0.1-1-0.2-1.4-0.3c0,0.1-0.1,0.3-0.1,0.4c-1.3,0-2.4,0.9-2.8,2.1
									c-0.3,1.3,0.2,2.5,1.3,3.1c-0.4,1.4-0.8,2.8-1.2,4.2c-1.3,0-2.4,0.8-2.8,2.1c-0.4,1.3,0.2,2.5,1.3,3.2
									c-0.4,1.4-0.8,2.8-1.2,4.1c-1.3,0-2.4,0.8-2.8,2c-0.4,1.3,0.1,2.5,1.2,3.2c-0.4,1.4-0.9,2.7-1.3,4.1c-1.3,0-2.5,0.8-2.9,2
									c-0.4,1.2,0.1,2.6,1.2,3.2c-0.5,1.4-0.9,2.7-1.4,4.1c-1.3,0-2.5,0.7-2.9,2c-0.4,1.2,0.1,2.6,1.1,3.2
									c-0.4,1.2-0.8,2.4-1.3,3.7c0.5,0.1,0.9,0.3,1.4,0.4C469.6,571.4,470,570.1,470.4,568.9z"/>
							</g>
						</g>
					</g>
				</g>
				<g>
					<g>
						<g>
							<g>
								<linearGradient id="SVGID_11_" gradientUnits="userSpaceOnUse" x1="450.5361" y1="595.3884" x2="470.2722" y2="595.3884">
									<stop  offset="1.862220e-02" style="stop-color:#9A8684"/>
									<stop  offset="0.4235" style="stop-color:#D3C5C6"/>
									<stop  offset="0.4999" style="stop-color:#DED1D3"/>
									<stop  offset="0.5991" style="stop-color:#D1C0C0"/>
									<stop  offset="0.7129" style="stop-color:#C7B4B1"/>
									<stop  offset="0.8064" style="stop-color:#C4AFAC"/>
									<stop  offset="0.8566" style="stop-color:#B8A19E"/>
									<stop  offset="0.9516" style="stop-color:#977E78"/>
									<stop  offset="0.9972" style="stop-color:#866B64"/>
								</linearGradient>
								<path fill="url(#SVGID_11_)" d="M453.4,615c1.2,0.1,2.5-0.6,3-1.8c0.5-1.2,0.1-2.6-0.9-3.3c0.5-1.3,1.1-2.7,1.6-4
									c1.2,0.1,2.5-0.6,3-1.9c0.5-1.2,0-2.6-1-3.3c0.5-1.4,1-2.7,1.5-4.1c1.3,0.1,2.5-0.6,2.9-1.9c0.5-1.2,0-2.6-1-3.3
									c0.5-1.4,1-2.7,1.5-4.1c1.2,0.1,2.5-0.7,2.9-1.9c0.4-1.2,0-2.6-1.1-3.3c0.5-1.4,1-2.7,1.5-4.1c1.3,0.1,2.5-0.7,2.9-1.9
									c0.4-1.2,0-2.6-1.1-3.2c0-0.1,0.1-0.3,0.1-0.4c-0.5-0.1-0.9-0.3-1.4-0.4c0,0.1-0.1,0.3-0.1,0.4c-1.3-0.1-2.5,0.7-2.9,1.9
									c-0.4,1.2,0.1,2.6,1.1,3.2c-0.5,1.4-1,2.7-1.4,4.1c-1.3-0.1-2.5,0.7-2.9,1.9c-0.4,1.2,0,2.6,1.1,3.3c-0.5,1.4-1,2.7-1.5,4.1
									c-1.2-0.1-2.5,0.7-2.9,1.9c-0.4,1.2,0,2.6,1,3.3c-0.5,1.3-1,2.7-1.5,4c-1.2-0.1-2.5,0.6-2.9,1.9c-0.5,1.2,0,2.5,1,3.3
									c-0.5,1.3-1.1,2.7-1.6,4c-1.2-0.1-2.5,0.6-3,1.8c-0.5,1.2-0.1,2.5,0.9,3.3c-0.5,1.2-1,2.4-1.5,3.6c0.4,0.2,0.9,0.4,1.3,0.5
									C452.4,617.4,452.9,616.2,453.4,615z"/>
							</g>
						</g>
					</g>
				</g>
				<g>
					<g>
						<g>
							<g>
								<linearGradient id="SVGID_12_" gradientUnits="userSpaceOnUse" x1="428.9986" y1="640.463" x2="452.8111" y2="640.463">
									<stop  offset="1.862220e-02" style="stop-color:#9A8684"/>
									<stop  offset="0.4235" style="stop-color:#D3C5C6"/>
									<stop  offset="0.4999" style="stop-color:#DED1D3"/>
									<stop  offset="0.5991" style="stop-color:#D1C0C0"/>
									<stop  offset="0.7129" style="stop-color:#C7B4B1"/>
									<stop  offset="0.8064" style="stop-color:#C4AFAC"/>
									<stop  offset="0.8566" style="stop-color:#B8A19E"/>
									<stop  offset="0.9516" style="stop-color:#977E78"/>
									<stop  offset="0.9972" style="stop-color:#866B64"/>
								</linearGradient>
								<path fill="url(#SVGID_12_)" d="M432.2,659.5c1.2,0.3,2.5-0.3,3.1-1.4c0.6-1.2,0.4-2.6-0.5-3.4c0.7-1.3,1.4-2.5,2-3.8
									c1.2,0.2,2.5-0.4,3.1-1.5c0.6-1.2,0.3-2.6-0.6-3.4c0.7-1.3,1.3-2.6,1.9-3.9c1.2,0.2,2.5-0.4,3.1-1.6
									c0.6-1.2,0.3-2.6-0.7-3.3c0.6-1.3,1.2-2.6,1.8-3.9c1.2,0.2,2.5-0.5,3.1-1.7c0.6-1.2,0.2-2.6-0.8-3.3c0.6-1.3,1.1-2.7,1.7-4
									c1.2,0.2,2.5-0.5,3-1.7c0.5-1.2,0.1-2.6-0.9-3.3c0.1-0.1,0.1-0.3,0.2-0.4c-0.4-0.2-0.9-0.4-1.3-0.5
									c-0.1,0.1-0.1,0.3-0.2,0.4c-1.2-0.1-2.5,0.6-3,1.8c-0.5,1.2-0.1,2.5,0.8,3.3c-0.6,1.3-1.1,2.6-1.7,4c-1.2-0.2-2.5,0.5-3,1.7
									c-0.5,1.2-0.2,2.5,0.8,3.3c-0.6,1.3-1.2,2.6-1.8,3.9c-1.2-0.2-2.5,0.4-3.1,1.6c-0.6,1.2-0.2,2.5,0.7,3.3
									c-0.6,1.3-1.2,2.6-1.9,3.9c-1.2-0.2-2.5,0.4-3.1,1.5c-0.6,1.2-0.3,2.5,0.6,3.4c-0.6,1.3-1.3,2.6-2,3.8
									c-1.2-0.3-2.5,0.3-3.1,1.4c-0.6,1.1-0.4,2.5,0.5,3.4c-0.6,1.1-1.3,2.2-1.9,3.4c0.4,0.2,0.8,0.5,1.3,0.7
									C430.9,661.7,431.6,660.6,432.2,659.5z"/>
							</g>
						</g>
					</g>
				</g>
				<g>
					<g>
						<g>
							<g>
								<linearGradient id="SVGID_13_" gradientUnits="userSpaceOnUse" x1="400.3931" y1="682.4524" x2="430.8154" y2="682.4524">
									<stop  offset="1.862220e-02" style="stop-color:#9A8684"/>
									<stop  offset="0.4235" style="stop-color:#D3C5C6"/>
									<stop  offset="0.4999" style="stop-color:#DED1D3"/>
									<stop  offset="0.5991" style="stop-color:#D1C0C0"/>
									<stop  offset="0.7129" style="stop-color:#C7B4B1"/>
									<stop  offset="0.8064" style="stop-color:#C4AFAC"/>
									<stop  offset="0.8566" style="stop-color:#B8A19E"/>
									<stop  offset="0.9516" style="stop-color:#977E78"/>
									<stop  offset="0.9972" style="stop-color:#866B64"/>
								</linearGradient>
								<path fill="url(#SVGID_13_)" d="M404,699.8c1.1,0.5,2.5,0.2,3.4-0.8c0.9-1,0.9-2.4,0.2-3.4c0.9-1.1,1.8-2.3,2.7-3.4
									c1.1,0.5,2.5,0.1,3.4-0.9c0.9-1,0.8-2.5,0-3.4c0.9-1.2,1.7-2.3,2.6-3.5c1.2,0.4,2.5,0,3.3-1.1c0.8-1.1,0.7-2.5-0.1-3.4
									c0.8-1.2,1.6-2.4,2.4-3.6c1.2,0.4,2.6-0.1,3.3-1.2c0.7-1.1,0.6-2.5-0.3-3.4c0.8-1.2,1.5-2.5,2.3-3.7
									c1.2,0.3,2.5-0.2,3.2-1.3c0.7-1.1,0.5-2.5-0.4-3.4c0.1-0.1,0.2-0.3,0.2-0.4c-0.4-0.2-0.8-0.5-1.3-0.7
									c-0.1,0.1-0.2,0.3-0.2,0.4c-1.2-0.3-2.5,0.2-3.2,1.3c-0.7,1.1-0.4,2.5,0.4,3.4c-0.8,1.2-1.5,2.4-2.3,3.7
									c-1.2-0.3-2.5,0.1-3.2,1.2c-0.7,1.1-0.6,2.5,0.2,3.4c-0.8,1.2-1.6,2.4-2.4,3.6c-1.2-0.4-2.5,0-3.2,1.1
									c-0.8,1.1-0.7,2.4,0.1,3.4c-0.9,1.2-1.7,2.3-2.6,3.5c-1.2-0.4-2.5-0.1-3.3,1c-0.8,1-0.8,2.4-0.1,3.4
									c-0.9,1.1-1.8,2.3-2.7,3.4c-1.1-0.5-2.5-0.2-3.4,0.8c-0.9,1-0.9,2.4-0.2,3.4c-0.8,1-1.7,2-2.5,2.9c0.4,0.3,0.7,0.6,1.1,0.9
									C402.3,701.8,403.2,700.8,404,699.8z"/>
							</g>
						</g>
					</g>
				</g>
			</g>
			<g>
				<g>
					<g>
						<g>
							<linearGradient id="SVGID_14_" gradientUnits="userSpaceOnUse" x1="437.9754" y1="342.9059" x2="461.083" y2="342.9059">
								<stop  offset="1.862220e-02" style="stop-color:#9A8684"/>
								<stop  offset="0.4235" style="stop-color:#D3C5C6"/>
								<stop  offset="0.4999" style="stop-color:#DED1D3"/>
								<stop  offset="0.5991" style="stop-color:#D1C0C0"/>
								<stop  offset="0.7129" style="stop-color:#C7B4B1"/>
								<stop  offset="0.8064" style="stop-color:#C4AFAC"/>
								<stop  offset="0.8566" style="stop-color:#B8A19E"/>
								<stop  offset="0.9516" style="stop-color:#977E78"/>
								<stop  offset="0.9972" style="stop-color:#866B64"/>
							</linearGradient>
							<path fill="url(#SVGID_14_)" d="M439.5,353.5c2.8-4,5.7-8.1,8.7-12.1c1.5-2.1,3.2-3.7,5.5-5.1c1.9-1.1,4.2-2.4,6.5-2.5
								c1.3-0.1,1.3-1.7,0-1.8c-2.6-0.2-5.2,1.1-7.3,2.3c-2.4,1.4-4.3,3-5.9,5.1c-1.8,2.2-3.2,4.7-4.9,6.9c-1.5,2-3.6,4.2-4,6.6
								C437.8,353.8,439,354.2,439.5,353.5L439.5,353.5z"/>
						</g>
					</g>
				</g>
			</g>
			<g>
				<g>
					<g>
						<g>
							<linearGradient id="SVGID_15_" gradientUnits="userSpaceOnUse" x1="437.7833" y1="411.9609" x2="493.3435" y2="411.9609">
								<stop  offset="1.862220e-02" style="stop-color:#9A8684"/>
								<stop  offset="0.4235" style="stop-color:#D3C5C6"/>
								<stop  offset="0.4999" style="stop-color:#DED1D3"/>
								<stop  offset="0.5991" style="stop-color:#D1C0C0"/>
								<stop  offset="0.7129" style="stop-color:#C7B4B1"/>
								<stop  offset="0.8064" style="stop-color:#C4AFAC"/>
								<stop  offset="0.8566" style="stop-color:#B8A19E"/>
								<stop  offset="0.9516" style="stop-color:#977E78"/>
								<stop  offset="0.9972" style="stop-color:#866B64"/>
							</linearGradient>
							<path fill="url(#SVGID_15_)" d="M440.4,351.3c0.1-0.2,0.3-0.3,0.4-0.5c-0.5-0.2-1-0.3-1.4-0.5c-0.1-0.5-0.6,0.7-0.8,1
								c-0.3,0.5-0.5,0.9-0.8,1.4c-0.3,0.6-0.1,1.2,0.6,1.4c6.9,1.9,3.9,10.3,2.6,14.6c-0.7,2.4-1.3,4.8-1.1,7.3
								c0.3,2.8,1.3,5.5,2.2,8.1c1,2.7,1.7,5.5,1.7,8.4c-0.1,3.1-0.8,6.1-1.6,9.1c-1.3,5.1-2.7,10.5-1.2,15.7
								c1.3,4.9,4.9,8.9,7,13.5c1.2,2.6,1.6,5.3,1.5,8.1c-0.1,2.4-0.2,4.8,1,7.1c0.8,1.5,2,2.9,3.8,3.5c2.8,0.9,5.4-0.6,8-1.4
								c5.5-1.6,11.9-0.3,13.1,5.7c0.9,4.4,0.1,10.6,5.4,12.9c2.3,1,5.2-0.7,7.1,0.7c1.5,1.1,3.5,4.1,3.1,6.1
								c-0.3,1.3,1.8,1.8,2.1,0.5c0.7-3-1.8-7-4.4-8.6c-2.2-1.3-4.2,0.3-6.5-0.4c-3-0.9-3.8-4.5-4.1-7.1c-0.5-4.7-0.9-9.6-6.1-11.6
								c-4.8-1.9-9-0.3-13.6,0.9c-4.5,1.1-6.2-2.3-6.4-5.9c-0.1-3,0.3-5.9-0.6-8.8c-1.6-5.1-5.5-9.2-7.4-14.1
								c-2.4-6.2-0.2-12.4,1.2-18.5c1.3-5.7,1.3-10.7-0.7-16.3c-1.3-3.7-2.7-7.3-2-11.2c0.6-3.1,2-6.1,2.5-9.2
								c0.6-4.3-1.1-9.6-6.1-10.8c0.2,0.5,0.4,0.9,0.6,1.4c0.4-1,2-2.7,1.7-3.8c-0.2-0.5-0.9-0.9-1.4-0.5c-0.3,0.2-0.6,0.5-0.8,0.8
								C438.3,351,439.6,352.2,440.4,351.3L440.4,351.3z"/>
						</g>
					</g>
				</g>
			</g>
			<g>
				<g>
					<g>
						<g>
							<linearGradient id="SVGID_16_" gradientUnits="userSpaceOnUse" x1="5" y1="426.8208" x2="443.0409" y2="426.8208">
								<stop  offset="1.862220e-02" style="stop-color:#9A8684"/>
								<stop  offset="0.4235" style="stop-color:#D3C5C6"/>
								<stop  offset="0.4999" style="stop-color:#DED1D3"/>
								<stop  offset="0.5991" style="stop-color:#D1C0C0"/>
								<stop  offset="0.7129" style="stop-color:#C7B4B1"/>
								<stop  offset="0.8064" style="stop-color:#C4AFAC"/>
								<stop  offset="0.8566" style="stop-color:#B8A19E"/>
								<stop  offset="0.9516" style="stop-color:#977E78"/>
								<stop  offset="0.9972" style="stop-color:#866B64"/>
							</linearGradient>
							<path fill="url(#SVGID_16_)" d="M7.4,513.1c3.1-12.6,7.7-24.7,14.7-35.9c6.6-10.6,15.1-20.1,24.7-28.4
								c19.7-17.3,44.1-29.6,69-39c30.3-11.5,62.3-19.2,94.2-26.3c37.8-8.4,76-15.3,113.9-23.3c18.6-3.9,37.1-8.4,55.7-12.7
								c16-3.8,33.3-6.8,49.6-2.6c4,1,7.7,2.5,11.2,4.4c2,1.1,3.7-1.8,1.8-2.8c-14.3-7.9-31.2-7.9-47.2-5.5
								c-8.6,1.3-17.1,3.4-25.5,5.5c-9.7,2.4-19.4,4.6-29.1,6.7c-38.9,8.6-78.1,15.7-116.9,24.2c-33.9,7.4-68.1,15-100.6,26.7
								c-25.7,9.2-50.5,21-71.7,37.5c-20.6,16.1-36.7,36.9-43.9,61.2c-1,3.2-1.7,6.5-2.3,9.8C4.8,514.2,7.1,514.6,7.4,513.1
								L7.4,513.1z"/>
						</g>
					</g>
				</g>
			</g>
			<g>
				<g>
					<g>
						<g>
							<linearGradient id="SVGID_17_" gradientUnits="userSpaceOnUse" x1="5.9404" y1="560.9874" x2="205.2756" y2="560.9874">
								<stop  offset="1.862220e-02" style="stop-color:#9A8684"/>
								<stop  offset="0.4235" style="stop-color:#D3C5C6"/>
								<stop  offset="0.4999" style="stop-color:#DED1D3"/>
								<stop  offset="0.5991" style="stop-color:#D1C0C0"/>
								<stop  offset="0.7129" style="stop-color:#C7B4B1"/>
								<stop  offset="0.8064" style="stop-color:#C4AFAC"/>
								<stop  offset="0.8566" style="stop-color:#B8A19E"/>
								<stop  offset="0.9516" style="stop-color:#977E78"/>
								<stop  offset="0.9972" style="stop-color:#866B64"/>
							</linearGradient>
							<path fill="url(#SVGID_17_)" d="M6.3,513.7c7.2,4.5,14.4,9.1,21.6,13.7c6.8,4.3,13.4,8.7,18.7,14.6c5,5.6,9.3,11.6,14.6,17
								c5.3,5.4,11.2,10.3,17.4,14.8c22.8,16.6,49.5,27.8,77.4,33c15.8,2.9,31.9,3.9,48,2.7c1.8-0.1,1.7-2.9-0.2-2.8
								c-28.3,2.2-57-2.2-83.3-12.6c-13.2-5.2-25.8-11.9-37.4-20c-6-4.2-11.9-8.8-17.2-13.8c-5.7-5.3-10.4-11.4-15.4-17.3
								c-5.4-6.4-11.8-11.3-18.9-15.8c-7.9-5-15.9-10-23.9-14.9C6.6,511.6,5.3,513,6.3,513.7L6.3,513.7z"/>
						</g>
					</g>
				</g>
			</g>
			<g>
				<g>
					<g>
						<g>
							<linearGradient id="SVGID_18_" gradientUnits="userSpaceOnUse" x1="203.5204" y1="633.9142" x2="472.5899" y2="633.9142">
								<stop  offset="1.862220e-02" style="stop-color:#9A8684"/>
								<stop  offset="0.4235" style="stop-color:#D3C5C6"/>
								<stop  offset="0.4999" style="stop-color:#DED1D3"/>
								<stop  offset="0.5991" style="stop-color:#D1C0C0"/>
								<stop  offset="0.7129" style="stop-color:#C7B4B1"/>
								<stop  offset="0.8064" style="stop-color:#C4AFAC"/>
								<stop  offset="0.8566" style="stop-color:#B8A19E"/>
								<stop  offset="0.9516" style="stop-color:#977E78"/>
								<stop  offset="0.9972" style="stop-color:#866B64"/>
							</linearGradient>
							<path fill="url(#SVGID_18_)" d="M204,609.1c-2.2,11.1,4.4,21.3,11.4,29.3c6.8,7.9,14.7,14.9,23.3,20.8
								c17.8,12.3,38.8,20.1,60.4,22.1c23.4,2.2,47.1-2,68.3-12.1c2.7-1.3,5.5-2.7,8.4-3.5c3.1-0.8,6.3-0.7,9.5-0.9
								c5.4-0.2,9.5-2,13-6.1c3.5-4.2,6.7-8.3,10.8-12c4.3-3.9,9-7.3,13.8-10.5c19.2-12.8,43-24.9,49.7-48.5
								c0.5-1.8-2.4-2.5-2.9-0.7c-5.7,20.3-25.5,32.1-42.4,42.9c-8.8,5.6-17.5,11.5-24.6,19c-3.4,3.6-6.1,8.7-10.4,11.4
								c-4.7,3-11,1.3-16.2,2.5c-5.5,1.3-10.5,4.5-15.7,6.7c-5.2,2.2-10.5,4.1-15.9,5.5c-11.2,3.1-22.7,4.6-34.3,4.5
								c-21.6-0.1-42.5-6-61.2-16.7c-10-5.7-19.2-12.8-27.2-21.1c-8.3-8.5-17.8-19.7-15.9-32.4C206.2,608.2,204.2,607.8,204,609.1
								L204,609.1z"/>
						</g>
					</g>
				</g>
			</g>
			<g>
				<g>
					<g>
						<g>
							<linearGradient id="SVGID_19_" gradientUnits="userSpaceOnUse" x1="61.3632" y1="465.4941" x2="442.1131" y2="465.4941">
								<stop  offset="1.862220e-02" style="stop-color:#9A8684"/>
								<stop  offset="0.4235" style="stop-color:#D3C5C6"/>
								<stop  offset="0.4999" style="stop-color:#DED1D3"/>
								<stop  offset="0.5991" style="stop-color:#D1C0C0"/>
								<stop  offset="0.7129" style="stop-color:#C7B4B1"/>
								<stop  offset="0.8064" style="stop-color:#C4AFAC"/>
								<stop  offset="0.8566" style="stop-color:#B8A19E"/>
								<stop  offset="0.9516" style="stop-color:#977E78"/>
								<stop  offset="0.9972" style="stop-color:#866B64"/>
							</linearGradient>
							<path fill="url(#SVGID_19_)" d="M63.9,557.5c28-43,73.5-71.6,121.9-91.4c26.9-11,54.8-19.7,82.8-28.2
								c27.7-8.5,55.5-16.9,83-26.3c30.5-10.4,60.7-22.1,89.6-36.2c1.8-0.9,0.2-3.4-1.6-2.5c-53,25.8-109.6,43.1-165.7,60.4
								c-53.9,16.6-109,33.2-155,65c-22.8,15.7-43.2,35-57.5,58.1C60.7,557.9,63,558.9,63.9,557.5L63.9,557.5z"/>
						</g>
					</g>
				</g>
			</g>
			<g>
				<g>
					<g>
						<g>
							<linearGradient id="SVGID_20_" gradientUnits="userSpaceOnUse" x1="137.0798" y1="502.7105" x2="443.5957" y2="502.7105">
								<stop  offset="1.862220e-02" style="stop-color:#9A8684"/>
								<stop  offset="0.4235" style="stop-color:#D3C5C6"/>
								<stop  offset="0.4999" style="stop-color:#DED1D3"/>
								<stop  offset="0.5991" style="stop-color:#D1C0C0"/>
								<stop  offset="0.7129" style="stop-color:#C7B4B1"/>
								<stop  offset="0.8064" style="stop-color:#C4AFAC"/>
								<stop  offset="0.8566" style="stop-color:#B8A19E"/>
								<stop  offset="0.9516" style="stop-color:#977E78"/>
								<stop  offset="0.9972" style="stop-color:#866B64"/>
							</linearGradient>
							<path fill="url(#SVGID_20_)" d="M138,601.6c8.8-7.6,15.3-17.2,22.2-26.5c7.1-9.6,14.7-18.9,22.6-28c8-9.2,16.5-18.1,26-26
								c9-7.5,18.8-14.1,29.2-19.7c20.6-11.3,42.9-19.2,65.3-26.9c11.2-3.8,22.4-7.6,33.5-11.8c12.3-4.6,24.3-9.7,36.4-14.8
								c6.6-2.8,13.2-5.6,19.5-8.9c5.7-3,11.1-6.6,16.4-10.2c11-7.7,21.7-16.1,33.9-22.3c1.9-0.9,0.2-3.6-1.7-2.7
								c-10.8,5.5-20.4,12.7-30.1,19.6c-10,7.1-20.2,13.4-31.6,18.4c-23.2,10.2-46.8,19.3-70.7,27.5c-22.3,7.6-44.6,15.3-65.5,25.8
								c-10.5,5.3-20.5,11.3-29.7,18.3c-9.5,7.3-18.2,15.6-26,24.5c-9,10.2-17.2,20.9-25.3,31.6c-8.1,10.6-15.3,21.6-24.8,31.1
								C136.8,601.2,137.5,602.1,138,601.6L138,601.6z"/>
						</g>
					</g>
				</g>
			</g>
			<g>
				<g>
					<g>
						<g>
							<linearGradient id="SVGID_21_" gradientUnits="userSpaceOnUse" x1="205.5897" y1="512.4891" x2="443.6565" y2="512.4891">
								<stop  offset="1.862220e-02" style="stop-color:#9A8684"/>
								<stop  offset="0.4235" style="stop-color:#D3C5C6"/>
								<stop  offset="0.4999" style="stop-color:#DED1D3"/>
								<stop  offset="0.5991" style="stop-color:#D1C0C0"/>
								<stop  offset="0.7129" style="stop-color:#C7B4B1"/>
								<stop  offset="0.8064" style="stop-color:#C4AFAC"/>
								<stop  offset="0.8566" style="stop-color:#B8A19E"/>
								<stop  offset="0.9516" style="stop-color:#977E78"/>
								<stop  offset="0.9972" style="stop-color:#866B64"/>
							</linearGradient>
							<path fill="url(#SVGID_21_)" d="M206.6,608c8-6.5,15.5-13.8,23.3-20.6c7.9-6.8,15.9-13.6,24-20.3
								c16.5-13.6,33.4-27,50.3-40.3c7.9-6.3,15.8-12.7,24.2-18.3c8.7-5.7,18.2-10.1,27-15.7c9-5.7,17.7-11.8,26.5-17.7
								c8.3-5.6,16.8-11,25.1-16.6c15.2-10.3,30.6-22.4,36.5-39.9c0.6-1.8-2.4-2.5-3-0.7c-5.3,15.9-19.1,27.1-32.9,36.6
								C391,466,374,477.2,357,488.3c-8.5,5.6-17.7,9.9-26.3,15.3c-8.4,5.2-16.1,11.5-23.7,17.6c-16.3,13-32.5,26.1-48.5,39.4
								c-9,7.5-18,15.1-26.8,22.8c-8.8,7.7-17.9,15.2-25.9,23.6C205.2,607.5,206,608.5,206.6,608L206.6,608z"/>
						</g>
					</g>
				</g>
			</g>
			<g>
				<g>
					<g>
						<g>
							<linearGradient id="SVGID_22_" gradientUnits="userSpaceOnUse" x1="257.2156" y1="556.3038" x2="451.7754" y2="556.3038">
								<stop  offset="1.862220e-02" style="stop-color:#9A8684"/>
								<stop  offset="0.4235" style="stop-color:#D3C5C6"/>
								<stop  offset="0.4999" style="stop-color:#DED1D3"/>
								<stop  offset="0.5991" style="stop-color:#D1C0C0"/>
								<stop  offset="0.7129" style="stop-color:#C7B4B1"/>
								<stop  offset="0.8064" style="stop-color:#C4AFAC"/>
								<stop  offset="0.8566" style="stop-color:#B8A19E"/>
								<stop  offset="0.9516" style="stop-color:#977E78"/>
								<stop  offset="0.9972" style="stop-color:#866B64"/>
							</linearGradient>
							<path fill="url(#SVGID_22_)" d="M258.3,668.7c3.3-19.6,12-38.3,21.5-55.8c4.8-9,10.4-17.4,16.9-25.3
								c6.3-7.7,13.1-15.1,19.9-22.5c13.7-14.9,27.8-29.7,43.8-42.5c14.8-11.8,31.3-21.4,46.3-33.1c8.2-6.4,15.6-13.5,22.4-21.4
								c6.7-7.8,13.2-16.1,22-21.9c1.5-1,0.1-3.4-1.5-2.4c-7.8,5-13.9,11.7-19.7,18.6c-6.1,7.2-12.4,14.1-19.7,20.3
								c-14.8,12.6-31.9,22.4-47.4,34.1c-16.5,12.4-30.8,27-44.6,42c-13.7,14.9-27.9,29.9-37.9,47.4c-5.7,9.9-10.3,20.5-14.6,31
								c-4.2,10-8.1,20.5-8.5,31.4C257.2,669.2,258.2,669.3,258.3,668.7L258.3,668.7z"/>
						</g>
					</g>
				</g>
			</g>
			<g>
				<g>
					<g>
						<g>
							<linearGradient id="SVGID_23_" gradientUnits="userSpaceOnUse" x1="323.1989" y1="566.4662" x2="476.6537" y2="566.4662">
								<stop  offset="1.862220e-02" style="stop-color:#9A8684"/>
								<stop  offset="0.4235" style="stop-color:#D3C5C6"/>
								<stop  offset="0.4999" style="stop-color:#DED1D3"/>
								<stop  offset="0.5991" style="stop-color:#D1C0C0"/>
								<stop  offset="0.7129" style="stop-color:#C7B4B1"/>
								<stop  offset="0.8064" style="stop-color:#C4AFAC"/>
								<stop  offset="0.8566" style="stop-color:#B8A19E"/>
								<stop  offset="0.9516" style="stop-color:#977E78"/>
								<stop  offset="0.9972" style="stop-color:#866B64"/>
							</linearGradient>
							<path fill="url(#SVGID_23_)" d="M324.3,680.3c1.2-9.3,2.5-18.6,4.9-27.7c2.3-9.2,5.4-18.2,9-26.9c7.2-17.6,16.4-34.3,26-50.7
								c9.6-16.4,19.1-33,32.9-46.6c12.5-12.2,27-22.4,39.8-34.5c7-6.6,13-13.8,18.5-21.5c5.1-7.2,10.9-15.2,20.3-17.5
								c1.7-0.4,1-3-0.8-2.5c-7.9,2-13.5,7.6-18.2,13.6c-5.2,6.8-9.8,13.8-15.8,20.1c-12.5,13.1-27.4,23.6-40.7,35.7
								c-6.9,6.3-13.2,13-18.6,20.5c-5.9,8-10.8,16.6-15.7,25.2c-9.7,16.9-19.3,33.9-27,51.7c-4.3,9.8-8,19.8-10.8,30
								c-2.8,10.2-4.9,20.7-4.9,31.2C323.2,680.8,324.3,681,324.3,680.3L324.3,680.3z"/>
						</g>
					</g>
				</g>
			</g>
			<g>
				<g>
					<g>
						<g>
							<linearGradient id="SVGID_24_" gradientUnits="userSpaceOnUse" x1="390.3571" y1="564.3596" x2="482.1583" y2="564.3596">
								<stop  offset="1.862220e-02" style="stop-color:#9A8684"/>
								<stop  offset="0.4235" style="stop-color:#D3C5C6"/>
								<stop  offset="0.4999" style="stop-color:#DED1D3"/>
								<stop  offset="0.5991" style="stop-color:#D1C0C0"/>
								<stop  offset="0.7129" style="stop-color:#C7B4B1"/>
								<stop  offset="0.8064" style="stop-color:#C4AFAC"/>
								<stop  offset="0.8566" style="stop-color:#B8A19E"/>
								<stop  offset="0.9516" style="stop-color:#977E78"/>
								<stop  offset="0.9972" style="stop-color:#866B64"/>
							</linearGradient>
							<path fill="url(#SVGID_24_)" d="M391.4,662.8c1.8-6.8,2.4-14,3.7-20.9c1.4-7,3-13.9,4.9-20.7c3.8-13.8,8.7-27.4,14.8-40.5
								c5.9-12.8,12.5-25.7,21.1-37c4.5-6,10-11,15.1-16.5c4.8-5.2,9-10.9,12.5-16.9c7.9-13.5,14.1-28.3,18.6-43.2
								c0.5-1.6-2.1-2.2-2.6-0.7c-4.2,13.7-9.7,27-16.6,39.6c-3.5,6.4-7.6,12.6-12.6,18.1c-4.9,5.4-10.4,10.4-14.9,16.1
								c-8.9,11.1-15.6,24-21.6,36.7c-6,12.7-11,25.9-14.9,39.3c-2.2,7.6-4.1,15.4-5.6,23.1c-1.5,7.6-3.3,15.6-3,23.4
								C390.4,663.3,391.2,663.4,391.4,662.8C391.4,662.8,391.4,662.8,391.4,662.8z"/>
						</g>
					</g>
				</g>
			</g>
			<g>
				<g>
					<g>
						<g>
							<linearGradient id="SVGID_25_" gradientUnits="userSpaceOnUse" x1="471.0395" y1="524.8359" x2="495.9276" y2="524.8359">
								<stop  offset="1.862220e-02" style="stop-color:#9A8684"/>
								<stop  offset="0.4235" style="stop-color:#D3C5C6"/>
								<stop  offset="0.4999" style="stop-color:#DED1D3"/>
								<stop  offset="0.5991" style="stop-color:#D1C0C0"/>
								<stop  offset="0.7129" style="stop-color:#C7B4B1"/>
								<stop  offset="0.8064" style="stop-color:#C4AFAC"/>
								<stop  offset="0.8566" style="stop-color:#B8A19E"/>
								<stop  offset="0.9516" style="stop-color:#977E78"/>
								<stop  offset="0.9972" style="stop-color:#866B64"/>
							</linearGradient>
							<path fill="url(#SVGID_25_)" d="M472.1,588.9c2.5-2.8,3.8-6.8,5-10.2c1.4-4,2.5-8.1,3.5-12.2c2-8.9,3.6-17.9,5.4-26.8
								c1.8-9.2,3.6-18.4,5.5-27.6c1.6-8.1,3.2-16.2,4-24.4c0.4-4.5,0.6-9,0.5-13.5c-0.1-4.2-0.1-8.9-1.6-12.9
								c-0.3-0.9-1.9-0.8-1.9,0.2c0.1,3.7,0.9,7.4,1,11.1c0.1,3.9,0,7.9-0.2,11.8c-0.5,8.2-2,16.3-3.6,24.3
								c-3.5,17.7-6.7,35.4-10.4,53c-0.9,4.4-2,8.8-3.3,13.2c-0.7,2.3-1.5,4.6-2.3,6.8c-0.9,2.2-2,4.3-2.6,6.7
								C470.9,588.9,471.7,589.4,472.1,588.9C472.1,588.9,472.1,588.9,472.1,588.9z"/>
						</g>
					</g>
				</g>
			</g>
			<g>
				<g>
					<g>
						<g>
							<linearGradient id="SVGID_26_" gradientUnits="userSpaceOnUse" x1="471.8834" y1="599.0446" x2="507.6563" y2="599.0446">
								<stop  offset="1.862220e-02" style="stop-color:#9A8684"/>
								<stop  offset="0.4235" style="stop-color:#D3C5C6"/>
								<stop  offset="0.4999" style="stop-color:#DED1D3"/>
								<stop  offset="0.5991" style="stop-color:#D1C0C0"/>
								<stop  offset="0.7129" style="stop-color:#C7B4B1"/>
								<stop  offset="0.8064" style="stop-color:#C4AFAC"/>
								<stop  offset="0.8566" style="stop-color:#B8A19E"/>
								<stop  offset="0.9516" style="stop-color:#977E78"/>
								<stop  offset="0.9972" style="stop-color:#866B64"/>
							</linearGradient>
							<path fill="url(#SVGID_26_)" d="M472.1,586.5c0.7,5.3,1.2,10.4,0.4,15.7c-0.4,2.9-1.7,7.4,1.3,9.4c1.6,1.1,3.5,0.7,5.3,0.3
								c2.6-0.5,5.2-1.1,7.8-1.5c3-0.6,6-0.9,9-1.2c3.5-0.3,6.9-0.4,10.4,0.1c1.1,0.2,1.8-1.2,0.8-1.8c-1.3-0.7-3-0.7-4.5-0.8
								c-2,0-4,0.1-6.1,0.2c-3.7,0.3-7.4,0.7-11.1,1.5c-1.7,0.3-3.4,0.7-5.1,1c-1.3,0.3-3,0.9-4.3,0.7c-2.8-0.3-2.1-4.2-1.8-6
								c1-5.9,1.1-12.2-0.7-18C473.4,585.5,472,585.6,472.1,586.5L472.1,586.5z"/>
						</g>
					</g>
				</g>
			</g>
			<g>
				<g>
					<g>
						<g>
							<linearGradient id="SVGID_27_" gradientUnits="userSpaceOnUse" x1="471.9206" y1="630.7844" x2="501.2375" y2="630.7844">
								<stop  offset="1.862220e-02" style="stop-color:#9A8684"/>
								<stop  offset="0.4235" style="stop-color:#D3C5C6"/>
								<stop  offset="0.4999" style="stop-color:#DED1D3"/>
								<stop  offset="0.5991" style="stop-color:#D1C0C0"/>
								<stop  offset="0.7129" style="stop-color:#C7B4B1"/>
								<stop  offset="0.8064" style="stop-color:#C4AFAC"/>
								<stop  offset="0.8566" style="stop-color:#B8A19E"/>
								<stop  offset="0.9516" style="stop-color:#977E78"/>
								<stop  offset="0.9972" style="stop-color:#866B64"/>
							</linearGradient>
							<path fill="url(#SVGID_27_)" d="M473.2,609.4c-0.8,3.7-0.6,7.6-0.9,11.3c-0.2,3.4-0.3,6.8-0.2,10.2c0,6.9,0.2,13.8-0.2,20.7
								c-0.1,1,1.2,1.5,2,1.1c4.4-2.3,8.5-5.1,13-7.4c2.3-1.2,4.7-2.2,7.2-2.8c2.2-0.6,4.5-0.2,6.7-0.7c0.6-0.1,0.7-1.1,0.2-1.4
								c-1.8-1-4.2-0.6-6.2-0.3c-2.6,0.4-5.1,1.3-7.5,2.4c-5.1,2.2-9.8,5.3-14.6,7.9c0.7,0.4,1.3,0.7,2,1.1
								c0.4-6.9,0.2-13.8,0.2-20.7c0-3.3,0-6.6,0.1-9.9c0.1-3.8,0.8-7.9,0.1-11.6C474.7,608.5,473.4,608.6,473.2,609.4L473.2,609.4z
								"/>
						</g>
					</g>
				</g>
			</g>
			<g>
				<g>
					<g>
						<g>
							<linearGradient id="SVGID_28_" gradientUnits="userSpaceOnUse" x1="472.005" y1="662.4693" x2="501.2781" y2="662.4693">
								<stop  offset="1.862220e-02" style="stop-color:#9A8684"/>
								<stop  offset="0.4235" style="stop-color:#D3C5C6"/>
								<stop  offset="0.4999" style="stop-color:#DED1D3"/>
								<stop  offset="0.5991" style="stop-color:#D1C0C0"/>
								<stop  offset="0.7129" style="stop-color:#C7B4B1"/>
								<stop  offset="0.8064" style="stop-color:#C4AFAC"/>
								<stop  offset="0.8566" style="stop-color:#B8A19E"/>
								<stop  offset="0.9516" style="stop-color:#977E78"/>
								<stop  offset="0.9972" style="stop-color:#866B64"/>
							</linearGradient>
							<path fill="url(#SVGID_28_)" d="M472.4,647.1c-0.6,2.7-0.4,5.6-0.4,8.4c0,2.9,0,5.8,0.1,8.7c0.1,3.9-0.4,9.4,2.4,12.5
								c3.4,3.7,8.1,0.8,11.2-1.7c2-1.6,4.2-3.3,6.7-4.2c1.2-0.4,2.4-0.7,3.7-0.8c1.4-0.1,2.8,0.4,4.2,0.6c0.7,0.1,1.4-0.7,0.8-1.3
								c-3.3-2.8-8.9-1.1-12.2,0.8c-2.1,1.1-3.8,2.7-5.7,4c-1.7,1.2-4.2,2.8-6.2,1.4c-1.5-1.1-1.8-3.2-2-4.9
								c-0.2-2.5-0.2-5.1-0.3-7.6c-0.1-2.7-0.2-5.4-0.2-8.2c0-2.6,0.2-5.3-0.3-7.8C474,646.2,472.6,646.2,472.4,647.1L472.4,647.1z"
								/>
						</g>
					</g>
				</g>
			</g>
			<g>
				<g>
					<g>
						<g>
							<linearGradient id="SVGID_29_" gradientUnits="userSpaceOnUse" x1="474.9944" y1="696.3586" x2="490.2274" y2="696.3586">
								<stop  offset="1.862220e-02" style="stop-color:#9A8684"/>
								<stop  offset="0.4235" style="stop-color:#D3C5C6"/>
								<stop  offset="0.4999" style="stop-color:#DED1D3"/>
								<stop  offset="0.5991" style="stop-color:#D1C0C0"/>
								<stop  offset="0.7129" style="stop-color:#C7B4B1"/>
								<stop  offset="0.8064" style="stop-color:#C4AFAC"/>
								<stop  offset="0.8566" style="stop-color:#B8A19E"/>
								<stop  offset="0.9516" style="stop-color:#977E78"/>
								<stop  offset="0.9972" style="stop-color:#866B64"/>
							</linearGradient>
							<path fill="url(#SVGID_29_)" d="M475,674.3c0.1,4.8,2.3,9.6,3.4,14.3c0.7,3.1,1.3,6.2,1.7,9.4c0.2,1.4,0.4,2.9,0.6,4.3
								c0.3,2.7-0.6,5.4-0.2,8.2c0.7,4.7,4,8.2,8.9,8.3c1,0,1.2-1.5,0.2-1.7c-3-0.7-5.4-1.5-6.5-4.7c-0.9-2.7-0.2-5.3-0.1-8
								c0.1-2.9-0.6-6-1-8.8c-0.5-2.9-1.1-5.8-1.8-8.6c-1.1-4.2-2-9.2-4.6-12.9C475.5,673.8,475,673.9,475,674.3
								C475,674.3,475,674.3,475,674.3z"/>
						</g>
					</g>
				</g>
			</g>
			<g>
				<g>
					<g>
						<g>
							<linearGradient id="SVGID_30_" gradientUnits="userSpaceOnUse" x1="483.5914" y1="730.2119" x2="501.4896" y2="730.2119">
								<stop  offset="1.862220e-02" style="stop-color:#9A8684"/>
								<stop  offset="0.4235" style="stop-color:#D3C5C6"/>
								<stop  offset="0.4999" style="stop-color:#DED1D3"/>
								<stop  offset="0.5991" style="stop-color:#D1C0C0"/>
								<stop  offset="0.7129" style="stop-color:#C7B4B1"/>
								<stop  offset="0.8064" style="stop-color:#C4AFAC"/>
								<stop  offset="0.8566" style="stop-color:#B8A19E"/>
								<stop  offset="0.9516" style="stop-color:#977E78"/>
								<stop  offset="0.9972" style="stop-color:#866B64"/>
							</linearGradient>
							<path fill="url(#SVGID_30_)" d="M483.6,714.2c0.7,3.1,3,5.9,4.5,8.7c1.7,3.2,3.3,6.5,4.3,10c1.4,4.5,2.1,12.4,7.7,13.7
								c1.1,0.3,1.8-1.3,0.8-1.8c-2.5-1.2-3.8-3.2-4.6-5.7c-1-3-1.6-6.2-2.7-9.2c-1.1-2.8-2.4-5.6-3.9-8.2c-1.5-2.6-3.1-5.9-5.5-7.8
								C483.9,713.7,483.5,713.8,483.6,714.2C483.6,714.2,483.6,714.2,483.6,714.2z"/>
						</g>
					</g>
				</g>
			</g>
			<g>
				<g>
					<g>
						<g>
							<linearGradient id="SVGID_31_" gradientUnits="userSpaceOnUse" x1="493.8911" y1="481.4094" x2="505.3158" y2="481.4094">
								<stop  offset="1.862220e-02" style="stop-color:#9A8684"/>
								<stop  offset="0.4235" style="stop-color:#D3C5C6"/>
								<stop  offset="0.4999" style="stop-color:#DED1D3"/>
								<stop  offset="0.5991" style="stop-color:#D1C0C0"/>
								<stop  offset="0.7129" style="stop-color:#C7B4B1"/>
								<stop  offset="0.8064" style="stop-color:#C4AFAC"/>
								<stop  offset="0.8566" style="stop-color:#B8A19E"/>
								<stop  offset="0.9516" style="stop-color:#977E78"/>
								<stop  offset="0.9972" style="stop-color:#866B64"/>
							</linearGradient>
							<path fill="url(#SVGID_31_)" d="M494.7,482.8c1.7,0,3.3,0,5-0.1c0.9-0.1,1.8-0.1,2.7-0.2c0.9-0.1,2.5,0,2.7-1.1
								c-0.1,0.2-0.3,0.3-0.4,0.5c0.1,0,0.1-0.1,0.2-0.1c0.6-0.3,0.4-1.2-0.2-1.3c-0.1,0-0.2-0.1-0.3-0.1c0.2,0.2,0.4,0.4,0.6,0.6
								c-0.4-1-1.7-0.9-2.7-0.8c-0.9,0.1-1.9,0.2-2.8,0.3c-1.7,0.2-3.4,0.4-5.1,0.8C493.6,481.4,493.8,482.7,494.7,482.8
								C494.7,482.8,494.7,482.8,494.7,482.8z"/>
						</g>
					</g>
				</g>
			</g>
			<g>
				<g>
					<g>
						<g>
							<linearGradient id="SVGID_32_" gradientUnits="userSpaceOnUse" x1="493.7918" y1="468.3175" x2="503.6837" y2="468.3175">
								<stop  offset="1.862220e-02" style="stop-color:#9A8684"/>
								<stop  offset="0.4235" style="stop-color:#D3C5C6"/>
								<stop  offset="0.4999" style="stop-color:#DED1D3"/>
								<stop  offset="0.5991" style="stop-color:#D1C0C0"/>
								<stop  offset="0.7129" style="stop-color:#C7B4B1"/>
								<stop  offset="0.8064" style="stop-color:#C4AFAC"/>
								<stop  offset="0.8566" style="stop-color:#B8A19E"/>
								<stop  offset="0.9516" style="stop-color:#977E78"/>
								<stop  offset="0.9972" style="stop-color:#866B64"/>
							</linearGradient>
							<path fill="url(#SVGID_32_)" d="M494.7,469.7c-0.1,0,0.1,0,0.1,0c0,0,0,0,0.1,0c0.1,0,0.1,0,0,0c-0.1,0-0.1,0,0,0
								c0.1,0,0.2,0,0.3,0c0.1,0,0.1,0,0.2-0.1c0.3-0.1,0.7-0.1,1-0.2c0.8-0.2,1.3-0.2,2.1-0.3c0.7,0,1.5-0.1,2.2,0
								c0.2,0,0.4,0,0.5,0c0,0,0.3,0,0.1,0c-0.2,0,0.1,0,0.1,0c0.5,0.1,0.8,0.1,1.3,0c0.8-0.2,1-1.1,0.5-1.7
								c-0.6-0.6-1.5-0.6-2.3-0.7c-0.8,0-1.7,0-2.5,0.1c-0.8,0.1-1.5,0.3-2.3,0.5c-0.7,0.2-1.6,0.5-2,1.1c0.1-0.1,0.2-0.2,0.3-0.3
								c-0.2,0.1-0.4,0.3-0.6,0.4c-0.2,0.2-0.2,0.6,0,0.8C494.1,469.8,494.5,469.9,494.7,469.7L494.7,469.7z"/>
						</g>
					</g>
				</g>
			</g>
			<g>
				<g>
					<g>
						<g>
							<linearGradient id="SVGID_33_" gradientUnits="userSpaceOnUse" x1="492.0592" y1="453.5517" x2="507.7215" y2="453.5517">
								<stop  offset="1.862220e-02" style="stop-color:#9A8684"/>
								<stop  offset="0.4235" style="stop-color:#D3C5C6"/>
								<stop  offset="0.4999" style="stop-color:#DED1D3"/>
								<stop  offset="0.5991" style="stop-color:#D1C0C0"/>
								<stop  offset="0.7129" style="stop-color:#C7B4B1"/>
								<stop  offset="0.8064" style="stop-color:#C4AFAC"/>
								<stop  offset="0.8566" style="stop-color:#B8A19E"/>
								<stop  offset="0.9516" style="stop-color:#977E78"/>
								<stop  offset="0.9972" style="stop-color:#866B64"/>
							</linearGradient>
							<path fill="url(#SVGID_33_)" d="M492.2,452.4c1.6,2.4,4.4,3.9,7.4,3.8c1.5-0.1,3-0.4,4.4-1c1.4-0.6,3.3-1.5,3.6-3
								c0.1-0.6-0.4-1.1-1.1-1c-1.3,0.2-2.3,1.3-3.5,1.8c-1,0.5-2.2,0.8-3.3,0.9c-2.3,0.2-4.5-0.6-5.8-2.5
								C493.3,450.3,491.5,451.3,492.2,452.4L492.2,452.4z"/>
						</g>
					</g>
				</g>
			</g>
			<g>
				<g>
					<g>
						<g>
							<linearGradient id="SVGID_34_" gradientUnits="userSpaceOnUse" x1="488.9854" y1="366.6669" x2="506.057" y2="366.6669">
								<stop  offset="1.862220e-02" style="stop-color:#9A8684"/>
								<stop  offset="0.4235" style="stop-color:#D3C5C6"/>
								<stop  offset="0.4999" style="stop-color:#DED1D3"/>
								<stop  offset="0.5991" style="stop-color:#D1C0C0"/>
								<stop  offset="0.7129" style="stop-color:#C7B4B1"/>
								<stop  offset="0.8064" style="stop-color:#C4AFAC"/>
								<stop  offset="0.8566" style="stop-color:#B8A19E"/>
								<stop  offset="0.9516" style="stop-color:#977E78"/>
								<stop  offset="0.9972" style="stop-color:#866B64"/>
							</linearGradient>
							<path fill="url(#SVGID_34_)" d="M489.2,365.7c2.2,1.6,5.1,2.2,7.8,2.6c2.7,0.4,5.9,0.7,8.5-0.2c0.8-0.3,0.8-1.6-0.2-1.5
								c-2.7,0.1-5.2,0.4-7.9,0c-2.6-0.3-5.1-1.1-7.5-2C489.2,364.5,488.7,365.4,489.2,365.7C489.2,365.7,489.2,365.7,489.2,365.7z"
								/>
						</g>
					</g>
				</g>
			</g>
		</g>
		<g>
			<g>
				<g>
					<g>
						<g>
							<linearGradient id="SVGID_35_" gradientUnits="userSpaceOnUse" x1="507.994" y1="308.618" x2="539.8316" y2="308.618">
								<stop  offset="1.862220e-02" style="stop-color:#9A8684"/>
								<stop  offset="0.4235" style="stop-color:#D3C5C6"/>
								<stop  offset="0.4999" style="stop-color:#DED1D3"/>
								<stop  offset="0.5991" style="stop-color:#D1C0C0"/>
								<stop  offset="0.7129" style="stop-color:#C7B4B1"/>
								<stop  offset="0.8064" style="stop-color:#C4AFAC"/>
								<stop  offset="0.8566" style="stop-color:#B8A19E"/>
								<stop  offset="0.9516" style="stop-color:#977E78"/>
								<stop  offset="0.9972" style="stop-color:#866B64"/>
							</linearGradient>
							<path fill="url(#SVGID_35_)" d="M509.3,284.8c7.1-0.8,15,2.2,18.2,8.3c3.5,6.6,1.3,14.5,3.8,21.3c1.2,3.3,4.2,5.8,5.2,9.1
								c1.3,4-2.9,7.6-7.1,7.6c-9.6,0-13.4-10.5-15.4-17.5c-1.4-4.6-2.2-9.4-2.6-14.2c-0.4-4.8,0.1-9.5,0.1-14.4
								c0-1.4-2.3-1.7-2.7-0.3c-1.2,4.8-0.9,10.2-0.5,15.1c0.4,5,1.3,10.1,2.8,14.9c2.3,7.9,6.5,17.9,16.7,19.1
								c4,0.5,8.1-1,10.4-4.1c2.5-3.3,1.9-6.9-0.3-10.1c-1.3-2-2.8-3.7-3.6-5.9c-0.8-2.2-1.1-4.6-1.3-6.9c-0.4-4.4-0.4-8.8-2.1-13
								c-3.2-7.8-13-12.6-21.8-9.8C508.7,284.2,508.8,284.9,509.3,284.8L509.3,284.8z"/>
						</g>
					</g>
				</g>
			</g>
			<g>
				<g>
					<g>
						<g>
							<linearGradient id="SVGID_36_" gradientUnits="userSpaceOnUse" x1="503.5948" y1="268.9303" x2="510.83" y2="268.9303">
								<stop  offset="1.862220e-02" style="stop-color:#9A8684"/>
								<stop  offset="0.4235" style="stop-color:#D3C5C6"/>
								<stop  offset="0.4999" style="stop-color:#DED1D3"/>
								<stop  offset="0.5991" style="stop-color:#D1C0C0"/>
								<stop  offset="0.7129" style="stop-color:#C7B4B1"/>
								<stop  offset="0.8064" style="stop-color:#C4AFAC"/>
								<stop  offset="0.8566" style="stop-color:#B8A19E"/>
								<stop  offset="0.9516" style="stop-color:#977E78"/>
								<stop  offset="0.9972" style="stop-color:#866B64"/>
							</linearGradient>
							<path fill="url(#SVGID_36_)" d="M509.2,284.1c1.8-4.8,1.8-10,1.3-15.1c-0.5-5.1-1.8-10.1-3.8-14.8c-0.6-1.3-2.6-1.1-2.7,0.3
								c-0.7,9.4-0.6,18.9,0.4,28.3c0.2,1.6,2.9,1.6,2.7,0c-1-9.4-1.1-18.9-0.4-28.3c-0.9,0.1-1.8,0.2-2.7,0.3
								c2,4.6,3.3,9.5,3.9,14.4c0.6,4.9,0.2,9.8,0.1,14.6C508,284.6,509,284.7,509.2,284.1L509.2,284.1z"/>
						</g>
					</g>
				</g>
			</g>
			<g>
				<g>
					<g>
						<g>
							<linearGradient id="SVGID_37_" gradientUnits="userSpaceOnUse" x1="497.8005" y1="283.7" x2="512.1958" y2="283.7">
								<stop  offset="1.862220e-02" style="stop-color:#9A8684"/>
								<stop  offset="0.4235" style="stop-color:#D3C5C6"/>
								<stop  offset="0.4999" style="stop-color:#DED1D3"/>
								<stop  offset="0.5991" style="stop-color:#D1C0C0"/>
								<stop  offset="0.7129" style="stop-color:#C7B4B1"/>
								<stop  offset="0.8064" style="stop-color:#C4AFAC"/>
								<stop  offset="0.8566" style="stop-color:#B8A19E"/>
								<stop  offset="0.9516" style="stop-color:#977E78"/>
								<stop  offset="0.9972" style="stop-color:#866B64"/>
							</linearGradient>
							<path fill="url(#SVGID_37_)" d="M511.9,283.7c-0.9-0.6-2-0.8-3-1c-1.1-0.2-2.3-0.3-3.5-0.3c-2.3-0.1-4.6,0.1-6.8,0.6
								c-1.5,0.3-0.8,2.3,0.6,2c2.1-0.4,4.2-0.6,6.3-0.6c1,0,2.1,0.1,3.1,0.1c1.1,0.1,2.1,0.2,3.2,0.1
								C512.3,284.6,512.3,283.9,511.9,283.7L511.9,283.7z"/>
						</g>
					</g>
				</g>
			</g>
			<g>
				<g>
					<g>
						<g>
							<linearGradient id="SVGID_38_" gradientUnits="userSpaceOnUse" x1="490.5179" y1="322.4451" x2="513.0933" y2="322.4451">
								<stop  offset="1.862220e-02" style="stop-color:#9A8684"/>
								<stop  offset="0.4235" style="stop-color:#D3C5C6"/>
								<stop  offset="0.4999" style="stop-color:#DED1D3"/>
								<stop  offset="0.5991" style="stop-color:#D1C0C0"/>
								<stop  offset="0.7129" style="stop-color:#C7B4B1"/>
								<stop  offset="0.8064" style="stop-color:#C4AFAC"/>
								<stop  offset="0.8566" style="stop-color:#B8A19E"/>
								<stop  offset="0.9516" style="stop-color:#977E78"/>
								<stop  offset="0.9972" style="stop-color:#866B64"/>
							</linearGradient>
							<path fill="url(#SVGID_38_)" d="M492,339.2c-0.4-3.4,0.3-6.7,1.2-9.9c1.1-3.6,2.5-7.2,4.3-10.6c1.6-2.9,3.4-5.7,5.8-8
								c0.9-0.8,1.8-1.7,3-2.2c1-0.5,2.1-0.9,2.9,0c0.8,0.9,1.1,2.6,1.4,3.7c0.4,1.2,2.4,1,2.4-0.3c0-2-0.7-5.1-2.9-6.2
								c-1.9-1-4.3-0.1-5.9,1c-3.2,2-5.5,5.2-7.4,8.2c-4.5,7.2-7.6,16.1-5.9,24.4C491.1,339.8,492.1,339.7,492,339.2L492,339.2z"/>
						</g>
					</g>
				</g>
			</g>
			<g>
				<g>
					<g>
						<g>
							<linearGradient id="SVGID_39_" gradientUnits="userSpaceOnUse" x1="509.6223" y1="346.5187" x2="541.4564" y2="346.5187">
								<stop  offset="1.862220e-02" style="stop-color:#9A8684"/>
								<stop  offset="0.4235" style="stop-color:#D3C5C6"/>
								<stop  offset="0.4999" style="stop-color:#DED1D3"/>
								<stop  offset="0.5991" style="stop-color:#D1C0C0"/>
								<stop  offset="0.7129" style="stop-color:#C7B4B1"/>
								<stop  offset="0.8064" style="stop-color:#C4AFAC"/>
								<stop  offset="0.8566" style="stop-color:#B8A19E"/>
								<stop  offset="0.9516" style="stop-color:#977E78"/>
								<stop  offset="0.9972" style="stop-color:#866B64"/>
							</linearGradient>
							<path fill="url(#SVGID_39_)" d="M537.8,326.7c-1.3,2.9,2.2,6.2,0.8,9c-1,2-3.7,3-4.8,5c-1,1.9-1.1,4-1.4,6.1
								c-0.2,1.2-0.3,2.4-1,3.5c-0.8,1.2-2.1,1.7-3.3,2.5c-3.7,2.8-2.5,8.6-7.4,10.4c-1.8,0.6-3.6,1.1-5.5,1.4
								c-0.9,0.2-3.8,1-4.5,0.2c-0.5-0.6-1.6,0.2-1.1,0.8c1.8,2.3,7.8,0.2,10-0.4c1.7-0.5,3.5-1,4.7-2.3c2.2-2.3,2.2-5.6,4.4-7.8
								c1.1-1,2.6-1.5,3.7-2.5c0.9-0.8,1.4-1.9,1.8-3c0.8-2.6,0.4-5.5,1.9-7.9c1.4-2.3,4.5-3.3,5.1-6c0.4-1.5-0.3-3.2-0.6-4.7
								c-0.4-1.6-0.6-3.5-1.9-4.6C538.4,326.3,538,326.4,537.8,326.7L537.8,326.7z"/>
						</g>
					</g>
				</g>
			</g>
			<g>
				<g>
					<g>
						<g>
							<g>
								<linearGradient id="SVGID_40_" gradientUnits="userSpaceOnUse" x1="505.7803" y1="355.0617" x2="513.1337" y2="355.0617">
									<stop  offset="1.862220e-02" style="stop-color:#9A8684"/>
									<stop  offset="0.4235" style="stop-color:#D3C5C6"/>
									<stop  offset="0.4999" style="stop-color:#DED1D3"/>
									<stop  offset="0.5991" style="stop-color:#D1C0C0"/>
									<stop  offset="0.7129" style="stop-color:#C7B4B1"/>
									<stop  offset="0.8064" style="stop-color:#C4AFAC"/>
									<stop  offset="0.8566" style="stop-color:#B8A19E"/>
									<stop  offset="0.9516" style="stop-color:#977E78"/>
									<stop  offset="0.9972" style="stop-color:#866B64"/>
								</linearGradient>
								<path fill="url(#SVGID_40_)" d="M510.8,375.7c1.3-0.3,2.2-1.4,2.2-2.7c0-1.3-0.9-2.4-2.1-2.8c0-1.4,0-2.9,0.1-4.3
									c1.3-0.3,2.2-1.4,2.2-2.7c0-1.3-0.9-2.4-2.2-2.7c0-1.4,0-2.9,0-4.3c1.2-0.3,2.2-1.5,2.1-2.8c0-1.3-1-2.4-2.3-2.7
									c0-1.4-0.1-2.9-0.2-4.3c1.2-0.4,2.1-1.5,2-2.9c-0.1-1.3-1.1-2.4-2.4-2.6c-0.1-1.4-0.3-2.9-0.4-4.3c1.2-0.4,2.1-1.6,1.9-2.9
									c-0.1-1.3-1.2-2.3-2.5-2.5c0-0.1,0-0.3,0-0.4c-0.5,0.1-1,0.1-1.5,0.2c0,0.1,0,0.3,0,0.4c-1.2,0.5-2.1,1.6-1.9,2.9
									c0.1,1.3,1.2,2.3,2.5,2.5c0.1,1.4,0.3,2.9,0.4,4.3c-1.2,0.4-2.1,1.6-2,2.8c0.1,1.3,1.1,2.3,2.4,2.6c0.1,1.4,0.2,2.9,0.2,4.3
									c-1.3,0.4-2.2,1.5-2.1,2.8c0,1.3,1,2.4,2.3,2.7c0.1,1.4,0,2.9,0,4.3c-1.3,0.3-2.2,1.4-2.2,2.7c0,1.3,0.9,2.4,2.2,2.7
									c0,1.4,0,2.9-0.1,4.3c-1.3,0.3-2.2,1.4-2.2,2.7c0,1.3,0.9,2.4,2.1,2.8c0,1.3-0.1,2.6-0.1,3.9c0.5,0,1,0,1.5,0
									C510.7,378.3,510.7,377,510.8,375.7z"/>
							</g>
						</g>
					</g>
				</g>
				<g>
					<g>
						<g>
							<g>
								<linearGradient id="SVGID_41_" gradientUnits="userSpaceOnUse" x1="504.7334" y1="403.9728" x2="512.684" y2="403.9728">
									<stop  offset="1.862220e-02" style="stop-color:#9A8684"/>
									<stop  offset="0.4235" style="stop-color:#D3C5C6"/>
									<stop  offset="0.4999" style="stop-color:#DED1D3"/>
									<stop  offset="0.5991" style="stop-color:#D1C0C0"/>
									<stop  offset="0.7129" style="stop-color:#C7B4B1"/>
									<stop  offset="0.8064" style="stop-color:#C4AFAC"/>
									<stop  offset="0.8566" style="stop-color:#B8A19E"/>
									<stop  offset="0.9516" style="stop-color:#977E78"/>
									<stop  offset="0.9972" style="stop-color:#866B64"/>
								</linearGradient>
								<path fill="url(#SVGID_41_)" d="M508.3,424.6c1.3-0.3,2.2-1.3,2.3-2.6c0.1-1.3-0.8-2.4-2-2.8c0.1-1.4,0.2-2.9,0.2-4.3
									c1.3-0.3,2.2-1.3,2.3-2.6c0.1-1.3-0.8-2.5-2-2.8c0.1-1.4,0.2-2.9,0.2-4.3c1.3-0.3,2.3-1.3,2.3-2.6c0.1-1.3-0.8-2.5-2-2.8
									c0.1-1.4,0.2-2.9,0.2-4.3c1.3-0.3,2.3-1.3,2.3-2.6c0.1-1.3-0.8-2.5-2-2.8c0.1-1.4,0.1-2.9,0.2-4.3c1.3-0.3,2.3-1.3,2.3-2.7
									c0-1.3-0.8-2.5-2.1-2.8c0-0.1,0-0.3,0-0.4c-0.5,0-1,0-1.5,0c0,0.1,0,0.3,0,0.4c-1.3,0.3-2.2,1.3-2.3,2.7
									c0,1.3,0.8,2.4,2.1,2.8c-0.1,1.4-0.1,2.9-0.2,4.3c-1.3,0.3-2.2,1.3-2.3,2.6c-0.1,1.3,0.8,2.4,2,2.8
									c-0.1,1.4-0.2,2.9-0.2,4.3c-1.3,0.3-2.3,1.3-2.3,2.6c-0.1,1.3,0.8,2.5,2,2.8c-0.1,1.4-0.2,2.9-0.2,4.3
									c-1.3,0.3-2.3,1.3-2.3,2.6c-0.1,1.3,0.8,2.5,2,2.8c-0.1,1.4-0.2,2.9-0.2,4.3c-1.3,0.3-2.2,1.3-2.3,2.6
									c-0.1,1.3,0.8,2.5,2,2.8c-0.1,1.3-0.1,2.6-0.2,3.9c0.5,0,1,0,1.5,0.1C508.2,427.2,508.2,425.9,508.3,424.6z"/>
							</g>
						</g>
					</g>
				</g>
				<g>
					<g>
						<g>
							<g>
								<linearGradient id="SVGID_42_" gradientUnits="userSpaceOnUse" x1="503.9838" y1="452.8796" x2="510.5029" y2="452.8796">
									<stop  offset="1.862220e-02" style="stop-color:#9A8684"/>
									<stop  offset="0.4235" style="stop-color:#D3C5C6"/>
									<stop  offset="0.4999" style="stop-color:#DED1D3"/>
									<stop  offset="0.5991" style="stop-color:#D1C0C0"/>
									<stop  offset="0.7129" style="stop-color:#C7B4B1"/>
									<stop  offset="0.8064" style="stop-color:#C4AFAC"/>
									<stop  offset="0.8566" style="stop-color:#B8A19E"/>
									<stop  offset="0.9516" style="stop-color:#977E78"/>
									<stop  offset="0.9972" style="stop-color:#866B64"/>
								</linearGradient>
								<path fill="url(#SVGID_42_)" d="M508.5,473.4c1.2-0.4,2.1-1.6,2-2.9c-0.1-1.3-1.1-2.3-2.3-2.6c-0.1-1.4-0.2-2.9-0.2-4.3
									c1.2-0.4,2.1-1.5,2.1-2.8s-1-2.4-2.2-2.7c-0.1-1.4-0.1-2.9-0.1-4.3c1.2-0.3,2.1-1.4,2.1-2.7c0-1.3-0.9-2.4-2.2-2.7
									c0-1.4,0-2.9,0-4.3c1.2-0.3,2.2-1.4,2.2-2.7c0-1.3-0.9-2.4-2.1-2.8c0-1.4,0.1-2.9,0.1-4.3c1.3-0.3,2.2-1.4,2.3-2.7
									c0-1.3-0.8-2.4-2.1-2.8c0-0.1,0-0.3,0-0.4c-0.5,0-1,0-1.5-0.1c0,0.1,0,0.3,0,0.4c-1.3,0.3-2.2,1.3-2.3,2.7
									c0,1.3,0.8,2.4,2.1,2.8c0,1.4-0.1,2.9-0.1,4.3c-1.2,0.3-2.2,1.4-2.2,2.7c0,1.3,0.9,2.4,2.1,2.8c0,1.4-0.1,2.9,0,4.3
									c-1.2,0.3-2.1,1.4-2.1,2.8c0,1.3,0.9,2.4,2.2,2.7c0,1.4,0,2.9,0.1,4.3c-1.2,0.4-2.1,1.5-2.1,2.8c0,1.3,1,2.4,2.2,2.7
									c0,1.4,0.2,2.9,0.2,4.3c-1.2,0.4-2.1,1.6-2,2.9c0.1,1.3,1.1,2.4,2.3,2.6c0.1,1.3,0.2,2.6,0.4,3.9c0.5,0,1-0.1,1.5-0.1
									C508.8,476,508.7,474.7,508.5,473.4z"/>
							</g>
						</g>
					</g>
				</g>
				<g>
					<g>
						<g>
							<g>
								<linearGradient id="SVGID_43_" gradientUnits="userSpaceOnUse" x1="505.5706" y1="501.4405" x2="518.2873" y2="501.4405">
									<stop  offset="1.862220e-02" style="stop-color:#9A8684"/>
									<stop  offset="0.4235" style="stop-color:#D3C5C6"/>
									<stop  offset="0.4999" style="stop-color:#DED1D3"/>
									<stop  offset="0.5991" style="stop-color:#D1C0C0"/>
									<stop  offset="0.7129" style="stop-color:#C7B4B1"/>
									<stop  offset="0.8064" style="stop-color:#C4AFAC"/>
									<stop  offset="0.8566" style="stop-color:#B8A19E"/>
									<stop  offset="0.9516" style="stop-color:#977E78"/>
									<stop  offset="0.9972" style="stop-color:#866B64"/>
								</linearGradient>
								<path fill="url(#SVGID_43_)" d="M516.8,521.5c1.1-0.6,1.7-1.8,1.4-3.1c-0.3-1.3-1.4-2.1-2.7-2.2c-0.3-1.4-0.7-2.8-1-4.2
									c1.1-0.6,1.8-1.8,1.5-3.1c-0.3-1.3-1.4-2.2-2.7-2.3c-0.3-1.4-0.6-2.8-0.8-4.2c1.2-0.5,1.8-1.7,1.6-3
									c-0.2-1.3-1.3-2.2-2.6-2.3c-0.2-1.4-0.5-2.8-0.7-4.3c1.2-0.5,1.9-1.7,1.7-3c-0.2-1.3-1.3-2.2-2.5-2.4
									c-0.2-1.4-0.4-2.8-0.5-4.3c1.2-0.5,2-1.6,1.8-2.9c-0.1-1.3-1.1-2.3-2.4-2.5c0-0.1,0-0.3,0-0.4c-0.5,0-1,0.1-1.5,0.1
									c0,0.1,0,0.3,0,0.4c-1.2,0.4-2,1.6-1.9,2.9c0.2,1.3,1.2,2.3,2.5,2.5c0.2,1.4,0.4,2.9,0.5,4.3c-1.2,0.5-1.9,1.7-1.7,3
									c0.2,1.3,1.3,2.3,2.5,2.4c0.2,1.4,0.5,2.8,0.7,4.3c-1.2,0.5-1.9,1.7-1.6,3.1c0.2,1.3,1.4,2.2,2.6,2.4
									c0.3,1.4,0.6,2.8,0.8,4.3c-1.1,0.5-1.8,1.8-1.5,3.1c0.3,1.3,1.4,2.2,2.7,2.3c0.3,1.4,0.6,2.8,1,4.2
									c-1.1,0.6-1.7,1.8-1.4,3.1c0.3,1.3,1.5,2.2,2.7,2.2c0.3,1.3,0.6,2.5,1,3.8c0.5-0.1,1-0.2,1.4-0.3
									C517.4,524,517.1,522.8,516.8,521.5z"/>
							</g>
						</g>
					</g>
				</g>
				<g>
					<g>
						<g>
							<g>
								<linearGradient id="SVGID_44_" gradientUnits="userSpaceOnUse" x1="514.9658" y1="548.947" x2="532.2298" y2="548.947">
									<stop  offset="1.862220e-02" style="stop-color:#9A8684"/>
									<stop  offset="0.4235" style="stop-color:#D3C5C6"/>
									<stop  offset="0.4999" style="stop-color:#DED1D3"/>
									<stop  offset="0.5991" style="stop-color:#D1C0C0"/>
									<stop  offset="0.7129" style="stop-color:#C7B4B1"/>
									<stop  offset="0.8064" style="stop-color:#C4AFAC"/>
									<stop  offset="0.8566" style="stop-color:#B8A19E"/>
									<stop  offset="0.9516" style="stop-color:#977E78"/>
									<stop  offset="0.9972" style="stop-color:#866B64"/>
								</linearGradient>
								<path fill="url(#SVGID_44_)" d="M531,568.5c1-0.7,1.5-2,1.1-3.2c-0.4-1.2-1.6-2-2.9-2c-0.5-1.4-0.9-2.7-1.4-4.1
									c1.1-0.7,1.6-2,1.2-3.2c-0.4-1.2-1.6-2-2.9-2c-0.4-1.4-0.9-2.7-1.3-4.1c1.1-0.6,1.6-1.9,1.2-3.2c-0.4-1.3-1.6-2.1-2.8-2
									c-0.4-1.4-0.8-2.8-1.2-4.1c1.1-0.6,1.6-1.9,1.3-3.2c-0.4-1.3-1.5-2.1-2.8-2.1c-0.4-1.4-0.8-2.8-1.2-4.2
									c1.1-0.6,1.7-1.9,1.3-3.1c-0.4-1.3-1.5-2.1-2.8-2.1c0-0.1-0.1-0.3-0.1-0.4c-0.5,0.1-1,0.2-1.4,0.3c0,0.1,0.1,0.3,0.1,0.4
									c-1.1,0.6-1.7,1.9-1.4,3.2c0.3,1.3,1.5,2.1,2.8,2.1c0.4,1.4,0.8,2.8,1.2,4.2c-1.1,0.6-1.6,1.9-1.3,3.2
									c0.4,1.3,1.5,2.1,2.8,2.1c0.4,1.4,0.8,2.8,1.3,4.2c-1.1,0.6-1.6,1.9-1.2,3.2c0.4,1.3,1.6,2.1,2.9,2c0.4,1.4,0.9,2.8,1.3,4.1
									c-1.1,0.7-1.6,2-1.2,3.2c0.4,1.3,1.6,2,2.9,2c0.5,1.4,0.9,2.7,1.4,4.1c-1,0.7-1.6,2-1.1,3.2c0.4,1.3,1.6,2,2.9,2
									c0.4,1.2,0.8,2.5,1.3,3.7c0.5-0.1,0.9-0.3,1.4-0.4C531.8,570.9,531.4,569.7,531,568.5z"/>
							</g>
						</g>
					</g>
				</g>
				<g>
					<g>
						<g>
							<g>
								<linearGradient id="SVGID_45_" gradientUnits="userSpaceOnUse" x1="529.7278" y1="595.3884" x2="549.4638" y2="595.3884">
									<stop  offset="1.862220e-02" style="stop-color:#9A8684"/>
									<stop  offset="0.4235" style="stop-color:#D3C5C6"/>
									<stop  offset="0.4999" style="stop-color:#DED1D3"/>
									<stop  offset="0.5991" style="stop-color:#D1C0C0"/>
									<stop  offset="0.7129" style="stop-color:#C7B4B1"/>
									<stop  offset="0.8064" style="stop-color:#C4AFAC"/>
									<stop  offset="0.8566" style="stop-color:#B8A19E"/>
									<stop  offset="0.9516" style="stop-color:#977E78"/>
									<stop  offset="0.9972" style="stop-color:#866B64"/>
								</linearGradient>
								<path fill="url(#SVGID_45_)" d="M548,614.5c1-0.7,1.4-2.1,0.9-3.3c-0.5-1.2-1.7-1.9-3-1.8c-0.5-1.3-1.1-2.7-1.6-4
									c1-0.7,1.4-2,1-3.3c-0.5-1.2-1.7-2-2.9-1.9c-0.5-1.3-1-2.7-1.5-4c1-0.7,1.5-2,1-3.3c-0.5-1.2-1.7-2-2.9-1.9
									c-0.5-1.4-1-2.7-1.5-4.1c1-0.7,1.5-2,1.1-3.3c-0.4-1.2-1.7-2-2.9-1.9c-0.5-1.4-1-2.7-1.4-4.1c1-0.7,1.5-2,1.1-3.2
									c-0.4-1.2-1.6-2-2.9-1.9c0-0.1-0.1-0.3-0.1-0.4c-0.5,0.1-0.9,0.3-1.4,0.4c0,0.1,0.1,0.3,0.1,0.4c-1,0.7-1.5,2-1.1,3.2
									c0.4,1.2,1.7,2,2.9,1.9c0.5,1.4,1,2.7,1.5,4.1c-1,0.7-1.5,2-1.1,3.3c0.4,1.2,1.7,2,2.9,1.9c0.5,1.4,1,2.7,1.5,4.1
									c-1,0.7-1.5,2-1,3.3c0.5,1.2,1.7,2,2.9,1.9c0.5,1.4,1,2.7,1.5,4.1c-1,0.7-1.5,2-1,3.3c0.5,1.2,1.7,2,3,1.9
									c0.5,1.3,1.1,2.7,1.6,4c-1,0.7-1.4,2.1-0.9,3.3c0.5,1.2,1.8,1.9,3,1.8c0.5,1.2,1,2.4,1.5,3.6c0.4-0.2,0.9-0.4,1.3-0.5
									C549,616.9,548.5,615.7,548,614.5z"/>
							</g>
						</g>
					</g>
				</g>
				<g>
					<g>
						<g>
							<g>
								<linearGradient id="SVGID_46_" gradientUnits="userSpaceOnUse" x1="547.1885" y1="640.463" x2="571.0013" y2="640.463">
									<stop  offset="1.862220e-02" style="stop-color:#9A8684"/>
									<stop  offset="0.4235" style="stop-color:#D3C5C6"/>
									<stop  offset="0.4999" style="stop-color:#DED1D3"/>
									<stop  offset="0.5991" style="stop-color:#D1C0C0"/>
									<stop  offset="0.7129" style="stop-color:#C7B4B1"/>
									<stop  offset="0.8064" style="stop-color:#C4AFAC"/>
									<stop  offset="0.8566" style="stop-color:#B8A19E"/>
									<stop  offset="0.9516" style="stop-color:#977E78"/>
									<stop  offset="0.9972" style="stop-color:#866B64"/>
								</linearGradient>
								<path fill="url(#SVGID_46_)" d="M569.1,658.8c0.9-0.9,1.1-2.2,0.5-3.4c-0.6-1.1-1.9-1.7-3.1-1.4c-0.7-1.3-1.4-2.5-2-3.8
									c0.9-0.8,1.2-2.2,0.6-3.4c-0.6-1.2-1.9-1.8-3.1-1.5c-0.7-1.3-1.3-2.6-1.9-3.9c0.9-0.8,1.3-2.2,0.7-3.3
									c-0.6-1.2-1.8-1.8-3.1-1.6c-0.6-1.3-1.2-2.6-1.8-3.9c1-0.8,1.3-2.1,0.8-3.3c-0.5-1.2-1.8-1.8-3-1.7c-0.6-1.3-1.1-2.6-1.7-4
									c1-0.8,1.4-2.1,0.8-3.3c-0.5-1.2-1.8-1.9-3-1.8c-0.1-0.1-0.1-0.3-0.2-0.4c-0.4,0.2-0.9,0.4-1.3,0.5c0.1,0.1,0.1,0.3,0.2,0.4
									c-1,0.7-1.4,2.1-0.9,3.3c0.5,1.2,1.8,1.9,3,1.7c0.6,1.3,1.1,2.7,1.7,4c-1,0.8-1.3,2.1-0.8,3.3c0.6,1.2,1.8,1.9,3.1,1.7
									c0.6,1.3,1.2,2.6,1.8,3.9c-0.9,0.8-1.3,2.1-0.7,3.3c0.6,1.2,1.9,1.8,3.1,1.6c0.6,1.3,1.2,2.6,1.9,3.9
									c-0.9,0.8-1.2,2.2-0.6,3.4c0.6,1.2,1.9,1.8,3.1,1.5c0.6,1.3,1.3,2.6,2,3.8c-0.9,0.8-1.1,2.2-0.5,3.4
									c0.6,1.2,1.9,1.7,3.1,1.4c0.6,1.1,1.3,2.2,2,3.4c0.4-0.2,0.8-0.5,1.3-0.7C570.4,661,569.7,659.9,569.1,658.8z"/>
							</g>
						</g>
					</g>
				</g>
				<g>
					<g>
						<g>
							<g>
								<linearGradient id="SVGID_47_" gradientUnits="userSpaceOnUse" x1="569.1848" y1="682.4524" x2="599.6068" y2="682.4524">
									<stop  offset="1.862220e-02" style="stop-color:#9A8684"/>
									<stop  offset="0.4235" style="stop-color:#D3C5C6"/>
									<stop  offset="0.4999" style="stop-color:#DED1D3"/>
									<stop  offset="0.5991" style="stop-color:#D1C0C0"/>
									<stop  offset="0.7129" style="stop-color:#C7B4B1"/>
									<stop  offset="0.8064" style="stop-color:#C4AFAC"/>
									<stop  offset="0.8566" style="stop-color:#B8A19E"/>
									<stop  offset="0.9516" style="stop-color:#977E78"/>
									<stop  offset="0.9972" style="stop-color:#866B64"/>
								</linearGradient>
								<path fill="url(#SVGID_47_)" d="M597.1,698.9c0.7-1,0.6-2.4-0.2-3.4c-0.9-1-2.2-1.3-3.4-0.8c-0.9-1.1-1.8-2.3-2.7-3.4
									c0.7-1,0.7-2.4-0.1-3.4c-0.8-1-2.1-1.4-3.3-1c-0.9-1.2-1.7-2.3-2.6-3.5c0.8-0.9,0.8-2.3,0.1-3.4c-0.7-1.1-2.1-1.5-3.2-1.1
									c-0.8-1.2-1.6-2.4-2.4-3.6c0.8-0.9,0.9-2.3,0.2-3.4c-0.7-1.1-2-1.6-3.2-1.2c-0.8-1.2-1.5-2.4-2.3-3.7
									c0.8-0.9,1.1-2.3,0.4-3.4c-0.7-1.1-2-1.6-3.2-1.3c-0.1-0.1-0.2-0.3-0.2-0.4c-0.4,0.2-0.8,0.5-1.3,0.7
									c0.1,0.1,0.2,0.3,0.2,0.4c-0.9,0.9-1.1,2.3-0.4,3.4c0.7,1.1,2,1.7,3.2,1.3c0.8,1.2,1.5,2.5,2.3,3.7c-0.8,0.9-1,2.3-0.3,3.4
									c0.7,1.1,2.1,1.6,3.3,1.2c0.8,1.2,1.6,2.4,2.4,3.6c-0.8,0.9-0.9,2.3-0.1,3.4c0.8,1.1,2.2,1.5,3.3,1.1
									c0.9,1.2,1.7,2.3,2.6,3.5c-0.7,1-0.8,2.4,0,3.4c0.8,1,2.2,1.4,3.4,0.9c0.9,1.1,1.8,2.3,2.7,3.4c-0.7,1-0.7,2.4,0.2,3.4
									c0.9,1,2.3,1.3,3.4,0.8c0.9,1,1.7,2,2.6,2.9c0.4-0.3,0.7-0.6,1.1-0.9C598.8,700.9,597.9,699.9,597.1,698.9z"/>
							</g>
						</g>
					</g>
				</g>
			</g>
			<g>
				<g>
					<g>
						<g>
							<linearGradient id="SVGID_48_" gradientUnits="userSpaceOnUse" x1="538.917" y1="342.9055" x2="562.0247" y2="342.9055">
								<stop  offset="1.862220e-02" style="stop-color:#9A8684"/>
								<stop  offset="0.4235" style="stop-color:#D3C5C6"/>
								<stop  offset="0.4999" style="stop-color:#DED1D3"/>
								<stop  offset="0.5991" style="stop-color:#D1C0C0"/>
								<stop  offset="0.7129" style="stop-color:#C7B4B1"/>
								<stop  offset="0.8064" style="stop-color:#C4AFAC"/>
								<stop  offset="0.8566" style="stop-color:#B8A19E"/>
								<stop  offset="0.9516" style="stop-color:#977E78"/>
								<stop  offset="0.9972" style="stop-color:#866B64"/>
							</linearGradient>
							<path fill="url(#SVGID_48_)" d="M562,352.9c-0.5-2.4-2.6-4.6-4-6.6c-1.7-2.3-3.2-4.7-4.9-6.9c-1.6-2.1-3.6-3.7-5.9-5.1
								c-2.1-1.2-4.7-2.6-7.3-2.3c-1.3,0.1-1.3,1.7,0,1.8c2.2,0.2,4.5,1.4,6.4,2.5c2.3,1.4,4.1,3.1,5.6,5.2c3,4,5.8,8,8.7,12.1
								C561,354.2,562.2,353.8,562,352.9L562,352.9z"/>
						</g>
					</g>
				</g>
			</g>
			<g>
				<g>
					<g>
						<g>
							<linearGradient id="SVGID_49_" gradientUnits="userSpaceOnUse" x1="506.6626" y1="411.9607" x2="562.2164" y2="411.9607">
								<stop  offset="1.862220e-02" style="stop-color:#9A8684"/>
								<stop  offset="0.4235" style="stop-color:#D3C5C6"/>
								<stop  offset="0.4999" style="stop-color:#DED1D3"/>
								<stop  offset="0.5991" style="stop-color:#D1C0C0"/>
								<stop  offset="0.7129" style="stop-color:#C7B4B1"/>
								<stop  offset="0.8064" style="stop-color:#C4AFAC"/>
								<stop  offset="0.8566" style="stop-color:#B8A19E"/>
								<stop  offset="0.9516" style="stop-color:#977E78"/>
								<stop  offset="0.9972" style="stop-color:#866B64"/>
							</linearGradient>
							<path fill="url(#SVGID_49_)" d="M560.9,350.1c-0.3-0.3-0.5-0.6-0.8-0.8c-0.5-0.3-1.3,0-1.4,0.5c-0.3,1.1,1.2,2.8,1.7,3.8
								c0.2-0.5,0.4-0.9,0.6-1.4c-4.4,1.1-6.3,5.4-6.2,9.3c0.1,2.6,1,5.2,1.8,7.7c1,3.3,1.3,6.3,0.4,9.6c-0.8,2.9-2.1,5.7-2.8,8.6
								c-0.7,2.8-0.6,5.6-0.2,8.5c0.9,5.9,3.4,11.6,3.1,17.6c-0.3,6.1-4.7,10.7-7.3,16.1c-1,2-1.7,4.2-1.8,6.4
								c-0.2,3.1,0.8,6.5-0.9,9.4c-2.2,3.7-6,1.5-9.1,0.7c-2.3-0.6-4.8-0.8-7.2-0.4c-4.8,0.8-7.7,3.9-8.5,8.4c-0.5,3-0.1,6.3-1.9,9
								c-1.2,1.8-2.7,2.3-5,2c-1-0.2-2.1-0.4-3.1-0.1c-3.2,1.1-6.1,6-5.4,9.1c0.3,1.3,2.4,0.7,2.1-0.5c-0.4-1.8,1.3-4.3,2.6-5.6
								c2-2,4.4-0.3,6.9-0.9c4.1-1.1,5.4-5.6,5.7-9c0.3-2.8,0.2-5.9,2.3-8.1c1.8-1.9,4.7-2.5,7.3-2.4c4.5,0.1,9.8,4.3,13.9,0.9
								c4.4-3.6,2.1-9.3,3.1-13.9c1.1-5.1,4.9-9.2,7.1-13.9c2.2-4.8,2.1-9.7,1.1-14.7c-1.2-5.9-3.5-11.8-2.1-17.8
								c0.7-3.2,2.2-6.2,3-9.4c0.7-2.9,0.6-5.6-0.2-8.5c-1.2-4.6-5.4-14.1,2.2-16.2c0.7-0.2,0.9-0.8,0.6-1.4
								c-0.2-0.5-0.5-0.9-0.8-1.4c-0.2-0.3-0.7-1.4-0.8-1c-0.5,0.2-1,0.3-1.4,0.5c0.1,0.2,0.3,0.3,0.4,0.5
								C560.4,352.2,561.7,351,560.9,350.1C560.9,350.1,560.9,350.1,560.9,350.1z"/>
						</g>
					</g>
				</g>
			</g>
			<g>
				<g>
					<g>
						<g>
							<linearGradient id="SVGID_50_" gradientUnits="userSpaceOnUse" x1="556.9599" y1="426.7627" x2="995" y2="426.7627">
								<stop  offset="1.862220e-02" style="stop-color:#9A8684"/>
								<stop  offset="0.4235" style="stop-color:#D3C5C6"/>
								<stop  offset="0.4999" style="stop-color:#DED1D3"/>
								<stop  offset="0.5991" style="stop-color:#D1C0C0"/>
								<stop  offset="0.7129" style="stop-color:#C7B4B1"/>
								<stop  offset="0.8064" style="stop-color:#C4AFAC"/>
								<stop  offset="0.8566" style="stop-color:#B8A19E"/>
								<stop  offset="0.9516" style="stop-color:#977E78"/>
								<stop  offset="0.9972" style="stop-color:#866B64"/>
							</linearGradient>
							<path fill="url(#SVGID_50_)" d="M995,512.7c-4.5-25-19.3-47.8-38.9-65c-19.9-17.5-44.2-30.1-69.3-39.9
								c-30.8-12-63.3-19.8-95.8-27c-38.7-8.7-77.8-16-116.8-24.3c-18.9-4-37.6-8.8-56.5-13c-15.8-3.5-33.1-6.1-49-1.5
								c-3.8,1.1-7.5,2.6-10.9,4.5c-1.9,1.1-0.2,3.9,1.8,2.8c14.8-8,32.4-7.3,48.7-4.4c8.5,1.5,16.8,3.7,25.2,5.7
								c9.5,2.3,19,4.4,28.6,6.5c37.9,8.3,76.1,15.4,114,23.3c33.4,7,66.8,14.7,98.8,25.9c25.2,8.8,50,20.1,70.8,36.2
								c20.7,16,36.9,36.8,44.4,61.1c1,3.1,1.8,6.3,2.6,9.5C992.9,514.6,995.2,514.2,995,512.7L995,512.7z"/>
						</g>
					</g>
				</g>
			</g>
			<g>
				<g>
					<g>
						<g>
							<linearGradient id="SVGID_51_" gradientUnits="userSpaceOnUse" x1="794.7244" y1="560.985" x2="994.0591" y2="560.985">
								<stop  offset="1.862220e-02" style="stop-color:#9A8684"/>
								<stop  offset="0.4235" style="stop-color:#D3C5C6"/>
								<stop  offset="0.4999" style="stop-color:#DED1D3"/>
								<stop  offset="0.5991" style="stop-color:#D1C0C0"/>
								<stop  offset="0.7129" style="stop-color:#C7B4B1"/>
								<stop  offset="0.8064" style="stop-color:#C4AFAC"/>
								<stop  offset="0.8566" style="stop-color:#B8A19E"/>
								<stop  offset="0.9516" style="stop-color:#977E78"/>
								<stop  offset="0.9972" style="stop-color:#866B64"/>
							</linearGradient>
							<path fill="url(#SVGID_51_)" d="M992.4,512.2c-7.1,4.4-14.2,8.8-21.3,13.3c-6.3,4-12.6,8-17.8,13.3
								c-5.4,5.6-9.7,11.9-15.1,17.5c-5.1,5.3-10.8,10-16.7,14.5c-22.6,16.9-49.6,28.4-77.5,33.5c-15.7,2.8-31.8,3.6-47.7,2.4
								c-1.8-0.1-2,2.6-0.2,2.8c28.3,2,57.1-2.5,83.5-12.8c13.2-5.1,25.8-11.7,37.4-19.7c6.2-4.2,12.1-8.8,17.6-13.8
								c5.6-5.1,10.4-10.8,15.1-16.6c5.6-6.9,12-12.4,19.6-17.3c8.1-5.2,16.3-10.4,24.5-15.5C994.7,513,993.4,511.6,992.4,512.2
								L992.4,512.2z"/>
						</g>
					</g>
				</g>
			</g>
			<g>
				<g>
					<g>
						<g>
							<linearGradient id="SVGID_52_" gradientUnits="userSpaceOnUse" x1="527.41" y1="633.9222" x2="796.4846" y2="633.9222">
								<stop  offset="1.862220e-02" style="stop-color:#9A8684"/>
								<stop  offset="0.4235" style="stop-color:#D3C5C6"/>
								<stop  offset="0.4999" style="stop-color:#DED1D3"/>
								<stop  offset="0.5991" style="stop-color:#D1C0C0"/>
								<stop  offset="0.7129" style="stop-color:#C7B4B1"/>
								<stop  offset="0.8064" style="stop-color:#C4AFAC"/>
								<stop  offset="0.8566" style="stop-color:#B8A19E"/>
								<stop  offset="0.9516" style="stop-color:#977E78"/>
								<stop  offset="0.9972" style="stop-color:#866B64"/>
							</linearGradient>
							<path fill="url(#SVGID_52_)" d="M794,609.5c1.8,11.4-5.9,21.6-13.3,29.6c-7,7.6-14.9,14.4-23.6,20
								c-17.7,11.6-38.1,18.7-59.3,20.1c-11.4,0.8-22.9,0-34.1-2.3c-11.5-2.4-22.1-6.5-32.7-11.5c-2.2-1-4.4-2-6.7-2.6
								c-2.8-0.7-5.7-0.7-8.6-0.8c-2.7-0.1-5.4-0.3-7.7-1.6c-2.5-1.4-4.2-3.8-5.9-6c-6.4-8.2-14.4-14.6-23-20.5
								c-18.5-12.5-42.2-24.1-48.7-47.1c-0.5-1.8-3.4-1-2.9,0.7c5.9,20.7,25.4,32.9,42.7,44c9.6,6.1,19.2,12.4,26.7,20.9
								c3.4,3.8,6.1,8.9,11,11c5.2,2.2,11.1,0.7,16.4,2.2c5.7,1.5,11,4.8,16.5,7c5.5,2.2,11.1,4,16.9,5.4
								c11.6,2.8,23.6,4.1,35.5,3.7c21.8-0.8,43.4-7.2,62-18.5c10.1-6.2,19.4-13.7,27.3-22.4c7.9-8.6,16.1-19.6,13.6-31.8
								C795.8,607.8,793.8,608.2,794,609.5L794,609.5z"/>
						</g>
					</g>
				</g>
			</g>
			<g>
				<g>
					<g>
						<g>
							<linearGradient id="SVGID_53_" gradientUnits="userSpaceOnUse" x1="557.8866" y1="465.494" x2="938.637" y2="465.494">
								<stop  offset="1.862220e-02" style="stop-color:#9A8684"/>
								<stop  offset="0.4235" style="stop-color:#D3C5C6"/>
								<stop  offset="0.4999" style="stop-color:#DED1D3"/>
								<stop  offset="0.5991" style="stop-color:#D1C0C0"/>
								<stop  offset="0.7129" style="stop-color:#C7B4B1"/>
								<stop  offset="0.8064" style="stop-color:#C4AFAC"/>
								<stop  offset="0.8566" style="stop-color:#B8A19E"/>
								<stop  offset="0.9516" style="stop-color:#977E78"/>
								<stop  offset="0.9972" style="stop-color:#866B64"/>
							</linearGradient>
							<path fill="url(#SVGID_53_)" d="M938.4,556.5c-26.6-42.9-72.6-71.7-119.9-91.4c-26.8-11.2-54.7-20-82.7-28.6
								c-28-8.6-56.2-17.2-84-26.6c-31.2-10.6-62-22.4-91.6-36.8c-1.8-0.9-3.4,1.6-1.6,2.5c52.1,25.3,107.6,42.6,162.8,59.5
								c54.1,16.5,109.5,32.8,155.9,64.3c23.3,15.8,43.6,35.2,58.7,58.3C937,558.9,939.3,557.9,938.4,556.5L938.4,556.5z"/>
						</g>
					</g>
				</g>
			</g>
			<g>
				<g>
					<g>
						<g>
							<linearGradient id="SVGID_54_" gradientUnits="userSpaceOnUse" x1="556.4039" y1="502.71" x2="862.9222" y2="502.71">
								<stop  offset="1.862220e-02" style="stop-color:#9A8684"/>
								<stop  offset="0.4235" style="stop-color:#D3C5C6"/>
								<stop  offset="0.4999" style="stop-color:#DED1D3"/>
								<stop  offset="0.5991" style="stop-color:#D1C0C0"/>
								<stop  offset="0.7129" style="stop-color:#C7B4B1"/>
								<stop  offset="0.8064" style="stop-color:#C4AFAC"/>
								<stop  offset="0.8566" style="stop-color:#B8A19E"/>
								<stop  offset="0.9516" style="stop-color:#977E78"/>
								<stop  offset="0.9972" style="stop-color:#866B64"/>
							</linearGradient>
							<path fill="url(#SVGID_54_)" d="M862.8,600.8c-8.4-8.4-15.1-17.9-22.1-27.4c-7.2-9.8-14.6-19.4-22.4-28.7
								c-7.7-9.3-16-18.1-25.3-26c-8.7-7.4-18.3-13.8-28.4-19.3C744.1,488,722,480,699.8,472.3c-11.3-3.9-22.7-7.7-33.9-11.9
								c-12.2-4.5-24.2-9.5-36.2-14.6c-6.9-2.9-13.8-5.9-20.5-9.4c-5.7-3-11.1-6.6-16.4-10.3c-11-7.7-21.7-16.1-33.9-22.3
								c-1.9-1-3.6,1.7-1.7,2.7c10.8,5.5,20.4,12.7,30.1,19.6c9.9,7,20,13.2,31.2,18.2c23,10.2,46.5,19.2,70.3,27.4
								c22.4,7.7,44.9,15.2,65.9,25.8c10.3,5.2,20.3,11.1,29.4,18c9.9,7.4,18.7,15.9,26.9,24.8c9.2,9.9,17.8,20.4,25.9,31.1
								C845,581.9,852,593,862,601.6C862.5,602.1,863.3,601.2,862.8,600.8L862.8,600.8z"/>
						</g>
					</g>
				</g>
			</g>
			<g>
				<g>
					<g>
						<g>
							<linearGradient id="SVGID_55_" gradientUnits="userSpaceOnUse" x1="556.3433" y1="512.4888" x2="794.412" y2="512.4888">
								<stop  offset="1.862220e-02" style="stop-color:#9A8684"/>
								<stop  offset="0.4235" style="stop-color:#D3C5C6"/>
								<stop  offset="0.4999" style="stop-color:#DED1D3"/>
								<stop  offset="0.5991" style="stop-color:#D1C0C0"/>
								<stop  offset="0.7129" style="stop-color:#C7B4B1"/>
								<stop  offset="0.8064" style="stop-color:#C4AFAC"/>
								<stop  offset="0.8566" style="stop-color:#B8A19E"/>
								<stop  offset="0.9516" style="stop-color:#977E78"/>
								<stop  offset="0.9972" style="stop-color:#866B64"/>
							</linearGradient>
							<path fill="url(#SVGID_55_)" d="M794.2,607c-7-7.4-15-14.1-22.7-20.8c-7.9-6.9-15.8-13.7-23.9-20.4
								c-16-13.4-32.3-26.6-48.7-39.8c-7.8-6.2-15.4-12.6-23.6-18.3c-8.2-5.8-17.4-10.1-26-15.3c-9-5.4-17.5-11.4-26.2-17.2
								c-8.5-5.7-17-11.3-25.5-16.9c-15.6-10.4-32.2-22.3-38.2-40.3c-0.6-1.8-3.6-1.1-3,0.7c5.1,15.4,17.8,26.7,31.1,36.2
								c7.7,5.5,15.7,10.6,23.6,15.8c9,6,18,12.1,27,18.1c8.5,5.7,17.5,10.4,26.3,15.5c9,5.2,17.1,11.5,25.2,17.9
								c16.7,13.1,33.3,26.2,49.6,39.6c9.4,7.7,18.7,15.4,27.9,23.3c8.8,7.6,17.2,15.7,26.1,23C794,608.5,794.8,607.5,794.2,607
								L794.2,607z"/>
						</g>
					</g>
				</g>
			</g>
			<g>
				<g>
					<g>
						<g>
							<linearGradient id="SVGID_56_" gradientUnits="userSpaceOnUse" x1="548.2242" y1="556.3037" x2="742.7844" y2="556.3037">
								<stop  offset="1.862220e-02" style="stop-color:#9A8684"/>
								<stop  offset="0.4235" style="stop-color:#D3C5C6"/>
								<stop  offset="0.4999" style="stop-color:#DED1D3"/>
								<stop  offset="0.5991" style="stop-color:#D1C0C0"/>
								<stop  offset="0.7129" style="stop-color:#C7B4B1"/>
								<stop  offset="0.8064" style="stop-color:#C4AFAC"/>
								<stop  offset="0.8566" style="stop-color:#B8A19E"/>
								<stop  offset="0.9516" style="stop-color:#977E78"/>
								<stop  offset="0.9972" style="stop-color:#866B64"/>
							</linearGradient>
							<path fill="url(#SVGID_56_)" d="M742.8,668.6c-0.3-9.6-3.5-18.9-7-27.8c-3.8-9.5-7.9-18.9-12.6-28
								c-9.2-18.2-22.6-33.3-36.4-48.4c-13.8-15.2-28-30.3-44.2-43.3c-15.1-12.1-32.1-22-47.4-33.9c-8.5-6.6-15.9-13.9-22.8-22
								c-6.6-7.8-13.2-15.7-22-21.3c-1.6-1-3,1.4-1.5,2.4c7.7,5.1,13.7,12.1,19.5,18.9c6,7.1,12.3,13.9,19.5,20
								c14.3,12.1,30.6,21.7,45.7,32.8c16.5,12.3,31,26.8,44.8,41.6c13.7,14.8,28.1,29.5,38.2,46.8c5.7,9.6,10.4,19.7,14.9,29.9
								c4.7,10.5,8.3,21.2,10.2,32.5C741.8,669.3,742.8,669.2,742.8,668.6L742.8,668.6z"/>
						</g>
					</g>
				</g>
			</g>
			<g>
				<g>
					<g>
						<g>
							<linearGradient id="SVGID_57_" gradientUnits="userSpaceOnUse" x1="523.3456" y1="566.4662" x2="676.8014" y2="566.4662">
								<stop  offset="1.862220e-02" style="stop-color:#9A8684"/>
								<stop  offset="0.4235" style="stop-color:#D3C5C6"/>
								<stop  offset="0.4999" style="stop-color:#DED1D3"/>
								<stop  offset="0.5991" style="stop-color:#D1C0C0"/>
								<stop  offset="0.7129" style="stop-color:#C7B4B1"/>
								<stop  offset="0.8064" style="stop-color:#C4AFAC"/>
								<stop  offset="0.8566" style="stop-color:#B8A19E"/>
								<stop  offset="0.9516" style="stop-color:#977E78"/>
								<stop  offset="0.9972" style="stop-color:#866B64"/>
							</linearGradient>
							<path fill="url(#SVGID_57_)" d="M676.8,680.2c0-18.5-5.9-37.2-12.8-54.3c-7.3-18-16.6-35.1-26.2-52
								c-9.5-16.8-18.9-33.6-33-47.4c-12.8-12.7-27.8-23.2-40.9-35.6c-3.7-3.5-7.2-7.2-10.4-11c-3.1-3.8-5.8-7.8-8.7-11.7
								c-5-6.9-11-13.6-19.9-15.9c-1.7-0.4-2.5,2.1-0.8,2.5c8.4,2.1,13.9,8.7,18.6,15.2c4.9,6.7,9.6,13.2,15.4,19.2
								c12.3,12.7,26.9,23,39.9,34.9c6.7,6.1,12.9,12.7,18.2,20c5.8,8,10.8,16.6,15.8,25c9.6,16.3,19,32.7,26.6,50
								c4.3,9.8,8.1,19.9,11,30.3c2.8,10.1,4.3,20.5,5.7,30.9C675.7,680.9,676.8,680.8,676.8,680.2L676.8,680.2z"/>
						</g>
					</g>
				</g>
			</g>
			<g>
				<g>
					<g>
						<g>
							<linearGradient id="SVGID_58_" gradientUnits="userSpaceOnUse" x1="517.8416" y1="564.3596" x2="609.6409" y2="564.3596">
								<stop  offset="1.862220e-02" style="stop-color:#9A8684"/>
								<stop  offset="0.4235" style="stop-color:#D3C5C6"/>
								<stop  offset="0.4999" style="stop-color:#DED1D3"/>
								<stop  offset="0.5991" style="stop-color:#D1C0C0"/>
								<stop  offset="0.7129" style="stop-color:#C7B4B1"/>
								<stop  offset="0.8064" style="stop-color:#C4AFAC"/>
								<stop  offset="0.8566" style="stop-color:#B8A19E"/>
								<stop  offset="0.9516" style="stop-color:#977E78"/>
								<stop  offset="0.9972" style="stop-color:#866B64"/>
							</linearGradient>
							<path fill="url(#SVGID_58_)" d="M609.6,662.7c0.2-6.8-1.2-13.8-2.5-20.4c-1.3-7-2.8-13.9-4.7-20.7
								c-3.6-13.5-8.3-26.8-14.1-39.6c-5.8-13-12.4-26-20.8-37.7c-4.1-5.7-9-10.8-14-15.9c-5.2-5.4-9.9-11.1-13.7-17.4
								c-8.4-13.9-14.7-29.1-19.4-44.4c-0.5-1.6-3.1-0.9-2.6,0.7c4,13.4,9.4,26.3,16,38.7c3.3,6.2,7,12.1,11.6,17.5
								c4.7,5.6,10.3,10.5,15.1,16c9.5,10.9,16.3,24,22.5,36.8c6.3,13,11.5,26.5,15.5,40.3c2.3,7.6,4.2,15.3,5.8,23.1
								c1.6,7.7,2.2,15.7,4.2,23.4C608.8,663.4,609.6,663.3,609.6,662.7C609.6,662.7,609.6,662.7,609.6,662.7z"/>
						</g>
					</g>
				</g>
			</g>
			<g>
				<g>
					<g>
						<g>
							<linearGradient id="SVGID_59_" gradientUnits="userSpaceOnUse" x1="504.0736" y1="524.8355" x2="528.9605" y2="524.8355">
								<stop  offset="1.862220e-02" style="stop-color:#9A8684"/>
								<stop  offset="0.4235" style="stop-color:#D3C5C6"/>
								<stop  offset="0.4999" style="stop-color:#DED1D3"/>
								<stop  offset="0.5991" style="stop-color:#D1C0C0"/>
								<stop  offset="0.7129" style="stop-color:#C7B4B1"/>
								<stop  offset="0.8064" style="stop-color:#C4AFAC"/>
								<stop  offset="0.8566" style="stop-color:#B8A19E"/>
								<stop  offset="0.9516" style="stop-color:#977E78"/>
								<stop  offset="0.9972" style="stop-color:#866B64"/>
							</linearGradient>
							<path fill="url(#SVGID_59_)" d="M528.9,588.3c-0.9-3.9-3-7.6-4.3-11.4c-1.3-3.9-2.3-7.9-3.2-11.9c-1.9-8.6-3.5-17.3-5.1-26
								c-1.7-8.9-3.5-17.8-5.2-26.7c-1.6-8.2-3.3-16.4-4-24.7c-0.4-4.3-0.6-8.7-0.5-13.1c0.1-4.4,0.9-8.7,1-13.1
								c0-1.1-1.5-1.2-1.9-0.2c-1.3,3.4-1.4,7.3-1.5,10.9c-0.2,4.1-0.1,8.1,0.2,12.2c0.6,8.1,1.9,16.1,3.5,24
								c3.6,18.2,7,36.6,10.8,54.8c1,4.6,2.1,9.1,3.5,13.6c1.3,4.1,2.8,9,5.7,12.3C528.3,589.4,529.1,588.9,528.9,588.3L528.9,588.3
								z"/>
						</g>
					</g>
				</g>
			</g>
			<g>
				<g>
					<g>
						<g>
							<linearGradient id="SVGID_60_" gradientUnits="userSpaceOnUse" x1="493.826" y1="599.059" x2="528.0904" y2="599.059">
								<stop  offset="1.862220e-02" style="stop-color:#9A8684"/>
								<stop  offset="0.4235" style="stop-color:#D3C5C6"/>
								<stop  offset="0.4999" style="stop-color:#DED1D3"/>
								<stop  offset="0.5991" style="stop-color:#D1C0C0"/>
								<stop  offset="0.7129" style="stop-color:#C7B4B1"/>
								<stop  offset="0.8064" style="stop-color:#C4AFAC"/>
								<stop  offset="0.8566" style="stop-color:#B8A19E"/>
								<stop  offset="0.9516" style="stop-color:#977E78"/>
								<stop  offset="0.9972" style="stop-color:#866B64"/>
							</linearGradient>
							<path fill="url(#SVGID_60_)" d="M526.3,586.3c-1.7,5.6-1.7,11.7-0.8,17.4c0.3,1.7,1.1,4.8-0.5,6.1c-1.1,0.9-2.9,0.2-4.1,0
								c-1.6-0.3-3.1-0.6-4.7-0.9c-3.7-0.7-7.4-1.3-11.2-1.6c-2-0.2-4-0.3-6-0.2c-1.5,0-3.3,0-4.6,0.8c-1,0.6-0.3,2,0.8,1.8
								c5.8-0.9,12-0.3,17.8,0.8c2.3,0.4,4.5,0.9,6.8,1.3c1.9,0.4,4.2,1.1,6,0.1c3-1.6,2.5-5.5,2-8.2c-1-5.8-0.7-11.4,0.1-17.2
								C528,585.6,526.6,585.5,526.3,586.3L526.3,586.3z"/>
						</g>
					</g>
				</g>
			</g>
			<g>
				<g>
					<g>
						<g>
							<linearGradient id="SVGID_61_" gradientUnits="userSpaceOnUse" x1="497.3678" y1="630.7841" x2="528.0793" y2="630.7841">
								<stop  offset="1.862220e-02" style="stop-color:#9A8684"/>
								<stop  offset="0.4235" style="stop-color:#D3C5C6"/>
								<stop  offset="0.4999" style="stop-color:#DED1D3"/>
								<stop  offset="0.5991" style="stop-color:#D1C0C0"/>
								<stop  offset="0.7129" style="stop-color:#C7B4B1"/>
								<stop  offset="0.8064" style="stop-color:#C4AFAC"/>
								<stop  offset="0.8566" style="stop-color:#B8A19E"/>
								<stop  offset="0.9516" style="stop-color:#977E78"/>
								<stop  offset="0.9972" style="stop-color:#866B64"/>
							</linearGradient>
							<path fill="url(#SVGID_61_)" d="M525.1,609.4c-0.7,3.7-0.1,7.6,0,11.3c0.1,3.4,0.1,6.8,0.1,10.2c0,6.9-0.2,13.8,0.2,20.7
								c0.7-0.4,1.3-0.7,2-1.1c-5-2.6-9.8-5.4-15-7.6c-2.6-1.1-5.3-2-8.1-2.5c-2-0.3-4.7-0.8-6.6,0.3c-0.6,0.3-0.5,1.2,0.2,1.4
								c2.3,0.5,4.7,0.1,7,0.7c2.6,0.6,5.1,1.6,7.5,2.7c4.7,2.2,9.1,4.9,13.7,7.3c0.8,0.4,2-0.1,2-1.1c-0.4-6.9-0.2-13.8-0.2-20.7
								c0-3.3,0-6.6-0.2-9.9c-0.2-3.8-0.1-7.9-0.9-11.6C526.6,608.6,525.3,608.5,525.1,609.4L525.1,609.4z"/>
						</g>
					</g>
				</g>
			</g>
			<g>
				<g>
					<g>
						<g>
							<linearGradient id="SVGID_62_" gradientUnits="userSpaceOnUse" x1="498.7226" y1="662.4699" x2="527.9946" y2="662.4699">
								<stop  offset="1.862220e-02" style="stop-color:#9A8684"/>
								<stop  offset="0.4235" style="stop-color:#D3C5C6"/>
								<stop  offset="0.4999" style="stop-color:#DED1D3"/>
								<stop  offset="0.5991" style="stop-color:#D1C0C0"/>
								<stop  offset="0.7129" style="stop-color:#C7B4B1"/>
								<stop  offset="0.8064" style="stop-color:#C4AFAC"/>
								<stop  offset="0.8566" style="stop-color:#B8A19E"/>
								<stop  offset="0.9516" style="stop-color:#977E78"/>
								<stop  offset="0.9972" style="stop-color:#866B64"/>
							</linearGradient>
							<path fill="url(#SVGID_62_)" d="M525.8,647.1c-0.4,2.6-0.2,5.2-0.3,7.8c0,2.7-0.1,5.4-0.2,8.2c-0.1,2.5-0.1,5.1-0.3,7.6
								c-0.2,1.6-0.5,3.8-2,4.9c-2,1.5-4.5-0.2-6.2-1.4c-1.9-1.4-3.7-2.9-5.7-4c-3.3-1.9-8.9-3.6-12.2-0.8c-0.7,0.6,0.1,1.4,0.8,1.3
								c1.4-0.2,2.7-0.6,4.2-0.6c1.3,0,2.5,0.3,3.7,0.8c2.5,0.9,4.6,2.6,6.7,4.2c3.1,2.5,7.7,5.4,11.2,1.7c2.9-3.1,2.4-8.7,2.4-12.5
								c0.1-2.9,0.1-5.8,0.1-8.7c0-2.8,0.2-5.7-0.4-8.4C527.4,646.2,526,646.2,525.8,647.1C525.8,647.1,525.8,647.1,525.8,647.1z"/>
						</g>
					</g>
				</g>
			</g>
			<g>
				<g>
					<g>
						<g>
							<linearGradient id="SVGID_63_" gradientUnits="userSpaceOnUse" x1="484.2682" y1="696.7183" x2="525.0075" y2="696.7183">
								<stop  offset="1.862220e-02" style="stop-color:#9A8684"/>
								<stop  offset="0.4235" style="stop-color:#D3C5C6"/>
								<stop  offset="0.4999" style="stop-color:#DED1D3"/>
								<stop  offset="0.5991" style="stop-color:#D1C0C0"/>
								<stop  offset="0.7129" style="stop-color:#C7B4B1"/>
								<stop  offset="0.8064" style="stop-color:#C4AFAC"/>
								<stop  offset="0.8566" style="stop-color:#B8A19E"/>
								<stop  offset="0.9516" style="stop-color:#977E78"/>
								<stop  offset="0.9972" style="stop-color:#866B64"/>
							</linearGradient>
							<path fill="url(#SVGID_63_)" d="M524.3,674.1c-2.7,4.6-4,10.4-5.2,15.5c-0.8,3.5-1.3,7.1-1.8,10.6c-0.4,2.7-0.1,5.2,0,8
								c0.2,3.8-1.5,7.5-5.6,8.4c-3.9,0.8-8.3,0.7-12.3,0.8c-4.4,0.1-9.8,0.5-14-1.4c-1-0.5-1.8,0.8-0.9,1.5c1.4,1,3.3,1.2,5,1.5
								c2.4,0.3,4.7,0.5,7.1,0.5c4.5,0.1,9.1,0.1,13.6-0.3c2.8-0.3,5.5-1.1,7.2-3.5c1.8-2.5,2.2-5.5,1.9-8.5
								c-0.5-4.7,0.2-9.3,1.1-13.9c0.5-2.6,1.1-5.2,1.8-7.8c0.9-3.7,2.3-7.3,2.7-11.1C525,673.9,524.5,673.8,524.3,674.1
								L524.3,674.1z"/>
						</g>
					</g>
				</g>
			</g>
			<g>
				<g>
					<g>
						<g>
							<linearGradient id="SVGID_64_" gradientUnits="userSpaceOnUse" x1="498.5124" y1="730.2122" x2="516.4084" y2="730.2122">
								<stop  offset="1.862220e-02" style="stop-color:#9A8684"/>
								<stop  offset="0.4235" style="stop-color:#D3C5C6"/>
								<stop  offset="0.4999" style="stop-color:#DED1D3"/>
								<stop  offset="0.5991" style="stop-color:#D1C0C0"/>
								<stop  offset="0.7129" style="stop-color:#C7B4B1"/>
								<stop  offset="0.8064" style="stop-color:#C4AFAC"/>
								<stop  offset="0.8566" style="stop-color:#B8A19E"/>
								<stop  offset="0.9516" style="stop-color:#977E78"/>
								<stop  offset="0.9972" style="stop-color:#866B64"/>
							</linearGradient>
							<path fill="url(#SVGID_64_)" d="M515.8,713.9c-2.4,1.8-3.9,5-5.4,7.6c-1.6,2.7-3,5.5-4.1,8.4c-1.1,2.9-1.7,6-2.7,9
								c-0.9,2.6-2.1,4.7-4.7,5.9c-1.1,0.5-0.3,2.1,0.8,1.8c5.6-1.3,6.4-9.3,7.7-13.7c1-3.4,2.5-6.6,4.2-9.7c1.5-2.9,4-5.8,4.7-9
								C516.5,713.8,516.1,713.7,515.8,713.9L515.8,713.9z"/>
						</g>
					</g>
				</g>
			</g>
			<g>
				<g>
					<g>
						<g>
							<linearGradient id="SVGID_65_" gradientUnits="userSpaceOnUse" x1="480.5844" y1="566.1774" x2="520.4815" y2="566.1774">
								<stop  offset="1.862220e-02" style="stop-color:#9A8684"/>
								<stop  offset="0.4235" style="stop-color:#D3C5C6"/>
								<stop  offset="0.4999" style="stop-color:#DED1D3"/>
								<stop  offset="0.5991" style="stop-color:#D1C0C0"/>
								<stop  offset="0.7129" style="stop-color:#C7B4B1"/>
								<stop  offset="0.8064" style="stop-color:#C4AFAC"/>
								<stop  offset="0.8566" style="stop-color:#B8A19E"/>
								<stop  offset="0.9516" style="stop-color:#977E78"/>
								<stop  offset="0.9972" style="stop-color:#866B64"/>
							</linearGradient>
							<path fill="url(#SVGID_65_)" d="M519.5,564.1c-3.2,0.4-6.3,1.2-9.6,1.7c-3.5,0.5-7.1,0.9-10.6,1c-3.2,0.2-6.4,0-9.5-0.6
								c-3-0.6-5.8-1.8-8.6-2.9c-0.4-0.2-0.9,0.4-0.6,0.8c3.8,4.8,12.1,5.2,17.9,5c7.1-0.3,14.8-1.1,21.4-3.6
								C520.9,565.2,520.5,564,519.5,564.1L519.5,564.1z"/>
						</g>
					</g>
				</g>
			</g>
			<g>
				<g>
					<g>
						<g>
							<linearGradient id="SVGID_66_" gradientUnits="userSpaceOnUse" x1="487.6724" y1="520.4958" x2="510.7877" y2="520.4958">
								<stop  offset="1.862220e-02" style="stop-color:#9A8684"/>
								<stop  offset="0.4235" style="stop-color:#D3C5C6"/>
								<stop  offset="0.4999" style="stop-color:#DED1D3"/>
								<stop  offset="0.5991" style="stop-color:#D1C0C0"/>
								<stop  offset="0.7129" style="stop-color:#C7B4B1"/>
								<stop  offset="0.8064" style="stop-color:#C4AFAC"/>
								<stop  offset="0.8566" style="stop-color:#B8A19E"/>
								<stop  offset="0.9516" style="stop-color:#977E78"/>
								<stop  offset="0.9972" style="stop-color:#866B64"/>
							</linearGradient>
							<path fill="url(#SVGID_66_)" d="M510,519.3c-2.6,0.2-5.1,0.8-7.8,0.7c-2.1-0.1-4.1-0.2-6.2-0.4c-1.7-0.2-3.4-0.4-5.1-0.6
								c-0.8-0.1-1.8-0.2-2.6,0c-0.4,0.1-0.7,0.5-0.7,0.9c0,0,0,0,0,0c0,0.4,0.3,0.8,0.7,0.9c0.5,0.1,1.1,0,1.7,0
								c0.6,0,0.9-0.8,0.3-1.1c-0.3-0.2-0.7-0.3-1-0.5c-0.3-0.1-0.1,0-0.3-0.1c0.1,0.3,0.3,0.7,0.4,1c0,0,0,0,0,0
								c-0.3,0.2-0.6,0.4-0.9,0.7c-0.5,0,0.3,0.1,0.5,0.2c0.6,0.2,1.1,0.3,1.8,0.3c1.8,0.2,3.6,0.4,5.4,0.6c2.1,0.2,4.1,0.3,6.2,0.3
								c2.7,0,5.1-0.7,7.7-1.3C511.1,520.7,510.9,519.2,510,519.3L510,519.3z"/>
						</g>
					</g>
				</g>
			</g>
			<g>
				<g>
					<g>
						<g>
							<linearGradient id="SVGID_67_" gradientUnits="userSpaceOnUse" x1="494.6852" y1="481.4091" x2="506.11" y2="481.4091">
								<stop  offset="1.862220e-02" style="stop-color:#9A8684"/>
								<stop  offset="0.4235" style="stop-color:#D3C5C6"/>
								<stop  offset="0.4999" style="stop-color:#DED1D3"/>
								<stop  offset="0.5991" style="stop-color:#D1C0C0"/>
								<stop  offset="0.7129" style="stop-color:#C7B4B1"/>
								<stop  offset="0.8064" style="stop-color:#C4AFAC"/>
								<stop  offset="0.8566" style="stop-color:#B8A19E"/>
								<stop  offset="0.9516" style="stop-color:#977E78"/>
								<stop  offset="0.9972" style="stop-color:#866B64"/>
							</linearGradient>
							<path fill="url(#SVGID_67_)" d="M505.5,481.2c-1.7-0.3-3.4-0.6-5.1-0.8c-0.9-0.1-1.8-0.2-2.8-0.3c-1-0.1-2.3-0.3-2.7,0.8
								c0.2-0.2,0.4-0.4,0.6-0.6c-0.1,0-0.2,0.1-0.3,0.1c-0.6,0.2-0.8,1-0.2,1.3c0.1,0,0.1,0.1,0.2,0.1c-0.1-0.2-0.3-0.3-0.4-0.5
								c0.2,1,1.8,1,2.7,1.1c0.9,0.1,1.8,0.1,2.7,0.2c1.7,0.1,3.3,0.2,5,0.1C506.2,482.7,506.5,481.4,505.5,481.2L505.5,481.2z"/>
						</g>
					</g>
				</g>
			</g>
			<g>
				<g>
					<g>
						<g>
							<linearGradient id="SVGID_68_" gradientUnits="userSpaceOnUse" x1="496.3167" y1="468.3174" x2="506.2087" y2="468.3174">
								<stop  offset="1.862220e-02" style="stop-color:#9A8684"/>
								<stop  offset="0.4235" style="stop-color:#D3C5C6"/>
								<stop  offset="0.4999" style="stop-color:#DED1D3"/>
								<stop  offset="0.5991" style="stop-color:#D1C0C0"/>
								<stop  offset="0.7129" style="stop-color:#C7B4B1"/>
								<stop  offset="0.8064" style="stop-color:#C4AFAC"/>
								<stop  offset="0.8566" style="stop-color:#B8A19E"/>
								<stop  offset="0.9516" style="stop-color:#977E78"/>
								<stop  offset="0.9972" style="stop-color:#866B64"/>
							</linearGradient>
							<path fill="url(#SVGID_68_)" d="M506,468.8c-0.2-0.2-0.4-0.3-0.6-0.4c0.1,0.1,0.2,0.2,0.3,0.3c-0.4-0.6-1.3-0.9-2-1.1
								c-0.8-0.2-1.5-0.4-2.3-0.5c-0.8-0.1-1.6-0.2-2.5-0.1c-0.8,0-1.8,0.1-2.4,0.7c-0.5,0.5-0.3,1.5,0.5,1.7c0.4,0.1,0.8,0,1.3,0
								c0.1,0,0.1,0,0.2,0c-0.3,0.1,0,0,0.1,0c0.2,0,0.3,0,0.5,0c0.8,0,1.5,0,2.3,0c0.8,0.1,1.3,0.1,2.1,0.3c0.3,0.1,0.7,0.1,1,0.2
								c0.1,0,0.2,0,0.3,0.1c0.1,0,0.4,0,0.4,0c-0.2,0-0.2,0-0.1,0c0,0,0.1,0,0.1,0c0,0,0.2,0.1,0.1,0c0.3,0.1,0.6,0.1,0.8-0.2
								C506.3,469.3,506.3,469,506,468.8L506,468.8z"/>
						</g>
					</g>
				</g>
			</g>
			<g>
				<g>
					<g>
						<g>
							<linearGradient id="SVGID_69_" gradientUnits="userSpaceOnUse" x1="492.4655" y1="431.1344" x2="507.5124" y2="431.1344">
								<stop  offset="1.862220e-02" style="stop-color:#9A8684"/>
								<stop  offset="0.4235" style="stop-color:#D3C5C6"/>
								<stop  offset="0.4999" style="stop-color:#DED1D3"/>
								<stop  offset="0.5991" style="stop-color:#D1C0C0"/>
								<stop  offset="0.7129" style="stop-color:#C7B4B1"/>
								<stop  offset="0.8064" style="stop-color:#C4AFAC"/>
								<stop  offset="0.8566" style="stop-color:#B8A19E"/>
								<stop  offset="0.9516" style="stop-color:#977E78"/>
								<stop  offset="0.9972" style="stop-color:#866B64"/>
							</linearGradient>
							<path fill="url(#SVGID_69_)" d="M506,429.5c-0.5,0.6-1.4,1-2.1,1.2c-1.1,0.3-2.2,0.4-3.3,0.4c-1.2,0-2.5-0.3-3.6-0.6
								c-1.2-0.4-2.3-1.2-3.5-1.3c-0.5-0.1-1,0.6-0.8,1c0.5,1.4,2.3,2.1,3.7,2.5c1.5,0.5,3.1,0.7,4.6,0.7c2.5,0,5.6-0.7,6.6-3.2
								C507.8,429.2,506.5,428.8,506,429.5L506,429.5z"/>
						</g>
					</g>
				</g>
			</g>
			<g>
				<g>
					<g>
						<g>
							<linearGradient id="SVGID_70_" gradientUnits="userSpaceOnUse" x1="493.9429" y1="366.6671" x2="511.0146" y2="366.6671">
								<stop  offset="1.862220e-02" style="stop-color:#9A8684"/>
								<stop  offset="0.4235" style="stop-color:#D3C5C6"/>
								<stop  offset="0.4999" style="stop-color:#DED1D3"/>
								<stop  offset="0.5991" style="stop-color:#D1C0C0"/>
								<stop  offset="0.7129" style="stop-color:#C7B4B1"/>
								<stop  offset="0.8064" style="stop-color:#C4AFAC"/>
								<stop  offset="0.8566" style="stop-color:#B8A19E"/>
								<stop  offset="0.9516" style="stop-color:#977E78"/>
								<stop  offset="0.9972" style="stop-color:#866B64"/>
							</linearGradient>
							<path fill="url(#SVGID_70_)" d="M510.2,364.7c-2.4,0.9-4.9,1.7-7.5,2c-2.7,0.3-5.2,0.1-7.9,0c-1,0-1,1.2-0.2,1.5
								c2.6,0.9,5.8,0.6,8.5,0.2c2.7-0.4,5.6-1,7.8-2.6C511.3,365.4,510.8,364.5,510.2,364.7L510.2,364.7z"/>
						</g>
					</g>
				</g>
			</g>
		</g>
	</g>
</g>
</svg>
