<?xml version="1.0" encoding="utf-8"?>
<!-- Generator: Adobe Illustrator 21.1.0, SVG Export Plug-In . SVG Version: 6.00 Build 0)  -->
<svg version="1.1" id="Layer_1" xmlns="http://www.w3.org/2000/svg" xmlns:xlink="http://www.w3.org/1999/xlink" x="0px" y="0px"
	 viewBox="0 0 1000 1000" enable-background="new 0 0 1000 1000" xml:space="preserve">
<g>
	<g>
		<g>
			<g>
				<g>
					<linearGradient id="SVGID_1_" gradientUnits="userSpaceOnUse" x1="305.6199" y1="500" x2="694.3801" y2="500">
						<stop  offset="1.862220e-02" style="stop-color:#9A8684"/>
						<stop  offset="0.4235" style="stop-color:#D3C5C6"/>
						<stop  offset="0.4999" style="stop-color:#DED1D3"/>
						<stop  offset="0.5991" style="stop-color:#D1C0C0"/>
						<stop  offset="0.7129" style="stop-color:#C7B4B1"/>
						<stop  offset="0.8064" style="stop-color:#C4AFAC"/>
						<stop  offset="0.8566" style="stop-color:#B8A19E"/>
						<stop  offset="0.9516" style="stop-color:#977E78"/>
						<stop  offset="0.9972" style="stop-color:#866B64"/>
					</linearGradient>
					<path fill="url(#SVGID_1_)" d="M509,995l-15-0.7c-10.2-0.5-20.8-1.7-31.5-3.5l-6.8-1.2l-5.6-21.5
						c-6.8-29.2-12.2-58.8-17.2-86.7c-3.1-17.6-7-31.5-12.3-43.8l-11.3-26.3c-19.5-45.4-39.6-92.3-62.4-137.1
						c-25.4-50-39.3-107-41.1-169.5c-1.6-66.9,16.6-133.9,54.2-199.2c10.6-18.9,23.9-39,40.5-61.2c13.2-17.9,28.4-36.3,46.3-56.2
						c46.2-51.8,103.2-100.5,164.9-140.6c7.9-5,15.5-10.1,22.9-15.2l11.6-7.8c4.6-2.7,8.7-4.8,12.8-6.9l0.3-0.1
						c3.8-1.9,7.9-3.5,12.8-5.4l17.8-7l1.1,14.5c0.1,1.3,0.3,2.5,0.4,3.5c0.4,2.8,0.8,5.9,0,9.4c-2.1,8.3-3.4,18-4.6,28.1l-1.1,8.7
						c-0.9,7-1.7,13.8-2.2,21.2l-0.8,15.7c-0.9,16.1-1.7,31.2-1.3,47.7c0.2,20.9,0.4,43.1,1.9,65.7c1.2,23.9,2.7,45.7,4.6,66.9
						l5.5,66.8c2.4,33.5,0.5,67-5.6,99.7c-16.1,89-48.4,171-95.9,243.6c-23.6,36.1-49.7,72.4-79.6,111c-12.6,16.2-21.2,35.8-27,61.4
						c-2.4,10.6-2.5,21.2-0.1,32.3c5.7,26.3,12.3,53.1,19.8,79.4L509,995z M473,970.6c2.4,0.3,4.7,0.6,7,0.9
						c-5.9-21.9-11.3-44-16-65.8c-3-14.3-3-27.9,0.2-41.6c6.5-28.9,16.4-51.1,31-69.9c29.6-38.2,55.3-74,78.6-109.6
						c46.6-71.1,76.9-148.2,92.8-235.7c5.8-31,7.6-62.6,5.3-94.1l-5.5-66.6c-1.9-21.3-3.5-43.4-4.7-67.5c-1.5-23-1.8-45.5-2-66.6
						c-0.4-17.1,0.4-33.4,1.3-49.2l0.8-15.8c0.5-8,1.5-15.3,2.4-22.6l1-8.6c0.9-7.3,1.8-14.4,3-21c-3.6,1.8-7.3,3.7-10.8,5.8
						l-10.7,7.2c-7.8,5.3-15.5,10.5-23.6,15.6c-60,39-115.5,86.4-160.5,136.8c-17.5,19.4-32.2,37.3-45,54.7
						c-16,21.6-28.8,40.9-39.1,59.1c-36.1,62.8-52.9,124.2-51.4,187.9c1.8,59.3,14.8,113.2,38.8,160.3c23.2,45.5,43.4,92.7,63,138.4
						l11.3,26.2c6,13.9,10.3,29.3,13.8,48.6c4.9,27.5,10.2,56.8,16.9,85.3L473,970.6z"/>
				</g>
			</g>
		</g>
	</g>
	<g>
		<g>
			<g>
				<g>
					<linearGradient id="SVGID_2_" gradientUnits="userSpaceOnUse" x1="438.8111" y1="570.6969" x2="500.4972" y2="570.6969">
						<stop  offset="1.862220e-02" style="stop-color:#9A8684"/>
						<stop  offset="0.4235" style="stop-color:#D3C5C6"/>
						<stop  offset="0.4999" style="stop-color:#DED1D3"/>
						<stop  offset="0.5991" style="stop-color:#D1C0C0"/>
						<stop  offset="0.7129" style="stop-color:#C7B4B1"/>
						<stop  offset="0.8064" style="stop-color:#C4AFAC"/>
						<stop  offset="0.8566" style="stop-color:#B8A19E"/>
						<stop  offset="0.9516" style="stop-color:#977E78"/>
						<stop  offset="0.9972" style="stop-color:#866B64"/>
					</linearGradient>
					<path fill="url(#SVGID_2_)" d="M500.5,353.2c-1.2,5.2-2.2,10.5-3.6,15.7c-19.3,76.8-32.6,155-38.3,234
						c-2.4,33.2-4.1,66.6-4.5,99.8c-0.3,23.7,2,47.5,3.2,71.2c0.1,2.6,1.1,5.4,0.2,7.6c-1,2.7-3,6-5.5,7.1c-4,1.7-7.1-1.4-8.3-5.1
						c-1.2-3.8-2.1-7.8-2.3-11.8c-1.1-23.7-3-47.5-2.8-71.2c1.2-97.3,13.4-193.9,37-288.6c4-16,9.8-31.4,15.3-47
						c1.6-4.4,4.2-8.3,6.4-12.4L500.5,353.2z"/>
				</g>
			</g>
		</g>
	</g>
</g>
</svg>
