<?xml version="1.0" encoding="utf-8"?>
<!-- Generator: Adobe Illustrator 21.1.0, SVG Export Plug-In . SVG Version: 6.00 Build 0)  -->
<svg version="1.1" id="Layer_1" xmlns="http://www.w3.org/2000/svg" xmlns:xlink="http://www.w3.org/1999/xlink" x="0px" y="0px"
	 viewBox="0 0 1000 1000" enable-background="new 0 0 1000 1000" xml:space="preserve">
<g>
	<g>
		<g>
			<linearGradient id="SVGID_1_" gradientUnits="userSpaceOnUse" x1="50.7327" y1="500" x2="949.2673" y2="500">
				<stop  offset="1.862220e-02" style="stop-color:#9A8684"/>
				<stop  offset="0.4235" style="stop-color:#D3C5C6"/>
				<stop  offset="0.4999" style="stop-color:#DED1D3"/>
				<stop  offset="0.5991" style="stop-color:#D1C0C0"/>
				<stop  offset="0.7129" style="stop-color:#C7B4B1"/>
				<stop  offset="0.8064" style="stop-color:#C4AFAC"/>
				<stop  offset="0.8566" style="stop-color:#B8A19E"/>
				<stop  offset="0.9516" style="stop-color:#977E78"/>
				<stop  offset="0.9972" style="stop-color:#866B64"/>
			</linearGradient>
			<path fill="url(#SVGID_1_)" d="M774,850.9c-204.2,20.2-386.2-129-406.4-333.3c-20.2-204.2,129-386.2,333.3-406.4
				c65.3-6.5,128.3,4.5,184.5,28.9C784.9,45.3,645.4-7.2,497.1,7.4C225,34.3,26.3,276.6,53.2,548.7
				c26.9,272,269.2,470.8,541.2,443.9c148.4-14.7,274.8-93.5,354.9-206.2C898.9,821.4,839.3,844.4,774,850.9z M581.2,54.7
				c2.4-2.3,5.3-3.6,8.2-3.6c2.9,0,6.1,1.7,8.3,4.2c1.9,2.2,2.8,4.7,2.5,7.1c-0.1,5.7-5.4,11.2-11.2,11.3c-0.1,0-0.1,0-0.2,0
				c-2.5,0-5.1-1.2-7.2-3.2c-2.4-2.3-3.8-5.4-3.8-8.3C577.8,59.6,579,56.9,581.2,54.7z M471.6,158.7c-0.1,0-0.1,0-0.2,0
				c-2.5,0-5.1-1.2-7.2-3.2c-2.4-2.3-3.8-5.4-3.8-8.3c0-2.6,1.2-5.3,3.4-7.5c2.3-2.3,5.2-3.7,8.2-3.6c2.9,0,6.1,1.7,8.3,4.2
				c1.9,2.2,2.8,4.7,2.5,7.1C482.7,153.1,477.4,158.5,471.6,158.7z M220.9,162c5.6-5.3,12.3-8.4,18.6-8.5c6.6,0,11.9,3.1,15,8.7
				c0.9-0.4,1.9-0.8,3-1.1c1.7-0.4,3.7-0.7,5.1-0.8c0.9-0.1,1.8,0,2.8,0c0.6,0,1.1,0,1.6,0l3.4-0.1c1.7,0,3.3,0,4.8,0.1
				c3.1,0.1,6.3,0.1,10.7-0.1c3.8-0.2,7.6-0.9,11.3-1.5c4.2-0.8,8-1.6,11.8-2.2l2.7-0.6c8.7-1.9,15.2-6.1,21.9-11.9
				c2-1.7,3.7-3.2,5.4-4.5c1.6-1.3,3.2-2.5,4.9-3.7c0.5-0.4,1-0.8,1.5-1.3c1.4-1.3,3-2.6,4.9-3.2l8.5-6.1c3.8-2.9,8.1-5.2,12.6-7.7
				l1.2-0.6c4.8-2.7,10.1-5.7,15.9-8.7c1.9-1,4-2.2,5.6-2.9c2.3-0.9,4.5-1.7,6.7-2.4c1.7-0.5,3.3-1.1,5-1.7c3.2-1.3,6.5-2.3,9.7-3.3
				c1.5-0.5,3-1,4.6-1.5l5.9-1.9l13.3-3.3c2.3-0.6,4.9-1,8-1.4c2.7-0.3,5.3-0.8,7.8-1.3l1.2-0.2c0.8-0.4,1.6-0.5,2.6-0.5
				c1.7-0.2,3.7-0.6,5.8-0.7l5.9-0.7c1.9-0.2,4-0.3,6.2-0.3l1,0c1.7,0.1,3.4,0.1,5,0.1c1.8,0,3.6,0,5.5-0.1c3-0.1,6.1-0.2,9.2,0.1
				l3,0.1c3,0.1,5.9,0.2,8.9,0.5c0.8,0.1,1.6,0.2,2.4,0.3l1.2,0.2c1.3,0.2,2.6,0.3,4,0.3c2.8,0.1,4.9,0.5,6.1,1.3
				c1.7,1.1,3.8,2.6,4.1,3.7c0.7,2.4-1,3.8-2.3,4.9c-2.5,2-9.1,1.7-9.2,1.6l-7-0.7c-1.9-0.1-3.7-0.2-5.6-0.4
				c-2.6-0.2-5.4-0.5-8.9-0.5c-2.7,0.1-5.5,0.3-8.2,0.5l-8.8,0.7c-1.9,0.2-3.8,0.4-5.8,0.5l-1.3,0.1c-8.5,0.8-14.6,2.2-22.1,6.1
				c-1.4,0.8-2.9,1.6-4.3,2.4l-1.2,0.7c-4.2,2.5-7.5,5.4-10.9,8.5l-3.5,3.4c-1,1-2.2,2-3.3,3c-1.3,1.1-2.6,2.2-3.7,3.4
				c-3,3.1-5.5,6.4-7.4,9c-1.9,2.6-3.6,5.3-5.2,7.9l-1.5,2.4c-0.5,0.8-0.9,1.7-1.4,2.7c-0.8,1.6-1.6,3.5-3.1,4.4l-0.6,0.3
				c-0.1,0-0.1,0.1-0.2,0.1c0.7,0.5,1.3,1.1,1.8,1.7c0.2,0.2,0.3,0.4,0.5,0.5c6.4,5.8,8.5,16.2,4.8,24.2c-3.8,7.9-12,11.8-20.6,9.8
				c-4.2-1-6.9-2.7-9.8-4.9c-2.9-2.5-5.1-5.5-6.4-8.9c-1.4-3.6-1.8-7-1.2-10.4l0.1-0.5c1.2-4.3,1.4-5.1,4.2-9.1
				c1.9-2.7,4.8-4.6,8.8-5.6c0.3-0.1,0.6-0.2,0.8-0.2c1.4-0.3,2.7-0.5,4-0.6c1.8,0,3.6,0.2,5.3,0.6c-0.1-0.7,0-1.6,0.1-2.8
				c0.2-1.6,0.8-3.1,1.2-4.1c0.3-0.7,0.7-1.4,1-2.1c0.2-0.4,0.4-0.8,0.5-1.1l1.4-2.5c0.8-1.6,1.8-3,2.8-4.3l0.7-0.9
				c1.2-1.7,2.5-3.5,4.1-5.8l0.9-1.3c1.7-2.4,3.4-4.8,5.3-7.1c2.1-2.7,4.6-5.2,7.6-7.7l1-0.8c0.4-0.3,0.8-0.7,1.3-1
				c-0.4,0.1-0.7,0.2-1.1,0.4c-4.3,1.4-7.7,2.7-10.7,4.3c-4.2,1.9-7.7,3.4-11,4.6l-10.4,4.4c-1,0.5-2.4,1.2-3.8,1.9
				c-1.3,0.8-2.9,1.8-4.4,2.8l-1.5,1c-7.5,3.8-10.8,9-14.8,16.2c0,0-1.4,2.5-1.4,2.5c-2.1,3.6-4.1,7.6-6.1,11.9
				c-2.3,4.8-3.5,9.3-4.7,14.1l-1.2,5.4c-0.3,1.5-0.8,2.9-1.3,4.4c-0.6,1.8-1.1,3.5-1.4,5.3c-0.8,4.2-1.1,8.5-1.3,12.2
				c-0.2,2.9-0.2,6,0,9.8l0.1,2.9c0,0.1,0,0.2,0,0.3c1.4,0.5,2.7,1.2,4,2c4.7,3,8.6,7.8,10.6,13.2c1.2,3.2,1.7,6.7,1.4,9.9
				c-0.2,3.3-1.2,6-3.1,8.1c-2.2,2.3-4.4,3.4-7.5,3.9c-1.2,0-2.2,0.1-3.2,0.2l-1.2,0.1c-0.2,0-0.4,0-0.6,0c-1.7,0-3.7-0.3-5.6-0.9
				c-3.5-0.8-6.9-2.3-10-4.4c-1.6-1.3-3-2.5-4.4-3.8c-2.7-2.9-4.4-6-5.3-9.4c-0.9-3.5-0.7-6.9,0.5-10c1.7-4.6,6-8.2,11.5-9.7
				c0.2-0.1,0.5-0.1,0.7-0.1l-0.1-2.8c-0.1-2.2,0-4.2,0-6.3l0.2-7.3c0.2-4.2,0.5-7.6,0.8-10.9c0.5-4.4,1.1-7.9,2.1-11.1l0.4-1.2
				c0.6-1.9,1.4-3.8,2.2-5.6c0.4-1.1,0.9-2.1,1.3-3.2l0.7-2c0.7-2,1.5-4.4,2.5-6.7c0.3-0.8,0.7-1.6,1-2.4c-1.3,1.1-2.6,2.3-4.1,3.4
				c-1.5,1.5-3.1,3.2-4.8,4.8l-2,1.8c-2.1,1.9-4.2,3.9-6,6c-1.6,1.9-3.9,4.9-5.9,7.7c-1.1,1.5-2,3.1-2.9,4.6
				c-0.9,1.4-1.6,2.6-2.3,3.6c-1.4,2.1-2.7,3.9-3.9,5.5c-0.6,0.8-1.1,1.6-1.6,2.5c-0.5,0.8-0.9,1.5-1.4,2.2
				c-0.3,0.4-0.5,0.9-0.8,1.4l-0.3,0.6c-0.7,1.4-1.4,2.9-2.6,4.1l-1.1,1c-1.2,1-2.4,1.7-3.5,2c-1.1,0.3-2.1,0-2.9-0.6
				c-1.3-1-1.9-3-1.8-5.3c0.1-2.4,0.8-4,1.6-5.9l0.3-0.7c0.3-0.8,0.8-1.7,1.3-2.6c0.3-0.6,0.6-1.2,0.8-1.7l1.5-3.1
				c2.2-3.8,4.9-8.2,8.3-13.1l-0.2,0.1c-3.5,0.9-7.1,1.2-10.5,1.5l-4.8,0.4c-4.8,0.4-9.4,0.7-14.1,0.9l-1.5,0c-4,0.1-7.7,0.2-11.6,0
				c-1.2-0.1-2.3-0.1-3.7-0.1c-1.4,0-2.9,0-4.3,0.2c-1.2,0.1-2.3,0.1-3.2,0.1c-0.1,4-0.9,8-2.5,11.7c-3.7,9-10.6,16-18.5,18.8
				c-6.1,2.2-12.2,1.8-17-1.2c-4.7-2.8-7.8-7.7-8.7-13.9c0-0.4-0.1-0.7,0-1.1C208.6,179.6,214.5,168.2,220.9,162z M302.2,392.4
				l-0.3-0.8c-2.2-6.6-9.5-11-23.1-13.8c-1.4-0.3-2.7-0.7-3.9-1.1c-1.2-0.4-2-1.4-2-2.5c0-1.1,0.7-2,1.8-2.5
				c0.8-0.3,1.5-0.6,2.4-0.8c7.7-1.9,14-5.3,20.6-11c4-3.5,5.8-7.6,5.9-13.3c0-0.2,0-0.5-0.1-1c-0.2-2.4-0.7-6.5,1.5-8.4
				c0.7-0.6,1.8-1.2,3.6-0.8c3.7,0.8,3.7,5.8,3.7,9.2c0,0.7,0,1.7,0.1,1.9c2.6,10.5,12,18.1,26.5,21.4c0.4,0.1,0.8,0.1,1.3,0.1
				c1.4,0.1,4.5,0.4,4.4,3.3c-0.1,2.3-2.7,2.9-4.3,3.2l-0.7,0.2c-13.9,3.5-22.5,12-25.8,25.1c-0.3,1.3-0.3,2.6-0.4,4.1l0,1.4
				c0,0.7-0.4,2-2.2,2.9c-0.9,0.4-2,0.7-3.2,0.7c-1.1,0-2.1-0.2-2.9-0.8c-0.8-0.6-1.2-1.5-1.1-2.6
				C304.8,400.1,303.7,396.7,302.2,392.4z M270.2,263.8c-4.9-2.2-8.8-6.4-10.6-11.5c-1.9-5.4-1.5-11.1,1.1-16.2
				c2.6-5.1,7.2-8.9,12.8-10.4c5.3-1.5,11-0.7,15.5,2.1c9.4,5.9,13,17.8,8.3,27.1v0c-3.5,6.8-10.8,10.8-18.4,10.8
				C276,265.6,273,265,270.2,263.8z M339.8,302c-2.6,0.5-5.5,1-8.5,1c-3.2,0-6.5-0.6-9.5-2.2c-3.6-1.5-6.7-3.8-9.1-6.8
				c-1.2-1.6-2.2-3.2-3-4.8c-1.9-3.8-2-7.6-1.8-10.8c0.3-4.3,2.7-8.3,4.9-10.6c1.5-1.6,3.4-2.9,5.8-3.8c0.3-0.3,0.6-0.5,0.9-0.7
				c4.3-2.3,10-2.6,15.5-0.9c3.6,1.2,7,3.1,10,5.7c3.9,3.9,8.3,8.8,8.7,14l0.1,0.8c0.2,3.1,0.5,6.6-1.6,9.7l-1.1,1.6
				c-1.6,2.4-2.1,3-5.6,5.4C343.5,300.8,341.6,301.7,339.8,302z M199.5,265.6c1.3-2.6,2.6-4.9,4.4-7.2c5.2-6.6,12.7-10,20.1-9.1
				c7.6,0.9,14.1,6.1,17,13.6c2.8,7.3,1.7,15.7-2.9,21.9c-3.5,4.7-9,8.1-14,8.6l-0.8,0.1c-1.7,0.2-3.4,0.4-5.1,0.4
				c-0.7,0-1.3,0-2-0.1c-7.3-0.7-13.6-5.3-16.6-12C197.6,277.4,196.9,270.6,199.5,265.6z M145.9,317.9c2.3-2.3,5.4-3.8,8.2-3.6
				c2.9,0,6.1,1.6,8.3,4.2c1.9,2.2,2.8,4.7,2.5,7.1c-0.1,5.7-5.4,11.2-11.2,11.3c-0.1,0-0.1,0-0.2,0c-2.5,0-5.1-1.2-7.2-3.2
				c-2.4-2.3-3.8-5.4-3.8-8.3C142.5,322.8,143.7,320.1,145.9,317.9z M251.4,716.5l-0.6,0.1c-13.8,3.5-22.5,12-25.8,25.1
				c-0.3,1.3-0.3,2.6-0.4,4.1l0,1.4c0,0.7-0.4,2-2.2,2.9c-0.9,0.4-2,0.7-3.2,0.7c-1.1,0-2.1-0.2-2.9-0.8c-0.8-0.6-1.2-1.5-1.1-2.6
				c0.9-6.6-0.2-9.9-1.7-14.2l-0.3-0.8c-2.2-6.6-9.5-11-23.1-13.8c-1.4-0.3-2.7-0.7-3.9-1.1c-1.2-0.4-2-1.3-2-2.4
				c0-1.1,0.7-2.1,1.8-2.5c0.8-0.3,1.6-0.6,2.4-0.8c7.7-1.9,14-5.3,20.6-11c4-3.5,5.8-7.6,5.9-13.4c0-0.2,0-0.5-0.1-0.9
				c-0.3-2.4-0.7-6.5,1.5-8.4c0.7-0.6,1.8-1.2,3.6-0.8c3.7,0.8,3.7,5.9,3.7,9.2c0,0.7,0,1.7,0.1,1.9c2.6,10.4,12,18.1,26.5,21.4
				c0.4,0.1,0.8,0.1,1.3,0.1c1.4,0.1,4.6,0.4,4.4,3.3C255.7,715.5,253.1,716.1,251.4,716.5z M187.8,545.7c0,0.2-0.1,0.5-0.1,0.7
				c0.1,2.6,0.3,5.4,0.6,8.2l0.8,5.9c0.2,1.6,0.3,3.1,0.4,4.7c0.2,2.4,0.3,4.7,0.8,6.9l1.8,7c0.4,1.4,0.9,2.9,1.5,4.3
				c0.3,0.8,0.6,1.6,0.9,2.5c0.7,2.2,1.8,4.6,2.9,6.8c0.7,1.5,1.4,3,2,4.5c0.9,1.9,1.7,3.9,2.5,5.9c1.2,2.8,2.3,5.6,3.8,8.6
				c2.7,5.8,5.7,10.5,8.8,15.3l3.6,4.8c0.9,1.3,1.8,2.5,2.7,3.8c1.3,2,2.7,4,4.2,5.8c1.1,1.2,2.3,2.4,3.5,3.5l1.6,1.5l10.1,8.2
				c1,0.7,2.1,1.4,3.3,2.1l1.6,0.9c1,0.6,1.9,1.1,2.9,1.6c1.2,0.6,2.3,1.1,3.6,1.6l1.1,0.5c1.5,0.6,3.2,1.4,4.2,2.4
				c3,3,3.1,3.8,3.2,4.2c0.4,2.7-1.9,3.5-3.5,4c-0.4,0.1-1,0.2-1.6,0.2c-2.6,0-6.2-1-7.8-1.8l-3.9-1.9c-1.1-0.5-2.2-1-3.1-1.6
				c-4.6-2.5-8.1-4.9-13.6-9.2c-3.2-2.4-6.5-5.2-10.1-8.4c-3.1-3-6.1-6.5-8.8-10.3l-0.9-1.3c-2-2.9-4-6.1-5.9-9.7l-5.3-9.2
				c-2.3-4-4.1-7.2-5.1-9.6c-1.1-2.5-2-4.7-2.8-6.8l-1.5-3.8c-1.3-3.4-2.6-6.7-4.3-11.6l-2.2-6.2l-2.1-6.3c-1-4.1-2-8.7-2.3-13.3
				l-0.1-1.5c-0.1-1.8-0.2-3.7-0.2-5.5l0.1-4.2c-0.7-0.6-1-1.3-1.3-1.9l-0.2-0.5c-0.2-0.3-0.3-0.7-0.5-1.1c-0.2-0.4-0.4-0.9-0.6-1.2
				l-1.2-1.6c-1.1-1.3-2.3-2.7-3.6-4.2c-1.1-1.2-2.3-2.6-3.5-4c-1.8-2.2-3.6-4-5.5-5.8c-1.2-1.2-2.4-2.4-3.6-3.6l-3.2-3.2
				c-1.4-1.5-2.5-3.2-3.6-4.8c-0.7-1-1.3-1.9-2-2.8c-1.6-2.2-3.3-4.2-5.1-6.3l-1.9-2.4c-1.6-1.9-3.1-3.9-4.6-5.8l-0.5-0.7
				c-5.7,2.6-12.2,2.7-17.9,0.2c-9.9-4.3-16.3-16.2-14.9-27.6c0.6-4.5,2.1-8.5,4.6-12.1c2.5-3.5,5.8-6.1,9.6-7.8
				c5.5-1.6,6.9-1.9,12.6-1.5c2.1,0.1,4.2,0.8,6.2,1.9c4.6,2.2,10.5,7.5,12.2,13.8c1.6,4.1,2.1,8.5,1.7,12.8l-1.4,6
				c-0.8,2.1-1.7,3.9-3.1,5.8l0.7,0.9c1.7,2.2,3.3,4.3,5.8,7.1c1.7,1.9,3.4,3.6,5.2,5.3c2.5,2.4,5.1,4.9,7.3,7.8l0.6,0.8
				c0.8,0.9,1.6,2,2.3,3c0.8,1,1.5,2.1,2.4,3c1.4,1.6,3.8,3.9,6.2,6c0.5,0.4,0.9,0.8,1.4,1.3c0.3-2.5,0.6-4.5,1-6.2
				c0.4-1.8,0.7-3.5,1.1-5.2c0.6-2.9,1.2-5.9,1.9-9.9c0.6-3.7,1.1-7.3,1.6-10.9l0.1-0.8c0.5-3.9,1.1-7.4,1.9-10.7
				c-0.2-0.5-0.2-1-0.3-1.4l-0.1-0.5c-0.1-0.5-0.1-1.1-0.1-1.6c0-0.3,0-0.6,0-0.9l-0.3-1.6c-0.2-1.3-0.5-2.5-0.8-3.8
				c-0.2-1.1-0.5-2.1-0.7-3.2l-0.2-1c-0.5-2.5-1.6-4.5-2.7-6.7l-2.2-4c-0.7-1.3-1.2-2.3-1.6-3.3c-0.4-1-0.9-2-1.4-2.9
				c-1.6-2.5-3.1-4.5-4.6-6.4c-1.3-1.5-2.7-3.2-4.3-4.7l-1.4-1.4c-0.4-0.4-1-0.8-1.5-1.1c-0.3-0.2-1.2-0.8-1.9-1.6
				c-5.5,1.8-11.5,1.4-16.6-1.1c-7.4-3.7-12.7-11.7-12.7-19.5c0-4.4,0.3-9.1,2.8-13.3c2.5-4.2,6.2-9.3,12.9-11.4
				c9.4-2.9,20,0.8,24.6,8.8c0.1,0.2,0.2,0.5,0.4,0.7c0.4,0.5,0.6,0.7,0.8,1c2.2,3.4,3.5,7.2,3.8,11.2c0.5,6-1.6,12-5.6,16.7
				c0.1,0.1,0.2,0.2,0.3,0.3c0.2,0.2,0.5,0.4,0.7,0.6l1.4,1.3c1.3,1.3,2.3,2.3,3.3,3.6l4.4,5c1.3,1.4,2.7,2.9,3.9,4.5
				c1.8,2.3,3.2,4.4,4.3,6.6l0.4,0.8c0.2,0.5,0.5,1,0.7,1.5l0.4-2.9c0.3-2.1,0.5-3.9,1-5.6l1.5-5.3c0.1-0.5,0.2-1.1,0.3-1.6l0.1-0.6
				c0.5-3.7,2.9-7.2,4.3-10.6c1.5-3.6,2.8-7.3,3.9-11.1c0.3-1.2,0.6-2.3,1.1-3.5c0.3-0.9,0.6-1.9,0.9-2.7c0.5-1.2,1.2-2.2,1.9-3.2
				c0.4-0.6,0.8-1.2,1.1-1.8l1.4-2.6c-5-3.7-8.1-9.3-8.5-15.4c-0.2-5.5,1.8-10.8,5.6-14.9c3.9-4.2,9.1-6.6,14.8-6.7
				c0.2,0,0.4,0,0.6,0c11.2,0,20.9,8.9,21.3,19.7c0.6,10.9-8.6,20.7-20.1,21.5c-1.2,0.1-2.4,0-3.7-0.1c-0.4,1.1-0.8,2.2-1.2,3.4
				c-0.5,1.7-1.1,3.5-1.9,5.1l-0.2,0.5c-2.8,6.9-4.2,14-7.4,20.7c-2.1,4.4-2.2,8.5-2.9,13.2c-0.6,4.3-1.3,8.7-2.2,13
				c-0.7,3.4-1.2,6.7-1.7,9.9c-0.3,2.3-0.7,4.6-1.1,7l-1,5.9c-0.3,1.7-0.7,3.4-1.1,5.1c1.5-1,2.9-2,4.2-2.9c2.5-1.7,4.8-3.4,7.4-4.9
				c1.4-0.9,3-1.8,4.2-2.5c1.8-1,3.6-1.7,5.4-2.4c1.1-0.5,2.3-0.9,3.4-1.4l9.8-4.6c-1.5-2.2-2.6-4.7-3.2-7.6
				c-1.2-5.8,0.4-11.8,4.3-16.5c2.7-3.2,4.7-4.2,7.8-5.8l1.3-0.7c1.6-0.8,3.2-1.1,4.8-1.4c0.5-0.1,1-0.2,1.6-0.3
				c5.3-1.1,11.5,1.1,15.4,3.8c4.4,3.1,7.3,7.8,7.7,12.6c0.7,5.7-0.9,11.1-4.6,15.5c-3.6,4.2-8.6,6.9-15.3,8.2
				c-2.7,0.5-5.7,0.4-8.7-0.4c-2.5,1.1-4.6,2-7.5,3.5c-2,1.1-4,2.2-5.9,3.4c-3.3,1.9-6.7,4-10.3,5.6l-0.9,0.4
				c-0.9,0.4-1.8,0.9-2.7,1.3c-1.4,0.7-2.8,1.3-4.1,2.1c-1.4,0.8-3.5,2.3-5.8,4.2c-2.1,1.7-4,3.6-5.3,4.8L194,509
				c-0.6,0.6-1.2,1.2-1.8,1.8c-0.3,0.3-0.5,0.6-0.6,0.9c-0.2,0.3-0.3,0.5-0.5,0.8l-1.5,10.2c-0.6,3.7-1,7.5-1.4,11.5l-0.3,3.4
				c-0.2,1.9-0.3,3.9-0.3,6.5C187.8,544.5,187.8,545.1,187.8,545.7z M312.7,836.3c-1.8,3.5-4.6,6-8.1,7.6c-3.3,1.1-6.5,1.6-9.4,1.6
				c-3.5,0-6.7-0.8-9.5-2.3l-1-0.5c-3.9-2.1-8.3-4.6-11.3-8.8l-1.7-2.3c-2.5-3.5-3.1-4.4-5-9.6c-0.6-1.8-1.3-4.5-1.2-7.2
				c0.4-8.3,2.8-13.9,7.2-16.6c2.7-2.3,6.2-3.7,10.2-4c2-0.1,4,0,6,0.3c4.4,0.7,8.3,2.9,11.5,5c4.6,3,8,8,9.6,10.8
				c1.3,2.3,2.3,4.8,2.8,7.5l0.2,0.5c0.2,0.4,0.4,0.8,0.5,1.2C315.5,825.5,315.2,831.5,312.7,836.3z M315.9,565.5
				c-2.5,0-5.1-1.2-7.2-3.2c-2.4-2.3-3.8-5.4-3.8-8.3c0-2.6,1.2-5.3,3.4-7.5c2.4-2.3,5.3-3.6,8.2-3.6c2.9,0,6.1,1.7,8.3,4.2
				c1.9,2.1,2.7,4.6,2.5,7c-0.1,5.8-5.5,11.3-11.2,11.4C316,565.5,316,565.5,315.9,565.5z M318.8,717.6l0.3-0.7
				c0.8-2.1,1.6-4.3,2.9-6.2c3.9-5.7,10.7-8.5,18-7.2c4.6,0.8,10.7,3.7,13.7,8.3c1.5,2.2,2.9,4.4,4.1,7.1c3.3,7.5,3.1,15.1-0.6,20.9
				c-3.4,5.4-9.2,8.5-15.7,8.5c-1,0-2.1-0.1-3.1-0.2h0c-7.5-1.2-14.6-6.6-18.1-13.9C317.6,728.7,317,722.2,318.8,717.6z
				 M321.2,785.5c0.3-5,2.3-9.3,5.8-12.3c7.8-6.8,20.9-5.1,29,3.8c8.1,8.9,8.6,22,1.1,29.2c-3.1,3-7.4,4.7-12,4.7
				c-0.2,0-0.4,0-0.6,0c-6.2-0.2-12.3-3.1-16.8-8C323.2,797.9,320.8,791.6,321.2,785.5z M641.2,884.3c-2,2.5-8.1,5.1-9.5,5.6
				c-1.5,0.5-3.3,1-4.6,1.3l-3.5,0.9c-5.7,1.5-9.7,2.6-16.8,3.9c-1.7,0.4-3.4,0.8-5.1,1.3c-2.6,0.7-5.2,1.4-8,1.8l-6.5,1.1
				c-5.6,1.3-11.4,0.7-17.1,1.4c-5.8,0.7-11.6,1.8-17.4,2.8c-0.9,0.2-1.8,0.4-2.7,0.6c-1.4,0.3-2.9,0.6-4.5,0.8
				c-2.8,0.3-5.5,1-8.2,1.6c-2.4,0.6-4.8,1.1-7.4,1.5l-5.3,1.1c-2,0.3-4,0.5-5.9,0.6c-1.7,0.1-3.5,0.2-5.2,0.5l-3.5,0.4
				c-3.3,0.4-6.7,0.7-10.1,1.2l-14.6,1.6c-1.3,0.1-2.4,0.2-3.7,0.4c-1.8,0.2-4.2,0.6-6.1,0l-0.5-0.2c-0.3-0.1-0.6-0.2-0.9-0.3
				c0.1,0.7,0.1,1.4,0.1,2.1l-0.1,0.5l-1,0l1,0.2c0.3,3.8-1.1,7.4-3.8,10.2c-3.5,3.7-8.9,5.8-14.8,5.8c-0.2,0-0.4,0-0.7,0
				c-11.1-0.1-22.7-7.2-27-16.6c-1.9-3.9-2.4-7.3-1.8-11.5c0.7-3.7,2.5-6.7,5.3-9.1c2.7-2.2,5.9-3.6,9.7-4.2
				c5.4-0.4,6.1-0.5,11.7,0.7c4.2,0.7,7.6,2.9,10.6,5.4c0-0.1,0.2,0.1,0.2,0.1c1,0.7,2.1,1.7,3.1,2.7c0,0,0.6,0.6,0.6,0.6
				c1.7,1.8,3.1,3.7,4.2,5.6c0.7-0.6,1.6-1.1,2.8-1.6c1.7-0.7,3.5-1.1,4.4-1.3l7.1-0.9c2.3-0.3,4.6-0.5,6.9-0.6l7.7-0.7l11.7-2
				c3.5-0.6,7-1.3,10.6-1.5l1.3-0.1c0.3,0,0.5-0.1,0.8-0.1c-0.1,0-0.2,0-0.3,0c-3.7-1-7.3-1.7-10.7-2.3l-3.9-1
				c-3-0.8-6.1-1.6-9.1-2.9l-2.3-0.9c-2.8-1.1-5.6-2.2-8.4-3.6l-4-1.7c-0.5-0.2-1-0.3-1.6-0.5c-4.7-1.5-8.9-3.8-13.4-5.5
				c-4.1-1.5-8.3-0.3-12.5-1.1c-0.6-0.1-1.1-0.2-1.6-0.3l-3-0.3c-5.4-0.5-9.8-1-14.3-1.6c-3.9-0.5-7.5-0.7-11.2-0.8
				c-1.7-0.1-3.4-0.2-5.1-0.3c-1.9,0-4.2-0.1-5.8-0.2c-1.9-0.1-3.9-0.5-5.9-0.8c-1.8-0.3-3.6-0.6-5.5-0.8c-4.6-0.4-9.1-0.7-13.8-0.9
				l-14.7-0.7c-0.2,1.4-0.5,2.7-1,3.9c-2,5.5-6.6,9.4-12.5,10.6c-7.7,1.7-16.9-1.3-24-7.7c-3.5-3.3-6.1-7-7.8-11.1
				c-0.6-2.1-1.1-3.9-1.6-5.8c-0.6-2.4-0.6-5-0.1-7.3c0.5-3.8,2.1-7.1,4.8-9.8c1.6-1.2,3.1-2.3,4.5-3.3c3.5-1.7,7.1-2.3,11.1-1.9
				c4,0.4,7.8,1.7,11.4,3.8c5.6,3.4,9.9,8.3,12.6,14.1c0.1,0.3,0.2,0.5,0.3,0.8c0.1,0.3,0.2,0.5,0.3,0.7c0.2,0,0.3,0,0.5,0l3.2,0.1
				c2.5,0.1,4.7,0.3,7,0.6l7.9,0.6l11.6,0.4c4.1,0.2,8,0.4,11.9,0.9l1.4,0.2c1.6,0.2,3.2,0.5,4.8,0.9c1.7,0.3,3.3,0.7,5,0.9
				l10.3,1.1c0.4,0,0.7,0.1,1.1,0.1c-1.5-0.8-3-1.7-4.4-2.7c-2-1-4.1-2.1-6.1-3.4l-2.4-1.5c-2.5-1.6-5.1-3.3-7.7-4.8l-9-4.9
				c-3.2-1.5-6.7-3.4-9.2-4.8c-2.4-1.4-4.4-2.7-6.2-3.8c-0.7-0.5-1.4-0.9-2.1-1.3c-1-0.7-2-1.3-3-2c-0.5-0.3-1.1-0.7-1.6-1l-0.6-0.3
				c-1.4-0.8-3-1.7-4.3-2.9l-1.1-1.2c-1.2-1.4-1.9-2.6-2.2-3.7c-0.3-1.1,0-2.1,0.7-2.9c1-1.1,3-1.6,5.5-1.2c2.2,0.3,3.7,1,5.5,1.8
				l1,0.5c0.8,0.4,1.7,0.9,2.6,1.3c0.6,0.3,1.2,0.6,1.7,0.9l3.1,1.6c1.7,0.9,3.4,1.8,5,2.7c2.6,1.4,5.3,2.9,8.1,4.5
				c-1.5-3.6-2.1-7.3-2.8-10.8l-0.3-1.6c-0.8-4.3-1.2-9.1-1.3-14.9c0-3.8,0.1-7.8,0.7-11.8l0.5-3.3c0.2-1.3,0.3-2.5,0.4-3.8
				c0.1-0.8,0.2-1.6,0.3-2.3c-3.2-0.2-6.3-1.1-9.1-2.7c-6.9-3.9-11.5-11.5-11.6-19.1c0-5.3,2-10.2,5.6-13.7
				c3.8-3.6,8.8-5.5,14.4-5.4c0.3,0,0.6,0.1,0.9,0.1c0.1,0,0.2,0,0.3,0c7.5,0,14.2,5.5,17.3,10.6c2.6,4.6,3.5,9.9,2.4,15
				c-1.2,5.4-4.6,10-9.4,12.7c0.2,0.7,0.4,1.6,0.5,2.4c0.2,1.7,0.2,3.4,0.2,4.3l-0.5,6.6c-0.1,1.2-0.2,2.3-0.2,3.5
				c-0.3,3.1-0.5,6-0.1,10.1c0.3,3.4,1.2,7,2.1,10.3c0.7,2.7,1.7,5.3,2.6,7.9c3.8,9.8,8.9,16.2,18,21.6c1.5,0.9,2.8,1.6,4.1,2.3
				l6.9,4c0.6,0.4,1.1,0.7,1.7,0.9c1.5,0.7,3.3,1.5,4.6,2.8l0.9,0.5c2.8,1.4,5.4,2.8,8.1,4c3.1,1.5,6.2,3,9.4,4.5l4.3,2.1
				c1.8,1,3.7,1.6,5.4,2.3c0.8,0.3,1.7,0.6,2.5,1c2.5,1,5.1,1.9,7.8,2.8l5.6,1.8c1.8,0.6,3.6,1.3,5.4,2c1.8,0.7,3.5,1.4,5.4,2
				c1.6,0.3,3.3,0.8,5,1.3c2.8,0.8,5.7,1.5,8.6,1.9c0.8,0.1,1.5,0.3,2.2,0.4c1.2,0.2,2.4,0.5,3.6,0.6l5.8,0.8
				c2.3,0.4,4.6,0.7,7.1,0.8c2.4,0.1,4.9,0.4,8.1,0.8c5.3,0.2,10.4-0.2,15.8-0.6l1.9-0.2c0.7-0.1,1.5-0.1,2.3-0.2
				c1.4-0.1,2.8-0.2,3.9-0.4c2.2-0.3,4.3-0.6,6.5-0.7l1.5-0.1c1.6-0.1,3.3-0.2,4.9-0.4c4.4-0.8,9.1-1.8,13.7-2.8l1.9-0.4l16.6-4.4
				c1.4-0.4,2.8-0.9,4.3-1.4c3.1-1.1,5.3-1.6,6.8-1.5c4.7,0.5,5.3,1.3,5.6,1.7C644,880.6,642.5,882.6,641.2,884.3z M715,924.5
				c-0.1,0-0.1,0-0.2,0c-2.5,0-5.1-1.2-7.2-3.2c-2.4-2.3-3.8-5.4-3.8-8.3c0-2.6,1.2-5.3,3.4-7.5c2.3-2.3,5.3-3.6,8.1-3.6
				c0,0,0.1,0,0.1,0c2.9,0,6.1,1.7,8.3,4.2c1.9,2.2,2.8,4.7,2.5,7.1C726.1,918.8,720.8,924.3,715,924.5z"/>
		</g>
	</g>
</g>
</svg>
