<?xml version="1.0" encoding="utf-8"?>
<!-- Generator: Adobe Illustrator 21.1.0, SVG Export Plug-In . SVG Version: 6.00 Build 0)  -->
<svg version="1.1" id="Layer_1" xmlns="http://www.w3.org/2000/svg" xmlns:xlink="http://www.w3.org/1999/xlink" x="0px" y="0px"
	 viewBox="0 0 1000 1000" enable-background="new 0 0 1000 1000" xml:space="preserve">
<g>
	<g>
		<g>
			<g>
				<g>
					<g>
						<g>
							<linearGradient id="SVGID_1_" gradientUnits="userSpaceOnUse" x1="301.9986" y1="680.1208" x2="723.4379" y2="680.1208">
								<stop  offset="1.862220e-02" style="stop-color:#9A8684"/>
								<stop  offset="0.4235" style="stop-color:#D3C5C6"/>
								<stop  offset="0.4999" style="stop-color:#DED1D3"/>
								<stop  offset="0.5991" style="stop-color:#D1C0C0"/>
								<stop  offset="0.7129" style="stop-color:#C7B4B1"/>
								<stop  offset="0.8064" style="stop-color:#C4AFAC"/>
								<stop  offset="0.8566" style="stop-color:#B8A19E"/>
								<stop  offset="0.9516" style="stop-color:#977E78"/>
								<stop  offset="0.9972" style="stop-color:#866B64"/>
							</linearGradient>
							<path fill="url(#SVGID_1_)" d="M693.5,648.7c-6.3-8.2-13.2-15.7-21.4-23.4c-14.4-13.4-28.9-24.8-46.4-34.5
								c-10.1-5.6-21.5-9.2-32.3-13c-53.1-18.7-109.3-15.6-162.7,1.1c-17.7,5.5-35.8,15.7-50.8,26.4c-11.3,8.1-21.5,18.8-31,28.9
								c-19.8,21.1-36,45.2-46,72.5c-2.1,5.7-1,9.5,3.4,13.5c15.2,13.9,31.6,26.1,49.6,36.1c42.6,23.6,88.6,35.5,137,38.2
								c31.4,1.7,62.4-1.1,93-8.4c32.6-7.8,63.1-20.5,90.7-39.7c17.1-11.9,32.1-25.8,44.7-42.4c2.3-3,2.5-5.6,1.1-9.1
								c-3.6-8.6-9.4-16.6-14.2-24.5C703.5,662.6,698.7,655.5,693.5,648.7z M688.3,729.8c-10.8,9-22.5,16.9-34.8,23.7
								c-28.3,15.7-58.5,25.4-90.3,30.8c-23.9,4-48,5.2-72.2,3.7c-49.3-3-95.7-15.9-138.3-41.1c-13.5-8-26.1-17.2-37.7-27.7
								c-1.4-1.2-2.7-2.5-4-3.8c-0.3-0.2-0.4-0.6-0.9-1.3c1-0.8,1.9-1.7,2.9-2.5c12.9-9.8,27-17.5,41.8-24
								c62.9-27.7,130.7-33,198.4-28.1c30.7,2.2,61.5,6.3,91.4,13.8c12.7,3.2,25.3,6.6,37.4,11.6c11.6,4.8,20.7,13.8,31.4,19
								C712,706.1,690.4,728,688.3,729.8z M714.2,692.8c-0.5-0.2-1.1-0.4-1.6-0.7c-26.6-14.5-55.1-23.7-84.5-30.3
								c-41.7-9.4-83.9-12.9-126.6-11.3c-38.1,1.4-75.6,6.8-112.1,17.8c-23.5,7-46,16.3-66.8,29.4c-3.3,2.1-6.5,4.3-9.7,6.5
								c-0.4,0.2-0.8,0.4-2,0.9c0.8-2.1,1.3-3.7,2-5.2c16.6-39.8,43.5-70.9,79.7-94c31-19.8,65.1-31,101.8-34
								c38.8-3.3,76.2,2.5,112,18.1c46.8,20.4,82.7,52.9,106.6,98.3c0.7,1.4,1.4,2.8,2.1,4.1C714.7,692.5,714.4,692.7,714.2,692.8z"
								/>
						</g>
					</g>
				</g>
			</g>
		</g>
		<g>
			<g>
				<g>
					<g>
						<linearGradient id="SVGID_2_" gradientUnits="userSpaceOnUse" x1="444.1142" y1="708.6924" x2="581.5542" y2="708.6924">
							<stop  offset="1.862220e-02" style="stop-color:#9A8684"/>
							<stop  offset="0.4235" style="stop-color:#D3C5C6"/>
							<stop  offset="0.4999" style="stop-color:#DED1D3"/>
							<stop  offset="0.5991" style="stop-color:#D1C0C0"/>
							<stop  offset="0.7129" style="stop-color:#C7B4B1"/>
							<stop  offset="0.8064" style="stop-color:#C4AFAC"/>
							<stop  offset="0.8566" style="stop-color:#B8A19E"/>
							<stop  offset="0.9516" style="stop-color:#977E78"/>
							<stop  offset="0.9972" style="stop-color:#866B64"/>
						</linearGradient>
						<path fill="url(#SVGID_2_)" d="M570.5,656.4c-3.3,0-6.5-0.4-9.6-1.1c8.4,10.5,13.5,23.8,13.5,38.3c0,33.9-27.6,61.5-61.5,61.5
							c-33.9,0-61.5-27.6-61.5-61.5c0-14.6,5.2-27.9,13.8-38.5c-0.2,0-0.4,0.1-0.6,0.1c-2.4,0.3-5,0.9-7.5,0.7c-0.5,0-1-0.1-1.5-0.1
							c0,0,0,0,0,0c-7.2,10.8-11.5,23.8-11.5,37.7c0,37.9,30.8,68.7,68.7,68.7c37.9,0,68.7-30.8,68.7-68.7
							C581.6,679.9,577.5,667.1,570.5,656.4z"/>
					</g>
				</g>
			</g>
		</g>
		<g>
			<g>
				<g>
					<g>
						<linearGradient id="SVGID_3_" gradientUnits="userSpaceOnUse" x1="465.0455" y1="693.5564" x2="538.9761" y2="693.5564">
							<stop  offset="1.862220e-02" style="stop-color:#9A8684"/>
							<stop  offset="0.4235" style="stop-color:#D3C5C6"/>
							<stop  offset="0.4999" style="stop-color:#DED1D3"/>
							<stop  offset="0.5991" style="stop-color:#D1C0C0"/>
							<stop  offset="0.7129" style="stop-color:#C7B4B1"/>
							<stop  offset="0.8064" style="stop-color:#C4AFAC"/>
							<stop  offset="0.8566" style="stop-color:#B8A19E"/>
							<stop  offset="0.9516" style="stop-color:#977E78"/>
							<stop  offset="0.9972" style="stop-color:#866B64"/>
						</linearGradient>
						<path fill="url(#SVGID_3_)" d="M523.6,725.2c-17.5,0-31.6-14.2-31.6-31.6c0-17.5,14.2-31.6,31.6-31.6c5.6,0,10.8,1.5,15.4,4
							c-7.7-8.9-19.1-14.5-31.8-14.5c-23.3,0-42.1,18.9-42.1,42.1c0,23.3,18.9,42.1,42.1,42.1c12.7,0,24.1-5.6,31.8-14.5
							C534.4,723.7,529.2,725.2,523.6,725.2z"/>
					</g>
				</g>
			</g>
		</g>
		<g>
			<g>
				<g>
					<g>
						<g>
							<g>
								<g>
									<linearGradient id="SVGID_4_" gradientUnits="userSpaceOnUse" x1="5" y1="671.6913" x2="311.0493" y2="671.6913">
										<stop  offset="1.862220e-02" style="stop-color:#9A8684"/>
										<stop  offset="0.4235" style="stop-color:#D3C5C6"/>
										<stop  offset="0.4999" style="stop-color:#DED1D3"/>
										<stop  offset="0.5991" style="stop-color:#D1C0C0"/>
										<stop  offset="0.7129" style="stop-color:#C7B4B1"/>
										<stop  offset="0.8064" style="stop-color:#C4AFAC"/>
										<stop  offset="0.8566" style="stop-color:#B8A19E"/>
										<stop  offset="0.9516" style="stop-color:#977E78"/>
										<stop  offset="0.9972" style="stop-color:#866B64"/>
									</linearGradient>
									<path fill="url(#SVGID_4_)" d="M6.4,641.1c57.8,15.1,70.1,16.8,128.4,29.8l81.5,17.9l42,9.1c16.5,3.6,33.3,7.9,49.9,10.5
										c3.4,0.5,3.9-1.8,0.6-2.8c-14.8-4.4-30.5-7.5-45.6-11l-45.8-10.8l-81.2-19.3c-58.1-13.9-70.1-16.7-128.4-29.7
										C5.2,634.3,3.8,640.5,6.4,641.1z"/>
								</g>
							</g>
						</g>
					</g>
				</g>
				<g>
					<g>
						<g>
							<g>
								<g>
									<g>
										<linearGradient id="SVGID_5_" gradientUnits="userSpaceOnUse" x1="226.985" y1="645.3436" x2="323.5388" y2="645.3436">
											<stop  offset="1.862220e-02" style="stop-color:#9A8684"/>
											<stop  offset="0.4235" style="stop-color:#D3C5C6"/>
											<stop  offset="0.4999" style="stop-color:#DED1D3"/>
											<stop  offset="0.5991" style="stop-color:#D1C0C0"/>
											<stop  offset="0.7129" style="stop-color:#C7B4B1"/>
											<stop  offset="0.8064" style="stop-color:#C4AFAC"/>
											<stop  offset="0.8566" style="stop-color:#B8A19E"/>
											<stop  offset="0.9516" style="stop-color:#977E78"/>
											<stop  offset="0.9972" style="stop-color:#866B64"/>
										</linearGradient>
										<path fill="url(#SVGID_5_)" d="M322.4,666.9c-14.5-7.6-29.3-14.8-44.1-21.9c-16-7.6-32-16.6-48.6-22.8
											c-2.6-1-3.9,1.9-1.5,3.3c14.1,8.1,29.7,14.2,44.5,21.1c16.2,7.5,32.5,15,49,22C323.7,669.3,324.3,667.8,322.4,666.9z"/>
									</g>
								</g>
							</g>
						</g>
					</g>
					<g>
						<g>
							<g>
								<g>
									<g>
										<linearGradient id="SVGID_6_" gradientUnits="userSpaceOnUse" x1="95.2444" y1="589.0847" x2="206.4872" y2="589.0847">
											<stop  offset="1.862220e-02" style="stop-color:#9A8684"/>
											<stop  offset="0.4235" style="stop-color:#D3C5C6"/>
											<stop  offset="0.4999" style="stop-color:#DED1D3"/>
											<stop  offset="0.5991" style="stop-color:#D1C0C0"/>
											<stop  offset="0.7129" style="stop-color:#C7B4B1"/>
											<stop  offset="0.8064" style="stop-color:#C4AFAC"/>
											<stop  offset="0.8566" style="stop-color:#B8A19E"/>
											<stop  offset="0.9516" style="stop-color:#977E78"/>
											<stop  offset="0.9972" style="stop-color:#866B64"/>
										</linearGradient>
										<path fill="url(#SVGID_6_)" d="M206.1,614.2c-15.9-10.6-34-18.1-51.3-26.2c-18.6-8.8-36.9-18.2-56-25.6
											c-2.8-1.1-5,3.7-2.4,5.2c18,9.8,37.1,17.7,55.8,26.2c17.3,7.9,34.8,16.8,53.1,22.2C206.3,616.2,206.9,614.8,206.1,614.2z"
											/>
									</g>
								</g>
							</g>
						</g>
					</g>
				</g>
			</g>
			<g>
				<g>
					<g>
						<g>
							<g>
								<g>
									<linearGradient id="SVGID_7_" gradientUnits="userSpaceOnUse" x1="90.887" y1="526.3726" x2="355.11" y2="526.3726">
										<stop  offset="1.862220e-02" style="stop-color:#9A8684"/>
										<stop  offset="0.4235" style="stop-color:#D3C5C6"/>
										<stop  offset="0.4999" style="stop-color:#DED1D3"/>
										<stop  offset="0.5991" style="stop-color:#D1C0C0"/>
										<stop  offset="0.7129" style="stop-color:#C7B4B1"/>
										<stop  offset="0.8064" style="stop-color:#C4AFAC"/>
										<stop  offset="0.8566" style="stop-color:#B8A19E"/>
										<stop  offset="0.9516" style="stop-color:#977E78"/>
										<stop  offset="0.9972" style="stop-color:#866B64"/>
									</linearGradient>
									<path fill="url(#SVGID_7_)" d="M91.5,426.6c45.5,38.7,74,57.8,120.8,94.9l65.6,51.6l33.8,26.5
										c13.2,10.4,26.6,21.7,40.4,31.2c2.8,1.9,4.3,0,1.8-2.3c-11.4-10.5-24.2-20.1-36.3-29.8L281,569.1l-64.7-52.7
										c-46.2-37.8-74.1-57.7-120.9-94.8C93.3,419.8,89.4,424.8,91.5,426.6z"/>
								</g>
							</g>
						</g>
					</g>
				</g>
				<g>
					<g>
						<g>
							<g>
								<g>
									<g>
										<linearGradient id="SVGID_8_" gradientUnits="userSpaceOnUse" x1="315.7682" y1="559.4237" x2="383.815" y2="559.4237">
											<stop  offset="1.862220e-02" style="stop-color:#9A8684"/>
											<stop  offset="0.4235" style="stop-color:#D3C5C6"/>
											<stop  offset="0.4999" style="stop-color:#DED1D3"/>
											<stop  offset="0.5991" style="stop-color:#D1C0C0"/>
											<stop  offset="0.7129" style="stop-color:#C7B4B1"/>
											<stop  offset="0.8064" style="stop-color:#C4AFAC"/>
											<stop  offset="0.8566" style="stop-color:#B8A19E"/>
											<stop  offset="0.9516" style="stop-color:#977E78"/>
											<stop  offset="0.9972" style="stop-color:#866B64"/>
										</linearGradient>
										<path fill="url(#SVGID_8_)" d="M383.3,599.1c-9.8-13.1-20-26-30.3-38.8c-11.1-13.8-21.7-28.8-33.9-41.6
											c-2-2-4.4-0.1-2.8,2.2c9.2,13.4,20.6,25.7,30.9,38.2c11.4,13.8,22.8,27.6,34.7,41C383.3,601.8,384.6,600.8,383.3,599.1z"
											/>
									</g>
								</g>
							</g>
						</g>
					</g>
					<g>
						<g>
							<g>
								<g>
									<g>
										<linearGradient id="SVGID_9_" gradientUnits="userSpaceOnUse" x1="222.0393" y1="454.991" x2="301.2557" y2="454.991">
											<stop  offset="1.862220e-02" style="stop-color:#9A8684"/>
											<stop  offset="0.4235" style="stop-color:#D3C5C6"/>
											<stop  offset="0.4999" style="stop-color:#DED1D3"/>
											<stop  offset="0.5991" style="stop-color:#D1C0C0"/>
											<stop  offset="0.7129" style="stop-color:#C7B4B1"/>
											<stop  offset="0.8064" style="stop-color:#C4AFAC"/>
											<stop  offset="0.8566" style="stop-color:#B8A19E"/>
											<stop  offset="0.9516" style="stop-color:#977E78"/>
											<stop  offset="0.9972" style="stop-color:#866B64"/>
										</linearGradient>
										<path fill="url(#SVGID_9_)" d="M301.1,501.2c-9.7-16.3-22.8-31-34.8-45.8c-12.9-15.9-25.4-32.4-39.4-47.4
											c-2.1-2.2-6.2,1.1-4.4,3.6c12,16.7,25.8,32,39,47.8c12.2,14.7,24.1,30.3,38.3,42.9C300.4,503.1,301.7,502.1,301.1,501.2z"
											/>
									</g>
								</g>
							</g>
						</g>
					</g>
				</g>
			</g>
			<g>
				<g>
					<g>
						<g>
							<g>
								<g>
									<linearGradient id="SVGID_10_" gradientUnits="userSpaceOnUse" x1="271.041" y1="421.7851" x2="429.2143" y2="421.7851">
										<stop  offset="1.862220e-02" style="stop-color:#9A8684"/>
										<stop  offset="0.4235" style="stop-color:#D3C5C6"/>
										<stop  offset="0.4999" style="stop-color:#DED1D3"/>
										<stop  offset="0.5991" style="stop-color:#D1C0C0"/>
										<stop  offset="0.7129" style="stop-color:#C7B4B1"/>
										<stop  offset="0.8064" style="stop-color:#C4AFAC"/>
										<stop  offset="0.8566" style="stop-color:#B8A19E"/>
										<stop  offset="0.9516" style="stop-color:#977E78"/>
										<stop  offset="0.9972" style="stop-color:#866B64"/>
									</linearGradient>
									<path fill="url(#SVGID_10_)" d="M271.2,262.2c24.3,54.6,50.2,108.4,76.4,162.1l36.8,74.9l19,38.5
										c7.4,15.1,14.6,31.1,22.9,45.6c1.7,2.9,3.8,1.8,2.5-1.3c-5.8-14.3-13.1-28.6-19.8-42.6L388.9,497l-35.5-75.5
										c-25.3-54.1-50.3-108.3-76.4-162C275.8,257,270.1,259.7,271.2,262.2z"/>
								</g>
							</g>
						</g>
					</g>
				</g>
				<g>
					<g>
						<g>
							<g>
								<g>
									<g>
										<linearGradient id="SVGID_11_" gradientUnits="userSpaceOnUse" x1="441.3875" y1="518.4947" x2="467.8026" y2="518.4947">
											<stop  offset="1.862220e-02" style="stop-color:#9A8684"/>
											<stop  offset="0.4235" style="stop-color:#D3C5C6"/>
											<stop  offset="0.4999" style="stop-color:#DED1D3"/>
											<stop  offset="0.5991" style="stop-color:#D1C0C0"/>
											<stop  offset="0.7129" style="stop-color:#C7B4B1"/>
											<stop  offset="0.8064" style="stop-color:#C4AFAC"/>
											<stop  offset="0.8566" style="stop-color:#B8A19E"/>
											<stop  offset="0.9516" style="stop-color:#977E78"/>
											<stop  offset="0.9972" style="stop-color:#866B64"/>
										</linearGradient>
										<path fill="url(#SVGID_11_)" d="M467.7,568.6c-3.1-16.1-6.7-32.1-10.4-48.1c-4-17.3-7-35.4-12.4-52.2
											c-0.9-2.7-3.9-2-3.5,0.8c2.4,16,7.4,32.1,11.2,47.9c4.3,17.4,8.5,34.8,13.4,52C466.6,571,468.1,570.7,467.7,568.6z"/>
									</g>
								</g>
							</g>
						</g>
					</g>
					<g>
						<g>
							<g>
								<g>
									<g>
										<linearGradient id="SVGID_12_" gradientUnits="userSpaceOnUse" x1="404.4507" y1="386.35" x2="436.3603" y2="386.35">
											<stop  offset="1.862220e-02" style="stop-color:#9A8684"/>
											<stop  offset="0.4235" style="stop-color:#D3C5C6"/>
											<stop  offset="0.4999" style="stop-color:#DED1D3"/>
											<stop  offset="0.5991" style="stop-color:#D1C0C0"/>
											<stop  offset="0.7129" style="stop-color:#C7B4B1"/>
											<stop  offset="0.8064" style="stop-color:#C4AFAC"/>
											<stop  offset="0.8566" style="stop-color:#B8A19E"/>
											<stop  offset="0.9516" style="stop-color:#977E78"/>
											<stop  offset="0.9972" style="stop-color:#866B64"/>
										</linearGradient>
										<path fill="url(#SVGID_12_)" d="M436.4,444.8c-1.7-19-7-37.8-11.4-56.4c-4.7-20-8.7-40.2-14.9-59.8
											c-0.9-2.9-6.1-1.7-5.5,1.3c3.5,20.2,9.3,40,14.3,59.9c4.6,18.5,8.5,37.7,15.8,55.4C435,446.1,436.4,445.8,436.4,444.8z"/>
									</g>
								</g>
							</g>
						</g>
					</g>
				</g>
			</g>
			<g>
				<g>
					<g>
						<g>
							<g>
								<g>
									<linearGradient id="SVGID_13_" gradientUnits="userSpaceOnUse" x1="508.1739" y1="385.4685" x2="516.3745" y2="385.4685">
										<stop  offset="1.862220e-02" style="stop-color:#9A8684"/>
										<stop  offset="0.4235" style="stop-color:#D3C5C6"/>
										<stop  offset="0.4999" style="stop-color:#DED1D3"/>
										<stop  offset="0.5991" style="stop-color:#D1C0C0"/>
										<stop  offset="0.7129" style="stop-color:#C7B4B1"/>
										<stop  offset="0.8064" style="stop-color:#C4AFAC"/>
										<stop  offset="0.8566" style="stop-color:#B8A19E"/>
										<stop  offset="0.9516" style="stop-color:#977E78"/>
										<stop  offset="0.9972" style="stop-color:#866B64"/>
									</linearGradient>
									<path fill="url(#SVGID_13_)" d="M509.9,206.9c-1.9,59.8-1.9,119.5-1.7,179.2l0.6,83.5l0.4,43c0.1,16.8-0.4,34.3,0.8,51
										c0.2,3.4,2.7,3.3,2.9,0c1.1-15.4,0.6-31.4,0.6-46.9l0.4-47l0.8-83.4c0.7-59.7,1.7-119.4,1.5-179.2
										C516.3,204.2,510,204.1,509.9,206.9z"/>
								</g>
							</g>
						</g>
					</g>
				</g>
				<g>
					<g>
						<g>
							<g>
								<g>
									<g>
										<linearGradient id="SVGID_14_" gradientUnits="userSpaceOnUse" x1="552.5079" y1="517.5004" x2="577.0868" y2="517.5004">
											<stop  offset="1.862220e-02" style="stop-color:#9A8684"/>
											<stop  offset="0.4235" style="stop-color:#D3C5C6"/>
											<stop  offset="0.4999" style="stop-color:#DED1D3"/>
											<stop  offset="0.5991" style="stop-color:#D1C0C0"/>
											<stop  offset="0.7129" style="stop-color:#C7B4B1"/>
											<stop  offset="0.8064" style="stop-color:#C4AFAC"/>
											<stop  offset="0.8566" style="stop-color:#B8A19E"/>
											<stop  offset="0.9516" style="stop-color:#977E78"/>
											<stop  offset="0.9972" style="stop-color:#866B64"/>
										</linearGradient>
										<path fill="url(#SVGID_14_)" d="M554.3,568.2c4.2-15.8,7.8-31.9,11.4-47.8c3.9-17.3,9-34.9,11.4-52.5
											c0.4-2.8-2.7-3.5-3.5-0.8c-4.7,15.5-7.2,32.1-10.6,48c-3.7,17.5-7.4,35-10.4,52.7C552.2,569.9,553.7,570.3,554.3,568.2z"
											/>
									</g>
								</g>
							</g>
						</g>
					</g>
					<g>
						<g>
							<g>
								<g>
									<g>
										<linearGradient id="SVGID_15_" gradientUnits="userSpaceOnUse" x1="577.7134" y1="383.7211" x2="606.0264" y2="383.7211">
											<stop  offset="1.862220e-02" style="stop-color:#9A8684"/>
											<stop  offset="0.4235" style="stop-color:#D3C5C6"/>
											<stop  offset="0.4999" style="stop-color:#DED1D3"/>
											<stop  offset="0.5991" style="stop-color:#D1C0C0"/>
											<stop  offset="0.7129" style="stop-color:#C7B4B1"/>
											<stop  offset="0.8064" style="stop-color:#C4AFAC"/>
											<stop  offset="0.8566" style="stop-color:#B8A19E"/>
											<stop  offset="0.9516" style="stop-color:#977E78"/>
											<stop  offset="0.9972" style="stop-color:#866B64"/>
										</linearGradient>
										<path fill="url(#SVGID_15_)" d="M579.5,443c6.7-17.8,10-37.1,14.1-55.8c4.4-20.1,9.5-40,12.4-60.4c0.4-3-4.7-4.2-5.6-1.3
											c-5.6,19.8-8.9,40.1-13,60.3c-3.8,18.7-8.6,37.7-9.7,56.7C577.7,443.6,579.1,443.9,579.5,443z"/>
									</g>
								</g>
							</g>
						</g>
					</g>
				</g>
			</g>
			<g>
				<g>
					<g>
						<g>
							<g>
								<g>
									<linearGradient id="SVGID_16_" gradientUnits="userSpaceOnUse" x1="601.0347" y1="422.2041" x2="762.1826" y2="422.2041">
										<stop  offset="1.862220e-02" style="stop-color:#9A8684"/>
										<stop  offset="0.4235" style="stop-color:#D3C5C6"/>
										<stop  offset="0.4999" style="stop-color:#DED1D3"/>
										<stop  offset="0.5991" style="stop-color:#D1C0C0"/>
										<stop  offset="0.7129" style="stop-color:#C7B4B1"/>
										<stop  offset="0.8064" style="stop-color:#C4AFAC"/>
										<stop  offset="0.8566" style="stop-color:#B8A19E"/>
										<stop  offset="0.9516" style="stop-color:#977E78"/>
										<stop  offset="0.9972" style="stop-color:#866B64"/>
									</linearGradient>
									<path fill="url(#SVGID_16_)" d="M756.2,260.6c-27.7,53-53.6,106.8-79.4,160.7l-35.7,75.4l-18.3,38.9
										c-7.2,15.2-15.2,30.7-21.4,46.3c-1.2,3.1,0.9,4.1,2.6,1.2c7.6-13.4,14.2-28.1,21-42l20.8-42.2l37-74.8
										c26.6-53.5,53.5-106.8,79.3-160.7C763.2,261,757.5,258.1,756.2,260.6z"/>
								</g>
							</g>
						</g>
					</g>
				</g>
				<g>
					<g>
						<g>
							<g>
								<g>
									<g>
										<linearGradient id="SVGID_17_" gradientUnits="userSpaceOnUse" x1="637.1097" y1="563.8982" x2="703.6726" y2="563.8982">
											<stop  offset="1.862220e-02" style="stop-color:#9A8684"/>
											<stop  offset="0.4235" style="stop-color:#D3C5C6"/>
											<stop  offset="0.4999" style="stop-color:#DED1D3"/>
											<stop  offset="0.5991" style="stop-color:#D1C0C0"/>
											<stop  offset="0.7129" style="stop-color:#C7B4B1"/>
											<stop  offset="0.8064" style="stop-color:#C4AFAC"/>
											<stop  offset="0.8566" style="stop-color:#B8A19E"/>
											<stop  offset="0.9516" style="stop-color:#977E78"/>
											<stop  offset="0.9972" style="stop-color:#866B64"/>
										</linearGradient>
										<path fill="url(#SVGID_17_)" d="M639,605.2c10.6-12.5,20.9-25.3,31.1-38.1c11-13.9,23.3-27.5,33.1-42.3
											c1.5-2.3-0.9-4.3-2.8-2.2c-11,11.9-20.5,25.8-30.4,38.6c-10.9,14.2-21.9,28.3-32.3,42.9
											C636.4,605.9,637.6,606.8,639,605.2z"/>
									</g>
								</g>
							</g>
						</g>
					</g>
					<g>
						<g>
							<g>
								<g>
									<g>
										<linearGradient id="SVGID_18_" gradientUnits="userSpaceOnUse" x1="714.6559" y1="454.9523" x2="791.0402" y2="454.9523">
											<stop  offset="1.862220e-02" style="stop-color:#9A8684"/>
											<stop  offset="0.4235" style="stop-color:#D3C5C6"/>
											<stop  offset="0.4999" style="stop-color:#DED1D3"/>
											<stop  offset="0.5991" style="stop-color:#D1C0C0"/>
											<stop  offset="0.7129" style="stop-color:#C7B4B1"/>
											<stop  offset="0.8064" style="stop-color:#C4AFAC"/>
											<stop  offset="0.8566" style="stop-color:#B8A19E"/>
											<stop  offset="0.9516" style="stop-color:#977E78"/>
											<stop  offset="0.9972" style="stop-color:#866B64"/>
										</linearGradient>
										<path fill="url(#SVGID_18_)" d="M716.2,503.5c13.8-13.1,25.2-29.1,37-44.1c12.7-16.1,26-31.9,37.5-48.9
											c1.7-2.5-2.5-5.8-4.5-3.5c-13.6,15.4-25.5,32.2-38,48.5c-11.6,15.1-24.2,30.2-33.4,46.9
											C714.3,503.2,715.5,504.2,716.2,503.5z"/>
									</g>
								</g>
							</g>
						</g>
					</g>
				</g>
			</g>
			<g>
				<g>
					<g>
						<g>
							<g>
								<g>
									<linearGradient id="SVGID_19_" gradientUnits="userSpaceOnUse" x1="668.1514" y1="530.1567" x2="924.8786" y2="530.1567">
										<stop  offset="1.862220e-02" style="stop-color:#9A8684"/>
										<stop  offset="0.4235" style="stop-color:#D3C5C6"/>
										<stop  offset="0.4999" style="stop-color:#DED1D3"/>
										<stop  offset="0.5991" style="stop-color:#D1C0C0"/>
										<stop  offset="0.7129" style="stop-color:#C7B4B1"/>
										<stop  offset="0.8064" style="stop-color:#C4AFAC"/>
										<stop  offset="0.8566" style="stop-color:#B8A19E"/>
										<stop  offset="0.9516" style="stop-color:#977E78"/>
										<stop  offset="0.9972" style="stop-color:#866B64"/>
									</linearGradient>
									<path fill="url(#SVGID_19_)" d="M920.3,429.6c-47.8,35.8-66.8,48.9-113.3,86.3l-64.9,52.5l-33.3,27.1
										c-13.1,10.6-27,21.1-39.4,32.5c-2.5,2.3-1.1,4.2,1.7,2.3c12.7-8.8,24.9-19.2,37.1-28.8l37-29L811,521
										c47.1-36.7,66.7-49,113.2-86.4C926.4,432.9,922.5,427.9,920.3,429.6z"/>
								</g>
							</g>
						</g>
					</g>
				</g>
				<g>
					<g>
						<g>
							<g>
								<g>
									<g>
										<linearGradient id="SVGID_20_" gradientUnits="userSpaceOnUse" x1="698.6096" y1="634.2139" x2="794.3807" y2="634.2139">
											<stop  offset="1.862220e-02" style="stop-color:#9A8684"/>
											<stop  offset="0.4235" style="stop-color:#D3C5C6"/>
											<stop  offset="0.4999" style="stop-color:#DED1D3"/>
											<stop  offset="0.5991" style="stop-color:#D1C0C0"/>
											<stop  offset="0.7129" style="stop-color:#C7B4B1"/>
											<stop  offset="0.8064" style="stop-color:#C4AFAC"/>
											<stop  offset="0.8566" style="stop-color:#B8A19E"/>
											<stop  offset="0.9516" style="stop-color:#977E78"/>
											<stop  offset="0.9972" style="stop-color:#866B64"/>
										</linearGradient>
										<path fill="url(#SVGID_20_)" d="M700.5,658.1c15-6.6,29.8-13.8,44.6-20.9c15.9-7.8,32.9-14.7,48.1-23.8
											c2.4-1.4,1-4.2-1.6-3.2c-15.1,6-29.6,14.4-44.2,21.7c-16,8-32,16.1-47.7,24.7C697.8,657.6,698.6,659,700.5,658.1z"/>
									</g>
								</g>
							</g>
						</g>
					</g>
					<g>
						<g>
							<g>
								<g>
									<g>
										<linearGradient id="SVGID_21_" gradientUnits="userSpaceOnUse" x1="812.8829" y1="571.3903" x2="922.5798" y2="571.3903">
											<stop  offset="1.862220e-02" style="stop-color:#9A8684"/>
											<stop  offset="0.4235" style="stop-color:#D3C5C6"/>
											<stop  offset="0.4999" style="stop-color:#DED1D3"/>
											<stop  offset="0.5991" style="stop-color:#D1C0C0"/>
											<stop  offset="0.7129" style="stop-color:#C7B4B1"/>
											<stop  offset="0.8064" style="stop-color:#C4AFAC"/>
											<stop  offset="0.8566" style="stop-color:#B8A19E"/>
											<stop  offset="0.9516" style="stop-color:#977E78"/>
											<stop  offset="0.9972" style="stop-color:#866B64"/>
										</linearGradient>
										<path fill="url(#SVGID_21_)" d="M814.1,599.8c18.2-5.9,35.3-15.3,52.4-23.8c18.4-9.1,37.2-17.5,54.9-27.9
											c2.6-1.5,0.2-6.2-2.6-5.1c-18.9,8-36.9,18-55.2,27.3c-17,8.6-34.8,16.8-50.4,27.8C812.4,598.8,813.1,600.2,814.1,599.8z"
											/>
									</g>
								</g>
							</g>
						</g>
					</g>
				</g>
			</g>
			<g>
				<g>
					<g>
						<g>
							<g>
								<g>
									<linearGradient id="SVGID_22_" gradientUnits="userSpaceOnUse" x1="712.4648" y1="667.782" x2="995" y2="667.782">
										<stop  offset="1.862220e-02" style="stop-color:#9A8684"/>
										<stop  offset="0.4235" style="stop-color:#D3C5C6"/>
										<stop  offset="0.4999" style="stop-color:#DED1D3"/>
										<stop  offset="0.5991" style="stop-color:#D1C0C0"/>
										<stop  offset="0.7129" style="stop-color:#C7B4B1"/>
										<stop  offset="0.8064" style="stop-color:#C4AFAC"/>
										<stop  offset="0.8566" style="stop-color:#B8A19E"/>
										<stop  offset="0.9516" style="stop-color:#977E78"/>
										<stop  offset="0.9972" style="stop-color:#866B64"/>
									</linearGradient>
									<path fill="url(#SVGID_22_)" d="M992.1,634.8c-58.7,11.4-46.7,8.5-104.9,22L806,675.9l-41.8,9.9
										c-16.4,3.8-33.5,7.3-49.6,12.1c-3.3,1-2.7,3.3,0.6,2.8c15.3-2.4,30.8-6.4,45.9-9.8l45.9-10.1l81.6-17.7
										c58.4-12.6,46.6-8.6,104.8-22C996.2,640.5,994.8,634.3,992.1,634.8z"/>
								</g>
							</g>
						</g>
					</g>
				</g>
			</g>
		</g>
	</g>
</g>
</svg>
