<?xml version="1.0" encoding="utf-8"?>
<!-- Generator: Adobe Illustrator 21.1.0, SVG Export Plug-In . SVG Version: 6.00 Build 0)  -->
<svg version="1.1" id="Layer_1" xmlns="http://www.w3.org/2000/svg" xmlns:xlink="http://www.w3.org/1999/xlink" x="0px" y="0px"
	 viewBox="0 0 1000 1000" enable-background="new 0 0 1000 1000" xml:space="preserve">
<g>
	<g>
		<g>
			<g>
				<g>
					<g>
						<linearGradient id="SVGID_1_" gradientUnits="userSpaceOnUse" x1="77.6446" y1="480.0924" x2="494.874" y2="480.0924">
							<stop  offset="1.862220e-02" style="stop-color:#9A8684"/>
							<stop  offset="0.4235" style="stop-color:#D3C5C6"/>
							<stop  offset="0.4999" style="stop-color:#DED1D3"/>
							<stop  offset="0.5991" style="stop-color:#D1C0C0"/>
							<stop  offset="0.7129" style="stop-color:#C7B4B1"/>
							<stop  offset="0.8064" style="stop-color:#C4AFAC"/>
							<stop  offset="0.8566" style="stop-color:#B8A19E"/>
							<stop  offset="0.9516" style="stop-color:#977E78"/>
							<stop  offset="0.9972" style="stop-color:#866B64"/>
						</linearGradient>
						<path fill="url(#SVGID_1_)" d="M81.4,545.7c53.6-12.5,107.4-25.2,161.3-35.8c55.3-10.5,110.4-26.1,162.8-47.1
							c30.2-12.2,59.7-26.1,87.5-42.3c4-2.3,0.7-8.5-3.5-7.2c-54.9,17.3-111.7,30.6-168.7,42.1c-28.8,5.8-57.4,10.9-86.6,15.9
							c-26.4,4.7-52,11.6-76.3,23.4c-27.2,13.3-52.5,30-78.4,44.8c-4.1,2.3-1.3,9.4,2.9,7.1c21.8-12.2,43.1-25.8,65.5-37.9
							c24.2-13,49.4-22.3,76.4-27.6c57.7-10.6,114.7-20.8,171.2-34.3c32.4-7.7,64.7-15.8,96.4-25.8l-3.5-7.2
							c-48,27.5-100.6,48.7-154.4,65c-27,8.2-54.4,15-82,20.6c-27.4,5.4-54.6,10.7-81.7,16.7c-30.4,6.7-60.8,13.7-90.4,24.5
							C77.4,541.6,78.6,546.4,81.4,545.7z"/>
					</g>
				</g>
			</g>
		</g>
		<g>
			<g>
				<g>
					<g>
						<linearGradient id="SVGID_2_" gradientUnits="userSpaceOnUse" x1="68.0259" y1="421.0075" x2="493.9207" y2="421.0075">
							<stop  offset="1.862220e-02" style="stop-color:#9A8684"/>
							<stop  offset="0.4235" style="stop-color:#D3C5C6"/>
							<stop  offset="0.4999" style="stop-color:#DED1D3"/>
							<stop  offset="0.5991" style="stop-color:#D1C0C0"/>
							<stop  offset="0.7129" style="stop-color:#C7B4B1"/>
							<stop  offset="0.8064" style="stop-color:#C4AFAC"/>
							<stop  offset="0.8566" style="stop-color:#B8A19E"/>
							<stop  offset="0.9516" style="stop-color:#977E78"/>
							<stop  offset="0.9972" style="stop-color:#866B64"/>
						</linearGradient>
						<path fill="url(#SVGID_2_)" d="M70.6,430.1c26.3,8.6,54.3,12.1,82,13.4c27.8,1.2,55.4-0.5,82.3-2.5
							c54.4-4.2,107.3-12.6,160.7-16.9c30.9-2.4,62.1-3.8,94.2-0.5c4.6,0.3,5.6-6.4,1.2-7.6c-28.5-9.3-58-13.4-87.2-15.9
							c-29.2-2.4-58.3-2.4-87-1.4c-28.9,0.9-57.6,2.6-86,4.3c-25.4,1.3-49.8,4.2-74.5,9.2c-27.6,5.6-55.6,12.8-84.5,11.9
							c-4.6,0-5.7,7.3-0.9,7.4c25,0.9,49.2-3.8,72.9-8.7c25.6-5.6,50.4-9.8,76.6-11.6c56.1-3.7,113.1-7.8,170.4-4.7
							c32.9,1.8,66,7,97.7,17.1l1.2-7.6l-21.2-1.7l-20.9-0.4c-6.9-0.3-13.8,0.3-20.7,0.4c-6.9,0.2-13.7,0.3-20.5,1
							c-27.2,1.5-54,4.9-80.8,7.9c-53.6,6.2-107.6,13.2-162.5,12c-30.7-0.7-61.4-4-91.5-10.1C69.1,424.7,67.8,429.3,70.6,430.1z"/>
					</g>
				</g>
			</g>
		</g>
		<g>
			<g>
				<g>
					<g>
						<linearGradient id="SVGID_3_" gradientUnits="userSpaceOnUse" x1="89.5396" y1="360.4879" x2="484.9644" y2="360.4879">
							<stop  offset="1.862220e-02" style="stop-color:#9A8684"/>
							<stop  offset="0.4235" style="stop-color:#D3C5C6"/>
							<stop  offset="0.4999" style="stop-color:#DED1D3"/>
							<stop  offset="0.5991" style="stop-color:#D1C0C0"/>
							<stop  offset="0.7129" style="stop-color:#C7B4B1"/>
							<stop  offset="0.8064" style="stop-color:#C4AFAC"/>
							<stop  offset="0.8566" style="stop-color:#B8A19E"/>
							<stop  offset="0.9516" style="stop-color:#977E78"/>
							<stop  offset="0.9972" style="stop-color:#866B64"/>
						</linearGradient>
						<path fill="url(#SVGID_3_)" d="M91.8,318.1c47.8,19.8,98.5,33.2,148.2,45.9c50.1,12.7,100.8,23.4,152,31.9
							c29.5,4.9,59.2,9.1,89.1,12.8c4.3,0.5,5.3-5.9,1.4-7.3C431,383.4,379,366.6,326.8,351c-26.3-7.9-52.7-15.6-79.2-22.8
							c-23.7-6.4-47.2-11.3-71.7-12.6c-27.5-1.4-55-0.4-82.3-3.2c-4.3-0.5-5.8,6.5-1.4,7c23.1,2.6,46.4,2.4,69.7,3
							c25.1,0.7,49.4,3.6,73.8,10c52.5,13.6,104.4,29.5,156,46c29.7,9.5,59.1,19.7,88.4,30l1.4-7.3
							c-103.5-12.9-205.1-33.4-304.6-62.6c-27.9-8.2-55.5-17.4-83.6-25.2C90.8,312.7,89.3,317,91.8,318.1z"/>
					</g>
				</g>
			</g>
		</g>
		<g>
			<g>
				<g>
					<g>
						<linearGradient id="SVGID_4_" gradientUnits="userSpaceOnUse" x1="131.4917" y1="311.0707" x2="495.9851" y2="311.0707">
							<stop  offset="1.862220e-02" style="stop-color:#9A8684"/>
							<stop  offset="0.4235" style="stop-color:#D3C5C6"/>
							<stop  offset="0.4999" style="stop-color:#DED1D3"/>
							<stop  offset="0.5991" style="stop-color:#D1C0C0"/>
							<stop  offset="0.7129" style="stop-color:#C7B4B1"/>
							<stop  offset="0.8064" style="stop-color:#C4AFAC"/>
							<stop  offset="0.8566" style="stop-color:#B8A19E"/>
							<stop  offset="0.9516" style="stop-color:#977E78"/>
							<stop  offset="0.9972" style="stop-color:#866B64"/>
						</linearGradient>
						<path fill="url(#SVGID_4_)" d="M133.4,211.1c41.6,33.6,88,61.9,133.2,89.1c45.8,27.4,92.6,53,140.3,76.7
							c27.7,13.7,55.6,26.7,83.9,39.3c4.1,1.8,7-4.2,3.6-6.7c-45.4-33.1-91.5-65.2-138.7-96.2c-23.7-15.6-47.4-31.1-71.5-46.1
							c-21.5-13.4-43.5-25.2-67.3-33.7c-26.7-9.5-54.2-16.7-80.3-27.5c-4.1-1.7-7.5,4.7-3.3,6.5c22.1,9.4,45.1,16.1,67.9,23.6
							c24.5,8.2,47.8,18.2,70.1,31.8c47.9,29,94.6,60.1,140.6,91.9c26.3,18.2,52.4,37.1,78.1,56l3.6-6.7
							c-49.1-21.9-97.1-45.5-144-70.9c-47-25.4-92.9-52.5-137.9-81.6c-25.3-16.3-49.9-33.6-75.4-49.5
							C133.9,205.4,131.2,209.3,133.4,211.1z"/>
					</g>
				</g>
			</g>
		</g>
		<g>
			<g>
				<g>
					<g>
						<linearGradient id="SVGID_5_" gradientUnits="userSpaceOnUse" x1="197.0552" y1="262.204" x2="493.5066" y2="262.204">
							<stop  offset="1.862220e-02" style="stop-color:#9A8684"/>
							<stop  offset="0.4235" style="stop-color:#D3C5C6"/>
							<stop  offset="0.4999" style="stop-color:#DED1D3"/>
							<stop  offset="0.5991" style="stop-color:#D1C0C0"/>
							<stop  offset="0.7129" style="stop-color:#C7B4B1"/>
							<stop  offset="0.8064" style="stop-color:#C4AFAC"/>
							<stop  offset="0.8566" style="stop-color:#B8A19E"/>
							<stop  offset="0.9516" style="stop-color:#977E78"/>
							<stop  offset="0.9972" style="stop-color:#866B64"/>
						</linearGradient>
						<path fill="url(#SVGID_5_)" d="M198.5,121c27.9,45.4,63.3,86.7,99.3,124.9c36.4,38.7,75.3,74.6,116.5,107.5
							c23.7,19,48.3,36.9,73.5,53.9c3.6,2.4,7.5-2.9,4.6-5.9c-19-19.8-37.9-39.8-56.7-59.8c-18.9-20-37.7-40.2-56.4-60.5
							c-18.8-20.4-37.6-41-56.2-61.6c-16.7-18.4-34.1-35.6-53.7-50.7c-22-17-45.4-32.5-66.2-51.4c-3.3-3-8.5,1.7-5.1,4.8
							c17.5,16.3,36.9,30.1,55.9,44.2c20.4,15.2,39.4,31.3,56.8,50.2c18.6,20.2,37.2,40.5,55.9,60.8c18.6,20.3,37.1,40.4,55.9,60.5
							c21.4,23.1,42.8,46,64.4,68.8l4.6-5.9c-86.9-59-166-130.3-233.9-212.1c-19-23.1-36.7-47.1-55.3-70.6
							C200.8,116,197.1,118.6,198.5,121z"/>
					</g>
				</g>
			</g>
		</g>
		<g>
			<g>
				<g>
					<g>
						<linearGradient id="SVGID_6_" gradientUnits="userSpaceOnUse" x1="294.8672" y1="239.7909" x2="503.4169" y2="239.7909">
							<stop  offset="1.862220e-02" style="stop-color:#9A8684"/>
							<stop  offset="0.4235" style="stop-color:#D3C5C6"/>
							<stop  offset="0.4999" style="stop-color:#DED1D3"/>
							<stop  offset="0.5991" style="stop-color:#D1C0C0"/>
							<stop  offset="0.7129" style="stop-color:#C7B4B1"/>
							<stop  offset="0.8064" style="stop-color:#C4AFAC"/>
							<stop  offset="0.8566" style="stop-color:#B8A19E"/>
							<stop  offset="0.9516" style="stop-color:#977E78"/>
							<stop  offset="0.9972" style="stop-color:#866B64"/>
						</linearGradient>
						<path fill="url(#SVGID_6_)" d="M296.2,70.3c20.4,47.3,46.2,92.4,71.4,136.6c25.4,44.5,51.9,88.2,79.8,131.2
							c16,24.8,32.6,49.4,49.5,73.9c2.4,3.5,7.9,0.1,6.3-3.7c-20.7-49.9-43.1-99.1-67.5-147.6c-12.3-24.4-24.7-48.7-38.1-72.6
							c-11.8-21.4-24.7-41.6-41-59.9c-18.2-20.5-38-39.4-55.3-60.5c-2.7-3.4-8.3,0.4-5.6,3.9c14.5,18.1,30.8,34.3,46.6,51.3
							c17,18.3,31.9,37.7,44.2,59.6c26.8,47,50.8,95.2,73.3,144c13,28,24.9,56.3,36.6,84.8l6.3-3.7
							c-58.4-85.1-112-172.1-160.9-262.7c-13.8-25.4-26.7-51.3-41.3-76.4C299,65.8,295.1,67.8,296.2,70.3z"/>
					</g>
				</g>
			</g>
		</g>
		<g>
			<g>
				<g>
					<g>
						<linearGradient id="SVGID_7_" gradientUnits="userSpaceOnUse" x1="399.6182" y1="218.21" x2="505.2051" y2="218.21">
							<stop  offset="1.862220e-02" style="stop-color:#9A8684"/>
							<stop  offset="0.4235" style="stop-color:#D3C5C6"/>
							<stop  offset="0.4999" style="stop-color:#DED1D3"/>
							<stop  offset="0.5991" style="stop-color:#D1C0C0"/>
							<stop  offset="0.7129" style="stop-color:#C7B4B1"/>
							<stop  offset="0.8064" style="stop-color:#C4AFAC"/>
							<stop  offset="0.8566" style="stop-color:#B8A19E"/>
							<stop  offset="0.9516" style="stop-color:#977E78"/>
							<stop  offset="0.9972" style="stop-color:#866B64"/>
						</linearGradient>
						<path fill="url(#SVGID_7_)" d="M400.8,24.2c5.8,51.5,17,102.8,27.9,153.2c11.1,50.7,23.9,101.2,39.5,150.9
							c9,28.7,18.9,57.1,29.9,85.1c1.6,4,7.7,1.9,7.1-2.2c-8.7-53.6-17.1-107.5-26.6-161.4c-4.6-27.1-9.7-54.3-15.2-81.4
							c-4.9-24.2-11.3-47.6-21.4-70.2c-11.4-25.4-24.9-49.6-35.5-75.1c-1.7-4.1-8.2-2.1-6.6,2c8.7,21.7,19.7,42.3,29.9,63.5
							c10.8,22.9,19.3,46.1,24.6,70.9c11.5,53.4,20.5,107.1,29.1,160.7c5.1,30.7,9.5,61.5,14.3,92.2l7.1-2.2
							c-37.6-97.1-62.6-198.7-82.3-300.8c-5.6-28.7-10.3-57.5-17.1-86.1C404.9,20.8,400.5,21.5,400.8,24.2z"/>
					</g>
				</g>
			</g>
		</g>
		<g>
			<g>
				<g>
					<g>
						<linearGradient id="SVGID_8_" gradientUnits="userSpaceOnUse" x1="486.825" y1="202.2166" x2="525.217" y2="202.2166">
							<stop  offset="1.862220e-02" style="stop-color:#9A8684"/>
							<stop  offset="0.4235" style="stop-color:#D3C5C6"/>
							<stop  offset="0.4999" style="stop-color:#DED1D3"/>
							<stop  offset="0.5991" style="stop-color:#D1C0C0"/>
							<stop  offset="0.7129" style="stop-color:#C7B4B1"/>
							<stop  offset="0.8064" style="stop-color:#C4AFAC"/>
							<stop  offset="0.8566" style="stop-color:#B8A19E"/>
							<stop  offset="0.9516" style="stop-color:#977E78"/>
							<stop  offset="0.9972" style="stop-color:#866B64"/>
						</linearGradient>
						<path fill="url(#SVGID_8_)" d="M509.9,7.4c-12.8,48.7-18.1,100-21.1,150.2c-3.2,50.6-2.6,101.5,1.5,152
							c2.5,29.2,5.9,58.2,10.7,87c0.7,4.1,7,3.4,7.2-0.7c2.8-52.7,5.8-105.4,9.6-158l5.9-79.4c1.8-23.6,2.4-46.8-0.1-70.4
							c-2.9-26.5-7.4-52.9-8.1-79.6c-0.1-4.2-6.7-4.9-6.7-0.5c0.3,22.7,3.5,45.2,6.3,67.7c3.1,24.3,4,47.9,2.5,72.3
							c-3.6,52.4-7.7,104.9-11,157.3c-1.8,30.1-4,60.2-5.7,90.4l7.2-0.7c-16.1-99.8-18-202-5.9-302.5c3.3-28.2,8.4-56.1,12.2-84.2
							C514.8,5.8,510.6,4.9,509.9,7.4z"/>
					</g>
				</g>
			</g>
		</g>
		<g>
			<g>
				<g>
					<g>
						<linearGradient id="SVGID_9_" gradientUnits="userSpaceOnUse" x1="501.0609" y1="228.183" x2="619.5977" y2="228.183">
							<stop  offset="1.862220e-02" style="stop-color:#9A8684"/>
							<stop  offset="0.4235" style="stop-color:#D3C5C6"/>
							<stop  offset="0.4999" style="stop-color:#DED1D3"/>
							<stop  offset="0.5991" style="stop-color:#D1C0C0"/>
							<stop  offset="0.7129" style="stop-color:#C7B4B1"/>
							<stop  offset="0.8064" style="stop-color:#C4AFAC"/>
							<stop  offset="0.8566" style="stop-color:#B8A19E"/>
							<stop  offset="0.9516" style="stop-color:#977E78"/>
							<stop  offset="0.9972" style="stop-color:#866B64"/>
						</linearGradient>
						<path fill="url(#SVGID_9_)" d="M614,36.4c-15,47.3-31.7,94-50.4,140.7c-18.5,46.9-37.3,95.2-49,145.8c-3.3,14.6-6.1,29.3-8,44
							c-1.2,7.3-1.7,14.8-2.3,22.1l-0.4,5.5l-0.2,2.7c-0.1,1-0.1,1.8,0,2.4c0.1,0.6,0.2,1.1,0.4,1.2c0,0,0.1,0,0.1,0l-0.7,0.1
							c-0.4,0.1-0.9,0.2-1.2,0.3c-0.6,0.2-1.1,0.5-1.1,0.6c-0.1,0.1,0,0,0,0l0.1-0.1l1.9-3.2l0.2,0.1l0.5,0.3c1.3,0.7,2.4,1.8,3.2,3
							c1.7,2.5,2.4,5.4,1.6,8.9c-1,4.1-4.2,6.7-5.8,8c-1.6,1.3-2.2,2.2-1.4,2.9c0.8,0.6,3.2,1.3,7.3-0.8c4.1-2,8-8,7.7-13.8
							c-0.1-4.8-1.9-9.2-5.4-12.7c-0.9-0.9-1.8-1.6-2.8-2.3l-0.8-0.5l-0.2-0.1c5.3-9.2-7.4,12.4-6.1,10.2l0,0l-0.1,0.1
							c-0.1,0.1-0.1,0,0.3-0.2c0.5-0.3,2.2-0.9,4.4-0.9c1.1,0,2.4,0,3.8,0.1l2.1,0.3l1.1,0.2c0.4,0.1,0.1,0,0.2,0l2.4-8.5
							c1.9-6.3,3.4-12.6,5.6-18.8l6.2-18.7l6.8-18.5c9.3-24.7,19.9-49.1,30.6-73.5c10.9-24.5,22-49.2,32.4-74.4
							c9.4-22.4,16.7-45.4,19.5-69.8c3.1-27.3,2.7-54.6,3.1-81.4c0.2-4.3-6.5-5-6.7-0.8c-0.6,22.3-0.5,45-1.9,68
							c-2.1,24.7-7.4,48.6-16.4,71.8c-19.7,50-43.4,97.8-62.8,147.1c-2.9,7-5.4,14.2-8.1,21.3c-2.7,7.1-5.2,14.3-7.6,21.4
							c-2.6,7.2-4.8,14.4-6.8,21.7l-3.2,10.9c-0.2,0.8-0.3,1.1-0.3,1.5l0,0.1l0,0l-0.8,0c-1.1,0.1-2.2,0.3-2.8,0.5
							c-0.6,0.2-1,0.5-1,0.5l0.1-0.1l0-0.1l0,0c-0.5,0.8,4.3-7.3,2.3-3.8l0.1,0l0.3,0.2l1,0.7c2.6,2.1,4.1,5.2,4.1,8.5
							c2.4-1.2,4.6-3,6.4-5.5c-1.4-4-4.5-7.7-8.4-9.7l-5.8,9.8c0,0-0.1,0.1-0.1,0.1s0,0,0,0c0.1-0.1,0.4-0.3,0.9-0.5
							c1.1-0.4,2.9-0.7,5.2-0.6c1.2,0,2.4,0.1,3.8,0.3c0.1,0-0.1-0.1-0.1-0.2c-0.2,0,0-1.1,0-1.8l0.2-2.3l0.4-4.7
							c0.6-6.3,0.9-12.6,1.8-18.9l2.8-18.9c1.1-6.3,2.4-12.5,3.6-18.8c5.2-25.1,12.5-49.9,20.7-74.2c16.5-48.7,36.6-95.4,54-142.5
							c9.8-26.4,19.1-53.1,24.2-81.1C619.1,35,614.9,33.9,614,36.4z"/>
					</g>
				</g>
			</g>
		</g>
		<g>
			<g>
				<g>
					<g>
						<linearGradient id="SVGID_10_" gradientUnits="userSpaceOnUse" x1="511.305" y1="241.8068" x2="724.7158" y2="241.8068">
							<stop  offset="1.862220e-02" style="stop-color:#9A8684"/>
							<stop  offset="0.4235" style="stop-color:#D3C5C6"/>
							<stop  offset="0.4999" style="stop-color:#DED1D3"/>
							<stop  offset="0.5991" style="stop-color:#D1C0C0"/>
							<stop  offset="0.7129" style="stop-color:#C7B4B1"/>
							<stop  offset="0.8064" style="stop-color:#C4AFAC"/>
							<stop  offset="0.8566" style="stop-color:#B8A19E"/>
							<stop  offset="0.9516" style="stop-color:#977E78"/>
							<stop  offset="0.9972" style="stop-color:#866B64"/>
						</linearGradient>
						<path fill="url(#SVGID_10_)" d="M720.1,80.8c-17.3,17.3-33.5,36-48.8,55.4c-15.3,19.4-29.8,39.4-43.9,59.5
							c-14.1,20.2-27.7,40.9-40.7,62c-12.9,21.1-25.3,42.6-37,64.5c-13.4,25.3-26.2,51.1-38,77.4c-1.7,3.8,3.9,6.6,6.3,3.4
							c31-41.9,61.8-83.9,92.4-125.8c15.3-21,30.6-42.1,46-63.2c13.5-18.8,25.9-37.9,35.5-59c10.8-23.6,20-48,32.4-70.7
							c2-3.6-3.4-7.3-5.5-3.6c-10.8,19.2-19.1,39.6-28,59.8c-9.5,21.8-20.5,42.2-34.3,61.7c-29.7,42-60.5,83.5-91.1,125.1
							c-17.5,23.9-35.6,47.6-53.4,71.5l6.3,3.4C559.6,311.3,611,226,671.5,148.2c16.9-21.8,35-42.8,52-64.4
							C725,81.8,721.9,79,720.1,80.8z"/>
					</g>
				</g>
			</g>
		</g>
		<g>
			<g>
				<g>
					<g>
						<linearGradient id="SVGID_11_" gradientUnits="userSpaceOnUse" x1="509.3256" y1="281.6386" x2="813.1987" y2="281.6386">
							<stop  offset="1.862220e-02" style="stop-color:#9A8684"/>
							<stop  offset="0.4235" style="stop-color:#D3C5C6"/>
							<stop  offset="0.4999" style="stop-color:#DED1D3"/>
							<stop  offset="0.5991" style="stop-color:#D1C0C0"/>
							<stop  offset="0.7129" style="stop-color:#C7B4B1"/>
							<stop  offset="0.8064" style="stop-color:#C4AFAC"/>
							<stop  offset="0.8566" style="stop-color:#B8A19E"/>
							<stop  offset="0.9516" style="stop-color:#977E78"/>
							<stop  offset="0.9972" style="stop-color:#866B64"/>
						</linearGradient>
						<path fill="url(#SVGID_11_)" d="M808.6,148.6c-40.9,30-79.7,63.6-118.4,96.3c-39,32.9-77.7,66.8-115.4,102.2
							c-21.8,20.5-43.3,41.5-64.5,62.9c-3,3.1,1.4,7.9,4.9,5.6c45.7-30,90.7-61.2,134.3-94c22-16.5,43.8-33.3,65-50.7
							c18.9-15.6,36.5-32.1,51-51.6c16.4-21.8,30.7-45,46.9-66.4c2.6-3.4-2.4-7.9-5.1-4.5c-14,17.9-26.2,37.1-39.6,55.9
							c-14.4,20.1-30.5,38.5-49.8,54.7c-41.2,35-84.9,67.2-129.3,98.4c-25.5,17.9-51.5,35.1-77.6,52l4.9,5.6
							c73.6-74.6,151.5-141.8,230.3-207c22.1-18.3,44.6-36.1,65.4-55.8C813.6,150.4,810.8,147,808.6,148.6z"/>
					</g>
				</g>
			</g>
		</g>
		<g>
			<g>
				<g>
					<g>
						<linearGradient id="SVGID_12_" gradientUnits="userSpaceOnUse" x1="520.1931" y1="328.4958" x2="876.3361" y2="328.4958">
							<stop  offset="1.862220e-02" style="stop-color:#9A8684"/>
							<stop  offset="0.4235" style="stop-color:#D3C5C6"/>
							<stop  offset="0.4999" style="stop-color:#DED1D3"/>
							<stop  offset="0.5991" style="stop-color:#D1C0C0"/>
							<stop  offset="0.7129" style="stop-color:#C7B4B1"/>
							<stop  offset="0.8064" style="stop-color:#C4AFAC"/>
							<stop  offset="0.8566" style="stop-color:#B8A19E"/>
							<stop  offset="0.9516" style="stop-color:#977E78"/>
							<stop  offset="0.9972" style="stop-color:#866B64"/>
						</linearGradient>
						<path fill="url(#SVGID_12_)" d="M872.6,239.5c-48.2,15.7-94.4,39-138.5,63.6c-22.4,12.4-43.6,25.6-65.2,36.7
							c-21.7,11.1-45.1,21.2-68.3,32c-26.8,12.3-53,25.7-78.7,40.1c-3.7,2.1-0.7,7.8,3.2,6.6l76.7-23.3c25.4-7.7,51.3-15.6,77.3-26
							c26.2-10.7,50.1-24.2,73.5-36.7c21-11.3,41-23.4,59.5-38.3c20.8-16.7,40.5-34.8,62.7-49.6c3.5-2.4,0.3-8.1-3.3-5.7
							c-19,12.4-36.2,27.2-53.6,41.7c-18.8,15.6-38.2,29.3-59.8,41.2c-23.2,12.6-46.2,25.9-71.2,37c-25.1,11.1-51,18.9-76.3,26.8
							l-87.9,26l3.2,6.6c22.3-12.4,45-24,68-34.9c23.1-10.8,46.6-21.1,69.2-32c22.5-10.9,43.6-23.9,65.8-36.6
							c22.1-12.6,44.6-24.4,67.5-35.5c25.6-12.4,52-23.5,77.8-35.3C876.7,242.7,875.1,238.7,872.6,239.5z"/>
					</g>
				</g>
			</g>
		</g>
		<g>
			<g>
				<g>
					<g>
						<linearGradient id="SVGID_13_" gradientUnits="userSpaceOnUse" x1="510.1602" y1="377.9176" x2="914.2361" y2="377.9176">
							<stop  offset="1.862220e-02" style="stop-color:#9A8684"/>
							<stop  offset="0.4235" style="stop-color:#D3C5C6"/>
							<stop  offset="0.4999" style="stop-color:#DED1D3"/>
							<stop  offset="0.5991" style="stop-color:#D1C0C0"/>
							<stop  offset="0.7129" style="stop-color:#C7B4B1"/>
							<stop  offset="0.8064" style="stop-color:#C4AFAC"/>
							<stop  offset="0.8566" style="stop-color:#B8A19E"/>
							<stop  offset="0.9516" style="stop-color:#977E78"/>
							<stop  offset="0.9972" style="stop-color:#866B64"/>
						</linearGradient>
						<path fill="url(#SVGID_13_)" d="M910.8,335c-52.3,7.6-103.5,22.7-153.6,34.7c-25.3,6-50.6,11.6-76,16.3
							c-25.3,4.8-51.3,8.1-77.6,11.9c-30.4,4.4-60.7,9.9-90.7,16.5c-4.3,0.9-3.1,7.5,1.1,7.5l83.4-0.3c27.8-0.1,56.3-0.4,85-3.4
							c28.7-2.9,57-7.9,84.8-14.1c24.9-5.6,48.4-13.4,70.8-24.7c25.1-12.6,48.7-27.6,74.2-38.8c4.1-1.8,1.8-8.2-2.3-6.4
							c-21.8,9.3-42,21.3-62.9,32.5c-22.5,12.1-45.7,21.8-70.9,28.1c-27.1,6.7-54.7,12.1-82.7,15.4c-28,3.4-56.3,4.3-84,4.4
							l-95.3-0.2l1.1,7.5c26-5.7,52.1-10.5,78.4-14.5c26.3-4,52.7-7.1,78.5-11.8c51.6-8.9,102.2-22.2,153.5-34.7
							c28.7-7.1,57.6-13.6,86.4-21.2C914.4,338.9,913.5,334.6,910.8,335z"/>
					</g>
				</g>
			</g>
		</g>
		<g>
			<g>
				<g>
					<g>
						<linearGradient id="SVGID_14_" gradientUnits="userSpaceOnUse" x1="485.1443" y1="443.6829" x2="931.9741" y2="443.6829">
							<stop  offset="1.862220e-02" style="stop-color:#9A8684"/>
							<stop  offset="0.4235" style="stop-color:#D3C5C6"/>
							<stop  offset="0.4999" style="stop-color:#DED1D3"/>
							<stop  offset="0.5991" style="stop-color:#D1C0C0"/>
							<stop  offset="0.7129" style="stop-color:#C7B4B1"/>
							<stop  offset="0.8064" style="stop-color:#C4AFAC"/>
							<stop  offset="0.8566" style="stop-color:#B8A19E"/>
							<stop  offset="0.9516" style="stop-color:#977E78"/>
							<stop  offset="0.9972" style="stop-color:#866B64"/>
						</linearGradient>
						<path fill="url(#SVGID_14_)" d="M929.1,444.6c-56.3-10.6-114.9-13.2-172.2-13.8c-28.9-0.3-57.1,0.4-84.7-0.9
							c-27.5-1.3-55.8-5.1-84.5-8.2c-33.1-3.6-67.1-6-99.3-1.7c-4.6,0.6-3.9,7.8,0.4,8.2c56.9,5.3,113.6,27.4,176.4,36
							c31.5,4.2,62.6,4.7,92.9,5.4c27.1,0.6,53.6-0.2,80.3-4.5c30-4.8,59.7-11.8,90.1-14.3c4.8-0.4,5-7.7,0.1-7.3
							c-25.8,1.9-51.2,7-76.6,11.5c-27.4,4.9-54.3,7.6-82.2,7.2c-29.9-0.5-60.2-0.6-90.8-3.8c-30.8-3.1-60.7-10.3-89.8-17.7
							c-33.4-8.4-66.2-17.5-99.6-20.8l0.3,8.2c27.2-3.5,56.1-2.1,84.7,0.7c28.7,2.8,57.3,6.9,85.6,8.8c28.2,2,56.5,1.4,85.3,1.4
							c28.8,0,57.7,0.9,86.4,2.7c32.3,2,64.4,5.5,96.6,7.8C931.2,449.8,932,445.1,929.1,444.6z"/>
					</g>
				</g>
			</g>
		</g>
		<g>
			<g>
				<g>
					<g>
						<linearGradient id="SVGID_15_" gradientUnits="userSpaceOnUse" x1="492.1878" y1="484.7007" x2="902.572" y2="484.7007">
							<stop  offset="1.862220e-02" style="stop-color:#9A8684"/>
							<stop  offset="0.4235" style="stop-color:#D3C5C6"/>
							<stop  offset="0.4999" style="stop-color:#DED1D3"/>
							<stop  offset="0.5991" style="stop-color:#D1C0C0"/>
							<stop  offset="0.7129" style="stop-color:#C7B4B1"/>
							<stop  offset="0.8064" style="stop-color:#C4AFAC"/>
							<stop  offset="0.8566" style="stop-color:#B8A19E"/>
							<stop  offset="0.9516" style="stop-color:#977E78"/>
							<stop  offset="0.9972" style="stop-color:#866B64"/>
						</linearGradient>
						<path fill="url(#SVGID_15_)" d="M900.5,545.7c-44.9-31.7-100-51-153.6-63.8c-13.6-3.3-27.2-6.1-40.8-8.6
							c-6.8-1.3-13.7-2.4-20.5-3.5c-6.7-1.1-13.3-2-19.9-3.2c-26.4-4.4-52.4-10.3-78.4-17.8c-30.1-8.6-60.1-19.5-90.2-30
							c-4.3-1.5-6.9,4.9-3.1,7.2c24.6,15.1,50.1,29.8,77,42.3c26.8,12.6,55.2,22.6,83.9,29.9c7.2,1.9,14.5,3.5,21.7,5.2l21,4.7
							c14,3.2,27.8,6.5,41.6,10c24.6,6.3,48.6,11.8,73.7,15.3c28.1,4,57,7.6,84.4,17.3c4.4,1.5,7.6-4.7,3.2-6.3
							c-23.5-8.5-48-12.8-72.3-16.2c-26.2-3.7-51.1-7.9-76.6-14.4c-27.5-7.1-54.9-13.1-83.1-19.5c-28.3-6.7-56.3-15.7-83-27.5
							c-30.7-13.4-59.4-30.3-87.4-47.6l-3.1,7.2c26.1,9.2,52.3,18.7,78.7,26.8c26.4,8.1,52.9,14.6,79.5,19.4
							c13.4,2.5,26.6,4.4,40.3,6.7c13.6,2.3,27.2,4.8,40.7,7.9c27,6,53.7,13.6,79.7,23.3c29.2,10.8,56.9,24.7,83.9,39.3
							C900.2,551,902.9,547.3,900.5,545.7z"/>
					</g>
				</g>
			</g>
		</g>
	</g>
	<g>
		<g>
			<g>
				<g>
					<linearGradient id="SVGID_16_" gradientUnits="userSpaceOnUse" x1="496.4317" y1="695.0002" x2="510.6863" y2="695.0002">
						<stop  offset="1.862220e-02" style="stop-color:#9A8684"/>
						<stop  offset="0.4235" style="stop-color:#D3C5C6"/>
						<stop  offset="0.4999" style="stop-color:#DED1D3"/>
						<stop  offset="0.5991" style="stop-color:#D1C0C0"/>
						<stop  offset="0.7129" style="stop-color:#C7B4B1"/>
						<stop  offset="0.8064" style="stop-color:#C4AFAC"/>
						<stop  offset="0.8566" style="stop-color:#B8A19E"/>
						<stop  offset="0.9516" style="stop-color:#977E78"/>
						<stop  offset="0.9972" style="stop-color:#866B64"/>
					</linearGradient>
					<path fill="url(#SVGID_16_)" d="M497.2,397c-2.5,49.7,1.5,99.9,2.7,149.6c1,43.1,2,86.2,2.4,129.3
						c0.7,71.7,0.3,143.4,0.8,215.1c0.2,18.9,0.1,37.9-0.2,56.8c-0.2,13.8-0.3,27.8-2.5,41.5c-0.7,4.6,6.2,6.5,7.1,1.8
						c2.3-11.2,2.4-22.9,2.7-34.3c0.4-16.7,0.4-33.4,0.4-50c-0.2-29.2-0.7-58.4-0.6-87.6c0.3-85.5-0.3-171-3.2-256.5
						c-0.8-26.1-1.9-52.3-2.9-78.4c-1.2-29.1-1.9-58.3-5.4-87.3C498.4,396.1,497.3,396.3,497.2,397z"/>
				</g>
			</g>
		</g>
	</g>
	<g>
		<g>
			<g>
				<g>
					<linearGradient id="SVGID_17_" gradientUnits="userSpaceOnUse" x1="469.5841" y1="698.7905" x2="495.5304" y2="698.7905">
						<stop  offset="1.862220e-02" style="stop-color:#9A8684"/>
						<stop  offset="0.4235" style="stop-color:#D3C5C6"/>
						<stop  offset="0.4999" style="stop-color:#DED1D3"/>
						<stop  offset="0.5991" style="stop-color:#D1C0C0"/>
						<stop  offset="0.7129" style="stop-color:#C7B4B1"/>
						<stop  offset="0.8064" style="stop-color:#C4AFAC"/>
						<stop  offset="0.8566" style="stop-color:#B8A19E"/>
						<stop  offset="0.9516" style="stop-color:#977E78"/>
						<stop  offset="0.9972" style="stop-color:#866B64"/>
					</linearGradient>
					<path fill="url(#SVGID_17_)" d="M491.7,404.3c-5.4,34.8-6.3,70.5-8.7,105.6c-2.7,39.7-5.2,79.4-7.3,119.2
						c-4.2,79.2-7.1,158.5-5.9,237.9c0.3,19,0.9,38.1,1.9,57.1c1.2,22.6-1.4,48.2,9.2,68.9c2.3,4.5,9.9,1.1,8.2-3.7
						c-7.1-20.7-6.3-41.9-7.5-63.5c-0.9-16.8-1.5-33.6-2-50.4c-1-37.7-0.9-75.4-0.3-113.1c1.3-80,5.4-159.9,10.1-239.7
						c2.3-39.1,6.8-78.9,6-118.1C495.4,402,492.1,402,491.7,404.3z"/>
				</g>
			</g>
		</g>
	</g>
	<g>
		<g>
			<g>
				<g>
					<linearGradient id="SVGID_18_" gradientUnits="userSpaceOnUse" x1="493.1003" y1="530.1043" x2="820.9814" y2="530.1043">
						<stop  offset="1.862220e-02" style="stop-color:#9A8684"/>
						<stop  offset="0.4235" style="stop-color:#D3C5C6"/>
						<stop  offset="0.4999" style="stop-color:#DED1D3"/>
						<stop  offset="0.5991" style="stop-color:#D1C0C0"/>
						<stop  offset="0.7129" style="stop-color:#C7B4B1"/>
						<stop  offset="0.8064" style="stop-color:#C4AFAC"/>
						<stop  offset="0.8566" style="stop-color:#B8A19E"/>
						<stop  offset="0.9516" style="stop-color:#977E78"/>
						<stop  offset="0.9972" style="stop-color:#866B64"/>
					</linearGradient>
					<path fill="url(#SVGID_18_)" d="M494.5,424c11.5,22.7,27.7,43.7,46,62c18.3,18.4,39,34.4,60.1,48.6
						c42.6,28.7,88.9,49.8,135.4,68c26.9,10.9,54.4,18.4,79.3,36.7c3.5,2.6,7.6-2,4.6-5.4c-20-21.8-45.1-34.8-67.5-47.6
						c-22.8-12.9-45.6-25.6-67.9-38.9c-22.4-13.3-44.4-27.1-65.5-41.9c-18.8-13.2-37.1-25.8-56.8-37.7c-22.1-13.3-44.8-27.2-63-46.8
						c-2.9-3-8.3,0.8-5.3,4c15.4,17.2,34.6,30.1,53.5,41.8c20.6,12.6,40.1,24.6,59.6,38.5c42,29.7,86.9,55.5,132.3,81.2
						c13,7.4,26,14.6,39,22.8c12.9,8.2,25.6,17.5,36.2,29.3l4.6-5.4c-22.8-16.6-47.1-24.5-70.3-33.5c-23.4-9-46.5-18.6-69.3-29.3
						c-45.3-21.4-89.4-47.9-126.5-83.1c-20.7-19.7-38.8-42-54.5-65.6C497,419.6,493.2,421.7,494.5,424z"/>
				</g>
			</g>
		</g>
	</g>
	<g>
		<g>
			<g>
				<g>
					<linearGradient id="SVGID_19_" gradientUnits="userSpaceOnUse" x1="146.7176" y1="525.4153" x2="491.6185" y2="525.4153">
						<stop  offset="1.862220e-02" style="stop-color:#9A8684"/>
						<stop  offset="0.4235" style="stop-color:#D3C5C6"/>
						<stop  offset="0.4999" style="stop-color:#DED1D3"/>
						<stop  offset="0.5991" style="stop-color:#D1C0C0"/>
						<stop  offset="0.7129" style="stop-color:#C7B4B1"/>
						<stop  offset="0.8064" style="stop-color:#C4AFAC"/>
						<stop  offset="0.8566" style="stop-color:#B8A19E"/>
						<stop  offset="0.9516" style="stop-color:#977E78"/>
						<stop  offset="0.9972" style="stop-color:#866B64"/>
					</linearGradient>
					<path fill="url(#SVGID_19_)" d="M150.3,631.2c49.9-13,99.6-32.2,147-54.6c47.7-22.4,94-50.6,133.9-85.1
						c23.4-19.9,43.2-43,59.9-67.6c2.4-3.5-2.9-7.4-5.8-4.6c-19.4,18.3-39.5,34.8-61.6,49.1c-11,7.2-22.5,14.2-34.1,21
						c-11.5,6.8-23.2,13.2-35.1,19.4c-23.9,12.5-48.4,24-73.2,35.1c-22.2,9.9-43.6,20.6-64,34.4c-22.9,15.5-44.9,32.9-68.7,47.2
						c-3.8,2.3-1,8.7,2.9,6.5c20.2-11.9,39.2-26.1,58.4-39.7c20.8-14.7,41.8-27.1,64.7-37.6c49.3-22.4,97.8-45.6,143.3-74.3
						c26.2-16.1,50.2-34.6,72.6-55.7l-5.8-4.7c-14.4,21-30.7,40.7-50.1,58.2c-19.4,17.4-40.3,33.4-62.3,47.8
						c-44.2,28.9-92.1,51.3-140.9,70.1c-27.4,10.5-55.2,19.6-82.4,30.4C146.4,627.5,147.7,631.9,150.3,631.2z"/>
				</g>
			</g>
		</g>
	</g>
	<g>
		<g>
			<g>
				<linearGradient id="SVGID_20_" gradientUnits="userSpaceOnUse" x1="452.9024" y1="403.8547" x2="532.1003" y2="403.8547">
					<stop  offset="1.862220e-02" style="stop-color:#9A8684"/>
					<stop  offset="0.4235" style="stop-color:#D3C5C6"/>
					<stop  offset="0.4999" style="stop-color:#DED1D3"/>
					<stop  offset="0.5991" style="stop-color:#D1C0C0"/>
					<stop  offset="0.7129" style="stop-color:#C7B4B1"/>
					<stop  offset="0.8064" style="stop-color:#C4AFAC"/>
					<stop  offset="0.8566" style="stop-color:#B8A19E"/>
					<stop  offset="0.9516" style="stop-color:#977E78"/>
					<stop  offset="0.9972" style="stop-color:#866B64"/>
				</linearGradient>
				<path fill="url(#SVGID_20_)" d="M532.1,405.1c-0.5,17.8-18.7,31.8-40.6,31.2c-21.9-0.6-39.1-15.7-38.6-33.7
					c0.5-18,18.7-32,40.6-31.2C515.4,372.2,532.6,387.2,532.1,405.1z"/>
			</g>
		</g>
	</g>
</g>
</svg>
