<?xml version="1.0" encoding="utf-8"?>
<!-- Generator: Adobe Illustrator 21.1.0, SVG Export Plug-In . SVG Version: 6.00 Build 0)  -->
<svg version="1.1" id="Layer_1" xmlns="http://www.w3.org/2000/svg" xmlns:xlink="http://www.w3.org/1999/xlink" x="0px" y="0px"
	 viewBox="0 0 1000 1000" enable-background="new 0 0 1000 1000" xml:space="preserve">
<g>
	<g>
		<g>
			<g>
				<g>
					<g>
						<linearGradient id="SVGID_1_" gradientUnits="userSpaceOnUse" x1="441.6194" y1="907.0937" x2="558.3806" y2="907.0937">
							<stop  offset="1.862220e-02" style="stop-color:#9A8684"/>
							<stop  offset="0.4235" style="stop-color:#D3C5C6"/>
							<stop  offset="0.4999" style="stop-color:#DED1D3"/>
							<stop  offset="0.5991" style="stop-color:#D1C0C0"/>
							<stop  offset="0.7129" style="stop-color:#C7B4B1"/>
							<stop  offset="0.8064" style="stop-color:#C4AFAC"/>
							<stop  offset="0.8566" style="stop-color:#B8A19E"/>
							<stop  offset="0.9516" style="stop-color:#977E78"/>
							<stop  offset="0.9972" style="stop-color:#866B64"/>
						</linearGradient>
						<path fill="url(#SVGID_1_)" d="M500,995c3.6,0,6.5-2.8,6.7-6.4c0-0.6,3.2-63.7,46.7-75c2.9-0.8,5-3.4,5-6.5c0-3-2.1-5.7-5-6.5
							c-43.4-11.3-46.7-74.4-46.7-75c-0.2-3.6-3.1-6.4-6.7-6.4c0,0,0,0,0,0c-3.6,0-6.5,2.8-6.7,6.4c0,0.6-3.2,63.7-46.7,75
							c-2.9,0.8-5,3.4-5,6.5c0,3,2.1,5.7,5,6.5c43.4,11.3,46.7,74.4,46.7,75C493.5,992.2,496.4,995,500,995C500,995,500,995,500,995
							z M500,860.6c5.6,16.8,15.7,35.7,34.2,46.5c-18.5,10.8-28.7,29.6-34.2,46.5c-5.6-16.8-15.7-35.7-34.2-46.5
							C484.3,896.3,494.4,877.5,500,860.6z"/>
					</g>
				</g>
			</g>
		</g>
	</g>
	<g>
		<g>
			<g>
				<g>
					<g>
						<linearGradient id="SVGID_2_" gradientUnits="userSpaceOnUse" x1="466.4828" y1="468.7724" x2="533.5176" y2="468.7724">
							<stop  offset="1.862220e-02" style="stop-color:#9A8684"/>
							<stop  offset="0.4235" style="stop-color:#D3C5C6"/>
							<stop  offset="0.4999" style="stop-color:#DED1D3"/>
							<stop  offset="0.5991" style="stop-color:#D1C0C0"/>
							<stop  offset="0.7129" style="stop-color:#C7B4B1"/>
							<stop  offset="0.8064" style="stop-color:#C4AFAC"/>
							<stop  offset="0.8566" style="stop-color:#B8A19E"/>
							<stop  offset="0.9516" style="stop-color:#977E78"/>
							<stop  offset="0.9972" style="stop-color:#866B64"/>
						</linearGradient>
						<path fill="url(#SVGID_2_)" d="M467.3,472.2c1.2,0.7,2.4,1.3,3.7,1.8c12.5,4.7,21.3,12.3,24,26.7c1.5,8.4,3,15.1,2,28.4
							c-0.3,3.9,5.7,3,5.8-0.9c0.1-3.5,0-7,0.5-10.3c2.7-19.7,9.8-39.4,26.6-47.2c1.5-0.7,3.6-1.2,3.7-3.3c0.1-3.2-2.7-2.4-4.3-3.1
							c-15.4-6.5-24.7-21.6-27.3-40.6c-0.4-3,0.7-16.3-2.4-17.6c-4.5-1.8-2.9,12.7-2.9,15.2c-0.1,9.5-1.5,18.4-6.4,26.2
							c-5.5,8.8-12,16.4-21,20.4c-0.7,0.3-1.5,0.8-2.1,1.3C466.2,469.8,466.3,471.6,467.3,472.2z"/>
					</g>
				</g>
			</g>
		</g>
	</g>
	<g>
		<g>
			<g>
				<g>
					<g>
						<g>
							<linearGradient id="SVGID_3_" gradientUnits="userSpaceOnUse" x1="494.9022" y1="11.1302" x2="507.4521" y2="11.1302">
								<stop  offset="1.862220e-02" style="stop-color:#9A8684"/>
								<stop  offset="0.4235" style="stop-color:#D3C5C6"/>
								<stop  offset="0.4999" style="stop-color:#DED1D3"/>
								<stop  offset="0.5991" style="stop-color:#D1C0C0"/>
								<stop  offset="0.7129" style="stop-color:#C7B4B1"/>
								<stop  offset="0.8064" style="stop-color:#C4AFAC"/>
								<stop  offset="0.8566" style="stop-color:#B8A19E"/>
								<stop  offset="0.9516" style="stop-color:#977E78"/>
								<stop  offset="0.9972" style="stop-color:#866B64"/>
							</linearGradient>
							<path fill="url(#SVGID_3_)" d="M501.3,17.2c-3.2-0.1-6.3-3-6.4-6.1c-0.1-3,3.2-6.1,6.4-6.1c3.1,0,6.2,3.2,6.1,6.4
								C507.4,14.2,504.4,17.6,501.3,17.2z"/>
						</g>
					</g>
				</g>
			</g>
		</g>
		<g>
			<g>
				<g>
					<g>
						<g>
							<linearGradient id="SVGID_4_" gradientUnits="userSpaceOnUse" x1="494.9022" y1="47.9106" x2="507.4521" y2="47.9106">
								<stop  offset="1.862220e-02" style="stop-color:#9A8684"/>
								<stop  offset="0.4235" style="stop-color:#D3C5C6"/>
								<stop  offset="0.4999" style="stop-color:#DED1D3"/>
								<stop  offset="0.5991" style="stop-color:#D1C0C0"/>
								<stop  offset="0.7129" style="stop-color:#C7B4B1"/>
								<stop  offset="0.8064" style="stop-color:#C4AFAC"/>
								<stop  offset="0.8566" style="stop-color:#B8A19E"/>
								<stop  offset="0.9516" style="stop-color:#977E78"/>
								<stop  offset="0.9972" style="stop-color:#866B64"/>
							</linearGradient>
							<path fill="url(#SVGID_4_)" d="M501.3,54c-3.2-0.1-6.3-3-6.4-6.1c-0.1-3,3.2-6.1,6.4-6.1c3.1,0,6.2,3.2,6.1,6.4
								C507.4,51,504.4,54.4,501.3,54z"/>
						</g>
					</g>
				</g>
			</g>
		</g>
		<g>
			<g>
				<g>
					<g>
						<g>
							<linearGradient id="SVGID_5_" gradientUnits="userSpaceOnUse" x1="494.9022" y1="84.6907" x2="507.4521" y2="84.6907">
								<stop  offset="1.862220e-02" style="stop-color:#9A8684"/>
								<stop  offset="0.4235" style="stop-color:#D3C5C6"/>
								<stop  offset="0.4999" style="stop-color:#DED1D3"/>
								<stop  offset="0.5991" style="stop-color:#D1C0C0"/>
								<stop  offset="0.7129" style="stop-color:#C7B4B1"/>
								<stop  offset="0.8064" style="stop-color:#C4AFAC"/>
								<stop  offset="0.8566" style="stop-color:#B8A19E"/>
								<stop  offset="0.9516" style="stop-color:#977E78"/>
								<stop  offset="0.9972" style="stop-color:#866B64"/>
							</linearGradient>
							<path fill="url(#SVGID_5_)" d="M501.3,90.8c-3.2-0.1-6.3-3-6.4-6.1c-0.1-3,3.2-6.1,6.4-6.1c3.1,0,6.2,3.2,6.1,6.4
								C507.4,87.8,504.4,91.2,501.3,90.8z"/>
						</g>
					</g>
				</g>
			</g>
		</g>
		<g>
			<g>
				<g>
					<g>
						<g>
							<linearGradient id="SVGID_6_" gradientUnits="userSpaceOnUse" x1="494.9022" y1="121.4708" x2="507.4521" y2="121.4708">
								<stop  offset="1.862220e-02" style="stop-color:#9A8684"/>
								<stop  offset="0.4235" style="stop-color:#D3C5C6"/>
								<stop  offset="0.4999" style="stop-color:#DED1D3"/>
								<stop  offset="0.5991" style="stop-color:#D1C0C0"/>
								<stop  offset="0.7129" style="stop-color:#C7B4B1"/>
								<stop  offset="0.8064" style="stop-color:#C4AFAC"/>
								<stop  offset="0.8566" style="stop-color:#B8A19E"/>
								<stop  offset="0.9516" style="stop-color:#977E78"/>
								<stop  offset="0.9972" style="stop-color:#866B64"/>
							</linearGradient>
							<path fill="url(#SVGID_6_)" d="M501.3,127.6c-3.2-0.1-6.3-3-6.4-6.1c-0.1-3,3.2-6.1,6.4-6.1c3.1,0,6.2,3.2,6.1,6.4
								C507.4,124.5,504.4,127.9,501.3,127.6z"/>
						</g>
					</g>
				</g>
			</g>
		</g>
		<g>
			<g>
				<g>
					<g>
						<g>
							<linearGradient id="SVGID_7_" gradientUnits="userSpaceOnUse" x1="494.9022" y1="158.251" x2="507.4521" y2="158.251">
								<stop  offset="1.862220e-02" style="stop-color:#9A8684"/>
								<stop  offset="0.4235" style="stop-color:#D3C5C6"/>
								<stop  offset="0.4999" style="stop-color:#DED1D3"/>
								<stop  offset="0.5991" style="stop-color:#D1C0C0"/>
								<stop  offset="0.7129" style="stop-color:#C7B4B1"/>
								<stop  offset="0.8064" style="stop-color:#C4AFAC"/>
								<stop  offset="0.8566" style="stop-color:#B8A19E"/>
								<stop  offset="0.9516" style="stop-color:#977E78"/>
								<stop  offset="0.9972" style="stop-color:#866B64"/>
							</linearGradient>
							<path fill="url(#SVGID_7_)" d="M501.3,164.4c-3.2-0.1-6.3-3-6.4-6.1c-0.1-3,3.2-6.1,6.4-6.1c3.1,0,6.2,3.2,6.1,6.4
								C507.4,161.3,504.4,164.7,501.3,164.4z"/>
						</g>
					</g>
				</g>
			</g>
		</g>
		<g>
			<g>
				<g>
					<g>
						<g>
							<linearGradient id="SVGID_8_" gradientUnits="userSpaceOnUse" x1="494.9022" y1="195.0313" x2="507.4521" y2="195.0313">
								<stop  offset="1.862220e-02" style="stop-color:#9A8684"/>
								<stop  offset="0.4235" style="stop-color:#D3C5C6"/>
								<stop  offset="0.4999" style="stop-color:#DED1D3"/>
								<stop  offset="0.5991" style="stop-color:#D1C0C0"/>
								<stop  offset="0.7129" style="stop-color:#C7B4B1"/>
								<stop  offset="0.8064" style="stop-color:#C4AFAC"/>
								<stop  offset="0.8566" style="stop-color:#B8A19E"/>
								<stop  offset="0.9516" style="stop-color:#977E78"/>
								<stop  offset="0.9972" style="stop-color:#866B64"/>
							</linearGradient>
							<path fill="url(#SVGID_8_)" d="M501.3,201.1c-3.2-0.1-6.3-3-6.4-6.1c-0.1-3,3.2-6.1,6.4-6.1c3.1,0,6.2,3.2,6.1,6.4
								C507.4,198.1,504.4,201.5,501.3,201.1z"/>
						</g>
					</g>
				</g>
			</g>
		</g>
		<g>
			<g>
				<g>
					<g>
						<g>
							<linearGradient id="SVGID_9_" gradientUnits="userSpaceOnUse" x1="494.9022" y1="231.8117" x2="507.4521" y2="231.8117">
								<stop  offset="1.862220e-02" style="stop-color:#9A8684"/>
								<stop  offset="0.4235" style="stop-color:#D3C5C6"/>
								<stop  offset="0.4999" style="stop-color:#DED1D3"/>
								<stop  offset="0.5991" style="stop-color:#D1C0C0"/>
								<stop  offset="0.7129" style="stop-color:#C7B4B1"/>
								<stop  offset="0.8064" style="stop-color:#C4AFAC"/>
								<stop  offset="0.8566" style="stop-color:#B8A19E"/>
								<stop  offset="0.9516" style="stop-color:#977E78"/>
								<stop  offset="0.9972" style="stop-color:#866B64"/>
							</linearGradient>
							<path fill="url(#SVGID_9_)" d="M501.3,237.9c-3.2-0.1-6.3-3-6.4-6.1c-0.1-3,3.2-6.1,6.4-6.1c3.1,0,6.2,3.2,6.1,6.4
								C507.4,234.9,504.4,238.3,501.3,237.9z"/>
						</g>
					</g>
				</g>
			</g>
		</g>
		<g>
			<g>
				<g>
					<g>
						<g>
							<linearGradient id="SVGID_10_" gradientUnits="userSpaceOnUse" x1="494.9022" y1="268.5919" x2="507.4521" y2="268.5919">
								<stop  offset="1.862220e-02" style="stop-color:#9A8684"/>
								<stop  offset="0.4235" style="stop-color:#D3C5C6"/>
								<stop  offset="0.4999" style="stop-color:#DED1D3"/>
								<stop  offset="0.5991" style="stop-color:#D1C0C0"/>
								<stop  offset="0.7129" style="stop-color:#C7B4B1"/>
								<stop  offset="0.8064" style="stop-color:#C4AFAC"/>
								<stop  offset="0.8566" style="stop-color:#B8A19E"/>
								<stop  offset="0.9516" style="stop-color:#977E78"/>
								<stop  offset="0.9972" style="stop-color:#866B64"/>
							</linearGradient>
							<path fill="url(#SVGID_10_)" d="M501.3,274.7c-3.2-0.1-6.3-3-6.4-6.1c-0.1-3,3.2-6.1,6.4-6.1c3.1,0,6.2,3.2,6.1,6.4
								C507.4,271.7,504.4,275.1,501.3,274.7z"/>
						</g>
					</g>
				</g>
			</g>
		</g>
		<g>
			<g>
				<g>
					<g>
						<g>
							<linearGradient id="SVGID_11_" gradientUnits="userSpaceOnUse" x1="494.9022" y1="305.372" x2="507.4521" y2="305.372">
								<stop  offset="1.862220e-02" style="stop-color:#9A8684"/>
								<stop  offset="0.4235" style="stop-color:#D3C5C6"/>
								<stop  offset="0.4999" style="stop-color:#DED1D3"/>
								<stop  offset="0.5991" style="stop-color:#D1C0C0"/>
								<stop  offset="0.7129" style="stop-color:#C7B4B1"/>
								<stop  offset="0.8064" style="stop-color:#C4AFAC"/>
								<stop  offset="0.8566" style="stop-color:#B8A19E"/>
								<stop  offset="0.9516" style="stop-color:#977E78"/>
								<stop  offset="0.9972" style="stop-color:#866B64"/>
							</linearGradient>
							<path fill="url(#SVGID_11_)" d="M501.3,311.5c-3.2-0.1-6.3-3-6.4-6.1c-0.1-3,3.2-6.1,6.4-6.1c3.1,0,6.2,3.2,6.1,6.4
								C507.4,308.4,504.4,311.8,501.3,311.5z"/>
						</g>
					</g>
				</g>
			</g>
		</g>
		<g>
			<g>
				<g>
					<g>
						<g>
							<linearGradient id="SVGID_12_" gradientUnits="userSpaceOnUse" x1="494.9022" y1="342.1521" x2="507.4521" y2="342.1521">
								<stop  offset="1.862220e-02" style="stop-color:#9A8684"/>
								<stop  offset="0.4235" style="stop-color:#D3C5C6"/>
								<stop  offset="0.4999" style="stop-color:#DED1D3"/>
								<stop  offset="0.5991" style="stop-color:#D1C0C0"/>
								<stop  offset="0.7129" style="stop-color:#C7B4B1"/>
								<stop  offset="0.8064" style="stop-color:#C4AFAC"/>
								<stop  offset="0.8566" style="stop-color:#B8A19E"/>
								<stop  offset="0.9516" style="stop-color:#977E78"/>
								<stop  offset="0.9972" style="stop-color:#866B64"/>
							</linearGradient>
							<path fill="url(#SVGID_12_)" d="M501.3,348.3c-3.2-0.1-6.3-3-6.4-6.1c-0.1-3,3.2-6.1,6.4-6.1c3.1,0,6.2,3.2,6.1,6.4
								C507.4,345.2,504.4,348.6,501.3,348.3z"/>
						</g>
					</g>
				</g>
			</g>
		</g>
		<g>
			<g>
				<g>
					<g>
						<g>
							<linearGradient id="SVGID_13_" gradientUnits="userSpaceOnUse" x1="494.9022" y1="378.9323" x2="507.4521" y2="378.9323">
								<stop  offset="1.862220e-02" style="stop-color:#9A8684"/>
								<stop  offset="0.4235" style="stop-color:#D3C5C6"/>
								<stop  offset="0.4999" style="stop-color:#DED1D3"/>
								<stop  offset="0.5991" style="stop-color:#D1C0C0"/>
								<stop  offset="0.7129" style="stop-color:#C7B4B1"/>
								<stop  offset="0.8064" style="stop-color:#C4AFAC"/>
								<stop  offset="0.8566" style="stop-color:#B8A19E"/>
								<stop  offset="0.9516" style="stop-color:#977E78"/>
								<stop  offset="0.9972" style="stop-color:#866B64"/>
							</linearGradient>
							<path fill="url(#SVGID_13_)" d="M501.3,385c-3.2-0.1-6.3-3-6.4-6.1c-0.1-3,3.2-6.1,6.4-6.1c3.1,0,6.2,3.2,6.1,6.4
								C507.4,382,504.4,385.4,501.3,385z"/>
						</g>
					</g>
				</g>
			</g>
		</g>
		<g>
			<g>
				<g>
					<g>
						<g>
							<linearGradient id="SVGID_14_" gradientUnits="userSpaceOnUse" x1="494.9022" y1="562.8334" x2="507.4521" y2="562.8334">
								<stop  offset="1.862220e-02" style="stop-color:#9A8684"/>
								<stop  offset="0.4235" style="stop-color:#D3C5C6"/>
								<stop  offset="0.4999" style="stop-color:#DED1D3"/>
								<stop  offset="0.5991" style="stop-color:#D1C0C0"/>
								<stop  offset="0.7129" style="stop-color:#C7B4B1"/>
								<stop  offset="0.8064" style="stop-color:#C4AFAC"/>
								<stop  offset="0.8566" style="stop-color:#B8A19E"/>
								<stop  offset="0.9516" style="stop-color:#977E78"/>
								<stop  offset="0.9972" style="stop-color:#866B64"/>
							</linearGradient>
							<path fill="url(#SVGID_14_)" d="M501.3,568.9c-3.2-0.1-6.3-3-6.4-6.1c-0.1-3,3.2-6.1,6.4-6.1c3.1,0,6.2,3.2,6.1,6.4
								C507.4,565.9,504.4,569.3,501.3,568.9z"/>
						</g>
					</g>
				</g>
			</g>
		</g>
		<g>
			<g>
				<g>
					<g>
						<g>
							<linearGradient id="SVGID_15_" gradientUnits="userSpaceOnUse" x1="494.9022" y1="599.6137" x2="507.4521" y2="599.6137">
								<stop  offset="1.862220e-02" style="stop-color:#9A8684"/>
								<stop  offset="0.4235" style="stop-color:#D3C5C6"/>
								<stop  offset="0.4999" style="stop-color:#DED1D3"/>
								<stop  offset="0.5991" style="stop-color:#D1C0C0"/>
								<stop  offset="0.7129" style="stop-color:#C7B4B1"/>
								<stop  offset="0.8064" style="stop-color:#C4AFAC"/>
								<stop  offset="0.8566" style="stop-color:#B8A19E"/>
								<stop  offset="0.9516" style="stop-color:#977E78"/>
								<stop  offset="0.9972" style="stop-color:#866B64"/>
							</linearGradient>
							<path fill="url(#SVGID_15_)" d="M501.3,605.7c-3.2-0.1-6.3-3-6.4-6.1c-0.1-3,3.2-6.1,6.4-6.1c3.1,0,6.2,3.2,6.1,6.4
								C507.4,602.7,504.4,606.1,501.3,605.7z"/>
						</g>
					</g>
				</g>
			</g>
		</g>
		<g>
			<g>
				<g>
					<g>
						<g>
							<linearGradient id="SVGID_16_" gradientUnits="userSpaceOnUse" x1="494.9022" y1="636.3941" x2="507.4521" y2="636.3941">
								<stop  offset="1.862220e-02" style="stop-color:#9A8684"/>
								<stop  offset="0.4235" style="stop-color:#D3C5C6"/>
								<stop  offset="0.4999" style="stop-color:#DED1D3"/>
								<stop  offset="0.5991" style="stop-color:#D1C0C0"/>
								<stop  offset="0.7129" style="stop-color:#C7B4B1"/>
								<stop  offset="0.8064" style="stop-color:#C4AFAC"/>
								<stop  offset="0.8566" style="stop-color:#B8A19E"/>
								<stop  offset="0.9516" style="stop-color:#977E78"/>
								<stop  offset="0.9972" style="stop-color:#866B64"/>
							</linearGradient>
							<path fill="url(#SVGID_16_)" d="M501.3,642.5c-3.2-0.1-6.3-3-6.4-6.1c-0.1-3,3.2-6.1,6.4-6.1c3.1,0,6.2,3.2,6.1,6.4
								C507.4,639.5,504.4,642.9,501.3,642.5z"/>
						</g>
					</g>
				</g>
			</g>
		</g>
		<g>
			<g>
				<g>
					<g>
						<g>
							<linearGradient id="SVGID_17_" gradientUnits="userSpaceOnUse" x1="494.9022" y1="673.1741" x2="507.4521" y2="673.1741">
								<stop  offset="1.862220e-02" style="stop-color:#9A8684"/>
								<stop  offset="0.4235" style="stop-color:#D3C5C6"/>
								<stop  offset="0.4999" style="stop-color:#DED1D3"/>
								<stop  offset="0.5991" style="stop-color:#D1C0C0"/>
								<stop  offset="0.7129" style="stop-color:#C7B4B1"/>
								<stop  offset="0.8064" style="stop-color:#C4AFAC"/>
								<stop  offset="0.8566" style="stop-color:#B8A19E"/>
								<stop  offset="0.9516" style="stop-color:#977E78"/>
								<stop  offset="0.9972" style="stop-color:#866B64"/>
							</linearGradient>
							<path fill="url(#SVGID_17_)" d="M501.3,679.3c-3.2-0.1-6.3-3-6.4-6.1c-0.1-3,3.2-6.1,6.4-6.1c3.1,0,6.2,3.2,6.1,6.4
								C507.4,676.2,504.4,679.6,501.3,679.3z"/>
						</g>
					</g>
				</g>
			</g>
		</g>
		<g>
			<g>
				<g>
					<g>
						<g>
							<linearGradient id="SVGID_18_" gradientUnits="userSpaceOnUse" x1="494.9022" y1="709.9544" x2="507.4521" y2="709.9544">
								<stop  offset="1.862220e-02" style="stop-color:#9A8684"/>
								<stop  offset="0.4235" style="stop-color:#D3C5C6"/>
								<stop  offset="0.4999" style="stop-color:#DED1D3"/>
								<stop  offset="0.5991" style="stop-color:#D1C0C0"/>
								<stop  offset="0.7129" style="stop-color:#C7B4B1"/>
								<stop  offset="0.8064" style="stop-color:#C4AFAC"/>
								<stop  offset="0.8566" style="stop-color:#B8A19E"/>
								<stop  offset="0.9516" style="stop-color:#977E78"/>
								<stop  offset="0.9972" style="stop-color:#866B64"/>
							</linearGradient>
							<path fill="url(#SVGID_18_)" d="M501.3,716.1c-3.2-0.1-6.3-3-6.4-6.1c-0.1-3,3.2-6.1,6.4-6.1c3.1,0,6.2,3.2,6.1,6.4
								C507.4,713,504.4,716.4,501.3,716.1z"/>
						</g>
					</g>
				</g>
			</g>
		</g>
		<g>
			<g>
				<g>
					<g>
						<g>
							<linearGradient id="SVGID_19_" gradientUnits="userSpaceOnUse" x1="494.9022" y1="746.7346" x2="507.4521" y2="746.7346">
								<stop  offset="1.862220e-02" style="stop-color:#9A8684"/>
								<stop  offset="0.4235" style="stop-color:#D3C5C6"/>
								<stop  offset="0.4999" style="stop-color:#DED1D3"/>
								<stop  offset="0.5991" style="stop-color:#D1C0C0"/>
								<stop  offset="0.7129" style="stop-color:#C7B4B1"/>
								<stop  offset="0.8064" style="stop-color:#C4AFAC"/>
								<stop  offset="0.8566" style="stop-color:#B8A19E"/>
								<stop  offset="0.9516" style="stop-color:#977E78"/>
								<stop  offset="0.9972" style="stop-color:#866B64"/>
							</linearGradient>
							<path fill="url(#SVGID_19_)" d="M501.3,752.8c-3.2-0.1-6.3-3-6.4-6.1c-0.1-3,3.2-6.1,6.4-6.1c3.1,0,6.2,3.2,6.1,6.4
								C507.4,749.8,504.4,753.2,501.3,752.8z"/>
						</g>
					</g>
				</g>
			</g>
		</g>
		<g>
			<g>
				<g>
					<g>
						<g>
							<linearGradient id="SVGID_20_" gradientUnits="userSpaceOnUse" x1="494.9022" y1="783.5147" x2="507.4521" y2="783.5147">
								<stop  offset="1.862220e-02" style="stop-color:#9A8684"/>
								<stop  offset="0.4235" style="stop-color:#D3C5C6"/>
								<stop  offset="0.4999" style="stop-color:#DED1D3"/>
								<stop  offset="0.5991" style="stop-color:#D1C0C0"/>
								<stop  offset="0.7129" style="stop-color:#C7B4B1"/>
								<stop  offset="0.8064" style="stop-color:#C4AFAC"/>
								<stop  offset="0.8566" style="stop-color:#B8A19E"/>
								<stop  offset="0.9516" style="stop-color:#977E78"/>
								<stop  offset="0.9972" style="stop-color:#866B64"/>
							</linearGradient>
							<path fill="url(#SVGID_20_)" d="M501.3,789.6c-3.2-0.1-6.3-3-6.4-6.1c-0.1-3,3.2-6.1,6.4-6.1c3.1,0,6.2,3.2,6.1,6.4
								C507.4,786.6,504.4,790,501.3,789.6z"/>
						</g>
					</g>
				</g>
			</g>
		</g>
		<g>
			<g>
				<g>
					<g>
						<g>
							<linearGradient id="SVGID_21_" gradientUnits="userSpaceOnUse" x1="494.9022" y1="820.295" x2="507.4521" y2="820.295">
								<stop  offset="1.862220e-02" style="stop-color:#9A8684"/>
								<stop  offset="0.4235" style="stop-color:#D3C5C6"/>
								<stop  offset="0.4999" style="stop-color:#DED1D3"/>
								<stop  offset="0.5991" style="stop-color:#D1C0C0"/>
								<stop  offset="0.7129" style="stop-color:#C7B4B1"/>
								<stop  offset="0.8064" style="stop-color:#C4AFAC"/>
								<stop  offset="0.8566" style="stop-color:#B8A19E"/>
								<stop  offset="0.9516" style="stop-color:#977E78"/>
								<stop  offset="0.9972" style="stop-color:#866B64"/>
							</linearGradient>
							<path fill="url(#SVGID_21_)" d="M501.3,826.4c-3.2-0.1-6.3-3-6.4-6.1c-0.1-3,3.2-6.1,6.4-6.1c3.1,0,6.2,3.2,6.1,6.4
								C507.4,823.4,504.4,826.8,501.3,826.4z"/>
						</g>
					</g>
				</g>
			</g>
		</g>
	</g>
</g>
</svg>
