<?xml version="1.0" encoding="utf-8"?>
<!-- Generator: Adobe Illustrator 21.1.0, SVG Export Plug-In . SVG Version: 6.00 Build 0)  -->
<svg version="1.1" id="Layer_1" xmlns="http://www.w3.org/2000/svg" xmlns:xlink="http://www.w3.org/1999/xlink" x="0px" y="0px"
	 viewBox="0 0 1000 1000" enable-background="new 0 0 1000 1000" xml:space="preserve">
<g>
	<g>
		<g>
			<g>
				<linearGradient id="SVGID_1_" gradientUnits="userSpaceOnUse" x1="699.5392" y1="247.4088" x2="754.5814" y2="247.4088">
					<stop  offset="1.862220e-02" style="stop-color:#9A8684"/>
					<stop  offset="0.4235" style="stop-color:#D3C5C6"/>
					<stop  offset="0.4999" style="stop-color:#DED1D3"/>
					<stop  offset="0.5991" style="stop-color:#D1C0C0"/>
					<stop  offset="0.7129" style="stop-color:#C7B4B1"/>
					<stop  offset="0.8064" style="stop-color:#C4AFAC"/>
					<stop  offset="0.8566" style="stop-color:#B8A19E"/>
					<stop  offset="0.9516" style="stop-color:#977E78"/>
					<stop  offset="0.9972" style="stop-color:#866B64"/>
				</linearGradient>
				<path fill="url(#SVGID_1_)" d="M741.9,252.9c-4.3,1.2-8.7,1.7-13.2,1.5c-9.7-0.3-18.4-3.9-27.7-6c-1.1-0.3-2.1,1.5-0.9,2.1
					c8.9,4.6,19.6,7.2,29.4,7.4c4.6,0.1,9.2-0.4,13.6-1.7c3.6-1,9.4-2.7,11.3-6.3c0.5-0.9-0.3-1.9-1.2-1.7c-0.8,0.1-1.6,0.4-2.3,0.8
					c0-0.6-0.1-1.2-0.1-1.7c-0.2-1.3-0.4-2.5-0.9-3.8c-0.8-2.4-2-4.8-3.9-6.4c-0.5-0.4-1.1,0.3-0.9,0.9c0.5,1,1.1,1.9,1.6,2.9
					c0.5,1,0.9,2.1,1.3,3.2c0.3,1.1,0.6,2.2,0.7,3.4c0.1,0.5,0,1.1,0.1,1.6c0,0.3,0.1,0.6,0.2,0.9c-0.3,0.2-0.6,0.4-1,0.5
					C746.1,251.5,744,252.3,741.9,252.9z"/>
			</g>
		</g>
	</g>
	<g>
		<g>
			<g>
				<linearGradient id="SVGID_2_" gradientUnits="userSpaceOnUse" x1="694.6625" y1="206.1743" x2="774.2214" y2="206.1743">
					<stop  offset="1.862220e-02" style="stop-color:#9A8684"/>
					<stop  offset="0.4235" style="stop-color:#D3C5C6"/>
					<stop  offset="0.4999" style="stop-color:#DED1D3"/>
					<stop  offset="0.5991" style="stop-color:#D1C0C0"/>
					<stop  offset="0.7129" style="stop-color:#C7B4B1"/>
					<stop  offset="0.8064" style="stop-color:#C4AFAC"/>
					<stop  offset="0.8566" style="stop-color:#B8A19E"/>
					<stop  offset="0.9516" style="stop-color:#977E78"/>
					<stop  offset="0.9972" style="stop-color:#866B64"/>
				</linearGradient>
				<path fill="url(#SVGID_2_)" d="M774,206.7c-3.4-4.8-8.4-6.2-13.9-6.7c-7.3-0.7-14.7-1-22-0.6c-7,0.4-13.9,1.7-20.5,4.2
					c-3.5,1.3-6.9,2.9-10.5,3.8c-3.8,1-7.2,0-10.9,0.3c-1.2,0.1-2.2,1.7-1.1,2.7c4.1,4.2,11.3,2.1,16,0.4c6.8-2.4,13.2-5.5,20.4-6.7
					c7.3-1.2,14.7-1.2,22-1.1c6.4,0.1,14.3-0.4,19.3,4.6C773.6,208.7,774.6,207.6,774,206.7z"/>
			</g>
		</g>
	</g>
	<g>
		<g>
			<g>
				<linearGradient id="SVGID_3_" gradientUnits="userSpaceOnUse" x1="783.6654" y1="327.0929" x2="803.6865" y2="327.0929">
					<stop  offset="1.862220e-02" style="stop-color:#9A8684"/>
					<stop  offset="0.4235" style="stop-color:#D3C5C6"/>
					<stop  offset="0.4999" style="stop-color:#DED1D3"/>
					<stop  offset="0.5991" style="stop-color:#D1C0C0"/>
					<stop  offset="0.7129" style="stop-color:#C7B4B1"/>
					<stop  offset="0.8064" style="stop-color:#C4AFAC"/>
					<stop  offset="0.8566" style="stop-color:#B8A19E"/>
					<stop  offset="0.9516" style="stop-color:#977E78"/>
					<stop  offset="0.9972" style="stop-color:#866B64"/>
				</linearGradient>
				<path fill="url(#SVGID_3_)" d="M797.1,327.8c-0.8,0.4-1.7,0.7-2.6,0.8c-1,0.1-2-0.2-3-0.1c-1.2,0.1-1.6,1.6-0.7,2.4
					c2.1,1.7,5.6,0.7,7.7-0.4c2.4-1.3,4.2-3.5,5.1-6.2c0.3-0.9-0.4-1.9-1.3-1.9c-6.9-0.1-13.8,2.6-18.4,8.2
					c-0.6,0.8,0.3,1.8,1.1,1.2c4.3-3.5,9.5-5.9,14.9-6.3C799.1,326.4,798.2,327.2,797.1,327.8z"/>
			</g>
		</g>
	</g>
	<g>
		<g>
			<g>
				<linearGradient id="SVGID_4_" gradientUnits="userSpaceOnUse" x1="526.6384" y1="305.0207" x2="569.8003" y2="305.0207">
					<stop  offset="1.862220e-02" style="stop-color:#9A8684"/>
					<stop  offset="0.4235" style="stop-color:#D3C5C6"/>
					<stop  offset="0.4999" style="stop-color:#DED1D3"/>
					<stop  offset="0.5991" style="stop-color:#D1C0C0"/>
					<stop  offset="0.7129" style="stop-color:#C7B4B1"/>
					<stop  offset="0.8064" style="stop-color:#C4AFAC"/>
					<stop  offset="0.8566" style="stop-color:#B8A19E"/>
					<stop  offset="0.9516" style="stop-color:#977E78"/>
					<stop  offset="0.9972" style="stop-color:#866B64"/>
				</linearGradient>
				<path fill="url(#SVGID_4_)" d="M538.7,284.3c1.1-0.3,0.7-1.8-0.2-1.9c-5.2-0.6-9.8,3.6-11.3,8.9c-1.6,5.6,0.2,11.8,4.4,15.4
					c3.8,3.2,8.5,4.5,12.7,6.9c2.5,1.4,4.4,3.2,6,5.8c1.4,2.5,2.8,4.7,5.2,6.2c4.1,2.6,11.2,3.1,14.2-1.6c0.4-0.7-0.3-1.8-1-1.5
					c-2.5,1.1-4.8,2.3-7.6,2c-2.8-0.3-5.3-1.8-7-4.2c-1.8-2.6-3-5.3-5.3-7.3c-1.9-1.6-4-2.9-6.2-4c-4.4-2.2-9.8-4.4-11.9-9.6
					C528,292.6,532.5,286.1,538.7,284.3z"/>
			</g>
		</g>
	</g>
	<g>
		<g>
			<g>
				<linearGradient id="SVGID_5_" gradientUnits="userSpaceOnUse" x1="558.8138" y1="338.6749" x2="880.5881" y2="338.6749">
					<stop  offset="1.862220e-02" style="stop-color:#9A8684"/>
					<stop  offset="0.4235" style="stop-color:#D3C5C6"/>
					<stop  offset="0.4999" style="stop-color:#DED1D3"/>
					<stop  offset="0.5991" style="stop-color:#D1C0C0"/>
					<stop  offset="0.7129" style="stop-color:#C7B4B1"/>
					<stop  offset="0.8064" style="stop-color:#C4AFAC"/>
					<stop  offset="0.8566" style="stop-color:#B8A19E"/>
					<stop  offset="0.9516" style="stop-color:#977E78"/>
					<stop  offset="0.9972" style="stop-color:#866B64"/>
				</linearGradient>
				<path fill="url(#SVGID_5_)" d="M876.5,266.7c-2.3-10.1-5.7-20-10.6-29.1c-5.4-10-12.6-18.6-19.7-27.4
					c-7.7-9.7-14.1-20-19.9-31.1c-5.4-10.5-10.5-21.3-16.4-31.5c-12.2-21.1-29-40.9-49.3-54.1c-0.6-0.4-1.1,0.5-0.6,0.9
					c17,13.5,32.2,28.6,44,47.2c11.8,18.6,19.5,39.6,31.6,57.9c6,9.1,13.2,17.1,19.6,25.9c6.5,8.8,11.6,18.5,15,29
					c6.6,19.8,8,40.9,7.5,61.7c-0.4,14.7-0.3,36.5-9,50.1c-0.6-5.6-1.6-11.2-3-16.7c-3.8-14.9-11-27.8-20.5-39.5
					c-10.6-12.9-21.5-25.2-30.1-39.9c-4.5-7.8-8.5-15.9-12-24.2c-3.8-9.1-6.5-18.6-9.5-28c-0.1-0.2-0.2-0.3-0.4-0.4
					c1.1-8.8,2.6-17.6,2.7-26.6c0.1-10.7-1.2-21.5-3.6-32c-4.9-20.6-14.6-40.6-28.9-56c-1.2-1.3-3.1,0.5-2,1.9
					c12.4,14.6,21.5,31.6,26.6,50.2c5.2,19.4,5.5,38.6,2.7,58.3c-1.4,10-2.7,20-1,30.1c1.5,9.1,5,17.7,8.9,26
					c4.1,8.6,8.6,17,12.3,25.8c3.3,8,6.5,17.9,3.5,26.6c-2.8,7.9-12.2,8.6-15,16.2c-2.2,5.9,0.2,12.5,1.6,18.3
					c0.1,0.5,0.3,1,0.4,1.6c-3.2-1.6-7.5-1.7-10.7-1.2c-5.4,0.7-9.8,3.9-14.3,7.1c-9.9,7-20.4,13.7-29.7,21.7
					c-1.1,0.9,0.3,2.8,1.4,2.1c3.7-2.2,7.3-4.7,10.8-7.2c3-0.4,6.1-0.9,9.1-1.3c3.6-0.5,7.2-0.9,10.7-1.8c3-0.8,5.8-2.1,8.7-2.8
					c1.4-0.3,3-0.6,4.4-0.3c1.6,0.2,2.6,1.2,4,2c0.3,0.4,0.6,0.9,0.9,1.3c1,1.2,2.4,2.3,3.1,3.8c1,2.1,1.1,5.3,0.3,7.5
					c-0.7,1.9-2,3.5-3.5,5c-2.3-0.1-4.5,0.2-6.8,0.2c-2.5,0-5-0.2-7.4-0.5c-2.5-0.3-5-0.8-7.5-1.5c-1.2-0.3-2.4-0.7-3.6-1.1
					c-1.1-0.4-2.2-0.9-3.4-0.9c-0.9,0.1-1.5,1.2-0.8,2c1.7,1.8,4.8,2.3,7,2.9c2.5,0.7,5.1,1.2,7.7,1.5c2.7,0.4,5.3,0.5,8,0.4
					c1.3,0,2.7-0.1,4-0.2c-0.3,0.4-0.6,0.7-0.9,1.1c-3,3.6-5.8,7.5-7.6,12c-2.7,6.8-0.9,14,0.7,20.8c2,8.8,3.1,18.1-6,22.6
					c-8.7,4.4-20,5-29.5,5.4c-23.1,0.9-46-4.3-68.1-11.3c-11.3-3.6-22.5-7.7-33.6-12c-13.6-5.2-29.3-7.4-39.1-19.3
					c-2.9-3.5-5.2-7.5-7.2-11.7c-4-8.4-6.1-17.6-8-26.8c-0.2-0.8-1.4-0.7-1.4,0.2c0.4,9.9,3.1,19.9,7.2,28.7
					c3.4,7.1,7.7,15.2,14.4,19.7c8.2,5.4,19,8.7,28.1,12.2c5.1,2,37.6,13.3,41,14.3c-7.2,2.7-13.6,9.9-18.2,15.5
					c-7.6,9.4-14.3,19.8-21.7,29.4c-16,20.5-33.5,39.6-52.4,56.9c-10.7,9.8-22.3,18.5-33,28.3c-0.8,0.7,0.2,1.9,1,1.4
					c10.2-6.2,19.5-14.3,28.5-22.3c9.5-8.4,18.7-17.2,27.5-26.5c17.4-18.2,32.6-38.1,47.7-58.4c3.6-4.8,7.4-9.6,11.8-13.6
					c8.2-7.5,15.1-8.6,25.5-6c11.7,2.9,23.6,4.8,35.6,5.4c10.4,0.5,20.8-0.2,31-2.1c7.6-1.4,17.1-3.1,21.5-10.7
					c3.7-6.5,1.7-14.3,0.2-21.2c-0.9-4-2-8.2-1.8-12.4c0.3-5.4,3.4-10,6.5-14.1c4.5-5.9,11-10,10-18.6c-0.4-3.7-1.9-5.4-4.2-8
					c-2-2.3-0.3-2.9,1.6-4.1c1.1-0.8,2.2-1.8,2.8-3c2.9-5.3-0.1-12.4-1.4-17.7c-0.8-3.3-1.7-7-0.8-10.3c1.3-4.9,6.3-6.5,9.7-9.2
					c13.5-10.9,4.4-32.2-1.6-44.8c-8.9-18.8-19.6-36.7-18-58.6c0.2-2.5,0.5-5.1,0.8-7.6c2.8,14.9,8.8,29.5,15.5,42.7
					c7.3,14.3,16.3,27.1,26.5,39.1c10.5,12.4,20.5,24.6,25.9,40.3c3,8.8,4.8,17.9,5.6,27.2c-3.3,4-7.6,7-13.3,8.4
					c-1.5,0.4-0.9,2.8,0.6,2.5c5.4-1.3,9.6-4,12.9-7.5c0.3,4.9,0.4,9.7,0.2,14.6c-0.6,17.6-4.4,34.5-7.9,51.6
					c-0.2,1.1,1.3,1.6,1.6,0.5c4.8-14.4,7.3-29.9,8.4-45.1c0.6-8.1,0.6-16.3,0-24.4c7.6-10.3,9.8-25.7,10.6-38.2
					C881.2,310.1,881.2,288,876.5,266.7z M801.8,365.6c-1.1,3.1-5,3.1-6.2,6.1c-0.2,0.4-0.2,0.8-0.3,1.1c-1.4-0.8-3.2-1.1-4.7-1.1
					c-3.1,0.1-6.1,1.3-9,2.3c-4,1.3-8.2,2-12.4,2.5c-1.9,0.2-3.9,0.4-5.9,0.8c4-2.9,8-5.9,11.9-8.7c4.2-3,8.4-6.6,13.3-8.1
					c2.3-0.7,4.7-1,7.1-0.8c2.3,0.2,4.3,1.1,6.5,1.5C802.3,362.7,802.3,364.2,801.8,365.6z"/>
			</g>
		</g>
	</g>
	<g>
		<g>
			<g>
				<linearGradient id="SVGID_6_" gradientUnits="userSpaceOnUse" x1="119.4119" y1="496.954" x2="756.7994" y2="496.954">
					<stop  offset="1.862220e-02" style="stop-color:#9A8684"/>
					<stop  offset="0.4235" style="stop-color:#D3C5C6"/>
					<stop  offset="0.4999" style="stop-color:#DED1D3"/>
					<stop  offset="0.5991" style="stop-color:#D1C0C0"/>
					<stop  offset="0.7129" style="stop-color:#C7B4B1"/>
					<stop  offset="0.8064" style="stop-color:#C4AFAC"/>
					<stop  offset="0.8566" style="stop-color:#B8A19E"/>
					<stop  offset="0.9516" style="stop-color:#977E78"/>
					<stop  offset="0.9972" style="stop-color:#866B64"/>
				</linearGradient>
				<path fill="url(#SVGID_6_)" d="M215.4,370.1c5.1-10.6,9.9-21.4,15-32.1c4.9-10.3,10-20.5,15.7-30.3c5.7-9.8,12.6-18.2,19.5-27.1
					c15.1-19.4,27.6-41,40.7-62.2c13.5-21.8,29-42.1,43.3-63.4c15.2-22.5,30-45.5,48.2-65.6c28.2-31.2,63.8-54.7,102.7-68
					c77.9-26.9,166.4-11,231.2,41.9c8.3,6.7,16.1,14,23.5,21.6c0.8,0.8,2-0.3,1.2-1.2c-28.8-31.4-65.2-54.7-105.2-67.5
					C612.5,4,570.8,1.8,531,9.4c-40.6,7.8-79.3,26-111.5,52.9c-39.6,33.1-65.3,79.3-95.6,120.8c-14.8,20.4-27.3,42.6-40.7,63.9
					c-7,11-14.1,21.9-22.2,32.1c-6.8,8.6-13.2,16.9-18.8,26.4c-12.1,20.7-21.4,43.1-31.8,64.8c-5.4,11.3-11.6,22.1-16.5,33.6
					c-5.1,11.8-9.3,24.1-12.9,36.5c-7.4,25.7-12.2,52.2-18.2,78.2c-6.2,26.8-14.5,53-20.3,79.8c-5.4,24.7-9.2,49.7-11.9,74.8
					c-2.9,27.6-4.2,55.4-6.3,83.1c-2.1,27.9-4.5,55.7-5,83.7c-0.3,18.1,0.7,36.2,1.2,54.3c0.4,15.3,1.1,30.6,2.7,45.8
					c1.4,13.3,2.8,28.9,9.7,40.8c2.1,3.5,4.9,6.9,8.9,7.9c2.4,0.7,3.7-3.1,1.3-3.8c-4.2-1.1-6.5-5.6-8.1-9.4
					c-2.6-6.1-4.1-12.7-5.2-19.2c-2.8-15.7-3.8-31.7-4.5-47.6c-0.5-12.2-0.7-24.4-1.3-36.5c-1.1-27.5,0.1-54.9,2.1-82.3
					c2-27.8,3.8-55.7,5.8-83.5c1.9-25.5,4.4-50.9,8.7-76.1c4.3-25.7,10.3-51,17.4-76.1c7.2-25.6,12.5-51.6,18.3-77.6
					c5.7-25.6,12.4-51.2,23.2-75C204.5,391,210.3,380.8,215.4,370.1z"/>
			</g>
		</g>
	</g>
	<g>
		<g>
			<g>
				<linearGradient id="SVGID_7_" gradientUnits="userSpaceOnUse" x1="187.5234" y1="527.9533" x2="756.7727" y2="527.9533">
					<stop  offset="1.862220e-02" style="stop-color:#9A8684"/>
					<stop  offset="0.4235" style="stop-color:#D3C5C6"/>
					<stop  offset="0.4999" style="stop-color:#DED1D3"/>
					<stop  offset="0.5991" style="stop-color:#D1C0C0"/>
					<stop  offset="0.7129" style="stop-color:#C7B4B1"/>
					<stop  offset="0.8064" style="stop-color:#C4AFAC"/>
					<stop  offset="0.8566" style="stop-color:#B8A19E"/>
					<stop  offset="0.9516" style="stop-color:#977E78"/>
					<stop  offset="0.9972" style="stop-color:#866B64"/>
				</linearGradient>
				<path fill="url(#SVGID_7_)" d="M447.8,930.5c-7.2-25-12.7-50.5-16.7-76.3c-3.9-25.1-6.6-50.7-6.7-76.2c0-10.7,0.4-21.6,1.9-32.2
					c1.8-13,5.9-25.6,9.3-38.2c4.5-17,8.7-34.3,9.4-52c0.7-16.9-3-32.4-7.9-48.3c-5-16-10.2-32.1-9.6-49.3c0.6-17.5,5.9-34.3,10-51
					c4.2-17.1,6-33.9,5.1-51.7c-0.9-18.4-3.2-36.8-1.9-55.2c2.6-35.8,16.3-70.2,29.9-102.4c6.5-15.5,14.6-29,27.7-38.7
					c11.7-8.6,24.9-14.6,36.2-23.8c5.9-4.7,10.7-10.6,16.2-15.8c5.8-5.5,12.5-9.1,20-11.2c20.6-5.9,42.7-3.3,62.1-13
					c18.1-9.1,34.2-22.2,47-38c8.5-10.4,15.5-22.1,28.2-27c9.2-3.6,19.7-4.6,27.9-10.6c4.4-3.2,7-7.5,9.2-12.5
					c2.4-5.4,4.6-12.3,10.8-13.9c0.7,0.2,1.3-0.8,0.6-1.2c-1.2-0.8-2.5-1.5-3.8-2.2c-32.4-20.8-72.9-27-110.1-28.4
					c-39.4-1.6-81.4,1.8-118.2,17.5c-39.7,16.9-71.4,49-84.1,93c-3.7,12.9-6.4,26.4-11.8,38.7c-5.3,11.9-13.3,22.4-21.3,32.2
					c-15.8,19.3-34,36.1-50.3,54.8c-15,17.1-28.6,36-36.6,58c-6.2,17-8,35-10.1,53c-2.5,22.2-6.7,43.8-14.8,64.4
					c-7,17.8-16.3,33.7-27.7,48.5c-9,11.7-18.8,22.8-26.8,35.5c-8.7,13.9-14.5,29.6-17.1,46.1c-3.7,23.4-0.5,46.7-1.8,70.2
					c-1.1,19.1-5.4,37.2-11,55.2c-7.2,23.2-14.9,46.3-19.9,70.1c-2.4,11.3-3.8,22.9-3.4,34.6c0.3,10.6,2.1,21.1,4.2,31.6
					c4.2,20.6,8.1,41.3,12.8,61.9c4.1,18.1,9.4,37.9,20.6,53c5.2,7,11.3,11.7,18.8,15.5c1.3,0.7,2.6-1.3,1.3-2
					c-15.9-8-24.9-28.7-30.2-44.9c-5.7-17.2-8.8-35.1-12.4-52.9c-4.7-22.9-11.5-46-10.9-69.5c0.7-25.1,8.8-49.9,16-73.6
					c5.4-17.7,11.7-35.3,15.2-53.7c1.7-9.3,2.8-18.7,3.2-28.2c0.5-12.3-0.4-24.5-0.4-36.8c-0.1-19.5,2.2-39.4,9.8-57.3
					c5.9-14,14.7-26,23.9-37.5c9.6-12,19.3-23.9,27.2-37.4c10.8-18.6,18.4-39.7,22.9-61.1c3.7-17.8,4.7-36,7.5-53.9
					c3-19.8,9.4-38.2,19.7-55c13.3-21.6,31-39.5,48.2-57.6c16-16.8,33-34.3,44.4-55.4c5.9-10.9,9-23.3,12.1-35.4
					c3.1-12.1,6.7-23.9,12.2-35c10.1-20.1,25.1-36.9,42.9-49.5c33.2-23.6,73.7-31.7,113-33.9c41.1-2.3,84.2,1.3,123,16.7
					c4.7,1.9,9.4,4,13.9,6.4c-5.6-1.6-11.5-2.1-17.1-2.4c-13.6-0.5-27.3,0.9-40.6,3.1c-30.7,5-60.8,13.6-90.3,23.5
					c-26.4,8.8-54,17.3-76.5,35c-15.9,12.5-29.9,28.6-38.8,47.6c-8.7,18.6-12,39.4-19.1,58.6c-3.7,10-8.7,19.2-15.5,27.1
					c-5.7,6.6-12.2,12.2-18.7,17.9c-12.7,11-24.6,22.6-30.3,39.6c-7.6,22.5-2.3,47.6-11.4,69.8c-7.3,17.6-20,31.5-30.8,46.5
					c-10.1,14-18.7,29.4-19.6,47.6c-1.1,23.1,9.2,44.4,12,66.9c3.1,24.4-6.7,45.3-17.8,65.7c-11.1,20.6-20.7,40.9-24.1,64.8
					c-6.7,47.6,8.1,95.4,16,141.9c7.1,41.9,13.4,85.2,31.7,123.8c4.1,8.7,8.9,16.9,14.5,24.6c0.9,1.2,2.9-0.3,2-1.6
					c-23.8-35.1-33.2-77.8-40.7-119.2c-3.8-21.3-7.3-42.5-11.4-63.7c-4.7-24.3-9.7-48.7-10.5-73.4c-0.8-25,3-49.7,13.3-72.2
					c8.8-19.3,21.3-36.7,27.5-57.4c6.4-21.5,1.8-42-3.6-63c-2.8-11.1-5.7-22.5-5.6-34.1c0-9.9,2.5-19.4,6.6-28.2
					c7.8-16.4,20-29.7,30.3-44.2c5-7.1,9.7-14.6,13.1-22.7c3.9-9.4,5.6-19.3,6.4-29.5c1-12.5,0.9-25.3,4.3-37.4
					c2.6-9.3,7.2-17.7,13.2-24.8c10.6-12.6,24.4-21.5,35.4-33.8c13-14.6,19-33.3,24.3-52.4c2.8-10.1,5.5-20.4,9.5-30.1
					c4.1-10.1,9.8-19.5,16.4-28c12.8-16.4,29.2-29.7,47.3-38.6c10.4-5.1,21.5-8.9,32.3-12.9c27.6-10,55.6-18.8,84.2-25.4
					c14.4-3.3,29-6.1,43.7-7.7c11.7-1.3,23.9-1.9,35.5,0.3c3.6,0.7,7.2,1.8,10.5,3.5c-7.5,1.4-10,13.3-13.6,19
					c-6.3,9.9-18.4,11.5-28.4,14.6c-5.1,1.6-10,3.5-14.4,6.7c-5.1,3.8-9.2,8.8-13.2,13.9c-8.4,10.8-17.1,20.9-27.6,29.5
					c-14.8,12.1-33.7,22.7-53.1,25.2c-18.9,2.5-39.1,2.3-54,16c-6.2,5.7-11.5,12.2-18.1,17.3c-5.9,4.5-12.2,8.2-18.5,11.9
					c-12.2,7.3-24.2,15-32.7,27.2c-9.3,13.4-14.8,29.7-20.7,45c-6.4,16.7-12.5,33.6-16.6,51.2c-4.1,17.4-5.7,35-4.8,53
					c0.9,18.7,3.5,37.4,2,56.1c-1.4,17.9-7,34.9-10.9,52.2c-3.6,16.1-5.3,32.2-2.1,48.6c3.2,16.3,9.7,31.6,13.3,47.8
					c4.1,18.2,2.7,37-0.9,55.2c-3.4,17.4-8.8,34.2-12.9,51.5c-2.2,9.1-3.2,18.5-3.7,27.9c-1.3,24.3,0.6,48.8,3.7,72.9
					c3.4,26.6,8.5,52.9,15.2,78.8c5.7,21.9,12.3,44,21.8,64.5c1.8,3.9,4,7.5,6.1,11.2c0.3,0.5,1,0,0.7-0.4
					C460.3,970.9,453.5,950.3,447.8,930.5z"/>
			</g>
		</g>
	</g>
	<g>
		<g>
			<g>
				<linearGradient id="SVGID_8_" gradientUnits="userSpaceOnUse" x1="483.2707" y1="620.842" x2="672.934" y2="620.842">
					<stop  offset="1.862220e-02" style="stop-color:#9A8684"/>
					<stop  offset="0.4235" style="stop-color:#D3C5C6"/>
					<stop  offset="0.4999" style="stop-color:#DED1D3"/>
					<stop  offset="0.5991" style="stop-color:#D1C0C0"/>
					<stop  offset="0.7129" style="stop-color:#C7B4B1"/>
					<stop  offset="0.8064" style="stop-color:#C4AFAC"/>
					<stop  offset="0.8566" style="stop-color:#B8A19E"/>
					<stop  offset="0.9516" style="stop-color:#977E78"/>
					<stop  offset="0.9972" style="stop-color:#866B64"/>
				</linearGradient>
				<path fill="url(#SVGID_8_)" d="M647.9,767.2c-20.4-39.1-49.8-71.7-72-109.7c-5.4-9.2-10.4-18.8-14.5-28.7
					c-4.7-11.4-7-23.8-8.5-36.1c-1.4-11.7-1.9-23.5-2.8-35.2c-0.9-12.1-2.6-23.8-5.1-35.6c-2.8-13-5.8-26-7.4-39.3
					c-1.6-13.3-2.1-26.8-1.8-40.2c0.6-26.9,4.1-53.6,8.3-80c1-6.5,2.1-12.9,3.1-19.4c0.1-0.4,0-0.7-0.1-1c0.1,0.1,0.2,0.1,0.4,0.2
					c5.4,3,10.9,5.7,16.5,8.1c5.6,2.3,11.8,5.3,17.8,5.9c1.5,0.1,2.2-2.5,0.8-3.2c-5.2-2.6-11.1-3.9-16.5-6.1
					c-5.9-2.4-11.7-5.3-17.3-8.5c-10.8-6.2-21.5-13.6-30.4-22.8c-8.8-9.1-15.7-21.1-15.5-34.7c0.2-12.5,8-25.4,20.3-26.7
					c0.8-0.1,0.8-1.3,0-1.4c-8.7-0.4-16,5-20.3,13c-4.9,9.2-4.6,20.6-1.3,30.4c1.1,3.3,2.6,6.4,4.3,9.4
					c-9.9,20.8-16.4,43.8-19.7,66.9c-2.8,19.2-3.8,39.5-2.1,58.8c2.2,25,12.9,47.5,21.5,70.3c4.4,11.8,8,23.5,8.5,36.3
					c0.5,11.5-1.2,23-3.2,34.3c-1.9,11-4.2,21.9-5.2,33c-1,11.5-0.3,22.8,1.9,34.1c4.7,23.5,14,45.6,23.1,67.4
					c9.5,22.6,18.9,45.5,23.5,69.9c3.9,20.5,6.3,41.4,8.1,62.2c3.8,44.7,5.1,90.2,1.3,134.9c-0.4,4.7-0.8,9.4-1.2,14.1
					c-0.1,1.1,1.7,1.4,1.9,0.2c3.1-20.1,3.7-40.7,3.9-61c0.3-23.2-0.4-46.3-1.9-69.4c-1.4-21.5-3.4-43.1-6.6-64.4
					c-3.4-22.8-9.2-44.3-17.6-65.6c-8.8-22.5-19.2-44.4-26.4-67.6c-3.6-11.6-6.8-23.7-7.7-35.9c-0.9-11.7,0.4-23.3,2.4-34.8
					c3.7-21.8,8.8-43.6,4.6-65.9c-2.3-12-7.1-23.3-11.6-34.5c-4.6-11.6-9.3-23.2-12.6-35.3c-5.7-20.5-5.6-42.4-4.1-63.6
					c1.6-22.9,6.6-45.1,14-66.6c1.9-5.5,3.9-10.9,5.9-16.3c9,14.9,24.4,25.6,38.6,33.7c-0.5,0.1-0.9,0.4-1,1.1
					c-8.6,51.3-17.1,104.3-7.3,156.2c2.4,12.7,5.6,25.1,7.8,37.8c2.1,12.1,2.7,24.4,3.6,36.6c0.8,11.4,1.8,22.7,3.9,33.9
					c2.1,11.3,5.7,21.8,10.5,32c18.9,40.1,48.1,72.8,71.1,109.8c10.7,17.3,20.2,35.5,25.9,55.5c5.4,19,8.1,38.8,9.4,58.5
					c2.5,37.1,0.6,75.2-6.1,111.8c-0.6,3.4-1.1,6.7-1.7,10.1c-0.3,1.6,1.9,2.1,2.4,0.6c4-15.1,5.6-30.9,7-46.4
					c1.8-19.6,2.4-39.3,1.9-58.9C671.7,840.4,665.8,801.7,647.9,767.2z"/>
			</g>
		</g>
	</g>
</g>
</svg>
