<?xml version="1.0" encoding="utf-8"?>
<!-- Generator: Adobe Illustrator 21.1.0, SVG Export Plug-In . SVG Version: 6.00 Build 0)  -->
<svg version="1.1" id="Layer_1" xmlns="http://www.w3.org/2000/svg" xmlns:xlink="http://www.w3.org/1999/xlink" x="0px" y="0px"
	 viewBox="0 0 1000 1000" enable-background="new 0 0 1000 1000" xml:space="preserve">
<g>
	<g>
		<g>
			<g>
				<linearGradient id="SVGID_1_" gradientUnits="userSpaceOnUse" x1="208.1084" y1="500" x2="791.8916" y2="500">
					<stop  offset="1.862220e-02" style="stop-color:#9A8684"/>
					<stop  offset="0.4235" style="stop-color:#D3C5C6"/>
					<stop  offset="0.4999" style="stop-color:#DED1D3"/>
					<stop  offset="0.5991" style="stop-color:#D1C0C0"/>
					<stop  offset="0.7129" style="stop-color:#C7B4B1"/>
					<stop  offset="0.8064" style="stop-color:#C4AFAC"/>
					<stop  offset="0.8566" style="stop-color:#B8A19E"/>
					<stop  offset="0.9516" style="stop-color:#977E78"/>
					<stop  offset="0.9972" style="stop-color:#866B64"/>
				</linearGradient>
				<path fill="url(#SVGID_1_)" d="M256.9,285.4c7-14.4,14.6-28.5,22.9-42.1c8.3-13.6,17.2-26.8,26.7-39.5
					C396.7,83.1,540.8,5,703.1,5c7.9,0,15.7,0.2,23.5,0.6c5.3,0.3,10.5,0.7,15.7,1.1c2.2,0.2,4.5,0.3,6.7,0.5
					c6.7,0.6,13.4,1.4,20.1,2.3c0.5,0.1,1,0.1,1.4,0.2c7.2,1,14.3,2.1,21.4,3.4c0,0,0,0,0,0C560.9,55,385.7,256.9,385.7,500
					s175.2,445,406.2,486.9c0,0,0,0,0,0c-7.1,1.3-14.2,2.4-21.4,3.4c-0.5,0.1-1,0.1-1.4,0.2c-6.7,0.9-13.4,1.7-20.1,2.3
					c-2.2,0.2-4.4,0.3-6.7,0.5c-5.2,0.4-10.4,0.8-15.7,1.1c-7.8,0.4-15.6,0.6-23.5,0.6c-8.5,0-17-0.2-25.5-0.6
					c-16.9-0.9-33.5-2.6-49.9-5.1c-32.8-5-64.5-13.2-94.8-24.3c-60.7-22.2-115.7-55.9-162.6-98.6c-17.6-16-34-33.2-49.1-51.5
					c-70.6-85.6-113-195.3-113-314.9C208.1,423.1,225.6,350.3,256.9,285.4z"/>
			</g>
		</g>
	</g>
</g>
</svg>
