<?xml version="1.0" encoding="utf-8"?>
<!-- Generator: Adobe Illustrator 21.1.0, SVG Export Plug-In . SVG Version: 6.00 Build 0)  -->
<svg version="1.1" id="Layer_1" xmlns="http://www.w3.org/2000/svg" xmlns:xlink="http://www.w3.org/1999/xlink" x="0px" y="0px"
	 viewBox="0 0 1000 1000" enable-background="new 0 0 1000 1000" xml:space="preserve">
<g>
	<g>
		<g>
			<g>
				<g>
					<linearGradient id="SVGID_1_" gradientUnits="userSpaceOnUse" x1="777.1704" y1="587.1299" x2="982.4701" y2="587.1299">
						<stop  offset="1.862220e-02" style="stop-color:#9A8684"/>
						<stop  offset="0.4235" style="stop-color:#D3C5C6"/>
						<stop  offset="0.4999" style="stop-color:#DED1D3"/>
						<stop  offset="0.5991" style="stop-color:#D1C0C0"/>
						<stop  offset="0.7129" style="stop-color:#C7B4B1"/>
						<stop  offset="0.8064" style="stop-color:#C4AFAC"/>
						<stop  offset="0.8566" style="stop-color:#B8A19E"/>
						<stop  offset="0.9516" style="stop-color:#977E78"/>
						<stop  offset="0.9972" style="stop-color:#866B64"/>
					</linearGradient>
					<path fill="url(#SVGID_1_)" d="M823.7,576.6c52,12.5,104,25.3,156.2,37c2.4,0.5,3.7-5,1.3-5.6c-51.8-13.5-104-25.4-156.2-37
						l-46.7-10.3c-0.4,1.6-0.7,3.3-1.1,4.9L823.7,576.6z"/>
				</g>
			</g>
		</g>
		<g>
			<g>
				<g>
					<linearGradient id="SVGID_2_" gradientUnits="userSpaceOnUse" x1="760.7416" y1="644.2603" x2="860.4277" y2="644.2603">
						<stop  offset="1.862220e-02" style="stop-color:#9A8684"/>
						<stop  offset="0.4235" style="stop-color:#D3C5C6"/>
						<stop  offset="0.4999" style="stop-color:#DED1D3"/>
						<stop  offset="0.5991" style="stop-color:#D1C0C0"/>
						<stop  offset="0.7129" style="stop-color:#C7B4B1"/>
						<stop  offset="0.8064" style="stop-color:#C4AFAC"/>
						<stop  offset="0.8566" style="stop-color:#B8A19E"/>
						<stop  offset="0.9516" style="stop-color:#977E78"/>
						<stop  offset="0.9972" style="stop-color:#866B64"/>
					</linearGradient>
					<path fill="url(#SVGID_2_)" d="M809.4,640.1c-15.5-7.1-31.2-15.1-47.6-19.8c-0.9-0.3-1.5,1-0.7,1.5
						c14.3,9.5,30.5,16.2,45.9,23.5c16.6,7.9,33.1,16.3,50.2,23c2.5,1,4.5-3.4,2.1-4.6C843.2,654.7,826.1,647.7,809.4,640.1z"/>
				</g>
			</g>
		</g>
		<g>
			<g>
				<g>
					<linearGradient id="SVGID_3_" gradientUnits="userSpaceOnUse" x1="721.2852" y1="743.1581" x2="887.0605" y2="743.1581">
						<stop  offset="1.862220e-02" style="stop-color:#9A8684"/>
						<stop  offset="0.4235" style="stop-color:#D3C5C6"/>
						<stop  offset="0.4999" style="stop-color:#DED1D3"/>
						<stop  offset="0.5991" style="stop-color:#D1C0C0"/>
						<stop  offset="0.7129" style="stop-color:#C7B4B1"/>
						<stop  offset="0.8064" style="stop-color:#C4AFAC"/>
						<stop  offset="0.8566" style="stop-color:#B8A19E"/>
						<stop  offset="0.9516" style="stop-color:#977E78"/>
						<stop  offset="0.9972" style="stop-color:#866B64"/>
					</linearGradient>
					<path fill="url(#SVGID_3_)" d="M758.4,709.5c41.4,33.9,82.7,68,124.6,101.3c1.9,1.5,5.4-2.9,3.6-4.5
						C845.8,771.5,804,738.1,762,704.9l-37.6-29.6c-1,1.3-2.1,2.6-3.1,3.9L758.4,709.5z"/>
				</g>
			</g>
		</g>
		<g>
			<g>
				<g>
					<linearGradient id="SVGID_4_" gradientUnits="userSpaceOnUse" x1="682.2587" y1="764.4232" x2="753.2454" y2="764.4232">
						<stop  offset="1.862220e-02" style="stop-color:#9A8684"/>
						<stop  offset="0.4235" style="stop-color:#D3C5C6"/>
						<stop  offset="0.4999" style="stop-color:#DED1D3"/>
						<stop  offset="0.5991" style="stop-color:#D1C0C0"/>
						<stop  offset="0.7129" style="stop-color:#C7B4B1"/>
						<stop  offset="0.8064" style="stop-color:#C4AFAC"/>
						<stop  offset="0.8566" style="stop-color:#B8A19E"/>
						<stop  offset="0.9516" style="stop-color:#977E78"/>
						<stop  offset="0.9972" style="stop-color:#866B64"/>
					</linearGradient>
					<path fill="url(#SVGID_4_)" d="M717.9,760.4c-10.9-13.1-21.6-27.1-34.3-38.5c-0.7-0.6-1.8,0.3-1.3,1
						c8.7,14.6,20.4,27.8,31.2,41c11.6,14.3,22.7,29,35.3,42.5c1.9,2,5.5-1,3.9-3.2C742.1,788.3,729.7,774.5,717.9,760.4z"/>
				</g>
			</g>
		</g>
		<g>
			<g>
				<g>
					<linearGradient id="SVGID_5_" gradientUnits="userSpaceOnUse" x1="621.5764" y1="851.166" x2="715.7746" y2="851.166">
						<stop  offset="1.862220e-02" style="stop-color:#9A8684"/>
						<stop  offset="0.4235" style="stop-color:#D3C5C6"/>
						<stop  offset="0.4999" style="stop-color:#DED1D3"/>
						<stop  offset="0.5991" style="stop-color:#D1C0C0"/>
						<stop  offset="0.7129" style="stop-color:#C7B4B1"/>
						<stop  offset="0.8064" style="stop-color:#C4AFAC"/>
						<stop  offset="0.8566" style="stop-color:#B8A19E"/>
						<stop  offset="0.9516" style="stop-color:#977E78"/>
						<stop  offset="0.9972" style="stop-color:#866B64"/>
					</linearGradient>
					<path fill="url(#SVGID_5_)" d="M641.9,800.9c22.7,48.5,45.1,97.1,68.5,145.2c1.1,2.2,6.2-0.2,5.2-2.5
						c-21.7-49-45-97.2-68.5-145.3l-21.1-43c-1.5,0.7-3,1.5-4.5,2.2L641.9,800.9z"/>
				</g>
			</g>
		</g>
		<g>
			<g>
				<g>
					<linearGradient id="SVGID_6_" gradientUnits="userSpaceOnUse" x1="567.6297" y1="832.3735" x2="596.2246" y2="832.3735">
						<stop  offset="1.862220e-02" style="stop-color:#9A8684"/>
						<stop  offset="0.4235" style="stop-color:#D3C5C6"/>
						<stop  offset="0.4999" style="stop-color:#DED1D3"/>
						<stop  offset="0.5991" style="stop-color:#D1C0C0"/>
						<stop  offset="0.7129" style="stop-color:#C7B4B1"/>
						<stop  offset="0.8064" style="stop-color:#C4AFAC"/>
						<stop  offset="0.8566" style="stop-color:#B8A19E"/>
						<stop  offset="0.9516" style="stop-color:#977E78"/>
						<stop  offset="0.9972" style="stop-color:#866B64"/>
					</linearGradient>
					<path fill="url(#SVGID_6_)" d="M583.4,829.3c-4.1-16.6-7.6-33.8-14.2-49.6c-0.4-0.9-1.7-0.6-1.6,0.4c1.5,17,6.3,33.9,10.2,50.5
						c4.2,17.9,7.8,36,13.3,53.6c0.8,2.6,5.4,1.5,5-1.2C593,864.9,587.9,847.1,583.4,829.3z"/>
				</g>
			</g>
		</g>
		<g>
			<g>
				<g>
					<linearGradient id="SVGID_7_" gradientUnits="userSpaceOnUse" x1="495.9282" y1="889.8635" x2="503.2766" y2="889.8635">
						<stop  offset="1.862220e-02" style="stop-color:#9A8684"/>
						<stop  offset="0.4235" style="stop-color:#D3C5C6"/>
						<stop  offset="0.4999" style="stop-color:#DED1D3"/>
						<stop  offset="0.5991" style="stop-color:#D1C0C0"/>
						<stop  offset="0.7129" style="stop-color:#C7B4B1"/>
						<stop  offset="0.8064" style="stop-color:#C4AFAC"/>
						<stop  offset="0.8566" style="stop-color:#B8A19E"/>
						<stop  offset="0.9516" style="stop-color:#977E78"/>
						<stop  offset="0.9972" style="stop-color:#866B64"/>
					</linearGradient>
					<path fill="url(#SVGID_7_)" d="M497.8,784.7l-0.5,47.8c-0.6,53.5-1.6,107-1.4,160.5c0,2.5,5.7,2.5,5.7,0
						c1.7-53.5,1.7-107.1,1.5-160.6l-0.3-47.8c-1,0-1.9,0-2.9,0C499.3,784.8,498.5,784.7,497.8,784.7z"/>
				</g>
			</g>
		</g>
		<g>
			<g>
				<g>
					<linearGradient id="SVGID_8_" gradientUnits="userSpaceOnUse" x1="415.5901" y1="834.7292" x2="440.9619" y2="834.7292">
						<stop  offset="1.862220e-02" style="stop-color:#9A8684"/>
						<stop  offset="0.4235" style="stop-color:#D3C5C6"/>
						<stop  offset="0.4999" style="stop-color:#DED1D3"/>
						<stop  offset="0.5991" style="stop-color:#D1C0C0"/>
						<stop  offset="0.7129" style="stop-color:#C7B4B1"/>
						<stop  offset="0.8064" style="stop-color:#C4AFAC"/>
						<stop  offset="0.8566" style="stop-color:#B8A19E"/>
						<stop  offset="0.9516" style="stop-color:#977E78"/>
						<stop  offset="0.9972" style="stop-color:#866B64"/>
					</linearGradient>
					<path fill="url(#SVGID_8_)" d="M439.4,781.6c-6,16-9,33.3-12.6,50c-3.9,18-8.5,35.9-11.1,54.1c-0.4,2.7,4.2,3.7,5,1.1
						c5-17.8,8-36,11.7-54c3.4-16.8,7.7-33.7,8.7-50.8C441,781.1,439.7,780.8,439.4,781.6z"/>
				</g>
			</g>
		</g>
		<g>
			<g>
				<g>
					<linearGradient id="SVGID_9_" gradientUnits="userSpaceOnUse" x1="282.097" y1="850.8071" x2="379.0319" y2="850.8071">
						<stop  offset="1.862220e-02" style="stop-color:#9A8684"/>
						<stop  offset="0.4235" style="stop-color:#D3C5C6"/>
						<stop  offset="0.4999" style="stop-color:#DED1D3"/>
						<stop  offset="0.5991" style="stop-color:#D1C0C0"/>
						<stop  offset="0.7129" style="stop-color:#C7B4B1"/>
						<stop  offset="0.8064" style="stop-color:#C4AFAC"/>
						<stop  offset="0.8566" style="stop-color:#B8A19E"/>
						<stop  offset="0.9516" style="stop-color:#977E78"/>
						<stop  offset="0.9972" style="stop-color:#866B64"/>
					</linearGradient>
					<path fill="url(#SVGID_9_)" d="M353.3,798.6c-23.8,47.9-47.9,95.7-71,144c-1.1,2.2,4,4.8,5.2,2.6c24.8-47.5,48.1-95.7,71.1-144
						l20.5-43.2c-1.5-0.7-3-1.4-4.5-2.2L353.3,798.6z"/>
				</g>
			</g>
		</g>
		<g>
			<g>
				<g>
					<linearGradient id="SVGID_10_" gradientUnits="userSpaceOnUse" x1="256.2372" y1="770.8979" x2="324.6859" y2="770.8979">
						<stop  offset="1.862220e-02" style="stop-color:#9A8684"/>
						<stop  offset="0.4235" style="stop-color:#D3C5C6"/>
						<stop  offset="0.4999" style="stop-color:#DED1D3"/>
						<stop  offset="0.5991" style="stop-color:#D1C0C0"/>
						<stop  offset="0.7129" style="stop-color:#C7B4B1"/>
						<stop  offset="0.8064" style="stop-color:#C4AFAC"/>
						<stop  offset="0.8566" style="stop-color:#B8A19E"/>
						<stop  offset="0.9516" style="stop-color:#977E78"/>
						<stop  offset="0.9972" style="stop-color:#866B64"/>
					</linearGradient>
					<path fill="url(#SVGID_10_)" d="M324.6,728.4c0.5-0.8-0.6-1.7-1.3-1c-12.4,11.8-22.6,26.1-33.1,39.5
						c-11.4,14.5-23.3,28.6-33.6,43.9c-1.5,2.2,2.2,5.2,4,3.1c12.2-13.8,22.9-28.9,34-43.5C305,756.9,316.3,743.4,324.6,728.4z"/>
				</g>
			</g>
		</g>
		<g>
			<g>
				<g>
					<linearGradient id="SVGID_11_" gradientUnits="userSpaceOnUse" x1="111.4543" y1="742.488" x2="279.1366" y2="742.488">
						<stop  offset="1.862220e-02" style="stop-color:#9A8684"/>
						<stop  offset="0.4235" style="stop-color:#D3C5C6"/>
						<stop  offset="0.4999" style="stop-color:#DED1D3"/>
						<stop  offset="0.5991" style="stop-color:#D1C0C0"/>
						<stop  offset="0.7129" style="stop-color:#C7B4B1"/>
						<stop  offset="0.8064" style="stop-color:#C4AFAC"/>
						<stop  offset="0.8566" style="stop-color:#B8A19E"/>
						<stop  offset="0.9516" style="stop-color:#977E78"/>
						<stop  offset="0.9972" style="stop-color:#866B64"/>
					</linearGradient>
					<path fill="url(#SVGID_11_)" d="M238.3,705.3c-42.2,32.9-84.6,65.6-126.3,99.1c-1.9,1.5,1.6,6,3.6,4.5
						c42.9-32.1,84.7-65.4,126.4-99l37.2-30.1c-1.1-1.3-2.1-2.6-3.2-3.9L238.3,705.3z"/>
				</g>
			</g>
		</g>
		<g>
			<g>
				<g>
					<linearGradient id="SVGID_12_" gradientUnits="userSpaceOnUse" x1="144.8031" y1="653.676" x2="243.1038" y2="653.676">
						<stop  offset="1.862220e-02" style="stop-color:#9A8684"/>
						<stop  offset="0.4235" style="stop-color:#D3C5C6"/>
						<stop  offset="0.4999" style="stop-color:#DED1D3"/>
						<stop  offset="0.5991" style="stop-color:#D1C0C0"/>
						<stop  offset="0.7129" style="stop-color:#C7B4B1"/>
						<stop  offset="0.8064" style="stop-color:#C4AFAC"/>
						<stop  offset="0.8566" style="stop-color:#B8A19E"/>
						<stop  offset="0.9516" style="stop-color:#977E78"/>
						<stop  offset="0.9972" style="stop-color:#866B64"/>
					</linearGradient>
					<path fill="url(#SVGID_12_)" d="M148.1,679.1c17-7.2,33.1-16.1,49.5-24.5c15.2-7.7,31.2-15,45.2-24.9c0.8-0.5,0.1-1.8-0.8-1.5
						c-16.3,5.3-31.7,13.7-47,21.3c-16.5,8.1-33.4,15.7-49.2,25C143.5,675.9,145.6,680.1,148.1,679.1z"/>
				</g>
			</g>
		</g>
		<g>
			<g>
				<g>
					<linearGradient id="SVGID_13_" gradientUnits="userSpaceOnUse" x1="16.9883" y1="586.2974" x2="222.9883" y2="586.2974">
						<stop  offset="1.862220e-02" style="stop-color:#9A8684"/>
						<stop  offset="0.4235" style="stop-color:#D3C5C6"/>
						<stop  offset="0.4999" style="stop-color:#DED1D3"/>
						<stop  offset="0.5991" style="stop-color:#D1C0C0"/>
						<stop  offset="0.7129" style="stop-color:#C7B4B1"/>
						<stop  offset="0.8064" style="stop-color:#C4AFAC"/>
						<stop  offset="0.8566" style="stop-color:#B8A19E"/>
						<stop  offset="0.9516" style="stop-color:#977E78"/>
						<stop  offset="0.9972" style="stop-color:#866B64"/>
					</linearGradient>
					<path fill="url(#SVGID_13_)" d="M175.1,571.4c-52.3,11.3-104.7,22.2-156.9,34.2c-2.4,0.5-1.1,6.1,1.3,5.6
						c52.6-10.2,104.8-22.1,156.9-34.2l46.6-10.9c-0.4-1.6-0.8-3.3-1.1-4.9L175.1,571.4z"/>
				</g>
			</g>
		</g>
		<g>
			<g>
				<g>
					<linearGradient id="SVGID_14_" gradientUnits="userSpaceOnUse" x1="103.2759" y1="505.4923" x2="212.7312" y2="505.4923">
						<stop  offset="1.862220e-02" style="stop-color:#9A8684"/>
						<stop  offset="0.4235" style="stop-color:#D3C5C6"/>
						<stop  offset="0.4999" style="stop-color:#DED1D3"/>
						<stop  offset="0.5991" style="stop-color:#D1C0C0"/>
						<stop  offset="0.7129" style="stop-color:#C7B4B1"/>
						<stop  offset="0.8064" style="stop-color:#C4AFAC"/>
						<stop  offset="0.8566" style="stop-color:#B8A19E"/>
						<stop  offset="0.9516" style="stop-color:#977E78"/>
						<stop  offset="0.9972" style="stop-color:#866B64"/>
					</linearGradient>
					<path fill="url(#SVGID_14_)" d="M160.6,508c17.1-0.3,34.6,0.1,51.5-2.8c0.9-0.2,0.9-1.5,0-1.7c-17-2.3-34.5-1.4-51.6-1.2
						c-18.4,0.2-36.9-0.4-55.2,1.1c-2.7,0.2-2.6,4.9,0.1,5.1C123.7,509.5,142.2,508.4,160.6,508z"/>
				</g>
			</g>
		</g>
		<g>
			<g>
				<g>
					<linearGradient id="SVGID_15_" gradientUnits="userSpaceOnUse" x1="17.53" y1="412.8698" x2="222.8291" y2="412.8698">
						<stop  offset="1.862220e-02" style="stop-color:#9A8684"/>
						<stop  offset="0.4235" style="stop-color:#D3C5C6"/>
						<stop  offset="0.4999" style="stop-color:#DED1D3"/>
						<stop  offset="0.5991" style="stop-color:#D1C0C0"/>
						<stop  offset="0.7129" style="stop-color:#C7B4B1"/>
						<stop  offset="0.8064" style="stop-color:#C4AFAC"/>
						<stop  offset="0.8566" style="stop-color:#B8A19E"/>
						<stop  offset="0.9516" style="stop-color:#977E78"/>
						<stop  offset="0.9972" style="stop-color:#866B64"/>
					</linearGradient>
					<path fill="url(#SVGID_15_)" d="M176.3,423.4c-52-12.5-104-25.3-156.2-37c-2.4-0.5-3.7,5-1.3,5.6c51.8,13.5,104,25.4,156.2,37
						l46.7,10.3c0.4-1.6,0.7-3.3,1.1-4.9L176.3,423.4z"/>
				</g>
			</g>
		</g>
		<g>
			<g>
				<g>
					<linearGradient id="SVGID_16_" gradientUnits="userSpaceOnUse" x1="139.5723" y1="355.7397" x2="239.2584" y2="355.7397">
						<stop  offset="1.862220e-02" style="stop-color:#9A8684"/>
						<stop  offset="0.4235" style="stop-color:#D3C5C6"/>
						<stop  offset="0.4999" style="stop-color:#DED1D3"/>
						<stop  offset="0.5991" style="stop-color:#D1C0C0"/>
						<stop  offset="0.7129" style="stop-color:#C7B4B1"/>
						<stop  offset="0.8064" style="stop-color:#C4AFAC"/>
						<stop  offset="0.8566" style="stop-color:#B8A19E"/>
						<stop  offset="0.9516" style="stop-color:#977E78"/>
						<stop  offset="0.9972" style="stop-color:#866B64"/>
					</linearGradient>
					<path fill="url(#SVGID_16_)" d="M190.6,359.9c15.5,7.1,31.2,15.1,47.6,19.8c0.9,0.3,1.5-1,0.7-1.5
						c-14.3-9.5-30.5-16.2-45.9-23.5c-16.6-7.9-33.1-16.3-50.2-23c-2.5-1-4.5,3.4-2.1,4.6C156.8,345.3,173.9,352.3,190.6,359.9z"/>
				</g>
			</g>
		</g>
		<g>
			<g>
				<g>
					<linearGradient id="SVGID_17_" gradientUnits="userSpaceOnUse" x1="112.9395" y1="256.842" x2="278.7148" y2="256.842">
						<stop  offset="1.862220e-02" style="stop-color:#9A8684"/>
						<stop  offset="0.4235" style="stop-color:#D3C5C6"/>
						<stop  offset="0.4999" style="stop-color:#DED1D3"/>
						<stop  offset="0.5991" style="stop-color:#D1C0C0"/>
						<stop  offset="0.7129" style="stop-color:#C7B4B1"/>
						<stop  offset="0.8064" style="stop-color:#C4AFAC"/>
						<stop  offset="0.8566" style="stop-color:#B8A19E"/>
						<stop  offset="0.9516" style="stop-color:#977E78"/>
						<stop  offset="0.9972" style="stop-color:#866B64"/>
					</linearGradient>
					<path fill="url(#SVGID_17_)" d="M241.6,290.5c-41.4-33.9-82.7-68-124.6-101.3c-1.9-1.5-5.4,2.9-3.6,4.5
						c40.8,34.7,82.6,68.1,124.6,101.3l37.6,29.6c1-1.3,2.1-2.6,3.1-3.9L241.6,290.5z"/>
				</g>
			</g>
		</g>
		<g>
			<g>
				<g>
					<linearGradient id="SVGID_18_" gradientUnits="userSpaceOnUse" x1="246.7545" y1="235.5768" x2="317.7415" y2="235.5768">
						<stop  offset="1.862220e-02" style="stop-color:#9A8684"/>
						<stop  offset="0.4235" style="stop-color:#D3C5C6"/>
						<stop  offset="0.4999" style="stop-color:#DED1D3"/>
						<stop  offset="0.5991" style="stop-color:#D1C0C0"/>
						<stop  offset="0.7129" style="stop-color:#C7B4B1"/>
						<stop  offset="0.8064" style="stop-color:#C4AFAC"/>
						<stop  offset="0.8566" style="stop-color:#B8A19E"/>
						<stop  offset="0.9516" style="stop-color:#977E78"/>
						<stop  offset="0.9972" style="stop-color:#866B64"/>
					</linearGradient>
					<path fill="url(#SVGID_18_)" d="M282.1,239.6c10.9,13.1,21.6,27.1,34.3,38.5c0.7,0.6,1.8-0.3,1.3-1
						c-8.7-14.6-20.4-27.8-31.2-41c-11.6-14.3-22.7-29-35.3-42.5c-1.9-2-5.5,1-3.9,3.2C257.9,211.7,270.3,225.5,282.1,239.6z"/>
				</g>
			</g>
		</g>
		<g>
			<g>
				<g>
					<linearGradient id="SVGID_19_" gradientUnits="userSpaceOnUse" x1="284.2254" y1="148.8341" x2="378.4236" y2="148.8341">
						<stop  offset="1.862220e-02" style="stop-color:#9A8684"/>
						<stop  offset="0.4235" style="stop-color:#D3C5C6"/>
						<stop  offset="0.4999" style="stop-color:#DED1D3"/>
						<stop  offset="0.5991" style="stop-color:#D1C0C0"/>
						<stop  offset="0.7129" style="stop-color:#C7B4B1"/>
						<stop  offset="0.8064" style="stop-color:#C4AFAC"/>
						<stop  offset="0.8566" style="stop-color:#B8A19E"/>
						<stop  offset="0.9516" style="stop-color:#977E78"/>
						<stop  offset="0.9972" style="stop-color:#866B64"/>
					</linearGradient>
					<path fill="url(#SVGID_19_)" d="M358.1,199.1C335.4,150.7,313,102,289.6,53.9c-1.1-2.2-6.2,0.2-5.2,2.5
						c21.7,49,45,97.2,68.5,145.3l21.1,43c1.5-0.7,3-1.5,4.5-2.2L358.1,199.1z"/>
				</g>
			</g>
		</g>
		<g>
			<g>
				<g>
					<linearGradient id="SVGID_20_" gradientUnits="userSpaceOnUse" x1="403.7754" y1="167.6264" x2="432.3703" y2="167.6264">
						<stop  offset="1.862220e-02" style="stop-color:#9A8684"/>
						<stop  offset="0.4235" style="stop-color:#D3C5C6"/>
						<stop  offset="0.4999" style="stop-color:#DED1D3"/>
						<stop  offset="0.5991" style="stop-color:#D1C0C0"/>
						<stop  offset="0.7129" style="stop-color:#C7B4B1"/>
						<stop  offset="0.8064" style="stop-color:#C4AFAC"/>
						<stop  offset="0.8566" style="stop-color:#B8A19E"/>
						<stop  offset="0.9516" style="stop-color:#977E78"/>
						<stop  offset="0.9972" style="stop-color:#866B64"/>
					</linearGradient>
					<path fill="url(#SVGID_20_)" d="M416.6,170.7c4.1,16.6,7.6,33.8,14.2,49.6c0.4,0.9,1.7,0.6,1.6-0.4c-1.5-17-6.3-33.9-10.2-50.5
						c-4.2-17.9-7.8-36-13.3-53.6c-0.8-2.6-5.4-1.5-5,1.2C407,135.1,412.1,152.9,416.6,170.7z"/>
				</g>
			</g>
		</g>
		<g>
			<g>
				<g>
					<linearGradient id="SVGID_21_" gradientUnits="userSpaceOnUse" x1="496.7232" y1="110.1364" x2="504.0718" y2="110.1364">
						<stop  offset="1.862220e-02" style="stop-color:#9A8684"/>
						<stop  offset="0.4235" style="stop-color:#D3C5C6"/>
						<stop  offset="0.4999" style="stop-color:#DED1D3"/>
						<stop  offset="0.5991" style="stop-color:#D1C0C0"/>
						<stop  offset="0.7129" style="stop-color:#C7B4B1"/>
						<stop  offset="0.8064" style="stop-color:#C4AFAC"/>
						<stop  offset="0.8566" style="stop-color:#B8A19E"/>
						<stop  offset="0.9516" style="stop-color:#977E78"/>
						<stop  offset="0.9972" style="stop-color:#866B64"/>
					</linearGradient>
					<path fill="url(#SVGID_21_)" d="M502.2,215.3l0.5-47.8c0.6-53.5,1.6-107,1.4-160.5c0-2.5-5.7-2.5-5.7,0
						c-1.7,53.5-1.7,107.1-1.5,160.6l0.3,47.8c1,0,1.9,0,2.9,0C500.7,215.2,501.5,215.3,502.2,215.3z"/>
				</g>
			</g>
		</g>
		<g>
			<g>
				<g>
					<linearGradient id="SVGID_22_" gradientUnits="userSpaceOnUse" x1="559.0385" y1="165.2708" x2="584.4099" y2="165.2708">
						<stop  offset="1.862220e-02" style="stop-color:#9A8684"/>
						<stop  offset="0.4235" style="stop-color:#D3C5C6"/>
						<stop  offset="0.4999" style="stop-color:#DED1D3"/>
						<stop  offset="0.5991" style="stop-color:#D1C0C0"/>
						<stop  offset="0.7129" style="stop-color:#C7B4B1"/>
						<stop  offset="0.8064" style="stop-color:#C4AFAC"/>
						<stop  offset="0.8566" style="stop-color:#B8A19E"/>
						<stop  offset="0.9516" style="stop-color:#977E78"/>
						<stop  offset="0.9972" style="stop-color:#866B64"/>
					</linearGradient>
					<path fill="url(#SVGID_22_)" d="M560.6,218.4c6-16,9-33.3,12.6-50c3.9-18,8.5-35.9,11.1-54.1c0.4-2.7-4.2-3.7-5-1.1
						c-5,17.8-8,36-11.7,54c-3.4,16.8-7.7,33.7-8.7,50.8C559,218.9,560.3,219.2,560.6,218.4z"/>
				</g>
			</g>
		</g>
		<g>
			<g>
				<g>
					<linearGradient id="SVGID_23_" gradientUnits="userSpaceOnUse" x1="620.9681" y1="149.1929" x2="717.9033" y2="149.1929">
						<stop  offset="1.862220e-02" style="stop-color:#9A8684"/>
						<stop  offset="0.4235" style="stop-color:#D3C5C6"/>
						<stop  offset="0.4999" style="stop-color:#DED1D3"/>
						<stop  offset="0.5991" style="stop-color:#D1C0C0"/>
						<stop  offset="0.7129" style="stop-color:#C7B4B1"/>
						<stop  offset="0.8064" style="stop-color:#C4AFAC"/>
						<stop  offset="0.8566" style="stop-color:#B8A19E"/>
						<stop  offset="0.9516" style="stop-color:#977E78"/>
						<stop  offset="0.9972" style="stop-color:#866B64"/>
					</linearGradient>
					<path fill="url(#SVGID_23_)" d="M646.7,201.4c23.8-47.9,47.9-95.7,71-144c1.1-2.2-4-4.8-5.2-2.6c-24.8,47.5-48.1,95.7-71.1,144
						L621,242.2c1.5,0.7,3,1.4,4.5,2.2L646.7,201.4z"/>
				</g>
			</g>
		</g>
		<g>
			<g>
				<g>
					<linearGradient id="SVGID_24_" gradientUnits="userSpaceOnUse" x1="675.314" y1="229.102" x2="743.7629" y2="229.102">
						<stop  offset="1.862220e-02" style="stop-color:#9A8684"/>
						<stop  offset="0.4235" style="stop-color:#D3C5C6"/>
						<stop  offset="0.4999" style="stop-color:#DED1D3"/>
						<stop  offset="0.5991" style="stop-color:#D1C0C0"/>
						<stop  offset="0.7129" style="stop-color:#C7B4B1"/>
						<stop  offset="0.8064" style="stop-color:#C4AFAC"/>
						<stop  offset="0.8566" style="stop-color:#B8A19E"/>
						<stop  offset="0.9516" style="stop-color:#977E78"/>
						<stop  offset="0.9972" style="stop-color:#866B64"/>
					</linearGradient>
					<path fill="url(#SVGID_24_)" d="M675.4,271.6c-0.5,0.8,0.6,1.7,1.3,1c12.4-11.8,22.6-26.1,33.1-39.5
						c11.4-14.5,23.3-28.6,33.6-43.9c1.5-2.2-2.2-5.2-4-3.1c-12.2,13.8-22.9,28.9-34,43.5C695,243.1,683.7,256.6,675.4,271.6z"/>
				</g>
			</g>
		</g>
		<g>
			<g>
				<g>
					<linearGradient id="SVGID_25_" gradientUnits="userSpaceOnUse" x1="720.8634" y1="257.512" x2="888.5457" y2="257.512">
						<stop  offset="1.862220e-02" style="stop-color:#9A8684"/>
						<stop  offset="0.4235" style="stop-color:#D3C5C6"/>
						<stop  offset="0.4999" style="stop-color:#DED1D3"/>
						<stop  offset="0.5991" style="stop-color:#D1C0C0"/>
						<stop  offset="0.7129" style="stop-color:#C7B4B1"/>
						<stop  offset="0.8064" style="stop-color:#C4AFAC"/>
						<stop  offset="0.8566" style="stop-color:#B8A19E"/>
						<stop  offset="0.9516" style="stop-color:#977E78"/>
						<stop  offset="0.9972" style="stop-color:#866B64"/>
					</linearGradient>
					<path fill="url(#SVGID_25_)" d="M761.7,294.7c42.2-32.9,84.6-65.6,126.3-99.1c1.9-1.5-1.6-6-3.6-4.5
						c-42.9,32.1-84.7,65.4-126.4,99l-37.2,30.1c1.1,1.3,2.1,2.6,3.2,3.9L761.7,294.7z"/>
				</g>
			</g>
		</g>
		<g>
			<g>
				<g>
					<linearGradient id="SVGID_26_" gradientUnits="userSpaceOnUse" x1="756.8962" y1="346.3237" x2="855.1969" y2="346.3237">
						<stop  offset="1.862220e-02" style="stop-color:#9A8684"/>
						<stop  offset="0.4235" style="stop-color:#D3C5C6"/>
						<stop  offset="0.4999" style="stop-color:#DED1D3"/>
						<stop  offset="0.5991" style="stop-color:#D1C0C0"/>
						<stop  offset="0.7129" style="stop-color:#C7B4B1"/>
						<stop  offset="0.8064" style="stop-color:#C4AFAC"/>
						<stop  offset="0.8566" style="stop-color:#B8A19E"/>
						<stop  offset="0.9516" style="stop-color:#977E78"/>
						<stop  offset="0.9972" style="stop-color:#866B64"/>
					</linearGradient>
					<path fill="url(#SVGID_26_)" d="M851.9,320.9c-17,7.2-33.1,16.1-49.5,24.5c-15.2,7.7-31.2,15-45.2,24.9
						c-0.8,0.5-0.1,1.8,0.8,1.5c16.3-5.3,31.7-13.7,47-21.3c16.5-8.1,33.4-15.7,49.2-25C856.5,324.1,854.4,319.9,851.9,320.9z"/>
				</g>
			</g>
		</g>
		<g>
			<g>
				<g>
					<linearGradient id="SVGID_27_" gradientUnits="userSpaceOnUse" x1="777.0117" y1="413.7024" x2="983.0117" y2="413.7024">
						<stop  offset="1.862220e-02" style="stop-color:#9A8684"/>
						<stop  offset="0.4235" style="stop-color:#D3C5C6"/>
						<stop  offset="0.4999" style="stop-color:#DED1D3"/>
						<stop  offset="0.5991" style="stop-color:#D1C0C0"/>
						<stop  offset="0.7129" style="stop-color:#C7B4B1"/>
						<stop  offset="0.8064" style="stop-color:#C4AFAC"/>
						<stop  offset="0.8566" style="stop-color:#B8A19E"/>
						<stop  offset="0.9516" style="stop-color:#977E78"/>
						<stop  offset="0.9972" style="stop-color:#866B64"/>
					</linearGradient>
					<path fill="url(#SVGID_27_)" d="M980.5,388.7c-52.6,10.2-104.8,22.1-156.9,34.2L777,433.8c0.4,1.6,0.8,3.3,1.1,4.9l46.8-10.1
						c52.3-11.3,104.7-22.2,156.9-34.2C984.1,393.8,982.8,388.3,980.5,388.7z"/>
				</g>
			</g>
		</g>
		<g>
			<g>
				<g>
					<linearGradient id="SVGID_28_" gradientUnits="userSpaceOnUse" x1="787.2687" y1="494.5075" x2="896.7241" y2="494.5075">
						<stop  offset="1.862220e-02" style="stop-color:#9A8684"/>
						<stop  offset="0.4235" style="stop-color:#D3C5C6"/>
						<stop  offset="0.4999" style="stop-color:#DED1D3"/>
						<stop  offset="0.5991" style="stop-color:#D1C0C0"/>
						<stop  offset="0.7129" style="stop-color:#C7B4B1"/>
						<stop  offset="0.8064" style="stop-color:#C4AFAC"/>
						<stop  offset="0.8566" style="stop-color:#B8A19E"/>
						<stop  offset="0.9516" style="stop-color:#977E78"/>
						<stop  offset="0.9972" style="stop-color:#866B64"/>
					</linearGradient>
					<path fill="url(#SVGID_28_)" d="M839.4,492c-17.1,0.3-34.6-0.1-51.5,2.8c-0.9,0.2-0.9,1.5,0,1.7c17,2.3,34.5,1.4,51.6,1.2
						c18.4-0.2,36.9,0.4,55.2-1.1c2.7-0.2,2.6-4.9-0.1-5.1C876.3,490.5,857.8,491.6,839.4,492z"/>
				</g>
			</g>
		</g>
	</g>
</g>
</svg>
