<?xml version="1.0" encoding="utf-8"?>
<!-- Generator: Adobe Illustrator 21.1.0, SVG Export Plug-In . SVG Version: 6.00 Build 0)  -->
<svg version="1.1" id="Layer_1" xmlns="http://www.w3.org/2000/svg" xmlns:xlink="http://www.w3.org/1999/xlink" x="0px" y="0px"
	 viewBox="0 0 1000 1000" enable-background="new 0 0 1000 1000" xml:space="preserve">
<g>
	<g>
		<g>
			<g>
				<g>
					<linearGradient id="SVGID_1_" gradientUnits="userSpaceOnUse" x1="475.6211" y1="29.3349" x2="524.2904" y2="29.3349">
						<stop  offset="1.862220e-02" style="stop-color:#9A8684"/>
						<stop  offset="0.4235" style="stop-color:#D3C5C6"/>
						<stop  offset="0.4999" style="stop-color:#DED1D3"/>
						<stop  offset="0.5991" style="stop-color:#D1C0C0"/>
						<stop  offset="0.7129" style="stop-color:#C7B4B1"/>
						<stop  offset="0.8064" style="stop-color:#C4AFAC"/>
						<stop  offset="0.8566" style="stop-color:#B8A19E"/>
						<stop  offset="0.9516" style="stop-color:#977E78"/>
						<stop  offset="0.9972" style="stop-color:#866B64"/>
					</linearGradient>
					<path fill="url(#SVGID_1_)" d="M500,5c0,0-2.4,9.6-6.9,17.4c-7.8,4.5-17.4,6.9-17.4,6.9s9.6,2.4,17.4,6.9
						c4.5,7.8,6.9,17.4,6.9,17.4s2.4-9.6,6.9-17.4c7.8-4.5,17.4-6.9,17.4-6.9s-9.6-2.4-17.4-6.9C502.4,14.6,500,5,500,5z"/>
				</g>
			</g>
		</g>
	</g>
	<g>
		<g>
			<g>
				<g>
					<linearGradient id="SVGID_2_" gradientUnits="userSpaceOnUse" x1="678.3477" y1="80.5614" x2="727.017" y2="80.5614">
						<stop  offset="1.862220e-02" style="stop-color:#9A8684"/>
						<stop  offset="0.4235" style="stop-color:#D3C5C6"/>
						<stop  offset="0.4999" style="stop-color:#DED1D3"/>
						<stop  offset="0.5991" style="stop-color:#D1C0C0"/>
						<stop  offset="0.7129" style="stop-color:#C7B4B1"/>
						<stop  offset="0.8064" style="stop-color:#C4AFAC"/>
						<stop  offset="0.8566" style="stop-color:#B8A19E"/>
						<stop  offset="0.9516" style="stop-color:#977E78"/>
						<stop  offset="0.9972" style="stop-color:#866B64"/>
					</linearGradient>
					<path fill="url(#SVGID_2_)" d="M702.7,56.2c0,0-2.4,9.6-6.9,17.4c-7.8,4.5-17.4,6.9-17.4,6.9s9.6,2.4,17.4,6.9
						c4.5,7.8,6.9,17.4,6.9,17.4s2.4-9.6,6.9-17.4c7.8-4.5,17.4-6.9,17.4-6.9s-9.6-2.4-17.4-6.9C705.1,65.8,702.7,56.2,702.7,56.2z"
						/>
				</g>
			</g>
		</g>
	</g>
	<g>
		<g>
			<g>
				<g>
					<linearGradient id="SVGID_3_" gradientUnits="userSpaceOnUse" x1="834.2061" y1="212.8963" x2="882.8754" y2="212.8963">
						<stop  offset="1.862220e-02" style="stop-color:#9A8684"/>
						<stop  offset="0.4235" style="stop-color:#D3C5C6"/>
						<stop  offset="0.4999" style="stop-color:#DED1D3"/>
						<stop  offset="0.5991" style="stop-color:#D1C0C0"/>
						<stop  offset="0.7129" style="stop-color:#C7B4B1"/>
						<stop  offset="0.8064" style="stop-color:#C4AFAC"/>
						<stop  offset="0.8566" style="stop-color:#B8A19E"/>
						<stop  offset="0.9516" style="stop-color:#977E78"/>
						<stop  offset="0.9972" style="stop-color:#866B64"/>
					</linearGradient>
					<path fill="url(#SVGID_3_)" d="M858.5,188.6c0,0-2.4,9.6-6.9,17.4c-7.8,4.5-17.4,6.9-17.4,6.9s9.6,2.4,17.4,6.9
						c4.5,7.8,6.9,17.4,6.9,17.4s2.4-9.6,6.9-17.4c7.8-4.5,17.4-6.9,17.4-6.9s-9.6-2.4-17.4-6.9C861,198.1,858.5,188.6,858.5,188.6z
						"/>
				</g>
			</g>
		</g>
	</g>
	<g>
		<g>
			<g>
				<g>
					<linearGradient id="SVGID_4_" gradientUnits="userSpaceOnUse" x1="930.2999" y1="398.6367" x2="978.9692" y2="398.6367">
						<stop  offset="1.862220e-02" style="stop-color:#9A8684"/>
						<stop  offset="0.4235" style="stop-color:#D3C5C6"/>
						<stop  offset="0.4999" style="stop-color:#DED1D3"/>
						<stop  offset="0.5991" style="stop-color:#D1C0C0"/>
						<stop  offset="0.7129" style="stop-color:#C7B4B1"/>
						<stop  offset="0.8064" style="stop-color:#C4AFAC"/>
						<stop  offset="0.8566" style="stop-color:#B8A19E"/>
						<stop  offset="0.9516" style="stop-color:#977E78"/>
						<stop  offset="0.9972" style="stop-color:#866B64"/>
					</linearGradient>
					<path fill="url(#SVGID_4_)" d="M954.6,374.3c0,0-2.4,9.6-6.9,17.4c-7.8,4.5-17.4,6.9-17.4,6.9s9.6,2.4,17.4,6.9
						c4.5,7.8,6.9,17.4,6.9,17.4s2.4-9.6,6.9-17.4c7.8-4.5,17.4-6.9,17.4-6.9s-9.6-2.4-17.4-6.9
						C957.1,383.9,954.6,374.3,954.6,374.3z"/>
				</g>
			</g>
		</g>
	</g>
	<g>
		<g>
			<g>
				<g>
					<linearGradient id="SVGID_5_" gradientUnits="userSpaceOnUse" x1="921.673" y1="605.8992" x2="970.3429" y2="605.8992">
						<stop  offset="1.862220e-02" style="stop-color:#9A8684"/>
						<stop  offset="0.4235" style="stop-color:#D3C5C6"/>
						<stop  offset="0.4999" style="stop-color:#DED1D3"/>
						<stop  offset="0.5991" style="stop-color:#D1C0C0"/>
						<stop  offset="0.7129" style="stop-color:#C7B4B1"/>
						<stop  offset="0.8064" style="stop-color:#C4AFAC"/>
						<stop  offset="0.8566" style="stop-color:#B8A19E"/>
						<stop  offset="0.9516" style="stop-color:#977E78"/>
						<stop  offset="0.9972" style="stop-color:#866B64"/>
					</linearGradient>
					<path fill="url(#SVGID_5_)" d="M946,581.6c0,0-2.4,9.6-6.9,17.4c-7.8,4.5-17.4,6.9-17.4,6.9s9.6,2.4,17.4,6.9
						c4.5,7.8,6.9,17.4,6.9,17.4s2.4-9.6,6.9-17.4c7.8-4.5,17.4-6.9,17.4-6.9s-9.6-2.4-17.4-6.9C948.4,591.1,946,581.6,946,581.6z"
						/>
				</g>
			</g>
		</g>
	</g>
	<g>
		<g>
			<g>
				<g>
					<linearGradient id="SVGID_6_" gradientUnits="userSpaceOnUse" x1="834.2061" y1="791.5504" x2="882.8754" y2="791.5504">
						<stop  offset="1.862220e-02" style="stop-color:#9A8684"/>
						<stop  offset="0.4235" style="stop-color:#D3C5C6"/>
						<stop  offset="0.4999" style="stop-color:#DED1D3"/>
						<stop  offset="0.5991" style="stop-color:#D1C0C0"/>
						<stop  offset="0.7129" style="stop-color:#C7B4B1"/>
						<stop  offset="0.8064" style="stop-color:#C4AFAC"/>
						<stop  offset="0.8566" style="stop-color:#B8A19E"/>
						<stop  offset="0.9516" style="stop-color:#977E78"/>
						<stop  offset="0.9972" style="stop-color:#866B64"/>
					</linearGradient>
					<path fill="url(#SVGID_6_)" d="M858.5,767.2c0,0-2.4,9.6-6.9,17.4c-7.8,4.5-17.4,6.9-17.4,6.9s9.6,2.4,17.4,6.9
						c4.5,7.8,6.9,17.4,6.9,17.4s2.4-9.6,6.9-17.4c7.8-4.5,17.4-6.9,17.4-6.9s-9.6-2.4-17.4-6.9C861,776.8,858.5,767.2,858.5,767.2z
						"/>
				</g>
			</g>
		</g>
	</g>
	<g>
		<g>
			<g>
				<g>
					<linearGradient id="SVGID_7_" gradientUnits="userSpaceOnUse" x1="678.4369" y1="926.0643" x2="727.1061" y2="926.0643">
						<stop  offset="1.862220e-02" style="stop-color:#9A8684"/>
						<stop  offset="0.4235" style="stop-color:#D3C5C6"/>
						<stop  offset="0.4999" style="stop-color:#DED1D3"/>
						<stop  offset="0.5991" style="stop-color:#D1C0C0"/>
						<stop  offset="0.7129" style="stop-color:#C7B4B1"/>
						<stop  offset="0.8064" style="stop-color:#C4AFAC"/>
						<stop  offset="0.8566" style="stop-color:#B8A19E"/>
						<stop  offset="0.9516" style="stop-color:#977E78"/>
						<stop  offset="0.9972" style="stop-color:#866B64"/>
					</linearGradient>
					<path fill="url(#SVGID_7_)" d="M702.8,901.7c0,0-2.4,9.6-6.9,17.4c-7.8,4.5-17.4,6.9-17.4,6.9s9.6,2.4,17.4,6.9
						c4.5,7.8,6.9,17.4,6.9,17.4s2.4-9.6,6.9-17.4c7.8-4.5,17.4-6.9,17.4-6.9s-9.6-2.4-17.4-6.9
						C705.2,911.3,702.8,901.7,702.8,901.7z"/>
				</g>
			</g>
		</g>
	</g>
	<g>
		<g>
			<g>
				<g>
					<linearGradient id="SVGID_8_" gradientUnits="userSpaceOnUse" x1="471.3522" y1="970.6653" x2="520.0215" y2="970.6653">
						<stop  offset="1.862220e-02" style="stop-color:#9A8684"/>
						<stop  offset="0.4235" style="stop-color:#D3C5C6"/>
						<stop  offset="0.4999" style="stop-color:#DED1D3"/>
						<stop  offset="0.5991" style="stop-color:#D1C0C0"/>
						<stop  offset="0.7129" style="stop-color:#C7B4B1"/>
						<stop  offset="0.8064" style="stop-color:#C4AFAC"/>
						<stop  offset="0.8566" style="stop-color:#B8A19E"/>
						<stop  offset="0.9516" style="stop-color:#977E78"/>
						<stop  offset="0.9972" style="stop-color:#866B64"/>
					</linearGradient>
					<path fill="url(#SVGID_8_)" d="M495.7,946.3c0,0-2.4,9.6-6.9,17.4c-7.8,4.5-17.4,6.9-17.4,6.9s9.6,2.4,17.4,6.9
						c4.5,7.8,6.9,17.4,6.9,17.4s2.4-9.6,6.9-17.4c7.8-4.5,17.4-6.9,17.4-6.9s-9.6-2.4-17.4-6.9
						C498.1,955.9,495.7,946.3,495.7,946.3z"/>
				</g>
			</g>
		</g>
	</g>
	<g>
		<g>
			<g>
				<g>
					<linearGradient id="SVGID_9_" gradientUnits="userSpaceOnUse" x1="272.983" y1="919.4388" x2="321.6523" y2="919.4388">
						<stop  offset="1.862220e-02" style="stop-color:#9A8684"/>
						<stop  offset="0.4235" style="stop-color:#D3C5C6"/>
						<stop  offset="0.4999" style="stop-color:#DED1D3"/>
						<stop  offset="0.5991" style="stop-color:#D1C0C0"/>
						<stop  offset="0.7129" style="stop-color:#C7B4B1"/>
						<stop  offset="0.8064" style="stop-color:#C4AFAC"/>
						<stop  offset="0.8566" style="stop-color:#B8A19E"/>
						<stop  offset="0.9516" style="stop-color:#977E78"/>
						<stop  offset="0.9972" style="stop-color:#866B64"/>
					</linearGradient>
					<path fill="url(#SVGID_9_)" d="M297.3,895.1c0,0-2.4,9.6-6.9,17.4c-7.8,4.5-17.4,6.9-17.4,6.9s9.6,2.4,17.4,6.9
						c4.5,7.8,6.9,17.4,6.9,17.4s2.4-9.6,6.9-17.4c7.8-4.5,17.4-6.9,17.4-6.9s-9.6-2.4-17.4-6.9
						C299.8,904.7,297.3,895.1,297.3,895.1z"/>
				</g>
			</g>
		</g>
	</g>
	<g>
		<g>
			<g>
				<g>
					<linearGradient id="SVGID_10_" gradientUnits="userSpaceOnUse" x1="114.946" y1="787.1039" x2="163.6152" y2="787.1039">
						<stop  offset="1.862220e-02" style="stop-color:#9A8684"/>
						<stop  offset="0.4235" style="stop-color:#D3C5C6"/>
						<stop  offset="0.4999" style="stop-color:#DED1D3"/>
						<stop  offset="0.5991" style="stop-color:#D1C0C0"/>
						<stop  offset="0.7129" style="stop-color:#C7B4B1"/>
						<stop  offset="0.8064" style="stop-color:#C4AFAC"/>
						<stop  offset="0.8566" style="stop-color:#B8A19E"/>
						<stop  offset="0.9516" style="stop-color:#977E78"/>
						<stop  offset="0.9972" style="stop-color:#866B64"/>
					</linearGradient>
					<path fill="url(#SVGID_10_)" d="M139.3,762.8c0,0-2.4,9.6-6.9,17.4c-7.8,4.5-17.4,6.9-17.4,6.9s9.6,2.4,17.4,6.9
						c4.5,7.8,6.9,17.4,6.9,17.4s2.4-9.6,6.9-17.4c7.8-4.5,17.4-6.9,17.4-6.9s-9.6-2.4-17.4-6.9
						C141.7,772.4,139.3,762.8,139.3,762.8z"/>
				</g>
			</g>
		</g>
	</g>
	<g>
		<g>
			<g>
				<g>
					<linearGradient id="SVGID_11_" gradientUnits="userSpaceOnUse" x1="21.0308" y1="601.6306" x2="69.7001" y2="601.6306">
						<stop  offset="1.862220e-02" style="stop-color:#9A8684"/>
						<stop  offset="0.4235" style="stop-color:#D3C5C6"/>
						<stop  offset="0.4999" style="stop-color:#DED1D3"/>
						<stop  offset="0.5991" style="stop-color:#D1C0C0"/>
						<stop  offset="0.7129" style="stop-color:#C7B4B1"/>
						<stop  offset="0.8064" style="stop-color:#C4AFAC"/>
						<stop  offset="0.8566" style="stop-color:#B8A19E"/>
						<stop  offset="0.9516" style="stop-color:#977E78"/>
						<stop  offset="0.9972" style="stop-color:#866B64"/>
					</linearGradient>
					<path fill="url(#SVGID_11_)" d="M45.4,577.3c0,0-2.4,9.6-6.9,17.4c-7.8,4.5-17.4,6.9-17.4,6.9s9.6,2.4,17.4,6.9
						c4.5,7.8,6.9,17.4,6.9,17.4s2.4-9.6,6.9-17.4c7.8-4.5,17.4-6.9,17.4-6.9s-9.6-2.4-17.4-6.9C47.8,586.9,45.4,577.3,45.4,577.3z"
						/>
				</g>
			</g>
		</g>
	</g>
	<g>
		<g>
			<g>
				<g>
					<linearGradient id="SVGID_12_" gradientUnits="userSpaceOnUse" x1="23.1204" y1="394.7235" x2="71.7903" y2="394.7235">
						<stop  offset="1.862220e-02" style="stop-color:#9A8684"/>
						<stop  offset="0.4235" style="stop-color:#D3C5C6"/>
						<stop  offset="0.4999" style="stop-color:#DED1D3"/>
						<stop  offset="0.5991" style="stop-color:#D1C0C0"/>
						<stop  offset="0.7129" style="stop-color:#C7B4B1"/>
						<stop  offset="0.8064" style="stop-color:#C4AFAC"/>
						<stop  offset="0.8566" style="stop-color:#B8A19E"/>
						<stop  offset="0.9516" style="stop-color:#977E78"/>
						<stop  offset="0.9972" style="stop-color:#866B64"/>
					</linearGradient>
					<path fill="url(#SVGID_12_)" d="M47.5,370.4c0,0-2.4,9.6-6.9,17.4c-7.8,4.5-17.4,6.9-17.4,6.9s9.6,2.4,17.4,6.9
						c4.5,7.8,6.9,17.4,6.9,17.4s2.4-9.6,6.9-17.4c7.8-4.5,17.4-6.9,17.4-6.9s-9.6-2.4-17.4-6.9C49.9,380,47.5,370.4,47.5,370.4z"/>
				</g>
			</g>
		</g>
	</g>
	<g>
		<g>
			<g>
				<g>
					<linearGradient id="SVGID_13_" gradientUnits="userSpaceOnUse" x1="114.946" y1="215.1641" x2="163.6152" y2="215.1641">
						<stop  offset="1.862220e-02" style="stop-color:#9A8684"/>
						<stop  offset="0.4235" style="stop-color:#D3C5C6"/>
						<stop  offset="0.4999" style="stop-color:#DED1D3"/>
						<stop  offset="0.5991" style="stop-color:#D1C0C0"/>
						<stop  offset="0.7129" style="stop-color:#C7B4B1"/>
						<stop  offset="0.8064" style="stop-color:#C4AFAC"/>
						<stop  offset="0.8566" style="stop-color:#B8A19E"/>
						<stop  offset="0.9516" style="stop-color:#977E78"/>
						<stop  offset="0.9972" style="stop-color:#866B64"/>
					</linearGradient>
					<path fill="url(#SVGID_13_)" d="M139.3,190.8c0,0-2.4,9.6-6.9,17.4c-7.8,4.5-17.4,6.9-17.4,6.9s9.6,2.4,17.4,6.9
						c4.5,7.8,6.9,17.4,6.9,17.4s2.4-9.6,6.9-17.4c7.8-4.5,17.4-6.9,17.4-6.9s-9.6-2.4-17.4-6.9
						C141.7,200.4,139.3,190.8,139.3,190.8z"/>
				</g>
			</g>
		</g>
	</g>
	<g>
		<g>
			<g>
				<g>
					<linearGradient id="SVGID_14_" gradientUnits="userSpaceOnUse" x1="270.7596" y1="78.4712" x2="319.4288" y2="78.4712">
						<stop  offset="1.862220e-02" style="stop-color:#9A8684"/>
						<stop  offset="0.4235" style="stop-color:#D3C5C6"/>
						<stop  offset="0.4999" style="stop-color:#DED1D3"/>
						<stop  offset="0.5991" style="stop-color:#D1C0C0"/>
						<stop  offset="0.7129" style="stop-color:#C7B4B1"/>
						<stop  offset="0.8064" style="stop-color:#C4AFAC"/>
						<stop  offset="0.8566" style="stop-color:#B8A19E"/>
						<stop  offset="0.9516" style="stop-color:#977E78"/>
						<stop  offset="0.9972" style="stop-color:#866B64"/>
					</linearGradient>
					<path fill="url(#SVGID_14_)" d="M295.1,54.1c0,0-2.4,9.6-6.9,17.4c-7.8,4.5-17.4,6.9-17.4,6.9s9.6,2.4,17.4,6.9
						c4.5,7.8,6.9,17.4,6.9,17.4s2.4-9.6,6.9-17.4c7.8-4.5,17.4-6.9,17.4-6.9s-9.6-2.4-17.4-6.9C297.5,63.7,295.1,54.1,295.1,54.1z"
						/>
				</g>
			</g>
		</g>
	</g>
</g>
</svg>
