<?xml version="1.0" encoding="utf-8"?>
<!-- Generator: Adobe Illustrator 21.1.0, SVG Export Plug-In . SVG Version: 6.00 Build 0)  -->
<svg version="1.1" id="Layer_1" xmlns="http://www.w3.org/2000/svg" xmlns:xlink="http://www.w3.org/1999/xlink" x="0px" y="0px"
	 viewBox="0 0 1000 1000" enable-background="new 0 0 1000 1000" xml:space="preserve">
<g>
	<g>
		<g>
			<g>
				<g>
					<g>
						<g>
							<linearGradient id="SVGID_1_" gradientUnits="userSpaceOnUse" x1="749.6456" y1="68.1507" x2="761.3379" y2="68.1507">
								<stop  offset="1.862220e-02" style="stop-color:#9A8684"/>
								<stop  offset="0.4235" style="stop-color:#D3C5C6"/>
								<stop  offset="0.4999" style="stop-color:#DED1D3"/>
								<stop  offset="0.5991" style="stop-color:#D1C0C0"/>
								<stop  offset="0.7129" style="stop-color:#C7B4B1"/>
								<stop  offset="0.8064" style="stop-color:#C4AFAC"/>
								<stop  offset="0.8566" style="stop-color:#B8A19E"/>
								<stop  offset="0.9516" style="stop-color:#977E78"/>
								<stop  offset="0.9972" style="stop-color:#866B64"/>
							</linearGradient>
							<path fill="url(#SVGID_1_)" d="M755.6,74.1c-3-0.1-5.9-2.9-6-5.9c-0.1-2.9,3-5.9,6-5.9c2.8,0,5.8,3.1,5.7,6.2
								C761.3,71.1,758.5,74.4,755.6,74.1z"/>
						</g>
					</g>
				</g>
			</g>
			<g>
				<g>
					<g>
						<g>
							<linearGradient id="SVGID_2_" gradientUnits="userSpaceOnUse" x1="749.6456" y1="103.7921" x2="761.3379" y2="103.7921">
								<stop  offset="1.862220e-02" style="stop-color:#9A8684"/>
								<stop  offset="0.4235" style="stop-color:#D3C5C6"/>
								<stop  offset="0.4999" style="stop-color:#DED1D3"/>
								<stop  offset="0.5991" style="stop-color:#D1C0C0"/>
								<stop  offset="0.7129" style="stop-color:#C7B4B1"/>
								<stop  offset="0.8064" style="stop-color:#C4AFAC"/>
								<stop  offset="0.8566" style="stop-color:#B8A19E"/>
								<stop  offset="0.9516" style="stop-color:#977E78"/>
								<stop  offset="0.9972" style="stop-color:#866B64"/>
							</linearGradient>
							<path fill="url(#SVGID_2_)" d="M755.6,109.7c-3-0.1-5.9-2.9-6-5.9c-0.1-2.9,3-5.9,6-5.9c2.8,0,5.8,3.1,5.7,6.2
								C761.3,106.8,758.5,110.1,755.6,109.7z"/>
						</g>
					</g>
				</g>
			</g>
			<g>
				<g>
					<g>
						<g>
							<linearGradient id="SVGID_3_" gradientUnits="userSpaceOnUse" x1="749.6456" y1="139.4338" x2="761.3379" y2="139.4338">
								<stop  offset="1.862220e-02" style="stop-color:#9A8684"/>
								<stop  offset="0.4235" style="stop-color:#D3C5C6"/>
								<stop  offset="0.4999" style="stop-color:#DED1D3"/>
								<stop  offset="0.5991" style="stop-color:#D1C0C0"/>
								<stop  offset="0.7129" style="stop-color:#C7B4B1"/>
								<stop  offset="0.8064" style="stop-color:#C4AFAC"/>
								<stop  offset="0.8566" style="stop-color:#B8A19E"/>
								<stop  offset="0.9516" style="stop-color:#977E78"/>
								<stop  offset="0.9972" style="stop-color:#866B64"/>
							</linearGradient>
							<path fill="url(#SVGID_3_)" d="M755.6,145.3c-3-0.1-5.9-2.9-6-5.9c-0.1-2.9,3-5.9,6-5.9c2.8,0,5.8,3.1,5.7,6.2
								C761.3,142.4,758.5,145.7,755.6,145.3z"/>
						</g>
					</g>
				</g>
			</g>
			<g>
				<g>
					<g>
						<g>
							<linearGradient id="SVGID_4_" gradientUnits="userSpaceOnUse" x1="749.6456" y1="175.0757" x2="761.3379" y2="175.0757">
								<stop  offset="1.862220e-02" style="stop-color:#9A8684"/>
								<stop  offset="0.4235" style="stop-color:#D3C5C6"/>
								<stop  offset="0.4999" style="stop-color:#DED1D3"/>
								<stop  offset="0.5991" style="stop-color:#D1C0C0"/>
								<stop  offset="0.7129" style="stop-color:#C7B4B1"/>
								<stop  offset="0.8064" style="stop-color:#C4AFAC"/>
								<stop  offset="0.8566" style="stop-color:#B8A19E"/>
								<stop  offset="0.9516" style="stop-color:#977E78"/>
								<stop  offset="0.9972" style="stop-color:#866B64"/>
							</linearGradient>
							<path fill="url(#SVGID_4_)" d="M755.6,181c-3-0.1-5.9-2.9-6-5.9c-0.1-2.9,3-5.9,6-5.9c2.8,0,5.8,3.1,5.7,6.2
								C761.3,178.1,758.5,181.3,755.6,181z"/>
						</g>
					</g>
				</g>
			</g>
			<g>
				<g>
					<g>
						<g>
							<linearGradient id="SVGID_5_" gradientUnits="userSpaceOnUse" x1="749.6456" y1="210.7175" x2="761.3379" y2="210.7175">
								<stop  offset="1.862220e-02" style="stop-color:#9A8684"/>
								<stop  offset="0.4235" style="stop-color:#D3C5C6"/>
								<stop  offset="0.4999" style="stop-color:#DED1D3"/>
								<stop  offset="0.5991" style="stop-color:#D1C0C0"/>
								<stop  offset="0.7129" style="stop-color:#C7B4B1"/>
								<stop  offset="0.8064" style="stop-color:#C4AFAC"/>
								<stop  offset="0.8566" style="stop-color:#B8A19E"/>
								<stop  offset="0.9516" style="stop-color:#977E78"/>
								<stop  offset="0.9972" style="stop-color:#866B64"/>
							</linearGradient>
							<path fill="url(#SVGID_5_)" d="M755.6,216.6c-3-0.1-5.9-2.9-6-5.9c-0.1-2.9,3-5.9,6-5.9c2.8,0,5.8,3.1,5.7,6.2
								C761.3,213.7,758.5,217,755.6,216.6z"/>
						</g>
					</g>
				</g>
			</g>
			<g>
				<g>
					<g>
						<g>
							<linearGradient id="SVGID_6_" gradientUnits="userSpaceOnUse" x1="749.6456" y1="246.3589" x2="761.3379" y2="246.3589">
								<stop  offset="1.862220e-02" style="stop-color:#9A8684"/>
								<stop  offset="0.4235" style="stop-color:#D3C5C6"/>
								<stop  offset="0.4999" style="stop-color:#DED1D3"/>
								<stop  offset="0.5991" style="stop-color:#D1C0C0"/>
								<stop  offset="0.7129" style="stop-color:#C7B4B1"/>
								<stop  offset="0.8064" style="stop-color:#C4AFAC"/>
								<stop  offset="0.8566" style="stop-color:#B8A19E"/>
								<stop  offset="0.9516" style="stop-color:#977E78"/>
								<stop  offset="0.9972" style="stop-color:#866B64"/>
							</linearGradient>
							<path fill="url(#SVGID_6_)" d="M755.6,252.3c-3-0.1-5.9-2.9-6-5.9c-0.1-2.9,3-5.9,6-5.9c2.8,0,5.8,3.1,5.7,6.2
								C761.3,249.3,758.5,252.6,755.6,252.3z"/>
						</g>
					</g>
				</g>
			</g>
			<g>
				<g>
					<g>
						<g>
							<linearGradient id="SVGID_7_" gradientUnits="userSpaceOnUse" x1="749.6456" y1="282.0008" x2="761.3379" y2="282.0008">
								<stop  offset="1.862220e-02" style="stop-color:#9A8684"/>
								<stop  offset="0.4235" style="stop-color:#D3C5C6"/>
								<stop  offset="0.4999" style="stop-color:#DED1D3"/>
								<stop  offset="0.5991" style="stop-color:#D1C0C0"/>
								<stop  offset="0.7129" style="stop-color:#C7B4B1"/>
								<stop  offset="0.8064" style="stop-color:#C4AFAC"/>
								<stop  offset="0.8566" style="stop-color:#B8A19E"/>
								<stop  offset="0.9516" style="stop-color:#977E78"/>
								<stop  offset="0.9972" style="stop-color:#866B64"/>
							</linearGradient>
							<path fill="url(#SVGID_7_)" d="M755.6,287.9c-3-0.1-5.9-2.9-6-5.9c-0.1-2.9,3-5.9,6-5.9c2.8,0,5.8,3.1,5.7,6.2
								C761.3,285,758.5,288.3,755.6,287.9z"/>
						</g>
					</g>
				</g>
			</g>
			<g>
				<g>
					<g>
						<g>
							<linearGradient id="SVGID_8_" gradientUnits="userSpaceOnUse" x1="749.6456" y1="317.6422" x2="761.3379" y2="317.6422">
								<stop  offset="1.862220e-02" style="stop-color:#9A8684"/>
								<stop  offset="0.4235" style="stop-color:#D3C5C6"/>
								<stop  offset="0.4999" style="stop-color:#DED1D3"/>
								<stop  offset="0.5991" style="stop-color:#D1C0C0"/>
								<stop  offset="0.7129" style="stop-color:#C7B4B1"/>
								<stop  offset="0.8064" style="stop-color:#C4AFAC"/>
								<stop  offset="0.8566" style="stop-color:#B8A19E"/>
								<stop  offset="0.9516" style="stop-color:#977E78"/>
								<stop  offset="0.9972" style="stop-color:#866B64"/>
							</linearGradient>
							<path fill="url(#SVGID_8_)" d="M755.6,323.6c-3-0.1-5.9-2.9-6-5.9c-0.1-2.9,3-5.9,6-5.9c2.8,0,5.8,3.1,5.7,6.2
								C761.3,320.6,758.5,323.9,755.6,323.6z"/>
						</g>
					</g>
				</g>
			</g>
			<g>
				<g>
					<g>
						<g>
							<linearGradient id="SVGID_9_" gradientUnits="userSpaceOnUse" x1="749.6456" y1="353.284" x2="761.3379" y2="353.284">
								<stop  offset="1.862220e-02" style="stop-color:#9A8684"/>
								<stop  offset="0.4235" style="stop-color:#D3C5C6"/>
								<stop  offset="0.4999" style="stop-color:#DED1D3"/>
								<stop  offset="0.5991" style="stop-color:#D1C0C0"/>
								<stop  offset="0.7129" style="stop-color:#C7B4B1"/>
								<stop  offset="0.8064" style="stop-color:#C4AFAC"/>
								<stop  offset="0.8566" style="stop-color:#B8A19E"/>
								<stop  offset="0.9516" style="stop-color:#977E78"/>
								<stop  offset="0.9972" style="stop-color:#866B64"/>
							</linearGradient>
							<path fill="url(#SVGID_9_)" d="M755.6,359.2c-3-0.1-5.9-2.9-6-5.9c-0.1-2.9,3-5.9,6-5.9c2.8,0,5.8,3.1,5.7,6.2
								C761.3,356.3,758.5,359.5,755.6,359.2z"/>
						</g>
					</g>
				</g>
			</g>
		</g>
		<g>
			<g>
				<g>
					<g>
						<linearGradient id="SVGID_10_" gradientUnits="userSpaceOnUse" x1="674.2618" y1="457.2331" x2="840.0218" y2="457.2331">
							<stop  offset="1.862220e-02" style="stop-color:#9A8684"/>
							<stop  offset="0.4235" style="stop-color:#D3C5C6"/>
							<stop  offset="0.4999" style="stop-color:#DED1D3"/>
							<stop  offset="0.5991" style="stop-color:#D1C0C0"/>
							<stop  offset="0.7129" style="stop-color:#C7B4B1"/>
							<stop  offset="0.8064" style="stop-color:#C4AFAC"/>
							<stop  offset="0.8566" style="stop-color:#B8A19E"/>
							<stop  offset="0.9516" style="stop-color:#977E78"/>
							<stop  offset="0.9972" style="stop-color:#866B64"/>
						</linearGradient>
						<path fill="url(#SVGID_10_)" d="M757.1,374.4c0,0-8.3,32.6-23.5,59.4c-26.7,15.2-59.4,23.5-59.4,23.5s32.6,8.3,59.4,23.5
							c15.2,26.7,23.5,59.4,23.5,59.4s8.3-32.6,23.5-59.4c26.7-15.2,59.4-23.5,59.4-23.5s-32.6-8.3-59.4-23.5
							C765.4,407,757.1,374.4,757.1,374.4z"/>
					</g>
				</g>
			</g>
		</g>
	</g>
	<g>
		<g>
			<g>
				<g>
					<linearGradient id="SVGID_11_" gradientUnits="userSpaceOnUse" x1="61.1335" y1="500" x2="938.8665" y2="500">
						<stop  offset="1.862220e-02" style="stop-color:#9A8684"/>
						<stop  offset="0.4235" style="stop-color:#D3C5C6"/>
						<stop  offset="0.4999" style="stop-color:#DED1D3"/>
						<stop  offset="0.5991" style="stop-color:#D1C0C0"/>
						<stop  offset="0.7129" style="stop-color:#C7B4B1"/>
						<stop  offset="0.8064" style="stop-color:#C4AFAC"/>
						<stop  offset="0.8566" style="stop-color:#B8A19E"/>
						<stop  offset="0.9516" style="stop-color:#977E78"/>
						<stop  offset="0.9972" style="stop-color:#866B64"/>
					</linearGradient>
					<path fill="url(#SVGID_11_)" d="M445.4,786.6c-177.5-146.4-202.7-409.1-56.3-586.6C484.6,84.3,629.4,33.4,767.9,52.5
						C567.9-42.4,321.6,6.4,174.3,185c-174,210.9-144,522.9,66.9,696.8c210.9,174,522.9,144,696.8-66.9c0.3-0.4,0.6-0.7,0.9-1.1
						C790.2,911.3,589.7,905.7,445.4,786.6z M281.6,117.4c0.2,0.1,16.6,8.3,32.7,12.3c3.6-1.1,7.3-2.6,11.2-4.3l11-4.4
						c6.2-2.6,10.3-4.8,10.3-4.8l9.4-4.9l-5.9,8.8c0,0-2.6,3.9-5.8,9.7l-0.9,1.7c-1.4,2.5-2.8,5.1-3.9,8.1c-1.4,4-2.6,7.7-3.5,11.2
						c5,15.7,15.1,30.4,15.2,30.5l6.9,9.9l-10.5-6c-0.2-0.1-15.8-9-31.9-12.7c-14.8,5.7-29.4,16.6-29.5,16.7l-8.5,6.4l4.4-9.7
						c0.1-0.2,7.4-16.5,10.6-33.4c-5.3-15.6-14.8-31.2-14.9-31.3l-5-8.1L281.6,117.4z M224.8,263.2c1.3-2.6,3.6-4.5,6.3-5.4
						c2.7-0.9,5.6-0.6,8.1,0.7c5.2,2.8,7.3,9.2,4.7,14.4c-1.9,3.7-5.6,5.8-9.6,5.8c-1.6,0-3.2-0.4-4.8-1.1c-2.5-1.3-4.5-3.4-5.4-6.1
						C223.2,268.8,223.5,265.8,224.8,263.2z M138.3,358.6l9.6,0c0.2,0,18.4-0.1,34.5-3.9c6.4-6.5,12.2-12.9,15.8-17.6
						c4.2-5.3,6.7-9.2,6.8-9.2l5.9-8.8l-0.9,10.6c0,0-0.4,4.7-0.4,11.3c0.1,6.9,0.2,14.9,2.1,22.6c11.7,11.8,27.5,20.3,27.6,20.4
						l10.5,5.7l-11.9-0.6c-0.2,0-18.1-0.8-34.2,3.2c-5.3,5.2-9.3,11.7-12.6,16.9l-0.8,1.4c-3.4,5.6-5.4,9.9-5.5,9.9l-4.6,9.5
						l-0.5-10.6c0,0-0.2-4.7-1.1-11.3c-0.7-6.5-2.6-15.4-4.4-23.3c-11.8-11.5-27.4-21-27.6-21.1L138.3,358.6z M185.7,513.9
						L185.7,513.9c-0.1,5.9-4.4,10.7-10.1,11.1c-0.3,0-0.5,0-0.8,0c-2.7,0-5.3-1-7.3-2.9c-2.1-2-3.2-4.6-3.2-7.5
						c-0.1-5.9,4.6-10.9,10.5-11c3.1,0,5.6,1,7.7,3C184.5,508.6,185.6,511.2,185.7,513.9z M246,607.6c-0.1,0.1-14.4,10.7-24,23.8
						c-0.6,8.2-0.2,16.5,1,22.6c1.1,6.5,2.3,11.1,2.3,11.1l2.7,10.2l-7.3-7.7c0,0-3.2-3.4-8.2-7.9c-1.5-1.3-3.2-2.8-5-4.4
						c-3.9-3.5-8.3-7.5-13.1-10.9c-16.7-1.3-35,1.2-35.2,1.2l-9.3,1.3l7.2-6c0.1-0.1,14.3-12,24.7-25.2c0.7-5.6,0.8-11.3,1-16.4
						c0.1-2.6,0.1-5.2,0.3-7.5c0.2-6.7-0.1-11.3-0.1-11.3l-0.6-10.6l5.6,9c0,0,2.5,4.1,6.4,9.3c3.6,5.2,9.5,11.3,15.7,16.1
						c16.2,1.8,33.6-1.6,33.8-1.6l12-2.4L246,607.6z M283.4,752.9c-1.9,1.6-4.3,2.5-6.7,2.5c-0.3,0-0.7,0-1-0.1
						c-2.9-0.3-5.5-1.7-7.3-4c-1.8-2.3-2.7-5.1-2.3-8c0.3-2.8,1.7-5.4,4-7.1c4.6-3.6,11.4-2.9,15,1.6
						C288.6,742.4,287.9,749.1,283.4,752.9z M389.9,854.9c-0.8-0.3-1.8-0.5-2.8-0.8c-1.6-0.4-3.4-0.9-5.3-1.6
						c-5.6-1.8-14.1-4.3-22.8-5.6c-6.4,2.6-13.5,6.2-21.1,10.8c-5.8,3.4-9.6,6.1-9.6,6.1l-7.9,5.5l3.9-8.8c0.1-0.2,7.5-17,10.7-33.4
						c-2-5.6-4.7-10.9-7.2-15.7c-1-2-2-4-2.9-5.8c-3-6-5.4-10-5.5-10l-5.5-9.1l9.2,5.3c0,0,4.1,2.4,10,5.2c5.4,2.7,13.4,5.2,21.7,7
						c15.3-5.8,29.5-16.6,29.6-16.7l9.4-7.2l-5.3,10.6c0,0-2.1,4.2-4.5,10.4c-2.1,5.4-4.8,13.5-6.2,21.8c3.2,7.6,7.8,15.1,11.1,20
						c1.3,2.1,2.7,3.6,3.7,4.9l9.6,11.1L389.9,854.9z M487.8,902.3c-1.6,4.3-5.8,7-10.2,7c-1.2,0-2.5-0.2-3.7-0.6
						c-2.7-1.1-4.8-3.1-5.9-5.8c-1.1-2.7-1.1-5.8,0-8.4c2.3-5.3,8.3-7.8,13.7-5.7c2.6,0.9,4.7,2.8,5.8,5.3
						C488.7,896.7,488.8,899.6,487.8,902.3z"/>
				</g>
			</g>
		</g>
	</g>
</g>
</svg>
