<?xml version="1.0" encoding="utf-8"?>
<!-- Generator: Adobe Illustrator 21.1.0, SVG Export Plug-In . SVG Version: 6.00 Build 0)  -->
<svg version="1.1" id="Layer_1" xmlns="http://www.w3.org/2000/svg" xmlns:xlink="http://www.w3.org/1999/xlink" x="0px" y="0px"
	 viewBox="0 0 1000 1000" enable-background="new 0 0 1000 1000" xml:space="preserve">
<g>
	<g>
		<g>
			<g>
				<g>
					<linearGradient id="SVGID_1_" gradientUnits="userSpaceOnUse" x1="459.4041" y1="387.7221" x2="541.9036" y2="387.7221">
						<stop  offset="1.862220e-02" style="stop-color:#9A8684"/>
						<stop  offset="0.4235" style="stop-color:#D3C5C6"/>
						<stop  offset="0.4999" style="stop-color:#DED1D3"/>
						<stop  offset="0.5991" style="stop-color:#D1C0C0"/>
						<stop  offset="0.7129" style="stop-color:#C7B4B1"/>
						<stop  offset="0.8064" style="stop-color:#C4AFAC"/>
						<stop  offset="0.8566" style="stop-color:#B8A19E"/>
						<stop  offset="0.9516" style="stop-color:#977E78"/>
						<stop  offset="0.9972" style="stop-color:#866B64"/>
					</linearGradient>
					<path fill="url(#SVGID_1_)" d="M541.7,389.9c-1.1,11.3-6.5,21.2-14,28c-7.6,7.1-17.2,11-27.7,10.9c-5.2-0.2-10.3-1.2-14.9-3.2
						c-4.6-2.1-8.9-4.9-12.5-8.5c-7.3-7.2-12.5-17.2-13.1-28.5c-0.7-11.4,3.4-21.9,11-29.6c3.8-3.9,8.4-7.1,13.6-9.2
						c5.2-2.1,11-3.5,17.2-3.2c12.3,0.1,23.2,5.5,30.5,13.3C539,368,542.8,378.6,541.7,389.9z"/>
				</g>
			</g>
		</g>
		<g>
			<g>
				<g>
					<linearGradient id="SVGID_2_" gradientUnits="userSpaceOnUse" x1="457.7838" y1="387.7228" x2="543.5242" y2="387.7228">
						<stop  offset="1.862220e-02" style="stop-color:#9A8684"/>
						<stop  offset="0.4235" style="stop-color:#D3C5C6"/>
						<stop  offset="0.4999" style="stop-color:#DED1D3"/>
						<stop  offset="0.5991" style="stop-color:#D1C0C0"/>
						<stop  offset="0.7129" style="stop-color:#C7B4B1"/>
						<stop  offset="0.8064" style="stop-color:#C4AFAC"/>
						<stop  offset="0.8566" style="stop-color:#B8A19E"/>
						<stop  offset="0.9516" style="stop-color:#977E78"/>
						<stop  offset="0.9972" style="stop-color:#866B64"/>
					</linearGradient>
					<path fill="url(#SVGID_2_)" d="M500.4,430.5c-0.1,0-0.2,0-0.3,0c-5.8-0.2-11-1.4-15.5-3.4c-4.9-2.2-9.3-5.2-13-8.8
						c-8.1-8-13-18.5-13.6-29.6c-0.7-11.7,3.4-22.6,11.4-30.9c4-4.2,8.9-7.5,14.2-9.6c6-2.4,12-3.5,17.8-3.4
						c12,0.1,23.6,5.1,31.6,13.8c7.8,8.6,11.5,19.7,10.4,31.3c-1,11.2-6.2,21.5-14.6,29.1C520.9,426.5,510.8,430.5,500.4,430.5z
						 M500,348.2c-5,0-10.2,1.1-15.4,3.1c-4.8,1.9-9.3,5-13.1,8.8c-7.4,7.6-11.1,17.7-10.5,28.4c0.6,10.3,5.1,20.1,12.7,27.5
						c3.5,3.4,7.5,6.1,12.1,8.2c4.1,1.8,8.9,2.9,14.3,3.1c9.8,0.1,19-3.6,26.5-10.5c7.8-7,12.6-16.6,13.5-27l0,0
						c1-10.7-2.4-20.9-9.6-28.8c-7.4-8-18.1-12.7-29.3-12.8C500.8,348.2,500.4,348.2,500,348.2z"/>
				</g>
			</g>
		</g>
	</g>
	<g>
		<g>
			<g>
				<g>
					<linearGradient id="SVGID_3_" gradientUnits="userSpaceOnUse" x1="788.3289" y1="493.421" x2="873.9394" y2="493.421">
						<stop  offset="1.862220e-02" style="stop-color:#9A8684"/>
						<stop  offset="0.4235" style="stop-color:#D3C5C6"/>
						<stop  offset="0.4999" style="stop-color:#DED1D3"/>
						<stop  offset="0.5991" style="stop-color:#D1C0C0"/>
						<stop  offset="0.7129" style="stop-color:#C7B4B1"/>
						<stop  offset="0.8064" style="stop-color:#C4AFAC"/>
						<stop  offset="0.8566" style="stop-color:#B8A19E"/>
						<stop  offset="0.9516" style="stop-color:#977E78"/>
						<stop  offset="0.9972" style="stop-color:#866B64"/>
					</linearGradient>
					<path fill="url(#SVGID_3_)" d="M873.4,487.7c-0.5-3.7-1.7-7.3-3.2-10.7l-1.2-2.7c-0.3-0.5-0.6-0.9-0.9-1.4
						c-0.5-0.8-1-1.6-1.5-2.4c-0.3-0.5-0.7-1-1.1-1.5c-0.7-0.9-1.3-1.7-2.1-2.6c-0.4-0.5-0.8-0.9-1.2-1.4c-0.7-0.8-1.5-1.5-2.2-2.2
						c-0.5-0.5-0.9-0.9-1.4-1.4c-1.2-1.1-2.5-2.1-3.8-3c-5.2-3.5-10.7-5.8-16.7-7.1c-5.8-1.1-11.5-1-17.1,0.1
						c-11.1,2.2-20.8,9.3-26.7,19.4c-5.6,9.6-7.4,20.7-5.1,32.1c1.1,5.3,3.1,10.2,6,14.5c2.9,4.6,6.6,8.5,11,11.4
						c1.2,0.8,2.4,1.6,3.7,2.3c0.2,0.1,0.5,0.2,0.7,0.4c1.2,0.6,2.4,1.2,3.7,1.7c0.3,0.1,0.7,0.2,1,0.3c0.9,0.3,1.9,0.6,2.9,0.9
						c0.4,0.1,0.9,0.2,1.3,0.4c1.6,0.4,3.2,0.7,4.8,0.8l1.9,0.2l0,0c1.1,0.1,2.2,0.1,3.3,0.1c2.3,0,4.6-0.2,6.9-0.5
						c5.3-0.8,10.5-2.6,15.3-5.3c5-2.8,9.4-6.4,13-10.8c3.7-4.5,6.3-9.7,7.8-15.2C874,498.9,874.3,493.4,873.4,487.7z M837.5,454.6
						c5.5,1.2,10.7,3.4,15.5,6.6c4.6,3.1,8.5,7.3,11.6,12c-0.2,0-0.4,0-0.7,0c-13.2,0-26.3,7.3-34.7,19.6
						c-8.2,12.1-11.2,27.1-7.8,39.2c-4.7-0.9-9.2-2.9-13.3-5.7c-4.1-2.7-7.5-6.2-10.1-10.5c-2.6-4-4.5-8.5-5.5-13.4
						c-1.5-7.4-1.9-18.6,4.7-29.9c5.4-9.3,14.4-15.8,24.5-17.8c2.7-0.6,5.4-0.8,8.1-0.8C832.4,453.9,835,454.2,837.5,454.6z"/>
				</g>
			</g>
		</g>
	</g>
	<g>
		<g>
			<g>
				<g>
					<linearGradient id="SVGID_4_" gradientUnits="userSpaceOnUse" x1="909.466" y1="612.3154" x2="995" y2="612.3154">
						<stop  offset="1.862220e-02" style="stop-color:#9A8684"/>
						<stop  offset="0.4235" style="stop-color:#D3C5C6"/>
						<stop  offset="0.4999" style="stop-color:#DED1D3"/>
						<stop  offset="0.5991" style="stop-color:#D1C0C0"/>
						<stop  offset="0.7129" style="stop-color:#C7B4B1"/>
						<stop  offset="0.8064" style="stop-color:#C4AFAC"/>
						<stop  offset="0.8566" style="stop-color:#B8A19E"/>
						<stop  offset="0.9516" style="stop-color:#977E78"/>
						<stop  offset="0.9972" style="stop-color:#866B64"/>
					</linearGradient>
					<path fill="url(#SVGID_4_)" d="M994.2,606.3c-0.6-3-1.4-5.9-2.6-8.9c-1.2-2.8-2.7-5.6-4.6-8.3l0,0c-0.8-1.2-1.7-2.4-2.6-3.5
						c-0.5-0.6-1-1.1-1.5-1.7c-0.4-0.4-0.8-0.9-1.2-1.3l-0.7-0.8c0,0,0,0,0,0c0,0,0,0,0,0l-5.1-4.2c-0.7-0.5-1.4-1-2.2-1.5
						c-5.4-3.3-10.8-5.4-16.2-6.1c-11.5-1.7-22.8,1.6-31.7,9.1c-8.5,7.2-14.1,17.3-15.7,28.4c-0.8,5.7-0.7,10.9,0.3,15.5
						c0.1,0.5,0.2,1,0.4,1.5l1.9,5.7c0,0,0,0,0,0.1c0,0,0,0,0,0.1l0.3,0.8c0.2,0.5,0.4,0.9,0.7,1.4c0.3,0.6,0.5,1.1,0.8,1.7
						c0.6,1.1,1.2,2.1,1.9,3.1c1.4,2.1,3.1,4.1,5.1,5.9c1.8,1.8,3.8,3.4,5.9,4.8c3.9,2.5,8.7,4.5,14.2,5.9c3.5,0.8,7.1,1.2,10.7,1.2
						c7.5,0,14.9-1.8,21.6-5.3c10.4-5.5,17.5-14.7,20.2-26.1C995.3,618.3,995.4,612.6,994.2,606.3z M972.2,646.9
						c-9.1,4.8-19.8,6.2-30,3.8c-5.2-1.3-9.6-3.1-13.2-5.5c-2-1.3-3.8-2.8-5.4-4.4c-1.4-1.4-2.7-2.7-3.8-4.1
						c1.5,0.9,3.1,1.7,4.8,2.5c4.6,2,8.9,3.1,13.3,3.6c10,1.1,20.2-1,28.6-5.9c9.1-5.3,15.4-13.3,18.2-23.2c1.5-5.1,2-10.4,1.5-15.3
						c-0.2-2-0.6-4-1-6c1.3,2.1,2.4,4.2,3.3,6.3c1.1,2.7,1.9,5.5,2.4,8.2c1.1,5.9,1,11.1-0.2,16.1
						C988.3,633.4,981.7,641.9,972.2,646.9z"/>
				</g>
			</g>
		</g>
	</g>
	<g>
		<g>
			<g>
				<g>
					<linearGradient id="SVGID_5_" gradientUnits="userSpaceOnUse" x1="635.201" y1="418.4212" x2="720.8812" y2="418.4212">
						<stop  offset="1.862220e-02" style="stop-color:#9A8684"/>
						<stop  offset="0.4235" style="stop-color:#D3C5C6"/>
						<stop  offset="0.4999" style="stop-color:#DED1D3"/>
						<stop  offset="0.5991" style="stop-color:#D1C0C0"/>
						<stop  offset="0.7129" style="stop-color:#C7B4B1"/>
						<stop  offset="0.8064" style="stop-color:#C4AFAC"/>
						<stop  offset="0.8566" style="stop-color:#B8A19E"/>
						<stop  offset="0.9516" style="stop-color:#977E78"/>
						<stop  offset="0.9972" style="stop-color:#866B64"/>
					</linearGradient>
					<path fill="url(#SVGID_5_)" d="M717,400.4c-2.1-4.5-5.1-8.6-8.9-12.3l-3.3-3c-0.3-0.2-0.6-0.4-0.8-0.6c-0.5-0.4-0.9-0.7-1.4-1
						c-0.6-0.4-1.2-0.8-1.9-1.2c-0.4-0.2-0.7-0.5-1.1-0.7c-0.2-0.1-0.4-0.2-0.6-0.3c-0.8-0.4-1.6-0.8-2.4-1.2
						c-0.4-0.2-0.8-0.4-1.3-0.6c-1.3-0.6-2.7-1.1-4.1-1.6c-5.9-2-12-2.7-17.9-2.1c-6,0.6-11.5,2.2-16.3,4.8
						c-10.2,5.5-17.4,14.7-20.3,25.9c-2.8,10.9-1.4,22.4,3.9,32.3c2.7,5,6,9.2,9.8,12.4c4.2,3.6,8.9,6.2,13.9,7.9
						c1.2,0.4,2.4,0.7,3.6,1c0.4,0.1,0.8,0.2,1.2,0.2c0.9,0.2,1.8,0.3,2.7,0.4c0.2,0,0.3,0.1,0.5,0.1c0.4,0.1,0.8,0.1,1.3,0.1
						c0.3,0,0.5,0.1,0.8,0.1c1,0.1,2.1,0.1,3.1,0.1c0.1,0,0.2,0,0.3,0c0,0,0,0,0,0c0.1,0,0.1,0,0.2,0l4-0.3c4.5-0.5,9-1.8,13.6-3.9
						c10.2-4.8,18.2-13.2,22.4-23.6C722.2,422.6,721.9,410.9,717,400.4z M639.8,407.3c2.7-10.3,9.3-18.8,18.7-23.9
						c4.4-2.4,9.5-3.9,15.1-4.4c1.2-0.1,2.4-0.2,3.7-0.2c4.3,0,8.6,0.7,12.9,2.2c3.2,1.1,6.1,2.4,8.8,4
						c-16.8,1.6-30.8,12.7-35.7,28.9c-4.6,15.4-0.5,32.5,10.3,43.8c-2.9-0.3-5.7-0.8-8.2-1.7c-4.6-1.6-8.9-4-12.8-7.3
						c-3.5-3-6.5-6.9-9-11.5C638.4,428.1,637.1,417.4,639.8,407.3z"/>
				</g>
			</g>
		</g>
	</g>
	<g>
		<g>
			<g>
				<g>
					<linearGradient id="SVGID_6_" gradientUnits="userSpaceOnUse" x1="128.9439" y1="479.6544" x2="214.6177" y2="479.6544">
						<stop  offset="1.862220e-02" style="stop-color:#9A8684"/>
						<stop  offset="0.4235" style="stop-color:#D3C5C6"/>
						<stop  offset="0.4999" style="stop-color:#DED1D3"/>
						<stop  offset="0.5991" style="stop-color:#D1C0C0"/>
						<stop  offset="0.7129" style="stop-color:#C7B4B1"/>
						<stop  offset="0.8064" style="stop-color:#C4AFAC"/>
						<stop  offset="0.8566" style="stop-color:#B8A19E"/>
						<stop  offset="0.9516" style="stop-color:#977E78"/>
						<stop  offset="0.9972" style="stop-color:#866B64"/>
					</linearGradient>
					<path fill="url(#SVGID_6_)" d="M214.3,474.3c-0.7-5.7-2.4-11.2-5.1-16.1c-2.1-3.9-4.7-7.3-7.8-10.2c-1-1-2.1-1.9-3.2-2.8
						c-4.4-3.4-9.5-5.8-15-7.1c-2.8-0.7-5.7-1.1-8.6-1.2c-8.7-0.2-17.7,2.4-25.6,7.5c0,0,0,0,0,0c0,0,0,0,0,0
						c-1.1,0.8-2.2,1.6-3.2,2.4c-0.3,0.3-0.7,0.5-1,0.8c-1,0.8-1.9,1.7-2.8,2.5c-0.2,0.2-0.4,0.4-0.6,0.6c-1.9,1.9-3.5,3.9-4.9,6
						c-0.2,0.2-0.4,0.4-0.5,0.7c-0.1,0.1-0.2,0.3-0.3,0.4c-0.5,0.7-0.9,1.5-1.3,2.3l-0.6,1c0,0,0,0.1-0.1,0.1l-0.7,1.5
						c-1.6,3.4-2.8,7-3.4,10.7c-1,5.4-0.8,11.2,0.7,16.7c1.4,5.5,4,10.6,7.7,15.2c3.5,4.4,7.9,8.1,12.9,10.9
						c4.6,2.6,9.6,4.4,15.1,5.4c2.6,0.5,5.2,0.7,7.7,0.7c0.9,0,2.5,0,2.5,0l2.7-0.4c0.3,0,0.5-0.1,0.8-0.2c0.6-0.1,1.2-0.2,1.8-0.3
						c0.5-0.1,1-0.2,1.4-0.3c0.4-0.1,0.9-0.2,1.3-0.3c1.1-0.3,2.3-0.6,3.3-1c0.3-0.1,0.6-0.2,0.9-0.3c1-0.4,1.9-0.8,2.8-1.2
						c0.4-0.2,0.8-0.4,1.2-0.6c1.2-0.6,2.4-1.3,3.5-2.1c8.5-5.5,14.7-14.5,17.4-25.4C214.6,485.2,214.9,479.7,214.3,474.3z
						 M210.2,489.7c-0.3,1.3-0.7,2.5-1.1,3.7c-2.9,8.4-8.1,15.3-14.9,19.8c-3.6,2.5-8.1,4.3-13.2,5.3c3.5-12.2,0.8-27-7.2-39.2
						c-8.4-12.9-21.6-20.5-35.1-20.2c2.9-4.4,6.9-8.5,12-11.9c9.7-6.3,21.3-8.5,31.7-5.9c5.1,1.2,9.8,3.4,13.8,6.5
						c4.2,3.2,7.6,7.2,10.2,12c2.5,4.6,4.1,9.7,4.7,15C211.7,479.7,211.4,484.8,210.2,489.7z"/>
				</g>
			</g>
		</g>
	</g>
	<g>
		<g>
			<g>
				<g>
					<linearGradient id="SVGID_7_" gradientUnits="userSpaceOnUse" x1="5" y1="609.9585" x2="90.4948" y2="609.9585">
						<stop  offset="1.862220e-02" style="stop-color:#9A8684"/>
						<stop  offset="0.4235" style="stop-color:#D3C5C6"/>
						<stop  offset="0.4999" style="stop-color:#DED1D3"/>
						<stop  offset="0.5991" style="stop-color:#D1C0C0"/>
						<stop  offset="0.7129" style="stop-color:#C7B4B1"/>
						<stop  offset="0.8064" style="stop-color:#C4AFAC"/>
						<stop  offset="0.8566" style="stop-color:#B8A19E"/>
						<stop  offset="0.9516" style="stop-color:#977E78"/>
						<stop  offset="0.9972" style="stop-color:#866B64"/>
					</linearGradient>
					<path fill="url(#SVGID_7_)" d="M88.5,625.1l1.5-6.6c0.1-0.5,0.2-1,0.2-1.5c0.5-4.5,0.1-9.6-1.2-15.2c-2.6-10.9-9-20.5-17.9-27
						c-9.5-6.9-21-9.2-32.4-6.6c-5.4,1.2-10.5,3.8-15.8,7.7c-0.7,0.5-1.4,1.1-2.1,1.7l-4.7,4.7c0,0,0,0,0,0c0,0,0,0,0,0l-0.7,0.8
						c-0.4,0.5-0.7,1-1.1,1.5c-0.4,0.6-0.9,1.2-1.3,1.8c-0.8,1.3-1.6,2.6-2.3,3.9l0,0c-1.7,3.2-3,6.1-3.9,9c-0.8,3-1.4,6.1-1.7,9.2
						c-0.5,6.6,0.1,12.3,2.1,17.5c3.9,11,12.1,19.4,23.1,23.6c5.3,2,10.9,3,16.6,3c5.3,0,10.7-0.9,15.9-2.7c5.4-2,9.9-4.4,13.3-7.2
						c2-1.6,3.8-3.4,5.3-5.2c1.9-2.2,3.3-4.2,4.4-6.2c0.6-1,1.1-2.1,1.5-3.2c0.2-0.5,0.4-1.1,0.6-1.6
						C88.2,626.1,88.4,625.6,88.5,625.1z M79,635.5c-1.4,1.7-3,3.3-4.8,4.8c-3.2,2.6-7.4,4.8-12.4,6.7c-9.7,3.4-20.8,3.3-30.2-0.3
						c-10.1-3.8-17.6-11.5-21.2-21.7c-1.8-4.8-2.4-10.1-1.9-16.1c0.2-2.9,0.8-5.8,1.6-8.6c0.6-2.1,1.6-4.4,2.8-6.8
						c-0.3,2.1-0.5,4.1-0.5,6.2c0,5,1,10.2,3,15.2c3.8,9.5,11,16.8,20.7,21.1c8.9,3.9,19.2,4.8,29,2.7c4.3-0.9,8.5-2.5,12.7-4.8
						c1.6-0.9,3.1-1.8,4.6-2.8C81.4,632.5,80.3,633.9,79,635.5z"/>
				</g>
			</g>
		</g>
	</g>
	<g>
		<g>
			<g>
				<g>
					<linearGradient id="SVGID_8_" gradientUnits="userSpaceOnUse" x1="279.3709" y1="412.1447" x2="365.038" y2="412.1447">
						<stop  offset="1.862220e-02" style="stop-color:#9A8684"/>
						<stop  offset="0.4235" style="stop-color:#D3C5C6"/>
						<stop  offset="0.4999" style="stop-color:#DED1D3"/>
						<stop  offset="0.5991" style="stop-color:#D1C0C0"/>
						<stop  offset="0.7129" style="stop-color:#C7B4B1"/>
						<stop  offset="0.8064" style="stop-color:#C4AFAC"/>
						<stop  offset="0.8566" style="stop-color:#B8A19E"/>
						<stop  offset="0.9516" style="stop-color:#977E78"/>
						<stop  offset="0.9972" style="stop-color:#866B64"/>
					</linearGradient>
					<path fill="url(#SVGID_8_)" d="M364,401.8c-2.5-11.3-9.5-21.1-19.3-26.7c-5-2.9-10.6-4.8-16.1-5.5c-5.4-0.6-10.8-0.2-16.2,1
						c-0.6,0.1-1.2,0.2-1.8,0.4c-1.3,0.4-2.7,0.9-4,1.4c-0.5,0.2-1,0.4-1.4,0.6c-0.8,0.3-1.6,0.7-2.3,1.1c-0.6,0.3-1.2,0.6-1.8,1
						c-0.6,0.4-1.2,0.7-1.9,1.1c-0.6,0.4-1.2,0.7-1.7,1.1c-0.3,0.2-0.5,0.3-0.8,0.5l-3.5,2.8c-3.7,3.3-6.9,7.3-9.3,12
						c-5.3,10-6,22-2.1,32.9c3.8,10.4,11.5,19.1,21.5,24.4c4.1,2.1,8.6,3.6,13.4,4.4l3.7,0.5c0.9,0.1,1.8,0.1,2.8,0.1
						c3.7,0,7.4-0.5,11-1.6c5.2-1.4,10-3.9,14.2-7.4c4.2-3.4,7.6-7.4,10.3-12C364.6,424,366.4,412.6,364,401.8z M343.6,445.6
						c-3.1,2.1-6.5,3.6-10.1,4.6c-2.7,0.8-5.5,1.3-8.3,1.4c4.8-4.7,8.5-10.6,10.9-17.4c2.9-8.5,3.3-17.5,1-26.1
						c-2.3-8.8-7.3-16.4-14.4-21.9c-5.7-4.5-12.6-7.3-20.1-8.3c2.8-1.6,5.8-2.8,8.8-3.8c5.5-1.5,11.2-2,16.7-1.3
						c5.1,0.6,10.3,2.4,14.9,5c9,5.2,15.5,14.1,17.7,24.6c2.2,10,0.5,20.6-4.8,29.9c-2.4,4.2-5.6,8-9.5,11.1
						C345.6,444.2,344.6,444.9,343.6,445.6z"/>
				</g>
			</g>
		</g>
	</g>
	<g>
		<g>
			<g>
				<g>
					<g>
						<linearGradient id="SVGID_9_" gradientUnits="userSpaceOnUse" x1="894.8503" y1="549.8123" x2="904.649" y2="549.8123">
							<stop  offset="1.862220e-02" style="stop-color:#9A8684"/>
							<stop  offset="0.4235" style="stop-color:#D3C5C6"/>
							<stop  offset="0.4999" style="stop-color:#DED1D3"/>
							<stop  offset="0.5991" style="stop-color:#D1C0C0"/>
							<stop  offset="0.7129" style="stop-color:#C7B4B1"/>
							<stop  offset="0.8064" style="stop-color:#C4AFAC"/>
							<stop  offset="0.8566" style="stop-color:#B8A19E"/>
							<stop  offset="0.9516" style="stop-color:#977E78"/>
							<stop  offset="0.9972" style="stop-color:#866B64"/>
						</linearGradient>
						<path fill="url(#SVGID_9_)" d="M895,554.7c3.3-0.1,6.4,0,9.6,0c0-3.2,0.1-6.5,0-9.7l-9.7,0.1L895,554.7z"/>
					</g>
				</g>
			</g>
		</g>
	</g>
	<g>
		<g>
			<g>
				<g>
					<g>
						<linearGradient id="SVGID_10_" gradientUnits="userSpaceOnUse" x1="751.0015" y1="450.9913" x2="763.2631" y2="450.9913">
							<stop  offset="1.862220e-02" style="stop-color:#9A8684"/>
							<stop  offset="0.4235" style="stop-color:#D3C5C6"/>
							<stop  offset="0.4999" style="stop-color:#DED1D3"/>
							<stop  offset="0.5991" style="stop-color:#D1C0C0"/>
							<stop  offset="0.7129" style="stop-color:#C7B4B1"/>
							<stop  offset="0.8064" style="stop-color:#C4AFAC"/>
							<stop  offset="0.8566" style="stop-color:#B8A19E"/>
							<stop  offset="0.9516" style="stop-color:#977E78"/>
							<stop  offset="0.9972" style="stop-color:#866B64"/>
						</linearGradient>
						<path fill="url(#SVGID_10_)" d="M754.1,457.1l9.1-3.1l-3.1-9.2c-3.1,1-6.1,2-9.2,3.1C752.1,451,753.1,454.1,754.1,457.1z"/>
					</g>
				</g>
			</g>
		</g>
	</g>
	<g>
		<g>
			<g>
				<g>
					<g>
						<linearGradient id="SVGID_11_" gradientUnits="userSpaceOnUse" x1="575.5662" y1="395.8921" x2="589.0432" y2="395.8921">
							<stop  offset="1.862220e-02" style="stop-color:#9A8684"/>
							<stop  offset="0.4235" style="stop-color:#D3C5C6"/>
							<stop  offset="0.4999" style="stop-color:#DED1D3"/>
							<stop  offset="0.5991" style="stop-color:#D1C0C0"/>
							<stop  offset="0.7129" style="stop-color:#C7B4B1"/>
							<stop  offset="0.8064" style="stop-color:#C4AFAC"/>
							<stop  offset="0.8566" style="stop-color:#B8A19E"/>
							<stop  offset="0.9516" style="stop-color:#977E78"/>
							<stop  offset="0.9972" style="stop-color:#866B64"/>
						</linearGradient>
						<polygon fill="url(#SVGID_11_)" points="581.2,402.6 589,397.1 583.4,389.1 575.6,394.9 						"/>
					</g>
				</g>
			</g>
		</g>
	</g>
	<g>
		<g>
			<g>
				<g>
					<g>
						<linearGradient id="SVGID_12_" gradientUnits="userSpaceOnUse" x1="387.5222" y1="395.9657" x2="401.0146" y2="395.9657">
							<stop  offset="1.862220e-02" style="stop-color:#9A8684"/>
							<stop  offset="0.4235" style="stop-color:#D3C5C6"/>
							<stop  offset="0.4999" style="stop-color:#DED1D3"/>
							<stop  offset="0.5991" style="stop-color:#D1C0C0"/>
							<stop  offset="0.7129" style="stop-color:#C7B4B1"/>
							<stop  offset="0.8064" style="stop-color:#C4AFAC"/>
							<stop  offset="0.8566" style="stop-color:#B8A19E"/>
							<stop  offset="0.9516" style="stop-color:#977E78"/>
							<stop  offset="0.9972" style="stop-color:#866B64"/>
						</linearGradient>
						<path fill="url(#SVGID_12_)" d="M395.4,402.7l5.6-7.8l-7.9-5.7c-1.9,2.6-3.8,5.3-5.6,7.9C390.2,399,392.8,400.8,395.4,402.7z"
							/>
					</g>
				</g>
			</g>
		</g>
	</g>
	<g>
		<g>
			<g>
				<g>
					<g>
						<linearGradient id="SVGID_13_" gradientUnits="userSpaceOnUse" x1="237.1752" y1="440.3432" x2="249.6809" y2="440.3432">
							<stop  offset="1.862220e-02" style="stop-color:#9A8684"/>
							<stop  offset="0.4235" style="stop-color:#D3C5C6"/>
							<stop  offset="0.4999" style="stop-color:#DED1D3"/>
							<stop  offset="0.5991" style="stop-color:#D1C0C0"/>
							<stop  offset="0.7129" style="stop-color:#C7B4B1"/>
							<stop  offset="0.8064" style="stop-color:#C4AFAC"/>
							<stop  offset="0.8566" style="stop-color:#B8A19E"/>
							<stop  offset="0.9516" style="stop-color:#977E78"/>
							<stop  offset="0.9972" style="stop-color:#866B64"/>
						</linearGradient>
						<polygon fill="url(#SVGID_13_)" points="246.2,446.6 249.7,437.6 240.6,434.1 237.2,443.1 						"/>
					</g>
				</g>
			</g>
		</g>
	</g>
	<g>
		<g>
			<g>
				<g>
					<g>
						<linearGradient id="SVGID_14_" gradientUnits="userSpaceOnUse" x1="97.372" y1="537.9315" x2="107.2093" y2="537.9315">
							<stop  offset="1.862220e-02" style="stop-color:#9A8684"/>
							<stop  offset="0.4235" style="stop-color:#D3C5C6"/>
							<stop  offset="0.4999" style="stop-color:#DED1D3"/>
							<stop  offset="0.5991" style="stop-color:#D1C0C0"/>
							<stop  offset="0.7129" style="stop-color:#C7B4B1"/>
							<stop  offset="0.8064" style="stop-color:#C4AFAC"/>
							<stop  offset="0.8566" style="stop-color:#B8A19E"/>
							<stop  offset="0.9516" style="stop-color:#977E78"/>
							<stop  offset="0.9972" style="stop-color:#866B64"/>
						</linearGradient>
						<path fill="url(#SVGID_14_)" d="M107.2,542.7c-0.1-3.2-0.2-6.5-0.2-9.7c-3.3,0-6.4,0.1-9.7,0.2l0.2,9.7L107.2,542.7z"/>
					</g>
				</g>
			</g>
		</g>
	</g>
</g>
</svg>
