<?xml version="1.0" encoding="utf-8"?>
<!-- Generator: Adobe Illustrator 21.1.0, SVG Export Plug-In . SVG Version: 6.00 Build 0)  -->
<svg version="1.1" id="Layer_1" xmlns="http://www.w3.org/2000/svg" xmlns:xlink="http://www.w3.org/1999/xlink" x="0px" y="0px"
	 viewBox="0 0 1000 1000" enable-background="new 0 0 1000 1000" xml:space="preserve">
<g>
	<g>
		<g>
			<g>
				<g>
					<linearGradient id="SVGID_1_" gradientUnits="userSpaceOnUse" x1="5" y1="500" x2="995" y2="500">
						<stop  offset="1.862220e-02" style="stop-color:#9A8684"/>
						<stop  offset="0.4235" style="stop-color:#D3C5C6"/>
						<stop  offset="0.4999" style="stop-color:#DED1D3"/>
						<stop  offset="0.5991" style="stop-color:#D1C0C0"/>
						<stop  offset="0.7129" style="stop-color:#C7B4B1"/>
						<stop  offset="0.8064" style="stop-color:#C4AFAC"/>
						<stop  offset="0.8566" style="stop-color:#B8A19E"/>
						<stop  offset="0.9516" style="stop-color:#977E78"/>
						<stop  offset="0.9972" style="stop-color:#866B64"/>
					</linearGradient>
					<path fill="url(#SVGID_1_)" d="M984,420.6c-18-29-50.8-48.2-81.8-60.3c-34.9-13.6-72.9-17.5-110.1-18.4
						c-45.6-1.1-91.3,2.7-136.7,6c-23.4,1.7-46.7,4.9-70.1,6.3c-5.4,0.3-10.7,0.5-16.1,0.6c-10.3,0.2-20.6,0-31-0.2
						c-5.2-0.1-10.3-0.2-15.5-0.3c-1.9,0-5,0.1-6.3-1.7c-1.4-2-2.1-4.4-3.9-6.1c-1.7-1.5-3.9-2.4-6.1-3.1c-0.4-0.1-1.8-0.6-2.8-0.9
						c0-0.2-0.2-0.4-0.6-0.6c0,0,0,0,0,0c0.2-0.1,0.4-0.3,0.5-0.4c22.2-5.8,45-16.5,63.2-30.5c9.3-7.2,17.2-15.8,24.6-25
						c6.2-7.7,13.9-15.4,14.2-25.8c0-1.1-1.5-1.7-2.3-1c-34.3,26.7-68.7,53.4-103.1,80c-34.4-26.6-68.7-53.3-103.1-80
						c-0.8-0.6-2.3-0.1-2.3,1c0.2,10.4,8,18.1,14.2,25.8c7.4,9.2,15.3,17.8,24.6,25c18.1,14,41,24.7,63.2,30.5
						c0.2,0.1,0.4,0.3,0.5,0.4c0,0,0,0,0,0c-0.4,0.1-0.6,0.3-0.6,0.6c-1.1,0.3-2.5,0.8-2.8,0.9c-2.2,0.7-4.4,1.6-6.1,3.1
						c-1.9,1.7-2.5,4.1-3.9,6.1c-1.3,1.9-4.4,1.7-6.3,1.7c-5.2,0.1-10.3,0.2-15.5,0.3c-10.3,0.2-20.6,0.4-31,0.2
						c-5.4-0.1-10.7-0.3-16.1-0.6c-23.4-1.4-46.7-4.6-70.1-6.3c-45.4-3.4-91.2-7.1-136.7-6c-37.2,0.9-75.2,4.8-110.1,18.4
						c-31,12.1-63.8,31.3-81.8,60.3c-14.4,23.2-18.7,56.5,12.5,66.8c17.7,5.8,36.5,6.8,54.6,10.9c20.5,4.7,37.7,14.8,53,28.9
						c26.7,24.5,47.1,57.3,81,73c11,5.1,23.3,8.2,35.5,7.7c-16.9,16.1-7.2,47.4,3.1,64.8c13.4,22.7,36.2,37.2,59.8,47.6
						c26.1,11.6,54.7,18.3,83.3,19.9c12.6,0.7,51,4.1,54.2-13.9c6.8,8.1,20.9,1,27-6.9c12.7-16.4,13.8-38.3,14.4-58.2
						c0.7-26.1,1.7-52.3,1.8-78.4c0.1-12.2-0.2-24.4-1.2-36.6c-1.1-12.4-3.1-24.6-2.5-37.1c2.1,2.7,4.1,5.5,5.8,8.5
						c0.1,0.6,0.6,1,1.2,1.1c0.1,0,0.1,0,0.2,0.1c0.1,0,0.2,0,0.3,0s0.2,0,0.3,0c0.1,0,0.1,0,0.2-0.1c0.6-0.2,1.1-0.6,1.2-1.1
						c1.7-3,3.7-5.8,5.8-8.5c0.6,12.4-1.4,24.7-2.5,37.1c-1,12.2-1.3,24.4-1.2,36.6c0.2,26.1,1.1,52.3,1.8,78.4
						c0.6,19.9,1.7,41.8,14.4,58.2c6.1,7.9,20.2,15,27,6.9c3.2,17.9,41.6,14.6,54.2,13.9c28.5-1.6,57.1-8.3,83.3-19.9
						c23.6-10.4,46.4-25,59.8-47.6c10.3-17.4,20-48.7,3.1-64.8c12.2,0.4,24.4-2.6,35.5-7.7c33.9-15.7,54.3-48.5,81-73
						c15.4-14.1,32.6-24.3,53-28.9c18.1-4.1,36.9-5.1,54.6-10.9C1002.7,477.2,998.4,443.9,984,420.6z M596.5,268.2
						c-19.4,24.9-45.7,41.4-72.5,57.2C548.1,306.3,572.3,287.2,596.5,268.2z M600.1,269.5c-4.1,8.7-12.8,17.3-18.2,23.5
						c-7.1,8.1-15.2,15.3-24.2,21.4c-13.9,9.4-29.2,15.2-44.4,21.6C545.2,317.2,577.3,299.1,600.1,269.5z M476.1,325.4
						c-26.9-15.8-53.1-32.3-72.5-57.2C427.7,287.2,451.9,306.3,476.1,325.4z M442.2,314.3c-9-6.1-17-13.2-24.2-21.4
						c-5.4-6.2-14.1-14.8-18.2-23.5c22.8,29.7,54.9,47.8,86.8,66.4C471.4,329.6,456.2,323.8,442.2,314.3z M942.9,408.6
						c1.1-0.6,2.5-0.7,3.9-0.3c1.6,0.5,2.9,1.7,3.5,3.1c0.6,1.5,0.4,3.4-0.4,4.8c-0.6,1.1-1.6,1.9-2.7,2.1c-0.5,0.1-1,0.2-1.5,0.2
						c-2.2,0-4.4-1.2-5.2-3.1C939.4,413.3,940.5,410,942.9,408.6z M906.6,380.9c0.6-1.1,1.7-1.9,3.1-2.3c1.5-0.4,3.1-0.3,4.3,0.4
						c1.3,0.7,2.2,2.2,2.5,3.7c0.3,1.3,0,2.5-0.6,3.5c-1,1.6-2.9,2.6-4.8,2.6c-0.8,0-1.6-0.2-2.4-0.6c-1.1-0.6-1.9-1.6-2.4-3
						C905.8,383.7,905.9,382.1,906.6,380.9z M884.3,372c0.8-2.6,3.8-4.4,6.5-3.8c1.2,0.3,2.3,1.1,3,2.3c0.8,1.3,1.1,3,0.7,4.3
						c-0.6,2.2-3,3.8-5.4,3.8c-0.4,0-0.8-0.1-1.3-0.2c-1.4-0.4-2.6-1.5-3.3-2.9C884,374.3,883.9,373.1,884.3,372z M862.1,366.6
						c0.7-2.7,3.6-4.5,6.3-4c1.2,0.2,2.4,1.1,3.2,2.3c0.8,1.3,1.1,2.8,0.8,4.2c-0.3,1.2-1.1,2.3-2.4,3.1c-1,0.6-2,0.9-3,0.9
						c-0.4,0-0.8,0-1.1-0.1c-1.3-0.3-2.6-1.4-3.4-2.8C861.9,369,861.7,367.8,862.1,366.6z M839.6,362.1c0.6-2.7,3.5-4.7,6.2-4.2
						c1.2,0.2,2.4,1,3.2,2.2c0.9,1.3,1.2,2.8,1,4.1c-0.2,1.2-1.1,2.4-2.3,3.2c-1,0.7-2.1,1-3.1,1c-0.3,0-0.7,0-1-0.1
						c-1.3-0.3-2.7-1.3-3.5-2.7C839.5,364.5,839.3,363.3,839.6,362.1z M817,358.6c0.5-2.7,3.3-4.8,6-4.5c1.2,0.1,2.4,0.8,3.3,2
						c1,1.2,1.4,2.8,1.2,4.2c-0.4,2.4-2.9,4.4-5.5,4.4c-0.2,0-0.5,0-0.7,0c-1.4-0.2-2.8-1.1-3.6-2.4C817,361,816.7,359.7,817,358.6z
						 M794.3,355.9c0.4-2.7,3-4.9,5.8-4.7c1.2,0.1,2.5,0.8,3.4,1.9c1,1.2,1.5,2.7,1.3,4c-0.1,1.2-0.9,2.5-2,3.4
						c-1,0.8-2.3,1.3-3.5,1.3c-0.2,0-0.4,0-0.5,0c-1.4-0.2-2.8-1.1-3.7-2.3C794.3,358.3,794,357.1,794.3,355.9z M771.4,354.1
						c0.3-2.7,2.9-5,5.6-4.9c1.2,0.1,2.5,0.7,3.5,1.8c1,1.2,1.6,2.6,1.5,4c-0.1,1.2-0.8,2.5-1.9,3.4c-1.1,0.9-2.3,1.4-3.6,1.4
						c-0.1,0-0.3,0-0.4,0c-1.4-0.1-2.8-1-3.8-2.2C771.6,356.5,771.3,355.2,771.4,354.1z M748.6,353.2c0.1-2.8,2.6-5.2,5.4-5.2
						c1.3,0,2.5,0.6,3.5,1.6c1.1,1.1,1.7,2.6,1.6,4c0,1.2-0.7,2.5-1.7,3.5c-1.1,1-2.4,1.6-3.7,1.6c-0.1,0-0.1,0-0.2,0
						c-1.4,0-2.8-0.8-3.8-2C748.8,355.6,748.4,354.4,748.6,353.2z M730.9,347.9c1.2-0.1,2.6,0.5,3.6,1.5c1.1,1.1,1.8,2.5,1.8,3.8
						c0,1.2-0.6,2.5-1.6,3.6c-1.1,1.1-2.5,1.7-3.8,1.7h0c-1.4,0-2.9-0.7-3.9-1.9c-0.9-1-1.3-2.2-1.3-3.3
						C725.7,350.5,728.1,348,730.9,347.9z M707.8,348.6c1.3-0.1,2.6,0.4,3.7,1.4c1.2,1,1.9,2.4,1.9,3.8c0.1,1.2-0.5,2.6-1.4,3.6
						c-1,1.1-2.4,1.8-3.8,1.8c0,0-0.1,0-0.1,0c-1.3,0-2.8-0.7-3.9-1.8c-0.9-1-1.4-2.1-1.4-3.3C702.7,351.4,705.1,348.7,707.8,348.6z
						 M684.7,350.1c1.3-0.1,2.6,0.3,3.7,1.3c1.2,1,1.9,2.3,2.1,3.7c0.1,1.2-0.4,2.6-1.3,3.7c-1,1.2-2.4,1.9-3.7,1.9
						c-0.1,0-0.2,0-0.3,0c-1.3,0-2.6-0.6-3.7-1.6c-1-0.9-1.5-2.1-1.5-3.2C679.8,353.2,682,350.4,684.7,350.1z M661.8,352.7
						c1.2-0.2,2.6,0.2,3.8,1c1.2,0.9,2,2.2,2.2,3.6c0.2,1.2-0.3,2.6-1.2,3.7c-0.9,1.2-2.3,2-3.6,2.2c-0.2,0-0.3,0-0.5,0
						c-1.2,0-2.6-0.5-3.6-1.4c-1-0.9-1.6-2-1.6-3.2C656.9,355.9,659,353.1,661.8,352.7z M638.9,356.1c1.2-0.2,2.6,0.1,3.8,0.9
						c1.3,0.9,2.1,2.2,2.4,3.5c0.2,1.2-0.2,2.6-1,3.8c-0.9,1.2-2.2,2.1-3.5,2.3c-0.2,0-0.4,0-0.6,0c-1.2,0-2.5-0.5-3.5-1.3
						c-1-0.8-1.7-2-1.8-3.1C634.2,359.5,636.2,356.6,638.9,356.1z M616.3,360.2c1.2-0.3,2.6,0,3.8,0.8c1.3,0.9,2.2,2.1,2.5,3.5
						c0.2,1.2-0.1,2.6-0.9,3.8c-0.9,1.3-2.2,2.1-3.5,2.4c-0.2,0-0.5,0.1-0.7,0.1c-1.2,0-2.5-0.5-3.5-1.3c-1.1-0.8-1.7-1.9-1.8-3.1
						C611.7,363.6,613.6,360.7,616.3,360.2z M594,363.9c1.2-0.2,2.5,0.2,3.7,1c1.3,0.9,2.1,2.2,2.3,3.6c0.2,1.2-0.2,2.6-1.1,3.7
						c-0.9,1.3-2.3,2.1-3.7,2.2c-0.2,0-0.3,0-0.5,0c-1.3,0-2.7-0.6-3.8-1.5c-1-0.9-1.5-2-1.6-3.2C589.2,367,591.3,364.3,594,363.9z
						 M566.6,370.8c0.2-2.7,2.6-5.2,5.2-5.3c2.6-0.1,5.2,2.5,5.4,5.3c0.1,1.3-0.5,2.6-1.5,3.6c-1.1,1.1-2.5,1.7-3.9,1.7h-0.1
						c-1.5,0-3-0.8-4-2C566.8,373.2,566.4,372,566.6,370.8z M544,367.7c0.8-2.6,3.7-4.5,6.2-4c1.2,0.2,2.4,1,3.2,2.2
						c0.8,1.2,1.2,2.6,1,3.9c-0.2,1.2-0.9,2.4-2.1,3.2c-1,0.7-2.2,1.1-3.4,1.1c-0.3,0-0.6,0-0.9-0.1c-1.5-0.4-2.9-1.5-3.6-2.9
						C543.7,370,543.6,368.8,544,367.7z M498,357.7c1,0.3,1.7-1.2,0.6-1.6c-1.6-0.6-3.4-0.9-5.1-1c-1.5-0.1-3.8,0.4-5.3-0.1
						c-1.7-0.6-0.6-2.7-0.1-4.1c0.9-2.7,3.7-4.1,6.2-5c1.4-0.4,2.9-0.8,4.3-1.1c0.5-0.1,0.9-0.1,1.4-0.2c0.5,0.1,0.9,0.1,1.4,0.2
						c1.4,0.3,2.9,0.6,4.3,1.1c2.6,0.8,5.3,2.2,6.2,5c0.5,1.4,1.6,3.5-0.1,4.1c-1.4,0.5-3.7,0-5.3,0.1c-1.7,0.1-3.5,0.4-5.1,1
						c-1,0.4-0.4,1.9,0.6,1.6c20-5.3,30.1,15.1,33.1,31.3c1.9,10.1,2.1,20.4,1.2,30.6c-7.9,9.5-24.9,12.1-36.2,10.6
						c-0.1,0-0.1,0-0.2,0c-0.1,0-0.1,0-0.2,0c-11.3,1.5-28.3-1.1-36.2-10.6c-0.9-10.2-0.7-20.5,1.2-30.6
						C467.9,372.8,477.9,352.4,498,357.7z M450,363.7c1.2-0.3,2.7,0.1,4,1c1.1,0.8,1.8,1.9,2,3c0.6,2.7-1.3,5.7-4,6.4
						c-0.3,0.1-0.6,0.1-0.9,0.1c-1.1,0-2.2-0.4-3.1-1c-1.3-0.9-2.1-2.2-2.3-3.5C445.2,367.1,447.4,364.1,450,363.7z M428.3,365.6
						c1.3,0,2.8,0.8,3.8,1.9c0.9,1,1.4,2.2,1.3,3.4c0,2.8-2.5,5.3-5.3,5.3c0,0-0.1,0-0.1,0c-1.2,0-2.5-0.6-3.5-1.6
						c-1.1-1.1-1.7-2.5-1.6-3.9C422.9,368,425.5,365.4,428.3,365.6z M400.1,368.3c0.2-1.2,0.9-2.4,2.1-3.3c1.2-0.9,2.7-1.3,4-1.1
						c1.3,0.2,2.7,1.1,3.6,2.4c0.8,1.1,1,2.3,0.8,3.5c-0.4,2.6-2.9,4.7-5.5,4.7c-0.2,0-0.3,0-0.5,0c-1.3-0.1-2.5-0.9-3.4-2
						C400.3,371.1,399.9,369.6,400.1,368.3z M377.5,364.3c0.2-1.2,1-2.4,2.2-3.2c1.3-0.9,2.8-1.2,4.1-0.9c1.4,0.3,2.7,1.3,3.5,2.6
						c0.7,1.2,0.9,2.4,0.6,3.5c-0.5,2.5-2.9,4.3-5.4,4.3c-0.2,0-0.5,0-0.7-0.1c-1.2-0.2-2.4-1-3.2-2.1
						C377.6,367.2,377.3,365.7,377.5,364.3z M355,360.4c0.2-1.2,1-2.4,2.1-3.2c1.3-0.9,2.8-1.3,4.1-1c1.4,0.3,2.8,1.2,3.6,2.6
						c0.7,1.1,0.9,2.4,0.6,3.5c-0.5,2.5-3,4.4-5.4,4.4c-0.2,0-0.4,0-0.6,0c-1.2-0.2-2.4-0.9-3.2-2.1
						C355.2,363.2,354.7,361.7,355,360.4z M332.3,357.1c0.1-1.2,0.9-2.4,2-3.3c1.2-0.9,2.7-1.4,4.1-1.2c1.4,0.2,2.8,1.2,3.7,2.5
						c0.7,1.1,1,2.3,0.7,3.5c-0.4,2.6-2.9,4.6-5.4,4.6c-0.2,0-0.3,0-0.5,0c-1.2-0.1-2.4-0.8-3.3-2
						C332.6,360,332.1,358.5,332.3,357.1z M311.4,351.5c1.2-1,2.7-1.5,4-1.4c1.4,0.2,2.9,1.1,3.8,2.4c0.8,1.1,1.1,2.3,0.9,3.4
						c-0.3,2.6-2.8,4.8-5.4,4.8c-0.1,0-0.2,0-0.3,0c-1.2-0.1-2.4-0.7-3.4-1.8c-1-1.2-1.6-2.6-1.5-4
						C309.6,353.7,310.3,352.4,311.4,351.5z M288.4,350.1c1.2-1,2.6-1.6,4-1.5c1.4,0.1,2.9,0.9,3.9,2.1c0.8,1.1,1.2,2.3,1,3.4
						c-0.2,2.7-2.8,5-5.4,5h-0.1c-1.2,0-2.5-0.6-3.5-1.7c-1.1-1.1-1.7-2.6-1.6-4C286.7,352.3,287.3,351,288.4,350.1z M265.3,349.5
						c1.1-1.1,2.5-1.7,3.9-1.6c1.4,0,2.9,0.8,3.9,2c0.9,1,1.3,2.2,1.1,3.4c-0.1,2.8-2.6,5.2-5.3,5.2h0c-1.2,0-2.5-0.6-3.5-1.5
						c-1.1-1.1-1.8-2.5-1.8-3.9C263.7,351.8,264.3,350.5,265.3,349.5z M242.3,349.8c1.1-1.1,2.5-1.8,3.8-1.8c1.4,0,3,0.7,4,1.9
						c0.9,1,1.3,2.2,1.2,3.3c0,2.8-2.4,5.3-5.1,5.4c-0.1,0-0.1,0-0.2,0c-1.1,0-2.4-0.5-3.4-1.4c-1.1-1-1.8-2.4-1.9-3.8
						C240.8,352.2,241.3,350.9,242.3,349.8z M219.3,351.1c1-1.2,2.4-1.9,3.8-2c1.4-0.1,3,0.6,4.1,1.7c0.9,0.9,1.4,2.1,1.4,3.3
						c0.1,2.7-2.2,5.4-4.9,5.7c-0.1,0-0.3,0-0.4,0c-1.1,0-2.3-0.4-3.2-1.3c-1.2-1-1.9-2.4-2.1-3.7
						C217.9,353.6,218.4,352.2,219.3,351.1z M196.4,353.3c1-1.2,2.3-2,3.7-2.1c1.4-0.1,3,0.5,4.1,1.6c1,0.9,1.5,2.1,1.5,3.2
						c0.2,2.8-2,5.5-4.7,5.8c-0.2,0-0.3,0-0.5,0c-1.1,0-2.2-0.4-3.2-1.2c-1.2-1-2-2.3-2.2-3.7C195,355.7,195.5,354.4,196.4,353.3z
						 M173.6,356.2c0.9-1.2,2.2-2,3.6-2.2c1.4-0.2,3,0.4,4.2,1.4c1,0.9,1.6,2,1.6,3.1c0.3,2.7-1.8,5.5-4.5,6c-0.2,0-0.4,0.1-0.7,0.1
						c-2.5,0-5-2.1-5.4-4.6C172.3,358.8,172.7,357.4,173.6,356.2z M150.8,360.3c0.9-1.3,2.2-2.2,3.5-2.4c1.4-0.2,3,0.2,4.3,1.2
						c1,0.8,1.7,1.9,1.8,3.1c0.4,2.7-1.5,5.6-4.2,6.2c-0.3,0.1-0.6,0.1-0.9,0.1c-0.9,0-2-0.3-2.9-0.9c-1.3-0.8-2.2-2.1-2.5-3.5
						C149.7,362.9,150,361.5,150.8,360.3z M128.3,365.1c0.8-1.3,2.1-2.2,3.4-2.5c1.4-0.3,3,0.1,4.3,1c1.1,0.8,1.7,1.9,1.9,3
						c0.5,2.7-1.3,5.6-4,6.3c-0.3,0.1-0.7,0.1-1,0.1c-0.9,0-1.9-0.3-2.8-0.8c-1.3-0.8-2.3-2-2.6-3.4
						C127.3,367.7,127.5,366.3,128.3,365.1z M106,370.7c0.8-1.3,2-2.3,3.3-2.6c1.3-0.3,3,0,4.3,0.9c1.1,0.8,1.8,1.8,2,2.9
						c0.6,2.7-1.1,5.7-3.7,6.4c-0.4,0.1-0.8,0.2-1.2,0.2c-2.3,0-4.7-1.7-5.4-3.9C105.1,373.4,105.3,372,106,370.7z M86.2,378.9
						c1.1-0.6,2.5-0.8,4-0.4c1.5,0.4,2.7,1.3,3.4,2.5c0.6,1.1,0.7,2.5,0.3,3.9c-0.4,1.5-1.4,2.7-2.6,3.3c-0.7,0.4-1.5,0.6-2.4,0.6
						c-0.7,0-1.3-0.1-2-0.3c-1.3-0.4-2.2-1.3-2.7-2.3C82.9,383.7,83.8,380.3,86.2,378.9z M49.8,411.3c0.5-1.3,1.7-2.4,3.2-2.9
						c1.5-0.5,3-0.4,4.2,0.3c2.2,1.3,3.3,4.7,2.3,7c-0.5,1.1-1.6,2.1-3,2.7c-0.7,0.3-1.3,0.4-2,0.4c-0.6,0-1.2-0.1-1.7-0.3
						c-1.2-0.4-2.2-1.4-2.8-2.7C49.4,414.2,49.3,412.7,49.8,411.3z M51.8,441.1c-0.2,0-0.5,0.1-0.7,0.1c-1,0-2.1-0.4-3-1
						c-1.3-0.9-2.1-2.3-2.3-3.8c-0.1-1.5,0.4-3,1.5-4.1c1-1.1,2.5-1.7,3.7-1.7c2.6,0,5.2,2.6,5.3,5.1c0.1,1.1-0.4,2.6-1.3,3.7
						C54.1,440.3,53,441,51.8,441.1z M63.4,460.5c-0.9,1-2.3,1.6-3.7,1.6c0,0,0,0-0.1,0c-1.6,0-3-0.6-4-1.7c-1-1-1.4-2.5-1.3-4.1
						c0.2-1.6,1-2.9,2.1-3.7c2.1-1.4,5.5-1,7.2,0.9C65.1,455.2,65.3,458.6,63.4,460.5z M72.6,400.2c-0.9,0.6-2.1,1-3.2,1
						c-0.3,0-0.7,0-1-0.1c-1.3-0.2-2.3-0.8-3-1.8c-0.8-1-1.2-2.4-1.1-3.9c0.1-1.5,0.8-2.8,1.9-3.7c1-0.8,2.4-1.2,3.8-1
						c1.5,0.2,2.9,1,3.8,2.1C75.3,395,74.7,398.6,72.6,400.2z M84.3,469.8c-0.4,1.3-1.3,2.4-2.6,3.1c-0.9,0.5-1.8,0.7-2.7,0.7
						c-0.5,0-0.9-0.1-1.4-0.2c-1.2-0.3-2.4-1.3-3.1-2.7c-0.7-1.4-0.9-3-0.4-4.3c0.9-2.5,4.1-4,6.7-3.2c1.3,0.5,2.5,1.6,3.2,3
						C84.6,467.5,84.7,468.7,84.3,469.8z M106.9,474.3c-0.6,2.4-3,4.2-5.4,4.2c-0.3,0-0.5,0-0.8-0.1c-1.2-0.2-2.4-1-3.2-2.2
						c-0.9-1.3-1.3-2.8-1-4.1c0.2-1.2,1-2.4,2.2-3.2c1.3-0.9,2.8-1.2,4.2-0.9c1.4,0.3,2.8,1.3,3.6,2.8
						C107.1,472,107.2,473.2,106.9,474.3z M128.5,482.1c-1,1.8-3.1,2.9-5.1,2.9c-0.6,0-1.2-0.1-1.8-0.3c-2.4-1-3.8-4.3-2.8-6.9
						c0.4-1.2,1.4-2.1,2.8-2.7c1.5-0.6,3.1-0.6,4.4,0c1.3,0.6,2.4,1.9,2.9,3.5C129.2,479.9,129.1,481.1,128.5,482.1z M147.6,494.9
						c-1.1,1.2-2.7,1.8-4.3,1.8c-1.1,0-2.2-0.3-3.1-0.9c-2.1-1.5-2.6-5.1-1.1-7.4c0.7-1,1.9-1.7,3.3-2c1.6-0.2,3.2,0.1,4.3,1
						c1.2,0.9,1.9,2.5,2,4.2C148.9,492.9,148.4,494.1,147.6,494.9z M165.2,508.5c-0.2,1.3-0.8,2.4-1.8,3.1c-1,0.7-2.2,1.1-3.4,1.1
						c-1.5,0-3-0.6-4.1-1.7c-1.8-1.9-1.5-5.7,0.5-7.5c0.9-0.8,2.3-1.2,3.7-1.2c1.6,0.1,3,0.8,3.9,1.9
						C165,505.3,165.5,506.9,165.2,508.5z M179.8,526.2c-0.2,1.3-0.8,2.4-1.7,3.1c-0.9,0.8-2.2,1.2-3.4,1.2c-1.5,0-3.1-0.6-4.1-1.7
						c-0.8-0.9-1.3-2.3-1.1-3.8c0.1-1.6,0.8-2.9,1.9-3.8c0.9-0.8,2.3-1.2,3.7-1c1.5,0.1,2.9,0.8,3.8,1.9
						C179.7,523.1,180.1,524.7,179.8,526.2z M194.7,545.2c-1,1.1-2.5,1.7-4.1,1.7c-1.2,0-2.5-0.4-3.4-1.2c-1-0.8-1.6-2.1-1.7-3.6
						c-0.1-1.6,0.4-3,1.3-4.1c1.8-1.9,5.4-2.1,7.5-0.3c1,0.9,1.7,2.4,1.7,4C196,543.2,195.6,544.4,194.7,545.2z M213.8,558.1
						c-1,1.6-2.9,2.5-4.8,2.5c-0.9,0-1.8-0.2-2.6-0.7c-1.1-0.7-2-1.9-2.3-3.4c-0.3-1.5-0.1-3,0.6-4.1c0.7-1.1,1.9-1.8,3.3-2.1
						c1.5-0.3,3,0,4,0.7c1.1,0.7,2,2.1,2.3,3.6C214.7,555.9,214.5,557.2,213.8,558.1z M234.6,567.9c-0.8,2-3,3.2-5.1,3.2
						c-0.6,0-1.2-0.1-1.8-0.3c-1.2-0.5-2.2-1.5-2.8-2.9c-0.6-1.4-0.6-3,0-4.2c1.1-2.4,4.6-3.7,7.1-2.6c1.2,0.6,2.3,1.8,2.8,3.3
						C235.1,565.7,235.1,566.9,234.6,567.9z M178.2,483.8c-21.5-13.4-44.3-19.7-68.9-24.3c-15-2.8-27.8-12.1-30.3-28
						c-0.9-5.8-0.1-11.7,2.2-17.1c1.1-2.7,2.6-5.2,4.4-7.5c2.6-3.5,5.2-5.5,9-7.5c4.1-2.1,8.3-4.1,12.5-6c8.4-3.8,17-7.2,25.7-10.3
						c17.4-6.1,35.3-10.8,53.4-14.1c18.2-3.3,36.6-5.1,55-5.6c13.9-0.4,27.8,0.1,41.7,1.3c34.9,3,69.4,9,104.3,12
						c26.2,2.3,56.8,5.6,81.1-6.7c-7.5,13.6-8.5,31.1-7.9,46.2c0.1,3.7,0.4,7.3,0.8,11c0.4,3.5,2.1,6.5-1,9.1
						c-3,2.5-6.7,4.3-9.8,6.8c-6.3,5-12,10.7-17.3,16.8c-10.6,12.3-19.5,25.9-29.2,38.9c-2.7,3.6-5.5,7.2-8.4,10.7
						c-11.6,13.9-25,26.1-39.3,37.2c-7.2,5.5-14.5,10.8-22,15.8c-4.1,2.7-8.1,5.5-12.2,8.2c-3.4,2.3-7,5.3-11.4,5
						c-2.8-0.2-5.3-1.4-8-2.1c-3.6-0.9-7.1-2-10.5-3.3c-6.7-2.5-13.2-5.7-19.4-9.4c-12.5-7.4-23.7-16.7-34.4-26.3
						C218.8,517.1,200.6,497.8,178.2,483.8z M251.2,578.4c-0.3,0-0.6,0-0.9-0.1c-1.3-0.3-2.5-1.2-3.2-2.5c-0.8-1.3-1.1-2.9-0.7-4.2
						c0.7-2.6,3.9-4.4,6.5-3.7c1.3,0.3,2.5,1.3,3.3,2.7c0.7,1.2,0.8,2.5,0.5,3.6C256.1,576.6,253.7,578.4,251.2,578.4z M264.4,644.1
						c-0.5,1.3-1.3,2.2-2.4,2.7c-0.7,0.4-1.5,0.5-2.3,0.5c-0.5,0-1.1-0.1-1.7-0.3c-1.4-0.4-2.6-1.4-3.3-2.7
						c-0.6-1.2-0.7-2.7-0.1-4.1c0.5-1.5,1.6-2.6,2.9-3.1c2.4-1,5.8,0.4,6.9,2.8C264.9,641.1,264.9,642.7,264.4,644.1z M277.5,661.8
						c-0.1,1.3-0.7,2.4-1.6,3.1c-0.9,0.8-2.2,1.3-3.6,1.3c-0.1,0-0.1,0-0.2,0c-1.5-0.1-2.9-0.7-3.8-1.7c-0.9-0.9-1.3-2.3-1.2-3.8
						c0.1-1.6,0.8-3,1.9-3.9c2.1-1.7,5.6-1.3,7.4,0.7C277.2,658.7,277.7,660.3,277.5,661.8z M293.6,679.4c-1,1.4-2.7,2.1-4.5,2.1
						c-1.1,0-2.1-0.3-3-0.9c-1-0.7-1.8-1.9-2-3.4c-0.2-1.5,0.1-3.1,1-4.2c1.6-2.1,5.2-2.5,7.4-0.9c1.1,0.9,1.9,2.3,2,3.9
						C294.7,677.3,294.3,678.5,293.6,679.4z M313.4,690.9c-1,1.7-3,2.7-4.9,2.7c-0.8,0-1.6-0.2-2.3-0.5c-1.1-0.6-2-1.7-2.4-3.1
						c-0.5-1.5-0.3-3,0.3-4.3c1.3-2.3,4.8-3.3,7.3-1.9c1.2,0.7,2.2,2.1,2.5,3.6C314.2,688.7,314,690,313.4,690.9z M334.1,700.8
						c-0.9,1.8-3,3-5.1,3c-0.7,0-1.3-0.1-1.9-0.4c-1.1-0.5-2.1-1.5-2.6-2.9c-0.6-1.4-0.5-3,0-4.3c0.5-1.1,1.6-2.1,2.9-2.5
						c1.5-0.5,3-0.5,4.2,0.1c1.3,0.6,2.3,1.9,2.8,3.4C334.8,698.5,334.7,699.8,334.1,700.8z M355.2,709.8c-0.8,2-3,3.3-5.2,3.3
						c-0.6,0-1.2-0.1-1.7-0.3c-1.2-0.4-2.2-1.5-2.8-2.8c-0.6-1.4-0.7-3-0.1-4.3c1-2.4,4.5-3.8,7-2.7c1.3,0.5,2.4,1.8,2.9,3.2
						C355.7,707.5,355.7,708.8,355.2,709.8z M377.4,715.4c-0.2,1.3-1,2.5-2.2,3.4c-1,0.7-2.1,1.1-3.3,1.1c-0.2,0-0.5,0-0.7-0.1
						c-1.3-0.2-2.5-1-3.4-2.3c-0.9-1.3-1.2-2.8-0.9-4.1c0.6-2.6,3.7-4.5,6.3-4c1.3,0.3,2.6,1.2,3.4,2.5
						C377.4,713,377.6,714.3,377.4,715.4z M395,721.6c0,0-0.1,0-0.1,0c-1.2,0-2.5-0.6-3.5-1.6c-1.1-1.1-1.7-2.5-1.7-3.9
						c0-2.6,2.7-5.2,5.5-5.2c1.4,0,2.9,0.8,3.9,1.9c0.9,1,1.3,2.2,1.2,3.3C400.2,718.9,397.7,721.5,395,721.6z M418.3,720.7
						c-0.1,0-0.3,0-0.4,0c-1.2,0-2.4-0.5-3.4-1.3c-1.2-1-1.9-2.3-2-3.7c-0.1-1.2,0.4-2.6,1.4-3.7c1-1.1,2.3-1.8,3.7-1.9
						c1.3-0.1,2.8,0.5,4,1.5c1,0.9,1.6,2.1,1.6,3.2C423.3,717.6,421.1,720.3,418.3,720.7z M445.1,713.5c-0.6,1.4-1.8,2.4-3.1,2.8
						c-0.5,0.2-0.9,0.2-1.4,0.2c-0.9,0-1.8-0.2-2.6-0.7c-1.4-0.7-2.4-2-2.7-3.3c-0.6-2.5,1.2-5.7,3.7-6.4c1.3-0.4,2.9-0.1,4.2,0.6
						c1.1,0.7,1.9,1.6,2.2,2.7C445.8,710.8,445.7,712.3,445.1,713.5z M463.9,704.8c-0.9,0.8-2,1.2-3.3,1.2c-0.2,0-0.5,0-0.7,0
						c-1.5-0.2-2.9-1-3.7-2.1c-1.5-2.1-1-5.6,1-7.3c1-0.8,2.4-1.2,3.9-1c1.3,0.1,2.5,0.7,3.2,1.6c0.9,0.9,1.4,2.3,1.3,3.7
						C465.7,702.4,465,703.8,463.9,704.8z M479,684.7c-0.6,1.3-1.7,2.3-3.2,2.8c-0.6,0.2-1.3,0.3-1.9,0.3c-0.8,0-1.6-0.2-2.3-0.6
						c-2.3-1.3-3.4-4.7-2.3-7c0.5-1.1,1.7-2.2,3.1-2.7c1.2-0.4,2.5-0.4,3.5,0c1.2,0.5,2.3,1.5,2.8,2.8
						C479.5,681.8,479.6,683.4,479,684.7z M477.4,509c-1.4,10-2,20.1-2.2,30.2c-0.5,20.3,0.6,40.5,0.3,60.8
						c-0.4,32.2-7.1,67.4-40.1,81.2c-23.3,9.8-49.9,4.8-74.1,1.9c-40.1-4.9-98.4-27.7-98.3-76.4c0.2,0,0.4-0.1,0.5-0.1
						c17.2-3.9,32.4-15,47.1-24.2c11.7-7.3,23.1-15,34.3-22.9c16.2-11.5,32.1-23.7,45.5-38.5c14.3-15.7,25.6-33.7,38.7-50.3
						c9.5-12.1,20.3-23.3,33.6-31.1c2,11.1,5,22.1,8.5,32.8c1.4,4.3,2.9,8.5,4.7,12.6c1.6,3.5,3.8,6.5,3.5,10.5
						C479.4,499.9,478,504.5,477.4,509z M500,514c-6.7-10.7-15.8-19.6-21-31.3c-6.1-14-9.9-29.6-12.8-44.5c-1-5.1-1.7-10.2-2.3-15.4
						c3,3.9,8.2,5.8,12.9,7.5c7.4,2.6,15.5,4.9,23.1,2.3c7.6,2.6,15.7,0.4,23.1-2.3c4.7-1.7,9.9-3.6,12.9-7.5
						c-0.5,5.2-1.3,10.3-2.3,15.4c-2.8,15-6.6,30.6-12.8,44.5C515.8,494.4,506.7,503.3,500,514z M537.2,692.4
						c-0.2,1.4-0.8,2.5-1.7,3.2c-0.9,0.8-2.2,1.2-3.4,1.2c-1.5,0-3.1-0.6-4.2-1.7c-0.9-1-1.3-2.4-1.1-3.8c0.2-1.6,1-3.1,2.1-3.9
						c2.3-1.7,5.7-0.8,7.2,1.1C537,689.4,537.4,690.9,537.2,692.4z M553.6,709.6c-0.7,1.2-2,2.1-3.6,2.5c-0.4,0.1-0.8,0.1-1.2,0.1
						c-1,0-1.9-0.3-2.7-0.8c-1.1-0.7-1.9-2-2.2-3.5c-0.3-1.5,0-3,0.8-4.1c1.6-2.2,5.2-2.8,7.3-1.2
						C554,704.1,555.1,707.4,553.6,709.6z M575,717.5c-0.3,1.2-1.2,2.4-2.4,3.1c-0.9,0.5-1.9,0.8-2.9,0.8c-0.4,0-0.8-0.1-1.3-0.2
						c-1.3-0.3-2.5-1.3-3.2-2.6c-0.7-1.3-0.9-2.8-0.5-4.1c0.8-2.5,4.1-4.2,6.7-3.4c1.2,0.4,2.4,1.5,3.1,2.8
						C575.2,715.1,575.4,716.3,575,717.5z M592.2,725c0,0-0.1,0-0.1,0c-1.2,0-2.4-0.6-3.4-1.6c-1.1-1.2-1.7-2.8-1.6-4.2
						c0.2-2.8,3.2-4.8,5.6-4.8h0c1.4,0.1,2.8,0.8,3.8,2c0.9,1,1.3,2.3,1.2,3.4C597.6,722.5,595,725,592.2,725z M564.5,681.2
						c-33-13.8-39.7-49-40.1-81.2c-0.2-20.3,0.8-40.5,0.3-60.8c-0.2-10.1-0.9-20.2-2.2-30.2c-0.6-4.5-2-9.1-2.3-13.6
						c-0.3-4,1.9-7,3.5-10.5c1.9-4.1,3.4-8.4,4.7-12.6c3.4-10.7,6.4-21.7,8.5-32.8c14.3,8.3,25.6,20.6,35.6,33.6
						c16,20.7,30.8,43.5,50.2,61.3c20.2,18.4,43.2,33.6,66.4,48c14.8,9.2,29.9,20.3,47.1,24.2c0.2,0,0.4,0.1,0.5,0.1
						c0.1,48.7-58.2,71.5-98.3,76.4C614.4,686.1,587.8,691,564.5,681.2z M616,724c-0.2,0-0.4,0-0.6,0c-1.1,0-2.3-0.4-3.3-1.2
						c-1.2-1-2-2.3-2.1-3.6c-0.3-2.6,2.1-5.5,4.8-5.8c1.3-0.1,2.9,0.4,4,1.4c1,0.9,1.6,2,1.7,3.2C620.9,720.9,618.7,723.6,616,724z
						 M639.2,719.6c-0.4,0.1-0.8,0.2-1.2,0.2c-0.9,0-1.9-0.3-2.8-0.8c-1.3-0.8-2.3-2-2.6-3.3c-0.3-1.2,0-2.6,0.7-3.8
						c0.8-1.3,2-2.2,3.3-2.5c1.2-0.3,2.8-0.1,4.1,0.8c1.1,0.7,1.9,1.8,2.1,2.9C643.5,715.6,641.8,718.7,639.2,719.6z M661.5,712.1
						c-0.6,0.2-1.2,0.4-1.8,0.4c-0.7,0-1.4-0.1-2.1-0.4c-1.4-0.6-2.5-1.7-3-3c-0.9-2.5,0.6-5.9,3.1-6.9c1.3-0.5,2.9-0.4,4.3,0.3
						c1.2,0.6,2.1,1.5,2.4,2.7C665.3,707.7,664,711,661.5,712.1z M682.7,702.1c-0.7,0.4-1.5,0.6-2.3,0.6c-0.5,0-1.1-0.1-1.6-0.2
						c-1.5-0.4-2.7-1.4-3.3-2.6c-0.6-1.1-0.7-2.6-0.2-3.9c0.5-1.4,1.4-2.6,2.6-3.2c1.2-0.6,2.8-0.7,4.3-0.1c1.3,0.5,2.2,1.3,2.7,2.4
						C686.1,697.4,685.2,700.7,682.7,702.1z M702.8,689.7c-0.8,0.6-1.8,0.9-2.9,0.9c-0.4,0-0.7,0-1.1-0.1c-1.5-0.3-2.8-1.1-3.6-2.2
						c-0.7-1-0.9-2.5-0.7-3.9c0.3-1.5,1.1-2.7,2.2-3.5c1.1-0.7,2.7-1,4.2-0.7c1.3,0.3,2.4,1,3,2
						C705.5,684.5,704.9,688.1,702.8,689.7z M721.1,674.8c-0.9,0.9-2.2,1.4-3.6,1.4c-0.1,0-0.1,0-0.2,0c-1.5,0-2.9-0.7-3.8-1.7
						c-1.8-2-1.5-5.7,0.5-7.5c1-0.9,2.5-1.4,4.1-1.2c1.4,0.1,2.5,0.7,3.2,1.6C723.1,669.3,723,672.9,721.1,674.8z M737.1,657.4
						c-0.8,1-2.1,1.7-3.6,1.9c-0.2,0-0.5,0-0.7,0c-1.3,0-2.4-0.4-3.3-1.1c-1-0.8-1.6-2.1-1.8-3.6c-0.1-1.5,0.3-2.9,1.1-3.9
						c0.9-1.1,2.4-1.8,3.9-1.9c1.3-0.1,2.4,0.3,3.3,1c1.1,0.8,1.8,2.1,2,3.6C738.2,654.9,737.9,656.3,737.1,657.4z M749.6,632.6
						c0.6,1.4,0.6,2.9,0,4.2c-0.5,1.2-1.7,2.2-3.1,2.7c-0.6,0.2-1.3,0.3-1.9,0.3c-0.8,0-1.5-0.2-2.2-0.5c-2.4-1.2-3.5-4.7-2.4-7.1
						c0.6-1.2,1.9-2.2,3.3-2.7c1.3-0.4,2.5-0.3,3.5,0.2C748,630.3,749,631.3,749.6,632.6z M753,575.7c-0.8,1.4-2.1,2.4-3.5,2.7
						c-0.3,0.1-0.6,0.1-1,0.1c-1.2,0-2.5-0.4-3.5-1.2c-1.1-0.8-1.7-1.9-1.8-3c-0.5-2.7,1.4-5.6,4-6.3c2.5-0.7,5.6,1.2,6.4,3.9
						C754,573.1,753.8,574.4,753,575.7z M775.3,567.7c-0.6,1.5-1.7,2.6-3,3.2c-0.6,0.2-1.2,0.3-1.8,0.3c-0.9,0-1.8-0.2-2.6-0.6
						c-1.2-0.6-2-1.6-2.3-2.7c-0.9-2.6,0.4-5.8,2.9-6.9c2.4-1.1,5.8,0.3,7,2.8C775.8,565,775.8,566.4,775.3,567.7z M795.9,556.3
						c-0.3,1.5-1.2,2.9-2.4,3.7c-0.8,0.5-1.7,0.7-2.7,0.7c-0.6,0-1.3-0.1-1.9-0.3c-1.3-0.4-2.2-1.2-2.7-2.3
						c-1.3-2.4-0.5-5.7,1.8-7.2c1-0.7,2.3-0.9,3.7-0.6c1.5,0.3,2.9,1.1,3.7,2.3C796,553.6,796.2,554.9,795.9,556.3z M812.6,545.9
						c-0.9,0.8-2.2,1.2-3.5,1.2c-0.3,0-0.6,0-0.9-0.1c-1.3-0.2-2.4-0.8-3-1.8c-1.7-2.2-1.4-5.6,0.6-7.4c2-1.8,5.6-1.5,7.5,0.5
						c0.9,0.9,1.3,2.3,1.2,3.7C814.4,543.5,813.7,545,812.6,545.9z M829.3,528.8c-0.9,1.1-2.5,1.8-4.1,1.8h0c-1.3,0-2.5-0.5-3.3-1.3
						c-2-1.9-2.3-5.3-0.6-7.4c0.8-1,2-1.6,3.4-1.8c1.5-0.2,3,0.2,4.1,1.1c1,0.8,1.6,2.1,1.7,3.5
						C830.7,526.3,830.2,527.8,829.3,528.8z M843.9,511.1c-0.9,1-2.4,1.7-4,1.7h-0.1c-1.3,0-2.4-0.4-3.2-1.2
						c-2.1-1.8-2.4-5.4-0.6-7.5c0.8-1,2.1-1.6,3.6-1.7c1.5-0.1,3,0.3,4,1.3C845.6,505.3,845.7,509.1,843.9,511.1z M859.6,495.8
						c-0.8,0.6-1.9,0.9-3.1,0.9c-0.3,0-0.7,0-1-0.1c-1.3-0.2-2.4-0.9-3.1-1.8c-1.7-2.2-1.3-5.7,0.9-7.5c1.1-0.8,2.5-1.2,4-1
						c1.5,0.2,2.8,1,3.6,2.1C862.4,490.6,861.8,494.2,859.6,495.8z M878.3,484.8c-0.6,0.2-1.2,0.3-1.8,0.3c-0.8,0-1.7-0.2-2.4-0.5
						c-1.2-0.5-2.1-1.4-2.5-2.5c-0.5-1.2-0.6-2.6-0.1-4c0.5-1.4,1.5-2.5,2.8-3.1c1.2-0.6,2.7-0.5,4.1,0c1.4,0.6,2.5,1.6,3,2.9
						C882.3,480.4,880.8,483.7,878.3,484.8z M902.7,476.1c-0.9,1.3-2.1,2.1-3.5,2.4c-0.2,0-0.5,0.1-0.8,0.1c-1.2,0-2.4-0.4-3.4-1.2
						c-1.1-0.8-1.7-1.9-1.9-3c-0.5-2.7,1.4-5.7,4.2-6.3c1.2-0.3,2.6,0,3.8,0.8c1.3,0.8,2.2,2.1,2.5,3.5
						C903.8,473.5,903.5,474.9,902.7,476.1z M890.6,459.5c-24.6,4.6-47.3,10.9-68.9,24.3c-22.4,13.9-40.6,33.3-60,50.8
						c-10.7,9.7-21.9,18.9-34.4,26.3c-6.2,3.7-12.7,6.9-19.4,9.4c-3.4,1.3-6.9,2.4-10.5,3.3c-2.7,0.7-5.2,1.9-8,2.1
						c-4.3,0.3-7.9-2.8-11.4-5c-4.1-2.7-8.1-5.5-12.2-8.2c-7.5-5.1-14.9-10.3-22-15.8c-14.3-11-27.7-23.3-39.3-37.2
						c-2.9-3.5-5.7-7.1-8.4-10.7c-9.7-13-18.6-26.6-29.2-38.9c-5.3-6.1-11-11.8-17.3-16.8c-3.1-2.4-6.8-4.3-9.8-6.8
						c-3.1-2.6-1.4-5.6-1-9.1c0.4-3.7,0.7-7.3,0.8-11c0.5-15.1-0.4-32.6-7.9-46.2c24.3,12.3,55,9,81.1,6.7c34.9-3,69.4-9,104.3-12
						c13.8-1.2,27.8-1.6,41.7-1.3c18.4,0.5,36.8,2.3,55,5.6c18.1,3.3,36,7.9,53.4,14.1c8.7,3.1,17.3,6.5,25.7,10.3
						c4.2,1.9,8.4,3.9,12.5,6c3.9,2,6.4,4,9,7.5c1.8,2.3,3.2,4.9,4.4,7.5c2.3,5.4,3.1,11.3,2.2,17.1
						C918.4,447.5,905.7,456.7,890.6,459.5z M925.6,470.6c-0.7,1.4-2,2.5-3.4,2.9c-0.4,0.1-0.8,0.2-1.3,0.2c-1.1,0-2.2-0.3-3.1-0.9
						c-1.2-0.8-1.9-1.8-2-3c-0.6-2.6,1-5.6,3.5-6.4c2.5-0.8,5.6,0.8,6.7,3.4C926.4,467.8,926.3,469.3,925.6,470.6z M930.4,401.1
						c-1.1,0-2.2-0.3-3.1-0.9c-2.1-1.6-2.6-5.2-1-7.4c0.7-1,2-1.7,3.4-1.9c1.6-0.2,3.1,0.2,4.2,1.1c1.1,0.9,1.9,2.4,1.9,4.1
						c0,1.4-0.4,2.6-1.3,3.4C933.6,400.5,932,401.1,930.4,401.1z M944.2,460.5c-0.9,1-2.4,1.7-4,1.7c-0.1,0-0.3,0-0.4,0
						c-1.4-0.1-2.6-0.7-3.2-1.7c-1.6-2-1.7-5.3-0.2-7.1c1.6-1.8,5.1-2.2,7.3-0.7c1.1,0.7,1.8,1.9,1.9,3.4
						C945.8,457.7,945.3,459.4,944.2,460.5z M951.6,440.5c-0.8,0.5-1.6,0.7-2.4,0.7c-0.4,0-0.7-0.1-1.1-0.2
						c-2.6-0.6-4.7-3.3-4.5-5.7c0-2.4,2.7-4.8,5.5-4.9c1.3,0,2.5,0.5,3.5,1.6c1.1,1.2,1.7,2.8,1.6,4.4
						C954.1,438.1,953,439.7,951.6,440.5z"/>
				</g>
			</g>
		</g>
	</g>
</g>
</svg>
