<?xml version="1.0" encoding="utf-8"?>
<!-- Generator: Adobe Illustrator 21.1.0, SVG Export Plug-In . SVG Version: 6.00 Build 0)  -->
<svg version="1.1" id="Layer_1" xmlns="http://www.w3.org/2000/svg" xmlns:xlink="http://www.w3.org/1999/xlink" x="0px" y="0px"
	 viewBox="0 0 1000 1000" enable-background="new 0 0 1000 1000" xml:space="preserve">
<g>
	<g>
		<g>
			<linearGradient id="SVGID_1_" gradientUnits="userSpaceOnUse" x1="22.1457" y1="500" x2="977.8543" y2="500">
				<stop  offset="1.862220e-02" style="stop-color:#9A8684"/>
				<stop  offset="0.4235" style="stop-color:#D3C5C6"/>
				<stop  offset="0.4999" style="stop-color:#DED1D3"/>
				<stop  offset="0.5991" style="stop-color:#D1C0C0"/>
				<stop  offset="0.7129" style="stop-color:#C7B4B1"/>
				<stop  offset="0.8064" style="stop-color:#C4AFAC"/>
				<stop  offset="0.8566" style="stop-color:#B8A19E"/>
				<stop  offset="0.9516" style="stop-color:#977E78"/>
				<stop  offset="0.9972" style="stop-color:#866B64"/>
			</linearGradient>
			<path fill="url(#SVGID_1_)" d="M516.2,995c-76.4,0-153.8-17.7-226.2-55.1C47.5,814.7-48,515.5,77.3,273.1
				C181.4,71.3,408.5-33.6,629.3,18.1l42.9,10l-43.9,3.3c-141.1,10.7-264,92.1-328.9,217.6c-102.2,198-24.3,442.3,173.7,544.5
				c158.3,81.7,348.5,51.4,473.4-75.4l31.3-31.8l-21,40.9C869,897.3,695.6,995,516.2,995z M516.5,18.6
				c-176.9,0-343.1,97.9-427.2,260.7c-121.8,235.8-29,526.8,206.9,648.6c223.4,115.4,496.3,38.2,628-170.8
				C796,863,617.5,883.3,466.9,805.6l0,0C262.3,699.9,181.7,447.4,287.4,242.8C347.7,126,456.7,46.2,584.3,23.4
				C561.6,20.1,538.9,18.6,516.5,18.6z"/>
		</g>
	</g>
</g>
</svg>
