<?xml version="1.0" encoding="utf-8"?>
<!-- Generator: Adobe Illustrator 21.1.0, SVG Export Plug-In . SVG Version: 6.00 Build 0)  -->
<svg version="1.1" id="Layer_1" xmlns="http://www.w3.org/2000/svg" xmlns:xlink="http://www.w3.org/1999/xlink" x="0px" y="0px"
	 viewBox="0 0 1000 1000" enable-background="new 0 0 1000 1000" xml:space="preserve">
<g>
	<g>
		<g>
			<g>
				<g>
					<linearGradient id="SVGID_1_" gradientUnits="userSpaceOnUse" x1="86.1345" y1="500" x2="913.8655" y2="500">
						<stop  offset="1.862220e-02" style="stop-color:#9A8684"/>
						<stop  offset="0.4235" style="stop-color:#D3C5C6"/>
						<stop  offset="0.4999" style="stop-color:#DED1D3"/>
						<stop  offset="0.5991" style="stop-color:#D1C0C0"/>
						<stop  offset="0.7129" style="stop-color:#C7B4B1"/>
						<stop  offset="0.8064" style="stop-color:#C4AFAC"/>
						<stop  offset="0.8566" style="stop-color:#B8A19E"/>
						<stop  offset="0.9516" style="stop-color:#977E78"/>
						<stop  offset="0.9972" style="stop-color:#866B64"/>
					</linearGradient>
					<path fill="url(#SVGID_1_)" d="M500,995L500,995c0-495,0-495-413.9-495l0,0C500,500,500,500,500,5l0,0c0,495,0,495,413.9,495
						l0,0C500,500,500,500,500,995z"/>
				</g>
			</g>
		</g>
	</g>
	<g>
		<g>
			<g>
				<g>
					<linearGradient id="SVGID_2_" gradientUnits="userSpaceOnUse" x1="5.5596" y1="500" x2="994.4404" y2="500">
						<stop  offset="1.862220e-02" style="stop-color:#9A8684"/>
						<stop  offset="0.4235" style="stop-color:#D3C5C6"/>
						<stop  offset="0.4999" style="stop-color:#DED1D3"/>
						<stop  offset="0.5991" style="stop-color:#D1C0C0"/>
						<stop  offset="0.7129" style="stop-color:#C7B4B1"/>
						<stop  offset="0.8064" style="stop-color:#C4AFAC"/>
						<stop  offset="0.8566" style="stop-color:#B8A19E"/>
						<stop  offset="0.9516" style="stop-color:#977E78"/>
						<stop  offset="0.9972" style="stop-color:#866B64"/>
					</linearGradient>
					<path fill="url(#SVGID_2_)" d="M500,994.4L500,994.4C500,500,500,500,5.6,500l0,0C500,500,500,500,500,5.6l0,0
						C500,500,500,500,994.4,500l0,0C500,500,500,500,500,994.4z"/>
				</g>
			</g>
		</g>
	</g>
	<g>
		<g>
			<g>
				<g>
					<linearGradient id="SVGID_3_" gradientUnits="userSpaceOnUse" x1="220.8307" y1="500.0007" x2="779.1722" y2="500.0007">
						<stop  offset="1.862220e-02" style="stop-color:#9A8684"/>
						<stop  offset="0.4235" style="stop-color:#D3C5C6"/>
						<stop  offset="0.4999" style="stop-color:#DED1D3"/>
						<stop  offset="0.5991" style="stop-color:#D1C0C0"/>
						<stop  offset="0.7129" style="stop-color:#C7B4B1"/>
						<stop  offset="0.8064" style="stop-color:#C4AFAC"/>
						<stop  offset="0.8566" style="stop-color:#B8A19E"/>
						<stop  offset="0.9516" style="stop-color:#977E78"/>
						<stop  offset="0.9972" style="stop-color:#866B64"/>
					</linearGradient>
					<path fill="url(#SVGID_3_)" d="M220.8,779.2L220.8,779.2C500,500,500,500,220.8,220.8l0,0C500,500,500,500,779.2,220.8l0,0
						C500,500,500,500,779.2,779.2l0,0C500,500,500,500,220.8,779.2z"/>
				</g>
			</g>
		</g>
	</g>
</g>
</svg>
