<svg id="Filled_stroke_cut_Ex" data-name="Filled stroke cut Ex" xmlns="http://www.w3.org/2000/svg" width="512" height="512" viewBox="0 0 512 512">
  <title>emergency- call- alert- smartphone- application</title>
  <g>
    <rect x="200" y="24" width="256" height="464" rx="20" ry="20" style="fill: #d6f4f6"/>
    <path d="M200,440H456a0,0,0,0,1,0,0v28a20,20,0,0,1-20,20H220a20,20,0,0,1-20-20V440A0,0,0,0,1,200,440Z" style="fill: #31cad0"/>
    <path d="M352,304l-25.1-85.507a144,144,0,1,0-60.176,72.627Z" style="fill: #fdf1ef"/>
  </g>
  <g>
    <path d="M192,112h0a56,56,0,0,1,56,56v56a0,0,0,0,1,0,0H136a0,0,0,0,1,0,0V168a56,56,0,0,1,56-56Z" style="fill: #e64b30"/>
    <path d="M140,224H244a20,20,0,0,1,20,20v12a0,0,0,0,1,0,0H120a0,0,0,0,1,0,0V244A20,20,0,0,1,140,224Z" style="fill: #b33a25"/>
  </g>
  <rect x="248" y="344" width="160" height="64" rx="20" ry="20" style="fill: #31cad0"/>
  <g>
    <path d="M448,432H208V336H192V468a28.032,28.032,0,0,0,28,28H436a28.032,28.032,0,0,0,28-28V312H448Zm-12,48H220a12.013,12.013,0,0,1-12-12V448H448v20A12.013,12.013,0,0,1,436,480Z"/>
    <path d="M436,16H280V32H436a12.013,12.013,0,0,1,12,12V296h16V44A28.032,28.032,0,0,0,436,16Z"/>
    <path d="M268.354,299.458l82.452,12.452a8,8,0,0,0,8.87-10.163l-24.362-82.986A151.494,151.494,0,0,0,344,168c0-83.813-68.187-152-152-152A151.776,151.776,0,0,0,51.926,108.887l14.738,6.226A135.809,135.809,0,0,1,192,32c74.99,0,136,61.009,136,136a135.511,135.511,0,0,1-8.594,47.687,8,8,0,0,0-.183,5.059l21.567,73.47L267.917,283.21a8,8,0,0,0-5.352,1.075A135.736,135.736,0,0,1,192,304c-74.99,0-136-61.009-136-136a136.257,136.257,0,0,1,5.314-37.782l-15.373-4.436A152.264,152.264,0,0,0,40,168c0,83.813,68.187,152,152,152A151.766,151.766,0,0,0,268.354,299.458Z"/>
    <rect x="184" y="48" width="16" height="40"/>
    <rect x="124" y="75.029" width="16" height="33.941" transform="translate(-26.392 120.284) rotate(-45)"/>
    <rect x="235.029" y="84" width="33.941" height="16" transform="translate(8.76 205.148) rotate(-45.002)"/>
    <path d="M112,256a8,8,0,0,0,8,8H264a8,8,0,0,0,8-8V244a28.035,28.035,0,0,0-16-25.3V168a64,64,0,0,0-128,0v50.7A28.035,28.035,0,0,0,112,244Zm32-88a48,48,0,0,1,96,0v48H144Zm-16,76a12.013,12.013,0,0,1,12-12H244a12.013,12.013,0,0,1,12,12v4H128Z"/>
    <rect x="200" y="144" width="16" height="16"/>
    <path d="M268,336a28.032,28.032,0,0,0-28,28v24a28.032,28.032,0,0,0,28,28H388a28.032,28.032,0,0,0,28-28V364a28.032,28.032,0,0,0-28-28Zm132,28v24a12.013,12.013,0,0,1-12,12H268a12.013,12.013,0,0,1-12-12V364a12.013,12.013,0,0,1,12-12H388A12.013,12.013,0,0,1,400,364Z"/>
    <path d="M432,80V56a8,8,0,0,0-8-8H400V64h16V80Z"/>
  </g>
</svg>
