<?xml version="1.0" encoding="utf-8"?>
<!-- Generator: Adobe Illustrator 24.0.0, SVG Export Plug-In . SVG Version: 6.00 Build 0)  -->
<svg version="1.1" xmlns="http://www.w3.org/2000/svg" xmlns:xlink="http://www.w3.org/1999/xlink" x="0px" y="0px"
	 viewBox="0 0 256 256" enable-background="new 0 0 256 256" xml:space="preserve">
<g id="Layer_1">
</g>
<g id="Layer_2">
</g>
<g id="Layer_3">
</g>
<g id="Layer_4">
</g>
<g id="Layer_5">
</g>
<g id="Layer_6">
</g>
<g id="Layer_7">
</g>
<g id="Layer_8">
</g>
<g id="Layer_9">
</g>
<g id="Layer_10">
</g>
<g id="Layer_11">
</g>
<g id="Layer_12">
</g>
<g id="Layer_13">
</g>
<g id="Layer_14">
</g>
<g id="Layer_15">
</g>
<g id="Layer_16">
</g>
<g id="Layer_17">
</g>
<g id="Layer_18">
</g>
<g id="Layer_19">
</g>
<g id="Layer_20">
</g>
<g id="Layer_21">
</g>
<g id="Layer_22">
</g>
<g id="Layer_23">
</g>
<g id="Layer_24">
</g>
<g id="Layer_25">
</g>
<g id="Layer_26">
</g>
<g id="Layer_27">
</g>
<g id="Layer_28">
</g>
<g id="Layer_29">
</g>
<g id="Layer_30">
</g>
<g id="Layer_31">
</g>
<g id="Layer_32">
</g>
<g id="Layer_33">
</g>
<g id="Layer_34">
</g>
<g id="Layer_35">
</g>
<g id="Layer_36">
</g>
<g id="Layer_37">
</g>
<g id="Layer_38">
</g>
<g id="Layer_39">
</g>
<g id="Layer_40">
</g>
<g id="Layer_41">
</g>
<g id="Layer_42">
</g>
<g id="Layer_43">
</g>
<g id="Layer_44">
</g>
<g id="Layer_45">
</g>
<g id="Layer_46">
</g>
<g id="Layer_47">
</g>
<g id="Layer_48">
</g>
<g id="Layer_49">
</g>
<g id="Layer_50">
</g>
<g id="Layer_51">
</g>
<g id="Layer_52">
</g>
<g id="Layer_53">
</g>
<g id="Layer_54">
</g>
<g id="Layer_55">
</g>
<g id="Layer_56">
</g>
<g id="Layer_57">
</g>
<g id="Layer_58">
</g>
<g id="Layer_59">
</g>
<g id="Layer_60">
</g>
<g id="Layer_61">
</g>
<g id="Layer_62">
</g>
<g id="Layer_63">
</g>
<g id="Layer_64">
</g>
<g id="Layer_65">
</g>
<g id="Layer_66">
</g>
<g id="Layer_67">
</g>
<g id="Layer_68">
</g>
<g id="Layer_69">
</g>
<g id="Layer_70">
</g>
<g id="Layer_71">
</g>
<g id="Layer_72">
</g>
<g id="Layer_73">
	<g>
		<g>
			<g>
				<path fill="#9BE5F9" d="M247.232,158.928c-1.759-3.064-5.668-4.122-8.733-2.364l-11.36,6.521
					c16.376-62.431-23.647-125.738-86.853-137.751c-3.463-0.659-6.819,1.619-7.479,5.091c-0.66,3.471,1.619,6.819,5.09,7.479
					c55.98,10.64,91.186,66.607,76.954,121.621l-6.36-11.082c-1.759-3.064-5.665-4.123-8.734-2.364
					c-3.063,1.758-4.122,5.668-2.364,8.732l14.127,24.613c1.75,3.049,5.656,4.13,8.733,2.363l24.613-14.127
					C247.932,165.902,248.991,161.992,247.232,158.928z"/>
			</g>
		</g>
		<g>
			<g>
				<path fill="#3CAADC" d="M107.325,24.926L82.784,10.675c-3.055-1.774-6.97-0.735-8.745,2.319
					c-1.774,3.056-0.736,6.971,2.319,8.745l10.924,6.344C26.675,46.24-6.683,111.59,14.112,171.387
					c1.166,3.354,4.824,5.096,8.143,3.941c3.337-1.16,5.101-4.806,3.941-8.143C7.797,114.269,37.312,56.391,90.983,40.328
					l-6.654,11.458c-1.774,3.056-0.736,6.97,2.319,8.745c3.054,1.774,6.97,0.736,8.745-2.319l14.252-24.541
					C111.418,30.618,110.38,26.7,107.325,24.926z"/>
			</g>
		</g>
		<g>
			<g>
				<path fill="#70D6F9" d="M203.023,198.601c-2.674-2.311-6.713-2.018-9.023,0.655c-37.899,43.826-105.084,45.679-145.355,4.255
					l12.99,0.033h0.017c3.525,0,6.388-2.854,6.397-6.381c0.009-3.533-2.848-6.405-6.381-6.414l-28.378-0.072h-0.017
					c-3.525,0-6.388,2.854-6.397,6.381l-0.072,28.378c-0.009,3.533,2.848,6.404,6.381,6.413h0.017c3.525,0,6.388-2.854,6.397-6.381
					l0.033-12.879c45.694,46.814,121.448,44.299,164.046-4.966C205.988,204.952,205.694,200.912,203.023,198.601z"/>
			</g>
		</g>
		<g>
			<g>
				<path fill="#B2E26D" d="M164.688,88.564H78.421c-8.798,0-15.997,7.199-15.997,15.997v52.025c0,8.798,7.198,15.997,15.997,15.997
					c1.448,0,2.622,1.174,2.622,2.623v14.702c0,2.946,3.699,4.261,5.558,1.976l14.262-17.523c0.915-1.125,2.288-1.777,3.739-1.777
					h60.086c8.798,0,15.997-7.198,15.997-15.997v-52.025C180.685,95.763,173.486,88.564,164.688,88.564z"/>
			</g>
		</g>
		<g>
			<g>
				<path fill="#F5C84C" d="M193.8,15.396c-4.5-0.8-8-4.3-8.9-8.7c0-0.2-0.4-0.2-0.4,0c-0.9,4.4-4.4,7.9-8.9,8.7
					c-0.2,0-0.2,0.3,0,0.4c4.5,0.8,8,4.3,8.9,8.7c0,0.2,0.4,0.2,0.4,0c0.9-4.4,4.4-7.9,8.9-8.7C194,15.697,194,15.396,193.8,15.396z
					"/>
			</g>
		</g>
		<g>
			<g>
				<path fill="#F5C84C" d="M61.61,249.51c-3.158-0.562-5.613-3.018-6.245-6.104c0-0.141-0.281-0.141-0.281,0
					c-0.631,3.087-3.087,5.543-6.245,6.104c-0.14,0-0.14,0.21,0,0.28c3.158,0.562,5.613,3.018,6.245,6.104
					c0,0.141,0.281,0.141,0.281,0c0.631-3.087,3.087-5.543,6.245-6.104C61.75,249.72,61.75,249.51,61.61,249.51z"/>
			</g>
		</g>
		<g>
			<g>
				<path fill="#FC657E" d="M233.7,215.646h-2.3v-2.3c0-1.7-1.4-3.2-3.2-3.2s-3.2,1.4-3.2,3.2v2.3h-2.3c-1.7,0-3.2,1.4-3.2,3.2
					c0,1.8,1.4,3.2,3.2,3.2h2.3v2.3c0,1.7,1.4,3.2,3.2,3.2s3.2-1.4,3.2-3.2v-2.3h2.3c1.7,0,3.2-1.4,3.2-3.2
					C236.9,217.046,235.5,215.646,233.7,215.646z"/>
			</g>
		</g>
		<g>
			<g>
				<path fill="#87D147" d="M148.8,0c-1.878,0-3.4,1.522-3.4,3.4c0,1.878,1.522,3.4,3.4,3.4s3.4-1.522,3.4-3.4
					C152.2,1.522,150.677,0,148.8,0z"/>
			</g>
		</g>
		<g>
			<g>
				<path fill="#70D6F9" d="M204.8,234c-1.878,0-3.4,1.522-3.4,3.4c0,1.878,1.522,3.4,3.4,3.4s3.4-1.522,3.4-3.4
					C208.2,235.522,206.677,234,204.8,234z"/>
			</g>
		</g>
		<g>
			<g>
				<g>
					<path d="M249.4,157.684L249.4,157.684c-2.442-4.255-7.89-5.731-12.145-3.287l-6.358,3.648
						c6.108-29.078,0.776-58.733-15.245-84.105c-17.04-26.986-43.64-45.12-74.897-51.062c-2.332-0.442-4.699,0.049-6.665,1.385
						c-1.967,1.337-3.294,3.359-3.738,5.694s0.048,4.703,1.386,6.668c1.337,1.964,3.359,3.29,5.694,3.734
						c26.303,4.999,48.703,20.241,63.076,42.917c13.278,20.951,17.921,45.382,13.316,69.434l-3.164-5.512
						c-2.439-4.251-7.886-5.728-12.146-3.288c-4.253,2.442-5.729,7.891-3.287,12.146l14.128,24.612
						c1.18,2.056,3.09,3.532,5.379,4.155c0.778,0.212,1.567,0.317,2.352,0.317c1.534,0,3.048-0.4,4.414-1.186l24.613-14.127
						c2.062-1.183,3.539-3.098,4.16-5.392C250.894,162.144,250.584,159.744,249.4,157.684z M245.446,163.13
						c-0.272,1.005-0.92,1.844-1.822,2.362l-24.614,14.127c-0.905,0.52-1.955,0.65-2.962,0.381c-1.003-0.273-1.841-0.92-2.357-1.82
						l-14.127-24.612c-1.069-1.864-0.424-4.251,1.438-5.32c0.61-0.35,1.276-0.516,1.935-0.516c1.353,0,2.668,0.702,3.388,1.955
						l6.36,11.081c0.506,0.883,1.495,1.37,2.502,1.233c1.007-0.136,1.832-0.867,2.086-1.852c6.978-26.971,2.406-55.966-12.542-79.55
						c-15.121-23.856-38.689-39.893-66.365-45.152c-1.023-0.194-1.909-0.775-2.495-1.636s-0.801-1.897-0.606-2.921
						c0.194-1.021,0.776-1.907,1.638-2.493c0.862-0.586,1.898-0.802,2.919-0.607c29.882,5.68,55.312,23.017,71.604,48.819
						c16.316,25.84,21.039,56.325,13.297,85.84c-0.256,0.975,0.099,2.008,0.898,2.62c0.802,0.612,1.891,0.686,2.764,0.183
						l11.36-6.52c1.866-1.068,4.25-0.422,5.32,1.439C245.582,161.075,245.718,162.126,245.446,163.13z"/>
				</g>
			</g>
		</g>
		<g>
			<g>
				<g>
					<path d="M112.712,28.178c-0.609-2.298-2.077-4.221-4.131-5.414L84.04,8.513c-2.055-1.193-4.453-1.516-6.75-0.905
						c-2.297,0.609-4.219,2.076-5.413,4.132c-2.463,4.242-1.016,9.698,3.226,12.162l6.093,3.538
						c-27.492,9.707-49.807,29.241-63.227,55.497c-14.3,27.978-16.509,59.682-6.218,89.272c0.783,2.251,2.396,4.06,4.542,5.093
						c1.224,0.589,2.537,0.886,3.856,0.886c0.984,0,1.972-0.165,2.928-0.498c4.633-1.61,7.092-6.691,5.481-11.326
						c-8.683-24.972-6.814-51.731,5.262-75.349C44.873,69.398,63.069,53.186,85.49,44.81l-3.323,5.721
						c-1.193,2.056-1.515,4.453-0.906,6.75c0.609,2.297,2.077,4.219,4.131,5.412c4.24,2.462,9.698,1.017,12.163-3.225l14.251-24.541
						C113,32.872,113.321,30.476,112.712,28.178z M107.482,32.415L93.231,56.956c-1.08,1.858-3.468,2.493-5.328,1.412
						c-0.9-0.522-1.542-1.364-1.81-2.37c-0.267-1.006-0.125-2.056,0.397-2.956l6.654-11.458c0.515-0.887,0.436-1.999-0.199-2.804
						c-0.635-0.806-1.7-1.141-2.68-0.848c-26.587,7.958-48.215,26.001-60.898,50.806c-12.703,24.844-14.668,52.995-5.533,79.267
						c0.706,2.03-0.371,4.257-2.401,4.962c-0.98,0.341-2.035,0.28-2.973-0.17c-0.939-0.452-1.645-1.244-1.988-2.23
						c-9.838-28.29-7.726-58.603,5.948-85.354C36.078,58.494,59.368,39.056,88,30.478c0.955-0.286,1.648-1.111,1.766-2.102
						c0.117-0.989-0.366-1.954-1.228-2.455l-10.924-6.344c-1.858-1.079-2.492-3.469-1.414-5.327c0.523-0.9,1.365-1.543,2.372-1.81
						c0.333-0.089,0.67-0.133,1.006-0.133c0.678,0,1.348,0.18,1.95,0.529l24.542,14.251c0.899,0.522,1.542,1.364,1.809,2.371
						C108.146,30.466,108.005,31.516,107.482,32.415z"/>
				</g>
			</g>
		</g>
		<g>
			<g>
				<g>
					<path d="M207.712,202.796c-0.172-2.37-1.257-4.531-3.054-6.086c0,0-0.001,0-0.001-0.001c-1.798-1.556-4.091-2.317-6.464-2.144
						c-2.37,0.173-4.531,1.258-6.084,3.055c-17.587,20.337-43.075,32.449-69.931,33.232c-24.814,0.703-49.016-8.265-67.326-24.826
						l6.799,0.018c4.893,0,8.884-3.981,8.897-8.876c0.006-2.376-0.914-4.612-2.59-6.297s-3.908-2.616-6.285-2.622l-28.401-0.072
						c-4.894,0-8.885,3.981-8.897,8.876l-0.072,28.378c-0.012,4.905,3.969,8.907,8.898,8.919c4.894,0,8.884-3.981,8.896-8.874
						l0.018-6.985c20.989,19.351,48.678,30.2,77.256,30.2c1.132,0,2.269-0.018,3.403-0.052
						c31.806-0.959,61.982-15.313,82.792-39.379C207.122,207.462,207.884,205.167,207.712,202.796z M201.786,205.989
						c-19.897,23.011-48.751,36.734-79.162,37.652c-30.829,0.921-59.654-10.719-81.205-32.798c-0.48-0.492-1.128-0.754-1.79-0.754
						c-0.316,0-0.635,0.06-0.939,0.184c-0.941,0.382-1.558,1.295-1.56,2.31l-0.033,12.88c-0.005,2.143-1.753,3.887-3.907,3.887
						c-1.041-0.003-2.019-0.41-2.753-1.148c-0.734-0.737-1.137-1.718-1.134-2.759l0.072-28.378c0.005-2.144,1.753-3.888,3.907-3.888
						l28.378,0.072c1.041,0.003,2.019,0.41,2.753,1.148s1.137,1.718,1.135,2.758c-0.006,2.145-1.754,3.889-3.907,3.889l-12.99-0.033
						c-0.002,0-0.004,0-0.006,0c-1.003,0-1.91,0.6-2.302,1.524c-0.393,0.926-0.192,1.997,0.509,2.718
						c19.703,20.269,47.2,31.404,75.472,30.598c28.252-0.823,55.066-13.565,73.567-34.96c0.681-0.787,1.627-1.263,2.664-1.338
						c1.038-0.074,2.044,0.259,2.832,0.939c0.787,0.681,1.262,1.628,1.337,2.666C202.801,204.196,202.467,205.201,201.786,205.989z"
						/>
				</g>
			</g>
		</g>
		<g>
			<g>
				<g>
					<path d="M164.687,86.064H78.421c-10.199,0-18.497,8.297-18.497,18.496v52.024c0,10.199,8.297,18.497,18.497,18.497
						c0.067,0,0.123,0.055,0.123,0.122v14.702c0,2.414,1.47,4.496,3.744,5.306c0.633,0.225,1.28,0.334,1.917,0.334
						c1.651,0,3.236-0.734,4.335-2.085l14.262-17.523c0.442-0.544,1.099-0.855,1.8-0.855h60.085
						c10.199,0,18.497-8.298,18.497-18.497v-52.024C183.185,94.361,174.887,86.064,164.687,86.064z M178.185,156.585
						c0,7.442-6.055,13.497-13.497,13.497h-60.085c-2.212,0-4.282,0.983-5.678,2.699l-14.262,17.523
						c-0.187,0.229-0.422,0.298-0.7,0.195c-0.278-0.099-0.419-0.299-0.419-0.594v-14.702c0-2.824-2.298-5.122-5.123-5.122
						c-7.442,0-13.497-6.055-13.497-13.497v-52.024c0-7.441,6.055-13.496,13.497-13.496h86.267c7.442,0,13.497,6.055,13.497,13.496
						V156.585z"/>
				</g>
			</g>
		</g>
		<g>
			<g>
				<path d="M159.32,140.988H83.5c-1.381,0-2.5,1.119-2.5,2.5s1.119,2.5,2.5,2.5h75.821c1.381,0,2.5-1.119,2.5-2.5
					S160.701,140.988,159.32,140.988z"/>
			</g>
		</g>
		<g>
			<g>
				<path d="M159.32,129.188H83.5c-1.381,0-2.5,1.119-2.5,2.5s1.119,2.5,2.5,2.5h75.821c1.381,0,2.5-1.119,2.5-2.5
					S160.701,129.188,159.32,129.188z"/>
			</g>
		</g>
		<g>
			<g>
				<path d="M159.32,117.389H83.5c-1.381,0-2.5,1.119-2.5,2.5s1.119,2.5,2.5,2.5h75.821c1.381,0,2.5-1.119,2.5-2.5
					S160.701,117.389,159.32,117.389z"/>
			</g>
		</g>
		<g>
			<g>
				<path d="M159.32,105.589H83.5c-1.381,0-2.5,1.119-2.5,2.5s1.119,2.5,2.5,2.5h75.821c1.381,0,2.5-1.119,2.5-2.5
					S160.701,105.589,159.32,105.589z"/>
			</g>
		</g>
		<g>
			<g>
				<path d="M144.156,152.788H83.5c-1.381,0-2.5,1.119-2.5,2.5s1.119,2.5,2.5,2.5h60.657c1.381,0,2.5-1.119,2.5-2.5
					S145.537,152.788,144.156,152.788z"/>
			</g>
		</g>
	</g>
</g>
<g id="Layer_74">
</g>
<g id="Layer_75">
</g>
<g id="Layer_76">
</g>
<g id="Layer_77">
</g>
<g id="Layer_78">
</g>
<g id="Layer_79">
</g>
<g id="Layer_80">
</g>
<g id="Layer_81">
</g>
<g id="Layer_82">
</g>
<g id="Layer_83">
</g>
<g id="Layer_84">
</g>
<g id="Layer_85">
</g>
<g id="Layer_86">
</g>
<g id="Layer_87">
</g>
<g id="Layer_88">
</g>
<g id="Layer_89">
</g>
<g id="Layer_90">
</g>
</svg>
