<?xml version="1.0" encoding="utf-8"?>
<!-- Generator: Adobe Illustrator 16.0.0, SVG Export Plug-In . SVG Version: 6.00 Build 0)  -->
<!DOCTYPE svg PUBLIC "-//W3C//DTD SVG 1.0//EN" "http://www.w3.org/TR/2001/REC-SVG-20010904/DTD/svg10.dtd">
<svg version="1.0" id="Layer_1" xmlns="http://www.w3.org/2000/svg" xmlns:xlink="http://www.w3.org/1999/xlink" x="0px" y="0px"
	 width="100px" height="100px" viewBox="0 0 100 100" enable-background="new 0 0 100 100" xml:space="preserve">
<path d="M83.333,56.666l-1.028-3.232c-1.836-2.939-6.127-5.476-11.924-7.28l1.182-2.847c6.803,2.819,14.6-0.41,17.418-7.213
	c2.819-6.803-0.413-14.606-7.213-17.422c-3.701-1.533-7.673-1.224-11.003,0.423c-1.185-3.522-3.776-6.543-7.478-8.076
	c-6.8-2.819-14.603,0.414-17.422,7.217c-2.818,6.8,0.414,14.603,7.217,17.418l0,0l-3.18,7.681
	c-15.573,0.018-28.594,4.315-32.207,10.099l-1.028,3.232L10,77.617C18.818,85.348,32.891,90,50,90s31.182-4.652,40-12.383
	L83.333,56.666z M76.497,56.666c-1.123,1.426-5.469,3.815-12.669,5.316l3.99-9.641C72.64,53.77,75.599,55.523,76.497,56.666z
	 M52.024,20.785c1.406-3.395,5.313-5.016,8.711-3.607c2.373,0.983,3.347,2.959,3.714,4.05l2.441,7.226l6.836-3.385
	c1.032-0.511,3.115-1.221,5.488-0.237c3.396,1.406,5.014,5.312,3.607,8.708c-1.406,3.398-5.313,5.016-8.711,3.61v0.001l-6.159-2.554
	l-11.79,28.473c-1.938,0.159-3.969,0.264-6.162,0.264c-0.404,0-0.756-0.036-1.149-0.039l12.942-31.247l-6.158-2.552
	C52.236,28.089,50.618,24.183,52.024,20.785z M47.096,50.103l-5.279,12.749c-10.605-1.188-16.924-4.418-18.313-6.186
	C25.11,54.625,33.274,50.621,47.096,50.103z M50,83.333c-12.871,0-24.336-2.939-32.227-8.161l3.704-11.634
	C27.312,67.405,37.884,70,50,70c12.112,0,22.686-2.595,28.521-6.462l3.705,11.634C74.336,80.394,62.871,83.333,50,83.333z"/>
</svg>
