<svg xmlns="http://www.w3.org/2000/svg" width="128" height="128" viewBox="0 0 128 128">
  <title>FENCE</title>
  <g>
    <g>
      <polygon points="31.742 114.008 1.75 114.008 1.75 24 16.746 13.992 31.742 24 31.742 114.008" fill="#896748"/>
      <polygon points="78.996 114.008 49.004 114.008 49.004 24 64 13.992 78.996 24 78.996 114.008" fill="#896748"/>
      <polygon points="126.25 114.008 96.258 114.008 96.258 24 111.254 13.992 126.25 24 126.25 114.008" fill="#896748"/>
      <g>
        <rect x="31.742" y="83.375" width="17.263" height="14.625" fill="#fedb41"/>
        <rect x="31.742" y="44.5" width="17.263" height="14.625" fill="#fedb41"/>
      </g>
      <g>
        <rect x="78.996" y="83.375" width="17.263" height="14.625" fill="#fedb41"/>
        <rect x="78.996" y="44.5" width="17.263" height="14.625" fill="#fedb41"/>
      </g>
      <rect x="9.75" y="48.438" width="13.992" height="65.57" fill="#73553a"/>
      <rect x="57.004" y="48.438" width="13.992" height="65.57" fill="#73553a"/>
      <rect x="104.258" y="48.438" width="13.992" height="65.57" fill="#73553a"/>
    </g>
    <g>
      <path d="M126.25,39.625a1.75,1.75,0,0,0,1.75-1.75V24a1.751,1.751,0,0,0-.778-1.456l-15-10.008a1.756,1.756,0,0,0-1.943,0l-15,10.008A1.75,1.75,0,0,0,94.508,24V42.75H80.746V24a1.75,1.75,0,0,0-.779-1.456l-15-10.008a1.754,1.754,0,0,0-1.944,0L48.033,22.544A1.75,1.75,0,0,0,47.254,24V42.75H33.492V24a1.75,1.75,0,0,0-.779-1.456l-15-10.008a1.752,1.752,0,0,0-1.943,0l-15,10.008A1.751,1.751,0,0,0,0,24v90.008a1.75,1.75,0,0,0,1.75,1.75H31.742a1.75,1.75,0,0,0,1.75-1.75V99.75H47.254v14.258a1.75,1.75,0,0,0,1.75,1.75H79a1.75,1.75,0,0,0,1.75-1.75V99.75H94.508v14.258a1.75,1.75,0,0,0,1.75,1.75H126.25a1.75,1.75,0,0,0,1.75-1.75V48.438a1.75,1.75,0,1,0-3.5,0v63.82H120V48.438a1.75,1.75,0,0,0-1.75-1.75H104.258a1.75,1.75,0,0,0-1.75,1.75v63.82h-4.5V24.935L111.254,16.1,124.5,24.935v12.94A1.75,1.75,0,0,0,126.25,39.625ZM106.008,50.188H116.5v62.07H106.008ZM80.746,60.875H94.508v20.75H80.746ZM94.508,46.25V57.375H80.746V46.25ZM33.492,60.875H47.254v20.75H33.492ZM47.254,46.25V57.375H33.492V46.25ZM29.992,112.258h-4.5V98a1.75,1.75,0,0,0-3.5,0v14.258H11.5V50.188H21.992v8.937a1.75,1.75,0,0,0,3.5,0V48.438a1.75,1.75,0,0,0-1.75-1.75H9.75A1.75,1.75,0,0,0,8,48.438v63.82H3.5V24.935L16.746,16.1l13.246,8.839Zm3.5-16.008V85.125H47.254V96.25Zm25.262,16.008V50.188H69.246v62.07Zm18.492,0h-4.5V48.438A1.75,1.75,0,0,0,71,46.688H57a1.75,1.75,0,0,0-1.75,1.75v63.82h-4.5V24.935L64,16.1l13.246,8.839Zm3.5-16.008V85.125H94.508V96.25Z"/>
      <path d="M23.742,74.152a1.749,1.749,0,0,0-1.75,1.75v5.321a1.75,1.75,0,0,0,3.5,0V75.9A1.75,1.75,0,0,0,23.742,74.152Z"/>
    </g>
  </g>
</svg>
