<?xml version="1.0" encoding="utf-8"?>
<!-- Generator: Adobe Illustrator 16.0.0, SVG Export Plug-In . SVG Version: 6.00 Build 0)  -->
<!DOCTYPE svg PUBLIC "-//W3C//DTD SVG 1.0//EN" "http://www.w3.org/TR/2001/REC-SVG-20010904/DTD/svg10.dtd">
<svg version="1.0" id="Layer_1" xmlns="http://www.w3.org/2000/svg" xmlns:xlink="http://www.w3.org/1999/xlink" x="0px" y="0px"
	 width="100px" height="100px" viewBox="0 0 100 100" enable-background="new 0 0 100 100" xml:space="preserve">
<path d="M56.667,10h-30C22.985,10,20,12.985,20,16.667V83.33c0,3.682,2.985,6.666,6.667,6.666L73.333,90
	C77.012,90,80,87.016,80,83.334V33.335L56.667,10z M60,22.76l7.239,7.241H60V22.76z M73.333,83.33H26.667V16.667h26.666v13.335
	c0,3.679,2.985,6.665,6.667,6.665h13.333V83.33z"/>
<rect x="46.667" y="70" width="20" height="6.666"/>
<rect x="46.667" y="56.666" width="20" height="6.668"/>
<rect x="46.667" y="43.333" width="20" height="6.667"/>
<rect x="33.333" y="70" width="6.667" height="6.666"/>
<rect x="33.333" y="56.666" width="6.667" height="6.668"/>
<rect x="33.333" y="43.333" width="6.667" height="6.667"/>
</svg>
