<?xml version="1.0" encoding="utf-8"?>
<!-- Generator: Adobe Illustrator 16.0.0, SVG Export Plug-In . SVG Version: 6.00 Build 0)  -->
<!DOCTYPE svg PUBLIC "-//W3C//DTD SVG 1.0//EN" "http://www.w3.org/TR/2001/REC-SVG-20010904/DTD/svg10.dtd">
<svg version="1.0" id="Layer_1" xmlns="http://www.w3.org/2000/svg" xmlns:xlink="http://www.w3.org/1999/xlink" x="0px" y="0px"
	 width="100px" height="100px" viewBox="0 0 100 100" enable-background="new 0 0 100 100" xml:space="preserve">
<path d="M83.333,16.667H16.667c-3.666,0-6.667,3-6.667,6.667v53.333c0,3.666,3.001,6.668,6.667,6.668h60L90,70V23.333
	C90,19.667,86.999,16.667,83.333,16.667z M73.333,76.666v-10h10L73.333,76.666z M83.333,60h-10c-3.665,0-6.666,3.002-6.666,6.666v10
	h-50V23.333h66.666V60z"/>
<rect x="23.333" y="30" width="6.667" height="23.334"/>
<rect x="36.667" y="30" width="6.666" height="23.334"/>
<rect x="53.333" y="30" width="6.667" height="23.334"/>
<rect x="70" y="30" width="6.667" height="23.334"/>
</svg>
