<?xml version="1.0" encoding="utf-8"?>
<!-- Generator: Adobe Illustrator 16.0.0, SVG Export Plug-In . SVG Version: 6.00 Build 0)  -->
<!DOCTYPE svg PUBLIC "-//W3C//DTD SVG 1.0//EN" "http://www.w3.org/TR/2001/REC-SVG-20010904/DTD/svg10.dtd">
<svg version="1.0" id="Layer_1" xmlns="http://www.w3.org/2000/svg" xmlns:xlink="http://www.w3.org/1999/xlink" x="0px" y="0px"
	 width="100px" height="100px" viewBox="0 0 100 100" enable-background="new 0 0 100 100" xml:space="preserve">
<path d="M56.667,9.998h-30C22.985,9.998,20,12.98,20,16.662v66.67c0,3.682,2.985,6.667,6.667,6.667l46.666,0.003
	c3.679,0,6.667-2.985,6.667-6.667V33.332L56.667,9.998z M70.573,33.332H56.667V19.426L70.573,33.332z M73.333,83.332H26.667V16.665
	H50v16.667c0,3.678,2.985,6.666,6.667,6.666h16.666V83.332z"/>
<polygon points="46.667,49.999 46.667,56.665 40,56.665 40,63.332 46.667,63.332 46.667,69.999 53.333,69.999 53.333,63.332 
	60,63.332 60,56.665 53.333,56.665 53.333,49.999 "/>
</svg>
