<?xml version="1.0" encoding="utf-8"?>
<!-- Generator: Adobe Illustrator 16.0.0, SVG Export Plug-In . SVG Version: 6.00 Build 0)  -->
<!DOCTYPE svg PUBLIC "-//W3C//DTD SVG 1.0//EN" "http://www.w3.org/TR/2001/REC-SVG-20010904/DTD/svg10.dtd">
<svg version="1.0" id="Layer_1" xmlns="http://www.w3.org/2000/svg" xmlns:xlink="http://www.w3.org/1999/xlink" x="0px" y="0px"
	 width="100px" height="100px" viewBox="0 0 100 100" enable-background="new 0 0 100 100" xml:space="preserve">
<path d="M60,10H26.667C22.985,10,20,12.981,20,16.667v66.666C20,87.012,22.985,90,26.667,90h46.666C77.012,90,80,87.019,80,83.333
	V30L60,10z M60,19.431L70.573,30H60V19.431z M73.333,83.333H26.667V16.667h26.666V30c0,3.679,2.985,6.667,6.667,6.667h13.333V83.333
	z"/>
<rect x="33.333" y="30" width="13.334" height="6.667"/>
<path d="M53.333,56.667V43.333h-20v33.334h33.334v-20H53.333z M46.667,50v6.667H40V50H46.667z M40,70v-6.667h6.667V70H40z M60,70
	h-6.667v-6.667H60V70z"/>
</svg>
