<?xml version="1.0" encoding="utf-8"?>
<!-- Generator: Adobe Illustrator 16.0.0, SVG Export Plug-In . SVG Version: 6.00 Build 0)  -->
<!DOCTYPE svg PUBLIC "-//W3C//DTD SVG 1.0//EN" "http://www.w3.org/TR/2001/REC-SVG-20010904/DTD/svg10.dtd">
<svg version="1.0" id="Layer_1" xmlns="http://www.w3.org/2000/svg" xmlns:xlink="http://www.w3.org/1999/xlink" x="0px" y="0px"
	 width="100px" height="100px" viewBox="0 0 100 100" enable-background="new 0 0 100 100" xml:space="preserve">
<path d="M60,10H26.667C22.985,10,20,12.982,20,16.667v66.667C20,87.012,22.985,90,26.667,90h46.666C77.012,90,80,87.019,80,83.333
	V30L60,10z M60,19.43L70.573,30H60V19.43z M73.333,83.333H26.667V16.667h26.666V30c0,3.679,2.985,6.667,6.667,6.667h13.333V83.333z"
	/>
<path d="M68.105,69.941c-0.882-3.294-4.085-5.313-7.376-4.844l-5.473-9.382c2.016-2.617,1.853-6.367-0.543-8.763
	c-2.604-2.604-6.826-2.604-9.428,0c-2.396,2.396-2.559,6.152-0.543,8.763l-5.473,9.382c-3.294-0.469-6.494,1.55-7.376,4.844
	c-0.954,3.555,1.159,7.21,4.714,8.164c3.284,0.882,6.624-0.866,7.871-3.938h11.041c1.25,3.072,4.59,4.82,7.871,3.938
	C66.95,77.151,69.06,73.496,68.105,69.941z M43.594,67.614l5.462-9.369c0.625,0.088,1.264,0.092,1.889,0l5.462,9.365
	c-0.364,0.479-0.667,1-0.892,1.557H44.485C44.258,68.61,43.958,68.089,43.594,67.614z"/>
<rect x="33.333" y="23.333" width="13.334" height="6.667"/>
<rect x="33.333" y="36.667" width="6.667" height="6.666"/>
</svg>
