<?xml version="1.0" encoding="utf-8"?>
<!-- Generator: Adobe Illustrator 16.0.0, SVG Export Plug-In . SVG Version: 6.00 Build 0)  -->
<!DOCTYPE svg PUBLIC "-//W3C//DTD SVG 1.0//EN" "http://www.w3.org/TR/2001/REC-SVG-20010904/DTD/svg10.dtd">
<svg version="1.0" id="Layer_1" xmlns="http://www.w3.org/2000/svg" xmlns:xlink="http://www.w3.org/1999/xlink" x="0px" y="0px"
	 width="100px" height="100px" viewBox="0 0 100 100" enable-background="new 0 0 100 100" xml:space="preserve">
<path d="M60,10H26.667C22.985,10,20,12.982,20,16.664V83.33c0,3.682,2.985,6.667,6.667,6.667L73.333,90
	C77.012,90,80,87.016,80,83.334V30L60,10z M60,19.43L70.573,30H60V19.43z M73.333,83.334L26.667,83.33V16.664l26.666,0.003V30
	c0,3.679,2.985,6.667,6.667,6.667h13.333V83.334z"/>
<rect x="33.333" y="23.334" width="13.334" height="6.666"/>
<rect x="33.333" y="36.667" width="13.334" height="6.667"/>
<path d="M66.667,50H60c0,11.049-8.958,20-20,20V50h-6.667v26.667h33.334V70h-9.069C63.147,65.114,66.667,57.979,66.667,50z"/>
</svg>
