<?xml version="1.0" encoding="utf-8"?>
<!-- Generator: Adobe Illustrator 16.0.0, SVG Export Plug-In . SVG Version: 6.00 Build 0)  -->
<!DOCTYPE svg PUBLIC "-//W3C//DTD SVG 1.0//EN" "http://www.w3.org/TR/2001/REC-SVG-20010904/DTD/svg10.dtd">
<svg version="1.0" id="Layer_1" xmlns="http://www.w3.org/2000/svg" xmlns:xlink="http://www.w3.org/1999/xlink" x="0px" y="0px"
	 width="100px" height="100px" viewBox="0 0 100 100" enable-background="new 0 0 100 100" xml:space="preserve">
<path d="M89.028,51.78l-9.427-9.433c-1.296-1.296-3.418-1.296-4.713,0.006l-30,29.992l-3.509,17.65l17.649-3.51l29.999-29.992
	C90.324,55.198,90.324,53.076,89.028,51.78z M55.748,80.342l-5.886,1.172l1.172-5.887l26.211-26.203l4.717,4.713L55.748,80.342z"/>
<path d="M33.333,83.336H16.667V16.664H40v16.669C40,37.012,42.984,40,46.666,40l23.333-0.003v-6.664L46.666,9.998H16.667
	c-3.682,0-6.667,2.985-6.667,6.667v66.672c0,3.678,2.985,6.666,6.667,6.666h16.666V83.336z M46.666,19.424l13.906,13.909H46.666
	V19.424z"/>
</svg>
