<svg id="Filled_stroke_cut_Ex" data-name="Filled stroke cut Ex" xmlns="http://www.w3.org/2000/svg" width="512" height="512" viewBox="0 0 512 512">
  <title>finance- accounting- payment- room- banking- currency</title>
  <rect x="88" y="136" width="336" height="224" style="fill: #fef8f7"/>
  <g>
    <path d="M24,24V488H488V24ZM424,360H88V136H424Z" style="fill: #e64b30"/>
    <polyline points="488 368 488 392 24 392 24 368" style="fill: #fdbf44"/>
    <path d="M488,368H424a8,8,0,0,1-8-8V136a8,8,0,0,1,8-8h64a8,8,0,0,1,8,8V304H480V144H432V352h48V320h16v40A8,8,0,0,1,488,368Z"/>
    <circle cx="256" cy="128" r="72" style="fill: #fdbf44"/>
    <rect x="104" y="392" width="304" height="32" style="fill: #fffcfc"/>
    <path d="M164,264h24a36,36,0,0,1,36,36v60a0,0,0,0,1,0,0H128a0,0,0,0,1,0,0V300A36,36,0,0,1,164,264Z" style="fill: #e64b30"/>
    <path d="M324,264h24a36,36,0,0,1,36,36v60a0,0,0,0,1,0,0H288a0,0,0,0,1,0,0V300A36,36,0,0,1,324,264Z" style="fill: #e64b30"/>
    <rect x="24" y="208" width="64" height="40" style="fill: #fdbf44"/>
    <rect x="424" y="208" width="64" height="40" style="fill: #fdbf44"/>
    <circle cx="424" cy="80" r="24" style="fill: #fffcfc"/>
    <circle cx="88" cy="80" r="24" style="fill: #fffcfc"/>
  </g>
  <g>
    <path d="M488,16H24a8,8,0,0,0-8,8V64H32V32H480v96H336a80,80,0,0,0-160,0H32V80H16V488a8,8,0,0,0,8,8H488a8,8,0,0,0,8-8V360a8,8,0,0,0-8-8H392V300a44.049,44.049,0,0,0-44-44H324a44.049,44.049,0,0,0-44,44v52H232V300a44.049,44.049,0,0,0-44-44H164a44.049,44.049,0,0,0-44,44v52H96V144h81.608a80.01,80.01,0,0,0,156.784,0H488a8,8,0,0,0,8-8V24A8,8,0,0,0,488,16ZM80,240H32V216H80ZM32,480V400H96v24a8,8,0,0,0,8,8H408a8,8,0,0,0,8-8V400h64v80Zm80-80H400v16H112Zm368-16H32V368H480ZM296,300a28.032,28.032,0,0,1,28-28h24a28.032,28.032,0,0,1,28,28v52H296Zm-160,0a28.032,28.032,0,0,1,28-28h24a28.032,28.032,0,0,1,28,28v52H136ZM32,352V256H80v96ZM80,200H32V144H80Zm176-8a64,64,0,1,1,64-64A64.072,64.072,0,0,1,256,192Z"/>
    <path d="M264,80H248v8h-6a18.021,18.021,0,0,0-18,18v12a18.021,18.021,0,0,0,18,18h28a2,2,0,0,1,2,2v12a2,2,0,0,1-2,2H224v16h24v8h16v-8h6a18.021,18.021,0,0,0,18-18V138a18.021,18.021,0,0,0-18-18H242a2,2,0,0,1-2-2V106a2,2,0,0,1,2-2h46V88H264Z"/>
    <rect x="160" y="224" width="32" height="16"/>
    <rect x="320" y="224" width="32" height="16"/>
    <path d="M488,200H424a8,8,0,0,0-8,8v40a8,8,0,0,0,8,8h64a8,8,0,0,0,8-8V208A8,8,0,0,0,488,200Zm-8,40H432V216h48Z"/>
    <path d="M456,80a32,32,0,1,0-32,32A32.036,32.036,0,0,0,456,80Zm-48,0a16,16,0,1,1,16,16A16.019,16.019,0,0,1,408,80Z"/>
    <path d="M120,80a32,32,0,1,0-32,32A32.036,32.036,0,0,0,120,80ZM72,80A16,16,0,1,1,88,96,16.019,16.019,0,0,1,72,80Z"/>
    <rect x="208" y="448" width="96" height="16"/>
  </g>
</svg>
