<?xml version="1.0" encoding="utf-8"?>
<!-- Generator: Adobe Illustrator 16.0.0, SVG Export Plug-In . SVG Version: 6.00 Build 0)  -->
<!DOCTYPE svg PUBLIC "-//W3C//DTD SVG 1.0//EN" "http://www.w3.org/TR/2001/REC-SVG-20010904/DTD/svg10.dtd">
<svg version="1.0" id="Layer_1" xmlns="http://www.w3.org/2000/svg" xmlns:xlink="http://www.w3.org/1999/xlink" x="0px" y="0px"
	 width="100px" height="100px" viewBox="0 0 100 100" enable-background="new 0 0 100 100" xml:space="preserve">
<path stroke="#000000" stroke-linecap="round" stroke-linejoin="round" stroke-miterlimit="10" d="M73.967,40.446
	C76.02,50.743,69.355,60.74,59.063,62.88c8.545-12.402,7.307-29.484-3.756-40.507c-3.264-3.246-7.243-5.768-11.659-7.373
	c1.665,9.653-0.194,19.926-6.088,28.719c-6.152,9.17-6.479,20.508-1.888,29.733c-11.038-9.06-15.365-24.56-9.608-38.409
	C9.473,46.092,5.002,68.46,16.097,85l4.133-0.004l0,0c-2.061-6.542-1.921-13.818,0.923-20.655
	c1.938,9.811,8.818,17.362,17.544,20.638h-0.012l6.923-0.003c-0.401-1.933-1.078-3.82-2.081-5.571
	c-4.585-8.01-2.738-18.833,4.124-24.189c1.795-1.396,3.851-2.329,6.023-2.715c-1.766,5.363-1.859,11.489,0.178,17.214
	c1.832,5.157,1.371,10.741-0.814,15.255h-0.002l9.445-0.009c-1.375-6.523,2.029-13.31,8.412-15.956
	c3.607-1.49,6.268-4.309,7.656-7.646c4.336,6.492,2.586,15.268-3.9,19.604c-1.686,1.123-3.115,2.484-4.303,3.993l16.564-0.014
	C93.9,69.221,88.793,50.322,73.967,40.446z"/>
</svg>
