<?xml version="1.0" encoding="utf-8"?>
<!-- Generator: Adobe Illustrator 16.0.0, SVG Export Plug-In . SVG Version: 6.00 Build 0)  -->
<!DOCTYPE svg PUBLIC "-//W3C//DTD SVG 1.0//EN" "http://www.w3.org/TR/2001/REC-SVG-20010904/DTD/svg10.dtd">
<svg version="1.0" id="Layer_1" xmlns="http://www.w3.org/2000/svg" xmlns:xlink="http://www.w3.org/1999/xlink" x="0px" y="0px"
	 width="100px" height="100px" viewBox="0 0 100 100" enable-background="new 0 0 100 100" xml:space="preserve">
<path stroke="#000000" stroke-linecap="round" stroke-linejoin="round" stroke-miterlimit="10" d="M76.596,25.158
	C79.906,20.142,78.572,13.356,73.62,10c0,2.797-1.061,5.594-3.162,7.731c-4.211,4.265-4.211,11.19,0,15.458
	c1.102,1.113,2.445,1.978,3.934,2.525C73.792,32.169,74.462,28.39,76.596,25.158z"/>
<path stroke="#000000" stroke-linecap="round" stroke-linejoin="round" stroke-miterlimit="10" d="M23.918,31.535
	c2.209-3.345,1.32-7.873-1.98-10.108c0,1.863-0.705,3.73-2.107,5.153c-2.809,2.843-2.809,7.459,0,10.305
	c0.732,0.744,1.629,1.319,2.621,1.685C22.051,36.207,22.5,33.688,23.918,31.535z"/>
<path stroke="#000000" stroke-linecap="round" stroke-linejoin="round" stroke-miterlimit="10" d="M68.021,79.127
	c2.566-4.041,5.855-7.717,9.86-10.7c11.492-8.559,15.518-24.482,9-35.572c-2.752,6.153-7.584,11.521-13.856,14.638
	c-2.236,1.113-4.281,2.525-6.123,4.142c-1.24-6.447-4.354-12.604-9.342-17.592C50.921,27.401,47.603,18.699,47.597,10
	c-14.758,9.86-19.299,29.266-10.939,44.542c-3.163-1.712-6.69-2.808-10.374-3.066c-6.113-0.42-11.818-3.138-16.102-7.19
	c-1.555,11.142,7.031,22.667,19.186,25.739c4.076,1.03,7.834,2.794,11.163,5.064c-6.954,5.491-16.901,6.188-24.688,1.064
	c3.732,8.699,12.25,13.922,21.196,13.846h11.777l-0.023-0.007c-2.689-5.557-3.258-12.437-1.002-18.789
	c2.51-7.053,2.393-14.598,0.217-21.202c2.678,0.475,5.211,1.623,7.422,3.341c8.451,6.598,10.723,19.935,5.076,29.797
	c-1.234,2.157-2.068,4.482-2.563,6.859h5.207C72.03,90.003,80.451,84.79,84.16,76.15C79.213,79.409,73.396,80.305,68.021,79.127z"/>
</svg>
