<?xml version="1.0" encoding="utf-8"?>
<!-- Generator: Adobe Illustrator 16.0.0, SVG Export Plug-In . SVG Version: 6.00 Build 0)  -->
<!DOCTYPE svg PUBLIC "-//W3C//DTD SVG 1.0//EN" "http://www.w3.org/TR/2001/REC-SVG-20010904/DTD/svg10.dtd">
<svg version="1.0" id="Layer_1" xmlns="http://www.w3.org/2000/svg" xmlns:xlink="http://www.w3.org/1999/xlink" x="0px" y="0px"
	 width="100px" height="100px" viewBox="0 0 100 100" enable-background="new 0 0 100 100" xml:space="preserve">
<path stroke="#000000" stroke-linecap="round" stroke-linejoin="round" stroke-miterlimit="10" d="M40.832,90
	c-11.377-3.8-19.583-14.449-19.583-27.017C21.249,47.225,50,10,50,10s28.751,37.225,28.751,52.983
	C78.751,75.551,70.548,86.2,59.17,90c4.267-4.934,6.423-11.046,6.423-17.171c0-6.759-2.596-13.522-7.798-18.68
	C52.598,48.988,50,42.229,50,35.47c0,6.759-2.598,13.518-7.795,18.679c-5.199,5.157-7.797,11.921-7.797,18.68
	C34.407,78.954,36.564,85.066,40.832,90z"/>
<path stroke="#000000" stroke-linecap="round" stroke-linejoin="round" stroke-miterlimit="10" d="M50,60
	c-8.284,8.281-8.284,21.715,0,30C58.283,81.715,58.283,68.281,50,60z"/>
</svg>
