<?xml version="1.0" encoding="utf-8"?>
<!-- Generator: Adobe Illustrator 16.0.0, SVG Export Plug-In . SVG Version: 6.00 Build 0)  -->
<!DOCTYPE svg PUBLIC "-//W3C//DTD SVG 1.0//EN" "http://www.w3.org/TR/2001/REC-SVG-20010904/DTD/svg10.dtd">
<svg version="1.0" id="Layer_1" xmlns="http://www.w3.org/2000/svg" xmlns:xlink="http://www.w3.org/1999/xlink" x="0px" y="0px"
	 width="100px" height="100px" viewBox="0 0 100 100" enable-background="new 0 0 100 100" xml:space="preserve">
<path stroke="#000000" stroke-linecap="round" stroke-linejoin="round" stroke-miterlimit="10" d="M60.807,34.976
	c3.451,1.447,6.56,3.564,9.158,6.198c5.111,5.178,8.271,12.329,8.271,20.229C78.235,77.192,65.593,90,50.002,90
	c-15.598,0-28.237-12.808-28.237-28.598c0-7.9,3.164-15.051,8.271-20.229c5.514-5.583,8.271-12.905,8.271-20.227
	c0-3.877-0.772-7.573-2.152-10.946c11.215,7.593,14.235,22.963,6.741,34.325c-0.705,1.07-1.042,2.28-1.038,3.479
	c0.005,2.011,0.963,3.981,2.74,5.186c2.831,1.915,6.661,1.142,8.553-1.727c0.915-1.386,1.348-2.95,1.362-4.5
	c0.022-2.688-1.24-5.337-3.612-6.942c6.992,2.934,11.057,9.983,10.629,17.227C67.016,50.696,66.786,41.037,60.807,34.976z"/>
<path stroke="#000000" stroke-linecap="round" stroke-linejoin="round" stroke-miterlimit="10" d="M59.831,21.241
	c2.455-3.719,1.466-8.754-2.207-11.241c-0.001,2.075-0.783,4.15-2.344,5.733c-3.124,3.164-3.124,8.296,0,11.461
	c0.817,0.827,1.813,1.469,2.918,1.874C57.753,26.439,58.25,23.638,59.831,21.241z"/>
</svg>
