<?xml version="1.0" encoding="utf-8"?>
<!-- Generator: Adobe Illustrator 16.0.0, SVG Export Plug-In . SVG Version: 6.00 Build 0)  -->
<!DOCTYPE svg PUBLIC "-//W3C//DTD SVG 1.0//EN" "http://www.w3.org/TR/2001/REC-SVG-20010904/DTD/svg10.dtd">
<svg version="1.0" id="Layer_1" xmlns="http://www.w3.org/2000/svg" xmlns:xlink="http://www.w3.org/1999/xlink" x="0px" y="0px"
	 width="100px" height="100px" viewBox="0 0 100 100" enable-background="new 0 0 100 100" xml:space="preserve">
<g>
	<path stroke="#000000" stroke-linecap="round" stroke-linejoin="round" stroke-miterlimit="10" d="M39.486,10
		c6.241,9.301,3.728,21.882-5.61,28.097c-13.073,8.698-16.591,26.311-7.854,39.329l0.001,0.003
		c4.386,6.539,11.013,10.688,18.194,12.108c1.157,0.229,2.332,0.359,3.51,0.445c-0.689-0.068-1.375-0.169-2.054-0.303
		c-5.452-1.08-10.167-4.184-13.296-8.75l-0.121-0.179c-3.1-4.622-4.21-10.167-3.126-15.616c1.086-5.466,4.249-10.185,8.905-13.281
		C44.23,47.732,48.44,41.449,49.89,34.162c0.312-1.566,0.488-3.142,0.529-4.707c5.538,3.134,10.301,7.538,13.933,12.974
		c6.088,9.112,8.261,20.041,6.118,30.773c-1.096,5.487-4.276,10.229-8.956,13.343C58.536,88.523,55.146,89.7,51.618,90
		c4.861-0.304,9.711-1.824,14.057-4.715c6.564-4.369,10.731-10.974,12.159-18.123C83.091,40.835,65.922,15.242,39.486,10z"/>
</g>
</svg>
