<?xml version="1.0" encoding="utf-8"?>
<!-- Generator: Adobe Illustrator 16.0.0, SVG Export Plug-In . SVG Version: 6.00 Build 0)  -->
<!DOCTYPE svg PUBLIC "-//W3C//DTD SVG 1.0//EN" "http://www.w3.org/TR/2001/REC-SVG-20010904/DTD/svg10.dtd">
<svg version="1.0" id="Layer_1" xmlns="http://www.w3.org/2000/svg" xmlns:xlink="http://www.w3.org/1999/xlink" x="0px" y="0px"
	 width="100px" height="100px" viewBox="0 0 100 100" enable-background="new 0 0 100 100" xml:space="preserve">
<path stroke="#000000" stroke-linecap="round" stroke-linejoin="round" stroke-miterlimit="10" d="M71.943,38.601
	c0,6.981-3.846,13.058-9.53,16.244C62.381,38.615,56.177,22.386,43.794,10c0,7.947-3.034,15.886-9.094,21.946l-6.646,6.65
	c-5.613,5.623-9.091,13.378-9.091,21.95C18.964,74.283,27.902,85.919,40.279,90c-8.777-3.924-14.941-12.938-14.941-23.08
	c0-6.584,2.564-12.78,7.224-17.447l6.645-6.646c3.493-3.492,6.208-7.551,8.063-11.97c5.691,9.008,8.749,19.457,8.771,30.372
	l0.021,10.858l9.471-5.312c3.22-1.805,5.942-4.265,8.035-7.158c0.72,2.336,1.097,4.792,1.099,7.308
	c0,10.138-6.158,19.146-14.931,23.073c12.367-4.087,21.303-15.719,21.303-29.451C81.032,52.604,78.004,44.661,71.943,38.601z"/>
</svg>
