<?xml version="1.0" encoding="utf-8"?>
<!-- Generator: Adobe Illustrator 16.0.0, SVG Export Plug-In . SVG Version: 6.00 Build 0)  -->
<!DOCTYPE svg PUBLIC "-//W3C//DTD SVG 1.0//EN" "http://www.w3.org/TR/2001/REC-SVG-20010904/DTD/svg10.dtd">
<svg version="1.0" id="Layer_1" xmlns="http://www.w3.org/2000/svg" xmlns:xlink="http://www.w3.org/1999/xlink" x="0px" y="0px"
	 width="100px" height="100px" viewBox="0 0 100 100" enable-background="new 0 0 100 100" xml:space="preserve">
<path stroke="#000000" stroke-linecap="round" stroke-linejoin="round" stroke-miterlimit="10" d="M39.172,50.418
	C30.233,37.041,33.833,18.94,47.213,10c0.003,7.459,2.849,14.918,8.537,20.608c11.383,11.383,11.383,29.838,0,41.217
	c-2.973,2.974-6.604,5.278-10.631,6.746C46.749,69.111,44.929,59.037,39.172,50.418z"/>
<path stroke="#000000" stroke-linecap="round" stroke-linejoin="round" stroke-miterlimit="10" d="M23.38,67.957
	c-1.447,9.915,4.437,19.781,13.143,22.041c-1.685-4.402-1.946-9.446-0.39-14.09c3.115-9.288-1.047-20.175-9.301-24.329
	c-2.157-1.078-4.493-1.623-6.832-1.574C22.946,55.217,24.314,61.576,23.38,67.957z"/>
<path stroke="#000000" stroke-linecap="round" stroke-linejoin="round" stroke-miterlimit="10" d="M65.865,76.635
	C65.867,68.832,72.189,62.503,80,62.5c-2.006,3.011-2.869,6.786-2.105,10.614c1.52,7.654-3.455,15.096-11.109,16.615
	c-1.998,0.403-4.086,0.355-6.105-0.141C63.887,86.212,65.867,81.658,65.865,76.635z"/>
</svg>
