<?xml version="1.0" encoding="utf-8"?>
<!-- Generator: Adobe Illustrator 16.0.0, SVG Export Plug-In . SVG Version: 6.00 Build 0)  -->
<!DOCTYPE svg PUBLIC "-//W3C//DTD SVG 1.0//EN" "http://www.w3.org/TR/2001/REC-SVG-20010904/DTD/svg10.dtd">
<svg version="1.0" id="Layer_1" xmlns="http://www.w3.org/2000/svg" xmlns:xlink="http://www.w3.org/1999/xlink" x="0px" y="0px"
	 width="100px" height="100px" viewBox="0 0 100 100" enable-background="new 0 0 100 100" xml:space="preserve">
<path stroke="#000000" stroke-linecap="round" stroke-linejoin="round" stroke-miterlimit="10" d="M69.24,37.186
	c-1.609,8.044-6.304,15.479-13.697,20.392c2.791-4.155,3.625-9.047,2.719-13.591C55.371,29.521,46.866,17.597,35.446,10
	c7.406,11.036,4.427,25.959-6.663,33.336C13.255,53.661,9.077,74.556,19.45,90h7.648c-2.787-4.154-3.621-9.05-2.719-13.594
	c2.895-14.464,11.4-26.387,22.82-33.983c-6.142,9.15-5.119,20.967,1.729,28.946c8.061-1.968,14.724-6.809,19.029-13.243
	C74.519,67.893,75.952,79.562,72.91,90h6.89C91.537,72.517,86.811,48.872,69.24,37.186z"/>
</svg>
