<?xml version="1.0" encoding="utf-8"?>
<!-- Generator: Adobe Illustrator 16.0.0, SVG Export Plug-In . SVG Version: 6.00 Build 0)  -->
<!DOCTYPE svg PUBLIC "-//W3C//DTD SVG 1.0//EN" "http://www.w3.org/TR/2001/REC-SVG-20010904/DTD/svg10.dtd">
<svg version="1.0" id="Layer_1" xmlns="http://www.w3.org/2000/svg" xmlns:xlink="http://www.w3.org/1999/xlink" x="0px" y="0px"
	 width="100px" height="100px" viewBox="0 0 100 100" enable-background="new 0 0 100 100" xml:space="preserve">
<path stroke="#000000" stroke-linecap="round" stroke-linejoin="round" stroke-miterlimit="10" d="M72.454,69.684
	c9.19-11.793,8.388-28.843-2.455-39.685c0,6.322-2.781,11.982-7.172,15.868C54.277,35.47,50.002,22.729,50,10
	C39.404,20.6,32.755,35.146,32.423,51.245c-4.373-3.796-7.758-8.516-9.924-13.746c-4.492,10.848-5.115,23.303-0.92,35.109
	C16.536,69.994,12.344,65.66,10,60c0,11.713,4.746,22.321,12.428,30c2.186-0.906,4.422-1.691,6.69-2.37
	c-2.703-3.08-6.127-7.444-7.364-9.889c0.078,0.042,0.156,0.087,0.236,0.124l9.317,2.623l-2.914-8.203
	c-2.199-6.188-2.826-12.758-1.895-19.159c1.367,1.664,2.873,3.218,4.502,4.63l7.358,6.389l0.199-9.74
	c0.195-9.492,3.014-18.569,8.088-26.362c1.838,8.861,5.792,17.219,11.578,24.254l3.007,3.658l3.547-3.138
	c2.229-1.975,4.047-4.32,5.391-6.904c1.564,7.455,1.121,15.235-3.229,22.425l-5.98,10.001l10.568-2.739
	c2.721-0.603,5.297-1.608,7.656-2.959c-1.707,4.334-5.939,10.877-9.631,15.221c-0.002-0.001-0.002-0.001-0.004-0.003
	c1.994,0.623,3.98,1.326,5.949,2.143C84.453,81.043,90,68.668,90,54.997C86.787,62.756,80.078,67.996,72.454,69.684z"/>
</svg>
