<?xml version="1.0" encoding="utf-8"?>
<!-- Generator: Adobe Illustrator 16.0.0, SVG Export Plug-In . SVG Version: 6.00 Build 0)  -->
<!DOCTYPE svg PUBLIC "-//W3C//DTD SVG 1.0//EN" "http://www.w3.org/TR/2001/REC-SVG-20010904/DTD/svg10.dtd">
<svg version="1.0" id="Layer_1" xmlns="http://www.w3.org/2000/svg" xmlns:xlink="http://www.w3.org/1999/xlink" x="0px" y="0px"
	 width="100px" height="100px" viewBox="0 0 100 100" enable-background="new 0 0 100 100" xml:space="preserve">
<path stroke="#000000" stroke-width="2" stroke-linecap="round" stroke-linejoin="round" stroke-miterlimit="10" d="M49.999,66.471
	C43.501,72.967,40.254,81.48,40.255,90c-9.463-3.852-16.137-11.873-16.137-22.717c0-11.479,4.64-21.864,12.166-29.386
	c-1.048,2.524-1.521,5.136-1.563,7.71c-0.053,3.165,1.785,6.194,4.886,7.477c4.057,1.68,8.703-0.247,10.38-4.301
	c1.187-2.864,1.1-5.941,0-8.599C45.105,28.399,50.702,14.881,62.491,10c-4.066,4.07-6.579,9.682-6.581,15.888
	c0,2.27,0.865,4.535,2.597,6.265l4.813,4.812c8.373,8.375,12.562,19.342,12.562,30.319c0.002,10.844-6.677,18.864-16.14,22.713
	c0-9.187-3.725-17.506-9.749-23.524h0.006V66.471z"/>
</svg>
