<?xml version="1.0" encoding="utf-8"?>
<!-- Generator: Adobe Illustrator 16.0.0, SVG Export Plug-In . SVG Version: 6.00 Build 0)  -->
<!DOCTYPE svg PUBLIC "-//W3C//DTD SVG 1.0//EN" "http://www.w3.org/TR/2001/REC-SVG-20010904/DTD/svg10.dtd">
<svg version="1.0" id="Layer_1" xmlns="http://www.w3.org/2000/svg" xmlns:xlink="http://www.w3.org/1999/xlink" x="0px" y="0px"
	 width="100px" height="100px" viewBox="0 0 100 100" enable-background="new 0 0 100 100" xml:space="preserve">
<path stroke="#000000" stroke-width="2" stroke-linecap="round" stroke-linejoin="round" stroke-miterlimit="10" d="M47.35,70.018
	c-5.393-8.07-7.245-17.472-5.937-26.371c6.79,1.696,12.724,6.449,15.608,13.41C62.35,69.923,56.244,84.669,43.379,90
	c8.385-2.012,15.316-6.969,19.805-13.559c10.262-15.057,6.131-35.434-9.229-45.492C46.88,26.316,44.977,16.934,49.701,10
	C30.564,22.538,25.416,47.919,38.208,66.689v-0.002c4.523,6.636,6.542,14.886,5.17,23.313C49.996,85.577,51.773,76.632,47.35,70.018
	z"/>
</svg>
