<?xml version="1.0" encoding="utf-8"?>
<!-- Generator: Adobe Illustrator 16.0.0, SVG Export Plug-In . SVG Version: 6.00 Build 0)  -->
<!DOCTYPE svg PUBLIC "-//W3C//DTD SVG 1.0//EN" "http://www.w3.org/TR/2001/REC-SVG-20010904/DTD/svg10.dtd">
<svg version="1.0" id="Layer_1" xmlns="http://www.w3.org/2000/svg" xmlns:xlink="http://www.w3.org/1999/xlink" x="0px" y="0px"
	 width="100px" height="100px" viewBox="0 0 100 100" enable-background="new 0 0 100 100" xml:space="preserve">
<path stroke="#000000" stroke-width="2" stroke-linecap="round" stroke-linejoin="round" stroke-miterlimit="10" d="M76.219,41.994
	c1.641,3.962-0.242,8.509-4.205,10.152c-3.969,1.644-8.512-0.24-10.152-4.206c-1.16-2.805-1.075-5.814,0-8.413
	C66.634,27.999,61.162,14.777,49.629,10c3.979,3.981,6.436,9.472,6.436,15.542c0,4.292-3.479,7.769-7.77,7.769
	c-4.292,0-7.77-3.477-7.77-7.769c0-3.035,1.23-5.781,3.217-7.77C36.46,20.786,33,29.137,36.017,36.419
	c0.86,2.079,0.929,4.488,0,6.732c-1.313,3.171-4.95,4.677-8.123,3.362c-3.171-1.313-4.678-4.949-3.365-8.12
	C13.235,49.684,13.234,67.997,24.528,79.29h0.001c14.271,14.276,37.415,14.28,51.69,0.007l-0.003-0.007
	C86.518,68.992,86.518,52.294,76.219,41.994z"/>
</svg>
