<?xml version="1.0" encoding="utf-8"?>
<!-- Generator: Adobe Illustrator 24.0.0, SVG Export Plug-In . SVG Version: 6.00 Build 0)  -->
<svg version="1.1" xmlns="http://www.w3.org/2000/svg" xmlns:xlink="http://www.w3.org/1999/xlink" x="0px" y="0px"
	 viewBox="0 0 256 256" enable-background="new 0 0 256 256" xml:space="preserve">
<g id="Layer_1">
</g>
<g id="Layer_2">
</g>
<g id="Layer_3">
</g>
<g id="Layer_4">
</g>
<g id="Layer_5">
</g>
<g id="Layer_6">
</g>
<g id="Layer_7">
</g>
<g id="Layer_8">
</g>
<g id="Layer_9">
</g>
<g id="Layer_10">
</g>
<g id="Layer_11">
</g>
<g id="Layer_12">
</g>
<g id="Layer_13">
</g>
<g id="Layer_14">
</g>
<g id="Layer_15">
	<g>
		<g>
			<g>
				<path fill="#FC657E" d="M147.899,19.914L132.242,4.257c-2.342-2.343-6.143-2.343-8.484,0l-15.657,15.657
					c-2.344,2.343-2.344,6.142-0.001,8.485c2.343,2.343,6.143,2.344,8.485,0L122,22.985v66.071c0,3.313,2.687,6,6,6s6-2.687,6-6
					V22.985l5.415,5.415c1.171,1.171,2.707,1.757,4.242,1.757s3.071-0.586,4.243-1.757
					C150.243,26.056,150.243,22.257,147.899,19.914z"/>
			</g>
		</g>
		<g>
			<g>
				<path fill="#F5C84C" d="M219.071,47.085l-15.656-15.657c-2.344-2.343-6.144-2.343-8.485,0c-2.344,2.343-2.344,6.142-0.001,8.485
					l5.414,5.414h-33.2c-7.666,0-14.143,6.646-14.143,14.513v35.572c0,3.313,2.687,6,6,6s6-2.687,6-6V59.841
					c0-1.269,1.062-2.513,2.143-2.513h33.2l-5.414,5.414c-2.343,2.343-2.343,6.142,0.001,8.485c1.171,1.171,2.707,1.757,4.242,1.757
					s3.071-0.586,4.243-1.757l15.656-15.657C221.414,53.227,221.414,49.428,219.071,47.085z"/>
			</g>
		</g>
		<g>
			<g>
				<path fill="#5290DB" d="M88.857,45.328h-33.2l5.414-5.414c2.343-2.343,2.343-6.142-0.001-8.485
					c-2.342-2.343-6.142-2.343-8.485,0L36.929,47.085c-2.343,2.343-2.343,6.142,0,8.485l15.656,15.657
					c1.172,1.172,2.707,1.757,4.243,1.757c1.535,0,3.071-0.586,4.242-1.757c2.344-2.343,2.344-6.142,0.001-8.485l-5.414-5.414h33.2
					c1.081,0,2.143,1.245,2.143,2.513v35.572c0,3.313,2.687,6,6,6s6-2.687,6-6V59.841C103,51.974,96.523,45.328,88.857,45.328z"/>
			</g>
		</g>
		<g>
			<g>
				<path fill="#9BE5F9" d="M124.388,216.764l-11.64-11.64c-0.861-0.861-2.256-0.861-3.117,0l-5.209,5.209
					c-0.861,0.861-0.861,2.256,0,3.117l11.64,11.64c0.861,0.861,2.256,0.861,3.117,0l5.209-5.209
					C125.249,219.02,125.249,217.625,124.388,216.764z"/>
			</g>
		</g>
		<g>
			<g>
				<path fill="#9BE5F9" d="M151.578,210.333l-5.209-5.209c-0.861-0.861-2.256-0.861-3.117,0l-11.64,11.64
					c-0.861,0.861-0.861,2.256,0,3.117l5.209,5.209c0.861,0.861,2.257,0.861,3.117,0l11.64-11.64
					C152.439,212.589,152.439,211.193,151.578,210.333z"/>
			</g>
		</g>
		<g>
			<g>
				<path fill="#F9D0B4" d="M141.319,200.602v-4.705c-3.993,2.09-8.522,3.281-13.319,3.281h0c-4.797,0-9.326-1.19-13.319-3.281
					v4.705c0,1.819-0.496,3.562-1.386,5.069l11.093,11.093c0.374,0.374,0.576,0.851,0.625,1.339h5.975
					c0.049-0.489,0.25-0.965,0.625-1.339l11.103-11.103C141.826,204.154,141.319,202.42,141.319,200.602z"/>
			</g>
		</g>
		<g>
			<g>
				<path fill="#70D6F9" d="M185.885,229.553c-0.278-4.985-3.765-9.211-8.606-10.429l-16.596-4.177
					c-2.899-0.73-5.731-1.695-8.476-2.871c-0.042,0.501-0.245,0.991-0.628,1.374l-11.64,11.64c-0.861,0.861-2.256,0.861-3.117,0
					l-5.209-5.209c-0.486-0.486-0.688-1.143-0.625-1.778h-5.975c0.063,0.635-0.138,1.292-0.625,1.778l-5.209,5.209
					c-0.861,0.861-2.256,0.861-3.117,0l-11.64-11.64c-0.381-0.381-0.584-0.868-0.627-1.366c-2.739,1.172-5.567,2.13-8.458,2.858
					l-16.615,4.182c-4.842,1.219-8.329,5.444-8.606,10.429l-1.126,19.42c-0.142,2.456,1.811,4.527,4.272,4.527h109.478
					c2.46,0,4.414-2.07,4.272-4.527L185.885,229.553z"/>
			</g>
		</g>
		<g>
			<g>
				<path fill="#F9D0B4" d="M156.906,144.06c-0.016-0.82-0.673-1.496-1.493-1.52c-12.01-0.352-18.339-5.112-20.77-7.496
					c-0.664-0.651-1.735-0.582-2.314,0.146c-10.56,13.279-26.137,11.405-31.375,10.309c-0.952-0.199-1.865,0.518-1.866,1.491v23.276
					c0,15.901,13.01,28.911,28.911,28.911h0c15.901,0,28.911-13.01,28.911-28.911v-25.754
					C156.911,144.361,156.909,144.211,156.906,144.06z"/>
			</g>
		</g>
		<g>
			<g>
				<path fill="#754E34" d="M150.624,113.394c-3.081,0-5.961,0.87-8.436,2.355c-2.891-4.825-8.158-8.083-14.162-8.083h-8.48
					c-16.413,0-29.842,13.429-29.842,29.842v13.371c2.065-1.653,4.68-2.647,7.531-2.647c0.632,0,1.25,0.053,1.855,0.147v-1.389
					c0.001-0.972,0.914-1.69,1.866-1.491c5.238,1.096,20.815,2.97,31.375-10.309c0.578-0.728,1.65-0.796,2.314-0.146
					c2.432,2.384,8.76,7.144,20.77,7.496c0.82,0.024,1.476,0.7,1.493,1.52c0.003,0.15,0.005,0.301,0.005,0.452v3.867
					c0.605-0.094,1.224-0.147,1.855-0.147c3.254,0,6.201,1.294,8.372,3.387v-21.711
					C167.138,120.825,159.706,113.394,150.624,113.394z"/>
			</g>
		</g>
		<g>
			<g>
				<path fill="#F9D0B4" d="M158.766,148.232c-0.632,0-1.25,0.053-1.855,0.147v21.887c0,0.652-0.03,1.297-0.073,1.939
					c0.629,0.101,1.27,0.168,1.928,0.168c6.666,0,12.07-5.404,12.07-12.07S165.432,148.232,158.766,148.232z"/>
			</g>
		</g>
		<g>
			<g>
				<path fill="#F9D0B4" d="M99.089,170.266V148.38c-0.605-0.094-1.224-0.147-1.855-0.147c-6.666,0-12.071,5.404-12.071,12.071
					s5.404,12.07,12.071,12.07c0.658,0,1.299-0.067,1.928-0.168v0C99.119,171.563,99.089,170.918,99.089,170.266z"/>
			</g>
		</g>
		<g>
			<g>
				<path d="M138.251,175.209c-1.057-0.887-2.635-0.748-3.521,0.31c-1.292,1.542-3.504,2.463-5.917,2.463s-4.625-0.92-5.917-2.463
					c-0.887-1.058-2.464-1.197-3.521-0.31c-1.059,0.887-1.197,2.463-0.311,3.522c2.23,2.662,5.875,4.251,9.749,4.251
					s7.519-1.589,9.749-4.251C139.448,177.672,139.31,176.096,138.251,175.209z"/>
			</g>
		</g>
		<g>
			<g>
				<path d="M140.809,158.143c-2.038,0-3.689,1.652-3.689,3.689s1.652,3.689,3.689,3.689c2.037,0,3.689-1.652,3.689-3.689
					S142.846,158.143,140.809,158.143z"/>
			</g>
		</g>
		<g>
			<g>
				<path d="M116.032,158.143c-2.038,0-3.689,1.652-3.689,3.689s1.652,3.689,3.689,3.689c2.037,0,3.689-1.652,3.689-3.689
					S118.07,158.143,116.032,158.143z"/>
			</g>
		</g>
		<g>
			<g>
				<path d="M168.253,235.391c-1.381,0-2.5,1.119-2.5,2.5v14.324c0,1.381,1.119,2.5,2.5,2.5s2.5-1.119,2.5-2.5v-14.324
					C170.753,236.51,169.634,235.391,168.253,235.391z"/>
			</g>
		</g>
		<g>
			<g>
				<path d="M88.167,235.391c-1.381,0-2.5,1.119-2.5,2.5v14.324c0,1.381,1.119,2.5,2.5,2.5s2.5-1.119,2.5-2.5v-14.324
					C90.667,236.51,89.548,235.391,88.167,235.391z"/>
			</g>
		</g>
		<g>
			<g>
				<g>
					<path d="M126.155,214.996l-11.64-11.64c-0.889-0.888-2.07-1.377-3.326-1.377c-1.257,0-2.438,0.489-3.326,1.377l-5.21,5.209
						c-1.833,1.833-1.833,4.818,0.001,6.652l11.64,11.641c0.889,0.888,2.07,1.377,3.326,1.377c1.257,0,2.438-0.489,3.326-1.378
						l5.209-5.208c0.889-0.888,1.379-2.07,1.379-3.327C127.534,217.066,127.044,215.884,126.155,214.996z M117.62,223.113
						l-11.222-11.222l4.791-4.79l11.222,11.221L117.62,223.113z"/>
				</g>
			</g>
		</g>
		<g>
			<g>
				<g>
					<path d="M153.346,208.564l-5.209-5.208c-0.889-0.888-2.07-1.377-3.326-1.377c-1.257,0-2.438,0.489-3.326,1.378l-11.64,11.64
						c-0.889,0.888-1.379,2.07-1.379,3.326c0,1.257,0.49,2.438,1.379,3.326l5.208,5.208c0.889,0.889,2.07,1.378,3.327,1.378
						c1.256,0,2.438-0.489,3.326-1.378l11.641-11.641C155.18,213.383,155.18,210.399,153.346,208.564z M138.38,223.113l-4.791-4.791
						l11.222-11.221l4.791,4.79L138.38,223.113z"/>
				</g>
			</g>
		</g>
		<g>
			<g>
				<path d="M144.712,204.111c-0.584-1.088-0.893-2.302-0.893-3.51v-4.227c0-1.381-1.119-2.5-2.5-2.5s-2.5,1.119-2.5,2.5v4.227
					c0,2.03,0.514,4.061,1.486,5.874c0.451,0.84,1.313,1.318,2.205,1.318c0.399,0,0.804-0.096,1.18-0.297
					C144.907,206.844,145.364,205.328,144.712,204.111z"/>
			</g>
		</g>
		<g>
			<g>
				<path d="M130.312,215.603h-4.908c-1.381,0-2.5,1.119-2.5,2.5s1.119,2.5,2.5,2.5h4.908c1.381,0,2.5-1.119,2.5-2.5
					S131.692,215.603,130.312,215.603z"/>
			</g>
		</g>
		<g>
			<g>
				<path d="M114.681,194.128c-1.381,0-2.5,1.119-2.5,2.5v3.974c0,1.196-0.292,2.388-0.845,3.448
					c-0.639,1.224-0.163,2.734,1.062,3.373c0.369,0.192,0.764,0.284,1.153,0.284c0.901,0,1.773-0.49,2.219-1.345
					c0.923-1.771,1.411-3.762,1.411-5.76v-3.974C117.181,195.247,116.062,194.128,114.681,194.128z"/>
			</g>
		</g>
		<g>
			<g>
				<path d="M189.507,248.829l-1.126-19.416c-0.341-6.111-4.558-11.221-10.492-12.714l-16.597-4.177
					c-2.486-0.625-4.976-1.45-7.399-2.449c-1.275-0.527-2.738,0.082-3.265,1.359c-0.526,1.276,0.082,2.738,1.358,3.264
					c2.646,1.091,5.366,1.991,8.085,2.675l16.597,4.177c3.802,0.957,6.502,4.23,6.721,8.149l1.126,19.421
					c0.029,0.494-0.143,0.963-0.481,1.323c-0.34,0.36-0.8,0.558-1.294,0.558H73.261c-0.494,0-0.954-0.198-1.294-0.558
					c-0.339-0.36-0.511-0.83-0.481-1.324l1.126-19.426c0.219-3.914,2.919-7.187,6.721-8.144l16.615-4.182
					c2.851-0.717,5.68-1.661,8.409-2.805c1.273-0.534,1.874-1.999,1.34-3.272s-2.001-1.873-3.271-1.339
					c-2.5,1.047-5.09,1.911-7.698,2.568l-16.615,4.182c-5.935,1.494-10.151,6.603-10.492,12.709l-1.126,19.42
					c-0.107,1.854,0.563,3.693,1.838,5.045c1.274,1.352,3.072,2.126,4.93,2.126h109.479c1.857,0,3.655-0.775,4.93-2.126
					C188.944,252.522,189.614,250.683,189.507,248.829z"/>
			</g>
		</g>
		<g>
			<g>
				<g>
					<path d="M159.405,144.01c-0.043-2.161-1.764-3.904-3.918-3.968c-11.328-0.332-17.126-4.854-19.094-6.782
						c-0.819-0.803-1.943-1.23-3.091-1.154c-1.145,0.07-2.213,0.627-2.93,1.528c0,0,0,0.001-0.001,0.001
						c-9.519,11.97-23.386,10.573-28.905,9.418c-1.199-0.251-2.436,0.048-3.39,0.822c-0.944,0.767-1.487,1.901-1.488,3.135v23.256
						c0,17.32,14.091,31.411,31.411,31.411s31.411-14.091,31.411-31.411v-25.753L159.405,144.01z M154.411,170.266
						c0,14.563-11.848,26.411-26.411,26.411s-26.411-11.848-26.411-26.411v-22.101c6.001,1.04,21.278,2.123,32.055-10.635
						c3.211,2.856,9.681,6.941,20.768,7.473V170.266z"/>
				</g>
			</g>
		</g>
		<g>
			<g>
				<path d="M150.623,110.894c-2.622,0-5.221,0.557-7.628,1.624c-3.587-4.584-9.134-7.353-14.971-7.353h-8.479
					c-17.833,0-32.342,14.509-32.342,32.342v12.752c0,1.381,1.119,2.5,2.5,2.5s2.5-1.119,2.5-2.5v-12.752
					c0-15.077,12.266-27.342,27.342-27.342h8.479c4.875,0,9.479,2.632,12.019,6.868c0.341,0.569,0.894,0.979,1.537,1.14
					c0.642,0.159,1.323,0.06,1.894-0.281c2.18-1.308,4.652-1.999,7.149-1.999c7.728,0,14.015,6.287,14.015,14.014v21.143
					c0,1.381,1.119,2.5,2.5,2.5s2.5-1.119,2.5-2.5v-21.143C169.638,119.424,161.107,110.894,150.623,110.894z"/>
			</g>
		</g>
		<g>
			<g>
				<path d="M158.766,145.732c-0.407,0-0.81,0.018-1.206,0.052c-1.376,0.12-2.395,1.332-2.274,2.707
					c0.119,1.375,1.333,2.393,2.706,2.274c0.255-0.022,0.514-0.034,0.774-0.034c5.277,0,9.571,4.293,9.571,9.571
					c0,5.277-4.294,9.57-9.571,9.57c-0.291,0-0.579-0.018-0.863-0.047c-1.386-0.139-2.603,0.856-2.743,2.23
					c-0.143,1.373,0.856,2.602,2.229,2.743c0.481,0.05,0.932,0.074,1.377,0.074c8.034,0,14.571-6.536,14.571-14.57
					S166.8,145.732,158.766,145.732z"/>
			</g>
		</g>
		<g>
			<g>
				<path d="M97.961,169.839c-0.239,0.021-0.482,0.034-0.728,0.034c-5.277,0-9.57-4.293-9.57-9.57c0-5.277,4.293-9.571,9.57-9.571
					c0.252,0,0.501,0.011,0.747,0.031c1.372,0.117,2.582-0.913,2.694-2.29c0.111-1.376-0.914-2.582-2.29-2.693
					c-0.381-0.031-0.763-0.047-1.151-0.047c-8.034,0-14.57,6.537-14.57,14.571s6.536,14.57,14.57,14.57
					c0.396,0,0.785-0.02,1.171-0.054c1.375-0.123,2.391-1.337,2.269-2.712C100.55,170.732,99.337,169.713,97.961,169.839z"/>
			</g>
		</g>
		<g>
			<g>
				<g>
					<path d="M149.667,18.146L134.01,2.489C132.405,0.884,130.271,0,128,0s-4.405,0.884-6.01,2.49l-15.657,15.657
						c-3.314,3.313-3.315,8.706-0.001,12.021c1.605,1.605,3.739,2.49,6.01,2.49c0.001,0,0.001,0,0.001,0
						c2.271,0,4.405-0.884,6.01-2.49l1.147-1.147v60.036c0,4.687,3.813,8.5,8.5,8.5s8.5-3.813,8.5-8.5V29.02l1.147,1.147
						c1.604,1.605,3.739,2.489,6.01,2.489c2.27,0,4.404-0.884,6.012-2.489C152.982,26.852,152.981,21.459,149.667,18.146z
						 M146.134,26.631c-1.324,1.322-3.629,1.322-4.951,0.001l-5.415-5.415c-0.714-0.714-1.786-0.931-2.725-0.542
						c-0.934,0.387-1.543,1.298-1.543,2.31v66.071c0,1.93-1.57,3.5-3.5,3.5s-3.5-1.57-3.5-3.5V22.984
						c0-1.011-0.609-1.923-1.543-2.31c-0.31-0.128-0.635-0.19-0.956-0.19c-0.651,0-1.29,0.254-1.769,0.732l-5.416,5.415
						c-0.66,0.661-1.539,1.025-2.474,1.025c-0.936,0-1.814-0.364-2.475-1.025c-1.365-1.365-1.365-3.585,0-4.95l15.658-15.657
						c1.32-1.321,3.627-1.321,4.947,0c0.001,0,0.001,0,0.001,0l15.657,15.658C147.497,23.046,147.497,25.267,146.134,26.631z"/>
				</g>
			</g>
		</g>
		<g>
			<g>
				<g>
					<path d="M220.84,45.317C220.839,45.317,220.839,45.317,220.84,45.317l-15.657-15.656c-1.605-1.606-3.74-2.49-6.011-2.49
						c-2.271,0-4.406,0.885-6.01,2.49c-3.314,3.313-3.315,8.706-0.001,12.021l1.146,1.146h-27.165
						c-9.021,0-16.643,7.791-16.643,17.013v35.572c0,4.687,3.813,8.5,8.5,8.5s8.5-3.813,8.5-8.5l-0.001-35.553
						c0.001-0.009,0.005-0.02,0.01-0.032h26.799l-1.146,1.146c-3.314,3.313-3.313,8.706,0.001,12.021
						c1.604,1.605,3.739,2.489,6.01,2.489c2.27,0,4.404-0.884,6.011-2.489l15.656-15.657
						C224.152,54.024,224.152,48.632,220.84,45.317z M217.304,53.803l-15.655,15.656c-1.324,1.322-3.629,1.322-4.951,0.001
						c-1.365-1.365-1.365-3.585-0.001-4.95l5.414-5.414c0.715-0.715,0.929-1.79,0.542-2.724c-0.387-0.935-1.299-1.543-2.31-1.543
						h-33.2c-2.474,0-4.643,2.342-4.643,5.013v35.572c0,1.93-1.57,3.5-3.5,3.5s-3.5-1.57-3.5-3.5V59.841
						c0-6.512,5.332-12.013,11.643-12.013h33.2c1.011,0,1.923-0.609,2.31-1.543c0.387-0.934,0.173-2.009-0.542-2.724l-5.413-5.414
						c-0.661-0.661-1.025-1.541-1.025-2.475c0-0.935,0.364-1.813,1.026-2.476c1.32-1.322,3.627-1.322,4.949,0l15.655,15.656
						C218.668,50.217,218.668,52.438,217.304,53.803z"/>
				</g>
			</g>
		</g>
		<g>
			<g>
				<g>
					<path d="M88.857,42.828H61.692l1.147-1.146c1.604-1.606,2.488-3.741,2.488-6.011c0-2.271-0.885-4.405-2.489-6.01
						c-1.605-1.605-3.739-2.489-6.011-2.489c-2.271,0-4.405,0.884-6.011,2.489L35.16,45.317c-3.313,3.315-3.313,8.707,0.001,12.021
						l15.656,15.657c1.604,1.605,3.739,2.489,6.011,2.489c2.271,0,4.405-0.884,6.01-2.489c3.314-3.314,3.315-8.707,0.001-12.021
						l-1.146-1.146h26.803c0.002,0.005,0.004,0.01,0.005,0.013v35.572c0,4.687,3.813,8.5,8.5,8.5s8.5-3.813,8.5-8.5V59.841
						C105.5,50.619,97.879,42.828,88.857,42.828z M100.5,95.413c0,1.93-1.57,3.5-3.5,3.5s-3.5-1.57-3.5-3.5V59.841
						c0-2.67-2.169-5.013-4.643-5.013h-33.2c-1.011,0-1.923,0.609-2.31,1.543c-0.387,0.934-0.173,2.009,0.542,2.724l5.414,5.414
						c1.364,1.365,1.364,3.585-0.001,4.95c-1.322,1.322-3.628,1.321-4.95,0L38.696,53.803c-1.364-1.365-1.364-3.585,0-4.95
						l15.656-15.656c1.324-1.323,3.63-1.321,4.95,0c0.661,0.661,1.025,1.54,1.025,2.475c0,0.935-0.364,1.814-1.024,2.475
						l-5.414,5.414c-0.715,0.715-0.929,1.79-0.542,2.724c0.387,0.935,1.299,1.543,2.31,1.543h33.2
						c6.311,0,11.643,5.501,11.643,12.013V95.413z"/>
				</g>
			</g>
		</g>
		<g>
			<g>
				<path fill="#F5C84C" d="M76.8,115.85c-4.5-0.8-8-4.3-8.9-8.7c0-0.2-0.4-0.2-0.4,0c-0.9,4.4-4.4,7.9-8.9,8.7
					c-0.2,0-0.2,0.3,0,0.4c4.5,0.8,8,4.3,8.9,8.7c0,0.2,0.4,0.2,0.4,0c0.9-4.4,4.4-7.9,8.9-8.7C77,116.15,77,115.85,76.8,115.85z"/>
			</g>
		</g>
		<g>
			<g>
				<path fill="#FC657E" d="M171.61,10.21c-3.157-0.561-5.613-3.017-6.245-6.104c0-0.14-0.281-0.14-0.281,0
					c-0.632,3.087-3.087,5.543-6.245,6.104c-0.14,0-0.14,0.211,0,0.281c3.157,0.561,5.613,3.017,6.245,6.104
					c0,0.14,0.281,0.14,0.281,0c0.631-3.087,3.087-5.543,6.245-6.104C171.75,10.42,171.75,10.21,171.61,10.21z"/>
			</g>
		</g>
		<g>
			<g>
				<path fill="#87D147" d="M188.7,191.1h-2.3v-2.3c0-1.7-1.4-3.2-3.2-3.2c-1.8,0-3.2,1.4-3.2,3.2v2.3h-2.3c-1.7,0-3.2,1.4-3.2,3.2
					s1.4,3.2,3.2,3.2h2.3v2.3c0,1.7,1.4,3.2,3.2,3.2c1.8,0,3.2-1.4,3.2-3.2v-2.3h2.3c1.7,0,3.2-1.4,3.2-3.2S190.5,191.1,188.7,191.1
					z"/>
			</g>
		</g>
		<g>
			<g>
				<path fill="#F5C84C" d="M199.8,165c-1.878,0-3.4,1.522-3.4,3.4c0,1.878,1.522,3.4,3.4,3.4c1.878,0,3.4-1.522,3.4-3.4
					C203.2,166.522,201.678,165,199.8,165z"/>
			</g>
		</g>
		<g>
			<g>
				<path fill="#70D6F9" d="M55.8,138c-1.878,0-3.4,1.522-3.4,3.4c0,1.878,1.522,3.4,3.4,3.4c1.878,0,3.4-1.522,3.4-3.4
					C59.2,139.522,57.678,138,55.8,138z"/>
			</g>
		</g>
	</g>
</g>
<g id="Layer_16">
</g>
<g id="Layer_17">
</g>
<g id="Layer_18">
</g>
<g id="Layer_19">
</g>
<g id="Layer_20">
</g>
<g id="Layer_21">
</g>
<g id="Layer_22">
</g>
<g id="Layer_23">
</g>
<g id="Layer_24">
</g>
<g id="Layer_25">
</g>
<g id="Layer_26">
</g>
<g id="Layer_27">
</g>
<g id="Layer_28">
</g>
<g id="Layer_29">
</g>
<g id="Layer_30">
</g>
<g id="Layer_31">
</g>
<g id="Layer_32">
</g>
<g id="Layer_33">
</g>
<g id="Layer_34">
</g>
<g id="Layer_35">
</g>
<g id="Layer_36">
</g>
<g id="Layer_37">
</g>
<g id="Layer_38">
</g>
<g id="Layer_39">
</g>
<g id="Layer_40">
</g>
<g id="Layer_41">
</g>
<g id="Layer_42">
</g>
<g id="Layer_43">
</g>
<g id="Layer_44">
</g>
<g id="Layer_45">
</g>
<g id="Layer_46">
</g>
<g id="Layer_47">
</g>
<g id="Layer_48">
</g>
<g id="Layer_49">
</g>
<g id="Layer_50">
</g>
<g id="Layer_51">
</g>
<g id="Layer_52">
</g>
<g id="Layer_53">
</g>
<g id="Layer_54">
</g>
<g id="Layer_55">
</g>
<g id="Layer_56">
</g>
<g id="Layer_57">
</g>
<g id="Layer_58">
</g>
<g id="Layer_59">
</g>
<g id="Layer_60">
</g>
<g id="Layer_61">
</g>
<g id="Layer_62">
</g>
<g id="Layer_63">
</g>
<g id="Layer_64">
</g>
<g id="Layer_65">
</g>
<g id="Layer_66">
</g>
<g id="Layer_67">
</g>
<g id="Layer_68">
</g>
<g id="Layer_69">
</g>
<g id="Layer_70">
</g>
<g id="Layer_71">
</g>
<g id="Layer_72">
</g>
<g id="Layer_73">
</g>
<g id="Layer_74">
</g>
<g id="Layer_75">
</g>
<g id="Layer_76">
</g>
<g id="Layer_77">
</g>
<g id="Layer_78">
</g>
<g id="Layer_79">
</g>
<g id="Layer_80">
</g>
<g id="Layer_81">
</g>
<g id="Layer_82">
</g>
<g id="Layer_83">
</g>
<g id="Layer_84">
</g>
<g id="Layer_85">
</g>
<g id="Layer_86">
</g>
<g id="Layer_87">
</g>
<g id="Layer_88">
</g>
<g id="Layer_89">
</g>
<g id="Layer_90">
</g>
</svg>
