<?xml version="1.0" encoding="iso-8859-1"?>
<!-- Generator: Adobe Illustrator 22.0.1, SVG Export Plug-In . SVG Version: 6.00 Build 0)  -->
<svg version="1.1" id="Layer_1" xmlns="http://www.w3.org/2000/svg" xmlns:xlink="http://www.w3.org/1999/xlink" x="0px" y="0px"
	 width="900px" height="900px" viewBox="0 0 900 900" enable-background="new 0 0 900 900" xml:space="preserve">
<g>
	<path d="M519.03,331.396c0.038,2.482,4.25,3.284,5.358,0.44c2.57-6.591,5.483-12.993,8.62-19.278
		c5.158-7.8,9.908-15.863,14.142-24.264c0.454-0.901,0.342-1.747-0.034-2.446c-0.242-0.484-0.614-0.905-1.105-1.183
		c-0.49-0.289-1.046-0.401-1.591-0.366c-0.788,0.028-1.572,0.354-2.122,1.194c-5.159,7.867-9.766,16.011-13.942,24.379
		c-3.875,5.859-7.963,11.583-12.386,17.104C514.061,329.358,516.861,332.604,519.03,331.396z"/>
	<path d="M486.524,428.789c10.534-5.704,20.847-11.768,30.954-18.199c2.919-1.857,0.233-6.523-2.691-4.661
		c-10.106,6.431-20.42,12.495-30.954,18.199C480.779,425.781,483.483,430.436,486.524,428.789z"/>
	<path d="M785.288,256.837c0.395,1.57,2.076,2.871,3.895,1.821c9.194-5.308,18.387-10.616,27.581-15.924
		c1.816-1.048,1.532-3.157,0.371-4.285c-0.396-1.569-2.08-2.868-3.895-1.82c-9.194,5.308-18.387,10.615-27.581,15.923
		C783.839,253.603,784.125,255.71,785.288,256.837z"/>
	<path d="M737.196,227.939c-3.172,5.241-4.753,11.188-7.533,16.606c-0.928,1.801-1.855,3.602-2.783,5.403
		c-8.101,17.727-15.873,18.884-23.316,3.471c2.389-2.505-1.439-6.291-3.834-3.779c-7.91,8.294-6.982,24.498,7.38,23.108
		c9.803-0.948,19.61-12.306,24.447-20.133c4.267-6.905,5.871-15.229,10.316-22.008c9.105-13.889,31.97-27.544,48.902-18.266
		c-32.556-7.231-48.604,53.102-61.923,73.089c-0.055,0.017-0.098,0.003-0.154,0.023c-3.003,1.102-5.316,2.787-7.057,4.901
		c-9.444-0.053-18.837-13.688-26.916-15.871c-6.508-1.758-14.66,1.01-18.495,6.601c-8.008,11.676,5.87,26.322,16.846,16.232
		c2.549-2.343-1.285-6.123-3.835-3.779c-10.08-0.475-12.618-3.296-7.617-8.461c1.346-4.276,4.432-6.18,9.257-5.713
		c4.707,0.274,8.111,3.755,11.627,6.415c3.468,2.625,6.863,5.491,10.771,7.438c0.197,0.098,0.394,0.164,0.591,0.256
		c-0.658,0.79-1.367,1.646-2.086,2.513c-19.31,3.364-46.952,8.898-51.462,27.547c-2.713-1.484-5.088,2.891-2.374,4.804
		c0.584,0.412,1.173,0.655,1.76,1.004c0.01,0.683-0.075,1.314-0.01,2.027c0.3,3.307,5.276,3.437,5.347,0.346
		c18.406,5.42,37.019-15.753,49.588-30.793c1.11-0.19,2.206-0.375,3.219-0.55c-0.019,0.217-0.061,0.42-0.075,0.64
		c-0.268,4.358,0.517,8.731,1.056,13.047c0.546,4.375,1.859,9.063-0.257,13.277c-2.008,4.412-5.2,6.132-9.576,5.16
		c-6.974,1.749-8.146-1.86-3.518-10.827c3.305-1.036,1.948-6.246-1.356-5.21c-14.226,4.459-8.481,23.802,5.635,22.705
		c6.76-0.525,13.232-6.201,14.964-12.716c2.149-8.088-4.962-23.04-0.286-31.245c2.702-0.451,5.317-1.612,7.773-3.661
		c0.046-0.038,0.055-0.083,0.097-0.122c23.968-1.54,84.242,14.728,94.258-17.082c-0.432,19.302-23.69,32.278-40.27,33.218
		c-8.094,0.459-16.104-2.313-24.218-2.07c-9.197,0.275-23.937,3.09-29.659,11.105c-8.385,11.743,5.185,20.649,16.322,17.946
		c3.373-0.819,2.009-6.027-1.356-5.21c-9.627-14.153-4.739-20.305,14.664-18.457c2.023,0.097,4.047,0.194,6.07,0.291
		c6.082,0.302,12.023,1.906,18.148,1.779c9.294-0.192,17.054-3.508,24.888-8.353c15.967-9.875,25.603-22.13,19.14-40.894
		c-0.888-2.579-4.295-2.254-5.138-0.393c-0.013,0.001-0.026,0.005-0.039,0.006c0.467-0.938,0.949-1.862,1.29-2.915
		c1.07-3.304-4.134-4.681-5.199-1.393c-6.194,19.117-44.052,13.349-60.169,11.844c6.756-14.71,20.689-50.381,40.342-46.186
		c3.38,0.721,4.789-4.474,1.393-5.199c-1.083-0.231-2.124-0.276-3.17-0.34c0.007-0.011,0.017-0.019,0.025-0.03
		c2.033,0.201,4.018-2.587,2.229-4.647c-13.018-14.979-28.45-12.761-44.985-3.871C748.761,214.924,742.01,219.986,737.196,227.939z
		 M665.457,326.021c3.018-14.418,23.932-20.336,40.886-23.605C695.034,315.463,679.453,330.617,665.457,326.021z M755.835,269.325
		c-0.757,1.611,0.131,3.092,1.364,3.728c-0.065,1.386,0.773,2.896,2.547,3.046c16.036,1.356,49.787,6.555,62.71-8.675
		c-3.154,33.079-63.432,18.466-87.614,18.538c12.154-20.907,29.637-80.415,59.861-66.607
		C775.052,222.93,762.679,254.759,755.835,269.325z"/>
	<path d="M641.549,450.143c0.005-0.568-0.175-1.104-0.478-1.559c-0.418-0.67-1.093-1.186-2.096-1.243
		c-9.393-0.535-18.75-0.452-28.084,0.115c-7.011-0.426-14.012-1.104-21.005-2.174c-3.017-0.462-4.428,3.587-2.297,4.86
		c-2.13,1.274-0.72,5.322,2.297,4.861c6.993-1.07,13.995-1.748,21.007-2.174c9.333,0.567,18.69,0.649,28.082,0.115
		c1.003-0.057,1.678-0.573,2.096-1.243C641.374,451.248,641.554,450.711,641.549,450.143z"/>
	<path d="M518.228,411.89c-10.623,5.537-21.031,11.436-31.238,17.707c-2.946,1.81-0.267,6.479,2.691,4.661
		c10.207-6.271,20.615-12.171,31.238-17.707C523.993,414.949,521.296,410.291,518.228,411.89z"/>
	<path d="M486.99,470.69c10.207,6.271,20.615,12.171,31.238,17.707c3.068,1.599,5.765-3.059,2.691-4.661
		c-10.623-5.537-21.031-11.436-31.238-17.707C486.723,464.211,484.044,468.879,486.99,470.69z"/>
	<path d="M816.763,657.552c-9.194-5.308-18.387-10.616-27.581-15.923c-1.819-1.05-3.5,0.251-3.894,1.821
		c-1.162,1.127-1.449,3.234,0.37,4.284c9.194,5.308,18.387,10.616,27.581,15.924c1.816,1.048,3.499-0.251,3.895-1.821
		C818.295,660.709,818.579,658.601,816.763,657.552z"/>
	<path d="M811.156,595.707c-7.834-4.846-15.594-8.161-24.888-8.353c-6.125-0.127-12.066,1.477-18.148,1.779
		c-2.023,0.097-4.047,0.194-6.07,0.291c-19.403,1.848-24.291-4.304-14.664-18.457c3.364,0.817,4.729-4.392,1.356-5.21
		c-11.138-2.703-24.707,6.203-16.322,17.945c5.723,8.015,20.462,10.83,29.659,11.105c8.114,0.243,16.124-2.529,24.218-2.07
		c16.58,0.94,39.839,13.916,40.27,33.218c-10.016-31.811-70.29-15.542-94.258-17.082c-0.042-0.039-0.051-0.084-0.097-0.122
		c-2.456-2.049-5.071-3.21-7.773-3.661c-4.676-8.205,2.435-23.157,0.286-31.245c-1.732-6.516-8.204-12.191-14.964-12.716
		c-14.115-1.097-19.86,18.245-5.635,22.705c3.304,1.036,4.661-4.175,1.356-5.21c-4.628-8.967-3.455-12.576,3.518-10.827
		c4.376-0.972,7.568,0.748,9.576,5.16c2.117,4.213,0.804,8.902,0.257,13.277c-0.539,4.315-1.324,8.689-1.056,13.047
		c0.013,0.22,0.056,0.423,0.075,0.64c-1.014-0.174-2.109-0.36-3.219-0.55c-12.569-15.041-31.182-36.213-49.588-30.793
		c-0.072-3.091-5.047-2.961-5.347,0.346c-0.065,0.712,0.02,1.344,0.01,2.027c-0.586,0.35-1.175,0.592-1.76,1.004
		c-2.714,1.913-0.339,6.288,2.374,4.804c4.51,18.65,32.151,24.183,51.462,27.547c0.719,0.867,1.428,1.722,2.086,2.513
		c-0.197,0.092-0.394,0.157-0.591,0.256c-3.908,1.947-7.303,4.814-10.771,7.438c-3.516,2.66-6.919,6.142-11.627,6.415
		c-4.824,0.467-7.91-1.438-9.257-5.713c-5.002-5.165-2.463-7.985,7.617-8.461c2.55,2.344,6.383-1.436,3.835-3.779
		c-10.975-10.09-24.854,4.556-16.846,16.232c3.835,5.592,11.986,8.359,18.495,6.601c8.079-2.183,17.472-15.817,26.916-15.87
		c1.742,2.114,4.054,3.799,7.057,4.901c0.056,0.02,0.099,0.006,0.154,0.023c13.319,19.987,29.366,80.32,61.923,73.089
		c-16.932,9.278-39.798-4.377-48.902-18.266c-4.444-6.78-6.049-15.103-10.316-22.008c-4.837-7.828-14.644-19.184-24.447-20.133
		c-14.362-1.39-15.29,14.814-7.38,23.108c2.395,2.512,6.224-1.274,3.834-3.779c7.443-15.414,15.215-14.256,23.316,3.471
		c0.927,1.801,1.855,3.602,2.783,5.403c2.78,5.418,4.361,11.364,7.533,16.606c4.814,7.953,11.565,13.015,19.678,17.377
		c16.536,8.89,31.967,11.108,44.985-3.871c1.789-2.059-0.196-4.847-2.229-4.647c-0.007-0.011-0.017-0.019-0.025-0.03
		c1.045-0.064,2.086-0.109,3.17-0.34c3.396-0.725,1.987-5.921-1.393-5.199c-19.653,4.195-33.586-31.476-40.342-46.186
		c16.117-1.505,53.975-7.273,60.169,11.844c1.065,3.288,6.27,1.911,5.199-1.393c-0.341-1.054-0.823-1.978-1.29-2.916
		c0.013,0.001,0.026,0.005,0.039,0.006c0.843,1.861,4.25,2.186,5.138-0.393C836.76,617.837,827.123,605.582,811.156,595.707z
		 M665.457,574.266c13.996-4.596,29.578,10.558,40.886,23.605C689.39,594.602,668.475,588.685,665.457,574.266z M759.747,624.188
		c-1.773,0.15-2.612,1.66-2.547,3.046c-1.233,0.637-2.121,2.118-1.364,3.728c6.844,14.566,19.217,46.395,38.868,49.971
		c-30.225,13.808-47.707-45.7-59.861-66.607c24.183,0.072,84.461-14.541,87.614,18.538
		C809.534,617.632,775.783,622.832,759.747,624.188z"/>
	<path d="M857.401,466.567c5.513-3.064,10.497-7.328,14.74-13.192c0.931-1.286,0.426-2.516-0.559-3.232
		c0.985-0.716,1.49-1.946,0.559-3.232c-4.243-5.864-9.227-10.128-14.74-13.192c7.734-2.83,17.638-6.684,18.055-15.836
		c0.423-9.278-8.279-12.966-15.617-14.768c-0.537-0.132-1.076-0.216-1.614-0.332c15.263-10.908,9.258-28.759-12.055-30.207
		c-18.382-1.248-35.909,10.363-50.161,20.548c-7.49,5.352-14.415,11.114-21.25,16.82c5.496-11.835,11.236-23.647,18.626-34.409
		c5.444-7.929,11.765-15.535,19.213-21.694c4.857-4.433,10.34-7.727,16.45-9.884c9.246-5.614,18.216-2.816,26.91,8.393
		c-2.085,2.763,2.602,5.42,4.661,2.691c14.504-19.213-18.752-21.624-30.394-17.578c-32.64,11.342-49.394,46.459-62.802,75.546
		c-0.484,1.05-0.249,2.031,0.29,2.781c-2.313,1.902-4.637,3.775-6.984,5.608c0.589-0.858,1.281-1.62,1.823-2.519
		c10.367-17.195,8.633-37.826-6.745-51.234c-1.796-1.566-4.124-0.213-4.548,1.52c-1.775,0.077-3.536,1.926-2.413,3.979
		c10.431,19.066-0.704,34.917-16.928,47.769c9.566-19.259-20.77-35.903-34.878-43.113c-3.078-1.573-5.778,3.084-2.691,4.661
		c1.383,0.707,3.1,1.575,5.003,2.573c21.398,17.895,0.19,43.629-14.587,57.363c-0.177,0.165-0.256,0.348-0.375,0.524
		c-0.633-0.026-1.292,0.18-1.878,0.762c-0.759,0.754-1.434,1.561-2.155,2.338c-8.679-10.858-15.4-23.319-27.899-30.388
		c-10.986-6.214-24.204-8.084-36.645-7.276c-15.281,0.993-29.337,6.012-43.058,12.199c8.57-6.844,15.623-15.043,21.977-24.634
		c8.575-12.942,15.053-27.936,24.506-39.711c12.002-2.524,23.029-7.474,32.106-17.53c1.32-1.462,0.622-3.292-0.636-4.144
		c-0.109-1.515-1.345-3.035-3.271-2.623c-13.209,2.826-22.946,9.924-31.119,19.018c-14.956,2.327-31.223,0.432-46.76,1.389
		c-11.482,0.707-22.11,2.715-32.322,6.715c12.218-8.789,23.593-18.452,32.093-31.19c6.92-10.37,11.91-22.753,12.022-35.373
		c0.127-14.336-7.28-26.372-12.343-39.294c1.027-0.234,2.054-0.481,3.079-0.759c0.796-0.216,1.304-0.684,1.598-1.245
		c0.212-0.014,0.41,0.009,0.642-0.062c19.282-5.93,52.172-11.43,56.971,16.048c-0.087,2.148-0.193,4.068-0.273,5.62
		c-0.177,3.462,5.206,3.453,5.383,0c0.811-15.842,1.532-50.449-20.006-51.718c19.278-7.66,38.625-9.42,49.942,9.181
		c1.217,1.999,3.698,1.398,4.652-0.1c1.713,0.499,4.049-0.84,3.591-3.179c-3.923-20.022-20.924-31.839-40.998-31.458
		c-0.912,0.017-1.809,0.103-2.71,0.167c2.636-1.061,5.292-2.088,7.966-3.092c0.38,0.842,1.112,1.536,2.264,1.642
		c31.895,2.931,70.684,5.98,96.826-16.616c9.325-8.06,23.865-38.065-0.026-35.111c-3.393,0.419-3.435,5.807,0,5.383
		c5.361,13.134,3.298,22.301-6.187,27.502c-4.923,4.213-10.518,7.314-16.785,9.304c-9.058,3.371-18.806,5.042-28.394,5.792
		c-13.015,1.018-26.115,0.084-39.113-1.074c8.359-3.066,16.812-6.183,25.193-9.994c15.947-7.251,34.766-16.624,42.876-33.167
		c9.417-19.21-3.091-33.352-20.209-25.51c0.176-0.545,0.435-1.044,0.596-1.597c2.108-7.256,3.265-16.636-4.981-20.909
		c-8.134-4.215-16.425,2.436-22.742,7.718c0.103-6.306-1.098-12.755-4.054-19.361c-0.648-1.449-1.966-1.627-3.079-1.132
		c-0.128-1.211-0.94-2.263-2.519-2.1c-7.202,0.743-13.389,2.928-18.799,6.172c1.417-8.115,3.04-18.616-4.683-23.557
		c-7.823-5.005-15.368,0.687-20.598,6.141c-0.399,0.416-0.701,0.89-1.085,1.315c-1.768-18.746-20.269-22.508-32.197-4.747
		c-10.272,15.295-8.98,36.279-7.286,53.715c0.89,9.162,2.417,18.041,3.941,26.814c-7.502-10.677-14.861-21.554-20.486-33.335
		c-4.144-8.679-7.571-17.956-9.181-27.486c-1.411-6.422-1.522-12.818-0.335-19.188c-0.239-10.814,6.669-17.184,20.724-19.109
		c1.35,3.187,5.995,0.457,4.661-2.691c-9.387-22.167-28.103,5.428-30.42,17.533c-6.497,33.938,15.538,66.006,34.023,92.161
		c0.667,0.944,1.635,1.231,2.554,1.14c0.467,2.818,0.906,5.632,1.305,8.445c-0.396-0.812-0.769-1.632-1.21-2.43
		c-9.707-17.575-28.441-26.39-47.742-19.776c-2.255,0.772-2.247,3.465-0.958,4.699c-0.821,1.575-0.1,4.025,2.24,4.079
		c21.767,0.5,29.916,18.135,32.922,38.66c-11.869-18.018-41.479-0.089-54.792,8.534c-2.902,1.879-0.218,6.546,2.691,4.661
		c1.304-0.845,2.915-1.897,4.731-3.046c26.196-9.583,37.877,21.65,42.383,41.314c0.054,0.236,0.173,0.396,0.267,0.587
		c-0.339,0.535-0.49,1.209-0.28,2.007c0.271,1.027,0.571,2.039,0.882,3.045c-13.722,2.076-27.849,1.68-40.201,8.958
		c-10.874,6.407-19.103,16.919-24.623,28.098c-6.781,13.73-9.462,28.412-10.965,43.389c-1.642-10.844-5.217-21.052-10.345-31.35
		c-6.921-13.897-16.667-27.004-22.138-41.078c3.816-11.656,5.041-23.68,0.872-36.57c-0.606-1.874-2.541-2.184-3.907-1.521
		c-1.367-0.663-3.301-0.353-3.907,1.521c-4.169,12.889-2.944,24.914,0.872,36.569c-5.471,14.074-15.217,27.181-22.138,41.078
		c-5.129,10.298-8.704,20.506-10.345,31.35c-1.503-14.976-4.184-29.659-10.965-43.389c-5.521-11.178-13.749-21.691-24.624-28.098
		c-12.352-7.278-26.479-6.881-40.201-8.958c0.311-1.006,0.611-2.018,0.882-3.045c0.211-0.797,0.06-1.471-0.28-2.007
		c0.094-0.191,0.213-0.351,0.267-0.587c4.506-19.663,16.188-50.897,42.384-41.313c1.816,1.15,3.427,2.201,4.73,3.046
		c2.909,1.884,5.593-2.782,2.691-4.661c-13.314-8.623-42.924-26.551-54.792-8.534c3.005-20.525,11.154-38.16,32.921-38.66
		c2.34-0.054,3.061-2.503,2.24-4.078c1.289-1.234,1.296-3.927-0.958-4.699c-19.301-6.613-38.035,2.201-47.742,19.776
		c-0.441,0.798-0.814,1.618-1.21,2.431c0.4-2.813,0.837-5.627,1.305-8.445c0.919,0.092,1.886-0.195,2.554-1.14
		c18.486-26.156,40.521-58.223,34.023-92.161c-2.317-12.105-21.033-39.701-30.42-17.533c-1.333,3.148,3.312,5.878,4.661,2.691
		c14.055,1.925,20.963,8.294,20.724,19.109c1.187,6.37,1.076,12.766-0.335,19.188c-1.61,9.53-5.037,18.807-9.181,27.486
		c-5.625,11.781-12.985,22.658-20.487,33.335c1.524-8.773,3.051-17.652,3.941-26.814c1.694-17.436,2.986-38.42-7.286-53.715
		c-11.928-17.761-30.429-13.999-32.197,4.748c-0.384-0.425-0.686-0.899-1.085-1.315c-5.23-5.454-12.775-11.145-20.598-6.141
		c-7.723,4.94-6.099,15.442-4.683,23.557c-5.411-3.244-11.598-5.429-18.799-6.172c-1.58-0.163-2.392,0.889-2.519,2.1
		c-1.113-0.495-2.43-0.318-3.079,1.132c-2.957,6.606-4.157,13.056-4.054,19.362c-6.317-5.282-14.608-11.933-22.742-7.718
		c-8.246,4.273-7.089,13.652-4.981,20.909c0.161,0.554,0.42,1.052,0.596,1.597c-17.118-7.842-29.626,6.3-20.209,25.51
		c8.109,16.543,26.928,25.916,42.875,33.167c8.38,3.811,16.833,6.927,25.193,9.994c-12.998,1.158-26.098,2.093-39.113,1.074
		c-9.589-0.75-19.337-2.421-28.394-5.792c-6.267-1.99-11.862-5.091-16.785-9.304c-9.485-5.2-11.547-14.368-6.187-27.502
		c3.435,0.424,3.393-4.963,0-5.383c-23.891-2.954-9.35,27.052-0.026,35.111c26.143,22.596,64.932,19.546,96.826,16.616
		c1.151-0.106,1.883-0.8,2.264-1.642c2.674,1.004,5.331,2.031,7.966,3.092c-0.902-0.063-1.799-0.149-2.711-0.167
		c-20.074-0.381-37.074,11.436-40.998,31.458c-0.458,2.339,1.877,3.679,3.59,3.179c0.954,1.498,3.435,2.099,4.652,0.1
		c11.317-18.601,30.664-16.84,49.941-9.18c-21.538,1.269-20.817,35.877-20.006,51.718c0.177,3.453,5.56,3.462,5.383,0
		c-0.079-1.552-0.186-3.473-0.273-5.62c4.798-27.478,37.689-21.978,56.971-16.048c0.232,0.071,0.429,0.048,0.641,0.062
		c0.294,0.561,0.802,1.029,1.598,1.245c1.025,0.279,2.052,0.525,3.079,0.759c-5.063,12.922-12.47,24.957-12.343,39.294
		c0.112,12.621,5.101,25.003,12.022,35.373c8.5,12.737,19.875,22.4,32.093,31.19c-10.212-4-20.84-6.008-32.322-6.715
		c-15.536-0.957-31.804,0.938-46.76-1.389c-8.172-9.094-17.909-16.193-31.119-19.018c-1.926-0.412-3.162,1.108-3.271,2.623
		c-1.258,0.852-1.956,2.682-0.636,4.144c9.078,10.056,20.104,15.007,32.106,17.53c9.452,11.775,15.931,26.769,24.506,39.711
		c6.354,9.591,13.407,17.79,21.977,24.634c-13.721-6.187-27.777-11.206-43.058-12.199c-12.442-0.808-25.659,1.062-36.645,7.276
		c-12.499,7.069-19.22,19.531-27.899,30.388c-0.721-0.778-1.396-1.585-2.155-2.338c-0.585-0.581-1.244-0.787-1.878-0.761
		c-0.118-0.176-0.197-0.359-0.375-0.524c-14.776-13.734-35.985-39.468-14.587-57.363c1.903-0.998,3.62-1.866,5.003-2.573
		c3.087-1.578,0.387-6.234-2.691-4.661c-14.108,7.21-44.444,23.854-34.879,43.113c-16.223-12.852-27.359-28.704-16.927-47.769
		c1.123-2.053-0.638-3.902-2.413-3.979c-0.424-1.733-2.752-3.086-4.548-1.52c-15.378,13.409-17.111,34.04-6.744,51.234
		c0.542,0.9,1.235,1.661,1.823,2.519c-2.347-1.833-4.671-3.706-6.985-5.608c0.539-0.75,0.774-1.732,0.29-2.781
		c-13.409-29.087-30.163-64.204-62.803-75.546c-11.642-4.046-44.898-1.635-30.394,17.578c2.06,2.729,6.747,0.071,4.661-2.691
		c8.694-11.209,17.665-14.007,26.91-8.393c6.11,2.157,11.594,5.451,16.45,9.884c7.448,6.159,13.769,13.765,19.213,21.694
		c7.39,10.762,13.13,22.574,18.626,34.41c-6.835-5.706-13.761-11.468-21.251-16.82c-14.253-10.185-31.78-21.796-50.161-20.548
		c-21.313,1.447-27.318,19.298-12.055,30.207c-0.538,0.116-1.076,0.2-1.614,0.332c-7.338,1.802-16.039,5.49-15.617,14.768
		c0.417,9.152,10.322,13.006,18.055,15.836c-5.513,3.064-10.497,7.328-14.74,13.192c-0.931,1.286-0.426,2.516,0.559,3.232
		c-0.985,0.716-1.49,1.946-0.559,3.232c4.243,5.864,9.228,10.128,14.74,13.192c-7.734,2.83-17.638,6.684-18.055,15.836
		c-0.422,9.278,8.279,12.966,15.617,14.768c0.538,0.132,1.076,0.216,1.614,0.332c-15.263,10.908-9.258,28.759,12.055,30.207
		c18.381,1.248,35.908-10.363,50.161-20.548c7.49-5.352,14.416-11.114,21.251-16.82c-5.496,11.835-11.237,23.647-18.626,34.41
		c-5.444,7.929-11.765,15.535-19.213,21.694c-4.856,4.433-10.34,7.728-16.45,9.884c-9.246,5.614-18.216,2.816-26.91-8.393
		c2.085-2.763-2.602-5.42-4.661-2.691c-14.504,19.214,18.752,21.624,30.394,17.578c32.64-11.342,49.394-46.459,62.803-75.546
		c0.484-1.05,0.249-2.031-0.29-2.781c2.313-1.902,4.638-3.775,6.985-5.609c-0.589,0.858-1.281,1.62-1.823,2.519
		c-10.367,17.194-8.633,37.826,6.744,51.234c1.796,1.566,4.124,0.213,4.548-1.52c1.774-0.077,3.536-1.926,2.413-3.979
		c-10.431-19.065,0.704-34.917,16.927-47.769c-9.565,19.259,20.77,35.903,34.879,43.113c3.078,1.573,5.778-3.084,2.691-4.661
		c-1.383-0.707-3.1-1.575-5.003-2.573c-21.398-17.895-0.19-43.629,14.587-57.363c0.177-0.165,0.256-0.348,0.375-0.524
		c0.633,0.026,1.292-0.18,1.878-0.761c0.759-0.754,1.434-1.56,2.155-2.338c8.679,10.858,15.4,23.319,27.899,30.388
		c10.986,6.214,24.204,8.084,36.645,7.276c15.281-0.993,29.337-6.012,43.058-12.199c-8.57,6.844-15.623,15.043-21.977,24.634
		c-8.575,12.943-15.053,27.936-24.506,39.711c-12.002,2.523-23.028,7.474-32.106,17.53c-1.32,1.462-0.622,3.292,0.636,4.144
		c0.109,1.515,1.345,3.035,3.271,2.623c13.209-2.826,22.946-9.924,31.119-19.018c14.956-2.327,31.223-0.432,46.76-1.389
		c11.483-0.707,22.111-2.715,32.323-6.716c-12.219,8.789-23.594,18.453-32.094,31.19c-6.921,10.371-11.91,22.753-12.022,35.373
		c-0.127,14.336,7.28,26.372,12.343,39.294c-1.027,0.234-2.054,0.481-3.079,0.759c-0.796,0.216-1.304,0.684-1.598,1.245
		c-0.212,0.014-0.41-0.009-0.641,0.062c-19.282,5.93-52.172,11.43-56.971-16.048c0.087-2.148,0.193-4.068,0.273-5.62
		c0.177-3.462-5.206-3.453-5.383,0c-0.811,15.841-1.533,50.449,20.006,51.718c-19.278,7.66-38.624,9.42-49.941-9.181
		c-1.217-1.999-3.698-1.398-4.652,0.1c-1.713-0.499-4.049,0.84-3.59,3.179c3.923,20.022,20.924,31.839,40.998,31.458
		c0.912-0.017,1.809-0.103,2.711-0.167c-2.636,1.061-5.292,2.088-7.966,3.092c-0.38-0.842-1.112-1.536-2.264-1.642
		c-31.895-2.931-70.684-5.98-96.826,16.616c-9.324,8.06-23.865,38.066,0.026,35.112c3.393-0.42,3.435-5.807,0-5.383
		c-5.361-13.135-3.298-22.302,6.187-27.502c4.923-4.213,10.518-7.314,16.785-9.304c9.058-3.371,18.806-5.041,28.394-5.792
		c13.015-1.018,26.115-0.084,39.112,1.074c-8.359,3.067-16.812,6.184-25.192,9.994c-15.947,7.251-34.766,16.624-42.875,33.167
		c-9.417,19.211,3.091,33.352,20.209,25.51c-0.176,0.545-0.436,1.044-0.597,1.598c-2.108,7.256-3.265,16.635,4.981,20.908
		c8.134,4.215,16.425-2.436,22.742-7.718c-0.103,6.306,1.098,12.755,4.054,19.361c0.649,1.449,1.966,1.627,3.079,1.132
		c0.127,1.211,0.94,2.263,2.519,2.1c7.201-0.743,13.388-2.928,18.799-6.172c-1.417,8.115-3.04,18.616,4.683,23.557
		c7.823,5.005,15.368-0.687,20.598-6.14c0.399-0.416,0.701-0.89,1.085-1.315c1.768,18.746,20.269,22.508,32.196,4.747
		c10.272-15.295,8.98-36.279,7.286-53.715c-0.89-9.162-2.417-18.041-3.941-26.814c7.502,10.677,14.861,21.555,20.487,33.335
		c4.144,8.679,7.571,17.956,9.181,27.486c1.411,6.422,1.522,12.818,0.335,19.188c0.239,10.814-6.669,17.184-20.724,19.108
		c-1.35-3.187-5.995-0.457-4.661,2.691c9.388,22.167,28.103-5.428,30.42-17.533c6.498-33.938-15.538-66.005-34.023-92.161
		c-0.667-0.944-1.635-1.231-2.554-1.14c-0.467-2.818-0.906-5.632-1.305-8.444c0.396,0.813,0.769,1.632,1.21,2.43
		c9.707,17.575,28.441,26.389,47.742,19.776c2.254-0.772,2.247-3.465,0.958-4.699c0.821-1.575,0.1-4.025-2.24-4.078
		c-21.767-0.5-29.916-18.135-32.921-38.66c11.868,18.018,41.478,0.089,54.792-8.534c2.902-1.879,0.218-6.546-2.691-4.661
		c-1.304,0.845-2.914,1.897-4.73,3.046c-26.197,9.584-37.878-21.65-42.384-41.313c-0.054-0.236-0.173-0.396-0.267-0.587
		c0.339-0.535,0.49-1.209,0.28-2.007c-0.271-1.027-0.571-2.039-0.882-3.045c13.722-2.076,27.849-1.679,40.201-8.957
		c10.874-6.407,19.103-16.919,24.624-28.098c6.781-13.73,9.462-28.412,10.965-43.388c1.642,10.844,5.217,21.051,10.345,31.349
		c6.921,13.897,16.667,27.005,22.138,41.078c-3.816,11.656-5.041,23.68-0.872,36.57c0.606,1.874,2.541,2.184,3.907,1.521
		c1.367,0.663,3.301,0.353,3.907-1.521c4.17-12.89,2.944-24.914-0.872-36.57c5.471-14.074,15.217-27.181,22.138-41.078
		c5.129-10.298,8.704-20.505,10.345-31.349c1.503,14.976,4.184,29.659,10.965,43.388c5.521,11.179,13.749,21.691,24.623,28.098
		c12.352,7.278,26.479,6.881,40.201,8.957c-0.311,1.006-0.611,2.018-0.882,3.045c-0.211,0.797-0.06,1.471,0.28,2.007
		c-0.094,0.191-0.213,0.351-0.267,0.587c-4.506,19.663-16.188,50.897-42.383,41.314c-1.816-1.15-3.427-2.202-4.731-3.046
		c-2.909-1.884-5.593,2.782-2.691,4.661c13.314,8.623,42.924,26.551,54.792,8.534c-3.005,20.525-11.154,38.16-32.922,38.66
		c-2.339,0.054-3.06,2.503-2.24,4.079c-1.289,1.234-1.296,3.927,0.958,4.699c19.301,6.613,38.035-2.201,47.742-19.776
		c0.441-0.798,0.814-1.618,1.21-2.43c-0.399,2.813-0.838,5.626-1.305,8.444c-0.919-0.092-1.886,0.195-2.554,1.14
		c-18.485,26.156-40.521,58.223-34.023,92.161c2.318,12.105,21.033,39.701,30.42,17.533c1.333-3.148-3.312-5.878-4.661-2.691
		c-14.055-1.925-20.963-8.294-20.724-19.108c-1.187-6.37-1.076-12.766,0.335-19.188c1.61-9.53,5.037-18.807,9.181-27.486
		c5.625-11.78,12.985-22.658,20.486-33.335c-1.524,8.773-3.051,17.651-3.941,26.814c-1.694,17.436-2.986,38.42,7.286,53.715
		c11.928,17.761,30.429,13.999,32.197-4.747c0.384,0.425,0.686,0.899,1.085,1.315c5.23,5.454,12.774,11.145,20.598,6.14
		c7.723-4.94,6.099-15.442,4.683-23.557c5.411,3.244,11.598,5.429,18.799,6.172c1.58,0.163,2.392-0.889,2.519-2.1
		c1.113,0.495,2.43,0.318,3.079-1.132c2.957-6.606,4.158-13.055,4.055-19.361c6.317,5.282,14.607,11.933,22.742,7.718
		c8.246-4.273,7.089-13.652,4.981-20.908c-0.161-0.554-0.421-1.052-0.597-1.598c17.118,7.842,29.627-6.299,20.21-25.51
		c-8.11-16.543-26.929-25.916-42.876-33.167c-8.38-3.81-16.832-6.927-25.192-9.994c12.998-1.158,26.097-2.092,39.112-1.074
		c9.588,0.75,19.336,2.421,28.394,5.792c6.267,1.99,11.862,5.091,16.785,9.304c9.485,5.2,11.547,14.368,6.187,27.502
		c-3.435-0.425-3.393,4.963,0,5.383c23.891,2.954,9.351-27.052,0.026-35.112c-26.142-22.596-64.931-19.546-96.826-16.616
		c-1.151,0.106-1.883,0.8-2.264,1.642c-2.674-1.004-5.331-2.031-7.966-3.092c0.902,0.063,1.799,0.149,2.71,0.167
		c20.074,0.381,37.075-11.436,40.998-31.458c0.458-2.339-1.877-3.679-3.591-3.179c-0.954-1.498-3.435-2.099-4.652-0.1
		c-11.317,18.601-30.664,16.841-49.941,9.181c21.538-1.269,20.817-35.877,20.006-51.718c-0.177-3.453-5.56-3.462-5.383,0
		c0.08,1.552,0.186,3.473,0.273,5.62c-4.799,27.478-37.689,21.978-56.971,16.048c-0.232-0.071-0.43-0.048-0.642-0.062
		c-0.294-0.561-0.802-1.029-1.598-1.245c-1.025-0.279-2.052-0.525-3.079-0.759c5.063-12.922,12.47-24.957,12.343-39.294
		c-0.112-12.621-5.101-25.003-12.022-35.373c-8.5-12.737-19.875-22.401-32.094-31.19c10.212,4,20.84,6.009,32.322,6.716
		c15.536,0.957,31.804-0.938,46.76,1.389c8.172,9.094,17.909,16.193,31.119,19.018c1.926,0.412,3.162-1.108,3.271-2.623
		c1.258-0.852,1.956-2.682,0.636-4.144c-9.078-10.056-20.104-15.006-32.106-17.53c-9.453-11.775-15.931-26.768-24.506-39.711
		c-6.354-9.591-13.407-17.79-21.977-24.634c13.721,6.187,27.777,11.206,43.058,12.199c12.441,0.808,25.659-1.062,36.645-7.276
		c12.499-7.069,19.22-19.531,27.899-30.388c0.721,0.778,1.396,1.585,2.155,2.338c0.585,0.581,1.245,0.788,1.878,0.762
		c0.118,0.176,0.197,0.359,0.375,0.524c14.776,13.734,35.985,39.468,14.587,57.363c-1.904,0.998-3.62,1.866-5.003,2.573
		c-3.087,1.578-0.387,6.235,2.691,4.661c14.108-7.21,44.444-23.855,34.878-43.113c16.223,12.852,27.359,28.704,16.928,47.769
		c-1.123,2.053,0.638,3.902,2.413,3.979c0.424,1.733,2.752,3.086,4.548,1.52c15.378-13.409,17.111-34.04,6.745-51.234
		c-0.542-0.9-1.235-1.661-1.823-2.519c2.347,1.833,4.671,3.707,6.984,5.609c-0.539,0.75-0.774,1.731-0.29,2.781
		c13.409,29.087,30.162,64.204,62.802,75.546c11.642,4.045,44.898,1.635,30.394-17.578c-2.06-2.729-6.747-0.071-4.661,2.691
		c-8.694,11.21-17.665,14.008-26.91,8.393c-6.11-2.156-11.593-5.451-16.45-9.884c-7.448-6.159-13.769-13.765-19.213-21.694
		c-7.39-10.762-13.13-22.574-18.626-34.409c6.835,5.706,13.761,11.468,21.25,16.82c14.253,10.185,31.78,21.796,50.161,20.548
		c21.313-1.447,27.318-19.298,12.055-30.207c0.538-0.116,1.076-0.2,1.614-0.332c7.338-1.802,16.039-5.49,15.617-14.768
		C875.039,473.251,865.134,469.397,857.401,466.567z M867.479,449.603c0.171,0.236,0.381,0.38,0.584,0.541
		c-0.203,0.161-0.413,0.305-0.584,0.541c-19.902,27.505-60.427,14.731-85.8,6.76c-10.357-3.254-20.557-5.615-30.953-7.301
		c10.395-1.687,20.596-4.047,30.953-7.301C807.052,434.871,847.577,422.098,867.479,449.603z M720.451,451.057
		c-0.521-0.147-0.973-0.105-1.387,0.008c-1.104-0.345-2.214-0.607-3.321-0.922c1.108-0.314,2.218-0.577,3.321-0.922
		c0.414,0.114,0.866,0.155,1.387,0.008c0.375-0.105,0.72-0.239,1.092-0.348c0.19,0.569,0.585,1.02,1.154,1.261
		c-0.568,0.241-0.963,0.692-1.154,1.261C721.171,451.296,720.826,451.162,720.451,451.057z M695.361,450.143
		c1.294-0.766,2.63-1.548,4.014-2.352c-0.562,0.664-0.832,1.536-0.711,2.352c-0.121,0.816,0.149,1.689,0.711,2.352
		C697.991,451.692,696.655,450.909,695.361,450.143z M728.386,450.664c-1.113-0.178-2.217-0.372-3.346-0.521
		c1.129-0.149,2.233-0.343,3.346-0.521c-0.022,0.176-0.045,0.346-0.038,0.521C728.341,450.319,728.364,450.488,728.386,450.664z
		 M859.798,418.135c1.628,7.281-0.919,11.222-7.641,11.824c-0.472,0.187-0.817,0.475-1.099,0.802
		c-27.869-10.308-66.531,4.649-97.694,12.371c10.018-3.583,19.724-8.086,29.641-13.017c12.912-6.421,25.816-13.503,39.686-17.69
		c8.897-2.686,23.441-8.792,31.74-4.173C862.494,406.559,864.283,409.854,859.798,418.135z M809.303,390.734
		c5.573-3.462,11.702-7.623,18.176-9.092c7.47-5.378,13.475-3.058,18.014,6.96c12.933,5.775,14.674,9.914,5.224,12.419
		c-0.324,0.157-0.55,0.365-0.754,0.58c-35.878-2.563-72.123,26.498-106.877,38.63c11.166-5.849,21.185-13.341,31.386-22.306
		C785.581,408.162,796.701,398.561,809.303,390.734z M755.728,375.22c14.47,16.644,7.36,39.526-8.551,53.318
		c-11.908,10.322-27.4,15.689-42.659,18.874c-0.858-0.173-1.73-0.394-2.582-0.552c-0.355-0.066-0.675-0.036-0.983,0.014
		C728.144,431.126,768.96,408.154,755.728,375.22z M643.943,338.442c-5.362,4.87-11.235,8.034-17.449,10.074
		C631.368,344.155,637.044,340.65,643.943,338.442z M527.098,369.915c24.601-14.557,56.051-8.883,83.716-12.318
		c-16.806,22.241-27.645,52.274-52.55,66.299c-1.644,0.926-1.568,2.702-0.697,3.878c-16.28,7.996-32.542,16.181-50.3,19.696
		c-0.909-0.169-1.841-0.296-2.761-0.444c1.582-0.632,3.067-1.242,4.312-1.774c20.753-8.867,47.41-26.328,44.364-52.113
		c-0.09-0.765-0.454-1.336-0.925-1.761c-0.132-0.621-0.445-1.221-1.063-1.682c-20.807-15.53-49.258-1.175-67.313,12.364
		c-1.083,0.812-2.354,1.793-3.692,2.847c0.332-0.871,0.689-1.742,0.996-2.614c11.924-13.622,27.143-23.612,42.207-33.713
		C523.975,369.922,525.474,370.876,527.098,369.915z M547.838,506.359c-19.222,13.585-44.294-0.393-60.28-12.308
		c-3.618-2.697-10.305-7.809-16.541-13.914c-2.707-9.666-6.882-19.252-13.229-24.521c0.152-0.341,0.25-0.708,0.256-1.099
		c0.335-0.201,0.604-0.469,0.824-0.772c7.736,2.862,18.126,1.684,27.85-0.804c8.405,2.347,16.176,5.583,20.32,7.368
		C525.351,468.195,549.992,482.92,547.838,506.359z M469.951,504.216c2.326,19.801,1.895,48.504-19.48,58.357
		c-21.375-9.854-21.807-38.556-19.481-58.357c0.526-4.481,1.61-12.829,3.78-21.282c7.017-7.177,13.232-15.586,14.621-23.716
		c0.372-0.039,0.739-0.138,1.08-0.328c0.341,0.19,0.708,0.288,1.08,0.328c1.39,8.13,7.604,16.539,14.621,23.716
		C468.341,491.386,469.425,499.735,469.951,504.216z M353.103,506.358c-2.154-23.439,22.488-38.164,40.799-46.05
		c4.144-1.785,11.915-5.02,20.32-7.368c9.724,2.489,20.114,3.666,27.85,0.804c0.22,0.303,0.489,0.571,0.824,0.771
		c0.007,0.391,0.104,0.758,0.256,1.099c-6.347,5.269-10.521,14.855-13.229,24.521c-6.235,6.105-12.923,11.218-16.541,13.914
		C397.398,505.966,372.324,519.944,353.103,506.358z M353.103,393.928c19.222-13.585,44.295,0.393,60.28,12.308
		c3.618,2.696,10.305,7.809,16.541,13.914c2.707,9.666,6.882,19.252,13.229,24.521c-0.152,0.342-0.25,0.709-0.256,1.099
		c-0.335,0.201-0.603,0.469-0.823,0.771c-7.736-2.862-18.126-1.685-27.85,0.804c-8.405-2.347-16.176-5.583-20.32-7.368
		C375.591,432.092,350.949,417.367,353.103,393.928z M430.99,396.071c-2.326-19.801-1.894-48.504,19.481-58.358
		c21.375,9.854,21.806,38.557,19.48,58.358c-0.526,4.481-1.61,12.829-3.78,21.282c-7.017,7.177-13.231,15.586-14.621,23.716
		c-0.372,0.039-0.738,0.138-1.08,0.328c-0.341-0.19-0.708-0.288-1.08-0.328c-1.39-8.13-7.604-16.539-14.621-23.716
		C432.6,408.9,431.516,400.552,430.99,396.071z M547.838,393.928c2.154,23.439-22.487,38.164-40.799,46.05
		c-4.144,1.785-11.915,5.02-20.32,7.368c-9.724-2.489-20.114-3.666-27.85-0.804c-0.22-0.302-0.489-0.571-0.824-0.771
		c-0.006-0.39-0.104-0.757-0.256-1.099c6.346-5.268,10.521-14.855,13.229-24.521c6.235-6.105,12.923-11.218,16.541-13.914
		C503.543,394.321,528.616,380.343,547.838,393.928z M473.501,490.838c-0.077-0.402-0.152-0.802-0.234-1.211
		c0.313,0.275,0.621,0.54,0.931,0.808c-0.097,0.117-0.163,0.256-0.242,0.386C473.803,490.825,473.65,490.814,473.501,490.838z
		 M426.985,490.822c-0.079-0.131-0.145-0.269-0.242-0.386c0.31-0.268,0.618-0.533,0.931-0.808c-0.082,0.408-0.157,0.808-0.234,1.21
		C427.29,490.814,427.138,490.825,426.985,490.822z M427.44,409.449c0.077,0.402,0.152,0.802,0.234,1.21
		c-0.313-0.275-0.621-0.54-0.931-0.808c0.097-0.117,0.163-0.256,0.242-0.386C427.138,409.462,427.29,409.474,427.44,409.449z
		 M473.956,409.465c0.079,0.131,0.145,0.269,0.242,0.386c-0.31,0.268-0.618,0.533-0.931,0.808c0.081-0.409,0.157-0.808,0.234-1.21
		C473.65,409.474,473.803,409.462,473.956,409.465z M449.574,451.695c-0.198-0.245-0.446-0.426-0.656-0.656
		c-0.094-0.297-0.127-0.602-0.24-0.896c0.113-0.295,0.146-0.599,0.24-0.896c0.21-0.23,0.457-0.411,0.656-0.656
		c0.312-0.049,0.592-0.173,0.897-0.24c0.305,0.067,0.585,0.191,0.897,0.24c0.198,0.245,0.446,0.425,0.656,0.655
		c0.094,0.297,0.127,0.602,0.24,0.897c-0.113,0.295-0.146,0.6-0.24,0.897c-0.21,0.23-0.458,0.41-0.656,0.655
		c-0.312,0.049-0.592,0.173-0.897,0.24C450.166,451.869,449.886,451.745,449.574,451.695z M404.878,450.143
		c-0.395,0.134-0.778,0.268-1.165,0.403c-0.053-0.142-0.14-0.269-0.214-0.403c0.074-0.134,0.16-0.261,0.214-0.403
		C404.1,449.875,404.483,450.01,404.878,450.143z M496.063,450.143c0.395-0.134,0.778-0.268,1.165-0.403
		c0.053,0.142,0.14,0.269,0.214,0.403c-0.074,0.134-0.16,0.261-0.214,0.403C496.841,450.412,496.458,450.277,496.063,450.143z
		 M667.984,223.242c-21.906-27.923-62.207-4.062-89.441,11.61c0.197-0.241,0.383-0.503,0.504-0.844
		c0.3-0.85,0.585-1.719,0.875-2.582c10.375-11.595,22.75-22.296,37.613-27.436C637.434,197.107,660.804,202.391,667.984,223.242z
		 M572.915,238.062c-0.016-1.503-0.026-3.052-0.03-4.653c0.294,0.818,0.914,1.489,1.681,1.792c0.647,0.513,1.538,0.716,2.394,0.56
		C575.572,236.559,574.226,237.324,572.915,238.062z M589.879,209.722c-0.711,0.875-1.431,1.734-2.124,2.637
		c0.436-1.052,0.82-2.105,1.222-3.158c0.142,0.107,0.276,0.212,0.432,0.293C589.557,209.589,589.715,209.653,589.879,209.722z
		 M586.584,214.389c-0.076,0.612,0.117,1.18,0.515,1.63c-0.28,0.268-0.568,0.5-0.847,0.772c-0.386,0.377-0.577,0.787-0.686,1.201
		c-0.799,0.736-1.578,1.489-2.356,2.242c0.263-1.05,0.525-2.101,0.763-3.161c0.304-0.302,0.564-0.672,0.697-1.195
		c0.096-0.377,0.153-0.743,0.245-1.119C585.502,214.877,586.091,214.76,586.584,214.389z M693.135,128.08
		c6.894-6.932,9.608-3.354,8.143,10.734c6.406,8.941,5.413,15.301-2.98,19.081c-4.508,4.872-11.177,8.099-16.961,11.195
		c-13.08,7-26.954,11.83-40.964,16.569c-12.77,4.319-24.189,9.217-34.772,15.886c27.876-23.932,70.887-40.828,86.59-73.074
		C692.499,128.405,692.815,128.297,693.135,128.08z M667.55,112.915c0.424-0.081,0.846-0.235,1.244-0.551
		c3.882-5.52,8.569-5.755,14.06-0.705c9.414,0.257,11.373,3.453,5.875,9.59c-0.149,9.496-12.709,19.039-19.484,25.401
		c-10.562,9.918-23.147,17.552-35.163,25.524c-9.23,6.123-17.984,12.279-26.097,19.164
		C630.255,168.211,662.543,142.205,667.55,112.915z M658.507,88.733c0.289-0.03,0.52-0.14,0.76-0.235
		c0.037,0.256,0.057,0.511,0.176,0.776c13.869,30.989-17.456,59.698-37.045,77.685c-7.996,7.343-15.141,14.996-21.799,23.156
		c3.737-9.846,6.793-19.861,9.153-30.457C615.535,133.699,624.735,92.216,658.507,88.733z M616.171,79.358
		c2.566-7.829,6.314-7.732,11.243,0.293c7.119,2.231,9.259,6.407,6.42,12.529c-0.075,0.502,0.004,0.945,0.145,1.353
		c-22.862,18.981-29.239,59.943-38.134,90.792c1.906-10.468,2.86-21.125,3.547-32.179c0.896-14.393,1.214-29.109,4.523-43.215
		C606.038,99.884,608.021,84.235,616.171,79.358z M594.686,77.273c11.467-8.313,15.923-7.751,13.367,1.685
		c-0.028,0.386,0.036,0.713,0.134,1.012c-20.074,29.723-13.202,75.42-19.989,111.526c0.485-12.5-0.984-24.838-3.628-38.057
		c-2.901-14.502-5.656-28.932-6.133-43.76c-0.211-6.557-0.751-13.946,1.214-20.287C578.729,80.236,583.74,76.196,594.686,77.273z
		 M538.216,148.32c21.648-4.208,37.909,13.39,41.898,34.064c2.979,15.442-0.1,31.509-4.955,46.292
		c-0.603,0.682-1.213,1.364-1.798,2.048c-0.235,0.275-0.369,0.566-0.479,0.858C572.837,200.163,573.351,153.33,538.216,148.32z
		 M530.884,194.985c12.734-6.368,27.484-10.3,32.399,3.415c0.593,1.654,2.233,2.105,3.549,1.728
		c1.309,15.346,0.48,31.232,0.774,42.14c0.032,1.187,0.703,1.937,1.547,2.31c0.745,0.544,1.731,0.751,2.775,0.185
		c9.593-5.199,22.937-13.86,36.881-20.399c0.332,1.328,1.542,2.523,3.272,2.21c14.335-2.601,18.305,12.139,19.157,26.351
		c-12.1-16.307-40.13-12.603-58.343-7.003c-0.765,0.235-1.253,0.708-1.547,1.263c-0.227,0.004-0.443-0.023-0.692,0.045
		c-1.15,0.312-2.318,0.523-3.479,0.773c-0.364-1.13-0.766-2.247-1.07-3.399c-0.066-0.25-0.197-0.423-0.307-0.622
		c0.334-0.532,0.499-1.191,0.32-1.971C561.863,223.437,551.057,197.311,530.884,194.985z M518.965,266.914
		c13.438-10.431,28.993-10.017,44.608-12.67c5.511,14.85,13.646,28.114,11.332,44.967c-3.466,25.238-23.207,42.261-42.807,56.221
		c-16.599,11.823-33.263,21.86-47.466,35.541c4.746-19.14,5.107-38.59,7.046-58.877
		C493.969,308.142,498.841,282.534,518.965,266.914z M450.47,226.74c1.537,7.079,1.341,13.747,0,20.149
		C449.13,240.487,448.934,233.819,450.47,226.74z M419.305,343.668c-0.306-28.562,20.302-52.947,31.166-78.602
		c10.864,25.656,31.472,50.04,31.166,78.602c-0.02,1.887,1.556,2.708,3.01,2.542c-1.215,18.096-2.258,36.272-8.093,53.409
		c-0.601,0.702-1.177,1.447-1.766,2.17c0.243-1.686,0.458-3.277,0.62-4.621c2.698-22.406,0.904-54.222-22.949-64.477
		c-0.708-0.305-1.384-0.275-1.988-0.079c-0.604-0.196-1.28-0.225-1.988,0.079c-23.853,10.255-25.647,42.071-22.949,64.477
		c0.162,1.344,0.376,2.935,0.62,4.621c-0.588-0.723-1.164-1.467-1.765-2.169c-5.835-17.137-6.877-35.313-8.093-53.41
		C417.749,346.376,419.325,345.555,419.305,343.668z M323.98,235.762c0.856,0.155,1.747-0.047,2.394-0.56
		c0.767-0.304,1.387-0.973,1.681-1.791c-0.004,1.601-0.013,3.149-0.03,4.652C326.715,237.324,325.368,236.559,323.98,235.762z
		 M315.375,217.991c-0.109-0.414-0.299-0.824-0.686-1.201c-0.279-0.272-0.567-0.504-0.847-0.772c0.398-0.449,0.59-1.017,0.515-1.63
		c0.492,0.372,1.081,0.489,1.669,0.369c0.092,0.376,0.149,0.742,0.245,1.119c0.133,0.523,0.393,0.893,0.697,1.195
		c0.238,1.06,0.5,2.111,0.763,3.161C316.954,219.479,316.174,218.727,315.375,217.991z M311.964,209.201
		c0.402,1.053,0.786,2.105,1.221,3.157c-0.693-0.903-1.413-1.762-2.124-2.636c0.164-0.069,0.322-0.133,0.471-0.228
		C311.688,209.413,311.822,209.308,311.964,209.201z M362.725,148.32c-35.135,5.01-34.621,51.841-34.666,83.263
		c-0.11-0.292-0.244-0.583-0.479-0.858c-0.585-0.685-1.196-1.366-1.799-2.049c-4.854-14.783-7.933-30.85-4.954-46.292
		C324.816,161.71,341.077,144.113,362.725,148.32z M306.255,77.273c10.946-1.077,15.957,2.963,15.035,12.121
		c1.965,6.341,1.425,13.73,1.214,20.287c-0.478,14.827-3.232,29.257-6.133,43.76c-2.644,13.219-4.113,25.557-3.629,38.057
		c-6.788-36.107,0.086-81.804-19.989-111.527c0.098-0.299,0.162-0.627,0.134-1.012C290.332,69.522,294.787,68.96,306.255,77.273z
		 M273.527,79.651c4.929-8.025,8.677-8.122,11.243-0.293c8.15,4.877,10.134,20.526,12.256,29.574
		c3.309,14.106,3.627,28.822,4.523,43.215c0.688,11.052,1.641,21.708,3.546,32.175c-8.894-30.849-15.272-71.808-38.133-90.788
		c0.142-0.408,0.22-0.851,0.145-1.353C264.268,86.058,266.408,81.882,273.527,79.651z M241.498,89.273
		c0.119-0.265,0.139-0.52,0.176-0.776c0.241,0.096,0.471,0.205,0.761,0.235c33.771,3.484,42.971,44.966,48.755,70.925
		c2.361,10.596,5.416,20.611,9.154,30.457c-6.658-8.16-13.803-15.813-21.799-23.156C258.954,148.971,227.629,120.262,241.498,89.273
		z M218.087,111.659c5.491-5.049,10.178-4.815,14.06,0.705c0.398,0.316,0.82,0.469,1.244,0.551
		c5.007,29.29,37.294,55.295,59.563,78.423c-8.113-6.885-16.866-13.041-26.096-19.163c-12.017-7.972-24.602-15.606-35.164-25.524
		c-6.775-6.362-19.335-15.905-19.484-25.401C206.714,115.113,208.672,111.916,218.087,111.659z M219.604,169.09
		c-5.784-3.096-12.453-6.323-16.962-11.195c-8.392-3.78-9.385-10.14-2.979-19.081c-1.466-14.087,1.249-17.665,8.143-10.734
		c0.32,0.217,0.635,0.325,0.943,0.39c15.704,32.246,58.714,49.143,86.59,73.074c-10.583-6.669-22.002-11.566-34.772-15.886
		C246.558,180.919,232.684,176.09,219.604,169.09z M232.957,223.242c7.18-20.852,30.55-26.135,50.449-19.252
		c14.863,5.141,27.238,15.841,37.613,27.436c0.289,0.864,0.575,1.733,0.875,2.582c0.121,0.341,0.306,0.603,0.504,0.844
		C295.165,219.18,254.863,195.32,232.957,223.242z M329.593,247.184c-0.294-0.555-0.782-1.028-1.547-1.263
		c-18.212-5.6-46.242-9.305-58.343,7.003c0.852-14.212,4.822-28.952,19.157-26.351c1.729,0.314,2.94-0.881,3.272-2.21
		c13.944,6.539,27.287,15.2,36.881,20.399c1.046,0.567,2.034,0.359,2.779-0.187c0.841-0.374,1.511-1.124,1.543-2.308
		c0.294-10.907-0.535-26.793,0.774-42.139c1.316,0.376,2.956-0.074,3.549-1.729c4.915-13.715,19.665-9.783,32.399-3.415
		c-20.173,2.326-30.98,28.453-35.236,47.025c-0.179,0.78-0.014,1.439,0.32,1.971c-0.11,0.199-0.241,0.372-0.307,0.622
		c-0.304,1.152-0.706,2.269-1.07,3.399c-1.161-0.25-2.329-0.46-3.479-0.773C330.035,247.161,329.82,247.189,329.593,247.184z
		 M326.036,299.211c-2.314-16.853,5.821-30.117,11.332-44.967c15.616,2.653,31.17,2.239,44.609,12.67
		c20.124,15.62,24.995,41.228,27.286,65.183c1.94,20.287,2.3,39.736,7.046,58.877c-14.203-13.681-30.867-23.718-47.466-35.541
		C349.243,341.472,329.502,324.449,326.036,299.211z M256.998,338.442c6.899,2.208,12.575,5.713,17.45,10.075
		C268.233,346.476,262.36,343.312,256.998,338.442z M342.677,423.896c-24.905-14.026-35.745-44.059-52.55-66.299
		c27.665,3.435,59.115-2.239,83.716,12.318c1.624,0.961,3.123,0.007,3.706-1.335c15.064,10.101,30.284,20.091,42.207,33.713
		c0.307,0.872,0.664,1.743,0.996,2.613c-1.338-1.054-2.609-2.035-3.692-2.847c-18.056-13.54-46.506-27.894-67.313-12.364
		c-0.618,0.461-0.93,1.061-1.063,1.682c-0.471,0.425-0.835,0.996-0.925,1.761c-3.045,25.785,23.611,43.246,44.364,52.113
		c1.245,0.532,2.73,1.142,4.312,1.774c-0.92,0.148-1.852,0.275-2.761,0.444c-17.759-3.515-34.021-11.701-50.301-19.696
		C344.244,426.597,344.321,424.822,342.677,423.896z M145.213,375.22c-13.231,32.934,27.585,55.905,54.774,71.655
		c-0.308-0.05-0.627-0.081-0.983-0.014c-0.851,0.158-1.723,0.379-2.581,0.552c-15.259-3.185-30.752-8.552-42.659-18.874
		C137.853,414.746,130.743,391.864,145.213,375.22z M205.58,450.143c-1.293,0.765-2.63,1.548-4.014,2.352
		c0.562-0.664,0.832-1.536,0.711-2.352c0.121-0.816-0.149-1.689-0.711-2.352C202.95,448.595,204.286,449.378,205.58,450.143z
		 M181.877,451.065c-0.414-0.114-0.866-0.155-1.387-0.008c-0.375,0.105-0.72,0.239-1.092,0.348c-0.19-0.569-0.586-1.02-1.154-1.261
		c0.568-0.241,0.964-0.692,1.154-1.261c0.372,0.108,0.717,0.242,1.092,0.348c0.521,0.147,0.973,0.105,1.387-0.008
		c1.104,0.345,2.214,0.607,3.321,0.922C184.091,450.457,182.981,450.72,181.877,451.065z M172.555,449.622
		c1.113,0.178,2.217,0.372,3.346,0.521c-1.129,0.149-2.233,0.343-3.346,0.521c0.022-0.176,0.045-0.345,0.038-0.521
		C172.6,449.968,172.577,449.799,172.555,449.622z M50.223,401.022c-9.45-2.505-7.709-6.645,5.224-12.419
		c4.54-10.018,10.545-12.338,18.015-6.96c6.473,1.469,12.603,5.63,18.176,9.092c12.602,7.827,23.721,17.427,34.831,27.191
		c10.201,8.966,20.22,16.457,31.386,22.306c-34.754-12.132-71-41.193-106.877-38.63C50.773,401.386,50.547,401.179,50.223,401.022z
		 M48.783,429.959c-6.721-0.602-9.268-4.544-7.64-11.824c-4.485-8.281-2.696-11.576,5.367-9.883
		c8.298-4.619,22.843,1.487,31.74,4.173c13.87,4.187,26.774,11.27,39.686,17.69c9.917,4.931,19.623,9.434,29.641,13.017
		c-31.164-7.722-69.827-22.679-97.696-12.371C49.6,430.434,49.256,430.146,48.783,429.959z M33.462,450.684
		c-0.171-0.236-0.381-0.38-0.584-0.541c0.203-0.161,0.413-0.305,0.584-0.541c19.903-27.505,60.428-14.731,85.8-6.76
		c10.357,3.254,20.558,5.615,30.953,7.301c-10.395,1.687-20.596,4.047-30.953,7.301C93.889,465.415,53.364,478.189,33.462,450.684z
		 M41.143,482.152c-1.628-7.28,0.919-11.222,7.64-11.824c0.472-0.187,0.816-0.475,1.099-0.802
		c27.869,10.308,66.532-4.649,97.696-12.371c-10.018,3.583-19.725,8.086-29.641,13.017c-12.912,6.421-25.816,13.503-39.686,17.69
		c-8.898,2.686-23.442,8.793-31.74,4.173C38.447,493.728,36.658,490.433,41.143,482.152z M91.638,509.552
		c-5.573,3.462-11.703,7.623-18.176,9.092c-7.47,5.378-13.475,3.058-18.015-6.96c-12.933-5.775-14.674-9.914-5.224-12.419
		c0.324-0.157,0.55-0.365,0.755-0.58c35.878,2.563,72.124-26.498,106.877-38.63c-11.166,5.849-21.185,13.341-31.386,22.306
		C115.359,492.125,104.24,501.725,91.638,509.552z M145.213,525.067c-14.47-16.644-7.36-39.526,8.551-53.318
		c11.908-10.322,27.4-15.689,42.659-18.874c0.858,0.173,1.73,0.394,2.581,0.552c0.355,0.066,0.675,0.036,0.983-0.014
		C172.797,469.161,131.981,492.133,145.213,525.067z M212.397,454.055c-13.956,12.972-31.179,35.394-23.107,54.027
		c-11.882-7.844-22.662-18.652-13.242-29.766c1.136-1.341,0.707-2.987-0.278-3.938c12.636-8.807,26.808-16.032,36.107-21.74
		c1.012-0.621,1.326-1.578,1.228-2.495c0.098-0.917-0.216-1.874-1.228-2.496c-9.299-5.708-23.471-12.934-36.107-21.74
		c0.985-0.952,1.414-2.597,0.278-3.938c-9.421-11.114,1.36-21.922,13.242-29.766c-8.072,18.633,9.151,41.056,23.107,54.027
		c0.586,0.545,1.24,0.732,1.867,0.709c0.117,0.194,0.201,0.395,0.385,0.577c0.845,0.839,1.612,1.746,2.409,2.627
		c-0.797,0.881-1.563,1.787-2.409,2.627c-0.184,0.182-0.268,0.382-0.385,0.577C213.636,453.324,212.983,453.51,212.397,454.055z
		 M257.542,482.441c-15.756-6.424-23.192-20.098-33.301-32.297c10.109-12.2,17.545-25.874,33.301-32.297
		c23.589-9.618,48.203-1.033,70.093,8.961c18.539,8.464,35.562,17.876,54.511,23.336c-18.949,5.46-35.973,14.873-54.511,23.336
		C305.745,483.473,281.131,492.058,257.542,482.441z M256.998,561.845c5.362-4.87,11.235-8.034,17.45-10.075
		C269.573,556.132,263.897,559.637,256.998,561.845z M373.843,530.372c-24.601,14.557-56.051,8.883-83.716,12.318
		c16.806-22.241,27.645-52.274,52.55-66.299c1.644-0.926,1.567-2.702,0.697-3.878c16.28-7.996,32.542-16.181,50.301-19.696
		c0.909,0.169,1.841,0.296,2.761,0.444c-1.582,0.632-3.067,1.242-4.312,1.774c-20.753,8.867-47.41,26.328-44.364,52.113
		c0.09,0.765,0.454,1.336,0.925,1.761c0.132,0.621,0.445,1.221,1.063,1.682c20.807,15.53,49.258,1.175,67.313-12.365
		c1.083-0.812,2.354-1.793,3.692-2.847c-0.332,0.871-0.689,1.742-0.996,2.613c-11.924,13.622-27.143,23.613-42.207,33.713
		C376.966,530.365,375.467,529.411,373.843,530.372z M232.957,677.044c21.906,27.923,62.207,4.062,89.441-11.61
		c-0.197,0.241-0.383,0.503-0.504,0.844c-0.3,0.85-0.585,1.719-0.875,2.582c-10.375,11.595-22.75,22.296-37.613,27.436
		C263.507,703.18,240.137,697.896,232.957,677.044z M328.025,662.225c0.016,1.503,0.026,3.051,0.03,4.652
		c-0.294-0.818-0.914-1.488-1.681-1.792c-0.647-0.513-1.537-0.715-2.393-0.56C325.369,663.728,326.715,662.963,328.025,662.225z
		 M311.062,690.565c0.71-0.874,1.43-1.734,2.124-2.636c-0.435,1.052-0.819,2.105-1.221,3.157c-0.142-0.107-0.276-0.212-0.432-0.293
		C311.383,690.698,311.226,690.634,311.062,690.565z M314.357,685.898c0.076-0.612-0.117-1.18-0.515-1.63
		c0.28-0.268,0.568-0.5,0.847-0.772c0.386-0.377,0.577-0.787,0.686-1.201c0.799-0.737,1.579-1.489,2.356-2.241
		c-0.263,1.05-0.525,2.101-0.763,3.161c-0.304,0.302-0.564,0.671-0.697,1.194c-0.096,0.378-0.153,0.743-0.245,1.119
		C315.439,685.41,314.85,685.526,314.357,685.898z M207.806,772.207c-6.894,6.932-9.608,3.354-8.143-10.734
		c-6.406-8.941-5.413-15.301,2.979-19.081c4.509-4.872,11.177-8.099,16.962-11.195c13.08-7,26.953-11.83,40.964-16.569
		c12.77-4.32,24.19-9.217,34.773-15.887c-27.876,23.932-70.888,40.828-86.592,73.075
		C208.441,771.882,208.127,771.99,207.806,772.207z M233.391,787.372c-0.424,0.081-0.846,0.235-1.244,0.551
		c-3.882,5.519-8.569,5.755-14.06,0.705c-9.414-0.257-11.373-3.453-5.875-9.59c0.148-9.496,12.709-19.039,19.484-25.401
		c10.562-9.918,23.147-17.552,35.164-25.524c9.229-6.122,17.981-12.277,26.094-19.161
		C270.683,732.078,238.398,758.083,233.391,787.372z M242.434,811.554c-0.289,0.03-0.52,0.14-0.761,0.235
		c-0.037-0.256-0.057-0.511-0.176-0.776c-13.869-30.988,17.456-59.698,37.046-77.685c7.996-7.343,15.141-14.996,21.799-23.156
		c-3.737,9.846-6.793,19.861-9.154,30.457C285.406,766.588,276.205,808.07,242.434,811.554z M284.77,820.929
		c-2.566,7.829-6.314,7.732-11.243-0.293c-7.119-2.231-9.259-6.407-6.419-12.529c0.075-0.502-0.004-0.945-0.145-1.353
		c22.861-18.98,29.239-59.939,38.133-90.788c-1.905,10.467-2.859,21.123-3.546,32.175c-0.896,14.393-1.214,29.109-4.523,43.215
		C294.903,800.403,292.919,816.052,284.77,820.929z M306.255,823.013c-11.467,8.313-15.923,7.752-13.367-1.685
		c0.028-0.386-0.036-0.713-0.134-1.012c20.074-29.723,13.201-75.42,19.989-111.526c-0.485,12.5,0.984,24.837,3.629,38.056
		c2.901,14.502,5.655,28.932,6.133,43.76c0.211,6.557,0.751,13.946-1.214,20.287C322.212,820.05,317.2,824.091,306.255,823.013z
		 M362.725,751.966c-21.648,4.208-37.909-13.39-41.898-34.064c-2.979-15.442,0.1-31.509,4.954-46.292
		c0.603-0.683,1.214-1.364,1.799-2.049c0.235-0.275,0.369-0.566,0.479-0.858C328.104,700.125,327.59,746.957,362.725,751.966z
		 M370.057,705.302c-12.734,6.368-27.484,10.3-32.399-3.415c-0.593-1.654-2.233-2.105-3.549-1.729
		c-1.309-15.346-0.48-31.232-0.774-42.139c-0.032-1.185-0.702-1.934-1.543-2.308c-0.745-0.546-1.733-0.754-2.779-0.187
		c-9.593,5.199-22.936,13.86-36.881,20.399c-0.332-1.328-1.543-2.523-3.272-2.21c-14.335,2.601-18.305-12.138-19.157-26.351
		c12.101,16.307,40.131,12.603,58.343,7.003c0.765-0.235,1.253-0.708,1.547-1.263c0.227-0.004,0.443,0.023,0.693-0.045
		c1.15-0.312,2.318-0.523,3.479-0.773c0.364,1.13,0.766,2.247,1.07,3.399c0.066,0.25,0.197,0.424,0.307,0.622
		c-0.334,0.532-0.499,1.191-0.32,1.971C339.078,676.85,349.885,702.976,370.057,705.302z M381.976,633.373
		c-13.438,10.431-28.993,10.017-44.609,12.67c-5.511-14.85-13.646-28.114-11.332-44.967c3.466-25.238,23.207-42.261,42.807-56.221
		c16.599-11.823,33.263-21.86,47.466-35.541c-4.746,19.141-5.107,38.59-7.046,58.877C406.972,592.144,402.1,617.753,381.976,633.373
		z M450.47,673.547c-1.537-7.079-1.34-13.747,0-20.149C451.811,659.8,452.007,666.467,450.47,673.547z M481.637,556.619
		c0.306,28.563-20.302,52.947-31.166,78.603c-10.864-25.656-31.472-50.04-31.166-78.603c0.02-1.887-1.556-2.708-3.009-2.542
		c1.215-18.096,2.258-36.272,8.093-53.41c0.601-0.702,1.177-1.446,1.765-2.169c-0.243,1.686-0.458,3.276-0.62,4.621
		c-2.698,22.406-0.904,54.222,22.949,64.477c0.708,0.305,1.384,0.275,1.988,0.079c0.604,0.196,1.28,0.225,1.988-0.079
		c23.853-10.255,25.647-42.071,22.949-64.477c-0.162-1.344-0.376-2.935-0.62-4.621c0.588,0.723,1.165,1.467,1.766,2.169
		c5.835,17.137,6.877,35.313,8.093,53.409C483.192,553.911,481.616,554.732,481.637,556.619z M576.959,664.525
		c-0.855-0.155-1.746,0.048-2.392,0.56c-0.768,0.304-1.388,0.974-1.681,1.793c0.004-1.601,0.014-3.15,0.03-4.653
		C574.225,662.963,575.571,663.728,576.959,664.525z M585.566,682.296c0.109,0.414,0.3,0.824,0.686,1.201
		c0.279,0.272,0.567,0.504,0.847,0.772c-0.398,0.449-0.59,1.017-0.515,1.63c-0.492-0.372-1.081-0.488-1.669-0.369
		c-0.092-0.376-0.149-0.742-0.245-1.119c-0.133-0.523-0.393-0.893-0.697-1.194c-0.238-1.06-0.5-2.111-0.763-3.162
		C583.988,680.807,584.766,681.559,585.566,682.296z M588.977,691.086c-0.402-1.053-0.786-2.106-1.222-3.158
		c0.693,0.903,1.414,1.763,2.124,2.637c-0.164,0.069-0.321,0.133-0.47,0.228C589.254,690.873,589.119,690.978,588.977,691.086z
		 M538.216,751.966c35.135-5.01,34.621-51.842,34.666-83.264c0.11,0.292,0.244,0.583,0.479,0.858
		c0.585,0.685,1.195,1.366,1.798,2.048c4.854,14.783,7.934,30.85,4.955,46.293C576.125,738.576,559.864,756.174,538.216,751.966z
		 M594.686,823.013c-10.946,1.077-15.958-2.963-15.035-12.121c-1.965-6.341-1.425-13.729-1.214-20.287
		c0.477-14.827,3.232-29.257,6.133-43.76c2.644-13.219,4.113-25.557,3.628-38.056c6.787,36.107-0.085,81.804,19.989,111.526
		c-0.098,0.299-0.161,0.626-0.134,1.012C610.609,830.765,606.153,831.327,594.686,823.013z M627.414,820.636
		c-4.929,8.025-8.677,8.123-11.243,0.293c-8.15-4.877-10.133-20.526-12.256-29.574c-3.309-14.106-3.627-28.822-4.523-43.215
		c-0.688-11.053-1.641-21.711-3.547-32.179c8.895,30.85,15.272,71.811,38.134,90.792c-0.142,0.408-0.22,0.851-0.145,1.353
		C636.673,814.229,634.533,818.405,627.414,820.636z M659.443,811.013c-0.119,0.265-0.139,0.52-0.176,0.776
		c-0.24-0.096-0.471-0.205-0.76-0.235c-33.771-3.484-42.971-44.966-48.755-70.925c-2.36-10.596-5.416-20.611-9.153-30.457
		c6.658,8.16,13.803,15.813,21.799,23.156C641.987,751.316,673.312,780.025,659.443,811.013z M682.854,788.627
		c-5.491,5.05-10.178,4.815-14.06-0.705c-0.398-0.316-0.82-0.469-1.244-0.551c-5.007-29.29-37.294-55.294-59.563-78.422
		c8.113,6.885,16.866,13.04,26.095,19.163c12.017,7.972,24.602,15.606,35.163,25.524c6.775,6.362,19.335,15.905,19.484,25.401
		C694.227,785.174,692.269,788.371,682.854,788.627z M681.337,731.197c5.784,3.096,12.453,6.323,16.961,11.195
		c8.392,3.78,9.385,10.14,2.98,19.081c1.466,14.087-1.249,17.665-8.143,10.734c-0.32-0.217-0.636-0.325-0.944-0.39
		c-15.704-32.246-58.716-49.143-86.591-73.075c10.583,6.67,22.003,11.567,34.773,15.887
		C654.383,719.367,668.257,724.197,681.337,731.197z M667.984,677.044c-7.18,20.852-30.55,26.135-50.449,19.252
		c-14.863-5.141-27.238-15.841-37.613-27.436c-0.289-0.864-0.575-1.733-0.875-2.582c-0.12-0.341-0.306-0.602-0.504-0.844
		C605.777,681.107,646.078,704.967,667.984,677.044z M571.348,653.102c0.294,0.555,0.782,1.028,1.547,1.263
		c18.212,5.6,46.243,9.305,58.343-7.003c-0.852,14.212-4.821,28.952-19.157,26.351c-1.729-0.314-2.94,0.881-3.272,2.21
		c-13.944-6.539-27.288-15.2-36.881-20.399c-1.044-0.566-2.03-0.359-2.775,0.185c-0.843,0.374-1.515,1.124-1.547,2.31
		c-0.294,10.907,0.535,26.793-0.774,42.14c-1.316-0.377-2.956,0.074-3.549,1.728c-4.915,13.715-19.665,9.783-32.399,3.415
		c20.173-2.326,30.98-28.453,35.236-47.025c0.179-0.78,0.014-1.439-0.32-1.971c0.11-0.199,0.241-0.372,0.307-0.622
		c0.304-1.152,0.706-2.269,1.07-3.399c1.161,0.25,2.33,0.46,3.479,0.773C570.906,653.125,571.121,653.098,571.348,653.102z
		 M574.905,601.076c2.314,16.853-5.821,30.117-11.332,44.967c-15.616-2.653-31.17-2.239-44.608-12.67
		c-20.124-15.62-24.996-41.228-27.286-65.183c-1.94-20.287-2.3-39.735-7.046-58.876c14.203,13.68,30.866,23.717,47.465,35.54
		C551.698,558.815,571.439,575.838,574.905,601.076z M626.494,551.771c6.214,2.04,12.087,5.204,17.449,10.074
		C637.044,559.637,631.368,556.132,626.494,551.771z M558.264,476.391c24.905,14.026,35.745,44.059,52.55,66.299
		c-27.665-3.435-59.115,2.238-83.716-12.318c-1.624-0.961-3.124-0.007-3.707,1.335c-15.064-10.101-30.283-20.091-42.207-33.713
		c-0.308-0.872-0.665-1.743-0.996-2.614c1.338,1.054,2.609,2.035,3.692,2.847c18.056,13.54,46.506,27.894,67.313,12.365
		c0.618-0.461,0.93-1.061,1.063-1.682c0.471-0.425,0.835-0.996,0.925-1.761c3.045-25.785-23.611-43.246-44.364-52.113
		c-1.245-0.532-2.73-1.142-4.312-1.774c0.92-0.148,1.852-0.275,2.761-0.444c17.759,3.515,34.021,11.7,50.3,19.696
		C556.696,473.689,556.62,475.465,558.264,476.391z M643.399,482.441c-23.589,9.617-48.202,1.033-70.093-8.961
		c-18.539-8.464-35.562-17.876-54.511-23.336c18.949-5.46,35.973-14.872,54.511-23.336c21.89-9.993,46.503-18.579,70.093-8.961
		c15.756,6.423,23.192,20.097,33.301,32.297C666.591,462.343,659.154,476.017,643.399,482.441z M724.893,478.317
		c9.42,11.114-1.36,21.921-13.242,29.766c8.072-18.633-9.151-41.056-23.107-54.027c-0.586-0.545-1.239-0.732-1.867-0.709
		c-0.117-0.194-0.202-0.395-0.385-0.577c-0.845-0.839-1.612-1.746-2.409-2.627c0.797-0.881,1.563-1.787,2.409-2.627
		c0.184-0.182,0.268-0.382,0.385-0.577c0.628,0.023,1.28-0.164,1.867-0.709c13.956-12.972,31.179-35.395,23.107-54.027
		c11.882,7.844,22.662,18.652,13.242,29.766c-1.136,1.341-0.707,2.986,0.278,3.938c-12.636,8.807-26.808,16.032-36.107,21.74
		c-1.012,0.621-1.326,1.578-1.228,2.496c-0.098,0.917,0.216,1.874,1.228,2.495c9.299,5.709,23.471,12.934,36.107,21.74
		C724.186,475.331,723.756,476.977,724.893,478.317z M755.728,525.067c13.232-32.934-27.585-55.905-54.775-71.655
		c0.308,0.05,0.628,0.08,0.983,0.014c0.851-0.158,1.724-0.379,2.582-0.552c15.26,3.185,30.752,8.552,42.659,18.874
		C763.088,485.541,770.198,508.423,755.728,525.067z M850.718,499.265c9.45,2.505,7.709,6.644-5.224,12.419
		c-4.54,10.018-10.545,12.338-18.014,6.96c-6.474-1.469-12.603-5.63-18.176-9.092c-12.602-7.827-23.722-17.427-34.831-27.191
		c-10.201-8.966-20.22-16.457-31.386-22.306c34.753,12.132,70.999,41.193,106.877,38.63
		C850.167,498.9,850.393,499.108,850.718,499.265z M854.431,492.035c-8.299,4.62-22.843-1.487-31.74-4.173
		c-13.87-4.187-26.774-11.27-39.686-17.69c-9.916-4.931-19.623-9.434-29.641-13.017c31.164,7.722,69.826,22.679,97.695,12.371
		c0.283,0.327,0.626,0.615,1.099,0.802c6.721,0.603,9.268,4.544,7.641,11.824C864.283,490.433,862.494,493.728,854.431,492.035z"/>
	<path d="M517.478,489.696c-10.107-6.431-20.42-12.495-30.954-18.199c-3.041-1.647-5.745,3.008-2.691,4.661
		c10.534,5.704,20.847,11.768,30.954,18.199C517.711,496.219,520.396,491.554,517.478,489.696z"/>
	<path d="M524.388,568.451c-1.108-2.844-5.32-2.042-5.358,0.44c-2.168-1.208-4.969,2.038-3.06,4.42
		c4.423,5.522,8.511,11.246,12.387,17.106c4.176,8.367,8.783,16.511,13.941,24.377c0.551,0.841,1.336,1.167,2.126,1.194
		c0.544,0.035,1.098-0.078,1.587-0.366c0.492-0.278,0.864-0.7,1.107-1.186c0.375-0.698,0.486-1.543,0.033-2.444
		c-4.234-8.401-8.984-16.464-14.142-24.264C529.871,581.444,526.957,575.042,524.388,568.451z"/>
	<path d="M456.319,492.044c0.095-3.471-5.288-3.457-5.383,0c-0.327,11.975-0.233,23.938,0.284,35.906
		c0.149,3.456,5.532,3.463,5.383,0C456.087,515.982,455.992,504.018,456.319,492.044z"/>
	<path d="M450.471,836.757c-1.557-0.443-3.525,0.362-3.525,2.463c0,10.616,0,21.231,0,31.847c0,2.097,1.968,2.905,3.525,2.463
		c1.557,0.442,3.524-0.366,3.524-2.463c0-10.615,0-21.231,0-31.847C453.995,837.119,452.028,836.314,450.471,836.757z"/>
	<path d="M488.928,794.731c-1.096-1.704-2.192-3.407-3.287-5.111c-11.302-15.879-8.418-23.188,8.652-21.928
		c0.975,3.322,6.168,1.9,5.19-1.431c-3.228-10.997-17.725-18.296-23.703-5.163c-4.08,8.964,0.852,23.136,5.212,31.238
		c3.846,7.148,10.252,12.699,13.902,19.938c7.476,14.829,7.868,41.458-8.632,51.484c22.54-24.58-21.686-68.643-32.336-90.171
		c0.013-0.056,0.047-0.086,0.057-0.145c0.547-3.152,0.244-5.997-0.716-8.562c4.768-8.152,21.272-9.469,27.202-15.375
		c4.777-4.757,6.456-13.2,3.531-19.317c-6.108-12.773-25.731-8.077-22.48,6.473c0.755,3.379,5.945,1.949,5.19-1.431
		c5.452-8.491,9.163-9.28,11.135-2.366c3.03,3.304,3.136,6.928,0.32,10.873c-2.59,3.94-7.307,5.147-11.369,6.861
		c-4.006,1.691-8.187,3.198-11.827,5.609c-0.184,0.122-0.338,0.26-0.517,0.384c-0.356-0.965-0.742-2.007-1.133-3.063
		c6.741-18.405,15.771-45.111,1.874-58.341c2.641-1.608,0.04-5.851-2.974-4.458c-0.649,0.3-1.154,0.689-1.75,1.022
		c-0.596-0.333-1.101-0.722-1.75-1.022c-3.014-1.394-5.615,2.849-2.974,4.458c-13.896,13.23-4.868,39.936,1.874,58.341
		c-0.391,1.056-0.777,2.098-1.133,3.062c-0.178-0.125-0.333-0.262-0.517-0.384c-3.639-2.411-7.82-3.918-11.826-5.609
		c-4.062-1.715-8.779-2.922-11.37-6.861c-2.816-3.945-2.71-7.569,0.32-10.873c1.972-6.914,5.684-6.125,11.136,2.366
		c-0.755,3.38,4.435,4.81,5.19,1.431c3.251-14.55-16.373-19.245-22.48-6.473c-2.925,6.117-1.246,14.56,3.53,19.317
		c5.93,5.906,22.434,7.223,27.202,15.375c-0.96,2.565-1.263,5.411-0.716,8.562c0.01,0.059,0.044,0.089,0.057,0.145
		c-10.65,21.527-54.875,65.591-32.336,90.171c-16.5-10.025-16.108-36.655-8.632-51.484c3.649-7.239,10.055-12.79,13.902-19.938
		c4.36-8.103,9.292-22.275,5.212-31.238c-5.977-13.133-20.475-5.834-23.702,5.163c-0.978,3.33,4.215,4.753,5.19,1.431
		c17.07-1.261,19.954,6.049,8.652,21.928c-1.096,1.704-2.192,3.408-3.288,5.111c-3.302,5.117-7.661,9.459-10.614,14.827
		c-4.48,8.145-5.489,16.523-5.21,25.731c0.569,18.765,6.364,33.238,25.845,37.023c2.678,0.52,4.099-2.593,2.909-4.253
		c0.006-0.012,0.009-0.025,0.014-0.037c0.579,0.873,1.138,1.752,1.88,2.575c2.326,2.579,6.121-1.24,3.806-3.806
		c-13.459-14.923,10.466-44.824,19.827-58.03c9.361,13.206,33.287,43.108,19.827,58.03c-2.315,2.566,1.48,6.385,3.806,3.806
		c0.742-0.823,1.301-1.702,1.88-2.575c0.006,0.012,0.008,0.025,0.014,0.037c-1.191,1.66,0.231,4.774,2.909,4.253
		c19.481-3.785,25.276-18.258,25.845-37.023c0.279-9.208-0.729-17.586-5.21-25.731C496.589,804.189,492.23,799.847,488.928,794.731z
		 M450.47,698.389c10.978,9.823,5.645,30.894,0,47.21C444.825,729.283,439.493,708.212,450.47,698.389z M454.382,805.006
		c-1.016-1.461-2.743-1.432-3.911-0.683c-1.168-0.749-2.894-0.778-3.911,0.683c-9.193,13.21-30.571,39.84-23.841,58.647
		c-27.07-19.271,15.723-64.166,27.753-85.145c12.029,20.979,54.823,65.874,27.752,85.145
		C484.953,844.847,463.574,818.217,454.382,805.006z"/>
	<path d="M444.622,492.044c0.327,11.975,0.233,23.938-0.284,35.906c-0.149,3.463,5.233,3.456,5.383,0
		c0.517-11.968,0.611-23.931,0.284-35.906C449.91,488.587,444.527,488.573,444.622,492.044z"/>
	<path d="M381.911,568.891c-0.038-2.482-4.25-3.283-5.358-0.44c-2.57,6.591-5.483,12.993-8.62,19.279
		c-5.158,7.8-9.908,15.862-14.142,24.263c-0.453,0.899-0.343,1.743,0.031,2.441c0.242,0.487,0.616,0.909,1.108,1.188
		c0.489,0.288,1.043,0.4,1.587,0.366c0.79-0.027,1.574-0.353,2.126-1.194c5.159-7.867,9.766-16.01,13.941-24.377
		c3.875-5.86,7.963-11.584,12.387-17.106C386.88,570.929,384.08,567.684,381.911,568.891z"/>
	<path d="M414.417,471.497c-10.534,5.704-20.847,11.768-30.954,18.199c-2.919,1.858-0.233,6.523,2.691,4.661
		c10.106-6.431,20.42-12.495,30.954-18.199C420.161,474.506,417.458,469.851,414.417,471.497z"/>
	<path d="M115.653,643.45c-0.395-1.569-2.076-2.871-3.894-1.821c-9.193,5.308-18.387,10.615-27.58,15.923
		c-1.816,1.048-1.532,3.157-0.371,4.284c0.396,1.569,2.08,2.869,3.895,1.821c9.193-5.308,18.387-10.616,27.58-15.924
		C117.102,646.683,116.815,644.576,115.653,643.45z"/>
	<path d="M163.745,672.348c3.172-5.241,4.753-11.188,7.533-16.606c0.927-1.801,1.855-3.602,2.783-5.403
		c8.101-17.727,15.873-18.884,23.316-3.471c-2.389,2.505,1.439,6.291,3.835,3.779c7.91-8.294,6.982-24.498-7.38-23.108
		c-9.803,0.949-19.61,12.306-24.447,20.133c-4.267,6.905-5.872,15.229-10.316,22.008c-9.105,13.889-31.97,27.544-48.903,18.266
		c32.556,7.231,48.604-53.102,61.923-73.089c0.055-0.017,0.098-0.003,0.154-0.023c3.003-1.102,5.316-2.787,7.057-4.901
		c9.444,0.053,18.837,13.688,26.916,15.87c6.508,1.758,14.659-1.01,18.494-6.601c8.008-11.676-5.87-26.322-16.846-16.232
		c-2.549,2.343,1.285,6.123,3.834,3.779c10.08,0.475,12.619,3.296,7.617,8.461c-1.346,4.276-4.432,6.18-9.257,5.713
		c-4.707-0.273-8.111-3.755-11.627-6.415c-3.468-2.624-6.863-5.491-10.77-7.438c-0.197-0.098-0.394-0.164-0.591-0.256
		c0.658-0.79,1.367-1.646,2.086-2.513c19.31-3.365,46.952-8.898,51.461-27.547c2.713,1.484,5.088-2.891,2.374-4.804
		c-0.584-0.412-1.174-0.655-1.76-1.005c-0.01-0.683,0.075-1.314,0.01-2.026c-0.3-3.307-5.275-3.437-5.347-0.346
		c-18.406-5.419-37.019,15.753-49.588,30.794c-1.11,0.19-2.206,0.375-3.219,0.55c0.019-0.217,0.061-0.42,0.075-0.64
		c0.268-4.358-0.517-8.731-1.056-13.047c-0.547-4.375-1.86-9.063,0.257-13.277c2.008-4.412,5.2-6.132,9.576-5.16
		c6.974-1.749,8.147,1.86,3.519,10.827c-3.305,1.036-1.948,6.246,1.356,5.21c14.226-4.46,8.481-23.802-5.634-22.705
		c-6.76,0.526-13.233,6.201-14.964,12.716c-2.149,8.088,4.962,23.04,0.286,31.245c-2.702,0.451-5.317,1.612-7.773,3.661
		c-0.046,0.038-0.055,0.083-0.097,0.122c-23.968,1.54-84.243-14.729-94.258,17.082c0.432-19.302,23.69-32.278,40.271-33.218
		c8.093-0.459,16.104,2.313,24.217,2.07c9.198-0.275,23.937-3.09,29.66-11.105c8.384-11.743-5.184-20.649-16.323-17.945
		c-3.373,0.819-2.008,6.027,1.356,5.21c9.627,14.153,4.739,20.305-14.664,18.457c-2.023-0.097-4.046-0.194-6.07-0.291
		c-6.082-0.302-12.022-1.906-18.148-1.779c-9.294,0.192-17.054,3.508-24.888,8.353c-15.967,9.875-25.603,22.13-19.141,40.894
		c0.889,2.579,4.296,2.254,5.138,0.393c0.013-0.001,0.026-0.005,0.039-0.006c-0.467,0.938-0.949,1.862-1.29,2.916
		c-1.07,3.304,4.134,4.681,5.199,1.393c6.194-19.117,44.052-13.349,60.169-11.844c-6.756,14.71-20.689,50.381-40.342,46.186
		c-3.38-0.721-4.79,4.474-1.393,5.199c1.083,0.231,2.124,0.276,3.17,0.34c-0.008,0.011-0.017,0.019-0.025,0.03
		c-2.033-0.201-4.019,2.587-2.229,4.647c13.018,14.979,28.45,12.761,44.985,3.871C152.179,685.363,158.931,680.3,163.745,672.348z
		 M235.484,574.266c-3.018,14.419-23.932,20.336-40.886,23.605C205.906,584.824,221.488,569.67,235.484,574.266z M145.106,630.962
		c0.757-1.611-0.131-3.092-1.364-3.728c0.065-1.386-0.773-2.896-2.547-3.046c-16.036-1.356-49.788-6.555-62.71,8.676
		c3.153-33.08,63.431-18.467,87.614-18.539c-12.154,20.907-29.636,80.415-59.861,66.607
		C125.889,677.357,138.262,645.528,145.106,630.962z"/>
	<path d="M382.713,488.397c10.623-5.537,21.031-11.436,31.237-17.707c2.947-1.81,0.267-6.479-2.691-4.661
		c-10.207,6.271-20.614,12.171-31.237,17.707C376.948,485.338,379.645,489.996,382.713,488.397z"/>
	<path d="M313.352,450.143c2.13-1.274,0.719-5.322-2.297-4.86c-6.993,1.07-13.993,1.748-21.005,2.174
		c-9.334-0.567-18.692-0.65-28.084-0.115c-1.004,0.057-1.679,0.574-2.097,1.245c-0.302,0.454-0.481,0.989-0.476,1.556
		c-0.005,0.567,0.174,1.102,0.476,1.556c0.418,0.671,1.093,1.188,2.097,1.245c9.392,0.534,18.748,0.452,28.082-0.115
		c7.012,0.426,14.014,1.104,21.007,2.174C314.071,455.465,315.482,451.417,313.352,450.143z"/>
	<path d="M413.951,429.597c-10.207-6.271-20.615-12.17-31.237-17.707c-3.068-1.599-5.765,3.059-2.691,4.661
		c10.623,5.536,21.031,11.436,31.237,17.707C414.218,436.076,416.897,431.407,413.951,429.597z"/>
	<path d="M84.178,242.734c9.194,5.308,18.387,10.616,27.58,15.924c1.819,1.05,3.5-0.251,3.895-1.821
		c1.162-1.127,1.449-3.233-0.37-4.284c-9.194-5.308-18.387-10.616-27.58-15.923c-1.816-1.048-3.499,0.251-3.895,1.82
		C82.646,239.577,82.362,241.686,84.178,242.734z"/>
	<path d="M89.785,304.58c7.834,4.846,15.594,8.161,24.888,8.353c6.125,0.127,12.065-1.477,18.148-1.779
		c2.023-0.097,4.046-0.194,6.07-0.291c19.403-1.849,24.291,4.304,14.664,18.457c-3.364-0.817-4.729,4.392-1.356,5.21
		c11.138,2.703,24.707-6.203,16.323-17.946c-5.723-8.015-20.462-10.83-29.66-11.105c-8.113-0.243-16.124,2.529-24.217,2.07
		c-16.58-0.94-39.839-13.916-40.271-33.218c10.016,31.811,70.29,15.542,94.258,17.082c0.042,0.039,0.051,0.084,0.097,0.122
		c2.456,2.049,5.071,3.21,7.773,3.661c4.676,8.205-2.435,23.157-0.286,31.245c1.731,6.516,8.204,12.191,14.964,12.716
		c14.115,1.097,19.861-18.245,5.634-22.705c-3.304-1.036-4.661,4.174-1.356,5.21c4.628,8.967,3.455,12.576-3.519,10.827
		c-4.376,0.972-7.568-0.748-9.576-5.16c-2.117-4.213-0.804-8.902-0.257-13.277c0.539-4.315,1.324-8.689,1.056-13.047
		c-0.013-0.22-0.056-0.423-0.075-0.64c1.013,0.174,2.109,0.36,3.219,0.55c12.569,15.041,31.182,36.213,49.588,30.793
		c0.072,3.091,5.048,2.961,5.347-0.346c0.065-0.712-0.02-1.344-0.01-2.026c0.586-0.35,1.176-0.593,1.76-1.005
		c2.714-1.913,0.339-6.288-2.374-4.804c-4.51-18.65-32.151-24.183-51.461-27.547c-0.719-0.867-1.428-1.722-2.086-2.513
		c0.197-0.092,0.394-0.157,0.591-0.256c3.908-1.947,7.303-4.813,10.77-7.438c3.516-2.66,6.919-6.142,11.627-6.415
		c4.825-0.467,7.91,1.438,9.257,5.713c5.002,5.165,2.463,7.985-7.617,8.461c-2.549-2.344-6.383,1.436-3.834,3.779
		c10.975,10.09,24.854-4.556,16.846-16.232c-3.835-5.592-11.986-8.359-18.494-6.601c-8.079,2.183-17.472,15.817-26.916,15.871
		c-1.742-2.114-4.054-3.799-7.057-4.901c-0.056-0.02-0.099-0.006-0.154-0.023c-13.319-19.987-29.366-80.319-61.923-73.089
		c16.933-9.278,39.798,4.377,48.903,18.266c4.444,6.78,6.049,15.103,10.316,22.008c4.837,7.827,14.644,19.185,24.447,20.133
		c14.362,1.39,15.29-14.814,7.38-23.108c-2.396-2.512-6.224,1.274-3.835,3.779c-7.443,15.414-15.215,14.256-23.316-3.471
		c-0.927-1.801-1.855-3.602-2.783-5.403c-2.78-5.418-4.361-11.364-7.533-16.606c-4.814-7.953-11.565-13.015-19.679-17.377
		c-16.536-8.89-31.967-11.108-44.985,3.871c-1.789,2.059,0.196,4.848,2.229,4.647c0.007,0.011,0.017,0.019,0.025,0.03
		c-1.046,0.064-2.087,0.109-3.17,0.34c-3.396,0.725-1.987,5.921,1.393,5.199c19.653-4.195,33.586,31.476,40.342,46.186
		c-16.117,1.505-53.976,7.273-60.169-11.844c-1.065-3.288-6.27-1.911-5.199,1.393c0.341,1.054,0.823,1.978,1.29,2.915
		c-0.013-0.001-0.026-0.005-0.039-0.006c-0.843-1.861-4.25-2.186-5.138,0.393C64.182,282.45,73.818,294.705,89.785,304.58z
		 M235.484,326.021c-13.996,4.596-29.577-10.558-40.886-23.605C211.551,305.685,232.466,311.602,235.484,326.021z M141.194,276.099
		c1.773-0.15,2.612-1.66,2.547-3.046c1.233-0.637,2.121-2.118,1.364-3.728c-6.844-14.566-19.217-46.395-38.868-49.971
		c30.225-13.808,47.707,45.7,59.861,66.607c-24.184-0.072-84.461,14.541-87.614-18.538
		C91.406,282.654,125.158,277.455,141.194,276.099z"/>
	<path d="M383.463,410.591c10.107,6.431,20.42,12.495,30.954,18.199c3.041,1.647,5.744-3.008,2.691-4.661
		c-10.534-5.704-20.847-11.768-30.954-18.199C383.23,404.068,380.545,408.733,383.463,410.591z"/>
	<path d="M376.553,331.836c1.109,2.843,5.32,2.042,5.358-0.44c2.168,1.207,4.969-2.039,3.06-4.421
		c-4.423-5.521-8.511-11.245-12.386-17.104c-4.176-8.367-8.783-16.512-13.942-24.379c-0.551-0.839-1.333-1.166-2.122-1.194
		c-0.545-0.035-1.101,0.077-1.591,0.366c-0.491,0.278-0.864,0.7-1.107,1.185c-0.375,0.698-0.486,1.543-0.033,2.444
		c4.233,8.401,8.983,16.464,14.142,24.263C371.07,318.842,373.983,325.245,376.553,331.836z"/>
	<path d="M444.622,408.243c-0.095,3.471,5.288,3.457,5.383,0c0.327-11.975,0.233-23.938-0.284-35.906
		c-0.149-3.456-5.532-3.463-5.383,0C444.854,384.305,444.949,396.268,444.622,408.243z"/>
	<path d="M450.471,63.53c1.557,0.443,3.524-0.362,3.524-2.463c0-10.615,0-21.231,0-31.847c0-2.097-1.968-2.905-3.524-2.463
		c-1.557-0.442-3.525,0.366-3.525,2.463c0,10.616,0,21.231,0,31.847C446.946,63.168,448.914,63.973,450.471,63.53z"/>
	<path d="M412.013,105.556c1.096,1.704,2.192,3.407,3.288,5.111c11.302,15.879,8.418,23.189-8.652,21.928
		c-0.975-3.322-6.168-1.9-5.19,1.431c3.228,10.997,17.725,18.296,23.702,5.163c4.08-8.964-0.852-23.136-5.212-31.238
		c-3.847-7.148-10.253-12.699-13.902-19.938c-7.476-14.829-7.868-41.458,8.632-51.484c-22.54,24.579,21.686,68.643,32.336,90.171
		c-0.013,0.056-0.047,0.086-0.057,0.145c-0.547,3.152-0.244,5.997,0.716,8.562c-4.768,8.152-21.272,9.469-27.202,15.375
		c-4.777,4.757-6.456,13.2-3.53,19.317c6.107,12.773,25.731,8.077,22.48-6.473c-0.755-3.379-5.946-1.949-5.19,1.431
		c-5.452,8.491-9.164,9.28-11.136,2.366c-3.03-3.304-3.136-6.928-0.32-10.873c2.591-3.94,7.307-5.147,11.37-6.861
		c4.006-1.691,8.187-3.198,11.826-5.609c0.184-0.122,0.338-0.259,0.517-0.384c0.356,0.965,0.742,2.006,1.133,3.062
		c-6.741,18.405-15.77,45.111-1.874,58.341c-2.641,1.608-0.04,5.852,2.974,4.458c0.649-0.3,1.154-0.689,1.75-1.022
		c0.596,0.333,1.101,0.722,1.75,1.022c3.014,1.394,5.615-2.85,2.974-4.457c13.897-13.23,4.867-39.937-1.874-58.341
		c0.391-1.056,0.777-2.098,1.133-3.063c0.178,0.125,0.333,0.262,0.517,0.384c3.64,2.411,7.82,3.918,11.827,5.609
		c4.062,1.714,8.779,2.921,11.369,6.861c2.817,3.945,2.71,7.569-0.32,10.873c-1.972,6.914-5.684,6.125-11.135-2.366
		c0.755-3.38-4.435-4.81-5.19-1.431c-3.251,14.55,16.373,19.246,22.48,6.473c2.925-6.117,1.246-14.56-3.531-19.317
		c-5.93-5.905-22.434-7.223-27.202-15.375c0.96-2.565,1.263-5.411,0.716-8.562c-0.01-0.058-0.044-0.089-0.057-0.145
		c10.65-21.527,54.875-65.591,32.336-90.171c16.5,10.025,16.108,36.655,8.632,51.484c-3.649,7.239-10.055,12.79-13.902,19.938
		c-4.361,8.103-9.292,22.275-5.212,31.238c5.978,13.133,20.475,5.834,23.703-5.163c0.977-3.33-4.215-4.753-5.19-1.431
		c-17.07,1.261-19.954-6.049-8.652-21.928c1.096-1.704,2.192-3.407,3.287-5.111c3.302-5.117,7.662-9.459,10.614-14.826
		c4.481-8.145,5.489-16.523,5.21-25.731c-0.569-18.766-6.364-33.238-25.845-37.023c-2.678-0.52-4.1,2.593-2.909,4.253
		c-0.006,0.012-0.009,0.025-0.014,0.037c-0.579-0.873-1.138-1.752-1.88-2.575c-2.326-2.579-6.121,1.24-3.806,3.806
		c13.459,14.923-10.466,44.824-19.827,58.03c-9.361-13.206-33.286-43.108-19.827-58.03c2.315-2.566-1.48-6.385-3.806-3.806
		c-0.742,0.823-1.301,1.702-1.88,2.575c-0.006-0.012-0.008-0.025-0.014-0.037c1.19-1.66-0.231-4.774-2.909-4.253
		c-19.481,3.785-25.276,18.258-25.845,37.023c-0.279,9.207,0.729,17.585,5.21,25.731
		C404.352,96.097,408.711,100.439,412.013,105.556z M450.47,201.898c-10.978-9.823-5.645-30.894,0-47.211
		C456.115,171.004,461.448,192.075,450.47,201.898z M446.559,95.28c1.017,1.461,2.743,1.432,3.911,0.683
		c1.168,0.749,2.895,0.778,3.911-0.683c9.193-13.21,30.571-39.84,23.842-58.647c27.07,19.271-15.723,64.166-27.752,85.145
		c-12.029-20.979-54.823-65.874-27.753-85.145C415.988,55.44,437.367,82.07,446.559,95.28z"/>
	<path d="M456.319,408.243c-0.327-11.975-0.233-23.938,0.284-35.906c0.149-3.463-5.233-3.456-5.383,0
		c-0.516,11.968-0.611,23.931-0.284,35.906C451.031,411.7,456.414,411.714,456.319,408.243z"/>
</g>
<g>
</g>
<g>
</g>
<g>
</g>
<g>
</g>
<g>
</g>
<g>
</g>
</svg>
