<?xml version="1.0" encoding="iso-8859-1"?>
<!-- Generator: Adobe Illustrator 22.0.1, SVG Export Plug-In . SVG Version: 6.00 Build 0)  -->
<svg version="1.1" id="Layer_1" xmlns="http://www.w3.org/2000/svg" xmlns:xlink="http://www.w3.org/1999/xlink" x="0px" y="0px"
	 width="900px" height="900px" viewBox="0 0 900 900" enable-background="new 0 0 900 900" xml:space="preserve">
<g>
	<path d="M635.413,129.612c1.175,0.833,2.951,0.902,3.943-0.669c5.062-8.016,10.355-15.904,13.79-24.783
		c0.047-0.116,0.121-0.226,0.15-0.343c0.015-0.038,0.035-0.074,0.049-0.113c0.543-1.438-0.192-2.48-1.264-2.958
		c-0.95-0.691-2.222-0.808-3.197,0.383c-0.026,0.032-0.047,0.067-0.073,0.099c-0.086,0.084-0.146,0.204-0.223,0.303
		c-5.971,7.414-10.156,15.941-14.567,24.332C633.158,127.508,634.105,129.011,635.413,129.612z"/>
	<path d="M420.873,59.947c4.782-0.469,10.123-2.507,14.537-5.728c4.421-3.177,7.863-7.328,10.212-11.257
		c2.569-4.415,4.042-8.45,4.733-11.202c0.691,2.752,2.163,6.786,4.732,11.202c2.349,3.929,5.791,8.08,10.212,11.257
		c4.415,3.222,9.755,5.26,14.538,5.728c9.783,0.847,14.246-3.199,15.5-5.483c1.34-2.519,0.425-4.097,0.425-4.097
		s-0.843-1.58-3.051-2.593c-2.281-1.152-5.396-1.589-11.356-2.121c-3.022-0.303-6.576-0.828-10.232-2.073
		c-3.684-1.232-7.463-3.197-10.719-5.455c-4.552-3.222-8.123-6.667-9.615-8.54c0.1-0.871,0.046-1.395-0.161-1.409
		c0.164,0.053,0.034,0.371-0.272,0.829c-0.306-0.458-0.436-0.776-0.272-0.829c-0.207,0.014-0.261,0.539-0.161,1.41
		c-1.492,1.873-5.064,5.318-9.615,8.54c-3.256,2.258-7.034,4.223-10.719,5.455c-3.656,1.245-7.21,1.77-10.232,2.073
		c-5.959,0.532-9.074,0.969-11.356,2.121c-2.207,1.013-3.051,2.593-3.051,2.593s-0.916,1.579,0.425,4.097
		C406.627,56.748,411.09,60.794,420.873,59.947z"/>
	<path d="M399.831,117.498c2.334,1.448,8.982,2.807,18.7-1.731c4.866-2.202,10.017-5.733,14.445-10.056
		c4.477-4.285,8.078-9.459,10.64-14.33c2.575-4.885,4.034-9.514,4.805-12.844c0.422-1.657,0.625-3.012,0.768-3.942
		c0.65,6.41-0.269,15.564-4.908,24.253c-2.301,4.475-5.647,8.535-9.753,12.027c-4.103,3.49-9.342,7.108-12.682,12.735
		c-6.834,11.057-5.875,24.781-1.515,34.432c4.394,9.738,11.555,15.552,18.08,16.847c5.781,1.094,9.685-0.646,11.945-2.28
		c2.259,1.634,6.163,3.374,11.944,2.28c6.525-1.295,13.686-7.109,18.08-16.847c4.36-9.651,5.32-23.375-1.515-34.432
		c-3.34-5.627-8.578-9.246-12.682-12.735c-4.106-3.492-7.452-7.552-9.752-12.027c-4.639-8.689-5.559-17.844-4.908-24.254
		c0.142,0.929,0.345,2.285,0.767,3.942c0.771,3.33,2.23,7.958,4.805,12.844c2.561,4.871,6.164,10.045,10.64,14.33
		c4.428,4.323,9.579,7.854,14.445,10.056c9.718,4.539,16.366,3.179,18.7,1.731c2.48-1.475,1.943-2.447,1.99-2.4
		c0.018-0.056-0.343-0.72-2.67-1.129c-2.33-0.528-6.42-0.818-15.036-4.742c-8.572-3.711-18.877-11.302-25.03-19.767
		c-3.16-4.125-5.394-8.236-6.781-11.288c-0.73-1.517-1.201-2.785-1.531-3.659c-0.1-0.258-0.158-0.407-0.23-0.594
		c0.256-2.58,0.715-4.607,1.145-6.232c1.154,2.942,2.707,5.883,4.961,8.566c4.846,5.689,10.42,8.92,14.669,11.522
		c9.014,5.325,15.092,5.95,18.138,5.217c3.118-0.719,3.635-2.469,3.635-2.469s0.583-1.677-0.982-4.21
		c-1.61-2.588-4.94-5.885-13.547-10.953c-4.463-2.66-9.609-4.879-13.338-7.685c-3.759-2.696-6.868-7.265-9.213-11.958
		c-2.349-4.687-4.134-9.294-5.552-12.497c-0.036-0.082-0.062-0.141-0.098-0.222c0.043-3.046,0.07-4.94,0.07-4.94
		s-0.424,0.963-1.123,2.549c-0.699-1.586-1.124-2.549-1.124-2.549s0.027,1.893,0.07,4.94c-0.036,0.081-0.061,0.14-0.098,0.222
		c-1.418,3.203-3.203,7.81-5.553,12.497c-2.344,4.693-5.453,9.262-9.212,11.958c-3.73,2.806-8.875,5.024-13.338,7.685
		c-8.607,5.068-11.937,8.364-13.547,10.953c-1.566,2.534-0.982,4.21-0.982,4.21s0.517,1.75,3.635,2.469
		c3.047,0.733,9.123,0.109,18.138-5.217c4.249-2.603,9.822-5.833,14.669-11.522c2.254-2.683,3.807-5.624,4.961-8.566
		c0.43,1.624,0.889,3.652,1.145,6.232c-0.072,0.187-0.13,0.336-0.23,0.594c-0.331,0.874-0.802,2.142-1.532,3.659
		c-1.387,3.053-3.62,7.163-6.78,11.288c-6.154,8.465-16.458,16.055-25.03,19.767c-8.616,3.923-12.706,4.214-15.036,4.742
		c-2.327,0.408-2.689,1.072-2.67,1.129C397.888,115.051,397.352,116.023,399.831,117.498z M453.185,100.391
		c2.043,5.022,5.455,9.951,9.674,14.103c4.194,4.084,8.47,7.6,10.761,12.163c4.987,9.148,3.799,20.501,0.199,28.45
		c-3.716,8.139-8.945,12.573-13.078,13.922c-3.045,1.015-5.596,0.811-7.493,0.377c0.345-0.679,0.448-1.207,0.491-1.535
		c0.07-0.692-0.141-0.781-0.141-0.781s-0.187-0.124-0.779,0.137c-0.47,0.191-1.205,0.668-2.465,1.223
		c-1.26-0.554-1.995-1.032-2.465-1.223c-0.592-0.261-0.779-0.137-0.779-0.137s-0.211,0.089-0.141,0.781
		c0.043,0.328,0.146,0.855,0.491,1.535c-1.897,0.434-4.447,0.638-7.493-0.377c-4.133-1.348-9.362-5.783-13.078-13.922
		c-3.6-7.949-4.788-19.302,0.198-28.45c2.292-4.563,6.568-8.079,10.762-12.163c4.22-4.151,7.631-9.081,9.674-14.103
		c1.379-3.238,2.261-6.441,2.83-9.53C450.924,93.95,451.806,97.153,453.185,100.391z M450.355,58.738
		c0.413,2.633,1.039,5.481,2.117,8.375c-0.653,1.667-1.449,3.939-2.026,6.858c-0.035,0.16-0.058,0.346-0.092,0.511
		c-0.033-0.164-0.057-0.351-0.092-0.511c-0.576-2.918-1.372-5.19-2.025-6.858C449.316,64.219,449.942,61.371,450.355,58.738z"/>
	<path d="M454.559,136.72c2.536,5.704,5.798,4.194,5.798,4.194s3.305-1.411,0.769-7.114c-2.536-5.703-9.954-13.539-9.954-13.539
		S452.022,131.017,454.559,136.72z"/>
	<path d="M452.152,147.866c0,0,1.686,7.328,4.372,10.363c2.686,3.035,5.353,0.627,5.353,0.627s2.714-2.355,0.029-5.39
		C459.22,150.431,452.152,147.866,452.152,147.866z"/>
	<path d="M770.482,643.446c-7.35,1.353-12.934,4.564-17.313,6.942c-9.119,5.144-12.698,10.094-13.587,13.1
		c-0.936,3.06,0.321,4.383,0.321,4.383s1.161,1.344,4.137,1.255c3.047-0.1,7.566-1.336,16.259-6.256
		c4.535-2.535,9.029-5.882,13.324-7.709c4.215-1.907,9.726-2.315,14.962-1.999c5.234,0.309,10.117,1.067,13.599,1.44
		c0.089,0.01,0.154,0.017,0.241,0.026c2.616,1.56,4.243,2.53,4.243,2.53s-0.622-0.849-1.646-2.247
		c1.723,0.188,2.769,0.302,2.769,0.302s-1.653-0.924-4.313-2.409c-0.052-0.071-0.09-0.123-0.143-0.195
		c-2.065-2.829-5.162-6.679-8.047-11.058c-2.892-4.377-5.294-9.354-5.75-13.957c-0.565-4.633,0.086-10.198,0.014-15.394
		c-0.086-9.988-1.275-14.52-2.712-17.208c-1.411-2.623-3.155-2.956-3.155-2.956s-1.774-0.427-3.956,1.914
		c-2.159,2.272-4.656,7.847-4.551,18.316c0.13,4.981,0.141,11.423,2.644,18.465c1.197,3.293,2.967,6.109,4.938,8.58
		c-1.622-0.44-3.607-1.057-5.969-2.124c-0.126-0.156-0.226-0.28-0.399-0.496c-0.592-0.724-1.454-1.765-2.403-3.156
		c-1.95-2.727-4.393-6.717-6.386-11.516c-4.254-9.562-5.675-22.281-4.603-31.56c0.91-9.424,2.704-13.111,3.412-15.393
		c0.81-2.22,0.416-2.865,0.358-2.877c0.018,0.064-0.556-0.886-3.073,0.524c-2.421,1.297-6.922,6.375-7.85,17.06
		c-0.526,5.315-0.043,11.542,1.486,17.538c1.473,6.02,4.152,11.726,7.09,16.38c2.943,4.673,6.223,8.25,8.721,10.583
		c1.195,1.166,2.235,1.997,2.967,2.584c-5.868-2.65-13.296-7.987-18.487-16.326c-2.725-4.23-4.568-9.157-5.539-14.459
		c-0.97-5.299-1.485-11.645-4.688-17.351c-6.158-11.447-18.523-17.479-29.061-18.528c-10.63-1.063-19.246,2.231-23.63,7.235
		c-3.838,4.46-4.283,8.711-3.998,11.484c-2.544,1.14-6.003,3.651-7.947,9.204c-2.141,6.298-0.686,15.407,5.55,24.081
		c6.178,8.602,17.584,16.295,30.577,15.904c6.543-0.079,12.296-2.806,17.37-4.615c5.077-1.81,10.266-2.678,15.292-2.432
		c9.844,0.327,18.232,4.107,23.458,7.876c-0.876-0.341-2.151-0.843-3.798-1.306c-3.269-0.997-8.007-2.048-13.525-2.261
		c-5.499-0.218-11.781,0.315-17.731,2.049c-5.958,1.674-11.591,4.369-15.931,7.482c-8.79,6.147-10.937,12.584-10.85,15.329
		c0.038,2.885,1.147,2.906,1.083,2.924c0.04,0.044,0.795,0.063,2.313-1.749c1.621-1.754,3.918-5.151,11.624-10.651
		c7.5-5.568,19.226-10.696,29.633-11.794c5.153-0.674,9.829-0.553,13.166-0.228c1.679,0.126,3.012,0.353,3.935,0.503
		c0.273,0.043,0.431,0.067,0.629,0.098c2.106,1.511,3.632,2.923,4.824,4.107C777.256,642.961,773.932,642.835,770.482,643.446z
		 M734.784,628.797c-5.634,1.59-10.817,3.535-15.914,3.238c-10.416-0.255-19.654-6.961-24.738-14.053
		c-5.191-7.287-6.416-14.033-5.518-18.286c0.644-3.145,2.097-5.252,3.421-6.677c0.416,0.638,0.821,0.991,1.083,1.192
		c0.564,0.407,0.747,0.269,0.747,0.269s0.201-0.1,0.271-0.743c0.07-0.502,0.024-1.378,0.174-2.746
		c1.11-0.814,1.891-1.211,2.291-1.523c0.522-0.382,0.508-0.606,0.508-0.606s0.028-0.228-0.607-0.512
		c-0.305-0.127-0.813-0.301-1.574-0.342c0.572-1.86,1.671-4.171,4.073-6.301c3.234-2.905,9.689-5.217,18.595-4.365
		c8.685,0.857,19.111,5.504,24.54,14.397c2.805,4.266,3.712,9.727,5.153,15.402c1.485,5.73,4.048,11.149,7.376,15.43
		c2.115,2.813,4.447,5.179,6.839,7.216c-2.96-1.052-6.174-1.89-9.669-2.315C746.464,626.728,740.489,627.218,734.784,628.797z
		 M776.084,638.309c-0.121-0.11-0.271-0.224-0.396-0.335c0.159,0.053,0.332,0.126,0.488,0.176c2.816,0.96,5.181,1.406,6.952,1.675
		c1.967,2.381,4.121,4.347,6.195,6.021c-2.492-0.96-5.279-1.843-8.332-2.356C779.871,642.087,778.343,640.285,776.084,638.309z"/>
	<path d="M736.45,614.378c0,0-3.078-10.342-6.749-15.39c-3.671-5.049-6.546-2.891-6.546-2.891s-2.938,2.07,0.733,7.118
		C727.56,608.263,736.45,614.378,736.45,614.378z"/>
	<path d="M713.033,599.726c0,0,1.313-7.404,0.028-11.247c-1.286-3.843-4.682-2.67-4.682-2.67s-3.419,1.106-2.134,4.95
		S713.033,599.726,713.033,599.726z"/>
	<path d="M571.053,516.354c-11.579-20.155-24.199-48.678-44.54-60.991c-3.834-2.321-7.871-3.989-12.036-5.22
		c4.164-1.231,8.201-2.899,12.036-5.22c20.341-12.314,32.961-40.836,44.54-60.991c1.575-0.6,1.994-2.538,1.287-3.884
		c-0.031-0.09-0.098-0.161-0.139-0.247c-0.055-0.082-0.085-0.179-0.15-0.254c-0.812-1.285-2.7-1.891-4.007-0.827
		c-23.245-0.05-54.256-3.382-75.09,8.077c-3.927,2.16-7.39,4.822-10.538,7.813c1.017-4.222,1.59-8.552,1.497-13.033
		c-0.493-23.773-18.885-48.964-30.551-69.069c0.268-1.664-1.2-2.995-2.72-3.056c-0.095-0.018-0.192,0.004-0.289-0.003
		c-0.096,0.007-0.193-0.015-0.289,0.003c-1.519,0.06-2.987,1.392-2.72,3.056c-11.665,20.105-30.057,45.296-30.55,69.069
		c-0.093,4.481,0.48,8.811,1.497,13.033c-3.148-2.991-6.611-5.653-10.538-7.813c-20.835-11.459-51.846-8.127-75.09-8.077
		c-1.307-1.063-3.195-0.458-4.007,0.827c-0.064,0.073-0.092,0.168-0.147,0.249c-0.042,0.087-0.111,0.16-0.142,0.252
		c-0.707,1.345-0.288,3.283,1.287,3.883c11.579,20.156,24.199,48.678,44.54,60.991c3.834,2.321,7.871,3.989,12.035,5.22
		c-4.164,1.231-8.201,2.898-12.035,5.22c-20.341,12.314-32.961,40.836-44.54,60.991c-1.575,0.6-1.994,2.538-1.287,3.883
		c0.031,0.092,0.1,0.165,0.142,0.252c0.055,0.08,0.083,0.175,0.147,0.249c0.812,1.285,2.7,1.891,4.006,0.828
		c23.244,0.05,54.256,3.382,75.091-8.078c3.927-2.16,7.39-4.822,10.538-7.813c-1.017,4.222-1.59,8.552-1.497,13.033
		c0.493,23.773,18.885,48.964,30.55,69.069c-0.268,1.664,1.201,2.995,2.72,3.056c0.095,0.019,0.192-0.004,0.289,0.003
		c0.096-0.007,0.193,0.016,0.289-0.003c1.519-0.06,2.987-1.392,2.72-3.056c11.665-20.105,30.057-45.296,30.551-69.069
		c0.093-4.481-0.481-8.811-1.497-13.033c3.148,2.991,6.611,5.653,10.538,7.813c20.835,11.459,51.846,8.127,75.091,8.078
		c1.307,1.063,3.195,0.457,4.006-0.828c0.065-0.075,0.094-0.172,0.15-0.254c0.041-0.086,0.108-0.156,0.139-0.247
		C573.047,518.892,572.628,516.954,571.053,516.354z M495.659,391.483c18.074-9.787,47.751-7.658,69.071-7.374
		c-10.414,18.605-23.409,45.371-40.922,56.13c-7.373,4.53-15.781,6.496-24.571,7.233c-7.195-0.543-14.576-0.318-21.904,0.023
		c-4.224-0.211-8.42-0.459-12.521-0.626c14.54-7.865,29.08-15.731,43.62-23.596c1.488-0.805,1.599-2.318,0.985-3.478
		c6.274-3.394,12.548-6.788,18.822-10.182c2.007-1.086,1.52-3.443,0.096-4.492c-0.197-1.758-1.994-3.359-3.939-2.164
		c-6.076,3.736-12.153,7.473-18.229,11.21c-0.697-1.111-2.063-1.772-3.504-0.885c-14.082,8.66-28.163,17.319-42.245,25.979
		c1.906-3.635,3.788-7.392,5.718-11.155c3.959-6.177,7.845-12.456,10.972-18.959C482.143,401.901,488.05,395.603,495.659,391.483z
		 M450.355,318.074c10.906,18.322,27.588,42.959,28.15,63.504c0.236,8.65-2.265,16.914-6.022,24.896
		c-4.069,5.96-7.564,12.465-10.933,18.983c-2.294,3.552-4.606,7.061-6.801,10.529c0.459-16.525,0.917-33.05,1.375-49.574
		c0.047-1.691-1.208-2.544-2.52-2.592c0.198-7.131,0.396-14.261,0.594-21.392c0.063-2.281-2.221-3.037-3.842-2.329
		c-1.621-0.708-3.906,0.047-3.843,2.329c0.198,7.131,0.396,14.261,0.594,21.392c-1.311,0.048-2.566,0.901-2.519,2.592
		c0.459,16.524,0.917,33.049,1.375,49.574c-2.195-3.468-4.508-6.976-6.802-10.529c-3.369-6.516-6.863-13.02-10.932-18.98
		c-3.758-7.982-6.259-16.247-6.023-24.897C422.767,361.033,439.449,336.396,450.355,318.074z M376.902,440.239
		c-17.512-10.759-30.507-37.525-40.922-56.13c21.32-0.284,50.997-2.413,69.071,7.374c7.609,4.12,13.516,10.418,18.549,17.663
		c3.128,6.504,7.014,12.783,10.973,18.96c1.929,3.763,3.812,7.52,5.717,11.155c-14.082-8.66-28.163-17.319-42.245-25.978
		c-1.441-0.886-2.807-0.225-3.504,0.886c-6.076-3.736-12.153-7.473-18.229-11.21c-1.944-1.196-3.741,0.406-3.938,2.164
		c-1.424,1.05-1.912,3.406,0.095,4.492c6.274,3.394,12.549,6.788,18.823,10.182c-0.614,1.16-0.503,2.673,0.985,3.478
		c14.54,7.865,29.08,15.731,43.62,23.596c-4.101,0.167-8.297,0.415-12.521,0.626c-7.328-0.34-14.709-0.566-21.904-0.023
		C392.682,446.735,384.274,444.769,376.902,440.239z M405.051,508.804c-18.074,9.787-47.751,7.658-69.071,7.374
		c10.414-18.605,23.409-45.371,40.922-56.13c7.373-4.53,15.781-6.496,24.571-7.233c7.195,0.543,14.575,0.318,21.904-0.023
		c4.224,0.211,8.42,0.459,12.521,0.626c-14.54,7.865-29.08,15.731-43.62,23.596c-1.488,0.805-1.599,2.318-0.985,3.478
		c-6.274,3.394-12.549,6.788-18.823,10.182c-2.008,1.086-1.52,3.443-0.095,4.492c0.197,1.758,1.994,3.359,3.938,2.164
		c6.076-3.737,12.153-7.474,18.229-11.21c0.697,1.111,2.063,1.772,3.504,0.886c14.082-8.66,28.163-17.319,42.245-25.978
		c-1.905,3.635-3.788,7.391-5.717,11.154c-3.96,6.177-7.846,12.457-10.973,18.961C418.567,498.385,412.66,504.684,405.051,508.804z
		 M450.355,582.212c-10.906-18.322-27.588-42.959-28.149-63.504c-0.236-8.65,2.265-16.915,6.023-24.897
		c4.068-5.96,7.563-12.464,10.932-18.98c2.294-3.553,4.606-7.061,6.802-10.529c-0.459,16.525-0.917,33.049-1.375,49.574
		c-0.047,1.691,1.208,2.544,2.519,2.592c-0.198,7.131-0.396,14.261-0.594,21.392c-0.063,2.282,2.222,3.037,3.843,2.329
		c1.621,0.708,3.906-0.047,3.842-2.329c-0.198-7.131-0.396-14.261-0.594-21.392c1.311-0.048,2.566-0.901,2.52-2.592
		c-0.459-16.525-0.917-33.05-1.375-49.574c2.195,3.467,4.507,6.976,6.801,10.529c3.37,6.517,6.865,13.023,10.933,18.983
		c3.757,7.981,6.258,16.246,6.022,24.896C477.943,539.254,461.261,563.891,450.355,582.212z M495.659,508.804
		c-7.609-4.12-13.516-10.419-18.55-17.663c-3.128-6.504-7.013-12.784-10.973-18.96c-1.929-3.763-3.812-7.519-5.717-11.154
		c14.082,8.66,28.163,17.319,42.245,25.979c1.441,0.886,2.807,0.226,3.504-0.886c6.076,3.736,12.153,7.473,18.229,11.21
		c1.945,1.196,3.742-0.406,3.939-2.164c1.424-1.05,1.912-3.406-0.096-4.492c-6.274-3.394-12.548-6.788-18.822-10.182
		c0.614-1.16,0.503-2.673-0.985-3.478c-14.54-7.865-29.08-15.731-43.62-23.596c4.101-0.167,8.297-0.415,12.521-0.626
		c7.328,0.34,14.709,0.566,21.904,0.023c8.791,0.737,17.199,2.703,24.571,7.233c17.512,10.759,30.508,37.525,40.922,56.13
		C543.41,516.462,513.733,518.591,495.659,508.804z"/>
	<path d="M820.472,450.143c-0.133,1.434,0.695,3.006,2.55,3.079c9.473,0.375,18.951,1.016,28.358-0.449
		c0.123-0.018,0.256-0.008,0.372-0.041c0.041-0.007,0.082-0.007,0.122-0.014c1.518-0.249,2.052-1.408,1.93-2.576
		c0.122-1.168-0.412-2.327-1.93-2.576c-0.041-0.007-0.082-0.007-0.122-0.014c-0.116-0.033-0.248-0.023-0.372-0.041
		c-9.407-1.465-18.884-0.825-28.358-0.449C821.166,447.138,820.338,448.71,820.472,450.143z"/>
	<path d="M815.419,464.035c5.08,2.446,10.634,3.912,16.498,4.13c15.841,0.59,27.154-9.825,41.329-14.915
		c1.474-0.53,1.962-1.884,1.791-3.107c0.171-1.223-0.317-2.577-1.791-3.107c-14.175-5.091-25.488-15.506-41.329-14.916
		c-5.864,0.218-11.418,1.684-16.498,4.13c20.606-15.188,44.267-30.532,59.332-50.194c1.62-2.114-0.318-4.86-2.258-4.71
		c-0.482-1.48-2.097-2.657-3.865-1.679c-13.298,7.352-26.011,10.866-38.875,11.999c22.387-10.376,44.995-34.218,22.544-48.461
		c-0.287-0.929-0.559-1.853-1.004-2.843c-1.122-2.499-4.209-1.348-4.818,0.778c-1.853,0.809-2.724,3.621-0.427,4.753
		c0.641,0.316,1.13,0.659,1.7,0.989c2.521,18.03-41.78,19.217-51.547,19.06c-11.258-0.181-22.482-1.263-33.739-1.459
		c-15.034-0.262-30.533,0.582-44.569,6.525c-22.338,9.457-40.967,31.805-41.233,55.735c-2.352-13.197-0.843-25.531,9.151-38.974
		c12.518-16.839,31.591-27.408,51.268-33.838c23.407-7.649,56.602-2.764,77.581-17.677c19.551-13.898-5.009-35.815-12.424-22.363
		c-1.681,3.05,3.003,5.755,4.685,2.705c3.094,13.874-1.16,21.026-12.762,21.455c-8.914,2.44-17.989,4.031-27.226,4.774
		c-9.217,1.284-18.055,2.08-27.108,4.581c-15.662,4.327-30.705,11.539-43.427,21.679c-12.226,9.746-22.986,22.62-26.82,38.133
		c-3.924,15.877,1.856,24.454,6.911,39.318c0.195,0.574,0.541,0.958,0.931,1.262c-7.938,0.033-15.876,0.052-23.814,0.046
		c1.635-0.951,3.313-2.277,4.876-4.182c4.038-4.815,4.861-12.482,4.906-18.587c0.181-6.273-0.019-12.992-0.308-19.781
		c-0.46-13.461-1.214-21.94,0.581-31.563c1.011-4.792,2.819-9.917,6.599-15.113c3.781-4.992,9.939-10.487,19.452-11.808
		c-9.171,0.781-16.132,4.929-21.404,9.167c-5.28,4.357-9.214,9.002-12.341,13.942c-6.212,10.045-9.173,21.06-8.629,36.029
		c0.321,7.472,1.532,14.282,2.81,20.323c1.369,6.067,2.3,10.112,1.459,13.547c-0.838,3.559-3.258,6.365-5.221,7.876
		c-0.071,0.055-0.126,0.087-0.196,0.14c-6.562-0.014-13.123-0.02-19.685-0.05c2.316-1.254,4.484-2.848,6.402-5.029
		c4.904-5.578,10.816-14.45,8.066-22.19c-5.24-14.748-24.602-10.514-27.908,3.034c-0.825,3.38,4.409,4.751,5.236,1.363
		c1.442-5.908,7.646-11.01,13.8-7.23c5.946,3.652,3.705,10.735,0.882,15.543c-5.589,9.515-12.991,12.306-23.575,13.45
		c-0.798,0.086-1.391,0.461-1.818,0.956c-11.187-0.067-22.374-0.132-33.56-0.201c13.914-5.705,26.432-13.283,35.283-26.679
		c17.221-26.063,18.513-58.85,44.215-79.608c2.125-1.716,0.185-4.373-2.043-4.403c0.04-0.093,0.156-0.356,0.352-0.773
		c1.1,1.062,2.433,2.189,4.143,3.263c4.78,2.955,10.702,5.138,13.985,6.08c3.327,0.858,5.022,0.017,6.871-0.918
		c1.761-0.963,2.939-2.328,2.939-2.328s1.21-1.342,1.164-3.573c0.076-2.166-1.994-5.737-7.401-7.104
		c-5.419-1.395-11.38,0.113-15.922,0.845c-1.416,0.231-2.702,0.367-3.895,0.451c0.669-0.991,1.43-2.038,2.338-3.148
		c2.905-3.568,7.192-7.975,8.693-13.366c1.519-5.366-0.538-8.944-2.452-9.961c-1.909-1.156-3.676-0.779-3.676-0.779
		s-1.771,0.338-3.486,1.382c-1.734,1.134-3.311,2.182-4.231,5.492c-0.827,3.314-1.897,9.535-1.728,15.151
		c0.073,1.966,0.343,3.752,0.699,5.215c-0.432-0.037-0.694-0.065-0.79-0.077c1.089-1.944-0.243-4.953-2.792-3.972
		c-30.828,11.88-59.868-3.396-91.05-1.513c-16.027,0.968-28.849,8.02-40.746,17.216c5.533-9.722,11.07-19.442,16.605-29.164
		c0.643-0.122,1.264-0.448,1.738-1.096c6.282-8.595,12.401-13.61,23.435-13.693c5.576-0.042,12.83,1.56,13.019,8.535
		c0.196,7.219-7.324,10.041-13.161,8.336c-3.348-0.978-4.778,4.241-1.438,5.216c13.387,3.91,26.734-10.74,16.582-22.652
		c-5.328-6.252-15.967-5.567-23.25-4.11c-2.848,0.57-5.313,1.651-7.557,3.03c3.255-5.698,6.53-11.383,9.799-17.072
		c0.08-0.034,0.136-0.067,0.219-0.1c2.291-0.945,5.93-1.637,9.432-0.583c3.396,0.988,6.434,3.818,11.003,8.037
		c4.593,4.127,9.885,8.581,16.196,12.594c12.691,7.956,23.71,10.899,35.516,10.542c5.842-0.238,11.832-1.322,18.245-3.716
		c6.306-2.446,13.379-6.4,18.641-13.953c-5.9,7.578-13.739,10.163-19.952,10.942c-6.39,0.675-11.733-0.322-16.388-1.842
		c-9.231-3.257-16.198-8.149-27.626-15.278c-5.735-3.644-11.454-7.177-16.977-10.157c-5.31-3.014-12.36-6.135-18.55-5.045
		c-2.498,0.413-4.459,1.27-6.125,2.245c3.985-6.916,7.992-13.818,12.012-20.713c0.068,0.49,0.229,0.981,0.628,1.437
		c10.345,11.811,14.883,21.104,30.594,25.644c15.352,4.436,31.881,1.555,46.434-4.16c15.143-5.947,28.909-15.368,40.488-26.769
		c6.693-6.589,11.8-13.845,17.521-21.185c5.262-7.628,11.178-14.692,17.747-21.191c6.172-9.833,14.493-9.941,24.962-0.325
		c-3.482-0.069-3.482,5.34,0,5.409c15.357,0.305,8.656-31.924-13.155-21.941c-23.404,10.712-35.771,41.902-54.099,58.349
		c-15.406,13.825-34.096,25.059-54.938,27.48c-16.639,1.933-28.074-2.927-38.328-11.562c20.857,11.734,49.525,6.775,68.884-7.842
		c12.164-9.184,20.645-22.184,27.935-35.336c5.458-9.847,10.133-20.109,15.606-29.949c4.748-8.537,27.926-46.309,42.28-35.111
		c0,0.657,0.053,1.254,0.006,1.966c-0.168,2.555,2.703,3.208,4.33,2.007c2.146,0.535,4.686-1.562,3.083-3.783
		c-0.635-0.88-1.299-1.578-1.961-2.291c-1.109-26.566-33.062-18.907-53.241-4.707c7.414-10.574,16.813-19.827,29.829-27.667
		c1.73-1.042,1.519-3.029,0.478-4.186c1.1-1.605-0.31-4.656-2.95-4.31c-24.56,3.216-49.679,16.034-73.135,26.285
		c4.658-3.177,8.704-7.253,11.825-12.222c8.431-13.424,5.069-28.429,7.747-43.25c0.279-1.542-0.651-2.641-1.796-3.105
		c-0.974-0.758-2.39-1.014-3.585-0.002c-11.496,9.73-26.172,14.32-33.581,28.334c-2.743,5.187-4.251,10.729-4.672,16.351
		c-2.85-25.438-4.309-53.601-13.804-76.478c-1.021-2.459-4.368-2.155-5.208-0.4c-1.523-0.323-3.349,0.488-3.386,2.507
		c-0.282,15.193-3.595,27.959-9.046,39.666c2.207-24.575-7.136-56.075-30.696-43.754c-0.949-0.216-1.885-0.442-2.965-0.553
		c-2.726-0.278-3.272,2.97-1.735,4.562c-0.226,2.009,1.774,4.17,3.903,2.747c0.593-0.397,1.136-0.649,1.706-0.978
		c16.875,6.831-4.248,45.79-9.267,54.17c-5.786,9.659-12.335,18.839-18.133,28.489c-7.745,12.889-14.762,26.734-16.634,41.86
		c-2.979,24.074,7.061,51.381,27.651,63.577c-12.605-4.562-22.532-12.036-29.177-27.412c-8.324-19.26-7.94-41.063-3.67-61.318
		c5.079-24.096,25.907-50.401,23.482-76.026c-2.26-23.881-33.521-13.569-25.579-0.422c1.801,2.981,6.485,0.276,4.685-2.705
		c13.562,4.258,17.629,11.518,12.2,21.78c-2.344,8.939-5.504,17.594-9.478,25.965c-3.496,8.624-7.227,16.676-9.587,25.766
		c-4.083,15.728-5.36,32.361-2.938,48.448c2.327,15.461,8.096,31.217,19.614,42.293c11.788,11.337,22.105,10.62,37.506,13.673
		c0.594,0.118,1.1,0.011,1.558-0.175c-3.961,6.929-7.935,13.85-11.932,20.759c0.012-1.93-0.227-4.056-1.118-6.426
		c-2.151-5.905-8.379-10.45-13.644-13.542c-5.342-3.293-11.261-6.479-17.284-9.624c-11.889-6.332-19.608-9.919-27.044-16.285
		c-3.644-3.271-7.179-7.4-9.789-13.271c-2.433-5.77-4.113-13.851-0.5-22.75c-3.91,8.333-3.798,16.435-2.763,23.119
		c1.133,6.75,3.189,12.48,5.904,17.658c5.594,10.403,13.652,18.474,26.887,25.487c6.631,3.458,13.134,5.814,19.005,7.728
		c5.939,1.848,9.908,3.064,12.462,5.51c2.663,2.505,3.883,6.003,4.211,8.459c0.013,0.089,0.012,0.154,0.023,0.24
		c-3.292,5.676-6.579,11.355-9.885,17.022c0.072-2.633-0.225-5.308-1.155-8.059c-2.379-7.036-7.106-16.592-15.184-18.08
		c-15.393-2.836-21.406,16.048-11.327,25.686c2.515,2.405,6.319-1.443,3.798-3.854c-4.395-4.202-5.712-12.127,0.639-15.566
		c6.135-3.323,11.149,2.158,13.901,7.007c5.446,9.598,4.162,17.404-0.14,27.142c-0.324,0.734-0.296,1.436-0.08,2.053
		c-5.652,9.654-11.302,19.31-16.955,28.963c2.016-14.903,1.713-29.533-5.463-43.896c-13.961-27.945-41.71-45.458-46.836-78.095
		c-0.424-2.698-3.696-2.347-4.835-0.432c-0.061-0.081-0.23-0.313-0.493-0.692c1.47-0.422,3.112-1.012,4.897-1.957
		c4.949-2.662,9.801-6.699,12.258-9.072c2.406-2.452,2.525-4.341,2.641-6.41c0.046-2.006-0.546-3.709-0.546-3.709
		s-0.557-1.719-2.513-2.795c-1.837-1.149-5.965-1.141-9.852,2.857c-3.918,3.996-5.592,9.912-7.229,14.212
		c-0.507,1.342-1.033,2.524-1.557,3.599c-0.524-1.075-1.05-2.257-1.557-3.599c-1.637-4.299-3.311-10.216-7.229-14.212
		c-3.887-3.998-8.014-4.006-9.852-2.857c-1.956,1.075-2.513,2.795-2.513,2.795s-0.592,1.703-0.546,3.709
		c0.115,2.069,0.234,3.958,2.641,6.41c2.457,2.373,7.309,6.41,12.257,9.072c1.785,0.945,3.427,1.535,4.897,1.957
		c-0.262,0.379-0.432,0.61-0.493,0.691c-1.139-1.915-4.411-2.266-4.835,0.432c-5.126,32.637-32.875,50.15-46.836,78.095
		c-7.175,14.363-7.48,28.994-5.464,43.896c-5.653-9.653-11.303-19.309-16.954-28.963c0.216-0.617,0.244-1.319-0.08-2.053
		c-4.302-9.738-5.586-17.544-0.14-27.142c2.752-4.849,7.765-10.331,13.901-7.007c6.35,3.44,5.034,11.364,0.639,15.566
		c-2.521,2.411,1.283,6.258,3.798,3.854c10.08-9.638,4.066-28.523-11.326-25.686c-8.078,1.488-12.805,11.044-15.184,18.08
		c-0.93,2.751-1.227,5.427-1.155,8.059c-3.307-5.668-6.593-11.347-9.886-17.023c0.011-0.087,0.011-0.151,0.023-0.24
		c0.327-2.456,1.548-5.954,4.211-8.459c2.554-2.447,6.523-3.663,12.462-5.51c5.871-1.914,12.374-4.271,19.005-7.728
		c13.235-7.012,21.294-15.084,26.888-25.487c2.715-5.178,4.771-10.908,5.904-17.658c1.034-6.685,1.147-14.787-2.763-23.119
		c3.612,8.899,1.932,16.979-0.501,22.75c-2.61,5.872-6.145,10-9.789,13.271c-7.437,6.366-15.156,9.953-27.044,16.285
		c-6.023,3.145-11.943,6.331-17.284,9.624c-5.265,3.092-11.493,7.637-13.644,13.542c-0.892,2.37-1.13,4.496-1.118,6.426
		c-3.997-6.909-7.971-13.83-11.932-20.759c0.458,0.186,0.964,0.293,1.558,0.175c15.401-3.053,25.718-2.337,37.506-13.673
		c11.517-11.077,17.287-26.832,19.614-42.293c2.421-16.087,1.145-32.72-2.938-48.448c-2.36-9.091-6.091-17.142-9.587-25.766
		c-3.975-8.371-7.135-17.026-9.479-25.965c-5.429-10.262-1.362-17.522,12.2-21.78c-1.801,2.981,2.884,5.686,4.685,2.705
		c7.942-13.147-23.319-23.459-25.579,0.422c-2.425,25.625,18.403,51.93,23.482,76.026c4.27,20.255,4.654,42.058-3.67,61.318
		c-6.646,15.376-16.572,22.85-29.177,27.412c20.59-12.196,30.63-39.502,27.651-63.577c-1.872-15.126-8.89-28.972-16.634-41.86
		c-5.799-9.65-12.348-18.83-18.133-28.489c-5.02-8.381-26.142-47.339-9.267-54.17c0.57,0.329,1.112,0.581,1.706,0.978
		c2.129,1.423,4.129-0.737,3.903-2.747c1.537-1.591,0.99-4.84-1.735-4.562c-1.08,0.11-2.016,0.336-2.965,0.553
		c-23.56-12.321-32.903,19.179-30.696,43.754c-5.45-11.707-8.764-24.473-9.046-39.666c-0.037-2.02-1.864-2.83-3.387-2.507
		c-0.839-1.755-4.186-2.06-5.207,0.4c-9.495,22.877-10.954,51.041-13.804,76.478c-0.422-5.622-1.93-11.164-4.672-16.351
		c-7.41-14.014-22.086-18.604-33.582-28.334c-1.195-1.012-2.611-0.757-3.585,0.001c-1.145,0.463-2.075,1.563-1.796,3.105
		c2.679,14.821-0.684,29.826,7.747,43.25c3.121,4.969,7.166,9.046,11.825,12.222c-23.455-10.251-48.575-23.069-73.134-26.285
		c-2.64-0.346-4.05,2.705-2.95,4.31c-1.041,1.157-1.252,3.144,0.478,4.186c13.017,7.84,22.416,17.093,29.829,27.667
		c-20.179-14.199-52.131-21.858-53.241,4.707c-0.662,0.713-1.326,1.411-1.961,2.291c-1.603,2.221,0.937,4.318,3.083,3.783
		c1.627,1.201,4.498,0.549,4.33-2.007c-0.047-0.712,0.006-1.308,0.006-1.966c14.354-11.197,37.532,26.574,42.28,35.111
		c5.472,9.84,10.148,20.102,15.606,29.949c7.29,13.151,15.771,26.151,27.935,35.336c19.359,14.617,48.027,19.576,68.884,7.842
		c-10.253,8.635-21.689,13.495-38.327,11.562c-20.842-2.421-39.532-13.655-54.938-27.48c-18.328-16.447-30.695-47.637-54.099-58.349
		c-21.812-9.983-28.512,22.246-13.155,21.941c3.482-0.069,3.482-5.478,0-5.409c10.469-9.616,18.789-9.508,24.962,0.325
		c6.569,6.5,12.485,13.564,17.747,21.191c5.721,7.34,10.828,14.596,17.521,21.185c11.579,11.401,25.345,20.823,40.488,26.769
		c14.554,5.715,31.083,8.597,46.434,4.16c15.712-4.54,20.25-13.834,30.594-25.644c0.399-0.456,0.56-0.947,0.628-1.437
		c4.02,6.895,8.027,13.797,12.012,20.713c-1.666-0.976-3.626-1.832-6.124-2.245c-6.189-1.09-13.24,2.032-18.55,5.045
		c-5.523,2.98-11.242,6.513-16.977,10.157c-11.428,7.129-18.394,12.021-27.626,15.278c-4.655,1.52-9.998,2.517-16.388,1.842
		c-6.214-0.779-14.052-3.364-19.952-10.942c5.262,7.553,12.335,11.507,18.64,13.953c6.412,2.394,12.403,3.478,18.244,3.716
		c11.806,0.357,22.826-2.586,35.516-10.542c6.31-4.014,11.602-8.467,16.195-12.594c4.569-4.219,7.608-7.048,11.003-8.037
		c3.501-1.054,7.141-0.362,9.431,0.583c0.083,0.033,0.139,0.066,0.219,0.1c3.269,5.689,6.545,11.375,9.799,17.073
		c-2.244-1.379-4.709-2.46-7.557-3.03c-7.282-1.458-17.922-2.142-23.25,4.11c-10.153,11.912,3.195,26.562,16.582,22.652
		c3.34-0.976,1.91-6.194-1.438-5.216c-5.837,1.705-13.358-1.117-13.162-8.336c0.19-6.975,7.444-8.577,13.019-8.535
		c11.035,0.083,17.153,5.098,23.436,13.693c0.473,0.648,1.095,0.974,1.737,1.096c5.535,9.722,11.072,19.442,16.605,29.164
		c-11.897-9.197-24.719-16.248-40.746-17.216c-31.182-1.883-60.222,13.393-91.05,1.513c-2.548-0.982-3.881,2.027-2.792,3.972
		c-0.096,0.012-0.358,0.04-0.79,0.077c0.356-1.464,0.627-3.249,0.699-5.215c0.169-5.617-0.901-11.837-1.728-15.151
		c-0.92-3.31-2.496-4.358-4.231-5.492c-1.715-1.043-3.486-1.382-3.486-1.382s-1.767-0.377-3.676,0.779
		c-1.914,1.017-3.971,4.595-2.452,9.961c1.501,5.391,5.788,9.799,8.693,13.366c0.908,1.11,1.669,2.157,2.338,3.148
		c-1.193-0.084-2.48-0.219-3.895-0.451c-4.542-0.732-10.503-2.24-15.922-0.845c-5.406,1.367-7.477,4.938-7.4,7.104
		c-0.047,2.231,1.164,3.573,1.164,3.573s1.178,1.364,2.939,2.328c1.85,0.935,3.545,1.776,6.871,0.918
		c3.283-0.941,9.206-3.125,13.985-6.08c1.711-1.074,3.043-2.2,4.143-3.263c0.197,0.417,0.313,0.679,0.352,0.773
		c-2.228,0.03-4.168,2.687-2.043,4.403c25.702,20.758,26.993,53.546,44.215,79.608c8.851,13.396,21.37,20.974,35.283,26.679
		c-11.187,0.069-22.373,0.134-33.56,0.201c-0.427-0.496-1.02-0.87-1.818-0.956c-10.584-1.143-17.987-3.935-23.576-13.45
		c-2.824-4.808-5.064-11.891,0.882-15.543c6.154-3.78,12.358,1.323,13.8,7.23c0.827,3.389,6.061,2.018,5.236-1.363
		c-3.307-13.548-22.668-17.783-27.908-3.034c-2.75,7.74,3.162,16.612,8.066,22.19c1.918,2.181,4.086,3.775,6.402,5.029
		c-6.561,0.03-13.123,0.037-19.684,0.05c-0.069-0.053-0.125-0.084-0.196-0.14c-1.964-1.511-4.383-4.318-5.221-7.876
		c-0.842-3.435,0.089-7.481,1.459-13.547c1.278-6.041,2.488-12.851,2.809-20.323c0.545-14.968-2.416-25.983-8.629-36.029
		c-3.127-4.94-7.061-9.586-12.341-13.942c-5.272-4.238-12.232-8.386-21.404-9.167c9.512,1.321,15.671,6.817,19.452,11.808
		c3.78,5.196,5.588,10.322,6.599,15.113c1.795,9.623,1.041,18.102,0.581,31.563c-0.288,6.789-0.488,13.508-0.307,19.781
		c0.045,6.105,0.867,13.772,4.905,18.587c1.563,1.904,3.242,3.231,4.877,4.182c-7.938,0.006-15.876-0.013-23.814-0.046
		c0.39-0.303,0.736-0.688,0.931-1.262c5.056-14.864,10.836-23.441,6.912-39.318c-3.834-15.513-14.594-28.387-26.82-38.133
		c-12.721-10.141-27.764-17.352-43.427-21.679c-9.053-2.501-17.891-3.297-27.108-4.581c-9.237-0.743-18.312-2.334-27.225-4.774
		c-11.602-0.429-15.856-7.581-12.762-21.455c1.682,3.05,6.366,0.345,4.685-2.705c-7.415-13.452-31.975,8.465-12.424,22.363
		c20.98,14.913,54.174,10.028,77.582,17.677c19.676,6.43,38.75,16.999,51.268,33.838c9.993,13.443,11.502,25.777,9.151,38.974
		c-0.267-23.93-18.895-46.277-41.233-55.734c-14.036-5.942-29.535-6.787-44.569-6.525c-11.257,0.197-22.481,1.279-33.739,1.459
		c-9.768,0.157-54.068-1.03-51.547-19.06c0.569-0.329,1.059-0.673,1.7-0.989c2.297-1.132,1.427-3.944-0.427-4.753
		c-0.61-2.127-3.697-3.278-4.818-0.778c-0.444,0.99-0.717,1.914-1.004,2.843c-22.452,14.243,0.157,38.086,22.544,48.462
		c-12.864-1.133-25.577-4.647-38.875-11.999c-1.768-0.978-3.383,0.199-3.865,1.679c-1.94-0.151-3.877,2.596-2.257,4.71
		c15.065,19.662,38.725,35.006,59.331,50.194c-5.08-2.446-10.634-3.911-16.498-4.13c-15.841-0.59-27.154,9.825-41.329,14.916
		c-1.474,0.53-1.962,1.884-1.791,3.107c-0.17,1.223,0.317,2.577,1.791,3.107c14.175,5.09,25.488,15.505,41.329,14.915
		c5.864-0.218,11.418-1.684,16.498-4.13c-20.606,15.188-44.266,30.532-59.331,50.194c-1.62,2.114,0.317,4.86,2.257,4.71
		c0.482,1.48,2.097,2.656,3.865,1.679c13.298-7.352,26.011-10.866,38.875-11.999c-22.387,10.376-44.995,34.218-22.544,48.461
		c0.287,0.929,0.559,1.854,1.004,2.844c1.122,2.499,4.208,1.348,4.818-0.779c1.854-0.809,2.724-3.621,0.427-4.753
		c-0.64-0.316-1.13-0.659-1.7-0.989c-2.521-18.03,41.779-19.216,51.547-19.06c11.258,0.181,22.483,1.263,33.739,1.459
		c15.034,0.263,30.533-0.582,44.569-6.525c22.338-9.457,40.967-31.805,41.233-55.734c2.352,13.197,0.843,25.531-9.151,38.974
		c-12.518,16.839-31.592,27.408-51.268,33.838c-23.407,7.649-56.602,2.764-77.582,17.677c-19.551,13.898,5.009,35.815,12.424,22.363
		c1.681-3.05-3.003-5.755-4.685-2.705c-3.093-13.875,1.161-21.026,12.762-21.455c8.913-2.44,17.989-4.031,27.225-4.774
		c9.217-1.284,18.055-2.08,27.108-4.581c15.663-4.328,30.706-11.539,43.427-21.679c12.226-9.746,22.986-22.62,26.82-38.133
		c3.924-15.877-1.856-24.453-6.912-39.318c-0.195-0.573-0.54-0.958-0.931-1.262c7.938-0.033,15.876-0.052,23.814-0.046
		c-1.635,0.951-3.314,2.277-4.877,4.182c-4.038,4.815-4.86,12.482-4.905,18.587c-0.181,6.273,0.019,12.992,0.307,19.781
		c0.46,13.462,1.214,21.94-0.581,31.563c-1.011,4.792-2.819,9.917-6.599,15.113c-3.781,4.992-9.939,10.487-19.452,11.808
		c9.171-0.781,16.132-4.929,21.404-9.167c5.28-4.357,9.214-9.002,12.341-13.942c6.212-10.046,9.173-21.061,8.629-36.029
		c-0.321-7.471-1.532-14.281-2.809-20.323c-1.369-6.067-2.301-10.113-1.459-13.548c0.838-3.559,3.257-6.365,5.221-7.876
		c0.071-0.055,0.127-0.087,0.196-0.14c6.561,0.014,13.123,0.02,19.685,0.05c-2.316,1.254-4.485,2.848-6.403,5.029
		c-4.904,5.578-10.816,14.45-8.066,22.19c5.24,14.748,24.601,10.514,27.908-3.034c0.825-3.38-4.409-4.751-5.236-1.363
		c-1.442,5.908-7.646,11.01-13.8,7.23c-5.946-3.652-3.706-10.735-0.882-15.543c5.589-9.515,12.991-12.306,23.576-13.45
		c0.798-0.086,1.391-0.461,1.818-0.957c11.187,0.067,22.373,0.133,33.56,0.202c-13.914,5.705-26.432,13.284-35.283,26.679
		c-17.221,26.063-18.513,58.851-44.215,79.608c-2.125,1.716-0.185,4.374,2.043,4.403c-0.039,0.094-0.156,0.356-0.352,0.772
		c-1.1-1.063-2.432-2.189-4.143-3.263c-4.78-2.955-10.702-5.138-13.985-6.08c-3.326-0.858-5.022-0.017-6.871,0.918
		c-1.761,0.963-2.939,2.328-2.939,2.328s-1.21,1.342-1.164,3.573c-0.077,2.166,1.994,5.737,7.4,7.104
		c5.419,1.396,11.38-0.113,15.922-0.845c1.416-0.231,2.702-0.367,3.895-0.451c-0.669,0.991-1.43,2.038-2.338,3.148
		c-2.905,3.568-7.192,7.975-8.693,13.366c-1.519,5.365,0.538,8.944,2.452,9.961c1.909,1.156,3.676,0.779,3.676,0.779
		s1.771-0.338,3.486-1.382c1.734-1.134,3.311-2.182,4.231-5.492c0.827-3.314,1.897-9.534,1.728-15.151
		c-0.073-1.966-0.343-3.752-0.699-5.216c0.432,0.037,0.694,0.065,0.79,0.077c-1.089,1.944,0.243,4.953,2.792,3.972
		c30.828-11.88,59.868,3.396,91.05,1.513c16.027-0.968,28.849-8.019,40.746-17.216c-5.533,9.722-11.07,19.442-16.605,29.164
		c-0.643,0.122-1.264,0.448-1.737,1.096c-6.282,8.595-12.401,13.61-23.436,13.693c-5.575,0.042-12.829-1.56-13.019-8.535
		c-0.196-7.22,7.324-10.042,13.162-8.336c3.348,0.978,4.778-4.241,1.438-5.216c-13.386-3.91-26.734,10.74-16.582,22.652
		c5.328,6.251,15.967,5.567,23.25,4.109c2.848-0.57,5.313-1.651,7.557-3.03c-3.254,5.698-6.53,11.383-9.799,17.073
		c-0.08,0.034-0.136,0.066-0.219,0.1c-2.291,0.945-5.931,1.637-9.431,0.583c-3.396-0.988-6.434-3.818-11.003-8.037
		c-4.593-4.127-9.885-8.581-16.195-12.594c-12.691-7.956-23.71-10.899-35.516-10.542c-5.842,0.238-11.832,1.322-18.244,3.716
		c-6.306,2.446-13.379,6.4-18.64,13.953c5.9-7.578,13.738-10.163,19.952-10.942c6.39-0.675,11.733,0.322,16.388,1.842
		c9.231,3.257,16.197,8.149,27.626,15.278c5.735,3.644,11.454,7.177,16.977,10.157c5.31,3.014,12.36,6.135,18.55,5.045
		c2.498-0.413,4.459-1.269,6.125-2.245c-3.985,6.916-7.992,13.818-12.012,20.714c-0.068-0.49-0.228-0.981-0.628-1.437
		c-10.344-11.811-14.883-21.104-30.594-25.644c-15.352-4.436-31.881-1.555-46.434,4.16c-15.143,5.947-28.909,15.369-40.488,26.769
		c-6.693,6.589-11.8,13.845-17.521,21.185c-5.262,7.628-11.178,14.692-17.747,21.191c-6.173,9.833-14.493,9.941-24.962,0.325
		c3.482,0.069,3.482-5.34,0-5.409c-15.357-0.305-8.656,31.924,13.155,21.941c23.404-10.712,35.771-41.902,54.099-58.349
		c15.407-13.825,34.096-25.059,54.938-27.48c16.638-1.933,28.074,2.927,38.327,11.562c-20.857-11.734-49.525-6.775-68.884,7.842
		c-12.164,9.184-20.646,22.184-27.935,35.336c-5.458,9.847-10.133,20.109-15.606,29.949c-4.748,8.537-27.925,46.308-42.28,35.111
		c0-0.658-0.053-1.254-0.006-1.966c0.168-2.555-2.703-3.208-4.33-2.007c-2.146-0.535-4.686,1.562-3.083,3.783
		c0.635,0.88,1.299,1.578,1.961,2.291c1.11,26.565,33.061,18.906,53.241,4.707c-7.414,10.574-16.813,19.827-29.829,27.667
		c-1.73,1.042-1.519,3.03-0.478,4.186c-1.1,1.605,0.31,4.656,2.95,4.31c24.56-3.216,49.679-16.034,73.134-26.285
		c-4.658,3.177-8.704,7.253-11.825,12.222c-8.432,13.423-5.069,28.428-7.747,43.25c-0.279,1.542,0.651,2.642,1.796,3.105
		c0.974,0.758,2.389,1.013,3.585,0.001c11.496-9.73,26.172-14.32,33.582-28.334c2.743-5.187,4.251-10.729,4.672-16.351
		c2.85,25.438,4.308,53.601,13.804,76.478c1.021,2.459,4.368,2.155,5.207,0.4c1.523,0.323,3.349-0.488,3.387-2.507
		c0.282-15.193,3.595-27.959,9.046-39.666c-2.207,24.575,7.137,56.075,30.697,43.754c0.948,0.216,1.885,0.442,2.964,0.553
		c2.725,0.278,3.272-2.971,1.735-4.562c0.226-2.01-1.774-4.17-3.903-2.746c-0.593,0.397-1.136,0.649-1.705,0.978
		c-16.875-6.831,4.247-45.79,9.267-54.171c5.785-9.659,12.335-18.839,18.133-28.489c7.744-12.889,14.762-26.734,16.634-41.86
		c2.979-24.074-7.06-51.38-27.65-63.576c12.604,4.562,22.531,12.035,29.176,27.411c8.324,19.26,7.94,41.063,3.67,61.318
		c-5.079,24.096-25.907,50.401-23.482,76.026c2.26,23.881,33.521,13.569,25.579,0.422c-1.801-2.981-6.486-0.276-4.685,2.705
		c-13.562-4.258-17.629-11.518-12.2-21.78c2.344-8.939,5.504-17.594,9.479-25.965c3.496-8.624,7.226-16.676,9.587-25.766
		c4.083-15.728,5.36-32.361,2.938-48.448c-2.327-15.461-8.097-31.216-19.614-42.293c-11.788-11.337-22.105-10.62-37.506-13.673
		c-0.594-0.118-1.1-0.011-1.558,0.175c3.962-6.929,7.936-13.85,11.932-20.759c-0.012,1.93,0.226,4.056,1.118,6.426
		c2.151,5.905,8.379,10.45,13.644,13.542c5.342,3.293,11.261,6.479,17.284,9.624c11.888,6.332,19.608,9.919,27.044,16.285
		c3.644,3.271,7.178,7.4,9.789,13.271c2.433,5.77,4.113,13.851,0.501,22.75c3.91-8.333,3.798-16.435,2.763-23.12
		c-1.133-6.75-3.189-12.48-5.904-17.658c-5.594-10.402-13.652-18.474-26.888-25.487c-6.631-3.458-13.134-5.814-19.005-7.728
		c-5.939-1.848-9.908-3.064-12.462-5.51c-2.662-2.505-3.883-6.003-4.211-8.459c-0.013-0.089-0.012-0.153-0.023-0.24
		c3.293-5.676,6.579-11.355,9.886-17.023c-0.072,2.633,0.224,5.308,1.155,8.059c2.379,7.036,7.106,16.592,15.184,18.08
		c15.393,2.837,21.406-16.048,11.326-25.686c-2.515-2.405-6.319,1.443-3.798,3.854c4.395,4.202,5.712,12.127-0.639,15.566
		c-6.135,3.323-11.149-2.158-13.901-7.007c-5.446-9.598-4.162-17.404,0.14-27.142c0.324-0.734,0.296-1.436,0.08-2.053
		c5.652-9.654,11.302-19.31,16.954-28.963c-2.016,14.902-1.712,29.532,5.464,43.896c13.96,27.945,41.71,45.458,46.836,78.095
		c0.424,2.698,3.696,2.347,4.835,0.432c0.061,0.081,0.23,0.313,0.493,0.691c-1.47,0.422-3.112,1.012-4.897,1.957
		c-4.949,2.662-9.801,6.699-12.257,9.072c-2.407,2.452-2.526,4.341-2.641,6.41c-0.046,2.006,0.546,3.709,0.546,3.709
		s0.557,1.719,2.513,2.795c1.838,1.149,5.965,1.141,9.852-2.857c3.918-3.996,5.592-9.912,7.229-14.211
		c0.507-1.342,1.033-2.524,1.557-3.599c0.524,1.075,1.05,2.257,1.557,3.599c1.637,4.299,3.311,10.216,7.229,14.211
		c3.887,3.998,8.015,4.006,9.852,2.857c1.956-1.075,2.513-2.795,2.513-2.795s0.592-1.703,0.546-3.709
		c-0.115-2.069-0.234-3.958-2.641-6.41c-2.457-2.373-7.309-6.41-12.258-9.072c-1.786-0.945-3.427-1.535-4.897-1.957
		c0.262-0.379,0.432-0.611,0.493-0.692c1.139,1.915,4.411,2.267,4.835-0.432c5.126-32.637,32.875-50.15,46.836-78.095
		c7.175-14.363,7.479-28.993,5.463-43.896c5.653,9.653,11.303,19.309,16.955,28.963c-0.216,0.617-0.244,1.319,0.08,2.053
		c4.302,9.738,5.586,17.544,0.14,27.142c-2.751,4.849-7.765,10.331-13.901,7.007c-6.35-3.44-5.034-11.364-0.639-15.566
		c2.521-2.411-1.283-6.258-3.798-3.854c-10.08,9.638-4.066,28.523,11.327,25.686c8.078-1.488,12.805-11.044,15.184-18.08
		c0.93-2.751,1.227-5.426,1.155-8.059c3.307,5.667,6.593,11.346,9.885,17.022c-0.011,0.087-0.011,0.151-0.023,0.24
		c-0.327,2.456-1.548,5.954-4.211,8.459c-2.554,2.447-6.523,3.663-12.462,5.51c-5.871,1.914-12.374,4.271-19.005,7.728
		c-13.235,7.012-21.294,15.084-26.887,25.487c-2.715,5.178-4.771,10.908-5.904,17.658c-1.034,6.685-1.146,14.787,2.763,23.12
		c-3.612-8.899-1.932-16.98,0.5-22.75c2.61-5.872,6.145-10,9.789-13.271c7.436-6.366,15.156-9.953,27.044-16.285
		c6.023-3.145,11.942-6.331,17.284-9.624c5.265-3.092,11.493-7.637,13.644-13.542c0.892-2.37,1.13-4.496,1.118-6.426
		c3.997,6.909,7.971,13.83,11.932,20.759c-0.458-0.186-0.963-0.293-1.558-0.175c-15.401,3.053-25.718,2.337-37.506,13.673
		c-11.517,11.077-17.287,26.832-19.614,42.293c-2.421,16.087-1.145,32.72,2.938,48.448c2.36,9.091,6.09,17.142,9.587,25.766
		c3.975,8.371,7.135,17.026,9.478,25.965c5.429,10.262,1.363,17.522-12.2,21.78c1.801-2.981-2.884-5.686-4.685-2.705
		c-7.942,13.147,23.319,23.458,25.579-0.422c2.425-25.625-18.403-51.93-23.482-76.026c-4.27-20.255-4.654-42.058,3.67-61.318
		c6.645-15.376,16.572-22.849,29.176-27.411c-20.59,12.196-30.629,39.502-27.65,63.576c1.872,15.127,8.889,28.972,16.634,41.86
		c5.799,9.65,12.348,18.83,18.133,28.489c5.019,8.381,26.142,47.34,9.267,54.171c-0.57-0.328-1.112-0.581-1.705-0.978
		c-2.129-1.423-4.129,0.736-3.903,2.746c-1.537,1.591-0.99,4.84,1.735,4.562c1.08-0.11,2.016-0.336,2.965-0.553
		c23.561,12.321,32.904-19.179,30.697-43.754c5.45,11.707,8.764,24.473,9.046,39.666c0.038,2.019,1.864,2.83,3.386,2.507
		c0.84,1.755,4.187,2.06,5.208-0.4c9.495-22.878,10.954-51.04,13.804-76.478c0.422,5.622,1.93,11.164,4.672,16.351
		c7.409,14.014,22.085,18.604,33.581,28.334c1.196,1.012,2.612,0.757,3.585-0.002c1.144-0.464,2.074-1.563,1.796-3.105
		c-2.679-14.821,0.684-29.826-7.747-43.25c-3.121-4.969-7.167-9.046-11.825-12.222c23.455,10.251,48.575,23.069,73.135,26.285
		c2.641,0.346,4.051-2.706,2.95-4.31c1.041-1.157,1.252-3.144-0.478-4.186c-13.017-7.84-22.416-17.093-29.829-27.667
		c20.179,14.2,52.132,21.859,53.241-4.707c0.661-0.713,1.325-1.411,1.961-2.291c1.603-2.221-0.936-4.318-3.083-3.783
		c-1.627-1.201-4.498-0.549-4.33,2.007c0.047,0.712-0.006,1.308-0.006,1.966c-14.354,11.198-37.531-26.573-42.28-35.111
		c-5.472-9.84-10.148-20.102-15.606-29.949c-7.29-13.151-15.771-26.151-27.935-35.336c-19.359-14.617-48.027-19.576-68.884-7.842
		c10.253-8.635,21.689-13.496,38.328-11.562c20.842,2.421,39.532,13.655,54.938,27.48c18.328,16.446,30.695,47.637,54.099,58.349
		c21.811,9.983,28.512-22.245,13.155-21.941c-3.482,0.069-3.482,5.478,0,5.409c-10.469,9.616-18.789,9.508-24.962-0.325
		c-6.57-6.5-12.485-13.563-17.747-21.191c-5.72-7.34-10.828-14.596-17.521-21.185c-11.579-11.4-25.346-20.823-40.488-26.769
		c-14.553-5.715-31.082-8.597-46.434-4.16c-15.712,4.54-20.25,13.834-30.594,25.644c-0.399,0.456-0.56,0.948-0.628,1.437
		c-4.019-6.896-8.027-13.798-12.012-20.714c1.666,0.976,3.626,1.832,6.125,2.245c6.189,1.09,13.24-2.031,18.55-5.045
		c5.523-2.98,11.242-6.513,16.977-10.157c11.428-7.129,18.394-12.021,27.626-15.278c4.655-1.52,9.998-2.517,16.388-1.842
		c6.214,0.779,14.052,3.364,19.952,10.942c-5.262-7.553-12.335-11.507-18.641-13.953c-6.412-2.394-12.403-3.478-18.245-3.716
		c-11.806-0.357-22.825,2.586-35.516,10.542c-6.31,4.014-11.602,8.467-16.196,12.594c-4.569,4.219-7.607,7.048-11.003,8.037
		c-3.501,1.054-7.141,0.362-9.432-0.583c-0.083-0.033-0.139-0.066-0.219-0.1c-3.269-5.689-6.544-11.375-9.799-17.073
		c2.244,1.379,4.709,2.46,7.557,3.03c7.282,1.458,17.922,2.142,23.25-4.109c10.153-11.912-3.195-26.563-16.582-22.652
		c-3.34,0.976-1.91,6.194,1.438,5.216c5.837-1.705,13.358,1.117,13.161,8.336c-0.19,6.975-7.444,8.576-13.019,8.535
		c-11.035-0.083-17.153-5.098-23.435-13.693c-0.473-0.648-1.095-0.974-1.738-1.096c-5.535-9.722-11.072-19.442-16.605-29.164
		c11.898,9.197,24.72,16.249,40.746,17.216c31.182,1.883,60.222-13.393,91.05-1.513c2.549,0.982,3.881-2.027,2.792-3.972
		c0.097-0.012,0.359-0.04,0.791-0.077c-0.356,1.464-0.627,3.249-0.7,5.216c-0.169,5.617,0.901,11.837,1.728,15.151
		c0.92,3.31,2.496,4.358,4.231,5.492c1.715,1.043,3.486,1.382,3.486,1.382s1.767,0.377,3.676-0.779
		c1.914-1.017,3.972-4.595,2.452-9.961c-1.501-5.391-5.788-9.799-8.693-13.366c-0.908-1.11-1.669-2.157-2.338-3.148
		c1.193,0.084,2.479,0.219,3.895,0.451c4.542,0.732,10.503,2.24,15.922,0.845c5.406-1.367,7.477-4.938,7.401-7.104
		c0.047-2.231-1.164-3.573-1.164-3.573s-1.178-1.364-2.939-2.328c-1.85-0.935-3.545-1.776-6.871-0.918
		c-3.283,0.941-9.205,3.125-13.985,6.08c-1.711,1.074-3.043,2.201-4.143,3.263c-0.197-0.417-0.313-0.679-0.352-0.772
		c2.228-0.029,4.168-2.688,2.043-4.403c-25.702-20.758-26.994-53.546-44.215-79.608c-8.851-13.396-21.369-20.974-35.283-26.679
		c11.187-0.069,22.373-0.134,33.56-0.202c0.427,0.496,1.02,0.871,1.818,0.957c10.584,1.143,17.986,3.935,23.575,13.45
		c2.824,4.808,5.064,11.891-0.882,15.543c-6.154,3.78-12.358-1.323-13.8-7.23c-0.827-3.389-6.061-2.018-5.236,1.363
		c3.307,13.548,22.668,17.783,27.908,3.034c2.75-7.74-3.162-16.612-8.066-22.19c-1.918-2.181-4.086-3.775-6.402-5.029
		c6.562-0.03,13.123-0.037,19.685-0.05c0.069,0.053,0.125,0.085,0.196,0.14c1.963,1.512,4.383,4.318,5.221,7.876
		c0.842,3.435-0.089,7.481-1.459,13.548c-1.278,6.041-2.488,12.851-2.81,20.323c-0.545,14.968,2.417,25.983,8.629,36.029
		c3.127,4.94,7.061,9.585,12.341,13.942c5.271,4.238,12.232,8.386,21.404,9.167c-9.512-1.321-15.671-6.816-19.452-11.808
		c-3.78-5.196-5.588-10.322-6.599-15.113c-1.795-9.623-1.041-18.102-0.581-31.563c0.288-6.789,0.489-13.508,0.308-19.781
		c-0.045-6.105-0.867-13.772-4.906-18.587c-1.563-1.904-3.242-3.231-4.877-4.182c7.938-0.006,15.876,0.013,23.814,0.046
		c-0.39,0.303-0.736,0.688-0.931,1.262c-5.056,14.864-10.835,23.441-6.911,39.318c3.834,15.513,14.594,28.387,26.82,38.133
		c12.721,10.141,27.764,17.352,43.427,21.679c9.053,2.501,17.891,3.297,27.108,4.581c9.237,0.743,18.312,2.334,27.226,4.774
		c11.602,0.429,15.855,7.581,12.762,21.455c-1.681-3.05-6.366-0.346-4.685,2.705c7.414,13.452,31.975-8.466,12.424-22.363
		c-20.979-14.913-54.174-10.028-77.581-17.677c-19.677-6.43-38.75-16.999-51.268-33.838c-9.993-13.443-11.502-25.777-9.151-38.974
		c0.266,23.93,18.895,46.278,41.233,55.735c14.036,5.942,29.535,6.788,44.569,6.525c11.257-0.197,22.481-1.279,33.739-1.459
		c9.768-0.156,54.068,1.03,51.547,19.06c-0.57,0.329-1.06,0.673-1.7,0.989c-2.297,1.132-1.426,3.944,0.427,4.753
		c0.609,2.127,3.696,3.278,4.818,0.779c0.444-0.99,0.717-1.915,1.004-2.844c22.451-14.243-0.157-38.085-22.544-48.461
		c12.864,1.133,25.577,4.647,38.875,11.999c1.768,0.978,3.383-0.199,3.865-1.679c1.94,0.151,3.877-2.596,2.258-4.71
		C859.685,494.568,836.025,479.223,815.419,464.035z M867.483,514.014c-23.309-11.828-46.442-14.096-72.513-9.685
		c-20.574,3.481-41.928,10.254-62.838,5.021c-18.76-4.695-32.536-17.832-40.045-34.461c1.511,1.526,3.106,3.005,4.797,4.439
		c8.092,6.861,19.167,15.981,29.982,17.391c4.82,0.628,10.614-0.627,12.161-6.074c0.309-1.087,0.334-2.093,0.249-3.064
		c11.137,7.1,26.047,15.724,35.106,7.587c5.095-4.577,4.239-9.44,1.053-13.756c10.368,3.131,21.186,3.923,30.8-2.467
		c3.17-2.107,6.668-5.368,7.968-9.192C832.699,483.246,853.079,497.067,867.483,514.014z M808.237,434.965
		c-1.939,1.455-3.898,2.908-5.758,4.368c-1.227,0.962-1.083,2.238-0.346,3.179c-1.852,1.371-3.785,2.51-5.309,3.328
		c-0.026,0.014-0.036,0.036-0.061,0.051c-10.065-5.894-20.531-12.491-31.483-17.457c8.385-3.762,17.395-7.369,26.677-6.45
		c5.399,0.535,12.092,2.821,15.252,7.536C808.471,431.402,808.679,433.233,808.237,434.965z M807.209,470.767
		c-3.16,4.715-9.853,7.001-15.252,7.536c-9.282,0.919-18.292-2.688-26.677-6.45c10.952-4.966,21.417-11.563,31.483-17.457
		c0.025,0.015,0.035,0.037,0.061,0.051c1.524,0.818,3.456,1.958,5.309,3.328c-0.737,0.94-0.88,2.217,0.347,3.179
		c1.86,1.46,3.819,2.913,5.758,4.368C808.679,467.054,808.471,468.885,807.209,470.767z M727.116,481.543
		c-0.898,8.333-3.808,10.334-8.731,6.001c-1.425-0.809-2.849-1.618-4.274-2.427c-4.16-2.503-7.952-5.257-11.715-8.31
		c-5.294-4.294-9.984-8.823-13.212-14.456c11.396,7.475,23.523,14.069,36.75,16.248
		C725.623,479.655,725.872,480.844,727.116,481.543z M752.02,450.143c-14.248,6.671-29.43,7.849-44.502,0
		C722.591,442.295,737.773,443.472,752.02,450.143z M701.095,452.631c0.113,0.095,0.179,0.21,0.315,0.294
		c18.88,11.576,38.606,9.884,56.523,0.306c2.528,1.473,5.022,3.102,7.473,4.882c2.811,2.042,5.475-2.67,2.68-4.7
		c-1.595-1.159-3.217-2.235-4.85-3.269c1.633-1.035,3.255-2.11,4.85-3.269c2.795-2.031,0.131-6.742-2.68-4.7
		c-2.451,1.78-4.945,3.409-7.472,4.882c-17.917-9.579-37.643-11.271-56.523,0.306c-0.136,0.084-0.202,0.199-0.315,0.294
		c-5.601,0.06-11.202,0.067-16.802,0.1c0.087-0.06,0.173-0.12,0.26-0.18c0.042-0.02,0.074-0.057,0.115-0.08
		c18.36-12.698,37.95-24.848,61.361-19.917c16.709,3.52,32.407,13.798,47.278,22.563c-14.871,8.765-30.568,19.044-47.278,22.563
		c-23.411,4.931-43-7.218-61.361-19.917c-0.041-0.022-0.073-0.059-0.115-0.08c-0.087-0.06-0.173-0.12-0.26-0.18
		C689.893,452.564,695.494,452.571,701.095,452.631z M740.728,479.085c5.952-0.637,11.755-2.219,17.443-4.326
		c3.555,1.636,8.65,3.912,10.599,6.848c1.169,9.673-1.486,13.092-7.967,10.255c-1.977-0.548-3.881-1.283-5.713-2.204
		c-6.468-2.827-12.402-6.719-18.488-10.298C737.966,479.32,739.34,479.233,740.728,479.085z M768.77,418.68
		c-1.948,2.935-7.044,5.212-10.599,6.848c-5.688-2.106-11.491-3.689-17.443-4.326c-1.388-0.149-2.762-0.235-4.126-0.275
		c6.086-3.579,12.02-7.47,18.488-10.298c1.832-0.921,3.736-1.656,5.713-2.204C767.283,405.588,769.939,409.007,768.77,418.68z
		 M725.935,421.687c-13.227,2.179-25.354,8.772-36.75,16.248c3.228-5.633,7.918-10.161,13.212-14.456
		c3.764-3.053,7.555-5.806,11.715-8.31c1.424-0.809,2.849-1.618,4.274-2.427c4.922-4.332,7.832-2.332,8.731,6.001
		C725.872,419.443,725.623,420.632,725.935,421.687z M841.177,438.325c9.176,2.135,17.125,7.804,25.66,11.818
		c-8.535,4.014-16.484,9.683-25.66,11.818c-13.162,3.063-26.422-2.228-35.384-11.818
		C814.755,440.554,828.015,435.263,841.177,438.325z M814.204,430.535c-1.3-3.824-4.798-7.085-7.968-9.192
		c-9.614-6.389-20.433-5.597-30.8-2.467c3.185-4.316,4.042-9.179-1.053-13.756c-9.058-8.138-23.968,0.487-35.106,7.587
		c0.086-0.971,0.06-1.977-0.249-3.064c-1.547-5.448-7.341-6.703-12.161-6.074c-10.815,1.41-21.89,10.531-29.982,17.391
		c-1.691,1.434-3.286,2.913-4.797,4.439c7.509-16.629,21.285-29.766,40.045-34.461c20.911-5.234,42.265,1.54,62.838,5.02
		c26.07,4.41,49.203,2.143,72.513-9.685C853.079,403.22,832.699,417.041,814.204,430.535z M755.057,369.835
		c19.898-0.49,39.79,3.037,59.68,0.997c13.1-1.343,35.707-6.105,38.247-19.766c8.929,10.622-6.237,24.862-15.701,31.055
		c-8.926,5.842-17.724,10.115-28.595,9.14c-0.538-0.048-0.96,0.073-1.329,0.26c-8.742-0.757-17.728-2.183-27.18-3.91
		c-13.634-2.491-27.569-5.143-41.479-3.302c-28.547,3.778-49.24,24.63-55.995,51.608
		C671.433,394.841,721.607,370.658,755.057,369.835z M568.502,166.478c0.118-2.047,0.434-4.063,0.947-6.049
		c0.784-7.031,5.072-7.621,12.865-1.772c1.579,3.177,0.992,8.701,0.633,12.601c-4.669,3.873-8.942,8.108-12.47,12.945
		c-0.822,1.128-1.584,2.274-2.301,3.435C568.12,180.578,567.717,173.493,568.502,166.478z M616.157,132.665
		c0.289,2.391,0.566,4.799,0.898,7.124c0.219,1.533,1.381,2.049,2.556,1.892c0.26,2.288,0.305,4.531,0.252,6.259
		c-0.001,0.03,0.013,0.049,0.013,0.079c-10.137,5.77-21.083,11.534-30.859,18.536c0.934-9.143,2.316-18.75,7.752-26.328
		c3.163-4.409,8.489-9.062,14.152-9.44C613.196,130.634,614.875,131.402,616.157,132.665z M646.643,151.41
		c2.503,5.094,1.137,12.033-1.1,16.976c-3.845,8.497-11.474,14.497-18.924,19.877c1.176-11.967,0.694-24.33,0.622-35.993
		c0.025-0.015,0.049-0.012,0.075-0.027c1.47-0.91,3.435-1.993,5.547-2.911c0.452,1.095,1.479,1.844,2.916,1.267
		c2.18-0.876,4.404-1.839,6.619-2.784C644.133,148.294,645.637,149.364,646.643,151.41z M565.256,246.353
		c-0.009-0.105-0.017-0.21-0.026-0.315c0.004-0.046-0.013-0.092-0.011-0.139c-1.817-22.249-2.544-45.289,13.432-63.099
		c11.403-12.711,28.154-21.167,43.18-29.662c0.155,17.261,1.208,35.995-4.099,52.226c-7.435,22.74-27.751,33.63-47.928,43.181
		c-0.04,0.024-0.089,0.034-0.127,0.06c-0.095,0.045-0.19,0.09-0.285,0.135c2.829-4.834,5.635-9.681,8.488-14.501
		c0.139-0.051,0.271-0.05,0.412-0.126c19.465-10.562,27.863-28.491,28.526-48.797c2.54-1.453,5.198-2.798,7.965-4.03
		c3.174-1.413,0.426-6.076-2.73-4.671c-1.801,0.802-3.543,1.669-5.256,2.566c-0.08-1.932-0.2-3.874-0.406-5.835
		c-0.361-3.436-5.773-3.485-5.41-0.029c0.316,3.012,0.48,5.987,0.492,8.913c-17.254,10.727-28.582,26.965-27.997,49.103
		c0.004,0.16,0.071,0.275,0.096,0.42C570.822,236.633,568.028,241.486,565.256,246.353z M601.188,188.893
		c-1.346,15.675-7.917,29.411-22.251,38.54C579.676,210.456,588.286,197.896,601.188,188.893z M612.744,225.657
		c0.755,0.834,1.931,1.248,3.184,0.504c6.768,4.945,7.045,8.465,0.832,10.561c-1.413,0.829-2.826,1.659-4.238,2.488
		c-4.248,2.351-8.528,4.258-13.054,5.991c-6.385,2.445-12.671,4.246-19.184,4.214C592.476,243.277,604.232,236.04,612.744,225.657z
		 M618.513,217.01c0.702-1.285,1.485-2.495,2.093-3.866c2.424-5.473,3.956-11.29,4.976-17.269c3.194-2.26,7.714-5.535,11.23-5.755
		c8.962,3.824,10.595,7.833,4.898,12.027c-1.464,1.438-3.052,2.719-4.766,3.845C631.177,210.242,624.738,213.469,618.513,217.01z
		 M563.501,197.256c-4.727,12.544-5.08,26.343-4.304,39.95c-3.264-5.611-4.841-11.938-5.913-18.669
		c-0.762-4.786-1.251-9.446-1.339-14.301c0.012-1.638,0.024-3.276,0.036-4.915c-1.291-6.429,1.896-7.949,9.563-4.56
		C561.526,196.188,562.432,196.998,563.501,197.256z M680.515,169.259c4.591-9.902,12.691-15.384,22.213-20.194
		c10.096-5.099,30.011-11.114,34.746,1.931c-13.101-4.631-28.528,12.566-36.242,23.239c-11.711,16.205-18.603,35.195-28.976,52.183
		c-17.438,28.557-63.468,59.917-93.406,29.617c26.74,7.639,55.146,0.144,72.691-22.689c8.549-11.126,13.22-24.519,17.88-37.573
		c3.231-9.049,6.488-17.544,10.204-25.493C679.971,170.054,680.288,169.748,680.515,169.259z M669.588,178.791
		c-7.273,19.557-12.083,41.437-27.071,56.93c-13.446,13.898-31.71,19.26-49.865,17.449c2.077-0.546,4.154-1.187,6.241-1.935
		c9.987-3.577,23.424-8.609,30.052-17.27c2.954-3.86,4.765-9.505,0.82-13.568c-0.787-0.811-1.646-1.337-2.529-1.748
		c11.717-6.096,26.642-14.695,24.124-26.609c-1.416-6.701-6.056-8.391-11.387-7.79c7.895-7.414,13.99-16.386,13.264-27.908
		c-0.24-3.799-1.316-8.459-3.977-11.497c20.934-9.271,43.093-20.01,64.972-24.01C692.335,135.108,678.804,154.008,669.588,178.791z
		 M635.531,105.772c6.437-6.879,15.322-10.928,23.065-16.313c-0.792,9.399,0.144,19.117-2.595,28.132
		c-3.929,12.93-15.14,21.768-27.927,24.735C624.25,129.769,626.298,115.64,635.531,105.772z M603.605,56.965
		c7.475,20.947,9.254,45.507,11.692,68.272c-3.961-0.786-8.535,0.612-11.945,2.304c-10.341,5.132-15.064,14.897-17.536,25.441
		c-2.145-4.917-5.928-8.09-12.44-5.966c-11.577,3.776-11.562,21.001-10.982,34.197c-0.798-0.56-1.683-1.041-2.778-1.317
		c-5.491-1.384-9.475,3.006-11.341,7.494c-4.186,10.071-1.825,24.223,0.071,34.661c0.396,2.181,0.88,4.301,1.445,6.374
		c-10.647-14.817-15.135-33.316-9.822-51.91c5.923-20.726,22.466-35.832,35.767-51.909
		C592.591,104.233,602.194,83.065,603.605,56.965z M533.156,146.11c9.525-17.477,22.525-32.941,30.704-51.185
		c5.387-12.016,12.566-33.975,2.005-43.006c13.664-2.422,18.413,17.832,19.045,29.125c0.596,10.65-0.102,20.407-6.382,29.334
		c-0.31,0.441-0.416,0.868-0.439,1.281c-5.026,7.193-10.754,14.261-16.976,21.583c-8.975,10.562-18.238,21.305-23.599,34.271
		c-11.001,26.612-3.289,54.959,16.697,74.297C513.001,231.032,517.144,175.49,533.156,146.11z M509.068,348.45
		c-0.108,0.19-0.216,0.381-0.325,0.571c-0.003,0.003-0.006,0.005-0.009,0.008c0.001-0.004,0.001-0.008,0.002-0.011
		C508.846,348.828,508.957,348.638,509.068,348.45z M254.067,151.41c1.006-2.046,2.51-3.117,4.245-3.595
		c2.215,0.945,4.439,1.909,6.619,2.784c1.437,0.577,2.465-0.172,2.916-1.267c2.112,0.918,4.077,2.001,5.547,2.911
		c0.025,0.016,0.049,0.013,0.075,0.027c-0.071,11.663-0.553,24.026,0.622,35.993c-7.45-5.38-15.079-11.38-18.924-19.877
		C252.93,163.444,251.564,156.504,254.067,151.41z M283.655,139.79c0.332-2.326,0.609-4.734,0.898-7.125
		c1.282-1.263,2.961-2.03,5.235-1.878c5.663,0.379,10.99,5.032,14.153,9.44c5.436,7.578,6.818,17.185,7.752,26.328
		c-9.776-7.001-20.723-12.766-30.86-18.535c0-0.029,0.015-0.049,0.014-0.079c-0.053-1.728-0.008-3.971,0.252-6.259
		C282.274,141.839,283.436,141.323,283.655,139.79z M331.033,248.606c-0.038-0.026-0.086-0.035-0.125-0.059
		c-20.177-9.551-40.494-20.441-47.929-43.182c-5.307-16.231-4.254-34.965-4.099-52.225c15.026,8.496,31.777,16.951,43.18,29.662
		c15.976,17.809,15.249,40.85,13.431,63.099c0.001,0.046-0.015,0.092-0.011,0.139c-0.009,0.105-0.017,0.21-0.026,0.315
		c-2.771-4.867-5.566-9.72-8.314-14.601c0.026-0.145,0.092-0.26,0.097-0.42c0.585-22.139-10.743-38.376-27.997-49.103
		c0.012-2.926,0.176-5.9,0.492-8.913c0.363-3.456-5.049-3.407-5.41,0.029c-0.206,1.961-0.327,3.903-0.406,5.835
		c-1.713-0.897-3.455-1.764-5.256-2.566c-3.156-1.406-5.904,3.257-2.73,4.671c2.767,1.232,5.425,2.578,7.965,4.03
		c0.663,20.306,9.061,38.235,28.526,48.797c0.141,0.076,0.273,0.076,0.412,0.126c2.852,4.82,5.658,9.667,8.488,14.501
		C331.223,248.696,331.128,248.651,331.033,248.606z M321.773,227.434c-14.334-9.129-20.905-22.866-22.251-38.54
		C312.424,197.897,321.034,210.456,321.773,227.434z M348.765,204.236c-0.088,4.855-0.577,9.515-1.339,14.301
		c-1.072,6.731-2.65,13.058-5.913,18.669c0.776-13.607,0.423-27.406-4.304-39.95c1.069-0.258,1.975-1.068,1.958-2.494
		c7.666-3.389,10.854-1.869,9.562,4.56C348.741,200.96,348.753,202.598,348.765,204.236z M332.534,187.638
		c-0.717-1.161-1.478-2.308-2.301-3.435c-3.528-4.837-7.801-9.072-12.47-12.945c-0.36-3.9-0.946-9.424,0.633-12.601
		c7.793-5.849,12.081-5.259,12.865,1.772c0.513,1.986,0.829,4.003,0.947,6.049C332.993,173.493,332.59,180.578,332.534,187.638z
		 M275.129,195.875c1.02,5.979,2.551,11.796,4.975,17.269c0.608,1.371,1.391,2.581,2.093,3.866
		c-6.226-3.541-12.664-6.768-18.43-11.018c-1.714-1.126-3.302-2.408-4.765-3.845c-5.697-4.194-4.064-8.203,4.898-12.027
		C267.416,190.34,271.935,193.614,275.129,195.875z M284.782,226.161c1.254,0.744,2.429,0.33,3.185-0.504
		c8.512,10.383,20.267,17.62,32.46,23.758c-6.513,0.032-12.799-1.769-19.184-4.214c-4.526-1.733-8.806-3.639-13.054-5.991
		c-1.413-0.829-2.826-1.659-4.238-2.488C277.737,234.626,278.014,231.106,284.782,226.161z M322.182,110.377
		c-6.28-8.927-6.977-18.683-6.382-29.334c0.632-11.293,5.381-31.547,19.045-29.125c-10.561,9.031-3.382,30.989,2.005,43.006
		c8.179,18.245,21.178,33.709,30.703,51.185c16.012,29.38,20.156,84.923-21.054,95.7c19.986-19.338,27.698-47.685,16.696-74.297
		c-5.36-12.967-14.624-23.709-23.599-34.271c-6.222-7.322-11.949-14.391-16.976-21.583
		C322.598,111.246,322.492,110.818,322.182,110.377z M297.105,56.964c1.412,26.101,11.014,47.269,27.869,67.641
		c13.301,16.077,29.844,31.183,35.767,51.909c5.314,18.594,0.825,37.093-9.821,51.91c0.566-2.072,1.049-4.192,1.445-6.374
		c1.896-10.438,4.257-24.59,0.07-34.661c-1.865-4.488-5.849-8.878-11.341-7.494c-1.095,0.276-1.98,0.757-2.778,1.317
		c0.58-13.195,0.594-30.42-10.982-34.196c-6.512-2.124-10.295,1.049-12.44,5.966c-2.473-10.544-7.196-20.309-17.536-25.441
		c-3.41-1.692-7.983-3.09-11.945-2.304C287.851,102.472,289.63,77.912,297.105,56.964z M244.709,117.591
		c-2.739-9.014-1.804-18.733-2.596-28.132c7.743,5.385,16.628,9.434,23.065,16.313c9.233,9.868,11.282,23.996,7.457,36.553
		C259.85,139.359,248.638,130.52,244.709,117.591z M186.477,120.836c21.879,4,44.038,14.739,64.972,24.01
		c-2.661,3.038-3.737,7.697-3.977,11.497c-0.726,11.521,5.369,20.494,13.264,27.908c-5.331-0.601-9.971,1.089-11.387,7.79
		c-2.518,11.914,12.407,20.513,24.124,26.609c-0.884,0.411-1.743,0.937-2.529,1.748c-3.944,4.063-2.134,9.709,0.82,13.568
		c6.629,8.661,20.065,13.692,30.053,17.27c2.087,0.747,4.164,1.389,6.241,1.935c-18.155,1.812-36.419-3.551-49.865-17.449
		c-14.988-15.492-19.799-37.372-27.071-56.93C221.906,154.008,208.375,135.108,186.477,120.836z M228.455,226.418
		c-10.373-16.987-17.266-35.977-28.976-52.183c-7.713-10.674-23.141-27.871-36.242-23.239c4.734-13.044,24.649-7.03,34.746-1.931
		c9.522,4.809,17.622,10.292,22.213,20.194c0.227,0.49,0.544,0.795,0.89,1.021c3.716,7.949,6.973,16.444,10.203,25.493
		c4.66,13.053,9.331,26.447,17.88,37.573c17.546,22.833,45.951,30.329,72.691,22.689
		C291.922,286.335,245.893,254.975,228.455,226.418z M391.652,348.467c0.107,0.183,0.215,0.366,0.322,0.55
		c0.001,0.004,0.001,0.008,0.002,0.012c-0.003-0.002-0.006-0.005-0.009-0.007C391.862,348.836,391.757,348.651,391.652,348.467z
		 M92.473,465.322c1.939-1.455,3.898-2.908,5.758-4.368c1.227-0.962,1.083-2.239,0.347-3.179c1.852-1.371,3.785-2.51,5.309-3.328
		c0.026-0.014,0.036-0.036,0.061-0.051c10.065,5.894,20.531,12.491,31.482,17.457c-8.384,3.762-17.395,7.369-26.677,6.45
		c-5.4-0.535-12.092-2.821-15.252-7.536C92.239,468.885,92.031,467.054,92.473,465.322z M93.501,429.52
		c3.16-4.715,9.852-7.001,15.252-7.536c9.282-0.919,18.292,2.688,26.677,6.45c-10.952,4.966-21.417,11.563-31.482,17.457
		c-0.025-0.015-0.035-0.037-0.061-0.051c-1.524-0.818-3.457-1.958-5.309-3.328c0.737-0.941,0.881-2.216-0.346-3.179
		c-1.86-1.46-3.819-2.913-5.758-4.368C92.031,433.233,92.239,431.402,93.501,429.52z M173.594,418.744
		c0.898-8.333,3.808-10.334,8.73-6.001c1.425,0.809,2.849,1.618,4.274,2.427c4.16,2.503,7.951,5.257,11.715,8.31
		c5.294,4.294,9.984,8.823,13.212,14.456c-11.396-7.475-23.523-14.069-36.75-16.248
		C175.087,420.632,174.838,419.443,173.594,418.744z M216.157,452.71c-0.042,0.02-0.074,0.057-0.115,0.08
		c-18.36,12.699-37.949,24.848-61.36,19.917c-16.709-3.52-32.407-13.798-47.278-22.563c14.871-8.765,30.568-19.044,47.278-22.563
		c23.411-4.931,43,7.218,61.36,19.917c0.041,0.022,0.073,0.059,0.115,0.08c0.087,0.06,0.173,0.12,0.26,0.18
		c-5.601-0.033-11.202-0.04-16.802-0.1c-0.113-0.095-0.179-0.21-0.315-0.294c-18.88-11.576-38.606-9.884-56.523-0.305
		c-2.528-1.473-5.022-3.102-7.473-4.882c-2.811-2.042-5.475,2.669-2.68,4.7c1.595,1.159,3.217,2.234,4.85,3.269
		c-1.633,1.035-3.255,2.11-4.85,3.269c-2.795,2.03-0.131,6.742,2.68,4.7c2.45-1.78,4.945-3.409,7.473-4.882
		c17.917,9.579,37.643,11.271,56.523-0.306c0.136-0.084,0.202-0.199,0.315-0.294c5.6-0.06,11.201-0.067,16.802-0.1
		C216.33,452.591,216.243,452.651,216.157,452.71z M193.192,450.143c-15.073,7.849-30.255,6.671-44.503,0
		C162.937,443.472,178.119,442.295,193.192,450.143z M159.982,421.202c-5.952,0.637-11.756,2.219-17.443,4.326
		c-3.555-1.636-8.65-3.912-10.599-6.848c-1.169-9.673,1.486-13.092,7.967-10.255c1.977,0.548,3.881,1.283,5.713,2.204
		c6.468,2.827,12.402,6.719,18.488,10.298C162.744,420.967,161.37,421.054,159.982,421.202z M131.94,481.607
		c1.949-2.935,7.044-5.212,10.599-6.848c5.688,2.106,11.491,3.689,17.443,4.326c1.388,0.149,2.762,0.235,4.126,0.275
		c-6.086,3.579-12.02,7.47-18.488,10.298c-1.832,0.921-3.736,1.656-5.713,2.204C133.427,494.698,130.771,491.28,131.94,481.607z
		 M174.775,478.6c13.227-2.179,25.353-8.772,36.75-16.248c-3.228,5.633-7.918,10.161-13.212,14.456
		c-3.764,3.053-7.555,5.807-11.715,8.31c-1.425,0.809-2.849,1.618-4.274,2.427c-4.922,4.332-7.832,2.332-8.73-6.001
		C174.838,480.844,175.087,479.655,174.775,478.6z M47.727,351.065c2.54,13.662,25.146,18.424,38.247,19.767
		c19.889,2.039,39.782-1.487,59.68-0.997c33.45,0.823,83.624,25.006,72.352,66.084c-6.754-26.977-27.448-47.83-55.995-51.608
		c-13.91-1.841-27.844,0.811-41.479,3.302c-9.452,1.727-18.437,3.153-27.18,3.91c-0.369-0.187-0.792-0.308-1.329-0.26
		c-10.871,0.975-19.669-3.299-28.595-9.14C53.963,375.927,38.797,361.687,47.727,351.065z M33.227,386.273
		c23.309,11.828,46.443,14.095,72.512,9.685c20.573-3.481,41.928-10.254,62.838-5.02c18.76,4.695,32.535,17.832,40.044,34.46
		c-1.512-1.526-3.106-3.004-4.797-4.438c-8.092-6.861-19.167-15.981-29.982-17.391c-4.819-0.628-10.614,0.627-12.161,6.074
		c-0.309,1.087-0.334,2.093-0.249,3.064c-11.137-7.1-26.047-15.725-35.106-7.587c-5.095,4.577-4.239,9.44-1.054,13.756
		c-10.368-3.131-21.186-3.923-30.8,2.467c-3.17,2.107-6.668,5.369-7.968,9.192C68.011,417.041,47.631,403.22,33.227,386.273z
		 M59.533,461.961c-9.177-2.135-17.125-7.804-25.661-11.818c8.535-4.013,16.484-9.683,25.661-11.818
		c13.162-3.063,26.422,2.228,35.384,11.818C85.955,459.733,72.695,465.024,59.533,461.961z M86.506,469.753
		c1.3,3.824,4.798,7.085,7.968,9.192c9.614,6.389,20.433,5.597,30.8,2.467c-3.185,4.316-4.042,9.179,1.054,13.756
		c9.058,8.138,23.969-0.487,35.106-7.587c-0.086,0.971-0.06,1.977,0.249,3.064c1.547,5.448,7.341,6.703,12.161,6.074
		c10.815-1.41,21.89-10.531,29.982-17.391c1.691-1.434,3.285-2.912,4.797-4.438c-7.509,16.629-21.285,29.765-40.044,34.46
		c-20.91,5.234-42.265-1.54-62.838-5.021c-26.07-4.41-49.203-2.142-72.512,9.685C47.631,497.066,68.011,483.246,86.506,469.753z
		 M145.653,530.452c-19.898,0.49-39.79-3.036-59.68-0.997c-13.1,1.343-35.707,6.105-38.247,19.767
		c-8.93-10.622,6.236-24.862,15.701-31.056c8.926-5.841,17.724-10.115,28.595-9.14c0.538,0.048,0.96-0.073,1.329-0.26
		c8.742,0.757,17.727,2.183,27.18,3.91c13.634,2.491,27.569,5.143,41.479,3.302c28.547-3.778,49.241-24.631,55.995-51.608
		C229.277,505.446,179.103,529.629,145.653,530.452z M332.93,450.143c0.219-0.001,0.437-0.003,0.656-0.004
		c0.004,0.001,0.007,0.003,0.011,0.004c-0.004,0.001-0.007,0.003-0.011,0.004C333.368,450.146,333.149,450.145,332.93,450.143z
		 M332.208,733.809c-0.118,2.047-0.434,4.063-0.947,6.049c-0.784,7.031-5.072,7.622-12.865,1.772
		c-1.579-3.177-0.992-8.701-0.633-12.601c4.669-3.873,8.942-8.109,12.47-12.945c0.822-1.127,1.584-2.274,2.301-3.435
		C332.59,719.708,332.993,726.794,332.208,733.809z M284.553,767.622c-0.289-2.391-0.567-4.799-0.898-7.125
		c-0.219-1.533-1.381-2.049-2.556-1.892c-0.26-2.288-0.305-4.531-0.252-6.259c0.001-0.03-0.014-0.049-0.014-0.079
		c10.137-5.77,21.084-11.534,30.86-18.535c-0.934,9.143-2.316,18.749-7.752,26.328c-3.163,4.409-8.489,9.062-14.153,9.44
		C287.514,769.652,285.835,768.885,284.553,767.622z M254.067,748.876c-2.504-5.094-1.137-12.033,1.099-16.976
		c3.845-8.497,11.474-14.497,18.924-19.877c-1.176,11.967-0.694,24.329-0.622,35.993c-0.025,0.015-0.049,0.012-0.075,0.027
		c-1.47,0.91-3.435,1.993-5.546,2.911c-0.451-1.095-1.479-1.845-2.917-1.268c-2.18,0.876-4.404,1.839-6.619,2.784
		C256.577,751.993,255.073,750.923,254.067,748.876z M335.454,653.933c0.009,0.105,0.017,0.21,0.026,0.315
		c-0.004,0.046,0.012,0.092,0.011,0.139c1.818,22.249,2.545,45.289-13.431,63.099c-11.403,12.711-28.154,21.166-43.18,29.662
		c-0.155-17.26-1.208-35.995,4.099-52.225c7.435-22.74,27.752-33.63,47.929-43.182c0.039-0.024,0.088-0.033,0.125-0.059
		c0.095-0.045,0.191-0.09,0.286-0.135c-2.829,4.834-5.635,9.681-8.488,14.501c-0.139,0.051-0.271,0.05-0.412,0.126
		c-19.465,10.562-27.863,28.491-28.526,48.797c-2.54,1.453-5.198,2.798-7.965,4.03c-3.174,1.413-0.425,6.076,2.73,4.671
		c1.801-0.802,3.543-1.669,5.256-2.566c0.08,1.932,0.2,3.874,0.406,5.835c0.361,3.436,5.773,3.485,5.41,0.029
		c-0.316-3.012-0.48-5.987-0.492-8.912c17.254-10.727,28.582-26.965,27.997-49.103c-0.004-0.16-0.071-0.275-0.097-0.42
		C329.887,663.654,332.682,658.8,335.454,653.933z M299.522,711.393c1.346-15.675,7.917-29.411,22.251-38.54
		C321.034,689.831,312.424,702.39,299.522,711.393z M287.967,674.63c-0.755-0.834-1.931-1.248-3.185-0.504
		c-6.768-4.945-7.045-8.465-0.832-10.561c1.413-0.829,2.826-1.659,4.238-2.488c4.248-2.351,8.528-4.258,13.054-5.99
		c6.385-2.445,12.671-4.246,19.184-4.214C308.234,657.01,296.479,664.247,287.967,674.63z M282.197,683.277
		c-0.702,1.285-1.485,2.494-2.092,3.865c-2.424,5.473-3.955,11.29-4.975,17.269c-3.194,2.261-7.714,5.535-11.23,5.755
		c-8.962-3.824-10.594-7.833-4.898-12.027c1.463-1.438,3.052-2.719,4.765-3.845C269.532,690.046,275.972,686.819,282.197,683.277z
		 M337.209,703.031c4.727-12.544,5.08-26.344,4.304-39.951c3.264,5.612,4.841,11.938,5.913,18.67
		c0.762,4.786,1.251,9.446,1.339,14.301c-0.012,1.638-0.024,3.276-0.036,4.915c1.291,6.429-1.896,7.949-9.562,4.56
		C339.184,704.098,338.278,703.289,337.209,703.031z M220.195,731.028c-4.591,9.902-12.691,15.384-22.213,20.194
		c-10.096,5.099-30.012,11.114-34.746-1.931c13.101,4.632,28.529-12.565,36.242-23.239c11.711-16.206,18.603-35.196,28.976-52.183
		c17.438-28.557,63.467-59.917,93.405-29.617c-26.74-7.639-55.145-0.144-72.691,22.689c-8.549,11.126-13.22,24.519-17.88,37.573
		c-3.23,9.049-6.488,17.544-10.203,25.493C220.739,730.233,220.422,730.538,220.195,731.028z M231.121,721.496
		c7.273-19.557,12.083-41.437,27.071-56.93c13.446-13.898,31.71-19.26,49.865-17.449c-2.077,0.546-4.154,1.188-6.241,1.935
		c-9.988,3.577-23.424,8.608-30.053,17.269c-2.954,3.86-4.764,9.505-0.82,13.569c0.787,0.811,1.646,1.336,2.529,1.747
		c-11.718,6.095-26.642,14.695-24.124,26.609c1.416,6.701,6.056,8.391,11.387,7.79c-7.895,7.414-13.99,16.386-13.264,27.907
		c0.24,3.799,1.316,8.459,3.977,11.497c-20.934,9.271-43.093,20.01-64.972,24.01C208.375,765.179,221.906,746.279,231.121,721.496z
		 M265.179,794.514c-6.437,6.879-15.322,10.928-23.065,16.313c0.792-9.399-0.144-19.117,2.596-28.132
		c3.929-12.93,15.14-21.768,27.927-24.735C276.46,770.518,274.412,784.647,265.179,794.514z M297.105,843.322
		c-7.475-20.948-9.254-45.508-11.692-68.272c3.961,0.786,8.535-0.612,11.945-2.304c10.34-5.132,15.064-14.897,17.536-25.44
		c2.145,4.917,5.928,8.09,12.44,5.966c11.577-3.776,11.563-21.001,10.982-34.196c0.798,0.56,1.682,1.041,2.778,1.317
		c5.492,1.384,9.475-3.006,11.341-7.494c4.186-10.071,1.825-24.223-0.07-34.661c-0.396-2.181-0.88-4.301-1.445-6.373
		c10.647,14.817,15.135,33.316,9.821,51.91c-5.922,20.726-22.466,35.832-35.767,51.909
		C308.119,796.054,298.517,817.222,297.105,843.322z M367.553,754.177c-9.525,17.477-22.525,32.941-30.703,51.185
		c-5.387,12.017-12.566,33.975-2.005,43.006c-13.664,2.422-18.413-17.832-19.045-29.125c-0.596-10.651,0.102-20.407,6.382-29.334
		c0.31-0.441,0.416-0.868,0.439-1.281c5.026-7.193,10.754-14.261,16.976-21.583c8.975-10.562,18.239-21.304,23.599-34.271
		c11.001-26.611,3.289-54.959-16.696-74.297C387.709,669.254,383.565,724.797,367.553,754.177z M391.652,551.82
		c0.105-0.185,0.21-0.369,0.315-0.554c0.003-0.003,0.006-0.005,0.009-0.007c-0.001,0.004-0.001,0.008-0.002,0.012
		C391.867,551.453,391.759,551.637,391.652,551.82z M646.643,748.876c-1.006,2.046-2.51,3.117-4.245,3.595
		c-2.215-0.945-4.439-1.909-6.619-2.784c-1.437-0.577-2.465,0.172-2.917,1.268c-2.112-0.918-4.076-2.001-5.546-2.911
		c-0.025-0.016-0.049-0.013-0.075-0.027c0.071-11.663,0.553-24.026-0.622-35.993c7.451,5.38,15.08,11.38,18.924,19.877
		C647.78,736.843,649.146,743.783,646.643,748.876z M617.055,760.497c-0.332,2.326-0.609,4.734-0.898,7.124
		c-1.282,1.264-2.961,2.031-5.236,1.879c-5.663-0.379-10.99-5.032-14.152-9.44c-5.436-7.578-6.818-17.185-7.752-26.328
		c9.776,7.001,20.723,12.766,30.859,18.536c0,0.029-0.015,0.049-0.013,0.079c0.053,1.728,0.009,3.971-0.252,6.259
		C618.436,758.448,617.274,758.964,617.055,760.497z M569.677,651.681c0.038,0.027,0.087,0.036,0.127,0.06
		c20.177,9.551,40.493,20.441,47.928,43.181c5.307,16.231,4.254,34.965,4.099,52.226c-15.026-8.496-31.777-16.951-43.18-29.662
		c-15.976-17.809-15.249-40.849-13.432-63.099c-0.001-0.046,0.015-0.093,0.011-0.139c0.009-0.105,0.017-0.21,0.026-0.315
		c2.771,4.867,5.566,9.721,8.314,14.601c-0.026,0.145-0.092,0.26-0.096,0.42c-0.585,22.139,10.743,38.376,27.997,49.103
		c-0.012,2.926-0.176,5.9-0.492,8.912c-0.363,3.456,5.049,3.407,5.41-0.029c0.206-1.961,0.327-3.903,0.406-5.835
		c1.713,0.897,3.455,1.764,5.256,2.566c3.156,1.405,5.904-3.258,2.73-4.671c-2.767-1.232-5.425-2.578-7.965-4.03
		c-0.663-20.306-9.061-38.235-28.526-48.797c-0.141-0.076-0.273-0.076-0.412-0.126c-2.853-4.82-5.659-9.667-8.488-14.501
		C569.486,651.591,569.581,651.636,569.677,651.681z M578.937,672.853c14.334,9.129,20.905,22.866,22.251,38.54
		C588.286,702.39,579.676,689.831,578.937,672.853z M551.945,696.051c0.088-4.855,0.577-9.515,1.339-14.301
		c1.072-6.731,2.649-13.057,5.913-18.669c-0.776,13.607-0.423,27.406,4.304,39.95c-1.069,0.258-1.975,1.067-1.958,2.494
		c-7.666,3.389-10.854,1.869-9.563-4.56C551.968,699.327,551.957,697.688,551.945,696.051z M568.176,712.649
		c0.717,1.161,1.479,2.308,2.301,3.435c3.528,4.837,7.801,9.072,12.47,12.945c0.36,3.9,0.946,9.425-0.633,12.601
		c-7.793,5.849-12.081,5.259-12.865-1.772c-0.513-1.986-0.829-4.003-0.947-6.049C567.717,726.794,568.12,719.708,568.176,712.649z
		 M625.581,704.412c-1.02-5.979-2.551-11.796-4.976-17.269c-0.607-1.371-1.391-2.581-2.093-3.866
		c6.226,3.541,12.665,6.768,18.43,11.018c1.714,1.126,3.302,2.408,4.766,3.845c5.697,4.194,4.064,8.203-4.898,12.027
		C633.294,709.947,628.775,706.672,625.581,704.412z M615.928,674.126c-1.254-0.744-2.429-0.329-3.184,0.504
		c-8.512-10.383-20.268-17.62-32.459-23.758c6.513-0.032,12.799,1.769,19.184,4.214c4.526,1.733,8.806,3.639,13.054,5.99
		c1.413,0.829,2.826,1.659,4.238,2.488C622.973,665.661,622.696,669.181,615.928,674.126z M578.528,789.91
		c6.28,8.927,6.978,18.683,6.382,29.334c-0.632,11.293-5.381,31.547-19.045,29.125c10.561-9.031,3.382-30.989-2.005-43.006
		c-8.179-18.245-21.178-33.708-30.704-51.185c-16.012-29.38-20.156-84.923,21.054-95.7c-19.986,19.338-27.698,47.686-16.697,74.297
		c5.361,12.967,14.624,23.709,23.599,34.271c6.222,7.322,11.95,14.391,16.976,21.583
		C578.112,789.041,578.218,789.468,578.528,789.91z M603.605,843.322c-1.411-26.1-11.014-47.268-27.869-67.641
		c-13.301-16.077-29.844-31.183-35.767-51.909c-5.313-18.594-0.825-37.093,9.822-51.91c-0.566,2.072-1.049,4.192-1.445,6.373
		c-1.896,10.438-4.257,24.59-0.071,34.661c1.866,4.488,5.85,8.878,11.341,7.494c1.095-0.276,1.98-0.757,2.778-1.317
		c-0.58,13.195-0.595,30.42,10.982,34.197c6.512,2.124,10.295-1.05,12.44-5.966c2.473,10.544,7.196,20.309,17.536,25.441
		c3.41,1.692,7.984,3.09,11.945,2.304C612.859,797.815,611.081,822.375,603.605,843.322z M656.001,782.696
		c2.739,9.014,1.803,18.733,2.595,28.132c-7.743-5.385-16.628-9.434-23.065-16.313c-9.233-9.868-11.281-23.996-7.457-36.553
		C640.86,760.928,652.072,769.766,656.001,782.696z M714.233,779.451c-21.878-4-44.038-14.74-64.972-24.01
		c2.661-3.038,3.737-7.698,3.977-11.497c0.726-11.521-5.369-20.494-13.264-27.907c5.331,0.601,9.97-1.089,11.386-7.79
		c2.518-11.914-12.406-20.514-24.123-26.609c0.883-0.411,1.742-0.937,2.529-1.747c3.944-4.064,2.134-9.709-0.82-13.569
		c-6.628-8.661-20.065-13.692-30.052-17.269c-2.087-0.747-4.165-1.389-6.242-1.935c18.155-1.812,36.419,3.551,49.865,17.449
		c14.988,15.492,19.799,37.372,27.071,56.93C678.804,746.279,692.335,765.179,714.233,779.451z M672.255,673.868
		c10.373,16.987,17.265,35.977,28.976,52.183c7.713,10.674,23.141,27.87,36.242,23.239c-4.734,13.044-24.649,7.03-34.746,1.931
		c-9.522-4.809-17.622-10.292-22.213-20.194c-0.227-0.489-0.544-0.795-0.889-1.021c-3.716-7.949-6.973-16.444-10.204-25.493
		c-4.66-13.053-9.331-26.447-17.88-37.573c-17.546-22.833-45.951-30.328-72.691-22.689
		C608.788,613.952,654.817,645.312,672.255,673.868z M509.068,551.837c-0.111-0.189-0.222-0.378-0.332-0.567
		c-0.001-0.004-0.001-0.008-0.002-0.011c0.003,0.002,0.006,0.005,0.009,0.008C508.852,551.456,508.96,551.647,509.068,551.837z
		 M620.082,516.977c7.184,18.034,14.208,33.494,29.592,45.919c0.553,0.446,1.153,0.593,1.739,0.6
		c-0.088,0.157-0.474,0.89-0.959,2.175c-0.871,1.064-1.313,1.765-1.405,1.919c-0.299-0.504-0.726-0.951-1.389-1.206
		c-18.453-7.111-35.353-5.464-54.563-2.668c-36.096,5.254-57.514,3.633-86.014-21.047c-0.089-0.427-0.166-0.851-0.255-1.279
		c-0.488-2.329-3.051-2.357-4.414-1.075c-1.792,0.539-3.049,2.773-1.276,4.36c0.326,0.292,0.654,0.571,0.98,0.861
		c7.123,37.021-2.182,56.38-24.78,85.013c-12.026,15.238-21.902,29.051-24.97,48.587c-0.11,0.702,0.063,1.295,0.35,1.806
		c-0.179,0.002-1.008,0.035-2.364,0.257c-1.356-0.222-2.184-0.255-2.364-0.257c0.287-0.511,0.461-1.104,0.35-1.806
		c-3.068-19.536-12.944-33.349-24.971-48.587c-22.598-28.634-31.903-47.992-24.78-85.013c0.326-0.29,0.654-0.569,0.98-0.861
		c1.774-1.587,0.516-3.822-1.276-4.36c-1.363-1.282-3.926-1.254-4.414,1.075c-0.089,0.428-0.167,0.852-0.255,1.279
		c-28.5,24.68-49.917,26.3-86.014,21.047c-19.21-2.796-36.11-4.443-54.563,2.668c-0.663,0.256-1.09,0.702-1.389,1.206
		c-0.091-0.154-0.533-0.855-1.404-1.919c-0.486-1.286-0.872-2.02-0.96-2.176c0.586-0.007,1.186-0.154,1.739-0.6
		c15.385-12.425,22.409-27.885,29.592-45.919c13.498-33.887,25.611-51.625,61.234-63.967c0.414,0.137,0.82,0.282,1.236,0.419
		c2.261,0.743,3.567-1.463,3.138-3.285c0.429-1.822-0.877-4.027-3.138-3.285c-0.415,0.136-0.821,0.282-1.236,0.419
		c-35.623-12.342-47.736-30.08-61.234-63.967c-7.183-18.034-14.208-33.493-29.592-45.919c-0.553-0.446-1.153-0.592-1.739-0.6
		c0.087-0.156,0.474-0.89,0.96-2.176c0.871-1.064,1.313-1.765,1.404-1.919c0.299,0.504,0.726,0.951,1.389,1.206
		c18.453,7.111,35.353,5.465,54.563,2.668c36.097-5.254,57.514-3.633,86.014,21.047c0.088,0.427,0.166,0.852,0.255,1.279
		c0.488,2.329,3.051,2.358,4.414,1.075c1.792-0.539,3.05-2.773,1.276-4.36c-0.326-0.292-0.654-0.571-0.98-0.861
		c-7.123-37.021,2.182-56.38,24.78-85.014c12.026-15.238,21.902-29.051,24.971-48.587c0.11-0.702-0.063-1.295-0.35-1.806
		c0.18-0.002,1.008-0.034,2.364-0.257c1.357,0.223,2.185,0.255,2.364,0.257c-0.287,0.511-0.461,1.104-0.35,1.806
		c3.068,19.536,12.944,33.349,24.97,48.587c22.598,28.634,31.903,47.992,24.78,85.014c-0.326,0.29-0.654,0.569-0.98,0.861
		c-1.773,1.587-0.516,3.821,1.276,4.36c1.363,1.282,3.926,1.254,4.414-1.075c0.089-0.428,0.167-0.852,0.255-1.279
		c28.5-24.68,49.918-26.301,86.014-21.047c19.21,2.796,36.11,4.443,54.563-2.668c0.663-0.256,1.089-0.702,1.389-1.206
		c0.092,0.154,0.534,0.855,1.405,1.919c0.486,1.286,0.873,2.019,0.96,2.175c-0.586,0.007-1.187,0.153-1.74,0.6
		c-15.385,12.425-22.409,27.885-29.592,45.919c-13.498,33.887-25.611,51.625-61.234,63.967c-0.414-0.137-0.82-0.282-1.236-0.419
		c-2.261-0.742-3.567,1.463-3.138,3.285c-0.429,1.822,0.877,4.028,3.138,3.285c0.415-0.136,0.821-0.282,1.236-0.419
		C594.472,465.352,606.584,483.09,620.082,516.977z M567.113,450.143c0.004-0.001,0.008-0.003,0.011-0.004
		c0.219,0.001,0.437,0.003,0.656,0.004c-0.219,0.001-0.437,0.003-0.656,0.004C567.12,450.146,567.116,450.145,567.113,450.143z
		 M852.983,549.221c-2.54-13.661-25.147-18.424-38.247-19.767c-19.889-2.039-39.781,1.487-59.68,0.997
		c-33.45-0.823-83.623-25.006-72.351-66.083c6.754,26.977,27.448,47.829,55.995,51.608c13.91,1.841,27.844-0.811,41.479-3.302
		c9.452-1.727,18.437-3.153,27.18-3.91c0.369,0.187,0.791,0.308,1.329,0.26c10.871-0.975,19.669,3.299,28.595,9.14
		C846.747,524.359,861.912,538.599,852.983,549.221z"/>
	<path d="M785.764,239.239c4.961,2.24,10.278,3.145,14.854,3.215c5.109,0.017,9.339-0.725,12.068-1.503
		c-2.038,1.974-4.795,5.267-7.335,9.7c-2.228,3.998-4.102,9.055-4.643,14.472c-0.583,5.434,0.323,11.078,2.308,15.454
		c4.158,8.896,9.893,10.738,12.498,10.682c2.851-0.099,3.761-1.681,3.761-1.681s0.947-1.52,0.72-3.939
		c-0.143-2.552-1.322-5.468-3.841-10.895c-1.248-2.769-2.571-6.11-3.32-9.898c-0.776-3.806-0.963-8.061-0.636-12.01
		c0.515-5.553,1.713-10.368,2.588-12.597c0.804-0.349,1.231-0.658,1.14-0.845c0.036,0.169-0.304,0.215-0.854,0.179
		c0.244-0.494,0.454-0.766,0.582-0.651c-0.116-0.172-0.597,0.043-1.302,0.565c-2.368-0.356-7.137-1.726-12.204-4.057
		c-3.583-1.691-7.174-3.98-10.084-6.556c-2.906-2.544-5.138-5.36-6.912-7.825c-3.441-4.895-5.376-7.374-7.515-8.774
		c-1.981-1.406-3.771-1.346-3.771-1.346s-1.825-0.004-3.336,2.416c-1.35,2.228-2.623,8.116,3.002,16.165
		C776.331,233.42,780.767,237.027,785.764,239.239z"/>
	<path d="M739.902,232.416c0,0-1.257,1.322-0.321,4.383c0.888,3.005,4.468,7.956,13.587,13.1c4.379,2.378,9.963,5.59,17.313,6.942
		c3.451,0.61,6.775,0.485,9.899,0.014c-1.192,1.184-2.718,2.595-4.824,4.107c-0.198,0.031-0.356,0.055-0.629,0.098
		c-0.923,0.151-2.256,0.377-3.935,0.504c-3.337,0.325-8.013,0.446-13.166-0.228c-10.407-1.097-22.133-6.225-29.633-11.794
		c-7.706-5.501-10.003-8.897-11.624-10.651c-1.517-1.811-2.273-1.793-2.313-1.749c0.064,0.017-1.046,0.039-1.083,2.924
		c-0.087,2.745,2.06,9.182,10.85,15.329c4.34,3.113,9.973,5.808,15.931,7.482c5.95,1.734,12.231,2.267,17.731,2.049
		c5.518-0.213,10.256-1.264,13.525-2.261c1.646-0.463,2.922-0.965,3.798-1.306c-5.226,3.768-13.614,7.549-23.458,7.876
		c-5.026,0.245-10.215-0.623-15.292-2.433c-5.074-1.809-10.827-4.536-17.37-4.615c-12.992-0.391-24.399,7.302-30.577,15.904
		c-6.236,8.674-7.691,17.783-5.55,24.081c1.944,5.553,5.403,8.064,7.947,9.204c-0.285,2.773,0.16,7.025,3.998,11.484
		c4.384,5.004,13,8.298,23.63,7.235c10.539-1.05,22.904-7.081,29.061-18.528c3.203-5.706,3.718-12.052,4.688-17.351
		c0.971-5.302,2.814-10.229,5.539-14.459c5.191-8.338,12.618-13.676,18.487-16.325c-0.732,0.586-1.772,1.418-2.966,2.584
		c-2.498,2.333-5.778,5.91-8.721,10.583c-2.938,4.654-5.617,10.36-7.09,16.379c-1.529,5.996-2.012,12.223-1.486,17.538
		c0.928,10.685,5.429,15.763,7.85,17.06c2.517,1.41,3.091,0.46,3.073,0.524c0.058-0.012,0.452-0.657-0.358-2.877
		c-0.708-2.281-2.502-5.969-3.412-15.393c-1.072-9.28,0.349-21.998,4.603-31.56c1.992-4.8,4.435-8.789,6.386-11.516
		c0.949-1.391,1.812-2.432,2.403-3.156c0.173-0.215,0.273-0.339,0.399-0.496c2.362-1.068,4.348-1.685,5.97-2.124
		c-1.971,2.47-3.741,5.286-4.938,8.58c-2.504,7.042-2.515,13.484-2.644,18.465c-0.105,10.469,2.393,16.044,4.551,18.316
		c2.182,2.341,3.956,1.914,3.956,1.914s1.744-0.333,3.155-2.956c1.437-2.689,2.626-7.22,2.712-17.208
		c0.073-5.195-0.579-10.761-0.014-15.394c0.456-4.603,2.858-9.58,5.75-13.957c2.885-4.379,5.982-8.228,8.047-11.058
		c0.053-0.073,0.091-0.124,0.143-0.195c2.66-1.485,4.313-2.409,4.313-2.409s-1.047,0.114-2.769,0.302
		c1.024-1.398,1.646-2.247,1.646-2.247s-1.626,0.97-4.243,2.53c-0.088,0.01-0.152,0.017-0.241,0.026
		c-3.483,0.373-8.365,1.131-13.599,1.44c-5.236,0.316-10.748-0.092-14.962-1.999c-4.295-1.827-8.788-5.174-13.324-7.709
		c-8.693-4.92-13.212-6.156-16.259-6.256C741.063,231.073,739.902,232.416,739.902,232.416z M754.664,277.718
		c-3.328,4.281-5.891,9.7-7.376,15.43c-1.44,5.674-2.347,11.135-5.153,15.402c-5.429,8.893-15.855,13.54-24.54,14.397
		c-8.906,0.852-15.361-1.46-18.595-4.365c-2.402-2.13-3.5-4.441-4.073-6.301c0.76-0.041,1.268-0.215,1.574-0.342
		c0.635-0.285,0.607-0.512,0.607-0.512s0.014-0.224-0.508-0.606c-0.399-0.312-1.181-0.709-2.291-1.523
		c-0.15-1.368-0.104-2.244-0.174-2.746c-0.07-0.643-0.271-0.743-0.271-0.743s-0.183-0.138-0.747,0.269
		c-0.263,0.201-0.667,0.554-1.083,1.192c-1.324-1.426-2.776-3.532-3.421-6.677c-0.898-4.253,0.327-10.999,5.518-18.287
		c5.084-7.093,14.322-13.798,24.738-14.053c5.097-0.296,10.28,1.649,15.914,3.239c5.705,1.579,11.68,2.068,17.05,1.327
		c3.494-0.425,6.709-1.263,9.669-2.315C759.112,272.539,756.779,274.904,754.664,277.718z M789.322,254.441
		c-2.073,1.674-4.227,3.64-6.195,6.021c-1.771,0.269-4.136,0.714-6.952,1.675c-0.156,0.05-0.329,0.123-0.488,0.176
		c0.125-0.111,0.275-0.225,0.396-0.335c2.259-1.976,3.787-3.778,4.906-5.181C784.043,256.284,786.83,255.401,789.322,254.441z"/>
	<path d="M723.889,297.072c-3.671,5.048-0.733,7.118-0.733,7.118s2.874,2.157,6.546-2.891s6.749-15.39,6.749-15.39
		S727.56,292.024,723.889,297.072z"/>
	<path d="M706.245,309.528c-1.285,3.843,2.134,4.949,2.134,4.949s3.397,1.173,4.682-2.67c1.285-3.843-0.028-11.247-0.028-11.247
		S707.53,305.685,706.245,309.528z"/>
	<path d="M460.357,759.373c0,0-3.262-1.51-5.798,4.194c-2.536,5.703-3.387,16.46-3.387,16.46s7.418-7.836,9.954-13.539
		C463.662,760.784,460.357,759.373,460.357,759.373z"/>
	<path d="M461.877,741.431c0,0-2.668-2.408-5.353,0.627c-2.686,3.035-4.372,10.363-4.372,10.363s7.069-2.565,9.754-5.599
		C464.591,743.786,461.877,741.431,461.877,741.431z"/>
	<path d="M635.413,770.674c-1.308,0.601-2.255,2.104-1.391,3.748c4.411,8.391,8.596,16.919,14.567,24.332
		c0.077,0.099,0.136,0.219,0.223,0.303c0.026,0.032,0.047,0.067,0.073,0.099c0.974,1.191,2.245,1.074,3.196,0.383
		c1.073-0.478,1.808-1.52,1.265-2.959c-0.015-0.039-0.035-0.074-0.049-0.113c-0.029-0.117-0.103-0.227-0.15-0.343
		c-3.435-8.879-8.728-16.767-13.79-24.783C638.364,769.772,636.588,769.842,635.413,770.674z"/>
	<path d="M815.514,609.027c-2.605-0.055-8.34,1.787-12.498,10.682c-1.985,4.376-2.891,10.021-2.308,15.454
		c0.541,5.417,2.415,10.474,4.643,14.472c2.54,4.432,5.297,7.725,7.335,9.7c-2.729-0.778-6.959-1.519-12.068-1.503
		c-4.577,0.07-9.893,0.975-14.854,3.215c-4.997,2.212-9.433,5.819-12.23,9.726c-5.625,8.049-4.352,13.937-3.002,16.165
		c1.511,2.42,3.336,2.417,3.336,2.417s1.79,0.059,3.771-1.346c2.139-1.399,4.074-3.878,7.515-8.774
		c1.774-2.465,4.006-5.281,6.912-7.825c2.909-2.575,6.5-4.865,10.084-6.556c5.066-2.331,9.835-3.701,12.204-4.057
		c0.704,0.522,1.186,0.737,1.302,0.565c-0.128,0.116-0.338-0.156-0.582-0.65c0.55-0.036,0.89,0.01,0.854,0.179
		c0.091-0.186-0.336-0.495-1.14-0.844c-0.876-2.229-2.074-7.044-2.588-12.597c-0.328-3.949-0.14-8.204,0.636-12.01
		c0.75-3.789,2.072-7.13,3.32-9.898c2.519-5.427,3.698-8.343,3.841-10.895c0.227-2.418-0.72-3.939-0.72-3.939
		S818.366,609.126,815.514,609.027z"/>
	<path d="M713.155,613.419c0,0-0.431,3.568,5.777,4.223c6.207,0.655,16.703-1.851,16.703-1.851s-9.741-4.642-15.948-5.297
		C713.478,609.84,713.155,613.419,713.155,613.419z"/>
	<path d="M700.076,601.443c-3.971,0.809-3.22,4.323-3.22,4.323s0.683,3.528,4.653,2.72c3.971-0.809,9.727-5.648,9.727-5.648
		S704.047,600.634,700.076,601.443z"/>
	<path d="M181.024,610.495c-6.207,0.655-15.948,5.297-15.948,5.297s10.495,2.506,16.703,1.851c6.207-0.655,5.777-4.223,5.777-4.223
		S187.232,609.84,181.024,610.495z"/>
	<path d="M200.634,601.443c-3.971-0.809-11.16,1.395-11.16,1.395s5.755,4.839,9.726,5.648c3.971,0.808,4.654-2.72,4.654-2.72
		S204.605,602.251,200.634,601.443z"/>
	<path d="M265.297,770.674c-1.175-0.833-2.951-0.902-3.943,0.669c-5.061,8.015-10.353,15.902-13.788,24.779
		c-0.048,0.117-0.123,0.229-0.153,0.347c-0.015,0.038-0.034,0.073-0.049,0.112c-0.543,1.438,0.192,2.481,1.265,2.959
		c0.951,0.691,2.222,0.808,3.196-0.383c0.026-0.032,0.047-0.067,0.073-0.099c0.087-0.084,0.145-0.204,0.222-0.302
		c5.972-7.414,10.157-15.942,14.568-24.333C267.552,772.779,266.605,771.276,265.297,770.674z"/>
	<path d="M479.837,840.34c-4.782,0.469-10.123,2.507-14.538,5.728c-4.421,3.177-7.863,7.328-10.212,11.257
		c-2.569,4.416-4.042,8.45-4.732,11.202c-0.691-2.752-2.164-6.786-4.733-11.202c-2.348-3.929-5.791-8.08-10.212-11.257
		c-4.414-3.221-9.755-5.26-14.537-5.728c-9.783-0.847-14.246,3.199-15.501,5.483c-1.34,2.518-0.425,4.097-0.425,4.097
		s0.844,1.58,3.051,2.593c2.281,1.152,5.396,1.589,11.356,2.121c3.022,0.303,6.577,0.828,10.232,2.073
		c3.685,1.232,7.463,3.197,10.719,5.455c4.551,3.222,8.123,6.667,9.615,8.54c-0.1,0.871-0.046,1.396,0.161,1.41
		c-0.164-0.053-0.034-0.371,0.272-0.829c0.306,0.458,0.437,0.776,0.272,0.829c0.207-0.014,0.261-0.538,0.161-1.409
		c1.492-1.873,5.063-5.318,9.615-8.54c3.256-2.258,7.034-4.223,10.719-5.455c3.656-1.245,7.211-1.77,10.232-2.073
		c5.96-0.532,9.075-0.969,11.356-2.121c2.208-1.013,3.051-2.593,3.051-2.593s0.916-1.578-0.425-4.097
		C494.083,843.539,489.62,839.493,479.837,840.34z"/>
	<path d="M500.879,782.789c-2.334-1.448-8.982-2.807-18.7,1.731c-4.866,2.202-10.017,5.733-14.445,10.056
		c-4.477,4.285-8.079,9.459-10.64,14.33c-2.575,4.885-4.033,9.514-4.805,12.844c-0.422,1.657-0.625,3.013-0.767,3.942
		c-0.65-6.409,0.269-15.565,4.908-24.254c2.301-4.475,5.646-8.535,9.752-12.027c4.104-3.49,9.342-7.108,12.682-12.735
		c6.835-11.057,5.876-24.781,1.515-34.432c-4.394-9.738-11.555-15.552-18.08-16.847c-5.781-1.094-9.685,0.646-11.944,2.28
		c-2.259-1.634-6.164-3.374-11.945-2.28c-6.525,1.295-13.686,7.109-18.08,16.847c-4.36,9.651-5.319,23.375,1.515,34.432
		c3.34,5.627,8.579,9.246,12.682,12.735c4.106,3.492,7.452,7.552,9.753,12.027c4.639,8.689,5.558,17.843,4.908,24.253
		c-0.142-0.929-0.346-2.284-0.768-3.942c-0.771-3.33-2.229-7.958-4.805-12.844c-2.561-4.871-6.163-10.045-10.64-14.33
		c-4.428-4.323-9.579-7.854-14.445-10.056c-9.718-4.539-16.366-3.18-18.7-1.731c-2.479,1.475-1.943,2.447-1.99,2.4
		c-0.018,0.056,0.343,0.72,2.67,1.128c2.33,0.528,6.42,0.818,15.036,4.742c8.573,3.711,18.877,11.302,25.03,19.767
		c3.16,4.125,5.394,8.236,6.78,11.288c0.73,1.517,1.201,2.785,1.532,3.659c0.1,0.258,0.158,0.407,0.23,0.594
		c-0.256,2.58-0.715,4.607-1.145,6.232c-1.154-2.942-2.707-5.883-4.961-8.566c-4.847-5.689-10.42-8.919-14.669-11.522
		c-9.014-5.325-15.091-5.95-18.138-5.217c-3.119,0.719-3.635,2.469-3.635,2.469s-0.583,1.677,0.982,4.21
		c1.61,2.589,4.94,5.885,13.547,10.953c4.463,2.66,9.609,4.879,13.338,7.685c3.759,2.696,6.868,7.265,9.212,11.958
		c2.35,4.687,4.135,9.294,5.553,12.498c0.036,0.082,0.062,0.141,0.098,0.222c-0.043,3.046-0.07,4.939-0.07,4.939
		s0.425-0.963,1.124-2.549c0.699,1.586,1.123,2.549,1.123,2.549s-0.027-1.893-0.07-4.939c0.036-0.081,0.061-0.14,0.098-0.222
		c1.418-3.203,3.203-7.81,5.552-12.498c2.344-4.693,5.454-9.261,9.213-11.958c3.729-2.806,8.875-5.024,13.338-7.685
		c8.607-5.068,11.937-8.364,13.547-10.953c1.566-2.533,0.982-4.21,0.982-4.21s-0.517-1.75-3.635-2.469
		c-3.047-0.733-9.124-0.109-18.138,5.217c-4.249,2.603-9.822,5.833-14.669,11.522c-2.254,2.683-3.807,5.624-4.961,8.566
		c-0.43-1.624-0.889-3.652-1.145-6.232c0.072-0.187,0.13-0.336,0.23-0.594c0.331-0.874,0.801-2.142,1.531-3.659
		c1.387-3.052,3.62-7.163,6.781-11.288c6.154-8.465,16.458-16.055,25.03-19.767c8.617-3.923,12.706-4.214,15.036-4.742
		c2.327-0.408,2.689-1.072,2.67-1.128C502.822,785.236,503.358,784.264,500.879,782.789z M447.525,799.896
		c-2.043-5.022-5.455-9.951-9.674-14.103c-4.194-4.084-8.47-7.6-10.762-12.163c-4.987-9.148-3.799-20.501-0.198-28.45
		c3.715-8.139,8.945-12.573,13.078-13.922c3.046-1.015,5.596-0.811,7.493-0.376c-0.344,0.679-0.448,1.206-0.491,1.534
		c-0.07,0.692,0.141,0.781,0.141,0.781s0.187,0.124,0.779-0.137c0.47-0.19,1.205-0.668,2.465-1.222
		c1.26,0.554,1.995,1.032,2.465,1.222c0.592,0.261,0.779,0.137,0.779,0.137s0.211-0.089,0.141-0.781
		c-0.043-0.328-0.146-0.855-0.491-1.534c1.897-0.434,4.447-0.639,7.493,0.376c4.132,1.348,9.362,5.783,13.078,13.922
		c3.6,7.949,4.788,19.302-0.199,28.45c-2.292,4.563-6.568,8.079-10.761,12.163c-4.22,4.151-7.631,9.081-9.674,14.103
		c-1.379,3.239-2.261,6.441-2.83,9.53C449.786,806.337,448.904,803.134,447.525,799.896z M450.355,841.548
		c-0.413-2.633-1.039-5.481-2.117-8.375c0.653-1.667,1.449-3.939,2.025-6.858c0.035-0.16,0.058-0.346,0.092-0.511
		c0.033,0.164,0.057,0.351,0.092,0.511c0.576,2.918,1.373,5.19,2.026,6.858C451.394,836.068,450.768,838.916,450.355,841.548z"/>
	<path d="M440.354,759.373c0,0-3.306,1.411-0.769,7.114c2.536,5.703,9.954,13.539,9.954,13.539s-0.851-10.756-3.387-16.46
		C443.615,757.863,440.354,759.373,440.354,759.373z"/>
	<path d="M448.558,752.42c0,0-1.686-7.328-4.372-10.363c-2.686-3.035-5.354-0.627-5.354-0.627s-2.714,2.355-0.029,5.39
		C441.49,749.856,448.558,752.42,448.558,752.42z"/>
	<path d="M77.688,447.064c-9.473-0.375-18.951-1.015-28.358,0.449c-0.123,0.017-0.256,0.008-0.372,0.041
		c-0.041,0.007-0.082,0.007-0.122,0.014c-1.518,0.249-2.052,1.408-1.93,2.576c-0.122,1.168,0.412,2.327,1.93,2.576
		c0.041,0.007,0.082,0.007,0.122,0.014c0.116,0.033,0.248,0.024,0.372,0.041c9.407,1.465,18.884,0.825,28.358,0.449
		c1.856-0.074,2.684-1.646,2.55-3.079C80.371,448.71,79.544,447.138,77.688,447.064z"/>
	<path d="M130.228,256.841c7.35-1.353,12.935-4.564,17.313-6.942c9.119-5.144,12.698-10.094,13.587-13.1
		c0.937-3.06-0.32-4.383-0.32-4.383s-1.161-1.344-4.138-1.255c-3.047,0.1-7.566,1.336-16.259,6.256
		c-4.535,2.535-9.029,5.882-13.324,7.709c-4.215,1.907-9.726,2.315-14.962,1.999c-5.234-0.309-10.117-1.067-13.599-1.44
		c-0.089-0.01-0.154-0.017-0.241-0.026c-2.617-1.56-4.243-2.53-4.243-2.53s0.622,0.849,1.646,2.247
		c-1.723-0.188-2.77-0.302-2.77-0.302s1.653,0.923,4.313,2.41c0.052,0.071,0.09,0.123,0.143,0.195
		c2.065,2.83,5.162,6.679,8.047,11.058c2.892,4.377,5.294,9.354,5.75,13.957c0.565,4.633-0.087,10.198-0.014,15.394
		c0.086,9.988,1.275,14.52,2.712,17.208c1.411,2.623,3.155,2.956,3.155,2.956s1.774,0.427,3.956-1.914
		c2.158-2.272,4.656-7.847,4.551-18.316c-0.13-4.981-0.141-11.423-2.644-18.465c-1.197-3.293-2.967-6.109-4.938-8.58
		c1.621,0.44,3.607,1.056,5.97,2.124c0.126,0.156,0.226,0.281,0.399,0.496c0.592,0.724,1.454,1.765,2.403,3.156
		c1.95,2.727,4.394,6.717,6.386,11.516c4.254,9.562,5.676,22.281,4.603,31.56c-0.91,9.424-2.704,13.111-3.412,15.393
		c-0.81,2.22-0.416,2.865-0.358,2.877c-0.017-0.064,0.556,0.886,3.074-0.524c2.421-1.297,6.922-6.375,7.85-17.06
		c0.526-5.315,0.043-11.542-1.486-17.538c-1.473-6.02-4.152-11.726-7.09-16.379c-2.943-4.673-6.223-8.25-8.721-10.583
		c-1.195-1.165-2.235-1.998-2.967-2.584c5.869,2.649,13.296,7.987,18.487,16.325c2.725,4.23,4.568,9.157,5.54,14.459
		c0.97,5.299,1.485,11.645,4.688,17.351c6.158,11.447,18.523,17.479,29.061,18.528c10.63,1.063,19.246-2.231,23.63-7.235
		c3.838-4.46,4.283-8.711,3.998-11.484c2.544-1.14,6.003-3.651,7.947-9.204c2.141-6.298,0.686-15.407-5.55-24.081
		c-6.178-8.602-17.584-16.295-30.577-15.904c-6.543,0.079-12.296,2.806-17.37,4.615c-5.077,1.81-10.266,2.678-15.292,2.433
		c-9.845-0.327-18.232-4.108-23.458-7.876c0.876,0.341,2.151,0.843,3.797,1.306c3.269,0.997,8.007,2.048,13.526,2.261
		c5.499,0.218,11.781-0.315,17.73-2.049c5.958-1.674,11.591-4.369,15.931-7.482c8.79-6.147,10.936-12.584,10.85-15.329
		c-0.038-2.885-1.148-2.906-1.083-2.924c-0.04-0.044-0.795-0.063-2.313,1.749c-1.622,1.754-3.918,5.151-11.624,10.651
		c-7.5,5.568-19.226,10.696-29.634,11.794c-5.153,0.674-9.829,0.553-13.166,0.228c-1.679-0.126-3.012-0.353-3.935-0.504
		c-0.273-0.043-0.431-0.067-0.629-0.098c-2.106-1.512-3.633-2.923-4.824-4.107C123.454,257.326,126.778,257.452,130.228,256.841z
		 M165.926,271.49c5.634-1.59,10.817-3.535,15.914-3.239c10.416,0.255,19.654,6.961,24.738,14.053
		c5.191,7.287,6.416,14.033,5.517,18.287c-0.644,3.145-2.096,5.252-3.42,6.677c-0.416-0.638-0.821-0.991-1.083-1.192
		c-0.564-0.407-0.747-0.269-0.747-0.269s-0.201,0.1-0.271,0.743c-0.07,0.502-0.024,1.378-0.174,2.746
		c-1.11,0.814-1.891,1.212-2.291,1.523c-0.522,0.382-0.508,0.606-0.508,0.606s-0.028,0.227,0.606,0.512
		c0.305,0.127,0.814,0.301,1.574,0.342c-0.572,1.86-1.671,4.171-4.073,6.301c-3.234,2.905-9.689,5.217-18.595,4.365
		c-8.685-0.857-19.111-5.505-24.54-14.397c-2.805-4.266-3.712-9.727-5.153-15.402c-1.485-5.73-4.048-11.149-7.376-15.43
		c-2.115-2.813-4.448-5.179-6.839-7.216c2.96,1.052,6.174,1.89,9.668,2.315C154.246,273.558,160.221,273.068,165.926,271.49z
		 M124.626,261.978c0.121,0.11,0.271,0.224,0.396,0.335c-0.159-0.053-0.332-0.126-0.488-0.176c-2.816-0.96-5.181-1.406-6.952-1.675
		c-1.967-2.381-4.121-4.347-6.194-6.021c2.492,0.96,5.279,1.843,8.331,2.356C120.839,258.2,122.367,260.002,124.626,261.978z"/>
	<path d="M164.26,285.909c0,0,3.077,10.342,6.749,15.39c3.671,5.048,6.546,2.891,6.546,2.891s2.938-2.07-0.733-7.118
		C173.15,292.024,164.26,285.909,164.26,285.909z"/>
	<path d="M187.677,300.561c0,0-1.313,7.404-0.028,11.247c1.285,3.843,4.682,2.67,4.682,2.67s3.419-1.106,2.134-4.949
		C193.18,305.685,187.677,300.561,187.677,300.561z"/>
	<path d="M114.946,661.048c-4.961-2.24-10.278-3.146-14.854-3.215c-5.109-0.017-9.339,0.724-12.068,1.502
		c2.038-1.974,4.795-5.267,7.335-9.699c2.228-3.998,4.102-9.055,4.643-14.472c0.583-5.434-0.323-11.078-2.308-15.454
		c-4.158-8.896-9.893-10.738-12.498-10.682c-2.851,0.099-3.761,1.681-3.761,1.681s-0.947,1.52-0.72,3.939
		c0.143,2.552,1.322,5.468,3.841,10.895c1.248,2.769,2.571,6.11,3.32,9.898c0.776,3.806,0.963,8.061,0.636,12.01
		c-0.515,5.553-1.713,10.368-2.588,12.597c-0.804,0.349-1.231,0.658-1.14,0.844c-0.036-0.169,0.304-0.214,0.854-0.179
		c-0.244,0.494-0.454,0.766-0.582,0.65c0.116,0.172,0.597-0.043,1.302-0.565c2.368,0.356,7.137,1.726,12.204,4.057
		c3.583,1.691,7.174,3.98,10.083,6.556c2.906,2.544,5.138,5.36,6.912,7.825c3.441,4.895,5.376,7.375,7.515,8.774
		c1.981,1.406,3.771,1.346,3.771,1.346s1.825,0.004,3.336-2.417c1.35-2.228,2.623-8.116-3.002-16.165
		C124.379,666.867,119.943,663.26,114.946,661.048z"/>
	<path d="M160.808,667.87c0,0,1.257-1.322,0.32-4.383c-0.888-3.005-4.468-7.956-13.587-13.1c-4.379-2.378-9.963-5.59-17.313-6.942
		c-3.451-0.61-6.774-0.485-9.899-0.013c1.192-1.185,2.718-2.596,4.824-4.107c0.198-0.031,0.356-0.055,0.629-0.098
		c0.923-0.151,2.256-0.377,3.935-0.503c3.337-0.325,8.013-0.446,13.166,0.228c10.408,1.097,22.133,6.225,29.634,11.794
		c7.706,5.501,10.003,8.897,11.624,10.651c1.517,1.811,2.273,1.793,2.313,1.749c-0.064-0.017,1.045-0.039,1.083-2.924
		c0.087-2.745-2.06-9.182-10.85-15.329c-4.34-3.113-9.974-5.808-15.931-7.482c-5.95-1.734-12.231-2.267-17.73-2.049
		c-5.519,0.213-10.256,1.264-13.526,2.261c-1.646,0.463-2.921,0.965-3.797,1.306c5.226-3.768,13.613-7.549,23.458-7.876
		c5.026-0.245,10.215,0.622,15.292,2.432c5.074,1.809,10.828,4.536,17.37,4.615c12.993,0.391,24.399-7.302,30.577-15.904
		c6.236-8.674,7.691-17.783,5.55-24.081c-1.943-5.553-5.403-8.064-7.947-9.204c0.285-2.773-0.16-7.025-3.998-11.484
		c-4.384-5.004-13-8.298-23.63-7.235c-10.539,1.05-22.904,7.081-29.061,18.528c-3.203,5.706-3.718,12.052-4.688,17.351
		c-0.971,5.302-2.814,10.229-5.54,14.459c-5.191,8.338-12.618,13.676-18.487,16.325c0.732-0.586,1.772-1.418,2.967-2.584
		c2.498-2.333,5.778-5.91,8.721-10.583c2.938-4.654,5.617-10.36,7.09-16.38c1.529-5.996,2.012-12.223,1.486-17.538
		c-0.928-10.685-5.429-15.763-7.85-17.06c-2.517-1.41-3.091-0.46-3.074-0.524c-0.058,0.012-0.452,0.657,0.358,2.877
		c0.708,2.281,2.502,5.969,3.412,15.393c1.072,9.28-0.349,21.998-4.603,31.56c-1.992,4.8-4.435,8.789-6.386,11.516
		c-0.949,1.391-1.812,2.432-2.403,3.156c-0.174,0.216-0.273,0.339-0.399,0.496c-2.363,1.068-4.348,1.685-5.969,2.124
		c1.971-2.47,3.741-5.286,4.938-8.58c2.504-7.042,2.515-13.484,2.644-18.465c0.105-10.469-2.393-16.044-4.551-18.316
		c-2.182-2.341-3.956-1.914-3.956-1.914s-1.744,0.333-3.155,2.956c-1.437,2.689-2.626,7.22-2.712,17.208
		c-0.073,5.195,0.579,10.761,0.014,15.394c-0.456,4.604-2.858,9.58-5.75,13.957c-2.885,4.379-5.982,8.228-8.047,11.058
		c-0.053,0.072-0.091,0.124-0.143,0.195c-2.66,1.486-4.313,2.41-4.313,2.41s1.047-0.114,2.77-0.302
		c-1.024,1.398-1.646,2.247-1.646,2.247s1.626-0.97,4.243-2.53c0.087-0.01,0.152-0.017,0.241-0.026
		c3.483-0.373,8.365-1.131,13.599-1.44c5.236-0.316,10.748,0.092,14.962,1.999c4.295,1.827,8.789,5.174,13.324,7.709
		c8.693,4.92,13.212,6.156,16.259,6.256C159.647,669.214,160.808,667.87,160.808,667.87z M146.046,622.569
		c3.328-4.281,5.891-9.7,7.376-15.43c1.44-5.674,2.347-11.135,5.153-15.402c5.429-8.893,15.855-13.54,24.54-14.397
		c8.906-0.852,15.361,1.46,18.595,4.365c2.402,2.13,3.5,4.441,4.073,6.301c-0.76,0.041-1.269,0.215-1.574,0.342
		c-0.634,0.285-0.606,0.512-0.606,0.512s-0.014,0.224,0.508,0.606c0.4,0.312,1.181,0.71,2.291,1.523
		c0.15,1.368,0.104,2.243,0.174,2.746c0.07,0.643,0.271,0.743,0.271,0.743s0.183,0.138,0.747-0.269
		c0.262-0.201,0.668-0.554,1.083-1.192c1.325,1.425,2.776,3.532,3.42,6.677c0.898,4.253-0.327,10.999-5.517,18.286
		c-5.084,7.093-14.322,13.798-24.738,14.053c-5.097,0.297-10.28-1.648-15.914-3.238c-5.705-1.579-11.68-2.069-17.05-1.327
		c-3.494,0.425-6.709,1.263-9.668,2.315C141.598,627.748,143.931,625.382,146.046,622.569z M111.388,645.846
		c2.073-1.674,4.227-3.64,6.195-6.021c1.771-0.269,4.136-0.714,6.952-1.675c0.156-0.05,0.329-0.123,0.488-0.176
		c-0.125,0.111-0.275,0.225-0.396,0.335c-2.259,1.976-3.787,3.778-4.906,5.181C116.667,644.003,113.88,644.886,111.388,645.846z"/>
	<path d="M176.821,603.214c3.671-5.048,0.733-7.118,0.733-7.118s-2.875-2.157-6.546,2.891c-3.671,5.048-6.749,15.39-6.749,15.39
		S173.15,608.263,176.821,603.214z"/>
	<path d="M194.465,590.758c1.285-3.843-2.134-4.95-2.134-4.95s-3.397-1.173-4.682,2.67c-1.285,3.843,0.028,11.247,0.028,11.247
		S193.18,594.601,194.465,590.758z"/>
	<path d="M440.354,140.914c0,0,3.261,1.51,5.798-4.194c2.536-5.703,3.387-16.46,3.387-16.46s-7.418,7.836-9.954,13.539
		C437.048,139.503,440.354,140.914,440.354,140.914z"/>
	<path d="M438.833,158.856c0,0,2.668,2.408,5.354-0.627c2.686-3.035,4.372-10.363,4.372-10.363s-7.069,2.565-9.754,5.599
		C436.118,156.501,438.833,158.856,438.833,158.856z"/>
	<path d="M265.297,129.612c1.308-0.602,2.255-2.104,1.391-3.748c-4.411-8.391-8.596-16.919-14.568-24.333
		c-0.077-0.099-0.135-0.218-0.222-0.302c-0.026-0.032-0.047-0.067-0.073-0.099c-0.975-1.191-2.246-1.074-3.197-0.383
		c-1.072,0.478-1.807,1.52-1.264,2.958c0.015,0.038,0.034,0.073,0.049,0.112c0.03,0.118,0.105,0.23,0.153,0.347
		c3.435,8.877,8.727,16.764,13.788,24.779C262.346,130.514,264.122,130.445,265.297,129.612z"/>
	<path d="M85.196,291.26c2.605,0.055,8.34-1.787,12.498-10.682c1.985-4.376,2.891-10.021,2.308-15.454
		c-0.541-5.417-2.415-10.474-4.643-14.472c-2.54-4.432-5.297-7.725-7.335-9.699c2.728,0.778,6.959,1.519,12.068,1.502
		c4.576-0.07,9.893-0.975,14.854-3.215c4.997-2.212,9.432-5.819,12.23-9.726c5.625-8.049,4.353-13.937,3.002-16.165
		c-1.511-2.42-3.336-2.416-3.336-2.416s-1.79-0.06-3.771,1.346c-2.138,1.4-4.074,3.878-7.515,8.774
		c-1.774,2.465-4.006,5.281-6.912,7.825c-2.909,2.575-6.5,4.865-10.083,6.556c-5.066,2.331-9.835,3.701-12.204,4.057
		c-0.705-0.522-1.186-0.737-1.302-0.565c0.128-0.116,0.338,0.157,0.582,0.651c-0.55,0.036-0.89-0.01-0.854-0.179
		c-0.091,0.186,0.336,0.496,1.14,0.845c0.876,2.229,2.074,7.044,2.588,12.597c0.328,3.949,0.14,8.204-0.636,12.01
		c-0.75,3.789-2.072,7.13-3.32,9.898c-2.519,5.427-3.698,8.343-3.841,10.895c-0.227,2.418,0.72,3.939,0.72,3.939
		S82.344,291.161,85.196,291.26z"/>
	<path d="M187.555,286.867c0,0,0.431-3.568-5.777-4.223c-6.207-0.655-16.703,1.851-16.703,1.851s9.741,4.642,15.948,5.297
		C187.232,290.447,187.555,286.867,187.555,286.867z"/>
	<path d="M200.634,298.844c3.971-0.809,3.22-4.323,3.22-4.323s-0.683-3.528-4.654-2.72c-3.971,0.809-9.726,5.648-9.726,5.648
		S196.663,299.653,200.634,298.844z"/>
	<path d="M719.686,289.791c6.207-0.655,15.948-5.297,15.948-5.297s-10.495-2.506-16.703-1.851c-6.207,0.655-5.777,4.223-5.777,4.223
		S713.478,290.447,719.686,289.791z"/>
	<path d="M700.076,298.844c3.971,0.809,11.16-1.395,11.16-1.395s-5.755-4.839-9.726-5.648c-3.971-0.808-4.654,2.72-4.654,2.72
		S696.105,298.035,700.076,298.844z"/>
</g>
<g>
</g>
<g>
</g>
<g>
</g>
<g>
</g>
<g>
</g>
<g>
</g>
</svg>
