<?xml version="1.0" encoding="iso-8859-1"?>
<!-- Generator: Adobe Illustrator 22.0.1, SVG Export Plug-In . SVG Version: 6.00 Build 0)  -->
<svg version="1.1" id="Layer_1" xmlns="http://www.w3.org/2000/svg" xmlns:xlink="http://www.w3.org/1999/xlink" x="0px" y="0px"
	 width="900px" height="900px" viewBox="0 0 900 900" enable-background="new 0 0 900 900" xml:space="preserve">
<g>
	<path d="M596.076,368.859c0.128,0.427,0.177,0.844,0.429,1.282c3.578,6.198,13.216,0.647,9.632-5.561
		c-0.252-0.437-0.59-0.688-0.896-1.012c-0.128-0.427-0.177-0.844-0.429-1.281c-3.584-6.208-13.21-0.637-9.632,5.561
		C595.433,368.284,595.77,368.535,596.076,368.859z"/>
	<path d="M541.2,299.215c0.864,1.374,2.28,2.397,4.403,2.397c6.94,0,7.099-10.375,0.568-11.007
		c-3.813-5.34-12.718-0.015-9.248,5.995C537.985,298.44,539.578,299.153,541.2,299.215z"/>
	<path d="M531.283,316.391c0.893,1.124,2.249,1.903,4.124,1.903c6.749,0,7.061-9.777,1.072-10.904
		c-3.971-4.621-12.281,0.536-8.907,6.381C528.511,315.396,529.863,316.18,531.283,316.391z"/>
	<path d="M552.482,279.674c0.458,2.307,2.126,4.328,5.169,4.328c7.157,0,7.169-11.122,0-11.122c-0.538,0-0.956,0.171-1.413,0.287
		c-0.128-0.454-0.188-0.901-0.457-1.367c-3.584-6.208-13.21-0.637-9.632,5.561C547.671,279.996,550.255,280.431,552.482,279.674z"/>
	<path d="M687.036,323.067c7.061-4.48,14.349-8.519,21.89-12.131c3.593-1.721,3.39-5.402,1.459-7.851
		c-1.027-3.088-4.299-5.34-7.722-2.996c-6.899,4.725-14.041,9.017-21.451,12.892c-3.298,1.725-3.342,5.126-1.769,7.556
		C680.678,323.28,683.776,325.135,687.036,323.067z"/>
	<path d="M659.984,452.285c-0.269-0.466-0.626-0.742-0.955-1.08c0.329-0.338,0.686-0.614,0.955-1.08
		c3.584-6.208-6.054-11.759-9.632-5.561c-1.522,2.635-0.606,5.091,1.163,6.641c-1.769,1.55-2.684,4.006-1.163,6.641
		C653.93,464.044,663.568,458.493,659.984,452.285z"/>
	<path d="M622.776,157.922c-2.635,5.964-5.429,11.935-8.348,17.788c-1.196,1.685-2.333,3.301-3.601,5.065
		c3.994-3.291,9.35-8.385,15.363-14.827c6.056-6.454,12.58-14.409,19.742-21.032c1.335-1.215,2.615-2.323,3.858-3.321
		c1.402-0.964,2.741-1.885,4.034-2.774c2.56-1.801,4.832-3.523,6.95-5.201c4.629-3.331,8.427-6.425,12.132-9.552
		c7.411-6.253,14.453-12.635,27.035-21.299c-14.296,7.505-23.335,10.441-32.314,13.539c-4.492,1.553-8.959,3.126-14.079,5.368
		c-2.638,1.289-5.461,2.768-8.536,4.515c-1.537,0.885-3.14,1.789-4.81,2.857c-0.48,0.348-0.955,0.801-1.434,1.174
		c0.084-0.601,0.239-1.239,0.3-1.828c0.09-1.98,0.071-3.82,0.069-5.594c-0.025-3.537-0.156-6.721-0.358-9.65
		c-0.619-5.555-1.49-10.21-2.391-14.877c-1.808-9.325-3.784-18.621-4.432-34.754c-1.212,15.228-3.218,24.518-4.928,34.062
		c-0.855,4.772-1.636,9.608-2.206,15.282c-0.394,2.673-0.75,5.503-1.029,8.62c-0.124,1.565-0.251,3.185-0.385,4.881
		c-0.242,1.575-0.562,3.237-0.947,5.001c-2.154,9.514-5.782,19.14-8.343,27.613c-2.572,8.429-4.306,15.615-5.159,20.719
		c0.894-1.98,1.725-3.773,2.586-5.652C615.155,168.591,618.929,163.185,622.776,157.922z M643.041,135.476
		c6.421-4.246,12.106-7.406,16.117-9.539c4.04-2.048,6.428-3.258,6.428-3.258s-0.769,0.508-2.774,1.834
		c-2.008,1.327-5.356,3.396-10.188,6.875c-2.369,1.788-5.449,3.526-8.47,6.194c-3.019,2.675-6.185,6.053-9.504,10.187
		c-1.087,1.362-2.245,2.924-3.386,4.443c1.682-3.087,3.265-6.471,4.611-10.235C638.221,139.574,640.602,137.333,643.041,135.476z
		 M625.632,142.562c1.92-4.941,3.263-9.373,4.07-13.325c0.8-3.95,0.765-7.486,1.129-10.432c0.597-5.924,0.715-9.858,0.86-12.26
		c0.146-2.4,0.201-3.32,0.201-3.32s0.146,2.673,0.392,7.197c0.158,4.539,0.264,11.043-0.203,18.727
		c-0.388,3.041-1.138,6.224-2.045,9.457c-2.587,3.048-4.727,6.11-6.559,9.11C624.222,145.968,624.996,144.184,625.632,142.562z"/>
	<path d="M596.076,533.551c-0.305,0.324-0.643,0.575-0.895,1.012c-3.578,6.198,6.048,11.769,9.632,5.561
		c0.252-0.437,0.301-0.855,0.429-1.281c0.306-0.324,0.644-0.576,0.896-1.012c3.584-6.208-6.054-11.759-9.632-5.561
		C596.253,532.707,596.204,533.125,596.076,533.551z"/>
	<path d="M629.077,446.194c-1.062,1.839-0.884,3.576-0.126,5.011c-0.758,1.435-0.936,3.173,0.126,5.011
		c3.47,6.01,12.535,0.961,9.816-5.011C641.612,445.233,632.547,440.183,629.077,446.194z"/>
	<path d="M609.532,446.682c-0.938,1.624-0.941,3.188-0.413,4.523c-0.527,1.336-0.524,2.899,0.413,4.523
		c3.374,5.844,11.997,1.226,9.979-4.523C621.529,445.456,612.906,440.837,609.532,446.682z"/>
	<path d="M660.774,768.79c-2.118-1.678-4.391-3.401-6.95-5.201c-1.293-0.889-2.633-1.81-4.034-2.774
		c-1.243-0.997-2.523-2.105-3.858-3.32c-7.162-6.623-13.685-14.578-19.742-21.032c-6.013-6.442-11.37-11.537-15.363-14.827
		c1.268,1.764,2.404,3.38,3.601,5.065c2.919,5.853,5.713,11.824,8.347,17.788c-3.847-5.263-7.621-10.668-11.23-16.122
		c-0.861-1.879-1.693-3.671-2.586-5.652c0.853,5.104,2.586,12.29,5.159,20.719c2.561,8.472,6.189,18.099,8.343,27.613
		c0.385,1.764,0.704,3.426,0.947,5.001c0.134,1.696,0.262,3.316,0.385,4.881c0.28,3.117,0.635,5.947,1.029,8.62
		c0.57,5.674,1.351,10.51,2.206,15.282c1.71,9.545,3.716,18.835,4.928,34.063c0.648-16.133,2.625-25.429,4.432-34.754
		c0.901-4.667,1.772-9.322,2.391-14.877c0.203-2.93,0.333-6.113,0.358-9.65c0.002-1.774,0.021-3.613-0.069-5.594
		c-0.061-0.59-0.217-1.228-0.3-1.829c0.479,0.373,0.953,0.826,1.434,1.174c1.67,1.068,3.272,1.972,4.81,2.857
		c3.076,1.747,5.898,3.225,8.536,4.515c5.12,2.242,9.587,3.814,14.079,5.368c8.979,3.097,18.018,6.034,32.314,13.539
		c-12.582-8.664-19.624-15.046-27.035-21.299C669.201,775.215,665.403,772.12,660.774,768.79z M632.284,791.988
		c-0.246,4.523-0.392,7.197-0.392,7.197s-0.056-0.92-0.201-3.32c-0.145-2.403-0.263-6.337-0.86-12.26
		c-0.364-2.945-0.329-6.481-1.129-10.432c-0.807-3.952-2.15-8.384-4.07-13.325c-0.636-1.623-1.41-3.406-2.155-5.155
		c1.832,3.001,3.972,6.063,6.559,9.111c0.907,3.233,1.658,6.416,2.045,9.457C632.548,780.945,632.442,787.449,632.284,791.988z
		 M659.158,776.473c-4.01-2.133-9.696-5.293-16.117-9.539c-2.44-1.856-4.821-4.098-7.167-6.5c-1.346-3.764-2.928-7.148-4.61-10.235
		c1.142,1.519,2.299,3.082,3.386,4.443c3.319,4.133,6.485,7.513,9.504,10.187c3.021,2.668,6.101,4.406,8.47,6.193
		c4.832,3.479,8.18,5.548,10.188,6.875c2.006,1.326,2.774,1.834,2.774,1.834S663.199,778.521,659.158,776.473z"/>
	<path d="M536.923,605.81c-3.47,6.01,5.435,11.335,9.248,5.995c6.531-0.631,6.372-11.007-0.568-11.007
		c-2.123,0-3.539,1.023-4.403,2.397C539.578,603.257,537.985,603.971,536.923,605.81z"/>
	<path d="M546.149,625.049c-3.578,6.198,6.048,11.769,9.632,5.561c0.269-0.466,0.33-0.913,0.458-1.367
		c0.457,0.116,0.875,0.287,1.413,0.287c7.169,0,7.157-11.122,0-11.122c-3.043,0-4.712,2.021-5.17,4.328
		C550.255,621.979,547.671,622.414,546.149,625.049z"/>
	<path d="M708.926,591.474c-7.542-3.612-14.829-7.651-21.89-12.131c-3.26-2.068-6.358-0.212-7.592,2.53
		c-1.573,2.43-1.529,5.831,1.769,7.556c7.41,3.875,14.552,8.167,21.451,12.892c3.423,2.344,6.695,0.092,7.722-2.996
		C712.317,596.876,712.52,593.195,708.926,591.474z"/>
	<path d="M757.104,453.314c-1.693-0.713-3.313-1.418-4.929-2.109c1.616-0.691,3.236-1.396,4.929-2.109
		c5.073-2.241,10.364-4.837,15.81-7.836c32.446-17.587,34.407-26.014,67.145-43.207c-32.432,12.902-41.938,11.394-74.851,29.264
		c-5.559,3.062-10.833,6.217-15.767,9.32c-2.414,1.573-4.779,3.113-7.09,4.618c-2.167,1.458-3.973,2.622-5.552,3.352
		c-2.786,1.444-6.651,1.475-10.689,1.29c-1.839-0.084-3.675-0.154-5.456-0.156c2.315-1.029,4.646-2.202,6.967-3.714
		c9.165-5.994,13.234-11.155,17.027-16.368c3.768-5.266,7.287-10.608,14.658-18.188c-8.195,5.819-14.175,8.067-20.043,10.521
		c-5.906,2.416-11.695,5.037-20.339,10.689c-11.283,7.391-20.699,14.766-25.703,19.766c-0.843-2.377-3.329-4.165-5.993-3.944
		c-20.592-18.63-39.097-35.531-61.831-44.8c7.647-11.772,14.47-24.238,20.589-36.071c3.672,17.666,10.613,31.945,20.151,48.333
		c3.605,6.194,13.232,0.625,9.632-5.561c-5.129-8.811-11.182-17.59-14.836-27.159c-0.604-1.581-1.066-3.21-1.542-4.834
		c10.254,13.07,23.275,24.569,39.331,27.416c10.567,1.874,22.33-0.519,32.372-3.813c5.386-1.767,9.951-4.128,14.972-6.643
		c5.831-3.699,12.05-6.593,18.658-8.684c8.845-4.01,14.829-1.424,17.951,7.756c-6.376,3.263-0.798,12.886,5.561,9.632
		c0.336-0.172,0.564-0.358,0.88-0.533c0.139-0.034,0.252,0.004,0.394-0.04c13.759-4.31,13.061-24.144,8.423-35.12
		c-4.783-11.32-12.284-17.816-22.059-20.987c2.497-1.01,5.014-1.977,7.609-2.773c6.64-2.996,13.296-3.618,19.969-1.866
		c-5.478,3.2-1.732,11.094,3.502,10.333c2.276,0.829,4.992,0.449,6.622-2.202c7.834-12.74-2.107-29.43-12.802-37.369
		c-6.381-4.736-15.097-7.979-23.579-8.284c7.71-7.826,16.247-13.499,25.845-11.246c1.05,0.246,1.969,0.145,2.814-0.097
		c4.756,0.698,9.382-5.274,4.915-9.206c-2.098-1.846-4.301-3.447-6.558-4.899c12.748-5.893,15.734-25.312,26.637-34.171
		c3.152-2.561,1.938-6.171-0.705-7.996c-0.333-3.131-2.754-5.876-6.482-4.452c-13.124,5.013-31.434-2.11-42.912,5.984
		c-0.129-2.68-0.414-5.39-0.964-8.129c-1.172-5.834-8.657-4.814-10.431-0.346c-0.633,0.611-1.179,1.356-1.491,2.388
		c-2.848,9.439-12.029,13.995-22.661,16.759c3.977-7.498,5.526-16.668,4.615-24.562c-1.528-13.232-11.011-30.187-25.961-29.772
		c-3.111,0.087-4.798,2.249-5.218,4.634c-3.276,4.152,1.687,11.344,7.197,8.199c-1.82,6.655-5.687,12.108-11.601,16.361
		c-1.987,1.85-4.082,3.546-6.206,5.203c2.141-10.051,0.265-19.795-7.146-29.597c-7.187-9.505-24.015-20.027-34.627-10.266
		c-0.11,0.101-0.133,0.218-0.231,0.321c-0.309,0.186-0.585,0.291-0.902,0.496c-5.998,3.88-0.453,13.523,5.561,9.632
		c6.389,7.294,5.636,13.768-2.258,19.424c-5.115,4.678-10.731,8.617-16.85,11.817c-4.689,3.091-9.016,5.864-13.239,9.645
		c-7.873,7.049-15.827,16.039-19.488,26.128c-5.562,15.329-2.114,32.354,4.077,47.77c-1.168-1.224-2.347-2.439-3.415-3.752
		c-6.46-7.95-11.036-17.581-16.103-26.428c-3.557-6.211-13.193-0.658-9.632,5.561c9.423,16.455,18.319,29.604,31.782,41.618
		c-13.306-0.617-27.514-0.942-41.533-0.205c3.34-24.323-2.044-48.799-7.882-75.947c1.524-2.197,1.218-5.244-0.419-7.163
		c6.831-1.833,17.927-6.3,29.969-12.376c9.217-4.66,14.382-8.363,19.427-12.27c5.059-3.855,9.996-7.91,19.133-12.097
		c-10.249,2.594-16.635,2.97-23.08,3.6c-6.412,0.678-12.915,1.621-22.689,6.561c-2.465,1.252-4.643,2.681-6.689,4.168
		c0.886-1.539,1.738-3.165,2.582-4.794c1.859-3.59,3.818-6.921,6.461-8.612c1.422-1.002,3.333-1.984,5.679-3.131
		c2.46-1.249,4.976-2.527,7.545-3.832c5.154-2.722,10.524-5.711,15.955-8.995c31.932-19.568,35.38-28.554,62.769-50.19
		c-31.259,19.755-39.538,17.24-70.991,36.546c-5.32,3.216-10.214,6.501-14.691,9.773c-1.464,1.11-2.885,2.16-4.291,3.214
		c0.209-1.745,0.409-3.5,0.638-5.323c0.595-5.514,0.993-11.394,1.118-17.61c0.992-36.893-5.325-42.804-3.846-79.753
		c-5.043,34.538-11.102,42.017-12.081,79.455c-0.128,6.345-0.032,12.49,0.188,18.315c0.154,2.877,0.306,5.695,0.454,8.45
		c0.179,2.605,0.284,4.752,0.128,6.484c-0.143,3.135-2.048,6.497-4.228,9.902c-0.989,1.546-1.971,3.097-2.861,4.633
		c0.265-2.515,0.414-5.116,0.266-7.877c-0.609-10.935-3.043-17.038-5.662-22.93c-2.676-5.896-5.544-11.615-8.422-21.788
		c0.942,10.006-0.101,16.309-0.91,22.618c-0.861,6.322-1.485,12.647-0.913,22.959c0.76,13.467,2.438,25.31,4.267,32.142
		c-2.48-0.459-5.272,0.801-6.413,3.218c-26.43,8.518-50.319,16.093-69.713,31.147c-6.371-12.509-13.757-24.65-20.944-35.865
		c17.135,5.652,32.972,6.782,51.933,6.715c7.167-0.025,7.157-11.147,0-11.122c-10.196,0.036-20.824,0.889-30.939-0.731
		c-1.671-0.268-3.313-0.682-4.958-1.081c16.446-2.346,32.915-7.872,43.409-20.353c6.906-8.215,10.715-19.598,12.883-29.941
		c1.163-5.547,1.401-10.681,1.733-16.288c-0.288-6.899,0.315-13.732,1.809-20.501c0.95-9.665,6.181-13.554,15.692-11.668
		c-0.362,7.154,10.761,7.134,11.122,0c0.019-0.377-0.028-0.669-0.021-1.03c0.04-0.137,0.129-0.215,0.162-0.36
		c3.147-14.07-14.379-23.383-26.204-24.854c-12.194-1.517-21.571,1.73-29.205,8.61c0.373-2.667,0.795-5.33,1.403-7.976
		c0.725-7.248,3.515-13.324,8.369-18.227c0.032,6.343,8.741,7.046,10.699,2.133c1.856-1.557,2.885-4.098,1.404-6.836
		c-7.116-13.155-26.54-12.891-38.764-7.597c-7.292,3.158-14.458,9.084-18.964,16.278c-2.922-10.59-3.567-20.819,3.183-28.005
		c0.739-0.786,1.111-1.632,1.323-2.486c2.983-3.77,0.124-10.762-5.515-8.86c-2.648,0.893-5.136,2.001-7.522,3.229
		c1.27-13.986-14.054-26.282-16.274-40.154c-0.637-3.981-4.294-4.681-7.186-3.346c-2.892-1.335-6.55-0.636-7.187,3.346
		c-2.22,13.872-17.545,26.168-16.274,40.154c-2.386-1.228-4.874-2.336-7.522-3.229c-5.639-1.902-8.498,5.091-5.515,8.86
		c0.213,0.853,0.584,1.699,1.323,2.486c6.751,7.186,6.106,17.415,3.183,28.005c-4.505-7.194-11.672-13.12-18.964-16.278
		c-12.224-5.293-31.648-5.558-38.764,7.597c-1.481,2.737-0.452,5.279,1.404,6.836c1.958,4.913,10.668,4.211,10.699-2.133
		c4.854,4.903,7.643,10.979,8.369,18.227c0.609,2.646,1.03,5.309,1.403,7.976c-7.635-6.88-17.011-10.128-29.205-8.61
		c-11.825,1.471-29.351,10.784-26.204,24.854c0.033,0.146,0.122,0.224,0.162,0.361c0.007,0.361-0.04,0.652-0.021,1.029
		c0.361,7.134,11.484,7.154,11.122,0c9.511-1.886,14.742,2.003,15.692,11.668c1.494,6.769,2.097,13.602,1.809,20.501
		c0.332,5.606,0.57,10.74,1.733,16.288c2.168,10.343,5.976,21.727,12.883,29.941c10.494,12.481,26.963,18.008,43.409,20.353
		c-1.644,0.399-3.287,0.814-4.958,1.081c-10.115,1.62-20.743,0.767-30.939,0.731c-7.158-0.025-7.167,11.097,0,11.122
		c18.961,0.067,34.797-1.062,51.933-6.715c-7.188,11.216-14.573,23.357-20.944,35.865c-19.394-15.054-43.283-22.629-69.713-31.147
		c-1.141-2.418-3.933-3.677-6.413-3.218c1.828-6.832,3.507-18.675,4.267-32.142c0.572-10.312-0.052-16.637-0.913-22.959
		c-0.81-6.309-1.852-12.612-0.91-22.618c-2.878,10.173-5.746,15.892-8.422,21.788c-2.619,5.892-5.054,11.995-5.662,22.93
		c-0.149,2.761,0.001,5.361,0.266,7.877c-0.89-1.537-1.872-3.088-2.861-4.633c-2.179-3.405-4.085-6.767-4.228-9.902
		c-0.156-1.732-0.052-3.878,0.128-6.484c0.148-2.755,0.299-5.573,0.454-8.45c0.22-5.824,0.316-11.97,0.187-18.315
		c-0.98-37.438-7.038-44.917-12.081-79.455c1.479,36.949-4.839,42.861-3.846,79.753c0.125,6.215,0.523,12.096,1.118,17.61
		c0.229,1.823,0.429,3.579,0.638,5.323c-1.406-1.054-2.827-2.104-4.291-3.214c-4.477-3.272-9.371-6.557-14.691-9.773
		c-31.454-19.306-39.732-16.791-70.991-36.546c27.39,21.636,30.837,30.622,62.769,50.19c5.431,3.284,10.801,6.273,15.955,8.995
		c2.569,1.305,5.085,2.583,7.545,3.832c2.346,1.147,4.257,2.13,5.679,3.131c2.644,1.691,4.603,5.022,6.461,8.612
		c0.844,1.63,1.697,3.255,2.582,4.794c-2.046-1.487-4.223-2.917-6.689-4.168c-9.774-4.94-16.277-5.883-22.689-6.561
		c-6.444-0.631-12.83-1.006-23.08-3.6c9.137,4.188,14.074,8.242,19.133,12.097c5.045,3.906,10.21,7.609,19.427,12.27
		c12.042,6.076,23.138,10.543,29.969,12.376c-1.637,1.919-1.943,4.966-0.419,7.163c-5.838,27.149-11.222,51.625-7.882,75.948
		c-14.019-0.737-28.227-0.412-41.533,0.205c13.463-12.014,22.359-25.163,31.782-41.618c3.561-6.219-6.075-11.772-9.632-5.561
		c-5.066,8.848-9.642,18.478-16.103,26.428c-1.067,1.314-2.247,2.529-3.415,3.753c6.192-15.416,9.64-32.441,4.078-47.77
		c-3.661-10.088-11.615-19.079-19.488-26.128c-4.223-3.781-8.55-6.554-13.239-9.645c-6.118-3.2-11.735-7.139-16.85-11.817
		c-7.895-5.655-8.648-12.13-2.258-19.424c6.014,3.891,11.559-5.752,5.561-9.632c-0.317-0.205-0.593-0.31-0.903-0.497
		c-0.098-0.103-0.121-0.22-0.231-0.32c-10.612-9.761-27.44,0.761-34.626,10.266c-7.411,9.802-9.287,19.546-7.146,29.598
		c-2.123-1.657-4.219-3.354-6.206-5.204c-5.914-4.253-9.781-9.706-11.601-16.361c5.51,3.144,10.472-4.048,7.197-8.199
		c-0.42-2.386-2.107-4.548-5.218-4.634c-14.95-0.415-24.434,16.539-25.962,29.772c-0.911,7.894,0.638,17.063,4.615,24.562
		c-10.633-2.764-19.813-7.32-22.661-16.759c-0.312-1.033-0.858-1.778-1.491-2.389c-1.773-4.468-9.259-5.488-10.431,0.347
		c-0.55,2.74-0.835,5.449-0.964,8.129c-11.477-8.093-29.788-0.97-42.912-5.983c-3.727-1.424-6.148,1.321-6.481,4.452
		c-2.643,1.824-3.858,5.434-0.706,7.996c10.903,8.859,13.89,28.279,26.638,34.171c-2.256,1.452-4.46,3.053-6.558,4.899
		c-4.467,3.932,0.159,9.904,4.915,9.206c0.845,0.242,1.764,0.344,2.814,0.097c9.598-2.253,18.134,3.42,25.845,11.246
		c-8.482,0.305-17.198,3.548-23.579,8.284c-10.696,7.939-20.637,24.629-12.802,37.369c1.631,2.651,4.346,3.031,6.622,2.202
		c5.234,0.761,8.981-7.133,3.503-10.333c6.673-1.752,13.329-1.13,19.969,1.866c2.596,0.796,5.113,1.762,7.609,2.773
		c-9.775,3.172-17.276,9.668-22.059,20.987c-4.638,10.976-5.336,30.811,8.423,35.12c0.142,0.044,0.255,0.006,0.393,0.04
		c0.316,0.175,0.545,0.361,0.88,0.533c6.359,3.254,11.938-6.369,5.561-9.632c3.122-9.18,9.106-11.765,17.951-7.756
		c6.609,2.09,12.828,4.985,18.659,8.684c5.021,2.515,9.586,4.876,14.972,6.643c10.042,3.294,21.804,5.688,32.371,3.813
		c16.056-2.847,29.077-14.347,39.331-27.416c-0.476,1.624-0.938,3.253-1.542,4.834c-3.655,9.57-9.707,18.348-14.836,27.159
		c-3.601,6.186,6.026,11.755,9.632,5.561c9.539-16.388,16.479-30.667,20.151-48.333c6.119,11.833,12.941,24.299,20.589,36.071
		c-22.734,9.269-41.239,26.17-61.832,44.8c-2.664-0.221-5.15,1.567-5.993,3.944c-5.003-5-14.42-12.375-25.702-19.766
		c-8.644-5.652-14.434-8.273-20.339-10.689c-5.868-2.453-11.848-4.702-20.043-10.521c7.371,7.579,10.89,12.922,14.658,18.188
		c3.793,5.214,7.861,10.374,17.027,16.368c2.321,1.512,4.652,2.684,6.967,3.714c-1.781,0.002-3.617,0.072-5.456,0.156
		c-4.038,0.185-7.903,0.154-10.689-1.29c-1.578-0.73-3.385-1.894-5.551-3.352c-2.312-1.505-4.676-3.046-7.09-4.618
		c-4.934-3.102-10.208-6.258-15.768-9.32c-32.912-17.87-42.418-16.363-74.851-29.264c32.738,17.194,34.699,25.621,67.145,43.207
		c5.445,2.999,10.737,5.595,15.809,7.836c1.693,0.713,3.314,1.418,4.929,2.109c-1.616,0.691-3.236,1.396-4.929,2.109
		c-5.073,2.241-10.364,4.837-15.809,7.836c-32.446,17.587-34.407,26.014-67.145,43.208c32.433-12.902,41.939-11.394,74.851-29.265
		c5.559-3.062,10.833-6.217,15.768-9.32c2.414-1.573,4.779-3.113,7.09-4.618c2.167-1.458,3.973-2.622,5.551-3.352
		c2.787-1.444,6.651-1.475,10.689-1.29c1.839,0.084,3.675,0.154,5.456,0.156c-2.315,1.029-4.646,2.202-6.967,3.714
		c-9.166,5.994-13.234,11.155-17.027,16.368c-3.768,5.265-7.287,10.608-14.658,18.188c8.195-5.819,14.175-8.067,20.043-10.521
		c5.906-2.416,11.695-5.038,20.339-10.689c11.283-7.391,20.699-14.766,25.702-19.766c0.843,2.377,3.33,4.166,5.994,3.944
		c20.592,18.63,39.097,35.531,61.831,44.8c-7.647,11.772-14.47,24.238-20.589,36.071c-3.673-17.666-10.613-31.945-20.151-48.333
		c-3.606-6.194-13.233-0.625-9.632,5.561c5.129,8.811,11.181,17.589,14.836,27.159c0.604,1.581,1.066,3.21,1.542,4.834
		c-10.254-13.07-23.275-24.569-39.331-27.417c-10.567-1.874-22.33,0.519-32.371,3.813c-5.386,1.767-9.951,4.128-14.972,6.643
		c-5.831,3.699-12.05,6.593-18.659,8.684c-8.845,4.009-14.829,1.424-17.951-7.756c6.377-3.263,0.798-12.886-5.561-9.632
		c-0.336,0.172-0.565,0.358-0.881,0.533c-0.138,0.034-0.251-0.005-0.393,0.04c-13.759,4.31-13.061,24.144-8.423,35.12
		c4.783,11.32,12.284,17.816,22.059,20.987c-2.497,1.01-5.014,1.977-7.609,2.773c-6.64,2.996-13.296,3.617-19.969,1.866
		c5.478-3.199,1.731-11.093-3.503-10.332c-2.276-0.829-4.991-0.449-6.622,2.202c-7.835,12.74,2.107,29.43,12.802,37.369
		c6.38,4.736,15.096,7.979,23.579,8.284c-7.71,7.826-16.247,13.499-25.845,11.246c-1.05-0.246-1.969-0.146-2.814,0.097
		c-4.756-0.699-9.382,5.275-4.916,9.206c2.098,1.846,4.301,3.447,6.558,4.9c-12.748,5.893-15.734,25.312-26.638,34.171
		c-3.153,2.562-1.938,6.172,0.706,7.996c0.333,3.131,2.754,5.875,6.481,4.452c13.124-5.013,31.435,2.11,42.912-5.983
		c0.129,2.68,0.414,5.389,0.964,8.129c1.172,5.834,8.657,4.814,10.431,0.347c0.633-0.611,1.179-1.356,1.491-2.389
		c2.848-9.439,12.029-13.995,22.661-16.759c-3.977,7.498-5.526,16.668-4.615,24.562c1.528,13.232,11.011,30.187,25.962,29.772
		c3.111-0.087,4.798-2.248,5.218-4.634c3.276-4.152-1.687-11.344-7.197-8.199c1.819-6.655,5.686-12.108,11.601-16.361
		c1.987-1.85,4.083-3.546,6.206-5.204c-2.141,10.051-0.265,19.795,7.146,29.598c7.186,9.505,24.015,20.027,34.626,10.266
		c0.11-0.101,0.132-0.217,0.231-0.32c0.31-0.187,0.585-0.292,0.903-0.497c5.998-3.88,0.453-13.523-5.561-9.632
		c-6.389-7.294-5.636-13.768,2.258-19.424c5.115-4.678,10.731-8.617,16.85-11.817c4.689-3.09,9.016-5.863,13.239-9.644
		c7.874-7.049,15.828-16.039,19.488-26.128c5.562-15.329,2.114-32.355-4.077-47.77c1.168,1.224,2.347,2.439,3.415,3.753
		c6.46,7.95,11.036,17.581,16.103,26.428c3.557,6.211,13.193,0.658,9.632-5.561c-9.423-16.455-18.319-29.604-31.782-41.618
		c13.306,0.617,27.514,0.942,41.533,0.205c-3.34,24.323,2.044,48.799,7.882,75.947c-1.524,2.197-1.218,5.244,0.419,7.163
		c-6.831,1.833-17.927,6.301-29.969,12.376c-9.216,4.66-14.381,8.363-19.427,12.27c-5.059,3.855-9.996,7.91-19.133,12.097
		c10.25-2.594,16.635-2.97,23.08-3.601c6.412-0.677,12.915-1.621,22.689-6.561c2.465-1.252,4.643-2.681,6.689-4.168
		c-0.886,1.539-1.738,3.165-2.582,4.794c-1.859,3.59-3.818,6.921-6.461,8.612c-1.421,1.001-3.333,1.984-5.679,3.131
		c-2.46,1.249-4.975,2.527-7.545,3.831c-5.154,2.722-10.524,5.711-15.955,8.995c-31.932,19.567-35.379,28.554-62.769,50.19
		c31.259-19.755,39.538-17.24,70.991-36.546c5.32-3.216,10.214-6.501,14.691-9.773c1.464-1.11,2.885-2.16,4.291-3.214
		c-0.209,1.745-0.409,3.5-0.638,5.323c-0.595,5.514-0.993,11.394-1.118,17.61c-0.992,36.893,5.325,42.804,3.846,79.753
		c5.043-34.538,11.101-42.017,12.081-79.455c0.129-6.345,0.032-12.49-0.187-18.315c-0.155-2.877-0.306-5.695-0.454-8.45
		c-0.179-2.605-0.284-4.752-0.128-6.484c0.143-3.135,2.048-6.497,4.228-9.902c0.989-1.546,1.971-3.097,2.861-4.633
		c-0.265,2.515-0.414,5.116-0.266,7.877c0.609,10.935,3.043,17.038,5.662,22.93c2.676,5.896,5.544,11.615,8.422,21.788
		c-0.942-10.006,0.101-16.309,0.91-22.618c0.861-6.322,1.485-12.647,0.913-22.959c-0.76-13.467-2.438-25.31-4.267-32.142
		c2.48,0.459,5.272-0.801,6.413-3.219c26.43-8.518,50.319-16.093,69.713-31.147c6.371,12.508,13.756,24.65,20.944,35.865
		c-17.136-5.653-32.972-6.781-51.933-6.715c-7.167,0.025-7.158,11.147,0,11.122c10.195-0.036,20.824-0.889,30.939,0.731
		c1.671,0.268,3.313,0.682,4.958,1.081c-16.446,2.346-32.915,7.872-43.409,20.353c-6.907,8.215-10.715,19.598-12.883,29.941
		c-1.163,5.547-1.401,10.681-1.733,16.288c0.288,6.899-0.315,13.732-1.809,20.501c-0.95,9.665-6.181,13.554-15.692,11.668
		c0.362-7.154-10.761-7.134-11.122,0c-0.019,0.377,0.028,0.668,0.021,1.029c-0.04,0.137-0.13,0.215-0.162,0.361
		c-3.147,14.07,14.379,23.383,26.204,24.854c12.195,1.517,21.571-1.731,29.205-8.61c-0.373,2.667-0.795,5.331-1.403,7.976
		c-0.726,7.248-3.515,13.324-8.369,18.227c-0.032-6.344-8.742-7.046-10.699-2.133c-1.856,1.557-2.885,4.098-1.404,6.836
		c7.116,13.155,26.54,12.89,38.764,7.598c7.292-3.158,14.458-9.084,18.964-16.278c2.922,10.59,3.567,20.819-3.183,28.005
		c-0.739,0.786-1.11,1.632-1.323,2.486c-2.983,3.77-0.124,10.762,5.515,8.86c2.648-0.893,5.136-2.001,7.522-3.229
		c-1.271,13.987,14.054,26.282,16.274,40.154c0.637,3.981,4.295,4.681,7.187,3.346c2.892,1.335,6.549,0.636,7.186-3.346
		c2.22-13.872,17.545-26.168,16.274-40.154c2.386,1.228,4.874,2.336,7.522,3.229c5.639,1.902,8.498-5.09,5.515-8.86
		c-0.213-0.853-0.585-1.699-1.323-2.486c-6.75-7.186-6.105-17.415-3.183-28.005c4.505,7.193,11.672,13.12,18.964,16.278
		c12.223,5.293,31.648,5.558,38.764-7.598c1.481-2.738,0.452-5.279-1.404-6.836c-1.958-4.913-10.667-4.211-10.699,2.133
		c-4.854-4.903-7.643-10.979-8.369-18.227c-0.609-2.646-1.03-5.308-1.403-7.976c7.634,6.88,17.011,10.127,29.205,8.61
		c11.825-1.471,29.351-10.784,26.204-24.854c-0.033-0.145-0.122-0.223-0.162-0.36c-0.007-0.361,0.04-0.652,0.021-1.029
		c-0.361-7.134-11.484-7.154-11.122,0c-9.511,1.886-14.742-2.003-15.692-11.668c-1.494-6.769-2.097-13.602-1.809-20.501
		c-0.332-5.606-0.57-10.74-1.733-16.288c-2.168-10.344-5.977-21.727-12.883-29.941c-10.494-12.481-26.963-18.008-43.409-20.353
		c1.644-0.399,3.287-0.814,4.958-1.081c10.115-1.62,20.743-0.767,30.939-0.731c7.157,0.025,7.167-11.097,0-11.122
		c-18.962-0.067-34.798,1.062-51.933,6.715c7.188-11.216,14.573-23.357,20.944-35.865c19.394,15.054,43.283,22.629,69.713,31.147
		c1.14,2.418,3.933,3.678,6.413,3.219c-1.828,6.832-3.507,18.675-4.267,32.142c-0.573,10.312,0.052,16.637,0.913,22.959
		c0.809,6.309,1.852,12.612,0.91,22.618c2.878-10.173,5.746-15.892,8.422-21.788c2.619-5.892,5.054-11.995,5.662-22.93
		c0.149-2.761-0.001-5.361-0.266-7.877c0.89,1.537,1.872,3.088,2.861,4.633c2.179,3.405,4.085,6.767,4.228,9.902
		c0.156,1.732,0.052,3.878-0.128,6.484c-0.148,2.755-0.3,5.573-0.454,8.45c-0.22,5.824-0.316,11.969-0.188,18.315
		c0.98,37.438,7.038,44.917,12.081,79.455c-1.478-36.949,4.839-42.861,3.846-79.753c-0.125-6.215-0.523-12.096-1.118-17.61
		c-0.229-1.823-0.428-3.578-0.638-5.323c1.406,1.054,2.827,2.104,4.291,3.214c4.478,3.272,9.371,6.557,14.691,9.773
		c31.454,19.306,39.732,16.791,70.991,36.546c-27.389-21.636-30.837-30.623-62.769-50.19c-5.431-3.284-10.801-6.273-15.955-8.995
		c-2.569-1.304-5.085-2.582-7.545-3.831c-2.346-1.148-4.257-2.13-5.679-3.131c-2.643-1.691-4.602-5.022-6.461-8.612
		c-0.844-1.63-1.697-3.255-2.582-4.794c2.046,1.487,4.223,2.917,6.689,4.168c9.774,4.94,16.277,5.883,22.689,6.561
		c6.444,0.631,12.83,1.007,23.08,3.601c-9.136-4.188-14.074-8.242-19.133-12.097c-5.045-3.906-10.21-7.609-19.427-12.27
		c-12.042-6.076-23.138-10.543-29.969-12.376c1.637-1.918,1.943-4.966,0.419-7.163c5.839-27.148,11.222-51.624,7.882-75.947
		c14.019,0.737,28.226,0.412,41.533-0.205c-13.463,12.014-22.359,25.163-31.782,41.618c-3.562,6.219,6.075,11.772,9.632,5.561
		c5.067-8.848,9.642-18.478,16.103-26.428c1.067-1.313,2.247-2.528,3.415-3.752c-6.191,15.415-9.639,32.44-4.077,47.769
		c3.661,10.088,11.615,19.079,19.488,26.128c4.223,3.781,8.55,6.554,13.239,9.644c6.118,3.2,11.735,7.139,16.85,11.817
		c7.894,5.655,8.647,12.13,2.258,19.424c-6.014-3.891-11.559,5.752-5.561,9.632c0.317,0.205,0.593,0.31,0.902,0.496
		c0.098,0.103,0.122,0.22,0.231,0.321c10.612,9.761,27.44-0.761,34.627-10.266c7.411-9.802,9.286-19.546,7.146-29.597
		c2.123,1.657,4.219,3.353,6.206,5.203c5.914,4.253,9.781,9.706,11.601,16.361c-5.51-3.144-10.473,4.048-7.197,8.199
		c0.42,2.385,2.107,4.548,5.218,4.634c14.95,0.415,24.434-16.539,25.961-29.772c0.911-7.894-0.638-17.063-4.615-24.562
		c10.633,2.764,19.814,7.32,22.661,16.759c0.312,1.032,0.858,1.778,1.491,2.388c1.773,4.468,9.259,5.488,10.431-0.346
		c0.55-2.74,0.835-5.449,0.964-8.129c11.477,8.094,29.788,0.971,42.912,5.984c3.727,1.424,6.149-1.321,6.482-4.452
		c2.643-1.824,3.858-5.434,0.705-7.996c-10.903-8.859-13.889-28.279-26.637-34.171c2.256-1.452,4.46-3.053,6.558-4.9
		c4.467-3.932-0.16-9.905-4.916-9.206c-0.845-0.242-1.764-0.343-2.814-0.097c-9.598,2.253-18.135-3.42-25.845-11.246
		c8.482-0.305,17.198-3.548,23.579-8.284c10.696-7.939,20.637-24.629,12.802-37.369c-1.631-2.651-4.346-3.031-6.622-2.202
		c-5.234-0.761-8.981,7.133-3.502,10.332c-6.673,1.752-13.329,1.13-19.969-1.866c-2.596-0.796-5.113-1.762-7.609-2.773
		c9.775-3.172,17.276-9.668,22.059-20.987c4.638-10.976,5.336-30.811-8.423-35.12c-0.142-0.044-0.255-0.006-0.393-0.04
		c-0.316-0.175-0.545-0.361-0.881-0.533c-6.359-3.254-11.937,6.369-5.561,9.632c-3.122,9.18-9.106,11.765-17.951,7.756
		c-6.608-2.09-12.828-4.985-18.658-8.684c-5.021-2.516-9.586-4.876-14.972-6.643c-10.042-3.294-21.804-5.687-32.372-3.813
		c-16.056,2.848-29.076,14.347-39.331,27.417c0.476-1.624,0.938-3.253,1.542-4.834c3.655-9.57,9.707-18.348,14.836-27.159
		c3.601-6.186-6.027-11.755-9.632-5.561c-9.539,16.388-16.479,30.667-20.151,48.333c-6.119-11.832-12.941-24.299-20.589-36.071
		c22.734-9.269,41.239-26.17,61.831-44.8c2.664,0.221,5.151-1.567,5.994-3.944c5.003,5,14.42,12.375,25.702,19.766
		c8.644,5.651,14.433,8.273,20.339,10.689c5.868,2.453,11.848,4.702,20.043,10.521c-7.371-7.58-10.89-12.922-14.658-18.188
		c-3.793-5.214-7.861-10.374-17.027-16.368c-2.321-1.512-4.652-2.684-6.967-3.714c1.781-0.002,3.617-0.072,5.456-0.156
		c4.038-0.185,7.903-0.154,10.689,1.29c1.578,0.73,3.385,1.894,5.552,3.352c2.311,1.505,4.676,3.045,7.09,4.618
		c4.934,3.102,10.208,6.258,15.767,9.32c32.912,17.87,42.418,16.363,74.851,29.265c-32.738-17.194-34.699-25.621-67.145-43.208
		C767.468,458.151,762.177,455.556,757.104,453.314z M733.058,452.532c-2.896-0.11-5.648-0.685-8.356-1.327
		c2.708-0.642,5.46-1.217,8.356-1.326c2.642-0.156,5.156,0.44,7.548,1.326C738.214,452.092,735.7,452.688,733.058,452.532z
		 M749.001,443.145c3.072-1.623,5.966-3.151,8.691-4.592c10.927-5.702,19.223-9.809,25.402-12.805
		c12.361-5.98,16.205-7.619,16.205-7.619s-10.608,6.147-25.54,14.799c-7.567,4.308-16.236,9.244-25.331,14.422
		c-0.802,0.457-1.658,0.927-2.51,1.393c-1.315-0.45-2.68-0.867-4.128-1.238c-0.372-0.089-0.761-0.087-1.141-0.156
		C743.499,446.136,746.299,444.538,749.001,443.145z M731.979,290.396c-18.332,23.524-35.976,46.11-69.737,40.263
		C674.058,298.496,702.441,294.509,731.979,290.396z M783.823,361.945c1.16,1.612,4.219,8.22,5.64,14.504
		c-5.686-3.867-13.343-6.302-19.866-5.767c-17.67,1.45-31.184,14.279-48.064,18.449c-25.221,6.23-43.269-7.774-56.817-26.291
		c11.849,9.48,26.313,14.986,42.457,13.49c13.807-1.279,25.169-8.03,36.724-15.144c5.193-3.198,10.294-6.528,15.563-9.585
		c0.626,0.277,1.317,0.482,2.127,0.511C770.851,352.445,778.126,354.03,783.823,361.945z M766.418,314.958
		c7.251-4.807,17.256-2.297,24.584,1.535c3.709,1.94,8.579,6.564,11.546,11.705c-2.833-0.788-5.736-1.17-8.304-0.958
		c-43.252,3.569-84.523,59.787-123.195,27.029c15.573,5.532,33.351,1.802,49.875-5.162c12.291-5.179,23.664-12.619,33.462-21.674
		c3.267-3.019,6.707-7.221,10.348-11.73C765.287,315.555,765.848,315.336,766.418,314.958z M766.564,296.968
		c-19.842,21.512-61.901,65.175-95.281,45.806c11.668,0.369,23.144-1.967,33.874-7.833c17.945-9.81,28.326-27.856,40.4-43.759
		c1.598,0.36,3.342,0.098,4.872-1.358c10.835-10.307,25.181-13.495,38.202-9.366C780.245,283.611,772.911,290.087,766.564,296.968z
		 M783.611,249.218c4.024-8.866,13.793-7.837,21.975-7.332c3.456,0.213,6.797,0.357,10.097,0.183
		c-1.801,2.771-3.347,5.736-4.89,8.835c-3.653,7.339-7.647,16.312-17.337,15.365c-2.554-0.25-4.153,1.039-4.88,2.796
		c-6.009-1.435-12.172-1.705-18.232-0.82c3.797-4.806,6.644-10.278,8.406-16.2C780.635,252.295,782.55,251.555,783.611,249.218z
		 M768.917,246.268c-2.926,13.356-12.864,24.2-27.219,28.433c-2.026,0.597-3.125,1.977-3.612,3.541
		c-19.809,2.506-40.628,2.472-58.096,13.108c-10.446,6.36-18.206,15.129-23.721,25.419c-0.083-38.592,58.759-53.184,87.31-59.611
		C752.721,255.1,761.992,251.966,768.917,246.268z M731.203,218.05c1.467-2.118,2.588-4.823,3.322-7.67
		c2.969,5.14,4.538,11.67,4.364,15.852c-0.346,8.262-3.174,18.182-10.962,22.058c-0.585,0.291-0.967,0.683-1.361,1.066
		c-5.772,0.906-11.179,1.787-15.458,3.117c-12.741,3.958-24.871,10.087-35.502,18.141c-14.293,10.829-26.413,24.36-29.408,40.614
		C637.164,261.355,706.487,253.723,731.203,218.05z M641.249,250.075c12.051-12.534,29.918-17.823,40.009-32.401
		c3.725-5.382,5.445-13.23,4.939-20.088c4.732,4.373,8.925,10.326,9.741,12.136c4.005,8.891,1.741,15.984-2.602,24.174
		c-0.38,0.717-0.549,1.417-0.622,2.098c-5.282,3.034-10.717,5.787-16.082,8.685c-11.939,6.449-23.466,12.913-31.477,24.231
		c-9.367,13.234-11.83,28.513-9.545,43.514C626.347,291.435,623.243,268.802,641.249,250.075z M645.27,340.457
		c-8.923,17.621-19.15,37.641-31.414,55.309c-10.445-2.832-21.855-4.097-34.775-3.258c-11.941,0.776-23.506,2.986-34.759,6.231
		c8.437-8.123,16.133-17.034,22.776-26.987c7.186-10.769,11.797-21.283,14.566-31.745
		C603.097,338.22,625.548,339.373,645.27,340.457z M547.56,523.272c9.442,11.044,17.76,23.96,22.91,37.87
		c-14.612-2.041-28.404-5.741-40.039-12.22c-19.136-10.657-29.339-32.205-41.108-50.202c-2.97-4.541-6.419-9.168-9.785-13.919
		c-2.664-5.617-5.577-11.079-8.929-16.088c13.284,8.152,26.914,15.913,40.999,22.488C524.74,500.485,536.99,510.909,547.56,523.272z
		 M490.18,607.434c-9.459-11.409-16.537-25.007-21.376-38.693c-5.402-15.282-8.335-31.042-9.815-46.999
		c1.359-15.494,1.46-31.188,1.044-46.779c2.679,5.418,6.001,10.684,9.545,15.808c2.401,5.232,4.661,10.47,7.082,15.259
		c9.701,19.191,23.261,38.8,22.922,60.702C499.377,580.021,495.7,593.787,490.18,607.434z M407.314,566.732
		c-0.339-21.901,13.221-41.511,22.922-60.702c2.421-4.789,4.681-10.027,7.082-15.26c3.545-5.124,6.866-10.39,9.545-15.808
		c-0.415,15.591-0.314,31.284,1.044,46.778c-1.48,15.958-4.412,31.719-9.815,47.001c-4.839,13.686-11.917,27.283-21.375,38.693
		C411.197,593.787,407.52,580.021,407.314,566.732z M359.337,379.139c-9.442-11.044-17.76-23.96-22.91-37.87
		c14.612,2.041,28.405,5.741,40.04,12.22c19.136,10.657,29.339,32.205,41.108,50.201c2.97,4.541,6.419,9.168,9.785,13.919
		c2.664,5.617,5.577,11.08,8.929,16.089c-13.284-8.152-26.914-15.913-40.999-22.488
		C382.158,401.925,369.907,391.501,359.337,379.139z M416.717,294.976c9.459,11.409,16.537,25.006,21.375,38.693
		c5.403,15.282,8.335,31.042,9.815,47.001c-1.358,15.494-1.46,31.187-1.044,46.778c-2.679-5.418-6.001-10.684-9.545-15.808
		c-2.401-5.233-4.662-10.471-7.082-15.26c-9.701-19.191-23.261-38.8-22.922-60.701C407.52,322.39,411.197,308.624,416.717,294.976z
		 M499.583,335.678c0.339,21.901-13.221,41.511-22.922,60.701c-2.421,4.789-4.681,10.027-7.082,15.259
		c-3.544,5.124-6.866,10.39-9.545,15.808c0.416-15.591,0.314-31.284-1.044-46.779c1.48-15.958,4.412-31.718,9.815-46.999
		c4.839-13.687,11.917-27.284,21.376-38.693C495.7,308.624,499.377,322.39,499.583,335.678z M511.608,411.209
		c-14.085,6.575-27.715,14.336-40.999,22.488c3.352-5.009,6.265-10.472,8.929-16.089c3.366-4.75,6.815-9.378,9.785-13.919
		c11.769-17.997,21.972-39.544,41.108-50.201c11.635-6.479,25.427-10.179,40.039-12.22c-5.15,13.911-13.468,26.827-22.91,37.87
		C536.99,391.501,524.74,401.925,511.608,411.209z M389.593,420.736c12.739,8.923,26.279,16.857,39.989,24.293
		c-6.031-0.389-12.252-0.145-18.462,0.362c-5.732-0.537-11.399-1.198-16.757-1.496c-21.47-1.194-45.232,0.744-64.03-10.5
		c-11.406-6.823-21.489-16.89-30.548-28.495c14.611-2.487,29.925-1.818,44.197,0.835
		C359.918,408.698,375.033,414.039,389.593,420.736z M394.362,458.515c5.358-0.298,11.025-0.959,16.757-1.496
		c6.21,0.507,12.43,0.751,18.462,0.362c-13.71,7.435-27.25,15.37-39.989,24.293c-14.56,6.698-29.675,12.038-45.61,15
		c-14.272,2.653-29.587,3.322-44.197,0.835c9.059-11.604,19.142-21.672,30.548-28.494
		C349.13,457.771,372.892,459.709,394.362,458.515z M395.29,491.2c14.085-6.576,27.715-14.336,40.999-22.488
		c-3.352,5.01-6.265,10.472-8.929,16.089c-3.366,4.751-6.815,9.378-9.785,13.919c-11.769,17.997-21.972,39.545-41.108,50.202
		c-11.635,6.479-25.428,10.179-40.04,12.22c5.15-13.91,13.468-26.827,22.91-37.87C369.907,510.909,382.158,500.485,395.29,491.2z
		 M517.305,481.674c-12.739-8.924-26.279-16.858-39.989-24.293c6.031,0.389,12.252,0.145,18.462-0.362
		c5.732,0.537,11.399,1.198,16.757,1.496c21.47,1.194,45.233-0.744,64.03,10.5c11.406,6.823,21.488,16.89,30.547,28.494
		c-14.61,2.487-29.924,1.818-44.196-0.835C546.98,493.712,531.865,488.372,517.305,481.674z M512.535,443.895
		c-5.358,0.298-11.025,0.96-16.757,1.496c-6.21-0.507-12.431-0.751-18.462-0.362c13.709-7.436,27.25-15.37,39.989-24.293
		c14.56-6.698,29.676-12.038,45.611-15.001c14.272-2.653,29.587-3.322,44.197-0.835c-9.059,11.604-19.142,21.672-30.548,28.495
		C557.768,444.639,534.005,442.701,512.535,443.895z M592.105,208.393c1.185-2.366,2.959-4.244,4.923-5.873
		c-0.428,2.515-1.168,4.99-2.625,7.199c-1.543,2.453-3.418,4.549-5.327,6.572C589.874,213.627,590.751,210.956,592.105,208.393z
		 M604.277,197.672c9.032-5.287,17.641-10.327,25.155-14.726c14.958-8.605,25.586-14.719,25.586-14.719s-3.341,2.51-14.701,10.225
		c-5.684,3.852-13.389,8.984-23.79,15.596c-2.61,1.64-5.381,3.382-8.322,5.231c-2.558,1.644-5.341,3.27-7.816,5.131
		c0.13-0.364,0.326-0.699,0.435-1.066c0.403-1.44,0.724-2.83,0.992-4.194C602.645,198.644,603.48,198.138,604.277,197.672z
		 M594.614,181.397c0.525-12.314,1.117-21.552,1.611-28.401c1.001-13.695,1.505-17.843,1.505-17.843s0.019,12.26,0.046,29.517
		c-0.052,8.708-0.112,18.683-0.175,29.148c-0.005,0.923-0.026,1.899-0.049,2.87c-1.047,0.914-2.09,1.888-3.136,2.956
		c-0.263,0.278-0.456,0.616-0.706,0.91c0.374-3.074,0.39-6.298,0.535-9.334C594.375,187.747,594.498,184.477,594.614,181.397z
		 M582.112,219.036c2.259-2.87,4.608-5.138,6.503-7.45c-0.11,0.565-0.242,1.151-0.33,1.69c-0.24,1.612-0.405,3.047-0.579,4.462
		c-1.31,1.376-2.607,2.751-3.787,4.212c1.057-1.012,2.282-1.984,3.627-3.01c-0.216,1.678-0.444,3.225-0.793,4.646
		c0.676-1.752,1.219-3.563,1.755-5.386c1.138-0.858,2.299-1.719,3.574-2.732c0.423-0.345,0.865-0.753,1.299-1.131
		c-1.055,2.796-1.844,5.966-3.201,9.357c-7.259,5.706-11.844,12.315-15.012,16.684C577.37,235.45,580.801,228.175,582.112,219.036z
		 M573.176,200.315c-0.212-7.779-0.28-10.244-0.28-10.244s1.63,6.79,2.654,16.739c1.012,9.741,1.133,22.548-0.927,34.319
		c-0.121,0.165-0.264,0.367-0.381,0.524c0.11-0.094,0.236-0.174,0.347-0.268c-0.025,0.143-0.032,0.292-0.058,0.434
		c0.077-0.18,0.18-0.404,0.263-0.592c9.164-7.669,20.315-13.968,29.257-17.962c9.128-4.088,15.823-6.071,15.823-6.071
		s-2.168,1.174-9.011,4.88c-6.731,3.8-18.292,10.098-35.343,22.66c-0.58-0.608-1.286-1.046-2.126-1.277
		c-0.62-0.612-1.353-1.005-2.17-1.203C573.577,221.205,573.251,208.044,573.176,200.315z M514.461,274.611
		c15.571-8.289,34.181-12.886,51.361-18.042c4.124,17.457,9.447,35.871,10.055,53.501c0.218,6.324-0.415,12.578-1.728,18.699
		c-20.866,1.938-40.602,6.696-55.191,17.016c-3.518,2.488-6.694,5.442-9.648,8.665c1.314-4.169,2.284-8.396,2.68-12.687
		c1.642-17.793-4.104-37.261-12.856-56.298C503.779,281.266,508.875,277.585,514.461,274.611z M430.464,102.921
		c2.786-8.937,4.727-18.527,3.263-27.364c10.086,9.212,14.498,23.229,10.99,37.766c-0.496,2.053,0.15,3.695,1.261,4.898
		c-7.735,18.408-18.173,36.421-17.697,56.867c0.285,12.226,4,23.331,10.153,33.252C404.97,189.116,421.755,130.86,430.464,102.921z
		 M462.181,113.322c-3.509-14.537,0.904-28.554,10.99-37.766c-1.464,8.838,0.477,18.428,3.263,27.364
		c8.709,27.939,25.494,86.195-7.971,105.419c6.154-9.921,9.869-21.027,10.154-33.252c0.477-20.445-9.962-38.459-17.697-56.867
		C462.031,117.017,462.676,115.376,462.181,113.322z M453.449,129.585c11.206,27.638,21.945,54.211,0,80.525
		C431.504,183.797,442.243,157.223,453.449,129.585z M541.334,120.462c1.976-0.199,9.228,0.456,15.381,2.368
		c-6.192,2.991-12.129,8.404-14.927,14.321c-7.58,16.028-3.226,34.145-8.056,50.849c-7.26,25.112-28.631,33.69-51.603,36.103
		c14.297-5.495,26.501-15.208,33.338-30.066c5.796-12.597,5.631-25.812,5.246-39.376c-0.173-6.096-0.506-12.18-0.52-18.27
		c0.553-0.404,1.075-0.899,1.506-1.587C526.621,126.946,531.631,121.439,541.334,120.462z M491.94,112.042
		c-0.537-8.683,6.639-16.092,13.622-20.522c3.528-2.238,9.935-4.096,15.863-4.103c-2.079,2.048-3.843,4.355-4.935,6.667
		c-18.536,39.241,9.517,103.092-38.19,120.204c12.578-10.721,18.236-27.982,20.467-45.774c1.659-13.234,0.903-26.803-2.04-39.816
		c-0.988-4.371-2.928-9.494-5.03-14.946C491.832,113.22,491.98,112.695,491.94,112.042z M448.242,41.585
		c1.913-2.886,3.707-5.708,5.207-8.652c1.5,2.945,3.294,5.767,5.207,8.652c4.529,6.833,10.303,14.779,4.638,22.697
		c-1.496,2.091-1.201,4.136-0.038,5.646c-4.238,4.482-7.546,9.676-9.806,15.358c-2.26-5.683-5.569-10.876-9.807-15.358
		c1.164-1.51,1.458-3.554-0.038-5.646C437.939,56.364,443.713,48.419,448.242,41.585z M401.336,91.52
		c6.983,4.43,14.159,11.839,13.622,20.522c-0.04,0.652,0.108,1.178,0.242,1.711c-2.102,5.452-4.042,10.575-5.03,14.946
		c-2.943,13.013-3.699,26.582-2.04,39.816c2.231,17.792,7.89,35.053,20.467,45.774c-47.706-17.112-19.654-80.963-38.19-120.204
		c-1.093-2.313-2.856-4.619-4.935-6.667C391.4,87.424,397.807,89.282,401.336,91.52z M373.165,188
		c-4.829-16.704-0.476-34.821-8.055-50.849c-2.798-5.917-8.736-11.33-14.928-14.321c6.153-1.912,13.406-2.567,15.381-2.368
		c9.703,0.977,14.713,6.484,19.634,14.341c0.431,0.688,0.953,1.183,1.506,1.587c-0.014,6.091-0.347,12.175-0.52,18.27
		c-0.384,13.563-0.55,26.779,5.246,39.376c6.837,14.859,19.041,24.571,33.338,30.066C401.796,221.69,380.425,213.112,373.165,188z
		 M453.449,229.708c10.8,16.538,23.023,35.405,32.192,54.861c-7.676,7.629-14.476,16.879-20.209,28.487
		c-5.299,10.729-9.167,21.85-11.983,33.218c-2.816-11.368-6.685-22.489-11.983-33.218c-5.733-11.608-12.533-20.858-20.209-28.487
		C430.425,265.113,442.649,246.246,453.449,229.708z M312.495,209.72c-1.456-2.21-2.197-4.685-2.625-7.2
		c1.964,1.628,3.737,3.507,4.923,5.873c1.353,2.563,2.231,5.234,3.029,7.899C315.913,214.268,314.038,212.173,312.495,209.72z
		 M309.297,193.817c-0.063-10.465-0.123-20.44-0.176-29.148c0.027-17.257,0.046-29.517,0.046-29.517s0.503,4.148,1.505,17.843
		c0.495,6.849,1.085,16.087,1.611,28.401c0.116,3.08,0.239,6.351,0.369,9.823c0.145,3.037,0.161,6.261,0.535,9.334
		c-0.25-0.294-0.442-0.632-0.706-0.91c-1.046-1.068-2.089-2.042-3.136-2.956C309.323,195.717,309.302,194.74,309.297,193.817z
		 M298.692,199.279c-2.941-1.849-5.712-3.591-8.322-5.231c-10.401-6.612-18.107-11.743-23.79-15.596
		c-11.36-7.715-14.7-10.225-14.7-10.225s10.627,6.114,25.586,14.719c7.515,4.399,16.124,9.439,25.155,14.726
		c0.797,0.466,1.632,0.972,2.461,1.477c0.268,1.364,0.589,2.754,0.992,4.194c0.109,0.367,0.305,0.703,0.435,1.066
		C304.033,202.549,301.25,200.923,298.692,199.279z M313.516,214.338c0.434,0.378,0.876,0.786,1.299,1.131
		c1.276,1.013,2.437,1.874,3.574,2.732c0.537,1.822,1.079,3.633,1.755,5.386c-0.349-1.421-0.577-2.969-0.793-4.646
		c1.345,1.026,2.57,1.997,3.627,3.01c-1.179-1.462-2.477-2.837-3.787-4.213c-0.174-1.415-0.339-2.85-0.579-4.462
		c-0.087-0.539-0.22-1.126-0.33-1.691c1.894,2.311,4.244,4.58,6.503,7.45c1.312,9.139,4.743,16.414,6.943,21.343
		c-3.169-4.37-7.753-10.979-15.012-16.684C315.36,220.304,314.57,217.134,313.516,214.338z M296.035,222.073
		c-6.843-3.705-9.011-4.88-9.011-4.88s6.695,1.984,15.823,6.071c8.943,3.994,20.094,10.293,29.258,17.962
		c0.082,0.188,0.185,0.412,0.263,0.592c-0.026-0.143-0.033-0.292-0.058-0.434c0.111,0.093,0.237,0.174,0.347,0.268
		c-0.117-0.157-0.26-0.358-0.382-0.524c-2.06-11.771-1.939-24.577-0.927-34.319c1.024-9.949,2.654-16.739,2.654-16.739
		s-0.067,2.465-0.28,10.244c-0.075,7.729-0.401,20.89,1.953,41.939c-0.817,0.198-1.55,0.59-2.17,1.203
		c-0.84,0.231-1.546,0.669-2.125,1.277C314.327,232.171,302.766,225.873,296.035,222.073z M331.02,310.07
		c0.608-17.63,5.931-36.044,10.055-53.501c17.18,5.156,35.789,9.754,51.361,18.042c5.586,2.974,10.682,6.655,15.327,10.853
		c-8.753,19.037-14.499,38.505-12.856,56.298c0.396,4.291,1.366,8.518,2.68,12.687c-2.953-3.223-6.13-6.176-9.647-8.665
		c-14.589-10.32-34.325-15.078-55.191-17.016C331.436,322.648,330.802,316.394,331.02,310.07z M244.655,330.658
		c-33.761,5.848-51.405-16.739-69.737-40.263C204.456,294.509,232.839,298.496,244.655,330.658z M210.959,209.723
		c0.816-1.81,5.009-7.763,9.741-12.136c-0.506,6.858,1.214,14.706,4.939,20.088c10.091,14.578,27.958,19.866,40.009,32.401
		c18.006,18.728,14.902,41.36,5.64,62.35c2.285-15.002-0.179-30.281-9.545-43.514c-8.011-11.318-19.539-17.782-31.477-24.231
		c-5.366-2.898-10.801-5.652-16.083-8.685c-0.073-0.681-0.241-1.381-0.621-2.098C209.218,225.707,206.954,218.614,210.959,209.723z
		 M178.97,248.289c-7.788-3.876-10.616-13.795-10.962-22.058c-0.175-4.182,1.395-10.711,4.364-15.852
		c0.733,2.847,1.855,5.552,3.322,7.67c24.716,35.673,94.039,43.305,85.005,93.176c-2.995-16.253-15.115-29.785-29.408-40.613
		c-10.631-8.054-22.76-14.184-35.502-18.141c-4.279-1.329-9.686-2.211-15.459-3.117C179.937,248.971,179.556,248.58,178.97,248.289z
		 M163.318,257.158c28.551,6.427,87.394,21.019,87.31,59.612c-5.515-10.29-13.276-19.06-23.721-25.42
		c-17.468-10.635-38.287-10.602-58.096-13.107c-0.487-1.564-1.586-2.944-3.612-3.541c-14.355-4.234-24.293-15.077-27.219-28.433
		C144.905,251.966,154.176,255.1,163.318,257.158z M113.442,266.269c-9.69,0.947-13.684-8.026-17.337-15.365
		c-1.543-3.099-3.089-6.064-4.89-8.835c3.3,0.174,6.641,0.031,10.097-0.183c8.182-0.505,17.951-1.533,21.975,7.332
		c1.061,2.337,2.976,3.077,4.861,2.828c1.762,5.921,4.61,11.394,8.406,16.199c-6.061-0.885-12.223-0.615-18.232,0.82
		C117.594,267.308,115.996,266.02,113.442,266.269z M118.266,280.46c13.021-4.129,27.366-0.941,38.201,9.366
		c1.53,1.456,3.274,1.718,4.872,1.358c12.074,15.902,22.455,33.948,40.4,43.759c10.73,5.866,22.206,8.202,33.874,7.833
		c-33.38,19.369-75.439-24.294-95.281-45.806C133.987,290.087,126.652,283.611,118.266,280.46z M112.653,327.24
		c-2.568-0.212-5.471,0.17-8.303,0.958c2.968-5.141,7.837-9.765,11.546-11.705c7.328-3.832,17.332-6.342,24.584-1.535
		c0.57,0.378,1.131,0.597,1.683,0.744c3.641,4.509,7.081,8.711,10.348,11.73c9.798,9.055,21.171,16.495,33.462,21.674
		c16.524,6.964,34.302,10.694,49.875,5.162C197.175,387.027,155.904,330.809,112.653,327.24z M185.365,389.13
		c-16.881-4.17-30.394-16.999-48.064-18.449c-6.523-0.535-14.18,1.9-19.866,5.767c1.421-6.285,4.48-12.893,5.64-14.504
		c5.697-7.914,12.972-9.5,22.237-9.833c0.811-0.029,1.501-0.234,2.127-0.511c5.268,3.057,10.37,6.388,15.563,9.585
		c11.554,7.115,22.916,13.866,36.724,15.144c16.144,1.495,30.607-4.011,42.456-13.49C228.633,381.356,210.585,395.36,185.365,389.13
		z M261.627,340.457c19.722-1.084,42.173-2.237,63.606-0.449c2.769,10.462,7.38,20.976,14.566,31.745
		c6.642,9.953,14.339,18.864,22.776,26.987c-11.253-3.245-22.818-5.455-34.759-6.231c-12.92-0.839-24.33,0.425-34.775,3.258
		C280.777,378.098,270.549,358.078,261.627,340.457z M182.195,451.205c-2.708,0.641-5.459,1.217-8.355,1.327
		c-2.642,0.156-5.156-0.44-7.548-1.327c2.392-0.887,4.906-1.483,7.548-1.326C176.735,449.988,179.487,450.563,182.195,451.205z
		 M133.137,432.929c-14.931-8.652-25.539-14.799-25.539-14.799s3.844,1.638,16.205,7.619c6.178,2.996,14.474,7.103,25.401,12.805
		c2.726,1.44,5.62,2.969,8.691,4.592c2.702,1.393,5.502,2.991,8.351,4.204c-0.379,0.069-0.768,0.067-1.14,0.156
		c-1.448,0.371-2.813,0.788-4.128,1.238c-0.852-0.466-1.708-0.936-2.51-1.393C149.374,442.173,140.705,437.237,133.137,432.929z
		 M157.896,459.265c-3.072,1.623-5.966,3.151-8.691,4.591c-10.927,5.702-19.223,9.809-25.401,12.805
		c-12.362,5.981-16.205,7.618-16.205,7.618s10.608-6.146,25.539-14.798c7.567-4.309,16.236-9.244,25.331-14.422
		c0.802-0.457,1.658-0.927,2.51-1.393c1.315,0.449,2.68,0.867,4.128,1.238c0.372,0.089,0.761,0.087,1.141,0.156
		C163.399,456.274,160.599,457.872,157.896,459.265z M178.349,453.957c0.544-0.188,1.118-0.366,1.629-0.56
		c1.515-0.598,2.841-1.173,4.153-1.729c1.846,0.446,3.686,0.882,5.541,1.173c-1.405-0.409-2.86-0.985-4.42-1.636
		c1.561-0.652,3.015-1.227,4.42-1.636c-1.856,0.291-3.695,0.727-5.541,1.173c-1.312-0.556-2.638-1.131-4.153-1.73
		c-0.51-0.194-1.084-0.372-1.629-0.559c2.949-0.485,6.088-1.386,9.703-1.906c8.571,3.434,16.587,4.099,21.955,4.659
		c-5.369,0.559-13.385,1.225-21.955,4.659C184.437,455.343,181.299,454.442,178.349,453.957z M176.308,472.963
		c-6.63,4.073-8.731,5.364-8.731,5.364s5.065-4.806,13.169-10.668c7.93-5.747,18.961-12.255,30.184-16.356
		c0.204,0.023,0.45,0.045,0.645,0.069c-0.136-0.049-0.269-0.117-0.406-0.167c0.136-0.05,0.269-0.118,0.406-0.167
		c-0.194,0.023-0.44,0.046-0.644,0.069c-11.224-4.102-22.255-10.609-30.185-16.356c-8.104-5.861-13.169-10.668-13.169-10.668
		s2.101,1.291,8.731,5.364c6.656,3.929,17.891,10.792,37.296,19.278c-0.237,0.806-0.264,1.637-0.043,2.48
		c-0.22,0.843-0.193,1.674,0.043,2.48C194.199,462.171,182.964,469.034,176.308,472.963z M270.007,486.663
		c-14.964-9.341-28.25-23.159-41.306-35.458c13.056-12.3,26.342-26.117,41.306-35.458c5.369-3.351,11.105-5.924,17.062-7.848
		c12.11,17.099,26.097,31.809,42.328,39.283c3.914,1.802,8.06,3.076,12.328,4.022c-4.268,0.946-8.414,2.22-12.328,4.023
		c-16.23,7.474-30.218,22.184-42.328,39.283C281.112,492.587,275.376,490.015,270.007,486.663z M174.918,612.015
		c18.332-23.524,35.976-46.11,69.737-40.263C232.839,603.914,204.456,607.901,174.918,612.015z M123.074,540.465
		c-1.16-1.612-4.219-8.22-5.64-14.504c5.686,3.867,13.343,6.302,19.866,5.767c17.67-1.45,31.184-14.279,48.064-18.448
		c25.221-6.23,43.268,7.774,56.816,26.29c-11.849-9.479-26.313-14.985-42.456-13.49c-13.807,1.279-25.169,8.03-36.724,15.145
		c-5.193,3.198-10.295,6.528-15.563,9.585c-0.626-0.277-1.317-0.482-2.127-0.511C136.046,549.966,128.771,548.38,123.074,540.465z
		 M140.479,587.452c-7.251,4.807-17.255,2.297-24.584-1.536c-3.709-1.939-8.578-6.563-11.546-11.704
		c2.833,0.788,5.736,1.17,8.303,0.958c43.252-3.569,84.523-59.787,123.195-27.029c-15.573-5.532-33.351-1.802-49.875,5.162
		c-12.291,5.18-23.664,12.619-33.462,21.675c-3.267,3.019-6.707,7.221-10.348,11.731
		C141.61,586.855,141.049,587.074,140.479,587.452z M140.333,605.442c19.841-21.512,61.9-65.175,95.28-45.807
		c-11.668-0.369-23.144,1.967-33.874,7.833c-17.945,9.81-28.326,27.856-40.4,43.759c-1.598-0.36-3.342-0.098-4.873,1.357
		c-10.835,10.307-25.18,13.495-38.201,9.366C126.652,618.799,133.987,612.323,140.333,605.442z M123.286,653.192
		c-4.024,8.866-13.793,7.838-21.975,7.332c-3.455-0.214-6.796-0.357-10.096-0.183c1.8-2.771,3.347-5.736,4.89-8.835
		c3.653-7.339,7.647-16.313,17.337-15.365c2.554,0.25,4.152-1.039,4.88-2.796c6.009,1.435,12.171,1.705,18.232,0.82
		c-3.797,4.806-6.644,10.278-8.406,16.199C126.262,650.115,124.347,650.855,123.286,653.192z M137.981,656.142
		c2.926-13.356,12.864-24.2,27.219-28.433c2.026-0.597,3.125-1.977,3.612-3.542c19.809-2.506,40.628-2.472,58.096-13.108
		c10.445-6.36,18.206-15.13,23.721-25.42c0.084,38.593-58.759,53.185-87.31,59.612C154.176,647.31,144.905,650.444,137.981,656.142z
		 M175.694,684.36c-1.467,2.118-2.588,4.822-3.322,7.67c-2.969-5.14-4.538-11.669-4.364-15.851
		c0.346-8.262,3.174-18.182,10.962-22.058c0.585-0.291,0.966-0.682,1.36-1.065c5.773-0.906,11.18-1.787,15.459-3.117
		c12.741-3.958,24.871-10.087,35.502-18.142c14.293-10.828,26.413-24.359,29.408-40.613
		C269.733,641.055,200.41,648.687,175.694,684.36z M265.648,652.335c-12.051,12.534-29.918,17.823-40.009,32.401
		c-3.725,5.382-5.445,13.23-4.939,20.088c-4.732-4.373-8.925-10.326-9.741-12.136c-4.005-8.891-1.741-15.984,2.603-24.174
		c0.38-0.717,0.548-1.417,0.621-2.098c5.282-3.034,10.717-5.787,16.083-8.685c11.939-6.449,23.466-12.913,31.477-24.231
		c9.367-13.234,11.83-28.513,9.545-43.515C280.55,610.976,283.654,633.608,265.648,652.335z M261.627,561.954
		c8.922-17.621,19.15-37.641,31.414-55.309c10.445,2.833,21.855,4.097,34.775,3.258c11.941-0.776,23.506-2.986,34.759-6.231
		c-8.437,8.123-16.134,17.033-22.776,26.987c-7.186,10.769-11.797,21.283-14.566,31.745
		C303.8,564.19,281.349,563.037,261.627,561.954z M317.822,686.118c-0.798,2.665-1.676,5.336-3.029,7.899
		c-1.186,2.366-2.959,4.245-4.923,5.873c0.428-2.515,1.169-4.99,2.625-7.2C314.038,690.237,315.913,688.142,317.822,686.118z
		 M277.465,719.465c-14.958,8.605-25.586,14.719-25.586,14.719s3.341-2.51,14.7-10.225c5.684-3.852,13.389-8.984,23.79-15.596
		c2.61-1.64,5.38-3.382,8.322-5.231c2.558-1.644,5.341-3.27,7.816-5.13c-0.13,0.364-0.326,0.699-0.435,1.066
		c-0.403,1.44-0.724,2.83-0.992,4.194c-0.83,0.505-1.664,1.011-2.461,1.477C293.589,710.025,284.98,715.065,277.465,719.465z
		 M312.283,721.014c-0.526,12.314-1.117,21.552-1.611,28.401c-1.002,13.695-1.505,17.843-1.505,17.843s-0.019-12.26-0.046-29.517
		c0.053-8.708,0.113-18.683,0.176-29.148c0.005-0.923,0.026-1.9,0.049-2.87c1.047-0.914,2.09-1.888,3.136-2.956
		c0.263-0.278,0.456-0.616,0.706-0.91c-0.374,3.074-0.39,6.298-0.535,9.334C312.522,714.663,312.399,717.933,312.283,721.014z
		 M324.785,683.374c-2.259,2.87-4.609,5.139-6.503,7.45c0.11-0.565,0.243-1.152,0.33-1.691c0.24-1.612,0.405-3.047,0.579-4.462
		c1.309-1.376,2.607-2.751,3.787-4.213c-1.057,1.013-2.282,1.984-3.627,3.01c0.216-1.678,0.444-3.225,0.793-4.646
		c-0.676,1.752-1.218,3.563-1.755,5.385c-1.138,0.858-2.299,1.719-3.574,2.732c-0.423,0.345-0.864,0.753-1.299,1.131
		c1.055-2.796,1.844-5.966,3.2-9.357c7.259-5.706,11.844-12.315,15.013-16.685C329.529,666.96,326.097,674.235,324.785,683.374z
		 M333.721,702.095c0.212,7.779,0.28,10.244,0.28,10.244s-1.63-6.79-2.654-16.739c-1.012-9.742-1.133-22.549,0.927-34.319
		c0.122-0.165,0.264-0.367,0.382-0.523c-0.11,0.094-0.236,0.174-0.347,0.268c0.025-0.143,0.032-0.292,0.058-0.434
		c-0.077,0.18-0.18,0.404-0.263,0.592c-9.164,7.669-20.315,13.969-29.258,17.963c-9.128,4.088-15.823,6.071-15.823,6.071
		s2.169-1.174,9.011-4.88c6.731-3.8,18.292-10.098,35.343-22.66c0.58,0.608,1.286,1.046,2.126,1.277
		c0.62,0.612,1.353,1.005,2.17,1.203C333.321,681.205,333.646,694.366,333.721,702.095z M392.436,627.799
		c-15.572,8.288-34.181,12.886-51.361,18.042c-4.124-17.457-9.447-35.872-10.055-53.501c-0.218-6.324,0.415-12.578,1.728-18.699
		c20.866-1.938,40.602-6.696,55.191-17.016c3.518-2.488,6.694-5.442,9.647-8.665c-1.314,4.169-2.284,8.396-2.68,12.687
		c-1.642,17.793,4.104,37.261,12.856,56.298C403.118,621.144,398.023,624.825,392.436,627.799z M476.433,799.49
		c-2.786,8.937-4.727,18.527-3.263,27.364c-10.086-9.212-14.498-23.229-10.99-37.766c0.496-2.053-0.15-3.695-1.261-4.898
		c7.735-18.408,18.173-36.421,17.697-56.867c-0.285-12.226-4-23.332-10.153-33.252C501.927,713.294,485.143,771.55,476.433,799.49z
		 M444.717,789.088c3.509,14.537-0.904,28.554-10.99,37.766c1.464-8.838-0.477-18.428-3.263-27.364
		c-8.709-27.939-25.494-86.195,7.97-105.419c-6.153,9.921-9.868,21.026-10.153,33.252c-0.477,20.445,9.962,38.459,17.697,56.867
		C444.866,785.394,444.221,787.035,444.717,789.088z M453.449,692.3c21.945,26.314,11.206,52.888,0,80.525
		C442.243,745.187,431.504,718.614,453.449,692.3z M365.563,781.948c-1.976,0.199-9.228-0.456-15.381-2.368
		c6.191-2.991,12.129-8.404,14.927-14.321c7.579-16.028,3.226-34.145,8.055-50.849c7.26-25.112,28.631-33.689,51.603-36.102
		c-14.297,5.495-26.501,15.208-33.338,30.066c-5.796,12.597-5.631,25.812-5.246,39.376c0.173,6.096,0.506,12.179,0.52,18.271
		c-0.553,0.404-1.075,0.899-1.506,1.587C380.276,775.464,375.266,780.971,365.563,781.948z M414.957,790.368
		c0.537,8.683-6.639,16.092-13.622,20.522c-3.528,2.238-9.935,4.096-15.863,4.103c2.079-2.048,3.843-4.355,4.935-6.668
		c18.536-39.241-9.517-103.092,38.19-120.204c-12.577,10.721-18.236,27.982-20.467,45.774c-1.66,13.234-0.903,26.803,2.04,39.816
		c0.988,4.371,2.928,9.494,5.03,14.946C415.065,789.19,414.917,789.716,414.957,790.368z M458.655,860.825
		c-1.913,2.886-3.707,5.708-5.207,8.652c-1.5-2.945-3.294-5.767-5.207-8.652c-4.529-6.833-10.303-14.779-4.638-22.697
		c1.496-2.091,1.201-4.136,0.038-5.646c4.238-4.482,7.547-9.675,9.807-15.358c2.26,5.683,5.569,10.876,9.807,15.358
		c-1.164,1.51-1.459,3.555,0.037,5.646C468.959,846.046,463.184,853.992,458.655,860.825z M505.562,810.89
		c-6.983-4.43-14.159-11.839-13.622-20.522c0.04-0.652-0.108-1.178-0.242-1.711c2.102-5.452,4.042-10.575,5.03-14.946
		c2.943-13.013,3.699-26.582,2.04-39.816c-2.231-17.792-7.89-35.053-20.467-45.774c47.706,17.112,19.654,80.963,38.19,120.204
		c1.092,2.313,2.856,4.62,4.935,6.668C515.497,814.986,509.09,813.129,505.562,810.89z M533.732,714.41
		c4.83,16.704,0.476,34.821,8.056,50.849c2.798,5.917,8.736,11.33,14.927,14.321c-6.153,1.912-13.405,2.567-15.381,2.368
		c-9.703-0.977-14.713-6.484-19.634-14.341c-0.431-0.688-0.953-1.183-1.506-1.587c0.014-6.091,0.347-12.175,0.52-18.271
		c0.385-13.564,0.55-26.779-5.246-39.376c-6.837-14.859-19.041-24.571-33.338-30.066
		C505.101,680.721,526.472,689.298,533.732,714.41z M453.449,672.702c-10.8-16.538-23.024-35.405-32.192-54.861
		c7.676-7.629,14.476-16.879,20.209-28.487c5.299-10.729,9.167-21.85,11.983-33.218c2.816,11.368,6.684,22.489,11.983,33.218
		c5.733,11.608,12.533,20.858,20.209,28.487C476.472,637.297,464.248,656.164,453.449,672.702z M594.403,692.691
		c1.456,2.21,2.197,4.685,2.625,7.199c-1.964-1.628-3.737-3.506-4.923-5.873c-1.353-2.563-2.231-5.234-3.029-7.899
		C590.985,688.142,592.859,690.237,594.403,692.691z M597.73,767.258c0,0-0.504-4.148-1.505-17.843
		c-0.495-6.849-1.086-16.087-1.611-28.401c-0.116-3.08-0.239-6.351-0.37-9.823c-0.144-3.037-0.161-6.261-0.535-9.334
		c0.25,0.294,0.442,0.632,0.706,0.91c1.046,1.068,2.089,2.042,3.136,2.956c0.023,0.971,0.043,1.947,0.049,2.87
		c0.063,10.465,0.123,20.44,0.175,29.148C597.75,754.998,597.73,767.258,597.73,767.258z M608.205,703.131
		c2.941,1.849,5.712,3.591,8.322,5.231c10.401,6.612,18.106,11.744,23.79,15.596c11.36,7.715,14.701,10.225,14.701,10.225
		s-10.628-6.114-25.586-14.719c-7.515-4.399-16.124-9.439-25.155-14.726c-0.797-0.466-1.632-0.972-2.461-1.477
		c-0.268-1.364-0.59-2.754-0.992-4.194c-0.109-0.367-0.306-0.703-0.435-1.066C602.863,699.861,605.647,701.487,608.205,703.131z
		 M593.382,688.072c-0.434-0.378-0.876-0.786-1.299-1.131c-1.276-1.013-2.437-1.874-3.574-2.732
		c-0.537-1.822-1.079-3.633-1.755-5.385c0.349,1.421,0.577,2.969,0.793,4.646c-1.345-1.026-2.57-1.997-3.627-3.01
		c1.179,1.462,2.477,2.836,3.787,4.212c0.174,1.415,0.339,2.85,0.579,4.462c0.088,0.539,0.22,1.125,0.33,1.69
		c-1.895-2.312-4.244-4.58-6.503-7.45c-1.312-9.14-4.743-16.415-6.943-21.344c3.169,4.37,7.753,10.979,15.012,16.685
		C591.537,682.107,592.327,685.276,593.382,688.072z M610.862,680.337c6.843,3.705,9.011,4.88,9.011,4.88s-6.695-1.984-15.823-6.071
		c-8.942-3.994-20.094-10.294-29.257-17.963c-0.082-0.188-0.185-0.412-0.263-0.592c0.026,0.142,0.033,0.292,0.058,0.434
		c-0.111-0.093-0.237-0.174-0.347-0.268c0.117,0.157,0.26,0.358,0.381,0.523c2.06,11.771,1.939,24.578,0.927,34.319
		c-1.024,9.949-2.654,16.739-2.654,16.739s0.067-2.465,0.28-10.244c0.074-7.729,0.401-20.89-1.953-41.939
		c0.817-0.198,1.549-0.59,2.169-1.203c0.84-0.23,1.547-0.669,2.126-1.277C592.57,670.239,604.131,676.537,610.862,680.337z
		 M575.877,592.341c-0.608,17.629-5.931,36.044-10.055,53.501c-17.18-5.157-35.789-9.754-51.361-18.042
		c-5.586-2.974-10.682-6.655-15.327-10.853c8.753-19.037,14.499-38.506,12.856-56.298c-0.396-4.291-1.366-8.518-2.68-12.687
		c2.954,3.223,6.13,6.177,9.648,8.665c14.589,10.32,34.326,15.078,55.191,17.016C575.462,579.762,576.095,586.016,575.877,592.341z
		 M662.242,571.752c33.761-5.848,51.405,16.739,69.737,40.263C702.441,607.901,674.058,603.914,662.242,571.752z M695.938,692.688
		c-0.816,1.81-5.009,7.763-9.741,12.136c0.506-6.858-1.213-14.706-4.939-20.088c-10.091-14.578-27.957-19.867-40.009-32.401
		c-18.006-18.727-14.902-41.36-5.64-62.35c-2.285,15.002,0.178,30.281,9.545,43.515c8.011,11.318,19.539,17.782,31.477,24.231
		c5.365,2.898,10.801,5.651,16.082,8.685c0.073,0.681,0.241,1.381,0.622,2.098C697.679,676.704,699.943,683.796,695.938,692.688z
		 M727.927,654.121c7.789,3.876,10.617,13.796,10.962,22.058c0.175,4.182-1.395,10.711-4.364,15.852
		c-0.733-2.847-1.855-5.552-3.322-7.67c-24.716-35.673-94.04-43.305-85.006-93.177c2.995,16.253,15.115,29.785,29.408,40.613
		c10.631,8.054,22.761,14.184,35.502,18.142c4.279,1.329,9.686,2.211,15.459,3.117C726.961,653.439,727.342,653.83,727.927,654.121z
		 M743.58,645.253c-28.551-6.427-87.394-21.019-87.31-59.612c5.515,10.289,13.275,19.059,23.721,25.419
		c17.468,10.636,38.287,10.602,58.096,13.108c0.487,1.564,1.586,2.944,3.612,3.541c14.355,4.233,24.293,15.077,27.219,28.433
		C761.992,650.444,752.721,647.31,743.58,645.253z M793.456,636.141c9.69-0.948,13.684,8.026,17.337,15.365
		c1.543,3.099,3.09,6.064,4.89,8.835c-3.3-0.174-6.641-0.031-10.097,0.183c-8.182,0.506-17.95,1.534-21.975-7.332
		c-1.061-2.337-2.976-3.077-4.862-2.828c-1.762-5.922-4.609-11.393-8.406-16.199c6.061,0.885,12.223,0.615,18.232-0.82
		C789.303,635.102,790.901,636.391,793.456,636.141z M788.631,621.95c-13.021,4.129-27.366,0.941-38.201-9.366
		c-1.53-1.456-3.274-1.718-4.872-1.358c-12.074-15.902-22.455-33.948-40.4-43.758c-10.73-5.866-22.206-8.202-33.874-7.833
		c33.38-19.369,75.439,24.295,95.28,45.807C772.911,612.323,780.245,618.799,788.631,621.95z M794.244,575.17
		c2.568,0.212,5.471-0.17,8.304-0.958c-2.968,5.141-7.837,9.765-11.546,11.704c-7.328,3.832-17.332,6.343-24.584,1.536
		c-0.57-0.378-1.131-0.597-1.683-0.744c-3.641-4.509-7.081-8.711-10.348-11.73c-9.798-9.056-21.171-16.495-33.462-21.675
		c-16.524-6.964-34.302-10.694-49.875-5.162C709.722,515.383,750.993,571.602,794.244,575.17z M721.533,513.28
		c16.881,4.17,30.394,16.999,48.064,18.448c6.523,0.535,14.18-1.9,19.866-5.767c-1.421,6.284-4.48,12.892-5.64,14.504
		c-5.697,7.914-12.972,9.5-22.237,9.834c-0.811,0.029-1.501,0.234-2.127,0.511c-5.268-3.057-10.37-6.388-15.563-9.585
		c-11.554-7.115-22.916-13.866-36.724-15.145c-16.144-1.495-30.608,4.011-42.457,13.491
		C678.264,521.054,696.312,507.05,721.533,513.28z M645.27,561.954c-19.722,1.083-42.173,2.236-63.606,0.449
		c-2.769-10.462-7.38-20.976-14.566-31.745c-6.642-9.953-14.339-18.863-22.776-26.987c11.253,3.245,22.818,5.456,34.759,6.231
		c12.92,0.839,24.33-0.425,34.775-3.258C626.121,524.312,636.348,544.332,645.27,561.954z M619.828,494.511
		c-12.11-17.099-26.098-31.809-42.328-39.283c-3.914-1.802-8.06-3.076-12.328-4.023c4.268-0.946,8.414-2.22,12.328-4.022
		c16.23-7.474,30.218-22.184,42.328-39.283c5.958,1.924,11.694,4.496,17.062,7.847c14.964,9.341,28.25,23.158,41.306,35.458
		c-13.055,12.3-26.342,26.117-41.306,35.458C631.521,490.015,625.785,492.587,619.828,494.511z M739.321,478.327
		c0,0-2.101-1.291-8.731-5.364c-6.656-3.929-17.892-10.792-37.297-19.278c0.237-0.806,0.264-1.637,0.043-2.48
		c0.22-0.843,0.193-1.673-0.043-2.48c19.405-8.486,30.64-15.349,37.297-19.278c6.63-4.073,8.731-5.364,8.731-5.364
		s-5.066,4.806-13.17,10.668c-7.93,5.747-18.961,12.254-30.185,16.356c-0.204-0.023-0.45-0.045-0.644-0.069
		c0.136,0.049,0.269,0.117,0.406,0.167c-0.136,0.05-0.269,0.118-0.406,0.167c0.194-0.023,0.441-0.046,0.645-0.069
		c11.224,4.102,22.254,10.609,30.184,16.356C734.255,473.521,739.321,478.327,739.321,478.327z M718.845,455.864
		c-8.571-3.434-16.587-4.099-21.956-4.659c5.369-0.559,13.385-1.225,21.956-4.659c3.615,0.521,6.753,1.421,9.703,1.906
		c-0.544,0.187-1.118,0.366-1.629,0.559c-1.516,0.598-2.842,1.173-4.154,1.73c-1.846-0.446-3.685-0.882-5.541-1.173
		c1.405,0.409,2.86,0.984,4.42,1.636c-1.561,0.652-3.015,1.228-4.42,1.636c1.856-0.291,3.695-0.727,5.541-1.173
		c1.312,0.556,2.638,1.131,4.153,1.729c0.511,0.194,1.085,0.372,1.629,0.56C725.599,454.442,722.46,455.343,718.845,455.864z
		 M799.299,484.28c0,0-3.844-1.638-16.205-7.618c-6.178-2.996-14.475-7.103-25.402-12.805c-2.726-1.44-5.619-2.969-8.691-4.591
		c-2.702-1.393-5.503-2.991-8.351-4.204c0.379-0.07,0.769-0.067,1.141-0.156c1.448-0.371,2.813-0.788,4.128-1.238
		c0.852,0.466,1.708,0.936,2.511,1.393c9.095,5.178,17.763,10.113,25.331,14.422C788.691,478.133,799.299,484.28,799.299,484.28z"/>
	<path d="M838.879,459.732c-2.436-1.64-5.127-3.345-8.178-5.135c-1.535-0.889-3.119-1.825-4.879-2.737
		c-0.541-0.242-1.171-0.427-1.734-0.654c0.562-0.228,1.192-0.412,1.734-0.654c1.76-0.912,3.344-1.848,4.879-2.737
		c3.051-1.79,5.743-3.495,8.178-5.135c4.501-3.313,8.097-6.396,11.688-9.509c7.172-6.228,14.234-12.588,27.882-21.216
		c-13.794,6.564-22.842,9.471-31.963,12.763c-4.56,1.646-9.139,3.387-14.338,5.731c-2.512,0.995-5.14,2.102-7.98,3.418
		c-1.417,0.675-2.884,1.375-4.42,2.107c-1.485,0.577-3.084,1.132-4.804,1.681c-9.316,2.891-19.467,4.563-28.085,6.581
		c-8.586,1.987-15.676,4.078-20.523,5.892c2.162-0.217,4.13-0.393,6.188-0.586c6.528,0.399,13.096,0.965,19.578,1.665
		c-6.482,0.7-13.049,1.266-19.578,1.665c-2.058-0.193-4.026-0.37-6.188-0.586c4.847,1.813,11.937,3.905,20.523,5.891
		c8.617,2.018,18.768,3.69,28.085,6.581c1.72,0.549,3.319,1.103,4.804,1.681c1.536,0.732,3.003,1.431,4.42,2.107
		c2.839,1.316,5.468,2.423,7.98,3.419c5.199,2.343,9.778,4.085,14.338,5.731c9.121,3.292,18.169,6.199,31.963,12.763
		c-13.648-8.628-20.71-14.988-27.882-21.216C846.976,466.127,843.38,463.045,838.879,459.732z M806.833,445.999
		c5.239-0.808,9.749-1.86,13.575-3.138c3.821-1.282,6.866-3.081,9.598-4.238c5.429-2.445,8.894-4.31,11.048-5.386
		c2.151-1.074,2.976-1.486,2.976-1.486s-2.242,1.463-6.036,3.938c-3.852,2.406-9.431,5.75-16.319,9.188
		c-2.827,1.185-5.959,2.126-9.213,2.957c-3.933-0.716-7.655-1.039-11.169-1.125C803.178,446.48,805.11,446.259,806.833,445.999z
		 M841.054,469.173c-2.154-1.076-5.619-2.941-11.048-5.386c-2.733-1.158-5.778-2.956-9.598-4.238
		c-3.826-1.278-8.335-2.33-13.575-3.138c-1.723-0.261-3.655-0.482-5.542-0.711c3.514-0.086,7.236-0.408,11.17-1.125
		c3.253,0.831,6.385,1.772,9.213,2.957c6.888,3.438,12.467,6.781,16.319,9.188c3.794,2.475,6.036,3.938,6.036,3.938
		S843.205,470.247,841.054,469.173z"/>
	<path d="M454.773,615.628c-0.505,0-0.891,0.167-1.324,0.269c-0.433-0.103-0.82-0.269-1.324-0.269c-7.156,0-7.168,11.122,0,11.122
		c0.504,0,0.891-0.167,1.324-0.27c0.433,0.103,0.82,0.27,1.324,0.27C461.941,626.75,461.93,615.628,454.773,615.628z"/>
	<path d="M531.283,586.019c-1.42,0.211-2.773,0.996-3.711,2.62c-3.374,5.844,4.936,11.002,8.907,6.381
		c5.988-1.127,5.676-10.904-1.072-10.904C533.532,584.115,532.176,584.895,531.283,586.019z"/>
	<path d="M459.272,717.567c0.159-3.79-2.879-5.508-5.823-5.283c-2.944-0.225-5.981,1.493-5.823,5.283
		c0.349,8.355,0.203,16.685-0.44,25.023c-0.313,4.056,3.123,5.709,6.263,5.158c3.14,0.552,6.575-1.102,6.262-5.158
		C459.069,734.252,458.922,725.922,459.272,717.567z"/>
	<path d="M310.821,533.551c-0.128-0.427-0.177-0.844-0.429-1.282c-3.578-6.198-13.216-0.647-9.632,5.561
		c0.252,0.437,0.59,0.689,0.896,1.013c0.128,0.427,0.176,0.844,0.428,1.281c3.584,6.208,13.21,0.637,9.632-5.561
		C311.464,534.126,311.127,533.875,310.821,533.551z"/>
	<path d="M365.697,603.195c-0.864-1.374-2.279-2.397-4.403-2.397c-6.94,0-7.1,10.375-0.568,11.007
		c3.813,5.34,12.718,0.015,9.248-5.995C368.912,603.971,367.319,603.257,365.697,603.195z"/>
	<path d="M375.614,586.019c-0.893-1.124-2.249-1.903-4.124-1.903c-6.748,0-7.06,9.777-1.072,10.904
		c3.97,4.622,12.281-0.536,8.907-6.381C378.387,587.015,377.034,586.23,375.614,586.019z"/>
	<path d="M354.416,622.736c-0.458-2.307-2.127-4.328-5.17-4.328c-7.156,0-7.168,11.122,0,11.122c0.538,0,0.955-0.171,1.413-0.287
		c0.128,0.454,0.188,0.901,0.458,1.367c3.584,6.208,13.21,0.637,9.632-5.561C359.227,622.414,356.643,621.979,354.416,622.736z"/>
	<path d="M219.861,579.343c-7.061,4.48-14.349,8.518-21.89,12.131c-3.594,1.721-3.39,5.403-1.459,7.851
		c1.027,3.088,4.299,5.34,7.722,2.996c6.899-4.725,14.04-9.018,21.45-12.892c3.298-1.724,3.342-5.125,1.769-7.555
		C226.22,579.131,223.122,577.274,219.861,579.343z"/>
	<path d="M82.729,468.544c1.417-0.675,2.884-1.375,4.419-2.107c1.486-0.578,3.084-1.132,4.804-1.681
		c9.316-2.891,19.467-4.563,28.085-6.581c8.586-1.986,15.676-4.078,20.522-5.891c-2.162,0.217-4.129,0.393-6.187,0.586
		c-6.528-0.399-13.096-0.965-19.578-1.665c6.482-0.7,13.05-1.266,19.578-1.665c2.058,0.193,4.025,0.37,6.187,0.586
		c-4.846-1.813-11.937-3.905-20.522-5.892c-8.618-2.018-18.769-3.69-28.085-6.581c-1.72-0.549-3.319-1.103-4.804-1.681
		c-1.536-0.732-3.002-1.432-4.419-2.107c-2.84-1.316-5.468-2.423-7.98-3.418c-5.199-2.343-9.778-4.085-14.338-5.731
		c-9.121-3.292-18.169-6.199-31.963-12.763c13.648,8.628,20.71,14.988,27.882,21.216c3.591,3.113,7.187,6.196,11.688,9.509
		c2.436,1.64,5.127,3.345,8.178,5.135c1.535,0.889,3.119,1.825,4.879,2.737c0.541,0.242,1.171,0.426,1.734,0.654
		c-0.562,0.228-1.192,0.412-1.734,0.654c-1.76,0.912-3.344,1.848-4.879,2.737c-3.051,1.79-5.742,3.495-8.178,5.135
		c-4.501,3.313-8.097,6.396-11.688,9.509c-7.172,6.228-14.234,12.588-27.882,21.216c13.794-6.564,22.842-9.472,31.963-12.763
		c4.56-1.646,9.139-3.387,14.338-5.731C77.262,470.967,79.89,469.86,82.729,468.544z M68.904,435.69
		c-3.794-2.475-6.036-3.938-6.036-3.938s0.825,0.412,2.975,1.486c2.154,1.076,5.619,2.941,11.048,5.386
		c2.733,1.157,5.778,2.956,9.599,4.238c3.826,1.278,8.335,2.33,13.575,3.138c1.723,0.261,3.655,0.481,5.541,0.711
		c-3.514,0.086-7.236,0.409-11.17,1.125c-3.253-0.831-6.385-1.772-9.213-2.957C78.335,441.44,72.756,438.096,68.904,435.69z
		 M62.868,470.659c0,0,2.242-1.463,6.036-3.938c3.852-2.407,9.431-5.75,16.319-9.188c2.827-1.185,5.959-2.126,9.213-2.957
		c3.933,0.717,7.656,1.038,11.17,1.125c-1.886,0.229-3.819,0.45-5.542,0.711c-5.239,0.808-9.749,1.86-13.575,3.138
		c-3.821,1.282-6.866,3.081-9.599,4.238c-5.429,2.444-8.894,4.31-11.048,5.386C63.692,470.247,62.868,470.659,62.868,470.659z"/>
	<path d="M277.82,446.194c-3.471-6.011-12.535-0.961-9.816,5.011c-2.719,5.972,6.345,11.022,9.816,5.011
		c1.062-1.839,0.883-3.576,0.126-5.011C278.703,449.77,278.882,448.033,277.82,446.194z"/>
	<path d="M297.365,446.682c-3.374-5.844-11.997-1.226-9.98,4.523c-2.017,5.75,6.605,10.368,9.98,4.523
		c0.938-1.624,0.941-3.188,0.414-4.523C298.306,449.869,298.303,448.306,297.365,446.682z"/>
	<path d="M284.122,744.487c2.634-5.963,5.428-11.933,8.346-17.786c1.197-1.686,2.333-3.302,3.602-5.067
		c-3.994,3.29-9.35,8.385-15.363,14.827c-6.057,6.454-12.58,14.409-19.742,21.032c-1.335,1.215-2.615,2.323-3.858,3.32
		c-1.402,0.964-2.741,1.885-4.034,2.774c-2.56,1.801-4.832,3.523-6.95,5.201c-4.629,3.331-8.426,6.425-12.132,9.552
		c-7.411,6.253-14.453,12.635-27.035,21.299c14.296-7.505,23.335-10.442,32.314-13.539c4.492-1.553,8.959-3.126,14.079-5.368
		c2.638-1.289,5.461-2.768,8.537-4.515c1.537-0.885,3.14-1.789,4.81-2.857c0.48-0.348,0.955-0.801,1.434-1.174
		c-0.084,0.601-0.239,1.239-0.3,1.829c-0.09,1.98-0.072,3.82-0.069,5.594c0.025,3.537,0.156,6.721,0.358,9.65
		c0.619,5.555,1.49,10.21,2.391,14.877c1.808,9.325,3.784,18.621,4.432,34.754c1.212-15.228,3.218-24.518,4.928-34.063
		c0.855-4.772,1.636-9.608,2.206-15.282c0.394-2.673,0.749-5.503,1.029-8.62c0.123-1.565,0.251-3.185,0.385-4.881
		c0.243-1.575,0.562-3.237,0.947-5.001c2.155-9.513,5.782-19.14,8.343-27.613c2.572-8.429,4.306-15.615,5.159-20.719
		c-0.893,1.981-1.725,3.773-2.586,5.652C291.743,733.82,287.969,739.224,284.122,744.487z M263.856,766.934
		c-6.421,4.246-12.106,7.406-16.117,9.539c-4.04,2.048-6.428,3.259-6.428,3.259s0.769-0.508,2.774-1.834
		c2.009-1.327,5.357-3.396,10.188-6.875c2.369-1.788,5.449-3.526,8.469-6.193c3.019-2.675,6.186-6.054,9.505-10.187
		c1.087-1.362,2.245-2.924,3.386-4.443c-1.682,3.087-3.264,6.471-4.61,10.235C268.677,762.836,266.296,765.078,263.856,766.934z
		 M281.266,759.848c-1.92,4.941-3.263,9.373-4.07,13.325c-0.8,3.95-0.765,7.486-1.129,10.432c-0.597,5.924-0.715,9.858-0.86,12.26
		c-0.145,2.4-0.201,3.32-0.201,3.32s-0.146-2.673-0.392-7.197c-0.158-4.539-0.264-11.043,0.202-18.727
		c0.388-3.041,1.139-6.225,2.046-9.458c2.587-3.048,4.727-6.11,6.559-9.111C282.676,756.442,281.901,758.226,281.266,759.848z"/>
	<path d="M255.382,451.205c1.769-1.55,2.684-4.005,1.163-6.641c-3.578-6.198-13.216-0.647-9.632,5.561
		c0.269,0.466,0.626,0.742,0.955,1.08c-0.329,0.338-0.686,0.614-0.955,1.08c-3.584,6.208,6.053,11.759,9.632,5.561
		C258.066,455.211,257.151,452.755,255.382,451.205z"/>
	<path d="M246.123,133.621c2.118,1.678,4.391,3.401,6.95,5.201c1.294,0.889,2.633,1.81,4.034,2.774
		c1.243,0.998,2.523,2.105,3.858,3.321c7.162,6.622,13.685,14.578,19.742,21.032c6.013,6.442,11.37,11.536,15.363,14.827
		c-1.268-1.764-2.405-3.381-3.602-5.066c-2.918-5.853-5.712-11.823-8.346-17.786c3.847,5.263,7.621,10.669,11.23,16.122
		c0.861,1.879,1.693,3.671,2.586,5.652c-0.853-5.104-2.587-12.29-5.159-20.719c-2.561-8.472-6.189-18.099-8.343-27.613
		c-0.385-1.764-0.704-3.426-0.947-5.001c-0.134-1.696-0.262-3.316-0.385-4.881c-0.28-3.117-0.635-5.947-1.029-8.62
		c-0.57-5.674-1.351-10.51-2.206-15.282c-1.71-9.545-3.716-18.835-4.928-34.062c-0.649,16.133-2.625,25.429-4.432,34.754
		c-0.901,4.667-1.772,9.322-2.391,14.877c-0.203,2.93-0.333,6.113-0.358,9.65c-0.002,1.774-0.021,3.613,0.069,5.594
		c0.061,0.59,0.217,1.227,0.3,1.828c-0.479-0.373-0.954-0.826-1.434-1.174c-1.67-1.068-3.272-1.972-4.81-2.857
		c-3.076-1.747-5.898-3.225-8.537-4.515c-5.12-2.242-9.587-3.814-14.079-5.368c-8.979-3.097-18.018-6.033-32.314-13.539
		c12.582,8.664,19.624,15.046,27.035,21.299C237.696,127.196,241.494,130.29,246.123,133.621z M274.613,110.422
		c0.246-4.523,0.392-7.197,0.392-7.197s0.056,0.92,0.201,3.32c0.145,2.403,0.263,6.337,0.86,12.26
		c0.364,2.945,0.329,6.481,1.129,10.432c0.807,3.952,2.15,8.384,4.07,13.325c0.636,1.622,1.41,3.406,2.155,5.154
		c-1.832-3-3.972-6.062-6.559-9.11c-0.907-3.233-1.658-6.417-2.046-9.458C274.349,121.465,274.455,114.961,274.613,110.422z
		 M247.739,125.937c4.011,2.133,9.695,5.293,16.117,9.539c2.44,1.856,4.821,4.098,7.167,6.5c1.346,3.764,2.928,7.149,4.611,10.235
		c-1.142-1.519-2.299-3.082-3.386-4.443c-3.319-4.134-6.485-7.513-9.505-10.187c-3.021-2.668-6.101-4.406-8.469-6.194
		c-4.832-3.479-8.18-5.548-10.188-6.875c-2.005-1.326-2.774-1.834-2.774-1.834S243.699,123.889,247.739,125.937z"/>
	<path d="M311.717,367.847c3.578-6.198-6.048-11.769-9.632-5.561c-0.252,0.436-0.301,0.854-0.428,1.281
		c-0.306,0.324-0.644,0.576-0.896,1.013c-3.584,6.208,6.054,11.759,9.632,5.561c0.252-0.437,0.301-0.855,0.429-1.282
		C311.127,368.535,311.464,368.284,311.717,367.847z"/>
	<path d="M197.971,310.936c7.542,3.612,14.829,7.651,21.89,12.131c3.26,2.069,6.359,0.212,7.592-2.531
		c1.573-2.43,1.528-5.831-1.769-7.555c-7.41-3.875-14.551-8.167-21.45-12.892c-3.422-2.344-6.694-0.092-7.722,2.996
		C194.581,305.533,194.377,309.215,197.971,310.936z"/>
	<path d="M452.124,286.782c0.505,0,0.891-0.167,1.324-0.269c0.433,0.103,0.82,0.269,1.324,0.269c7.157,0,7.168-11.122,0-11.122
		c-0.504,0-0.891,0.167-1.324,0.27c-0.433-0.103-0.82-0.27-1.324-0.27C444.956,275.66,444.968,286.782,452.124,286.782z"/>
	<path d="M365.697,299.215c1.622-0.062,3.215-0.776,4.277-2.615c3.47-6.01-5.435-11.336-9.248-5.995
		c-6.531,0.632-6.372,11.007,0.568,11.007C363.418,301.612,364.833,300.589,365.697,299.215z"/>
	<path d="M375.614,316.391c1.42-0.211,2.773-0.996,3.711-2.62c3.374-5.844-4.936-11.002-8.907-6.381
		c-5.988,1.128-5.676,10.904,1.072,10.904C373.365,318.295,374.721,317.516,375.614,316.391z"/>
	<path d="M354.415,279.674c2.227,0.757,4.811,0.322,6.333-2.313c3.578-6.198-6.048-11.769-9.632-5.561
		c-0.269,0.466-0.329,0.913-0.457,1.367c-0.458-0.116-0.875-0.287-1.413-0.287c-7.168,0-7.156,11.122,0,11.122
		C352.288,284.002,353.957,281.981,354.415,279.674z"/>
	<path d="M447.626,184.843c-0.159,3.79,2.879,5.508,5.823,5.283c2.944,0.225,5.982-1.493,5.823-5.283
		c-0.35-8.355-0.203-16.685,0.44-25.023c0.313-4.056-3.122-5.709-6.262-5.158c-3.14-0.552-6.576,1.102-6.263,5.158
		C447.829,168.158,447.975,176.489,447.626,184.843z"/>
</g>
<g>
</g>
<g>
</g>
<g>
</g>
<g>
</g>
<g>
</g>
<g>
</g>
</svg>
