<?xml version="1.0" encoding="iso-8859-1"?>
<!-- Generator: Adobe Illustrator 22.0.1, SVG Export Plug-In . SVG Version: 6.00 Build 0)  -->
<svg version="1.1" id="Layer_1" xmlns="http://www.w3.org/2000/svg" xmlns:xlink="http://www.w3.org/1999/xlink" x="0px" y="0px"
	 width="900px" height="900px" viewBox="0 0 900 900" enable-background="new 0 0 900 900" xml:space="preserve">
<g>
	<path d="M607.085,446.769c-0.059,0.04-0.119,0.08-0.178,0.12c-21.615-14.625-44.957-29.225-71.725-30.46
		c-14.768-0.682-28.588,2.945-41.682,8.713c11.542-8.457,21.593-18.611,28.386-31.742c12.315-23.8,11.341-51.314,9.483-77.346
		c0.064-0.031,0.129-0.063,0.193-0.094c2.549-1.231,1.19-4.499-1.082-4.874c-1.46-1.78-4.971-1.323-4.762,1.501
		c0.006,0.075,0.01,0.151,0.016,0.225c-23.475,11.407-47.788,24.307-62.243,46.874c-7.974,12.449-11.743,26.23-13.296,40.454
		c-1.552-14.224-5.322-28.005-13.296-40.454c-14.455-22.567-38.768-35.467-62.243-46.874c0.006-0.075,0.01-0.151,0.016-0.225
		c0.208-2.824-3.302-3.281-4.763-1.501c-2.272,0.376-3.631,3.643-1.081,4.874c0.064,0.031,0.129,0.063,0.193,0.094
		c-1.858,26.032-2.831,53.546,9.483,77.346c6.794,13.13,16.845,23.285,28.386,31.742c-13.095-5.767-26.914-9.394-41.682-8.713
		c-26.769,1.235-50.11,15.836-71.725,30.46c-0.059-0.04-0.119-0.08-0.178-0.12c-2.341-1.592-4.492,1.218-3.681,3.374
		c-0.811,2.155,1.34,4.966,3.681,3.374c0.059-0.04,0.119-0.08,0.178-0.12c21.616,14.624,44.957,29.225,71.725,30.46
		c14.768,0.682,28.588-2.945,41.682-8.712c-11.542,8.457-21.592,18.611-28.386,31.741c-12.314,23.8-11.341,51.315-9.483,77.346
		c-0.064,0.031-0.129,0.063-0.193,0.094c-2.549,1.231-1.19,4.5,1.082,4.875c1.461,1.78,4.971,1.323,4.762-1.501
		c-0.006-0.075-0.01-0.15-0.016-0.225c23.475-11.407,47.788-24.308,62.243-46.874c7.974-12.449,11.743-26.23,13.296-40.454
		c1.552,14.224,5.322,28.005,13.296,40.454c14.456,22.567,38.769,35.467,62.243,46.874c-0.006,0.075-0.01,0.151-0.016,0.225
		c-0.209,2.824,3.301,3.281,4.762,1.501c2.272-0.375,3.632-3.644,1.082-4.875c-0.064-0.031-0.129-0.063-0.193-0.094
		c1.858-26.032,2.832-53.546-9.483-77.346c-6.794-13.13-16.845-23.285-28.386-31.741c13.095,5.767,26.914,9.394,41.682,8.712
		c26.769-1.235,50.11-15.836,71.725-30.46c0.059,0.04,0.119,0.08,0.178,0.12c2.341,1.592,4.492-1.219,3.681-3.374
		C611.577,447.988,609.426,445.177,607.085,446.769z M450.064,456.886c0.044-0.021,0.088-0.042,0.132-0.063
		c0.044,0.021,0.088,0.043,0.132,0.064c-0.046,0.65-0.087,1.306-0.132,1.958C450.15,458.192,450.11,457.536,450.064,456.886z
		 M450.195,441.443c0.045,0.652,0.085,1.308,0.132,1.958c-0.044,0.021-0.088,0.042-0.132,0.064
		c-0.044-0.021-0.088-0.042-0.132-0.063C450.11,442.751,450.15,442.095,450.195,441.443z M451.038,450.143
		c-0.06,0.123-0.075,0.281-0.117,0.419c-0.098,0.105-0.227,0.197-0.303,0.31c-0.137,0.01-0.281,0.076-0.422,0.108
		c-0.14-0.032-0.285-0.098-0.422-0.108c-0.077-0.113-0.205-0.205-0.303-0.31c-0.042-0.138-0.058-0.296-0.118-0.419
		c0.06-0.123,0.076-0.281,0.118-0.419c0.098-0.105,0.226-0.197,0.303-0.31c0.137-0.01,0.281-0.076,0.422-0.108
		c0.14,0.032,0.285,0.098,0.422,0.108c0.077,0.113,0.205,0.205,0.303,0.31C450.962,449.863,450.978,450.02,451.038,450.143z
		 M444.411,446.804c-0.041,0.028-0.081,0.055-0.121,0.082c-0.54-0.365-1.088-0.728-1.63-1.093c0.588,0.287,1.176,0.58,1.762,0.865
		C444.418,446.706,444.415,446.755,444.411,446.804z M444.411,453.483c0.004,0.048,0.007,0.097,0.011,0.146
		c-0.587,0.285-1.175,0.578-1.762,0.865c0.542-0.365,1.09-0.728,1.63-1.093C444.33,453.428,444.371,453.455,444.411,453.483z
		 M455.98,453.483c0.041-0.027,0.081-0.055,0.121-0.082c0.54,0.365,1.088,0.728,1.63,1.093c-0.587-0.287-1.176-0.58-1.762-0.865
		C455.972,453.58,455.976,453.531,455.98,453.483z M455.98,446.804c-0.004-0.048-0.007-0.097-0.011-0.146
		c0.587-0.285,1.175-0.578,1.762-0.865c-0.542,0.365-1.09,0.728-1.63,1.093C456.06,446.858,456.02,446.831,455.98,446.804z
		 M470.305,359.712c13.737-19.369,34.869-30.857,55.835-41.107c1.606,23.282,2.223,47.326-7.682,68.908
		c-12.228,26.642-37.645,40.982-62.901,53.346C453.636,412.805,453.346,383.622,470.305,359.712z M381.934,387.512
		c-9.906-21.582-9.289-45.626-7.682-68.908c20.966,10.25,42.097,21.738,55.834,41.107c16.958,23.91,16.669,53.093,14.749,81.147
		C419.58,428.494,394.162,414.154,381.934,387.512z M361.825,477.944c-23.643-2.212-44.158-14.77-63.517-27.801
		c19.359-13.032,39.874-25.588,63.517-27.8c29.186-2.731,54.314,12.111,77.649,27.8
		C416.139,465.833,391.011,480.675,361.825,477.944z M430.086,540.575c-13.737,19.369-34.869,30.857-55.834,41.107
		c-1.606-23.281-2.223-47.326,7.682-68.908c12.228-26.642,37.646-40.982,62.901-53.346
		C446.755,487.482,447.044,516.665,430.086,540.575z M518.457,512.774c9.906,21.582,9.289,45.626,7.682,68.908
		c-20.966-10.25-42.097-21.738-55.835-41.107c-16.958-23.91-16.668-53.093-14.748-81.147
		C480.812,471.792,506.229,486.133,518.457,512.774z M538.566,477.944c-29.186,2.731-54.314-12.111-77.65-27.801
		c23.335-15.69,48.463-30.532,77.65-27.8c23.643,2.212,44.157,14.769,63.517,27.8C582.724,463.175,562.209,475.732,538.566,477.944z
		"/>
	<path d="M553.172,447.134c-17.824-14.135-41.365-14.093-59.551,0.004c-1.163,0.901-1.096,2.084-0.468,3.005
		c-0.628,0.921-0.695,2.105,0.468,3.006c18.186,14.097,41.727,14.139,59.551,0.004c1.567-0.082,2.898-1.533,2.697-3.01
		C556.071,448.667,554.74,447.216,553.172,447.134z M498.579,450.143c15.289-11.147,34.77-11.026,49.751,0
		C533.349,461.17,513.868,461.29,498.579,450.143z"/>
	<path d="M860.977,450.143c6.667-3.193,12.448-7.853,13.887-14.889c4.097-20.039-31.195-23.875-27.951-5.412
		c0.603,3.43,5.828,2.042,5.23-1.361c16.269,5.844,18.91,11.151,7.925,15.92c-2.189,0.933-4.377,1.866-6.565,2.799
		c-2.803-0.917-5.547-1.653-7.988-2.252c-11.778-2.89-23.736-3.14-35.536-1.312c3.995-2.31,7.519-5.063,9.898-8.433
		c10.346-14.66-8.149-29.582-19.8-15.369c-2.184,2.664,1.638,6.49,3.849,3.794c8.528,8.738,8.398,14.338-0.39,16.801
		c-5.601,2.798-11.447,4.851-17.539,6.161c-1.641,0.359-3.291,0.606-4.94,0.851c-5.971-0.846-12.006-1.124-18.04-1.064
		c-4.001,0.04-8.689,0.712-13.434,1.189c-4.706-0.469-9.383-0.801-13.914-0.125c-0.282-0.055-0.586-0.07-0.863-0.135
		c0.448-0.09,0.899-0.161,1.347-0.253c10.979-2.25,28.339-4.613,35.221-15.003c9.525-14.379-8.383-25.805-20.211-15.568
		c-2.626,2.273,1.228,6.061,3.849,3.794c9.212,8.73,9.61,13.921,1.195,15.573c-3.217,1.571-6.578,2.726-10.084,3.464
		c-5.631,1.551-11.55,2.594-17.282,3.679c-9.913,1.878-19.887,3.314-29.902,4.449c-0.247-0.028-0.495-0.048-0.742-0.076
		c4.846-0.928,9.679-1.944,14.327-3.931c5.221-2.233,13.29-5.516,15.558-11.318c4.088-10.457-8.234-15.828-15.644-9.736
		c-2.68,2.203,1.181,5.987,3.849,3.794c4.795,3.962,5.437,6.697,1.927,8.205c-1.467,0.956-2.986,1.824-4.556,2.604
		c-3.947,2.016-8.133,3.52-12.428,4.587c-5.434,1.35-10.873,1.834-16.207,3.235c-18.347-35.412-58.204-67.125-98.803-67.239
		c3.804-2.276,7.579-4.6,11.337-6.952c23.633-4.469,47.757,1.3,66.693,16.249c2.696,2.129,6.528-1.69,3.794-3.849
		c-17.37-13.713-38.456-20.264-60.072-19.027c5.987-3.859,11.955-7.751,17.902-11.679c0.425,0.386,0.983,0.653,1.739,0.63
		c13.464-0.411,26.774,0.574,39.931,3.618c5.888,1.363,11.765,3.027,17.422,5.164c3.595,1.223,7.016,2.806,10.264,4.749
		c11.831,6.413,10.779,14.463-3.155,24.148c-3.109-1.515-5.814,3.166-2.677,4.694c18.509,9.017,26.677-15.184,15.457-27.873
		c-15.164-17.152-48.005-20.158-71.071-20.008c5.238-2.616,10.469-5.243,15.688-7.898c10.275-1.291,20.511,0.865,29.555,6.365
		c2.971,1.807,5.652-2.885,2.677-4.694c-6.686-4.067-14.043-6.435-21.589-7.175c6.955-3.632,13.879-7.324,20.709-11.199
		c0.267-0.152,0.438-0.349,0.62-0.54c0.022,0.053,0.014,0.102,0.039,0.155c0.292,0.612,0.671,1.127,0.982,1.717
		c-4.523,13.247,15.922,24.496,25.542,29.411c8.521,4.353,17.523,7.197,26.978,8.641c13.884,2.121,46.239-4.082,53.801,10.464
		c-1.63,0.585-2.784,2.812-1.232,4.514c8.721,9.562,16.611-4.554,14.886-13.025c-2.912-14.301-17.529-19.683-30.234-22.749
		c18.327-4.36,36.365-6.684,49.706,4.59c1.723,1.456,3.92,0.319,4.514-1.267c1.316-0.606,2.213-2.081,1.227-3.665
		c-11.744-18.865-32.531-22.472-52.964-22.089c19.296-6.151,39.065-11.052,48.628-5.831c0.025,0.059,0.056,0.113,0.081,0.172
		c0.479,1.167,1.492,1.715,2.515,1.796c0.105,0.106,0.26,0.163,0.361,0.274c2.336,2.573,6.129-1.276,3.794-3.849
		c-0.953-1.05-1.945-1.929-2.941-2.793c-4.414-8.59-11.68-15.436-20.059-18.771c11.007-1.611,22.298-0.942,34.108,3.633
		c3.244,1.256,4.611-3.975,1.398-5.219c-17.26-6.685-33.294-5.297-48.844-0.551c-4.861,0.384-9.786,2.069-14.51,5.307
		c-29.156,12.198-57.385,31.284-89.728,25.16c21.324-0.775,38.643-11.675,54.417-25.233c0.448-0.002,0.914-0.1,1.397-0.456
		c24.595-18.165,74.06-40.666,95.566-7.142c1.874,2.922,6.557,0.228,4.679-2.701c-8.766-13.665-21.548-19.222-35.555-19.758
		c3.371-6.371,8.255-13.197,10.395-20.047c0.742-2.375,0.408-4.466-1.248-5.844c-0.366-2.124-2.01-3.458-4.438-4.003
		c-7.002-1.572-15.355-0.755-22.558-1.022c6.539-12.399,8.118-26.246,0.667-40.671c-1.597-3.091-6.272-0.383-4.679,2.701
		c18.28,35.388-25.939,66.975-53.968,79.192c-0.549,0.239-0.869,0.594-1.094,0.981c-19.629,6.882-37.727,16.43-49.061,34.51
		c10.868-31.071,41.512-45.975,66.653-65.126c5.167-2.472,9.088-5.894,11.852-9.912c11.885-11.093,21.103-24.286,23.944-42.576
		c0.529-3.404-4.685-4.836-5.218-1.398c-1.944,12.516-7.01,22.629-13.909,31.355c1.303-8.925-0.994-18.64-6.226-26.757
		c-0.25-1.294-0.516-2.593-0.949-3.944c-1.061-3.308-6.291-1.948-5.23,1.361c0.04,0.123,0.048,0.255,0.083,0.379
		c-0.474,0.937-0.519,2.123,0.271,3.147c0.048,0.062,0.086,0.129,0.133,0.191c-0.295,10.89-14.434,25.553-29.394,39.173
		c10.551-17.506,17.825-37.316,7.358-56.923c-0.878-1.645-2.605-1.606-3.788-0.769c-1.67-0.278-3.753,1.056-3.354,3.275
		c3.092,17.191-7.939,31.651-20.879,45.342c3.697-12.537,6.346-27.886-4.584-37.559c-6.474-5.73-22.643-5.955-18.723,6.379
		c0.698,2.196,3.204,2.31,4.525,1.19c8.816,13.822-12.734,38.74-17.839,51.825c-3.476,8.91-5.515,18.128-6.005,27.684
		c-0.554,10.79-1.034,34.12,12.7,36.826c0.355,0.565,0.612,1.151,0.996,1.709c0.033,0.048,0.08,0.066,0.115,0.112
		c-0.257,0.062-0.513,0.111-0.778,0.266c-6.771,3.977-13.43,8.128-20.053,12.335c3.133-6.905,4.76-14.46,4.581-22.284
		c-0.079-3.481-5.483-3.506-5.403-0.029c0.241,10.583-3.01,20.525-9.265,28.778c-4.908,3.192-9.8,6.409-14.684,9.637
		c11.663-19.901,25.48-49.845,18.208-71.554c-5.38-16.061-30.422-21.088-31.868-0.55c-0.245,3.481,5.161,3.479,5.404,0.029
		c15.354-7.225,22.851-4.111,22.49,9.342c0.059,3.784-0.281,7.539-1.019,11.263c-0.978,5.968-2.475,11.89-4.239,17.67
		c-3.942,12.917-9.744,24.936-16.831,36.39c-0.398,0.643-0.445,1.26-0.324,1.821c-6.376,3.186-12.73,6.409-19.066,9.664
		c11.879-18.101,16.749-39.638,13.558-61.538c-0.502-3.447-5.725-2.038-5.23,1.361c3.478,23.874-3.588,47.65-19.274,65.882
		c-3.916,2.078-7.816,4.187-11.689,6.343c20.201-35.217,12.665-85.591-8.829-119.185c3.881-3.919,7.02-8.387,10.905-12.418
		c3.071-3.186,6.466-6.059,10.186-8.469c1.461-0.97,2.972-1.851,4.533-2.644c3.062-2.286,5.109-0.362,6.142,5.771
		c-3.233,1.214-1.887,6.449,1.361,5.23c8.98-3.371,10.49-16.728-0.61-18.416c-6.159-0.937-13.036,4.409-17.58,7.814
		c-4.044,3.031-7.341,6.709-10.567,10.441c0.037-0.084,0.075-0.167,0.112-0.251c6.073-8.234,12.315-16.34,18.997-24.101
		c3.806-4.421,7.669-9.026,11.827-13.127c2.392-2.667,5.072-5.001,8.042-7.001c5.639-6.462,9.936-3.522,12.89,8.821
		c-3.274,1.135-1.921,6.368,1.361,5.23c14.78-5.125,13.84-26.347-3.376-25.288c-12.439,0.766-23.166,14.619-30.604,23.001
		c-0.303,0.342-0.59,0.697-0.892,1.04c0.082-0.272,0.221-0.542,0.314-0.814c2.85-3.586,4.901-7.802,6.848-12.112
		c2.785-3.871,5.712-7.596,7.747-11.041c3.069-5.196,5.845-10.561,8.098-16.156c1.036-1.306,2.075-2.61,3.207-3.852
		c4.18-4.62,8.882-8.656,14.105-12.108c6.527-6.379,11.442-3.691,14.745,8.063c-3.44,0.566-2.038,5.789,1.361,5.23
		c18.134-2.984,14.459-26.461-3.41-24.832c-4.107,0.375-8.253,2.05-12.251,4.355c7.482-9.305,13.245-19.786,16.631-31.431
		c0.702-2.413,1.436-5.157,2.043-8.044c1.902-1.429,3.805-2.857,5.707-4.286c9.623-7.13,12.898-2.189,9.825,14.823
		c-2.648-2.219-6.463,1.612-3.794,3.849c14.367,12.042,28.691-20.44,9.289-26.912c-6.813-2.272-13.74,0.405-19.839,4.582
		c0.568-7.37-0.576-14.707-5.951-19.471c-15.306-13.568-36.275,15.078-18.662,21.5c3.272,1.193,4.682-4.026,1.436-5.21
		c13.196-11.167,19.112-10.802,17.749,1.097c-0.286,2.362-0.572,4.723-0.858,7.085c-2.196,1.969-4.205,3.977-5.944,5.791
		c-8.392,8.754-14.587,18.986-18.905,30.119c-0.003-4.615-0.625-9.044-2.354-12.788c-7.523-16.29-29.693-7.734-23.21,9.462
		c1.215,3.223,6.44,1.827,5.21-1.436c11.831-3.016,16.616-0.104,14.356,8.738c-0.378,6.25-1.523,12.339-3.434,18.27
		c-0.544,1.708-1.188,3.367-1.849,5.019c-3.634,4.676-6.914,9.614-9.826,14.776c-1.966,3.484-3.728,7.881-5.687,12.228
		c-2.759,3.841-5.385,7.726-7.066,11.988c-0.189,0.217-0.354,0.473-0.549,0.68c0.146-0.434,0.311-0.86,0.455-1.294
		c3.541-10.632,10.175-26.848,4.618-38.004c-7.69-15.439-26.539-5.642-23.588,9.72c0.655,3.411,5.863,1.967,5.21-1.436
		c12.166-3.613,16.861-1.363,14.084,6.752c-0.248,3.572-0.928,7.06-2.042,10.465c-1.472,5.652-3.529,11.299-5.455,16.806
		c-3.38,9.668-7.279,19.125-11.373,28.502c-0.054,0.074-0.107,0.149-0.161,0.223c1.619-4.66,3.156-9.354,3.758-14.372
		c0.677-5.638,1.868-14.267-2.022-19.132c-7.012-8.769-17.824-0.783-16.254,8.68c0.568,3.422,5.775,1.97,5.21-1.436
		c5.828-2.171,8.518-1.36,8.069,2.434c0.094,1.749,0.087,3.498-0.023,5.248c-0.227,4.426-1.018,8.803-2.241,13.056
		c-1.548,5.38-3.849,10.334-5.302,15.654c-39.841-1.817-87.234,16.844-107.632,51.946c-0.07-4.433-0.194-8.864-0.352-13.295
		c7.946-22.701,25.004-40.708,47.419-49.633c3.191-1.271,1.799-6.498-1.436-5.21c-20.561,8.187-36.777,23.172-46.514,42.51
		c-0.348-7.115-0.735-14.229-1.163-21.343c0.546-0.175,1.057-0.525,1.415-1.191c6.376-11.865,13.884-22.899,23.099-32.772
		c4.124-4.418,8.504-8.675,13.183-12.506c2.856-2.502,5.938-4.673,9.245-6.514c11.47-7.039,17.915-2.104,19.336,14.806
		c-2.866,1.935-0.166,6.618,2.727,4.665c17.064-11.521,0.189-30.694-16.41-27.323c-22.436,4.557-41.46,31.495-52.863,51.546
		c0.354-5.844,0.694-11.689,1.004-17.536c4.019-9.544,11.004-17.33,20.29-22.412c3.051-1.67,0.328-6.337-2.727-4.665
		c-6.865,3.757-12.594,8.943-17.008,15.109c0.332-7.839,0.597-15.681,0.656-23.533c0.002-0.307-0.083-0.554-0.158-0.807
		c0.057,0.008,0.095,0.039,0.154,0.044c0.676,0.054,1.311-0.017,1.978,0.008c9.21,10.541,29.175-1.541,38.242-7.415
		c8.031-5.203,14.994-11.577,20.973-19.042c8.779-10.964,19.585-42.086,35.962-41.361c-0.309,1.705,1.042,3.818,3.293,3.324
		c12.642-2.772,4.362-16.662-3.837-19.404c-13.842-4.628-25.81,5.339-34.818,14.81c5.387-18.052,12.394-34.835,28.828-40.753
		c2.122-0.764,2.236-3.235,1.16-4.542c0.133-1.443-0.696-2.958-2.561-2.896c-22.214,0.738-35.732,16.943-45.618,34.833
		c4.316-19.765,9.944-39.342,19.228-45.042c0.078,0.01,0.154,0.009,0.232,0.02c1.281,0.172,2.286-0.46,2.86-1.338
		c0.125-0.032,0.244-0.09,0.37-0.118c3.396-0.736,1.959-5.946-1.436-5.21c-1.387,0.3-2.644,0.72-3.889,1.15
		c-9.646-0.472-19.208,2.397-26.286,7.987c4.108-10.338,10.334-19.781,20.2-27.722c2.71-2.181-1.136-5.98-3.82-3.82
		c-14.419,11.605-21.235,26.186-24.9,42.026c-2.098,4.402-3.1,9.508-2.658,15.217c-4.015,31.348-1.6,65.339-23.073,90.286
		c9.99-18.854,9.209-39.302,5.355-59.741c0.222-0.389,0.37-0.842,0.303-1.438c-3.434-30.382,1.812-84.471,41.599-86.333
		c3.468-0.162,3.476-5.565,0-5.403c-16.217,0.759-27.421,9.05-34.889,20.912c-3.831-6.104-7.301-13.747-12.163-19.025
		c-1.686-1.83-3.663-2.587-5.685-1.842c-2.022-0.745-4,0.011-5.686,1.842c-4.862,5.278-8.332,12.921-12.164,19.025
		c-7.468-11.863-18.671-20.153-34.889-20.913c-3.476-0.163-3.467,5.24,0,5.403c39.786,1.862,45.033,55.951,41.599,86.333
		c-0.067,0.596,0.08,1.049,0.303,1.438c-3.854,20.44-4.634,40.889,5.356,59.742c-21.474-24.947-19.059-58.936-23.074-90.285
		c0.443-5.71-0.56-10.817-2.658-15.219c-3.665-15.84-10.481-30.42-24.9-42.025c-2.684-2.16-6.531,1.639-3.821,3.82
		c9.867,7.941,16.091,17.385,20.2,27.722c-7.078-5.59-16.639-8.459-26.285-7.986c-1.246-0.43-2.503-0.85-3.889-1.15
		c-3.395-0.736-4.833,4.474-1.436,5.21c0.126,0.027,0.245,0.086,0.37,0.118c0.574,0.879,1.58,1.511,2.86,1.338
		c0.077-0.011,0.154-0.01,0.232-0.02c9.284,5.7,14.912,25.277,19.228,45.042c-9.885-17.89-23.404-34.095-45.618-34.834
		c-1.864-0.062-2.693,1.453-2.56,2.896c-1.076,1.307-0.962,3.778,1.16,4.542c16.434,5.917,23.441,22.701,28.828,40.753
		c-9.009-9.47-20.977-19.438-34.818-14.81c-8.199,2.742-16.479,16.633-3.837,19.404c2.251,0.494,3.602-1.619,3.293-3.324
		c16.378-0.724,27.184,30.398,35.963,41.361c5.978,7.466,12.942,13.84,20.972,19.042c9.067,5.874,29.031,17.956,38.242,7.415
		c0.667-0.025,1.303,0.046,1.978-0.008c0.059-0.005,0.098-0.036,0.154-0.044c-0.075,0.253-0.16,0.5-0.158,0.807
		c0.059,7.852,0.323,15.694,0.656,23.534c-4.414-6.166-10.143-11.352-17.008-15.109c-3.055-1.672-5.778,2.995-2.727,4.665
		c9.286,5.082,16.27,12.869,20.29,22.413c0.311,5.847,0.651,11.692,1.004,17.536c-11.403-20.051-30.427-46.989-52.863-51.546
		c-16.599-3.371-33.474,15.802-16.41,27.323c2.892,1.953,5.593-2.73,2.727-4.665c1.421-16.91,7.866-21.845,19.336-14.806
		c3.307,1.841,6.388,4.012,9.245,6.514c4.679,3.831,9.059,8.088,13.183,12.506c9.215,9.872,16.723,20.907,23.099,32.772
		c0.358,0.666,0.868,1.016,1.415,1.191c-0.429,7.115-0.815,14.229-1.163,21.343c-9.736-19.339-25.953-34.323-46.514-42.51
		c-3.236-1.289-4.628,3.939-1.436,5.21c22.415,8.925,39.473,26.932,47.419,49.634c-0.158,4.431-0.282,8.862-0.352,13.294
		c-20.397-35.103-67.791-53.764-107.632-51.947c-1.454-5.32-3.754-10.273-5.302-15.654c-1.223-4.253-2.014-8.63-2.242-13.056
		c-0.109-1.75-0.117-3.499-0.023-5.248c-0.449-3.794,2.241-4.605,8.069-2.434c-0.565,3.407,4.642,4.858,5.21,1.436
		c1.57-9.463-9.242-17.449-16.254-8.68c-3.891,4.866-2.7,13.494-2.023,19.132c0.603,5.018,2.139,9.713,3.759,14.373
		c-0.054-0.074-0.107-0.149-0.161-0.223c-4.095-9.377-7.993-18.835-11.374-28.504c-1.925-5.507-3.982-11.154-5.454-16.806
		c-1.114-3.405-1.794-6.893-2.042-10.465c-2.777-8.114,1.918-10.365,14.084-6.752c-0.654,3.403,4.554,4.847,5.21,1.436
		c2.951-15.362-15.898-25.159-23.588-9.72c-5.557,11.156,1.077,27.371,4.618,38.004c0.144,0.434,0.309,0.86,0.455,1.294
		c-0.195-0.207-0.359-0.463-0.548-0.68c-1.681-4.262-4.307-8.146-7.066-11.988c-1.959-4.347-3.722-8.744-5.687-12.228
		c-2.912-5.161-6.191-10.099-9.826-14.775c-0.661-1.651-1.306-3.31-1.849-5.019c-1.911-5.93-3.056-12.02-3.433-18.27
		c-2.261-8.842,2.524-11.755,14.355-8.738c-1.23,3.263,3.995,4.659,5.21,1.436c6.483-17.196-15.687-25.752-23.21-9.462
		c-1.73,3.745-2.352,8.173-2.354,12.789c-4.317-11.133-10.513-21.365-18.905-30.12c-1.739-1.814-3.749-3.823-5.945-5.792
		c-0.286-2.362-0.572-4.723-0.858-7.085c-1.363-11.899,4.554-12.264,17.749-1.097c-3.246,1.183-1.835,6.403,1.436,5.21
		c17.612-6.422-3.356-35.068-18.662-21.5c-5.375,4.764-6.52,12.101-5.951,19.471c-6.099-4.177-13.025-6.854-19.838-4.581
		c-19.403,6.472-5.079,38.954,9.288,26.912c2.669-2.237-1.146-6.068-3.794-3.849c-3.073-17.011,0.202-21.952,9.825-14.823
		c1.902,1.429,3.805,2.857,5.707,4.286c0.607,2.886,1.341,5.63,2.043,8.044c3.386,11.645,9.149,22.126,16.632,31.431
		c-3.998-2.305-8.144-3.98-12.252-4.355c-17.869-1.63-21.544,21.848-3.41,24.832c3.398,0.559,4.802-4.664,1.361-5.23
		c3.304-11.754,8.219-14.442,14.745-8.063c5.223,3.452,9.925,7.488,14.105,12.108c1.132,1.242,2.17,2.546,3.207,3.852
		c2.253,5.594,5.03,10.96,8.099,16.156c2.035,3.445,4.962,7.17,7.747,11.04c1.947,4.309,3.998,8.526,6.848,12.112
		c0.093,0.272,0.232,0.542,0.314,0.814c-0.302-0.343-0.589-0.698-0.892-1.04c-7.438-8.382-18.164-22.236-30.603-23.001
		c-17.216-1.06-18.156,20.163-3.376,25.288c3.281,1.138,4.635-4.095,1.361-5.23c2.954-12.343,7.25-15.283,12.89-8.821
		c2.969,2,5.65,4.334,8.041,7.001c4.159,4.101,8.021,8.706,11.827,13.127c6.683,7.761,12.924,15.867,18.997,24.101
		c0.037,0.084,0.076,0.167,0.112,0.251c-3.226-3.733-6.523-7.411-10.568-10.442c-4.544-3.405-11.421-8.751-17.58-7.814
		c-11.1,1.688-9.59,15.045-0.61,18.416c3.247,1.219,4.594-4.016,1.361-5.23c1.033-6.133,3.081-8.057,6.142-5.771
		c1.562,0.793,3.073,1.674,4.534,2.644c3.72,2.41,7.115,5.283,10.186,8.469c3.886,4.031,7.025,8.499,10.905,12.418
		c-21.494,33.595-29.03,83.969-8.829,119.185c-3.873-2.156-7.773-4.264-11.689-6.343c-15.687-18.232-22.752-42.008-19.274-65.882
		c0.495-3.399-4.728-4.808-5.23-1.361c-3.19,21.9,1.679,43.436,13.558,61.537c-6.336-3.255-12.69-6.477-19.066-9.664
		c0.122-0.561,0.074-1.178-0.324-1.821c-7.087-11.455-12.889-23.474-16.831-36.39c-1.764-5.78-3.261-11.702-4.239-17.67
		c-0.739-3.725-1.078-7.479-1.019-11.263c-0.361-13.453,7.136-16.567,22.49-9.342c0.243,3.45,5.648,3.452,5.403-0.029
		c-1.446-20.538-26.488-15.511-31.868,0.55c-7.271,21.709,6.545,51.653,18.209,71.554c-4.884-3.228-9.776-6.445-14.684-9.638
		c-6.255-8.252-9.507-18.195-9.265-28.778c0.079-3.477-5.324-3.452-5.404,0.029c-0.178,7.824,1.449,15.379,4.582,22.284
		c-6.623-4.207-13.283-8.358-20.054-12.335c-0.265-0.156-0.521-0.205-0.778-0.266c0.035-0.046,0.082-0.063,0.115-0.112
		c0.384-0.558,0.641-1.144,0.996-1.709c13.734-2.707,13.253-26.036,12.699-36.826c-0.491-9.556-2.529-18.773-6.005-27.684
		c-5.105-13.085-26.655-38.003-17.839-51.825c1.322,1.12,3.827,1.006,4.526-1.19c3.92-12.334-12.249-12.109-18.723-6.379
		c-10.929,9.673-8.281,25.022-4.584,37.559c-12.94-13.692-23.971-28.152-20.879-45.343c0.399-2.22-1.684-3.553-3.354-3.275
		c-1.183-0.837-2.909-0.876-3.788,0.769c-10.467,19.607-3.193,39.417,7.358,56.923c-14.959-13.62-29.098-28.283-29.393-39.173
		c0.047-0.062,0.085-0.129,0.133-0.191c0.789-1.023,0.745-2.21,0.271-3.146c0.035-0.124,0.044-0.256,0.083-0.379
		c1.06-3.309-4.169-4.669-5.23-1.361c-0.433,1.351-0.699,2.65-0.949,3.943c-5.232,8.118-7.528,17.833-6.226,26.757
		c-6.898-8.727-11.964-18.839-13.908-31.355c-0.534-3.437-5.747-2.006-5.219,1.398c2.841,18.29,12.06,31.483,23.945,42.576
		c2.764,4.018,6.685,7.44,11.851,9.912c25.141,19.151,55.784,34.054,66.652,65.124c-11.333-18.079-29.431-27.627-49.06-34.509
		c-0.225-0.387-0.544-0.742-1.094-0.981c-28.029-12.217-72.248-43.805-53.968-79.192c1.593-3.084-3.082-5.793-4.679-2.701
		c-7.451,14.424-5.873,28.272,0.666,40.671c-7.203,0.267-15.556-0.55-22.558,1.022c-2.428,0.545-4.072,1.88-4.438,4.003
		c-1.656,1.378-1.99,3.469-1.248,5.844c2.14,6.85,7.024,13.676,10.394,20.047c-14.007,0.536-26.789,6.093-35.555,19.758
		c-1.879,2.929,2.805,5.623,4.679,2.701c21.506-33.525,70.971-11.024,95.566,7.142c0.482,0.356,0.949,0.455,1.397,0.456
		c15.775,13.558,33.094,24.458,54.417,25.233c-32.342,6.124-60.571-12.962-89.727-25.16c-4.724-3.238-9.648-4.923-14.51-5.308
		c-15.55-4.746-31.584-6.133-48.844,0.551c-3.212,1.244-1.845,6.475,1.398,5.219c11.811-4.574,23.101-5.243,34.108-3.633
		c-8.38,3.335-15.645,10.18-20.059,18.771c-0.995,0.863-1.987,1.743-2.94,2.793c-2.335,2.572,1.458,6.422,3.794,3.849
		c0.101-0.111,0.256-0.168,0.361-0.274c1.023-0.08,2.036-0.629,2.515-1.796c0.024-0.059,0.056-0.113,0.081-0.172
		c9.563-5.221,29.332-0.32,48.628,5.831c-20.433-0.382-41.22,3.225-52.964,22.089c-0.986,1.583-0.089,3.059,1.228,3.665
		c0.594,1.586,2.791,2.723,4.513,1.267c13.342-11.273,31.379-8.95,49.706-4.59c-12.706,3.067-27.322,8.448-30.234,22.749
		c-1.725,8.471,6.165,22.587,14.886,13.025c1.553-1.703,0.399-3.929-1.232-4.514c7.562-14.546,39.917-8.342,53.801-10.464
		c9.455-1.444,18.456-4.288,26.977-8.641c9.621-4.915,30.066-16.164,25.543-29.411c0.311-0.59,0.691-1.105,0.982-1.717
		c0.025-0.053,0.017-0.103,0.039-0.155c0.182,0.192,0.353,0.388,0.62,0.54c6.83,3.875,13.754,7.567,20.709,11.199
		c-7.547,0.74-14.903,3.108-21.59,7.175c-2.975,1.809-0.295,6.501,2.677,4.694c9.044-5.5,19.28-7.656,29.555-6.365
		c5.219,2.654,10.45,5.282,15.688,7.898c-23.067-0.15-55.907,2.856-71.071,20.008c-11.219,12.69-3.052,36.89,15.457,27.873
		c3.137-1.528,0.433-6.209-2.677-4.694c-13.934-9.685-14.985-17.735-3.154-24.148c3.248-1.943,6.669-3.526,10.264-4.749
		c5.657-2.137,11.534-3.802,17.422-5.164c13.157-3.044,26.467-4.029,39.931-3.618c0.756,0.023,1.314-0.244,1.739-0.63
		c5.947,3.928,11.915,7.821,17.902,11.68c-21.616-1.237-42.702,5.314-60.072,19.027c-2.734,2.158,1.097,5.977,3.794,3.849
		c18.937-14.949,43.061-20.718,66.693-16.249c3.758,2.352,7.534,4.675,11.338,6.952c-40.599,0.113-80.456,31.827-98.803,67.239
		c-5.334-1.401-10.774-1.885-16.208-3.235c-4.295-1.067-8.48-2.57-12.428-4.587c-1.57-0.78-3.089-1.648-4.556-2.604
		c-3.51-1.508-2.868-4.243,1.926-8.205c2.668,2.193,6.529-1.591,3.849-3.794c-7.41-6.091-19.732-0.721-15.644,9.736
		c2.268,5.802,10.336,9.085,15.558,11.318c4.647,1.987,9.481,3.004,14.327,3.931c-0.247,0.028-0.496,0.048-0.743,0.076
		c-10.015-1.135-19.99-2.571-29.902-4.449c-5.732-1.086-11.651-2.128-17.282-3.679c-3.506-0.738-6.867-1.892-10.084-3.464
		c-8.416-1.652-8.018-6.843,1.195-15.573c2.62,2.268,6.475-1.521,3.849-3.794c-11.828-10.237-29.737,1.188-20.212,15.568
		c6.883,10.39,24.243,12.753,35.221,15.003c0.448,0.092,0.899,0.163,1.348,0.253c-0.277,0.065-0.581,0.08-0.863,0.135
		c-4.532-0.676-9.208-0.344-13.914,0.125c-4.745-0.477-9.434-1.149-13.434-1.189c-6.034-0.06-12.069,0.219-18.04,1.064
		c-1.649-0.244-3.299-0.492-4.94-0.851c-6.091-1.31-11.938-3.364-17.539-6.161c-8.788-2.463-8.918-8.063-0.39-16.801
		c2.21,2.696,6.032-1.13,3.849-3.794c-11.651-14.213-30.145,0.709-19.8,15.369c2.378,3.37,5.902,6.123,9.897,8.433
		c-11.8-1.828-23.759-1.578-35.536,1.312c-2.441,0.599-5.185,1.335-7.988,2.252c-2.188-0.933-4.377-1.866-6.565-2.799
		c-10.986-4.769-8.344-10.076,7.924-15.92c-0.598,3.403,4.627,4.791,5.23,1.361c3.245-18.463-32.047-14.627-27.95,5.412
		c1.439,7.037,7.22,11.696,13.886,14.889c-6.666,3.193-12.448,7.853-13.886,14.89c-4.097,20.039,31.195,23.875,27.95,5.412
		c-0.603-3.43-5.828-2.042-5.23,1.361c-16.269-5.844-18.91-11.151-7.924-15.92c2.189-0.933,4.377-1.866,6.565-2.799
		c2.803,0.917,5.547,1.654,7.987,2.253c11.777,2.89,23.736,3.14,35.536,1.312c-3.995,2.31-7.519,5.063-9.897,8.433
		c-10.346,14.66,8.149,29.582,19.8,15.369c2.184-2.664-1.638-6.49-3.849-3.794c-8.528-8.738-8.398-14.338,0.39-16.801
		c5.601-2.797,11.448-4.851,17.539-6.161c1.642-0.359,3.291-0.606,4.94-0.851c5.971,0.846,12.006,1.124,18.04,1.064
		c4.001-0.04,8.69-0.712,13.434-1.189c4.706,0.469,9.383,0.801,13.914,0.125c0.282,0.055,0.586,0.07,0.863,0.135
		c-0.448,0.09-0.9,0.161-1.348,0.253c-10.978,2.25-28.339,4.613-35.221,15.003c-9.525,14.379,8.384,25.804,20.212,15.568
		c2.626-2.273-1.229-6.061-3.849-3.794c-9.212-8.73-9.611-13.921-1.195-15.573c3.217-1.571,6.578-2.726,10.084-3.464
		c5.631-1.551,11.55-2.594,17.282-3.679c9.913-1.878,19.887-3.314,29.902-4.449c0.247,0.028,0.495,0.048,0.743,0.076
		c-4.845,0.928-9.679,1.944-14.327,3.931c-5.222,2.233-13.29,5.516-15.558,11.318c-4.088,10.457,8.235,15.828,15.644,9.736
		c2.68-2.203-1.181-5.987-3.849-3.794c-4.794-3.962-5.437-6.697-1.926-8.205c1.467-0.956,2.986-1.824,4.556-2.604
		c3.947-2.016,8.133-3.52,12.428-4.587c5.434-1.35,10.874-1.834,16.208-3.235c18.347,35.412,58.204,67.125,98.803,67.239
		c-3.804,2.276-7.58,4.6-11.338,6.952c-23.632,4.469-47.756-1.3-66.693-16.249c-2.696-2.129-6.528,1.691-3.794,3.849
		c17.37,13.713,38.456,20.264,60.072,19.027c-5.987,3.859-11.955,7.751-17.902,11.68c-0.425-0.386-0.983-0.653-1.739-0.63
		c-13.464,0.411-26.773-0.574-39.931-3.618c-5.888-1.363-11.764-3.027-17.422-5.164c-3.595-1.223-7.016-2.806-10.264-4.749
		c-11.831-6.413-10.779-14.463,3.154-24.148c3.109,1.515,5.814-3.166,2.677-4.694c-18.509-9.017-26.677,15.184-15.457,27.873
		c15.165,17.151,48.005,20.158,71.072,20.008c-5.238,2.616-10.469,5.244-15.688,7.898c-10.275,1.291-20.511-0.865-29.555-6.365
		c-2.972-1.807-5.652,2.885-2.677,4.694c6.686,4.067,14.043,6.435,21.59,7.175c-6.955,3.632-13.879,7.324-20.709,11.199
		c-0.267,0.152-0.438,0.349-0.62,0.54c-0.022-0.053-0.014-0.102-0.039-0.155c-0.292-0.612-0.671-1.127-0.982-1.717
		c4.523-13.247-15.921-24.496-25.542-29.411c-8.521-4.353-17.523-7.197-26.977-8.641c-13.885-2.121-46.24,4.082-53.802-10.464
		c1.63-0.585,2.785-2.811,1.232-4.514c-8.721-9.562-16.611,4.554-14.886,13.025c2.912,14.301,17.529,19.683,30.234,22.749
		c-18.327,4.36-36.365,6.684-49.706-4.59c-1.723-1.456-3.919-0.319-4.513,1.267c-1.316,0.606-2.213,2.081-1.228,3.665
		c11.744,18.865,32.532,22.472,52.964,22.09c-19.296,6.151-39.065,11.052-48.628,5.831c-0.025-0.059-0.056-0.113-0.081-0.172
		c-0.479-1.167-1.492-1.715-2.515-1.796c-0.105-0.106-0.261-0.163-0.361-0.274c-2.336-2.573-6.129,1.276-3.794,3.849
		c0.953,1.051,1.945,1.929,2.94,2.793c4.414,8.59,11.68,15.437,20.06,18.771c-11.007,1.611-22.298,0.942-34.108-3.633
		c-3.244-1.256-4.611,3.975-1.398,5.219c17.26,6.685,33.295,5.297,48.844,0.551c4.862-0.385,9.786-2.07,14.51-5.308
		c29.156-12.198,57.385-31.284,89.727-25.16c-21.324,0.775-38.643,11.675-54.417,25.233c-0.448,0.002-0.914,0.1-1.397,0.456
		c-24.595,18.165-74.06,40.666-95.566,7.141c-1.874-2.922-6.558-0.227-4.679,2.701c8.766,13.665,21.548,19.222,35.555,19.758
		c-3.37,6.371-8.254,13.197-10.394,20.047c-0.742,2.375-0.408,4.466,1.248,5.844c0.365,2.123,2.009,3.458,4.438,4.003
		c7.002,1.572,15.356,0.755,22.558,1.022c-6.54,12.399-8.118,26.247-0.666,40.671c1.597,3.091,6.272,0.383,4.679-2.701
		c-18.28-35.388,25.938-66.975,53.968-79.192c0.549-0.239,0.869-0.594,1.094-0.981c19.628-6.882,37.727-16.43,49.06-34.509
		c-10.868,31.07-41.511,45.973-66.652,65.124c-5.166,2.472-9.088,5.894-11.851,9.912c-11.885,11.093-21.104,24.287-23.945,42.576
		c-0.529,3.404,4.685,4.836,5.219,1.398c1.944-12.515,7.01-22.628,13.908-31.355c-1.302,8.924,0.994,18.639,6.226,26.757
		c0.25,1.294,0.516,2.592,0.949,3.943c1.061,3.308,6.29,1.948,5.23-1.361c-0.04-0.123-0.048-0.255-0.083-0.379
		c0.474-0.936,0.519-2.123-0.271-3.146c-0.048-0.062-0.086-0.129-0.133-0.191c0.294-10.89,14.433-25.553,29.393-39.173
		c-10.551,17.506-17.825,37.316-7.357,56.923c0.878,1.645,2.605,1.606,3.788,0.769c1.67,0.278,3.753-1.056,3.354-3.275
		c-3.092-17.191,7.939-31.651,20.879-45.343c-3.697,12.537-6.346,27.886,4.584,37.559c6.474,5.73,22.643,5.955,18.723-6.379
		c-0.698-2.196-3.204-2.31-4.526-1.19c-8.816-13.822,12.734-38.74,17.839-51.825c3.477-8.91,5.515-18.128,6.005-27.684
		c0.554-10.789,1.034-34.119-12.699-36.826c-0.355-0.565-0.612-1.151-0.996-1.709c-0.033-0.048-0.08-0.066-0.115-0.111
		c0.257-0.062,0.513-0.111,0.778-0.266c6.771-3.977,13.43-8.128,20.053-12.335c-3.133,6.905-4.76,14.461-4.581,22.284
		c0.079,3.481,5.483,3.506,5.404,0.029c-0.242-10.583,3.01-20.526,9.265-28.778c4.908-3.192,9.8-6.41,14.684-9.638
		c-11.664,19.901-25.48,49.845-18.209,71.554c5.38,16.061,30.422,21.088,31.868,0.55c0.245-3.481-5.161-3.479-5.403-0.029
		c-15.355,7.225-22.852,4.111-22.49-9.342c-0.059-3.784,0.281-7.539,1.019-11.263c0.978-5.968,2.474-11.889,4.239-17.67
		c3.942-12.916,9.744-24.935,16.831-36.39c0.398-0.643,0.445-1.26,0.324-1.821c6.376-3.186,12.73-6.408,19.066-9.664
		c-11.879,18.102-16.748,39.638-13.558,61.537c0.502,3.447,5.725,2.038,5.23-1.361c-3.478-23.874,3.588-47.65,19.274-65.883
		c3.916-2.078,7.816-4.187,11.689-6.343c-20.201,35.217-12.664,85.591,8.829,119.185c-3.88,3.919-7.02,8.387-10.905,12.418
		c-3.071,3.186-6.466,6.059-10.186,8.469c-1.461,0.97-2.972,1.851-4.534,2.644c-3.061,2.286-5.109,0.362-6.142-5.771
		c3.233-1.214,1.886-6.449-1.361-5.23c-8.98,3.371-10.49,16.728,0.61,18.416c6.159,0.937,13.036-4.409,17.58-7.814
		c4.044-3.031,7.342-6.709,10.568-10.442c-0.037,0.084-0.076,0.167-0.112,0.251c-6.073,8.234-12.315,16.34-18.997,24.101
		c-3.806,4.421-7.669,9.026-11.827,13.127c-2.392,2.667-5.072,5.001-8.041,7.001c-5.639,6.462-9.936,3.522-12.89-8.821
		c3.274-1.135,1.921-6.368-1.361-5.23c-14.78,5.125-13.84,26.347,3.376,25.288c12.439-0.766,23.166-14.619,30.603-23.001
		c0.303-0.342,0.59-0.697,0.892-1.04c-0.082,0.272-0.221,0.542-0.314,0.815c-2.85,3.587-4.901,7.803-6.848,12.112
		c-2.785,3.87-5.712,7.595-7.746,11.04c-3.069,5.196-5.846,10.561-8.099,16.156c-1.036,1.306-2.075,2.61-3.207,3.852
		c-4.18,4.62-8.882,8.656-14.105,12.108c-6.527,6.379-11.442,3.691-14.745-8.063c3.441-0.566,2.038-5.789-1.361-5.23
		c-18.134,2.984-14.459,26.461,3.41,24.831c4.108-0.375,8.254-2.05,12.252-4.355c-7.483,9.306-13.246,19.787-16.632,31.431
		c-0.702,2.414-1.436,5.157-2.043,8.044c-1.902,1.429-3.805,2.857-5.707,4.286c-9.623,7.13-12.898,2.189-9.825-14.823
		c2.648,2.219,6.463-1.612,3.794-3.849c-14.368-12.042-28.691,20.44-9.288,26.912c6.813,2.272,13.74-0.405,19.838-4.581
		c-0.568,7.37,0.577,14.706,5.951,19.471c15.306,13.568,36.274-15.078,18.662-21.5c-3.272-1.193-4.682,4.026-1.436,5.21
		c-13.196,11.167-19.112,10.801-17.749-1.097c0.286-2.362,0.572-4.723,0.858-7.085c2.196-1.969,4.205-3.977,5.945-5.792
		c8.392-8.755,14.587-18.987,18.905-30.12c0.003,4.616,0.625,9.044,2.354,12.789c7.523,16.29,29.693,7.734,23.21-9.462
		c-1.215-3.223-6.44-1.827-5.21,1.436c-11.831,3.016-16.616,0.104-14.355-8.738c0.378-6.25,1.522-12.34,3.433-18.27
		c0.544-1.708,1.188-3.368,1.849-5.019c3.635-4.676,6.914-9.614,9.826-14.775c1.966-3.485,3.728-7.882,5.687-12.229
		c2.758-3.841,5.385-7.725,7.066-11.987c0.189-0.217,0.353-0.473,0.548-0.679c-0.146,0.433-0.31,0.859-0.454,1.293
		c-3.541,10.633-10.174,26.848-4.618,38.004c7.69,15.439,26.539,5.642,23.588-9.72c-0.656-3.411-5.864-1.967-5.21,1.436
		c-12.166,3.613-16.861,1.363-14.084-6.752c0.248-3.572,0.928-7.06,2.042-10.465c1.472-5.652,3.529-11.299,5.454-16.806
		c3.381-9.668,7.279-19.125,11.374-28.503c0.054-0.074,0.107-0.149,0.161-0.223c-1.619,4.66-3.156,9.355-3.759,14.373
		c-0.677,5.639-1.868,14.267,2.023,19.133c7.012,8.768,17.824,0.783,16.254-8.68c-0.568-3.422-5.775-1.97-5.21,1.436
		c-5.828,2.171-8.518,1.36-8.069-2.434c-0.094-1.749-0.087-3.498,0.023-5.248c0.228-4.427,1.018-8.803,2.242-13.056
		c1.548-5.381,3.848-10.334,5.302-15.654c39.841,1.817,87.235-16.843,107.632-51.947c0.07,4.433,0.194,8.864,0.352,13.294
		c-7.946,22.701-25.004,40.709-47.419,49.634c-3.192,1.271-1.8,6.498,1.436,5.21c20.561-8.187,36.778-23.172,46.514-42.51
		c0.348,7.115,0.735,14.229,1.163,21.343c-0.546,0.175-1.057,0.525-1.415,1.191c-6.377,11.865-13.884,22.9-23.099,32.772
		c-4.124,4.418-8.504,8.675-13.183,12.506c-2.856,2.502-5.938,4.673-9.245,6.514c-11.47,7.039-17.915,2.104-19.336-14.806
		c2.866-1.935,0.165-6.618-2.727-4.665c-17.063,11.521-0.189,30.695,16.41,27.323c22.436-4.557,41.46-31.495,52.863-51.546
		c-0.354,5.844-0.694,11.689-1.004,17.536c-4.02,9.543-11.004,17.33-20.29,22.413c-3.051,1.67-0.327,6.337,2.727,4.665
		c6.865-3.757,12.594-8.944,17.008-15.109c-0.332,7.839-0.597,15.682-0.656,23.534c-0.002,0.307,0.083,0.554,0.158,0.807
		c-0.057-0.008-0.096-0.039-0.154-0.044c-0.676-0.054-1.311,0.017-1.978-0.008c-9.211-10.541-29.175,1.54-38.242,7.415
		c-8.031,5.203-14.994,11.577-20.972,19.042c-8.779,10.963-19.585,42.086-35.963,41.361c0.309-1.705-1.042-3.818-3.293-3.324
		c-12.642,2.772-4.362,16.663,3.837,19.405c13.842,4.628,25.81-5.339,34.818-14.81c-5.387,18.052-12.394,34.835-28.828,40.752
		c-2.122,0.764-2.236,3.235-1.16,4.542c-0.133,1.443,0.696,2.958,2.56,2.896c22.214-0.738,35.733-16.943,45.618-34.834
		c-4.316,19.765-9.944,39.342-19.228,45.042c-0.077-0.01-0.154-0.009-0.232-0.02c-1.281-0.172-2.286,0.46-2.86,1.338
		c-0.125,0.032-0.243,0.09-0.37,0.118c-3.396,0.736-1.959,5.946,1.436,5.21c1.387-0.3,2.644-0.72,3.889-1.15
		c9.646,0.473,19.208-2.397,26.285-7.987c-4.108,10.338-10.333,19.781-20.2,27.722c-2.71,2.181,1.136,5.98,3.821,3.82
		c14.419-11.605,21.235-26.185,24.9-42.025c2.098-4.402,3.1-9.51,2.658-15.22c4.014-31.348,1.6-65.337,23.073-90.284
		c-9.99,18.854-9.209,39.302-5.355,59.741c-0.223,0.389-0.37,0.842-0.303,1.438c3.434,30.382-1.812,84.471-41.599,86.333
		c-3.467,0.162-3.476,5.565,0,5.403c16.217-0.759,27.421-9.05,34.889-20.913c3.832,6.104,7.301,13.747,12.164,19.025
		c1.686,1.83,3.664,2.587,5.686,1.842c2.022,0.745,3.999-0.011,5.685-1.842c4.862-5.278,8.332-12.921,12.163-19.025
		c7.468,11.863,18.671,20.153,34.889,20.912c3.476,0.163,3.468-5.241,0-5.403c-39.786-1.862-45.033-55.951-41.599-86.333
		c0.067-0.596-0.08-1.049-0.303-1.438c3.854-20.439,4.635-40.887-5.355-59.741c21.473,24.947,19.057,58.937,23.072,90.285
		c-0.442,5.709,0.56,10.816,2.658,15.217c3.665,15.84,10.481,30.42,24.9,42.025c2.684,2.16,6.53-1.639,3.82-3.82
		c-9.867-7.941-16.092-17.385-20.2-27.723c7.078,5.59,16.639,8.46,26.286,7.987c1.245,0.43,2.503,0.85,3.889,1.15
		c3.396,0.736,4.833-4.474,1.436-5.21c-0.126-0.027-0.245-0.086-0.37-0.118c-0.574-0.878-1.579-1.511-2.86-1.338
		c-0.078,0.011-0.154,0.01-0.232,0.02c-9.284-5.7-14.913-25.276-19.228-45.042c9.886,17.89,23.405,34.095,45.618,34.833
		c1.864,0.062,2.693-1.453,2.561-2.896c1.076-1.307,0.962-3.778-1.16-4.542c-16.434-5.917-23.441-22.701-28.828-40.752
		c9.009,9.47,20.977,19.438,34.818,14.81c8.199-2.742,16.479-16.633,3.837-19.405c-2.251-0.493-3.602,1.62-3.293,3.324
		c-16.378,0.724-27.183-30.398-35.962-41.361c-5.979-7.466-12.942-13.84-20.973-19.042c-9.067-5.875-29.031-17.956-38.242-7.415
		c-0.667,0.025-1.303-0.045-1.978,0.008c-0.059,0.005-0.097,0.036-0.154,0.044c0.075-0.253,0.16-0.5,0.158-0.807
		c-0.059-7.852-0.324-15.694-0.656-23.533c4.414,6.165,10.143,11.352,17.008,15.109c3.055,1.672,5.778-2.996,2.727-4.665
		c-9.285-5.082-16.27-12.869-20.29-22.412c-0.311-5.847-0.651-11.692-1.004-17.536c11.403,20.051,30.427,46.989,52.863,51.546
		c16.599,3.371,33.474-15.802,16.41-27.323c-2.892-1.953-5.593,2.73-2.727,4.665c-1.421,16.91-7.866,21.845-19.336,14.806
		c-3.307-1.841-6.388-4.013-9.245-6.514c-4.679-3.831-9.06-8.088-13.183-12.506c-9.215-9.872-16.723-20.907-23.099-32.772
		c-0.358-0.666-0.868-1.016-1.415-1.191c0.429-7.114,0.815-14.228,1.163-21.343c9.737,19.338,25.953,34.323,46.514,42.51
		c3.236,1.289,4.628-3.939,1.436-5.21c-22.415-8.925-39.473-26.933-47.419-49.633c0.158-4.431,0.282-8.862,0.352-13.295
		c20.398,35.103,67.791,53.763,107.632,51.946c1.453,5.32,3.754,10.273,5.302,15.654c1.223,4.253,2.014,8.629,2.241,13.056
		c0.11,1.75,0.117,3.499,0.023,5.248c0.449,3.794-2.241,4.605-8.069,2.434c0.565-3.407-4.642-4.858-5.21-1.436
		c-1.57,9.463,9.242,17.448,16.254,8.68c3.891-4.866,2.7-13.494,2.022-19.133c-0.602-5.018-2.139-9.712-3.758-14.372
		c0.054,0.074,0.107,0.149,0.161,0.223c4.094,9.377,7.993,18.834,11.373,28.502c1.925,5.507,3.982,11.154,5.455,16.806
		c1.114,3.405,1.794,6.893,2.042,10.465c2.777,8.115-1.918,10.366-14.084,6.752c0.654-3.403-4.555-4.847-5.21-1.436
		c-2.951,15.362,15.898,25.159,23.588,9.72c5.557-11.156-1.077-27.371-4.618-38.004c-0.144-0.434-0.309-0.86-0.455-1.294
		c0.195,0.207,0.359,0.463,0.548,0.68c1.68,4.262,4.307,8.145,7.065,11.987c1.959,4.347,3.722,8.745,5.688,12.229
		c2.912,5.161,6.192,10.1,9.826,14.776c0.661,1.651,1.305,3.31,1.849,5.019c1.911,5.93,3.056,12.02,3.434,18.27
		c2.261,8.842-2.524,11.755-14.356,8.738c1.23-3.263-3.995-4.659-5.21-1.436c-6.483,17.197,15.687,25.752,23.21,9.462
		c1.729-3.745,2.351-8.173,2.354-12.788c4.318,11.133,10.513,21.365,18.905,30.119c1.739,1.814,3.748,3.823,5.944,5.791
		c0.286,2.362,0.572,4.723,0.858,7.086c1.363,11.898-4.554,12.264-17.749,1.097c3.246-1.183,1.835-6.403-1.436-5.21
		c-17.612,6.422,3.356,35.068,18.662,21.5c5.375-4.764,6.519-12.101,5.951-19.471c6.099,4.177,13.025,6.854,19.839,4.582
		c19.403-6.472,5.079-38.954-9.289-26.912c-2.669,2.237,1.146,6.068,3.794,3.849c3.073,17.011-0.202,21.953-9.825,14.823
		c-1.902-1.428-3.804-2.857-5.707-4.286c-0.607-2.886-1.341-5.63-2.043-8.044c-3.386-11.645-9.149-22.126-16.632-31.431
		c3.998,2.305,8.144,3.981,12.252,4.355c17.869,1.63,21.544-21.848,3.41-24.831c-3.399-0.559-4.802,4.664-1.361,5.23
		c-3.303,11.755-8.218,14.442-14.745,8.063c-5.223-3.452-9.925-7.488-14.105-12.108c-1.132-1.242-2.17-2.546-3.207-3.852
		c-2.253-5.594-5.029-10.96-8.098-16.156c-2.035-3.445-4.962-7.17-7.747-11.04c-1.948-4.31-3.998-8.526-6.848-12.112
		c-0.093-0.272-0.232-0.542-0.314-0.814c0.302,0.343,0.589,0.698,0.892,1.04c7.438,8.382,18.164,22.236,30.604,23.001
		c17.216,1.059,18.156-20.163,3.376-25.288c-3.281-1.138-4.635,4.095-1.361,5.23c-2.954,12.343-7.25,15.283-12.89,8.821
		c-2.969-2-5.65-4.334-8.042-7.001c-4.159-4.101-8.021-8.706-11.827-13.127c-6.682-7.762-12.924-15.867-18.997-24.101
		c-0.037-0.084-0.076-0.167-0.112-0.251c3.226,3.733,6.523,7.41,10.567,10.441c4.544,3.405,11.421,8.751,17.58,7.814
		c11.1-1.688,9.59-15.045,0.61-18.416c-3.247-1.219-4.594,4.016-1.361,5.23c-1.033,6.133-3.081,8.056-6.142,5.771
		c-1.562-0.793-3.073-1.674-4.533-2.644c-3.72-2.41-7.115-5.283-10.186-8.469c-3.886-4.031-7.025-8.499-10.905-12.418
		c21.494-33.595,29.03-83.969,8.829-119.185c3.873,2.156,7.773,4.264,11.689,6.343c15.687,18.232,22.752,42.008,19.274,65.883
		c-0.495,3.399,4.728,4.807,5.23,1.361c3.19-21.9-1.679-43.436-13.558-61.538c6.336,3.255,12.69,6.478,19.066,9.664
		c-0.121,0.561-0.074,1.178,0.324,1.821c7.087,11.455,12.889,23.474,16.831,36.39c1.764,5.781,3.26,11.702,4.239,17.67
		c0.738,3.725,1.078,7.479,1.019,11.263c0.361,13.453-7.136,16.567-22.49,9.342c-0.243-3.45-5.649-3.452-5.404,0.029
		c1.446,20.538,26.488,15.511,31.868-0.55c7.271-21.709-6.545-51.653-18.208-71.554c4.884,3.228,9.776,6.445,14.684,9.637
		c6.255,8.253,9.507,18.195,9.265,28.778c-0.079,3.477,5.324,3.452,5.403-0.029c0.179-7.824-1.448-15.379-4.581-22.284
		c6.623,4.207,13.283,8.358,20.053,12.335c0.265,0.156,0.521,0.205,0.778,0.266c-0.035,0.045-0.082,0.063-0.115,0.111
		c-0.384,0.558-0.641,1.145-0.996,1.709c-13.734,2.707-13.253,26.036-12.7,36.826c0.491,9.556,2.529,18.774,6.005,27.684
		c5.105,13.085,26.655,38.003,17.839,51.825c-1.322-1.12-3.827-1.006-4.525,1.19c-3.92,12.334,12.249,12.109,18.723,6.379
		c10.929-9.673,8.281-25.022,4.584-37.559c12.94,13.692,23.971,28.151,20.879,45.343c-0.399,2.22,1.683,3.553,3.354,3.275
		c1.183,0.837,2.909,0.876,3.788-0.769c10.467-19.607,3.193-39.417-7.357-56.923c14.959,13.62,29.098,28.283,29.393,39.173
		c-0.047,0.062-0.085,0.129-0.133,0.191c-0.79,1.023-0.745,2.21-0.271,3.147c-0.035,0.124-0.044,0.256-0.083,0.379
		c-1.061,3.309,4.169,4.67,5.23,1.361c0.433-1.351,0.698-2.65,0.949-3.944c5.232-8.118,7.528-17.833,6.226-26.757
		c6.898,8.727,11.965,18.84,13.909,31.355c0.534,3.437,5.747,2.006,5.218-1.398c-2.841-18.289-12.059-31.482-23.944-42.576
		c-2.763-4.018-6.685-7.44-11.852-9.912c-25.141-19.151-55.785-34.055-66.653-65.126c11.333,18.08,29.432,27.628,49.061,34.51
		c0.225,0.387,0.544,0.742,1.094,0.981c28.029,12.217,72.248,43.805,53.968,79.192c-1.593,3.084,3.082,5.793,4.679,2.701
		c7.451-14.424,5.873-28.272-0.667-40.671c7.203-0.266,15.556,0.55,22.558-1.022c2.429-0.545,4.072-1.88,4.438-4.003
		c1.656-1.378,1.99-3.469,1.248-5.844c-2.14-6.85-7.024-13.676-10.395-20.047c14.007-0.536,26.789-6.093,35.555-19.758
		c1.879-2.929-2.805-5.623-4.679-2.701c-21.506,33.525-70.971,11.024-95.566-7.141c-0.482-0.356-0.949-0.455-1.397-0.456
		c-15.775-13.558-33.093-24.458-54.417-25.233c32.343-6.124,60.571,12.963,89.728,25.16c4.723,3.238,9.649,4.923,14.51,5.307
		c15.55,4.746,31.584,6.133,48.844-0.551c3.213-1.244,1.846-6.475-1.398-5.219c-11.811,4.574-23.102,5.243-34.109,3.633
		c8.38-3.334,15.646-10.18,20.06-18.77c0.996-0.864,1.987-1.743,2.941-2.793c2.335-2.572-1.458-6.422-3.794-3.849
		c-0.101,0.111-0.256,0.168-0.361,0.274c-1.023,0.08-2.036,0.629-2.515,1.796c-0.024,0.059-0.056,0.113-0.081,0.172
		c-9.563,5.221-29.332,0.32-48.628-5.831c20.433,0.382,41.22-3.225,52.964-22.09c0.986-1.583,0.089-3.059-1.227-3.665
		c-0.594-1.586-2.791-2.722-4.514-1.267c-13.341,11.273-31.379,8.95-49.706,4.59c12.706-3.067,27.322-8.448,30.234-22.749
		c1.725-8.471-6.165-22.587-14.886-13.025c-1.553,1.703-0.398,3.929,1.232,4.514c-7.562,14.546-39.917,8.343-53.801,10.464
		c-9.455,1.444-18.456,4.288-26.978,8.641c-9.621,4.915-30.066,16.164-25.542,29.411c-0.311,0.59-0.691,1.105-0.982,1.717
		c-0.025,0.053-0.018,0.103-0.039,0.155c-0.182-0.192-0.352-0.388-0.62-0.54c-6.83-3.875-13.753-7.567-20.709-11.199
		c7.547-0.74,14.903-3.108,21.589-7.175c2.975-1.809,0.295-6.501-2.677-4.694c-9.044,5.5-19.281,7.656-29.555,6.365
		c-5.219-2.654-10.451-5.282-15.688-7.898c23.067,0.15,55.908-2.856,71.072-20.008c11.22-12.69,3.052-36.89-15.457-27.873
		c-3.137,1.528-0.432,6.209,2.677,4.694c13.934,9.685,14.986,17.735,3.155,24.148c-3.248,1.943-6.669,3.526-10.264,4.749
		c-5.657,2.137-11.534,3.802-17.422,5.164c-13.157,3.044-26.467,4.029-39.931,3.618c-0.755-0.023-1.314,0.244-1.739,0.63
		c-5.947-3.928-11.915-7.82-17.902-11.679c21.616,1.237,42.702-5.314,60.072-19.027c2.734-2.158-1.097-5.977-3.794-3.849
		c-18.936,14.95-43.06,20.719-66.693,16.249c-3.758-2.352-7.533-4.675-11.337-6.952c40.599-0.113,80.456-31.827,98.803-67.239
		c5.334,1.401,10.773,1.885,16.207,3.235c4.295,1.067,8.481,2.57,12.428,4.587c1.57,0.78,3.089,1.648,4.556,2.604
		c3.51,1.508,2.868,4.243-1.927,8.205c-2.667-2.193-6.528,1.591-3.849,3.794c7.41,6.091,19.732,0.721,15.644-9.736
		c-2.268-5.802-10.336-9.085-15.558-11.318c-4.647-1.987-9.481-3.003-14.327-3.931c0.247-0.028,0.495-0.048,0.742-0.076
		c10.015,1.135,19.99,2.571,29.902,4.449c5.732,1.086,11.651,2.128,17.282,3.679c3.506,0.738,6.867,1.892,10.084,3.464
		c8.416,1.652,8.018,6.843-1.195,15.573c-2.62-2.268-6.475,1.521-3.849,3.794c11.828,10.237,29.737-1.188,20.211-15.568
		c-6.883-10.39-24.243-12.753-35.221-15.003c-0.448-0.092-0.899-0.163-1.347-0.253c0.277-0.065,0.581-0.08,0.863-0.135
		c4.531,0.676,9.208,0.344,13.914-0.125c4.745,0.477,9.433,1.149,13.434,1.189c6.034,0.06,12.069-0.218,18.04-1.064
		c1.649,0.244,3.299,0.491,4.94,0.851c6.092,1.31,11.938,3.364,17.539,6.161c8.788,2.463,8.918,8.064,0.39,16.801
		c-2.211-2.696-6.033,1.13-3.849,3.794c11.651,14.213,30.146-0.709,19.8-15.369c-2.378-3.37-5.902-6.123-9.898-8.433
		c11.8,1.828,23.759,1.578,35.536-1.312c2.441-0.599,5.184-1.335,7.987-2.253c2.189,0.933,4.377,1.866,6.566,2.799
		c10.986,4.769,8.344,10.076-7.925,15.92c0.598-3.403-4.627-4.791-5.23-1.361c-3.245,18.463,32.047,14.627,27.951-5.412
		C873.425,457.996,867.644,453.336,860.977,450.143z M679.404,317.81c0.567-0.948,0.383-2.101-0.234-2.959
		c0.443-0.073,0.852-0.242,1.218-0.483c0.204-0.008,0.395-0.068,0.592-0.119c-0.24,0.902-0.028,1.739,0.496,2.361
		c0.276,0.768,0.896,1.372,1.799,1.615c-0.142,0.145-0.29,0.28-0.399,0.453c-0.393,0.197-0.744,0.466-1.028,0.813
		C681.414,318.528,680.507,317.793,679.404,317.81z M767.391,345.845c6.238,1.375,12.763,2.661,18.408,5.799
		c3.411,1.896,6.545,4.345,8.724,7.644c0.428,0.732,0.856,1.464,1.284,2.197c2.323,3.767,1.721,7.078-1.703,9.946
		c-5.352-11.681-16.642-12.591-29.003-13.141c-12.88-0.572-25.604,0.063-38.232-3.247c-6.08-1.594-31.064-11.153-38.002-21.561
		c9.412,10.485,23.031,15.748,38.056,16.396c11.529,0.498,24.989-3.333,38.581-6.81
		C765.341,344.265,765.858,345.507,767.391,345.845z M760.314,325.179c19.487-1.622,42.672-2.654,57.125,11.648
		c-38.693-18.508-97.705,33.554-126.741-9.221c12.048,7.461,26.816,6.262,41.22,4.425c5.933-0.757,15.53-3.95,26.402-7.622
		C758.748,324.926,759.401,325.256,760.314,325.179z M779.281,298.196c0.682,0.356,1.505,0.405,2.364-0.196
		c1.39-0.972,2.809-1.729,4.237-2.39c1.699-0.625,3.401-1.22,5.108-1.774c9.569-2.1,19.177,1.931,25.905,9.289
		c-6.679-1.896-13.978-1.093-21.76,1.692c-25.149,9.002-70.566,36.183-99.323,19.75C725.547,326.777,752.12,309.404,779.281,298.196
		z M804.881,261.661c-0.028,0.514,0.141,0.972,0.384,1.387c-0.703,0.027-1.405,0.051-2.113,0.1
		C803.728,262.653,804.335,262.189,804.881,261.661z M790.768,237.217c-0.73,0.209-1.435,0.502-2.152,0.754
		c0.396-0.588,0.768-1.184,1.143-1.779C789.997,236.61,790.31,236.984,790.768,237.217z M782.494,245.849
		c0.655,0.268,1.423,0.275,2.223-0.201c8.235-4.894,17.519-5.099,26.844-4.602c0.242,0.015,0.483,0.029,0.725,0.044
		c-0.108,0.217-0.216,0.433-0.324,0.65c-4.233,8.324-9.052,16.262-17.408,20.947c-0.812,0.455-1.19,1.123-1.285,1.824
		c-10.367,2.069-20.799,6.069-30.299,10.906c2.394-2.303,4.779-4.577,7.16-6.819c5.406-1.612,10.684-3.293,15.673-5.202
		c3.217-1.231,1.883-6.471-1.361-5.23c-1.497,0.573-3.044,1.105-4.581,1.645c1.236-1.062,2.471-2.135,3.715-3.145
		c2.697-2.189-1.174-5.964-3.849-3.794c-4.147,3.366-8.243,7.096-12.341,10.972c-3.131,0.941-6.293,1.869-9.484,2.791
		C766.841,260.826,775.519,253.792,782.494,245.849z M759.134,271.778c-20.411,19.855-41.899,40.703-71.268,41.147
		C702.935,287.711,731.734,279.527,759.134,271.778z M748.521,224.081c6.303-5.346,10.649-11.266,12.346-17.998
		c3.009,9.505,1.694,19.843-4.908,27.079c-1.333,1.2-2.698,2.376-4.088,3.534c-1.287,0.907-2.653,1.758-4.192,2.476
		c-0.951,0.444-1.319,1.181-1.352,1.95c-23.286,17.917-51.62,32.243-64.573,59.1C681.902,267.101,728.15,241.359,748.521,224.081z
		 M731.952,188.759c5.159,19.668-7.327,39.231-18.475,55.296c-0.522,0.752-0.564,1.482-0.331,2.11
		c-8.623,7.586-16.177,14.293-19.8,19.056c-8.793,11.556-17.217,23.745-16.778,37.91
		C654.04,256.597,728.633,231.522,731.952,188.759z M670.89,258.088c3.448-12.592,10.359-23.293,16.304-34.734
		c5.709-10.987,10.632-21.224,3.172-31.706c4.171-1.503,7.322-0.362,9.415,3.518c0.42,0.736,0.84,1.473,1.261,2.21
		c1.768,3.537,2.321,7.475,2.258,11.377c-0.105,6.458-2.254,12.751-4.182,18.842c-0.474,1.496,0.344,2.565,1.461,3.023
		c-9.808,10.033-19.854,19.774-25.188,30.007c-6.951,13.337-9.203,27.764-4.827,41.159
		C665.016,290.572,669.23,264.151,670.89,258.088z M622.081,152.429c0.321-1.253,0.606-2.547,0.88-3.846
		c0.429,0.122,0.874,0.125,1.31,0.052c0.155,0.414,0.38,0.798,0.7,1.109C623.984,150.632,623.005,151.525,622.081,152.429z
		 M646.961,109.335c-0.804,2.615-1.712,5.2-2.752,7.756c-3.973,9.769-9.639,18.174-16.667,25.877
		c3.158-9.938,7.603-19.047,14.077-27.372C643.314,113.417,645.099,111.339,646.961,109.335z M587.472,209.553
		c0.441,0.25,0.935,0.374,1.479,0.258c0.171,0.529,0.525,0.895,0.962,1.152c-1.834,2.172-3.638,4.366-5.424,6.576
		C585.51,214.887,586.509,212.227,587.472,209.553z M447.706,182.904c0.096-0.181,0.139-0.376,0.194-0.572
		c0.661,0.66,1.494,0.894,2.296,0.751c0.802,0.143,1.634-0.091,2.295-0.751c0.055,0.196,0.098,0.391,0.193,0.572
		c-0.026,0.438,0.032,0.877,0.191,1.297c-1.052-0.105-2.142,0.313-2.68,1.277c-0.537-0.964-1.627-1.382-2.68-1.277
		C447.674,183.78,447.732,183.341,447.706,182.904z M518.468,123.295c4.31-4.715,8.686-9.722,14.226-13.043
		c3.347-2.006,7.035-3.495,10.982-3.733c0.848-0.004,1.696-0.009,2.544-0.013c4.424-0.128,6.99,2.048,7.763,6.447
		c-12.793-1.205-19.225,8.117-25.882,18.548c-6.935,10.869-12.747,22.205-21.928,31.487c-4.42,4.469-25.19,21.324-37.672,22.13
		c13.786-2.909,25.152-12.072,33.226-24.759c6.196-9.736,9.609-23.308,13.393-36.817
		C516.076,124.28,517.409,124.454,518.468,123.295z M497.033,119.091c8.339-17.688,19.037-38.282,38.65-43.648
		c-35.392,24.267-19.779,101.466-71.43,105.155c12.521-6.693,18.897-20.079,24.515-33.49c2.313-5.52,4.344-15.415,6.602-26.676
		C496.031,120.32,496.643,119.919,497.033,119.091z M506.223,59.063c-4.982,4.837-7.936,11.559-9.415,19.691
		c-4.769,26.229-4.009,78.926-32.447,95.723c16.66-24.623,14.922-56.244,18.787-85.303c0.649-0.412,1.103-1.1,1.012-2.145
		c-0.147-1.692-0.093-3.301,0.049-4.869c0.308-1.782,0.643-3.551,1.016-5.304C488.191,67.518,496.486,61.21,506.223,59.063z
		 M465.701,49.097c-0.328,0.622-0.659,1.242-0.969,1.879c-0.141-0.747-0.239-1.504-0.423-2.24
		C464.739,49.017,465.22,49.099,465.701,49.097z M436.083,48.736c-0.184,0.736-0.283,1.494-0.423,2.24
		c-0.311-0.637-0.642-1.257-0.97-1.879C435.171,49.099,435.651,49.017,436.083,48.736z M439.421,60.217
		c0.56-0.433,0.949-1.094,0.937-2.025c-0.121-9.578,4.344-17.722,9.437-25.549c0.134-0.202,0.267-0.404,0.401-0.606
		c0.134,0.202,0.267,0.404,0.401,0.606c5.092,7.827,9.557,15.971,9.436,25.549c-0.012,0.931,0.378,1.592,0.938,2.025
		c-3.392,10.012-5.144,21.046-5.705,31.691c-0.797-3.225-1.575-6.427-2.325-9.61c1.307-5.487,2.49-10.899,3.331-16.174
		c0.543-3.401-4.663-4.866-5.21-1.436c-0.252,1.583-0.565,3.188-0.866,4.79c-0.301-1.602-0.614-3.207-0.866-4.79
		c-0.547-3.429-5.752-1.965-5.21,1.436c0.841,5.275,2.023,10.686,3.331,16.174c-0.751,3.182-1.528,6.385-2.325,9.61
		C444.564,81.263,442.812,70.229,439.421,60.217z M450.195,93.411c6.989,27.604,14.301,56.637,0,82.295
		C435.895,150.048,443.206,121.015,450.195,93.411z M415.165,76.853c0.373,1.756,0.709,3.527,1.017,5.312
		c0.141,1.567,0.196,3.174,0.048,4.864c-0.091,1.045,0.363,1.733,1.012,2.145c3.865,29.059,2.127,60.68,18.787,85.303
		c-28.438-16.797-27.678-69.493-32.447-95.722c-1.478-8.132-4.433-14.855-9.415-19.691C403.904,61.21,412.199,67.517,415.165,76.853
		z M364.707,75.443c19.613,5.366,30.312,25.96,38.65,43.648c0.39,0.828,1.002,1.229,1.662,1.341
		c2.258,11.261,4.29,21.156,6.602,26.676c5.619,13.412,11.995,26.797,24.515,33.49C384.487,176.909,400.099,99.71,364.707,75.443z
		 M394.218,162.988c-9.181-9.282-14.993-20.618-21.928-31.487c-6.656-10.431-13.089-19.753-25.882-18.548
		c0.773-4.4,3.339-6.576,7.763-6.447c0.848,0.004,1.696,0.009,2.544,0.013c3.947,0.238,7.635,1.727,10.982,3.733
		c5.54,3.32,9.916,8.327,14.226,13.043c1.059,1.159,2.393,0.985,3.348,0.247c3.784,13.51,7.197,27.081,13.393,36.817
		c8.073,12.687,19.44,21.85,33.226,24.759C419.407,184.313,398.638,167.457,394.218,162.988z M253.43,109.335
		c1.862,2.004,3.647,4.082,5.341,6.261c6.474,8.325,10.92,17.434,14.077,27.372c-7.027-7.703-12.694-16.108-16.667-25.877
		C255.141,114.535,254.234,111.95,253.43,109.335z M276.12,148.636c0.436,0.073,0.881,0.07,1.31-0.052
		c0.275,1.299,0.559,2.593,0.88,3.846c-0.925-0.905-1.903-1.798-2.891-2.685C275.74,149.434,275.965,149.05,276.12,148.636z
		 M310.477,210.963c0.437-0.257,0.791-0.623,0.962-1.152c0.544,0.116,1.038-0.007,1.479-0.257c0.964,2.674,1.962,5.333,2.983,7.985
		C314.115,215.329,312.311,213.134,310.477,210.963z M201.273,227.593c-1.928-6.09-4.076-12.384-4.182-18.842
		c-0.064-3.902,0.49-7.84,2.258-11.377c0.42-0.737,0.84-1.473,1.26-2.21c2.093-3.88,5.243-5.021,9.415-3.517
		c-7.46,10.482-2.537,20.72,3.172,31.706c5.945,11.441,12.857,22.142,16.304,34.734c1.66,6.062,5.873,32.478,0.329,43.691
		c4.374-13.394,2.122-27.819-4.828-41.155c-5.334-10.233-15.381-19.975-25.188-30.007
		C200.93,230.158,201.747,229.09,201.273,227.593z M186.914,244.055c-11.149-16.065-23.635-35.629-18.475-55.297
		c3.318,42.764,77.913,67.84,55.384,114.373c0.439-14.165-7.984-26.355-16.778-37.911c-3.624-4.762-11.178-11.47-19.801-19.056
		C187.478,245.537,187.436,244.806,186.914,244.055z M154.063,241.121c-0.032-0.769-0.401-1.506-1.352-1.95
		c-1.537-0.718-2.902-1.568-4.189-2.474c-1.391-1.159-2.757-2.336-4.091-3.537c-6.602-7.237-7.916-17.574-4.907-27.079
		c1.698,6.732,6.042,12.652,12.346,17.999c20.371,17.278,66.619,43.02,66.766,76.141
		C205.682,273.365,177.349,259.038,154.063,241.121z M212.526,312.925c-29.37-0.444-50.857-21.292-71.269-41.147
		C168.657,279.527,197.456,287.711,212.526,312.925z M111.775,237.971c-0.717-0.251-1.422-0.545-2.152-0.754
		c0.459-0.233,0.771-0.607,1.009-1.026C111.007,236.787,111.378,237.383,111.775,237.971z M97.239,263.149
		c-0.707-0.049-1.409-0.073-2.112-0.1c0.243-0.415,0.411-0.874,0.384-1.387C96.055,262.189,96.662,262.653,97.239,263.149z
		 M107.122,264.511c-0.095-0.701-0.473-1.369-1.285-1.824c-8.356-4.685-13.175-12.623-17.408-20.947
		c-0.108-0.217-0.216-0.433-0.324-0.65c0.242-0.015,0.483-0.03,0.725-0.044c9.325-0.497,18.61-0.292,26.845,4.602
		c0.8,0.476,1.568,0.469,2.222,0.201c6.975,7.944,15.655,14.978,24.593,20.786c-3.191-0.922-6.353-1.85-9.485-2.791
		c-4.099-3.876-8.194-7.606-12.341-10.972c-2.674-2.17-6.545,1.605-3.849,3.794c1.244,1.01,2.478,2.083,3.715,3.145
		c-1.537-0.54-3.084-1.072-4.581-1.645c-3.243-1.241-4.578,3.999-1.361,5.23c4.989,1.909,10.267,3.591,15.673,5.202
		c2.381,2.241,4.766,4.516,7.16,6.819C127.92,270.579,117.489,266.58,107.122,264.511z M83.496,303.124
		c6.728-7.359,16.336-11.388,25.905-9.289c1.707,0.554,3.409,1.15,5.108,1.774c1.428,0.661,2.847,1.418,4.237,2.39
		c0.86,0.601,1.682,0.552,2.364,0.196c27.16,11.208,53.734,28.581,83.47,26.371c-28.756,16.433-74.174-10.748-99.323-19.75
		C97.475,302.031,90.176,301.228,83.496,303.124z M82.951,336.828c14.453-14.303,37.639-13.271,57.126-11.648
		c0.913,0.076,1.566-0.254,1.993-0.77c10.872,3.672,20.469,6.865,26.402,7.622c14.404,1.837,29.173,3.037,41.22-4.425
		C180.657,370.382,121.645,318.319,82.951,336.828z M173.523,355.044c-12.629,3.31-25.352,2.675-38.233,3.247
		c-12.361,0.549-23.651,1.46-29.003,13.14c-3.424-2.869-4.025-6.179-1.702-9.946c0.428-0.732,0.856-1.464,1.283-2.197
		c2.18-3.3,5.313-5.748,8.724-7.644c5.645-3.138,12.17-4.424,18.408-5.799c1.533-0.338,2.049-1.58,1.888-2.777
		c13.592,3.478,27.052,7.308,38.581,6.81c15.025-0.648,28.643-5.911,38.056-16.396C204.587,343.891,179.603,353.45,173.523,355.044z
		 M218.542,319.492c-0.284-0.347-0.635-0.617-1.027-0.813c-0.109-0.173-0.257-0.308-0.399-0.453
		c0.903-0.243,1.523-0.847,1.799-1.615c0.524-0.623,0.736-1.46,0.496-2.361c0.197,0.051,0.388,0.111,0.592,0.118
		c0.366,0.241,0.775,0.411,1.218,0.483c-0.618,0.858-0.801,2.012-0.234,2.959C219.883,317.793,218.976,318.528,218.542,319.492z
		 M64.757,451.638c-2.734-0.378-5.425-0.884-8.092-1.495c2.667-0.611,5.359-1.117,8.092-1.495
		c10.447-1.444,20.558-0.74,30.744,1.495C85.315,452.378,75.204,453.083,64.757,451.638z M102.044,450.143
		c0.281-0.342,0.502-0.728,0.61-1.16c1.262,0.412,2.525,0.812,3.771,1.16c-1.246,0.349-2.509,0.749-3.771,1.161
		C102.546,450.871,102.325,450.485,102.044,450.143z M173.2,451.553c-0.004-0.507-0.144-0.997-0.517-1.409
		c0.373-0.413,0.513-0.902,0.517-1.409c2.798,0.502,5.6,0.967,8.406,1.409C178.8,450.585,175.997,451.05,173.2,451.553z
		 M220.987,582.477c-0.567,0.947-0.384,2.101,0.234,2.959c-0.443,0.073-0.852,0.242-1.218,0.483
		c-0.204,0.008-0.395,0.068-0.592,0.118c0.24-0.902,0.028-1.739-0.496-2.361c-0.276-0.767-0.897-1.371-1.799-1.615
		c0.142-0.145,0.29-0.28,0.399-0.453c0.392-0.197,0.743-0.467,1.027-0.813C218.976,581.758,219.883,582.494,220.987,582.477z
		 M133,554.441c-6.239-1.375-12.763-2.662-18.408-5.799c-3.411-1.896-6.544-4.345-8.724-7.644c-0.428-0.732-0.856-1.464-1.283-2.196
		c-2.323-3.767-1.722-7.077,1.702-9.946c5.352,11.681,16.643,12.591,29.003,13.14c12.881,0.572,25.604-0.063,38.233,3.247
		c6.081,1.594,31.069,11.155,38.004,21.564c-9.412-10.487-23.032-15.751-38.058-16.399c-11.529-0.498-24.989,3.333-38.581,6.81
		C135.049,556.021,134.533,554.779,133,554.441z M140.077,575.107c-19.487,1.622-42.672,2.654-57.125-11.648
		c38.693,18.508,97.706-33.554,126.741,9.222c-12.048-7.462-26.816-6.262-41.22-4.425c-5.933,0.757-15.53,3.95-26.402,7.621
		C141.643,575.361,140.99,575.031,140.077,575.107z M121.11,602.091c-0.682-0.356-1.504-0.405-2.364,0.196
		c-1.389,0.971-2.807,1.728-4.233,2.389c-1.7,0.625-3.403,1.221-5.112,1.776c-9.569,2.1-19.178-1.931-25.905-9.289
		c6.679,1.896,13.978,1.093,21.76-1.693c25.149-9.002,70.567-36.183,99.323-19.75C174.844,573.509,148.27,590.883,121.11,602.091z
		 M95.51,638.625c0.028-0.514-0.14-0.972-0.384-1.387c0.703-0.027,1.405-0.051,2.112-0.1
		C96.662,637.633,96.055,638.097,95.51,638.625z M109.623,663.069c0.73-0.208,1.435-0.502,2.152-0.753
		c-0.396,0.588-0.768,1.183-1.143,1.779C110.393,663.677,110.081,663.302,109.623,663.069z M117.896,654.438
		c-0.655-0.268-1.422-0.275-2.222,0.201c-8.235,4.894-17.519,5.099-26.845,4.602c-0.241-0.015-0.483-0.029-0.725-0.044
		c0.108-0.217,0.216-0.433,0.324-0.65c4.232-8.324,9.052-16.262,17.408-20.947c0.812-0.455,1.19-1.123,1.285-1.825
		c10.367-2.069,20.798-6.068,30.298-10.905c-2.394,2.303-4.779,4.577-7.16,6.819c-5.406,1.612-10.684,3.293-15.673,5.202
		c-3.217,1.231-1.882,6.471,1.361,5.23c1.496-0.573,3.043-1.105,4.581-1.645c-1.236,1.062-2.471,2.135-3.715,3.145
		c-2.696,2.189,1.174,5.964,3.849,3.794c4.147-3.366,8.243-7.096,12.341-10.971c3.131-0.941,6.293-1.869,9.485-2.791
		C133.55,639.46,124.871,646.494,117.896,654.438z M141.257,628.509c20.411-19.855,41.899-40.703,71.269-41.147
		C197.456,612.575,168.657,620.76,141.257,628.509z M151.869,676.206c-6.303,5.346-10.648,11.266-12.346,17.999
		c-3.008-9.505-1.695-19.842,4.907-27.079c1.334-1.201,2.7-2.378,4.091-3.537c1.286-0.906,2.651-1.756,4.189-2.474
		c0.95-0.444,1.319-1.181,1.352-1.95c23.287-17.917,51.62-32.244,64.573-59.101C218.489,633.186,172.24,658.928,151.869,676.206z
		 M168.439,711.529c-5.16-19.668,7.327-39.232,18.475-55.297c0.522-0.752,0.564-1.483,0.331-2.11
		c8.623-7.586,16.177-14.293,19.801-19.055c8.793-11.556,17.217-23.746,16.778-37.911
		C246.352,643.689,171.757,668.765,168.439,711.529z M229.5,642.199c-3.448,12.592-10.359,23.293-16.304,34.734
		c-5.709,10.987-10.631,21.224-3.172,31.706c-4.172,1.503-7.323,0.363-9.415-3.517c-0.42-0.737-0.84-1.473-1.26-2.21
		c-1.768-3.537-2.322-7.475-2.258-11.377c0.105-6.458,2.253-12.751,4.182-18.842c0.474-1.497-0.343-2.565-1.46-3.023
		c9.808-10.032,19.855-19.774,25.188-30.007c6.95-13.335,9.203-27.76,4.829-41.153C235.373,609.724,231.16,636.137,229.5,642.199z
		 M278.31,747.857c-0.321,1.253-0.606,2.547-0.88,3.846c-0.429-0.122-0.874-0.125-1.31-0.052c-0.155-0.414-0.38-0.798-0.7-1.109
		C276.407,749.655,277.386,748.762,278.31,747.857z M253.43,790.952c0.804-2.615,1.712-5.2,2.751-7.756
		c3.973-9.769,9.639-18.174,16.667-25.877c-3.157,9.938-7.603,19.047-14.077,27.372C257.076,786.869,255.292,788.947,253.43,790.952
		z M311.439,690.476c-0.171-0.529-0.525-0.895-0.962-1.152c1.834-2.171,3.638-4.367,5.424-6.576
		c-1.02,2.651-2.019,5.311-2.983,7.985C312.477,690.483,311.983,690.36,311.439,690.476z M452.684,717.384
		c-0.096,0.18-0.139,0.376-0.193,0.572c-0.661-0.66-1.493-0.894-2.295-0.751c-0.802-0.144-1.634,0.091-2.296,0.751
		c-0.054-0.196-0.098-0.391-0.194-0.572c0.026-0.438-0.032-0.877-0.191-1.296c1.052,0.105,2.142-0.313,2.68-1.277
		c0.537,0.964,1.628,1.382,2.68,1.277C452.716,716.506,452.658,716.945,452.684,717.384z M381.923,776.991
		c-4.31,4.715-8.687,9.722-14.226,13.042c-3.347,2.006-7.035,3.496-10.982,3.733c-0.848,0.005-1.696,0.009-2.544,0.013
		c-4.424,0.128-6.99-2.048-7.763-6.447c12.792,1.205,19.225-8.117,25.882-18.548c6.936-10.869,12.747-22.205,21.928-31.487
		c4.42-4.469,25.189-21.324,37.672-22.13c-13.786,2.909-25.152,12.072-33.226,24.759c-6.196,9.736-9.609,23.307-13.393,36.817
		C384.315,776.007,382.982,775.833,381.923,776.991z M403.358,781.195c-8.339,17.688-19.038,38.282-38.65,43.648
		c35.392-24.268,19.78-101.466,71.43-105.155c-12.521,6.693-18.897,20.079-24.515,33.49c-2.312,5.519-4.344,15.415-6.602,26.675
		C404.36,779.966,403.748,780.368,403.358,781.195z M394.168,841.224c4.982-4.837,7.936-11.559,9.415-19.691
		c4.769-26.229,4.009-78.925,32.447-95.722c-16.66,24.623-14.922,56.243-18.787,85.302c-0.649,0.412-1.103,1.1-1.012,2.145
		c0.147,1.69,0.093,3.298-0.048,4.865c-0.308,1.784-0.644,3.556-1.017,5.311C412.199,832.77,403.904,839.076,394.168,841.224z
		 M434.689,851.19c0.328-0.622,0.659-1.242,0.97-1.879c0.141,0.747,0.239,1.504,0.423,2.24
		C435.651,851.27,435.171,851.187,434.689,851.19z M464.308,851.551c0.184-0.736,0.283-1.493,0.423-2.24
		c0.311,0.637,0.641,1.257,0.969,1.879C465.22,851.187,464.74,851.27,464.308,851.551z M460.97,840.07
		c-0.56,0.433-0.949,1.094-0.938,2.025c0.121,9.578-4.344,17.721-9.436,25.549c-0.134,0.202-0.267,0.404-0.401,0.606
		c-0.134-0.202-0.267-0.404-0.401-0.606c-5.092-7.828-9.558-15.971-9.437-25.549c0.012-0.931-0.378-1.592-0.937-2.025
		c3.392-10.012,5.144-21.046,5.704-31.692c0.797,3.225,1.575,6.428,2.325,9.61c-1.307,5.487-2.49,10.899-3.331,16.174
		c-0.542,3.401,4.663,4.866,5.21,1.436c0.252-1.582,0.565-3.188,0.866-4.79c0.301,1.602,0.614,3.207,0.866,4.79
		c0.547,3.43,5.752,1.965,5.21-1.436c-0.841-5.275-2.023-10.686-3.331-16.174c0.751-3.182,1.528-6.385,2.325-9.61
		C455.826,819.024,457.579,830.058,460.97,840.07z M450.195,806.876c-6.989-27.604-14.3-56.637,0-82.295
		C464.496,750.238,457.185,779.272,450.195,806.876z M485.225,823.432c-0.373-1.753-0.708-3.522-1.016-5.304
		c-0.142-1.569-0.196-3.177-0.049-4.87c0.091-1.045-0.363-1.733-1.013-2.145c-3.865-29.059-2.127-60.68-18.787-85.303
		c28.439,16.796,27.679,69.493,32.447,95.723c1.479,8.132,4.433,14.855,9.415,19.691
		C496.486,839.076,488.191,832.769,485.225,823.432z M535.683,824.844c-19.613-5.366-30.312-25.96-38.65-43.648
		c-0.39-0.828-1.002-1.229-1.662-1.341c-2.258-11.261-4.29-21.156-6.602-26.675c-5.619-13.412-11.995-26.797-24.515-33.49
		C515.904,723.378,500.292,800.577,535.683,824.844z M506.173,737.299c9.181,9.282,14.993,20.618,21.928,31.487
		c6.656,10.431,13.089,19.752,25.882,18.548c-0.773,4.4-3.339,6.576-7.763,6.447c-0.848-0.005-1.696-0.009-2.544-0.013
		c-3.947-0.237-7.635-1.727-10.982-3.733c-5.54-3.32-9.916-8.327-14.226-13.042c-1.059-1.159-2.393-0.985-3.348-0.247
		c-3.784-13.51-7.197-27.081-13.393-36.817c-8.074-12.687-19.44-21.85-33.226-24.759
		C480.983,715.974,501.753,732.83,506.173,737.299z M646.961,790.952c-1.862-2.004-3.647-4.082-5.341-6.261
		c-6.474-8.325-10.919-17.434-14.077-27.372c7.028,7.703,12.694,16.108,16.667,25.877
		C645.249,785.752,646.157,788.336,646.961,790.952z M624.271,751.651c-0.436-0.073-0.881-0.07-1.31,0.052
		c-0.274-1.299-0.559-2.593-0.88-3.846c0.925,0.905,1.903,1.798,2.89,2.685C624.65,750.853,624.426,751.237,624.271,751.651z
		 M588.951,690.476c-0.543-0.116-1.037,0.007-1.479,0.257c-0.964-2.674-1.962-5.333-2.983-7.985c1.786,2.209,3.59,4.404,5.424,6.576
		C589.476,689.581,589.122,689.947,588.951,690.476z M699.118,672.693c1.928,6.09,4.076,12.384,4.182,18.842
		c0.064,3.902-0.49,7.84-2.258,11.377c-0.42,0.737-0.841,1.473-1.261,2.21c-2.093,3.88-5.243,5.021-9.415,3.518
		c7.46-10.482,2.537-20.72-3.172-31.706c-5.945-11.441-12.857-22.142-16.304-34.734c-1.66-6.063-5.874-32.481-0.328-43.693
		c-4.375,13.395-2.123,27.82,4.828,41.157c5.334,10.234,15.38,19.975,25.188,30.007
		C699.461,670.128,698.644,671.196,699.118,672.693z M713.476,656.232c11.148,16.065,23.634,35.628,18.475,55.296
		c-3.318-42.763-77.912-67.838-55.384-114.372c-0.439,14.164,7.985,26.354,16.778,37.91c3.624,4.762,11.177,11.47,19.8,19.055
		C712.913,654.75,712.955,655.48,713.476,656.232z M746.328,659.165c0.032,0.769,0.401,1.506,1.352,1.95
		c1.539,0.719,2.904,1.57,4.192,2.476c1.39,1.158,2.755,2.334,4.088,3.534c6.603,7.237,7.917,17.574,4.908,27.079
		c-1.698-6.732-6.043-12.652-12.346-17.998c-20.371-17.278-66.619-43.02-66.766-76.141
		C694.708,626.922,723.042,641.248,746.328,659.165z M687.865,587.362c29.37,0.444,50.857,21.293,71.269,41.147
		C731.734,620.76,702.935,612.575,687.865,587.362z M788.616,662.316c0.717,0.252,1.422,0.545,2.152,0.753
		c-0.459,0.233-0.771,0.607-1.009,1.026C789.384,663.499,789.012,662.903,788.616,662.316z M803.152,637.138
		c0.707,0.049,1.41,0.073,2.113,0.1c-0.243,0.415-0.412,0.874-0.384,1.387C804.335,638.097,803.728,637.633,803.152,637.138z
		 M793.269,635.775c0.095,0.701,0.473,1.37,1.285,1.825c8.355,4.685,13.175,12.623,17.408,20.947
		c0.108,0.217,0.216,0.433,0.324,0.65c-0.242,0.015-0.483,0.029-0.725,0.044c-9.325,0.497-18.609,0.292-26.844-4.602
		c-0.8-0.476-1.568-0.469-2.223-0.201c-6.975-7.943-15.654-14.978-24.593-20.786c3.191,0.922,6.354,1.85,9.485,2.791
		c4.099,3.876,8.193,7.606,12.341,10.971c2.674,2.17,6.545-1.605,3.849-3.794c-1.245-1.01-2.479-2.083-3.715-3.145
		c1.538,0.54,3.085,1.072,4.581,1.645c3.243,1.241,4.578-3.999,1.361-5.23c-4.989-1.909-10.267-3.591-15.673-5.202
		c-2.38-2.241-4.766-4.516-7.16-6.819C772.47,629.707,782.902,633.706,793.269,635.775z M816.894,597.162
		c-6.727,7.358-16.336,11.388-25.905,9.289c-1.708-0.555-3.412-1.151-5.112-1.776c-1.426-0.661-2.844-1.417-4.233-2.389
		c-0.859-0.601-1.682-0.552-2.364-0.196c-27.16-11.208-53.734-28.581-83.47-26.371c28.757-16.433,74.175,10.748,99.323,19.75
		C802.916,598.256,810.215,599.058,816.894,597.162z M817.439,563.459c-14.454,14.302-37.638,13.27-57.125,11.648
		c-0.913-0.076-1.566,0.254-1.993,0.77c-10.872-3.672-20.47-6.865-26.402-7.621c-14.404-1.837-29.172-3.037-41.22,4.425
		C719.734,529.905,778.745,581.966,817.439,563.459z M726.868,545.243c12.628-3.31,25.352-2.675,38.232-3.247
		c12.361-0.549,23.651-1.459,29.003-13.14c3.424,2.869,4.025,6.179,1.703,9.946c-0.428,0.732-0.856,1.464-1.284,2.196
		c-2.179,3.3-5.313,5.748-8.724,7.644c-5.645,3.137-12.17,4.424-18.408,5.799c-1.533,0.338-2.049,1.58-1.888,2.777
		c-13.592-3.478-27.052-7.308-38.581-6.81c-15.026,0.648-28.646,5.912-38.058,16.399
		C695.799,556.398,720.787,546.837,726.868,545.243z M681.849,580.794c0.284,0.347,0.635,0.617,1.028,0.813
		c0.109,0.173,0.256,0.308,0.399,0.453c-0.903,0.243-1.523,0.847-1.799,1.615c-0.524,0.623-0.737,1.459-0.496,2.361
		c-0.197-0.051-0.388-0.111-0.592-0.119c-0.367-0.242-0.776-0.411-1.218-0.483c0.618-0.858,0.801-2.011,0.234-2.959
		C680.508,582.494,681.414,581.758,681.849,580.794z M575.571,516.586c-5.2-2.948-10.473-5.775-15.809-8.502
		c-1.035-0.741-2.066-1.485-3.154-2.185c-0.637-0.41-1.251-0.466-1.81-0.35c-1.116-0.549-2.196-1.157-3.319-1.695
		c-2.063-0.987-3.916,0.723-4.048,2.429c-1.411,0.967-1.965,3.426-0.079,4.719c1.027,0.704,2.093,1.335,3.127,2.027
		c0.179,0.542,0.535,1.046,1.209,1.393c1.151,0.593,2.311,1.114,3.471,1.64c4.955,3.209,9.965,6.318,15.041,9.306
		c26.587,33.098,19.537,87.382-2.183,121.971c-1.279-0.366-2.568,0.287-3.245,1.255c-1.183,0.103-2.396,0.903-2.71,2.205
		c-40.739,1.508-91.249-19.425-106.718-58.856c-0.047-5.978-0.235-11.959-0.541-17.944c0.124-1.266,0.253-2.531,0.315-3.823
		c0.036-0.756-0.222-1.316-0.602-1.742c-0.083-1.241-0.096-2.48-0.192-3.722c-0.177-2.28-2.583-3.029-4.127-2.291
		c-1.543-0.738-3.95,0.012-4.127,2.291c-0.096,1.241-0.109,2.48-0.192,3.721c-0.38,0.427-0.638,0.987-0.602,1.743
		c0.062,1.293,0.191,2.558,0.315,3.825c-0.306,5.983-0.494,11.964-0.541,17.94c-15.469,39.431-65.979,60.365-106.718,58.857
		c-0.314-1.303-1.527-2.102-2.71-2.205c-0.677-0.968-1.966-1.621-3.244-1.255c-21.72-34.589-28.77-88.873-2.183-121.971
		c5.076-2.988,10.086-6.098,15.042-9.307c1.159-0.526,2.319-1.047,3.47-1.64c0.673-0.347,1.029-0.851,1.208-1.393
		c1.033-0.692,2.101-1.323,3.127-2.027c1.886-1.293,1.332-3.752-0.079-4.719c-0.132-1.706-1.985-3.415-4.047-2.429
		c-1.123,0.537-2.203,1.146-3.319,1.695c-0.56-0.116-1.174-0.059-1.81,0.35c-1.089,0.7-2.12,1.444-3.155,2.185
		c-5.335,2.727-10.609,5.554-15.808,8.502c-41.883,6.318-85.269-26.958-104.331-62.993c0.971-0.923,1.057-2.374,0.555-3.45
		c0.502-1.076,0.416-2.526-0.555-3.449c19.062-36.035,62.448-69.311,104.331-62.993c5.2,2.947,10.473,5.775,15.808,8.502
		c1.035,0.741,2.066,1.485,3.155,2.185c0.637,0.41,1.251,0.466,1.81,0.35c1.116,0.549,2.196,1.157,3.319,1.695
		c2.063,0.987,3.915-0.723,4.047-2.429c1.411-0.968,1.965-3.426,0.079-4.719c-1.027-0.704-2.094-1.335-3.127-2.027
		c-0.179-0.542-0.535-1.046-1.208-1.393c-1.151-0.593-2.311-1.114-3.47-1.64c-4.956-3.21-9.966-6.319-15.042-9.307
		c-26.587-33.098-19.537-87.382,2.183-121.971c1.278,0.366,2.567-0.287,3.244-1.255c1.183-0.103,2.396-0.903,2.71-2.205
		c40.739-1.508,91.249,19.426,106.718,58.857c0.047,5.977,0.235,11.957,0.541,17.94c-0.124,1.267-0.253,2.532-0.315,3.825
		c-0.036,0.756,0.222,1.316,0.602,1.743c0.083,1.241,0.096,2.48,0.192,3.721c0.177,2.28,2.584,3.029,4.127,2.291
		c1.543,0.738,3.949-0.012,4.127-2.291c0.096-1.242,0.109-2.481,0.192-3.722c0.38-0.426,0.638-0.986,0.602-1.742
		c-0.062-1.292-0.19-2.557-0.315-3.823c0.306-5.984,0.494-11.966,0.541-17.944c15.47-39.431,65.98-60.364,106.718-58.856
		c0.314,1.303,1.527,2.103,2.71,2.205c0.677,0.968,1.966,1.621,3.245,1.255c21.72,34.589,28.77,88.873,2.183,121.971
		c-5.075,2.988-10.085,6.097-15.041,9.306c-1.159,0.526-2.32,1.047-3.471,1.64c-0.673,0.347-1.029,0.851-1.209,1.393
		c-1.033,0.692-2.1,1.323-3.127,2.027c-1.886,1.293-1.332,3.752,0.079,4.719c0.132,1.706,1.985,3.415,4.048,2.429
		c1.123-0.537,2.202-1.146,3.319-1.695c0.559,0.116,1.174,0.059,1.81-0.35c1.089-0.7,2.12-1.444,3.154-2.185
		c5.336-2.727,10.609-5.554,15.809-8.502c41.883-6.318,85.268,26.958,104.331,62.992c-0.971,0.923-1.057,2.374-0.555,3.45
		c-0.502,1.076-0.416,2.527,0.555,3.45C660.839,489.628,617.454,522.904,575.571,516.586z M718.785,450.143
		c2.806-0.442,5.609-0.907,8.406-1.409c0.004,0.507,0.144,0.997,0.517,1.409c-0.373,0.413-0.513,0.902-0.517,1.409
		C724.394,451.05,721.591,450.585,718.785,450.143z M793.965,450.143c1.246-0.349,2.509-0.749,3.771-1.16
		c0.109,0.433,0.329,0.819,0.61,1.16c-0.281,0.342-0.501,0.728-0.61,1.161C796.474,450.892,795.211,450.492,793.965,450.143z
		 M804.891,450.143c10.186-2.234,20.297-2.939,30.744-1.495c2.734,0.378,5.425,0.884,8.092,1.495
		c-2.667,0.611-5.358,1.117-8.092,1.495C825.187,453.083,815.076,452.378,804.891,450.143z"/>
	<path d="M469.305,489.254c-3.115,22.798,8.619,43.206,29.772,51.575c0.854,1.316,2.776,1.743,3.955,0.831
		c1.38-0.564,1.971-2.443,1.258-3.841c3.329-22.504-8.478-42.87-29.779-51.571c-1.362-0.557-2.353,0.093-2.837,1.097
		C470.562,487.262,469.504,487.796,469.305,489.254z M499.263,535.13c-17.04-7.461-26.885-24.271-24.876-43.086
		C491.685,499.712,501.322,516.643,499.263,535.13z"/>
	<path d="M431.086,489.254c-0.199-1.458-1.257-1.991-2.369-1.908c-0.484-1.004-1.475-1.654-2.837-1.097
		c-21.302,8.701-33.108,29.068-29.779,51.57c-0.713,1.398-0.122,3.277,1.258,3.841c1.179,0.912,3.1,0.485,3.955-0.831
		C422.466,532.46,434.201,512.052,431.086,489.254z M401.128,535.13c-2.059-18.487,7.577-35.418,24.876-43.086
		C428.013,510.859,418.168,527.669,401.128,535.13z"/>
	<path d="M407.238,450.143c0.628-0.921,0.695-2.104-0.468-3.005c-18.186-14.097-41.728-14.139-59.551-0.004
		c-1.567,0.082-2.898,1.533-2.697,3.009c-0.201,1.477,1.13,2.928,2.697,3.01c17.824,14.135,41.365,14.093,59.551-0.004
		C407.933,452.248,407.866,451.065,407.238,450.143z M352.061,450.143c14.981-11.026,34.462-11.147,49.751,0
		C386.523,461.29,367.042,461.17,352.061,450.143z"/>
	<path d="M428.717,412.941c1.112,0.083,2.17-0.45,2.369-1.908c3.116-22.798-8.62-43.206-29.772-51.575
		c-0.854-1.316-2.777-1.744-3.955-0.831c-1.379,0.564-1.971,2.443-1.258,3.841c-3.329,22.503,8.477,42.869,29.779,51.57
		C427.242,414.595,428.233,413.945,428.717,412.941z M401.128,365.157c17.04,7.46,26.884,24.271,24.876,43.085
		C408.705,400.574,399.069,383.644,401.128,365.157z"/>
	<path d="M469.305,411.033c0.199,1.458,1.257,1.992,2.369,1.908c0.484,1.004,1.475,1.654,2.837,1.097
		c21.301-8.701,33.108-29.067,29.779-51.571c0.713-1.398,0.122-3.276-1.258-3.841c-1.178-0.913-3.101-0.485-3.955,0.831
		C477.925,367.827,466.19,388.235,469.305,411.033z M499.263,365.157c2.059,18.487-7.577,35.418-24.876,43.085
		C472.378,389.427,482.223,372.617,499.263,365.157z"/>
</g>
<g>
</g>
<g>
</g>
<g>
</g>
<g>
</g>
<g>
</g>
<g>
</g>
</svg>
