<?xml version="1.0" encoding="iso-8859-1"?>
<!-- Generator: Adobe Illustrator 22.0.1, SVG Export Plug-In . SVG Version: 6.00 Build 0)  -->
<svg version="1.1" id="Layer_1" xmlns="http://www.w3.org/2000/svg" xmlns:xlink="http://www.w3.org/1999/xlink" x="0px" y="0px"
	 width="900px" height="900px" viewBox="0 0 900 900" enable-background="new 0 0 900 900" xml:space="preserve">
<g>
	<path d="M487.123,423.227c2.943,1.712,6.066,2.217,9.249,1.954c-1.819,2.625-2.944,5.581-2.932,8.986
		c0.011,3.465,5.388,3.492,5.377,0.029c-0.036-10.747,19.709-17.803,27.705-22.156c1.935-1.054,1.54-3.31,0.22-4.393
		c-0.278-1.685-2.035-3.155-3.915-2.006c-7.768,4.748-23.75,18.32-33.04,12.915C486.793,416.816,484.128,421.485,487.123,423.227z"
		/>
	<path d="M541.207,279.622c1.375,1.215,2.687,2.375,2.687,2.375s0.481-1.568,0.653-3.639c0.189-2.06-0.003-4.63-0.875-6.243
		c-1.79-3.232-4.835-1.213-4.835-1.213s-2.947,1.894-1.468,4.573C538.103,276.834,539.765,278.309,541.207,279.622z"/>
	<path d="M772.414,449.126c-12.07-7.498-22.825-15.234-37.253-16.224c-14.758-1.013-25.359,6.511-36.32,15.598
		c-1.253,1.039-1.036,2.411-0.206,3.355c-0.83,0.945-1.047,2.316,0.206,3.355c10.961,9.087,21.562,16.611,36.32,15.598
		c14.428-0.99,25.183-8.726,37.253-16.224c1.091-0.678,1.405-1.746,1.225-2.729C773.819,450.871,773.505,449.803,772.414,449.126z
		 M738.978,464.968c-14.919,1.849-24.699-3.992-35.784-13.113c11.085-9.121,20.864-14.962,35.784-13.113
		c10.052,1.245,19.129,7.571,27.722,13.113C758.108,457.397,749.03,463.722,738.978,464.968z"/>
	<path d="M647.611,456.871c-1.879-0.886-3.477-1.254-3.477-1.254s0.348,1.717,0.713,3.515c0.416,1.905,0.863,4.083,1.672,5.397
		c1.581,2.621,4.695,1.016,4.695,1.016s3.271-1.628,1.367-4.794C651.619,459.188,649.489,457.737,647.611,456.871z"/>
	<path d="M658.052,572.659c1.102,1.045,2.648,2.292,4.545,3.491c0.626,0.606,1.251,1.151,1.866,1.855
		c4.492,4.833,7.296,12.068,8.114,17.666c0.895,5.588,1.083,8.512,1.784,10.135c0.59,1.615,1.455,1.821,1.455,1.821
		s0.863,0.261,2.061-1.202c1.062-1.429,2.852-4.924,1.733-11.998c-0.611-3.492-2.113-7.406-4.439-10.832
		c-0.822-1.227-1.76-2.349-2.736-3.416c1.412,0.313,2.853,0.564,4.326,0.662c4.129,0.301,8.271-0.355,11.6-1.572
		c6.686-2.567,8.817-5.865,9.525-7.499c0.668-1.77,0.01-2.387,0.01-2.387s-0.611-0.647-2.305-0.35
		c-1.756,0.205-4.382,1.504-9.669,3.523c-5.257,2.09-12.924,3.28-19.356,1.806c-0.76-0.149-1.492-0.326-2.199-0.518
		c-2.119-1.148-4.095-1.903-5.636-2.361c-0.455-0.135-0.852-0.24-1.227-0.337c-1.12-0.585-1.76-0.982-1.833-1.028
		c1.242,0.111,2.63,0.244,4.163,0.341c6.218,0.514,14.024-1.781,18.873-4.684c4.92-2.872,6.606-5.208,7.252-6.673
		c0.621-1.489,0.104-2.217,0.104-2.217s-0.479-0.754-2.085-0.755c-1.614-0.031-4.314,0.819-8.816,3.444
		c-4.499,2.645-10.183,6.049-15.661,7.328c-2.078,0.515-4.09,0.963-5.72,1.437c-0.056-0.092-0.149-0.214-0.201-0.304
		c-0.941-1.565-1.355-2.63-1.355-2.63s-0.032,1.138,0.31,3.02c0.014,0.085,0.055,0.209,0.072,0.297
		c-0.094,0.033-0.21,0.064-0.299,0.097c-1.802,0.645-2.771,1.242-2.771,1.242s1.13-0.174,2.956-0.141
		c0.117,0,0.288,0.022,0.409,0.025c0.403,1.669,0.964,3.569,1.57,5.67c1.631,5.384,1.525,12.009,1.484,17.227
		c-0.023,5.212,0.592,7.975,1.426,9.357c0.804,1.391,1.696,1.428,1.696,1.428s0.889,0.084,1.868-1.199
		c0.946-1.292,2.125-3.92,2.153-9.617c0.089-5.651-1.826-13.559-5.381-18.687c-0.85-1.279-1.66-2.414-2.376-3.435
		c0.077,0.04,0.74,0.395,1.807,1.073C657.417,572.04,657.707,572.332,658.052,572.659z M654.928,570.071
		c0.259,0.021,0.449,0.02,0.723,0.045c0.023,0.029,0.231,0.29,0.635,0.739c-0.592-0.125-0.921-0.175-0.957-0.18
		C655.17,570.45,655.076,570.284,654.928,570.071z"/>
	<path d="M526.521,491.669c-7.996-4.353-27.741-11.408-27.705-22.156c0.011-3.462-5.365-3.437-5.377,0.029
		c-0.011,3.405,1.113,6.361,2.932,8.986c-3.183-0.263-6.305,0.241-9.249,1.954c-2.995,1.743-0.33,6.412,2.663,4.671
		c9.29-5.405,25.272,8.167,33.04,12.915c1.88,1.149,3.636-0.321,3.915-2.006C528.061,494.979,528.456,492.722,526.521,491.669z"/>
	<path d="M871.356,448.549c-7.096-5.464-15.135-10.14-24.289-10.456c-4.47-0.155-9.07,0.722-13.662,2.069
		c15.202-9.826,27.454-23.797,37.823-40.239c0.893-1.416,0.255-2.756-0.837-3.451c0.438-0.768,0.947-1.517,1.356-2.292
		c1.611-3.052-3.05-5.735-4.671-2.663c-8.401,15.919-21.358,27.816-37.195,36.373c-17.927,9.687-32.911,6.884-49.771,0.065
		c12.445,1.431,24.487-0.006,37.425-10.455c18.38-14.843,23.511-37.962,20.455-60.431c-0.456-3.356-5.421-2.075-5.192,1.163
		c-0.916,0.125-1.742,0.697-2.005,1.894c-7.183,32.611-32.545,42.147-60.299,46.641c2.727-1.776,5.41-3.771,8.008-6.215
		c20.031-18.844,30.62-38.797,24.853-66.653c-0.703-3.395-5.903-2.023-5.204,1.354c0.052,0.251,0.062,0.489,0.111,0.738
		c-5.502,19.401-18.147,31.737-33.421,41.521c3.376-9.158,2.161-19.733,1.625-29.466c-0.501-9.116-2.008-17.263-5.947-25.022
		c-0.146-2.005-0.428-4.019-1.025-6.053c-0.673-2.292-3.322-2.309-4.598-1.026c-1.973-0.101-3.973,1.799-2.554,3.828
		c1.133,1.621,2.082,3.243,2.95,4.872c2.283,44.726-110.252,77.639-87.306,121.635c-1.688-1.55-3.648-3.912-5.035-7.326
		c-1.582-3.889-2.491-9.054-1.495-14.552c0.955-5.542,3.586-11.294,7.228-16.89c7.507-11.126,17.251-22.92,27.402-33.766
		c5.101-5.455,10.336-10.59,15.571-15.523c5.23-4.961,10.507-10.496,13.239-17.308c2.765-6.651,2.779-13.917-0.24-19.32
		c-2.915-5.228-7.68-8.235-12.222-8.833c-2.226-0.308-4.453-0.035-6.288,0.731c-1.809,0.749-3.168,1.824-4.214,2.911
		c-2.095,2.199-2.924,4.524-3.226,6.363c-0.492,3.807,0.932,5.473,1.473,6.037c0.642,0.602,0.816,0.446,0.816,0.446
		s0.197-0.106,0.21-0.887c0.065-0.753-0.141-2.262,0.941-4.634c0.563-1.153,1.489-2.568,3.081-3.722
		c1.637-1.172,3.576-1.953,6.194-1.305c2.504,0.561,5.465,2.642,7.192,6.087c1.678,3.273,1.82,8.26-0.332,13.432
		c-2.055,5.209-6.38,10.112-11.411,15.123c-5.1,5.073-10.341,10.61-15.269,16.377c-9.898,11.583-18.973,23.952-25.981,35.957
		c-3.41,6.067-5.815,12.422-6.403,18.414c-0.639,6.034,0.755,11.394,2.72,15.327c2.019,3.922,4.454,6.247,6.409,7.634
		c0.613,1.102,1.401,2.219,2.19,3.336c-2.813-0.049-5.607-0.023-8.375,0.114c-13.068-0.66-25.834-2.991-39.049-3.247
		c-0.228-0.004-0.458,0.005-0.687,0.001c3.472-0.643,7.538-2.064,11.599-4.693c3.01-1.936,5.87-4.194,8.721-7.147
		c2.814-2.941,5.551-6.697,7.43-11.27c2.707-6.743,3.201-12.141,3.337-16.569c0.088-4.452-0.335-8.079-0.721-11.658
		c-0.389-3.585-0.787-7.087-0.575-11.25c0.243-4.118,0.979-8.993,3.943-14.398c-3.57,4.608-5.728,8.996-7.607,12.878
		c-1.857,3.903-3.319,7.464-4.652,11.004c-2.795,6.98-4.318,14.543-7.961,24.12c-1.289,3.151-2.949,6.134-4.785,9.055
		c-1.85,2.91-3.82,5.783-5.55,8.113c-3.55,4.764-6.896,7.844-9.751,9.504c5.176-0.753,9.69-4.209,13.231-7.517
		c3.555-3.42,6.527-6.916,8.803-10.11c4.594-6.444,6.284-12.362,7.493-16.693c1.151-4.373,1.69-7.307,2.083-9.096
		c0.379-1.785,0.525-2.474,0.525-2.474s-0.137,2.044-0.367,5.473c-0.324,3.445-0.782,8.387-2.476,14.042
		c-1.621,5.691-5.116,11.769-9.719,17.081c-4.117,4.872-9.466,9.782-15.794,11.611c-11.311,0.014-22.737,1.073-34.11,2.285
		c2.42-1.117,4.89-2.399,7.371-4.04c6.919-4.43,13.845-10.776,19.275-18.199c5.539-7.369,9.154-15.954,11.522-23.153
		c4.547-14.511,6.208-21.341,7.053-25.009c0.781-3.628,0.011-4.009,0.011-4.009s-0.772-0.529-3.239,2.482
		c-2.503,2.938-6.161,10.07-10.599,24.273c-2.334,7.049-5.159,14.854-9.733,22.031c-4.473,7.205-10.309,13.77-16.392,18.698
		c-4.139,3.453-8.372,5.973-12.202,7.672c-0.701,0.075-1.399,0.146-2.099,0.22c-2.314-0.248-4.623-0.485-6.925-0.712
		c36.294-16.843,32.028-67.129,53.13-94.413c9.926-1.438,19.385-5.67,28.032-14.809c1.375-1.453,0.651-3.304-0.648-4.14
		c-0.075-1.543-1.316-3.096-3.262-2.631c-12.239,2.919-20.632,8.995-26.841,16.872c-34.199,4.634-75.641-24.234-108.383-1.153
		c0.957-2.113,1.922-4.216,2.867-6.35c0.426-0.584,0.846-1.169,1.273-1.753c3.386-2.467,7.685-4.874,12.745-6.731
		c7.309-2.804,15.913-4.575,24.389-4.846c8.502-0.372,16.674,1.083,23.946,2.586c14.518,3.258,22.524,3.655,26.32,2.958
		c3.84-0.631,3.769-1.564,3.769-1.564s0.054-0.857-3.478-1.995c-3.599-1.102-10.345-3.079-25.185-6.397
		c-7.418-1.549-16.66-2.711-25.812-1.598c-9.144,0.99-18.103,3.815-25.398,7.593c-2.662,1.328-5.007,2.826-7.184,4.364
		c6.669-9.151,13.233-18.423,18.863-28.105c4.752-4.721,11.743-7.018,18.123-8.166c6.902-1.33,13.914-1.319,19.652,0.123
		c5.745,1.36,10.254,3.434,13.399,4.877c3.085,1.516,4.923,2.419,4.923,2.419s-0.67-0.218-2.405-0.783
		c-1.745-0.554-4.556-1.554-8.919-2.744c-4.356-1.118-10.326-2.615-18.203-1.857c-3.904,0.374-8.418,1.2-13.157,2.568
		c-4.636,1.413-9.886,3.594-13.126,7.7c2.866-1.641,7.205-3,13.106-3.692c2.883-0.333,6.356-0.602,9.801-0.75
		c3.448-0.129,6.861-0.076,10.234,0.384c10.115,1.634,17.427,4.097,24.87,5.166c3.732,0.616,7.547,1.13,11.856,1.473
		c4.302,0.314,9.18,0.639,14.957-0.149c-6.163-0.136-10.753-1.935-14.441-3.784c-3.712-1.898-6.546-3.993-9.456-6.123
		c-2.907-2.123-5.836-4.303-9.736-6.453c-3.903-2.097-8.824-4.368-16.018-5.395c-4.899-0.66-9.52-0.168-13.475,0.799
		c-3.983,0.992-7.368,2.34-10.55,3.978c-4.307,2.203-7.572,5.014-9.864,7.7c0.112-0.2,0.235-0.395,0.345-0.595
		c6.386-11.573,10.751-23.795,16.714-35.444c1.502-2.328,2.921-4.734,4.284-7.193c0.573,1.241,1.146,2.482,1.794,3.565
		c0.224,2.386,1.02,5.657,3.407,9.367c2.424,3.668,6.369,7.555,11.914,10.019c5.483,2.487,12.189,3.582,19.148,3.662
		c13.901-0.067,29.151-1.742,44.131-4.522c7.458-1.384,14.873-3.154,21.817-5.034c6.855-1.852,13.263-3.146,18.803-2.321
		c5.555,0.722,9.803,3.339,11.798,6.429c2.12,3.218,2.442,6.823,1.675,9.272c-0.748,2.591-2.393,3.88-4.227,4.712
		c-1.795,0.801-3.483,0.896-4.764,0.807c-2.596-0.249-3.799-1.182-4.484-1.502c-0.682-0.379-0.873-0.262-0.873-0.262
		s-0.222,0.072-0.022,0.93c0.218,0.75,0.949,2.816,4.492,4.294c1.744,0.659,4.171,1.103,7.123,0.388
		c1.465-0.362,3.075-1.001,4.628-2.193c1.581-1.206,2.931-2.998,3.777-5.08c1.753-4.232,1.531-9.863-1.539-15.001
		c-3.169-5.316-9.47-8.937-16.611-9.868c-7.266-1.04-14.698,0.763-21.609,2.812c-6.89,2.067-13.955,4.033-21.229,5.723
		c-14.469,3.368-29.555,5.909-42.944,6.848c-6.667,0.356-12.964-0.241-18.241-2.185c-5.259-1.888-9.278-5.257-11.855-8.571
		c-2.263-2.908-3.328-5.786-3.827-8.023c26.63,41.868,111.399-39.132,148.992-14.793c0.977,1.566,1.908,3.199,2.745,4.991
		c1.048,2.243,3.693,1.462,4.591-0.298c1.749-0.464,3.06-2.766,1.411-4.495c-1.463-1.534-3.066-2.786-4.73-3.915
		c-4.75-7.29-11.052-12.669-18.696-17.661c-8.161-5.33-16.711-11.67-26.331-13.325c16.11-8.335,33.116-13.119,52.669-8.184
		c0.192,0.167,0.393,0.295,0.584,0.465c2.575,2.294,6.364-1.523,3.774-3.829c-21.24-18.923-43.815-19.729-70.15-11.804
		c-3.416,1.028-6.485,2.354-9.386,3.828c17.769-21.788,38.709-38.985,70.543-28.9c1.169,0.37,2.078-0.059,2.643-0.79
		c2.689,1.817,6.281-1.842,3.603-3.915c-17.932-13.881-40.518-20.997-62.563-12.501c-15.518,5.98-22.783,15.689-27.766,27.182
		c2.526-18.011,7.589-32.388,24.942-43.069c15.329-9.436,32.111-14.709,50.098-14.025c3.47,0.132,3.477-5.245,0.029-5.376
		c-0.875-0.033-1.779,0.033-2.663,0.028c-0.056-1.294-0.897-2.516-2.57-2.451c-19.423,0.759-37.648,4.384-53.759,12.636
		c3.462-3.304,6.521-6.848,8.623-10.797c4.303-8.086,4.274-17.385,3.089-26.263c1.737-1.458,1.005-4.556-1.035-4.819
		c-1.247-1.635-4.296-0.719-4.691,1.514c-8.28,3.413-16.349,8.037-21.2,15.806c-2.369,3.794-3.909,8.216-5.039,12.867
		c-0.909-18.079-6.882-35.675-15.936-52.875c-0.78-1.481-2.259-1.599-3.407-1c-0.447-0.763-0.841-1.579-1.307-2.32
		c-1.838-2.921-6.492-0.226-4.642,2.713c9.586,15.234,13.41,32.405,12.903,50.398c-0.573,20.359-10.493,31.932-24.817,43.12
		c7.455-10.058,12.224-21.202,9.646-37.623c-3.665-23.339-21.12-39.342-42.108-47.93c-3.134-1.283-4.507,3.658-1.589,5.078
		c-0.35,0.855-0.267,1.857,0.638,2.684c24.651,22.526,20.227,49.259,10.243,75.542c-0.175-3.25-0.561-6.571-1.378-10.043
		c-6.304-26.769-18.289-45.916-45.297-54.85c-3.292-1.089-4.703,4.101-1.429,5.184c0.243,0.08,0.454,0.191,0.695,0.273
		c14.051,14.465,18.41,31.585,19.247,49.704c-6.243-7.503-16.009-11.738-24.705-16.14c-8.145-4.124-15.954-6.892-24.642-7.36
		c-1.81-0.876-3.695-1.64-5.755-2.139c-2.322-0.563-3.661,1.723-3.188,3.469c-1.075,1.658-0.428,4.34,2.038,4.126
		c1.97-0.171,3.849-0.182,5.694-0.119c39.876,20.386,12.111,134.3,61.686,136.427c-2.186,0.687-5.212,1.204-8.862,0.698
		c-4.159-0.574-9.086-2.37-13.35-5.981c-4.322-3.598-7.988-8.752-11.013-14.704c-5.882-12.064-11.224-26.4-15.541-40.614
		c-2.174-7.145-4.003-14.246-5.658-21.247c-1.681-7.01-3.836-14.347-8.37-20.12c-4.377-5.719-10.663-9.365-16.852-9.452
		c-5.985-0.09-10.972,2.533-13.761,6.168c-1.38,1.774-2.257,3.839-2.511,5.811c-0.256,1.941-0.005,3.655,0.414,5.105
		c0.856,2.914,2.456,4.794,3.898,5.975c3.051,2.33,5.206,1.929,5.965,1.743c0.843-0.255,0.794-0.483,0.794-0.483
		s0.007-0.223-0.663-0.625c-0.62-0.433-2.029-1.009-3.543-3.132c-0.718-1.064-1.479-2.574-1.683-4.529
		c-0.197-2.004,0.096-4.073,1.966-6.016c1.738-1.888,5.021-3.412,8.867-3.185c3.673,0.183,8.063,2.554,11.466,7.003
		c3.483,4.384,5.568,10.581,7.391,17.444c1.844,6.954,4.018,14.26,6.549,21.411c5.082,14.363,11.257,28.407,18.149,40.479
		c3.549,5.987,7.85,11.247,12.745,14.752c4.906,3.571,10.245,5.044,14.633,5.309c4.407,0.212,7.638-0.734,9.816-1.734
		c1.261,0.02,2.622-0.104,3.983-0.228c-1.449,2.411-2.823,4.843-4.088,7.308c-7.106,10.988-15.508,20.878-22.337,32.195
		c-0.129,0.214-0.234,0.445-0.362,0.659c1.191-3.336,2.003-7.595,1.756-12.455c-0.172-3.575-0.698-7.18-1.83-11.126
		c-1.14-3.908-3.024-8.156-6.045-12.069c-4.486-5.716-8.914-8.843-12.681-11.174c-3.812-2.303-7.164-3.75-10.456-5.205
		c-3.299-1.455-6.531-2.862-10.03-5.127c-3.445-2.269-7.298-5.344-10.498-10.614c2.206,5.396,4.927,9.459,7.349,13.027
		c2.452,3.56,4.805,6.607,7.203,9.531c4.647,5.91,10.436,11.012,16.909,18.955c2.085,2.692,3.837,5.621,5.449,8.671
		c1.595,3.057,3.098,6.2,4.251,8.863c2.351,5.456,3.345,9.894,3.356,13.196c1.935-4.859,1.2-10.496,0.105-15.217
		c-1.185-4.789-2.727-9.11-4.354-12.679c-3.283-7.201-7.564-11.623-10.71-14.836c-3.212-3.183-5.484-5.117-6.836-6.352
		c-1.356-1.22-1.88-1.692-1.88-1.692s1.702,1.141,4.556,3.054c2.822,2.003,6.872,4.871,10.923,9.166
		c4.118,4.249,7.634,10.316,9.933,16.958c2.191,6.084,3.78,13.283,2.089,19.746c-5.598,9.755-10.402,20.081-15.012,30.476
		c0.247-2.67,0.374-5.469,0.192-8.459c-0.377-8.207-2.409-17.378-6.124-25.792c-3.612-8.482-9.239-15.905-14.29-21.555
		c-10.294-11.193-15.378-16.047-18.132-18.613c-2.751-2.49-3.467-2.015-3.467-2.015s-0.844,0.405,0.53,4.046
		c1.294,3.637,5.64,10.371,15.721,21.315c4.938,5.546,10.284,11.895,14.213,19.445c4.003,7.476,6.771,15.813,7.997,23.545
		c0.921,5.311,0.986,10.238,0.543,14.404c-0.293,0.662-0.597,1.308-0.891,1.97c-1.361,1.866-2.71,3.732-4.047,5.598
		c3.56-39.853-42.121-61.301-55.2-93.218c3.717-9.315,4.782-19.622,1.191-31.681c-0.571-1.917-2.536-2.216-3.91-1.509
		c-1.374-0.707-3.339-0.408-3.91,1.509c-3.591,12.058-2.526,22.365,1.191,31.681c-13.078,31.917-58.759,53.365-55.2,93.218
		c-1.337-1.865-2.687-3.732-4.047-5.597c-0.294-0.662-0.597-1.308-0.891-1.971c-0.444-4.166-0.378-9.093,0.543-14.404
		c1.226-7.731,3.994-16.069,7.997-23.545c3.929-7.55,9.275-13.899,14.213-19.445c10.081-10.944,14.428-17.678,15.721-21.315
		c1.374-3.642,0.53-4.046,0.53-4.046s-0.716-0.475-3.467,2.015c-2.754,2.565-7.839,7.42-18.133,18.613
		c-5.05,5.65-10.677,13.073-14.29,21.555c-3.714,8.414-5.747,17.585-6.123,25.792c-0.181,2.99-0.055,5.789,0.192,8.459
		c-4.61-10.395-9.415-20.722-15.013-30.477c-1.691-6.463-0.101-13.661,2.089-19.745c2.299-6.642,5.815-12.709,9.933-16.958
		c4.051-4.295,8.101-7.162,10.923-9.166c2.855-1.913,4.556-3.054,4.556-3.054s-0.524,0.471-1.88,1.692
		c-1.352,1.235-3.624,3.168-6.836,6.352c-3.146,3.213-7.427,7.635-10.71,14.836c-1.628,3.568-3.169,7.89-4.355,12.679
		c-1.094,4.721-1.83,10.358,0.106,15.217c0.011-3.303,1.005-7.74,3.356-13.196c1.153-2.663,2.656-5.806,4.251-8.863
		c1.612-3.051,3.364-5.98,5.449-8.671c6.473-7.943,12.262-13.044,16.908-18.955c2.399-2.924,4.752-5.971,7.203-9.531
		c2.423-3.568,5.144-7.631,7.349-13.027c-3.199,5.269-7.053,8.345-10.497,10.614c-3.5,2.266-6.731,3.672-10.031,5.127
		c-3.292,1.456-6.645,2.902-10.456,5.205c-3.767,2.331-8.195,5.458-12.68,11.174c-3.021,3.913-4.905,8.161-6.045,12.069
		c-1.132,3.945-1.658,7.551-1.83,11.126c-0.247,4.861,0.564,9.119,1.756,12.455c-0.128-0.214-0.233-0.445-0.362-0.659
		c-6.829-11.317-15.231-21.208-22.338-32.195c-1.266-2.465-2.64-4.898-4.088-7.308c1.361,0.124,2.722,0.248,3.983,0.228
		c2.179,0.999,5.41,1.946,9.816,1.734c4.388-0.265,9.728-1.738,14.634-5.309c4.896-3.505,9.196-8.765,12.745-14.752
		c6.892-12.073,13.067-26.116,18.149-40.479c2.531-7.151,4.705-14.457,6.549-21.411c1.824-6.863,3.907-13.059,7.391-17.444
		c3.403-4.449,7.793-6.82,11.466-7.003c3.847-0.227,7.13,1.297,8.867,3.185c1.87,1.943,2.163,4.012,1.967,6.016
		c-0.203,1.955-0.965,3.465-1.683,4.529c-1.514,2.123-2.923,2.699-3.543,3.132c-0.669,0.401-0.663,0.625-0.663,0.625
		s-0.049,0.228,0.794,0.483c0.759,0.187,2.913,0.587,5.964-1.743c1.443-1.181,3.042-3.061,3.898-5.975
		c0.419-1.449,0.671-3.164,0.414-5.105c-0.254-1.972-1.131-4.037-2.511-5.811c-2.789-3.634-7.776-6.257-13.761-6.168
		c-6.188,0.087-12.474,3.732-16.852,9.452c-4.533,5.773-6.688,13.11-8.37,20.12c-1.655,7.001-3.484,14.102-5.658,21.247
		c-4.318,14.214-9.66,28.55-15.541,40.614c-3.025,5.952-6.691,11.107-11.013,14.704c-4.264,3.611-9.191,5.406-13.35,5.981
		c-3.65,0.507-6.676-0.01-8.862-0.698c49.576-2.127,21.81-116.041,61.686-136.427c1.845-0.063,3.724-0.052,5.694,0.119
		c2.467,0.214,3.113-2.468,2.038-4.126c0.473-1.747-0.866-4.032-3.188-3.469c-2.06,0.5-3.945,1.263-5.755,2.139
		c-8.688,0.468-16.497,3.237-24.643,7.36c-8.696,4.403-18.462,8.637-24.705,16.14c0.836-18.119,5.196-35.239,19.247-49.704
		c0.241-0.083,0.451-0.193,0.695-0.273c3.274-1.083,1.863-6.272-1.429-5.184c-27.007,8.933-38.994,28.081-45.297,54.85
		c-0.818,3.472-1.203,6.793-1.378,10.042c-9.985-26.283-14.407-53.015,10.243-75.541c0.905-0.827,0.988-1.829,0.638-2.684
		c2.918-1.42,1.546-6.36-1.589-5.078c-20.987,8.589-38.443,24.591-42.108,47.93c-2.578,16.421,2.191,27.564,9.646,37.622
		c-14.324-11.187-24.243-22.761-24.816-43.12c-0.507-17.993,3.317-35.164,12.903-50.398c1.85-2.94-2.804-5.634-4.642-2.713
		c-0.467,0.742-0.861,1.557-1.307,2.32c-1.148-0.599-2.628-0.481-3.408,1c-9.054,17.2-15.028,34.796-15.936,52.875
		c-1.13-4.65-2.67-9.072-5.039-12.866c-4.851-7.769-12.919-12.393-21.2-15.806c-0.395-2.233-3.443-3.148-4.691-1.514
		c-2.039,0.262-2.77,3.36-1.035,4.819c-1.184,8.877-1.214,18.177,3.089,26.263c2.101,3.949,5.16,7.493,8.623,10.797
		c-16.111-8.252-34.336-11.877-53.759-12.636c-1.673-0.065-2.515,1.157-2.57,2.451c-0.884,0.005-1.788-0.061-2.663-0.028
		c-3.449,0.131-3.442,5.509,0.029,5.376c17.986-0.684,34.768,4.589,50.098,14.025c17.353,10.681,22.417,25.059,24.942,43.071
		c-4.983-11.493-12.249-21.203-27.767-27.184c-22.045-8.496-44.631-1.38-62.563,12.501c-2.678,2.073,0.914,5.732,3.603,3.915
		c0.566,0.731,1.475,1.16,2.644,0.79c31.833-10.085,52.773,7.112,70.542,28.9c-2.902-1.473-5.97-2.8-9.386-3.828
		c-26.334-7.925-48.91-7.119-70.15,11.804c-2.589,2.307,1.2,6.123,3.775,3.829c0.191-0.17,0.392-0.298,0.584-0.465
		c19.553-4.936,36.559-0.152,52.669,8.184c-9.619,1.655-18.17,7.995-26.331,13.325c-7.644,4.992-13.947,10.371-18.696,17.661
		c-1.664,1.129-3.267,2.38-4.73,3.914c-1.649,1.729-0.339,4.031,1.411,4.495c0.898,1.76,3.544,2.541,4.592,0.298
		c0.837-1.792,1.768-3.425,2.745-4.991c37.593-24.339,122.362,56.662,148.992,14.792c-0.498,2.237-1.563,5.116-3.827,8.024
		c-2.577,3.315-6.595,6.684-11.855,8.571c-5.277,1.944-11.574,2.541-18.241,2.185c-13.389-0.939-28.475-3.48-42.944-6.848
		c-7.274-1.69-14.339-3.656-21.229-5.723c-6.911-2.049-14.343-3.851-21.609-2.812c-7.142,0.931-13.442,4.552-16.611,9.868
		c-3.07,5.138-3.292,10.769-1.539,15.001c0.846,2.082,2.196,3.874,3.777,5.08c1.553,1.192,3.163,1.831,4.628,2.193
		c2.952,0.715,5.379,0.27,7.123-0.388c3.543-1.477,4.274-3.543,4.492-4.294c0.2-0.858-0.022-0.93-0.022-0.93
		s-0.19-0.117-0.873,0.262c-0.684,0.321-1.888,1.253-4.484,1.502c-1.28,0.089-2.968-0.006-4.764-0.807
		c-1.834-0.832-3.479-2.12-4.227-4.712c-0.766-2.449-0.445-6.054,1.675-9.272c1.995-3.09,6.243-5.706,11.798-6.429
		c5.539-0.825,11.948,0.469,18.803,2.321c6.944,1.88,14.359,3.65,21.817,5.034c14.98,2.78,30.229,4.455,44.13,4.522
		c6.959-0.08,13.665-1.175,19.148-3.662c5.545-2.463,9.49-6.351,11.914-10.019c2.387-3.71,3.183-6.982,3.407-9.368
		c0.648-1.082,1.221-2.323,1.794-3.564c1.363,2.46,2.783,4.865,4.285,7.193c5.963,11.648,10.328,23.87,16.714,35.444
		c0.111,0.2,0.234,0.395,0.345,0.595c-2.292-2.686-5.557-5.497-9.865-7.7c-3.182-1.639-6.567-2.986-10.55-3.978
		c-3.955-0.967-8.575-1.459-13.475-0.799c-7.193,1.027-12.115,3.298-16.018,5.395c-3.9,2.15-6.829,4.329-9.736,6.453
		c-2.91,2.13-5.744,4.225-9.456,6.123c-3.688,1.849-8.277,3.648-14.441,3.784c5.776,0.788,10.655,0.463,14.957,0.149
		c4.308-0.343,8.124-0.858,11.856-1.473c7.442-1.069,14.754-3.532,24.869-5.166c3.374-0.46,6.786-0.513,10.234-0.384
		c3.445,0.148,6.918,0.417,9.801,0.75c5.901,0.692,10.241,2.05,13.106,3.692c-3.24-4.106-8.49-6.287-13.126-7.7
		c-4.739-1.368-9.253-2.194-13.157-2.568c-7.877-0.757-13.847,0.739-18.203,1.857c-4.363,1.19-7.173,2.19-8.919,2.744
		c-1.735,0.565-2.405,0.783-2.405,0.783s1.839-0.903,4.923-2.419c3.146-1.442,7.655-3.516,13.399-4.877
		c5.738-1.442,12.75-1.454,19.652-0.123c6.38,1.148,13.371,3.445,18.123,8.166c5.63,9.682,12.194,18.953,18.863,28.104
		c-2.177-1.537-4.522-3.035-7.183-4.363c-7.295-3.777-16.254-6.602-25.398-7.593c-9.152-1.113-18.394,0.049-25.812,1.598
		c-14.84,3.318-21.587,5.294-25.185,6.397c-3.532,1.138-3.478,1.995-3.478,1.995s-0.071,0.933,3.769,1.564
		c3.796,0.698,11.802,0.301,26.32-2.958c7.272-1.503,15.443-2.959,23.946-2.586c8.476,0.271,17.08,2.043,24.389,4.846
		c5.06,1.858,9.358,4.264,12.744,6.731c0.427,0.585,0.847,1.169,1.273,1.753c0.945,2.134,1.91,4.237,2.867,6.35
		c-32.742-23.08-74.184,5.788-108.383,1.153c-6.209-7.877-14.603-13.953-26.841-16.872c-1.946-0.464-3.187,1.088-3.262,2.631
		c-1.299,0.836-2.023,2.687-0.648,4.14c8.647,9.139,18.106,13.37,28.032,14.809c21.101,27.285,16.836,77.57,53.13,94.413
		c-2.302,0.227-4.611,0.464-6.925,0.712c-0.7-0.074-1.398-0.145-2.099-0.22c-3.83-1.699-8.063-4.218-12.202-7.672
		c-6.083-4.928-11.919-11.493-16.392-18.698c-4.573-7.177-7.399-14.982-9.733-22.031c-4.438-14.203-8.096-21.334-10.599-24.273
		c-2.467-3.011-3.239-2.482-3.239-2.482s-0.769,0.382,0.011,4.009c0.845,3.668,2.506,10.498,7.053,25.009
		c2.368,7.199,5.983,15.784,11.522,23.153c5.429,7.424,12.356,13.769,19.274,18.199c2.481,1.641,4.951,2.923,7.371,4.04
		c-11.374-1.212-22.799-2.271-34.11-2.285c-6.328-1.829-11.677-6.739-15.795-11.611c-4.603-5.312-8.099-11.39-9.719-17.081
		c-1.694-5.655-2.153-10.597-2.477-14.042c-0.23-3.429-0.367-5.473-0.367-5.473s0.146,0.689,0.525,2.474
		c0.393,1.788,0.932,4.723,2.083,9.096c1.209,4.331,2.899,10.25,7.493,16.693c2.276,3.194,5.248,6.69,8.803,10.11
		c3.542,3.308,8.056,6.764,13.231,7.517c-2.854-1.661-6.2-4.74-9.75-9.504c-1.73-2.33-3.7-5.203-5.55-8.113
		c-1.836-2.921-3.497-5.904-4.785-9.055c-3.643-9.577-5.166-17.141-7.961-24.12c-1.333-3.54-2.795-7.101-4.652-11.004
		c-1.879-3.882-4.037-8.27-7.607-12.878c2.964,5.405,3.701,10.28,3.943,14.398c0.212,4.164-0.185,7.666-0.575,11.25
		c-0.386,3.579-0.809,7.206-0.72,11.658c0.135,4.428,0.629,9.826,3.337,16.569c1.878,4.573,4.615,8.329,7.43,11.27
		c2.851,2.953,5.71,5.211,8.72,7.147c4.061,2.628,8.128,4.05,11.6,4.693c-0.229,0.004-0.459-0.006-0.687-0.001
		c-13.215,0.256-25.98,2.587-39.049,3.247c-2.768-0.136-5.562-0.163-8.375-0.114c0.788-1.117,1.577-2.233,2.19-3.336
		c1.955-1.387,4.39-3.712,6.409-7.634c1.964-3.933,3.359-9.293,2.719-15.327c-0.587-5.992-2.993-12.347-6.403-18.414
		c-7.009-12.005-16.084-24.374-25.982-35.957c-4.928-5.767-10.168-11.303-15.268-16.377c-5.032-5.011-9.356-9.914-11.412-15.123
		c-2.152-5.172-2.009-10.159-0.331-13.432c1.727-3.445,4.688-5.526,7.192-6.087c2.618-0.648,4.557,0.133,6.194,1.305
		c1.592,1.154,2.518,2.569,3.081,3.722c1.082,2.372,0.876,3.881,0.941,4.634c0.013,0.781,0.209,0.887,0.209,0.887
		s0.174,0.157,0.816-0.446c0.541-0.564,1.965-2.23,1.473-6.037c-0.301-1.84-1.13-4.165-3.225-6.363
		c-1.046-1.087-2.405-2.163-4.213-2.911c-1.835-0.766-4.062-1.039-6.288-0.731c-4.542,0.598-9.307,3.605-12.222,8.833
		c-3.019,5.403-3.005,12.669-0.24,19.32c2.732,6.812,8.009,12.347,13.239,17.308c5.235,4.934,10.47,10.068,15.571,15.523
		c10.151,10.846,19.895,22.64,27.402,33.766c3.642,5.596,6.273,11.348,7.228,16.89c0.995,5.498,0.087,10.663-1.496,14.552
		c-1.386,3.414-3.346,5.775-5.035,7.325c22.945-43.996-89.589-76.908-87.307-121.634c0.868-1.629,1.816-3.252,2.95-4.873
		c1.419-2.029-0.581-3.93-2.554-3.828c-1.276-1.283-3.925-1.266-4.598,1.026c-0.597,2.034-0.879,4.048-1.025,6.053
		c-3.939,7.759-5.446,15.905-5.947,25.022c-0.535,9.733-1.751,20.308,1.625,29.466c-15.274-9.784-27.92-22.12-33.422-41.52
		c0.049-0.25,0.059-0.488,0.111-0.739c0.699-3.377-4.501-4.75-5.204-1.354c-5.767,27.856,4.822,47.81,24.852,66.653
		c2.598,2.444,5.281,4.439,8.008,6.215c-27.754-4.494-53.116-14.031-60.299-46.641c-0.264-1.197-1.09-1.77-2.006-1.894
		c0.229-3.237-4.735-4.519-5.192-1.163c-3.056,22.47,2.075,45.588,20.455,60.431c12.939,10.449,24.98,11.886,37.425,10.455
		c-16.861,6.818-31.845,9.622-49.772-0.065c-15.836-8.558-28.794-20.455-37.195-36.373c-1.621-3.071-6.281-0.389-4.671,2.663
		c0.409,0.775,0.918,1.524,1.356,2.292c-1.093,0.695-1.73,2.035-0.837,3.451c10.369,16.442,22.62,30.412,37.823,40.239
		c-4.592-1.347-9.191-2.224-13.662-2.069c-9.154,0.316-17.193,4.991-24.288,10.456c-2.131-0.775-4.448,1.408-3.656,3.306
		c-0.792,1.897,1.525,4.08,3.656,3.306c7.096,5.465,15.135,10.14,24.288,10.456c4.47,0.155,9.069-0.722,13.661-2.069
		c-15.202,9.826-27.453,23.797-37.822,40.238c-0.893,1.416-0.256,2.756,0.837,3.451c-0.438,0.768-0.947,1.517-1.356,2.292
		c-1.611,3.052,3.05,5.735,4.671,2.663c8.401-15.919,21.358-27.816,37.195-36.373c17.927-9.687,32.911-6.884,49.772-0.065
		c-12.446-1.431-24.487,0.006-37.425,10.455c-18.38,14.843-23.511,37.962-20.455,60.432c0.456,3.356,5.42,2.074,5.192-1.163
		c0.916-0.124,1.742-0.697,2.006-1.894c7.183-32.611,32.545-42.147,60.299-46.642c-2.727,1.776-5.41,3.771-8.008,6.215
		C101.81,522,91.221,541.954,96.988,569.81c0.703,3.395,5.903,2.023,5.204-1.354c-0.052-0.251-0.062-0.489-0.111-0.739
		c5.502-19.401,18.148-31.736,33.422-41.52c-3.376,9.158-2.161,19.733-1.625,29.466c0.501,9.116,2.008,17.263,5.947,25.022
		c0.146,2.005,0.428,4.02,1.025,6.053c0.673,2.292,3.322,2.309,4.598,1.026c1.973,0.102,3.973-1.799,2.554-3.828
		c-1.133-1.621-2.082-3.243-2.95-4.873c-2.282-44.726,110.251-77.638,87.307-121.634c1.688,1.551,3.648,3.912,5.035,7.325
		c1.582,3.889,2.491,9.054,1.496,14.552c-0.955,5.542-3.586,11.294-7.228,16.889c-7.507,11.126-17.251,22.92-27.402,33.766
		c-5.101,5.455-10.336,10.589-15.571,15.523c-5.23,4.961-10.507,10.496-13.239,17.308c-2.765,6.651-2.779,13.917,0.24,19.32
		c2.915,5.228,7.68,8.235,12.222,8.833c2.226,0.308,4.453,0.035,6.288-0.731c1.809-0.749,3.168-1.824,4.213-2.911
		c2.095-2.199,2.924-4.524,3.225-6.363c0.492-3.807-0.932-5.473-1.473-6.037c-0.642-0.602-0.816-0.446-0.816-0.446
		s-0.197,0.106-0.209,0.887c-0.065,0.753,0.141,2.262-0.941,4.634c-0.563,1.154-1.489,2.568-3.081,3.722
		c-1.637,1.172-3.576,1.953-6.194,1.305c-2.504-0.561-5.465-2.642-7.192-6.087c-1.678-3.273-1.82-8.26,0.331-13.432
		c2.056-5.209,6.38-10.112,11.412-15.123c5.1-5.073,10.34-10.61,15.268-16.377c9.898-11.583,18.973-23.952,25.982-35.957
		c3.41-6.067,5.815-12.422,6.403-18.414c0.639-6.034-0.755-11.394-2.719-15.327c-2.019-3.922-4.454-6.247-6.409-7.634
		c-0.613-1.102-1.401-2.219-2.19-3.336c2.813,0.049,5.607,0.023,8.375-0.114c13.068,0.66,25.834,2.991,39.049,3.247
		c0.228,0.004,0.458-0.005,0.687-0.001c-3.472,0.643-7.538,2.064-11.6,4.693c-3.01,1.936-5.87,4.194-8.72,7.148
		c-2.815,2.941-5.551,6.697-7.43,11.27c-2.708,6.743-3.201,12.141-3.337,16.569c-0.089,4.452,0.335,8.079,0.72,11.658
		c0.389,3.585,0.787,7.087,0.575,11.25c-0.242,4.118-0.979,8.993-3.943,14.398c3.571-4.608,5.728-8.996,7.607-12.878
		c1.857-3.903,3.319-7.464,4.652-11.004c2.795-6.98,4.318-14.543,7.961-24.12c1.288-3.151,2.949-6.134,4.785-9.055
		c1.85-2.91,3.82-5.782,5.55-8.113c3.55-4.764,6.896-7.843,9.75-9.504c-5.176,0.753-9.69,4.209-13.231,7.517
		c-3.554,3.42-6.527,6.916-8.803,10.11c-4.594,6.444-6.284,12.362-7.493,16.693c-1.151,4.373-1.689,7.307-2.083,9.096
		c-0.378,1.785-0.525,2.474-0.525,2.474s0.137-2.044,0.367-5.473c0.324-3.445,0.782-8.387,2.477-14.042
		c1.62-5.691,5.116-11.769,9.719-17.081c4.117-4.872,9.466-9.782,15.795-11.611c11.311-0.014,22.736-1.073,34.11-2.285
		c-2.42,1.117-4.89,2.399-7.371,4.04c-6.919,4.429-13.845,10.775-19.274,18.199c-5.539,7.369-9.154,15.954-11.522,23.153
		c-4.547,14.511-6.208,21.341-7.053,25.009c-0.781,3.628-0.011,4.01-0.011,4.01s0.772,0.528,3.239-2.482
		c2.503-2.939,6.161-10.07,10.599-24.273c2.334-7.049,5.159-14.854,9.733-22.031c4.473-7.205,10.309-13.77,16.392-18.698
		c4.138-3.453,8.372-5.973,12.202-7.672c0.701-0.075,1.399-0.146,2.099-0.22c2.314,0.248,4.623,0.485,6.925,0.712
		c-36.293,16.843-32.028,67.129-53.13,94.413c-9.926,1.438-19.385,5.669-28.032,14.809c-1.375,1.453-0.651,3.305,0.648,4.141
		c0.075,1.543,1.316,3.095,3.262,2.631c12.238-2.919,20.632-8.995,26.84-16.872c34.199-4.635,75.641,24.233,108.383,1.153
		c-0.957,2.113-1.922,4.216-2.867,6.35c-0.426,0.584-0.846,1.169-1.273,1.753c-3.386,2.467-7.685,4.873-12.744,6.731
		c-7.309,2.804-15.913,4.575-24.389,4.846c-8.503,0.372-16.674-1.083-23.946-2.586c-14.519-3.258-22.524-3.655-26.32-2.958
		c-3.84,0.631-3.769,1.564-3.769,1.564s-0.053,0.857,3.478,1.995c3.599,1.102,10.345,3.079,25.185,6.397
		c7.418,1.549,16.66,2.711,25.812,1.598c9.144-0.99,18.103-3.815,25.398-7.593c2.661-1.328,5.007-2.826,7.183-4.363
		c-6.669,9.151-13.232,18.422-18.863,28.104c-4.752,4.721-11.743,7.018-18.123,8.167c-6.902,1.33-13.914,1.319-19.652-0.123
		c-5.745-1.36-10.254-3.434-13.399-4.877c-3.085-1.516-4.923-2.419-4.923-2.419s0.67,0.218,2.405,0.783
		c1.745,0.554,4.556,1.554,8.919,2.744c4.356,1.118,10.326,2.615,18.203,1.857c3.904-0.374,8.418-1.2,13.157-2.568
		c4.636-1.413,9.886-3.594,13.126-7.7c-2.866,1.641-7.205,3-13.106,3.692c-2.883,0.333-6.356,0.602-9.801,0.75
		c-3.448,0.129-6.861,0.076-10.234-0.384c-10.115-1.634-17.427-4.097-24.869-5.166c-3.732-0.616-7.547-1.13-11.856-1.473
		c-4.302-0.314-9.18-0.639-14.957,0.149c6.163,0.136,10.753,1.935,14.441,3.784c3.712,1.898,6.546,3.993,9.456,6.123
		c2.907,2.123,5.836,4.303,9.736,6.453c3.903,2.097,8.824,4.368,16.018,5.395c4.899,0.66,9.52,0.168,13.475-0.799
		c3.983-0.992,7.368-2.34,10.55-3.978c4.307-2.203,7.572-5.014,9.865-7.7c-0.111,0.2-0.235,0.395-0.345,0.595
		c-6.386,11.573-10.751,23.795-16.714,35.444c-1.502,2.328-2.922,4.734-4.285,7.193c-0.573-1.241-1.146-2.482-1.794-3.564
		c-0.223-2.386-1.02-5.658-3.407-9.368c-2.424-3.668-6.369-7.555-11.914-10.019c-5.483-2.487-12.189-3.582-19.148-3.662
		c-13.901,0.067-29.151,1.742-44.13,4.522c-7.458,1.384-14.873,3.154-21.817,5.034c-6.855,1.852-13.264,3.146-18.803,2.321
		c-5.555-0.722-9.803-3.339-11.798-6.429c-2.12-3.218-2.442-6.823-1.675-9.272c0.748-2.591,2.393-3.88,4.227-4.712
		c1.795-0.801,3.483-0.896,4.764-0.807c2.596,0.249,3.799,1.182,4.484,1.502c0.682,0.379,0.873,0.262,0.873,0.262
		s0.222-0.072,0.022-0.93c-0.218-0.75-0.949-2.816-4.492-4.294c-1.744-0.659-4.171-1.103-7.123-0.388
		c-1.465,0.362-3.075,1.001-4.628,2.193c-1.581,1.206-2.931,2.998-3.777,5.08c-1.753,4.232-1.531,9.863,1.539,15.001
		c3.169,5.316,9.47,8.937,16.611,9.868c7.266,1.04,14.698-0.763,21.609-2.812c6.89-2.067,13.955-4.033,21.229-5.723
		c14.469-3.368,29.555-5.909,42.944-6.848c6.667-0.356,12.964,0.242,18.241,2.185c5.259,1.888,9.278,5.257,11.855,8.571
		c2.264,2.908,3.328,5.787,3.827,8.024c-26.629-41.87-111.399,39.131-148.992,14.792c-0.977-1.566-1.908-3.199-2.745-4.991
		c-1.048-2.243-3.693-1.462-4.592,0.298c-1.749,0.464-3.06,2.766-1.411,4.495c1.463,1.534,3.066,2.785,4.729,3.914
		c4.75,7.291,11.052,12.669,18.697,17.661c8.161,5.33,16.711,11.67,26.331,13.325c-16.11,8.335-33.116,13.12-52.669,8.184
		c-0.192-0.167-0.393-0.295-0.584-0.465c-2.575-2.294-6.364,1.523-3.775,3.829c21.24,18.923,43.815,19.729,70.15,11.804
		c3.416-1.028,6.485-2.354,9.386-3.828c-17.769,21.788-38.71,38.985-70.542,28.9c-1.169-0.37-2.078,0.059-2.644,0.79
		c-2.688-1.817-6.281,1.842-3.603,3.915c17.932,13.881,40.518,20.997,62.563,12.501c15.518-5.981,22.784-15.69,27.767-27.183
		c-2.526,18.011-7.589,32.389-24.942,43.071c-15.329,9.436-32.111,14.709-50.098,14.025c-3.471-0.132-3.478,5.245-0.029,5.376
		c0.875,0.033,1.779-0.033,2.663-0.028c0.055,1.294,0.898,2.516,2.57,2.451c19.423-0.759,37.648-4.384,53.759-12.636
		c-3.462,3.304-6.521,6.848-8.623,10.797c-4.303,8.086-4.274,17.385-3.089,26.263c-1.736,1.458-1.005,4.556,1.035,4.818
		c1.247,1.635,4.296,0.719,4.691-1.513c8.28-3.413,16.349-8.037,21.2-15.806c2.369-3.794,3.909-8.216,5.039-12.866
		c0.909,18.079,6.882,35.674,15.936,52.875c0.78,1.481,2.26,1.599,3.408,1c0.447,0.763,0.841,1.579,1.307,2.32
		c1.838,2.921,6.491,0.226,4.642-2.713c-9.586-15.235-13.41-32.405-12.903-50.398c0.574-20.358,10.493-31.932,24.816-43.12
		c-7.455,10.058-12.224,21.202-9.646,37.622c3.665,23.339,21.121,39.342,42.108,47.93c3.134,1.283,4.507-3.658,1.589-5.078
		c0.35-0.855,0.267-1.857-0.638-2.684c-24.65-22.526-20.228-49.259-10.243-75.541c0.175,3.249,0.561,6.57,1.378,10.042
		c6.303,26.769,18.29,45.916,45.297,54.849c3.292,1.089,4.703-4.101,1.429-5.184c-0.243-0.08-0.454-0.191-0.695-0.273
		c-14.051-14.466-18.411-31.585-19.247-49.704c6.243,7.503,16.009,11.738,24.705,16.14c8.146,4.124,15.955,6.892,24.643,7.361
		c1.809,0.876,3.695,1.639,5.755,2.139c2.322,0.563,3.66-1.723,3.188-3.469c1.075-1.658,0.429-4.34-2.038-4.126
		c-1.97,0.171-3.85,0.181-5.695,0.118c-39.875-20.387-12.11-134.3-61.686-136.427c2.186-0.687,5.212-1.204,8.862-0.698
		c4.159,0.574,9.086,2.37,13.35,5.981c4.322,3.598,7.987,8.752,11.013,14.704c5.882,12.064,11.223,26.4,15.541,40.614
		c2.174,7.145,4.003,14.246,5.658,21.247c1.682,7.01,3.836,14.347,8.37,20.12c4.377,5.719,10.663,9.365,16.852,9.452
		c5.985,0.09,10.972-2.533,13.761-6.168c1.38-1.774,2.257-3.838,2.511-5.811c0.256-1.941,0.005-3.655-0.414-5.105
		c-0.857-2.914-2.456-4.794-3.898-5.975c-3.051-2.33-5.206-1.929-5.964-1.743c-0.843,0.255-0.794,0.483-0.794,0.483
		s-0.006,0.223,0.663,0.625c0.62,0.432,2.029,1.008,3.543,3.131c0.718,1.064,1.479,2.574,1.683,4.529
		c0.197,2.004-0.096,4.073-1.967,6.016c-1.738,1.888-5.02,3.412-8.867,3.185c-3.673-0.183-8.063-2.554-11.466-7.003
		c-3.483-4.385-5.567-10.581-7.391-17.444c-1.844-6.954-4.018-14.26-6.549-21.411c-5.082-14.363-11.257-28.407-18.149-40.479
		c-3.549-5.987-7.85-11.247-12.745-14.752c-4.906-3.571-10.245-5.043-14.634-5.309c-4.406-0.212-7.637,0.734-9.816,1.734
		c-1.261-0.02-2.623,0.104-3.984,0.228c1.449-2.41,2.822-4.842,4.087-7.307c7.106-10.988,15.508-20.879,22.338-32.197
		c0.129-0.214,0.234-0.445,0.362-0.659c-1.191,3.336-2.003,7.595-1.756,12.455c0.172,3.575,0.698,7.181,1.83,11.126
		c1.14,3.908,3.024,8.156,6.045,12.069c4.486,5.716,8.914,8.843,12.68,11.174c3.812,2.303,7.164,3.75,10.456,5.205
		c3.299,1.455,6.531,2.862,10.031,5.127c3.445,2.269,7.298,5.344,10.497,10.614c-2.206-5.396-4.926-9.459-7.349-13.027
		c-2.451-3.56-4.804-6.607-7.203-9.531c-4.647-5.91-10.436-11.012-16.908-18.955c-2.085-2.692-3.837-5.621-5.449-8.671
		c-1.595-3.057-3.098-6.2-4.251-8.863c-2.351-5.456-3.345-9.894-3.356-13.196c-1.936,4.859-1.2,10.497-0.106,15.218
		c1.185,4.788,2.727,9.11,4.355,12.679c3.283,7.201,7.564,11.623,10.71,14.836c3.212,3.183,5.484,5.117,6.836,6.352
		c1.356,1.22,1.88,1.691,1.88,1.691s-1.702-1.141-4.556-3.054c-2.822-2.003-6.872-4.871-10.923-9.166
		c-4.118-4.249-7.634-10.315-9.933-16.958c-2.19-6.083-3.78-13.282-2.089-19.745c5.598-9.755,10.403-20.082,15.013-30.477
		c-0.247,2.67-0.374,5.469-0.192,8.459c0.376,8.207,2.409,17.378,6.123,25.792c3.612,8.482,9.239,15.905,14.29,21.555
		c10.294,11.193,15.378,16.047,18.133,18.613c2.751,2.49,3.467,2.015,3.467,2.015s0.844-0.405-0.53-4.046
		c-1.294-3.637-5.641-10.371-15.721-21.315c-4.938-5.546-10.284-11.895-14.213-19.445c-4.003-7.476-6.771-15.813-7.997-23.545
		c-0.921-5.311-0.987-10.237-0.543-14.403c0.293-0.663,0.597-1.31,0.891-1.972c1.361-1.866,2.71-3.732,4.047-5.597
		c-3.56,39.852,42.121,61.301,55.2,93.218c-3.717,9.315-4.782,19.622-1.191,31.681c0.571,1.917,2.536,2.216,3.91,1.509
		c1.374,0.707,3.339,0.408,3.91-1.509c3.591-12.058,2.526-22.365-1.191-31.681c13.078-31.917,58.76-53.365,55.2-93.218
		c1.337,1.866,2.686,3.732,4.047,5.597c0.294,0.662,0.597,1.308,0.891,1.971c0.444,4.166,0.378,9.093-0.543,14.404
		c-1.227,7.731-3.994,16.069-7.997,23.545c-3.929,7.55-9.275,13.899-14.213,19.445c-10.081,10.944-14.428,17.678-15.721,21.315
		c-1.374,3.642-0.53,4.046-0.53,4.046s0.716,0.475,3.467-2.015c2.754-2.565,7.839-7.42,18.132-18.613
		c5.05-5.65,10.678-13.073,14.29-21.555c3.714-8.414,5.747-17.585,6.124-25.792c0.181-2.99,0.055-5.788-0.192-8.459
		c4.61,10.395,9.414,20.721,15.012,30.476c1.691,6.463,0.102,13.662-2.089,19.746c-2.299,6.642-5.815,12.709-9.933,16.958
		c-4.05,4.295-8.101,7.162-10.923,9.166c-2.854,1.914-4.556,3.054-4.556,3.054s0.524-0.471,1.88-1.691
		c1.352-1.235,3.624-3.169,6.836-6.352c3.146-3.213,7.427-7.635,10.71-14.836c1.628-3.568,3.169-7.89,4.354-12.679
		c1.095-4.721,1.83-10.359-0.105-15.218c-0.011,3.303-1.005,7.74-3.356,13.196c-1.153,2.663-2.656,5.806-4.251,8.863
		c-1.612,3.051-3.364,5.98-5.449,8.671c-6.473,7.943-12.262,13.044-16.909,18.955c-2.399,2.924-4.752,5.971-7.203,9.531
		c-2.422,3.568-5.144,7.631-7.349,13.027c3.2-5.27,7.053-8.345,10.498-10.614c3.5-2.266,6.731-3.672,10.03-5.127
		c3.293-1.456,6.645-2.902,10.456-5.205c3.767-2.331,8.195-5.458,12.681-11.174c3.021-3.913,4.905-8.161,6.045-12.069
		c1.132-3.945,1.658-7.551,1.83-11.126c0.247-4.861-0.564-9.119-1.756-12.455c0.128,0.214,0.233,0.445,0.362,0.659
		c6.829,11.317,15.232,21.208,22.338,32.197c1.265,2.465,2.639,4.897,4.087,7.307c-1.361-0.124-2.722-0.248-3.983-0.228
		c-2.179-0.999-5.409-1.946-9.816-1.734c-4.388,0.265-9.727,1.738-14.633,5.309c-4.896,3.505-9.196,8.765-12.745,14.752
		c-6.892,12.073-13.067,26.116-18.149,40.479c-2.531,7.151-4.705,14.457-6.549,21.411c-1.824,6.863-3.908,13.059-7.391,17.444
		c-3.403,4.449-7.793,6.82-11.466,7.003c-3.847,0.227-7.129-1.297-8.867-3.185c-1.87-1.943-2.163-4.012-1.966-6.016
		c0.203-1.956,0.965-3.465,1.683-4.529c1.514-2.123,2.923-2.699,3.543-3.131c0.669-0.402,0.663-0.625,0.663-0.625
		s0.049-0.228-0.794-0.483c-0.759-0.187-2.913-0.587-5.965,1.743c-1.442,1.181-3.042,3.061-3.898,5.975
		c-0.419,1.449-0.671,3.164-0.414,5.105c0.254,1.973,1.131,4.037,2.511,5.811c2.789,3.634,7.776,6.257,13.761,6.168
		c6.189-0.087,12.474-3.732,16.852-9.452c4.533-5.773,6.688-13.11,8.37-20.12c1.656-7.001,3.485-14.102,5.658-21.247
		c4.318-14.214,9.66-28.55,15.541-40.614c3.025-5.952,6.691-11.106,11.013-14.704c4.264-3.611,9.191-5.406,13.35-5.981
		c3.65-0.507,6.675,0.01,8.862,0.698c-49.575,2.127-21.81,116.041-61.685,136.427c-1.845,0.063-3.725,0.053-5.695-0.118
		c-2.467-0.214-3.113,2.468-2.038,4.126c-0.473,1.747,0.866,4.033,3.188,3.469c2.06-0.5,3.945-1.263,5.755-2.139
		c8.688-0.468,16.498-3.237,24.643-7.361c8.696-4.403,18.462-8.637,24.705-16.14c-0.836,18.119-5.196,35.239-19.247,49.704
		c-0.241,0.083-0.452,0.193-0.695,0.273c-3.274,1.083-1.863,6.272,1.429,5.184c27.007-8.933,38.993-28.081,45.297-54.849
		c0.818-3.472,1.203-6.793,1.378-10.043c9.984,26.283,14.408,53.016-10.243,75.542c-0.905,0.827-0.988,1.829-0.638,2.684
		c-2.918,1.42-1.545,6.36,1.589,5.078c20.987-8.589,38.443-24.591,42.108-47.93c2.579-16.421-2.191-27.565-9.646-37.623
		c14.324,11.188,24.243,22.761,24.817,43.12c0.507,17.993-3.317,35.164-12.903,50.398c-1.85,2.94,2.804,5.634,4.642,2.713
		c0.467-0.741,0.861-1.557,1.307-2.32c1.148,0.599,2.628,0.481,3.407-1c9.054-17.201,15.027-34.797,15.936-52.875
		c1.13,4.651,2.67,9.072,5.039,12.867c4.851,7.769,12.919,12.393,21.2,15.806c0.395,2.233,3.443,3.148,4.691,1.513
		c2.04-0.262,2.771-3.36,1.035-4.818c1.184-8.877,1.214-18.177-3.089-26.263c-2.102-3.949-5.16-7.493-8.623-10.797
		c16.111,8.252,34.336,11.877,53.759,12.636c1.673,0.065,2.514-1.157,2.57-2.451c0.884-0.005,1.788,0.061,2.663,0.028
		c3.448-0.131,3.441-5.508-0.029-5.376c-17.986,0.684-34.769-4.589-50.098-14.025c-17.353-10.681-22.416-25.059-24.942-43.07
		c4.983,11.493,12.248,21.202,27.766,27.182c22.045,8.496,44.631,1.38,62.563-12.501c2.678-2.073-0.914-5.732-3.603-3.915
		c-0.566-0.731-1.474-1.16-2.643-0.79c-31.833,10.085-52.773-7.112-70.543-28.9c2.902,1.473,5.97,2.8,9.386,3.828
		c26.334,7.925,48.91,7.119,70.15-11.804c2.589-2.307-1.2-6.123-3.774-3.829c-0.191,0.17-0.392,0.298-0.584,0.465
		c-19.553,4.936-36.559,0.152-52.669-8.184c9.619-1.655,18.17-7.995,26.331-13.325c7.644-4.992,13.947-10.37,18.696-17.661
		c1.664-1.129,3.267-2.381,4.73-3.915c1.649-1.729,0.338-4.031-1.411-4.495c-0.898-1.76-3.544-2.541-4.591-0.298
		c-0.837,1.792-1.768,3.425-2.745,4.991c-37.593,24.339-122.362-56.661-148.992-14.793c0.498-2.237,1.563-5.115,3.827-8.023
		c2.577-3.315,6.595-6.684,11.855-8.571c5.277-1.944,11.573-2.541,18.241-2.185c13.389,0.939,28.475,3.48,42.944,6.848
		c7.274,1.69,14.338,3.656,21.229,5.723c6.911,2.049,14.343,3.851,21.609,2.812c7.142-0.931,13.442-4.552,16.612-9.868
		c3.07-5.138,3.292-10.769,1.539-15.001c-0.846-2.082-2.196-3.874-3.777-5.08c-1.553-1.192-3.163-1.831-4.628-2.193
		c-2.952-0.715-5.379-0.27-7.123,0.388c-3.543,1.477-4.274,3.544-4.492,4.294c-0.2,0.858,0.022,0.93,0.022,0.93
		s0.19,0.117,0.872-0.262c0.685-0.321,1.888-1.253,4.484-1.502c1.281-0.089,2.969,0.006,4.764,0.807
		c1.834,0.832,3.479,2.12,4.227,4.712c0.766,2.449,0.445,6.054-1.675,9.272c-1.995,3.09-6.243,5.706-11.798,6.429
		c-5.539,0.825-11.948-0.469-18.803-2.321c-6.944-1.88-14.359-3.65-21.817-5.034c-14.98-2.78-30.229-4.455-44.131-4.522
		c-6.959,0.08-13.665,1.175-19.148,3.662c-5.545,2.463-9.49,6.351-11.914,10.019c-2.387,3.71-3.183,6.981-3.407,9.367
		c-0.648,1.082-1.221,2.324-1.794,3.565c-1.363-2.46-2.783-4.865-4.284-7.193c-5.963-11.648-10.328-23.87-16.714-35.444
		c-0.111-0.2-0.234-0.395-0.345-0.595c2.292,2.686,5.557,5.497,9.864,7.7c3.182,1.639,6.567,2.986,10.55,3.978
		c3.955,0.967,8.576,1.459,13.475,0.799c7.193-1.027,12.115-3.298,16.018-5.395c3.9-2.15,6.829-4.329,9.736-6.453
		c2.91-2.13,5.744-4.225,9.456-6.123c3.687-1.849,8.277-3.648,14.441-3.784c-5.776-0.788-10.655-0.463-14.957-0.149
		c-4.308,0.343-8.124,0.858-11.856,1.473c-7.442,1.069-14.754,3.532-24.87,5.166c-3.374,0.46-6.786,0.513-10.234,0.384
		c-3.445-0.148-6.918-0.417-9.801-0.75c-5.901-0.692-10.24-2.05-13.106-3.692c3.24,4.106,8.49,6.287,13.126,7.7
		c4.739,1.368,9.253,2.194,13.157,2.568c7.878,0.757,13.848-0.739,18.203-1.857c4.363-1.19,7.173-2.19,8.919-2.744
		c1.735-0.565,2.405-0.783,2.405-0.783s-1.839,0.903-4.923,2.419c-3.146,1.442-7.654,3.516-13.399,4.877
		c-5.739,1.442-12.75,1.454-19.652,0.123c-6.38-1.148-13.37-3.445-18.123-8.166c-5.63-9.682-12.195-18.953-18.863-28.105
		c2.177,1.537,4.522,3.035,7.183,4.363c7.296,3.777,16.255,6.602,25.398,7.593c9.151,1.113,18.394-0.049,25.812-1.598
		c14.84-3.318,21.587-5.294,25.185-6.397c3.532-1.138,3.478-1.995,3.478-1.995s0.072-0.933-3.769-1.564
		c-3.796-0.698-11.802-0.301-26.32,2.958c-7.272,1.503-15.443,2.959-23.946,2.586c-8.476-0.271-17.08-2.043-24.389-4.846
		c-5.06-1.858-9.359-4.264-12.745-6.731c-0.427-0.585-0.848-1.169-1.273-1.753c-0.945-2.134-1.91-4.237-2.867-6.35
		c32.742,23.081,74.184-5.787,108.383-1.153c6.209,7.877,14.603,13.953,26.841,16.872c1.945,0.464,3.187-1.088,3.261-2.631
		c1.299-0.836,2.023-2.688,0.648-4.141c-8.647-9.139-18.106-13.37-28.032-14.809c-21.102-27.285-16.836-77.57-53.13-94.413
		c2.302-0.227,4.61-0.464,6.925-0.712c0.701,0.074,1.398,0.145,2.099,0.22c3.83,1.699,8.063,4.218,12.202,7.672
		c6.082,4.928,11.919,11.493,16.392,18.698c4.574,7.177,7.399,14.982,9.733,22.031c4.438,14.203,8.096,21.334,10.599,24.273
		c2.467,3.01,3.239,2.482,3.239,2.482s0.769-0.382-0.011-4.01c-0.845-3.668-2.506-10.498-7.053-25.009
		c-2.367-7.199-5.982-15.784-11.522-23.153c-5.43-7.424-12.356-13.769-19.275-18.199c-2.481-1.641-4.951-2.923-7.371-4.04
		c11.373,1.212,22.799,2.271,34.11,2.285c6.329,1.829,11.677,6.739,15.794,11.611c4.603,5.312,8.099,11.39,9.719,17.081
		c1.694,5.656,2.152,10.597,2.476,14.042c0.23,3.429,0.367,5.473,0.367,5.473s-0.146-0.689-0.525-2.474
		c-0.393-1.788-0.932-4.723-2.083-9.096c-1.209-4.331-2.898-10.25-7.493-16.693c-2.276-3.194-5.248-6.69-8.803-10.11
		c-3.541-3.308-8.056-6.764-13.231-7.517c2.854,1.661,6.201,4.74,9.751,9.504c1.73,2.331,3.7,5.203,5.55,8.113
		c1.836,2.921,3.496,5.904,4.785,9.055c3.643,9.577,5.166,17.141,7.961,24.12c1.333,3.54,2.795,7.101,4.652,11.004
		c1.879,3.882,4.037,8.27,7.607,12.878c-2.964-5.406-3.7-10.28-3.943-14.398c-0.212-4.164,0.185-7.665,0.575-11.25
		c0.386-3.579,0.809-7.206,0.721-11.658c-0.136-4.428-0.63-9.826-3.337-16.569c-1.878-4.573-4.615-8.329-7.43-11.27
		c-2.851-2.954-5.711-5.211-8.721-7.148c-4.061-2.628-8.127-4.05-11.599-4.693c0.228-0.004,0.458,0.006,0.687,0.001
		c13.215-0.256,25.981-2.587,39.049-3.247c2.768,0.137,5.562,0.163,8.375,0.114c-0.788,1.117-1.577,2.233-2.19,3.336
		c-1.955,1.387-4.39,3.712-6.409,7.634c-1.965,3.933-3.359,9.293-2.72,15.327c0.588,5.992,2.993,12.347,6.403,18.414
		c7.009,12.005,16.084,24.374,25.981,35.957c4.928,5.767,10.168,11.303,15.269,16.377c5.031,5.011,9.356,9.914,11.411,15.123
		c2.152,5.172,2.01,10.159,0.332,13.432c-1.727,3.445-4.688,5.526-7.192,6.087c-2.618,0.648-4.556-0.133-6.194-1.305
		c-1.592-1.154-2.518-2.568-3.081-3.722c-1.082-2.372-0.876-3.881-0.941-4.634c-0.013-0.781-0.21-0.887-0.21-0.887
		s-0.173-0.157-0.816,0.446c-0.541,0.564-1.965,2.23-1.473,6.037c0.302,1.839,1.13,4.164,3.226,6.363
		c1.045,1.087,2.404,2.163,4.214,2.911c1.835,0.766,4.062,1.039,6.288,0.731c4.542-0.598,9.307-3.606,12.222-8.833
		c3.019-5.403,3.004-12.669,0.24-19.32c-2.732-6.812-8.009-12.347-13.239-17.308c-5.235-4.934-10.47-10.068-15.571-15.523
		c-10.151-10.846-19.895-22.64-27.402-33.766c-3.642-5.596-6.273-11.348-7.228-16.889c-0.995-5.499-0.087-10.663,1.495-14.552
		c1.387-3.414,3.347-5.776,5.035-7.326c-22.945,43.997,89.589,76.908,87.306,121.635c-0.868,1.629-1.816,3.252-2.95,4.872
		c-1.419,2.029,0.58,3.929,2.554,3.828c1.277,1.283,3.925,1.266,4.598-1.026c0.597-2.034,0.879-4.048,1.025-6.053
		c3.939-7.759,5.446-15.906,5.947-25.022c0.535-9.732,1.751-20.308-1.625-29.466c15.274,9.784,27.919,22.12,33.421,41.521
		c-0.049,0.25-0.059,0.488-0.111,0.738c-0.699,3.377,4.501,4.75,5.204,1.354c5.767-27.856-4.822-47.81-24.853-66.653
		c-2.598-2.444-5.281-4.439-8.008-6.215c27.754,4.495,53.116,14.031,60.299,46.642c0.264,1.197,1.09,1.77,2.005,1.894
		c-0.229,3.237,4.736,4.518,5.192,1.163c3.056-22.47-2.075-45.588-20.455-60.432c-12.938-10.449-24.98-11.886-37.425-10.455
		c16.861-6.818,31.845-9.622,49.771,0.065c15.836,8.558,28.794,20.455,37.195,36.373c1.621,3.071,6.281,0.389,4.671-2.663
		c-0.409-0.775-0.918-1.524-1.356-2.292c1.093-0.695,1.73-2.035,0.837-3.451c-10.369-16.441-22.62-30.412-37.822-40.238
		c4.592,1.347,9.191,2.224,13.661,2.069c9.154-0.316,17.193-4.991,24.289-10.456c2.131,0.775,4.448-1.408,3.656-3.306
		C875.805,449.957,873.487,447.774,871.356,448.549z M680.582,455.004c-0.267-0.785-0.571-1.535-0.814-2.344
		c-0.097-0.324-0.262-0.569-0.43-0.806c0.168-0.237,0.333-0.481,0.43-0.805c0.243-0.81,0.546-1.559,0.814-2.344
		c30.157-43.902,79.64-28.76,113.418,1.336c0.653,0.582,1.384,0.764,2.071,0.683c-0.002,0.384,0.084,0.762,0.231,1.131
		c-0.147,0.369-0.233,0.747-0.231,1.131c-0.687-0.081-1.418,0.101-2.071,0.683C760.222,483.764,710.738,498.906,680.582,455.004z
		 M823.116,437.226c5.977-2.154,11.764-5.237,17.265-8.884c-11.619,9.821-25.248,16.829-41.798,19.985
		c0.107-0.714-0.084-1.47-0.808-2.116c-4.509-4.017-9.263-7.754-14.189-11.142C796.366,439.744,809.394,442.17,823.116,437.226z
		 M769.614,426.702c-0.499-0.257-0.997-0.52-1.498-0.769c0.573,0.118,1.142,0.229,1.712,0.343
		C769.74,426.414,769.679,426.555,769.614,426.702z M833.38,370.393c-0.76,24.59-14.21,47.75-40.765,52.64
		c-16.188,2.981-31.115-4.323-46.921-6.637c2.706-0.571,5.387-1.228,8.034-2.013C787.32,410.483,821.183,404.115,833.38,370.393z
		 M799.451,348.037c0.186,33.817-28.017,57.478-60.41,62.962c-15.331,2.595-28.025,4.684-41.095,10.944
		c16.9-16.036,41.046-24.884,62.304-36.699c0.021-0.011,0.042-0.022,0.063-0.034C776.626,376.135,791.214,365.29,799.451,348.037z
		 M759.125,334.491c1.113,4.27,1.697,8.733,1.964,13.586c0.618,11.24,2.599,24.188-4.579,33.687
		c-0.257,0.34-0.408,0.679-0.476,1.006c-30.586,17.067-67.596,27.986-80.283,63.499c-0.174,0.255-0.355,0.486-0.527,0.744
		c-0.127,0.19-0.155,0.373-0.227,0.56C649.336,413.105,745.847,376.889,759.125,334.491z M629.279,348.447
		c3.823-3.264,8.277-5.962,13.624-7.866C638.58,344.259,634.017,346.768,629.279,348.447z M620.515,153.183
		c0.831-0.275,1.354-0.816,1.627-1.452c0.331,0.194,0.702,0.308,1.095,0.365c0.246,0.312,0.531,0.575,0.864,0.765
		c-0.413,0.554-0.621,1.279-0.444,2.135c9.18,44.325-2.492,94.753-55.666,98.869c-0.776-0.155-1.539-0.26-2.324-0.446
		c-0.33-0.078-0.623-0.057-0.912-0.03c-0.121-0.264-0.25-0.529-0.483-0.776c-0.58-0.615-1.077-1.253-1.624-1.877
		C539.707,202.671,577.562,167.388,620.515,153.183z M664.041,221.604c11.815-1.467,22.038,6.722,31.463,12.877
		c4.069,2.658,7.642,5.395,10.784,8.494c-43.357-9.699-122.976,55.773-139.996,16.318c0.198,0.031,0.37,0.098,0.598,0.083
		c0.288-0.019,0.538-0.08,0.824-0.101c37.141,6.825,65.122-19.792,95.218-37.761C663.25,221.618,663.618,221.657,664.041,221.604z
		 M714.721,201.279c-19.06-1.494-35.746,5.718-51.761,15.308c-0.022,0.012-0.042,0.025-0.063,0.038
		c-20.861,12.502-40.596,28.988-62.934,35.606c11.956-8.189,20.112-18.137,30.026-30.117
		C650.934,196.802,685.527,184.209,714.721,201.279z M646.353,169.701c17.513-20.553,44.295-20.62,65.971-8.983
		c-35.303-6.299-57.75,19.844-77.924,46.986c-2.003,1.9-3.913,3.893-5.76,5.95C634.539,198.809,635.677,182.229,646.353,169.701z
		 M631.579,189.506c0.036-0.572,0.025-1.155,0.053-1.728c0.174,0.021,0.341,0.044,0.52,0.035
		C631.96,188.377,631.767,188.937,631.579,189.506z M649.312,136.189c-11.151,9.419-15.562,21.926-17.902,35.343
		c-0.471-5.97-1.324-11.966-2.55-17.889c-0.197-0.951-0.756-1.494-1.429-1.758c11.009-12.755,23.893-21.054,38.207-26.206
		C659.729,128.62,654.166,132.09,649.312,136.189z M637.974,112.308c3.073-10.975,10.913-17.044,20.528-21.294
		c1.128,10.451-0.208,20.276-8.177,28.424c-4.929,5.041-10.656,9.502-16.284,13.944
		C635.074,126.287,636.074,119.097,637.974,112.308z M623.975,121.561c1.123-6.252,1.347-12.805,0.939-19.392
		c2.695,14.972,1.95,30.278-3.592,46.189c-0.565-0.45-1.315-0.662-2.237-0.358c-5.736,1.897-11.35,4.147-16.749,6.719
		C612.778,145.988,621.396,135.918,623.975,121.561z M588.11,162.633c-0.472,0.304-0.949,0.603-1.415,0.913
		c0.389-0.438,0.769-0.874,1.153-1.311C587.923,162.38,588.015,162.503,588.11,162.633z M571.227,79.255
		c20.916,12.953,34.249,36.181,25.206,61.625c-5.512,15.51-19.301,24.785-29.208,37.316c0.859-2.629,1.63-5.28,2.274-7.965
		C582.917,139.188,594.333,106.678,571.227,79.255z M559.224,181.258c-5.418,14.575-9.955,26.612-11.07,41.061
		c-5.438-22.654-1.028-47.988-0.631-72.306c0-0.025,0.002-0.048,0.002-0.073c0.299-18.664-1.799-36.721-12.623-52.481
		C564.282,114.208,570.671,150.463,559.224,181.258z M503.008,125.611c4.255,1.171,8.411,2.897,12.747,5.092
		c10.043,5.085,22.247,9.844,26.884,20.81c0.166,0.393,0.384,0.693,0.633,0.916c-0.513,35.021-9.561,72.532,14.85,101.276
		c0.134,0.278,0.243,0.551,0.381,0.829c0.101,0.205,0.246,0.321,0.371,0.476C516.195,259.998,533.086,158.31,503.008,125.611z
		 M534.98,301.143c4.128-6.803,8.776-13.054,13.367-19.334c-3.143,7.116-6.232,14.267-10.06,21.244
		c-5.399,9.84-11.933,19.221-18.629,28.46C524.311,321.092,529.157,310.741,534.98,301.143z M450.172,229.307
		c1.024,5.583,0.915,10.789,0,15.731C449.256,240.096,449.148,234.89,450.172,229.307z M276.686,154.997
		c0.177-0.857-0.03-1.581-0.444-2.135c0.333-0.19,0.617-0.453,0.864-0.765c0.393-0.057,0.764-0.171,1.095-0.365
		c0.273,0.635,0.797,1.177,1.627,1.452c42.952,14.205,80.809,49.488,57.866,97.556c-0.546,0.624-1.043,1.261-1.623,1.876
		c-0.233,0.247-0.361,0.512-0.483,0.776c-0.289-0.027-0.583-0.048-0.913,0.03c-0.784,0.186-1.548,0.29-2.324,0.446
		C279.178,249.75,267.507,199.322,276.686,154.997z M384.587,130.703c4.336-2.195,8.493-3.921,12.748-5.092
		c-30.078,32.698-13.187,134.387-55.867,129.399c0.126-0.156,0.27-0.271,0.371-0.476c0.138-0.279,0.247-0.551,0.381-0.829
		c24.41-28.744,15.363-66.255,14.85-101.277c0.249-0.223,0.467-0.523,0.633-0.915C362.34,140.547,374.544,135.788,384.587,130.703z
		 M365.44,97.461c-10.823,15.76-12.921,33.816-12.623,52.481c0,0.025,0.001,0.048,0.002,0.073
		c0.397,24.317,4.807,49.651-0.631,72.306c-1.114-14.449-5.652-26.486-11.069-41.061C329.671,150.463,336.061,114.208,365.44,97.461
		z M329.116,79.255c-23.106,27.424-11.691,59.934,1.728,90.976c0.644,2.685,1.415,5.336,2.274,7.965
		c-9.907-12.531-23.696-21.806-29.208-37.316C294.867,115.436,308.2,92.208,329.116,79.255z M313.647,163.546
		c-0.466-0.31-0.943-0.608-1.415-0.912c0.095-0.13,0.187-0.253,0.262-0.399C312.878,162.672,313.258,163.108,313.647,163.546z
		 M275.429,102.169c-0.408,6.587-0.184,13.14,0.939,19.392c2.58,14.357,11.198,24.427,21.639,33.158
		c-5.399-2.573-11.014-4.823-16.749-6.72c-0.922-0.305-1.672-0.092-2.237,0.358C273.479,132.447,272.734,117.141,275.429,102.169z
		 M241.84,91.014c9.615,4.249,17.455,10.318,20.528,21.294c1.901,6.789,2.901,13.979,3.933,21.075
		c-5.629-4.442-11.355-8.903-16.284-13.944C242.049,111.29,240.713,101.466,241.84,91.014z M251.031,136.189
		c-4.853-4.099-10.416-7.569-16.325-10.509c14.314,5.152,27.197,13.451,38.206,26.205c-0.672,0.264-1.232,0.807-1.429,1.758
		c-1.227,5.924-2.079,11.919-2.55,17.889C266.592,158.115,262.182,145.608,251.031,136.189z M268.711,187.778
		c0.028,0.574,0.016,1.157,0.053,1.729c-0.189-0.569-0.382-1.13-0.573-1.694C268.37,187.822,268.537,187.799,268.711,187.778z
		 M188.018,160.717c21.676-11.637,48.458-11.569,65.972,8.983c10.676,12.529,11.814,29.108,17.713,43.953
		c-1.847-2.058-3.757-4.05-5.76-5.951C245.768,180.561,223.321,154.418,188.018,160.717z M185.622,201.278
		c29.194-17.07,63.786-4.476,84.732,20.836c9.913,11.98,18.069,21.928,30.026,30.117c-22.337-6.618-42.072-23.103-62.933-35.606
		c-0.022-0.013-0.042-0.027-0.065-0.039C221.368,206.996,204.682,199.785,185.622,201.278z M194.054,242.975
		c3.142-3.099,6.715-5.836,10.784-8.494c9.425-6.155,19.648-14.344,31.463-12.877c0.423,0.053,0.792,0.014,1.11-0.09
		c30.096,17.969,58.077,44.585,95.218,37.761c0.286,0.021,0.535,0.082,0.824,0.101c0.228,0.015,0.4-0.052,0.598-0.083
		C317.03,298.748,237.411,233.276,194.054,242.975z M351.995,281.808c4.591,6.281,9.24,12.532,13.368,19.335
		c5.823,9.597,10.669,19.949,15.322,30.368c-6.697-9.238-13.23-18.619-18.629-28.459
		C358.228,296.076,355.138,288.924,351.995,281.808z M271.063,348.447c-4.738-1.679-9.302-4.188-13.625-7.866
		C262.786,342.485,267.241,345.182,271.063,348.447z M106.343,453.669c-0.653-0.582-1.384-0.764-2.071-0.683
		c0.002-0.384-0.084-0.762-0.231-1.131c0.147-0.369,0.233-0.747,0.231-1.131c0.687,0.081,1.418-0.101,2.071-0.683
		c33.778-30.096,83.262-45.238,113.418-1.336c0.267,0.785,0.571,1.535,0.814,2.344c0.097,0.324,0.262,0.569,0.43,0.805
		c-0.168,0.237-0.333,0.481-0.43,0.806c-0.243,0.81-0.546,1.559-0.814,2.344C189.605,498.906,140.121,483.764,106.343,453.669z
		 M143.833,381.763c-7.178-9.499-5.198-22.447-4.58-33.687c0.267-4.853,0.851-9.315,1.964-13.586
		c13.279,42.398,109.789,78.615,84.129,113.081c-0.072-0.187-0.1-0.369-0.227-0.559c-0.173-0.259-0.354-0.49-0.528-0.745
		c-12.687-35.512-49.697-46.432-80.283-63.499C144.241,382.442,144.091,382.103,143.833,381.763z M100.892,348.038
		c8.237,17.253,22.826,28.098,39.139,37.171c0.021,0.012,0.041,0.023,0.063,0.034c21.257,11.815,45.403,20.663,62.304,36.699
		c-13.07-6.26-25.764-8.349-41.095-10.944C128.909,405.515,100.707,381.854,100.892,348.038z M107.728,423.034
		c-26.556-4.891-40.005-28.051-40.765-52.641c12.196,33.722,46.059,40.091,79.652,43.991c2.648,0.784,5.328,1.442,8.035,2.013
		C138.844,418.71,123.916,426.015,107.728,423.034z M132.226,425.934c-0.501,0.249-0.999,0.512-1.498,0.769
		c-0.065-0.147-0.126-0.288-0.215-0.426C131.084,426.162,131.653,426.052,132.226,425.934z M77.227,437.226
		c13.722,4.944,26.75,2.518,39.531-2.157c-4.925,3.388-9.68,7.125-14.189,11.142c-0.725,0.646-0.916,1.402-0.808,2.116
		c-16.55-3.156-30.179-10.164-41.797-19.984C65.464,431.99,71.25,435.073,77.227,437.226z M33.509,451.855
		c8.487-6.202,17.663-9.958,28.705-7.131c6.83,1.748,13.557,4.477,20.218,7.131c-6.661,2.654-13.388,5.383-20.218,7.131
		C51.173,461.812,41.997,458.057,33.509,451.855z M77.227,466.483c-5.976,2.153-11.763,5.236-17.264,8.883
		c11.618-9.82,25.247-16.828,41.797-19.984c-0.107,0.714,0.084,1.47,0.808,2.116c4.509,4.017,9.264,7.754,14.189,11.142
		C103.977,463.965,90.948,461.539,77.227,466.483z M130.729,477.007c0.499,0.257,0.997,0.52,1.498,0.769
		c-0.574-0.118-1.142-0.228-1.712-0.343C130.603,477.295,130.664,477.154,130.729,477.007z M66.963,533.317
		c0.76-24.59,14.21-47.751,40.765-52.641c16.188-2.981,31.116,4.323,46.921,6.637c-2.706,0.571-5.387,1.229-8.035,2.013
		C113.022,493.226,79.159,499.595,66.963,533.317z M100.892,555.672c-0.185-33.817,28.017-57.478,60.41-62.961
		c15.331-2.595,28.025-4.684,41.095-10.944c-16.9,16.036-41.046,24.884-62.304,36.699c-0.021,0.011-0.042,0.022-0.063,0.034
		C123.717,527.574,109.129,538.419,100.892,555.672z M141.218,569.219c-1.113-4.27-1.697-8.733-1.964-13.586
		c-0.618-11.24-2.598-24.188,4.58-33.687c0.257-0.34,0.408-0.679,0.476-1.006c30.586-17.066,67.595-27.986,80.283-63.499
		c0.174-0.255,0.355-0.486,0.528-0.745c0.127-0.19,0.155-0.373,0.227-0.559C251.006,490.604,154.497,526.821,141.218,569.219z
		 M253.818,451.855c7.735-0.836,15.473-1.736,23.429-1.909c11.239-0.245,22.648,0.726,34.014,1.909
		c-11.366,1.183-22.775,2.154-34.014,1.91C269.291,453.591,261.553,452.691,253.818,451.855z M257.438,563.129
		c4.323-3.679,8.887-6.188,13.625-7.866C267.241,558.527,262.786,561.225,257.438,563.129z M279.828,750.526
		c-0.831,0.275-1.354,0.816-1.627,1.452c-0.331-0.194-0.702-0.308-1.095-0.365c-0.246-0.312-0.531-0.576-0.864-0.765
		c0.413-0.554,0.621-1.279,0.444-2.135c-9.179-44.324,2.492-94.752,55.664-98.869c0.777,0.155,1.54,0.26,2.325,0.446
		c0.33,0.078,0.624,0.057,0.913,0.03c0.121,0.264,0.25,0.529,0.482,0.775c0.58,0.615,1.077,1.252,1.623,1.876
		C360.637,701.038,322.78,736.321,279.828,750.526z M236.301,682.105c-11.815,1.467-22.038-6.722-31.463-12.877
		c-4.069-2.658-7.642-5.395-10.784-8.494c43.357,9.7,122.976-55.773,139.996-16.318c-0.198-0.031-0.37-0.098-0.598-0.083
		c-0.288,0.019-0.538,0.08-0.824,0.101c-37.141-6.825-65.122,19.792-95.218,37.761C237.093,682.092,236.725,682.053,236.301,682.105
		z M185.623,702.431c19.06,1.493,35.746-5.719,51.761-15.309c0.022-0.012,0.042-0.025,0.063-0.038
		c20.86-12.502,40.596-28.988,62.933-35.606c-11.956,8.189-20.112,18.137-30.025,30.117
		C249.409,706.907,214.816,719.5,185.623,702.431z M253.99,734.009c-17.513,20.552-44.295,20.62-65.972,8.983
		c35.303,6.299,57.749-19.844,77.924-46.986c2.003-1.9,3.913-3.893,5.76-5.951C265.804,704.901,264.666,721.48,253.99,734.009z
		 M268.764,714.203c-0.036,0.572-0.025,1.155-0.053,1.728c-0.174-0.021-0.341-0.044-0.52-0.035
		C268.382,715.333,268.575,714.772,268.764,714.203z M251.031,767.52c11.151-9.418,15.562-21.926,17.902-35.343
		c0.471,5.97,1.324,11.966,2.55,17.889c0.197,0.951,0.757,1.494,1.429,1.758c-11.008,12.755-23.892,21.054-38.206,26.205
		C240.614,775.089,246.177,771.619,251.031,767.52z M262.368,791.401c-3.073,10.976-10.913,17.045-20.528,21.294
		c-1.127-10.452,0.208-20.276,8.177-28.425c4.929-5.041,10.655-9.502,16.284-13.944
		C265.269,777.422,264.269,784.612,262.368,791.401z M276.367,782.149c-1.123,6.252-1.347,12.805-0.939,19.392
		c-2.695-14.972-1.95-30.278,3.592-46.189c0.565,0.45,1.315,0.662,2.237,0.358c5.736-1.897,11.351-4.147,16.75-6.72
		C287.565,757.721,278.947,767.791,276.367,782.149z M312.233,741.076c0.472-0.304,0.949-0.603,1.415-0.912
		c-0.389,0.437-0.769,0.874-1.153,1.311C312.42,741.329,312.328,741.206,312.233,741.076z M329.116,824.455
		c-20.916-12.953-34.249-36.181-25.206-61.625c5.512-15.51,19.302-24.785,29.208-37.316c-0.859,2.629-1.63,5.28-2.274,7.965
		C317.425,764.521,306.01,797.031,329.116,824.455z M341.119,722.451c5.418-14.575,9.955-26.612,11.069-41.061
		c5.438,22.654,1.028,47.989,0.631,72.306c0,0.025-0.002,0.048-0.002,0.073c-0.299,18.664,1.799,36.721,12.622,52.481
		C336.061,789.501,329.671,753.246,341.119,722.451z M397.335,778.098c-4.255-1.171-8.412-2.896-12.748-5.092
		c-10.043-5.085-22.247-9.844-26.884-20.81c-0.166-0.393-0.384-0.692-0.633-0.915c0.513-35.021,9.56-72.532-14.85-101.276
		c-0.134-0.278-0.243-0.551-0.381-0.83c-0.101-0.205-0.246-0.321-0.371-0.476C384.147,643.712,367.257,745.4,397.335,778.098z
		 M365.363,602.566c-4.128,6.804-8.777,13.055-13.368,19.335c3.144-7.117,6.233-14.268,10.061-21.245
		c5.399-9.84,11.933-19.221,18.629-28.459C376.032,582.617,371.186,592.969,365.363,602.566z M450.172,674.403
		c-1.024-5.583-0.915-10.789,0-15.731C451.087,663.614,451.196,668.82,450.172,674.403z M623.657,748.712
		c-0.178,0.857,0.03,1.581,0.444,2.135c-0.333,0.19-0.617,0.453-0.863,0.765c-0.393,0.057-0.764,0.172-1.095,0.365
		c-0.273-0.635-0.796-1.177-1.627-1.452c-42.953-14.205-80.808-49.488-57.866-97.555c0.547-0.624,1.044-1.262,1.624-1.877
		c0.232-0.246,0.361-0.511,0.482-0.775c0.289,0.027,0.583,0.048,0.913-0.03c0.785-0.186,1.548-0.291,2.325-0.446
		C621.165,653.96,632.836,704.387,623.657,748.712z M515.756,773.006c-4.336,2.195-8.493,3.921-12.747,5.092
		c30.078-32.699,13.187-134.386,55.866-129.399c-0.126,0.156-0.27,0.271-0.371,0.476c-0.138,0.279-0.247,0.552-0.381,0.83
		c-24.41,28.744-15.363,66.254-14.85,101.275c-0.249,0.223-0.467,0.523-0.633,0.916
		C538.002,763.162,525.799,767.922,515.756,773.006z M534.903,806.249c10.823-15.76,12.921-33.817,12.622-52.481
		c0-0.025-0.001-0.048-0.002-0.073c-0.397-24.317-4.807-49.651,0.631-72.306c1.114,14.449,5.651,26.486,11.07,41.061
		C570.671,753.246,564.282,789.501,534.903,806.249z M571.227,824.455c23.106-27.424,11.691-59.934-1.728-90.976
		c-0.644-2.685-1.415-5.336-2.274-7.965c9.907,12.531,23.696,21.806,29.208,37.316C605.476,788.273,592.142,811.501,571.227,824.455
		z M586.695,740.164c0.466,0.31,0.943,0.609,1.415,0.913c-0.095,0.13-0.187,0.253-0.262,0.399
		C587.464,741.038,587.085,740.601,586.695,740.164z M624.914,801.54c0.408-6.587,0.184-13.14-0.939-19.392
		c-2.579-14.357-11.197-24.427-21.638-33.158c5.399,2.573,11.013,4.822,16.749,6.719c0.922,0.305,1.672,0.092,2.237-0.358
		C626.864,771.262,627.609,786.569,624.914,801.54z M658.502,812.695c-9.615-4.25-17.455-10.318-20.528-21.293
		c-1.901-6.789-2.901-13.979-3.933-21.075c5.629,4.442,11.355,8.903,16.284,13.944C658.294,792.419,659.63,802.243,658.502,812.695z
		 M649.312,767.52c4.854,4.099,10.417,7.57,16.326,10.51c-14.314-5.152-27.198-13.451-38.207-26.206
		c0.672-0.264,1.232-0.807,1.429-1.758c1.227-5.924,2.079-11.919,2.55-17.889C633.751,745.594,638.161,758.102,649.312,767.52z
		 M631.632,715.931c-0.028-0.574-0.016-1.157-0.053-1.728c0.189,0.569,0.382,1.129,0.573,1.693
		C631.972,715.888,631.806,715.91,631.632,715.931z M712.324,742.992c-21.676,11.636-48.458,11.569-65.971-8.983
		c-10.676-12.529-11.814-29.108-17.713-43.954c1.847,2.058,3.757,4.05,5.76,5.951C654.575,723.148,677.021,749.29,712.324,742.992z
		 M714.72,702.431c-29.194,17.07-63.786,4.475-84.732-20.836c-9.913-11.98-18.069-21.927-30.025-30.117
		c22.338,6.619,42.073,23.104,62.934,35.607c0.021,0.013,0.04,0.025,0.061,0.037C678.973,696.713,695.66,703.924,714.72,702.431z
		 M706.289,660.734c-3.142,3.099-6.715,5.836-10.784,8.494c-9.425,6.155-19.648,14.344-31.463,12.877
		c-0.423-0.052-0.792-0.014-1.11,0.09c-30.096-17.969-58.077-44.586-95.218-37.761c-0.286-0.021-0.535-0.082-0.824-0.101
		c-0.228-0.015-0.4,0.052-0.598,0.083C583.312,604.961,662.931,670.434,706.289,660.734z M548.347,621.901
		c-4.591-6.28-9.239-12.531-13.367-19.334c-5.823-9.597-10.67-19.949-15.322-30.369c6.696,9.238,13.23,18.619,18.629,28.46
		C542.115,607.633,545.204,614.784,548.347,621.901z M642.904,563.129c-5.347-1.905-9.801-4.602-13.624-7.866
		C634.017,556.942,638.581,559.451,642.904,563.129z M616.252,547.741c-36.132-1.131-77.415,28.333-108.809-4.201
		c-1.379-1.429-3.184-0.779-4.057,0.485c-1.531,0.124-2.997,1.362-2.449,3.271c12.478,43.455-33.68,64.474-50.766,96.331
		c-17.086-31.857-63.244-52.876-50.766-96.331c0.548-1.908-0.918-3.146-2.449-3.271c-0.873-1.264-2.678-1.914-4.057-0.486
		c-31.394,32.534-72.677,3.069-108.808,4.201c19.046-30.725,14.17-81.209,58.042-92.13c1.927-0.48,2.267-2.368,1.608-3.756
		c0.658-1.388,0.319-3.276-1.608-3.756c-43.872-10.921-38.997-61.405-58.042-92.13c36.132,1.131,77.414-28.333,108.808,4.201
		c1.379,1.429,3.184,0.779,4.057-0.485c1.531-0.124,2.997-1.363,2.449-3.271c-12.478-43.455,33.68-64.474,50.766-96.331
		c17.086,31.857,63.245,52.876,50.766,96.331c-0.548,1.909,0.918,3.147,2.449,3.271c0.873,1.264,2.678,1.914,4.057,0.485
		c31.394-32.534,72.677-3.069,108.809-4.201c-19.045,30.725-14.17,81.209-58.042,92.13c-1.927,0.48-2.267,2.368-1.608,3.756
		c-0.658,1.388-0.319,3.276,1.608,3.756C602.082,466.532,597.206,517.015,616.252,547.741z M623.096,453.764
		c-11.238,0.245-22.647-0.727-34.013-1.91c11.366-1.183,22.775-2.154,34.013-1.909c7.956,0.173,15.694,1.073,23.429,1.909
		C638.789,452.691,631.052,453.591,623.096,453.764z M756.51,521.946c7.178,9.499,5.197,22.447,4.579,33.687
		c-0.267,4.853-0.85,9.315-1.964,13.586c-13.279-42.398-109.789-78.614-84.129-113.081c0.072,0.187,0.1,0.369,0.227,0.56
		c0.172,0.259,0.354,0.489,0.527,0.744c12.688,35.513,49.697,46.433,80.283,63.499C756.102,521.267,756.252,521.606,756.51,521.946z
		 M799.451,555.672c-8.237-17.254-22.825-28.098-39.139-37.172c-0.021-0.012-0.041-0.023-0.063-0.034
		c-21.257-11.815-45.403-20.663-62.304-36.699c13.07,6.26,25.764,8.349,41.095,10.944
		C771.434,498.194,799.637,521.856,799.451,555.672z M792.615,480.676c26.556,4.891,40.005,28.05,40.765,52.64
		c-12.197-33.722-46.06-40.09-79.652-43.99c-2.647-0.785-5.328-1.442-8.034-2.013C761.499,484.999,776.427,477.695,792.615,480.676z
		 M768.116,477.776c0.501-0.249,0.999-0.512,1.498-0.769c0.065,0.147,0.125,0.288,0.214,0.426
		C769.258,477.547,768.69,477.657,768.116,477.776z M823.116,466.483c-13.722-4.944-26.75-2.518-39.53,2.157
		c4.925-3.388,9.68-7.125,14.189-11.142c0.725-0.646,0.916-1.402,0.808-2.116c16.55,3.156,30.18,10.164,41.798,19.985
		C834.88,471.72,829.093,468.637,823.116,466.483z M838.129,458.986c-6.83-1.748-13.557-4.477-20.218-7.131
		c6.661-2.654,13.388-5.383,20.218-7.131c11.042-2.827,20.218,0.929,28.705,7.131C858.346,458.057,849.17,461.812,838.129,458.986z"
		/>
	<path d="M646.519,439.181c-0.809,1.314-1.256,3.492-1.672,5.397c-0.365,1.798-0.713,3.515-0.713,3.515s1.598-0.368,3.477-1.254
		c1.878-0.866,4.008-2.317,4.969-3.879c1.904-3.166-1.367-4.794-1.367-4.794S648.1,436.56,646.519,439.181z"/>
	<path d="M721.335,294.434c0,0-0.614-0.648-2.523-0.085c-0.094,0.027-0.23,0.096-0.33,0.129c-2.274-0.028-5.941,0.57-11.638,3.305
		c-6.977,3.302-14.913,9.48-20.763,14.886c-1.952,1.79-3.69,3.452-5.177,4.902c-3.458,2.022-5.781,3.381-5.781,3.381
		s1.218-0.293,3.187-0.812c-1.435,1.446-2.297,2.354-2.297,2.354s2.337-1.332,5.818-3.316c1.999-0.562,4.307-1.237,6.833-2.033
		c7.607-2.363,16.925-6.147,23.273-10.539c5.187-3.547,7.588-6.449,8.709-8.431c0.081-0.072,0.177-0.147,0.249-0.217
		c1.442-1.372,1.188-2.227,1.188-2.227s-0.1-0.274-0.51-0.569C721.522,294.658,721.335,294.434,721.335,294.434z"/>
	<path d="M520.483,456.78c-20.328-6.169-41.344,0.005-61.201-4.925c19.857-4.931,40.873,1.244,61.201-4.925
		c14.022-4.255,31.13-11.708,40.049-23.956c8.676-11.914,4.321-30.408-8.08-30.17c6.406-10.621-7.433-23.639-22.089-22.082
		c-15.066,1.6-30.074,12.69-40.771,22.705c-15.378,14.4-20.679,35.386-34.614,50.102c5.777-19.426,21.301-34.509,26.083-55.027
		c3.326-14.271,5.426-32.814-0.722-46.662c-5.98-13.471-24.173-18.946-30.168-8.088c-5.995-10.858-24.188-5.383-30.168,8.088
		c-6.148,13.848-4.047,32.39-0.722,46.662c4.781,20.518,20.306,35.601,26.083,55.027c-13.935-14.716-19.236-35.702-34.614-50.102
		c-10.696-10.016-25.705-21.105-40.771-22.705c-14.656-1.557-28.495,11.461-22.089,22.082c-12.401-0.238-16.756,18.256-8.08,30.17
		c8.918,12.248,26.027,19.701,40.049,23.956c20.328,6.169,41.344-0.005,61.201,4.925c-19.857,4.931-40.873-1.244-61.201,4.925
		c-14.022,4.255-31.13,11.708-40.049,23.956c-8.676,11.914-4.321,30.408,8.08,30.17c-6.406,10.621,7.432,23.639,22.089,22.082
		c15.066-1.6,30.074-12.69,40.771-22.705c15.378-14.4,20.679-35.386,34.614-50.102c-5.777,19.426-21.302,34.509-26.083,55.028
		c-3.326,14.271-5.426,32.813,0.722,46.661c5.98,13.471,24.173,18.946,30.168,8.088c5.995,10.858,24.188,5.383,30.168-8.088
		c6.148-13.848,4.048-32.39,0.722-46.661c-4.781-20.518-20.306-35.601-26.083-55.028c13.935,14.716,19.235,35.702,34.614,50.102
		c10.697,10.016,25.705,21.106,40.771,22.705c14.656,1.557,28.494-11.461,22.089-22.082c12.401,0.238,16.755-18.256,8.08-30.17
		C551.613,468.488,534.505,461.036,520.483,456.78z M496.149,394.647c5.508-4.756,11.466-8.826,17.875-12.211
		c12.235-9.714,21.625-5.611,28.17,12.309c-1.862,0.982-1.582,3.074-0.4,4.211c0.394,1.592,2.065,2.881,3.847,1.759
		c12.247,14.628,11.105,24.812-3.425,30.551c-6.136,3.858-12.64,6.983-19.512,9.374c-9.187,3.154-18.881,4.966-28.596,5.278
		c-11.828,0.379-22.827-1.829-34.227,0.331c7.57-8.793,11.157-19.422,17.4-29.476C482.408,408.515,488.824,401.026,496.149,394.647z
		 M423.617,383.433c-1.365-7.148-1.911-14.343-1.638-21.586c-2.295-15.453,5.953-21.533,24.745-18.241
		c-0.081,2.103,1.871,2.907,3.447,2.452c1.576,0.455,3.528-0.348,3.447-2.452c18.792-3.292,27.04,2.788,24.745,18.241
		c0.273,7.243-0.273,14.438-1.638,21.586c-1.862,9.533-5.139,18.834-9.727,27.404c-5.586,10.434-12.997,18.855-16.827,29.807
		c-3.83-10.952-11.241-19.374-16.827-29.807C428.756,402.267,425.479,392.966,423.617,383.433z M406.235,445.919
		c-9.715-0.312-19.409-2.124-28.596-5.278c-6.872-2.391-13.377-5.516-19.512-9.374c-14.53-5.739-15.672-15.922-3.425-30.551
		c1.781,1.122,3.453-0.167,3.847-1.759c1.182-1.137,1.462-3.229-0.4-4.211c6.545-17.92,15.935-22.023,28.17-12.309
		c6.409,3.385,12.367,7.455,17.875,12.211c7.325,6.379,13.741,13.868,18.869,22.126c6.243,10.054,9.83,20.683,17.4,29.476
		C429.063,444.09,418.064,446.298,406.235,445.919z M447.492,450.308c0.466-0.308,0.863-0.711,1.093-1.201
		c0.539,0.046,1.086-0.096,1.586-0.346c0.5,0.249,1.047,0.391,1.586,0.346c0.23,0.49,0.627,0.892,1.093,1.201
		c0.034,0.558,0.184,1.102,0.493,1.547c-0.309,0.445-0.46,0.989-0.493,1.547c-0.466,0.308-0.862,0.711-1.093,1.201
		c-0.539-0.046-1.086,0.096-1.586,0.346c-0.5-0.249-1.047-0.391-1.586-0.346c-0.23-0.49-0.627-0.892-1.093-1.201
		c-0.034-0.558-0.184-1.103-0.493-1.547C447.308,451.41,447.459,450.865,447.492,450.308z M404.194,509.062
		c-5.507,4.756-11.466,8.826-17.875,12.211c-12.235,9.714-21.625,5.611-28.17-12.309c1.862-0.982,1.582-3.074,0.4-4.211
		c-0.394-1.592-2.065-2.881-3.847-1.759c-12.247-14.628-11.105-24.811,3.425-30.551c6.136-3.858,12.64-6.983,19.512-9.374
		c9.187-3.154,18.881-4.966,28.596-5.278c11.828-0.379,22.827,1.828,34.227-0.331c-7.57,8.793-11.157,19.422-17.4,29.476
		C417.935,495.194,411.518,502.683,404.194,509.062z M476.726,520.276c1.365,7.147,1.911,14.342,1.638,21.585
		c2.295,15.453-5.953,21.533-24.745,18.241c0.081-2.104-1.871-2.907-3.447-2.452c-1.576-0.455-3.528,0.348-3.447,2.452
		c-18.792,3.292-27.04-2.788-24.745-18.241c-0.274-7.243,0.272-14.438,1.638-21.585c1.862-9.533,5.139-18.834,9.727-27.404
		c5.586-10.433,12.997-18.854,16.827-29.807c3.83,10.953,11.241,19.374,16.827,29.807
		C471.587,501.442,474.864,510.743,476.726,520.276z M545.641,502.994c-1.782-1.122-3.453,0.167-3.847,1.759
		c-1.182,1.137-1.462,3.229,0.4,4.211c-6.545,17.92-15.935,22.023-28.17,12.309c-6.409-3.385-12.367-7.455-17.875-12.211
		c-7.325-6.379-13.741-13.868-18.869-22.126c-6.243-10.054-9.83-20.683-17.4-29.476c11.4,2.16,22.399-0.048,34.227,0.331
		c9.716,0.311,19.409,2.124,28.596,5.278c6.872,2.391,13.376,5.516,19.512,9.374C556.746,478.182,557.887,488.366,545.641,502.994z"
		/>
	<path d="M574.403,667.031c-1.233-0.246-2.53,0.252-2.803,1.856c-2.389,14.036-3.604,26.979,4.652,39.253
		c8.072,12,20.148,17.446,32.677,24.15c1.132,0.606,2.213,0.344,2.975-0.303c0.942-0.336,1.71-1.142,1.752-2.426
		c0.459-14.202,1.78-27.384-4.576-40.374c-6.502-13.287-18.318-18.706-31.668-23.655
		C575.886,664.966,574.807,665.839,574.403,667.031z M605.931,695.412c3.947,9.328,3.008,20.352,2.505,30.565
		c-9.096-4.671-19.113-9.37-25.217-17.452c-9.061-11.996-8.893-23.386-6.535-37.546
		C590.124,676.018,600.072,681.567,605.931,695.412z"/>
	<path d="M543.672,631.594c0.872-1.614,1.064-4.183,0.875-6.243c-0.172-2.071-0.653-3.639-0.653-3.639s-1.312,1.16-2.687,2.375
		c-1.442,1.313-3.105,2.788-3.838,4.147c-1.48,2.679,1.468,4.573,1.468,4.573S541.882,634.826,543.672,631.594z"/>
	<path d="M470.179,726.339c1.867-0.306,2.072-1.184,2.072-1.184s0.255-0.852-0.849-2.171c-1.056-1.418-3.494-3.043-7.885-6.612
		c-4.439-3.508-9.302-9.553-11.242-15.86c-0.303-0.885-0.462-1.7-0.674-2.545c-0.09-2.241-0.397-4.203-0.751-5.68
		c-0.11-0.462-0.218-0.858-0.322-1.231c-0.054-1.262-0.03-2.015-0.026-2.102c0.525,1.131,1.104,2.4,1.786,3.776
		c2.664,5.642,8.555,11.255,13.493,14.003c4.947,2.824,7.813,3.117,9.405,2.944c1.6-0.206,1.972-1.018,1.972-1.018
		s0.414-0.791-0.389-2.183c-0.78-1.413-2.866-3.327-7.391-5.913c-4.54-2.573-10.33-5.794-14.177-9.899
		c-1.516-1.574-2.882-3.011-4.126-4.194c0.058-0.107,0.125-0.266,0.183-0.367c0.885-1.598,1.6-2.489,1.6-2.489
		s-1.001,0.54-2.46,1.778c-0.069,0.056-0.158,0.156-0.228,0.217c-0.07-0.06-0.159-0.16-0.227-0.217
		c-1.459-1.238-2.461-1.778-2.461-1.778s0.715,0.891,1.6,2.489c0.058,0.101,0.124,0.26,0.183,0.367
		c-1.244,1.183-2.609,2.62-4.125,4.194c-3.847,4.105-9.637,7.326-14.177,9.899c-4.525,2.587-6.611,4.5-7.391,5.913
		c-0.803,1.391-0.389,2.183-0.389,2.183s0.372,0.812,1.972,1.018c1.592,0.173,4.458-0.12,9.405-2.944
		c4.939-2.748,10.829-8.361,13.493-14.003c0.683-1.376,1.262-2.646,1.787-3.776c0.004,0.086,0.028,0.839-0.026,2.102
		c-0.104,0.373-0.211,0.769-0.322,1.231c-0.354,1.477-0.662,3.44-0.751,5.681c-0.212,0.845-0.371,1.66-0.673,2.544
		c-1.939,6.307-6.803,12.352-11.242,15.86c-4.392,3.569-6.83,5.194-7.886,6.612c-1.103,1.319-0.849,2.171-0.849,2.171
		s0.205,0.878,2.072,1.184c1.769,0.205,5.691,0.008,11.257-4.499c2.719-2.274,5.357-5.533,7.161-9.26
		c0.652-1.325,1.155-2.698,1.59-4.077c0.435,1.379,0.938,2.752,1.59,4.077c1.804,3.727,4.443,6.985,7.161,9.26
		C464.489,726.347,468.411,726.544,470.179,726.339z M450.171,688.287c0.111,0.235,0.207,0.399,0.323,0.648
		c-0.014,0.035-0.135,0.344-0.322,0.919c-0.187-0.576-0.309-0.885-0.323-0.919C449.965,688.686,450.06,688.522,450.171,688.287z"/>
	<path d="M451.099,718.817c-0.022-4.007-0.037-6.698-0.037-6.698s-0.355,1.201-0.89,3.167c-0.535-1.966-0.89-3.167-0.89-3.167
		s-0.015,2.691-0.037,6.697c-0.513,2.013-1.082,4.349-1.657,6.934c-1.757,7.769-3.139,17.731-2.51,25.424
		c0.478,6.266,1.79,9.795,2.947,11.758c0.022,0.106,0.039,0.227,0.064,0.324c0.467,1.935,1.335,2.143,1.335,2.143
		s0.287,0.05,0.748-0.157c0.461,0.207,0.748,0.157,0.748,0.157s0.868-0.208,1.335-2.143c0.024-0.097,0.042-0.218,0.064-0.323
		c1.156-1.962,2.469-5.492,2.947-11.759c0.629-7.693-0.753-17.655-2.51-25.424C452.181,723.166,451.612,720.83,451.099,718.817z"/>
	<path d="M559.321,615.56c-1.543-0.044-3.652,0.659-5.51,1.25c-1.74,0.583-3.401,1.14-3.401,1.14s1.118,1.2,2.825,2.385
		c1.689,1.193,4.011,2.312,5.844,2.363c3.694,0.066,3.468-3.581,3.468-3.581S562.381,615.618,559.321,615.56z"/>
	<path d="M686.08,591.041c5.851,5.406,13.786,11.584,20.764,14.886c5.697,2.734,9.364,3.332,11.638,3.305
		c0.1,0.033,0.236,0.102,0.331,0.13c1.91,0.563,2.523-0.085,2.523-0.085s0.187-0.224,0.238-0.727c0.41-0.296,0.51-0.569,0.51-0.569
		s0.254-0.855-1.188-2.227c-0.072-0.07-0.168-0.145-0.249-0.217c-1.121-1.982-3.522-4.884-8.709-8.431
		c-6.348-4.391-15.666-8.175-23.273-10.539c-2.526-0.795-4.834-1.47-6.833-2.033c-3.481-1.984-5.819-3.316-5.819-3.316
		s0.862,0.909,2.297,2.354c-1.969-0.52-3.187-0.812-3.187-0.812s2.322,1.358,5.781,3.38
		C682.39,587.589,684.128,589.25,686.08,591.041z"/>
	<path d="M443.855,498.169c-3.007-1.723-5.718,2.92-2.713,4.642c9.325,5.343,5.563,25.97,5.335,35.071
		c-0.055,2.203,2.096,2.989,3.695,2.388c1.599,0.602,3.75-0.185,3.694-2.388c-0.228-9.101-3.991-29.728,5.335-35.071
		c3.004-1.721,0.293-6.364-2.713-4.642c-2.955,1.693-4.952,4.145-6.316,7.033C448.807,502.314,446.81,499.862,443.855,498.169z"/>
	<path d="M325.939,667.031c-0.404-1.191-1.483-2.065-3.009-1.499c-13.35,4.949-25.166,10.368-31.668,23.655
		c-6.357,12.99-5.035,26.172-4.576,40.374c0.041,1.284,0.81,2.09,1.752,2.426c0.762,0.647,1.843,0.909,2.975,0.303
		c12.529-6.703,24.605-12.15,32.677-24.15c8.256-12.274,7.041-25.217,4.652-39.253C328.469,667.282,327.173,666.784,325.939,667.031
		z M317.124,708.525c-6.105,8.082-16.121,12.781-25.217,17.452c-0.503-10.213-1.442-21.237,2.505-30.565
		c5.859-13.845,15.807-19.394,29.248-24.433C326.017,685.139,326.185,696.529,317.124,708.525z"/>
	<path d="M347.107,620.335c1.707-1.184,2.825-2.385,2.825-2.385s-1.661-0.557-3.4-1.14c-1.858-0.592-3.967-1.294-5.51-1.25
		c-3.06,0.058-3.227,3.558-3.227,3.558s-0.226,3.647,3.468,3.581C343.097,622.646,345.418,621.528,347.107,620.335z"/>
	<path d="M241.612,571.482c-1.54,0.457-3.517,1.213-5.636,2.361c-0.707,0.192-1.44,0.368-2.2,0.518
		c-6.432,1.474-14.099,0.285-19.356-1.806c-5.287-2.019-7.913-3.318-9.669-3.523c-1.694-0.297-2.305,0.35-2.305,0.35
		s-0.658,0.617,0.01,2.387c0.707,1.634,2.838,4.932,9.524,7.499c3.329,1.217,7.47,1.873,11.6,1.572
		c1.474-0.098,2.914-0.349,4.326-0.662c-0.977,1.067-1.915,2.188-2.736,3.416c-2.326,3.426-3.828,7.34-4.439,10.832
		c-1.119,7.074,0.671,10.569,1.732,11.998c1.199,1.464,2.062,1.202,2.062,1.202s0.865-0.206,1.455-1.821
		c0.701-1.623,0.889-4.547,1.784-10.135c0.818-5.598,3.622-12.832,8.114-17.666c0.615-0.704,1.241-1.249,1.867-1.855
		c1.896-1.199,3.442-2.446,4.544-3.491c0.345-0.326,0.635-0.618,0.906-0.894c1.067-0.679,1.73-1.033,1.807-1.073
		c-0.717,1.02-1.526,2.156-2.376,3.435c-3.554,5.128-5.469,13.036-5.381,18.687c0.028,5.697,1.207,8.325,2.153,9.617
		c0.979,1.283,1.868,1.199,1.868,1.199s0.892-0.037,1.696-1.428c0.834-1.383,1.448-4.146,1.426-9.357
		c-0.041-5.219-0.147-11.843,1.484-17.227c0.606-2.1,1.166-4.001,1.57-5.67c0.122-0.003,0.293-0.025,0.409-0.025
		c1.826-0.032,2.956,0.141,2.956,0.141s-0.969-0.597-2.77-1.242c-0.09-0.033-0.205-0.064-0.299-0.097
		c0.016-0.088,0.057-0.212,0.072-0.297c0.342-1.883,0.31-3.02,0.31-3.02s-0.414,1.065-1.355,2.63
		c-0.052,0.09-0.146,0.212-0.201,0.304c-1.629-0.474-3.642-0.922-5.72-1.437c-5.478-1.28-11.163-4.684-15.661-7.328
		c-4.503-2.625-7.202-3.475-8.816-3.444c-1.607,0.001-2.085,0.755-2.085,0.755s-0.517,0.728,0.104,2.217
		c0.646,1.465,2.332,3.801,7.252,6.673c4.849,2.902,12.656,5.198,18.873,4.684c1.533-0.096,2.921-0.23,4.163-0.341
		c-0.074,0.046-0.713,0.444-1.833,1.029C242.464,571.242,242.067,571.347,241.612,571.482z M245.415,570.071
		c-0.148,0.213-0.242,0.379-0.4,0.604c-0.037,0.005-0.366,0.054-0.958,0.18c0.405-0.45,0.612-0.71,0.635-0.739
		C244.966,570.091,245.156,570.092,245.415,570.071z"/>
	<path d="M413.22,480.482c-2.943-1.712-6.066-2.217-9.249-1.954c1.819-2.625,2.944-5.581,2.932-8.986
		c-0.011-3.465-5.388-3.491-5.376-0.029c0.036,10.747-19.709,17.803-27.705,22.156c-1.935,1.054-1.54,3.31-0.22,4.393
		c0.278,1.685,2.035,3.155,3.915,2.006c7.767-4.748,23.75-18.32,33.04-12.915C413.549,486.894,416.215,482.225,413.22,480.482z"/>
	<path d="M359.136,624.087c-1.375-1.215-2.687-2.375-2.687-2.375s-0.48,1.568-0.653,3.639c-0.189,2.059,0.003,4.629,0.875,6.243
		c1.79,3.232,4.835,1.213,4.835,1.213s2.947-1.894,1.468-4.573C362.24,626.875,360.577,625.4,359.136,624.087z"/>
	<path d="M201.708,451.855c0.83-0.945,1.047-2.316-0.206-3.355c-10.961-9.087-21.562-16.611-36.32-15.598
		c-14.428,0.99-25.183,8.726-37.253,16.224c-1.091,0.678-1.405,1.746-1.225,2.729c-0.179,0.983,0.135,2.052,1.225,2.729
		c12.07,7.498,22.825,15.234,37.253,16.224c14.757,1.013,25.359-6.511,36.32-15.598C202.754,454.171,202.538,452.8,201.708,451.855z
		 M161.365,464.968c-10.052-1.245-19.13-7.571-27.723-13.113c8.593-5.542,17.671-11.867,27.723-13.113
		c14.919-1.849,24.699,3.992,35.783,13.113C186.063,460.976,176.284,466.816,161.365,464.968z"/>
	<path d="M252.732,446.838c1.879,0.886,3.478,1.254,3.478,1.254s-0.348-1.717-0.713-3.515c-0.416-1.905-0.862-4.083-1.672-5.397
		c-1.58-2.621-4.694-1.016-4.694-1.016s-3.271,1.628-1.367,4.794C248.724,444.521,250.853,445.972,252.732,446.838z"/>
	<path d="M242.291,331.051c-1.102-1.045-2.648-2.292-4.544-3.491c-0.626-0.606-1.252-1.152-1.867-1.855
		c-4.492-4.833-7.296-12.068-8.114-17.666c-0.895-5.588-1.083-8.512-1.784-10.135c-0.59-1.615-1.455-1.821-1.455-1.821
		s-0.863-0.262-2.062,1.202c-1.062,1.429-2.852,4.924-1.732,11.998c0.611,3.492,2.113,7.406,4.439,10.832
		c0.822,1.227,1.76,2.349,2.736,3.416c-1.412-0.313-2.853-0.564-4.326-0.662c-4.13-0.301-8.271,0.355-11.6,1.572
		c-6.686,2.567-8.818,5.865-9.524,7.499c-0.668,1.77-0.01,2.387-0.01,2.387s0.611,0.647,2.305,0.35
		c1.756-0.205,4.382-1.504,9.669-3.523c5.258-2.09,12.924-3.28,19.356-1.806c0.761,0.15,1.494,0.327,2.201,0.519
		c2.118,1.147,4.095,1.903,5.635,2.36c0.455,0.135,0.852,0.24,1.227,0.337c1.12,0.585,1.76,0.982,1.833,1.029
		c-1.242-0.111-2.63-0.244-4.163-0.341c-6.218-0.514-14.024,1.781-18.873,4.684c-4.92,2.872-6.606,5.208-7.252,6.673
		c-0.621,1.489-0.104,2.217-0.104,2.217s0.478,0.754,2.085,0.755c1.614,0.031,4.314-0.819,8.816-3.444
		c4.499-2.645,10.183-6.049,15.661-7.328c2.079-0.515,4.091-0.963,5.72-1.437c0.056,0.092,0.149,0.214,0.201,0.304
		c0.941,1.565,1.355,2.63,1.355,2.63s0.032-1.138-0.31-3.02c-0.014-0.085-0.055-0.209-0.072-0.297
		c0.094-0.033,0.209-0.064,0.299-0.097c1.802-0.645,2.77-1.242,2.77-1.242s-1.129,0.174-2.956,0.141
		c-0.116,0-0.288-0.022-0.409-0.025c-0.403-1.669-0.964-3.569-1.57-5.67c-1.631-5.384-1.525-12.009-1.484-17.227
		c0.022-5.212-0.592-7.975-1.426-9.357c-0.804-1.391-1.696-1.428-1.696-1.428s-0.889-0.084-1.868,1.199
		c-0.946,1.292-2.125,3.921-2.153,9.617c-0.089,5.651,1.826,13.559,5.381,18.687c0.85,1.28,1.66,2.415,2.377,3.435
		c-0.077-0.04-0.741-0.395-1.808-1.074C242.926,331.669,242.636,331.377,242.291,331.051z M245.415,333.638
		c-0.259-0.021-0.449-0.02-0.723-0.045c-0.023-0.03-0.23-0.29-0.635-0.739c0.592,0.126,0.921,0.175,0.958,0.18
		C245.173,333.26,245.267,333.425,245.415,333.638z"/>
	<path d="M253.824,464.529c0.81-1.314,1.256-3.492,1.672-5.397c0.365-1.798,0.713-3.515,0.713-3.515s-1.599,0.368-3.478,1.254
		c-1.878,0.866-4.007,2.317-4.969,3.879c-1.904,3.166,1.367,4.794,1.367,4.794S252.243,467.15,253.824,464.529z"/>
	<path d="M179.007,609.275c0,0,0.614,0.648,2.523,0.085c0.094-0.027,0.231-0.096,0.331-0.13c2.274,0.028,5.941-0.571,11.638-3.305
		c6.977-3.302,14.913-9.479,20.763-14.886c1.952-1.79,3.69-3.452,5.177-4.902c3.459-2.022,5.781-3.381,5.781-3.381
		s-1.218,0.293-3.187,0.812c1.435-1.446,2.297-2.354,2.297-2.354s-2.337,1.332-5.818,3.316c-1.999,0.562-4.307,1.237-6.834,2.033
		c-7.607,2.363-16.925,6.147-23.273,10.539c-5.188,3.547-7.589,6.449-8.71,8.431c-0.08,0.072-0.176,0.147-0.248,0.217
		c-1.442,1.372-1.188,2.227-1.188,2.227s0.1,0.274,0.51,0.569C178.821,609.051,179.007,609.275,179.007,609.275z"/>
	<path d="M413.22,423.227c2.995-1.743,0.33-6.412-2.663-4.671c-9.29,5.404-25.272-8.167-33.04-12.915
		c-1.88-1.149-3.636,0.321-3.915,2.006c-1.32,1.083-1.715,3.339,0.22,4.393c7.996,4.353,27.741,11.408,27.705,22.156
		c-0.011,3.463,5.365,3.437,5.376-0.029c0.011-3.405-1.113-6.361-2.932-8.986C407.154,425.444,410.277,424.94,413.22,423.227z"/>
	<path d="M356.671,272.116c-0.872,1.614-1.064,4.183-0.875,6.243c0.172,2.07,0.653,3.639,0.653,3.639s1.313-1.16,2.687-2.375
		c1.442-1.313,3.104-2.788,3.838-4.147c1.479-2.679-1.468-4.573-1.468-4.573S358.461,268.884,356.671,272.116z"/>
	<path d="M430.163,177.371c-1.867,0.306-2.072,1.184-2.072,1.184s-0.254,0.852,0.849,2.171c1.056,1.419,3.494,3.043,7.886,6.612
		c4.439,3.508,9.302,9.553,11.242,15.86c0.302,0.884,0.462,1.699,0.673,2.543c0.09,2.242,0.398,4.204,0.751,5.681
		c0.11,0.462,0.218,0.858,0.322,1.231c0.054,1.264,0.03,2.017,0.026,2.102c-0.525-1.131-1.104-2.4-1.787-3.776
		c-2.664-5.642-8.554-11.255-13.493-14.003c-4.947-2.824-7.813-3.117-9.405-2.944c-1.6,0.206-1.972,1.018-1.972,1.018
		s-0.414,0.791,0.389,2.183c0.78,1.413,2.866,3.327,7.391,5.913c4.54,2.574,10.33,5.794,14.177,9.899
		c1.516,1.574,2.881,3.011,4.125,4.194c-0.058,0.107-0.125,0.266-0.183,0.367c-0.885,1.598-1.6,2.489-1.6,2.489
		s1.001-0.54,2.461-1.778c0.069-0.056,0.158-0.157,0.227-0.217c0.07,0.06,0.159,0.16,0.228,0.217c1.459,1.238,2.46,1.778,2.46,1.778
		s-0.715-0.891-1.6-2.489c-0.058-0.101-0.124-0.26-0.183-0.367c1.244-1.183,2.609-2.62,4.126-4.194
		c3.847-4.105,9.637-7.325,14.177-9.899c4.525-2.587,6.611-4.5,7.391-5.913c0.803-1.391,0.389-2.183,0.389-2.183
		s-0.371-0.812-1.972-1.018c-1.592-0.173-4.458,0.12-9.405,2.944c-4.938,2.749-10.829,8.361-13.493,14.003
		c-0.683,1.376-1.262,2.645-1.786,3.776c-0.004-0.087-0.028-0.84,0.026-2.102c0.104-0.373,0.211-0.769,0.322-1.231
		c0.354-1.477,0.661-3.439,0.751-5.68c0.212-0.845,0.371-1.66,0.674-2.545c1.939-6.307,6.803-12.352,11.242-15.86
		c4.392-3.569,6.83-5.193,7.885-6.612c1.104-1.319,0.849-2.171,0.849-2.171s-0.205-0.878-2.072-1.184
		c-1.768-0.205-5.69-0.008-11.257,4.499c-2.718,2.274-5.357,5.533-7.161,9.26c-0.652,1.325-1.155,2.698-1.59,4.077
		c-0.435-1.379-0.938-2.752-1.59-4.077c-1.804-3.727-4.443-6.985-7.161-9.26C435.854,177.363,431.932,177.166,430.163,177.371z
		 M450.494,214.774c-0.116,0.249-0.212,0.414-0.323,0.648c-0.111-0.235-0.207-0.399-0.323-0.648
		c0.014-0.034,0.136-0.344,0.323-0.919C450.359,214.43,450.48,214.739,450.494,214.774z"/>
	<path d="M449.244,184.893c0.022,4.006,0.037,6.697,0.037,6.697s0.355-1.201,0.89-3.167c0.535,1.966,0.89,3.167,0.89,3.167
		s0.015-2.691,0.037-6.698c0.513-2.013,1.082-4.348,1.657-6.933c1.757-7.77,3.139-17.731,2.51-25.425
		c-0.478-6.267-1.791-9.796-2.947-11.759c-0.022-0.106-0.039-0.226-0.064-0.324c-0.467-1.935-1.335-2.143-1.335-2.143
		s-0.287-0.05-0.748,0.158c-0.461-0.207-0.748-0.158-0.748-0.158s-0.868,0.207-1.335,2.143c-0.024,0.097-0.042,0.219-0.064,0.324
		c-1.156,1.962-2.469,5.491-2.947,11.758c-0.629,7.693,0.753,17.655,2.51,25.425C448.162,180.544,448.732,182.88,449.244,184.893z"
		/>
	<path d="M328.742,234.822c2.389-14.036,3.604-26.979-4.652-39.253c-8.071-12-20.148-17.447-32.677-24.15
		c-1.128-0.603-2.205-0.344-2.966,0.298c-0.947,0.334-1.72,1.143-1.761,2.432c-0.459,14.202-1.781,27.384,4.576,40.374
		c6.502,13.287,18.318,18.706,31.668,23.655c1.526,0.566,2.605-0.308,3.009-1.499C327.173,236.925,328.469,236.427,328.742,234.822z
		 M294.412,208.297c-3.947-9.328-3.008-20.352-2.505-30.565c9.096,4.671,19.113,9.37,25.217,17.452
		c9.061,11.996,8.893,23.386,6.536,37.546C310.218,227.692,300.27,222.142,294.412,208.297z"/>
	<path d="M341.022,288.15c1.543,0.044,3.652-0.659,5.51-1.25c1.74-0.583,3.4-1.14,3.4-1.14s-1.118-1.2-2.825-2.385
		c-1.689-1.193-4.01-2.312-5.844-2.363c-3.694-0.066-3.468,3.581-3.468,3.581S337.962,288.091,341.022,288.15z"/>
	<path d="M214.263,312.669c-5.85-5.406-13.786-11.584-20.763-14.886c-5.697-2.734-9.365-3.332-11.638-3.305
		c-0.1-0.033-0.236-0.102-0.33-0.129c-1.91-0.563-2.523,0.085-2.523,0.085s-0.186,0.224-0.238,0.727
		c-0.41,0.296-0.51,0.569-0.51,0.569s-0.254,0.855,1.188,2.227c0.072,0.07,0.168,0.145,0.248,0.217
		c1.121,1.982,3.522,4.884,8.71,8.431c6.348,4.391,15.666,8.175,23.273,10.539c2.526,0.795,4.834,1.47,6.834,2.033
		c3.481,1.984,5.818,3.316,5.818,3.316s-0.862-0.909-2.297-2.354c1.969,0.52,3.187,0.812,3.187,0.812s-2.323-1.358-5.781-3.381
		C217.952,316.12,216.214,314.459,214.263,312.669z"/>
	<path d="M456.488,405.54c3.007,1.723,5.718-2.92,2.713-4.642c-9.326-5.343-5.563-25.97-5.335-35.071
		c0.055-2.203-2.096-2.989-3.694-2.388c-1.599-0.602-3.75,0.185-3.695,2.388c0.228,9.101,3.99,29.728-5.335,35.071
		c-3.004,1.721-0.294,6.364,2.713,4.642c2.955-1.693,4.952-4.145,6.316-7.033C451.535,401.395,453.533,403.847,456.488,405.54z"/>
	<path d="M574.403,236.679c0.403,1.191,1.483,2.065,3.009,1.499c13.35-4.949,25.166-10.368,31.668-23.655
		c6.356-12.99,5.035-26.172,4.576-40.374c-0.042-1.288-0.815-2.098-1.761-2.432c-0.761-0.641-1.838-0.901-2.966-0.298
		c-12.529,6.703-24.605,12.15-32.677,24.15c-8.256,12.274-7.041,25.217-4.652,39.253
		C571.874,236.427,573.17,236.925,574.403,236.679z M583.219,195.184c6.105-8.082,16.121-12.781,25.217-17.452
		c0.503,10.213,1.442,21.237-2.505,30.565c-5.859,13.845-15.807,19.395-29.248,24.433
		C574.326,218.57,574.158,207.18,583.219,195.184z"/>
	<path d="M553.235,283.375c-1.707,1.184-2.825,2.385-2.825,2.385s1.661,0.557,3.4,1.14c1.858,0.592,3.967,1.294,5.51,1.25
		c3.06-0.058,3.227-3.558,3.227-3.558s0.226-3.647-3.468-3.581C557.246,281.063,554.925,282.182,553.235,283.375z"/>
	<path d="M658.731,332.227c1.54-0.457,3.517-1.213,5.635-2.36c0.707-0.192,1.44-0.369,2.201-0.518
		c6.432-1.474,14.099-0.285,19.356,1.806c5.287,2.019,7.913,3.318,9.669,3.523c1.694,0.297,2.305-0.35,2.305-0.35
		s0.658-0.617-0.01-2.387c-0.707-1.634-2.839-4.932-9.525-7.499c-3.329-1.217-7.47-1.873-11.6-1.572
		c-1.474,0.098-2.914,0.349-4.326,0.662c0.976-1.067,1.914-2.189,2.736-3.416c2.326-3.426,3.828-7.34,4.439-10.832
		c1.119-7.074-0.671-10.569-1.732-11.998c-1.199-1.464-2.062-1.202-2.062-1.202s-0.865,0.206-1.455,1.821
		c-0.701,1.623-0.888,4.547-1.784,10.135c-0.818,5.598-3.622,12.832-8.114,17.666c-0.615,0.704-1.24,1.249-1.866,1.855
		c-1.897,1.199-3.443,2.447-4.545,3.491c-0.345,0.327-0.635,0.618-0.906,0.895c-1.067,0.679-1.73,1.033-1.807,1.073
		c0.717-1.02,1.527-2.156,2.377-3.435c3.554-5.128,5.469-13.036,5.381-18.687c-0.028-5.697-1.207-8.325-2.153-9.617
		c-0.979-1.283-1.868-1.199-1.868-1.199s-0.892,0.037-1.696,1.428c-0.834,1.383-1.448,4.146-1.426,9.357
		c0.041,5.218,0.147,11.843-1.484,17.227c-0.606,2.1-1.166,4.001-1.57,5.67c-0.122,0.003-0.293,0.025-0.409,0.025
		c-1.826,0.033-2.956-0.141-2.956-0.141s0.969,0.597,2.771,1.242c0.09,0.033,0.205,0.064,0.299,0.097
		c-0.016,0.088-0.057,0.212-0.072,0.297c-0.342,1.883-0.31,3.02-0.31,3.02s0.414-1.065,1.355-2.63
		c0.052-0.09,0.145-0.212,0.201-0.304c1.63,0.474,3.642,0.923,5.72,1.437c5.478,1.28,11.162,4.684,15.661,7.328
		c4.502,2.625,7.202,3.475,8.816,3.444c1.606-0.001,2.085-0.755,2.085-0.755s0.517-0.728-0.104-2.217
		c-0.647-1.465-2.333-3.801-7.252-6.673c-4.85-2.902-12.656-5.198-18.873-4.684c-1.533,0.096-2.921,0.23-4.163,0.341
		c0.073-0.047,0.713-0.444,1.833-1.028C657.879,332.467,658.276,332.362,658.731,332.227z M654.928,333.638
		c0.148-0.213,0.242-0.379,0.4-0.603c0.036-0.005,0.366-0.055,0.957-0.18c-0.404,0.449-0.612,0.71-0.635,0.739
		C655.377,333.618,655.187,333.617,654.928,333.638z"/>
</g>
<g>
</g>
<g>
</g>
<g>
</g>
<g>
</g>
<g>
</g>
<g>
</g>
</svg>
