<?xml version="1.0" encoding="utf-8"?>
<!-- Generator: Adobe Illustrator 16.0.0, SVG Export Plug-In . SVG Version: 6.00 Build 0)  -->
<!DOCTYPE svg PUBLIC "-//W3C//DTD SVG 1.0//EN" "http://www.w3.org/TR/2001/REC-SVG-20010904/DTD/svg10.dtd">
<svg version="1.0" id="Layer_1" xmlns="http://www.w3.org/2000/svg" xmlns:xlink="http://www.w3.org/1999/xlink" x="0px" y="0px"
	 width="100px" height="100px" viewBox="0 0 100 100" enable-background="new 0 0 100 100" xml:space="preserve">
<path d="M90,50c0-4.994-4.817-9.343-11.931-11.628c3.415-6.647,3.747-13.125,0.215-16.66c-3.531-3.528-10.013-3.196-16.656,0.215
	C59.343,14.817,54.993,10,50,10s-9.343,4.817-11.628,11.927c-6.646-3.411-13.125-3.743-16.656-0.215
	c-3.532,3.535-3.2,10.013,0.215,16.66C14.817,40.657,10,45.006,10,50c0,4.993,4.814,9.342,11.931,11.627
	c-3.415,6.641-3.747,13.125-0.215,16.654c3.531,3.535,10.01,3.203,16.656-0.215C40.657,85.182,45.007,90,50,90
	s9.343-4.818,11.628-11.934c6.644,3.418,13.125,3.75,16.656,0.215c3.532-3.529,3.2-10.014-0.215-16.654
	C85.183,59.342,90,54.993,90,50z M50,65c-8.284,0-15-6.719-15-15c0-8.288,6.716-15,15-15c8.281,0,15,6.712,15,15
	C65,58.281,58.281,65,50,65z"/>
<path d="M58.333,50c0,4.596-3.733,8.333-8.333,8.333c-4.603,0-8.333-3.737-8.333-8.333c0-4.604,3.73-8.334,8.333-8.334
	C54.6,41.666,58.333,45.396,58.333,50z"/>
</svg>
