<?xml version="1.0" encoding="utf-8"?>
<!-- Generator: Adobe Illustrator 16.0.0, SVG Export Plug-In . SVG Version: 6.00 Build 0)  -->
<!DOCTYPE svg PUBLIC "-//W3C//DTD SVG 1.0//EN" "http://www.w3.org/TR/2001/REC-SVG-20010904/DTD/svg10.dtd">
<svg version="1.0" id="Layer_1" xmlns="http://www.w3.org/2000/svg" xmlns:xlink="http://www.w3.org/1999/xlink" x="0px" y="0px"
	 width="100px" height="100px" viewBox="0 0 100 100" enable-background="new 0 0 100 100" xml:space="preserve">
<path d="M41.667,67.292L20,45.625v3.334c0,7.363,2.988,14.026,7.813,18.854l13.854,13.854V67.292z"/>
<path d="M58.333,67.292v14.375l13.854-13.854C77.012,62.985,80,56.322,80,48.959v-3.334L58.333,67.292z"/>
<path d="M68.938,33.334c2.822-3.132,3.493-7.819,1.27-11.667c-2.22-3.848-6.614-5.612-10.738-4.733C58.167,12.924,54.443,10,50,10
	s-8.171,2.924-9.47,6.934c-4.124-0.879-8.519,0.886-10.738,4.733c-2.221,3.848-1.553,8.535,1.27,11.667
	c-2.822,3.131-3.49,7.818-1.27,11.666c2.22,3.848,6.614,5.612,10.738,4.733c0.957,2.956,3.232,5.303,6.137,6.345V90h6.666V56.078
	c2.904-1.042,5.18-3.389,6.137-6.345c4.127,0.886,8.516-0.886,10.738-4.733C72.432,41.152,71.765,36.465,68.938,33.334z M50,45
	c-6.445,0-11.667-5.221-11.667-11.666S43.555,21.667,50,21.667c6.438,0,11.667,5.222,11.667,11.667S56.438,45,50,45z"/>
<path d="M55,33.334c0,2.767-2.236,5-5,5s-5-2.233-5-5c0-2.761,2.236-5,5-5S55,30.573,55,33.334z"/>
</svg>
