<?xml version="1.0" encoding="utf-8"?>
<!-- Generator: Adobe Illustrator 16.0.0, SVG Export Plug-In . SVG Version: 6.00 Build 0)  -->
<!DOCTYPE svg PUBLIC "-//W3C//DTD SVG 1.0//EN" "http://www.w3.org/TR/2001/REC-SVG-20010904/DTD/svg10.dtd">
<svg version="1.0" id="Layer_1" xmlns="http://www.w3.org/2000/svg" xmlns:xlink="http://www.w3.org/1999/xlink" x="0px" y="0px"
	 width="100px" height="100px" viewBox="0 0 100 100" enable-background="new 0 0 100 100" xml:space="preserve">
<path d="M84.338,30h-1.006V20c0-1.833-1.5-3.333-3.333-3.333H50L43.333,10H20c-1.833,0-3.333,1.5-3.333,3.333V30h-1.006
	c-3.666,0-6.172,2.959-5.57,6.576L18.994,90h62.011l8.903-53.424C90.514,32.959,88.007,30,84.338,30z M23.333,16.667h17.24
	l6.666,6.667h29.427V30H23.333V16.667z M75.357,83.333H24.641l-7.776-46.667h66.272L75.357,83.333z"/>
<path d="M63.131,62.063c-3.62,3.62-8.376,5.43-13.131,5.43c-4.756,0-9.512-1.81-13.132-5.43l-3.535,3.535
	c9.199,9.199,24.125,9.206,33.333,0L63.131,62.063z"/>
<path d="M44.167,51.666c0,2.299-1.865,4.167-4.167,4.167s-4.167-1.868-4.167-4.167c0-2.304,1.865-4.166,4.167-4.166
	S44.167,49.362,44.167,51.666z"/>
<path d="M64.166,51.666c0,2.299-1.865,4.167-4.167,4.167s-4.167-1.868-4.167-4.167c0-2.304,1.865-4.166,4.167-4.166
	S64.166,49.362,64.166,51.666z"/>
</svg>
