<?xml version="1.0" encoding="utf-8"?>
<!-- Generator: Adobe Illustrator 24.0.0, SVG Export Plug-In . SVG Version: 6.00 Build 0)  -->
<svg version="1.1" xmlns="http://www.w3.org/2000/svg" xmlns:xlink="http://www.w3.org/1999/xlink" x="0px" y="0px"
	 viewBox="0 0 256 256" enable-background="new 0 0 256 256" xml:space="preserve">
<g id="Layer_1">
</g>
<g id="Layer_2">
</g>
<g id="Layer_3">
</g>
<g id="Layer_4">
</g>
<g id="Layer_5">
</g>
<g id="Layer_6">
</g>
<g id="Layer_7">
</g>
<g id="Layer_8">
</g>
<g id="Layer_9">
</g>
<g id="Layer_10">
</g>
<g id="Layer_11">
</g>
<g id="Layer_12">
</g>
<g id="Layer_13">
</g>
<g id="Layer_14">
</g>
<g id="Layer_15">
</g>
<g id="Layer_16">
	<g>
		<g>
			<g>
				<path fill="#FCA265" d="M148.417,157.832h-22.784c-1.836,0-3.324,1.488-3.324,3.324V253.5h29.431v-92.344
					C151.74,159.32,150.252,157.832,148.417,157.832z"/>
			</g>
		</g>
		<g>
			<g>
				<path fill="#F5C84C" d="M103.354,180.471H80.57c-1.836,0-3.324,1.488-3.324,3.324V253.5h29.431v-69.705
					C106.678,181.959,105.19,180.471,103.354,180.471z"/>
			</g>
		</g>
		<g>
			<g>
				<path fill="#B2E26D" d="M58.291,211.471H35.508c-1.836,0-3.324,1.488-3.324,3.324V253.5h29.431v-38.705
					C61.615,212.959,60.127,211.471,58.291,211.471z"/>
			</g>
		</g>
		<g>
			<g>
				<path fill="#FC657E" d="M193.48,133.552h-22.784c-1.836,0-3.324,1.488-3.324,3.324V253.5h29.431V136.876
					C196.803,135.04,195.315,133.552,193.48,133.552z"/>
			</g>
		</g>
		<g>
			<g>
				<path fill="#70D6F9" d="M150.635,6.21c-3.157-0.561-5.613-3.017-6.245-6.104c0-0.14-0.281-0.14-0.281,0
					c-0.631,3.087-3.087,5.543-6.245,6.104c-0.14,0-0.14,0.211,0,0.281c3.157,0.561,5.613,3.017,6.245,6.104
					c0,0.14,0.281,0.14,0.281,0c0.632-3.087,3.087-5.543,6.245-6.104C150.776,6.42,150.776,6.21,150.635,6.21z"/>
			</g>
		</g>
		<g>
			<g>
				<path fill="#F5C84C" d="M232.825,133.85c-4.5-0.8-8-4.3-8.9-8.7c0-0.2-0.4-0.2-0.4,0c-0.9,4.4-4.4,7.9-8.9,8.7
					c-0.2,0-0.2,0.3,0,0.4c4.5,0.8,8,4.3,8.9,8.7c0,0.2,0.4,0.2,0.4,0c0.9-4.4,4.4-7.9,8.9-8.7
					C233.025,134.15,233.025,133.85,232.825,133.85z"/>
			</g>
		</g>
		<g>
			<g>
				<path fill="#F5C84C" d="M73.825,153c-1.878,0-3.4,1.522-3.4,3.4c0,1.878,1.522,3.4,3.4,3.4s3.4-1.522,3.4-3.4
					C77.225,154.522,75.703,153,73.825,153z"/>
			</g>
		</g>
		<g>
			<g>
				<path fill="#FC657E" d="M58.725,177.1h-2.3v-2.3c0-1.7-1.4-3.2-3.2-3.2c-1.8,0-3.2,1.4-3.2,3.2v2.3h-2.3c-1.7,0-3.2,1.4-3.2,3.2
					s1.4,3.2,3.2,3.2h2.3v2.3c0,1.7,1.4,3.2,3.2,3.2c1.8,0,3.2-1.4,3.2-3.2v-2.3h2.3c1.7,0,3.2-1.4,3.2-3.2
					S60.525,177.1,58.725,177.1z"/>
			</g>
		</g>
		<g>
			<g>
				<path fill="#87D147" d="M214.825,163c-1.878,0-3.4,1.522-3.4,3.4c0,1.878,1.522,3.4,3.4,3.4s3.4-1.522,3.4-3.4
					C218.225,164.522,216.703,163,214.825,163z"/>
			</g>
		</g>
		<g>
			<g>
				<path d="M148.417,155.333h-22.784c-3.211,0-5.824,2.612-5.824,5.823v90.908c0,1.381,1.119,2.5,2.5,2.5s2.5-1.119,2.5-2.5
					v-90.908c0-0.454,0.37-0.823,0.824-0.823h22.784c0.454,0,0.823,0.369,0.823,0.823v90.969c0,1.381,1.119,2.5,2.5,2.5
					s2.5-1.119,2.5-2.5v-90.969C154.24,157.945,151.628,155.333,148.417,155.333z"/>
			</g>
		</g>
		<g>
			<g>
				<path d="M103.354,177.972H80.57c-3.211,0-5.823,2.612-5.823,5.823v68.643c0,1.381,1.119,2.5,2.5,2.5s2.5-1.119,2.5-2.5v-68.643
					c0-0.454,0.369-0.823,0.823-0.823h22.784c0.454,0,0.824,0.369,0.824,0.823v68.643c0,1.381,1.119,2.5,2.5,2.5s2.5-1.119,2.5-2.5
					v-68.643C109.178,180.584,106.565,177.972,103.354,177.972z"/>
			</g>
		</g>
		<g>
			<g>
				<path d="M58.292,208.972H35.508c-3.211,0-5.824,2.612-5.824,5.823v37.393c0,1.381,1.119,2.5,2.5,2.5s2.5-1.119,2.5-2.5v-37.393
					c0-0.454,0.37-0.823,0.824-0.823h22.784c0.454,0,0.823,0.369,0.823,0.823v37.644c0,1.381,1.119,2.5,2.5,2.5s2.5-1.119,2.5-2.5
					v-37.644C64.115,211.584,61.502,208.972,58.292,208.972z"/>
			</g>
		</g>
		<g>
			<g>
				<path d="M193.479,131.052h-22.784c-3.211,0-5.823,2.612-5.823,5.823v115.437c0,1.381,1.119,2.5,2.5,2.5s2.5-1.119,2.5-2.5
					V136.875c0-0.454,0.369-0.823,0.823-0.823h22.784c0.454,0,0.824,0.369,0.824,0.823v115.5c0,1.381,1.119,2.5,2.5,2.5
					s2.5-1.119,2.5-2.5v-115.5C199.303,133.665,196.691,131.052,193.479,131.052z"/>
			</g>
		</g>
		<g>
			<g>
				<path fill="#EDF4FC" d="M194.833,17.036l-9.768-7.224c-1.806-1.336-4.272-1.336-6.078,0l-9.768,7.224
					c-4.591,3.443-7.292,8.846-7.292,14.585v59.9h40.2v-59.9C202.125,25.883,199.423,20.479,194.833,17.036z"/>
			</g>
		</g>
		<g>
			<g>
				<path fill="#F5C84C" d="M214.734,65.941l-12.61-9.566v35.146h13.907c1.848,0,3.347-1.498,3.347-3.347v-12.88
					C219.379,71.621,217.66,68.161,214.734,65.941z"/>
			</g>
		</g>
		<g>
			<g>
				<path fill="#F5C84C" d="M149.316,65.941c-2.926,2.22-4.644,5.68-4.644,9.353v12.88c0,1.849,1.498,3.347,3.347,3.347h13.907
					V56.375L149.316,65.941z"/>
			</g>
		</g>
		<g>
			<g>
				<circle fill="#70D6F9" cx="182.025" cy="41.004" r="8.894"/>
			</g>
		</g>
		<g>
			<g>
				<path fill="#FC657E" d="M194.833,17.036l-9.768-7.224c-1.806-1.336-4.272-1.336-6.078,0l-9.768,7.224
					c-1.133,0.85-2.149,1.819-3.04,2.883c4.636,2.77,10.054,4.365,15.847,4.365s11.211-1.595,15.847-4.365
					C196.982,18.856,195.965,17.886,194.833,17.036z"/>
			</g>
		</g>
		<g>
			<g>
				<g>
					<path d="M196.333,15.036c-0.004-0.003-0.009-0.007-0.013-0.01l-9.769-7.225c-2.707-2-6.344-2.001-9.051,0l-9.782,7.234
						c-5.192,3.895-8.292,10.095-8.292,16.585v59.9c0,1.381,1.119,2.5,2.5,2.5h40.2c1.381,0,2.5-1.119,2.5-2.5v-59.9
						C204.625,25.131,201.525,18.931,196.333,15.036z M199.625,89.021h-35.2v-57.4c0-4.925,2.352-9.629,6.278-12.575l9.769-7.224
						c0.929-0.687,2.178-0.687,3.105,0l9.761,7.219c3.937,2.956,6.287,7.658,6.287,12.581V89.021z"/>
				</g>
			</g>
		</g>
		<g>
			<g>
				<path d="M216.245,63.949l-12.123-9.196c-1.1-0.834-2.668-0.619-3.502,0.481c-0.834,1.1-0.619,2.668,0.481,3.502l12.123,9.196
					c2.289,1.737,3.656,4.488,3.656,7.361v12.88c0,0.467-0.38,0.847-0.847,0.847h-13.907c-1.381,0-2.5,1.119-2.5,2.5
					s1.119,2.5,2.5,2.5h13.907c3.224,0,5.847-2.623,5.847-5.847v-12.88C221.879,70.867,219.773,66.625,216.245,63.949z"/>
			</g>
		</g>
		<g>
			<g>
				<path d="M161.925,89.021h-13.907c-0.467,0-0.847-0.38-0.847-0.847v-12.88c0-2.873,1.366-5.625,3.655-7.361l12.065-9.152
					c1.1-0.834,1.315-2.403,0.481-3.502c-0.834-1.101-2.403-1.316-3.502-0.481l-12.065,9.152c-3.527,2.676-5.633,6.917-5.633,11.345
					v12.88c0,3.224,2.623,5.847,5.847,5.847h13.907c1.381,0,2.5-1.119,2.5-2.5S163.306,89.021,161.925,89.021z"/>
			</g>
		</g>
		<g>
			<g>
				<g>
					<path d="M182.025,29.611c-6.282,0-11.394,5.111-11.394,11.394s5.111,11.394,11.394,11.394c6.283,0,11.394-5.111,11.394-11.394
						S188.308,29.611,182.025,29.611z M182.025,47.398c-3.525,0-6.394-2.868-6.394-6.394s2.868-6.394,6.394-6.394
						c3.526,0,6.394,2.868,6.394,6.394S185.551,47.398,182.025,47.398z"/>
				</g>
			</g>
		</g>
		<g>
			<g>
				<path d="M199.296,19.136c-0.674-1.204-2.198-1.635-3.403-0.96c-4.217,2.361-9.013,3.608-13.869,3.608
					c-4.881,0-9.699-1.26-13.933-3.644c-1.202-0.679-2.728-0.251-3.405,0.952c-0.678,1.203-0.251,2.728,0.952,3.405
					c4.98,2.805,10.647,4.288,16.386,4.288c5.709,0,11.35-1.468,16.311-4.245C199.541,21.864,199.971,20.341,199.296,19.136z"/>
			</g>
		</g>
		<g>
			<g>
				<path d="M182.025,58.426c-1.381,0-2.5,1.119-2.5,2.5v29.595c0,1.381,1.119,2.5,2.5,2.5s2.5-1.119,2.5-2.5V60.926
					C184.525,59.545,183.406,58.426,182.025,58.426z"/>
			</g>
		</g>
		<g>
			<g>
				<g>
					<path d="M168.799,99.852c-1.381,0-2.5,1.119-2.5,2.5v11.664c0,1.381,1.119,2.5,2.5,2.5s2.5-1.119,2.5-2.5v-11.664
						C171.299,100.971,170.18,99.852,168.799,99.852z"/>
				</g>
			</g>
			<g>
				<g>
					<path d="M182.025,99.852c-1.381,0-2.5,1.119-2.5,2.5v11.664c0,1.381,1.119,2.5,2.5,2.5s2.5-1.119,2.5-2.5v-11.664
						C184.525,100.971,183.406,99.852,182.025,99.852z"/>
				</g>
			</g>
			<g>
				<g>
					<path d="M195.251,99.852c-1.381,0-2.5,1.119-2.5,2.5v11.664c0,1.381,1.119,2.5,2.5,2.5s2.5-1.119,2.5-2.5v-11.664
						C197.751,100.971,196.632,99.852,195.251,99.852z"/>
				</g>
			</g>
		</g>
		<g>
			<g>
				<path d="M201.525,251h-176c-1.381,0-2.5,1.119-2.5,2.5s1.119,2.5,2.5,2.5h176c1.381,0,2.5-1.119,2.5-2.5
					S202.906,251,201.525,251z"/>
			</g>
		</g>
	</g>
</g>
<g id="Layer_17">
</g>
<g id="Layer_18">
</g>
<g id="Layer_19">
</g>
<g id="Layer_20">
</g>
<g id="Layer_21">
</g>
<g id="Layer_22">
</g>
<g id="Layer_23">
</g>
<g id="Layer_24">
</g>
<g id="Layer_25">
</g>
<g id="Layer_26">
</g>
<g id="Layer_27">
</g>
<g id="Layer_28">
</g>
<g id="Layer_29">
</g>
<g id="Layer_30">
</g>
<g id="Layer_31">
</g>
<g id="Layer_32">
</g>
<g id="Layer_33">
</g>
<g id="Layer_34">
</g>
<g id="Layer_35">
</g>
<g id="Layer_36">
</g>
<g id="Layer_37">
</g>
<g id="Layer_38">
</g>
<g id="Layer_39">
</g>
<g id="Layer_40">
</g>
<g id="Layer_41">
</g>
<g id="Layer_42">
</g>
<g id="Layer_43">
</g>
<g id="Layer_44">
</g>
<g id="Layer_45">
</g>
<g id="Layer_46">
</g>
<g id="Layer_47">
</g>
<g id="Layer_48">
</g>
<g id="Layer_49">
</g>
<g id="Layer_50">
</g>
<g id="Layer_51">
</g>
<g id="Layer_52">
</g>
<g id="Layer_53">
</g>
<g id="Layer_54">
</g>
<g id="Layer_55">
</g>
<g id="Layer_56">
</g>
<g id="Layer_57">
</g>
<g id="Layer_58">
</g>
<g id="Layer_59">
</g>
<g id="Layer_60">
</g>
<g id="Layer_61">
</g>
<g id="Layer_62">
</g>
<g id="Layer_63">
</g>
<g id="Layer_64">
</g>
<g id="Layer_65">
</g>
<g id="Layer_66">
</g>
<g id="Layer_67">
</g>
<g id="Layer_68">
</g>
<g id="Layer_69">
</g>
<g id="Layer_70">
</g>
<g id="Layer_71">
</g>
<g id="Layer_72">
</g>
<g id="Layer_73">
</g>
<g id="Layer_74">
</g>
<g id="Layer_75">
</g>
<g id="Layer_76">
</g>
<g id="Layer_77">
</g>
<g id="Layer_78">
</g>
<g id="Layer_79">
</g>
<g id="Layer_80">
</g>
<g id="Layer_81">
</g>
<g id="Layer_82">
</g>
<g id="Layer_83">
</g>
<g id="Layer_84">
</g>
<g id="Layer_85">
</g>
<g id="Layer_86">
</g>
<g id="Layer_87">
</g>
<g id="Layer_88">
</g>
<g id="Layer_89">
</g>
<g id="Layer_90">
</g>
</svg>
