<svg id="icons" xmlns="http://www.w3.org/2000/svg" viewBox="0 0 64 64"><defs><style>.cls-1{fill:none;stroke:#000;stroke-linecap:round;stroke-linejoin:round;}</style></defs><title>garnet</title><g id="garnet"><circle class="cls-1" cx="27.3657" cy="32" r="23.3657"/><path class="cls-1" d="M45.70172,40.84363a23.19936,23.19936,0,0,0,1.41206-3.78433"/><path class="cls-1" d="M38.94356,49.25425a23.48545,23.48545,0,0,0,5.72452-6.47874"/><path class="cls-1" d="M21.82582,12.46093a23.39,23.39,0,0,0-10.64519,7.05933"/><path class="cls-1" d="M50.62484,34.19657h.00972A10.96238,10.96238,0,0,0,60,30.53015a10.92028,10.92028,0,0,0-8.20813-7.1967,10.52287,10.52287,0,0,0-2.80088-.17506"/><path class="cls-1" d="M53.912,23.985a10.92632,10.92632,0,0,0,4.49308-5.70874,10.88531,10.88531,0,0,0-10.31852-3.52054,10.494,10.494,0,0,0-3.54972,1.39071"/></g></svg>