<?xml version="1.0" encoding="utf-8"?>
<!-- Generator: Adobe Illustrator 16.0.0, SVG Export Plug-In . SVG Version: 6.00 Build 0)  -->
<!DOCTYPE svg PUBLIC "-//W3C//DTD SVG 1.0//EN" "http://www.w3.org/TR/2001/REC-SVG-20010904/DTD/svg10.dtd">
<svg version="1.0" id="Layer_1" xmlns="http://www.w3.org/2000/svg" xmlns:xlink="http://www.w3.org/1999/xlink" x="0px" y="0px"
	 width="100px" height="100px" viewBox="0 0 100 100" enable-background="new 0 0 100 100" xml:space="preserve">
<path d="M83.333,30.001H71.484c1.146-1.973,1.849-4.226,1.849-6.667c0-7.363-5.967-13.335-13.333-13.335
	c-4.007,0-7.559,1.806-10,4.599c-2.441-2.793-5.996-4.599-10-4.599c-7.366,0-13.333,5.972-13.333,13.335
	c0,2.441,0.703,4.694,1.849,6.667H16.667c-3.666,0-6.667,3.001-6.667,6.667v13.333h6.667v33.333c0,3.666,3.001,6.667,6.666,6.667
	h53.334c3.665,0,6.666-3.001,6.666-6.667V50.001H90V36.668C90,33.002,86.999,30.001,83.333,30.001z M60,16.668
	c3.675,0,6.667,2.988,6.667,6.666c0,3.679-2.992,6.667-6.667,6.667h-6.667v-6.667C53.333,19.656,56.325,16.668,60,16.668z
	 M33.333,23.334c0-3.678,2.992-6.666,6.667-6.666s6.667,2.988,6.667,6.666v6.667H40C36.325,30.001,33.333,27.013,33.333,23.334z
	 M23.333,50.001h23.334v33.333H23.333V50.001z M76.667,83.334H53.333V50.001h23.334V83.334z M83.333,43.334H16.667v-6.666h66.666
	V43.334z"/>
</svg>
