<svg id="Filled_stroke_cut_Ex_Revise" data-name="Filled stroke cut Ex Revise" xmlns="http://www.w3.org/2000/svg" width="512" height="512" viewBox="0 0 512 512">
  <title>goblin- spooky- character- cosplay- halloween- avatar- horror</title>
  <g>
    <path d="M304,488H456V400.594a30,30,0,0,0-24.117-29.417L376,360l-50.31-31.444a40,40,0,0,1-17.606-24.218L304,288H208l-4.084,16.338a40,40,0,0,1-17.606,24.218L136,360,80.117,371.177A30,30,0,0,0,56,400.594V488H224l32-16,40,16Z" style="fill: #63c521"/>
    <path d="M320.835,324.986a40,40,0,0,1-12.751-20.648L304,288H208l-4.084,16.338a40,40,0,0,1-12.751,20.648C209.665,337.51,231.587,344,256,344S302.335,337.51,320.835,324.986Z" style="fill: #4d991a"/>
    <path d="M402,128a41.959,41.959,0,0,0-34.8,18.48C360.546,77.581,313.3,48,256,48S151.454,77.581,144.8,146.48A41.959,41.959,0,0,0,110,128H96l10.429,53.927a40,40,0,0,0,39.456,33.424h1.97C160.714,294.415,204.26,328,256,328s95.286-33.585,108.145-112.649h1.97a40,40,0,0,0,39.456-33.424L416,128Z" style="fill: #63c521"/>
    <polygon points="232 88 192 24 168 89.028 200 113.028 232 88" style="fill: #f29a49"/>
    <polygon points="280 88 320 24 344 89.028 312 113.028 280 88" style="fill: #f29a49"/>
    <polygon points="280 264 312 224 320 256 320 264 280 264" style="fill: #e6e6e6"/>
    <polygon points="232 264 200 224 192 256 192 264 232 264" style="fill: #e6e6e6"/>
    <polygon points="168 144 216 144 248 184 184 192 168 144" style="fill: #f29a49"/>
    <polygon points="344 144 296 144 272 184 328 192 344 144" style="fill: #f29a49"/>
    <g>
      <rect x="152" y="448" width="16" height="16"/>
      <rect x="344" y="448" width="16" height="16"/>
      <path d="M272.41,349.47l-8,24a8,8,0,0,0,8.474,10.481l72-8-1.768-15.9-59.573,6.619,4.047-12.138Z"/>
      <path d="M240,384a8,8,0,0,0,7.589-10.53l-8-24-15.18,5.06,4.047,12.138-59.573-6.619-1.768,15.9,72,8A7.981,7.981,0,0,0,240,384Z"/>
      <path d="M206.247,219a8,8,0,0,0-14.008,3.058l-8,32A7.977,7.977,0,0,0,184,256v8a8,8,0,0,0,8,8H320a8,8,0,0,0,8-8v-8a7.977,7.977,0,0,0-.239-1.94l-8-32A8,8,0,0,0,305.753,219l-29.6,37h-40.31Zm-6,37,3.6-14.389L215.355,256Zm107.91-14.389,3.6,14.389H296.645Z"/>
      <path d="M222.247,139A8,8,0,0,0,216,136H168a8,8,0,0,0-7.59,10.53l16,48a8,8,0,0,0,8.582,5.408l64-8A8,8,0,0,0,254.247,179Zm-32.731,44.247L179.1,152h33.055l20.668,25.835Z"/>
      <path d="M270.868,191.919l56,8a8,8,0,0,0,8.722-5.389l16-48A8,8,0,0,0,344,136H296a8,8,0,0,0-6.86,3.884l-24,40a8,8,0,0,0,5.728,12.035ZM300.529,152H332.9l-10.379,31.136-37.462-5.352Z"/>
      <path d="M464,424V400.594a38.1,38.1,0,0,0-30.547-37.262L379,352.442l-49.07-30.67a31.966,31.966,0,0,1-8.192-7.35,109.285,109.285,0,0,0,19.815-20.107c14.114-18.482,23.932-42.312,29.377-71.2a47.828,47.828,0,0,0,42.512-39.765l10.411-53.83A8,8,0,0,0,416,120H402a49.734,49.734,0,0,0-29.237,9.414c-4.175-20.54-12.377-37.956-24.532-52.026L327.505,21.23a8,8,0,0,0-14.289-1.47L297.125,45.506a156.337,156.337,0,0,0-82.25,0L198.784,19.76A8,8,0,0,0,184.5,21.23L163.769,77.387c-12.163,14.08-20.367,31.509-24.54,52.067A50.127,50.127,0,0,0,110,120H96a8,8,0,0,0-7.854,9.519l10.411,53.83A47.828,47.828,0,0,0,141.1,223.117q1.874,9.927,4.429,19.044l15.406-4.322c-5.931-21.145-8.939-46.1-8.939-74.163,0-26,5.309-47.718,15.81-64.791l27.39,20.543a8,8,0,0,0,9.729-.1l32-25.028a8,8,0,0,0,1.855-10.542L223.743,59.694a142.685,142.685,0,0,1,64.514,0L273.216,83.76A8,8,0,0,0,275.071,94.3l32,25.028a8,8,0,0,0,9.729.1l27.39-20.543c10.5,17.074,15.81,38.792,15.81,64.791C360,263.022,322.094,320,256,320c-42.08,0-73.207-23.123-90.016-66.869l-14.935,5.738c9.156,23.829,22.48,42.529,39.218,55.545a31.953,31.953,0,0,1-8.2,7.358L133,352.442l-54.452,10.89A38.1,38.1,0,0,0,48,400.594V488a8,8,0,0,0,8,8H216a47.994,47.994,0,0,0,40-21.494A47.994,47.994,0,0,0,296,496H456a8,8,0,0,0,8-8V440H448v40H393.759l6.086-30.431-15.69-3.138L377.441,480H296a32.036,32.036,0,0,1-32-32V408H248v40a32.036,32.036,0,0,1-32,32H134.559l-6.714-33.569-15.69,3.138L118.241,480H64V400.594a22.061,22.061,0,0,1,17.686-21.573l55.883-11.176a8.011,8.011,0,0,0,2.671-1.061l50.31-31.444a47.962,47.962,0,0,0,13.12-12.116C219.022,331.634,236.611,336,256,336c19.3,0,36.915-4.346,52.329-12.778A47.972,47.972,0,0,0,321.45,335.34l50.31,31.444a8.011,8.011,0,0,0,2.671,1.061l55.883,11.176A22.061,22.061,0,0,1,448,400.594V424ZM114.321,180.612c-.011-.068-.024-.136-.037-.2L105.7,136H110a34.138,34.138,0,0,1,26.565,12.779q-.564,7.236-.565,14.9a346.485,346.485,0,0,0,2.515,42.828A31.885,31.885,0,0,1,114.321,180.612ZM199.9,102.951,177.569,86.205l16.289-44.137L221.4,86.134Zm112.2,0L290.6,86.134l27.542-44.066,16.289,44.137ZM402,136h4.305l-8.589,44.408c-.013.068-.026.136-.037.2A31.885,31.885,0,0,1,373.512,206.5,348.252,348.252,0,0,0,376,163.676q0-7.659-.565-14.9A33.832,33.832,0,0,1,402,136Z"/>
    </g>
  </g>
</svg>
