<svg xmlns="http://www.w3.org/2000/svg" viewBox="0 0 64 64"><g id="_19-bride_price" data-name="19-bride price"><path d="M61,27H29a2.006,2.006,0,0,1-2-2V14H22l5-5V3a2.006,2.006,0,0,1,2-2H61a2.006,2.006,0,0,1,2,2V25A2.006,2.006,0,0,1,61,27Z" style="fill:#fbdbe0"/><path d="M61,24H29a2.006,2.006,0,0,1-2-2v3a2.006,2.006,0,0,0,2,2H61a2.006,2.006,0,0,0,2-2V22A2.006,2.006,0,0,1,61,24Z" style="fill:#fcbcc5"/><path d="M45,43V59H42V48a2.006,2.006,0,0,1-2-2H26V43H45Z" style="fill:#bfbfdd"/><polygon points="43 37 44 43 30 43 31 37 37 37 40 37 43 37" style="fill:#fc98b0"/><path d="M33.667,37H31l-1,6H44l-.333-2H37.055A3.435,3.435,0,0,1,33.667,37Z" style="fill:#fc708d"/><polygon points="43 59 43 63 39 63 39 59 42 59 43 59" style="fill:#d1d1e7"/><rect x="40" y="27" width="3" height="10" style="fill:#bfbfdd"/><path d="M42,48V59H4V48a2.006,2.006,0,0,0,2-2H20v3h6V46H40A2.006,2.006,0,0,0,42,48Z" style="fill:#9891c3"/><rect x="20" y="49" width="6" height="2" style="fill:#897cac"/><path d="M40,46H26v2H40a2.006,2.006,0,0,0,2,2V48A2.006,2.006,0,0,1,40,46Z" style="fill:#897cac"/><path d="M6,48H20V46H6a2.006,2.006,0,0,1-2,2v2A2.006,2.006,0,0,0,6,48Z" style="fill:#897cac"/><polygon points="40 27 40 37 37 37 36 31 30 31 29.33 27 40 27" style="fill:#897cac"/><polygon points="36 31 37 37 39 37 38 31 36 31" style="fill:#7f709a"/><polygon points="29.33 27 30 31 32 31 31.33 27 29.33 27" style="fill:#7f709a"/><polygon points="36 31 37 37 31 37 29 37 23 37 24 31 30 31 36 31" style="fill:#fc98b0"/><polygon points="31 37 30 43 29 37 31 37" style="fill:#7f709a"/><path d="M29.33,27,30,31H16l1-6H27a2.006,2.006,0,0,0,2,2Z" style="fill:#fc98b0"/><polygon points="29 37 30 43 26 43 20 43 16 43 17 37 23 37 29 37" style="fill:#fc98b0"/><polygon points="27 20 27 25 17 25 16 31 10 31 9 37 6 37 6 20 27 20" style="fill:#897cac"/><polygon points="7 37 9 37 10 31 8 31 7 37" style="fill:#7f709a"/><rect x="25" y="20" width="2" height="5" style="fill:#7f709a"/><polygon points="14 31 16 31 17 25 15 25 14 31" style="fill:#7f709a"/><polygon points="27 17 27 20 6 20 6 37 3 37 3 17 27 17" style="fill:#bfbfdd"/><polygon points="26 46 26 49 20 49 20 46 20 43 26 43 26 46" style="fill:#d1d1e7"/><path d="M24,43v1h0a3,3,0,0,1-3,3H20v2h6V43Z" style="fill:#aeacd5"/><polygon points="24 31 23 37 22 31 24 31" style="fill:#7f709a"/><polygon points="22 31 23 37 17 37 15 37 9 37 10 31 16 31 22 31" style="fill:#fc98b0"/><path d="M20,43v3H6a2.006,2.006,0,0,1-2,2V59H1V43H20Z" style="fill:#bfbfdd"/><polygon points="17 37 16 43 15 37 17 37" style="fill:#7f709a"/><polygon points="15 37 16 43 2 43 3 37 6 37 9 37 15 37" style="fill:#fc98b0"/><polygon points="7 59 7 63 3 63 3 59 4 59 7 59" style="fill:#d1d1e7"/><path d="M19.667,37H17l-1,6H30l-.333-2H23.055A3.435,3.435,0,0,1,19.667,37Z" style="fill:#fc708d"/><path d="M5.667,37H3L2,43H16l-.333-2H9.055A3.435,3.435,0,0,1,5.667,37Z" style="fill:#fc708d"/><path d="M12.667,31H10L9,37H23l-.333-2H16.055A3.435,3.435,0,0,1,12.667,31Z" style="fill:#fc708d"/><path d="M26.667,31H24l-1,6H37l-.333-2H30.055A3.435,3.435,0,0,1,26.667,31Z" style="fill:#fc708d"/><path d="M19.667,25H17l-1,6H30l-.333-2H23.055A3.435,3.435,0,0,1,19.667,25Z" style="fill:#fc708d"/><path d="M54.11,5.88a6.374,6.374,0,0,1,0,9.06L45,24l-9.11-9.06a6.374,6.374,0,0,1,0-9.06,6.452,6.452,0,0,1,9.11,0A6.452,6.452,0,0,1,54.11,5.88Z" style="fill:#ea5073"/><path d="M54.11,5.88a6.438,6.438,0,0,0-6.552-1.56A6.4,6.4,0,0,1,50.11,14.94L43,22.011,45,24l9.11-9.06A6.374,6.374,0,0,0,54.11,5.88Z" style="fill:#d83a5c"/><path d="M45,60H1a1,1,0,0,1-1-1V43a1,1,0,0,1,1-1H45a1,1,0,0,1,1,1V59A1,1,0,0,1,45,60ZM2,58H44V44H2Z"/><path d="M7,64H3a1,1,0,0,1-1-1V59H4v3H6V59H8v4A1,1,0,0,1,7,64Z"/><path d="M43,64H39a1,1,0,0,1-1-1V59h2v3h2V59h2v4A1,1,0,0,1,43,64Z"/><path d="M26,50H20a1,1,0,0,1-1-1V43a1,1,0,0,1,1-1h6a1,1,0,0,1,1,1v6A1,1,0,0,1,26,50Zm-5-2h4V44H21Z"/><rect x="22" y="45" width="2" height="2"/><path d="M43,59H41V48.829A3.016,3.016,0,0,1,39.171,47H26V45H40a1,1,0,0,1,1,1,1,1,0,0,0,1,1,1,1,0,0,1,1,1Z"/><path d="M5,59H3V48a1,1,0,0,1,1-1,1,1,0,0,0,1-1,1,1,0,0,1,1-1H20v2H6.829A3.016,3.016,0,0,1,5,48.829Z"/><path d="M4,37H2V17a1,1,0,0,1,1-1H27v2H4Z"/><path d="M16,44H2a1,1,0,0,1-.986-1.164l1-6A1,1,0,0,1,3,36H15a1,1,0,0,1,.986.836l1,6A1,1,0,0,1,16,44ZM3.181,42H14.819l-.666-4H3.847Z"/><path d="M30,44H16a1,1,0,0,1-.986-1.164l1-6A1,1,0,0,1,17,36H29a1,1,0,0,1,.986.836l1,6A1,1,0,0,1,30,44ZM17.181,42H28.819l-.666-4H17.847Z"/><path d="M23,38H9a1,1,0,0,1-.986-1.164l1-6A1,1,0,0,1,10,30H22a1,1,0,0,1,.986.836l1,6A1,1,0,0,1,23,38ZM10.181,36H21.819l-.666-4H10.847Z"/><path d="M37,38H23a1,1,0,0,1-.986-1.164l1-6A1,1,0,0,1,24,30H36a1,1,0,0,1,.986.836l1,6A1,1,0,0,1,37,38ZM24.181,36H35.819l-.666-4H24.847Z"/><path d="M30,32H16a1,1,0,0,1-.986-1.164l1-6A1,1,0,0,1,17,24H27v2H17.847l-.666,4H28.818l-.474-2.835,1.972-.33.67,4A1,1,0,0,1,30,32Z"/><path d="M44,44H30a1,1,0,0,1-.986-1.164l1-6A1,1,0,0,1,31,36H43a1,1,0,0,1,.986.836l1,6A1,1,0,0,1,44,44ZM31.181,42H42.819l-.666-4H31.847Z"/><path d="M7,37H5V20a1,1,0,0,1,1-1H27v2H7Z"/><path d="M61,28H29a3,3,0,0,1-3-3V15H22a1,1,0,0,1-.707-1.707L26,8.586V3a3,3,0,0,1,3-3H61a3,3,0,0,1,3,3V25A3,3,0,0,1,61,28ZM24.414,13H27a1,1,0,0,1,1,1V25a1,1,0,0,0,1,1H61a1,1,0,0,0,1-1V3a1,1,0,0,0-1-1H29a1,1,0,0,0-1,1V9a1,1,0,0,1-.293.707Z"/><path d="M45,25a1,1,0,0,1-.7-.291l-9.113-9.062a7.382,7.382,0,0,1,0-10.479A7.481,7.481,0,0,1,45,4.55a7.481,7.481,0,0,1,9.818.618h0a7.382,7.382,0,0,1,0,10.479l-9.113,9.062A1,1,0,0,1,45,25ZM40.443,5a5.446,5.446,0,0,0-3.851,1.584,5.383,5.383,0,0,0,0,7.643L45,22.59l8.408-8.361a5.383,5.383,0,0,0,0-7.643h0a5.476,5.476,0,0,0-7.7,0,1,1,0,0,1-1.41,0A5.446,5.446,0,0,0,40.443,5Z"/><rect x="42" y="12.786" width="2" height="8.462" transform="translate(0.613 35.507) rotate(-45.159)"/><rect x="36.924" y="10.507" width="2" height="2.924" transform="translate(2.696 30.422) rotate(-45.162)"/><rect x="42" y="27" width="2" height="10"/><rect x="39" y="27" width="2" height="10"/><rect x="48" y="42" width="6" height="2"/><rect x="47.172" y="37" width="5.657" height="2" transform="translate(-12.225 46.485) rotate(-45)"/><rect x="49" y="45.172" width="2" height="5.657" transform="translate(-19.296 49.414) rotate(-45)"/></g></svg>