<svg id="icons" xmlns="http://www.w3.org/2000/svg" viewBox="0 0 64 64"><defs><style>.cls-1{fill:none;stroke:#000;stroke-linecap:round;stroke-linejoin:round;}</style></defs><title>grapefruit</title><g id="grapefruit"><path class="cls-1" d="M55.98121,41.57193a18.43085,18.43085,0,0,1-36.62766,2.925,19.2396,19.2396,0,0,1-.22852-2.925A18.427,18.427,0,0,1,37.55309,23.14381a17.84781,17.84781,0,0,1,5.01841.70387A18.3928,18.3928,0,0,1,55.98121,41.57193Z"/><circle class="cls-1" cx="37.55672" cy="41.57046" r="4.13229"/><path class="cls-1" d="M38.621,30.68532a10.23723,10.23723,0,0,1,.248,2.15123c-.00045,1.025-.25088,1.8582-1.27864,1.859-1.03647.00263-1.28686-.833-1.28641-1.858s.26229-3.602,1.29005-3.6028a.61181.61181,0,0,1,.42959.18078s.0087-.00185.00184.00868A2.472,2.472,0,0,1,38.621,30.68532Z"/><path class="cls-1" d="M38.59848,52.47345a10.23784,10.23784,0,0,0,.28555-2.14657c.01743-1.02483-.21842-1.8623-1.246-1.881-1.03626-.02073-1.3012.81039-1.31863,1.83522s.19938,3.606,1.227,3.62477a.61179.61179,0,0,0,.43267-.17326s.00867.002.002-.00864A2.47191,2.47191,0,0,0,38.59848,52.47345Z"/><path class="cls-1" d="M48.47944,42.59687a10.238,10.238,0,0,1-2.15123.248c-1.025-.00046-1.8582-.25089-1.859-1.27865-.00263-1.03647.833-1.28686,1.858-1.2864s3.602.26228,3.6028,1.29a.61177.61177,0,0,1-.18078.42959s.00185.0087-.00867.00184A2.472,2.472,0,0,1,48.47944,42.59687Z"/><path class="cls-1" d="M26.69131,42.57437a10.23784,10.23784,0,0,0,2.14657.28555c1.02483.01743,1.8623-.21842,1.881-1.246.02072-1.03626-.8104-1.3012-1.83523-1.31863s-3.606.19938-3.62477,1.227a.61182.61182,0,0,0,.17326.43268s-.002.00867.00864.002A2.47191,2.47191,0,0,0,26.69131,42.57437Z"/><path class="cls-1" d="M44.56542,49.99306a10.23751,10.23751,0,0,1-1.69653-1.34575c-.72445-.72509-1.13655-1.49136-.41037-2.21865.731-.73476,1.499-.32094,2.2234.40415s2.36154,2.73248,1.63536,3.45977a.61182.61182,0,0,1-.43159.17593s-.00485.00746-.00744-.00483A2.472,2.472,0,0,1,44.56542,49.99306Z"/><path class="cls-1" d="M29.17479,34.57062a10.2376,10.2376,0,0,0,1.31595,1.71977c.71233.737,1.47129,1.1624,2.21114.449.74741-.71809.34706-1.49312-.36528-2.23011s-2.69085-2.40888-3.4307-1.6955a.61182.61182,0,0,0-.18344.42846s-.00755.00471.0047.00752A2.472,2.472,0,0,0,29.17479,34.57062Z"/><path class="cls-1" d="M46.047,34.59975a10.23751,10.23751,0,0,1-1.34575,1.69653c-.72509.72445-1.49136,1.13655-2.21865.41037-.73476-.731-.32094-1.499.40415-2.2234s2.73248-2.36154,3.45977-1.63536a.61178.61178,0,0,1,.17593.43159s.00746.00485-.00483.00744A2.472,2.472,0,0,1,46.047,34.59975Z"/><path class="cls-1" d="M30.62457,49.99038a10.2376,10.2376,0,0,0,1.71977-1.316c.737-.71233,1.1624-1.47129.449-2.21114-.71809-.7474-1.49312-.34706-2.23011.36528s-2.40888,2.69085-1.6955,3.4307a.61183.61183,0,0,0,.42846.18344s.00471.00755.00752-.0047A2.472,2.472,0,0,0,30.62457,49.99038Z"/><path class="cls-1" d="M42.5715,23.84768a17.84781,17.84781,0,0,0-5.01841-.70387A18.427,18.427,0,0,0,19.125,41.57193a19.2396,19.2396,0,0,0,.22852,2.925c-6.618-2.75137-11.33476-9.927-11.33476-18.35492,0-10.80457,7.76068-18.56158,17.3312-18.56158,4.11341,0,7.88861.618,10.85941,3.32363a19.09869,19.09869,0,0,1,4.7076,6.61807l.16453.38391a20.46091,20.46091,0,0,1,1.15176,3.76605A21.15446,21.15446,0,0,1,42.5715,23.84768Z"/><path class="cls-1" d="M44.39,13.69a7.29485,7.29485,0,0,1,4.91-.19.88877.88877,0,0,1,.63.92,7.33281,7.33281,0,0,1-3.27,5.59,7.45366,7.45366,0,0,1-4.51,1.32"/><line class="cls-1" x1="41.33746" y1="17.24795" x2="41.32832" y2="17.24795"/><path class="cls-1" d="M44.68305,13.07965c0,.00915-.00915.0183-.00915.02745a9.96458,9.96458,0,0,1-3.33646,4.14081h-.00915a4.01628,4.01628,0,0,1-.41129.27427,19.09869,19.09869,0,0,0-4.7076-6.61807,9.84532,9.84532,0,0,1,6.80085-6.86478,1.17591,1.17591,0,0,1,1.34369.57588A9.63923,9.63923,0,0,1,44.68305,13.07965Z"/><path class="cls-1" d="M53.18789,41.57193A15.63711,15.63711,0,0,1,22.11223,44.0536a16.32385,16.32385,0,0,1-.19388-2.48167A15.63386,15.63386,0,0,1,37.55309,25.93714a15.1423,15.1423,0,0,1,4.25773.59718A15.60481,15.60481,0,0,1,53.18789,41.57193Z"/></g></svg>