<?xml version="1.0" encoding="utf-8"?>
<!-- Generator: Adobe Illustrator 16.0.0, SVG Export Plug-In . SVG Version: 6.00 Build 0)  -->
<!DOCTYPE svg PUBLIC "-//W3C//DTD SVG 1.0//EN" "http://www.w3.org/TR/2001/REC-SVG-20010904/DTD/svg10.dtd">
<svg version="1.0" id="Layer_1" xmlns="http://www.w3.org/2000/svg" xmlns:xlink="http://www.w3.org/1999/xlink" x="0px" y="0px"
	 width="100px" height="100px" viewBox="0 0 100 100" enable-background="new 0 0 100 100" xml:space="preserve">
<path d="M20,26.667c3.682,0,6.667,2.988,6.667,6.667v30C26.667,72.539,34.128,80,43.333,80C52.539,80,60,72.539,60,63.334V40
	c0-1.842,1.491-3.333,3.333-3.333c1.843,0,3.334,1.491,3.334,3.333v16.666C66.667,64.023,72.637,70,80,70v-6.666
	c-3.682,0-6.667-2.988-6.667-6.668V40c0-5.524-4.479-10-10-10c-5.521,0-10,4.476-10,10v23.334c0,5.523-4.479,10-10,10
	c-5.521,0-10-4.477-10-10v-30C33.333,25.973,27.363,20,20,20V26.667z"/>
</svg>
