<?xml version="1.0" encoding="utf-8"?>
<!-- Generator: Adobe Illustrator 16.0.0, SVG Export Plug-In . SVG Version: 6.00 Build 0)  -->
<!DOCTYPE svg PUBLIC "-//W3C//DTD SVG 1.0//EN" "http://www.w3.org/TR/2001/REC-SVG-20010904/DTD/svg10.dtd">
<svg version="1.0" id="Layer_1" xmlns="http://www.w3.org/2000/svg" xmlns:xlink="http://www.w3.org/1999/xlink" x="0px" y="0px"
	 width="100px" height="100px" viewBox="0 0 100 100" enable-background="new 0 0 100 100" xml:space="preserve">
<path d="M70,23.335v-6.668C70,12.985,67.018,10,63.333,10l-26.666,0.002c-3.682,0-6.667,2.983-6.667,6.666v6.667L23.334,90h53.332
	L70,23.335z M36.667,16.668h26.666v6.667H36.667V16.668z M30.7,83.333l5.335-53.332h27.933L69.3,83.333H30.7z"/>
<circle cx="41.667" cy="75" r="3.333"/>
<circle cx="58.333" cy="75" r="3.333"/>
<circle cx="50" cy="67.5" r="3.333"/>
<circle cx="41.667" cy="60" r="3.333"/>
<circle cx="58.333" cy="60" r="3.333"/>
<circle cx="50" cy="52.501" r="3.333"/>
<circle cx="41.667" cy="45.001" r="3.333"/>
<circle cx="58.333" cy="45.001" r="3.333"/>
<circle cx="50" cy="37.501" r="3.333"/>
</svg>
