<svg xmlns="http://www.w3.org/2000/svg" width="128" height="128" viewBox="0 0 128 128">
  <title>HAMMER</title>
  <g>
    <g>
      <rect x="53.116" y="37.745" width="15.118" height="45.921" transform="translate(60.697 -25.124) rotate(45)" fill="#896748"/>
      <path d="M126.242,55.217,114.909,43.884l-3.871,3.871-5.91-5.91,2.8-2.8a6.256,6.256,0,0,0,0-8.847L91.179,13.457a6.256,6.256,0,0,0-8.847,0l-.762.761A36.646,36.646,0,0,0,51.461,9.834h0l3.694,2.38A39.219,39.219,0,0,1,68.708,27.081h0l-.17.169a6.256,6.256,0,0,0,0,8.847L85.283,52.842a6.257,6.257,0,0,0,8.848,0l2.8-2.8,5.91,5.91-3.87,3.87L110.3,71.16s5.468.434,10.923-5.02S126.242,55.217,126.242,55.217Z" fill="#fedb41"/>
      <path d="M15.154,69.345h21.9a0,0,0,0,1,0,0v47.7a4.171,4.171,0,0,1-4.171,4.171H19.325a4.171,4.171,0,0,1-4.171-4.171v-47.7a0,0,0,0,1,0,0Z" transform="translate(75.017 9.45) rotate(45)" fill="#57555c"/>
      <rect x="80.021" y="24.939" width="16.421" height="16.421" transform="translate(49.283 -52.68) rotate(45)" fill="#fea832"/>
    </g>
    <g>
      <path d="M55.743,57.422l2.4-2.4a1.75,1.75,0,0,0-2.475-2.475l-2.4,2.4a1.75,1.75,0,1,0,2.474,2.475Z"/>
      <path d="M127.986,55.079a1.741,1.741,0,0,0-.507-1.1L116.146,42.646a1.75,1.75,0,0,0-2.474,0l-2.634,2.634L107.6,41.845l1.559-1.559a8.006,8.006,0,0,0,0-11.322L92.416,12.219A8.006,8.006,0,0,0,81.317,12a38.362,38.362,0,0,0-30.346-3.85,1.75,1.75,0,0,0-.458,3.151l3.694,2.38A37.533,37.533,0,0,1,66.584,26.833a8.019,8.019,0,0,0,.717,10.5l1.79,1.791-5.608,5.608a1.75,1.75,0,0,0,2.475,2.475L71.565,41.6l8.216,8.215-30,30L41.57,71.6l6.361-6.362a1.75,1.75,0,0,0-2.475-2.474L39.1,69.121l-1.159-1.159a1.751,1.751,0,0,0-2.475,0L1.734,101.69a5.928,5.928,0,0,0,0,8.373l9.584,9.583a5.918,5.918,0,0,0,8.373,0L53.418,85.919a1.748,1.748,0,0,0,0-2.474L52.26,82.286l30-30,1.79,1.79a8.017,8.017,0,0,0,11.322,0l1.559-1.559,3.434,3.436L97.728,58.59a1.751,1.751,0,0,0,0,2.475L109.061,72.4a1.75,1.75,0,0,0,2.475-2.475l-10.1-10.1,2.633-2.633a1.749,1.749,0,0,0,0-2.475l-5.909-5.91a1.749,1.749,0,0,0-2.475,0l-2.795,2.8a4.514,4.514,0,0,1-6.374,0L69.775,34.86a4.512,4.512,0,0,1,0-6.369l.17-.169a1.751,1.751,0,0,0,.32-2.049A41.05,41.05,0,0,0,56.1,10.743l-.209-.135A34.884,34.884,0,0,1,80.622,15.69a1.752,1.752,0,0,0,2.186-.234l.761-.762a4.5,4.5,0,0,1,6.372,0L106.686,31.44a4.5,4.5,0,0,1,0,6.371l-2.8,2.8a1.749,1.749,0,0,0,0,2.475l5.91,5.91a1.75,1.75,0,0,0,2.474,0l2.634-2.634,9.58,9.581c-.083,1.421-.686,5.145-4.505,8.963a17.753,17.753,0,0,1-2.406,2.026,1.75,1.75,0,0,0,2,2.872,21.294,21.294,0,0,0,2.881-2.423C128.416,61.42,128.007,55.334,127.986,55.079ZM17.216,117.172a2.479,2.479,0,0,1-3.423,0l-9.584-9.584a2.424,2.424,0,0,1,0-3.424L36.7,71.675,49.706,84.682Z"/>
      <path d="M88.231,19.788a1.751,1.751,0,0,0-1.237.512L75.382,31.912a1.749,1.749,0,0,0,0,2.475L86.994,46a1.749,1.749,0,0,0,2.475,0L101.08,34.387a1.749,1.749,0,0,0,0-2.475L89.469,20.3A1.751,1.751,0,0,0,88.231,19.788Zm0,22.5-9.137-9.137,9.137-9.136,9.137,9.136Z"/>
    </g>
  </g>
</svg>
