<?xml version="1.0" encoding="utf-8"?>
<!-- Generator: Adobe Illustrator 24.0.0, SVG Export Plug-In . SVG Version: 6.00 Build 0)  -->
<svg version="1.1" xmlns="http://www.w3.org/2000/svg" xmlns:xlink="http://www.w3.org/1999/xlink" x="0px" y="0px"
	 viewBox="0 0 256 256" enable-background="new 0 0 256 256" xml:space="preserve">
<g id="Layer_1">
</g>
<g id="Layer_2">
</g>
<g id="Layer_3">
</g>
<g id="Layer_4">
</g>
<g id="Layer_5">
</g>
<g id="Layer_6">
</g>
<g id="Layer_7">
</g>
<g id="Layer_8">
</g>
<g id="Layer_9">
</g>
<g id="Layer_10">
</g>
<g id="Layer_11">
</g>
<g id="Layer_12">
</g>
<g id="Layer_13">
</g>
<g id="Layer_14">
</g>
<g id="Layer_15">
</g>
<g id="Layer_16">
</g>
<g id="Layer_17">
</g>
<g id="Layer_18">
</g>
<g id="Layer_19">
</g>
<g id="Layer_20">
</g>
<g id="Layer_21">
</g>
<g id="Layer_22">
</g>
<g id="Layer_23">
</g>
<g id="Layer_24">
</g>
<g id="Layer_25">
</g>
<g id="Layer_26">
</g>
<g id="Layer_27">
</g>
<g id="Layer_28">
</g>
<g id="Layer_29">
</g>
<g id="Layer_30">
</g>
<g id="Layer_31">
</g>
<g id="Layer_32">
</g>
<g id="Layer_33">
</g>
<g id="Layer_34">
</g>
<g id="Layer_35">
</g>
<g id="Layer_36">
</g>
<g id="Layer_37">
</g>
<g id="Layer_38">
</g>
<g id="Layer_39">
</g>
<g id="Layer_40">
</g>
<g id="Layer_41">
</g>
<g id="Layer_42">
</g>
<g id="Layer_43">
</g>
<g id="Layer_44">
</g>
<g id="Layer_45">
</g>
<g id="Layer_46">
</g>
<g id="Layer_47">
</g>
<g id="Layer_48">
</g>
<g id="Layer_49">
</g>
<g id="Layer_50">
</g>
<g id="Layer_51">
</g>
<g id="Layer_52">
</g>
<g id="Layer_53">
</g>
<g id="Layer_54">
</g>
<g id="Layer_55">
</g>
<g id="Layer_56">
</g>
<g id="Layer_57">
</g>
<g id="Layer_58">
</g>
<g id="Layer_59">
</g>
<g id="Layer_60">
</g>
<g id="Layer_61">
</g>
<g id="Layer_62">
</g>
<g id="Layer_63">
</g>
<g id="Layer_64">
</g>
<g id="Layer_65">
</g>
<g id="Layer_66">
</g>
<g id="Layer_67">
</g>
<g id="Layer_68">
</g>
<g id="Layer_69">
</g>
<g id="Layer_70">
</g>
<g id="Layer_71">
</g>
<g id="Layer_72">
</g>
<g id="Layer_73">
</g>
<g id="Layer_74">
</g>
<g id="Layer_75">
</g>
<g id="Layer_76">
</g>
<g id="Layer_77">
</g>
<g id="Layer_78">
</g>
<g id="Layer_79">
</g>
<g id="Layer_80">
</g>
<g id="Layer_81">
</g>
<g id="Layer_82">
</g>
<g id="Layer_83">
</g>
<g id="Layer_84">
</g>
<g id="Layer_85">
</g>
<g id="Layer_86">
</g>
<g id="Layer_87">
	<g>
		<g>
			<g>
				<path fill="#70D6F9" d="M200.552,6.21c-3.157-0.562-5.613-3.018-6.245-6.104c0-0.141-0.281-0.141-0.281,0
					c-0.631,3.087-3.087,5.543-6.245,6.104c-0.14,0-0.14,0.21,0,0.28c3.157,0.562,5.613,3.018,6.245,6.104
					c0,0.141,0.281,0.141,0.281,0c0.632-3.087,3.087-5.543,6.245-6.104C200.693,6.42,200.693,6.21,200.552,6.21z"/>
			</g>
		</g>
		<g>
			<g>
				<path fill="#87D147" d="M213.142,244.1h-2.3v-2.3c0-1.7-1.4-3.2-3.2-3.2c-1.8,0-3.2,1.4-3.2,3.2v2.3h-2.3
					c-1.7,0-3.2,1.4-3.2,3.2c0,1.8,1.4,3.2,3.2,3.2h2.3v2.3c0,1.7,1.4,3.2,3.2,3.2c1.8,0,3.2-1.4,3.2-3.2v-2.3h2.3
					c1.7,0,3.2-1.4,3.2-3.2C216.342,245.5,214.942,244.1,213.142,244.1z"/>
			</g>
		</g>
		<g>
			<g>
				<path fill="#F5C84C" d="M39.742,20.623c-4.5-0.8-8-4.3-8.9-8.7c0-0.2-0.4-0.2-0.4,0c-0.9,4.4-4.4,7.9-8.9,8.7
					c-0.2,0-0.2,0.3,0,0.4c4.5,0.8,8,4.3,8.9,8.7c0,0.2,0.4,0.2,0.4,0c0.9-4.4,4.4-7.9,8.9-8.7
					C39.942,20.923,39.942,20.623,39.742,20.623z"/>
			</g>
		</g>
		<g>
			<g>
				<path fill="#FC657E" d="M12.742,40c-1.878,0-3.4,1.522-3.4,3.4c0,1.878,1.522,3.4,3.4,3.4s3.4-1.522,3.4-3.4
					C16.142,41.522,14.62,40,12.742,40z"/>
			</g>
		</g>
		<g>
			<g>
				<path fill="#F5C84C" d="M229.742,225c-1.878,0-3.4,1.522-3.4,3.4c0,1.878,1.522,3.4,3.4,3.4s3.4-1.522,3.4-3.4
					C233.142,226.522,231.62,225,229.742,225z"/>
			</g>
		</g>
		<g>
			<g>
				<g>
					<path fill="#FC657E" d="M128,17.18c-61.122,0-110.848,49.726-110.848,110.848c0,29.697,11.555,57.564,32.536,78.468
						c20.923,20.846,48.73,32.325,78.301,32.325H128c29.646-0.003,57.483-11.514,78.381-32.412
						c20.937-20.937,32.467-48.772,32.467-78.381C238.848,66.905,189.122,17.18,128,17.18z M181.341,202.819
						c-60.276,43.259-145.222-0.016-145.222-74.792c0-19.406,5.98-37.891,17.061-53.359c0.985-1.375,2.969-1.546,4.165-0.35
						l124.341,124.341C182.879,199.853,182.713,201.835,181.341,202.819z M202.823,181.382c-0.986,1.377-2.97,1.552-4.167,0.354
						L74.291,57.372c-1.198-1.198-1.023-3.181,0.354-4.167c15.464-11.077,33.943-17.056,53.343-17.058
						c50.479-0.006,91.893,41.402,91.892,91.881C219.881,147.432,213.902,165.915,202.823,181.382z"/>
				</g>
			</g>
		</g>
		<g>
			<g>
				<g>
					<g>
						<path fill="#F98FA6" d="M128,7.18C61.364,7.18,7.152,61.392,7.152,128.027c0,32.376,12.6,62.759,35.478,85.552
							c22.811,22.728,53.122,35.241,85.359,35.241H128c32.317-0.003,62.665-12.555,85.452-35.342
							c22.825-22.824,35.396-53.172,35.396-85.451C248.848,61.392,194.636,7.18,128,7.18z M206.381,206.408
							c-20.898,20.898-48.735,32.409-78.381,32.412h-0.01c-29.571,0-57.378-11.479-78.301-32.325
							c-20.981-20.903-32.536-48.771-32.536-78.468C17.152,66.905,66.878,17.18,128,17.18s110.848,49.726,110.848,110.848
							C238.848,157.636,227.317,185.472,206.381,206.408z"/>
					</g>
				</g>
			</g>
		</g>
		<g>
			<g>
				<path fill="#DAE6F1" d="M156.53,173.504H95.867c-1.331,0-2.411,1.079-2.411,2.411v12.703h67.671v-10.516L156.53,173.504z"/>
			</g>
		</g>
		<g>
			<g>
				<path fill="#F9D0B4" d="M156.53,173.504l-62.779-62.779l0,28.716c0,3.497,0.548,6.972,1.624,10.298
					c1.193,4.314,3.712,9.173,3.712,17.269v6.496H156.53z"/>
			</g>
		</g>
		<g>
			<g>
				<path fill="#F9D0B4" d="M178.968,104.388c-3.684-2.456-8.654-1.533-11.21,2.083l-10.182,15.539
					c-0.393,0.555-1.267,0.277-1.267-0.403V72.43c0,0.061,0-0.199,0-0.259c0-4.421-3.681-7.998-8.165-7.802
					c-3.686,0.161-6.613,2.821-7.313,6.216c-0.123,0.599-0.161,1.15-0.161,1.586v-9.298c0-4.282-3.299-8.016-7.579-8.144
					c-4.428-0.133-8.06,3.417-8.06,7.816v9.626c0-4.398-3.632-7.949-8.06-7.816c-4.28,0.128-7.579,3.862-7.579,8.144v9.298
					c0-4.399-3.632-7.949-8.06-7.816c-2.778,0.083-5.136,1.69-6.454,3.976l70.728,70.729c1.62-2.761,3.122-5.589,4.435-8.513
					l11.851-25.632C183.527,110.896,182.291,106.604,178.968,104.388z"/>
			</g>
		</g>
		<g>
			<g>
				<path fill="#70D6F9" d="M161.263,188.618H93.321c-1.331,0-2.411,1.08-2.411,2.411v20.935c22.35,9.926,48.577,11.205,72.763,0.85
					v-21.785C163.674,189.697,162.594,188.618,161.263,188.618z"/>
			</g>
		</g>
		<g>
			<g>
				<path d="M140.669,69.67c-1.381,0-2.5,1.119-2.5,2.5v32.89c0,1.381,1.119,2.5,2.5,2.5s2.5-1.119,2.5-2.5V72.17
					C143.169,70.789,142.05,69.67,140.669,69.67z"/>
			</g>
		</g>
		<g>
			<g>
				<path d="M125.029,69.67c-1.381,0-2.5,1.119-2.5,2.5v32.89c0,1.381,1.119,2.5,2.5,2.5s2.5-1.119,2.5-2.5V72.17
					C127.529,70.789,126.41,69.67,125.029,69.67z"/>
			</g>
		</g>
		<g>
			<g>
				<path d="M109.39,69.67c-1.381,0-2.5,1.119-2.5,2.5v19.89c0,1.381,1.119,2.5,2.5,2.5s2.5-1.119,2.5-2.5V72.17
					C111.89,70.789,110.771,69.67,109.39,69.67z"/>
			</g>
		</g>
		<g>
			<g>
				<path d="M161.128,176.362c-1.381,0-2.5,1.119-2.5,2.5v8.5c0,1.381,1.119,2.5,2.5,2.5s2.5-1.119,2.5-2.5v-8.5
					C163.628,177.481,162.509,176.362,161.128,176.362z"/>
			</g>
		</g>
		<g>
			<g>
				<path d="M156.036,171.004H95.867c-2.708,0-4.911,2.203-4.911,4.91v11.543c0,1.381,1.119,2.5,2.5,2.5s2.5-1.119,2.5-2.5v-11.453
					h60.08c1.381,0,2.5-1.119,2.5-2.5S157.417,171.004,156.036,171.004z"/>
			</g>
		</g>
		<g>
			<g>
				<g>
					<path d="M98.775,152.169c-0.372-1.097-0.724-2.132-0.991-3.096c-0.01-0.035-0.02-0.069-0.031-0.104
						c-0.998-3.083-1.503-6.289-1.503-9.529v-27.71c0-1.381-1.119-2.5-2.5-2.5s-2.5,1.119-2.5,2.5v27.71
						c0,3.746,0.582,7.452,1.729,11.018c0.302,1.086,0.671,2.172,1.062,3.319c1.193,3.511,2.545,7.489,2.545,13.23v4.88
						c0,1.381,1.119,2.5,2.5,2.5s2.5-1.119,2.5-2.5v-4.88C101.587,160.439,100.028,155.854,98.775,152.169z"/>
				</g>
			</g>
			<g>
				<g>
					<path d="M180.354,102.308c-4.846-3.231-11.276-2.036-14.688,2.792l-6.858,10.469V72.17c0-2.839-1.13-5.483-3.182-7.448
						c-2.051-1.963-4.751-2.972-7.591-2.852c-1.768,0.077-3.428,0.597-4.866,1.459v-0.457c0-5.703-4.488-10.478-10.003-10.643
						c-2.825-0.071-5.482,0.948-7.502,2.907c-2.021,1.961-3.134,4.592-3.134,7.407v0.778c-1.68-1.015-3.607-1.532-5.635-1.467
						c-5.516,0.166-10.004,4.94-10.004,10.643v0.45c-1.68-1.015-3.609-1.533-5.636-1.467c-3.045,0.092-5.882,1.573-7.782,4.065
						c-0.837,1.098-0.625,2.667,0.473,3.504c1.097,0.836,2.667,0.625,3.504-0.473c0.981-1.288,2.423-2.053,3.955-2.099
						c1.458-0.06,2.829,0.488,3.87,1.499c1.042,1.011,1.616,2.367,1.616,3.818c0,1.381,1.119,2.5,2.5,2.5s2.5-1.119,2.5-2.5v-9.299
						c0-3.027,2.312-5.56,5.154-5.645c1.467-0.046,2.829,0.489,3.87,1.499c1.042,1.011,1.615,2.366,1.615,3.817
						c0,1.381,1.119,2.5,2.5,2.5s2.5-1.119,2.5-2.5v-9.626c0-1.451,0.574-2.808,1.616-3.818c1.041-1.011,2.414-1.555,3.87-1.498
						c2.842,0.085,5.154,2.617,5.154,5.645v9.298c0,1.381,1.119,2.5,2.5,2.5s2.5-1.119,2.5-2.5c0-0.25,0.019-0.64,0.11-1.08
						c0.49-2.381,2.536-4.118,4.974-4.224c1.469-0.066,2.86,0.457,3.916,1.468c1.057,1.012,1.64,2.374,1.64,3.836v49.436
						c0,1.399,0.896,2.624,2.229,3.048c1.333,0.423,2.771-0.059,3.63-1.274l10.131-15.466c1.788-2.527,5.207-3.163,7.783-1.445
						c2.316,1.545,3.17,4.509,2.041,7.023l-11.863,25.656c-1.114,2.48-2.414,5.016-3.863,7.536
						c-0.688,1.197-0.275,2.726,0.921,3.413c0.393,0.227,0.821,0.333,1.244,0.333c0.866,0,1.708-0.45,2.17-1.254
						c1.531-2.664,2.907-5.349,4.077-7.955l11.863-25.656C186.317,110.788,184.711,105.213,180.354,102.308z"/>
				</g>
			</g>
		</g>
		<g>
			<g>
				<path d="M161.263,186.118H93.321c-2.708,0-4.911,2.203-4.911,4.91v19.997c0,1.381,1.119,2.5,2.5,2.5s2.5-1.119,2.5-2.5v-19.907
					h67.763v20.871c0,1.381,1.119,2.5,2.5,2.5s2.5-1.119,2.5-2.5v-20.961C166.173,188.321,163.97,186.118,161.263,186.118z"/>
			</g>
		</g>
		<g>
			<g>
				<g>
					<path d="M194.632,61.387c-17.892-17.89-41.553-27.74-66.631-27.74h-0.013c-19.847,0.002-38.796,6.063-54.799,17.525
						c-1.258,0.901-2.053,2.303-2.179,3.844c-0.125,1.533,0.426,3.036,1.514,4.123l124.364,124.365v0.001
						c0.986,0.984,2.312,1.529,3.693,1.529c0.143,0,0.287-0.006,0.431-0.018c1.541-0.126,2.941-0.921,3.842-2.179
						c11.466-16.006,17.526-34.959,17.526-54.811C222.381,102.945,212.526,79.279,194.632,61.387z M200.791,179.926
						c-0.047,0.065-0.11,0.102-0.188,0.108c-0.104,0.005-0.16-0.046-0.18-0.066v0.001L76.059,55.603
						c-0.021-0.02-0.074-0.073-0.065-0.179c0.006-0.078,0.042-0.141,0.108-0.188c15.148-10.852,33.091-16.588,51.888-16.59h0.012
						c23.741,0,46.149,9.332,63.096,26.276c16.95,16.947,26.284,39.358,26.284,63.104
						C217.381,146.828,211.644,164.774,200.791,179.926z M59.112,72.551c-1.088-1.088-2.59-1.64-4.126-1.514
						c-1.54,0.126-2.939,0.92-3.838,2.176c-11.467,16.006-17.529,34.961-17.529,54.814c0,36.019,19.196,67.374,51.35,83.875
						c13.606,6.982,28.571,10.618,43.566,10.618c1.602,0,3.207-0.042,4.807-0.125c17.642-0.919,34.744-6.986,49.457-17.545
						c1.252-0.899,2.042-2.297,2.168-3.834c0.125-1.534-0.427-3.038-1.514-4.125L59.112,72.551z M179.884,200.788
						c-27.574,19.79-62.203,22.283-92.632,6.666c-30.452-15.628-48.633-45.32-48.633-79.427c0-18.803,5.738-36.751,16.594-51.902
						c0.045-0.063,0.106-0.099,0.183-0.104c0.008-0.001,0.015-0.001,0.022-0.001c0.092,0,0.142,0.05,0.16,0.066l124.341,124.341
						c0.019,0.019,0.075,0.075,0.066,0.184C179.978,200.685,179.944,200.745,179.884,200.788z M128,14.68
						c-62.5,0-113.348,50.848-113.348,113.348c0,30.367,11.816,58.863,33.271,80.239C69.318,229.581,97.752,241.32,128,241.32
						c30.314-0.003,58.779-11.773,80.149-33.145c21.409-21.408,33.199-49.872,33.199-80.148C241.348,65.527,190.5,14.68,128,14.68z
						 M204.613,204.641c-20.426,20.426-47.635,31.677-76.624,31.68c-28.905,0-56.086-11.221-76.537-31.597
						c-20.507-20.431-31.8-47.668-31.8-76.696C19.652,68.284,68.257,19.68,128,19.68s108.348,48.604,108.348,108.348
						C236.348,156.968,225.078,184.176,204.613,204.641z"/>
				</g>
			</g>
		</g>
		<g>
			<g>
				<g>
					<g>
						<path d="M128,14.68c-62.5,0-113.348,50.848-113.348,113.348c0,30.367,11.816,58.863,33.271,80.239
							C69.318,229.581,97.752,241.32,128,241.32c30.314-0.003,58.779-11.773,80.149-33.145
							c21.409-21.408,33.199-49.872,33.199-80.148C241.348,65.527,190.5,14.68,128,14.68z M204.613,204.641
							c-20.426,20.426-47.635,31.677-76.624,31.68c-28.905,0-56.086-11.221-76.537-31.597c-20.507-20.431-31.8-47.668-31.8-76.696
							C19.652,68.284,68.257,19.68,128,19.68s108.348,48.604,108.348,108.348C236.348,156.968,225.078,184.176,204.613,204.641z
							 M128,4.68C59.986,4.68,4.652,60.014,4.652,128.027c0,33.046,12.861,64.058,36.213,87.323
							c23.281,23.195,54.222,35.97,87.135,35.97c32.985-0.003,63.96-12.814,87.219-36.074
							c23.297-23.296,36.128-54.271,36.128-87.219C251.348,60.014,196.014,4.68,128,4.68z M211.685,211.711
							c-22.315,22.315-52.035,34.606-83.695,34.609c-31.569,0-61.257-12.257-83.594-34.513
							c-22.404-22.32-34.743-52.074-34.743-83.78C9.652,62.771,62.743,9.68,128,9.68s118.348,53.091,118.348,118.348
							C246.348,159.64,234.038,189.358,211.685,211.711z"/>
					</g>
				</g>
			</g>
		</g>
	</g>
</g>
<g id="Layer_88">
</g>
<g id="Layer_89">
</g>
<g id="Layer_90">
</g>
</svg>
