<svg xmlns="http://www.w3.org/2000/svg" width="128" height="128" viewBox="0 0 128 128">
  <title>HAND SAW</title>
  <g>
    <g>
      <path d="M75.3,92.2,42.321,59.225,8.172,93.374a6.693,6.693,0,0,0,0,9.466l6.233,6.233a6.705,6.705,0,0,0,3.313,1.808l14.593,3.167L42.88,124.616a5.576,5.576,0,0,0,7.888,0L75.3,100.088A5.576,5.576,0,0,0,75.3,92.2ZM46.824,115.939l-24.3-24.3,19.795-19.8,24.3,24.3Z" fill="#fedb41"/>
      <path d="M98.489,3.057,42.321,59.225l7.321,7.321L108.965,7.223,104.8,3.057A4.461,4.461,0,0,0,98.489,3.057Z" fill="#57555c"/>
      <polygon points="49.642 66.546 73.768 90.671 78.37 83.379 88.868 83.862 84.357 75.148 94.354 75.608 89.844 66.893 99.841 67.353 95.331 58.639 105.328 59.099 100.818 50.385 110.815 50.845 106.305 42.131 116.302 42.591 111.791 33.876 121.788 34.337 116.169 23.478 119.671 17.928 108.965 7.223 49.642 66.546" fill="#e5e5e5"/>
    </g>
    <g>
      <path d="M43.559,70.608a1.749,1.749,0,0,0-2.475,0l-19.8,19.8a1.749,1.749,0,0,0,0,2.475l24.3,24.3a1.75,1.75,0,1,0,2.474-2.475L25,91.641,42.321,74.32,64.144,96.144,53.488,106.8a1.75,1.75,0,1,0,2.475,2.474L67.856,97.381a1.748,1.748,0,0,0,0-2.474Z"/>
      <path d="M70.227,43.486l-2.446,2.446a1.75,1.75,0,0,0,2.475,2.475L72.7,45.96a1.75,1.75,0,0,0-2.475-2.474Z"/>
      <path d="M123.343,33.532l-5.159-9.968,2.967-4.7a1.75,1.75,0,0,0-.243-2.171L106.036,1.82a6.209,6.209,0,0,0-8.784,0L6.935,92.136a8.441,8.441,0,0,0,0,11.941l6.232,6.232a8.4,8.4,0,0,0,4.18,2.281l14.09,3.059,10.206,10.2a7.327,7.327,0,0,0,10.362,0l24.529-24.529a7.336,7.336,0,0,0,0-10.363L76,90.423l3.312-5.249,9.48.436a1.75,1.75,0,0,0,1.635-2.552l-3.117-6.023,6.969.32A1.749,1.749,0,0,0,95.908,74.8l-3.117-6.022,6.97.321a1.751,1.751,0,0,0,1.634-2.553l-3.117-6.023,6.97.321a1.75,1.75,0,0,0,1.634-2.553l-3.117-6.021,6.969.32a1.75,1.75,0,0,0,1.635-2.552l-3.117-6.023,6.97.321a1.75,1.75,0,0,0,1.633-2.553l-3.117-6.022,6.97.32a1.75,1.75,0,0,0,1.635-2.552ZM74.06,98.851,49.53,123.379a3.92,3.92,0,0,1-5.413,0L33.549,112.81a1.753,1.753,0,0,0-.866-.472L18.089,109.17a4.92,4.92,0,0,1-2.446-1.335L9.409,101.6a4.943,4.943,0,0,1,0-6.991L42.321,61.7,74.06,93.437A3.834,3.834,0,0,1,74.06,98.851Zm37.811-66.723a1.75,1.75,0,0,0-1.634,2.553l3.117,6.022-6.969-.321a1.728,1.728,0,0,0-1.554.8,1.753,1.753,0,0,0-.081,1.749l3.117,6.022-6.97-.32a1.75,1.75,0,0,0-1.633,2.553l3.117,6.021-6.97-.32a1.75,1.75,0,0,0-1.635,2.552l3.118,6.023-6.97-.321a1.73,1.73,0,0,0-1.554.8,1.75,1.75,0,0,0-.08,1.749l3.117,6.022-6.97-.321A1.751,1.751,0,0,0,82.8,75.952l3.117,6.023-7.47-.344a1.741,1.741,0,0,0-1.56.814l-3.433,5.44-21.34-21.34,8.5-8.5a1.75,1.75,0,0,0-2.474-2.475L49.643,64.07l-4.749-4.747-.1-.1L99.727,4.294a2.776,2.776,0,0,1,3.834,0l2.929,2.929L79.87,33.843a1.75,1.75,0,0,0,2.475,2.474L108.965,9.7l8.479,8.48-2.756,4.367a1.752,1.752,0,0,0-.074,1.738l4.227,8.167Z"/>
    </g>
  </g>
</svg>
