<?xml version="1.0" encoding="utf-8"?>
<!-- Generator: Adobe Illustrator 16.0.0, SVG Export Plug-In . SVG Version: 6.00 Build 0)  -->
<!DOCTYPE svg PUBLIC "-//W3C//DTD SVG 1.0//EN" "http://www.w3.org/TR/2001/REC-SVG-20010904/DTD/svg10.dtd">
<svg version="1.0" id="Layer_1" xmlns="http://www.w3.org/2000/svg" xmlns:xlink="http://www.w3.org/1999/xlink" x="0px" y="0px"
	 width="100px" height="100px" viewBox="0 0 100 100" enable-background="new 0 0 100 100" xml:space="preserve">
<path d="M86.667,63.334h-3.334v-10c0-3.682-2.984-6.667-6.666-6.667H53.333v-10h3.334c1.832,0,3.333-1.5,3.333-3.333v-20
	C60,11.5,58.499,10,56.667,10H43.333C41.501,10,40,11.5,40,13.333v20c0,1.833,1.501,3.333,3.333,3.333h3.334v10H23.333
	c-3.682,0-6.666,2.985-6.666,6.667v10h-3.334c-1.832,0-3.333,1.5-3.333,3.332v20.001C10,88.499,11.501,90,13.333,90h13.334
	C28.499,90,30,88.499,30,86.667V66.666c0-1.832-1.501-3.332-3.333-3.332h-3.334v-10h23.334v10h-3.334
	c-1.832,0-3.333,1.5-3.333,3.332v20.001C40,88.499,41.501,90,43.333,90h13.334C58.499,90,60,88.499,60,86.667V66.666
	c0-1.832-1.501-3.332-3.333-3.332h-3.334v-10h23.334v10h-3.334c-1.832,0-3.333,1.5-3.333,3.332v20.001
	C70,88.499,71.501,90,73.333,90h13.334C88.499,90,90,88.499,90,86.667V66.666C90,64.834,88.499,63.334,86.667,63.334z
	 M23.333,83.333h-6.666V70h6.666V83.333z M53.333,83.333h-6.666V70h6.666V83.333z M46.667,30V16.667h6.666V30H46.667z
	 M83.333,83.333h-6.666V70h6.666V83.333z"/>
</svg>
