<svg xmlns="http://www.w3.org/2000/svg" viewBox="0 0 64 64"><g id="_27-Placeholder" data-name="27-Placeholder"><polygon points="63 59 63 63 1 63 1 59 5 59 13 59 29 59 37 59 41 59 57 59 61 59 63 59" style="fill:#7f709a"/><polygon points="63 61 63 63 1 63 1 61 5 61 13 61 29 61 37 61 41 61 57 61 61 61 63 61" style="fill:#897cac"/><polygon points="63 36 63 40 61 40 37 40 37 36 63 36" style="fill:#ea5073"/><polygon points="21 15 41 31 39 33 37 31.44 21 19 5 31.44 3 33 1 31 21 15" style="fill:#ea5073"/><rect x="13" y="41" width="16" height="18" style="fill:#fc8aa3"/><path d="M25,41v2A12,12,0,0,1,13,55h0v4H29V41Z" style="fill:#fc708d"/><path d="M25.97,27.94a3.01,3.01,0,0,1,0,4.53L21,37l-4.97-4.53a3.01,3.01,0,0,1,0-4.53,3.762,3.762,0,0,1,4.97,0A3.762,3.762,0,0,1,25.97,27.94Z" style="fill:#ea5073"/><path d="M25.97,27.94a3.742,3.742,0,0,0-3.485-.79,3.545,3.545,0,0,1,1.485.79,3.01,3.01,0,0,1,0,4.53L20,36.089,21,37l4.97-4.53A3.01,3.01,0,0,0,25.97,27.94Z" style="fill:#d83a5c"/><path d="M55.63,11.31a4.359,4.359,0,0,1,0,6.35L49,24l-6.63-6.34a4.359,4.359,0,0,1,0-6.35,4.843,4.843,0,0,1,6.63,0A4.843,4.843,0,0,1,55.63,11.31Z" style="fill:#ea5073"/><path d="M55.63,11.31a4.837,4.837,0,0,0-5.315-.866,4.657,4.657,0,0,1,1.315.866,4.359,4.359,0,0,1,0,6.35L47,22.087,49,24l6.63-6.34A4.359,4.359,0,0,0,55.63,11.31Z" style="fill:#d83a5c"/><path d="M63,15a13.99,13.99,0,0,1-9.1,13.1L49,33l-4.9-4.9A13.994,13.994,0,1,1,63,15Zm-7.37,2.66a4.359,4.359,0,0,0,0-6.35,4.843,4.843,0,0,0-6.63,0,4.843,4.843,0,0,0-6.63,0,4.359,4.359,0,0,0,0,6.35L49,24Z" style="fill:#fbdbe0"/><path d="M42.37,17.66a4.359,4.359,0,0,1,0-6.35,4.726,4.726,0,0,1,2.315-1.2,4.82,4.82,0,0,0-4.315,1.2,4.359,4.359,0,0,0,0,6.35L47,24l1-.956Z" style="fill:#fcacbc"/><path d="M48,10.6a4.6,4.6,0,0,1,1,.707,4.726,4.726,0,0,1,2.315-1.2A4.865,4.865,0,0,0,48,10.6Z" style="fill:#fcacbc"/><path d="M49,1c-.338,0-.668.027-1,.051A13.982,13.982,0,0,1,51.9,28.1L48,32l1,1,4.9-4.9A13.991,13.991,0,0,0,49,1Z" style="fill:#fcacbc"/><rect x="41" y="48" width="16" height="4" style="fill:#fc8aa3"/><rect x="41" y="44" width="16" height="4" style="fill:#fcacbc"/><rect x="41" y="52" width="16" height="7" style="fill:#9891c3"/><path d="M49,55h8V52H41v7h4A4,4,0,0,1,49,55Z" style="fill:#897cac"/><polygon points="61 40 61 59 57 59 57 52 57 48 57 44 41 44 41 48 41 52 41 59 37 59 37 40 61 40" style="fill:#d1d1e7"/><path d="M37,40V59H29V41H13V59H5V31.44L21,19,37,31.44V40ZM25.97,32.47a3.01,3.01,0,0,0,0-4.53,3.762,3.762,0,0,0-4.97,0,3.762,3.762,0,0,0-4.97,0,3.01,3.01,0,0,0,0,4.53L21,37Z" style="fill:#ebebf5"/><path d="M16.03,35.47,21,40l4.97-4.53a2.987,2.987,0,0,0,.6-3.765,3.182,3.182,0,0,1-.6.765L21,37l-4.97-4.53a3.182,3.182,0,0,1-.6-.765A2.987,2.987,0,0,0,16.03,35.47Z" style="fill:#d1d1e7"/><polygon points="21 19 5 31.44 5 34.44 21 22 37 34.44 37 31.44 21 19" style="fill:#d1d1e7"/><path d="M63,64H1a1,1,0,0,1-1-1V59a1,1,0,0,1,1-1H63a1,1,0,0,1,1,1v4A1,1,0,0,1,63,64ZM2,62H62V60H2Z"/><path d="M37,60H5a1,1,0,0,1-1-1V31H6V58H36V31h2V59A1,1,0,0,1,37,60Z"/><path d="M39,34a.992.992,0,0,1-.614-.211L21,20.267,3.614,33.789a1,1,0,0,1-1.321-.082l-2-2a1,1,0,0,1,.082-1.488l20-16a1,1,0,0,1,1.25,0l20,16a1,1,0,0,1,.082,1.488l-2,2A1,1,0,0,1,39,34ZM21,18a.994.994,0,0,1,.614.211l17.3,13.458.586-.586L21,16.28,2.5,31.083l.586.586,17.3-13.458A.994.994,0,0,1,21,18Z"/><path d="M63,41H37V39H62V37H37V35H63a1,1,0,0,1,1,1v4A1,1,0,0,1,63,41Z"/><rect x="60" y="40" width="2" height="19"/><path d="M58,59H56V45H42V59H40V44a1,1,0,0,1,1-1H57a1,1,0,0,1,1,1Z"/><rect x="41" y="47" width="16" height="2"/><rect x="41" y="51" width="16" height="2"/><path d="M21,38a1,1,0,0,1-.674-.261l-4.971-4.531a4.009,4.009,0,0,1,0-6.009A4.805,4.805,0,0,1,21,26.694a4.808,4.808,0,0,1,5.645.505,4.009,4.009,0,0,1,0,6.009l-4.971,4.531A1,1,0,0,1,21,38ZM18.515,28a2.688,2.688,0,0,0-1.812.683,2.007,2.007,0,0,0,0,3.051L21,35.646l4.3-3.917a2.007,2.007,0,0,0,0-3.051,2.745,2.745,0,0,0-3.623,0,1,1,0,0,1-1.348,0A2.686,2.686,0,0,0,18.515,28Z"/><path d="M30,59H28V42H14V59H12V41a1,1,0,0,1,1-1H29a1,1,0,0,1,1,1Z"/><rect x="15" y="49" width="2" height="2"/><path d="M49,34a1,1,0,0,1-.707-.293l-4.748-4.748a15,15,0,1,1,10.91,0l-4.748,4.748A1,1,0,0,1,49,34ZM49,2a12.992,12.992,0,0,0-4.548,25.165.988.988,0,0,1,.357.23L49,31.586,53.191,27.4a.988.988,0,0,1,.357-.23A12.992,12.992,0,0,0,49,2Z"/><path d="M49,25a1,1,0,0,1-.691-.277L41.681,18.38a5.352,5.352,0,0,1,0-7.789A5.866,5.866,0,0,1,49,10.027a5.868,5.868,0,0,1,7.319.564h0a5.352,5.352,0,0,1,0,7.789l-6.628,6.343A1,1,0,0,1,49,25ZM45.686,11a3.788,3.788,0,0,0-2.622,1.038,3.352,3.352,0,0,0,0,4.9L49,22.616l5.936-5.681a3.352,3.352,0,0,0,0-4.9h0a3.834,3.834,0,0,0-5.245,0,1,1,0,0,1-1.382,0A3.791,3.791,0,0,0,45.686,11Z"/></g></svg>