<svg id="Filled_stroke_cut_Ex" data-name="Filled stroke cut Ex" xmlns="http://www.w3.org/2000/svg" width="512" height="512" viewBox="0 0 512 512">
  <title>hoodie- man- user- avatar- people- mask</title>
  <g>
    <g>
      <path d="M56,488V380.091A30,30,0,0,1,74.578,352.35L192,304H320l117.422,48.35A30,30,0,0,1,456,380.091V488Z" style="fill: #333"/>
      <polygon points="152 320 112 192 256 120 400 192 360 320 152 320" style="fill: #333"/>
      <path d="M391.527,337.921c0,25.661-79.459,46.463-135.645,46.463s-135.645-20.8-135.645-46.463S199.7,263.58,255.882,263.58,391.527,312.26,391.527,337.921Z" style="fill: #4d4d4d"/>
      <path d="M316.455,320.959,304,240H208l-12.455,80.959A20,20,0,0,0,215.312,344h81.376A20,20,0,0,0,316.455,320.959Z" style="fill: #ffd4cf"/>
      <g>
        <path d="M304,240H208l-3.51,22.819,19.547,16.613A36.038,36.038,0,0,0,247.351,288H264.6a36.026,36.026,0,0,0,23.428-8.667l19.456-16.676Z" style="fill: #fbb8b0"/>
        <path d="M348,144H328V112H184v32H164a20,20,0,0,0-20,20v16a20,20,0,0,0,20,20h20v15.159a20,20,0,0,0,7.048,15.24L234.4,267.24A20,20,0,0,0,247.351,272H264.6a20,20,0,0,0,13.015-4.815l43.4-37.2A20,20,0,0,0,328,214.8V200h20a20,20,0,0,0,20-20V164A20,20,0,0,0,348,144Z" style="fill: #ffd4cf"/>
        <path d="M184.018,215.994a20,20,0,0,0,7.03,14.405L234.4,267.24A20,20,0,0,0,247.351,272H264.6a20,20,0,0,0,13.015-4.815l43.4-37.2a20,20,0,0,0,6.948-14L256,192Z" style="fill: #ebebeb"/>
      </g>
      <path d="M400,192,256,120,112,192l13.187-85.713A40,40,0,0,1,143.758,78.3L232,24h48l88.242,54.3a40,40,0,0,1,18.571,27.984Z" style="fill: #4d4d4d"/>
      <circle cx="344" cy="440" r="16" style="fill: #e64b30"/>
      <circle cx="168" cy="440" r="16" style="fill: #e64b30"/>
    </g>
    <rect x="56" y="424" width="40" height="32" style="fill: #e64b30"/>
    <path d="M440.469,344.953l-20.281-8.35L414.1,351.4l20.28,8.351A21.93,21.93,0,0,1,448,380.091V416H416v16h32v16H416v16h32v16H64V464H96a8,8,0,0,0,8-8V424a8,8,0,0,0-8-8H64V380.091a21.93,21.93,0,0,1,13.623-20.343l35.852-14.763c5.3,14.849,26.735,25.274,46.525,31.933v40.453a24,24,0,1,0,16,0V381.682c25.388,6.681,54.976,10.7,79.882,10.7,24.983,0,54.677-4.046,80.118-10.764v35.751a24,24,0,1,0,16,0v-40.53c39.127-13.183,47.527-28.342,47.527-38.92,0-13.285-13.149-26.887-25.3-36.62l33.411-106.915h0a8,8,0,0,0,.271-3.6L394.721,105.07a47.928,47.928,0,0,0-22.286-33.58l-88.243-54.3A8,8,0,0,0,280,16H232a8,8,0,0,0-4.192,1.187l-48,29.538,8.384,13.627L234.265,32h43.47L364.05,85.117A31.943,31.943,0,0,1,378.906,107.5l10.834,70.423L259.578,112.845a8,8,0,0,0-7.156,0L122.26,177.926,133.094,107.5A31.947,31.947,0,0,1,147.95,85.116l23.242-14.3-8.384-13.626-23.243,14.3a47.928,47.928,0,0,0-22.286,33.581l-13.186,85.713a8,8,0,0,0,.271,3.6h0L137.728,301.15c-8.918,7.119-18.394,16.32-22.864,25.96L71.531,344.953A37.876,37.876,0,0,0,48,380.091V488a8,8,0,0,0,8,8H456a8,8,0,0,0,8-8V380.091A37.876,37.876,0,0,0,440.469,344.953ZM168,448a8,8,0,1,1,8-8A8.009,8.009,0,0,1,168,448Zm176,0a8,8,0,1,1,8-8A8.009,8.009,0,0,1,344,448Zm-8-279.056,23.965,11.983A12.017,12.017,0,0,1,348,192H336Zm0,45.857V208h12a28.05,28.05,0,0,0,26.74-19.686l15.594,7.8-29.785,95.311a246.292,246.292,0,0,0-44.034-22.687l-3.31-21.517,13.017-11.157A27.966,27.966,0,0,0,336,214.8Zm-63.589,46.31A12.008,12.008,0,0,1,264.6,264H247.351a12.011,12.011,0,0,1-7.772-2.856L196.229,224.3a11.993,11.993,0,0,1-2.588-3.083L256,200.433l62.179,20.726a12.043,12.043,0,0,1-2.369,2.753Zm33.385,70.7A11.988,11.988,0,0,1,296.688,336H215.312a12,12,0,0,1-11.86-13.825l9.625-62.557,16.141,13.718A28.029,28.029,0,0,0,247.351,280H264.6a28.016,28.016,0,0,0,18.221-6.741L298.9,259.478l9.646,62.7A11.986,11.986,0,0,1,305.8,331.813ZM192,160.944l24-12V168h16V140.944l24-12,24,12V168h16V148.944l24,12V204.9l-61.47-20.49a7.992,7.992,0,0,0-5.06,0L192,204.9Zm-16,8V192H164a12.017,12.017,0,0,1-11.965-11.073Zm-54.334,27.167,15.594-7.8A28.05,28.05,0,0,0,164,208h12v7.159a27.951,27.951,0,0,0,9.868,21.335l12.892,10.957-3.26,21.186a246.4,246.4,0,0,0-44.089,22.657Zm70.991,91.005-5.019,32.626A28,28,0,0,0,215.312,352h81.376a28,28,0,0,0,27.674-32.257l-5-32.514c39.046,17.117,64.167,40.835,64.167,50.692,0,4.1-6.912,12.892-31.527,21.96V336H336v29.037c-24.994,7.05-55.059,11.347-80.118,11.347-24.981,0-54.935-4.27-79.882-11.281V336H160v23.967c-24.806-9.1-31.763-17.935-31.763-22.046C128.237,328.022,153.459,304.237,192.657,287.116ZM64,432H88v16H64Z"/>
  </g>
</svg>
