<svg xmlns="http://www.w3.org/2000/svg" width="128" height="128" viewBox="0 0 128 128">
  <title>HOUSE</title>
  <g>
    <g>
      <path d="M7.75,98.471h112.5a6,6,0,0,1,6,6v7.5a0,0,0,0,1,0,0H1.75a0,0,0,0,1,0,0v-7.5A6,6,0,0,1,7.75,98.471Z" fill="#6ecd24"/>
      <circle cx="29.344" cy="89.565" r="8.906" transform="translate(-56.28 50.177) rotate(-47.157)" fill="#896748"/>
      <circle cx="29.344" cy="71.752" r="8.906" transform="translate(-43.22 44.477) rotate(-47.157)" fill="#73553a"/>
      <circle cx="29.344" cy="53.94" r="8.906" transform="translate(-30.159 38.777) rotate(-47.157)" fill="#896748"/>
      <circle cx="98.656" cy="89.565" r="8.906" transform="translate(-10.403 166.121) rotate(-77.302)" fill="#896748"/>
      <path d="M89.75,71.752a8.906,8.906,0,1,1,8.906,8.906A8.906,8.906,0,0,1,89.75,71.752Z" fill="#73553a"/>
      <circle cx="98.656" cy="53.94" r="8.906" transform="translate(-7.418 91.233) rotate(-48.038)" fill="#896748"/>
      <rect x="50.219" y="53.94" width="27.562" height="44.531" fill="#fedb41"/>
      <path d="M107.56,41.91V53.94a8.9,8.9,0,0,0-8.9-8.91,9.194,9.194,0,0,0-1.58.15l-.13-.15-16.93-19H47.98l-16.93,19-.13.15a9.194,9.194,0,0,0-1.58-.15,8.9,8.9,0,0,0-8.9,8.91V41.91L43.5,16.03h41Z" fill="#6e77e5"/>
      <path d="M38.25,71.752a8.906,8.906,0,0,1-8.906,8.906H50.219V62.846H29.345A8.907,8.907,0,0,1,38.25,71.752Z" fill="#5d452f"/>
      <path d="M29.344,80.658a8.907,8.907,0,0,1,0,17.813H50.219V80.658Z" fill="#73553a"/>
      <path d="M89.75,71.752a8.906,8.906,0,0,0,8.906,8.906H77.781V62.846H98.655A8.907,8.907,0,0,0,89.75,71.752Z" fill="#5d452f"/>
      <path d="M98.656,80.658a8.907,8.907,0,0,0,0,17.813H77.781V80.658Z" fill="#73553a"/>
      <polygon points="96.95 45.03 31.05 45.03 47.98 26.03 80.02 26.03 96.95 45.03" fill="#5d452f"/>
      <path d="M77.78,62.85V53.94H50.22v8.91H29.34a8.905,8.905,0,0,0,1.58-17.67l.13-.15h65.9l.13.15a8.905,8.905,0,0,0,1.58,17.67Z" fill="#73553a"/>
    </g>
    <g>
      <path d="M120.25,96.721H106.529a10.619,10.619,0,0,0-2.038-16.063,10.637,10.637,0,0,0,0-17.812,10.649,10.649,0,0,0,4.821-8.906V41.907a1.754,1.754,0,0,0-.443-1.165L85.807,14.867a1.753,1.753,0,0,0-1.307-.585h-41a1.754,1.754,0,0,0-1.307.585L19.131,40.742a1.75,1.75,0,0,0-.444,1.165V53.94a10.65,10.65,0,0,0,4.822,8.906,10.635,10.635,0,0,0,0,17.812,10.617,10.617,0,0,0-2.038,16.063H7.75A7.759,7.759,0,0,0,0,104.471v7.5a1.75,1.75,0,0,0,1.75,1.75h93.5a1.75,1.75,0,0,0,0-3.5H3.5v-5.747a4.255,4.255,0,0,1,4.25-4.25h112.5a4.254,4.254,0,0,1,4.25,4.25v5.747H109a1.75,1.75,0,0,0,0,3.5h17.25a1.749,1.749,0,0,0,1.75-1.75v-7.5A7.759,7.759,0,0,0,120.25,96.721Zm-14.438-7.156a7.156,7.156,0,1,1-7.156-7.157A7.165,7.165,0,0,1,105.812,89.565ZM48.469,78.908H37.217a10.592,10.592,0,0,0,0-14.312H48.469Zm0,3.5V96.721H37.217a10.593,10.593,0,0,0,0-14.313Zm1.75-30.218a1.749,1.749,0,0,0-1.75,1.75V61.1H37.217a10.593,10.593,0,0,0,0-14.313H90.783a10.593,10.593,0,0,0,0,14.313H79.531V53.94a1.749,1.749,0,0,0-1.75-1.75ZM79.531,64.6H90.783a10.592,10.592,0,0,0,0,14.312H79.531Zm0,17.812H90.783a10.593,10.593,0,0,0,0,14.313H79.531Zm26.281-10.656A7.156,7.156,0,1,1,98.656,64.6,7.164,7.164,0,0,1,105.812,71.752ZM98.656,61.1a7.157,7.157,0,1,1,7.156-7.156A7.165,7.165,0,0,1,98.656,61.1ZM22.187,42.573l22.1-24.791H83.716l22.1,24.791V46.05a11.031,11.031,0,0,0-8.074-2.767L81.324,24.867a1.751,1.751,0,0,0-1.306-.585H47.982a1.75,1.75,0,0,0,0,3.5H79.233l13.817,15.5H34.95L36.807,41.2A1.75,1.75,0,0,0,34.2,38.871l-3.933,4.412a11,11,0,0,0-8.075,2.767Zm0,11.367A7.157,7.157,0,1,1,29.344,61.1,7.166,7.166,0,0,1,22.187,53.94Zm0,17.812a7.157,7.157,0,1,1,7.157,7.156A7.165,7.165,0,0,1,22.187,71.752Zm0,17.813a7.157,7.157,0,1,1,7.157,7.156A7.166,7.166,0,0,1,22.187,89.565Zm29.782,7.156V55.69H76.031V96.721Z"/>
      <path d="M40.92,35.705a1.746,1.746,0,0,0,1.307-.586l1.642-1.842a1.75,1.75,0,1,0-2.613-2.329L39.614,32.79a1.751,1.751,0,0,0,1.306,2.915Z"/>
    </g>
  </g>
</svg>
