<?xml version="1.0" encoding="utf-8"?>
<!-- Generator: Adobe Illustrator 24.0.0, SVG Export Plug-In . SVG Version: 6.00 Build 0)  -->
<svg version="1.1" xmlns="http://www.w3.org/2000/svg" xmlns:xlink="http://www.w3.org/1999/xlink" x="0px" y="0px"
	 viewBox="0 0 256 256" enable-background="new 0 0 256 256" xml:space="preserve">
<g id="Layer_1">
</g>
<g id="Layer_2">
</g>
<g id="Layer_3">
</g>
<g id="Layer_4">
</g>
<g id="Layer_5">
</g>
<g id="Layer_6">
</g>
<g id="Layer_7">
</g>
<g id="Layer_8">
	<g>
		<g>
			<g>
				<circle fill="#F5C84C" cx="128" cy="128.547" r="67.807"/>
			</g>
		</g>
		<g>
			<g>
				<g>
					<path fill="#DAE6F1" d="M250.633,109.134h-24.807c-1.354,0-2.505-0.953-2.798-2.275c-2.484-11.218-6.901-21.708-12.888-31.102
						c-0.728-1.142-0.587-2.63,0.371-3.588l17.544-17.544c1.119-1.119,1.119-2.933,0-4.053l-22.628-22.628
						c-1.119-1.119-2.933-1.119-4.053,0L183.83,45.49c-0.958,0.958-2.445,1.099-3.588,0.371
						c-9.394-5.987-19.884-10.404-31.102-12.888c-1.322-0.293-2.275-1.444-2.275-2.798V5.367c0-1.583-1.283-2.866-2.866-2.866h-32
						c-1.583,0-2.866,1.283-2.866,2.866v24.807c0,1.354-0.953,2.505-2.275,2.798c-11.218,2.484-21.708,6.901-31.102,12.888
						c-1.142,0.728-2.63,0.587-3.588-0.371L54.626,27.945c-1.119-1.119-2.933-1.119-4.053,0L27.945,50.573
						c-1.119,1.119-1.119,2.933,0,4.053L45.49,72.17c0.958,0.958,1.099,2.445,0.371,3.588c-5.987,9.394-10.404,19.884-12.888,31.102
						c-0.293,1.322-1.444,2.275-2.798,2.275H5.367c-1.583,0-2.866,1.283-2.866,2.866v32c0,1.583,1.283,2.866,2.866,2.866h24.807
						c1.354,0,2.505,0.953,2.798,2.275c2.484,11.218,6.901,21.708,12.888,31.102c0.728,1.142,0.587,2.63-0.371,3.588l-17.544,17.544
						c-1.119,1.119-1.119,2.933,0,4.053l22.628,22.628c1.119,1.119,2.933,1.119,4.053,0L72.17,210.51
						c0.958-0.958,2.445-1.099,3.588-0.371c9.394,5.987,19.884,10.404,31.102,12.888c1.322,0.293,2.275,1.444,2.275,2.798v24.807
						c0,1.583,1.283,2.866,2.866,2.866h32c1.583,0,2.866-1.283,2.866-2.866v-24.807c0-1.354,0.953-2.505,2.275-2.798
						c11.218-2.484,21.708-6.901,31.102-12.888c1.142-0.728,2.63-0.587,3.588,0.371l17.544,17.544c1.119,1.119,2.933,1.119,4.053,0
						l22.628-22.628c1.119-1.119,1.119-2.933,0-4.053L210.51,183.83c-0.958-0.958-1.099-2.445-0.371-3.588
						c5.987-9.394,10.404-19.884,12.888-31.102c0.293-1.322,1.444-2.275,2.798-2.275h24.807c1.583,0,2.866-1.283,2.866-2.866v-32
						C253.498,110.417,252.215,109.134,250.633,109.134z M128,196.354c-37.449,0-67.807-30.358-67.807-67.807
						S90.551,60.739,128,60.739s67.807,30.358,67.807,67.807S165.449,196.354,128,196.354z"/>
				</g>
			</g>
		</g>
		<g>
			<g>
				<path fill="#70D6F9" d="M171.331,172.785l-14.593-3.673c-2.549-0.642-5.04-1.49-7.453-2.524
					c-0.037,0.44-0.215,0.871-0.552,1.208l-10.235,10.235c-0.757,0.757-1.984,0.757-2.741,0l-4.58-4.58
					c-0.428-0.428-0.605-1.005-0.549-1.563h-5.254c0.056,0.558-0.121,1.136-0.549,1.563l-4.58,4.58
					c-0.757,0.757-1.984,0.757-2.741,0l-10.235-10.235c-0.335-0.335-0.513-0.763-0.551-1.201c-2.408,1.031-4.895,1.873-7.437,2.513
					l-14.61,3.677c-2.049,0.516-3.816,1.648-5.132,3.167c12.31,12.583,29.47,20.401,48.463,20.401s36.153-7.819,48.463-20.401
					C175.148,174.433,173.38,173.301,171.331,172.785z"/>
			</g>
		</g>
		<g>
			<g>
				<path fill="#FC657E" d="M189.8,19.85c-4.5-0.8-8-4.3-8.9-8.7c0-0.2-0.4-0.2-0.4,0c-0.9,4.4-4.4,7.9-8.9,8.7
					c-0.2,0-0.2,0.3,0,0.4c4.5,0.8,8,4.3,8.9,8.7c0,0.2,0.4,0.2,0.4,0c0.9-4.4,4.4-7.9,8.9-8.7C190,20.15,190,19.85,189.8,19.85z"/>
			</g>
		</g>
		<g>
			<g>
				<path fill="#F5C84C" d="M24.61,87.21c-3.158-0.561-5.613-3.017-6.245-6.104c0-0.14-0.281-0.14-0.281,0
					c-0.631,3.087-3.087,5.543-6.245,6.104c-0.14,0-0.14,0.211,0,0.281c3.158,0.561,5.613,3.017,6.245,6.104
					c0,0.14,0.281,0.14,0.281,0c0.631-3.087,3.087-5.543,6.245-6.104C24.75,87.42,24.75,87.21,24.61,87.21z"/>
			</g>
		</g>
		<g>
			<g>
				<path fill="#70D6F9" d="M90.7,244.1h-2.3v-2.3c0-1.7-1.4-3.2-3.2-3.2S82,240,82,241.8v2.3h-2.3c-1.7,0-3.2,1.4-3.2,3.2
					s1.4,3.2,3.2,3.2H82v2.3c0,1.7,1.4,3.2,3.2,3.2s3.2-1.4,3.2-3.2v-2.3h2.3c1.7,0,3.2-1.4,3.2-3.2S92.5,244.1,90.7,244.1z"/>
			</g>
		</g>
		<g>
			<g>
				<path fill="#F5C84C" d="M163.8,233c-1.878,0-3.4,1.522-3.4,3.4c0,1.878,1.522,3.4,3.4,3.4c1.878,0,3.4-1.522,3.4-3.4
					C167.2,234.522,165.678,233,163.8,233z"/>
			</g>
		</g>
		<g>
			<g>
				<path fill="#87D147" d="M162.8,0c-1.878,0-3.4,1.522-3.4,3.4c0,1.878,1.522,3.4,3.4,3.4c1.878,0,3.4-1.522,3.4-3.4
					C166.2,1.522,164.678,0,162.8,0z"/>
			</g>
		</g>
		<g>
			<g>
				<path fill="#9BE5F9" d="M124.824,170.71l-10.235-10.235c-0.757-0.757-1.984-0.757-2.741,0l-4.58,4.58
					c-0.757,0.757-0.757,1.984,0,2.741l10.235,10.235c0.757,0.757,1.984,0.757,2.741,0l4.58-4.58
					C125.581,172.694,125.581,171.467,124.824,170.71z"/>
			</g>
		</g>
		<g>
			<g>
				<path fill="#9BE5F9" d="M148.733,165.055l-4.58-4.58c-0.757-0.757-1.984-0.757-2.741,0l-10.235,10.235
					c-0.757,0.757-0.757,1.984,0,2.741l4.58,4.58c0.757,0.757,1.984,0.757,2.741,0l10.235-10.235
					C149.49,167.039,149.49,165.812,148.733,165.055z"/>
			</g>
		</g>
		<g>
			<g>
				<path fill="#F9D0B4" d="M139.712,156.499v-4.137c-3.511,1.838-7.494,2.885-11.712,2.885h0c-4.218,0-8.201-1.047-11.712-2.885
					v4.137c0,1.6-0.436,3.132-1.219,4.457l9.755,9.755c0.329,0.329,0.506,0.748,0.549,1.178h5.254
					c0.043-0.43,0.22-0.848,0.549-1.178l9.763-9.763C140.158,159.622,139.712,158.098,139.712,156.499z"/>
			</g>
		</g>
		<g>
			<g>
				<path fill="#F9D0B4" d="M153.418,106.781c-0.014-0.721-0.592-1.315-1.313-1.336c-10.561-0.31-16.126-4.495-18.264-6.591
					c-0.584-0.572-1.526-0.512-2.035,0.128c-9.285,11.677-22.983,10.029-27.588,9.065c-0.837-0.175-1.64,0.456-1.641,1.311v20.467
					c0,13.982,11.44,25.422,25.422,25.422h0c13.982,0,25.422-11.44,25.422-25.422v-22.646
					C153.422,107.045,153.421,106.913,153.418,106.781z"/>
			</g>
		</g>
		<g>
			<g>
				<path fill="#754E34" d="M147.893,79.815c-2.709,0-5.242,0.765-7.418,2.071c-2.542-4.243-7.174-7.108-12.453-7.108h-7.457
					c-14.432,0-26.241,11.808-26.241,26.241v11.758c1.816-1.453,4.116-2.327,6.622-2.327c0.555,0,1.099,0.047,1.631,0.129v-1.222
					c0.001-0.855,0.804-1.486,1.641-1.311c4.605,0.964,18.303,2.612,27.588-9.065c0.509-0.64,1.451-0.7,2.035-0.128
					c2.138,2.096,7.703,6.282,18.264,6.591c0.721,0.021,1.298,0.615,1.313,1.336c0.003,0.132,0.004,0.265,0.004,0.398v3.4
					c0.532-0.082,1.076-0.129,1.631-0.129c2.861,0,5.453,1.138,7.362,2.978V94.337C162.415,86.35,155.88,79.815,147.893,79.815z"/>
			</g>
		</g>
		<g>
			<g>
				<path fill="#F9D0B4" d="M155.053,110.449c-0.555,0-1.099,0.047-1.631,0.129v19.246c0,0.573-0.026,1.141-0.064,1.705
					c0.553,0.089,1.117,0.148,1.695,0.148c5.862,0,10.614-4.752,10.614-10.614S160.915,110.449,155.053,110.449z"/>
			</g>
		</g>
		<g>
			<g>
				<path fill="#F9D0B4" d="M102.578,129.824v-19.246c-0.532-0.083-1.076-0.129-1.631-0.129c-5.862,0-10.614,4.752-10.614,10.614
					s4.752,10.614,10.614,10.614c0.578,0,1.142-0.059,1.695-0.148v0C102.604,130.964,102.578,130.397,102.578,129.824z"/>
			</g>
		</g>
		<g>
			<g>
				<path d="M137.209,133.94c-1.058-0.887-2.634-0.749-3.522,0.309c-1.08,1.289-2.938,2.058-4.972,2.058
					c-2.034,0-3.892-0.769-4.972-2.058c-0.886-1.057-2.462-1.197-3.522-0.31c-1.058,0.887-1.197,2.463-0.31,3.522
					c2.018,2.408,5.309,3.846,8.804,3.846c3.494,0,6.784-1.438,8.804-3.845C138.405,136.404,138.267,134.827,137.209,133.94z"/>
			</g>
		</g>
		<g>
			<g>
				<path d="M139.263,119.164c-1.792,0-3.244,1.452-3.244,3.244s1.452,3.244,3.244,3.244c1.792,0,3.244-1.452,3.244-3.244
					S141.055,119.164,139.263,119.164z"/>
			</g>
		</g>
		<g>
			<g>
				<path d="M117.476,119.164c-1.792,0-3.244,1.452-3.244,3.244s1.452,3.244,3.244,3.244c1.792,0,3.244-1.452,3.244-3.244
					S119.268,119.164,117.476,119.164z"/>
			</g>
		</g>
		<g>
			<g>
				<g>
					<path d="M126.591,168.943l-10.235-10.235c-1.73-1.731-4.545-1.73-6.276,0l-4.58,4.58c-0.839,0.838-1.3,1.953-1.3,3.138
						c0,1.186,0.462,2.301,1.3,3.138l10.235,10.235c0.865,0.865,2.001,1.298,3.138,1.298s2.273-0.433,3.139-1.298l4.58-4.581
						C128.322,173.489,128.322,170.673,126.591,168.943z M118.873,175.867l-9.44-9.441l3.785-3.786l9.441,9.441L118.873,175.867z"/>
				</g>
			</g>
		</g>
		<g>
			<g>
				<g>
					<path d="M150.5,163.288l-4.58-4.58c-1.73-1.729-4.546-1.731-6.276,0l-10.235,10.235c-1.73,1.73-1.73,4.546,0,6.276l4.581,4.58
						c0.865,0.865,2.001,1.298,3.138,1.298s2.272-0.433,3.138-1.298l10.235-10.235C152.23,167.834,152.23,165.019,150.5,163.288z
						 M137.127,175.866l-3.786-3.786l9.441-9.44l3.785,3.786L137.127,175.866z"/>
				</g>
			</g>
		</g>
		<g>
			<g>
				<path d="M142.961,159.443c-0.49-0.914-0.749-1.932-0.749-2.944v-3.717c0-1.381-1.119-2.5-2.5-2.5s-2.5,1.119-2.5,2.5v3.717
					c0,1.834,0.464,3.67,1.343,5.308c0.451,0.841,1.313,1.319,2.205,1.319c0.399,0,0.804-0.096,1.18-0.297
					C143.156,162.175,143.613,160.66,142.961,159.443z"/>
			</g>
		</g>
		<g>
			<g>
				<path d="M130.032,169.388h-4.316c-1.381,0-2.5,1.119-2.5,2.5s1.119,2.5,2.5,2.5h4.316c1.381,0,2.5-1.119,2.5-2.5
					S131.413,169.388,130.032,169.388z"/>
			</g>
		</g>
		<g>
			<g>
				<path d="M116.288,150.504c-1.381,0-2.5,1.119-2.5,2.5v3.494c0,1.002-0.245,2.003-0.709,2.894
					c-0.638,1.225-0.163,2.734,1.062,3.373c0.369,0.192,0.764,0.283,1.153,0.283c0.902,0,1.773-0.49,2.219-1.345
					c0.834-1.601,1.275-3.4,1.275-5.204v-3.494C118.788,151.624,117.669,150.504,116.288,150.504z"/>
			</g>
		</g>
		<g>
			<g>
				<g>
					<path d="M155.917,106.73c-0.041-2.063-1.684-3.725-3.738-3.785c-9.855-0.289-14.883-4.207-16.587-5.878
						c-0.782-0.767-1.86-1.171-2.948-1.1c-1.092,0.067-2.11,0.599-2.793,1.458c-0.001,0-0.001,0-0.001,0
						c-8.264,10.393-20.318,9.179-25.118,8.175c-1.147-0.239-2.324,0.045-3.233,0.784c-0.902,0.732-1.419,1.815-1.42,2.991v20.45
						c0,15.396,12.526,27.922,27.922,27.922c15.396,0,27.922-12.526,27.922-27.922v-22.646
						C155.922,107.027,155.921,106.876,155.917,106.73z M150.922,129.824c0,12.639-10.283,22.922-22.922,22.922
						c-12.639,0-22.922-10.283-22.922-22.922v-19.078c5.513,0.892,18.559,1.572,27.915-9.28c2.902,2.503,8.522,5.915,17.929,6.43
						V129.824z"/>
				</g>
			</g>
		</g>
		<g>
			<g>
				<path d="M147.894,77.315c-2.271,0-4.521,0.466-6.616,1.361c-3.214-3.993-8.108-6.397-13.255-6.397h-7.457
					c-15.848,0-28.741,12.893-28.741,28.74v11.213c0,1.381,1.119,2.5,2.5,2.5s2.5-1.119,2.5-2.5v-11.213
					c0-13.09,10.65-23.74,23.741-23.74h7.457c4.181,0,8.131,2.258,10.309,5.893c0.341,0.569,0.895,0.979,1.537,1.14
					c0.643,0.159,1.324,0.06,1.894-0.281c1.87-1.122,3.99-1.715,6.132-1.715c6.629,0,12.021,5.393,12.021,12.021v18.591
					c0,1.381,1.119,2.5,2.5,2.5s2.5-1.119,2.5-2.5V94.336C164.915,84.951,157.279,77.315,147.894,77.315z"/>
			</g>
		</g>
		<g>
			<g>
				<path d="M155.054,107.949c-0.365,0-0.727,0.016-1.084,0.046c-1.376,0.117-2.396,1.327-2.279,2.703s1.327,2.392,2.703,2.279
					c0.217-0.019,0.438-0.029,0.66-0.029c4.474,0,8.113,3.64,8.113,8.114s-3.64,8.114-8.113,8.114c-0.247,0-0.49-0.015-0.73-0.04
					c-1.383-0.144-2.602,0.859-2.742,2.232c-0.141,1.374,0.859,2.601,2.232,2.742c0.408,0.042,0.821,0.066,1.24,0.066
					c7.23,0,13.113-5.883,13.113-13.114S162.284,107.949,155.054,107.949z"/>
			</g>
		</g>
		<g>
			<g>
				<path d="M101.56,129.148c-0.202,0.018-0.407,0.028-0.613,0.028c-4.474,0-8.114-3.64-8.114-8.114s3.64-8.114,8.114-8.114
					c0.212,0,0.422,0.009,0.63,0.026c1.379,0.12,2.583-0.912,2.695-2.288c0.112-1.376-0.912-2.583-2.288-2.695
					c-0.342-0.028-0.688-0.043-1.038-0.043c-7.231,0-13.114,5.883-13.114,13.114s5.883,13.114,13.114,13.114
					c0.356,0,0.708-0.017,1.056-0.048c1.375-0.122,2.391-1.336,2.269-2.711C104.149,130.042,102.932,129.02,101.56,129.148z"/>
			</g>
		</g>
		<g>
			<g>
				<g>
					<path d="M128,58.239c-38.768,0-70.308,31.54-70.308,70.308s31.54,70.307,70.308,70.307s70.308-31.54,70.308-70.307
						S166.768,58.239,128,58.239z M128,193.854c-36.011,0-65.308-29.297-65.308-65.307c0-36.011,29.297-65.308,65.308-65.308
						s65.308,29.297,65.308,65.308C193.308,164.557,164.011,193.854,128,193.854z M250.633,106.634h-24.808
						c-0.169,0-0.315-0.13-0.357-0.315c-2.513-11.349-6.961-22.083-13.221-31.906c-0.102-0.16-0.089-0.355,0.031-0.476
						l17.544-17.544c2.092-2.092,2.092-5.496,0-7.587l-22.628-22.628c-2.092-2.093-5.496-2.093-7.588,0l-17.544,17.544
						c-0.12,0.122-0.313,0.135-0.477,0.031c-9.821-6.259-20.556-10.708-31.904-13.221c-0.186-0.041-0.315-0.188-0.315-0.357V5.367
						c0-2.958-2.407-5.366-5.366-5.366h-32c-2.958,0-5.366,2.407-5.366,5.366v24.807c0,0.169-0.13,0.316-0.315,0.357
						c-11.349,2.513-22.084,6.961-31.905,13.221c-0.16,0.102-0.356,0.089-0.477-0.03L56.393,26.178
						c-2.092-2.093-5.496-2.092-7.587,0L26.178,48.806c-2.092,2.092-2.092,5.496,0,7.587l17.544,17.544
						c0.12,0.12,0.132,0.316,0.03,0.476c-6.259,9.821-10.708,20.556-13.221,31.905c-0.041,0.186-0.188,0.316-0.357,0.316H5.367
						c-2.958,0-5.366,2.407-5.366,5.366v32c0,2.958,2.407,5.366,5.366,5.366h24.807c0.169,0,0.316,0.13,0.357,0.315
						c2.513,11.349,6.961,22.084,13.221,31.905c0.102,0.16,0.089,0.356-0.03,0.477l-17.544,17.544c-2.092,2.092-2.092,5.496,0,7.587
						l22.628,22.628c2.091,2.092,5.495,2.093,7.587,0l17.544-17.544c0.121-0.12,0.316-0.132,0.476-0.03
						c9.821,6.259,20.556,10.708,31.905,13.221c0.186,0.041,0.316,0.188,0.316,0.357v24.807c0,2.958,2.407,5.366,5.366,5.366h32
						c2.959,0,5.366-2.407,5.366-5.366v-24.807c0-0.169,0.13-0.316,0.314-0.357c11.35-2.513,22.084-6.961,31.904-13.22
						c0.165-0.105,0.357-0.091,0.478,0.03l17.544,17.544c2.092,2.093,5.496,2.093,7.588,0l22.628-22.628
						c2.092-2.092,2.092-5.496,0-7.587l-17.544-17.545c-0.12-0.12-0.133-0.315-0.03-0.476c6.259-9.822,10.707-20.557,13.22-31.905
						c0.042-0.186,0.188-0.316,0.357-0.316h24.808c2.958,0,5.365-2.407,5.365-5.366v-32
						C255.998,109.042,253.591,106.634,250.633,106.634z M250.998,144c0,0.202-0.164,0.366-0.365,0.366h-24.808
						c-2.532,0-4.687,1.741-5.238,4.234c-2.387,10.777-6.611,20.971-12.555,30.298c-1.374,2.153-1.081,4.908,0.711,6.699
						l17.544,17.544c0.143,0.143,0.143,0.375,0,0.517l-22.628,22.628c-0.143,0.143-0.375,0.143-0.518,0l-17.544-17.545
						c-1.791-1.791-4.548-2.082-6.699-0.711c-9.327,5.945-19.521,10.169-30.299,12.556c-2.492,0.552-4.233,2.707-4.233,5.239v24.807
						c0,0.202-0.164,0.366-0.366,0.366h-32c-0.202,0-0.366-0.164-0.366-0.366v-24.807c0-2.532-1.741-4.687-4.234-5.239
						c-10.777-2.386-20.972-6.611-30.299-12.556c-0.906-0.578-1.919-0.86-2.922-0.86c-1.379,0-2.74,0.535-3.776,1.572
						l-17.544,17.544c-0.143,0.142-0.375,0.142-0.517,0l-22.628-22.628c-0.142-0.143-0.142-0.375,0-0.517l17.544-17.544
						c1.791-1.791,2.083-4.545,0.712-6.699c-5.945-9.327-10.169-19.521-12.556-30.299c-0.552-2.493-2.707-4.234-5.239-4.234H5.367
						c-0.202,0-0.366-0.164-0.366-0.366v-32c0-0.202,0.164-0.366,0.366-0.366h24.807c2.532,0,4.687-1.741,5.239-4.234
						c2.386-10.777,6.611-20.972,12.556-30.299c1.372-2.153,1.079-4.908-0.712-6.698L29.713,52.858
						c-0.142-0.143-0.142-0.375,0-0.517l22.628-22.628c0.143-0.141,0.375-0.142,0.517,0l17.544,17.544
						c1.79,1.791,4.544,2.084,6.699,0.712C86.428,42.024,96.623,37.8,107.4,35.414c2.493-0.552,4.234-2.707,4.234-5.239V5.367
						c0-0.202,0.164-0.366,0.366-0.366h32c0.202,0,0.366,0.164,0.366,0.366v24.807c0,2.532,1.741,4.687,4.234,5.239
						c10.777,2.386,20.971,6.611,30.299,12.556c2.154,1.371,4.908,1.078,6.698-0.712l17.544-17.544c0.143-0.143,0.375-0.143,0.518,0
						l22.628,22.628c0.143,0.143,0.143,0.375,0,0.517l-17.544,17.544c-1.792,1.792-2.085,4.546-0.712,6.699
						c5.944,9.328,10.169,19.522,12.556,30.299c0.552,2.493,2.706,4.234,5.238,4.234h24.808c0.201,0,0.365,0.164,0.365,0.366V144z"
						/>
				</g>
			</g>
		</g>
		<g>
			<g>
				<g>
					<path d="M178.06,173.988c-1.655-1.781-3.771-3.036-6.118-3.627l-14.593-3.673c-2.089-0.525-4.181-1.211-6.219-2.039
						c-1.276-0.518-2.736,0.097-3.257,1.376c-0.52,1.279,0.097,2.737,1.376,3.257c2.252,0.915,4.566,1.673,6.879,2.255l14.593,3.673
						c1.408,0.354,2.679,1.109,3.675,2.182c0.493,0.53,1.162,0.798,1.833,0.798c0.608,0,1.219-0.221,1.7-0.668
						C178.94,176.582,178.999,175,178.06,173.988z"/>
				</g>
			</g>
			<g>
				<g>
					<path d="M108.113,166.041c-0.518-1.279-1.975-1.898-3.255-1.379c-2.015,0.815-4.098,1.496-6.189,2.022l-14.61,3.677
						c-2.26,0.569-4.314,1.759-5.941,3.441c-0.959,0.993-0.933,2.575,0.06,3.535c0.485,0.469,1.112,0.703,1.737,0.703
						c0.654,0,1.308-0.255,1.798-0.762c0.978-1.012,2.211-1.727,3.567-2.068l14.609-3.677c2.314-0.582,4.617-1.334,6.845-2.236
						C108.013,168.778,108.631,167.32,108.113,166.041z"/>
				</g>
			</g>
		</g>
	</g>
</g>
<g id="Layer_9">
</g>
<g id="Layer_10">
</g>
<g id="Layer_11">
</g>
<g id="Layer_12">
</g>
<g id="Layer_13">
</g>
<g id="Layer_14">
</g>
<g id="Layer_15">
</g>
<g id="Layer_16">
</g>
<g id="Layer_17">
</g>
<g id="Layer_18">
</g>
<g id="Layer_19">
</g>
<g id="Layer_20">
</g>
<g id="Layer_21">
</g>
<g id="Layer_22">
</g>
<g id="Layer_23">
</g>
<g id="Layer_24">
</g>
<g id="Layer_25">
</g>
<g id="Layer_26">
</g>
<g id="Layer_27">
</g>
<g id="Layer_28">
</g>
<g id="Layer_29">
</g>
<g id="Layer_30">
</g>
<g id="Layer_31">
</g>
<g id="Layer_32">
</g>
<g id="Layer_33">
</g>
<g id="Layer_34">
</g>
<g id="Layer_35">
</g>
<g id="Layer_36">
</g>
<g id="Layer_37">
</g>
<g id="Layer_38">
</g>
<g id="Layer_39">
</g>
<g id="Layer_40">
</g>
<g id="Layer_41">
</g>
<g id="Layer_42">
</g>
<g id="Layer_43">
</g>
<g id="Layer_44">
</g>
<g id="Layer_45">
</g>
<g id="Layer_46">
</g>
<g id="Layer_47">
</g>
<g id="Layer_48">
</g>
<g id="Layer_49">
</g>
<g id="Layer_50">
</g>
<g id="Layer_51">
</g>
<g id="Layer_52">
</g>
<g id="Layer_53">
</g>
<g id="Layer_54">
</g>
<g id="Layer_55">
</g>
<g id="Layer_56">
</g>
<g id="Layer_57">
</g>
<g id="Layer_58">
</g>
<g id="Layer_59">
</g>
<g id="Layer_60">
</g>
<g id="Layer_61">
</g>
<g id="Layer_62">
</g>
<g id="Layer_63">
</g>
<g id="Layer_64">
</g>
<g id="Layer_65">
</g>
<g id="Layer_66">
</g>
<g id="Layer_67">
</g>
<g id="Layer_68">
</g>
<g id="Layer_69">
</g>
<g id="Layer_70">
</g>
<g id="Layer_71">
</g>
<g id="Layer_72">
</g>
<g id="Layer_73">
</g>
<g id="Layer_74">
</g>
<g id="Layer_75">
</g>
<g id="Layer_76">
</g>
<g id="Layer_77">
</g>
<g id="Layer_78">
</g>
<g id="Layer_79">
</g>
<g id="Layer_80">
</g>
<g id="Layer_81">
</g>
<g id="Layer_82">
</g>
<g id="Layer_83">
</g>
<g id="Layer_84">
</g>
<g id="Layer_85">
</g>
<g id="Layer_86">
</g>
<g id="Layer_87">
</g>
<g id="Layer_88">
</g>
<g id="Layer_89">
</g>
<g id="Layer_90">
</g>
</svg>
