<?xml version="1.0" encoding="utf-8"?>
<!-- Generator: Adobe Illustrator 24.0.0, SVG Export Plug-In . SVG Version: 6.00 Build 0)  -->
<svg version="1.1" xmlns="http://www.w3.org/2000/svg" xmlns:xlink="http://www.w3.org/1999/xlink" x="0px" y="0px"
	 viewBox="0 0 256 256" enable-background="new 0 0 256 256" xml:space="preserve">
<g id="Layer_1">
</g>
<g id="Layer_2">
</g>
<g id="Layer_3">
</g>
<g id="Layer_4">
</g>
<g id="Layer_5">
</g>
<g id="Layer_6">
</g>
<g id="Layer_7">
</g>
<g id="Layer_8">
</g>
<g id="Layer_9">
</g>
<g id="Layer_10">
</g>
<g id="Layer_11">
</g>
<g id="Layer_12">
</g>
<g id="Layer_13">
</g>
<g id="Layer_14">
</g>
<g id="Layer_15">
</g>
<g id="Layer_16">
</g>
<g id="Layer_17">
</g>
<g id="Layer_18">
</g>
<g id="Layer_19">
</g>
<g id="Layer_20">
</g>
<g id="Layer_21">
</g>
<g id="Layer_22">
</g>
<g id="Layer_23">
</g>
<g id="Layer_24">
</g>
<g id="Layer_25">
</g>
<g id="Layer_26">
</g>
<g id="Layer_27">
</g>
<g id="Layer_28">
</g>
<g id="Layer_29">
</g>
<g id="Layer_30">
</g>
<g id="Layer_31">
</g>
<g id="Layer_32">
</g>
<g id="Layer_33">
</g>
<g id="Layer_34">
</g>
<g id="Layer_35">
</g>
<g id="Layer_36">
</g>
<g id="Layer_37">
</g>
<g id="Layer_38">
</g>
<g id="Layer_39">
</g>
<g id="Layer_40">
</g>
<g id="Layer_41">
	<g>
		<g>
			<g>
				<path fill="#9BE5F9" d="M224.77,126.587c-0.743-53.379-44.27-96.891-97.634-97.634C71.815,28.116,26.668,72.771,26.668,128
					c0,6.339,0.602,12.68,1.79,18.848c0.561,2.91-1.087,5.728-3.769,6.74l7.746,20.456c0.674-0.136,1.379-0.164,2.094-0.052
					l22.032,3.398c3.275,0.505,5.521,3.569,5.015,6.844c-0.505,3.275-3.567,5.521-6.844,5.015l-7.768-1.198
					c18.607,24.303,47.821,39.005,78.76,39.005C181.062,227.056,225.539,181.869,224.77,126.587z"/>
			</g>
		</g>
		<g>
			<g>
				<path fill="#70D6F9" d="M182.688,140.643l-15.763-15.764c-2.343-2.343-2.343-6.142,0-8.485s6.142-2.343,8.485,0l5.46,5.46
					c-3.093-28.422-27.833-50.665-57.775-49.282c-28.305,1.302-51.498,24.495-52.8,52.8c-1.466,31.865,23.862,58.116,55.428,58.116
					c15.566,0,30.515-6.601,41.011-18.11c1.786-1.957,4.561-2.434,6.856-1.417l10.016-22.567
					C183.283,141.178,182.974,140.929,182.688,140.643z"/>
			</g>
		</g>
		<g>
			<g>
				<path fill="#5290DB" d="M236.769,126.42c-0.833-59.865-49.587-108.632-109.466-109.466C65.165,16.099,14.668,66.108,14.668,128
					c0,7.099,0.675,14.203,2.006,21.116c0.626,3.254,3.771,5.38,7.026,4.757c3.254-0.626,5.384-3.772,4.757-7.026
					c-1.188-6.167-1.79-12.509-1.79-18.848c0-55.229,45.147-99.884,100.469-99.046c53.363,0.742,96.891,44.255,97.634,97.634
					c0.769,55.281-43.708,100.469-99.046,100.469c-30.939,0-60.152-14.702-78.76-39.005l7.768,1.198
					c3.277,0.506,6.339-1.74,6.844-5.015c0.505-3.275-1.74-6.339-5.015-6.844l-22.032-3.398c-3.25-0.508-6.338,1.725-6.844,5.015
					l-3.398,22.032c-0.56,3.63,2.247,6.916,5.937,6.916c2.91,0,5.465-2.122,5.922-5.086l1.183-7.667
					c20.854,27.321,53.654,43.855,88.396,43.855C187.716,239.056,237.632,188.451,236.769,126.42z"/>
			</g>
		</g>
		<g>
			<g>
				<path fill="#3A70BF" d="M206.937,116.394c-2.343-2.343-6.143-2.343-8.485,0l-5.522,5.522
					c-3.108-35.237-33.473-63.026-70.385-61.331c-34.436,1.584-62.651,29.8-64.235,64.235c-1.791,38.93,29.245,70.668,67.415,70.668
					c18.933,0,37.112-8.027,49.877-22.024c2.233-2.448,2.059-6.243-0.39-8.476c-2.447-2.232-6.242-2.058-8.476,0.39
					c-10.497,11.509-25.445,18.11-41.011,18.11c-31.566,0-56.893-26.251-55.428-58.116c1.302-28.305,24.495-51.498,52.8-52.8
					c29.941-1.383,54.682,20.86,57.775,49.282l-5.46-5.46c-2.343-2.343-6.142-2.343-8.485,0s-2.343,6.142,0,8.485l15.763,15.764
					c2.342,2.342,6.142,2.342,8.485,0l15.764-15.764C209.28,122.536,209.28,118.737,206.937,116.394z"/>
			</g>
		</g>
		<g>
			<g>
				<path fill="#FC657E" d="M84.493,6.21c-3.157-0.561-5.613-3.017-6.245-6.104c0-0.14-0.281-0.14-0.281,0
					c-0.631,3.087-3.087,5.543-6.245,6.104c-0.14,0-0.14,0.21,0,0.281c3.157,0.562,5.613,3.017,6.245,6.104
					c0,0.14,0.281,0.14,0.281,0c0.632-3.087,3.087-5.543,6.245-6.104C84.633,6.42,84.633,6.21,84.493,6.21z"/>
			</g>
		</g>
		<g>
			<g>
				<path fill="#F5C84C" d="M77.682,249.2c-1.878,0-3.4,1.522-3.4,3.4c0,1.878,1.522,3.4,3.4,3.4c1.878,0,3.4-1.522,3.4-3.4
					C81.082,250.722,79.56,249.2,77.682,249.2z"/>
			</g>
		</g>
		<g>
			<g>
				<path fill="#70D6F9" d="M50.582,235.1h-2.3v-2.3c0-1.7-1.4-3.2-3.2-3.2s-3.2,1.4-3.2,3.2v2.3h-2.3c-1.7,0-3.2,1.4-3.2,3.2
					s1.4,3.2,3.2,3.2h2.3v2.3c0,1.7,1.4,3.2,3.2,3.2s3.2-1.4,3.2-3.2v-2.3h2.3c1.7,0,3.2-1.4,3.2-3.2S52.382,235.1,50.582,235.1z"/>
			</g>
		</g>
		<g>
			<g>
				<path fill="#F5C84C" d="M243.682,52.85c-4.5-0.8-8-4.3-8.9-8.7c0-0.2-0.4-0.2-0.4,0c-0.9,4.4-4.4,7.9-8.9,8.7
					c-0.2,0-0.2,0.3,0,0.4c4.5,0.8,8,4.3,8.9,8.7c0,0.2,0.4,0.2,0.4,0c0.9-4.4,4.4-7.9,8.9-8.7
					C243.882,53.15,243.882,52.85,243.682,52.85z"/>
			</g>
		</g>
		<g>
			<g>
				<path fill="#87D147" d="M211.682,28c-1.878,0-3.4,1.522-3.4,3.4c0,1.878,1.522,3.4,3.4,3.4c1.878,0,3.4-1.522,3.4-3.4
					C215.082,29.522,213.56,28,211.682,28z"/>
			</g>
		</g>
		<g>
			<g>
				<g>
					<path d="M239.269,126.386c-0.413-29.61-12.247-57.525-33.323-78.603c-21.078-21.08-48.995-32.916-78.608-33.328
						C96.634,14.01,67.757,25.637,45.965,47.13C24.17,68.627,12.167,97.347,12.167,128c0,7.258,0.69,14.521,2.051,21.589
						c0.885,4.597,5.352,7.619,9.954,6.74c2.229-0.429,4.158-1.701,5.431-3.581s1.737-4.144,1.308-6.373
						c-1.158-6.012-1.745-12.194-1.745-18.375c0-26.088,10.232-50.534,28.811-68.833c18.544-18.265,43.08-28.112,69.124-27.713
						c25.156,0.35,48.886,10.417,66.817,28.346c17.933,17.931,28.002,41.662,28.352,66.822c0.363,26.086-9.507,50.663-27.792,69.204
						c-18.271,18.527-42.688,28.73-68.755,28.73c-27.698,0-54.411-12.243-72.683-33.038l1.309,0.202
						c2.247,0.345,4.491-0.201,6.322-1.544c1.831-1.342,3.029-3.317,3.375-5.561c0.346-2.244-0.202-4.488-1.544-6.32
						c-1.342-1.832-3.317-3.031-5.561-3.376l-22.027-3.397c-2.237-0.351-4.481,0.195-6.317,1.538
						c-1.836,1.343-3.038,3.32-3.384,5.566l-3.398,22.032c-0.379,2.454,0.332,4.943,1.948,6.829
						c1.618,1.886,3.972,2.968,6.459,2.968c4.22,0,7.75-3.03,8.393-7.206l0.318-2.064c21.505,25.377,53.533,40.372,86.789,40.372
						c30.656,0,59.375-12.002,80.867-33.795C228.09,185.961,239.695,157.061,239.269,126.386z M203.031,204.25
						c-20.545,20.833-48,32.306-77.307,32.306c-33.615,0-65.917-16.027-86.408-42.873c-0.48-0.628-1.219-0.983-1.987-0.983
						c-0.205,0-0.413,0.025-0.617,0.077c-0.971,0.248-1.701,1.051-1.854,2.042l-1.183,7.667c-0.261,1.691-1.745,2.967-3.452,2.967
						c-1.042,0-1.987-0.434-2.664-1.223c-0.666-0.777-0.958-1.801-0.803-2.812l3.398-22.032c0.143-0.924,0.638-1.738,1.394-2.292
						c0.756-0.552,1.68-0.777,2.598-0.634l22.033,3.398c0.924,0.143,1.737,0.636,2.29,1.39c0.552,0.754,0.778,1.678,0.636,2.603
						s-0.636,1.738-1.39,2.29c-0.754,0.553-1.677,0.777-2.603,0.635l-7.768-1.198c-1.006-0.157-2.011,0.318-2.531,1.196
						s-0.455,1.984,0.166,2.795c19.169,25.037,49.354,39.984,80.745,39.984c27.415,0,53.097-10.732,72.315-30.219
						c19.232-19.501,29.613-45.35,29.231-72.784c-0.369-26.47-10.958-51.432-29.816-70.289
						c-18.857-18.855-43.817-29.442-70.279-29.81c-27.398-0.423-53.199,9.938-72.705,29.15C34.929,74.852,24.167,100.562,24.167,128
						c0,6.498,0.617,12.998,1.834,19.321c0.177,0.918-0.014,1.85-0.538,2.624s-1.318,1.297-2.234,1.474
						c-1.896,0.36-3.737-0.881-4.101-2.774c-1.302-6.757-1.961-13.702-1.961-20.644c0-29.304,11.474-56.76,32.309-77.31
						c20.832-20.546,48.456-31.637,77.792-31.236c28.304,0.394,54.99,11.71,75.142,31.864c20.15,20.152,31.465,46.836,31.858,75.137
						C234.677,155.782,223.583,183.41,203.031,204.25z"/>
				</g>
			</g>
		</g>
		<g>
			<g>
				<g>
					<path d="M208.705,114.626c-3.313-3.314-8.707-3.314-12.021,0l-1.909,1.909c-5.651-34.772-36.47-60.083-72.345-58.448
						c-35.713,1.644-64.975,30.905-66.618,66.618c-0.89,19.348,5.949,37.678,19.257,51.612c13.346,13.975,31.336,21.67,50.656,21.67
						c19.634,0,38.487-8.325,51.725-22.84c1.53-1.677,2.315-3.85,2.211-6.118c-0.104-2.268-1.086-4.36-2.764-5.89
						c-3.461-3.157-8.848-2.911-12.008,0.553c-10.024,10.991-24.299,17.295-39.164,17.295c-14.633,0-28.248-5.817-38.335-16.38
						c-10.086-10.561-15.27-24.454-14.595-39.121c1.243-27.028,23.389-49.174,50.417-50.417c25.257-1.179,47.51,15.639,53.75,39.347
						c-3.328-3.103-8.561-3.033-11.804,0.209c-3.314,3.314-3.314,8.707,0,12.021l15.763,15.764c3.313,3.314,8.706,3.314,12.021,0
						l15.764-15.764C212.019,123.333,212.019,117.94,208.705,114.626z M205.169,123.112l-15.764,15.763
						c-1.365,1.364-3.585,1.365-4.95,0l-15.763-15.764c-0.661-0.661-1.025-1.54-1.025-2.475s0.364-1.814,1.025-2.475
						c1.365-1.364,3.585-1.364,4.95,0l5.46,5.46c0.75,0.751,1.892,0.946,2.848,0.487c0.957-0.458,1.52-1.47,1.405-2.525
						c-3.297-30.294-29.829-52.921-60.375-51.509c-29.583,1.361-53.821,25.6-55.183,55.183
						c-0.738,16.044,4.935,31.246,15.974,42.804c11.041,11.56,25.939,17.927,41.952,17.927c16.268,0,31.889-6.898,42.858-18.925
						c1.302-1.426,3.521-1.527,4.945-0.228c0.691,0.63,1.095,1.491,1.138,2.425c0.043,0.934-0.28,1.829-0.91,2.52
						c-12.292,13.479-29.799,21.209-48.03,21.209c-17.94,0-34.646-7.146-47.04-20.124c-12.355-12.937-18.705-29.959-17.878-47.93
						c1.525-33.158,28.694-60.327,61.853-61.853c1.028-0.047,2.051-0.071,3.069-0.071c33.604,0,61.739,25.427,64.711,59.125
						c0.085,0.967,0.723,1.798,1.636,2.13c0.914,0.332,1.935,0.105,2.622-0.582l5.521-5.522c1.322-1.321,3.628-1.321,4.95,0
						C206.534,119.526,206.534,121.747,205.169,123.112z"/>
				</g>
			</g>
		</g>
	</g>
</g>
<g id="Layer_42">
</g>
<g id="Layer_43">
</g>
<g id="Layer_44">
</g>
<g id="Layer_45">
</g>
<g id="Layer_46">
</g>
<g id="Layer_47">
</g>
<g id="Layer_48">
</g>
<g id="Layer_49">
</g>
<g id="Layer_50">
</g>
<g id="Layer_51">
</g>
<g id="Layer_52">
</g>
<g id="Layer_53">
</g>
<g id="Layer_54">
</g>
<g id="Layer_55">
</g>
<g id="Layer_56">
</g>
<g id="Layer_57">
</g>
<g id="Layer_58">
</g>
<g id="Layer_59">
</g>
<g id="Layer_60">
</g>
<g id="Layer_61">
</g>
<g id="Layer_62">
</g>
<g id="Layer_63">
</g>
<g id="Layer_64">
</g>
<g id="Layer_65">
</g>
<g id="Layer_66">
</g>
<g id="Layer_67">
</g>
<g id="Layer_68">
</g>
<g id="Layer_69">
</g>
<g id="Layer_70">
</g>
<g id="Layer_71">
</g>
<g id="Layer_72">
</g>
<g id="Layer_73">
</g>
<g id="Layer_74">
</g>
<g id="Layer_75">
</g>
<g id="Layer_76">
</g>
<g id="Layer_77">
</g>
<g id="Layer_78">
</g>
<g id="Layer_79">
</g>
<g id="Layer_80">
</g>
<g id="Layer_81">
</g>
<g id="Layer_82">
</g>
<g id="Layer_83">
</g>
<g id="Layer_84">
</g>
<g id="Layer_85">
</g>
<g id="Layer_86">
</g>
<g id="Layer_87">
</g>
<g id="Layer_88">
</g>
<g id="Layer_89">
</g>
<g id="Layer_90">
</g>
</svg>
