<svg xmlns="http://www.w3.org/2000/svg" width="128" height="128" viewBox="0 0 128 128">
  <title>JIGSAW</title>
  <g>
    <g>
      <path d="M110.219,1.75H65.6a5.992,5.992,0,0,0-2.991.8L14.79,30.044a6,6,0,0,0-3.009,5.2v29.07a6,6,0,0,0,6,6h92.438a6,6,0,0,0,6-6V7.75A6,6,0,0,0,110.219,1.75ZM74.031,36.4H19.781L66.137,9.75h7.894Z" fill="#57555c"/>
      <path d="M35.625,49.628h56.75a5,5,0,0,1,5,5V70.315a0,0,0,0,1,0,0H30.625a0,0,0,0,1,0,0V54.628A5,5,0,0,1,35.625,49.628Z" fill="#fedb41"/>
      <path d="M88.312,61.722H39.687a1.75,1.75,0,0,1,0-3.5H88.312a1.75,1.75,0,0,1,0,3.5Z" fill="#fea832"/>
      <path d="M45.412,80.428l-3.15-10.113H33.883l3.89,12.491A13,13,0,0,0,50.185,91.94h57.752a2,2,0,0,0,2-2v-4a2,2,0,0,0-2-2H50.185A5,5,0,0,1,45.412,80.428Z" fill="#6e77e5"/>
      <g>
        <rect x="85.562" y="70.315" width="11.813" height="13.625" fill="#e5e5e5"/>
        <polygon points="85.562 91.94 85.562 121.246 97.375 126.25 97.375 91.94 85.562 91.94" fill="#e5e5e5"/>
      </g>
      <path d="M107.125,38.152H88.312a1.75,1.75,0,0,1,0-3.5h18.813a1.75,1.75,0,0,1,0,3.5Z" fill="#6ecd24"/>
      <path d="M107.125,28.378H88.312a1.75,1.75,0,0,1,0-3.5h18.813a1.75,1.75,0,0,1,0,3.5Z" fill="#6ecd24"/>
    </g>
    <g>
      <path d="M110.219,0H65.6a7.756,7.756,0,0,0-3.863,1.031l-47.821,27.5a7.77,7.77,0,0,0-3.887,6.719v29.07a7.759,7.759,0,0,0,7.75,7.75H32.6L36.1,83.326A14.684,14.684,0,0,0,50.185,93.69H83.812v27.556a1.75,1.75,0,0,0,1.068,1.611l11.812,5a1.75,1.75,0,0,0,2.433-1.611v-10a1.75,1.75,0,0,0-3.5,0v7.358l-8.313-3.521V93.69h8.313v8.873a1.75,1.75,0,0,0,3.5,0V93.69h8.812a3.754,3.754,0,0,0,3.75-3.75v-4a3.755,3.755,0,0,0-3.75-3.75H99.125V72.065h11.094a7.759,7.759,0,0,0,7.75-7.75V7.75A7.759,7.759,0,0,0,110.219,0Zm-2.032,85.94v4a.25.25,0,0,1-.25.25H50.185a11.2,11.2,0,0,1-10.741-7.905l-3.183-10.22h4.713l2.767,8.883a6.719,6.719,0,0,0,6.444,4.742h57.752A.251.251,0,0,1,108.187,85.94Zm-58-3.75a3.236,3.236,0,0,1-3.1-2.283L44.64,72.065H83.812V82.19Zm37.127,0V72.065h8.313V82.19Zm27.157-17.875a4.255,4.255,0,0,1-4.25,4.25H99.125V54.628a6.758,6.758,0,0,0-6.75-6.75H64a1.75,1.75,0,0,0,0,3.5H92.375a3.254,3.254,0,0,1,3.25,3.25V68.565H32.375V54.628a3.254,3.254,0,0,1,3.25-3.25,1.75,1.75,0,0,0,0-3.5,6.758,6.758,0,0,0-6.75,6.75V68.565H17.781a4.255,4.255,0,0,1-4.25-4.25V35.245a4.26,4.26,0,0,1,2.132-3.684l47.821-27.5A4.251,4.251,0,0,1,65.6,3.5h44.617a4.255,4.255,0,0,1,4.25,4.25Z"/>
      <path d="M74.031,8H66.137a1.753,1.753,0,0,0-.872.232L18.909,34.885a1.75,1.75,0,0,0,.872,3.267h54.25a1.749,1.749,0,0,0,1.75-1.75V9.75A1.749,1.749,0,0,0,74.031,8Zm-1.75,26.652H26.336L66.6,11.5h5.677Z"/>
      <path d="M51.812,51.378a1.75,1.75,0,0,0,0-3.5h-4a1.75,1.75,0,0,0,0,3.5Z"/>
      <path d="M37.937,59.972a1.75,1.75,0,0,0,1.75,1.75H88.312a1.75,1.75,0,0,0,0-3.5H39.687A1.75,1.75,0,0,0,37.937,59.972Z"/>
      <path d="M107.125,34.652H88.312a1.75,1.75,0,0,0,0,3.5h18.813a1.75,1.75,0,0,0,0-3.5Z"/>
      <path d="M107.125,24.878H88.312a1.75,1.75,0,0,0,0,3.5h18.813a1.75,1.75,0,0,0,0-3.5Z"/>
    </g>
  </g>
</svg>
