<?xml version="1.0" encoding="utf-8"?>
<!-- Generator: Adobe Illustrator 16.0.0, SVG Export Plug-In . SVG Version: 6.00 Build 0)  -->
<!DOCTYPE svg PUBLIC "-//W3C//DTD SVG 1.0//EN" "http://www.w3.org/TR/2001/REC-SVG-20010904/DTD/svg10.dtd">
<svg version="1.0" id="Layer_1" xmlns="http://www.w3.org/2000/svg" xmlns:xlink="http://www.w3.org/1999/xlink" x="0px" y="0px"
	 width="100px" height="100px" viewBox="0 0 100 100" enable-background="new 0 0 100 100" xml:space="preserve">
<path d="M83.333,16.668c-3.685,0-6.666,2.985-6.666,6.667c0,0.592,0.101,1.159,0.247,1.706l-9.082,9.082
	c-1.731-1.88-3.652-3.581-5.771-5.022l2.425-5.85c0.563-0.075,1.123-0.195,1.67-0.423c3.405-1.41,5.017-5.309,3.607-8.708
	c-1.406-3.402-5.307-5.02-8.708-3.61c-3.405,1.41-5.02,5.31-3.61,8.711c0.229,0.547,0.537,1.032,0.883,1.481l-2.155,5.203
	c-3.955-1.652-8.288-2.57-12.839-2.57C24.922,23.335,10,38.257,10,56.667C10,75.068,24.922,90,43.333,90
	c18.398,0,33.334-14.932,33.334-33.333c0-6.285-1.771-12.139-4.795-17.155l9.759-9.757c0.547,0.146,1.11,0.247,1.702,0.247
	c3.686,0,6.667-2.985,6.667-6.667S87.019,16.668,83.333,16.668z M16.667,56.667c0-7.752,3.326-14.712,8.613-19.585
	c-2.598,12.953-2.592,26.226,0.022,39.191C20.007,71.396,16.667,64.427,16.667,56.667z M33.444,81.416
	c-4.496-16.263-4.506-33.241-0.026-49.491c2.356-0.944,4.876-1.565,7.507-1.803c-5.717,17.799-5.385,36.277,0.013,53.091
	C38.308,82.979,35.794,82.356,33.444,81.416z M47.91,82.913c-2.959-8.521-4.538-17.324-4.567-26.143
	c6.26,6.244,11.481,13.503,15.42,21.615C55.593,80.645,51.907,82.22,47.91,82.913z M63.86,73.679
	c-5.123-9.971-11.979-18.552-20.02-25.584c0.273-2.585,0.69-5.156,1.218-7.715c9.212,7.344,16.934,16.375,22.813,26.727
	C66.855,69.495,65.495,71.706,63.86,73.679z M69.948,57.715c-6.276-9.406-14.076-17.603-23.1-24.36
	c0.3-0.986,0.645-1.966,0.983-2.943C60.403,32.554,70,43.478,70,56.667C70,57.021,69.961,57.363,69.948,57.715z"/>
</svg>
