<?xml version="1.0" encoding="utf-8"?>
<!-- Generator: Adobe Illustrator 24.0.0, SVG Export Plug-In . SVG Version: 6.00 Build 0)  -->
<svg version="1.1" xmlns="http://www.w3.org/2000/svg" xmlns:xlink="http://www.w3.org/1999/xlink" x="0px" y="0px"
	 viewBox="0 0 256 256" enable-background="new 0 0 256 256" xml:space="preserve">
<g id="Layer_1">
</g>
<g id="Layer_2">
</g>
<g id="Layer_3">
</g>
<g id="Layer_4">
</g>
<g id="Layer_5">
</g>
<g id="Layer_6">
</g>
<g id="Layer_7">
</g>
<g id="Layer_8">
</g>
<g id="Layer_9">
</g>
<g id="Layer_10">
</g>
<g id="Layer_11">
</g>
<g id="Layer_12">
</g>
<g id="Layer_13">
</g>
<g id="Layer_14">
</g>
<g id="Layer_15">
</g>
<g id="Layer_16">
</g>
<g id="Layer_17">
</g>
<g id="Layer_18">
</g>
<g id="Layer_19">
</g>
<g id="Layer_20">
</g>
<g id="Layer_21">
</g>
<g id="Layer_22">
</g>
<g id="Layer_23">
</g>
<g id="Layer_24">
</g>
<g id="Layer_25">
</g>
<g id="Layer_26">
</g>
<g id="Layer_27">
</g>
<g id="Layer_28">
</g>
<g id="Layer_29">
</g>
<g id="Layer_30">
</g>
<g id="Layer_31">
</g>
<g id="Layer_32">
</g>
<g id="Layer_33">
</g>
<g id="Layer_34">
</g>
<g id="Layer_35">
</g>
<g id="Layer_36">
</g>
<g id="Layer_37">
</g>
<g id="Layer_38">
</g>
<g id="Layer_39">
</g>
<g id="Layer_40">
</g>
<g id="Layer_41">
</g>
<g id="Layer_42">
</g>
<g id="Layer_43">
</g>
<g id="Layer_44">
</g>
<g id="Layer_45">
</g>
<g id="Layer_46">
</g>
<g id="Layer_47">
</g>
<g id="Layer_48">
</g>
<g id="Layer_49">
</g>
<g id="Layer_50">
</g>
<g id="Layer_51">
</g>
<g id="Layer_52">
</g>
<g id="Layer_53">
</g>
<g id="Layer_54">
</g>
<g id="Layer_55">
</g>
<g id="Layer_56">
</g>
<g id="Layer_57">
</g>
<g id="Layer_58">
</g>
<g id="Layer_59">
</g>
<g id="Layer_60">
</g>
<g id="Layer_61">
</g>
<g id="Layer_62">
</g>
<g id="Layer_63">
</g>
<g id="Layer_64">
</g>
<g id="Layer_65">
</g>
<g id="Layer_66">
</g>
<g id="Layer_67">
</g>
<g id="Layer_68">
</g>
<g id="Layer_69">
</g>
<g id="Layer_70">
</g>
<g id="Layer_71">
	<g>
		<g>
			<g>
				<path fill="#70D6F9" d="M111.412,244.1h-2.3v-2.3c0-1.7-1.4-3.2-3.2-3.2s-3.2,1.4-3.2,3.2v2.3h-2.3c-1.7,0-3.2,1.4-3.2,3.2
					c0,1.8,1.4,3.2,3.2,3.2h2.3v2.3c0,1.7,1.4,3.2,3.2,3.2s3.2-1.4,3.2-3.2v-2.3h2.3c1.7,0,3.2-1.4,3.2-3.2
					C114.612,245.5,113.212,244.1,111.412,244.1z"/>
			</g>
		</g>
		<g>
			<g>
				<path fill="#F5C84C" d="M74.512,240.2c-1.878,0-3.4,1.522-3.4,3.4c0,1.877,1.522,3.4,3.4,3.4c1.878,0,3.4-1.522,3.4-3.4
					C77.912,241.722,76.39,240.2,74.512,240.2z"/>
			</g>
		</g>
		<g>
			<g>
				<path fill="#F5C84C" d="M186.512,19.65c-4.5-0.8-8-4.3-8.9-8.7c0-0.2-0.4-0.2-0.4,0c-0.9,4.4-4.4,7.9-8.9,8.7
					c-0.2,0-0.2,0.3,0,0.4c4.5,0.8,8,4.3,8.9,8.7c0,0.2,0.4,0.2,0.4,0c0.9-4.4,4.4-7.9,8.9-8.7
					C186.712,19.95,186.712,19.65,186.512,19.65z"/>
			</g>
		</g>
		<g>
			<g>
				<path fill="#FC657E" d="M15.322,155.01c-3.157-0.562-5.613-3.017-6.245-6.104c0-0.141-0.281-0.141-0.281,0
					c-0.631,3.087-3.087,5.543-6.245,6.104c-0.14,0-0.14,0.21,0,0.281c3.157,0.561,5.613,3.017,6.245,6.104
					c0,0.14,0.281,0.14,0.281,0c0.632-3.087,3.087-5.543,6.245-6.104C15.463,155.22,15.463,155.01,15.322,155.01z"/>
			</g>
		</g>
		<g>
			<g>
				<path fill="#87D147" d="M151.512,0c-1.878,0-3.4,1.522-3.4,3.4c0,1.878,1.522,3.4,3.4,3.4c1.878,0,3.4-1.522,3.4-3.4
					C154.912,1.522,153.39,0,151.512,0z"/>
			</g>
		</g>
		<g>
			<g>
				<path fill="#EDF4FC" d="M148.187,23.414L132.79,12.027c-2.847-2.105-6.734-2.105-9.581,0l-15.397,11.387
					c-7.236,5.427-11.494,13.944-11.494,22.988v94.414h63.362V46.402C159.681,37.358,155.423,28.841,148.187,23.414z"/>
			</g>
		</g>
		<g>
			<g>
				<path fill="#FCA265" d="M179.556,100.498L159.681,85.42v55.396h21.92c2.914,0,5.275-2.362,5.275-5.275V115.24
					C186.877,109.451,184.168,103.997,179.556,100.498z"/>
			</g>
		</g>
		<g>
			<g>
				<path fill="#FCA265" d="M76.444,100.498c-4.612,3.499-7.32,8.953-7.32,14.742v20.301c0,2.914,2.362,5.275,5.275,5.275h21.92
					V85.42L76.444,100.498z"/>
			</g>
		</g>
		<g>
			<g>
				<path fill="#F5C84C" d="M156.667,178.394l-6.908-14.678c-0.546-1.16,0.015-2.538,1.214-2.988l4.332-1.625
					c1.265-0.474,1.805-1.968,1.134-3.142l-8.655-15.146h-39.572l-8.655,15.146c-0.67,1.173-0.131,2.667,1.134,3.142l4.332,1.625
					c1.2,0.45,1.76,1.828,1.214,2.988l-6.908,14.678c-0.559,1.189,0.045,2.6,1.291,3.015l6.512,2.17
					c0.764,0.254,1.326,0.907,1.466,1.699l2.978,16.873h32.842l2.978-16.873c0.14-0.792,0.703-1.445,1.466-1.699l6.512-2.17
					C156.623,180.994,157.227,179.583,156.667,178.394z"/>
			</g>
		</g>
		<g>
			<g>
				<polygon fill="#EDB311" points="117.64,140.816 122.586,202.152 133.414,202.152 138.36,140.816 				"/>
			</g>
		</g>
		<g>
			<g>
				
					<ellipse transform="matrix(0.0553 -0.9985 0.9985 0.0553 59.8223 185.613)" fill="#70D6F9" cx="128" cy="61.193" rx="14.018" ry="14.018"/>
			</g>
		</g>
		<g>
			<g>
				<path fill="#FCA265" d="M128,86.986c-3.097,0-5.607,2.511-5.607,5.607v48.223h11.215V92.594
					C133.607,89.497,131.097,86.986,128,86.986z"/>
			</g>
		</g>
		<g>
			<g>
				<path fill="#FC657E" d="M148.187,23.414L132.79,12.027c-2.847-2.105-6.734-2.105-9.581,0l-15.397,11.387
					c-1.785,1.339-3.388,2.868-4.791,4.544c7.307,4.366,15.848,6.88,24.978,6.88c9.13,0,17.671-2.514,24.978-6.88
					C151.575,26.282,149.972,24.753,148.187,23.414z"/>
			</g>
		</g>
		<g>
			<g>
				<path fill="#EDF4FC" d="M247.968,202.152H8.032c-3.055,0-5.532,2.477-5.532,5.532c0,10.752,8.716,19.468,19.468,19.468h212.063
					c10.752,0,19.468-8.716,19.468-19.468C253.5,204.628,251.023,202.152,247.968,202.152z"/>
			</g>
		</g>
		<g>
			<g>
				<path fill="#C7D7E5" d="M83.931,202.152v5.975c0,3.174,2.573,5.748,5.748,5.748h76.641c3.175,0,5.748-2.574,5.748-5.748v-5.975
					H83.931z"/>
			</g>
		</g>
		<g>
			<g>
				<path fill="#5290DB" d="M220.345,42.428h-60.952c0.183,1.309,0.287,2.635,0.287,3.975V85.42l19.875,15.077
					c4.612,3.499,7.32,8.954,7.32,14.742v20.301c0,2.914-2.362,5.275-5.275,5.275h-33.815l8.655,15.146
					c0.67,1.173,0.131,2.667-1.134,3.142l-4.332,1.625c-1.2,0.45-1.76,1.828-1.214,2.988l6.908,14.678
					c0.559,1.189-0.045,2.6-1.291,3.015l-6.512,2.17c-0.764,0.254-1.326,0.907-1.466,1.699l-2.978,16.873h89.776V56.28
					C234.197,48.629,227.996,42.428,220.345,42.428z"/>
			</g>
		</g>
		<g>
			<g>
				<path fill="#5290DB" d="M108.602,185.279c-0.14-0.792-0.703-1.445-1.466-1.699l-6.512-2.17c-1.246-0.416-1.85-1.826-1.291-3.015
					l6.908-14.678c0.546-1.16-0.015-2.538-1.214-2.988l-4.332-1.625c-1.265-0.474-1.804-1.968-1.134-3.142l8.655-15.146H74.399
					c-2.914,0-5.275-2.362-5.275-5.275V115.24c0-5.789,2.709-11.244,7.32-14.742L96.319,85.42V46.402
					c0-1.34,0.105-2.666,0.287-3.975H35.655c-7.65,0-13.852,6.202-13.852,13.852v145.872h89.776L108.602,185.279z"/>
			</g>
		</g>
		<g>
			<g>
				<path fill="#FCDD86" d="M220.281,52.918h-60.599V85.42l19.875,15.077c4.612,3.499,7.32,8.954,7.32,14.742v20.301
					c0,2.914-2.362,5.275-5.275,5.275h-33.815l8.655,15.146c0.67,1.173,0.131,2.667-1.134,3.142l-4.332,1.625
					c-1.2,0.45-1.76,1.828-1.214,2.988l6.908,14.678c0.559,1.189-0.045,2.6-1.291,3.015l-6.512,2.17
					c-0.764,0.254-1.326,0.907-1.466,1.699l-2.978,16.873h79.286V56.344C223.707,54.453,222.173,52.918,220.281,52.918z"/>
			</g>
		</g>
		<g>
			<g>
				<path fill="#FCDD86" d="M108.602,185.279c-0.14-0.792-0.703-1.445-1.466-1.699l-6.512-2.17c-1.246-0.416-1.85-1.826-1.291-3.015
					l6.908-14.678c0.546-1.16-0.015-2.538-1.214-2.988l-4.332-1.625c-1.265-0.474-1.804-1.968-1.134-3.142l8.655-15.146H74.399
					c-2.914,0-5.275-2.362-5.275-5.275V115.24c0-5.789,2.709-11.244,7.32-14.742L96.319,85.42V52.918H35.719
					c-1.892,0-3.426,1.534-3.426,3.426v145.808h79.286L108.602,185.279z"/>
			</g>
		</g>
		<g>
			<g>
				<path fill="#DAE6F1" d="M35.719,52.918c-1.892,0-3.426,1.534-3.426,3.426v10.737h64.025V52.918H35.719z"/>
			</g>
		</g>
		<g>
			<g>
				<path fill="#DAE6F1" d="M220.281,52.918h-60.599v14.163h64.025V56.344C223.707,54.452,222.173,52.918,220.281,52.918z"/>
			</g>
		</g>
		<g>
			<g>
				<path fill="#FC657E" d="M35.719,52.918c-1.892,0-3.426,1.534-3.426,3.426v10.736H52.75V52.918H35.719z"/>
			</g>
		</g>
		<g>
			<g>
				<path d="M95.921,39.928H35.655c-9.017,0-16.352,7.335-16.352,16.352v144.785c0,1.381,1.119,2.5,2.5,2.5s2.5-1.119,2.5-2.5
					V56.279c0-6.26,5.092-11.352,11.352-11.352h60.267c1.381,0,2.5-1.119,2.5-2.5S97.302,39.928,95.921,39.928z"/>
			</g>
		</g>
		<g>
			<g>
				<path d="M220.346,39.928h-60.19c-1.381,0-2.5,1.119-2.5,2.5s1.119,2.5,2.5,2.5h60.19c6.259,0,11.352,5.093,11.352,11.352
					v144.827c0,1.381,1.119,2.5,2.5,2.5s2.5-1.119,2.5-2.5V56.279C236.697,47.263,229.362,39.928,220.346,39.928z"/>
			</g>
		</g>
		<g>
			<g>
				<path d="M95.922,50.419H35.72c-3.268,0-5.926,2.658-5.926,5.926v144.762c0,1.381,1.119,2.5,2.5,2.5s2.5-1.119,2.5-2.5V56.345
					c0-0.511,0.416-0.926,0.926-0.926h60.203c1.381,0,2.5-1.119,2.5-2.5S97.303,50.419,95.922,50.419z"/>
			</g>
		</g>
		<g>
			<g>
				<path d="M220.281,50.419h-60.125c-1.381,0-2.5,1.119-2.5,2.5s1.119,2.5,2.5,2.5h60.125c0.51,0,0.926,0.415,0.926,0.926v144.763
					c0,1.381,1.119,2.5,2.5,2.5s2.5-1.119,2.5-2.5V56.345C226.207,53.077,223.548,50.419,220.281,50.419z"/>
			</g>
		</g>
		<g>
			<g>
				<path d="M52.75,51.404c-1.381,0-2.5,1.119-2.5,2.5v12.238c0,1.381,1.119,2.5,2.5,2.5s2.5-1.119,2.5-2.5V53.904
					C55.25,52.523,54.131,51.404,52.75,51.404z"/>
			</g>
		</g>
		<g>
			<g>
				<path d="M223,64.581h-62.844c-1.381,0-2.5,1.119-2.5,2.5s1.119,2.5,2.5,2.5H223c1.381,0,2.5-1.119,2.5-2.5
					S224.381,64.581,223,64.581z"/>
			</g>
		</g>
		<g>
			<g>
				<path d="M95.922,64.581H34c-1.381,0-2.5,1.119-2.5,2.5s1.119,2.5,2.5,2.5h61.922c1.381,0,2.5-1.119,2.5-2.5
					S97.303,64.581,95.922,64.581z"/>
			</g>
		</g>
		<g>
			<g>
				<g>
					<path d="M247.968,199.652H8.032c-4.429,0-8.032,3.603-8.032,8.031c0,12.113,9.855,21.969,21.968,21.969h212.063
						c12.113,0,21.968-9.855,21.968-21.969C256,203.255,252.397,199.652,247.968,199.652z M234.032,224.652H21.968
						C12.612,224.652,5,217.04,5,207.684c0-1.672,1.36-3.031,3.032-3.031h239.937c1.672,0,3.032,1.359,3.032,3.031
						C251,217.04,243.388,224.652,234.032,224.652z"/>
				</g>
			</g>
		</g>
		<g>
			<g>
				<path d="M172.069,200.628c-1.381,0-2.5,1.119-2.5,2.5v4.999c0,1.791-1.457,3.248-3.248,3.248H89.68
					c-1.791,0-3.248-1.457-3.248-3.248v-4.874c0-1.381-1.119-2.5-2.5-2.5s-2.5,1.119-2.5,2.5v4.874c0,4.548,3.7,8.248,8.248,8.248
					h76.641c4.548,0,8.248-3.7,8.248-8.248v-4.999C174.569,201.747,173.45,200.628,172.069,200.628z"/>
			</g>
		</g>
		<g>
			<g>
				<g>
					<path d="M149.687,21.414c-0.004-0.003-0.009-0.007-0.014-0.01l-15.396-11.387c-3.756-2.777-8.8-2.777-12.554,0l-15.41,11.396
						c-7.824,5.868-12.494,15.21-12.494,24.988v94.414c0,1.381,1.119,2.5,2.5,2.5h63.362c1.381,0,2.5-1.119,2.5-2.5V46.402
						C162.181,36.624,157.511,27.282,149.687,21.414z M157.181,138.316H98.819V46.402c0-8.213,3.923-16.06,10.48-20.979
						l15.397-11.387c1.976-1.461,4.631-1.461,6.608,0l15.389,11.382c6.567,4.929,10.488,12.772,10.488,20.983V138.316z"/>
				</g>
			</g>
		</g>
		<g>
			<g>
				<path d="M181.067,98.507l-19.28-14.628c-1.101-0.834-2.668-0.619-3.503,0.481c-0.834,1.1-0.619,2.668,0.48,3.502l19.281,14.628
					c3.964,3.007,6.331,7.773,6.331,12.75v20.301c0,1.53-1.245,2.775-2.775,2.775h-21.92c-1.381,0-2.5,1.119-2.5,2.5
					s1.119,2.5,2.5,2.5h21.92c4.288,0,7.775-3.488,7.775-7.775V115.24C189.376,108.708,186.27,102.453,181.067,98.507z"/>
			</g>
		</g>
		<g>
			<g>
				<path d="M96.319,138.316h-21.92c-1.53,0-2.775-1.245-2.775-2.775V115.24c0-4.977,2.367-9.743,6.331-12.75l19.665-14.918
					c1.1-0.835,1.315-2.403,0.481-3.503c-0.835-1.102-2.403-1.314-3.502-0.481L74.933,98.506c-5.203,3.947-8.31,10.202-8.31,16.734
					v20.301c0,4.287,3.488,7.775,7.775,7.775h21.92c1.381,0,2.5-1.119,2.5-2.5S97.7,138.316,96.319,138.316z"/>
			</g>
		</g>
		<g>
			<g>
				<path d="M158.93,177.33l-6.766-14.378l4.019-1.508c1.291-0.482,2.299-1.503,2.768-2.799c0.468-1.296,0.345-2.727-0.339-3.924
					l-8.208-14.363c-0.684-1.198-2.211-1.616-3.411-0.931c-1.199,0.686-1.615,2.213-0.93,3.411l8.028,14.051l-3.995,1.498
					c-1.224,0.459-2.208,1.417-2.699,2.628c-0.492,1.21-0.455,2.582,0.101,3.765l6.761,14.366l-6.182,2.062
					c-1.636,0.544-2.839,1.938-3.14,3.637l-2.806,15.899c-0.24,1.359,0.668,2.656,2.027,2.896c0.147,0.026,0.293,0.038,0.438,0.038
					c1.19,0,2.245-0.853,2.459-2.065l2.774-15.72l6.337-2.112c1.271-0.424,2.304-1.373,2.831-2.604
					C159.525,179.944,159.5,178.542,158.93,177.33z"/>
			</g>
		</g>
		<g>
			<g>
				<path d="M113.868,200.737l-2.805-15.892c-0.299-1.699-1.502-3.094-3.138-3.638l-6.184-2.062l6.761-14.366
					c0.556-1.183,0.593-2.555,0.101-3.765c-0.492-1.211-1.476-2.169-2.7-2.628l-3.995-1.498l8.13-14.229
					c0.685-1.198,0.269-2.726-0.93-3.411c-1.2-0.688-2.726-0.269-3.411,0.931l-8.311,14.542c-0.683,1.197-0.807,2.628-0.338,3.924
					s1.477,2.315,2.766,2.798l4.021,1.508L97.07,177.33c-0.57,1.213-0.595,2.615-0.067,3.848c0.528,1.231,1.56,2.181,2.83,2.604
					l6.338,2.112l2.773,15.713c0.214,1.213,1.269,2.066,2.459,2.065c0.144,0,0.291-0.012,0.438-0.038
					C113.2,203.394,114.108,202.097,113.868,200.737z"/>
			</g>
		</g>
		<g>
			<g>
				<path d="M138.476,139.382c-1.388-0.097-2.582,0.916-2.693,2.291l-4.782,59.306c-0.111,1.377,0.915,2.582,2.291,2.693
					c0.069,0.005,0.137,0.008,0.204,0.008c1.29,0,2.383-0.991,2.489-2.299l4.782-59.306
					C140.878,140.698,139.852,139.493,138.476,139.382z"/>
			</g>
		</g>
		<g>
			<g>
				<path d="M120.208,141.555c-0.111-1.375-1.308-2.385-2.693-2.291c-1.376,0.111-2.402,1.317-2.291,2.693l4.792,59.423
					c0.105,1.308,1.199,2.299,2.489,2.299c0.067,0,0.136-0.003,0.204-0.008c1.376-0.111,2.402-1.317,2.291-2.693L120.208,141.555z"
					/>
			</g>
		</g>
		<g>
			<g>
				<g>
					<path d="M128,44.675c-9.108,0-16.518,7.41-16.518,16.518c0,9.108,7.41,16.519,16.518,16.519s16.518-7.41,16.518-16.519
						C144.518,52.085,137.108,44.675,128,44.675z M128,72.711c-6.351,0-11.518-5.167-11.518-11.519
						c0-6.351,5.167-11.518,11.518-11.518s11.518,5.167,11.518,11.518C139.518,67.544,134.351,72.711,128,72.711z"/>
				</g>
			</g>
		</g>
		<g>
			<g>
				<path d="M128,84.486c-4.47,0-8.107,3.637-8.107,8.107v47.364c0,1.381,1.119,2.5,2.5,2.5s2.5-1.119,2.5-2.5V92.594
					c0-1.714,1.394-3.107,3.107-3.107s3.107,1.394,3.107,3.107v47.469c0,1.381,1.119,2.5,2.5,2.5s2.5-1.119,2.5-2.5V92.594
					C136.107,88.123,132.47,84.486,128,84.486z"/>
			</g>
		</g>
		<g>
			<g>
				<path d="M154.589,27.029c-0.692-1.193-2.221-1.601-3.417-0.909c-7.017,4.068-15.03,6.219-23.173,6.219
					c-8.169,0-16.205-2.163-23.237-6.256c-1.193-0.692-2.723-0.289-3.418,0.903c-0.694,1.193-0.29,2.725,0.903,3.419
					c7.795,4.536,16.7,6.934,25.752,6.934c9.022,0,17.903-2.384,25.681-6.893C154.875,29.754,155.282,28.224,154.589,27.029z"/>
			</g>
		</g>
	</g>
</g>
<g id="Layer_72">
</g>
<g id="Layer_73">
</g>
<g id="Layer_74">
</g>
<g id="Layer_75">
</g>
<g id="Layer_76">
</g>
<g id="Layer_77">
</g>
<g id="Layer_78">
</g>
<g id="Layer_79">
</g>
<g id="Layer_80">
</g>
<g id="Layer_81">
</g>
<g id="Layer_82">
</g>
<g id="Layer_83">
</g>
<g id="Layer_84">
</g>
<g id="Layer_85">
</g>
<g id="Layer_86">
</g>
<g id="Layer_87">
</g>
<g id="Layer_88">
</g>
<g id="Layer_89">
</g>
<g id="Layer_90">
</g>
</svg>
