<svg id="Layer_1" data-name="Layer 1" xmlns="http://www.w3.org/2000/svg" viewBox="0 0 500 500"><path d="M464.5,241.177c-2.108-6.2-6.956-13.759-14.235-16.367-4.675-1.674-9.676-1.16-14.9,1.524a185.306,185.306,0,0,0-9.018-38.119c-.024-.122-.044-.218-.053-.258a1.576,1.576,0,0,0-.234-.556q-2.781-7.8-6.22-15.269a31.114,31.114,0,0,0,9.293,6.46,27.811,27.811,0,0,0,10.556,1.9,42.436,42.436,0,0,0,12.213-1.862,1.6,1.6,0,0,0,.835-2.39c-.049-.076-4.969-7.649-8.711-13.823-2.465-4.067-8.732-8.72-15.94-9.74a20.493,20.493,0,0,0-15.954,4.5,187.481,187.481,0,0,0-16.647-24.3c-.108-.2-.179-.331-.2-.37a1.561,1.561,0,0,0-.518-.523q-4-4.9-8.32-9.512c6.658,3.411,12.9,5.141,18.631,5.141.192,0,.384,0,.574-.006,19.021-.385,34.352-9.656,35-10.051a1.6,1.6,0,0,0,.021-2.715c-.092-.058-9.211-5.857-13.032-9.611-2.885-2.833-28.88-26.7-60.686-.858q-7.145-5.749-14.844-10.8c-.165-.161-.264-.251-.277-.263a1.572,1.572,0,0,0-.6-.318,186.73,186.73,0,0,0-22.364-12.38,76.264,76.264,0,0,0,9.086.57,53.233,53.233,0,0,0,12.98-1.492c19.762-4.989,41.968-26.842,42.9-27.769a1.6,1.6,0,0,0-.342-2.531c-.785-.441-19.416-10.858-36.2-14.044-7.441-1.408-24.26,1.564-36.486,10.821-8.608,6.519-13.845,15.269-15.233,25.4a185.277,185.277,0,0,0-27.607-6.344,1.562,1.562,0,0,0-.407-.057q-5.248-.78-10.589-1.258a28.585,28.585,0,0,0,10.51-5.933c9.572-8.959,6.63-18.017,6.5-18.4a1.6,1.6,0,0,0-2.246-.906,43.569,43.569,0,0,1-13.117,4.011c-9.7,1.05-16.138,7.94-19.163,20.455A187.886,187.886,0,0,0,229,64.325a1.629,1.629,0,0,0-.326.037q-8.913,1.019-17.563,2.859A31.053,31.053,0,0,0,219.7,56.062c4.145-9.869,2.616-16.486,2.55-16.762a1.6,1.6,0,0,0-2.144-1.112c-.589.234-14.476,5.8-18.126,14.346a23.04,23.04,0,0,0-.717,17.065,185.435,185.435,0,0,0-34.994,13.383c-.276.1-.45.164-.49.179a1.6,1.6,0,0,0-.511.319,186.677,186.677,0,0,0-16.438,9.484c4.514-5.365,8.79-11.648,10.709-17.864,4.83-15.648-.7-36.661-.933-37.547a1.6,1.6,0,0,0-2.677-.717c-.1.1-10.315,10.313-16.127,15.937-.4.391-.884.832-1.42,1.327-6.937,6.388-25.188,23.229-7.394,51.947a188.426,188.426,0,0,0-16.554,15.483l-.115.069a1.57,1.57,0,0,0-.594.692,188.1,188.1,0,0,0-12.432,14.7A50.414,50.414,0,0,0,103,124.8c.2-14.243-4.445-18.333-4.975-18.753a1.6,1.6,0,0,0-1.946-.03c-.446.331-10.915,8.248-10.714,21.072.166,10.62,5.525,19.42,7.35,22.117A186.681,186.681,0,0,0,79.44,173.7l-.054.073a1.6,1.6,0,0,0-.291.714q-3.709,8.362-6.607,17.136a103.288,103.288,0,0,0-1.007-15.406c-2.752-19.287-21.751-32.278-22.559-32.822a1.6,1.6,0,0,0-2.458.991c-.032.15-3.237,15.056-4.912,20.9-1.8,6.27-4.819,26.786,4.541,38.428,4.555,5.665,11.34,8.527,20.195,8.527.225,0,.463-.018.69-.022a186.64,186.64,0,0,0-3.7,31l-.005.035a1.6,1.6,0,0,0-.009.352c-.072,2.124-.122,4.254-.122,6.4s.049,4.25.12,6.364c-4.216-7.089-12.57-14.772-29.147-18.237a1.6,1.6,0,0,0-1.919,1.738c.06.554,1.488,13.611,3.306,18.958,2.108,6.2,6.956,13.759,14.235,16.367a16.234,16.234,0,0,0,5.513.962,20.539,20.539,0,0,0,9.384-2.5,185.32,185.32,0,0,0,9.019,38.129c.024.122.044.218.053.258a1.6,1.6,0,0,0,.228.539q2.784,7.808,6.226,15.286a31.114,31.114,0,0,0-9.293-6.46c-10.121-4.168-22.258-.209-22.769-.038a1.6,1.6,0,0,0-.835,2.39c.049.076,4.969,7.649,8.711,13.823,2.465,4.067,8.732,8.72,15.94,9.74a20.974,20.974,0,0,0,2.928.207,20.609,20.609,0,0,0,13.026-4.711,187.67,187.67,0,0,0,16.647,24.3c.108.205.179.331.2.37a1.6,1.6,0,0,0,.547.559q3.984,4.876,8.288,9.473c-6.888-3.531-13.332-5.269-19.2-5.132-19.021.385-34.352,9.656-34.995,10.051a1.6,1.6,0,0,0-.021,2.715c.092.058,9.211,5.857,13.032,9.611,1.892,1.858,13.72,12.764,30.613,12.764,8.863,0,19.124-3.022,30.068-11.91q7.146,5.751,14.849,10.8c.165.161.264.251.277.263a1.562,1.562,0,0,0,.609.32,186.79,186.79,0,0,0,22.372,12.385c-7.009-.845-14.8-.92-22.079.915-19.762,4.989-41.968,26.842-42.9,27.769a1.6,1.6,0,0,0,.342,2.531c.785.441,19.416,10.858,36.2,14.044a22.494,22.494,0,0,0,4.106.333c8.462,0,22.059-3.338,32.38-11.154,8.608-6.519,13.845-15.269,15.233-25.4a185.424,185.424,0,0,0,27.618,6.346,1.655,1.655,0,0,0,.363.051q5.265.783,10.623,1.262a28.6,28.6,0,0,0-10.511,5.933c-9.572,8.959-6.63,18.017-6.5,18.4a1.6,1.6,0,0,0,2.246.906,43.569,43.569,0,0,1,13.117-4.011c9.7-1.05,16.138-7.94,19.163-20.455a187.849,187.849,0,0,0,20.419-1.175c.009,0,.018,0,.028,0a1.613,1.613,0,0,0,.366-.05q8.9-1.017,17.539-2.856a31.053,31.053,0,0,0-8.593,11.159c-4.145,9.869-2.616,16.486-2.55,16.762a1.6,1.6,0,0,0,2.144,1.112c.589-.234,14.476-5.8,18.126-14.346a23.04,23.04,0,0,0,.717-17.065,185.435,185.435,0,0,0,34.994-13.383c.276-.1.45-.164.49-.179a1.6,1.6,0,0,0,.511-.319,186.677,186.677,0,0,0,16.438-9.484c-4.514,5.365-8.79,11.648-10.709,17.864-4.83,15.648.695,36.661.933,37.547a1.6,1.6,0,0,0,1.131,1.132,1.628,1.628,0,0,0,.414.054,1.6,1.6,0,0,0,1.132-.469c.1-.1,10.315-10.313,16.127-15.937.4-.391.884-.832,1.42-1.327,6.937-6.388,25.188-23.229,7.394-51.947a188.589,188.589,0,0,0,16.555-15.483l.114-.069a1.57,1.57,0,0,0,.594-.692,188.1,188.1,0,0,0,12.432-14.7A50.414,50.414,0,0,0,397,375.2c-.2,14.243,4.445,18.333,4.975,18.753a1.6,1.6,0,0,0,1.946.03c.446-.331,10.915-8.248,10.714-21.072-.166-10.62-5.525-19.42-7.35-22.117a186.681,186.681,0,0,0,13.278-24.493l.054-.073a1.6,1.6,0,0,0,.291-.714q3.71-8.363,6.607-17.136a103.288,103.288,0,0,0,1.007,15.406c2.752,19.287,21.751,32.278,22.559,32.822a1.6,1.6,0,0,0,2.458-.991c.032-.15,3.237-15.056,4.912-20.9,1.8-6.27,4.819-26.786-4.541-38.428-4.672-5.81-11.692-8.668-20.882-8.518a186.682,186.682,0,0,0,3.7-30.989l.005-.035a1.6,1.6,0,0,0,.009-.352c.072-2.124.122-4.254.122-6.395s-.049-4.25-.12-6.364c4.216,7.089,12.57,14.772,29.147,18.237a1.6,1.6,0,0,0,1.919-1.738C467.749,259.581,466.321,246.524,464.5,241.177Zm-36.86-85.331c6.156.871,11.628,4.89,13.652,8.229,2.645,4.366,5.872,9.42,7.577,12.071-3.7.884-11.782,2.258-18.517-.513-7.5-3.087-14.307-12.473-16.5-15.734A17.221,17.221,0,0,1,427.643,155.846ZM204.921,53.792c2.394-5.6,10.64-10,14.429-11.774a30.007,30.007,0,0,1-2.6,12.805C213.9,61.614,207.2,66.437,204.2,68.332A19.894,19.894,0,0,1,204.921,53.792Zm-64.372,2.662c.558-.515,1.057-.975,1.478-1.382,4.244-4.107,10.822-10.646,14.125-13.939,1.312,6.168,3.9,21.455.328,33.023C152.641,86.6,138,99.958,133.411,103.913,117.462,77.719,133.586,62.865,140.549,56.454ZM96.842,109.562c1.141,1.764,3.086,6.119,2.962,15.191a50.518,50.518,0,0,1-5.329,21.24c-2.088-3.458-5.779-10.714-5.908-18.959C88.43,118.246,94.3,111.9,96.842,109.562ZM48.587,201.705c-8.657-10.767-5.325-30.772-3.959-35.541,1.306-4.558,3.447-14.16,4.437-18.681,4.831,3.8,17.2,14.794,19.248,29.18a102.712,102.712,0,0,1-.679,32.352C59.122,209.3,52.721,206.846,48.587,201.705Zm23.77,142.449c-6.156-.871-11.628-4.89-13.652-8.229-2.645-4.366-5.872-9.42-7.577-12.071,3.7-.885,11.783-2.258,18.517.513,7.5,3.087,14.307,12.473,16.5,15.734A17.193,17.193,0,0,1,72.357,344.154ZM295.079,446.208c-2.394,5.6-10.64,10-14.429,11.774a30.007,30.007,0,0,1,2.6-12.805c2.853-6.791,9.553-11.614,12.551-13.509A19.894,19.894,0,0,1,295.079,446.208Zm64.372-2.662c-.558.515-1.057.975-1.478,1.382-4.244,4.107-10.822,10.646-14.125,13.939-1.312-6.168-3.9-21.455-.328-33.023,3.839-12.442,18.483-25.8,23.069-29.757C382.538,422.281,366.414,437.135,359.451,443.546Zm43.707-53.108c-1.141-1.764-3.086-6.119-2.962-15.191a50.518,50.518,0,0,1,5.329-21.24c2.088,3.458,5.779,10.714,5.908,18.959C411.57,381.754,405.7,388.105,403.158,390.438ZM451.413,298.3c8.657,10.767,5.325,30.772,3.959,35.541-1.306,4.558-3.447,14.16-4.437,18.681-4.831-3.8-17.195-14.794-19.248-29.18a102.712,102.712,0,0,1,.679-32.352C440.872,290.7,447.28,293.153,451.413,298.3Zm-30.4-70.422c-5.115,14.759-19.025,22-24.193,24.245-.305-4.966-1.013-16.956-1.013-21.442,0-.86-.024-1.834-.052-2.9-.3-11.712-.854-33.34,27.674-37.688C424.263,195.113,426.445,212.211,421.018,227.873Zm-22.883-68.8c.031,14.995-9.679,21.851-13.29,23.881-2.018-3.859-7.622-14.622-9.3-18.282-1.093-2.385-3.338-8.629-.584-15.085,2.543-5.959,8.645-10.764,18.147-14.291A57.481,57.481,0,0,1,398.135,159.068ZM425.4,107.521a90.552,90.552,0,0,0,11.31,8.563c-4.889,2.53-17.1,8.047-31.115,8.331-.167,0-.332,0-.5,0-11.384,0-23.273-7.805-30.387-13.454q-2.57-2.307-5.223-4.522C398.905,83.031,422.738,104.908,425.4,107.521ZM350.7,96.685c3.627,3.816,15.176,18.368,3.894,39.19-3.261-3.626-10.958-13.093-11.38-22.093C342.8,104.959,348.342,98.86,350.7,96.685Zm-42.025-24.1c1.15-9.63,5.88-17.65,14.072-23.854C335.182,39.308,351,37.415,356.7,38.5c13.219,2.509,28.106,9.918,33.309,12.656-5.421,5.06-23.856,21.4-39.86,25.44-14.74,3.721-32.366-1.041-39.441-3.329-.675-.233-1.353-.459-2.032-.684Zm-30.184-3.337c4.438,2.905,16.2,11.526,21.179,24.116,5.089,12.874,3.966,26.67,3.38,31.309-6.033-1.381-27.021-7.238-28.989-22.228-1.931-14.7,2.125-26.491,4.074-32.157Q278.325,69.72,278.486,69.245Zm-9.522-23.373a44.553,44.553,0,0,0,12.31-3.451c.224,2.663-.267,7.884-5.977,13.227-6.282,5.88-16.938,7.226-21.891,7.533-.223,0-.447,0-.671-.009C256.853,47.183,265.908,46.2,268.964,45.872ZM230.413,68.18c3.6,1.494,11.2,5.088,13.766,9.7a12.775,12.775,0,0,1,.543,10.695c-2.524-.973-7.977-3.342-11.081-6.675C230.309,78.316,230.219,71.562,230.413,68.18Zm-91.977,50.963c8.408,1.051,12.568,4.8,14.159,6.677-3.306,2.6-13.212,9.742-21.474,9.323-7.765-.409-12.379-8.347-13.907-11.49C120.385,122.005,129.244,118,138.436,119.143Zm-39.17,43.666a38.714,38.714,0,0,1,14.487-.385,18.229,18.229,0,0,1-12.744,10.742,40.055,40.055,0,0,1-17.507.613C86.28,170.567,92.475,164.245,99.266,162.809ZM50.812,272.178c-6.208-2.225-10.417-8.889-12.286-14.384-1.276-3.754-2.4-12.051-2.891-16.042,21.157,5.138,26.749,17.43,28.2,24.343q.179,2.076.4,4.141C59.428,272.989,54.915,273.65,50.812,272.178Zm28.17-.051c5.115-14.759,19.025-22,24.193-24.245.305,4.966,1.012,16.956,1.012,21.442,0,.86.025,1.834.053,2.9.3,11.712.854,33.34-27.674,37.688C75.737,304.887,73.555,287.789,78.982,272.127Zm22.883,68.805c-.031-15,9.679-21.851,13.29-23.881,2.018,3.859,7.622,14.622,9.3,18.282,1.093,2.385,3.338,8.629.584,15.085-2.543,5.959-8.645,10.764-18.147,14.291A57.481,57.481,0,0,1,101.865,340.932ZM74.6,392.479a90.552,90.552,0,0,0-11.31-8.563c4.889-2.53,17.1-8.047,31.115-8.331,11.537-.232,23.712,7.755,30.931,13.489q2.548,2.286,5.178,4.482C101.094,416.97,77.261,395.092,74.6,392.479Zm74.7,10.836c-3.627-3.816-15.176-18.368-3.894-39.19,3.261,3.626,10.958,13.093,11.38,22.093C157.205,395.041,151.658,401.14,149.305,403.315Zm42.025,24.1c-1.15,9.63-5.88,17.65-14.072,23.854C164.818,460.692,149,462.583,143.3,461.5c-13.219-2.509-28.106-9.918-33.309-12.656,5.421-5.06,23.856-21.4,39.86-25.44,14.734-3.72,32.351,1.036,39.432,3.326.679.234,1.359.461,2.041.687Zm30.184,3.337c-4.438-2.9-16.2-11.526-21.179-24.116-5.089-12.874-3.966-26.67-3.38-31.309,6.033,1.381,27.021,7.238,28.989,22.228,1.931,14.7-2.125,26.491-4.074,32.157Q221.675,430.28,221.514,430.755Zm9.522,23.373a44.553,44.553,0,0,0-12.31,3.451c-.224-2.663.267-7.884,5.977-13.227,6.282-5.88,16.938-7.226,21.891-7.533.223,0,.447,0,.671.009C243.147,452.817,234.092,453.8,231.036,454.128Zm38.551-22.308c-3.6-1.494-11.2-5.088-13.766-9.7a12.775,12.775,0,0,1-.543-10.7c2.524.973,7.977,3.342,11.081,6.675C269.691,421.684,269.781,428.438,269.587,431.82Zm91.977-50.963c-8.408-1.051-12.568-4.8-14.159-6.677,3.306-2.6,13.217-9.751,21.474-9.323,7.765.409,12.379,8.347,13.907,11.49C379.616,378,370.756,382.005,361.564,380.857Zm39.17-43.666a38.692,38.692,0,0,1-14.487.385,18.229,18.229,0,0,1,12.744-10.742,40.055,40.055,0,0,1,17.507-.613C413.72,329.433,407.525,335.755,400.734,337.191ZM433.663,250q0,2.438-.065,4.86c-4.206-.04-15.168.6-20.528,7.92-4.475,6.113-8.6,18.158-8.771,18.667a1.6,1.6,0,0,0,1.281,2.1,30.156,30.156,0,0,0,4.057.246c4.3,0,11.184-.76,16.536-4.937a23.7,23.7,0,0,0,6.345-8.407,182.157,182.157,0,0,1-14.157,52.9,42.14,42.14,0,0,0-20.161.382,21.19,21.19,0,0,0-15.6,14.656,1.6,1.6,0,0,0,1.1,1.9,32.447,32.447,0,0,0,8.572,1,44.061,44.061,0,0,0,9.121-.967c4.518-.956,8.685-3.668,11.976-6.462a184.493,184.493,0,0,1-28.116,40.251c-2.106-4.065-7.322-11.981-16.209-12.449-11.335-.6-24.329,10.551-24.876,11.026a1.6,1.6,0,0,0-.343,2c.179.315,4.532,7.745,17.339,9.346a30.636,30.636,0,0,0,3.8.233,39.662,39.662,0,0,0,12.525-2.193,184.623,184.623,0,0,1-43.13,31.035c-2.9-5.691-14.228-24.554-38.513-27.693-17.374-2.242-35.587,2.869-36.354,3.087a1.6,1.6,0,0,0-1.1,1.986c.257.885,6.541,21.757,27.2,29.358a49.863,49.863,0,0,0,17.249,2.774,82.588,82.588,0,0,0,12.787-1.089,182.139,182.139,0,0,1-42.857,10.721c.245-3.765.187-11.754-4.071-16.327-4.682-5.029-13.414-7.91-13.783-8.03a1.6,1.6,0,0,0-1.9.75c-.17.308-4.111,7.644,0,15.036,2.277,4.09,7.471,7.334,11.6,9.4q-7.242.573-14.63.583h-.072a1.607,1.607,0,0,0-.591-.133c-.175,0-1.317-.02-3.07.087a184.37,184.37,0,0,1-21.757-1.73c.117-.35.248-.73.386-1.131,2.028-5.9,6.249-18.166,4.221-33.613-1.084-8.255-7.234-15.26-17.784-20.257a66.842,66.842,0,0,0-15.44-5.046,1.6,1.6,0,0,0-1.848,1.285c-.135.732-3.237,18.118,3.315,34.69,4.129,10.445,12.345,18.165,18.084,22.574a181.885,181.885,0,0,1-22.882-5.934c-.669-.242-1.626-.574-2.831-.96a183.023,183.023,0,0,1-37.779-18.261c2.954-2.838,8.489-9.491,8.035-19.166-.592-12.636-13.234-25.227-13.772-25.756a1.6,1.6,0,0,0-2.5.319c-9.829,16.46-6.223,29.772-1.788,37.774q-4.4-3.212-8.606-6.666c-1.081-1.03-3.243-3.014-6.193-5.349a185.178,185.178,0,0,1-18.276-19.007c9.874-3.824,16.305-9.1,19.125-15.708,3.255-7.631.652-14.9-.618-17.675-2.083-4.546-9.779-19.21-10.105-19.832a1.6,1.6,0,0,0-2.044-.728,29.982,29.982,0,0,0-16.549,27.5,63.68,63.68,0,0,0,2.029,15.9A183.376,183.376,0,0,1,77.469,313c30.871-4.922,30.271-29.1,29.969-40.852-.026-1.038-.05-1.984-.05-2.82,0-5.794-1.11-23.112-1.158-23.846a1.6,1.6,0,0,0-2.1-1.416c-.868.29-21.341,7.315-28.169,27.016A75.656,75.656,0,0,0,72.2,296.091a182.551,182.551,0,0,1-4.665-25.216,24.485,24.485,0,0,0-.448-4.414c-.484-5.424-.746-10.912-.746-16.461q0-2.437.065-4.861l.342,0c4.432,0,14.966-.794,20.186-7.921,4.475-6.113,8.6-18.158,8.771-18.667a1.6,1.6,0,0,0-1.281-2.1c-.5-.073-12.36-1.735-20.593,4.691a23.7,23.7,0,0,0-6.345,8.407,182.18,182.18,0,0,1,14.156-52.9,38.155,38.155,0,0,0,9.05,1.029,45.022,45.022,0,0,0,11.112-1.412,21.19,21.19,0,0,0,15.6-14.656,1.6,1.6,0,0,0-1.1-1.9c-.3-.092-7.536-2.183-17.693-.032-4.518.956-8.685,3.668-11.976,6.462a184.527,184.527,0,0,1,28.116-40.251c2.106,4.065,7.322,11.981,16.209,12.449.295.016.591.023.889.023,11.12,0,23.454-10.587,23.987-11.049a1.6,1.6,0,0,0,.343-2c-.179-.315-4.532-7.745-17.339-9.346a37.337,37.337,0,0,0-16.32,1.958A184.6,184.6,0,0,1,165.64,86.892c2.9,5.691,14.228,24.554,38.513,27.693a73.11,73.11,0,0,0,9.323.568,109.561,109.561,0,0,0,27.031-3.655,1.6,1.6,0,0,0,1.1-1.986c-.257-.885-6.541-21.757-27.2-29.358-8.122-2.988-18.194-3.562-29.957-1.715a182.1,182.1,0,0,1,42.778-10.691c-.245,3.765-.187,11.754,4.071,16.327,4.682,5.029,13.414,7.91,13.783,8.03a1.593,1.593,0,0,0,1.9-.75c.17-.308,4.111-7.644,0-15.036-2.277-4.09-7.471-7.334-11.6-9.4q7.242-.573,14.63-.583h.072a1.607,1.607,0,0,0,.591.133c.045,0,.155,0,.324,0,.476,0,1.422-.013,2.7-.09a184.122,184.122,0,0,1,21.806,1.73c-.117.35-.248.73-.386,1.131-2.028,5.9-6.249,18.166-4.221,33.613,1.084,8.255,7.234,15.26,17.784,20.257a66.842,66.842,0,0,0,15.44,5.046,1.534,1.534,0,0,0,.277.025,1.6,1.6,0,0,0,1.571-1.31c.135-.732,3.237-18.118-3.315-34.69-4.129-10.445-12.345-18.165-18.084-22.574a181.953,181.953,0,0,1,22.865,5.928c.678.245,1.658.586,2.891.981a183.032,183.032,0,0,1,37.736,18.246c-2.954,2.838-8.489,9.491-8.035,19.166.592,12.636,13.234,25.227,13.772,25.756a1.6,1.6,0,0,0,1.122.46,1.536,1.536,0,0,0,.2-.012,1.6,1.6,0,0,0,1.171-.767c9.829-16.46,6.223-29.772,1.788-37.774q4.4,3.211,8.606,6.666c1.081,1.03,3.243,3.014,6.193,5.349a185.178,185.178,0,0,1,18.276,19.007c-9.874,3.824-16.305,9.1-19.125,15.708-3.255,7.631-.652,14.9.618,17.675,2.083,4.546,9.779,19.21,10.105,19.832a1.6,1.6,0,0,0,2.044.728,29.982,29.982,0,0,0,16.549-27.5,63.68,63.68,0,0,0-2.029-15.9A183.376,183.376,0,0,1,422.531,187c-30.871,4.922-30.271,29.1-29.969,40.852.026,1.038.05,1.984.05,2.82,0,5.794,1.11,23.112,1.158,23.846a1.6,1.6,0,0,0,2.1,1.416c.868-.29,21.341-7.315,28.169-27.016a75.656,75.656,0,0,0,3.763-25.013,182.551,182.551,0,0,1,4.665,25.216,24.485,24.485,0,0,0,.448,4.414C433.4,238.963,433.663,244.451,433.663,250Zm-18.011,14.671c4.317-5.9,13.665-6.586,17.586-6.6-.829,4.03-3.362,13.836-9.034,18.263-5.3,4.14-12.691,4.379-16.181,4.21C409.371,276.9,412.486,268.994,415.652,264.671Zm-84.209,149.75c-6.13,2.042-28.163,8.524-44.746,2.421-15.965-5.874-22.823-20.814-24.682-25.688,4.856-1.189,19.642-4.347,33.422-2.565C318.089,391.517,328.715,409.092,331.443,414.421ZM66.762,241.932c.829-4.03,3.362-13.836,9.034-18.263,4.616-3.6,10.808-4.245,14.638-4.245.571,0,1.09.014,1.543.035-1.348,3.645-4.463,11.547-7.629,15.87C80.031,241.225,70.683,241.915,66.762,241.932ZM168.557,85.579c6.13-2.042,28.162-8.524,44.746-2.421,15.965,5.874,22.823,20.814,24.682,25.688-4.857,1.188-19.641,4.346-33.422,2.565C181.911,108.483,171.285,90.908,168.557,85.579ZM436.162,233.905q-.178-2.076-.4-4.141c4.808-2.754,9.32-3.415,13.424-1.942,6.208,2.225,10.417,8.889,12.286,14.384,1.276,3.754,2.4,12.051,2.891,16.042C443.208,253.11,437.616,240.818,436.162,233.905Z" style="fill:#231f20"/></svg>