<svg id="Layer_1" data-name="Layer 1" xmlns="http://www.w3.org/2000/svg" viewBox="0 0 500 500"><path d="M363.806,387.9a8.3,8.3,0,1,0,8.3,8.3A8.312,8.312,0,0,0,363.806,387.9Z" style="fill:#231f20"/><path d="M327.977,407.835c-5.47,4.314-9.3,11.113-10.3,13-8.9,4.389-19.254,7.279-29.146,9.179a134.744,134.744,0,0,0,11.5-10.2l.548-.587c3.729-4,10.668-11.431,10.472-16.866a5.294,5.294,0,0,0-1.721-3.829,4.055,4.055,0,0,0-3.37-1.074c-4.49.577-9.742,7.926-14.749,15.782-.475.744-.845,1.326-1.085,1.671-2.7,3.889-7.255,13.451-8.592,16.305-6.035.92-11.7,1.5-16.521,1.854,2.806-1.568,5.6-3.17,6.274-3.714.575-.461,2-1.774,3.639-3.295,2-1.849,4.734-4.382,5.5-4.92,1.195-.844,7.282-6.416,5.486-10.786a2.81,2.81,0,0,0-2.517-1.689c-4.172-.316-14,6.281-15.926,9.492-1,1.675-3.6,5.436-5.9,8.753-2.172,3.143-3.7,5.367-4.487,6.611-4.315.168-6.951.139-7.057.139H250a1.6,1.6,0,0,0-.025,3.2c.138,0,.532.008,1.154.008,2.106,0,6.837-.061,13.1-.488,3.77,5.844,14.393,13.819,22.238,15.223a15.848,15.848,0,0,0,2.8.266c4.258,0,6.361-2.105,6.872-4.191.411-1.68-.249-3.2-1.571-3.613a86.4,86.4,0,0,1-12.583-6.927,15.877,15.877,0,0,0-4.869-2.015c3.529-.451,7.239-1.016,11.037-1.728,2.3,1.175,11.361,5.565,20.391,6.79a34.057,34.057,0,0,0,4.534.287c5.709,0,11.9-1.244,14.162-3.666a3.59,3.59,0,0,0,1-3.218c-.918-4.488-9.541-4.977-19.062-5.108l-.734-.009c-.314-.006-.654-.006-1.01,0a94.787,94.787,0,0,0,11.9-4.879c1.733-.249,11.5-1.784,17.412-5.562,2.906-1.856,10.529-7.7,10.9-12.395a4.157,4.157,0,0,0-1.419-3.555C341.662,398.017,334.077,403.022,327.977,407.835Z" style="fill:#231f20"/><path d="M433.851,264.6a8.3,8.3,0,0,0-5.873,14.175h0a8.3,8.3,0,1,0,5.872-14.175Z" style="fill:#231f20"/><path d="M435.138,324.5c-3.827-2.527-10.265,3.226-17.085,9.862l-.532.517c-.231.224-.478.473-.734.736a94.769,94.769,0,0,0,4.981-11.887c1.04-1.389,6.869-9.386,8.38-16.246.743-3.366,2-12.887-1.054-16.473a4.151,4.151,0,0,0-3.518-1.511c-6.092.352-7.92,9.253-8.832,16.97-.817,6.911,1.278,14.415,1.91,16.468-3.191,9.4-8.464,18.762-14.115,27.1a135.177,135.177,0,0,0,.919-15.337l-.028-.807c-.19-5.459-.541-15.623-4.523-19.326a5.29,5.29,0,0,0-3.925-1.49,4.054,4.054,0,0,0-3.141,1.623c-2.767,3.582-1.284,12.492.729,21.587.191.862.341,1.538.415,1.952.838,4.662,4.382,14.638,5.455,17.6-3.619,4.921-7.218,9.336-10.373,13,.876-3.094,1.716-6.2,1.812-7.066.078-.7.142-2.312.242-4.891.106-2.725.249-6.457.409-7.378.248-1.442.61-9.687-3.748-11.506a2.8,2.8,0,0,0-2.975.586c-3.2,2.748-5.457,14.34-4.549,17.973.473,1.9,1.3,6.395,2.021,10.366.687,3.757,1.177,6.411,1.5,7.844-2.933,3.17-4.818,5.012-4.891,5.084a1.6,1.6,0,1,0,2.226,2.3c.436-.422,4.395-4.294,9.74-10.42a25.917,25.917,0,0,0,5.369.5c6.981,0,16.045-1.923,21.119-5.457,5.133-3.575,5.395-7.412,4.059-9.612-.9-1.476-2.435-2.082-3.665-1.441a86.543,86.543,0,0,1-13.8,4,15.961,15.961,0,0,0-4.872,2.026c2.178-2.816,4.4-5.843,6.587-9.034,2.457-.8,11.969-4.1,19.22-9.617,5.237-3.987,10.974-11.378,10.832-15.611A3.59,3.59,0,0,0,435.138,324.5Z" style="fill:#231f20"/><path d="M396.2,144.5a8.3,8.3,0,1,0-8.3-8.3A8.314,8.314,0,0,0,396.2,144.5Z" style="fill:#231f20"/><path d="M447.683,203.867c-1.675-.411-3.2.248-3.615,1.572a86.412,86.412,0,0,1-6.927,12.582,15.9,15.9,0,0,0-2.015,4.869c-.45-3.528-1.017-7.238-1.729-11.035,1.174-2.3,5.566-11.361,6.791-20.393.884-6.522-.286-15.8-3.378-18.695a3.583,3.583,0,0,0-3.218-1c-4.489.916-4.978,9.538-5.108,19.058l-.009.736c0,.323,0,.673,0,1.041a94.792,94.792,0,0,0-4.883-11.928c-.248-1.729-1.784-11.5-5.563-17.413-1.854-2.905-7.7-10.528-12.393-10.9a4.138,4.138,0,0,0-3.556,1.419c-4.06,4.557.942,12.144,5.754,18.244,4.314,5.471,11.114,9.3,13,10.3,4.389,8.9,7.279,19.254,9.18,29.147a135.3,135.3,0,0,0-10.2-11.5l-.6-.557c-3.938-3.673-11.219-10.465-16.627-10.465-.077,0-.154,0-.229,0a5.3,5.3,0,0,0-3.829,1.722,4.052,4.052,0,0,0-1.074,3.369c.577,4.489,7.926,9.742,15.781,14.749.745.475,1.327.845,1.673,1.085,3.888,2.705,13.452,7.255,16.305,8.592.921,6.037,1.5,11.7,1.855,16.525-1.568-2.807-3.172-5.6-3.716-6.278-.461-.575-1.774-2-3.3-3.639-1.849-2-4.382-4.734-4.92-5.5-.843-1.194-6.411-7.284-10.786-5.486a2.809,2.809,0,0,0-1.689,2.517c-.316,4.2,6.281,14,9.491,15.926,1.677,1.006,5.441,3.607,8.762,5.9,3.14,2.17,5.363,3.7,6.605,4.484.168,4.316.138,6.952.136,7.055a1.6,1.6,0,0,0,1.575,1.624h.026a1.6,1.6,0,0,0,1.6-1.575c.01-.607.072-6.142-.48-14.252,5.843-3.77,13.82-14.394,15.223-22.239C452.708,207.379,450.182,204.479,447.683,203.867Z" style="fill:#231f20"/><path d="M272.9,74.449a8.274,8.274,0,0,0,5.871-2.427h0a8.317,8.317,0,1,0-5.872,2.427Z" style="fill:#231f20"/><path d="M366.928,116.72c3.754-.686,6.408-1.175,7.841-1.5,3.17,2.933,5.013,4.819,5.085,4.892a1.6,1.6,0,0,0,2.3-2.226c-.422-.436-4.293-4.395-10.418-9.738,1.465-6.8-.406-19.952-4.961-26.491-3.573-5.129-7.41-5.392-9.609-4.061-1.479.9-2.088,2.438-1.445,3.669a86.345,86.345,0,0,1,4,13.8,15.922,15.922,0,0,0,2.027,4.872c-2.816-2.178-5.843-4.4-9.034-6.587-.8-2.456-4.1-11.968-9.617-19.22-3.938-5.174-11.2-10.834-15.454-10.834-.052,0-.1,0-.156,0a3.59,3.59,0,0,0-2.981,1.569c-2.525,3.823,3.226,10.265,9.865,17.088l.515.529c.224.232.473.479.736.735a94.939,94.939,0,0,0-11.888-4.982c-1.389-1.041-9.386-6.868-16.246-8.379-3.366-.745-12.886-2-16.473,1.053a4.16,4.16,0,0,0-1.512,3.519c.353,6.093,9.255,7.92,16.97,8.83a28.245,28.245,0,0,0,3.326.186,47.982,47.982,0,0,0,13.143-2.1c9.4,3.191,18.761,8.465,27.1,14.115a135.326,135.326,0,0,0-15.337-.918l-.817.028c-5.457.191-15.614.543-19.316,4.523a5.3,5.3,0,0,0-1.49,3.925,4.055,4.055,0,0,0,1.622,3.141c1.409,1.088,3.642,1.519,6.385,1.519,4.233,0,9.685-1.027,15.2-2.248.862-.192,1.537-.341,1.951-.415,4.663-.838,14.638-4.382,17.6-5.455,4.92,3.619,9.335,7.218,13,10.373-3.094-.876-6.2-1.716-7.066-1.812-.7-.078-2.316-.142-4.9-.242-2.722-.106-6.449-.249-7.368-.408-1.44-.247-9.687-.614-11.506,3.746a2.81,2.81,0,0,0,.585,2.975c2.332,2.713,11.034,4.753,15.835,4.753a9.19,9.19,0,0,0,2.139-.2C358.456,118.268,362.956,117.445,366.928,116.72Z" style="fill:#231f20"/><path d="M136.2,112.106a8.3,8.3,0,1,0-8.3-8.3A8.315,8.315,0,0,0,136.2,112.106Z" style="fill:#231f20"/><path d="M249.976,66.336H250a1.6,1.6,0,0,0,.025-3.2c-.608-.008-6.143-.07-14.249.482-3.771-5.844-14.4-13.823-22.242-15.225-6.152-1.1-9.054,1.425-9.667,3.924-.411,1.68.249,3.2,1.573,3.615a86.069,86.069,0,0,1,12.581,6.928,15.92,15.92,0,0,0,4.873,2.014c-3.529.45-7.24,1.017-11.037,1.729-2.3-1.172-11.36-5.566-20.394-6.792-6.518-.883-15.8.287-18.7,3.378a3.591,3.591,0,0,0-1,3.218c.918,4.489,9.539,4.978,19.06,5.108l.736.009c.153,0,.31,0,.473,0,.182,0,.371,0,.566,0a94.792,94.792,0,0,0-11.928,4.883c-1.729.248-11.5,1.783-17.412,5.562-2.905,1.854-10.527,7.7-10.9,12.393a4.161,4.161,0,0,0,1.419,3.558,5.884,5.884,0,0,0,4.054,1.49c4.318,0,9.664-3.676,14.189-7.246,5.471-4.314,9.3-11.113,10.3-13,8.9-4.389,19.254-7.278,29.145-9.179a135.226,135.226,0,0,0-11.5,10.2l-.558.6c-5.156,5.528-10.641,11.844-10.46,16.855a5.3,5.3,0,0,0,1.722,3.829,4.025,4.025,0,0,0,2.791,1.111,4.529,4.529,0,0,0,.577-.037c4.491-.577,9.745-7.929,14.754-15.786.473-.742.842-1.323,1.081-1.668,2.7-3.887,7.252-13.447,8.591-16.3,6.034-.92,11.7-1.5,16.52-1.854-2.806,1.568-5.594,3.17-6.273,3.713-.547.437-1.734,1.533-3.626,3.284-2,1.853-4.745,4.392-5.51,4.931-1.194.844-7.28,6.419-5.485,10.786a2.809,2.809,0,0,0,2.517,1.689c.1.008.2.011.3.011,4.353,0,13.741-6.366,15.623-9.5,1-1.676,3.6-5.438,5.9-8.755,2.169-3.141,3.7-5.365,4.485-6.609C247.234,66.307,249.87,66.336,249.976,66.336Z" style="fill:#231f20"/><path d="M66.149,235.4a8.3,8.3,0,0,0,5.874-14.171h0A8.3,8.3,0,1,0,66.149,235.4Z" style="fill:#231f20"/><path d="M118.743,143.44c-.473-1.894-1.3-6.389-2.019-10.355-.688-3.761-1.179-6.419-1.5-7.853,2.934-3.17,4.819-5.013,4.892-5.085a1.6,1.6,0,0,0-2.226-2.3c-.436.422-4.394,4.292-9.738,10.417-6.8-1.465-19.953.407-26.49,4.962-5.13,3.572-5.393,7.409-4.061,9.608a3.209,3.209,0,0,0,2.632,1.7,2.23,2.23,0,0,0,1.037-.255,86.066,86.066,0,0,1,13.8-4,15.918,15.918,0,0,0,4.871-2.027c-2.178,2.816-4.4,5.842-6.586,9.033-2.454.8-11.968,4.1-19.221,9.617-5.236,3.987-10.973,11.377-10.831,15.611a3.592,3.592,0,0,0,1.569,2.981,3.706,3.706,0,0,0,2.091.607c3.863,0,9.3-4.926,15-10.471l.531-.517c.231-.224.478-.472.734-.735a94.939,94.939,0,0,0-4.982,11.888c-1.04,1.389-6.867,9.385-8.378,16.245-.744,3.365-2,12.885,1.053,16.473a4.144,4.144,0,0,0,3.243,1.52c.091,0,.183,0,.275-.008,6.094-.353,7.921-9.255,8.831-16.97.817-6.911-1.278-14.416-1.91-16.469,3.191-9.4,8.465-18.762,14.116-27.1a135.228,135.228,0,0,0-.92,15.339l.029.823c.264,7.552.852,15.9,4.523,19.31a5.3,5.3,0,0,0,3.7,1.494c.073,0,.146,0,.221,0a4.054,4.054,0,0,0,3.141-1.623c2.768-3.585,1.283-12.5-.732-21.6-.191-.856-.34-1.527-.413-1.938-.838-4.663-4.382-14.64-5.453-17.6,3.618-4.92,7.216-9.334,10.371-13-.876,3.094-1.716,6.2-1.812,7.067-.077.694-.142,2.3-.241,4.876-.106,2.729-.249,6.468-.409,7.392-.247,1.442-.607,9.687,3.748,11.5a2.592,2.592,0,0,0,1.006.2,3.026,3.026,0,0,0,1.968-.789C117.39,158.667,119.651,147.073,118.743,143.44Z" style="fill:#231f20"/><path d="M103.805,355.5h0a8.3,8.3,0,1,0,8.3,8.3A8.316,8.316,0,0,0,103.8,355.5Z" style="fill:#231f20"/><path d="M92.166,327.978c-4.313-5.471-11.113-9.3-13-10.3-4.389-8.9-7.279-19.255-9.181-29.148a135.124,135.124,0,0,0,10.2,11.5l.6.564c5.438,5.069,11.638,10.458,16.606,10.458.082,0,.164,0,.245,0a5.3,5.3,0,0,0,3.828-1.722,4.052,4.052,0,0,0,1.074-3.369c-.577-4.492-7.931-9.746-15.791-14.755-.74-.472-1.319-.84-1.662-1.078-3.89-2.706-13.454-7.257-16.306-8.593-.92-6.036-1.5-11.7-1.855-16.523,1.569,2.807,3.172,5.6,3.716,6.279.436.544,1.526,1.726,3.269,3.608,1.86,2.008,4.405,4.759,4.946,5.526.739,1.043,5.083,5.813,9.078,5.813a4.437,4.437,0,0,0,1.707-.328,2.81,2.81,0,0,0,1.69-2.516c.317-4.2-6.28-14-9.491-15.928-1.676-1-5.437-3.6-8.755-5.9-3.143-2.171-5.368-3.7-6.612-4.488-.168-4.316-.138-6.952-.136-7.055a1.6,1.6,0,0,0-1.575-1.624h-.026a1.6,1.6,0,0,0-1.6,1.575c-.01.607-.072,6.142.481,14.252-5.845,3.771-13.823,14.4-15.225,22.24-1.1,6.152,1.425,9.052,3.923,9.666a4.143,4.143,0,0,0,.982.122,2.606,2.606,0,0,0,2.636-1.695,85.887,85.887,0,0,1,6.926-12.581,15.927,15.927,0,0,0,2.014-4.869c.45,3.527,1.017,7.237,1.729,11.034-1.172,2.3-5.565,11.359-6.792,20.393-.884,6.521.286,15.8,3.378,18.7a3.7,3.7,0,0,0,2.538,1.069,3.374,3.374,0,0,0,.682-.07c4.488-.919,4.977-9.538,5.107-19.056l.009-.74c.005-.323,0-.673,0-1.041a94.825,94.825,0,0,0,4.884,11.93c.248,1.729,1.783,11.5,5.561,17.411,1.855,2.906,7.7,10.529,12.395,10.905q.2.015.387.015a4.134,4.134,0,0,0,3.17-1.435C101.98,341.663,96.978,334.076,92.166,327.978Z" style="fill:#231f20"/><path d="M221.225,427.977h0a8.3,8.3,0,1,0,11.744,0A8.315,8.315,0,0,0,221.224,427.978Z" style="fill:#231f20"/><path d="M193.533,416.744c-6.913-.82-14.417,1.277-16.469,1.91-9.4-3.191-18.761-8.465-27.1-14.116,4.368.448,10.08.942,14,.942.473,0,.92-.006,1.335-.022l.815-.028c5.457-.191,15.616-.543,19.318-4.523a5.3,5.3,0,0,0,1.49-3.926,4.054,4.054,0,0,0-1.623-3.141c-3.585-2.767-12.5-1.284-21.6.733-.856.19-1.526.339-1.936.412-4.665.838-14.642,4.381-17.606,5.453-4.919-3.617-9.333-7.216-13-10.37,3.094.876,6.2,1.716,7.066,1.813.693.075,2.3.14,4.859.238,2.736.106,6.483.25,7.41.41a14.626,14.626,0,0,0,2.151.13c3.014,0,7.992-.615,9.352-3.877a2.81,2.81,0,0,0-.585-2.974c-2.748-3.2-14.338-5.463-17.974-4.551-1.894.473-6.389,1.3-10.355,2.019-3.761.688-6.419,1.178-7.853,1.5-3.171-2.934-5.013-4.819-5.085-4.892a1.6,1.6,0,0,0-2.3,2.226c.422.436,4.292,4.394,10.416,9.737-1.465,6.8.406,19.954,4.962,26.493,2.446,3.51,5.014,4.742,7.1,4.742a4.827,4.827,0,0,0,2.513-.683c1.478-.9,2.087-2.438,1.443-3.67a85.97,85.97,0,0,1-4-13.794,15.982,15.982,0,0,0-2.027-4.872c2.815,2.178,5.841,4.4,9.031,6.585.8,2.451,4.1,11.968,9.619,19.223,3.938,5.173,11.2,10.834,15.454,10.834q.079,0,.156,0a3.592,3.592,0,0,0,2.982-1.569c2.524-3.824-3.226-10.264-9.864-17.086l-.517-.531c-.224-.232-.472-.478-.735-.734a94.939,94.939,0,0,0,11.888,4.982c1.389,1.04,9.385,6.867,16.244,8.378a42.682,42.682,0,0,0,8.414.9c3.163,0,6.314-.465,8.061-1.952a4.159,4.159,0,0,0,1.512-3.519C210.149,419.481,201.248,417.654,193.533,416.744Z" style="fill:#231f20"/></svg>