<svg id="Layer_1" data-name="Layer 1" xmlns="http://www.w3.org/2000/svg" viewBox="0 0 500 500"><path d="M471.816,280.02c-.665-8.486-6.995-16.391-18.813-23.5a96.1,96.1,0,0,0-16.155-7.662,187.128,187.128,0,0,0-3.169-33.244c2.721,5.344,6.633,12.266,10.944,17.423,4.934,5.9,9.8,8.9,14.471,8.895h.147a10.961,10.961,0,0,0,6.605-2.426c.028-.018.059-.025.086-.045a1.674,1.674,0,0,0,.157-.146,15.97,15.97,0,0,0,2.512-2.542c2.078-2.626,1.784-7.416-.787-12.813-5.324-11.177-18.929-22.549-37.426-23.063-.034-.021-.069-.045-.1-.065a185.442,185.442,0,0,0-9.731-27.151,66.638,66.638,0,0,0,12.991,11.291,25.4,25.4,0,0,0,13.117,4.059,13.289,13.289,0,0,0,8.308-2.544c2.01-1.584,5.034-5.292,2.695-12.327-4.382-13.181-28.681-18.026-43.858-15.728-.078-.023-.163-.054-.24-.076a1.592,1.592,0,0,0-.781-.014,187.671,187.671,0,0,0-19.905-28.622c6.143,3.851,13.754,7.538,21.278,8.176q1.142.1,2.249.1c7.595,0,13.786-3.366,16.1-8.914,2.1-5.032.445-10.527-4.436-14.7-6.472-5.529-16.536-6.646-29.919-3.313a96.072,96.072,0,0,0-16.926,6.045,188.211,188.211,0,0,0-25.916-21.384c5.726,1.872,13.526,4.053,20.31,4.66q1.962.175,3.738.175c5.827,0,10.154-1.415,12.887-4.222a10.959,10.959,0,0,0,2.957-6.4c.006-.03.023-.053.027-.083a1.614,1.614,0,0,0,.008-.208,16.065,16.065,0,0,0-.02-3.578c-.388-3.326-3.983-6.5-9.617-8.5-11.669-4.139-29.331-2.561-42.774,10.157l-.145.032h-.006l-.008,0-.025.006a186.176,186.176,0,0,0-26-12.335c1.3.058,2.616.09,3.949.09a60.2,60.2,0,0,0,13.21-1.29c8.81-2.045,15.48-7.835,16.221-14.078.3-2.542-.182-7.3-6.81-10.622-12.419-6.22-33.025,7.529-42.132,19.886l-.225.121a1.592,1.592,0,0,0-.533.49,185.7,185.7,0,0,0-34.063-6.176c7-1.629,14.851-4.4,20.546-9.2,6.6-5.569,9.247-13.11,6.743-19.212-2.072-5.045-7.138-7.765-13.531-7.256-8.485.665-16.392,7-23.5,18.812a96.16,96.16,0,0,0-7.663,16.156,187.137,187.137,0,0,0-33.244,3.169c5.345-2.721,12.266-6.632,17.424-10.944,5.964-4.985,8.957-9.9,8.894-14.617a10.945,10.945,0,0,0-2.391-6.561,1.5,1.5,0,0,0-.08-.132,1.609,1.609,0,0,0-.149-.159,16.016,16.016,0,0,0-2.539-2.509c-2.626-2.077-7.416-1.783-12.813.787C212.782,37.51,201.409,51.115,200.9,69.614c-.021.034-.044.068-.064.1a185.483,185.483,0,0,0-27.154,9.732,66.592,66.592,0,0,0,11.293-12.992c4.783-7.676,5.406-16.486,1.515-21.426-1.584-2.01-5.291-5.035-12.326-2.694-13.181,4.383-18.028,28.681-15.729,43.858-.023.077-.054.162-.076.24a1.585,1.585,0,0,0-.016.782,187.718,187.718,0,0,0-28.62,19.9c3.852-6.143,7.538-13.754,8.176-21.278.729-8.6-2.732-15.809-8.818-18.352-5.033-2.1-10.528-.444-14.7,4.436-5.529,6.471-6.644,16.537-3.313,29.919a96.137,96.137,0,0,0,6.045,16.926,188.222,188.222,0,0,0-21.382,25.912c1.872-5.725,4.052-13.524,4.659-20.307.692-7.743-.67-13.336-4.048-16.625A10.956,10.956,0,0,0,90,104.8c-.047-.01-.091-.027-.14-.033a1.486,1.486,0,0,0-.221-.009,16.022,16.022,0,0,0-3.566.022c-3.326.387-6.5,3.982-8.5,9.616-4.14,11.669-2.561,29.331,10.156,42.774.015.06.027.124.042.184a186.054,186.054,0,0,0-12.332,25.993,66.586,66.586,0,0,0-1.2-17.15c-2.046-8.809-7.835-15.479-14.079-16.22-2.538-.3-7.3.18-10.622,6.81-6.221,12.418,7.529,33.022,19.885,42.13.041.074.081.153.122.227a1.574,1.574,0,0,0,.492.526,185.772,185.772,0,0,0-6.178,34.068c-1.629-7-4.4-14.851-9.2-20.545-5.57-6.6-13.11-9.248-19.213-6.742-5.046,2.071-7.759,7.13-7.257,13.53.666,8.486,7,16.391,18.814,23.5a96.013,96.013,0,0,0,16.155,7.662,187.119,187.119,0,0,0,3.169,33.244c-2.721-5.344-6.633-12.265-10.944-17.423-4.934-5.9-9.8-8.895-14.471-8.895H40.76a10.952,10.952,0,0,0-6.566,2.394c-.042.026-.086.047-.126.077a1.759,1.759,0,0,0-.154.144,16,16,0,0,0-2.515,2.544c-2.078,2.626-1.784,7.416.787,12.813,5.324,11.179,18.929,22.551,37.427,23.063l.1.065a185.459,185.459,0,0,0,9.731,27.149,66.626,66.626,0,0,0-12.991-11.289c-7.676-4.782-16.486-5.406-21.425-1.515C43.02,315.1,40,318.805,42.335,325.84c3.687,11.088,21.469,16.278,36.058,16.278a52.3,52.3,0,0,0,7.776-.558c.086.025.18.058.265.083a1.59,1.59,0,0,0,.44.062,1.573,1.573,0,0,0,.335-.055,187.708,187.708,0,0,0,19.909,28.629c-6.142-3.851-13.752-7.537-21.276-8.175-8.608-.73-15.809,2.732-18.353,8.818-2.1,5.032-.445,10.527,4.436,14.7,4.044,3.455,9.491,5.187,16.274,5.187a56.993,56.993,0,0,0,13.645-1.874,96.094,96.094,0,0,0,16.926-6.044,188.338,188.338,0,0,0,25.911,21.381c-5.724-1.871-13.522-4.051-20.306-4.659-7.741-.686-13.337.67-16.625,4.049A10.949,10.949,0,0,0,104.8,410a1.374,1.374,0,0,0-.035.144,1.479,1.479,0,0,0-.007.21,16.056,16.056,0,0,0,.02,3.577c.388,3.325,3.983,6.5,9.617,8.5a37.672,37.672,0,0,0,12.5,2.042,44.039,44.039,0,0,0,30.264-12.2c.049-.012.1-.021.15-.033h.01l.011,0,.022,0a186.273,186.273,0,0,0,26,12.333,66.57,66.57,0,0,0-17.154,1.2c-8.809,2.045-15.48,7.835-16.221,14.078-.3,2.542.182,7.3,6.811,10.623a15.5,15.5,0,0,0,7.01,1.546c12.133,0,27.568-11.193,35.115-21.429.076-.042.157-.083.232-.125a1.569,1.569,0,0,0,.532-.49,185.716,185.716,0,0,0,34.063,6.176c-7,1.629-14.851,4.4-20.545,9.2-6.6,5.569-9.248,13.11-6.742,19.212,1.908,4.648,6.349,7.316,12.04,7.316q.732,0,1.49-.06c8.485-.665,16.391-6.995,23.5-18.812a96.16,96.16,0,0,0,7.663-16.156,187.148,187.148,0,0,0,33.245-3.169c-5.345,2.721-12.267,6.632-17.425,10.944-5.964,4.984-8.957,9.9-8.894,14.617a10.955,10.955,0,0,0,2.4,6.566c.026.042.047.086.077.127a1.564,1.564,0,0,0,.12.124,16,16,0,0,0,2.568,2.545,7.309,7.309,0,0,0,4.614,1.373,19.685,19.685,0,0,0,8.2-2.161c11.178-5.324,22.552-18.93,23.064-37.429.021-.033.044-.067.064-.1a185.452,185.452,0,0,0,27.16-9.735,66.551,66.551,0,0,0-11.3,13c-4.783,7.676-5.406,16.486-1.516,21.425a9.269,9.269,0,0,0,7.534,3.544,15.209,15.209,0,0,0,4.793-.849c13.181-4.383,18.029-28.683,15.729-43.86.022-.077.053-.161.075-.238a1.585,1.585,0,0,0,.016-.782,187.668,187.668,0,0,0,28.62-19.9c-3.851,6.142-7.537,13.753-8.175,21.277-.73,8.606,2.731,15.81,8.817,18.353a11.319,11.319,0,0,0,4.381.894c3.68,0,7.338-1.843,10.318-5.331,5.53-6.47,6.645-16.536,3.313-29.918a96.1,96.1,0,0,0-6.045-16.926,188.237,188.237,0,0,0,21.383-25.913c-1.871,5.725-4.052,13.524-4.659,20.308-.692,7.743.67,13.337,4.048,16.625a10.959,10.959,0,0,0,6.375,2.959c.036.008.068.02.105.025a1.464,1.464,0,0,0,.218.016h0a14.737,14.737,0,0,0,1.563.091,17.3,17.3,0,0,0,2-.12c3.326-.387,6.5-3.983,8.5-9.617,4.14-11.668,2.561-29.33-10.156-42.773-.015-.061-.027-.125-.042-.185a186.232,186.232,0,0,0,12.332-25.994,66.607,66.607,0,0,0,1.2,17.153c2.046,8.809,7.836,15.479,14.079,16.22a9.459,9.459,0,0,0,1.116.067c2.66,0,6.625-1.126,9.506-6.878,6.221-12.417-7.53-33.025-19.887-42.132-.04-.073-.08-.152-.121-.225a1.586,1.586,0,0,0-.489-.532,185.712,185.712,0,0,0,6.176-34.064c1.629,7,4.4,14.852,9.2,20.547,4.175,4.948,9.457,7.673,14.411,7.673a12.582,12.582,0,0,0,4.8-.931C469.606,291.479,472.318,286.42,471.816,280.02Zm-85.6,30.947c3.9-5.8,16.152-10.25,28-10.25a42.413,42.413,0,0,1,6.811.537c-13.471,3.541-30.858,13.27-36.508,16.555A9.876,9.876,0,0,1,386.215,310.967Zm39.021-7.385c-3.682,5.294-12.687,16.7-24.2,20.5-6.569,2.163-12.153,1.265-14.934-2.4a8.184,8.184,0,0,1-.5-.793C390.908,317.791,411.778,306,425.236,303.582Zm-41.678,5.6a12.839,12.839,0,0,0-1.582,11.508,1.68,1.68,0,0,0,.081.217,11.12,11.12,0,0,0,1.5,2.7c2.41,3.178,6.245,4.828,10.859,4.828a24.509,24.509,0,0,0,7.626-1.32c8.767-2.886,16.016-9.606,20.91-15.309A182.9,182.9,0,0,1,409.6,340.8c-16.085-6.692-31.2-4.5-39.452-.439-4.869,2.395-7.994,5.6-8.8,9.033a11.438,11.438,0,0,0,3.187,11.345c2.605,2.408,6.276,3.632,10.6,3.632a29.954,29.954,0,0,0,9.056-1.538,60.378,60.378,0,0,0,17.8-9.849,185.082,185.082,0,0,1-21.332,25.948c-11.071-6.675-27.832-9.605-38.88-6.651-5.068,1.354-8.67,3.887-10.417,7.326-3.117,6.131-1.808,10.245-.161,12.616,2.592,3.729,7.843,5.794,14.437,5.794a34.651,34.651,0,0,0,3.934-.231c5.364-.613,11.592-3.2,17.146-6.085a184.514,184.514,0,0,1-26.58,18.27c-7.453-14.57-27.112-25.728-37.557-23.677a12.839,12.839,0,0,0-9.256,7.02,1.577,1.577,0,0,0-.1.208,11.118,11.118,0,0,0-.85,2.97c-.822,5.977,3.137,11.79,10.59,15.551,6.381,3.22,13.745,4.172,20.223,4.172,1.868,0,3.656-.082,5.332-.209a182.235,182.235,0,0,1-29.883,11.109c-6.638-16.126-18.875-25.291-27.582-28.258-5.136-1.749-9.614-1.692-12.609.166a11.441,11.441,0,0,0-5.769,10.276c.232,5.828,4.759,11.434,12.418,15.38,6.372,3.282,13.674,4.88,19.775,5.651a183.765,183.765,0,0,1-33.631,3.322c-3.084-12.57-12.889-26.542-22.811-32.281-4.541-2.627-8.88-3.38-12.546-2.186-6.539,2.132-8.521,5.966-9.033,8.807-.96,5.327,2.426,11.655,9.055,16.925,4.312,3.426,10.707,6.036,16.785,7.931a182.539,182.539,0,0,1-32.089-5.932c5.064-15.575-.946-37.412-9.8-43.352a12.834,12.834,0,0,0-11.5-1.587,1.624,1.624,0,0,0-.238.088,11.139,11.139,0,0,0-2.69,1.5c-4.808,3.645-6.119,10.555-3.508,18.484,2.887,8.77,9.609,16.019,15.313,20.913A182.945,182.945,0,0,1,159.205,409.6c6.693-16.087,4.5-31.2.439-39.453-2.4-4.87-5.6-7.994-9.033-8.8a11.429,11.429,0,0,0-11.345,3.186c-3.957,4.285-4.721,11.45-2.095,19.656A60.387,60.387,0,0,0,147.022,402a184.9,184.9,0,0,1-25.948-21.333c6.675-11.07,9.6-27.832,6.65-38.88-1.353-5.068-3.887-8.671-7.325-10.419-6.132-3.114-10.245-1.807-12.616-.158-4.445,3.089-6.525,9.956-5.563,18.37.613,5.365,3.2,11.593,6.086,17.147a184.394,184.394,0,0,1-18.271-26.581c14.569-7.452,25.732-27.11,23.676-37.557a12.836,12.836,0,0,0-7.018-9.256,1.541,1.541,0,0,0-.21-.1,11.11,11.11,0,0,0-2.969-.849c-5.974-.82-11.79,3.137-15.551,10.59C83.815,311.2,83.432,321.043,84,328.53a182.363,182.363,0,0,1-11.106-29.879c16.126-6.638,25.291-18.876,28.258-27.584,1.75-5.136,1.691-9.614-.166-12.607a11.469,11.469,0,0,0-10.275-5.77c-5.829.233-11.435,4.759-15.381,12.419-3.28,6.369-4.881,13.67-5.652,19.77a183.721,183.721,0,0,1-3.321-33.627c12.57-3.084,26.542-12.889,32.28-22.811,2.626-4.54,3.382-8.878,2.186-12.545-2.132-6.539-5.967-8.522-8.808-9.034-5.322-.956-11.654,2.426-16.923,9.056-3.426,4.31-6.036,10.7-7.93,16.781a182.51,182.51,0,0,1,5.931-32.085,41.06,41.06,0,0,0,12.616,1.858c12.956,0,26.294-5.036,30.737-11.656a12.837,12.837,0,0,0,1.582-11.5,1.451,1.451,0,0,0-.083-.225,11.076,11.076,0,0,0-1.5-2.695c-3.645-4.808-10.555-6.121-18.484-3.508-8.768,2.886-16.017,9.606-20.911,15.31a182.835,182.835,0,0,1,13.357-29.007,54.766,54.766,0,0,0,21,4.295,42.778,42.778,0,0,0,18.439-3.837c4.87-2.4,7.995-5.6,8.8-9.034a11.438,11.438,0,0,0-3.187-11.345c-4.286-3.956-11.449-4.721-19.656-2.094A60.387,60.387,0,0,0,98,147.023a184.986,184.986,0,0,1,21.325-25.941c8.147,4.911,19.376,7.791,29.147,7.791a38.168,38.168,0,0,0,9.741-1.149c5.068-1.354,8.671-3.887,10.418-7.326,3.116-6.13,1.807-10.244.16-12.615-3.088-4.445-9.956-6.524-18.371-5.564-5.364.613-11.593,3.2-17.147,6.086a184.514,184.514,0,0,1,26.58-18.27c6.855,13.4,24.038,23.921,34.881,23.921a13.957,13.957,0,0,0,2.679-.244,12.436,12.436,0,0,0,10.2-10.2c.821-5.977-3.138-11.79-10.59-15.551C188.8,83.815,178.957,83.432,171.47,84A182.276,182.276,0,0,1,201.349,72.89c6.638,16.127,18.875,25.292,27.583,28.258a21.675,21.675,0,0,0,6.907,1.272,10.7,10.7,0,0,0,5.7-1.438,11.438,11.438,0,0,0,5.769-10.276c-.232-5.828-4.758-11.434-12.418-15.378-6.37-3.282-13.672-4.883-19.773-5.654a183.831,183.831,0,0,1,33.629-3.321c3.085,12.57,12.89,26.543,22.813,32.281a18.17,18.17,0,0,0,8.975,2.738,11.478,11.478,0,0,0,3.569-.552c6.54-2.132,8.522-5.967,9.034-8.809.959-5.326-2.427-11.653-9.056-16.923-4.311-3.426-10.707-6.036-16.784-7.931a182.544,182.544,0,0,1,32.088,5.932c-5.064,15.576.947,37.412,9.8,43.352a13.332,13.332,0,0,0,7.413,2.306,11.917,11.917,0,0,0,4.051-.708,1.539,1.539,0,0,0,.156-.057,11.105,11.105,0,0,0,2.8-1.537c4.808-3.645,6.12-10.555,3.509-18.484-2.887-8.769-9.607-16.018-15.311-20.912A182.776,182.776,0,0,1,340.8,90.4c-6.692,16.087-4.5,31.2-.438,39.453,2.394,4.869,5.6,7.993,9.032,8.8a13.444,13.444,0,0,0,3.086.367,11.037,11.037,0,0,0,8.26-3.553c3.957-4.285,4.721-11.449,2.095-19.655A60.4,60.4,0,0,0,352.978,98a185.04,185.04,0,0,1,25.949,21.333c-6.676,11.071-9.6,27.833-6.65,38.882,1.353,5.067,3.887,8.669,7.325,10.417a15.426,15.426,0,0,0,6.977,1.891,9.715,9.715,0,0,0,5.638-1.732c4.445-3.089,6.525-9.956,5.564-18.37-.613-5.365-3.2-11.594-6.087-17.148a184.394,184.394,0,0,1,18.271,26.581c-14.568,7.453-25.731,27.109-23.676,37.557a12.838,12.838,0,0,0,7.022,9.258,1.608,1.608,0,0,0,.2.093,11.157,11.157,0,0,0,2.975.852,11.291,11.291,0,0,0,1.553.107c5.418,0,10.563-3.893,14-10.7,4.147-8.217,4.531-18.063,3.966-25.549a182.247,182.247,0,0,1,11.1,29.877c-16.126,6.639-25.291,18.876-28.257,27.584-1.75,5.136-1.691,9.614.166,12.607a11.478,11.478,0,0,0,9.821,5.777c.151,0,.3,0,.455-.008,5.828-.233,11.434-4.758,15.379-12.418,3.28-6.368,4.881-13.667,5.653-19.767a183.767,183.767,0,0,1,3.32,33.624c-12.57,3.085-26.542,12.889-32.279,22.811-2.626,4.541-3.382,8.879-2.186,12.545,2.132,6.54,5.966,8.522,8.808,9.034a10.31,10.31,0,0,0,1.824.16c4.907,0,10.419-3.328,15.1-9.216,3.426-4.31,6.036-10.7,7.93-16.78a182.482,182.482,0,0,1-5.931,32.084C411.336,294.322,389.5,300.332,383.558,309.184Zm-19.089,40.935c.573-2.444,3.159-4.956,7.094-6.891a39.431,39.431,0,0,1,17.006-3.527,50.964,50.964,0,0,1,15.69,2.541c-12.474,2.1-27.907,6.911-35.951,9.42-1.569.489-3.072.958-4.1,1.26A10.167,10.167,0,0,1,364.469,350.119Zm4.791,4.6c8.292-2.586,24.521-7.645,36.964-9.55-4.555,4.248-13.347,11.525-23,14.614-7.077,2.266-13.1,1.756-16.51-1.4a7.768,7.768,0,0,1-1.735-2.356C365.944,355.751,367.3,355.328,369.26,354.717Zm-30.316,33.715c8.117,0,20.98-.415,31.666-2.584-6.349,3.76-14.735,7.993-21.392,8.754-7.115.815-13.009-.8-15.378-4.21a6.246,6.246,0,0,1-.924-2.038C334.311,388.392,336.391,388.432,338.944,388.432Zm-6.126-3.287a14.3,14.3,0,0,1,1.406-4.094c1.673-3.291,5.486-4.907,8.39-5.684a35.413,35.413,0,0,1,9.03-1.064,56.8,56.8,0,0,1,25.769,6.433C363.72,385.57,339.361,385.312,332.818,385.145Zm-37.259,11.778a8.269,8.269,0,0,1,.187-.922c5.9,1.556,29.034,7.979,40.277,15.8-6.353,1.14-20.791,2.838-31.6-2.618C298.245,406.064,294.932,401.482,295.559,396.923Zm1.6-3.861a9.869,9.869,0,0,1,6.044-3.632,11.514,11.514,0,0,1,2.226-.2c8.5,0,21.921,7.739,29.265,17.952C322.668,400.153,303.481,394.734,297.164,393.062Zm-40.836,13.211c.882.49,2.143,1.152,3.968,2.11,7.69,4.034,22.734,11.93,32.874,19.377-6.221-.214-17.572-1.284-26.6-5.932-6.607-3.4-10.5-8.017-10.686-12.662A7.73,7.73,0,0,1,256.328,406.273Zm1.654-2.737a10.1,10.1,0,0,1,2.165-1.8,7.6,7.6,0,0,1,4.007-.956,18.575,18.575,0,0,1,5.883,1.1c7.325,2.5,17.371,9.785,23.821,22.434-10.3-7.336-24.611-14.85-32.075-18.766C260.322,404.782,258.924,404.048,257.982,403.536Zm-47.97,5.019a6.278,6.278,0,0,1,.787-2.094c4.006,4.229,16.465,16.962,28.414,24.881-7.146-1.831-16.063-4.77-21.3-8.936C212.3,417.949,209.276,412.642,210.012,408.555ZM213,404.123a14.259,14.259,0,0,1,3.889-1.9,8.259,8.259,0,0,1,2.583-.4,15.405,15.405,0,0,1,7.369,2.311c8.771,5.072,17.458,17.1,20.8,28.4C234.544,426.27,217.506,408.867,213,404.123ZM178.325,386.1a8.28,8.28,0,0,1,.794-.5c3.088,5.3,14.878,26.172,17.3,39.633-5.3-3.683-16.706-12.687-20.5-24.195C173.76,394.469,174.658,388.886,178.325,386.1Zm20.422,34.922c-3.54-13.469-13.265-30.853-16.552-36.509a8.808,8.808,0,0,1,1.207-.093,10.135,10.135,0,0,1,5.631,1.791C195.969,390.87,200.96,407.464,198.747,421.026ZM148.34,368.313c-.491-1.575-.961-3.082-1.264-4.109.143-.007.284-.02.429-.02a10.372,10.372,0,0,1,2.376.285c2.444.572,4.955,3.158,6.891,7.094,3.414,6.942,5.364,19.194.986,32.695C155.659,391.787,150.848,376.357,148.34,368.313Zm-4.369-3.343c.277.969.7,2.329,1.314,4.3,2.585,8.29,7.644,24.517,9.549,36.957-4.249-4.555-11.525-13.346-14.615-23-2.265-7.078-1.756-13.1,1.4-16.511A7.784,7.784,0,0,1,143.971,364.97Zm-29.116-32.155a14.228,14.228,0,0,1,4.094,1.409c3.292,1.672,4.908,5.486,5.684,8.39,2.615,9.789.25,24.44-5.37,34.793C114.429,363.71,114.688,339.352,114.855,332.815Zm-.712,37.778c-3.758-6.348-7.984-14.723-8.744-21.374-.813-7.117.8-13.01,4.21-15.379a6.244,6.244,0,0,1,2.037-.921C111.489,338.745,111.3,356.549,114.143,370.593Zm-3.571-67.385c1.612,8.195-6.592,23.459-17.746,31.484,7.024-12.032,12.441-31.213,14.113-37.528A9.875,9.875,0,0,1,110.572,303.208ZM88.2,336.023c-1.141-6.353-2.84-20.791,2.617-31.6,2.867-5.679,6.972-8.937,11.16-8.937a8.142,8.142,0,0,1,1.1.076,8.031,8.031,0,0,1,.921.187C102.442,301.65,96.017,324.782,88.2,336.023Zm8.262-78.042a10.1,10.1,0,0,1,1.8,2.166c1.323,2.132,1.271,5.737-.144,9.889-2.5,7.325-9.783,17.372-22.434,23.822,7.337-10.3,14.851-24.613,18.767-32.078C95.219,260.32,95.952,258.923,96.464,257.981Zm-4.845,2.313c-4.034,7.69-11.93,22.734-19.379,32.875.214-6.221,1.284-17.572,5.932-26.595,3.4-6.606,8.018-10.5,12.662-10.685.112-.005.222-.007.332-.007a7.691,7.691,0,0,1,2.561.447C93.237,257.21,92.575,258.471,91.619,260.294ZM95.877,213a14.268,14.268,0,0,1,1.9,3.89c1.144,3.509-.409,7.348-1.914,9.951-5.073,8.77-17.1,17.457-28.4,20.805C73.731,234.544,91.133,217.506,95.877,213ZM68.658,239.212c1.832-7.146,4.771-16.063,8.936-21.3,4.014-5.051,8.718-8.007,12.6-8.007a6.978,6.978,0,0,1,1.253.11,6.244,6.244,0,0,1,2.094.788C89.311,214.8,76.577,227.263,68.658,239.212Zm45.128-50.179c-4.656,6.935-21.249,11.929-34.811,9.714,13.472-3.54,30.862-13.27,36.513-16.556A9.876,9.876,0,0,1,113.786,189.033Zm-39.021,7.384c3.682-5.295,12.687-16.705,24.2-20.494,6.568-2.163,12.152-1.266,14.934,2.4a8.27,8.27,0,0,1,.5.794C109.092,182.209,88.224,194,74.765,196.417Zm60.767-46.536c-.574,2.444-3.159,4.956-7.1,6.891-6.942,3.412-19.193,5.362-32.692.985,12.472-2.1,27.9-6.91,35.945-9.418,1.571-.49,3.075-.959,4.1-1.262A10.17,10.17,0,0,1,135.532,149.881Zm-4.8-4.6c-8.291,2.586-24.518,7.644-36.958,9.549,4.554-4.248,13.346-11.524,23-14.614,7.078-2.265,13.1-1.755,16.51,1.4a7.764,7.764,0,0,1,1.734,2.356C134.056,144.249,132.7,144.672,130.736,145.284Zm-1.329-31.141c6.348-3.758,14.724-7.985,21.375-8.745,7.116-.816,13.01.8,15.379,4.211a6.238,6.238,0,0,1,.923,2.037C161.265,111.489,143.455,111.294,129.407,114.143Zm37.776.712a14.3,14.3,0,0,1-1.406,4.094c-1.673,3.291-5.487,4.907-8.392,5.683-9.79,2.616-24.44.251-34.791-5.369C136.288,114.43,160.642,114.688,167.183,114.855Zm37.259-11.778a8.051,8.051,0,0,1-.188.922c-5.9-1.557-29.037-7.981-40.279-15.8,6.347-1.144,20.775-2.846,31.606,2.62C201.755,93.936,205.068,98.518,204.442,103.077Zm-1.605,3.861a9.871,9.871,0,0,1-6.044,3.633c-8.2,1.612-23.46-6.592-31.485-17.746C177.34,99.849,196.522,105.266,202.837,106.938Zm40.836-13.211c-.88-.489-2.138-1.149-3.957-2.1-7.692-4.035-22.739-11.932-32.884-19.382,6.227.216,17.584,1.289,26.594,5.931,6.606,3.4,10.5,8.016,10.686,12.661A7.771,7.771,0,0,1,243.673,93.727Zm-1.654,2.737a10.13,10.13,0,0,1-2.166,1.8c-2.132,1.322-5.736,1.271-9.889-.144-7.325-2.5-17.372-9.785-23.823-22.435,10.306,7.339,24.622,14.856,32.089,18.773C239.685,95.222,241.079,95.953,242.019,96.464Zm47.969-5.02a6.227,6.227,0,0,1-.787,2.094c-4.006-4.229-16.465-16.962-28.413-24.88,7.146,1.832,16.063,4.771,21.3,8.936C287.7,82.051,290.724,87.357,289.988,91.444ZM287,95.876a14.282,14.282,0,0,1-3.89,1.9c-3.509,1.146-7.349-.408-9.95-1.913-8.772-5.072-17.46-17.1-20.806-28.4C265.456,73.73,282.494,91.132,287,95.876Zm34.673,18.02a8.068,8.068,0,0,1-.794.5c-3.091-5.305-14.881-26.173-17.3-39.635,5.294,3.677,16.7,12.673,20.5,24.2C326.241,105.531,325.342,111.114,321.675,113.9ZM301.253,78.973c3.54,13.473,13.27,30.863,16.555,36.514a9.865,9.865,0,0,1-6.841-1.7C304.031,109.129,299.039,92.536,301.253,78.973Zm50.41,52.722c.489,1.568.957,3.069,1.26,4.095a10.094,10.094,0,0,1-2.8-.259c-2.444-.572-4.955-3.158-6.89-7.093-3.415-6.942-5.365-19.194-.987-32.695C344.342,108.217,349.154,123.65,351.663,131.7Zm4.365,3.329c-.277-.968-.7-2.323-1.31-4.282-2.586-8.291-7.646-24.521-9.551-36.965,4.249,4.555,11.524,13.347,14.615,23,2.264,7.077,1.755,13.1-1.4,16.51A7.768,7.768,0,0,1,356.028,135.024Zm29.118,32.158a14.235,14.235,0,0,1-4.094-1.406c-3.292-1.672-4.908-5.485-5.684-8.389-2.615-9.789-.251-24.44,5.37-34.793C385.571,136.288,385.313,160.641,385.146,167.182Zm.712-37.773c3.758,6.347,7.983,14.723,8.743,21.373.814,7.117-.8,13.01-4.21,15.379a6.249,6.249,0,0,1-2.037.923C388.512,161.263,388.705,143.455,385.858,129.409Zm3.571,67.383c-1.612-8.2,6.592-23.459,17.746-31.484-7.024,12.031-12.441,31.213-14.113,37.528A9.871,9.871,0,0,1,389.429,196.792Zm22.37-32.815c1.141,6.353,2.839,20.791-2.617,31.6-3.117,6.175-7.7,9.5-12.259,8.861a8.3,8.3,0,0,1-.921-.187C397.559,198.35,403.984,175.218,411.8,163.977Zm-8.263,78.042a10.176,10.176,0,0,1-1.8-2.166c-1.323-2.132-1.271-5.737.144-9.889,2.5-7.325,9.783-17.372,22.434-23.822-7.339,10.3-14.854,24.618-18.771,32.084C404.78,239.683,404.048,241.078,403.536,242.019Zm4.842-2.306c4.035-7.692,11.933-22.739,19.383-32.882-.214,6.221-1.284,17.572-5.933,26.6-3.4,6.605-8.017,10.5-12.661,10.685a7.7,7.7,0,0,1-2.894-.437C406.762,242.793,407.423,241.534,408.378,239.713ZM404.124,287a14.268,14.268,0,0,1-1.9-3.89c-1.145-3.509.409-7.349,1.914-9.951,5.072-8.771,17.1-17.458,28.4-20.806C426.269,265.456,408.867,282.5,404.124,287Zm27.218-26.214c-1.832,7.146-4.77,16.063-8.936,21.3-4.456,5.607-9.767,8.631-13.85,7.9a6.227,6.227,0,0,1-2.094-.787C410.689,285.2,423.423,272.736,431.342,260.788ZM459.2,238.732c-3.62.021-7.843-2.628-12.12-7.747-5.878-7.032-11.481-18.3-14.188-24.472,12.087,9.221,25.907,26.385,29.755,31.293A7.375,7.375,0,0,1,459.2,238.732Zm5.727-13.4c2.244,4.712,2.2,8.142,1.166,9.451-.3.38-.608.723-.92,1.049-3.845-4.928-17.22-21.589-29.543-31.248C450.038,206.818,460.546,216.143,464.925,225.336ZM452.99,183.974c-3.291,2.593-10.446,2.836-17.753-1.719-8.852-5.515-16.408-15.2-19.526-19.833C426.806,166.429,443.081,176,450.4,180.3c1.32.776,2.387,1.4,3.131,1.828.267.152.518.29.763.415A5.97,5.97,0,0,1,452.99,183.974Zm1.638-8.8a11.331,11.331,0,0,1,.647,4.271c-.767-.435-1.985-1.151-3.256-1.9-7.059-4.151-20.228-11.891-31.01-16.466C434.688,160.908,451.443,165.59,454.628,175.17Zm-40.2-40.464c-11.106-.94-22.721-9.276-28.611-13.918,9.253.45,29.779,1.913,44,6.342-.075.24-.161.478-.26.714C427.562,132.622,421.616,135.32,414.429,134.706ZM426,116.812a11.065,11.065,0,0,1,4.136,7.066c-13.664-4.131-32.126-5.651-42.08-6.192C397.755,113.9,416.2,108.439,426,116.812ZM375.911,97.2c-9.131-.817-21.064-4.825-27.338-7.272,15.067-2.026,36.977.339,43.168,1.088a7.4,7.4,0,0,1-1.783,3.092C387.409,96.725,382.551,97.792,375.911,97.2Zm8.624-16.614c4.919,1.745,7.315,4.2,7.508,5.859.056.48.081.941.091,1.39-6.2-.766-27.442-3.089-42.985-1.2C360.914,78.018,374.939,77.181,384.535,80.585ZM346.848,59.776c-.494,4.162-5.382,9.392-13.768,11.339-10.163,2.361-22.358.85-27.833-.217,10.68-5.013,28.956-9.754,37.172-11.885,1.482-.384,2.679-.7,3.5-.921.3-.081.572-.159.833-.243A5.975,5.975,0,0,1,346.848,59.776Zm-5.067-7.382a11.316,11.316,0,0,1,3.478,2.562c-.85.235-2.217.59-3.643.959C333.69,57.971,318.9,61.808,308.044,66.2,317.594,56.405,332.758,47.87,341.781,52.394Zm-57.036-.187c-8.513,7.182-22.624,9.506-30.077,10.39,6.855-6.219,22.389-19.687,35.578-26.617.117.224.247.437.344.675C292.557,41.446,290.263,47.551,284.745,52.207ZM280.27,31.373q.616-.048,1.208-.048a10.551,10.551,0,0,1,6.715,2.119c-12.582,6.74-26.713,18.721-34.134,25.377C258.243,49.286,267.423,32.381,280.27,31.373ZM230.985,52.922c-7.033,5.879-18.3,11.482-24.471,14.188C215.735,55.023,232.9,41.2,237.806,37.355a7.376,7.376,0,0,1,.926,3.448C238.781,44.455,236.1,48.646,230.985,52.922Zm-5.649-17.847a16.527,16.527,0,0,1,6.819-1.85,4.283,4.283,0,0,1,2.633.684c.379.3.723.608,1.048.92-4.928,3.845-21.59,17.222-31.248,29.545C206.817,49.963,216.142,39.454,225.336,35.075ZM183.974,47.01c2.592,3.291,2.836,10.446-1.718,17.754-5.517,8.853-15.208,16.409-19.835,19.526C166.429,73.194,176,56.916,180.3,49.6c.775-1.319,1.4-2.384,1.826-3.127.153-.269.3-.523.421-.769A6.008,6.008,0,0,1,183.974,47.01Zm-8.8-1.638a12.023,12.023,0,0,1,3.762-.679c.175,0,.344.014.514.025-.434.766-1.151,1.986-1.9,3.26-4.152,7.06-11.894,20.232-16.47,31.015C160.9,65.316,165.591,48.557,175.17,45.372Zm-40.463,40.2c-.941,11.105-9.277,22.722-13.92,28.612.451-9.253,1.914-29.779,6.344-44,.239.075.477.16.713.258C132.623,72.438,135.316,78.377,134.707,85.571ZM116.812,74a11.062,11.062,0,0,1,7.065-4.133c-4.131,13.666-5.65,32.132-6.191,42.083C113.9,102.257,108.431,83.811,116.812,74ZM97.2,124.09c-.816,9.13-4.825,21.062-7.272,27.337-2.027-15.066.338-36.976,1.087-43.167a7.371,7.371,0,0,1,3.093,1.783C96.725,112.591,97.794,117.448,97.2,124.09Zm-16.615-8.625c1.745-4.918,4.2-7.315,5.858-7.508.482-.055.94-.075,1.392-.084-.767,6.212-3.088,27.443-1.2,42.98C78.018,139.087,77.181,125.062,80.585,115.465ZM59.777,153.153c4.16.493,9.391,5.381,11.339,13.768,2.359,10.16.849,22.356-.218,27.832-5.013-10.681-9.754-28.958-11.885-37.174-.385-1.481-.7-2.678-.921-3.5-.08-.295-.158-.573-.241-.835a5.813,5.813,0,0,1,1.176-.132A6.365,6.365,0,0,1,59.777,153.153Zm-7.384,5.067a11.325,11.325,0,0,1,2.564-3.476c.235.85.589,2.214.958,3.638,2.056,7.926,5.893,22.715,10.281,33.575C56.405,182.407,47.871,167.245,52.393,158.22Zm-12.136,50.5c4.009,0,8.4,2.334,11.95,6.541,7.182,8.512,9.506,22.624,10.39,30.075-6.218-6.854-19.684-22.385-26.615-35.572.224-.118.435-.252.674-.35A9.415,9.415,0,0,1,40.257,208.716ZM31.374,219.73a11.037,11.037,0,0,1,2.078-7.908c6.742,12.578,18.715,26.7,25.369,34.119C49.285,241.757,32.382,232.577,31.374,219.73ZM40.8,261.268h.1c3.629,0,7.783,2.676,12.021,7.748,5.879,7.034,11.482,18.3,14.188,24.47C55.023,284.265,41.2,267.1,37.356,262.194A7.375,7.375,0,0,1,40.8,261.268Zm-5.728,13.4c-2.244-4.712-2.2-8.142-1.166-9.451.3-.38.608-.724.92-1.049,3.845,4.927,17.221,21.59,29.544,31.248C49.963,293.183,39.454,283.858,35.075,274.664Zm11.936,41.362a10.391,10.391,0,0,1,6.4-1.849,21.828,21.828,0,0,1,11.347,3.568c8.852,5.515,16.409,15.206,19.527,19.833C73.2,333.572,56.923,324,49.608,319.7c-1.321-.777-2.389-1.4-3.134-1.83-.266-.152-.518-.292-.763-.418A6,6,0,0,1,47.011,316.026Zm-1.639,8.8a11.334,11.334,0,0,1-.647-4.271c.768.435,1.988,1.152,3.261,1.9,7.06,4.152,20.23,11.892,31.011,16.466C65.32,339.1,48.557,334.41,45.372,324.83Zm25.07,47.325c1.809-4.329,6.854-6.947,13.138-6.947q.977,0,1.992.086c11.105.94,22.72,9.276,28.61,13.919-9.252-.451-29.779-1.914-44-6.343C70.257,372.63,70.343,372.392,70.442,372.155ZM74,383.188a11.067,11.067,0,0,1-4.136-7.066c13.666,4.131,32.133,5.652,42.085,6.193C102.256,386.1,83.812,391.57,74,383.188Zm46.683,19.452q1.612,0,3.4.16c9.136.818,21.067,4.826,27.339,7.273-15.066,2.027-36.978-.338-43.169-1.087a7.382,7.382,0,0,1,1.783-3.093C112.133,403.746,115.778,402.64,120.687,402.64Zm-5.222,16.775c-4.918-1.745-7.314-4.2-7.507-5.858-.056-.481-.081-.941-.091-1.391a257.105,257.105,0,0,0,29.269,1.927,116.081,116.081,0,0,0,13.719-.725C139.089,421.982,125.065,422.82,115.465,419.415Zm37.688,20.808c.493-4.161,5.381-9.391,13.767-11.338a55.094,55.094,0,0,1,12.279-1.251,85.555,85.555,0,0,1,15.554,1.469c-10.681,5.012-28.955,9.753-37.17,11.884-1.483.384-2.68.695-3.506.921-.295.081-.572.159-.833.243A5.98,5.98,0,0,1,153.153,440.223Zm5.067,7.384a11.334,11.334,0,0,1-3.478-2.563c.849-.235,2.217-.59,3.644-.96,7.925-2.055,22.712-5.892,33.571-10.28C182.407,443.6,167.245,452.131,158.22,447.607Zm57.036.186c8.512-7.182,22.623-9.507,30.076-10.39-6.855,6.219-22.388,19.686-35.573,26.615-.116-.224-.251-.435-.348-.673C207.444,458.554,209.738,452.449,215.256,447.793Zm4.475,20.834a11.051,11.051,0,0,1-7.909-2.078c12.582-6.744,26.708-18.722,34.125-25.374C241.768,450.708,232.592,467.618,219.731,468.627Zm49.284-21.549c7.032-5.878,18.3-11.481,24.47-14.187-9.22,12.087-26.383,25.907-31.291,29.754a7.387,7.387,0,0,1-.926-3.448C261.219,455.545,263.9,451.354,269.015,447.078Zm5.649,17.848c-4.712,2.244-8.142,2.2-9.451,1.166-.379-.3-.723-.609-1.048-.921,4.927-3.845,21.59-17.222,31.248-29.545C293.183,450.037,283.858,460.546,274.664,464.926Zm41.363-11.937c-2.593-3.291-2.835-10.445,1.718-17.753,5.516-8.852,15.206-16.408,19.833-19.526C333.572,426.8,324,443.078,319.7,450.393c-.777,1.321-1.4,2.388-1.83,3.133-.152.266-.292.518-.418.763A5.978,5.978,0,0,1,316.027,452.989Zm8.8,1.639a11.341,11.341,0,0,1-4.272.647c.436-.767,1.153-1.987,1.9-3.26,4.151-7.059,11.891-20.228,16.466-31.009C339.1,434.683,334.41,451.443,324.831,454.628Zm40.462-40.2c.942-11.105,9.278-22.72,13.92-28.61-.451,9.253-1.914,29.779-6.344,44q-.359-.112-.713-.259C367.377,427.562,364.684,421.622,365.293,414.428ZM383.188,426a11.067,11.067,0,0,1-7.065,4.135c4.13-13.662,5.65-32.124,6.191-42.077C386.1,397.754,391.561,416.2,383.188,426ZM402.8,375.91c.817-9.132,4.825-21.063,7.272-27.337,2.026,15.065-.338,36.973-1.087,43.166a7.369,7.369,0,0,1-3.093-1.782C403.276,387.409,402.207,382.552,402.8,375.91Zm16.614,8.625c-1.745,4.918-4.2,7.315-5.858,7.508-.481.055-.941.08-1.391.089.765-6.2,3.088-27.444,1.2-42.986C421.983,360.913,422.82,374.938,419.415,384.535Zm20.808-37.687c-4.161-.494-9.391-5.381-11.339-13.767-2.359-10.162-.849-22.358.218-27.833,5.012,10.68,9.753,28.955,11.884,37.17.385,1.482.7,2.68.921,3.506.081.3.159.573.243.833A5.975,5.975,0,0,1,440.223,346.848Zm7.384-5.068a11.342,11.342,0,0,1-2.564,3.48c-.234-.85-.589-2.218-.959-3.645-2.056-7.925-5.892-22.712-10.28-33.571C443.594,317.6,452.128,332.757,447.607,341.78Zm.186-57.037c-7.182-8.51-9.506-22.623-10.39-30.074,6.219,6.855,19.686,22.387,26.616,35.571-.225.118-.436.252-.674.35C458.553,292.558,452.45,290.262,447.793,284.743Zm18.755,3.435c-6.742-12.579-18.716-26.7-25.369-34.119,9.535,4.184,26.44,13.364,27.447,26.211A11.045,11.045,0,0,1,466.548,288.178Z" style="fill:#231f20"/></svg>