<svg id="Layer_1" data-name="Layer 1" xmlns="http://www.w3.org/2000/svg" viewBox="0 0 500 500"><path d="M455.4,259.131c-6.839-8.052-16.222-15.211-18.721-17.062q-.353-8.391-1.429-16.584c1.919,1.816,4.454,4.14,7.118,6.366,7.386,6.17,11.248,7.84,13.5,7.84a3.445,3.445,0,0,0,2.156-.695,6.528,6.528,0,0,0,2.5-5.345c.108-5.068-3.636-11.708-9.107-16.146a85.915,85.915,0,0,0-19.813-11.525,185.418,185.418,0,0,0-5.843-19.417c5.83,2.824,16.889,7.565,22.435,5.89a5.006,5.006,0,0,0,3.121-2.438,7.458,7.458,0,0,0-.041-7.038c-2.07-4.213-7.437-7.716-13.357-8.718a69.414,69.414,0,0,0-17.229-.25q-3.64-8.146-8.023-15.866c6.063,3.028,12.629,4.483,16.575,3.412a5.013,5.013,0,0,0,3.52-2.719,7.972,7.972,0,0,0-.542-7.13c-2.024-3.66-6.175-6.182-11.388-6.916a52.1,52.1,0,0,0-16.182.448,188.08,188.08,0,0,0-14.429-18.6c7.282,3.057,14.291,3.57,18.416,2.13,2.839-.991,3.83-2.685,4.16-3.932a6.134,6.134,0,0,0-.937-5.062c-2.792-4.214-10.206-6.975-16.315-7.842-7.023-1-17.507-.432-20.062-.272q-6.214-5.643-12.93-10.718c6.453,1.834,12.659,2.532,15.732,1.389a3.5,3.5,0,0,0,2.289-2.13,5.666,5.666,0,0,0-.773-4.688c-2.24-3.805-7.77-7.3-13.15-8.306-6.728-1.262-20.547.624-23.228,1.012q-6.3-3.651-12.893-6.818c11.509.421,24.784-.664,28.751-4.089a3.712,3.712,0,0,0,1.434-2.755A5.415,5.415,0,0,0,358.7,70.3c-3.681-3.209-12.359-4.272-22.108-2.7a98.37,98.37,0,0,0-22.778,6.766q-7.285-2.655-14.846-4.7c7.538-1.366,16.8-3.924,17.292-8.289a7.2,7.2,0,0,0-2.3-6.559c-2.924-2.537-8.223-2.9-15.324-1.044A27.729,27.729,0,0,0,282.1,65.906a186.668,186.668,0,0,0-22.561-2.527c8.637-4.689,18.9-12.9,21.078-18.162a3.822,3.822,0,0,0,.106-3.242,6.859,6.859,0,0,0-4.989-3.455c-4.767-.97-10.976,1.3-16.6,6.076-8.053,6.84-15.211,16.222-17.062,18.722q-8.393.351-16.585,1.429c1.816-1.919,4.141-4.455,6.367-7.119,8.808-10.544,8.445-13.9,7.145-15.656a6.529,6.529,0,0,0-5.345-2.5c-5.091-.124-11.708,3.635-16.146,9.106A85.9,85.9,0,0,0,205.98,68.389a185.175,185.175,0,0,0-19.417,5.842c2.824-5.831,7.565-16.891,5.89-22.435a5.006,5.006,0,0,0-2.438-3.121,7.463,7.463,0,0,0-7.039.042c-4.213,2.069-7.716,7.437-8.716,13.356a69.4,69.4,0,0,0-.252,17.23q-8.145,3.641-15.866,8.022c3.028-6.063,4.482-12.629,3.413-16.575a5.021,5.021,0,0,0-2.72-3.521,7.977,7.977,0,0,0-7.128.542c-3.661,2.024-6.182,6.175-6.918,11.389a52.148,52.148,0,0,0,.45,16.182,188.083,188.083,0,0,0-18.6,14.428c3.057-7.282,3.57-14.291,2.13-18.415-.991-2.839-2.685-3.83-3.932-4.161a6.141,6.141,0,0,0-5.062.938c-4.215,2.794-6.975,10.207-7.842,16.315-1,7.023-.432,17.508-.272,20.062q-5.643,6.214-10.718,12.929c1.834-6.452,2.532-12.659,1.389-15.731a3.5,3.5,0,0,0-2.129-2.288,5.66,5.66,0,0,0-4.689.772c-3.805,2.24-7.3,7.77-8.307,13.15-1.262,6.729.625,20.547,1.013,23.227q-3.651,6.3-6.817,12.892c.42-11.508-.665-24.782-4.09-28.749a3.712,3.712,0,0,0-2.755-1.434A5.381,5.381,0,0,0,70.3,141.3c-3.209,3.68-4.271,12.359-2.7,22.108a98.318,98.318,0,0,0,6.766,22.778q-2.655,7.285-4.7,14.845c-1.366-7.539-3.924-16.795-8.289-17.291a7.187,7.187,0,0,0-6.56,2.3c-2.535,2.924-2.9,8.223-1.044,15.324A27.734,27.734,0,0,0,65.906,217.9a186.652,186.652,0,0,0-2.528,22.56c-4.689-8.637-12.9-18.894-18.161-21.077a3.825,3.825,0,0,0-3.242-.106,6.86,6.86,0,0,0-3.455,4.989c-.975,4.769,1.3,10.976,6.076,16.6,6.839,8.052,16.222,15.211,18.721,17.062q.352,8.391,1.429,16.584c-1.919-1.816-4.454-4.14-7.118-6.366-10.544-8.808-13.9-8.446-15.656-7.145a6.528,6.528,0,0,0-2.5,5.345c-.108,5.068,3.636,11.708,9.107,16.146A85.915,85.915,0,0,0,68.388,294.02a185.418,185.418,0,0,0,5.843,19.417c-5.83-2.824-16.889-7.568-22.435-5.89a5.006,5.006,0,0,0-3.121,2.438,7.458,7.458,0,0,0,.041,7.038c2.07,4.213,7.437,7.716,13.357,8.718a55.348,55.348,0,0,0,9.039.675,80.867,80.867,0,0,0,8.19-.425q3.64,8.147,8.023,15.867c-6.063-3.028-12.63-4.485-16.575-3.413a5.013,5.013,0,0,0-3.52,2.719,7.972,7.972,0,0,0,.542,7.13c2.024,3.66,6.175,6.182,11.388,6.916a46.488,46.488,0,0,0,6.473.437,53.624,53.624,0,0,0,9.709-.886,187.825,187.825,0,0,0,14.429,18.6c-7.282-3.057-14.291-3.571-18.416-2.13-2.839.991-3.83,2.685-4.16,3.932a6.134,6.134,0,0,0,.937,5.062c2.792,4.214,10.206,6.975,16.315,7.842a77.985,77.985,0,0,0,10.365.576c4.382,0,8.27-.215,9.7-.3q6.214,5.643,12.93,10.718c-6.453-1.835-12.66-2.533-15.732-1.389a3.5,3.5,0,0,0-2.289,2.13,5.666,5.666,0,0,0,.773,4.688c2.24,3.805,7.77,7.3,13.15,8.306a33.67,33.67,0,0,0,5.941.43,137.972,137.972,0,0,0,17.287-1.442q6.3,3.651,12.893,6.818c-11.509-.421-24.784.664-28.751,4.089a3.712,3.712,0,0,0-1.434,2.755A5.415,5.415,0,0,0,141.3,429.7c2.552,2.226,7.506,3.418,13.554,3.418a54.225,54.225,0,0,0,8.554-.714,98.37,98.37,0,0,0,22.778-6.766q7.285,2.655,14.846,4.7c-7.538,1.366-16.8,3.924-17.292,8.289a7.2,7.2,0,0,0,2.3,6.559c1.695,1.471,4.19,2.21,7.372,2.21a31.984,31.984,0,0,0,7.952-1.166A27.729,27.729,0,0,0,217.9,434.094a186.668,186.668,0,0,0,22.561,2.527c-8.637,4.689-18.9,12.9-21.078,18.162a3.822,3.822,0,0,0-.106,3.242,6.859,6.859,0,0,0,4.989,3.455,11.359,11.359,0,0,0,2.279.222c4.373,0,9.557-2.249,14.324-6.3,8.053-6.84,15.211-16.222,17.062-18.722q8.393-.351,16.585-1.429c-1.816,1.919-4.141,4.455-6.367,7.119-8.809,10.544-8.446,13.9-7.146,15.656a6.531,6.531,0,0,0,5.346,2.5c.071,0,.143,0,.215,0,5.04,0,11.556-3.716,15.932-9.109a85.918,85.918,0,0,0,11.524-19.814,185.175,185.175,0,0,0,19.417-5.842c-2.824,5.831-7.565,16.891-5.89,22.434a5.006,5.006,0,0,0,2.438,3.122,7.145,7.145,0,0,0,3.388.863,8.269,8.269,0,0,0,3.651-.9c4.212-2.069,7.715-7.437,8.717-13.357a69.434,69.434,0,0,0,.251-17.23q8.145-3.641,15.866-8.022c-3.028,6.063-4.482,12.628-3.413,16.575a5.02,5.02,0,0,0,2.719,3.521,7.063,7.063,0,0,0,2.9.6,8.786,8.786,0,0,0,4.233-1.147c3.661-2.024,6.182-6.175,6.916-11.388a52.125,52.125,0,0,0-.449-16.182,188.083,188.083,0,0,0,18.6-14.428c-3.057,7.282-3.57,14.291-2.13,18.415.991,2.839,2.685,3.83,3.932,4.161a5.883,5.883,0,0,0,1.506.2,6.412,6.412,0,0,0,3.556-1.136c4.214-2.793,6.975-10.206,7.842-16.315,1-7.024.432-17.509.272-20.062q5.643-6.214,10.718-12.93c-1.834,6.453-2.531,12.659-1.388,15.732a3.491,3.491,0,0,0,2.129,2.288,4.448,4.448,0,0,0,1.416.226,6.509,6.509,0,0,0,3.272-1c3.805-2.24,7.3-7.77,8.307-13.15,1.262-6.729-.625-20.547-1.013-23.227q3.651-6.3,6.817-12.892c-.42,11.508.665,24.782,4.09,28.749a3.713,3.713,0,0,0,2.755,1.434h.119a5.435,5.435,0,0,0,4.14-2.027c3.21-3.681,4.271-12.359,2.7-22.108a98.37,98.37,0,0,0-6.766-22.778q2.655-7.285,4.7-14.845c1.366,7.539,3.924,16.8,8.289,17.291a9.854,9.854,0,0,0,1.123.065,6.924,6.924,0,0,0,5.437-2.36c2.535-2.924,2.9-8.223,1.044-15.324A27.737,27.737,0,0,0,434.094,282.1a186.652,186.652,0,0,0,2.528-22.56c4.689,8.637,12.9,18.894,18.161,21.077a3.815,3.815,0,0,0,3.242.106,6.86,6.86,0,0,0,3.455-4.989C462.455,270.965,460.183,264.758,455.4,259.131Zm-24.43,22.224c-10.841.413-23.158,9.706-27.184,16.335-1.583,2.607-1.919,4.756-1,6.388a5.338,5.338,0,0,0,3.541,2.541c3.948.943,9.631-1.215,13.24-3.621a75.391,75.391,0,0,0,8.219-6.858q-2.172,8.364-5.1,16.407c-3.354.682-14.787,3.189-23.369,7.255-6.808,3.225-20.176,11.038-22.044,17.527a4.976,4.976,0,0,0,.51,4.163c3.962,6.209,12.327,2.171,21.183-2.1l1.134-.547c5.282-2.542,11.792-7.508,16.33-11.23q-3.339,7.132-7.252,13.927a35.01,35.01,0,0,0-13.783,1.716c-2.574.96-15.5,6.071-17.079,12.422a5.541,5.541,0,0,0,1.4,5.177c3.927,4.428,13.052,0,19.8-4.318A184.9,184.9,0,0,1,386.007,373.3a66.875,66.875,0,0,0-22.683.636c-.222.046-22.22,4.732-20.848,11.759.98,5.031,9.544,5.189,16.557,4.431,3.81-.41,9.217-2.042,13.634-3.557a184.784,184.784,0,0,1-19.558,15.344c-6.7-5.949-20.076-7.981-26.595-6.641-2.191.451-3.472,1.279-3.916,2.531a5.98,5.98,0,0,0,.581,4.66c.766,1.476,2.748,4.143,7.405,5.438a60.652,60.652,0,0,0,10.32,1.644,183.3,183.3,0,0,1-16.357,8.294c-2.106-1.9-7.858-6.616-14.935-8.607-6.983-1.963-16.857-2.591-20.635-.186a3.6,3.6,0,0,0-1.763,2.471c-.818,5,8.4,9.112,14.794,10.656,2.6.626,5.379,1.114,7.815,1.48q-7.972,2.754-16.261,4.779c-5.066-7.934-18-17.633-25.7-19.065-2.441-.455-4.365-.112-5.718,1.015a3.946,3.946,0,0,0-1.425,3.164c.037,5.249,9.313,13.983,14.414,18.392q-8.481,1.166-17.193,1.545c-3.69-5.75-11.68-14.328-20.282-21.73-7.339-6.315-16.929-13.406-20.945-11.367a5.675,5.675,0,0,0-3.146,4.507c-.694,5.3,4.411,12.585,9.447,17.109,4.524,4.064,12.007,8.487,17.342,11.411a183.523,183.523,0,0,1-21.713-2.437c-.432-10.847-9.7-23.158-16.333-27.184-2.607-1.583-4.756-1.921-6.388-1a5.338,5.338,0,0,0-2.541,3.541c-.944,3.949,1.215,9.632,3.621,13.24a75.41,75.41,0,0,0,6.858,8.219q-8.364-2.172-16.407-5.1c-.682-3.353-3.189-14.787-7.255-23.37-3.225-6.808-11.038-20.176-17.527-22.044a4.974,4.974,0,0,0-4.164.51c-6.208,3.962-2.17,12.327,2.1,21.183l.547,1.134c2.542,5.282,7.507,11.792,11.23,16.33q-7.133-3.339-13.928-7.252a35.011,35.011,0,0,0-1.715-13.784c-.96-2.574-6.071-15.5-12.422-17.078a5.542,5.542,0,0,0-5.177,1.4c-4.427,3.927,0,13.052,4.319,19.8A184.748,184.748,0,0,1,126.7,386.007a66.875,66.875,0,0,0-.636-22.683c-.046-.222-4.724-22.227-11.76-20.848-5.029.98-5.185,9.545-4.43,16.556.41,3.811,2.042,9.217,3.557,13.635a184.784,184.784,0,0,1-15.344-19.558c5.95-6.7,7.982-20.078,6.641-26.595-.451-2.191-1.278-3.472-2.531-3.916a5.979,5.979,0,0,0-4.66.581c-1.476.766-4.143,2.748-5.438,7.405A60.641,60.641,0,0,0,90.457,340.9q-4.54-7.94-8.294-16.356c1.9-2.107,6.617-7.858,8.607-14.935,1.963-6.983,2.593-16.857.186-20.635a3.6,3.6,0,0,0-2.47-1.763c-4.99-.821-9.112,8.4-10.656,14.8-.627,2.6-1.116,5.377-1.482,7.812q-2.752-7.971-4.777-16.259c7.933-5.066,17.632-18,19.064-25.7.454-2.441.112-4.365-1.015-5.718a3.937,3.937,0,0,0-3.129-1.425h-.035c-5.249.038-13.983,9.312-18.391,14.414Q66.9,266.652,66.52,257.94c5.749-3.691,14.327-11.68,21.729-20.282,6.315-7.34,13.414-16.93,11.367-20.944a5.674,5.674,0,0,0-4.507-3.147c-5.3-.688-12.585,4.412-17.109,9.447-4.064,4.524-8.486,12.007-11.41,17.341a183.408,183.408,0,0,1,2.44-21.731c10.846-.433,23.154-9.686,27.18-16.314,1.583-2.607,1.919-4.756,1-6.388a5.338,5.338,0,0,0-3.541-2.541c-3.948-.942-9.631,1.216-13.24,3.621a75.391,75.391,0,0,0-8.219,6.858q2.172-8.364,5.1-16.407c3.354-.683,14.787-3.189,23.37-7.255,6.807-3.225,20.175-11.039,22.043-17.527a4.976,4.976,0,0,0-.51-4.163c-3.962-6.208-12.328-2.171-21.185,2.1l-1.132.546c-5.282,2.542-11.791,7.507-16.329,11.229q3.339-7.131,7.25-13.926c.648.044,1.537.086,2.6.086a32.932,32.932,0,0,0,11.186-1.8c2.574-.96,15.5-6.071,17.079-12.422a5.541,5.541,0,0,0-1.4-5.177c-3.927-4.429-13.052,0-19.8,4.318A185.034,185.034,0,0,1,113.993,126.7a66.832,66.832,0,0,0,22.683-.636c.222-.046,22.22-4.731,20.849-11.76-.981-5.029-9.547-5.187-16.558-4.43-3.81.41-9.217,2.043-13.635,3.557A184.958,184.958,0,0,1,146.881,98.1c5.385,4.784,15.1,7.031,22.083,7.031a22.915,22.915,0,0,0,4.522-.4c2.191-.451,3.472-1.279,3.916-2.531a5.98,5.98,0,0,0-.581-4.66c-.766-1.476-2.748-4.143-7.405-5.438a60.652,60.652,0,0,0-10.32-1.644,183.3,183.3,0,0,1,16.357-8.294c2.106,1.9,7.858,6.616,14.935,8.607a49.011,49.011,0,0,0,12.558,1.746c3.388,0,6.362-.467,8.078-1.56a3.6,3.6,0,0,0,1.762-2.471c.817-5-8.4-9.112-14.794-10.656-2.6-.626-5.379-1.114-7.815-1.48q7.972-2.754,16.261-4.779c5.066,7.934,18,17.633,25.7,19.065a10.757,10.757,0,0,0,1.966.194,5.679,5.679,0,0,0,3.752-1.209,3.946,3.946,0,0,0,1.425-3.164c-.037-5.249-9.313-13.983-14.414-18.392q8.481-1.165,17.193-1.545c3.69,5.75,11.68,14.328,20.282,21.73,6.461,5.56,14.667,11.727,19.277,11.726a3.649,3.649,0,0,0,1.668-.359,5.675,5.675,0,0,0,3.146-4.507c.694-5.3-4.411-12.585-9.447-17.109-4.524-4.064-12.007-8.487-17.342-11.411a183.523,183.523,0,0,1,21.713,2.437c.432,10.847,9.7,23.158,16.333,27.184a8.748,8.748,0,0,0,4.387,1.505,4,4,0,0,0,2-.506,5.338,5.338,0,0,0,2.541-3.541c.944-3.949-1.215-9.632-3.621-13.24a75.41,75.41,0,0,0-6.858-8.219q8.364,2.172,16.407,5.1c.682,3.353,3.189,14.787,7.255,23.37,3.225,6.808,11.038,20.176,17.527,22.044a5.777,5.777,0,0,0,1.594.234,4.719,4.719,0,0,0,2.57-.744c6.208-3.962,2.17-12.327-2.105-21.183l-.547-1.134c-2.542-5.282-7.507-11.792-11.23-16.33q7.132,3.339,13.928,7.252a35.011,35.011,0,0,0,1.715,13.784c.96,2.574,6.071,15.5,12.422,17.078a5.508,5.508,0,0,0,1.336.168,5.741,5.741,0,0,0,3.841-1.57c4.427-3.927,0-13.052-4.319-19.8A184.748,184.748,0,0,1,373.3,113.993a66.875,66.875,0,0,0,.636,22.683c.045.216,4.452,20.911,11.129,20.91a3.251,3.251,0,0,0,.631-.062c5.029-.98,5.185-9.545,4.43-16.556-.41-3.811-2.042-9.217-3.557-13.635a184.784,184.784,0,0,1,15.344,19.558c-5.95,6.7-7.982,20.078-6.641,26.6.451,2.191,1.278,3.472,2.531,3.916a4.527,4.527,0,0,0,1.521.249,6.9,6.9,0,0,0,3.139-.83c1.476-.766,4.143-2.748,5.438-7.405a60.641,60.641,0,0,0,1.644-10.319q4.54,7.939,8.294,16.356c-1.9,2.107-6.617,7.858-8.607,14.935-1.963,6.983-2.593,16.857-.186,20.635a3.6,3.6,0,0,0,2.47,1.763,3.89,3.89,0,0,0,.624.051c4.717,0,8.553-8.718,10.032-14.846.627-2.6,1.116-5.377,1.482-7.812q2.753,7.971,4.777,16.259c-7.933,5.066-17.632,18-19.064,25.7-.454,2.441-.112,4.365,1.015,5.718a3.92,3.92,0,0,0,3.164,1.425c5.249-.038,13.983-9.312,18.391-14.414q1.167,8.481,1.545,17.193c-5.749,3.691-14.327,11.68-21.729,20.282-6.315,7.34-13.414,16.93-11.367,20.944a5.674,5.674,0,0,0,4.507,3.147,7.7,7.7,0,0,0,1,.064c5.186,0,11.86-4.786,16.105-9.511,4.064-4.524,8.486-12.007,11.41-17.341A183.5,183.5,0,0,1,430.974,281.355Z" style="fill:#231f20"/></svg>