<svg id="Layer_1" data-name="Layer 1" xmlns="http://www.w3.org/2000/svg" viewBox="0 0 500 500"><path d="M243.154,433.535a119.477,119.477,0,0,1-12.215-.416c-10.714-4.376-17.529-12.287-18.525-14.426a1.586,1.586,0,0,0,.026-.6,9.554,9.554,0,1,0-2.634,2.419c1.631,2.97,6.139,7.652,12.242,11.554a175.43,175.43,0,0,1-31.441-7.959c-10.615-5.7-12.228-14.781-12.445-18.186a7.733,7.733,0,1,0-3.2.01,24.682,24.682,0,0,0,5.92,14.524q-4.179-1.681-8.127-3.449c-7.254-6.239-11.525-16.66-12.788-20.093a7.807,7.807,0,1,0-2.9,1.4,62.917,62.917,0,0,0,8.107,15.151c-18.654-9.09-31.716-18.278-34.077-20.409a10.05,10.05,0,1,0-1.855,2.55c2.828,2.34,11.7,8.574,24.414,15.5-8.079,1.41-18.144.339-21.582-.1a7.743,7.743,0,1,0-.087,3.219,100.061,100.061,0,0,0,12.25.8,49.5,49.5,0,0,0,13.69-1.64c4.067,2.12,8.459,4.271,13.117,6.366l.013.012a1.557,1.557,0,0,0,.721.317c5.557,2.479,11.482,4.871,17.674,7.034.107.056.207.115.316.17a1.576,1.576,0,0,0,.638.164c5.424,1.865,11.048,3.548,16.8,4.955-23.813,1.709-50.84-3.428-56.633-4.609a7.738,7.738,0,1,0-.127,3.239,273.816,273.816,0,0,0,32.574,4.386c-3.692,4.39-9.4,5.919-11.5,6.347a7.732,7.732,0,1,0,1.731,2.9c3.368-.83,9.84-3.127,13.577-9.008,3.378.182,6.828.291,10.287.291a123.433,123.433,0,0,0,19.912-1.457q4.857.879,9.79,1.436a67.338,67.338,0,0,0-15.449,9.22,7.722,7.722,0,1,0,2.062,2.457c3.454-2.7,14.385-10.645,23.457-10.749a1.581,1.581,0,0,0,.676-.163c1.151.033,2.3.056,3.452.056.733,0,1.469-.007,2.2-.021a1.6,1.6,0,1,0-.06-3.2Zm-44.673-21.111a6.326,6.326,0,1,1,6.326,6.325A6.333,6.333,0,0,1,198.481,412.424ZM172,398.361a4.537,4.537,0,1,1,4.537,4.538A4.542,4.542,0,0,1,172,398.361Zm-21.309-7.55a4.537,4.537,0,1,1,4.537,4.537A4.543,4.543,0,0,1,150.7,390.811Zm-26.226,26.15a4.537,4.537,0,1,1,4.537-4.537A4.542,4.542,0,0,1,124.469,416.961Zm41.43,34.652a4.537,4.537,0,1,1,4.537-4.537A4.542,4.542,0,0,1,165.9,451.613Zm-22.941-17.95a4.537,4.537,0,1,1,4.537-4.537A4.542,4.542,0,0,1,142.958,433.663Zm-20.816-38.315a6.865,6.865,0,1,1,6.864-6.865A6.873,6.873,0,0,1,122.142,395.348ZM206.6,455.77a4.538,4.538,0,1,1,4.537-4.538A4.542,4.542,0,0,1,206.6,455.77Z" style="fill:#231f20"/><path d="M113.161,377.243a1.6,1.6,0,1,0,2.22-2.305,119.267,119.267,0,0,1-8.341-8.923c-4.485-10.673-3.71-21.092-2.9-23.308a1.611,1.611,0,0,0,.439-.4,9.559,9.559,0,1,0-3.583-.155c-.941,3.261-1.061,9.768.493,16.83A175.182,175.182,0,0,1,84.9,331.153c-3.5-11.557,1.792-19.131,4.049-21.695a7.73,7.73,0,1,0-2.272-2.256,24.688,24.688,0,0,0-6.084,14.467c-1.176-2.76-2.277-5.493-3.3-8.179-.725-9.544,3.628-19.944,5.163-23.268a7.911,7.911,0,0,0,.972.068,7.835,7.835,0,1,0-4.014-1.128,62.9,62.9,0,0,0-4.982,16.453c-6.755-19.6-9.495-35.326-9.663-38.526a10.059,10.059,0,1,0-3.115.488c.347,3.662,2.215,14.341,6.3,28.221-6.711-4.716-13.07-12.589-15.187-15.334a7.753,7.753,0,1,0-2.337,2.215c2.755,3.564,10.794,13.375,18.939,17.761,1.377,4.373,2.958,8.994,4.769,13.766v.016a1.6,1.6,0,0,0,.319.82c2.171,5.66,4.657,11.516,7.495,17.4.035.111.063.219.1.331a1.573,1.573,0,0,0,.332.552c2.52,5.162,5.309,10.336,8.388,15.407C72.715,333.1,57.232,310.351,53.971,305.419a7.751,7.751,0,1,0-2.38,2.2A273.626,273.626,0,0,0,71.52,333.754c-5.708.492-10.819-2.453-12.616-3.643,0-.075.011-.149.011-.225a7.736,7.736,0,0,0-13.208-5.471h0a7.736,7.736,0,1,0,12.369,8.968,24.218,24.218,0,0,0,12.115,3.649,17.7,17.7,0,0,0,3.85-.426c6.691,7.456,14.311,14.9,22.177,20.533q2.814,4.056,5.907,7.938a67.381,67.381,0,0,0-17.438-4.4,7.727,7.727,0,1,0-.28,3.2c4.352.534,17.7,2.645,24.187,8.986a1.575,1.575,0,0,0,.587.36Q111.124,375.275,113.161,377.243ZM98.72,328.423h0a6.325,6.325,0,1,1,0,8.946A6.287,6.287,0,0,1,98.72,328.422Zm-8.78-28.666a4.536,4.536,0,1,1,0,6.415A4.523,4.523,0,0,1,89.94,299.757ZM80.213,279.35a4.536,4.536,0,1,1,0,6.415A4.521,4.521,0,0,1,80.213,279.35ZM43.178,279.3a4.536,4.536,0,1,1,6.416,0A4.541,4.541,0,0,1,43.178,279.3Zm4.792,53.8a4.536,4.536,0,0,1,0-6.416h0a4.537,4.537,0,1,1,0,6.417Zm-3.529-28.916a4.536,4.536,0,1,1,6.416,0A4.541,4.541,0,0,1,44.441,304.179ZM54.8,257.513a6.866,6.866,0,1,1,2.01,4.853A6.82,6.82,0,0,1,54.8,257.513Zm19,107.3a4.536,4.536,0,1,1,6.416,0A4.5,4.5,0,0,1,73.808,364.809Z" style="fill:#231f20"/><path d="M48.767,214.332a7.685,7.685,0,0,0,3.622-.905c2.7,3.455,10.644,14.385,10.748,23.457a1.59,1.59,0,0,0,.161.671q-.082,2.827-.033,5.66a1.6,1.6,0,0,0,1.6,1.569H64.9a1.6,1.6,0,0,0,1.569-1.63,119.23,119.23,0,0,1,.412-12.2c4.375-10.721,12.291-17.541,14.43-18.538a1.566,1.566,0,0,0,.6.026,9.549,9.549,0,1,0-2.419-2.633c-2.971,1.633-7.657,6.145-11.561,12.253a175.165,175.165,0,0,1,7.946-31.414c5.7-10.65,14.8-12.269,18.206-12.484a7.733,7.733,0,1,0-.009-3.2,24.658,24.658,0,0,0-14.535,5.93q1.68-4.175,3.446-8.119c6.236-7.263,16.669-11.54,20.106-12.805a7.8,7.8,0,1,0-1.4-2.9,62.9,62.9,0,0,0-15.158,8.112c9.093-18.658,18.287-31.723,20.417-34.082a10.047,10.047,0,1,0-2.55-1.854c-2.342,2.829-8.575,11.7-15.5,24.412-1.411-8.08-.34-18.144.1-21.581a7.744,7.744,0,1,0-3.219-.087c-.572,4.468-1.824,17.09.833,25.951-2.118,4.065-4.267,8.451-6.361,13.1l-.012.013a1.589,1.589,0,0,0-.346.79c-2.471,5.543-4.856,11.448-7.011,17.62-.054.1-.11.2-.163.3a1.6,1.6,0,0,0-.169.663c-1.863,5.419-3.544,11.035-4.949,16.784-1.71-23.817,3.426-50.849,4.608-56.641a7.739,7.739,0,1,0-3.239-.127,273.47,273.47,0,0,0-4.388,32.573c-4.387-3.69-5.917-9.392-6.346-11.5a7.732,7.732,0,1,0-2.9,1.73c.829,3.368,3.126,9.838,9.006,13.575-.541,10-.413,20.655,1.166,30.2q-.879,4.857-1.436,9.789a67.391,67.391,0,0,0-9.218-15.445,7.728,7.728,0,1,0-6.079,2.967Zm38.809-15.851a6.326,6.326,0,1,1-6.325,6.326A6.332,6.332,0,0,1,87.576,198.481ZM101.638,172a4.537,4.537,0,1,1-4.537,4.537A4.542,4.542,0,0,1,101.638,172Zm7.551-21.31a4.538,4.538,0,1,1-4.537,4.538A4.543,4.543,0,0,1,109.189,150.694ZM83.039,124.47a4.537,4.537,0,1,1,4.537,4.537A4.542,4.542,0,0,1,83.039,124.47ZM48.387,165.9a4.537,4.537,0,1,1,4.536,4.538A4.542,4.542,0,0,1,48.387,165.9Zm17.95-22.941a4.537,4.537,0,1,1,4.537,4.537A4.542,4.542,0,0,1,66.337,142.958Zm45.179-27.681a6.865,6.865,0,1,1-6.864,6.866A6.873,6.873,0,0,1,111.516,115.277ZM48.767,202.058A4.538,4.538,0,1,1,44.23,206.6,4.543,4.543,0,0,1,48.767,202.058Z" style="fill:#231f20"/><path d="M123.909,115.871a1.6,1.6,0,0,0,1.153-.49,119.128,119.128,0,0,1,8.925-8.343c10.673-4.482,21.089-3.706,23.305-2.9a1.608,1.608,0,0,0,.4.44,9.519,9.519,0,1,0,16.144-8.12h0A9.505,9.505,0,0,0,157.85,101c-3.261-.941-9.769-1.061-16.831.493A175.224,175.224,0,0,1,168.843,84.9c11.556-3.5,19.133,1.789,21.7,4.048a7.732,7.732,0,1,0,2.257-2.272,24.681,24.681,0,0,0-14.468-6.085q4.143-1.764,8.183-3.306c9.549-.723,19.941,3.629,23.265,5.165a7.8,7.8,0,1,0,1.059-3.043,62.853,62.853,0,0,0-16.452-4.982c19.62-6.763,35.358-9.5,38.535-9.664a10.049,10.049,0,1,0-.492-3.113c-3.656.347-14.34,2.216-28.23,6.3,4.715-6.713,12.593-13.073,15.337-15.19a7.762,7.762,0,1,0-2.216-2.337c-3.566,2.757-13.377,10.8-17.761,18.942-4.37,1.375-8.988,2.956-13.756,4.764l-.024,0a1.582,1.582,0,0,0-.813.319c-5.66,2.17-11.515,4.655-17.4,7.492-.114.036-.225.065-.339.1a1.588,1.588,0,0,0-.591.353c-5.15,2.514-10.31,5.3-15.369,8.369,15.632-18.051,38.378-33.534,43.312-36.8a7.738,7.738,0,1,0-2.2-2.379A273.244,273.244,0,0,0,166.245,71.52c-.493-5.713,2.458-10.826,3.645-12.62.075,0,.15.011.224.011a7.734,7.734,0,0,0,5.471-13.2h0a7.737,7.737,0,0,0-10.941,10.943,7.662,7.662,0,0,0,1.974,1.426c-1.793,2.964-4.719,9.156-3.211,15.953-7.461,6.695-14.91,14.32-20.547,22.191q-4.056,2.814-7.939,5.907a67.3,67.3,0,0,0,4.4-17.44,7.721,7.721,0,1,0-3.2-.279c-.535,4.351-2.646,17.7-8.986,24.188a1.578,1.578,0,0,0-.361.587q-2.058,1.944-4.026,3.98a1.6,1.6,0,0,0,1.153,2.709Zm38.723-17.15a6.323,6.323,0,0,1,8.945,0h0a6.325,6.325,0,1,1-8.945,0Zm37.611-8.78a4.541,4.541,0,1,1-3.208-1.327A4.541,4.541,0,0,1,200.243,89.941Zm17.2-11.055a4.535,4.535,0,1,1-3.208,1.327A4.52,4.52,0,0,1,217.442,78.886Zm20.191-22.072a6.862,6.862,0,1,1-2.011,4.854A6.842,6.842,0,0,1,237.633,56.814ZM220.7,43.179a4.535,4.535,0,1,1-1.329,3.207A4.52,4.52,0,0,1,220.7,43.179Zm-53.8,4.791a4.537,4.537,0,1,1,0,6.416A4.522,4.522,0,0,1,166.906,47.97Zm28.914-3.529a4.536,4.536,0,1,1,0,6.415A4.527,4.527,0,0,1,195.82,44.441ZM135.19,73.808a4.536,4.536,0,1,1,0,6.415A4.524,4.524,0,0,1,135.19,73.808Z" style="fill:#231f20"/><path d="M387.922,111.517a10.059,10.059,0,0,0-17.162-7.128c-2.832-2.342-11.709-8.574-24.422-15.5,8.081-1.413,18.152-.341,21.59.1a7.744,7.744,0,1,0,.087-3.219c-4.47-.572-17.1-1.826-25.959.836-4.057-2.114-8.434-4.258-13.077-6.347l-.033-.029a1.593,1.593,0,0,0-.82-.352c-5.521-2.459-11.4-4.835-17.547-6.982-.117-.062-.226-.126-.345-.186a1.584,1.584,0,0,0-.686-.168c-5.421-1.863-11.037-3.545-16.787-4.949,23.822-1.716,50.869,3.425,56.665,4.607a7.739,7.739,0,1,0,.127-3.238,273.626,273.626,0,0,0-32.572-4.389c3.689-4.387,9.391-5.918,11.5-6.346a7.719,7.719,0,1,0-1.731-2.9c-3.368.83-9.838,3.126-13.575,9.006-10.008-.541-20.668-.413-30.215,1.168q-4.851-.877-9.778-1.435a67.414,67.414,0,0,0,15.452-9.221,7.722,7.722,0,1,0-2.062-2.457c-3.455,2.7-14.386,10.644-23.456,10.749a1.589,1.589,0,0,0-.674.161c-1.885-.054-3.771-.069-5.657-.033a1.6,1.6,0,0,0-1.57,1.63,1.624,1.624,0,0,0,1.63,1.569,119.228,119.228,0,0,1,12.189.405c10.729,4.373,17.555,12.3,18.552,14.436a1.582,1.582,0,0,0-.026.595,9.557,9.557,0,1,0,2.634-2.418c-1.634-2.974-6.154-7.665-12.271-11.571a174.828,174.828,0,0,1,31.359,7.918c10.715,5.7,12.338,14.829,12.555,18.245a7.733,7.733,0,1,0,3.2-.01,24.69,24.69,0,0,0-5.948-14.556q4.168,1.678,8.108,3.441c7.281,6.232,11.568,16.69,12.835,20.132a7.8,7.8,0,1,0,2.9-1.4,62.819,62.819,0,0,0-8.125-15.175c18.663,9.1,31.731,18.3,34.1,20.434a10.06,10.06,0,1,0,19.016,4.578ZM375.53,83.038a4.538,4.538,0,1,1-4.537,4.538A4.542,4.542,0,0,1,375.53,83.038ZM334.1,48.387a4.537,4.537,0,1,1-4.537,4.537A4.542,4.542,0,0,1,334.1,48.387Zm22.942,17.95a4.537,4.537,0,1,1-4.538,4.537A4.542,4.542,0,0,1,357.042,66.337ZM301.518,87.576a6.326,6.326,0,1,1-6.325-6.326A6.333,6.333,0,0,1,301.518,87.576ZM328,101.638a4.537,4.537,0,1,1-4.537-4.537A4.543,4.543,0,0,1,328,101.638Zm21.309,7.55a4.537,4.537,0,1,1-4.537-4.537A4.543,4.543,0,0,1,349.3,109.188ZM293.4,44.229a4.538,4.538,0,1,1-4.537,4.539A4.543,4.543,0,0,1,293.4,44.229Zm84.454,74.152a6.865,6.865,0,1,1,6.864-6.864A6.872,6.872,0,0,1,377.858,118.381Z" style="fill:#231f20"/><path d="M459.085,218.44a7.746,7.746,0,0,0-9.507-1.12c-2.755-3.564-10.794-13.374-18.939-17.76-1.377-4.373-2.958-8.994-4.769-13.767v-.015a1.587,1.587,0,0,0-.311-.8c-2.173-5.668-4.663-11.534-7.506-17.426-.034-.109-.061-.215-.1-.325a1.6,1.6,0,0,0-.348-.587c-2.515-5.15-5.3-10.312-8.371-15.371,18.048,15.629,33.529,38.371,36.792,43.307a7.734,7.734,0,0,0,11.793,9.921h0a7.732,7.732,0,0,0-9.413-12.118,273.5,273.5,0,0,0-19.929-26.135c5.709-.492,10.82,2.455,12.616,3.644,0,.075-.011.15-.011.225a7.736,7.736,0,0,0,13.207,5.471h0a7.736,7.736,0,1,0-12.369-8.966c-2.964-1.794-9.155-4.717-15.952-3.211-6.693-7.46-14.318-14.909-22.188-20.545q-2.816-4.057-5.909-7.941a67.386,67.386,0,0,0,17.439,4.4,7.733,7.733,0,0,0,13.142,4.546h0a7.737,7.737,0,1,0-12.863-7.741c-4.352-.534-17.7-2.645-24.187-8.986a1.585,1.585,0,0,0-.589-.361q-1.942-2.058-3.978-4.024a1.6,1.6,0,1,0-2.22,2.3,119.393,119.393,0,0,1,8.339,8.92c4.487,10.674,3.711,21.094,2.9,23.311a1.588,1.588,0,0,0-.44.4,9.518,9.518,0,1,0,8.12,16.145h0a9.5,9.5,0,0,0-4.537-15.989c.942-3.261,1.061-9.77-.494-16.833A175.231,175.231,0,0,1,415.1,168.842c3.5,11.559-1.79,19.134-4.048,21.7a7.733,7.733,0,1,0,1.269,11.966h0a7.749,7.749,0,0,0,1-9.708,24.679,24.679,0,0,0,6.085-14.469c1.176,2.761,2.278,5.5,3.306,8.181.725,9.542-3.627,19.941-5.163,23.266a7.733,7.733,0,1,0,4.5,13.137h0a7.707,7.707,0,0,0-1.457-12.076,62.876,62.876,0,0,0,4.982-16.453c6.761,19.618,9.5,35.354,9.664,38.535A10.058,10.058,0,1,0,445.448,249.6h0a10.059,10.059,0,0,0-7.095-17.176c-.345-3.656-2.213-14.339-6.3-28.225,6.711,4.715,13.07,12.588,15.187,15.333a7.735,7.735,0,1,0,11.844-1.095Zm-10.263-52.861a4.534,4.534,0,0,1,3.207,7.742h0a4.536,4.536,0,1,1-3.207-7.743Zm6.737,30.241a4.538,4.538,0,0,1,0,6.415h0a4.535,4.535,0,1,1,0-6.416Zm-52.427-28.715a6.279,6.279,0,0,1-1.853,4.472h0a6.324,6.324,0,1,1,1.853-4.473Zm6.927,33.138a4.538,4.538,0,1,1,0-6.415A4.542,4.542,0,0,1,410.059,200.243Zm9.728,20.406h0a4.535,4.535,0,1,1,0-6.417A4.507,4.507,0,0,1,419.787,220.65Zm3.2-86.785a4.534,4.534,0,1,1-3.208,1.326A4.523,4.523,0,0,1,422.984,133.864Zm20.2,113.476a6.861,6.861,0,1,1,0-9.708A6.87,6.87,0,0,1,443.186,247.34Zm13.636-20.221a4.535,4.535,0,1,1,0-6.415A4.54,4.54,0,0,1,456.822,227.119Z" style="fill:#231f20"/><path d="M451.232,285.668a7.685,7.685,0,0,0-3.622.9c-2.7-3.455-10.644-14.386-10.748-23.458a1.571,1.571,0,0,0-.161-.67q.082-2.827.033-5.66a1.6,1.6,0,1,0-3.2.061,119.3,119.3,0,0,1-.412,12.206c-4.376,10.719-12.29,17.537-14.429,18.534a1.552,1.552,0,0,0-.6-.027,9.558,9.558,0,1,0,2.419,2.634c2.972-1.632,7.657-6.144,11.561-12.252a175.239,175.239,0,0,1-7.946,31.415c-5.7,10.645-14.8,12.266-18.206,12.483a7.732,7.732,0,1,0,.01,3.2,24.7,24.7,0,0,0,14.537-5.936q-1.681,4.178-3.449,8.126c-6.235,7.263-16.669,11.539-20.106,12.8a7.815,7.815,0,1,0,1.4,2.9,62.833,62.833,0,0,0,15.158-8.111c-9.093,18.658-18.287,31.723-20.417,34.083a10.05,10.05,0,1,0,2.55,1.854c2.342-2.83,8.576-11.7,15.506-24.413,1.411,8.08.339,18.145-.1,21.582a7.745,7.745,0,1,0,3.22.087c.571-4.468,1.824-17.092-.834-25.952,2.119-4.066,4.268-8.452,6.362-13.106l.011-.012a1.586,1.586,0,0,0,.346-.788c2.47-5.542,4.854-11.445,7.01-17.617.054-.1.111-.2.164-.307a1.6,1.6,0,0,0,.169-.663c1.863-5.42,3.545-11.036,4.95-16.787,1.709,23.818-3.427,50.851-4.609,56.643a7.739,7.739,0,1,0,3.239.127,273.615,273.615,0,0,0,4.389-32.574c4.387,3.691,5.917,9.394,6.346,11.5a7.719,7.719,0,1,0,2.9-1.731c-.829-3.367-3.126-9.838-9.006-13.575.54-10,.413-20.657-1.166-30.2q.877-4.856,1.435-9.785a67.357,67.357,0,0,0,9.218,15.444,7.73,7.73,0,1,0,6.079-2.966Zm-38.809,15.851a6.326,6.326,0,1,1,6.326-6.327A6.333,6.333,0,0,1,412.423,301.519ZM398.362,328a4.537,4.537,0,1,1,4.536-4.537A4.542,4.542,0,0,1,398.362,328Zm-7.551,21.309a4.538,4.538,0,1,1,4.537-4.537A4.543,4.543,0,0,1,390.811,349.305Zm26.15,26.225a4.537,4.537,0,1,1-4.542-4.536h.009A4.541,4.541,0,0,1,416.961,375.53ZM451.612,334.1a4.537,4.537,0,1,1-4.536-4.538A4.542,4.542,0,0,1,451.612,334.1Zm-17.95,22.94a4.537,4.537,0,1,1-4.54-4.537h.008A4.543,4.543,0,0,1,433.662,357.041Zm-45.179,27.682a6.865,6.865,0,1,1,6.865-6.866A6.873,6.873,0,0,1,388.483,384.723Zm62.749-86.782a4.537,4.537,0,1,1,4.538-4.537A4.542,4.542,0,0,1,451.232,297.941Z" style="fill:#231f20"/><path d="M374.938,384.619a119.477,119.477,0,0,1-8.924,8.341c-10.672,4.485-21.089,3.709-23.308,2.9a1.611,1.611,0,0,0-.4-.439,9.557,9.557,0,1,0-.155,3.584,24.137,24.137,0,0,0,6.337.695A49.906,49.906,0,0,0,359,398.5a175.223,175.223,0,0,1-27.85,16.606c-11.557,3.5-19.131-1.791-21.7-4.049a7.713,7.713,0,1,0-2.255,2.271,24.655,24.655,0,0,0,14.471,6.083q-4.144,1.766-8.186,3.308c-9.534.725-19.933-3.625-23.262-5.162a7.845,7.845,0,0,0,.068-.973,7.731,7.731,0,1,0-2.267,5.471,7.8,7.8,0,0,0,1.137-1.457,62.836,62.836,0,0,0,16.449,4.982c-19.6,6.756-35.328,9.5-38.525,9.663a10.063,10.063,0,1,0-16.692,10.21h0a10.065,10.065,0,0,0,17.181-7.1c3.658-.346,14.336-2.213,28.221-6.3-4.715,6.711-12.589,13.069-15.333,15.186a7.744,7.744,0,1,0,2.215,2.338c3.563-2.755,13.373-10.794,17.759-18.939,4.373-1.377,8.994-2.96,13.767-4.77h.016a1.578,1.578,0,0,0,.8-.313c5.656-2.168,11.506-4.655,17.384-7.489.122-.038.24-.07.362-.11a1.6,1.6,0,0,0,.584-.346c5.15-2.514,10.311-5.3,15.371-8.37-15.632,18.047-38.374,33.528-43.307,36.789a7.738,7.738,0,1,0,2.2,2.379,273.142,273.142,0,0,0,26.135-19.929c.493,5.712-2.456,10.825-3.644,12.62a7.716,7.716,0,1,0,3.272.825c1.793-2.963,4.718-9.156,3.211-15.953,7.462-6.7,14.913-14.322,20.55-22.194q4.056-2.814,7.937-5.907a67.375,67.375,0,0,0-4.4,17.443,7.717,7.717,0,1,0,3.195.279c.535-4.35,2.645-17.7,8.986-24.187a1.578,1.578,0,0,0,.362-.59q2.056-1.943,4.024-3.977a1.6,1.6,0,1,0-2.305-2.219Zm-37.571,16.66a6.323,6.323,0,1,1,0-8.944A6.331,6.331,0,0,1,337.367,401.279Zm-37.611,8.78a4.536,4.536,0,1,1,6.416,0A4.541,4.541,0,0,1,299.756,410.059Zm-20.407,9.727a4.537,4.537,0,1,1,6.416,0A4.541,4.541,0,0,1,279.349,419.786Zm-16.982,23.4a6.862,6.862,0,1,1,2.011-4.855A6.877,6.877,0,0,1,262.367,443.186ZM279.3,456.821a4.535,4.535,0,1,1,0-6.416A4.54,4.54,0,0,1,279.3,456.821Zm53.8-4.792a4.535,4.535,0,1,1,0-6.416A4.54,4.54,0,0,1,333.094,452.029Zm-28.914,3.529a4.536,4.536,0,1,1,0-6.415A4.541,4.541,0,0,1,304.18,455.558Zm61.958-32.575a4.534,4.534,0,1,1-1.329-3.207A4.5,4.5,0,0,1,366.138,422.983Z" style="fill:#231f20"/></svg>