<svg id="Layer_1" data-name="Layer 1" xmlns="http://www.w3.org/2000/svg" viewBox="0 0 500 500"><path d="M441.253,244.979a7.545,7.545,0,0,0-.044-15.09h-.046A7.5,7.5,0,0,0,435.992,232a185.7,185.7,0,0,0-5.567-30.65c-.012-.126-.022-.223-.027-.263a1.553,1.553,0,0,0-.211-.613q-1.8-6.533-4.051-12.868a7.5,7.5,0,0,0,1.959.267h.046a7.545,7.545,0,0,0,5.257-12.913,7.424,7.424,0,0,0-5.348-2.177,7.539,7.539,0,0,0-6.339,3.541,186.545,186.545,0,0,0-13.733-26.012l-.052-.167a1.568,1.568,0,0,0-.5-.712q-4.453-6.947-9.5-13.457c5.042,3.217,11.235,6.459,16.882,7.435a24.67,24.67,0,0,0,4.208.382c5.846,0,9.016-2.452,10.5-4.124a8.366,8.366,0,0,0,2.043-7.79c-1.163-3.851-5.372-8.038-18.808-6.138-10.275,1.523-17.886,1.54-23.271.059A188.22,188.22,0,0,0,373.394,109.8a7.6,7.6,0,0,0-1.82-1.589,187.816,187.816,0,0,0-25.727-18.561,72.953,72.953,0,0,0,11.9,1.109,34.678,34.678,0,0,0,8.446-.92c8.453-2.156,11.078-6.83,11.89-9.424a8.361,8.361,0,0,0-1.318-7.944c-2.636-3.041-8.189-5.146-19.674,2.084-8.722,5.568-15.644,8.693-21.151,9.552a185.582,185.582,0,0,0-38.126-14.762,7.535,7.535,0,0,0,.408-11.1,7.7,7.7,0,0,0-5.349-2.178A7.546,7.546,0,0,0,286,66.631a187.018,187.018,0,0,0-36-3.493c-2.175,0-4.338.051-6.5.125a7.537,7.537,0,0,0-6.068-12.017h-.046A7.535,7.535,0,0,0,232,64.009a185.561,185.561,0,0,0-30.647,5.566c-.128.012-.225.022-.265.027a1.564,1.564,0,0,0-.614.211q-6.53,1.8-12.864,4.05a7.532,7.532,0,0,0-7.282-9.5h-.045a7.538,7.538,0,0,0-3.958,13.93,186.612,186.612,0,0,0-26.013,13.733l-.167.052a1.571,1.571,0,0,0-.712.5q-6.948,4.454-13.458,9.5c3.217-5.043,6.46-11.236,7.437-16.883,1.486-8.6-1.708-12.9-3.744-14.7a8.365,8.365,0,0,0-7.788-2.043c-3.851,1.163-8.043,5.368-6.139,18.809,1.525,10.271,1.542,17.885.059,23.27a188.583,188.583,0,0,0-16,16.089,7.587,7.587,0,0,0-1.587,1.819,187.764,187.764,0,0,0-18.561,25.728c1.061-6.275,1.762-14.187.19-20.348-2.156-8.453-6.831-11.078-9.425-11.89a8.365,8.365,0,0,0-7.944,1.318c-3.039,2.636-5.146,8.187,2.084,19.674,5.569,8.72,8.693,15.642,9.553,21.15a185.6,185.6,0,0,0-14.761,38.128,7.526,7.526,0,0,0-5.731-2.651h-.046a7.546,7.546,0,0,0,.044,15.091h.046a7.529,7.529,0,0,0,2.97-.628,187.026,187.026,0,0,0-3.493,36c0,2.175.051,4.338.125,6.5a7.478,7.478,0,0,0-4.47-1.476h-.045a7.545,7.545,0,0,0,.043,15.09h.045A7.5,7.5,0,0,0,64.008,268a185.671,185.671,0,0,0,5.567,30.649c.012.127.022.224.027.264a1.564,1.564,0,0,0,.211.613q1.8,6.532,4.051,12.868a7.5,7.5,0,0,0-1.959-.267H71.86a7.546,7.546,0,0,0,.044,15.091h.046a7.538,7.538,0,0,0,6.339-3.542,186.674,186.674,0,0,0,13.733,26.014c.024.077.043.138.053.166a1.576,1.576,0,0,0,.51.735q4.448,6.935,9.486,13.435c-5.043-3.217-11.236-6.46-16.883-7.436-8.6-1.487-12.9,1.706-14.7,3.742a8.361,8.361,0,0,0-2.043,7.79c.963,3.189,4.012,6.611,12.669,6.611a44.121,44.121,0,0,0,6.14-.473c10.273-1.524,17.888-1.542,23.27-.059A188.488,188.488,0,0,0,126.605,390.2a7.579,7.579,0,0,0,1.823,1.591,187.91,187.91,0,0,0,25.729,18.563c-6.274-1.062-14.187-1.762-20.349-.192-8.453,2.156-11.078,6.83-11.89,9.424a8.361,8.361,0,0,0,1.318,7.944,8.225,8.225,0,0,0,6.529,2.811c3.152,0,7.409-1.283,13.145-4.9,8.721-5.568,15.644-8.693,21.151-9.552a185.544,185.544,0,0,0,38.126,14.761,7.541,7.541,0,0,0,4.895,13.278h.045A7.546,7.546,0,0,0,214,433.369a187.026,187.026,0,0,0,36,3.493c2.176,0,4.339-.051,6.5-.125a7.475,7.475,0,0,0-1.475,4.516,7.553,7.553,0,0,0,7.543,7.5h.046A7.536,7.536,0,0,0,268,435.991a185.572,185.572,0,0,0,30.648-5.566l.263-.027a1.564,1.564,0,0,0,.613-.211q6.532-1.8,12.868-4.051a7.523,7.523,0,0,0,7.279,9.506h.046a7.539,7.539,0,0,0,3.958-13.93,186.506,186.506,0,0,0,26.013-13.733l.166-.052a1.571,1.571,0,0,0,.712-.5q6.947-4.453,13.457-9.5c-3.217,5.043-6.459,11.235-7.435,16.882-1.487,8.6,1.707,12.9,3.742,14.7a8.909,8.909,0,0,0,5.809,2.329,6.864,6.864,0,0,0,1.981-.286c3.851-1.163,8.041-5.368,6.138-18.808-1.524-10.274-1.541-17.888-.059-23.271a188.46,188.46,0,0,0,16-16.09,7.6,7.6,0,0,0,1.585-1.816,187.893,187.893,0,0,0,18.562-25.728c-1.062,6.274-1.762,14.185-.19,20.346,2.156,8.453,6.83,11.078,9.424,11.89a9.646,9.646,0,0,0,2.876.446,7.7,7.7,0,0,0,5.068-1.764c3.041-2.636,5.149-8.188-2.084-19.674-5.569-8.722-8.693-15.644-9.552-21.151a185.59,185.59,0,0,0,14.762-38.127,7.523,7.523,0,0,0,5.73,2.651h.046a7.546,7.546,0,0,0-.044-15.091h-.046a7.529,7.529,0,0,0-2.97.628,187.026,187.026,0,0,0,3.493-36c0-2.175-.051-4.338-.125-6.5a7.48,7.48,0,0,0,4.469,1.476ZM348.877,404.716c-5.471-.812-12.361-3.778-21.045-9.067-11.628-6.982-17.131-4.757-19.7-1.664a8.363,8.363,0,0,0-1.149,7.972c.867,2.576,3.59,7.193,12.084,9.17a33.2,33.2,0,0,0,7.444.754,70.034,70.034,0,0,0,12.555-1.306,182.578,182.578,0,0,1-40.353,16.52c-5.218-1.88-11.4-6.187-18.887-13.164-9.976-9.188-15.819-8.122-18.965-5.608a8.366,8.366,0,0,0-2.733,7.575c.33,2.7,2.065,7.77,9.985,11.419,4.388,2.024,10.007,2.938,15.245,3.3a183.915,183.915,0,0,1-32.962,3.038c-4.94-2.593-10.486-7.783-16.948-15.871-8.536-10.542-14.472-10.337-17.946-8.308a8.36,8.36,0,0,0-3.808,7.093c-.067,2.718.91,7.99,8.216,12.757a30.825,30.825,0,0,0,5.125,2.63,182.174,182.174,0,0,1-39.112-9.839c-2.98-4.709-5.2-11.963-6.767-22.177-2.134-13.33-7.343-16.146-11.361-16.146h-.056a8.353,8.353,0,0,0-6.837,4.25c-1.413,2.322-3.193,7.38.765,15.153,2.568,5.045,7.407,9.944,11.922,13.791a184.1,184.1,0,0,1-39.119-24.335,7.543,7.543,0,0,0-2.043-14.805h-.046a7.551,7.551,0,0,0-7.424,6.531,185.076,185.076,0,0,1-29.668-35.509c.813-5.47,3.778-12.36,9.066-21.043,6.982-11.626,4.759-17.132,1.664-19.7a8.368,8.368,0,0,0-7.971-1.149c-2.576.867-7.193,3.59-9.169,12.084-1.417,6.081-.608,13.8.552,20a182.51,182.51,0,0,1-16.52-40.353c1.88-5.218,6.186-11.4,13.163-18.886,9.189-9.977,8.122-15.819,5.608-18.965a8.369,8.369,0,0,0-7.575-2.733c-2.7.33-7.769,2.065-11.419,9.985-2.023,4.386-2.938,10-3.3,15.238a183.932,183.932,0,0,1-3.037-32.956c2.593-4.939,7.782-10.484,15.869-16.948,10.542-8.534,10.337-14.469,8.309-17.945a8.36,8.36,0,0,0-7.093-3.808c-2.721-.071-7.99.911-12.757,8.216a30.838,30.838,0,0,0-2.629,5.123,182.165,182.165,0,0,1,9.839-39.111c4.709-2.98,11.963-5.195,22.176-6.766,13.392-2.143,16.172-7.392,16.146-11.418a8.356,8.356,0,0,0-4.251-6.836c-2.322-1.413-7.38-3.193-15.154.765-5.043,2.568-9.942,7.405-13.788,11.921a184.044,184.044,0,0,1,24.333-39.118,7.533,7.533,0,0,0,7.256,5.5h.048a7.542,7.542,0,0,0,.97-15.015,185.058,185.058,0,0,1,35.507-29.667c5.471.812,12.361,3.778,21.044,9.067,5.654,3.395,9.86,4.613,12.985,4.613a7.927,7.927,0,0,0,7.869-10.92c-.867-2.577-3.59-7.194-12.084-9.171-6.084-1.415-13.806-.605-20,.554a182.536,182.536,0,0,1,40.356-16.521c5.218,1.879,11.4,6.186,18.887,13.163,6.04,5.563,10.564,7.367,13.892,7.367a7.928,7.928,0,0,0,5.072-1.759,8.359,8.359,0,0,0,2.734-7.575c-.33-2.7-2.065-7.769-9.986-11.419-4.386-2.023-10-2.938-15.24-3.3a183.871,183.871,0,0,1,32.958-3.038c4.941,2.594,10.486,7.783,16.949,15.871,5.852,7.227,10.48,9.4,13.933,9.4a7.87,7.87,0,0,0,4.012-1.094,8.362,8.362,0,0,0,3.808-7.093c.068-2.718-.91-7.99-8.216-12.757a30.8,30.8,0,0,0-5.126-2.63,182.158,182.158,0,0,1,39.112,9.838c2.981,4.709,5.2,11.964,6.768,22.178,2.133,13.33,7.343,16.146,11.361,16.146h.057a8.353,8.353,0,0,0,6.836-4.25c1.414-2.322,3.193-7.38-.765-15.153-2.569-5.045-7.408-9.945-11.924-13.792a184.058,184.058,0,0,1,39.122,24.336,7.543,7.543,0,0,0,2.041,14.8h.047a7.548,7.548,0,0,0,7.423-6.532,185.068,185.068,0,0,1,29.669,35.508c-.812,5.471-3.778,12.362-9.067,21.045-6.981,11.626-4.758,17.132-1.664,19.7a7.66,7.66,0,0,0,4.913,1.659,9.619,9.619,0,0,0,3.059-.51c2.576-.867,7.193-3.59,9.17-12.084,1.417-6.082.607-13.8-.553-20a182.538,182.538,0,0,1,16.52,40.354c-1.879,5.218-6.186,11.4-13.163,18.887-9.189,9.977-8.121,15.819-5.608,18.965a8.1,8.1,0,0,0,6.376,2.806,9.917,9.917,0,0,0,1.2-.073c2.7-.33,7.77-2.065,11.419-9.985,2.024-4.387,2.938-10,3.3-15.243a183.893,183.893,0,0,1,3.038,32.96c-2.593,4.941-7.783,10.486-15.871,16.949-10.541,8.535-10.336,14.469-8.308,17.945a8.362,8.362,0,0,0,7.093,3.808l.252,0c2.782,0,7.881-1.131,12.5-8.218a30.8,30.8,0,0,0,2.63-5.126,182.109,182.109,0,0,1-9.839,39.113c-4.708,2.98-11.963,5.2-22.177,6.767-13.392,2.143-16.172,7.392-16.145,11.418a8.353,8.353,0,0,0,4.25,6.836,11.865,11.865,0,0,0,6.23,1.649,19.686,19.686,0,0,0,8.923-2.414c5.045-2.569,9.945-7.407,13.792-11.923a184.077,184.077,0,0,1-24.336,39.121,7.532,7.532,0,0,0-7.256-5.5h-.048a7.542,7.542,0,0,0-.969,15.015A185.089,185.089,0,0,1,348.877,404.716Z" style="fill:#231f20"/></svg>