<svg id="Layer_1" data-name="Layer 1" xmlns="http://www.w3.org/2000/svg" viewBox="0 0 500 500"><path d="M100.868,174.963c-4.948-.514-11.476,5.677-17.211,11.79a128.611,128.611,0,0,0-9.515,11.867,193.1,193.1,0,0,1,7.435-21.756c.228.007.481.012.763.012,3.566,0,11.365-.694,20.741-5.767,5.866-3.173,19.15-11.411,15.823-19.333a5.348,5.348,0,0,0-3.626-3.29c-4.809-1.253-12.205,3.868-18.8,9.038A124.4,124.4,0,0,0,85.92,167.15c6.057-12.483,11.42-19.566,12.548-21,2.332-.986,14.141-6.271,22.381-15.394,8-8.857,14.752-17.7,10.045-22.407a6.974,6.974,0,0,0-5.419-1.952c-5.006.245-11.418,4.559-17.152,11.538-6.92,8.426-11.57,23.664-12.295,26.139-1.079,1.338-6.061,7.791-11.9,19.344a111.712,111.712,0,0,0,1.144-11.584c.28-8.377.047-17.365-3.8-20.512a5.353,5.353,0,0,0-4.8-.985c-8.36,1.99-7.166,17.576-6.265,24.184,1.6,11.744,6.41,18.7,8.206,20.954-2.1,5.095-4.258,11.021-6.281,17.741-.06-3.513-.231-7.2-.612-10.386-1-8.323-2.594-17.172-6.876-19.7a5.346,5.346,0,0,0-4.89-.245c-7.961,3.239-4.413,18.461-2.519,24.856,3.328,11.229,9.048,17.375,11.226,19.4a224.47,224.47,0,0,0-4.037,23.463,114.676,114.676,0,0,0-3.479-11.782c-2.911-7.86-6.527-16.093-11.28-17.549a5.346,5.346,0,0,0-4.811.9c-6.986,5,.014,18.98,3.348,24.757,5.617,9.731,12.27,14.386,15.09,16.042q-.225,3.42-.357,6.956a1.6,1.6,0,0,0,1.541,1.658h.059a1.6,1.6,0,0,0,1.6-1.541q.122-3.288.327-6.473c2.394-.82,10.447-4.127,18.259-13.651,4.229-5.158,13.411-17.809,7.332-23.884a5.344,5.344,0,0,0-4.6-1.673c-4.926.663-9.834,8.2-13.985,15.48a122.91,122.91,0,0,0-6.034,12.677,219.443,219.443,0,0,1,4.105-24.387c2.982-.349,11.21-1.925,20.511-8.971,5.315-4.029,17.194-14.189,12.7-21.514A5.349,5.349,0,0,0,100.868,174.963Z" style="fill:#231f20"/><path d="M139.37,102.983a1.6,1.6,0,0,0,.988-.341c3.7-2.91,7.555-5.6,11.467-8.094,3.377.915,17.924,4.7,28.054,4.883.134,0,.268,0,.4,0,6.276,0,13.942-2.55,18-4.093,10.631-4.036,10.78-5.609,10.83-6.125a1.664,1.664,0,0,0-1.4-1.8c-1.507-.262-5.954-.392-13.085-.582-5.464-.146-11.658-.311-16.445-.593-4.558-.27-10.274.649-14.932,1.655a220.371,220.371,0,0,1,46.14-18.064,1.573,1.573,0,0,0,.289.029,1.618,1.618,0,0,0,.285-.041c4.678,2.988,18.343,11.291,25.7,11.289a5.719,5.719,0,0,0,2.986-.693c4.893-2.971,4.285-7.9,3.017-10.787,2.088-3.348,1.147-7.674.635-8.954a11.628,11.628,0,0,1-.5-2.918,17.223,17.223,0,0,0-.894-4.655,3.308,3.308,0,0,0-2.079-1.94A8.313,8.313,0,0,0,234.918,51c.277-2.511.208-7.02-5.02-7.892-7.456-1.238-16.819,13.465-21.3,23.624a212.474,212.474,0,0,0-26.421,8.848,62.993,62.993,0,0,0,11.637-12.66c3.454-5.319,6.176-9.955,8.363-13.68A80.752,80.752,0,0,1,207.3,41.1a2.022,2.022,0,0,0,.474-2.081,1.764,1.764,0,0,0-1.413-1.1c-3-.478-19.85,9.583-26.931,18.563-7.343,9.313-9.959,21.688-10.549,24.978a167.144,167.144,0,0,0-30.5,18.664,1.6,1.6,0,0,0,.99,2.857ZM178,89.439c4.838.285,11.059.451,16.548.6,2.761.073,5.449.146,7.653.226-5.535,2.522-15.345,6.084-22.262,5.969-7.066-.126-16.685-2.163-22.6-3.585C162.944,91.1,171.908,89.085,178,89.439Zm3.948-30.973c5.09-6.456,14.894-12.852,20.4-15.757-.855,1.384-1.817,3.023-2.926,4.913-2.171,3.7-4.872,8.3-8.286,13.558C186.352,68.547,177.474,75.5,172.7,78.937,173.9,74,176.61,65.232,181.946,58.466ZM237,77.685c-1.579.952-7.993-.592-18.147-6.255a90.685,90.685,0,0,0,15.181,1.829,10.1,10.1,0,0,0,5.11-1.2A4.679,4.679,0,0,1,237,77.685Zm.936-23.431a14.529,14.529,0,0,1,.693,3.805,13.682,13.682,0,0,0,.713,3.806c.356.892.936,4.152-.458,6.21-.891,1.317-2.523,1.985-4.85,1.985-6.187,0-15.9-1.971-20.766-3.055a116.083,116.083,0,0,1,12.964-9.337,32.263,32.263,0,0,1,7.259-3.1,1.344,1.344,0,0,0,.166-.042C236.044,53.9,237.608,53.921,237.933,54.254Zm-8.56-7.987c2.506.418,2.72,2.191,2.238,5.316-.011.073-.022.152-.034.23a38.006,38.006,0,0,0-6.926,3.072,100.089,100.089,0,0,0-10.11,7.029C219.64,52.624,225.954,45.7,229.373,46.267Z" style="fill:#231f20"/><path d="M387.817,132.447a5.2,5.2,0,0,0,3.828-1.552,6.953,6.953,0,0,0,1.953-5.419c-.244-5.006-4.558-11.418-11.538-17.153-8.426-6.919-23.662-11.569-26.138-12.294-1.337-1.078-7.79-6.061-19.345-11.9a111.411,111.411,0,0,0,11.584,1.144c1.485.05,2.988.083,4.475.083,6.9,0,13.448-.718,16.037-3.885a5.351,5.351,0,0,0,.985-4.8c-1.99-8.36-17.576-7.166-24.184-6.265-11.743,1.6-18.7,6.409-20.954,8.2-5.1-2.1-11.023-4.258-17.745-6.282,3.515-.059,7.205-.23,10.39-.611,8.322-1,17.171-2.594,19.695-6.877a5.344,5.344,0,0,0,.245-4.889c-3.238-7.962-18.462-4.412-24.855-2.518-11.228,3.327-17.375,9.048-19.4,11.225a224.238,224.238,0,0,0-23.464-4.036,114.7,114.7,0,0,0,11.783-3.48c7.861-2.911,16.093-6.528,17.549-11.28a5.348,5.348,0,0,0-.9-4.811c-5.006-6.989-18.982.015-24.757,3.349-9.732,5.617-14.388,12.27-16.042,15.089q-3.421-.224-6.956-.356a1.6,1.6,0,1,0-.118,3.2q3.288.12,6.474.327c.819,2.394,4.128,10.448,13.65,18.258,3.941,3.231,12.254,9.352,18.668,9.352a7.078,7.078,0,0,0,5.216-2.018,5.345,5.345,0,0,0,1.673-4.6c-.663-4.925-8.2-9.833-15.479-13.984a123,123,0,0,0-12.676-6.035,219.436,219.436,0,0,1,24.385,4.106c.349,2.981,1.924,11.21,8.971,20.51,3.409,4.5,11.21,13.7,17.967,13.7a6.656,6.656,0,0,0,3.547-.994,5.347,5.347,0,0,0,2.7-4.084c.5-4.946-5.677-11.475-11.79-17.21a128.756,128.756,0,0,0-11.867-9.516,193.107,193.107,0,0,1,21.757,7.436c-.1,3.1.274,11.373,5.754,21.5,2.829,5.229,9.679,16.35,16.746,16.35a6.622,6.622,0,0,0,2.588-.527,5.348,5.348,0,0,0,3.289-3.627c1.25-4.81-3.868-12.2-9.038-18.8a124.37,124.37,0,0,0-9.625-10.555c12.482,6.056,19.564,11.419,20.993,12.547.986,2.33,6.272,14.14,15.395,22.381C376.07,127.019,382.9,132.447,387.817,132.447Z" style="fill:#231f20"/><path d="M443.516,179.432c-9.312-7.341-21.688-9.958-24.978-10.548a167.11,167.11,0,0,0-18.664-30.5,1.6,1.6,0,0,0-2.516,1.978c2.91,3.7,5.605,7.555,8.094,11.467-.915,3.377-4.7,17.925-4.883,28.056-.113,6.346,2.513,14.255,4.089,18.4,4.037,10.631,5.61,10.78,6.126,10.829a1.453,1.453,0,0,0,.16.008,1.667,1.667,0,0,0,1.638-1.406c.262-1.507.392-5.952.581-13.08.146-5.466.311-11.661.593-16.45.267-4.564-.651-10.279-1.657-14.937a220.386,220.386,0,0,1,18.066,46.144,1.587,1.587,0,0,0,0,.595c-3.48,5.451-14.066,22.934-10.585,28.669a7.512,7.512,0,0,0,6.685,3.914,10.4,10.4,0,0,0,4.105-.9,9.33,9.33,0,0,0,4.949,1.3,11.834,11.834,0,0,0,4-.666,11.661,11.661,0,0,1,2.917-.5,17.15,17.15,0,0,0,4.656-.893,3.306,3.306,0,0,0,1.939-2.08,8.29,8.29,0,0,0,.164-3.92,13.491,13.491,0,0,0,1.5.088c2.5,0,5.678-.814,6.394-5.108,1.244-7.468-13.465-16.821-23.624-21.3a212.474,212.474,0,0,0-8.848-26.421,62.983,62.983,0,0,0,12.659,11.636c5.318,3.454,9.952,6.173,13.676,8.36A80.89,80.89,0,0,1,458.9,207.3a2.313,2.313,0,0,0,1.446.595,1.745,1.745,0,0,0,.635-.121,1.764,1.764,0,0,0,1.1-1.413C462.533,203.341,452.5,186.514,443.516,179.432ZM410.561,178c-.285,4.84-.451,11.063-.6,16.552-.074,2.76-.146,5.446-.226,7.649-2.522-5.535-6.094-15.338-5.97-22.261.126-7.067,2.163-16.685,3.585-22.6C408.9,162.945,410.919,171.9,410.561,178Zm11.754,59c-.958-1.578.59-7.992,6.254-18.147a90.685,90.685,0,0,0-1.829,15.181,10.1,10.1,0,0,0,1.2,5.11A4.678,4.678,0,0,1,422.315,237Zm23.432.936a14.586,14.586,0,0,1-3.805.694,13.6,13.6,0,0,0-3.806.712c-.93.371-4.127.953-6.212-.459-1.317-.892-1.985-2.523-1.985-4.849,0-6.188,1.972-15.9,3.055-20.765a115.834,115.834,0,0,1,9.338,12.963,32.259,32.259,0,0,1,3.1,7.271c.011.049.022.1.037.145C446.106,236.041,446.08,237.608,445.747,237.933Zm7.986-8.559c-.417,2.5-2.188,2.721-5.316,2.237l-.229-.034a37.95,37.95,0,0,0-3.073-6.926,100.021,100.021,0,0,0-7.028-10.109C447.378,219.644,454.3,225.962,453.733,229.374Zm-1.36-29.957c-3.7-2.17-8.3-4.87-13.554-8.283-7.367-4.782-14.324-13.66-17.756-18.433,4.936,1.194,13.7,3.908,20.472,9.244,6.456,5.091,12.852,14.894,15.756,20.4C455.905,201.49,454.265,200.527,452.373,199.417Z" style="fill:#231f20"/><path d="M436.505,257.015q.224-3.42.356-6.956a1.6,1.6,0,1,0-3.2-.118q-.12,3.288-.327,6.473c-2.392.819-10.447,4.128-18.259,13.651-4.229,5.158-13.411,17.809-7.332,23.884a5.439,5.439,0,0,0,3.889,1.721,5.379,5.379,0,0,0,.712-.048c4.925-.663,9.834-8.2,13.984-15.479a123.037,123.037,0,0,0,6.036-12.678,219.474,219.474,0,0,1-4.106,24.387c-2.982.349-11.211,1.925-20.511,8.971-5.315,4.029-17.194,14.189-12.7,21.515a5.344,5.344,0,0,0,4.084,2.7,5.5,5.5,0,0,0,.577.029c4.869,0,11.118-5.941,16.633-11.819a128.611,128.611,0,0,0,9.515-11.867,193.247,193.247,0,0,1-7.435,21.757c-3.1-.1-11.373.272-21.5,5.754-5.866,3.173-19.151,11.412-15.823,19.333a5.348,5.348,0,0,0,3.626,3.29,6.209,6.209,0,0,0,1.573.19c4.76,0,11.314-4.593,17.229-9.228a124.24,124.24,0,0,0,10.556-9.627c-6.056,12.483-11.419,19.566-12.548,21-2.33.986-14.14,6.272-22.381,15.395-8,8.857-14.752,17.7-10.046,22.407a6.859,6.859,0,0,0,4.983,1.962c.144,0,.29,0,.436-.01,5.007-.245,11.419-4.559,17.153-11.538,6.919-8.426,11.569-23.662,12.294-26.138,1.078-1.337,6.062-7.79,11.9-19.345a111.73,111.73,0,0,0-1.143,11.584c-.281,8.377-.048,17.365,3.8,20.512a5.122,5.122,0,0,0,3.3,1.168,6.449,6.449,0,0,0,1.494-.183c8.361-1.99,7.167-17.576,6.266-24.184-1.6-11.743-6.41-18.7-8.206-20.954,2.1-5.1,4.258-11.022,6.282-17.743.059,3.514.231,7.2.612,10.388,1,8.322,2.592,17.17,6.875,19.695a5.066,5.066,0,0,0,2.607.718,6.05,6.05,0,0,0,2.283-.472c7.961-3.239,4.413-18.461,2.519-24.856-3.328-11.229-9.048-17.375-11.226-19.4a224.183,224.183,0,0,0,4.037-23.464,114.372,114.372,0,0,0,3.48,11.783c2.91,7.86,6.526,16.093,11.279,17.549a5.177,5.177,0,0,0,1.517.23,5.621,5.621,0,0,0,3.294-1.133c6.985-5-.014-18.981-3.348-24.758C445.978,263.325,439.325,258.67,436.505,257.015Z" style="fill:#231f20"/><path d="M359.642,397.358c-3.7,2.91-7.555,5.605-11.467,8.094-3.377-.915-17.924-4.7-28.055-4.884-6.369-.159-14.256,2.514-18.405,4.089-10.631,4.037-10.78,5.61-10.829,6.126a1.662,1.662,0,0,0,1.4,1.8c1.507.262,5.954.392,13.085.582,5.464.146,11.657.311,16.445.593.548.032,1.112.047,1.689.047a66.594,66.594,0,0,0,13.244-1.7,220.393,220.393,0,0,1-46.14,18.064,1.6,1.6,0,0,0-.594,0c-5.451-3.48-22.938-14.073-28.67-10.584-4.893,2.971-4.286,7.9-3.018,10.788-2.088,3.347-1.147,7.673-.635,8.954a11.661,11.661,0,0,1,.5,2.917,17.15,17.15,0,0,0,.893,4.656,3.307,3.307,0,0,0,2.079,1.939,6.277,6.277,0,0,0,2.1.316,12.559,12.559,0,0,0,1.819-.163c-.279,2.509-.216,7.029,5.019,7.9a5.572,5.572,0,0,0,.905.074c7.3,0,16.094-13.946,20.392-23.7a212.64,212.64,0,0,0,26.42-8.848,62.988,62.988,0,0,0-11.637,12.659c-3.454,5.319-6.175,9.954-8.362,13.68a81.062,81.062,0,0,1-5.123,8.14,2.022,2.022,0,0,0-.474,2.081,1.764,1.764,0,0,0,1.413,1.1,1.327,1.327,0,0,0,.218.016c3.538,0,19.787-9.794,26.713-18.579,7.342-9.313,9.959-21.688,10.549-24.978a167.144,167.144,0,0,0,30.5-18.664,1.6,1.6,0,0,0-1.978-2.516ZM322,410.561c-4.839-.285-11.06-.451-16.548-.6-2.761-.073-5.449-.146-7.653-.226,5.535-2.523,15.355-6.069,22.262-5.97,7.066.126,16.685,2.164,22.6,3.586C337.057,408.9,328.107,410.92,322,410.561Zm-3.948,30.974c-5.09,6.456-14.894,12.852-20.4,15.756.856-1.385,1.819-3.024,2.928-4.915,2.17-3.7,4.871-8.3,8.285-13.557,4.783-7.366,13.661-14.324,18.433-17.756C326.1,426,323.39,434.768,318.054,441.535ZM263,422.315c1.58-.952,7.994.593,18.148,6.255a90.7,90.7,0,0,0-15.182-1.829,10.1,10.1,0,0,0-5.11,1.2A4.679,4.679,0,0,1,263,422.315Zm-.936,23.432a14.586,14.586,0,0,1-.694-3.805,13.6,13.6,0,0,0-.712-3.806c-.371-.93-.953-4.127.458-6.211.892-1.317,2.524-1.985,4.85-1.985,6.187,0,15.894,1.971,20.765,3.055a115.884,115.884,0,0,1-12.963,9.337,32.312,32.312,0,0,1-7.274,3.1,1.359,1.359,0,0,0-.143.036C263.961,446.107,262.4,446.082,262.067,445.747Zm8.56,7.986c-2.506-.418-2.721-2.191-2.238-5.317.011-.075.023-.157.035-.237a38,38,0,0,0,6.925-3.064,99.977,99.977,0,0,0,10.106-7.026C280.348,447.379,274.02,454.3,270.627,453.733Z" style="fill:#231f20"/><path d="M250.059,433.664q-3.288-.12-6.473-.327c-.819-2.392-4.127-10.447-13.651-18.259-5.158-4.229-17.807-13.411-23.884-7.333a5.348,5.348,0,0,0-1.673,4.6c.663,4.925,8.2,9.833,15.479,13.984a122.938,122.938,0,0,0,12.678,6.036,219.66,219.66,0,0,1-24.387-4.107c-.349-2.982-1.924-11.211-8.971-20.51-4.029-5.315-14.188-17.193-21.514-12.7a5.351,5.351,0,0,0-2.7,4.085c-.5,4.944,5.677,11.474,11.79,17.21a128.765,128.765,0,0,0,11.866,9.515,193.086,193.086,0,0,1-21.756-7.436c.095-3.1-.274-11.373-5.754-21.5-3.173-5.865-11.408-19.148-19.333-15.823a5.35,5.35,0,0,0-3.29,3.626c-1.25,4.811,3.867,12.2,9.038,18.8a124.38,124.38,0,0,0,9.626,10.556c-12.48-6.056-19.563-11.418-20.994-12.548-.985-2.328-6.271-14.14-15.4-22.381-8.856-8-17.7-14.75-22.406-10.046a6.953,6.953,0,0,0-1.953,5.42c.245,5.006,4.558,11.418,11.538,17.152,8.426,6.92,23.664,11.57,26.139,12.295,1.337,1.078,7.79,6.061,19.345,11.9a111.74,111.74,0,0,0-11.586-1.143c-8.377-.284-17.364-.048-20.51,3.8a5.349,5.349,0,0,0-.986,4.8c1.326,5.572,8.688,6.9,15.409,6.9a66.67,66.67,0,0,0,8.776-.634c11.742-1.6,18.7-6.41,20.953-8.206,5.1,2.1,11.022,4.258,17.744,6.281-3.515.06-7.2.232-10.389.613-8.322,1-17.17,2.592-19.7,6.875a5.346,5.346,0,0,0-.245,4.89c1.536,3.779,5.773,4.965,10.486,4.965a54.646,54.646,0,0,0,14.369-2.447c11.23-3.327,17.376-9.048,19.4-11.225a224.238,224.238,0,0,0,23.464,4.036,114.891,114.891,0,0,0-11.784,3.48c-7.861,2.911-16.093,6.528-17.548,11.28a5.346,5.346,0,0,0,.9,4.812c1.554,2.17,3.974,2.99,6.745,2.99,6.15,0,14.03-4.041,18.012-6.339,9.731-5.618,14.387-12.271,16.042-15.09q3.42.224,6.956.356H250a1.6,1.6,0,0,0,.058-3.2Z" style="fill:#231f20"/><path d="M94.548,348.174c.916-3.38,4.7-17.925,4.883-28.054.113-6.346-2.514-14.255-4.089-18.405-4.037-10.631-5.609-10.779-6.126-10.829a1.66,1.66,0,0,0-1.8,1.4c-.263,1.508-.392,5.958-.583,13.093-.145,5.462-.31,11.652-.591,16.437-.268,4.563.65,10.277,1.655,14.935a220.417,220.417,0,0,1-18.065-46.142,1.577,1.577,0,0,0,0-.593c3.48-5.451,14.068-22.936,10.585-28.671-2.971-4.893-7.9-4.285-10.787-3.018-3.347-2.088-7.675-1.147-8.956-.635a11.579,11.579,0,0,1-2.918.5,17.181,17.181,0,0,0-4.654.893,3.307,3.307,0,0,0-1.939,2.079A8.3,8.3,0,0,0,51,265.083c-2.51-.278-7.02-.209-7.891,5.018-1.245,7.467,13.465,16.821,23.625,21.3a212.269,212.269,0,0,0,8.847,26.419,63.017,63.017,0,0,0-12.659-11.637c-5.316-3.452-9.95-6.171-13.673-8.357A80.494,80.494,0,0,1,41.1,292.7a2.027,2.027,0,0,0-2.08-.473,1.766,1.766,0,0,0-1.1,1.414c-.453,3.022,9.583,19.849,18.564,26.931,9.312,7.341,21.688,9.958,24.978,10.548a167.1,167.1,0,0,0,18.664,30.5,1.6,1.6,0,1,0,2.516-1.978C99.732,355.941,97.037,352.086,94.548,348.174ZM89.439,322c.285-4.836.45-11.054.6-16.539.073-2.765.145-5.455.225-7.662,2.523,5.535,6.094,15.339,5.97,22.262-.126,7.066-2.162,16.684-3.585,22.6C91.1,337.055,89.081,328.1,89.439,322Zm-30.974-3.947c-6.456-5.091-12.852-14.894-15.757-20.4,1.387.857,3.029,1.821,4.922,2.932,3.7,2.169,8.295,4.868,13.55,8.28,7.367,4.783,14.324,13.661,17.756,18.433C74,326.1,65.232,323.391,58.465,318.055ZM77.684,263c.958,1.578-.589,7.992-6.253,18.147a90.685,90.685,0,0,0,1.829-15.181,10.08,10.08,0,0,0-1.2-5.11A4.678,4.678,0,0,1,77.684,263Zm-23.431-.936a14.521,14.521,0,0,1,3.8-.693,13.64,13.64,0,0,0,3.808-.713,8.508,8.508,0,0,1,2.793-.439,6.126,6.126,0,0,1,3.419.9c1.317.892,1.984,2.523,1.984,4.849,0,6.187-1.971,15.895-3.055,20.766a115.99,115.99,0,0,1-9.337-12.964,32.177,32.177,0,0,1-3.1-7.277c-.011-.046-.021-.091-.035-.136C53.894,263.961,53.92,262.393,54.253,262.067Zm-7.986,8.559c.417-2.5,2.191-2.72,5.316-2.237l.229.034a38.075,38.075,0,0,0,3.072,6.926,100.2,100.2,0,0,0,7.031,10.11C52.623,280.356,45.7,274.037,46.267,270.626Z" style="fill:#231f20"/></svg>