<svg id="Layer_1" data-name="Layer 1" xmlns="http://www.w3.org/2000/svg" viewBox="0 0 500 500"><path d="M447.136,243a7.724,7.724,0,0,0,4.155-1.18c1.483-.921,2.412-2.829,2.617-5.37a17.919,17.919,0,0,0-6.291-14.328c-4.219-3.68-12.278-8.5-14.586-9.857q-.417-2.021-.879-4.024c3.742,2.571,9.493,5.607,13.554,3.5a4.251,4.251,0,0,0,2.275-3.392c.449-3.761-2.823-9.185-8.54-14.155a74.6,74.6,0,0,0-14.5-9.849q-.7-1.869-1.444-3.721c4.833,2.112,8.9.928,11-1.578,2.175-2.59,2.4-6.95-1.39-10.275-5.061-4.446-21.955-15.129-23.762-16.268q-1.77-2.883-3.644-5.693c.691.289,1.414.574,2.172.838,5.914,2.061,10.332,1.855,13.128-.621a7.959,7.959,0,0,0,2.343-6.892c-.51-5.088-4.411-10.095-10.7-13.738-10.128-5.864-28.1-8.525-31.051-8.932q-4.1-4.069-8.445-7.881c4.385-.256,11.974-1.594,13.4-7.7.4-1.7-.295-3.7-1.946-5.647a17.915,17.915,0,0,0-14.582-5.685c-5.668.387-14.969,2.74-17.4,3.374q-1.719-1.134-3.465-2.232c4.472-.817,10.779-2.733,12.175-7.128a4.252,4.252,0,0,0-.791-4.008c-2.342-2.978-8.487-4.5-16.047-3.969a74.634,74.634,0,0,0-17.228,3.29c-1.209-.551-2.426-1.085-3.648-1.611,4.915-1.924,6.957-5.636,6.672-8.9-.294-3.367-3.2-6.61-8.248-6.28-6.606.428-25.539,4.673-28.173,5.268-2.185-.528-4.382-1.026-6.6-1.476.65-.27,1.315-.559,1.99-.885,5.642-2.725,8.618-6,8.843-9.721a7.952,7.952,0,0,0-3.216-6.531c-3.959-3.238-10.258-4.018-17.283-2.145-11.145,2.97-25.471,13.524-28.154,15.551-3.891.011-7.751.15-11.583.4,2.919-3.3,7.231-9.55,3.947-14.834-.921-1.482-2.827-2.411-5.367-2.616a17.878,17.878,0,0,0-14.332,6.291c-3.679,4.217-8.5,12.276-9.855,14.585q-2.02.415-4.025.878c2.571-3.742,5.607-9.492,3.5-13.552a4.252,4.252,0,0,0-3.393-2.275c-3.772-.457-9.185,2.823-14.155,8.539a74.782,74.782,0,0,0-9.849,14.5q-1.869.7-3.721,1.444c2.11-4.832.929-8.9-1.578-11-2.59-2.176-6.949-2.394-10.275,1.39-4.446,5.061-15.129,21.955-16.268,23.762q-2.881,1.77-5.692,3.644c.288-.691.574-1.414.837-2.171,2.063-5.918,1.854-10.335-.621-13.129a7.966,7.966,0,0,0-6.889-2.343c-5.088.51-10.1,4.411-13.74,10.7-5.863,10.126-8.525,28.1-8.931,31.049q-4.071,4.1-7.882,8.446c-.256-4.384-1.595-11.973-7.706-13.4-1.7-.4-3.7.293-5.645,1.945a17.917,17.917,0,0,0-5.687,14.583c.388,5.665,2.74,14.962,3.375,17.395q-1.134,1.719-2.233,3.465c-.817-4.471-2.733-10.777-7.127-12.172a4.254,4.254,0,0,0-4.008.789c-2.976,2.342-4.5,8.49-3.971,16.048a74.715,74.715,0,0,0,3.291,17.228q-.827,1.814-1.612,3.648c-1.926-4.916-5.651-6.958-8.9-6.671-3.368.294-6.607,3.222-6.281,8.248.428,6.606,4.672,25.536,5.268,28.172-.528,2.186-1.026,4.383-1.476,6.6-.27-.651-.559-1.316-.885-1.991-2.725-5.642-6-8.617-9.721-8.842a7.881,7.881,0,0,0-6.529,3.214c-3.238,3.958-4.02,10.258-2.146,17.284,2.97,11.143,13.521,25.466,15.55,28.152.011,3.891.15,7.752.4,11.585-3.3-2.919-9.547-7.23-14.834-3.946-1.481.921-2.41,2.826-2.615,5.365a17.914,17.914,0,0,0,6.29,14.334c4.216,3.677,12.275,8.5,14.585,9.854q.415,2.021.878,4.024c-3.741-2.571-9.488-5.608-13.551-3.5a4.252,4.252,0,0,0-2.276,3.392c-.45,3.76,2.822,9.185,8.539,14.158a74.767,74.767,0,0,0,14.5,9.847q.7,1.869,1.444,3.721c-4.832-2.11-8.9-.928-11,1.579-2.174,2.59-2.393,6.95,1.392,10.274,5.059,4.445,21.947,15.124,23.761,16.267q1.77,2.883,3.644,5.694c-.691-.289-1.414-.574-2.171-.838-5.919-2.062-10.335-1.853-13.128.621a7.955,7.955,0,0,0-2.343,6.89c.51,5.088,4.411,10.095,10.7,13.739,10.124,5.863,28.089,8.524,31.048,8.931q4.1,4.071,8.446,7.883c-4.385.256-11.973,1.595-13.4,7.706-.4,1.7.3,3.7,1.946,5.645a17.8,17.8,0,0,0,13.275,5.73q.644,0,1.308-.044c5.667-.387,14.965-2.739,17.4-3.374q1.719,1.135,3.465,2.233c-4.472.817-10.779,2.732-12.174,7.127a4.253,4.253,0,0,0,.79,4.006c2.035,2.587,6.943,4.076,13.153,4.076.937,0,1.905-.035,2.895-.1a74.639,74.639,0,0,0,17.226-3.291c1.209.551,2.426,1.085,3.648,1.611-4.913,1.923-6.954,5.634-6.669,8.9.279,3.212,2.952,6.305,7.556,6.305.225,0,.456-.006.691-.022,6.6-.428,25.517-4.67,28.168-5.27,2.187.528,4.385,1.027,6.6,1.477-.65.27-1.315.558-1.989.884-5.642,2.725-8.618,6-8.843,9.722a7.959,7.959,0,0,0,3.219,6.533,15.733,15.733,0,0,0,10.1,3.143,28.011,28.011,0,0,0,7.184-1c11.148-2.972,25.479-13.529,28.156-15.551,3.89-.011,7.75-.15,11.581-.4-2.919,3.3-7.232,9.551-3.947,14.834.922,1.482,2.829,2.412,5.37,2.616q.474.039.993.039a18.159,18.159,0,0,0,13.336-6.329c3.679-4.219,8.5-12.277,9.856-14.586q2.02-.417,4.024-.879c-2.571,3.743-5.607,9.493-3.5,13.554a4.25,4.25,0,0,0,3.392,2.274,5.819,5.819,0,0,0,.7.041c3.716,0,8.784-3.212,13.45-8.58a74.6,74.6,0,0,0,9.849-14.5q1.869-.7,3.721-1.444c-2.11,4.831-.929,8.9,1.579,11a6.726,6.726,0,0,0,4.318,1.561,7.919,7.919,0,0,0,5.956-2.951c4.445-5.061,15.124-21.948,16.267-23.762q2.883-1.77,5.694-3.644c-.288.691-.574,1.414-.838,2.171-2.063,5.917-1.854,10.334.621,13.128a7.657,7.657,0,0,0,5.848,2.395,10.3,10.3,0,0,0,1.045-.053c5.087-.51,10.094-4.41,13.737-10.7,5.864-10.129,8.527-28.1,8.933-31.051q4.07-4.1,7.88-8.445c.256,4.385,1.594,11.975,7.706,13.4a4.319,4.319,0,0,0,.968.108,7.5,7.5,0,0,0,4.68-2.055,17.921,17.921,0,0,0,5.683-14.582c-.387-5.667-2.739-14.967-3.374-17.4q1.134-1.719,2.233-3.465c.816,4.472,2.733,10.779,7.128,12.174a4.211,4.211,0,0,0,1.28.2,4.387,4.387,0,0,0,2.727-.991c2.977-2.343,4.5-8.491,3.97-16.047a74.627,74.627,0,0,0-3.291-17.228c.551-1.207,1.084-2.424,1.61-3.645,1.806,4.615,5.191,6.694,8.3,6.694.2,0,.4-.008.6-.026,3.369-.294,6.608-3.221,6.282-8.247-.427-6.6-4.671-25.528-5.27-28.171.528-2.187,1.027-4.384,1.477-6.6.27.65.559,1.315.885,1.99,2.725,5.642,6,8.618,9.721,8.843a7.956,7.956,0,0,0,6.532-3.216c3.236-3.958,4.018-10.257,2.144-17.282-2.972-11.146-13.527-25.475-15.551-28.156-.011-3.89-.15-7.751-.4-11.583C438.921,240.046,443.017,243,447.136,243Zm-18.607,50.156c-2.613,2.534-8.166,8.177-12.9,13.785-9.5,11.259-9.388,14.855-8.233,16.729a4.382,4.382,0,0,0,3.154,2.083c2.377.366,5.364-.982,7.85-2.5-.433.992-.87,1.983-1.32,2.965-8.817,5.521-22.554,15.181-19.813,20.26a4.826,4.826,0,0,0,3.214,2.482,8.517,8.517,0,0,0,4.416-.38c-.561.878-1.136,1.747-1.711,2.615a112.744,112.744,0,0,0-10.793,4.823c-8.281,4.3-11.907,7.917-11.41,11.39a5.686,5.686,0,0,0,2.742,4.364,6.824,6.824,0,0,0,2.9.832q-2.964,3.3-6.082,6.453c-2.576-.99-9.358-2.907-22.123-2.257-10.617.54-24.412,4.356-29.61,11.461a9.281,9.281,0,0,0-1.7,8.028c1.271,4.842,6.924,7.353,16.8,7.461,2.42.024,4.774-.1,6.834-.266q-2.539,1.672-5.133,3.269c-3.689-.054-11.521.017-18.76.632-14.675,1.246-17.141,3.865-17.65,6.007a4.38,4.38,0,0,0,.758,3.7c1.428,1.948,4.514,3.108,7.354,3.792-1.008.4-2.025.779-3.042,1.16-10.137-2.331-26.707-5.225-28.361.31a4.822,4.822,0,0,0,.519,4.028,8.58,8.58,0,0,0,3.476,2.9c-1,.223-2,.449-3.007.655a112.539,112.539,0,0,0-11.179-4.283c-8.9-2.816-14.018-2.821-16.124-.012a5.681,5.681,0,0,0-1.146,5.023,6.891,6.891,0,0,0,1.533,2.723q-4.422.239-8.9.261c-1.083-2.469-4.494-8.665-14.085-17.326-7.889-7.125-20.343-14.173-29.042-12.833a9.278,9.278,0,0,0-6.874,4.479c-2.526,4.321-.3,10.093,6.605,17.156,1.736,1.775,3.542,3.4,5.154,4.76-2.014-.416-4.011-.874-6-1.355-2.534-2.612-8.178-8.165-13.787-12.9-11.257-9.5-14.854-9.389-16.729-8.233a4.385,4.385,0,0,0-2.082,3.155c-.366,2.377.982,5.364,2.5,7.85-.992-.434-1.982-.87-2.964-1.32-5.521-8.817-15.183-22.551-20.261-19.815a4.83,4.83,0,0,0-2.482,3.215,8.5,8.5,0,0,0,.379,4.416c-.878-.56-1.746-1.135-2.614-1.71a112.418,112.418,0,0,0-4.823-10.8c-4.3-8.279-7.9-11.9-11.392-11.41a5.688,5.688,0,0,0-4.363,2.742,6.848,6.848,0,0,0-.833,2.9q-3.3-2.964-6.452-6.081c.989-2.575,2.907-9.356,2.256-22.125-.538-10.615-4.353-24.408-11.458-29.608a9.291,9.291,0,0,0-8.03-1.7c-4.842,1.271-7.353,6.924-7.461,16.8-.026,2.415.095,4.771.265,6.833-1.115-1.693-2.209-3.4-3.268-5.131.053-3.688-.017-11.522-.631-18.76-1.246-14.675-3.865-17.141-6.007-17.65a4.374,4.374,0,0,0-3.7.757c-1.949,1.427-3.109,4.515-3.793,7.356-.4-1.009-.779-2.026-1.16-3.043,2.332-10.137,5.223-26.707-.311-28.361a4.832,4.832,0,0,0-4.028.518,8.57,8.57,0,0,0-2.9,3.476c-.223-1-.449-2-.655-3.007a112.436,112.436,0,0,0,4.283-11.179c2.816-8.894,2.821-14.017.012-16.122a5.671,5.671,0,0,0-5.023-1.148,6.888,6.888,0,0,0-2.723,1.534q-.239-4.424-.261-8.9c2.466-1.083,8.662-4.493,17.326-14.086,7.125-7.889,14.18-20.341,12.833-29.04a9.276,9.276,0,0,0-4.478-6.875c-4.322-2.528-10.094-.306-17.158,6.6-1.774,1.737-3.4,3.542-4.758,5.154.415-2.014.874-4.011,1.354-6,2.615-2.536,8.17-8.183,12.9-13.785,9.5-11.259,9.389-14.854,8.234-16.728a4.384,4.384,0,0,0-3.154-2.084c-2.371-.363-5.364.987-7.853,2.5.434-.994.871-1.986,1.322-2.97,8.818-5.521,22.555-15.182,19.814-20.26a4.83,4.83,0,0,0-3.215-2.482,8.493,8.493,0,0,0-4.416.38c.561-.879,1.136-1.747,1.711-2.615a112.776,112.776,0,0,0,10.794-4.824c8.281-4.3,11.906-7.917,11.409-11.39a5.687,5.687,0,0,0-2.74-4.364,6.848,6.848,0,0,0-2.9-.833q2.964-3.3,6.082-6.453c2.213.851,7.536,2.39,17.113,2.39,1.556,0,3.226-.041,5.01-.132,10.616-.539,24.41-4.355,29.609-11.46a9.278,9.278,0,0,0,1.7-8.028c-1.27-4.842-6.923-7.353-16.8-7.461-2.415-.017-4.776.1-6.842.271q2.544-1.675,5.142-3.275c.62.008,1.354.014,2.185.014,4.118,0,10.554-.134,16.573-.645,14.676-1.245,17.142-3.864,17.65-6.007a4.379,4.379,0,0,0-.757-3.7c-1.427-1.948-4.514-3.109-7.354-3.792,1.009-.4,2.027-.78,3.045-1.162,5.836,1.343,13.789,2.871,19.82,2.871,4.444,0,7.835-.831,8.537-3.18a4.826,4.826,0,0,0-.518-4.028,8.57,8.57,0,0,0-3.476-2.9c1-.223,2-.449,3.009-.656a112.231,112.231,0,0,0,11.177,4.283,37.3,37.3,0,0,0,10.62,2.116c2.648,0,4.452-.7,5.5-2.1a5.682,5.682,0,0,0,1.147-5.023,6.9,6.9,0,0,0-1.533-2.724q4.422-.237,8.9-.26c1.082,2.467,4.493,8.663,14.085,17.325,7.23,6.529,18.291,13,26.785,13a14.812,14.812,0,0,0,2.256-.167,9.279,9.279,0,0,0,6.876-4.478c2.526-4.322.3-10.095-6.606-17.158-1.736-1.774-3.541-3.4-5.152-4.758,2.013.415,4.01.874,6,1.355,2.534,2.613,8.179,8.166,13.785,12.895,8.276,6.982,12.412,8.772,14.766,8.772a3.6,3.6,0,0,0,1.962-.538,4.379,4.379,0,0,0,2.083-3.155c.366-2.377-.982-5.365-2.5-7.85.992.433,1.982.87,2.965,1.32,5.034,8.04,13.51,20.17,18.816,20.168a3,3,0,0,0,1.445-.354,4.825,4.825,0,0,0,2.481-3.215,8.5,8.5,0,0,0-.378-4.415c.878.561,1.746,1.136,2.614,1.711a112.272,112.272,0,0,0,4.823,10.792c4.039,7.784,7.479,11.455,10.763,11.455a4.387,4.387,0,0,0,.627-.045,5.688,5.688,0,0,0,4.364-2.741,6.832,6.832,0,0,0,.832-2.895q3.3,2.964,6.453,6.081c-.989,2.577-2.908,9.358-2.257,22.123.54,10.618,4.356,24.413,11.461,29.611a9.645,9.645,0,0,0,5.735,2,9.041,9.041,0,0,0,2.292-.3c4.842-1.271,7.353-6.924,7.461-16.8.026-2.415-.1-4.771-.265-6.833q1.672,2.54,3.269,5.133c-.053,3.689.017,11.522.631,18.758,1.246,14.676,3.865,17.142,6.007,17.65a4.635,4.635,0,0,0,1.074.129,4.4,4.4,0,0,0,2.629-.886c1.948-1.428,3.108-4.515,3.792-7.355.4,1.008.779,2.025,1.16,3.042-2.332,10.137-5.223,26.706.311,28.361a5.184,5.184,0,0,0,1.479.223,4.786,4.786,0,0,0,2.55-.742,8.586,8.586,0,0,0,2.9-3.474c.222,1,.448,2,.654,3.007a112.613,112.613,0,0,0-4.282,11.178c-2.817,8.894-2.821,14.017-.012,16.122a5.683,5.683,0,0,0,5.022,1.148,6.874,6.874,0,0,0,2.723-1.534q.238,4.424.261,8.9c-2.468,1.083-8.663,4.494-17.325,14.085-7.126,7.89-14.18,20.343-12.834,29.042a9.283,9.283,0,0,0,4.479,6.876,7.321,7.321,0,0,0,3.76,1.008c3.729,0,8.216-2.546,13.4-7.615,1.774-1.736,3.4-3.541,4.759-5.153C429.468,289.167,429.01,291.164,428.529,293.153Z" style="fill:#231f20"/></svg>