<svg id="Layer_1" data-name="Layer 1" xmlns="http://www.w3.org/2000/svg" viewBox="0 0 500 500"><path d="M44.79,234.359a22.734,22.734,0,0,0,13.806,4.86,20.444,20.444,0,0,0,4.89-.588q-.255,4.194-.326,8.428a1.6,1.6,0,0,0,1.575,1.624h.025a1.6,1.6,0,0,0,1.6-1.576q.056-3.546.251-7.065a14.555,14.555,0,0,0,8.443,2.277,29.359,29.359,0,0,0,6.481-.793c13.327-3.023,27.493-23.382,28.09-24.248l.01-.017a1.721,1.721,0,0,0,.1-.184c.015-.032.035-.062.049-.095a1.683,1.683,0,0,0,.063-.205c.009-.034.023-.066.029-.1a1.487,1.487,0,0,0,.016-.165c.005-.053.014-.1.014-.159v-.008a1.561,1.561,0,0,0-.024-.207c-.005-.034,0-.067-.01-.1l0,0a1.6,1.6,0,0,0-.253-.581c-.019-.026-.042-.049-.063-.074a1.543,1.543,0,0,0-.141-.162c-.029-.029-.064-.051-.095-.078-.05-.04-.1-.081-.153-.116-.009,0-.015-.013-.024-.018-.357-.219-8.938-5.278-25.21.766a33.876,33.876,0,0,0-16.286,12.32,182.383,182.383,0,0,1,3.509-19.838A17.526,17.526,0,0,0,81.7,211.472a27.5,27.5,0,0,0,8.033-1.292c13.731-4.194,24.43-19.944,24.878-20.613.012-.017.017-.038.028-.056a1.622,1.622,0,0,0,.131-.264c.013-.034.026-.067.037-.1a1.548,1.548,0,0,0,.067-.337c0-.009,0-.018.005-.027a1.614,1.614,0,0,0-.023-.373c-.006-.033-.016-.066-.024-.1a1.521,1.521,0,0,0-.089-.267c-.01-.023-.012-.047-.023-.068s-.02-.028-.028-.043-.018-.045-.031-.067a1.552,1.552,0,0,0-.143-.195c-.014-.017-.025-.037-.039-.054a1.594,1.594,0,0,0-.28-.247c-.026-.018-.054-.032-.082-.049a1.618,1.618,0,0,0-.253-.127c-.035-.013-.069-.026-.105-.037a1.563,1.563,0,0,0-.338-.07l-.026,0h-.018c-.863-.061-17.415-1.147-28.212,2.884a30.36,30.36,0,0,0-11.1,7.383,183.3,183.3,0,0,1,6.665-18.519c2.411,2.252,7.363,5.368,16.387,5.368.19,0,.383,0,.578,0,18.069-.262,28.545-17.127,28.982-17.844,0-.007.005-.014.009-.021a1.588,1.588,0,0,0,.145-.32c.007-.022.01-.045.016-.067a1.6,1.6,0,0,0,.052-.276c0-.039,0-.077,0-.116a1.436,1.436,0,0,0-.012-.236c-.005-.042-.012-.084-.02-.126a1.554,1.554,0,0,0-.068-.224c-.01-.028-.013-.059-.026-.087,0-.012-.014-.022-.02-.034s-.009-.028-.016-.042a1.566,1.566,0,0,0-.129-.2c-.013-.019-.023-.04-.037-.058a1.537,1.537,0,0,0-.248-.255c-.019-.016-.04-.027-.06-.042a1.609,1.609,0,0,0-.236-.148c-.032-.017-.065-.029-.1-.044a1.7,1.7,0,0,0-.244-.081c-.021,0-.039-.016-.06-.02-.692-.139-17.065-3.411-26.937-1.346-5.147,1.077-10.07,4.117-13.707,6.88A184.76,184.76,0,0,1,97.34,148a21.889,21.889,0,0,0,14.12,8.456,30.133,30.133,0,0,0,4,.259c14.792,0,29.872-9.947,30.563-10.407.044-.03.079-.071.12-.105a1.478,1.478,0,0,0,.147-.126c.034-.036.062-.077.093-.116a1.56,1.56,0,0,0,.124-.174c.023-.04.042-.08.062-.121a1.479,1.479,0,0,0,.083-.21c.014-.043.027-.086.037-.13.006-.025.016-.047.021-.072a1.657,1.657,0,0,0,.012-.171c0-.03.012-.057.012-.087,0-.01,0-.019,0-.029a1.594,1.594,0,0,0-.039-.354c0-.01-.007-.019-.01-.029a1.572,1.572,0,0,0-.111-.3c-.016-.034-.037-.066-.056-.1a1.492,1.492,0,0,0-.135-.2c-.025-.032-.051-.063-.079-.093a1.468,1.468,0,0,0-.194-.175c-.018-.015-.033-.034-.052-.048l-.052-.036h0c-18.078-12.7-33.595-8.855-42.31-4.549A185,185,0,0,1,119.234,121.1c2,3,6.944,8.332,17.509,10.036a38.158,38.158,0,0,0,6.058.465,59.934,59.934,0,0,0,21.81-4.627c.01-.005.017-.014.027-.018a1.622,1.622,0,0,0,.435-.3c.008-.008.014-.018.022-.026a1.585,1.585,0,0,0,.3-.413l.012-.02a1.589,1.589,0,0,0,.136-.477c0-.026.009-.05.011-.076s.008-.039.009-.059a1.573,1.573,0,0,0-.046-.436c0-.014,0-.028,0-.042-.082-.318-2.167-7.853-15.635-12.478-7.74-2.657-16.733-.865-23.045,1.169A183.742,183.742,0,0,1,145.861,98.7c.884,3.036,3.571,8.055,11.66,12.906a30.873,30.873,0,0,0,16,4.164,39.923,39.923,0,0,0,12.557-2.01,1.587,1.587,0,0,0,.361-.194c.03-.021.056-.044.084-.066a1.573,1.573,0,0,0,.269-.272c.016-.021.035-.038.05-.06a1.629,1.629,0,0,0,.176-.32c.011-.029.015-.06.025-.089s.016-.028.02-.043c.011-.034.012-.069.02-.1.012-.051.023-.1.03-.152a1.553,1.553,0,0,0,.011-.18c0-.047,0-.094,0-.141a1.67,1.67,0,0,0-.028-.188c-.009-.043-.015-.087-.027-.13a1.577,1.577,0,0,0-.071-.188c-.013-.031-.02-.064-.035-.094-8.9-17.79-21.809-20.324-30.68-19.523a182.022,182.022,0,0,1,17.222-9.038,32.869,32.869,0,0,0,15.356,17,29.354,29.354,0,0,0,13.086,2.774,43.57,43.57,0,0,0,11.459-1.547c.007,0,.012-.007.019-.009a1.482,1.482,0,0,0,.2-.1.861.861,0,0,0,.388-.26,1.752,1.752,0,0,0,.438-.655c.007-.021.022-.036.028-.057a1.591,1.591,0,0,0,.06-.337l0-.012c.02-.312.373-7.751-11.528-15.813-6.011-4.071-13.287-5.24-19.039-5.4a182.684,182.684,0,0,1,19.609-6.31c2,1.386,8.353,5.16,18.358,5.16,1.263,0,2.587-.061,3.966-.193,7.675-.743,20.9-9.19,20.771-12.4a1.755,1.755,0,0,0-1.54-1.665c-.156-.034-.319-.06-.477-.092-.47-.155-1.336-.555-2.122-.919-3.762-1.74-10.759-4.972-19.828-4.3-11.128.84-18.114,9.109-19.75,11.256a185.987,185.987,0,0,0-18.815,5.961c5.761-6.354,11.353-17.164,6.744-33.361l-.006-.016c-.011-.036-.028-.069-.041-.1a1.49,1.49,0,0,0-.073-.179c-.016-.03-.037-.057-.054-.086a1.52,1.52,0,0,0-.113-.17c-.022-.028-.048-.052-.072-.078a1.464,1.464,0,0,0-.142-.142c-.011-.009-.018-.02-.029-.029s-.046-.029-.069-.045a1.518,1.518,0,0,0-.151-.1c-.04-.023-.081-.043-.123-.062a1.471,1.471,0,0,0-.148-.059c-.046-.016-.092-.03-.139-.042s-.1-.021-.151-.028-.1-.013-.146-.016-.1,0-.152,0-.1.006-.151.013c-.02,0-.039,0-.058,0-.162.029-16.2,3.056-19.175,19.493-2.035,11.263.322,17.367,2.03,20.115A185.6,185.6,0,0,0,152.45,90.6c4.588-8.412,10-24.009-.39-40.085l-.006-.01-.007-.012c-.02-.03-.045-.054-.067-.083a1.407,1.407,0,0,0-.123-.154c-.031-.033-.067-.059-.1-.088a1.539,1.539,0,0,0-.138-.116,1.4,1.4,0,0,0-.125-.072,1.639,1.639,0,0,0-.148-.082c-.052-.022-.107-.036-.161-.053s-.083-.033-.128-.043l-.016,0-.016-.005c-.05-.01-.1-.01-.15-.015s-.1-.015-.155-.016-.1.008-.144.012a1.345,1.345,0,0,0-.168.016,1.6,1.6,0,0,0-.16.045c-.045.013-.092.023-.136.04s-.1.049-.145.074a1.442,1.442,0,0,0-.134.072l-.021.011a30.983,30.983,0,0,0-12.618,24.754c0,12.1,4.6,18.413,7.216,21.03a187.056,187.056,0,0,0-16.9,13.11,34.877,34.877,0,0,0,3-15.571c-.7-15.107-8.517-22.221-8.85-22.517-.011-.01-.026-.014-.038-.024a1.589,1.589,0,0,0-.4-.248l-.025-.013a1.563,1.563,0,0,0-.323-.094c-.043-.008-.085-.006-.127-.01s-.063-.006-.095-.007a1.575,1.575,0,0,0-.456.046c-.018,0-.035.012-.053.017a1.617,1.617,0,0,0-.44.2l-.012.006-.009.006-.006,0c-.544.375-10.112,7.24-10.344,24.486-.181,13.528,5.323,20.68,7.951,23.316a188.145,188.145,0,0,0-15.05,17.207,45.665,45.665,0,0,0-.3-17.624c-3.541-17.341-14.916-19.9-15.4-20-.015,0-.03,0-.045,0a1.578,1.578,0,0,0-.5-.015c-.017,0-.033.009-.051.012a1.594,1.594,0,0,0-.242.055,1.72,1.72,0,0,0-.19.086c-.022.011-.044.018-.066.03a1.574,1.574,0,0,0-.375.29c-.02.021-.039.04-.058.062a1.612,1.612,0,0,0-.26.409c0,.01-.013.017-.018.027-.3.713-7.148,17.64-.9,32.684,4.062,9.777,8.285,13.181,10.928,14.353a187.857,187.857,0,0,0-11.4,19.459c.558-6.387.48-14.312-2.233-19.779-5.19-10.463-17.954-14.44-18.495-14.6-.021-.007-.043-.007-.065-.013a1.5,1.5,0,0,0-.2-.038c-.038,0-.076-.008-.114-.01a1.588,1.588,0,0,0-.2,0c-.047,0-.092.009-.138.016s-.065,0-.1.012-.049.017-.074.024a1.424,1.424,0,0,0-.144.047,1.558,1.558,0,0,0-.156.067c-.021.011-.043.016-.063.028s-.043.032-.066.046a1.549,1.549,0,0,0-.141.1,1.358,1.358,0,0,0-.108.093,1.529,1.529,0,0,0-.117.124,1.219,1.219,0,0,0-.088.113,1.634,1.634,0,0,0-.09.143,1.282,1.282,0,0,0-.065.128,1.5,1.5,0,0,0-.061.162c-.009.028-.023.054-.031.083-.2.785-4.936,19.326,2.894,30.681C68.583,172.371,75,175.71,78.1,176.83q-3,7.02-5.424,14.3a21.952,21.952,0,0,0-4.668-10.142c-8.263-9.946-21.927-13.854-22.5-14.016-.013,0-.028,0-.042-.007a1.592,1.592,0,0,0-.268-.042c-.025,0-.049-.008-.074-.009a1.574,1.574,0,0,0-.348.029c-.025,0-.048.014-.072.02a1.642,1.642,0,0,0-.222.064c-.015.006-.027.016-.042.022-.034.015-.066.035-.1.052a1.762,1.762,0,0,0-.209.127c-.014.011-.031.017-.044.028s-.032.033-.049.048a1.665,1.665,0,0,0-.168.168c-.026.03-.052.06-.075.091a1.607,1.607,0,0,0-.13.212c-.015.029-.034.056-.047.086a1.616,1.616,0,0,0-.107.326c0,.018,0,.037-.006.055a1.505,1.505,0,0,0-.024.293c0,.012,0,.024,0,.036.035.952.947,23.418,9.17,30.7,6.742,5.973,12.544,7.3,15.564,7.537q-1.8,7.557-2.975,15.316a28.579,28.579,0,0,0-9.415-13.306c-13.157-10.387-22.749-9.673-23.154-9.635-.039,0-.074.015-.112.02s-.094.016-.141.027a1.554,1.554,0,0,0-.167.055c-.041.015-.083.031-.123.05a1.7,1.7,0,0,0-.157.087c-.037.024-.074.046-.11.073a1.56,1.56,0,0,0-.138.118c-.024.023-.051.04-.073.064s-.015.021-.024.03c-.04.045-.074.093-.109.141s-.055.073-.078.112a1.563,1.563,0,0,0-.073.148c-.02.044-.043.086-.059.131a1.29,1.29,0,0,0-.04.151,1.338,1.338,0,0,0-.035.149c-.007.046-.007.093-.01.141a1.685,1.685,0,0,0,0,.174.291.291,0,0,0,0,.03C31.276,201.89,32.991,225.522,44.79,234.359Zm1.918-2.56c-7.777-5.825-10.754-19.682-11.8-26.777,6.915,6.7,23.024,22.647,28,30.459C59.981,236.249,53.625,236.978,46.708,231.8Zm34.118,6.606c-8.027,1.823-11.72-.221-13.227-1.632,5.539-3.5,25.521-15.795,37.185-18.335C100.37,224.156,90.074,236.307,80.826,238.405Zm4.219-19.634c6.925-2.574,12.283-2.955,16.029-2.639-10.682,3.277-25.034,11.654-32.226,16.082A30.47,30.47,0,0,1,85.045,218.771ZM88.8,207.119c-7.7,2.353-12.558.619-15.117-1a149.644,149.644,0,0,0,33.4-12.22C102.833,198.67,96.2,204.859,88.8,207.119Zm-2.513-14.158c6.428-2.4,15.36-2.849,21.133-2.847A146.321,146.321,0,0,1,73.609,202.85,28.685,28.685,0,0,1,86.288,192.961Zm11.361-11.97c-7.559.107-11.849-2.117-14.06-3.894,6.953-.668,23.511-2.691,36.647-7.648C115.948,174.209,108.116,180.839,97.649,180.991Zm1.7-15.26c5.951-1.246,14.817-.336,20.413.476-11.9,4.612-27.345,6.725-34.973,7.541C88.2,170.878,93.731,166.907,99.348,165.731Zm12.537-12.45c-6.116-.819-10.146-4.892-12.013-7.258,12.808-3.3,32-1.3,40.572-.136C134.484,149.158,122.507,154.705,111.885,153.281Zm25.573-11.019c-8.085-.971-20.916-2-31.879-.569C112.507,138.389,123.9,135.585,137.458,142.262Zm-.206-14.283c-7.07-1.14-11.226-4.025-13.558-6.43,9.611,2.8,23.416,4.3,32.1,5.012C150.76,127.891,143.872,129.049,137.252,127.979Zm11.585-12.315c7.345,2.522,10.812,5.906,12.38,8.083-7.089-.47-25.911-1.991-37.309-5.471C129.431,116.086,140.246,112.711,148.837,115.664Zm10.33-6.8c-5.744-3.444-8.354-6.87-9.543-9.311,8.757,5.144,22.371,9.986,29.938,12.484C174.36,112.87,166.279,113.126,159.167,108.862Zm23.036.664c-7.16-2.327-22.758-7.714-31.712-13.188C156.613,94.381,171.569,91.938,182.2,109.526Zm8.091-12.408a29.079,29.079,0,0,1-12.194-12,156.833,156.833,0,0,0,28.482,14.133C202.043,99.781,195.667,99.8,190.294,97.118Zm20.566.224c-13.647-4.46-26-11.712-31.883-15.449,5.444-.371,15.037-.159,22.245,4.724C207.67,90.984,210.008,94.977,210.86,97.342Zm14.743-23.3a32.406,32.406,0,0,1-17.883-3.071c6.843-2.107,22.978-6.5,34.362-5.073C238.933,68.553,231.587,73.459,225.6,74.038Zm-2.646-12.991a31.166,31.166,0,0,1,11.787,1.418c-9.282.395-19.335,2.893-25.5,4.691A23.889,23.889,0,0,1,222.957,61.047ZM176.375,77.776A77.657,77.657,0,0,1,188.625,45.9C192.4,64.363,181.613,74.194,176.375,77.776ZM173.05,60.635a20.437,20.437,0,0,1,12.184-15.448,79.982,79.982,0,0,0-11.812,30.626C172.427,72.878,171.711,68.046,173.05,60.635Zm-24.805,30.93c-.754-12.865,1.789-28.428,3.177-35.712C159.083,71.207,152.267,85.317,148.245,91.565Zm-7.851-16.779a27.647,27.647,0,0,1,7.778-19.033c-1.442,7.592-3.887,22.879-3.129,35.9C142.918,88.749,140.394,83.477,140.394,74.786Zm-19.92,39.975c-2.148-13.253.062-31.513,1.157-39.013A33.02,33.02,0,0,1,127.31,93.5C127.754,103.131,123.237,110.933,120.474,114.761Zm-2.218-38.1c-1.11,7.873-2.857,23.671-1.253,36.413-2.2-3.405-4.589-9.117-4.472-17.821C112.657,85.874,115.738,79.951,118.256,76.662ZM98.8,118.751A40.96,40.96,0,0,1,98.113,139c-2.1-13.229-7.063-29.536-9.287-36.48C91.97,104.369,96.759,108.747,98.8,118.751ZM86.792,130.519c-3.874-9.324-2.133-19.773-.575-25.623,2.576,8.2,7.666,25.418,9.2,37.928C93.464,141.691,90.173,138.661,86.792,130.519ZM78.262,147.2c3.334,6.719,2.089,18.289,1.115,24.315-8.458-13.865-13.2-29.754-14.91-36.2C68.285,137,75.061,140.75,78.262,147.2ZM66.29,161.388a1.667,1.667,0,0,0-.1-.158c-4.2-6.035-4.291-14.784-3.667-20.918a143.413,143.413,0,0,0,13.627,32.055C73.31,170.66,69.537,167.434,66.29,161.388Zm-.743,21.648c5.4,6.5,4.579,15.062,3.744,19.2-10.813-10.193-18.264-24.571-21.259-30.993C52.476,172.991,60.315,176.739,65.547,183.036Zm-17.97-5.421c3.665,7.066,9.772,17.237,17.992,25.472a27.179,27.179,0,0,1-10.8-6.2C50.628,193.216,48.576,184.451,47.577,177.615Zm16.166,53.51c-6.5-8.639-20.068-22.075-26.436-28.241,3.727.825,9.572,2.959,16.528,8.451C61.474,217.365,63.37,225.809,63.743,231.125Z" style="fill:#231f20"/><path d="M258.474,81.533c3.023,13.327,23.382,27.494,24.248,28.091l.009.005a1.626,1.626,0,0,0,.382.185l.092.028a1.57,1.57,0,0,0,.424.064h.026a1.483,1.483,0,0,0,.188-.022c.04,0,.08,0,.119-.012l.008,0a1.676,1.676,0,0,0,.291-.094l.012,0a1.57,1.57,0,0,0,.277-.157c.021-.015.039-.034.059-.05a1.667,1.667,0,0,0,.179-.156c.025-.027.045-.057.068-.086a1.584,1.584,0,0,0,.127-.166l.012-.016c.218-.358,5.279-8.939-.766-25.21a33.866,33.866,0,0,0-12.32-16.286,182.612,182.612,0,0,1,19.835,3.508c-2.166,2.964-4.863,8.961-1.924,18.583,4.194,13.731,19.944,24.43,20.612,24.878.016.011.034.014.05.024a1.6,1.6,0,0,0,.284.135c.042.015.08.037.122.049a1.616,1.616,0,0,0,.437.065c.02,0,.041-.008.061-.008a1.52,1.52,0,0,0,.321-.043c.046-.011.089-.032.134-.047a1.5,1.5,0,0,0,.185-.065c.019-.01.033-.025.052-.035s.039-.013.058-.024a1.575,1.575,0,0,0,.207-.152c.013-.011.027-.018.039-.029a1.568,1.568,0,0,0,.251-.284c.017-.024.029-.049.044-.074a1.554,1.554,0,0,0,.131-.261c.013-.034.026-.067.037-.1a1.652,1.652,0,0,0,.069-.334c0-.011,0-.02.006-.031.049-.7,1.17-17.378-2.883-28.229a30.382,30.382,0,0,0-7.383-11.1,183.26,183.26,0,0,1,18.512,6.664c-2.3,2.466-5.493,7.593-5.356,16.966.262,18.065,17.116,28.54,17.843,28.982a1.6,1.6,0,0,0,.834.235c.029,0,.057-.008.086-.01a1.544,1.544,0,0,0,.253-.029c.044-.01.087-.028.13-.041a1.464,1.464,0,0,0,.17-.055c.012,0,.022-.014.033-.019s.03-.009.044-.016a1.618,1.618,0,0,0,.214-.136c.015-.011.032-.018.047-.029a1.613,1.613,0,0,0,.254-.248c.018-.021.031-.045.047-.067a1.486,1.486,0,0,0,.142-.227c.018-.035.032-.071.048-.107a1.561,1.561,0,0,0,.076-.231c.006-.023.018-.044.023-.067.14-.692,3.413-17.065,1.347-26.938-1.078-5.147-4.118-10.071-6.881-13.707A184.547,184.547,0,0,1,352,97.34a21.894,21.894,0,0,0-8.457,14.119c-2.135,15.945,9.647,33.808,10.15,34.561l.01.011a1.6,1.6,0,0,0,.231.269c.022.02.046.035.068.054a1.544,1.544,0,0,0,.219.155c.034.02.068.036.1.054a1.555,1.555,0,0,0,.224.088c.04.013.08.025.121.035s.05.016.076.021a1.767,1.767,0,0,0,.239.021l.019,0h.021c.008,0,.014,0,.022,0a1.624,1.624,0,0,0,.461-.082c.045-.015.087-.031.13-.049a1.57,1.57,0,0,0,.359-.208c.02-.014.041-.024.06-.04a1.614,1.614,0,0,0,.274-.3c12.742-18.1,8.9-33.638,4.587-42.362A185.009,185.009,0,0,1,378.9,119.234c-3,2-8.332,6.944-10.036,17.509-2.164,13.421,3.9,27.286,4.162,27.869.008.018.022.031.031.048a1.566,1.566,0,0,0,.2.309c.014.017.024.035.038.052a1.6,1.6,0,0,0,.3.26.977.977,0,0,0,.088.053,1.563,1.563,0,0,0,.3.138c.028.009.053.021.081.029a1.621,1.621,0,0,0,.351.06h.078c.008,0,.016,0,.025,0a1.546,1.546,0,0,0,.341-.044c.011,0,.023,0,.034,0,.319-.082,7.853-2.168,12.477-15.636,2.659-7.74.866-16.734-1.168-23.046a183.949,183.949,0,0,1,15.1,19.028c-3.036.884-8.055,3.573-12.906,11.663-7.718,12.871-2.383,27.925-2.152,28.56.01.029.028.054.04.082a1.465,1.465,0,0,0,.087.178c.023.039.049.075.075.112a1.616,1.616,0,0,0,.115.147c.031.034.063.066.1.1a1.466,1.466,0,0,0,.142.119c.038.028.077.055.118.08a1.614,1.614,0,0,0,.16.084c.026.012.05.03.077.041s.048.012.072.021.039.018.06.024a.45.45,0,0,0,.051.008,1.6,1.6,0,0,0,.393.058l.017,0c.007,0,.015,0,.022,0a1.576,1.576,0,0,0,.42-.068,1.239,1.239,0,0,0,.133-.048c.046-.018.1-.028.139-.05,17.79-8.9,20.324-21.811,19.524-30.681a182.393,182.393,0,0,1,9.038,17.223,32.871,32.871,0,0,0-17,15.356c-5.308,10.616-1.395,23.983-1.227,24.546l0,.008a1.584,1.584,0,0,0,.185.387c.018.028.035.055.054.081a1.627,1.627,0,0,0,.288.31c.008.007.018.011.027.018a1.579,1.579,0,0,0,.342.2,1,1,0,0,0,.1.039c.028.01.054.026.083.034a1.515,1.515,0,0,0,.2.029,1.484,1.484,0,0,0,.15.034l.1,0h0l.078,0c1.242,0,8.167-.523,15.625-11.534,4.072-6.011,5.241-13.29,5.4-19.042a182.372,182.372,0,0,1,6.311,19.612c-1.559,2.247-6.156,10.03-4.967,22.325.739,7.637,9.1,20.771,12.346,20.771h.049a1.755,1.755,0,0,0,1.665-1.536c.034-.158.06-.323.092-.482.156-.471.555-1.335.918-2.119,1.741-3.763,4.982-10.767,4.3-19.829-.839-11.129-9.108-18.115-11.255-19.751a185.659,185.659,0,0,0-5.962-18.815,31.845,31.845,0,0,0,21.85,8.447,42.032,42.032,0,0,0,11.513-1.7,1.57,1.57,0,0,0,.165-.065c.03-.012.06-.021.089-.035a1.568,1.568,0,0,0,.284-.172l.016-.015a1.581,1.581,0,0,0,.226-.222c.007-.008.016-.014.022-.022s.024-.038.038-.056a1.8,1.8,0,0,0,.112-.171c.02-.035.037-.07.054-.106a1.693,1.693,0,0,0,.067-.166c.014-.041.026-.081.036-.123a1.557,1.557,0,0,0,.032-.168c.006-.044.011-.086.014-.13s0-.111,0-.167,0-.092-.012-.138c0-.021,0-.042,0-.063-.029-.161-3.055-16.206-19.493-19.175-11.264-2.037-17.368.32-20.116,2.029A185.537,185.537,0,0,0,409.4,152.452a43.4,43.4,0,0,0,20.456,5.569,35.612,35.612,0,0,0,19.65-5.973c.03-.019.054-.045.082-.066s.049-.038.073-.058a1.606,1.606,0,0,0,.311-.343c.011-.018.019-.037.03-.055a1.591,1.591,0,0,0,.182-.438c0-.011.011-.019.013-.03l0-.017,0-.016a1.425,1.425,0,0,0,.015-.145c.006-.054.016-.107.017-.16s-.007-.087-.011-.131a1.6,1.6,0,0,0-.017-.183c-.008-.04-.023-.079-.034-.119a1.525,1.525,0,0,0-.054-.178c-.016-.042-.04-.08-.06-.12a1.662,1.662,0,0,0-.084-.156l-.011-.021A30.989,30.989,0,0,0,425.214,137.2c-12.1,0-18.413,4.6-21.03,7.214a187,187,0,0,0-13.109-16.9,35.2,35.2,0,0,0,14.065,3.033q.745,0,1.5-.034c15.106-.7,22.221-8.518,22.517-8.851.036-.041.052-.091.084-.135a1.537,1.537,0,0,0,.135-.216,1.554,1.554,0,0,0,.108-.292c.013-.049.043-.089.052-.14s0-.083.009-.124.006-.067.007-.1a1.551,1.551,0,0,0-.045-.448c0-.022-.014-.042-.021-.064a1.564,1.564,0,0,0-.2-.425c0-.006,0-.013-.009-.02-.283-.413-7.124-10.126-24.5-10.358-13.543-.187-20.685,5.319-23.317,7.949a188.033,188.033,0,0,0-17.21-15.052,42.569,42.569,0,0,0,7.862.721,48.745,48.745,0,0,0,9.765-1.013c17.342-3.541,19.9-14.916,20-15.4,0-.015,0-.029,0-.044a1.567,1.567,0,0,0,.015-.5c0-.014-.007-.028-.01-.042a1.571,1.571,0,0,0-.057-.249,1.6,1.6,0,0,0-.087-.193c-.01-.02-.017-.041-.028-.061a1.558,1.558,0,0,0-.292-.379c-.02-.019-.039-.037-.059-.054a1.609,1.609,0,0,0-.414-.264c-.009,0-.015-.012-.025-.016-.713-.294-17.639-7.147-32.684-.9-9.778,4.061-13.18,8.284-14.352,10.927a187.708,187.708,0,0,0-19.455-11.4c1.9.166,3.946.276,6.018.276,4.875,0,9.922-.608,13.757-2.51,10.462-5.191,14.44-17.955,14.6-18.5.008-.026.009-.053.015-.079a1.653,1.653,0,0,0,.034-.173,1.394,1.394,0,0,0,.012-.145,1.315,1.315,0,0,0,0-.166,1.425,1.425,0,0,0-.019-.16.839.839,0,0,0-.01-.086c0-.023-.015-.044-.022-.067-.014-.054-.032-.1-.051-.157s-.04-.1-.064-.147c-.011-.022-.017-.045-.029-.066s-.033-.045-.047-.069a1.432,1.432,0,0,0-.1-.135c-.031-.04-.063-.077-.1-.113a1.633,1.633,0,0,0-.121-.115c-.037-.031-.073-.06-.112-.088s-.1-.065-.151-.094-.076-.041-.115-.059a1.655,1.655,0,0,0-.182-.068c-.024-.007-.046-.02-.07-.026-.785-.2-19.326-4.933-30.681,2.894C327.629,68.583,324.29,75,323.17,78.1q-7.023-3-14.311-5.427a21.942,21.942,0,0,0,10.149-4.664c9.947-8.264,13.856-21.928,14.017-22.506,0-.013,0-.027.007-.041a1.589,1.589,0,0,0,.042-.275c0-.023.008-.045.008-.068a1.515,1.515,0,0,0-.028-.348c0-.028-.017-.054-.024-.082a1.46,1.46,0,0,0-.061-.212c0-.014-.014-.025-.02-.039-.016-.038-.038-.073-.057-.11a1.653,1.653,0,0,0-.122-.2c-.011-.015-.017-.032-.029-.047s-.034-.032-.05-.05a1.558,1.558,0,0,0-.168-.167c-.029-.025-.057-.05-.087-.072a1.518,1.518,0,0,0-.231-.141c-.021-.011-.041-.025-.063-.035a1.6,1.6,0,0,0-.339-.111h0a1.533,1.533,0,0,0-.339-.029c-.012,0-.023,0-.035,0-.953.034-23.418.947-30.7,9.171-5.977,6.747-7.3,12.546-7.534,15.564q-7.566-1.8-15.333-2.979a28.545,28.545,0,0,0,13.32-9.413c10.387-13.156,9.672-22.752,9.636-23.153,0-.033-.013-.063-.018-.1a1.366,1.366,0,0,0-.032-.167c-.012-.046-.027-.09-.043-.134a1.625,1.625,0,0,0-.067-.162c-.017-.036-.038-.069-.058-.1a1.681,1.681,0,0,0-.111-.168c-.017-.022-.036-.041-.053-.062a1.509,1.509,0,0,0-.112-.128c-.018-.018-.04-.03-.059-.047l-.009-.006a1.582,1.582,0,0,0-.82-.367h-.011a1.677,1.677,0,0,0-.274-.013c-.011,0-.022,0-.033,0-1,.067-24.635,1.783-33.472,13.582-5.815,7.765-5.176,15.038-4.273,18.7q-4.193-.255-8.425-.326a1.6,1.6,0,1,0-.05,3.2q3.543.056,7.058.251C258.216,69.146,256.7,73.717,258.474,81.533Zm3.121-.707c-1.822-8.028.221-11.72,1.631-13.227,3.506,5.54,15.8,25.522,18.337,37.186C275.845,100.374,263.694,90.083,261.6,80.826Zm19.634,4.22c2.573,6.925,2.954,12.282,2.639,16.027-3.277-10.682-11.654-25.034-16.083-32.225A30.461,30.461,0,0,1,281.229,85.046ZM292.881,88.8c-2.352-7.7-.618-12.557,1-15.117A149.706,149.706,0,0,0,306.109,107.1C301.335,102.846,295.145,96.216,292.881,88.8Zm17,18.62a146.449,146.449,0,0,1-12.735-33.812,28.685,28.685,0,0,1,9.89,12.679C309.44,92.716,309.885,101.646,309.884,107.421Zm9.125-9.773c-.11-7.564,2.116-11.851,3.894-14.06.668,6.955,2.693,23.525,7.654,36.665C325.8,115.975,319.161,108.148,319.009,97.648Zm14.784,22.114c-4.612-11.9-6.725-27.346-7.541-34.974,2.87,3.414,6.841,8.943,8.017,14.561C335.515,105.3,334.6,114.167,333.793,119.762Zm12.925-7.877c.82-6.115,4.894-10.145,7.259-12.012,3.3,12.8,1.3,31.994.137,40.566C350.843,134.473,345.3,122.488,346.718,111.885ZM357.732,137.5c.981-8.152,2.02-21.162.534-32.209C361.669,112.166,364.639,123.639,357.732,137.5Zm14.289-.251c1.139-7.07,4.024-11.226,6.429-13.558-2.8,9.615-4.3,23.424-5.012,32.109C372.109,150.772,370.951,143.885,372.021,137.253Zm12.315,11.584c-2.522,7.344-5.905,10.812-8.082,12.38.469-7.091,1.992-25.917,5.471-37.312C383.916,129.423,387.291,140.231,384.336,148.837Zm6.8,10.331c3.445-5.744,6.87-8.355,9.311-9.543-5.143,8.757-9.985,22.37-12.483,29.937C387.13,174.36,386.873,166.278,391.137,159.168Zm-.663,23.036c2.326-7.16,7.713-22.756,13.188-31.712C405.618,156.614,408.061,171.569,390.474,182.2Zm12.408,8.091a29.076,29.076,0,0,1,12-12.195,156.9,156.9,0,0,0-14.132,28.484C400.219,202.045,400.2,195.668,402.882,190.3Zm10.5,10.927c-4.368,6.449-8.361,8.787-10.725,9.639,4.46-13.646,11.71-26,15.448-31.882C418.476,184.423,418.265,194.015,413.383,201.222ZM425.962,225.6a32.446,32.446,0,0,1,3.07-17.884c2.108,6.844,6.5,22.978,5.073,34.362C431.446,238.933,426.54,231.587,425.962,225.6Zm12.991-2.648a31.181,31.181,0,0,1-1.419,11.792c-.395-9.283-2.894-19.339-4.691-25.5A23.88,23.88,0,0,1,438.953,222.956Zm-16.729-46.581a77.663,77.663,0,0,1,31.873,12.25C435.638,192.4,425.806,181.615,422.224,176.375Zm17.141-3.325a20.436,20.436,0,0,1,15.448,12.185,79.955,79.955,0,0,0-30.626-11.814C427.121,172.427,431.952,171.711,439.365,173.05Zm-30.93-24.8c12.864-.753,28.427,1.789,35.712,3.177C428.791,159.085,414.681,152.267,408.435,148.246Zm35.811-.073c-7.591-1.443-22.877-3.888-35.9-3.13,2.906-2.125,8.179-4.648,16.868-4.648A27.638,27.638,0,0,1,444.246,148.173ZM406.5,127.31c-9.633.436-17.432-4.075-21.259-6.836,13.253-2.147,31.513.062,39.013,1.157A33.011,33.011,0,0,1,406.5,127.31Zm16.839-9.054c-7.873-1.11-23.673-2.858-36.415-1.252,3.4-2.2,9.115-4.595,17.824-4.473C414.126,112.657,420.049,115.739,423.337,118.256ZM381.249,98.8A40.963,40.963,0,0,1,361,98.113c13.23-2.1,29.537-7.064,36.482-9.288C395.631,91.969,391.253,96.759,381.249,98.8Zm-11.768-12.01c9.325-3.874,19.775-2.134,25.624-.576-8.2,2.576-25.419,7.667-37.93,9.206C358.308,93.465,361.338,90.174,369.481,86.792ZM352.8,78.262c-6.717,3.334-18.289,2.09-24.315,1.115,13.865-8.459,29.755-13.2,36.2-14.91C363,68.285,359.25,75.061,352.8,78.262ZM338.612,66.289a1.288,1.288,0,0,0,.158-.1c6.035-4.2,14.783-4.29,20.917-3.667a143.457,143.457,0,0,0-32.054,13.629C329.339,73.311,332.565,69.537,338.612,66.289Zm-21.649-.741c-6.5,5.4-15.061,4.578-19.2,3.744,10.194-10.813,24.572-18.265,30.994-21.26C327.009,52.475,323.261,60.315,316.963,65.548ZM303.118,54.766c3.666-4.138,12.43-6.19,19.266-7.189-7.065,3.665-17.237,9.771-25.47,17.991A27.178,27.178,0,0,1,303.118,54.766Zm-14.453-.931c-6.032,7.64-14.477,9.537-19.793,9.909,8.651-6.506,22.116-20.108,28.271-26.464C296.332,40.985,294.205,46.817,288.665,53.835ZM268.2,46.708c5.825-7.777,19.681-10.754,26.776-11.8-6.7,6.916-22.646,23.024-30.458,28C263.752,59.982,263.021,53.626,268.2,46.708Z" style="fill:#231f20"/><path d="M468.49,300.147c.026-.038.055-.073.078-.112a1.563,1.563,0,0,0,.073-.148c.02-.044.043-.086.059-.131a1.29,1.29,0,0,0,.04-.151,1.338,1.338,0,0,0,.035-.149c.007-.046.007-.093.01-.141a1.685,1.685,0,0,0,0-.174.291.291,0,0,0,0-.03c-.067-1-1.782-24.633-13.581-33.47-7.765-5.817-15.038-5.178-18.7-4.274q.253-4.194.325-8.426a1.6,1.6,0,0,0-1.574-1.624h-.026a1.6,1.6,0,0,0-1.6,1.576c-.036,2.361-.124,4.713-.25,7.056-2.537-1.734-7.108-3.25-14.924-1.475-13.327,3.023-27.493,23.382-28.09,24.248l-.01.017a1.721,1.721,0,0,0-.1.184c-.015.032-.035.062-.049.095a1.683,1.683,0,0,0-.063.205c-.009.034-.023.066-.029.1a1.487,1.487,0,0,0-.016.165c0,.053-.014.105-.014.159v.008a1.561,1.561,0,0,0,.024.207c0,.034,0,.067.01.1l0,0a1.6,1.6,0,0,0,.253.581c.019.026.042.049.063.074a1.543,1.543,0,0,0,.141.162c.029.029.064.051.1.078.05.04.1.081.153.116.009.005.015.013.024.018.225.138,3.7,2.191,10.3,2.191a42.832,42.832,0,0,0,14.9-2.957,33.874,33.874,0,0,0,16.287-12.32,182.553,182.553,0,0,1-3.509,19.834c-2.963-2.167-8.961-4.863-18.582-1.923-13.731,4.194-24.43,19.944-24.879,20.613-.012.017-.017.038-.028.057a1.607,1.607,0,0,0-.13.263c-.013.034-.026.067-.037.1a1.612,1.612,0,0,0-.068.337.251.251,0,0,1,0,.027,1.614,1.614,0,0,0,.023.373c.006.033.015.066.023.1a1.525,1.525,0,0,0,.09.267c.009.023.012.047.022.068s.021.028.029.043.018.045.03.067c.025.042.06.072.088.111a1.176,1.176,0,0,0,.292.312,1.586,1.586,0,0,0,.162.121,1.563,1.563,0,0,0,.192.1,1.631,1.631,0,0,0,.179.072,1.693,1.693,0,0,0,.225.046c.043.006.084.023.128.026.257.018,2.638.179,6.088.179,6.006,0,15.249-.488,22.143-3.062a30.38,30.38,0,0,0,11.1-7.382,183.358,183.358,0,0,1-6.66,18.505c-2.462-2.3-7.582-5.491-16.97-5.35-18.07.262-28.545,17.127-28.982,17.844,0,.007-.006.014-.01.021a1.673,1.673,0,0,0-.145.32c-.007.022-.009.044-.015.066a1.611,1.611,0,0,0-.052.277c0,.039,0,.077,0,.116a1.555,1.555,0,0,0,.012.236c.006.042.012.084.021.125a1.524,1.524,0,0,0,.067.225c.011.029.014.059.026.087.006.012.015.022.02.034s.009.028.016.042c.016.032.042.055.059.085a1.677,1.677,0,0,0,.162.234,1.574,1.574,0,0,0,.114.117,1.632,1.632,0,0,0,.194.158c.046.031.092.061.14.088a1.66,1.66,0,0,0,.229.1,1.484,1.484,0,0,0,.155.052c.02,0,.039.016.06.02a110.369,110.369,0,0,0,19.056,2.028,39.382,39.382,0,0,0,7.88-.682c5.147-1.077,10.071-4.117,13.707-6.88A184.513,184.513,0,0,1,402.66,352a21.9,21.9,0,0,0-14.12-8.455c-15.945-2.136-33.807,9.645-34.56,10.149-.007,0-.012.012-.019.017a1.6,1.6,0,0,0-.257.222c-.024.025-.043.055-.066.082a1.654,1.654,0,0,0-.146.2c-.02.036-.038.072-.056.109a1.593,1.593,0,0,0-.086.218c-.013.042-.026.084-.036.128-.006.025-.016.047-.021.072a1.657,1.657,0,0,0-.012.171c0,.03-.012.057-.012.087,0,.01,0,.019,0,.029a1.594,1.594,0,0,0,.039.354c0,.01.007.019.01.029a1.572,1.572,0,0,0,.111.3c.016.034.037.066.056.1a1.492,1.492,0,0,0,.135.2c.025.032.051.063.079.093a1.468,1.468,0,0,0,.194.175c.018.015.033.034.052.048l.049.033,0,0c9.229,6.481,17.789,8.653,25.12,8.653a38.778,38.778,0,0,0,17.2-4.12A184.937,184.937,0,0,1,380.765,378.9c-2-3-6.943-8.332-17.508-10.036-12.785-2.058-25.967,3.344-27.69,4.084a1.59,1.59,0,0,0-1.109,1.327c0,.026-.009.051-.011.077s-.008.038-.009.058a1.611,1.611,0,0,0,.046.436c0,.014,0,.028,0,.043.083.318,2.169,7.852,15.637,12.477a26.674,26.674,0,0,0,8.662,1.336,48.107,48.107,0,0,0,14.38-2.5,183.678,183.678,0,0,1-19.027,15.1c-.884-3.036-3.571-8.055-11.661-12.906-12.87-7.719-27.925-2.385-28.56-2.154-.032.012-.06.031-.091.045a1.593,1.593,0,0,0-.166.081c-.041.024-.078.051-.116.078a1.467,1.467,0,0,0-.146.114c-.034.031-.065.063-.1.1a1.675,1.675,0,0,0-.121.144c-.027.038-.053.076-.077.115a1.6,1.6,0,0,0-.086.164c-.012.026-.029.048-.04.075s-.011.044-.018.065-.021.043-.028.067-.012.069-.02.1c-.011.051-.022.1-.029.152a1.554,1.554,0,0,0-.012.18c0,.047,0,.094,0,.141a1.311,1.311,0,0,0,.028.188c.008.043.015.087.027.13a1.572,1.572,0,0,0,.07.188c.013.031.02.064.035.094,7.993,15.985,19.232,19.652,27.866,19.652.977,0,1.917-.05,2.819-.131a182.338,182.338,0,0,1-17.226,9.04,32.867,32.867,0,0,0-15.357-17c-10.616-5.309-23.981-1.4-24.545-1.227l0,0a1.581,1.581,0,0,0-.4.188c-.025.016-.049.032-.073.05a1.537,1.537,0,0,0-.313.29c-.007.009-.012.019-.019.028a1.585,1.585,0,0,0-.195.338c-.014.033-.029.066-.041.1s-.025.052-.033.08a1.591,1.591,0,0,0-.06.337l0,.012c-.02.312-.373,7.751,11.529,15.812,6.011,4.072,13.288,5.241,19.04,5.4a182.368,182.368,0,0,1-19.612,6.31c-2.248-1.558-10.03-6.151-22.323-4.967-7.675.743-20.9,9.19-20.77,12.395a1.756,1.756,0,0,0,1.546,1.666c.144.031.3.053.444.082.464.149,1.348.557,2.148.927,3.412,1.579,9.49,4.391,17.352,4.391.807,0,1.633-.029,2.477-.092,11.127-.84,18.113-9.108,19.749-11.255a185.659,185.659,0,0,0,18.815-5.962c-5.761,6.355-11.353,17.164-6.744,33.361l0,.011a1.584,1.584,0,0,0,.2.416c.018.028.034.055.053.081a1.6,1.6,0,0,0,.275.3c.008.006.017.008.025.014a1.638,1.638,0,0,0,.381.213c.029.012.054.034.083.044a1.611,1.611,0,0,0,.519.088,1.674,1.674,0,0,0,.28-.025c.162-.029,16.206-3.056,19.176-19.493,2.035-11.263-.322-17.367-2.03-20.115A185.783,185.783,0,0,0,347.55,409.4c-4.588,8.412-10,24.009.389,40.085l.006.01.007.012c.02.03.045.054.067.083a1.407,1.407,0,0,0,.123.154c.031.033.067.059.1.089a1.5,1.5,0,0,0,.136.115,1.442,1.442,0,0,0,.127.073,1.489,1.489,0,0,0,.147.081c.052.022.107.036.161.053s.083.033.128.043l.015,0,.017,0a1.709,1.709,0,0,0,.257.026c.022,0,.044.007.066.007s.034-.008.052-.009a1.575,1.575,0,0,0,.442-.075,1.618,1.618,0,0,0,.168-.08,1.535,1.535,0,0,0,.228-.108,30.983,30.983,0,0,0,12.618-24.754c0-12.1-4.6-18.413-7.215-21.03a186.862,186.862,0,0,0,16.9-13.11,34.88,34.88,0,0,0-3,15.571c.7,15.107,8.518,22.221,8.851,22.517.01.009.023.012.033.02a1.569,1.569,0,0,0,.459.276c.012,0,.025.007.038.011a1.633,1.633,0,0,0,.253.072,1.578,1.578,0,0,0,.281.025c.014,0,.027-.006.041-.007a1.575,1.575,0,0,0,.465-.083,1.406,1.406,0,0,0,.175-.084,1.6,1.6,0,0,0,.221-.106c.413-.282,10.125-7.124,10.358-24.5.182-13.528-5.323-20.679-7.951-23.315a188.029,188.029,0,0,0,15.051-17.209,45.67,45.67,0,0,0,.3,17.625c3.541,17.341,14.915,19.9,15.4,20a1.648,1.648,0,0,0,.326.034h0a1.59,1.59,0,0,0,.491-.082c.006,0,.014,0,.02,0a1.644,1.644,0,0,0,.342-.167c.026-.017.05-.037.076-.055a1.671,1.671,0,0,0,.261-.235c.017-.02.037-.037.054-.058a1.569,1.569,0,0,0,.215-.358c0-.011.014-.02.019-.031.3-.713,7.149-17.64.9-32.684-4.059-9.774-8.28-13.185-10.923-14.358a188.141,188.141,0,0,0,11.4-19.454c-.558,6.386-.48,14.312,2.233,19.779,5.19,10.463,17.954,14.44,18.5,14.6a1.59,1.59,0,0,0,.415.061c.017,0,.032.009.048.009a1.582,1.582,0,0,0,.346-.039c.011,0,.021-.008.033-.01.032-.008.062-.022.094-.031a1.617,1.617,0,0,0,.258-.1c.017-.008.035-.011.052-.021s.043-.032.066-.046a1.534,1.534,0,0,0,.14-.1,1.2,1.2,0,0,0,.108-.093,1.244,1.244,0,0,0,.117-.124,1.229,1.229,0,0,0,.089-.113,1.634,1.634,0,0,0,.09-.143c.023-.042.045-.084.065-.128a1.5,1.5,0,0,0,.061-.162c.009-.028.023-.054.03-.083.206-.785,4.937-19.326-2.893-30.681C431.416,327.629,425,324.29,421.9,323.17q3-7.02,5.424-14.3a21.959,21.959,0,0,0,4.667,10.143c8.263,9.946,21.928,13.854,22.506,14.016a1.515,1.515,0,0,0,.36.049c.024,0,.047.011.071.011a1.6,1.6,0,0,0,.479-.081c.021-.007.041-.011.062-.019s.036-.008.054-.015a1.632,1.632,0,0,0,.361-.21c.01-.008.023-.011.033-.019s.032-.033.049-.048a1.665,1.665,0,0,0,.168-.168c.026-.03.052-.06.075-.091a1.607,1.607,0,0,0,.13-.212c.015-.029.034-.056.047-.086a1.616,1.616,0,0,0,.107-.326c0-.018,0-.037.006-.055a1.505,1.505,0,0,0,.024-.293c0-.012,0-.024,0-.036-.035-.953-.947-23.418-9.171-30.7-6.747-5.978-12.547-7.3-15.565-7.534q1.8-7.56,2.977-15.321a28.572,28.572,0,0,0,9.415,13.308c11.349,8.96,20.048,9.658,22.482,9.658.388,0,.616-.018.672-.023.031,0,.06-.012.091-.017a1.484,1.484,0,0,0,.148-.028,1.591,1.591,0,0,0,.166-.051c.043-.016.086-.032.128-.052a1.541,1.541,0,0,0,.16-.087c.038-.023.076-.046.112-.073a1.589,1.589,0,0,0,.146-.126c.023-.021.049-.037.07-.06s.015-.021.024-.03C468.421,300.243,468.455,300.2,468.49,300.147Zm-15.2-31.946c7.777,5.825,10.754,19.682,11.8,26.777-6.915-6.7-23.024-22.646-27.995-30.459C440.019,263.751,446.375,263.022,453.292,268.2ZM419.174,261.6c8.028-1.823,11.721.222,13.227,1.632-5.54,3.505-25.521,15.8-37.185,18.335C399.63,275.844,409.926,263.693,419.174,261.6Zm-4.22,19.634c-6.926,2.574-12.284,2.955-16.028,2.639,10.706-3.284,25.1-11.693,32.277-16.114A30.293,30.293,0,0,1,414.954,281.229ZM411.2,292.881c7.7-2.354,12.558-.619,15.117,1a149.644,149.644,0,0,0-33.4,12.22C397.166,301.33,403.8,295.141,411.2,292.881Zm2.512,14.158c-6.427,2.4-15.358,2.847-21.131,2.846a146.334,146.334,0,0,1,33.811-12.735A28.7,28.7,0,0,1,413.711,307.039Zm-11.36,11.97c7.547-.072,11.84,2.128,14.054,3.894-6.959.669-23.522,2.694-36.658,7.654C384.025,325.8,391.851,319.162,402.351,319.009Zm-1.7,15.26c-5.953,1.246-14.818.336-20.413-.476,11.9-4.612,27.344-6.725,34.973-7.541C411.8,329.122,406.269,333.093,400.652,334.269Zm-12.537,12.45c6.116.819,10.146,4.893,12.012,7.258-12.807,3.3-32,1.3-40.57.137C365.518,350.844,377.5,345.3,388.115,346.719ZM362.5,357.734a170.474,170.474,0,0,0,19.817,1.279,93.984,93.984,0,0,0,12.411-.759C387.861,361.662,376.378,364.645,362.5,357.734Zm.247,14.287c7.071,1.14,11.227,4.025,13.558,6.43-9.61-2.8-23.413-4.3-32.1-5.012C349.243,372.11,356.132,370.953,362.747,372.021Zm-11.584,12.315c-7.344-2.522-10.813-5.906-12.381-8.083,7.089.47,25.913,1.992,37.309,5.471C370.568,383.914,359.755,387.289,351.163,384.336Zm-10.33,6.8c5.743,3.444,8.354,6.87,9.543,9.311-8.757-5.144-22.371-9.986-29.938-12.484C325.64,387.13,333.722,386.873,340.833,391.138Zm-23.037-.664c7.16,2.327,22.757,7.713,31.713,13.188C343.387,405.618,328.431,408.061,317.8,390.474Zm-8.091,12.408a29.088,29.088,0,0,1,12.195,12,156.875,156.875,0,0,0-28.482-14.132C297.957,400.219,304.333,400.2,309.705,402.882Zm-20.566-.224c13.646,4.46,26,11.711,31.882,15.448-5.444.37-15.037.159-22.243-4.723C292.33,409.015,289.991,405.023,289.139,402.658Zm-14.743,23.3a32.424,32.424,0,0,1,17.882,3.07c-6.844,2.106-22.978,6.5-34.359,5.073C261.068,431.446,268.413,426.541,274.4,425.962Zm2.648,12.991a31.209,31.209,0,0,1-11.783-1.416c9.294-.4,19.357-2.9,25.519-4.7A23.844,23.844,0,0,1,277.044,438.953Zm46.581-16.728A77.649,77.649,0,0,1,311.374,454.1C307.6,435.637,318.386,425.806,323.625,422.225Zm3.324,17.14a20.433,20.433,0,0,1-12.184,15.448,79.955,79.955,0,0,0,11.815-30.638C327.574,427.1,328.292,431.938,326.949,439.365Zm24.806-30.929c.753,12.864-1.79,28.427-3.178,35.711C340.916,428.793,347.733,414.683,351.755,408.436Zm7.85,16.778a27.642,27.642,0,0,1-7.778,19.032c1.442-7.591,3.888-22.877,3.13-35.9C357.082,411.252,359.605,416.524,359.605,425.214Zm19.92-39.975c2.149,13.254-.061,31.514-1.156,39.014a33.01,33.01,0,0,1-5.68-17.755C372.246,396.869,376.763,389.067,379.525,385.239Zm2.219,38.1c1.11-7.872,2.856-23.67,1.252-36.412,2.2,3.4,4.589,9.118,4.472,17.821C387.343,414.126,384.262,420.049,381.744,423.337ZM401.2,381.249A40.961,40.961,0,0,1,401.887,361c2.1,13.23,7.063,29.536,9.286,36.48C408.03,395.63,403.241,391.253,401.2,381.249Zm12.009-11.768c3.874,9.325,2.133,19.774.575,25.623-2.576-8.2-7.666-25.417-9.205-37.928C406.535,358.309,409.826,361.339,413.208,369.481Zm8.53-16.682c-3.334-6.719-2.09-18.289-1.115-24.315,8.458,13.865,13.2,29.754,14.909,36.2C431.715,363,424.939,359.25,421.738,352.8Zm11.972-14.187a1.337,1.337,0,0,0,.1.158c4.2,6.035,4.291,14.784,3.667,20.918a143.46,143.46,0,0,0-13.627-32.055C426.69,329.34,430.462,332.566,433.71,338.612Zm.742-21.648c-5.4-6.5-4.578-15.062-3.743-19.2,10.813,10.193,18.264,24.571,21.259,30.993C447.524,327.009,439.685,323.261,434.452,316.964Zm17.97,5.42c-3.664-7.065-9.771-17.237-17.991-25.47a27.171,27.171,0,0,1,10.8,6.2C449.371,306.784,451.423,315.548,452.422,322.384Zm-16.165-53.509c6.5,8.639,20.068,22.075,26.435,28.241-3.726-.825-9.571-2.959-16.527-8.451C438.526,282.635,436.63,274.191,436.257,268.875Z" style="fill:#231f20"/><path d="M247.107,433.641q-3.543-.056-7.058-.251c1.734-2.536,3.25-7.107,1.477-14.923-2.983-13.147-22.823-27.1-24.189-28.05a1.5,1.5,0,0,0-.919-.319c-.023,0-.045,0-.068,0h0c-.036,0-.07.009-.106.012a1.732,1.732,0,0,0-.2.022l-.008,0a1.641,1.641,0,0,0-.295.1l-.008,0a1.607,1.607,0,0,0-.277.157c-.021.015-.038.034-.058.05a1.582,1.582,0,0,0-.18.157c-.024.025-.044.056-.067.084a1.5,1.5,0,0,0-.127.167l-.013.016c-.218.358-5.278,8.939.766,25.21a33.867,33.867,0,0,0,12.321,16.286,182.587,182.587,0,0,1-19.836-3.508c2.167-2.964,4.863-8.961,1.924-18.583-4.193-13.731-19.943-24.43-20.612-24.878-.017-.012-.037-.016-.054-.027a1.621,1.621,0,0,0-.267-.133c-.033-.013-.065-.026-.1-.036a1.577,1.577,0,0,0-.748-.048c-.026,0-.05.012-.075.018a1.564,1.564,0,0,0-.29.1c-.02.009-.041.011-.061.02s-.025.019-.039.026-.048.02-.07.033a1.569,1.569,0,0,0-.207.151c-.013.011-.028.019-.04.03a1.562,1.562,0,0,0-.25.284c-.017.024-.03.05-.045.075a1.5,1.5,0,0,0-.13.26c-.014.034-.027.067-.038.1a1.584,1.584,0,0,0-.068.334c0,.011-.006.02-.006.031-.05.7-1.171,17.378,2.882,28.229a30.383,30.383,0,0,0,7.384,11.1,183.278,183.278,0,0,1-18.513-6.664c2.3-2.466,5.494-7.593,5.357-16.966-.262-18.071-17.127-28.546-17.844-28.983l-.016-.007a1.593,1.593,0,0,0-.331-.15l-.027-.007a1.637,1.637,0,0,0-.318-.06l-.092,0a1.675,1.675,0,0,0-.264.014c-.034,0-.068.01-.1.017a1.638,1.638,0,0,0-.251.075c-.023.009-.048.012-.071.022s-.018.012-.028.016-.033.011-.049.019a1.564,1.564,0,0,0-.213.135c-.015.011-.033.019-.048.031a1.606,1.606,0,0,0-.254.247c-.017.021-.03.045-.047.067a1.66,1.66,0,0,0-.142.227c-.018.035-.032.071-.047.107a1.565,1.565,0,0,0-.077.231c-.006.023-.017.044-.022.067-.141.692-3.413,17.065-1.347,26.938,1.077,5.147,4.117,10.07,6.88,13.707A184.678,184.678,0,0,1,148,402.66a21.9,21.9,0,0,0,8.456-14.119c2.136-15.945-9.647-33.808-10.149-34.561l-.011-.011a1.557,1.557,0,0,0-.231-.269c-.021-.02-.045-.035-.067-.054a1.6,1.6,0,0,0-.219-.155c-.034-.02-.069-.036-.1-.054a1.555,1.555,0,0,0-.224-.088c-.041-.013-.08-.025-.122-.035-.026,0-.049-.016-.076-.021-.052-.009-.1-.006-.156-.01-.034,0-.067-.013-.1-.013s-.037,0-.055,0l-.031,0a1.457,1.457,0,0,0-1.052.458c-.039.039-.074.081-.109.123s-.058.059-.081.092c-12.741,18.1-8.9,33.638-4.586,42.362A185.009,185.009,0,0,1,121.1,380.766c3-2,8.331-6.944,10.035-17.509,2.164-13.421-3.9-27.286-4.161-27.869-.006-.014-.019-.024-.025-.038a1.61,1.61,0,0,0-.281-.414c-.016-.016-.033-.029-.049-.045a1.61,1.61,0,0,0-.406-.291l-.009,0a1.6,1.6,0,0,0-.469-.134c-.031,0-.061-.011-.093-.014s-.034-.007-.052-.008a1.564,1.564,0,0,0-.477.049h0l-.006,0a1.655,1.655,0,0,0-.2.059c-1.265.412-8.007,3.145-12.275,15.575-2.658,7.74-.866,16.733,1.169,23.045A183.73,183.73,0,0,1,98.7,354.14c3.036-.885,8.055-3.572,12.906-11.661,7.718-12.871,2.384-27.925,2.153-28.56-.01-.028-.027-.053-.039-.08a1.511,1.511,0,0,0-.088-.181c-.023-.038-.048-.073-.073-.109a1.557,1.557,0,0,0-.118-.15c-.03-.034-.062-.065-.094-.1a1.689,1.689,0,0,0-.145-.121,1.305,1.305,0,0,0-.116-.078,1.447,1.447,0,0,0-.161-.085c-.026-.012-.05-.03-.077-.041s-.044-.01-.066-.018-.043-.02-.066-.027-.067-.012-.1-.02c-.051-.012-.1-.023-.154-.03a1.587,1.587,0,0,0-.182-.011c-.045,0-.091,0-.136,0a1.646,1.646,0,0,0-.2.03c-.039.008-.079.013-.117.024a1.554,1.554,0,0,0-.213.08c-.024.01-.05.015-.073.027l-.035.018-.014.007c-17.745,8.894-20.274,21.794-19.475,30.656a182.168,182.168,0,0,1-9.039-17.223,32.864,32.864,0,0,0,17-15.356c5.309-10.616,1.4-23.983,1.227-24.546l0-.008a1.58,1.58,0,0,0-.184-.387c-.018-.028-.035-.055-.055-.081a1.59,1.59,0,0,0-.287-.31c-.009-.007-.019-.011-.027-.018a1.6,1.6,0,0,0-.342-.2c-.032-.014-.062-.028-.095-.039s-.054-.026-.084-.034a1.612,1.612,0,0,0-.339-.061l-.009,0c-.312-.014-7.754-.369-15.813,11.529-4.071,6.012-5.24,13.29-5.4,19.042a182.52,182.52,0,0,1-6.312-19.612c1.559-2.248,6.156-10.031,4.968-22.325-.739-7.637-9.106-20.771-12.347-20.771h-.048a1.756,1.756,0,0,0-1.666,1.538c-.034.158-.06.321-.092.481-.156.47-.555,1.335-.918,2.12-1.741,3.763-4.981,10.766-4.3,19.827.84,11.13,9.11,18.117,11.256,19.751a185.87,185.87,0,0,0,5.961,18.813c-6.355-5.76-17.164-11.35-33.362-6.743l-.012,0c-.045.013-.087.034-.13.051a1.4,1.4,0,0,0-.155.064c-.032.016-.062.039-.093.058a1.434,1.434,0,0,0-.165.11c-.025.02-.048.044-.072.066a1.568,1.568,0,0,0-.152.153c-.007.009-.017.015-.024.024s-.023.038-.037.056a1.479,1.479,0,0,0-.112.171c-.02.035-.037.07-.054.106a1.4,1.4,0,0,0-.067.166c-.014.041-.026.081-.037.122a1.394,1.394,0,0,0-.031.169c-.006.044-.012.086-.014.13a1.552,1.552,0,0,0,0,.167c0,.047.005.092.011.138,0,.021,0,.042.005.063.029.161,3.056,16.206,19.494,19.175a45.956,45.956,0,0,0,8.162.787c6.2,0,9.96-1.578,11.954-2.816A185.674,185.674,0,0,0,90.6,347.55c-8.416-4.59-24.023-10-40.107.4a1.614,1.614,0,0,0-.188.151l-.041.032a1.513,1.513,0,0,0-.13.148c-.027.032-.055.06-.079.094a1.481,1.481,0,0,0-.081.139.922.922,0,0,0-.127.293,1.3,1.3,0,0,0-.045.133l0,.017-.005.016a1.425,1.425,0,0,0-.015.145c-.006.054-.016.107-.017.16s.008.087.011.131a1.558,1.558,0,0,0,.017.182c.008.041.023.08.034.12a1.745,1.745,0,0,0,.054.178c.016.042.04.08.06.12a1.662,1.662,0,0,0,.084.156l.011.021a30.986,30.986,0,0,0,24.754,12.617c12.1,0,18.413-4.6,21.03-7.215A186.76,186.76,0,0,0,108.927,372.5a34.888,34.888,0,0,0-15.573-3c-14.753.681-21.866,8.137-22.465,8.8l-.011.011-.04.044c-.009.01-.012.023-.021.033a1.62,1.62,0,0,0-.252.4c0,.008-.009.015-.012.024a1.563,1.563,0,0,0-.094.323c-.007.042-.005.083-.009.124s-.007.067-.008.1a1.6,1.6,0,0,0,.045.449c.006.021.015.041.021.062a1.618,1.618,0,0,0,.2.426c0,.006.005.013.009.02.283.413,7.125,10.126,24.5,10.358.22,0,.435,0,.651,0,13.108,0,20.071-5.371,22.665-7.956a188.114,188.114,0,0,0,17.206,15.05,45.657,45.657,0,0,0-17.622.3c-17.342,3.541-19.9,14.916-20,15.4,0,.015,0,.029,0,.044a1.6,1.6,0,0,0-.016.5c0,.014.008.028.01.042a1.571,1.571,0,0,0,.057.249c.015.045.046.079.065.122a1.581,1.581,0,0,0,.109.208,1.775,1.775,0,0,0,.337.386,1.6,1.6,0,0,0,.277.176c.042.022.073.056.117.075a53.553,53.553,0,0,0,18.641,3.518,36.55,36.55,0,0,0,14.043-2.621c9.778-4.061,13.18-8.284,14.352-10.927a187.976,187.976,0,0,0,19.46,11.4c-6.386-.557-14.312-.479-19.779,2.232-10.463,5.191-14.44,17.955-14.6,18.5-.008.028-.01.056-.016.083a1.572,1.572,0,0,0-.033.166c-.007.05-.01.1-.013.149a1.5,1.5,0,0,0,0,.164,1.461,1.461,0,0,0,.019.162.853.853,0,0,0,.01.085c0,.014.012.025.016.04a1.552,1.552,0,0,0,.15.4c.009.017.022.031.032.047s.032.044.047.067a1.6,1.6,0,0,0,.306.34c.008.006.014.015.022.021a1.564,1.564,0,0,0,.408.226c.031.013.061.024.093.035s.054.023.083.031a57.7,57.7,0,0,0,13.317,1.6c5.733,0,12.271-.986,17.363-4.5,9.39-5.069,12.728-11.483,13.849-14.586q7.017,3,14.3,5.424a21.949,21.949,0,0,0-10.14,4.667c-9.947,8.264-13.855,21.928-14.017,22.506,0,.013,0,.027-.006.041a1.59,1.59,0,0,0-.043.275c0,.023-.007.045-.008.068a1.635,1.635,0,0,0,.028.348c.006.028.017.054.024.082a1.6,1.6,0,0,0,.061.212c0,.011.013.019.017.029a1.633,1.633,0,0,0,.211.366l.013.013c.018.022.04.038.059.059a1.59,1.59,0,0,0,.255.231c.039.027.078.05.118.074a1.573,1.573,0,0,0,.269.127c.042.015.082.032.125.044a1.615,1.615,0,0,0,.392.058c.009,0,.018,0,.027,0h.058c.952-.034,23.418-.947,30.7-9.171,5.977-6.747,7.3-12.546,7.534-15.564q7.56,1.8,15.321,2.977a28.572,28.572,0,0,0-13.308,9.415c-10.387,13.156-9.671,22.752-9.636,23.153,0,.036.014.069.02.1s.015.1.027.15.032.1.05.153.032.088.052.131a1.585,1.585,0,0,0,.085.151c.022.037.043.075.068.11a1.626,1.626,0,0,0,.139.16c.019.02.033.043.054.062l.007,0a1.61,1.61,0,0,0,.508.323l.01,0a1.611,1.611,0,0,0,.573.107h0c.036,0,.071,0,.107,0,1-.067,24.635-1.783,33.471-13.582,5.816-7.765,5.176-15.038,4.273-18.7q4.194.255,8.426.326h.025a1.6,1.6,0,0,0,.024-3.2Zm-8.7-14.466c1.822,8.027-.222,11.719-1.632,13.226-3.506-5.541-15.8-25.522-18.336-37.186C224.155,399.626,236.305,409.917,238.405,419.175Zm-19.635-4.221c-2.573-6.925-2.954-12.282-2.638-16.027,3.284,10.707,11.693,25.1,16.113,32.276A30.294,30.294,0,0,1,218.77,414.954ZM207.119,411.2c2.352,7.7.618,12.557-1,15.117a149.759,149.759,0,0,0-12.225-33.411C198.664,397.154,204.854,403.784,207.119,411.2Zm-17-18.62a146.353,146.353,0,0,1,12.735,33.812,28.685,28.685,0,0,1-9.89-12.679C190.559,407.284,190.114,398.353,190.115,392.579Zm-9.124,9.773c.11,7.564-2.117,11.851-3.894,14.06-.669-6.955-2.694-23.525-7.655-36.665C174.2,384.025,180.838,391.852,180.991,402.352Zm-14.784-22.114c4.612,11.9,6.725,27.346,7.54,34.974-2.869-3.414-6.84-8.943-8.016-14.561C164.485,394.7,165.4,385.833,166.207,380.238Zm-12.926,7.877c-.82,6.115-4.893,10.145-7.258,12.012-3.3-12.805-1.3-31.994-.137-40.566C149.156,365.527,154.7,377.512,153.281,388.115ZM142.267,362.5c-.98,8.152-2.02,21.162-.533,32.208C138.331,387.833,135.362,376.361,142.267,362.5Zm-14.288.251c-1.14,7.07-4.024,11.225-6.429,13.557,2.8-9.609,4.3-23.41,5.011-32.1C127.889,349.244,129.046,356.13,127.979,362.747Zm-12.315-11.584c2.522-7.345,5.905-10.813,8.082-12.381-.469,7.089-1.991,25.913-5.47,37.309C116.087,370.567,112.714,359.752,115.664,351.163Zm-6.8-10.331c-3.444,5.744-6.869,8.355-9.31,9.543,5.143-8.757,9.985-22.37,12.483-29.937C112.87,325.64,113.126,333.722,108.862,340.832Zm.664-23.036c-2.327,7.16-7.715,22.758-13.188,31.712C94.381,343.385,91.939,328.43,109.526,317.8Zm-12.409-8.091a29.069,29.069,0,0,1-12,12.195,156.9,156.9,0,0,0,14.132-28.484C99.781,297.955,99.8,304.332,97.117,309.705Zm-10.5-10.927c4.368-6.449,8.36-8.787,10.725-9.639-4.46,13.646-11.711,26-15.448,31.882C81.524,315.577,81.735,305.985,86.617,298.778ZM74.038,274.4a32.432,32.432,0,0,1-3.072,17.884c-2.108-6.843-6.5-22.973-5.072-34.363C68.553,261.066,73.459,268.413,74.038,274.4Zm-12.991,2.648a31.2,31.2,0,0,1,1.418-11.791c.4,9.294,2.9,19.362,4.7,25.526A23.856,23.856,0,0,1,61.047,277.044Zm16.728,46.581A77.657,77.657,0,0,1,45.9,311.375C64.362,307.6,74.194,318.385,77.775,323.625Zm-17.14,3.325a20.438,20.438,0,0,1-15.449-12.185,79.957,79.957,0,0,0,30.626,11.813C72.877,327.573,68.046,328.29,60.635,326.95Zm30.93,24.805c-12.863.753-28.427-1.79-35.712-3.178C71.208,340.913,85.319,347.732,91.565,351.755Zm-35.811.072A176.149,176.149,0,0,0,86.526,355.1c1.732,0,3.446-.047,5.124-.144-2.907,2.124-8.179,4.645-16.864,4.645A27.635,27.635,0,0,1,55.754,351.827ZM93.5,372.69c9.636-.447,17.434,4.073,21.259,6.836-13.253,2.147-31.513-.062-39.013-1.157A33.011,33.011,0,0,1,93.5,372.69Zm1.751,14.779c-9.379-.126-15.3-3.207-18.59-5.725a186.55,186.55,0,0,0,24.882,1.9,93.314,93.314,0,0,0,11.523-.65C109.661,385.192,103.948,387.578,95.253,387.469Zm23.5,13.729a40.99,40.99,0,0,1,20.245.689c-13.23,2.1-29.536,7.064-36.48,9.288C104.369,408.031,108.746,403.241,118.751,401.2Zm11.768,12.01c-9.326,3.875-19.775,2.134-25.624.575,8.2-2.576,25.418-7.666,37.929-9.205C141.692,406.535,138.661,409.826,130.519,413.208Zm16.682,8.53c6.717-3.335,18.289-2.09,24.316-1.115-13.869,8.461-29.763,13.206-36.207,14.911C136.987,431.721,140.728,424.95,147.2,421.738Zm14.186,11.973a1.368,1.368,0,0,0-.158.1c-6.034,4.2-14.781,4.29-20.916,3.666a143.415,143.415,0,0,0,32.03-13.614C170.628,426.706,167.4,430.481,161.387,433.711Zm21.649.741a20.374,20.374,0,0,1,13.229-4.35,30.618,30.618,0,0,1,5.975.606c-10.194,10.813-24.572,18.265-30.994,21.26C172.991,447.525,176.738,439.685,183.036,434.452Zm13.845,10.782c-3.665,4.138-12.43,6.19-19.266,7.189,7.065-3.664,17.237-9.771,25.471-17.991A27.183,27.183,0,0,1,196.881,445.234Zm14.453.931c6.032-7.639,14.471-9.532,19.787-9.905-8.651,6.508-22.111,20.106-28.265,26.461C203.667,459.016,205.794,453.184,211.334,446.165Zm20.464,7.127c-5.824,7.777-19.679,10.754-26.775,11.8,6.7-6.916,22.645-23.024,30.458-27.995C236.248,440.018,236.979,446.374,231.8,453.292Z" style="fill:#231f20"/></svg>