<svg id="Layer_1" data-name="Layer 1" xmlns="http://www.w3.org/2000/svg" viewBox="0 0 500 500"><path d="M477.5,267.437c-2.651-5.577-8.457-11.84-15.927-17.186a68.371,68.371,0,0,0-25.534-11.436A186.939,186.939,0,0,0,430.7,205.45a81.649,81.649,0,0,0,17.4,17.586c7.666,5.583,13.324,7.205,17.312,7.205a12.375,12.375,0,0,0,3.889-.59,10.641,10.641,0,0,0,6.857-7.184c.826-2.617-.044-5.74-2.516-9.031-3.709-4.938-10.644-9.922-19.027-13.675a68.318,68.318,0,0,0-27.338-6.108,186.837,186.837,0,0,0-16.163-36.1,81.7,81.7,0,0,0,21.558,12.2,39.813,39.813,0,0,0,13.59,2.86,15.027,15.027,0,0,0,8.608-2.269,10.646,10.646,0,0,0,4.645-8.782c.082-2.743-1.607-5.512-4.882-8-4.914-3.74-12.945-6.647-22.033-7.974a68.278,68.278,0,0,0-28,1.581,185.7,185.7,0,0,0-27.183-31.925,81.205,81.205,0,0,0,22.985,5.776c1.864.17,3.578.248,5.161.248,9.531,0,14.178-2.839,16.431-5.435a10.644,10.644,0,0,0,2.209-9.687c-.633-2.671-2.981-4.906-6.792-6.465-5.717-2.337-14.225-3.063-23.347-1.986a68.25,68.25,0,0,0-26.664,8.8,187.485,187.485,0,0,0-32.805-21.373c2.354.211,4.988.354,7.838.354a77.777,77.777,0,0,0,16.8-1.773c12.831-2.846,17.407-7.836,18.987-11.519a10.647,10.647,0,0,0-.849-9.9c-1.416-2.35-4.333-3.764-8.436-4.088-6.154-.485-14.481,1.416-22.842,5.219a68.342,68.342,0,0,0-22.681,16.442,185.433,185.433,0,0,0-44.071-12.817,1.57,1.57,0,0,0-.341-.017c-.555-.25-1.105-.491-1.645-.709,6.745-2.7,11.354-6.822,13.122-11.806a12.188,12.188,0,0,0-1.425-11.115c-2.622-3.9-5.78-6.217-9.389-6.895-4.159-.787-8.89.642-14.063,4.234-.718.5-1.411,1.02-2.093,1.554,1.034-7.195-.228-13.248-3.661-17.272a12.2,12.2,0,0,0-10.338-4.324c-4.686.322-8.275,1.9-10.666,4.682-2.757,3.21-3.889,8.02-3.366,14.3.074.895.178,1.751.3,2.586-5.714-4.489-11.584-6.42-16.786-5.462a12.19,12.19,0,0,0-8.913,6.792c-2.064,4.219-2.494,8.113-1.278,11.577,1.4,3.992,5,7.378,10.7,10.064.81.381,1.6.723,2.383,1.038-.58.233-1.14.478-1.688.731a185.994,185.994,0,0,0-65.416,23.547,82.2,82.2,0,0,0,11.884-23.123c3.96-12.531,1.933-18.99-.465-22.2a10.533,10.533,0,0,0-8.992-4.221c-2.744.048-5.428,1.866-7.762,5.254-3.5,5.085-6.026,13.244-6.921,22.386a68.293,68.293,0,0,0,2.881,27.819,187.506,187.506,0,0,0-26.238,21.322A81.713,81.713,0,0,0,125.684,93.9c1.388-13.069-1.884-19-4.873-21.668a10.652,10.652,0,0,0-9.652-2.347c-2.68.593-4.948,2.908-6.562,6.694-2.422,5.68-3.271,14.178-2.329,23.315a68.26,68.26,0,0,0,8.377,26.729q-1.3,1.44-2.566,2.908A186.406,186.406,0,0,0,87.46,158.686a81.7,81.7,0,0,0-.215-24.776c-2.224-12.952-6.986-17.764-10.589-19.52a10.642,10.642,0,0,0-9.927.37c-2.417,1.3-3.97,4.147-4.492,8.23-.782,6.126.717,14.533,4.112,23.068a68.282,68.282,0,0,0,15.364,23.48,186.9,186.9,0,0,0-14.051,39.484,81.174,81.174,0,0,0-6.49-22.793c-5.506-11.932-11.353-15.345-15.288-16.107a10.645,10.645,0,0,0-9.493,2.93c-2,1.884-2.759,5.035-2.2,9.115.833,6.118,4.46,13.85,9.952,21.212a68.289,68.289,0,0,0,20.951,18.706,186.962,186.962,0,0,0-2.339,29.459c0,3.227.09,6.442.253,9.647a81.64,81.64,0,0,0-13.561-20.653c-8.882-9.688-15.5-11.148-19.469-10.683a10.65,10.65,0,0,0-8.148,5.684c-1.328,2.4-1.094,5.635.677,9.351,2.657,5.574,8.468,11.833,15.941,17.172a68.319,68.319,0,0,0,25.583,11.421,185.4,185.4,0,0,0,10.913,44.588,1.532,1.532,0,0,0,.178.311c.06.6.126,1.189.207,1.76-5.713-4.49-11.583-6.423-16.786-5.462a12.183,12.183,0,0,0-8.914,6.792c-2.064,4.219-2.494,8.115-1.277,11.579,1.4,3.991,5,7.377,10.7,10.061.789.373,1.589.712,2.392,1.035-6.748,2.7-11.359,6.823-13.127,11.809a12.183,12.183,0,0,0,1.425,11.113c2.621,3.9,5.78,6.217,9.387,6.9a12.227,12.227,0,0,0,2.268.208c3.584,0,7.541-1.487,11.8-4.442.738-.511,1.428-1.03,2.092-1.549-1.032,7.192.23,13.243,3.662,17.267a12.14,12.14,0,0,0,9.41,4.356q.46,0,.929-.032c4.686-.322,8.275-1.9,10.665-4.681,2.757-3.21,3.889-8.021,3.366-14.3-.074-.895-.178-1.752-.3-2.588.522.41,1.045.805,1.569,1.172a187.287,187.287,0,0,0,52.9,44.8,82.193,82.193,0,0,0-25.856,1.28c-12.831,2.837-17.412,7.821-18.995,11.5a10.641,10.641,0,0,0,.841,9.9c1.413,2.353,4.329,3.769,8.431,4.1q.962.078,1.989.077c5.9,0,13.364-1.876,20.858-5.277a68.422,68.422,0,0,0,22.631-16.35,185.592,185.592,0,0,0,31.468,12.023,81.62,81.62,0,0,0-23.794,6.264c-12.012,5.332-15.51,11.13-16.329,15.054a10.645,10.645,0,0,0,2.793,9.532c1.5,1.637,3.839,2.478,6.841,2.478a18.594,18.594,0,0,0,2.239-.142c6.129-.743,13.914-4.257,21.355-9.64a68.354,68.354,0,0,0,18.966-20.594,187.973,187.973,0,0,0,38.69,4.026c.226,0,.451-.008.677-.009a81.7,81.7,0,0,0-21.365,12.581c-10.106,8.4-11.892,14.93-11.612,18.929a10.647,10.647,0,0,0,5.285,8.413,7.3,7.3,0,0,0,3.9,1.028,14.364,14.364,0,0,0,5.471-1.253c5.7-2.386,12.228-7.887,17.922-15.095a68.287,68.287,0,0,0,12.653-25.053,186.871,186.871,0,0,0,41.118-7.489A81.167,81.167,0,0,0,287.271,447.4c-7.581,10.734-7.613,17.5-6.305,21.292a10.647,10.647,0,0,0,7.284,6.757,6.636,6.636,0,0,0,1.909.274c2.176,0,4.588-.99,7.086-2.923,4.882-3.781,9.764-10.789,13.394-19.226a68.264,68.264,0,0,0,5.707-27.427A185.649,185.649,0,0,0,351.2,408.428,81.6,81.6,0,0,0,340.168,430.4c-3.949,12.535-1.917,18.993.483,22.2a10.606,10.606,0,0,0,8.752,4.215c.081,0,.163,0,.244,0,2.745-.05,5.427-1.87,7.759-5.261,3.5-5.088,6.015-13.249,6.9-22.392a68.254,68.254,0,0,0-2.913-27.839,188.133,188.133,0,0,0,33.133-31.8,1.576,1.576,0,0,0,.158-.237c.509-.367,1.008-.734,1.48-1.1-1.032,7.194.23,13.245,3.663,17.269a12.139,12.139,0,0,0,9.408,4.356q.462,0,.93-.032c4.687-.323,8.275-1.9,10.667-4.683,2.756-3.21,3.888-8.021,3.364-14.3-.072-.872-.178-1.736-.3-2.594,4.756,3.739,9.622,5.71,14.119,5.71a14.71,14.71,0,0,0,2.671-.241,12.19,12.19,0,0,0,8.914-6.791c2.063-4.219,2.493-8.114,1.277-11.578-1.4-3.991-5-7.377-10.7-10.063-.812-.383-1.6-.721-2.388-1.036,6.745-2.7,11.353-6.821,13.122-11.806a12.182,12.182,0,0,0-1.425-11.115c-2.621-3.9-5.779-6.218-9.386-6.9-4.16-.782-8.891.642-14.065,4.234-.737.512-1.426,1.029-2.09,1.549.085-.595.151-1.18.2-1.759a186.057,186.057,0,0,0,12.323-66.866c0-.558-.014-1.116-.019-1.673a82.254,82.254,0,0,0,14.1,21.894c7.953,8.69,14.086,10.775,18.138,10.775a11.221,11.221,0,0,0,1.323-.077,10.64,10.64,0,0,0,8.15-5.677C479.5,274.386,479.27,271.152,477.5,267.437ZM368.681,61.378c2.986.235,5.1,1.141,5.945,2.549a7.484,7.484,0,0,1,.649,6.985c-1.816,4.235-7.76,7.665-16.738,9.657-13.535,3-26.34,1.244-31.679.233C338.786,68.06,357.649,60.516,368.681,61.378ZM25.393,243.513c-1.289-2.7-1.561-4.987-.765-6.425a7.485,7.485,0,0,1,5.725-4.055,8.224,8.224,0,0,1,.963-.055c4.432,0,9.983,3.411,15.769,9.722,9.372,10.224,14.249,22.2,16.041,27.322C44.71,265.779,29.534,252.2,25.393,243.513Zm96.769,194.252c-2.986-.239-5.1-1.146-5.944-2.555a7.488,7.488,0,0,1-.643-6.985c1.82-4.235,7.767-7.66,16.746-9.644a74.127,74.127,0,0,1,15.917-1.659A86.2,86.2,0,0,1,164,418.375C152.06,431.108,133.163,438.642,122.162,437.765Zm48.056,23.672c-2.974.358-5.225-.109-6.335-1.322a7.484,7.484,0,0,1-2.021-6.716c.942-4.512,6.089-9.052,14.5-12.783,12.673-5.626,25.574-6.436,31-6.5C198.194,448.966,181.18,460.107,170.218,461.437Zm125.067,8.831c-2.369,1.834-4.545,2.583-6.116,2.114a7.493,7.493,0,0,1-5.179-4.736c-1.5-4.356.59-10.891,5.894-18.4,8-11.325,18.657-18.635,23.288-21.477C312.914,445.219,304.017,463.506,295.285,470.268Zm59.485-20.527c-1.7,2.469-3.538,3.845-5.181,3.875a7.554,7.554,0,0,1-6.374-2.93c-2.76-3.692-2.758-10.554.006-19.326,4.167-13.223,12.093-23.432,15.637-27.549C363.93,420.512,361.027,440.642,354.77,449.741ZM471.084,215.357c1.8,2.4,2.519,4.579,2.024,6.147a7.484,7.484,0,0,1-4.806,5.107c-4.381,1.441-10.885-.748-18.319-6.161-11.207-8.162-18.359-18.929-21.133-23.6C446.3,197.364,464.452,206.528,471.084,215.357Zm-65.706-31.678c-1.3,9.1-4.267,15.292-8.352,17.425a7.476,7.476,0,0,1-7.013-.115c-1.47-.738-2.534-2.775-3-5.735-1.707-10.909,4.38-30.315,16.177-43.18A82.051,82.051,0,0,1,405.378,183.679ZM452.7,156.094c2.385,1.815,3.671,3.719,3.621,5.363a7.487,7.487,0,0,1-3.235,6.226c-3.818,2.578-10.672,2.243-19.3-.941-13.007-4.8-22.82-13.21-26.762-16.948C423.945,145.535,443.908,149.405,452.7,156.094Zm-36.5-53.465c2.775,1.135,4.511,2.641,4.891,4.24a7.5,7.5,0,0,1-1.512,6.852c-3.02,3.48-9.723,4.938-18.885,4.1-13.806-1.263-25.466-6.839-30.243-9.428C385.69,99.887,405.976,98.449,416.2,102.629Zm-72.378,7.556c3.833,8.357,4.689,15.167,2.41,19.172a7.489,7.489,0,0,1-5.959,3.7c-1.625.173-3.63-.961-5.624-3.2-7.34-8.251-12.726-27.863-9.77-45.068A82.057,82.057,0,0,1,343.82,110.185ZM262.407,85.142a35.45,35.45,0,0,0-4.523-10.353,11.837,11.837,0,0,0,3.593-8.225,36,36,0,0,1,16.9,3.673c4.893,2.306,7.935,5.075,9.042,8.228.923,2.625.542,5.691-1.132,9.112a8.941,8.941,0,0,1-6.619,5.051c-4.909.906-10.96-1.6-16.622-6.881C262.823,85.541,262.616,85.342,262.407,85.142Zm-22.937,2.5c.068-.294.136-.571.205-.852a35.478,35.478,0,0,0,6.7-9.092,11.771,11.771,0,0,0,8.926-1,36.006,36.006,0,0,1,5.262,16.463c.45,5.391-.426,9.41-2.6,11.946-1.813,2.111-4.658,3.314-8.457,3.575a8.931,8.931,0,0,1-7.685-3.207C238.588,101.688,237.73,95.187,239.47,87.643ZM241,67.265c0-.03,0-.059-.007-.089,0-.013-.008-.024-.01-.037-.028-.283-.043-.569-.043-.859a8.675,8.675,0,0,1,17.3-.985c0,.03,0,.059.006.09,0,.012.008.024.011.036.027.283.043.569.043.859a8.676,8.676,0,0,1-12.033,8,1.506,1.506,0,0,0-.185-.09l-.012,0A8.691,8.691,0,0,1,241,67.265Zm26.424-23.912c4.444-3.085,8.365-4.339,11.647-3.718,2.736.513,5.2,2.377,7.327,5.536a8.943,8.943,0,0,1,1.063,8.259c-1.666,4.7-6.867,8.689-14.27,10.954-.289.088-.563.167-.841.248a35.5,35.5,0,0,0-11.231-1.259,11.874,11.874,0,0,0-3.084-5.462c1.19-1.559,2.882-4.619,4.4-10.482A41,41,0,0,1,267.421,43.353Zm-26.154-15.9c1.812-2.111,4.658-3.313,8.457-3.574a8.92,8.92,0,0,1,7.684,3.207c3.234,3.791,4.091,10.292,2.351,17.837-1.558,6.751-3.349,9.818-4.276,11.049a11.814,11.814,0,0,0-11.558-.109A36.006,36.006,0,0,1,238.662,39.4C238.213,34,239.089,29.984,241.267,27.449ZM211.812,54.1c-.922-2.625-.541-5.691,1.133-9.112a8.935,8.935,0,0,1,6.62-5.05c4.9-.912,10.957,1.6,16.622,6.881.221.207.427.405.635.6a35.472,35.472,0,0,0,4.524,10.353A11.827,11.827,0,0,0,237.752,66a35.99,35.99,0,0,1-16.9-3.674C215.961,60.017,212.919,57.248,211.812,54.1Zm24.566,15.147c.677,0,1.253-.023,1.734-.054a11.9,11.9,0,0,0,5.332,7.222,35.764,35.764,0,0,1-11.635,12.8c-4.446,3.085-8.367,4.337-11.649,3.718-2.734-.515-5.2-2.377-7.324-5.536a8.946,8.946,0,0,1-1.064-8.26c1.666-4.7,6.868-8.689,14.271-10.954.285-.087.555-.165.829-.245A37.108,37.108,0,0,0,236.378,69.242Zm-84.31-21.185c1.7-2.467,3.541-3.841,5.185-3.87h.176a7.443,7.443,0,0,1,6.195,2.936c2.757,3.693,2.749,10.557-.021,19.324-4.179,13.222-12.115,23.423-15.663,27.537C142.884,77.277,145.8,57.15,152.068,48.057Zm-6.184,68.891c9.144-.969,15.87.388,18.941,3.825a7.49,7.49,0,0,1,1.61,6.829c-.356,1.6-2.069,3.134-4.825,4.308-10.159,4.329-30.464,3.187-45.831-5.092C120.518,124.16,132.1,118.413,145.884,116.948ZM107.54,77.837c1.175-2.756,2.706-4.469,4.311-4.824a9.115,9.115,0,0,1,1.978-.225,7.093,7.093,0,0,1,4.85,1.833c3.436,3.071,4.794,9.8,3.823,18.944-1.466,13.788-7.214,25.365-9.873,30.1C104.351,108.3,103.21,88,107.54,77.837ZM65.412,123.4c.379-2.972,1.386-5.039,2.834-5.818a8.267,8.267,0,0,1,3.89-1.047,7.03,7.03,0,0,1,3.118.736c4.142,2.018,7.281,8.121,8.837,17.184,2.346,13.666-.029,26.369-1.3,31.653C70.643,153.576,64.013,134.351,65.412,123.4ZM37.358,181.734c-.4-2.969.032-5.226,1.228-6.354a7.716,7.716,0,0,1,5.279-2.254,7.4,7.4,0,0,1,1.41.138c4.525.876,9.138,5.957,12.991,14.3,5.81,12.591,6.809,25.476,6.955,30.907C50.236,209.525,38.848,192.677,37.358,181.734ZM111.9,342.527a35.518,35.518,0,0,0-11.22-1.261,11.826,11.826,0,0,0-5.337-7.233,35.776,35.776,0,0,1,11.631-12.786c4.444-3.085,8.367-4.332,11.646-3.718,2.734.515,5.2,2.377,7.325,5.537a8.944,8.944,0,0,1,1.065,8.258c-1.666,4.7-6.868,8.69-14.271,10.955C112.455,342.367,112.181,342.446,111.9,342.527Zm-14.35,3.894a8.613,8.613,0,0,1-3.212,4.716c-.029.021-.06.037-.088.06s-.022.024-.034.035c-.228.162-.465.316-.71.457a8.666,8.666,0,0,1-12.949-8.523c0-.02.006-.038.007-.057a8.734,8.734,0,0,1,.221-1.179,8.615,8.615,0,0,1,3.25-4.749c.015-.012.034-.015.049-.028s.023-.025.036-.036c.227-.162.463-.315.708-.457a8.685,8.685,0,0,1,12.945,6.369,1.51,1.51,0,0,0,.018.25l.006.022A8.669,8.669,0,0,1,97.554,346.421Zm1.761-23.609c-.068.294-.137.573-.206.854a35.486,35.486,0,0,0-6.7,9.093,11.829,11.829,0,0,0-8.925,1,35.774,35.774,0,0,1-5.261-16.472c-.45-5.391.425-9.409,2.6-11.945,1.813-2.112,4.658-3.315,8.457-3.575a8.92,8.92,0,0,1,7.685,3.207C100.2,308.768,101.055,315.269,99.315,322.812ZM51.368,331.99c-.922-2.625-.541-5.691,1.133-9.112a8.94,8.94,0,0,1,6.62-5.051c4.9-.908,10.958,1.6,16.62,6.881.222.207.428.4.637.6A35.514,35.514,0,0,0,80.9,335.664a11.8,11.8,0,0,0-3.192,5.406c-1.947-.251-5.443-.185-11.276,1.427a40.973,40.973,0,0,1-6.021-2.279C55.519,337.912,52.476,335.144,51.368,331.99Zm20,35.113c-4.445,3.085-8.364,4.335-11.648,3.717-2.735-.514-5.2-2.377-7.324-5.536a8.944,8.944,0,0,1-1.065-8.259c1.666-4.7,6.868-8.688,14.273-10.954,6.616-2.024,10.167-2.009,11.7-1.822a11.859,11.859,0,0,0,5.688,10.068A36.006,36.006,0,0,1,71.364,367.1Zm26.156,15.9c-1.813,2.11-4.659,3.312-8.458,3.573a8.917,8.917,0,0,1-7.685-3.208c-3.233-3.791-4.091-10.292-2.351-17.835.068-.293.137-.571.2-.852a35.482,35.482,0,0,0,6.7-9.09c.055.016.108.038.163.052a11.708,11.708,0,0,0,8.762-1.063,35.758,35.758,0,0,1,5.264,16.476C100.572,376.452,99.7,380.472,97.52,383.007Zm-.078-30.321a11.794,11.794,0,0,0,3.2-5.437,11.964,11.964,0,0,0,.392-2.791,36,36,0,0,1,16.893,3.674c4.893,2.306,7.936,5.075,9.044,8.229.922,2.625.541,5.691-1.133,9.111a8.938,8.938,0,0,1-6.621,5.05c-4.9.911-10.958-1.6-16.621-6.88-.222-.206-.427-.4-.635-.605A35.514,35.514,0,0,0,97.442,352.686Zm49.621,36.293c-3.826-8.361-4.676-15.169-2.395-19.173a7.494,7.494,0,0,1,5.965-3.7c.108-.01.218-.016.33-.016,1.568,0,3.432,1.13,5.289,3.22,7.333,8.256,12.7,27.873,9.733,45.075C161.959,410.739,152.832,401.589,147.063,388.979Zm83.673,86.163c-2.765,1.157-5.058,1.318-6.456.455a7.491,7.491,0,0,1-3.773-5.914c-.322-4.6,3.393-10.367,10.464-16.245,10.665-8.867,22.856-13.162,28.063-14.706C253.908,456.921,239.615,471.423,230.736,475.142ZM359.6,398.666a68.331,68.331,0,0,0-24.454-13.435c-8.77-2.733-17.266-3.585-23.314-2.336-4.03.832-6.749,2.6-7.861,5.106a10.648,10.648,0,0,0,.388,9.926c2.027,3.459,7.189,7.84,20.272,9.067,2.312.218,4.581.314,6.784.314a85.265,85.265,0,0,0,19.12-2.256,182.438,182.438,0,0,1-35.086,18.006,68.4,68.4,0,0,0-19.2-20.209c-7.52-5.276-15.354-8.676-21.494-9.329-4.092-.436-7.217.418-9.041,2.468a10.643,10.643,0,0,0-2.653,9.574c.877,3.912,4.458,9.657,16.545,14.811a82.509,82.509,0,0,0,26.113,6.106,183.6,183.6,0,0,1-43.274,8.267,68.41,68.41,0,0,0-13.292-24.466c-5.894-7.045-12.578-12.36-18.338-14.584-3.838-1.482-7.083-1.47-9.375.039a10.643,10.643,0,0,0-5.046,8.557c-.168,4.005,1.8,10.481,12.136,18.6a82.139,82.139,0,0,0,22.587,12.3c-.5,0-1,.021-1.5.021a184.787,184.787,0,0,1-37.9-3.93,68.305,68.305,0,0,0-6.106-27.232c-3.752-8.384-8.736-15.319-13.672-19.028-3.291-2.473-6.417-3.346-9.031-2.517a10.643,10.643,0,0,0-7.185,6.859c-1.253,3.808-1.122,10.577,6.612,21.2a82.226,82.226,0,0,0,18.545,18.1,182.352,182.352,0,0,1-32.063-12.121,68.31,68.31,0,0,0-.552-27.983c-2.011-8.963-5.516-16.751-9.616-21.368-2.733-3.076-5.621-4.557-8.349-4.26a10.64,10.64,0,0,0-8.406,5.294c-1.986,3.481-3.2,10.14,2.264,22.09A81.541,81.541,0,0,0,157.7,410.623a183.846,183.846,0,0,1-45.76-37.531,17.645,17.645,0,0,0,5.185.819,14.724,14.724,0,0,0,2.673-.241,12.187,12.187,0,0,0,8.914-6.792c2.063-4.219,2.493-8.113,1.277-11.577-1.4-3.992-5-7.378-10.7-10.064-.812-.382-1.605-.72-2.387-1.036,6.745-2.7,11.354-6.823,13.121-11.807a12.184,12.184,0,0,0-1.425-11.115c-2.622-3.9-5.781-6.216-9.388-6.894-4.161-.783-8.89.641-14.063,4.233-.737.512-1.427,1.03-2.091,1.549,1.03-7.192-.232-13.243-3.665-17.268a12.237,12.237,0,0,0-10.337-4.323c-4.687.323-8.276,1.9-10.666,4.685a14.236,14.236,0,0,0-3.01,6.525,182.129,182.129,0,0,1-8.16-36.534,68.383,68.383,0,0,0,23.845-14.477c6.752-6.227,11.74-13.161,13.682-19.022,1.3-3.906,1.125-7.144-.491-9.361a10.647,10.647,0,0,0-8.722-4.626h-.069c-4.009.025-10.383,2.305-17.989,13.021a82.189,82.189,0,0,0-11.224,23.251c-.195-3.485-.305-6.982-.305-10.494a183.667,183.667,0,0,1,2.267-28.76,68.38,68.38,0,0,0,27.046-6.507c8.329-3.875,15.191-8.96,18.826-13.95,2.423-3.326,3.247-6.461,2.383-9.065a10.642,10.642,0,0,0-6.964-7.083c-3.829-1.2-10.592-.969-21.1,6.923a82.473,82.473,0,0,0-18.257,19.432,183.759,183.759,0,0,1,14.384-41.485,63.671,63.671,0,0,0,15.357,1.811,72.686,72.686,0,0,0,12.484-1.086c9.048-1.582,16.993-4.712,21.8-8.588,3.2-2.584,4.812-5.4,4.654-8.139a10.647,10.647,0,0,0-4.888-8.649c-3.384-2.148-9.978-3.679-22.172,1.213a82.149,82.149,0,0,0-21.978,13.441A183.052,183.052,0,0,1,110.5,131.624q1.2-1.393,2.433-2.758a68.336,68.336,0,0,0,26.615,8.316,69.89,69.89,0,0,0,7.151.376c6.329,0,12-.93,16.164-2.7,3.786-1.613,6.1-3.882,6.695-6.561a10.651,10.651,0,0,0-2.349-9.652c-2.672-2.989-8.6-6.259-21.665-4.874a82.169,82.169,0,0,0-24.821,6.951,184.41,184.41,0,0,1,26.445-21.61,68.322,68.322,0,0,0,24.465,13.474,59.4,59.4,0,0,0,17.258,2.914,30.328,30.328,0,0,0,6.054-.557c4.032-.829,6.751-2.592,7.865-5.1a10.64,10.64,0,0,0-.38-9.926c-2.024-3.461-7.181-7.846-20.263-9.085a81.4,81.4,0,0,0-24.19,1.543,182.915,182.915,0,0,1,55.28-20.887,16.507,16.507,0,0,0-4.5,6.577,12.185,12.185,0,0,0,1.426,11.115c2.621,3.9,5.779,6.216,9.386,6.894a12.235,12.235,0,0,0,2.268.208c3.584,0,7.541-1.487,11.8-4.441.737-.512,1.426-1.029,2.09-1.549-1.03,7.193.232,13.244,3.665,17.268a12.139,12.139,0,0,0,9.408,4.354c.308,0,.618-.011.93-.031,4.686-.323,8.274-1.9,10.666-4.684,2.755-3.21,3.887-8.019,3.365-14.3-.075-.895-.179-1.752-.3-2.588,4.755,3.735,9.618,5.706,14.114,5.7a14.636,14.636,0,0,0,2.673-.242,12.182,12.182,0,0,0,8.913-6.791c2.064-4.219,2.493-8.115,1.277-11.579a14.252,14.252,0,0,0-4.124-5.85A182.436,182.436,0,0,1,322.03,82.738a68.357,68.357,0,0,0,.593,27.887c2.018,8.961,5.529,16.746,9.634,21.359,2.509,2.821,5.146,4.291,7.671,4.291a6.206,6.206,0,0,0,.682-.036,10.64,10.64,0,0,0,8.4-5.3c1.982-3.484,3.195-10.144-2.283-22.088a82.2,82.2,0,0,0-14.574-21.4,184.235,184.235,0,0,1,33.063,21.387,68.392,68.392,0,0,0-7.887,26.667c-.809,9.151.164,17.637,2.669,23.279,1.669,3.761,3.972,6.042,6.658,6.6a12.384,12.384,0,0,0,2.494.26,10.345,10.345,0,0,0,7.124-2.75c2.95-2.715,6.133-8.689,4.554-21.734a82.453,82.453,0,0,0-7.7-25.518,182.365,182.365,0,0,1,28.745,33.2,68.333,68.333,0,0,0-14.564,23.734c-3.154,8.626-4.416,17.072-3.461,23.173.636,4.066,2.269,6.867,4.721,8.1a11.46,11.46,0,0,0,5.154,1.277,10.258,10.258,0,0,0,4.78-1.185c3.553-1.856,8.178-6.8,10.037-19.809a82.145,82.145,0,0,0-.654-25.773,183.665,183.665,0,0,1,16.3,36.136,68.418,68.418,0,0,0-20.5,18.911c-5.384,7.442-8.9,15.226-9.643,21.356-.5,4.085.312,7.223,2.336,9.077a10.868,10.868,0,0,0,7.386,3.017,10.506,10.506,0,0,0,2.148-.224c3.924-.82,9.721-4.316,15.054-16.325a82.163,82.163,0,0,0,6.389-24.978,183.653,183.653,0,0,1,5.491,33.693,68.377,68.377,0,0,0-23.9,14.472c-6.758,6.223-11.75,13.152-13.7,19.011-1.3,3.9-1.13,7.141.484,9.359a10.651,10.651,0,0,0,8.728,4.634h.06c4.008-.022,10.384-2.3,18-13.006a81.439,81.439,0,0,0,10.754-21.706,183.051,183.051,0,0,1-9.541,58.331,16.518,16.518,0,0,0-3.45-7.216,12.216,12.216,0,0,0-10.338-4.323c-4.684.322-8.272,1.9-10.664,4.682-2.757,3.21-3.889,8.02-3.368,14.3.075.894.178,1.749.3,2.584-5.712-4.488-11.58-6.419-16.786-5.459a12.181,12.181,0,0,0-8.911,6.791c-2.064,4.219-2.494,8.115-1.278,11.578,1.4,3.992,5,7.377,10.7,10.061.809.382,1.6.724,2.384,1.039-6.742,2.7-11.35,6.821-13.118,11.805a12.185,12.185,0,0,0,1.425,11.115c2.622,3.9,5.781,6.217,9.389,6.895a12.3,12.3,0,0,0,2.266.208,15.494,15.494,0,0,0,4.774-.823A184.6,184.6,0,0,1,359.6,398.666ZM356.4,400.1c-5.171,1.667-17.663,5.007-31.464,3.709-9.155-.86-15.48-3.523-17.809-7.5a7.488,7.488,0,0,1-.225-7.011c.666-1.5,2.649-2.664,5.583-3.27a27.744,27.744,0,0,1,5.553-.511C329.189,385.517,345.034,390.652,356.4,400.1Zm-44.439,23.383c-5.432,0-18.322-.6-31.1-6.053-8.458-3.608-13.67-8.071-14.677-12.568a7.487,7.487,0,0,1,1.921-6.747c.878-.988,2.5-1.506,4.651-1.506a15.722,15.722,0,0,1,1.66.093C285.4,397.87,302.571,408.763,311.957,423.483Zm-52.985,10.8c-5.248-1.395-17.557-5.344-28.467-13.909-7.234-5.678-11.109-11.341-10.916-15.944a7.492,7.492,0,0,1,3.607-6.018,4.324,4.324,0,0,1,2.4-.613,11.59,11.59,0,0,1,4.066.886C238.64,402.148,253.335,416.243,258.972,434.28Zm-50.456-4.469c-4.671-2.774-15.437-9.927-23.6-21.136-5.412-7.434-7.6-13.939-6.159-18.316a7.486,7.486,0,0,1,5.108-4.808,3.423,3.423,0,0,1,1.044-.153,9.135,9.135,0,0,1,5.1,2.176C198.84,394.207,208,412.363,208.516,429.811ZM67.569,269.745c1.142-5.309,4.493-17.8,12.521-29.106,5.322-7.5,10.791-11.644,15.4-11.673h.05a7.5,7.5,0,0,1,6.135,3.31c.969,1.328.982,3.626.04,6.47C98.685,247.883,85.315,263.242,67.569,269.745Zm1.971-50.181c2.706-4.71,9.7-15.58,20.79-23.9,5.955-4.472,11.332-6.818,15.5-6.818a9.115,9.115,0,0,1,2.725.39,7.49,7.49,0,0,1,4.883,5.038c.517,1.559-.169,3.751-1.932,6.172C105,209.368,86.982,218.8,69.54,219.564Zm17.144-51.287c3.834-3.848,13.407-12.531,26.276-17.695,8.535-3.425,15.377-3.952,19.267-1.481a7.486,7.486,0,0,1,3.407,6.131c.1,1.642-1.137,3.581-3.468,5.462C123.57,167.628,103.722,172.058,86.684,168.277ZM150.4,97.7c5.173-1.662,17.658-4.986,31.465-3.683,9.155.867,15.478,3.536,17.8,7.514a7.491,7.491,0,0,1,.22,7.012c-.668,1.5-2.652,2.661-5.586,3.265C183.488,114.029,163.814,108.869,150.4,97.7Zm216.946,13.886a82.013,82.013,0,0,1,10.305,29.959c1.106,9.128-.153,15.873-3.544,18.994a7.49,7.49,0,0,1-6.8,1.71c-1.611-.331-3.165-2.021-4.38-4.759C358.445,147.394,359.291,127.072,367.347,111.583ZM424.549,198a82.072,82.072,0,0,1-6.506,31.007c-3.731,8.4-8.272,13.55-12.783,14.491a7.474,7.474,0,0,1-6.719-2.02c-1.212-1.11-1.681-3.359-1.32-6.333C398.551,224.183,409.694,207.169,424.549,198Zm7.909,44.54a82.014,82.014,0,0,1-12.545,29.1c-5.328,7.493-10.8,11.634-15.408,11.66h-.044a7.494,7.494,0,0,1-6.139-3.317c-.968-1.329-.979-3.626-.035-6.466C401.322,264.38,414.706,249.03,432.458,242.541Zm-27.489,94.614.016-.016a8.675,8.675,0,1,1,1.618,14.994c-.029-.012-.053-.029-.082-.04-.013,0-.026-.006-.038-.01-.259-.117-.514-.247-.765-.392a8.673,8.673,0,0,1-.793-14.511C404.938,337.169,404.955,337.167,404.969,337.155ZM392.25,367.1c-4.442,3.084-8.362,4.336-11.646,3.718-2.736-.513-5.2-2.377-7.326-5.536a8.94,8.94,0,0,1-1.064-8.26c1.666-4.7,6.868-8.688,14.271-10.955.285-.086.556-.164.83-.243a37.121,37.121,0,0,0,9.5,1.311c.678,0,1.254-.024,1.736-.055a11.845,11.845,0,0,0,5.327,7.225A36.022,36.022,0,0,1,392.25,367.1Zm7.52-28.868a11.792,11.792,0,0,0-1.584,5.658,36,36,0,0,1-16.89-3.675c-4.892-2.306-7.935-5.074-9.041-8.227-.922-2.626-.541-5.691,1.133-9.112a8.936,8.936,0,0,1,6.618-5.051c4.9-.91,10.959,1.6,16.626,6.884.22.2.424.4.631.6a35.5,35.5,0,0,0,4.518,10.346A11.9,11.9,0,0,0,399.77,338.236Zm18.635,44.771c-1.812,2.111-4.658,3.314-8.457,3.575a8.921,8.921,0,0,1-7.684-3.207c-3.235-3.791-4.091-10.292-2.352-17.834.069-.3.137-.574.206-.856a35.546,35.546,0,0,0,6.7-9.091,11.8,11.8,0,0,0,3.214.458,11.929,11.929,0,0,0,3.059-.4c.756,1.811,2.56,4.807,6.876,9.054a40.708,40.708,0,0,1,1.037,6.357C421.459,376.452,420.583,380.472,418.405,383.007Zm29.454-26.645c.922,2.625.541,5.691-1.132,9.112a8.937,8.937,0,0,1-6.621,5.05c-4.894.9-10.958-1.6-16.622-6.883-5.067-4.723-6.828-7.807-7.431-9.226a11.831,11.831,0,0,0,5.878-9.956,36,36,0,0,1,16.885,3.675C443.71,350.44,446.752,353.209,447.859,356.362Zm-20-35.113c4.444-3.084,8.358-4.333,11.649-3.719,2.734.515,5.2,2.378,7.323,5.537a8.94,8.94,0,0,1,1.064,8.26c-1.666,4.7-6.868,8.689-14.268,10.953-.289.088-.565.168-.842.249a35.482,35.482,0,0,0-11.224-1.26c-.013-.056-.021-.112-.036-.167a11.784,11.784,0,0,0-5.3-7.058A36,36,0,0,1,427.863,321.249Zm-14.571,11.509a11.8,11.8,0,0,0-6.31-.056,11.938,11.938,0,0,0-2.613,1.056,35.98,35.98,0,0,1-5.265-16.466c-.45-5.392.427-9.412,2.606-11.947,1.812-2.111,4.657-3.313,8.455-3.574a8.92,8.92,0,0,1,7.685,3.208c3.234,3.791,4.091,10.292,2.351,17.836-.067.3-.137.572-.206.852A35.517,35.517,0,0,0,413.292,332.758Zm62.079-57.523a7.486,7.486,0,0,1-5.727,4.05c-4.577.537-10.517-2.9-16.724-9.681-9.363-10.232-14.232-22.208-16.02-27.335,18.414,4.26,33.579,17.849,37.712,26.542C475.9,271.516,476.168,273.8,475.371,275.235Z" style="fill:#231f20"/></svg>