<?xml version="1.0" encoding="utf-8"?>
<!-- Generator: Adobe Illustrator 24.0.0, SVG Export Plug-In . SVG Version: 6.00 Build 0)  -->
<svg version="1.1" xmlns="http://www.w3.org/2000/svg" xmlns:xlink="http://www.w3.org/1999/xlink" x="0px" y="0px"
	 viewBox="0 0 256 256" enable-background="new 0 0 256 256" xml:space="preserve">
<g id="Layer_1">
</g>
<g id="Layer_2">
</g>
<g id="Layer_3">
</g>
<g id="Layer_4">
</g>
<g id="Layer_5">
</g>
<g id="Layer_6">
</g>
<g id="Layer_7">
</g>
<g id="Layer_8">
</g>
<g id="Layer_9">
</g>
<g id="Layer_10">
</g>
<g id="Layer_11">
</g>
<g id="Layer_12">
</g>
<g id="Layer_13">
</g>
<g id="Layer_14">
</g>
<g id="Layer_15">
</g>
<g id="Layer_16">
</g>
<g id="Layer_17">
</g>
<g id="Layer_18">
</g>
<g id="Layer_19">
</g>
<g id="Layer_20">
</g>
<g id="Layer_21">
</g>
<g id="Layer_22">
</g>
<g id="Layer_23">
</g>
<g id="Layer_24">
</g>
<g id="Layer_25">
</g>
<g id="Layer_26">
</g>
<g id="Layer_27">
</g>
<g id="Layer_28">
</g>
<g id="Layer_29">
</g>
<g id="Layer_30">
</g>
<g id="Layer_31">
</g>
<g id="Layer_32">
</g>
<g id="Layer_33">
</g>
<g id="Layer_34">
</g>
<g id="Layer_35">
</g>
<g id="Layer_36">
</g>
<g id="Layer_37">
</g>
<g id="Layer_38">
</g>
<g id="Layer_39">
</g>
<g id="Layer_40">
</g>
<g id="Layer_41">
</g>
<g id="Layer_42">
</g>
<g id="Layer_43">
</g>
<g id="Layer_44">
</g>
<g id="Layer_45">
</g>
<g id="Layer_46">
</g>
<g id="Layer_47">
</g>
<g id="Layer_48">
</g>
<g id="Layer_49">
</g>
<g id="Layer_50">
</g>
<g id="Layer_51">
</g>
<g id="Layer_52">
</g>
<g id="Layer_53">
</g>
<g id="Layer_54">
</g>
<g id="Layer_55">
</g>
<g id="Layer_56">
</g>
<g id="Layer_57">
</g>
<g id="Layer_58">
</g>
<g id="Layer_59">
</g>
<g id="Layer_60">
</g>
<g id="Layer_61">
</g>
<g id="Layer_62">
	<g>
		<g>
			<g>
				<circle fill="#9BE5F9" cx="49.327" cy="60.925" r="40.5"/>
			</g>
		</g>
		<g>
			<g>
				<circle fill="#9BE5F9" cx="49.327" cy="195.075" r="40.5"/>
			</g>
		</g>
		<g>
			<g>
				<path fill="#F5C84C" d="M77.427,190.753h-5.684c-0.31,0-0.574-0.218-0.641-0.521c-0.569-2.57-1.581-4.974-2.953-7.127
					c-0.167-0.262-0.134-0.603,0.085-0.822l4.02-4.02c0.256-0.256,0.256-0.672,0-0.928l-5.185-5.185
					c-0.256-0.256-0.672-0.256-0.929,0l-4.02,4.02c-0.219,0.219-0.56,0.252-0.822,0.085c-2.153-1.372-4.556-2.384-7.127-2.953
					c-0.303-0.067-0.521-0.331-0.521-0.641v-5.684c0-0.363-0.294-0.656-0.657-0.656h-7.332c-0.363,0-0.657,0.294-0.657,0.656v5.684
					c0,0.31-0.218,0.574-0.521,0.641c-2.57,0.569-4.974,1.581-7.127,2.953c-0.262,0.167-0.603,0.134-0.822-0.085l-4.02-4.02
					c-0.256-0.256-0.672-0.256-0.929,0l-5.185,5.185c-0.256,0.256-0.256,0.672,0,0.928l4.02,4.02
					c0.219,0.219,0.252,0.56,0.085,0.822c-1.372,2.153-2.384,4.556-2.953,7.127c-0.067,0.303-0.331,0.521-0.641,0.521h-5.684
					c-0.363,0-0.657,0.294-0.657,0.656v7.333c0,0.363,0.294,0.657,0.657,0.657h5.684c0.31,0,0.574,0.218,0.641,0.521
					c0.569,2.57,1.581,4.974,2.953,7.127c0.167,0.262,0.134,0.603-0.085,0.822l-4.02,4.02c-0.256,0.256-0.256,0.672,0,0.928
					l5.185,5.185c0.256,0.257,0.672,0.257,0.929,0l4.02-4.02c0.219-0.219,0.56-0.252,0.822-0.085
					c2.153,1.372,4.556,2.384,7.127,2.953c0.303,0.067,0.521,0.331,0.521,0.641v5.684c0,0.363,0.294,0.656,0.657,0.656h7.332
					c0.363,0,0.657-0.294,0.657-0.656v-5.684c0-0.31,0.218-0.574,0.521-0.641c2.57-0.569,4.974-1.581,7.127-2.953
					c0.262-0.167,0.603-0.134,0.822,0.085l4.02,4.02c0.256,0.257,0.672,0.257,0.929,0l5.185-5.185c0.256-0.256,0.256-0.672,0-0.928
					l-4.02-4.02c-0.219-0.219-0.252-0.56-0.085-0.822c1.372-2.153,2.384-4.556,2.953-7.127c0.067-0.303,0.331-0.521,0.641-0.521
					h5.684c0.363,0,0.657-0.294,0.657-0.657v-7.333C78.084,191.047,77.79,190.753,77.427,190.753z"/>
			</g>
		</g>
		<g>
			<g>
				<circle fill="#9BE5F9" cx="49.327" cy="195.075" r="12.5"/>
			</g>
		</g>
		<g>
			<g>
				<path fill="#F5C84C" d="M77.427,56.602h-5.684c-0.31,0-0.574-0.218-0.641-0.521c-0.569-2.571-1.581-4.974-2.953-7.127
					c-0.167-0.262-0.134-0.603,0.085-0.822l4.02-4.02c0.256-0.256,0.256-0.672,0-0.929l-5.185-5.185
					c-0.256-0.257-0.672-0.257-0.929,0l-4.02,4.02c-0.219,0.219-0.56,0.252-0.822,0.085c-2.153-1.372-4.556-2.384-7.127-2.953
					c-0.303-0.067-0.521-0.331-0.521-0.641v-5.684c0-0.363-0.294-0.656-0.657-0.656h-7.332c-0.363,0-0.657,0.294-0.657,0.656v5.684
					c0,0.31-0.218,0.574-0.521,0.641c-2.57,0.569-4.974,1.581-7.127,2.953c-0.262,0.167-0.603,0.134-0.822-0.085l-4.02-4.02
					c-0.256-0.257-0.672-0.257-0.929,0l-5.185,5.185c-0.256,0.257-0.256,0.672,0,0.929l4.02,4.02
					c0.219,0.219,0.252,0.56,0.085,0.822c-1.372,2.153-2.384,4.556-2.953,7.127c-0.067,0.303-0.331,0.521-0.641,0.521h-5.684
					c-0.363,0-0.657,0.294-0.657,0.657v7.333c0,0.363,0.294,0.656,0.657,0.656h5.684c0.31,0,0.574,0.218,0.641,0.521
					c0.569,2.57,1.581,4.974,2.953,7.126c0.167,0.262,0.134,0.603-0.085,0.822l-4.02,4.02c-0.256,0.256-0.256,0.672,0,0.928
					l5.185,5.185c0.256,0.256,0.672,0.256,0.929,0l4.02-4.02c0.219-0.219,0.56-0.252,0.822-0.085
					c2.153,1.372,4.556,2.384,7.127,2.953c0.303,0.067,0.521,0.331,0.521,0.641v5.684c0,0.363,0.294,0.657,0.657,0.657h7.332
					c0.363,0,0.657-0.294,0.657-0.657V83.34c0-0.31,0.218-0.574,0.521-0.641c2.57-0.569,4.974-1.581,7.127-2.953
					c0.262-0.167,0.603-0.135,0.822,0.085l4.02,4.02c0.256,0.256,0.672,0.256,0.929,0l5.185-5.185c0.256-0.256,0.256-0.672,0-0.928
					l-4.02-4.02c-0.219-0.219-0.252-0.561-0.085-0.822c1.372-2.152,2.384-4.556,2.953-7.126c0.067-0.303,0.331-0.521,0.641-0.521
					h5.684c0.363,0,0.657-0.294,0.657-0.656v-7.333C78.084,56.896,77.79,56.602,77.427,56.602z"/>
			</g>
		</g>
		<g>
			<g>
				<circle fill="#9BE5F9" cx="49.327" cy="60.925" r="12.5"/>
			</g>
		</g>
		<g>
			<g>
				
					<ellipse transform="matrix(0.0985 -0.9951 0.9951 0.0985 41.3981 301.6998)" fill="#FC657E" cx="187.224" cy="128" rx="66.276" ry="66.276"/>
			</g>
		</g>
		<g>
			<g>
				<path fill="#F5C84C" d="M233.207,120.926h-9.302c-0.508,0-0.939-0.357-1.049-0.853c-0.931-4.206-2.588-8.14-4.833-11.662
					c-0.273-0.428-0.22-0.986,0.139-1.345l6.578-6.579c0.42-0.42,0.42-1.1,0-1.52l-8.485-8.485c-0.42-0.419-1.1-0.419-1.52,0
					l-6.578,6.579c-0.359,0.359-0.917,0.412-1.345,0.139c-3.523-2.245-7.456-3.901-11.662-4.833
					c-0.496-0.11-0.853-0.542-0.853-1.049v-9.302c0-0.594-0.481-1.074-1.075-1.074h-11.999c-0.593,0-1.075,0.481-1.075,1.074v9.302
					c0,0.508-0.357,0.939-0.853,1.049c-4.206,0.931-8.14,2.588-11.662,4.833c-0.428,0.273-0.986,0.22-1.345-0.139l-6.579-6.579
					c-0.42-0.419-1.1-0.419-1.52,0l-8.485,8.485c-0.42,0.42-0.42,1.1,0,1.52l6.578,6.579c0.359,0.359,0.412,0.917,0.139,1.345
					c-2.245,3.522-3.901,7.456-4.833,11.662c-0.11,0.496-0.541,0.853-1.049,0.853h-9.302c-0.593,0-1.074,0.481-1.074,1.075V134
					c0,0.594,0.481,1.075,1.074,1.075h9.302c0.508,0,0.939,0.357,1.049,0.853c0.932,4.206,2.588,8.14,4.833,11.662
					c0.273,0.428,0.22,0.986-0.139,1.345l-6.578,6.579c-0.42,0.419-0.42,1.1,0,1.52l8.485,8.485c0.42,0.42,1.1,0.42,1.52,0
					l6.579-6.578c0.359-0.359,0.917-0.412,1.345-0.139c3.523,2.245,7.456,3.901,11.662,4.833c0.496,0.11,0.853,0.542,0.853,1.049
					v9.302c0,0.594,0.481,1.075,1.075,1.075h11.999c0.593,0,1.075-0.481,1.075-1.075v-9.302c0-0.508,0.357-0.939,0.853-1.049
					c4.206-0.931,8.14-2.588,11.662-4.833c0.428-0.273,0.986-0.22,1.345,0.139l6.578,6.578c0.42,0.42,1.1,0.42,1.52,0l8.485-8.485
					c0.42-0.42,0.42-1.1,0-1.52l-6.578-6.579c-0.359-0.359-0.412-0.917-0.139-1.345c2.245-3.522,3.901-7.456,4.833-11.662
					c0.11-0.496,0.541-0.853,1.049-0.853h9.302c0.593,0,1.074-0.481,1.074-1.075V122
					C234.282,121.407,233.801,120.926,233.207,120.926z"/>
			</g>
		</g>
		<g>
			<g>
				<circle fill="#FC657E" cx="187.224" cy="128" r="23.456"/>
			</g>
		</g>
		<g>
			<g>
				<path fill="#F5C84C" d="M26.8,115.396c-4.5-0.8-8-4.3-8.9-8.7c0-0.2-0.4-0.2-0.4,0c-0.9,4.4-4.4,7.9-8.9,8.7
					c-0.2,0-0.2,0.3,0,0.4c4.5,0.8,8,4.3,8.9,8.7c0,0.2,0.4,0.2,0.4,0c0.9-4.4,4.4-7.9,8.9-8.7C27,115.697,27,115.396,26.8,115.396z
					"/>
			</g>
		</g>
		<g>
			<g>
				<path fill="#87D147" d="M176.61,36.51c-3.158-0.561-5.613-3.017-6.245-6.104c0-0.14-0.281-0.14-0.281,0
					c-0.631,3.087-3.087,5.543-6.245,6.104c-0.14,0-0.14,0.211,0,0.281c3.158,0.561,5.613,3.017,6.245,6.104
					c0,0.14,0.281,0.14,0.281,0c0.631-3.087,3.087-5.543,6.245-6.104C176.75,36.72,176.75,36.51,176.61,36.51z"/>
			</g>
		</g>
		<g>
			<g>
				<path fill="#70D6F9" d="M211.7,212.646h-2.3v-2.3c0-1.7-1.4-3.2-3.2-3.2s-3.2,1.4-3.2,3.2v2.3h-2.3c-1.7,0-3.2,1.4-3.2,3.2
					c0,1.8,1.4,3.2,3.2,3.2h2.3v2.3c0,1.7,1.4,3.2,3.2,3.2s3.2-1.4,3.2-3.2v-2.3h2.3c1.7,0,3.2-1.4,3.2-3.2
					C214.9,214.047,213.5,212.646,211.7,212.646z"/>
			</g>
		</g>
		<g>
			<g>
				<path fill="#FC657E" d="M3.4,136c-1.878,0-3.4,1.522-3.4,3.4c0,1.878,1.522,3.4,3.4,3.4c1.878,0,3.4-1.522,3.4-3.4
					C6.8,137.522,5.278,136,3.4,136z"/>
			</g>
		</g>
		<g>
			<g>
				<path fill="#F5C84C" d="M227.8,195c-1.878,0-3.4,1.522-3.4,3.4c0,1.878,1.522,3.4,3.4,3.4s3.4-1.522,3.4-3.4
					C231.2,196.522,229.677,195,227.8,195z"/>
			</g>
		</g>
		<g>
			<g>
				<path d="M192.208,59.466L62.554,20.107c-1.32-0.398-2.717,0.345-3.118,1.666s0.345,2.718,1.666,3.119l129.655,39.358
					c0.242,0.073,0.486,0.108,0.727,0.108c1.072,0,2.063-0.695,2.391-1.774C194.276,61.264,193.53,59.867,192.208,59.466z"/>
			</g>
		</g>
		<g>
			<g>
				<path d="M139.369,170.26L27.09,91.729c-1.131-0.789-2.689-0.516-3.482,0.616c-0.791,1.131-0.516,2.689,0.616,3.481
					l112.279,78.531c0.437,0.305,0.936,0.451,1.431,0.451c0.788,0,1.564-0.372,2.051-1.067
					C140.776,172.61,140.5,171.052,139.369,170.26z"/>
			</g>
		</g>
		<g>
			<g>
				<path d="M193.875,193.415c-0.401-1.321-1.8-2.064-3.118-1.666L61.102,231.107c-1.321,0.401-2.067,1.798-1.666,3.119
					c0.328,1.079,1.319,1.774,2.391,1.774c0.241,0,0.485-0.035,0.727-0.108l129.655-39.358
					C193.53,196.133,194.276,194.736,193.875,193.415z"/>
			</g>
		</g>
		<g>
			<g>
				<path d="M139.985,82.259c-0.792-1.131-2.35-1.405-3.482-0.616L24.224,160.174c-1.131,0.792-1.407,2.351-0.616,3.481
					c0.486,0.695,1.262,1.067,2.051,1.067c0.495,0,0.995-0.146,1.431-0.451L139.369,85.74
					C140.5,84.948,140.776,83.39,139.985,82.259z"/>
			</g>
		</g>
		<g>
			<g>
				<g>
					<path d="M49.328,17.925c-23.71,0-43,19.29-43,43s19.29,43,43,43s43-19.29,43-43S73.038,17.925,49.328,17.925z M49.328,98.925
						c-20.953,0-38-17.047-38-38s17.047-38,38-38s38,17.047,38,38S70.281,98.925,49.328,98.925z"/>
				</g>
			</g>
		</g>
		<g>
			<g>
				<g>
					<path d="M49.328,152.075c-23.71,0-43,19.29-43,43s19.29,43,43,43s43-19.29,43-43S73.038,152.075,49.328,152.075z
						 M49.328,233.075c-20.953,0-38-17.047-38-38s17.047-38,38-38s38,17.047,38,38S70.281,233.075,49.328,233.075z"/>
				</g>
			</g>
		</g>
		<g>
			<g>
				<g>
					<g>
						<path d="M77.427,188.253h-4.249c-0.519-1.818-1.242-3.564-2.162-5.218l3.003-3.003c0.597-0.597,0.926-1.39,0.926-2.233
							c0-0.843-0.328-1.635-0.925-2.232l-5.183-5.183c-1.193-1.195-3.276-1.193-4.466-0.002l-3.005,3.005
							c-1.655-0.921-3.401-1.645-5.217-2.162v-4.249c0-1.74-1.416-3.156-3.157-3.156h-7.333c-1.741,0-3.157,1.416-3.157,3.156v4.249
							c-1.818,0.518-3.564,1.242-5.217,2.162l-3.003-3.003c-1.191-1.194-3.272-1.196-4.466-0.002l-5.187,5.187
							c-0.595,0.596-0.923,1.388-0.923,2.23c0,0.844,0.329,1.637,0.924,2.231l3.005,3.005c-0.92,1.654-1.644,3.4-2.162,5.218h-4.248
							c-1.741,0-3.157,1.416-3.157,3.156v7.332c0,1.741,1.416,3.157,3.157,3.157h4.248c0.519,1.817,1.242,3.563,2.163,5.217
							l-3.003,3.004c-0.597,0.597-0.926,1.39-0.926,2.233s0.329,1.637,0.924,2.231l5.188,5.189c1.229,1.226,3.23,1.224,4.461-0.004
							l3.004-3.005c1.653,0.92,3.4,1.644,5.217,2.162v4.248c0,1.741,1.416,3.157,3.157,3.157h7.333c1.741,0,3.157-1.416,3.157-3.157
							v-4.248c1.818-0.519,3.563-1.242,5.217-2.162l3.006,3.007c1.229,1.227,3.23,1.229,4.463-0.002l5.183-5.184
							c0.597-0.597,0.926-1.39,0.926-2.233s-0.329-1.637-0.924-2.231l-3.005-3.006c0.92-1.652,1.644-3.399,2.163-5.217h4.249
							c1.74,0,3.156-1.416,3.156-3.157v-7.332C80.583,189.669,79.167,188.253,77.427,188.253z M75.583,196.898h-3.841
							c-1.491,0-2.758,1.02-3.082,2.48c-0.498,2.25-1.38,4.377-2.622,6.325c-0.802,1.26-0.627,2.876,0.426,3.932l2.717,2.717
							l-2.578,2.578l-2.715-2.715c-1.054-1.058-2.672-1.234-3.935-0.428c-1.946,1.24-4.074,2.122-6.326,2.621
							c-1.459,0.325-2.478,1.592-2.478,3.082v3.841h-3.646v-3.841c0-1.49-1.019-2.757-2.48-3.082
							c-2.25-0.499-4.377-1.381-6.322-2.62c-1.263-0.805-2.88-0.63-3.935,0.425l-2.716,2.717l-2.578-2.578l2.718-2.719
							c1.053-1.056,1.227-2.673,0.424-3.932c-1.241-1.947-2.123-4.074-2.62-6.32c-0.322-1.462-1.59-2.483-3.083-2.483h-3.841v-3.646
							h3.841c1.492,0,2.759-1.021,3.082-2.48c0.498-2.249,1.38-4.376,2.62-6.323c0.806-1.263,0.63-2.881-0.424-3.934l-2.717-2.717
							l2.578-2.578l2.717,2.716c1.052,1.053,2.668,1.229,3.934,0.427c1.948-1.242,4.075-2.123,6.326-2.621
							c1.459-0.325,2.478-1.592,2.478-3.082v-3.841h3.646v3.841c0,1.49,1.019,2.757,2.481,3.083
							c2.247,0.496,4.375,1.378,6.327,2.623c1.262,0.8,2.879,0.623,3.929-0.43l2.717-2.716l2.578,2.578l-2.714,2.715
							c-1.056,1.053-1.232,2.67-0.428,3.935c1.241,1.947,2.123,4.074,2.621,6.326c0.325,1.459,1.592,2.479,3.082,2.479h3.841
							V196.898z"/>
					</g>
				</g>
			</g>
		</g>
		<g>
			<g>
				<g>
					<path d="M49.328,180.075c-8.271,0-15,6.729-15,15s6.729,15,15,15s15-6.729,15-15S57.599,180.075,49.328,180.075z
						 M49.328,205.075c-5.514,0-10-4.486-10-10s4.486-10,10-10s10,4.486,10,10S54.842,205.075,49.328,205.075z"/>
				</g>
			</g>
		</g>
		<g>
			<g>
				<g>
					<g>
						<path d="M77.427,54.102h-4.249c-0.519-1.818-1.242-3.564-2.162-5.218l3.003-3.003c0.597-0.597,0.926-1.39,0.926-2.233
							s-0.329-1.637-0.924-2.231l-5.187-5.188c-1.229-1.227-3.23-1.229-4.463,0.002l-3.004,3.005c-1.654-0.92-3.4-1.644-5.217-2.162
							v-4.248c0-1.741-1.416-3.157-3.157-3.157h-7.333c-1.741,0-3.157,1.416-3.157,3.157v4.248
							c-1.818,0.519-3.564,1.242-5.217,2.162l-3.006-3.007c-1.229-1.227-3.229-1.227-4.463,0.002l-5.183,5.184
							c-0.597,0.597-0.926,1.39-0.926,2.233s0.329,1.637,0.924,2.231l3.005,3.006c-0.92,1.653-1.644,3.398-2.162,5.217h-4.249
							c-1.741,0-3.157,1.416-3.157,3.157v7.332c0,1.74,1.416,3.156,3.157,3.156h4.248c0.519,1.816,1.242,3.563,2.162,5.218
							l-3.003,3.003c-0.597,0.597-0.926,1.39-0.926,2.233c0,0.843,0.328,1.635,0.925,2.232l5.185,5.185
							c1.193,1.194,3.276,1.19,4.464,0l3.005-3.005c1.654,0.921,3.401,1.645,5.217,2.162v4.249c0,1.74,1.416,3.156,3.157,3.156
							h7.333c1.741,0,3.157-1.416,3.157-3.156v-4.249c1.818-0.518,3.564-1.242,5.217-2.162l3.003,3.003
							c1.193,1.195,3.276,1.193,4.466,0.002l5.187-5.187c0.595-0.596,0.923-1.388,0.923-2.23c0-0.844-0.329-1.637-0.924-2.231
							l-3.005-3.005c0.92-1.654,1.644-3.4,2.162-5.218h4.249c1.74,0,3.156-1.416,3.156-3.156v-7.332
							C80.583,55.518,79.167,54.102,77.427,54.102z M75.583,62.747h-3.841c-1.489,0-2.757,1.02-3.082,2.48
							c-0.498,2.25-1.38,4.377-2.622,6.326c-0.803,1.263-0.627,2.88,0.426,3.931l2.717,2.717l-2.578,2.578l-2.715-2.714
							c-1.052-1.056-2.668-1.232-3.935-0.429c-1.948,1.242-4.076,2.124-6.326,2.621c-1.459,0.325-2.478,1.592-2.478,3.082v3.841
							h-3.646V83.34c0-1.49-1.019-2.757-2.481-3.083c-2.247-0.497-4.375-1.378-6.327-2.623c-1.262-0.8-2.876-0.623-3.929,0.43
							l-2.717,2.716l-2.578-2.578l2.714-2.715c1.057-1.055,1.232-2.673,0.428-3.934c-1.241-1.949-2.123-4.076-2.621-6.323
							c-0.323-1.462-1.59-2.482-3.082-2.482h-3.841v-3.646h3.841c1.493,0,2.76-1.021,3.082-2.48c0.498-2.249,1.38-4.376,2.62-6.322
							c0.804-1.26,0.63-2.877-0.424-3.935l-2.717-2.717l2.578-2.578l2.717,2.717c1.056,1.055,2.675,1.229,3.934,0.426
							c1.946-1.24,4.073-2.122,6.326-2.621c1.459-0.325,2.478-1.592,2.478-3.082v-3.841h3.646v3.841c0,1.49,1.019,2.757,2.48,3.082
							c2.25,0.499,4.377,1.381,6.323,2.62c1.264,0.806,2.881,0.631,3.935-0.425l2.716-2.717l2.578,2.578l-2.718,2.719
							c-1.052,1.054-1.227,2.67-0.423,3.932c1.24,1.946,2.122,4.073,2.621,6.323c0.324,1.461,1.591,2.48,3.082,2.48h3.841V62.747z"
							/>
					</g>
				</g>
			</g>
		</g>
		<g>
			<g>
				<g>
					<path d="M49.328,45.925c-8.271,0-15,6.729-15,15s6.729,15,15,15s15-6.729,15-15S57.599,45.925,49.328,45.925z M49.328,70.925
						c-5.514,0-10-4.486-10-10s4.486-10,10-10s10,4.486,10,10S54.842,70.925,49.328,70.925z"/>
				</g>
			</g>
		</g>
		<g>
			<g>
				<g>
					<path d="M187.224,59.224c-37.923,0-68.776,30.853-68.776,68.776s30.853,68.776,68.776,68.776S256,165.924,256,128
						S225.147,59.224,187.224,59.224z M187.224,191.776c-35.167,0-63.776-28.61-63.776-63.776s28.61-63.776,63.776-63.776
						S251,92.834,251,128S222.39,191.776,187.224,191.776z"/>
				</g>
			</g>
		</g>
		<g>
			<g>
				<g>
					<g>
						<path d="M233.208,118.426h-8.173c-0.922-3.659-2.367-7.146-4.306-10.392l5.779-5.779c0.676-0.675,1.048-1.572,1.048-2.528
							c0-0.954-0.371-1.852-1.047-2.527l-8.484-8.483c-1.35-1.352-3.704-1.354-5.056-0.001l-5.779,5.78
							c-3.245-1.938-6.73-3.383-10.392-4.307v-8.172c0-1.971-1.604-3.574-3.575-3.574h-11.999c-1.971,0-3.575,1.604-3.575,3.574
							v8.172c-3.66,0.923-7.145,2.367-10.391,4.307l-5.779-5.779c-1.351-1.352-3.706-1.354-5.056-0.001l-8.484,8.484
							c-0.676,0.676-1.048,1.574-1.047,2.53c0,0.955,0.373,1.853,1.047,2.524l5.78,5.78c-1.938,3.246-3.383,6.732-4.306,10.392
							h-8.172c-1.971,0-3.575,1.604-3.575,3.574v12c0,1.971,1.604,3.574,3.575,3.574h8.172c0.922,3.658,2.367,7.144,4.306,10.392
							l-5.779,5.779c-0.675,0.675-1.047,1.573-1.047,2.527c0,0.955,0.372,1.854,1.047,2.528l8.484,8.484
							c1.351,1.353,3.707,1.349,5.055,0l5.779-5.78c3.245,1.938,6.731,3.383,10.392,4.307v8.172c0,1.971,1.604,3.574,3.575,3.574
							h11.999c1.971,0,3.575-1.604,3.575-3.574v-8.172c3.659-0.923,7.146-2.367,10.391-4.307l5.78,5.78
							c1.352,1.353,3.708,1.349,5.055,0l8.486-8.485c1.392-1.394,1.392-3.66-0.001-5.055l-5.78-5.779
							c1.939-3.247,3.384-6.733,4.306-10.392h8.173c1.971,0,3.574-1.604,3.574-3.574v-12
							C236.782,120.029,235.178,118.426,233.208,118.426z M231.782,132.574h-7.876c-1.688,0-3.123,1.156-3.49,2.813
							c-0.854,3.861-2.369,7.515-4.499,10.858c-0.912,1.429-0.715,3.262,0.479,4.457l5.571,5.571l-6.469,6.469l-5.572-5.572
							c-1.195-1.194-3.028-1.389-4.456-0.479c-3.343,2.131-6.996,3.645-10.856,4.5c-1.657,0.365-2.815,1.801-2.815,3.49v7.876
							h-9.148v-7.876c0-1.689-1.157-3.124-2.812-3.489c-3.863-0.856-7.517-2.37-10.858-4.5c-1.428-0.91-3.26-0.716-4.458,0.479
							l-5.57,5.571l-6.469-6.47l5.57-5.57c1.195-1.194,1.392-3.027,0.48-4.455c-2.131-3.346-3.645-6.999-4.5-10.862
							c-0.367-1.654-1.802-2.811-3.49-2.811h-7.876v-9.148h7.876c1.688,0,3.123-1.156,3.49-2.813
							c0.855-3.862,2.369-7.517,4.499-10.858c0.913-1.43,0.716-3.263-0.479-4.457l-5.57-5.571l6.468-6.469l5.573,5.574
							c1.195,1.19,3.028,1.388,4.454,0.477c3.343-2.131,6.997-3.645,10.857-4.5c1.657-0.366,2.814-1.801,2.814-3.49v-7.876h9.148
							v7.876c0,1.689,1.158,3.125,2.813,3.489c3.863,0.856,7.516,2.37,10.857,4.5c1.429,0.912,3.262,0.717,4.458-0.479l5.57-5.571
							l6.469,6.469l-5.572,5.572c-1.193,1.194-1.39,3.027-0.479,4.455c2.131,3.343,3.645,6.997,4.5,10.861
							c0.367,1.654,1.802,2.811,3.49,2.811h7.876V132.574z"/>
					</g>
				</g>
			</g>
		</g>
		<g>
			<g>
				<g>
					<path d="M187.224,102.044c-14.312,0-25.956,11.644-25.956,25.956s11.644,25.956,25.956,25.956s25.956-11.644,25.956-25.956
						S201.536,102.044,187.224,102.044z M187.224,148.956c-11.555,0-20.956-9.4-20.956-20.956s9.4-20.956,20.956-20.956
						s20.956,9.4,20.956,20.956S198.779,148.956,187.224,148.956z"/>
				</g>
			</g>
		</g>
	</g>
</g>
<g id="Layer_63">
</g>
<g id="Layer_64">
</g>
<g id="Layer_65">
</g>
<g id="Layer_66">
</g>
<g id="Layer_67">
</g>
<g id="Layer_68">
</g>
<g id="Layer_69">
</g>
<g id="Layer_70">
</g>
<g id="Layer_71">
</g>
<g id="Layer_72">
</g>
<g id="Layer_73">
</g>
<g id="Layer_74">
</g>
<g id="Layer_75">
</g>
<g id="Layer_76">
</g>
<g id="Layer_77">
</g>
<g id="Layer_78">
</g>
<g id="Layer_79">
</g>
<g id="Layer_80">
</g>
<g id="Layer_81">
</g>
<g id="Layer_82">
</g>
<g id="Layer_83">
</g>
<g id="Layer_84">
</g>
<g id="Layer_85">
</g>
<g id="Layer_86">
</g>
<g id="Layer_87">
</g>
<g id="Layer_88">
</g>
<g id="Layer_89">
</g>
<g id="Layer_90">
</g>
</svg>
