<?xml version="1.0" encoding="utf-8"?>
<!-- Generator: Adobe Illustrator 16.0.0, SVG Export Plug-In . SVG Version: 6.00 Build 0)  -->
<!DOCTYPE svg PUBLIC "-//W3C//DTD SVG 1.0//EN" "http://www.w3.org/TR/2001/REC-SVG-20010904/DTD/svg10.dtd">
<svg version="1.0" id="Layer_1" xmlns="http://www.w3.org/2000/svg" xmlns:xlink="http://www.w3.org/1999/xlink" x="0px" y="0px"
	 width="100px" height="100px" viewBox="0 0 100 100" enable-background="new 0 0 100 100" xml:space="preserve">
<path d="M70,44.597C69.997,29.805,61.94,16.917,50,10c-11.946,6.917-20,19.805-20,34.597h0.01c0,9.902,7.21,18.102,16.657,19.693
	v0.293c0,7.826-3.044,15.18-8.568,20.703L42.813,90c7.019-7.015,10.521-16.218,10.521-25.417V64.29
	C62.79,62.702,70,54.502,70,44.597z"/>
<path d="M88.64,20.137c-6.836-1.819-14.05-1.758-20.879,0.104C72.39,27.405,74.997,35.837,75,44.597
	c0,8.128-3.919,15.338-9.944,19.905c4.817-0.208,9.576-2.087,13.255-5.769l0.007,0.01C88.779,48.281,92.197,33.477,88.64,20.137z"/>
<path d="M11.36,20.137c6.836-1.819,14.05-1.758,20.879,0.104C27.61,27.405,25.003,35.837,25,44.597
	c0,8.128,3.919,15.338,9.944,19.905c-4.817-0.208-9.576-2.087-13.255-5.769l-0.007,0.01C11.221,48.281,7.803,33.477,11.36,20.137z"
	/>
</svg>
