<svg id="icons" xmlns="http://www.w3.org/2000/svg" viewBox="0 0 64 64"><defs><style>.cls-1{fill:none;stroke:#000;stroke-linecap:round;stroke-linejoin:round;}</style></defs><title>lettuce_1</title><g id="lettuce_1"><path class="cls-1" d="M36.21317,57.43928A2.83985,2.83985,0,0,1,33.4159,60H30.89444a2.83994,2.83994,0,0,1-2.79729-2.56091,23.182,23.182,0,0,0-4.26562-10.86519,4.43,4.43,0,0,0-2.64745-1.621,6.474,6.474,0,0,1-2.93959-11.06283,6.47357,6.47357,0,0,1,.09838-12.521A6.47145,6.47145,0,0,1,22.1837,10.55477a6.39435,6.39435,0,0,1,4.38.94938,5.68385,5.68385,0,0,1-.25294-1.71232,5.78272,5.78272,0,1,1,11.56533-.00215,5.51186,5.51186,0,0,1-.295,1.81285,6.47432,6.47432,0,0,1,8.37534,9.76655,6.47125,6.47125,0,0,1,.11245,12.521A6.47238,6.47238,0,0,1,43.11993,44.953a4.42791,4.42791,0,0,0-2.65276,1.62549A23.225,23.225,0,0,0,36.21317,57.43928Z"/><line class="cls-1" x1="32.15664" y1="60" x2="32.15664" y2="14.88247"/><path class="cls-1" d="M32.15664,24.86349s2.375-7.10755,7.38838-7.10755"/><path class="cls-1" d="M32.15664,37.15663s2.375-7.10755,7.38838-7.10755"/><path class="cls-1" d="M32.15664,49.44976s2.375-7.10755,7.38838-7.10755"/><path class="cls-1" d="M32.15682,24.868s-2.375-7.10755-7.38838-7.10755"/><path class="cls-1" d="M32.15682,37.16116s-2.375-7.10755-7.38838-7.10755"/><path class="cls-1" d="M32.15682,49.4543s-2.375-7.10755-7.38838-7.10755"/><path class="cls-1" d="M17.51372,12.76923a11.99062,11.99062,0,0,0-4.97466-.40752,6.47977,6.47977,0,0,0-5.28381,7.49008,6.36263,6.36263,0,0,0,2.44517,4.03312,6.47515,6.47515,0,0,0,2.05169,12.35231,6.47775,6.47775,0,0,0,5.14329,10.413,5.92829,5.92829,0,0,0,1.11016-.09837,22.62818,22.62818,0,0,1,7.476,11.2,2.85082,2.85082,0,0,0,3.19,2.05169l.88532-.15457"/><path class="cls-1" d="M46.47628,12.76923a10.69591,10.69591,0,0,1,5.97088-.15448,6.45539,6.45539,0,0,1,1.84242,11.27016A6.4713,6.4713,0,0,1,52.252,36.23722a6.47577,6.47577,0,0,1-6.25346,10.31466,22.70208,22.70208,0,0,0-7.49007,11.2,2.85081,2.85081,0,0,1-3.19,2.05169l-.64642-.11242"/></g></svg>