<svg xmlns="http://www.w3.org/2000/svg" width="128" height="128" viewBox="0 0 128 128">
  <title>LOGS</title>
  <g>
    <g>
      <ellipse cx="53.989" cy="78.525" rx="7.462" ry="14.525" fill="#896748"/>
      <ellipse cx="9.212" cy="78.525" rx="7.462" ry="14.525" fill="#896748"/>
      <ellipse cx="26.937" cy="49.475" rx="7.462" ry="14.525" fill="#5d452f"/>
      <path d="M26.935,55.738a1.751,1.751,0,0,1-1.7-1.339,22.159,22.159,0,0,1,0-9.848,1.75,1.75,0,0,1,3.4.822,18.638,18.638,0,0,0,0,8.2,1.751,1.751,0,0,1-1.29,2.112A1.778,1.778,0,0,1,26.935,55.738Z" fill="#896748"/>
      <path d="M91.737,34.95h-64.8c4.121,0,7.462,6.5,7.462,14.525S31.058,64,26.937,64h64.8c4.121,0,7.461-6.5,7.461-14.525S95.858,34.95,91.737,34.95Z" fill="#896748"/>
      <path d="M118.788,64h-64.8c4.121,0,7.461,6.5,7.461,14.525S58.11,93.05,53.989,93.05h64.8c4.121,0,7.462-6.5,7.462-14.525S122.909,64,118.788,64Z" fill="#73553a"/>
      <path d="M53.988,84.789a1.75,1.75,0,0,1-1.7-1.34,22.082,22.082,0,0,1,0-9.848,1.75,1.75,0,0,1,3.4.822,18.6,18.6,0,0,0,0,8.2,1.75,1.75,0,0,1-1.29,2.112A1.713,1.713,0,0,1,53.988,84.789Z" fill="#5d452f"/>
      <path d="M9.211,84.789a1.75,1.75,0,0,1-1.7-1.34,22.082,22.082,0,0,1,0-9.848,1.75,1.75,0,0,1,3.4.822,18.6,18.6,0,0,0,0,8.2,1.75,1.75,0,0,1-1.29,2.112A1.719,1.719,0,0,1,9.211,84.789Z" fill="#5d452f"/>
      <path d="M46.527,78.525C46.527,70.5,49.868,64,53.989,64H9.212c4.12,0,7.461,6.5,7.461,14.525S13.332,93.05,9.212,93.05H53.989C49.868,93.05,46.527,86.547,46.527,78.525Z" fill="#73553a"/>
      <path d="M37.841,85.347a1.75,1.75,0,0,0-1.75-1.75H16.2a21.364,21.364,0,0,1-.97,3.5H36.091A1.749,1.749,0,0,0,37.841,85.347Z" fill="#5d452f"/>
      <path d="M40.655,77.778H30.223a1.75,1.75,0,0,1,0-3.5H40.655a1.75,1.75,0,0,1,0,3.5Z" fill="#5d452f"/>
      <path d="M99.06,52.238H64.78a1.75,1.75,0,0,0,0,3.5H98.461A24.87,24.87,0,0,0,99.06,52.238Z" fill="#73553a"/>
      <path d="M75.865,47.132h-9.78a1.75,1.75,0,0,1,0-3.5h9.78a1.75,1.75,0,0,1,0,3.5Z" fill="#73553a"/>
      <path d="M48.2,40.412H32.763a20.428,20.428,0,0,1,1.066,3.5H48.2a1.75,1.75,0,0,0,0-3.5Z" fill="#73553a"/>
      <path d="M96.544,85.6H73.723a1.75,1.75,0,1,1,0-3.5H96.544a1.75,1.75,0,1,1,0,3.5Z" fill="#5d452f"/>
      <path d="M126.109,75.731a24.911,24.911,0,0,0-.6-3.469H95.985a1.75,1.75,0,0,0,0,3.5H125.8A1.784,1.784,0,0,0,126.109,75.731Z" fill="#5d452f"/>
    </g>
    <g>
      <path d="M27.348,43.261a1.746,1.746,0,0,0-2.113,1.29,22.159,22.159,0,0,0,0,9.848,1.751,1.751,0,0,0,1.7,1.339,1.778,1.778,0,0,0,.413-.049,1.751,1.751,0,0,0,1.29-2.112,18.638,18.638,0,0,1,0-8.2A1.751,1.751,0,0,0,27.348,43.261Z"/>
      <path d="M69.9,36.7h2.071a1.75,1.75,0,0,0,0-3.5H69.9a1.75,1.75,0,0,0,0,3.5Z"/>
      <path d="M118.788,62.25H97.5c2.113-2.958,3.45-7.536,3.45-12.775,0-9.126-4.046-16.275-9.211-16.275H84a1.75,1.75,0,0,0,0,3.5h7.737c2.7,0,5.711,5.246,5.711,12.775a26.875,26.875,0,0,1-.141,2.763H64.78a1.75,1.75,0,0,0,0,3.5h31.9c-1.068,4.017-3.076,6.512-4.939,6.512H32.708c3.539-5.3,4.007-12.2,2.908-18.338H48.2a1.75,1.75,0,0,0,0-3.5H34.629A16.618,16.618,0,0,0,32.708,36.7H57.875a1.75,1.75,0,0,0,0-3.5H26.937c-5.166,0-9.211,7.149-9.211,16.275,0,5.239,1.337,9.817,3.45,12.775H9.212C4.046,62.25,0,69.4,0,78.525S4.046,94.8,9.212,94.8H118.788c5.166,0,9.212-7.149,9.212-16.275S123.954,62.25,118.788,62.25ZM21.226,49.475c0-7.529,3.01-12.775,5.711-12.775,3.944.294,5.861,8.374,5.711,12.775,0,7.528-3.009,12.775-5.711,12.775S21.226,57,21.226,49.475ZM3.5,78.525C3.5,71,6.511,65.75,9.212,65.75S14.923,71,14.923,78.525c.214,4.337-1.9,12.645-5.711,12.775C6.511,91.3,3.5,86.054,3.5,78.525ZM14.982,91.3a16.679,16.679,0,0,0,2.092-4.2H36.091a1.75,1.75,0,0,0,0-3.5H17.979c.976-6,.453-12.693-3-17.847H48.218c-2.548,3.7-3.4,8.336-3.441,12.775.044,4.439.893,9.072,3.441,12.775Zm103.806,0h-59a17.911,17.911,0,0,0,2.638-6.092,1.75,1.75,0,1,0-3.4-.836c-1,4.079-3.073,6.928-5.035,6.928-2.7,0-5.711-5.246-5.711-12.775s3.01-12.775,5.711-12.775c2.281,0,4.538,3.6,5.369,8.551a1.75,1.75,0,1,0,3.452-.579A19.389,19.389,0,0,0,59.8,65.75h58.99c1.862,0,3.871,2.5,4.94,6.512H95.985a1.75,1.75,0,0,0,0,3.5h28.374a26.875,26.875,0,0,1,.141,2.763C124.5,86.054,121.489,91.3,118.788,91.3Z"/>
      <path d="M54.4,72.311a1.746,1.746,0,0,0-2.112,1.29,22.082,22.082,0,0,0,0,9.848,1.75,1.75,0,0,0,1.7,1.34,1.713,1.713,0,0,0,.412-.05,1.75,1.75,0,0,0,1.29-2.112,18.6,18.6,0,0,1,0-8.2A1.75,1.75,0,0,0,54.4,72.311Z"/>
      <path d="M10.913,82.627a18.6,18.6,0,0,1,0-8.2,1.75,1.75,0,0,0-3.4-.822,22.082,22.082,0,0,0,0,9.848,1.75,1.75,0,0,0,1.7,1.34,1.719,1.719,0,0,0,.412-.05A1.75,1.75,0,0,0,10.913,82.627Z"/>
      <path d="M40.655,74.278H30.223a1.75,1.75,0,0,0,0,3.5H40.655a1.75,1.75,0,0,0,0-3.5Z"/>
      <path d="M66.085,47.132h9.78a1.75,1.75,0,0,0,0-3.5h-9.78a1.75,1.75,0,0,0,0,3.5Z"/>
      <path d="M96.544,82.1H73.723a1.75,1.75,0,1,0,0,3.5H96.544a1.75,1.75,0,1,0,0-3.5Z"/>
    </g>
  </g>
</svg>
