<svg xmlns="http://www.w3.org/2000/svg" viewBox="0 0 64 64"><g id="_29-Like" data-name="29-Like"><path d="M51,3a2,2,0,0,0-2-2H15a2,2,0,0,0-2,2V9H51Z" style="fill:#ebebf5"/><path d="M46,63h3a2,2,0,0,0,2-2V55H48v6A2,2,0,0,1,46,63Z" style="fill:#e1e2ef"/><rect x="13" y="9" width="38" height="46" style="fill:#99e8fe"/><rect x="13" y="9" width="3" height="46" style="fill:#2ed0fa"/><rect x="48" y="9" width="3" height="46" style="fill:#2ed0fa"/><path d="M13,55v6a2,2,0,0,0,2,2H49a2,2,0,0,0,2-2V55Z" style="fill:#ebebf5"/><path d="M46,63h3a2,2,0,0,0,2-2V55H48v6A2,2,0,0,1,46,63Z" style="fill:#e1e2ef"/><path d="M48,3V9h3V3a2,2,0,0,0-2-2H46A2,2,0,0,1,48,3Z" style="fill:#e1e2ef"/><path d="M18,1H15a2,2,0,0,0-2,2V9h3V3A2,2,0,0,1,18,1Z" style="fill:#e1e2ef"/><path d="M16,61V55H13v6a2,2,0,0,0,2,2h3A2,2,0,0,1,16,61Z" style="fill:#e1e2ef"/><path d="M31,11V31a2.006,2.006,0,0,1-2,2H21v4l-4-4H3a2.006,2.006,0,0,1-2-2V11A2.006,2.006,0,0,1,3,9H29A2.006,2.006,0,0,1,31,11Z" style="fill:#fbdbe0"/><path d="M29,9H27a2.006,2.006,0,0,1,2,2V31a2.006,2.006,0,0,1-2,2h2a2.006,2.006,0,0,0,2-2V11A2.006,2.006,0,0,0,29,9Z" style="fill:#fc98b0"/><polygon points="63 35 63 51 55 51 55 49 55 37 55 35 63 35" style="fill:#ea5073"/><path d="M61,35v8a6,6,0,0,1-6,6h0v2h8V35Z" style="fill:#d83a5c"/><path d="M55,37V49H50a1.959,1.959,0,0,1-2,2H36a2.006,2.006,0,0,1-2-2V40H27a2.006,2.006,0,0,1-2-2,2.015,2.015,0,0,1,2-2H39a2.006,2.006,0,0,0,2-2V32c0-4,4-4,4-4v5l5,4Z" style="fill:#ffcdbe"/><path d="M34,38H27a2,2,0,0,1-1.721-1A1.963,1.963,0,0,0,25,38a2.006,2.006,0,0,0,2,2h7Z" style="fill:#faa68e"/><path d="M48,49H36a2.006,2.006,0,0,1-2-2v2a2.006,2.006,0,0,0,2,2H48a1.959,1.959,0,0,0,2-2h5V47H50A1.959,1.959,0,0,1,48,49Z" style="fill:#faa68e"/><path d="M26.137,21.75a2.341,2.341,0,0,1,0,3.63L22,29l-4.14-3.62a.435.435,0,0,1-.07-.06,2.344,2.344,0,0,1,.07-3.57,3.248,3.248,0,0,1,3.82-.24,2.428,2.428,0,0,1,.32.24A3.232,3.232,0,0,1,26.137,21.75Z" style="fill:#fcbcc5"/><path d="M26.138,21.75a3.231,3.231,0,0,0-3.07-.589,2.974,2.974,0,0,1,1.07.589,2.342,2.342,0,0,1,0,3.63L21,28.126,22,29l4.141-3.62A2.342,2.342,0,0,0,26.138,21.75Z" style="fill:#fc98b0"/><path d="M21.457,14.5a5.026,5.026,0,0,1,.22,7.01,3.248,3.248,0,0,0-3.82.24,2.344,2.344,0,0,0-.07,3.57L14,29l-7.46-7.25a5.042,5.042,0,0,1,0-7.25,5.388,5.388,0,0,1,7.46,0A5.388,5.388,0,0,1,21.457,14.5Z" style="fill:#ea5073"/><path d="M18.927,21.165a3.233,3.233,0,0,0-3.07.585,2.345,2.345,0,0,0-.07,3.57L13,28.029,14,29l3.79-3.68a2.345,2.345,0,0,1,.07-3.57A2.979,2.979,0,0,1,18.927,21.165Z" style="fill:#d83a5c"/><path d="M21.458,14.5a5.373,5.373,0,0,0-4.73-1.407,5.307,5.307,0,0,1,2.73,1.407,5.01,5.01,0,0,1,.59,6.513,3.166,3.166,0,0,1,1.629.5A5.026,5.026,0,0,0,21.458,14.5Z" style="fill:#d83a5c"/><path d="M49,64H15a3,3,0,0,1-3-3V35h2V61a1,1,0,0,0,1,1H49a1,1,0,0,0,1-1V49h2V61A3,3,0,0,1,49,64Z"/><path d="M52,37H50V3a1,1,0,0,0-1-1H15a1,1,0,0,0-1,1V7H12V3a3,3,0,0,1,3-3H49a3,3,0,0,1,3,3Z"/><rect x="34" y="8" width="17" height="2"/><rect x="28" y="58" width="8" height="2"/><rect x="13" y="54" width="38" height="2"/><rect x="28" y="4" width="8" height="2"/><path d="M14,30a1,1,0,0,1-.7-.283l-7.46-7.25a6.041,6.041,0,0,1,0-8.683A6.413,6.413,0,0,1,14,13.2a6.415,6.415,0,0,1,8.156.584,6.022,6.022,0,0,1,.263,8.4l-1.479-1.346a4.03,4.03,0,0,0-.178-5.621,4.387,4.387,0,0,0-6.066,0,1,1,0,0,1-1.392,0,4.386,4.386,0,0,0-6.068,0,4.041,4.041,0,0,0,0,5.816L14,27.605l3.094-3,1.392,1.435-3.79,3.68A1,1,0,0,1,14,30Z"/><path d="M22,30a1,1,0,0,1-.658-.247L17.2,26.128a3.343,3.343,0,0,1,0-5.13,4.229,4.229,0,0,1,4.8-.466A4.22,4.22,0,0,1,26.8,21h0a3.341,3.341,0,0,1,0,5.13l-4.142,3.625A1,1,0,0,1,22,30Zm-2.071-8a2.147,2.147,0,0,0-1.413.5,1.345,1.345,0,0,0,0,2.118L22,27.671l3.483-3.049a1.343,1.343,0,0,0,0-2.118h0a2.231,2.231,0,0,0-2.825,0,1,1,0,0,1-1.316,0A2.153,2.153,0,0,0,19.928,22Z"/><path d="M21,38a1,1,0,0,1-.707-.293L16.586,34H3a3,3,0,0,1-3-3V11A3,3,0,0,1,3,8H29a3,3,0,0,1,3,3V31a3,3,0,0,1-3,3H22v3a1,1,0,0,1-.617.924A.987.987,0,0,1,21,38ZM3,10a1,1,0,0,0-1,1V31a1,1,0,0,0,1,1H17a1,1,0,0,1,.707.293L20,34.586V33a1,1,0,0,1,1-1h8a1,1,0,0,0,1-1V11a1,1,0,0,0-1-1Z"/><path d="M48,52H36a3,3,0,0,1-3-3V41H27a3,3,0,0,1,0-6H39a1,1,0,0,0,1-1V32a4.821,4.821,0,0,1,5-5,1,1,0,0,1,1,1v4.52L50.351,36H55a1,1,0,0,1,1,1V49a1,1,0,0,1-1,1H50.857A2.963,2.963,0,0,1,48,52ZM27,37a1,1,0,0,0,0,2h7a1,1,0,0,1,1,1v9a1,1,0,0,0,1,1H48a.915.915,0,0,0,1-1,1,1,0,0,1,1-1h4V38H50a1,1,0,0,1-.625-.219l-5-4A1,1,0,0,1,44,33V29.153A2.687,2.687,0,0,0,42,32v2a3,3,0,0,1-3,3Z"/><path d="M63,52H55a1,1,0,0,1-1-1V35a1,1,0,0,1,1-1h8a1,1,0,0,1,1,1V51A1,1,0,0,1,63,52Zm-7-2h6V36H56Z"/><rect x="58" y="38" width="2" height="2"/><rect x="39" y="12" width="2" height="2"/><path d="M48,17H46V14H43V12h4a1,1,0,0,1,1,1Z"/></g></svg>