<svg xmlns="http://www.w3.org/2000/svg" width="128" height="128" viewBox="0 0 128 128">
  <title>LUMBERJACK</title>
  <g>
    <g>
      <path d="M38.816,37.426v2.586a22.386,22.386,0,0,0,.5,4.7l1.52,6.935c.792,3.634,1.325,7.513,2.726,10.973a22.073,22.073,0,0,0,40.87,0c1.4-3.46,1.934-7.339,2.726-10.973l1.519-6.935a22.33,22.33,0,0,0,.5-4.7V37.426Z" fill="#ffdecf"/>
      <path d="M89.866,38.622a6.13,6.13,0,0,0-.682.052v1.337a22.33,22.33,0,0,1-.5,4.7l-1.54,7.032a6.847,6.847,0,1,0,2.726-13.126Z" fill="#ffcdbe"/>
      <path d="M39.322,44.715a22.053,22.053,0,0,1-.508-4.708V38.693a6.851,6.851,0,1,0,2.022,12.96Z" fill="#ffcdbe"/>
      <g>
        <path d="M64.251,52.915h1.97a1.75,1.75,0,0,0,0-3.5l-1.912.067.714-4.717a1.75,1.75,0,1,0-3.461-.524l-.714,4.717a3.442,3.442,0,0,0,3.4,3.957Z" fill="#57555c"/>
        <circle cx="75.071" cy="39.858" r="4.183" fill="#57555c"/>
        <path d="M69.242,57.493a7.041,7.041,0,0,1-5.368,2.087,7.042,7.042,0,0,1-5.369-2.088,1.75,1.75,0,1,0-2.7,2.225,10.428,10.428,0,0,0,8.07,3.363,10.43,10.43,0,0,0,8.069-3.362,1.75,1.75,0,1,0-2.7-2.225Z" fill="#57555c"/>
        <circle cx="52.929" cy="39.858" r="4.183" fill="#57555c"/>
      </g>
      <rect x="33.5" y="29.378" width="61" height="8.048" rx="2" fill="#6e77e5"/>
      <path d="M54.816,1.75H73.184a16,16,0,0,1,16,16V29.378a0,0,0,0,1,0,0H38.816a0,0,0,0,1,0,0V17.75A16,16,0,0,1,54.816,1.75Z" fill="#fedb41"/>
      <path d="M64,93.251c8.5,0,15.869-2.735,19.576-6.744-1.879-.54-3.939-1.555-4.615-3.488h0a6.764,6.764,0,0,1-.775-2.348l-1.1-8.631a22,22,0,0,1-26.166,0l-1.1,8.631a7.911,7.911,0,0,1-5.273,5.965C48.284,90.575,55.6,93.251,64,93.251Z" fill="#ffcdbe"/>
      <path d="M103.252,88.974a55.306,55.306,0,0,0-9.827-1.313c-2.546-.229-5.026-.348-7.583-.675a17.388,17.388,0,0,1-2.266-.479C79.869,90.516,72.5,93.251,64,93.251c-8.405,0-15.716-2.676-19.46-6.615A8.861,8.861,0,0,1,41.916,87q-3.153.315-6.326.5a54.455,54.455,0,0,0-10.843,1.473A22.565,22.565,0,0,0,8.141,110.73v15.517H119.859V110.73A22.566,22.566,0,0,0,103.252,88.974Z" fill="#e5e5e5"/>
      <rect x="25.687" y="107.003" width="76.625" height="19.245" fill="#57555c"/>
      <rect x="33.687" y="115.003" width="60.625" height="11.247" fill="#fedb41"/>
      <path d="M40.836,87.1q-2.617.242-5.246.405c-1.524.1-3.048.208-4.562.367V107h9.808Z" fill="#6e77e5"/>
      <path d="M96.971,87.958c-1.183-.108-2.368-.194-3.546-.3-2.105-.189-4.166-.31-6.261-.529V107h9.807Z" fill="#6e77e5"/>
    </g>
    <g>
      <path d="M64.251,52.915h1.97a1.75,1.75,0,0,0,0-3.5l-1.912.067.714-4.717a1.75,1.75,0,1,0-3.461-.524l-.714,4.717a3.442,3.442,0,0,0,3.4,3.957Z"/>
      <path d="M63.874,63.08a10.43,10.43,0,0,0,8.069-3.362,1.75,1.75,0,1,0-2.7-2.225,7.041,7.041,0,0,1-5.368,2.087,7.042,7.042,0,0,1-5.369-2.088,1.75,1.75,0,1,0-2.7,2.225A10.428,10.428,0,0,0,63.874,63.08Z"/>
      <path d="M56.281,31.128h3.938a1.75,1.75,0,1,0,0-3.5H56.281a1.75,1.75,0,1,0,0,3.5Z"/>
      <path d="M116.842,96.277a1.75,1.75,0,0,0-2.813,2.084,20.63,20.63,0,0,1,4.08,12.369V124.5H104.062V107a1.749,1.749,0,0,0-1.75-1.75h-3.59V89.9a28.5,28.5,0,0,1,4.07.76,20.694,20.694,0,0,1,5.488,2.4,1.75,1.75,0,0,0,1.848-2.973,24.286,24.286,0,0,0-6.413-2.8,37.932,37.932,0,0,0-6.582-1.07c-4.332-.5-8.826-.407-13.072-1.389a5.048,5.048,0,0,1-4.138-4.377l-.973-7.606a23.78,23.78,0,0,0,7.107-9.562,46.945,46.945,0,0,0,2.271-8.6c.049-.247.1-.488.15-.734a8.285,8.285,0,0,0,1.388.128A8.6,8.6,0,0,0,94.753,38.4a3.734,3.734,0,0,0,1.5-2.978V31.378a3.755,3.755,0,0,0-3.75-3.75H90.935V17.75A17.771,17.771,0,0,0,73.185,0H54.815a17.771,17.771,0,0,0-17.75,17.75v9.878H35.5a3.755,3.755,0,0,0-3.75,3.75v4.048a3.727,3.727,0,0,0,1.382,2.883,8.6,8.6,0,0,0,4.75,15.77,8.469,8.469,0,0,0,1.632-.168c.052.259.106.513.158.774a46.962,46.962,0,0,0,2.272,8.6,23.768,23.768,0,0,0,7.106,9.559l-.959,7.506a6.261,6.261,0,0,1-4.056,4.612c-2.769.534-5.736.525-8.559.794-1.419.093-2.991.2-4.624.372h-.006a41.392,41.392,0,0,0-6.561,1.158A24.365,24.365,0,0,0,6.391,110.73v15.517A1.749,1.749,0,0,0,8.141,128H119.859a1.749,1.749,0,0,0,1.75-1.75V110.73A24.105,24.105,0,0,0,116.842,96.277Zm-21.62,8.976H88.914v-16.2c2.074.167,4.226.334,6.308.513Zm-52.636,0V88.721a10.814,10.814,0,0,0,1.422-.157C49.435,93.316,56.946,94.925,64,95c7.105-.076,14.692-1.7,20.113-6.553.414.092.853.168,1.3.236v16.57ZM32.778,89.461c2.109-.176,4.191-.284,6.308-.453v16.245H32.778ZM89.866,50.579a4.689,4.689,0,0,1-.668-.047c.593-2.821,1.751-7.19,1.732-10.049a5.1,5.1,0,0,1-1.064,10.1ZM35.25,31.378a.25.25,0,0,1,.25-.25H46.906a1.75,1.75,0,0,0,0-3.5H40.565V17.75A14.267,14.267,0,0,1,54.815,3.5h18.37a14.267,14.267,0,0,1,14.25,14.25v9.878H69.594a1.75,1.75,0,0,0,0,3.5H92.5a.25.25,0,0,1,.25.25v4.048a.25.25,0,0,1-.25.25h-57a.25.25,0,0,1-.25-.25Zm2.632,19.2a5.1,5.1,0,0,1-.815-10.143c.029,3.276,1.072,6.857,1.725,10.06A4.937,4.937,0,0,1,37.882,50.579Zm7.305,11.388a44.409,44.409,0,0,1-2.082-7.96c-.8-4.81-2.656-9.921-2.54-14.831h8.25a4.183,4.183,0,1,0,8.227,0H70.958a4.183,4.183,0,1,0,8.227,0h8.25c.121,4.912-1.745,10.019-2.541,14.831a44.225,44.225,0,0,1-2.081,7.957,20.246,20.246,0,0,1-6.624,8.587,20.362,20.362,0,0,1-24.38,0A20.253,20.253,0,0,1,45.187,61.967Zm6.328,19.115c.014-.062.026-.126.035-.189l.746-5.845a23.947,23.947,0,0,0,23.408,0l.747,5.846a8.452,8.452,0,0,0,.907,2.838,6.557,6.557,0,0,0,2.967,3.3C75.627,90.354,69.676,91.442,64,91.5c-5.677-.059-11.627-1.153-16.329-4.466A10.353,10.353,0,0,0,51.515,81.082ZM9.891,110.73A20.855,20.855,0,0,1,25.209,90.661a32.813,32.813,0,0,1,4.069-.818v15.41H25.687a1.75,1.75,0,0,0-1.75,1.75V124.5H9.891ZM92.562,124.5H35.437v-7.744H92.562Zm3.5,0V115a1.749,1.749,0,0,0-1.75-1.75H33.687a1.75,1.75,0,0,0-1.75,1.75V124.5h-4.5V108.753h73.125V124.5Z"/>
    </g>
  </g>
</svg>
