<svg id="Filled_stroke_cut_Ex" data-name="Filled stroke cut Ex" xmlns="http://www.w3.org/2000/svg" width="512" height="512" viewBox="0 0 512 512">
  <title>man- user- avatar- people- mask</title>
  <path d="M56,488V380.091A30,30,0,0,1,74.578,352.35L192,304H320l117.422,48.35A30,30,0,0,1,456,380.091V488Z" style="fill: #e64b30"/>
  <path d="M302.852,325.435,320,304l-16-64H208l-16,64,17.148,21.435A60,60,0,0,0,302.852,325.435Z" style="fill: #ffd4cf"/>
  <path d="M304,240H208l-5.32,21.281,21.357,18.15A36.034,36.034,0,0,0,247.351,288H264.6a36.022,36.022,0,0,0,23.428-8.667l21.25-18.214Z" style="fill: #fbb8b0"/>
  <g>
    <path d="M348,128H328V112H184v16H164a20,20,0,0,0-20,20v16a20,20,0,0,0,20,20h20v31.159a20,20,0,0,0,7.048,15.24L234.4,267.24A20,20,0,0,0,247.351,272H264.6a20,20,0,0,0,13.015-4.815l43.4-37.2A20,20,0,0,0,328,214.8V184h20a20,20,0,0,0,20-20V148A20,20,0,0,0,348,128Z" style="fill: #ffd4cf"/>
    <path d="M184.018,215.994a20,20,0,0,0,7.03,14.405L234.4,267.24A20,20,0,0,0,247.351,272H264.6a20,20,0,0,0,13.015-4.815l43.4-37.2a20,20,0,0,0,6.948-14L256,192Z" style="fill: #ebebeb"/>
  </g>
  <path d="M226,24h60a50,50,0,0,1,50,50v38a0,0,0,0,1,0,0H176a0,0,0,0,1,0,0V74a50,50,0,0,1,50-50Z" style="fill: #333"/>
  <polygon points="136 488 56 488 56 440 128 440 136 488" style="fill: #ffd4cf"/>
  <polygon points="456 488 376 488 384 440 456 440 456 488" style="fill: #ffd4cf"/>
  <path d="M305.71,148.383l-8.55-5.13a80,80,0,0,0-82.32,0l-8.55,5.13A20,20,0,0,1,176,131.233V118.557l44.223-22.111a80,80,0,0,1,71.554,0L336,118.557v12.676A20,20,0,0,1,305.71,148.383Z" style="fill: #4d4d4d"/>
  <path d="M440.468,344.953,326.782,298.141l-12.88-51.52,12.32-10.56A27.968,27.968,0,0,0,336,214.8V192h12a28.032,28.032,0,0,0,28-28V148a28.032,28.032,0,0,0-28-28h-4V96H328v9.613L295.354,89.291a88.413,88.413,0,0,0-78.708,0L184,105.613V74a42.047,42.047,0,0,1,42-42h60a42.047,42.047,0,0,1,42,42v6h16V74a58.066,58.066,0,0,0-58-58H226a58.066,58.066,0,0,0-58,58v46h-4a28.032,28.032,0,0,0-28,28v16a28.032,28.032,0,0,0,28,28h12v23.159a27.956,27.956,0,0,0,9.868,21.336l12.175,10.347-12.824,51.3-52.265,21.52,6.092,14.8L168,322.534V328a88.121,88.121,0,0,0,80,87.639V424h16v-8.361A88.121,88.121,0,0,0,344,328v-5.466l90.376,37.214A21.929,21.929,0,0,1,448,380.091V432H392V408H376v31.338L369.223,480H142.777L136,439.338V408H120v24H64V380.091a21.929,21.929,0,0,1,13.624-20.343l45.422-18.7-6.092-14.794-45.422,18.7A37.876,37.876,0,0,0,48,380.091V488a8,8,0,0,0,8,8H456a8,8,0,0,0,8-8V380.091A37.876,37.876,0,0,0,440.468,344.953ZM192,158.988a27.727,27.727,0,0,0,18.406-3.745L216,151.887V168h16V144h-.112a71.808,71.808,0,0,1,48.224,0H280v24h16V151.887l5.594,3.356a27.913,27.913,0,0,0,14.4,4.041,27.372,27.372,0,0,0,4.009-.3V204.9l-61.47-20.49a7.992,7.992,0,0,0-5.06,0L192,204.9ZM360,148v16a12.013,12.013,0,0,1-12,12H336V150.872A27.472,27.472,0,0,0,343.606,136H348A12.013,12.013,0,0,1,360,148ZM223.8,103.6a72.343,72.343,0,0,1,64.4,0L328,123.5v7.732a12,12,0,0,1-18.174,10.29l-8.55-5.13a87.841,87.841,0,0,0-90.552,0l-8.55,5.13A12,12,0,0,1,184,131.233V123.5ZM164,176a12.013,12.013,0,0,1-12-12V148a12.013,12.013,0,0,1,12-12h4.394A27.472,27.472,0,0,0,176,150.872V176Zm29.641,45.219L256,200.433l62.179,20.726a12.023,12.023,0,0,1-2.37,2.753l-43.4,37.2A12.008,12.008,0,0,1,264.6,264H247.351a12.009,12.009,0,0,1-7.771-2.856L196.229,224.3A12.01,12.01,0,0,1,193.641,221.219Zm35.577,52.116A28.025,28.025,0,0,0,247.351,280H264.6a28.019,28.019,0,0,0,18.222-6.741l17.5-15L311.278,302.1l-14.673,18.342a52,52,0,0,1-81.21,0L200.722,302.1,211.646,258.4ZM328,328a72.1,72.1,0,0,1-64,71.558V392H248v7.558A72.1,72.1,0,0,1,184,328V315.946l5.5-2.265,13.4,16.752a68,68,0,0,0,106.2,0l13.4-16.752,5.5,2.265ZM64,448h57.223l5.333,32H64Zm321.444,32,5.333-32H448v32Z"/>
</svg>
