<svg xmlns="http://www.w3.org/2000/svg" width="128" height="128" viewBox="0 0 128 128">
  <title>MEASURING TAPE</title>
  <g>
    <g>
      <path d="M21.75,37.239H62.125a20,20,0,0,1,20,20v44.774a0,0,0,0,1,0,0H1.75a0,0,0,0,1,0,0V57.239A20,20,0,0,1,21.75,37.239Z" fill="#57555c"/>
      <path d="M16.75,102.013V67.247a5.006,5.006,0,0,1,5-5H62.125a5.006,5.006,0,0,1,5,5v34.766Z" fill="#e5e5e5"/>
      <rect x="24.75" y="70.247" width="34.375" height="9.712" fill="#6ecd24"/>
      <rect x="82.125" y="90.7" width="34.75" height="11.312" fill="#fedb41"/>
      <path d="M120.875,79.45h5.375a0,0,0,0,1,0,0v22.562a0,0,0,0,1,0,0h-9.375a0,0,0,0,1,0,0V83.45A4,4,0,0,1,120.875,79.45Z" fill="#fea832"/>
      <path d="M62.125,37.239a20,20,0,0,1,20,20v3.35l5.045-5.046a14,14,0,0,0,0-19.8l-5.657-5.656a14,14,0,0,0-19.8,0l-7.151,7.151Z" fill="#fedb41"/>
    </g>
    <g>
      <path d="M16.75,81.625A1.751,1.751,0,0,0,15,83.375v3.5a1.75,1.75,0,0,0,3.5,0v-3.5A1.751,1.751,0,0,0,16.75,81.625Z"/>
      <path d="M59.125,68.5H24.75A1.75,1.75,0,0,0,23,70.247v9.711a1.75,1.75,0,0,0,1.75,1.75H59.125a1.75,1.75,0,0,0,1.75-1.75V70.247A1.75,1.75,0,0,0,59.125,68.5Zm-1.75,9.711H26.5V72H57.375Z"/>
      <path d="M126.25,77.7h-5.375a5.756,5.756,0,0,0-5.75,5.75v5.5H83.875V61.314l4.532-4.533a15.615,15.615,0,0,0,4.471-9.014,1.75,1.75,0,0,0-3.469-.47,12.128,12.128,0,0,1-3.476,7.009L83.858,56.38C83.616,43.524,71.26,34,58.788,35.489l4.164-4.164a12.262,12.262,0,0,1,17.324,0l5.657,5.657a1.75,1.75,0,1,0,2.474-2.475L82.751,28.85a15.769,15.769,0,0,0-22.274,0l-6.639,6.639H21.75A21.775,21.775,0,0,0,0,57.239v44.774a1.751,1.751,0,0,0,1.75,1.75h124.5a1.75,1.75,0,0,0,1.75-1.75V79.451A1.749,1.749,0,0,0,126.25,77.7ZM18.5,100.263V95.625a1.75,1.75,0,0,0-3.5,0v4.638H3.5V57.239a18.271,18.271,0,0,1,18.25-18.25H62.125a18.271,18.271,0,0,1,18.25,18.25v43.024h-11.5V67.247a6.757,6.757,0,0,0-6.75-6.75H21.75A6.757,6.757,0,0,0,15,67.247v7.378a1.75,1.75,0,0,0,3.5,0V67.247A3.254,3.254,0,0,1,21.75,64H62.125a3.254,3.254,0,0,1,3.25,3.25v33.016Zm65.375-7.812h31.25v7.812H83.875Zm40.625,7.812h-5.875V83.451a2.253,2.253,0,0,1,2.25-2.25H124.5Z"/>
    </g>
  </g>
</svg>
