<?xml version="1.0" encoding="utf-8"?>
<!-- Generator: Adobe Illustrator 24.0.0, SVG Export Plug-In . SVG Version: 6.00 Build 0)  -->
<svg version="1.1" xmlns="http://www.w3.org/2000/svg" xmlns:xlink="http://www.w3.org/1999/xlink" x="0px" y="0px"
	 viewBox="0 0 256 256" enable-background="new 0 0 256 256" xml:space="preserve">
<g id="Layer_1">
</g>
<g id="Layer_2">
</g>
<g id="Layer_3">
</g>
<g id="Layer_4">
</g>
<g id="Layer_5">
</g>
<g id="Layer_6">
</g>
<g id="Layer_7">
</g>
<g id="Layer_8">
</g>
<g id="Layer_9">
</g>
<g id="Layer_10">
</g>
<g id="Layer_11">
</g>
<g id="Layer_12">
</g>
<g id="Layer_13">
</g>
<g id="Layer_14">
</g>
<g id="Layer_15">
</g>
<g id="Layer_16">
</g>
<g id="Layer_17">
</g>
<g id="Layer_18">
</g>
<g id="Layer_19">
</g>
<g id="Layer_20">
</g>
<g id="Layer_21">
</g>
<g id="Layer_22">
</g>
<g id="Layer_23">
</g>
<g id="Layer_24">
</g>
<g id="Layer_25">
</g>
<g id="Layer_26">
</g>
<g id="Layer_27">
</g>
<g id="Layer_28">
</g>
<g id="Layer_29">
</g>
<g id="Layer_30">
</g>
<g id="Layer_31">
</g>
<g id="Layer_32">
</g>
<g id="Layer_33">
</g>
<g id="Layer_34">
</g>
<g id="Layer_35">
</g>
<g id="Layer_36">
</g>
<g id="Layer_37">
</g>
<g id="Layer_38">
</g>
<g id="Layer_39">
</g>
<g id="Layer_40">
</g>
<g id="Layer_41">
</g>
<g id="Layer_42">
</g>
<g id="Layer_43">
</g>
<g id="Layer_44">
</g>
<g id="Layer_45">
</g>
<g id="Layer_46">
</g>
<g id="Layer_47">
</g>
<g id="Layer_48">
</g>
<g id="Layer_49">
</g>
<g id="Layer_50">
</g>
<g id="Layer_51">
</g>
<g id="Layer_52">
</g>
<g id="Layer_53">
</g>
<g id="Layer_54">
</g>
<g id="Layer_55">
</g>
<g id="Layer_56">
</g>
<g id="Layer_57">
</g>
<g id="Layer_58">
</g>
<g id="Layer_59">
</g>
<g id="Layer_60">
</g>
<g id="Layer_61">
</g>
<g id="Layer_62">
</g>
<g id="Layer_63">
</g>
<g id="Layer_64">
</g>
<g id="Layer_65">
</g>
<g id="Layer_66">
	<g>
		<g>
			<g>
				<path fill="#5290DB" d="M239.793,178.39H16.207c-1.771,0-3.207,1.436-3.207,3.207v7.196c0,1.771,1.436,3.207,3.207,3.207
					h223.586c1.771,0,3.207-1.436,3.207-3.207v-7.196C243,179.826,241.564,178.39,239.793,178.39z"/>
			</g>
		</g>
		<g>
			<g>
				<path fill="#5290DB" d="M20.25,192v57.94c0,1.966,1.594,3.56,3.56,3.56h208.38c1.966,0,3.56-1.594,3.56-3.56V192H20.25z"/>
			</g>
		</g>
		<g>
			<g>
				<path fill="#EDF4FC" d="M124.327,125.11l-11.837-11.837c-0.875-0.875-2.295-0.875-3.17,0l-5.297,5.297
					c-0.875,0.875-0.875,2.295,0,3.17l11.837,11.837c0.875,0.875,2.295,0.875,3.17,0l5.297-5.297
					C125.202,127.405,125.202,125.985,124.327,125.11z"/>
			</g>
		</g>
		<g>
			<g>
				<path fill="#F9D0B4" d="M128,107.225L128,107.225c-4.878,0-9.485-1.211-13.545-3.336v4.785c0,1.85-0.505,3.622-1.41,5.155
					l11.281,11.281c0.381,0.381,0.586,0.865,0.635,1.362h5.406v-19.354C129.585,107.181,128.798,107.225,128,107.225z"/>
			</g>
		</g>
		<g>
			<g>
				<path fill="#DAE6F1" d="M125.482,169.591c0-1.585,1.285-2.869,2.87-2.869h6.082c-2.246,0-4.066-1.82-4.066-4.066v-36.184h-5.406
					c0.064,0.646-0.141,1.313-0.635,1.808l-5.297,5.297c-0.875,0.875-2.295,0.875-3.17,0l-11.837-11.837
					c-0.388-0.388-0.594-0.883-0.638-1.389c-2.785,1.192-5.661,2.166-8.601,2.906l-16.897,4.253
					c-4.924,1.24-8.47,5.537-8.752,10.606l-2.336,40.274h67.482C129.421,178.39,125.482,174.451,125.482,169.591z"/>
			</g>
		</g>
		<g>
			<g>
				<path fill="#FC657E" d="M124.962,126.472c0.064,0.646-0.141,1.313-0.635,1.808l-4.439,4.439L120,133l4,6h6.367v-12.528H124.962z
					"/>
			</g>
		</g>
		<g>
			<g>
				<path fill="#FC657E" d="M125.482,169.591c0-1.585,1.285-2.869,2.87-2.869h6.082c-2.245,0-4.066-1.82-4.066-4.066V139H124
					l-7.2,39.39h17.481C129.421,178.39,125.482,174.451,125.482,169.591z"/>
			</g>
		</g>
		<g>
			<g>
				<path d="M129.688,136.5h-4.35l-3.258-4.887c-0.766-1.148-2.317-1.46-3.467-0.693c-1.149,0.766-1.459,2.318-0.693,3.467l4,6
					c0.463,0.695,1.244,1.113,2.08,1.113h5.688c1.381,0,2.5-1.119,2.5-2.5S131.069,136.5,129.688,136.5z"/>
			</g>
		</g>
		<g>
			<g>
				<path d="M124.42,136.704c-1.36-0.258-2.661,0.651-2.909,2.01l-7.041,38.518c-0.248,1.357,0.652,2.66,2.01,2.908
					c0.152,0.028,0.303,0.041,0.453,0.041c1.184,0,2.236-0.845,2.457-2.051l7.041-38.518
					C126.678,138.255,125.778,136.952,124.42,136.704z"/>
			</g>
		</g>
		<g>
			<g>
				<path fill="#F9D0B4" d="M157.396,51.174c-0.017-0.834-0.684-1.521-1.518-1.546c-12.214-0.358-18.65-5.199-21.123-7.623
					c-0.675-0.662-1.765-0.592-2.353,0.148c-10.739,13.505-26.58,11.599-31.907,10.484c-0.968-0.203-1.897,0.527-1.897,1.516v23.671
					c0,16.171,13.231,29.401,29.401,29.401h0c0.797,0,1.585-0.042,2.367-0.104v-0.822c0-2.246,1.82-4.066,4.066-4.066h9.903
					c7.864-5.291,13.065-14.271,13.065-24.409v-26.19C157.401,51.48,157.4,51.327,157.396,51.174z"/>
			</g>
		</g>
		<g>
			<g>
				<path fill="#754E34" d="M151.007,19.987c-3.133,0-6.062,0.885-8.579,2.395c-2.94-4.907-8.297-8.22-14.403-8.22h-8.624
					c-16.691,0-30.348,13.657-30.348,30.348v13.598c2.1-1.681,4.76-2.691,7.659-2.691c0.642,0,1.271,0.054,1.887,0.149v-1.413
					c0.001-0.989,0.93-1.719,1.898-1.516c5.326,1.115,21.168,3.021,31.907-10.484c0.588-0.74,1.678-0.81,2.353-0.148
					c2.473,2.424,8.908,7.265,21.123,7.623c0.834,0.025,1.501,0.712,1.518,1.546c0.003,0.153,0.005,0.306,0.005,0.46v3.933
					c0.615-0.095,1.244-0.149,1.887-0.149c3.309,0,6.306,1.315,8.514,3.444V36.781C167.802,27.544,160.244,19.987,151.007,19.987z"
					/>
			</g>
		</g>
		<g>
			<g>
				<path fill="#F9D0B4" d="M159.288,55.416c-0.642,0-1.271,0.054-1.887,0.15v22.258c0,0.663-0.03,1.319-0.074,1.972
					c0.64,0.103,1.292,0.171,1.961,0.171c6.779,0,12.275-5.496,12.275-12.275C171.563,60.912,166.067,55.416,159.288,55.416z"/>
			</g>
		</g>
		<g>
			<g>
				<path fill="#F9D0B4" d="M98.599,77.824V55.566c-0.615-0.095-1.244-0.15-1.887-0.15c-6.779,0-12.275,5.496-12.275,12.275
					c0,6.779,5.496,12.275,12.275,12.275c0.669,0,1.321-0.068,1.961-0.171v0C98.629,79.143,98.599,78.487,98.599,77.824z"/>
			</g>
		</g>
		<g>
			<g>
				<path d="M138.398,82.883c-1.058-0.887-2.634-0.748-3.522,0.31c-1.323,1.578-3.584,2.521-6.05,2.521
					c-2.466,0-4.728-0.942-6.05-2.52c-0.886-1.059-2.462-1.198-3.522-0.311c-1.058,0.887-1.197,2.464-0.31,3.521
					c2.261,2.698,5.955,4.309,9.882,4.309c3.926,0,7.62-1.61,9.882-4.308C139.595,85.347,139.457,83.77,138.398,82.883z"/>
			</g>
		</g>
		<g>
			<g>
				<path d="M141.026,65.495c-2.072,0-3.752,1.68-3.752,3.752s1.68,3.752,3.752,3.752s3.752-1.68,3.752-3.752
					S143.098,65.495,141.026,65.495z"/>
			</g>
		</g>
		<g>
			<g>
				<path d="M115.829,65.495c-2.072,0-3.752,1.68-3.752,3.752s1.68,3.752,3.752,3.752c2.072,0,3.752-1.68,3.752-3.752
					S117.901,65.495,115.829,65.495z"/>
			</g>
		</g>
		<g>
			<g>
				<path d="M87.492,145.356c-1.381,0-2.5,1.119-2.5,2.5v28.62c0,1.381,1.119,2.5,2.5,2.5s2.5-1.119,2.5-2.5v-28.62
					C89.992,146.476,88.873,145.356,87.492,145.356z"/>
			</g>
		</g>
		<g>
			<g>
				<g>
					<path d="M126.094,123.343l-11.838-11.839c-1.848-1.848-4.856-1.848-6.705,0.001l-5.298,5.298
						c-1.847,1.849-1.847,4.855,0.001,6.705l11.838,11.838c0.924,0.924,2.138,1.386,3.352,1.386c1.214,0,2.429-0.462,3.353-1.387
						l5.298-5.297c0.896-0.896,1.389-2.087,1.389-3.353C127.483,125.429,126.99,124.238,126.094,123.343z M117.444,131.627
						l-11.472-11.472l4.932-4.933l11.472,11.473L117.444,131.627z"/>
				</g>
			</g>
		</g>
		<g>
			<g>
				<path d="M129.351,123.972h-3.992c-1.381,0-2.5,1.119-2.5,2.5s1.119,2.5,2.5,2.5h3.992c1.381,0,2.5-1.119,2.5-2.5
					S130.731,123.972,129.351,123.972z"/>
			</g>
		</g>
		<g>
			<g>
				<path d="M114.455,102.133c-1.381,0-2.5,1.119-2.5,2.5v4.041c0,1.222-0.299,2.441-0.865,3.527
					c-0.638,1.225-0.162,2.734,1.062,3.372c0.369,0.192,0.764,0.284,1.153,0.284c0.902,0,1.773-0.49,2.219-1.346
					c0.936-1.796,1.43-3.814,1.43-5.838v-4.041C116.955,103.252,115.836,102.133,114.455,102.133z"/>
			</g>
		</g>
		<g>
			<g>
				<path d="M105.279,119.559c-0.533-1.273-1.997-1.874-3.272-1.34c-2.542,1.065-5.179,1.945-7.834,2.613l-16.897,4.253
					c-6.018,1.515-10.293,6.696-10.638,12.887l-2.296,39.592c-0.08,1.378,0.973,2.561,2.351,2.641
					c0.049,0.003,0.098,0.004,0.147,0.004c1.314,0,2.417-1.026,2.493-2.355l2.296-39.598c0.223-3.999,2.982-7.343,6.867-8.32
					l16.897-4.254c2.897-0.729,5.772-1.688,8.545-2.851C105.213,122.297,105.813,120.832,105.279,119.559z"/>
			</g>
		</g>
		<g>
			<g>
				<path d="M159.896,51.124c-0.043-2.177-1.776-3.932-3.944-3.995c-11.533-0.338-17.441-4.944-19.446-6.91
					c-0.826-0.809-1.966-1.238-3.111-1.16c-1.153,0.071-2.228,0.633-2.948,1.539c-9.694,12.19-23.816,10.769-29.439,9.592
					c-1.208-0.252-2.452,0.05-3.411,0.828c-0.951,0.771-1.497,1.914-1.498,3.155v23.651c0,17.59,14.311,31.9,31.901,31.9
					c0.521,0,1.039-0.013,1.554-0.037c1.379-0.065,2.444-1.235,2.379-2.615c-0.065-1.378-1.216-2.438-2.615-2.379
					c-0.437,0.021-0.876,0.031-1.317,0.031c-14.833,0-26.901-12.067-26.901-26.9V55.297c6.063,1.061,21.658,2.204,32.637-10.825
					c3.253,2.905,9.843,7.086,21.166,7.621v25.731c0,8.731-4.304,16.967-11.514,22.03c-1.13,0.794-1.403,2.353-0.609,3.482
					c0.794,1.131,2.354,1.401,3.482,0.609c8.542-5.998,13.641-15.764,13.641-26.122v-26.19L159.896,51.124z"/>
			</g>
		</g>
		<g>
			<g>
				<path d="M151.007,17.487c-2.672,0-5.32,0.569-7.771,1.661c-3.638-4.667-9.277-7.486-15.211-7.486h-8.624
					c-18.112,0-32.848,14.735-32.848,32.848v12.969c0,1.381,1.119,2.5,2.5,2.5s2.5-1.119,2.5-2.5V44.51
					c0-15.355,12.493-27.848,27.848-27.848h8.624c4.972,0,9.669,2.684,12.258,7.005c0.341,0.568,0.894,0.979,1.537,1.14
					c0.643,0.163,1.324,0.06,1.893-0.281c2.224-1.333,4.746-2.038,7.294-2.038c7.882,0,14.294,6.412,14.294,14.294v21.502
					c0,1.381,1.119,2.5,2.5,2.5s2.5-1.119,2.5-2.5V36.781C170.302,26.143,161.646,17.487,151.007,17.487z"/>
			</g>
		</g>
		<g>
			<g>
				<path d="M159.288,52.916c-0.412,0-0.818,0.019-1.22,0.053c-1.376,0.117-2.396,1.328-2.278,2.704
					c0.117,1.375,1.322,2.382,2.703,2.278c0.262-0.022,0.527-0.035,0.795-0.035c5.39,0,9.775,4.385,9.775,9.775
					s-4.385,9.775-9.775,9.775c-0.298,0-0.591-0.018-0.881-0.048c-1.373-0.154-2.603,0.854-2.745,2.228
					c-0.143,1.373,0.854,2.603,2.228,2.745c0.484,0.051,0.941,0.075,1.398,0.075c8.147,0,14.775-6.628,14.775-14.775
					S167.435,52.916,159.288,52.916z"/>
			</g>
		</g>
		<g>
			<g>
				<path d="M97.456,77.432c-0.245,0.021-0.493,0.035-0.743,0.035c-5.39,0-9.775-4.385-9.775-9.775s4.385-9.775,9.775-9.775
					c0.258,0,0.513,0.012,0.766,0.032c1.37,0.104,2.581-0.916,2.691-2.293s-0.917-2.581-2.293-2.691
					c-0.384-0.03-0.771-0.048-1.163-0.048c-8.147,0-14.775,6.628-14.775,14.775s6.628,14.775,14.775,14.775
					c0.4,0,0.795-0.02,1.187-0.055c1.375-0.122,2.391-1.337,2.269-2.712C100.045,78.325,98.833,77.311,97.456,77.432z"/>
			</g>
		</g>
		<g>
			<g>
				<path fill="#EDF4FC" d="M208.379,102.232h-73.946c-2.246,0-4.066,1.82-4.066,4.066v56.358c0,2.246,1.82,4.066,4.066,4.066
					h73.946c2.245,0,4.066-1.82,4.066-4.066v-56.358C212.445,104.053,210.624,102.232,208.379,102.232z"/>
			</g>
		</g>
		<g>
			<g>
				<path fill="#DAE6F1" d="M214.461,166.722h-86.109c-1.585,0-2.87,1.285-2.87,2.869c0,4.86,3.939,8.799,8.799,8.799h74.251
					c4.859,0,8.799-3.939,8.799-8.799C217.33,168.007,216.046,166.722,214.461,166.722z"/>
			</g>
		</g>
		<g>
			<g>
				<path d="M178.246,131.978h-13.679c-1.381,0-2.5,1.119-2.5,2.5s1.119,2.5,2.5,2.5h13.679c1.381,0,2.5-1.119,2.5-2.5
					S179.626,131.978,178.246,131.978z"/>
			</g>
		</g>
		<g>
			<g>
				<g>
					<path d="M208.379,99.732h-73.946c-3.621,0-6.566,2.945-6.566,6.566v56.357c0,3.62,2.945,6.565,6.566,6.565h73.946
						c3.621,0,6.566-2.945,6.566-6.565v-56.357C214.945,102.678,212,99.732,208.379,99.732z M209.945,162.656
						c0,0.863-0.703,1.565-1.566,1.565h-73.946c-0.863,0-1.566-0.702-1.566-1.565v-56.357c0-0.863,0.703-1.566,1.566-1.566h73.946
						c0.863,0,1.566,0.703,1.566,1.566V162.656z"/>
				</g>
			</g>
		</g>
		<g>
			<g>
				<g>
					<path d="M214.461,164.222h-86.11c-2.96,0-5.369,2.409-5.369,5.37c0,6.23,5.069,11.299,11.299,11.299h74.25
						c6.23,0,11.299-5.068,11.299-11.299C219.83,166.631,217.421,164.222,214.461,164.222z M208.531,175.891h-74.25
						c-3.473,0-6.299-2.825-6.299-6.299c0-0.204,0.166-0.37,0.369-0.37h86.11c0.204,0,0.369,0.166,0.369,0.37
						C214.83,173.065,212.004,175.891,208.531,175.891z"/>
				</g>
			</g>
		</g>
		<g>
			<g>
				<path fill="#F5C84C" d="M60.104,127.396c-4.5-0.8-8-4.3-8.9-8.7c0-0.2-0.4-0.2-0.4,0c-0.9,4.4-4.4,7.9-8.9,8.7
					c-0.2,0-0.2,0.3,0,0.4c4.5,0.8,8,4.3,8.9,8.7c0,0.2,0.4,0.2,0.4,0c0.9-4.4,4.4-7.9,8.9-8.7
					C60.304,127.697,60.304,127.396,60.104,127.396z"/>
			</g>
		</g>
		<g>
			<g>
				<path fill="#87D147" d="M196.665,80.21c-3.158-0.561-5.613-3.017-6.245-6.104c0-0.14-0.281-0.14-0.281,0
					c-0.631,3.087-3.087,5.543-6.245,6.104c-0.14,0-0.14,0.21,0,0.281c3.158,0.562,5.613,3.017,6.245,6.104
					c0,0.14,0.281,0.14,0.281,0c0.631-3.087,3.087-5.543,6.245-6.104C196.805,80.42,196.805,80.21,196.665,80.21z"/>
			</g>
		</g>
		<g>
			<g>
				<path fill="#FC657E" d="M192.754,16.646h-2.3v-2.3c0-1.7-1.4-3.2-3.2-3.2s-3.2,1.4-3.2,3.2v2.3h-2.3c-1.7,0-3.2,1.4-3.2,3.2
					c0,1.8,1.4,3.2,3.2,3.2h2.3v2.3c0,1.7,1.4,3.2,3.2,3.2s3.2-1.4,3.2-3.2v-2.3h2.3c1.7,0,3.2-1.4,3.2-3.2
					C195.954,18.047,194.554,16.646,192.754,16.646z"/>
			</g>
		</g>
		<g>
			<g>
				<path fill="#70D6F9" d="M41.904,151c-1.878,0-3.4,1.522-3.4,3.4c0,1.878,1.522,3.4,3.4,3.4s3.4-1.522,3.4-3.4
					C45.304,152.522,43.782,151,41.904,151z"/>
			</g>
		</g>
		<g>
			<g>
				<path fill="#F5C84C" d="M164.854,0c-1.878,0-3.4,1.522-3.4,3.4c0,1.878,1.522,3.4,3.4,3.4c1.878,0,3.4-1.522,3.4-3.4
					C168.254,1.522,166.732,0,164.854,0z"/>
			</g>
		</g>
		<g>
			<g>
				<g>
					<path d="M239.793,175.891H16.207c-3.147,0-5.707,2.561-5.707,5.707v7.195c0,3.146,2.56,5.707,5.707,5.707h223.586
						c3.146,0,5.707-2.561,5.707-5.707v-7.195C245.5,178.451,242.94,175.891,239.793,175.891z M240.5,188.793
						c0,0.39-0.317,0.707-0.707,0.707H16.207c-0.39,0-0.707-0.317-0.707-0.707v-7.195c0-0.39,0.317-0.707,0.707-0.707h223.586
						c0.39,0,0.707,0.317,0.707,0.707V188.793z"/>
				</g>
			</g>
		</g>
		<g>
			<g>
				<path d="M235.75,190.833c-1.381,0-2.5,1.119-2.5,2.5v56.606c0,0.585-0.476,1.061-1.06,1.061H23.81
					c-0.584,0-1.06-0.476-1.06-1.061v-57.106c0-1.381-1.119-2.5-2.5-2.5s-2.5,1.119-2.5,2.5v57.106c0,3.342,2.719,6.061,6.06,6.061
					h208.38c3.341,0,6.06-2.719,6.06-6.061v-56.606C238.25,191.952,237.131,190.833,235.75,190.833z"/>
			</g>
		</g>
	</g>
</g>
<g id="Layer_67">
</g>
<g id="Layer_68">
</g>
<g id="Layer_69">
</g>
<g id="Layer_70">
</g>
<g id="Layer_71">
</g>
<g id="Layer_72">
</g>
<g id="Layer_73">
</g>
<g id="Layer_74">
</g>
<g id="Layer_75">
</g>
<g id="Layer_76">
</g>
<g id="Layer_77">
</g>
<g id="Layer_78">
</g>
<g id="Layer_79">
</g>
<g id="Layer_80">
</g>
<g id="Layer_81">
</g>
<g id="Layer_82">
</g>
<g id="Layer_83">
</g>
<g id="Layer_84">
</g>
<g id="Layer_85">
</g>
<g id="Layer_86">
</g>
<g id="Layer_87">
</g>
<g id="Layer_88">
</g>
<g id="Layer_89">
</g>
<g id="Layer_90">
</g>
</svg>
