<svg xmlns="http://www.w3.org/2000/svg" width="128" height="128" viewBox="0 0 128 128">
  <title>MITER SAW</title>
  <g>
    <g>
      <polygon points="57.535 13.008 19.469 51.074 19.469 72.531 26.125 72.531 26.125 84.18 33.281 80.345 33.281 64.887 38.758 70.363 76.825 32.297 57.535 13.008" fill="#6e77e5"/>
      <path d="M108.531,126.247,98.523,105.063H36.789L26.781,126.247H51.812v-6.592a4,4,0,0,1,4-4H79.5a4,4,0,0,1,4,4v6.592Z" fill="#fedb41"/>
      <rect x="36.789" y="89.38" width="61.734" height="15.683" fill="#57555c"/>
      <path d="M42.085,67.036c.425.508.871,1,1.348,1.481A22.306,22.306,0,1,0,74.978,36.972c-.477-.477-.973-.923-1.481-1.348Z" fill="#e5e5e5"/>
      <path d="M46.76,62.361A15.742,15.742,0,1,0,68.823,40.3Z" fill="#aeadb3"/>
      <polygon points="73.78 6.731 64.261 19.734 57.535 13.008 68.796 1.747 73.78 6.731" fill="#57555c"/>
      <path d="M41.888,36.115H61.231a6,6,0,0,1,6,6V53.882a0,0,0,0,1,0,0H35.888a0,0,0,0,1,0,0V42.115A6,6,0,0,1,41.888,36.115Z" transform="translate(-16.717 49.638) rotate(-45)" fill="#fedb41"/>
      <path d="M46.722,51.586A1.75,1.75,0,0,1,45.485,48.6L55.738,38.346a1.749,1.749,0,0,1,2.474,2.474L47.959,51.073A1.741,1.741,0,0,1,46.722,51.586Z" fill="#fea832"/>
      <path d="M19.469,97.063a8,8,0,0,0,8,8h9.32V89.38H33.281V80.345l-13.812,7.4Z" fill="#fedb41"/>
    </g>
    <g>
      <path d="M110.114,125.5l-9.841-20.83V89.38a1.749,1.749,0,0,0-1.75-1.75H88.75a1.75,1.75,0,0,0,0,3.5h8.023v12.183H38.539V91.13H78.625a1.75,1.75,0,0,0,0-3.5H35.031V69.111l2.49,2.49A1.751,1.751,0,0,0,40,71.6l2.027-2.028c.058.059.115.123.173.181a24.055,24.055,0,0,0,34.019-34.02c-.058-.057-.122-.114-.181-.172l2.028-2.028a1.748,1.748,0,0,0,0-2.474l-11.5-11.5L75.192,7.766a1.751,1.751,0,0,0-.175-2.272L70.033.51a1.748,1.748,0,0,0-2.474,0L39.94,28.128A1.75,1.75,0,1,0,42.415,30.6l15.12-15.121L74.35,32.3l-5.428,5.427-7.083-7.083a7.758,7.758,0,0,0-10.96,0L37.2,44.318a7.75,7.75,0,0,0,0,10.96l7.084,7.083-5.528,5.528-4.239-4.24a1.75,1.75,0,0,0-2.988,1.238V79.3l-3.656,1.96V72.531a1.751,1.751,0,0,0-1.75-1.75H21.219V51.8l5.852-5.853A1.75,1.75,0,0,0,24.6,43.472l-6.365,6.365a1.749,1.749,0,0,0-.512,1.237V72.531a1.749,1.749,0,0,0,1.75,1.75h4.906v8.852l-5.733,3.072a1.75,1.75,0,0,0-.923,1.542v9.316a9.761,9.761,0,0,0,9.75,9.75h6.558L25.2,125.5a1.749,1.749,0,0,0,1.582,2.5H51.812a1.749,1.749,0,0,0,1.75-1.75v-6.593a2.253,2.253,0,0,1,2.25-2.25H79.5a2.253,2.253,0,0,1,2.25,2.25v6.593A1.75,1.75,0,0,0,83.5,128h25.031a1.749,1.749,0,0,0,1.583-2.5ZM68.8,4.222l2.685,2.686L64.055,17.053,60.01,13.008Zm.125,38.454c.061.059.12.116.179.175A13.993,13.993,0,0,1,49.312,62.64c-.058-.059-.117-.119-.175-.18Zm4.819,24.6a20.553,20.553,0,0,1-29.07,0c-.058-.057-.117-.117-.175-.176l2.172-2.172c.056.059.113.126.17.183A17.492,17.492,0,0,0,71.574,40.376c-.057-.057-.124-.114-.183-.17l2.171-2.172c.061.059.12.116.178.175A20.578,20.578,0,0,1,73.74,67.279ZM39.677,52.8a4.25,4.25,0,0,1,0-6.011L53.354,33.115a4.257,4.257,0,0,1,6.011,0L66.448,40.2,46.76,59.887ZM21.219,97.063V88.8l10.312-5.527V89.38a1.75,1.75,0,0,0,1.75,1.75h1.758v12.183h-7.57A6.257,6.257,0,0,1,21.219,97.063ZM85.25,124.5v-4.843a5.757,5.757,0,0,0-5.75-5.75H55.812a5.757,5.757,0,0,0-5.75,5.75V124.5H29.543L37.9,106.813H97.415l8.354,17.684Z"/>
      <path d="M55.738,38.346,45.485,48.6a1.749,1.749,0,1,0,2.474,2.474L58.212,40.82a1.749,1.749,0,0,0-2.474-2.474Z"/>
      <path d="M32.724,39.568a1.744,1.744,0,0,0,1.237-.512l1.563-1.563a1.749,1.749,0,1,0-2.474-2.474l-1.563,1.562a1.749,1.749,0,0,0,1.237,2.987Z"/>
    </g>
  </g>
</svg>
