<?xml version="1.0" encoding="utf-8"?>
<!-- Generator: Adobe Illustrator 16.0.0, SVG Export Plug-In . SVG Version: 6.00 Build 0)  -->
<!DOCTYPE svg PUBLIC "-//W3C//DTD SVG 1.0//EN" "http://www.w3.org/TR/2001/REC-SVG-20010904/DTD/svg10.dtd">
<svg version="1.0" id="Layer_1" xmlns="http://www.w3.org/2000/svg" xmlns:xlink="http://www.w3.org/1999/xlink" x="0px" y="0px"
	 width="100px" height="100px" viewBox="0 0 100 100" enable-background="new 0 0 100 100" xml:space="preserve">
<path d="M53.334,46.669h-6.668c-1.842,0-3.332-1.49-3.332-3.333H43.33l0.004-0.004c0-1.842,1.49-3.332,3.332-3.332v-0.004v0.007
	h6.668c1.842,0,3.332,1.49,3.332,3.333h6.667c0-5.521-4.479-10-9.999-10.004v-6.663h-6.668v6.667v-0.004c-5.52,0-10,4.477-10,10
	v0.004c0,5.521,4.48,10,10,10h6.668c1.842,0,3.332,1.49,3.332,3.334H56.66c0,1.842-1.49,3.332-3.333,3.332h-6.662
	c-1.842,0-3.332-1.49-3.332-3.332h-6.667c0,5.52,4.48,10,10,10v6.666h6.668V66.67c5.52-0.008,9.996-4.48,9.996-10h0.003
	C63.333,51.148,58.854,46.669,53.334,46.669z"/>
<path d="M88.057,45.29l-5.455-5.456c-1.296-1.295-2.357-3.861-2.357-5.69v-7.718c0-3.666-2.997-6.663-6.666-6.666h-7.719
	c-1.833,0-4.395-1.063-5.69-2.358l-5.456-5.455c-2.59-2.595-6.836-2.595-9.426,0l-5.456,5.458c-1.296,1.296-3.861,2.358-5.69,2.358
	h-7.716c-3.664,0-6.666,2.997-6.666,6.666v7.712c0,1.832-1.061,4.395-2.358,5.69l-5.454,5.459c-2.596,2.591-2.596,6.832,0,9.427
	l5.454,5.455c1.297,1.295,2.358,3.861,2.358,5.689v7.717c0,3.664,3.002,6.666,6.666,6.666h7.716c1.832,0,4.394,1.061,5.69,2.355
	l5.456,5.457c2.59,2.59,6.836,2.59,9.426,0l5.456-5.457c1.296-1.295,3.857-2.355,5.69-2.355h7.719c3.669,0,6.666-3.002,6.666-6.666
	v-7.717c0-1.836,1.062-4.395,2.357-5.689l5.455-5.455C90.648,52.121,90.648,47.88,88.057,45.29z M77.888,55.459
	c-2.539,2.531-4.31,6.816-4.31,10.402v7.717h-7.719c-3.587,0-7.868,1.77-10.404,4.309L50,83.342l-5.455-5.455
	c-2.539-2.539-6.817-4.309-10.404-4.309h-7.716v-7.717c0-3.586-1.77-7.863-4.309-10.402l-5.458-5.456l5.458-5.46
	c2.539-2.535,4.309-6.813,4.309-10.403v-7.712h7.716c3.587,0,7.865-1.774,10.404-4.311L50,16.66l5.456,5.456
	c2.536,2.536,6.817,4.311,10.404,4.311h7.719v7.718c0,3.587,1.771,7.865,4.31,10.404l5.456,5.456L77.888,55.459z"/>
</svg>
