<?xml version="1.0" encoding="utf-8"?>
<!-- Generator: Adobe Illustrator 16.0.0, SVG Export Plug-In . SVG Version: 6.00 Build 0)  -->
<!DOCTYPE svg PUBLIC "-//W3C//DTD SVG 1.0//EN" "http://www.w3.org/TR/2001/REC-SVG-20010904/DTD/svg10.dtd">
<svg version="1.0" id="Layer_1" xmlns="http://www.w3.org/2000/svg" xmlns:xlink="http://www.w3.org/1999/xlink" x="0px" y="0px"
	 width="100px" height="100px" viewBox="0 0 100 100" enable-background="new 0 0 100 100" xml:space="preserve">
<path d="M50,36.667c-5.521,0-10,5.97-10,13.333c0,7.356,4.479,13.333,10,13.333S60,57.356,60,50C60,42.637,55.521,36.667,50,36.667z
	 M50,56.667c-1.843,0-3.333-2.988-3.333-6.667c0-3.685,1.49-6.667,3.333-6.667c1.839,0,3.333,2.982,3.333,6.667
	C53.333,53.679,51.839,56.667,50,56.667z"/>
<path d="M10,26.667v46.666h80V26.667H10z M16.667,33.333h6.666c0,3.679-2.984,6.667-6.666,6.667V33.333z M16.667,66.667V60
	c3.682,0,6.666,2.981,6.666,6.667H16.667z M83.333,66.667h-6.666c0-3.686,2.984-6.667,6.666-6.667V66.667z M83.333,53.333
	C75.97,53.333,70,59.304,70,66.667H30c0-7.363-5.97-13.334-13.333-13.334v-6.666C24.03,46.667,30,40.696,30,33.333h40
	c0,7.363,5.97,13.334,13.333,13.334V53.333z M83.333,40c-3.682,0-6.666-2.988-6.666-6.667h6.666V40z"/>
</svg>
