<?xml version="1.0" encoding="utf-8"?>
<!-- Generator: Adobe Illustrator 16.0.0, SVG Export Plug-In . SVG Version: 6.00 Build 0)  -->
<!DOCTYPE svg PUBLIC "-//W3C//DTD SVG 1.0//EN" "http://www.w3.org/TR/2001/REC-SVG-20010904/DTD/svg10.dtd">
<svg version="1.0" id="Layer_1" xmlns="http://www.w3.org/2000/svg" xmlns:xlink="http://www.w3.org/1999/xlink" x="0px" y="0px"
	 width="100px" height="100px" viewBox="0 0 100 100" enable-background="new 0 0 100 100" xml:space="preserve">
<path d="M83.334,10H16.667C13.002,10,10,12.999,10,16.667V70c0,3.666,3.002,6.668,6.667,6.668h30v6.666H30V90h40v-6.666H53.334
	v-6.666h30C86.999,76.668,90,73.666,90,70V16.667C90,12.999,86.999,10,83.334,10z M83.334,70H16.667V16.667h66.667V70z"/>
<path d="M70,26.667H54.473l0.007,5h10.318l-19.352,19.35c-2.122,2.121-6.615,3.984-9.613,3.984h-9.166V60h9.166
	c4.317,0,10.091-2.396,13.148-5.448l19.352-19.35L68.33,45.524h5.004V30C73.334,28.159,71.844,26.667,70,26.667z"/>
</svg>
