<?xml version="1.0" encoding="utf-8"?>
<!-- Generator: Adobe Illustrator 16.0.0, SVG Export Plug-In . SVG Version: 6.00 Build 0)  -->
<!DOCTYPE svg PUBLIC "-//W3C//DTD SVG 1.0//EN" "http://www.w3.org/TR/2001/REC-SVG-20010904/DTD/svg10.dtd">
<svg version="1.0" id="Layer_1" xmlns="http://www.w3.org/2000/svg" xmlns:xlink="http://www.w3.org/1999/xlink" x="0px" y="0px"
	 width="100px" height="100px" viewBox="0 0 100 100" enable-background="new 0 0 100 100" xml:space="preserve">
<path d="M83.333,10H16.667C13.001,10,10,13,10,16.667V70c0,3.666,3.001,6.666,6.667,6.666H40c0,3.682-2.988,6.664-6.667,6.664v0.004
	H30V90h40v-6.666h-3.333c-3.682,0-6.667-2.986-6.667-6.668h23.333c3.666,0,6.667-3,6.667-6.666V16.667C90,13,86.999,10,83.333,10z
	 M83.333,16.667v40H16.667v-40H83.333z M55.183,83.334H44.817c1.146-1.971,1.85-4.227,1.85-6.668h6.666
	C53.333,79.107,54.036,81.363,55.183,83.334z M16.667,70v-6.666h66.666V70H16.667z"/>
<path d="M75.69,34.308L64.707,23.332l-3.528,3.539l7.298,7.295H23.333v5h45.144l-7.305,7.3L64.71,50l10.98-10.978
	C76.992,37.72,76.992,35.61,75.69,34.308z"/>
</svg>
