<?xml version="1.0" encoding="utf-8"?>
<!-- Generator: Adobe Illustrator 16.0.0, SVG Export Plug-In . SVG Version: 6.00 Build 0)  -->
<!DOCTYPE svg PUBLIC "-//W3C//DTD SVG 1.0//EN" "http://www.w3.org/TR/2001/REC-SVG-20010904/DTD/svg10.dtd">
<svg version="1.0" id="Layer_1" xmlns="http://www.w3.org/2000/svg" xmlns:xlink="http://www.w3.org/1999/xlink" x="0px" y="0px"
	 width="100px" height="100px" viewBox="0 0 100 100" enable-background="new 0 0 100 100" xml:space="preserve">
<path d="M73.333,33.333c-9.205,0-16.666,7.461-16.666,16.667v6.667L63.333,90h20L90,56.667V50
	C90,40.794,82.539,33.333,73.333,33.333z M77.868,83.333h-9.069l-4.001-20h17.07L77.868,83.333z M83.333,56.667h-20V50
	c0-5.521,4.477-10,10-10c5.524,0,10,4.479,10,10V56.667z"/>
<path d="M46.667,83.333V70h-10V10H30v60H20v13.333H10V90h46.667v-6.667H46.667z M26.667,83.333v-6.666H40v6.666H26.667z"/>
</svg>
