<svg id="icons" xmlns="http://www.w3.org/2000/svg" viewBox="0 0 64 64"><defs><style>.cls-1{fill:none;stroke:#000;stroke-linecap:round;stroke-linejoin:round;}</style></defs><title>mushrooms</title><g id="mushrooms"><path class="cls-1" d="M48.95762,24.82635a4.77986,4.77986,0,0,1-4.72231,4.05714H8.77545a4.74623,4.74623,0,0,1-4.47521-6.36607,23.75425,23.75425,0,0,1,44.41033,0A4.54125,4.54125,0,0,1,48.95762,24.82635Z"/><path class="cls-1" d="M34.26818,52.70393a3.811,3.811,0,0,1-3.79112,4.09518H22.04917a3.811,3.811,0,0,1-3.79112-4.09518l1.84331-23.82044H32.42487l.74115,9.62509Z"/><path class="cls-1" d="M56.8819,38.56559H33.72658a2.73341,2.73341,0,0,1-.56056-.057l-.74115-9.62509H44.23531a4.77986,4.77986,0,0,0,4.72231-4.05714A15.5619,15.5619,0,0,1,59.79889,34.4039,3.09339,3.09339,0,0,1,56.8819,38.56559Z"/><path class="cls-1" d="M50.37335,54.11966a2.49523,2.49523,0,0,1-2.4799,2.67945H42.392a2.48226,2.48226,0,0,1-2.47039-2.67945l1.19721-15.55407h8.0478Z"/><path class="cls-1" d="M10.42537,18.04219A23.78707,23.78707,0,0,1,20.19377,11.32"/><path class="cls-1" d="M31.87936,52.03327a2.72726,2.72726,0,0,1-2.713,2.93063H26.53491"/><path class="cls-1" d="M56.71248,33.56354a2.3468,2.3468,0,0,1-2.213,3.15726"/><path class="cls-1" d="M48.28319,53.23772a1.6075,1.6075,0,0,1-1.59762,1.72618"/></g></svg>