<?xml version="1.0" encoding="utf-8"?>
<!-- Generator: Adobe Illustrator 24.0.0, SVG Export Plug-In . SVG Version: 6.00 Build 0)  -->
<svg version="1.1" xmlns="http://www.w3.org/2000/svg" xmlns:xlink="http://www.w3.org/1999/xlink" x="0px" y="0px"
	 viewBox="0 0 256 256" enable-background="new 0 0 256 256" xml:space="preserve">
<g id="Layer_1">
</g>
<g id="Layer_2">
</g>
<g id="Layer_3">
</g>
<g id="Layer_4">
</g>
<g id="Layer_5">
</g>
<g id="Layer_6">
</g>
<g id="Layer_7">
</g>
<g id="Layer_8">
</g>
<g id="Layer_9">
</g>
<g id="Layer_10">
</g>
<g id="Layer_11">
</g>
<g id="Layer_12">
</g>
<g id="Layer_13">
</g>
<g id="Layer_14">
</g>
<g id="Layer_15">
</g>
<g id="Layer_16">
</g>
<g id="Layer_17">
</g>
<g id="Layer_18">
</g>
<g id="Layer_19">
</g>
<g id="Layer_20">
</g>
<g id="Layer_21">
</g>
<g id="Layer_22">
</g>
<g id="Layer_23">
</g>
<g id="Layer_24">
</g>
<g id="Layer_25">
</g>
<g id="Layer_26">
</g>
<g id="Layer_27">
</g>
<g id="Layer_28">
</g>
<g id="Layer_29">
</g>
<g id="Layer_30">
</g>
<g id="Layer_31">
</g>
<g id="Layer_32">
</g>
<g id="Layer_33">
</g>
<g id="Layer_34">
	<g>
		<g>
			<g>
				<path fill="#FC657E" d="M246.238,206.784l-38.395-38.396c-2.764-2.764-7.246-2.764-10.01,0l-7.694,7.694
					c-2.764,2.764-2.764,7.246,0,10.01l38.396,38.395c2.764,2.764,7.246,2.764,10.01,0l7.693-7.693
					C249.002,214.03,249.002,209.549,246.238,206.784z"/>
			</g>
		</g>
		<g>
			<g>
				<path fill="#C7D7E5" d="M183.51,151.138c-3.116,3.938-6.627,7.55-10.497,10.748l15.88,15.88
					c0.322-0.605,0.736-1.174,1.245-1.683l7.694-7.694c0.51-0.51,1.078-0.924,1.683-1.245L183.51,151.138z"/>
			</g>
		</g>
		<g>
			<g>
				<path fill="#5290DB" d="M232.065,26.594H23.935c-7.241,0-13.112,5.87-13.112,13.112v151.528c0,7.241,5.87,13.112,13.112,13.112
					h184.457l-18.253-18.253c-2.255-2.255-2.669-5.651-1.245-8.327l-15.88-15.88c3.87-3.197,7.381-6.809,10.497-10.748
					l16.005,16.005c2.676-1.423,6.072-1.009,8.327,1.245l32.772,32.772c2.789-2.404,4.562-5.956,4.562-9.927V39.706
					C245.177,32.465,239.306,26.594,232.065,26.594z"/>
			</g>
		</g>
		<g>
			<g>
				
					<ellipse transform="matrix(0.0985 -0.9951 0.9951 0.0985 8.6053 224.1077)" fill="#EDF4FC" cx="128" cy="107.304" rx="70.779" ry="70.779"/>
			</g>
		</g>
		<g>
			<g>
				
					<ellipse transform="matrix(0.7071 -0.7071 0.7071 0.7071 -38.3851 121.9383)" fill="#70D6F9" cx="128" cy="107.304" rx="58.884" ry="58.884"/>
			</g>
		</g>
		<g>
			<g>
				<path fill="#5290DB" d="M188.473,244.166c-32.468-17.548-88.467-17.554-120.945,0c-2.413,1.303-3.312,4.316-2.007,6.728
					c1.303,2.413,4.315,3.313,6.728,2.007c29.576-15.983,81.997-15.945,111.504,0c2.399,1.299,5.418,0.417,6.728-2.007
					C191.784,248.482,190.885,245.469,188.473,244.166z"/>
			</g>
		</g>
		<g>
			<g>
				<path fill="#3A70BF" d="M110.079,204.345v27.642c11.793-1.298,24.05-1.298,35.842,0v-27.642H110.079z"/>
			</g>
		</g>
		<g>
			<g>
				<path d="M232.064,24.094H23.936c-8.608,0-15.612,7.003-15.612,15.612v151.528c0,8.608,7.004,15.611,15.612,15.611h183.439
					c1.381,0,2.5-1.119,2.5-2.5s-1.119-2.5-2.5-2.5H23.936c-5.852,0-10.612-4.76-10.612-10.611V39.706
					c0-5.852,4.761-10.612,10.612-10.612h208.129c5.852,0,10.612,4.76,10.612,10.612v151.528c0,2.86-1.122,5.543-3.158,7.553
					c-0.983,0.97-0.993,2.553-0.023,3.535c0.97,0.984,2.552,0.994,3.535,0.023c2.996-2.957,4.646-6.903,4.646-11.111V39.706
					C247.677,31.098,240.673,24.094,232.064,24.094z"/>
			</g>
		</g>
		<g>
			<g>
				<g>
					<g>
						<path d="M193.266,246.399c-0.569-1.911-1.85-3.485-3.604-4.433c-33.425-18.064-89.899-18.065-123.322,0
							c-1.755,0.948-3.035,2.523-3.604,4.434c-0.57,1.911-0.361,3.93,0.586,5.683c0.948,1.754,2.522,3.035,4.433,3.605
							c0.707,0.211,1.428,0.315,2.145,0.315c1.223,0,2.434-0.304,3.539-0.902c28.557-15.432,80.57-15.432,109.127,0
							c1.748,0.946,3.761,1.155,5.672,0.59c1.915-0.568,3.493-1.85,4.443-3.607C193.627,250.329,193.836,248.311,193.266,246.399z
							 M188.28,249.706c-0.314,0.581-0.835,1.004-1.467,1.191c-0.629,0.186-1.295,0.118-1.871-0.194c-0.001,0-0.001,0-0.002,0
							c-30.331-16.391-83.547-16.392-113.882,0c-0.579,0.313-1.245,0.381-1.875,0.194c-0.631-0.188-1.15-0.611-1.464-1.192
							c-0.313-0.579-0.383-1.245-0.194-1.876s0.611-1.15,1.19-1.464c15.791-8.534,37.537-12.801,59.284-12.801
							c21.746,0,43.493,4.267,59.284,12.801c0.579,0.313,1.002,0.833,1.19,1.463S188.594,249.125,188.28,249.706z"/>
					</g>
				</g>
			</g>
		</g>
		<g>
			<g>
				<path d="M145.921,202.583c-1.381,0-2.5,1.119-2.5,2.5v25.92c0,1.381,1.119,2.5,2.5,2.5s2.5-1.119,2.5-2.5v-25.92
					C148.421,203.702,147.302,202.583,145.921,202.583z"/>
			</g>
		</g>
		<g>
			<g>
				<path d="M110.079,202.708c-1.381,0-2.5,1.119-2.5,2.5v25.795c0,1.381,1.119,2.5,2.5,2.5s2.5-1.119,2.5-2.5v-25.795
					C112.579,203.827,111.46,202.708,110.079,202.708z"/>
			</g>
		</g>
		<g>
			<g>
				<path fill="#3A70BF" d="M20.754,39.768V49.93h65.872C98.272,41.508,112.561,36.525,128,36.525H23.997
					C22.206,36.525,20.754,37.977,20.754,39.768z M232.003,36.525H128c15.439,0,29.728,4.983,41.375,13.406h65.872V39.768
					C235.246,37.977,233.794,36.525,232.003,36.525z"/>
			</g>
		</g>
		<g>
			<g>
				<path fill="#FC657E" d="M23.997,36.525c-1.791,0-3.243,1.452-3.243,3.243V49.93h19.364V36.525H23.997z"/>
			</g>
		</g>
		<g>
			<g>
				<path fill="#9BE5F9" d="M169.375,49.931c17.794,12.868,29.405,33.784,29.405,57.373c0,16.545-5.721,31.769-15.269,43.834
					l16.005,16.005c2.676-1.423,6.072-1.009,8.327,1.245l25.649,25.649c1.038-0.541,1.755-1.614,1.755-2.865V49.931H169.375z"/>
			</g>
		</g>
		<g>
			<g>
				<path fill="#9BE5F9" d="M190.139,186.093c-2.255-2.255-2.669-5.651-1.245-8.327l-15.88-15.88
					C160.771,172,145.083,178.083,128,178.083c-39.028,0-70.779-31.751-70.779-70.779c0-23.589,11.61-44.505,29.404-57.373H20.754
					v141.242c0,1.791,1.452,3.243,3.243,3.243h174.465L190.139,186.093z"/>
			</g>
		</g>
		<g>
			<g>
				<path d="M234.246,47.431h-63.934c-1.381,0-2.5,1.119-2.5,2.5s1.119,2.5,2.5,2.5h63.934c1.381,0,2.5-1.119,2.5-2.5
					S235.627,47.431,234.246,47.431z"/>
			</g>
		</g>
		<g>
			<g>
				<path d="M85.938,47.431H21.754c-1.381,0-2.5,1.119-2.5,2.5s1.119,2.5,2.5,2.5h64.185c1.381,0,2.5-1.119,2.5-2.5
					S87.319,47.431,85.938,47.431z"/>
			</g>
		</g>
		<g>
			<g>
				<path d="M40.117,34.958c-1.381,0-2.5,1.119-2.5,2.5v11.584c0,1.381,1.119,2.5,2.5,2.5s2.5-1.119,2.5-2.5V37.458
					C42.617,36.077,41.498,34.958,40.117,34.958z"/>
			</g>
		</g>
		<g>
			<g>
				<path d="M232.004,34.025H23.996c-3.166,0-5.742,2.576-5.742,5.743v151.405c0,3.167,2.576,5.743,5.742,5.743h173.962
					c1.381,0,2.5-1.119,2.5-2.5s-1.119-2.5-2.5-2.5H23.996c-0.409,0-0.742-0.333-0.742-0.743V39.768c0-0.41,0.333-0.743,0.742-0.743
					h208.008c0.409,0,0.742,0.333,0.742,0.743v151.405c0,0.308-0.174,0.495-0.276,0.579c-1.073,0.87-1.237,2.444-0.367,3.517
					c0.869,1.072,2.443,1.238,3.516,0.367c1.353-1.097,2.128-2.723,2.128-4.462V39.768C237.746,36.601,235.17,34.025,232.004,34.025
					z"/>
			</g>
		</g>
		<g>
			<g>
				<path fill="#F5C84C" d="M173.442,8.85c-4.5-0.8-8-4.3-8.9-8.7c0-0.2-0.4-0.2-0.4,0c-0.9,4.4-4.4,7.9-8.9,8.7
					c-0.2,0-0.2,0.3,0,0.4c4.5,0.8,8,4.3,8.9,8.7c0,0.2,0.4,0.2,0.4,0c0.9-4.4,4.4-7.9,8.9-8.7
					C173.642,9.15,173.642,8.85,173.442,8.85z"/>
			</g>
		</g>
		<g>
			<g>
				<path fill="#70D6F9" d="M212.002,231.059c-3.157-0.561-5.613-3.017-6.245-6.104c0-0.14-0.281-0.14-0.281,0
					c-0.632,3.087-3.087,5.543-6.245,6.104c-0.14,0-0.14,0.21,0,0.281c3.157,0.561,5.613,3.017,6.245,6.104
					c0,0.14,0.281,0.14,0.281,0c0.632-3.087,3.087-5.543,6.245-6.104C212.143,231.269,212.143,231.059,212.002,231.059z"/>
			</g>
		</g>
		<g>
			<g>
				<path fill="#FC657E" d="M58.092,222.349h-2.3v-2.3c0-1.7-1.4-3.2-3.2-3.2s-3.2,1.4-3.2,3.2v2.3h-2.3c-1.7,0-3.2,1.4-3.2,3.2
					s1.4,3.2,3.2,3.2h2.3v2.3c0,1.7,1.4,3.2,3.2,3.2s3.2-1.4,3.2-3.2v-2.3h2.3c1.7,0,3.2-1.4,3.2-3.2S59.892,222.349,58.092,222.349
					z"/>
			</g>
		</g>
		<g>
			<g>
				<path fill="#F5C84C" d="M26.192,214.849c-1.878,0-3.4,1.522-3.4,3.4c0,1.878,1.522,3.4,3.4,3.4c1.878,0,3.4-1.522,3.4-3.4
					C29.592,216.371,28.07,214.849,26.192,214.849z"/>
			</g>
		</g>
		<g>
			<g>
				<path fill="#87D147" d="M135.242,8.849c-1.878,0-3.4,1.522-3.4,3.4c0,1.878,1.522,3.4,3.4,3.4c1.878,0,3.4-1.522,3.4-3.4
					C138.642,10.371,137.12,8.849,135.242,8.849z"/>
			</g>
		</g>
		<g>
			<g>
				<g>
					<g>
						<g>
							<path d="M128,34.025c-40.406,0-73.279,32.873-73.279,73.279S87.594,180.583,128,180.583s73.279-32.873,73.279-73.279
								S168.406,34.025,128,34.025z M128,175.583c-37.649,0-68.279-30.63-68.279-68.279S90.351,39.025,128,39.025
								s68.279,30.63,68.279,68.279S165.649,175.583,128,175.583z"/>
						</g>
					</g>
				</g>
			</g>
		</g>
		<g>
			<g>
				<g>
					<path d="M128,45.92c-33.847,0-61.384,27.537-61.384,61.384S94.153,168.688,128,168.688s61.384-27.537,61.384-61.384
						S161.847,45.92,128,45.92z M128,163.688c-31.09,0-56.384-25.293-56.384-56.384S96.91,50.92,128,50.92
						s56.384,25.293,56.384,56.384S159.09,163.688,128,163.688z"/>
				</g>
			</g>
		</g>
		<g>
			<g>
				<g>
					<path d="M248.006,205.017l-38.396-38.395c-1.81-1.81-4.215-2.806-6.772-2.806c-2.559,0-4.964,0.996-6.773,2.806l-7.693,7.693
						c-3.734,3.734-3.734,9.811,0,13.545l38.396,38.396c1.867,1.867,4.32,2.8,6.772,2.8c2.453,0,4.906-0.934,6.773-2.801
						l7.693-7.694C251.739,214.828,251.74,208.751,248.006,205.017z M244.471,215.027l-7.693,7.693c-1.785,1.784-4.69,1.785-6.476,0
						l-38.396-38.396c-1.784-1.785-1.784-4.69,0-6.475l7.693-7.693c0.865-0.865,2.015-1.341,3.238-1.341
						c1.223,0,2.372,0.476,3.237,1.341l38.395,38.395C246.255,210.337,246.255,213.242,244.471,215.027z"/>
				</g>
			</g>
		</g>
		<g>
			<g>
				<path d="M200.812,164.904l-14.876-14.876c-0.977-0.977-2.559-0.977-3.535,0c-0.977,0.976-0.977,2.559,0,3.535l14.876,14.876
					c0.488,0.488,1.128,0.732,1.768,0.732s1.279-0.244,1.768-0.732C201.788,167.463,201.788,165.88,200.812,164.904z"/>
			</g>
		</g>
		<g>
			<g>
				<path d="M190.021,175.357l-14.5-14.5c-0.977-0.977-2.559-0.977-3.535,0c-0.977,0.976-0.977,2.559,0,3.535l14.5,14.5
					c0.488,0.488,1.128,0.732,1.768,0.732s1.279-0.244,1.768-0.732C190.997,177.916,190.997,176.333,190.021,175.357z"/>
			</g>
		</g>
		<g>
			<g>
				<path fill="#FCDD86" d="M154.123,109.664h-3.979c-0.504,0.155-1.014,0.297-1.535,0.412c-0.268,0.059-0.461,0.293-0.461,0.567
					v5.031c0,0.321-0.26,0.581-0.581,0.581h-6.49c-0.321,0-0.581-0.26-0.581-0.581v-5.031c0-0.275-0.193-0.508-0.461-0.567
					c-2.275-0.504-4.403-1.4-6.308-2.614c-0.232-0.148-0.533-0.119-0.728,0.075l-3.558,3.558c-0.227,0.227-0.595,0.227-0.822,0
					l-4.589-4.589c-0.227-0.227-0.227-0.595,0-0.822l3.558-3.558c0.194-0.194,0.223-0.496,0.075-0.728
					c-1.214-1.905-2.11-4.033-2.614-6.308c-0.059-0.268-0.293-0.461-0.568-0.461h-5.031c-0.321,0-0.581-0.26-0.581-0.581v-6.49
					c0-0.321,0.26-0.581,0.581-0.581h5.028V80.02c0-0.452-0.367-0.819-0.819-0.819h-9.142c-0.452,0-0.819,0.367-0.819,0.819v7.087
					c0,0.387-0.272,0.716-0.65,0.799c-3.205,0.71-6.201,1.971-8.885,3.682c-0.326,0.208-0.751,0.167-1.025-0.106l-5.012-5.012
					c-0.32-0.32-0.838-0.32-1.158,0l-6.464,6.464c-0.32,0.32-0.32,0.838,0,1.158l5.012,5.012c0.274,0.274,0.314,0.698,0.106,1.025
					c-1.71,2.684-2.972,5.68-3.682,8.885c-0.084,0.378-0.413,0.65-0.799,0.65h-7.087c-0.452,0-0.819,0.366-0.819,0.819v9.142
					c0,0.452,0.367,0.819,0.819,0.819h7.087c0.387,0,0.716,0.272,0.799,0.65c0.71,3.205,1.972,6.202,3.682,8.885
					c0.208,0.326,0.168,0.751-0.106,1.025l-5.012,5.012c-0.32,0.32-0.32,0.838,0,1.158l6.464,6.464c0.32,0.32,0.838,0.32,1.158,0
					l5.012-5.012c0.274-0.274,0.699-0.314,1.025-0.106c2.684,1.71,5.68,2.972,8.885,3.682c0.378,0.084,0.65,0.413,0.65,0.799v7.087
					c0,0.452,0.367,0.819,0.819,0.819h9.142c0.452,0,0.819-0.366,0.819-0.819V143c0-0.387,0.272-0.716,0.65-0.799
					c3.205-0.71,6.201-1.971,8.885-3.682c0.326-0.208,0.751-0.168,1.025,0.106l5.012,5.012c0.32,0.32,0.838,0.32,1.158,0
					l6.464-6.464c0.32-0.32,0.32-0.838,0-1.158l-5.012-5.012c-0.274-0.274-0.314-0.699-0.106-1.025
					c1.71-2.684,2.972-5.681,3.682-8.885c0.083-0.378,0.412-0.65,0.799-0.65h7.087c0.452,0,0.819-0.367,0.819-0.819v-9.142
					C154.942,110.03,154.575,109.664,154.123,109.664z"/>
			</g>
		</g>
		<g>
			<g>
				<path fill="#B2E26D" d="M169.194,86.977h-5.031c-0.275,0-0.508-0.193-0.568-0.461c-0.504-2.275-1.4-4.403-2.614-6.308
					c-0.148-0.232-0.119-0.533,0.075-0.728l3.558-3.558c0.227-0.227,0.227-0.595,0-0.822l-4.589-4.589
					c-0.227-0.227-0.595-0.227-0.822,0l-3.558,3.558c-0.194,0.194-0.496,0.223-0.728,0.075c-1.905-1.214-4.033-2.11-6.308-2.614
					c-0.268-0.059-0.461-0.293-0.461-0.568v-5.031c0-0.321-0.26-0.581-0.581-0.581h-6.49c-0.321,0-0.581,0.26-0.581,0.581v5.031
					c0,0.275-0.193,0.508-0.461,0.568c-2.275,0.504-4.403,1.4-6.308,2.614c-0.232,0.148-0.533,0.119-0.728-0.075l-3.558-3.558
					c-0.227-0.227-0.595-0.227-0.822,0L124.03,75.1c-0.227,0.227-0.227,0.595,0,0.822l3.558,3.558
					c0.194,0.194,0.223,0.496,0.075,0.728c-1.214,1.905-2.11,4.033-2.614,6.308c-0.059,0.268-0.293,0.461-0.568,0.461h-5.031
					c-0.321,0-0.581,0.26-0.581,0.581v6.49c0,0.321,0.26,0.581,0.581,0.581h5.031c0.275,0,0.508,0.193,0.568,0.461
					c0.504,2.275,1.4,4.403,2.614,6.308c0.148,0.232,0.119,0.533-0.075,0.728l-3.558,3.558c-0.227,0.227-0.227,0.595,0,0.822
					l4.589,4.589c0.227,0.227,0.595,0.227,0.822,0l3.558-3.558c0.194-0.194,0.496-0.223,0.728-0.075
					c1.905,1.214,4.033,2.11,6.308,2.614c0.268,0.059,0.461,0.293,0.461,0.567v5.031c0,0.321,0.26,0.581,0.581,0.581h6.49
					c0.321,0,0.581-0.26,0.581-0.581v-5.031c0-0.275,0.193-0.508,0.461-0.567c2.275-0.504,4.403-1.4,6.308-2.614
					c0.232-0.148,0.533-0.119,0.728,0.075l3.558,3.558c0.227,0.227,0.595,0.227,0.822,0l4.589-4.589
					c0.227-0.227,0.227-0.595,0-0.822l-3.558-3.558c-0.194-0.194-0.223-0.496-0.075-0.728c1.214-1.905,2.11-4.033,2.614-6.308
					c0.059-0.268,0.293-0.461,0.568-0.461h5.031c0.321,0,0.581-0.26,0.581-0.581v-6.49
					C169.775,87.237,169.515,86.977,169.194,86.977z"/>
			</g>
		</g>
		<g>
			<g>
				<path fill="#F5C84C" d="M134.5,107.909c-0.258-0.149-0.523-0.287-0.773-0.447c-0.232-0.148-0.533-0.119-0.728,0.075
					l-3.558,3.558c-0.227,0.227-0.595,0.227-0.822,0l-4.589-4.589c-0.227-0.227-0.227-0.595,0-0.822l3.558-3.558
					c0.194-0.194,0.223-0.496,0.075-0.728c-0.305-0.479-0.59-0.972-0.854-1.478c-2.318-1.185-4.937-1.867-7.72-1.867
					c-9.389,0-17,7.611-17,17s7.611,17,17,17c9.389,0,17-7.611,17-17C136.09,112.498,135.51,110.083,134.5,107.909z"/>
			</g>
		</g>
		<g>
			<g>
				<g>
					<path d="M154.123,107.164h-3.748c-1.381,0-2.5,1.119-2.5,2.5s1.119,2.5,2.5,2.5h2.067v5.779h-5.406
						c-1.566,0-2.898,1.072-3.239,2.609c-0.638,2.875-1.764,5.594-3.35,8.083c-0.846,1.327-0.662,3.027,0.446,4.136l3.823,3.823
						l-4.087,4.086l-3.823-3.823c-1.108-1.108-2.809-1.292-4.136-0.447c-2.487,1.586-5.207,2.712-8.083,3.35
						c-1.536,0.341-2.608,1.673-2.608,3.24v5.406h-5.778V143c0-1.566-1.072-2.898-2.61-3.24c-2.874-0.637-5.594-1.763-8.081-3.349
						c-1.325-0.846-3.027-0.664-4.137,0.446l-3.823,3.822l-4.086-4.086l3.823-3.823c1.108-1.108,1.292-2.808,0.446-4.136
						c-1.587-2.491-2.714-5.209-3.35-8.084c-0.341-1.535-1.674-2.607-3.24-2.607h-5.405v-5.779h5.405
						c1.566,0,2.898-1.072,3.241-2.61c0.635-2.873,1.762-5.592,3.348-8.081c0.847-1.327,0.663-3.028-0.445-4.137l-3.823-3.823
						l4.086-4.086l3.821,3.821c1.108,1.11,2.809,1.294,4.139,0.449c2.487-1.586,5.207-2.712,8.08-3.35
						c1.538-0.339,2.611-1.672,2.611-3.24v-5.405h5.778v4.778c0,1.381,1.119,2.5,2.5,2.5s2.5-1.119,2.5-2.5V80.02
						c0-1.83-1.488-3.318-3.318-3.318h-9.142c-1.83,0-3.318,1.489-3.318,3.318v5.766c-2.532,0.68-4.953,1.684-7.227,2.995
						l-4.076-4.077c-1.253-1.254-3.443-1.254-4.694-0.001l-6.465,6.465c-1.293,1.293-1.294,3.397,0,4.693l4.078,4.078
						c-1.312,2.275-2.315,4.697-2.994,7.226h-5.767c-1.83,0-3.318,1.489-3.318,3.318v9.142c0,1.83,1.488,3.319,3.318,3.319h5.767
						c0.679,2.53,1.683,4.951,2.994,7.226l-4.08,4.079c-1.291,1.293-1.291,3.397,0.002,4.692l6.463,6.462
						c1.255,1.255,3.444,1.253,4.694,0.001l4.078-4.078c2.274,1.312,4.695,2.315,7.227,2.995v5.766c0,1.83,1.488,3.319,3.318,3.319
						h9.142c1.83,0,3.318-1.489,3.318-3.319v-5.766c2.531-0.68,4.952-1.683,7.226-2.995l4.077,4.077
						c1.254,1.255,3.444,1.252,4.694,0.001l6.467-6.465c1.291-1.293,1.291-3.397-0.002-4.692l-4.078-4.078
						c1.311-2.273,2.314-4.695,2.994-7.226h5.766c1.83,0,3.319-1.489,3.319-3.319v-9.142
						C157.442,108.653,155.953,107.164,154.123,107.164z"/>
				</g>
			</g>
		</g>
		<g>
			<g>
				<g>
					<path d="M169.193,84.477h-3.545c-0.439-1.486-1.032-2.918-1.773-4.28l2.505-2.505c0.584-0.582,0.905-1.356,0.905-2.181
						c0-0.824-0.321-1.598-0.903-2.178l-4.587-4.587c-1.161-1.165-3.188-1.169-4.359-0.002l-2.507,2.507
						c-1.363-0.741-2.795-1.335-4.28-1.774v-3.544c0-1.699-1.382-3.082-3.081-3.082h-6.49c-1.699,0-3.081,1.382-3.081,3.082v3.544
						c-1.486,0.439-2.918,1.033-4.279,1.774l-2.506-2.505c-1.161-1.165-3.189-1.169-4.359-0.002l-4.591,4.591
						c-1.198,1.2-1.198,3.153,0.002,4.355l2.507,2.506c-0.741,1.363-1.334,2.794-1.773,4.281h-3.545
						c-1.699,0-3.081,1.382-3.081,3.081v6.49c0,1.699,1.382,3.081,3.081,3.081h3.545c0.439,1.486,1.032,2.918,1.773,4.28
						l-2.509,2.509c-1.199,1.201-1.198,3.155,0.002,4.355l4.591,4.591c1.166,1.164,3.198,1.159,4.355-0.001l2.508-2.507
						c1.363,0.741,2.795,1.334,4.279,1.774v3.544c0,1.699,1.382,3.081,3.081,3.081h6.49c1.699,0,3.081-1.382,3.081-3.081v-3.544
						c1.485-0.439,2.917-1.033,4.28-1.774l2.509,2.509c1.167,1.164,3.197,1.159,4.355-0.002l4.585-4.585
						c0.585-0.582,0.906-1.356,0.907-2.181c0-0.825-0.321-1.6-0.903-2.18l-2.507-2.507c0.741-1.362,1.334-2.794,1.773-4.28h3.545
						c1.699,0,3.081-1.382,3.081-3.081v-6.49C172.274,85.859,170.893,84.477,169.193,84.477z M167.274,92.129h-3.112
						c-1.455,0-2.692,0.995-3.008,2.421c-0.435,1.958-1.201,3.81-2.281,5.505c-0.784,1.231-0.613,2.81,0.416,3.838l2.201,2.201
						l-1.876,1.876l-2.201-2.201c-1.029-1.032-2.61-1.201-3.839-0.416c-1.695,1.08-3.547,1.848-5.505,2.281
						c-1.426,0.316-2.421,1.553-2.421,3.008v3.112h-2.652v-3.112c0-1.454-0.994-2.691-2.42-3.008
						c-1.957-0.433-3.81-1.201-5.506-2.282c-1.234-0.786-2.813-0.612-3.838,0.416l-2.202,2.202l-1.875-1.875l2.201-2.202
						c1.029-1.029,1.2-2.607,0.416-3.839c-1.08-1.693-1.848-3.545-2.282-5.505c-0.315-1.425-1.553-2.42-3.008-2.42h-3.112v-2.652
						h3.112c1.454,0,2.691-0.995,3.008-2.421c0.435-1.959,1.202-3.811,2.282-5.505c0.784-1.231,0.613-2.81-0.416-3.839l-2.201-2.201
						l1.875-1.875l2.2,2.199c1.026,1.029,2.605,1.203,3.841,0.418c1.695-1.081,3.547-1.848,5.507-2.282
						c1.424-0.317,2.418-1.554,2.418-3.008v-3.112h2.652v3.112c0,1.455,0.995,2.692,2.422,3.009
						c1.957,0.433,3.809,1.201,5.504,2.281c1.231,0.784,2.808,0.613,3.839-0.416l2.201-2.201l1.875,1.875l-2.2,2.201
						c-1.029,1.029-1.2,2.607-0.416,3.838c1.08,1.695,1.847,3.547,2.281,5.507c0.316,1.424,1.554,2.419,3.008,2.419h3.112V92.129z"
						/>
				</g>
			</g>
		</g>
		<g>
			<g>
				<path d="M152.691,85.321c-0.977-0.977-2.559-0.977-3.535,0l-5.729,5.728l-2.697-2.697c-0.977-0.977-2.559-0.977-3.535,0
					c-0.977,0.976-0.977,2.559,0,3.535l4.465,4.465c0.488,0.488,1.128,0.732,1.768,0.732s1.279-0.244,1.768-0.732l7.496-7.496
					C153.668,87.88,153.668,86.297,152.691,85.321z"/>
			</g>
		</g>
		<g>
			<g>
				<path d="M136.967,107.299c-0.551-1.266-2.023-1.846-3.29-1.294c-1.266,0.551-1.846,2.024-1.294,3.29
					c0.801,1.839,1.207,3.777,1.207,5.758c0,7.995-6.505,14.5-14.5,14.5s-14.5-6.505-14.5-14.5s6.505-14.5,14.5-14.5
					c2.202,0,4.33,0.493,6.325,1.465c1.243,0.606,2.738,0.088,3.342-1.153c0.605-1.241,0.089-2.737-1.152-3.342
					c-2.683-1.307-5.548-1.97-8.515-1.97c-10.752,0-19.5,8.748-19.5,19.5s8.748,19.5,19.5,19.5s19.5-8.748,19.5-19.5
					C138.59,112.381,138.044,109.772,136.967,107.299z"/>
			</g>
		</g>
	</g>
</g>
<g id="Layer_35">
</g>
<g id="Layer_36">
</g>
<g id="Layer_37">
</g>
<g id="Layer_38">
</g>
<g id="Layer_39">
</g>
<g id="Layer_40">
</g>
<g id="Layer_41">
</g>
<g id="Layer_42">
</g>
<g id="Layer_43">
</g>
<g id="Layer_44">
</g>
<g id="Layer_45">
</g>
<g id="Layer_46">
</g>
<g id="Layer_47">
</g>
<g id="Layer_48">
</g>
<g id="Layer_49">
</g>
<g id="Layer_50">
</g>
<g id="Layer_51">
</g>
<g id="Layer_52">
</g>
<g id="Layer_53">
</g>
<g id="Layer_54">
</g>
<g id="Layer_55">
</g>
<g id="Layer_56">
</g>
<g id="Layer_57">
</g>
<g id="Layer_58">
</g>
<g id="Layer_59">
</g>
<g id="Layer_60">
</g>
<g id="Layer_61">
</g>
<g id="Layer_62">
</g>
<g id="Layer_63">
</g>
<g id="Layer_64">
</g>
<g id="Layer_65">
</g>
<g id="Layer_66">
</g>
<g id="Layer_67">
</g>
<g id="Layer_68">
</g>
<g id="Layer_69">
</g>
<g id="Layer_70">
</g>
<g id="Layer_71">
</g>
<g id="Layer_72">
</g>
<g id="Layer_73">
</g>
<g id="Layer_74">
</g>
<g id="Layer_75">
</g>
<g id="Layer_76">
</g>
<g id="Layer_77">
</g>
<g id="Layer_78">
</g>
<g id="Layer_79">
</g>
<g id="Layer_80">
</g>
<g id="Layer_81">
</g>
<g id="Layer_82">
</g>
<g id="Layer_83">
</g>
<g id="Layer_84">
</g>
<g id="Layer_85">
</g>
<g id="Layer_86">
</g>
<g id="Layer_87">
</g>
<g id="Layer_88">
</g>
<g id="Layer_89">
</g>
<g id="Layer_90">
</g>
</svg>
