<?xml version="1.0" encoding="utf-8"?>
<!-- Generator: Adobe Illustrator 24.0.0, SVG Export Plug-In . SVG Version: 6.00 Build 0)  -->
<svg version="1.1" xmlns="http://www.w3.org/2000/svg" xmlns:xlink="http://www.w3.org/1999/xlink" x="0px" y="0px"
	 viewBox="0 0 256 256" enable-background="new 0 0 256 256" xml:space="preserve">
<g id="Layer_1">
	<g>
		<g>
			<g>
				<path fill="#5290DB" d="M240.216,240.5H15.784c-2.154,0-3.899,1.746-3.899,3.899v5.201c0,2.154,1.746,3.899,3.899,3.899h224.432
					c2.154,0,3.899-1.746,3.899-3.899v-5.201C244.115,242.246,242.37,240.5,240.216,240.5z"/>
			</g>
		</g>
		<g>
			<g>
				<path fill="#70D6F9" d="M169.609,6.162c-3.162-0.538-5.636-2.975-6.29-6.057c-0.001-0.14-0.282-0.138-0.281,0.002
					c-0.608,3.092-3.046,5.566-6.199,6.151c-0.14,0.001-0.139,0.212,0.002,0.281c3.162,0.538,5.636,2.975,6.29,6.057
					c0.001,0.14,0.282,0.138,0.281-0.002c0.608-3.092,3.046-5.566,6.199-6.151C169.751,6.371,169.749,6.161,169.609,6.162z"/>
			</g>
		</g>
		<g>
			<g>
				<path fill="#FC657E" d="M226.8,171.432h-2.3v-2.3c0-1.7-1.4-3.2-3.2-3.2s-3.2,1.4-3.2,3.2v2.3h-2.3c-1.7,0-3.2,1.4-3.2,3.2
					c0,1.8,1.4,3.2,3.2,3.2h2.3v2.3c0,1.7,1.4,3.2,3.2,3.2s3.2-1.4,3.2-3.2v-2.3h2.3c1.7,0,3.2-1.4,3.2-3.2
					C230,172.832,228.6,171.432,226.8,171.432z"/>
			</g>
		</g>
		<g>
			<g>
				<path fill="#F5C84C" d="M60.8,73.182c-4.5-0.8-8-4.3-8.9-8.7c0-0.2-0.4-0.2-0.4,0c-0.9,4.4-4.4,7.9-8.9,8.7
					c-0.2,0-0.2,0.3,0,0.4c4.5,0.8,8,4.3,8.9,8.7c0,0.2,0.4,0.2,0.4,0c0.9-4.4,4.4-7.9,8.9-8.7C61,73.482,61,73.182,60.8,73.182z"/>
			</g>
		</g>
		<g>
			<g>
				<path fill="#F5C84C" d="M214.8,202.332c-1.878,0-3.4,1.522-3.4,3.4s1.522,3.4,3.4,3.4c1.878,0,3.4-1.522,3.4-3.4
					S216.678,202.332,214.8,202.332z"/>
			</g>
		</g>
		<g>
			<g>
				<path fill="#87D147" d="M66.8,43.332c-1.878,0-3.4,1.522-3.4,3.4s1.522,3.4,3.4,3.4c1.878,0,3.4-1.522,3.4-3.4
					S68.678,43.332,66.8,43.332z"/>
			</g>
		</g>
		<g>
			<g>
				<path fill="#70D6F9" d="M69.899,231.269c0.015-1.61,1.37-2.892,2.981-2.892h6.319c-2.333,0-4.224-1.891-4.224-4.224v-48.329
					l-8.555,2.153c-6.051,1.523-10.408,6.803-10.755,13.033l-1.993,34.359c2.849,1.392,4.828,4.313,4.828,7.682v7.448h20.54
					C73.962,240.5,69.851,236.359,69.899,231.269z"/>
			</g>
		</g>
		<g>
			<g>
				<path fill="#70D6F9" d="M176.96,240.5h26.245l-2.87-49.489c-0.347-6.229-4.704-11.51-10.755-13.033l-8.555-2.153v48.329
					c0,2.333-1.891,4.224-4.224,4.224h6.319c1.61,0,2.965,1.282,2.981,2.892C186.149,236.359,182.038,240.5,176.96,240.5z"/>
			</g>
		</g>
		<g>
			<g>
				<path fill="#F9D0B4" d="M164.123,84.175c-0.02-1.025-0.841-1.869-1.865-1.899c-15.009-0.44-22.917-6.388-25.956-9.367
					c-0.83-0.813-2.169-0.727-2.892,0.182c-13.196,16.594-32.662,14.253-39.207,12.883c-1.189-0.249-2.331,0.648-2.332,1.863
					c0,0.008,0,0.016,0,0.025v29.062c0,13.844,7.896,25.927,19.403,31.987h33.45c11.507-6.06,19.403-18.143,19.403-31.987V84.74
					C164.128,84.551,164.126,84.363,164.123,84.175z"/>
			</g>
		</g>
		<g>
			<g>
				<path fill="#754E34" d="M161.436,49.211c0-0.891,0.046-1.77,0.125-2.641c-1.692-0.453-3.46-0.717-5.29-0.717
					c-3.85,0-7.449,1.088-10.542,2.943c-3.613-6.03-10.195-10.101-17.698-10.101h-10.597c-20.51,0-37.292,16.781-37.292,37.292
					v16.709c2.581-2.065,5.849-3.307,9.411-3.307c0.789,0,1.562,0.067,2.318,0.184v-1.736c0.001-1.215,1.142-2.112,2.332-1.863
					c6.545,1.37,26.011,3.711,39.207-12.883c0.723-0.909,2.062-0.995,2.891-0.182c3.039,2.979,10.947,8.927,25.956,9.367
					c1.024,0.03,1.845,0.875,1.865,1.899c0.004,0.188,0.006,0.376,0.006,0.565v4.832c0.756-0.117,1.529-0.184,2.318-0.184
					c4.066,0,7.749,1.617,10.462,4.233V74.761C167.713,69.942,161.436,60.312,161.436,49.211z"/>
			</g>
		</g>
		<g>
			<g>
				<path fill="#F9D0B4" d="M166.447,89.389c-0.789,0-1.562,0.067-2.318,0.184v27.351c0,0.815-0.037,1.621-0.091,2.423
					c0.786,0.127,1.587,0.21,2.409,0.21c8.331,0,15.084-6.753,15.084-15.084S174.777,89.389,166.447,89.389z"/>
			</g>
		</g>
		<g>
			<g>
				<path fill="#F9D0B4" d="M91.872,116.923V89.572c-0.756-0.117-1.529-0.184-2.318-0.184c-8.331,0-15.084,6.753-15.084,15.084
					s6.753,15.084,15.084,15.084c0.822,0,1.623-0.084,2.409-0.21v-0.001C91.909,118.544,91.872,117.738,91.872,116.923z"/>
			</g>
		</g>
		<g>
			<g>
				<path fill="#F9D0B4" d="M176.96,240.5h26.245l-1.11-19.141h-21.07v2.794c0,2.333-1.891,4.224-4.224,4.224h6.319
					c1.61,0,2.965,1.282,2.981,2.892C186.149,236.359,182.038,240.5,176.96,240.5z"/>
			</g>
		</g>
		<g>
			<g>
				<path fill="#F9D0B4" d="M69.899,231.269c0.015-1.61,1.37-2.892,2.981-2.892h6.319c-2.333,0-4.224-1.891-4.224-4.224v-2.794
					H53.905l-0.233,4.011c2.849,1.392,4.828,4.313,4.828,7.682v7.448h20.54C73.962,240.5,69.851,236.359,69.899,231.269z"/>
			</g>
		</g>
		<g>
			<g>
				<path d="M140.41,123.578c-1.059-0.887-2.635-0.748-3.522,0.31c-1.732,2.067-4.676,3.301-7.873,3.301s-6.14-1.234-7.873-3.301
					c-0.887-1.058-2.463-1.197-3.522-0.31c-1.058,0.887-1.197,2.464-0.31,3.522c2.671,3.187,7.047,5.089,11.705,5.089
					s9.033-1.902,11.705-5.089C141.607,126.042,141.468,124.465,140.41,123.578z"/>
			</g>
		</g>
		<g>
			<g>
				<circle cx="144.006" cy="106.384" r="4.61"/>
			</g>
		</g>
		<g>
			<g>
				<circle cx="113.044" cy="106.384" r="4.61"/>
			</g>
		</g>
		<g>
			<g>
				<path d="M202.832,190.872c-0.41-7.362-5.49-13.518-12.641-15.318l-7.6-1.913c-1.339-0.337-2.697,0.476-3.035,1.814
					c-0.337,1.339,0.475,2.698,1.814,3.035l7.6,1.913c5.017,1.263,8.581,5.583,8.87,10.753l2.817,48.577
					c0.077,1.33,1.179,2.355,2.493,2.355c0.049,0,0.098-0.001,0.147-0.004c1.378-0.08,2.431-1.262,2.351-2.64L202.832,190.872z"/>
			</g>
		</g>
		<g>
			<g>
				<path d="M76.473,175.447c-0.337-1.339-1.694-2.152-3.035-1.814l-7.629,1.92c-7.151,1.8-12.231,7.957-12.64,15.313l-1.942,33.489
					c-0.08,1.378,0.973,2.561,2.351,2.64c0.049,0.003,0.098,0.004,0.147,0.004c1.314,0,2.417-1.026,2.493-2.355l1.943-33.495
					c0.288-5.165,3.852-9.484,8.869-10.748l7.629-1.92C75.998,178.145,76.81,176.786,76.473,175.447z"/>
			</g>
		</g>
		<g>
			<g>
				<path d="M166.622,84.125c-0.047-2.369-1.932-4.279-4.292-4.349c-14.376-0.421-21.768-6.192-24.279-8.654
					c-0.9-0.881-2.127-1.342-3.388-1.265c-1.255,0.078-2.425,0.689-3.21,1.676c-12.11,15.229-29.725,13.46-36.738,11.992
					C93.4,83.252,92.045,83.58,91,84.428c-1.034,0.839-1.628,2.081-1.629,3.433v29.063c0,14.132,7.758,27.139,20.248,33.946
					c1.211,0.66,2.73,0.213,3.392-0.999c0.661-1.212,0.213-2.73-0.999-3.392c-10.881-5.93-17.64-17.255-17.64-29.556V88.557
					c6.872,1.313,26.88,3.34,40.619-13.443c3.809,3.559,12.02,9.083,26.638,9.642v32.167c0,12.3-6.759,23.625-17.64,29.556
					c-1.212,0.661-1.66,2.179-0.999,3.392c0.454,0.833,1.312,1.304,2.198,1.304c0.404,0,0.814-0.098,1.194-0.305
					c12.489-6.807,20.248-19.814,20.248-33.946V84.74C166.628,84.534,166.626,84.328,166.622,84.125z"/>
			</g>
		</g>
		<g>
			<g>
				<g>
					<path d="M161.488,43.95c-4.943-1.15-10.288-0.6-14.943,1.583c-4.352-5.812-11.248-9.337-18.514-9.337h-10.598
						c-21.941,0-39.792,17.851-39.792,39.792v15.936c0,1.381,1.119,2.5,2.5,2.5s2.5-1.119,2.5-2.5V75.986
						c0-19.184,15.607-34.792,34.792-34.792h10.598c6.31,0,12.27,3.405,15.553,8.886c0.341,0.569,0.894,0.979,1.537,1.14
						c0.642,0.16,1.325,0.06,1.893-0.281c4.025-2.414,8.891-3.155,13.34-2.12c1.349,0.314,2.689-0.524,3.002-1.868
						C163.669,45.607,162.833,44.263,161.488,43.95z"/>
				</g>
			</g>
			<g>
				<g>
					<path d="M176.909,73.083c-1.381,0-2.5,1.119-2.5,2.5v17.329c0,1.381,1.119,2.5,2.5,2.5s2.5-1.119,2.5-2.5V75.583
						C179.409,74.202,178.29,73.083,176.909,73.083z"/>
				</g>
			</g>
		</g>
		<g>
			<g>
				<path d="M166.447,86.889c-0.489,0-0.972,0.021-1.45,0.062c-1.376,0.117-2.396,1.327-2.28,2.703
					c0.117,1.376,1.33,2.393,2.703,2.28c0.338-0.029,0.681-0.044,1.027-0.044c6.939,0,12.584,5.645,12.584,12.584
					c0,6.938-5.645,12.583-12.584,12.583c-0.368,0-0.741-0.02-1.142-0.062c-1.372-0.141-2.602,0.855-2.745,2.229
					c-0.143,1.373,0.855,2.602,2.229,2.745c0.565,0.059,1.124,0.088,1.658,0.088c9.696,0,17.584-7.888,17.584-17.583
					S176.143,86.889,166.447,86.889z"/>
			</g>
		</g>
		<g>
			<g>
				<path d="M90.515,117.012c-0.317,0.028-0.637,0.044-0.961,0.044c-6.939,0-12.584-5.645-12.584-12.583
					c0-6.939,5.645-12.584,12.584-12.584c0.331,0,0.659,0.014,0.982,0.041c1.378,0.119,2.583-0.913,2.694-2.289
					c0.112-1.376-0.913-2.583-2.289-2.694c-0.458-0.037-0.92-0.057-1.388-0.057c-9.696,0-17.584,7.888-17.584,17.584
					s7.888,17.583,17.584,17.583c0.476,0,0.945-0.023,1.41-0.065c1.375-0.124,2.39-1.339,2.266-2.714
					C93.105,117.902,91.888,116.885,90.515,117.012z"/>
			</g>
		</g>
		<g>
			<g>
				<path d="M200.929,218.859h-19.558c-1.381,0-2.5,1.119-2.5,2.5s1.119,2.5,2.5,2.5h19.558c1.381,0,2.5-1.119,2.5-2.5
					S202.31,218.859,200.929,218.859z"/>
			</g>
		</g>
		<g>
			<g>
				<path d="M74.011,218.859H54.701c-1.381,0-2.5,1.119-2.5,2.5s1.119,2.5,2.5,2.5h19.311c1.381,0,2.5-1.119,2.5-2.5
					S75.392,218.859,74.011,218.859z"/>
			</g>
		</g>
		<g>
			<g>
				<path fill="#EDF4FC" d="M176.801,148.91H79.199c-2.333,0-4.224,1.891-4.224,4.224v71.019c0,2.333,1.891,4.224,4.224,4.224
					h97.603c2.333,0,4.224-1.891,4.224-4.224v-71.019C181.026,150.802,179.134,148.91,176.801,148.91z"/>
			</g>
		</g>
		<g>
			<g>
				<path fill="#DAE6F1" d="M183.12,228.377H72.88c-1.646,0-2.981,1.335-2.981,2.981c0,5.049,4.093,9.141,9.141,9.141h97.92
					c5.049,0,9.141-4.093,9.141-9.141C186.101,229.712,184.767,228.377,183.12,228.377z"/>
			</g>
		</g>
		<g>
			<g>
				<path d="M135.106,186.144h-14.212c-1.381,0-2.5,1.119-2.5,2.5s1.119,2.5,2.5,2.5h14.212c1.381,0,2.5-1.119,2.5-2.5
					S136.487,186.144,135.106,186.144z"/>
			</g>
		</g>
		<g>
			<g>
				<g>
					<path d="M176.801,146.41H79.199c-3.708,0-6.724,3.017-6.724,6.724v71.019c0,3.708,3.017,6.724,6.724,6.724h97.603
						c3.708,0,6.724-3.017,6.724-6.724v-71.019C183.525,149.427,180.509,146.41,176.801,146.41z M178.525,224.153
						c0,0.951-0.773,1.724-1.724,1.724H79.199c-0.951,0-1.724-0.773-1.724-1.724v-71.019c0-0.951,0.773-1.724,1.724-1.724h97.603
						c0.951,0,1.724,0.773,1.724,1.724V224.153z"/>
				</g>
			</g>
		</g>
		<g>
			<g>
				<g>
					<path d="M183.12,225.877H72.88c-3.022,0-5.481,2.459-5.481,5.481c0,6.419,5.222,11.642,11.641,11.642h97.92
						c6.419,0,11.641-5.222,11.641-11.642C188.601,228.336,186.142,225.877,183.12,225.877z M176.96,238H79.04
						c-3.662,0-6.641-2.979-6.641-6.642c0-0.265,0.216-0.481,0.481-0.481h110.24c0.265,0,0.481,0.216,0.481,0.481
						C183.601,235.021,180.622,238,176.96,238z"/>
				</g>
			</g>
		</g>
		<g>
			<g>
				<circle fill="#B2E26D" cx="190.27" cy="49.211" r="28.834"/>
			</g>
		</g>
		<g>
			<g>
				<path fill="#EDF4FC" d="M203.886,41.044c-2.073-2.072-5.432-2.072-7.505,0l-8.515,8.515l-4.268-4.268
					c-2.073-2.072-5.432-2.072-7.505,0c-2.072,2.072-2.072,5.433,0,7.505l8.021,8.021c1.036,1.036,2.394,1.554,3.753,1.554
					c1.358,0,2.716-0.518,3.753-1.554l12.267-12.267C205.958,46.476,205.958,43.116,203.886,41.044z"/>
			</g>
		</g>
		<g>
			<g>
				<g>
					<g>
						<path d="M205.653,39.275c-3.043-3.042-7.996-3.043-11.041,0l-6.747,6.747l-2.5-2.5c-3.044-3.042-7.997-3.043-11.041,0
							s-3.044,7.997,0,11.04l8.021,8.021c1.475,1.474,3.436,2.286,5.52,2.286c2.085,0,4.045-0.812,5.521-2.287l12.268-12.267
							C208.697,47.272,208.697,42.32,205.653,39.275z M202.118,46.781l-12.267,12.267c-1.06,1.061-2.909,1.061-3.97,0l-8.021-8.021
							c-1.094-1.095-1.094-2.875,0-3.969c0.547-0.547,1.266-0.821,1.985-0.821c0.719,0,1.438,0.273,1.985,0.82l4.268,4.268
							c0.976,0.977,2.56,0.977,3.535,0l8.514-8.514c1.096-1.095,2.876-1.094,3.97-0.001
							C203.212,43.906,203.212,45.687,202.118,46.781z"/>
					</g>
				</g>
			</g>
		</g>
		<g>
			<g>
				<g>
					<path d="M190.27,17.876c-17.278,0-31.334,14.056-31.334,31.334s14.056,31.334,31.334,31.334s31.334-14.056,31.334-31.334
						S207.547,17.876,190.27,17.876z M190.27,75.544c-14.521,0-26.334-11.813-26.334-26.334s11.813-26.334,26.334-26.334
						c14.521,0,26.334,11.813,26.334,26.334S204.791,75.544,190.27,75.544z"/>
				</g>
			</g>
		</g>
		<g>
			<g>
				<g>
					<path d="M240.216,238H15.784c-3.529,0-6.399,2.871-6.399,6.399v5.201c0,3.529,2.871,6.399,6.399,6.399h224.432
						c3.529,0,6.399-2.871,6.399-6.399v-5.201C246.615,240.871,243.745,238,240.216,238z M241.615,249.601
						c0,0.771-0.628,1.399-1.399,1.399H15.784c-0.771,0-1.399-0.628-1.399-1.399v-5.201c0-0.771,0.628-1.399,1.399-1.399h224.432
						c0.771,0,1.399,0.628,1.399,1.399V249.601z"/>
				</g>
			</g>
		</g>
		<g>
			<g>
				<g>
					<g>
						<path d="M49.948,222H35.052C28.958,222,24,226.958,24,233.052v7.448c0,1.381,1.119,2.5,2.5,2.5h32c1.381,0,2.5-1.119,2.5-2.5
							v-7.448C61,226.958,56.042,222,49.948,222z M56,238H29v-4.948c0-3.337,2.715-6.052,6.052-6.052h14.896
							c3.337,0,6.052,2.715,6.052,6.052V238z"/>
					</g>
				</g>
			</g>
		</g>
	</g>
</g>
<g id="Layer_2">
</g>
<g id="Layer_3">
</g>
<g id="Layer_4">
</g>
<g id="Layer_5">
</g>
<g id="Layer_6">
</g>
<g id="Layer_7">
</g>
<g id="Layer_8">
</g>
<g id="Layer_9">
</g>
<g id="Layer_10">
</g>
<g id="Layer_11">
</g>
<g id="Layer_12">
</g>
<g id="Layer_13">
</g>
<g id="Layer_14">
</g>
<g id="Layer_15">
</g>
<g id="Layer_16">
</g>
<g id="Layer_17">
</g>
<g id="Layer_18">
</g>
<g id="Layer_19">
</g>
<g id="Layer_20">
</g>
<g id="Layer_21">
</g>
<g id="Layer_22">
</g>
<g id="Layer_23">
</g>
<g id="Layer_24">
</g>
<g id="Layer_25">
</g>
<g id="Layer_26">
</g>
<g id="Layer_27">
</g>
<g id="Layer_28">
</g>
<g id="Layer_29">
</g>
<g id="Layer_30">
</g>
<g id="Layer_31">
</g>
<g id="Layer_32">
</g>
<g id="Layer_33">
</g>
<g id="Layer_34">
</g>
<g id="Layer_35">
</g>
<g id="Layer_36">
</g>
<g id="Layer_37">
</g>
<g id="Layer_38">
</g>
<g id="Layer_39">
</g>
<g id="Layer_40">
</g>
<g id="Layer_41">
</g>
<g id="Layer_42">
</g>
<g id="Layer_43">
</g>
<g id="Layer_44">
</g>
<g id="Layer_45">
</g>
<g id="Layer_46">
</g>
<g id="Layer_47">
</g>
<g id="Layer_48">
</g>
<g id="Layer_49">
</g>
<g id="Layer_50">
</g>
<g id="Layer_51">
</g>
<g id="Layer_52">
</g>
<g id="Layer_53">
</g>
<g id="Layer_54">
</g>
<g id="Layer_55">
</g>
<g id="Layer_56">
</g>
<g id="Layer_57">
</g>
<g id="Layer_58">
</g>
<g id="Layer_59">
</g>
<g id="Layer_60">
</g>
<g id="Layer_61">
</g>
<g id="Layer_62">
</g>
<g id="Layer_63">
</g>
<g id="Layer_64">
</g>
<g id="Layer_65">
</g>
<g id="Layer_66">
</g>
<g id="Layer_67">
</g>
<g id="Layer_68">
</g>
<g id="Layer_69">
</g>
<g id="Layer_70">
</g>
<g id="Layer_71">
</g>
<g id="Layer_72">
</g>
<g id="Layer_73">
</g>
<g id="Layer_74">
</g>
<g id="Layer_75">
</g>
<g id="Layer_76">
</g>
<g id="Layer_77">
</g>
<g id="Layer_78">
</g>
<g id="Layer_79">
</g>
<g id="Layer_80">
</g>
<g id="Layer_81">
</g>
<g id="Layer_82">
</g>
<g id="Layer_83">
</g>
<g id="Layer_84">
</g>
<g id="Layer_85">
</g>
<g id="Layer_86">
</g>
<g id="Layer_87">
</g>
<g id="Layer_88">
</g>
<g id="Layer_89">
</g>
<g id="Layer_90">
</g>
</svg>
