<?xml version="1.0" encoding="utf-8"?>
<!-- Generator: Adobe Illustrator 16.0.0, SVG Export Plug-In . SVG Version: 6.00 Build 0)  -->
<!DOCTYPE svg PUBLIC "-//W3C//DTD SVG 1.0//EN" "http://www.w3.org/TR/2001/REC-SVG-20010904/DTD/svg10.dtd">
<svg version="1.0" id="Layer_1" xmlns="http://www.w3.org/2000/svg" xmlns:xlink="http://www.w3.org/1999/xlink" x="0px" y="0px"
	 width="100px" height="100px" viewBox="0 0 100 100" enable-background="new 0 0 100 100" xml:space="preserve">
<path d="M23.333,10v20H10v50c0,5.521,4.479,10,10,10h60c5.521,0,10-4.479,10-10V10H23.333z M23.333,80
	c0,1.84-1.49,3.334-3.333,3.334S16.667,81.84,16.667,80V36.667h6.666V80z M83.333,83.334H30V16.667h53.333V83.334z"/>
<rect x="36.667" y="23.334" width="33.333" height="6.666"/>
<rect x="36.667" y="36.667" width="40" height="6.667"/>
<rect x="36.667" y="50" width="26.666" height="6.667"/>
<rect x="36.667" y="63.334" width="40" height="6.666"/>
</svg>
