<svg xmlns="http://www.w3.org/2000/svg" viewBox="0 0 64 64"><g id="_13-Book" data-name="13-Book"><polygon points="43 39 47 43 51 47 57 53 55 55 41 40.99 41 37 43 39" style="fill:#fc708d"/><polygon points="41 40.99 55 55 53 57 51 55 47 51 43 47 37 41 37 40.99 41 40.99" style="fill:#ea5073"/><polygon points="55 55 57 53 59 55 55 59 53 57 55 55" style="fill:#a37862"/><rect x="56.172" y="56.172" width="5.657" height="5.657" transform="translate(-24.439 59) rotate(-45)" style="fill:#e3b79d"/><polygon points="41 37 41 40.99 37 40.99 35 35 41 37" style="fill:#e3b79d"/><path d="M43,33v6l-2-2-6-2,2,5.99V41l6,6v2a2.006,2.006,0,0,1-2,2H19a2.006,2.006,0,0,1-2-2V33a2.006,2.006,0,0,1,2-2H41A2.006,2.006,0,0,1,43,33Z" style="fill:#99e8fe"/><path d="M41,31H39a2.006,2.006,0,0,1,2,2v4l2,2V33A2.006,2.006,0,0,0,41,31Z" style="fill:#2ed0fa"/><path d="M37,40.99l-1.75-5.24L33,35l2,5.99V41l6,6v2a2.006,2.006,0,0,1-2,2h2a2.006,2.006,0,0,0,2-2V47l-6-6Z" style="fill:#2ed0fa"/><path d="M7,47a2.006,2.006,0,0,1,2,2,2.015,2.015,0,0,1-2,2H3a2.006,2.006,0,0,1-2-2,1.955,1.955,0,0,1,.59-1.41A1.955,1.955,0,0,1,3,47H7Z" style="fill:#aeacd5"/><path d="M7,37a2.006,2.006,0,0,1,2,2,2.015,2.015,0,0,1-2,2H3a2.006,2.006,0,0,1-2-2,1.955,1.955,0,0,1,.59-1.41A1.955,1.955,0,0,1,3,37H7Z" style="fill:#aeacd5"/><path d="M7,27a2.006,2.006,0,0,1,2,2,2.015,2.015,0,0,1-2,2H3a2.006,2.006,0,0,1-2-2,1.955,1.955,0,0,1,.59-1.41A1.955,1.955,0,0,1,3,27H7Z" style="fill:#aeacd5"/><path d="M7,17a2.006,2.006,0,0,1,2,2,2.015,2.015,0,0,1-2,2H3a2.006,2.006,0,0,1-2-2,1.955,1.955,0,0,1,.59-1.41A1.955,1.955,0,0,1,3,17H7Z" style="fill:#aeacd5"/><path d="M7,7A2.006,2.006,0,0,1,9,9a2.015,2.015,0,0,1-2,2H3A2.006,2.006,0,0,1,1,9a1.955,1.955,0,0,1,.59-1.41A1.955,1.955,0,0,1,3,7H7Z" style="fill:#aeacd5"/><path d="M8.41,8.41A1.955,1.955,0,0,1,7,9H3A2,2,0,0,1,1.279,8,1.963,1.963,0,0,0,1,9a2.006,2.006,0,0,0,2,2H7A1.984,1.984,0,0,0,8.721,8,1.938,1.938,0,0,1,8.41,8.41Z" style="fill:#9891c3"/><path d="M8.41,18.41A1.955,1.955,0,0,1,7,19H3a2,2,0,0,1-1.721-1A1.963,1.963,0,0,0,1,19a2.006,2.006,0,0,0,2,2H7a1.984,1.984,0,0,0,1.721-3A1.938,1.938,0,0,1,8.41,18.41Z" style="fill:#9891c3"/><path d="M8.41,28.41A1.955,1.955,0,0,1,7,29H3a2,2,0,0,1-1.721-1A1.963,1.963,0,0,0,1,29a2.006,2.006,0,0,0,2,2H7a1.984,1.984,0,0,0,1.721-3A1.938,1.938,0,0,1,8.41,28.41Z" style="fill:#9891c3"/><path d="M8.41,38.41A1.955,1.955,0,0,1,7,39H3a2,2,0,0,1-1.721-1A1.963,1.963,0,0,0,1,39a2.006,2.006,0,0,0,2,2H7a1.984,1.984,0,0,0,1.721-3A1.938,1.938,0,0,1,8.41,38.41Z" style="fill:#9891c3"/><path d="M8.41,48.41A1.955,1.955,0,0,1,7,49H3a2,2,0,0,1-1.721-1A1.963,1.963,0,0,0,1,49a2.006,2.006,0,0,0,2,2H7a1.984,1.984,0,0,0,1.721-3A1.938,1.938,0,0,1,8.41,48.41Z" style="fill:#9891c3"/><path d="M7,11A2.015,2.015,0,0,0,9,9,2.006,2.006,0,0,0,7,7H5V3A2.006,2.006,0,0,1,7,1h6V57H7a2.006,2.006,0,0,1-2-2V51H7a2.015,2.015,0,0,0,2-2,2.006,2.006,0,0,0-2-2H5V41H7a2.015,2.015,0,0,0,2-2,2.006,2.006,0,0,0-2-2H5V31H7a2.015,2.015,0,0,0,2-2,2.006,2.006,0,0,0-2-2H5V21H7a2.015,2.015,0,0,0,2-2,2.006,2.006,0,0,0-2-2H5V11Z" style="fill:#fc708d"/><path d="M7,57H45a2.006,2.006,0,0,0,2-2V51l4,4v6H7a2.006,2.006,0,0,1-2-2V55A2.006,2.006,0,0,0,7,57Z" style="fill:#aeacd5"/><polygon points="51 3 51 47 47 43 47 3 51 3" style="fill:#aeacd5"/><path d="M43,47l4,4v4a2.006,2.006,0,0,1-2,2H13V1H45a2.006,2.006,0,0,1,2,2V43l-4-4V33a2.006,2.006,0,0,0-2-2H19a2.006,2.006,0,0,0-2,2V49a2.006,2.006,0,0,0,2,2H41a2.006,2.006,0,0,0,2-2Z" style="fill:#fbdbe0"/><path d="M45,1H43a2.006,2.006,0,0,1,2,2V41l2,2V3A2.006,2.006,0,0,0,45,1Z" style="fill:#fcbcc5"/><path d="M19,31H17a2.006,2.006,0,0,0-2,2V49a2.006,2.006,0,0,0,2,2h2a2.006,2.006,0,0,1-2-2V33A2.006,2.006,0,0,1,19,31Z" style="fill:#fcbcc5"/><path d="M43,49l2,2v4a2.006,2.006,0,0,1-2,2h2a2.006,2.006,0,0,0,2-2V51l-4-4Z" style="fill:#fcbcc5"/><path d="M40.137,17.75a2.34,2.34,0,0,1,0,3.63L36,25l-4.139-3.62a.362.362,0,0,1-.07-.06,2.343,2.343,0,0,1,.07-3.57,3.247,3.247,0,0,1,3.819-.24,2.364,2.364,0,0,1,.32.24A3.232,3.232,0,0,1,40.137,17.75Z" style="fill:#fcbcc5"/><path d="M40.138,17.75a3.231,3.231,0,0,0-3.07-.589,2.974,2.974,0,0,1,1.07.589,2.342,2.342,0,0,1,0,3.63L35,24.126,36,25l4.141-3.62A2.342,2.342,0,0,0,40.138,17.75Z" style="fill:#fc98b0"/><path d="M35.458,10.5a5.027,5.027,0,0,1,.219,7.01,3.247,3.247,0,0,0-3.819.24,2.343,2.343,0,0,0-.07,3.57L28,25l-7.459-7.25a5.04,5.04,0,0,1,0-7.25A5.386,5.386,0,0,1,28,10.5,5.389,5.389,0,0,1,35.458,10.5Z" style="fill:#ea5073"/><path d="M32.927,17.165a3.233,3.233,0,0,0-3.07.585,2.345,2.345,0,0,0-.07,3.57L27,24.029,28,25l3.79-3.68a2.345,2.345,0,0,1,.07-3.57A2.979,2.979,0,0,1,32.927,17.165Z" style="fill:#d83a5c"/><path d="M35.458,10.5a5.373,5.373,0,0,0-4.73-1.407,5.307,5.307,0,0,1,2.73,1.407,5.01,5.01,0,0,1,.59,6.513,3.166,3.166,0,0,1,1.629.5A5.026,5.026,0,0,0,35.458,10.5Z" style="fill:#d83a5c"/><path d="M45,58H7a3,3,0,0,1-3-3V51H6v4a1,1,0,0,0,1,1H45a1,1,0,0,0,1-1V51h2v4A3,3,0,0,1,45,58Z"/><path d="M48,43H46V3a1,1,0,0,0-1-1H7A1,1,0,0,0,6,3V7H4V3A3,3,0,0,1,7,0H45a3,3,0,0,1,3,3Z"/><path d="M7,12H3A3,3,0,0,1,3,6H7a3,3,0,0,1,0,6ZM3,8a1,1,0,0,0,0,2H7A1,1,0,0,0,7,8Z"/><path d="M7,22H3a3,3,0,0,1,0-6H7a3,3,0,0,1,0,6ZM3,18a1,1,0,0,0,0,2H7a1,1,0,0,0,0-2Z"/><path d="M7,32H3a3,3,0,0,1,0-6H7a3,3,0,0,1,0,6ZM3,28a1,1,0,0,0,0,2H7a1,1,0,0,0,0-2Z"/><path d="M7,42H3a3,3,0,0,1,0-6H7a3,3,0,0,1,0,6ZM3,38a1,1,0,0,0,0,2H7a1,1,0,0,0,0-2Z"/><path d="M7,52H3a3,3,0,0,1,0-6H7a3,3,0,0,1,0,6ZM3,48a1,1,0,0,0,0,2H7a1,1,0,0,0,0-2Z"/><rect x="4" y="41" width="2" height="6"/><rect x="4" y="31" width="2" height="6"/><rect x="4" y="21" width="2" height="6"/><rect x="4" y="11" width="2" height="6"/><rect x="12" y="1" width="2" height="56"/><path d="M41,41.991H37a1,1,0,0,1-.949-.683l-2-5.992a1,1,0,0,1,1.265-1.265l6,2A1,1,0,0,1,42,37v3.994A1,1,0,0,1,41,41.991Zm-3.28-2H40V37.718L36.582,36.58Z"/><path d="M59,64a1,1,0,0,1-.707-.293l-22-22.005L37.7,40.288,59,61.586,61.587,59,40.293,37.7l1.414-1.414,22,22a1,1,0,0,1,0,1.414l-4,4A1,1,0,0,1,59,64Z"/><rect x="54.172" y="56" width="5.657" height="2" transform="translate(-23.61 57) rotate(-45)"/><rect x="52.172" y="54" width="5.657" height="2" transform="translate(-22.782 55) rotate(-45)"/><rect x="47.002" y="38.091" width="2" height="19.805" transform="translate(-19.877 48.001) rotate(-45.001)"/><path d="M28,26a1,1,0,0,1-.7-.283l-7.46-7.25a6.042,6.042,0,0,1,0-8.683A6.409,6.409,0,0,1,28,9.2a6.411,6.411,0,0,1,8.157.585,6.022,6.022,0,0,1,.262,8.4l-1.479-1.347a4.029,4.029,0,0,0-.178-5.62,4.387,4.387,0,0,0-6.066,0,1,1,0,0,1-1.393,0,4.387,4.387,0,0,0-6.067,0,4.042,4.042,0,0,0,0,5.817L28,23.606l3.093-3,1.393,1.434-3.79,3.68A.994.994,0,0,1,28,26Z"/><path d="M36,26a1,1,0,0,1-.659-.248L31.2,22.128a3.343,3.343,0,0,1,0-5.13,4.228,4.228,0,0,1,4.8-.467A4.226,4.226,0,0,1,40.8,17h0a3.343,3.343,0,0,1,0,5.13l-4.143,3.624A1,1,0,0,1,36,26Zm-2.071-8a2.15,2.15,0,0,0-1.413.5,1.347,1.347,0,0,0,0,2.12L36,23.671l3.483-3.048a1.345,1.345,0,0,0,0-2.12,2.238,2.238,0,0,0-2.825,0,1,1,0,0,1-1.317,0A2.148,2.148,0,0,0,33.928,18Z"/><path d="M41,52H19a3,3,0,0,1-3-3V33a3,3,0,0,1,3-3H41a3,3,0,0,1,3,3v6H42V33a1,1,0,0,0-1-1H19a1,1,0,0,0-1,1V49a1,1,0,0,0,1,1H41a1,1,0,0,0,1-1V47h2v2A3,3,0,0,1,41,52Z"/><rect x="20" y="34" width="2" height="2"/><rect x="24" y="34" width="9" height="2"/><rect x="20" y="38" width="13" height="2"/><rect x="20" y="42" width="15" height="2"/><rect x="20" y="46" width="19" height="2"/><path d="M52,47H50V4H47V2h4a1,1,0,0,1,1,1Z"/><path d="M51,62H7a3,3,0,0,1-3-3V55H6v4a1,1,0,0,0,1,1H50V55h2v6A1,1,0,0,1,51,62Z"/><rect x="54" y="39" width="6" height="2"/><rect x="53.172" y="34" width="5.657" height="2" transform="translate(-8.347 49.849) rotate(-45)"/><rect x="55" y="42.172" width="2" height="5.657" transform="translate(-15.418 52.778) rotate(-45)"/></g></svg>