<?xml version="1.0" encoding="utf-8"?>
<!-- Generator: Adobe Illustrator 16.0.0, SVG Export Plug-In . SVG Version: 6.00 Build 0)  -->
<!DOCTYPE svg PUBLIC "-//W3C//DTD SVG 1.0//EN" "http://www.w3.org/TR/2001/REC-SVG-20010904/DTD/svg10.dtd">
<svg version="1.0" id="Layer_1" xmlns="http://www.w3.org/2000/svg" xmlns:xlink="http://www.w3.org/1999/xlink" x="0px" y="0px"
	 width="100px" height="100px" viewBox="0 0 100 100" enable-background="new 0 0 100 100" xml:space="preserve">
<path d="M86.667,16.667h-10v-3.334c0-1.832-1.501-3.333-3.334-3.333h-60C11.501,10,10,11.501,10,13.333v73.334
	C10,88.499,11.501,90,13.333,90h60c1.833,0,3.334-1.501,3.334-3.333v-3.334h10c1.832,0,3.333-1.5,3.333-3.333V20
	C90,18.167,88.499,16.667,86.667,16.667z M70,83.333H16.667V16.667H70V83.333z M83.333,76.667h-6.666V23.333h6.666V76.667z"/>
<path d="M60,23.333h-6.667v35.378c-2.793-1.267-6.23-2.044-10-2.044c-9.205,0-16.666,4.476-16.666,10c0,5.523,7.461,10,16.666,10
	c9.206,0,16.667-4.477,16.667-10V23.333z M43.333,70.833c-5.523,0-10-1.861-10-4.166s4.477-4.167,10-4.167
	c5.524,0,10,1.862,10,4.167S48.857,70.833,43.333,70.833z"/>
</svg>
