<?xml version="1.0" encoding="utf-8"?>
<!-- Generator: Adobe Illustrator 16.0.0, SVG Export Plug-In . SVG Version: 6.00 Build 0)  -->
<!DOCTYPE svg PUBLIC "-//W3C//DTD SVG 1.0//EN" "http://www.w3.org/TR/2001/REC-SVG-20010904/DTD/svg10.dtd">
<svg version="1.0" id="Layer_1" xmlns="http://www.w3.org/2000/svg" xmlns:xlink="http://www.w3.org/1999/xlink" x="0px" y="0px"
	 width="100px" height="100px" viewBox="0 0 100 100" enable-background="new 0 0 100 100" xml:space="preserve">
<path d="M76.667,16.667h-10C66.667,13.001,63.665,10,60,10H40c-3.665,0-6.667,3.001-6.667,6.667h-10
	c-3.665,0-6.666,3.001-6.666,6.667v60c0,3.666,3.001,6.667,6.666,6.667h53.334c3.665,0,6.666-3.001,6.666-6.667v-60
	C83.333,19.668,80.332,16.667,76.667,16.667z M40,16.667h20v6.667H40V16.667z M76.667,83.333H23.333v-60h10V30h33.334v-6.667h10
	V83.333z"/>
<rect x="30" y="40" width="20" height="6.667"/>
<rect x="30" y="53.334" width="40" height="6.666"/>
<rect x="30" y="66.666" width="33.333" height="6.667"/>
</svg>
