<svg id="Filled_stroke_cut_Ex_Revise" data-name="Filled stroke cut Ex Revise" xmlns="http://www.w3.org/2000/svg" width="512" height="512" viewBox="0 0 512 512">
  <title>nun- killer- spooky- character- cosplay- halloween- avatar- horror</title>
  <g>
    <path d="M429.422,400.35l-14.949-6.605L392,184h-.63C384.748,99.619,326.668,24,256,24S127.252,99.619,120.63,184H120L98.323,386.323,66.578,400.35A30,30,0,0,0,48,428.091V488H448V428.091A30,30,0,0,0,429.422,400.35Z" style="fill: #333"/>
    <polygon points="328 352 328 352 304 296 208 296 184 352 184 352 112 384 224 440 256 400 256 400 288 440 400 384 328 352" style="fill: #f2f2f2"/>
    <path d="M312.6,316.074,304,296H208l-8.6,20.074C216.127,329.089,235.453,336,256,336S295.873,329.089,312.6,316.074Z" style="fill: #ccc"/>
    <path d="M352,184c0,70.692-38.562,136-96,136s-96-65.308-96-136S198.562,80,256,80,352,113.308,352,184Z" style="fill: #f2f2f2"/>
    <polygon points="344 168 320 208 280 192 272 168 344 168" style="fill: #e64b30"/>
    <polygon points="168 168 192 208 232 192 240 168 168 168" style="fill: #e64b30"/>
    <g>
      <path d="M440.568,392.994l-17.281-7.636L404.562,223.083l-15.894,1.834,17.647,152.942-72.2-31.9-18.471-43.1a119.306,119.306,0,0,0,16.548-19.9C350.124,256.127,360,220.983,360,184c0-36.347-9.672-64.645-28.747-84.109C313.371,81.645,287.349,72,256,72s-57.371,9.645-75.253,27.891C161.672,119.355,152,147.653,152,184c0,36.983,9.876,72.127,27.81,98.955a119.363,119.363,0,0,0,16.548,19.9l-18.471,43.1-72.2,31.9L127.6,187.93a7.975,7.975,0,0,0,1-3.3c3.1-39.483,18.362-78.553,41.876-107.192C194.535,48.136,224.907,32,256,32s61.465,16.136,85.519,45.434c23.514,28.639,38.777,67.709,41.876,107.192a7.975,7.975,0,0,0,1,3.3l2.422,20.987,15.894-1.834-2.769-24a7.972,7.972,0,0,0-.868-2.813c-3.891-41.613-20.271-82.633-45.194-112.99C326.735,34.212,291.972,16,256,16s-70.735,18.212-97.885,51.28c-24.923,30.357-41.3,71.377-45.194,112.99a7.972,7.972,0,0,0-.868,2.813L88.713,385.358l-17.281,7.636A37.876,37.876,0,0,0,48,428.091V448H64V428.091a21.929,21.929,0,0,1,13.624-20.343l.187-.08,33.782-14.927,108.829,54.414A7.995,7.995,0,0,0,230.247,445L256,412.806,281.753,445a7.995,7.995,0,0,0,9.825,2.158l108.829-54.414,33.782,14.927.187.08A21.929,21.929,0,0,1,448,428.091V480H64V464H48v24a8,8,0,0,0,8,8H456a8,8,0,0,0,8-8V428.091A37.876,37.876,0,0,0,440.568,392.994ZM192.175,111.09C207.189,95.769,228.664,88,256,88s48.811,7.769,63.825,23.09c11.764,12,19.275,28.4,22.444,48.91H169.731C172.9,139.486,180.411,123.093,192.175,111.09ZM329.871,176l-13.225,22.042-30.23-12.092L283.1,176ZM228.9,176l-3.317,9.95-30.23,12.092L182.129,176Zm-35.789,98.063C177.153,250.189,168,217.362,168,184c0-.15,0-.3,0-.449l17.139,28.565a8,8,0,0,0,9.831,3.312l40-16a8,8,0,0,0,4.618-4.9L245.766,176h20.468l6.177,18.53a8,8,0,0,0,4.618,4.9l40,16a8,8,0,0,0,9.831-3.312L344,183.551c0,.149,0,.3,0,.449,0,33.362-9.153,66.189-25.112,90.063C302.536,298.527,280.2,312,256,312S209.464,298.527,193.112,274.063Zm16.159,39.281a81.823,81.823,0,0,0,93.458,0l4.877,11.379-15.835,11.3a46.512,46.512,0,0,1-55.116-.657l-9.6,12.8a62.455,62.455,0,0,0,74.009.881l12.993-9.27,4.456,10.4L292.77,375.916a52,52,0,0,1-73.54,0l-25.743-25.743Zm12.522,116.608-91.208-45.6,51.634-22.816,25.7,25.7A67.541,67.541,0,0,0,241.3,405.564Zm68.414,0L270.7,405.564a67.541,67.541,0,0,0,33.387-18.334l25.7-25.7,51.634,22.816Z"/>
      <path d="M224,288h64a8,8,0,0,0,7.155-4.422l8-16-14.31-7.156L283.056,272H228.944l-5.789-11.578-14.31,7.156,8,16A8,8,0,0,0,224,288Z"/>
      <rect x="248" y="448" width="16" height="16"/>
    </g>
  </g>
</svg>
