<svg id="Filled_stroke_cut_Ex" data-name="Filled stroke cut Ex" xmlns="http://www.w3.org/2000/svg" width="512" height="512" viewBox="0 0 512 512">
  <title>nurse-reception- hospital- desk- information- front desk</title>
  <g>
    <g>
      <path d="M312,80v79.974a20,20,0,0,0,5.875,14.159l17.3,17.255a30,30,0,0,0,21.3,8.761l7.147-.026a30,30,0,0,0,21.13-8.812l17.413-17.456A20,20,0,0,0,408,159.73V80Z" style="fill: #fbb8b0"/>
      <path d="M440,312H280V220.361a20,20,0,0,1,11.056-17.889L328,184h64l36.944,18.472A20,20,0,0,1,440,220.361Z" style="fill: #57cee6"/>
      <path d="M377.889,140.223a40,40,0,0,0-35.778,0L312,153.138v6.836a20,20,0,0,0,5.875,14.159l17.3,17.255a30,30,0,0,0,21.3,8.761l7.147-.026a30,30,0,0,0,21.13-8.812l17.413-17.456A20,20,0,0,0,408,159.73v-6.592Z" style="fill: #fff5f4"/>
      <path d="M416,104,383.635,90.129a60,60,0,0,0-47.27,0L304,104,288,56l42.861-23.812a60,60,0,0,1,58.278,0L432,56Z" style="fill: #57cee6"/>
    </g>
    <rect x="40" y="344" width="432" height="144" style="fill: #57cee6"/>
    <rect x="24" y="312" width="464" height="32" style="fill: #31cad0"/>
    <polygon points="296 400 272 400 272 376 240 376 240 400 216 400 216 432 240 432 240 456 272 456 272 432 296 432 296 400" style="fill: #f8fdfe"/>
    <rect x="24" y="112" width="224" height="144" rx="10" ry="10" style="fill: #fdbf44"/>
    <rect x="368" y="248" width="104" height="64" style="fill: #fdbf44"/>
    <rect x="112" y="232" width="48" height="80" style="fill: #fdbf44"/>
    <circle cx="136" cy="168" r="24" style="fill: #fffcf8"/>
    <g>
      <path d="M288,220.361a11.936,11.936,0,0,1,6.633-10.734l31.638-15.819,3.251,3.244a38.257,38.257,0,0,0,26.84,11.1h.136l7.147-.026A37.759,37.759,0,0,0,390.41,196.96l3.2-3.21,31.755,15.877A11.936,11.936,0,0,1,432,220.361V224h16v-3.639a27.847,27.847,0,0,0-15.478-25.044l-27-13.5,2.3-2.31A27.821,27.821,0,0,0,416,159.73V112a8,8,0,0,0,7.589-5.47l16-48a8,8,0,0,0-3.7-9.523L393.024,25.2a67.6,67.6,0,0,0-66.048,0L284.115,49.007a8,8,0,0,0-3.7,9.523l16,48A8,8,0,0,0,304,112v47.975a27.816,27.816,0,0,0,8.225,19.823l2.1,2.1-26.848,13.424A27.847,27.847,0,0,0,272,220.361V288h16Zm75.587-28.238-7.147.026h-.079a22.152,22.152,0,0,1-15.539-6.424l-17.3-17.255A11.924,11.924,0,0,1,320,160.221l25.686-12.843a32.157,32.157,0,0,1,28.622,0l25.679,12.84a11.921,11.921,0,0,1-3.494,7.987l-17.413,17.456A21.864,21.864,0,0,1,363.587,192.123ZM339.516,97.482a52.24,52.24,0,0,1,40.968,0L400,105.846v36.489l-18.534-9.267a48.227,48.227,0,0,0-42.932,0L320,142.335V105.846ZM297.689,59.769l37.058-20.588a51.691,51.691,0,0,1,50.506,0l37.058,20.588L411.16,93.222,386.787,82.776a68.3,68.3,0,0,0-53.574,0L308.84,93.222Z"/>
      <polygon points="352 72 368 72 368 64 376 64 376 48 368 48 368 40 352 40 352 48 344 48 344 64 352 64 352 72"/>
      <rect x="304" y="240" width="40" height="16"/>
      <path d="M488,304h-8V248a8,8,0,0,0-8-8H368a8,8,0,0,0-8,8v56H168V264h70a18.021,18.021,0,0,0,18-18V122a18.021,18.021,0,0,0-18-18H34a18.021,18.021,0,0,0-18,18v30H32V122a2,2,0,0,1,2-2H238a2,2,0,0,1,2,2V246a2,2,0,0,1-2,2H168V232h16V216H88v16h16v16H34a2,2,0,0,1-2-2V168H16v78a18.021,18.021,0,0,0,18,18h70v40H24a8,8,0,0,0-8,8v32a8,8,0,0,0,8,8h8V488a8,8,0,0,0,8,8H472a8,8,0,0,0,8-8V424H464v56H48V352H464v56h16V352h8a8,8,0,0,0,8-8V312A8,8,0,0,0,488,304ZM376,256h88v48H376ZM120,232h32v72H120ZM480,336H32V320H480Z"/>
      <path d="M240,464h32a8,8,0,0,0,8-8V440h16a8,8,0,0,0,8-8V400a8,8,0,0,0-8-8H280V376a8,8,0,0,0-8-8H240a8,8,0,0,0-8,8v16H216a8,8,0,0,0-8,8v32a8,8,0,0,0,8,8h16v16A8,8,0,0,0,240,464Zm-16-40V408h16a8,8,0,0,0,8-8V384h16v16a8,8,0,0,0,8,8h16v16H272a8,8,0,0,0-8,8v16H248V432a8,8,0,0,0-8-8Z"/>
      <rect x="392" y="272" width="56" height="16"/>
      <path d="M136,200a32,32,0,1,0-32-32A32.036,32.036,0,0,0,136,200Zm0-48a16,16,0,1,1-16,16A16.019,16.019,0,0,1,136,152Z"/>
    </g>
  </g>
</svg>
