<svg id="icons" xmlns="http://www.w3.org/2000/svg" viewBox="0 0 64 64"><defs><style>.cls-1,.cls-2{fill:none;stroke:#000;}.cls-1{stroke-miterlimit:10;}.cls-2{stroke-linecap:round;stroke-linejoin:round;}</style></defs><title>nut</title><g id="nut"><path class="cls-1" d="M52.38521,36.2913c0,1.18507-4.40183,2.057-4.55514,3.19051-.15866,1.17312,3.845,3.193,3.5353,4.29523-.32,1.1388-4.7894.76355-5.25612,1.80937-.48186,1.07975,2.76695,4.16938,2.14468,5.131-.64213.99226-4.77839-.72892-5.55247.11657-.79668.87018,1.24986,4.85608.33258,5.54793-.93779.70732-4.17347-2.37806-5.21674-1.88165-1.05155.50035-.73353,4.96351-1.871,5.22431-1.12056.25692-2.7628-3.8954-3.94627-3.8954-1.18376,0-2.82639,4.15222-3.94722,3.89518-1.13761-.26088-.81942-4.72406-1.871-5.22455-1.04332-.49653-4.27935,2.58852-5.21717,1.881-.91721-.69192,1.12966-4.67765.333-5.5479-.77375-.84526-4.90986.876-5.55175-.11588-.62227-.96161,2.62659-4.05121,2.14473-5.131-.46666-1.04574-4.936-.67046-5.256-1.80917C12.3249,42.67474,16.32861,40.655,16.17,39.482c-.15333-1.13357-4.55516-2.00555-4.55516-3.19068s4.40183-2.057,4.55514-3.19051c.15866-1.17312-3.845-3.193-3.5353-4.29523.32-1.1388,4.7894-.76355,5.25612-1.80937.48186-1.07975-2.767-4.16939-2.14468-5.131.64213-.99226,4.77839.72891,5.55247-.11657.79668-.87018-1.24986-4.85608-.33258-5.54793.93779-.70732,4.17347,2.37806,5.21674,1.88165,1.05155-.50035.73353-4.96351,1.871-5.22431,1.12056-.25692,2.7628,3.8954,3.94627,3.8954,1.18376,0,2.82639-4.15222,3.94722-3.89519,1.13761.26089.81942,4.72407,1.871,5.22456,1.04332.49653,4.27935-2.58852,5.21717-1.88105.91721.69192-1.12966,4.67765-.333,5.54789.77375.84527,4.90986-.876,5.55175.11589.62227.96161-2.62659,4.05121-2.14473,5.131.46666,1.04575,4.936.67047,5.256,1.80918.30968,1.10211-3.694,3.12188-3.53537,4.29488C47.98338,34.23419,52.38521,35.10617,52.38521,36.2913Z"/><path class="cls-2" d="M32.94409,15.875c.87443-4.83156,3.7099-7.45573,5.32676-7.84979a1.97129,1.97129,0,0,0,1.12191-1.98745c0-1.19933-.70944-2.17592-1.51788-2.02172-4.93308.99373-6.73143,6.88754-7.39138,10.65684"/><path class="cls-2" d="M36.28528,23.26337l1.66087.93957a.87471.87471,0,0,1,.29076,1.229l-.91813,1.42353a.876.876,0,0,0,.257,1.20879l1.636,1.03254a.87615.87615,0,0,1,.14782,1.34507l-1.80637,1.83119a.87881.87881,0,0,0,.04813,1.2711l1.70812,1.47818a.8771.8771,0,0,1-.041,1.34945l-1.49607,1.13679a.87771.87771,0,0,0-.08142,1.312L39.35979,40.469a.8766.8766,0,0,1-.12247,1.34131l-1.56267,1.04321a.87693.87693,0,0,0-.19407,1.26091l1.26065,1.61073a.87411.87411,0,0,1-.27435,1.30813l-1.91479.98376a.87387.87387,0,0,0-.29924,1.27467l1.27655,1.80633"/><path class="cls-2" d="M26.9162,23.26337,24.17126,24.3119a.87158.87158,0,0,0-.27612,1.43215l3.02106,2.90909"/><path class="cls-2" d="M24.71642,33.21666l-2.46861,1.62879a.87416.87416,0,0,0,.02241,1.46039L25.81631,38.484"/><path class="cls-2" d="M26.16454,43.38147l-2.46861,1.62879a.87416.87416,0,0,0,.02241,1.46039l3.54609,2.17817"/></g></svg>