<?xml version="1.0" encoding="utf-8"?>
<!-- Generator: Adobe Illustrator 16.0.0, SVG Export Plug-In . SVG Version: 6.00 Build 0)  -->
<!DOCTYPE svg PUBLIC "-//W3C//DTD SVG 1.0//EN" "http://www.w3.org/TR/2001/REC-SVG-20010904/DTD/svg10.dtd">
<svg version="1.0" id="Layer_1" xmlns="http://www.w3.org/2000/svg" xmlns:xlink="http://www.w3.org/1999/xlink" x="0px" y="0px"
	 width="100px" height="100px" viewBox="0 0 100 100" enable-background="new 0 0 100 100" xml:space="preserve">
<path d="M86.667,23.333H73.333V20c0-1.833-1.5-3.333-3.333-3.333H56.667v-3.333c0-1.833-1.501-3.333-3.334-3.333h-40
	C11.501,10,10,11.5,10,13.333v73.333C10,88.5,11.501,90,13.333,90h40c1.833,0,3.334-1.5,3.334-3.334v-3.332H70
	c1.833,0,3.333-1.502,3.333-3.334v-3.334h13.334c1.832,0,3.333-1.5,3.333-3.332V26.667C90,24.834,88.499,23.333,86.667,23.333z
	 M50,83.334H16.667V16.667H50V83.334z M66.667,76.666h-10V23.333h10V76.666z M83.333,70h-10V30h10V70z"/>
</svg>
