<?xml version="1.0" encoding="utf-8"?>
<!-- Generator: Adobe Illustrator 24.0.0, SVG Export Plug-In . SVG Version: 6.00 Build 0)  -->
<svg version="1.1" xmlns="http://www.w3.org/2000/svg" xmlns:xlink="http://www.w3.org/1999/xlink" x="0px" y="0px"
	 viewBox="0 0 256 256" enable-background="new 0 0 256 256" xml:space="preserve">
<g id="Layer_1">
</g>
<g id="Layer_2">
	<g>
		<g>
			<g>
				<path fill="#F5C84C" d="M206.333,150.203h-24.914c-1.692,0-3.063,1.371-3.063,3.063V240.5h31.04v-87.234
					C209.396,151.574,208.024,150.203,206.333,150.203z"/>
			</g>
		</g>
		<g>
			<g>
				<path fill="#FC657E" d="M237.372,150.203h-24.914c-1.692,0-3.063,1.371-3.063,3.063V240.5h31.04v-87.234
					C240.435,151.574,239.064,150.203,237.372,150.203z"/>
			</g>
		</g>
		<g>
			<g>
				
					<ellipse transform="matrix(0.9732 -0.2298 0.2298 0.9732 -44.5587 50.3357)" fill="#DAE6F1" cx="193.876" cy="216.515" rx="7.054" ry="7.054"/>
			</g>
		</g>
		<g>
			<g>
				
					<ellipse transform="matrix(0.9732 -0.2298 0.2298 0.9732 -43.7283 57.4672)" fill="#DAE6F1" cx="224.915" cy="216.515" rx="7.054" ry="7.054"/>
			</g>
		</g>
		<g>
			<g>
				<path fill="#EDF4FC" d="M102.5,226.5h-52v14h52c3.866,0,7-3.134,7-7S106.366,226.5,102.5,226.5z"/>
			</g>
		</g>
		<g>
			<g>
				<path fill="#EDF4FC" d="M102.5,212.5h-52v14h52c3.866,0,7-3.134,7-7S106.366,212.5,102.5,212.5z"/>
			</g>
		</g>
		<g>
			<g>
				<path fill="#EDF4FC" d="M102.5,198.5h-52v14h52c3.866,0,7-3.134,7-7S106.366,198.5,102.5,198.5z"/>
			</g>
		</g>
		<g>
			<g>
				<path fill="#754E34" d="M240.216,240.5H15.784c-2.154,0-3.899,1.746-3.899,3.899v5.201c0,2.154,1.746,3.899,3.899,3.899h224.432
					c2.154,0,3.899-1.746,3.899-3.899v-5.201C244.115,242.246,242.37,240.5,240.216,240.5z"/>
			</g>
		</g>
		<g>
			<g>
				<path fill="#9BE5F9" d="M123.481,174.959l-14.561-14.561c-1.077-1.077-2.823-1.077-3.899,0l-6.516,6.516
					c-1.077,1.077-1.077,2.823,0,3.899l14.561,14.561c1.077,1.077,2.823,1.077,3.9,0l6.516-6.516
					C124.558,177.782,124.558,176.036,123.481,174.959z"/>
			</g>
		</g>
		<g>
			<g>
				<path fill="#9BE5F9" d="M157.495,166.914l-6.516-6.516c-1.077-1.077-2.823-1.077-3.899,0l-14.561,14.561
					c-1.077,1.077-1.077,2.823,0,3.899l6.516,6.516c1.077,1.077,2.823,1.077,3.9,0l14.561-14.561
					C158.572,169.737,158.572,167.991,157.495,166.914z"/>
			</g>
		</g>
		<g>
			<g>
				<path fill="#F9D0B4" d="M144.662,154.741v-5.886c-4.995,2.615-10.661,4.104-16.662,4.104h0c-6,0-11.667-1.489-16.662-4.104
					v5.886c0,2.276-0.621,4.455-1.734,6.341l13.877,13.877c0.468,0.468,0.72,1.064,0.781,1.675h7.475
					c0.061-0.611,0.313-1.207,0.781-1.675l13.89-13.89C145.296,159.185,144.662,157.016,144.662,154.741z"/>
			</g>
		</g>
		<g>
			<g>
				<path fill="#70D6F9" d="M168.884,172.686c-3.626-0.913-7.17-2.12-10.604-3.591c-0.052,0.626-0.306,1.24-0.786,1.719
					l-14.561,14.561c-1.077,1.077-2.823,1.077-3.899,0l-6.516-6.516c-0.609-0.609-0.861-1.43-0.781-2.224h-7.475
					c0.079,0.794-0.173,1.616-0.781,2.224l-6.516,6.516c-1.077,1.077-2.823,1.077-3.899,0l-14.561-14.561
					c-0.477-0.477-0.73-1.086-0.785-1.709c-3.426,1.466-6.964,2.664-10.581,3.575l-20.785,5.232
					c-6.057,1.525-10.419,6.811-10.766,13.047l-0.437,7.542H102.5c3.866,0,7,3.134,7,7s-3.134,7-7,7c3.866,0,7,3.134,7,7
					s-3.134,7-7,7c3.866,0,7,3.134,7,7s-3.134,7-7,7h75.856v-65.43L168.884,172.686z"/>
			</g>
		</g>
		<g>
			<g>
				<path fill="#F9D0B4" d="M164.161,84.01c-0.02-1.026-0.842-1.871-1.867-1.901c-15.025-0.441-22.941-6.395-25.983-9.377
					c-0.83-0.814-2.171-0.728-2.895,0.182c-13.21,16.612-32.697,14.268-39.249,12.897c-1.191-0.249-2.333,0.648-2.334,1.865v29.118
					c0,19.892,16.275,36.167,36.167,36.167h0c19.892,0,36.167-16.275,36.167-36.167V84.575
					C164.167,84.386,164.165,84.198,164.161,84.01z"/>
			</g>
		</g>
		<g>
			<g>
				<path fill="#754E34" d="M161.436,49.211c0-0.962,0.049-1.913,0.141-2.851c-1.688-0.45-3.451-0.713-5.276-0.713
					c-3.854,0-7.457,1.089-10.553,2.946c-3.617-6.036-10.206-10.112-17.717-10.112h-10.609c-20.532,0-37.331,16.799-37.331,37.331
					V92.54c2.583-2.067,5.855-3.311,9.421-3.311c0.79,0,1.564,0.067,2.321,0.184v-1.738c0.001-1.216,1.143-2.114,2.334-1.865
					c6.552,1.371,26.039,3.715,39.249-12.897c0.724-0.91,2.064-0.996,2.895-0.182c3.042,2.982,10.958,8.937,25.983,9.377
					c1.026,0.03,1.847,0.875,1.867,1.901c0.004,0.188,0.006,0.377,0.006,0.566v4.837c0.757-0.117,1.531-0.184,2.321-0.184
					c4.07,0,7.757,1.618,10.473,4.237V74.787C167.737,69.977,161.436,60.333,161.436,49.211z"/>
			</g>
		</g>
		<g>
			<g>
				<path fill="#F9D0B4" d="M166.487,89.229c-0.79,0-1.564,0.067-2.321,0.184v27.38c0,0.816-0.037,1.623-0.091,2.425
					c0.787,0.127,1.589,0.211,2.412,0.211c8.339,0,15.1-6.76,15.1-15.1S174.827,89.229,166.487,89.229z"/>
			</g>
		</g>
		<g>
			<g>
				<path fill="#F9D0B4" d="M91.833,116.793v-27.38c-0.757-0.117-1.531-0.184-2.321-0.184c-8.339,0-15.1,6.761-15.1,15.1
					s6.76,15.1,15.1,15.1c0.823,0,1.625-0.084,2.412-0.211v-0.001C91.871,118.415,91.833,117.608,91.833,116.793z"/>
			</g>
		</g>
		<g>
			<g>
				<path d="M140.421,123.457c-1.059-0.887-2.635-0.748-3.522,0.31c-1.734,2.07-4.681,3.305-7.883,3.305s-6.148-1.235-7.883-3.305
					c-0.886-1.057-2.462-1.197-3.522-0.31c-1.058,0.887-1.197,2.464-0.31,3.522c2.673,3.189,7.052,5.093,11.715,5.093
					s9.042-1.904,11.715-5.093C141.618,125.92,141.479,124.343,140.421,123.457z"/>
			</g>
		</g>
		<g>
			<g>
				<circle cx="144.023" cy="106.242" r="4.615"/>
			</g>
		</g>
		<g>
			<g>
				<ellipse transform="matrix(0.7071 -0.7071 0.7071 0.7071 -42.019 111.0409)" cx="113.029" cy="106.242" rx="4.615" ry="4.615"/>
			</g>
		</g>
		<g>
			<g>
				<g>
					<path d="M125.249,173.192l-14.561-14.561c-0.993-0.993-2.313-1.54-3.717-1.54c-1.405,0-2.725,0.547-3.717,1.54l-6.516,6.516
						c-0.993,0.993-1.54,2.313-1.54,3.718c0,1.404,0.547,2.724,1.54,3.717l14.561,14.561c1.025,1.025,2.371,1.538,3.717,1.538
						s2.692-0.513,3.717-1.538l6.516-6.516C127.299,178.577,127.299,175.242,125.249,173.192z M121.714,177.091l-6.516,6.516
						c-0.101,0.1-0.264,0.1-0.364,0l-14.561-14.561c-0.05-0.05-0.075-0.112-0.075-0.182c0-0.071,0.025-0.132,0.075-0.182
						l6.517-6.516c0.05-0.05,0.111-0.075,0.182-0.075c0.07,0,0.132,0.025,0.182,0.075l14.561,14.561
						C121.814,176.828,121.814,176.991,121.714,177.091z"/>
				</g>
			</g>
		</g>
		<g>
			<g>
				<g>
					<path d="M159.263,165.147l-6.516-6.516c-0.993-0.993-2.313-1.54-3.718-1.54c-1.404,0-2.724,0.547-3.717,1.54l-14.561,14.561
						c-2.05,2.05-2.05,5.385,0,7.435l6.516,6.516c1.025,1.025,2.371,1.538,3.717,1.538s2.692-0.513,3.717-1.538l14.561-14.561
						c0.993-0.993,1.54-2.313,1.54-3.717C160.803,167.459,160.256,166.139,159.263,165.147z M155.728,169.046l-14.561,14.561
						c-0.101,0.1-0.264,0.1-0.364,0l-6.516-6.516c-0.1-0.101-0.1-0.264,0-0.364l14.561-14.561c0.05-0.05,0.112-0.075,0.182-0.075
						c0.071,0,0.132,0.025,0.182,0.075l6.516,6.517c0.05,0.05,0.075,0.111,0.075,0.182
						C155.803,168.935,155.777,168.996,155.728,169.046z"/>
				</g>
			</g>
		</g>
		<g>
			<g>
				<path d="M148.354,159.429c-0.779-1.453-1.191-3.074-1.191-4.688v-5.288c0-1.381-1.119-2.5-2.5-2.5s-2.5,1.119-2.5,2.5v5.288
					c0,2.436,0.617,4.874,1.785,7.051c0.451,0.841,1.313,1.319,2.205,1.319c0.399,0,0.804-0.096,1.18-0.297
					C148.549,162.162,149.006,160.646,148.354,159.429z"/>
			</g>
		</g>
		<g>
			<g>
				<path d="M130.892,174.135h-6.14c-1.381,0-2.5,1.119-2.5,2.5s1.119,2.5,2.5,2.5h6.14c1.381,0,2.5-1.119,2.5-2.5
					S132.272,174.135,130.892,174.135z"/>
			</g>
		</g>
		<g>
			<g>
				<path d="M111.338,147.27c-1.381,0-2.5,1.119-2.5,2.5v4.971c0,1.595-0.39,3.188-1.128,4.604
					c-0.638,1.225-0.163,2.734,1.062,3.372c0.369,0.192,0.764,0.284,1.153,0.284c0.902,0,1.773-0.49,2.219-1.345
					c1.109-2.127,1.695-4.519,1.695-6.915v-4.971C113.838,148.389,112.719,147.27,111.338,147.27z"/>
			</g>
		</g>
		<g>
			<g>
				<path d="M178.137,172.437l-8.642-2.175c-3.141-0.791-6.284-1.831-9.343-3.092c-1.278-0.529-2.738,0.082-3.264,1.358
					c-0.526,1.277,0.082,2.738,1.358,3.264c3.281,1.353,6.655,2.469,10.028,3.318l8.642,2.175c0.205,0.052,0.41,0.076,0.612,0.076
					c1.119,0,2.137-0.756,2.422-1.89C180.288,174.133,179.476,172.774,178.137,172.437z"/>
			</g>
		</g>
		<g>
			<g>
				<path d="M99.52,168.354c-0.534-1.274-2-1.874-3.271-1.34c-3.156,1.322-6.426,2.413-9.719,3.242l-20.785,5.232
					c-7.157,1.801-12.242,7.963-12.651,15.326l-0.381,6.574c-0.08,1.378,0.973,2.561,2.351,2.641
					c0.049,0.003,0.099,0.004,0.147,0.004c1.314,0,2.417-1.026,2.493-2.355l0.382-6.58c0.288-5.172,3.856-9.497,8.88-10.762
					l20.785-5.232c3.535-0.89,7.045-2.061,10.43-3.479C99.454,171.092,100.054,169.627,99.52,168.354z"/>
			</g>
		</g>
		<g>
			<g>
				<g>
					<path d="M166.66,83.961c-0.046-2.371-1.932-4.282-4.293-4.352c-14.392-0.422-21.792-6.199-24.306-8.663
						c-0.899-0.882-2.133-1.343-3.389-1.266s-2.427,0.689-3.213,1.677l0,0c-12.124,15.246-29.759,13.476-36.78,12.005
						c-1.315-0.273-2.671,0.053-3.716,0.902c-1.035,0.84-1.628,2.082-1.629,3.435v29.093c0,21.321,17.346,38.667,38.667,38.667
						s38.667-17.346,38.667-38.667V84.575C166.667,84.369,166.665,84.163,166.66,83.961z M161.667,116.792
						c0,18.564-15.103,33.667-33.667,33.667s-33.667-15.103-33.667-33.667v-28.4c6.876,1.314,26.91,3.348,40.664-13.458
						c3.812,3.563,12.033,9.094,26.669,9.654V116.792z"/>
				</g>
			</g>
		</g>
		<g>
			<g>
				<g>
					<path d="M161.2,43.672c-4.866-1.058-10.08-0.479-14.636,1.657c-4.356-5.817-11.26-9.348-18.533-9.348h-10.608
						c-21.963,0-39.832,17.868-39.832,39.831v15.953c0,1.381,1.119,2.5,2.5,2.5s2.5-1.119,2.5-2.5V75.813
						c0-19.206,15.625-34.831,34.832-34.831h10.608c6.317,0,12.284,3.409,15.572,8.896c0.341,0.569,0.894,0.979,1.537,1.14
						c0.643,0.159,1.324,0.06,1.893-0.281c3.953-2.37,8.707-3.135,13.104-2.179c1.349,0.293,2.68-0.563,2.974-1.912
						C163.405,45.296,162.549,43.965,161.2,43.672z"/>
				</g>
			</g>
			<g>
				<g>
					<path d="M176.96,72.771c-1.381,0-2.5,1.119-2.5,2.5v17.484c0,1.381,1.119,2.5,2.5,2.5s2.5-1.119,2.5-2.5V75.271
						C179.46,73.89,178.341,72.771,176.96,72.771z"/>
				</g>
			</g>
		</g>
		<g>
			<g>
				<path d="M166.487,86.729c-0.489,0-0.973,0.021-1.451,0.062c-1.375,0.117-2.396,1.327-2.28,2.703
					c0.117,1.375,1.325,2.394,2.703,2.28c0.339-0.029,0.682-0.044,1.028-0.044c6.948,0,12.6,5.652,12.6,12.6
					c0,6.948-5.652,12.6-12.6,12.6c-0.365,0-0.739-0.021-1.143-0.063c-1.375-0.135-2.603,0.855-2.745,2.229s0.855,2.603,2.229,2.745
					c0.577,0.06,1.12,0.089,1.66,0.089c9.705,0,17.6-7.896,17.6-17.6S176.192,86.729,166.487,86.729z"/>
			</g>
		</g>
		<g>
			<g>
				<path d="M90.476,116.884c-0.317,0.028-0.639,0.045-0.963,0.045c-6.948,0-12.6-5.652-12.6-12.6c0-6.947,5.652-12.6,12.6-12.6
					c0.332,0,0.66,0.014,0.984,0.041c1.379,0.123,2.583-0.914,2.694-2.29c0.112-1.376-0.914-2.583-2.29-2.694
					c-0.458-0.037-0.921-0.057-1.389-0.057c-9.705,0-17.6,7.895-17.6,17.6s7.896,17.6,17.6,17.6c0.476,0,0.946-0.023,1.411-0.065
					c1.375-0.124,2.39-1.338,2.266-2.713C93.066,117.775,91.854,116.762,90.476,116.884z"/>
			</g>
		</g>
		<g>
			<g>
				<path fill="#70D6F9" d="M223.8,94.432h-2.3v-2.3c0-1.7-1.4-3.2-3.2-3.2s-3.2,1.4-3.2,3.2v2.3h-2.3c-1.7,0-3.2,1.4-3.2,3.2
					c0,1.8,1.4,3.2,3.2,3.2h2.3v2.3c0,1.7,1.4,3.2,3.2,3.2s3.2-1.4,3.2-3.2v-2.3h2.3c1.7,0,3.2-1.4,3.2-3.2
					C227,95.832,225.6,94.432,223.8,94.432z"/>
			</g>
		</g>
		<g>
			<g>
				<g>
					<path d="M240.216,238H15.784c-3.529,0-6.399,2.871-6.399,6.399v5.201c0,3.529,2.871,6.399,6.399,6.399h224.432
						c3.529,0,6.399-2.871,6.399-6.399v-5.201C246.615,240.871,243.745,238,240.216,238z M241.615,249.601
						c0,0.771-0.628,1.399-1.399,1.399H15.784c-0.771,0-1.399-0.628-1.399-1.399v-5.201c0-0.771,0.628-1.399,1.399-1.399h224.432
						c0.771,0,1.399,0.628,1.399,1.399V249.601z"/>
				</g>
			</g>
		</g>
		<g>
			<g>
				<circle fill="#B2E26D" cx="190.27" cy="49.211" r="28.834"/>
			</g>
		</g>
		<g>
			<g>
				<path fill="#EDF4FC" d="M203.886,41.044c-2.073-2.072-5.432-2.072-7.505,0l-8.515,8.515l-4.268-4.268
					c-2.073-2.072-5.432-2.072-7.505,0c-2.072,2.072-2.072,5.433,0,7.505l8.021,8.021c1.036,1.036,2.394,1.554,3.753,1.554
					c1.358,0,2.716-0.518,3.753-1.554l12.267-12.267C205.958,46.476,205.958,43.116,203.886,41.044z"/>
			</g>
		</g>
		<g>
			<g>
				<g>
					<g>
						<path d="M205.653,39.275c-3.043-3.042-7.996-3.043-11.041,0l-6.747,6.747l-2.5-2.5c-3.044-3.042-7.997-3.043-11.041,0
							s-3.044,7.997,0,11.04l8.021,8.021c1.475,1.474,3.436,2.286,5.52,2.286c2.085,0,4.045-0.812,5.521-2.287l12.268-12.267
							C208.697,47.272,208.697,42.32,205.653,39.275z M202.118,46.781l-12.267,12.267c-1.06,1.061-2.909,1.061-3.97,0l-8.021-8.021
							c-1.094-1.095-1.094-2.875,0-3.969c0.547-0.547,1.266-0.821,1.985-0.821c0.719,0,1.438,0.273,1.985,0.82l4.268,4.268
							c0.976,0.977,2.56,0.977,3.535,0l8.514-8.514c1.096-1.095,2.876-1.094,3.97-0.001
							C203.212,43.906,203.212,45.687,202.118,46.781z"/>
					</g>
				</g>
			</g>
		</g>
		<g>
			<g>
				<g>
					<path d="M190.27,17.876c-17.278,0-31.334,14.056-31.334,31.334s14.056,31.334,31.334,31.334s31.334-14.056,31.334-31.334
						S207.547,17.876,190.27,17.876z M190.27,75.544c-14.521,0-26.334-11.813-26.334-26.334s11.813-26.334,26.334-26.334
						c14.521,0,26.334,11.813,26.334,26.334S204.791,75.544,190.27,75.544z"/>
				</g>
			</g>
		</g>
		<g>
			<g>
				<path d="M206.333,147.703h-24.914c-3.067,0-5.563,2.495-5.563,5.563v86.192c0,1.381,1.119,2.5,2.5,2.5s2.5-1.119,2.5-2.5
					v-86.192c0-0.31,0.252-0.563,0.563-0.563h24.914c0.31,0,0.563,0.252,0.563,0.563V239.5c0,1.381,1.119,2.5,2.5,2.5
					s2.5-1.119,2.5-2.5v-86.234C211.896,150.198,209.4,147.703,206.333,147.703z"/>
			</g>
		</g>
		<g>
			<g>
				<path d="M198.108,163.693h-8.465c-1.381,0-2.5,1.119-2.5,2.5s1.119,2.5,2.5,2.5h8.465c1.381,0,2.5-1.119,2.5-2.5
					S199.489,163.693,198.108,163.693z"/>
			</g>
		</g>
		<g>
			<g>
				<path d="M198.108,172.786h-8.465c-1.381,0-2.5,1.119-2.5,2.5s1.119,2.5,2.5,2.5h8.465c1.381,0,2.5-1.119,2.5-2.5
					S199.489,172.786,198.108,172.786z"/>
			</g>
		</g>
		<g>
			<g>
				<path d="M198.108,181.878h-8.465c-1.381,0-2.5,1.119-2.5,2.5s1.119,2.5,2.5,2.5h8.465c1.381,0,2.5-1.119,2.5-2.5
					S199.489,181.878,198.108,181.878z"/>
			</g>
		</g>
		<g>
			<g>
				<path d="M198.108,190.97h-8.465c-1.381,0-2.5,1.119-2.5,2.5s1.119,2.5,2.5,2.5h8.465c1.381,0,2.5-1.119,2.5-2.5
					S199.489,190.97,198.108,190.97z"/>
			</g>
		</g>
		<g>
			<g>
				<path d="M237.373,147.703h-24.914c-2.954,0-5.394,2.309-5.554,5.256c-0.075,1.379,0.981,2.558,2.36,2.632
					c1.382,0.088,2.558-0.981,2.632-2.36c0.016-0.296,0.263-0.529,0.562-0.529h24.914c0.31,0,0.563,0.252,0.563,0.563v86.64
					c0,1.381,1.119,2.5,2.5,2.5s2.5-1.119,2.5-2.5v-86.64C242.935,150.198,240.44,147.703,237.373,147.703z"/>
			</g>
		</g>
		<g>
			<g>
				<path d="M229.148,163.693h-8.465c-1.381,0-2.5,1.119-2.5,2.5s1.119,2.5,2.5,2.5h8.465c1.381,0,2.5-1.119,2.5-2.5
					S230.529,163.693,229.148,163.693z"/>
			</g>
		</g>
		<g>
			<g>
				<path d="M229.148,172.786h-8.465c-1.381,0-2.5,1.119-2.5,2.5s1.119,2.5,2.5,2.5h8.465c1.381,0,2.5-1.119,2.5-2.5
					S230.529,172.786,229.148,172.786z"/>
			</g>
		</g>
		<g>
			<g>
				<path d="M229.148,181.878h-8.465c-1.381,0-2.5,1.119-2.5,2.5s1.119,2.5,2.5,2.5h8.465c1.381,0,2.5-1.119,2.5-2.5
					S230.529,181.878,229.148,181.878z"/>
			</g>
		</g>
		<g>
			<g>
				<path d="M229.148,190.97h-8.465c-1.381,0-2.5,1.119-2.5,2.5s1.119,2.5,2.5,2.5h8.465c1.381,0,2.5-1.119,2.5-2.5
					S230.529,190.97,229.148,190.97z"/>
			</g>
		</g>
		<g>
			<g>
				<path d="M102.5,224h-55c-1.381,0-2.5,1.119-2.5,2.5s1.119,2.5,2.5,2.5h55c2.481,0,4.5,2.019,4.5,4.5s-2.019,4.5-4.5,4.5h-55
					c-1.381,0-2.5,1.119-2.5,2.5s1.119,2.5,2.5,2.5h55c5.238,0,9.5-4.262,9.5-9.5S107.738,224,102.5,224z"/>
			</g>
		</g>
		<g>
			<g>
				<path d="M102.5,210h-55c-1.381,0-2.5,1.119-2.5,2.5s1.119,2.5,2.5,2.5h55c2.481,0,4.5,2.019,4.5,4.5s-2.019,4.5-4.5,4.5h-55
					c-1.381,0-2.5,1.119-2.5,2.5s1.119,2.5,2.5,2.5h55c5.238,0,9.5-4.262,9.5-9.5S107.738,210,102.5,210z"/>
			</g>
		</g>
		<g>
			<g>
				<path d="M102.5,196h-55c-1.381,0-2.5,1.119-2.5,2.5s1.119,2.5,2.5,2.5h55c2.481,0,4.5,2.019,4.5,4.5s-2.019,4.5-4.5,4.5h-55
					c-1.381,0-2.5,1.119-2.5,2.5s1.119,2.5,2.5,2.5h55c5.238,0,9.5-4.262,9.5-9.5S107.738,196,102.5,196z"/>
			</g>
		</g>
		<g>
			<g>
				<g>
					<path d="M102.5,224h-52c-1.381,0-2.5,1.119-2.5,2.5v14c0,1.381,1.119,2.5,2.5,2.5h52c5.238,0,9.5-4.262,9.5-9.5
						S107.738,224,102.5,224z M102.5,238H53v-9h49.5c2.481,0,4.5,2.019,4.5,4.5S104.981,238,102.5,238z"/>
				</g>
			</g>
		</g>
		<g>
			<g>
				<g>
					<path d="M102.5,210h-52c-1.381,0-2.5,1.119-2.5,2.5v14c0,1.381,1.119,2.5,2.5,2.5h52c5.238,0,9.5-4.262,9.5-9.5
						S107.738,210,102.5,210z M102.5,224H53v-9h49.5c2.481,0,4.5,2.019,4.5,4.5S104.981,224,102.5,224z"/>
				</g>
			</g>
		</g>
		<g>
			<g>
				<g>
					<path d="M102.5,196h-52c-1.381,0-2.5,1.119-2.5,2.5v14c0,1.381,1.119,2.5,2.5,2.5h52c5.238,0,9.5-4.262,9.5-9.5
						S107.738,196,102.5,196z M102.5,210H53v-9h49.5c2.481,0,4.5,2.019,4.5,4.5S104.981,210,102.5,210z"/>
				</g>
			</g>
		</g>
		<g>
			<g>
				<g>
					<path d="M193.876,206.96c-5.269,0-9.555,4.286-9.555,9.554c0,5.269,4.286,9.555,9.555,9.555c5.268,0,9.554-4.286,9.554-9.555
						C203.43,211.247,199.144,206.96,193.876,206.96z M193.876,221.069c-2.511,0-4.555-2.043-4.555-4.555s2.043-4.554,4.555-4.554
						s4.554,2.043,4.554,4.554S196.387,221.069,193.876,221.069z"/>
				</g>
			</g>
		</g>
		<g>
			<g>
				<g>
					<path d="M224.916,206.96c-5.269,0-9.555,4.286-9.555,9.554c0,5.269,4.286,9.555,9.555,9.555c5.268,0,9.554-4.286,9.554-9.555
						C234.47,211.247,230.184,206.96,224.916,206.96z M224.916,221.069c-2.511,0-4.555-2.043-4.555-4.555s2.043-4.554,4.555-4.554
						s4.554,2.043,4.554,4.554S227.427,221.069,224.916,221.069z"/>
				</g>
			</g>
		</g>
		<g>
			<g>
				<path fill="#F5C84C" d="M169.609,6.162c-3.162-0.538-5.636-2.975-6.29-6.057c-0.001-0.14-0.282-0.138-0.281,0.002
					c-0.608,3.092-3.046,5.566-6.199,6.151c-0.14,0.001-0.139,0.212,0.002,0.281c3.162,0.538,5.636,2.975,6.29,6.057
					c0.001,0.14,0.282,0.138,0.281-0.002c0.608-3.092,3.046-5.566,6.199-6.151C169.751,6.371,169.749,6.161,169.609,6.162z"/>
			</g>
		</g>
		<g>
			<g>
				<path fill="#F5C84C" d="M51.8,161.182c-4.5-0.8-8-4.3-8.9-8.7c0-0.2-0.4-0.2-0.4,0c-0.9,4.4-4.4,7.9-8.9,8.7
					c-0.2,0-0.2,0.3,0,0.4c4.5,0.8,8,4.3,8.9,8.7c0,0.2,0.4,0.2,0.4,0c0.9-4.4,4.4-7.9,8.9-8.7C52,161.482,52,161.182,51.8,161.182z
					"/>
			</g>
		</g>
		<g>
			<g>
				<path fill="#87D147" d="M62.8,135.332c-1.878,0-3.4,1.522-3.4,3.4s1.522,3.4,3.4,3.4c1.878,0,3.4-1.522,3.4-3.4
					S64.678,135.332,62.8,135.332z"/>
			</g>
		</g>
		<g>
			<g>
				<path fill="#FC657E" d="M197.8,119.332c-1.878,0-3.4,1.522-3.4,3.4s1.522,3.4,3.4,3.4c1.878,0,3.4-1.522,3.4-3.4
					S199.678,119.332,197.8,119.332z"/>
			</g>
		</g>
	</g>
</g>
<g id="Layer_3">
</g>
<g id="Layer_4">
</g>
<g id="Layer_5">
</g>
<g id="Layer_6">
</g>
<g id="Layer_7">
</g>
<g id="Layer_8">
</g>
<g id="Layer_9">
</g>
<g id="Layer_10">
</g>
<g id="Layer_11">
</g>
<g id="Layer_12">
</g>
<g id="Layer_13">
</g>
<g id="Layer_14">
</g>
<g id="Layer_15">
</g>
<g id="Layer_16">
</g>
<g id="Layer_17">
</g>
<g id="Layer_18">
</g>
<g id="Layer_19">
</g>
<g id="Layer_20">
</g>
<g id="Layer_21">
</g>
<g id="Layer_22">
</g>
<g id="Layer_23">
</g>
<g id="Layer_24">
</g>
<g id="Layer_25">
</g>
<g id="Layer_26">
</g>
<g id="Layer_27">
</g>
<g id="Layer_28">
</g>
<g id="Layer_29">
</g>
<g id="Layer_30">
</g>
<g id="Layer_31">
</g>
<g id="Layer_32">
</g>
<g id="Layer_33">
</g>
<g id="Layer_34">
</g>
<g id="Layer_35">
</g>
<g id="Layer_36">
</g>
<g id="Layer_37">
</g>
<g id="Layer_38">
</g>
<g id="Layer_39">
</g>
<g id="Layer_40">
</g>
<g id="Layer_41">
</g>
<g id="Layer_42">
</g>
<g id="Layer_43">
</g>
<g id="Layer_44">
</g>
<g id="Layer_45">
</g>
<g id="Layer_46">
</g>
<g id="Layer_47">
</g>
<g id="Layer_48">
</g>
<g id="Layer_49">
</g>
<g id="Layer_50">
</g>
<g id="Layer_51">
</g>
<g id="Layer_52">
</g>
<g id="Layer_53">
</g>
<g id="Layer_54">
</g>
<g id="Layer_55">
</g>
<g id="Layer_56">
</g>
<g id="Layer_57">
</g>
<g id="Layer_58">
</g>
<g id="Layer_59">
</g>
<g id="Layer_60">
</g>
<g id="Layer_61">
</g>
<g id="Layer_62">
</g>
<g id="Layer_63">
</g>
<g id="Layer_64">
</g>
<g id="Layer_65">
</g>
<g id="Layer_66">
</g>
<g id="Layer_67">
</g>
<g id="Layer_68">
</g>
<g id="Layer_69">
</g>
<g id="Layer_70">
</g>
<g id="Layer_71">
</g>
<g id="Layer_72">
</g>
<g id="Layer_73">
</g>
<g id="Layer_74">
</g>
<g id="Layer_75">
</g>
<g id="Layer_76">
</g>
<g id="Layer_77">
</g>
<g id="Layer_78">
</g>
<g id="Layer_79">
</g>
<g id="Layer_80">
</g>
<g id="Layer_81">
</g>
<g id="Layer_82">
</g>
<g id="Layer_83">
</g>
<g id="Layer_84">
</g>
<g id="Layer_85">
</g>
<g id="Layer_86">
</g>
<g id="Layer_87">
</g>
<g id="Layer_88">
</g>
<g id="Layer_89">
</g>
<g id="Layer_90">
</g>
</svg>
