<svg id="icons" xmlns="http://www.w3.org/2000/svg" viewBox="0 0 64 64"><defs><style>.cls-1{fill:none;stroke:#000;stroke-linecap:round;stroke-linejoin:round;}</style></defs><title>onion_1</title><g id="onion_1"><path class="cls-1" d="M42.53871,18.28834c7.12633,3.06357,11.9809,9.23784,11.9809,16.87319,0,9.36981-7.31485,17.222-17.17483,19.3429h0C35.21442,57.49259,40.14441,60,40.14441,60,33.38571,60,32.17913,55.89953,32,55.07944,31.82093,55.89953,30.61435,60,23.86508,60c0,0,4.93-2.498,2.7902-5.49557-9.86-2.12093-17.17483-9.97309-17.17483-19.3429,0-7.85216,5.13736-14.16783,12.603-17.1277l.00943-.00943s6.119-3.682,2.06454-11.87356c0,0,5.62406,2.5683,5.62406,6.25726,0,0,.30226-6.27162,2.46453-8.4081,2.16227,2.16227,2.46453,8.50959,2.46453,8.50959,0-3.73348,5.62406-6.33279,5.62406-6.33279C36.28019,14.46724,42.53871,18.28834,42.53871,18.28834Z"/><path class="cls-1" d="M30.56759,52.1007h0V18.97647h0a17.87323,17.87323,0,0,0-13.10826,5.46344,15.2613,15.2613,0,0,0-4.19891,10.72162,16.67079,16.67079,0,0,0,5.83046,12.68291A17.1435,17.1435,0,0,0,30.56759,52.1007Z"/><line class="cls-1" x1="27.60546" y1="22.40403" x2="25.42762" y2="23.98791"/><line class="cls-1" x1="25.42762" y1="28.47685" x2="27.60546" y2="30.06074"/><line class="cls-1" x1="27.60546" y1="34.54968" x2="25.42762" y2="36.13357"/><line class="cls-1" x1="18.10739" y1="34.54968" x2="15.92955" y2="36.13357"/><line class="cls-1" x1="25.42762" y1="40.62251" x2="27.60546" y2="42.20639"/><line class="cls-1" x1="21.914" y1="27.53421" x2="19.73616" y2="29.1181"/><line class="cls-1" x1="20.73617" y1="34.54968" x2="22.91401" y2="36.13357"/><line class="cls-1" x1="21.914" y1="42.50779" x2="19.73616" y2="44.09168"/><line class="cls-1" x1="27.60546" y1="46.69533" x2="25.42762" y2="48.27922"/></g></svg>