<svg xmlns="http://www.w3.org/2000/svg" viewBox="0 0 64 64"><g id="_12-Dating_App" data-name="12-Dating App"><path d="M55,11V21a2.006,2.006,0,0,1-2,2H39l-4,4V23H29a2.006,2.006,0,0,1-2-2V3a2.006,2.006,0,0,1,2-2H53a2.006,2.006,0,0,1,2,2v8Z" style="fill:#fbdbe0"/><path d="M53,1H50a2.006,2.006,0,0,1,2,2V21a2.006,2.006,0,0,1-2,2h3a2.006,2.006,0,0,0,2-2V3A2.006,2.006,0,0,0,53,1Z" style="fill:#fcacbc"/><path d="M59,11V31H32v8H48l3,3v3H5V11H27V21a2.006,2.006,0,0,0,2,2h6v4l4-4H53a2.006,2.006,0,0,0,2-2V11Z" style="fill:#99e8fe"/><rect x="5" y="11" width="22" height="2" style="fill:#2ed0fa"/><path d="M35,29l4-4H53a2.006,2.006,0,0,0,2-2V21a2.006,2.006,0,0,1-2,2H39l-4,4Z" style="fill:#2ed0fa"/><path d="M27,23a2.006,2.006,0,0,0,2,2h6V23H29a2.006,2.006,0,0,1-2-2Z" style="fill:#2ed0fa"/><polygon points="32 39 32 41 48 41 51 44 51 42 48 39 32 39" style="fill:#2ed0fa"/><rect x="55" y="11" width="4" height="2" style="fill:#2ed0fa"/><path d="M63,9V51a2.006,2.006,0,0,1-2,2H3a2.006,2.006,0,0,1-2-2V9A2.006,2.006,0,0,1,3,7H27v4H5V45H59V11H55V7h6A2.006,2.006,0,0,1,63,9Z" style="fill:#ebebf5"/><path d="M61,51H3a2.006,2.006,0,0,1-2-2v2a2.006,2.006,0,0,0,2,2H61a2.006,2.006,0,0,0,2-2V49A2.006,2.006,0,0,1,61,51Z" style="fill:#d1d1e7"/><polygon points="59 31 59 45 51 45 51 42 51 39 56 39 56 31 59 31" style="fill:#99e8fe"/><polygon points="56 31 56 39 51 39 51 42 48 39 32 39 32 31 56 31" style="fill:#fbdbe0"/><rect x="54" y="31" width="2" height="8" style="fill:#fcacbc"/><path d="M46.41,59.59A1.955,1.955,0,0,1,47,61a2.006,2.006,0,0,1-2,2H19a2.015,2.015,0,0,1-2-2,2.006,2.006,0,0,1,2-2H45A1.955,1.955,0,0,1,46.41,59.59Z" style="fill:#9891c3"/><path d="M45,61H19a1.987,1.987,0,0,1-1.721-1A2,2,0,0,0,19,63H45a2.006,2.006,0,0,0,2-2,1.963,1.963,0,0,0-.279-1A2,2,0,0,1,45,61Z" style="fill:#897cac"/><polygon points="41 53 43 59 21 59 23 53 41 53" style="fill:#bfbfdd"/><path d="M25,23s0,6,2,9c0,0-4.39,0-5.77-1.65A3.915,3.915,0,0,0,22,28V24c-6,0-6-2-6-2a1.959,1.959,0,0,1-2,2v4a3.915,3.915,0,0,0,.77,2.35C13.39,32,9,32,9,32c2-3,2-9,2-9a7,7,0,0,1,14,0Z" style="fill:#966857"/><path d="M11,25a7,7,0,0,1,14,0,25.6,25.6,0,0,0,1.042,6.957C26.614,32,27,32,27,32c-2-3-2-9-2-9a7,7,0,0,0-14,0s0,6-2,9c0,0,.386,0,.958-.043A25.6,25.6,0,0,0,11,25Z" style="fill:#8d5c4d"/><path d="M21.23,30.35A3.856,3.856,0,0,1,20,31.46a3.974,3.974,0,0,1-4,0,4.225,4.225,0,0,1-.83-.63,3.637,3.637,0,0,1-.4-.48A3.915,3.915,0,0,1,14,28V24a1.959,1.959,0,0,0,2-2s0,2,6,2v4A3.915,3.915,0,0,1,21.23,30.35Z" style="fill:#ffcdbe"/><path d="M16,22a1.959,1.959,0,0,1-2,2v2a1.959,1.959,0,0,0,2-2s0,2,6,2V24C16,24,16,22,16,22Z" style="fill:#ffbeaa"/><path d="M28,45H24c0-2,1-2,1-4a4.38,4.38,0,0,0-1-3l3-2A55.273,55.273,0,0,1,28,45Z" style="fill:#faa68e"/><path d="M27,36l-3,2a4.38,4.38,0,0,1,1,3c0,2-1,2-1,4H12c0-2-1-2-1-4a4.38,4.38,0,0,1,1-3L9,36c2-2,7-2,7-2l2,2,2-2S25,34,27,36Z" style="fill:#ea5073"/><path d="M20,31.46V34l-2,2-2-2V31.46a3.974,3.974,0,0,0,4,0Z" style="fill:#faa68e"/><path d="M9,36l3,2a4.38,4.38,0,0,0-1,3c0,2,1,2,1,4H8A55.273,55.273,0,0,1,9,36Z" style="fill:#faa68e"/><path d="M51.137,12.75a2.341,2.341,0,0,1,0,3.63L47,20l-4.14-3.62a.435.435,0,0,1-.07-.06,2.344,2.344,0,0,1,.07-3.57,3.248,3.248,0,0,1,3.82-.24,2.428,2.428,0,0,1,.32.24A3.232,3.232,0,0,1,51.137,12.75Z" style="fill:#fcbcc5"/><path d="M51.138,12.75a3.231,3.231,0,0,0-3.07-.589,2.974,2.974,0,0,1,1.07.589,2.342,2.342,0,0,1,0,3.63L46,19.126,47,20l4.141-3.62A2.342,2.342,0,0,0,51.138,12.75Z" style="fill:#fc98b0"/><path d="M46.457,5.5a5.026,5.026,0,0,1,.22,7.01,3.248,3.248,0,0,0-3.82.24,2.344,2.344,0,0,0-.07,3.57L39,20l-7.46-7.25a5.042,5.042,0,0,1,0-7.25A5.388,5.388,0,0,1,39,5.5,5.388,5.388,0,0,1,46.457,5.5Z" style="fill:#ea5073"/><path d="M43.927,12.165a3.233,3.233,0,0,0-3.07.585,2.345,2.345,0,0,0-.07,3.57L38,19.029,39,20l3.79-3.68a2.345,2.345,0,0,1,.07-3.57A2.979,2.979,0,0,1,43.927,12.165Z" style="fill:#d83a5c"/><path d="M46.458,5.5a5.373,5.373,0,0,0-4.73-1.407A5.307,5.307,0,0,1,44.458,5.5a5.01,5.01,0,0,1,.59,6.513,3.166,3.166,0,0,1,1.629.5A5.026,5.026,0,0,0,46.458,5.5Z" style="fill:#d83a5c"/><path d="M61,54H3a3,3,0,0,1-3-3V9A3,3,0,0,1,3,6H27V8H3A1,1,0,0,0,2,9V51a1,1,0,0,0,1,1H61a1,1,0,0,0,1-1V9a1,1,0,0,0-1-1H55V6h6a3,3,0,0,1,3,3V51A3,3,0,0,1,61,54Z"/><path d="M45,64H19a3,3,0,0,1,0-6H45a3,3,0,0,1,0,6ZM19,60a1,1,0,0,0,0,2H45a1,1,0,0,0,0-2Z"/><path d="M43,60H21a1,1,0,0,1-.948-1.316l2-6A1,1,0,0,1,23,52H41a1,1,0,0,1,.948.684l2,6A1,1,0,0,1,43,60ZM22.388,58H41.612l-1.333-4H23.721Z"/><path d="M36,46H5a1,1,0,0,1-1-1V11a1,1,0,0,1,1-1H27v2H6V44H36Z"/><rect x="38" y="44" width="2" height="2"/><path d="M59,46H42V44H58V12H55V10h4a1,1,0,0,1,1,1V45A1,1,0,0,1,59,46Z"/><path d="M18,33a5.006,5.006,0,0,1-5-5V24a1,1,0,0,1,1-1,.915.915,0,0,0,1-1,1,1,0,0,1,1.991-.129C17.068,22,17.806,23,22,23a1,1,0,0,1,1,1v4A5.006,5.006,0,0,1,18,33Zm-3-8.167V28a3,3,0,0,0,6,0V24.98a10.083,10.083,0,0,1-4.654-1.035A2.972,2.972,0,0,1,15,24.833ZM17,22h0Zm0,0h0Zm0,0h0Z"/><path d="M27,33c-.938,0-5.68-.123-6.895-2.553l1.79-.894c.352.7,1.914,1.141,3.421,1.333A25.141,25.141,0,0,1,24,23a6,6,0,0,0-12,0,25.141,25.141,0,0,1-1.316,7.886c1.507-.192,3.069-.629,3.421-1.333l1.79.894C14.68,32.877,9.938,33,9,33a1,1,0,0,1-.832-1.555C9.975,28.735,10,23.057,10,23a8,8,0,0,1,16,0c0,.057.025,5.735,1.832,8.445A1,1,0,0,1,27,33Z"/><path d="M28,46H8a1,1,0,0,1-1-1,55.54,55.54,0,0,1,1.02-9.2,1,1,0,0,1,.273-.511c1.713-1.713,5.018-2.147,6.707-2.256V31h2v3a1,1,0,0,1-1,1c-1.218,0-4.562.283-6.081,1.516A57.317,57.317,0,0,0,9.02,44H26.98a57.317,57.317,0,0,0-.9-7.484C24.561,35.283,21.217,35,20,35a1,1,0,0,1-1-1V31h2v2.037c1.689.109,4.994.543,6.707,2.256a1,1,0,0,1,.273.511A55.54,55.54,0,0,1,29,45,1,1,0,0,1,28,46Z"/><path d="M18,37a1,1,0,0,1-.707-.293l-2-2,1.414-1.414L18,34.586l1.293-1.293,1.414,1.414-2,2A1,1,0,0,1,18,37Z"/><path d="M13,45H11a2.89,2.89,0,0,0-.395-1.553A4.865,4.865,0,0,1,10,41a5.969,5.969,0,0,1,.615-2.721l-2.17-1.447,1.11-1.664,3,2a1,1,0,0,1,.152,1.539A3.478,3.478,0,0,0,12,41a2.89,2.89,0,0,0,.395,1.553A4.865,4.865,0,0,1,13,45Z"/><path d="M25,45H23a4.865,4.865,0,0,1,.605-2.447A2.89,2.89,0,0,0,24,41a3.452,3.452,0,0,0-.719-2.3,1.02,1.02,0,0,1-.268-.8,1.006,1.006,0,0,1,.432-.723l3-2,1.11,1.664-2.17,1.447A5.969,5.969,0,0,1,26,41a4.865,4.865,0,0,1-.605,2.447A2.89,2.89,0,0,0,25,45Z"/><path d="M51,43a1,1,0,0,1-.707-.293L47.586,40H32a1,1,0,0,1-1-1V31a1,1,0,0,1,1-1H56a1,1,0,0,1,1,1v8a1,1,0,0,1-1,1H52v2a1,1,0,0,1-1,1ZM33,38H48a1,1,0,0,1,.707.293L50,39.586V39a1,1,0,0,1,1-1h4V32H33Z"/><rect x="35" y="34" width="2" height="2"/><rect x="39" y="34" width="14" height="2"/><path d="M35,28a1,1,0,0,1-1-1V24H29a3,3,0,0,1-3-3V3a3,3,0,0,1,3-3H53a3,3,0,0,1,3,3V21a3,3,0,0,1-3,3H39.414l-3.707,3.707A1,1,0,0,1,35,28ZM29,2a1,1,0,0,0-1,1V21a1,1,0,0,0,1,1h6a1,1,0,0,1,1,1v1.586l2.293-2.293A1,1,0,0,1,39,22H53a1,1,0,0,0,1-1V3a1,1,0,0,0-1-1Z"/><path d="M39,21a1,1,0,0,1-.7-.283l-7.46-7.25a6.043,6.043,0,0,1,0-8.683A6.409,6.409,0,0,1,39,4.2a6.411,6.411,0,0,1,8.156.585,6.021,6.021,0,0,1,.263,8.4L45.94,11.836a4.029,4.029,0,0,0-.178-5.62,4.387,4.387,0,0,0-6.066,0,1,1,0,0,1-1.392,0,4.389,4.389,0,0,0-6.068,0,4.045,4.045,0,0,0,0,5.817L39,18.606l3.094-3,1.392,1.434-3.79,3.68A.992.992,0,0,1,39,21Z"/><path d="M47,21a1,1,0,0,1-.658-.248L42.2,17.128a3.343,3.343,0,0,1,0-5.13,4.228,4.228,0,0,1,4.8-.467A4.225,4.225,0,0,1,51.8,12h0a3.343,3.343,0,0,1,0,5.13l-4.143,3.624A1,1,0,0,1,47,21Zm-2.071-8a2.148,2.148,0,0,0-1.413.5,1.347,1.347,0,0,0,0,2.12L47,18.671l3.484-3.048a1.347,1.347,0,0,0,0-2.12,2.242,2.242,0,0,0-2.826,0,1,1,0,0,1-1.316,0A2.15,2.15,0,0,0,44.929,13Z"/></g></svg>