<svg id="icons" xmlns="http://www.w3.org/2000/svg" viewBox="0 0 64 64"><defs><style>.cls-1{fill:none;stroke:#000;stroke-linecap:round;stroke-linejoin:round;}</style></defs><title>orange_1</title><g id="orange_1"><path class="cls-1" d="M33.0799,56.83793A21.38274,21.38274,0,1,1,24.189,15.53921h.01921c.38354-.0288.7864-.0384,1.17967-.0384.30686,0,.62332.0096.93029.0288h.0096A21.36616,21.36616,0,0,1,46.51674,33.599L22.18445,47.94708A20.23661,20.23661,0,0,0,33.0799,56.83793Z"/><path class="cls-1" d="M11.94055,25.80289A21.48832,21.48832,0,0,1,17.795,20.59942"/><path class="cls-1" d="M8.82735,31.3442a21.28625,21.28625,0,0,1,1.393-2.96453"/><path class="cls-1" d="M32.092,7.26219A1.47891,1.47891,0,0,1,31.1329,8.768c-1.58253.33566-4.60371,1.63042-4.80509,6.76163h-.0096c-.307-.0192-.62343-.0288-.93029-.0288-.39327,0-.79613.0096-1.17967.0384.20137-2.06208,1.266-8.84291,6.58887-9.79241C31.48764,5.62212,32.092,6.36064,32.092,7.26219Z"/><path class="cls-1" d="M17.08105,8.37363a5.64625,5.64625,0,0,0,6.934,6.934,5.64608,5.64608,0,0,0-6.934-6.934Z"/><line class="cls-1" x1="24.01505" y1="15.30763" x2="21.14466" y2="12.43724"/><path class="cls-1" d="M57.182,27.30729,46.51674,33.599,22.18445,47.94708A20.31518,20.31518,0,1,0,57.182,27.30729Z"/><path class="cls-1" d="M38.90156,55.46643l.34526-2.30185L41.02113,41.2238,44.25328,46.94,47.917,53.40435A17.20032,17.20032,0,0,1,38.90156,55.46643Z"/><path class="cls-1" d="M55.82627,44.59306A17.27788,17.27788,0,0,1,50.517,51.69374L43.26544,39.9008Z"/><path class="cls-1" d="M55.67035,31.14727a17.24863,17.24863,0,0,1,1.18433,9.80851l-12.68406-3.027Z"/><path class="cls-1" d="M39.038,40.95558,35.17114,54.89572a17.29285,17.29285,0,0,1-9.29066-6.18095Z"/></g></svg>