<svg id="Filled_stroke_cut_Ex" data-name="Filled stroke cut Ex" xmlns="http://www.w3.org/2000/svg" width="512" height="512" viewBox="0 0 512 512">
  <title>pastor- man- user- avatar- people- mask</title>
  <g>
    <path d="M56,488V373.142a30,30,0,0,1,19.91-28.253L168,312H344l92.09,32.889A30,30,0,0,1,456,373.142V488Z" style="fill: #333"/>
    <polygon points="281.6 344 320 296 304 216 208 216 192 296 230.4 344 281.6 344" style="fill: #ffd4cf"/>
    <rect x="216" y="304" width="80" height="56" style="fill: #faa231"/>
    <g>
      <path d="M308.378,237.892,304,216H208l-4.411,22.054,20.448,17.378A36.038,36.038,0,0,0,247.351,264H264.6a36.026,36.026,0,0,0,23.428-8.667Z" style="fill: #fbb8b0"/>
      <path d="M348,104H328V72H184v32H164a20,20,0,0,0-20,20v16a20,20,0,0,0,20,20h20v31.159a20,20,0,0,0,7.048,15.24L234.4,243.24A20,20,0,0,0,247.351,248H264.6a20,20,0,0,0,13.015-4.815l43.4-37.2A20,20,0,0,0,328,190.8V160h20a20,20,0,0,0,20-20V124A20,20,0,0,0,348,104Z" style="fill: #ffd4cf"/>
      <path d="M184.018,191.994a20,20,0,0,0,7.03,14.405L234.4,243.24A20,20,0,0,0,247.351,248H264.6a20,20,0,0,0,13.015-4.815l43.4-37.2a20,20,0,0,0,6.948-14L256,168Z" style="fill: #ebebeb"/>
    </g>
    <path d="M224,360l-56-48,24-48,32.993,27.494a30,30,0,0,1,9.641,31.289Z" style="fill: #4d4d4d"/>
    <path d="M288,360l56-48-24-48-32.993,27.494a30,30,0,0,0-9.641,31.289Z" style="fill: #4d4d4d"/>
    <polygon points="168 312 168 424 200 448 200 488 128 488 128 328 168 312" style="fill: #faa231"/>
    <polygon points="344 312 344 424 312 448 312 488 384 488 384 328 344 312" style="fill: #faa231"/>
    <path d="M336,96H256L232,72,208,96H176V64a40,40,0,0,1,40-40h80a40,40,0,0,1,40,40Z" style="fill: #faa231"/>
    <g>
      <rect x="216" y="120" width="16" height="24"/>
      <rect x="280" y="120" width="16" height="24"/>
      <polygon points="264 384 248 384 248 400 232 400 232 416 248 416 248 456 264 456 264 416 280 416 280 400 264 400 264 384"/>
      <path d="M438.78,337.355l-89.062-31.808-22.563-45.125a7.991,7.991,0,0,0-7-4.42l-6.615-33.075,12.678-10.866A27.966,27.966,0,0,0,336,190.8V168h12a28.032,28.032,0,0,0,28-28V124a28.032,28.032,0,0,0-28-28h-4V64a48.055,48.055,0,0,0-48-48V32a32.036,32.036,0,0,1,32,32V88H259.313L237.657,66.343a8,8,0,0,0-11.314,0L204.687,88H184V64a32.036,32.036,0,0,1,32-32h64V16H216a48.055,48.055,0,0,0-48,48V96h-4a28.032,28.032,0,0,0-28,28v16a28.032,28.032,0,0,0,28,28h12v23.159a27.951,27.951,0,0,0,9.868,21.335l12.543,10.66L191.841,256a7.991,7.991,0,0,0-7,4.42l-22.563,45.125L73.22,337.355A38.081,38.081,0,0,0,48,373.142V408H64V373.142a22.046,22.046,0,0,1,14.6-20.719L120,337.637V480H64V424H48v64a8,8,0,0,0,8,8H456a8,8,0,0,0,8-8V373.142A38.081,38.081,0,0,0,438.78,337.355ZM304,448v32H208V448a8,8,0,0,0-3.2-6.4L176,420V329.394l42.794,36.68A8,8,0,0,0,224,368h64a8,8,0,0,0,5.206-1.926L336,329.394V420l-28.8,21.6A8,8,0,0,0,304,448ZM242.326,324.98A37.924,37.924,0,0,0,243.7,312h24.6a37.924,37.924,0,0,0,1.375,12.98l7.72,27.02H234.606Zm91.725-14.989-41.786,35.817-7.206-25.223a22.013,22.013,0,0,1,7.069-22.945l25.234-21.028ZM348,112a12.013,12.013,0,0,1,12,12v16a12.013,12.013,0,0,1-12,12H336V112Zm-140-8a8,8,0,0,0,5.657-2.343L232,83.314l18.343,18.343A8,8,0,0,0,256,104h64v76.9l-61.47-20.49a7.992,7.992,0,0,0-5.06,0L192,180.9V104Zm-44,48a12.013,12.013,0,0,1-12-12V124a12.013,12.013,0,0,1,12-12h12v40Zm29.641,45.219L256,176.433l62.179,20.726a12.043,12.043,0,0,1-2.369,2.753l-43.4,37.2A12.008,12.008,0,0,1,264.6,240H247.351a12.011,12.011,0,0,1-7.772-2.856L196.229,200.3A11.993,11.993,0,0,1,193.641,197.219Zm35.577,52.117A28.029,28.029,0,0,0,247.351,256H264.6a28.016,28.016,0,0,0,18.221-6.741l16.792-14.392,6.122,30.606-23.851,19.876A37.921,37.921,0,0,0,273.046,296H238.954a37.921,37.921,0,0,0-8.84-10.651l-23.851-19.876,6.094-30.467Zm-34.58,27.276,25.234,21.029a22.011,22.011,0,0,1,7.069,22.944l-7.206,25.223-41.786-35.817ZM136,480V331.923l24-8.571V424a8,8,0,0,0,3.2,6.4L192,452v28Zm184,0V452l28.8-21.6A8,8,0,0,0,352,424V323.352l24,8.572V480Zm128,0H392V337.638l41.4,14.785A22.046,22.046,0,0,1,448,373.142Z"/>
    </g>
  </g>
</svg>
