<svg id="icons" xmlns="http://www.w3.org/2000/svg" viewBox="0 0 64 64"><defs><style>.cls-1{fill:none;stroke:#000;stroke-linecap:round;stroke-linejoin:round;}</style></defs><title>pea</title><g id="pea"><path class="cls-1" d="M36.87057,43.76c-6.00927,6.00927-18.08721,15.69142-26.38336,6.36567a2.8,2.8,0,0,1,.6633-4.28668c5.94-3.52438,20.34438-13.88962,29.41274-35.7289"/><path class="cls-1" d="M40.56416,10.11083h0C51.10659,13.19508,55.722,24.054,53.808,35.67418c0,0-5.28542,29.16376-20.67206,23.62648a2.77652,2.77652,0,0,1-1.37069-4.02845C35.19659,49.3364,42.68928,33.38369,40.56416,10.11083Z"/><path class="cls-1" d="M41.80045,10.51979A15.33007,15.33007,0,0,0,38.347,4.87715a3.1578,3.1578,0,0,0-3.94689-.33879l5.87717,6.25238"/><circle class="cls-1" cx="20.52454" cy="47.04267" r="3.55657"/><circle class="cls-1" cx="29.37671" cy="40.24221" r="3.55657"/><circle class="cls-1" cx="36.01567" cy="32.45397" r="3.55657"/><path class="cls-1" d="M40.91964,19.67339a3.43222,3.43222,0,0,0-2.01959.99,3.55223,3.55223,0,0,0,0,5.02917,3.59565,3.59565,0,0,0,1.6236.9306"/><path class="cls-1" d="M39.49794,55.24227a6.67228,6.67228,0,0,1-1.56848.57977"/><path class="cls-1" d="M44.96645,49.57669a17.78912,17.78912,0,0,1-3.7938,4.55525"/><path class="cls-1" d="M45.69537,16.84209s3.7596,3.50117,3.672,7.28992"/></g></svg>