<svg id="icons" xmlns="http://www.w3.org/2000/svg" viewBox="0 0 64 64"><defs><style>.cls-1{fill:none;stroke:#000;stroke-linecap:round;stroke-linejoin:round;}</style></defs><title>pear_1</title><g id="pear_1"><path class="cls-1" d="M48.4703,34.94877c0,20.00283-25.05162,24.22611-31.66486,24.98436a8.61869,8.61869,0,0,1-6.06608-1.44936,7.54227,7.54227,0,0,1-3.17709-5.05826c-.03838-.2112-.05759-.40317-.07675-.61431a6.45331,6.45331,0,0,1,3.06186-5.76859,11.17148,11.17148,0,0,0,2.49554-2.12125,11.705,11.705,0,0,0,2.68751-5.8837v-.00961a12.50651,12.50651,0,0,0,.13439-1.81409,11.96876,11.96876,0,0,0-.096-1.55493,13.86072,13.86072,0,0,1,.75825-7.16035,16.62142,16.62142,0,0,1,26.05942-6.2389A15.86044,15.86044,0,0,1,44.391,24.04505,16.54716,16.54716,0,0,1,48.4703,34.94877Z"/><path class="cls-1" d="M29.85,53.7812c-1.46823.65225-2.95419,1.2218-4.42878,1.73843"/><path class="cls-1" d="M41.50969,45.2398a28.69445,28.69445,0,0,1-9.26878,7.39077"/><path class="cls-1" d="M22.73959,25.23225a16.55609,16.55609,0,0,1,9.51142-4.454"/><path class="cls-1" d="M56.52323,18.71018h0a1.209,1.209,0,0,1-1.27688,1.21316A14.11008,14.11008,0,0,0,44.391,24.04505a15.86044,15.86044,0,0,0-1.80449-1.78527,15.40849,15.40849,0,0,1,12.82884-4.76489A1.23036,1.23036,0,0,1,56.52323,18.71018Z"/><path class="cls-1" d="M37.27279,4.2293a.94725.94725,0,0,0-.72749.72748,10.84629,10.84629,0,0,0,13.432,12.70447A10.84628,10.84628,0,0,0,37.27279,4.2293Z"/><line class="cls-1" x1="49.97726" y1="17.66125" x2="44.97721" y2="12.6612"/></g></svg>