<svg xmlns="http://www.w3.org/2000/svg" viewBox="0 0 64 64"><g id="_15-Perfume" data-name="15-Perfume"><path d="M59,24.81A6.9,6.9,0,0,1,61,30c0,3.31-1.79,6-4,6-1.91,0-3.5-2-3.9-4.67A8.242,8.242,0,0,1,53,30a6.9,6.9,0,0,1,2-5.19,2.874,2.874,0,0,1,4,0Z" style="fill:#fc8aa3"/><path d="M59,24.81a3.391,3.391,0,0,0-.886-.568A7.982,7.982,0,0,1,59,28c0,3.31-1.79,6-4,6a2.782,2.782,0,0,1-1.112-.256A3.718,3.718,0,0,0,57,36c2.21,0,4-2.69,4-6A6.9,6.9,0,0,0,59,24.81Z" style="fill:#fc708d"/><rect x="30" y="10" width="3" height="3" style="fill:#897cac"/><path d="M59,19v5.81a2.874,2.874,0,0,0-4,0V19a6,6,0,0,0-6-6H39V9H49A10,10,0,0,1,59,19Z" style="fill:#897cac"/><path d="M49,9H47A10,10,0,0,1,57,19v5a3,3,0,0,1,2,.81V19A10,10,0,0,0,49,9Z" style="fill:#7f709a"/><polygon points="39 13 39 15 33 15 33 13 33 10 33 7 39 7 39 9 39 13" style="fill:#aeacd5"/><path d="M35,11V7H33v8h6V13H37a2,2,0,0,1-2-2Z" style="fill:#9891c3"/><path d="M40,15v4.54a15.085,15.085,0,0,0-8,0V15h8Z" style="fill:#897cac"/><path d="M28,10v4l-8.81,5.07A4.107,4.107,0,0,1,14.93,23a4.261,4.261,0,0,1-3.97-2.52,4.374,4.374,0,0,1-1.15.16,4.1,4.1,0,0,1-4.25-3.93,3.72,3.72,0,0,1,.17-1.05A3.959,3.959,0,0,1,3,12,3.959,3.959,0,0,1,5.73,8.34a3.72,3.72,0,0,1-.17-1.05A4.1,4.1,0,0,1,9.81,3.36a4.374,4.374,0,0,1,1.15.16A4.261,4.261,0,0,1,14.93,1a4.107,4.107,0,0,1,4.26,3.93Z" style="fill:#99e8fe"/><path d="M13.96,20.48a4.374,4.374,0,0,1-1.15.16,4.1,4.1,0,0,1-4.25-3.93,3.72,3.72,0,0,1,.17-1.05A3.959,3.959,0,0,1,6,12,3.959,3.959,0,0,1,8.73,8.34a3.72,3.72,0,0,1-.17-1.05,4.1,4.1,0,0,1,4.25-3.93,4.374,4.374,0,0,1,1.15.16,4.136,4.136,0,0,1,2.467-2.257A4.527,4.527,0,0,0,14.93,1a4.261,4.261,0,0,0-3.97,2.52,4.374,4.374,0,0,0-1.15-.16A4.1,4.1,0,0,0,5.56,7.29a3.72,3.72,0,0,0,.17,1.05A3.959,3.959,0,0,0,3,12a3.959,3.959,0,0,0,2.73,3.66,3.72,3.72,0,0,0-.17,1.05,4.1,4.1,0,0,0,4.25,3.93,4.374,4.374,0,0,0,1.15-.16A4.261,4.261,0,0,0,14.93,23a4.527,4.527,0,0,0,1.5-.263A4.136,4.136,0,0,1,13.96,20.48Z" style="fill:#2ed0fa"/><path d="M21,34H38.48v3a3.688,3.688,0,0,0-2.48.94,3.762,3.762,0,0,0-4.97,0,3.01,3.01,0,0,0,0,4.53L36,47v3H23.21Z" style="fill:#e1e2ef"/><path d="M51,34,48.79,50H36V47l4.97-4.53a3.01,3.01,0,0,0,0-4.53A3.732,3.732,0,0,0,38.48,37V34Z" style="fill:#e1e2ef"/><polygon points="48 34 45.79 50 48.79 50 51 34 48 34" style="fill:#d1d1e7"/><polygon points="47.55 59 47 63 25 63 24.45 59 47.55 59" style="fill:#ea5073"/><polygon points="44.55 59 44 63 47 63 47.55 59 44.55 59" style="fill:#d83a5c"/><path d="M40.97,37.94a3.01,3.01,0,0,1,0,4.53L36,47l-4.97-4.53a3.01,3.01,0,0,1,0-4.53,3.762,3.762,0,0,1,4.97,0A3.688,3.688,0,0,1,38.48,37,3.732,3.732,0,0,1,40.97,37.94Z" style="fill:#ea5073"/><path d="M40.97,37.94A3.732,3.732,0,0,0,38.48,37a3.818,3.818,0,0,0-1,.149,3.66,3.66,0,0,1,1.49.791,3.01,3.01,0,0,1,0,4.53L35,46.089,36,47l4.97-4.53A3.01,3.01,0,0,0,40.97,37.94Z" style="fill:#d83a5c"/><polygon points="48.79 50 47.55 59 24.45 59 23.21 50 36 50 48.79 50" style="fill:#fc8aa3"/><polygon points="45.79 50 44.55 59 47.55 59 48.79 50 45.79 50" style="fill:#fc708d"/><path d="M32,19.54A15.032,15.032,0,0,1,50.83,31.72,15.484,15.484,0,0,1,51,34H21A15.007,15.007,0,0,1,32,19.54Z" style="fill:#fc8aa3"/><path d="M50.83,31.72A14.99,14.99,0,0,0,36,19c-.506,0-1.005.034-1.5.083a15.086,15.086,0,0,1,2.5.457A15.072,15.072,0,0,1,47.83,31.72,15.484,15.484,0,0,1,48,34h3A15.484,15.484,0,0,0,50.83,31.72Z" style="fill:#fc708d"/><path d="M18.142,9.751a3.232,3.232,0,0,0-4.142,0,3.232,3.232,0,0,0-4.142,0,2.342,2.342,0,0,0,0,3.624L14,17l4.142-3.625A2.342,2.342,0,0,0,18.142,9.751Z" style="fill:#ea5073"/><path d="M18.142,9.751a3.232,3.232,0,0,0-3.071-.59,2.989,2.989,0,0,1,1.071.59,2.342,2.342,0,0,1,0,3.624L13,16.125,14,17l4.142-3.625A2.342,2.342,0,0,0,18.142,9.751Z" style="fill:#d83a5c"/><path d="M47,64H25a1,1,0,0,1-.991-.863l-4-29A1.039,1.039,0,0,1,20,34a16,16,0,0,1,32,0,1.039,1.039,0,0,1-.009.137l-4,29A1,1,0,0,1,47,64ZM25.872,62H46.128L50,33.933a14,14,0,0,0-28,0Z"/><rect x="24" y="58" width="24" height="2"/><rect x="21" y="33" width="30" height="2"/><rect x="23" y="49" width="26" height="2"/><path d="M36,48a1,1,0,0,1-.674-.261l-4.971-4.531a4.009,4.009,0,0,1,0-6.009,4.807,4.807,0,0,1,5.645-.5,4.808,4.808,0,0,1,5.645.5,4.009,4.009,0,0,1,0,6.009l-4.971,4.531A1,1,0,0,1,36,48ZM33.515,37.995a2.688,2.688,0,0,0-1.812.683,2.007,2.007,0,0,0,0,3.051L36,45.646l4.3-3.917a2.007,2.007,0,0,0,0-3.051,2.745,2.745,0,0,0-3.623,0,1,1,0,0,1-1.348,0A2.686,2.686,0,0,0,33.515,37.995Z"/><path d="M41,20H39V16H33v4H31V15a1,1,0,0,1,1-1h8a1,1,0,0,1,1,1Z"/><path d="M40,15H38V8H34v7H32V7a1,1,0,0,1,1-1h6a1,1,0,0,1,1,1Z"/><path d="M33,14H30a1,1,0,0,1-1-1V10a1,1,0,0,1,1-1h3v2H31v1h2Z"/><path d="M57,37c-2.8,0-5-3.075-5-7s2.2-7,5-7,5,3.075,5,7S59.8,37,57,37Zm0-12c-1.626,0-3,2.29-3,5s1.374,5,3,5,3-2.29,3-5S58.626,25,57,25Z"/><path d="M60,25H58V19a9.011,9.011,0,0,0-9-9H39V8H49A11.013,11.013,0,0,1,60,19Z"/><path d="M56,25H54V19a5.006,5.006,0,0,0-5-5H39V12H49a7.008,7.008,0,0,1,7,7Z"/><path d="M14.926,24a5.292,5.292,0,0,1-4.5-2.4,4.857,4.857,0,0,1-.608.039,5.108,5.108,0,0,1-5.259-4.929,4.07,4.07,0,0,1,.028-.478,4.764,4.764,0,0,1,0-8.472,4.07,4.07,0,0,1-.028-.478A5.108,5.108,0,0,1,9.815,2.357a4.857,4.857,0,0,1,.608.039,5.292,5.292,0,0,1,4.5-2.4,5.16,5.16,0,0,1,5.22,4.328l8.353,4.8-1,1.734L18.687,5.8a1,1,0,0,1-.5-.866A3.111,3.111,0,0,0,14.926,2a3.28,3.28,0,0,0-3.043,1.9,1,1,0,0,1-1.174.582,3.51,3.51,0,0,0-.894-.13A3.111,3.111,0,0,0,6.556,7.286a2.619,2.619,0,0,0,.132.765,1,1,0,0,1-.621,1.234A2.934,2.934,0,0,0,4,12a2.934,2.934,0,0,0,2.067,2.715,1,1,0,0,1,.621,1.234,2.619,2.619,0,0,0-.132.765,3.111,3.111,0,0,0,3.259,2.929,3.51,3.51,0,0,0,.894-.13,1,1,0,0,1,1.174.582A3.28,3.28,0,0,0,14.926,22a3.111,3.111,0,0,0,3.259-2.929,1,1,0,0,1,.5-.866L27.5,13.133l1,1.734-8.353,4.805A5.16,5.16,0,0,1,14.926,24Z"/><path d="M14,18a1,1,0,0,1-.659-.248L9.2,14.128A3.343,3.343,0,0,1,9.2,9,4.226,4.226,0,0,1,14,8.531,4.226,4.226,0,0,1,18.8,9h0a3.343,3.343,0,0,1,0,5.13l-4.142,3.624A1,1,0,0,1,14,18Zm-2.071-8a2.146,2.146,0,0,0-1.412.5,1.345,1.345,0,0,0,0,2.12L14,15.671l3.483-3.048a1.345,1.345,0,0,0,0-2.12h0a2.239,2.239,0,0,0-2.825,0,1,1,0,0,1-1.316,0A2.152,2.152,0,0,0,11.929,10Z"/><rect x="12" y="33" width="6" height="2"/><rect x="15" y="26.172" width="2" height="5.657" transform="translate(-15.82 19.808) rotate(-45)"/><rect x="13.172" y="38" width="5.657" height="2" transform="translate(-22.891 22.737) rotate(-45)"/></g></svg>