<svg id="Filled_stroke_cut_Ex_Revise" data-name="Filled stroke cut Ex Revise" xmlns="http://www.w3.org/2000/svg" width="512" height="512" viewBox="0 0 512 512">
  <title>pharaoh- sarcophagus- spooky- character- cosplay- halloween- avatar- horror</title>
  <g>
    <g>
      <path d="M56,488V428.091A30,30,0,0,1,74.578,400.35L184,352H328l109.422,48.35A30,30,0,0,1,456,428.091V488Z" style="fill: #fdbf44"/>
      <path d="M375.791,440h-243.2c-53.906,0-92.383-52.229-76.406-103.712L96,208H408l43.421,125.921C469.335,385.871,430.743,440,375.791,440Z" style="fill: #57cee6"/>
      <path d="M216,312l19.981,73.262A20,20,0,0,0,255.276,400h1.448a20,20,0,0,0,19.3-14.738L296,312Z" style="fill: #fdbf44"/>
      <path d="M256,48,370.006,83.627a30,30,0,0,1,19.142,18.1l54.208,144.554A40,40,0,0,1,423.791,296.1l-12.9,6.451a40,40,0,0,0-21.745,30.372L372.718,453.405A40,40,0,0,1,333.084,488H312l-8-280H208l-8,280H178.916a40,40,0,0,1-39.634-34.6L122.854,332.927a40,40,0,0,0-21.745-30.372l-12.9-6.451a40,40,0,0,1-19.565-49.822l54.208-144.554a30,30,0,0,1,19.142-18.1Z" style="fill: #fdbf44"/>
      <path d="M88.209,296.1l12.9,6.45a40,40,0,0,1,21.745,30.373l4.153,30.456,77.232-23.764,2.575-90.115L71.667,280.692A39.862,39.862,0,0,0,88.209,296.1Z" style="fill: #333"/>
      <path d="M139.282,453.405A40,40,0,0,0,178.916,488H200l2.364-82.756L136.186,430.7Z" style="fill: #333"/>
      <path d="M175.959,73.013,141.994,83.627a30,30,0,0,0-19.142,18.1L104,152l112,56h2.909Z" style="fill: #333"/>
      <path d="M423.459,296.1l-12.9,6.45a40,40,0,0,0-21.744,30.373l-4.153,30.456-77.233-23.764L304.853,249.5,440,280.692A39.86,39.86,0,0,1,423.459,296.1Z" style="fill: #333"/>
      <path d="M372.385,453.405A40,40,0,0,1,332.752,488H311.667L309.3,405.244,375.481,430.7Z" style="fill: #333"/>
      <path d="M335.709,73.013l33.965,10.614a30,30,0,0,1,19.141,18.1L407.667,152l-112,56h-2.909Z" style="fill: #333"/>
      <path d="M332.344,176H179.649a10,10,0,0,0-9.884,11.515l13.1,85.516a20,20,0,0,0,6.818,12.211l44.712,38A20,20,0,0,0,247.351,328H264.6a20,20,0,0,0,13.015-4.815l44.758-38.364a20,20,0,0,0,6.752-12.144l13.1-85.156A10,10,0,0,0,332.344,176Z" style="fill: #ffd4cf"/>
      <rect x="232" y="24" width="48" height="72" rx="20" ry="20" style="fill: #57cee6"/>
      <path d="M235.981,385.262A20,20,0,0,0,255.276,400h1.448a20,20,0,0,0,19.3-14.738L282.909,360H229.091Z" style="fill: #333"/>
    </g>
    <g>
      <path d="M453.324,401.679a86.885,86.885,0,0,0,6.412-68.087l-15.257,4.816a72.023,72.023,0,0,1-60.71,93.163l13.3-97.563a31.977,31.977,0,0,1,17.4-24.3l12.9-6.45q2.179-1.09,4.2-2.367l7.488,21.715,15.126-5.216-9.777-28.352a47.9,47.9,0,0,0,6.44-45.566L396.639,98.918a37.762,37.762,0,0,0-24.246-22.927L288,49.619V44a28.032,28.032,0,0,0-28-28h-8a28.032,28.032,0,0,0-28,28v5.619L139.607,75.991a37.761,37.761,0,0,0-24.246,22.928L84.509,181.191l14.982,5.618,8.879-23.68,53.677,26.839,9.282,60.566L75.9,270.983a31.917,31.917,0,0,1,.236-21.892l17.356-46.282-14.982-5.618L61.153,243.474A47.885,47.885,0,0,0,64.131,283.7L48.546,333.917a87.044,87.044,0,0,0,7.919,70.26A37.938,37.938,0,0,0,48,428.091V488a8,8,0,0,0,8,8H456a8,8,0,0,0,8-8V428.091A37.994,37.994,0,0,0,453.324,401.679Zm-317.87-35.562L196,347.953l-1.531,53.578-51.548,19.331ZM332.344,184a2,2,0,0,1,1.977,2.3l-13.1,85.157a12,12,0,0,1-4.052,7.286l-44.757,38.364A12.006,12.006,0,0,1,264.6,320H247.351a12.02,12.02,0,0,1-7.771-2.855l-44.713-38a12,12,0,0,1-4.09-7.326l-13.1-85.516a2,2,0,0,1,1.977-2.3ZM274.617,360H237.383l-8.422-30.883.258.22A28.03,28.03,0,0,0,247.351,336H264.6a28.023,28.023,0,0,0,18.222-6.74l.231-.2Zm-4.364,16-1.952,7.158A12.026,12.026,0,0,1,256.724,392h-1.448a12.026,12.026,0,0,1-11.577-8.842L241.747,376Zm-41.991,11.367A28.062,28.062,0,0,0,255.276,408h1.448a28.062,28.062,0,0,0,27.014-20.633l15.735-57.7L302.4,432H209.6l2.924-102.33ZM209.146,448h93.708l.914,32H208.232ZM316,347.953l60.544,18.164-7.465,54.745-51.548-19.331ZM407.313,295.4a47.969,47.969,0,0,0-26.093,36.447l-2.485,18.222L315.52,331.1l-.833-29.157L327.581,290.9a28.012,28.012,0,0,0,9.452-17l1.159-7.53,87.867,18.829a32.256,32.256,0,0,1-5.846,3.755ZM436.1,270.983l-95.472-20.458,9.315-60.553,53.686-26.843,32.235,85.962A31.917,31.917,0,0,1,436.1,270.983ZM381.657,104.536l16.324,43.529-52.113,26.057A17.981,17.981,0,0,0,332.344,168H314.831L341,82.945l26.618,8.318A21.861,21.861,0,0,1,381.657,104.536ZM240,44a12.013,12.013,0,0,1,12-12h8a12.013,12.013,0,0,1,12,12V76a12.013,12.013,0,0,1-12,12h-8a12.013,12.013,0,0,1-12-12Zm12,60h8a28.032,28.032,0,0,0,28-28V66.381l37.731,11.791L298.092,168H213.908L186.269,78.172,224,66.381V76A28.032,28.032,0,0,0,252,104Zm-121.657.537A21.86,21.86,0,0,1,144.38,91.263L171,82.945,197.169,168h-17.52a17.976,17.976,0,0,0-13.522,6.12l-52.108-26.054Zm44.619,169.706a28,28,0,0,0,9.544,17.094l12.8,10.877-.825,28.89-63.215,18.964-2.485-18.222A47.969,47.969,0,0,0,104.687,295.4l-12.9-6.45a32.256,32.256,0,0,1-5.846-3.755l87.815-18.818ZM63.827,338.659l12.6-40.586a48.532,48.532,0,0,0,8.208,5.187l12.9,6.45a31.977,31.977,0,0,1,17.4,24.3l13.345,97.867a72.007,72.007,0,0,1-64.445-93.216ZM64,428.091a21.983,21.983,0,0,1,2.428-10.055,87,87,0,0,0,64.04,29.939l.887,6.51A47.762,47.762,0,0,0,143.21,480H64ZM178.916,480a32.117,32.117,0,0,1-31.707-27.677l-2.074-15.2L193.974,418.8,192.225,480Zm140.859,0-1.749-61.2,48.839,18.315-2.074,15.2A32.117,32.117,0,0,1,333.084,480ZM448,480H368.79a47.762,47.762,0,0,0,11.855-25.515l.909-6.667a86.917,86.917,0,0,0,62.51-32.288A22,22,0,0,1,448,428.091Z"/>
      <rect x="208" y="208" width="16" height="24"/>
      <rect x="288" y="208" width="16" height="24"/>
      <rect x="224" y="272" width="64" height="16"/>
    </g>
  </g>
</svg>
