<svg id="Filled_stroke_cut_Ex" data-name="Filled stroke cut Ex" xmlns="http://www.w3.org/2000/svg" width="512" height="512" viewBox="0 0 512 512">
  <title>pilot- man- user- avatar- people- mask</title>
  <g>
    <path d="M56,488V380.091A30,30,0,0,1,74.578,352.35L192,304H320l117.422,48.35A30,30,0,0,1,456,380.091V488Z" style="fill: #25b1fa"/>
    <polygon points="296 488 272 392 288 352 256 336 224 352 240 392 216 488 296 488" style="fill: #faa231"/>
    <polygon points="256 336 320 304 304 240 208 240 192 304 256 336" style="fill: #ffd4cf"/>
    <g>
      <path d="M304,240H208l-5.32,21.281,21.359,18.152A36.036,36.036,0,0,0,247.351,288H264.6a36.024,36.024,0,0,0,23.428-8.667l21.25-18.214Z" style="fill: #fbb8b0"/>
      <path d="M348,128H328V112H184v16H164a20,20,0,0,0-20,20v16a20,20,0,0,0,20,20h20v31.159a20,20,0,0,0,7.048,15.24L234.4,267.24A20,20,0,0,0,247.351,272H264.6a20,20,0,0,0,13.015-4.815l43.4-37.2A20,20,0,0,0,328,214.8V184h20a20,20,0,0,0,20-20V148A20,20,0,0,0,348,128Z" style="fill: #ffd4cf"/>
      <path d="M184.018,215.994a20,20,0,0,0,7.03,14.405L234.4,267.24A20,20,0,0,0,247.351,272H264.6a20,20,0,0,0,13.015-4.815l43.4-37.2a20,20,0,0,0,6.948-14L256,192Z" style="fill: #ebebeb"/>
    </g>
    <polygon points="184 304 256 336 192 368 184 304" style="fill: #ebebeb"/>
    <polygon points="184 304 136 328 112 368 152 384 136 416 192 488 216 488 184 304" style="fill: #127bb3"/>
    <polygon points="328 304 256 336 320 368 328 304" style="fill: #ebebeb"/>
    <polygon points="328 304 376 328 400 368 360 384 376 416 320 488 296 488 328 304" style="fill: #127bb3"/>
    <path d="M344,104l21.276-21.276a10,10,0,0,0-3.357-16.356L256,24,150.081,66.368a10,10,0,0,0-3.357,16.356L168,104Z" style="fill: #25b1fa"/>
    <path d="M323.589,138.482,256,152l-67.589-13.518a20,20,0,0,1-15.481-14.761L168,104H344l-4.93,19.721A20,20,0,0,1,323.589,138.482Z" style="fill: #127bb3"/>
    <g>
      <path d="M256,88a7.976,7.976,0,0,0,5.657-2.343L275.313,72H296V56H272a8,8,0,0,0-5.657,2.343L256,68.687,245.657,58.343A8,8,0,0,0,240,56H216V72h20.687l13.656,13.657A7.976,7.976,0,0,0,256,88Z"/>
      <path d="M464,432V380.091a37.876,37.876,0,0,0-23.532-35.138L326.781,298.141,313.9,246.621l12.32-10.56A27.968,27.968,0,0,0,336,214.8V192h12a28.032,28.032,0,0,0,28-28V148a28.031,28.031,0,0,0-27.754-28l2.978-11.913L370.933,88.38a18,18,0,0,0-6.042-29.44L258.971,16.572a8.008,8.008,0,0,0-5.942,0l-64,25.6,5.942,14.856L256,32.616,358.948,73.8a2,2,0,0,1,.672,3.272L340.687,96H171.313L152.38,77.067a2,2,0,0,1,.672-3.272l25.919-10.367-5.942-14.856L147.109,58.94a18,18,0,0,0-6.042,29.44l19.709,19.709L163.754,120A28.031,28.031,0,0,0,136,148v16a28.032,28.032,0,0,0,28,28h12v23.159a27.956,27.956,0,0,0,9.868,21.336l12.175,10.347-12.824,51.3L71.532,344.953A37.876,37.876,0,0,0,48,380.091V488a8,8,0,0,0,8,8H456a8,8,0,0,0,8-8V448H448v32H336.357l45.958-59.088a8,8,0,0,0,.84-8.49L371.043,388.2l31.928-12.771a8,8,0,0,0,3.889-11.544l-12.325-20.541,39.841,16.4A21.929,21.929,0,0,1,448,380.091V432ZM237.26,336.426,200.92,354.6l-6.47-37.2ZM219.8,363.043l11.81,29.526-14.2,56.823-13.624-78.339Zm14.361-7.18L256,344.944l21.838,10.919L266.583,384H245.417Zm58.037,7.18,16.019,8.01-13.624,78.339-14.2-56.823ZM311.08,354.6l-36.34-18.17L317.55,317.4ZM192,147.358l24,4.8V168h16V155.358l22.431,4.487a8.019,8.019,0,0,0,3.138,0L280,155.358V168h16V152.158l24-4.8V204.9l-61.47-20.49a7.992,7.992,0,0,0-5.06,0L192,204.9ZM360,148v16a12.013,12.013,0,0,1-12,12H336V141.589A28.286,28.286,0,0,0,341.792,136H348A12.013,12.013,0,0,1,360,148Zm-26.246-36-2.445,9.781a12.054,12.054,0,0,1-9.288,8.856L256,143.842l-66.021-13.205a12.054,12.054,0,0,1-9.288-8.856L178.246,112ZM164,176a12.013,12.013,0,0,1-12-12V148a12.013,12.013,0,0,1,12-12h6.208A28.286,28.286,0,0,0,176,141.589V176Zm29.641,45.219L256,200.433l62.178,20.726a11.994,11.994,0,0,1-2.369,2.753l-43.4,37.2A12.008,12.008,0,0,1,264.6,264H247.351a12.009,12.009,0,0,1-7.771-2.856L196.229,224.3A12.01,12.01,0,0,1,193.641,221.219Zm35.577,52.116A28.025,28.025,0,0,0,247.351,280H264.6a28.019,28.019,0,0,0,18.222-6.741l17.5-15,10.364,41.451L256,327.056l-54.683-27.342L211.646,258.4ZM64,380.091a21.929,21.929,0,0,1,13.624-20.343l39.841-16.4L105.14,363.884a8,8,0,0,0,3.889,11.544L140.957,388.2l-12.112,24.223a8,8,0,0,0,.84,8.49L175.643,480H64ZM195.913,480l-50.5-64.932,13.745-27.49a8,8,0,0,0-4.184-11.006l-31.278-12.511,18.554-30.923,36.114-14.87L206.489,480Zm30.333,0,20-80h19.508l20,80ZM388.307,364.061l-31.278,12.511a8,8,0,0,0-4.184,11.006l13.745,27.49L316.087,480H305.511l28.128-161.732,36.114,14.87Z"/>
    </g>
  </g>
</svg>
