<svg id="icons" xmlns="http://www.w3.org/2000/svg" viewBox="0 0 64 64"><defs><style>.cls-1{fill:none;stroke:#000;stroke-linecap:round;stroke-linejoin:round;}</style></defs><title>pineapple</title><g id="pineapple"><path class="cls-1" d="M46.73558,42.462c0,9.68541-6.57915,17.538-14.68253,17.538-8.113,0-14.69213-7.85255-14.69213-17.538,0-7.87186,4.34108-14.52821,10.32214-16.747.15432-.05787.30871-.1061.463-.15432a10.83506,10.83506,0,0,1,1.12866-.31836h.00966a12.27093,12.27093,0,0,1,2.6722-.31836h.09644c.15438,0,.29905,0,.45343.00965a12.72166,12.72166,0,0,1,2.42137.328c.06748.01925.14467.03857.2122.05788a13.67194,13.67194,0,0,1,1.35059.42446C42.42341,27.98211,46.73558,34.61915,46.73558,42.462Z"/><path class="cls-1" d="M27.32619,34.41411a1.861,1.861,0,0,1-3.722,0"/><path class="cls-1" d="M39.90073,34.41411a1.861,1.861,0,0,1-3.722,0"/><path class="cls-1" d="M27.32619,49.32837a1.861,1.861,0,1,1-3.722,0"/><path class="cls-1" d="M39.90073,49.32837a1.861,1.861,0,0,1-3.722,0"/><path class="cls-1" d="M25.39681,41.76913a1.861,1.861,0,0,1-3.722,0"/><path class="cls-1" d="M41.83011,41.76913a1.861,1.861,0,1,1-3.722,0"/><path class="cls-1" d="M33.91,37.051a1.861,1.861,0,1,1-3.722,0"/><path class="cls-1" d="M33.91,45.19968a1.861,1.861,0,1,1-3.722,0"/><path class="cls-1" d="M33.91,53.00785a1.861,1.861,0,1,1-3.722,0"/><path class="cls-1" d="M31.95661,24.924a12.27093,12.27093,0,0,0-2.6722.31836h-.00966a10.83506,10.83506,0,0,0-1.12866.31836c-2.22842-3.49215-6.03894-8.248-10.24495-8.248a18.63843,18.63843,0,0,1,8.19017.463A8.10282,8.10282,0,0,1,31.291,22.329v.00966c.1061.24117.19295.492.27974.75248A10.07256,10.07256,0,0,1,31.95661,24.924Z"/><path class="cls-1" d="M32.05305,21.21a.21192.21192,0,0,0-.02891.04823A8.70846,8.70846,0,0,0,31.291,22.329a8.10282,8.10282,0,0,0-5.19966-4.55328c-2.60467-3.72367-6.29937-7.63063-10.31249-7.63063,0,0,7.43774-1.46634,12.25151,1.97759v.00965a9.04308,9.04308,0,0,1,3.44393,4.8909v.00966a11.302,11.302,0,0,1,.40515,1.76539A15.66026,15.66026,0,0,1,32.05305,21.21Z"/><path class="cls-1" d="M48.22118,10.1451c-3.9745,0-7.64029,3.72367-10.27392,7.36049A10.83844,10.83844,0,0,0,32.05305,21.21a15.66026,15.66026,0,0,0-.17364-2.41171,9.97724,9.97724,0,0,1,.51132-2.08369v-.00966h.00959a8.938,8.938,0,0,1,2.85549-4.1771C40.1082,8.57266,48.22118,10.1451,48.22118,10.1451Z"/><path class="cls-1" d="M45.23068,17.3127c-4.10957,0-7.84289,4.54363-10.09063,8.00687-.06753-.01931-.14472-.03863-.2122-.05788a12.72166,12.72166,0,0,0-2.42137-.328c-.15438-.00965-.29905-.00965-.45343-.00965h-.09644a10.07256,10.07256,0,0,0-.3859-1.83287c-.08679-.26048-.17364-.51131-.27974-.75248V22.329l.58844-.85852.14473-.21226a.21192.21192,0,0,1,.02891-.04823,10.83844,10.83844,0,0,1,5.89421-3.70441A19.42665,19.42665,0,0,1,45.23068,17.3127Z"/><path class="cls-1" d="M35.51629,10.57916a7.19912,7.19912,0,0,1-.26048,1.94868,8.938,8.938,0,0,0-2.85549,4.1771h-.00959v.00966a9.97724,9.97724,0,0,0-.51132,2.08369,11.302,11.302,0,0,0-.40515-1.76539v-.00966a9.04308,9.04308,0,0,0-3.44393-4.8909v-.00965a8.13276,8.13276,0,0,1-.15432-1.54353A7.60258,7.60258,0,0,1,31.69612,4,7.60263,7.60263,0,0,1,35.51629,10.57916Z"/></g></svg>