<?xml version="1.0" encoding="utf-8"?>
<!-- Generator: Adobe Illustrator 24.0.0, SVG Export Plug-In . SVG Version: 6.00 Build 0)  -->
<svg version="1.1" xmlns="http://www.w3.org/2000/svg" xmlns:xlink="http://www.w3.org/1999/xlink" x="0px" y="0px"
	 viewBox="0 0 256 256" enable-background="new 0 0 256 256" xml:space="preserve">
<g id="Layer_1">
</g>
<g id="Layer_2">
</g>
<g id="Layer_3">
</g>
<g id="Layer_4">
</g>
<g id="Layer_5">
</g>
<g id="Layer_6">
</g>
<g id="Layer_7">
</g>
<g id="Layer_8">
</g>
<g id="Layer_9">
</g>
<g id="Layer_10">
</g>
<g id="Layer_11">
</g>
<g id="Layer_12">
</g>
<g id="Layer_13">
</g>
<g id="Layer_14">
</g>
<g id="Layer_15">
</g>
<g id="Layer_16">
</g>
<g id="Layer_17">
</g>
<g id="Layer_18">
</g>
<g id="Layer_19">
</g>
<g id="Layer_20">
</g>
<g id="Layer_21">
</g>
<g id="Layer_22">
</g>
<g id="Layer_23">
</g>
<g id="Layer_24">
</g>
<g id="Layer_25">
</g>
<g id="Layer_26">
</g>
<g id="Layer_27">
</g>
<g id="Layer_28">
</g>
<g id="Layer_29">
</g>
<g id="Layer_30">
</g>
<g id="Layer_31">
</g>
<g id="Layer_32">
</g>
<g id="Layer_33">
</g>
<g id="Layer_34">
</g>
<g id="Layer_35">
</g>
<g id="Layer_36">
</g>
<g id="Layer_37">
</g>
<g id="Layer_38">
</g>
<g id="Layer_39">
</g>
<g id="Layer_40">
</g>
<g id="Layer_41">
</g>
<g id="Layer_42">
</g>
<g id="Layer_43">
</g>
<g id="Layer_44">
</g>
<g id="Layer_45">
</g>
<g id="Layer_46">
</g>
<g id="Layer_47">
</g>
<g id="Layer_48">
	<g>
		<g>
			<g>
				<path fill="#5290DB" d="M193.911,33.014h-30.603c0.873,1.498,1.382,3.231,1.382,5.08c0,5.588-4.572,10.161-10.161,10.161
					h-52.408c-5.588,0-10.161-4.572-10.161-10.161c0-1.849,0.509-3.582,1.382-5.08H62.739c-9.637,0-17.478,7.84-17.478,17.477
					v185.531c0,9.637,7.841,17.478,17.478,17.478h131.172c9.637,0,17.477-7.84,17.477-17.478V50.491
					C211.388,40.854,203.547,33.014,193.911,33.014z"/>
			</g>
		</g>
		<g>
			<g>
				<path d="M193.911,30.514h-30.183c-1.381,0-2.5,1.119-2.5,2.5s1.119,2.5,2.5,2.5h30.183c8.259,0,14.978,6.719,14.978,14.978
					v185.531c0,8.259-6.719,14.978-14.978,14.978H62.739c-8.259,0-14.978-6.719-14.978-14.978V50.492
					c0-8.259,6.719-14.978,14.978-14.978h30.256c1.381,0,2.5-1.119,2.5-2.5s-1.119-2.5-2.5-2.5H62.739
					c-11.016,0-19.978,8.962-19.978,19.978v185.531c0,11.016,8.962,19.978,19.978,19.978h131.172
					c11.016,0,19.978-8.962,19.978-19.978V50.492C213.889,39.476,204.927,30.514,193.911,30.514z"/>
			</g>
		</g>
		<g>
			<g>
				<path fill="#EDF4FC" d="M193.911,43.175h-30.603c-1.764,3.028-5.04,5.08-8.779,5.08h-52.408c-3.739,0-7.015-2.052-8.779-5.08
					H63.744c-4.596,0-8.322,3.726-8.322,8.322v184.526c0,4.041,3.276,7.317,7.317,7.317h109.921l28.567-28.567V50.491
					C201.228,46.451,197.952,43.175,193.911,43.175z"/>
			</g>
		</g>
		<g>
			<g>
				<path fill="#C7D7E5" d="M179.841,214.772c-4.034,0-7.18,3.146-7.18,7.18v21.387l28.567-28.567H179.841z"/>
			</g>
		</g>
		<g>
			<g>
				<path d="M193.911,40.675h-30.235c-1.381,0-2.5,1.119-2.5,2.5s1.119,2.5,2.5,2.5h30.235c2.656,0,4.816,2.161,4.816,4.817v163.245
					l-27.103,27.103H62.739c-2.656,0-4.817-2.161-4.817-4.817V51.497c0-3.21,2.612-5.822,5.822-5.822h29.251
					c1.381,0,2.5-1.119,2.5-2.5s-1.119-2.5-2.5-2.5H63.744c-5.967,0-10.822,4.854-10.822,10.822v184.526
					c0,5.413,4.404,9.817,9.817,9.817H172.66c0.663,0,1.299-0.263,1.768-0.732l28.567-28.567c0.469-0.469,0.732-1.104,0.732-1.768
					V50.492C203.728,45.079,199.324,40.675,193.911,40.675z"/>
			</g>
		</g>
		<g>
			<g>
				<path d="M200.423,212.272h-20.582c-5.429,0-9.681,4.252-9.681,9.68v20.709c0,1.381,1.119,2.5,2.5,2.5s2.5-1.119,2.5-2.5v-20.709
					c0-2.668,2.013-4.68,4.681-4.68h20.582c1.381,0,2.5-1.119,2.5-2.5S201.804,212.272,200.423,212.272z"/>
			</g>
		</g>
		<g>
			<g>
				<path fill="#70D6F9" d="M110.176,194.75H78.824c-1.56,0-2.824,1.264-2.824,2.824v16.352c0,1.56,1.264,2.824,2.824,2.824h31.352
					c1.56,0,2.824-1.264,2.824-2.824v-16.352C113,196.014,111.736,194.75,110.176,194.75z"/>
			</g>
		</g>
		<g>
			<g>
				<path fill="#70D6F9" d="M143.176,153h-31.352c-1.56,0-2.824,1.264-2.824,2.824v16.352c0,1.56,1.264,2.824,2.824,2.824h31.352
					c1.56,0,2.824-1.264,2.824-2.824v-16.352C146,154.264,144.736,153,143.176,153z"/>
			</g>
		</g>
		<g>
			<g>
				<path fill="#70D6F9" d="M176.176,111h-31.352c-1.56,0-2.824,1.264-2.824,2.824v16.352c0,1.56,1.264,2.824,2.824,2.824h31.352
					c1.56,0,2.824-1.264,2.824-2.824v-16.352C179,112.264,177.736,111,176.176,111z"/>
			</g>
		</g>
		<g>
			<g>
				<path fill="#F5C84C" d="M173.609,85.26c1.226-1.195,0.549-3.277-1.145-3.523l-5.913-0.859c-0.673-0.098-1.254-0.52-1.555-1.13
					l-2.644-5.358c-0.758-1.535-2.947-1.535-3.704,0l-2.644,5.358c-0.301,0.61-0.882,1.032-1.555,1.13l-5.913,0.859
					c-1.694,0.246-2.37,2.328-1.145,3.523l4.279,4.171c0.487,0.474,0.709,1.158,0.594,1.828l-1.01,5.889
					c-0.289,1.687,1.482,2.974,2.997,2.177l5.289-2.781c0.602-0.316,1.32-0.316,1.922,0l5.289,2.781
					c1.515,0.796,3.286-0.49,2.997-2.177l-1.01-5.889c-0.115-0.67,0.107-1.354,0.594-1.828L173.609,85.26z"/>
			</g>
		</g>
		<g>
			<g>
				<path fill="#FCDD86" d="M154.529,27.934h-52.408c-5.588,0-10.161,4.572-10.161,10.161s4.572,10.161,10.161,10.161h52.408
					c5.588,0,10.161-4.572,10.161-10.161S160.117,27.934,154.529,27.934z"/>
			</g>
		</g>
		<g>
			<g>
				<path fill="#F5C84C" d="M143.093,17.773h-29.536c-4.172,0-7.586,3.414-7.586,7.585v2.575h44.707v-2.575
					C150.678,21.187,147.265,17.773,143.093,17.773z"/>
			</g>
		</g>
		<g>
			<g>
				<g>
					<path d="M154.528,25.434h-52.407c-6.981,0-12.661,5.68-12.661,12.661s5.68,12.661,12.661,12.661h52.407
						c6.981,0,12.661-5.68,12.661-12.661S161.51,25.434,154.528,25.434z M154.528,45.755h-52.407c-4.224,0-7.661-3.437-7.661-7.661
						s3.437-7.661,7.661-7.661h52.407c4.225,0,7.661,3.437,7.661,7.661S158.753,45.755,154.528,45.755z"/>
				</g>
			</g>
		</g>
		<g>
			<g>
				<path d="M143.093,15.273h-29.536c-5.561,0-10.085,4.524-10.085,10.085v2.242c0,1.381,1.119,2.5,2.5,2.5s2.5-1.119,2.5-2.5
					v-2.242c0-2.804,2.281-5.085,5.085-5.085h29.536c2.805,0,5.086,2.281,5.086,5.085v2.067c0,1.381,1.119,2.5,2.5,2.5
					s2.5-1.119,2.5-2.5v-2.067C153.179,19.797,148.654,15.273,143.093,15.273z"/>
			</g>
		</g>
		<g>
			<g>
				<path d="M128.325,3.08c-5.684,0-10.308,4.624-10.308,10.308v3.655c0,1.381,1.119,2.5,2.5,2.5s2.5-1.119,2.5-2.5v-3.655
					c0-2.927,2.381-5.308,5.308-5.308c2.926,0,5.307,2.381,5.307,5.308v3.581c0,1.381,1.119,2.5,2.5,2.5s2.5-1.119,2.5-2.5v-3.581
					C138.632,7.704,134.008,3.08,128.325,3.08z"/>
			</g>
		</g>
		<g>
			<g>
				<path d="M150.17,35.594h-43.69c-1.381,0-2.5,1.119-2.5,2.5s1.119,2.5,2.5,2.5h43.69c1.381,0,2.5-1.119,2.5-2.5
					S151.551,35.594,150.17,35.594z"/>
			</g>
		</g>
		<g>
			<g>
				<path fill="#F5C84C" d="M34.125,181.85c-4.5-0.8-8-4.3-8.9-8.7c0-0.2-0.4-0.2-0.4,0c-0.9,4.4-4.4,7.9-8.9,8.7
					c-0.2,0-0.2,0.3,0,0.4c4.5,0.8,8,4.3,8.9,8.7c0,0.2,0.4,0.2,0.4,0c0.9-4.4,4.4-7.9,8.9-8.7
					C34.325,182.15,34.325,181.85,34.125,181.85z"/>
			</g>
		</g>
		<g>
			<g>
				<path fill="#70D6F9" d="M172.935,6.21c-3.157-0.561-5.613-3.017-6.245-6.104c0-0.14-0.281-0.14-0.281,0
					c-0.631,3.087-3.087,5.543-6.245,6.104c-0.14,0-0.14,0.21,0,0.281c3.157,0.562,5.613,3.017,6.245,6.104
					c0,0.14,0.281,0.14,0.281,0c0.632-3.087,3.087-5.543,6.245-6.104C173.076,6.42,173.076,6.21,172.935,6.21z"/>
			</g>
		</g>
		<g>
			<g>
				<path fill="#87D147" d="M237.025,102.1h-2.3v-2.3c0-1.7-1.4-3.2-3.2-3.2c-1.8,0-3.2,1.4-3.2,3.2v2.3h-2.3
					c-1.7,0-3.2,1.4-3.2,3.2s1.4,3.2,3.2,3.2h2.3v2.3c0,1.7,1.4,3.2,3.2,3.2c1.8,0,3.2-1.4,3.2-3.2v-2.3h2.3c1.7,0,3.2-1.4,3.2-3.2
					S238.825,102.1,237.025,102.1z"/>
			</g>
		</g>
		<g>
			<g>
				<path fill="#FC657E" d="M30.125,209c-1.878,0-3.4,1.522-3.4,3.4c0,1.878,1.522,3.4,3.4,3.4s3.4-1.522,3.4-3.4
					C33.525,210.522,32.003,209,30.125,209z"/>
			</g>
		</g>
		<g>
			<g>
				<path fill="#F5C84C" d="M227.125,73c-1.878,0-3.4,1.522-3.4,3.4c0,1.878,1.522,3.4,3.4,3.4s3.4-1.522,3.4-3.4
					C230.525,74.522,229.003,73,227.125,73z"/>
			</g>
		</g>
		<g>
			<g>
				<g>
					<path d="M110.176,192.25H78.824c-2.936,0-5.324,2.389-5.324,5.324v16.352c0,2.936,2.389,5.324,5.324,5.324h31.352
						c2.936,0,5.324-2.389,5.324-5.324v-16.352C115.5,194.639,113.111,192.25,110.176,192.25z M110.5,213.926
						c0,0.179-0.146,0.324-0.324,0.324H78.824c-0.179,0-0.324-0.146-0.324-0.324v-16.352c0-0.179,0.146-0.324,0.324-0.324h31.352
						c0.179,0,0.324,0.146,0.324,0.324V213.926z"/>
				</g>
			</g>
		</g>
		<g>
			<g>
				<path d="M98.5,160.272H85.889c-3.863,0-6.889,2.907-6.889,6.617v19.424c0,1.381,1.119,2.5,2.5,2.5s2.5-1.119,2.5-2.5v-19.424
					c0-1.111,0.979-1.617,1.889-1.617H98.5c1.381,0,2.5-1.119,2.5-2.5S99.881,160.272,98.5,160.272z"/>
			</g>
		</g>
		<g>
			<g>
				<path d="M131.5,118.272h-12.611c-3.863,0-6.889,2.907-6.889,6.617v19.424c0,1.381,1.119,2.5,2.5,2.5s2.5-1.119,2.5-2.5v-19.424
					c0-1.111,0.979-1.617,1.889-1.617H131.5c1.381,0,2.5-1.119,2.5-2.5S132.881,118.272,131.5,118.272z"/>
			</g>
		</g>
		<g>
			<g>
				<path d="M101.993,161.004l-6.85-6.85c-0.976-0.977-2.56-0.977-3.535,0c-0.977,0.976-0.977,2.559,0,3.535l5.082,5.082
					l-5.082,5.082c-0.977,0.976-0.977,2.559,0,3.535c0.488,0.488,1.128,0.732,1.768,0.732s1.28-0.244,1.768-0.732l6.85-6.85
					C102.969,163.563,102.969,161.98,101.993,161.004z"/>
			</g>
		</g>
		<g>
			<g>
				<path d="M134.993,119.004l-6.85-6.85c-0.977-0.976-2.559-0.976-3.536,0c-0.976,0.976-0.976,2.559,0,3.536l5.082,5.082
					l-5.082,5.082c-0.977,0.977-0.977,2.56,0,3.536c0.488,0.488,1.128,0.732,1.768,0.732s1.28-0.244,1.768-0.732l6.85-6.85
					c0.469-0.469,0.732-1.105,0.732-1.768S135.462,119.473,134.993,119.004z"/>
			</g>
		</g>
		<g>
			<g>
				<path d="M101.5,203.25h-14c-1.381,0-2.5,1.119-2.5,2.5s1.119,2.5,2.5,2.5h14c1.381,0,2.5-1.119,2.5-2.5
					S102.881,203.25,101.5,203.25z"/>
			</g>
		</g>
		<g>
			<g>
				<g>
					<path d="M143.176,150.5h-31.352c-2.936,0-5.324,2.389-5.324,5.324v16.352c0,2.936,2.389,5.324,5.324,5.324h31.352
						c2.936,0,5.324-2.389,5.324-5.324v-16.352C148.5,152.889,146.111,150.5,143.176,150.5z M143.5,172.176
						c0,0.179-0.146,0.324-0.324,0.324h-31.352c-0.179,0-0.324-0.146-0.324-0.324v-16.352c0-0.179,0.146-0.324,0.324-0.324h31.352
						c0.179,0,0.324,0.146,0.324,0.324V172.176z"/>
				</g>
			</g>
		</g>
		<g>
			<g>
				<path d="M134.5,161.5h-14c-1.381,0-2.5,1.119-2.5,2.5s1.119,2.5,2.5,2.5h14c1.381,0,2.5-1.119,2.5-2.5
					S135.881,161.5,134.5,161.5z"/>
			</g>
		</g>
		<g>
			<g>
				<g>
					<path d="M176.176,108.5h-31.352c-2.936,0-5.324,2.389-5.324,5.324v16.352c0,2.936,2.389,5.324,5.324,5.324h31.352
						c2.936,0,5.324-2.389,5.324-5.324v-16.352C181.5,110.889,179.111,108.5,176.176,108.5z M176.5,130.176
						c0,0.179-0.146,0.324-0.324,0.324h-31.352c-0.179,0-0.324-0.146-0.324-0.324v-16.352c0-0.179,0.146-0.324,0.324-0.324h31.352
						c0.179,0,0.324,0.146,0.324,0.324V130.176z"/>
				</g>
			</g>
		</g>
		<g>
			<g>
				<path d="M167.5,119.5h-14c-1.381,0-2.5,1.119-2.5,2.5s1.119,2.5,2.5,2.5h14c1.381,0,2.5-1.119,2.5-2.5
					S168.881,119.5,167.5,119.5z"/>
			</g>
		</g>
		<g>
			<g>
				<g>
					<path d="M176.51,82.372c-0.541-1.666-1.954-2.856-3.687-3.108l-5.687-0.827l-2.543-5.152c-0.774-1.57-2.343-2.546-4.094-2.546
						s-3.319,0.976-4.094,2.545l-2.543,5.153l-5.687,0.827c-1.732,0.252-3.146,1.442-3.687,3.108
						c-0.54,1.665-0.097,3.458,1.156,4.679l4.114,4.011l-0.971,5.663c-0.297,1.726,0.398,3.437,1.815,4.466
						c0.8,0.582,1.736,0.877,2.68,0.877c0.726,0,1.454-0.175,2.128-0.529l5.087-2.674l5.087,2.674
						c1.55,0.814,3.393,0.681,4.808-0.348c1.417-1.029,2.112-2.74,1.815-4.464l-0.971-5.664l4.114-4.011
						C176.607,85.829,177.05,84.036,176.51,82.372z M167.585,87.641c-1.076,1.049-1.567,2.56-1.313,4.041l0.86,5.021l-4.508-2.37
						c-1.332-0.7-2.919-0.7-4.249,0l-4.509,2.37l0.86-5.02c0.255-1.481-0.236-2.992-1.313-4.042l-3.647-3.556l5.04-0.732
						c1.488-0.216,2.773-1.15,3.438-2.498l2.254-4.567l2.254,4.567c0.665,1.348,1.95,2.282,3.438,2.498l5.04,0.732L167.585,87.641z
						 M171.863,83.47L171.863,83.47C171.863,83.47,171.863,83.47,171.863,83.47C171.863,83.47,171.863,83.47,171.863,83.47z"/>
				</g>
			</g>
		</g>
		<g>
			<g>
				<path d="M114.288,94.666H78.357c-1.381,0-2.5,1.119-2.5,2.5s1.119,2.5,2.5,2.5h35.931c1.381,0,2.5-1.119,2.5-2.5
					S115.668,94.666,114.288,94.666z"/>
			</g>
		</g>
		<g>
			<g>
				<path d="M114.288,84.279H78.357c-1.381,0-2.5,1.119-2.5,2.5s1.119,2.5,2.5,2.5h35.931c1.381,0,2.5-1.119,2.5-2.5
					S115.668,84.279,114.288,84.279z"/>
			</g>
		</g>
		<g>
			<g>
				<path d="M107.102,105.053H78.357c-1.381,0-2.5,1.119-2.5,2.5s1.119,2.5,2.5,2.5h28.745c1.381,0,2.5-1.119,2.5-2.5
					S108.482,105.053,107.102,105.053z"/>
			</g>
		</g>
	</g>
</g>
<g id="Layer_49">
</g>
<g id="Layer_50">
</g>
<g id="Layer_51">
</g>
<g id="Layer_52">
</g>
<g id="Layer_53">
</g>
<g id="Layer_54">
</g>
<g id="Layer_55">
</g>
<g id="Layer_56">
</g>
<g id="Layer_57">
</g>
<g id="Layer_58">
</g>
<g id="Layer_59">
</g>
<g id="Layer_60">
</g>
<g id="Layer_61">
</g>
<g id="Layer_62">
</g>
<g id="Layer_63">
</g>
<g id="Layer_64">
</g>
<g id="Layer_65">
</g>
<g id="Layer_66">
</g>
<g id="Layer_67">
</g>
<g id="Layer_68">
</g>
<g id="Layer_69">
</g>
<g id="Layer_70">
</g>
<g id="Layer_71">
</g>
<g id="Layer_72">
</g>
<g id="Layer_73">
</g>
<g id="Layer_74">
</g>
<g id="Layer_75">
</g>
<g id="Layer_76">
</g>
<g id="Layer_77">
</g>
<g id="Layer_78">
</g>
<g id="Layer_79">
</g>
<g id="Layer_80">
</g>
<g id="Layer_81">
</g>
<g id="Layer_82">
</g>
<g id="Layer_83">
</g>
<g id="Layer_84">
</g>
<g id="Layer_85">
</g>
<g id="Layer_86">
</g>
<g id="Layer_87">
</g>
<g id="Layer_88">
</g>
<g id="Layer_89">
</g>
<g id="Layer_90">
</g>
</svg>
