<svg id="Filled_stroke_cut_Ex" data-name="Filled stroke cut Ex" xmlns="http://www.w3.org/2000/svg" width="512" height="512" viewBox="0 0 512 512">
  <title>police- man- user- avatar- people- mask</title>
  <path d="M56,489.951V382.042A30,30,0,0,1,74.581,354.3L192,305.951H320L437.426,354.3A30,30,0,0,1,456,382.042V489.951Z" style="fill: #2471d6"/>
  <polygon points="264 488 248 488 192 304 320 304 264 488" style="fill: #ebebeb"/>
  <polygon points="208 432 152 456 96 432 96 408 208 408 208 432" style="fill: #fac850"/>
  <g>
    <path d="M302.852,325.435,320,304l-16-64H208l-16,64,17.148,21.435A60,60,0,0,0,302.852,325.435Z" style="fill: #ffd4cf"/>
    <path d="M304,240H208l-5.32,21.281,21.357,18.15A36.034,36.034,0,0,0,247.351,288H264.6a36.022,36.022,0,0,0,23.428-8.667l21.25-18.214Z" style="fill: #fbb8b0"/>
    <path d="M348,128H328V112H184v16H164a20,20,0,0,0-20,20v16a20,20,0,0,0,20,20h20v31.159a20,20,0,0,0,7.048,15.24L234.4,267.24A20,20,0,0,0,247.351,272H264.6a20,20,0,0,0,13.015-4.815l43.4-37.2A20,20,0,0,0,328,214.8V184h20a20,20,0,0,0,20-20V148A20,20,0,0,0,348,128Z" style="fill: #ffd4cf"/>
    <path d="M184.018,215.994a20,20,0,0,0,7.03,14.405L234.4,267.24A20,20,0,0,0,247.351,272H264.6a20,20,0,0,0,13.015-4.815l43.4-37.2a20,20,0,0,0,6.948-14L256,192Z" style="fill: #ebebeb"/>
  </g>
  <polygon points="344 112 360 88 336 56 256 32 176 56 152 88 168 112 344 112" style="fill: #1448b0"/>
  <path d="M323.589,146.482,256,160l-67.589-13.518a20,20,0,0,1-15.481-14.761L168,112H344l-4.93,19.721A20,20,0,0,1,323.589,146.482Z" style="fill: #2471d6"/>
  <polygon points="208 40 221.359 88 256 112 290.641 88 304 40 256 24 208 40" style="fill: #fac850"/>
  <polygon points="304 432 360 456 416 432 416 408 304 408 304 432" style="fill: #fac850"/>
  <polygon points="192 312 136 368 184 384 168 416 224 488 248 488 192 312" style="fill: #1448b0"/>
  <polygon points="320 312 376 368 328 384 344 416 288 488 264 488 320 312" style="fill: #1448b0"/>
  <path d="M464,400V380.091a37.876,37.876,0,0,0-23.532-35.138L326.781,298.141,313.9,246.621l12.32-10.56A27.968,27.968,0,0,0,336,214.8V192h12a28.032,28.032,0,0,0,28-28V148a28.037,28.037,0,0,0-25.776-27.912l1.2-4.8,15.231-22.846A8,8,0,0,0,366.4,83.2l-24-32a8,8,0,0,0-4.1-2.863l-26.31-7.893a8,8,0,0,0-5.459-8.033l-48-16a7.992,7.992,0,0,0-5.06,0l-48,16a8,8,0,0,0-5.459,8.033L173.7,48.337a8,8,0,0,0-4.1,2.863l-24,32a8,8,0,0,0-.256,9.238l15.231,22.846,1.2,4.8A28.037,28.037,0,0,0,136,148v16a28.032,28.032,0,0,0,28,28h12v23.159a27.956,27.956,0,0,0,9.868,21.336l12.175,10.347-12.824,51.3-60.265,24.815,6.092,14.794,40.613-16.723-41.316,41.316a8,8,0,0,0,3.127,13.246l39.249,13.083L167.056,400H96a8,8,0,0,0-8,8v24a8,8,0,0,0,4.849,7.353l56,24a8,8,0,0,0,6.3,0l29.658-12.711L207.643,480H64V380.091a21.929,21.929,0,0,1,13.624-20.343L117.332,343.4,111.24,328.6l-39.708,16.35A37.876,37.876,0,0,0,48,380.091V488a8,8,0,0,0,8,8H456a8,8,0,0,0,8-8V416H448v64H304.357l22.834-29.358,29.658,12.711a8,8,0,0,0,6.3,0l56-24A8,8,0,0,0,424,432V408a8,8,0,0,0-8-8H344.944l-5.663-11.328,39.249-13.083a8,8,0,0,0,3.127-13.246l-41.316-41.316,94.035,38.721A21.929,21.929,0,0,1,448,380.091V400ZM253.85,480,204.794,325.825l6.428,5.624a68.219,68.219,0,0,0,89.556,0l6.428-5.624L258.15,480Zm79.9-360-2.445,9.781a12.054,12.054,0,0,1-9.288,8.856L256,151.842l-66.021-13.205a12.054,12.054,0,0,1-9.288-8.856L178.246,120ZM192,155.358l24,4.8V176h16V163.358l22.431,4.487a8.019,8.019,0,0,0,3.138,0L280,163.358V176h16V160.158l24-4.8V204.9l-61.47-20.49a7.992,7.992,0,0,0-5.06,0L192,204.9ZM360,148v16a12.013,12.013,0,0,1-12,12H336V149.589A28.144,28.144,0,0,0,346.135,136H348A12.013,12.013,0,0,1,360,148ZM298.348,90.145l9.527-34.23,23.305,6.991L350.2,88.272,339.719,104H281.6l13.6-9.424A8.006,8.006,0,0,0,298.348,90.145ZM256,32.433l38.253,12.751L283.709,83.07,256,102.268l-27.709-19.2L217.747,45.184ZM180.82,62.906l23.305-6.991,9.527,34.23a8.006,8.006,0,0,0,3.151,4.431l13.6,9.424H172.281L161.8,88.272ZM164,176a12.013,12.013,0,0,1-12-12V148a12.013,12.013,0,0,1,12-12h1.865A28.144,28.144,0,0,0,176,149.589V176Zm29.641,45.219L256,200.433l62.178,20.726a11.994,11.994,0,0,1-2.369,2.753l-43.4,37.2A12.008,12.008,0,0,1,264.6,264H247.351a12.009,12.009,0,0,1-7.771-2.856L196.229,224.3A12.01,12.01,0,0,1,193.641,221.219Zm35.577,52.116A28.025,28.025,0,0,0,247.351,280H264.6a28.019,28.019,0,0,0,18.222-6.741l17.5-15L311.053,301.2l-20.811,18.21a52.169,52.169,0,0,1-68.484,0L200.947,301.2l10.7-42.8ZM152,447.3l-48-20.571V416h56a8.007,8.007,0,0,0,1.685,4.912l12.97,16.675ZM227.913,480l-50.5-64.932,13.745-27.49a8,8,0,0,0-4.625-11.167L150.81,364.5l37.552-37.552L237.06,480Zm122.4-59.088A8,8,0,0,0,352,416h56v10.725L360,447.3l-22.655-9.709Zm-24.845-44.5a8,8,0,0,0-4.625,11.167l13.745,27.49L284.087,480H274.94l48.7-153.048L361.19,364.5Z"/>
</svg>
