<svg id="Filled_stroke_cut_Ex" data-name="Filled stroke cut Ex" xmlns="http://www.w3.org/2000/svg" width="512" height="512" viewBox="0 0 512 512">
  <title>prescription- data- medication- drugs- report</title>
  <g>
    <rect x="136" y="24" width="336" height="464" rx="10" ry="10" style="fill: #31cad0"/>
    <rect x="168" y="64" width="272" height="384" style="fill: #d6f4f6"/>
    <circle cx="304" cy="168" r="48" style="fill: #31cad0"/>
    <path d="M216,24H392a0,0,0,0,1,0,0V78a10,10,0,0,1-10,10H226a10,10,0,0,1-10-10V24A0,0,0,0,1,216,24Z" style="fill: #fdbf44"/>
  </g>
  <g>
    <rect x="40" y="200" width="176" height="64" rx="10" ry="10" style="fill: #fdbf44"/>
    <path d="M216,488H50a10,10,0,0,1-10-10V312l16-16V264H200v32l16,16Z" style="fill: #e64b30"/>
    <polygon points="176 376 144 376 144 344 112 344 112 376 80 376 80 408 112 408 112 440 144 440 144 408 176 408 176 376" style="fill: #fffcfc"/>
  </g>
  <g>
    <circle cx="248" cy="440" r="48" style="fill: #fdbf44"/>
    <g>
      <path d="M464,478a2,2,0,0,1-2,2H304v16H462a18.021,18.021,0,0,0,18-18V136.163H464Z"/>
      <path d="M462,16H146a18.021,18.021,0,0,0-18,18V176h16V34a2,2,0,0,1,2-2h62V56H168a8,8,0,0,0-8,8V176h16V72h32v6a18.021,18.021,0,0,0,18,18H382a18.021,18.021,0,0,0,18-18V72h32V440H320v16H440a8,8,0,0,0,8-8V64a8,8,0,0,0-8-8H400V32h62a2,2,0,0,1,2,2v86h16V34A18.021,18.021,0,0,0,462,16ZM384,78a2,2,0,0,1-2,2H226a2,2,0,0,1-2-2V32H384Z"/>
      <path d="M360,168a56,56,0,1,0-56,56A56.064,56.064,0,0,0,360,168Zm-96,0a40,40,0,1,1,40,40A40.045,40.045,0,0,1,264,168Z"/>
      <polygon points="312 192 312 176 328 176 328 160 312 160 312 144 296 144 296 160 280 160 280 176 296 176 296 192 312 192"/>
      <rect x="240" y="256" width="120" height="16"/>
      <rect x="376" y="256" width="40" height="16"/>
      <rect x="256" y="336" width="104" height="16"/>
      <rect x="376" y="336" width="40" height="16"/>
      <rect x="240" y="296" width="48" height="16"/>
      <rect x="304" y="296" width="112" height="16"/>
      <rect x="240" y="48" width="16" height="16"/>
      <rect x="352" y="48" width="16" height="16"/>
      <rect x="272" y="48" width="64" height="16"/>
      <rect x="304" y="376" width="112" height="16"/>
      <path d="M144,336H112a8,8,0,0,0-8,8v24H80a8,8,0,0,0-8,8v32a8,8,0,0,0,8,8h24v24a8,8,0,0,0,8,8h32a8,8,0,0,0,8-8V416h24a8,8,0,0,0,8-8V376a8,8,0,0,0-8-8H152V344A8,8,0,0,0,144,336Zm24,48v16H144a8,8,0,0,0-8,8v24H120V408a8,8,0,0,0-8-8H88V384h24a8,8,0,0,0,8-8V352h16v24a8,8,0,0,0,8,8Z"/>
      <path d="M248,384a55.661,55.661,0,0,0-24,5.408V312a8,8,0,0,0-2.343-5.657L208,292.687v-20.8A18.025,18.025,0,0,0,224,254V210a18.021,18.021,0,0,0-18-18H50a18.021,18.021,0,0,0-18,18v44a18.025,18.025,0,0,0,16,17.889v20.8L34.343,306.343A8,8,0,0,0,32,312v40H48V315.313L59.313,304H168V288H64V272H192v24a8,8,0,0,0,2.343,5.657L208,315.313v85.533A55.91,55.91,0,0,0,208.846,480H50a2,2,0,0,1-2-2V368H32V478a18.021,18.021,0,0,0,18,18H248a56,56,0,0,0,0-112ZM206,256H50a2,2,0,0,1-2-2V210a2,2,0,0,1,2-2H206a2,2,0,0,1,2,2v44A2,2,0,0,1,206,256Zm42,224a39.983,39.983,0,0,1-26.515-69.925l39.184,67.869A39.85,39.85,0,0,1,248,480Zm26.515-10.075-39.184-67.869a39.989,39.989,0,0,1,39.184,67.869Z"/>
    </g>
  </g>
</svg>
