<?xml version="1.0" encoding="utf-8"?>
<!-- Generator: Adobe Illustrator 24.0.0, SVG Export Plug-In . SVG Version: 6.00 Build 0)  -->
<svg version="1.1" xmlns="http://www.w3.org/2000/svg" xmlns:xlink="http://www.w3.org/1999/xlink" x="0px" y="0px"
	 viewBox="0 0 256 256" enable-background="new 0 0 256 256" xml:space="preserve">
<g id="Layer_1">
</g>
<g id="Layer_2">
</g>
<g id="Layer_3">
</g>
<g id="Layer_4">
</g>
<g id="Layer_5">
</g>
<g id="Layer_6">
</g>
<g id="Layer_7">
</g>
<g id="Layer_8">
</g>
<g id="Layer_9">
</g>
<g id="Layer_10">
</g>
<g id="Layer_11">
</g>
<g id="Layer_12">
</g>
<g id="Layer_13">
</g>
<g id="Layer_14">
</g>
<g id="Layer_15">
</g>
<g id="Layer_16">
</g>
<g id="Layer_17">
</g>
<g id="Layer_18">
</g>
<g id="Layer_19">
</g>
<g id="Layer_20">
</g>
<g id="Layer_21">
</g>
<g id="Layer_22">
</g>
<g id="Layer_23">
</g>
<g id="Layer_24">
</g>
<g id="Layer_25">
</g>
<g id="Layer_26">
</g>
<g id="Layer_27">
</g>
<g id="Layer_28">
</g>
<g id="Layer_29">
</g>
<g id="Layer_30">
</g>
<g id="Layer_31">
</g>
<g id="Layer_32">
</g>
<g id="Layer_33">
</g>
<g id="Layer_34">
</g>
<g id="Layer_35">
</g>
<g id="Layer_36">
</g>
<g id="Layer_37">
</g>
<g id="Layer_38">
</g>
<g id="Layer_39">
</g>
<g id="Layer_40">
</g>
<g id="Layer_41">
</g>
<g id="Layer_42">
</g>
<g id="Layer_43">
</g>
<g id="Layer_44">
</g>
<g id="Layer_45">
</g>
<g id="Layer_46">
</g>
<g id="Layer_47">
</g>
<g id="Layer_48">
</g>
<g id="Layer_49">
</g>
<g id="Layer_50">
</g>
<g id="Layer_51">
</g>
<g id="Layer_52">
</g>
<g id="Layer_53">
</g>
<g id="Layer_54">
</g>
<g id="Layer_55">
</g>
<g id="Layer_56">
</g>
<g id="Layer_57">
	<g>
		<g>
			<g>
				<path fill="#AD7753" d="M202.826,130.901H63.124c-1.498,0-2.713,1.215-2.713,2.713v113.825c0,3.348,2.714,6.061,6.061,6.061
					h133.006c3.348,0,6.061-2.714,6.061-6.061V133.614C205.539,132.115,204.325,130.901,202.826,130.901z"/>
			</g>
		</g>
		<g>
			<g>
				<path fill="#CE8F6B" d="M202.826,130.901H63.124c-1.498,0-2.713,1.215-2.713,2.713l13.696,25.379
					c0.803,1.489,2.358,2.417,4.05,2.417h109.637c1.691,0,3.247-0.928,4.05-2.417l13.696-25.379
					C205.539,132.115,204.325,130.901,202.826,130.901z"/>
			</g>
		</g>
		<g>
			<g>
				<path fill="#EDF4FC" d="M165.12,19.5H78.273c-2.512,0-4.548,2.036-4.548,4.547v106.854h118.5V46.605L165.12,19.5z"/>
			</g>
		</g>
		<g>
			<g>
				<path fill="#F5C84C" d="M101.151,60.761H93.06c-0.935,0-1.693,0.758-1.693,1.694v6.091c0,0.935,0.758,1.694,1.693,1.694h8.091
					c0.935,0,1.693-0.758,1.693-1.694v-6.091C102.845,61.519,102.086,60.761,101.151,60.761z"/>
			</g>
		</g>
		<g>
			<g>
				<path fill="#70D6F9" d="M172.89,60.761h-56.874c-0.935,0-1.693,0.758-1.693,1.694v6.091c0,0.935,0.758,1.694,1.693,1.694h56.874
					c0.935,0,1.693-0.758,1.693-1.694v-6.091C174.584,61.519,173.826,60.761,172.89,60.761z"/>
			</g>
		</g>
		<g>
			<g>
				<path fill="#F5C84C" d="M101.151,82.427H93.06c-0.935,0-1.693,0.758-1.693,1.694v6.091c0,0.935,0.758,1.693,1.693,1.693h8.091
					c0.935,0,1.693-0.758,1.693-1.693v-6.091C102.845,83.186,102.086,82.427,101.151,82.427z"/>
			</g>
		</g>
		<g>
			<g>
				<path fill="#70D6F9" d="M172.89,82.427h-56.874c-0.935,0-1.693,0.758-1.693,1.694v6.091c0,0.935,0.758,1.693,1.693,1.693h56.874
					c0.935,0,1.693-0.758,1.693-1.693v-6.091C174.584,83.186,173.826,82.427,172.89,82.427z"/>
			</g>
		</g>
		<g>
			<g>
				<path fill="#F5C84C" d="M101.151,104.094H93.06c-0.935,0-1.693,0.758-1.693,1.693v6.091c0,0.935,0.758,1.694,1.693,1.694h8.091
					c0.935,0,1.693-0.758,1.693-1.694v-6.091C102.845,104.852,102.086,104.094,101.151,104.094z"/>
			</g>
		</g>
		<g>
			<g>
				<path fill="#70D6F9" d="M172.89,104.094h-56.874c-0.935,0-1.693,0.758-1.693,1.693v6.091c0,0.935,0.758,1.694,1.693,1.694
					h56.874c0.935,0,1.693-0.758,1.693-1.694v-6.091C174.584,104.852,173.826,104.094,172.89,104.094z"/>
			</g>
		</g>
		<g>
			<g>
				<path fill="#C7D7E5" d="M165.12,19.5v22.558c0,2.511,2.036,4.547,4.548,4.547h22.558L165.12,19.5z"/>
			</g>
		</g>
		<g>
			<g>
				<path fill="#F5C84C" d="M48.075,141.396c-4.5-0.8-8-4.3-8.9-8.7c0-0.2-0.4-0.2-0.4,0c-0.9,4.4-4.4,7.9-8.9,8.7
					c-0.2,0-0.2,0.3,0,0.4c4.5,0.8,8,4.3,8.9,8.7c0,0.2,0.4,0.2,0.4,0c0.9-4.4,4.4-7.9,8.9-8.7
					C48.275,141.697,48.275,141.396,48.075,141.396z"/>
			</g>
		</g>
		<g>
			<g>
				<path fill="#FC657E" d="M183.885,6.21c-3.157-0.561-5.613-3.017-6.245-6.104c0-0.14-0.281-0.14-0.281,0
					c-0.632,3.087-3.087,5.543-6.245,6.104c-0.14,0-0.14,0.21,0,0.281c3.157,0.562,5.613,3.017,6.245,6.104
					c0,0.14,0.281,0.14,0.281,0c0.632-3.087,3.087-5.543,6.245-6.104C184.025,6.42,184.025,6.21,183.885,6.21z"/>
			</g>
		</g>
		<g>
			<g>
				<path fill="#87D147" d="M44.075,167c-1.878,0-3.4,1.522-3.4,3.4c0,1.878,1.522,3.4,3.4,3.4c1.878,0,3.4-1.522,3.4-3.4
					C47.475,168.522,45.953,167,44.075,167z"/>
			</g>
		</g>
		<g>
			<g>
				<path fill="#70D6F9" d="M223.057,102.374h-2.313v-2.247c0-1.661-1.408-3.126-3.219-3.126c-1.81,0-3.218,1.368-3.218,3.126v2.247
					h-2.313c-1.71,0-3.219,1.368-3.219,3.126c0,1.759,1.408,3.126,3.219,3.126h2.313v2.247c0,1.661,1.408,3.126,3.218,3.126
					c1.81,0,3.219-1.368,3.219-3.126v-2.247h2.313c1.71,0,3.218-1.368,3.218-3.126C226.275,103.741,224.867,102.374,223.057,102.374
					z"/>
			</g>
		</g>
		<g>
			<g>
				<path fill="#F5C84C" d="M211.075,78c-1.878,0-3.4,1.522-3.4,3.4c0,1.878,1.522,3.4,3.4,3.4c1.878,0,3.4-1.522,3.4-3.4
					C214.475,79.522,212.953,78,211.075,78z"/>
			</g>
		</g>
		<g>
			<g>
				<g>
					<path d="M202.826,128.4H63.124c-2.875,0-5.213,2.339-5.213,5.213v113.825c0,4.721,3.841,8.562,8.562,8.562h133.006
						c4.721,0,8.561-3.841,8.561-8.562V133.613C208.039,130.739,205.701,128.4,202.826,128.4z M203.039,247.438
						c0,1.964-1.598,3.562-3.561,3.562H66.472c-1.964,0-3.562-1.598-3.562-3.562V133.613c0-0.117,0.096-0.213,0.213-0.213h139.703
						c0.117,0,0.213,0.096,0.213,0.213V247.438z"/>
				</g>
			</g>
		</g>
		<g>
			<g>
				<g>
					<path d="M202.827,128.4H63.124c-2.875,0-5.213,2.339-5.213,5.213c0,0.414,0.103,0.822,0.3,1.188l13.696,25.378
						c1.241,2.301,3.636,3.73,6.25,3.73h109.637c2.614,0,5.009-1.43,6.25-3.729l13.696-25.379c0.197-0.365,0.3-0.773,0.3-1.188
						C208.039,130.739,205.701,128.4,202.827,128.4z M189.643,157.806c-0.367,0.681-1.076,1.104-1.85,1.104H78.157
						c-0.773,0-1.482-0.423-1.85-1.104L63.137,133.4h139.676L189.643,157.806z"/>
				</g>
			</g>
		</g>
		<g>
			<g>
				<g>
					<path d="M193.993,44.838l-27.105-27.105C166.418,17.264,165.783,17,165.12,17H78.272c-3.886,0-7.047,3.161-7.047,7.047V130.9
						c0,1.381,1.119,2.5,2.5,2.5h118.5c1.381,0,2.5-1.119,2.5-2.5V46.605C194.725,45.942,194.462,45.307,193.993,44.838z
						 M189.725,128.4h-113.5V24.047c0-1.129,0.918-2.047,2.047-2.047h85.812l25.641,25.641V128.4z"/>
				</g>
			</g>
		</g>
		<g>
			<g>
				<g>
					<path d="M101.151,58.261H93.06c-2.312,0-4.193,1.881-4.193,4.193v6.092c0,2.313,1.881,4.193,4.193,4.193h8.091
						c2.313,0,4.194-1.881,4.194-4.193v-6.092C105.345,60.142,103.463,58.261,101.151,58.261z M100.345,67.739h-6.479v-4.479h6.479
						V67.739z"/>
				</g>
			</g>
		</g>
		<g>
			<g>
				<g>
					<path d="M172.89,58.261h-56.874c-2.312,0-4.193,1.881-4.193,4.193v6.092c0,2.313,1.881,4.193,4.193,4.193h56.874
						c2.312,0,4.193-1.881,4.193-4.193v-6.092C177.083,60.142,175.202,58.261,172.89,58.261z M172.083,67.739h-55.261v-4.479h55.261
						V67.739z"/>
				</g>
			</g>
		</g>
		<g>
			<g>
				<g>
					<path d="M101.151,79.928H93.06c-2.312,0-4.193,1.881-4.193,4.193v6.091c0,2.313,1.881,4.194,4.193,4.194h8.091
						c2.313,0,4.194-1.882,4.194-4.194v-6.091C105.345,81.809,103.463,79.928,101.151,79.928z M100.345,89.406h-6.479v-4.479h6.479
						V89.406z"/>
				</g>
			</g>
		</g>
		<g>
			<g>
				<g>
					<path d="M172.89,79.928h-56.874c-2.312,0-4.193,1.881-4.193,4.193v6.091c0,2.313,1.881,4.194,4.193,4.194h56.874
						c2.312,0,4.193-1.882,4.193-4.194v-6.091C177.083,81.809,175.202,79.928,172.89,79.928z M172.083,89.406h-55.261v-4.479h55.261
						V89.406z"/>
				</g>
			</g>
		</g>
		<g>
			<g>
				<g>
					<path d="M101.151,101.594H93.06c-2.312,0-4.193,1.882-4.193,4.194v6.091c0,2.313,1.881,4.193,4.193,4.193h8.091
						c2.313,0,4.194-1.881,4.194-4.193v-6.091C105.345,103.476,103.463,101.594,101.151,101.594z M100.345,111.072h-6.479v-4.479
						h6.479V111.072z"/>
				</g>
			</g>
		</g>
		<g>
			<g>
				<g>
					<path d="M172.89,101.594h-56.874c-2.312,0-4.193,1.882-4.193,4.194v6.091c0,2.313,1.881,4.193,4.193,4.193h56.874
						c2.312,0,4.193-1.881,4.193-4.193v-6.091C177.083,103.476,175.202,101.594,172.89,101.594z M172.083,111.072h-55.261v-4.479
						h55.261V111.072z"/>
				</g>
			</g>
		</g>
		<g>
			<g>
				<g>
					<path d="M193.993,44.838l-27.105-27.105c-0.715-0.716-1.791-0.929-2.724-0.542c-0.935,0.387-1.543,1.299-1.543,2.31v22.558
						c0,3.886,3.162,7.048,7.047,7.048h22.558c1.011,0,1.923-0.609,2.31-1.543C194.922,46.628,194.708,45.553,193.993,44.838z
						 M169.667,44.105c-1.129,0-2.047-0.919-2.047-2.048V25.535l18.57,18.57H169.667z"/>
				</g>
			</g>
		</g>
	</g>
</g>
<g id="Layer_58">
</g>
<g id="Layer_59">
</g>
<g id="Layer_60">
</g>
<g id="Layer_61">
</g>
<g id="Layer_62">
</g>
<g id="Layer_63">
</g>
<g id="Layer_64">
</g>
<g id="Layer_65">
</g>
<g id="Layer_66">
</g>
<g id="Layer_67">
</g>
<g id="Layer_68">
</g>
<g id="Layer_69">
</g>
<g id="Layer_70">
</g>
<g id="Layer_71">
</g>
<g id="Layer_72">
</g>
<g id="Layer_73">
</g>
<g id="Layer_74">
</g>
<g id="Layer_75">
</g>
<g id="Layer_76">
</g>
<g id="Layer_77">
</g>
<g id="Layer_78">
</g>
<g id="Layer_79">
</g>
<g id="Layer_80">
</g>
<g id="Layer_81">
</g>
<g id="Layer_82">
</g>
<g id="Layer_83">
</g>
<g id="Layer_84">
</g>
<g id="Layer_85">
</g>
<g id="Layer_86">
</g>
<g id="Layer_87">
</g>
<g id="Layer_88">
</g>
<g id="Layer_89">
</g>
<g id="Layer_90">
</g>
</svg>
