<?xml version="1.0" encoding="utf-8"?>
<!-- Generator: Adobe Illustrator 24.0.0, SVG Export Plug-In . SVG Version: 6.00 Build 0)  -->
<svg version="1.1" xmlns="http://www.w3.org/2000/svg" xmlns:xlink="http://www.w3.org/1999/xlink" x="0px" y="0px"
	 viewBox="0 0 256 256" enable-background="new 0 0 256 256" xml:space="preserve">
<g id="Layer_1">
</g>
<g id="Layer_2">
</g>
<g id="Layer_3">
</g>
<g id="Layer_4">
</g>
<g id="Layer_5">
</g>
<g id="Layer_6">
</g>
<g id="Layer_7">
</g>
<g id="Layer_8">
</g>
<g id="Layer_9">
</g>
<g id="Layer_10">
</g>
<g id="Layer_11">
</g>
<g id="Layer_12">
</g>
<g id="Layer_13">
</g>
<g id="Layer_14">
</g>
<g id="Layer_15">
</g>
<g id="Layer_16">
</g>
<g id="Layer_17">
</g>
<g id="Layer_18">
</g>
<g id="Layer_19">
</g>
<g id="Layer_20">
</g>
<g id="Layer_21">
</g>
<g id="Layer_22">
</g>
<g id="Layer_23">
</g>
<g id="Layer_24">
</g>
<g id="Layer_25">
</g>
<g id="Layer_26">
</g>
<g id="Layer_27">
</g>
<g id="Layer_28">
</g>
<g id="Layer_29">
</g>
<g id="Layer_30">
</g>
<g id="Layer_31">
</g>
<g id="Layer_32">
</g>
<g id="Layer_33">
</g>
<g id="Layer_34">
</g>
<g id="Layer_35">
</g>
<g id="Layer_36">
</g>
<g id="Layer_37">
</g>
<g id="Layer_38">
</g>
<g id="Layer_39">
</g>
<g id="Layer_40">
</g>
<g id="Layer_41">
</g>
<g id="Layer_42">
</g>
<g id="Layer_43">
</g>
<g id="Layer_44">
</g>
<g id="Layer_45">
</g>
<g id="Layer_46">
</g>
<g id="Layer_47">
</g>
<g id="Layer_48">
</g>
<g id="Layer_49">
</g>
<g id="Layer_50">
</g>
<g id="Layer_51">
</g>
<g id="Layer_52">
	<g>
		<g>
			<g>
				<circle fill="#70D6F9" cx="188.206" cy="149.321" r="53.5"/>
			</g>
		</g>
		<g>
			<g>
				<path fill="#F5C84C" d="M187.563,111.695c-14.248,0.337-25.802,12.074-25.927,26.325c-0.079,9.024,4.343,17.016,11.154,21.875
					c2.994,2.136,4.753,5.604,4.753,9.282v0.001c0,1.777,1.44,3.217,3.217,3.217h14.891c1.777,0,3.217-1.44,3.217-3.217
					c0-3.663,1.731-7.135,4.717-9.257c6.772-4.814,11.191-12.721,11.191-21.663C214.777,123.37,202.532,111.342,187.563,111.695z"/>
			</g>
		</g>
		<g>
			<g>
				<path fill="#DAE6F1" d="M195.652,172.396h-14.891c-0.531,0-1.031-0.131-1.473-0.359v8.819c0,1.354,1.097,2.451,2.451,2.451
					h12.935c1.354,0,2.451-1.097,2.451-2.451v-8.819C196.683,172.265,196.183,172.396,195.652,172.396z"/>
			</g>
		</g>
		<g>
			<g>
				<path fill="#5290DB" d="M194.673,183.307h-12.935c-0.113,0-0.221-0.018-0.33-0.033v5.398c0,2.365,1.918,4.283,4.283,4.283h5.029
					c2.365,0,4.283-1.918,4.283-4.283v-5.398C194.894,183.289,194.786,183.307,194.673,183.307z"/>
			</g>
		</g>
		<g>
			<g>
				<path fill="#EDF4FC" d="M85.258,163.727L70.591,149.06c-1.085-1.084-2.843-1.084-3.928,0l-6.564,6.563
					c-1.085,1.085-1.085,2.843,0,3.928l14.667,14.667c1.085,1.085,2.843,1.085,3.928,0l6.563-6.563
					C86.343,166.57,86.343,164.811,85.258,163.727z"/>
			</g>
		</g>
		<g>
			<g>
				<path fill="#EDF4FC" d="M119.52,155.623l-6.563-6.563c-1.085-1.084-2.843-1.084-3.928,0l-14.667,14.667
					c-1.085,1.085-1.085,2.843,0,3.928l6.563,6.563c1.085,1.085,2.843,1.085,3.928,0l14.667-14.667
					C120.604,158.466,120.604,156.708,119.52,155.623z"/>
			</g>
		</g>
		<g>
			<g>
				<path fill="#F9D0B4" d="M106.593,143.361v-5.929c-5.031,2.634-10.739,4.134-16.783,4.134h0c-6.044,0-11.752-1.5-16.783-4.134
					v5.929c0,2.293-0.625,4.488-1.747,6.387l13.978,13.978c0.472,0.472,0.725,1.072,0.787,1.688h7.529
					c0.061-0.616,0.315-1.216,0.787-1.688l13.991-13.991C107.232,147.837,106.593,145.653,106.593,143.361z"/>
			</g>
		</g>
		<g>
			<g>
				<path fill="#EDF4FC" d="M165.317,224.138l-1.58-27.246c-13.363-6.888-23.456-19.227-27.315-34.089l-5.431-1.367
					c-3.653-0.919-7.222-2.135-10.681-3.617c-0.053,0.631-0.308,1.249-0.791,1.731l-14.667,14.667c-1.085,1.085-2.843,1.085-3.928,0
					l-6.563-6.563c-0.613-0.613-0.867-1.44-0.787-2.24h-7.529c0.08,0.8-0.174,1.627-0.787,2.24l-6.563,6.563
					c-1.085,1.085-2.843,1.085-3.928,0L60.1,159.551c-0.48-0.48-0.735-1.094-0.79-1.721c-3.451,1.477-7.014,2.684-10.657,3.601
					l-20.936,5.27c-6.101,1.536-10.495,6.86-10.844,13.142l-2.569,44.297c-0.176,3.042,2.243,5.605,5.29,5.605h140.435
					C163.074,229.744,165.493,227.18,165.317,224.138z"/>
			</g>
		</g>
		<g>
			<g>
				<path fill="#3A70BF" d="M63.025,162.476l-2.925-2.925c-0.48-0.48-0.735-1.094-0.79-1.721c-3.451,1.477-7.015,2.684-10.657,3.601
					l-20.936,5.27c-6.101,1.536-10.495,6.86-10.844,13.142l-2.569,44.297c-0.176,3.042,2.243,5.605,5.29,5.605h56.815
					L63.025,162.476z"/>
			</g>
		</g>
		<g>
			<g>
				<path fill="#3A70BF" d="M165.317,224.138l-1.58-27.246c-13.363-6.888-23.456-19.227-27.315-34.089l-5.431-1.367
					c-3.652-0.919-7.222-2.135-10.68-3.617c-0.053,0.631-0.308,1.249-0.791,1.731l-2.925,2.925l-13.383,67.268h56.815
					C163.074,229.744,165.493,227.18,165.317,224.138z"/>
			</g>
		</g>
		<g>
			<g>
				<path fill="#5290DB" d="M63.025,162.476l-2.925-2.925c-0.48-0.48-0.735-1.094-0.79-1.721c-2.772,1.187-5.619,2.189-8.519,3.017
					l-0.771,21.578c-0.024,0.685,0.296,1.337,0.854,1.735l7.98,5.7c0.897,0.641,1.124,1.878,0.512,2.795l-4.301,6.452
					c-0.37,0.556-0.446,1.258-0.202,1.879l11.293,28.757h10.252L63.025,162.476z"/>
			</g>
		</g>
		<g>
			<g>
				<path fill="#5290DB" d="M128.829,160.845c-2.9-0.83-5.746-1.838-8.518-3.026c-0.053,0.631-0.308,1.249-0.791,1.731l-2.925,2.925
					l-13.383,67.268h10.252l11.292-28.757c0.244-0.622,0.169-1.324-0.202-1.879l-4.302-6.452c-0.611-0.917-0.385-2.154,0.512-2.795
					l7.98-5.7c0.558-0.398,0.879-1.05,0.854-1.735L128.829,160.845z"/>
			</g>
		</g>
		<g>
			<g>
				<path fill="#FC657E" d="M94.361,167.654c-0.613-0.613-0.867-1.44-0.787-2.24h-7.529c0.08,0.8-0.174,1.627-0.787,2.24
					l-3.991,3.991l3.042,7.099h11l3.042-7.099L94.361,167.654z"/>
			</g>
		</g>
		<g>
			<g>
				<polygon fill="#FC657E" points="95.31,178.744 84.31,178.744 79.321,229.744 100.299,229.744 				"/>
			</g>
		</g>
		<g>
			<g>
				<path fill="#F9D0B4" d="M126.234,72.116c-0.021-1.033-0.848-1.885-1.881-1.915c-15.134-0.444-23.108-6.442-26.172-9.445
					c-0.836-0.82-2.187-0.733-2.916,0.183C81.96,77.672,62.331,75.311,55.731,73.929c-1.199-0.251-2.35,0.653-2.351,1.878v29.329
					c0,20.036,16.393,36.43,36.429,36.43h0c20.036,0,36.43-16.393,36.43-36.43V72.686C126.239,72.495,126.237,72.305,126.234,72.116
					z"/>
			</g>
		</g>
		<g>
			<g>
				<path fill="#754E34" d="M118.317,33.474c-3.882,0-7.511,1.097-10.63,2.967c-3.643-6.08-10.28-10.185-17.846-10.185H79.156
					c-20.682,0-37.603,16.921-37.603,37.603v16.849c2.602-2.082,5.898-3.335,9.49-3.335c0.796,0,1.575,0.067,2.338,0.185v-1.75
					c0.001-1.225,1.152-2.129,2.351-1.878c6.6,1.381,26.228,3.743,39.534-12.99c0.729-0.917,2.079-1.003,2.916-0.183
					c3.064,3.004,11.038,9.001,26.172,9.445c1.033,0.03,1.86,0.882,1.881,1.915c0.004,0.19,0.006,0.379,0.006,0.57v4.873
					c0.763-0.118,1.542-0.185,2.338-0.185c4.1,0,7.814,1.63,10.549,4.268V54.283C139.126,42.838,129.762,33.474,118.317,33.474z"/>
			</g>
		</g>
		<g>
			<g>
				<path fill="#F9D0B4" d="M128.577,77.373c-0.796,0-1.575,0.067-2.338,0.185v27.579c0,0.822-0.038,1.635-0.092,2.443
					c0.793,0.127,1.6,0.212,2.429,0.212c8.4,0,15.21-6.81,15.21-15.209S136.977,77.373,128.577,77.373z"/>
			</g>
		</g>
		<g>
			<g>
				<path fill="#F9D0B4" d="M53.38,105.137V77.558c-0.763-0.118-1.542-0.185-2.338-0.185c-8.4,0-15.21,6.81-15.21,15.21
					s6.81,15.209,15.21,15.209c0.829,0,1.636-0.084,2.43-0.212v-0.001C53.418,106.771,53.38,105.958,53.38,105.137z"/>
			</g>
		</g>
		<g>
			<g>
				<path d="M102.31,111.863c-1.059-0.887-2.635-0.748-3.522,0.31c-1.751,2.089-4.724,3.336-7.954,3.336s-6.203-1.247-7.954-3.336
					c-0.887-1.058-2.463-1.196-3.522-0.31c-1.058,0.887-1.197,2.464-0.31,3.522c2.689,3.208,7.096,5.123,11.786,5.123
					s9.097-1.915,11.786-5.123C103.507,114.327,103.368,112.75,102.31,111.863z"/>
			</g>
		</g>
		<g>
			<g>
				<ellipse transform="matrix(0.3827 -0.9239 0.9239 0.3827 -21.9111 156.2267)" cx="105.949" cy="94.51" rx="4.649" ry="4.649"/>
			</g>
		</g>
		<g>
			<g>
				<ellipse transform="matrix(0.3827 -0.9239 0.9239 0.3827 -41.1836 127.3834)" cx="74.73" cy="94.51" rx="4.649" ry="4.649"/>
			</g>
		</g>
		<g>
			<g>
				<path d="M140.532,189.41c-1.381,0-2.5,1.119-2.5,2.5v35.462c0,1.381,1.119,2.5,2.5,2.5s2.5-1.119,2.5-2.5V191.91
					C143.032,190.529,141.913,189.41,140.532,189.41z"/>
			</g>
		</g>
		<g>
			<g>
				<path d="M39.618,189.41c-1.381,0-2.5,1.119-2.5,2.5v35.462c0,1.381,1.119,2.5,2.5,2.5s2.5-1.119,2.5-2.5V191.91
					C42.118,190.529,40.999,189.41,39.618,189.41z"/>
			</g>
		</g>
		<g>
			<g>
				<g>
					<path d="M87.026,161.959L87.026,161.959l-14.667-14.667c-0.997-0.997-2.322-1.546-3.732-1.546s-2.735,0.549-3.731,1.546
						l-6.564,6.563c-2.057,2.058-2.057,5.405,0,7.463l14.667,14.667c0.997,0.997,2.322,1.546,3.732,1.546s2.735-0.549,3.731-1.546
						l6.564-6.563C89.083,167.364,89.083,164.017,87.026,161.959z M83.491,165.887l-6.564,6.563c-0.107,0.107-0.284,0.107-0.392,0
						l-14.667-14.667c-0.108-0.108-0.108-0.284,0-0.393l6.564-6.563c0.054-0.054,0.12-0.081,0.196-0.081s0.142,0.027,0.196,0.081
						l14.667,14.667C83.599,165.603,83.598,165.778,83.491,165.887z"/>
				</g>
			</g>
		</g>
		<g>
			<g>
				<g>
					<path d="M121.287,153.855l-6.563-6.563c-0.997-0.997-2.322-1.546-3.732-1.546s-2.735,0.549-3.731,1.546l-14.667,14.667
						c0,0,0,0,0,0c-2.057,2.058-2.057,5.405,0,7.463l6.563,6.563c0.997,0.997,2.322,1.546,3.732,1.546s2.735-0.549,3.731-1.546
						l14.667-14.667C123.344,159.261,123.344,155.913,121.287,153.855z M117.752,157.783l-14.667,14.667
						c-0.107,0.107-0.284,0.107-0.392,0l-6.563-6.563c-0.108-0.108-0.108-0.284,0-0.393l14.667-14.667
						c0.107-0.107,0.284-0.107,0.392,0l6.563,6.563C117.86,157.499,117.86,157.675,117.752,157.783z"/>
				</g>
			</g>
		</g>
		<g>
			<g>
				<path d="M110.295,148.092c-0.787-1.467-1.202-3.103-1.202-4.73v-5.326c0-1.381-1.119-2.5-2.5-2.5s-2.5,1.119-2.5,2.5v5.326
					c0,2.45,0.621,4.903,1.796,7.094c0.451,0.841,1.313,1.319,2.205,1.319c0.399,0,0.804-0.096,1.18-0.298
					C110.49,150.824,110.948,149.309,110.295,148.092z"/>
			</g>
		</g>
		<g>
			<g>
				<path d="M92.723,162.914h-6.185c-1.381,0-2.5,1.119-2.5,2.5s1.119,2.5,2.5,2.5h6.185c1.381,0,2.5-1.119,2.5-2.5
					S94.104,162.914,92.723,162.914z"/>
			</g>
		</g>
		<g>
			<g>
				<path d="M73.027,135.854c-1.381,0-2.5,1.119-2.5,2.5v5.007c0,1.61-0.394,3.217-1.139,4.646
					c-0.638,1.225-0.163,2.734,1.062,3.372c0.369,0.192,0.764,0.284,1.153,0.284c0.902,0,1.773-0.49,2.219-1.346
					c1.115-2.14,1.704-4.545,1.704-6.957v-5.007C75.527,136.974,74.408,135.854,73.027,135.854z"/>
			</g>
		</g>
		<g>
			<g>
				<path d="M136.559,160.26l-4.958-1.248c-3.165-0.797-6.332-1.845-9.414-3.115c-1.277-0.524-2.738,0.081-3.264,1.358
					c-0.526,1.276,0.082,2.738,1.359,3.265c3.303,1.361,6.701,2.486,10.098,3.342l4.958,1.248c0.205,0.051,0.41,0.076,0.612,0.076
					c1.119,0,2.137-0.757,2.422-1.891C138.71,161.956,137.898,160.598,136.559,160.26z"/>
			</g>
		</g>
		<g>
			<g>
				<path d="M167.812,223.994l-1.571-27.081c-0.079-1.379-1.274-2.439-2.64-2.352c-1.378,0.08-2.431,1.263-2.351,2.641l1.571,27.081
					c0.045,0.777-0.225,1.518-0.759,2.083c-0.534,0.566-1.257,0.878-2.035,0.878H19.593c-0.778,0-1.501-0.312-2.036-0.878
					s-0.803-1.306-0.758-2.083l2.569-44.303c0.291-5.217,3.891-9.58,8.958-10.855l20.936-5.27c3.561-0.896,7.094-2.075,10.503-3.504
					c1.273-0.533,1.874-1.998,1.34-3.271c-0.534-1.274-2-1.876-3.271-1.34c-3.179,1.332-6.474,2.431-9.792,3.266l-20.936,5.27
					c-7.202,1.813-12.317,8.014-12.729,15.422l-2.569,44.297c-0.124,2.134,0.646,4.249,2.113,5.804
					c1.467,1.555,3.535,2.446,5.672,2.446h140.435c2.137,0,4.205-0.892,5.671-2.446
					C167.166,228.244,167.937,226.128,167.812,223.994z"/>
			</g>
		</g>
		<g>
			<g>
				<g>
					<path d="M128.733,72.066c-0.047-2.378-1.939-4.295-4.307-4.364c-14.501-0.426-21.961-6.248-24.495-8.731
						c-0.902-0.885-2.138-1.354-3.4-1.27c-1.26,0.077-2.435,0.69-3.223,1.683C81.092,74.746,63.319,72.965,56.244,71.482
						c-1.322-0.274-2.68,0.054-3.729,0.904c-1.038,0.843-1.633,2.089-1.634,3.445v29.305c0,21.466,17.464,38.93,38.93,38.93
						s38.929-17.464,38.929-38.93V72.686C128.739,72.478,128.737,72.271,128.733,72.066z M123.739,105.137
						c0,18.709-15.221,33.93-33.929,33.93c-18.709,0-33.93-15.221-33.93-33.93V76.509c6.902,1.324,27.113,3.393,40.976-13.561
						c3.833,3.588,12.118,9.173,26.883,9.733V105.137z"/>
				</g>
			</g>
		</g>
		<g>
			<g>
				<path d="M118.317,30.975c-3.383,0-6.734,0.756-9.813,2.202c-4.384-5.863-11.337-9.421-18.662-9.421H79.156
					c-22.113,0-40.103,17.99-40.103,40.104v16.068c0,1.381,1.119,2.5,2.5,2.5s2.5-1.119,2.5-2.5V63.859
					c0-19.356,15.747-35.104,35.103-35.104h10.686c6.369,0,12.385,3.438,15.701,8.971c0.341,0.568,0.894,0.979,1.537,1.14
					c0.642,0.162,1.325,0.06,1.893-0.28c2.849-1.709,6.08-2.611,9.344-2.611c10.096,0,18.309,8.213,18.309,18.309v26.642
					c0,1.381,1.119,2.5,2.5,2.5s2.5-1.119,2.5-2.5V54.283C141.626,41.431,131.169,30.975,118.317,30.975z"/>
			</g>
		</g>
		<g>
			<g>
				<path d="M128.577,74.873c-0.493,0-0.98,0.021-1.461,0.063c-1.376,0.118-2.396,1.328-2.278,2.704
					c0.117,1.376,1.33,2.39,2.704,2.278c0.341-0.029,0.687-0.045,1.036-0.045c7.008,0,12.709,5.701,12.709,12.709
					s-5.702,12.71-12.709,12.71c-0.366,0-0.744-0.021-1.155-0.063c-1.377-0.141-2.602,0.857-2.743,2.231
					c-0.142,1.373,0.857,2.602,2.23,2.743c0.583,0.06,1.129,0.089,1.668,0.089c9.765,0,17.709-7.944,17.709-17.71
					C146.287,82.817,138.342,74.873,128.577,74.873z"/>
			</g>
		</g>
		<g>
			<g>
				<path d="M52.016,105.247c-0.321,0.028-0.645,0.045-0.974,0.045c-7.008,0-12.709-5.702-12.709-12.71s5.702-12.709,12.709-12.709
					c0.334,0,0.665,0.014,0.992,0.04c1.372,0.115,2.583-0.911,2.695-2.287c0.112-1.376-0.912-2.583-2.288-2.695
					c-0.461-0.038-0.927-0.058-1.399-0.058c-9.765,0-17.709,7.944-17.709,17.709c0,9.766,7.944,17.71,17.709,17.71
					c0.478,0,0.951-0.022,1.418-0.064c1.375-0.123,2.391-1.337,2.268-2.712C54.605,106.14,53.387,105.123,52.016,105.247z"/>
			</g>
		</g>
		<g>
			<g>
				<path d="M99.04,170.04c-1.271-0.545-2.739,0.044-3.283,1.313l-2.096,4.891h-7.703l-2.073-4.837
					c-0.543-1.27-2.013-1.856-3.283-1.313c-1.269,0.544-1.857,2.014-1.313,3.282l2.723,6.353c0.394,0.92,1.298,1.516,2.298,1.516h11
					c1,0,1.904-0.596,2.298-1.516l2.745-6.406C100.897,172.054,100.309,170.584,99.04,170.04z"/>
			</g>
		</g>
		<g>
			<g>
				<path d="M97.798,178.501c-0.135-1.375-1.356-2.377-2.732-2.245c-1.374,0.135-2.379,1.357-2.245,2.731l4.879,49.878
					c0.126,1.292,1.214,2.257,2.485,2.257c0.082,0,0.164-0.004,0.247-0.012c1.374-0.135,2.379-1.357,2.245-2.731L97.798,178.501z"/>
			</g>
		</g>
		<g>
			<g>
				<path d="M84.554,176.256c-1.378-0.133-2.598,0.87-2.732,2.245l-4.881,49.889c-0.134,1.374,0.871,2.597,2.245,2.731
					c0.083,0.008,0.165,0.012,0.247,0.012c1.271,0,2.359-0.965,2.485-2.257l4.881-49.889
					C86.933,177.613,85.928,176.391,84.554,176.256z"/>
			</g>
		</g>
		<g>
			<g>
				<path d="M78.73,228.602l-13.223-66.466c-0.27-1.354-1.59-2.229-2.94-1.964c-1.354,0.27-2.233,1.586-1.964,2.94l13.223,66.466
					c0.237,1.189,1.281,2.012,2.45,2.012c0.162,0,0.326-0.016,0.49-0.048C78.12,231.272,78.999,229.956,78.73,228.602z"/>
			</g>
		</g>
		<g>
			<g>
				<path d="M68.226,228.175l-10.948-27.88l4.17-6.254c1.367-2.053,0.866-4.782-1.14-6.215l-7.78-5.558l0.746-20.873
					c0.049-1.38-1.029-2.538-2.409-2.587c-1.404-0.048-2.539,1.029-2.588,2.409l-0.754,21.118c-0.054,1.527,0.656,2.97,1.899,3.858
					l7.62,5.442l-4.057,6.085c-0.823,1.235-0.99,2.797-0.448,4.179l11.036,28.103c0.387,0.985,1.33,1.587,2.328,1.587
					c0.304,0,0.613-0.056,0.913-0.174C68.097,230.911,68.73,229.46,68.226,228.175z"/>
			</g>
		</g>
		<g>
			<g>
				<path d="M131.356,161.55c-0.049-1.38-1.199-2.473-2.588-2.409c-1.38,0.049-2.458,1.207-2.409,2.587l0.733,20.541l-7.78,5.558
					c-2.006,1.433-2.507,4.162-1.139,6.216l4.169,6.253l-10.954,27.896c-0.504,1.285,0.128,2.736,1.414,3.241
					c0.3,0.118,0.609,0.174,0.913,0.174c0.998,0,1.941-0.603,2.328-1.587l11.042-28.119c0.542-1.382,0.375-2.944-0.449-4.179
					l-4.056-6.084l7.62-5.442c1.243-0.889,1.953-2.331,1.899-3.858L131.356,161.55z"/>
			</g>
		</g>
		<g>
			<g>
				<path d="M117.041,160.232c-1.354-0.268-2.67,0.61-2.94,1.964l-13.219,66.444c-0.269,1.354,0.61,2.671,1.964,2.94
					c0.165,0.032,0.329,0.048,0.491,0.048c1.168,0,2.212-0.822,2.449-2.012l13.219-66.444
					C119.274,161.818,118.395,160.502,117.041,160.232z"/>
			</g>
		</g>
		<g>
			<g>
				<path fill="#F5C84C" d="M255.895,186.21c-3.158-0.561-5.613-3.017-6.245-6.104c0-0.14-0.281-0.14-0.281,0
					c-0.631,3.087-3.087,5.543-6.245,6.104c-0.14,0-0.14,0.21,0,0.281c3.158,0.562,5.613,3.017,6.245,6.104
					c0,0.14,0.281,0.14,0.281,0c0.631-3.087,3.087-5.543,6.245-6.104C256.035,186.42,256.035,186.21,255.895,186.21z"/>
			</g>
		</g>
		<g>
			<g>
				<path fill="#FC657E" d="M173.8,43.85c-4.5-0.8-8-4.3-8.9-8.7c0-0.2-0.4-0.2-0.4,0c-0.9,4.4-4.4,7.9-8.9,8.7
					c-0.2,0-0.2,0.3,0,0.4c4.5,0.8,8,4.3,8.9,8.7c0,0.2,0.4,0.2,0.4,0c0.9-4.4,4.4-7.9,8.9-8.7C174,44.15,174,43.85,173.8,43.85z"/>
			</g>
		</g>
		<g>
			<g>
				<path fill="#70D6F9" d="M171.8,67c-1.878,0-3.4,1.522-3.4,3.4c0,1.878,1.522,3.4,3.4,3.4c1.878,0,3.4-1.522,3.4-3.4
					C175.2,68.522,173.678,67,171.8,67z"/>
			</g>
		</g>
		<g>
			<g>
				<path fill="#87D147" d="M14.2,148.1h-2.3v-2.3c0-1.7-1.4-3.2-3.2-3.2s-3.2,1.4-3.2,3.2v2.3H3.2c-1.7,0-3.2,1.4-3.2,3.2
					s1.4,3.2,3.2,3.2h2.3v2.3c0,1.7,1.4,3.2,3.2,3.2s3.2-1.4,3.2-3.2v-2.3h2.3c1.7,0,3.2-1.4,3.2-3.2S16,148.1,14.2,148.1z"/>
			</g>
		</g>
		<g>
			<g>
				<path fill="#F5C84C" d="M24.8,123c-1.878,0-3.4,1.522-3.4,3.4c0,1.878,1.522,3.4,3.4,3.4c1.878,0,3.4-1.522,3.4-3.4
					C28.2,124.522,26.678,123,24.8,123z"/>
			</g>
		</g>
		<g>
			<g>
				<g>
					<path d="M188.206,93.321c-30.878,0-56,25.121-56,56s25.122,56,56,56s56-25.121,56-56S219.084,93.321,188.206,93.321z
						 M188.206,200.321c-28.122,0-51-22.879-51-51s22.878-51,51-51s51,22.879,51,51S216.328,200.321,188.206,200.321z"/>
				</g>
			</g>
		</g>
		<g>
			<g>
				<g>
					<path d="M208.517,117.46c-5.647-5.516-13.104-8.46-21.013-8.264c-15.506,0.365-28.231,13.286-28.368,28.803
						c-0.083,9.476,4.479,18.422,12.202,23.932c2.32,1.655,3.705,4.365,3.705,7.248c0,3.152,2.565,5.718,5.717,5.718h14.891
						c3.152,0,5.717-2.565,5.717-5.718c0-2.889,1.37-5.588,3.665-7.22c7.667-5.449,12.243-14.31,12.243-23.701
						C217.277,130.363,214.166,122.977,208.517,117.46z M202.137,157.884c-3.612,2.568-5.768,6.791-5.768,11.295
						c0,0.396-0.322,0.718-0.717,0.718h-14.891c-0.396,0-0.717-0.322-0.717-0.719c0-4.495-2.168-8.726-5.801-11.317
						c-6.397-4.563-10.175-11.972-10.106-19.818c0.113-12.847,10.648-23.545,23.486-23.848c6.521-0.124,12.725,2.276,17.401,6.843
						c4.677,4.568,7.253,10.684,7.253,17.221C212.277,146.033,208.486,153.37,202.137,157.884z"/>
				</g>
			</g>
		</g>
		<g>
			<g>
				<path d="M197.125,170.188c-1.381,0-2.5,1.119-2.5,2.5l0.049,8.118l-12.886,0.05v-8.231c0-1.381-1.119-2.5-2.5-2.5
					s-2.5,1.119-2.5,2.5v8.231c0,2.729,2.221,4.95,4.951,4.95h12.935c2.73,0,4.951-2.221,4.951-4.95v-8.168
					C199.625,171.308,198.505,170.188,197.125,170.188z"/>
			</g>
		</g>
		<g>
			<g>
				<path d="M199.006,139.712h-21.6c-1.381,0-2.5,1.119-2.5,2.5s1.119,2.5,2.5,2.5h21.6c1.381,0,2.5-1.119,2.5-2.5
					S200.387,139.712,199.006,139.712z"/>
			</g>
		</g>
		<g>
			<g>
				<path d="M184.194,153.32l-1.071-1.339c-0.591-0.739-0.917-1.668-0.917-2.613v-10.656c0-1.381-1.119-2.5-2.5-2.5
					s-2.5,1.119-2.5,2.5v10.656c0,2.076,0.715,4.114,2.013,5.736l1.071,1.339c0.591,0.739,0.917,1.667,0.917,2.613v11.655
					c0,1.381,1.119,2.5,2.5,2.5s2.5-1.119,2.5-2.5v-11.655C186.206,156.979,185.491,154.941,184.194,153.32z"/>
			</g>
		</g>
		<g>
			<g>
				<path d="M196.706,136.212c-1.381,0-2.5,1.119-2.5,2.5v10.656c0,0.945-0.326,1.874-0.917,2.613l-1.07,1.338
					c-1.298,1.622-2.013,3.659-2.013,5.737v11.655c0,1.381,1.119,2.5,2.5,2.5s2.5-1.119,2.5-2.5v-11.655
					c0-0.946,0.326-1.874,0.917-2.613l1.071-1.339c1.297-1.623,2.012-3.66,2.012-5.736v-10.656
					C199.206,137.331,198.087,136.212,196.706,136.212z"/>
			</g>
		</g>
		<g>
			<g>
				<path d="M195.003,182.03c-1.381,0-2.5,1.119-2.5,2.5v4.141c0,0.983-0.8,1.783-1.783,1.783h-5.028
					c-0.983,0-1.783-0.8-1.783-1.783v-4.546c0-1.381-1.119-2.5-2.5-2.5s-2.5,1.119-2.5,2.5v4.546c0,3.74,3.043,6.783,6.783,6.783
					h5.028c3.74,0,6.783-3.043,6.783-6.783v-4.141C197.503,183.149,196.384,182.03,195.003,182.03z"/>
			</g>
		</g>
		<g>
			<g>
				<path d="M227.379,135.382h-3.646c-1.381,0-2.5,1.119-2.5,2.5s1.119,2.5,2.5,2.5h3.646c1.381,0,2.5-1.119,2.5-2.5
					S228.76,135.382,227.379,135.382z"/>
			</g>
		</g>
		<g>
			<g>
				<path d="M226.355,124.729c-0.69-1.195-2.22-1.608-3.415-0.915l-3.157,1.822c-1.196,0.69-1.605,2.219-0.915,3.415
					c0.463,0.802,1.303,1.25,2.167,1.25c0.424,0,0.854-0.107,1.248-0.335l3.157-1.822
					C226.636,127.454,227.045,125.926,226.355,124.729z"/>
			</g>
		</g>
		<g>
			<g>
				<path d="M225.44,147.618l-3.157-1.822c-1.198-0.692-2.726-0.28-3.415,0.915c-0.69,1.196-0.281,2.725,0.915,3.415l3.157,1.822
					c0.394,0.228,0.824,0.335,1.248,0.335c0.864,0,1.705-0.448,2.167-1.25C227.045,149.837,226.636,148.309,225.44,147.618z"/>
			</g>
		</g>
		<g>
			<g>
				<path d="M152.678,135.382h-3.645c-1.381,0-2.5,1.119-2.5,2.5s1.119,2.5,2.5,2.5h3.645c1.381,0,2.5-1.119,2.5-2.5
					S154.059,135.382,152.678,135.382z"/>
			</g>
		</g>
		<g>
			<g>
				<path d="M156.629,125.637l-3.157-1.822c-1.197-0.693-2.725-0.28-3.415,0.915c-0.69,1.196-0.28,2.725,0.916,3.415l3.157,1.822
					c0.394,0.228,0.823,0.335,1.247,0.335c0.864,0,1.705-0.448,2.167-1.25C158.235,127.855,157.825,126.327,156.629,125.637z"/>
			</g>
		</g>
		<g>
			<g>
				<path d="M157.544,146.711c-0.69-1.195-2.219-1.607-3.415-0.915l-3.157,1.822c-1.196,0.69-1.606,2.219-0.916,3.415
					c0.463,0.802,1.303,1.25,2.167,1.25c0.424,0,0.854-0.107,1.247-0.335l3.157-1.822
					C157.825,149.436,158.235,147.907,157.544,146.711z"/>
			</g>
		</g>
	</g>
</g>
<g id="Layer_53">
</g>
<g id="Layer_54">
</g>
<g id="Layer_55">
</g>
<g id="Layer_56">
</g>
<g id="Layer_57">
</g>
<g id="Layer_58">
</g>
<g id="Layer_59">
</g>
<g id="Layer_60">
</g>
<g id="Layer_61">
</g>
<g id="Layer_62">
</g>
<g id="Layer_63">
</g>
<g id="Layer_64">
</g>
<g id="Layer_65">
</g>
<g id="Layer_66">
</g>
<g id="Layer_67">
</g>
<g id="Layer_68">
</g>
<g id="Layer_69">
</g>
<g id="Layer_70">
</g>
<g id="Layer_71">
</g>
<g id="Layer_72">
</g>
<g id="Layer_73">
</g>
<g id="Layer_74">
</g>
<g id="Layer_75">
</g>
<g id="Layer_76">
</g>
<g id="Layer_77">
</g>
<g id="Layer_78">
</g>
<g id="Layer_79">
</g>
<g id="Layer_80">
</g>
<g id="Layer_81">
</g>
<g id="Layer_82">
</g>
<g id="Layer_83">
</g>
<g id="Layer_84">
</g>
<g id="Layer_85">
</g>
<g id="Layer_86">
</g>
<g id="Layer_87">
</g>
<g id="Layer_88">
</g>
<g id="Layer_89">
</g>
<g id="Layer_90">
</g>
</svg>
