<?xml version="1.0" encoding="utf-8"?>
<!-- Generator: Adobe Illustrator 24.0.0, SVG Export Plug-In . SVG Version: 6.00 Build 0)  -->
<svg version="1.1" xmlns="http://www.w3.org/2000/svg" xmlns:xlink="http://www.w3.org/1999/xlink" x="0px" y="0px"
	 viewBox="0 0 256 256" enable-background="new 0 0 256 256" xml:space="preserve">
<g id="Layer_1">
</g>
<g id="Layer_2">
</g>
<g id="Layer_3">
</g>
<g id="Layer_4">
</g>
<g id="Layer_5">
</g>
<g id="Layer_6">
</g>
<g id="Layer_7">
</g>
<g id="Layer_8">
</g>
<g id="Layer_9">
</g>
<g id="Layer_10">
</g>
<g id="Layer_11">
</g>
<g id="Layer_12">
</g>
<g id="Layer_13">
</g>
<g id="Layer_14">
</g>
<g id="Layer_15">
</g>
<g id="Layer_16">
</g>
<g id="Layer_17">
</g>
<g id="Layer_18">
</g>
<g id="Layer_19">
</g>
<g id="Layer_20">
</g>
<g id="Layer_21">
</g>
<g id="Layer_22">
</g>
<g id="Layer_23">
</g>
<g id="Layer_24">
</g>
<g id="Layer_25">
</g>
<g id="Layer_26">
</g>
<g id="Layer_27">
</g>
<g id="Layer_28">
</g>
<g id="Layer_29">
</g>
<g id="Layer_30">
</g>
<g id="Layer_31">
</g>
<g id="Layer_32">
</g>
<g id="Layer_33">
</g>
<g id="Layer_34">
</g>
<g id="Layer_35">
</g>
<g id="Layer_36">
</g>
<g id="Layer_37">
</g>
<g id="Layer_38">
</g>
<g id="Layer_39">
</g>
<g id="Layer_40">
</g>
<g id="Layer_41">
</g>
<g id="Layer_42">
</g>
<g id="Layer_43">
</g>
<g id="Layer_44">
</g>
<g id="Layer_45">
</g>
<g id="Layer_46">
</g>
<g id="Layer_47">
</g>
<g id="Layer_48">
</g>
<g id="Layer_49">
</g>
<g id="Layer_50">
</g>
<g id="Layer_51">
</g>
<g id="Layer_52">
</g>
<g id="Layer_53">
</g>
<g id="Layer_54">
	<g>
		<g>
			<g>
				
					<ellipse transform="matrix(0.9871 -0.1602 0.1602 0.9871 -21.4884 32.0754)" fill="#70D6F9" cx="188.206" cy="149.321" rx="53.5" ry="53.5"/>
			</g>
		</g>
		<g>
			<g>
				<path fill="#FC657E" d="M171.283,140.627l-15.484,8.94c-4.315,2.491-5.794,8.01-3.302,12.325l2.409,4.173
					c2.491,4.315,8.009,5.794,12.325,3.302l15.484-8.94L171.283,140.627z"/>
			</g>
		</g>
		<g>
			<g>
				<polygon fill="#DAE6F1" points="188.442,115.899 171.283,140.627 182.714,160.427 212.709,157.93 				"/>
			</g>
		</g>
		<g>
			<g>
				<path fill="#F5C84C" d="M210.47,133.448l-1.945-3.369c-0.551-0.955-1.625-1.482-2.717-1.334l-9.231,1.245l7.997,13.85
					l5.694-7.372C210.941,135.595,211.021,134.402,210.47,133.448z"/>
			</g>
		</g>
		<g>
			<g>
				<path fill="#DAE6F1" d="M193.935,178.273l-15.895-15.148l-10.811,6.241c-0.044,0.025-0.09,0.044-0.134,0.069l18.479,17.611
					c2.423,2.309,6.258,2.216,8.567-0.206C196.45,184.417,196.358,180.582,193.935,178.273z"/>
			</g>
		</g>
		<g>
			<g>
				<path fill="#EDF4FC" d="M85.258,163.727L70.591,149.06c-1.085-1.084-2.843-1.084-3.928,0l-6.564,6.563
					c-1.085,1.085-1.085,2.843,0,3.928l14.667,14.667c1.085,1.085,2.843,1.085,3.928,0l6.563-6.563
					C86.343,166.57,86.343,164.811,85.258,163.727z"/>
			</g>
		</g>
		<g>
			<g>
				<path fill="#EDF4FC" d="M119.52,155.623l-6.563-6.563c-1.085-1.084-2.843-1.084-3.928,0l-14.667,14.667
					c-1.085,1.085-1.085,2.843,0,3.928l6.563,6.563c1.085,1.085,2.843,1.085,3.928,0l14.667-14.667
					C120.604,158.466,120.604,156.708,119.52,155.623z"/>
			</g>
		</g>
		<g>
			<g>
				<path fill="#F9D0B4" d="M106.593,143.361v-5.929c-5.031,2.634-10.739,4.134-16.783,4.134h0c-6.044,0-11.752-1.5-16.783-4.134
					v5.929c0,2.293-0.625,4.488-1.747,6.387l13.978,13.978c0.472,0.472,0.725,1.072,0.787,1.688h7.529
					c0.061-0.616,0.315-1.216,0.787-1.688l13.991-13.991C107.232,147.837,106.593,145.653,106.593,143.361z"/>
			</g>
		</g>
		<g>
			<g>
				<path fill="#EDF4FC" d="M165.317,224.138l-1.58-27.246c-13.363-6.888-23.456-19.227-27.315-34.089l-5.431-1.367
					c-3.653-0.919-7.222-2.135-10.681-3.617c-0.053,0.631-0.308,1.249-0.791,1.731l-14.667,14.667c-1.085,1.085-2.843,1.085-3.928,0
					l-6.563-6.563c-0.613-0.613-0.867-1.44-0.787-2.24h-7.529c0.08,0.8-0.174,1.627-0.787,2.24l-6.563,6.563
					c-1.085,1.085-2.843,1.085-3.928,0L60.1,159.551c-0.48-0.48-0.735-1.094-0.79-1.721c-3.451,1.477-7.014,2.684-10.657,3.601
					l-20.936,5.27c-6.101,1.536-10.495,6.86-10.844,13.142l-2.569,44.297c-0.176,3.042,2.243,5.605,5.29,5.605h140.435
					C163.074,229.744,165.493,227.18,165.317,224.138z"/>
			</g>
		</g>
		<g>
			<g>
				<path fill="#FC657E" d="M94.361,167.654c-0.613-0.613-0.867-1.44-0.787-2.24h-7.529c0.08,0.8-0.174,1.627-0.787,2.24
					l-3.991,3.991l3.042,7.099h11l3.042-7.099L94.361,167.654z"/>
			</g>
		</g>
		<g>
			<g>
				<polygon fill="#FC657E" points="95.31,178.744 84.31,178.744 79.321,229.744 100.299,229.744 				"/>
			</g>
		</g>
		<g>
			<g>
				<path fill="#F9D0B4" d="M126.234,72.116c-0.021-1.033-0.848-1.885-1.881-1.915c-15.134-0.444-23.108-6.442-26.172-9.445
					c-0.836-0.82-2.187-0.733-2.916,0.183C81.96,77.672,62.331,75.311,55.731,73.929c-1.199-0.251-2.35,0.653-2.351,1.878v29.329
					c0,20.036,16.393,36.43,36.429,36.43h0c20.036,0,36.43-16.393,36.43-36.43V72.686C126.239,72.495,126.237,72.305,126.234,72.116
					z"/>
			</g>
		</g>
		<g>
			<g>
				<path fill="#754E34" d="M118.317,33.474c-3.882,0-7.511,1.097-10.63,2.967c-3.643-6.08-10.28-10.185-17.846-10.185H79.156
					c-20.681,0-37.603,16.921-37.603,37.603v16.849c2.602-2.082,5.898-3.335,9.49-3.335c0.796,0,1.575,0.067,2.338,0.185v-1.75
					c0.001-1.225,1.152-2.129,2.351-1.878c6.6,1.381,26.228,3.743,39.534-12.99c0.729-0.917,2.079-1.003,2.916-0.183
					c3.064,3.004,11.038,9.001,26.172,9.445c1.033,0.03,1.86,0.882,1.881,1.915c0.004,0.19,0.006,0.379,0.006,0.57v4.873
					c0.762-0.118,1.542-0.185,2.338-0.185c4.1,0,7.814,1.63,10.549,4.268V54.283C139.126,42.838,129.762,33.474,118.317,33.474z"/>
			</g>
		</g>
		<g>
			<g>
				<path fill="#F9D0B4" d="M128.577,77.373c-0.796,0-1.575,0.067-2.338,0.185v27.579c0,0.822-0.038,1.635-0.092,2.443
					c0.793,0.127,1.601,0.212,2.43,0.212c8.4,0,15.21-6.81,15.21-15.209S136.977,77.373,128.577,77.373z"/>
			</g>
		</g>
		<g>
			<g>
				<path fill="#F9D0B4" d="M53.38,105.137V77.558c-0.763-0.118-1.542-0.185-2.338-0.185c-8.4,0-15.21,6.81-15.21,15.21
					s6.81,15.209,15.21,15.209c0.829,0,1.636-0.084,2.43-0.212v-0.001C53.418,106.771,53.38,105.958,53.38,105.137z"/>
			</g>
		</g>
		<g>
			<g>
				<path d="M102.31,111.863c-1.056-0.886-2.634-0.749-3.521,0.311c-1.75,2.088-4.724,3.335-7.954,3.335s-6.204-1.247-7.954-3.335
					c-0.886-1.059-2.464-1.197-3.521-0.311c-1.059,0.887-1.197,2.464-0.311,3.521c2.688,3.209,7.095,5.124,11.786,5.124
					s9.098-1.915,11.786-5.124C103.507,114.327,103.368,112.75,102.31,111.863z"/>
			</g>
		</g>
		<g>
			<g>
				<ellipse transform="matrix(0.3827 -0.9239 0.9239 0.3827 -21.9111 156.2267)" cx="105.949" cy="94.51" rx="4.649" ry="4.649"/>
			</g>
		</g>
		<g>
			<g>
				<ellipse transform="matrix(0.3827 -0.9239 0.9239 0.3827 -41.1836 127.3834)" cx="74.73" cy="94.51" rx="4.649" ry="4.649"/>
			</g>
		</g>
		<g>
			<g>
				<path d="M140.531,189.41c-1.381,0-2.5,1.119-2.5,2.5v35.462c0,1.381,1.119,2.5,2.5,2.5s2.5-1.119,2.5-2.5V191.91
					C143.031,190.529,141.912,189.41,140.531,189.41z"/>
			</g>
		</g>
		<g>
			<g>
				<path d="M39.618,189.41c-1.381,0-2.5,1.119-2.5,2.5v35.462c0,1.381,1.119,2.5,2.5,2.5s2.5-1.119,2.5-2.5V191.91
					C42.118,190.529,40.999,189.41,39.618,189.41z"/>
			</g>
		</g>
		<g>
			<g>
				<g>
					<path d="M87.027,161.96C87.027,161.959,87.026,161.959,87.027,161.96l-14.668-14.668c-0.997-0.997-2.322-1.546-3.731-1.546
						c-1.41,0-2.736,0.549-3.731,1.546l-6.563,6.563c-2.058,2.058-2.058,5.405,0,7.463l14.666,14.667
						c1.028,1.029,2.38,1.544,3.732,1.544c1.352,0,2.703-0.515,3.731-1.544l6.564-6.564
						C89.083,167.364,89.083,164.017,87.027,161.96z M83.491,165.887l-6.563,6.563c-0.11,0.108-0.285,0.106-0.394,0l-14.666-14.667
						c-0.108-0.108-0.108-0.284,0-0.393l6.564-6.564c0.054-0.053,0.119-0.08,0.195-0.08s0.142,0.027,0.196,0.081l14.667,14.667
						C83.599,165.603,83.599,165.779,83.491,165.887z"/>
				</g>
			</g>
		</g>
		<g>
			<g>
				<g>
					<path d="M121.287,153.855l-6.563-6.563c-2.057-2.059-5.406-2.059-7.463,0l-14.667,14.667c-2.058,2.058-2.058,5.405,0,7.463
						l6.563,6.563c1.028,1.029,2.38,1.543,3.731,1.543s2.703-0.514,3.731-1.543l14.667-14.667
						C123.345,159.261,123.345,155.913,121.287,153.855z M117.752,157.783l-14.667,14.667c-0.109,0.107-0.283,0.107-0.393,0
						l-6.563-6.563c-0.108-0.108-0.108-0.284,0-0.393l14.667-14.667c0.055-0.054,0.125-0.081,0.196-0.081s0.142,0.027,0.196,0.081
						l6.563,6.563C117.86,157.499,117.86,157.675,117.752,157.783z"/>
				</g>
			</g>
		</g>
		<g>
			<g>
				<path d="M110.295,148.093c-0.786-1.468-1.202-3.104-1.202-4.731v-5.326c0-1.381-1.119-2.5-2.5-2.5s-2.5,1.119-2.5,2.5v5.326
					c0,2.449,0.621,4.902,1.796,7.094c0.45,0.841,1.313,1.319,2.205,1.319c0.398,0,0.804-0.096,1.179-0.298
					C110.49,150.824,110.947,149.31,110.295,148.093z"/>
			</g>
		</g>
		<g>
			<g>
				<path d="M92.723,162.914h-6.185c-1.381,0-2.5,1.119-2.5,2.5s1.119,2.5,2.5,2.5h6.185c1.381,0,2.5-1.119,2.5-2.5
					S94.104,162.914,92.723,162.914z"/>
			</g>
		</g>
		<g>
			<g>
				<path d="M73.027,135.854c-1.381,0-2.5,1.119-2.5,2.5v5.007c0,1.609-0.394,3.216-1.14,4.646
					c-0.638,1.225-0.161,2.734,1.063,3.373c0.369,0.191,0.764,0.283,1.153,0.283c0.902,0,1.773-0.49,2.22-1.346
					c1.114-2.142,1.704-4.547,1.704-6.957v-5.007C75.527,136.974,74.408,135.854,73.027,135.854z"/>
			</g>
		</g>
		<g>
			<g>
				<path d="M136.771,160.313l-5.17-1.301c-3.165-0.797-6.332-1.845-9.413-3.115c-1.276-0.524-2.738,0.081-3.265,1.358
					c-0.526,1.276,0.082,2.738,1.358,3.265c3.303,1.361,6.7,2.486,10.099,3.342l5.17,1.301c0.205,0.051,0.41,0.076,0.612,0.076
					c1.118,0,2.137-0.757,2.423-1.891C138.923,162.009,138.11,160.649,136.771,160.313z"/>
			</g>
		</g>
		<g>
			<g>
				<path d="M167.813,223.994l-1.55-26.732c-0.08-1.379-1.266-2.434-2.641-2.352c-1.379,0.08-2.432,1.263-2.352,2.641l1.55,26.732
					c0.046,0.777-0.224,1.518-0.758,2.083c-0.534,0.566-1.257,0.878-2.035,0.878H19.593c-0.778,0-1.501-0.312-2.035-0.878
					c-0.534-0.565-0.804-1.306-0.759-2.083l2.569-44.303c0.29-5.217,3.891-9.58,8.959-10.855l20.936-5.27
					c3.56-0.896,7.094-2.075,10.504-3.504c1.273-0.533,1.873-1.998,1.34-3.271c-0.533-1.274-2-1.876-3.271-1.34
					c-3.18,1.332-6.475,2.431-9.793,3.266l-20.936,5.27c-7.202,1.813-12.317,8.014-12.73,15.422l-2.569,44.297
					c-0.123,2.135,0.647,4.25,2.115,5.805c1.467,1.554,3.534,2.445,5.671,2.445h140.435c2.138,0,4.205-0.892,5.672-2.446
					S167.937,226.128,167.813,223.994z"/>
			</g>
		</g>
		<g>
			<g>
				<g>
					<path d="M128.732,72.066c-0.047-2.378-1.938-4.295-4.307-4.364c-14.5-0.426-21.961-6.248-24.494-8.73
						c-0.902-0.886-2.132-1.354-3.4-1.271c-1.26,0.077-2.435,0.691-3.223,1.684v-0.001C81.093,74.745,63.322,72.965,56.243,71.482
						c-1.319-0.273-2.68,0.053-3.727,0.903c-1.038,0.842-1.635,2.088-1.637,3.446v29.305c0,21.466,17.464,38.93,38.93,38.93
						s38.93-17.464,38.93-38.93V72.686C128.739,72.478,128.737,72.271,128.732,72.066z M123.739,72.686v32.451
						c0,18.709-15.221,33.93-33.93,33.93s-33.93-15.221-33.93-33.93V76.509c6.904,1.324,27.113,3.393,40.977-13.56
						c3.834,3.587,12.119,9.172,26.883,9.732C123.739,72.684,123.739,72.685,123.739,72.686z"/>
				</g>
			</g>
		</g>
		<g>
			<g>
				<path d="M118.317,30.975c-3.383,0-6.734,0.757-9.814,2.202c-4.383-5.862-11.336-9.421-18.662-9.421H79.155
					c-22.112,0-40.103,17.99-40.103,40.104v16.068c0,1.381,1.119,2.5,2.5,2.5s2.5-1.119,2.5-2.5V63.859
					c0-19.356,15.747-35.104,35.103-35.104h10.686c6.37,0,12.386,3.438,15.701,8.971c0.341,0.568,0.894,0.979,1.537,1.14
					c0.642,0.162,1.323,0.06,1.893-0.28c2.85-1.708,6.081-2.611,9.346-2.611c10.096,0,18.309,8.213,18.309,18.309v26.642
					c0,1.381,1.119,2.5,2.5,2.5s2.5-1.119,2.5-2.5V54.283C141.626,41.431,131.17,30.975,118.317,30.975z"/>
			</g>
		</g>
		<g>
			<g>
				<path d="M128.577,74.873c-0.492,0-0.979,0.021-1.462,0.063c-1.375,0.117-2.396,1.328-2.278,2.704
					c0.117,1.375,1.328,2.39,2.704,2.278c0.342-0.029,0.687-0.045,1.036-0.045c7.008,0,12.709,5.701,12.709,12.709
					s-5.701,12.71-12.709,12.71c-0.366,0-0.744-0.021-1.156-0.063c-1.37-0.144-2.602,0.858-2.743,2.231
					c-0.141,1.373,0.857,2.602,2.231,2.743c0.584,0.06,1.129,0.089,1.668,0.089c9.765,0,17.709-7.944,17.709-17.71
					C146.286,82.817,138.342,74.873,128.577,74.873z"/>
			</g>
		</g>
		<g>
			<g>
				<path d="M52.016,105.247c-0.32,0.028-0.645,0.045-0.973,0.045c-7.008,0-12.71-5.702-12.71-12.71s5.702-12.709,12.71-12.709
					c0.334,0,0.664,0.014,0.99,0.04c1.375,0.115,2.583-0.911,2.695-2.287c0.113-1.376-0.911-2.583-2.287-2.695
					c-0.461-0.038-0.928-0.058-1.398-0.058c-9.766,0-17.71,7.944-17.71,17.709c0,9.766,7.944,17.71,17.71,17.71
					c0.479,0,0.951-0.022,1.418-0.064c1.375-0.123,2.391-1.338,2.268-2.713S53.405,105.115,52.016,105.247z"/>
			</g>
		</g>
		<g>
			<g>
				<g>
					<path d="M100.12,169.878l-3.992-3.993c-0.066-0.065-0.072-0.157-0.066-0.222c0.07-0.703-0.159-1.402-0.634-1.927
						c-0.474-0.523-1.147-0.822-1.854-0.822h-7.528c-0.706,0-1.379,0.299-1.853,0.821c-0.474,0.523-0.705,1.223-0.636,1.925
						c0.007,0.066,0.001,0.159-0.066,0.227l-3.991,3.991c-0.723,0.723-0.933,1.813-0.53,2.752l3.042,7.099
						c0.394,0.92,1.298,1.516,2.298,1.516h11c1,0,1.903-0.596,2.298-1.515l3.043-7.099
						C101.053,171.69,100.843,170.601,100.12,169.878z M93.661,176.244h-7.703l-1.726-4.027l2.794-2.795
						c0.442-0.442,0.796-0.953,1.052-1.508h3.463c0.256,0.555,0.609,1.065,1.053,1.508l2.794,2.795L93.661,176.244z"/>
				</g>
			</g>
		</g>
		<g>
			<g>
				<g>
					<path d="M97.798,178.501c-0.125-1.28-1.202-2.257-2.488-2.257h-11c-1.286,0-2.363,0.977-2.488,2.257l-4.989,51
						c-0.068,0.702,0.162,1.4,0.637,1.923c0.474,0.522,1.146,0.82,1.852,0.82h20.979c0.705,0,1.378-0.298,1.852-0.82
						c0.475-0.522,0.705-1.221,0.637-1.923L97.798,178.501z M82.077,227.244l4.5-46h6.465l4.5,46H82.077z"/>
				</g>
			</g>
		</g>
		<g>
			<g>
				<g>
					<path d="M188.206,93.321c-30.879,0-56,25.121-56,56s25.121,56,56,56s56-25.121,56-56S219.085,93.321,188.206,93.321z
						 M188.206,200.321c-28.121,0-51-22.879-51-51s22.879-51,51-51s51,22.879,51,51S216.327,200.321,188.206,200.321z"/>
				</g>
			</g>
		</g>
		<g>
			<g>
				<path d="M216.316,159.179l-27.151-47.027c-0.69-1.196-2.221-1.604-3.415-0.915c-1.195,0.69-1.605,2.22-0.915,3.415
					l27.151,47.027c0.463,0.802,1.304,1.25,2.167,1.25c0.425,0,0.854-0.107,1.248-0.335
					C216.597,161.903,217.007,160.374,216.316,159.179z"/>
			</g>
		</g>
		<g>
			<g>
				<path d="M223.338,123.369c-0.69-1.196-2.221-1.605-3.415-0.915l-3.157,1.822c-1.195,0.69-1.605,2.219-0.915,3.415
					c0.463,0.802,1.304,1.25,2.167,1.25c0.425,0,0.854-0.107,1.248-0.335l3.157-1.822
					C223.618,126.094,224.028,124.565,223.338,123.369z"/>
			</g>
		</g>
		<g>
			<g>
				<path d="M213.709,113.741c-1.192-0.689-2.725-0.281-3.415,0.915l-1.822,3.156c-0.69,1.195-0.28,2.725,0.915,3.415
					c0.394,0.228,0.823,0.335,1.248,0.335c0.863,0,1.704-0.448,2.167-1.25l1.822-3.156
					C215.314,115.961,214.904,114.432,213.709,113.741z"/>
			</g>
		</g>
		<g>
			<g>
				<path d="M200.558,110.217c-1.381,0-2.5,1.119-2.5,2.5v3.646c0,1.381,1.119,2.5,2.5,2.5s2.5-1.119,2.5-2.5v-3.646
					C203.058,111.336,201.938,110.217,200.558,110.217z"/>
			</g>
		</g>
		<g>
			<g>
				<path d="M222.423,146.258l-3.157-1.822c-1.192-0.69-2.725-0.281-3.415,0.915s-0.28,2.725,0.915,3.415l3.157,1.822
					c0.394,0.228,0.823,0.335,1.248,0.335c0.863,0,1.704-0.448,2.167-1.25C224.028,148.477,223.618,146.948,222.423,146.258z"/>
			</g>
		</g>
		<g>
			<g>
				<path d="M224.361,134.021h-3.646c-1.381,0-2.5,1.119-2.5,2.5s1.119,2.5,2.5,2.5h3.646c1.381,0,2.5-1.119,2.5-2.5
					S225.742,134.021,224.361,134.021z"/>
			</g>
		</g>
		<g>
			<g>
				<path d="M184.879,159.177c-0.69-1.196-2.221-1.604-3.415-0.915l-15.484,8.94c-3.114,1.797-7.111,0.727-8.91-2.388l-2.408-4.173
					c-0.871-1.509-1.103-3.267-0.652-4.949c0.451-1.683,1.53-3.089,3.039-3.96l15.484-8.94c1.195-0.69,1.605-2.22,0.915-3.415
					c-0.69-1.196-2.223-1.605-3.415-0.915l-15.484,8.94c-2.665,1.539-4.572,4.023-5.368,6.996c-0.797,2.973-0.388,6.078,1.151,8.743
					l2.408,4.173c2.133,3.692,6.014,5.759,9.999,5.759c1.953,0,3.932-0.496,5.741-1.541l15.484-8.94
					C185.159,161.901,185.569,160.372,184.879,159.177z"/>
			</g>
		</g>
		<g>
			<g>
				<path d="M211.414,155.529l-27.328,2.274l-9.846-17.054l15.653-22.557c0.787-1.135,0.506-2.692-0.628-3.479
					c-1.135-0.785-2.692-0.507-3.479,0.628l-16.558,23.859c-0.552,0.796-0.596,1.838-0.111,2.676l11.432,19.8
					c0.449,0.777,1.277,1.25,2.164,1.25c0.069,0,0.139-0.003,0.208-0.009l28.907-2.406c1.376-0.114,2.398-1.322,2.284-2.698
					S212.794,155.414,211.414,155.529z"/>
			</g>
		</g>
		<g>
			<g>
				<path d="M212.635,132.197l-1.944-3.368c-1.063-1.842-3.12-2.852-5.216-2.562l-8.259,1.113c-1.368,0.185-2.328,1.443-2.144,2.812
					s1.442,2.331,2.812,2.144l8.26-1.113c0.078-0.011,0.173,0.03,0.217,0.106l1.944,3.369c0.045,0.076,0.038,0.171-0.016,0.241
					l-5.237,6.781c-0.844,1.093-0.643,2.663,0.45,3.507c0.455,0.352,0.993,0.521,1.526,0.521c0.748,0,1.488-0.334,1.98-0.972
					l5.237-6.781C213.546,136.314,213.698,134.038,212.635,132.197z"/>
			</g>
		</g>
		<g>
			<g>
				<path d="M195.66,176.464l-15.041-14.334c-0.999-0.953-2.58-0.915-3.534,0.085c-0.953,0.999-0.915,2.582,0.085,3.534
					l15.041,14.334c0.688,0.656,1.079,1.541,1.103,2.491c0.022,0.95-0.326,1.853-0.983,2.541c-0.655,0.688-1.539,1.08-2.489,1.103
					c-0.962,0.026-1.854-0.325-2.542-0.981l-17.832-16.994c-0.999-0.952-2.58-0.915-3.534,0.085
					c-0.953,0.999-0.915,2.582,0.085,3.534l17.832,16.994c1.604,1.529,3.692,2.363,5.9,2.363c0.07,0,0.141-0.001,0.211-0.002
					c2.286-0.056,4.413-0.997,5.989-2.651c1.577-1.655,2.416-3.825,2.361-6.111C198.257,180.169,197.315,178.041,195.66,176.464z"/>
			</g>
		</g>
		<g>
			<g>
				<path fill="#FC657E" d="M255.895,186.21c-3.157-0.561-5.613-3.017-6.245-6.104c0-0.14-0.281-0.14-0.281,0
					c-0.631,3.087-3.087,5.543-6.245,6.104c-0.14,0-0.14,0.21,0,0.281c3.157,0.562,5.613,3.017,6.245,6.104
					c0,0.14,0.281,0.14,0.281,0c0.632-3.087,3.087-5.543,6.245-6.104C256.035,186.42,256.035,186.21,255.895,186.21z"/>
			</g>
		</g>
		<g>
			<g>
				<path fill="#F5C84C" d="M173.8,43.85c-4.5-0.8-8-4.3-8.9-8.7c0-0.2-0.4-0.2-0.4,0c-0.9,4.4-4.4,7.9-8.9,8.7
					c-0.2,0-0.2,0.3,0,0.4c4.5,0.8,8,4.3,8.9,8.7c0,0.2,0.4,0.2,0.4,0c0.9-4.4,4.4-7.9,8.9-8.7C174,44.15,174,43.85,173.8,43.85z"/>
			</g>
		</g>
		<g>
			<g>
				<path fill="#87D147" d="M171.8,67c-1.878,0-3.4,1.522-3.4,3.4c0,1.878,1.522,3.4,3.4,3.4c1.878,0,3.4-1.522,3.4-3.4
					C175.2,68.522,173.678,67,171.8,67z"/>
			</g>
		</g>
		<g>
			<g>
				<path fill="#70D6F9" d="M14.2,148.1h-2.3v-2.3c0-1.7-1.4-3.2-3.2-3.2s-3.2,1.4-3.2,3.2v2.3H3.2c-1.7,0-3.2,1.4-3.2,3.2
					s1.4,3.2,3.2,3.2h2.3v2.3c0,1.7,1.4,3.2,3.2,3.2s3.2-1.4,3.2-3.2v-2.3h2.3c1.7,0,3.2-1.4,3.2-3.2S16,148.1,14.2,148.1z"/>
			</g>
		</g>
		<g>
			<g>
				<path fill="#F5C84C" d="M24.8,123c-1.878,0-3.4,1.522-3.4,3.4c0,1.878,1.522,3.4,3.4,3.4c1.878,0,3.4-1.522,3.4-3.4
					C28.2,124.522,26.678,123,24.8,123z"/>
			</g>
		</g>
	</g>
</g>
<g id="Layer_55">
</g>
<g id="Layer_56">
</g>
<g id="Layer_57">
</g>
<g id="Layer_58">
</g>
<g id="Layer_59">
</g>
<g id="Layer_60">
</g>
<g id="Layer_61">
</g>
<g id="Layer_62">
</g>
<g id="Layer_63">
</g>
<g id="Layer_64">
</g>
<g id="Layer_65">
</g>
<g id="Layer_66">
</g>
<g id="Layer_67">
</g>
<g id="Layer_68">
</g>
<g id="Layer_69">
</g>
<g id="Layer_70">
</g>
<g id="Layer_71">
</g>
<g id="Layer_72">
</g>
<g id="Layer_73">
</g>
<g id="Layer_74">
</g>
<g id="Layer_75">
</g>
<g id="Layer_76">
</g>
<g id="Layer_77">
</g>
<g id="Layer_78">
</g>
<g id="Layer_79">
</g>
<g id="Layer_80">
</g>
<g id="Layer_81">
</g>
<g id="Layer_82">
</g>
<g id="Layer_83">
</g>
<g id="Layer_84">
</g>
<g id="Layer_85">
</g>
<g id="Layer_86">
</g>
<g id="Layer_87">
</g>
<g id="Layer_88">
</g>
<g id="Layer_89">
</g>
<g id="Layer_90">
</g>
</svg>
