<?xml version="1.0" encoding="utf-8"?>
<!-- Generator: Adobe Illustrator 24.0.0, SVG Export Plug-In . SVG Version: 6.00 Build 0)  -->
<svg version="1.1" xmlns="http://www.w3.org/2000/svg" xmlns:xlink="http://www.w3.org/1999/xlink" x="0px" y="0px"
	 viewBox="0 0 256 256" enable-background="new 0 0 256 256" xml:space="preserve">
<g id="Layer_1">
</g>
<g id="Layer_2">
</g>
<g id="Layer_3">
</g>
<g id="Layer_4">
</g>
<g id="Layer_5">
</g>
<g id="Layer_6">
</g>
<g id="Layer_7">
</g>
<g id="Layer_8">
</g>
<g id="Layer_9">
</g>
<g id="Layer_10">
</g>
<g id="Layer_11">
</g>
<g id="Layer_12">
</g>
<g id="Layer_13">
</g>
<g id="Layer_14">
</g>
<g id="Layer_15">
</g>
<g id="Layer_16">
</g>
<g id="Layer_17">
</g>
<g id="Layer_18">
</g>
<g id="Layer_19">
</g>
<g id="Layer_20">
</g>
<g id="Layer_21">
</g>
<g id="Layer_22">
</g>
<g id="Layer_23">
</g>
<g id="Layer_24">
</g>
<g id="Layer_25">
</g>
<g id="Layer_26">
</g>
<g id="Layer_27">
</g>
<g id="Layer_28">
</g>
<g id="Layer_29">
</g>
<g id="Layer_30">
</g>
<g id="Layer_31">
</g>
<g id="Layer_32">
</g>
<g id="Layer_33">
</g>
<g id="Layer_34">
</g>
<g id="Layer_35">
</g>
<g id="Layer_36">
</g>
<g id="Layer_37">
</g>
<g id="Layer_38">
</g>
<g id="Layer_39">
</g>
<g id="Layer_40">
</g>
<g id="Layer_41">
</g>
<g id="Layer_42">
</g>
<g id="Layer_43">
</g>
<g id="Layer_44">
</g>
<g id="Layer_45">
</g>
<g id="Layer_46">
</g>
<g id="Layer_47">
</g>
<g id="Layer_48">
</g>
<g id="Layer_49">
</g>
<g id="Layer_50">
</g>
<g id="Layer_51">
</g>
<g id="Layer_52">
</g>
<g id="Layer_53">
</g>
<g id="Layer_54">
</g>
<g id="Layer_55">
</g>
<g id="Layer_56">
</g>
<g id="Layer_57">
</g>
<g id="Layer_58">
</g>
<g id="Layer_59">
</g>
<g id="Layer_60">
</g>
<g id="Layer_61">
</g>
<g id="Layer_62">
</g>
<g id="Layer_63">
</g>
<g id="Layer_64">
</g>
<g id="Layer_65">
</g>
<g id="Layer_66">
</g>
<g id="Layer_67">
</g>
<g id="Layer_68">
</g>
<g id="Layer_69">
</g>
<g id="Layer_70">
</g>
<g id="Layer_71">
</g>
<g id="Layer_72">
</g>
<g id="Layer_73">
</g>
<g id="Layer_74">
</g>
<g id="Layer_75">
</g>
<g id="Layer_76">
	<g>
		<g>
			<g>
				<path fill="#DAE6F1" d="M169.205,60.875h-11.253c-0.614,0-1.136-0.432-1.269-1.032c-1.127-5.089-3.131-9.848-5.846-14.109
					c-0.33-0.518-0.266-1.193,0.168-1.627l7.959-7.958c0.508-0.508,0.508-1.331,0-1.838l-10.265-10.265
					c-0.508-0.508-1.331-0.508-1.838,0l-7.959,7.958c-0.434,0.435-1.109,0.499-1.627,0.168c-4.261-2.716-9.02-4.72-14.109-5.846
					c-0.6-0.133-1.032-0.655-1.032-1.27V13.803c0-0.718-0.582-1.3-1.3-1.3h-14.516c-0.718,0-1.3,0.582-1.3,1.3v11.253
					c0,0.614-0.432,1.137-1.032,1.27c-5.089,1.126-9.848,3.13-14.109,5.846c-0.518,0.33-1.193,0.266-1.627-0.168l-7.959-7.958
					c-0.508-0.508-1.331-0.508-1.838,0L68.187,34.31c-0.508,0.508-0.508,1.331,0,1.838l7.959,7.958
					c0.434,0.435,0.498,1.109,0.168,1.627c-2.716,4.262-4.72,9.021-5.847,14.109c-0.133,0.6-0.655,1.032-1.269,1.032H57.944
					c-0.718,0-1.3,0.582-1.3,1.3v14.517c0,0.718,0.582,1.3,1.3,1.3h11.253c0.614,0,1.136,0.432,1.269,1.032
					c1.127,5.089,3.131,9.848,5.847,14.109c0.33,0.518,0.266,1.193-0.168,1.627l-7.959,7.959c-0.508,0.508-0.508,1.331,0,1.838
					l10.265,10.265c0.508,0.507,1.331,0.507,1.838,0l7.959-7.958c0.434-0.435,1.109-0.499,1.627-0.168
					c4.261,2.716,9.02,4.72,14.109,5.846c0.409,0.091,0.727,0.369,0.896,0.727V97.509c0,0.069,0-0.225,0-0.294
					c0-5.013,4.173-9.07,9.258-8.847c4.784,0.208,8.475,4.14,8.475,8.847v15.613c0.159-0.131,0.338-0.24,0.55-0.287
					c5.089-1.126,9.848-3.13,14.109-5.846c0.518-0.331,1.193-0.266,1.627,0.168l7.959,7.958c0.508,0.507,1.331,0.507,1.838,0
					l10.265-10.265c0.508-0.508,0.508-1.331,0-1.838l-7.959-7.959c-0.434-0.434-0.498-1.109-0.168-1.627
					c2.716-4.262,4.72-9.021,5.846-14.109c0.133-0.6,0.655-1.032,1.269-1.032h11.253c0.718,0,1.3-0.582,1.3-1.3V62.175
					C170.505,61.457,169.923,60.875,169.205,60.875z"/>
			</g>
		</g>
		<g>
			<g>
				<path fill="#FC657E" d="M113.575,39.257c-16.079,0-29.115,13.035-29.115,29.114c0,13.075,8.619,24.136,20.485,27.813
					c0.526-4.525,4.463-8.024,9.194-7.817c4.391,0.191,7.853,3.522,8.393,7.708c11.695-3.779,20.156-14.751,20.156-27.704
					C142.689,52.292,129.654,39.257,113.575,39.257z"/>
			</g>
		</g>
		<g>
			<g>
				<path fill="#DAE6F1" d="M125.316,66.124l-16.553-9.643c-1.567-0.913-3.534,0.218-3.534,2.031v19.285
					c0,1.814,1.967,2.944,3.534,2.032l16.553-9.643C126.873,69.279,126.873,67.03,125.316,66.124z"/>
			</g>
		</g>
		<g>
			<g>
				<path fill="#F5C84C" d="M201.706,94.396c-4.5-0.8-8-4.3-8.9-8.7c0-0.2-0.4-0.2-0.4,0c-0.9,4.4-4.4,7.9-8.9,8.7
					c-0.2,0-0.2,0.3,0,0.4c4.5,0.8,8,4.3,8.9,8.7c0,0.2,0.4,0.2,0.4,0c0.9-4.4,4.4-7.9,8.9-8.7
					C201.906,94.697,201.906,94.396,201.706,94.396z"/>
			</g>
		</g>
		<g>
			<g>
				<path fill="#FC657E" d="M90.516,6.21c-3.157-0.562-5.613-3.018-6.245-6.104c0-0.141-0.281-0.141-0.281,0
					c-0.632,3.087-3.087,5.543-6.245,6.104c-0.14,0-0.14,0.21,0,0.28c3.157,0.562,5.613,3.018,6.245,6.104
					c0,0.141,0.281,0.141,0.281,0c0.631-3.087,3.087-5.543,6.245-6.104C90.656,6.42,90.656,6.21,90.516,6.21z"/>
			</g>
		</g>
		<g>
			<g>
				<path fill="#70D6F9" d="M77.606,211.646h-2.3v-2.3c0-1.7-1.4-3.2-3.2-3.2s-3.2,1.4-3.2,3.2v2.3h-2.3c-1.7,0-3.2,1.4-3.2,3.2
					c0,1.8,1.4,3.2,3.2,3.2h2.3v2.3c0,1.7,1.4,3.2,3.2,3.2s3.2-1.4,3.2-3.2v-2.3h2.3c1.7,0,3.2-1.4,3.2-3.2
					C80.806,213.046,79.406,211.646,77.606,211.646z"/>
			</g>
		</g>
		<g>
			<g>
				<path fill="#F5C84C" d="M63.706,184c-1.878,0-3.4,1.522-3.4,3.4c0,1.878,1.522,3.4,3.4,3.4c1.878,0,3.4-1.522,3.4-3.4
					C67.106,185.522,65.583,184,63.706,184z"/>
			</g>
		</g>
		<g>
			<g>
				<path fill="#87D147" d="M186.706,119c-1.878,0-3.4,1.522-3.4,3.4c0,1.878,1.522,3.4,3.4,3.4s3.4-1.522,3.4-3.4
					C190.106,120.522,188.583,119,186.706,119z"/>
			</g>
		</g>
		<g>
			<g>
				<g>
					<path d="M169.205,58.375h-10.297c-1.13-4.654-2.964-9.078-5.46-13.177l7.283-7.283c1.481-1.481,1.481-3.892,0-5.373
						l-10.265-10.265c-1.48-1.481-3.891-1.483-5.374,0l-7.283,7.282c-4.098-2.496-8.522-4.329-13.176-5.46V13.803
						c0-2.096-1.705-3.8-3.8-3.8h-14.517c-2.095,0-3.8,1.704-3.8,3.8V24.1c-4.654,1.131-9.078,2.964-13.176,5.46l-7.284-7.282
						c-1.482-1.482-3.893-1.482-5.374,0L66.419,32.542c-1.481,1.481-1.481,3.892,0,5.373l7.282,7.283
						c-2.496,4.098-4.33,8.522-5.46,13.177H57.944c-2.095,0-3.8,1.704-3.8,3.8v14.517c0,2.096,1.705,3.8,3.8,3.8h10.297
						c1.131,4.654,2.964,9.078,5.46,13.176l-7.282,7.283c-1.482,1.481-1.482,3.893,0,5.374l10.266,10.267
						c1.481,1.477,3.891,1.479,5.372-0.002l7.283-7.282c4.37,2.662,9.11,4.569,14.104,5.675c1.346,0.297,2.684-0.553,2.981-1.901
						c0.298-1.348-0.553-2.683-1.901-2.981c-4.731-1.047-9.208-2.901-13.303-5.511c-1.522-0.973-3.471-0.764-4.741,0.507l-7.11,7.11
						l-8.568-8.568l7.108-7.108c1.271-1.268,1.481-3.216,0.511-4.74c-2.611-4.097-4.466-8.574-5.514-13.307
						c-0.39-1.761-1.916-2.99-3.71-2.99H59.145V63.375h10.053c1.794,0,3.32-1.23,3.71-2.991c1.048-4.732,2.903-9.21,5.514-13.307
						c0.97-1.521,0.761-3.469-0.508-4.738l-7.11-7.11l8.567-8.567l7.109,7.108c1.268,1.271,3.217,1.481,4.739,0.511
						c4.097-2.611,8.574-4.466,13.306-5.515c1.761-0.39,2.991-1.915,2.991-3.71V15.003h12.116v10.053c0,1.795,1.23,3.32,2.991,3.71
						c4.732,1.049,9.209,2.903,13.307,5.515c1.521,0.971,3.47,0.76,4.738-0.51l7.11-7.109l8.567,8.567l-7.111,7.111
						c-1.268,1.27-1.477,3.218-0.508,4.737c2.611,4.097,4.466,8.574,5.514,13.307c0.39,1.761,1.916,2.991,3.71,2.991h10.053v12.116
						h-10.053c-1.794,0-3.32,1.229-3.71,2.99c-1.048,4.732-2.903,9.21-5.515,13.308c-0.969,1.522-0.759,3.471,0.509,4.737l7.11,7.11
						l-8.567,8.568l-7.11-7.11c-1.27-1.27-3.218-1.48-4.739-0.509c-4.098,2.611-8.574,4.466-13.306,5.513
						c-1.348,0.299-2.199,1.634-1.901,2.981c0.298,1.348,1.635,2.195,2.981,1.901c4.994-1.105,9.733-3.013,14.105-5.676l7.284,7.285
						c0.74,0.738,1.712,1.108,2.685,1.108c0.973,0,1.946-0.37,2.688-1.11l10.265-10.265c1.482-1.481,1.482-3.893,0-5.374
						l-7.283-7.283c2.496-4.098,4.33-8.521,5.46-13.176h10.297c2.095,0,3.8-1.704,3.8-3.8V62.175
						C173.005,60.079,171.3,58.375,169.205,58.375z"/>
				</g>
			</g>
		</g>
		<g>
			<g>
				<path d="M113.575,36.757c-17.433,0-31.615,14.182-31.615,31.614c0,13.523,8.593,25.548,21.382,29.92
					c0.268,0.092,0.541,0.136,0.809,0.136c1.04,0,2.011-0.653,2.366-1.692c0.446-1.307-0.25-2.728-1.557-3.174
					C94.193,89.88,86.96,79.757,86.96,68.371c0-14.675,11.939-26.614,26.615-26.614s26.614,11.939,26.614,26.614
					c0,11.321-7.184,21.425-17.875,25.141c-1.304,0.453-1.994,1.878-1.541,3.182c0.453,1.305,1.878,1.997,3.182,1.541
					c12.7-4.414,21.233-16.415,21.233-29.863C145.189,50.938,131.007,36.757,113.575,36.757z"/>
			</g>
		</g>
		<g>
			<g>
				<g>
					<path d="M126.575,63.963L126.575,63.963l-16.554-9.644c-1.519-0.883-3.336-0.889-4.859-0.012
						c-1.523,0.875-2.433,2.447-2.433,4.204v19.285c0,1.758,0.91,3.33,2.434,4.206c0.758,0.436,1.588,0.652,2.417,0.652
						c0.839,0,1.678-0.223,2.441-0.667l16.552-9.643c1.508-0.878,2.409-2.444,2.41-4.189
						C128.984,66.41,128.084,64.843,126.575,63.963z M107.729,77.537V58.771l16.107,9.383L107.729,77.537z"/>
				</g>
			</g>
		</g>
		<g>
			<g>
				<path fill="#F9D0B4" d="M167.821,135.402c-5.289-0.504-9.738,3.641-9.738,8.826v-0.22c0-4.631-3.386-8.767-7.996-9.207
					c-5.289-0.504-9.738,3.641-9.738,8.825v-0.602c0-5.185-4.45-9.33-9.738-8.825c-4.61,0.439-7.996,4.576-7.996,9.207v-46.19
					c0-4.707-3.691-8.639-8.475-8.848c-5.085-0.222-9.258,3.834-9.258,8.848c0,0.069,0,0.363,0,0.294v73.812
					c0,0.771-0.992,1.087-1.437,0.457l-11.546-17.62c-2.899-4.1-8.534-5.147-12.712-2.361c-3.769,2.512-5.17,7.38-3.314,11.512
					l13.439,29.064c2.6,5.789,5.798,11.28,9.362,16.532c3.061,4.511,5.953,10.231,6.359,19.837l0.152,18.464
					c0.003,3.477,2.823,6.294,6.3,6.294h51.983c3.479,0,6.3-2.82,6.3-6.3v-24.397c0-9.18,2.857-14.688,4.209-19.581
					c1.22-3.772,1.842-7.713,1.842-11.678l0-46.935C175.817,139.979,172.431,135.843,167.821,135.402z"/>
			</g>
		</g>
		<g>
			<g>
				<g>
					<path d="M168.059,132.914C168.058,132.914,168.058,132.914,168.059,132.914c-3.203-0.313-6.39,0.754-8.753,2.902
						c-0.377,0.343-0.729,0.708-1.053,1.095c-1.867-2.539-4.702-4.291-7.928-4.599c-3.2-0.31-6.39,0.753-8.754,2.902
						c-0.349,0.317-0.676,0.654-0.981,1.01c-0.432-0.58-0.921-1.12-1.463-1.613c-2.364-2.149-5.557-3.212-8.753-2.9
						c-1.935,0.184-3.729,0.888-5.259,1.97V97.215c0-6.097-4.773-11.08-10.867-11.346c-3.138-0.122-6.104,0.979-8.362,3.143
						c-2.26,2.163-3.505,5.077-3.505,8.203v0.102c0,0.038,0,0.075,0.001,0.112c-0.001,0.021-0.001,0.042-0.001,0.063h0.003
						c0,0.005,0,0.011,0.001,0.017l-0.004,68.086l-8.441-12.881c-3.708-5.244-10.797-6.56-16.139-2.997
						c-4.805,3.201-6.575,9.349-4.197,14.641l13.427,29.04c2.507,5.58,5.638,11.112,9.574,16.91
						c2.714,3.999,5.541,9.329,5.928,18.455l0.151,18.446c0.005,4.848,3.952,8.791,8.8,8.791h51.983c4.852,0,8.8-3.947,8.8-8.8
						v-24.396c0-6.566,1.543-11.105,2.904-15.11c0.441-1.299,0.859-2.527,1.2-3.753c1.292-4.013,1.947-8.183,1.947-12.396v-46.935
						C178.317,138.601,173.811,133.463,168.059,132.914z M173.317,191.544c0,3.709-0.579,7.379-1.721,10.909
						c-0.011,0.034-0.021,0.068-0.031,0.104c-0.305,1.103-0.705,2.28-1.129,3.527c-1.412,4.155-3.17,9.326-3.17,16.72V247.2
						c0,2.096-1.705,3.8-3.8,3.8h-51.983c-2.093,0-3.798-1.703-3.8-3.814l-0.154-18.549c-0.442-10.462-3.68-16.556-6.788-21.137
						c-3.771-5.556-6.764-10.839-9.161-16.176l-13.428-29.04c-1.361-3.029-0.343-6.565,2.421-8.407
						c1.171-0.781,2.489-1.155,3.786-1.155c2.106,0,4.159,0.984,5.448,2.806l11.595,17.693c0.832,1.176,2.313,1.674,3.684,1.236
						c1.373-0.437,2.294-1.696,2.294-3.137V97.215c0-1.749,0.697-3.38,1.962-4.592c1.265-1.21,2.934-1.85,4.688-1.758
						c3.412,0.147,6.084,2.938,6.084,6.35v46.19c0,1.381,1.119,2.5,2.5,2.5s2.5-1.119,2.5-2.5c0-3.46,2.519-6.411,5.734-6.718
						c1.826-0.163,3.571,0.403,4.915,1.624c1.325,1.204,2.085,2.922,2.085,4.712v0.603c0,1.381,1.119,2.5,2.5,2.5s2.5-1.119,2.5-2.5
						c0-1.79,0.76-3.507,2.085-4.712c1.343-1.222,3.089-1.79,4.915-1.625c3.215,0.308,5.734,3.259,5.734,6.719v0.22
						c0,1.381,1.119,2.5,2.5,2.5s2.5-1.119,2.5-2.5c0-1.789,0.76-3.507,2.085-4.712c1.343-1.222,3.091-1.79,4.915-1.625
						c3.215,0.308,5.733,3.259,5.733,6.719V191.544z"/>
				</g>
			</g>
		</g>
		<g>
			<g>
				<path d="M122.615,141.728c-1.381,0-2.5,1.119-2.5,2.5v7.847c0,1.381,1.119,2.5,2.5,2.5s2.5-1.119,2.5-2.5v-7.847
					C125.115,142.847,123.996,141.728,122.615,141.728z"/>
			</g>
		</g>
		<g>
			<g>
				<path d="M140.349,141.728c-1.381,0-2.5,1.119-2.5,2.5v7.847c0,1.381,1.119,2.5,2.5,2.5s2.5-1.119,2.5-2.5v-7.847
					C142.849,142.847,141.729,141.728,140.349,141.728z"/>
			</g>
		</g>
		<g>
			<g>
				<path d="M158.083,141.728c-1.381,0-2.5,1.119-2.5,2.5v7.847c0,1.381,1.119,2.5,2.5,2.5s2.5-1.119,2.5-2.5v-7.847
					C160.583,142.847,159.464,141.728,158.083,141.728z"/>
			</g>
		</g>
	</g>
</g>
<g id="Layer_77">
</g>
<g id="Layer_78">
</g>
<g id="Layer_79">
</g>
<g id="Layer_80">
</g>
<g id="Layer_81">
</g>
<g id="Layer_82">
</g>
<g id="Layer_83">
</g>
<g id="Layer_84">
</g>
<g id="Layer_85">
</g>
<g id="Layer_86">
</g>
<g id="Layer_87">
</g>
<g id="Layer_88">
</g>
<g id="Layer_89">
</g>
<g id="Layer_90">
</g>
</svg>
