<svg id="icons" xmlns="http://www.w3.org/2000/svg" viewBox="0 0 64 64"><defs><style>.cls-1{fill:none;stroke:#000;stroke-linecap:round;stroke-linejoin:round;}</style></defs><title>pumkin_1</title><g id="pumpkin_1"><path class="cls-1" d="M8.14588,55.75908a11.50246,11.50246,0,0,0,3.89268,2.42671A24.8865,24.8865,0,0,0,40.04463,51.105a29.24964,29.24964,0,0,0,5.00911-8.24464s6.56661-16.62174,11.79938-21.8545-2.05207-11.902-2.05207-11.902-6.66921-7.28483-11.902-2.05206S21.04456,18.85122,21.04456,18.85122a29.24977,29.24977,0,0,0-8.24463,5.0091A24.8865,24.8865,0,0,0,5.71916,51.86639,11.50262,11.50262,0,0,0,8.14588,55.75908Z"/><path class="cls-1" d="M56.19624,5.14627,54.795,9.091l4.05962-1.16234a1.57924,1.57924,0,0,0,.682-2.63493l-.73551-.7355A1.57923,1.57923,0,0,0,56.19624,5.14627Z"/><path class="cls-1" d="M22.10963,53.75271S13.69581,59.958,8.14588,55.75908C3.947,50.20915,10.15224,41.79533,10.15224,41.79533"/><path class="cls-1" d="M43.72934,11.56105s7.07674-5.48562,11.07512-2.46056c3.02506,3.99839-2.46055,11.07513-2.46055,11.07513"/><path class="cls-1" d="M42.07527,37.75068s-1.3152,8.30541-6.12551,11.82064"/><path class="cls-1" d="M15.12688,27.19681a16.33319,16.33319,0,0,0-5.8033,8.39627"/></g></svg>