<?xml version="1.0" encoding="utf-8"?>
<!-- Generator: Adobe Illustrator 16.0.0, SVG Export Plug-In . SVG Version: 6.00 Build 0)  -->
<!DOCTYPE svg PUBLIC "-//W3C//DTD SVG 1.0//EN" "http://www.w3.org/TR/2001/REC-SVG-20010904/DTD/svg10.dtd">
<svg version="1.0" id="Layer_1" xmlns="http://www.w3.org/2000/svg" xmlns:xlink="http://www.w3.org/1999/xlink" x="0px" y="0px"
	 width="100px" height="100px" viewBox="0 0 100 100" enable-background="new 0 0 100 100" xml:space="preserve">
<path d="M89.911,83.425L81.008,30h-11.01C69.998,18.952,61.043,10,49.999,10c-11.045,0-20,8.951-20,19.999H18.993L10.09,83.425
	C9.485,87.038,11.991,90,15.66,90h68.682C88.007,90,90.513,87.038,89.911,83.425z M49.999,16.667c7.362,0,13.333,5.97,13.333,13.333
	H36.665C36.665,22.636,42.636,16.667,49.999,16.667z M16.861,83.333l7.779-46.666h5.358v6.666h6.667v-6.666h26.667v6.666h6.666
	v-6.666h5.361l7.777,46.666H16.861z"/>
<path d="M57.082,50.833H46.034l3.965-3.965l-3.535-3.535l-7.644,7.644c-1.302,1.302-1.302,3.411,0,4.713l7.644,7.644l3.531-3.535
	l-3.965-3.965h11.052c4.371,0,7.916,3.542,7.916,7.917c0,4.368-3.545,7.916-7.916,7.916H29.999v5h27.083
	c7.135,0,12.916-5.781,12.916-12.916C69.998,56.614,64.217,50.833,57.082,50.833z"/>
</svg>
