<?xml version="1.0" encoding="utf-8"?>
<!-- Generator: Adobe Illustrator 16.0.0, SVG Export Plug-In . SVG Version: 6.00 Build 0)  -->
<!DOCTYPE svg PUBLIC "-//W3C//DTD SVG 1.0//EN" "http://www.w3.org/TR/2001/REC-SVG-20010904/DTD/svg10.dtd">
<svg version="1.0" id="Layer_1" xmlns="http://www.w3.org/2000/svg" xmlns:xlink="http://www.w3.org/1999/xlink" x="0px" y="0px"
	 width="100px" height="100px" viewBox="0 0 100 100" enable-background="new 0 0 100 100" xml:space="preserve">
<path d="M83.333,16.667H16.667c-3.666,0-6.667,3-6.667,6.667V80c0,1.832,1.501,3.334,3.333,3.334h73.334
	C88.499,83.334,90,81.832,90,80V23.333C90,19.667,86.999,16.667,83.333,16.667z M16.667,23.333h66.666V30H16.667V23.333z
	 M83.333,63.334H70c-3.675,0-6.667-2.992-6.667-6.668S66.325,50,70,50h13.333V63.334z M70,43.333
	c-7.363,0-13.333,5.97-13.333,13.333C56.667,64.029,62.637,70,70,70h13.333v6.666H16.667v-40h66.666v6.667H70z"/>
<path d="M73.333,56.666c0,1.844-1.49,3.334-3.33,3.334c-1.842,0-3.333-1.49-3.333-3.334c0-1.838,1.491-3.332,3.333-3.332
	C71.843,53.334,73.333,54.828,73.333,56.666z"/>
</svg>
