<?xml version="1.0" encoding="utf-8"?>
<!-- Generator: Adobe Illustrator 24.0.0, SVG Export Plug-In . SVG Version: 6.00 Build 0)  -->
<svg version="1.1" xmlns="http://www.w3.org/2000/svg" xmlns:xlink="http://www.w3.org/1999/xlink" x="0px" y="0px"
	 viewBox="0 0 256 256" enable-background="new 0 0 256 256" xml:space="preserve">
<g id="Layer_1">
</g>
<g id="Layer_2">
</g>
<g id="Layer_3">
</g>
<g id="Layer_4">
</g>
<g id="Layer_5">
</g>
<g id="Layer_6">
</g>
<g id="Layer_7">
</g>
<g id="Layer_8">
</g>
<g id="Layer_9">
</g>
<g id="Layer_10">
</g>
<g id="Layer_11">
</g>
<g id="Layer_12">
</g>
<g id="Layer_13">
</g>
<g id="Layer_14">
</g>
<g id="Layer_15">
</g>
<g id="Layer_16">
</g>
<g id="Layer_17">
</g>
<g id="Layer_18">
</g>
<g id="Layer_19">
</g>
<g id="Layer_20">
</g>
<g id="Layer_21">
</g>
<g id="Layer_22">
</g>
<g id="Layer_23">
</g>
<g id="Layer_24">
</g>
<g id="Layer_25">
</g>
<g id="Layer_26">
</g>
<g id="Layer_27">
</g>
<g id="Layer_28">
</g>
<g id="Layer_29">
</g>
<g id="Layer_30">
</g>
<g id="Layer_31">
</g>
<g id="Layer_32">
</g>
<g id="Layer_33">
</g>
<g id="Layer_34">
</g>
<g id="Layer_35">
</g>
<g id="Layer_36">
</g>
<g id="Layer_37">
</g>
<g id="Layer_38">
</g>
<g id="Layer_39">
</g>
<g id="Layer_40">
</g>
<g id="Layer_41">
</g>
<g id="Layer_42">
</g>
<g id="Layer_43">
</g>
<g id="Layer_44">
</g>
<g id="Layer_45">
</g>
<g id="Layer_46">
</g>
<g id="Layer_47">
</g>
<g id="Layer_48">
</g>
<g id="Layer_49">
</g>
<g id="Layer_50">
</g>
<g id="Layer_51">
</g>
<g id="Layer_52">
</g>
<g id="Layer_53">
</g>
<g id="Layer_54">
</g>
<g id="Layer_55">
</g>
<g id="Layer_56">
</g>
<g id="Layer_57">
</g>
<g id="Layer_58">
</g>
<g id="Layer_59">
</g>
<g id="Layer_60">
</g>
<g id="Layer_61">
</g>
<g id="Layer_62">
</g>
<g id="Layer_63">
</g>
<g id="Layer_64">
</g>
<g id="Layer_65">
</g>
<g id="Layer_66">
</g>
<g id="Layer_67">
</g>
<g id="Layer_68">
	<g>
		<g>
			<g>
				<circle fill="#70D6F9" cx="132.258" cy="153.943" r="26.586"/>
			</g>
		</g>
		<g>
			<g>
				<path fill="#DAE6F1" d="M186.237,153.919h-27.394c0,0.008,0.001,0.016,0.001,0.024c0,14.683-11.903,26.585-26.586,26.585
					s-26.586-11.903-26.586-26.585c0-0.008,0.001-0.016,0.001-0.024H78.279c-8.386,0-15.247,6.861-15.247,15.247v49.586
					c0,8.386,6.861,15.247,15.247,15.247h83.003c1.382,0,2.691,0.622,3.563,1.694l13.594,16.701
					c1.772,2.178,5.298,0.925,5.298-1.884v-14.013c0-1.38,1.119-2.5,2.499-2.5c8.386,0,15.247-6.861,15.247-15.247v-49.586
					C201.483,160.78,194.622,153.919,186.237,153.919z"/>
			</g>
		</g>
		<g>
			<g>
				<circle fill="#FC657E" cx="132.258" cy="35.086" r="26.586"/>
			</g>
		</g>
		<g>
			<g>
				<path fill="#DAE6F1" d="M186.237,35.062h-27.393c0,0.008,0.001,0.016,0.001,0.024c0,14.683-11.903,26.586-26.586,26.586
					s-26.586-11.903-26.586-26.586c0-0.008,0.001-0.016,0.001-0.024H78.279c-8.386,0-15.247,6.861-15.247,15.247v49.586
					c0,8.385,6.861,15.247,15.247,15.247c1.38,0,2.499,1.119,2.499,2.499v14.013c0,2.808,3.525,4.061,5.298,1.884l13.594-16.701
					c0.872-1.072,2.181-1.694,3.563-1.694h83.003c8.386,0,15.247-6.861,15.247-15.247V50.308
					C201.483,41.923,194.622,35.062,186.237,35.062z"/>
			</g>
		</g>
		<g>
			<g>
				<path fill="#F5C84C" d="M218.95,128.396c-4.5-0.8-8-4.3-8.9-8.7c0-0.2-0.4-0.2-0.4,0c-0.9,4.4-4.4,7.9-8.9,8.7
					c-0.2,0-0.2,0.3,0,0.4c4.5,0.8,8,4.3,8.9,8.7c0,0.2,0.4,0.2,0.4,0c0.9-4.4,4.4-7.9,8.9-8.7
					C219.15,128.697,219.15,128.396,218.95,128.396z"/>
			</g>
		</g>
		<g>
			<g>
				<path fill="#FC657E" d="M99.76,6.21c-3.157-0.561-5.613-3.017-6.245-6.104c0-0.14-0.281-0.14-0.281,0
					c-0.631,3.087-3.087,5.543-6.245,6.104c-0.14,0-0.14,0.21,0,0.281c3.157,0.562,5.613,3.017,6.245,6.104
					c0,0.14,0.281,0.14,0.281,0c0.632-3.087,3.087-5.543,6.245-6.104C99.901,6.42,99.901,6.21,99.76,6.21z"/>
			</g>
		</g>
		<g>
			<g>
				<path fill="#70D6F9" d="M48.85,194.646h-2.3v-2.3c0-1.7-1.4-3.2-3.2-3.2c-1.8,0-3.2,1.4-3.2,3.2v2.3h-2.3
					c-1.7,0-3.2,1.4-3.2,3.2c0,1.8,1.4,3.2,3.2,3.2h2.3v2.3c0,1.7,1.4,3.2,3.2,3.2c1.8,0,3.2-1.4,3.2-3.2v-2.3h2.3
					c1.7,0,3.2-1.4,3.2-3.2C52.05,196.047,50.65,194.646,48.85,194.646z"/>
			</g>
		</g>
		<g>
			<g>
				<path fill="#F5C84C" d="M50.95,224c-1.878,0-3.4,1.522-3.4,3.4c0,1.878,1.522,3.4,3.4,3.4s3.4-1.522,3.4-3.4
					C54.35,225.522,52.828,224,50.95,224z"/>
			</g>
		</g>
		<g>
			<g>
				<path fill="#87D147" d="M217.95,94c-1.878,0-3.4,1.522-3.4,3.4c0,1.878,1.522,3.4,3.4,3.4s3.4-1.522,3.4-3.4
					C221.35,95.522,219.828,94,217.95,94z"/>
			</g>
		</g>
		<g>
			<g>
				<g>
					<path d="M132.258,124.857c-16.038,0-29.085,13.048-29.085,29.085c0,16.038,13.048,29.086,29.085,29.086
						c16.038,0,29.086-13.048,29.086-29.086C161.344,137.905,148.296,124.857,132.258,124.857z M132.258,178.028
						c-13.281,0-24.085-10.805-24.085-24.086c0-13.28,10.805-24.085,24.085-24.085c13.281,0,24.086,10.805,24.086,24.085
						C156.344,167.224,145.539,178.028,132.258,178.028z"/>
				</g>
			</g>
		</g>
		<g>
			<g>
				<path d="M186.236,151.419h-26.653c-1.381,0-2.5,1.119-2.5,2.5s1.119,2.5,2.5,2.5h26.653c7.028,0,12.747,5.718,12.747,12.746
					v49.586c0,7.028-5.719,12.747-12.747,12.747c-2.757,0-4.999,2.243-4.999,5v14.013c0,0.093,0,0.341-0.321,0.455
					c-0.324,0.113-0.479-0.078-0.538-0.15l-13.593-16.7c-1.353-1.663-3.358-2.617-5.503-2.617H78.279
					c-7.028,0-12.747-5.719-12.747-12.747v-49.586c0-7.028,5.718-12.746,12.747-12.746h26.471c1.381,0,2.5-1.119,2.5-2.5
					s-1.119-2.5-2.5-2.5H78.279c-9.786,0-17.747,7.961-17.747,17.746v49.586c0,9.786,7.961,17.747,17.747,17.747h83.003
					c0.633,0,1.225,0.281,1.625,0.772l13.594,16.701c1.07,1.316,2.614,2.031,4.223,2.031c0.62,0,1.251-0.106,1.867-0.326
					c2.215-0.787,3.646-2.815,3.646-5.166l-0.001-14.013c9.786,0,17.747-7.961,17.747-17.747v-49.586
					C203.983,159.38,196.022,151.419,186.236,151.419z"/>
			</g>
		</g>
		<g>
			<g>
				<path d="M177.133,191.906H87.384c-1.381,0-2.5,1.119-2.5,2.5s1.119,2.5,2.5,2.5h89.749c1.381,0,2.5-1.119,2.5-2.5
					S178.514,191.906,177.133,191.906z"/>
			</g>
		</g>
		<g>
			<g>
				<path d="M177.133,202.867H87.384c-1.381,0-2.5,1.119-2.5,2.5s1.119,2.5,2.5,2.5h89.749c1.381,0,2.5-1.119,2.5-2.5
					S178.514,202.867,177.133,202.867z"/>
			</g>
		</g>
		<g>
			<g>
				<path d="M151.218,213.828H87.384c-1.381,0-2.5,1.119-2.5,2.5s1.119,2.5,2.5,2.5h63.834c1.381,0,2.5-1.119,2.5-2.5
					S152.599,213.828,151.218,213.828z"/>
			</g>
		</g>
		<g>
			<g>
				<path d="M93.554,177.609h-5.719c-1.381,0-2.5,1.119-2.5,2.5s1.119,2.5,2.5,2.5h5.719c1.381,0,2.5-1.119,2.5-2.5
					S94.935,177.609,93.554,177.609z"/>
			</g>
		</g>
		<g>
			<g>
				<g>
					<path d="M132.258,6c-16.038,0-29.085,13.048-29.085,29.086c0,16.037,13.048,29.085,29.085,29.085
						c16.038,0,29.086-13.048,29.086-29.085C161.344,19.048,148.296,6,132.258,6z M132.258,59.171
						c-13.281,0-24.085-10.805-24.085-24.085c0-13.281,10.805-24.086,24.085-24.086c13.281,0,24.086,10.805,24.086,24.086
						C156.344,48.366,145.539,59.171,132.258,59.171z"/>
				</g>
			</g>
		</g>
		<g>
			<g>
				<path d="M186.236,32.562h-26.549c-1.381,0-2.5,1.119-2.5,2.5s1.119,2.5,2.5,2.5h26.549c7.028,0,12.747,5.719,12.747,12.747
					v49.586c0,7.028-5.719,12.746-12.747,12.746h-83.003c-2.143,0-4.148,0.953-5.502,2.616l-13.594,16.701
					c-0.059,0.072-0.217,0.262-0.537,0.151c-0.322-0.114-0.322-0.362-0.322-0.456v-14.013c0-2.757-2.243-5-5-5
					c-7.028,0-12.747-5.718-12.747-12.746V50.309c0-7.028,5.718-12.747,12.747-12.747h26.284c1.381,0,2.5-1.119,2.5-2.5
					s-1.119-2.5-2.5-2.5H78.279c-9.786,0-17.747,7.961-17.747,17.747v49.586c0,9.785,7.961,17.746,17.746,17.746v14.013
					c0,2.352,1.432,4.38,3.647,5.167c0.616,0.219,1.246,0.325,1.866,0.325c1.609,0,3.152-0.715,4.223-2.031l13.593-16.7
					c0.4-0.491,0.993-0.773,1.625-0.773h83.003c9.786,0,17.747-7.961,17.747-17.746V50.309
					C203.983,40.522,196.022,32.562,186.236,32.562z"/>
			</g>
		</g>
		<g>
			<g>
				<path d="M177.133,73.049H87.384c-1.381,0-2.5,1.119-2.5,2.5s1.119,2.5,2.5,2.5h89.749c1.381,0,2.5-1.119,2.5-2.5
					S178.514,73.049,177.133,73.049z"/>
			</g>
		</g>
		<g>
			<g>
				<path d="M177.133,84.01H87.384c-1.381,0-2.5,1.119-2.5,2.5s1.119,2.5,2.5,2.5h89.749c1.381,0,2.5-1.119,2.5-2.5
					S178.514,84.01,177.133,84.01z"/>
			</g>
		</g>
		<g>
			<g>
				<path d="M151.218,94.971H87.384c-1.381,0-2.5,1.119-2.5,2.5s1.119,2.5,2.5,2.5h63.834c1.381,0,2.5-1.119,2.5-2.5
					S152.599,94.971,151.218,94.971z"/>
			</g>
		</g>
		<g>
			<g>
				<path d="M93.554,58.752h-5.719c-1.381,0-2.5,1.119-2.5,2.5s1.119,2.5,2.5,2.5h5.719c1.381,0,2.5-1.119,2.5-2.5
					S94.935,58.752,93.554,58.752z"/>
			</g>
		</g>
		<g>
			<g>
				<path d="M134.424,19.241h-4.547c-4.512,0-8.182,3.67-8.182,8.182c0,1.381,1.119,2.5,2.5,2.5s2.5-1.119,2.5-2.5
					c0-1.754,1.428-3.182,3.182-3.182h4.547c1.754,0,3.182,1.428,3.182,3.182c0,1.755-1.428,3.183-3.182,3.183
					c-2.632,0-4.773,2.142-4.773,4.773v5.803c0,1.381,1.119,2.5,2.5,2.5s2.5-1.119,2.5-2.5v-5.579
					c4.407-0.12,7.955-3.743,7.955-8.18C142.605,22.911,138.936,19.241,134.424,19.241z"/>
			</g>
		</g>
		<g>
			<g>
				<path d="M132.15,47c-1.684,0-3.053,1.369-3.053,3.053s1.369,3.054,3.053,3.054s3.053-1.37,3.053-3.054S133.834,47,132.15,47z"/>
			</g>
		</g>
		<g>
			<g>
				<path d="M143.993,147.241c-0.977-0.977-2.559-0.977-3.535,0l-9.424,9.424l-5.118-5.119c-0.977-0.977-2.56-0.977-3.536,0
					c-0.977,0.976-0.977,2.559,0,3.535l6.887,6.887c0.469,0.469,1.104,0.732,1.768,0.732s1.299-0.264,1.768-0.732l11.191-11.191
					C144.97,149.8,144.97,148.218,143.993,147.241z"/>
			</g>
		</g>
	</g>
</g>
<g id="Layer_69">
</g>
<g id="Layer_70">
</g>
<g id="Layer_71">
</g>
<g id="Layer_72">
</g>
<g id="Layer_73">
</g>
<g id="Layer_74">
</g>
<g id="Layer_75">
</g>
<g id="Layer_76">
</g>
<g id="Layer_77">
</g>
<g id="Layer_78">
</g>
<g id="Layer_79">
</g>
<g id="Layer_80">
</g>
<g id="Layer_81">
</g>
<g id="Layer_82">
</g>
<g id="Layer_83">
</g>
<g id="Layer_84">
</g>
<g id="Layer_85">
</g>
<g id="Layer_86">
</g>
<g id="Layer_87">
</g>
<g id="Layer_88">
</g>
<g id="Layer_89">
</g>
<g id="Layer_90">
</g>
</svg>
