<svg id="Filled_stroke_cut_Ex" data-name="Filled stroke cut Ex" xmlns="http://www.w3.org/2000/svg" width="512" height="512" viewBox="0 0 512 512">
  <title>radiography- digital- x ray- tablet- bones- medical</title>
  <g>
    <g>
      <rect x="24" y="88" width="464" height="336" rx="10" ry="10" style="fill: #57cee6"/>
      <circle cx="432" cy="200" r="24" style="fill: #fdbf44"/>
    </g>
    <circle cx="104" cy="168" r="48" style="fill: #fdbf44"/>
  </g>
  <g>
    <rect x="248" y="360" width="16" height="40"/>
    <path d="M296,380v12a8,8,0,0,0,8,8h36a28.032,28.032,0,0,0,28-28V360a8,8,0,0,0-8-8H327.715A28.044,28.044,0,0,0,300,328H212a28.044,28.044,0,0,0-27.715,24H152a8,8,0,0,0-8,8v12a28.032,28.032,0,0,0,28,28h36a8,8,0,0,0,8-8V380a28.035,28.035,0,0,0-15.933-25.264A12.016,12.016,0,0,1,212,344h88a12.016,12.016,0,0,1,11.933,10.736A28.035,28.035,0,0,0,296,380Zm-96,4H172a12.013,12.013,0,0,1-12-12v-4h28a12.013,12.013,0,0,1,12,12Zm152-12a12.013,12.013,0,0,1-12,12H312v-4a12.013,12.013,0,0,1,12-12h28Z"/>
    <path d="M480,414a2,2,0,0,1-2,2H34a2,2,0,0,1-2-2V98a2,2,0,0,1,2-2H64V80H34A18.021,18.021,0,0,0,16,98V414a18.021,18.021,0,0,0,18,18H478a18.021,18.021,0,0,0,18-18V360H480Z"/>
    <path d="M478,80H80V96H478a2,2,0,0,1,2,2V344h16V98A18.021,18.021,0,0,0,478,80Z"/>
    <path d="M401.012,192H376a8,8,0,0,0-5.657,2.343l-24,24,11.314,11.314L379.314,208h21.7a32,32,0,1,0,0-16ZM432,184a16,16,0,1,1-16,16A16.019,16.019,0,0,1,432,184Z"/>
    <path d="M448,384H424v16h32a8,8,0,0,0,8-8V360H448Z"/>
    <path d="M464,152V120a8,8,0,0,0-8-8H424v16h24v24Z"/>
    <path d="M48,360v32a8,8,0,0,0,8,8H88V384H64V360Z"/>
    <rect x="48" y="288" width="56" height="16"/>
    <rect x="48" y="320" width="72" height="16"/>
    <path d="M160,168a56.013,56.013,0,1,0-31.4,50.3l37.2,31.54A37.774,37.774,0,0,0,160,270v2h16v-2a22.025,22.025,0,0,1,22-22h50v32H182a38.043,38.043,0,0,0-38,38v2h16v-2a22.025,22.025,0,0,1,22-22h66v16h16V296h66a22.025,22.025,0,0,1,22,22v2h16v-2a38.043,38.043,0,0,0-38-38H264V248h50a22.025,22.025,0,0,1,22,22v2h16v-2a38.043,38.043,0,0,0-38-38H264V200h34a22.025,22.025,0,0,1,22,22v2h16v-2a38.043,38.043,0,0,0-38-38H264V152h26a22.025,22.025,0,0,1,22,22v2h16v-2a38.043,38.043,0,0,0-38-38H264V112H248v24H222a38.043,38.043,0,0,0-38,38v2h16v-2a22.025,22.025,0,0,1,22-22h26v32H214a38.043,38.043,0,0,0-38,38v2h16v-2a22.025,22.025,0,0,1,22-22h34v32H198a37.78,37.78,0,0,0-21.01,6.351L142.235,208.88A55.859,55.859,0,0,0,160,168Zm-96,0a40,40,0,1,1,40,40A40.045,40.045,0,0,1,64,168Z"/>
    <polygon points="112 144 96 144 96 160 80 160 80 176 96 176 96 192 112 192 112 176 128 176 128 160 112 160 112 144"/>
  </g>
</svg>
