<?xml version="1.0" encoding="utf-8"?>
<!-- Generator: Adobe Illustrator 16.0.0, SVG Export Plug-In . SVG Version: 6.00 Build 0)  -->
<!DOCTYPE svg PUBLIC "-//W3C//DTD SVG 1.0//EN" "http://www.w3.org/TR/2001/REC-SVG-20010904/DTD/svg10.dtd">
<svg version="1.0" id="Layer_1" xmlns="http://www.w3.org/2000/svg" xmlns:xlink="http://www.w3.org/1999/xlink" x="0px" y="0px"
	 width="100px" height="100px" viewBox="0 0 100 100" enable-background="new 0 0 100 100" xml:space="preserve">
<path d="M50,10c-22.09,0-40,17.91-40,40c0,22.094,17.91,40,40,40c22.093,0,40-17.906,40-40C90,27.91,72.093,10,50,10z M83.333,50
	c0,3.344-0.504,6.568-1.422,9.613L52.552,47.455L40.391,18.086c3.044-0.915,6.267-1.419,9.609-1.419
	C68.411,16.667,83.333,31.592,83.333,50z M34.229,20.635l11.839,28.581L24.192,71.09c-4.7-5.744-7.525-13.086-7.525-21.09
	C16.667,37.298,23.776,26.26,34.229,20.635z M28.909,75.807l19.919-19.924l10.784,26.028c-3.047,0.918-6.27,1.422-9.612,1.422
	C41.999,83.333,34.655,80.508,28.909,75.807z M65.771,79.369l-9.609-23.201l23.203,9.609C76.267,71.533,71.526,76.27,65.771,79.369z
	"/>
</svg>
