<?xml version="1.0" encoding="utf-8"?>
<!-- Generator: Adobe Illustrator 16.0.0, SVG Export Plug-In . SVG Version: 6.00 Build 0)  -->
<!DOCTYPE svg PUBLIC "-//W3C//DTD SVG 1.0//EN" "http://www.w3.org/TR/2001/REC-SVG-20010904/DTD/svg10.dtd">
<svg version="1.0" id="Layer_1" xmlns="http://www.w3.org/2000/svg" xmlns:xlink="http://www.w3.org/1999/xlink" x="0px" y="0px"
	 width="100px" height="100px" viewBox="0 0 100 100" enable-background="new 0 0 100 100" xml:space="preserve">
<path d="M53.333,10v36.667H90C90,26.413,73.587,10,53.333,10z M60,17.412C71.198,19.961,80.036,28.799,82.588,40H60V17.412z"/>
<path d="M46.667,53.334V16.667C26.413,16.667,10,33.08,10,53.334C10,73.588,26.413,90,46.667,90s36.666-16.412,36.666-36.666H46.667
	z M16.667,53.334c0-14.252,9.99-26.218,23.333-29.255v31.917L30.618,78.64C22.246,73.308,16.667,63.972,16.667,53.334z
	 M46.667,83.333c-3.529,0-6.898-0.645-10.046-1.771L45.557,60h30.364C72.881,73.34,60.918,83.333,46.667,83.333z"/>
</svg>
