<svg id="icons" xmlns="http://www.w3.org/2000/svg" viewBox="0 0 64 64"><defs><style>.cls-1{fill:none;stroke:#000;stroke-linecap:round;stroke-linejoin:round;}</style></defs><title>radish_2</title><g id="radish_2"><path class="cls-1" d="M32,60s.67114-3.68183,9.76066-9.20458,9.077-13.20034,9.077-13.20034c0-10.40374-8.4339-14.64659-18.83765-14.64659S13.16235,27.19134,13.16235,37.59508c0,0-.01254,7.67759,9.077,13.20034S32,60,32,60Z"/><path class="cls-1" d="M28.82006,23.08317a11.7186,11.7186,0,0,0-3.2271-6.90124,4.10276,4.10276,0,0,1-4.0653-4.05133A4.06915,4.06915,0,0,1,25.593,8.0653a4.00264,4.00264,0,0,1,2.71021,1.03379,4.194,4.194,0,0,1-.13971-1.03379,4.06531,4.06531,0,0,1,8.13061,0,2.28448,2.28448,0,0,1-.06985.62866,4.17614,4.17614,0,0,1,2.17933-.62866,4.05832,4.05832,0,1,1,0,8.11663,8.97886,8.97886,0,0,0-1.69038,2.23522,12.69341,12.69341,0,0,0-1.52274,4.666"/><line class="cls-1" x1="32" y1="22.94849" x2="32.00694" y2="9.98528"/><path class="cls-1" d="M32.00073,15.57029,31.11939,14.122a5.88889,5.88889,0,0,0-3.0524-2.48541h0"/><path class="cls-1" d="M32.00073,15.57029h0a5.88886,5.88886,0,0,0,3.05241-2.48541l.88134-1.44833"/><line class="cls-1" x1="35.93462" y1="31.09104" x2="31.53211" y2="31.09104"/><line class="cls-1" x1="16.90634" y1="27.83859" x2="21.53275" y2="27.83859"/><line class="cls-1" x1="22.98775" y1="36.63332" x2="27.77952" y2="36.63332"/><line class="cls-1" x1="14.20927" y1="41.9218" x2="19.63929" y2="41.9218"/><line class="cls-1" x1="39.55687" y1="44.25396" x2="34.53418" y2="44.25396"/><line class="cls-1" x1="50.20048" y1="40.83553" x2="45.50328" y2="40.83553"/></g></svg>