<?xml version="1.0" encoding="utf-8"?>
<!-- Generator: Adobe Illustrator 24.0.0, SVG Export Plug-In . SVG Version: 6.00 Build 0)  -->
<svg version="1.1" xmlns="http://www.w3.org/2000/svg" xmlns:xlink="http://www.w3.org/1999/xlink" x="0px" y="0px"
	 viewBox="0 0 256 256" enable-background="new 0 0 256 256" xml:space="preserve">
<g id="Layer_1">
</g>
<g id="Layer_2">
</g>
<g id="Layer_3">
</g>
<g id="Layer_4">
</g>
<g id="Layer_5">
</g>
<g id="Layer_6">
</g>
<g id="Layer_7">
</g>
<g id="Layer_8">
</g>
<g id="Layer_9">
</g>
<g id="Layer_10">
</g>
<g id="Layer_11">
</g>
<g id="Layer_12">
</g>
<g id="Layer_13">
</g>
<g id="Layer_14">
</g>
<g id="Layer_15">
</g>
<g id="Layer_16">
</g>
<g id="Layer_17">
</g>
<g id="Layer_18">
</g>
<g id="Layer_19">
</g>
<g id="Layer_20">
</g>
<g id="Layer_21">
</g>
<g id="Layer_22">
</g>
<g id="Layer_23">
</g>
<g id="Layer_24">
</g>
<g id="Layer_25">
</g>
<g id="Layer_26">
</g>
<g id="Layer_27">
</g>
<g id="Layer_28">
</g>
<g id="Layer_29">
</g>
<g id="Layer_30">
</g>
<g id="Layer_31">
</g>
<g id="Layer_32">
</g>
<g id="Layer_33">
</g>
<g id="Layer_34">
</g>
<g id="Layer_35">
</g>
<g id="Layer_36">
</g>
<g id="Layer_37">
</g>
<g id="Layer_38">
</g>
<g id="Layer_39">
</g>
<g id="Layer_40">
	<g>
		<g>
			<g>
				<path fill="#EDF4FC" d="M153.974,22.802h-42.475c-2.154,0-3.901,1.746-3.901,3.901v12.965c0,2.154,1.746,3.901,3.901,3.901
					h42.475c2.154,0,3.901-1.746,3.901-3.901V26.702C157.874,24.548,156.128,22.802,153.974,22.802z"/>
			</g>
		</g>
		<g>
			<g>
				<path fill="#C7D7E5" d="M132.736,10.232c-5.734,0-10.383,4.649-10.383,10.383v2.186h20.766v-2.186
					C143.119,14.881,138.47,10.232,132.736,10.232z"/>
			</g>
		</g>
		<g>
			<g>
				<path fill="#C7D7E5" d="M122.353,43.568v17.538c3.411-0.382,6.871-0.597,10.383-0.597c3.512,0,6.973,0.215,10.384,0.597V43.568
					H122.353z"/>
			</g>
		</g>
		<g>
			<g>
				<path fill="#C7D7E5" d="M189.601,58.612c-3.129-1.829-7.145-0.775-8.971,2.352l-5.702,9.755
					c3.907,2.008,7.651,4.284,11.213,6.807l5.812-9.943C193.781,64.456,192.728,60.439,189.601,58.612z"/>
			</g>
		</g>
		<g>
			<g>
				<path fill="#C7D7E5" d="M84.842,60.964c-1.828-3.127-5.843-4.18-8.971-2.352c-3.126,1.827-4.18,5.844-2.351,8.97l5.812,9.942
					c3.561-2.523,7.306-4.798,11.212-6.806L84.842,60.964z"/>
			</g>
		</g>
		<g>
			<g>
				<circle fill="#5290DB" cx="132.735" cy="153.138" r="92.629"/>
			</g>
		</g>
		<g>
			<g>
				<circle fill="#EDF4FC" cx="132.736" cy="153.138" r="70.77"/>
			</g>
		</g>
		<g>
			<g>
				<path fill="#F5C84C" d="M157.372,143.809h-18.813c-1.433,0-2.376-1.493-1.762-2.787l12.908-27.169
					c0.756-1.591-0.404-3.428-2.166-3.428H126.99c-0.974,0-1.851,0.589-2.22,1.49l-18.477,45.171
					c-0.525,1.283,0.419,2.688,1.805,2.688h17.418c1.343,0,2.284,1.326,1.841,2.594l-11.422,32.671
					c-0.678,1.939,1.867,3.347,3.15,1.743l39.811-49.805C159.916,145.699,159.007,143.809,157.372,143.809z"/>
			</g>
		</g>
		<g>
			<g>
				<path fill="#FC657E" d="M196.346,249.51c-3.157-0.561-5.613-3.017-6.245-6.104c0-0.14-0.281-0.14-0.281,0
					c-0.631,3.087-3.087,5.543-6.245,6.104c-0.14,0-0.14,0.211,0,0.281c3.157,0.561,5.613,3.017,6.245,6.104
					c0,0.14,0.281,0.14,0.281,0c0.631-3.087,3.087-5.543,6.245-6.104C196.486,249.72,196.486,249.51,196.346,249.51z"/>
			</g>
		</g>
		<g>
			<g>
				<path fill="#F5C84C" d="M192.535,22.85c-4.5-0.8-8-4.3-8.9-8.7c0-0.2-0.4-0.2-0.4,0c-0.9,4.4-4.4,7.9-8.9,8.7
					c-0.2,0-0.2,0.3,0,0.4c4.5,0.8,8,4.3,8.9,8.7c0,0.2,0.4,0.2,0.4,0c0.9-4.4,4.4-7.9,8.9-8.7
					C192.735,23.15,192.735,22.85,192.535,22.85z"/>
			</g>
		</g>
		<g>
			<g>
				<path fill="#F5C84C" d="M31.535,105c-1.878,0-3.4,1.522-3.4,3.4c0,1.878,1.522,3.4,3.4,3.4c1.878,0,3.4-1.522,3.4-3.4
					C34.935,106.522,33.413,105,31.535,105z"/>
			</g>
		</g>
		<g>
			<g>
				<path fill="#70D6F9" d="M45.435,79.1h-2.3v-2.3c0-1.7-1.4-3.2-3.2-3.2s-3.2,1.4-3.2,3.2v2.3h-2.3c-1.7,0-3.2,1.4-3.2,3.2
					c0,1.8,1.4,3.2,3.2,3.2h2.3v2.3c0,1.7,1.4,3.2,3.2,3.2s3.2-1.4,3.2-3.2v-2.3h2.3c1.7,0,3.2-1.4,3.2-3.2
					C48.635,80.5,47.235,79.1,45.435,79.1z"/>
			</g>
		</g>
		<g>
			<g>
				<path fill="#87D147" d="M163.535,0c-1.878,0-3.4,1.522-3.4,3.4c0,1.878,1.522,3.4,3.4,3.4c1.878,0,3.4-1.522,3.4-3.4
					C166.935,1.522,165.413,0,163.535,0z"/>
			</g>
		</g>
		<g>
			<g>
				<path d="M132.736,80.961c-1.381,0-2.5,1.119-2.5,2.5v5.465c0,1.381,1.119,2.5,2.5,2.5s2.5-1.119,2.5-2.5v-5.465
					C135.236,82.081,134.117,80.961,132.736,80.961z"/>
			</g>
		</g>
		<g>
			<g>
				<path d="M132.736,214.85c-1.381,0-2.5,1.119-2.5,2.5v5.465c0,1.381,1.119,2.5,2.5,2.5s2.5-1.119,2.5-2.5v-5.465
					C135.236,215.969,134.117,214.85,132.736,214.85z"/>
			</g>
		</g>
		<g>
			<g>
				<path d="M102.795,96.279l-2.732-4.732c-0.69-1.197-2.222-1.603-3.415-0.915c-1.195,0.69-1.605,2.219-0.915,3.415l2.732,4.732
					c0.463,0.802,1.304,1.25,2.167,1.25c0.425,0,0.854-0.108,1.248-0.335C103.075,99.003,103.485,97.475,102.795,96.279z"/>
			</g>
		</g>
		<g>
			<g>
				<path d="M169.739,212.23l-2.732-4.732c-0.69-1.197-2.222-1.604-3.415-0.915c-1.195,0.69-1.605,2.219-0.915,3.415l2.732,4.732
					c0.463,0.802,1.304,1.25,2.167,1.25c0.425,0,0.854-0.108,1.248-0.335C170.02,214.955,170.43,213.426,169.739,212.23z"/>
			</g>
		</g>
		<g>
			<g>
				<path d="M78.377,118.867l-4.733-2.732c-1.193-0.69-2.725-0.281-3.415,0.915c-0.69,1.196-0.28,2.725,0.915,3.415l4.733,2.732
					c0.394,0.228,0.823,0.335,1.248,0.335c0.863,0,1.704-0.449,2.167-1.25C79.982,121.086,79.572,119.557,78.377,118.867z"/>
			</g>
		</g>
		<g>
			<g>
				<path d="M194.328,185.812l-4.733-2.732c-1.193-0.689-2.725-0.281-3.415,0.915c-0.69,1.196-0.28,2.725,0.915,3.415l4.733,2.732
					c0.394,0.228,0.823,0.335,1.248,0.335c0.863,0,1.704-0.449,2.167-1.25C195.934,188.031,195.523,186.501,194.328,185.812z"/>
			</g>
		</g>
		<g>
			<g>
				<path d="M68.523,150.638h-5.465c-1.381,0-2.5,1.119-2.5,2.5s1.119,2.5,2.5,2.5h5.465c1.381,0,2.5-1.119,2.5-2.5
					S69.904,150.638,68.523,150.638z"/>
			</g>
		</g>
		<g>
			<g>
				<path d="M202.413,150.638h-5.465c-1.381,0-2.5,1.119-2.5,2.5s1.119,2.5,2.5,2.5h5.465c1.381,0,2.5-1.119,2.5-2.5
					S203.794,150.638,202.413,150.638z"/>
			</g>
		</g>
		<g>
			<g>
				<path d="M79.292,183.994c-0.69-1.196-2.223-1.604-3.415-0.915l-4.733,2.732c-1.195,0.69-1.605,2.219-0.915,3.415
					c0.463,0.802,1.304,1.25,2.167,1.25c0.425,0,0.854-0.108,1.248-0.335l4.733-2.732C79.572,186.719,79.982,185.19,79.292,183.994z
					"/>
			</g>
		</g>
		<g>
			<g>
				<path d="M195.243,117.05c-0.69-1.197-2.222-1.605-3.415-0.915l-4.733,2.732c-1.195,0.69-1.605,2.219-0.915,3.415
					c0.463,0.802,1.304,1.25,2.167,1.25c0.425,0,0.854-0.108,1.248-0.335l4.733-2.732
					C195.523,119.775,195.934,118.246,195.243,117.05z"/>
			</g>
		</g>
		<g>
			<g>
				<path d="M101.88,206.583c-1.193-0.69-2.725-0.282-3.415,0.915l-2.732,4.732c-0.69,1.196-0.28,2.725,0.915,3.415
					c0.394,0.228,0.823,0.335,1.248,0.335c0.863,0,1.704-0.448,2.167-1.25l2.732-4.732
					C103.485,208.802,103.075,207.273,101.88,206.583z"/>
			</g>
		</g>
		<g>
			<g>
				<path d="M168.824,90.631c-1.193-0.689-2.725-0.282-3.415,0.915l-2.732,4.732c-0.69,1.196-0.28,2.725,0.915,3.415
					c0.394,0.228,0.823,0.335,1.248,0.335c0.863,0,1.704-0.448,2.167-1.25l2.732-4.732C170.43,92.851,170.02,91.322,168.824,90.631z
					"/>
			</g>
		</g>
		<g>
			<g>
				<g>
					<path d="M153.974,20.302h-42.476c-3.529,0-6.4,2.871-6.4,6.4v12.965c0,3.529,2.871,6.4,6.4,6.4h42.476
						c3.529,0,6.4-2.871,6.4-6.4V26.702C160.374,23.173,157.503,20.302,153.974,20.302z M155.374,39.667c0,0.772-0.628,1.4-1.4,1.4
						h-42.476c-0.772,0-1.4-0.628-1.4-1.4V26.702c0-0.772,0.628-1.4,1.4-1.4h42.476c0.772,0,1.4,0.628,1.4,1.4V39.667z"/>
				</g>
			</g>
		</g>
		<g>
			<g>
				<path d="M132.736,7.732c-7.104,0-12.884,5.779-12.884,12.883v1.447c0,1.381,1.119,2.5,2.5,2.5s2.5-1.119,2.5-2.5v-1.447
					c0-4.347,3.537-7.883,7.884-7.883s7.883,3.537,7.883,7.883v1.541c0,1.381,1.119,2.5,2.5,2.5s2.5-1.119,2.5-2.5v-1.541
					C145.619,13.512,139.84,7.732,132.736,7.732z"/>
			</g>
		</g>
		<g>
			<g>
				<g>
					<path d="M132.735,58.009c-52.454,0-95.129,42.675-95.129,95.129c0,52.455,42.675,95.129,95.129,95.129
						s95.129-42.675,95.129-95.129C227.864,100.684,185.189,58.009,132.735,58.009z M132.735,243.268
						c-49.697,0-90.129-40.432-90.129-90.129c0-49.697,40.432-90.129,90.129-90.129s90.129,40.432,90.129,90.129
						C222.864,202.836,182.433,243.268,132.735,243.268z"/>
				</g>
			</g>
		</g>
		<g>
			<g>
				<path d="M143.119,42.083c-1.381,0-2.5,1.119-2.5,2.5v15.605c0,1.381,1.119,2.5,2.5,2.5s2.5-1.119,2.5-2.5V44.583
					C145.619,43.202,144.5,42.083,143.119,42.083z"/>
			</g>
		</g>
		<g>
			<g>
				<path d="M122.353,42.083c-1.381,0-2.5,1.119-2.5,2.5v15.927c0,1.381,1.119,2.5,2.5,2.5s2.5-1.119,2.5-2.5V44.583
					C124.853,43.202,123.733,42.083,122.353,42.083z"/>
			</g>
		</g>
		<g>
			<g>
				<path d="M195.054,61.976c-0.614-2.34-2.103-4.301-4.19-5.522c-2.09-1.222-4.527-1.556-6.871-0.943
					c-2.34,0.614-4.301,2.103-5.521,4.191l-5.203,8.9c-0.697,1.192-0.296,2.723,0.896,3.42c1.19,0.696,2.723,0.296,3.42-0.896
					l5.204-8.901c0.546-0.936,1.424-1.603,2.472-1.877c1.048-0.274,2.142-0.125,3.079,0.423c0.936,0.547,1.603,1.425,1.877,2.474
					c0.275,1.049,0.125,2.142-0.422,3.077l-5.37,9.185c-0.697,1.192-0.296,2.723,0.896,3.42c0.396,0.232,0.831,0.342,1.26,0.342
					c0.858,0,1.695-0.443,2.16-1.239l5.37-9.185C195.332,66.755,195.667,64.316,195.054,61.976z"/>
			</g>
		</g>
		<g>
			<g>
				<path d="M92.221,68.633L87,59.702c-2.52-4.311-8.078-5.771-12.392-3.249c-2.089,1.221-3.576,3.182-4.19,5.522
					c-0.613,2.34-0.278,4.78,0.943,6.868l5.293,9.056c0.465,0.795,1.301,1.239,2.16,1.239c0.429,0,0.863-0.11,1.26-0.342
					c1.191-0.697,1.594-2.228,0.896-3.42l-5.293-9.056c-0.548-0.936-0.697-2.028-0.423-3.077s0.941-1.927,1.877-2.474
					c1.932-1.128,4.423-0.476,5.552,1.456l5.221,8.931c0.697,1.193,2.229,1.594,3.42,0.896
					C92.517,71.356,92.918,69.825,92.221,68.633z"/>
			</g>
		</g>
		<g>
			<g>
				<g>
					<path d="M132.736,79.868c-40.401,0-73.271,32.869-73.271,73.27c0,40.401,32.869,73.27,73.271,73.27s73.27-32.869,73.27-73.27
						C206.006,112.737,173.138,79.868,132.736,79.868z M132.736,221.408c-37.645,0-68.271-30.625-68.271-68.27
						s30.626-68.27,68.271-68.27c37.644,0,68.27,30.626,68.27,68.27S170.38,221.408,132.736,221.408z"/>
				</g>
			</g>
		</g>
		<g>
			<g>
				<g>
					<path d="M132.735,69.868c-45.915,0-83.27,37.355-83.27,83.27s37.354,83.27,83.27,83.27s83.271-37.354,83.271-83.27
						S178.65,69.868,132.735,69.868z M132.735,231.408c-43.158,0-78.27-35.111-78.27-78.27s35.111-78.27,78.27-78.27
						s78.271,35.112,78.271,78.27S175.894,231.408,132.735,231.408z"/>
				</g>
			</g>
		</g>
		<g>
			<g>
				<g>
					<path d="M161.383,143.83c-0.748-1.555-2.285-2.521-4.011-2.521h-17.943l12.534-26.383c0.726-1.527,0.619-3.291-0.284-4.719
						c-0.902-1.429-2.45-2.281-4.14-2.281H126.99c-1.997,0-3.777,1.194-4.534,3.044l-18.479,45.171
						c-0.562,1.375-0.402,2.932,0.426,4.165c0.828,1.233,2.209,1.969,3.694,1.969h16.644l-11.166,31.939
						c-0.71,2.029,0.107,4.173,1.988,5.214c0.68,0.375,1.407,0.558,2.122,0.558c1.266,0,2.494-0.569,3.352-1.642l39.812-49.806
						C161.926,147.188,162.131,145.385,161.383,143.83z M119.599,192.134l10.118-28.94c0.475-1.359,0.261-2.871-0.572-4.045
						s-2.189-1.875-3.629-1.875h-16.6l18.142-44.35h20.32l-12.839,27.023c-0.659,1.387-0.563,2.989,0.257,4.288
						s2.227,2.073,3.763,2.073h17.67L119.599,192.134z"/>
				</g>
			</g>
		</g>
	</g>
</g>
<g id="Layer_41">
</g>
<g id="Layer_42">
</g>
<g id="Layer_43">
</g>
<g id="Layer_44">
</g>
<g id="Layer_45">
</g>
<g id="Layer_46">
</g>
<g id="Layer_47">
</g>
<g id="Layer_48">
</g>
<g id="Layer_49">
</g>
<g id="Layer_50">
</g>
<g id="Layer_51">
</g>
<g id="Layer_52">
</g>
<g id="Layer_53">
</g>
<g id="Layer_54">
</g>
<g id="Layer_55">
</g>
<g id="Layer_56">
</g>
<g id="Layer_57">
</g>
<g id="Layer_58">
</g>
<g id="Layer_59">
</g>
<g id="Layer_60">
</g>
<g id="Layer_61">
</g>
<g id="Layer_62">
</g>
<g id="Layer_63">
</g>
<g id="Layer_64">
</g>
<g id="Layer_65">
</g>
<g id="Layer_66">
</g>
<g id="Layer_67">
</g>
<g id="Layer_68">
</g>
<g id="Layer_69">
</g>
<g id="Layer_70">
</g>
<g id="Layer_71">
</g>
<g id="Layer_72">
</g>
<g id="Layer_73">
</g>
<g id="Layer_74">
</g>
<g id="Layer_75">
</g>
<g id="Layer_76">
</g>
<g id="Layer_77">
</g>
<g id="Layer_78">
</g>
<g id="Layer_79">
</g>
<g id="Layer_80">
</g>
<g id="Layer_81">
</g>
<g id="Layer_82">
</g>
<g id="Layer_83">
</g>
<g id="Layer_84">
</g>
<g id="Layer_85">
</g>
<g id="Layer_86">
</g>
<g id="Layer_87">
</g>
<g id="Layer_88">
</g>
<g id="Layer_89">
</g>
<g id="Layer_90">
</g>
</svg>
