<?xml version="1.0" encoding="utf-8"?>
<!-- Generator: Adobe Illustrator 24.0.0, SVG Export Plug-In . SVG Version: 6.00 Build 0)  -->
<svg version="1.1" xmlns="http://www.w3.org/2000/svg" xmlns:xlink="http://www.w3.org/1999/xlink" x="0px" y="0px"
	 viewBox="0 0 256 256" enable-background="new 0 0 256 256" xml:space="preserve">
<g id="Layer_1">
</g>
<g id="Layer_2">
</g>
<g id="Layer_3">
</g>
<g id="Layer_4">
</g>
<g id="Layer_5">
</g>
<g id="Layer_6">
</g>
<g id="Layer_7">
</g>
<g id="Layer_8">
</g>
<g id="Layer_9">
</g>
<g id="Layer_10">
</g>
<g id="Layer_11">
</g>
<g id="Layer_12">
</g>
<g id="Layer_13">
</g>
<g id="Layer_14">
</g>
<g id="Layer_15">
</g>
<g id="Layer_16">
</g>
<g id="Layer_17">
</g>
<g id="Layer_18">
	<g>
		<g>
			<g>
				<path fill="#FCA265" d="M180.332,127.064H52.384c-1.887,0-3.417,1.53-3.417,3.417v15.618c0,1.887,1.53,3.417,3.417,3.417
					h127.948c1.887,0,3.417-1.53,3.417-3.417v-15.618C183.749,128.594,182.219,127.064,180.332,127.064z"/>
			</g>
		</g>
		<g>
			<g>
				<path fill="#B2E26D" d="M225.53,128.727c-2.005-2.004-5.255-2.004-7.26,0l-8.237,8.237l-4.129-4.129
					c-2.005-2.004-5.255-2.004-7.26,0c-2.005,2.005-2.005,5.255,0,7.26l7.759,7.759c1.003,1.002,2.316,1.503,3.63,1.503
					c1.314,0,2.627-0.501,3.63-1.503l11.867-11.867C227.534,133.982,227.534,130.732,225.53,128.727z"/>
			</g>
		</g>
		<g>
			<g>
				<path fill="#F5C84C" d="M180.332,169.564H52.384c-1.887,0-3.417,1.53-3.417,3.417v15.618c0,1.887,1.53,3.417,3.417,3.417
					h127.948c1.887,0,3.417-1.53,3.417-3.417v-15.618C183.749,171.094,182.219,169.564,180.332,169.564z"/>
			</g>
		</g>
		<g>
			<g>
				<path fill="#B2E26D" d="M225.53,171.227c-2.005-2.004-5.255-2.004-7.26,0l-8.237,8.237l-4.129-4.129
					c-2.005-2.004-5.255-2.004-7.26,0c-2.005,2.005-2.005,5.255,0,7.26l7.759,7.759c1.003,1.002,2.316,1.503,3.63,1.503
					c1.314,0,2.627-0.501,3.63-1.503l11.867-11.867C227.534,176.482,227.534,173.232,225.53,171.227z"/>
			</g>
		</g>
		<g>
			<g>
				<path fill="#70D6F9" d="M180.332,212.064H52.384c-1.887,0-3.417,1.53-3.417,3.417v15.618c0,1.887,1.53,3.417,3.417,3.417
					h127.948c1.887,0,3.417-1.53,3.417-3.417v-15.618C183.749,213.594,182.219,212.064,180.332,212.064z"/>
			</g>
		</g>
		<g>
			<g>
				<path fill="#B2E26D" d="M225.53,213.727c-2.005-2.004-5.255-2.004-7.26,0l-8.237,8.237l-4.129-4.129
					c-2.005-2.004-5.255-2.004-7.26,0c-2.005,2.005-2.005,5.255,0,7.26l7.759,7.759c1.003,1.002,2.316,1.503,3.63,1.503
					c1.314,0,2.627-0.501,3.63-1.503l11.867-11.867C227.534,218.982,227.534,215.732,225.53,213.727z"/>
			</g>
		</g>
		<g>
			<g>
				<path fill="#F5C84C" d="M122.61,249.51c-3.158-0.561-5.613-3.017-6.245-6.104c0-0.14-0.281-0.14-0.281,0
					c-0.631,3.087-3.087,5.543-6.245,6.104c-0.14,0-0.14,0.211,0,0.281c3.158,0.561,5.613,3.017,6.245,6.104
					c0,0.14,0.281,0.14,0.281,0c0.631-3.087,3.087-5.543,6.245-6.104C122.75,249.72,122.75,249.51,122.61,249.51z"/>
			</g>
		</g>
		<g>
			<g>
				<path fill="#70D6F9" d="M78.8,28.75c-4.5-0.8-8-4.3-8.9-8.7c0-0.2-0.4-0.2-0.4,0c-0.9,4.4-4.4,7.9-8.9,8.7c-0.2,0-0.2,0.3,0,0.4
					c4.5,0.8,8,4.3,8.9,8.7c0,0.2,0.4,0.2,0.4,0c0.9-4.4,4.4-7.9,8.9-8.7C79,29.05,79,28.75,78.8,28.75z"/>
			</g>
		</g>
		<g>
			<g>
				<path fill="#87D147" d="M89.8,0c-1.878,0-3.4,1.522-3.4,3.4c0,1.878,1.522,3.4,3.4,3.4c1.878,0,3.4-1.522,3.4-3.4
					C93.2,1.522,91.678,0,89.8,0z"/>
			</g>
		</g>
		<g>
			<g>
				<path fill="#FC657E" d="M202.7,87.1h-2.3v-2.3c0-1.7-1.4-3.2-3.2-3.2S194,83,194,84.8v2.3h-2.3c-1.7,0-3.2,1.4-3.2,3.2
					s1.4,3.2,3.2,3.2h2.3v2.3c0,1.7,1.4,3.2,3.2,3.2s3.2-1.4,3.2-3.2v-2.3h2.3c1.7,0,3.2-1.4,3.2-3.2S204.5,87.1,202.7,87.1z"/>
			</g>
		</g>
		<g>
			<g>
				<path fill="#70D6F9" d="M181.8,105c-1.878,0-3.4,1.522-3.4,3.4c0,1.878,1.522,3.4,3.4,3.4c1.878,0,3.4-1.522,3.4-3.4
					C185.2,106.522,183.678,105,181.8,105z"/>
			</g>
		</g>
		<g>
			<g>
				<path fill="#EDF4FC" d="M141.637,11.259l-10.401-7.692c-1.923-1.422-4.549-1.422-6.472,0l-10.401,7.692
					c-4.888,3.666-7.764,9.419-7.764,15.529v63.778h42.802V26.788C149.401,20.678,146.524,14.925,141.637,11.259z"/>
			</g>
		</g>
		<g>
			<g>
				<path fill="#F5C84C" d="M162.827,63.33l-13.426-10.185v37.421h14.807c1.968,0,3.564-1.595,3.564-3.564V73.288
					C167.772,69.378,165.942,65.693,162.827,63.33z"/>
			</g>
		</g>
		<g>
			<g>
				<path fill="#F5C84C" d="M93.173,63.33c-3.115,2.363-4.945,6.048-4.945,9.958v13.714c0,1.968,1.595,3.564,3.564,3.564h14.807
					V53.145L93.173,63.33z"/>
			</g>
		</g>
		<g>
			<g>
				
					<ellipse transform="matrix(0.3827 -0.9239 0.9239 0.3827 45.0375 140.9607)" fill="#70D6F9" cx="128" cy="36.779" rx="9.469" ry="9.469"/>
			</g>
		</g>
		<g>
			<g>
				<path fill="#FC657E" d="M141.637,11.259l-10.401-7.692c-1.923-1.422-4.549-1.422-6.472,0l-10.401,7.692
					c-1.206,0.905-2.288,1.937-3.236,3.07c4.936,2.949,10.705,4.647,16.873,4.647c6.168,0,11.937-1.699,16.873-4.647
					C143.925,13.196,142.843,12.163,141.637,11.259z"/>
			</g>
		</g>
		<g>
			<g>
				<g>
					<path d="M143.137,9.259c-0.005-0.003-0.009-0.007-0.014-0.01l-10.4-7.692c-2.823-2.089-6.62-2.089-9.445,0l-10.415,7.702
						c-5.488,4.116-8.764,10.669-8.764,17.529v63.778c0,1.381,1.119,2.5,2.5,2.5h42.802c1.381,0,2.5-1.119,2.5-2.5V26.788
						C151.901,19.928,148.625,13.375,143.137,9.259z M146.901,88.065h-37.802V26.788c0-5.294,2.529-10.352,6.75-13.519l10.401-7.692
						c1.046-0.774,2.453-0.773,3.499,0l10.393,7.686c4.232,3.177,6.759,8.232,6.759,13.524V88.065z"/>
				</g>
			</g>
		</g>
		<g>
			<g>
				<path d="M164.338,61.338l-13.152-9.977c-1.102-0.835-2.668-0.619-3.503,0.481c-0.834,1.1-0.619,2.668,0.481,3.502l13.152,9.977
					c2.477,1.879,3.955,4.857,3.955,7.967v13.713c0,0.587-0.478,1.064-1.063,1.064h-14.807c-1.381,0-2.5,1.119-2.5,2.5
					s1.119,2.5,2.5,2.5h14.807c3.344,0,6.063-2.72,6.063-6.064V73.288C170.271,68.624,168.054,64.156,164.338,61.338z"/>
			</g>
		</g>
		<g>
			<g>
				<path d="M106.599,88.065H91.792c-0.587,0-1.064-0.478-1.064-1.064V73.288c0-3.109,1.479-6.087,3.956-7.967l13.205-10.017
					c1.1-0.834,1.315-2.403,0.481-3.502c-0.834-1.101-2.403-1.316-3.502-0.481L91.663,61.338c-3.716,2.819-5.935,7.286-5.935,11.95
					v13.713c0,3.344,2.72,6.064,6.064,6.064h14.807c1.381,0,2.5-1.119,2.5-2.5S107.98,88.065,106.599,88.065z"/>
			</g>
		</g>
		<g>
			<g>
				<g>
					<path d="M128,24.809c-6.6,0-11.97,5.37-11.97,11.97S121.4,48.748,128,48.748c6.601,0,11.97-5.369,11.97-11.969
						S134.601,24.809,128,24.809z M128,43.748c-3.843,0-6.97-3.126-6.97-6.969c0-3.843,3.126-6.97,6.97-6.97
						c3.843,0,6.97,3.126,6.97,6.97C134.97,40.622,131.843,43.748,128,43.748z"/>
				</g>
			</g>
		</g>
		<g>
			<g>
				<path d="M146.474,13.423c-0.685-1.2-2.209-1.617-3.411-0.933c-4.569,2.607-9.777,3.985-15.062,3.985
					c-5.246,0-10.422-1.359-14.968-3.931c-1.202-0.681-2.728-0.257-3.407,0.945c-0.68,1.202-0.257,2.727,0.945,3.407
					c5.295,2.996,11.323,4.58,17.43,4.58c6.152,0,12.218-1.605,17.541-4.643C146.74,16.149,147.157,14.623,146.474,13.423z"/>
			</g>
		</g>
		<g>
			<g>
				<path d="M128,55.49c-1.381,0-2.5,1.119-2.5,2.5v31.575c0,1.381,1.119,2.5,2.5,2.5s2.5-1.119,2.5-2.5V57.99
					C130.5,56.609,129.381,55.49,128,55.49z"/>
			</g>
		</g>
		<g>
			<g>
				<g>
					<path d="M113.917,99.598c-1.381,0-2.5,1.119-2.5,2.5v12.419c0,1.381,1.119,2.5,2.5,2.5s2.5-1.119,2.5-2.5v-12.419
						C116.417,100.717,115.298,99.598,113.917,99.598z"/>
				</g>
			</g>
			<g>
				<g>
					<path d="M128,99.598c-1.381,0-2.5,1.119-2.5,2.5v12.419c0,1.381,1.119,2.5,2.5,2.5s2.5-1.119,2.5-2.5v-12.419
						C130.5,100.717,129.381,99.598,128,99.598z"/>
				</g>
			</g>
			<g>
				<g>
					<path d="M142.082,99.598c-1.381,0-2.5,1.119-2.5,2.5v12.419c0,1.381,1.119,2.5,2.5,2.5s2.5-1.119,2.5-2.5v-12.419
						C144.582,100.717,143.463,99.598,142.082,99.598z"/>
				</g>
			</g>
		</g>
		<g>
			<g>
				<g>
					<path d="M180.332,124.564H52.384c-3.263,0-5.917,2.655-5.917,5.917V146.1c0,3.263,2.655,5.917,5.917,5.917h127.948
						c3.263,0,5.917-2.654,5.917-5.917v-15.618C186.249,127.219,183.595,124.564,180.332,124.564z M181.249,146.1
						c0,0.506-0.411,0.917-0.917,0.917H52.384c-0.506,0-0.917-0.411-0.917-0.917v-15.618c0-0.506,0.412-0.917,0.917-0.917h127.948
						c0.506,0,0.917,0.412,0.917,0.917V146.1z"/>
				</g>
			</g>
		</g>
		<g>
			<g>
				<g>
					<g>
						<path d="M227.297,126.958c-2.976-2.974-7.817-2.976-10.795,0l-6.47,6.469l-2.361-2.362c-2.977-2.975-7.819-2.975-10.796,0
							c-2.977,2.976-2.977,7.819,0,10.796l7.76,7.759c1.442,1.441,3.359,2.235,5.397,2.235c2.04,0,3.957-0.794,5.397-2.236
							l11.867-11.867C230.273,134.778,230.273,129.936,227.297,126.958z M223.762,134.22l-11.868,11.867
							c-0.991,0.994-2.727,0.996-3.724,0l-7.76-7.759c-1.026-1.027-1.026-2.698,0-3.724c0.514-0.514,1.188-0.771,1.863-0.771
							s1.349,0.256,1.862,0.77l4.129,4.129c0.469,0.469,1.104,0.732,1.768,0.732s1.299-0.263,1.768-0.732l8.237-8.237
							c1.027-1.026,2.697-1.026,3.725,0C224.789,131.521,224.789,133.192,223.762,134.22z"/>
					</g>
				</g>
			</g>
		</g>
		<g>
			<g>
				<g>
					<path d="M180.332,167.064H52.384c-3.263,0-5.917,2.655-5.917,5.917V188.6c0,3.263,2.655,5.917,5.917,5.917h127.948
						c3.263,0,5.917-2.654,5.917-5.917v-15.618C186.249,169.719,183.595,167.064,180.332,167.064z M181.249,188.6
						c0,0.506-0.411,0.917-0.917,0.917H52.384c-0.506,0-0.917-0.411-0.917-0.917v-15.618c0-0.506,0.412-0.917,0.917-0.917h127.948
						c0.506,0,0.917,0.412,0.917,0.917V188.6z"/>
				</g>
			</g>
		</g>
		<g>
			<g>
				<g>
					<g>
						<path d="M227.297,169.458c-2.976-2.975-7.817-2.976-10.795,0l-6.47,6.469l-2.361-2.362c-2.977-2.975-7.819-2.975-10.796,0
							c-2.977,2.976-2.977,7.819,0,10.796l7.76,7.759c1.442,1.441,3.359,2.235,5.397,2.235c2.04,0,3.957-0.794,5.397-2.236
							l11.867-11.867C230.273,177.278,230.273,172.436,227.297,169.458z M223.762,176.72l-11.868,11.867
							c-0.991,0.994-2.727,0.996-3.724,0l-7.76-7.759c-1.026-1.027-1.026-2.698,0-3.724c0.514-0.514,1.188-0.771,1.863-0.771
							s1.349,0.256,1.862,0.77l4.129,4.129c0.469,0.469,1.104,0.732,1.768,0.732s1.299-0.263,1.768-0.732l8.237-8.237
							c1.027-1.026,2.697-1.026,3.725,0C224.789,174.021,224.789,175.692,223.762,176.72z"/>
					</g>
				</g>
			</g>
		</g>
		<g>
			<g>
				<g>
					<path d="M180.332,209.564H52.384c-3.263,0-5.917,2.655-5.917,5.917V231.1c0,3.263,2.655,5.917,5.917,5.917h127.948
						c3.263,0,5.917-2.654,5.917-5.917v-15.618C186.249,212.219,183.595,209.564,180.332,209.564z M181.249,231.1
						c0,0.506-0.411,0.917-0.917,0.917H52.384c-0.506,0-0.917-0.411-0.917-0.917v-15.618c0-0.506,0.412-0.917,0.917-0.917h127.948
						c0.506,0,0.917,0.412,0.917,0.917V231.1z"/>
				</g>
			</g>
		</g>
		<g>
			<g>
				<g>
					<g>
						<path d="M227.297,211.958c-2.976-2.974-7.817-2.976-10.795,0l-6.47,6.469l-2.361-2.362c-2.977-2.975-7.819-2.975-10.796,0
							c-2.977,2.976-2.977,7.819,0,10.796l7.76,7.759c1.442,1.441,3.359,2.235,5.397,2.235c2.04,0,3.957-0.794,5.397-2.236
							l11.867-11.867C230.273,219.778,230.273,214.936,227.297,211.958z M223.762,219.22l-11.868,11.867
							c-0.991,0.994-2.727,0.996-3.724,0l-7.76-7.759c-1.026-1.027-1.026-2.698,0-3.724c0.514-0.514,1.188-0.771,1.863-0.771
							s1.349,0.256,1.862,0.77l4.129,4.129c0.469,0.469,1.104,0.732,1.768,0.732s1.299-0.263,1.768-0.732l8.237-8.237
							c1.027-1.026,2.697-1.026,3.725,0C224.789,216.521,224.789,218.192,223.762,219.22z"/>
					</g>
				</g>
			</g>
		</g>
	</g>
</g>
<g id="Layer_19">
</g>
<g id="Layer_20">
</g>
<g id="Layer_21">
</g>
<g id="Layer_22">
</g>
<g id="Layer_23">
</g>
<g id="Layer_24">
</g>
<g id="Layer_25">
</g>
<g id="Layer_26">
</g>
<g id="Layer_27">
</g>
<g id="Layer_28">
</g>
<g id="Layer_29">
</g>
<g id="Layer_30">
</g>
<g id="Layer_31">
</g>
<g id="Layer_32">
</g>
<g id="Layer_33">
</g>
<g id="Layer_34">
</g>
<g id="Layer_35">
</g>
<g id="Layer_36">
</g>
<g id="Layer_37">
</g>
<g id="Layer_38">
</g>
<g id="Layer_39">
</g>
<g id="Layer_40">
</g>
<g id="Layer_41">
</g>
<g id="Layer_42">
</g>
<g id="Layer_43">
</g>
<g id="Layer_44">
</g>
<g id="Layer_45">
</g>
<g id="Layer_46">
</g>
<g id="Layer_47">
</g>
<g id="Layer_48">
</g>
<g id="Layer_49">
</g>
<g id="Layer_50">
</g>
<g id="Layer_51">
</g>
<g id="Layer_52">
</g>
<g id="Layer_53">
</g>
<g id="Layer_54">
</g>
<g id="Layer_55">
</g>
<g id="Layer_56">
</g>
<g id="Layer_57">
</g>
<g id="Layer_58">
</g>
<g id="Layer_59">
</g>
<g id="Layer_60">
</g>
<g id="Layer_61">
</g>
<g id="Layer_62">
</g>
<g id="Layer_63">
</g>
<g id="Layer_64">
</g>
<g id="Layer_65">
</g>
<g id="Layer_66">
</g>
<g id="Layer_67">
</g>
<g id="Layer_68">
</g>
<g id="Layer_69">
</g>
<g id="Layer_70">
</g>
<g id="Layer_71">
</g>
<g id="Layer_72">
</g>
<g id="Layer_73">
</g>
<g id="Layer_74">
</g>
<g id="Layer_75">
</g>
<g id="Layer_76">
</g>
<g id="Layer_77">
</g>
<g id="Layer_78">
</g>
<g id="Layer_79">
</g>
<g id="Layer_80">
</g>
<g id="Layer_81">
</g>
<g id="Layer_82">
</g>
<g id="Layer_83">
</g>
<g id="Layer_84">
</g>
<g id="Layer_85">
</g>
<g id="Layer_86">
</g>
<g id="Layer_87">
</g>
<g id="Layer_88">
</g>
<g id="Layer_89">
</g>
<g id="Layer_90">
</g>
</svg>
