<?xml version="1.0" encoding="utf-8"?>
<!-- Generator: Adobe Illustrator 24.0.0, SVG Export Plug-In . SVG Version: 6.00 Build 0)  -->
<svg version="1.1" xmlns="http://www.w3.org/2000/svg" xmlns:xlink="http://www.w3.org/1999/xlink" x="0px" y="0px"
	 viewBox="0 0 256 256" enable-background="new 0 0 256 256" xml:space="preserve">
<g id="Layer_1">
</g>
<g id="Layer_2">
</g>
<g id="Layer_3">
</g>
<g id="Layer_4">
</g>
<g id="Layer_5">
</g>
<g id="Layer_6">
</g>
<g id="Layer_7">
</g>
<g id="Layer_8">
</g>
<g id="Layer_9">
</g>
<g id="Layer_10">
</g>
<g id="Layer_11">
</g>
<g id="Layer_12">
</g>
<g id="Layer_13">
</g>
<g id="Layer_14">
</g>
<g id="Layer_15">
</g>
<g id="Layer_16">
</g>
<g id="Layer_17">
	<g>
		<g>
			<g>
				<circle fill="#70D6F9" cx="128" cy="35" r="32.5"/>
			</g>
		</g>
		<g>
			<g>
				<path fill="#70D6F9" d="M168.556,199h-66.071l5.414-5.414c2.343-2.343,2.343-6.142,0-8.485c-2.343-2.343-6.143-2.343-8.485,0
					l-15.657,15.657c-2.343,2.343-2.343,6.142,0,8.485l15.657,15.657c2.343,2.343,6.142,2.343,8.485,0
					c2.343-2.343,2.343-6.142,0-8.485L102.485,211h66.071c3.313,0,6-2.687,6-6S171.87,199,168.556,199z"/>
			</g>
		</g>
		<g>
			<g>
				<path fill="#3CAADC" d="M95.332,96.619l-5.282-21.503c-0.791-3.218-4.041-5.186-7.258-4.396L61.29,76.002
					c-3.218,0.791-5.186,4.04-4.396,7.258c0.791,3.219,4.041,5.186,7.258,4.396l7.436-1.827l-34.227,56.516
					c-1.716,2.834-0.81,6.523,2.024,8.24c2.834,1.717,6.523,0.81,8.24-2.024l34.226-56.515l1.826,7.436
					c0.787,3.205,4.027,5.189,7.258,4.396C94.155,103.086,96.123,99.837,95.332,96.619z"/>
			</g>
		</g>
		<g>
			<g>
				<path fill="#9BE5F9" d="M218.937,118.123c-3.214-0.792-6.467,1.177-7.258,4.396l-1.826,7.436l-34.226-56.515
					c-1.717-2.834-5.405-3.741-8.24-2.024c-2.834,1.717-3.741,5.406-2.024,8.24l34.227,56.516l-7.436-1.827
					c-3.213-0.792-6.467,1.177-7.258,4.396c-0.791,3.218,1.177,6.467,4.396,7.258l21.503,5.282c3.222,0.792,6.469-1.182,7.258-4.396
					l5.282-21.503C224.123,122.163,222.155,118.914,218.937,118.123z"/>
			</g>
		</g>
		<g>
			<g>
				<circle fill="#F5C84C" cx="221" cy="200" r="32.5"/>
			</g>
		</g>
		<g>
			<g>
				<circle fill="#87D147" cx="35" cy="200" r="32.5"/>
			</g>
		</g>
		<g>
			<g>
				<path fill="#DAE6F1" d="M141.171,26.146c-2.005-2.004-5.255-2.004-7.26,0l-8.237,8.237l-4.129-4.129
					c-2.005-2.004-5.255-2.004-7.26,0c-2.005,2.005-2.005,5.255,0,7.26l7.759,7.759c1.003,1.002,2.316,1.503,3.63,1.503
					s2.628-0.501,3.63-1.503l11.867-11.867C143.176,31.401,143.176,28.151,141.171,26.146z"/>
			</g>
		</g>
		<g>
			<g>
				<path fill="#EDF4FC" d="M234.171,191.146c-2.005-2.004-5.255-2.004-7.26,0l-8.237,8.237l-4.129-4.129
					c-2.005-2.004-5.255-2.004-7.26,0c-2.005,2.005-2.005,5.255,0,7.26l7.759,7.759c1.003,1.002,2.316,1.503,3.63,1.503
					s2.628-0.501,3.63-1.503l11.867-11.867C236.176,196.401,236.176,193.151,234.171,191.146z"/>
			</g>
		</g>
		<g>
			<g>
				<path fill="#EDF4FC" d="M48.171,191.146c-2.005-2.004-5.255-2.004-7.26,0l-8.237,8.237l-4.129-4.129
					c-2.005-2.004-5.255-2.004-7.26,0c-2.005,2.005-2.005,5.255,0,7.26l7.759,7.759c1.003,1.002,2.316,1.503,3.63,1.503
					s2.628-0.501,3.63-1.503l11.867-11.867C50.176,196.401,50.176,193.151,48.171,191.146z"/>
			</g>
		</g>
		<g>
			<g>
				<path fill="#F5C84C" d="M136.8,246.75c-4.5-0.8-8-4.3-8.9-8.7c0-0.2-0.4-0.2-0.4,0c-0.9,4.4-4.4,7.9-8.9,8.7
					c-0.2,0-0.2,0.3,0,0.4c4.5,0.8,8,4.3,8.9,8.7c0,0.2,0.4,0.2,0.4,0c0.9-4.4,4.4-7.9,8.9-8.7C137,247.05,137,246.75,136.8,246.75z
					"/>
			</g>
		</g>
		<g>
			<g>
				<path fill="#FC657E" d="M80.61,46.21c-3.158-0.561-5.613-3.017-6.245-6.104c0-0.14-0.281-0.14-0.281,0
					c-0.631,3.087-3.087,5.543-6.245,6.104c-0.14,0-0.14,0.211,0,0.281c3.158,0.561,5.613,3.017,6.245,6.104
					c0,0.14,0.281,0.14,0.281,0c0.631-3.087,3.087-5.543,6.245-6.104C80.75,46.42,80.75,46.21,80.61,46.21z"/>
			</g>
		</g>
		<g>
			<g>
				<path fill="#87D147" d="M102.8,229c-1.878,0-3.4,1.522-3.4,3.4c0,1.878,1.522,3.4,3.4,3.4c1.878,0,3.4-1.522,3.4-3.4
					C106.2,230.522,104.678,229,102.8,229z"/>
			</g>
		</g>
		<g>
			<g>
				<path fill="#70D6F9" d="M213.7,64.1h-2.3v-2.3c0-1.7-1.4-3.2-3.2-3.2S205,60,205,61.8v2.3h-2.3c-1.7,0-3.2,1.4-3.2,3.2
					s1.4,3.2,3.2,3.2h2.3v2.3c0,1.7,1.4,3.2,3.2,3.2s3.2-1.4,3.2-3.2v-2.3h2.3c1.7,0,3.2-1.4,3.2-3.2S215.5,64.1,213.7,64.1z"/>
			</g>
		</g>
		<g>
			<g>
				<path fill="#F5C84C" d="M217.8,90c-1.878,0-3.4,1.522-3.4,3.4c0,1.878,1.522,3.4,3.4,3.4c1.878,0,3.4-1.522,3.4-3.4
					C221.2,91.522,219.678,90,217.8,90z"/>
			</g>
		</g>
		<g>
			<g>
				<g>
					<path d="M128,0c-19.299,0-35,15.701-35,35s15.701,35,35,35s35-15.701,35-35S147.299,0,128,0z M128,65
						c-16.542,0-30-13.458-30-30s13.458-30,30-30s30,13.458,30,30S144.542,65,128,65z"/>
				</g>
			</g>
		</g>
		<g>
			<g>
				<g>
					<path d="M168.556,196.5h-60.035l1.146-1.146c3.314-3.314,3.314-8.707,0-12.021c-3.313-3.314-8.707-3.314-12.021,0L81.99,198.99
						c-1.605,1.605-2.49,3.74-2.49,6.01s0.884,4.405,2.49,6.01l15.657,15.657c1.657,1.657,3.833,2.486,6.01,2.486
						s4.354-0.829,6.01-2.486c3.314-3.314,3.314-8.707,0-12.021l-1.146-1.146h60.035c4.687,0,8.5-3.813,8.5-8.5
						S173.243,196.5,168.556,196.5z M168.556,208.5h-66.071c-1.011,0-1.923,0.609-2.31,1.543c-0.387,0.934-0.173,2.009,0.542,2.724
						l5.414,5.414c1.364,1.365,1.364,3.585,0,4.95c-1.365,1.364-3.585,1.364-4.95,0l-15.657-15.657
						c-0.661-0.661-1.025-1.54-1.025-2.475s0.364-1.814,1.025-2.475l15.657-15.657c0.683-0.682,1.579-1.023,2.475-1.023
						s1.792,0.341,2.475,1.023c1.364,1.365,1.364,3.585,0,4.95l-5.414,5.414c-0.715,0.715-0.929,1.79-0.542,2.724
						c0.387,0.935,1.298,1.543,2.31,1.543h66.071c1.93,0,3.5,1.57,3.5,3.5S170.486,208.5,168.556,208.5z"/>
				</g>
			</g>
		</g>
		<g>
			<g>
				<g>
					<path d="M97.76,96.023L92.478,74.52c-1.117-4.552-5.73-7.343-10.282-6.227l-21.503,5.282c-2.205,0.542-4.067,1.909-5.243,3.852
						c-1.176,1.942-1.525,4.226-0.984,6.43c1.118,4.551,5.732,7.343,10.282,6.227l1.575-0.387l-31.1,51.353
						c-2.428,4.009-1.142,9.245,2.867,11.673c1.345,0.815,2.854,1.233,4.388,1.233c0.68,0,1.366-0.083,2.043-0.249
						c2.205-0.542,4.067-1.91,5.243-3.852l31.1-51.352l0.387,1.575c1.118,4.551,5.732,7.344,10.282,6.227
						c2.205-0.542,4.067-1.909,5.243-3.852C97.952,100.511,98.301,98.228,97.76,96.023z M92.499,99.863
						c-0.484,0.8-1.251,1.363-2.159,1.586c-1.875,0.458-3.772-0.69-4.233-2.564l-1.826-7.436c-0.241-0.982-1.05-1.722-2.049-1.875
						c-1.003-0.153-1.993,0.311-2.517,1.176l-34.227,56.515c-0.484,0.8-1.251,1.363-2.159,1.586
						c-0.91,0.224-1.849,0.079-2.648-0.405c-1.651-1-2.181-3.156-1.181-4.807l34.227-56.516c0.524-0.865,0.475-1.96-0.124-2.775
						c-0.478-0.65-1.231-1.02-2.015-1.02c-0.198,0-0.398,0.023-0.596,0.072l-7.436,1.827c-1.875,0.458-3.774-0.69-4.234-2.564
						c-0.223-0.908-0.079-1.848,0.405-2.647s1.251-1.363,2.159-1.586l21.503-5.282c1.876-0.46,3.774,0.69,4.234,2.564l5.282,21.503
						C93.127,98.124,92.983,99.063,92.499,99.863z"/>
				</g>
			</g>
		</g>
		<g>
			<g>
				<g>
					<path d="M224.776,119.547c-1.176-1.942-3.038-3.31-5.241-3.851c-2.203-0.544-4.487-0.194-6.431,0.982
						c-1.943,1.177-3.312,3.039-3.853,5.244l-0.387,1.574l-31.1-51.353c-2.429-4.009-7.666-5.295-11.674-2.867
						c-4.009,2.428-5.295,7.665-2.867,11.673l31.1,51.353l-1.575-0.387c-2.203-0.543-4.485-0.193-6.428,0.983
						c-1.943,1.177-3.312,3.039-3.854,5.244c-0.542,2.205-0.192,4.489,0.984,6.431c1.176,1.942,3.038,3.31,5.243,3.852l21.502,5.282
						c0.678,0.167,1.364,0.249,2.045,0.249c1.534,0,3.044-0.419,4.39-1.235c1.94-1.177,3.307-3.038,3.848-5.241l5.282-21.502
						C226.301,123.772,225.952,121.489,224.776,119.547z M220.904,124.785l-5.282,21.503c-0.223,0.907-0.786,1.674-1.585,2.158
						s-1.739,0.629-2.649,0.406l-21.503-5.282c-0.908-0.223-1.674-0.786-2.159-1.586s-0.628-1.74-0.405-2.648
						c0.223-0.908,0.787-1.675,1.587-2.159c0.554-0.335,1.175-0.508,1.805-0.508c0.28,0,0.562,0.034,0.84,0.103c0,0,0.001,0,0.002,0
						l7.436,1.827c0.981,0.242,2.013-0.132,2.611-0.948c0.599-0.815,0.647-1.91,0.124-2.775L167.5,78.36
						c-1-1.651-0.47-3.807,1.181-4.807s3.807-0.469,4.807,1.181l34.227,56.515c0.523,0.865,1.514,1.332,2.517,1.176
						c1-0.153,1.808-0.893,2.049-1.875l1.826-7.436c0.223-0.908,0.787-1.675,1.587-2.159c0.8-0.484,1.739-0.629,2.646-0.405
						c0.908,0.223,1.674,0.786,2.159,1.586S221.127,123.876,220.904,124.785z"/>
				</g>
			</g>
		</g>
		<g>
			<g>
				<path fill="#EDF4FC" d="M139.395,90.042l-8.691-6.428c-1.607-1.188-3.801-1.188-5.408,0l-8.691,6.428
					c-4.084,3.063-6.488,7.871-6.488,12.976v53.293h35.766v-53.293C145.883,97.913,143.479,93.106,139.395,90.042z"/>
			</g>
		</g>
		<g>
			<g>
				<path fill="#F5C84C" d="M157.102,133.553l-11.219-8.511v31.269h12.373c1.645,0,2.978-1.333,2.978-2.978v-11.459
					C161.234,138.607,159.705,135.528,157.102,133.553z"/>
			</g>
		</g>
		<g>
			<g>
				<path fill="#F5C84C" d="M98.898,133.553c-2.603,1.975-4.132,5.054-4.132,8.321v11.459c0,1.645,1.333,2.978,2.978,2.978h12.373
					v-31.269L98.898,133.553z"/>
			</g>
		</g>
		<g>
			<g>
				
					<ellipse transform="matrix(0.3827 -0.9239 0.9239 0.3827 -23.8731 187.0053)" fill="#70D6F9" cx="128" cy="111.367" rx="7.913" ry="7.913"/>
			</g>
		</g>
		<g>
			<g>
				<path fill="#FC657E" d="M139.395,90.042l-8.691-6.428c-1.607-1.188-3.801-1.188-5.408,0l-8.691,6.428
					c-1.008,0.756-1.912,1.619-2.704,2.565c4.125,2.464,8.945,3.883,14.099,3.883c5.154,0,9.975-1.419,14.099-3.883
					C141.307,91.661,140.403,90.798,139.395,90.042z"/>
			</g>
		</g>
		<g>
			<g>
				<g>
					<path d="M140.895,88.042c-0.004-0.003-0.009-0.007-0.013-0.01l-8.691-6.428c-2.507-1.854-5.875-1.854-8.382,0l-8.704,6.438
						c-4.688,3.517-7.488,9.115-7.488,14.976v53.293c0,1.381,1.119,2.5,2.5,2.5h35.766c1.381,0,2.5-1.119,2.5-2.5v-53.293
						C148.383,97.158,145.583,91.56,140.895,88.042z M143.383,153.812h-30.766v-50.793c0-4.295,2.052-8.399,5.475-10.966
						l8.691-6.428c0.728-0.538,1.707-0.538,2.435,0l8.683,6.422c3.433,2.578,5.482,6.679,5.482,10.972V153.812z"/>
				</g>
			</g>
		</g>
		<g>
			<g>
				<path d="M158.613,131.562l-10.858-8.237c-1.102-0.834-2.668-0.619-3.503,0.48c-0.834,1.1-0.619,2.668,0.48,3.503l10.858,8.237
					c1.968,1.493,3.144,3.86,3.144,6.33v11.459c0,0.264-0.214,0.478-0.478,0.478h-12.373c-1.381,0-2.5,1.119-2.5,2.5
					s1.119,2.5,2.5,2.5h12.373c3.021,0,5.478-2.458,5.478-5.478v-11.459C163.734,137.85,161.819,133.995,158.613,131.562z"/>
			</g>
		</g>
		<g>
			<g>
				<path d="M110.117,153.812H97.744c-0.264,0-0.478-0.214-0.478-0.478v-11.459c0-2.47,1.175-4.836,3.144-6.33l10.328-7.835
					c1.1-0.834,1.315-2.403,0.48-3.503c-0.835-1.1-2.402-1.315-3.503-0.48l-10.327,7.835c-3.207,2.433-5.122,6.288-5.122,10.313
					v11.459c0,3.021,2.458,5.478,5.478,5.478h12.373c1.381,0,2.5-1.119,2.5-2.5S111.498,153.812,110.117,153.812z"/>
			</g>
		</g>
		<g>
			<g>
				<g>
					<path d="M128,100.954c-5.742,0-10.413,4.671-10.413,10.413S122.258,121.78,128,121.78s10.413-4.671,10.413-10.413
						S133.742,100.954,128,100.954z M128,116.78c-2.984,0-5.413-2.428-5.413-5.413c0-2.985,2.428-5.413,5.413-5.413
						s5.413,2.428,5.413,5.413C133.413,114.352,130.984,116.78,128,116.78z"/>
				</g>
			</g>
		</g>
		<g>
			<g>
				<path d="M143.694,91.716c-0.679-1.202-2.204-1.625-3.406-0.947c-3.732,2.108-7.981,3.222-12.288,3.222
					c-4.152,0-8.267-1.04-11.898-3.006c-1.214-0.658-2.73-0.206-3.389,1.008c-0.658,1.214-0.207,2.731,1.008,3.389
					c4.36,2.362,9.298,3.61,14.279,3.61c5.167,0,10.266-1.338,14.747-3.869C143.949,94.443,144.374,92.918,143.694,91.716z"/>
			</g>
		</g>
		<g>
			<g>
				<path d="M128,126.592c-1.381,0-2.5,1.119-2.5,2.5v26.22c0,1.381,1.119,2.5,2.5,2.5s2.5-1.119,2.5-2.5v-26.22
					C130.5,127.711,129.381,126.592,128,126.592z"/>
			</g>
		</g>
		<g>
			<g>
				<g>
					<path d="M116.232,163.448c-1.381,0-2.5,1.119-2.5,2.5v10.377c0,1.381,1.119,2.5,2.5,2.5s2.5-1.119,2.5-2.5v-10.377
						C118.732,164.567,117.613,163.448,116.232,163.448z"/>
				</g>
			</g>
			<g>
				<g>
					<path d="M128,163.448c-1.381,0-2.5,1.119-2.5,2.5v10.377c0,1.381,1.119,2.5,2.5,2.5s2.5-1.119,2.5-2.5v-10.377
						C130.5,164.567,129.381,163.448,128,163.448z"/>
				</g>
			</g>
			<g>
				<g>
					<path d="M139.768,163.448c-1.381,0-2.5,1.119-2.5,2.5v10.377c0,1.381,1.119,2.5,2.5,2.5s2.5-1.119,2.5-2.5v-10.377
						C142.268,164.567,141.148,163.448,139.768,163.448z"/>
				</g>
			</g>
		</g>
		<g>
			<g>
				<g>
					<path d="M221,165c-19.299,0-35,15.701-35,35s15.701,35,35,35s35-15.701,35-35S240.299,165,221,165z M221,230
						c-16.542,0-30-13.458-30-30s13.458-30,30-30s30,13.458,30,30S237.542,230,221,230z"/>
				</g>
			</g>
		</g>
		<g>
			<g>
				<g>
					<path d="M35,165c-19.299,0-35,15.701-35,35s15.701,35,35,35s35-15.701,35-35S54.299,165,35,165z M35,230
						c-16.542,0-30-13.458-30-30s13.458-30,30-30s30,13.458,30,30S51.542,230,35,230z"/>
				</g>
			</g>
		</g>
		<g>
			<g>
				<g>
					<g>
						<path d="M142.939,24.378c-2.977-2.975-7.819-2.975-10.795,0l-6.469,6.469l-2.362-2.361c-2.976-2.975-7.818-2.976-10.796,0
							c-2.976,2.976-2.976,7.819,0,10.795l7.76,7.76c1.443,1.441,3.359,2.235,5.397,2.235c2.039,0,3.955-0.794,5.397-2.236
							l11.867-11.867C145.916,32.198,145.916,27.354,142.939,24.378z M139.404,31.639l-11.867,11.867
							c-0.996,0.995-2.73,0.994-3.726,0l-7.759-7.759c-1.027-1.027-1.027-2.698,0-3.725c0.514-0.513,1.188-0.77,1.863-0.77
							c0.674,0,1.349,0.257,1.862,0.77l4.129,4.129c0.977,0.976,2.56,0.976,3.535,0l8.236-8.236c1.027-1.026,2.698-1.026,3.726,0
							C140.431,28.941,140.431,30.612,139.404,31.639z"/>
					</g>
				</g>
			</g>
		</g>
		<g>
			<g>
				<g>
					<g>
						<path d="M235.939,189.378c-2.977-2.975-7.819-2.975-10.795,0l-6.469,6.469l-2.362-2.361c-2.976-2.975-7.819-2.976-10.796,0
							c-2.976,2.976-2.976,7.819,0,10.795l7.76,7.76c1.443,1.441,3.359,2.235,5.397,2.235c2.039,0,3.955-0.794,5.397-2.236
							l11.867-11.867C238.916,197.198,238.916,192.354,235.939,189.378z M232.404,196.639l-11.867,11.867
							c-0.996,0.995-2.73,0.994-3.726,0l-7.759-7.759c-1.027-1.027-1.027-2.698,0-3.725c0.514-0.513,1.188-0.77,1.863-0.77
							c0.674,0,1.349,0.257,1.862,0.77l4.129,4.129c0.977,0.976,2.56,0.976,3.535,0l8.236-8.236c1.027-1.026,2.698-1.026,3.726,0
							C233.431,193.941,233.431,195.612,232.404,196.639z"/>
					</g>
				</g>
			</g>
		</g>
		<g>
			<g>
				<g>
					<g>
						<path d="M49.939,189.378c-2.977-2.975-7.819-2.975-10.795,0l-6.469,6.469l-2.362-2.361c-2.976-2.975-7.818-2.976-10.796,0
							c-2.976,2.976-2.976,7.819,0,10.795l7.76,7.76c1.443,1.441,3.359,2.235,5.397,2.235c2.039,0,3.955-0.794,5.397-2.236
							l11.867-11.867C52.916,197.198,52.916,192.354,49.939,189.378z M46.404,196.639l-11.867,11.867
							c-0.996,0.995-2.73,0.994-3.726,0l-7.759-7.759c-1.027-1.027-1.027-2.698,0-3.725c0.514-0.513,1.188-0.77,1.863-0.77
							c0.674,0,1.349,0.257,1.862,0.77l4.129,4.129c0.977,0.976,2.56,0.976,3.535,0l8.236-8.236c1.027-1.026,2.698-1.026,3.726,0
							C47.431,193.941,47.431,195.612,46.404,196.639z"/>
					</g>
				</g>
			</g>
		</g>
	</g>
</g>
<g id="Layer_18">
</g>
<g id="Layer_19">
</g>
<g id="Layer_20">
</g>
<g id="Layer_21">
</g>
<g id="Layer_22">
</g>
<g id="Layer_23">
</g>
<g id="Layer_24">
</g>
<g id="Layer_25">
</g>
<g id="Layer_26">
</g>
<g id="Layer_27">
</g>
<g id="Layer_28">
</g>
<g id="Layer_29">
</g>
<g id="Layer_30">
</g>
<g id="Layer_31">
</g>
<g id="Layer_32">
</g>
<g id="Layer_33">
</g>
<g id="Layer_34">
</g>
<g id="Layer_35">
</g>
<g id="Layer_36">
</g>
<g id="Layer_37">
</g>
<g id="Layer_38">
</g>
<g id="Layer_39">
</g>
<g id="Layer_40">
</g>
<g id="Layer_41">
</g>
<g id="Layer_42">
</g>
<g id="Layer_43">
</g>
<g id="Layer_44">
</g>
<g id="Layer_45">
</g>
<g id="Layer_46">
</g>
<g id="Layer_47">
</g>
<g id="Layer_48">
</g>
<g id="Layer_49">
</g>
<g id="Layer_50">
</g>
<g id="Layer_51">
</g>
<g id="Layer_52">
</g>
<g id="Layer_53">
</g>
<g id="Layer_54">
</g>
<g id="Layer_55">
</g>
<g id="Layer_56">
</g>
<g id="Layer_57">
</g>
<g id="Layer_58">
</g>
<g id="Layer_59">
</g>
<g id="Layer_60">
</g>
<g id="Layer_61">
</g>
<g id="Layer_62">
</g>
<g id="Layer_63">
</g>
<g id="Layer_64">
</g>
<g id="Layer_65">
</g>
<g id="Layer_66">
</g>
<g id="Layer_67">
</g>
<g id="Layer_68">
</g>
<g id="Layer_69">
</g>
<g id="Layer_70">
</g>
<g id="Layer_71">
</g>
<g id="Layer_72">
</g>
<g id="Layer_73">
</g>
<g id="Layer_74">
</g>
<g id="Layer_75">
</g>
<g id="Layer_76">
</g>
<g id="Layer_77">
</g>
<g id="Layer_78">
</g>
<g id="Layer_79">
</g>
<g id="Layer_80">
</g>
<g id="Layer_81">
</g>
<g id="Layer_82">
</g>
<g id="Layer_83">
</g>
<g id="Layer_84">
</g>
<g id="Layer_85">
</g>
<g id="Layer_86">
</g>
<g id="Layer_87">
</g>
<g id="Layer_88">
</g>
<g id="Layer_89">
</g>
<g id="Layer_90">
</g>
</svg>
