<?xml version="1.0" encoding="utf-8"?>
<!-- Generator: Adobe Illustrator 24.0.0, SVG Export Plug-In . SVG Version: 6.00 Build 0)  -->
<svg version="1.1" xmlns="http://www.w3.org/2000/svg" xmlns:xlink="http://www.w3.org/1999/xlink" x="0px" y="0px"
	 viewBox="0 0 256 256" enable-background="new 0 0 256 256" xml:space="preserve">
<g id="Layer_1">
</g>
<g id="Layer_2">
</g>
<g id="Layer_3">
</g>
<g id="Layer_4">
</g>
<g id="Layer_5">
</g>
<g id="Layer_6">
</g>
<g id="Layer_7">
</g>
<g id="Layer_8">
</g>
<g id="Layer_9">
</g>
<g id="Layer_10">
</g>
<g id="Layer_11">
</g>
<g id="Layer_12">
</g>
<g id="Layer_13">
</g>
<g id="Layer_14">
</g>
<g id="Layer_15">
</g>
<g id="Layer_16">
</g>
<g id="Layer_17">
</g>
<g id="Layer_18">
</g>
<g id="Layer_19">
</g>
<g id="Layer_20">
</g>
<g id="Layer_21">
</g>
<g id="Layer_22">
</g>
<g id="Layer_23">
</g>
<g id="Layer_24">
</g>
<g id="Layer_25">
</g>
<g id="Layer_26">
</g>
<g id="Layer_27">
</g>
<g id="Layer_28">
</g>
<g id="Layer_29">
</g>
<g id="Layer_30">
</g>
<g id="Layer_31">
</g>
<g id="Layer_32">
</g>
<g id="Layer_33">
</g>
<g id="Layer_34">
</g>
<g id="Layer_35">
</g>
<g id="Layer_36">
</g>
<g id="Layer_37">
</g>
<g id="Layer_38">
</g>
<g id="Layer_39">
</g>
<g id="Layer_40">
</g>
<g id="Layer_41">
</g>
<g id="Layer_42">
</g>
<g id="Layer_43">
</g>
<g id="Layer_44">
</g>
<g id="Layer_45">
</g>
<g id="Layer_46">
</g>
<g id="Layer_47">
</g>
<g id="Layer_48">
</g>
<g id="Layer_49">
</g>
<g id="Layer_50">
</g>
<g id="Layer_51">
</g>
<g id="Layer_52">
</g>
<g id="Layer_53">
</g>
<g id="Layer_54">
</g>
<g id="Layer_55">
</g>
<g id="Layer_56">
</g>
<g id="Layer_57">
</g>
<g id="Layer_58">
</g>
<g id="Layer_59">
</g>
<g id="Layer_60">
</g>
<g id="Layer_61">
</g>
<g id="Layer_62">
</g>
<g id="Layer_63">
</g>
<g id="Layer_64">
</g>
<g id="Layer_65">
</g>
<g id="Layer_66">
</g>
<g id="Layer_67">
</g>
<g id="Layer_68">
</g>
<g id="Layer_69">
	<g>
		<g>
			<g>
				<path fill="#EDF4FC" d="M100.246,186.759H75.455c-1.601,0-2.898,1.298-2.898,2.898v60.945c0,1.601,1.297,2.898,2.898,2.898
					h39.49c1.601,0,2.898-1.298,2.898-2.898v-46.245L100.246,186.759z"/>
			</g>
		</g>
		<g>
			<g>
				<path fill="#DAE6F1" d="M169.246,186.759h-23l17.597,17.597v46.245c0,1.601-1.298,2.898-2.898,2.898h23
					c1.601,0,2.898-1.298,2.898-2.898v-46.245L169.246,186.759z"/>
			</g>
		</g>
		<g>
			<g>
				<path fill="#DAE6F1" d="M146.246,186.759h-23l17.597,17.597v46.245c0,1.601-1.298,2.898-2.898,2.898h23
					c1.601,0,2.898-1.298,2.898-2.898v-46.245L146.246,186.759z"/>
			</g>
		</g>
		<g>
			<g>
				<path fill="#DAE6F1" d="M123.246,186.759h-23l17.597,17.597v46.245c0,1.601-1.298,2.898-2.898,2.898h23
					c1.601,0,2.898-1.298,2.898-2.898v-46.245L123.246,186.759z"/>
			</g>
		</g>
		<g>
			<g>
				<path fill="#3A70BF" d="M183.854,15.973c0-7.429-6.044-13.473-13.473-13.473H83.007c-7.429,0-13.473,6.044-13.473,13.473
					l0.513,111.93c0,7.429,6.044,13.473,13.473,13.473h87.374c7.429,0,13.473-6.044,13.473-13.473L183.854,15.973z"/>
			</g>
		</g>
		<g>
			<g>
				<path fill="#DAE6F1" d="M100.246,186.759v14.699c0,1.6,1.298,2.898,2.898,2.898h14.699L100.246,186.759z"/>
			</g>
		</g>
		<g>
			<g>
				<path fill="#C7D7E5" d="M123.246,186.759v14.699c0,1.6,1.298,2.898,2.898,2.898h14.699L123.246,186.759z"/>
			</g>
		</g>
		<g>
			<g>
				<path fill="#C7D7E5" d="M146.246,186.759v14.699c0,1.6,1.297,2.898,2.898,2.898h14.699L146.246,186.759z"/>
			</g>
		</g>
		<g>
			<g>
				<path fill="#C7D7E5" d="M169.246,186.759v14.699c0,1.6,1.297,2.898,2.898,2.898h14.699L169.246,186.759z"/>
			</g>
		</g>
		<g>
			<g>
				<path fill="#5290DB" d="M170.381,12.5H83.007c-1.918,0-3.473,1.555-3.473,3.473v15.609c0,1.918,1.555,3.473,3.473,3.473h87.374
					c1.918,0,3.473-1.555,3.473-3.473V15.973C173.854,14.055,172.299,12.5,170.381,12.5z"/>
			</g>
		</g>
		<g>
			<g>
				<path fill="#70D6F9" d="M170.381,12.5H144v22.555h26.381c1.918,0,3.473-1.555,3.473-3.473V15.973
					C173.854,14.055,172.299,12.5,170.381,12.5z"/>
			</g>
		</g>
		<g>
			<g>
				<path fill="#5290DB" d="M170.381,44.607H83.007c-1.918,0-3.473,1.555-3.473,3.473v15.609c0,1.918,1.555,3.473,3.473,3.473
					h87.374c1.918,0,3.473-1.555,3.473-3.473V48.08C173.854,46.162,172.299,44.607,170.381,44.607z"/>
			</g>
		</g>
		<g>
			<g>
				<path fill="#70D6F9" d="M170.381,44.607H144v22.555h26.381c1.918,0,3.473-1.555,3.473-3.473V48.08
					C173.854,46.162,172.299,44.607,170.381,44.607z"/>
			</g>
		</g>
		<g>
			<g>
				<path fill="#5290DB" d="M170.894,76.713H83.519c-1.918,0-3.473,1.555-3.473,3.473v15.609c0,1.918,1.555,3.473,3.473,3.473
					h87.374c1.918,0,3.473-1.555,3.473-3.473V80.186C174.366,78.268,172.812,76.713,170.894,76.713z"/>
			</g>
		</g>
		<g>
			<g>
				<path fill="#70D6F9" d="M170.894,76.713H144v22.555h26.894c1.918,0,3.473-1.555,3.473-3.473V80.186
					C174.366,78.268,172.812,76.713,170.894,76.713z"/>
			</g>
		</g>
		<g>
			<g>
				<path fill="#5290DB" d="M170.894,108.82H83.519c-1.918,0-3.473,1.555-3.473,3.473v15.609c0,1.918,1.555,3.473,3.473,3.473
					h87.374c1.918,0,3.473-1.555,3.473-3.473v-15.609C174.366,110.375,172.812,108.82,170.894,108.82z"/>
			</g>
		</g>
		<g>
			<g>
				<path fill="#70D6F9" d="M170.894,108.82H144v22.555h26.894c1.918,0,3.473-1.555,3.473-3.473v-15.609
					C174.366,110.375,172.812,108.82,170.894,108.82z"/>
			</g>
		</g>
		<g>
			<g>
				<path fill="#FC657E" d="M207.31,6.21c-3.158-0.561-5.613-3.017-6.245-6.104c0-0.14-0.281-0.14-0.281,0
					c-0.631,3.087-3.087,5.543-6.245,6.104c-0.14,0-0.14,0.21,0,0.281c3.158,0.562,5.613,3.017,6.245,6.104
					c0,0.14,0.281,0.14,0.281,0c0.631-3.087,3.087-5.543,6.245-6.104C207.45,6.42,207.45,6.21,207.31,6.21z"/>
			</g>
		</g>
		<g>
			<g>
				<path fill="#70D6F9" d="M55.4,100.646h-2.3v-2.3c0-1.7-1.4-3.2-3.2-3.2c-1.8,0-3.2,1.4-3.2,3.2v2.3h-2.3c-1.7,0-3.2,1.4-3.2,3.2
					c0,1.8,1.4,3.2,3.2,3.2h2.3v2.3c0,1.7,1.4,3.2,3.2,3.2c1.8,0,3.2-1.4,3.2-3.2v-2.3h2.3c1.7,0,3.2-1.4,3.2-3.2
					C58.6,102.047,57.2,100.646,55.4,100.646z"/>
			</g>
		</g>
		<g>
			<g>
				<path fill="#F5C84C" d="M214.65,190.396c-4.5-0.8-8-4.3-8.9-8.7c0-0.2-0.4-0.2-0.4,0c-0.9,4.4-4.4,7.9-8.9,8.7
					c-0.2,0-0.2,0.3,0,0.4c4.5,0.8,8,4.3,8.9,8.7c0,0.2,0.4,0.2,0.4,0c0.9-4.4,4.4-7.9,8.9-8.7
					C214.85,190.697,214.85,190.396,214.65,190.396z"/>
			</g>
		</g>
		<g>
			<g>
				<path fill="#87D147" d="M188.65,165c-1.878,0-3.4,1.522-3.4,3.4c0,1.878,1.522,3.4,3.4,3.4c1.878,0,3.4-1.522,3.4-3.4
					C192.05,166.522,190.528,165,188.65,165z"/>
			</g>
		</g>
		<g>
			<g>
				<path fill="#F5C84C" d="M53.65,127c-1.878,0-3.4,1.522-3.4,3.4c0,1.878,1.522,3.4,3.4,3.4c1.878,0,3.4-1.522,3.4-3.4
					C57.05,128.522,55.528,127,53.65,127z"/>
			</g>
		</g>
		<g>
			<g>
				<path d="M143.098,21.278H89.786c-1.381,0-2.5,1.119-2.5,2.5s1.119,2.5,2.5,2.5h53.312c1.381,0,2.5-1.119,2.5-2.5
					S144.479,21.278,143.098,21.278z"/>
			</g>
		</g>
		<g>
			<g>
				<path d="M153.35,21.278h-2.051c-1.381,0-2.5,1.119-2.5,2.5s1.119,2.5,2.5,2.5h2.051c1.381,0,2.5-1.119,2.5-2.5
					S154.73,21.278,153.35,21.278z"/>
			</g>
		</g>
		<g>
			<g>
				<path d="M164.627,21.278h-2.051c-1.381,0-2.5,1.119-2.5,2.5s1.119,2.5,2.5,2.5h2.051c1.381,0,2.5-1.119,2.5-2.5
					S166.008,21.278,164.627,21.278z"/>
			</g>
		</g>
		<g>
			<g>
				<path d="M143.098,53.385H89.786c-1.381,0-2.5,1.119-2.5,2.5s1.119,2.5,2.5,2.5h53.312c1.381,0,2.5-1.119,2.5-2.5
					S144.479,53.385,143.098,53.385z"/>
			</g>
		</g>
		<g>
			<g>
				<path d="M153.35,53.385h-2.051c-1.381,0-2.5,1.119-2.5,2.5s1.119,2.5,2.5,2.5h2.051c1.381,0,2.5-1.119,2.5-2.5
					S154.73,53.385,153.35,53.385z"/>
			</g>
		</g>
		<g>
			<g>
				<path d="M164.627,53.385h-2.051c-1.381,0-2.5,1.119-2.5,2.5s1.119,2.5,2.5,2.5h2.051c1.381,0,2.5-1.119,2.5-2.5
					S166.008,53.385,164.627,53.385z"/>
			</g>
		</g>
		<g>
			<g>
				<path d="M143.609,85.49H90.299c-1.381,0-2.5,1.119-2.5,2.5s1.119,2.5,2.5,2.5h53.311c1.381,0,2.5-1.119,2.5-2.5
					S144.99,85.49,143.609,85.49z"/>
			</g>
		</g>
		<g>
			<g>
				<path d="M153.862,85.49h-2.051c-1.381,0-2.5,1.119-2.5,2.5s1.119,2.5,2.5,2.5h2.051c1.381,0,2.5-1.119,2.5-2.5
					S155.243,85.49,153.862,85.49z"/>
			</g>
		</g>
		<g>
			<g>
				<path d="M165.14,85.49h-2.051c-1.381,0-2.5,1.119-2.5,2.5s1.119,2.5,2.5,2.5h2.051c1.381,0,2.5-1.119,2.5-2.5
					S166.521,85.49,165.14,85.49z"/>
			</g>
		</g>
		<g>
			<g>
				<path d="M143.609,117.597H90.299c-1.381,0-2.5,1.119-2.5,2.5s1.119,2.5,2.5,2.5h53.311c1.381,0,2.5-1.119,2.5-2.5
					S144.99,117.597,143.609,117.597z"/>
			</g>
		</g>
		<g>
			<g>
				<path d="M153.862,117.597h-2.051c-1.381,0-2.5,1.119-2.5,2.5s1.119,2.5,2.5,2.5h2.051c1.381,0,2.5-1.119,2.5-2.5
					S155.243,117.597,153.862,117.597z"/>
			</g>
		</g>
		<g>
			<g>
				<path d="M165.14,117.597h-2.051c-1.381,0-2.5,1.119-2.5,2.5s1.119,2.5,2.5,2.5h2.051c1.381,0,2.5-1.119,2.5-2.5
					S166.521,117.597,165.14,117.597z"/>
			</g>
		</g>
		<g>
			<g>
				<g>
					<path d="M113.7,152.132c-1.381,0-2.5,1.119-2.5,2.5v20.092c0,1.381,1.119,2.5,2.5,2.5s2.5-1.119,2.5-2.5v-20.092
						C116.2,153.251,115.081,152.132,113.7,152.132z"/>
				</g>
			</g>
			<g>
				<g>
					<path d="M122.885,158.597l-7.417-7.417c-0.977-0.977-2.559-0.977-3.535,0l-7.417,7.417c-0.977,0.977-0.977,2.559,0,3.535
						s2.559,0.977,3.535,0l5.649-5.649l5.649,5.649c0.488,0.488,1.128,0.732,1.768,0.732s1.279-0.244,1.768-0.732
						C123.861,161.155,123.861,159.573,122.885,158.597z"/>
				</g>
			</g>
			<g>
				<g>
					<path d="M139.7,152.132c-1.381,0-2.5,1.119-2.5,2.5v20.092c0,1.381,1.119,2.5,2.5,2.5s2.5-1.119,2.5-2.5v-20.092
						C142.2,153.251,141.081,152.132,139.7,152.132z"/>
				</g>
			</g>
			<g>
				<g>
					<path d="M148.885,158.597l-7.417-7.417c-0.977-0.977-2.559-0.977-3.535,0l-7.417,7.417c-0.977,0.977-0.977,2.559,0,3.535
						s2.559,0.977,3.535,0l5.649-5.649l5.649,5.649c0.488,0.488,1.128,0.732,1.768,0.732s1.279-0.244,1.768-0.732
						C149.861,161.155,149.861,159.573,148.885,158.597z"/>
				</g>
			</g>
		</g>
		<g>
			<g>
				<g>
					<path d="M119.611,202.589l-17.598-17.598c-0.469-0.469-1.104-0.732-1.768-0.732H75.455c-2.977,0-5.398,2.422-5.398,5.398
						v60.944c0,2.977,2.422,5.398,5.398,5.398h39.49c2.977,0,5.398-2.422,5.398-5.398v-46.245
						C120.344,203.693,120.08,203.058,119.611,202.589z M115.344,250.602c0,0.22-0.179,0.398-0.398,0.398h-39.49
						c-0.22,0-0.398-0.179-0.398-0.398v-60.944c0-0.22,0.179-0.398,0.398-0.398h23.756l16.133,16.133V250.602z"/>
				</g>
			</g>
		</g>
		<g>
			<g>
				<path d="M188.61,202.589l-17.597-17.598c-0.469-0.469-1.104-0.732-1.768-0.732h-23c-1.381,0-2.5,1.119-2.5,2.5
					s1.119,2.5,2.5,2.5h21.965l16.132,16.133v45.21c0,0.22-0.179,0.398-0.397,0.398h-23c-1.381,0-2.5,1.119-2.5,2.5
					s1.119,2.5,2.5,2.5h23c2.977,0,5.397-2.422,5.397-5.398v-46.245C189.343,203.693,189.079,203.058,188.61,202.589z"/>
			</g>
		</g>
		<g>
			<g>
				<path d="M165.61,202.589l-17.597-17.598c-0.469-0.469-1.104-0.732-1.768-0.732h-23c-1.381,0-2.5,1.119-2.5,2.5
					s1.119,2.5,2.5,2.5h21.965l16.132,16.133v45.21c0,0.22-0.179,0.398-0.397,0.398h-23c-1.381,0-2.5,1.119-2.5,2.5
					s1.119,2.5,2.5,2.5h23c2.977,0,5.397-2.422,5.397-5.398v-46.245C166.343,203.693,166.079,203.058,165.61,202.589z"/>
			</g>
		</g>
		<g>
			<g>
				<path d="M142.61,202.589l-17.597-17.598c-0.469-0.469-1.104-0.732-1.768-0.732h-23c-1.381,0-2.5,1.119-2.5,2.5
					s1.119,2.5,2.5,2.5h21.965l16.132,16.133v45.21c0,0.22-0.179,0.398-0.397,0.398h-23c-1.381,0-2.5,1.119-2.5,2.5
					s1.119,2.5,2.5,2.5h23c2.977,0,5.397-2.422,5.397-5.398v-46.245C143.343,203.693,143.079,203.058,142.61,202.589z"/>
			</g>
		</g>
		<g>
			<g>
				<path d="M105.604,228.853H83.592c-1.381,0-2.5,1.119-2.5,2.5s1.119,2.5,2.5,2.5h22.012c1.381,0,2.5-1.119,2.5-2.5
					S106.984,228.853,105.604,228.853z"/>
			</g>
		</g>
		<g>
			<g>
				<path d="M105.604,238.771H83.592c-1.381,0-2.5,1.119-2.5,2.5s1.119,2.5,2.5,2.5h22.012c1.381,0,2.5-1.119,2.5-2.5
					S106.984,238.771,105.604,238.771z"/>
			</g>
		</g>
		<g>
			<g>
				<path d="M105.604,218.934H83.592c-1.381,0-2.5,1.119-2.5,2.5s1.119,2.5,2.5,2.5h22.012c1.381,0,2.5-1.119,2.5-2.5
					S106.984,218.934,105.604,218.934z"/>
			</g>
		</g>
		<g>
			<g>
				<path d="M92.7,209.014h-9.108c-1.381,0-2.5,1.119-2.5,2.5s1.119,2.5,2.5,2.5H92.7c1.381,0,2.5-1.119,2.5-2.5
					S94.081,209.014,92.7,209.014z"/>
			</g>
		</g>
		<g>
			<g>
				<g>
					<path d="M186.354,15.966C186.35,7.161,179.187,0,170.381,0H83.007c-8.808,0-15.973,7.165-15.973,15.984l0.513,111.918
						c0,8.808,7.165,15.973,15.973,15.973h87.374c8.808,0,15.973-7.165,15.973-15.984L186.354,15.966z M170.894,138.875H83.52
						c-6.051,0-10.973-4.922-10.973-10.984L72.034,15.973C72.034,9.922,76.956,5,83.007,5h87.374
						c6.051,0,10.973,4.922,10.973,10.973c0,0.004,0,0.008,0,0.012l0.513,111.918C181.866,133.953,176.944,138.875,170.894,138.875z
						"/>
				</g>
			</g>
		</g>
		<g>
			<g>
				<path d="M116.688,201.856h-13.544c-0.219,0-0.397-0.179-0.397-0.398v-13.77c0-1.381-1.119-2.5-2.5-2.5s-2.5,1.119-2.5,2.5v13.77
					c0,2.977,2.421,5.398,5.397,5.398h13.544c1.381,0,2.5-1.119,2.5-2.5S118.068,201.856,116.688,201.856z"/>
			</g>
		</g>
		<g>
			<g>
				<path d="M140,201.856h-13.856c-0.219,0-0.397-0.179-0.397-0.398v-14.113c0-1.381-1.119-2.5-2.5-2.5s-2.5,1.119-2.5,2.5v14.113
					c0,2.977,2.421,5.398,5.397,5.398H140c1.381,0,2.5-1.119,2.5-2.5S141.381,201.856,140,201.856z"/>
			</g>
		</g>
		<g>
			<g>
				<path d="M162.5,201.856h-13.356c-0.219,0-0.397-0.179-0.397-0.398v-13.396c0-1.381-1.119-2.5-2.5-2.5s-2.5,1.119-2.5,2.5v13.396
					c0,2.977,2.421,5.398,5.397,5.398H162.5c1.381,0,2.5-1.119,2.5-2.5S163.881,201.856,162.5,201.856z"/>
			</g>
		</g>
		<g>
			<g>
				<path d="M185.792,201.856h-13.648c-0.219,0-0.397-0.179-0.397-0.398v-13.395c0-1.381-1.119-2.5-2.5-2.5s-2.5,1.119-2.5,2.5
					v13.395c0,2.977,2.421,5.398,5.397,5.398h13.648c1.381,0,2.5-1.119,2.5-2.5S187.173,201.856,185.792,201.856z"/>
			</g>
		</g>
		<g>
			<g>
				<g>
					<path d="M170.381,10.001H83.007c-3.293,0-5.973,2.679-5.973,5.972v15.61c0,3.293,2.68,5.972,5.973,5.972h87.374
						c3.293,0,5.973-2.679,5.973-5.972v-15.61C176.354,12.68,173.674,10.001,170.381,10.001z M171.354,31.583
						c0,0.536-0.437,0.972-0.973,0.972H83.007c-0.536,0-0.973-0.436-0.973-0.972v-15.61c0-0.536,0.437-0.972,0.973-0.972h87.374
						c0.536,0,0.973,0.436,0.973,0.972V31.583z"/>
				</g>
			</g>
		</g>
		<g>
			<g>
				<g>
					<path d="M170.381,42.107H83.007c-3.293,0-5.973,2.679-5.973,5.972v15.61c0,3.293,2.68,5.972,5.973,5.972h87.374
						c3.293,0,5.973-2.679,5.973-5.972v-15.61C176.354,44.786,173.674,42.107,170.381,42.107z M171.354,63.689
						c0,0.536-0.437,0.972-0.973,0.972H83.007c-0.536,0-0.973-0.436-0.973-0.972v-15.61c0-0.536,0.437-0.972,0.973-0.972h87.374
						c0.536,0,0.973,0.436,0.973,0.972V63.689z"/>
				</g>
			</g>
		</g>
		<g>
			<g>
				<g>
					<path d="M170.894,74.214H83.52c-3.293,0-5.973,2.679-5.973,5.972v15.61c0,3.293,2.68,5.972,5.973,5.972h87.374
						c3.293,0,5.973-2.679,5.973-5.972v-15.61C176.866,76.893,174.187,74.214,170.894,74.214z M171.866,95.796
						c0,0.536-0.437,0.972-0.973,0.972H83.52c-0.536,0-0.973-0.436-0.973-0.972v-15.61c0-0.536,0.437-0.972,0.973-0.972h87.374
						c0.536,0,0.973,0.436,0.973,0.972V95.796z"/>
				</g>
			</g>
		</g>
		<g>
			<g>
				<g>
					<path d="M170.894,106.32H83.52c-3.293,0-5.973,2.679-5.973,5.972v15.61c0,3.293,2.68,5.972,5.973,5.972h87.374
						c3.293,0,5.973-2.679,5.973-5.972v-15.61C176.866,108.999,174.187,106.32,170.894,106.32z M171.866,127.902
						c0,0.536-0.437,0.972-0.973,0.972H83.52c-0.536,0-0.973-0.436-0.973-0.972v-15.61c0-0.536,0.437-0.972,0.973-0.972h87.374
						c0.536,0,0.973,0.436,0.973,0.972V127.902z"/>
				</g>
			</g>
		</g>
	</g>
</g>
<g id="Layer_70">
</g>
<g id="Layer_71">
</g>
<g id="Layer_72">
</g>
<g id="Layer_73">
</g>
<g id="Layer_74">
</g>
<g id="Layer_75">
</g>
<g id="Layer_76">
</g>
<g id="Layer_77">
</g>
<g id="Layer_78">
</g>
<g id="Layer_79">
</g>
<g id="Layer_80">
</g>
<g id="Layer_81">
</g>
<g id="Layer_82">
</g>
<g id="Layer_83">
</g>
<g id="Layer_84">
</g>
<g id="Layer_85">
</g>
<g id="Layer_86">
</g>
<g id="Layer_87">
</g>
<g id="Layer_88">
</g>
<g id="Layer_89">
</g>
<g id="Layer_90">
</g>
</svg>
