<?xml version="1.0" encoding="utf-8"?>
<!-- Generator: Adobe Illustrator 24.0.0, SVG Export Plug-In . SVG Version: 6.00 Build 0)  -->
<svg version="1.1" xmlns="http://www.w3.org/2000/svg" xmlns:xlink="http://www.w3.org/1999/xlink" x="0px" y="0px"
	 viewBox="0 0 256 256" enable-background="new 0 0 256 256" xml:space="preserve">
<g id="Layer_1">
</g>
<g id="Layer_2">
</g>
<g id="Layer_3">
</g>
<g id="Layer_4">
</g>
<g id="Layer_5">
</g>
<g id="Layer_6">
</g>
<g id="Layer_7">
</g>
<g id="Layer_8">
</g>
<g id="Layer_9">
</g>
<g id="Layer_10">
</g>
<g id="Layer_11">
</g>
<g id="Layer_12">
</g>
<g id="Layer_13">
</g>
<g id="Layer_14">
</g>
<g id="Layer_15">
</g>
<g id="Layer_16">
</g>
<g id="Layer_17">
</g>
<g id="Layer_18">
</g>
<g id="Layer_19">
</g>
<g id="Layer_20">
</g>
<g id="Layer_21">
</g>
<g id="Layer_22">
</g>
<g id="Layer_23">
</g>
<g id="Layer_24">
</g>
<g id="Layer_25">
</g>
<g id="Layer_26">
</g>
<g id="Layer_27">
</g>
<g id="Layer_28">
</g>
<g id="Layer_29">
</g>
<g id="Layer_30">
	<g>
		<g>
			<g>
				<circle fill="#F5C84C" cx="134.278" cy="176.795" r="23.25"/>
			</g>
		</g>
		<g>
			<g>
				<path fill="#FC657E" d="M134.278,200.045c-6.391,0-12.177-2.579-16.38-6.752v33.158c0,1.773,2.042,2.766,3.437,1.672l10.7-8.396
					c1.317-1.033,3.169-1.033,4.486,0l10.7,8.396c1.395,1.094,3.437,0.101,3.437-1.672v-33.158
					C146.455,197.466,140.668,200.045,134.278,200.045z"/>
			</g>
		</g>
		<g>
			<g>
				<path fill="#FCDD86" d="M146.897,174.447c1.011-0.985,0.453-2.702-0.944-2.905l-6.126-0.89c-0.555-0.08-1.034-0.429-1.282-0.932
					l-2.74-5.551c-0.625-1.266-2.43-1.266-3.055,0l-2.74,5.551c-0.248,0.502-0.728,0.851-1.282,0.932l-6.126,0.89
					c-1.397,0.203-1.955,1.92-0.944,2.905l4.433,4.321c0.401,0.391,0.585,0.955,0.49,1.508l-1.046,6.101
					c-0.239,1.391,1.222,2.452,2.471,1.795l5.479-2.88c0.496-0.261,1.089-0.261,1.585,0l5.479,2.88
					c1.249,0.657,2.71-0.404,2.471-1.795l-1.046-6.101c-0.095-0.552,0.088-1.116,0.49-1.508L146.897,174.447z"/>
			</g>
		</g>
		<g>
			<g>
				<path fill="#9BE5F9" d="M70.241,162.024L56.24,148.023c-1.035-1.035-2.714-1.035-3.749,0l-6.265,6.265
					c-1.035,1.035-1.035,2.714,0,3.749l14.001,14.001c1.035,1.035,2.714,1.035,3.75,0l6.265-6.265
					C71.276,164.738,71.276,163.059,70.241,162.024z"/>
			</g>
		</g>
		<g>
			<g>
				<path fill="#9BE5F9" d="M102.946,154.288l-6.265-6.265c-1.035-1.035-2.714-1.035-3.75,0L78.93,162.024
					c-1.035,1.035-1.035,2.714,0,3.749l6.265,6.265c1.035,1.035,2.714,1.035,3.75,0l14.001-14.001
					C103.981,157.002,103.981,155.324,102.946,154.288z"/>
			</g>
		</g>
		<g>
			<g>
				<path fill="#F9D0B4" d="M90.606,142.583v-5.659c-4.803,2.514-10.251,3.946-16.021,3.946h0c-5.77,0-11.218-1.432-16.021-3.946
					v5.659c0,2.188-0.597,4.284-1.667,6.097l13.343,13.343c0.45,0.45,0.693,1.023,0.751,1.611h7.187
					c0.059-0.588,0.301-1.16,0.751-1.611l13.355-13.355C91.216,146.856,90.606,144.771,90.606,142.583z"/>
			</g>
		</g>
		<g>
			<g>
				<path fill="#70D6F9" d="M111.028,176.795c0-6.23,2.455-11.883,6.445-16.057l-3.576-0.9c-3.487-0.878-6.894-2.038-10.195-3.453
					c-0.051,0.602-0.294,1.192-0.755,1.653l-14.001,14.001c-1.035,1.035-2.714,1.035-3.749,0l-6.265-6.265
					c-0.585-0.585-0.828-1.375-0.751-2.138h-7.187c0.076,0.763-0.166,1.553-0.751,2.138l-6.265,6.265
					c-1.035,1.035-2.714,1.035-3.75,0l-14.001-14.001c-0.459-0.459-0.702-1.044-0.754-1.643c-3.294,1.41-6.696,2.562-10.173,3.437
					l-19.985,5.03c-5.824,1.466-10.018,6.549-10.352,12.545l-2.452,42.284c-0.168,2.904,2.141,5.351,5.049,5.351h110.34v-31.749
					C113.656,189.081,111.028,183.245,111.028,176.795z"/>
			</g>
		</g>
		<g>
			<g>
				<path fill="#F9D0B4" d="M109.355,74.574c-0.02-0.986-0.809-1.799-1.795-1.828c-14.447-0.424-22.058-6.149-24.983-9.016
					c-0.799-0.783-2.087-0.7-2.783,0.175c-12.701,15.973-31.438,13.719-37.738,12.4c-1.145-0.24-2.243,0.623-2.244,1.793v27.997
					c0,19.126,15.649,34.775,34.775,34.775h0c19.126,0,34.775-15.649,34.775-34.775V75.118
					C109.36,74.937,109.358,74.755,109.355,74.574z"/>
			</g>
		</g>
		<g>
			<g>
				<path fill="#754E34" d="M101.798,37.688c-3.706,0-7.17,1.047-10.147,2.832c-3.478-5.804-9.813-9.722-17.035-9.722h-10.2
					c-19.742,0-35.895,16.153-35.895,35.895v16.083c2.484-1.988,5.63-3.183,9.059-3.183c0.76,0,1.504,0.064,2.232,0.177v-1.671
					c0.001-1.17,1.099-2.033,2.244-1.793c6.3,1.318,25.037,3.572,37.738-12.4c0.696-0.875,1.985-0.958,2.783-0.175
					c2.925,2.867,10.536,8.593,24.983,9.016c0.986,0.029,1.776,0.842,1.795,1.828c0.004,0.181,0.005,0.362,0.005,0.544v4.651
					c0.728-0.113,1.472-0.177,2.232-0.177c3.914,0,7.459,1.556,10.07,4.074V57.552C121.662,46.627,112.723,37.688,101.798,37.688z"
					/>
			</g>
		</g>
		<g>
			<g>
				<path fill="#F9D0B4" d="M111.592,79.593c-0.76,0-1.504,0.064-2.232,0.177v26.326c0,0.784-0.036,1.56-0.088,2.332
					c0.757,0.122,1.528,0.203,2.319,0.203c8.018,0,14.519-6.5,14.519-14.519C126.11,86.093,119.61,79.593,111.592,79.593z"/>
			</g>
		</g>
		<g>
			<g>
				<path fill="#F9D0B4" d="M39.811,106.095V79.77c-0.728-0.113-1.472-0.177-2.232-0.177c-8.018,0-14.519,6.5-14.519,14.519
					c0,8.018,6.5,14.519,14.519,14.519c0.791,0,1.562-0.081,2.319-0.203v0C39.847,107.655,39.811,106.879,39.811,106.095z"/>
			</g>
		</g>
		<g>
			<g>
				<path fill="#F9D0B4" d="M3.267,206.618l-0.758,13.073c-0.168,2.904,2.141,5.351,5.049,5.351h19.116v-18.424H3.267z"/>
			</g>
		</g>
		<g>
			<g>
				<path d="M86.59,112.429c-1.058-0.887-2.635-0.748-3.521,0.311c-1.649,1.968-4.455,3.143-7.505,3.143s-5.855-1.175-7.506-3.144
					c-0.888-1.059-2.465-1.197-3.522-0.31s-1.196,2.464-0.31,3.522c2.589,3.088,6.827,4.932,11.338,4.932
					c4.512,0,8.75-1.844,11.337-4.932C87.787,114.893,87.648,113.315,86.59,112.429z"/>
			</g>
		</g>
		<g>
			<g>
				<path d="M89.992,91.513c-2.451,0-4.438,1.987-4.438,4.438c0,2.451,1.987,4.438,4.438,4.438c2.451,0,4.438-1.987,4.438-4.438
					C94.43,93.5,92.443,91.513,89.992,91.513z"/>
			</g>
		</g>
		<g>
			<g>
				<circle cx="60.19" cy="95.951" r="4.438"/>
			</g>
		</g>
		<g>
			<g>
				<path d="M26.674,186.427c-1.381,0-2.5,1.119-2.5,2.5v33.852c0,1.381,1.119,2.5,2.5,2.5s2.5-1.119,2.5-2.5v-33.852
					C29.174,187.546,28.055,186.427,26.674,186.427z"/>
			</g>
		</g>
		<g>
			<g>
				<g>
					<path d="M72.01,160.256C72.009,160.256,72.009,160.256,72.01,160.256l-14.002-14c-2.007-2.008-5.275-2.009-7.284,0
						l-6.267,6.266c-2.008,2.009-2.007,5.277,0.001,7.285l14,14.001c0.974,0.973,2.268,1.509,3.643,1.509
						c1.377,0,2.67-0.536,3.643-1.509l6.266-6.266C74.017,165.533,74.018,162.265,72.01,160.256z M68.474,164.005l-6.267,6.266
						c-0.049,0.051-0.163,0.05-0.214,0l-14-14c-0.059-0.059-0.059-0.155,0-0.214l6.266-6.266c0.029-0.029,0.068-0.044,0.106-0.044
						c0.039,0,0.078,0.015,0.107,0.044l14,14C68.532,163.85,68.532,163.946,68.474,164.005z"/>
				</g>
			</g>
		</g>
		<g>
			<g>
				<g>
					<path d="M104.713,152.521l-6.266-6.266c-2.007-2.006-5.275-2.008-7.284,0.001l-14,14c-0.974,0.973-1.51,2.267-1.51,3.643
						s0.536,2.67,1.51,3.642l6.265,6.266c1.005,1.004,2.323,1.506,3.643,1.506c1.319,0,2.639-0.502,3.643-1.506l13.999-14
						c0.975-0.973,1.511-2.267,1.511-3.643S105.687,153.493,104.713,152.521z M101.178,156.27l-14,14
						c-0.061,0.061-0.154,0.06-0.215,0l-6.266-6.266c-0.05-0.05-0.05-0.163,0.001-0.213c0,0,0,0,0,0l13.999-14
						c0.03-0.03,0.069-0.045,0.108-0.045s0.078,0.015,0.107,0.044l6.265,6.266C101.229,156.106,101.229,156.219,101.178,156.27z"/>
				</g>
			</g>
		</g>
		<g>
			<g>
				<path d="M94.24,147.045c-0.742-1.383-1.134-2.926-1.134-4.462v-5.084c0-1.381-1.119-2.5-2.5-2.5s-2.5,1.119-2.5,2.5v5.084
					c0,2.358,0.598,4.718,1.728,6.825c0.451,0.841,1.313,1.319,2.205,1.319c0.399,0,0.804-0.096,1.18-0.297
					C94.436,149.777,94.893,148.262,94.24,147.045z"/>
			</g>
		</g>
		<g>
			<g>
				<path d="M77.366,161.134h-5.904c-1.381,0-2.5,1.119-2.5,2.5s1.119,2.5,2.5,2.5h5.904c1.381,0,2.5-1.119,2.5-2.5
					S78.747,161.134,77.366,161.134z"/>
			</g>
		</g>
		<g>
			<g>
				<path d="M58.565,135.304c-1.381,0-2.5,1.119-2.5,2.5v4.78c0,1.518-0.371,3.034-1.074,4.383
					c-0.639,1.225-0.163,2.734,1.062,3.373c0.369,0.192,0.764,0.283,1.153,0.283c0.902,0,1.773-0.49,2.219-1.345
					c1.073-2.06,1.641-4.374,1.641-6.693v-4.78C61.065,136.423,59.946,135.304,58.565,135.304z"/>
			</g>
		</g>
		<g>
			<g>
				<path d="M117.168,158.083l-2.661-0.669c-3.019-0.76-6.036-1.759-8.97-2.969c-1.276-0.528-2.737,0.081-3.265,1.358
					c-0.526,1.276,0.082,2.738,1.358,3.264c3.155,1.302,6.404,2.377,9.655,3.195l2.661,0.669c0.205,0.052,0.41,0.076,0.612,0.076
					c1.118,0,2.137-0.756,2.423-1.891C119.319,159.778,118.507,158.42,117.168,158.083z"/>
			</g>
		</g>
		<g>
			<g>
				<path d="M117.155,222.542H7.558c-0.711,0-1.372-0.285-1.86-0.802c-0.488-0.518-0.734-1.193-0.692-1.904l2.452-42.29
					c0.274-4.931,3.677-9.054,8.466-10.259l19.985-5.03c3.403-0.857,6.782-1.984,10.042-3.35c1.273-0.534,1.873-1.999,1.34-3.272
					c-0.534-1.273-1.999-1.874-3.271-1.339c-3.03,1.27-6.169,2.317-9.331,3.113l-19.985,5.03
					c-6.923,1.743-11.841,7.702-12.237,14.824l-2.452,42.284c-0.12,2.067,0.626,4.118,2.048,5.625s3.426,2.371,5.497,2.371h109.598
					c1.381,0,2.5-1.119,2.5-2.5S118.536,222.542,117.155,222.542z"/>
			</g>
		</g>
		<g>
			<g>
				<g>
					<path d="M111.854,74.525c-0.047-2.331-1.901-4.209-4.222-4.277c-13.804-0.405-20.897-5.941-23.306-8.302
						c-0.884-0.867-2.103-1.318-3.331-1.245c-1.234,0.076-2.387,0.677-3.159,1.648l-0.001,0
						c-11.622,14.617-28.537,12.919-35.269,11.51c-1.299-0.271-2.627,0.052-3.654,0.886c-1.018,0.826-1.602,2.047-1.603,3.377
						v27.973c0,20.553,16.722,37.275,37.275,37.275c20.553,0,37.274-16.722,37.274-37.275V75.118
						C111.86,74.918,111.858,74.719,111.854,74.525z M106.86,106.095c0,17.796-14.479,32.275-32.274,32.275
						c-17.797,0-32.275-14.479-32.275-32.275v-27.19c6.72,1.264,25.831,3.104,39.013-12.916c3.7,3.43,11.586,8.679,25.537,9.234
						V106.095z"/>
				</g>
			</g>
		</g>
		<g>
			<g>
				<path d="M101.798,35.188c-3.215,0-6.4,0.712-9.333,2.075c-4.208-5.581-10.852-8.964-17.85-8.964h-10.2
					c-21.171,0-38.395,17.224-38.395,38.395v15.338c0,1.381,1.119,2.5,2.5,2.5s2.5-1.119,2.5-2.5V66.693
					c0-18.414,14.98-33.395,33.395-33.395h10.2c6.041,0,11.746,3.26,14.891,8.507c0.341,0.569,0.894,0.979,1.537,1.14
					c0.643,0.159,1.323,0.06,1.893-0.281c2.703-1.62,5.768-2.477,8.862-2.477c9.574,0,17.363,7.79,17.363,17.364v25.431
					c0,1.381,1.119,2.5,2.5,2.5s2.5-1.119,2.5-2.5V57.552C124.161,45.221,114.129,35.188,101.798,35.188z"/>
			</g>
		</g>
		<g>
			<g>
				<path d="M111.592,77.093c-0.473,0-0.941,0.021-1.405,0.061c-1.376,0.118-2.396,1.328-2.278,2.704
					c0.118,1.375,1.321,2.398,2.704,2.277c0.323-0.027,0.649-0.042,0.979-0.042c6.627,0,12.019,5.392,12.019,12.019
					s-5.392,12.019-12.019,12.019c-0.351,0-0.707-0.02-1.09-0.059c-1.375-0.141-2.603,0.856-2.744,2.229
					c-0.143,1.373,0.855,2.602,2.229,2.744c0.557,0.058,1.081,0.085,1.605,0.085c9.384,0,17.019-7.634,17.019-17.019
					S120.976,77.093,111.592,77.093z"/>
			</g>
		</g>
		<g>
			<g>
				<path d="M38.498,106.087c-0.303,0.027-0.608,0.043-0.919,0.043c-6.627,0-12.019-5.392-12.019-12.019s5.392-12.019,12.019-12.019
					c0.316,0,0.628,0.013,0.937,0.039c1.368,0.119,2.584-0.912,2.695-2.288c0.113-1.376-0.911-2.583-2.287-2.696
					c-0.443-0.036-0.892-0.055-1.345-0.055c-9.384,0-17.019,7.634-17.019,17.019s7.635,17.019,17.019,17.019
					c0.461,0,0.915-0.022,1.364-0.063c1.376-0.124,2.391-1.338,2.268-2.713C41.089,106.979,39.865,105.98,38.498,106.087z"/>
			</g>
		</g>
		<g>
			<g>
				<path d="M25.619,204.118H4.033c-1.381,0-2.5,1.119-2.5,2.5s1.119,2.5,2.5,2.5h21.586c1.381,0,2.5-1.119,2.5-2.5
					S27,204.118,25.619,204.118z"/>
			</g>
		</g>
		<g>
			<g>
				<g>
					<path d="M134.278,151.045c-14.198,0-25.75,11.551-25.75,25.75s11.552,25.75,25.75,25.75s25.75-11.551,25.75-25.75
						S148.477,151.045,134.278,151.045z M134.278,197.545c-11.441,0-20.75-9.309-20.75-20.75s9.309-20.75,20.75-20.75
						s20.75,9.309,20.75,20.75S145.72,197.545,134.278,197.545z"/>
				</g>
			</g>
		</g>
		<g>
			<g>
				<path d="M134.278,198.163c-1.381,0-2.5,1.119-2.5,2.5v16.848c0,1.381,1.119,2.5,2.5,2.5s2.5-1.119,2.5-2.5v-16.848
					C136.778,199.282,135.659,198.163,134.278,198.163z"/>
			</g>
		</g>
		<g>
			<g>
				<path d="M150.658,191.146c-1.381,0-2.5,1.119-2.5,2.5v32.035l-10.094-7.92c-2.23-1.75-5.344-1.75-7.572,0l-10.094,7.919v-31.899
					c0-1.381-1.119-2.5-2.5-2.5s-2.5,1.119-2.5,2.5v32.67c0,1.785,0.997,3.379,2.602,4.16c1.607,0.781,3.476,0.581,4.878-0.521
					l10.701-8.396c0.411-0.323,0.986-0.323,1.399,0l10.699,8.396c0.835,0.656,1.836,0.992,2.848,0.992
					c0.688,0,1.381-0.155,2.03-0.471c1.605-0.781,2.603-2.375,2.603-4.16v-32.805C153.158,192.265,152.039,191.146,150.658,191.146z
					"/>
			</g>
		</g>
		<g>
			<g>
				<path fill="#F9D0B4" d="M194.632,42.173c-1.923-1.922-5.04-1.922-6.963,0l-7.899,7.899l-3.96-3.96
					c-1.923-1.922-5.04-1.922-6.963,0c-1.923,1.923-1.923,5.04,0,6.963l7.441,7.441c0.962,0.961,2.221,1.442,3.481,1.442
					c1.26,0,2.52-0.481,3.481-1.442l11.381-11.381C196.555,47.213,196.555,44.096,194.632,42.173z"/>
			</g>
		</g>
		<g>
			<g>
				<path fill="#B2E26D" d="M194.632,42.173c-1.923-1.922-5.04-1.922-6.963,0l-7.899,7.899l-3.96-3.96
					c-1.923-1.922-5.04-1.922-6.963,0c-1.923,1.923-1.923,5.04,0,6.963l7.441,7.441c0.962,0.961,2.221,1.442,3.481,1.442
					c1.26,0,2.52-0.481,3.481-1.442l11.381-11.381C196.555,47.213,196.555,44.096,194.632,42.173z"/>
			</g>
		</g>
		<g>
			<g>
				<g>
					<g>
						<path d="M196.399,40.405c-2.896-2.894-7.605-2.893-10.498,0l-6.132,6.131l-2.192-2.192c-2.896-2.895-7.604-2.893-10.497,0
							c-1.402,1.402-2.175,3.266-2.175,5.249c0,1.983,0.772,3.848,2.175,5.249l7.441,7.442c1.402,1.401,3.267,2.173,5.248,2.173
							c1.983,0,3.848-0.772,5.249-2.174l11.381-11.38c1.402-1.402,2.175-3.266,2.175-5.249
							C198.574,43.671,197.802,41.807,196.399,40.405z M192.864,47.368l-11.381,11.381c-0.916,0.915-2.512,0.914-3.428,0
							l-7.44-7.442c-0.458-0.458-0.71-1.066-0.71-1.713c0-0.647,0.252-1.255,0.71-1.713c0.473-0.472,1.093-0.708,1.714-0.708
							c0.62,0,1.24,0.236,1.713,0.708l3.96,3.96c0.977,0.977,2.559,0.977,3.535,0l7.898-7.898c0.948-0.946,2.484-0.944,3.429,0
							c0.458,0.458,0.71,1.066,0.71,1.713C193.574,46.302,193.322,46.91,192.864,47.368z"/>
					</g>
				</g>
			</g>
		</g>
		<g>
			<g>
				<g>
					<g>
						<path d="M196.399,40.405c-2.896-2.894-7.605-2.893-10.498,0l-6.132,6.131l-2.192-2.192c-2.896-2.895-7.604-2.893-10.497,0
							c-1.402,1.402-2.175,3.266-2.175,5.249c0,1.983,0.772,3.848,2.175,5.249l7.441,7.442c1.402,1.401,3.267,2.173,5.248,2.173
							c1.983,0,3.848-0.772,5.249-2.174l11.381-11.38c1.402-1.402,2.175-3.266,2.175-5.249
							C198.574,43.671,197.802,41.807,196.399,40.405z M192.864,47.368l-11.381,11.381c-0.916,0.915-2.512,0.914-3.428,0
							l-7.44-7.442c-0.458-0.458-0.71-1.066-0.71-1.713c0-0.647,0.252-1.255,0.71-1.713c0.473-0.472,1.093-0.708,1.714-0.708
							c0.62,0,1.24,0.236,1.713,0.708l3.96,3.96c0.977,0.977,2.559,0.977,3.535,0l7.898-7.898c0.948-0.946,2.484-0.944,3.429,0
							c0.458,0.458,0.71,1.066,0.71,1.713C193.574,46.302,193.322,46.91,192.864,47.368z"/>
					</g>
				</g>
			</g>
		</g>
		<g>
			<g>
				<path fill="#F9D0B4" d="M194.632,79.167c-1.923-1.922-5.04-1.922-6.963,0l-7.899,7.899l-3.96-3.96
					c-1.923-1.922-5.04-1.922-6.963,0c-1.923,1.923-1.923,5.04,0,6.963l7.441,7.441c0.962,0.961,2.221,1.442,3.481,1.442
					c1.26,0,2.52-0.481,3.481-1.442l11.381-11.381C196.555,84.207,196.555,81.089,194.632,79.167z"/>
			</g>
		</g>
		<g>
			<g>
				<path fill="#B2E26D" d="M194.632,79.167c-1.923-1.922-5.04-1.922-6.963,0l-7.899,7.899l-3.96-3.96
					c-1.923-1.922-5.04-1.922-6.963,0c-1.923,1.923-1.923,5.04,0,6.963l7.441,7.441c0.962,0.961,2.221,1.442,3.481,1.442
					c1.26,0,2.52-0.481,3.481-1.442l11.381-11.381C196.555,84.207,196.555,81.089,194.632,79.167z"/>
			</g>
		</g>
		<g>
			<g>
				<g>
					<g>
						<path d="M196.399,77.398c-2.896-2.894-7.605-2.893-10.498,0l-6.132,6.131l-2.192-2.192c-2.896-2.895-7.604-2.893-10.497,0
							c-2.895,2.894-2.895,7.604,0,10.498l7.44,7.441c1.402,1.402,3.267,2.174,5.249,2.174c1.983,0,3.848-0.772,5.249-2.174
							l11.381-11.38C199.294,85.003,199.294,80.293,196.399,77.398z M192.864,84.362l-11.382,11.381
							c-0.914,0.914-2.511,0.915-3.427,0l-7.44-7.441c-0.944-0.945-0.944-2.482,0-3.427c0.473-0.472,1.093-0.708,1.714-0.708
							c0.62,0,1.24,0.236,1.713,0.708l3.96,3.96c0.977,0.977,2.559,0.977,3.535,0l7.898-7.898c0.948-0.946,2.484-0.944,3.429-0.001
							C193.809,81.879,193.809,83.417,192.864,84.362z"/>
					</g>
				</g>
			</g>
		</g>
		<g>
			<g>
				<g>
					<g>
						<path d="M196.399,77.398c-2.896-2.894-7.605-2.893-10.498,0l-6.132,6.131l-2.192-2.192c-2.896-2.895-7.604-2.893-10.497,0
							c-2.895,2.894-2.895,7.604,0,10.498l7.44,7.441c1.402,1.402,3.267,2.174,5.249,2.174c1.983,0,3.848-0.772,5.249-2.174
							l11.381-11.38C199.294,85.003,199.294,80.293,196.399,77.398z M192.864,84.362l-11.382,11.381
							c-0.914,0.914-2.511,0.915-3.427,0l-7.44-7.441c-0.944-0.945-0.944-2.482,0-3.427c0.473-0.472,1.093-0.708,1.714-0.708
							c0.62,0,1.24,0.236,1.713,0.708l3.96,3.96c0.977,0.977,2.559,0.977,3.535,0l7.898-7.898c0.948-0.946,2.484-0.944,3.429-0.001
							C193.809,81.879,193.809,83.417,192.864,84.362z"/>
					</g>
				</g>
			</g>
		</g>
		<g>
			<g>
				<path fill="#F9D0B4" d="M194.632,116.16c-1.923-1.922-5.04-1.922-6.963,0l-7.899,7.899l-3.96-3.96
					c-1.923-1.922-5.04-1.922-6.963,0c-1.923,1.923-1.923,5.04,0,6.963l7.441,7.441c0.962,0.961,2.221,1.442,3.481,1.442
					c1.26,0,2.52-0.481,3.481-1.442l11.381-11.381C196.555,121.2,196.555,118.083,194.632,116.16z"/>
			</g>
		</g>
		<g>
			<g>
				<path fill="#B2E26D" d="M194.632,116.16c-1.923-1.922-5.04-1.922-6.963,0l-7.899,7.899l-3.96-3.96
					c-1.923-1.922-5.04-1.922-6.963,0c-1.923,1.923-1.923,5.04,0,6.963l7.441,7.441c0.962,0.961,2.221,1.442,3.481,1.442
					c1.26,0,2.52-0.481,3.481-1.442l11.381-11.381C196.555,121.2,196.555,118.083,194.632,116.16z"/>
			</g>
		</g>
		<g>
			<g>
				<g>
					<g>
						<path d="M196.399,114.392c-2.896-2.894-7.605-2.892-10.498,0l-6.132,6.131l-2.192-2.192c-2.896-2.894-7.604-2.893-10.497,0
							c-2.895,2.894-2.895,7.604,0,10.498l7.441,7.442c1.402,1.401,3.267,2.173,5.248,2.173c1.983,0,3.848-0.772,5.249-2.174
							l11.381-11.381C199.294,121.996,199.294,117.286,196.399,114.392z M192.864,121.355l-11.381,11.381
							c-0.916,0.915-2.512,0.914-3.428,0l-7.44-7.441c-0.944-0.945-0.944-2.482,0-3.427c0.473-0.472,1.093-0.708,1.714-0.708
							c0.62,0,1.24,0.236,1.713,0.708l3.96,3.96c0.977,0.977,2.559,0.977,3.535,0l7.898-7.898c0.946-0.943,2.482-0.945,3.429-0.001
							C193.809,118.873,193.809,120.41,192.864,121.355z"/>
					</g>
				</g>
			</g>
		</g>
		<g>
			<g>
				<g>
					<g>
						<path d="M196.399,114.392c-2.896-2.894-7.605-2.892-10.498,0l-6.132,6.131l-2.192-2.192c-2.896-2.894-7.604-2.893-10.497,0
							c-2.895,2.894-2.895,7.604,0,10.498l7.441,7.442c1.402,1.401,3.267,2.173,5.248,2.173c1.983,0,3.848-0.772,5.249-2.174
							l11.381-11.381C199.294,121.996,199.294,117.286,196.399,114.392z M192.864,121.355l-11.381,11.381
							c-0.916,0.915-2.512,0.914-3.428,0l-7.44-7.441c-0.944-0.945-0.944-2.482,0-3.427c0.473-0.472,1.093-0.708,1.714-0.708
							c0.62,0,1.24,0.236,1.713,0.708l3.96,3.96c0.977,0.977,2.559,0.977,3.535,0l7.898-7.898c0.946-0.943,2.482-0.945,3.429-0.001
							C193.809,118.873,193.809,120.41,192.864,121.355z"/>
					</g>
				</g>
			</g>
		</g>
		<g>
			<g>
				<path fill="#F9D0B4" d="M194.632,153.153c-1.923-1.922-5.04-1.922-6.963,0l-7.899,7.899l-3.96-3.96
					c-1.923-1.922-5.04-1.922-6.963,0c-1.923,1.923-1.923,5.04,0,6.963l7.441,7.441c0.962,0.961,2.221,1.442,3.481,1.442
					c1.26,0,2.52-0.481,3.481-1.442l11.381-11.381C196.555,158.193,196.555,155.076,194.632,153.153z"/>
			</g>
		</g>
		<g>
			<g>
				<path fill="#B2E26D" d="M194.632,153.153c-1.923-1.922-5.04-1.922-6.963,0l-7.899,7.899l-3.96-3.96
					c-1.923-1.922-5.04-1.922-6.963,0c-1.923,1.923-1.923,5.04,0,6.963l7.441,7.441c0.962,0.961,2.221,1.442,3.481,1.442
					c1.26,0,2.52-0.481,3.481-1.442l11.381-11.381C196.555,158.193,196.555,155.076,194.632,153.153z"/>
			</g>
		</g>
		<g>
			<g>
				<g>
					<g>
						<path d="M196.399,151.385c-2.896-2.894-7.605-2.893-10.498,0l-6.132,6.131l-2.192-2.192c-2.896-2.894-7.604-2.893-10.497,0
							c-2.895,2.894-2.895,7.604,0,10.498l7.441,7.442c1.402,1.401,3.267,2.173,5.248,2.173c1.983,0,3.848-0.772,5.249-2.174
							l11.381-11.38c1.402-1.402,2.175-3.266,2.175-5.25C198.574,154.651,197.802,152.787,196.399,151.385z M192.864,158.348
							l-11.381,11.381c-0.916,0.915-2.512,0.914-3.428,0l-7.44-7.441c-0.944-0.945-0.944-2.482,0-3.427
							c0.473-0.472,1.093-0.708,1.714-0.708c0.62,0,1.24,0.236,1.713,0.708l3.96,3.96c0.977,0.977,2.559,0.976,3.535,0l7.898-7.898
							c0.948-0.946,2.484-0.944,3.429,0c0.458,0.458,0.71,1.066,0.71,1.713C193.574,157.282,193.322,157.89,192.864,158.348z"/>
					</g>
				</g>
			</g>
		</g>
		<g>
			<g>
				<g>
					<g>
						<path d="M196.399,151.385c-2.896-2.894-7.605-2.893-10.498,0l-6.132,6.131l-2.192-2.192c-2.896-2.894-7.604-2.893-10.497,0
							c-2.895,2.894-2.895,7.604,0,10.498l7.441,7.442c1.402,1.401,3.267,2.173,5.248,2.173c1.983,0,3.848-0.772,5.249-2.174
							l11.381-11.38c1.402-1.402,2.175-3.266,2.175-5.25C198.574,154.651,197.802,152.787,196.399,151.385z M192.864,158.348
							l-11.381,11.381c-0.916,0.915-2.512,0.914-3.428,0l-7.44-7.441c-0.944-0.945-0.944-2.482,0-3.427
							c0.473-0.472,1.093-0.708,1.714-0.708c0.62,0,1.24,0.236,1.713,0.708l3.96,3.96c0.977,0.977,2.559,0.976,3.535,0l7.898-7.898
							c0.948-0.946,2.484-0.944,3.429,0c0.458,0.458,0.71,1.066,0.71,1.713C193.574,157.282,193.322,157.89,192.864,158.348z"/>
					</g>
				</g>
			</g>
		</g>
		<g>
			<g>
				<path d="M253.5,43.27h-45c-1.381,0-2.5,1.119-2.5,2.5s1.119,2.5,2.5,2.5h45c1.381,0,2.5-1.119,2.5-2.5
					S254.881,43.27,253.5,43.27z"/>
			</g>
		</g>
		<g>
			<g>
				<path d="M241.5,53.27h-33c-1.381,0-2.5,1.119-2.5,2.5s1.119,2.5,2.5,2.5h33c1.381,0,2.5-1.119,2.5-2.5
					S242.881,53.27,241.5,53.27z"/>
			</g>
		</g>
		<g>
			<g>
				<path d="M253.5,80.263h-45c-1.381,0-2.5,1.119-2.5,2.5s1.119,2.5,2.5,2.5h45c1.381,0,2.5-1.119,2.5-2.5
					S254.881,80.263,253.5,80.263z"/>
			</g>
		</g>
		<g>
			<g>
				<path d="M241.5,90.263h-33c-1.381,0-2.5,1.119-2.5,2.5s1.119,2.5,2.5,2.5h33c1.381,0,2.5-1.119,2.5-2.5
					S242.881,90.263,241.5,90.263z"/>
			</g>
		</g>
		<g>
			<g>
				<path d="M253.5,117.256h-45c-1.381,0-2.5,1.119-2.5,2.5s1.119,2.5,2.5,2.5h45c1.381,0,2.5-1.119,2.5-2.5
					S254.881,117.256,253.5,117.256z"/>
			</g>
		</g>
		<g>
			<g>
				<path d="M241.5,127.256h-33c-1.381,0-2.5,1.119-2.5,2.5s1.119,2.5,2.5,2.5h33c1.381,0,2.5-1.119,2.5-2.5
					S242.881,127.256,241.5,127.256z"/>
			</g>
		</g>
		<g>
			<g>
				<path d="M253.5,154.25h-45c-1.381,0-2.5,1.119-2.5,2.5s1.119,2.5,2.5,2.5h45c1.381,0,2.5-1.119,2.5-2.5
					S254.881,154.25,253.5,154.25z"/>
			</g>
		</g>
		<g>
			<g>
				<path d="M241.5,164.25h-33c-1.381,0-2.5,1.119-2.5,2.5s1.119,2.5,2.5,2.5h33c1.381,0,2.5-1.119,2.5-2.5
					S242.881,164.25,241.5,164.25z"/>
			</g>
		</g>
		<g>
			<g>
				<path fill="#F5C84C" d="M29.8,133.77c-4.5-0.8-8-4.3-8.9-8.7c0-0.2-0.4-0.2-0.4,0c-0.9,4.4-4.4,7.9-8.9,8.7
					c-0.2,0-0.2,0.3,0,0.4c4.5,0.8,8,4.3,8.9,8.7c0,0.2,0.4,0.2,0.4,0c0.9-4.4,4.4-7.9,8.9-8.7C30,134.07,30,133.77,29.8,133.77z"/>
			</g>
		</g>
		<g>
			<g>
				<path fill="#87D147" d="M147.61,31.13c-3.157-0.561-5.613-3.017-6.245-6.104c0-0.14-0.281-0.14-0.281,0
					c-0.632,3.087-3.087,5.543-6.245,6.104c-0.14,0-0.14,0.211,0,0.281c3.157,0.561,5.613,3.017,6.245,6.104
					c0,0.14,0.281,0.14,0.281,0c0.631-3.087,3.087-5.543,6.245-6.104C147.75,31.34,147.75,31.13,147.61,31.13z"/>
			</g>
		</g>
		<g>
			<g>
				<path fill="#70D6F9" d="M198.7,196.02h-2.3v-2.3c0-1.7-1.4-3.2-3.2-3.2c-1.8,0-3.2,1.4-3.2,3.2v2.3h-2.3c-1.7,0-3.2,1.4-3.2,3.2
					s1.4,3.2,3.2,3.2h2.3v2.3c0,1.7,1.4,3.2,3.2,3.2c1.8,0,3.2-1.4,3.2-3.2v-2.3h2.3c1.7,0,3.2-1.4,3.2-3.2
					S200.5,196.02,198.7,196.02z"/>
			</g>
		</g>
		<g>
			<g>
				<path fill="#FC657E" d="M7.8,106.92c-1.878,0-3.4,1.522-3.4,3.4s1.522,3.4,3.4,3.4c1.878,0,3.4-1.522,3.4-3.4
					S9.678,106.92,7.8,106.92z"/>
			</g>
		</g>
		<g>
			<g>
				<path fill="#F5C84C" d="M173.8,218.92c-1.878,0-3.4,1.522-3.4,3.4s1.522,3.4,3.4,3.4c1.878,0,3.4-1.522,3.4-3.4
					S175.678,218.92,173.8,218.92z"/>
			</g>
		</g>
		<g>
			<g>
				<g>
					<path d="M149.706,171.929c-0.498-1.533-1.798-2.629-3.394-2.861l-5.711-0.83l-2.555-5.176
						c-0.713-1.445-2.157-2.342-3.769-2.342c-0.001,0-0.001,0-0.002,0c-1.611,0-3.055,0.898-3.768,2.343l-2.555,5.176l-5.711,0.83
						c-1.595,0.232-2.895,1.328-3.393,2.861s-0.091,3.184,1.063,4.309l4.132,4.028l-0.975,5.688
						c-0.273,1.589,0.367,3.164,1.671,4.112c0.737,0.536,1.6,0.808,2.467,0.808c0.668,0,1.34-0.162,1.96-0.488l5.109-2.686
						l5.107,2.685c1.427,0.75,3.121,0.629,4.428-0.319c1.304-0.948,1.944-2.523,1.671-4.11l-0.975-5.688l4.133-4.029
						C149.796,175.112,150.204,173.461,149.706,171.929z M140.72,176.977c-0.991,0.966-1.443,2.357-1.209,3.72l0.772,4.51
						l-4.05-2.129c-1.226-0.644-2.688-0.643-3.911,0l-4.05,2.129l0.772-4.509c0.234-1.364-0.218-2.755-1.208-3.72l-3.276-3.194
						l4.527-0.658c1.369-0.199,2.552-1.059,3.165-2.299l2.025-4.104l2.024,4.104c0.613,1.24,1.796,2.1,3.165,2.299l4.528,0.658
						L140.72,176.977z"/>
				</g>
			</g>
		</g>
	</g>
</g>
<g id="Layer_31">
</g>
<g id="Layer_32">
</g>
<g id="Layer_33">
</g>
<g id="Layer_34">
</g>
<g id="Layer_35">
</g>
<g id="Layer_36">
</g>
<g id="Layer_37">
</g>
<g id="Layer_38">
</g>
<g id="Layer_39">
</g>
<g id="Layer_40">
</g>
<g id="Layer_41">
</g>
<g id="Layer_42">
</g>
<g id="Layer_43">
</g>
<g id="Layer_44">
</g>
<g id="Layer_45">
</g>
<g id="Layer_46">
</g>
<g id="Layer_47">
</g>
<g id="Layer_48">
</g>
<g id="Layer_49">
</g>
<g id="Layer_50">
</g>
<g id="Layer_51">
</g>
<g id="Layer_52">
</g>
<g id="Layer_53">
</g>
<g id="Layer_54">
</g>
<g id="Layer_55">
</g>
<g id="Layer_56">
</g>
<g id="Layer_57">
</g>
<g id="Layer_58">
</g>
<g id="Layer_59">
</g>
<g id="Layer_60">
</g>
<g id="Layer_61">
</g>
<g id="Layer_62">
</g>
<g id="Layer_63">
</g>
<g id="Layer_64">
</g>
<g id="Layer_65">
</g>
<g id="Layer_66">
</g>
<g id="Layer_67">
</g>
<g id="Layer_68">
</g>
<g id="Layer_69">
</g>
<g id="Layer_70">
</g>
<g id="Layer_71">
</g>
<g id="Layer_72">
</g>
<g id="Layer_73">
</g>
<g id="Layer_74">
</g>
<g id="Layer_75">
</g>
<g id="Layer_76">
</g>
<g id="Layer_77">
</g>
<g id="Layer_78">
</g>
<g id="Layer_79">
</g>
<g id="Layer_80">
</g>
<g id="Layer_81">
</g>
<g id="Layer_82">
</g>
<g id="Layer_83">
</g>
<g id="Layer_84">
</g>
<g id="Layer_85">
</g>
<g id="Layer_86">
</g>
<g id="Layer_87">
</g>
<g id="Layer_88">
</g>
<g id="Layer_89">
</g>
<g id="Layer_90">
</g>
</svg>
