<?xml version="1.0" encoding="utf-8"?>
<!-- Generator: Adobe Illustrator 24.0.0, SVG Export Plug-In . SVG Version: 6.00 Build 0)  -->
<svg version="1.1" xmlns="http://www.w3.org/2000/svg" xmlns:xlink="http://www.w3.org/1999/xlink" x="0px" y="0px"
	 viewBox="0 0 256 256" enable-background="new 0 0 256 256" xml:space="preserve">
<g id="Layer_1">
</g>
<g id="Layer_2">
</g>
<g id="Layer_3">
</g>
<g id="Layer_4">
</g>
<g id="Layer_5">
</g>
<g id="Layer_6">
</g>
<g id="Layer_7">
</g>
<g id="Layer_8">
</g>
<g id="Layer_9">
</g>
<g id="Layer_10">
</g>
<g id="Layer_11">
</g>
<g id="Layer_12">
</g>
<g id="Layer_13">
</g>
<g id="Layer_14">
</g>
<g id="Layer_15">
</g>
<g id="Layer_16">
</g>
<g id="Layer_17">
</g>
<g id="Layer_18">
</g>
<g id="Layer_19">
</g>
<g id="Layer_20">
</g>
<g id="Layer_21">
</g>
<g id="Layer_22">
</g>
<g id="Layer_23">
</g>
<g id="Layer_24">
</g>
<g id="Layer_25">
</g>
<g id="Layer_26">
</g>
<g id="Layer_27">
</g>
<g id="Layer_28">
</g>
<g id="Layer_29">
</g>
<g id="Layer_30">
</g>
<g id="Layer_31">
</g>
<g id="Layer_32">
</g>
<g id="Layer_33">
</g>
<g id="Layer_34">
</g>
<g id="Layer_35">
</g>
<g id="Layer_36">
</g>
<g id="Layer_37">
</g>
<g id="Layer_38">
</g>
<g id="Layer_39">
</g>
<g id="Layer_40">
</g>
<g id="Layer_41">
</g>
<g id="Layer_42">
</g>
<g id="Layer_43">
</g>
<g id="Layer_44">
</g>
<g id="Layer_45">
</g>
<g id="Layer_46">
</g>
<g id="Layer_47">
</g>
<g id="Layer_48">
</g>
<g id="Layer_49">
</g>
<g id="Layer_50">
</g>
<g id="Layer_51">
</g>
<g id="Layer_52">
</g>
<g id="Layer_53">
</g>
<g id="Layer_54">
</g>
<g id="Layer_55">
</g>
<g id="Layer_56">
</g>
<g id="Layer_57">
</g>
<g id="Layer_58">
</g>
<g id="Layer_59">
</g>
<g id="Layer_60">
</g>
<g id="Layer_61">
</g>
<g id="Layer_62">
</g>
<g id="Layer_63">
</g>
<g id="Layer_64">
</g>
<g id="Layer_65">
</g>
<g id="Layer_66">
</g>
<g id="Layer_67">
</g>
<g id="Layer_68">
</g>
<g id="Layer_69">
</g>
<g id="Layer_70">
</g>
<g id="Layer_71">
</g>
<g id="Layer_72">
</g>
<g id="Layer_73">
</g>
<g id="Layer_74">
</g>
<g id="Layer_75">
</g>
<g id="Layer_76">
</g>
<g id="Layer_77">
</g>
<g id="Layer_78">
</g>
<g id="Layer_79">
</g>
<g id="Layer_80">
</g>
<g id="Layer_81">
</g>
<g id="Layer_82">
</g>
<g id="Layer_83">
</g>
<g id="Layer_84">
</g>
<g id="Layer_85">
</g>
<g id="Layer_86">
</g>
<g id="Layer_87">
</g>
<g id="Layer_88">
</g>
<g id="Layer_89">
	<g>
		<g>
			<g>
				<path fill="#5290DB" d="M193.911,33.014h-30.603c0.873,1.498,1.382,3.231,1.382,5.08c0,5.588-4.572,10.161-10.161,10.161
					h-52.408c-5.588,0-10.161-4.572-10.161-10.161c0-1.849,0.509-3.582,1.382-5.08H62.739c-9.637,0-17.478,7.84-17.478,17.478
					v185.531c0,9.637,7.841,17.478,17.478,17.478h131.172c9.637,0,17.477-7.84,17.477-17.478V50.492
					C211.388,40.854,203.547,33.014,193.911,33.014z"/>
			</g>
		</g>
		<g>
			<g>
				<path fill="#FCDD86" d="M154.529,27.934h-52.408c-5.588,0-10.161,4.572-10.161,10.161s4.572,10.161,10.161,10.161h52.408
					c5.588,0,10.161-4.572,10.161-10.161S160.117,27.934,154.529,27.934z"/>
			</g>
		</g>
		<g>
			<g>
				<path fill="#F5C84C" d="M143.093,17.773h-29.536c-4.172,0-7.586,3.414-7.586,7.585v2.575h44.707v-2.575
					C150.678,21.187,147.265,17.773,143.093,17.773z"/>
			</g>
		</g>
		<g>
			<g>
				<path fill="#EDF4FC" d="M193.911,43.175h-30.603c-1.764,3.028-5.04,5.08-8.779,5.08h-52.408c-3.739,0-7.015-2.052-8.779-5.08
					h-9.216L55.422,71.878v164.144c0,4.035,3.282,7.317,7.317,7.317h131.172c4.035,0,7.317-3.282,7.317-7.317V50.492
					C201.228,46.457,197.945,43.175,193.911,43.175z"/>
			</g>
		</g>
		<g>
			<g>
				<path fill="#C7D7E5" d="M55.422,71.878h21.387c4.034,0,7.317-3.282,7.317-7.317V43.175L55.422,71.878z"/>
			</g>
		</g>
		<g>
			<g>
				<path d="M193.911,30.514h-30.183c-1.381,0-2.5,1.119-2.5,2.5s1.119,2.5,2.5,2.5h30.183c8.259,0,14.978,6.719,14.978,14.978
					v185.531c0,8.259-6.719,14.978-14.978,14.978H62.739c-8.259,0-14.978-6.719-14.978-14.978V50.491
					c0-8.259,6.719-14.978,14.978-14.978h30.256c1.381,0,2.5-1.119,2.5-2.5s-1.119-2.5-2.5-2.5H62.739
					c-11.016,0-19.978,8.962-19.978,19.978v185.531c0,11.016,8.962,19.978,19.978,19.978h131.172
					c11.016,0,19.978-8.962,19.978-19.978V50.491C213.889,39.476,204.927,30.514,193.911,30.514z"/>
			</g>
		</g>
		<g>
			<g>
				<g>
					<path d="M154.528,25.434h-52.407c-6.98,0-12.66,5.68-12.66,12.661c0,6.98,5.68,12.66,12.66,12.66h52.407
						c6.981,0,12.661-5.68,12.661-12.66C167.189,31.113,161.51,25.434,154.528,25.434z M154.528,45.755h-52.407
						c-4.224,0-7.66-3.437-7.66-7.66c0-4.225,3.437-7.661,7.66-7.661h52.407c4.225,0,7.661,3.437,7.661,7.661
						C162.189,42.318,158.753,45.755,154.528,45.755z"/>
				</g>
			</g>
		</g>
		<g>
			<g>
				<path d="M143.093,15.273h-29.536c-5.561,0-10.085,4.524-10.085,10.085v2.242c0,1.381,1.119,2.5,2.5,2.5s2.5-1.119,2.5-2.5
					v-2.242c0-2.804,2.281-5.085,5.085-5.085h29.536c2.805,0,5.086,2.281,5.086,5.085v2.067c0,1.381,1.119,2.5,2.5,2.5
					s2.5-1.119,2.5-2.5v-2.067C153.179,19.798,148.654,15.273,143.093,15.273z"/>
			</g>
		</g>
		<g>
			<g>
				<path d="M128.325,3.08c-5.684,0-10.308,4.624-10.308,10.308v3.655c0,1.381,1.119,2.5,2.5,2.5s2.5-1.119,2.5-2.5v-3.655
					c0-2.927,2.381-5.308,5.308-5.308c2.926,0,5.307,2.381,5.307,5.308v3.581c0,1.381,1.119,2.5,2.5,2.5s2.5-1.119,2.5-2.5v-3.581
					C138.632,7.704,134.008,3.08,128.325,3.08z"/>
			</g>
		</g>
		<g>
			<g>
				<path d="M150.17,35.595h-43.69c-1.381,0-2.5,1.119-2.5,2.5s1.119,2.5,2.5,2.5h43.69c1.381,0,2.5-1.119,2.5-2.5
					S151.551,35.595,150.17,35.595z"/>
			</g>
		</g>
		<g>
			<g>
				<path d="M193.911,40.675h-30.235c-1.381,0-2.5,1.119-2.5,2.5s1.119,2.5,2.5,2.5h30.235c2.656,0,4.816,2.16,4.816,4.816v185.531
					c0,2.656-2.16,4.817-4.816,4.817H62.739c-2.656,0-4.816-2.161-4.816-4.817V72.914l27.238-27.239h7.834
					c1.381,0,2.5-1.119,2.5-2.5s-1.119-2.5-2.5-2.5h-8.869c-0.663,0-1.299,0.264-1.768,0.732L53.655,70.111
					c-0.469,0.469-0.732,1.104-0.732,1.768v164.144c0,5.413,4.403,9.817,9.816,9.817h131.172c5.413,0,9.816-4.404,9.816-9.817
					V50.491C203.728,45.078,199.324,40.675,193.911,40.675z"/>
			</g>
		</g>
		<g>
			<g>
				<path d="M84.126,41.353c-1.381,0-2.5,1.119-2.5,2.5v20.709c0,2.656-2.16,4.817-4.816,4.817H56.228c-1.381,0-2.5,1.119-2.5,2.5
					s1.119,2.5,2.5,2.5H76.81c5.413,0,9.816-4.404,9.816-9.817V43.853C86.626,42.472,85.507,41.353,84.126,41.353z"/>
			</g>
		</g>
		<g>
			<g>
				<path fill="#F9D0B4" d="M105.004,135.173c-1.923-1.922-5.04-1.922-6.963,0l-7.899,7.899l-3.96-3.959
					c-1.923-1.922-5.04-1.922-6.963,0c-1.923,1.922-1.923,5.04,0,6.962l7.441,7.441c0.962,0.961,2.221,1.442,3.481,1.442
					s2.52-0.481,3.481-1.442l11.381-11.381C106.927,140.213,106.927,137.096,105.004,135.173z"/>
			</g>
		</g>
		<g>
			<g>
				<path fill="#B2E26D" d="M105.004,135.173c-1.923-1.922-5.04-1.922-6.963,0l-7.899,7.899l-3.96-3.959
					c-1.923-1.922-5.04-1.922-6.963,0c-1.923,1.922-1.923,5.04,0,6.962l7.441,7.441c0.962,0.961,2.221,1.442,3.481,1.442
					s2.52-0.481,3.481-1.442l11.381-11.381C106.927,140.213,106.927,137.096,105.004,135.173z"/>
			</g>
		</g>
		<g>
			<g>
				<g>
					<g>
						<path d="M106.771,133.404c-2.896-2.894-7.604-2.892-10.497,0.001l-6.132,6.132l-2.193-2.193
							c-2.896-2.894-7.606-2.892-10.497,0.001c-2.895,2.895-2.895,7.604,0,10.498l7.441,7.441c1.402,1.402,3.267,2.175,5.249,2.175
							c1.981,0,3.845-0.772,5.249-2.175l11.38-11.381C109.666,141.009,109.666,136.3,106.771,133.404z M103.236,140.368
							l-11.379,11.38c-0.919,0.917-2.514,0.916-3.429,0.001l-7.441-7.441c-0.944-0.945-0.944-2.482,0-3.427
							c0.473-0.473,1.093-0.709,1.714-0.709s1.241,0.236,1.714,0.708l3.96,3.96c0.977,0.977,2.559,0.977,3.535,0l7.899-7.898
							c0.944-0.944,2.48-0.945,3.427-0.001C104.181,137.886,104.181,139.423,103.236,140.368z"/>
					</g>
				</g>
			</g>
		</g>
		<g>
			<g>
				<g>
					<g>
						<path d="M106.771,133.404c-2.896-2.894-7.604-2.892-10.497,0.001l-6.132,6.132l-2.193-2.193
							c-2.896-2.894-7.606-2.892-10.497,0.001c-2.895,2.895-2.895,7.604,0,10.498l7.441,7.441c1.402,1.402,3.267,2.175,5.249,2.175
							c1.981,0,3.845-0.772,5.249-2.175l11.38-11.381C109.666,141.009,109.666,136.3,106.771,133.404z M103.236,140.368
							l-11.379,11.38c-0.919,0.917-2.514,0.916-3.429,0.001l-7.441-7.441c-0.944-0.945-0.944-2.482,0-3.427
							c0.473-0.473,1.093-0.709,1.714-0.709s1.241,0.236,1.714,0.708l3.96,3.96c0.977,0.977,2.559,0.977,3.535,0l7.899-7.898
							c0.944-0.944,2.48-0.945,3.427-0.001C104.181,137.886,104.181,139.423,103.236,140.368z"/>
					</g>
				</g>
			</g>
		</g>
		<g>
			<g>
				<path fill="#F9D0B4" d="M105.004,167.167c-1.923-1.922-5.04-1.922-6.963,0l-7.899,7.899l-3.96-3.96
					c-1.923-1.922-5.04-1.922-6.963,0c-1.923,1.922-1.923,5.04,0,6.963l7.441,7.441c0.962,0.961,2.221,1.442,3.481,1.442
					s2.52-0.48,3.481-1.442l11.381-11.38C106.927,172.207,106.927,169.089,105.004,167.167z"/>
			</g>
		</g>
		<g>
			<g>
				<path fill="#B2E26D" d="M105.004,167.167c-1.923-1.922-5.04-1.922-6.963,0l-7.899,7.899l-3.96-3.96
					c-1.923-1.922-5.04-1.922-6.963,0c-1.923,1.922-1.923,5.04,0,6.963l7.441,7.441c0.962,0.961,2.221,1.442,3.481,1.442
					s2.52-0.48,3.481-1.442l11.381-11.38C106.927,172.207,106.927,169.089,105.004,167.167z"/>
			</g>
		</g>
		<g>
			<g>
				<g>
					<g>
						<path d="M106.771,165.399c-2.894-2.895-7.604-2.895-10.497,0l-6.132,6.131l-2.193-2.193
							c-2.896-2.895-7.606-2.892-10.497,0.001c-2.895,2.895-2.895,7.604,0,10.498l7.441,7.441c1.402,1.402,3.267,2.175,5.249,2.175
							c1.981,0,3.845-0.771,5.249-2.175l11.38-11.38c1.402-1.402,2.175-3.267,2.175-5.25
							C108.946,168.665,108.174,166.801,106.771,165.399z M103.236,172.361l-11.379,11.38c-0.919,0.917-2.514,0.916-3.429,0.001
							l-7.441-7.441c-0.944-0.945-0.944-2.482,0-3.427c0.473-0.473,1.093-0.709,1.714-0.709s1.241,0.236,1.714,0.708l3.96,3.96
							c0.977,0.977,2.559,0.977,3.535,0l7.899-7.898c0.946-0.943,2.482-0.944,3.427,0.001c0.458,0.457,0.71,1.065,0.71,1.712
							C103.946,171.295,103.694,171.903,103.236,172.361z"/>
					</g>
				</g>
			</g>
		</g>
		<g>
			<g>
				<g>
					<g>
						<path d="M106.771,165.399c-2.894-2.895-7.604-2.895-10.497,0l-6.132,6.131l-2.193-2.193
							c-2.896-2.895-7.606-2.892-10.497,0.001c-2.895,2.895-2.895,7.604,0,10.498l7.441,7.441c1.402,1.402,3.267,2.175,5.249,2.175
							c1.981,0,3.845-0.771,5.249-2.175l11.38-11.38c1.402-1.402,2.175-3.267,2.175-5.25
							C108.946,168.665,108.174,166.801,106.771,165.399z M103.236,172.361l-11.379,11.38c-0.919,0.917-2.514,0.916-3.429,0.001
							l-7.441-7.441c-0.944-0.945-0.944-2.482,0-3.427c0.473-0.473,1.093-0.709,1.714-0.709s1.241,0.236,1.714,0.708l3.96,3.96
							c0.977,0.977,2.559,0.977,3.535,0l7.899-7.898c0.946-0.943,2.482-0.944,3.427,0.001c0.458,0.457,0.71,1.065,0.71,1.712
							C103.946,171.295,103.694,171.903,103.236,172.361z"/>
					</g>
				</g>
			</g>
		</g>
		<g>
			<g>
				<path fill="#F9D0B4" d="M105.004,199.16c-1.923-1.922-5.04-1.922-6.963,0l-7.899,7.899l-3.96-3.96
					c-1.923-1.922-5.04-1.922-6.963,0c-1.923,1.923-1.923,5.04,0,6.963l7.441,7.441c0.962,0.961,2.221,1.442,3.481,1.442
					s2.52-0.481,3.481-1.442l11.381-11.38C106.927,204.2,106.927,201.083,105.004,199.16z"/>
			</g>
		</g>
		<g>
			<g>
				<path fill="#B2E26D" d="M105.004,199.16c-1.923-1.922-5.04-1.922-6.963,0l-7.899,7.899l-3.96-3.96
					c-1.923-1.922-5.04-1.922-6.963,0c-1.923,1.923-1.923,5.04,0,6.963l7.441,7.441c0.962,0.961,2.221,1.442,3.481,1.442
					s2.52-0.481,3.481-1.442l11.381-11.38C106.927,204.2,106.927,201.083,105.004,199.16z"/>
			</g>
		</g>
		<g>
			<g>
				<g>
					<g>
						<path d="M106.771,197.393c-2.896-2.896-7.604-2.895-10.497,0l-6.132,6.132l-2.192-2.193c-2.894-2.892-7.603-2.894-10.498,0
							c-1.402,1.402-2.175,3.267-2.175,5.25c0,1.982,0.772,3.847,2.175,5.248l7.441,7.441c1.402,1.402,3.267,2.175,5.249,2.175
							c1.981,0,3.845-0.772,5.249-2.175l11.38-11.38c1.402-1.402,2.175-3.267,2.175-5.249
							C108.946,200.658,108.174,198.794,106.771,197.393z M103.236,204.354l-11.379,11.38c-0.919,0.916-2.514,0.917-3.429,0.001
							l-7.441-7.442c-0.458-0.457-0.71-1.065-0.71-1.712c0-0.647,0.252-1.256,0.71-1.714c0.473-0.472,1.093-0.708,1.714-0.708
							c0.62,0,1.241,0.236,1.714,0.708l3.96,3.96c0.977,0.977,2.559,0.977,3.535,0l7.899-7.899c0.946-0.944,2.482-0.943,3.427,0.001
							c0.458,0.457,0.71,1.065,0.71,1.713C103.946,203.288,103.694,203.896,103.236,204.354z"/>
					</g>
				</g>
			</g>
		</g>
		<g>
			<g>
				<g>
					<g>
						<path d="M106.771,197.393c-2.896-2.896-7.604-2.895-10.497,0l-6.132,6.132l-2.192-2.193c-2.894-2.892-7.603-2.894-10.498,0
							c-1.402,1.402-2.175,3.267-2.175,5.25c0,1.982,0.772,3.847,2.175,5.248l7.441,7.441c1.402,1.402,3.267,2.175,5.249,2.175
							c1.981,0,3.845-0.772,5.249-2.175l11.38-11.38c1.402-1.402,2.175-3.267,2.175-5.249
							C108.946,200.658,108.174,198.794,106.771,197.393z M103.236,204.354l-11.379,11.38c-0.919,0.916-2.514,0.917-3.429,0.001
							l-7.441-7.442c-0.458-0.457-0.71-1.065-0.71-1.712c0-0.647,0.252-1.256,0.71-1.714c0.473-0.472,1.093-0.708,1.714-0.708
							c0.62,0,1.241,0.236,1.714,0.708l3.96,3.96c0.977,0.977,2.559,0.977,3.535,0l7.899-7.899c0.946-0.944,2.482-0.943,3.427,0.001
							c0.458,0.457,0.71,1.065,0.71,1.713C103.946,203.288,103.694,203.896,103.236,204.354z"/>
					</g>
				</g>
			</g>
		</g>
		<g>
			<g>
				<path d="M178.872,136.27h-60c-1.381,0-2.5,1.119-2.5,2.5s1.119,2.5,2.5,2.5h60c1.381,0,2.5-1.119,2.5-2.5
					S180.253,136.27,178.872,136.27z"/>
			</g>
		</g>
		<g>
			<g>
				<path d="M166.872,146.27h-48c-1.381,0-2.5,1.119-2.5,2.5s1.119,2.5,2.5,2.5h48c1.381,0,2.5-1.119,2.5-2.5
					S168.253,146.27,166.872,146.27z"/>
			</g>
		</g>
		<g>
			<g>
				<path d="M178.872,168.264h-60c-1.381,0-2.5,1.119-2.5,2.5s1.119,2.5,2.5,2.5h60c1.381,0,2.5-1.119,2.5-2.5
					S180.253,168.264,178.872,168.264z"/>
			</g>
		</g>
		<g>
			<g>
				<path d="M166.872,178.264h-48c-1.381,0-2.5,1.119-2.5,2.5s1.119,2.5,2.5,2.5h48c1.381,0,2.5-1.119,2.5-2.5
					S168.253,178.264,166.872,178.264z"/>
			</g>
		</g>
		<g>
			<g>
				<path d="M178.872,200.257h-60c-1.381,0-2.5,1.119-2.5,2.5s1.119,2.5,2.5,2.5h60c1.381,0,2.5-1.119,2.5-2.5
					S180.253,200.257,178.872,200.257z"/>
			</g>
		</g>
		<g>
			<g>
				<path d="M166.872,210.257h-48c-1.381,0-2.5,1.119-2.5,2.5s1.119,2.5,2.5,2.5h48c1.381,0,2.5-1.119,2.5-2.5
					S168.253,210.257,166.872,210.257z"/>
			</g>
		</g>
		<g>
			<g>
				<circle fill="#FC657E" cx="128.325" cy="90.443" r="26.962"/>
			</g>
		</g>
		<g>
			<g>
				<path fill="#70D6F9" d="M136.909,101.099h-17.168c-5.108,0-9.431,3.362-10.876,7.994c4.907,5.119,11.809,8.312,19.46,8.312
					c7.651,0,14.553-3.193,19.46-8.312C146.34,104.461,142.017,101.099,136.909,101.099z"/>
			</g>
		</g>
		<g>
			<g>
				<g>
					<path d="M128.325,60.98c-16.246,0-29.463,13.217-29.463,29.462c0,16.246,13.217,29.463,29.463,29.463
						c16.245,0,29.462-13.217,29.462-29.463C157.787,74.197,144.57,60.98,128.325,60.98z M128.325,114.905
						c-13.489,0-24.463-10.974-24.463-24.463c0-13.488,10.974-24.462,24.463-24.462c13.488,0,24.462,10.974,24.462,24.462
						C152.787,103.932,141.813,114.905,128.325,114.905z"/>
				</g>
			</g>
		</g>
		<g>
			<g>
				<path fill="#F9D0B4" d="M127.889,74.382c-5.268,0-9.539,4.271-9.539,9.539c0,5.268,4.271,9.539,9.539,9.539
					s9.539-4.271,9.539-9.539C137.428,78.652,133.158,74.382,127.889,74.382z"/>
			</g>
		</g>
		<g>
			<g>
				<path d="M150.015,107.875c-1.954-5.549-7.221-9.276-13.105-9.276h-17.168c-5.81,0-11.054,3.665-13.05,9.119
					c-0.475,1.297,0.192,2.732,1.488,3.207c1.302,0.474,2.732-0.192,3.207-1.488c1.277-3.492,4.635-5.838,8.354-5.838h17.168
					c3.767,0,7.139,2.386,8.389,5.937c0.362,1.028,1.327,1.671,2.358,1.671c0.275,0,0.556-0.046,0.83-0.143
					C149.789,110.604,150.473,109.177,150.015,107.875z"/>
			</g>
		</g>
		<g>
			<g>
				<g>
					<path d="M127.89,71.882c-6.639,0-12.039,5.4-12.039,12.039s5.4,12.039,12.039,12.039c6.638,0,12.038-5.4,12.038-12.039
						S134.527,71.882,127.89,71.882z M127.89,90.96c-3.882,0-7.039-3.157-7.039-7.039s3.157-7.039,7.039-7.039
						c3.881,0,7.038,3.157,7.038,7.039S131.771,90.96,127.89,90.96z"/>
				</g>
			</g>
		</g>
		<g>
			<g>
				<path fill="#F5C84C" d="M34.125,181.85c-4.5-0.8-8-4.3-8.9-8.7c0-0.2-0.4-0.2-0.4,0c-0.9,4.4-4.4,7.9-8.9,8.7
					c-0.2,0-0.2,0.3,0,0.4c4.5,0.8,8,4.3,8.9,8.7c0,0.2,0.4,0.2,0.4,0c0.9-4.4,4.4-7.9,8.9-8.7
					C34.325,182.15,34.325,181.85,34.125,181.85z"/>
			</g>
		</g>
		<g>
			<g>
				<path fill="#FC657E" d="M172.935,6.21c-3.157-0.562-5.613-3.018-6.245-6.104c0-0.141-0.281-0.141-0.281,0
					c-0.631,3.087-3.087,5.543-6.245,6.104c-0.14,0-0.14,0.21,0,0.28c3.157,0.562,5.613,3.018,6.245,6.104
					c0,0.141,0.281,0.141,0.281,0c0.631-3.087,3.087-5.543,6.245-6.104C173.075,6.42,173.075,6.21,172.935,6.21z"/>
			</g>
		</g>
		<g>
			<g>
				<path fill="#70D6F9" d="M237.025,102.1h-2.3v-2.3c0-1.7-1.4-3.2-3.2-3.2c-1.8,0-3.2,1.4-3.2,3.2v2.3h-2.3
					c-1.7,0-3.2,1.4-3.2,3.2c0,1.8,1.4,3.2,3.2,3.2h2.3v2.3c0,1.7,1.4,3.2,3.2,3.2c1.8,0,3.2-1.4,3.2-3.2v-2.3h2.3
					c1.7,0,3.2-1.4,3.2-3.2C240.225,103.5,238.825,102.1,237.025,102.1z"/>
			</g>
		</g>
		<g>
			<g>
				<path fill="#87D147" d="M30.125,209c-1.878,0-3.4,1.522-3.4,3.4c0,1.878,1.522,3.4,3.4,3.4s3.4-1.522,3.4-3.4
					C33.525,210.522,32.003,209,30.125,209z"/>
			</g>
		</g>
		<g>
			<g>
				<path fill="#F5C84C" d="M227.125,73c-1.878,0-3.4,1.522-3.4,3.4c0,1.878,1.522,3.4,3.4,3.4s3.4-1.522,3.4-3.4
					C230.525,74.522,229.003,73,227.125,73z"/>
			</g>
		</g>
	</g>
</g>
<g id="Layer_90">
</g>
</svg>
