<?xml version="1.0" encoding="utf-8"?>
<!-- Generator: Adobe Illustrator 24.0.0, SVG Export Plug-In . SVG Version: 6.00 Build 0)  -->
<svg version="1.1" xmlns="http://www.w3.org/2000/svg" xmlns:xlink="http://www.w3.org/1999/xlink" x="0px" y="0px"
	 viewBox="0 0 256 256" enable-background="new 0 0 256 256" xml:space="preserve">
<g id="Layer_1">
</g>
<g id="Layer_2">
</g>
<g id="Layer_3">
</g>
<g id="Layer_4">
</g>
<g id="Layer_5">
</g>
<g id="Layer_6">
</g>
<g id="Layer_7">
</g>
<g id="Layer_8">
</g>
<g id="Layer_9">
</g>
<g id="Layer_10">
</g>
<g id="Layer_11">
</g>
<g id="Layer_12">
	<g>
		<g>
			<g>
				
					<ellipse transform="matrix(0.3827 -0.9239 0.9239 0.3827 17.0356 123.5888)" fill="#87D147" cx="101" cy="49.047" rx="27.893" ry="27.893"/>
			</g>
		</g>
		<g>
			<g>
				<path fill="#EDF4FC" d="M114.171,41.146c-2.005-2.004-5.255-2.004-7.26,0l-8.237,8.237l-4.129-4.129
					c-2.005-2.004-5.255-2.004-7.26,0c-2.005,2.005-2.005,5.255,0,7.26l7.759,7.759c1.003,1.002,2.316,1.503,3.63,1.503
					s2.628-0.501,3.63-1.503l11.867-11.867C116.176,46.401,116.176,43.151,114.171,41.146z"/>
			</g>
		</g>
		<g>
			<g>
				<path fill="#70D6F9" d="M123.955,111.949L104.7,92.694c-2.699-2.699-7.076-2.699-9.775,0L75.67,111.949
					c-2.699,2.699-2.699,7.075,0,9.775c2.699,2.699,7.076,2.699,9.775,0l7.456-7.456v39.97c0,13.8-11.227,25.026-25.027,25.026
					H9.412c-3.817,0-6.912,3.094-6.912,6.912c0,3.817,3.095,6.912,6.912,6.912h58.462c21.422,0,38.85-17.428,38.85-38.849v-39.97
					l7.456,7.456c1.349,1.349,3.118,2.024,4.887,2.024s3.538-0.675,4.887-2.024C126.654,119.024,126.654,114.648,123.955,111.949z"
					/>
			</g>
		</g>
		<g>
			<g>
				<path fill="#EDF4FC" d="M97.557,179.263c-7.132,8.446-17.789,13.823-29.683,13.823h98.61l8.259-13.823H97.557z"/>
			</g>
		</g>
		<g>
			<g>
				<path fill="#FCDD86" d="M251.664,195.041l-32.176-53.854c-2.335-3.908-6.447-6.241-10.999-6.241
					c-4.552,0.001-8.663,2.333-10.998,6.241l-32.174,53.853c-2.396,4.01-2.451,8.831-0.146,12.894
					c2.306,4.063,6.472,6.489,11.143,6.489h64.35c4.672,0,8.838-2.426,11.143-6.489C254.113,203.872,254.06,199.052,251.664,195.041
					z"/>
			</g>
		</g>
		<g>
			<g>
				<path fill="#F5C84C" d="M241.041,201.388l-32.175-53.854c-0.047-0.08-0.127-0.213-0.376-0.213c-0.248,0-0.327,0.133-0.375,0.213
					l-32.175,53.854c-0.053,0.088-0.131,0.219-0.005,0.44c0.126,0.222,0.279,0.222,0.381,0.222h64.35c0.102,0,0.255,0,0.381-0.222
					C241.172,201.606,241.093,201.475,241.041,201.388z"/>
			</g>
		</g>
		<g>
			<g>
				<g>
					<g>
						<path d="M253.81,193.759l-32.176-53.854c-2.791-4.67-7.705-7.458-13.146-7.458c-5.44,0-10.353,2.789-13.143,7.458
							l-32.175,53.854c-2.864,4.793-2.929,10.554-0.174,15.41c2.755,4.856,7.734,7.755,13.318,7.755h64.35
							c5.583,0,10.562-2.899,13.317-7.755C256.737,204.313,256.673,198.552,253.81,193.759z M249.634,206.701
							c-1.856,3.27-5.208,5.222-8.969,5.222h-64.35c-3.761,0-7.113-1.953-8.969-5.223c-1.855-3.27-1.812-7.149,0.117-10.377
							l32.175-53.854c1.879-3.145,5.188-5.022,8.852-5.023c3.664,0,6.974,1.878,8.853,5.023l32.175,53.854
							C251.446,199.551,251.489,203.431,249.634,206.701z"/>
					</g>
				</g>
			</g>
		</g>
		<g>
			<g>
				<g>
					<path d="M125.722,110.181l-19.255-19.255c-3.669-3.67-9.641-3.669-13.31,0l-19.255,19.255c-3.669,3.669-3.669,9.64,0,13.31
						c3.669,3.67,9.64,3.67,13.311,0l3.188-3.188v33.935c0,12.421-10.105,22.526-22.527,22.526H9.412
						c-5.189,0-9.412,4.222-9.412,9.412s4.222,9.412,9.412,9.412h58.462c22.8,0,41.35-18.549,41.35-41.349v-33.935l3.188,3.188
						c1.777,1.777,4.141,2.756,6.655,2.756s4.877-0.979,6.655-2.756C129.392,119.821,129.392,113.85,125.722,110.181z
						 M122.187,119.956c-0.833,0.833-1.941,1.292-3.12,1.292s-2.287-0.458-3.12-1.292l-7.456-7.457
						c-0.715-0.716-1.792-0.93-2.725-0.542c-0.935,0.387-1.543,1.298-1.543,2.31v39.97c0,20.043-16.307,36.349-36.35,36.349H9.412
						c-2.433,0-4.412-1.979-4.412-4.412s1.979-4.412,4.412-4.412h58.462c15.178,0,27.527-12.348,27.527-27.526v-39.97
						c0-1.011-0.609-1.923-1.543-2.31c-0.932-0.388-2.009-0.174-2.724,0.542l-7.456,7.456c-1.721,1.721-4.52,1.72-6.239,0
						c-1.72-1.721-1.72-4.52,0-6.24l19.255-19.255c1.722-1.72,4.52-1.719,6.24,0l19.255,19.255
						C123.907,115.437,123.907,118.235,122.187,119.956z"/>
				</g>
			</g>
		</g>
		<g>
			<g>
				<g>
					<path d="M243.187,200.105l-32.172-53.85c-0.543-0.912-1.463-1.435-2.524-1.435c-1.061,0-1.98,0.523-2.521,1.431l-32.173,53.85
						c-0.561,0.934-0.574,2.013-0.038,2.958c0.536,0.947,1.468,1.49,2.557,1.49h64.35c1.085,0,2.015-0.541,2.556-1.488
						C243.759,202.113,243.745,201.034,243.187,200.105z M179.95,199.549l28.54-47.77l28.54,47.77H179.95z"/>
				</g>
			</g>
		</g>
		<g>
			<g>
				<path d="M208.49,166.162c-1.381,0-2.5,1.119-2.5,2.5v13.994c0,1.381,1.119,2.5,2.5,2.5s2.5-1.119,2.5-2.5v-13.994
					C210.99,167.281,209.871,166.162,208.49,166.162z"/>
			</g>
		</g>
		<g>
			<g>
				<path d="M208.49,188.676c-1.381,0-2.5,1.119-2.5,2.5v1.286c0,1.381,1.119,2.5,2.5,2.5s2.5-1.119,2.5-2.5v-1.286
					C210.99,189.795,209.871,188.676,208.49,188.676z"/>
			</g>
		</g>
		<g>
			<g>
				<path fill="#F5C84C" d="M43.8,156.397c-4.5-0.8-8-4.3-8.9-8.7c0-0.2-0.4-0.2-0.4,0c-0.9,4.4-4.4,7.9-8.9,8.7
					c-0.2,0-0.2,0.3,0,0.4c4.5,0.8,8,4.3,8.9,8.7c0,0.2,0.4,0.2,0.4,0c0.9-4.4,4.4-7.9,8.9-8.7C44,156.697,44,156.397,43.8,156.397z
					"/>
			</g>
		</g>
		<g>
			<g>
				<path fill="#70D6F9" d="M143.61,87.756c-3.158-0.561-5.613-3.017-6.245-6.104c0-0.14-0.281-0.14-0.281,0
					c-0.631,3.087-3.087,5.543-6.245,6.104c-0.14,0-0.14,0.211,0,0.281c3.158,0.561,5.613,3.017,6.245,6.104
					c0,0.14,0.281,0.14,0.281,0c0.631-3.087,3.087-5.543,6.245-6.104C143.75,87.967,143.75,87.756,143.61,87.756z"/>
			</g>
		</g>
		<g>
			<g>
				<path fill="#87D147" d="M145.7,211.647h-2.3v-2.3c0-1.7-1.4-3.2-3.2-3.2s-3.2,1.4-3.2,3.2v2.3h-2.3c-1.7,0-3.2,1.4-3.2,3.2
					s1.4,3.2,3.2,3.2h2.3v2.3c0,1.7,1.4,3.2,3.2,3.2s3.2-1.4,3.2-3.2v-2.3h2.3c1.7,0,3.2-1.4,3.2-3.2S147.5,211.647,145.7,211.647z"
					/>
			</g>
		</g>
		<g>
			<g>
				<path fill="#FC657E" d="M60.8,141.547c-1.878,0-3.4,1.522-3.4,3.4c0,1.878,1.522,3.4,3.4,3.4s3.4-1.522,3.4-3.4
					C64.2,143.069,62.677,141.547,60.8,141.547z"/>
			</g>
		</g>
		<g>
			<g>
				<path fill="#F5C84C" d="M157.8,230.547c-1.878,0-3.4,1.522-3.4,3.4c0,1.878,1.522,3.4,3.4,3.4s3.4-1.522,3.4-3.4
					C161.2,232.069,159.677,230.547,157.8,230.547z"/>
			</g>
		</g>
		<g>
			<g>
				<g>
					<g>
						<path d="M115.939,39.378c-2.977-2.975-7.819-2.975-10.795,0l-6.469,6.469l-2.362-2.361c-2.976-2.975-7.818-2.976-10.796,0
							c-2.976,2.976-2.976,7.819,0,10.795l7.76,7.76c1.443,1.441,3.359,2.235,5.397,2.235c2.039,0,3.955-0.794,5.397-2.236
							l11.867-11.867C118.916,47.198,118.916,42.354,115.939,39.378z M112.404,46.639l-11.867,11.867
							c-0.996,0.995-2.73,0.994-3.726,0l-7.759-7.759c-1.027-1.027-1.027-2.698,0-3.725c0.514-0.513,1.188-0.77,1.863-0.77
							c0.674,0,1.349,0.257,1.862,0.77l4.129,4.129c0.977,0.976,2.56,0.976,3.535,0l8.236-8.236c1.027-1.026,2.698-1.026,3.726,0
							C113.431,43.941,113.431,45.612,112.404,46.639z"/>
					</g>
				</g>
			</g>
		</g>
		<g>
			<g>
				<g>
					<path d="M101,18.653c-16.759,0-30.393,13.634-30.393,30.393c0,16.759,13.634,30.394,30.393,30.394s30.393-13.634,30.393-30.394
						C131.393,32.288,117.758,18.653,101,18.653z M101,74.44c-14.002,0-25.393-11.392-25.393-25.394S86.998,23.653,101,23.653
						s25.393,11.391,25.393,25.393S115.001,74.44,101,74.44z"/>
				</g>
			</g>
		</g>
		<g>
			<g>
				<path d="M174.229,176.763H98.625c-1.381,0-2.5,1.119-2.5,2.5s1.119,2.5,2.5,2.5h75.604c1.381,0,2.5-1.119,2.5-2.5
					S175.61,176.763,174.229,176.763z"/>
			</g>
		</g>
		<g>
			<g>
				<path d="M165.953,190.586H67.874c-1.381,0-2.5,1.119-2.5,2.5s1.119,2.5,2.5,2.5h98.079c1.381,0,2.5-1.119,2.5-2.5
					S167.334,190.586,165.953,190.586z"/>
			</g>
		</g>
	</g>
</g>
<g id="Layer_13">
</g>
<g id="Layer_14">
</g>
<g id="Layer_15">
</g>
<g id="Layer_16">
</g>
<g id="Layer_17">
</g>
<g id="Layer_18">
</g>
<g id="Layer_19">
</g>
<g id="Layer_20">
</g>
<g id="Layer_21">
</g>
<g id="Layer_22">
</g>
<g id="Layer_23">
</g>
<g id="Layer_24">
</g>
<g id="Layer_25">
</g>
<g id="Layer_26">
</g>
<g id="Layer_27">
</g>
<g id="Layer_28">
</g>
<g id="Layer_29">
</g>
<g id="Layer_30">
</g>
<g id="Layer_31">
</g>
<g id="Layer_32">
</g>
<g id="Layer_33">
</g>
<g id="Layer_34">
</g>
<g id="Layer_35">
</g>
<g id="Layer_36">
</g>
<g id="Layer_37">
</g>
<g id="Layer_38">
</g>
<g id="Layer_39">
</g>
<g id="Layer_40">
</g>
<g id="Layer_41">
</g>
<g id="Layer_42">
</g>
<g id="Layer_43">
</g>
<g id="Layer_44">
</g>
<g id="Layer_45">
</g>
<g id="Layer_46">
</g>
<g id="Layer_47">
</g>
<g id="Layer_48">
</g>
<g id="Layer_49">
</g>
<g id="Layer_50">
</g>
<g id="Layer_51">
</g>
<g id="Layer_52">
</g>
<g id="Layer_53">
</g>
<g id="Layer_54">
</g>
<g id="Layer_55">
</g>
<g id="Layer_56">
</g>
<g id="Layer_57">
</g>
<g id="Layer_58">
</g>
<g id="Layer_59">
</g>
<g id="Layer_60">
</g>
<g id="Layer_61">
</g>
<g id="Layer_62">
</g>
<g id="Layer_63">
</g>
<g id="Layer_64">
</g>
<g id="Layer_65">
</g>
<g id="Layer_66">
</g>
<g id="Layer_67">
</g>
<g id="Layer_68">
</g>
<g id="Layer_69">
</g>
<g id="Layer_70">
</g>
<g id="Layer_71">
</g>
<g id="Layer_72">
</g>
<g id="Layer_73">
</g>
<g id="Layer_74">
</g>
<g id="Layer_75">
</g>
<g id="Layer_76">
</g>
<g id="Layer_77">
</g>
<g id="Layer_78">
</g>
<g id="Layer_79">
</g>
<g id="Layer_80">
</g>
<g id="Layer_81">
</g>
<g id="Layer_82">
</g>
<g id="Layer_83">
</g>
<g id="Layer_84">
</g>
<g id="Layer_85">
</g>
<g id="Layer_86">
</g>
<g id="Layer_87">
</g>
<g id="Layer_88">
</g>
<g id="Layer_89">
</g>
<g id="Layer_90">
</g>
</svg>
