<?xml version="1.0" encoding="utf-8"?>
<!-- Generator: Adobe Illustrator 24.0.0, SVG Export Plug-In . SVG Version: 6.00 Build 0)  -->
<svg version="1.1" xmlns="http://www.w3.org/2000/svg" xmlns:xlink="http://www.w3.org/1999/xlink" x="0px" y="0px"
	 viewBox="0 0 256 256" enable-background="new 0 0 256 256" xml:space="preserve">
<g id="Layer_1">
</g>
<g id="Layer_2">
</g>
<g id="Layer_3">
</g>
<g id="Layer_4">
</g>
<g id="Layer_5">
</g>
<g id="Layer_6">
</g>
<g id="Layer_7">
</g>
<g id="Layer_8">
</g>
<g id="Layer_9">
</g>
<g id="Layer_10">
</g>
<g id="Layer_11">
</g>
<g id="Layer_12">
</g>
<g id="Layer_13">
</g>
<g id="Layer_14">
</g>
<g id="Layer_15">
</g>
<g id="Layer_16">
</g>
<g id="Layer_17">
</g>
<g id="Layer_18">
</g>
<g id="Layer_19">
</g>
<g id="Layer_20">
</g>
<g id="Layer_21">
</g>
<g id="Layer_22">
</g>
<g id="Layer_23">
</g>
<g id="Layer_24">
</g>
<g id="Layer_25">
</g>
<g id="Layer_26">
</g>
<g id="Layer_27">
</g>
<g id="Layer_28">
</g>
<g id="Layer_29">
</g>
<g id="Layer_30">
</g>
<g id="Layer_31">
</g>
<g id="Layer_32">
</g>
<g id="Layer_33">
</g>
<g id="Layer_34">
</g>
<g id="Layer_35">
</g>
<g id="Layer_36">
</g>
<g id="Layer_37">
</g>
<g id="Layer_38">
</g>
<g id="Layer_39">
</g>
<g id="Layer_40">
</g>
<g id="Layer_41">
</g>
<g id="Layer_42">
</g>
<g id="Layer_43">
</g>
<g id="Layer_44">
</g>
<g id="Layer_45">
</g>
<g id="Layer_46">
</g>
<g id="Layer_47">
</g>
<g id="Layer_48">
</g>
<g id="Layer_49">
	<g>
		<g>
			<g>
				<circle fill="#FC657E" cx="128" cy="25.095" r="22.595"/>
			</g>
		</g>
		<g>
			<g>
				<path fill="#70D6F9" d="M135.193,34.025h-14.387c-4.281,0-7.903,2.818-9.114,6.699c4.112,4.29,9.896,6.965,16.308,6.965
					c6.412,0,12.195-2.675,16.308-6.965C143.096,36.842,139.474,34.025,135.193,34.025z"/>
			</g>
		</g>
		<g>
			<g>
				<circle fill="#F5C84C" cx="128" cy="146.375" r="22.595"/>
			</g>
		</g>
		<g>
			<g>
				<path fill="#70D6F9" d="M135.193,155.305h-14.387c-4.281,0-7.903,2.818-9.114,6.699c4.112,4.29,9.896,6.965,16.308,6.965
					c6.412,0,12.195-2.675,16.308-6.965C143.096,158.122,139.474,155.305,135.193,155.305z"/>
			</g>
		</g>
		<g>
			<g>
				<path fill="#EDF4FC" d="M192.349,146.48h-41.759c-0.057,12.43-10.146,22.489-22.589,22.489
					c-12.443,0-22.532-10.06-22.589-22.489H63.651c-9.938,0-18.07,8.132-18.07,18.07v47.767c0,9.938,8.131,18.07,18.07,18.07
					c1.636,0,2.962,1.326,2.962,2.962v16.607c0,3.328,4.178,4.813,6.279,2.232l16.111-19.794c1.034-1.271,2.585-2.008,4.223-2.008
					h99.123c9.938,0,18.07-8.131,18.07-18.07V164.55C210.418,154.612,202.287,146.48,192.349,146.48z"/>
			</g>
		</g>
		<g>
			<g>
				<path fill="#EDF4FC" d="M192.349,25.2h-41.759C150.532,37.63,140.443,47.689,128,47.689c-12.443,0-22.532-10.06-22.589-22.489
					H63.651c-9.938,0-18.07,8.132-18.07,18.07v47.767c0,9.938,8.131,18.07,18.07,18.07c1.636,0,2.962,1.326,2.962,2.962v16.607
					c0,3.328,4.178,4.813,6.279,2.232l16.111-19.794c1.034-1.271,2.585-2.008,4.223-2.008h99.123c9.938,0,18.07-8.131,18.07-18.07
					V43.27C210.418,33.332,202.287,25.2,192.349,25.2z"/>
			</g>
		</g>
		<g>
			<g>
				<g>
					<path fill="#F5C84C" d="M80.937,193.777c0.889-0.867,0.399-2.377-0.83-2.555l-4.289-0.623c-0.488-0.071-0.91-0.377-1.128-0.82
						l-1.918-3.886c-0.549-1.114-2.137-1.114-2.687,0l-1.918,3.886c-0.218,0.442-0.64,0.749-1.128,0.82l-4.289,0.623
						c-1.229,0.178-1.719,1.689-0.83,2.555l3.104,3.025c0.353,0.344,0.514,0.84,0.431,1.326l-0.733,4.272
						c-0.21,1.224,1.075,2.157,2.174,1.579l3.836-2.017c0.436-0.229,0.958-0.229,1.394,0l3.836,2.017
						c1.099,0.578,2.384-0.355,2.174-1.579l-0.733-4.272c-0.083-0.486,0.078-0.982,0.431-1.326L80.937,193.777z"/>
				</g>
			</g>
			<g>
				<g>
					<g>
						<path d="M83.693,191.469c-0.474-1.458-1.711-2.501-3.228-2.721l-3.768-0.548l-1.685-3.414
							c-0.679-1.375-2.053-2.229-3.586-2.229s-2.907,0.854-3.586,2.229l-1.685,3.414l-3.768,0.548
							c-1.517,0.22-2.754,1.263-3.228,2.721s-0.086,3.029,1.012,4.098l2.727,2.658l-0.644,3.752c-0.26,1.511,0.35,3.009,1.59,3.91
							c1.241,0.903,2.855,1.019,4.211,0.305l3.37-1.772l3.37,1.772c0.591,0.31,1.229,0.463,1.864,0.463
							c0.825,0,1.646-0.259,2.347-0.769c1.24-0.901,1.85-2.399,1.59-3.91l-0.644-3.753l2.726-2.657
							C83.779,194.498,84.167,192.927,83.693,191.469z M76.09,195.01c-0.945,0.919-1.376,2.244-1.151,3.541l0.39,2.271l-2.04-1.072
							c-0.582-0.306-1.222-0.459-1.86-0.459s-1.278,0.153-1.86,0.459l-2.04,1.072l0.391-2.273c0.221-1.296-0.209-2.619-1.15-3.537
							l-1.65-1.608l2.279-0.332c1.304-0.189,2.43-1.007,3.012-2.187l1.02-2.067l1.02,2.065c0.582,1.181,1.708,2,3.011,2.188
							l2.28,0.332L76.09,195.01z"/>
					</g>
				</g>
			</g>
		</g>
		<g>
			<g>
				<g>
					<path fill="#F5C84C" d="M109.223,193.777c0.889-0.867,0.399-2.377-0.83-2.555l-4.289-0.623c-0.488-0.071-0.91-0.377-1.128-0.82
						l-1.918-3.886c-0.55-1.114-2.137-1.114-2.687,0l-1.918,3.886c-0.218,0.442-0.64,0.749-1.128,0.82l-4.289,0.623
						c-1.229,0.178-1.719,1.689-0.83,2.555l3.104,3.025c0.353,0.344,0.514,0.84,0.431,1.326l-0.733,4.272
						c-0.21,1.224,1.075,2.157,2.174,1.579l3.836-2.017c0.436-0.229,0.958-0.229,1.394,0l3.836,2.017
						c1.099,0.578,2.384-0.355,2.174-1.579l-0.733-4.272c-0.083-0.486,0.078-0.982,0.431-1.326L109.223,193.777z"/>
				</g>
			</g>
			<g>
				<g>
					<g>
						<path d="M111.979,191.469c-0.474-1.458-1.711-2.501-3.228-2.721l-3.768-0.548l-1.685-3.414
							c-0.679-1.375-2.053-2.229-3.586-2.229s-2.907,0.854-3.586,2.229l-1.685,3.414l-3.768,0.548
							c-1.517,0.22-2.754,1.263-3.228,2.721s-0.086,3.029,1.012,4.098l2.727,2.658l-0.644,3.752c-0.26,1.511,0.35,3.009,1.59,3.91
							c1.241,0.903,2.855,1.019,4.211,0.305l3.37-1.772l3.37,1.772c0.591,0.31,1.228,0.463,1.864,0.463
							c0.825,0,1.646-0.259,2.347-0.769c1.24-0.901,1.85-2.399,1.59-3.91l-0.644-3.753l2.726-2.657
							C112.065,194.498,112.453,192.927,111.979,191.469z M104.376,195.01c-0.942,0.917-1.374,2.24-1.151,3.541l0.39,2.271
							l-2.04-1.072c-0.582-0.306-1.222-0.459-1.86-0.459s-1.278,0.153-1.86,0.459l-2.04,1.072l0.391-2.273
							c0.221-1.296-0.209-2.619-1.15-3.537l-1.65-1.608l2.279-0.332c1.304-0.189,2.43-1.007,3.012-2.187l1.02-2.067l1.02,2.065
							c0.582,1.181,1.708,2,3.011,2.188l2.28,0.332L104.376,195.01z"/>
					</g>
				</g>
			</g>
		</g>
		<g>
			<g>
				<g>
					<path fill="#F5C84C" d="M137.509,193.777c0.889-0.867,0.398-2.377-0.83-2.555l-4.289-0.623c-0.488-0.071-0.91-0.377-1.128-0.82
						l-1.918-3.886c-0.549-1.114-2.137-1.114-2.687,0l-1.918,3.886c-0.218,0.442-0.64,0.749-1.128,0.82l-4.289,0.623
						c-1.229,0.178-1.719,1.689-0.83,2.555l3.104,3.025c0.353,0.344,0.514,0.84,0.431,1.326l-0.733,4.272
						c-0.21,1.224,1.075,2.157,2.174,1.579l3.836-2.017c0.436-0.229,0.958-0.229,1.394,0l3.836,2.017
						c1.099,0.578,2.384-0.355,2.174-1.579l-0.733-4.272c-0.083-0.486,0.078-0.982,0.431-1.326L137.509,193.777z"/>
				</g>
			</g>
			<g>
				<g>
					<g>
						<path d="M140.266,191.469c-0.474-1.458-1.711-2.501-3.228-2.721l-3.768-0.548l-1.685-3.414
							c-0.679-1.375-2.053-2.229-3.586-2.229s-2.907,0.854-3.586,2.229l-1.685,3.414l-3.768,0.548
							c-1.517,0.22-2.754,1.263-3.228,2.721s-0.086,3.029,1.012,4.098l2.727,2.658l-0.644,3.752c-0.26,1.511,0.35,3.009,1.59,3.91
							c1.241,0.903,2.855,1.019,4.211,0.305l3.37-1.772l3.37,1.772c0.591,0.31,1.229,0.463,1.864,0.463
							c0.825,0,1.646-0.259,2.347-0.769c1.24-0.901,1.85-2.399,1.59-3.91l-0.644-3.753l2.726-2.657
							C140.352,194.498,140.739,192.927,140.266,191.469z M132.66,195.012c-0.941,0.918-1.371,2.24-1.149,3.539l0.39,2.271
							l-2.04-1.072c-0.582-0.306-1.222-0.459-1.86-0.459s-1.278,0.153-1.86,0.459l-2.04,1.072l0.391-2.273
							c0.221-1.296-0.209-2.619-1.15-3.537l-1.65-1.608l2.279-0.332c1.304-0.189,2.43-1.007,3.012-2.187l1.02-2.067l1.02,2.065
							c0.582,1.181,1.708,2,3.011,2.188l2.28,0.332L132.66,195.012z"/>
					</g>
				</g>
			</g>
		</g>
		<g>
			<g>
				<g>
					<path fill="#F5C84C" d="M165.795,193.777c0.889-0.867,0.398-2.377-0.83-2.555l-4.289-0.623c-0.488-0.071-0.91-0.377-1.128-0.82
						l-1.918-3.886c-0.55-1.114-2.137-1.114-2.687,0l-1.918,3.886c-0.218,0.442-0.64,0.749-1.128,0.82l-4.289,0.623
						c-1.229,0.178-1.719,1.689-0.83,2.555l3.104,3.025c0.353,0.344,0.514,0.84,0.431,1.326l-0.733,4.272
						c-0.21,1.224,1.075,2.157,2.174,1.579l3.836-2.017c0.436-0.229,0.958-0.229,1.394,0l3.836,2.017
						c1.099,0.578,2.384-0.355,2.174-1.579l-0.733-4.272c-0.083-0.486,0.078-0.982,0.431-1.326L165.795,193.777z"/>
				</g>
			</g>
			<g>
				<g>
					<g>
						<path d="M168.552,191.469c-0.474-1.458-1.711-2.501-3.228-2.721l-3.768-0.548l-1.685-3.414
							c-0.679-1.375-2.053-2.229-3.586-2.229s-2.907,0.854-3.586,2.229l-1.685,3.414l-3.768,0.548
							c-1.517,0.22-2.754,1.263-3.228,2.721s-0.086,3.029,1.012,4.098l2.727,2.658l-0.644,3.752c-0.26,1.511,0.35,3.009,1.59,3.91
							c1.241,0.903,2.855,1.019,4.211,0.305l3.37-1.772l3.37,1.772c0.591,0.31,1.229,0.463,1.864,0.463
							c0.825,0,1.646-0.259,2.347-0.769c1.24-0.901,1.85-2.399,1.59-3.91l-0.644-3.753l2.726-2.657
							C168.638,194.498,169.025,192.927,168.552,191.469z M160.946,195.012c-0.941,0.918-1.371,2.24-1.149,3.539l0.39,2.271
							l-2.04-1.072c-0.582-0.306-1.222-0.459-1.86-0.459s-1.278,0.153-1.86,0.459l-2.04,1.072l0.391-2.273
							c0.222-1.299-0.21-2.622-1.15-3.537l-1.65-1.608l2.279-0.332c1.304-0.189,2.43-1.007,3.012-2.187l1.02-2.067l1.02,2.065
							c0.582,1.181,1.708,2,3.011,2.188l2.28,0.332L160.946,195.012z"/>
					</g>
				</g>
			</g>
		</g>
		<g>
			<g>
				<g>
					<path fill="#F5C84C" d="M194.081,193.777c0.889-0.867,0.399-2.377-0.83-2.555l-4.289-0.623c-0.488-0.071-0.91-0.377-1.128-0.82
						l-1.918-3.886c-0.55-1.114-2.137-1.114-2.687,0l-1.918,3.886c-0.218,0.442-0.64,0.749-1.128,0.82l-4.289,0.623
						c-1.229,0.178-1.719,1.689-0.83,2.555l3.104,3.025c0.353,0.344,0.514,0.84,0.431,1.326l-0.733,4.272
						c-0.21,1.224,1.075,2.157,2.174,1.579l3.836-2.017c0.436-0.229,0.958-0.229,1.394,0l3.836,2.017
						c1.099,0.578,2.384-0.355,2.174-1.579l-0.733-4.272c-0.083-0.486,0.078-0.982,0.431-1.326L194.081,193.777z"/>
				</g>
			</g>
			<g>
				<g>
					<g>
						<path d="M196.838,191.469c-0.474-1.458-1.711-2.501-3.228-2.721l-3.768-0.548l-1.685-3.414
							c-0.679-1.375-2.053-2.229-3.586-2.229s-2.907,0.854-3.586,2.229l-1.685,3.414l-3.768,0.548
							c-1.517,0.22-2.754,1.263-3.228,2.721s-0.086,3.029,1.012,4.098l2.727,2.658l-0.644,3.752c-0.26,1.511,0.35,3.009,1.59,3.91
							c1.241,0.903,2.855,1.019,4.211,0.305l3.37-1.772l3.37,1.772c0.591,0.31,1.229,0.463,1.864,0.463
							c0.825,0,1.646-0.259,2.347-0.769c1.24-0.901,1.85-2.399,1.59-3.91l-0.644-3.753l2.726-2.657
							C196.924,194.498,197.312,192.927,196.838,191.469z M189.232,195.012c-0.941,0.918-1.371,2.24-1.149,3.539l0.39,2.271
							l-2.04-1.072c-0.582-0.306-1.222-0.459-1.86-0.459s-1.278,0.153-1.86,0.459l-2.04,1.072l0.39-2.268
							c0.225-1.3-0.206-2.625-1.149-3.542l-1.65-1.608l2.279-0.332c1.304-0.189,2.43-1.007,3.012-2.187l1.02-2.067l1.02,2.065
							c0.582,1.181,1.708,2,3.011,2.188l2.28,0.332L189.232,195.012z"/>
					</g>
				</g>
			</g>
		</g>
		<g>
			<g>
				<g>
					<path d="M128,121.28c-13.837,0-25.095,11.257-25.095,25.095s11.258,25.095,25.095,25.095s25.095-11.257,25.095-25.095
						S141.837,121.28,128,121.28z M128,166.469c-11.08,0-20.095-9.015-20.095-20.095S116.92,126.28,128,126.28
						s20.095,9.015,20.095,20.095S139.08,166.469,128,166.469z"/>
				</g>
			</g>
		</g>
		<g>
			<g>
				<path fill="#F9D0B4" d="M127.635,132.916c-4.415,0-7.994,3.579-7.994,7.994c0,4.415,3.579,7.993,7.994,7.993
					s7.994-3.579,7.994-7.993C135.629,136.494,132.05,132.916,127.635,132.916z"/>
			</g>
		</g>
		<g>
			<g>
				<path d="M146.495,160.673c-1.741-4.706-6.283-7.868-11.302-7.868h-14.387c-4.944,0-9.332,2.964-11.179,7.551
					c-0.516,1.281,0.104,2.737,1.386,3.253s2.737-0.106,3.253-1.386c1.08-2.684,3.647-4.418,6.54-4.418h14.387
					c2.937,0,5.594,1.85,6.612,4.603c0.373,1.009,1.329,1.633,2.345,1.633c0.288,0,0.581-0.05,0.867-0.156
					C146.313,163.406,146.975,161.968,146.495,160.673z"/>
			</g>
		</g>
		<g>
			<g>
				<g>
					<path d="M127.635,130.416c-5.786,0-10.493,4.708-10.493,10.494s4.707,10.494,10.493,10.494s10.494-4.708,10.494-10.494
						S133.421,130.416,127.635,130.416z M127.635,146.403c-3.029,0-5.493-2.464-5.493-5.494s2.464-5.494,5.493-5.494
						s5.494,2.464,5.494,5.494S130.664,146.403,127.635,146.403z"/>
				</g>
			</g>
		</g>
		<g>
			<g>
				<path d="M192.349,143.98h-41.005c-1.381,0-2.5,1.119-2.5,2.5s1.119,2.5,2.5,2.5h41.005c8.585,0,15.569,6.985,15.569,15.57
					v47.767c0,8.585-6.984,15.57-15.569,15.57H93.226c-2.4,0-4.646,1.068-6.161,2.93l-16.111,19.794
					c-0.401,0.493-0.894,0.414-1.15,0.322c-0.258-0.091-0.689-0.34-0.689-0.977V233.35c0-3.012-2.45-5.462-5.462-5.462
					c-8.585,0-15.569-6.984-15.569-15.57V164.55c0-8.585,6.984-15.57,15.569-15.57h40.912c1.381,0,2.5-1.119,2.5-2.5
					s-1.119-2.5-2.5-2.5H63.651c-11.342,0-20.569,9.228-20.569,20.57v47.767c0,11.342,9.228,20.57,20.569,20.57
					c0.255,0,0.462,0.208,0.462,0.462v16.607c0,2.588,1.576,4.821,4.015,5.688c0.679,0.242,1.372,0.358,2.056,0.358
					c1.771,0,3.469-0.787,4.647-2.235l16.11-19.794c0.563-0.69,1.395-1.086,2.284-1.086h99.123c11.342,0,20.569-9.228,20.569-20.57
					V164.55C212.918,153.208,203.69,143.98,192.349,143.98z"/>
			</g>
		</g>
		<g>
			<g>
				<path d="M186.739,166.609h-23.479c-1.381,0-2.5,1.119-2.5,2.5s1.119,2.5,2.5,2.5h23.479c1.381,0,2.5-1.119,2.5-2.5
					S188.12,166.609,186.739,166.609z"/>
			</g>
		</g>
		<g>
			<g>
				<path d="M175,157.671h-11.739c-1.381,0-2.5,1.119-2.5,2.5s1.119,2.5,2.5,2.5H175c1.381,0,2.5-1.119,2.5-2.5
					S176.381,157.671,175,157.671z"/>
			</g>
		</g>
		<g>
			<g>
				<g>
					<path fill="#F5C84C" d="M80.937,72.497c0.889-0.867,0.399-2.377-0.83-2.555l-4.289-0.623c-0.488-0.071-0.91-0.377-1.128-0.82
						l-1.918-3.886c-0.549-1.114-2.137-1.114-2.687,0l-1.918,3.886c-0.218,0.442-0.64,0.749-1.128,0.82l-4.289,0.623
						c-1.229,0.178-1.719,1.689-0.83,2.555l3.104,3.025c0.353,0.344,0.514,0.84,0.431,1.326l-0.733,4.272
						c-0.21,1.224,1.075,2.157,2.174,1.579l3.836-2.017c0.436-0.229,0.958-0.229,1.394,0l3.836,2.017
						c1.099,0.578,2.384-0.355,2.174-1.579l-0.733-4.272c-0.083-0.486,0.078-0.982,0.431-1.326L80.937,72.497z"/>
				</g>
			</g>
			<g>
				<g>
					<g>
						<path d="M83.693,70.189c-0.473-1.458-1.71-2.501-3.228-2.722l-3.768-0.547l-1.685-3.414c-0.679-1.375-2.053-2.229-3.586-2.229
							s-2.907,0.854-3.586,2.229l-1.685,3.414l-3.769,0.547c-1.517,0.221-2.754,1.264-3.227,2.722
							c-0.474,1.458-0.086,3.028,1.012,4.097l2.727,2.658l-0.644,3.753c-0.26,1.511,0.35,3.009,1.59,3.91
							c1.238,0.902,2.854,1.02,4.211,0.305l3.37-1.772l3.37,1.772c0.591,0.31,1.229,0.463,1.864,0.463
							c0.826,0,1.646-0.259,2.347-0.769c1.24-0.901,1.85-2.399,1.59-3.909l-0.644-3.753l2.726-2.657
							C83.779,73.218,84.167,71.647,83.693,70.189z M76.089,73.731c-0.944,0.92-1.374,2.244-1.15,3.54l0.39,2.271l-2.042-1.073
							c-0.581-0.305-1.22-0.458-1.857-0.458c-0.64,0-1.278,0.153-1.861,0.459l-2.04,1.072l0.39-2.272
							c0.222-1.295-0.207-2.618-1.149-3.537l-1.649-1.608l2.281-0.332c1.303-0.19,2.429-1.009,3.009-2.187l1.02-2.066l1.019,2.064
							c0.581,1.181,1.707,2,3.012,2.19l2.279,0.331L76.089,73.731z"/>
					</g>
				</g>
			</g>
		</g>
		<g>
			<g>
				<g>
					<path fill="#F5C84C" d="M109.223,72.497c0.889-0.867,0.399-2.377-0.83-2.555l-4.289-0.623c-0.488-0.071-0.91-0.377-1.128-0.82
						l-1.918-3.886c-0.55-1.114-2.137-1.114-2.687,0l-1.918,3.886c-0.218,0.442-0.64,0.749-1.128,0.82l-4.289,0.623
						c-1.229,0.178-1.719,1.689-0.83,2.555l3.104,3.025c0.353,0.344,0.514,0.84,0.431,1.326l-0.733,4.272
						c-0.21,1.224,1.075,2.157,2.174,1.579l3.836-2.017c0.436-0.229,0.958-0.229,1.394,0l3.836,2.017
						c1.099,0.578,2.384-0.355,2.174-1.579l-0.733-4.272c-0.083-0.486,0.078-0.982,0.431-1.326L109.223,72.497z"/>
				</g>
			</g>
			<g>
				<g>
					<g>
						<path d="M111.979,70.189c-0.473-1.458-1.71-2.501-3.228-2.722l-3.768-0.547l-1.685-3.414
							c-0.679-1.375-2.053-2.229-3.586-2.229s-2.907,0.854-3.586,2.229l-1.685,3.414l-3.769,0.547
							c-1.517,0.221-2.754,1.264-3.227,2.722c-0.474,1.458-0.086,3.028,1.012,4.097l2.727,2.658l-0.644,3.753
							c-0.26,1.511,0.35,3.009,1.59,3.91c1.238,0.902,2.854,1.02,4.211,0.305l3.37-1.772l3.37,1.772
							c0.591,0.31,1.228,0.463,1.864,0.463c0.826,0,1.646-0.259,2.347-0.769c1.24-0.901,1.85-2.399,1.59-3.909l-0.644-3.753
							l2.726-2.657C112.065,73.218,112.453,71.647,111.979,70.189z M104.375,73.731c-0.942,0.917-1.373,2.24-1.15,3.54l0.39,2.271
							l-2.042-1.073c-0.581-0.305-1.22-0.458-1.857-0.458c-0.64,0-1.278,0.153-1.861,0.459l-2.04,1.072l0.39-2.272
							c0.222-1.295-0.207-2.618-1.149-3.537l-1.649-1.608l2.281-0.332c1.303-0.19,2.429-1.009,3.009-2.187l1.02-2.066l1.019,2.064
							c0.581,1.181,1.707,2,3.012,2.19l2.279,0.331L104.375,73.731z"/>
					</g>
				</g>
			</g>
		</g>
		<g>
			<g>
				<g>
					<path fill="#F5C84C" d="M137.509,72.497c0.889-0.867,0.398-2.377-0.83-2.555l-4.289-0.623c-0.488-0.071-0.91-0.377-1.128-0.82
						l-1.918-3.886c-0.549-1.114-2.137-1.114-2.687,0l-1.918,3.886c-0.218,0.442-0.64,0.749-1.128,0.82l-4.289,0.623
						c-1.229,0.178-1.719,1.689-0.83,2.555l3.104,3.025c0.353,0.344,0.514,0.84,0.431,1.326l-0.733,4.272
						c-0.21,1.224,1.075,2.157,2.174,1.579l3.836-2.017c0.436-0.229,0.958-0.229,1.394,0l3.836,2.017
						c1.099,0.578,2.384-0.355,2.174-1.579l-0.733-4.272c-0.083-0.486,0.078-0.982,0.431-1.326L137.509,72.497z"/>
				</g>
			</g>
			<g>
				<g>
					<g>
						<path d="M140.266,70.189c-0.473-1.458-1.71-2.501-3.228-2.722l-3.768-0.547l-1.685-3.414
							c-0.679-1.375-2.053-2.229-3.586-2.229s-2.907,0.854-3.586,2.229l-1.685,3.414l-3.769,0.547
							c-1.517,0.221-2.754,1.264-3.227,2.722c-0.474,1.458-0.086,3.028,1.012,4.097l2.727,2.658l-0.644,3.753
							c-0.26,1.511,0.35,3.009,1.59,3.91c1.238,0.902,2.854,1.02,4.211,0.305L128,83.14l3.37,1.772
							c0.591,0.31,1.229,0.463,1.864,0.463c0.826,0,1.646-0.259,2.347-0.769c1.24-0.901,1.85-2.399,1.59-3.909l-0.644-3.753
							l2.726-2.657C140.352,73.218,140.739,71.647,140.266,70.189z M132.658,73.733c-0.94,0.918-1.369,2.24-1.147,3.537l0.39,2.271
							l-2.042-1.073c-0.581-0.305-1.22-0.458-1.857-0.458c-0.64,0-1.278,0.153-1.861,0.459l-2.04,1.072l0.39-2.272
							c0.222-1.295-0.207-2.618-1.149-3.537l-1.649-1.608l2.281-0.332c1.303-0.19,2.429-1.009,3.009-2.187l1.02-2.066l1.019,2.064
							c0.581,1.181,1.707,2,3.012,2.19l2.279,0.331L132.658,73.733z"/>
					</g>
				</g>
			</g>
		</g>
		<g>
			<g>
				<g>
					<path fill="#F5C84C" d="M165.795,72.497c0.889-0.867,0.398-2.377-0.83-2.555l-4.289-0.623c-0.488-0.071-0.91-0.377-1.128-0.82
						l-1.918-3.886c-0.55-1.114-2.137-1.114-2.687,0l-1.918,3.886c-0.218,0.442-0.64,0.749-1.128,0.82l-4.289,0.623
						c-1.229,0.178-1.719,1.689-0.83,2.555l3.104,3.025c0.353,0.344,0.514,0.84,0.431,1.326l-0.733,4.272
						c-0.21,1.224,1.075,2.157,2.174,1.579l3.836-2.017c0.436-0.229,0.958-0.229,1.394,0l3.836,2.017
						c1.099,0.578,2.384-0.355,2.174-1.579l-0.733-4.272c-0.083-0.486,0.078-0.982,0.431-1.326L165.795,72.497z"/>
				</g>
			</g>
			<g>
				<g>
					<g>
						<path d="M168.552,70.189c-0.473-1.458-1.71-2.501-3.228-2.722l-3.768-0.547l-1.685-3.414
							c-0.679-1.375-2.053-2.229-3.586-2.229s-2.907,0.854-3.586,2.229l-1.685,3.414l-3.769,0.547
							c-1.517,0.221-2.754,1.264-3.227,2.722c-0.474,1.458-0.086,3.028,1.012,4.097l2.727,2.658l-0.644,3.753
							c-0.26,1.511,0.35,3.009,1.59,3.91c1.238,0.902,2.854,1.02,4.211,0.305l3.37-1.772l3.37,1.772
							c0.591,0.31,1.229,0.463,1.864,0.463c0.826,0,1.646-0.259,2.347-0.769c1.24-0.901,1.85-2.399,1.59-3.909l-0.644-3.753
							l2.726-2.657C168.638,73.218,169.025,71.647,168.552,70.189z M160.944,73.733c-0.94,0.918-1.369,2.24-1.147,3.537l0.39,2.271
							l-2.042-1.073c-0.581-0.305-1.22-0.458-1.857-0.458c-0.64,0-1.278,0.153-1.861,0.459l-2.04,1.072l0.39-2.272
							c0.223-1.298-0.208-2.621-1.149-3.537l-1.649-1.608l2.281-0.332c1.303-0.19,2.429-1.009,3.009-2.187l1.02-2.066l1.019,2.064
							c0.581,1.181,1.707,2,3.012,2.19l2.279,0.331L160.944,73.733z"/>
					</g>
				</g>
			</g>
		</g>
		<g>
			<g>
				<g>
					<path fill="#F5C84C" d="M194.081,72.497c0.889-0.867,0.399-2.377-0.83-2.555l-4.289-0.623c-0.488-0.071-0.91-0.377-1.128-0.82
						l-1.918-3.886c-0.55-1.114-2.137-1.114-2.687,0l-1.918,3.886c-0.218,0.442-0.64,0.749-1.128,0.82l-4.289,0.623
						c-1.229,0.178-1.719,1.689-0.83,2.555l3.104,3.025c0.353,0.344,0.514,0.84,0.431,1.326l-0.733,4.272
						c-0.21,1.224,1.075,2.157,2.174,1.579l3.836-2.017c0.436-0.229,0.958-0.229,1.394,0l3.836,2.017
						c1.099,0.578,2.384-0.355,2.174-1.579l-0.733-4.272c-0.083-0.486,0.078-0.982,0.431-1.326L194.081,72.497z"/>
				</g>
			</g>
			<g>
				<g>
					<g>
						<path d="M196.838,70.189c-0.473-1.458-1.71-2.501-3.228-2.722l-3.768-0.547l-1.685-3.414
							c-0.679-1.375-2.053-2.229-3.586-2.229s-2.907,0.854-3.586,2.229l-1.685,3.414l-3.769,0.547
							c-1.517,0.221-2.754,1.264-3.227,2.722c-0.474,1.458-0.086,3.028,1.012,4.097l2.727,2.658l-0.644,3.753
							c-0.26,1.511,0.35,3.009,1.59,3.91c1.238,0.902,2.854,1.02,4.211,0.305l3.37-1.772l3.37,1.772
							c0.591,0.31,1.229,0.463,1.864,0.463c0.826,0,1.646-0.259,2.347-0.769c1.24-0.901,1.85-2.399,1.59-3.909l-0.644-3.753
							l2.726-2.657C196.924,73.218,197.312,71.647,196.838,70.189z M189.23,73.733c-0.94,0.918-1.369,2.24-1.147,3.537l0.39,2.271
							l-2.042-1.073c-0.581-0.305-1.22-0.458-1.857-0.458c-0.64,0-1.278,0.153-1.861,0.459l-2.04,1.072l0.39-2.268
							c0.224-1.299-0.206-2.623-1.149-3.542l-1.649-1.608l2.281-0.332c1.303-0.19,2.429-1.009,3.009-2.187l1.02-2.066l1.019,2.064
							c0.581,1.181,1.707,2,3.012,2.19l2.279,0.331L189.23,73.733z"/>
					</g>
				</g>
			</g>
		</g>
		<g>
			<g>
				<g>
					<path d="M128,0c-13.837,0-25.095,11.257-25.095,25.095c0,13.837,11.258,25.094,25.095,25.094s25.095-11.257,25.095-25.094
						C153.095,11.257,141.837,0,128,0z M128,45.189c-11.08,0-20.095-9.014-20.095-20.094S116.92,5,128,5s20.095,9.015,20.095,20.095
						S139.08,45.189,128,45.189z"/>
				</g>
			</g>
		</g>
		<g>
			<g>
				<path fill="#F9D0B4" d="M127.635,11.635c-4.415,0-7.994,3.579-7.994,7.993c0,4.415,3.579,7.994,7.994,7.994
					s7.994-3.579,7.994-7.994C135.629,15.214,132.05,11.635,127.635,11.635z"/>
			</g>
		</g>
		<g>
			<g>
				<path d="M146.443,39.257c-1.774-4.625-6.296-7.732-11.25-7.732h-14.387c-4.913,0-9.29,2.938-11.151,7.484
					c-0.523,1.278,0.089,2.738,1.366,3.261c1.281,0.524,2.737-0.088,3.261-1.366c1.089-2.66,3.65-4.379,6.524-4.379h14.387
					c2.898,0,5.544,1.818,6.582,4.523c0.382,0.995,1.329,1.605,2.335,1.605c0.297,0,0.601-0.053,0.895-0.167
					C146.294,41.992,146.938,40.546,146.443,39.257z"/>
			</g>
		</g>
		<g>
			<g>
				<g>
					<path d="M127.635,9.136c-5.786,0-10.493,4.707-10.493,10.493s4.707,10.494,10.493,10.494s10.494-4.708,10.494-10.494
						S133.421,9.136,127.635,9.136z M127.635,25.123c-3.029,0-5.493-2.464-5.493-5.494c0-3.029,2.464-5.493,5.493-5.493
						s5.494,2.464,5.494,5.493C133.129,22.658,130.664,25.123,127.635,25.123z"/>
				</g>
			</g>
		</g>
		<g>
			<g>
				<path d="M192.349,22.7H151.25c-1.381,0-2.5,1.119-2.5,2.5s1.119,2.5,2.5,2.5h41.099c8.585,0,15.569,6.984,15.569,15.57v47.768
					c0,8.585-6.984,15.569-15.569,15.569H93.226c-2.4,0-4.646,1.068-6.161,2.93l-16.111,19.794c-0.401,0.493-0.894,0.414-1.15,0.322
					c-0.258-0.092-0.689-0.34-0.689-0.977v-16.607c0-3.012-2.45-5.462-5.462-5.462c-8.585,0-15.569-6.984-15.569-15.569V43.27
					c0-8.585,6.984-15.57,15.569-15.57h40.724c1.381,0,2.5-1.119,2.5-2.5s-1.119-2.5-2.5-2.5H63.651
					c-11.342,0-20.569,9.228-20.569,20.57v47.768c0,11.342,9.228,20.569,20.569,20.569c0.255,0,0.462,0.208,0.462,0.462v16.607
					c0,2.588,1.576,4.821,4.015,5.688c0.679,0.241,1.372,0.358,2.056,0.358c1.771,0,3.469-0.787,4.647-2.235l16.11-19.794
					c0.563-0.69,1.395-1.086,2.284-1.086h99.123c11.342,0,20.569-9.228,20.569-20.569V43.27
					C212.918,31.928,203.69,22.7,192.349,22.7z"/>
			</g>
		</g>
		<g>
			<g>
				<path d="M186.739,45.329h-23.479c-1.381,0-2.5,1.119-2.5,2.5s1.119,2.5,2.5,2.5h23.479c1.381,0,2.5-1.119,2.5-2.5
					S188.12,45.329,186.739,45.329z"/>
			</g>
		</g>
		<g>
			<g>
				<path d="M175,36.391h-11.739c-1.381,0-2.5,1.119-2.5,2.5s1.119,2.5,2.5,2.5H175c1.381,0,2.5-1.119,2.5-2.5
					S176.381,36.391,175,36.391z"/>
			</g>
		</g>
		<g>
			<g>
				<path fill="#F5C84C" d="M33.8,143.85c-4.5-0.8-8-4.3-8.9-8.7c0-0.2-0.4-0.2-0.4,0c-0.9,4.4-4.4,7.9-8.9,8.7
					c-0.2,0-0.2,0.3,0,0.4c4.5,0.8,8,4.3,8.9,8.7c0,0.2,0.4,0.2,0.4,0c0.9-4.4,4.4-7.9,8.9-8.7C34,144.15,34,143.85,33.8,143.85z"/>
			</g>
		</g>
		<g>
			<g>
				<path fill="#FC657E" d="M175.61,6.21c-3.157-0.561-5.613-3.017-6.245-6.104c0-0.14-0.281-0.14-0.281,0
					c-0.632,3.087-3.087,5.543-6.245,6.104c-0.14,0-0.14,0.21,0,0.281c3.157,0.562,5.613,3.017,6.245,6.104
					c0,0.14,0.281,0.14,0.281,0c0.631-3.087,3.087-5.543,6.245-6.104C175.75,6.42,175.75,6.21,175.61,6.21z"/>
			</g>
		</g>
		<g>
			<g>
				<path fill="#70D6F9" d="M215.7,125.1h-2.3v-2.3c0-1.7-1.4-3.2-3.2-3.2c-1.8,0-3.2,1.4-3.2,3.2v2.3h-2.3c-1.7,0-3.2,1.4-3.2,3.2
					s1.4,3.2,3.2,3.2h2.3v2.3c0,1.7,1.4,3.2,3.2,3.2c1.8,0,3.2-1.4,3.2-3.2v-2.3h2.3c1.7,0,3.2-1.4,3.2-3.2S217.5,125.1,215.7,125.1
					z"/>
			</g>
		</g>
		<g>
			<g>
				<path fill="#87D147" d="M31.8,167c-1.878,0-3.4,1.522-3.4,3.4c0,1.878,1.522,3.4,3.4,3.4c1.878,0,3.4-1.522,3.4-3.4
					C35.2,168.522,33.678,167,31.8,167z"/>
			</g>
		</g>
		<g>
			<g>
				<path fill="#F5C84C" d="M225.8,100c-1.878,0-3.4,1.522-3.4,3.4c0,1.878,1.522,3.4,3.4,3.4c1.878,0,3.4-1.522,3.4-3.4
					C229.2,101.522,227.678,100,225.8,100z"/>
			</g>
		</g>
	</g>
</g>
<g id="Layer_50">
</g>
<g id="Layer_51">
</g>
<g id="Layer_52">
</g>
<g id="Layer_53">
</g>
<g id="Layer_54">
</g>
<g id="Layer_55">
</g>
<g id="Layer_56">
</g>
<g id="Layer_57">
</g>
<g id="Layer_58">
</g>
<g id="Layer_59">
</g>
<g id="Layer_60">
</g>
<g id="Layer_61">
</g>
<g id="Layer_62">
</g>
<g id="Layer_63">
</g>
<g id="Layer_64">
</g>
<g id="Layer_65">
</g>
<g id="Layer_66">
</g>
<g id="Layer_67">
</g>
<g id="Layer_68">
</g>
<g id="Layer_69">
</g>
<g id="Layer_70">
</g>
<g id="Layer_71">
</g>
<g id="Layer_72">
</g>
<g id="Layer_73">
</g>
<g id="Layer_74">
</g>
<g id="Layer_75">
</g>
<g id="Layer_76">
</g>
<g id="Layer_77">
</g>
<g id="Layer_78">
</g>
<g id="Layer_79">
</g>
<g id="Layer_80">
</g>
<g id="Layer_81">
</g>
<g id="Layer_82">
</g>
<g id="Layer_83">
</g>
<g id="Layer_84">
</g>
<g id="Layer_85">
</g>
<g id="Layer_86">
</g>
<g id="Layer_87">
</g>
<g id="Layer_88">
</g>
<g id="Layer_89">
</g>
<g id="Layer_90">
</g>
</svg>
