<?xml version="1.0" encoding="utf-8"?>
<!-- Generator: Adobe Illustrator 24.0.0, SVG Export Plug-In . SVG Version: 6.00 Build 0)  -->
<svg version="1.1" xmlns="http://www.w3.org/2000/svg" xmlns:xlink="http://www.w3.org/1999/xlink" x="0px" y="0px"
	 viewBox="0 0 256 256" enable-background="new 0 0 256 256" xml:space="preserve">
<g id="Layer_1">
</g>
<g id="Layer_2">
</g>
<g id="Layer_3">
</g>
<g id="Layer_4">
</g>
<g id="Layer_5">
</g>
<g id="Layer_6">
</g>
<g id="Layer_7">
</g>
<g id="Layer_8">
</g>
<g id="Layer_9">
</g>
<g id="Layer_10">
</g>
<g id="Layer_11">
</g>
<g id="Layer_12">
</g>
<g id="Layer_13">
</g>
<g id="Layer_14">
</g>
<g id="Layer_15">
</g>
<g id="Layer_16">
</g>
<g id="Layer_17">
</g>
<g id="Layer_18">
</g>
<g id="Layer_19">
</g>
<g id="Layer_20">
</g>
<g id="Layer_21">
</g>
<g id="Layer_22">
</g>
<g id="Layer_23">
</g>
<g id="Layer_24">
</g>
<g id="Layer_25">
</g>
<g id="Layer_26">
</g>
<g id="Layer_27">
</g>
<g id="Layer_28">
</g>
<g id="Layer_29">
</g>
<g id="Layer_30">
</g>
<g id="Layer_31">
</g>
<g id="Layer_32">
</g>
<g id="Layer_33">
</g>
<g id="Layer_34">
</g>
<g id="Layer_35">
</g>
<g id="Layer_36">
</g>
<g id="Layer_37">
</g>
<g id="Layer_38">
</g>
<g id="Layer_39">
</g>
<g id="Layer_40">
</g>
<g id="Layer_41">
</g>
<g id="Layer_42">
</g>
<g id="Layer_43">
</g>
<g id="Layer_44">
</g>
<g id="Layer_45">
</g>
<g id="Layer_46">
</g>
<g id="Layer_47">
</g>
<g id="Layer_48">
</g>
<g id="Layer_49">
</g>
<g id="Layer_50">
</g>
<g id="Layer_51">
</g>
<g id="Layer_52">
</g>
<g id="Layer_53">
</g>
<g id="Layer_54">
</g>
<g id="Layer_55">
</g>
<g id="Layer_56">
</g>
<g id="Layer_57">
</g>
<g id="Layer_58">
</g>
<g id="Layer_59">
</g>
<g id="Layer_60">
</g>
<g id="Layer_61">
</g>
<g id="Layer_62">
</g>
<g id="Layer_63">
</g>
<g id="Layer_64">
</g>
<g id="Layer_65">
</g>
<g id="Layer_66">
</g>
<g id="Layer_67">
</g>
<g id="Layer_68">
</g>
<g id="Layer_69">
</g>
<g id="Layer_70">
</g>
<g id="Layer_71">
</g>
<g id="Layer_72">
</g>
<g id="Layer_73">
</g>
<g id="Layer_74">
</g>
<g id="Layer_75">
</g>
<g id="Layer_76">
</g>
<g id="Layer_77">
</g>
<g id="Layer_78">
</g>
<g id="Layer_79">
</g>
<g id="Layer_80">
</g>
<g id="Layer_81">
</g>
<g id="Layer_82">
</g>
<g id="Layer_83">
</g>
<g id="Layer_84">
</g>
<g id="Layer_85">
</g>
<g id="Layer_86">
	<g>
		<g>
			<g>
				<path fill="#DAE6F1" d="M195.466,65.738h-12.834c-0.701,0-1.296-0.493-1.448-1.177c-1.285-5.804-3.57-11.231-6.668-16.091
					c-0.377-0.591-0.304-1.36,0.192-1.856l9.076-9.077c0.579-0.579,0.579-1.518,0-2.096l-11.706-11.707
					c-0.579-0.579-1.518-0.579-2.097,0l-9.076,9.076c-0.495,0.496-1.265,0.569-1.856,0.192c-4.86-3.097-10.287-5.382-16.091-6.667
					c-0.684-0.151-1.177-0.747-1.177-1.448V12.054c0-0.819-0.664-1.482-1.483-1.482h-16.556c-0.819,0-1.482,0.664-1.482,1.482
					v12.834c0,0.701-0.493,1.296-1.177,1.448c-5.803,1.285-11.231,3.57-16.091,6.667c-0.591,0.377-1.36,0.304-1.856-0.192
					l-9.077-9.076c-0.579-0.579-1.518-0.579-2.097,0L80.259,35.441c-0.579,0.579-0.579,1.517,0,2.096l9.076,9.077
					c0.495,0.496,0.569,1.265,0.192,1.856c-3.097,4.86-5.383,10.287-6.668,16.091c-0.151,0.684-0.747,1.177-1.448,1.177H68.578
					c-0.819,0-1.483,0.664-1.483,1.482v16.556c0,0.819,0.664,1.482,1.483,1.482h12.834c0.701,0,1.296,0.493,1.448,1.177
					c1.285,5.804,3.57,11.23,6.668,16.091c0.377,0.591,0.303,1.36-0.192,1.856l-9.076,9.076c-0.579,0.579-0.579,1.518,0,2.097
					l11.706,11.707c0.579,0.579,1.518,0.579,2.097,0l9.077-9.077c0.495-0.495,1.265-0.568,1.856-0.192
					c4.86,3.098,10.287,5.383,16.091,6.668c0.684,0.151,1.177,0.747,1.177,1.448v12.834c0,0.818,0.664,1.482,1.482,1.482H140.3
					c0.819,0,1.483-0.664,1.483-1.482v-12.834c0-0.701,0.493-1.296,1.177-1.448c5.804-1.285,11.231-3.57,16.091-6.668
					c0.591-0.376,1.361-0.303,1.856,0.192l9.076,9.077c0.579,0.579,1.518,0.579,2.097,0l11.706-11.707
					c0.579-0.579,0.579-1.518,0-2.097l-9.076-9.076c-0.495-0.496-0.569-1.265-0.192-1.856c3.097-4.86,5.383-10.287,6.668-16.091
					c0.151-0.684,0.747-1.177,1.448-1.177h12.834c0.819,0,1.483-0.664,1.483-1.482V67.22
					C196.949,66.401,196.285,65.738,195.466,65.738z"/>
			</g>
		</g>
		<g>
			<g>
				<path fill="#F5C84C" d="M148.659,48.112l-13.229-2.681c-1.729-0.301-3.507-0.458-5.321-0.458
					c-17.023,0-30.823,13.8-30.823,30.823c0,11.691,6.509,21.862,16.1,27.086l13.23,2.68c1.729,0.301,3.507,0.458,5.321,0.458
					c17.023,0,30.823-13.8,30.823-30.823C164.759,63.508,158.25,53.337,148.659,48.112z"/>
			</g>
		</g>
		<g>
			<g>
				<path fill="#70D6F9" d="M210.552,249.51c-3.157-0.562-5.613-3.018-6.245-6.104c0-0.141-0.281-0.141-0.281,0
					c-0.631,3.087-3.087,5.543-6.245,6.104c-0.14,0-0.14,0.21,0,0.28c3.157,0.562,5.613,3.018,6.245,6.104
					c0,0.141,0.281,0.141,0.281,0c0.632-3.087,3.087-5.543,6.245-6.104C210.693,249.72,210.693,249.51,210.552,249.51z"/>
			</g>
		</g>
		<g>
			<g>
				<path fill="#FC657E" d="M203.142,14.373h-2.3v-2.3c0-1.7-1.4-3.2-3.2-3.2c-1.8,0-3.2,1.4-3.2,3.2v2.3h-2.3
					c-1.7,0-3.2,1.4-3.2,3.2s1.4,3.2,3.2,3.2h2.3v2.3c0,1.7,1.4,3.2,3.2,3.2c1.8,0,3.2-1.4,3.2-3.2v-2.3h2.3c1.7,0,3.2-1.4,3.2-3.2
					S204.942,14.373,203.142,14.373z"/>
			</g>
		</g>
		<g>
			<g>
				<path fill="#87D147" d="M48.742,151.227c-1.878,0-3.4,1.522-3.4,3.4c0,1.877,1.522,3.4,3.4,3.4s3.4-1.522,3.4-3.4
					C52.142,152.749,50.62,151.227,48.742,151.227z"/>
			</g>
		</g>
		<g>
			<g>
				<path fill="#F5C84C" d="M67.742,129.623c-4.5-0.8-8-4.3-8.9-8.7c0-0.2-0.4-0.2-0.4,0c-0.9,4.4-4.4,7.9-8.9,8.7
					c-0.2,0-0.2,0.3,0,0.4c4.5,0.8,8,4.3,8.9,8.7c0,0.2,0.4,0.2,0.4,0c0.9-4.4,4.4-7.9,8.9-8.7
					C67.942,129.923,67.942,129.623,67.742,129.623z"/>
			</g>
		</g>
		<g>
			<g>
				<path fill="#F5C84C" d="M163.742,0c-1.878,0-3.4,1.522-3.4,3.4c0,1.878,1.522,3.4,3.4,3.4s3.4-1.522,3.4-3.4
					C167.142,1.522,165.62,0,163.742,0z"/>
			</g>
		</g>
		<g>
			<g>
				<path d="M139.161,43.802l-10.226-10.227c-0.976-0.977-2.56-0.977-3.535,0c-0.977,0.976-0.977,2.559,0,3.535l8.458,8.459
					l-8.458,8.458c-0.977,0.976-0.977,2.559,0,3.535c0.488,0.488,1.128,0.732,1.768,0.732s1.28-0.244,1.768-0.732l10.226-10.226
					c0.469-0.469,0.732-1.104,0.732-1.768S139.63,44.271,139.161,43.802z"/>
			</g>
		</g>
		<g>
			<g>
				<path d="M135.858,42.969c-1.885-0.328-3.819-0.494-5.75-0.494c-18.375,0-33.323,14.949-33.323,33.323
					c0,12.214,6.669,23.434,17.404,29.281c0.38,0.207,0.79,0.305,1.193,0.305c0.886,0,1.744-0.472,2.198-1.304
					c0.661-1.213,0.213-2.731-1-3.392c-9.126-4.972-14.796-14.509-14.796-24.891c0-15.617,12.706-28.323,28.323-28.323
					c1.645,0,3.291,0.142,4.893,0.42c1.357,0.24,2.655-0.675,2.891-2.034C138.129,44.5,137.218,43.205,135.858,42.969z"/>
			</g>
		</g>
		<g>
			<g>
				<path d="M130.187,105.427l8.458-8.459c0.977-0.977,0.977-2.56,0-3.535c-0.976-0.977-2.56-0.977-3.535,0l-10.226,10.227
					c-0.977,0.977-0.977,2.559,0,3.535l10.226,10.227c0.488,0.488,1.128,0.732,1.768,0.732s1.28-0.244,1.768-0.732
					c0.977-0.976,0.977-2.559,0-3.535L130.187,105.427z"/>
			</g>
		</g>
		<g>
			<g>
				<path d="M149.855,45.917c-1.213-0.661-2.73-0.212-3.391,0.999c-0.661,1.213-0.213,2.731,1,3.392
					c9.126,4.972,14.796,14.509,14.796,24.891c0,15.617-12.706,28.323-28.323,28.323c-1.645,0-3.291-0.142-4.893-0.42
					c-1.358-0.238-2.655,0.675-2.892,2.034c-0.237,1.36,0.674,2.655,2.034,2.892c1.884,0.328,3.818,0.494,5.75,0.494
					c18.375,0,33.323-14.949,33.323-33.323C167.259,62.984,160.59,51.765,149.855,45.917z"/>
			</g>
		</g>
		<g>
			<g>
				<g>
					<path d="M195.466,63.238h-12.02c-1.297-5.462-3.445-10.646-6.395-15.431l8.501-8.502c1.553-1.553,1.553-4.079,0-5.632
						l-11.707-11.707c-1.553-1.553-4.079-1.553-5.632,0l-8.501,8.502c-4.788-2.95-9.972-5.099-15.431-6.395V12.054
						c0-2.196-1.787-3.982-3.982-3.982h-16.555c-2.196,0-3.983,1.786-3.983,3.982v12.021c-5.459,1.297-10.643,3.444-15.431,6.395
						l-8.501-8.502c-1.553-1.553-4.079-1.553-5.632,0L78.49,33.675c-1.551,1.552-1.551,4.078,0.001,5.631l8.501,8.502
						c-2.949,4.784-5.098,9.969-6.395,15.431h-12.02c-2.196,0-3.983,1.786-3.983,3.982v16.555c0,2.196,1.787,3.982,3.983,3.982
						h12.02c1.297,5.462,3.445,10.646,6.395,15.431l-8.502,8.503c-1.551,1.552-1.551,4.078,0.001,5.631l11.708,11.709
						c1.552,1.549,4.077,1.549,5.63-0.002l8.501-8.502c4.788,2.95,9.972,5.099,15.431,6.395v12.021c0,2.196,1.787,3.982,3.983,3.982
						H140.3c2.196,0,3.982-1.786,3.982-3.982v-12.021c5.46-1.297,10.644-3.444,15.431-6.395l8.503,8.504
						c1.552,1.549,4.077,1.549,5.63-0.002l11.707-11.707c1.553-1.553,1.553-4.079,0-5.632l-8.501-8.502
						c2.95-4.785,5.098-9.97,6.394-15.431h12.021c2.196,0,3.982-1.786,3.982-3.982V67.221
						C199.449,65.024,197.662,63.238,195.466,63.238z M194.449,82.758h-11.816c-1.879,0-3.478,1.289-3.889,3.137
						c-1.204,5.438-3.335,10.581-6.335,15.287c-1.017,1.596-0.797,3.64,0.533,4.968l8.357,8.357l-10.268,10.268l-8.357-8.357
						c-1.33-1.332-3.375-1.55-4.967-0.532c-4.707,2.999-9.851,5.131-15.292,6.335c-1.845,0.411-3.133,2.011-3.133,3.889v11.816
						h-14.521v-11.816c0-1.879-1.289-3.478-3.136-3.889c-5.437-1.204-10.581-3.336-15.287-6.334c-1.597-1.019-3.639-0.8-4.968,0.531
						l-8.357,8.357l-10.268-10.268l8.356-8.356c1.331-1.329,1.55-3.373,0.533-4.969c-2.999-4.705-5.131-9.849-6.335-15.287
						c-0.409-1.847-2.008-3.137-3.888-3.137H69.595v-14.52h11.817c1.881,0,3.48-1.29,3.888-3.137
						c1.205-5.438,3.336-10.582,6.336-15.289c1.015-1.596,0.795-3.639-0.534-4.966l-8.357-8.357l10.268-10.268l8.357,8.357
						c1.33,1.331,3.372,1.549,4.966,0.532c4.708-2.999,9.851-5.131,15.291-6.335c1.845-0.411,3.133-2.01,3.133-3.889V13.071h14.521
						v11.816c0,1.878,1.288,3.478,3.136,3.889c5.438,1.204,10.581,3.336,15.288,6.335c1.594,1.015,3.637,0.797,4.967-0.532
						l8.357-8.357l10.268,10.268l-8.356,8.356c-1.33,1.328-1.549,3.371-0.533,4.969c3,4.705,5.131,9.849,6.335,15.287
						c0.409,1.847,2.008,3.137,3.888,3.137h11.816V82.758z"/>
				</g>
			</g>
		</g>
		<g>
			<g>
				<path fill="#F9D0B4" d="M100.075,155.683c-2.06-2.059-5.399-2.059-7.459,0l-8.463,8.462l-4.242-4.242
					c-2.06-2.059-5.399-2.059-7.459,0c-2.06,2.06-2.06,5.399,0,7.459l7.972,7.972c1.03,1.03,2.38,1.545,3.73,1.545
					c1.35,0,2.699-0.515,3.73-1.545l12.192-12.192C102.135,161.083,102.135,157.743,100.075,155.683z"/>
			</g>
		</g>
		<g>
			<g>
				<path fill="#B2E26D" d="M100.075,155.683c-2.06-2.059-5.399-2.059-7.459,0l-8.463,8.462l-4.242-4.242
					c-2.06-2.059-5.399-2.059-7.459,0c-2.06,2.06-2.06,5.399,0,7.459l7.972,7.972c1.03,1.03,2.38,1.545,3.73,1.545
					c1.35,0,2.699-0.515,3.73-1.545l12.192-12.192C102.135,161.083,102.135,157.743,100.075,155.683z"/>
			</g>
		</g>
		<g>
			<g>
				<g>
					<g>
						<path d="M101.842,153.914c-3.031-3.029-7.963-3.028-10.994,0.001l-6.695,6.695l-2.475-2.475
							c-3.031-3.031-7.963-3.031-10.994,0s-3.031,7.963,0,10.994l7.973,7.974c1.469,1.468,3.421,2.275,5.497,2.275
							c2.076,0,4.028-0.808,5.497-2.276l12.192-12.192C104.874,161.88,104.874,156.947,101.842,153.914z M98.308,161.375
							l-12.192,12.191c-1.049,1.049-2.877,1.048-3.924,0.001l-7.972-7.973c-1.082-1.082-1.082-2.842,0-3.924
							c0.541-0.54,1.251-0.811,1.962-0.811s1.421,0.271,1.962,0.811l4.243,4.242c0.977,0.977,2.56,0.977,3.535,0l8.462-8.462
							c1.081-1.082,2.842-1.082,3.924-0.001C99.389,158.532,99.389,160.293,98.308,161.375z"/>
					</g>
				</g>
			</g>
		</g>
		<g>
			<g>
				<g>
					<g>
						<path d="M101.842,153.914c-3.031-3.029-7.963-3.028-10.994,0.001l-6.695,6.695l-2.475-2.475
							c-3.031-3.031-7.963-3.031-10.994,0s-3.031,7.963,0,10.994l7.973,7.974c1.469,1.468,3.421,2.275,5.497,2.275
							c2.076,0,4.028-0.808,5.497-2.276l12.192-12.192C104.874,161.88,104.874,156.947,101.842,153.914z M98.308,161.375
							l-12.192,12.191c-1.049,1.049-2.877,1.048-3.924,0.001l-7.972-7.973c-1.082-1.082-1.082-2.842,0-3.924
							c0.541-0.54,1.251-0.811,1.962-0.811s1.421,0.271,1.962,0.811l4.243,4.242c0.977,0.977,2.56,0.977,3.535,0l8.462-8.462
							c1.081-1.082,2.842-1.082,3.924-0.001C99.389,158.532,99.389,160.293,98.308,161.375z"/>
					</g>
				</g>
			</g>
		</g>
		<g>
			<g>
				<path fill="#F9D0B4" d="M100.075,189.958c-2.06-2.06-5.399-2.06-7.459,0l-8.463,8.462l-4.242-4.242
					c-2.06-2.06-5.399-2.06-7.459,0c-2.06,2.06-2.06,5.399,0,7.459l7.972,7.972c1.03,1.029,2.38,1.544,3.73,1.544
					c1.35,0,2.699-0.515,3.73-1.544l12.192-12.192C102.135,195.357,102.135,192.018,100.075,189.958z"/>
			</g>
		</g>
		<g>
			<g>
				<path fill="#B2E26D" d="M100.075,189.958c-2.06-2.06-5.399-2.06-7.459,0l-8.463,8.462l-4.242-4.242
					c-2.06-2.06-5.399-2.06-7.459,0c-2.06,2.06-2.06,5.399,0,7.459l7.972,7.972c1.03,1.029,2.38,1.544,3.73,1.544
					c1.35,0,2.699-0.515,3.73-1.544l12.192-12.192C102.135,195.357,102.135,192.018,100.075,189.958z"/>
			</g>
		</g>
		<g>
			<g>
				<g>
					<g>
						<path d="M101.843,188.189c-3.032-3.029-7.964-3.03-10.995,0.001l-6.695,6.694l-2.476-2.476
							c-3.03-3.029-7.963-3.028-10.994,0.001c-3.03,3.031-3.03,7.964,0,10.995l7.972,7.973c1.469,1.468,3.422,2.276,5.497,2.276
							s4.027-0.809,5.497-2.277l12.192-12.192C104.874,196.153,104.874,191.222,101.843,188.189z M98.308,195.649l-12.192,12.191
							c-1.05,1.049-2.876,1.047-3.925,0.001l-7.971-7.972c-1.082-1.082-1.082-2.843-0.001-3.924
							c0.541-0.541,1.252-0.812,1.962-0.812c0.711,0,1.421,0.271,1.962,0.811l4.243,4.242c0.977,0.977,2.56,0.977,3.535,0
							l8.462-8.462c1.082-1.081,2.842-1.08,3.924,0C99.389,192.808,99.389,194.567,98.308,195.649z"/>
					</g>
				</g>
			</g>
		</g>
		<g>
			<g>
				<g>
					<g>
						<path d="M101.843,188.189c-3.032-3.029-7.964-3.03-10.995,0.001l-6.695,6.694l-2.476-2.476
							c-3.03-3.029-7.963-3.028-10.994,0.001c-3.03,3.031-3.03,7.964,0,10.995l7.972,7.973c1.469,1.468,3.422,2.276,5.497,2.276
							s4.027-0.809,5.497-2.277l12.192-12.192C104.874,196.153,104.874,191.222,101.843,188.189z M98.308,195.649l-12.192,12.191
							c-1.05,1.049-2.876,1.047-3.925,0.001l-7.971-7.972c-1.082-1.082-1.082-2.843-0.001-3.924
							c0.541-0.541,1.252-0.812,1.962-0.812c0.711,0,1.421,0.271,1.962,0.811l4.243,4.242c0.977,0.977,2.56,0.977,3.535,0
							l8.462-8.462c1.082-1.081,2.842-1.08,3.924,0C99.389,192.808,99.389,194.567,98.308,195.649z"/>
					</g>
				</g>
			</g>
		</g>
		<g>
			<g>
				<path fill="#F9D0B4" d="M100.075,224.232c-2.06-2.059-5.399-2.059-7.459,0l-8.463,8.463l-4.242-4.243
					c-2.06-2.059-5.399-2.059-7.459,0c-2.06,2.06-2.06,5.4,0,7.459l7.972,7.972c1.03,1.03,2.38,1.545,3.73,1.545
					c1.35,0,2.699-0.515,3.73-1.545l12.192-12.192C102.135,229.632,102.135,226.292,100.075,224.232z"/>
			</g>
		</g>
		<g>
			<g>
				<path fill="#B2E26D" d="M100.075,224.232c-2.06-2.059-5.399-2.059-7.459,0l-8.463,8.463l-4.242-4.243
					c-2.06-2.059-5.399-2.059-7.459,0c-2.06,2.06-2.06,5.4,0,7.459l7.972,7.972c1.03,1.03,2.38,1.545,3.73,1.545
					c1.35,0,2.699-0.515,3.73-1.545l12.192-12.192C102.135,229.632,102.135,226.292,100.075,224.232z"/>
			</g>
		</g>
		<g>
			<g>
				<g>
					<g>
						<path d="M101.843,222.464c-3.033-3.029-7.965-3.031-10.995,0.001l-6.695,6.695l-2.475-2.475
							c-3.031-3.031-7.963-3.031-10.994,0c-1.468,1.468-2.277,3.42-2.277,5.497s0.809,4.029,2.277,5.497l7.972,7.972
							c1.468,1.469,3.421,2.277,5.498,2.277s4.029-0.809,5.497-2.277l12.192-12.192
							C104.874,230.428,104.874,225.496,101.843,222.464z M98.308,229.924l-12.192,12.192c-1.049,1.047-2.875,1.047-3.924,0
							l-7.972-7.972c-1.082-1.082-1.082-2.842,0-3.924c0.541-0.54,1.251-0.811,1.962-0.811s1.421,0.271,1.962,0.811l4.243,4.242
							c0.977,0.977,2.56,0.977,3.535,0L94.383,226c1.082-1.081,2.842-1.08,3.924,0C99.389,227.082,99.389,228.842,98.308,229.924z"
							/>
					</g>
				</g>
			</g>
		</g>
		<g>
			<g>
				<g>
					<g>
						<path d="M101.843,222.464c-3.033-3.029-7.965-3.031-10.995,0.001l-6.695,6.695l-2.475-2.475
							c-3.031-3.031-7.963-3.031-10.994,0c-1.468,1.468-2.277,3.42-2.277,5.497s0.809,4.029,2.277,5.497l7.972,7.972
							c1.468,1.469,3.421,2.277,5.498,2.277s4.029-0.809,5.497-2.277l12.192-12.192
							C104.874,230.428,104.874,225.496,101.843,222.464z M98.308,229.924l-12.192,12.192c-1.049,1.047-2.875,1.047-3.924,0
							l-7.972-7.972c-1.082-1.082-1.082-2.842,0-3.924c0.541-0.54,1.251-0.811,1.962-0.811s1.421,0.271,1.962,0.811l4.243,4.242
							c0.977,0.977,2.56,0.977,3.535,0L94.383,226c1.082-1.081,2.842-1.08,3.924,0C99.389,227.082,99.389,228.842,98.308,229.924z"
							/>
					</g>
				</g>
			</g>
		</g>
		<g>
			<g>
				<path d="M193.138,157.036h-78.206c-1.381,0-2.5,1.119-2.5,2.5s1.119,2.5,2.5,2.5h78.206c1.381,0,2.5-1.119,2.5-2.5
					S194.519,157.036,193.138,157.036z"/>
			</g>
		</g>
		<g>
			<g>
				<path d="M180.282,167.749h-65.35c-1.381,0-2.5,1.119-2.5,2.5s1.119,2.5,2.5,2.5h65.35c1.381,0,2.5-1.119,2.5-2.5
					S181.663,167.749,180.282,167.749z"/>
			</g>
		</g>
		<g>
			<g>
				<path d="M193.138,191.311h-78.206c-1.381,0-2.5,1.119-2.5,2.5s1.119,2.5,2.5,2.5h78.206c1.381,0,2.5-1.119,2.5-2.5
					S194.519,191.311,193.138,191.311z"/>
			</g>
		</g>
		<g>
			<g>
				<path d="M180.282,202.024h-65.35c-1.381,0-2.5,1.119-2.5,2.5s1.119,2.5,2.5,2.5h65.35c1.381,0,2.5-1.119,2.5-2.5
					S181.663,202.024,180.282,202.024z"/>
			</g>
		</g>
		<g>
			<g>
				<path d="M193.138,225.586h-78.206c-1.381,0-2.5,1.119-2.5,2.5s1.119,2.5,2.5,2.5h78.206c1.381,0,2.5-1.119,2.5-2.5
					S194.519,225.586,193.138,225.586z"/>
			</g>
		</g>
		<g>
			<g>
				<path d="M180.282,236.299h-65.35c-1.381,0-2.5,1.119-2.5,2.5s1.119,2.5,2.5,2.5h65.35c1.381,0,2.5-1.119,2.5-2.5
					S181.663,236.299,180.282,236.299z"/>
			</g>
		</g>
	</g>
</g>
<g id="Layer_87">
</g>
<g id="Layer_88">
</g>
<g id="Layer_89">
</g>
<g id="Layer_90">
</g>
</svg>
