<?xml version="1.0" encoding="utf-8"?>
<!-- Generator: Adobe Illustrator 24.0.0, SVG Export Plug-In . SVG Version: 6.00 Build 0)  -->
<svg version="1.1" xmlns="http://www.w3.org/2000/svg" xmlns:xlink="http://www.w3.org/1999/xlink" x="0px" y="0px"
	 viewBox="0 0 256 256" enable-background="new 0 0 256 256" xml:space="preserve">
<g id="Layer_1">
</g>
<g id="Layer_2">
</g>
<g id="Layer_3">
</g>
<g id="Layer_4">
</g>
<g id="Layer_5">
</g>
<g id="Layer_6">
</g>
<g id="Layer_7">
</g>
<g id="Layer_8">
</g>
<g id="Layer_9">
</g>
<g id="Layer_10">
</g>
<g id="Layer_11">
</g>
<g id="Layer_12">
</g>
<g id="Layer_13">
</g>
<g id="Layer_14">
</g>
<g id="Layer_15">
</g>
<g id="Layer_16">
</g>
<g id="Layer_17">
</g>
<g id="Layer_18">
</g>
<g id="Layer_19">
</g>
<g id="Layer_20">
</g>
<g id="Layer_21">
</g>
<g id="Layer_22">
</g>
<g id="Layer_23">
</g>
<g id="Layer_24">
</g>
<g id="Layer_25">
</g>
<g id="Layer_26">
</g>
<g id="Layer_27">
</g>
<g id="Layer_28">
</g>
<g id="Layer_29">
</g>
<g id="Layer_30">
</g>
<g id="Layer_31">
</g>
<g id="Layer_32">
</g>
<g id="Layer_33">
</g>
<g id="Layer_34">
</g>
<g id="Layer_35">
</g>
<g id="Layer_36">
</g>
<g id="Layer_37">
</g>
<g id="Layer_38">
</g>
<g id="Layer_39">
</g>
<g id="Layer_40">
</g>
<g id="Layer_41">
</g>
<g id="Layer_42">
</g>
<g id="Layer_43">
</g>
<g id="Layer_44">
</g>
<g id="Layer_45">
</g>
<g id="Layer_46">
</g>
<g id="Layer_47">
</g>
<g id="Layer_48">
</g>
<g id="Layer_49">
</g>
<g id="Layer_50">
</g>
<g id="Layer_51">
</g>
<g id="Layer_52">
</g>
<g id="Layer_53">
</g>
<g id="Layer_54">
</g>
<g id="Layer_55">
</g>
<g id="Layer_56">
</g>
<g id="Layer_57">
</g>
<g id="Layer_58">
</g>
<g id="Layer_59">
</g>
<g id="Layer_60">
</g>
<g id="Layer_61">
</g>
<g id="Layer_62">
</g>
<g id="Layer_63">
</g>
<g id="Layer_64">
</g>
<g id="Layer_65">
</g>
<g id="Layer_66">
</g>
<g id="Layer_67">
</g>
<g id="Layer_68">
</g>
<g id="Layer_69">
</g>
<g id="Layer_70">
</g>
<g id="Layer_71">
</g>
<g id="Layer_72">
	<g>
		<g>
			<g>
				<path fill="#DAE6F1" d="M205.322,147.804c-2.761,0-5,2.238-5,5v70.428c0,2.762,2.239,5,5,5s5-2.238,5-5v-70.428
					C210.322,150.042,208.084,147.804,205.322,147.804z"/>
			</g>
		</g>
		<g>
			<g>
				<path fill="#FC657E" d="M237.685,167.838l-27.363-14.127v32.613l27.363-14.127C239.455,171.284,239.455,168.752,237.685,167.838
					z"/>
			</g>
		</g>
		<g>
			<g>
				<path fill="#70D6F9" d="M109.59,27.768H22.072c-8.284,0-15,6.716-15,15s6.716,15,15,15h88.017l14.75-14.75L109.59,27.768z"/>
			</g>
		</g>
		<g>
			<g>
				<path fill="#F5C84C" d="M110.261,193.268H63.947c-14.543,0-26.375-11.832-26.375-26.375s11.832-26.375,26.375-26.375h58.03
					l-14.5-14.5l15.5-15.5h-59.03c-31.085,0-56.375,25.29-56.375,56.375s25.29,56.375,56.375,56.375h45.814l15.25-15.25
					L110.261,193.268z"/>
			</g>
		</g>
		<g>
			<g>
				<path fill="#87D147" d="M171.947,27.768H109.59l15.25,15.25l-14.75,14.75h61.857c14.456,0,26.287,11.761,26.375,26.216
					c0.088,14.641-11.735,26.534-26.375,26.534h-48.969l-15.5,15.5l14.5,14.5h49.969c31.295,0,56.563-25.426,56.374-56.716
					C228.133,52.905,202.844,27.768,171.947,27.768z"/>
			</g>
		</g>
		<g>
			<g>
				<path fill="#FC657E" d="M200.326,223.268c0-0.012-0.004-0.024-0.004-0.036v-29.964h-90.061l14.75,14.75l-15.25,15.25H200.326z"
					/>
			</g>
		</g>
		<g>
			<g>
				<path fill="#F5C84C" d="M85.512,240.85c-4.5-0.8-8-4.3-8.9-8.7c0-0.2-0.4-0.2-0.4,0c-0.9,4.4-4.4,7.9-8.9,8.7
					c-0.2,0-0.2,0.3,0,0.4c4.5,0.8,8,4.3,8.9,8.7c0,0.2,0.4,0.2,0.4,0c0.9-4.4,4.4-7.9,8.9-8.7
					C85.712,241.15,85.712,240.85,85.512,240.85z"/>
			</g>
		</g>
		<g>
			<g>
				<path fill="#F5C84C" d="M251.322,147.21c-3.157-0.562-5.613-3.018-6.245-6.104c0-0.141-0.281-0.141-0.281,0
					c-0.632,3.087-3.087,5.543-6.245,6.104c-0.14,0-0.14,0.21,0,0.28c3.157,0.562,5.613,3.018,6.245,6.104
					c0,0.141,0.281,0.141,0.281,0c0.631-3.087,3.087-5.543,6.245-6.104C251.463,147.42,251.463,147.21,251.322,147.21z"/>
			</g>
		</g>
		<g>
			<g>
				<path fill="#70D6F9" d="M209.412,5.5h-2.3V3.2c0-1.7-1.4-3.2-3.2-3.2s-3.2,1.4-3.2,3.2v2.3h-2.3c-1.7,0-3.2,1.4-3.2,3.2
					c0,1.8,1.4,3.2,3.2,3.2h2.3v2.3c0,1.7,1.4,3.2,3.2,3.2s3.2-1.4,3.2-3.2v-2.3h2.3c1.7,0,3.2-1.4,3.2-3.2
					C212.612,6.9,211.212,5.5,209.412,5.5z"/>
			</g>
		</g>
		<g>
			<g>
				<path fill="#F5C84C" d="M174.512,8.2c-1.878,0-3.4,1.522-3.4,3.4c0,1.877,1.522,3.4,3.4,3.4c1.878,0,3.4-1.522,3.4-3.4
					C177.912,9.722,176.39,8.2,174.512,8.2z"/>
			</g>
		</g>
		<g>
			<g>
				<path fill="#FC657E" d="M76.512,93.2c-1.878,0-3.4,1.522-3.4,3.4c0,1.877,1.522,3.4,3.4,3.4c1.878,0,3.4-1.522,3.4-3.4
					C79.912,94.722,78.39,93.2,76.512,93.2z"/>
			</g>
		</g>
		<g>
			<g>
				<path fill="#87D147" d="M107.512,249.2c-1.878,0-3.4,1.522-3.4,3.4c0,1.877,1.522,3.4,3.4,3.4c1.878,0,3.4-1.522,3.4-3.4
					C110.912,250.722,109.39,249.2,107.512,249.2z"/>
			</g>
		</g>
		<g>
			<g>
				<g>
					<g>
						<path d="M205.322,145.305c-4.136,0-7.5,3.364-7.5,7.5v70.428c0,4.136,3.364,7.5,7.5,7.5s7.5-3.364,7.5-7.5v-70.428
							C212.822,148.669,209.458,145.305,205.322,145.305z M207.822,223.232c0,1.379-1.122,2.5-2.5,2.5s-2.5-1.121-2.5-2.5v-70.428
							c0-1.379,1.122-2.5,2.5-2.5s2.5,1.121,2.5,2.5V223.232z"/>
					</g>
				</g>
			</g>
		</g>
		<g>
			<g>
				<path d="M63.947,143.018h108c15.806,0,30.639-6.166,41.767-17.361c11.127-11.195,17.203-26.064,17.107-41.868
					c-0.195-32.269-26.606-58.521-58.874-58.521H22.072c-9.649,0-17.5,7.851-17.5,17.5s7.851,17.5,17.5,17.5h149.875
					c13.085,0,23.795,10.646,23.875,23.731c0.039,6.41-2.425,12.44-6.937,16.979c-4.512,4.539-10.527,7.039-16.938,7.039h-108
					c-32.464,0-58.875,26.411-58.875,58.875s26.411,58.875,58.875,58.875H199.5c1.381,0,2.5-1.119,2.5-2.5s-1.119-2.5-2.5-2.5
					H63.947c-29.707,0-53.875-24.168-53.875-53.875s24.168-53.875,53.875-53.875h108c7.751,0,15.026-3.023,20.483-8.515
					c5.458-5.49,8.438-12.782,8.391-20.534c-0.096-15.826-13.049-28.701-28.875-28.701H22.072c-6.893,0-12.5-5.607-12.5-12.5
					s5.607-12.5,12.5-12.5h149.875c29.527,0,53.695,24.022,53.874,53.551c0.088,14.463-5.471,28.069-15.653,38.313
					s-23.756,15.886-38.22,15.886h-108c-15.922,0-28.875,12.953-28.875,28.875s12.953,28.875,28.875,28.875h135.511
					c1.381,0,2.5-1.119,2.5-2.5s-1.119-2.5-2.5-2.5H63.947c-13.165,0-23.875-10.71-23.875-23.875S50.783,143.018,63.947,143.018z"/>
			</g>
		</g>
		<g>
			<g>
				<path d="M238.832,165.616l-26.652-13.76c-1.226-0.633-2.735-0.152-3.368,1.075c-0.634,1.227-0.152,2.734,1.074,3.368
					l26.652,13.676l-26.902,13.89c-1.227,0.634-1.708,2.142-1.074,3.368c0.444,0.86,1.318,1.354,2.223,1.354
					c0.386,0,0.778-0.09,1.145-0.279l26.902-13.89c1.653-0.854,2.681-2.541,2.681-4.401S240.485,166.471,238.832,165.616z"/>
			</g>
		</g>
		<g>
			<g>
				<path d="M126.779,206.25l-14.227-14.227c-0.976-0.977-2.56-0.977-3.535,0c-0.977,0.977-0.977,2.559,0,3.535l12.459,12.459
					l-13.056,13.057c-0.977,0.977-0.977,2.559,0,3.535c0.488,0.488,1.128,0.732,1.768,0.732s1.28-0.244,1.768-0.732l14.824-14.824
					c0.469-0.469,0.732-1.104,0.732-1.768S127.248,206.719,126.779,206.25z"/>
			</g>
		</g>
		<g>
			<g>
				<path d="M124.281,109.215c-0.976-0.977-2.56-0.977-3.535,0L105.71,124.25c-0.469,0.469-0.732,1.104-0.732,1.768
					s0.263,1.299,0.732,1.768l13.988,13.988c0.488,0.488,1.128,0.732,1.768,0.732s1.28-0.244,1.768-0.732
					c0.977-0.977,0.977-2.559,0-3.535l-12.22-12.221l13.268-13.268C125.257,111.773,125.257,110.191,124.281,109.215z"/>
			</g>
		</g>
		<g>
			<g>
				<path d="M126.607,41.25l-14.593-14.592c-0.977-0.977-2.559-0.977-3.536,0c-0.976,0.977-0.976,2.56,0,3.535l12.825,12.824
					L108.89,55.433c-0.977,0.977-0.977,2.56,0,3.535c0.488,0.488,1.128,0.732,1.768,0.732s1.28-0.244,1.768-0.732l14.182-14.183
					c0.469-0.469,0.732-1.104,0.732-1.768S127.077,41.719,126.607,41.25z"/>
			</g>
		</g>
	</g>
</g>
<g id="Layer_73">
</g>
<g id="Layer_74">
</g>
<g id="Layer_75">
</g>
<g id="Layer_76">
</g>
<g id="Layer_77">
</g>
<g id="Layer_78">
</g>
<g id="Layer_79">
</g>
<g id="Layer_80">
</g>
<g id="Layer_81">
</g>
<g id="Layer_82">
</g>
<g id="Layer_83">
</g>
<g id="Layer_84">
</g>
<g id="Layer_85">
</g>
<g id="Layer_86">
</g>
<g id="Layer_87">
</g>
<g id="Layer_88">
</g>
<g id="Layer_89">
</g>
<g id="Layer_90">
</g>
</svg>
