<svg xmlns="http://www.w3.org/2000/svg" width="128" height="128" viewBox="0 0 128 128">
  <title>SABRE SAW</title>
  <g>
    <g>
      <path d="M45.4,62.015,14.422,92.993,47.678,126.25l15.49-15.489,3.025-27.953Zm9.642,44.855-7.364,7.364L26.438,92.993,45.4,74.031,57.308,85.939Z" fill="#6e77e5"/>
      <rect x="49.304" y="42.035" width="44.333" height="29.406" transform="translate(-19.186 67.156) rotate(-45)" fill="#57555c"/>
      <path d="M62.438,67.037l-11.03-11.03L70.741,36.674,81.771,47.7a5.31,5.31,0,0,1,0,7.51L69.948,67.037A5.31,5.31,0,0,1,62.438,67.037Z" fill="#fedb41"/>
      <rect x="79.718" y="25.354" width="9.857" height="12.482" transform="translate(2.451 69.108) rotate(-45)" fill="#aeadb3"/>
      <polygon points="113.578 5.153 89.377 29.354 83.719 23.697 105.665 1.75 113.578 5.153" fill="#e5e5e5"/>
      <path d="M64.971,58.98a1.75,1.75,0,0,1-1.238-2.987L70.727,49A1.75,1.75,0,0,1,73.2,51.474l-6.993,6.994A1.742,1.742,0,0,1,64.971,58.98Z" fill="#fea832"/>
    </g>
    <g>
      <path d="M46.638,72.793a1.749,1.749,0,0,0-2.475,0L25.2,91.756a1.75,1.75,0,0,0,0,2.474l21.241,21.242a1.752,1.752,0,0,0,2.475,0l7.363-7.365a1.749,1.749,0,0,0-2.474-2.474l-6.126,6.127L28.912,92.993,45.4,76.505,56.071,87.177A1.75,1.75,0,1,0,58.546,84.7Z"/>
      <path d="M56.609,92.4a1.74,1.74,0,0,0-1.928,1.552l-.492,4.534a1.752,1.752,0,0,0,1.552,1.929,1.772,1.772,0,0,0,.191.01A1.752,1.752,0,0,0,57.67,98.86l.491-4.534A1.752,1.752,0,0,0,56.609,92.4Z"/>
      <path d="M115.3,4.823a1.75,1.75,0,0,0-1.028-1.277l-7.913-3.4a1.747,1.747,0,0,0-1.928.37L13.185,91.756a1.748,1.748,0,0,0,0,2.474l33.256,33.257a1.749,1.749,0,0,0,2.475,0L64.405,112a1.751,1.751,0,0,0,.5-1.049l2.959-27.34L98.779,52.7a1.748,1.748,0,0,0,0-2.474L88.05,39.493l5.732-5.733a1.749,1.749,0,0,0,0-2.475l-1.931-1.931,4.626-4.626A1.75,1.75,0,1,0,94,22.253L89.377,26.88,86.193,23.7l19.87-19.87,4.453,1.915-8.575,8.574a1.75,1.75,0,0,0,2.475,2.474l10.4-10.4A1.751,1.751,0,0,0,115.3,4.823ZM70.741,39.149l9.792,9.792a3.561,3.561,0,0,1,0,5.036L68.711,65.8a3.643,3.643,0,0,1-5.035,0l-9.793-9.793,8.429-8.429Zm-9.247,70.81L47.679,123.775,16.9,92.993l28.5-28.5L64.363,83.453Zm4.7-29.625L47.875,62.015l3.533-3.534L61.2,68.274a7.057,7.057,0,0,0,9.984,0L83.008,56.451a7.059,7.059,0,0,0,0-9.984l-9.792-9.792,3.533-3.533L95.067,51.46ZM88.14,30.592l1.93,1.93-4.495,4.5-6.351-6.352,4.495-4.5Z"/>
      <path d="M63.733,58.468a1.752,1.752,0,0,0,2.475,0L73.2,51.474A1.75,1.75,0,0,0,70.727,49l-6.994,6.994A1.751,1.751,0,0,0,63.733,58.468Z"/>
    </g>
  </g>
</svg>
