<svg xmlns="http://www.w3.org/2000/svg" width="128" height="128" viewBox="0 0 128 128">
  <title>SAW_1</title>
  <g>
    <g>
      <path d="M126.25,67.806V50.181l-8.34,2.578a54.672,54.672,0,0,0-3.453-10.808l5.357-5.781L111,20.907l-5.945,6.414a55.391,55.391,0,0,0-8.384-7.639l1.75-7.691L83.159,3.179,81.22,11.7A54.741,54.741,0,0,0,70.138,9.285L67.809,1.747H50.184l2.577,8.34A54.683,54.683,0,0,0,41.954,13.54L36.173,8.183,20.909,17l6.415,5.945a55.351,55.351,0,0,0-7.639,8.385l-7.691-1.751L3.182,44.837l8.519,1.94A54.756,54.756,0,0,0,9.288,57.859L1.75,60.189V77.814l8.34-2.578a54.662,54.662,0,0,0,3.453,10.807L8.186,91.824,17,107.087l5.945-6.414a55.391,55.391,0,0,0,8.384,7.639L29.577,116l15.264,8.812L46.78,116.3a54.741,54.741,0,0,0,11.082,2.413l2.329,7.538H77.816l-2.577-8.34a54.683,54.683,0,0,0,10.807-3.453l5.781,5.357L107.09,111l-6.414-5.945a55.391,55.391,0,0,0,7.639-8.384l7.691,1.75,8.812-15.263-8.519-1.94a54.747,54.747,0,0,0,2.413-11.081Z" fill="#e5e5e5"/>
      <circle cx="64" cy="63.997" r="38.25" fill="#57555c"/>
      <circle cx="64" cy="63.997" r="30.25" fill="#fedb41"/>
    </g>
    <g>
      <path d="M127.289,48.772a1.752,1.752,0,0,0-1.556-.263l-8.34,2.578a1.75,1.75,0,0,0,1.033,3.344l6.074-1.877V66.515L118.2,68.464a1.749,1.749,0,0,0-1.222,1.478,53.193,53.193,0,0,1-2.336,10.729,1.748,1.748,0,0,0,1.274,2.253l6.2,1.412-6.98,12.091L108.7,94.964a1.751,1.751,0,0,0-1.8.666,53.7,53.7,0,0,1-7.4,8.119,1.75,1.75,0,0,0-.024,2.588l4.675,4.333-12.092,6.98-4.834-4.479a1.742,1.742,0,0,0-1.89-.32,53,53,0,0,1-10.462,3.341,1.751,1.751,0,0,0-1.317,2.231l1.878,6.074H61.482l-1.949-6.305a1.747,1.747,0,0,0-1.479-1.222,53.234,53.234,0,0,1-10.727-2.336,1.749,1.749,0,0,0-2.254,1.273l-1.412,6.206-12.092-6.98,1.465-6.432a1.75,1.75,0,0,0-.667-1.8,53.737,53.737,0,0,1-8.119-7.4,1.753,1.753,0,0,0-1.289-.584,1.709,1.709,0,0,0-1.3.56l-4.333,4.675-6.98-12.091,4.48-4.835a1.747,1.747,0,0,0,.319-1.89A53,53,0,0,1,11.8,74.88a1.748,1.748,0,0,0-2.23-1.316L3.5,75.44V61.479L9.805,59.53a1.749,1.749,0,0,0,1.222-1.478,53.208,53.208,0,0,1,2.336-10.729,1.748,1.748,0,0,0-1.274-2.253l-6.2-1.412,6.98-12.091L19.3,33.03a1.749,1.749,0,0,0,1.8-.666,53.7,53.7,0,0,1,7.4-8.119,1.75,1.75,0,0,0,.024-2.588l-4.675-4.333,12.092-6.98,4.834,4.479a1.75,1.75,0,0,0,1.89.321A52.934,52.934,0,0,1,53.117,11.8a1.75,1.75,0,0,0,1.317-2.231L52.556,3.5H66.518L68.467,9.8a1.747,1.747,0,0,0,1.479,1.222A53.234,53.234,0,0,1,80.673,13.36a1.749,1.749,0,0,0,2.254-1.273l1.412-6.206,12.092,6.98-1.465,6.432a1.75,1.75,0,0,0,.667,1.8,53.737,53.737,0,0,1,8.119,7.4,1.753,1.753,0,0,0,1.289.584,1.959,1.959,0,0,0,1.3-.56l4.333-4.675,6.98,12.091-2.59,2.8a1.75,1.75,0,0,0,2.568,2.379l3.467-3.742a1.748,1.748,0,0,0,.232-2.064l-8.812-15.264a1.751,1.751,0,0,0-2.8-.314l-4.66,5.028a57.1,57.1,0,0,0-6.428-5.778l1.5-6.587a1.749,1.749,0,0,0-.832-1.9L84.035,1.663A1.751,1.751,0,0,0,81.453,2.79L79.934,9.467a56.606,56.606,0,0,0-8.458-1.782l-2-6.455A1.749,1.749,0,0,0,67.809,0H50.184a1.749,1.749,0,0,0-1.672,2.267L50.531,8.8a56.684,56.684,0,0,0-8.219,2.688L37.363,6.9A1.751,1.751,0,0,0,35.3,6.667L20.035,15.479a1.749,1.749,0,0,0-.315,2.8l5.028,4.661a57.309,57.309,0,0,0-5.779,6.428l-6.587-1.5a1.74,1.74,0,0,0-1.9.831L1.666,43.963a1.75,1.75,0,0,0,1.127,2.581l6.677,1.52a56.5,56.5,0,0,0-1.782,8.458l-6.455,2A1.749,1.749,0,0,0,0,60.189V77.814a1.749,1.749,0,0,0,2.267,1.671L8.8,77.466a56.569,56.569,0,0,0,2.689,8.219L6.9,90.635A1.748,1.748,0,0,0,6.67,92.7l8.812,15.264a1.751,1.751,0,0,0,2.8.314l4.66-5.028a57.008,57.008,0,0,0,6.428,5.778l-1.5,6.587a1.752,1.752,0,0,0,.832,1.905l15.263,8.812a1.751,1.751,0,0,0,2.582-1.127l1.519-6.677a56.734,56.734,0,0,0,8.458,1.783l2,6.454A1.749,1.749,0,0,0,60.191,128H77.816a1.749,1.749,0,0,0,1.672-2.267L77.469,119.2a56.563,56.563,0,0,0,8.219-2.688l4.949,4.587a1.753,1.753,0,0,0,2.065.232l15.263-8.812a1.749,1.749,0,0,0,.315-2.8l-5.028-4.66a57.406,57.406,0,0,0,5.779-6.429l6.587,1.5a1.746,1.746,0,0,0,1.9-.831l8.813-15.264a1.75,1.75,0,0,0-1.128-2.581l-6.676-1.519a56.553,56.553,0,0,0,1.782-8.458l6.455-2A1.751,1.751,0,0,0,128,67.806V50.181A1.753,1.753,0,0,0,127.289,48.772Z"/>
      <path d="M64,24a40,40,0,1,0,40,40A40.045,40.045,0,0,0,64,24Zm0,76.5A36.5,36.5,0,1,1,100.5,64,36.542,36.542,0,0,1,64,100.5Z"/>
      <path d="M64,32A31.894,31.894,0,0,0,47.379,36.66,1.75,1.75,0,0,0,49.2,39.648,28.494,28.494,0,1,1,35.5,64,1.75,1.75,0,0,0,32,64,32,32,0,1,0,64,32Z"/>
      <path d="M35.315,54.229a1.725,1.725,0,0,0,.66.13A1.751,1.751,0,0,0,37.6,53.27a28.476,28.476,0,0,1,2.878-5.342,1.75,1.75,0,0,0-2.888-1.979,32.008,32.008,0,0,0-3.231,6A1.748,1.748,0,0,0,35.315,54.229Z"/>
    </g>
  </g>
</svg>
