<?xml version="1.0" encoding="utf-8"?>
<!-- Generator: Adobe Illustrator 24.0.0, SVG Export Plug-In . SVG Version: 6.00 Build 0)  -->
<svg version="1.1" xmlns="http://www.w3.org/2000/svg" xmlns:xlink="http://www.w3.org/1999/xlink" x="0px" y="0px"
	 viewBox="0 0 256 256" enable-background="new 0 0 256 256" xml:space="preserve">
<g id="Layer_1">
</g>
<g id="Layer_2">
</g>
<g id="Layer_3">
</g>
<g id="Layer_4">
</g>
<g id="Layer_5">
</g>
<g id="Layer_6">
</g>
<g id="Layer_7">
</g>
<g id="Layer_8">
</g>
<g id="Layer_9">
</g>
<g id="Layer_10">
</g>
<g id="Layer_11">
</g>
<g id="Layer_12">
</g>
<g id="Layer_13">
</g>
<g id="Layer_14">
</g>
<g id="Layer_15">
</g>
<g id="Layer_16">
</g>
<g id="Layer_17">
</g>
<g id="Layer_18">
</g>
<g id="Layer_19">
</g>
<g id="Layer_20">
</g>
<g id="Layer_21">
</g>
<g id="Layer_22">
</g>
<g id="Layer_23">
</g>
<g id="Layer_24">
</g>
<g id="Layer_25">
</g>
<g id="Layer_26">
</g>
<g id="Layer_27">
</g>
<g id="Layer_28">
</g>
<g id="Layer_29">
</g>
<g id="Layer_30">
</g>
<g id="Layer_31">
</g>
<g id="Layer_32">
</g>
<g id="Layer_33">
</g>
<g id="Layer_34">
</g>
<g id="Layer_35">
</g>
<g id="Layer_36">
</g>
<g id="Layer_37">
</g>
<g id="Layer_38">
</g>
<g id="Layer_39">
</g>
<g id="Layer_40">
</g>
<g id="Layer_41">
</g>
<g id="Layer_42">
</g>
<g id="Layer_43">
</g>
<g id="Layer_44">
</g>
<g id="Layer_45">
</g>
<g id="Layer_46">
</g>
<g id="Layer_47">
</g>
<g id="Layer_48">
</g>
<g id="Layer_49">
</g>
<g id="Layer_50">
</g>
<g id="Layer_51">
</g>
<g id="Layer_52">
</g>
<g id="Layer_53">
</g>
<g id="Layer_54">
</g>
<g id="Layer_55">
</g>
<g id="Layer_56">
</g>
<g id="Layer_57">
</g>
<g id="Layer_58">
</g>
<g id="Layer_59">
</g>
<g id="Layer_60">
</g>
<g id="Layer_61">
</g>
<g id="Layer_62">
</g>
<g id="Layer_63">
</g>
<g id="Layer_64">
</g>
<g id="Layer_65">
</g>
<g id="Layer_66">
</g>
<g id="Layer_67">
</g>
<g id="Layer_68">
</g>
<g id="Layer_69">
</g>
<g id="Layer_70">
</g>
<g id="Layer_71">
</g>
<g id="Layer_72">
</g>
<g id="Layer_73">
</g>
<g id="Layer_74">
</g>
<g id="Layer_75">
</g>
<g id="Layer_76">
</g>
<g id="Layer_77">
</g>
<g id="Layer_78">
</g>
<g id="Layer_79">
</g>
<g id="Layer_80">
</g>
<g id="Layer_81">
</g>
<g id="Layer_82">
</g>
<g id="Layer_83">
</g>
<g id="Layer_84">
	<g>
		<g>
			<g>
				<path fill="#9BE5F9" d="M189.559,60.441h-35.723c-3.313,0-6,2.687-6,6s2.687,6,6,6h21.238L64.199,183.316
					c-2.344,2.343-2.344,6.142,0,8.484c2.342,2.344,6.143,2.344,8.484,0L183.559,80.926v21.238c0,3.313,2.687,6,6,6s6-2.687,6-6
					V66.441C195.559,63.128,192.872,60.441,189.559,60.441z"/>
			</g>
		</g>
		<g>
			<g>
				<path fill="#3CAADC" d="M219.544,22.5H90.456C82.78,22.5,76.5,28.78,76.5,36.456v129.089c0,1.632,0.298,3.193,0.819,4.652
					l97.755-97.755h-21.238c-3.313,0-6-2.687-6-6s2.687-6,6-6h35.723c3.313,0,6,2.687,6,6v35.723c0,3.313-2.687,6-6,6s-6-2.687-6-6
					V80.926l-97.755,97.755c1.459,0.521,3.02,0.819,4.652,0.819h129.089c7.676,0,13.956-6.28,13.956-13.956V36.456
					C233.5,28.78,227.22,22.5,219.544,22.5z"/>
			</g>
		</g>
		<g>
			<g>
				<path fill="#9BE5F9" d="M90.456,179.5c-1.632,0-3.193-0.298-4.652-0.819l-13.12,13.12c-2.342,2.344-6.143,2.344-8.484,0
					c-2.344-2.343-2.344-6.142,0-8.484l13.12-13.12c-0.521-1.458-0.819-3.02-0.819-4.652V134.5H31.3c-4.84,0-8.8,3.96-8.8,8.8v81.4
					c0,4.84,3.96,8.8,8.8,8.8h81.4c4.84,0,8.8-3.96,8.8-8.8v-45.2H90.456z"/>
			</g>
		</g>
		<g>
			<g>
				<path fill="#F5C84C" d="M74.125,14.85c-4.5-0.8-8-4.3-8.9-8.7c0-0.2-0.4-0.2-0.4,0c-0.9,4.4-4.4,7.9-8.9,8.7
					c-0.2,0-0.2,0.3,0,0.4c4.5,0.8,8,4.3,8.9,8.7c0,0.2,0.4,0.2,0.4,0c0.9-4.4,4.4-7.9,8.9-8.7
					C74.325,15.15,74.325,14.85,74.125,14.85z"/>
			</g>
		</g>
		<g>
			<g>
				<path fill="#FC657E" d="M55.935,108.21c-3.157-0.562-5.613-3.018-6.245-6.104c0-0.141-0.281-0.141-0.281,0
					c-0.631,3.087-3.087,5.543-6.245,6.104c-0.14,0-0.14,0.21,0,0.28c3.157,0.562,5.613,3.018,6.245,6.104
					c0,0.141,0.281,0.141,0.281,0c0.632-3.087,3.087-5.543,6.245-6.104C56.076,108.42,56.076,108.21,55.935,108.21z"/>
			</g>
		</g>
		<g>
			<g>
				<path fill="#87D147" d="M141.025,244.1h-2.3v-2.3c0-1.7-1.4-3.2-3.2-3.2s-3.2,1.4-3.2,3.2v2.3h-2.3c-1.7,0-3.2,1.4-3.2,3.2
					c0,1.8,1.4,3.2,3.2,3.2h2.3v2.3c0,1.7,1.4,3.2,3.2,3.2s3.2-1.4,3.2-3.2v-2.3h2.3c1.7,0,3.2-1.4,3.2-3.2
					C144.225,245.5,142.825,244.1,141.025,244.1z"/>
			</g>
		</g>
		<g>
			<g>
				<path fill="#F5C84C" d="M152.125,220c-1.878,0-3.4,1.522-3.4,3.4c0,1.878,1.522,3.4,3.4,3.4s3.4-1.522,3.4-3.4
					C155.525,221.522,154.003,220,152.125,220z"/>
			</g>
		</g>
		<g>
			<g>
				<path fill="#70D6F9" d="M98.125,0c-1.878,0-3.4,1.522-3.4,3.4c0,1.878,1.522,3.4,3.4,3.4s3.4-1.522,3.4-3.4
					C101.525,1.522,100.003,0,98.125,0z"/>
			</g>
		</g>
		<g>
			<g>
				<g>
					<path d="M189.559,57.941h-35.723c-4.687,0-8.5,3.813-8.5,8.5s3.813,8.5,8.5,8.5h15.203L62.432,181.548
						c-1.605,1.605-2.49,3.74-2.49,6.011s0.885,4.405,2.489,6.009c1.604,1.606,3.739,2.491,6.011,2.491s4.406-0.885,6.01-2.49
						L181.059,86.961v15.203c0,4.687,3.813,8.5,8.5,8.5s8.5-3.813,8.5-8.5V66.441C198.059,61.755,194.245,57.941,189.559,57.941z
						 M193.059,102.164c0,1.93-1.57,3.5-3.5,3.5s-3.5-1.57-3.5-3.5V80.926c0-1.011-0.609-1.923-1.543-2.31
						c-0.936-0.387-2.01-0.172-2.725,0.542L70.915,190.034c-1.32,1.32-3.626,1.322-4.948-0.002c-0.661-0.66-1.025-1.539-1.025-2.474
						s0.364-1.813,1.025-2.475L176.842,74.209c0.715-0.715,0.929-1.79,0.542-2.725c-0.387-0.934-1.299-1.543-2.31-1.543h-21.238
						c-1.93,0-3.5-1.57-3.5-3.5s1.57-3.5,3.5-3.5h35.723c1.93,0,3.5,1.57,3.5,3.5V102.164z"/>
				</g>
			</g>
		</g>
		<g>
			<g>
				<path d="M219.545,20H90.455C81.382,20,74,27.382,74,36.455v119.041c0,1.381,1.119,2.5,2.5,2.5s2.5-1.119,2.5-2.5V36.455
					C79,30.139,84.139,25,90.455,25h129.09C225.861,25,231,30.139,231,36.455v129.09c0,6.316-5.139,11.455-11.455,11.455H102.5
					c-1.381,0-2.5,1.119-2.5,2.5s1.119,2.5,2.5,2.5h117.045c9.073,0,16.455-7.382,16.455-16.455V36.455
					C236,27.382,228.618,20,219.545,20z"/>
			</g>
		</g>
		<g>
			<g>
				<path d="M121.5,188.062c-1.381,0-2.5,1.119-2.5,2.5V224.7c0,3.474-2.826,6.3-6.3,6.3H31.3c-3.474,0-6.3-2.826-6.3-6.3v-81.4
					c0-3.474,2.826-6.3,6.3-6.3h34.142c1.381,0,2.5-1.119,2.5-2.5s-1.119-2.5-2.5-2.5H31.3c-6.23,0-11.3,5.069-11.3,11.3v81.4
					c0,6.23,5.069,11.3,11.3,11.3h81.4c6.23,0,11.3-5.069,11.3-11.3v-34.139C124,189.181,122.881,188.062,121.5,188.062z"/>
			</g>
		</g>
	</g>
</g>
<g id="Layer_85">
</g>
<g id="Layer_86">
</g>
<g id="Layer_87">
</g>
<g id="Layer_88">
</g>
<g id="Layer_89">
</g>
<g id="Layer_90">
</g>
</svg>
