<?xml version="1.0" encoding="utf-8"?>
<!-- Generator: Adobe Illustrator 24.0.0, SVG Export Plug-In . SVG Version: 6.00 Build 0)  -->
<svg version="1.1" xmlns="http://www.w3.org/2000/svg" xmlns:xlink="http://www.w3.org/1999/xlink" x="0px" y="0px"
	 viewBox="0 0 256 256" enable-background="new 0 0 256 256" xml:space="preserve">
<g id="Layer_1">
</g>
<g id="Layer_2">
</g>
<g id="Layer_3">
</g>
<g id="Layer_4">
</g>
<g id="Layer_5">
</g>
<g id="Layer_6">
</g>
<g id="Layer_7">
</g>
<g id="Layer_8">
</g>
<g id="Layer_9">
</g>
<g id="Layer_10">
</g>
<g id="Layer_11">
</g>
<g id="Layer_12">
</g>
<g id="Layer_13">
</g>
<g id="Layer_14">
</g>
<g id="Layer_15">
</g>
<g id="Layer_16">
</g>
<g id="Layer_17">
</g>
<g id="Layer_18">
</g>
<g id="Layer_19">
</g>
<g id="Layer_20">
</g>
<g id="Layer_21">
</g>
<g id="Layer_22">
</g>
<g id="Layer_23">
</g>
<g id="Layer_24">
</g>
<g id="Layer_25">
</g>
<g id="Layer_26">
</g>
<g id="Layer_27">
</g>
<g id="Layer_28">
</g>
<g id="Layer_29">
</g>
<g id="Layer_30">
</g>
<g id="Layer_31">
</g>
<g id="Layer_32">
</g>
<g id="Layer_33">
</g>
<g id="Layer_34">
</g>
<g id="Layer_35">
</g>
<g id="Layer_36">
</g>
<g id="Layer_37">
</g>
<g id="Layer_38">
</g>
<g id="Layer_39">
</g>
<g id="Layer_40">
</g>
<g id="Layer_41">
</g>
<g id="Layer_42">
</g>
<g id="Layer_43">
</g>
<g id="Layer_44">
</g>
<g id="Layer_45">
</g>
<g id="Layer_46">
</g>
<g id="Layer_47">
</g>
<g id="Layer_48">
</g>
<g id="Layer_49">
</g>
<g id="Layer_50">
</g>
<g id="Layer_51">
</g>
<g id="Layer_52">
</g>
<g id="Layer_53">
</g>
<g id="Layer_54">
</g>
<g id="Layer_55">
</g>
<g id="Layer_56">
</g>
<g id="Layer_57">
</g>
<g id="Layer_58">
</g>
<g id="Layer_59">
</g>
<g id="Layer_60">
</g>
<g id="Layer_61">
</g>
<g id="Layer_62">
</g>
<g id="Layer_63">
</g>
<g id="Layer_64">
</g>
<g id="Layer_65">
</g>
<g id="Layer_66">
</g>
<g id="Layer_67">
</g>
<g id="Layer_68">
</g>
<g id="Layer_69">
</g>
<g id="Layer_70">
</g>
<g id="Layer_71">
</g>
<g id="Layer_72">
</g>
<g id="Layer_73">
</g>
<g id="Layer_74">
</g>
<g id="Layer_75">
	<g>
		<g>
			<g>
				<g>
					<path fill="#FC657E" d="M128,25C71.115,25,25,71.115,25,128s46.115,103,103,103s103-46.115,103-103S184.885,25,128,25z
						 M128,205c-42.526,0-77-34.474-77-77s34.474-77,77-77s77,34.474,77,77S170.526,205,128,205z"/>
				</g>
			</g>
		</g>
		<g>
			<g>
				<path fill="#F5C84C" d="M136.807,81.563h-32.283c-2.084,0-3.774,1.69-3.774,3.774v81.969c0,2.084,1.69,3.774,3.774,3.774h51.426
					c2.084,0,3.774-1.69,3.774-3.774v-62.827L136.807,81.563z"/>
			</g>
		</g>
		<g>
			<g>
				<path fill="#FCDD86" d="M136.807,81.563v19.143c0,2.084,1.69,3.774,3.774,3.774h19.142L136.807,81.563z"/>
			</g>
		</g>
		<g>
			<g>
				<g>
					<path d="M128,48.5c-43.837,0-79.5,35.663-79.5,79.5s35.663,79.5,79.5,79.5s79.5-35.663,79.5-79.5S171.837,48.5,128,48.5z
						 M128,202.5c-41.079,0-74.5-33.421-74.5-74.5S86.921,53.5,128,53.5s74.5,33.421,74.5,74.5S169.079,202.5,128,202.5z M128,22.5
						C69.827,22.5,22.5,69.827,22.5,128S69.827,233.5,128,233.5S233.5,186.173,233.5,128S186.173,22.5,128,22.5z M128,228.5
						c-55.416,0-100.5-45.084-100.5-100.5S72.584,27.5,128,27.5S228.5,72.584,228.5,128S183.416,228.5,128,228.5z"/>
				</g>
			</g>
		</g>
		<g>
			<g>
				<path d="M128,0c-1.381,0-2.5,1.119-2.5,2.5v60c0,1.381,1.119,2.5,2.5,2.5s2.5-1.119,2.5-2.5v-60C130.5,1.119,129.381,0,128,0z"
					/>
			</g>
		</g>
		<g>
			<g>
				<path d="M128,191c-1.381,0-2.5,1.119-2.5,2.5v60c0,1.381,1.119,2.5,2.5,2.5s2.5-1.119,2.5-2.5v-60
					C130.5,192.119,129.381,191,128,191z"/>
			</g>
		</g>
		<g>
			<g>
				<path d="M62.5,125.5h-60c-1.381,0-2.5,1.119-2.5,2.5s1.119,2.5,2.5,2.5h60c1.381,0,2.5-1.119,2.5-2.5S63.881,125.5,62.5,125.5z"
					/>
			</g>
		</g>
		<g>
			<g>
				<path d="M253.5,125.5h-60c-1.381,0-2.5,1.119-2.5,2.5s1.119,2.5,2.5,2.5h60c1.381,0,2.5-1.119,2.5-2.5
					S254.881,125.5,253.5,125.5z"/>
			</g>
		</g>
		<g>
			<g>
				<path fill="#F5C84C" d="M78.8,17.396c-4.5-0.8-8-4.3-8.9-8.7c0-0.2-0.4-0.2-0.4,0c-0.9,4.4-4.4,7.9-8.9,8.7
					c-0.2,0-0.2,0.3,0,0.4c4.5,0.8,8,4.3,8.9,8.7c0,0.2,0.4,0.2,0.4,0c0.9-4.4,4.4-7.9,8.9-8.7C79,17.697,79,17.396,78.8,17.396z"/>
			</g>
		</g>
		<g>
			<g>
				<path fill="#FC657E" d="M233.61,61.51c-3.158-0.562-5.613-3.018-6.245-6.104c0-0.141-0.281-0.141-0.281,0
					c-0.631,3.087-3.087,5.543-6.245,6.104c-0.14,0-0.14,0.21,0,0.28c3.158,0.562,5.613,3.018,6.245,6.104
					c0,0.141,0.281,0.141,0.281,0c0.631-3.087,3.087-5.543,6.245-6.104C233.75,61.72,233.75,61.51,233.61,61.51z"/>
			</g>
		</g>
		<g>
			<g>
				<path fill="#70D6F9" d="M206.7,228.646h-2.3v-2.3c0-1.7-1.4-3.2-3.2-3.2c-1.8,0-3.2,1.4-3.2,3.2v2.3h-2.3
					c-1.7,0-3.2,1.4-3.2,3.2c0,1.8,1.4,3.2,3.2,3.2h2.3v2.3c0,1.7,1.4,3.2,3.2,3.2c1.8,0,3.2-1.4,3.2-3.2v-2.3h2.3
					c1.7,0,3.2-1.4,3.2-3.2C209.9,230.046,208.5,228.646,206.7,228.646z"/>
			</g>
		</g>
		<g>
			<g>
				<path fill="#87D147" d="M99.8,0c-1.878,0-3.4,1.522-3.4,3.4c0,1.878,1.522,3.4,3.4,3.4c1.878,0,3.4-1.522,3.4-3.4
					C103.2,1.522,101.677,0,99.8,0z"/>
			</g>
		</g>
		<g>
			<g>
				<path fill="#F5C84C" d="M172.8,249.2c-1.878,0-3.4,1.522-3.4,3.4c0,1.877,1.522,3.4,3.4,3.4c1.878,0,3.4-1.522,3.4-3.4
					C176.2,250.722,174.677,249.2,172.8,249.2z"/>
			</g>
		</g>
		<g>
			<g>
				<path d="M147.488,143.807h-33.977c-1.381,0-2.5,1.119-2.5,2.5s1.119,2.5,2.5,2.5h33.977c1.381,0,2.5-1.119,2.5-2.5
					S148.869,143.807,147.488,143.807z"/>
			</g>
		</g>
		<g>
			<g>
				<path d="M147.488,133.5h-33.977c-1.381,0-2.5,1.119-2.5,2.5s1.119,2.5,2.5,2.5h33.977c1.381,0,2.5-1.119,2.5-2.5
					S148.869,133.5,147.488,133.5z"/>
			</g>
		</g>
		<g>
			<g>
				<path d="M147.488,123.192h-33.977c-1.381,0-2.5,1.119-2.5,2.5s1.119,2.5,2.5,2.5h33.977c1.381,0,2.5-1.119,2.5-2.5
					S148.869,123.192,147.488,123.192z"/>
			</g>
		</g>
		<g>
			<g>
				<path d="M147.488,112.886h-33.977c-1.381,0-2.5,1.119-2.5,2.5s1.119,2.5,2.5,2.5h33.977c1.381,0,2.5-1.119,2.5-2.5
					S148.869,112.886,147.488,112.886z"/>
			</g>
		</g>
		<g>
			<g>
				<path d="M140.493,154.114h-26.981c-1.381,0-2.5,1.119-2.5,2.5s1.119,2.5,2.5,2.5h26.981c1.381,0,2.5-1.119,2.5-2.5
					S141.874,154.114,140.493,154.114z"/>
			</g>
		</g>
		<g>
			<g>
				<g>
					<path d="M161.49,102.712l-22.916-22.917c-0.469-0.469-1.104-0.732-1.768-0.732h-32.283c-3.46,0-6.274,2.814-6.274,6.274v81.97
						c0,3.459,2.814,6.273,6.274,6.273h51.426c3.459,0,6.273-2.814,6.273-6.273v-62.827
						C162.223,103.816,161.959,103.181,161.49,102.712z M157.223,167.307c0,0.702-0.571,1.273-1.273,1.273h-51.426
						c-0.703,0-1.274-0.571-1.274-1.273v-81.97c0-0.703,0.571-1.274,1.274-1.274h31.248l21.451,21.452V167.307z"/>
				</g>
			</g>
		</g>
		<g>
			<g>
				<path d="M158.703,101.979h-18.122c-0.703,0-1.274-0.571-1.274-1.274V82.292c0-1.381-1.119-2.5-2.5-2.5s-2.5,1.119-2.5,2.5
					v18.413c0,3.46,2.814,6.274,6.274,6.274h18.122c1.381,0,2.5-1.119,2.5-2.5S160.084,101.979,158.703,101.979z"/>
			</g>
		</g>
	</g>
</g>
<g id="Layer_76">
</g>
<g id="Layer_77">
</g>
<g id="Layer_78">
</g>
<g id="Layer_79">
</g>
<g id="Layer_80">
</g>
<g id="Layer_81">
</g>
<g id="Layer_82">
</g>
<g id="Layer_83">
</g>
<g id="Layer_84">
</g>
<g id="Layer_85">
</g>
<g id="Layer_86">
</g>
<g id="Layer_87">
</g>
<g id="Layer_88">
</g>
<g id="Layer_89">
</g>
<g id="Layer_90">
</g>
</svg>
