<?xml version="1.0" encoding="utf-8"?>
<!-- Generator: Adobe Illustrator 24.0.0, SVG Export Plug-In . SVG Version: 6.00 Build 0)  -->
<svg version="1.1" xmlns="http://www.w3.org/2000/svg" xmlns:xlink="http://www.w3.org/1999/xlink" x="0px" y="0px"
	 viewBox="0 0 256 256" enable-background="new 0 0 256 256" xml:space="preserve">
<g id="Layer_1">
</g>
<g id="Layer_2">
</g>
<g id="Layer_3">
</g>
<g id="Layer_4">
</g>
<g id="Layer_5">
</g>
<g id="Layer_6">
</g>
<g id="Layer_7">
</g>
<g id="Layer_8">
</g>
<g id="Layer_9">
</g>
<g id="Layer_10">
</g>
<g id="Layer_11">
</g>
<g id="Layer_12">
</g>
<g id="Layer_13">
</g>
<g id="Layer_14">
</g>
<g id="Layer_15">
</g>
<g id="Layer_16">
</g>
<g id="Layer_17">
</g>
<g id="Layer_18">
</g>
<g id="Layer_19">
</g>
<g id="Layer_20">
</g>
<g id="Layer_21">
</g>
<g id="Layer_22">
</g>
<g id="Layer_23">
</g>
<g id="Layer_24">
</g>
<g id="Layer_25">
</g>
<g id="Layer_26">
</g>
<g id="Layer_27">
</g>
<g id="Layer_28">
</g>
<g id="Layer_29">
</g>
<g id="Layer_30">
</g>
<g id="Layer_31">
</g>
<g id="Layer_32">
</g>
<g id="Layer_33">
</g>
<g id="Layer_34">
</g>
<g id="Layer_35">
</g>
<g id="Layer_36">
</g>
<g id="Layer_37">
</g>
<g id="Layer_38">
</g>
<g id="Layer_39">
</g>
<g id="Layer_40">
</g>
<g id="Layer_41">
</g>
<g id="Layer_42">
</g>
<g id="Layer_43">
</g>
<g id="Layer_44">
</g>
<g id="Layer_45">
</g>
<g id="Layer_46">
</g>
<g id="Layer_47">
</g>
<g id="Layer_48">
</g>
<g id="Layer_49">
</g>
<g id="Layer_50">
</g>
<g id="Layer_51">
</g>
<g id="Layer_52">
</g>
<g id="Layer_53">
</g>
<g id="Layer_54">
</g>
<g id="Layer_55">
	<g>
		<g>
			<g>
				<path fill="#EDF4FC" d="M227.5,48.5h-199c-9.374,0-17,7.626-17,17v157c0,9.374,7.626,17,17,17h199c9.374,0,17-7.626,17-17v-157
					C244.5,56.126,236.874,48.5,227.5,48.5z"/>
			</g>
		</g>
		<g>
			<g>
				<circle fill="#F5C84C" cx="128" cy="10.5" r="8"/>
			</g>
		</g>
		<g>
			<g>
				<path fill="#5290DB" d="M227.5,58.5h-199c-3.859,0-7,3.141-7,7v157c0,3.859,3.141,7,7,7h199c3.859,0,7-3.141,7-7v-157
					C234.5,61.641,231.359,58.5,227.5,58.5z"/>
			</g>
		</g>
		<g>
			<g>
				<path fill="#EDF4FC" d="M64.351,111.546H45.649c-2.296,0-4.157,1.861-4.157,4.157v18.702c0,2.296,1.861,4.157,4.157,4.157
					h18.702c2.296,0,4.157-1.861,4.157-4.157v-18.702C68.508,113.407,66.647,111.546,64.351,111.546z"/>
			</g>
		</g>
		<g>
			<g>
				<path fill="#EDF4FC" d="M66.906,75.541H43.094c-1.846,0-3.342,1.496-3.342,3.342v4.811c0,1.846,1.496,3.342,3.342,3.342h23.811
					c1.846,0,3.342-1.496,3.342-3.342v-4.811C70.247,77.037,68.751,75.541,66.906,75.541z"/>
			</g>
		</g>
		<g>
			<g>
				<path fill="#F5C84C" d="M64.351,148.495H45.649c-2.296,0-4.157,1.861-4.157,4.157v18.702c0,2.296,1.861,4.157,4.157,4.157
					h18.702c2.296,0,4.157-1.861,4.157-4.157v-18.702C68.508,150.356,66.647,148.495,64.351,148.495z"/>
			</g>
		</g>
		<g>
			<g>
				<path fill="#70D6F9" d="M64.351,185.443H45.649c-2.296,0-4.157,1.861-4.157,4.157v18.702c0,2.296,1.861,4.157,4.157,4.157
					h18.702c2.296,0,4.157-1.861,4.157-4.157V189.6C68.508,187.304,66.647,185.443,64.351,185.443z"/>
			</g>
		</g>
		<g>
			<g>
				<path fill="#F5C84C" d="M113.018,111.546H94.316c-2.296,0-4.157,1.861-4.157,4.157v18.702c0,2.296,1.861,4.157,4.157,4.157
					h18.702c2.296,0,4.157-1.861,4.157-4.157v-18.702C117.175,113.407,115.313,111.546,113.018,111.546z"/>
			</g>
		</g>
		<g>
			<g>
				<path fill="#EDF4FC" d="M115.572,75.541H91.761c-1.846,0-3.342,1.496-3.342,3.342v4.811c0,1.846,1.496,3.342,3.342,3.342h23.811
					c1.845,0,3.342-1.496,3.342-3.342v-4.811C118.914,77.037,117.418,75.541,115.572,75.541z"/>
			</g>
		</g>
		<g>
			<g>
				<path fill="#EDF4FC" d="M113.018,148.495H94.316c-2.296,0-4.157,1.861-4.157,4.157v18.702c0,2.296,1.861,4.157,4.157,4.157
					h18.702c2.296,0,4.157-1.861,4.157-4.157v-18.702C117.175,150.356,115.313,148.495,113.018,148.495z"/>
			</g>
		</g>
		<g>
			<g>
				<path fill="#70D6F9" d="M161.684,111.546h-18.702c-2.296,0-4.157,1.861-4.157,4.157v18.702c0,2.296,1.861,4.157,4.157,4.157
					h18.702c2.296,0,4.157-1.861,4.157-4.157v-18.702C165.841,113.407,163.98,111.546,161.684,111.546z"/>
			</g>
		</g>
		<g>
			<g>
				<path fill="#EDF4FC" d="M164.239,75.541h-23.811c-1.845,0-3.342,1.496-3.342,3.342v4.811c0,1.846,1.496,3.342,3.342,3.342
					h23.811c1.846,0,3.342-1.496,3.342-3.342v-4.811C167.581,77.037,166.084,75.541,164.239,75.541z"/>
			</g>
		</g>
		<g>
			<g>
				<path fill="#EDF4FC" d="M210.351,111.546h-18.702c-2.296,0-4.157,1.861-4.157,4.157v18.702c0,2.296,1.861,4.157,4.157,4.157
					h18.702c2.296,0,4.157-1.861,4.157-4.157v-18.702C214.508,113.407,212.647,111.546,210.351,111.546z"/>
			</g>
		</g>
		<g>
			<g>
				<path fill="#EDF4FC" d="M212.906,75.541h-23.811c-1.846,0-3.342,1.496-3.342,3.342v4.811c0,1.846,1.496,3.342,3.342,3.342
					h23.811c1.846,0,3.342-1.496,3.342-3.342v-4.811C216.247,77.037,214.751,75.541,212.906,75.541z"/>
			</g>
		</g>
		<g>
			<g>
				<path fill="#F5C84C" d="M210.351,148.495h-18.702c-2.296,0-4.157,1.861-4.157,4.157v18.702c0,2.296,1.861,4.157,4.157,4.157
					h18.702c2.296,0,4.157-1.861,4.157-4.157v-18.702C214.508,150.356,212.647,148.495,210.351,148.495z"/>
			</g>
		</g>
		<g>
			<g>
				<path fill="#70D6F9" d="M210.351,185.443h-18.702c-2.296,0-4.157,1.861-4.157,4.157v18.702c0,2.296,1.861,4.157,4.157,4.157
					h18.702c2.296,0,4.157-1.861,4.157-4.157V189.6C214.508,187.304,212.647,185.443,210.351,185.443z"/>
			</g>
		</g>
		<g>
			<g>
				<path fill="#B2E26D" d="M149.61,32.21c-3.157-0.561-5.613-3.017-6.245-6.104c0-0.14-0.281-0.14-0.281,0
					c-0.632,3.087-3.087,5.543-6.245,6.104c-0.14,0-0.14,0.21,0,0.281c3.157,0.562,5.613,3.017,6.245,6.104
					c0,0.14,0.281,0.14,0.281,0c0.631-3.087,3.087-5.543,6.245-6.104C149.75,32.42,149.75,32.21,149.61,32.21z"/>
			</g>
		</g>
		<g>
			<g>
				<path fill="#F5C84C" d="M39.8,22.85c-4.5-0.8-8-4.3-8.9-8.7c0-0.2-0.4-0.2-0.4,0c-0.9,4.4-4.4,7.9-8.9,8.7c-0.2,0-0.2,0.3,0,0.4
					c4.5,0.8,8,4.3,8.9,8.7c0,0.2,0.4,0.2,0.4,0c0.9-4.4,4.4-7.9,8.9-8.7C40,23.15,40,22.85,39.8,22.85z"/>
			</g>
		</g>
		<g>
			<g>
				<path fill="#FC657E" d="M3.4,41C1.522,41,0,42.522,0,44.4c0,1.878,1.522,3.4,3.4,3.4s3.4-1.522,3.4-3.4
					C6.8,42.522,5.278,41,3.4,41z"/>
			</g>
		</g>
		<g>
			<g>
				<path fill="#70D6F9" d="M206.7,17.1h-2.3v-2.3c0-1.7-1.4-3.2-3.2-3.2c-1.8,0-3.2,1.4-3.2,3.2v2.3h-2.3c-1.7,0-3.2,1.4-3.2,3.2
					s1.4,3.2,3.2,3.2h2.3v2.3c0,1.7,1.4,3.2,3.2,3.2c1.8,0,3.2-1.4,3.2-3.2v-2.3h2.3c1.7,0,3.2-1.4,3.2-3.2S208.5,17.1,206.7,17.1z"
					/>
			</g>
		</g>
		<g>
			<g>
				<path fill="#F5C84C" d="M192.8,249.2c-1.878,0-3.4,1.522-3.4,3.4c0,1.878,1.522,3.4,3.4,3.4c1.878,0,3.4-1.522,3.4-3.4
					C196.2,250.722,194.678,249.2,192.8,249.2z"/>
			</g>
		</g>
		<g>
			<g>
				<g>
					<path d="M215.927,46.13L136.932,6.004c-1.228-0.625-2.736-0.134-3.36,1.097c-0.626,1.23-0.135,2.735,1.097,3.36l78.995,40.126
						c0.362,0.185,0.749,0.272,1.13,0.272c0.911,0,1.79-0.501,2.23-1.369C217.649,48.26,217.158,46.755,215.927,46.13z"/>
				</g>
			</g>
			<g>
				<g>
					<path d="M122.427,7.101c-0.624-1.23-2.131-1.722-3.36-1.097l-79.099,40.18c-1.231,0.625-1.723,2.13-1.097,3.36
						c0.44,0.868,1.319,1.369,2.23,1.369c0.381,0,0.768-0.088,1.13-0.272l79.099-40.18C122.562,9.836,123.053,8.331,122.427,7.101z"
						/>
				</g>
			</g>
		</g>
		<g>
			<g>
				<path d="M216,96.331H41c-1.381,0-2.5,1.119-2.5,2.5s1.119,2.5,2.5,2.5h175c1.381,0,2.5-1.119,2.5-2.5S217.381,96.331,216,96.331
					z"/>
			</g>
		</g>
		<g>
			<g>
				<g>
					<g>
						<path d="M227.5,46h-199C17.748,46,9,54.748,9,65.5v157c0,10.752,8.748,19.5,19.5,19.5h199c10.752,0,19.5-8.748,19.5-19.5v-157
							C247,54.748,238.252,46,227.5,46z M242,222.5c0,7.995-6.505,14.5-14.5,14.5h-199c-7.995,0-14.5-6.505-14.5-14.5v-157
							C14,57.505,20.505,51,28.5,51h199c7.995,0,14.5,6.505,14.5,14.5V222.5z"/>
					</g>
				</g>
			</g>
		</g>
		<g>
			<g>
				<g>
					<path d="M128,0c-5.79,0-10.5,4.71-10.5,10.5S122.21,21,128,21s10.5-4.71,10.5-10.5S133.79,0,128,0z M128,16
						c-3.032,0-5.5-2.468-5.5-5.5S124.968,5,128,5s5.5,2.468,5.5,5.5S131.032,16,128,16z"/>
				</g>
			</g>
		</g>
		<g>
			<g>
				<g>
					<path d="M227.5,56h-199c-5.238,0-9.5,4.262-9.5,9.5v157c0,5.238,4.262,9.5,9.5,9.5h199c5.238,0,9.5-4.262,9.5-9.5v-157
						C237,60.262,232.738,56,227.5,56z M232,222.5c0,2.481-2.019,4.5-4.5,4.5h-199c-2.481,0-4.5-2.019-4.5-4.5v-157
						c0-2.481,2.019-4.5,4.5-4.5h199c2.481,0,4.5,2.019,4.5,4.5V222.5z"/>
				</g>
			</g>
		</g>
		<g>
			<g>
				<g>
					<path d="M64.351,109.046H45.649c-3.671,0-6.657,2.986-6.657,6.657v18.702c0,3.671,2.986,6.657,6.657,6.657h18.701
						c3.671,0,6.657-2.986,6.657-6.657v-18.702C71.008,112.032,68.021,109.046,64.351,109.046z M66.008,134.405
						c0,0.914-0.743,1.657-1.657,1.657H45.649c-0.914,0-1.657-0.743-1.657-1.657v-18.702c0-0.914,0.743-1.657,1.657-1.657h18.701
						c0.914,0,1.657,0.743,1.657,1.657V134.405z"/>
				</g>
			</g>
		</g>
		<g>
			<g>
				<g>
					<path d="M66.905,73.041H43.095c-3.221,0-5.842,2.621-5.842,5.842v4.812c0,3.221,2.621,5.841,5.842,5.841h23.811
						c3.221,0,5.842-2.62,5.842-5.841v-4.812C72.747,75.662,70.126,73.041,66.905,73.041z M67.747,83.694
						c0,0.464-0.378,0.841-0.842,0.841H43.095c-0.464,0-0.842-0.377-0.842-0.841v-4.812c0-0.464,0.378-0.842,0.842-0.842h23.811
						c0.464,0,0.842,0.378,0.842,0.842V83.694z"/>
				</g>
			</g>
		</g>
		<g>
			<g>
				<g>
					<path d="M64.351,145.994H45.649c-3.671,0-6.657,2.986-6.657,6.657v18.702c0,3.671,2.986,6.657,6.657,6.657h18.701
						c3.671,0,6.657-2.986,6.657-6.657v-18.702C71.008,148.98,68.021,145.994,64.351,145.994z M66.008,171.354
						c0,0.914-0.743,1.657-1.657,1.657H45.649c-0.914,0-1.657-0.743-1.657-1.657v-18.702c0-0.914,0.743-1.657,1.657-1.657h18.701
						c0.914,0,1.657,0.743,1.657,1.657V171.354z"/>
				</g>
			</g>
		</g>
		<g>
			<g>
				<g>
					<path d="M64.351,182.942H45.649c-3.671,0-6.657,2.986-6.657,6.657v18.702c0,3.671,2.986,6.657,6.657,6.657h18.701
						c3.671,0,6.657-2.986,6.657-6.657V189.6C71.008,185.929,68.021,182.942,64.351,182.942z M66.008,208.302
						c0,0.914-0.743,1.657-1.657,1.657H45.649c-0.914,0-1.657-0.743-1.657-1.657V189.6c0-0.914,0.743-1.657,1.657-1.657h18.701
						c0.914,0,1.657,0.743,1.657,1.657V208.302z"/>
				</g>
			</g>
		</g>
		<g>
			<g>
				<g>
					<path d="M113.018,109.046H94.315c-3.671,0-6.657,2.986-6.657,6.657v18.702c0,3.671,2.986,6.657,6.657,6.657h18.702
						c3.671,0,6.657-2.986,6.657-6.657v-18.702C119.675,112.032,116.688,109.046,113.018,109.046z M114.675,134.405
						c0,0.914-0.743,1.657-1.657,1.657H94.315c-0.914,0-1.657-0.743-1.657-1.657v-18.702c0-0.914,0.743-1.657,1.657-1.657h18.702
						c0.914,0,1.657,0.743,1.657,1.657V134.405z"/>
				</g>
			</g>
		</g>
		<g>
			<g>
				<g>
					<path d="M115.572,73.041H91.761c-3.221,0-5.841,2.621-5.841,5.842v4.812c0,3.221,2.62,5.841,5.841,5.841h23.812
						c3.221,0,5.842-2.62,5.842-5.841v-4.812C121.414,75.662,118.793,73.041,115.572,73.041z M116.414,83.694
						c0,0.464-0.378,0.841-0.842,0.841H91.761c-0.464,0-0.841-0.377-0.841-0.841v-4.812c0-0.464,0.377-0.842,0.841-0.842h23.812
						c0.464,0,0.842,0.378,0.842,0.842V83.694z"/>
				</g>
			</g>
		</g>
		<g>
			<g>
				<g>
					<path d="M113.018,145.994H94.315c-3.671,0-6.657,2.986-6.657,6.657v18.702c0,3.671,2.986,6.657,6.657,6.657h18.702
						c3.671,0,6.657-2.986,6.657-6.657v-18.702C119.675,148.98,116.688,145.994,113.018,145.994z M114.675,171.354
						c0,0.914-0.743,1.657-1.657,1.657H94.315c-0.914,0-1.657-0.743-1.657-1.657v-18.702c0-0.914,0.743-1.657,1.657-1.657h18.702
						c0.914,0,1.657,0.743,1.657,1.657V171.354z"/>
				</g>
			</g>
		</g>
		<g>
			<g>
				<g>
					<path d="M161.685,109.046h-18.702c-3.671,0-6.657,2.986-6.657,6.657v18.702c0,3.671,2.986,6.657,6.657,6.657h18.702
						c3.671,0,6.657-2.986,6.657-6.657v-18.702C168.342,112.032,165.355,109.046,161.685,109.046z M163.342,134.405
						c0,0.914-0.743,1.657-1.657,1.657h-18.702c-0.914,0-1.657-0.743-1.657-1.657v-18.702c0-0.914,0.743-1.657,1.657-1.657h18.702
						c0.914,0,1.657,0.743,1.657,1.657V134.405z"/>
				</g>
			</g>
		</g>
		<g>
			<g>
				<g>
					<path d="M164.239,73.041h-23.812c-3.221,0-5.842,2.621-5.842,5.842v4.812c0,3.221,2.621,5.841,5.842,5.841h23.812
						c3.221,0,5.841-2.62,5.841-5.841v-4.812C170.08,75.662,167.46,73.041,164.239,73.041z M165.08,83.694
						c0,0.464-0.377,0.841-0.841,0.841h-23.812c-0.464,0-0.842-0.377-0.842-0.841v-4.812c0-0.464,0.378-0.842,0.842-0.842h23.812
						c0.464,0,0.841,0.378,0.841,0.842V83.694z"/>
				</g>
			</g>
		</g>
		<g>
			<g>
				<g>
					<path d="M210.351,109.046h-18.701c-3.671,0-6.657,2.986-6.657,6.657v18.702c0,3.671,2.986,6.657,6.657,6.657h18.701
						c3.671,0,6.657-2.986,6.657-6.657v-18.702C217.008,112.032,214.021,109.046,210.351,109.046z M212.008,134.405
						c0,0.914-0.743,1.657-1.657,1.657h-18.701c-0.914,0-1.657-0.743-1.657-1.657v-18.702c0-0.914,0.743-1.657,1.657-1.657h18.701
						c0.914,0,1.657,0.743,1.657,1.657V134.405z"/>
				</g>
			</g>
		</g>
		<g>
			<g>
				<g>
					<path d="M212.905,73.041h-23.811c-3.221,0-5.842,2.621-5.842,5.842v4.812c0,3.221,2.621,5.841,5.842,5.841h23.811
						c3.221,0,5.842-2.62,5.842-5.841v-4.812C218.747,75.662,216.126,73.041,212.905,73.041z M213.747,83.694
						c0,0.464-0.378,0.841-0.842,0.841h-23.811c-0.464,0-0.842-0.377-0.842-0.841v-4.812c0-0.464,0.378-0.842,0.842-0.842h23.811
						c0.464,0,0.842,0.378,0.842,0.842V83.694z"/>
				</g>
			</g>
		</g>
		<g>
			<g>
				<g>
					<path d="M210.351,145.994h-18.701c-3.671,0-6.657,2.986-6.657,6.657v18.702c0,3.671,2.986,6.657,6.657,6.657h18.701
						c3.671,0,6.657-2.986,6.657-6.657v-18.702C217.008,148.98,214.021,145.994,210.351,145.994z M212.008,171.354
						c0,0.914-0.743,1.657-1.657,1.657h-18.701c-0.914,0-1.657-0.743-1.657-1.657v-18.702c0-0.914,0.743-1.657,1.657-1.657h18.701
						c0.914,0,1.657,0.743,1.657,1.657V171.354z"/>
				</g>
			</g>
		</g>
		<g>
			<g>
				<g>
					<path d="M210.351,182.942h-18.701c-3.671,0-6.657,2.986-6.657,6.657v18.702c0,3.671,2.986,6.657,6.657,6.657h18.701
						c3.671,0,6.657-2.986,6.657-6.657V189.6C217.008,185.929,214.021,182.942,210.351,182.942z M212.008,208.302
						c0,0.914-0.743,1.657-1.657,1.657h-18.701c-0.914,0-1.657-0.743-1.657-1.657V189.6c0-0.914,0.743-1.657,1.657-1.657h18.701
						c0.914,0,1.657,0.743,1.657,1.657V208.302z"/>
				</g>
			</g>
		</g>
	</g>
</g>
<g id="Layer_56">
</g>
<g id="Layer_57">
</g>
<g id="Layer_58">
</g>
<g id="Layer_59">
</g>
<g id="Layer_60">
</g>
<g id="Layer_61">
</g>
<g id="Layer_62">
</g>
<g id="Layer_63">
</g>
<g id="Layer_64">
</g>
<g id="Layer_65">
</g>
<g id="Layer_66">
</g>
<g id="Layer_67">
</g>
<g id="Layer_68">
</g>
<g id="Layer_69">
</g>
<g id="Layer_70">
</g>
<g id="Layer_71">
</g>
<g id="Layer_72">
</g>
<g id="Layer_73">
</g>
<g id="Layer_74">
</g>
<g id="Layer_75">
</g>
<g id="Layer_76">
</g>
<g id="Layer_77">
</g>
<g id="Layer_78">
</g>
<g id="Layer_79">
</g>
<g id="Layer_80">
</g>
<g id="Layer_81">
</g>
<g id="Layer_82">
</g>
<g id="Layer_83">
</g>
<g id="Layer_84">
</g>
<g id="Layer_85">
</g>
<g id="Layer_86">
</g>
<g id="Layer_87">
</g>
<g id="Layer_88">
</g>
<g id="Layer_89">
</g>
<g id="Layer_90">
</g>
</svg>
