<?xml version="1.0" encoding="utf-8"?>
<!-- Generator: Adobe Illustrator 24.0.0, SVG Export Plug-In . SVG Version: 6.00 Build 0)  -->
<svg version="1.1" xmlns="http://www.w3.org/2000/svg" xmlns:xlink="http://www.w3.org/1999/xlink" x="0px" y="0px"
	 viewBox="0 0 256 256" enable-background="new 0 0 256 256" xml:space="preserve">
<g id="Layer_1">
</g>
<g id="Layer_2">
</g>
<g id="Layer_3">
</g>
<g id="Layer_4">
</g>
<g id="Layer_5">
</g>
<g id="Layer_6">
</g>
<g id="Layer_7">
</g>
<g id="Layer_8">
</g>
<g id="Layer_9">
</g>
<g id="Layer_10">
</g>
<g id="Layer_11">
</g>
<g id="Layer_12">
</g>
<g id="Layer_13">
</g>
<g id="Layer_14">
</g>
<g id="Layer_15">
</g>
<g id="Layer_16">
</g>
<g id="Layer_17">
</g>
<g id="Layer_18">
</g>
<g id="Layer_19">
</g>
<g id="Layer_20">
</g>
<g id="Layer_21">
</g>
<g id="Layer_22">
</g>
<g id="Layer_23">
</g>
<g id="Layer_24">
</g>
<g id="Layer_25">
</g>
<g id="Layer_26">
</g>
<g id="Layer_27">
</g>
<g id="Layer_28">
</g>
<g id="Layer_29">
</g>
<g id="Layer_30">
</g>
<g id="Layer_31">
</g>
<g id="Layer_32">
</g>
<g id="Layer_33">
</g>
<g id="Layer_34">
</g>
<g id="Layer_35">
</g>
<g id="Layer_36">
</g>
<g id="Layer_37">
</g>
<g id="Layer_38">
</g>
<g id="Layer_39">
</g>
<g id="Layer_40">
</g>
<g id="Layer_41">
</g>
<g id="Layer_42">
</g>
<g id="Layer_43">
</g>
<g id="Layer_44">
</g>
<g id="Layer_45">
</g>
<g id="Layer_46">
</g>
<g id="Layer_47">
</g>
<g id="Layer_48">
</g>
<g id="Layer_49">
</g>
<g id="Layer_50">
	<g>
		<g>
			<g>
				<path fill="#70D6F9" d="M212.729,120.532l-25.078,43.436c-1.224,2.12-3.935,2.846-6.055,1.622
					c-2.12-1.224-2.846-3.935-1.623-6.055l25.083-43.445c-6.625-3.104-14.015-4.847-21.815-4.847c-28.443,0-51.5,23.057-51.5,51.5
					s23.057,51.5,51.5,51.5c28.443,0,51.5-23.057,51.5-51.5C234.741,145.272,226.033,129.844,212.729,120.532z"/>
			</g>
		</g>
		<g>
			<g>
				<path fill="#EDF4FC" d="M206.443,131.418l-18.792,32.549c-1.224,2.12-3.935,2.846-6.055,1.622
					c-2.12-1.224-2.846-3.935-1.623-6.055l18.797-32.557c-4.762-2.076-10.012-3.234-15.53-3.234c-21.505,0-39,17.495-39,39
					s17.495,39,39,39s39-17.495,39-39C222.241,149.924,216.021,138.531,206.443,131.418z"/>
			</g>
		</g>
		<g>
			<g>
				<path fill="#F5C84C" d="M200.135,142.344l-12.485,21.624c-1.224,2.12-3.935,2.846-6.055,1.622
					c-2.12-1.224-2.846-3.935-1.623-6.055l12.49-21.634c-2.874-1.07-5.981-1.658-9.223-1.658c-14.612,0-26.5,11.888-26.5,26.5
					s11.888,26.5,26.5,26.5s26.5-11.888,26.5-26.5C209.741,154.547,205.999,147.209,200.135,142.344z"/>
			</g>
		</g>
		<g>
			<g>
				<path fill="#FC657E" d="M193.711,153.471l-6.06,10.497c-1.224,2.12-3.935,2.846-6.055,1.622
					c-2.12-1.224-2.846-3.935-1.623-6.055l6.06-10.497c-5.738-1.165-11.835,1.365-14.92,6.708
					c-3.86,6.686-1.561,15.264,5.125,19.124s15.264,1.561,19.124-5.124C198.447,164.403,197.589,157.857,193.711,153.471z"/>
			</g>
		</g>
		<g>
			<g>
				<path fill="#FCDD86" d="M222.38,94.951c-2.12-1.224-4.831-0.498-6.055,1.622l-36.351,62.962
					c-1.224,2.12-0.498,4.831,1.622,6.055s4.831,0.497,6.055-1.623l36.351-62.962C225.226,98.885,224.5,96.175,222.38,94.951z"/>
			</g>
		</g>
		<g>
			<g>
				<path fill="#FC657E" d="M235.535,104.831l-12.185-2.696l-9.308,16.122l13.16,2.912c0.673,0.149,1.365-0.156,1.71-0.753
					l7.651-13.251C237.096,106.239,236.578,105.062,235.535,104.831z"/>
			</g>
		</g>
		<g>
			<g>
				<path fill="#FC657E" d="M207.246,88.498c-0.721-0.788-2-0.648-2.534,0.277l-7.651,13.251c-0.345,0.597-0.262,1.349,0.203,1.857
					l9.101,9.941l9.308-16.122L207.246,88.498z"/>
			</g>
		</g>
		<g>
			<g>
				<path fill="#FC657E" d="M255.895,176.21c-3.157-0.561-5.613-3.017-6.245-6.104c0-0.14-0.281-0.14-0.281,0
					c-0.631,3.087-3.087,5.543-6.245,6.104c-0.14,0-0.14,0.21,0,0.281c3.157,0.562,5.613,3.017,6.245,6.104
					c0,0.14,0.281,0.14,0.281,0c0.632-3.087,3.087-5.543,6.245-6.104C256.035,176.42,256.035,176.21,255.895,176.21z"/>
			</g>
		</g>
		<g>
			<g>
				<path fill="#F5C84C" d="M180.8,43.85c-4.5-0.8-8-4.3-8.9-8.7c0-0.2-0.4-0.2-0.4,0c-0.9,4.4-4.4,7.9-8.9,8.7
					c-0.2,0-0.2,0.3,0,0.4c4.5,0.8,8,4.3,8.9,8.7c0,0.2,0.4,0.2,0.4,0c0.9-4.4,4.4-7.9,8.9-8.7C181,44.15,181,43.85,180.8,43.85z"/>
			</g>
		</g>
		<g>
			<g>
				<path fill="#87D147" d="M178.8,67c-1.878,0-3.4,1.522-3.4,3.4c0,1.878,1.522,3.4,3.4,3.4c1.878,0,3.4-1.522,3.4-3.4
					C182.2,68.522,180.678,67,178.8,67z"/>
			</g>
		</g>
		<g>
			<g>
				<path fill="#70D6F9" d="M14.2,155.1h-2.3v-2.3c0-1.7-1.4-3.2-3.2-3.2c-1.8,0-3.2,1.4-3.2,3.2v2.3H3.2c-1.7,0-3.2,1.4-3.2,3.2
					s1.4,3.2,3.2,3.2h2.3v2.3c0,1.7,1.4,3.2,3.2,3.2c1.8,0,3.2-1.4,3.2-3.2v-2.3h2.3c1.7,0,3.2-1.4,3.2-3.2S16,155.1,14.2,155.1z"/>
			</g>
		</g>
		<g>
			<g>
				<path fill="#F5C84C" d="M24.8,130c-1.878,0-3.4,1.522-3.4,3.4c0,1.878,1.522,3.4,3.4,3.4c1.878,0,3.4-1.522,3.4-3.4
					C28.2,131.522,26.678,130,24.8,130z"/>
			</g>
		</g>
		<g>
			<g>
				<path fill="#EDF4FC" d="M170.248,224.138l-0.681-11.744c-21.803-5.992-37.826-25.944-37.826-49.65
					c0-0.836,0.023-1.667,0.063-2.494c-2.224-0.707-4.417-1.511-6.562-2.43c-0.053,0.631-0.308,1.249-0.792,1.731l-14.667,14.667
					c-1.085,1.085-2.843,1.085-3.928,0l-6.563-6.563c-0.613-0.613-0.867-1.44-0.787-2.24h-7.529c0.08,0.8-0.174,1.627-0.787,2.24
					l-6.563,6.563c-1.085,1.085-2.843,1.085-3.928,0l-14.667-14.667c-0.48-0.48-0.735-1.094-0.79-1.721
					c-3.451,1.477-7.015,2.684-10.657,3.601l-20.936,5.27c-6.101,1.536-10.495,6.86-10.844,13.142l-2.569,44.297
					c-0.176,3.042,2.243,5.605,5.29,5.605h140.435C168.005,229.744,170.424,227.18,170.248,224.138z"/>
			</g>
		</g>
		<g>
			<g>
				<path fill="#FC657E" d="M99.292,167.654c-0.613-0.613-0.867-1.44-0.787-2.24h-7.529c0.08,0.8-0.174,1.627-0.787,2.24
					l-3.991,3.991l3.042,7.099h11l3.042-7.099L99.292,167.654z"/>
			</g>
		</g>
		<g>
			<g>
				<polygon fill="#FC657E" points="100.241,178.744 89.241,178.744 84.252,229.744 105.23,229.744 				"/>
			</g>
		</g>
		<g>
			<g>
				<path fill="#EDF4FC" d="M90.189,163.727L75.522,149.06c-1.085-1.084-2.843-1.084-3.928,0l-6.563,6.563
					c-1.085,1.085-1.085,2.843,0,3.928l14.667,14.667c1.085,1.085,2.843,1.085,3.928,0l6.563-6.563
					C91.274,166.57,91.274,164.811,90.189,163.727z"/>
			</g>
		</g>
		<g>
			<g>
				<path fill="#EDF4FC" d="M124.451,155.623l-6.563-6.563c-1.085-1.084-2.843-1.084-3.928,0l-14.667,14.667
					c-1.085,1.085-1.085,2.843,0,3.928l6.563,6.563c1.085,1.085,2.843,1.085,3.928,0l14.667-14.667
					C125.535,158.466,125.535,156.708,124.451,155.623z"/>
			</g>
		</g>
		<g>
			<g>
				<path fill="#F9D0B4" d="M111.524,143.361v-5.929c-5.031,2.634-10.739,4.134-16.783,4.134h0c-6.044,0-11.752-1.5-16.783-4.134
					v5.929c0,2.293-0.625,4.488-1.747,6.387l13.978,13.978c0.472,0.472,0.725,1.072,0.787,1.688h7.529
					c0.062-0.616,0.315-1.216,0.787-1.688l13.991-13.991C112.163,147.837,111.524,145.653,111.524,143.361z"/>
			</g>
		</g>
		<g>
			<g>
				<path fill="#F9D0B4" d="M131.165,72.116c-0.021-1.033-0.848-1.885-1.881-1.915c-15.134-0.444-23.108-6.442-26.172-9.445
					c-0.836-0.82-2.187-0.733-2.916,0.183c-13.306,16.733-32.934,14.372-39.534,12.99c-1.199-0.251-2.35,0.653-2.351,1.878v29.329
					c0,20.036,16.393,36.43,36.429,36.43h0c20.036,0,36.429-16.393,36.429-36.43V72.686
					C131.17,72.495,131.168,72.305,131.165,72.116z"/>
			</g>
		</g>
		<g>
			<g>
				<path fill="#754E34" d="M123.248,33.474c-3.882,0-7.511,1.097-10.63,2.967c-3.643-6.08-10.28-10.185-17.846-10.185H84.087
					c-20.682,0-37.603,16.921-37.603,37.603v16.849c2.602-2.082,5.898-3.335,9.49-3.335c0.796,0,1.575,0.067,2.338,0.185v-1.75
					c0.001-1.225,1.152-2.129,2.351-1.878c6.6,1.381,26.228,3.743,39.534-12.99c0.729-0.917,2.079-1.003,2.916-0.183
					c3.064,3.004,11.038,9.001,26.172,9.445c1.033,0.03,1.86,0.882,1.881,1.915c0.004,0.19,0.006,0.379,0.006,0.57v4.873
					c0.762-0.118,1.542-0.185,2.338-0.185c4.1,0,7.814,1.63,10.549,4.268V54.283C144.057,42.838,134.693,33.474,123.248,33.474z"/>
			</g>
		</g>
		<g>
			<g>
				<path fill="#F9D0B4" d="M133.508,77.373c-0.796,0-1.575,0.067-2.338,0.185v27.579c0,0.822-0.038,1.635-0.092,2.443
					c0.793,0.127,1.6,0.212,2.429,0.212c8.4,0,15.209-6.81,15.209-15.209S141.908,77.373,133.508,77.373z"/>
			</g>
		</g>
		<g>
			<g>
				<path fill="#F9D0B4" d="M58.311,105.137V77.558c-0.763-0.118-1.542-0.185-2.338-0.185c-8.4,0-15.209,6.81-15.209,15.21
					s6.809,15.209,15.209,15.209c0.829,0,1.636-0.084,2.429-0.212v-0.001C58.349,106.771,58.311,105.958,58.311,105.137z"/>
			</g>
		</g>
		<g>
			<g>
				<path d="M107.24,111.863c-1.056-0.885-2.634-0.748-3.521,0.31c-1.75,2.088-4.724,3.335-7.954,3.335
					c-3.229,0-6.203-1.247-7.954-3.336c-0.89-1.059-2.465-1.196-3.522-0.309s-1.196,2.464-0.31,3.522
					c2.69,3.208,7.096,5.123,11.786,5.123c4.691,0,9.098-1.916,11.786-5.124C108.438,114.327,108.299,112.75,107.24,111.863z"/>
			</g>
		</g>
		<g>
			<g>
				<path d="M110.88,89.861c-2.568,0-4.649,2.081-4.649,4.649c0,2.568,2.081,4.649,4.649,4.649c2.567,0,4.649-2.081,4.649-4.649
					C115.529,91.942,113.448,89.861,110.88,89.861z"/>
			</g>
		</g>
		<g>
			<g>
				<circle cx="79.661" cy="94.51" r="4.649"/>
			</g>
		</g>
		<g>
			<g>
				<path d="M145.463,195.588c-1.381,0-2.5,1.119-2.5,2.5v29.285c0,1.381,1.119,2.5,2.5,2.5s2.5-1.119,2.5-2.5v-29.285
					C147.963,196.707,146.844,195.588,145.463,195.588z"/>
			</g>
		</g>
		<g>
			<g>
				<path d="M44.549,189.41c-1.381,0-2.5,1.119-2.5,2.5v35.462c0,1.381,1.119,2.5,2.5,2.5s2.5-1.119,2.5-2.5V191.91
					C47.049,190.529,45.93,189.41,44.549,189.41z"/>
			</g>
		</g>
		<g>
			<g>
				<g>
					<path d="M91.957,161.959L77.29,147.292c-2.059-2.057-5.406-2.057-7.463,0l-6.563,6.563c-0.997,0.997-1.546,2.322-1.546,3.732
						s0.549,2.735,1.546,3.731l14.666,14.667c0.997,0.997,2.322,1.546,3.732,1.546c1.409,0,2.734-0.549,3.731-1.546l6.563-6.563
						c0.997-0.997,1.546-2.322,1.546-3.732S92.954,162.956,91.957,161.959z M88.422,165.887l-6.563,6.563
						c-0.107,0.108-0.285,0.108-0.393,0l-14.667-14.667c-0.054-0.054-0.081-0.12-0.081-0.196s0.027-0.142,0.081-0.196l6.563-6.563
						c0.054-0.054,0.125-0.081,0.196-0.081s0.143,0.027,0.196,0.081l14.667,14.667c0,0,0,0,0,0c0.054,0.054,0.081,0.12,0.081,0.196
						S88.476,165.833,88.422,165.887z"/>
				</g>
			</g>
		</g>
		<g>
			<g>
				<g>
					<path d="M126.218,153.855l-6.563-6.563c-0.997-0.997-2.322-1.546-3.732-1.546c-1.409,0-2.734,0.549-3.731,1.546l-14.667,14.667
						c0,0,0,0-0.001,0c-2.056,2.058-2.056,5.405,0.001,7.463l6.563,6.564c0.997,0.997,2.322,1.545,3.731,1.545
						c1.41,0,2.735-0.549,3.731-1.546l14.667-14.667c0.997-0.997,1.546-2.322,1.546-3.732S127.215,154.852,126.218,153.855z
						 M122.683,157.783l-14.668,14.667c-0.105,0.107-0.284,0.107-0.392,0l-6.563-6.563c-0.108-0.108-0.108-0.284-0.001-0.393
						l14.667-14.667c0.107-0.108,0.285-0.108,0.393,0l6.563,6.564c0.054,0.054,0.081,0.12,0.081,0.196
						S122.736,157.729,122.683,157.783z"/>
				</g>
			</g>
		</g>
		<g>
			<g>
				<path d="M115.226,148.092c-0.786-1.467-1.202-3.104-1.202-4.731v-5.326c0-1.381-1.119-2.5-2.5-2.5s-2.5,1.119-2.5,2.5v5.326
					c0,2.449,0.621,4.902,1.796,7.093c0.45,0.841,1.313,1.319,2.205,1.319c0.398,0,0.804-0.096,1.18-0.297
					C115.421,150.825,115.878,149.309,115.226,148.092z"/>
			</g>
		</g>
		<g>
			<g>
				<path d="M97.653,162.914h-6.185c-1.381,0-2.5,1.119-2.5,2.5s1.119,2.5,2.5,2.5h6.185c1.381,0,2.5-1.119,2.5-2.5
					S99.034,162.914,97.653,162.914z"/>
			</g>
		</g>
		<g>
			<g>
				<path d="M77.958,135.854c-1.381,0-2.5,1.119-2.5,2.5v5.007c0,1.61-0.394,3.217-1.139,4.646
					c-0.639,1.225-0.163,2.734,1.062,3.373c0.369,0.192,0.764,0.284,1.153,0.284c0.901,0,1.773-0.49,2.219-1.345
					c1.115-2.14,1.705-4.546,1.705-6.958v-5.007C80.458,136.973,79.339,135.854,77.958,135.854z"/>
			</g>
		</g>
		<g>
			<g>
				<path d="M131.919,157.674c-1.603-0.526-3.217-1.125-4.799-1.777c-1.277-0.528-2.737,0.082-3.265,1.358
					c-0.526,1.276,0.082,2.738,1.358,3.264c1.694,0.699,3.425,1.34,5.143,1.905c0.26,0.085,0.522,0.125,0.781,0.125
					c1.051,0,2.029-0.667,2.375-1.72C133.944,159.518,133.23,158.105,131.919,157.674z"/>
			</g>
		</g>
		<g>
			<g>
				<path d="M172.744,223.994l-0.656-11.313c-0.08-1.379-1.289-2.428-2.641-2.351c-1.379,0.08-2.432,1.262-2.352,2.64l0.656,11.313
					c0.045,0.777-0.225,1.517-0.759,2.083c-0.534,0.566-1.257,0.877-2.035,0.877H24.523c-0.778,0-1.501-0.312-2.035-0.878
					c-0.534-0.566-0.804-1.306-0.758-2.083l2.568-44.302c0.29-5.218,3.891-9.581,8.959-10.856l20.936-5.27
					c3.56-0.896,7.094-2.075,10.504-3.504c1.273-0.534,1.874-1.999,1.34-3.272s-2-1.875-3.271-1.339
					c-3.181,1.333-6.476,2.432-9.793,3.267l-20.936,5.27c-7.202,1.813-12.317,8.013-12.73,15.421l-2.568,44.296
					c-0.124,2.134,0.646,4.25,2.113,5.804s3.534,2.446,5.672,2.446h140.435c2.137,0,4.204-0.892,5.671-2.446
					C172.097,228.244,172.867,226.128,172.744,223.994z"/>
			</g>
		</g>
		<g>
			<g>
				<g>
					<path d="M133.664,72.064c-0.049-2.377-1.94-4.293-4.307-4.362c-14.504-0.425-21.962-6.248-24.495-8.731
						c-0.902-0.885-2.142-1.353-3.399-1.27c-1.26,0.078-2.435,0.691-3.223,1.682h-0.001c-12.217,15.365-29.992,13.578-37.065,12.1
						c-1.319-0.279-2.68,0.054-3.728,0.904c-1.038,0.842-1.634,2.088-1.635,3.446v29.304c0,21.466,17.464,38.93,38.93,38.93
						s38.929-17.464,38.929-38.93V72.686L133.664,72.064z M128.67,105.137c0,18.709-15.221,33.93-33.929,33.93
						c-18.709,0-33.93-15.221-33.93-33.93V76.509c6.904,1.323,27.112,3.392,40.976-13.561c3.833,3.588,12.115,9.173,26.883,9.733
						V105.137z"/>
				</g>
			</g>
		</g>
		<g>
			<g>
				<path d="M123.248,30.974c-3.383,0-6.733,0.756-9.813,2.203c-4.384-5.862-11.337-9.42-18.662-9.42H84.087
					c-22.112,0-40.103,17.99-40.103,40.103v16.068c0,1.381,1.119,2.5,2.5,2.5s2.5-1.119,2.5-2.5V63.859
					c0-19.355,15.747-35.103,35.103-35.103h10.686c6.369,0,12.386,3.437,15.701,8.97c0.341,0.569,0.894,0.979,1.537,1.14
					c0.643,0.159,1.324,0.06,1.894-0.281c2.848-1.708,6.079-2.611,9.344-2.611c10.096,0,18.31,8.213,18.31,18.309v26.642
					c0,1.381,1.119,2.5,2.5,2.5s2.5-1.119,2.5-2.5V54.283C146.558,41.431,136.101,30.974,123.248,30.974z"/>
			</g>
		</g>
		<g>
			<g>
				<path d="M133.508,74.873c-0.493,0-0.979,0.021-1.461,0.063c-1.376,0.118-2.396,1.328-2.278,2.704s1.334,2.4,2.704,2.278
					c0.341-0.029,0.687-0.044,1.035-0.044c7.008,0,12.71,5.702,12.71,12.709s-5.702,12.709-12.71,12.709
					c-0.365,0-0.753-0.021-1.152-0.063c-1.378-0.147-2.603,0.853-2.745,2.227c-0.144,1.374,0.854,2.603,2.228,2.746
					c0.57,0.06,1.133,0.09,1.67,0.09c9.766,0,17.71-7.944,17.71-17.709S143.273,74.873,133.508,74.873z"/>
			</g>
		</g>
		<g>
			<g>
				<path d="M56.946,105.247c-0.32,0.029-0.645,0.045-0.973,0.045c-7.008,0-12.71-5.702-12.71-12.709s5.702-12.709,12.71-12.709
					c0.334,0,0.664,0.014,0.992,0.041c1.385,0.113,2.582-0.912,2.695-2.288c0.112-1.376-0.912-2.583-2.289-2.695
					c-0.461-0.038-0.928-0.058-1.398-0.058c-9.766,0-17.71,7.944-17.71,17.709s7.944,17.709,17.71,17.709
					c0.479,0,0.951-0.023,1.418-0.065c1.375-0.123,2.391-1.337,2.268-2.713C59.536,106.139,58.328,105.121,56.946,105.247z"/>
			</g>
		</g>
		<g>
			<g>
				<g>
					<path d="M105.051,169.877l-3.99-3.99c-0.068-0.068-0.074-0.161-0.067-0.227c0.069-0.703-0.162-1.401-0.636-1.925
						c-0.474-0.523-1.146-0.821-1.853-0.821h-7.528c-0.706,0-1.38,0.299-1.854,0.823c-0.475,0.523-0.704,1.224-0.634,1.926
						c0.009,0.094-0.014,0.169-0.067,0.223l-3.991,3.991c-0.723,0.723-0.933,1.813-0.53,2.753l3.043,7.099
						c0.395,0.919,1.298,1.515,2.298,1.515h11c1,0,1.904-0.596,2.298-1.515l3.042-7.099
						C105.983,171.69,105.773,170.6,105.051,169.877z M98.593,176.244H90.89l-1.727-4.028l2.793-2.793
						c0.443-0.443,0.797-0.954,1.053-1.509h3.465c0.255,0.555,0.608,1.065,1.051,1.508l2.794,2.794L98.593,176.244z"/>
				</g>
			</g>
		</g>
		<g>
			<g>
				<g>
					<path d="M102.729,178.5c-0.125-1.28-1.202-2.256-2.488-2.256h-11c-1.286,0-2.363,0.976-2.488,2.256l-4.989,51
						c-0.068,0.702,0.162,1.401,0.637,1.923c0.474,0.522,1.146,0.82,1.852,0.82h20.979c0.705,0,1.378-0.298,1.852-0.82
						c0.475-0.522,0.705-1.221,0.637-1.923L102.729,178.5z M87.009,227.244l4.5-46h6.465l4.5,46H87.009z"/>
				</g>
			</g>
		</g>
		<g>
			<g>
				<path d="M214.741,118.895c-1.118-0.805-2.683-0.551-3.489,0.569c-0.807,1.121-0.552,2.683,0.569,3.49
					c12.786,9.201,20.42,24.076,20.42,39.79c0,27.019-21.981,49-49,49s-49-21.981-49-49s21.981-49,49-49
					c6.987,0,13.747,1.449,20.092,4.307c1.257,0.567,2.738,0.007,3.306-1.252c0.567-1.259,0.007-2.739-1.253-3.306
					c-6.993-3.15-14.444-4.748-22.145-4.748c-29.775,0-54,24.224-54,54s24.225,54,54,54s54-24.224,54-54
					C237.241,145.425,228.83,129.033,214.741,118.895z"/>
			</g>
		</g>
		<g>
			<g>
				<path d="M208.688,129.985c-1.09-0.849-2.66-0.652-3.508,0.437c-0.849,1.089-0.652,2.66,0.438,3.508
					c8.976,6.987,14.123,17.489,14.123,28.813c0,20.126-16.374,36.5-36.5,36.5s-36.5-16.374-36.5-36.5s16.374-36.5,36.5-36.5
					c4.73,0,9.344,0.902,13.71,2.68c1.285,0.521,2.737-0.094,3.259-1.373c0.521-1.279-0.094-2.737-1.372-3.258
					c-4.969-2.023-10.217-3.049-15.597-3.049c-22.883,0-41.5,18.617-41.5,41.5s18.617,41.5,41.5,41.5s41.5-18.617,41.5-41.5
					C224.74,149.866,218.89,137.926,208.688,129.985z"/>
			</g>
		</g>
		<g>
			<g>
				<path d="M202.454,141.04c-1.032-0.916-2.613-0.82-3.529,0.213c-0.916,1.034-0.82,2.613,0.213,3.529
					c5.149,4.563,8.103,11.11,8.103,17.962c0,13.234-10.767,24-24,24s-24-10.766-24-24s10.767-24,24-24
					c2.636,0,5.231,0.429,7.715,1.274c1.307,0.447,2.728-0.255,3.172-1.561c0.445-1.307-0.253-2.727-1.561-3.172
					c-3.003-1.022-6.141-1.541-9.326-1.541c-15.99,0-29,13.009-29,29s13.01,29,29,29s29-13.009,29-29
					C212.24,154.462,208.673,146.551,202.454,141.04z"/>
			</g>
		</g>
		<g>
			<g>
				<path d="M196.136,152.473c-0.86-1.081-2.431-1.261-3.513-0.401c-1.081,0.859-1.261,2.432-0.401,3.513
					c2.967,3.732,3.35,8.8,0.976,12.913c-3.171,5.491-10.216,7.38-15.709,4.209c-5.491-3.17-7.38-10.218-4.21-15.709
					c2.378-4.118,6.968-6.316,11.684-5.609c1.362,0.209,2.64-0.735,2.845-2.1c0.205-1.366-0.735-2.639-2.101-2.844
					c-6.773-1.02-13.345,2.144-16.758,8.054c-4.549,7.879-1.839,17.99,6.04,22.539c2.592,1.497,5.425,2.208,8.222,2.207
					c5.707,0,11.265-2.959,14.317-8.246C200.936,165.094,200.389,157.823,196.136,152.473z"/>
			</g>
		</g>
		<g>
			<g>
				<g>
					<g>
						<path d="M226.86,96.995c-0.479-1.789-1.627-3.284-3.23-4.209c-1.604-0.925-3.471-1.171-5.261-0.692
							c-1.789,0.479-3.283,1.626-4.209,3.23l-36.352,62.962c-1.911,3.311-0.773,7.559,2.537,9.47c0,0,0,0,0,0
							c1.089,0.628,2.279,0.927,3.454,0.927c2.397,0,4.733-1.244,6.017-3.465l36.351-62.962
							C227.093,100.652,227.339,98.784,226.86,96.995z M221.837,99.755l-36.351,62.962c-0.532,0.922-1.716,1.24-2.641,0.708
							c-0.923-0.533-1.239-1.717-0.707-2.64l36.352-62.963c0.258-0.447,0.675-0.767,1.173-0.9c0.501-0.134,1.02-0.065,1.467,0.193
							s0.767,0.675,0.9,1.173S222.096,99.308,221.837,99.755z"/>
					</g>
				</g>
			</g>
		</g>
		<g>
			<g>
				<path d="M238.928,104.729c-0.521-1.186-1.589-2.06-2.853-2.339l-10.938-2.42c-1.349-0.302-2.683,0.553-2.981,1.901
					c-0.298,1.348,0.554,2.683,1.901,2.981l9.714,2.149l-6.688,11.582l-11.678-2.584c-1.35-0.3-2.682,0.554-2.981,1.901
					c-0.298,1.348,0.553,2.683,1.901,2.981l12.338,2.73c0.297,0.065,0.594,0.097,0.888,0.097c1.435,0,2.783-0.757,3.525-2.042
					l7.651-13.251C239.375,107.292,239.45,105.915,238.928,104.729z"/>
			</g>
		</g>
		<g>
			<g>
				<path d="M216.914,95.356l-7.824-8.547c-0.875-0.956-2.17-1.441-3.453-1.301c-1.288,0.141-2.443,0.895-3.091,2.017l-7.65,13.251
					c-0.895,1.549-0.684,3.477,0.524,4.795l8.457,9.238c0.493,0.539,1.168,0.812,1.845,0.812c0.603,0,1.207-0.217,1.688-0.656
					c1.018-0.933,1.088-2.514,0.155-3.532l-8.002-8.741l6.687-11.582l6.978,7.621c0.933,1.019,2.513,1.089,3.532,0.156
					C217.776,97.956,217.847,96.375,216.914,95.356z"/>
			</g>
		</g>
	</g>
</g>
<g id="Layer_51">
</g>
<g id="Layer_52">
</g>
<g id="Layer_53">
</g>
<g id="Layer_54">
</g>
<g id="Layer_55">
</g>
<g id="Layer_56">
</g>
<g id="Layer_57">
</g>
<g id="Layer_58">
</g>
<g id="Layer_59">
</g>
<g id="Layer_60">
</g>
<g id="Layer_61">
</g>
<g id="Layer_62">
</g>
<g id="Layer_63">
</g>
<g id="Layer_64">
</g>
<g id="Layer_65">
</g>
<g id="Layer_66">
</g>
<g id="Layer_67">
</g>
<g id="Layer_68">
</g>
<g id="Layer_69">
</g>
<g id="Layer_70">
</g>
<g id="Layer_71">
</g>
<g id="Layer_72">
</g>
<g id="Layer_73">
</g>
<g id="Layer_74">
</g>
<g id="Layer_75">
</g>
<g id="Layer_76">
</g>
<g id="Layer_77">
</g>
<g id="Layer_78">
</g>
<g id="Layer_79">
</g>
<g id="Layer_80">
</g>
<g id="Layer_81">
</g>
<g id="Layer_82">
</g>
<g id="Layer_83">
</g>
<g id="Layer_84">
</g>
<g id="Layer_85">
</g>
<g id="Layer_86">
</g>
<g id="Layer_87">
</g>
<g id="Layer_88">
</g>
<g id="Layer_89">
</g>
<g id="Layer_90">
</g>
</svg>
