<?xml version="1.0" encoding="utf-8"?>
<!-- Generator: Adobe Illustrator 24.0.0, SVG Export Plug-In . SVG Version: 6.00 Build 0)  -->
<svg version="1.1" xmlns="http://www.w3.org/2000/svg" xmlns:xlink="http://www.w3.org/1999/xlink" x="0px" y="0px"
	 viewBox="0 0 256 256" enable-background="new 0 0 256 256" xml:space="preserve">
<g id="Layer_1">
</g>
<g id="Layer_2">
</g>
<g id="Layer_3">
</g>
<g id="Layer_4">
</g>
<g id="Layer_5">
</g>
<g id="Layer_6">
</g>
<g id="Layer_7">
</g>
<g id="Layer_8">
</g>
<g id="Layer_9">
</g>
<g id="Layer_10">
</g>
<g id="Layer_11">
</g>
<g id="Layer_12">
</g>
<g id="Layer_13">
</g>
<g id="Layer_14">
</g>
<g id="Layer_15">
</g>
<g id="Layer_16">
</g>
<g id="Layer_17">
</g>
<g id="Layer_18">
</g>
<g id="Layer_19">
</g>
<g id="Layer_20">
</g>
<g id="Layer_21">
</g>
<g id="Layer_22">
</g>
<g id="Layer_23">
</g>
<g id="Layer_24">
</g>
<g id="Layer_25">
</g>
<g id="Layer_26">
</g>
<g id="Layer_27">
</g>
<g id="Layer_28">
</g>
<g id="Layer_29">
</g>
<g id="Layer_30">
</g>
<g id="Layer_31">
</g>
<g id="Layer_32">
</g>
<g id="Layer_33">
</g>
<g id="Layer_34">
</g>
<g id="Layer_35">
</g>
<g id="Layer_36">
</g>
<g id="Layer_37">
</g>
<g id="Layer_38">
</g>
<g id="Layer_39">
</g>
<g id="Layer_40">
</g>
<g id="Layer_41">
</g>
<g id="Layer_42">
</g>
<g id="Layer_43">
</g>
<g id="Layer_44">
</g>
<g id="Layer_45">
</g>
<g id="Layer_46">
</g>
<g id="Layer_47">
</g>
<g id="Layer_48">
</g>
<g id="Layer_49">
</g>
<g id="Layer_50">
</g>
<g id="Layer_51">
</g>
<g id="Layer_52">
</g>
<g id="Layer_53">
</g>
<g id="Layer_54">
</g>
<g id="Layer_55">
</g>
<g id="Layer_56">
	<g>
		<g>
			<g>
				<path fill="#70D6F9" d="M140.937,15.269l-13.229-2.68c-1.729-0.301-3.507-0.458-5.321-0.458
					c-17.023,0-30.823,13.8-30.823,30.823c0,11.691,6.509,21.862,16.1,27.086l13.229,2.681c1.729,0.301,3.507,0.458,5.321,0.458
					c17.023,0,30.823-13.8,30.823-30.823C157.037,30.665,150.529,20.494,140.937,15.269z"/>
			</g>
		</g>
		<g>
			<g>
				<path fill="#F9D0B4" d="M87.429,159.806c0-0.735,0.079-1.451,0.224-2.143c-2.607,0.936-5.407,1.457-8.326,1.457h0
					c-4.129,0-8.028-1.025-11.464-2.824v4.05c0,1.566-0.427,3.065-1.193,4.363l9.548,9.548c0.322,0.322,0.496,0.732,0.538,1.153
					h5.143c0.042-0.421,0.215-0.831,0.538-1.153l7.593-7.593C88.415,164.834,87.429,162.438,87.429,159.806z"/>
			</g>
		</g>
		<g>
			<g>
				<path fill="#F9D0B4" d="M180.738,160.346v-4.05c-3.437,1.799-7.336,2.824-11.464,2.824h0c-2.919,0-5.719-0.521-8.326-1.457
					c0.145,0.692,0.224,1.408,0.224,2.143c0,2.632-0.986,5.028-2.6,6.859l7.593,7.593c0.322,0.322,0.496,0.732,0.538,1.153h5.143
					c0.042-0.421,0.215-0.831,0.538-1.153l9.557-9.557C181.175,163.404,180.738,161.911,180.738,160.346z"/>
			</g>
		</g>
		<g>
			<g>
				<path fill="#F5C84C" d="M43.1,80.396c-4.5-0.8-8-4.3-8.9-8.7c0-0.2-0.4-0.2-0.4,0c-0.9,4.4-4.4,7.9-8.9,8.7
					c-0.2,0-0.2,0.3,0,0.4c4.5,0.8,8,4.3,8.9,8.7c0,0.2,0.4,0.2,0.4,0c0.9-4.4,4.4-7.9,8.9-8.7C43.3,80.697,43.3,80.396,43.1,80.396
					z"/>
			</g>
		</g>
		<g>
			<g>
				<path fill="#70D6F9" d="M182.91,50.51c-3.157-0.561-5.613-3.017-6.245-6.104c0-0.14-0.281-0.14-0.281,0
					c-0.631,3.087-3.087,5.543-6.245,6.104c-0.14,0-0.14,0.211,0,0.281c3.157,0.561,5.613,3.017,6.245,6.104
					c0,0.14,0.281,0.14,0.281,0c0.631-3.087,3.087-5.543,6.245-6.104C183.05,50.72,183.05,50.51,182.91,50.51z"/>
			</g>
		</g>
		<g>
			<g>
				<path fill="#FC657E" d="M231.082,159.374h-2.313v-2.247c0-1.661-1.408-3.126-3.218-3.126s-3.218,1.368-3.218,3.126v2.247h-2.313
					c-1.71,0-3.218,1.368-3.218,3.126c0,1.759,1.408,3.126,3.218,3.126h2.313v2.247c0,1.661,1.408,3.126,3.218,3.126
					s3.218-1.368,3.218-3.126v-2.247h2.313c1.71,0,3.218-1.368,3.218-3.126C234.3,160.741,232.892,159.374,231.082,159.374z"/>
			</g>
		</g>
		<g>
			<g>
				<path fill="#87D147" d="M25.1,104c-1.878,0-3.4,1.522-3.4,3.4c0,1.878,1.522,3.4,3.4,3.4c1.878,0,3.4-1.522,3.4-3.4
					C28.5,105.522,26.978,104,25.1,104z"/>
			</g>
		</g>
		<g>
			<g>
				<path fill="#F5C84C" d="M214.1,141c-1.878,0-3.4,1.522-3.4,3.4c0,1.878,1.522,3.4,3.4,3.4c1.878,0,3.4-1.522,3.4-3.4
					C217.5,142.522,215.978,141,214.1,141z"/>
			</g>
		</g>
		<g>
			<g>
				<g>
					<path fill="#EDF4FC" d="M99.609,171.417l-10.006,10.006c-0.741,0.741-1.942,0.741-2.683,0l-4.483-4.483
						c-0.419-0.419-0.592-0.984-0.538-1.53h-5.143c0.055,0.546-0.119,1.112-0.538,1.53l-4.483,4.483
						c-0.741,0.741-1.942,0.741-2.683,0l-10.019-10.019c-0.328-0.328-0.502-0.747-0.54-1.176c-2.357,1.009-4.792,1.833-7.28,2.46
						l-14.301,3.6c-4.168,1.049-7.169,4.686-7.408,8.977l-1.755,30.259c-0.12,2.078,1.532,3.829,3.613,3.829h43.121
						c0.263-4.265,3.254-7.874,7.402-8.918l14.301-3.6c2.491-0.628,5.076-1.517,7.28-2.46l0,0c-0.047-0.54,0.127-1.095,0.54-1.508
						l4.484-4.483c0.741-0.741,1.942-0.741,2.683,0l0.47,0.47c0.086-0.146,0.152-0.303,0.229-0.453l0.964-7.33v-0.629
						C105.736,186.726,100.626,179.684,99.609,171.417z"/>
				</g>
			</g>
		</g>
		<g>
			<g>
				<path fill="#70D6F9" d="M82.436,176.94c-0.419-0.418-0.592-0.984-0.538-1.53h-5.143c0.054,0.546-0.119,1.112-0.538,1.53
					l-2.726,2.726l2.078,4.849h7.514l2.078-4.849L82.436,176.94z"/>
			</g>
		</g>
		<g>
			<g>
				<path fill="#70D6F9" d="M83.084,184.516H75.57l-3.408,34.838h2.321c0.263-4.265,3.254-7.874,7.402-8.918l3.645-0.917
					L83.084,184.516z"/>
			</g>
		</g>
		<g>
			<g>
				<path fill="#EDF4FC" d="M76.217,174.257l-10.019-10.019c-0.741-0.741-1.942-0.741-2.683,0l-4.484,4.483
					c-0.741,0.741-0.741,1.942,0,2.683l10.019,10.019c0.741,0.741,1.942,0.741,2.683,0l4.483-4.483
					C76.958,176.2,76.958,174.998,76.217,174.257z"/>
			</g>
		</g>
		<g>
			<g>
				<path fill="#EDF4FC" d="M99.478,170.051L99.478,170.051c-0.278,0.045-0.559,0.081-0.843,0.106v0.001
					c-0.269,0.024-0.541,0.038-0.817,0.038c-3.106,0-5.886-1.37-7.79-3.531l-7.593,7.593c-0.741,0.741-0.741,1.942,0,2.683
					l4.483,4.483c0.741,0.741,1.942,0.741,2.683,0l10.006-10.006C99.553,170.965,99.509,170.51,99.478,170.051z"/>
			</g>
		</g>
		<g>
			<g>
				<path fill="#F9D0B4" d="M104.207,111.679c-0.014-0.706-0.579-1.288-1.285-1.308c-10.338-0.303-15.785-4.4-17.878-6.452
					c-0.571-0.56-1.494-0.501-1.992,0.125c-9.089,11.43-22.497,9.817-27.005,8.874c-0.819-0.171-1.605,0.446-1.606,1.283v20.035
					c0,13.687,11.198,24.885,24.885,24.885h0c2.916,0,5.717-0.512,8.323-1.445c0.501-2.405,1.837-4.5,3.687-5.981v-11.509
					c0-9.469,5.197-17.778,12.875-22.232v-5.885C104.211,111.938,104.21,111.808,104.207,111.679z"/>
			</g>
		</g>
		<g>
			<g>
				<path fill="#754E34" d="M98.8,85.283c-2.652,0-5.131,0.749-7.261,2.027c-2.489-4.153-7.022-6.957-12.19-6.957h-7.299
					c-14.127,0-25.686,11.559-25.686,25.686v11.509c1.778-1.423,4.029-2.278,6.482-2.278c0.544,0,1.076,0.046,1.597,0.126V114.2
					c0.001-0.837,0.787-1.454,1.606-1.283c4.508,0.943,17.916,2.556,27.005-8.874c0.498-0.626,1.42-0.686,1.992-0.125
					c2.093,2.052,7.54,6.149,17.878,6.452c0.706,0.021,1.271,0.602,1.285,1.308c0.003,0.129,0.004,0.259,0.004,0.389v5.885
					c2.672-1.55,5.643-2.636,8.803-3.137V99.498C113.014,91.679,106.618,85.283,98.8,85.283z"/>
			</g>
		</g>
		<g>
			<g>
				<path fill="#F9D0B4" d="M54.442,134.235v-18.839c-0.521-0.081-1.053-0.126-1.597-0.126c-5.738,0-10.39,4.652-10.39,10.39
					s4.652,10.389,10.39,10.389c0.566,0,1.118-0.058,1.66-0.145v0C54.467,135.351,54.442,134.796,54.442,134.235z"/>
			</g>
		</g>
		<g>
			<g>
				<path d="M45.041,191.01c-1.381,0-2.5,1.119-2.5,2.5v24.224c0,1.381,1.119,2.5,2.5,2.5s2.5-1.119,2.5-2.5V193.51
					C47.541,192.129,46.421,191.01,45.041,191.01z"/>
			</g>
		</g>
		<g>
			<g>
				<g>
					<path d="M77.984,172.489l-10.019-10.02c-1.713-1.713-4.503-1.711-6.217,0.001l-4.483,4.483
						c-0.831,0.83-1.288,1.935-1.288,3.109s0.457,2.279,1.288,3.109l10.019,10.019c0.831,0.831,1.935,1.288,3.109,1.288
						s2.279-0.457,3.109-1.288l4.483-4.483c0.831-0.83,1.288-1.935,1.288-3.109S78.815,173.319,77.984,172.489z M70.393,179.229
						l-9.167-9.166l3.631-3.631l9.166,9.166L70.393,179.229z"/>
				</g>
			</g>
		</g>
		<g>
			<g>
				<path d="M100.403,170.623c-0.976-0.977-2.56-0.977-3.535,0l-8.607,8.606l-3.63-3.631l6.885-6.885
					c0.977-0.977,0.977-2.559,0-3.535c-0.976-0.977-2.56-0.977-3.535,0l-7.311,7.311c-0.831,0.83-1.289,1.935-1.289,3.109
					c0,1.174,0.457,2.278,1.288,3.109l4.483,4.483c0.831,0.831,1.935,1.288,3.109,1.288s2.279-0.457,3.109-1.288l9.033-9.033
					C101.379,173.182,101.379,171.6,100.403,170.623z"/>
			</g>
		</g>
		<g>
			<g>
				<path d="M81.316,172.91h-4.225c-1.381,0-2.5,1.119-2.5,2.5s1.119,2.5,2.5,2.5h4.225c1.381,0,2.5-1.119,2.5-2.5
					S82.697,172.91,81.316,172.91z"/>
			</g>
		</g>
		<g>
			<g>
				<path d="M67.862,154.426c-1.381,0-2.5,1.119-2.5,2.5v3.42c0,0.973-0.238,1.943-0.688,2.808
					c-0.638,1.225-0.163,2.734,1.062,3.372c0.369,0.192,0.764,0.284,1.153,0.284c0.902,0,1.773-0.49,2.219-1.346
					c0.821-1.574,1.254-3.344,1.254-5.118v-3.42C70.362,155.545,69.243,154.426,67.862,154.426z"/>
			</g>
		</g>
		<g>
			<g>
				<path d="M73.898,216.854H31.361c-0.42,0-0.69-0.22-0.814-0.351c-0.124-0.132-0.328-0.414-0.304-0.834l1.755-30.264
					c0.179-3.217,2.398-5.905,5.522-6.691l14.301-3.6c2.464-0.621,4.917-1.438,7.287-2.432c1.274-0.533,1.874-1.997,1.341-3.271
					c-0.534-1.272-1.998-1.876-3.271-1.34c-2.141,0.896-4.354,1.634-6.577,2.193l-14.301,3.6c-5.257,1.323-8.992,5.85-9.293,11.257
					l-1.755,30.259c-0.097,1.675,0.508,3.335,1.659,4.555c1.151,1.22,2.773,1.919,4.45,1.919h42.537c1.381,0,2.5-1.119,2.5-2.5
					S75.279,216.854,73.898,216.854z"/>
			</g>
		</g>
		<g>
			<g>
				<path d="M106.707,111.629c-0.041-2.045-1.67-3.695-3.711-3.758c-9.628-0.282-14.537-4.106-16.2-5.736
					c-0.776-0.762-1.834-1.159-2.925-1.094c-1.084,0.066-2.095,0.594-2.774,1.447c-8.074,10.152-19.848,8.964-24.539,7.981
					c-1.137-0.236-2.306,0.048-3.208,0.78c-0.895,0.726-1.408,1.801-1.408,2.968v20.018c0,15.1,12.285,27.385,27.385,27.385
					c2.938,0,5.833-0.469,8.604-1.393c1.31-0.438,2.018-1.854,1.581-3.163s-1.853-2.017-3.163-1.581
					c-2.261,0.755-4.624,1.137-7.022,1.137c-12.343,0-22.385-10.042-22.385-22.385v-18.613c5.435,0.87,18.137,1.493,27.278-9.07
					c2.853,2.447,8.343,5.758,17.491,6.269v4.875c0,1.381,1.119,2.5,2.5,2.5s2.5-1.119,2.5-2.5v-5.627L106.707,111.629z"/>
			</g>
		</g>
		<g>
			<g>
				<path d="M98.8,82.783c-2.216,0-4.413,0.452-6.46,1.32c-3.156-3.903-7.951-6.251-12.992-6.251h-7.299
					c-15.542,0-28.187,12.644-28.187,28.186v10.977c0,1.381,1.119,2.5,2.5,2.5s2.5-1.119,2.5-2.5v-10.977
					c0-12.784,10.401-23.186,23.187-23.186h7.299c4.074,0,7.923,2.2,10.045,5.742c0.341,0.568,0.894,0.979,1.537,1.14
					c0.643,0.163,1.324,0.061,1.893-0.28c1.823-1.093,3.89-1.671,5.977-1.671c6.459,0,11.714,5.255,11.714,11.714V114
					c0,1.381,1.119,2.5,2.5,2.5s2.5-1.119,2.5-2.5V99.497C115.514,90.281,108.016,82.783,98.8,82.783z"/>
			</g>
		</g>
		<g>
			<g>
				<path d="M53.436,133.521c-0.194,0.019-0.391,0.028-0.591,0.028c-4.351,0-7.89-3.539-7.89-7.89s3.539-7.89,7.89-7.89
					c0.205,0,0.408,0.009,0.608,0.025c1.374,0.12,2.584-0.907,2.699-2.283s-0.907-2.584-2.283-2.699
					c-0.337-0.028-0.679-0.043-1.024-0.043c-7.107,0-12.89,5.782-12.89,12.89s5.782,12.89,12.89,12.89
					c0.352,0,0.699-0.018,1.043-0.048c1.375-0.125,2.389-1.341,2.264-2.716C56.027,134.41,54.818,133.401,53.436,133.521z"/>
			</g>
		</g>
		<g>
			<g>
				<path d="M85.957,177.811c-1.271-0.545-2.739,0.044-3.283,1.313l-1.239,2.892h-4.217l-1.194-2.787
					c-0.544-1.27-2.013-1.857-3.283-1.313c-1.269,0.544-1.857,2.014-1.313,3.282l1.844,4.303c0.394,0.92,1.298,1.516,2.298,1.516
					h7.514c1,0,1.904-0.596,2.298-1.516l1.889-4.407C87.814,179.824,87.226,178.354,85.957,177.811z"/>
			</g>
		</g>
		<g>
			<g>
				<path d="M75.813,182.027c-1.373-0.142-2.597,0.87-2.731,2.245l-3.342,34.167c-0.134,1.374,0.871,2.597,2.245,2.731
					c0.083,0.008,0.165,0.012,0.246,0.012c1.271,0,2.359-0.965,2.485-2.257l3.342-34.167
					C78.192,183.385,77.187,182.162,75.813,182.027z"/>
			</g>
		</g>
		<g>
			<g>
				<path d="M85.572,184.272c-0.135-1.375-1.356-2.386-2.732-2.245c-1.374,0.135-2.379,1.357-2.245,2.731l2.343,23.947
					c0.126,1.292,1.214,2.257,2.485,2.257c0.082,0,0.164-0.004,0.247-0.012c1.374-0.135,2.379-1.357,2.245-2.731L85.572,184.272z"/>
			</g>
		</g>
		<g>
			<g>
				<path fill="#EDF4FC" d="M219.097,185.266c-0.239-4.291-3.24-7.928-7.408-8.977l-14.285-3.595
					c-2.495-0.628-4.933-1.459-7.296-2.471c-0.036,0.431-0.211,0.853-0.541,1.183l-10.019,10.019c-0.741,0.741-1.942,0.741-2.683,0
					l-4.483-4.483c-0.419-0.419-0.592-0.984-0.538-1.53h-5.143c0.055,0.546-0.119,1.112-0.538,1.53l-4.483,4.483
					c-0.741,0.741-1.942,0.741-2.683,0l-10.006-10.006c-1.018,8.266-6.127,15.309-13.227,19.025v0.412l1.018,7.629
					c0.064,0.12,0.115,0.246,0.184,0.363l0.462-0.462c0.741-0.741,1.942-0.741,2.683,0l4.484,4.483
					c0.411,0.411,0.586,0.963,0.54,1.5l0,0c2.11,0.905,4.751,1.83,7.296,2.471l14.285,3.595c4.148,1.044,7.139,4.653,7.402,8.918
					h43.121c2.081,0,3.734-1.751,3.613-3.829L219.097,185.266z"/>
			</g>
		</g>
		<g>
			<g>
				<path fill="#70D6F9" d="M172.383,176.94c-0.419-0.418-0.592-0.984-0.538-1.53h-5.143c0.054,0.546-0.119,1.112-0.538,1.53
					l-2.726,2.726l2.078,4.849h7.514l2.078-4.849L172.383,176.94z"/>
			</g>
		</g>
		<g>
			<g>
				<path fill="#70D6F9" d="M173.031,184.516h-7.514l-2.446,25.002l3.645,0.917c4.148,1.044,7.139,4.653,7.402,8.918h2.321
					L173.031,184.516z"/>
			</g>
		</g>
		<g>
			<g>
				<path fill="#EDF4FC" d="M166.165,174.257l-7.593-7.593c-1.904,2.161-4.684,3.531-7.79,3.531c-0.309,0-0.612-0.02-0.913-0.049
					c-0.017-0.002-0.034-0.001-0.051-0.003v-0.004c-0.233-0.024-0.466-0.052-0.695-0.089v0c-0.031,0.459-0.075,0.915-0.131,1.367
					l10.006,10.006c0.741,0.741,1.942,0.741,2.683,0l4.483-4.483C166.906,176.2,166.906,174.998,166.165,174.257z"/>
			</g>
		</g>
		<g>
			<g>
				<path fill="#EDF4FC" d="M189.568,168.722l-4.483-4.483c-0.741-0.741-1.942-0.741-2.683,0l-10.019,10.019
					c-0.741,0.741-0.741,1.942,0,2.683l4.483,4.483c0.741,0.741,1.942,0.741,2.683,0l10.019-10.019
					C190.309,170.664,190.309,169.463,189.568,168.722z"/>
			</g>
		</g>
		<g>
			<g>
				<path fill="#F9D0B4" d="M194.155,111.679c-0.014-0.706-0.579-1.288-1.285-1.308c-10.338-0.303-15.785-4.4-17.878-6.452
					c-0.571-0.56-1.494-0.501-1.992,0.125c-9.089,11.43-22.497,9.817-27.005,8.874c-0.819-0.171-1.605,0.446-1.606,1.283v5.26
					c7.533,0.327,13.599,6.573,13.599,14.183v18.688c1.472,1.42,2.53,3.265,2.963,5.343c2.606,0.932,5.407,1.445,8.323,1.445h0
					c13.687,0,24.885-11.198,24.885-24.885v-22.167C194.159,111.938,194.157,111.808,194.155,111.679z"/>
			</g>
		</g>
		<g>
			<g>
				<path fill="#754E34" d="M188.747,85.283c-2.652,0-5.131,0.749-7.261,2.027c-2.489-4.153-7.022-6.957-12.19-6.957h-7.299
					c-14.127,0-25.686,11.559-25.686,25.686v15.104c0.067,0.105,0.138,0.207,0.202,0.314c2.13-1.278,4.61-2.027,7.261-2.027
					c0.208,0,0.41,0.022,0.616,0.031v-5.26c0.001-0.837,0.787-1.454,1.606-1.283c4.508,0.943,17.916,2.556,27.005-8.874
					c0.498-0.626,1.42-0.686,1.992-0.125c2.093,2.052,7.54,6.149,17.878,6.452c0.706,0.021,1.271,0.602,1.285,1.308
					c0.003,0.129,0.004,0.259,0.004,0.389v3.328c0.521-0.081,1.053-0.126,1.597-0.126c2.801,0,5.338,1.114,7.206,2.915V99.498
					C202.961,91.679,196.565,85.283,188.747,85.283z"/>
			</g>
		</g>
		<g>
			<g>
				<path fill="#F9D0B4" d="M195.755,115.27c-0.544,0-1.076,0.046-1.597,0.126v18.839c0,0.561-0.026,1.117-0.063,1.669
					c0.542,0.087,1.093,0.145,1.66,0.145c5.738,0,10.39-4.651,10.39-10.389S201.493,115.27,195.755,115.27z"/>
			</g>
		</g>
		<g>
			<g>
				<path d="M203.921,191.01c-1.381,0-2.5,1.119-2.5,2.5v24.224c0,1.381,1.119,2.5,2.5,2.5s2.5-1.119,2.5-2.5V193.51
					C206.421,192.129,205.302,191.01,203.921,191.01z"/>
			</g>
		</g>
		<g>
			<g>
				<path d="M167.933,172.49l-7.081-7.081c-0.977-0.977-2.56-0.977-3.536,0c-0.977,0.976-0.977,2.559,0,3.535l6.654,6.654
					l-3.63,3.631l-8.756-8.755c-0.976-0.977-2.56-0.977-3.535,0c-0.977,0.977-0.977,2.559,0,3.535l9.182,9.182
					c0.831,0.831,1.935,1.288,3.109,1.288s2.279-0.457,3.109-1.288l4.483-4.483c0.831-0.83,1.288-1.935,1.288-3.109
					S168.763,173.319,167.933,172.49z"/>
			</g>
		</g>
		<g>
			<g>
				<g>
					<path d="M191.336,166.954l-4.484-4.484c-1.714-1.713-4.503-1.711-6.217,0.001l-10.019,10.019
						c-0.831,0.83-1.289,1.935-1.289,3.109c0,1.174,0.457,2.278,1.288,3.109l4.483,4.483c0.831,0.831,1.935,1.288,3.109,1.288
						s2.279-0.457,3.109-1.288l10.02-10.019C193.05,171.458,193.05,168.669,191.336,166.954z M178.208,179.229l-3.631-3.631
						l9.167-9.166l3.631,3.631L178.208,179.229z"/>
				</g>
			</g>
		</g>
		<g>
			<g>
				<path d="M183.965,163.203c-0.476-0.887-0.727-1.875-0.727-2.857v-3.638c0-1.381-1.119-2.5-2.5-2.5s-2.5,1.119-2.5,2.5v3.638
					c0,1.805,0.457,3.609,1.321,5.221c0.451,0.841,1.314,1.318,2.205,1.318c0.399,0,0.804-0.095,1.18-0.297
					C184.161,165.936,184.618,164.42,183.965,163.203z"/>
			</g>
		</g>
		<g>
			<g>
				<path d="M171.264,172.91h-4.225c-1.381,0-2.5,1.119-2.5,2.5s1.119,2.5,2.5,2.5h4.225c1.381,0,2.5-1.119,2.5-2.5
					S172.645,172.91,171.264,172.91z"/>
			</g>
		</g>
		<g>
			<g>
				<path d="M223.348,215.38l-1.754-30.254c-0.302-5.412-4.037-9.938-9.294-11.262l-14.285-3.596
					c-2.126-0.535-4.253-1.238-6.321-2.092c-1.279-0.524-2.738,0.081-3.264,1.358c-0.526,1.276,0.082,2.738,1.358,3.265
					c2.291,0.944,4.648,1.724,7.007,2.318l14.285,3.596c3.124,0.786,5.343,3.475,5.523,6.696l1.754,30.259
					c0.024,0.42-0.18,0.702-0.304,0.834c-0.124,0.131-0.394,0.351-0.814,0.351h-42.5c-1.381,0-2.5,1.119-2.5,2.5s1.119,2.5,2.5,2.5
					h42.5c1.677,0,3.3-0.699,4.451-1.92C222.841,218.714,223.445,217.054,223.348,215.38z"/>
			</g>
		</g>
		<g>
			<g>
				<path d="M196.654,111.629c-0.041-2.045-1.67-3.695-3.711-3.758c-9.628-0.282-14.537-4.106-16.2-5.736
					c-0.775-0.762-1.836-1.159-2.925-1.094c-1.084,0.066-2.095,0.594-2.774,1.447c-8.073,10.152-19.848,8.964-24.539,7.981
					c-1.137-0.236-2.307,0.048-3.208,0.78c-0.895,0.726-1.408,1.801-1.408,2.968v3.813c0,1.381,1.119,2.5,2.5,2.5s2.5-1.119,2.5-2.5
					v-2.409c5.434,0.87,18.137,1.493,27.278-9.07c2.853,2.447,8.343,5.758,17.491,6.269v21.415
					c0,12.343-10.042,22.385-22.385,22.385c-2.335,0-4.638-0.362-6.845-1.077c-1.316-0.426-2.723,0.293-3.149,1.607
					c-0.425,1.313,0.294,2.724,1.608,3.148c2.706,0.877,5.527,1.321,8.386,1.321c15.1,0,27.385-12.285,27.385-27.385v-22.167
					L196.654,111.629z"/>
			</g>
		</g>
		<g>
			<g>
				<path d="M188.747,82.783c-2.216,0-4.413,0.452-6.46,1.32c-3.156-3.903-7.951-6.251-12.992-6.251h-7.299
					c-15.542,0-28.187,12.644-28.187,28.186v12.977c0,1.381,1.119,2.5,2.5,2.5s2.5-1.119,2.5-2.5v-12.977
					c0-12.784,10.401-23.186,23.187-23.186h7.299c4.074,0,7.923,2.2,10.045,5.742c0.341,0.568,0.894,0.979,1.537,1.14
					c0.644,0.163,1.324,0.061,1.893-0.28c1.823-1.093,3.89-1.671,5.977-1.671c6.459,0,11.714,5.255,11.714,11.714v18.199
					c0,1.381,1.119,2.5,2.5,2.5s2.5-1.119,2.5-2.5V99.497C205.461,90.281,197.963,82.783,188.747,82.783z"/>
			</g>
		</g>
		<g>
			<g>
				<path d="M195.755,112.77c-0.36,0-0.717,0.016-1.069,0.047c-1.375,0.119-2.394,1.331-2.274,2.706
					c0.12,1.377,1.33,2.408,2.707,2.274c0.21-0.018,0.422-0.027,0.637-0.027c4.351,0,7.89,3.539,7.89,7.89s-3.539,7.89-7.89,7.89
					c-0.238,0-0.473-0.014-0.704-0.038c-1.371-0.146-2.603,0.854-2.747,2.227s0.853,2.603,2.226,2.746
					c0.403,0.042,0.811,0.065,1.225,0.065c7.107,0,12.89-5.782,12.89-12.89S202.863,112.77,195.755,112.77z"/>
			</g>
		</g>
		<g>
			<g>
				<path d="M175.967,177.666c-1.267-0.542-2.738,0.044-3.283,1.313l-1.302,3.037h-4.217l-1.302-3.037
					c-0.544-1.27-2.013-1.858-3.283-1.313c-1.269,0.544-1.857,2.014-1.313,3.282l1.951,4.553c0.394,0.92,1.298,1.516,2.298,1.516
					h7.514c1,0,1.904-0.596,2.298-1.515l1.951-4.552C177.824,179.68,177.236,178.21,175.967,177.666z"/>
			</g>
		</g>
		<g>
			<g>
				<path d="M175.519,184.272c-0.135-1.375-1.355-2.386-2.732-2.245c-1.374,0.135-2.379,1.357-2.245,2.731l3.346,34.198
					c0.126,1.292,1.214,2.257,2.485,2.257c0.082,0,0.164-0.004,0.247-0.012c1.374-0.135,2.379-1.357,2.245-2.731L175.519,184.272z"
					/>
			</g>
		</g>
		<g>
			<g>
				<path d="M165.76,182.027c-1.372-0.142-2.597,0.87-2.731,2.245l-2.355,24.076c-0.134,1.374,0.871,2.597,2.245,2.731
					c0.083,0.008,0.165,0.012,0.246,0.012c1.271,0,2.359-0.965,2.485-2.257l2.355-24.076
					C168.139,183.385,167.134,182.162,165.76,182.027z"/>
			</g>
		</g>
		<g>
			<g>
				<path d="M131.439,10.959L121.212,0.732c-0.976-0.977-2.56-0.977-3.535,0c-0.977,0.977-0.977,2.559,0,3.535l8.458,8.459
					l-8.458,8.458c-0.977,0.976-0.977,2.559,0,3.535c0.488,0.488,1.128,0.732,1.768,0.732s1.28-0.244,1.768-0.732l10.227-10.226
					c0.469-0.469,0.732-1.104,0.732-1.768S131.908,11.428,131.439,10.959z"/>
			</g>
		</g>
		<g>
			<g>
				<path d="M128.136,10.126c-1.888-0.328-3.822-0.495-5.75-0.495c-18.375,0-33.323,14.949-33.323,33.323
					c0,12.215,6.669,23.435,17.405,29.282c0.38,0.207,0.79,0.305,1.193,0.305c0.886,0,1.744-0.472,2.198-1.304
					c0.661-1.213,0.213-2.731-1-3.392c-9.127-4.972-14.796-14.51-14.796-24.892c0-15.617,12.706-28.323,28.323-28.323
					c1.641,0,3.287,0.142,4.893,0.421c1.364,0.238,2.655-0.675,2.892-2.034C130.407,11.657,129.497,10.362,128.136,10.126z"/>
			</g>
		</g>
		<g>
			<g>
				<path d="M122.465,72.584l8.458-8.459c0.977-0.977,0.977-2.56,0-3.535c-0.976-0.977-2.56-0.977-3.535,0l-10.226,10.227
					c-0.469,0.469-0.732,1.104-0.732,1.768s0.263,1.299,0.732,1.768l10.226,10.226c0.488,0.488,1.128,0.732,1.768,0.732
					s1.28-0.244,1.768-0.732c0.977-0.977,0.977-2.56,0-3.535L122.465,72.584z"/>
			</g>
		</g>
		<g>
			<g>
				<path d="M142.133,13.074c-1.212-0.661-2.73-0.212-3.391,0.999c-0.661,1.213-0.213,2.731,1,3.392
					c9.126,4.972,14.796,14.509,14.796,24.891c0,15.617-12.706,28.323-28.323,28.323c-1.641,0-3.287-0.142-4.893-0.421
					c-1.363-0.238-2.655,0.675-2.892,2.034c-0.237,1.36,0.674,2.655,2.034,2.892c1.888,0.328,3.822,0.495,5.75,0.495
					c18.374,0,33.323-14.949,33.323-33.323C159.537,30.142,152.868,18.922,142.133,13.074z"/>
			</g>
		</g>
		<g>
			<g>
				<g>
					<path fill="#EDF4FC" d="M174.124,219.412c-0.239-4.291-3.24-7.928-7.408-8.977l-14.285-3.595
						c-2.495-0.628-4.933-1.459-7.296-2.471c-0.036,0.431-0.211,0.853-0.541,1.183l-10.019,10.019c-0.741,0.741-1.942,0.741-2.683,0
						l-4.483-4.483c-0.419-0.419-0.592-0.984-0.538-1.53h-5.143c0.055,0.546-0.119,1.112-0.538,1.53l-4.483,4.483
						c-0.741,0.741-1.942,0.741-2.683,0l-10.019-10.019c-0.328-0.328-0.502-0.747-0.54-1.176c-2.357,1.009-4.792,1.833-7.28,2.46
						l-14.301,3.6c-4.168,1.049-7.169,4.686-7.408,8.977l-1.755,30.259c-0.12,2.078,1.532,3.829,3.613,3.829h95.93
						c2.081,0,3.734-1.751,3.613-3.829L174.124,219.412z"/>
				</g>
			</g>
			<g>
				<g>
					<path fill="#70D6F9" d="M127.409,211.087c-0.419-0.419-0.592-0.984-0.538-1.53h-5.143c0.054,0.546-0.119,1.112-0.538,1.53
						l-2.726,2.726l2.078,4.849h7.514l2.078-4.849L127.409,211.087z"/>
				</g>
			</g>
			<g>
				<g>
					<polygon fill="#70D6F9" points="128.057,218.662 120.543,218.662 117.135,253.5 131.465,253.5 					"/>
				</g>
			</g>
			<g>
				<g>
					<path fill="#EDF4FC" d="M121.191,208.404l-10.019-10.019c-0.741-0.741-1.942-0.741-2.683,0l-4.484,4.483
						c-0.741,0.741-0.741,1.942,0,2.683l10.019,10.019c0.741,0.741,1.942,0.741,2.683,0l4.483-4.483
						C121.932,210.346,121.932,209.145,121.191,208.404z"/>
				</g>
			</g>
			<g>
				<g>
					<path fill="#EDF4FC" d="M144.595,202.869l-4.483-4.483c-0.741-0.741-1.942-0.741-2.683,0l-10.019,10.019
						c-0.741,0.741-0.741,1.942,0,2.683l4.483,4.483c0.741,0.741,1.942,0.741,2.683,0l10.019-10.019
						C145.336,204.811,145.336,203.61,144.595,202.869z"/>
				</g>
			</g>
			<g>
				<g>
					<path fill="#F9D0B4" d="M135.765,194.493v-4.05c-3.437,1.799-7.336,2.824-11.464,2.824h0c-4.129,0-8.028-1.025-11.464-2.824
						v4.05c0,1.566-0.427,3.066-1.193,4.363l9.548,9.549c0.322,0.322,0.496,0.732,0.538,1.153h5.143
						c0.042-0.42,0.215-0.83,0.538-1.153l9.557-9.557C136.201,197.55,135.765,196.058,135.765,194.493z"/>
				</g>
			</g>
			<g>
				<g>
					<path fill="#F9D0B4" d="M149.181,145.825c-0.014-0.706-0.579-1.287-1.285-1.308c-10.338-0.303-15.785-4.4-17.878-6.452
						c-0.571-0.56-1.494-0.501-1.992,0.125c-9.089,11.43-22.497,9.817-27.005,8.874c-0.819-0.171-1.605,0.446-1.606,1.283
						c0,0.006,0,0.011,0,0.017v20.018c0,13.687,11.198,24.885,24.885,24.885s24.885-11.198,24.885-24.885v-22.167
						C149.185,146.084,149.184,145.955,149.181,145.825z"/>
				</g>
			</g>
			<g>
				<g>
					<path fill="#754E34" d="M143.773,119.429c-2.652,0-5.131,0.749-7.261,2.027c-2.489-4.153-7.022-6.957-12.19-6.957h-7.299
						c-14.127,0-25.686,11.559-25.686,25.686v11.509c1.778-1.422,4.029-2.278,6.482-2.278c0.544,0,1.076,0.046,1.597,0.126v-1.179
						c0-0.006,0-0.011,0-0.017c0.001-0.837,0.787-1.455,1.606-1.283c4.508,0.944,17.916,2.557,27.005-8.874
						c0.498-0.626,1.42-0.685,1.992-0.125c2.093,2.052,7.54,6.149,17.878,6.452c0.706,0.021,1.271,0.603,1.285,1.308
						c0.003,0.13,0.004,0.259,0.004,0.389v3.329c0.521-0.081,1.053-0.126,1.597-0.126c2.801,0,5.338,1.113,7.206,2.915v-18.688
						C157.988,125.826,151.591,119.429,143.773,119.429z"/>
				</g>
			</g>
			<g>
				<g>
					<path fill="#F9D0B4" d="M150.782,149.416c-0.544,0-1.076,0.046-1.597,0.127c0,2.648,0,14.902,0,18.839
						c0,0.561-0.026,1.117-0.063,1.669c0.542,0.087,1.093,0.145,1.66,0.145c5.738,0,10.39-4.652,10.39-10.39
						S156.52,149.416,150.782,149.416z"/>
				</g>
			</g>
			<g>
				<g>
					<path fill="#F9D0B4" d="M99.415,168.382c0-2.578,0-13.713,0-18.839c-0.521-0.081-1.053-0.127-1.597-0.127
						c-5.738,0-10.39,4.652-10.39,10.39s4.652,10.39,10.39,10.39c0.566,0,1.118-0.058,1.66-0.145v0
						C99.441,169.498,99.415,168.943,99.415,168.382z"/>
				</g>
			</g>
			<g>
				<g>
					<path d="M158.948,225.156c-1.381,0-2.5,1.119-2.5,2.5v24.224c0,1.381,1.119,2.5,2.5,2.5s2.5-1.119,2.5-2.5v-24.224
						C161.448,226.275,160.329,225.156,158.948,225.156z"/>
				</g>
			</g>
			<g>
				<g>
					<path d="M90.014,225.156c-1.381,0-2.5,1.119-2.5,2.5v24.224c0,1.381,1.119,2.5,2.5,2.5s2.5-1.119,2.5-2.5v-24.224
						C92.514,226.275,91.395,225.156,90.014,225.156z"/>
				</g>
			</g>
			<g>
				<g>
					<g>
						<path d="M122.958,206.636l-10.019-10.02c-1.713-1.713-4.502-1.712-6.218,0.001l-4.482,4.483
							c-0.832,0.83-1.289,1.935-1.289,3.109s0.457,2.279,1.288,3.109l10.019,10.019c0.831,0.831,1.935,1.288,3.109,1.288
							s2.279-0.457,3.109-1.288l4.482-4.482c0.832-0.83,1.289-1.935,1.289-3.109C124.247,208.57,123.789,207.466,122.958,206.636z
							 M115.366,213.376l-9.166-9.166l3.631-3.631l9.166,9.166L115.366,213.376z"/>
					</g>
				</g>
			</g>
			<g>
				<g>
					<g>
						<path d="M146.363,201.102l-4.485-4.485c-1.714-1.713-4.503-1.712-6.217,0.001l-10.019,10.019
							c-0.831,0.83-1.289,1.935-1.289,3.11c0,1.175,0.458,2.279,1.288,3.108l4.483,4.483c0.831,0.831,1.935,1.288,3.109,1.288
							s2.279-0.457,3.109-1.288l10.02-10.019c0.83-0.831,1.287-1.936,1.287-3.109C147.65,203.035,147.193,201.931,146.363,201.102z
							 M133.234,213.376l-3.631-3.631l9.166-9.166l3.631,3.631L133.234,213.376z"/>
					</g>
				</g>
			</g>
			<g>
				<g>
					<path d="M138.992,197.35c-0.476-0.887-0.727-1.874-0.727-2.856v-3.639c0-1.381-1.119-2.5-2.5-2.5s-2.5,1.119-2.5,2.5v3.639
						c0,1.804,0.457,3.608,1.321,5.22c0.451,0.841,1.314,1.318,2.205,1.318c0.399,0,0.804-0.095,1.18-0.297
						C139.187,200.082,139.645,198.566,138.992,197.35z"/>
				</g>
			</g>
			<g>
				<g>
					<path d="M126.29,207.057h-4.225c-1.381,0-2.5,1.119-2.5,2.5s1.119,2.5,2.5,2.5h4.225c1.381,0,2.5-1.119,2.5-2.5
						S127.671,207.057,126.29,207.057z"/>
				</g>
			</g>
			<g>
				<g>
					<path d="M112.836,188.572c-1.381,0-2.5,1.119-2.5,2.5v3.421c0,0.972-0.238,1.943-0.688,2.809
						c-0.638,1.225-0.162,2.734,1.063,3.372c0.369,0.191,0.764,0.283,1.153,0.283c0.902,0,1.774-0.49,2.219-1.347
						c0.82-1.575,1.254-3.345,1.254-5.117v-3.421C115.336,189.691,114.217,188.572,112.836,188.572z"/>
				</g>
			</g>
			<g>
				<g>
					<path d="M178.374,249.526l-1.754-30.254c-0.302-5.412-4.037-9.938-9.294-11.262l-14.285-3.596
						c-2.126-0.535-4.253-1.238-6.321-2.092c-1.278-0.524-2.738,0.081-3.264,1.358c-0.526,1.276,0.082,2.738,1.358,3.265
						c2.291,0.944,4.648,1.724,7.007,2.318l14.285,3.596c3.124,0.786,5.343,3.475,5.523,6.696l1.754,30.259
						c0.024,0.42-0.18,0.702-0.304,0.834c-0.124,0.131-0.394,0.351-0.814,0.351h-95.93c-0.42,0-0.69-0.22-0.814-0.351
						c-0.124-0.132-0.328-0.414-0.304-0.834l1.755-30.264c0.179-3.217,2.398-5.905,5.522-6.691l14.301-3.6
						c2.471-0.622,4.923-1.44,7.288-2.432c1.273-0.533,1.873-1.999,1.339-3.272c-0.534-1.272-2-1.87-3.272-1.339
						c-2.135,0.895-4.347,1.633-6.576,2.193l-14.301,3.6c-5.257,1.323-8.992,5.85-9.293,11.257l-1.755,30.259
						c-0.097,1.675,0.508,3.335,1.659,4.555c1.151,1.22,2.773,1.919,4.45,1.919h95.93c1.677,0,3.3-0.699,4.451-1.92
						C177.867,252.86,178.471,251.2,178.374,249.526z"/>
				</g>
			</g>
			<g>
				<g>
					<g>
						<path d="M151.681,145.775c-0.041-2.048-1.671-3.697-3.711-3.757c-9.628-0.283-14.537-4.107-16.2-5.737
							c-0.776-0.762-1.838-1.161-2.925-1.094c-1.084,0.066-2.095,0.594-2.774,1.446c0,0,0,0,0,0.001
							c-8.072,10.148-19.848,8.965-24.536,7.983c-1.137-0.238-2.307,0.045-3.209,0.776c-0.896,0.727-1.409,1.802-1.41,2.97v20.018
							c0,15.1,12.285,27.385,27.385,27.385s27.385-12.285,27.385-27.385v-22.167L151.681,145.775z M146.685,168.382
							c0,12.343-10.042,22.385-22.385,22.385s-22.385-10.042-22.385-22.385V149.77c5.435,0.871,18.139,1.489,27.278-9.071
							c2.853,2.447,8.342,5.758,17.491,6.27V168.382z"/>
					</g>
				</g>
			</g>
			<g>
				<g>
					<path d="M143.773,116.93c-2.216,0-4.413,0.452-6.46,1.32c-3.156-3.903-7.951-6.251-12.992-6.251h-7.299
						c-15.542,0-28.187,12.645-28.187,28.187v10.976c0,1.381,1.119,2.5,2.5,2.5s2.5-1.119,2.5-2.5v-10.976
						c0-12.785,10.401-23.187,23.187-23.187h7.299c4.074,0,7.923,2.2,10.045,5.742c0.341,0.568,0.894,0.979,1.537,1.14
						c0.642,0.163,1.324,0.06,1.893-0.28c1.823-1.093,3.89-1.671,5.977-1.671c6.459,0,11.714,5.255,11.714,11.715v18.198
						c0,1.381,1.119,2.5,2.5,2.5s2.5-1.119,2.5-2.5v-18.198C160.488,124.428,152.99,116.93,143.773,116.93z"/>
				</g>
			</g>
			<g>
				<g>
					<path d="M150.782,146.916c-0.36,0-0.717,0.016-1.069,0.047c-1.375,0.119-2.394,1.331-2.274,2.706
						c0.12,1.377,1.323,2.41,2.707,2.274c0.21-0.018,0.422-0.027,0.637-0.027c4.351,0,7.89,3.539,7.89,7.89s-3.539,7.89-7.89,7.89
						c-0.238,0-0.473-0.014-0.704-0.038c-1.37-0.151-2.603,0.854-2.747,2.227s0.853,2.603,2.226,2.746
						c0.403,0.042,0.811,0.065,1.225,0.065c7.107,0,12.89-5.782,12.89-12.89S157.889,146.916,150.782,146.916z"/>
				</g>
			</g>
			<g>
				<g>
					<path d="M98.418,167.668c-0.198,0.017-0.397,0.027-0.6,0.027c-4.351,0-7.89-3.539-7.89-7.89s3.539-7.89,7.89-7.89
						c0.205,0,0.408,0.009,0.608,0.025c1.374,0.11,2.584-0.908,2.699-2.283c0.115-1.376-0.907-2.584-2.283-2.699
						c-0.337-0.028-0.679-0.043-1.024-0.043c-7.107,0-12.89,5.782-12.89,12.89s5.782,12.89,12.89,12.89
						c0.349,0,0.693-0.017,1.034-0.047c1.375-0.119,2.394-1.332,2.274-2.707C101.005,168.566,99.793,167.531,98.418,167.668z"/>
				</g>
			</g>
			<g>
				<g>
					<g>
						<path d="M131.903,212.046l-2.532-2.532c-0.01-0.603-0.238-1.185-0.646-1.636c-0.474-0.522-1.147-0.821-1.853-0.821h-5.143
							c-0.707,0-1.38,0.299-1.854,0.822c-0.408,0.451-0.636,1.033-0.646,1.635l-2.532,2.532c-0.723,0.723-0.933,1.813-0.53,2.752
							l2.078,4.849c0.394,0.92,1.298,1.516,2.298,1.516h7.514c1,0,1.904-0.596,2.298-1.516l2.078-4.849
							C132.836,213.858,132.626,212.769,131.903,212.046z M126.409,216.162h-4.217l-0.762-1.778l1.527-1.527
							c0.245-0.243,0.456-0.512,0.633-0.8h1.42c0.177,0.287,0.388,0.555,0.631,0.798l1.53,1.529L126.409,216.162z"/>
					</g>
				</g>
			</g>
			<g>
				<g>
					<g>
						<path d="M130.545,218.419c-0.125-1.28-1.202-2.257-2.488-2.257h-7.514c-1.287,0-2.363,0.977-2.488,2.257l-3.408,34.838
							c-0.068,0.702,0.163,1.4,0.636,1.923c0.474,0.522,1.146,0.82,1.852,0.82h14.33c0.706,0,1.378-0.298,1.852-0.82
							c0.474-0.522,0.705-1.221,0.636-1.923L130.545,218.419z M119.892,251l2.919-29.838h2.979L128.709,251H119.892z"/>
					</g>
				</g>
			</g>
		</g>
	</g>
</g>
<g id="Layer_57">
</g>
<g id="Layer_58">
</g>
<g id="Layer_59">
</g>
<g id="Layer_60">
</g>
<g id="Layer_61">
</g>
<g id="Layer_62">
</g>
<g id="Layer_63">
</g>
<g id="Layer_64">
</g>
<g id="Layer_65">
</g>
<g id="Layer_66">
</g>
<g id="Layer_67">
</g>
<g id="Layer_68">
</g>
<g id="Layer_69">
</g>
<g id="Layer_70">
</g>
<g id="Layer_71">
</g>
<g id="Layer_72">
</g>
<g id="Layer_73">
</g>
<g id="Layer_74">
</g>
<g id="Layer_75">
</g>
<g id="Layer_76">
</g>
<g id="Layer_77">
</g>
<g id="Layer_78">
</g>
<g id="Layer_79">
</g>
<g id="Layer_80">
</g>
<g id="Layer_81">
</g>
<g id="Layer_82">
</g>
<g id="Layer_83">
</g>
<g id="Layer_84">
</g>
<g id="Layer_85">
</g>
<g id="Layer_86">
</g>
<g id="Layer_87">
</g>
<g id="Layer_88">
</g>
<g id="Layer_89">
</g>
<g id="Layer_90">
</g>
</svg>
