<svg xmlns="http://www.w3.org/2000/svg" viewBox="0 0 64 64"><g id="_16-Search" data-name="16-Search"><path d="M47.5,45.5l-2,2L41,43l-.06-.07a23.356,23.356,0,0,0,1.99-1.99L43,41Z" style="fill:#707788"/><polygon points="51.5 46.5 46.5 51.5 44 49 45.5 47.5 47.5 45.5 49 44 51.5 46.5" style="fill:#bfbfdd"/><polygon points="49 44 47.5 45.5 48.5 46.5 45 50 46.5 51.5 51.5 46.5 49 44" style="fill:#aeacd5"/><rect x="51.214" y="46.618" width="7.071" height="16.263" transform="translate(-22.678 54.75) rotate(-45)" style="fill:#7f709a"/><path d="M51.5,46.5,50,48l6.5,6.5a4.95,4.95,0,0,1,0,7h0L58,63l5-5Z" style="fill:#6b5c83"/><path d="M9.81,38H40.19A19.981,19.981,0,0,1,9.81,38Z" style="fill:#bfbfdd"/><path d="M37.19,38A19.9,19.9,0,0,1,23.5,44.938c.5.036,1,.062,1.5.062a19.909,19.909,0,0,0,15.19-7Z" style="fill:#aeacd5"/><path d="M54.14,12.75a2.341,2.341,0,0,1,0,3.63L50,20l-4.14-3.62a2.341,2.341,0,0,1,0-3.63,3.232,3.232,0,0,1,4.14,0A3.232,3.232,0,0,1,54.14,12.75Z" style="fill:#ea5073"/><path d="M54.14,12.75a3.231,3.231,0,0,0-3.07-.589,2.974,2.974,0,0,1,1.07.589,2.341,2.341,0,0,1,0,3.63L49,19.126,50,20l4.14-3.62A2.341,2.341,0,0,0,54.14,12.75Z" style="fill:#d83a5c"/><path d="M63,9V23a2.006,2.006,0,0,1-2,2H55l-3,3V25H39a2.006,2.006,0,0,1-2-2V9a2.006,2.006,0,0,1,2-2H61A2.006,2.006,0,0,1,63,9Zm-8.86,7.38a2.341,2.341,0,0,0,0-3.63,3.232,3.232,0,0,0-4.14,0,3.232,3.232,0,0,0-4.14,0,2.341,2.341,0,0,0,0,3.63L50,20Z" style="fill:#fbdbe0"/><path d="M49,12.179a2.971,2.971,0,0,1,1,.571,2.974,2.974,0,0,1,1.07-.589A3.336,3.336,0,0,0,49,12.179Z" style="fill:#fcacbc"/><path d="M46.93,12.161a3.231,3.231,0,0,0-3.07.589,2.341,2.341,0,0,0,0,3.63L48,20l1-.874L45.86,16.38a2.341,2.341,0,0,1,0-3.63A2.974,2.974,0,0,1,46.93,12.161Z" style="fill:#fcacbc"/><path d="M61,7H59a2.006,2.006,0,0,1,2,2V23a2.006,2.006,0,0,1-2,2h2a2.006,2.006,0,0,0,2-2V9A2.006,2.006,0,0,0,61,7Z" style="fill:#fcacbc"/><path d="M45,25h4a23.881,23.881,0,0,1-6.07,15.94,23.356,23.356,0,0,1-1.99,1.99A24,24,0,1,1,40.86,7H39a2.006,2.006,0,0,0-2,2,19.988,19.988,0,1,0,8,16Z" style="fill:#9891c3"/><path d="M39,25h6a19.906,19.906,0,0,1-4.81,13H9.81A20,20,0,0,1,37,9V23A2.006,2.006,0,0,0,39,25Z" style="fill:#99e8fe"/><path d="M34,9V23a2.006,2.006,0,0,0,2,2h3a2.006,2.006,0,0,1-2-2V9A19.917,19.917,0,0,0,25,5c-.456,0-.9.038-1.349.068A19.9,19.9,0,0,1,34,9Z" style="fill:#2ed0fa"/><path d="M42,25a19.906,19.906,0,0,1-4.81,13h3A19.906,19.906,0,0,0,45,25Z" style="fill:#2ed0fa"/><path d="M32,16s0,6,2,9c0,0-4.39,0-5.77-1.65A3.915,3.915,0,0,0,29,21V17c-6,0-6-2-6-2a1.959,1.959,0,0,1-2,2v4a3.915,3.915,0,0,0,.77,2.35C20.39,25,16,25,16,25c2-3,2-9,2-9a7,7,0,0,1,14,0Z" style="fill:#966857"/><path d="M18,18a7,7,0,0,1,14,0,25.6,25.6,0,0,0,1.042,6.957C33.614,25,34,25,34,25c-2-3-2-9-2-9a7,7,0,0,0-14,0s0,6-2,9c0,0,.386,0,.958-.043A25.6,25.6,0,0,0,18,18Z" style="fill:#8d5c4d"/><path d="M28.23,23.35A3.856,3.856,0,0,1,27,24.46a3.974,3.974,0,0,1-4,0,4.225,4.225,0,0,1-.83-.63,3.637,3.637,0,0,1-.4-.48A3.915,3.915,0,0,1,21,21V17a1.959,1.959,0,0,0,2-2s0,2,6,2v4A3.915,3.915,0,0,1,28.23,23.35Z" style="fill:#ffcdbe"/><path d="M23,15a1.959,1.959,0,0,1-2,2v2a1.959,1.959,0,0,0,2-2s0,2,6,2V17C23,17,23,15,23,15Z" style="fill:#ffbeaa"/><path d="M35,38H31c0-2,1-2,1-4a4.38,4.38,0,0,0-1-3l3-2A55.273,55.273,0,0,1,35,38Z" style="fill:#faa68e"/><path d="M34,29l-3,2a4.38,4.38,0,0,1,1,3c0,2-1,2-1,4H19c0-2-1-2-1-4a4.38,4.38,0,0,1,1-3l-3-2c2-2,7-2,7-2l2,2,2-2S32,27,34,29Z" style="fill:#ea5073"/><path d="M27,24.46V27l-2,2-2-2V24.46a3.974,3.974,0,0,0,4,0Z" style="fill:#faa68e"/><path d="M16,29l3,2a4.38,4.38,0,0,0-1,3c0,2,1,2,1,4H15A55.273,55.273,0,0,1,16,29Z" style="fill:#faa68e"/><path d="M25,50A25,25,0,1,1,41.521,6.25L40.2,7.75A22.991,22.991,0,1,0,48,25h2A25.028,25.028,0,0,1,25,50Z"/><path d="M25,46A21,21,0,1,1,37.6,8.2L36.4,9.8A19,19,0,1,0,44,25h2A21.024,21.024,0,0,1,25,46Z"/><path d="M58,64a1,1,0,0,1-.707-.293l-14-14a1,1,0,0,1,0-1.414l5-5a1,1,0,0,1,1.414,0l14,14a1,1,0,0,1,0,1.414l-5,5A1,1,0,0,1,58,64ZM45.414,49,58,61.586,61.586,58,49,45.414Z"/><rect x="42.5" y="41.964" width="2" height="7.071" transform="translate(-19.433 44.086) rotate(-45)"/><rect x="44.5" y="39.964" width="2" height="7.071" transform="translate(-17.433 44.914) rotate(-45)"/><rect x="44.757" y="48" width="8.485" height="2" transform="translate(-20.296 49) rotate(-45)"/><path d="M25,26a5.006,5.006,0,0,1-5-5V17a1,1,0,0,1,1-1,.915.915,0,0,0,1-1,1,1,0,0,1,1.991-.129C24.068,15,24.806,16,29,16a1,1,0,0,1,1,1v4A5.006,5.006,0,0,1,25,26Zm-3-8.167V21a3,3,0,0,0,6,0V17.98a10.083,10.083,0,0,1-4.654-1.035A2.972,2.972,0,0,1,22,17.833ZM24,15h0Zm0,0h0Zm0,0h0Z"/><path d="M34,26c-.938,0-5.68-.123-6.895-2.553l1.79-.894c.352.7,1.914,1.141,3.421,1.333A25.141,25.141,0,0,1,31,16a6,6,0,0,0-12,0,25.141,25.141,0,0,1-1.316,7.886c1.507-.192,3.069-.629,3.421-1.333l1.79.894C21.68,25.877,16.938,26,16,26a1,1,0,0,1-.832-1.555C16.975,21.735,17,16.057,17,16a8,8,0,0,1,16,0c0,.057.025,5.735,1.832,8.445A1,1,0,0,1,34,26Z"/><path d="M35,39H15a1,1,0,0,1-1-1,55.524,55.524,0,0,1,1.02-9.2,1,1,0,0,1,.273-.511c1.713-1.713,5.018-2.147,6.707-2.256V24h2v3a1,1,0,0,1-1,1c-1.218,0-4.562.283-6.081,1.516A57.294,57.294,0,0,0,16.02,37H33.98a57.294,57.294,0,0,0-.9-7.484C31.561,28.283,28.217,28,27,28a1,1,0,0,1-1-1V24h2v2.037c1.689.109,4.994.543,6.707,2.256a1,1,0,0,1,.273.511A55.524,55.524,0,0,1,36,38,1,1,0,0,1,35,39Z"/><path d="M25,30a1,1,0,0,1-.707-.293l-2-2,1.414-1.414L25,27.586l1.293-1.293,1.414,1.414-2,2A1,1,0,0,1,25,30Z"/><path d="M20,38H18a2.89,2.89,0,0,0-.395-1.553A4.868,4.868,0,0,1,17,34a5.969,5.969,0,0,1,.615-2.721l-2.17-1.447,1.11-1.664,3,2a1,1,0,0,1,.152,1.539A3.478,3.478,0,0,0,19,34a2.89,2.89,0,0,0,.395,1.553A4.868,4.868,0,0,1,20,38Z"/><path d="M32,38H30a4.868,4.868,0,0,1,.605-2.447A2.89,2.89,0,0,0,31,34a3.452,3.452,0,0,0-.719-2.3,1.02,1.02,0,0,1-.268-.805,1.006,1.006,0,0,1,.432-.723l3-2,1.11,1.664-2.17,1.447A5.969,5.969,0,0,1,33,34a4.868,4.868,0,0,1-.6,2.447A2.89,2.89,0,0,0,32,38Z"/><rect x="9.81" y="37" width="30.381" height="2"/><path d="M50,21a1,1,0,0,1-.658-.248L45.2,17.128a3.343,3.343,0,0,1,0-5.13,4.226,4.226,0,0,1,4.8-.467A4.225,4.225,0,0,1,54.8,12h0a3.343,3.343,0,0,1,0,5.13l-4.143,3.624A1,1,0,0,1,50,21Zm-2.071-8a2.148,2.148,0,0,0-1.413.5,1.347,1.347,0,0,0,0,2.12L50,18.671l3.484-3.048a1.347,1.347,0,0,0,0-2.12,2.242,2.242,0,0,0-2.826,0,1,1,0,0,1-1.316,0A2.15,2.15,0,0,0,47.929,13Z"/><path d="M52,29a1,1,0,0,1-1-1V26H39a3,3,0,0,1-3-3V9a3,3,0,0,1,3-3H61a3,3,0,0,1,3,3V23a3,3,0,0,1-3,3H55.414l-2.707,2.707A1,1,0,0,1,52,29ZM39,8a1,1,0,0,0-1,1V23a1,1,0,0,0,1,1H52a1,1,0,0,1,1,1v.586l1.293-1.293A1,1,0,0,1,55,24h6a1,1,0,0,0,1-1V9a1,1,0,0,0-1-1Z"/></g></svg>