<?xml version="1.0" encoding="utf-8"?>
<!-- Generator: Adobe Illustrator 24.0.0, SVG Export Plug-In . SVG Version: 6.00 Build 0)  -->
<svg version="1.1" xmlns="http://www.w3.org/2000/svg" xmlns:xlink="http://www.w3.org/1999/xlink" x="0px" y="0px"
	 viewBox="0 0 256 256" enable-background="new 0 0 256 256" xml:space="preserve">
<g id="Layer_1">
</g>
<g id="Layer_2">
</g>
<g id="Layer_3">
</g>
<g id="Layer_4">
</g>
<g id="Layer_5">
</g>
<g id="Layer_6">
</g>
<g id="Layer_7">
</g>
<g id="Layer_8">
</g>
<g id="Layer_9">
</g>
<g id="Layer_10">
</g>
<g id="Layer_11">
</g>
<g id="Layer_12">
</g>
<g id="Layer_13">
</g>
<g id="Layer_14">
</g>
<g id="Layer_15">
</g>
<g id="Layer_16">
</g>
<g id="Layer_17">
</g>
<g id="Layer_18">
</g>
<g id="Layer_19">
</g>
<g id="Layer_20">
</g>
<g id="Layer_21">
</g>
<g id="Layer_22">
</g>
<g id="Layer_23">
</g>
<g id="Layer_24">
</g>
<g id="Layer_25">
</g>
<g id="Layer_26">
</g>
<g id="Layer_27">
</g>
<g id="Layer_28">
</g>
<g id="Layer_29">
</g>
<g id="Layer_30">
</g>
<g id="Layer_31">
</g>
<g id="Layer_32">
</g>
<g id="Layer_33">
</g>
<g id="Layer_34">
</g>
<g id="Layer_35">
</g>
<g id="Layer_36">
</g>
<g id="Layer_37">
</g>
<g id="Layer_38">
</g>
<g id="Layer_39">
</g>
<g id="Layer_40">
</g>
<g id="Layer_41">
</g>
<g id="Layer_42">
</g>
<g id="Layer_43">
</g>
<g id="Layer_44">
</g>
<g id="Layer_45">
</g>
<g id="Layer_46">
</g>
<g id="Layer_47">
</g>
<g id="Layer_48">
</g>
<g id="Layer_49">
</g>
<g id="Layer_50">
</g>
<g id="Layer_51">
</g>
<g id="Layer_52">
</g>
<g id="Layer_53">
</g>
<g id="Layer_54">
</g>
<g id="Layer_55">
</g>
<g id="Layer_56">
</g>
<g id="Layer_57">
</g>
<g id="Layer_58">
</g>
<g id="Layer_59">
</g>
<g id="Layer_60">
</g>
<g id="Layer_61">
</g>
<g id="Layer_62">
</g>
<g id="Layer_63">
</g>
<g id="Layer_64">
</g>
<g id="Layer_65">
	<g>
		<g>
			<g>
				<path fill="#DAE6F1" d="M125.482,169.591c0-1.585,1.285-2.869,2.87-2.869h6.082c-2.245,0-4.066-1.82-4.066-4.066v-36.184h-5.406
					c0.064,0.646-0.141,1.313-0.635,1.808l-5.297,5.297c-0.875,0.875-2.295,0.875-3.17,0l-9.956-9.956L116.8,178.39h17.481
					C129.421,178.39,125.482,174.451,125.482,169.591z"/>
			</g>
		</g>
		<g>
			<g>
				<path fill="#3A70BF" d="M98.76,153.163c-0.163-0.415-0.113-0.884,0.135-1.255l2.872-4.309c0.408-0.613,0.257-1.439-0.342-1.866
					l-5.329-3.806c-0.372-0.266-0.587-0.701-0.57-1.158l0.639-17.888c-0.46,0.128-0.919,0.261-1.382,0.377l-16.897,4.253
					c-4.924,1.24-8.47,5.537-8.752,10.606l-2.336,40.274h41.868L98.76,153.163z"/>
			</g>
		</g>
		<g>
			<g>
				<path fill="#5290DB" d="M105.904,123.621l-1.881-1.881c-0.388-0.388-0.594-0.883-0.638-1.389
					c-2.346,1.004-4.76,1.844-7.219,2.529l-0.639,17.888c-0.016,0.457,0.198,0.892,0.57,1.158l5.329,3.806
					c0.599,0.428,0.75,1.254,0.342,1.866l-2.872,4.309c-0.248,0.371-0.298,0.84-0.135,1.255l9.906,25.228h8.133L105.904,123.621z"/>
			</g>
		</g>
		<g>
			<g>
				<path fill="#FC657E" d="M124.962,126.472c0.064,0.646-0.141,1.313-0.635,1.808l-4.439,4.439L120,133l4,6h6.367v-12.528H124.962z
					"/>
			</g>
		</g>
		<g>
			<g>
				<path fill="#FC657E" d="M125.482,169.591c0-1.585,1.285-2.869,2.87-2.869h6.082c-2.245,0-4.066-1.82-4.066-4.066V139H124
					l-7.2,39.39h17.481C129.421,178.39,125.482,174.451,125.482,169.591z"/>
			</g>
		</g>
		<g>
			<g>
				<path d="M129.688,136.5h-4.351l-3.258-4.887c-0.765-1.148-2.319-1.458-3.467-0.693c-1.148,0.766-1.459,2.318-0.693,3.467l4,6
					c0.464,0.695,1.244,1.113,2.08,1.113h5.688c1.381,0,2.5-1.119,2.5-2.5S131.069,136.5,129.688,136.5z"/>
			</g>
		</g>
		<g>
			<g>
				<path d="M124.42,136.704c-1.351-0.25-2.66,0.651-2.908,2.01l-7.041,38.518c-0.249,1.357,0.651,2.66,2.01,2.908
					c0.151,0.028,0.303,0.041,0.452,0.041c1.184,0,2.235-0.845,2.456-2.051l7.041-38.518
					C126.679,138.255,125.778,136.952,124.42,136.704z"/>
			</g>
		</g>
		<g>
			<g>
				<path fill="#AD7753" d="M236.195,178.39H19.805c-3.758,0-6.805,3.047-6.805,6.805c0,3.758,3.047,6.805,6.805,6.805h216.391
					c3.758,0,6.805-3.047,6.805-6.805v0C243,181.437,239.953,178.39,236.195,178.39z"/>
			</g>
		</g>
		<g>
			<g>
				<path fill="#8E6244" d="M20.527,192c0.283,5.822,5.119,10.5,11.007,10.5h192.931c5.889,0,10.724-4.678,11.007-10.5H20.527z"/>
			</g>
		</g>
		<g>
			<g>
				<path fill="#8E6244" d="M224.465,202.5H31.535c-0.435,0-0.862-0.033-1.285-0.083v47.523c0,1.966,1.594,3.56,3.56,3.56h188.38
					c1.966,0,3.56-1.594,3.56-3.56v-47.523C225.328,202.467,224.901,202.5,224.465,202.5z"/>
			</g>
		</g>
		<g>
			<g>
				<path fill="#EDF4FC" d="M124.327,125.11l-11.837-11.837c-0.875-0.875-2.295-0.875-3.17,0l-5.297,5.297
					c-0.875,0.875-0.875,2.295,0,3.17l11.837,11.837c0.875,0.875,2.295,0.875,3.17,0l5.297-5.297
					C125.202,127.405,125.202,125.985,124.327,125.11z"/>
			</g>
		</g>
		<g>
			<g>
				<path fill="#F9D0B4" d="M128,107.225c-4.878,0-9.485-1.211-13.545-3.336v4.785c0,1.85-0.505,3.622-1.41,5.155l11.281,11.281
					c0.381,0.381,0.585,0.865,0.635,1.362h5.406v-19.354C129.585,107.181,128.798,107.225,128,107.225z"/>
			</g>
		</g>
		<g>
			<g>
				<path fill="#F9D0B4" d="M157.396,51.174c-0.017-0.834-0.684-1.521-1.518-1.546c-12.214-0.358-18.65-5.199-21.123-7.623
					c-0.675-0.662-1.765-0.592-2.353,0.148c-10.739,13.505-26.58,11.599-31.907,10.484c-0.968-0.203-1.897,0.527-1.897,1.516v23.671
					c0,16.171,13.23,29.401,29.401,29.401c0.797,0,1.585-0.042,2.367-0.104v-0.822c0-2.246,1.82-4.066,4.066-4.066h9.903
					c7.864-5.291,13.065-14.271,13.065-24.409v-26.19C157.401,51.48,157.4,51.327,157.396,51.174z"/>
			</g>
		</g>
		<g>
			<g>
				<path fill="#754E34" d="M151.007,19.987c-3.133,0-6.062,0.885-8.579,2.395c-2.94-4.907-8.297-8.22-14.403-8.22h-8.624
					c-16.691,0-30.348,13.657-30.348,30.348v13.598c2.1-1.681,4.76-2.691,7.659-2.691c0.642,0,1.271,0.054,1.887,0.149v-1.413
					c0.001-0.989,0.929-1.719,1.897-1.516c5.326,1.115,21.168,3.021,31.907-10.484c0.588-0.74,1.678-0.81,2.353-0.148
					c2.473,2.424,8.908,7.265,21.123,7.623c0.834,0.025,1.501,0.712,1.518,1.546c0.003,0.153,0.005,0.306,0.005,0.46v3.933
					c0.615-0.095,1.245-0.149,1.887-0.149c3.309,0,6.306,1.315,8.514,3.444V36.781C167.802,27.544,160.244,19.987,151.007,19.987z"
					/>
			</g>
		</g>
		<g>
			<g>
				<path fill="#F9D0B4" d="M159.288,55.416c-0.642,0-1.271,0.054-1.887,0.15v22.258c0,0.663-0.03,1.319-0.074,1.972
					c0.64,0.103,1.292,0.171,1.961,0.171c6.779,0,12.275-5.496,12.275-12.275C171.563,60.912,166.067,55.416,159.288,55.416z"/>
			</g>
		</g>
		<g>
			<g>
				<path fill="#F9D0B4" d="M98.599,77.824V55.566c-0.615-0.095-1.245-0.15-1.887-0.15c-6.779,0-12.275,5.496-12.275,12.275
					c0,6.779,5.496,12.275,12.275,12.275c0.669,0,1.321-0.068,1.961-0.171v0C98.629,79.143,98.599,78.487,98.599,77.824z"/>
			</g>
		</g>
		<g>
			<g>
				<path d="M138.397,82.883c-1.057-0.887-2.636-0.747-3.521,0.311c-1.322,1.577-3.584,2.52-6.05,2.52s-4.728-0.942-6.05-2.521
					c-0.89-1.06-2.464-1.196-3.522-0.31c-1.058,0.887-1.196,2.464-0.31,3.522c2.262,2.697,5.956,4.308,9.882,4.308
					c3.928,0,7.622-1.61,9.882-4.309C139.595,85.346,139.456,83.77,138.397,82.883z"/>
			</g>
		</g>
		<g>
			<g>
				<path d="M141.026,65.495c-2.072,0-3.752,1.68-3.752,3.752s1.68,3.752,3.752,3.752c2.072,0,3.752-1.68,3.752-3.752
					S143.098,65.495,141.026,65.495z"/>
			</g>
		</g>
		<g>
			<g>
				<path d="M115.829,65.495c-2.072,0-3.752,1.68-3.752,3.752s1.68,3.752,3.752,3.752s3.752-1.68,3.752-3.752
					S117.901,65.495,115.829,65.495z"/>
			</g>
		</g>
		<g>
			<g>
				<path d="M87.491,145.356c-1.381,0-2.5,1.119-2.5,2.5v28.62c0,1.381,1.119,2.5,2.5,2.5s2.5-1.119,2.5-2.5v-28.62
					C89.991,146.476,88.872,145.356,87.491,145.356z"/>
			</g>
		</g>
		<g>
			<g>
				<g>
					<path d="M126.093,123.342l-11.836-11.837c-0.896-0.896-2.086-1.389-3.353-1.389s-2.457,0.493-3.353,1.389l-5.297,5.297
						c-1.85,1.849-1.85,4.857,0,6.706l11.837,11.837c0.896,0.896,2.086,1.389,3.353,1.389s2.457-0.493,3.353-1.389l5.297-5.297
						c0.896-0.896,1.39-2.087,1.39-3.353C127.483,125.428,126.989,124.237,126.093,123.342z M117.444,131.627l-11.472-11.473
						l4.932-4.932l11.472,11.473L117.444,131.627z"/>
				</g>
			</g>
		</g>
		<g>
			<g>
				<path d="M129.351,123.972h-3.991c-1.381,0-2.5,1.119-2.5,2.5s1.119,2.5,2.5,2.5h3.991c1.381,0,2.5-1.119,2.5-2.5
					S130.731,123.972,129.351,123.972z"/>
			</g>
		</g>
		<g>
			<g>
				<path d="M114.455,102.133c-1.381,0-2.5,1.119-2.5,2.5v4.041c0,1.222-0.299,2.441-0.865,3.528
					c-0.638,1.225-0.161,2.734,1.063,3.372c0.369,0.191,0.764,0.283,1.152,0.283c0.902,0,1.773-0.49,2.22-1.347
					c0.936-1.797,1.43-3.815,1.43-5.837v-4.041C116.955,103.252,115.836,102.133,114.455,102.133z"/>
			</g>
		</g>
		<g>
			<g>
				<path d="M105.279,119.559c-0.534-1.274-2-1.877-3.271-1.34c-2.545,1.065-5.181,1.945-7.835,2.613l-16.897,4.253
					c-6.018,1.515-10.293,6.696-10.638,12.887l-2.296,39.592c-0.08,1.378,0.973,2.561,2.352,2.641
					c0.049,0.003,0.098,0.004,0.146,0.004c1.314,0,2.417-1.026,2.494-2.355l2.296-39.598c0.223-3.999,2.982-7.343,6.866-8.32
					l16.897-4.254c2.896-0.729,5.771-1.688,8.546-2.851C105.213,122.297,105.813,120.832,105.279,119.559z"/>
			</g>
		</g>
		<g>
			<g>
				<path d="M159.896,51.124c-0.043-2.177-1.775-3.932-3.943-3.995c-11.535-0.338-17.442-4.944-19.446-6.91
					c-0.827-0.81-1.966-1.242-3.112-1.16c-1.153,0.071-2.228,0.633-2.947,1.539c-9.696,12.191-23.817,10.768-29.439,9.592
					c-1.204-0.252-2.451,0.048-3.411,0.828c-0.95,0.771-1.496,1.914-1.497,3.155v23.651c0,17.59,14.311,31.9,31.901,31.9
					c0.521,0,1.039-0.013,1.554-0.037c1.379-0.065,2.444-1.235,2.379-2.615c-0.065-1.379-1.257-2.443-2.615-2.379
					c-0.437,0.021-0.876,0.031-1.317,0.031c-14.833,0-26.901-12.067-26.901-26.9V55.297c6.061,1.061,21.656,2.205,32.637-10.824
					c3.253,2.905,9.842,7.085,21.166,7.619v25.732c0,8.731-4.305,16.967-11.514,22.03c-1.13,0.794-1.403,2.353-0.609,3.482
					c0.794,1.131,2.354,1.403,3.482,0.609c8.541-5.998,13.641-15.764,13.641-26.122v-26.19L159.896,51.124z"/>
			</g>
		</g>
		<g>
			<g>
				<path d="M151.007,17.487c-2.672,0-5.319,0.569-7.771,1.661c-3.639-4.667-9.277-7.486-15.211-7.486h-8.624
					c-18.112,0-32.848,14.735-32.848,32.848v12.969c0,1.381,1.119,2.5,2.5,2.5s2.5-1.119,2.5-2.5V44.51
					c0-15.355,12.492-27.848,27.848-27.848h8.624c4.972,0,9.669,2.684,12.258,7.005c0.341,0.568,0.894,0.979,1.537,1.14
					c0.642,0.162,1.324,0.061,1.894-0.281c2.224-1.333,4.745-2.038,7.293-2.038c7.882,0,14.295,6.412,14.295,14.294v21.502
					c0,1.381,1.119,2.5,2.5,2.5s2.5-1.119,2.5-2.5V36.781C170.302,26.143,161.646,17.487,151.007,17.487z"/>
			</g>
		</g>
		<g>
			<g>
				<path d="M159.288,52.916c-0.411,0-0.818,0.019-1.221,0.053c-1.375,0.117-2.396,1.328-2.278,2.704
					c0.117,1.375,1.327,2.387,2.704,2.278c0.262-0.022,0.526-0.035,0.795-0.035c5.391,0,9.775,4.385,9.775,9.775
					s-4.385,9.775-9.775,9.775c-0.298,0-0.591-0.018-0.881-0.048c-1.37-0.15-2.602,0.854-2.745,2.228
					c-0.144,1.373,0.854,2.603,2.228,2.745c0.484,0.051,0.941,0.075,1.398,0.075c8.147,0,14.775-6.628,14.775-14.775
					S167.436,52.916,159.288,52.916z"/>
			</g>
		</g>
		<g>
			<g>
				<path d="M97.454,77.432c-0.244,0.021-0.491,0.035-0.742,0.035c-5.391,0-9.775-4.385-9.775-9.775s4.385-9.775,9.775-9.775
					c0.258,0,0.514,0.012,0.766,0.032c1.391,0.106,2.582-0.917,2.691-2.293c0.109-1.377-0.917-2.581-2.293-2.691
					c-0.385-0.03-0.771-0.048-1.164-0.048c-8.147,0-14.775,6.628-14.775,14.775s6.628,14.775,14.775,14.775
					c0.401,0,0.797-0.02,1.188-0.055c1.375-0.123,2.391-1.337,2.268-2.713C100.043,78.324,98.838,77.301,97.454,77.432z"/>
			</g>
		</g>
		<g>
			<g>
				<path fill="#EDF4FC" d="M208.379,102.232h-73.946c-2.245,0-4.066,1.82-4.066,4.066v56.358c0,2.246,1.82,4.066,4.066,4.066
					h73.946c2.245,0,4.066-1.82,4.066-4.066v-56.358C212.445,104.053,210.624,102.232,208.379,102.232z"/>
			</g>
		</g>
		<g>
			<g>
				<path fill="#DAE6F1" d="M214.461,166.722h-86.109c-1.585,0-2.87,1.285-2.87,2.869c0,4.86,3.939,8.799,8.799,8.799h74.25
					c4.86,0,8.799-3.939,8.799-8.799C217.33,168.007,216.046,166.722,214.461,166.722z"/>
			</g>
		</g>
		<g>
			<g>
				<path d="M178.246,131.978h-13.68c-1.381,0-2.5,1.119-2.5,2.5s1.119,2.5,2.5,2.5h13.68c1.381,0,2.5-1.119,2.5-2.5
					S179.627,131.978,178.246,131.978z"/>
			</g>
		</g>
		<g>
			<g>
				<g>
					<path d="M208.379,99.732h-73.945c-3.621,0-6.566,2.945-6.566,6.566v56.357c0,3.62,2.945,6.565,6.566,6.565h73.945
						c3.62,0,6.565-2.945,6.565-6.565v-56.357C214.944,102.678,211.999,99.732,208.379,99.732z M209.944,162.656
						c0,0.863-0.702,1.565-1.565,1.565h-73.945c-0.863,0-1.566-0.702-1.566-1.565v-56.357c0-0.863,0.703-1.566,1.566-1.566h73.945
						c0.863,0,1.565,0.703,1.565,1.566V162.656z"/>
				</g>
			</g>
		</g>
		<g>
			<g>
				<g>
					<path d="M214.461,164.222h-86.109c-2.961,0-5.37,2.409-5.37,5.37c0,6.23,5.068,11.299,11.299,11.299h74.251
						c6.23,0,11.299-5.068,11.299-11.299C219.83,166.631,217.422,164.222,214.461,164.222z M208.531,175.891H134.28
						c-3.474,0-6.299-2.825-6.299-6.299c0-0.204,0.166-0.37,0.37-0.37h86.109c0.203,0,0.369,0.166,0.369,0.37
						C214.83,173.065,212.005,175.891,208.531,175.891z"/>
				</g>
			</g>
		</g>
		<g>
			<g>
				<path fill="#F5C84C" d="M60.104,127.396c-4.5-0.8-8-4.3-8.9-8.7c0-0.2-0.4-0.2-0.4,0c-0.9,4.4-4.4,7.9-8.9,8.7
					c-0.2,0-0.2,0.3,0,0.4c4.5,0.8,8,4.3,8.9,8.7c0,0.2,0.4,0.2,0.4,0c0.9-4.4,4.4-7.9,8.9-8.7
					C60.304,127.697,60.304,127.396,60.104,127.396z"/>
			</g>
		</g>
		<g>
			<g>
				<path fill="#70D6F9" d="M196.665,80.21c-3.157-0.561-5.613-3.017-6.245-6.104c0-0.14-0.281-0.14-0.281,0
					c-0.631,3.087-3.087,5.543-6.245,6.104c-0.14,0-0.14,0.21,0,0.281c3.157,0.562,5.613,3.017,6.245,6.104
					c0,0.14,0.281,0.14,0.281,0c0.632-3.087,3.087-5.543,6.245-6.104C196.805,80.42,196.805,80.21,196.665,80.21z"/>
			</g>
		</g>
		<g>
			<g>
				<path fill="#87D147" d="M192.754,16.646h-2.3v-2.3c0-1.7-1.4-3.2-3.2-3.2s-3.2,1.4-3.2,3.2v2.3h-2.3c-1.7,0-3.2,1.4-3.2,3.2
					c0,1.8,1.4,3.2,3.2,3.2h2.3v2.3c0,1.7,1.4,3.2,3.2,3.2s3.2-1.4,3.2-3.2v-2.3h2.3c1.7,0,3.2-1.4,3.2-3.2
					C195.954,18.047,194.554,16.646,192.754,16.646z"/>
			</g>
		</g>
		<g>
			<g>
				<path fill="#FC657E" d="M41.904,151c-1.878,0-3.4,1.522-3.4,3.4c0,1.878,1.522,3.4,3.4,3.4s3.4-1.522,3.4-3.4
					C45.304,152.522,43.782,151,41.904,151z"/>
			</g>
		</g>
		<g>
			<g>
				<path fill="#F5C84C" d="M164.854,0c-1.878,0-3.4,1.522-3.4,3.4c0,1.878,1.522,3.4,3.4,3.4s3.4-1.522,3.4-3.4
					C168.254,1.522,166.732,0,164.854,0z"/>
			</g>
		</g>
		<g>
			<g>
				<g>
					<path d="M236.195,175.891H19.805c-5.131,0-9.305,4.174-9.305,9.305s4.174,9.305,9.305,9.305h216.391
						c5.131,0,9.305-4.174,9.305-9.305S241.326,175.891,236.195,175.891z M236.195,189.5H19.805c-2.374,0-4.305-1.931-4.305-4.305
						s1.931-4.305,4.305-4.305h216.391c2.374,0,4.305,1.931,4.305,4.305S238.569,189.5,236.195,189.5z"/>
				</g>
			</g>
		</g>
		<g>
			<g>
				<path d="M235.696,190.218c-1.359-0.158-2.609,0.831-2.765,2.204c-0.487,4.32-4.128,7.578-8.467,7.578H31.535
					c-4.331,0-8.056-3.383-8.479-7.701c-0.136-1.374-1.363-2.372-2.732-2.244c-1.374,0.135-2.379,1.358-2.244,2.732
					C18.764,199.75,24.548,205,31.535,205h192.93c6.886,0,12.662-5.166,13.436-12.018
					C238.055,191.61,237.068,190.373,235.696,190.218z"/>
			</g>
		</g>
		<g>
			<g>
				<path d="M225.75,200.5c-1.381,0-2.5,1.119-2.5,2.5v46.939c0,0.585-0.476,1.061-1.061,1.061H33.811
					c-0.585,0-1.061-0.476-1.061-1.061v-46.626c0-1.381-1.119-2.5-2.5-2.5s-2.5,1.119-2.5,2.5v46.626
					c0,3.342,2.719,6.061,6.061,6.061h188.379c3.342,0,6.061-2.719,6.061-6.061V203C228.25,201.619,227.131,200.5,225.75,200.5z"/>
			</g>
		</g>
		<g>
			<g>
				<path d="M119.11,177.192l-10.718-53.872c-0.271-1.354-1.586-2.229-2.94-1.964c-1.354,0.27-2.233,1.586-1.964,2.94l10.718,53.872
					c0.237,1.189,1.281,2.012,2.449,2.012c0.162,0,0.326-0.016,0.491-0.048C118.5,179.863,119.38,178.547,119.11,177.192z"/>
			</g>
		</g>
		<g>
			<g>
				<g>
					<path d="M110.713,176.762l-9.409-23.961l2.544-3.815c1.164-1.745,0.738-4.067-0.969-5.287l-4.832-3.452l0.597-16.731
						c0.05-1.38-1.029-2.538-2.409-2.587c-1.342-0.06-2.538,1.029-2.587,2.409l-0.619,17.34c-0.048,1.302,0.558,2.53,1.615,3.283
						l4.434,3.167l-2.264,3.395c-0.697,1.048-0.841,2.375-0.381,3.556l9.626,24.513c0.387,0.985,1.33,1.587,2.328,1.587
						c0.304,0,0.612-0.056,0.913-0.174C110.585,179.498,111.218,178.047,110.713,176.762z"/>
				</g>
			</g>
		</g>
	</g>
</g>
<g id="Layer_66">
</g>
<g id="Layer_67">
</g>
<g id="Layer_68">
</g>
<g id="Layer_69">
</g>
<g id="Layer_70">
</g>
<g id="Layer_71">
</g>
<g id="Layer_72">
</g>
<g id="Layer_73">
</g>
<g id="Layer_74">
</g>
<g id="Layer_75">
</g>
<g id="Layer_76">
</g>
<g id="Layer_77">
</g>
<g id="Layer_78">
</g>
<g id="Layer_79">
</g>
<g id="Layer_80">
</g>
<g id="Layer_81">
</g>
<g id="Layer_82">
</g>
<g id="Layer_83">
</g>
<g id="Layer_84">
</g>
<g id="Layer_85">
</g>
<g id="Layer_86">
</g>
<g id="Layer_87">
</g>
<g id="Layer_88">
</g>
<g id="Layer_89">
</g>
<g id="Layer_90">
</g>
</svg>
