<svg xmlns="http://www.w3.org/2000/svg" viewBox="0 0 64 64"><g id="Setting_spray" data-name="Setting spray"><polygon points="47 11 47 15 39 15 39 11 40 11 46 11 47 11" style="fill:#5c514b"/><path d="M46,6v5H40V6a1,1,0,0,1,1-1h4A1,1,0,0,1,46,6Z" style="fill:#5c514b"/><polygon points="49 15 49 21 47 21 39 21 37 21 37 15 39 15 47 15 49 15" style="fill:#f0e5e4"/><path d="M46,45a3,3,0,0,1-6,0c0-1.66,2-5,3-5S46,43.34,46,45Z" style="fill:#80acc5"/><path d="M42,43a6.954,6.954,0,0,1,1.05-2.99A.442.442,0,0,0,43,40c-1,0-3,3.34-3,5a2.992,2.992,0,0,0,5.86.86A2.95,2.95,0,0,1,45,46,3,3,0,0,1,42,43Z" style="fill:#6c9bb5"/><path d="M52,36V52H34V36ZM43,48a3,3,0,0,0,3-3c0-1.66-2-5-3-5s-3,3.34-3,5A3,3,0,0,0,43,48Z" style="fill:#f0e5e4"/><path d="M52,52v7a4,4,0,0,1-4,4H38a4,4,0,0,1-4-4V52Z" style="fill:#80acc5"/><path d="M52,29.17V36H34V29.17a6,6,0,0,1,1.39-3.84L39,21h8l3.61,4.33A6,6,0,0,1,52,29.17Z" style="fill:#80acc5"/><path d="M44,10a2,2,0,0,1-2-2V6a1,1,0,0,1,1-1H41a1,1,0,0,0-1,1v5h6V8A2,2,0,0,1,44,10Z" style="fill:#423a36"/><path d="M41,11v1a2,2,0,0,0,2,2h4v1H39V11Z" style="fill:#423a36"/><path d="M37,15h4v1a3,3,0,0,0,3,3h5v2H37Z" style="fill:#dbd1d0"/><rect x="45" y="15" width="2" height="4" style="fill:#fff"/><rect x="34" y="36" width="5" height="16" style="fill:#dbd1d0"/><path d="M50,60H41a2,2,0,0,1-2-2V52H34v7a4,4,0,0,0,4,4H48a4,4,0,0,0,4-4V58A2,2,0,0,1,50,60Z" style="fill:#6c9bb5"/><path d="M39,29.328a5,5,0,0,1,.659-2.481L43,21H39l-3.61,4.33A6,6,0,0,0,34,29.17V36h5Z" style="fill:#6c9bb5"/><path d="M37,28H51.874a6,6,0,0,0-1.264-2.67L47,21H39l-3.61,4.33a5.96,5.96,0,0,0-.843,1.39A2.994,2.994,0,0,0,37,28Z" style="fill:#8dbdd9"/><path d="M37,28h2.182a5.02,5.02,0,0,1,.477-1.153L43,21H39l-3.61,4.33a6.082,6.082,0,0,0-.487.7,7.137,7.137,0,0,0-.356.69A2.994,2.994,0,0,0,37,28Z" style="fill:#80acc5"/><rect x="48" y="36" width="2" height="16" style="fill:#fff"/><rect x="48" y="53" width="2" height="6" rx="1" style="fill:#a6deff"/><rect x="48" y="31" width="2" height="4" rx="1" style="fill:#a6deff"/><path d="M49,30a1,1,0,0,1-1-1V27.829a1,1,0,0,0-.293-.708l-1.415-1.415a1,1,0,0,1,1.414-1.414l1.415,1.415A2.98,2.98,0,0,1,50,27.829V29A1,1,0,0,1,49,30Z" style="fill:#a6deff"/><path d="M14,1H28a2.006,2.006,0,0,1,2,2V29H12V3A2.006,2.006,0,0,1,14,1Z" style="fill:#f0e5e4"/><path d="M24,45a3,3,0,0,1-6,0c0-1.66,2-5,3-5S24,43.34,24,45Z" style="fill:#80acc5"/><path d="M20,43a6.954,6.954,0,0,1,1.05-2.99A.442.442,0,0,0,21,40c-1,0-3,3.34-3,5a2.992,2.992,0,0,0,5.86.86A2.95,2.95,0,0,1,23,46,3,3,0,0,1,20,43Z" style="fill:#6c9bb5"/><path d="M30,36V52H12V36ZM21,48a3,3,0,0,0,3-3c0-1.66-2-5-3-5s-3,3.34-3,5A3,3,0,0,0,21,48Z" style="fill:#f0e5e4"/><path d="M30,52v7a4,4,0,0,1-4,4H16a4,4,0,0,1-4-4V52Z" style="fill:#80acc5"/><polygon points="30 29.17 30 36 12 36 12 29.17 12 29 30 29 30 29.17" style="fill:#80acc5"/><rect x="12" y="36" width="5" height="16" style="fill:#dbd1d0"/><path d="M28,60H19a2,2,0,0,1-2-2V52H12v7a4,4,0,0,0,4,4H26a4,4,0,0,0,4-4V58A2,2,0,0,1,28,60Z" style="fill:#6c9bb5"/><rect x="26" y="36" width="2" height="16" style="fill:#fff"/><rect x="25" y="12" width="2" height="13" rx="1" style="fill:#fff"/><rect x="26" y="53" width="2" height="6" rx="1" style="fill:#a6deff"/><rect x="26" y="31" width="2" height="4" rx="1" style="fill:#a6deff"/><path d="M30,29H12v7h5V33a2,2,0,0,1,2-2H30Z" style="fill:#6c9bb5"/><path d="M17,18V2.975A1.993,1.993,0,0,1,18.755,1H14a2.006,2.006,0,0,0-2,2V29H30V26H25A8,8,0,0,1,17,18Z" style="fill:#dbd1d0"/><path d="M49.115,21.977A.99.99,0,0,0,50,21V15a1,1,0,0,0-1-1H48V11a1,1,0,0,0-1-1V6a2,2,0,0,0-2-2H41a2,2,0,0,0-2,2v4a1,1,0,0,0-1,1v3H37a1,1,0,0,0-1,1v6a.99.99,0,0,0,.884.977l-2.262,2.714A7.017,7.017,0,0,0,33,29.172V59a5.006,5.006,0,0,0,5,5H48a5.006,5.006,0,0,0,5-5V29.172a7.012,7.012,0,0,0-1.623-4.481ZM41,6h1V8h2V6h1v4H41Zm-1,6h6v2H40Zm-2,4H48v4H38Zm-1.841,9.971L39.468,22h7.064l3.309,3.971A5.013,5.013,0,0,1,51,29.172V35H35V29.172A5.013,5.013,0,0,1,36.159,25.971ZM51,51H35V37H51ZM48,62H38a3,3,0,0,1-3-3V53H51v6A3,3,0,0,1,48,62Z"/><path d="M43,49a4,4,0,0,0,4-4c0-1.789-2.092-6-4-6s-4,4.211-4,6A4,4,0,0,0,43,49Zm0-7.931A7.544,7.544,0,0,1,45,45a2,2,0,0,1-4,0A7.544,7.544,0,0,1,43,41.069Z"/><path d="M21,49a4,4,0,0,0,4-4c0-1.789-2.092-6-4-6s-4,4.211-4,6A4,4,0,0,0,21,49Zm0-7.931A7.544,7.544,0,0,1,23,45a2,2,0,0,1-4,0A7.544,7.544,0,0,1,21,41.069Z"/><rect x="11" y="22" width="2" height="2"/><path d="M28,0H14a3,3,0,0,0-3,3V20h2V3a1,1,0,0,1,1-1H28a1,1,0,0,1,1,1V28H13V26H11v3a.9.9,0,0,0,.035.172H11V59a5.006,5.006,0,0,0,5,5H26a5.006,5.006,0,0,0,5-5V29.172h-.035A.9.9,0,0,0,31,29V3A3,3,0,0,0,28,0Zm1,35H13V30H29Zm0,16H13V37H29ZM26,62H16a3,3,0,0,1-3-3V53H29v6A3,3,0,0,1,26,62Z"/><rect x="49" y="6" width="2" height="2"/><rect x="52" y="6" width="2" height="2"/><rect x="55" y="6" width="2" height="2"/><rect x="58" y="6" width="2" height="2"/><rect x="61" y="6" width="2" height="2"/><rect x="48.962" y="3.725" width="2" height="2" transform="translate(0.626 13.917) rotate(-15.957)"/><rect x="52.808" y="2.626" width="2" height="2" transform="translate(1.076 14.932) rotate(-15.957)"/><rect x="60.5" y="0.429" width="2" height="2" transform="translate(1.97 16.934) rotate(-15.93)"/><rect x="56.654" y="1.528" width="2" height="2" transform="translate(1.527 15.947) rotate(-15.957)"/><rect x="48.961" y="8.275" width="2" height="2" transform="translate(27.32 54.767) rotate(-74.057)"/><rect x="60.5" y="11.571" width="2" height="2" transform="translate(32.522 68.254) rotate(-74.06)"/><rect x="52.808" y="9.374" width="2" height="2" transform="translate(29.053 59.262) rotate(-74.057)"/><rect x="56.654" y="10.473" width="2" height="2" transform="translate(30.786 63.757) rotate(-74.057)"/><rect x="25" y="4" width="2" height="2"/><rect x="25" y="8" width="2" height="2"/></g></svg>