<svg xmlns="http://www.w3.org/2000/svg" width="128" height="128" viewBox="0 0 128 128">
  <title>SHED</title>
  <g>
    <g>
      <polygon points="64 14.72 1.75 49.995 1.75 61.489 64 26.214 126.25 61.489 126.25 49.995 64 14.72" fill="#57555c"/>
      <polygon points="10.187 56.708 10.187 113.28 22.562 113.28 22.562 49.695 10.187 56.708" fill="#fedb41"/>
      <polygon points="117.812 56.708 117.812 113.28 105.437 113.28 105.437 49.695 117.812 56.708" fill="#fedb41"/>
      <circle cx="36.375" cy="99.467" r="13.813" fill="#73553a"/>
      <circle cx="64" cy="99.467" r="13.813" fill="#5d452f"/>
      <circle cx="50.187" cy="75.535" r="13.812" fill="#896748"/>
      <circle cx="77.812" cy="75.535" r="13.812" fill="#73553a"/>
      <circle cx="91.625" cy="99.467" r="13.813" fill="#896748"/>
      <circle cx="36.375" cy="99.467" r="5.812" transform="translate(-69.419 94.515) rotate(-67.233)" fill="#5d452f"/>
      <circle cx="64" cy="99.467" r="5.812" transform="translate(-52.481 120.011) rotate(-67.244)" fill="#896748"/>
      <circle cx="50.187" cy="75.535" r="5.813" transform="translate(-38.804 92.996) rotate(-67.5)" fill="#73553a"/>
      <circle cx="77.812" cy="75.535" r="5.813" transform="translate(-21.75 118.519) rotate(-67.5)" fill="#5d452f"/>
      <circle cx="91.625" cy="99.467" r="5.812" transform="translate(-35.533 145.508) rotate(-67.254)" fill="#73553a"/>
    </g>
    <g>
      <path d="M127.112,48.473,64.862,13.2a1.743,1.743,0,0,0-1.724,0L.888,48.473A1.75,1.75,0,0,0,0,50V61.489a1.749,1.749,0,0,0,2.612,1.523l5.825-3.3V113.28a1.751,1.751,0,0,0,1.75,1.75H22.562a1.75,1.75,0,0,0,1.75-1.75v-4a15.535,15.535,0,0,0,25.875-2.676,15.537,15.537,0,0,0,27.625,0,15.535,15.535,0,0,0,25.875,2.676v4a1.751,1.751,0,0,0,1.75,1.75h12.375a1.75,1.75,0,0,0,1.75-1.75V59.711l5.826,3.3A1.762,1.762,0,0,0,128,61.489V50A1.75,1.75,0,0,0,127.112,48.473ZM20.812,111.53H11.937v-53.8L20.812,52.7Zm15.563,0A12.063,12.063,0,1,1,48.437,99.467,12.077,12.077,0,0,1,36.375,111.53ZM77.812,87.6A12.063,12.063,0,1,1,89.875,75.535,12.077,12.077,0,0,1,77.812,87.6Zm.737,3.462q-.4.615-.737,1.267-.337-.653-.736-1.267c.246.012.488.038.736.038S78.3,91.072,78.549,91.06ZM64.736,83.942c-.246-.011-.488-.037-.736-.037s-.491.026-.736.037q.4-.615.736-1.267Q64.339,83.328,64.736,83.942ZM50.187,87.6A12.063,12.063,0,1,1,62.25,75.535,12.077,12.077,0,0,1,50.187,87.6Zm.737,3.462q-.4.615-.737,1.267-.337-.653-.736-1.267c.246.012.488.038.736.038S50.678,91.072,50.924,91.06ZM64,111.53A12.063,12.063,0,1,1,76.062,99.467,12.077,12.077,0,0,1,64,111.53Zm27.625,0a12.063,12.063,0,1,1,12.062-12.063A12.077,12.077,0,0,1,91.625,111.53Zm24.437,0h-8.875V52.7l8.875,5.029ZM124.5,58.486,99.831,44.507a1.75,1.75,0,1,0-1.725,3.045l5.581,3.163V89.652a15.534,15.534,0,0,0-12.062-5.747c-.249,0-.491.026-.736.037A15.548,15.548,0,1,0,64,68.4,15.549,15.549,0,1,0,37.111,83.942c-.246-.011-.488-.037-.736-.037a15.536,15.536,0,0,0-12.063,5.747V50.715L64,28.226l15.107,8.561a1.75,1.75,0,0,0,1.726-3.045l-15.97-9.05a1.745,1.745,0,0,0-1.725,0L3.5,58.486V51.015L64,16.731l60.5,34.284Z"/>
      <path d="M87.451,41.515l2.312,1.309a1.731,1.731,0,0,0,.86.228,1.75,1.75,0,0,0,.864-3.273L89.176,38.47a1.75,1.75,0,1,0-1.725,3.045Z"/>
      <path d="M36.375,91.905a7.563,7.563,0,1,0,7.562,7.562A7.571,7.571,0,0,0,36.375,91.905Zm0,11.625a4.063,4.063,0,1,1,4.062-4.063A4.067,4.067,0,0,1,36.375,103.53Z"/>
      <path d="M64,91.905a7.563,7.563,0,1,0,7.562,7.562A7.571,7.571,0,0,0,64,91.905Zm0,11.625a4.063,4.063,0,1,1,4.062-4.063A4.067,4.067,0,0,1,64,103.53Z"/>
      <path d="M50.187,67.973a7.571,7.571,0,0,0-7.562,7.562,1.75,1.75,0,0,0,3.5,0A4.063,4.063,0,1,1,50.187,79.6a1.75,1.75,0,0,0,0,3.5,7.563,7.563,0,1,0,0-15.125Z"/>
      <path d="M77.812,67.973a7.563,7.563,0,1,0,7.563,7.562A7.571,7.571,0,0,0,77.812,67.973Zm0,11.625a4.063,4.063,0,1,1,4.063-4.063A4.067,4.067,0,0,1,77.812,79.6Z"/>
      <path d="M91.625,91.905a7.563,7.563,0,1,0,7.562,7.562A7.571,7.571,0,0,0,91.625,91.905Zm0,11.625a4.063,4.063,0,1,1,4.062-4.063A4.067,4.067,0,0,1,91.625,103.53Z"/>
    </g>
  </g>
</svg>
