<?xml version="1.0" encoding="utf-8"?>
<!-- Generator: Adobe Illustrator 16.0.0, SVG Export Plug-In . SVG Version: 6.00 Build 0)  -->
<!DOCTYPE svg PUBLIC "-//W3C//DTD SVG 1.0//EN" "http://www.w3.org/TR/2001/REC-SVG-20010904/DTD/svg10.dtd">
<svg version="1.0" id="Layer_1" xmlns="http://www.w3.org/2000/svg" xmlns:xlink="http://www.w3.org/1999/xlink" x="0px" y="0px"
	 width="100px" height="100px" viewBox="0 0 100 100" enable-background="new 0 0 100 100" xml:space="preserve">
<path d="M30,36.667l-3.333-20H10v6.667h11.019l8.891,53.333h53.389l6.702-40H30z M60,43.333h6.667V70H60V43.333z M53.333,70h-6.666
	V43.333h6.666V70z M35.554,70l-4.44-26.667H40V70H35.554z M77.653,70h-4.32V43.333h8.764L77.653,70z"/>
<circle cx="43.333" cy="85" r="5"/>
<circle cx="70" cy="85" r="5"/>
<polygon points="76.667,10 76.667,16.667 70,16.667 70,23.333 76.667,23.333 76.667,30 83.333,30 83.333,23.333 90,23.333 
	90,16.667 83.333,16.667 83.333,10 "/>
</svg>
