<?xml version="1.0" encoding="utf-8"?>
<!-- Generator: Adobe Illustrator 16.0.0, SVG Export Plug-In . SVG Version: 6.00 Build 0)  -->
<!DOCTYPE svg PUBLIC "-//W3C//DTD SVG 1.0//EN" "http://www.w3.org/TR/2001/REC-SVG-20010904/DTD/svg10.dtd">
<svg version="1.0" id="Layer_1" xmlns="http://www.w3.org/2000/svg" xmlns:xlink="http://www.w3.org/1999/xlink" x="0px" y="0px"
	 width="100px" height="100px" viewBox="0 0 100 100" enable-background="new 0 0 100 100" xml:space="preserve">
<path d="M43.333,83.333c0,3.679-2.984,6.667-6.666,6.667C32.988,90,30,87.012,30,83.333c0-3.685,2.988-6.667,6.667-6.667
	C40.349,76.666,43.333,79.648,43.333,83.333z"/>
<path d="M73.333,83.333c0,3.679-2.984,6.667-6.666,6.667S60,87.012,60,83.333c0-3.685,2.985-6.667,6.667-6.667
	S73.333,79.648,73.333,83.333z"/>
<path d="M90,23.333H25.439l0,0l-1.064-6.751C23.802,12.962,20.335,10,16.667,10H10v6.666h7.637l8.428,53.373
	c0.286,1.81,2.021,3.294,3.854,3.294h53.414v-6.667H32.282L31.228,60h52.105L90,23.333z M77.771,53.333H30.176l0,0L26.491,30h55.521
	L77.771,53.333z"/>
</svg>
