<svg xmlns="http://www.w3.org/2000/svg" width="128" height="128" viewBox="0 0 128 128">
  <title>SIGN</title>
  <g>
    <g>
      <path d="M1.75,9h12.5a4,4,0,0,1,4,4V37.5a4,4,0,0,1-4,4H1.75a0,0,0,0,1,0,0V9A0,0,0,0,1,1.75,9Z" fill="#57555c"/>
      <path d="M109.75,9h12.5a4,4,0,0,1,4,4V37.5a4,4,0,0,1-4,4h-12.5a0,0,0,0,1,0,0V9A0,0,0,0,1,109.75,9Z" transform="translate(236 50.503) rotate(180)" fill="#57555c"/>
      <path d="M10,32.626a1.75,1.75,0,0,1-1.75-1.75V19.626a1.75,1.75,0,0,1,3.5,0v11.25A1.75,1.75,0,0,1,10,32.626Z" fill="#3c3a41"/>
      <path d="M118,32.626a1.75,1.75,0,0,1-1.75-1.75V19.626a1.75,1.75,0,0,1,3.5,0v11.25A1.75,1.75,0,0,1,118,32.626Z" fill="#3c3a41"/>
      <rect x="8.5" y="55.252" width="111" height="63.747" fill="#fedb41"/>
      <path d="M35,12h6.875a2,2,0,0,1,2,2v41.25a0,0,0,0,1,0,0H33a0,0,0,0,1,0,0V14A2,2,0,0,1,35,12Z" fill="#6e77e5"/>
      <path d="M84.125,12H95a0,0,0,0,1,0,0v41.25a2,2,0,0,1-2,2H86.125a2,2,0,0,1-2-2V12A0,0,0,0,1,84.125,12Z" transform="translate(179.125 67.253) rotate(180)" fill="#6e77e5"/>
      <g>
        <rect x="43.875" y="19.002" width="40.25" height="12.5" fill="#fedb41"/>
        <rect x="95" y="19.002" width="14.75" height="12.5" fill="#fedb41"/>
        <rect x="18.25" y="19.002" width="14.75" height="12.5" fill="#fedb41"/>
      </g>
      <ellipse cx="39.711" cy="77.606" rx="4.89" ry="9.519" fill="#5d452f"/>
      <path d="M99.905,87.125H57.439c2.7,0,4.89,4.262,4.89,9.519s-2.189,9.519-4.89,9.519H99.905c2.7,0,4.89-4.262,4.89-9.519S102.606,87.125,99.905,87.125Z" fill="#5d452f"/>
      <path d="M82.177,68.087H39.711c2.7,0,4.89,4.262,4.89,9.519s-2.189,9.519-4.89,9.519H82.177c2.7,0,4.89-4.262,4.89-9.519S84.878,68.087,82.177,68.087Z" fill="#896748"/>
      <path d="M52.549,96.644c0-5.257,2.19-9.519,4.89-9.519H28.1c2.7,0,4.89,4.262,4.89,9.519s-2.19,9.519-4.89,9.519H57.439C54.739,106.163,52.549,101.9,52.549,96.644Z" fill="#5d452f"/>
      <ellipse cx="57.439" cy="96.644" rx="4.89" ry="9.519" fill="#896748"/>
      <ellipse cx="28.095" cy="96.644" rx="4.89" ry="9.519" fill="#896748"/>
      <path d="M47.46,101.114a1.75,1.75,0,0,0-1.75-1.75H32.779a13.807,13.807,0,0,1-.988,3.5H45.71A1.75,1.75,0,0,0,47.46,101.114Z" fill="#73553a"/>
      <path d="M48.7,96.758H41.864a1.75,1.75,0,1,1,0-3.5H48.7a1.75,1.75,0,1,1,0,3.5Z" fill="#73553a"/>
      <path d="M87.021,78.838a1.726,1.726,0,0,0-.241-.024H64.512a1.75,1.75,0,0,0,0,3.5H86.424A16.251,16.251,0,0,0,87.021,78.838Z" fill="#73553a"/>
      <path d="M71.776,76.674h-6.41a1.75,1.75,0,0,1,0-3.5h6.41a1.75,1.75,0,0,1,0,3.5Z" fill="#73553a"/>
      <path d="M53.645,71.064H43.257a13.186,13.186,0,0,1,1.084,3.5h9.3a1.75,1.75,0,1,0,0-3.5Z" fill="#73553a"/>
      <path d="M85.328,101.885H70.372a1.75,1.75,0,0,1,0-3.5H85.328a1.75,1.75,0,0,1,0,3.5Z" fill="#73553a"/>
      <path d="M104.152,91.936H84.961a1.75,1.75,0,1,0,0,3.5h19.79A16.27,16.27,0,0,0,104.152,91.936Z" fill="#73553a"/>
    </g>
    <g>
      <path d="M126.25,7.251h-12.5A5.757,5.757,0,0,0,108,13v4.25H96.75V14A3.755,3.755,0,0,0,93,10.251H86.125A3.755,3.755,0,0,0,82.375,14v3.25H45.625V14a3.755,3.755,0,0,0-3.75-3.75H35A3.755,3.755,0,0,0,31.25,14v3.25H20V13a5.757,5.757,0,0,0-5.75-5.75H1.75A1.75,1.75,0,0,0,0,9V41.5a1.75,1.75,0,0,0,1.75,1.75h12.5A5.757,5.757,0,0,0,20,37.5v-4.25H31.25V53.5H8.5a1.75,1.75,0,0,0-1.75,1.75V119a1.75,1.75,0,0,0,1.75,1.75H24.875a1.75,1.75,0,0,0,0-3.5H10.25V57h107.5v60.248H59.375a1.75,1.75,0,0,0,0,3.5H119.5a1.75,1.75,0,0,0,1.75-1.75V55.251a1.75,1.75,0,0,0-1.75-1.75H96.75V33.251H108V37.5a5.757,5.757,0,0,0,5.75,5.75h12.5A1.75,1.75,0,0,0,128,41.5V9A1.75,1.75,0,0,0,126.25,7.251Zm-43.875,13.5v9H45.625v-9ZM16.5,37.5a2.253,2.253,0,0,1-2.25,2.25H3.5v-29H14.25A2.253,2.253,0,0,1,16.5,13Zm3.5-7.75v-9H31.25v9ZM34.75,53.5V14a.25.25,0,0,1,.25-.25h6.875a.25.25,0,0,1,.25.25V53.5Zm51.125,0V49.438a1.75,1.75,0,1,0-3.5,0V53.5H45.625V33.251h36.75v3.812a1.75,1.75,0,0,0,3.5,0V14a.25.25,0,0,1,.25-.25H93a.25.25,0,0,1,.25.25V53.5ZM96.75,29.751v-9H108v9Zm27.75,10H113.75a2.253,2.253,0,0,1-2.25-2.25V13a2.253,2.253,0,0,1,2.25-2.25H124.5Z"/>
      <path d="M10,17.876a1.75,1.75,0,0,0-1.75,1.75v11.25a1.75,1.75,0,1,0,3.5,0V19.626A1.75,1.75,0,0,0,10,17.876Z"/>
      <path d="M118,32.626a1.75,1.75,0,0,0,1.75-1.75V19.626a1.75,1.75,0,0,0-3.5,0v11.25A1.75,1.75,0,0,0,118,32.626Z"/>
      <path d="M43.935,117.249h-3.62a1.75,1.75,0,0,0,0,3.5h3.62a1.75,1.75,0,0,0,0-3.5Z"/>
      <path d="M106.545,96.644c0-6.424-2.855-11.269-6.64-11.269H87.063a16.332,16.332,0,0,0,1.754-7.769c0-6.424-2.855-11.269-6.64-11.269H39.711c-3.785,0-6.64,4.845-6.64,11.269a16.344,16.344,0,0,0,1.754,7.769H28.1c-3.785,0-6.64,4.845-6.64,11.269s2.855,11.269,6.64,11.269h71.81C103.69,107.913,106.545,103.068,106.545,96.644ZM82.177,69.837c1.25,0,3.14,3.1,3.14,7.769,0,.417-.02.817-.048,1.208H64.512a1.75,1.75,0,0,0,0,3.5H84.583c-.664,1.924-1.651,3.061-2.406,3.061H44.607A17.932,17.932,0,0,0,46.12,74.564h7.525a1.75,1.75,0,1,0,0-3.5H45.181c-.171-.42-.368-.827-.575-1.227Zm-21.6,26.807c0,4.671-1.89,7.769-3.14,7.769s-3.14-3.1-3.14-7.769,1.89-7.769,3.14-7.769S60.579,91.974,60.579,96.644ZM36.571,77.606c0-4.671,1.89-7.769,3.14-7.769s3.14,3.1,3.14,7.769-1.89,7.769-3.14,7.769S36.571,82.276,36.571,77.606ZM28.1,88.875c1.25,0,3.14,3.1,3.14,7.769s-1.89,7.769-3.14,7.769-3.14-3.1-3.14-7.769S26.845,88.875,28.1,88.875Zm4.9,15.538a15.234,15.234,0,0,0,.7-1.549H45.71a1.75,1.75,0,1,0,0-3.5H34.548a17.8,17.8,0,0,0-1.557-10.489H52.543a18.176,18.176,0,0,0,0,15.538Zm29.48-.272a18.222,18.222,0,0,0-.135-15.266h37.57c.755,0,1.742,1.137,2.406,3.061H84.961a1.75,1.75,0,1,0,0,3.5H103c.028.391.048.791.048,1.208,0,4.671-1.89,7.769-3.14,7.769H62.334C62.382,104.326,62.424,104.231,62.47,104.141Z"/>
      <path d="M48.7,93.258H41.864a1.75,1.75,0,1,0,0,3.5H48.7a1.75,1.75,0,1,0,0-3.5Z"/>
      <path d="M65.366,76.674h6.41a1.75,1.75,0,0,0,0-3.5h-6.41a1.75,1.75,0,0,0,0,3.5Z"/>
      <path d="M85.328,98.385H70.372a1.75,1.75,0,0,0,0,3.5H85.328a1.75,1.75,0,0,0,0-3.5Z"/>
    </g>
  </g>
</svg>
