<?xml version="1.0" encoding="utf-8"?>
<!-- Generator: Adobe Illustrator 24.0.0, SVG Export Plug-In . SVG Version: 6.00 Build 0)  -->
<svg version="1.1" xmlns="http://www.w3.org/2000/svg" xmlns:xlink="http://www.w3.org/1999/xlink" x="0px" y="0px"
	 viewBox="0 0 256 256" enable-background="new 0 0 256 256" xml:space="preserve">
<g id="Layer_1">
</g>
<g id="Layer_2">
</g>
<g id="Layer_3">
</g>
<g id="Layer_4">
</g>
<g id="Layer_5">
</g>
<g id="Layer_6">
</g>
<g id="Layer_7">
</g>
<g id="Layer_8">
</g>
<g id="Layer_9">
</g>
<g id="Layer_10">
</g>
<g id="Layer_11">
</g>
<g id="Layer_12">
</g>
<g id="Layer_13">
</g>
<g id="Layer_14">
</g>
<g id="Layer_15">
</g>
<g id="Layer_16">
</g>
<g id="Layer_17">
</g>
<g id="Layer_18">
</g>
<g id="Layer_19">
</g>
<g id="Layer_20">
</g>
<g id="Layer_21">
</g>
<g id="Layer_22">
</g>
<g id="Layer_23">
</g>
<g id="Layer_24">
</g>
<g id="Layer_25">
</g>
<g id="Layer_26">
</g>
<g id="Layer_27">
</g>
<g id="Layer_28">
</g>
<g id="Layer_29">
</g>
<g id="Layer_30">
</g>
<g id="Layer_31">
	<g>
		<g>
			<g>
				<path fill="#9BE5F9" d="M252.465,129.833h-8.964c-0.489,0-0.905-0.344-1.011-0.822c-0.898-4.053-2.494-7.844-4.657-11.239
					c-0.263-0.413-0.212-0.95,0.134-1.296l6.339-6.339c0.404-0.404,0.404-1.06,0-1.464l-8.176-8.176
					c-0.404-0.404-1.06-0.404-1.464,0l-6.339,6.339c-0.346,0.346-0.884,0.397-1.296,0.134c-3.394-2.163-7.185-3.759-11.239-4.657
					c-0.478-0.106-0.822-0.522-0.822-1.011v-8.964c0-0.572-0.464-1.035-1.035-1.035h-11.563c-0.572,0-1.035,0.464-1.035,1.035v8.964
					c0,0.489-0.344,0.905-0.822,1.011c-4.053,0.898-7.844,2.494-11.239,4.657c-0.413,0.263-0.95,0.212-1.296-0.134l-6.339-6.339
					c-0.404-0.404-1.06-0.404-1.464,0l-8.176,8.176c-0.404,0.404-0.404,1.06,0,1.464l6.339,6.339
					c0.346,0.346,0.397,0.884,0.134,1.296c-2.163,3.395-3.759,7.185-4.657,11.239c-0.106,0.478-0.522,0.822-1.011,0.822h-8.964
					c-0.572,0-1.035,0.464-1.035,1.035v11.563c0,0.572,0.464,1.036,1.035,1.036h8.964c0.489,0,0.905,0.344,1.011,0.822
					c0.898,4.053,2.494,7.844,4.657,11.239c0.263,0.413,0.212,0.95-0.134,1.296l-6.339,6.339c-0.404,0.404-0.404,1.06,0,1.464
					l8.176,8.176c0.404,0.404,1.06,0.404,1.464,0l6.339-6.34c0.346-0.346,0.884-0.397,1.296-0.134
					c3.394,2.163,7.185,3.76,11.239,4.657c0.478,0.106,0.822,0.522,0.822,1.011v8.964c0,0.572,0.464,1.035,1.035,1.035h11.563
					c0.572,0,1.035-0.464,1.035-1.035v-8.964c0-0.489,0.344-0.905,0.822-1.011c4.054-0.898,7.844-2.494,11.239-4.657
					c0.413-0.263,0.95-0.212,1.296,0.134l6.339,6.34c0.404,0.404,1.06,0.404,1.464,0l8.176-8.176c0.404-0.404,0.404-1.06,0-1.464
					l-6.339-6.339c-0.346-0.346-0.397-0.884-0.134-1.296c2.163-3.394,3.759-7.185,4.657-11.239c0.106-0.478,0.522-0.822,1.011-0.822
					h8.964c0.572,0,1.035-0.464,1.035-1.036v-11.563C253.5,130.297,253.036,129.833,252.465,129.833z"/>
			</g>
		</g>
		<g>
			<g>
				<path fill="#FCDD86" d="M147.892,125.596h-14.536c-0.793,0-1.468-0.558-1.64-1.333c-1.456-6.573-4.044-12.72-7.552-18.224
					c-0.427-0.669-0.344-1.541,0.217-2.102l10.28-10.28c0.656-0.656,0.656-1.719,0-2.375l-13.259-13.259
					c-0.656-0.656-1.719-0.656-2.375,0l-10.28,10.28c-0.561,0.561-1.433,0.644-2.102,0.217c-5.504-3.508-11.651-6.096-18.224-7.552
					c-0.775-0.172-1.333-0.846-1.333-1.64V64.793c0-0.927-0.752-1.679-1.679-1.679H66.66c-0.927,0-1.679,0.752-1.679,1.679v14.536
					c0,0.793-0.558,1.468-1.333,1.64c-6.573,1.456-12.72,4.044-18.224,7.552c-0.669,0.427-1.541,0.344-2.102-0.217l-10.28-10.28
					c-0.656-0.656-1.719-0.656-2.375,0L17.409,91.282c-0.656,0.656-0.656,1.719,0,2.375l10.28,10.28
					c0.561,0.561,0.644,1.433,0.217,2.102c-3.508,5.505-6.096,11.651-7.552,18.224c-0.172,0.775-0.846,1.333-1.64,1.333H4.179
					c-0.927,0-1.679,0.752-1.679,1.679v18.751c0,0.927,0.752,1.679,1.679,1.679h14.536c0.793,0,1.468,0.558,1.64,1.333
					c1.456,6.573,4.044,12.72,7.552,18.224c0.427,0.669,0.344,1.541-0.217,2.102l-10.28,10.28c-0.656,0.656-0.656,1.719,0,2.375
					l13.259,13.259c0.656,0.656,1.719,0.656,2.375,0l10.28-10.28c0.561-0.561,1.433-0.644,2.102-0.217
					c5.504,3.508,11.651,6.096,18.224,7.552c0.775,0.172,1.333,0.846,1.333,1.64v14.536c0,0.927,0.752,1.679,1.679,1.679h18.751
					c0.927,0,1.679-0.752,1.679-1.679v-14.536c0-0.793,0.558-1.468,1.333-1.64c6.573-1.456,12.72-4.044,18.224-7.552
					c0.669-0.427,1.541-0.344,2.102,0.217l10.28,10.28c0.656,0.656,1.719,0.656,2.375,0l13.259-13.259
					c0.656-0.656,0.656-1.719,0-2.375l-10.28-10.28c-0.561-0.561-0.644-1.433-0.217-2.102c3.508-5.504,6.096-11.651,7.552-18.224
					c0.172-0.775,0.846-1.333,1.64-1.333h14.536c0.927,0,1.679-0.752,1.679-1.679v-18.751
					C149.571,126.347,148.819,125.596,147.892,125.596z"/>
			</g>
		</g>
		<g>
			<g>
				
					<ellipse transform="matrix(0.9239 -0.3827 0.3827 0.9239 -46.5058 39.4995)" fill="#F5C84C" cx="76.036" cy="136.65" rx="39.732" ry="39.732"/>
			</g>
		</g>
		<g>
			<g>
				<circle fill="#EDB311" cx="76.036" cy="136.65" r="24.731"/>
			</g>
		</g>
		<g>
			<g>
				<circle fill="#B2E26D" cx="208.152" cy="136.65" r="24.502"/>
			</g>
		</g>
		<g>
			<g>
				<path fill="#EDF4FC" d="M219.849,129.684c-1.825-1.824-4.782-1.824-6.607,0l-7.496,7.496l-3.758-3.758
					c-1.825-1.824-4.782-1.824-6.607,0c-1.825,1.824-1.825,4.783,0,6.607l7.061,7.061c0.913,0.912,2.108,1.368,3.304,1.368
					c1.196,0,2.391-0.456,3.304-1.368l10.8-10.8C221.674,134.467,221.674,131.509,219.849,129.684z"/>
			</g>
		</g>
		<g>
			<g>
				<path fill="#FC657E" d="M213.769,68.86c-3.157-0.561-5.613-3.017-6.245-6.104c0-0.14-0.281-0.14-0.281,0
					c-0.632,3.087-3.087,5.543-6.245,6.104c-0.14,0-0.14,0.21,0,0.281c3.157,0.561,5.613,3.017,6.245,6.104
					c0,0.14,0.281,0.14,0.281,0c0.631-3.087,3.087-5.543,6.245-6.104C213.909,69.07,213.909,68.86,213.769,68.86z"/>
			</g>
		</g>
		<g>
			<g>
				<path fill="#F5C84C" d="M149.959,71.65c-1.878,0-3.4,1.522-3.4,3.4c0,1.878,1.522,3.4,3.4,3.4c1.878,0,3.4-1.522,3.4-3.4
					C153.359,73.172,151.836,71.65,149.959,71.65z"/>
			</g>
		</g>
		<g>
			<g>
				<path fill="#70D6F9" d="M115.2,46.75h-2.3v-2.3c0-1.7-1.4-3.2-3.2-3.2s-3.2,1.4-3.2,3.2v2.3h-2.3c-1.7,0-3.2,1.4-3.2,3.2
					s1.4,3.2,3.2,3.2h2.3v2.3c0,1.7,1.4,3.2,3.2,3.2s3.2-1.4,3.2-3.2v-2.3h2.3c1.7,0,3.2-1.4,3.2-3.2S117,46.75,115.2,46.75z"/>
			</g>
		</g>
		<g>
			<g>
				<path fill="#F5C84C" d="M201.959,205.5c-4.5-0.8-8-4.3-8.9-8.7c0-0.2-0.4-0.2-0.4,0c-0.9,4.4-4.4,7.9-8.9,8.7
					c-0.2,0-0.2,0.3,0,0.4c4.5,0.8,8,4.3,8.9,8.7c0,0.2,0.4,0.2,0.4,0c0.9-4.4,4.4-7.9,8.9-8.7
					C202.159,205.8,202.159,205.5,201.959,205.5z"/>
			</g>
		</g>
		<g>
			<g>
				<path fill="#87D147" d="M168.6,189.65c-1.878,0-3.4,1.522-3.4,3.4c0,1.878,1.522,3.4,3.4,3.4c1.878,0,3.4-1.522,3.4-3.4
					C172,191.172,170.478,189.65,168.6,189.65z"/>
			</g>
		</g>
		<g>
			<g>
				<g>
					<path d="M252.464,127.333h-7.804c-0.887-3.488-2.264-6.812-4.106-9.909l5.52-5.52c1.379-1.378,1.379-3.621,0-5l-8.176-8.176
						c-1.379-1.38-3.623-1.379-5,0l-5.52,5.52c-3.098-1.842-6.422-3.22-9.909-4.106v-7.805c0-1.949-1.586-3.535-3.536-3.535h-11.563
						c-1.95,0-3.536,1.586-3.536,3.535v7.805c-3.488,0.887-6.813,2.264-9.908,4.106l-5.521-5.521
						c-1.379-1.377-3.622-1.376-4.999,0.001l-8.177,8.176c-1.379,1.378-1.379,3.621,0,5l5.52,5.52
						c-1.843,3.098-3.22,6.422-4.106,9.909h-7.805c-1.95,0-3.536,1.586-3.536,3.536v11.563c0,1.949,1.586,3.535,3.536,3.535h7.805
						c0.886,3.487,2.263,6.81,4.106,9.909l-5.52,5.52c-1.379,1.378-1.379,3.621,0,5l8.175,8.175
						c1.336,1.338,3.665,1.337,5.001,0.001l5.52-5.52c3.097,1.842,6.421,3.22,9.908,4.106v7.805c0,1.95,1.586,3.536,3.536,3.536
						h11.563c1.95,0,3.536-1.586,3.536-3.536v-7.805c3.487-0.886,6.811-2.263,9.909-4.106l5.519,5.519
						c1.335,1.337,3.667,1.337,5.001,0.001l8.176-8.176c1.379-1.378,1.379-3.621,0-5l-5.52-5.52c1.842-3.097,3.219-6.42,4.106-9.909
						h7.804c1.95,0,3.536-1.586,3.536-3.535v-11.563C256,128.919,254.414,127.333,252.464,127.333z M251,140.967h-7.5
						c-1.671,0-3.09,1.145-3.452,2.782c-0.822,3.712-2.277,7.223-4.324,10.435c-0.902,1.414-0.707,3.227,0.475,4.408l5.304,5.304
						L235.398,170l-5.304-5.304c-1.181-1.182-2.995-1.375-4.407-0.475c-3.214,2.048-6.725,3.502-10.437,4.325
						c-1.637,0.363-2.78,1.782-2.78,3.452v7.5h-8.634v-7.5c0-1.669-1.144-3.089-2.781-3.452c-3.712-0.822-7.223-2.277-10.436-4.324
						c-1.416-0.903-3.229-0.707-4.407,0.475L180.907,170l-6.105-6.105l5.306-5.305c1.18-1.182,1.374-2.994,0.473-4.406
						c-2.048-3.213-3.502-6.725-4.324-10.436c-0.363-1.638-1.783-2.781-3.452-2.781h-7.5v-8.634h7.5
						c1.669,0,3.089-1.143,3.452-2.781c0.822-3.711,2.276-7.222,4.324-10.435c0.901-1.413,0.707-3.226-0.474-4.409l-5.304-5.304
						l6.105-6.105l5.303,5.303c1.179,1.181,2.991,1.377,4.409,0.476c3.212-2.047,6.723-3.502,10.436-4.324
						c1.637-0.363,2.781-1.783,2.781-3.452v-7.499h8.634v7.499c0,1.669,1.143,3.089,2.781,3.452
						c3.711,0.822,7.223,2.277,10.437,4.325c1.414,0.9,3.227,0.705,4.407-0.476l5.304-5.304l6.105,6.105l-5.304,5.304
						c-1.182,1.181-1.376,2.994-0.475,4.408c2.047,3.212,3.502,6.723,4.324,10.434c0.362,1.639,1.782,2.783,3.452,2.783h7.5V140.967
						z"/>
				</g>
			</g>
		</g>
		<g>
			<g>
				<g>
					<path d="M147.892,123.096h-13.876c-1.473-6.329-3.96-12.33-7.4-17.857l9.814-9.815c1.629-1.629,1.629-4.28,0-5.91
						l-13.259-13.259c-1.629-1.63-4.281-1.631-5.91,0l-9.815,9.814c-5.527-3.44-11.528-5.927-17.857-7.4V64.793
						c0-2.304-1.875-4.179-4.179-4.179H66.66c-2.304,0-4.179,1.875-4.179,4.179V78.67c-6.329,1.473-12.33,3.96-17.857,7.4
						l-9.814-9.814c-1.629-1.63-4.281-1.629-5.91,0L15.641,89.514c-1.629,1.629-1.629,4.28,0,5.91l9.814,9.815
						c-3.439,5.526-5.927,11.528-7.4,17.857H4.179c-2.304,0-4.179,1.875-4.179,4.179v18.75c0,2.304,1.875,4.179,4.179,4.179h13.877
						c1.473,6.33,3.96,12.331,7.399,17.857l-9.814,9.814c-1.629,1.629-1.629,4.28,0,5.91L28.9,197.044c1.628,1.629,4.28,1.63,5.91,0
						l9.815-9.814c5.526,3.44,11.528,5.927,17.857,7.4v13.876c0,2.304,1.875,4.179,4.179,4.179h18.751
						c2.304,0,4.179-1.875,4.179-4.179V194.63c6.33-1.474,12.331-3.96,17.857-7.4l9.815,9.814c1.63,1.631,4.282,1.63,5.91,0
						l13.259-13.259c1.629-1.629,1.629-4.28,0-5.91l-9.814-9.814c3.44-5.527,5.927-11.529,7.399-17.857h13.877
						c2.304,0,4.179-1.875,4.179-4.179v-18.75C152.071,124.971,150.196,123.096,147.892,123.096z M147.071,145.205h-13.715
						c-1.972,0-3.65,1.353-4.081,3.292c-1.372,6.196-3.801,12.058-7.219,17.422c-1.066,1.673-0.837,3.817,0.558,5.213l9.7,9.7
						l-12.098,12.098l-9.699-9.699c-1.396-1.396-3.539-1.625-5.214-0.559c-5.363,3.418-11.224,5.847-17.422,7.219
						c-1.938,0.43-3.292,2.108-3.292,4.081v13.715H67.481v-13.715c0-1.972-1.354-3.65-3.292-4.081
						c-6.197-1.372-12.058-3.801-17.422-7.22c-1.674-1.065-3.818-0.836-5.213,0.559l-9.7,9.699l-12.098-12.098l9.701-9.7
						c1.395-1.396,1.624-3.539,0.557-5.213c-3.418-5.362-5.847-11.224-7.22-17.422c-0.43-1.938-2.108-3.291-4.08-3.291H5v-17.109
						h13.715c1.973,0,3.65-1.354,4.081-3.292c1.373-6.197,3.801-12.059,7.22-17.422c1.066-1.674,0.836-3.818-0.559-5.212l-9.7-9.7
						l12.098-12.098l9.7,9.701c1.396,1.395,3.54,1.624,5.213,0.557c5.364-3.418,11.225-5.847,17.42-7.219
						c1.939-0.429,3.293-2.107,3.293-4.081V65.614H84.59v13.715c0,1.974,1.354,3.652,3.292,4.081
						c6.196,1.372,12.057,3.801,17.421,7.219c1.674,1.068,3.819,0.838,5.213-0.558l9.7-9.7l12.098,12.098l-9.7,9.7
						c-1.395,1.395-1.625,3.538-0.558,5.213c3.418,5.363,5.847,11.225,7.219,17.422c0.43,1.938,2.108,3.292,4.081,3.292h13.715
						V145.205z"/>
				</g>
			</g>
		</g>
		<g>
			<g>
				<g>
					<path d="M76.036,94.418c-23.287,0-42.231,18.945-42.231,42.231s18.945,42.232,42.231,42.232s42.231-18.945,42.231-42.232
						S99.322,94.418,76.036,94.418z M76.036,173.882c-20.529,0-37.231-16.702-37.231-37.232c0-20.529,16.702-37.231,37.231-37.231
						s37.231,16.702,37.231,37.231C113.267,157.18,96.565,173.882,76.036,173.882z"/>
				</g>
			</g>
		</g>
		<g>
			<g>
				<g>
					<path d="M76.036,109.418c-15.016,0-27.231,12.216-27.231,27.231s12.216,27.231,27.231,27.231s27.231-12.216,27.231-27.231
						S91.051,109.418,76.036,109.418z M76.036,158.881c-12.258,0-22.231-9.973-22.231-22.231s9.973-22.231,22.231-22.231
						s22.231,9.973,22.231,22.231S88.294,158.881,76.036,158.881z"/>
				</g>
			</g>
		</g>
		<g>
			<g>
				<g>
					<path d="M208.152,109.648c-14.889,0-27.002,12.113-27.002,27.001c0,14.889,12.113,27.002,27.002,27.002
						c14.889,0,27.001-12.113,27.001-27.002C235.154,121.761,223.041,109.648,208.152,109.648z M208.152,158.652
						c-12.132,0-22.002-9.87-22.002-22.002s9.87-22.001,22.002-22.001s22.001,9.87,22.001,22.001S220.284,158.652,208.152,158.652z"
						/>
				</g>
			</g>
		</g>
		<g>
			<g>
				<g>
					<g>
						<path d="M221.617,127.917c-2.796-2.795-7.346-2.795-10.143,0l-5.729,5.728l-1.99-1.99c-2.796-2.795-7.346-2.795-10.142,0
							c-2.796,2.796-2.796,7.346,0,10.143l7.062,7.062c1.354,1.354,3.155,2.1,5.07,2.1s3.716-0.746,5.071-2.101l10.8-10.8
							c1.355-1.354,2.101-3.156,2.101-5.071C223.718,131.072,222.972,129.271,221.617,127.917z M218.082,134.524l-10.799,10.799
							c-0.821,0.82-2.252,0.82-3.072,0l-7.062-7.062c-0.847-0.847-0.847-2.225,0-3.072c0.423-0.423,0.98-0.635,1.536-0.635
							s1.112,0.212,1.536,0.635l3.757,3.758c0.469,0.469,1.105,0.732,1.768,0.732s1.299-0.263,1.768-0.732l7.496-7.496
							c0.848-0.847,2.226-0.847,3.073,0c0.41,0.41,0.636,0.955,0.636,1.536C218.718,133.568,218.492,134.114,218.082,134.524z"/>
					</g>
				</g>
			</g>
		</g>
	</g>
</g>
<g id="Layer_32">
</g>
<g id="Layer_33">
</g>
<g id="Layer_34">
</g>
<g id="Layer_35">
</g>
<g id="Layer_36">
</g>
<g id="Layer_37">
</g>
<g id="Layer_38">
</g>
<g id="Layer_39">
</g>
<g id="Layer_40">
</g>
<g id="Layer_41">
</g>
<g id="Layer_42">
</g>
<g id="Layer_43">
</g>
<g id="Layer_44">
</g>
<g id="Layer_45">
</g>
<g id="Layer_46">
</g>
<g id="Layer_47">
</g>
<g id="Layer_48">
</g>
<g id="Layer_49">
</g>
<g id="Layer_50">
</g>
<g id="Layer_51">
</g>
<g id="Layer_52">
</g>
<g id="Layer_53">
</g>
<g id="Layer_54">
</g>
<g id="Layer_55">
</g>
<g id="Layer_56">
</g>
<g id="Layer_57">
</g>
<g id="Layer_58">
</g>
<g id="Layer_59">
</g>
<g id="Layer_60">
</g>
<g id="Layer_61">
</g>
<g id="Layer_62">
</g>
<g id="Layer_63">
</g>
<g id="Layer_64">
</g>
<g id="Layer_65">
</g>
<g id="Layer_66">
</g>
<g id="Layer_67">
</g>
<g id="Layer_68">
</g>
<g id="Layer_69">
</g>
<g id="Layer_70">
</g>
<g id="Layer_71">
</g>
<g id="Layer_72">
</g>
<g id="Layer_73">
</g>
<g id="Layer_74">
</g>
<g id="Layer_75">
</g>
<g id="Layer_76">
</g>
<g id="Layer_77">
</g>
<g id="Layer_78">
</g>
<g id="Layer_79">
</g>
<g id="Layer_80">
</g>
<g id="Layer_81">
</g>
<g id="Layer_82">
</g>
<g id="Layer_83">
</g>
<g id="Layer_84">
</g>
<g id="Layer_85">
</g>
<g id="Layer_86">
</g>
<g id="Layer_87">
</g>
<g id="Layer_88">
</g>
<g id="Layer_89">
</g>
<g id="Layer_90">
</g>
</svg>
