<?xml version="1.0" encoding="utf-8"?>
<!-- Generator: Adobe Illustrator 24.0.0, SVG Export Plug-In . SVG Version: 6.00 Build 0)  -->
<svg version="1.1" xmlns="http://www.w3.org/2000/svg" xmlns:xlink="http://www.w3.org/1999/xlink" x="0px" y="0px"
	 viewBox="0 0 256 256" enable-background="new 0 0 256 256" xml:space="preserve">
<g id="Layer_1">
</g>
<g id="Layer_2">
</g>
<g id="Layer_3">
</g>
<g id="Layer_4">
</g>
<g id="Layer_5">
</g>
<g id="Layer_6">
</g>
<g id="Layer_7">
</g>
<g id="Layer_8">
</g>
<g id="Layer_9">
</g>
<g id="Layer_10">
</g>
<g id="Layer_11">
</g>
<g id="Layer_12">
</g>
<g id="Layer_13">
</g>
<g id="Layer_14">
</g>
<g id="Layer_15">
</g>
<g id="Layer_16">
</g>
<g id="Layer_17">
</g>
<g id="Layer_18">
</g>
<g id="Layer_19">
</g>
<g id="Layer_20">
</g>
<g id="Layer_21">
</g>
<g id="Layer_22">
</g>
<g id="Layer_23">
</g>
<g id="Layer_24">
</g>
<g id="Layer_25">
</g>
<g id="Layer_26">
</g>
<g id="Layer_27">
</g>
<g id="Layer_28">
</g>
<g id="Layer_29">
</g>
<g id="Layer_30">
</g>
<g id="Layer_31">
</g>
<g id="Layer_32">
</g>
<g id="Layer_33">
</g>
<g id="Layer_34">
</g>
<g id="Layer_35">
</g>
<g id="Layer_36">
</g>
<g id="Layer_37">
</g>
<g id="Layer_38">
</g>
<g id="Layer_39">
</g>
<g id="Layer_40">
</g>
<g id="Layer_41">
</g>
<g id="Layer_42">
</g>
<g id="Layer_43">
</g>
<g id="Layer_44">
</g>
<g id="Layer_45">
</g>
<g id="Layer_46">
</g>
<g id="Layer_47">
</g>
<g id="Layer_48">
</g>
<g id="Layer_49">
</g>
<g id="Layer_50">
</g>
<g id="Layer_51">
</g>
<g id="Layer_52">
</g>
<g id="Layer_53">
</g>
<g id="Layer_54">
</g>
<g id="Layer_55">
</g>
<g id="Layer_56">
</g>
<g id="Layer_57">
</g>
<g id="Layer_58">
</g>
<g id="Layer_59">
</g>
<g id="Layer_60">
</g>
<g id="Layer_61">
</g>
<g id="Layer_62">
</g>
<g id="Layer_63">
</g>
<g id="Layer_64">
</g>
<g id="Layer_65">
</g>
<g id="Layer_66">
</g>
<g id="Layer_67">
</g>
<g id="Layer_68">
</g>
<g id="Layer_69">
</g>
<g id="Layer_70">
</g>
<g id="Layer_71">
</g>
<g id="Layer_72">
</g>
<g id="Layer_73">
</g>
<g id="Layer_74">
</g>
<g id="Layer_75">
</g>
<g id="Layer_76">
</g>
<g id="Layer_77">
</g>
<g id="Layer_78">
</g>
<g id="Layer_79">
</g>
<g id="Layer_80">
</g>
<g id="Layer_81">
</g>
<g id="Layer_82">
</g>
<g id="Layer_83">
</g>
<g id="Layer_84">
</g>
<g id="Layer_85">
</g>
<g id="Layer_86">
</g>
<g id="Layer_87">
</g>
<g id="Layer_88">
	<g>
		<g>
			<g>
				<path fill="#F5C84C" d="M126.25,34.156c-38.769,0.916-70.205,32.852-70.545,71.63c-0.215,24.553,11.816,46.298,30.35,59.521
					c8.148,5.812,12.932,15.247,12.932,25.256v0.002c0,4.834,3.919,8.754,8.754,8.754h40.517c4.835,0,8.754-3.919,8.754-8.754
					c0-9.967,4.711-19.414,12.834-25.189c18.427-13.1,30.451-34.613,30.451-58.944C200.297,65.922,166.979,33.194,126.25,34.156z"/>
			</g>
		</g>
		<g>
			<g>
				<path fill="#EDF4FC" d="M148.259,199.319h-40.517c-1.446,0-2.806-0.356-4.008-0.977v32.799c0,3.683,2.986,6.669,6.669,6.669
					h35.195c3.683,0,6.669-2.986,6.669-6.669v-32.799C151.065,198.962,149.704,199.319,148.259,199.319z"/>
			</g>
		</g>
		<g>
			<g>
				<path fill="#5290DB" d="M113.035,237.811v6.26c0,5.208,4.222,9.43,9.43,9.43h11.071c5.208,0,9.43-4.222,9.43-9.43v-6.26H113.035
					z"/>
			</g>
		</g>
		<g>
			<g>
				<rect x="103.734" y="211.47" fill="#C7D7E5" width="48.532" height="13.063"/>
			</g>
		</g>
		<g>
			<g>
				<path fill="#FCDD86" d="M152.315,108.318h-48.63c-2.675,0-4.863,2.188-4.863,4.863c0,2.674,2.188,4.863,4.863,4.863h48.63
					c2.675,0,4.863-2.188,4.863-4.863C157.178,110.506,154.989,108.318,152.315,108.318z"/>
			</g>
		</g>
		<g>
			<g>
				<path fill="#FC657E" d="M218.125,25.85c-4.5-0.8-8-4.3-8.9-8.7c0-0.2-0.4-0.2-0.4,0c-0.9,4.4-4.4,7.9-8.9,8.7
					c-0.2,0-0.2,0.3,0,0.4c4.5,0.8,8,4.3,8.9,8.7c0,0.2,0.4,0.2,0.4,0c0.9-4.4,4.4-7.9,8.9-8.7
					C218.325,26.15,218.325,25.85,218.125,25.85z"/>
			</g>
		</g>
		<g>
			<g>
				<path fill="#F5C84C" d="M208.935,186.21c-3.157-0.562-5.613-3.018-6.245-6.104c0-0.141-0.281-0.141-0.281,0
					c-0.631,3.087-3.087,5.543-6.245,6.104c-0.14,0-0.14,0.21,0,0.28c3.157,0.562,5.613,3.018,6.245,6.104
					c0,0.141,0.281,0.141,0.281,0c0.632-3.087,3.087-5.543,6.245-6.104C209.076,186.42,209.076,186.21,208.935,186.21z"/>
			</g>
		</g>
		<g>
			<g>
				<path fill="#70D6F9" d="M68.025,226.1h-2.3v-2.3c0-1.7-1.4-3.2-3.2-3.2c-1.8,0-3.2,1.4-3.2,3.2v2.3h-2.3c-1.7,0-3.2,1.4-3.2,3.2
					c0,1.8,1.4,3.2,3.2,3.2h2.3v2.3c0,1.7,1.4,3.2,3.2,3.2c1.8,0,3.2-1.4,3.2-3.2v-2.3h2.3c1.7,0,3.2-1.4,3.2-3.2
					C71.225,227.5,69.825,226.1,68.025,226.1z"/>
			</g>
		</g>
		<g>
			<g>
				<path fill="#F5C84C" d="M153.125,0c-1.878,0-3.4,1.522-3.4,3.4c0,1.878,1.522,3.4,3.4,3.4s3.4-1.522,3.4-3.4
					C156.525,1.522,155.003,0,153.125,0z"/>
			</g>
		</g>
		<g>
			<g>
				<path fill="#87D147" d="M87.125,249.2c-1.878,0-3.4,1.522-3.4,3.4c0,1.877,1.522,3.4,3.4,3.4s3.4-1.522,3.4-3.4
					C90.525,250.722,89.003,249.2,87.125,249.2z"/>
			</g>
		</g>
		<g>
			<g>
				<g>
					<path d="M180.258,52.919c-14.53-14.192-33.731-21.767-54.066-21.262c-19.401,0.458-37.658,8.399-51.406,22.361
						c-13.746,13.96-21.41,32.337-21.58,51.746c-0.213,24.379,11.524,47.398,31.398,61.577c7.441,5.309,11.884,13.99,11.884,23.224
						c0,6.205,5.048,11.254,11.253,11.254h40.518c6.205,0,11.254-5.049,11.254-11.254c0-9.252,4.404-17.907,11.781-23.152
						c19.727-14.022,31.503-36.819,31.503-60.98C202.797,86.119,194.792,67.114,180.258,52.919z M168.397,163.339
						c-8.694,6.181-13.885,16.359-13.885,27.227c0,3.448-2.806,6.254-6.254,6.254h-40.518c-3.448,0-6.253-2.807-6.253-6.256
						c0-10.845-5.226-21.047-13.979-27.292c-18.547-13.231-29.501-34.714-29.302-57.464c0.325-37.251,30.876-68.272,68.104-69.152
						c18.976-0.469,36.896,6.599,50.454,19.84c13.563,13.247,21.033,30.981,21.033,49.938
						C197.797,128.979,186.807,150.251,168.397,163.339z"/>
				</g>
			</g>
		</g>
		<g>
			<g>
				<path d="M152.267,196.222c-1.381,0-2.5,1.119-2.5,2.5v32.42c0,2.299-1.87,4.169-4.169,4.169h-35.195
					c-2.299,0-4.169-1.87-4.169-4.169v-32.336c0-1.381-1.119-2.5-2.5-2.5s-2.5,1.119-2.5,2.5v32.336
					c0,5.056,4.113,9.169,9.169,9.169h35.195c5.056,0,9.169-4.113,9.169-9.169v-32.42
					C154.767,197.341,153.647,196.222,152.267,196.222z"/>
			</g>
		</g>
		<g>
			<g>
				<path d="M142.965,236.129c-1.381,0-2.5,1.119-2.5,2.5v5.441c0,3.821-3.108,6.93-6.93,6.93h-11.07c-3.821,0-6.93-3.108-6.93-6.93
					v-5.492c0-1.381-1.119-2.5-2.5-2.5s-2.5,1.119-2.5,2.5v5.492c0,6.578,5.352,11.93,11.93,11.93h11.07
					c6.578,0,11.93-5.352,11.93-11.93v-5.441C145.465,237.248,144.346,236.129,142.965,236.129z"/>
			</g>
		</g>
		<g>
			<g>
				<path d="M118.131,151.46l-8.596-9.824c-1.22-1.395-1.892-3.182-1.892-5.034v-17.921c0-1.381-1.119-2.5-2.5-2.5
					s-2.5,1.119-2.5,2.5v17.921c0,3.063,1.111,6.021,3.129,8.327l8.596,9.824c1.22,1.395,1.892,3.182,1.892,5.034v38.56
					c0,1.381,1.119,2.5,2.5,2.5s2.5-1.119,2.5-2.5v-38.56C121.26,156.724,120.149,153.767,118.131,151.46z"/>
			</g>
		</g>
		<g>
			<g>
				<path d="M150.855,116.18c-1.381,0-2.5,1.119-2.5,2.5v17.922c0,1.853-0.672,3.641-1.892,5.034l-8.596,9.824
					c-2.018,2.307-3.129,5.264-3.129,8.327v38.56c0,1.381,1.119,2.5,2.5,2.5s2.5-1.119,2.5-2.5v-38.56
					c0-1.852,0.672-3.64,1.893-5.034l8.596-9.824c2.017-2.306,3.128-5.264,3.128-8.327V118.68
					C153.355,117.299,152.236,116.18,150.855,116.18z"/>
			</g>
		</g>
		<g>
			<g>
				<path d="M105.144,98.674c-1.381,0-2.5,1.119-2.5,2.5v6.47c0,1.381,1.119,2.5,2.5,2.5s2.5-1.119,2.5-2.5v-6.47
					C107.644,99.793,106.525,98.674,105.144,98.674z"/>
			</g>
		</g>
		<g>
			<g>
				<path d="M150.855,98.673c-1.381,0-2.5,1.119-2.5,2.5v6.471c0,1.381,1.119,2.5,2.5,2.5s2.5-1.119,2.5-2.5v-6.471
					C153.355,99.792,152.236,98.673,150.855,98.673z"/>
			</g>
		</g>
		<g>
			<g>
				<path d="M230,106.658h-12c-1.381,0-2.5,1.119-2.5,2.5s1.119,2.5,2.5,2.5h12c1.381,0,2.5-1.119,2.5-2.5
					S231.381,106.658,230,106.658z"/>
			</g>
		</g>
		<g>
			<g>
				<path d="M38,106.658H26c-1.381,0-2.5,1.119-2.5,2.5s1.119,2.5,2.5,2.5h12c1.381,0,2.5-1.119,2.5-2.5S39.381,106.658,38,106.658z
					"/>
			</g>
		</g>
		<g>
			<g>
				<path d="M218.5,56.908c-0.69-1.196-2.221-1.605-3.415-0.915l-10.393,6c-1.195,0.69-1.605,2.22-0.915,3.415
					c0.463,0.802,1.304,1.25,2.167,1.25c0.425,0,0.854-0.107,1.248-0.335l10.393-6C218.78,59.633,219.19,58.104,218.5,56.908z"/>
			</g>
		</g>
		<g>
			<g>
				<path d="M52.223,152.908c-0.69-1.195-2.22-1.607-3.415-0.915l-10.392,6c-1.196,0.69-1.605,2.22-0.915,3.415
					c0.463,0.802,1.303,1.25,2.167,1.25c0.424,0,0.854-0.107,1.248-0.335l10.392-6C52.503,155.633,52.913,154.104,52.223,152.908z"
					/>
			</g>
		</g>
		<g>
			<g>
				<path d="M180.25,18.658c-1.193-0.69-2.725-0.281-3.415,0.915l-6,10.393c-0.69,1.195-0.28,2.725,0.915,3.415
					c0.394,0.228,0.823,0.335,1.248,0.335c0.863,0,1.704-0.448,2.167-1.25l6-10.393C181.855,20.878,181.445,19.349,180.25,18.658z"
					/>
			</g>
		</g>
		<g>
			<g>
				<path d="M84.25,184.936c-1.197-0.692-2.725-0.28-3.415,0.915l-6,10.392c-0.69,1.195-0.281,2.725,0.915,3.415
					c0.394,0.228,0.824,0.335,1.248,0.335c0.864,0,1.705-0.448,2.167-1.25l6-10.392C85.855,187.155,85.446,185.626,84.25,184.936z"
					/>
			</g>
		</g>
		<g>
			<g>
				<path d="M128,4.658c-1.381,0-2.5,1.119-2.5,2.5v12c0,1.381,1.119,2.5,2.5,2.5s2.5-1.119,2.5-2.5v-12
					C130.5,5.777,129.381,4.658,128,4.658z"/>
			</g>
		</g>
		<g>
			<g>
				<path d="M85.165,29.966l-6-10.393c-0.691-1.195-2.219-1.607-3.415-0.915c-1.196,0.69-1.605,2.22-0.915,3.415l6,10.393
					c0.463,0.802,1.303,1.25,2.167,1.25c0.424,0,0.854-0.107,1.248-0.335C85.446,32.69,85.855,31.161,85.165,29.966z"/>
			</g>
		</g>
		<g>
			<g>
				<path d="M181.165,196.242l-6-10.392c-0.69-1.196-2.222-1.605-3.415-0.915c-1.195,0.69-1.605,2.22-0.915,3.415l6,10.392
					c0.463,0.802,1.304,1.25,2.167,1.25c0.425,0,0.854-0.107,1.248-0.335C181.445,198.967,181.855,197.438,181.165,196.242z"/>
			</g>
		</g>
		<g>
			<g>
				<path d="M51.308,61.993l-10.392-6c-1.196-0.693-2.726-0.28-3.415,0.915c-0.69,1.195-0.281,2.725,0.915,3.415l10.392,6
					c0.394,0.228,0.824,0.335,1.248,0.335c0.864,0,1.705-0.448,2.167-1.25C52.913,64.213,52.503,62.684,51.308,61.993z"/>
			</g>
		</g>
		<g>
			<g>
				<path d="M217.585,157.993l-10.393-6c-1.193-0.69-2.725-0.281-3.415,0.915c-0.69,1.195-0.28,2.725,0.915,3.415l10.393,6
					c0.394,0.228,0.823,0.335,1.248,0.335c0.863,0,1.704-0.448,2.167-1.25C219.19,160.213,218.78,158.684,217.585,157.993z"/>
			</g>
		</g>
		<g>
			<g>
				<path d="M151.583,208.97h-46.895c-1.381,0-2.5,1.119-2.5,2.5s1.119,2.5,2.5,2.5h46.895c1.381,0,2.5-1.119,2.5-2.5
					S152.964,208.97,151.583,208.97z"/>
			</g>
		</g>
		<g>
			<g>
				<path d="M151.583,222.032h-46.958c-1.381,0-2.5,1.119-2.5,2.5s1.119,2.5,2.5,2.5h46.958c1.381,0,2.5-1.119,2.5-2.5
					S152.964,222.032,151.583,222.032z"/>
			</g>
		</g>
		<g>
			<g>
				<g>
					<path d="M152.314,105.818h-48.629c-4.06,0-7.363,3.303-7.363,7.362c0,4.061,3.303,7.363,7.363,7.363h48.629
						c4.061,0,7.363-3.303,7.363-7.363C159.678,109.121,156.375,105.818,152.314,105.818z M152.314,115.544h-48.629
						c-1.303,0-2.363-1.061-2.363-2.363s1.06-2.362,2.363-2.362h48.629c1.303,0,2.363,1.06,2.363,2.362
						S153.617,115.544,152.314,115.544z"/>
				</g>
			</g>
		</g>
	</g>
</g>
<g id="Layer_89">
</g>
<g id="Layer_90">
</g>
</svg>
