<svg id="Layer_1" data-name="Layer 1" xmlns="http://www.w3.org/2000/svg" xmlns:xlink="http://www.w3.org/1999/xlink" viewBox="0 0 500 500"><defs><clipPath id="clip-path"><path d="M94.483,246.976a77.828,77.828,0,0,1,42.392-31.809c2.534-.774,5.3-1.547,6.894-3.6,1.288-1.661,1.53-3.828,1.763-5.877,1.863-16.372,6.187-32.886,15.764-46.635s25.038-24.424,42.146-25.645c7.817-.557,15.627.829,23.177,2.744,6.7,1.7,13.372,3.862,19.1,7.577,15.556,10.091,21.332,30.515,17.314,48.262s-16.25,32.97-30.447,45.072c-4.4,3.749-9.042,7.292-12.769,11.659-4.3,5.042-7.226,11-10.275,16.814a353.564,353.564,0,0,1-20.777,34.638c-6.36,9.35-13.278,18.519-22.165,25.735S146.61,338.3,135.036,338.474c-12.615.192-24.766-5.648-33.489-14.3C79.7,302.522,77.959,272.7,94.483,246.976Z" style="fill:#f4f0ea;clip-rule:evenodd"/></clipPath></defs><path d="M231.4,77.367c55.908,27.079,92.134,87.851,75.144,164.421C291.786,308.281,234.39,365.409,171.886,379.2c-60.692,13.391-124.9-14.382-153.973-66.542-29.889-53.622-22.044-131.911,21.061-186C92.33,59.714,171.384,48.3,231.4,77.367Z" style="fill:#e2f3f0"/><path d="M45.262,360.415c-.476,3.916,2.115,6.951,5.148,10.061A98.359,98.359,0,0,0,73.29,387.9c5.2,2.869,15.518,7.546,21.482,7.838s7.668-4.18,11.012-9.055a9.288,9.288,0,0,0,1.8-5.971c-.333-3.677-3.417-6.473-6.391-8.742-11.055-8.436-23.477-14.913-35.812-21.337-3.257-1.7-6.839-3.445-10.426-2.745-5.07.989-7.486,6.06-9.142,10.381A9.051,9.051,0,0,0,45.262,360.415Z" style="fill:#aeddd5"/><path d="M208.609,57.464c3.788-3.135,8.316-2.509,13.165-1.476A99.7,99.7,0,0,1,252.18,67.916c5.768,3.454,16.111,10.97,19.483,16.9s-.574,10.544-4.073,17.061a12.967,12.967,0,0,1-5.409,5.605c-4.036,1.99-8.532.677-12.419-.857-14.419-5.693-27.508-13.99-40.508-22.241-3.435-2.179-7.094-4.653-8.284-8.729-1.689-5.786,2.185-11.6,5.725-16.187A12.487,12.487,0,0,1,208.609,57.464Z" style="fill:#aeddd5"/><path d="M247.327,333.264c-5.855,7.58-18.373,13.765-25.483,20.3a67.562,67.562,0,0,1-37.767,16.92c-10.9,1.125-21.83-1.837-32.056-5.653a183.63,183.63,0,0,1-85.169-65.566,170.738,170.738,0,0,1-13.768-23.14c-3.649-7.422-5.276-14.716-6.953-22.721a103.321,103.321,0,0,1,2.016-50.269q1.3-4.4,2.994-8.671c2.853-7.18,6.522-14.072,8.8-21.438a58.276,58.276,0,0,0,2.595-19.259c-.052-1.462-.043-3.182,1.188-4.05,2.406-1.7,5.96,1.929,8.6.591,3.166-1.6,2.091-8.665,5.524-7.663,1.7.5,1.876,2.935,3.442,3.734,1.615.824,3.447-.558,4.73-1.8,28.776-27.862,74.207-36.759,114.052-27.325s74.049,35.316,98.215,67.049c6.917,9.083,8.542,19.659,8.224,31.38-.319,11.746-3.606,27.427-8.113,39.054-7.26,18.73-10.869,29.362-22.874,45.705C267.528,311.327,255.584,322.572,247.327,333.264Z" style="fill:#c5ab8e;fill-rule:evenodd"/><path d="M94.483,246.976a77.828,77.828,0,0,1,42.392-31.809c2.534-.774,5.3-1.547,6.894-3.6,1.288-1.661,1.53-3.828,1.763-5.877,1.863-16.372,6.187-32.886,15.764-46.635s25.038-24.424,42.146-25.645c7.817-.557,15.627.829,23.177,2.744,6.7,1.7,13.372,3.862,19.1,7.577,15.556,10.091,21.332,30.515,17.314,48.262s-16.25,32.97-30.447,45.072c-4.4,3.749-9.042,7.292-12.769,11.659-4.3,5.042-7.226,11-10.275,16.814a353.564,353.564,0,0,1-20.777,34.638c-6.36,9.35-13.278,18.519-22.165,25.735S146.61,338.3,135.036,338.474c-12.615.192-24.766-5.648-33.489-14.3C79.7,302.522,77.959,272.7,94.483,246.976Z" style="fill:#f4f0ea;fill-rule:evenodd"/><g style="clip-path:url(#clip-path)"><path d="M138.888,310.364c9.482-13.638,18.43-29.351,19.465-45.088.951-14.469-4.993-31.561-22.049-27.519-16.237,3.848-24.773,18.125-35.827,32.631C86.092,289.264,64.6,326.6,89.5,335.722c7.639,2.8,16.883,1.374,25.072-2.794s15.383-10.9,21.313-18.485Q137.442,312.447,138.888,310.364Z" style="fill:#7f7568;fill-rule:evenodd"/><path d="M235.926,181.7c-10.82,12.7-23.871,25.516-39.287,31.117-14.174,5.149-33.008,4.776-34.016-12-.959-15.968,10.78-27.988,22-42.375,14.6-18.723,45.545-49.4,62.024-29.358,5.056,6.148,6.367,15.013,4.626,23.726s-6.338,17.274-12.163,24.934Q237.578,179.762,235.926,181.7Z" style="fill:#7f7568;fill-rule:evenodd"/></g><path d="M186.329,255.943q-.927,0-1.971-.1a.815.815,0,1,1,.161-1.623c3.144.309,5.353-.145,6.388-1.318.777-.88.971-2.209.576-3.95a6.445,6.445,0,0,0-2.637-3.589l-7.368-5.192a.816.816,0,0,1,.94-1.334l7.368,5.193a7.984,7.984,0,0,1,3.288,4.561c.51,2.25.184,4.114-.944,5.392C190.977,255.285,189.03,255.943,186.329,255.943Z" style="fill:#333"/><path d="M193.787,247.028a8.77,8.77,0,0,1-4.941-1.669l-7.367-5.193a.815.815,0,1,1,.939-1.333l7.368,5.193a6.918,6.918,0,0,0,4.41,1.353c1.354-.112,3.132-.524,3.914-1.847.768-1.3.547-3.323-.657-6.019a.816.816,0,0,1,1.49-.665c1.432,3.206,1.624,5.734.572,7.514-.9,1.523-2.693,2.437-5.184,2.644C194.151,247.02,193.97,247.028,193.787,247.028Z" style="fill:#333"/><path d="M184.475,227.512a2.855,2.855,0,0,1,.681.6c1.082,1.332.792,3.465.155,5.311a23.174,23.174,0,0,1-9.176,11.411,9.826,9.826,0,0,1-2.924,1.411,3.479,3.479,0,0,1-2.878-.372,3.277,3.277,0,0,1-1.11-1.725c-1.887-6.148,3.606-13.762,9.7-16.4a8.662,8.662,0,0,1,3.368-.823A4.072,4.072,0,0,1,184.475,227.512Z" style="fill:#333"/><path d="M229.58,194.474a38.205,38.205,0,0,0-3.849,5.551,11.286,11.286,0,0,0-1.718,4.831,4.872,4.872,0,0,0,2.123,4.475c2.177,1.311,5.094.3,7.1-1.236a19.794,19.794,0,0,0,5.092-6.145,12.967,12.967,0,0,0,1.744-4.734,6.152,6.152,0,0,0-1.3-4.763C235.836,189.076,231.739,191.883,229.58,194.474Z" style="fill:#f9bebf;fill-rule:evenodd"/><path d="M147.9,300.418a38.073,38.073,0,0,0-3.849,5.551,11.282,11.282,0,0,0-1.718,4.83,4.874,4.874,0,0,0,2.123,4.476c2.177,1.31,5.094.3,7.1-1.236a19.817,19.817,0,0,0,5.092-6.145,12.963,12.963,0,0,0,1.743-4.735,6.144,6.144,0,0,0-1.3-4.762C154.156,295.019,150.059,297.827,147.9,300.418Z" style="fill:#f9bebf;fill-rule:evenodd"/><path d="M141.6,263.383c4.735-.065,5.643,5.626,1.1,6.89C137.968,270.338,137.059,264.648,141.6,263.383Z" style="fill:#231f20;fill-rule:evenodd"/><path d="M193.293,193.537a3.653,3.653,0,0,0,7.21-1.034A3.653,3.653,0,0,0,193.293,193.537Z" style="fill:#231f20;fill-rule:evenodd"/><g style="opacity:0.54"><path d="M190.682,113.424c2.248,11.26-21.274,3.369-47.6,9.654-26.193,6.254-45.256,24.4-47.519,13.249s14.112-30.765,40.319-37.128C162.221,92.8,188.432,102.156,190.682,113.424Z" style="fill:#fff"/></g><g style="opacity:0.39"><path d="M45.023,201.052c6.6-.691,14.238,20.569,17.054,47.484s-.253,49.3-6.856,49.986S36.23,278.513,33.414,251.6,38.42,201.743,45.023,201.052Z" style="fill:#fff"/></g><path d="M345.159,170.081c.8-3.782,1.169-8.02-.967-11.242-1.757-2.649-4.9-4.067-8.012-4.706-3.03-.622-6.343-.591-9.028.945a11.459,11.459,0,0,0-5.179,7.909,24.813,24.813,0,0,0,.477,9.68c-1.11-.759-1.66-2.409-2.994-2.57-1.16-.14-2.114,1.091-2.135,2.259a6.283,6.283,0,0,0,1.207,3.239q3.137,5.178,6.395,10.283a2.705,2.705,0,0,0,.5.637,2.9,2.9,0,0,0,2.307.29c4.315-.613,10.573,1.821,13.172-2.032C343.244,181.3,344.3,174.174,345.159,170.081Z" style="fill:#9dc7c0"/><path d="M343.828,195.646c-.282-3.173-.739-6.541-3.149-8.779-3.328-3.089-9-2.942-14.034-3.874a5.534,5.534,0,0,0-6.541,4.793c-.192,1.762-.184,3.548-.2,5.292a132.121,132.121,0,0,1-6.943,40.493c-3.848,11.534-9.666,20.632,2.56,27.573,9.31,5.285,21.19,3.459,23.683-7.837C343.686,232.992,345.648,216.122,343.828,195.646Z" style="fill:#e3f2ef"/><path d="M346.028,185.018c-.664-1.519-2.238-2.053-3.987-2.519a40.361,40.361,0,0,0-11.908-1.33c-2.47.094-7.14.647-9.305,1.84s-1.772,3.168-1.87,5.637a3.956,3.956,0,0,0,.683,2.519c.921,1.238,2.608,1.574,4.142,1.746a99.685,99.685,0,0,0,17.181-.057c1.513-.092,3.152-.236,4.276-1.253,1.592-1.441,1.377-3.779,1.049-5.691A3.745,3.745,0,0,0,346.028,185.018Z" style="fill:#aeddd5"/><path d="M199.783,438.67c-2.837,2.625-6.283,5.119-10.145,4.939-3.175-.148-6-2.116-8.151-4.461-2.089-2.282-3.762-5.14-3.822-8.233a11.458,11.458,0,0,1,4.131-8.5,24.8,24.8,0,0,1,8.552-4.559c-1.221-.563-2.919-.189-3.742-1.251a2.186,2.186,0,0,1,.843-2.991,6.287,6.287,0,0,1,3.4-.627q6.054.036,12.108.211a2.738,2.738,0,0,1,.8.1c.758.259,1.124,1.093,1.434,1.831,1.688,4.019,6.989,8.14,5.016,12.349C208.432,431.266,202.853,435.828,199.783,438.67Z" style="fill:#9dc7c0"/><path d="M223.237,423.335c-3.188,1.611-6.687,3.184-10.268,2.282-4.924-1.241-8.037-6.5-11.761-10.459a5.59,5.59,0,0,1,.926-8.4c1.549-1.135,3.223-2.108,4.839-3.074a135.745,135.745,0,0,0,32.081-26.546c7.461-8.456,11.561-16.914,24.363-11.317,9.957,4.354,18.306,11.157,10.664,18.722C259.728,398.75,243.366,413.165,223.237,423.335Z" style="fill:#e3f2ef"/><path d="M213.049,431.75c-1.644.209-2.911-.868-4.209-2.13a40.356,40.356,0,0,1-7.252-9.538c-1.187-2.168-3.109-6.46-3.2-8.93s1.81-3.146,3.879-4.5a3.957,3.957,0,0,1,2.513-.706c1.535.155,2.689,1.43,3.624,2.658a99.692,99.692,0,0,1,8.768,14.776c.7,1.346,1.416,2.826,1.12,4.313-.42,2.106-2.537,3.121-4.347,3.821A3.845,3.845,0,0,1,213.049,431.75Z" style="fill:#aeddd5"/><path d="M349.574,431.358c4.588-1.114,8.571-4.815,12.271-8.409,22.794-22.142,44.394-46.389,54.793-75.157,3.736-10.337,5.848-21.729,2.166-31.075-3.157-8.016-10.071-13.314-16.762-18A369.209,369.209,0,0,0,313.4,252.714a7.959,7.959,0,0,0-3.618-.651c-2.956.345-5.369,3.28-7.275,5.919-18.332,25.375-33.963,54.585-60.4,97.71-8.03,13.1,29.565,35.525,41.636,43.216C298.367,408.224,329.7,436.179,349.574,431.358Z" style="fill:#e3f2ef"/><path d="M443.153,412.21c-2.246,4.331-4.141,8.872-6.371,13.219-3.426,6.677-7.963,13.2-14.663,16.581-12.542,6.328-25.613.379-38.357-1.429a356.2,356.2,0,0,1-43.924-8.665,11.258,11.258,0,0,1-5.312-2.572c-3.015-3.1-1.652-7.919-.051-11.562,6.311-14.363,14.7-53.115,36.1-45.123,15.887,5.933,32.1,30,50.262,19.419,4.97-2.895,9.4-6.625,14.225-9.758s10.238-5.717,15.987-5.9,11.861,2.507,14.433,7.653.28,12.541-5.212,14.252c-1.885.588-3.927.506-5.819,1.074-3.086.925-5.412,3.456-7.272,6.086A57.229,57.229,0,0,0,443.153,412.21Z" style="fill:#e3f2ef"/><path d="M484.569,317.58c-.779,4.816-1.158,9.722-1.915,14.548-1.165,7.413-3.433,15.029-8.739,20.336-9.932,9.935-24.208,8.375-36.878,10.646a356.178,356.178,0,0,1-44.429,5.514,11.241,11.241,0,0,1-5.85-.781c-3.834-2-4.047-7-3.667-10.965,1.5-15.616-2.659-55.047,20.165-54.152,16.945.664,39.875,18.447,53.814,2.716,3.815-4.305,6.856-9.233,10.457-13.719s7.935-8.633,13.34-10.6,12.05-1.33,16.1,2.752,4.191,11.824-.49,15.168c-1.607,1.148-3.572,1.709-5.191,2.84-2.641,1.845-4.059,4.976-5,8.057A57.092,57.092,0,0,0,484.569,317.58Z" style="fill:#e3f2ef"/><path d="M379.259,389.58c-4,2.967-7.2,6.846-10.335,10.723-4.033,4.992-8.054,10.092-11,15.843-2.956,5.781-6.86,19.433-4.258,20.056,2.336-.939,3.924-4.428,5.267-6.542a156.74,156.74,0,0,1,27.974-32.972c2.7-2.4,10.612-7.69,6.8-11.9C390.283,381,382.167,387.424,379.259,389.58Z" style="fill:#aeddd5"/><path d="M398.831,314.868c-1.238,4.957-1.248,10.12-1.207,15.238.052,6.591.184,13.259,1.592,19.748,1.415,6.523,7.187,19.936,9.647,18.75,1.236-2.261.227-6.07-.084-8.625a161.669,161.669,0,0,1,.709-44.392c.571-3.663,3.395-13-2.351-13.892C401.972,300.891,399.731,311.268,398.831,314.868Z" style="fill:#aeddd5"/><path d="M361.217,317.351c.019.071.036.144.05.217.252,1.345-.534,2.643-1.285,3.786q-20.822,31.676-41.644,63.352c-.618.94-1.394,1.977-2.516,2.055a3.683,3.683,0,0,1-2.088-.742q-11.012-6.723-21.466-14.306c-6.073-4.405-6.681-7.76-2.947-13.846q6.336-10.326,12.876-20.526,12.869-20.067,26.516-39.621a2.208,2.208,0,0,1,3.753-.566l26.058,17.286C359.65,315.188,360.869,316.068,361.217,317.351Z" style="fill:#aeddd5;fill-rule:evenodd"/><path d="M356.272,318.178q.018.093.03.189a5.524,5.524,0,0,1-1.276,3.409L316.818,379.9c-.567.862-1.271,1.819-2.215,1.947a2.667,2.667,0,0,1-1.708-.545q-8.863-5.352-17.214-11.493c-4.852-3.568-5.183-6.5-1.736-12.067q5.85-9.45,11.863-18.8,11.832-18.393,24.291-36.374a2.985,2.985,0,0,1,1.246-1.2,2.176,2.176,0,0,1,1.925.506l20.9,13.883A4.2,4.2,0,0,1,356.272,318.178Z" style="fill:#e2f3f0;fill-rule:evenodd"/><path d="M308.972,352.787c-6.937-.378-6.265,12.3,1.216,11.845,6.332-.385,6.008-9.671.7-11.456A7.252,7.252,0,0,0,308.972,352.787Z" style="fill:#9dc7c0"/><path d="M320.7,334.571c-6.937-.378-6.265,12.3,1.217,11.845,6.331-.385,6.008-9.671.7-11.456A7.258,7.258,0,0,0,320.7,334.571Z" style="fill:#aeddd5"/><path d="M332.04,317.063c-6.937-.377-6.265,12.3,1.216,11.845,6.332-.385,6.008-9.671.7-11.455A7.256,7.256,0,0,0,332.04,317.063Z" style="fill:#c4e6e0"/><path d="M326.309,249.625a65.947,65.947,0,0,0-11.762-6.286,9.935,9.935,0,0,0-5.413-1.074c-6.531,1.134-1.493,8.1,1.909,9.607,2.436,1.08,5.124,1.444,7.655,2.279,5.35,1.767,9.771,5.551,14.791,8.111a2.643,2.643,0,0,0,1.859.4c1.12-.316,1.347-1.847,1-2.959a10.122,10.122,0,0,0-2.633-3.893A47.9,47.9,0,0,0,326.309,249.625Z" style="fill:#aeddd5"/><path d="M256.084,382.947a112.615,112.615,0,0,1-11.349-10.979c-2.41-2.685-11.026-13.5-2.014-12.122a10.1,10.1,0,0,1,4.711,2.268c2.6,2.137,4.09,4.918,5.854,7.484,5.456,7.939,13.579,13.849,19.959,20.524a2.764,2.764,0,0,1,1.036,1.987c-.139,1.127-1.706,1.3-2.889.986a18.649,18.649,0,0,1-5.222-2.633A106.9,106.9,0,0,1,256.084,382.947Z" style="fill:#aeddd5"/><path d="M248.622,355.309c31.959-27.489,56.423-61.792,64.045-100a13.821,13.821,0,0,0-2.844-11.7c-3.808-4.613-11.649-9.482-13.646-1.422-7.389,29.824-29.747,66.368-57.933,94.116a40.339,40.339,0,0,1-5.709,4.69,29.784,29.784,0,0,0-8.45,9.034c-1.643,2.944-1.87,5.319,1.092,9.47C232.465,369.7,242.12,360.9,248.622,355.309Z" style="fill:#aeddd5"/></svg>