<svg id="Layer_1" data-name="Layer 1" xmlns="http://www.w3.org/2000/svg" viewBox="0 0 500 500"><path d="M451.077,228.421c-26.1,56.313-86.19,93.54-162.972,77.874-66.676-13.6-124.726-69.966-139.569-132.171-14.413-60.4,12.236-125.019,63.847-154.953C265.44-11.6,343.783-5.1,398.549,37.037,466.339,89.2,479.089,167.975,451.077,228.421Z" style="fill:#e2f3f0"/><path d="M165.14,47.308c-3.92-.409-6.908,2.232-9.963,5.315a98.228,98.228,0,0,0-17.016,23.154c-2.778,5.246-7.274,15.631-7.464,21.594s4.307,7.589,9.234,10.846a9.275,9.275,0,0,0,6,1.692c3.667-.4,6.407-3.524,8.624-6.534,8.238-11.187,14.5-23.707,20.7-36.14,1.639-3.282,3.325-6.89,2.565-10.462-1.075-5.048-6.182-7.374-10.527-8.955A9.027,9.027,0,0,0,165.14,47.308Z" style="fill:#aeddd5"/><path d="M470.571,205.318c3.2,3.731,2.648,8.265,1.7,13.127a99.615,99.615,0,0,1-11.4,30.579c-3.351,5.821-10.684,16.282-16.55,19.751s-10.543-.393-17.114-3.777a12.974,12.974,0,0,1-5.691-5.308c-2.057-4-.822-8.513.644-12.421,5.441-14.5,13.507-27.719,21.527-40.847,2.119-3.468,4.528-7.166,8.579-8.424,5.752-1.786,11.63,1.984,16.269,5.443A12.472,12.472,0,0,1,470.571,205.318Z" style="fill:#aeddd5"/><path d="M269.456,33.393a16.89,16.89,0,0,1,2.623-10.809,12.2,12.2,0,0,1,12.433-4.634,10.45,10.45,0,0,1,6,3.414c2.1,2.542,2.781,6.216,3.157,9.736a85.747,85.747,0,0,1,.482,8.849,13.628,13.628,0,0,1-.744,5.286c-2.026,4.86-11.722,9.412-16.045,7.5-2.637-1.165-3.913-5.19-4.957-7.894A39.347,39.347,0,0,1,269.456,33.393Z" style="fill:#e8e4e0"/><path d="M290.438,39.286c.6,3.114-.365,6.317-.891,8.962-.924,4.639-3.684,7.016-6.527,5.621s-6.75-7.367-7.6-12.879c-1.81-11.667,8-16.813,12.8-7.713A20.683,20.683,0,0,1,290.438,39.286Z" style="fill:#f9bebf"/><path d="M417.019,90.476a18.311,18.311,0,0,1,11.3.659,12.321,12.321,0,0,1,7.406,10.923,9.186,9.186,0,0,1-2.024,6.217c-2.042,2.4-5.529,3.656-8.932,4.6a88.056,88.056,0,0,1-8.658,1.934,14.6,14.6,0,0,1-5.406.185c-5.275-1.093-11.979-9.454-11.065-13.841.557-2.676,4.256-4.55,6.7-5.984A38.914,38.914,0,0,1,417.019,90.476Z" style="fill:#e8e4e0"/><path d="M415.931,111.2c-2.951,1.083-6.342.714-9.082.661-4.806-.092-7.786-2.291-7.047-5.2s5.771-7.583,11.039-9.309c11.15-3.654,18.471,4.718,10.541,10.756A19.952,19.952,0,0,1,415.931,111.2Z" style="fill:#f9bebf"/><path d="M221.752,116.761c-17.291,14.778-33.892,30.8-41.521,51.616s-4.941,47.435,13.392,69.52c10.393,12.519,24.85,22.6,39.435,31.74,26.745,16.756,58.514,32.077,85.862,28.492,31.732-4.16,44.909-31.746,51.537-57.918,9.946-39.274,46.015-87.767,41.775-130.859C409.49,81.471,335.34,32.4,292.993,40.388,258.51,46.9,244.439,97.37,221.752,116.761Z" style="fill:#e8e4e0;fill-rule:evenodd"/><path d="M365.794,154.023a3.432,3.432,0,0,1-5.354,1.4,3.4,3.4,0,0,1-1.159-3.811,3.431,3.431,0,0,1,5.353-1.4A3.4,3.4,0,0,1,365.794,154.023Z" style="fill:#333;fill-rule:evenodd"/><path d="M286.756,110.134a3.431,3.431,0,0,1-5.354,1.4,3.4,3.4,0,0,1-1.16-3.81,3.432,3.432,0,0,1,5.354-1.4A3.4,3.4,0,0,1,286.756,110.134Z" style="fill:#333;fill-rule:evenodd"/><path d="M258.814,113a41.278,41.278,0,0,0-6.17-3.051,12.432,12.432,0,0,0-5.143-1.106,4.9,4.9,0,0,0-4.251,2.5c-1.03,2.208.4,4.866,2.237,6.6a21.161,21.161,0,0,0,6.946,4.165,14.3,14.3,0,0,0,5.05,1.142,6.406,6.406,0,0,0,4.656-1.746C265.162,118.353,261.744,114.77,258.814,113Z" style="fill:#f9bebf;fill-rule:evenodd"/><path d="M378.223,179.308a41.278,41.278,0,0,0-6.17-3.051,12.432,12.432,0,0,0-5.143-1.106,4.9,4.9,0,0,0-4.251,2.5c-1.03,2.208.4,4.866,2.237,6.6a21.144,21.144,0,0,0,6.946,4.165,14.273,14.273,0,0,0,5.049,1.142,6.408,6.408,0,0,0,4.657-1.746C384.571,184.659,381.153,181.076,378.223,179.308Z" style="fill:#f9bebf;fill-rule:evenodd"/><path d="M358.875,211.485c18.458,13.483,18.758,39.288,3.619,66.168-23.557,41.825-76.012,29.394-130.276-.738s-85.476-67.044-63.2-106.7c17.064-30.382,36.872-38.66,61.151-28.592,16.213,6.724,32.023,30.092,57.833,43.923C315.224,200.137,342.563,199.568,358.875,211.485Z" style="fill:#d4cac1;fill-rule:evenodd"/><path d="M232.633,152.665c-3.913,6.947-10.381,10.747-14.448,8.489s-4.193-9.72-.28-16.667,10.38-10.747,14.447-8.488C240.764,140.67,236.545,145.719,232.633,152.665Z" style="fill:#d4cac1;fill-rule:evenodd"/><path d="M359.75,220.764c-3.912,6.946-9.967,10.976-13.523,9s-3.268-9.206.644-16.153,9.1-11.459,13.524-9C365.614,207.509,363.662,213.817,359.75,220.764Z" style="fill:#d4cac1;fill-rule:evenodd"/><path d="M360.336,213.127a20.91,20.91,0,0,1-3.146,7.435c-.807,1.355-1.72,2.768-3.528,3.25s-4.783-.45-5.741-2.227a3.541,3.541,0,0,1-.322-2.1,12.885,12.885,0,0,1,5.5-9.6C356.314,207.687,361.109,208.119,360.336,213.127Z" style="fill:#6d6d6d;fill-rule:evenodd"/><path d="M225.557,142.358a21,21,0,0,0-4.733,6.554c-.74,1.393-1.474,2.9-.942,4.686s2.89,3.811,4.917,3.692a3.6,3.6,0,0,0,1.973-.83,12.877,12.877,0,0,0,5.363-9.682C232.33,142.913,229.45,139.082,225.557,142.358Z" style="fill:#6d6d6d;fill-rule:evenodd"/><path d="M228.949,258.945a1.394,1.394,0,0,0-.107,1.348,2.638,2.638,0,0,0,.586.663,10.378,10.378,0,0,0,4.742,2.339,2.776,2.776,0,0,0,1.282.021,1.59,1.59,0,0,0,.818-.7,19.366,19.366,0,0,0,1.777-3.469,1.245,1.245,0,0,0,.077-1.129,2.707,2.707,0,0,0-.805-.81c-1.376-1.028-4.319-3.257-5.825-2.554C230.1,255.31,229.523,257.757,228.949,258.945Z" style="fill:#fff;fill-rule:evenodd"/><path d="M254.327,273.037a1.391,1.391,0,0,0-.108,1.348,2.622,2.622,0,0,0,.587.662,10.361,10.361,0,0,0,4.741,2.34,2.8,2.8,0,0,0,1.282.021,1.59,1.59,0,0,0,.818-.7,19.411,19.411,0,0,0,1.778-3.47,1.246,1.246,0,0,0,.076-1.128,2.7,2.7,0,0,0-.8-.81c-1.375-1.028-4.319-3.257-5.825-2.554C255.476,269.4,254.9,271.849,254.327,273.037Z" style="fill:#fff;fill-rule:evenodd"/><path d="M267.946,272.916a18.644,18.644,0,0,1-7.863-1.713,18.838,18.838,0,0,1-8.439-7.941,7.614,7.614,0,0,0-6.989-3.9,17.888,17.888,0,0,1-9.62-2.247,17.408,17.408,0,0,1-8.686-13.033.807.807,0,1,1,1.6-.171,15.77,15.77,0,0,0,7.878,11.8,16.356,16.356,0,0,0,8.744,2.041,9.222,9.222,0,0,1,8.481,4.732,16.908,16.908,0,0,0,23.556,6.439.807.807,0,1,1,.852,1.37A18.11,18.11,0,0,1,267.946,272.916Z" style="fill:#adadac"/><path d="M195.326,182.005c1.456,0,1.428-1.561-.027-1.561s-1.428,1.561.027,1.561Z" style="fill:#b8afa7"/><path d="M204.822,182.968c1.456,0,1.427-1.561-.027-1.561s-1.428,1.561.027,1.561Z" style="fill:#b8afa7"/><path d="M214.415,189.289c1.456,0,1.427-1.561-.028-1.561s-1.427,1.561.028,1.561Z" style="fill:#b8afa7"/><path d="M209.009,198.887c1.456,0,1.428-1.561-.027-1.561s-1.428,1.561.027,1.561Z" style="fill:#b8afa7"/><path d="M199.312,195.823c1.456,0,1.428-1.561-.027-1.561s-1.428,1.561.027,1.561Z" style="fill:#b8afa7"/><path d="M203.153,189c1.456,0,1.428-1.561-.027-1.561S201.7,189,203.153,189Z" style="fill:#b8afa7"/><path d="M192.662,189.809c1.456,0,1.427-1.561-.028-1.561s-1.427,1.561.028,1.561Z" style="fill:#b8afa7"/><path d="M332.7,257.29c1.456,0,1.428-1.561-.027-1.561s-1.428,1.561.027,1.561Z" style="fill:#b8afa7"/><path d="M326.9,249.76c1.456,0,1.428-1.561-.027-1.561s-1.428,1.561.027,1.561Z" style="fill:#b8afa7"/><path d="M316.452,244.954c1.456,0,1.427-1.561-.028-1.561s-1.427,1.561.028,1.561Z" style="fill:#b8afa7"/><path d="M311.046,254.552c1.456,0,1.428-1.561-.027-1.561s-1.428,1.561.027,1.561Z" style="fill:#b8afa7"/><path d="M318.752,261.152c1.456,0,1.427-1.561-.028-1.561s-1.427,1.561.028,1.561Z" style="fill:#b8afa7"/><path d="M322.592,254.332c1.456,0,1.428-1.561-.027-1.561s-1.428,1.561.027,1.561Z" style="fill:#b8afa7"/><path d="M327.394,263.63c1.456,0,1.427-1.561-.028-1.561s-1.427,1.561.028,1.561Z" style="fill:#b8afa7"/><g style="opacity:0.39"><path d="M425.991,185.4c-11.209,2.439-3.728-21.195-10.456-47.385-6.7-26.06-25.146-44.794-14.047-47.245s30.975,13.573,37.779,39.644C446.106,156.615,437.21,182.958,425.991,185.4Z" style="fill:#fff"/></g><g style="opacity:0.35000000000000003"><path d="M291.039,24.5c2.071,6.3-17.074,18.252-42.762,26.693s-48.19,10.176-50.261,3.874,15.523-22.775,41.211-31.216S288.968,18.2,291.039,24.5Z" style="fill:#fff"/></g><path d="M360.889,348.649c3.661.706,7.755,1,10.827-1.119,2.526-1.738,3.842-4.791,4.407-7.8.55-2.933.466-6.127-1.06-8.692a11.052,11.052,0,0,0-7.714-4.864,23.91,23.91,0,0,0-9.329.619c.714-1.083,2.3-1.641,2.43-2.931.116-1.121-1.087-2.021-2.214-2.021a6.058,6.058,0,0,0-3.1,1.217q-4.944,3.111-9.814,6.337a2.658,2.658,0,0,0-.6.5,2.8,2.8,0,0,0-.242,2.23c.662,4.152-1.583,10.228,2.177,12.671C350.033,346.986,356.927,347.884,360.889,348.649Z" style="fill:#9dc7c0"/><path d="M336.209,347.786c3.056-.324,6.3-.821,8.415-3.182,2.925-3.26,2.689-8.733,3.506-13.6a5.34,5.34,0,0,0-4.731-6.23c-1.7-.156-3.425-.119-5.107-.107a127.422,127.422,0,0,1-39.171-6.029c-11.188-3.521-20.059-8.984-26.553,2.923-4.945,9.067-2.988,20.5,7.949,22.714C300.185,348.265,316.489,349.878,336.209,347.786Z" style="fill:#e3f2ef"/><path d="M346.5,349.733c1.454-.666,1.944-2.193,2.364-3.888a38.935,38.935,0,0,0,1.086-11.507c-.131-2.381-.742-6.876-1.927-8.945s-3.085-1.656-5.469-1.71a3.82,3.82,0,0,0-2.418.7c-1.179.909-1.475,2.542-1.616,4.024a96.2,96.2,0,0,0,.339,16.571c.114,1.457.279,3.036,1.278,4.1,1.417,1.512,3.668,1.266,5.507.919A3.657,3.657,0,0,0,346.5,349.733Z" style="fill:#aeddd5"/><path d="M99.433,212.856c-2.579-2.694-5.041-5.977-4.931-9.7.09-3.065,1.942-5.826,4.168-7.935,2.166-2.053,4.9-3.714,7.878-3.822a11.053,11.053,0,0,1,8.27,3.843,23.912,23.912,0,0,1,4.538,8.174c.523-1.186.134-2.818,1.145-3.63a2.108,2.108,0,0,1,2.9.764,6.064,6.064,0,0,1,.661,3.268q.066,5.841,0,11.682a2.6,2.6,0,0,1-.088.777c-.236.735-1.035,1.1-1.742,1.413-3.848,1.694-7.736,6.875-11.827,5.041C106.716,221.076,102.224,215.77,99.433,212.856Z" style="fill:#9dc7c0"/><path d="M114.61,235.225c-1.606-3.048-3.182-6.4-2.37-9.866,1.115-4.77,6.131-7.859,9.894-11.516a5.392,5.392,0,0,1,8.119.754c1.12,1.475,2.086,3.074,3.045,4.617A130.94,130.94,0,0,0,159.43,249.72c8.279,7.056,16.5,10.872,11.317,23.311-4.035,9.677-10.459,17.842-17.882,10.595C138.924,270.017,124.751,254.473,114.61,235.225Z" style="fill:#e3f2ef"/><path d="M106.325,225.537c-.228-1.583.79-2.822,1.985-4.095a38.962,38.962,0,0,1,9.08-7.152c2.072-1.18,6.18-3.1,8.561-3.23s3.065,1.693,4.4,3.667a3.812,3.812,0,0,1,.723,2.412c-.124,1.483-1.335,2.617-2.5,3.539a96.138,96.138,0,0,1-14.107,8.7c-1.287.7-2.7,1.412-4.142,1.151-2.038-.371-3.052-2.4-3.757-4.129A3.755,3.755,0,0,1,106.325,225.537Z" style="fill:#aeddd5"/><path d="M108.954,357.212c1.149,4.407,14.722,36.412,18.249,39.921,21.732,21.621,34.229,10.371,62.148,19.927,10.031,3.433,22.363,8.742,31.317,5.038,7.68-3.178,12.676-9.933,17.083-16.464a356.154,356.154,0,0,0,42.913-86.257,7.684,7.684,0,0,0,.568-3.5c-.381-2.845-3.252-5.124-5.829-6.919-24.777-17.264-53.208-31.858-95.238-56.643-12.768-7.529-33.778,29.1-41,40.871C130.423,307.44,103.975,338.126,108.954,357.212Z" style="fill:#e3f2ef"/><path d="M220.92,485.543c-4.658-.671-9.4-.956-14.064-1.607-7.17-1-14.553-3.063-19.759-8.093-9.746-9.416-8.476-23.212-10.875-35.4a343.426,343.426,0,0,1-6.051-42.762,10.844,10.844,0,0,1,.657-5.655c1.868-3.731,6.689-4.019,10.515-3.718,15.087,1.19,53.051-3.471,52.564,18.557-.362,16.355-17.136,38.765-1.734,51.95,4.216,3.608,9.019,6.461,13.405,9.86s8.458,7.511,10.446,12.692,1.482,11.6-2.389,15.576S242.3,501.185,239,496.726c-1.134-1.532-1.707-3.418-2.825-4.961-1.823-2.517-4.866-3.833-7.853-4.692A55.069,55.069,0,0,0,220.92,485.543Z" style="fill:#e3f2ef"/><path d="M55.707,386.515a32.32,32.32,0,0,1-18.5,3.083c-1.725-.226-3.558-.58-5.127.021a6.122,6.122,0,0,0-2.739,2.395c-3.5,5.121-2.8,12.447.21,18.242,2.916,5.617,7.637,9.95,12.338,13.692,19.166,15.255,44.264-2.029,60.257-8.332,17.084-6.733,32.843-13.5,47.108-21.861a10.863,10.863,0,0,0,3.927-3.373c2.32-3.536,1.7-8.222.809-11.767-3.685-14.7-7.922-61.2-27.079-50.285-9.75,5.555-19.277,18.473-28.719,26.834a340.771,340.771,0,0,1-30.434,24A82.092,82.092,0,0,1,55.707,386.515Z" style="fill:#e3f2ef"/><path d="M136.894,391.72c-.345-5.158-1.907-10.316-3.5-15.419-2.056-6.573-4.21-13.21-7.508-19.453-3.315-6.276-12.823-18.7-14.772-17.1-.474,2.464,1.634,6.1,2.7,8.6a184.764,184.764,0,0,1,12.849,44.449c.579,3.754.768,13.55,6.438,13.477C138.2,406.205,137.146,395.466,136.894,391.72Z" style="fill:#aeddd5"/><path d="M222.122,402.8c-4.8-1.113-9.781-1.038-14.717-.914-6.356.159-12.786.4-19.021,1.861-6.268,1.472-19.111,7.261-17.925,9.614,2.2,1.155,5.857.119,8.317-.223a155.974,155.974,0,0,1,42.829-.048c3.542.491,12.593,3.06,13.36-2.5C235.655,405.6,225.61,403.611,222.122,402.8Z" style="fill:#aeddd5"/><path d="M219.108,366.564c-.069.02-.138.037-.209.051-1.293.265-2.557-.471-3.672-1.177l-61.791-39.122c-.917-.581-1.931-1.313-2.024-2.394a3.554,3.554,0,0,1,.681-2.026q6.3-10.731,13.445-20.939c4.149-5.931,7.375-6.572,13.307-3.071q10.064,5.941,20.009,12.081,19.567,12.081,38.652,24.922a2.13,2.13,0,0,1,.609,3.61q-8.123,12.709-16.244,25.419A5.576,5.576,0,0,1,219.108,366.564Z" style="fill:#aeddd5;fill-rule:evenodd"/><path d="M218.229,361.808c-.06.013-.12.023-.182.032a5.337,5.337,0,0,1-3.309-1.174l-56.689-35.895c-.841-.533-1.776-1.2-1.915-2.105a2.58,2.58,0,0,1,.5-1.657q5.016-8.635,10.8-16.792c3.362-4.739,6.181-5.107,11.61-1.873q9.21,5.485,18.327,11.132,17.935,11.109,35.484,22.83a2.874,2.874,0,0,1,1.182,1.182,2.1,2.1,0,0,1-.456,1.865l-13.046,20.388A4.051,4.051,0,0,1,218.229,361.808Z" style="fill:#e2f3f0;fill-rule:evenodd"/><path d="M184.068,316.756c.25-6.7-11.967-5.84-11.4,1.368.476,6.1,9.428,5.636,11.061.488A7,7,0,0,0,184.068,316.756Z" style="fill:#9dc7c0"/><path d="M201.831,327.763c.25-6.7-11.967-5.84-11.4,1.369.476,6.1,9.427,5.635,11.061.488A7.04,7.04,0,0,0,201.831,327.763Z" style="fill:#aeddd5"/><path d="M218.905,338.417c.249-6.7-11.967-5.84-11.4,1.368.475,6.1,9.427,5.636,11.06.489A7.011,7.011,0,0,0,218.905,338.417Z" style="fill:#c4e6e0"/><path d="M283.856,331.778a63.617,63.617,0,0,0,5.869-11.449,9.584,9.584,0,0,0,.947-5.238c-1.2-6.28-7.835-1.307-9.235,2-1,2.367-1.308,4.966-2.072,7.42-1.616,5.19-5.193,9.516-7.579,14.4a2.55,2.55,0,0,0-.36,1.8c.324,1.074,1.8,1.268,2.871.919a9.759,9.759,0,0,0,3.711-2.6A46.163,46.163,0,0,0,283.856,331.778Z" style="fill:#aeddd5"/><path d="M154.106,266.241a108.519,108.519,0,0,1,10.4-11.127c2.549-2.369,12.844-10.858,11.659-2.143a9.736,9.736,0,0,1-2.11,4.581c-2.019,2.544-4.676,4.027-7.122,5.77-7.567,5.394-13.134,13.326-19.467,19.589a2.662,2.662,0,0,1-1.9,1.032c-1.089-.115-1.284-1.624-1-2.77a17.993,17.993,0,0,1,2.453-5.08A103.21,103.21,0,0,1,154.106,266.241Z" style="fill:#aeddd5"/><path d="M178.169,258.8c25.712,27.615,60.032,50.337,100.78,58.166a15.663,15.663,0,0,0,12.83-2.782c4.927-3.879,9.849-11.936.539-13.929-32.906-7.044-70.788-27.386-97.655-51.522a34.048,34.048,0,0,1-4.37-4.724,24.578,24.578,0,0,0-8.184-6.736c-2.595-1.21-4.649-1.243-8.133,1.561C165.492,245.66,173.179,253.438,178.169,258.8Z" style="fill:#aeddd5"/></svg>