<svg id="Layer_1" data-name="Layer 1" xmlns="http://www.w3.org/2000/svg" xmlns:xlink="http://www.w3.org/1999/xlink" viewBox="0 0 500 500"><defs><clipPath id="clip-path"><path d="M128.787,148.94q-.3,1.4-.574,2.8c-4.1,21.06-3.625,43.425,4.834,63.544,9.18,21.836,27.305,39.79,48.327,52.552,31.772,19.288,71.474,27.409,107.816,19.507,22.14-4.815,42.9-15.579,57.763-31.592,24.944-26.864,30.656-64.96,26.781-99.8-3.575-32.146-28.011-55.485-56.788-72.572q-2.219-1.319-4.5-2.547c-28.92-15.616-64-20.208-96.108-13.41-22.163,4.692-42.5,8.69-57.962,24.182C142.737,107.272,133.321,127.875,128.787,148.94Z" style="fill:#f7b552;clip-rule:evenodd"/></clipPath></defs><path d="M422.172,169.572c-6.3,57.319-49.708,108.806-126.956,120.063-69.3,10.1-147.4-21.62-185.46-74.466C71.992,162.731,75.7,92.3,118.751,47.834c43.619-45.056,125.015-60.8,192.868-36.359C392.6,40.643,428.952,107.857,422.172,169.572Z" style="fill:#e2f3f0"/><path d="M79.647,89.226c-4.31.809-6.477,4.28-8.549,8.2a89.741,89.741,0,0,0-9.267,27.641c-.953,5.928-1.772,17.338.3,23.121s7.463,5.888,13.915,7.422a11.482,11.482,0,0,0,6.969-.3c3.713-1.549,5.42-5.4,6.619-8.978,4.456-13.279,6.332-27.207,8.187-41.042.49-3.654.907-7.636-1.231-10.833-3.028-4.526-9.288-5.2-14.476-5.4A11.172,11.172,0,0,0,79.647,89.226Z" style="fill:#aeddd5"/><path d="M432.734,143.425c4.038,2.354,4.933,6.511,5.566,11.071a89.877,89.877,0,0,1-.921,30.231c-1.241,6.1-4.653,17.465-8.89,22.282s-9.677,2.88-16.7,1.931a12.631,12.631,0,0,1-6.847-2.912c-3.13-2.884-3.41-7.235-3.289-11.124.45-14.444,3.707-28.555,6.951-42.573.857-3.7,1.907-7.695,5.219-10.006,4.694-3.274,11.213-1.659,16.492.038A12.184,12.184,0,0,1,432.734,143.425Z" style="fill:#aeddd5"/><path d="M366.894,86.827a4.093,4.093,0,0,0-2.727.015,9.24,9.24,0,0,0-3.326,2.2L337.379,110.1c-1.547,1.389-3.169,2.9-3.605,4.882-.654,2.978,1.611,5.907,4.19,7.81,5.812,4.287,13.589,5.633,19.323,10.013,5.134,3.922,8.6,7.952,14.027,11.508.812-16.575,3.132-32.232-.662-47.807C370.03,93.956,370.061,88.045,366.894,86.827Z" style="fill:#f7b552;fill-rule:evenodd"/><path d="M362.618,99.553c-1.5-.738-3.409,1.7-4.712,2.89L345,114.266a4.961,4.961,0,0,0-1.33,1.609c-.626,1.513.648,3.142,2.122,4.219a29.759,29.759,0,0,0,4.118,2.369l7.54,3.822c2.165,1.1,4.747,2.942,7.159,3.49.765-1.886.207-4.711.2-6.741q-.024-4.073-.21-8.145c-.149-3.258-.065-6.512-.364-9.768-.128-1.4,0-3.6-.866-4.872A1.967,1.967,0,0,0,362.618,99.553Z" style="fill:#f99b50;fill-rule:evenodd"/><path d="M174.7,48.991a4.2,4.2,0,0,1,3.213,1.542,12.009,12.009,0,0,1,2.269,3.927L193.26,85.746a8.469,8.469,0,0,1,.894,3.4c-.084,3.16-3.63,5.023-6.848,5.725-9.917,2.165-21.352-.66-29.994,4.286-3.168,1.814-6.086,5.828-9.847,5.526.663-1.735,4.361-11.048,4.756-12.072,4.3-11.153,6.912-20.306,11.84-31.2C165.677,57.836,169.665,49.273,174.7,48.991Z" style="fill:#f7b552;fill-rule:evenodd"/><path d="M173.772,63.731c1.67-.065,2.446,2.941,3.165,4.564q3.559,8.041,7.12,16.082a5.022,5.022,0,0,1,.578,2.016c-.028,1.642-1.84,2.617-3.616,3a29.532,29.532,0,0,1-4.707.5l-8.417.44c-2.417.127-5.511.768-7.935.29.048-2.04,1.68-4.4,2.5-6.259q1.637-3.723,3.424-7.381c1.429-2.925,2.643-5.942,4.209-8.806.672-1.229,1.433-3.3,2.726-4.114A1.944,1.944,0,0,1,173.772,63.731Z" style="fill:#f99b50;fill-rule:evenodd"/><path d="M128.787,148.94q-.3,1.4-.574,2.8c-4.1,21.06-3.625,43.425,4.834,63.544,9.18,21.836,27.305,39.79,48.327,52.552,31.772,19.288,71.474,27.409,107.816,19.507,22.14-4.815,42.9-15.579,57.763-31.592,24.944-26.864,30.656-64.96,26.781-99.8-3.575-32.146-28.011-55.485-56.788-72.572q-2.219-1.319-4.5-2.547c-28.92-15.616-64-20.208-96.108-13.41-22.163,4.692-42.5,8.69-57.962,24.182C142.737,107.272,133.321,127.875,128.787,148.94Z" style="fill:#f7b552;fill-rule:evenodd"/><g style="clip-path:url(#clip-path)"><path d="M136.4,264.591a338.228,338.228,0,0,1,83.715-85.626c9.1-6.538,24.567-3.695,30.032,6.09A336.033,336.033,0,0,1,288.892,301.32C239.081,304.42,188.169,290.951,136.4,264.591Z" style="fill:#fbf6f2;fill-rule:evenodd"/></g><path d="M230.981,210.253a3.536,3.536,0,0,1-1.322-.254c-2.526-1.013-3.944-4.93-3.228-8.915h0s.047-.265,1.745-9.709l1.558.28-1.744,9.706c-.628,3.5.661,6.527,2.259,7.168,1.745.7,3.946-1.3,5.416-3.416a.791.791,0,1,1,1.3.9C235.062,208.755,232.91,210.252,230.981,210.253Z" style="fill:#333"/><path d="M221.47,208.84c-1.636,0-3.659-1.269-5.077-6.47a.792.792,0,1,1,1.528-.417c.469,1.719,1.8,5.672,3.883,5.27,1.794-.346,4.015-2.737,4.627-6.139h0s.039-.221,1.744-9.71l1.559.281s-1.729,9.619-1.744,9.707c-.668,3.71-3.2,6.9-5.886,7.416A3.357,3.357,0,0,1,221.47,208.84Z" style="fill:#333"/><path d="M229.9,186.246a10.268,10.268,0,0,0-2.929-.046,3.191,3.191,0,0,0-2.316,1.207,2.9,2.9,0,0,0,.142,2.575,7.149,7.149,0,0,0,1.388,2.238,4.275,4.275,0,0,0,2.407,1.3,5.232,5.232,0,0,0,3.271-.785c1-.567,2.512-1.436,2.895-2.45C235.7,187.792,232.478,186.63,229.9,186.246Z" style="fill:#333;fill-rule:evenodd"/><path d="M276.613,201.005a42.04,42.04,0,0,1,6.667,1.508,12.506,12.506,0,0,1,4.653,2.332,4.686,4.686,0,0,1,1.695,4.483c-.6,2.286-3.374,3.4-5.878,3.567a21.541,21.541,0,0,1-7.966-1.149,14.377,14.377,0,0,1-4.6-2.249,6.177,6.177,0,0,1-2.481-4.168C268.361,201.111,273.247,200.528,276.613,201.005Z" style="fill:#f99b50;fill-rule:evenodd"/><path d="M169.293,181.21a42.09,42.09,0,0,1,6.667,1.508,12.5,12.5,0,0,1,4.652,2.332,4.688,4.688,0,0,1,1.7,4.483c-.6,2.286-3.375,3.4-5.879,3.567a21.536,21.536,0,0,1-7.965-1.149,14.382,14.382,0,0,1-4.6-2.249,6.181,6.181,0,0,1-2.481-4.168C161.04,181.316,165.926,180.733,169.293,181.21Z" style="fill:#f99b50;fill-rule:evenodd"/><path d="M148.641,181.549a.8.8,0,0,1-.34-.077,226.1,226.1,0,0,0-23.175-9.482.792.792,0,0,1,.518-1.5,227.745,227.745,0,0,1,23.338,9.549.792.792,0,0,1-.341,1.507Z" style="fill:#333"/><path d="M146.906,186.2a.786.786,0,0,1-.179-.02,185.435,185.435,0,0,0-27.376-4.166.792.792,0,0,1-.73-.849.779.779,0,0,1,.85-.73,187.149,187.149,0,0,1,27.612,4.2.792.792,0,0,1-.177,1.564Z" style="fill:#333"/><path d="M300.351,205.171a.792.792,0,0,1-.025-1.583c7.528-.248,15.125-.844,22.583-1.77a.792.792,0,1,1,.194,1.572c-7.5.932-15.149,1.531-22.725,1.78Z" style="fill:#333"/><path d="M323,217.958a.79.79,0,0,1-.276-.05c-7.189-2.674-14.606-5.028-22.046-6.995a.792.792,0,1,1,.4-1.531c7.49,1.98,14.957,4.349,22.194,7.042a.792.792,0,0,1-.276,1.534Z" style="fill:#333"/><path d="M175.193,155.762a3.734,3.734,0,1,0,3.895-2A3.736,3.736,0,0,0,175.193,155.762Z" style="fill:#333;fill-rule:evenodd"/><path d="M281.692,186a3.734,3.734,0,1,0,3.895-2A3.737,3.737,0,0,0,281.692,186Z" style="fill:#333;fill-rule:evenodd"/><path d="M339.621,254.549a.792.792,0,0,1-.508-1.4,31.6,31.6,0,0,0,6.543-7.479.792.792,0,0,1,1.342.84,33.156,33.156,0,0,1-6.871,7.855A.789.789,0,0,1,339.621,254.549Z" style="fill:#dea34a"/><path d="M355.156,238a.792.792,0,0,1-.641-1.255,26.944,26.944,0,0,0,4.633-10.812.792.792,0,1,1,1.558.286,28.539,28.539,0,0,1-4.907,11.452A.79.79,0,0,1,355.156,238Z" style="fill:#dea34a"/><path d="M347.359,233.744a.792.792,0,0,1-.534-1.376,24.2,24.2,0,0,0,6.1-8.737.792.792,0,0,1,1.469.593,25.773,25.773,0,0,1-6.5,9.313A.786.786,0,0,1,347.359,233.744Z" style="fill:#dea34a"/><path d="M333.969,247.834a.792.792,0,0,1-.383-1.485,36.421,36.421,0,0,0,7.467-5.453.792.792,0,1,1,1.09,1.149,37.958,37.958,0,0,1-7.792,5.69A.778.778,0,0,1,333.969,247.834Z" style="fill:#dea34a"/><path d="M326.937,262.5a.792.792,0,0,1-.513-1.4,27.171,27.171,0,0,0,5.339-6.093.792.792,0,0,1,1.336.852,28.776,28.776,0,0,1-5.65,6.449A.791.791,0,0,1,326.937,262.5Z" style="fill:#dea34a"/><path d="M158.747,223.274a.793.793,0,0,1-.6-.275,18.742,18.742,0,0,1-4.4-9.74.792.792,0,0,1,1.572-.2,17.139,17.139,0,0,0,4.023,8.907.792.792,0,0,1-.6,1.309Z" style="fill:#dea34a"/><path d="M145.56,220.926a.789.789,0,0,1-.655-.347,33.291,33.291,0,0,1-4.291-8.855.792.792,0,0,1,1.513-.471,31.731,31.731,0,0,0,4.086,8.435.792.792,0,0,1-.653,1.238Z" style="fill:#dea34a"/><path d="M151.929,231.394a.789.789,0,0,1-.554-.227,32.535,32.535,0,0,1-4.56-5.584.792.792,0,0,1,1.332-.858,30.867,30.867,0,0,0,4.337,5.311.792.792,0,0,1-.555,1.358Z" style="fill:#dea34a"/><path d="M149.493,202.011a.792.792,0,0,1-.774-.629c-.683-3.235-1.218-6.529-1.591-9.792a.792.792,0,0,1,1.573-.18c.368,3.214.9,6.459,1.568,9.645a.793.793,0,0,1-.612.939A.83.83,0,0,1,149.493,202.011Z" style="fill:#dea34a"/><path d="M138.051,201.227a.794.794,0,0,1-.76-.568,39.9,39.9,0,0,1-1.62-12.871.792.792,0,1,1,1.583.061,38.312,38.312,0,0,0,1.557,12.362.792.792,0,0,1-.535.983A.771.771,0,0,1,138.051,201.227Z" style="fill:#dea34a"/><g style="opacity:0.51"><path d="M138.589,99.72c9.225-21.979,25-40.426,44.628-53.839,4.058-2.773,3.895-7.716-.181-10.364-4.425-2.874-11.362-2.694-15.7.274C145.36,50.808,127.442,71.572,117.106,96.2c-4.106,9.785,17.828,12.232,21.483,3.523Z" style="fill:#fff"/><path d="M229.676,24.351a8.332,8.332,0,0,1-.74,2.14,10.418,10.418,0,0,1-6.392,5.01,17.534,17.534,0,0,1-8.253.168c-4.532-.874-9.087-3.2-11.153-7.306-4.97-9.881,7.149-14.106,14.733-13.271a14.371,14.371,0,0,1,9.68,4.937A10.355,10.355,0,0,1,229.676,24.351Z" style="fill:#fff"/></g><g style="opacity:0.59"><path d="M401.814,133.015c-5.906,4.007-24.344-12.1-41.109-35.857C344.023,73.516,335.285,51.2,341.116,47.2s24.09,11.821,40.847,35.457C398.8,106.408,407.725,129.006,401.814,133.015Z" style="fill:#fff"/></g><path d="M289.367,391.584a65.582,65.582,0,0,0,10.152-3.257c13.264-5.469,24.656-14.592,35.573-23.9,19.512-16.635,41.364-36.463,68.974-34.37,4.878.369,10.058,1.556,13.355,5.171s3.515,10.26-.643,12.844c-5.49,3.408-12.72-.511-18.255-1.837-19.374-4.642-34.057,12.532-47.133,23.832-17.388,15.026-38.442,27.209-61.568,30.086q-1.782.222-3.573.365c-.462.037-.926.07-1.389.1-7.792.485-15.644,2.076-22.544-1.574-2.862-1.514-5.082-4.982-3.63-7.876C268.469,395.768,278.745,394.047,289.367,391.584Z" style="fill:#f7b552;fill-rule:evenodd"/><path d="M374.334,301.342c3.763-.608,7.794-1.768,10-4.876,1.815-2.556,2.007-5.948,1.491-9.041-.5-3.008-1.705-6.045-4.07-7.972a11.3,11.3,0,0,0-9.114-1.961,24.441,24.441,0,0,0-8.738,3.87c.3-1.29,1.627-2.382,1.3-3.667a2.156,2.156,0,0,0-2.835-1.163,6.2,6.2,0,0,0-2.553,2.258q-3.652,4.724-7.2,9.53a2.708,2.708,0,0,0-.407.688,2.857,2.857,0,0,0,.55,2.226c2.094,3.753,2.073,10.375,6.54,11.4C363.328,303.557,370.261,302,374.334,301.342Z" style="fill:#9dc7c0"/><path d="M350.338,309.18c2.819-1.384,5.756-3,6.961-6.01,1.663-4.157-.485-9.328-1.41-14.288a5.457,5.457,0,0,0-6.729-4.319c-1.69.448-3.33,1.088-4.941,1.691A130.279,130.279,0,0,1,304.5,294.22c-11.978.548-22.413-1.581-24.465,12.13-1.564,10.441,4.328,20.726,15.607,19.015C315.921,322.289,332.141,318.113,350.338,309.18Z" style="fill:#e3f2ef"/><path d="M360.9,307.437c1.162-1.15,1.1-2.788.905-4.563a39.808,39.808,0,0,0-3-11.428c-.962-2.24-3.126-6.341-4.991-7.911s-3.543-.507-5.85.278a3.9,3.9,0,0,0-2.076,1.522c-.813,1.286-.524,2.958-.139,4.43a98.418,98.418,0,0,0,6.144,15.79c.621,1.359,1.334,2.817,2.669,3.49,1.89.954,3.965-.073,5.609-1.052A3.759,3.759,0,0,0,360.9,307.437Z" style="fill:#aeddd5"/><path d="M79.865,297.189c-3.8.312-7.991.15-10.878-2.339-2.374-2.047-3.372-5.3-3.611-8.421-.233-3.042.207-6.278,2.043-8.715a11.3,11.3,0,0,1,8.379-4.086,24.444,24.444,0,0,1,9.411,1.666c-.605-1.18-2.151-1.923-2.143-3.248a2.155,2.155,0,0,1,2.474-1.808,6.2,6.2,0,0,1,3.019,1.581q4.677,3.711,9.268,7.531a2.677,2.677,0,0,1,.56.57,2.86,2.86,0,0,1,0,2.293c-1.135,4.145.471,10.57-3.621,12.634C91.081,296.706,83.976,296.852,79.865,297.189Z" style="fill:#9dc7c0"/><path d="M107.4,299.56c-3.454-.69-7.127-1.6-9.357-4.477-3.066-3.959-2.285-9.93-2.763-15.273a5.512,5.512,0,0,1,5.831-5.956c1.892.061,3.783.325,5.625.558a133.832,133.832,0,0,0,41.048-1.08c10.934-2.023,19.262-6.092,25.791,6.04,5.079,9.438,7.419,19.8-3.115,21.018C150.673,302.684,129.205,303.915,107.4,299.56Z" style="fill:#e3f2ef"/><path d="M94.37,299.891c-1.4-.838-1.732-2.445-1.971-4.213a39.826,39.826,0,0,1,.176-11.815c.4-2.4,1.517-6.9,2.952-8.875s3.319-1.341,5.747-1.13a3.9,3.9,0,0,1,2.38.98c1.1,1.055,1.216,2.747,1.2,4.268a98.378,98.378,0,0,1-2.186,16.8c-.278,1.468-.621,3.054-1.755,4.028-1.607,1.378-3.868.878-5.7.321A3.715,3.715,0,0,1,94.37,299.891Z" style="fill:#aeddd5"/><path d="M135.475,398.029c2.651,3.827,7.469,6.18,12.087,8.311,28.456,13.125,58.426,24.405,88.585,23.775,10.835-.226,22.067-2.321,29.362-9.022,6.257-5.747,8.682-13.987,10.619-21.805a364.08,364.08,0,0,0,10.909-97.877,7.848,7.848,0,0,0-.685-3.561c-1.364-2.6-4.921-3.777-8.024-4.6-29.849-7.873-62.27-11.9-111.323-20.936-14.9-2.745-22.209,39.8-25.007,53.634C138.609,342.707,123.994,381.454,135.475,398.029Z" style="fill:#e3f2ef"/><path d="M186.629,474.026a26.868,26.868,0,0,0,5.1,13.614,8.308,8.308,0,0,1,1.841,3.29,4.462,4.462,0,0,1-.457,2.563c-1.814,3.988-6.53,6.2-11.307,6.474s-9.628-1.116-14.246-2.769c-20.68-7.4-20.946-34.039-25.087-50.543-4.77-19.011-9.01-38.142-10.96-57.387a11.1,11.1,0,0,1,.484-5.8c1.785-3.873,6.7-4.327,10.621-4.146,15.454.716,54.086-5.3,54.318,17.219.112,10.874-4.837,23.214-6.663,34.016a297.4,297.4,0,0,0-3.659,32.178A68.863,68.863,0,0,0,186.629,474.026Z" style="fill:#e3f2ef"/><path d="M295.446,466.879a24.478,24.478,0,0,0,10.582,9.286,7.519,7.519,0,0,1,3.092,1.929,4.389,4.389,0,0,1,.748,2.48c.2,4.429-2.945,8.806-7.015,11.509s-8.949,4-13.743,4.936c-21.465,4.2-33.653-18.981-44.692-31.291-12.717-14.18-25.021-28.739-35.369-44.58a10.755,10.755,0,0,1-2.178-5.328c-.172-4.314,3.938-7.25,7.459-9.116,13.881-7.357,45.077-32.584,55.387-12.986,4.978,9.463,6.173,22.823,9.418,33.223A289.438,289.438,0,0,0,290.364,457,65.6,65.6,0,0,0,295.446,466.879Z" style="fill:#e3f2ef"/><path d="M184.442,410.534c-4.15-2.633-8.853-4.2-13.531-5.708-6.024-1.942-12.142-3.834-18.477-4.5-6.367-.671-20.314.576-19.964,3.192,1.692,1.816,5.465,2.04,7.887,2.526A154.618,154.618,0,0,1,180.615,420.1c3.169,1.63,10.838,7.039,13.363,2.037C196.249,417.635,187.457,412.446,184.442,410.534Z" style="fill:#aeddd5"/><path d="M260.129,402.059c-5,.618-9.754,2.438-14.449,4.29-6.046,2.385-12.136,4.87-17.608,8.466-5.5,3.614-15.8,13.682-13.833,15.524,2.518.337,5.666-1.942,7.907-3.134a159.435,159.435,0,0,1,41.1-15.086c3.573-.773,13.164-1.484,11.95-7.088C274.1,399.993,263.762,401.61,260.129,402.059Z" style="fill:#aeddd5"/><path d="M244.51,368.326c-.058.044-.119.084-.182.123-1.148.709-2.62.446-3.939.16L167.33,352.748c-1.084-.236-2.314-.582-2.783-1.587a3.635,3.635,0,0,1-.057-2.185q2.283-12.514,5.554-24.823c1.9-7.151,4.772-8.9,11.7-7.621q11.748,2.171,23.451,4.571,23.028,4.728,45.859,10.355a2.883,2.883,0,0,1,1.678.841,2.914,2.914,0,0,1,.174,2.411l-6.669,30.106A5.69,5.69,0,0,1,244.51,368.326Z" style="fill:#aeddd5;fill-rule:evenodd"/><path d="M242,364.069c-.052.033-.107.065-.163.095a5.455,5.455,0,0,1-3.589.035l-67.027-14.555a3.715,3.715,0,0,1-2.578-1.348,2.634,2.634,0,0,1-.1-1.765q1.783-10.053,4.474-19.915c1.563-5.729,4.141-7.072,10.488-5.874q10.77,2.032,21.5,4.251,21.12,4.368,42.082,9.458a2.943,2.943,0,0,1,1.55.719,2.144,2.144,0,0,1,.217,1.951q-2.683,12.078-5.365,24.154A4.139,4.139,0,0,1,242,364.069Z" style="fill:#e2f3f0;fill-rule:evenodd"/><path d="M193.382,332.813c-2.113-6.517-13.54-1.4-10.469,5.319,2.6,5.689,11.029,2.1,10.79-3.415A7.171,7.171,0,0,0,193.382,332.813Z" style="fill:#9dc7c0"/><path d="M214.3,337.143c-2.112-6.517-13.54-1.4-10.469,5.319,2.6,5.69,11.03,2.1,10.79-3.415A7.171,7.171,0,0,0,214.3,337.143Z" style="fill:#aeddd5"/><path d="M234.432,341.376c-2.112-6.517-13.54-1.4-10.469,5.319,2.6,5.689,11.03,2.1,10.79-3.416A7.17,7.17,0,0,0,234.432,341.376Z" style="fill:#c4e6e0"/><path d="M294.456,312.2a65.022,65.022,0,0,0,1.614-13.052,9.8,9.8,0,0,0-.93-5.361c-3.359-5.608-7.981,1.5-8.163,5.162-.131,2.625.487,5.227.615,7.852.272,5.55-1.644,10.959-2.219,16.486a2.6,2.6,0,0,0,.287,1.854c.688.918,2.177.584,3.079-.125a9.98,9.98,0,0,0,2.648-3.8A47.168,47.168,0,0,0,294.456,312.2Z" style="fill:#aeddd5"/><path d="M147.024,294.4a133.907,133.907,0,0,1,6.071-14.376c1.621-3.3,8.771-16.365,12.205-11.57.738,1.031.622,2.717.071,4.44-1.094,3.422-3.659,6.808-5.747,10.084-6.228,9.77-9,20.137-13.418,29.731-.379.821-.87,1.731-1.619,1.958-1.141.347-1.806-1.137-1.879-2.416a20.9,20.9,0,0,1,.786-5.938A118.86,118.86,0,0,1,147.024,294.4Z" style="fill:#aeddd5"/><path d="M169.666,278.174c36.624,19.664,76.863,30.015,114.725,23.482a13.625,13.625,0,0,0,9.76-6.766c2.895-5.139,2.913-15.514-5.212-14.494-30.063,3.774-69.934-2.411-105.46-18.51a39.879,39.879,0,0,1-6.339-3.591c-5.834-4.067-13.826-9.017-19.636-.211C150.692,268.41,162.215,274.174,169.666,278.174Z" style="fill:#aeddd5"/></svg>