<svg id="Layer_1" data-name="Layer 1" xmlns="http://www.w3.org/2000/svg" xmlns:xlink="http://www.w3.org/1999/xlink" viewBox="0 0 500 500"><defs><clipPath id="clip-path"><path d="M422.234,201.025c2.556,9.218,4.7,18.2,6.474,26.586,1.206,5.65,3.655,11.033,3.3,16.9a.7.7,0,0,1-.773.649l-22.8-2.185a14.847,14.847,0,0,1,4.687,12.756,1.014,1.014,0,0,1-1.488.738,40.565,40.565,0,0,0-14.669-4.4,24.915,24.915,0,0,1,2.207,7.441c.123.933.115,2.055-.652,2.6a2.777,2.777,0,0,1-1.614.345l-20.647.163c-11.338.09-17.781,8.6-28.279,11.887-11.17,3.5-14.814,5.191-26.5,6.06-37.253,2.769-80.626-12.48-108.327-37.156a81.181,81.181,0,0,1-22.9-36.472c-1.385-4.729-1.53-7.862-5.031-11.713-1.357-1.492-14.515-10.645-18-10.436a.245.245,0,0,1-.2-.388,87.969,87.969,0,0,1,8.691-10.336l-14.447-5.1a.8.8,0,0,1-.181-1.425q8.182-5.512,16.366-11.027l-14.99-6.731a.838.838,0,0,1-.118-1.465c40.631-26.895,75.2-68.184,127.357-71.535q2.191-.141,4.39-.19c27.926-.621,55.954,9.819,77.127,27.955C396.179,125.933,412.32,165.273,422.234,201.025Z" style="fill:#fee7d5;clip-rule:evenodd"/></clipPath><clipPath id="clip-path-2"><path d="M130.941,261.292c-8.277-19.649-8.975-24.548-29.06-45.467C82.269,195.4,33.7,182.651,14.9,217.25c-1.246,2.294-2.716,4.043-1.482,4.339,18.461,4.435,30.892.917,33.313,23.488,1.428,13.31-.126,5.054.86,19.559,2.522,37.083,40.8,78.675,78.187,87.821,17.849,4.366,38.058,10.5,56.691,4.5,19.249-6.188,17.525-19.638,29.082-32.867,3.592-8.288,8.14-12.691,3.056-21.524-1.667-2.9-4.741-1.381-7.607-.141-13.224,5.722-31.247,19.089-45.948,17.763C134.325,317.784,140.09,283.012,130.941,261.292Z" style="fill:#ed8c53;clip-rule:evenodd"/></clipPath></defs><path d="M165.007,77.337c-28.8,52.425-21.522,119.513,38.1,168.555,51.778,42.586,132.293,53.837,190.923,28.989,56.931-24.129,92-81.787,84.128-138.225C470.07,78.637,416.781,23.1,349.605,6.081,266.454-14.982,195.917,21.065,165.007,77.337Z" style="fill:#e2f3f0"/><path d="M484.779,188.744c2.733,2.73,2.466,6.524,1.889,10.626a89.858,89.858,0,0,1-7.98,26.314c-2.47,5.146-7.975,14.574-12.6,18.177s-8.685,1.142-14.3-.7a9.338,9.338,0,0,1-5.029-3.557c-1.938-3.006-1.131-6.895-.1-10.319,3.845-12.727,9.967-24.728,16.051-36.639,1.607-3.145,3.444-6.514,6.753-8.011,4.678-2.115,9.667.4,13.593,2.774A9.073,9.073,0,0,1,484.779,188.744Z" style="fill:#aeddd5"/><path d="M171.424,49.177c-4.932-.256-8.205,2.789-11.492,6.329a93.959,93.959,0,0,0-17.34,26.367c-2.576,5.914-6.4,17.533-5.558,23.987s6.788,7.754,13.517,10.765a13.675,13.675,0,0,0,7.72,1.229c4.446-.762,7.281-4.315,9.492-7.693,8.2-12.532,13.768-26.305,19.292-39.992,1.459-3.616,2.924-7.585,1.437-11.382-2.111-5.391-8.722-7.653-14.324-9.159A13.2,13.2,0,0,0,171.424,49.177Z" style="fill:#aeddd5"/><path d="M226.217,65.728c-.228.634-.434,1.322-.619,2.057-1.909,7.595-3.828,15.257-4.1,23.06-.122,3.446.546,10.381,3.525,12.137,2.383,1.405,5.292-2.124,7.969-2.925,8.23-2.462,15.977-6.286,23.679-10.092,2.018-1,4.245-2.238,4.828-4.388.816-3.014-2.022-5.633-4.551-7.455L235.96,63.01C230.82,59.309,227.9,61.068,226.217,65.728Z" style="fill:#f39055;fill-rule:evenodd"/><path d="M236.009,77.705q6.351,4.586,12.231,9.779c.3,1.462-.989,2.722-2.152,3.657a77.419,77.419,0,0,1-7.727,5.714c-2.24,1.383-3.877,3.075-4.683.309-.626-2.148.377-6.292.428-8.554q.115-5.117.458-10.225A.916.916,0,0,1,236.009,77.705Z" style="fill:#fef3dc;fill-rule:evenodd"/><path d="M405.986,106.945c-.18.65-.41,1.33-.684,2.037-2.831,7.3-5.693,14.663-9.977,21.191-1.893,2.882-6.445,8.156-9.892,7.867-2.757-.231-3.091-4.792-4.813-6.993-5.293-6.765-9.405-14.364-13.491-21.92-1.07-1.98-5.138-4.2-4.37-6.293,1.075-2.931,7.872-3.507,10.989-3.532l25.858-.206C405.94,99.046,407.309,102.172,405.986,106.945Z" style="fill:#f39055;fill-rule:evenodd"/><path d="M391.073,111.061q-7.832.07-15.633.911c-1.09,1.02-.766,2.793-.357,4.228a77.4,77.4,0,0,0,3,9.129c1.029,2.423,1.387,4.75,3.643,2.959,1.753-1.392,3.33-5.353,4.6-7.228q2.863-4.244,5.535-8.609A.915.915,0,0,0,391.073,111.061Z" style="fill:#fef3dc;fill-rule:evenodd"/><path d="M422.234,201.025c2.556,9.218,4.7,18.2,6.474,26.586,1.206,5.65,3.655,11.033,3.3,16.9a.7.7,0,0,1-.773.649l-22.8-2.185a14.847,14.847,0,0,1,4.687,12.756,1.014,1.014,0,0,1-1.488.738,40.565,40.565,0,0,0-14.669-4.4,24.915,24.915,0,0,1,2.207,7.441c.123.933.115,2.055-.652,2.6a2.777,2.777,0,0,1-1.614.345l-20.647.163c-11.338.09-17.781,8.6-28.279,11.887-11.17,3.5-14.814,5.191-26.5,6.06-37.253,2.769-80.626-12.48-108.327-37.156a81.181,81.181,0,0,1-22.9-36.472c-1.385-4.729-1.53-7.862-5.031-11.713-1.357-1.492-14.515-10.645-18-10.436a.245.245,0,0,1-.2-.388,87.969,87.969,0,0,1,8.691-10.336l-14.447-5.1a.8.8,0,0,1-.181-1.425q8.182-5.512,16.366-11.027l-14.99-6.731a.838.838,0,0,1-.118-1.465c40.631-26.895,75.2-68.184,127.357-71.535q2.191-.141,4.39-.19c27.926-.621,55.954,9.819,77.127,27.955C396.179,125.933,412.32,165.273,422.234,201.025Z" style="fill:#fee7d5;fill-rule:evenodd"/><g style="clip-path:url(#clip-path)"><path d="M324.485,62.95c-45.217-5.689-94.24,8.23-131.246,31.868a202.273,202.273,0,0,0-28.93,22.387c-3.385,3.151-6.733,6.517-8.655,10.724s-5.723,13.7-3.063,17.484c4.753,6.759,18.457,1.12,26.606-.242a128.79,128.79,0,0,1,48.211,1.117c9.045,1.947,18.253,5.1,24.7,11.741,6.737,6.939,9.587,16.874,10.1,26.531s-1.058,19.286-1.948,28.916a206.149,206.149,0,0,0,.04,38.372c.392,4.142,1.084,8.632,4.114,11.482,5.254,4.941,14.006,1.992,19.623-2.532,17.853-14.378,22.466-39.187,33.3-59.388,2.931-5.465,6.635-10.9,12.2-13.637,7.87-3.874,17.31-1.411,25.458,1.838,34.6,13.8,63.819,47.242,93.325,68.188.349-32.386-.593-77.415-13.051-107.31s-33.73-56.75-62.169-72.247A136.814,136.814,0,0,0,324.485,62.95Z" style="fill:#f39055;fill-rule:evenodd"/></g><path d="M277.43,243.69a23.67,23.67,0,0,1,6.345,3.3c1.8,1.394,3.47,3.28,3.543,5.472.076,2.3-1.611,4.247-3.361,5.775a18.283,18.283,0,0,1-5.636,3.555,10.026,10.026,0,0,1-6.714.208c-2.685-.947-4.657-3.222-6.091-5.608-1.486-2.473-3.692-6.226-3.311-9.011C263.143,240.529,271.443,241.588,277.43,243.69Z" style="fill:#7a523a;fill-rule:evenodd"/><path d="M217.783,177.475a35.451,35.451,0,0,0-5.911-1.655,10.735,10.735,0,0,0-4.7-.074,4.551,4.551,0,0,0-3.346,3.038c-.558,2.191,1.123,4.346,3.011,5.59a18.156,18.156,0,0,0,6.769,2.527,12.324,12.324,0,0,0,4.623.123,5.842,5.842,0,0,0,3.822-2.428C224.213,181.186,220.639,178.55,217.783,177.475Z" style="fill:#f9bebf;fill-rule:evenodd"/><path d="M363.794,223.914a35.4,35.4,0,0,0-5.911-1.655,10.734,10.734,0,0,0-4.7-.074,4.554,4.554,0,0,0-3.346,3.038c-.557,2.191,1.124,4.346,3.012,5.59a18.15,18.15,0,0,0,6.769,2.527,12.324,12.324,0,0,0,4.623.123,5.842,5.842,0,0,0,3.822-2.428C370.225,227.625,366.651,224.989,363.794,223.914Z" style="fill:#f9bebf;fill-rule:evenodd"/><path d="M247.053,174.607a1.009,1.009,0,0,1-1-.858c-.6-3.942-1.847-6.52-3.82-7.88a8.243,8.243,0,0,0-7.5-.486,17.557,17.557,0,0,0-5.288,3.423,1.009,1.009,0,1,1-1.336-1.512,19.487,19.487,0,0,1,5.9-3.8,10.135,10.135,0,0,1,9.372.709c2.455,1.694,3.982,4.716,4.668,9.239a1.008,1.008,0,0,1-.846,1.148A.983.983,0,0,1,247.053,174.607Z" style="fill:#333"/><path d="M350.875,210.311a1.008,1.008,0,0,1-.992-.833,16.046,16.046,0,0,0-1.529-4.746,8.239,8.239,0,0,0-5.967-4.574c-2.376-.275-5.018.842-8.063,3.417a1.009,1.009,0,1,1-1.3-1.54c3.494-2.954,6.638-4.223,9.6-3.881a10.132,10.132,0,0,1,7.52,5.636,18.007,18.007,0,0,1,1.731,5.337,1.009,1.009,0,0,1-.817,1.169A.977.977,0,0,1,350.875,210.311Z" style="fill:#333"/><g style="opacity:0.43"><path d="M208.391,72.733c3.943,10.34,20-7.536,45.857-15.121,25.724-7.547,51.534-1.871,47.661-12.128S273.766,27.04,247.972,34.5C222.048,42.005,204.446,62.384,208.391,72.733Z" style="fill:#fff"/></g><g style="opacity:0.39"><path d="M389.056,75.92c-6.288,2.087-4.042,23.514,5.015,47.858s21.5,42.385,27.784,40.3,8.595-24.963-.462-49.307S395.344,73.832,389.056,75.92Z" style="fill:#fff"/></g><path d="M130.941,261.292c-8.277-19.649-8.975-24.548-29.06-45.467C82.269,195.4,33.7,182.651,14.9,217.25c-1.246,2.294-2.716,4.043-1.482,4.339,18.461,4.435,30.892.917,33.313,23.488,1.428,13.31-.126,5.054.86,19.559,2.522,37.083,40.8,78.675,78.187,87.821,17.849,4.366,38.058,10.5,56.691,4.5,19.249-6.188,17.525-19.638,29.082-32.867,3.592-8.288,8.14-12.691,3.056-21.524-1.667-2.9-4.741-1.381-7.607-.141-13.224,5.722-31.247,19.089-45.948,17.763C134.325,317.784,140.09,283.012,130.941,261.292Z" style="fill:#ed8c53;fill-rule:evenodd"/><g style="clip-path:url(#clip-path-2)"><path d="M128.905,259.641c-1.178-3.092-2.455-6.14-3.86-9.137-.233-.5-1.509-.313-1.246.249,1.4,3,2.682,6.045,3.86,9.137.194.51,1.471.342,1.246-.249Z" style="fill:#cf7a48"/><path d="M116.078,267.66c-1.33-2.571-2.643-5.151-4.052-7.679-.267-.479-1.542-.282-1.246.249,1.41,2.528,2.722,5.108,4.052,7.679.252.488,1.528.3,1.246-.249Z" style="fill:#cf7a48"/><path d="M94.367,265.97q-2.133-3.562-4.455-7c-.3-.441-1.511-.137-1.112.451,1.509,2.223,2.941,4.5,4.321,6.8.281.47,1.555.267,1.246-.249Z" style="fill:#cf7a48"/><path d="M104.18,263.092a59.875,59.875,0,0,1-3.5-7.017c-.213-.5-1.489-.329-1.246.249a59.967,59.967,0,0,0,3.5,7.018c.277.472,1.551.271,1.246-.25Z" style="fill:#cf7a48"/><path d="M87.63,276.233q-1.462-3.477-2.937-6.95c-.213-.5-1.49-.328-1.245.249q1.47,3.474,2.936,6.95c.213.5,1.49.329,1.246-.249Z" style="fill:#cf7a48"/><path d="M74.812,267.69q-1.893-3.564-3.662-7.192c-.24-.493-1.516-.307-1.245.249q1.765,3.63,3.661,7.192c.257.485,1.533.292,1.246-.249Z" style="fill:#cf7a48"/><path d="M60.905,273.493c-.513-1.812-1.071-3.611-1.431-5.462-.112-.576-1.4-.519-1.3.023.375,1.928.947,3.8,1.481,5.689.147.518,1.42.366,1.246-.25Z" style="fill:#cf7a48"/><path d="M55.845,266.19a24.419,24.419,0,0,0-1.879-4.476c-.276-.473-1.55-.273-1.246.249a24.449,24.449,0,0,1,1.879,4.476c.176.515,1.452.353,1.246-.249Z" style="fill:#cf7a48"/><path d="M81.139,258.483a45.906,45.906,0,0,0-3.033-4.672c-.318-.429-1.533-.118-1.112.452a43.817,43.817,0,0,1,2.9,4.469c.27.476,1.545.278,1.246-.249Z" style="fill:#cf7a48"/><path d="M114.527,248.691c-2.188-3.094-4.332-6.219-6.564-9.281-.314-.431-1.529-.122-1.112.451,2.233,3.062,4.376,6.188,6.565,9.281.308.436,1.521.128,1.111-.451Z" style="fill:#cf7a48"/><path d="M69.48,254.569a60.36,60.36,0,0,0-4.133-5.384c-.346-.405-1.567-.082-1.112.452a60.357,60.357,0,0,1,4.134,5.383c.3.441,1.509.137,1.111-.451Z" style="fill:#cf7a48"/><path d="M95.431,247.812c-1.468-2.05-3.03-4.028-4.565-6.027-.325-.424-1.542-.11-1.111.451,1.534,2,3.1,3.977,4.564,6.027.311.434,1.524.126,1.112-.451Z" style="fill:#cf7a48"/><path d="M57.969,257.817a35.367,35.367,0,0,0-3.36-4.344l-.721.641c.116.017.233.03.35.041.68.069,1.187-.744.33-.831-.117-.011-.234-.024-.35-.04-.3-.038-1.131.214-.721.641a35.259,35.259,0,0,1,3.36,4.343c.3.437,1.518.131,1.112-.451Z" style="fill:#cf7a48"/><path d="M111.619,232.447c-2.183-2.126-4.426-4.185-6.761-6.143-.4-.335-1.627.02-1.112.452,2.336,1.957,4.578,4.017,6.762,6.142.378.369,1.6.029,1.111-.451Z" style="fill:#cf7a48"/><path d="M93.938,235.6q-2.6-2.971-5.22-5.918c-.353-.4-1.575-.072-1.112.452q2.618,2.952,5.22,5.917c.35.4,1.572.077,1.112-.451Z" style="fill:#cf7a48"/><path d="M70.481,243.756c-1.629-1.35-3.2-2.768-4.834-4.113-.427-.352-1.515.119-.905.621,1.564,1.289,3.067,2.65,4.628,3.943.4.332,1.628-.023,1.111-.451Z" style="fill:#cf7a48"/><path d="M46.182,259.54c-.621-.816-1.331-1.559-1.981-2.352-.338-.413-1.558-.093-1.111.451.65.793,1.359,1.536,1.981,2.352.323.425,1.54.112,1.111-.451Z" style="fill:#cf7a48"/><path d="M115.045,228.545c-14.874-.565-22.791-5.268-36.315-10.144a.858.858,0,0,0-1.021,1.281c5.047,8.96,8.29,17.593,8.479,27.941.013.756-.844.836-1.368.451a280.2,280.2,0,0,0-24.1-16.152.932.932,0,0,0-1.357.917c.7,11.213-1.031,17.087-11.1,22.918-.517.3-1.288.648-1.5.227-2.852-5.635-2.089-4.771-4.188-12.353-3.314-11.971-3.009-19.9-20.869-11.985-15.95,7.069-31.416,11.9-15.949-15.762,12.22-21.851,45.2-33.121,70.621-23.484,12.582,4.77,18.983,11.627,26.853,20.659,4.933,5.662,8.361,8.778,12.742,14.066C116.709,228.021,116.013,228.581,115.045,228.545Z" style="fill:#fee7d5;fill-rule:evenodd"/></g><path d="M124.609,280.834c-3.456,1.075-7.091,2.707-8.749,5.925-1.364,2.646-1.088,5.861-.189,8.7a12.174,12.174,0,0,0,4.9,6.949,10.732,10.732,0,0,0,8.831.622,23.24,23.24,0,0,0,7.7-4.81c-.114,1.253-1.211,2.457-.734,3.621a2.047,2.047,0,0,0,2.822.714,5.9,5.9,0,0,0,2.1-2.466q2.8-4.929,5.487-9.924a2.569,2.569,0,0,0,.291-.7,2.716,2.716,0,0,0-.816-2.019c-2.473-3.248-3.34-9.476-7.678-9.841C134.658,277.275,128.349,279.67,124.609,280.834Z" style="fill:#9dc7c0"/><path d="M146.117,270.247c-2.465,1.679-5.01,3.591-5.738,6.584-1.007,4.131,1.706,8.7,3.241,13.243a5.183,5.183,0,0,0,6.906,3.158c1.528-.648,2.984-1.47,4.418-2.252a123.713,123.713,0,0,1,36.275-12.817c11.187-2.121,21.282-1.519,21.373-14.684.07-10.026-4.921-18.348-15.294-15.227C178.642,253.864,162.026,259.408,146.117,270.247Z" style="fill:#e3f2ef"/><path d="M136.423,273.3c-.938,1.236-.656,2.768-.238,4.411a37.81,37.81,0,0,0,4.351,10.342c1.205,1.976,3.79,5.542,5.754,6.767s3.4,0,5.463-1.046a3.705,3.705,0,0,0,1.747-1.709c.591-1.318.1-2.851-.464-4.183a93.314,93.314,0,0,0-7.894-14.02,6.387,6.387,0,0,0-2.976-2.924c-1.906-.643-3.719.6-5.133,1.741A3.6,3.6,0,0,0,136.423,273.3Z" style="fill:#aeddd5"/><path d="M387.392,351.251c3,2.03,6,4.644,6.659,8.2.54,2.927-.655,5.925-2.337,8.381a12.17,12.17,0,0,1-6.7,5.235,10.73,10.73,0,0,1-8.633-1.961,23.224,23.224,0,0,1-5.975-6.832c-.254,1.233.448,2.7-.346,3.679a2.047,2.047,0,0,1-2.907-.133,5.886,5.886,0,0,1-1.293-2.967q-1.255-5.531-2.38-11.088a2.541,2.541,0,0,1-.075-.755c.075-.746.758-1.257,1.365-1.7,3.306-2.393,5.94-8.1,10.2-7.2C378.8,344.936,384.148,349.055,387.392,351.251Z" style="fill:#9dc7c0"/><path d="M368.424,333.117c2.146,2.566,4.325,5.423,4.262,8.881-.085,4.754-4.216,8.709-7.041,12.948a5.234,5.234,0,0,1-7.859.94c-1.364-1.172-2.607-2.492-3.832-3.761A127.089,127.089,0,0,0,322.93,328.5c-9.3-5.008-17.882-6.951-15.5-19.816,1.856-10.007,6.286-19.066,14.81-13.7C338.251,305.058,354.874,316.919,368.424,333.117Z" style="fill:#e3f2ef"/><path d="M378.263,340.622c.54,1.455-.173,2.84-1.048,4.291a37.824,37.824,0,0,1-7.159,8.64c-1.725,1.543-5.232,4.208-7.466,4.813s-3.254-.983-4.926-2.583a3.7,3.7,0,0,1-1.178-2.141c-.185-1.434.734-2.757,1.655-3.871a93.437,93.437,0,0,1,11.614-11.135,6.389,6.389,0,0,1,3.695-1.937c2.01-.064,3.386,1.651,4.409,3.152A3.579,3.579,0,0,1,378.263,340.622Z" style="fill:#aeddd5"/><path d="M284.767,411.157c-4.015,1.851-38.986,10.935-43.671,9.761-22.534-5.651-28.859-19.3-53.222-34.37-8.754-5.413-20.332-11.4-23.065-20.4-2.345-7.72-.352-15.629,1.836-22.958a345.781,345.781,0,0,1,38.306-85.319,7.452,7.452,0,0,1,2.278-2.581c2.37-1.466,5.848-.715,8.782.113,28.212,7.963,56.672,20.313,101.153,36.593,13.512,4.945-1.04,43.268-5.427,55.934C306.424,363.271,302.156,403.141,284.767,411.157Z" style="fill:#e3f2ef"/><path d="M117.041,405.028c3.372,3.082,6.5,6.463,9.866,9.564,5.166,4.765,11.26,9.035,18.241,9.845,13.067,1.516,22.638-7.932,33.258-13.633a333.555,333.555,0,0,0,35.817-21.791,10.538,10.538,0,0,0,3.84-3.976c1.649-3.7-1.1-7.494-3.686-10.18-10.183-10.59-30.062-41.95-46.293-28.02-12.051,10.343-18.539,36.73-37.918,33.29-5.3-.941-10.4-2.789-15.654-3.988s-10.845-1.722-15.957-.024-9.618,6.032-10.218,11.385,3.8,11.115,9.18,10.848c1.848-.092,3.616-.823,5.462-.935,3.012-.182,5.874,1.292,8.358,3A53.617,53.617,0,0,1,117.041,405.028Z" style="fill:#e3f2ef"/><path d="M226.258,465.612a31.046,31.046,0,0,1-13.38,13.412c-1.447.769-3.521,1.675-4.574,2.957a4.527,4.527,0,0,0-1.178,3.2c.48,5.774,4.564,10.226,9.585,12.486a25.332,25.332,0,0,0,14.9,2c22.12-3.085,35.569-27.356,44.86-44.233,9.924-18.027,11.291-32.744,13.951-51.657a10.113,10.113,0,0,0-.58-5.077c-1.3-3.641-5.724-6.4-8.828-7.86-12.872-6.069-50.993-32.027-58.508-9.482-3.825,11.474,4.97,25.542,6.881,37.311s3.026,23.182.647,35.034A42.142,42.142,0,0,1,226.258,465.612Z" style="fill:#e3f2ef"/><path d="M280.222,401.624c-4.972-.68-10.182-.2-15.347.317-6.651.67-13.383,1.42-19.964,3.335-6.616,1.925-20.288,8.536-19.15,10.7,2.251.932,6.119-.362,8.705-.891a179.384,179.384,0,0,1,44.777-3.526c3.682.184,13.034,1.92,14.073-3.487C294.25,403.215,283.833,402.118,280.222,401.624Z" style="fill:#aeddd5"/><path d="M178.393,353.177c3.792,2.918,6.8,6.7,9.748,10.481,3.794,4.868,7.576,9.839,10.316,15.421,2.755,5.61,6.319,18.812,3.823,19.372-2.221-.94-3.7-4.323-4.954-6.379A151.38,151.38,0,0,0,170.989,359.9c-2.549-2.356-10.051-7.566-6.353-11.563C167.96,344.744,175.639,351.057,178.393,353.177Z" style="fill:#aeddd5"/><path d="M207.445,333.124c.027.063.057.126.09.188.6,1.133,1.928,1.629,3.144,2.031l67.409,22.281c1,.33,2.173.64,3.042.045a3.452,3.452,0,0,0,1.1-1.759q4.172-11.339,7.436-22.984c1.9-6.766.39-9.581-5.89-11.876q-10.656-3.9-21.387-7.578-21.115-7.245-42.5-13.66a2.068,2.068,0,0,0-3.083,1.767q-4.536,13.92-9.073,27.842A5.41,5.41,0,0,0,207.445,333.124Z" style="fill:#aeddd5;fill-rule:evenodd"/><path d="M211.556,330.855c.026.052.056.1.087.156a5.173,5.173,0,0,0,2.919,1.76l61.845,20.439a3.52,3.52,0,0,0,2.758.141,2.492,2.492,0,0,0,.937-1.393q3.393-9.084,5.951-18.447c1.486-5.441.025-7.783-5.744-9.866q-9.789-3.534-19.639-6.9-19.383-6.618-38.983-12.571a2.806,2.806,0,0,0-1.615-.16,2.038,2.038,0,0,0-1.119,1.492q-3.633,11.172-7.267,22.344A3.933,3.933,0,0,0,211.556,330.855Z" style="fill:#e2f3f0;fill-rule:evenodd"/><path d="M266.4,328.749c4.872-4.312,11.751,5.384,6,9.4-4.871,3.4-10.035-3.6-7.178-8A6.824,6.824,0,0,1,266.4,328.749Z" style="fill:#9dc7c0"/><path d="M247.2,322.2c4.872-4.311,11.752,5.385,6,9.4-4.871,3.4-10.034-3.6-7.177-8A6.8,6.8,0,0,1,247.2,322.2Z" style="fill:#aeddd5"/><path d="M228.693,315.944c4.872-4.311,11.751,5.385,6,9.4-4.871,3.4-10.035-3.605-7.178-8A6.832,6.832,0,0,1,228.693,315.944Z" style="fill:#c4e6e0"/><path d="M193.679,263.113a61.836,61.836,0,0,1,4.978-11.454,9.308,9.308,0,0,1,3.348-3.936c5.453-2.966,5.805,5.075,4.186,8.161-1.16,2.21-2.921,4.04-4.292,6.125-2.9,4.408-3.944,9.757-6.14,14.555a2.474,2.474,0,0,1-1.13,1.378c-1.006.419-2.062-.573-2.458-1.588a9.486,9.486,0,0,1-.33-4.389A44.8,44.8,0,0,1,193.679,263.113Z" style="fill:#aeddd5"/><path d="M322.758,320.128A105.191,105.191,0,0,0,324.7,305.47c.208-3.372.239-16.325-5.571-10.069a9.446,9.446,0,0,0-2.139,4.4c-.666,3.082-.143,5.989.055,8.9.613,9-1.912,18.062-2.713,26.671a2.583,2.583,0,0,0,.4,2.062c.756.746,2.009-.037,2.693-.957a17.471,17.471,0,0,0,2.3-4.969A100.22,100.22,0,0,0,322.758,320.128Z" style="fill:#aeddd5"/><path d="M311.068,297.036c-35.7-2.561-73.082-14.228-103.558-39.251a14.857,14.857,0,0,1-5.786-10.94c-.18-5.841,2.677-14.116,9.789-8.518,25.136,19.786,62.957,35.429,96.832,40.858a32.885,32.885,0,0,0,6.09.417,23.9,23.9,0,0,1,9.871,2.014c2.458,1.179,3.731,2.651,3.814,6.817C328.322,298.578,318,297.533,311.068,297.036Z" style="fill:#aeddd5"/></svg>