<svg id="Layer_1" data-name="Layer 1" xmlns="http://www.w3.org/2000/svg" xmlns:xlink="http://www.w3.org/1999/xlink" viewBox="0 0 500 500"><defs><clipPath id="clip-path"><path d="M365.211,137.915q.462,1.422.894,2.85c6.491,21.454,8.274,44.811,1.359,66.78-7.5,23.843-24.889,44.708-45.874,60.508-31.715,23.88-72.978,37.07-112.312,33.166-23.964-2.379-47.066-11.122-64.462-26.034-29.186-25.018-39.128-64.028-38.574-100.793.51-33.918,22.7-67.456,51.465-88.686q2.219-1.638,4.506-3.189C191.279,62.8,228,53.84,262.735,57.1c23.975,2.249,47.277,10.3,65.252,24.6C346.171,96.164,358.256,116.509,365.211,137.915Z" style="fill:#f3a673;clip-rule:evenodd"/></clipPath></defs><path d="M378.014,79.126c30.645,55.165,25.25,126.835-33.6,180.546-51.1,46.642-132.179,60.591-192.181,35.538-58.264-24.327-95.4-84.917-89.093-145.251C69.625,87.935,121.88,27.453,189.3,7.685,272.752-16.785,345.12,19.912,378.014,79.126Z" style="fill:#e2f3f0"/><path d="M57.971,205.627c-2.684,2.976-2.3,7.013-1.6,11.369a99.907,99.907,0,0,0,8.837,27.848c2.647,5.424,8.488,15.337,13.274,19.063s8.815,1.006,14.441-1.092a9.436,9.436,0,0,0,4.982-3.914c1.871-3.25.941-7.375-.2-11-4.259-13.469-10.8-26.108-17.3-38.653-1.716-3.312-3.671-6.858-7.061-8.372-4.791-2.14-9.761.664-13.662,3.287A9.192,9.192,0,0,0,57.971,205.627Z" style="fill:#aeddd5"/><path d="M370.7,49.273c4.979-.392,8.377,2.773,11.8,6.465a101.23,101.23,0,0,1,18.3,27.676c2.777,6.239,6.982,18.528,6.319,25.426s-6.636,8.428-13.351,11.8a13.182,13.182,0,0,1-7.77,1.5c-4.517-.7-7.487-4.422-9.82-7.968-8.658-13.155-14.689-27.7-20.673-42.148-1.581-3.818-3.178-8.011-1.785-12.094,1.976-5.8,8.594-8.367,14.214-10.108A12.7,12.7,0,0,1,370.7,49.273Z" style="fill:#aeddd5"/><path d="M97.087,126.213c-2.811-3.955-4.526-8.892-3.766-13.683,1.036-6.525,6.58-11.7,12.851-13.781a16.6,16.6,0,0,1,9.925-.459c4.363,1.313,7.651,4.865,10.451,8.46a96.862,96.862,0,0,1,6.446,9.361,15.175,15.175,0,0,1,2.531,6.314c.61,6.745-8.793,18.52-15.581,19.452-4.14.568-8.424-2.949-11.541-5.182C104.231,133.705,100.086,130.432,97.087,126.213Z" style="fill:#f3a673"/><path d="M127.805,117.984c2.816,3,3.695,7.179,4.764,10.446,1.876,5.731-.088,10.268-4.644,10.73s-13.486-3.351-18.21-8.793c-10-11.52-.838-24.029,11.3-17.416A25.555,25.555,0,0,1,127.805,117.984Z" style="fill:#fef3dc"/><path d="M322.692,54.473c.01-4.852-1.44-9.873-4.829-13.346-4.614-4.728-12.13-5.754-18.449-3.827a16.615,16.615,0,0,0-8.368,5.357c-2.8,3.593-3.436,8.391-3.645,12.943a97.059,97.059,0,0,0,.144,11.365,15.189,15.189,0,0,0,1.581,6.616c3.4,5.858,17.875,10.04,23.954,6.88,3.708-1.927,5.174-7.272,6.428-10.9C321.188,64.714,322.681,59.649,322.692,54.473Z" style="fill:#f3a673"/><path d="M292.863,65.5c-.569,4.072,1.13,8,2.144,11.279,1.779,5.762,6,8.331,9.989,6.077s9.074-10.525,9.787-17.7c1.51-15.18-13.195-20.1-19.28-7.692A25.562,25.562,0,0,0,292.863,65.5Z" style="fill:#fef3dc"/><path d="M365.211,137.915q.462,1.422.894,2.85c6.491,21.454,8.274,44.811,1.359,66.78-7.5,23.843-24.889,44.708-45.874,60.508-31.715,23.88-72.978,37.07-112.312,33.166-23.964-2.379-47.066-11.122-64.462-26.034-29.186-25.018-39.128-64.028-38.574-100.793.51-33.918,22.7-67.456,51.465-88.686q2.219-1.638,4.506-3.189C191.279,62.8,228,53.84,262.735,57.1c23.975,2.249,47.277,10.3,65.252,24.6C346.171,96.164,358.256,116.509,365.211,137.915Z" style="fill:#f3a673;fill-rule:evenodd"/><g style="clip-path:url(#clip-path)"><path d="M210.361,121.059c.654,1.211,1.989,2.622,3.136,1.86.782-.52.731-1.664.591-2.593q-5.518-36.673-11.036-73.347c-.21-1.4-.5-2.939-1.616-3.809-3.058-2.382-22.121,1.738-24.7,4.7-4.374,5.025.812,12.214,3.32,17.056C189.828,83.8,200.226,102.382,210.361,121.059Z" style="fill:#333;fill-rule:evenodd"/><path d="M220.4,50.891q2.5,21.162,5,42.323c.414,3.506.791,8.243,3.6,10.776,2.425,2.188,5.231.256,6.562-2.289,1.9-3.633,2.217-7.857,2.5-11.948l3.48-50.766a4.988,4.988,0,0,0-.464-3.118,5.009,5.009,0,0,0-3.139-1.688C233.427,33.04,228.8,31.4,224.087,31.6c-2.506.107-4.221.389-4.766,2.884-.709,3.244-.036,6.972.347,10.217Z" style="fill:#333;fill-rule:evenodd"/><path d="M181.267,116.6a39.141,39.141,0,0,0,3.154,3.853,3.445,3.445,0,0,0,5.885-2.623,33.254,33.254,0,0,0-3.991-13.268c-3.115-5.947-7.4-11.188-11.1-16.785a99.784,99.784,0,0,1-9.367-17.829c-1.83-4.545-2.7-12.433-6.513-15.851-6.452-5.792-10.393-1.925-10.574,4.893C148.245,78.281,170.824,102.524,181.267,116.6Z" style="fill:#333;fill-rule:evenodd"/><path d="M154.342,177.552a1.961,1.961,0,0,1,.929,3.669,19.225,19.225,0,0,1-5.044,1.689c-22.309,4.558-44.8,8.923-67.569,9.311a2.226,2.226,0,0,1-2.7-2.62c-.468-6.2-2.832-17.475-.921-23.936a1.949,1.949,0,0,1,2.279-1.336C91.767,166.542,139.5,177.174,154.342,177.552Z" style="fill:#333;fill-rule:evenodd"/><path d="M87.216,218.3a1.62,1.62,0,0,0-1.195.861c9.663-6.882,23.355-10.053,34.517-13.981,4.552-1.6,12.476-5.814,17.982-5.075a1.255,1.255,0,0,1,.693,2.121c-3.283,3.383-6,6.513-10.4,9.3-3.981,2.519-8.032,4.85-12.15,7.143-6.556,3.651-14.406,10.365-21.808,11.865-6.465,1.31-9.377-4.01-9.586-9.749a1.279,1.279,0,0,1,.838-1.258C87.114,219.162,87.87,218.731,87.216,218.3Z" style="fill:#333;fill-rule:evenodd"/><path d="M94.63,272.481a2.72,2.72,0,0,0-1.57,1.166c12.694-9.339,30.642-15.741,45.283-22.354,5.969-2.7,16.371-8.87,23.577-9.354,1.317-.088,1.824,1.127.893,2.045-4.319,4.257-7.893,8.123-13.675,12.015-5.228,3.519-10.547,6.859-15.952,10.174-8.607,5.28-18.927,14.033-28.628,17.271-8.474,2.829-12.254-2.032-12.494-7.941a1.71,1.71,0,0,1,1.105-1.5C94.491,273.4,95.484,272.785,94.63,272.481Z" style="fill:#333;fill-rule:evenodd"/><path d="M159.644,213.831c1.313-.531,2.881-1.042,4.067-.268a3.042,3.042,0,0,1,.809,3.682,8.878,8.878,0,0,1-2.641,3.077l-43.73,37.371c-1.772,1.514-4.031,3.131-6.227,2.352a6.5,6.5,0,0,1-2.854-2.617c-2.21-3.1-11.038-14.126-9.964-18.094.984-3.639,13.236-6.378,16.749-7.8Z" style="fill:#333;fill-rule:evenodd"/><path d="M166.191,266.427c1.313-.531,2.881-1.042,4.067-.268a3.04,3.04,0,0,1,.809,3.682,8.867,8.867,0,0,1-2.641,3.077L124.7,310.289c-1.772,1.514-4.03,3.131-6.227,2.352a6.51,6.51,0,0,1-2.854-2.617c-2.209-3.1-11.038-14.127-9.964-18.094.985-3.639,13.236-6.378,16.75-7.8Z" style="fill:#333;fill-rule:evenodd"/><path d="M314.461,133.076a1.96,1.96,0,0,0,1.687,3.387,19.172,19.172,0,0,0,4.926-2.008c19.886-11.092,39.786-22.45,57.3-37a2.228,2.228,0,0,0,.342-3.752c-3.69-5.006-9.248-15.095-14.91-18.747a1.948,1.948,0,0,0-2.6.473C354.723,83.925,325.467,123.111,314.461,133.076Z" style="fill:#333;fill-rule:evenodd"/><path d="M391.734,121.318a1.622,1.622,0,0,1,1.468-.127c-11.814,1.083-24.262,7.608-35.286,11.909-4.5,1.753-13.25,3.727-16.943,7.877a1.255,1.255,0,0,0,.859,2.06c4.694.424,8.794,1.027,13.949.268,4.66-.687,9.252-1.561,13.868-2.507,7.352-1.507,17.682-1.536,24.271-5.225,5.756-3.223,4.494-9.155.911-13.642a1.275,1.275,0,0,0-1.455-.407C392.377,121.908,391.522,122.074,391.734,121.318Z" style="fill:#333;fill-rule:evenodd"/><path d="M422.112,169.9a2.719,2.719,0,0,1,1.951-.14c-15.714,1.2-33.5,8.047-48.908,12.579-6.284,1.848-18.195,3.951-23.974,8.283a1.135,1.135,0,0,0,.655,2.132c6.051.412,11.281,1.012,18.2.193,6.258-.741,12.469-1.677,18.729-2.688,9.968-1.61,23.5-1.7,32.966-5.574,8.269-3.38,7.966-9.531,4.294-14.167a1.706,1.706,0,0,0-1.813-.414C422.82,170.511,421.663,170.688,422.112,169.9Z" style="fill:#333;fill-rule:evenodd"/><path d="M338.379,160.78c-1.341.454-2.864,1.088-3.258,2.449a3.041,3.041,0,0,0,1.787,3.319,8.886,8.886,0,0,0,4.01.611l57.522-.182c2.331-.008,5.1-.255,6.255-2.278a6.51,6.51,0,0,0,.457-3.845c-.348-3.794-.843-17.907-4.244-20.216-3.12-2.116-14.194,3.8-17.784,5.01Z" style="fill:#333;fill-rule:evenodd"/><path d="M349.607,208.236c-1.341.454-2.864,1.088-3.258,2.448a3.043,3.043,0,0,0,1.788,3.32,8.879,8.879,0,0,0,4.009.61l57.523-.182c2.33-.007,5.1-.254,6.254-2.277a6.512,6.512,0,0,0,.457-3.846c-.348-3.793-.843-17.907-4.244-20.215-3.119-2.116-14.194,3.8-17.784,5.01Z" style="fill:#333;fill-rule:evenodd"/><path d="M251.258,214.7a11.893,11.893,0,0,1-.366,8.509c-2.017,4.467-8.974,8.953-13.845,8.415s-9.515-5.207-10.508-10.006c-2.237-10.8,13.406-19.3,21.564-11.877A11.524,11.524,0,0,1,251.258,214.7Z" style="fill:#fef3dc;fill-rule:evenodd"/><path d="M273.828,206.681a11.89,11.89,0,0,1-.366,8.51c-2.017,4.466-8.974,8.952-13.845,8.414S250.1,218.4,249.109,213.6c-2.237-10.8,13.406-19.3,21.565-11.877A11.537,11.537,0,0,1,273.828,206.681Z" style="fill:#fef3dc;fill-rule:evenodd"/><path d="M212.5,163.851c-.18-2.022-.33-4.089-.435-6.2-.195-3.9-.2-8.116,1.866-12.213,2.138-4.233,7.012-8.238,12.371-8.595,5.556-.37,9.41,3.088,12.3,6.352,4.8,5.415,8.967,10.062,12.259,15.5,2.964,4.894,6.69,9.614,9.685,13.884a43.9,43.9,0,0,1,6.338,12.213,2.9,2.9,0,0,1-.017,2.3,8.175,8.175,0,0,1-2.705,2.508A81.7,81.7,0,0,1,224,203.125a11.106,11.106,0,0,1-4.941-.515c-1.583-.752-1.859-2.235-2.047-3.626-.858-6.361-1.781-13.2-2.776-20.575C213.61,173.8,212.957,168.962,212.5,163.851Z" style="fill:#fef3dc;fill-rule:evenodd"/><path d="M246.031,227.338c-2.181,0-4.625-1.229-7.287-3.668a1.358,1.358,0,1,1,1.835-2c2.428,2.226,4.517,3.225,6.048,2.893,1.458-.317,2.395-1.87,2.924-3.117a7.256,7.256,0,0,0,.03-4.851l-3.1-9.762a1.358,1.358,0,1,1,2.588-.822l3.1,9.762a9.891,9.891,0,0,1-.117,6.734c-1.12,2.635-2.8,4.264-4.849,4.71A5.506,5.506,0,0,1,246.031,227.338Z" style="fill:#333"/><path d="M258.091,223.5a8.727,8.727,0,0,1-4.524-1.474,9.884,9.884,0,0,1-3.986-5.43l-3.1-9.762a1.358,1.358,0,1,1,2.588-.822l3.1,9.762a7.26,7.26,0,0,0,2.825,3.942c1.154.714,2.816,1.441,4.187.855,1.441-.611,2.57-2.637,3.268-5.855a1.358,1.358,0,0,1,2.654.576c-.905,4.175-2.54,6.793-4.859,7.779A5.463,5.463,0,0,1,258.091,223.5Z" style="fill:#333"/><path d="M216.46,197.614a4.651,4.651,0,0,1,.114-2.854,6.356,6.356,0,0,1,2.649-2.458c6.311-3.816,14.572-3.158,21.58-5.506,5.681-1.9,10.04-6.97,15.825-8.559a12.548,12.548,0,0,1,4.57-.659c5.581.553,8.428,8.339,6.178,12.863-3,6.034-7.151,9.969-11.921,14.18-7.923,6.993-26.934,6.38-36.119-1.438A11.333,11.333,0,0,1,216.46,197.614Z" style="fill:#333;fill-rule:evenodd"/><path d="M174.786,181.265c3.773,2.649,1.078,7.854-3.263,6.3C167.752,184.92,170.445,179.715,174.786,181.265Z" style="fill:#333;fill-rule:evenodd"/><path d="M299.9,144.5c3.772,2.649,1.078,7.855-3.263,6.3C292.863,148.155,295.557,142.95,299.9,144.5Z" style="fill:#333;fill-rule:evenodd"/><path d="M308.342,177.108a49.543,49.543,0,0,0-8.065,3.013c-3.017,1.436-6,3.272-6.984,6.931-.7,5.306,4.259,7.12,8.352,6.923a25.456,25.456,0,0,0,9.759-2.734c3.262-1.576,6.392-3.669,7.571-7.594C320.046,176.015,312.908,175.842,308.342,177.108Z" style="fill:#f9bebf;fill-rule:evenodd"/><path d="M298.688,184.819c1,0,.981-1.072-.018-1.072s-.981,1.072.018,1.072Z" style="fill:#4d4d4e"/><path d="M303.5,180.518c1,0,.981-1.072-.019-1.072s-.98,1.072.019,1.072Z" style="fill:#4d4d4e"/><path d="M311.04,178.76c1,0,.981-1.072-.018-1.072s-.981,1.072.018,1.072Z" style="fill:#4d4d4e"/><path d="M313.379,186.115c1,0,.981-1.073-.019-1.073s-.98,1.073.019,1.073Z" style="fill:#4d4d4e"/><path d="M307.423,189.5c1,0,.981-1.072-.019-1.072s-.98,1.072.019,1.072Z" style="fill:#4d4d4e"/><path d="M305.761,184.275c1,0,.981-1.072-.019-1.072s-.98,1.072.019,1.072Z" style="fill:#4d4d4e"/><path d="M301.379,189.93c1,0,.981-1.072-.018-1.072s-.981,1.072.018,1.072Z" style="fill:#4d4d4e"/><path d="M177.576,217.432a49.582,49.582,0,0,1,8.018-3.138c3.205-.943,6.654-1.568,9.826.5,4.062,3.486,1.579,8.145-1.6,10.729A25.455,25.455,0,0,1,184.727,230c-3.482,1-7.209,1.532-10.707-.6C168.13,224.429,173.332,219.536,177.576,217.432Z" style="fill:#f9bebf;fill-rule:evenodd"/><path d="M189.571,216.864c1,0,.98-1.072-.019-1.072s-.981,1.072.019,1.072Z" style="fill:#4d4d4e"/><path d="M183.116,216.872c1,0,.981-1.072-.018-1.072s-.981,1.072.018,1.072Z" style="fill:#4d4d4e"/><path d="M176.328,220.594c1,0,.98-1.073-.019-1.073s-.981,1.073.019,1.073Z" style="fill:#4d4d4e"/><path d="M179.493,227.632c1,0,.981-1.072-.018-1.072s-.981,1.072.018,1.072Z" style="fill:#4d4d4e"/><path d="M186.189,226.179c1,0,.981-1.072-.019-1.072s-.98,1.072.019,1.072Z" style="fill:#4d4d4e"/><path d="M183.94,221.178c1,0,.98-1.072-.019-1.072s-.981,1.072.019,1.072Z" style="fill:#4d4d4e"/><path d="M190.977,222.467c1,0,.981-1.072-.019-1.072s-.98,1.072.019,1.072Z" style="fill:#4d4d4e"/></g><g style="opacity:0.54"><path d="M323.114,85.308c-4.709,10.672-19.648-9.628-45.2-19.783-25.422-10.1-51.865-6.16-47.232-16.748s29.7-17.325,55.2-7.3C311.508,51.544,327.827,74.629,323.114,85.308Z" style="fill:#fff"/></g><g style="opacity:0.39"><path d="M150.868,73.043c5.891,3.283-.182,25.412-13.565,49.426S108.3,163.29,102.4,160.007s-4.094-27.723,9.289-51.737S144.977,69.76,150.868,73.043Z" style="fill:#fff"/></g><path d="M400.178,212.349c1.594-3.589,2.861-7.72,1.422-11.373-1.184-3-4-5.079-6.963-6.374-2.878-1.26-6.176-1.932-9.169-.975a11.646,11.646,0,0,0-6.822,6.761,25.21,25.21,0,0,0-1.578,9.717c-.941-.988-1.138-2.744-2.43-3.187a2.22,2.22,0,0,0-2.6,1.791,6.386,6.386,0,0,0,.512,3.474q2.019,5.81,4.174,11.572a2.73,2.73,0,0,0,.364.738,2.944,2.944,0,0,0,2.23.778c4.417.305,10.119,4.05,13.518.773C395.9,223.093,398.453,216.233,400.178,212.349Z" style="fill:#9dc7c0"/><path d="M394.741,232.482c.065-2.732-.071-5.549-2.76-7.516-3.447-2.522-9.589-2.671-14.383-3.5-2.806-.486-5.875.81-6.787,2.857a31.253,31.253,0,0,0-1.223,3.5,100.017,100.017,0,0,1-15.637,29.514c-6.521,8.721-13.78,14.419-6.632,28.41,7.108,13.912,9.827,35.94,17.248,21.073C376.73,282.456,394.264,252.633,394.741,232.482Z" style="fill:#e3f2ef"/><path d="M397.876,227.373c-.338-1.649-1.789-2.514-3.428-3.348a41,41,0,0,0-11.549-3.844c-2.473-.43-7.231-.871-9.634-.145s-2.432,2.772-3.053,5.205a4.023,4.023,0,0,0,.145,2.647c.653,1.426,2.258,2.117,3.745,2.613a101.286,101.286,0,0,0,17.082,3.584c1.522.229,3.181.434,4.513-.338,1.887-1.1,2.169-3.463,2.249-5.432A3.889,3.889,0,0,0,397.876,227.373Z" style="fill:#aeddd5"/><path d="M273.078,446.532c4.464,1.755,9.718-5,14.893-5.83,31.879-5.086,60.57-10.781,86.019-28.615,9.143-6.408,17.553-14.642,19.953-24.56,2.059-8.507-.591-16.949-3.416-24.75a375.129,375.129,0,0,0-46.794-90.018,8.094,8.094,0,0,0-2.628-2.654c-2.658-1.441-6.378-.411-9.5.668-30.059,10.38-60.113,25.526-107.274,45.924-14.326,6.2,3.818,46.8,9.357,60.239C240.393,393.219,253.748,438.932,273.078,446.532Z" style="fill:#e3f2ef"/><path d="M339.547,492.623c-4.9.742-9.763,1.9-14.666,2.663-7.533,1.175-15.6,1.344-22.384-2.141-12.692-6.523-19.678-23.641-25.806-35.192a309.555,309.555,0,0,1-17.473-38.263c-.708-1.87,1-4.057,1.354-6.078.747-4.33,5.519-6.089,9.468-6.95,15.571-3.4,52.421-19.656,58.639,2.7,4.617,16.6-5.468,44.3,14.074,52.9,5.348,2.354,11.06,3.767,16.516,5.858s10.814,5,14.4,9.612,5.026,11.243,2.335,16.43-10.137,7.723-14.824,4.233c-1.609-1.2-2.762-2.924-4.358-4.139-2.6-1.983-6.073-2.382-9.346-2.339A58.125,58.125,0,0,0,339.547,492.623Z" style="fill:#e3f2ef"/><path d="M406.15,460.616c-4.924.558-9.827,1.532-14.756,2.113-7.571.894-15.642.762-22.288-2.973-12.44-6.993-14.826-21.385-20.52-33.156a361.725,361.725,0,0,1-17.571-41.949,11.419,11.419,0,0,1-.84-5.937c.908-4.3,5.742-5.878,9.721-6.591,15.687-2.813,49.252-17.865,54.632,4.706,3.994,16.758-3.25,44.238,15.958,53.561,5.256,2.551,10.911,4.176,16.286,6.469s10.62,5.4,14.027,10.143,4.6,11.422,1.721,16.5-10.417,7.34-14.971,3.678c-1.564-1.257-2.651-3.026-4.2-4.3-2.529-2.078-5.98-2.606-9.252-2.685A57.959,57.959,0,0,0,406.15,460.616Z" style="fill:#e3f2ef"/><path d="M316.835,426.255c-5.057-.245-10.067.745-15.024,1.776-6.383,1.328-12.826,2.748-18.839,5.375-6.044,2.641-17.9,10.858-16.255,13.022,2.441.766,5.934-.954,8.35-1.752a159.326,159.326,0,0,1,43.208-7.909c3.668-.153,13.29.787,13-4.979C331.024,426.605,320.509,426.433,316.835,426.255Z" style="fill:#aeddd5"/><path d="M379.2,380.752c-4.374,2.794-7.986,6.6-11.529,10.4-4.562,4.9-9.121,9.913-12.612,15.685-3.509,5.8-8.613,19.73-5.97,20.571,2.49-.805,4.4-4.32,5.959-6.423a164.243,164.243,0,0,1,31.515-32.265c2.978-2.3,11.579-7.222,7.963-11.893C391.277,372.63,382.379,378.723,379.2,380.752Z" style="fill:#aeddd5"/><path d="M345.713,354.412c-.026.071-.054.141-.085.21-.577,1.265-1.987,1.884-3.28,2.395L270.73,385.341c-1.063.42-2.314.829-3.293.238a3.744,3.744,0,0,1-1.3-1.837q-5.223-12.02-9.483-24.428c-2.474-7.21-1.019-10.353,5.64-13.23q11.3-4.879,22.691-9.537,22.419-9.161,45.184-17.437a2.975,2.975,0,0,1,1.918-.243c.814.273,1.219,1.164,1.531,1.964l11.558,29.589C345.675,351.7,346.173,353.142,345.713,354.412Z" style="fill:#aeddd5;fill-rule:evenodd"/><path d="M341.12,352.211c-.026.058-.054.117-.085.175a5.621,5.621,0,0,1-3.052,2.088l-65.707,25.982c-.975.386-2.12.769-2.979.325a2.715,2.715,0,0,1-1.1-1.451q-4.239-9.627-7.592-19.608c-1.948-5.8-.512-8.428,5.607-11.043q10.381-4.435,20.84-8.693,20.579-8.373,41.437-16.039a3.033,3.033,0,0,1,1.739-.274c.724.191,1.054.9,1.3,1.546l9.261,23.747A4.267,4.267,0,0,1,341.12,352.211Z" style="fill:#e2f3f0;fill-rule:evenodd"/><path d="M281.592,353.342c-5.545-4.366-12.392,6.562-5.909,10.555,5.487,3.379,10.643-4.528,7.276-9.111A7.4,7.4,0,0,0,281.592,353.342Z" style="fill:#9dc7c0"/><path d="M301.977,345.051c-5.545-4.366-12.393,6.563-5.909,10.555,5.487,3.379,10.643-4.528,7.275-9.11A7.4,7.4,0,0,0,301.977,345.051Z" style="fill:#aeddd5"/><path d="M321.633,337.128c-5.545-4.366-12.392,6.563-5.909,10.555,5.487,3.379,10.643-4.528,7.275-9.11A7.4,7.4,0,0,0,321.633,337.128Z" style="fill:#c4e6e0"/><path d="M359.934,289.305A105.939,105.939,0,0,0,349.9,275.526c-1.54-1.81-3.234-3.655-5.268-4.467-7.228-2.884-4.46,7.422-1.446,11.089,2.157,2.626,4.835,4.669,7.179,7.1,4.956,5.142,8.219,11.787,12.546,17.541a3.974,3.974,0,0,0,1.8,1.571c1.283.368,2.068-1.069,2.108-2.428a14.64,14.64,0,0,0-1.357-5.648A76.051,76.051,0,0,0,359.934,289.305Z" style="fill:#aeddd5"/><path d="M284.35,357.185c3.311-.924,6.751-2.115,8.714-5.815,2.592-4.882,1.641-12.013,1.827-18.062.111-3.617-2.222-6.706-5.118-6.782a41,41,0,0,0-4.807.279c-21.819,2.01-44.357-1.107-62.191-13.935a16.057,16.057,0,0,0-4.139-2.426c-3.876-1.3-8.278.877-10.629,4.219s-3.026,7.579-3.175,11.663c-.375,10.243-.21,19.949,8.978,26.452,5.5,3.895,12.18,5.685,18.7,7.4C249.022,364.532,267.926,361.946,284.35,357.185Z" style="fill:#e3f2ef"/><path d="M309.953,353.6c3.884.578,8.2.695,11.34-1.669,2.579-1.943,3.824-5.215,4.281-8.412.446-3.11.211-6.467-1.51-9.1a11.639,11.639,0,0,0-8.338-4.767,25.205,25.205,0,0,0-9.786,1.075c.7-1.171,2.341-1.83,2.423-3.193.071-1.185-1.235-2.077-2.421-2.026a6.386,6.386,0,0,0-3.211,1.421q-5.059,3.5-10.036,7.114a2.772,2.772,0,0,0-.614.548,2.945,2.945,0,0,0-.154,2.358c.886,4.338-1.2,10.833,2.867,13.232C298.456,352.346,305.749,352.977,309.953,353.6Z" style="fill:#9dc7c0"/><path d="M250.864,362.835a72.607,72.607,0,0,1-18.467-2.227c-.84-.221-1.664-.439-2.486-.661a.442.442,0,0,1,.232-.854c.819.222,1.641.438,2.459.654,17.892,4.715,37.948.978,51.624-2.986,3.39-.948,6.585-2.088,8.448-5.6,1.91-3.6,1.84-8.538,1.773-13.314-.022-1.514-.043-3.08,0-4.554a6.853,6.853,0,0,0-1.744-4.915,4.239,4.239,0,0,0-2.943-1.412,34.915,34.915,0,0,0-4.216.228l-.539.05c-18.486,1.7-34.89-.423-48.758-6.319a.442.442,0,0,1,.346-.814c13.732,5.837,29.994,7.941,48.331,6.252l.537-.05a36.182,36.182,0,0,1,4.322-.232,5.121,5.121,0,0,1,3.563,1.688,7.75,7.75,0,0,1,1.985,5.551c-.045,1.454-.024,2.941,0,4.515.069,4.887.14,9.94-1.877,13.741-2.026,3.817-5.55,5.074-8.986,6.034C275.283,360.274,263.229,362.835,250.864,362.835Z" style="fill:#bac7c4"/><path d="M295.415,355.3c1.3-.816,1.654-2.618,1.932-4.614a57.143,57.143,0,0,0,.246-13.509c-.278-2.786-1.139-8.038-2.373-10.432s-2.964-1.864-5.173-1.868a2.941,2.941,0,0,0-2.192.88c-1.031,1.094-1.2,3.014-1.23,4.754a143.137,143.137,0,0,0,1.4,19.407c.2,1.7.458,3.55,1.454,4.776,1.41,1.736,3.477,1.392,5.157.939A2.841,2.841,0,0,0,295.415,355.3Z" style="fill:#aeddd5"/><path d="M229.963,320.183c42.619-4.176,82.99-18.393,111.646-45.7a14.04,14.04,0,0,0,4.472-11.387c-.469-6.059-4.142-14.686-10.51-9.154-23.563,20.471-63.493,37.781-103.128,44.376a41.009,41.009,0,0,1-7.485.562,30.249,30.249,0,0,0-12.3,2.572c-3.084,1.486-4.661,3.328-4.624,8.508C208.125,322.708,221.293,321.032,229.963,320.183Z" style="fill:#aeddd5"/></svg>