<svg id="Layer_1" data-name="Layer 1" xmlns="http://www.w3.org/2000/svg" viewBox="0 0 500 500"><path d="M421.666,147.727C421.333,203.506,385.107,258.033,312,278.381c-66.4,18.481-146.976-2.471-191-49.58C76.808,181.515,72.334,110.975,110.862,61.823,149.734,12.234,229.327-11.719,298.825,5.61,380.465,25.967,422.025,87.443,421.666,147.727Z" style="fill:#e2f3f0"/><path d="M75.99,107.458c-4.292,1.292-6.091,5-7.74,9.151a88.449,88.449,0,0,0-6.189,28.637c-.274,6.018.235,17.477,3.028,22.987s8.277,4.972,15,5.732a11.948,11.948,0,0,0,7.03-1.126c3.581-1.975,4.862-6,5.661-9.689,2.972-13.7,3.257-27.762,3.532-41.737.073-3.693.034-7.7-2.5-10.648-3.6-4.171-10.032-4.143-15.327-3.753A11.608,11.608,0,0,0,75.99,107.458Z" style="fill:#aeddd5"/><path d="M429.136,121.37c4.071,1.824,5.33,5.729,6.378,10.049a87.914,87.914,0,0,1,2.087,29.164c-.579,6-2.7,17.29-6.248,22.4s-8.905,3.88-15.68,3.781a11.846,11.846,0,0,1-6.807-2.006c-3.27-2.411-3.97-6.563-4.242-10.319-1.009-13.958.695-27.925,2.4-41.809.45-3.669,1.055-7.64,3.987-10.236,4.154-3.678,10.527-2.835,15.72-1.777A11.406,11.406,0,0,1,429.136,121.37Z" style="fill:#aeddd5"/><path d="M108.63,165.218c-7.9-5.341-12.683-15.063-9.732-25.065,5-16.962,24.407-23.253,38.917-16.688,7.751,3.508,5.911,11.877,5.227,20.384-.534,6.639-1.223,20.358-6.152,25.032-7.772,7.37-19.469,1.67-27.139-2.947Q109.181,165.591,108.63,165.218Z" style="fill:#c5ab8e"/><path d="M116.121,156.851c-4.4-2.81-7.079-7.906-5.459-13.133,2.749-8.866,13.522-12.119,21.6-8.655,4.316,1.85,3.309,6.225,2.946,10.675-.284,3.473-.64,10.649-3.371,13.085-4.3,3.841-10.818.835-15.091-1.595Q116.428,157.046,116.121,156.851Z" style="fill:#ebdccc"/><path d="M400.451,188.75c8.484-4.356,14.4-13.436,12.664-23.718-2.936-17.44-21.446-26.01-36.638-21.23-8.115,2.554-7.291,11.083-7.631,19.611-.265,6.655-1.224,20.358,3.11,25.589,6.833,8.248,19.128,3.989,27.3.324C399.657,189.145,400.057,188.952,400.451,188.75Z" style="fill:#c5ab8e"/><path d="M394.016,179.546c4.707-2.263,7.975-7,6.992-12.385-1.666-9.131-11.972-13.651-20.407-11.18-4.506,1.32-4.031,5.785-4.2,10.246-.134,3.481-.64,10.649,1.779,13.4,3.814,4.328,10.64,2.125,15.173.223Q393.688,179.7,394.016,179.546Z" style="fill:#ebdccc"/><path d="M384.211,168.1q-.078,1.435-.184,2.866c-1.595,21.5-8.075,43.072-21.878,60.393-14.982,18.8-37.8,31.509-62.093,38.429-36.719,10.458-78.306,8.022-112.252-9.087-20.68-10.424-38.387-26.259-48.839-45.657-17.535-32.544-12.963-70.988.25-103.787C151.405,81,182.916,58.58,216.071,49.48q2.558-.7,5.147-1.3c32.9-7.636,68.952-2.977,98.993,11.961,20.735,10.311,38.859,25.6,50.042,44.645C381.567,124.051,385.374,146.486,384.211,168.1Z" style="fill:#c5ab8e;fill-rule:evenodd"/><path d="M215.079,89.408c-16.9,2.087-32.267,10.526-44.175,22.14-14.871,14.5-21.4,40.866-18.621,61.953,7.977,60.55,83.092,70.71,130.817,69.007,19.5-.7,39.745-6.212,54.693-17.939,19.011-14.916,20.109-36.21,20.268-59.389a78.033,78.033,0,0,0-3.713-22.622,84.427,84.427,0,0,0-10.28-22.968,61.74,61.74,0,0,0-38.21-25.91,55.864,55.864,0,0,0-21.941-.051c-6.593,1.3-14.69,7.965-21.276,7.588-6.036-.346-13.44-7.122-19.567-9.119A65.162,65.162,0,0,0,215.079,89.408Z" style="fill:#ebdccc;fill-rule:evenodd"/><path d="M245.2,189.85a5.2,5.2,0,0,1-.787-.06c-2.394-.373-4.536-2.427-6.364-6.106a1.306,1.306,0,0,1,2.339-1.163c1.409,2.836,2.939,4.457,4.427,4.688,1.412.216,2.795-.849,3.7-1.785a6.968,6.968,0,0,0,1.7-4.342l.591-9.834a1.289,1.289,0,0,1,1.382-1.224,1.3,1.3,0,0,1,1.225,1.381l-.591,9.833a9.51,9.51,0,0,1-2.435,6A7.4,7.4,0,0,1,245.2,189.85Z" style="fill:#333"/><path d="M257.376,190.582c-1.956,0-3.839-1.12-5.455-3.25a9.5,9.5,0,0,1-1.7-6.25l.592-9.834a1.289,1.289,0,0,1,1.382-1.224,1.3,1.3,0,0,1,1.225,1.381l-.592,9.833A6.975,6.975,0,0,0,254,185.753c.787,1.038,2.012,2.3,3.462,2.216,1.5-.051,3.218-1.477,4.956-4.124a1.306,1.306,0,0,1,2.183,1.434c-2.256,3.434-4.628,5.218-7.051,5.3C257.493,190.581,257.435,190.582,257.376,190.582Z" style="fill:#333"/><path d="M195.05,143.276c2.469,3.682-1.75,7.421-5.108,4.528C187.473,144.123,191.691,140.384,195.05,143.276Z" style="fill:#333;fill-rule:evenodd"/><path d="M309.951,151.682c2.47,3.681-1.749,7.421-5.107,4.528C302.375,152.529,306.593,148.79,309.951,151.682Z" style="fill:#333;fill-rule:evenodd"/><path d="M252.972,162.855a14.108,14.108,0,0,1,4.158.978,4.69,4.69,0,0,1,2.854,2.649c.382,1.323-.31,2.7-1.1,3.838a10.924,10.924,0,0,1-2.743,2.885,6,6,0,0,1-3.858,1.106,7.374,7.374,0,0,1-4.349-2.355c-1.224-1.214-3.052-3.064-3.24-4.733C244.234,163.12,249.2,162.516,252.972,162.855Z" style="fill:#333;fill-rule:evenodd"/><path d="M203.357,166.947a40.429,40.429,0,0,0-7.019-.074,12.29,12.29,0,0,0-5.213,1.313,5.207,5.207,0,0,0-2.794,4.348c.035,2.586,2.53,4.467,4.985,5.28a20.754,20.754,0,0,0,8.225.782,14.087,14.087,0,0,0,5.143-1.237,6.682,6.682,0,0,0,3.5-3.815C211.56,169.137,206.831,167.286,203.357,166.947Z" style="fill:#f9bebf;fill-rule:evenodd"/><path d="M319.129,171.494a40.428,40.428,0,0,0-7.019-.073,12.264,12.264,0,0,0-5.213,1.313,5.207,5.207,0,0,0-2.794,4.348c.035,2.585,2.531,4.467,4.985,5.28a20.758,20.758,0,0,0,8.226.781,14.076,14.076,0,0,0,5.142-1.236,6.677,6.677,0,0,0,3.5-3.816C327.332,173.684,322.6,171.834,319.129,171.494Z" style="fill:#f9bebf;fill-rule:evenodd"/><path d="M140.659,192.383A16.89,16.89,0,0,0,145.015,204c.419.47,1.867.083,1.316-.535a16.018,16.018,0,0,1-4.137-11.1c.008-.68-1.526-.663-1.535.027Z" style="fill:#b19a80"/><path d="M145.2,169.1q1.09,5.158,2.18,10.316c.143.68,1.668.609,1.534-.027q-1.089-5.158-2.179-10.316c-.144-.68-1.669-.609-1.535.027Z" style="fill:#b19a80"/><path d="M137.511,145.419a33.054,33.054,0,0,0-3.4,13.255c-.031.674,1.5.666,1.534-.026A32.344,32.344,0,0,1,139,145.662c.318-.646-1.2-.829-1.484-.243Z" style="fill:#b19a80"/><path d="M366.4,189.549a42.545,42.545,0,0,1-4.29,16.078c-.317.647,1.2.83,1.484.243a43.283,43.283,0,0,0,4.34-16.348c.044-.67-1.489-.666-1.534.027Z" style="fill:#b19a80"/><path d="M374.287,170.688a32.883,32.883,0,0,1,.445,13.757c-.112.637,1.414.66,1.534-.027a33.392,33.392,0,0,0-.5-14.025c-.153-.614-1.658-.442-1.475.295Z" style="fill:#b19a80"/><path d="M362.39,147.779a42.277,42.277,0,0,1,.481,12.36c-.071.659,1.46.666,1.534-.026a42.24,42.24,0,0,0-.481-12.36c-.127-.684-1.655-.619-1.534.026Z" style="fill:#b19a80"/><path d="M369.145,128.358a63.453,63.453,0,0,1,2.8,10.7c.117.685,1.646.624,1.535-.027a65,65,0,0,0-2.861-10.969c-.216-.607-1.727-.412-1.474.3Z" style="fill:#b19a80"/><path d="M147.169,132.409a108.011,108.011,0,0,0,5.616-12.587c.258-.694-1.257-.853-1.484-.243a107.928,107.928,0,0,1-5.617,12.586c-.332.632,1.181.821,1.485.244Z" style="fill:#b19a80"/><g style="opacity:0.68"><path d="M134.461,98.447a121.8,121.8,0,0,1,21.443-25.3,133.389,133.389,0,0,1,13.539-10.307,108.982,108.982,0,0,1,14.586-8.331c4.963-2.37,9.379-7.659,4.817-12.77-4.282-4.8-13.673-5.663-19.272-2.99-25.788,12.315-47.359,30.8-62.283,55.246-1.315,2.154.108,5.507,1.54,7.118a14.8,14.8,0,0,0,8.467,4.113c6.764.919,13.5-.783,17.163-6.775Z" style="fill:#fff"/><path d="M216.626,35.541a8.323,8.323,0,0,1-1.057,2.009,10.369,10.369,0,0,1-7.081,3.979,17.53,17.53,0,0,1-8.2-1.115c-4.36-1.575-8.528-4.6-9.957-9.007-3.444-10.623,9.234-12.92,16.626-10.892a14.478,14.478,0,0,1,8.83,6.429A10.468,10.468,0,0,1,216.626,35.541Z" style="fill:#fff"/></g><g style="opacity:0.59"><ellipse cx="336.058" cy="71.422" rx="12.603" ry="51.373" transform="translate(72.336 291.619) rotate(-51.859)" style="fill:#fff"/></g><path d="M290.574,384.555c7.625-1.084,15.671.763,23.34,1.01a104.386,104.386,0,0,0,22.762-1.555c12.131-2.3,23.928-7.58,32.671-16.46,8-8.129,13.63-20.026,7.144-30.753-5.756-9.519-18.109-13.861-28.382-9.159-5.054,2.313-9.2,6.817-9.319,12.6a12.74,12.74,0,0,0,8.477,12.246c3.587,1.336,9.15-2.888,4.082-4.776-4.932-1.837-5.377-8.893-2.508-12.6,3.61-4.668,9.949-4.889,14.641-1.86a17.121,17.121,0,0,1,7.752,13.822c.059,6.057-3.55,11.7-7.421,16.095-8.08,9.169-19.765,14.11-31.633,16.018a101.087,101.087,0,0,1-21.371.805c-7.551-.4-14.967-1.722-22.52-.649-1.57.223-3.5,1.627-2.823,3.4.722,1.881,3.488,2.044,5.108,1.814Z" style="fill:#c5ab8e"/><path d="M393.665,274.606c3.563-1.122,7.307-2.819,9.007-6.146,1.4-2.736,1.1-6.053.163-8.978-.914-2.847-2.511-5.621-5.078-7.154a11.077,11.077,0,0,0-9.116-.609,23.966,23.966,0,0,0-7.925,4.992c.113-1.294,1.241-2.54.744-3.74a2.112,2.112,0,0,0-2.914-.726,6.077,6.077,0,0,0-2.155,2.552q-2.873,5.1-5.626,10.263a2.593,2.593,0,0,0-.3.724,2.8,2.8,0,0,0,.849,2.08c2.564,3.343,3.482,9.767,7.96,10.128C383.307,278.316,389.809,275.821,393.665,274.606Z" style="fill:#9dc7c0"/><path d="M371.507,285.611c2.538-1.742,5.157-3.724,5.9-6.815,1.023-4.267-1.793-8.977-3.394-13.655a5.349,5.349,0,0,0-7.138-3.234c-1.575.674-3.075,1.527-4.551,2.341a127.691,127.691,0,0,1-37.389,13.36c-11.537,2.23-21.958,1.646-22,15.233-.034,10.346,7.138,19.483,17.832,16.225C339.993,303.205,355.129,296.855,371.507,285.611Z" style="fill:#e3f2ef"/><path d="M381.5,282.423c.963-1.28.667-2.859.23-4.553a39.059,39.059,0,0,0-4.529-10.657c-1.251-2.035-3.932-5.705-5.962-6.963s-3.508.011-5.634,1.1a3.824,3.824,0,0,0-1.8,1.77c-.606,1.363-.089,2.943.494,4.316a96.3,96.3,0,0,0,8.2,14.439c.8,1.231,1.693,2.543,3.082,3.007,1.969.656,3.836-.634,5.291-1.816A3.744,3.744,0,0,0,381.5,282.423Z" style="fill:#aeddd5"/><path d="M107.091,327.046c-3.231,1.874-6.513,4.349-7.444,7.967-.765,2.976.249,6.148,1.8,8.8,1.514,2.578,3.679,4.935,6.519,5.869a11.077,11.077,0,0,0,9.029-1.4,23.951,23.951,0,0,0,6.64-6.6c.174,1.288-.655,2.75.093,3.813a2.112,2.112,0,0,0,3,.071,6.081,6.081,0,0,0,1.545-2.962q1.688-5.6,3.245-11.244a2.623,2.623,0,0,0,.132-.772c-.024-.774-.69-1.349-1.284-1.845-3.232-2.7-5.533-8.769-9.981-8.141C116.387,321.16,110.588,325.017,107.091,327.046Z" style="fill:#9dc7c0"/><path d="M127.92,309.737c-2.394,2.487-4.841,5.273-5.025,8.837-.253,4.9,3.716,9.269,6.32,13.835a5.4,5.4,0,0,0,8.024,1.532c1.488-1.108,2.862-2.379,4.214-3.6a131.169,131.169,0,0,1,33.635-22.092c9.931-4.489,18.908-5.874,17.375-19.289-1.193-10.435-5.1-20.08-14.264-15.17C161,283.014,143.033,294.033,127.92,309.737Z" style="fill:#e3f2ef"/><path d="M117.252,316.758c-.66,1.459-.025,2.935.772,4.492a38.98,38.98,0,0,0,6.75,9.409c1.665,1.712,5.084,4.707,7.34,5.49s3.421-.778,5.257-2.305a3.828,3.828,0,0,0,1.367-2.12c.293-1.463-.558-2.891-1.426-4.1a96.361,96.361,0,0,0-11.158-12.3c-1.045-1.026-2.208-2.11-3.665-2.259-2.065-.21-3.6,1.457-4.765,2.929A3.705,3.705,0,0,0,117.252,316.758Z" style="fill:#aeddd5"/><path d="M175.757,402.248c3.114,3.336,8.119,4.934,12.9,6.345,29.455,8.691,60.118,15.378,89.274,10.489,10.475-1.756,21.069-5.382,27.192-12.914,5.253-6.461,6.435-14.8,7.2-22.651a356.838,356.838,0,0,0-3.306-96.46,7.686,7.686,0,0,0-1.169-3.356c-1.692-2.325-5.308-2.964-8.434-3.318-30.061-3.4-62.071-2.707-110.92-4.511-14.839-.547-15.89,41.745-16.641,55.557C170.949,348.158,162.272,387.8,175.757,402.248Z" style="fill:#e3f2ef"/><path d="M155.112,456.722a26.344,26.344,0,0,1-9.759,10.381,8.137,8.137,0,0,0-2.909,2.277,4.373,4.373,0,0,0-.556,2.49c.132,4.293,3.557,8.081,7.774,10.13s9.126,2.633,13.927,2.886c21.5,1.133,31.813-22.851,41.8-36.205,11.5-15.384,22.574-31.076,31.617-47.737a10.875,10.875,0,0,0,1.757-5.427c-.149-4.177-4.422-6.447-8.034-7.765-14.242-5.2-46.893-25.255-55.622-4.98-4.214,9.788-4.408,22.816-6.844,33.273a291.2,291.2,0,0,1-8.863,30.476A67.552,67.552,0,0,1,155.112,456.722Z" style="fill:#e3f2ef"/><path d="M248.8,474.1a24,24,0,0,1-5.865,12.489,7.377,7.377,0,0,0-2.022,2.944,4.307,4.307,0,0,0,.3,2.521c1.558,4.057,6.1,6.756,10.812,7.588s9.6.083,14.28-.953c20.929-4.637,22.789-30.24,27.879-45.623,5.865-17.722,11.211-35.622,14.3-53.906a10.536,10.536,0,0,0-.132-5.64c-1.537-3.942-6.379-4.969-10.273-5.265-15.352-1.168-53.261-11.6-54.84,10.045-.763,10.45,3.4,22.919,4.561,33.533a283.4,283.4,0,0,1,1.7,31.4A64.382,64.382,0,0,1,248.8,474.1Z" style="fill:#e3f2ef"/><path d="M183.494,392.1c4.785.552,9.335,2.256,13.828,3.991,5.787,2.234,11.615,4.564,16.852,7.96,5.265,3.414,15.122,12.962,13.243,14.739-2.409.341-5.422-1.814-7.566-2.937a151.539,151.539,0,0,0-39.335-14.109c-3.419-.711-12.6-1.318-11.437-6.686C170.122,390.23,180.019,391.7,183.494,392.1Z" style="fill:#aeddd5"/><path d="M294.133,398.534c-4.938.037-9.772,1.274-14.551,2.547-6.155,1.64-12.364,3.373-18.1,6.256-5.762,2.9-16.922,11.538-15.217,13.553,2.413.612,5.734-1.252,8.05-2.16a156.24,156.24,0,0,1,41.714-10.051c3.565-.349,12.982.04,12.432-5.552C307.97,398.1,297.719,398.506,294.133,398.534Z" style="fill:#aeddd5"/><path d="M277.276,357.978c-.051.051-.1.1-.16.145-1.012.85-2.477.8-3.8.714l-73.1-5.017c-1.085-.075-2.327-.236-2.925-1.144a3.57,3.57,0,0,1-.365-2.11q.44-12.46,1.865-24.86c.829-7.2,3.365-9.306,10.261-9.049q11.7.438,23.39,1.106,23,1.319,45.939,3.536a2.133,2.133,0,0,1,2.257,2.89l-2.2,30.141A5.584,5.584,0,0,1,277.276,357.978Z" style="fill:#aeddd5;fill-rule:evenodd"/><path d="M274.234,354.207c-.046.039-.094.078-.145.115a5.347,5.347,0,0,1-3.475.543l-67.062-4.606a3.639,3.639,0,0,1-2.69-.941,2.587,2.587,0,0,1-.352-1.7q.3-10,1.514-19.946c.7-5.778,3.012-7.446,9.337-7.185q10.731.444,21.455,1.073,21.1,1.239,42.149,3.2a2.881,2.881,0,0,1,1.606.478,2.1,2.1,0,0,1,.486,1.861l-1.776,24.183A4.059,4.059,0,0,1,274.234,354.207Z" style="fill:#e2f3f0;fill-rule:evenodd"/><path d="M222.658,330.794c-2.973-6.02-13.329.559-9.4,6.642,3.327,5.149,10.993.472,9.979-4.842A7.035,7.035,0,0,0,222.658,330.794Z" style="fill:#9dc7c0"/><path d="M243.557,332.025c-2.973-6.02-13.329.559-9.4,6.643,3.327,5.149,10.993.472,9.979-4.842A7.043,7.043,0,0,0,243.557,332.025Z" style="fill:#aeddd5"/><path d="M263.68,333.274c-2.973-6.02-13.329.559-9.4,6.643,3.328,5.148,10.994.471,9.979-4.843A7.036,7.036,0,0,0,263.68,333.274Z" style="fill:#c4e6e0"/><path d="M317.746,296.463a63.741,63.741,0,0,0-.286-12.886,9.611,9.611,0,0,0-1.662-5.067c-4.053-4.962-7.527,2.583-7.185,6.164.246,2.564,1.215,5,1.711,7.526,1.051,5.344-.039,10.861.187,16.3a2.554,2.554,0,0,0,.541,1.757c.8.793,2.194.258,2.968-.558a9.787,9.787,0,0,0,2.029-4.064A46.3,46.3,0,0,0,317.746,296.463Z" style="fill:#aeddd5"/><path d="M172.574,292.442a76.5,76.5,0,0,1,3.258-12.374c.98-2.759,5.481-13.073,8.877-5.961a7.308,7.308,0,0,1,.515,4.289c-.438,2.7-1.958,4.816-3.166,7.057-3.737,6.934-4.48,15.07-6.722,22.213-.191.611-.469,1.292-1.1,1.494-.988.315-1.918-.768-2.254-1.751a13.393,13.393,0,0,1-.474-4.8A73.31,73.31,0,0,1,172.574,292.442Z" style="fill:#aeddd5"/><path d="M189.006,282.638c36.4,14.612,74.6,19.577,113.864,6.562a18.121,18.121,0,0,0,10.658-9.45c3.169-6.577,1.994-20.052-7.384-17.121C272.131,273.255,234,273.768,192.954,260.3c-6.063-3.191-12.954-10.847-16.755,1.646C172.536,273.981,181.717,279.712,189.006,282.638Z" style="fill:#aeddd5"/></svg>