<svg id="Layer_1" data-name="Layer 1" xmlns="http://www.w3.org/2000/svg" viewBox="0 0 500 500"><path d="M438.625,213.956c-20.578,53.154-75.127,91.308-151.777,82.435-68.762-7.959-135.313-58.1-158.241-118.249-22.752-59.686-1.318-126.019,51.1-157.561C232.825-11.377,314.578-5.736,373.185,34.848,443.131,83.285,460.78,156.726,438.625,213.956Z" style="fill:#e2f3f0"/><path d="M131.842,50.186c-4.323-.322-7.275,2.443-10.25,5.662A88.677,88.677,0,0,0,105.718,79.9c-2.417,5.42-6.1,16.111-5.584,22.162s5.633,7.522,11.406,10.626a11.35,11.35,0,0,0,6.734,1.48c3.941-.536,6.551-3.785,8.6-6.894,7.631-11.553,12.961-24.381,18.248-37.126,1.4-3.366,2.806-7.063,1.576-10.661-1.742-5.092-7.55-7.329-12.457-8.832A11.08,11.08,0,0,0,131.842,50.186Z" style="fill:#aeddd5"/><path d="M455.356,191.663c3.26,3.274,3.059,7.473,2.5,11.99A88.77,88.77,0,0,1,449.3,232.3c-2.735,5.514-8.881,15.5-14.152,19.027s-9.976.293-16.447-2.4a12.48,12.48,0,0,1-5.8-4.522c-2.257-3.55-1.42-7.777-.316-11.461,4.1-13.684,10.8-26.335,17.456-38.9,1.76-3.32,3.777-6.867,7.528-8.233,5.316-1.935,11.133,1.264,15.744,4.227A12,12,0,0,1,455.356,191.663Z" style="fill:#aeddd5"/><path d="M233.073,34.44a20.882,20.882,0,0,1,6.649-11.7A17.442,17.442,0,0,1,255.807,19.8a12.672,12.672,0,0,1,6.672,4.532,16.909,16.909,0,0,1,3.182,10.186c-.066,3.214-1.21,8.907-1.731,12.808a18.67,18.67,0,0,1-2.053,7.146c-3.96,6.674-19.4,11.422-25,7.48-3.324-2.34-3.591-8.438-4.016-12.4C232.318,44.455,232.012,39.375,233.073,34.44Z"/><path d="M258.428,47.809a.779.779,0,0,1-.31-.064.792.792,0,0,1-.418-1.039,25.364,25.364,0,0,0,1.641-5.522.792.792,0,0,1,1.559.275,26.909,26.909,0,0,1-1.743,5.868A.792.792,0,0,1,258.428,47.809Z" style="fill:#676767"/><path d="M251.411,47.208l-.791-.008,0-5.066a.791.791,0,0,1,.791-.791h0a.792.792,0,0,1,.791.793l0,5.065Z" style="fill:#676767"/><path d="M244.842,48.132a.793.793,0,0,1-.789-.733,52.876,52.876,0,0,1-.1-6.141.783.783,0,0,1,.824-.759.793.793,0,0,1,.758.825,51.267,51.267,0,0,0,.1,5.957.793.793,0,0,1-.731.849Z" style="fill:#676767"/><path d="M239.31,48.42a.792.792,0,0,1-.779-.656,19.033,19.033,0,0,1-.055-6.219.791.791,0,0,1,1.564.244,17.492,17.492,0,0,0,.051,5.7.792.792,0,0,1-.644.916A.8.8,0,0,1,239.31,48.42Z" style="fill:#676767"/><path d="M242.746,36.639a.838.838,0,0,1-.164-.017.793.793,0,0,1-.612-.938L243,30.773a.792.792,0,1,1,1.55.325l-1.028,4.911A.793.793,0,0,1,242.746,36.639Z" style="fill:#676767"/><path d="M255.717,38.728a.864.864,0,0,1-.15-.014.793.793,0,0,1-.628-.927l.914-4.756a.792.792,0,1,1,1.555.3l-.914,4.756A.791.791,0,0,1,255.717,38.728Z" style="fill:#676767"/><path d="M250.078,37.332a.793.793,0,0,1-.786-.888c.184-1.523.328-3.075.426-4.614a.781.781,0,0,1,.841-.739.791.791,0,0,1,.739.841c-.1,1.568-.246,3.15-.435,4.7A.791.791,0,0,1,250.078,37.332Z" style="fill:#676767"/><path d="M409.125,122.075c3.245-3.757,5.389-8.594,4.883-13.48-.688-6.653-6.264-12.281-12.8-14.831a18.56,18.56,0,0,0-10.48-1.182c-4.687,1-8.372,4.319-11.541,7.711a95.755,95.755,0,0,0-7.343,8.873,14.621,14.621,0,0,0-3.039,6.106c-1.052,6.678,8.068,19.175,15.142,20.662,4.326.909,9.067-2.26,12.5-4.244C401.062,129.03,405.668,126.077,409.125,122.075Z"/><path d="M383.093,108.744a.791.791,0,0,1-.618-1.285,28.137,28.137,0,0,1,4.515-4.493.792.792,0,0,1,.983,1.241,26.579,26.579,0,0,0-4.261,4.24A.79.79,0,0,1,383.093,108.744Z" style="fill:#676767"/><path d="M386.652,115a.792.792,0,0,1-.38-1.487L391,110.94a.792.792,0,1,1,.757,1.391L387.03,114.9A.785.785,0,0,1,386.652,115Z" style="fill:#676767"/><path d="M390.039,120.859a.792.792,0,0,1-.327-1.514,55.963,55.963,0,0,0,5.625-2.936.792.792,0,1,1,.811,1.36,57.754,57.754,0,0,1-5.783,3.019A.789.789,0,0,1,390.039,120.859Z" style="fill:#676767"/><path d="M392.738,125.9a.792.792,0,0,1-.257-1.541,19.184,19.184,0,0,0,5.387-2.855.792.792,0,1,1,.956,1.262,20.746,20.746,0,0,1-5.83,3.091A.8.8,0,0,1,392.738,125.9Z" style="fill:#676767"/><path d="M401.92,116.885a.792.792,0,0,1-.51-1.4l4.053-3.408a.792.792,0,0,1,1.019,1.212l-4.053,3.408A.786.786,0,0,1,401.92,116.885Z" style="fill:#676767"/><path d="M392.985,106.518a.792.792,0,0,1-.5-1.405l3.946-3.22a.792.792,0,0,1,1,1.227l-3.945,3.22A.788.788,0,0,1,392.985,106.518Z" style="fill:#676767"/><path d="M397.315,110.765a.792.792,0,0,1-.458-1.439c1.354-.956,2.754-1.889,4.164-2.772a.792.792,0,1,1,.84,1.342c-1.384.867-2.76,1.784-4.09,2.724A.786.786,0,0,1,397.315,110.765Z" style="fill:#676767"/><path d="M381.828,234.511q-.78,1.285-1.584,2.551c-12.036,18.968-28.447,35.622-49.225,44.9-22.33,9.97-48.421,10.791-72.8,5.789-36.358-7.459-70.436-28.277-91.171-58.294-12.551-18.17-20.2-39.728-20.281-61.284-.132-36.212,20.739-68.585,46.588-92.635,24.143-22.462,61.676-29.986,94.982-24.574q2.589.42,5.162.948c32.937,6.766,63.177,26.53,83.19,53.571,13.9,18.784,22.975,41.165,23.78,63.992C401.284,192.554,393.61,215.105,381.828,234.511Z" style="fill:#fff;fill-rule:evenodd"/><path d="M290.72,174.294a17.866,17.866,0,0,1-9.822,8.01,19.842,19.842,0,0,1-20.95-6.5c-4.772-6.081-5.125-15.04-.833-21.18,9.692-13.863,33.332-6.75,34,10.385A17.129,17.129,0,0,1,290.72,174.294Z" style="fill:#e6e6e6;fill-rule:evenodd"/><path d="M266.055,174.1a5.143,5.143,0,0,1-3.087-.931c-1.694-1.232-2.586-3.621-2.651-7.1a.792.792,0,0,1,.777-.807.781.781,0,0,1,.806.777c.056,2.958.728,4.927,2,5.851s3,.662,4.234.287a6.111,6.111,0,0,0,3.33-2.8l4.4-7.432a.792.792,0,1,1,1.363.807l-4.4,7.432a7.7,7.7,0,0,1-4.231,3.5A8.773,8.773,0,0,1,266.055,174.1Z" style="fill:#333"/><path d="M275.861,179.863a5.269,5.269,0,0,1-2.257-.473c-1.581-.74-2.678-2.342-3.171-4.633a7.624,7.624,0,0,1,1.03-5.384l4.4-7.432a.792.792,0,0,1,1.363.807l-4.4,7.432a6.025,6.025,0,0,0-.843,4.243,4.864,4.864,0,0,0,2.293,3.533c1.441.673,3.523.307,6.187-1.093a.792.792,0,0,1,.737,1.4A11.841,11.841,0,0,1,275.861,179.863Z" style="fill:#333"/><path d="M289.069,163.7a2.644,2.644,0,0,1-.535.7c-1.232,1.144-3.445,1.054-5.4.608a24.722,24.722,0,0,1-12.689-7.705,9.586,9.586,0,0,1-1.776-2.645,3.106,3.106,0,0,1,.037-2.759,3.214,3.214,0,0,1,1.619-1.205c6.019-2.343,14.427,2.188,17.844,7.746a8.093,8.093,0,0,1,1.241,3.131A3.592,3.592,0,0,1,289.069,163.7Z" style="fill:#333"/><path d="M327.6,207.833a42.739,42.739,0,0,0-6.221-3.255,12.849,12.849,0,0,0-5.2-1.264,4.944,4.944,0,0,0-4.369,2.378c-1.092,2.181.3,4.889,2.123,6.686a21.827,21.827,0,0,0,6.963,4.4,14.835,14.835,0,0,0,5.118,1.313,6.541,6.541,0,0,0,4.793-1.6C333.97,213.418,330.556,209.7,327.6,207.833Z" style="fill:#f9bebf;fill-rule:evenodd"/><path d="M212.348,146.716a39.7,39.7,0,0,0-5.925-3.1,11.867,11.867,0,0,0-4.955-1.168,4.738,4.738,0,0,0-4.151,2.381c-1.034,2.146.3,4.775,2.036,6.507a20.363,20.363,0,0,0,6.636,4.212,13.711,13.711,0,0,0,4.872,1.216,6.178,6.178,0,0,0,4.555-1.629C218.418,152.091,215.161,148.505,212.348,146.716Z" style="fill:#f9bebf;fill-rule:evenodd"/><path d="M220.349,139.159a47.621,47.621,0,0,0,27.138.709c8.038-2.225,16.729-7.05,11.85-16.165C254.7,115.04,245.588,112.885,236,109.331c-12.421-4.605-35.729-9.657-36.788,6.354-.325,4.908,1.846,9.925,5.321,13.819a34.434,34.434,0,0,0,13.164,8.7Q219.006,138.724,220.349,139.159Z" style="fill-rule:evenodd"/><path d="M247.654,126.364c.621,4.459-4.982,5.847-6.782,1.687C240.253,123.6,245.85,122.2,247.654,126.364Z" style="fill:#cccccb;fill-rule:evenodd"/><path d="M327.508,199.751a48.662,48.662,0,0,1-14.481-23.774c-2.055-8.16-2.1-18.137,8.561-18.38,10.194-.232,16.839,6.716,25.058,13.439,10.736,8.781,27.816,27.283,13.489,36.208-4.377,2.727-10.161,3.235-15.575,2a37.3,37.3,0,0,1-14.817-7.585Q328.6,200.74,327.508,199.751Z" style="fill-rule:evenodd"/><path d="M325.133,169.171c-4.348,1.655-2.75,7.285,1.938,6.823C331.43,174.342,329.827,168.7,325.133,169.171Z" style="fill:#cccccb;fill-rule:evenodd"/><g style="opacity:0.68"><path d="M182.9,69.016a117.338,117.338,0,0,1,56.767-33.742c3.906-1.01,9.606-4.079,7.51-9.045-1.949-4.619-9.3-5.934-13.59-4.824C207,28.283,182.515,41.723,163.819,62.034c-3.548,3.854.219,8.389,4.111,9.843,4.805,1.794,11.369,1.052,14.972-2.861Z" style="fill:#fff"/><path d="M292.74,31.276a8.231,8.231,0,0,1-1.406,1.741,10.3,10.3,0,0,1-7.624,2.512,17.339,17.339,0,0,1-7.73-2.614c-3.92-2.334-7.374-6.024-7.916-10.536-1.3-10.855,11.382-10.715,18.152-7.392a14.2,14.2,0,0,1,7.343,7.839A10.236,10.236,0,0,1,292.74,31.276Z" style="fill:#fff"/></g><g style="opacity:0.59"><path d="M428.465,173.864c-6.659,2.327-20.181-17.74-30.16-44.7-9.928-26.821-12.605-50.363-6.019-52.7S412.3,93.876,422.3,120.712C432.35,147.682,435.13,171.535,428.465,173.864Z" style="fill:#fff"/></g><path d="M359.451,327.675c3.748.376,7.894.291,10.792-2.116,2.383-1.981,3.428-5.173,3.721-8.258.285-3-.093-6.208-1.863-8.649a11.168,11.168,0,0,0-8.208-4.19,24.19,24.19,0,0,0-9.33,1.477c.619-1.154,2.16-1.861,2.177-3.171a2.132,2.132,0,0,0-2.413-1.832,6.138,6.138,0,0,0-3.012,1.509q-4.69,3.584-9.3,7.276a2.619,2.619,0,0,0-.564.553,2.826,2.826,0,0,0-.04,2.266c1.047,4.118-.656,10.438,3.351,12.552C348.374,327,355.393,327.268,359.451,327.675Z" style="fill:#9dc7c0"/><path d="M334.537,329.066c3.045-.606,6.261-1.4,8.176-3.973,2.646-3.548,1.907-9.033,2.284-14.006a5.4,5.4,0,0,0-5.331-5.836c-1.728,0-3.457.194-5.149.36a128.792,128.792,0,0,1-39.969-2.481c-11.581-2.52-21.007-7.2-26.452,5.371-4.145,9.577-1.13,20.9,10.078,22.129C298.331,332.845,314.885,332.976,334.537,329.066Z" style="fill:#e3f2ef"/><path d="M345.067,330.083c1.4-.8,1.755-2.384,2.023-4.128a39.346,39.346,0,0,0,.039-11.679c-.35-2.383-1.375-6.851-2.758-8.825s-3.256-1.384-5.659-1.22a3.857,3.857,0,0,0-2.37.926c-1.1,1.022-1.252,2.693-1.258,4.2A97.192,97.192,0,0,0,336.942,326c.248,1.456.559,3.03,1.662,4.012,1.564,1.391,3.807.938,5.626.42A3.684,3.684,0,0,0,345.067,330.083Z" style="fill:#aeddd5"/><path d="M89.777,202.087c-2.728-2.6-5.365-5.8-5.426-9.566-.051-3.1,1.69-5.971,3.84-8.2,2.091-2.172,4.77-3.975,7.775-4.222a11.167,11.167,0,0,1,8.525,3.5,24.158,24.158,0,0,1,4.959,8.04c.473-1.222,0-2.851.988-3.717a2.13,2.13,0,0,1,2.961.636,6.127,6.127,0,0,1,.818,3.269q.337,5.892.537,11.791a2.665,2.665,0,0,1-.052.788c-.2.753-.994,1.16-1.693,1.507-3.806,1.889-7.491,7.3-11.7,5.636C97.509,210.047,92.729,204.9,89.777,202.087Z" style="fill:#9dc7c0"/><path d="M106.132,223.964c-1.762-3-3.507-6.311-2.849-9.849.905-4.867,5.825-8.217,9.454-12.083a5.449,5.449,0,0,1,8.23.387c1.2,1.437,2.247,3.006,3.287,4.518a132.3,132.3,0,0,0,27.789,29.582c8.683,6.74,17.163,10.21,12.5,23.007-3.625,9.953-9.731,18.492-17.559,11.521C132.284,257.955,117.259,242.922,106.132,223.964Z" style="fill:#e3f2ef"/><path d="M97.322,214.568c-.305-1.587.665-2.885,1.813-4.225a39.366,39.366,0,0,1,8.834-7.639c2.037-1.287,6.094-3.42,8.492-3.657s3.172,1.568,4.613,3.5a3.856,3.856,0,0,1,.841,2.4c-.057,1.5-1.226,2.7-2.364,3.688a97.143,97.143,0,0,1-13.836,9.435c-1.267.761-2.663,1.551-4.127,1.354-2.074-.28-3.192-2.277-3.984-3.994A3.726,3.726,0,0,1,97.322,214.568Z" style="fill:#aeddd5"/><path d="M106.718,359.351c1.561,4.33,5.564,7.8,9.435,11.01,23.848,19.767,49.61,38.157,78.579,45.217,10.408,2.537,21.67,3.388,30.34-1.159,7.437-3.9,11.847-11.156,15.684-18.131a359.9,359.9,0,0,0,35.287-90.725,7.766,7.766,0,0,0,.251-3.575c-.644-2.829-3.742-4.859-6.5-6.43-26.513-15.1-56.459-27.187-101.021-48.281-13.537-6.408-31.326,32.376-37.514,44.88C123.767,307.3,99.962,340.6,106.718,359.351Z" style="fill:#e3f2ef"/><path d="M62.707,387.33a26.567,26.567,0,0,1-13.977,3.335,8.219,8.219,0,0,0-3.714.305,4.408,4.408,0,0,0-1.849,1.79c-2.27,3.689-1.484,8.78.932,12.844s6.229,7.279,10.133,10.155c17.482,12.873,39.473-1.612,55.291-7.326,18.223-6.582,36.25-13.664,53.107-22.686a10.969,10.969,0,0,0,4.489-3.6c2.191-3.6-.15-7.883-2.462-11-9.117-12.277-25.5-47.278-44.1-35.037-8.979,5.91-16.366,16.778-24.216,24.238a293.977,293.977,0,0,1-24.366,20.761A68.116,68.116,0,0,1,62.707,387.33Z" style="fill:#e3f2ef"/><path d="M221.992,474.059a24.191,24.191,0,0,0,5.612,12.734,7.423,7.423,0,0,1,1.967,3.018,4.343,4.343,0,0,1-.363,2.535c-1.669,4.052-6.311,6.664-11.085,7.389s-9.687-.148-14.375-1.305c-20.991-5.181-22.248-31.041-27.01-46.676-5.485-18.01-10.444-36.188-13.113-54.7a10.611,10.611,0,0,1,.269-5.683c1.644-3.938,6.552-4.856,10.485-5.061,15.507-.807,53.983-10.41,55.053,11.453.517,10.555-3.981,23.027-5.409,33.7a285.907,285.907,0,0,0-2.469,31.623A64.9,64.9,0,0,0,221.992,474.059Z" style="fill:#e3f2ef"/><path d="M117.926,353.019c4.215,2.414,7.755,5.8,11.23,9.2,4.476,4.372,8.951,8.849,12.456,14.079,3.522,5.258,8.863,18.027,6.415,18.927-2.368-.642-4.3-3.837-5.846-5.73a152.792,152.792,0,0,0-30.85-28.718c-2.886-2.019-11.152-6.229-7.943-10.744C106.273,345.971,114.864,351.265,117.926,353.019Z" style="fill:#aeddd5"/><path d="M217.363,401.242c-4.739-1.531-9.76-1.882-14.739-2.179-6.413-.383-12.907-.695-19.31.247-6.437.946-19.862,5.676-18.87,8.146,2.117,1.352,5.888.621,8.393.487a157.562,157.562,0,0,1,43.125,3.615c3.524.8,12.417,4.158,13.664-1.371C230.748,405.217,220.805,402.354,217.363,401.242Z" style="fill:#aeddd5"/><path d="M218.419,358.679c-.067.027-.135.05-.205.071-1.276.385-2.616-.24-3.8-.848L148.652,324.19c-.976-.5-2.063-1.144-2.256-2.223a3.592,3.592,0,0,1,.5-2.1q5.361-11.375,11.612-22.3c3.633-6.348,6.82-7.288,13.11-4.308q10.671,5.058,21.241,10.325,20.8,10.366,41.176,21.541a2.153,2.153,0,0,1,.942,3.577l-14.019,27.065A5.632,5.632,0,0,1,218.419,358.679Z" style="fill:#aeddd5;fill-rule:evenodd"/><path d="M217.1,353.974c-.058.018-.118.035-.18.049a5.4,5.4,0,0,1-3.437-.879l-60.33-30.931c-.895-.459-1.9-1.042-2.119-1.943a2.606,2.606,0,0,1,.349-1.713q4.258-9.149,9.333-17.886c2.949-5.076,5.753-5.7,11.511-2.947q9.771,4.677,19.461,9.524,19.065,9.539,37.8,19.725a2.915,2.915,0,0,1,1.3,1.081,2.122,2.122,0,0,1-.29,1.919q-5.629,10.855-11.261,21.71A4.091,4.091,0,0,1,217.1,353.974Z" style="fill:#e2f3f0;fill-rule:evenodd"/><path d="M178.6,311.766c-.362-6.762-12.577-4.781-11.351,2.421,1.037,6.095,10,4.808,11.175-.521A7.087,7.087,0,0,0,178.6,311.766Z" style="fill:#9dc7c0"/><path d="M197.483,321.217c-.362-6.762-12.577-4.781-11.351,2.421,1.037,6.1,10,4.808,11.175-.521A7.087,7.087,0,0,0,197.483,321.217Z" style="fill:#aeddd5"/><path d="M215.639,330.374c-.362-6.762-12.577-4.781-11.352,2.421,1.038,6.1,10,4.809,11.176-.521A7.08,7.08,0,0,0,215.639,330.374Z" style="fill:#c4e6e0"/><path d="M280.39,317.749a64.274,64.274,0,0,0,4.858-12.057,9.687,9.687,0,0,0,.474-5.358c-1.784-6.21-8-.6-9.11,2.857-.792,2.474-.862,5.117-1.406,7.657-1.151,5.37-4.355,10.051-6.309,15.184a2.578,2.578,0,0,0-.2,1.844c.424,1.052,1.931,1.112,2.973.663a9.875,9.875,0,0,0,3.5-2.96A46.581,46.581,0,0,0,280.39,317.749Z" style="fill:#aeddd5"/><path d="M147.425,256.3a77.1,77.1,0,0,1,7.941-10.175c2-2.167,10.278-9.938,10.6-2a7.38,7.38,0,0,1-1.228,4.181c-1.478,2.325-3.73,3.685-5.741,5.283-6.22,4.941-10.144,12.187-15.062,17.916a2.046,2.046,0,0,1-1.615.947c-1.041-.1-1.473-1.474-1.392-2.519a13.479,13.479,0,0,1,1.468-4.636A73.98,73.98,0,0,1,147.425,256.3Z" style="fill:#aeddd5"/><path d="M169.829,253.547c29.989,28.088,65.8,48.2,103.624,51.578a13.476,13.476,0,0,0,11.042-3.983c4.071-4.174,6.725-14.08-1.3-15.17-29.677-4.033-66.192-20.07-96.037-44.475a39.318,39.318,0,0,1-5.144-5.041c-4.539-5.367-10.916-12.125-18.7-5.19C154.184,239.4,163.728,247.833,169.829,253.547Z" style="fill:#aeddd5"/></svg>