<svg id="Layer_1" data-name="Layer 1" xmlns="http://www.w3.org/2000/svg" viewBox="0 0 500 500"><path d="M352.59,138.077c29.105,38.259,32.43,94.3-7.8,145.462-36.086,45.892-101.5,71.568-154.849,61.479-52.934-10.011-91.131-54.706-90.644-106.3C99.8,186.438,139.952,130.187,195,106,260.689,77.131,321.252,96.883,352.59,138.077Z" style="fill:#e2f3f0"/><path d="M99.433,286.185c-2.141,2.964-1.458,6.306-.459,9.865a74.8,74.8,0,0,0,10.271,22.028c2.827,4.129,8.883,11.5,13.458,13.8s7.892-.726,12.672-3.5a9.576,9.576,0,0,0,4.038-4.185c1.355-3.069.173-6.378-1.154-9.227-4.931-10.585-11.795-20.08-18.617-29.507-1.8-2.49-3.836-5.136-6.965-5.841-4.428-1-8.6,2.189-11.847,5.051A9.329,9.329,0,0,0,99.433,286.185Z" style="fill:#aeddd5"/><path d="M343.961,116.209c3.792-.9,6.72,1.1,9.721,3.5a74.9,74.9,0,0,1,16.8,18.8c2.753,4.4,7.216,13.228,7.421,18.572s-4.2,7.3-8.987,10.758a10.528,10.528,0,0,1-5.811,2.17c-3.547.055-6.215-2.414-8.375-4.834-8.021-8.989-14.155-19.388-20.242-29.722-1.609-2.731-3.266-5.747-2.591-9.045.957-4.674,5.824-7.441,9.989-9.446A10.185,10.185,0,0,1,343.961,116.209Z" style="fill:#aeddd5"/><path d="M139.346,131.507c8.624,13.549,16.8,27.549,24.407,41.946,4.786,9.056,9.462,18.584,11.5,28.326,1.062,5.075,1.118,10.8-1.758,12.512-3.24,1.932-8.083-2.195-11.982-6.037L109.35,156.847c-7.894-7.78-15.88-15.666-22.752-25.308-11.545-16.2-24.491-50.47-9.46-58.111,6.37-3.239,15.227.152,22.934,6.5s14.5,15.333,20.951,24.391Q130.465,117.576,139.346,131.507Z" style="fill:#f7e8e9;fill-rule:evenodd"/><path d="M144.03,151.634q8.45,13.269,16.075,27.23c3.183,5.846,6.318,11.972,7.889,18.05.819,3.166,1.061,6.658-.59,7.508-1.86.957-4.9-1.888-7.36-4.5q-16.481-17.442-32.96-34.886A150.677,150.677,0,0,1,112.6,148.065c-7.47-10.658-16.437-32.432-7.761-36.068,3.678-1.541,9.079,1.129,13.9,5.521s9.2,10.333,13.374,16.294Q138.229,142.537,144.03,151.634Z" style="fill:#fbd0d3;fill-rule:evenodd"/><path d="M155.081,188.912a.656.656,0,0,1-.46-.187c-1.177-1.145-2.422-2.259-3.7-3.309a.659.659,0,0,1,.838-1.018c1.3,1.074,2.577,2.212,3.78,3.383a.659.659,0,0,1-.459,1.131Z" style="fill:#e6bec1"/><path d="M156.7,185.763a.66.66,0,0,1-.516-.248,47.317,47.317,0,0,1-3.131-4.426.659.659,0,0,1,1.119-.7,45.751,45.751,0,0,0,3.043,4.3.66.66,0,0,1-.515,1.07Z" style="fill:#e6bec1"/><path d="M157.558,182.014A.657.657,0,0,1,157,181.7l-3.476-5.637a.659.659,0,1,1,1.122-.692l3.475,5.637a.658.658,0,0,1-.56,1.005Z" style="fill:#e6bec1"/><path d="M150.681,180.786a.657.657,0,0,1-.513-.244c-.918-1.132-1.9-2.239-2.911-3.29a.659.659,0,1,1,.948-.915c1.04,1.078,2.045,2.214,2.987,3.375a.659.659,0,0,1-.511,1.074Z" style="fill:#e6bec1"/><path d="M151.165,175.881a.657.657,0,0,1-.526-.261,30.9,30.9,0,0,1-3.023-4.9.659.659,0,0,1,1.182-.585,29.468,29.468,0,0,0,2.892,4.686.658.658,0,0,1-.525,1.056Z" style="fill:#e6bec1"/><path d="M151.915,171.324a.66.66,0,0,1-.568-.324l-3.361-5.685a.659.659,0,0,1,1.134-.671l3.361,5.686a.658.658,0,0,1-.231.9A.651.651,0,0,1,151.915,171.324Z" style="fill:#e6bec1"/><path d="M144.885,178.77a.66.66,0,0,1-.5-.224c-1.27-1.444-2.529-2.925-3.743-4.4a.659.659,0,0,1,1.018-.837c1.2,1.464,2.454,2.933,3.715,4.367a.659.659,0,0,1-.5,1.094Z" style="fill:#e6bec1"/><path d="M144.193,172.352a.659.659,0,0,1-.52-.253l-3.235-4.142a.659.659,0,0,1,1.039-.811l3.235,4.142a.658.658,0,0,1-.519,1.064Z" style="fill:#e6bec1"/><path d="M145.408,166.474a.661.661,0,0,1-.564-.316,44.284,44.284,0,0,0-3.337-4.746.659.659,0,0,1,1.027-.827,45.841,45.841,0,0,1,3.436,4.887.66.66,0,0,1-.562,1Z" style="fill:#e6bec1"/><path d="M138.567,165.6a.658.658,0,0,1-.518-.251c-1.3-1.644-2.687-3.246-4.135-4.76a.659.659,0,1,1,.953-.911c1.477,1.545,2.9,3.178,4.217,4.855a.659.659,0,0,1-.517,1.067Z" style="fill:#e6bec1"/><path d="M137.189,170.313a.657.657,0,0,1-.483-.211l-3.784-4.081a.659.659,0,1,1,.966-.9l3.784,4.082a.659.659,0,0,1-.483,1.107Z" style="fill:#e6bec1"/><path d="M144.023,158.82a.656.656,0,0,1-.531-.268l-3.043-4.127a.659.659,0,0,1,1.061-.782l3.043,4.127a.658.658,0,0,1-.53,1.05Z" style="fill:#e6bec1"/><path d="M138.894,159.039a.655.655,0,0,1-.5-.236l-2.307-2.76a.659.659,0,0,1,1.011-.845l2.307,2.76a.658.658,0,0,1-.506,1.081Z" style="fill:#e6bec1"/><path d="M236.107,85.871c4.794,15.328,10.225,30.6,16.322,45.7,3.835,9.5,8.1,19.216,14.233,27.057,3.194,4.085,7.532,7.817,10.7,6.725,3.566-1.23,3.534-7.593,3.112-13.051q-2.827-36.51-5.654-73.02c-.855-11.051-1.734-22.239-4.671-33.709C265.211,26.307,247.362-5.689,231.83.872c-6.583,2.781-9.7,11.736-9.823,21.719s2.369,20.969,5.133,31.741Q231.186,70.1,236.107,85.871Z" style="fill:#f7e8e9;fill-rule:evenodd"/><path d="M248.47,102.429c3.128,10.01,6.606,19.985,10.447,29.846,2.416,6.2,5.077,12.548,8.709,17.668,1.892,2.668,4.4,5.1,6.118,4.391,1.931-.8,1.715-4.96,1.31-8.524q-2.7-23.844-5.41-47.688a150.66,150.66,0,0,0-3.636-22.015c-3.329-12.583-14.19-33.477-22.563-29.19-3.549,1.817-4.991,7.667-4.745,14.186s1.965,13.7,3.829,20.729Q245.258,92.13,248.47,102.429Z" style="fill:#fbd0d3;fill-rule:evenodd"/><path d="M264.771,133.422a.658.658,0,0,1-.608-.405c-.631-1.518-1.337-3.032-2.1-4.5a.659.659,0,1,1,1.17-.6c.776,1.5,1.5,3.047,2.143,4.6a.658.658,0,0,1-.609.912Z" style="fill:#e6bec1"/><path d="M267.5,131.167a.658.658,0,0,1-.635-.484,46.99,46.99,0,0,1-1.133-5.3.659.659,0,1,1,1.3-.2,45.717,45.717,0,0,0,1.1,5.152.658.658,0,0,1-.461.81A.621.621,0,0,1,267.5,131.167Z" style="fill:#e6bec1"/><path d="M269.765,128.058a.659.659,0,0,1-.651-.562l-.974-6.549a.659.659,0,0,1,1.3-.2l.974,6.55a.658.658,0,0,1-.653.756Z" style="fill:#e6bec1"/><path d="M263.928,124.22a.659.659,0,0,1-.634-.479c-.4-1.4-.861-2.806-1.379-4.172a.659.659,0,1,1,1.232-.467c.531,1.4,1.007,2.841,1.415,4.28a.66.66,0,0,1-.454.814A.7.7,0,0,1,263.928,124.22Z" style="fill:#e6bec1"/><path d="M266.306,119.9a.659.659,0,0,1-.639-.5,30.776,30.776,0,0,1-.849-5.691.659.659,0,1,1,1.316-.071,29.519,29.519,0,0,0,.812,5.446.658.658,0,0,1-.481.8A.677.677,0,0,1,266.306,119.9Z" style="fill:#e6bec1"/><path d="M268.79,116.01a.66.66,0,0,1-.653-.575l-.848-6.549a.659.659,0,1,1,1.307-.169l.848,6.549a.659.659,0,0,1-.569.738A.607.607,0,0,1,268.79,116.01Z" style="fill:#e6bec1"/><path d="M259.4,120.084a.659.659,0,0,1-.627-.454c-.6-1.818-1.17-3.675-1.707-5.519a.659.659,0,0,1,1.265-.369c.534,1.83,1.1,3.673,1.695,5.478a.66.66,0,0,1-.626.864Z" style="fill:#e6bec1"/><path d="M261.288,113.912a.658.658,0,0,1-.636-.491l-1.342-5.081a.659.659,0,0,1,1.274-.336l1.342,5.081a.66.66,0,0,1-.638.827Z" style="fill:#e6bec1"/><path d="M264.721,108.987a.66.66,0,0,1-.652-.565,44.485,44.485,0,0,0-1.2-5.676.659.659,0,1,1,1.269-.356,46.028,46.028,0,0,1,1.233,5.845.66.66,0,0,1-.559.746A.742.742,0,0,1,264.721,108.987Z" style="fill:#e6bec1"/><path d="M258.78,105.485a.658.658,0,0,1-.635-.488c-.544-2.025-1.192-4.045-1.926-6a.659.659,0,0,1,1.235-.462c.748,2,1.409,4.06,1.963,6.125a.659.659,0,0,1-.465.807A.678.678,0,0,1,258.78,105.485Z" style="fill:#e6bec1"/><path d="M255.656,109.278a.659.659,0,0,1-.621-.437l-1.87-5.242a.659.659,0,0,1,1.242-.443l1.869,5.242a.658.658,0,0,1-.62.88Z" style="fill:#e6bec1"/><path d="M266.465,101.408a.661.661,0,0,1-.642-.508l-1.171-4.993a.659.659,0,1,1,1.283-.3l1.172,4.992a.661.661,0,0,1-.491.793A.713.713,0,0,1,266.465,101.408Z" style="fill:#e6bec1"/><path d="M261.665,99.588a.658.658,0,0,1-.631-.469L260,95.673a.659.659,0,1,1,1.262-.378L262.3,98.74a.657.657,0,0,1-.631.848Z" style="fill:#e6bec1"/><path d="M339.488,196.719q.515,1.118,1.007,2.241c7.4,16.882,11.464,35.633,8.776,53.871-2.917,19.794-13.659,37.874-27.715,52.112-21.244,21.52-50.957,35.07-81.194,34.669-18.421-.244-36.928-5.69-51.83-16.523-25-18.173-37.055-49-40.9-78.752-3.548-27.446,9.363-56.1,28.68-75.275q1.489-1.479,3.042-2.893c19.722-17.968,46.487-27.782,73.166-27.583,18.414.138,36.993,5.015,52.261,15.311C320.227,164.313,331.738,179.907,339.488,196.719Z" style="fill:#f7e1e3;fill-rule:evenodd"/><path d="M280.445,210.683a2.78,2.78,0,1,1-3.052-1.146A2.781,2.781,0,0,1,280.445,210.683Z" style="fill:#333;fill-rule:evenodd"/><path d="M204.289,242.208a2.779,2.779,0,1,1-3.052-1.147A2.781,2.781,0,0,1,204.289,242.208Z" style="fill:#333;fill-rule:evenodd"/><path d="M243.872,253.225c-1.409,0-3.125-.842-4.893-2.452a.659.659,0,1,1,.888-.974c1.612,1.469,3.764,2.716,4.962,1.813,1.109-.834,1.446-3.6.179-6.392h0l-3.5-7.718a.659.659,0,1,1,1.2-.545l3.5,7.716c1.434,3.158,1.176,6.667-.586,7.992A2.843,2.843,0,0,1,243.872,253.225Z" style="fill:#333"/><path d="M251.12,250.225c-2.2,0-4.8-2.125-6.112-5-.031-.07-3.5-7.719-3.5-7.719l1.2-.545c3.5,7.72,3.506,7.722,3.51,7.732,1.213,2.669,3.544,4.26,4.982,4.216,1.7-.064,1.855-3.585,1.844-5.095a.658.658,0,0,1,.654-.664h.005a.658.658,0,0,1,.658.654c.038,5.209-1.671,6.368-3.111,6.422Z" style="fill:#333"/><path d="M240.2,233.041a7.782,7.782,0,0,1,2.287-.6,2.085,2.085,0,0,1,2.537,2.72,6.062,6.062,0,0,1-.6,2.122,3.317,3.317,0,0,1-1.6,1.539,4.086,4.086,0,0,1-2.738-.028,5.566,5.566,0,0,1-2.809-1.478C235.994,235.43,238.266,233.851,240.2,233.041Z" style="fill:#333;fill-rule:evenodd"/><path d="M206.815,254.2a31.742,31.742,0,0,0-4.9,2.524,9.618,9.618,0,0,0-3.135,2.822,4.084,4.084,0,0,0-.344,4.042c.972,1.781,3.394,2.171,5.4,1.835a16.281,16.281,0,0,0,5.994-2.474,11.063,11.063,0,0,0,3.115-2.744,5.241,5.241,0,0,0,1.029-3.931C213.31,252.713,209.351,253.164,206.815,254.2Z" style="fill:#f9bebf;fill-rule:evenodd"/><path d="M286.628,217.289a31.737,31.737,0,0,0-4.9,2.523,9.634,9.634,0,0,0-3.136,2.823,4.087,4.087,0,0,0-.343,4.042c.972,1.781,3.393,2.171,5.395,1.835a16.3,16.3,0,0,0,5.994-2.474,11.079,11.079,0,0,0,3.115-2.744,5.246,5.246,0,0,0,1.029-3.931C293.123,215.8,289.163,216.25,286.628,217.289Z" style="fill:#f9bebf;fill-rule:evenodd"/><path d="M202.242,311.9a.661.661,0,0,1-.47-.2,27.5,27.5,0,0,0-6.736-5.02.659.659,0,1,1,.617-1.165,28.786,28.786,0,0,1,7.059,5.261.659.659,0,0,1-.47,1.121Z" style="fill:#e6bec1"/><path d="M182.824,299.8a.653.653,0,0,1-.448-.176,25.764,25.764,0,0,1-6.128-8.7.659.659,0,0,1,1.213-.517,24.412,24.412,0,0,0,5.811,8.255.659.659,0,0,1-.448,1.142Z" style="fill:#e6bec1"/><path d="M190.8,293.106a.655.655,0,0,1-.342-.1,22.789,22.789,0,0,1-6.961-6.655.66.66,0,0,1,1.094-.737,21.417,21.417,0,0,0,6.553,6.267.659.659,0,0,1-.344,1.222Z" style="fill:#e6bec1"/><path d="M207.57,305.847a.647.647,0,0,1-.2-.033,31.735,31.735,0,0,1-7.275-3.422.659.659,0,0,1,.708-1.112,30.365,30.365,0,0,0,6.972,3.28.659.659,0,0,1-.2,1.287Z" style="fill:#e6bec1"/><path d="M190.452,310.806a.657.657,0,0,1-.408-.143,23.737,23.737,0,0,0-5.93-3.431.658.658,0,1,1,.488-1.223,25.012,25.012,0,0,1,6.26,3.621.659.659,0,0,1-.41,1.176Z" style="fill:#e6bec1"/><path d="M328.225,246.855a.672.672,0,0,1-.235-.043.659.659,0,0,1-.381-.85,14.766,14.766,0,0,0,.63-8.213.659.659,0,0,1,1.289-.274,16.1,16.1,0,0,1-.687,8.955A.66.66,0,0,1,328.225,246.855Z" style="fill:#e6bec1"/><path d="M337.737,241.753a.706.706,0,0,1-.163-.02.66.66,0,0,1-.476-.8,27.149,27.149,0,0,0,.809-7.837.659.659,0,1,1,1.317-.056,28.508,28.508,0,0,1-.848,8.218A.661.661,0,0,1,337.737,241.753Z" style="fill:#e6bec1"/><path d="M335.73,251.789a.646.646,0,0,1-.285-.066.658.658,0,0,1-.308-.878,25.3,25.3,0,0,0,1.868-5.358.659.659,0,0,1,1.285.291,26.558,26.558,0,0,1-1.966,5.637A.659.659,0,0,1,335.73,251.789Z" style="fill:#e6bec1"/><path d="M329.457,227.363a.659.659,0,0,1-.653-.572c-.365-2.746-.859-5.507-1.468-8.208a.659.659,0,0,1,1.285-.29c.618,2.739,1.119,5.54,1.489,8.324a.658.658,0,0,1-.566.74A.647.647,0,0,1,329.457,227.363Z" style="fill:#e6bec1"/><path d="M338.058,223.954a.66.66,0,0,1-.658-.623,34.513,34.513,0,0,0-2.232-10.42.659.659,0,0,1,1.23-.472,35.807,35.807,0,0,1,2.318,10.818.658.658,0,0,1-.621.695Z" style="fill:#e6bec1"/><path d="M302.724,213.628a.659.659,0,0,1-.43-1.159,174.143,174.143,0,0,1,16.207-12.38.659.659,0,0,1,.737,1.093,172.592,172.592,0,0,0-16.084,12.286A.66.66,0,0,1,302.724,213.628Z" style="fill:#333"/><path d="M305.11,217.154a.659.659,0,0,1-.305-1.244,141.484,141.484,0,0,1,20.739-8.762.659.659,0,1,1,.414,1.251,140.157,140.157,0,0,0-20.545,8.68A.662.662,0,0,1,305.11,217.154Z" style="fill:#333"/><path d="M170.782,265.048a.659.659,0,0,1-.071-1.314c6.05-.656,12.138-1.613,18.1-2.845a.659.659,0,0,1,.268,1.29c-6,1.241-12.129,2.2-18.22,2.865A.6.6,0,0,1,170.782,265.048Z" style="fill:#333"/><path d="M173.988,277.124a.659.659,0,0,1-.383-1.2,181.839,181.839,0,0,1,15.863-10.083.659.659,0,0,1,.649,1.148A180.056,180.056,0,0,0,174.369,277,.656.656,0,0,1,173.988,277.124Z" style="fill:#333"/><g style="opacity:0.68"><g style="opacity:0.7000000000000001"><path d="M139.747,261.382c-5.393-19.12-4.515-39.724,1.279-58.634,2.648-8.642-15.622-10.4-17.909-2.937a114.812,114.812,0,0,0-1.166,65.131c1.171,4.152,8.095,4.751,11.462,4.068,3.8-.771,7.532-3.384,6.334-7.628Z" style="fill:#fff"/></g><g style="opacity:0.68"><path d="M161.92,162.309a6.959,6.959,0,0,1,.63,1.78,8.679,8.679,0,0,1-1.563,6.587,14.6,14.6,0,0,1-5.291,4.4c-3.409,1.786-7.586,2.638-11.067,1.035-8.375-3.857-2.672-12.911,2.705-16.308a11.982,11.982,0,0,1,8.875-1.813A8.632,8.632,0,0,1,161.92,162.309Z" style="fill:#fff"/></g></g><g style="opacity:0.43"><path d="M320.363,132.276c-1.269,5.813-21.659,6.666-45.435,1.932-23.657-4.711-41.754-13.184-40.528-18.951s21.349-6.687,45.048-2.023C303.267,117.922,321.633,126.459,320.363,132.276Z" style="fill:#fff"/></g><path d="M416.726,283.454c3.136-.508,6.631-.648,9.193,1.231,2.107,1.545,3.15,4.18,3.554,6.762a10.69,10.69,0,0,1-1.127,7.376,9.423,9.423,0,0,1-6.7,3.946,20.385,20.385,0,0,1-7.93-.768c.579.941,1.913,1.457,1.994,2.559.07.958-.978,1.694-1.938,1.665a5.166,5.166,0,0,1-2.613-1.117q-4.131-2.776-8.2-5.65a2.267,2.267,0,0,1-.5-.437,2.387,2.387,0,0,1-.149-1.906c.671-3.52-1.085-8.754,2.181-10.738C407.436,284.591,413.331,284,416.726,283.454Z" style="fill:#9dc7c0"/><path d="M395.681,283.553c2.594.355,5.342.862,7.086,2.928,2.408,2.852,2.066,7.508,2.636,11.674a4.549,4.549,0,0,1-4.19,5.185c-1.454.089-2.92.014-4.353-.04a108.629,108.629,0,0,0-33.521,4.127c-9.621,2.712-17.318,7.137-22.543-3.173-3.978-7.85-2.017-17.535,7.356-19.143C365.008,282.219,378.937,281.264,395.681,283.553Z" style="fill:#e3f2ef"/><path d="M404.494,282.16c1.221.6,1.6,1.918,1.913,3.372a33.184,33.184,0,0,1,.629,9.83c-.173,2.024-.809,5.838-1.872,7.57s-2.67,1.331-4.7,1.316a3.257,3.257,0,0,1-2.042-.659,4.723,4.723,0,0,1-1.273-3.469,81.962,81.962,0,0,1,.715-14.106,5.611,5.611,0,0,1,1.195-3.463c1.245-1.251,3.157-.983,4.714-.64A3.117,3.117,0,0,1,404.494,282.16Z" style="fill:#aeddd5"/><path d="M190,383.493c-3.072.813-6.536,1.294-9.27-.325-2.249-1.332-3.543-3.852-4.2-6.382a10.681,10.681,0,0,1,.4-7.451,9.42,9.42,0,0,1,6.278-4.582,20.365,20.365,0,0,1,7.967-.012c-.669-.88-2.046-1.263-2.234-2.352-.164-.946.807-1.781,1.765-1.846a5.172,5.172,0,0,1,2.71.855q4.381,2.361,8.709,4.822a2.228,2.228,0,0,1,.544.386,2.385,2.385,0,0,1,.335,1.881c-.324,3.569,1.935,8.606-1.12,10.9C199.136,381.453,193.327,382.614,190,383.493Z" style="fill:#9dc7c0"/><path d="M212.944,381.4c-2.936-.06-6.083-.267-8.335-2.3-3.1-2.8-3.331-7.815-4.507-12.129a4.6,4.6,0,0,1,3.912-5.743c1.562-.227,3.153-.288,4.7-.367a111.552,111.552,0,0,0,33.528-6.9c8.677-3.263,14.915-7.823,22.052,1.177,5.551,7,8.99,15.159.524,17.7C248.917,377.623,231.48,381.78,212.944,381.4Z" style="fill:#e3f2ef"/><path d="M202.3,383.584c-1.275-.482-1.779-1.752-2.235-3.169a33.19,33.19,0,0,1-1.588-9.721c-.025-2.032.234-5.889,1.122-7.717s2.528-1.586,4.551-1.77a3.257,3.257,0,0,1,2.1.456,4.722,4.722,0,0,1,1.606,3.328,81.945,81.945,0,0,1,.669,14.109,5.6,5.6,0,0,1-.85,3.562c-1.117,1.367-3.045,1.288-4.629,1.1A3.112,3.112,0,0,1,202.3,383.584Z" style="fill:#aeddd5"/><path d="M310.483,440.772c3.8.791,8.063-.553,12.077-1.917,24.735-8.405,49.326-18.8,67.193-36.493,6.419-6.358,12-14.073,12.566-22.312.482-7.066-2.784-13.439-6.1-19.276a303.553,303.553,0,0,0-49.606-65.422,6.559,6.559,0,0,0-2.458-1.759c-2.316-.786-5.143.543-7.489,1.83C314.1,307.8,292.2,323.984,257.36,346.688c-10.582,6.9,9.428,36.807,15.681,46.775C280.613,405.536,294.027,437.346,310.483,440.772Z" style="fill:#e3f2ef"/><path d="M365.291,476.334a22.406,22.406,0,0,0,7.956,9.142,6.912,6.912,0,0,1,2.4,2.031,3.717,3.717,0,0,1,.392,2.134c-.252,3.645-3.287,6.753-6.938,8.357s-7.844,1.941-11.933,2c-18.308.261-26.3-20.462-34.349-32.138-9.278-13.452-18.175-27.152-25.319-41.608a9.252,9.252,0,0,1-1.316-4.671c.263-3.546,3.968-5.336,7.082-6.339,12.276-3.955,40.683-19.938,47.442-2.419,3.263,8.458,3,19.538,4.732,28.506a248.025,248.025,0,0,0,6.541,26.194A57.348,57.348,0,0,0,365.291,476.334Z" style="fill:#e3f2ef"/><path d="M397.734,452.038a20.406,20.406,0,0,1,2.439,11.48,6.252,6.252,0,0,0,.142,3.035,3.656,3.656,0,0,0,1.5,1.555c3.14,1.95,7.605,1.449,11.229-.409s6.555-4.878,9.192-7.981c11.809-13.9-.082-32.21-4.533-45.256-5.127-15.028-10.7-29.911-18-43.894a8.966,8.966,0,0,0-2.986-3.756c-3.067-1.883-6.878-.092-9.67,1.707-11.009,7.095-42.072,19.5-32.023,34.982,4.851,7.478,14.078,13.794,20.318,20.394a241.241,241.241,0,0,1,17.283,20.421A54.778,54.778,0,0,1,397.734,452.038Z" style="fill:#e3f2ef"/><path d="M310.882,429.922a48.5,48.5,0,0,1,11.569-4.007,76.831,76.831,0,0,1,15.616-2.732c5.334-.209,16.867,1.592,16.433,3.749-1.507,1.418-4.658,1.4-6.7,1.67a128.866,128.866,0,0,0-34.258,9.484c-2.726,1.182-9.4,5.262-11.229.962C300.672,435.183,308.27,431.348,310.882,429.922Z" style="fill:#aeddd5"/><path d="M390.29,378.774a49.928,49.928,0,0,0-8.708,9.06,79.32,79.32,0,0,0-9.277,13.387c-2.5,4.884-5.818,16.421-3.636,16.948,1.964-.793,3.307-3.74,4.441-5.527a132.871,132.871,0,0,1,23.582-27.858c2.271-2.032,8.931-6.5,5.743-10.059C399.569,371.523,392.738,376.953,390.29,378.774Z" style="fill:#aeddd5"/><path d="M359.33,360.215c-.011.059-.024.119-.04.178A4.465,4.465,0,0,1,357,362.751l-53.265,32.362a3.082,3.082,0,0,1-2.594.64,3.032,3.032,0,0,1-1.288-1.288q-5.807-8.875-10.9-18.193c-2.957-5.413-2.226-8.119,2.694-11.321q8.346-5.435,16.8-10.7,16.632-10.365,33.662-20.073a2.409,2.409,0,0,1,1.5-.455c.686.106,1.13.762,1.489,1.357L358.356,357.1A4.745,4.745,0,0,1,359.33,360.215Z" style="fill:#aeddd5;fill-rule:evenodd"/><path d="M355.366,359.085c-.012.05-.027.1-.044.151a4.55,4.55,0,0,1-2.149,2.082L304.3,391.006a3.1,3.1,0,0,1-2.332.666,2.2,2.2,0,0,1-1.076-1.008q-4.695-7.1-8.731-14.6c-2.345-4.361-1.558-6.653,2.966-9.573q7.677-4.954,15.438-9.777,15.273-9.486,30.865-18.446a2.453,2.453,0,0,1,1.351-.456c.6.054.963.577,1.25,1.055q5.314,8.839,10.627,17.68A3.449,3.449,0,0,1,355.366,359.085Z" style="fill:#e2f3f0;fill-rule:evenodd"/><path d="M308.037,368.107c-5.019-2.726-8.99,6.925-3.274,9.226,4.838,1.946,7.872-5.064,4.561-8.26A5.988,5.988,0,0,0,308.037,368.107Z" style="fill:#9dc7c0"/><path d="M323.166,358.713c-5.019-2.726-8.99,6.926-3.274,9.226,4.838,1.947,7.873-5.064,4.561-8.26A5.988,5.988,0,0,0,323.166,358.713Z" style="fill:#aeddd5"/><path d="M337.764,349.712c-5.018-2.726-8.989,6.926-3.273,9.226,4.837,1.946,7.872-5.064,4.561-8.26A5.992,5.992,0,0,0,337.764,349.712Z" style="fill:#c4e6e0"/><path d="M357.289,297.611a54.257,54.257,0,0,0-6.519-8.816,8.172,8.172,0,0,0-3.641-2.706c-5.25-1.461-3.964,5.487-1.97,7.807,1.428,1.662,3.3,2.879,4.881,4.392,3.35,3.2,5.3,7.568,8.124,11.239a2.174,2.174,0,0,0,1.238.956c.944.159,1.652-.9,1.79-1.844a8.316,8.316,0,0,0-.584-3.819A39.369,39.369,0,0,0,357.289,297.611Z" style="fill:#aeddd5"/><path d="M254.417,366.015a65.119,65.119,0,0,1-3.8-10.2c-.672-2.4-2.6-11.774,3.246-8.5a6.222,6.222,0,0,1,2.462,2.729c1.018,2.089,1,4.308,1.261,6.458.8,6.651,4.277,12.671,6.222,18.734a1.733,1.733,0,0,1-.033,1.579c-.532.7-1.71.408-2.425-.112a11.35,11.35,0,0,1-2.683-3.1A62.505,62.505,0,0,1,254.417,366.015Z" style="fill:#aeddd5"/><path d="M262.331,348.7c33.426-9.144,63.689-25.992,82.823-51.68a11.362,11.362,0,0,0,2.014-9.693c-1.2-4.769-7.147-11.05-11.472-5.768-16,19.543-43.653,38.7-74.369,49.364a33.191,33.191,0,0,1-5.894,1.47c-5.861.892-13.533,2.489-11.988,11.147C245.256,353.693,255.53,350.56,262.331,348.7Z" style="fill:#aeddd5"/></svg>