<?xml version="1.0" encoding="utf-8"?>
<!-- Generator: Adobe Illustrator 24.0.0, SVG Export Plug-In . SVG Version: 6.00 Build 0)  -->
<svg version="1.1" xmlns="http://www.w3.org/2000/svg" xmlns:xlink="http://www.w3.org/1999/xlink" x="0px" y="0px"
	 viewBox="0 0 256 256" enable-background="new 0 0 256 256" xml:space="preserve">
<g id="Layer_1">
</g>
<g id="Layer_2">
</g>
<g id="Layer_3">
</g>
<g id="Layer_4">
</g>
<g id="Layer_5">
</g>
<g id="Layer_6">
</g>
<g id="Layer_7">
</g>
<g id="Layer_8">
</g>
<g id="Layer_9">
</g>
<g id="Layer_10">
</g>
<g id="Layer_11">
</g>
<g id="Layer_12">
</g>
<g id="Layer_13">
</g>
<g id="Layer_14">
</g>
<g id="Layer_15">
</g>
<g id="Layer_16">
</g>
<g id="Layer_17">
</g>
<g id="Layer_18">
</g>
<g id="Layer_19">
</g>
<g id="Layer_20">
</g>
<g id="Layer_21">
</g>
<g id="Layer_22">
</g>
<g id="Layer_23">
</g>
<g id="Layer_24">
</g>
<g id="Layer_25">
</g>
<g id="Layer_26">
</g>
<g id="Layer_27">
</g>
<g id="Layer_28">
</g>
<g id="Layer_29">
</g>
<g id="Layer_30">
</g>
<g id="Layer_31">
</g>
<g id="Layer_32">
</g>
<g id="Layer_33">
</g>
<g id="Layer_34">
</g>
<g id="Layer_35">
</g>
<g id="Layer_36">
</g>
<g id="Layer_37">
</g>
<g id="Layer_38">
</g>
<g id="Layer_39">
</g>
<g id="Layer_40">
</g>
<g id="Layer_41">
</g>
<g id="Layer_42">
</g>
<g id="Layer_43">
</g>
<g id="Layer_44">
</g>
<g id="Layer_45">
</g>
<g id="Layer_46">
</g>
<g id="Layer_47">
</g>
<g id="Layer_48">
</g>
<g id="Layer_49">
</g>
<g id="Layer_50">
</g>
<g id="Layer_51">
</g>
<g id="Layer_52">
</g>
<g id="Layer_53">
</g>
<g id="Layer_54">
</g>
<g id="Layer_55">
</g>
<g id="Layer_56">
</g>
<g id="Layer_57">
</g>
<g id="Layer_58">
</g>
<g id="Layer_59">
</g>
<g id="Layer_60">
</g>
<g id="Layer_61">
	<g>
		<g>
			<g>
				<path fill="#FC657E" d="M240.86,224.091l-39.918-39.918c-6.728-6.728-17.636-6.728-24.364,0c-6.728,6.728-6.728,17.636,0,24.364
					l39.918,39.918c6.728,6.728,17.636,6.728,24.363,0l0,0C247.588,241.726,247.588,230.818,240.86,224.091z"/>
			</g>
		</g>
		<g>
			<g>
				<path fill="#DAE6F1" d="M168.335,161.31c-2.12,2.679-4.396,5.275-6.869,7.749c-2.474,2.474-5.069,4.75-7.749,6.869
					l18.006,18.006c0.504-3.571,2.11-7.016,4.856-9.762c2.746-2.746,6.192-4.352,9.762-4.856L168.335,161.31z"/>
			</g>
		</g>
		<g>
			<g>
				<path fill="#EDF4FC" d="M174.397,60.063c-5.092,5.459-12.344,8.876-20.397,8.876c-15.405,0-27.893-12.488-27.893-27.893
					c0-6.389,2.153-12.272,5.766-16.975C99.891,11.246,61.896,17.76,36.031,43.625c-34.582,34.582-34.583,90.852,0,125.435
					c34.583,34.583,90.852,34.582,125.434,0C190.99,139.534,195.286,94.212,174.397,60.063z"/>
			</g>
		</g>
		<g>
			<g>
				<path fill="#9BE5F9" d="M159.319,68.427c-1.723,0.333-3.5,0.513-5.32,0.513c-15.405,0-27.893-12.488-27.893-27.893
					c0-0.24,0.012-0.477,0.018-0.716c-25.912-10.706-56.888-5.556-77.916,15.472c-27.868,27.867-27.867,73.211,0,101.078
					c27.867,27.867,73.211,27.868,101.078,0C173.259,132.909,176.589,96.014,159.319,68.427z"/>
			</g>
		</g>
		<g>
			<g>
				<path fill="#70D6F9" d="M163.874,97.886c-0.027-0.028-0.054-0.055-0.082-0.082c-35.865-35.865-94.224-35.866-130.09,0
					c-0.027,0.027-0.054,0.055-0.082,0.082c-4.637,4.65-4.637,12.261,0,16.912c0.027,0.027,0.054,0.055,0.082,0.082
					c35.865,35.866,94.224,35.866,130.09,0c0.027-0.027,0.055-0.055,0.082-0.082C168.512,110.147,168.512,102.536,163.874,97.886z"
					/>
			</g>
		</g>
		<g>
			<g>
				<circle fill="#F5C84C" cx="98.748" cy="106.342" r="35.453"/>
			</g>
		</g>
		<g>
			<g>
				<path fill="#EDF4FC" d="M98.748,80.905c-14.088,0-25.437,11.345-25.437,25.437c0,14.087,11.346,25.438,25.437,25.438
					c14.088,0,25.437-11.346,25.437-25.438C124.185,92.254,112.84,80.905,98.748,80.905z"/>
			</g>
		</g>
		<g>
			<g>
				<path fill="#FC657E" d="M98.748,80.905L98.748,80.905l0,20h0c3.048,0,5.437,2.388,5.437,5.437l0,0h20v0
					C124.185,92.254,112.84,80.905,98.748,80.905z"/>
			</g>
		</g>
		<g>
			<g>
				<path fill="#5290DB" d="M98.748,100.905c-3.049,0-5.437,2.388-5.437,5.437s2.388,5.438,5.437,5.438
					c3.048,0,5.437-2.389,5.437-5.438S101.797,100.905,98.748,100.905z"/>
			</g>
		</g>
		<g>
			<g>
				
					<ellipse transform="matrix(0.9871 -0.1602 0.1602 0.9871 -4.5864 25.1979)" fill="#B2E26D" cx="154" cy="41.047" rx="27.893" ry="27.893"/>
			</g>
		</g>
		<g>
			<g>
				<path fill="#F5C84C" d="M36.8,22.396c-4.5-0.8-8-4.3-8.9-8.7c0-0.2-0.4-0.2-0.4,0c-0.9,4.4-4.4,7.9-8.9,8.7
					c-0.2,0-0.2,0.3,0,0.4c4.5,0.8,8,4.3,8.9,8.7c0,0.2,0.4,0.2,0.4,0c0.9-4.4,4.4-7.9,8.9-8.7C37,22.697,37,22.396,36.8,22.396z"/>
			</g>
		</g>
		<g>
			<g>
				<path fill="#FC657E" d="M208.61,136.51c-3.158-0.561-5.613-3.017-6.245-6.104c0-0.14-0.281-0.14-0.281,0
					c-0.631,3.087-3.087,5.543-6.245,6.104c-0.14,0-0.14,0.211,0,0.281c3.158,0.561,5.613,3.017,6.245,6.104
					c0,0.14,0.281,0.14,0.281,0c0.631-3.087,3.087-5.543,6.245-6.104C208.75,136.72,208.75,136.51,208.61,136.51z"/>
			</g>
		</g>
		<g>
			<g>
				<path fill="#70D6F9" d="M144.7,209.646h-2.3v-2.3c0-1.7-1.4-3.2-3.2-3.2s-3.2,1.4-3.2,3.2v2.3h-2.3c-1.7,0-3.2,1.4-3.2,3.2
					c0,1.8,1.4,3.2,3.2,3.2h2.3v2.3c0,1.7,1.4,3.2,3.2,3.2s3.2-1.4,3.2-3.2v-2.3h2.3c1.7,0,3.2-1.4,3.2-3.2
					C147.9,211.047,146.5,209.646,144.7,209.646z"/>
			</g>
		</g>
		<g>
			<g>
				<path fill="#87D147" d="M63.8,0c-1.878,0-3.4,1.522-3.4,3.4c0,1.878,1.522,3.4,3.4,3.4c1.878,0,3.4-1.522,3.4-3.4
					C67.2,1.522,65.677,0,63.8,0z"/>
			</g>
		</g>
		<g>
			<g>
				<path fill="#F5C84C" d="M167.8,225c-1.878,0-3.4,1.522-3.4,3.4c0,1.878,1.522,3.4,3.4,3.4s3.4-1.522,3.4-3.4
					C171.2,226.522,169.677,225,167.8,225z"/>
			</g>
		</g>
		<g>
			<g>
				<g>
					<path d="M242.628,222.323l-39.917-39.918c-3.727-3.727-8.681-5.778-13.95-5.778s-10.224,2.052-13.95,5.778
						c-7.692,7.691-7.692,20.207,0,27.898l39.918,39.918c3.846,3.847,8.897,5.77,13.949,5.769c5.051,0,10.104-1.923,13.95-5.769
						C250.32,242.53,250.32,230.015,242.628,222.323z M239.092,246.687c-2.782,2.781-6.48,4.313-10.414,4.313
						s-7.632-1.532-10.414-4.313l-39.918-39.918c-2.781-2.781-4.313-6.48-4.313-10.414s1.532-7.633,4.313-10.414h0
						c2.782-2.782,6.48-4.313,10.414-4.313s7.632,1.531,10.415,4.313l39.918,39.918c2.781,2.782,4.313,6.48,4.313,10.414
						S241.874,243.904,239.092,246.687z"/>
				</g>
			</g>
		</g>
		<g>
			<g>
				<path d="M187.653,177.094l-16.873-16.873c-0.976-0.977-2.56-0.977-3.535,0c-0.977,0.977-0.977,2.559,0,3.535l16.873,16.873
					c0.488,0.488,1.128,0.732,1.768,0.732s1.28-0.244,1.768-0.732C188.63,179.652,188.63,178.07,187.653,177.094z"/>
			</g>
		</g>
		<g>
			<g>
				<path d="M172.949,191.626L156.224,174.9c-0.976-0.977-2.56-0.977-3.535,0c-0.977,0.977-0.977,2.559,0,3.535l16.726,16.726
					c0.488,0.488,1.128,0.732,1.768,0.732s1.28-0.244,1.768-0.732C173.926,194.185,173.926,192.603,172.949,191.626z"/>
			</g>
		</g>
		<g>
			<g>
				<path d="M98.748,125.279c-1.381,0-2.5,1.119-2.5,2.5v3c0,1.381,1.119,2.5,2.5,2.5s2.5-1.119,2.5-2.5v-3
					C101.248,126.398,100.129,125.279,98.748,125.279z"/>
			</g>
		</g>
		<g>
			<g>
				<path d="M98.748,79.405c-1.381,0-2.5,1.119-2.5,2.5v3c0,1.381,1.119,2.5,2.5,2.5s2.5-1.119,2.5-2.5v-3
					C101.248,80.524,100.129,79.405,98.748,79.405z"/>
			</g>
		</g>
		<g>
			<g>
				<path d="M98.748,90.636c-1.381,0-2.5,1.119-2.5,2.5v6.604c0,1.381,1.119,2.5,2.5,2.5s2.5-1.119,2.5-2.5v-6.604
					C101.248,91.755,100.129,90.636,98.748,90.636z"/>
			</g>
		</g>
		<g>
			<g>
				<path d="M111.954,103.842h-7.072c-1.381,0-2.5,1.119-2.5,2.5s1.119,2.5,2.5,2.5h7.072c1.381,0,2.5-1.119,2.5-2.5
					S113.335,103.842,111.954,103.842z"/>
			</g>
		</g>
		<g>
			<g>
				<path d="M123.185,103.842h-3c-1.381,0-2.5,1.119-2.5,2.5s1.119,2.5,2.5,2.5h3c1.381,0,2.5-1.119,2.5-2.5
					S124.566,103.842,123.185,103.842z"/>
			</g>
		</g>
		<g>
			<g>
				<path d="M77.311,103.842h-3c-1.381,0-2.5,1.119-2.5,2.5s1.119,2.5,2.5,2.5h3c1.381,0,2.5-1.119,2.5-2.5
					S78.692,103.842,77.311,103.842z"/>
			</g>
		</g>
		<g>
			<g>
				<g>
					<path d="M154,10.653c-16.759,0-30.393,13.635-30.393,30.394S137.241,71.439,154,71.439s30.393-13.634,30.393-30.393
						S170.758,10.653,154,10.653z M154,66.439c-14.002,0-25.393-11.391-25.393-25.393S139.998,15.653,154,15.653
						s25.393,11.392,25.393,25.394S168.001,66.439,154,66.439z"/>
				</g>
			</g>
		</g>
		<g>
			<g>
				<path d="M177.109,59.72c-0.706-1.187-2.24-1.576-3.426-0.87c-1.187,0.706-1.577,2.24-0.871,3.427
					c20.181,33.929,14.788,77.112-13.114,105.015c-33.608,33.607-88.292,33.607-121.899,0
					c-16.253-16.253-25.204-37.898-25.204-60.949s8.951-44.695,25.204-60.949c24.167-24.167,60.415-31.75,92.34-19.318
					c1.288,0.497,2.736-0.137,3.237-1.423c0.501-1.287-0.136-2.736-1.422-3.237c-33.774-13.148-72.121-5.127-97.69,20.443
					C17.065,59.055,7.594,81.956,7.594,106.342s9.471,47.287,26.669,64.484c17.78,17.781,41.128,26.67,64.484,26.668
					c23.351-0.002,46.709-8.892,64.485-26.668C192.754,141.305,198.46,95.616,177.109,59.72z"/>
			</g>
		</g>
		<g>
			<g>
				<path fill="#EDF4FC" d="M167.171,33.146c-2.005-2.004-5.255-2.004-7.26,0l-8.237,8.237l-4.129-4.129
					c-2.005-2.004-5.255-2.004-7.26,0c-2.005,2.005-2.005,5.255,0,7.26l7.759,7.759c1.003,1.002,2.316,1.503,3.63,1.503
					s2.628-0.501,3.63-1.503l11.867-11.867C169.176,38.401,169.176,35.151,167.171,33.146z"/>
			</g>
		</g>
		<g>
			<g>
				<g>
					<g>
						<path d="M168.939,31.379c-2.977-2.977-7.819-2.977-10.795,0l-6.469,6.469l-2.362-2.361c-2.976-2.977-7.818-2.977-10.796,0
							c-2.976,2.977-2.976,7.818,0,10.795l7.76,7.761c1.442,1.44,3.359,2.234,5.397,2.234c2.039,0,3.956-0.794,5.397-2.235
							l11.867-11.867c1.442-1.441,2.236-3.358,2.236-5.397C171.175,34.736,170.381,32.819,168.939,31.379z M165.404,38.639
							l-11.867,11.866c-0.995,0.996-2.73,0.993-3.726,0.001l-7.759-7.76c-1.027-1.027-1.027-2.697,0-3.725
							c0.514-0.513,1.188-0.77,1.863-0.77c0.674,0,1.349,0.257,1.862,0.77l4.129,4.129c0.977,0.977,2.56,0.977,3.535,0l8.237-8.236
							c1.028-1.025,2.699-1.026,3.725,0.001c0.498,0.497,0.771,1.157,0.771,1.861C166.175,37.479,165.901,38.141,165.404,38.639z"/>
					</g>
				</g>
			</g>
		</g>
		<g>
			<g>
				<path d="M161.818,67.714c-0.721-1.179-2.261-1.548-3.438-0.826c-1.177,0.721-1.547,2.26-0.826,3.438
					c16.717,27.296,12.591,62.162-10.035,84.788c-13.006,13.006-30.327,20.168-48.772,20.168c-18.445,0-35.766-7.162-48.771-20.168
					s-20.168-30.326-20.168-48.771c0-18.445,7.162-35.766,20.168-48.771c19.628-19.628,48.974-25.558,74.763-15.105
					c1.282,0.518,2.737-0.099,3.256-1.379c0.519-1.279-0.098-2.737-1.378-3.256c-27.655-11.208-59.125-4.847-80.176,16.205
					c-13.95,13.95-21.633,32.526-21.633,52.307c0,19.78,7.683,38.356,21.633,52.307c13.95,13.95,32.526,21.633,52.306,21.633
					c19.781,0,38.357-7.683,52.307-21.633C175.321,134.383,179.747,96.989,161.818,67.714z"/>
			</g>
		</g>
		<g>
			<g>
				<g>
					<path d="M165.645,96.12c-0.001,0-0.083-0.082-0.084-0.083c-17.818-17.819-41.546-27.632-66.813-27.632
						s-48.994,9.813-66.78,27.6l-0.117,0.115c-5.62,5.637-5.62,14.807-0.013,20.43l0.098,0.098
						c18.422,18.423,42.613,27.63,66.812,27.63c24.193,0,48.395-9.212,66.813-27.63c0.001-0.001,0.083-0.084,0.084-0.084
						C171.265,110.927,171.265,101.757,165.645,96.12z M163.875,114.798l-1.849-1.686c-34.892,34.889-91.664,34.891-126.555,0
						l-1.768,1.768l1.689-1.848c-3.679-3.688-3.679-9.692,0-13.381l-1.771-1.766l1.849,1.687
						c16.875-16.874,39.347-26.167,63.277-26.167s46.403,9.293,63.334,26.224c0.001,0.001,0.023,0.023,0.024,0.024
						c3.676,3.689,3.675,9.69-0.003,13.379L163.875,114.798z"/>
				</g>
			</g>
		</g>
		<g>
			<g>
				<g>
					<path d="M125.585,79.505c-14.798-14.8-38.876-14.8-53.674,0c-7.158,7.157-11.1,16.688-11.1,26.837s3.942,19.68,11.1,26.837
						c7.157,7.158,16.688,11.1,26.837,11.1c10.148,0,19.679-3.941,26.837-11.1C140.383,118.381,140.383,94.303,125.585,79.505z
						 M122.05,129.644c-6.213,6.213-14.489,9.635-23.302,9.635s-17.088-3.422-23.302-9.635c-6.213-6.214-9.635-14.489-9.635-23.302
						s3.422-17.088,9.635-23.302c6.424-6.424,14.863-9.636,23.302-9.636s16.877,3.212,23.302,9.636
						C134.898,95.889,134.898,116.795,122.05,129.644z"/>
				</g>
			</g>
		</g>
		<g>
			<g>
				<g>
					<path d="M98.748,78.405c-15.404,0-27.937,12.532-27.937,27.937c0,15.405,12.533,27.938,27.937,27.938
						s27.937-12.532,27.937-27.938C126.685,90.938,114.152,78.405,98.748,78.405z M98.748,129.279
						c-12.647,0-22.937-10.29-22.937-22.938s10.29-22.937,22.937-22.937s22.937,10.289,22.937,22.937
						S111.396,129.279,98.748,129.279z"/>
				</g>
			</g>
		</g>
		<g>
			<g>
				<g>
					<path d="M98.749,98.405c-4.451,0-7.937,3.486-7.937,7.937c0,4.451,3.486,7.938,7.937,7.938c4.45,0,7.937-3.486,7.937-7.938
						C106.685,101.892,103.199,98.405,98.749,98.405z M98.749,109.279c-1.674,0-2.937-1.263-2.937-2.938
						c0-1.674,1.263-2.937,2.937-2.937s2.937,1.263,2.937,2.937C101.685,108.017,100.423,109.279,98.749,109.279z"/>
				</g>
			</g>
		</g>
	</g>
</g>
<g id="Layer_62">
</g>
<g id="Layer_63">
</g>
<g id="Layer_64">
</g>
<g id="Layer_65">
</g>
<g id="Layer_66">
</g>
<g id="Layer_67">
</g>
<g id="Layer_68">
</g>
<g id="Layer_69">
</g>
<g id="Layer_70">
</g>
<g id="Layer_71">
</g>
<g id="Layer_72">
</g>
<g id="Layer_73">
</g>
<g id="Layer_74">
</g>
<g id="Layer_75">
</g>
<g id="Layer_76">
</g>
<g id="Layer_77">
</g>
<g id="Layer_78">
</g>
<g id="Layer_79">
</g>
<g id="Layer_80">
</g>
<g id="Layer_81">
</g>
<g id="Layer_82">
</g>
<g id="Layer_83">
</g>
<g id="Layer_84">
</g>
<g id="Layer_85">
</g>
<g id="Layer_86">
</g>
<g id="Layer_87">
</g>
<g id="Layer_88">
</g>
<g id="Layer_89">
</g>
<g id="Layer_90">
</g>
</svg>
