<?xml version="1.0" encoding="utf-8"?>
<!-- Generator: Adobe Illustrator 24.0.0, SVG Export Plug-In . SVG Version: 6.00 Build 0)  -->
<svg version="1.1" xmlns="http://www.w3.org/2000/svg" xmlns:xlink="http://www.w3.org/1999/xlink" x="0px" y="0px"
	 viewBox="0 0 256 256" enable-background="new 0 0 256 256" xml:space="preserve">
<g id="Layer_1">
</g>
<g id="Layer_2">
</g>
<g id="Layer_3">
</g>
<g id="Layer_4">
</g>
<g id="Layer_5">
</g>
<g id="Layer_6">
</g>
<g id="Layer_7">
</g>
<g id="Layer_8">
</g>
<g id="Layer_9">
</g>
<g id="Layer_10">
</g>
<g id="Layer_11">
</g>
<g id="Layer_12">
</g>
<g id="Layer_13">
</g>
<g id="Layer_14">
</g>
<g id="Layer_15">
</g>
<g id="Layer_16">
</g>
<g id="Layer_17">
</g>
<g id="Layer_18">
</g>
<g id="Layer_19">
</g>
<g id="Layer_20">
</g>
<g id="Layer_21">
</g>
<g id="Layer_22">
</g>
<g id="Layer_23">
</g>
<g id="Layer_24">
</g>
<g id="Layer_25">
</g>
<g id="Layer_26">
</g>
<g id="Layer_27">
</g>
<g id="Layer_28">
</g>
<g id="Layer_29">
</g>
<g id="Layer_30">
</g>
<g id="Layer_31">
</g>
<g id="Layer_32">
</g>
<g id="Layer_33">
</g>
<g id="Layer_34">
</g>
<g id="Layer_35">
</g>
<g id="Layer_36">
</g>
<g id="Layer_37">
</g>
<g id="Layer_38">
</g>
<g id="Layer_39">
</g>
<g id="Layer_40">
</g>
<g id="Layer_41">
</g>
<g id="Layer_42">
</g>
<g id="Layer_43">
</g>
<g id="Layer_44">
</g>
<g id="Layer_45">
</g>
<g id="Layer_46">
</g>
<g id="Layer_47">
</g>
<g id="Layer_48">
</g>
<g id="Layer_49">
</g>
<g id="Layer_50">
</g>
<g id="Layer_51">
</g>
<g id="Layer_52">
</g>
<g id="Layer_53">
</g>
<g id="Layer_54">
</g>
<g id="Layer_55">
</g>
<g id="Layer_56">
</g>
<g id="Layer_57">
</g>
<g id="Layer_58">
</g>
<g id="Layer_59">
	<g>
		<g>
			<g>
				<path fill="#EDF4FC" d="M126.261,8.882H26.297c-2.775,0-5.025,2.25-5.025,5.025v184.409c0,2.784,2.257,5.041,5.042,5.041h109.62
					c0.231-15.653,7.771-29.56,19.36-38.459l-4.402-7.531c-1.382-2.364-0.586-5.401,1.778-6.782
					c1.114-0.651,2.374-0.803,3.542-0.551V38.833L126.261,8.882z"/>
			</g>
		</g>
		<g>
			<g>
				<path fill="#FCDD86" d="M199.994,130.383h-29.344c-1.488,0-2.695,1.207-2.695,2.695v8.957c0,1.488,1.207,2.695,2.695,2.695
					h29.344c1.488,0,2.695-1.206,2.695-2.695v-8.957C202.688,131.59,201.482,130.383,199.994,130.383z"/>
			</g>
		</g>
		<g>
			<g>
				<path fill="#F5C84C" d="M185.322,120.666c-3.962,0-7.173,3.212-7.173,7.173v2.544h14.347v-2.544
					C192.495,123.877,189.283,120.666,185.322,120.666z"/>
			</g>
		</g>
		<g>
			<g>
				<circle fill="#70D6F9" cx="185.322" cy="204.094" r="49.406"/>
			</g>
		</g>
		<g>
			<g>
				<path fill="#F5C84C" d="M178.148,144.73v10.485c2.343-0.342,4.737-0.527,7.173-0.527s4.83,0.184,7.173,0.527V144.73H178.148z"/>
			</g>
		</g>
		<g>
			<g>
				
					<ellipse transform="matrix(0.1602 -0.9871 0.9871 0.1602 -45.8223 354.33)" fill="#EDF4FC" cx="185.322" cy="204.094" rx="39.065" ry="39.065"/>
			</g>
		</g>
		<g>
			<g>
				<path fill="#EDF4FC" d="M217.974,150.584c-2.366-1.382-5.402-0.586-6.783,1.779l-4.271,7.305
					c2.992,1.461,5.812,3.219,8.429,5.229l4.402-7.531C221.134,155.003,220.337,151.966,217.974,150.584z"/>
			</g>
		</g>
		<g>
			<g>
				<path fill="#EDF4FC" d="M159.452,152.363c-1.382-2.364-4.417-3.16-6.783-1.779c-2.364,1.382-3.16,4.418-1.778,6.782l4.402,7.531
					c2.618-2.01,5.437-3.768,8.429-5.229L159.452,152.363z"/>
			</g>
		</g>
		<g>
			<g>
				<path fill="#C7D7E5" d="M126.261,8.882v24.926c0,2.775,2.25,5.025,5.025,5.025h24.926L126.261,8.882z"/>
			</g>
		</g>
		<g>
			<g>
				<path fill="#F98FA6" d="M188.824,198.046c-3.377-1.95-7.55-0.832-9.5,2.545c-1.95,3.377-0.831,7.55,2.545,9.5
					c3.377,1.949,7.55,0.831,9.5-2.545C193.319,204.169,192.201,199.996,188.824,198.046z"/>
			</g>
		</g>
		<g>
			<g>
				<path fill="#FC657E" d="M210.534,202.518c-4.145-2.59-8.934-3.964-13.821-3.964l-7.134,0c2.775,2.102,3.586,5.882,1.791,8.991
					c-0.454,0.785-1.031,1.443-1.687,1.973h7.03c4.887,0,9.677-1.373,13.821-3.964C211.656,204.854,211.656,203.22,210.534,202.518z
					"/>
			</g>
		</g>
		<g>
			<g>
				<path fill="#FC657E" d="M185.322,165.029v32.067c1.182,0.003,2.385,0.305,3.502,0.95c0.268,0.155,0.516,0.327,0.754,0.508
					l7.134,0c4.887,0,9.677,1.374,13.821,3.964c0.581,0.364,0.855,0.977,0.834,1.582h13.019v-0.006
					C224.386,182.554,206.862,165.029,185.322,165.029z"/>
			</g>
		</g>
		<g>
			<g>
				<path fill="#F5C84C" d="M185.104,23.396c-4.5-0.8-8-4.3-8.9-8.7c0-0.2-0.4-0.2-0.4,0c-0.9,4.4-4.4,7.9-8.9,8.7
					c-0.2,0-0.2,0.3,0,0.4c4.5,0.8,8,4.3,8.9,8.7c0,0.2,0.4,0.2,0.4,0c0.9-4.4,4.4-7.9,8.9-8.7
					C185.304,23.697,185.304,23.396,185.104,23.396z"/>
			</g>
		</g>
		<g>
			<g>
				<path fill="#FC657E" d="M184.665,96.21c-3.157-0.561-5.613-3.017-6.245-6.104c0-0.14-0.281-0.14-0.281,0
					c-0.631,3.087-3.087,5.543-6.245,6.104c-0.14,0-0.14,0.21,0,0.281c3.157,0.562,5.613,3.017,6.245,6.104
					c0,0.14,0.281,0.14,0.281,0c0.632-3.087,3.087-5.543,6.245-6.104C184.805,96.42,184.805,96.21,184.665,96.21z"/>
			</g>
		</g>
		<g>
			<g>
				<path fill="#87D147" d="M123.754,231.646h-2.3v-2.3c0-1.7-1.4-3.2-3.2-3.2s-3.2,1.4-3.2,3.2v2.3h-2.3c-1.7,0-3.2,1.4-3.2,3.2
					c0,1.8,1.4,3.2,3.2,3.2h2.3v2.3c0,1.7,1.4,3.2,3.2,3.2s3.2-1.4,3.2-3.2v-2.3h2.3c1.7,0,3.2-1.4,3.2-3.2
					C126.954,233.047,125.554,231.646,123.754,231.646z"/>
			</g>
		</g>
		<g>
			<g>
				<path fill="#70D6F9" d="M148.854,0c-1.878,0-3.4,1.522-3.4,3.4c0,1.878,1.522,3.4,3.4,3.4s3.4-1.522,3.4-3.4
					C152.254,1.522,150.732,0,148.854,0z"/>
			</g>
		</g>
		<g>
			<g>
				<path fill="#F5C84C" d="M95.854,218c-1.878,0-3.4,1.522-3.4,3.4c0,1.878,1.522,3.4,3.4,3.4c1.878,0,3.4-1.522,3.4-3.4
					C99.254,219.522,97.732,218,95.854,218z"/>
			</g>
		</g>
		<g>
			<g>
				<path d="M157.979,37.064l-29.951-29.95c-0.469-0.469-1.104-0.732-1.768-0.732H26.297c-4.149,0-7.524,3.375-7.524,7.524v184.409
					c0,4.158,3.383,7.541,7.541,7.541h108.873c1.381,0,2.5-1.119,2.5-2.5s-1.119-2.5-2.5-2.5H26.313
					c-1.401,0-2.541-1.14-2.541-2.541V13.906c0-1.392,1.133-2.524,2.524-2.524h98.929l28.486,28.485v109.801
					c0,1.381,1.119,2.5,2.5,2.5s2.5-1.119,2.5-2.5V38.832C158.712,38.169,158.448,37.533,157.979,37.064z"/>
			</g>
		</g>
		<g>
			<g>
				<g>
					<path d="M199.994,127.883h-29.345c-2.864,0-5.195,2.331-5.195,5.195v8.957c0,2.864,2.331,5.194,5.195,5.194h29.345
						c2.864,0,5.194-2.33,5.194-5.194v-8.957C205.188,130.214,202.858,127.883,199.994,127.883z M200.188,142.035
						c0,0.107-0.087,0.194-0.194,0.194h-29.345c-0.107,0-0.195-0.087-0.195-0.194v-8.957c0-0.107,0.088-0.195,0.195-0.195h29.345
						c0.107,0,0.194,0.088,0.194,0.195V142.035z"/>
				</g>
			</g>
		</g>
		<g>
			<g>
				<path d="M185.321,118.166c-5.334,0-9.673,4.339-9.673,9.673v1.661c0,1.381,1.119,2.5,2.5,2.5s2.5-1.119,2.5-2.5v-1.661
					c0-2.576,2.097-4.673,4.673-4.673c2.577,0,4.674,2.097,4.674,4.673v1.578c0,1.381,1.119,2.5,2.5,2.5s2.5-1.119,2.5-2.5v-1.578
					C194.995,122.505,190.655,118.166,185.321,118.166z"/>
			</g>
		</g>
		<g>
			<g>
				<g>
					<g>
						<g>
							<path d="M185.321,152.188c-28.621,0-51.906,23.285-51.906,51.906S156.7,256,185.321,256s51.906-23.285,51.906-51.906
								S213.942,152.188,185.321,152.188z M185.321,251c-25.864,0-46.906-21.042-46.906-46.906s21.042-46.906,46.906-46.906
								s46.906,21.042,46.906,46.906S211.186,251,185.321,251z"/>
						</g>
					</g>
				</g>
			</g>
		</g>
		<g>
			<g>
				<path d="M192.495,143.292c-1.381,0-2.5,1.119-2.5,2.5v8.541c0,1.381,1.119,2.5,2.5,2.5s2.5-1.119,2.5-2.5v-8.541
					C194.995,144.411,193.876,143.292,192.495,143.292z"/>
			</g>
		</g>
		<g>
			<g>
				<path d="M178.148,143.333c-1.381,0-2.5,1.119-2.5,2.5v8.5c0,1.381,1.119,2.5,2.5,2.5s2.5-1.119,2.5-2.5v-8.5
					C180.648,144.452,179.529,143.333,178.148,143.333z"/>
			</g>
		</g>
		<g>
			<g>
				<g>
					<path d="M185.321,162.529c-22.919,0-41.564,18.646-41.564,41.564s18.646,41.564,41.564,41.564s41.565-18.646,41.565-41.564
						S208.24,162.529,185.321,162.529z M185.321,240.658c-20.162,0-36.564-16.402-36.564-36.564s16.402-36.564,36.564-36.564
						s36.565,16.402,36.565,36.564S205.483,240.658,185.321,240.658z"/>
				</g>
			</g>
		</g>
		<g>
			<g>
				<path d="M185.321,164.598c-1.381,0-2.5,1.119-2.5,2.5v3.103c0,1.381,1.119,2.5,2.5,2.5s2.5-1.119,2.5-2.5v-3.103
					C187.821,165.717,186.702,164.598,185.321,164.598z"/>
			</g>
		</g>
		<g>
			<g>
				<path d="M185.321,235.488c-1.381,0-2.5,1.119-2.5,2.5v3.103c0,1.381,1.119,2.5,2.5,2.5s2.5-1.119,2.5-2.5v-3.103
					C187.821,236.607,186.702,235.488,185.321,235.488z"/>
			</g>
		</g>
		<g>
			<g>
				<path d="M170.539,173.49l-1.551-2.687c-0.691-1.196-2.222-1.605-3.415-0.915c-1.195,0.69-1.605,2.219-0.915,3.415l1.551,2.687
					c0.463,0.802,1.304,1.25,2.167,1.25c0.425,0,0.854-0.107,1.248-0.335C170.819,176.215,171.229,174.687,170.539,173.49z"/>
			</g>
		</g>
		<g>
			<g>
				<path d="M205.984,234.884l-1.551-2.687c-0.69-1.196-2.222-1.604-3.415-0.915c-1.195,0.69-1.605,2.219-0.915,3.415l1.551,2.687
					c0.463,0.802,1.304,1.25,2.167,1.25c0.425,0,0.854-0.107,1.248-0.335C206.265,237.608,206.675,236.08,205.984,234.884z"/>
			</g>
		</g>
		<g>
			<g>
				<path d="M157.218,184.981l-2.688-1.551c-1.193-0.689-2.724-0.282-3.414,0.916c-0.69,1.195-0.28,2.725,0.916,3.414l2.688,1.551
					c0.394,0.228,0.822,0.335,1.247,0.335c0.863,0,1.704-0.448,2.167-1.251C158.824,187.2,158.414,185.671,157.218,184.981z"/>
			</g>
		</g>
		<g>
			<g>
				<path d="M218.611,220.427l-2.687-1.551c-1.193-0.69-2.724-0.281-3.415,0.915c-0.69,1.196-0.28,2.725,0.915,3.415l2.687,1.551
					c0.394,0.228,0.823,0.335,1.248,0.335c0.863,0,1.704-0.448,2.167-1.25C220.217,222.646,219.807,221.117,218.611,220.427z"/>
			</g>
		</g>
		<g>
			<g>
				<path d="M151.428,201.594h-3.103c-1.381,0-2.5,1.119-2.5,2.5s1.119,2.5,2.5,2.5h3.103c1.381,0,2.5-1.119,2.5-2.5
					S152.809,201.594,151.428,201.594z"/>
			</g>
		</g>
		<g>
			<g>
				<path d="M222.318,201.594h-3.103c-1.381,0-2.5,1.119-2.5,2.5s1.119,2.5,2.5,2.5h3.103c1.381,0,2.5-1.119,2.5-2.5
					S223.699,201.594,222.318,201.594z"/>
			</g>
		</g>
		<g>
			<g>
				<path d="M158.134,219.792c-0.69-1.197-2.22-1.608-3.414-0.916l-2.688,1.551c-1.196,0.689-1.606,2.219-0.916,3.414
					c0.463,0.803,1.303,1.251,2.167,1.251c0.424,0,0.854-0.107,1.247-0.335l2.688-1.551
					C158.414,222.517,158.824,220.987,158.134,219.792z"/>
			</g>
		</g>
		<g>
			<g>
				<path d="M219.526,184.346c-0.69-1.195-2.222-1.604-3.415-0.915l-2.687,1.551c-1.195,0.69-1.605,2.219-0.915,3.415
					c0.463,0.802,1.304,1.25,2.167,1.25c0.425,0,0.854-0.107,1.248-0.335l2.687-1.551
					C219.807,187.07,220.217,185.542,219.526,184.346z"/>
			</g>
		</g>
		<g>
			<g>
				<path d="M219.526,184.346c-0.69-1.195-2.222-1.604-3.415-0.915l-2.687,1.551c-1.195,0.69-1.605,2.219-0.915,3.415
					c0.463,0.802,1.304,1.25,2.167,1.25c0.425,0,0.854-0.107,1.248-0.335l2.687-1.551
					C219.807,187.07,220.217,185.542,219.526,184.346z"/>
			</g>
		</g>
		<g>
			<g>
				<path d="M169.624,231.282c-1.193-0.689-2.725-0.281-3.415,0.915l-1.551,2.687c-0.69,1.196-0.28,2.725,0.915,3.415
					c0.394,0.228,0.823,0.335,1.248,0.335c0.863,0,1.704-0.448,2.167-1.25l1.551-2.687
					C171.229,233.501,170.819,231.973,169.624,231.282z"/>
			</g>
		</g>
		<g>
			<g>
				<path d="M205.069,169.889c-1.193-0.69-2.724-0.281-3.415,0.915l-1.551,2.687c-0.69,1.196-0.28,2.725,0.915,3.415
					c0.394,0.228,0.823,0.335,1.248,0.335c0.863,0,1.704-0.448,2.167-1.25l1.551-2.687
					C206.675,172.107,206.265,170.579,205.069,169.889z"/>
			</g>
		</g>
		<g>
			<g>
				<path d="M222.686,152.974c-0.506-1.928-1.73-3.542-3.45-4.547s-3.732-1.283-5.656-0.776c-1.928,0.505-3.543,1.731-4.546,3.451
					l-3.875,6.627c-0.697,1.191-0.296,2.723,0.896,3.42c1.19,0.695,2.723,0.295,3.42-0.896l3.876-6.629
					c0.331-0.566,0.862-0.97,1.496-1.136c0.634-0.167,1.298-0.076,1.865,0.256c0.566,0.331,0.971,0.863,1.137,1.498
					c0.167,0.635,0.076,1.297-0.256,1.864l-3.966,6.785c-0.697,1.192-0.295,2.724,0.896,3.42c0.396,0.232,0.831,0.342,1.26,0.342
					c0.858,0,1.695-0.443,2.16-1.238l3.966-6.785C222.915,156.909,223.19,154.9,222.686,152.974z"/>
			</g>
		</g>
		<g>
			<g>
				<path d="M165.444,157.659l-3.834-6.558c-2.077-3.549-6.654-4.75-10.201-2.676c-1.721,1.005-2.946,2.62-3.451,4.548
					c-0.506,1.927-0.23,3.936,0.775,5.655l3.931,6.725c0.465,0.795,1.301,1.238,2.16,1.238c0.429,0,0.863-0.109,1.26-0.342
					c1.191-0.696,1.594-2.228,0.896-3.42l-3.931-6.725c-0.331-0.566-0.422-1.229-0.256-1.864c0.167-0.635,0.57-1.167,1.138-1.498
					c1.17-0.685,2.678-0.288,3.362,0.882l3.834,6.558c0.697,1.192,2.229,1.591,3.42,0.896
					C165.74,160.382,166.142,158.851,165.444,157.659z"/>
			</g>
		</g>
		<g>
			<g>
				<path fill="#70D6F9" d="M71.176,146.75H39.824c-1.56,0-2.824,1.264-2.824,2.824v16.352c0,1.56,1.264,2.824,2.824,2.824h31.352
					c1.56,0,2.824-1.264,2.824-2.824v-16.352C74,148.014,72.736,146.75,71.176,146.75z"/>
			</g>
		</g>
		<g>
			<g>
				<path fill="#70D6F9" d="M104.176,105H72.824c-1.56,0-2.824,1.264-2.824,2.824v16.352c0,1.56,1.264,2.824,2.824,2.824h31.352
					c1.56,0,2.824-1.264,2.824-2.824v-16.352C107,106.264,105.736,105,104.176,105z"/>
			</g>
		</g>
		<g>
			<g>
				<path fill="#70D6F9" d="M137.176,63h-31.352c-1.56,0-2.824,1.264-2.824,2.824v16.352c0,1.56,1.264,2.824,2.824,2.824h31.352
					c1.56,0,2.824-1.264,2.824-2.824V65.824C140,64.264,138.736,63,137.176,63z"/>
			</g>
		</g>
		<g>
			<g>
				<g>
					<path d="M71.176,144.25H39.824c-2.936,0-5.324,2.389-5.324,5.324v16.352c0,2.936,2.389,5.324,5.324,5.324h31.352
						c2.936,0,5.324-2.389,5.324-5.324v-16.352C76.5,146.639,74.111,144.25,71.176,144.25z M71.5,165.926
						c0,0.179-0.146,0.324-0.324,0.324H39.824c-0.179,0-0.324-0.146-0.324-0.324v-16.352c0-0.179,0.146-0.324,0.324-0.324h31.352
						c0.179,0,0.324,0.146,0.324,0.324V165.926z"/>
				</g>
			</g>
		</g>
		<g>
			<g>
				<path d="M59.5,112.272H46.889c-3.863,0-6.889,2.906-6.889,6.616v19.425c0,1.381,1.119,2.5,2.5,2.5s2.5-1.119,2.5-2.5v-19.425
					c0-1.11,0.979-1.616,1.889-1.616H59.5c1.381,0,2.5-1.119,2.5-2.5S60.881,112.272,59.5,112.272z"/>
			</g>
		</g>
		<g>
			<g>
				<path d="M92.5,70.272H79.889c-3.863,0-6.889,2.906-6.889,6.616v19.425c0,1.381,1.119,2.5,2.5,2.5s2.5-1.119,2.5-2.5V76.889
					c0-1.11,0.979-1.616,1.889-1.616H92.5c1.381,0,2.5-1.119,2.5-2.5S93.881,70.272,92.5,70.272z"/>
			</g>
		</g>
		<g>
			<g>
				<path d="M62.993,113.005l-6.85-6.85c-0.977-0.977-2.559-0.977-3.535,0s-0.977,2.559,0,3.535l5.082,5.082l-5.082,5.082
					c-0.977,0.977-0.977,2.559,0,3.535c0.488,0.488,1.128,0.732,1.768,0.732s1.279-0.244,1.768-0.732l6.85-6.85
					C63.97,115.563,63.97,113.981,62.993,113.005z"/>
			</g>
		</g>
		<g>
			<g>
				<path d="M95.993,71.005l-6.85-6.85c-0.977-0.977-2.559-0.977-3.535,0s-0.977,2.559,0,3.535l5.082,5.082l-5.082,5.082
					c-0.977,0.977-0.977,2.559,0,3.535c0.488,0.488,1.128,0.732,1.768,0.732s1.279-0.244,1.768-0.732l6.85-6.85
					C96.97,73.563,96.97,71.981,95.993,71.005z"/>
			</g>
		</g>
		<g>
			<g>
				<path d="M62.5,155.25h-14c-1.381,0-2.5,1.119-2.5,2.5s1.119,2.5,2.5,2.5h14c1.381,0,2.5-1.119,2.5-2.5
					S63.881,155.25,62.5,155.25z"/>
			</g>
		</g>
		<g>
			<g>
				<g>
					<path d="M104.176,102.5H72.824c-2.936,0-5.324,2.389-5.324,5.324v16.352c0,2.936,2.389,5.324,5.324,5.324h31.352
						c2.936,0,5.324-2.389,5.324-5.324v-16.352C109.5,104.889,107.111,102.5,104.176,102.5z M104.5,124.176
						c0,0.179-0.146,0.324-0.324,0.324H72.824c-0.179,0-0.324-0.146-0.324-0.324v-16.352c0-0.179,0.146-0.324,0.324-0.324h31.352
						c0.179,0,0.324,0.146,0.324,0.324V124.176z"/>
				</g>
			</g>
		</g>
		<g>
			<g>
				<path d="M95.5,113.5h-14c-1.381,0-2.5,1.119-2.5,2.5s1.119,2.5,2.5,2.5h14c1.381,0,2.5-1.119,2.5-2.5S96.881,113.5,95.5,113.5z"
					/>
			</g>
		</g>
		<g>
			<g>
				<g>
					<path d="M137.176,60.5h-31.352c-2.936,0-5.324,2.389-5.324,5.324v16.352c0,2.936,2.389,5.324,5.324,5.324h31.352
						c2.936,0,5.324-2.389,5.324-5.324V65.824C142.5,62.889,140.111,60.5,137.176,60.5z M137.5,82.176
						c0,0.179-0.146,0.324-0.324,0.324h-31.352c-0.179,0-0.324-0.146-0.324-0.324V65.824c0-0.179,0.146-0.324,0.324-0.324h31.352
						c0.179,0,0.324,0.146,0.324,0.324V82.176z"/>
				</g>
			</g>
		</g>
		<g>
			<g>
				<path d="M128.5,71.5h-14c-1.381,0-2.5,1.119-2.5,2.5s1.119,2.5,2.5,2.5h14c1.381,0,2.5-1.119,2.5-2.5S129.881,71.5,128.5,71.5z"
					/>
			</g>
		</g>
		<g>
			<g>
				<g>
					<path d="M194.509,201.614c-0.647-2.42-2.223-4.456-4.435-5.733c-4.594-2.651-10.264-1.131-12.915,3.461
						c-1.276,2.212-1.623,4.763-0.974,7.182c0.648,2.42,2.224,4.456,4.434,5.732c1.483,0.856,3.119,1.294,4.766,1.294
						c0.809,0,1.62-0.105,2.417-0.319c2.42-0.648,4.456-2.223,5.732-4.435C194.812,206.585,195.157,204.034,194.509,201.614z
						 M189.204,206.296c-0.609,1.055-1.566,1.803-2.696,2.105c-1.13,0.3-2.334,0.133-3.388-0.476c-2.199-1.27-2.9-3.885-1.631-6.084
						c0.844-1.461,2.281-2.261,3.797-2.261c0.765,0,1.55,0.204,2.288,0.63c1.055,0.609,1.803,1.567,2.105,2.697
						S189.813,205.241,189.204,206.296z"/>
				</g>
			</g>
		</g>
		<g>
			<g>
				<path d="M211.858,200.398c-4.544-2.841-9.782-4.344-15.146-4.345l-6.524,0.001c-1.381,0-2.5,1.12-2.5,2.5
					c0,1.381,1.12,2.5,2.5,2.5l6.523-0.001c4.031,0.001,7.975,1.028,11.479,2.983c-3.507,1.954-7.45,2.982-11.479,2.982h-6.494
					c-1.381,0-2.5,1.119-2.5,2.5s1.119,2.5,2.5,2.5h6.494c5.361,0,10.599-1.502,15.146-4.343c1.264-0.789,2.018-2.15,2.018-3.64
					S213.121,201.187,211.858,200.398z"/>
			</g>
		</g>
		<g>
			<g>
				<path d="M155.063,36.332h-23.776c-1.393,0-2.525-1.133-2.525-2.524V10.125c0-1.381-1.119-2.5-2.5-2.5s-2.5,1.119-2.5,2.5v23.683
					c0,4.149,3.376,7.524,7.525,7.524h23.776c1.381,0,2.5-1.119,2.5-2.5S156.443,36.332,155.063,36.332z"/>
			</g>
		</g>
	</g>
</g>
<g id="Layer_60">
</g>
<g id="Layer_61">
</g>
<g id="Layer_62">
</g>
<g id="Layer_63">
</g>
<g id="Layer_64">
</g>
<g id="Layer_65">
</g>
<g id="Layer_66">
</g>
<g id="Layer_67">
</g>
<g id="Layer_68">
</g>
<g id="Layer_69">
</g>
<g id="Layer_70">
</g>
<g id="Layer_71">
</g>
<g id="Layer_72">
</g>
<g id="Layer_73">
</g>
<g id="Layer_74">
</g>
<g id="Layer_75">
</g>
<g id="Layer_76">
</g>
<g id="Layer_77">
</g>
<g id="Layer_78">
</g>
<g id="Layer_79">
</g>
<g id="Layer_80">
</g>
<g id="Layer_81">
</g>
<g id="Layer_82">
</g>
<g id="Layer_83">
</g>
<g id="Layer_84">
</g>
<g id="Layer_85">
</g>
<g id="Layer_86">
</g>
<g id="Layer_87">
</g>
<g id="Layer_88">
</g>
<g id="Layer_89">
</g>
<g id="Layer_90">
</g>
</svg>
