<?xml version="1.0" encoding="utf-8"?>
<!-- Generator: Adobe Illustrator 24.0.0, SVG Export Plug-In . SVG Version: 6.00 Build 0)  -->
<svg version="1.1" xmlns="http://www.w3.org/2000/svg" xmlns:xlink="http://www.w3.org/1999/xlink" x="0px" y="0px"
	 viewBox="0 0 256 256" enable-background="new 0 0 256 256" xml:space="preserve">
<g id="Layer_1">
</g>
<g id="Layer_2">
</g>
<g id="Layer_3">
</g>
<g id="Layer_4">
</g>
<g id="Layer_5">
</g>
<g id="Layer_6">
</g>
<g id="Layer_7">
</g>
<g id="Layer_8">
</g>
<g id="Layer_9">
</g>
<g id="Layer_10">
</g>
<g id="Layer_11">
</g>
<g id="Layer_12">
</g>
<g id="Layer_13">
</g>
<g id="Layer_14">
</g>
<g id="Layer_15">
</g>
<g id="Layer_16">
</g>
<g id="Layer_17">
</g>
<g id="Layer_18">
</g>
<g id="Layer_19">
</g>
<g id="Layer_20">
</g>
<g id="Layer_21">
</g>
<g id="Layer_22">
</g>
<g id="Layer_23">
</g>
<g id="Layer_24">
</g>
<g id="Layer_25">
</g>
<g id="Layer_26">
</g>
<g id="Layer_27">
</g>
<g id="Layer_28">
</g>
<g id="Layer_29">
</g>
<g id="Layer_30">
</g>
<g id="Layer_31">
</g>
<g id="Layer_32">
</g>
<g id="Layer_33">
</g>
<g id="Layer_34">
</g>
<g id="Layer_35">
</g>
<g id="Layer_36">
</g>
<g id="Layer_37">
</g>
<g id="Layer_38">
</g>
<g id="Layer_39">
</g>
<g id="Layer_40">
</g>
<g id="Layer_41">
</g>
<g id="Layer_42">
</g>
<g id="Layer_43">
</g>
<g id="Layer_44">
</g>
<g id="Layer_45">
</g>
<g id="Layer_46">
</g>
<g id="Layer_47">
</g>
<g id="Layer_48">
</g>
<g id="Layer_49">
</g>
<g id="Layer_50">
</g>
<g id="Layer_51">
</g>
<g id="Layer_52">
</g>
<g id="Layer_53">
</g>
<g id="Layer_54">
</g>
<g id="Layer_55">
</g>
<g id="Layer_56">
</g>
<g id="Layer_57">
</g>
<g id="Layer_58">
	<g>
		<g>
			<g>
				<path fill="#EDF4FC" d="M140.145,41.1H53.298c-2.512,0-4.548,2.036-4.548,4.547v166.89c0,2.52,2.043,4.563,4.563,4.563h109.375
					c2.52,0,4.563-2.043,4.563-4.563V68.206L140.145,41.1z"/>
			</g>
		</g>
		<g>
			<g>
				<path fill="#F5C84C" d="M76.176,82.361h-8.091c-0.935,0-1.693,0.758-1.693,1.693v6.092c0,0.935,0.758,1.693,1.693,1.693h8.091
					c0.935,0,1.693-0.758,1.693-1.693v-6.092C77.87,83.119,77.111,82.361,76.176,82.361z"/>
			</g>
		</g>
		<g>
			<g>
				<path fill="#70D6F9" d="M147.915,82.361H91.041c-0.935,0-1.693,0.758-1.693,1.693v6.092c0,0.935,0.758,1.693,1.693,1.693h56.874
					c0.935,0,1.693-0.758,1.693-1.693v-6.092C149.609,83.119,148.851,82.361,147.915,82.361z"/>
			</g>
		</g>
		<g>
			<g>
				<path fill="#F5C84C" d="M76.176,103.627h-8.091c-0.935,0-1.693,0.758-1.693,1.694v6.091c0,0.935,0.758,1.693,1.693,1.693h8.091
					c0.935,0,1.693-0.758,1.693-1.693v-6.091C77.87,104.386,77.111,103.627,76.176,103.627z"/>
			</g>
		</g>
		<g>
			<g>
				<path fill="#70D6F9" d="M147.915,103.627H91.041c-0.935,0-1.693,0.758-1.693,1.694v6.091c0,0.935,0.758,1.693,1.693,1.693
					h56.874c0.935,0,1.693-0.758,1.693-1.693v-6.091C149.609,104.386,148.851,103.627,147.915,103.627z"/>
			</g>
		</g>
		<g>
			<g>
				<path fill="#F5C84C" d="M76.176,124.894h-8.091c-0.935,0-1.693,0.758-1.693,1.694v6.091c0,0.935,0.758,1.694,1.693,1.694h8.091
					c0.935,0,1.693-0.758,1.693-1.694v-6.091C77.87,125.652,77.111,124.894,76.176,124.894z"/>
			</g>
		</g>
		<g>
			<g>
				<path fill="#70D6F9" d="M147.915,124.894H91.041c-0.935,0-1.693,0.758-1.693,1.694v6.091c0,0.935,0.758,1.694,1.693,1.694
					h56.874c0.935,0,1.693-0.758,1.693-1.694v-6.091C149.609,125.652,148.851,124.894,147.915,124.894z"/>
			</g>
		</g>
		<g>
			<g>
				<path fill="#F5C84C" d="M76.176,146.161h-8.091c-0.935,0-1.693,0.758-1.693,1.693v6.092c0,0.935,0.758,1.693,1.693,1.693h8.091
					c0.935,0,1.693-0.758,1.693-1.693v-6.092C77.87,146.919,77.111,146.161,76.176,146.161z"/>
			</g>
		</g>
		<g>
			<g>
				<path fill="#70D6F9" d="M147.915,146.161H91.041c-0.935,0-1.693,0.758-1.693,1.693v6.092c0,0.935,0.758,1.693,1.693,1.693
					h56.874c0.935,0,1.693-0.758,1.693-1.693v-6.092C149.609,146.919,148.851,146.161,147.915,146.161z"/>
			</g>
		</g>
		<g>
			<g>
				<path fill="#F5C84C" d="M76.176,167.427h-8.091c-0.935,0-1.693,0.758-1.693,1.694v6.091c0,0.935,0.758,1.693,1.693,1.693h8.091
					c0.935,0,1.693-0.758,1.693-1.693v-6.091C77.87,168.186,77.111,167.427,76.176,167.427z"/>
			</g>
		</g>
		<g>
			<g>
				<path fill="#70D6F9" d="M147.915,167.427H91.041c-0.935,0-1.693,0.758-1.693,1.694v6.091c0,0.935,0.758,1.693,1.693,1.693
					h56.874c0.935,0,1.693-0.758,1.693-1.693v-6.091C149.609,168.186,148.851,167.427,147.915,167.427z"/>
			</g>
		</g>
		<g>
			<g>
				<path fill="#F5C84C" d="M76.176,188.694h-8.091c-0.935,0-1.693,0.758-1.693,1.693v6.091c0,0.935,0.758,1.693,1.693,1.693h8.091
					c0.935,0,1.693-0.758,1.693-1.693v-6.091C77.87,189.452,77.111,188.694,76.176,188.694z"/>
			</g>
		</g>
		<g>
			<g>
				<path fill="#70D6F9" d="M147.915,188.694H91.041c-0.935,0-1.693,0.758-1.693,1.693v6.091c0,0.935,0.758,1.693,1.693,1.693
					h56.874c0.935,0,1.693-0.758,1.693-1.693v-6.091C149.609,189.452,148.851,188.694,147.915,188.694z"/>
			</g>
		</g>
		<g>
			<g>
				<path fill="#C7D7E5" d="M140.145,41.1v22.558c0,2.511,2.036,4.547,4.548,4.547h22.558L140.145,41.1z"/>
			</g>
		</g>
		<g>
			<g>
				<path fill="#70D6F9" d="M226.508,71.964l-20.14-20.14c-2.342-2.344-6.143-2.344-8.484,0c-2.344,2.343-2.344,6.142,0,8.484
					l9.897,9.897h-28.256v12h28.256l-9.897,9.897c-2.344,2.343-2.344,6.142,0,8.484c2.342,2.343,6.143,2.344,8.484,0l20.14-20.14
					C228.852,78.106,228.852,74.307,226.508,71.964z"/>
			</g>
		</g>
		<g>
			<g>
				<path fill="#70D6F9" d="M8.5,123.1c-3.313,0-6,2.687-6,6s2.687,6,6,6h27.974v-12H8.5z"/>
			</g>
		</g>
		<g>
			<g>
				<path fill="#70D6F9" d="M8.5,70.207c-3.313,0-6,2.687-6,6s2.687,6,6,6h27.974v-12H8.5z"/>
			</g>
		</g>
		<g>
			<g>
				<path fill="#70D6F9" d="M251.742,124.858l-20.14-20.14c-2.342-2.344-6.143-2.344-8.484,0c-2.344,2.343-2.344,6.142,0,8.484
					l9.897,9.897h-53.489v12h53.489l-9.897,9.897c-2.344,2.343-2.344,6.142,0,8.484c2.342,2.343,6.143,2.344,8.484,0l20.14-20.14
					C254.086,131,254.086,127.201,251.742,124.858z"/>
			</g>
		</g>
		<g>
			<g>
				<path fill="#70D6F9" d="M226.508,177.751l-20.14-20.14c-2.342-2.344-6.143-2.344-8.484,0c-2.344,2.343-2.344,6.142,0,8.484
					l9.897,9.897h-28.256v12h28.256l-9.897,9.897c-2.344,2.343-2.344,6.142,0,8.484c2.342,2.343,6.143,2.344,8.484,0l20.14-20.14
					C228.852,183.893,228.852,180.094,226.508,177.751z"/>
			</g>
		</g>
		<g>
			<g>
				<path fill="#70D6F9" d="M8.5,175.994c-3.313,0-6,2.687-6,6s2.687,6,6,6h27.974v-12H8.5z"/>
			</g>
		</g>
		<g>
			<g>
				<path fill="#F5C84C" d="M177.104,33.497c-4.5-0.8-8-4.3-8.9-8.7c0-0.2-0.4-0.2-0.4,0c-0.9,4.4-4.4,7.9-8.9,8.7
					c-0.2,0-0.2,0.3,0,0.4c4.5,0.8,8,4.3,8.9,8.7c0,0.2,0.4,0.2,0.4,0c0.9-4.4,4.4-7.9,8.9-8.7
					C177.304,33.797,177.304,33.497,177.104,33.497z"/>
			</g>
		</g>
		<g>
			<g>
				<path fill="#87D147" d="M255.895,88.31c-3.158-0.561-5.613-3.017-6.245-6.104c0-0.14-0.281-0.14-0.281,0
					c-0.631,3.087-3.087,5.543-6.245,6.104c-0.14,0-0.14,0.211,0,0.281c3.158,0.562,5.613,3.017,6.245,6.104
					c0,0.14,0.281,0.14,0.281,0c0.631-3.087,3.087-5.543,6.245-6.104C256.035,88.52,256.035,88.31,255.895,88.31z"/>
			</g>
		</g>
		<g>
			<g>
				<path fill="#FC657E" d="M36.754,219.747h-2.3v-2.3c0-1.7-1.4-3.2-3.2-3.2s-3.2,1.4-3.2,3.2v2.3h-2.3c-1.7,0-3.2,1.4-3.2,3.2
					s1.4,3.2,3.2,3.2h2.3v2.3c0,1.7,1.4,3.2,3.2,3.2s3.2-1.4,3.2-3.2v-2.3h2.3c1.7,0,3.2-1.4,3.2-3.2S38.554,219.747,36.754,219.747
					z"/>
			</g>
		</g>
		<g>
			<g>
				<path fill="#F5C84C" d="M61.854,231.1c-1.878,0-3.4,1.522-3.4,3.4c0,1.878,1.522,3.4,3.4,3.4c1.878,0,3.4-1.522,3.4-3.4
					C65.254,232.622,63.732,231.1,61.854,231.1z"/>
			</g>
		</g>
		<g>
			<g>
				<path fill="#70D6F9" d="M139.854,18.1c-1.878,0-3.4,1.522-3.4,3.4c0,1.878,1.522,3.4,3.4,3.4c1.878,0,3.4-1.522,3.4-3.4
					C143.254,19.622,141.732,18.1,139.854,18.1z"/>
			</g>
		</g>
		<g>
			<g>
				<g>
					<path d="M169.018,66.438l-27.105-27.105c-0.469-0.469-1.104-0.732-1.768-0.732H53.297c-3.886,0-7.047,3.162-7.047,7.048v166.89
						c0,3.895,3.168,7.063,7.062,7.063h109.375c3.895,0,7.063-3.168,7.063-7.063V68.205
						C169.75,67.542,169.486,66.906,169.018,66.438z M164.75,212.537c0,1.138-0.925,2.063-2.063,2.063H53.312
						c-1.137,0-2.062-0.925-2.062-2.063V45.647c0-1.129,0.918-2.048,2.047-2.048h85.812L164.75,69.24V212.537z"/>
				</g>
			</g>
		</g>
		<g>
			<g>
				<path d="M228.275,70.196l-20.138-20.139c-1.604-1.606-3.739-2.491-6.011-2.491s-4.406,0.885-6.01,2.489
					c-1.605,1.605-2.49,3.74-2.49,6.011s0.885,4.405,2.49,6.01l5.629,5.63h-22.221c-1.381,0-2.5,1.119-2.5,2.5s1.119,2.5,2.5,2.5
					h28.256c1.011,0,1.923-0.609,2.31-1.543c0.387-0.935,0.173-2.01-0.542-2.725l-9.896-9.898c-0.661-0.66-1.025-1.539-1.025-2.474
					s0.364-1.813,1.026-2.476c1.32-1.32,3.626-1.321,4.948,0.001l20.139,20.141c0.661,0.66,1.025,1.539,1.025,2.474
					s-0.364,1.813-1.025,2.475l-20.14,20.14c-1.319,1.322-3.625,1.325-4.948-0.001c-0.661-0.66-1.025-1.539-1.025-2.474
					s0.364-1.813,1.025-2.475l9.896-9.897c0.715-0.715,0.929-1.79,0.542-2.725c-0.387-0.934-1.299-1.543-2.31-1.543h-28.256
					c-1.381,0-2.5,1.119-2.5,2.5s1.119,2.5,2.5,2.5h22.221l-5.629,5.629c-1.605,1.605-2.49,3.74-2.49,6.011s0.885,4.405,2.489,6.009
					c1.604,1.606,3.738,2.491,6.01,2.491s4.406-0.885,6.011-2.49l20.139-20.139c1.605-1.605,2.49-3.74,2.49-6.011
					S229.881,71.801,228.275,70.196z"/>
			</g>
		</g>
		<g>
			<g>
				<path d="M36.475,132.6H8.5c-1.93,0-3.5-1.57-3.5-3.5s1.57-3.5,3.5-3.5h27.975c1.381,0,2.5-1.119,2.5-2.5s-1.119-2.5-2.5-2.5H8.5
					c-4.687,0-8.5,3.813-8.5,8.5s3.813,8.5,8.5,8.5h27.975c1.381,0,2.5-1.119,2.5-2.5S37.855,132.6,36.475,132.6z"/>
			</g>
		</g>
		<g>
			<g>
				<path d="M36.475,79.706H8.5c-1.93,0-3.5-1.57-3.5-3.5s1.57-3.5,3.5-3.5h27.975c1.381,0,2.5-1.119,2.5-2.5s-1.119-2.5-2.5-2.5
					H8.5c-4.687,0-8.5,3.813-8.5,8.5s3.813,8.5,8.5,8.5h27.975c1.381,0,2.5-1.119,2.5-2.5S37.855,79.706,36.475,79.706z"/>
			</g>
		</g>
		<g>
			<g>
				<path d="M253.51,123.09l-20.139-20.139c-1.604-1.606-3.739-2.491-6.011-2.491s-4.406,0.885-6.01,2.489
					c-1.605,1.605-2.49,3.74-2.49,6.011s0.885,4.405,2.49,6.01l5.629,5.63h-47.454c-1.381,0-2.5,1.119-2.5,2.5s1.119,2.5,2.5,2.5
					h53.489c1.011,0,1.923-0.609,2.31-1.543c0.387-0.935,0.173-2.01-0.542-2.725l-9.896-9.898c-0.661-0.66-1.025-1.539-1.025-2.474
					s0.364-1.813,1.026-2.476c1.32-1.32,3.626-1.321,4.948,0.001l20.14,20.141c0.661,0.66,1.025,1.539,1.025,2.474
					s-0.364,1.813-1.025,2.475l-20.141,20.141c-1.32,1.32-3.626,1.322-4.948-0.002c-0.661-0.66-1.025-1.539-1.025-2.474
					s0.364-1.813,1.025-2.475l9.896-9.897c0.715-0.715,0.929-1.79,0.542-2.725c-0.387-0.934-1.299-1.543-2.31-1.543h-53.489
					c-1.381,0-2.5,1.119-2.5,2.5s1.119,2.5,2.5,2.5h47.454l-5.629,5.629c-1.605,1.605-2.49,3.74-2.49,6.011s0.885,4.405,2.489,6.009
					c1.604,1.606,3.739,2.491,6.011,2.491s4.406-0.885,6.01-2.49l20.14-20.139c1.605-1.605,2.49-3.74,2.49-6.011
					S255.115,124.694,253.51,123.09z"/>
			</g>
		</g>
		<g>
			<g>
				<path d="M228.275,175.983l-20.138-20.139c-1.604-1.606-3.739-2.491-6.011-2.491s-4.406,0.885-6.01,2.489
					c-1.605,1.605-2.49,3.74-2.49,6.011s0.885,4.405,2.49,6.01l5.629,5.63h-22.221c-1.381,0-2.5,1.119-2.5,2.5s1.119,2.5,2.5,2.5
					h28.256c1.011,0,1.923-0.609,2.31-1.543c0.387-0.935,0.173-2.01-0.542-2.725l-9.896-9.898c-0.661-0.66-1.025-1.539-1.025-2.474
					s0.364-1.813,1.026-2.476c1.32-1.32,3.626-1.321,4.948,0.001l20.139,20.141c0.661,0.66,1.025,1.539,1.025,2.474
					s-0.364,1.813-1.025,2.475l-20.14,20.14c-1.319,1.321-3.625,1.324-4.948-0.001c-0.661-0.66-1.025-1.539-1.025-2.474
					s0.364-1.813,1.025-2.475l9.896-9.897c0.715-0.715,0.929-1.79,0.542-2.725c-0.387-0.934-1.299-1.543-2.31-1.543h-28.256
					c-1.381,0-2.5,1.119-2.5,2.5s1.119,2.5,2.5,2.5h22.221l-5.629,5.629c-1.605,1.605-2.49,3.74-2.49,6.011s0.885,4.405,2.489,6.009
					c1.604,1.606,3.738,2.491,6.01,2.491s4.406-0.885,6.011-2.49l20.139-20.139c1.605-1.605,2.49-3.74,2.49-6.011
					S229.881,177.588,228.275,175.983z"/>
			</g>
		</g>
		<g>
			<g>
				<path d="M36.475,185.493H8.5c-1.93,0-3.5-1.57-3.5-3.5s1.57-3.5,3.5-3.5h27.975c1.381,0,2.5-1.119,2.5-2.5s-1.119-2.5-2.5-2.5
					H8.5c-4.687,0-8.5,3.813-8.5,8.5s3.813,8.5,8.5,8.5h27.975c1.381,0,2.5-1.119,2.5-2.5S37.855,185.493,36.475,185.493z"/>
			</g>
		</g>
		<g>
			<g>
				<g>
					<path d="M76.176,79.861h-8.091c-2.313,0-4.194,1.881-4.194,4.193v6.091c0,2.313,1.881,4.193,4.194,4.193h8.091
						c2.312,0,4.193-1.881,4.193-4.193v-6.091C80.37,81.742,78.488,79.861,76.176,79.861z M75.37,89.339h-6.479v-4.478h6.479V89.339
						z"/>
				</g>
			</g>
		</g>
		<g>
			<g>
				<g>
					<path d="M147.915,79.861H91.042c-2.313,0-4.194,1.881-4.194,4.193v6.091c0,2.313,1.881,4.193,4.194,4.193h56.874
						c2.313,0,4.193-1.881,4.193-4.193v-6.091C152.108,81.742,150.228,79.861,147.915,79.861z M147.108,89.339H91.848v-4.478h55.261
						V89.339z"/>
				</g>
			</g>
		</g>
		<g>
			<g>
				<g>
					<path d="M76.176,101.128h-8.091c-2.313,0-4.194,1.881-4.194,4.193v6.091c0,2.313,1.881,4.193,4.194,4.193h8.091
						c2.312,0,4.193-1.881,4.193-4.193v-6.091C80.37,103.009,78.488,101.128,76.176,101.128z M75.37,110.605h-6.479v-4.478h6.479
						V110.605z"/>
				</g>
			</g>
		</g>
		<g>
			<g>
				<g>
					<path d="M147.915,101.128H91.042c-2.313,0-4.194,1.881-4.194,4.193v6.091c0,2.313,1.881,4.193,4.194,4.193h56.874
						c2.313,0,4.193-1.881,4.193-4.193v-6.091C152.108,103.009,150.228,101.128,147.915,101.128z M147.108,110.605H91.848v-4.478
						h55.261V110.605z"/>
				</g>
			</g>
		</g>
		<g>
			<g>
				<g>
					<path d="M76.176,122.395h-8.091c-2.313,0-4.194,1.881-4.194,4.193v6.091c0,2.313,1.881,4.193,4.194,4.193h8.091
						c2.312,0,4.193-1.881,4.193-4.193v-6.091C80.37,124.275,78.488,122.395,76.176,122.395z M75.37,131.872h-6.479v-4.478h6.479
						V131.872z"/>
				</g>
			</g>
		</g>
		<g>
			<g>
				<g>
					<path d="M147.915,122.395H91.042c-2.313,0-4.194,1.881-4.194,4.193v6.091c0,2.313,1.881,4.193,4.194,4.193h56.874
						c2.313,0,4.193-1.881,4.193-4.193v-6.091C152.108,124.275,150.228,122.395,147.915,122.395z M147.108,131.872H91.848v-4.478
						h55.261V131.872z"/>
				</g>
			</g>
		</g>
		<g>
			<g>
				<g>
					<path d="M76.176,143.661h-8.091c-2.313,0-4.194,1.881-4.194,4.193v6.091c0,2.313,1.881,4.193,4.194,4.193h8.091
						c2.312,0,4.193-1.881,4.193-4.193v-6.091C80.37,145.542,78.488,143.661,76.176,143.661z M75.37,153.139h-6.479v-4.478h6.479
						V153.139z"/>
				</g>
			</g>
		</g>
		<g>
			<g>
				<g>
					<path d="M147.915,143.661H91.042c-2.313,0-4.194,1.881-4.194,4.193v6.091c0,2.313,1.881,4.193,4.194,4.193h56.874
						c2.313,0,4.193-1.881,4.193-4.193v-6.091C152.108,145.542,150.228,143.661,147.915,143.661z M147.108,153.139H91.848v-4.478
						h55.261V153.139z"/>
				</g>
			</g>
		</g>
		<g>
			<g>
				<g>
					<path d="M76.176,164.928h-8.091c-2.313,0-4.194,1.881-4.194,4.193v6.091c0,2.313,1.881,4.194,4.194,4.194h8.091
						c2.312,0,4.193-1.882,4.193-4.194v-6.091C80.37,166.809,78.488,164.928,76.176,164.928z M75.37,174.406h-6.479v-4.479h6.479
						V174.406z"/>
				</g>
			</g>
		</g>
		<g>
			<g>
				<g>
					<path d="M147.915,164.928H91.042c-2.313,0-4.194,1.881-4.194,4.193v6.091c0,2.313,1.881,4.194,4.194,4.194h56.874
						c2.313,0,4.193-1.882,4.193-4.194v-6.091C152.108,166.809,150.228,164.928,147.915,164.928z M147.108,174.406H91.848v-4.479
						h55.261V174.406z"/>
				</g>
			</g>
		</g>
		<g>
			<g>
				<g>
					<path d="M76.176,186.194h-8.091c-2.313,0-4.194,1.881-4.194,4.193v6.092c0,2.313,1.881,4.193,4.194,4.193h8.091
						c2.312,0,4.193-1.881,4.193-4.193v-6.092C80.37,188.075,78.488,186.194,76.176,186.194z M75.37,195.673h-6.479v-4.479h6.479
						V195.673z"/>
				</g>
			</g>
		</g>
		<g>
			<g>
				<g>
					<path d="M147.915,186.194H91.042c-2.313,0-4.194,1.881-4.194,4.193v6.092c0,2.313,1.881,4.193,4.194,4.193h56.874
						c2.313,0,4.193-1.881,4.193-4.193v-6.092C152.108,188.075,150.228,186.194,147.915,186.194z M147.108,195.673H91.848v-4.479
						h55.261V195.673z"/>
				</g>
			</g>
		</g>
		<g>
			<g>
				<path d="M166.25,65.705h-21.558c-1.129,0-2.048-0.918-2.048-2.047V42c0-1.381-1.119-2.5-2.5-2.5s-2.5,1.119-2.5,2.5v21.658
					c0,3.886,3.162,7.047,7.048,7.047h21.558c1.381,0,2.5-1.119,2.5-2.5S167.631,65.705,166.25,65.705z"/>
			</g>
		</g>
	</g>
</g>
<g id="Layer_59">
</g>
<g id="Layer_60">
</g>
<g id="Layer_61">
</g>
<g id="Layer_62">
</g>
<g id="Layer_63">
</g>
<g id="Layer_64">
</g>
<g id="Layer_65">
</g>
<g id="Layer_66">
</g>
<g id="Layer_67">
</g>
<g id="Layer_68">
</g>
<g id="Layer_69">
</g>
<g id="Layer_70">
</g>
<g id="Layer_71">
</g>
<g id="Layer_72">
</g>
<g id="Layer_73">
</g>
<g id="Layer_74">
</g>
<g id="Layer_75">
</g>
<g id="Layer_76">
</g>
<g id="Layer_77">
</g>
<g id="Layer_78">
</g>
<g id="Layer_79">
</g>
<g id="Layer_80">
</g>
<g id="Layer_81">
</g>
<g id="Layer_82">
</g>
<g id="Layer_83">
</g>
<g id="Layer_84">
</g>
<g id="Layer_85">
</g>
<g id="Layer_86">
</g>
<g id="Layer_87">
</g>
<g id="Layer_88">
</g>
<g id="Layer_89">
</g>
<g id="Layer_90">
</g>
</svg>
