<?xml version="1.0" encoding="utf-8"?>
<!-- Generator: Adobe Illustrator 24.0.0, SVG Export Plug-In . SVG Version: 6.00 Build 0)  -->
<svg version="1.1" xmlns="http://www.w3.org/2000/svg" xmlns:xlink="http://www.w3.org/1999/xlink" x="0px" y="0px"
	 viewBox="0 0 256 256" enable-background="new 0 0 256 256" xml:space="preserve">
<g id="Layer_1">
</g>
<g id="Layer_2">
</g>
<g id="Layer_3">
</g>
<g id="Layer_4">
</g>
<g id="Layer_5">
</g>
<g id="Layer_6">
</g>
<g id="Layer_7">
</g>
<g id="Layer_8">
</g>
<g id="Layer_9">
</g>
<g id="Layer_10">
</g>
<g id="Layer_11">
</g>
<g id="Layer_12">
</g>
<g id="Layer_13">
</g>
<g id="Layer_14">
</g>
<g id="Layer_15">
</g>
<g id="Layer_16">
</g>
<g id="Layer_17">
</g>
<g id="Layer_18">
</g>
<g id="Layer_19">
</g>
<g id="Layer_20">
</g>
<g id="Layer_21">
</g>
<g id="Layer_22">
</g>
<g id="Layer_23">
</g>
<g id="Layer_24">
</g>
<g id="Layer_25">
</g>
<g id="Layer_26">
</g>
<g id="Layer_27">
</g>
<g id="Layer_28">
</g>
<g id="Layer_29">
</g>
<g id="Layer_30">
</g>
<g id="Layer_31">
</g>
<g id="Layer_32">
</g>
<g id="Layer_33">
</g>
<g id="Layer_34">
</g>
<g id="Layer_35">
</g>
<g id="Layer_36">
</g>
<g id="Layer_37">
</g>
<g id="Layer_38">
</g>
<g id="Layer_39">
</g>
<g id="Layer_40">
</g>
<g id="Layer_41">
</g>
<g id="Layer_42">
</g>
<g id="Layer_43">
</g>
<g id="Layer_44">
	<g>
		<g>
			<g>
				<path fill="#F5C84C" d="M18.65,169.706c-1.978,0-3.582,1.604-3.582,3.582v25.179c0,1.978,1.604,3.582,3.582,3.582h94.792
					v-32.342H18.65z"/>
			</g>
		</g>
		<g>
			<g>
				<path fill="#DAE6F1" d="M168.886,169.706h-55.443v32.342h55.443c1.978,0,3.582-1.604,3.582-3.582v-25.179
					C172.467,171.309,170.864,169.706,168.886,169.706z"/>
			</g>
		</g>
		<g>
			<g>
				
					<ellipse transform="matrix(0.9975 -0.0709 0.0709 0.9975 -12.6373 15.6665)" fill="#F5C84C" cx="214.403" cy="185.877" rx="26.528" ry="26.529"/>
			</g>
		</g>
		<g>
			<g>
				<path fill="#B2E26D" d="M168.886,101.797H18.65c-1.978,0-3.582,1.603-3.582,3.582v25.179c0,1.978,1.604,3.582,3.582,3.582
					h150.235c1.978,0,3.582-1.603,3.582-3.582v-25.179C172.467,103.401,170.864,101.797,168.886,101.797z"/>
			</g>
		</g>
		<g>
			<g>
				
					<ellipse transform="matrix(0.9951 -0.0985 0.0985 0.9951 -10.581 21.701)" fill="#B2E26D" cx="214.403" cy="117.968" rx="26.528" ry="26.529"/>
			</g>
		</g>
		<g>
			<g>
				<path fill="#B2E26D" d="M168.886,33.889H18.65c-1.978,0-3.582,1.604-3.582,3.582v25.179c0,1.978,1.604,3.582,3.582,3.582
					h150.235c1.978,0,3.582-1.604,3.582-3.582V37.471C172.467,35.492,170.864,33.889,168.886,33.889z"/>
			</g>
		</g>
		<g>
			<g>
				
					<ellipse transform="matrix(0.3827 -0.9239 0.9239 0.3827 86.1049 228.9853)" fill="#B2E26D" cx="214.403" cy="50.06" rx="26.528" ry="26.528"/>
			</g>
		</g>
		<g>
			<g>
				<path fill="#F5C84C" d="M250.8,151.818c-4.5-0.8-8-4.3-8.9-8.7c0-0.2-0.4-0.2-0.4,0c-0.9,4.4-4.4,7.9-8.9,8.7
					c-0.2,0-0.2,0.3,0,0.4c4.5,0.8,8,4.3,8.9,8.7c0,0.2,0.4,0.2,0.4,0c0.9-4.4,4.4-7.9,8.9-8.7
					C251,152.118,251,151.818,250.8,151.818z"/>
			</g>
		</g>
		<g>
			<g>
				<path fill="#F5C84C" d="M12.876,83.178c-3.158-0.562-5.613-3.017-6.245-6.104c0-0.14-0.281-0.14-0.281,0
					c-0.631,3.087-3.087,5.543-6.245,6.104c-0.14,0-0.14,0.21,0,0.281c3.158,0.561,5.613,3.017,6.245,6.104
					c0,0.14,0.281,0.14,0.281,0c0.631-3.087,3.087-5.543,6.245-6.104C13.016,83.389,13.016,83.178,12.876,83.178z"/>
			</g>
		</g>
		<g>
			<g>
				<path fill="#70D6F9" d="M70.7,223.068h-2.3v-2.3c0-1.7-1.4-3.2-3.2-3.2s-3.2,1.4-3.2,3.2v2.3h-2.3c-1.7,0-3.2,1.4-3.2,3.2
					s1.4,3.2,3.2,3.2H62v2.3c0,1.7,1.4,3.2,3.2,3.2s3.2-1.4,3.2-3.2v-2.3h2.3c1.7,0,3.2-1.4,3.2-3.2S72.5,223.068,70.7,223.068z"/>
			</g>
		</g>
		<g>
			<g>
				<path fill="#FC657E" d="M93.8,212.968c-1.878,0-3.4,1.522-3.4,3.4s1.522,3.4,3.4,3.4c1.878,0,3.4-1.522,3.4-3.4
					S95.678,212.968,93.8,212.968z"/>
			</g>
		</g>
		<g>
			<g>
				<path fill="#87D147" d="M252.6,125.968c-1.878,0-3.4,1.522-3.4,3.4s1.522,3.4,3.4,3.4c1.878,0,3.4-1.522,3.4-3.4
					S254.478,125.968,252.6,125.968z"/>
			</g>
		</g>
		<g>
			<g>
				<g>
					<path d="M168.886,167.206H18.65c-3.354,0-6.082,2.728-6.082,6.082v25.179c0,3.354,2.729,6.082,6.082,6.082h150.235
						c3.354,0,6.082-2.728,6.082-6.082v-25.179C174.968,169.934,172.239,167.206,168.886,167.206z M169.968,198.466
						c0,0.596-0.485,1.082-1.082,1.082H18.65c-0.597,0-1.082-0.485-1.082-1.082v-25.179c0-0.596,0.485-1.082,1.082-1.082h150.235
						c0.597,0,1.082,0.485,1.082,1.082V198.466z"/>
				</g>
			</g>
		</g>
		<g>
			<g>
				<path d="M34.743,169.362c-1.381,0-2.5,1.119-2.5,2.5v28.03c0,1.381,1.119,2.5,2.5,2.5s2.5-1.119,2.5-2.5v-28.03
					C37.243,170.481,36.124,169.362,34.743,169.362z"/>
			</g>
		</g>
		<g>
			<g>
				<path d="M54.418,169.362c-1.381,0-2.5,1.119-2.5,2.5v28.03c0,1.381,1.119,2.5,2.5,2.5s2.5-1.119,2.5-2.5v-28.03
					C56.918,170.481,55.799,169.362,54.418,169.362z"/>
			</g>
		</g>
		<g>
			<g>
				<path d="M74.093,169.362c-1.381,0-2.5,1.119-2.5,2.5v28.03c0,1.381,1.119,2.5,2.5,2.5s2.5-1.119,2.5-2.5v-28.03
					C76.593,170.481,75.474,169.362,74.093,169.362z"/>
			</g>
		</g>
		<g>
			<g>
				<path d="M93.768,169.362c-1.381,0-2.5,1.119-2.5,2.5v28.03c0,1.381,1.119,2.5,2.5,2.5s2.5-1.119,2.5-2.5v-28.03
					C96.268,170.481,95.148,169.362,93.768,169.362z"/>
			</g>
		</g>
		<g>
			<g>
				<path d="M113.442,169.362c-1.381,0-2.5,1.119-2.5,2.5v28.03c0,1.381,1.119,2.5,2.5,2.5s2.5-1.119,2.5-2.5v-28.03
					C115.942,170.481,114.823,169.362,113.442,169.362z"/>
			</g>
		</g>
		<g>
			<g>
				<path d="M133.117,169.362c-1.381,0-2.5,1.119-2.5,2.5v28.03c0,1.381,1.119,2.5,2.5,2.5s2.5-1.119,2.5-2.5v-28.03
					C135.617,170.481,134.498,169.362,133.117,169.362z"/>
			</g>
		</g>
		<g>
			<g>
				<path d="M152.792,169.362c-1.381,0-2.5,1.119-2.5,2.5v28.03c0,1.381,1.119,2.5,2.5,2.5s2.5-1.119,2.5-2.5v-28.03
					C155.292,170.481,154.173,169.362,152.792,169.362z"/>
			</g>
		</g>
		<g>
			<g>
				<g>
					<path d="M214.403,156.848c-16.007,0-29.029,13.022-29.029,29.029s13.022,29.028,29.029,29.028
						c16.006,0,29.028-13.022,29.028-29.028S230.409,156.848,214.403,156.848z M214.403,209.905
						c-13.25,0-24.029-10.779-24.029-24.028c0-13.25,10.779-24.029,24.029-24.029c13.249,0,24.028,10.779,24.028,24.029
						C238.432,199.126,227.652,209.905,214.403,209.905z"/>
				</g>
			</g>
		</g>
		<g>
			<g>
				<path d="M214.403,169.341c-9.118,0-16.536,7.418-16.536,16.536s7.418,16.535,16.536,16.535c2.82,0,5.604-0.723,8.054-2.091
					c1.205-0.673,1.636-2.197,0.963-3.402c-0.674-1.206-2.195-1.635-3.402-0.963c-1.704,0.953-3.646,1.456-5.614,1.456
					c-6.361,0-11.536-5.175-11.536-11.535c0-6.361,5.175-11.536,11.536-11.536c6.36,0,11.535,5.175,11.535,11.536
					c0,1.381,1.119,2.5,2.5,2.5s2.5-1.119,2.5-2.5C230.938,176.759,223.521,169.341,214.403,169.341z"/>
			</g>
		</g>
		<g>
			<g>
				<path d="M234.412,183.916c-0.977-0.976-2.561-0.976-3.535,0l-2.64,2.64l-2.641-2.64c-0.977-0.977-2.559-0.977-3.535,0
					c-0.977,0.976-0.977,2.559,0,3.535l4.408,4.408c0.469,0.469,1.104,0.732,1.768,0.732s1.299-0.264,1.768-0.732l4.407-4.408
					C235.389,186.475,235.389,184.892,234.412,183.916z"/>
			</g>
		</g>
		<g>
			<g>
				<g>
					<path d="M168.886,99.297H18.65c-3.354,0-6.082,2.728-6.082,6.082v25.179c0,3.354,2.729,6.082,6.082,6.082h150.235
						c3.354,0,6.082-2.729,6.082-6.082v-25.179C174.968,102.025,172.239,99.297,168.886,99.297z M169.968,130.558
						c0,0.597-0.485,1.082-1.082,1.082H18.65c-0.597,0-1.082-0.485-1.082-1.082v-25.179c0-0.596,0.485-1.082,1.082-1.082h150.235
						c0.597,0,1.082,0.485,1.082,1.082V130.558z"/>
				</g>
			</g>
		</g>
		<g>
			<g>
				<path d="M34.743,101.454c-1.381,0-2.5,1.119-2.5,2.5v28.03c0,1.381,1.119,2.5,2.5,2.5s2.5-1.119,2.5-2.5v-28.03
					C37.243,102.573,36.124,101.454,34.743,101.454z"/>
			</g>
		</g>
		<g>
			<g>
				<path d="M54.418,101.454c-1.381,0-2.5,1.119-2.5,2.5v28.03c0,1.381,1.119,2.5,2.5,2.5s2.5-1.119,2.5-2.5v-28.03
					C56.918,102.573,55.799,101.454,54.418,101.454z"/>
			</g>
		</g>
		<g>
			<g>
				<path d="M74.093,101.454c-1.381,0-2.5,1.119-2.5,2.5v28.03c0,1.381,1.119,2.5,2.5,2.5s2.5-1.119,2.5-2.5v-28.03
					C76.593,102.573,75.474,101.454,74.093,101.454z"/>
			</g>
		</g>
		<g>
			<g>
				<path d="M93.768,101.454c-1.381,0-2.5,1.119-2.5,2.5v28.03c0,1.381,1.119,2.5,2.5,2.5s2.5-1.119,2.5-2.5v-28.03
					C96.268,102.573,95.148,101.454,93.768,101.454z"/>
			</g>
		</g>
		<g>
			<g>
				<path d="M113.442,101.454c-1.381,0-2.5,1.119-2.5,2.5v28.03c0,1.381,1.119,2.5,2.5,2.5s2.5-1.119,2.5-2.5v-28.03
					C115.942,102.573,114.823,101.454,113.442,101.454z"/>
			</g>
		</g>
		<g>
			<g>
				<path d="M133.117,101.454c-1.381,0-2.5,1.119-2.5,2.5v28.03c0,1.381,1.119,2.5,2.5,2.5s2.5-1.119,2.5-2.5v-28.03
					C135.617,102.573,134.498,101.454,133.117,101.454z"/>
			</g>
		</g>
		<g>
			<g>
				<path d="M152.792,101.454c-1.381,0-2.5,1.119-2.5,2.5v28.03c0,1.381,1.119,2.5,2.5,2.5s2.5-1.119,2.5-2.5v-28.03
					C155.292,102.573,154.173,101.454,152.792,101.454z"/>
			</g>
		</g>
		<g>
			<g>
				<g>
					<path d="M214.403,88.94c-16.007,0-29.029,13.022-29.029,29.028s13.022,29.028,29.029,29.028
						c16.006,0,29.028-13.022,29.028-29.028S230.409,88.94,214.403,88.94z M214.403,141.997c-13.25,0-24.029-10.779-24.029-24.028
						s10.779-24.028,24.029-24.028c13.249,0,24.028,10.779,24.028,24.028S227.652,141.997,214.403,141.997z"/>
				</g>
			</g>
		</g>
		<g>
			<g>
				<path d="M225.449,112.045c-0.977-0.977-2.559-0.977-3.535,0l-9.563,9.563l-5.205-5.205c-0.977-0.977-2.559-0.976-3.535,0
					c-0.977,0.977-0.977,2.56,0,3.536l6.973,6.973c0.469,0.469,1.104,0.732,1.768,0.732s1.299-0.263,1.768-0.732l11.331-11.331
					C226.426,114.604,226.426,113.021,225.449,112.045z"/>
			</g>
		</g>
		<g>
			<g>
				<g>
					<path d="M168.886,31.389H18.65c-3.354,0-6.082,2.728-6.082,6.082v25.179c0,3.354,2.729,6.082,6.082,6.082h150.235
						c3.354,0,6.082-2.728,6.082-6.082V37.471C174.968,34.117,172.239,31.389,168.886,31.389z M169.968,62.649
						c0,0.596-0.485,1.082-1.082,1.082H18.65c-0.597,0-1.082-0.485-1.082-1.082V37.471c0-0.596,0.485-1.082,1.082-1.082h150.235
						c0.597,0,1.082,0.485,1.082,1.082V62.649z"/>
				</g>
			</g>
		</g>
		<g>
			<g>
				<path d="M34.743,33.545c-1.381,0-2.5,1.119-2.5,2.5v28.03c0,1.381,1.119,2.5,2.5,2.5s2.5-1.119,2.5-2.5v-28.03
					C37.243,34.664,36.124,33.545,34.743,33.545z"/>
			</g>
		</g>
		<g>
			<g>
				<path d="M54.418,33.545c-1.381,0-2.5,1.119-2.5,2.5v28.03c0,1.381,1.119,2.5,2.5,2.5s2.5-1.119,2.5-2.5v-28.03
					C56.918,34.664,55.799,33.545,54.418,33.545z"/>
			</g>
		</g>
		<g>
			<g>
				<path d="M74.093,33.545c-1.381,0-2.5,1.119-2.5,2.5v28.03c0,1.381,1.119,2.5,2.5,2.5s2.5-1.119,2.5-2.5v-28.03
					C76.593,34.664,75.474,33.545,74.093,33.545z"/>
			</g>
		</g>
		<g>
			<g>
				<path d="M93.768,33.545c-1.381,0-2.5,1.119-2.5,2.5v28.03c0,1.381,1.119,2.5,2.5,2.5s2.5-1.119,2.5-2.5v-28.03
					C96.268,34.664,95.148,33.545,93.768,33.545z"/>
			</g>
		</g>
		<g>
			<g>
				<path d="M113.442,33.545c-1.381,0-2.5,1.119-2.5,2.5v28.03c0,1.381,1.119,2.5,2.5,2.5s2.5-1.119,2.5-2.5v-28.03
					C115.942,34.664,114.823,33.545,113.442,33.545z"/>
			</g>
		</g>
		<g>
			<g>
				<path d="M133.117,33.545c-1.381,0-2.5,1.119-2.5,2.5v28.03c0,1.381,1.119,2.5,2.5,2.5s2.5-1.119,2.5-2.5v-28.03
					C135.617,34.664,134.498,33.545,133.117,33.545z"/>
			</g>
		</g>
		<g>
			<g>
				<path d="M152.792,33.545c-1.381,0-2.5,1.119-2.5,2.5v28.03c0,1.381,1.119,2.5,2.5,2.5s2.5-1.119,2.5-2.5v-28.03
					C155.292,34.664,154.173,33.545,152.792,33.545z"/>
			</g>
		</g>
		<g>
			<g>
				<g>
					<path d="M214.403,21.032c-16.007,0-29.029,13.022-29.029,29.028s13.022,29.028,29.029,29.028
						c16.006,0,29.028-13.022,29.028-29.028S230.409,21.032,214.403,21.032z M214.403,74.088c-13.25,0-24.029-10.779-24.029-24.028
						s10.779-24.028,24.029-24.028c13.249,0,24.028,10.779,24.028,24.028S227.652,74.088,214.403,74.088z"/>
				</g>
			</g>
		</g>
		<g>
			<g>
				<path d="M225.449,44.137c-0.977-0.977-2.559-0.977-3.535,0l-9.563,9.563l-5.205-5.205c-0.977-0.977-2.559-0.977-3.535,0
					c-0.977,0.976-0.977,2.559,0,3.535l6.973,6.973c0.488,0.488,1.128,0.732,1.768,0.732s1.279-0.244,1.768-0.732l11.331-11.331
					C226.426,46.696,226.426,45.113,225.449,44.137z"/>
			</g>
		</g>
	</g>
</g>
<g id="Layer_45">
</g>
<g id="Layer_46">
</g>
<g id="Layer_47">
</g>
<g id="Layer_48">
</g>
<g id="Layer_49">
</g>
<g id="Layer_50">
</g>
<g id="Layer_51">
</g>
<g id="Layer_52">
</g>
<g id="Layer_53">
</g>
<g id="Layer_54">
</g>
<g id="Layer_55">
</g>
<g id="Layer_56">
</g>
<g id="Layer_57">
</g>
<g id="Layer_58">
</g>
<g id="Layer_59">
</g>
<g id="Layer_60">
</g>
<g id="Layer_61">
</g>
<g id="Layer_62">
</g>
<g id="Layer_63">
</g>
<g id="Layer_64">
</g>
<g id="Layer_65">
</g>
<g id="Layer_66">
</g>
<g id="Layer_67">
</g>
<g id="Layer_68">
</g>
<g id="Layer_69">
</g>
<g id="Layer_70">
</g>
<g id="Layer_71">
</g>
<g id="Layer_72">
</g>
<g id="Layer_73">
</g>
<g id="Layer_74">
</g>
<g id="Layer_75">
</g>
<g id="Layer_76">
</g>
<g id="Layer_77">
</g>
<g id="Layer_78">
</g>
<g id="Layer_79">
</g>
<g id="Layer_80">
</g>
<g id="Layer_81">
</g>
<g id="Layer_82">
</g>
<g id="Layer_83">
</g>
<g id="Layer_84">
</g>
<g id="Layer_85">
</g>
<g id="Layer_86">
</g>
<g id="Layer_87">
</g>
<g id="Layer_88">
</g>
<g id="Layer_89">
</g>
<g id="Layer_90">
</g>
</svg>
