<?xml version="1.0" encoding="utf-8"?>
<!-- Generator: Adobe Illustrator 16.0.0, SVG Export Plug-In . SVG Version: 6.00 Build 0)  -->
<!DOCTYPE svg PUBLIC "-//W3C//DTD SVG 1.0//EN" "http://www.w3.org/TR/2001/REC-SVG-20010904/DTD/svg10.dtd">
<svg version="1.0" id="Layer_1" xmlns="http://www.w3.org/2000/svg" xmlns:xlink="http://www.w3.org/1999/xlink" x="0px" y="0px"
	 width="100px" height="100px" viewBox="0 0 100 100" enable-background="new 0 0 100 100" xml:space="preserve">
<rect x="53.333" y="56.674" width="13.334" height="13.326"/>
<path d="M80,83.334V49.388c3.874-1.378,6.667-5.042,6.667-9.388l-10-30H23.333l-10,30c0,4.346,2.793,8.01,6.667,9.388v33.946H10V90
	h80v-6.666H80z M73.333,83.334H46.667V56.667H33.333v26.667h-6.666V49.388c1.243-0.444,2.369-1.117,3.333-1.984
	C31.771,49.001,34.095,50,36.667,50c2.571,0,4.896-0.999,6.666-2.596C45.104,49.001,47.429,50,50,50s4.896-0.999,6.667-2.596
	C58.438,49.001,60.762,50,63.333,50c2.572,0,4.896-0.999,6.667-2.596c0.964,0.867,2.087,1.54,3.333,1.984V83.334z M76.667,43.333
	c-1.843,0-3.334-1.493-3.334-3.333s-1.49-3.333-3.333-3.333S66.667,38.159,66.667,40s-1.491,3.333-3.334,3.333
	C61.491,43.333,60,41.841,60,40s-1.491-3.333-3.333-3.333c-1.843,0-3.334,1.492-3.334,3.333s-1.49,3.333-3.333,3.333
	S46.667,41.841,46.667,40s-1.491-3.333-3.334-3.333C41.491,36.667,40,38.159,40,40s-1.491,3.333-3.333,3.333
	c-1.843,0-3.334-1.493-3.334-3.333s-1.49-3.333-3.333-3.333S26.667,38.159,26.667,40s-1.491,3.333-3.334,3.333
	C21.491,43.333,20,41.841,20,40l7.78-23.333h44.443L80,40C80,41.841,78.509,43.333,76.667,43.333z"/>
</svg>
