<?xml version="1.0" encoding="utf-8"?>
<!-- Generator: Adobe Illustrator 24.0.0, SVG Export Plug-In . SVG Version: 6.00 Build 0)  -->
<svg version="1.1" xmlns="http://www.w3.org/2000/svg" xmlns:xlink="http://www.w3.org/1999/xlink" x="0px" y="0px"
	 viewBox="0 0 256 256" enable-background="new 0 0 256 256" xml:space="preserve">
<g id="Layer_1">
</g>
<g id="Layer_2">
</g>
<g id="Layer_3">
</g>
<g id="Layer_4">
</g>
<g id="Layer_5">
</g>
<g id="Layer_6">
</g>
<g id="Layer_7">
</g>
<g id="Layer_8">
</g>
<g id="Layer_9">
</g>
<g id="Layer_10">
</g>
<g id="Layer_11">
</g>
<g id="Layer_12">
</g>
<g id="Layer_13">
</g>
<g id="Layer_14">
</g>
<g id="Layer_15">
</g>
<g id="Layer_16">
</g>
<g id="Layer_17">
</g>
<g id="Layer_18">
</g>
<g id="Layer_19">
</g>
<g id="Layer_20">
</g>
<g id="Layer_21">
</g>
<g id="Layer_22">
</g>
<g id="Layer_23">
</g>
<g id="Layer_24">
</g>
<g id="Layer_25">
</g>
<g id="Layer_26">
</g>
<g id="Layer_27">
</g>
<g id="Layer_28">
</g>
<g id="Layer_29">
</g>
<g id="Layer_30">
</g>
<g id="Layer_31">
</g>
<g id="Layer_32">
</g>
<g id="Layer_33">
</g>
<g id="Layer_34">
</g>
<g id="Layer_35">
</g>
<g id="Layer_36">
</g>
<g id="Layer_37">
</g>
<g id="Layer_38">
</g>
<g id="Layer_39">
</g>
<g id="Layer_40">
</g>
<g id="Layer_41">
</g>
<g id="Layer_42">
</g>
<g id="Layer_43">
</g>
<g id="Layer_44">
</g>
<g id="Layer_45">
</g>
<g id="Layer_46">
</g>
<g id="Layer_47">
</g>
<g id="Layer_48">
</g>
<g id="Layer_49">
</g>
<g id="Layer_50">
</g>
<g id="Layer_51">
</g>
<g id="Layer_52">
</g>
<g id="Layer_53">
</g>
<g id="Layer_54">
</g>
<g id="Layer_55">
</g>
<g id="Layer_56">
</g>
<g id="Layer_57">
</g>
<g id="Layer_58">
</g>
<g id="Layer_59">
</g>
<g id="Layer_60">
</g>
<g id="Layer_61">
</g>
<g id="Layer_62">
</g>
<g id="Layer_63">
</g>
<g id="Layer_64">
</g>
<g id="Layer_65">
</g>
<g id="Layer_66">
</g>
<g id="Layer_67">
</g>
<g id="Layer_68">
</g>
<g id="Layer_69">
</g>
<g id="Layer_70">
</g>
<g id="Layer_71">
</g>
<g id="Layer_72">
</g>
<g id="Layer_73">
</g>
<g id="Layer_74">
</g>
<g id="Layer_75">
</g>
<g id="Layer_76">
</g>
<g id="Layer_77">
</g>
<g id="Layer_78">
	<g>
		<g>
			<g>
				<circle fill="#F9D0B4" cx="154.506" cy="19.729" r="11.273"/>
			</g>
		</g>
		<g>
			<g>
				<path fill="#F9D0B4" d="M207.395,4.005c-2.709-1.858-6.444-1.038-8.382,1.614l-18.126,24.804l-17.472,10.368
					c-1.836,1.089-3.932,1.665-6.067,1.665h-4.842c-2.135,0-4.231-0.575-6.067-1.665l-18.314-10.868L109.999,5.12
					c-1.938-2.652-5.672-3.472-8.382-1.614c-2.804,1.922-3.446,5.766-1.455,8.491l19,26c0.478,0.655,1.085,1.206,1.782,1.62
					l15.821,9.981c0.005,0.003,0.009,0.005,0.014,0.008c0.786,0.469,1.228,1.356,1.228,2.271l0.25,32.579h32.5l0.25-32.079
					c0-0.916,0.441-1.802,1.228-2.271c0.005-0.003,0.009-0.005,0.014-0.008l15.821-9.981c0.697-0.414,1.304-0.965,1.782-1.62l19-26
					C210.842,9.771,210.199,5.928,207.395,4.005z"/>
			</g>
		</g>
		<g>
			<g>
				<path fill="#5290DB" d="M138.256,84.457v63c0,3.285,2.531,5.898,5.815,5.997c3.398,0.102,6.185-2.623,6.185-5.997v-45.75
					c0-2.347,1.903-4.25,4.25-4.25c2.347,0,4.25,1.903,4.25,4.25v45.75c0,3.285,2.531,5.898,5.815,5.997
					c3.398,0.102,6.185-2.623,6.185-5.997v-63H138.256z"/>
			</g>
		</g>
		<g>
			<g>
				<path fill="#818182" d="M138.256,140.457v7c0,3.285,2.531,5.898,5.815,5.997c3.398,0.102,6.185-2.623,6.185-5.997v-7H138.256z"
					/>
			</g>
		</g>
		<g>
			<g>
				<path fill="#818182" d="M158.756,140.457v7c0,3.285,2.531,5.898,5.815,5.997c3.398,0.102,6.185-2.623,6.185-5.997v-7H158.756z"
					/>
			</g>
		</g>
		<g>
			<g>
				<path fill="#70D6F9" d="M178.517,31.83l-15.102,8.962c-1.836,1.089-3.932,1.665-6.067,1.665h-4.842
					c-2.135,0-4.231-0.575-6.067-1.665l-15.666-9.297l-7.813,9.394l13.804,8.709c0.005,0.003,0.009,0.005,0.014,0.008
					c0.786,0.469,1.228,1.356,1.228,2.271l0.25,32.579h32.5l0.25-32.079c0-0.916,0.441-1.802,1.228-2.271
					c0.005-0.003,0.009-0.005,0.014-0.008l14.077-8.881L178.517,31.83z"/>
			</g>
		</g>
		<g>
			<g>
				<path fill="#FCDD86" d="M174.169,153.5h-39.325c-1.291,0-2.338,1.046-2.338,2.337V253.5h44v-97.663
					C176.506,154.546,175.46,153.5,174.169,153.5z"/>
			</g>
		</g>
		<g>
			<g>
				<path fill="#FCA265" d="M90.844,188.573c-1.291,0-2.338,1.047-2.338,2.338V253.5h44v-64.927H90.844z"/>
			</g>
		</g>
		<g>
			<g>
				<path fill="#FC657E" d="M46.844,216.078c-1.291,0-2.338,1.046-2.338,2.337V253.5h44v-37.422H46.844z"/>
			</g>
		</g>
		<g>
			<g>
				<path fill="#F5C84C" d="M219.319,53.396c-4.5-0.8-8-4.3-8.9-8.7c0-0.2-0.4-0.2-0.4,0c-0.9,4.4-4.4,7.9-8.9,8.7
					c-0.2,0-0.2,0.3,0,0.4c4.5,0.8,8,4.3,8.9,8.7c0,0.2,0.4,0.2,0.4,0c0.9-4.4,4.4-7.9,8.9-8.7
					C219.519,53.697,219.519,53.396,219.319,53.396z"/>
			</g>
		</g>
		<g>
			<g>
				<path fill="#FC657E" d="M206.129,215.51c-3.157-0.562-5.613-3.018-6.245-6.104c0-0.141-0.281-0.141-0.281,0
					c-0.632,3.087-3.087,5.543-6.245,6.104c-0.14,0-0.14,0.21,0,0.28c3.157,0.562,5.613,3.018,6.245,6.104
					c0,0.141,0.281,0.141,0.281,0c0.631-3.087,3.087-5.543,6.245-6.104C206.269,215.72,206.269,215.51,206.129,215.51z"/>
			</g>
		</g>
		<g>
			<g>
				<path fill="#70D6F9" d="M94.219,150.646h-2.3v-2.3c0-1.7-1.4-3.2-3.2-3.2s-3.2,1.4-3.2,3.2v2.3h-2.3c-1.7,0-3.2,1.4-3.2,3.2
					c0,1.8,1.4,3.2,3.2,3.2h2.3v2.3c0,1.7,1.4,3.2,3.2,3.2s3.2-1.4,3.2-3.2v-2.3h2.3c1.7,0,3.2-1.4,3.2-3.2
					C97.419,152.046,96.019,150.646,94.219,150.646z"/>
			</g>
		</g>
		<g>
			<g>
				<path fill="#F5C84C" d="M110.319,129c-1.878,0-3.4,1.522-3.4,3.4c0,1.878,1.522,3.4,3.4,3.4c1.878,0,3.4-1.522,3.4-3.4
					C113.719,130.522,112.196,129,110.319,129z"/>
			</g>
		</g>
		<g>
			<g>
				<path fill="#87D147" d="M176.319,0c-1.878,0-3.4,1.522-3.4,3.4c0,1.878,1.522,3.4,3.4,3.4c1.878,0,3.4-1.522,3.4-3.4
					C179.719,1.522,178.196,0,176.319,0z"/>
			</g>
		</g>
		<g>
			<g>
				<g>
					<path d="M154.507,5.956c-7.595,0-13.773,6.179-13.773,13.773c0,7.594,6.179,13.772,13.773,13.772
						c7.594,0,13.772-6.179,13.772-13.772C168.279,12.135,162.101,5.956,154.507,5.956z M154.507,28.502
						c-4.838,0-8.773-3.936-8.773-8.772c0-4.838,3.936-8.773,8.773-8.773c4.837,0,8.772,3.936,8.772,8.773
						C163.279,24.566,159.344,28.502,154.507,28.502z"/>
				</g>
			</g>
		</g>
		<g>
			<g>
				<g>
					<path d="M212.385,7.523c-0.391-2.285-1.66-4.267-3.575-5.58c-3.749-2.57-9.049-1.584-11.814,2.201l-17.823,24.391
						l-17.033,10.107c-1.447,0.859-3.104,1.313-4.79,1.313h-4.842c-1.686,0-3.343-0.454-4.791-1.314l-17.874-10.606L112.018,3.645
						c-2.765-3.785-8.065-4.772-11.814-2.201c-1.915,1.313-3.185,3.295-3.575,5.58c-0.391,2.286,0.148,4.576,1.516,6.447l19,26
						c0.681,0.933,1.531,1.705,2.467,2.26l15.866,10.01c0.011,0.021,0.03,0.071,0.03,0.156l0.25,32.579
						c0.011,1.373,1.127,2.48,2.5,2.48h32.5c1.373,0,2.489-1.107,2.5-2.48l0.25-32.099c0-0.076,0.023-0.126,0.013-0.126h-0.001
						c0.021-0.013,0.043-0.026,0.063-0.039l15.763-9.946c0.994-0.59,1.844-1.362,2.524-2.295l19-25.999
						C212.237,12.1,212.775,9.81,212.385,7.523z M206.832,11.021l-19,26c-0.28,0.384-0.631,0.702-1.098,0.98l-15.765,9.947
						c-0.006,0.003-0.011,0.006-0.017,0.01c-1.509,0.9-2.446,2.593-2.446,4.398l-0.23,29.599h-27.539l-0.23-30.079
						c0-1.823-0.937-3.517-2.445-4.418c-0.005-0.003-0.01-0.006-0.016-0.009l-15.825-9.983c-0.41-0.243-0.759-0.562-1.04-0.945
						l-19-26.001c-0.563-0.771-0.785-1.713-0.624-2.654s0.685-1.758,1.474-2.3c1.542-1.055,3.764-0.598,4.95,1.027l18.126,24.805
						c0.2,0.273,0.452,0.503,0.743,0.676l18.314,10.867c2.22,1.318,4.759,2.015,7.343,2.015h4.842c2.584,0,5.123-0.696,7.342-2.014
						l17.473-10.368c0.291-0.173,0.544-0.402,0.743-0.676l18.126-24.804c1.187-1.625,3.408-2.083,4.949-1.028
						c0.79,0.542,1.313,1.358,1.475,2.3S207.396,10.25,206.832,11.021z"/>
				</g>
			</g>
		</g>
		<g>
			<g>
				<path d="M170.757,81.956c-1.381,0-2.5,1.119-2.5,2.5v63c0,0.955-0.378,1.847-1.063,2.512c-0.684,0.666-1.582,1.019-2.547,0.986
					c-1.933-0.058-3.39-1.562-3.39-3.498v-45.75c0-3.722-3.028-6.75-6.75-6.75s-6.75,3.028-6.75,6.75v45.75
					c0,0.955-0.378,1.847-1.063,2.512c-0.684,0.666-1.587,1.019-2.547,0.986c-1.933-0.058-3.39-1.562-3.39-3.498v-63
					c0-1.381-1.119-2.5-2.5-2.5s-2.5,1.119-2.5,2.5v63c0,4.625,3.619,8.357,8.239,8.496c2.327,0.077,4.516-0.782,6.18-2.396
					c1.664-1.615,2.581-3.781,2.581-6.101v-45.75c0-0.965,0.785-1.75,1.75-1.75s1.75,0.785,1.75,1.75v45.75
					c0,4.625,3.619,8.357,8.239,8.496c0.089,0.003,0.177,0.004,0.265,0.004c2.223,0,4.314-0.847,5.915-2.399
					c1.664-1.615,2.581-3.781,2.581-6.101v-63C173.257,83.075,172.138,81.956,170.757,81.956z"/>
			</g>
		</g>
		<g>
			<g>
				<path d="M174.169,151h-39.325c-2.667,0-4.837,2.17-4.837,4.838v96.244c0,1.381,1.119,2.5,2.5,2.5s2.5-1.119,2.5-2.5V156h39
					v96.461c0,1.381,1.119,2.5,2.5,2.5s2.5-1.119,2.5-2.5v-96.623C179.007,153.17,176.837,151,174.169,151z"/>
			</g>
		</g>
		<g>
			<g>
				<path d="M131.812,186.073H90.844c-2.667,0-4.837,2.17-4.837,4.837v61.799c0,1.381,1.119,2.5,2.5,2.5s2.5-1.119,2.5-2.5v-61.636
					h40.806c1.381,0,2.5-1.119,2.5-2.5S133.193,186.073,131.812,186.073z"/>
			</g>
		</g>
		<g>
			<g>
				<path d="M87.438,213.577H46.844c-2.667,0-4.837,2.17-4.837,4.838v34.025c0,1.381,1.119,2.5,2.5,2.5s2.5-1.119,2.5-2.5v-33.863
					h40.432c1.381,0,2.5-1.119,2.5-2.5S88.819,213.577,87.438,213.577z"/>
			</g>
		</g>
		<g>
			<g>
				<path d="M181.731,251h-142.7c-1.381,0-2.5,1.119-2.5,2.5s1.119,2.5,2.5,2.5h142.7c1.381,0,2.5-1.119,2.5-2.5
					S183.112,251,181.731,251z"/>
			</g>
		</g>
		<g>
			<g>
				<path d="M149.437,137.956h-10.593c-1.381,0-2.5,1.119-2.5,2.5s1.119,2.5,2.5,2.5h10.593c1.381,0,2.5-1.119,2.5-2.5
					S150.818,137.956,149.437,137.956z"/>
			</g>
		</g>
		<g>
			<g>
				<path d="M169.917,137.956h-10.5c-1.381,0-2.5,1.119-2.5,2.5s1.119,2.5,2.5,2.5h10.5c1.381,0,2.5-1.119,2.5-2.5
					S171.298,137.956,169.917,137.956z"/>
			</g>
		</g>
		<g>
			<g>
				<path d="M131.977,30.049c-1.06-0.883-2.638-0.738-3.521,0.323l-7.087,8.521c-0.883,1.062-0.738,2.638,0.323,3.521
					c0.467,0.389,1.034,0.578,1.597,0.578c0.717,0,1.429-0.307,1.923-0.901l7.087-8.521
					C133.183,32.508,133.038,30.932,131.977,30.049z"/>
			</g>
		</g>
		<g>
			<g>
				<path d="M187.731,38.999l-6.718-8.077c-0.883-1.063-2.461-1.208-3.521-0.323c-1.062,0.883-1.206,2.459-0.323,3.521l6.718,8.077
					c0.494,0.595,1.206,0.901,1.923,0.901c0.563,0,1.131-0.189,1.598-0.578C188.47,41.637,188.614,40.061,187.731,38.999z"/>
			</g>
		</g>
	</g>
</g>
<g id="Layer_79">
</g>
<g id="Layer_80">
</g>
<g id="Layer_81">
</g>
<g id="Layer_82">
</g>
<g id="Layer_83">
</g>
<g id="Layer_84">
</g>
<g id="Layer_85">
</g>
<g id="Layer_86">
</g>
<g id="Layer_87">
</g>
<g id="Layer_88">
</g>
<g id="Layer_89">
</g>
<g id="Layer_90">
</g>
</svg>
