<svg xmlns="http://www.w3.org/2000/svg" width="1051.123" height="1000" viewBox="0 0 1051.123 1000">
  <title>Sunflower Mandala - split - 02</title>
  <g>
    <path d="M1000.529,412.894a117.917,117.917,0,0,0,9.5-29.658c.7-3.96-3.16-7.583-7-5.381-23.235,13.329-50.1,5.36-75.15,10.533,22.359-18.4,43.883-38.073,65.815-56.442,2.248-1.882,1.664-6.3-1.016-7.514-28.712-13-59.636-20.532-90.91-21.219,19.695-21.813,28.487-56.461,39.67-82.561,1.309-3.056-.214-7.314-4.145-7.119-22.145,1.1-48.887-1.508-70.371,6.463,5.6-22.2,10.988-44.469,19.418-65.772,1.451-3.667-3.768-7.708-6.963-5.354-24.348,17.938-52.3,27.824-80.355,37.68a115.751,115.751,0,0,0-15.2-103.63c-2.3-3.3-7.6-3.128-8.755,1.145-7,25.854-31.632,39.212-45.691,60.586,2.8-28.817,4.108-57.951,6.628-86.448.259-2.92-3.279-5.632-6.032-4.6-29.5,11.109-56.687,27.651-79.287,49.279-1.5-29.35-19.781-60.067-30.329-86.43-1.235-3.086-5.323-5.021-7.964-2.1-14.88,16.438-35.635,33.5-45.19,54.329C555.466,49.031,543.529,29.47,534.425,8.445c-1.566-3.618-8.114-2.785-8.709,1.138-4.532,29.9-17.306,56.655-30.176,83.464a115.75,115.75,0,0,0-84.027-62.528c-3.96-.7-7.584,3.161-5.381,7,13.329,23.235,5.36,50.1,10.532,75.15-18.395-22.358-38.073-43.883-56.441-65.815-1.883-2.247-6.3-1.663-7.514,1.016-13,28.712-20.532,59.636-21.22,90.911-21.813-19.7-56.461-28.488-82.561-39.67-3.055-1.309-7.314.214-7.118,4.144,1.1,22.145-1.508,48.888,6.462,70.371-22.195-5.6-44.468-10.988-65.772-19.418-3.666-1.451-7.707,3.769-5.354,6.963,17.938,24.348,27.824,52.3,37.68,80.356a115.748,115.748,0,0,0-103.629,15.2c-3.3,2.3-3.128,7.6,1.144,8.755,25.855,7,39.213,31.633,60.587,45.692-28.818-2.8-57.952-4.109-86.449-6.629-2.92-.258-5.631,3.279-4.594,6.032,11.108,29.5,27.65,56.688,49.279,79.288-23.3,1.189-47.458,12.949-69.62,23.027H10.337v10.714H1061.46V412.894Zm-10.615,0h-3.7q-5.068-2.469-10.131-4.952a210.3,210.3,0,0,0,22.258-16.421A109.661,109.661,0,0,1,989.914,412.894ZM976.3,394.866c3.025-.225,6.028-.565,9.014-1.05q-5.421,4.1-11.066,7.779A32.013,32.013,0,0,1,976.3,394.866Zm-4.531,18.028h-3.944c.608-.348,1.227-.675,1.831-1.032C970.368,412.2,971.067,412.554,971.773,412.894Zm-2.323-17.672a40.306,40.306,0,0,0-2.029,10.645q-4.731,2.829-9.586,5.386c2.922-5.247,6.141-10.368,8.362-15.935C967.284,395.293,968.368,395.259,969.45,395.222Zm-10.091.213c-2.661,6.015-6.352,11.581-9.35,17.459h-7.952a161.728,161.728,0,0,0,7.639-17.245C952.943,395.535,956.165,395.48,959.359,395.435Zm-17.374.628c.257-.02.51-.031.767-.049a149.848,149.848,0,0,1-7.89,16.88H918.628a117.088,117.088,0,0,0,2.448-12.158A81.473,81.473,0,0,1,941.985,396.063Zm-29.769,16.831H895.978c.321-.225.642-.449.962-.677a161.841,161.841,0,0,1,17.351-8.833C913.757,406.592,913.028,409.754,912.216,412.894Zm69.218-82.984c-28.523,24.245-56.591,50.486-86.972,72.469-5.676,3.287-11.264,6.868-16.781,10.515H863.129c1.819-1.023,3.635-2.084,5.445-3.233,3.032-1.925,6-3.929,8.975-5.924a154.214,154.214,0,0,0,26.591-18.931c20.612-15.437,40.6-31.667,61.678-46.638a3.224,3.224,0,0,0-.763-5.836c-34.289-12.168-82.4-19.918-117.335-7.047-33.662,12.4-57.5,43.109-90.517,56.629-1.453-2.7-2.907-5.4-4.442-8.055,10.451-4.1,20.046-9.811,29.33-16.094a190.406,190.406,0,0,0,17.772-12.543c13.722-9.814,27.606-19.288,43.595-24.739C887.668,305.41,938.813,312.14,981.434,329.91ZM709.176,412.894a13.462,13.462,0,0,1,5.292-7.143,63.577,63.577,0,0,1,9.479-5.736c5.988-2.79,19.016-3.946,15.267,7.683a13.04,13.04,0,0,1-3.174,5.2Zm-261.993,0a4.192,4.192,0,0,1,1.46-4.126c3.018-2.886,8.647-4.99,12.316-6.87,2.279-1.167,4.817-2.888,7.356-3.385,5.347-1.046,7.478,2.059,8.94,6.06.106.488.213.973.31,1.468a2.929,2.929,0,0,0,.325.777,31.111,31.111,0,0,0-3.528,2.07,23.422,23.422,0,0,0-4.577,4.006Zm-43.164,0c-3.748-2.75-7.948-5.941-9.873-10.2-3.552-7.855,2.674-14.542,10.326-10.89,8.53,4.072,12.912,12.442,16.174,21.089Zm30.233-57.821c13.014,5.854,15.758,24.352,18.372,37.771-6.987-2.916-12.4-8.257-17.779-13.628-3.068-3.066-6.324-6.209-8.628-9.917C422.109,362.688,423.777,350.361,434.252,355.073Zm1.723-53.735c11.462,3.695,12.189,20.267,12.407,31.725-5.492-1.226-10.477-1.46-14.354-6.978a63.628,63.628,0,0,1-5.736-9.479C425.5,310.617,424.345,297.59,435.975,301.338Zm23.741,39.312c11.058,1.566,14.965,18.205,15.446,26.521.416,7.19-.173,14.136-.729,21.206-4.908-4.494-8.4-10.562-12.015-16.093C458.672,366.547,441.045,338.006,459.716,340.65Zm-2.741-45.837c17.233-7.2,14.851,27.384,13.387,42.344C460.983,327.927,443.575,300.414,456.975,294.813Zm-26.221,92.46c3.68,6.026,6.017,12.944,8.379,19.675-11.329-4.019-31.235-17.31-29.9-28.538C410.873,364.678,428.315,383.28,430.754,387.273Zm-8.621-39.49c-4.53-3.9-7.46-9.519-10.673-14.565-2.774-4.356-6.43-9.621-6.72-14.926-.431-7.891,8.455-8.915,13.176-3.581,3.831,4.328,5.19,10.342,5.841,15.9C424.489,336.874,423.146,342.119,422.133,347.783Zm-14.28,13.389a22.81,22.81,0,0,1-.43,4.751,39.757,39.757,0,0,1-13.745-8.6,72.848,72.848,0,0,1-8.023-8.135c-2.508-3.122-8.208-13.53-.718-15.635,7.4-2.078,16.042,7.862,18.763,13.3A38.054,38.054,0,0,1,407.853,361.172Zm-14.65,23.88a12.406,12.406,0,0,0-1.49.7c-.287.18-.528.382-.792.574-11.9-2.184-39.1-16.139-30.305-27.061C371.861,345.3,387.227,373.383,393.2,385.052Zm-22.063,6A156.707,156.707,0,0,1,383.3,405.4c-6.762.474-13.044-1.4-19.568-3.426-4.615-1.436-31.714-10.031-18.535-20.634C353.1,374.986,366.071,386,371.14,391.052Zm-19.588,21.842h-21.74a8.442,8.442,0,0,1,.415-1.428C334.158,401.887,342.908,405.656,351.552,412.894ZM481.73,338.711c8.818-15.109,16.938,3.255,17.795,11.728.9,8.861,1.458,18.551.534,27.571-5.568-3.253-11.725-6.514-14.976-11.683C480.159,358.5,476.783,347.186,481.73,338.711Zm7.127-54.614c10.085,1.092,11.473,18.052,11.483,25.21a156.683,156.683,0,0,1-1.552,18.746c-5.117-4.447-8.236-10.211-11.415-16.26C485.125,307.514,472.042,282.274,488.857,284.1Zm17.181,112.976a10.859,10.859,0,0,0-1.278.95c-2.55,2.4-3.4,5.867-3.265,9.661a21.307,21.307,0,0,0-17.536-3.093c-.177-.558-.356-1.109-.552-1.672-1.42-7.107-3.043-15.793,6.225-18.343C498.39,382.167,503.115,390.276,506.038,397.073Zm-8.208,15.821H479.879C485.545,409.579,492.389,409.2,497.83,412.894ZM693.7,375.424a38.039,38.039,0,0,1-14.315,4.152,22.816,22.816,0,0,1-4.751-.43,39.759,39.759,0,0,1,8.6-13.744,72.676,72.676,0,0,1,8.135-8.023c3.122-2.509,13.531-8.209,15.635-.718C709.075,364.059,699.135,372.7,693.7,375.424Zm13.639,7.76c4.356-2.775,9.621-6.43,14.926-6.72,7.892-.432,8.916,8.454,3.581,13.176-4.327,3.83-10.342,5.19-15.9,5.84-6.263.733-11.508-.611-17.172-1.623C696.673,389.327,702.289,386.4,707.334,383.184ZM655.5,364.927a12.343,12.343,0,0,0-.7-1.49c-.18-.288-.382-.528-.573-.792,2.183-11.9,16.138-39.1,27.061-30.306C695.256,343.585,667.169,358.951,655.5,364.927Zm-2.222,37.551c-6.025,3.679-12.943,6.017-19.674,8.378,4.019-11.328,17.309-31.234,28.537-29.9C675.874,382.6,657.273,400.039,653.279,402.478ZM649.5,342.863a156.426,156.426,0,0,1-14.352,12.158c-.473-6.763,1.4-13.045,3.426-19.569,1.436-4.615,10.031-31.714,20.634-18.535C665.566,324.821,654.555,337.8,649.5,342.863Zm-11.643,23.006c7.855-3.551,14.543,2.675,10.89,10.326-5.369,11.248-18.214,15.325-29.311,19.067a36.888,36.888,0,0,1,7.307-18.271C629.7,372.973,633.121,368.011,637.857,365.869Zm-37.136,25.376c-1.637-6.237-3.684-12.9-2.328-18.851,2.052-9.016,7.666-19.4,17.157-21.9,16.919-4.448,9.675,14.279,4.29,20.876C614.208,378.27,607.753,385.52,600.721,391.245Zm7.863-49.865c-.089-13.186,7.081-44.937,20.5-39.429C646.378,309.047,620.184,331.849,608.584,341.38Zm-12.621-18.458c-3.017-4.751-6.376-8.441-5.216-15.085a63.671,63.671,0,0,1,2.647-10.759c2.261-6.207,10.655-16.237,16.228-5.363C615.114,302.433,603.911,314.665,595.963,322.922Zm2.649,13.379c6.711,8.926-2.291,23.455-7.831,29.674-4.79,5.379-10.118,9.874-15.51,14.479-.293-6.648,1.527-13.408,2.884-19.874C579.562,353.874,587.28,321.229,598.612,336.3Zm-18.329-32.526c-3.91,4.946-8.569,7.706-13.29,11-.443-5.964,1.457-12.007,2.752-17.847,1.119-5.042,2.257-11.349,5.8-15.306,5.275-5.885,12.283-.326,11.849,6.785C587.045,294.17,583.754,299.385,580.283,303.775Zm-9.875,24.718c5.063,13.343-6.077,28.363-13.717,39.7-2.879-7-2.933-14.609-2.935-22.208,0-4.338-.082-8.862.911-13.114C556.437,325.292,566.333,317.755,570.408,328.493Zm-27.792,48.144c4.175.094,9.643,2.587,13.566,3.852,2.437.786,5.449,1.363,7.6,2.807,4.52,3.04,3.833,6.742,2.039,10.605-.271.42-.539.839-.821,1.259a2.971,2.971,0,0,0-.32.78,31.188,31.188,0,0,0-3.958-1.032c-4.512-.849-8.144-.481-11.044.763A90.617,90.617,0,0,0,537.2,393.59c.042-1.657.119-3.313.207-4.985C537.644,384.064,536.345,376.5,542.616,376.637Zm12-75.556a38.064,38.064,0,0,1-7.186,13.058,22.726,22.726,0,0,1-3.664,3.055,39.776,39.776,0,0,1-3.639-15.8,72.881,72.881,0,0,1,.079-11.426c.434-3.981,3.764-15.371,10.549-11.563C557.453,282.168,556.536,295.31,554.614,301.081Zm-9.448,47.708c-1.659,6.863-4.9,13.407-7.988,19.836-5.169-10.852-9.847-34.325-.961-41.319C547.084,318.753,546.265,344.241,545.166,348.789Zm-13.258,28.188a2.935,2.935,0,0,0,.327.237c-1.672,4.635-1.734,10.774-1.558,16-1.77-.042-3.541-.055-5.312.009a75.2,75.2,0,0,0-12.41,1.118,2.854,2.854,0,0,0-.291-.605,21.459,21.459,0,0,1-4.062-7.743c-1.1-4.273.894-4.856,4.337-6.449C517.052,377.639,527.88,372.58,531.908,376.977Zm-23.533-43.169c3.042-8.066,12.174-8.392,15-.4,4.144,11.715-2.017,23.656-7.208,34.128a37.018,37.018,0,0,1-7.789-18.006C507.63,344.6,506.54,338.671,508.375,333.808Zm7-54.417c17.831-1.928,8.836,28.8,4.811,41.275a12.2,12.2,0,0,0-1.551-.556c-.323-.074-.629-.1-.943-.151C510.815,310.035,501.415,280.9,515.373,279.391Zm-.693,121.361a69.924,69.924,0,0,1,17.176-1.251,3.467,3.467,0,0,0,4.118.287c2.581.247,5.142.613,7.662,1.086a26.368,26.368,0,0,0-3.743,12.02h-11.85a15.343,15.343,0,0,0-2.176,0h-17C507.548,407.328,508.3,402.068,514.68,400.752Zm43.664.273c7.355.669,13.759,5.1,15.761,11.869H545.912C546.616,405.861,549.857,400.253,558.344,401.025Zm22.328,11.869a21.332,21.332,0,0,0-10.13-14.238c.269-.52.533-1.036.792-1.574,4.021-6.028,9.016-13.317,17.372-8.567,7.9,4.489,5.5,13.565,2.763,20.437a10.861,10.861,0,0,0-1.575-.231c-3.34-.1-6.257,1.606-8.766,4.173Zm17.623-.985a2.758,2.758,0,0,0,.221-.633,21.482,21.482,0,0,1,2.6-8.348c2.241-3.8,4.066-2.8,7.627-1.493,4.219,1.55,15.291,5.58,15.215,11.459H599.609C599.164,412.573,598.751,412.208,598.295,411.909Zm63.041-5.34c3.067-3.068,6.209-6.324,9.918-8.629,6.61-4.107,18.937-2.439,14.225,8.036a20.222,20.222,0,0,1-5.224,6.918H655.317C657.232,410.724,659.27,408.636,661.336,406.569Zm47.569-71.313a4.348,4.348,0,0,0-1.406-2.2c-47.81-41.878-107.232-67.1-170.672-71.14a4.231,4.231,0,0,0-2.413-.553c-63.372,4.191-123.181,28.343-170.881,70.287a4.348,4.348,0,0,0-2.2,1.406,291.27,291.27,0,0,0-49.775,79.841h-4.126a287.6,287.6,0,0,1,49.416-80.85c.079-.09.128-.187.2-.28a4.908,4.908,0,0,0,1.915-1.08c47.377-42.521,109.49-68.9,173-73.209.123-.009.2-.073.323-.088a4.843,4.843,0,0,0,2.135.621c63.568,3.434,126.143,28.7,174.094,70.56.091.08.187.129.28.2a4.9,4.9,0,0,0,1.081,1.916,289.822,289.822,0,0,1,51.538,82.21h-4.122A281.913,281.913,0,0,0,708.905,335.256ZM254.614,412.894c-2.259-3.123-2.976-7.231-.781-11.787.131-.274.306-.514.452-.777.031-.042.067-.084.1-.126.054-.073.054-.144.1-.217,3.217-5.5,9.336-8.724,15.077-10.932,10.986-4.225,25.825-8.322,35.184.862-2.625,2.722-5.267,5.507-7.962,8.271q-6.071,5.415-11.863,11.129c-1.5,1.251-3.045,2.438-4.609,3.577ZM176.154,338.3c17.81-.82,37.325,1.35,54.311,7.844-21.017-.862-42.391,4.651-57.236,18.385a2.785,2.785,0,0,0-.337.061c-8.508,3.438-26.854,9.516-31.148-2.838C135.634,344.17,166.538,338.742,176.154,338.3Zm-49.29,3.756c-2.543-3.758-.987-7.906,2.765-9.377,2.014-.789,5.2-.242,7.37-.122a105.937,105.937,0,0,1,15.407,2.075,39.9,39.9,0,0,0-3.372,2.357c-1.213.95-2.658,2.207-4.231,3.481-.113.092-.227.181-.338.274C138.966,345.147,131.918,349.524,126.864,342.056ZM170.553,377.4c2.924-6.632,14.884-12.793,20.862-16.1,23.377-12.95,51.832-11.97,75.17-.087a57.326,57.326,0,0,0-10.989.308c-15.3,1.978-36.245,10.106-45.313,24.062a2.661,2.661,0,0,0-1.375.938C200.459,397.266,157.483,407.036,170.553,377.4Zm121.737.863c-16.076-1.673-35.868,5.862-43.372,18.717-.006.008-.014.01-.02.018-6.455,8.677-25.909,23.229-34.869,9.283-5.405-8.412,2.654-18.885,8.476-23.867a56.931,56.931,0,0,1,12.146-7.89C253.6,365.209,276.238,364.217,292.29,378.262Zm-16.5-44.95c-2.455-2.24-4.853-4.535-7.133-6.938a120.064,120.064,0,0,1-8.8-10.548c32.25-11.633,67.509-15.4,97.4,3.79-1.667,1.429-3.36,2.828-4.994,4.294a4.351,4.351,0,0,0-2.156,1.4c-.323.369-.623.757-.944,1.128a10.694,10.694,0,0,0-5.671-6.085,9.113,9.113,0,0,0-9.043.751c-.822-3.546-3.1-6.23-8.273-6.639-5.072-.4-8.486,2.135-10.616,5.79a14.558,14.558,0,0,0-1.055-2.43c-2.023-3.585-6.01-6.179-10.223-5.519-6.108.957-8.236,7.011-8.606,13.32-5.169-5.388-11.664-9.348-17.406-3.9C274.928,324.885,274.572,329.125,275.786,333.312Zm-53.9-101.952c20.606-9.173,40.836-17.456,63.775-17.284,16.433.123,32.951,1.824,49.3,3.658q3.075,2.185,6.023,4.5c-14.811-.592-29.649-2.214-44.412-2.155a2.932,2.932,0,0,0-.772.005c-4.333.036-8.661.174-12.977.6-20.632,2.02-40.409,8.411-59.929,15.094q-.756-2.15-1.514-4.3A3.124,3.124,0,0,0,221.889,231.36Zm-.808-6.559a30.157,30.157,0,0,1-3.048-6.273c-1.313-4.08-1.465-12.85,3.058-14.709s9.3,3.106,12.643,8.406c.813,2.067,1.778,4.089,2.74,5.991C231.294,220.3,226.171,222.539,221.081,224.8Zm18.881-25.681c2.657-1.922,7.063.645,9.705,2.182a15.806,15.806,0,0,1,7.8,9.822,153.085,153.085,0,0,0-14.7,4.669,46.822,46.822,0,0,0-4.024-7.534C237.49,204.64,237.225,201.1,239.962,199.12Zm46.815,8.435c-4.8.04-9.574.236-14.282.746-2.391.259-4.759.612-7.107,1.042-3.458-9.439,3.784-19.558,13.08-11.665C281.17,199.972,285.136,203.625,286.777,207.555Zm-3.466-14.373q3.846,1.227,7.661,2.553a15.5,15.5,0,0,0-1.94,3.548A49.158,49.158,0,0,0,283.311,193.182Zm10.4,14.448c.138-3.481,1.322-7.583,3.745-9.548,1.22.458,2.446.9,3.661,1.374.562.222,1.092.475,1.65.7a24.533,24.533,0,0,1,1.851,8.023Q299.159,207.778,293.713,207.63Zm16.5-4.263c4.368,2.023,8.547,4.228,12.593,6.563q-5.873-.669-11.8-1.214C310.825,206.958,310.579,205.154,310.217,203.367Zm44.169,40.7a72.745,72.745,0,0,0-10.3-15.372c1.546.046,3.092.068,4.639.081A159.889,159.889,0,0,1,365.866,246.9c-2.912,2.315-7.537,6.011-8.877,5.665C357.333,252.65,354.951,245.274,354.386,244.065Zm-7.167-.048c2.168,3.919,2.6,9.348,5.061,12.861,4.287,6.112,12.807-1.5,17.45-5.067q1.677,2.232,3.289,4.528c-.01.01-.025.011-.035.022-6.547,7.146-12.795,14.408-16.958,22.75-2.3-14.695-10.321-28.95-17.292-41.5-.932-1.678-3.671-2.274-5.009-.677-8.586,10.253-16.211,21.242-19.5,33.768-4.193-12.729-12.158-24-18.747-35.947-.912-1.652-3.7-2.3-5.01-.677a73.2,73.2,0,0,0-16.08,38.093c-1.819-4.032-3.884-7.94-6.045-11.8-4.2-7.5-7.949-16.135-13.782-22.469-1.746-1.9-4.574-.707-5.32,1.44-3.48,10.024-7.906,20.233-9.4,30.8a39.065,39.065,0,0,0-.042,10.407q-3.133-7.134-5.92-14.386c-.24-.622-.469-1.247-.706-1.87a3.231,3.231,0,0,0,.415-.64q5.322-13.354,9.785-27.014a3,3,0,0,0,.11-.963q4.576-1.414,9.19-2.69a3.208,3.208,0,0,0,.464.478,121.248,121.248,0,0,1,19.248,16.511c1.747,1.84,4.6.759,5.32-1.44a173.764,173.764,0,0,1,8.695-21.649c.019-.037.012-.072.029-.11,1-.074,1.989-.2,2.992-.251,1.817-.092,3.637-.1,5.455-.132a82.227,82.227,0,0,1,18.079,26.22c.959,2.274,4.475,1.961,5.527,0,4.4-8.2,8.98-16.311,13.4-24.507,1.187.076,2.375.143,3.563.211C339.727,233.242,344.048,238.281,347.219,244.017ZM372.164,285.5c1.221-4.791,1.926-11.431,4.408-16.138,4.342,11.949,6.126,26.978-1.761,36.322-.239.176-.483.346-.722.522a3.255,3.255,0,0,0-.617-.671c-1.815-1.325-3.655-2.5-5.5-3.68Q370.093,293.681,372.164,285.5Zm-4.97-6.222q-2.457,9.606-4.916,19.212c-1.637-.9-3.279-1.79-4.939-2.587a3.252,3.252,0,0,0,.217-.692c1.069-9.978,6.136-18.129,12.251-25.6C368.714,272.713,368.033,276,367.194,279.276ZM349.92,292.7a100.885,100.885,0,0,0-13.331-4.054,3.007,3.007,0,0,0-.012-.567c-1.554-6.97.718-15.316,1.25-22.445.363-4.856.8-9.717,1.061-14.585C345.817,264,352.141,278.5,349.92,292.7Zm-19.867-5.325c-3.651-.613-7.347-1.116-11.144-1.4-.61-14.382,5.521-26.434,13.733-37.462-.237,6.3-.851,12.581-1.3,18.863C330.877,273.961,329.23,280.78,330.053,287.377Zm-19.333-1.772c-.25,0-.49-.028-.742-.032-3.037-.043-6.073-.068-9.1-.056-1.07-8.058-1.992-16.154-2.321-24.28-.121-2.965-.041-5.946-.082-8.909C304.606,262.665,310.137,273.274,310.72,285.605ZM291.129,243.83c1.9,7.042.851,14.945,1.334,22.161.44,6.566,1.219,13.1,2.074,19.624-4.758.138-9.48.448-14.142,1.025a2.936,2.936,0,0,0,.1-.778A66.422,66.422,0,0,1,291.129,243.83Zm-17.223,43.807a84.444,84.444,0,0,0-9.759,2.435c-1.331-7.053-3.832-13.765-3.9-21.055a57.4,57.4,0,0,0-2.038-14.541c2.2,4.057,4.211,8.23,6.238,11.964,3.6,6.631,5.094,15.253,9.441,21.183C273.9,287.63,273.9,287.632,273.906,287.637ZM246.122,311.7c-2.659-2.433-5.364-4.8-8.13-7.075q.47-2.232.937-4.465Q242.322,306.176,246.122,311.7Zm14.347-80.718a174.042,174.042,0,0,1,18.76-3.5q-3.246,7.116-5.87,14.494A129.169,129.169,0,0,0,260.469,230.981Zm43.256-4.532c7.051.206,14.108.69,21.17,1.189q-4.475,8.225-8.983,16.432A87.406,87.406,0,0,0,303.725,226.449Zm-67.516,11.537q-2.957,8.843-6.291,17.547-2.5-6.879-4.917-13.785Q230.583,239.837,236.209,237.986Zm-9.737,35.291c1.893,4.762,3.859,9.493,5.972,14.164.6,1.318,1.242,2.572,1.864,3.857q-.94,4.476-1.879,8.953-6.441-4.933-13.226-9.3A150.23,150.23,0,0,1,226.472,273.277Zm3.736,33.316a86.746,86.746,0,0,0-16.53,9.964c-.673-.116-1.345-.239-2.019-.351a161.982,161.982,0,0,1-18.516-6.023,111.016,111.016,0,0,1,23.863-13.034c.018-.007.027-.021.045-.029Q223.8,301.569,230.208,306.593Zm5.334,4.5c.054-.023.074-.063.125-.087q7.521,6.333,14.475,13.474c-3.873-.794-7.821-1.567-11.806-2.353a144.754,144.754,0,0,0-15.523-3.982c-.134-.026-.27-.044-.4-.07A83.342,83.342,0,0,1,235.542,311.09ZM246.9,266.968a123.777,123.777,0,0,1,4.256-14.2c2.211,6.945,2.175,13.6,2.87,21.037.59,6.32,3.12,12.218,4.091,18.464a67.314,67.314,0,0,0-7.33,3.581C246.938,286.231,244.554,277.488,246.9,266.968Zm4.869,35.654c32.653-20.15,86.629-13.807,117.146,7.49-2.217,1.713-4.43,3.43-6.6,5.2-32.1-21.866-70.984-17.939-105.86-5.008a3.246,3.246,0,0,0-.391.241q-2.566-3.777-4.9-7.707A2.971,2.971,0,0,0,251.764,302.622Zm92.34,29.864c-1.788,2.187-3.532,4.408-5.255,6.646a13.15,13.15,0,0,0-5.22-3.048,2.8,2.8,0,0,0,.255-.738c.448-3.488,2.067-11.355,7.316-9.12C342.98,326.983,344.127,330.1,344.1,332.486Zm-18.866-11.661c5.945-.107,2.85,9.7,1.9,13.881a67.078,67.078,0,0,0-8.121-.4,2.894,2.894,0,0,0,.078-.566C318.817,329.425,319.1,320.935,325.238,320.825Zm-13.067,13.736a72.818,72.818,0,0,0-8.823,1.069,2.6,2.6,0,0,0-.113-.28c-.2-.3-.424-.633-.648-.964-.775-4.935-1.571-16.733,3.785-15.645C311.272,319.735,310.842,330.483,312.171,334.561Zm-28.587-8.008c4.286-2.193,9.986,5.721,12.971,10.191.04.186.08.376.121.553a53.109,53.109,0,0,0-8.466,3.539C284.256,337.384,278.365,329.223,283.584,326.553Zm27.958,14.4c5.17-.364,17.714-1.434,22.492,2.448a2.884,2.884,0,0,0,.818.946c-.854,1.162-1.662,2.357-2.5,3.531-9.694-4.659-23.17-.345-32.478,4q-4.132-2.776-8.153-5.7A49.77,49.77,0,0,1,311.542,340.955ZM328.6,353.238c-2.66,3.911-5.252,7.869-7.724,11.9-4.9-2.958-9.807-5.985-14.681-9.11C313.09,353.179,322.142,350.692,328.6,353.238Zm56.442-77.423q4.509,8.3,8.434,17.208c-2.735,1.7-5.426,3.475-8.1,5.267C387.149,291.213,386.724,283.338,385.038,275.815ZM399.766,134.13c13.121,11.967,25.336,27.23,32.763,43.758-14.245-15.4-33.257-26.533-53.414-27.3-.1-.05-.141-.125-.246-.17-8.447-3.586-25.717-12.261-20.018-24.032C366.962,109.629,392.653,127.643,399.766,134.13Zm-37.51-32.2c.859-4.454,4.892-6.287,8.586-4.674,1.983.866,3.85,3.508,5.3,5.125a105.9,105.9,0,0,1,9.427,12.361,40.5,40.5,0,0,0-4.051-.718c-1.454-.177-3.251-.3-5.153-.5-.3-.033-.6-.068-.9-.094C368.5,112.648,360.562,110.719,362.256,101.932Zm5.9,55.884c6.757-2.621,19.57,1.48,26.138,3.365,25.688,7.373,45.115,28.186,53.215,53.092a57.341,57.341,0,0,0-7.988-7.553c-12.22-9.422-32.775-18.483-49.056-15.027a2.674,2.674,0,0,0-1.635-.309C375.257,193.011,337.959,169.532,368.158,157.816Zm10.32,51.165c2.127-9.77,15.23-11.477,22.87-10.882a56.861,56.861,0,0,1,14.167,3.008c19.983,6.812,36.694,22.119,38.114,43.4-10.184-12.55-29.508-21.218-43.9-17.434-.01,0-.018,0-.028,0C399,228.645,374.952,225.178,378.478,208.981Zm31.8,24.488c.287-.1.581-.147.87-.23.051-.008.107-.012.158-.019.09-.014.14-.064.224-.082,6.164-1.615,12.771.432,18.392,2.93,10.756,4.782,24.146,12.376,24.269,25.489-3.78.068-7.617.17-11.477.218q-8.121-.463-16.258-.519a70.733,70.733,0,0,1-14.077-2.571C401.762,255.457,397.3,238.012,410.281,233.469Zm56.181-86.451c-.71-5.362-1.646-10.671-2.776-15.928a150.386,150.386,0,0,1,17.638-7.358c-2.029,4.706-3.984,9.442-5.793,14.239-.511,1.353-.941,2.7-1.409,4.045Zm4.662,4.531c-1.237,4.436-2.252,8.849-3.074,13.245-.16-3.6-.4-7.186-.745-10.75ZM563.3,251.538c-.293-.046-.586-.1-.88-.142a3.263,3.263,0,0,0,.038-.911c-.346-2.22-.815-4.354-1.284-6.488q7.277-4.281,14.526-8.6c4.251-2.525,9.445-6.721,14.528-8.3C584.851,238.618,575.486,250.506,563.3,251.538Zm28.35-13.888q-2.685,9.06-6.2,18.131c-3.139-.728-6.294-1.379-9.455-2.006C582.257,250.031,587.525,244.162,591.652,237.65Zm-15.065-10.17q-8.531,5.055-17.061,10.108c-.519-1.795-1.053-3.583-1.663-5.321a3.172,3.172,0,0,0,.643-.337c7.811-6.3,17.158-8.48,26.767-9.441C582.3,223.913,579.5,225.753,576.587,227.48Zm-21.707-2.722a101.044,101.044,0,0,0-6.561-12.293,3,3,0,0,0,.393-.409c3.83-6.027,11.338-10.323,16.754-14.986,3.719-3.2,7.45-6.4,11.1-9.686C572.311,201.473,566.527,216.26,554.88,224.758Zm4.774-31.044c-4.989,4.327-10.975,7.984-15.058,13.231-2.148-3.015-4.406-5.984-6.887-8.872,9.707-10.568,22.515-14.762,36.072-16.76C569.184,185.571,564.384,189.611,559.654,193.714Zm-26.516-28.471c-4.332,4.955-8.4,10.128-12.412,15.346-3.465-3.27-7.041-6.367-10.75-9.257a2.95,2.95,0,0,0,.649-.5,66.429,66.429,0,0,1,37.24-22.2C544.229,154.953,537.9,159.8,533.138,165.243Zm13.912-5.412c-2.973,11.646-6.564,23.059-14.871,32.191-.174-.18-.327-.367-.5-.547q-3.176-3.267-6.4-6.469c4.943-6.458,10.017-12.836,15.532-18.817C542.819,164.007,544.983,161.955,547.05,159.831Zm-34.038-14.08c-2.143,7.235-7.183,14.388-8.3,21.656-.007.038.009.068,0,.106a84.41,84.41,0,0,0-8.641-5.242c4.054-5.934,7.033-12.459,12.148-17.666a57.412,57.412,0,0,0,8.84-11.722C515.749,137.307,514.22,141.679,513.012,145.751Zm-12.585-2.162c-4.068,4.905-6.449,10.892-10.2,16.009a67.3,67.3,0,0,0-7.705-2.642c4.1-9.554,8.592-17.446,17.708-23.244a123.629,123.629,0,0,1,13.047-7.027C509.925,133.158,505.2,137.839,500.427,143.589ZM556,250.5c-2.778-.357-5.558-.707-8.346-.985-7.238-38.16-37.508-62.878-71.312-78.394a3.1,3.1,0,0,0-.448-.107q.857-4.486,1.985-8.915a2.92,2.92,0,0,0,.583.27C515.795,171.207,549.477,213.859,556,250.5ZM473.605,191.1a120.088,120.088,0,0,1,1.235-13.682c31.03,14.579,58.624,36.848,66.195,71.557-2.207-.17-4.41-.38-6.621-.5-.021,0-.034.01-.055.009a4.225,4.225,0,0,0-2.4-.542c-.489.033-.976.095-1.465.13a10.7,10.7,0,0,0,.293-8.313,9.112,9.112,0,0,0-6.925-5.863c1.926-3.089,2.213-6.6-1.156-10.545-3.3-3.87-7.51-4.491-11.6-3.412a14.479,14.479,0,0,0,.973-2.465c1.1-3.964.119-8.619-3.327-11.131-5-3.642-10.781-.866-15.5,3.334.155-7.465-1.638-14.858-9.547-15.069-4.6-.123-7.852,2.624-9.954,6.443C473.591,197.734,473.518,194.415,473.605,191.1Zm4.04,40.115q-.96-4.885-1.734-9.795a49.771,49.771,0,0,1,17.711,10.318c3.871,3.362,13.438,11.359,14.259,17.46a2.892,2.892,0,0,0-.177,1.423c-1.426.218-2.841.492-4.263.73C499.88,241.205,487.3,234.726,477.645,231.218ZM497,252.486c-4.647.884-9.279,1.85-13.879,2.954-1.369-5.553-2.7-11.166-3.939-16.823C486.073,241.479,494.233,246.121,497,252.486Zm-12.959-50.7c4.581,1.48,3.015,11.107,1.965,16.379-.1.16-.21.322-.306.476a53.13,53.13,0,0,0-8.488-3.484C476.852,209.922,478.458,199.985,484.037,201.788Zm7.556,20.394a2.578,2.578,0,0,0,.118-.278c.071-.35.148-.747.223-1.14,2.942-4.037,10.722-12.943,13.74-8.386,2.761,4.168-5.142,11.463-7.086,15.286A72.617,72.617,0,0,0,491.593,222.182Zm12.021,10.142a2.91,2.91,0,0,0,.455-.344c2.85-3.247,9.051-9.053,13.471-4.788,4.277,4.127-4.832,8.868-8.463,11.157A67.161,67.161,0,0,0,503.614,232.324Zm9.772,11.25c2.784-2.15,9.491-6.568,11.623-1.276.722,1.793-.669,4.807-2.373,6.48-2.792.28-5.575.614-8.356.975a13.279,13.279,0,0,0-1.579-5.846A2.874,2.874,0,0,0,513.386,243.574Zm188.867-95.7c.819,17.81-1.351,37.325-7.845,54.311.862-21.018-4.651-42.392-18.385-57.237a2.77,2.77,0,0,0-.061-.336c-3.437-8.508-9.515-26.855,2.839-31.148C696.382,107.357,701.81,138.261,702.253,147.878ZM698.5,98.587c3.757-2.542,7.905-.987,9.376,2.766.789,2.014.242,5.2.122,7.37a105.937,105.937,0,0,1-2.075,15.407,39.972,39.972,0,0,0-2.356-3.373c-.95-1.213-2.207-2.658-3.482-4.231-.091-.112-.181-.227-.274-.338C695.405,110.69,691.028,103.641,698.5,98.587Zm-19.24,64.551c12.95,23.377,11.971,51.833.087,75.171a57.256,57.256,0,0,0-.308-10.99c-1.977-15.3-10.1-36.244-24.061-45.313a2.681,2.681,0,0,0-.938-1.375c-10.75-8.449-20.521-51.424,9.117-38.355C669.785,145.2,675.946,157.161,679.257,163.138Zm-21.118,31.091a56.873,56.873,0,0,1,7.89,12.145c9.314,18.947,10.306,41.588-3.738,57.64,1.673-16.076-5.862-35.869-18.717-43.372-.008-.006-.011-.015-.019-.021-8.677-6.454-23.228-25.909-9.283-34.868C642.685,180.348,653.157,188.406,658.139,194.229Zm-18.694,31.327c.274.132.513.306.776.451.042.032.085.069.127.1.074.055.145.055.219.1,5.5,3.217,8.723,9.335,10.93,15.076,4.225,10.986,8.323,25.825-.862,35.184-2.721-2.625-5.5-5.265-8.269-7.96q-5.415-6.072-11.131-11.866a70.719,70.719,0,0,1-8.135-11.771C617.873,235.08,627.05,219.586,639.445,225.556ZM675.412,292.6c2.959-4.9,5.985-9.806,9.111-14.68,2.851,6.9,5.338,15.951,2.792,22.4C683.4,297.659,679.446,295.067,675.412,292.6Zm91.863-94.4c-4.761,1.893-9.493,3.86-14.164,5.973-1.318.6-2.572,1.241-3.857,1.863l-8.953-1.878q4.933-6.441,9.3-13.226A150.154,150.154,0,0,1,767.275,198.2Zm-14.21-12.771c2.433-4.048,4.7-8.184,6.839-12.386a258.286,258.286,0,0,1,32.376,2.56,116.06,116.06,0,0,1-4.353,13.9,5.02,5.02,0,0,0-.284,1.077q-6.237,2.224-12.437,4.552A159.794,159.794,0,0,0,753.065,185.424Zm-18.2,161.111c-.175-.24-.345-.483-.522-.722a3.293,3.293,0,0,0,.672-.618c1.324-1.814,2.5-3.655,3.68-5.5q8.17,2.118,16.354,4.189c4.791,1.22,11.431,1.925,16.138,4.407C759.243,352.637,744.215,354.421,734.87,346.535Zm29.868,10.226q-8.306,4.509-17.209,8.434c-1.7-2.734-3.474-5.426-5.266-8.1C749.339,358.873,757.214,358.448,764.738,356.761Zm-34.3-16.127c-1.712-2.217-3.43-4.43-5.2-6.6,21.865-32.1,17.939-70.985,5.007-105.86a3.246,3.246,0,0,0-.241-.391q3.777-2.568,7.708-4.9a2.884,2.884,0,0,0,.221.6C758.081,256.14,751.738,310.116,730.44,340.634Zm30.836-1.717Q751.67,336.46,742.064,334c.9-1.636,1.79-3.278,2.587-4.939a3.133,3.133,0,0,0,.693.217c9.977,1.07,18.128,6.137,25.6,12.251C767.839,340.438,764.557,339.756,761.276,338.917ZM747.85,321.644a100.857,100.857,0,0,0,4.055-13.332,3,3,0,0,0,.566-.011c6.97-1.554,15.317.717,22.445,1.25,4.857.362,9.718.8,14.586,1.06C776.557,317.541,762.054,323.864,747.85,321.644Zm25.329-18.576c-6.588-.468-13.406-2.114-20-1.292.614-3.651,1.117-7.347,1.4-11.143,14.382-.61,26.435,5.52,37.462,13.733C785.745,304.129,779.46,303.514,773.179,303.068Zm1.382-38.881c-6.566.44-13.1,1.218-19.624,2.074-.137-4.758-.447-9.481-1.024-14.142a2.934,2.934,0,0,0,.777.1,66.423,66.423,0,0,1,42.032,10.634C789.68,264.753,781.777,263.7,774.561,264.187Zm13.664,6.01c-10.338,6.132-20.946,11.663-33.278,12.247,0-.251.029-.491.032-.742.043-3.037.069-6.073.056-9.1,8.059-1.071,16.154-1.993,24.28-2.322C782.28,270.158,785.262,270.237,788.225,270.2Zm-35.3-24.582c-.006,0-.008.01-.014.015a84.307,84.307,0,0,0-2.435-9.76c7.054-1.331,13.766-3.831,21.056-3.9a57.443,57.443,0,0,0,14.54-2.038c-4.057,2.2-8.23,4.21-11.963,6.237C767.482,239.773,758.86,241.267,752.929,245.615Zm13.813-19.871c-6.32.59-12.218,3.12-18.463,4.091a67.22,67.22,0,0,0-3.582-7.329c9.624-3.844,18.367-6.229,28.888-3.887a123.486,123.486,0,0,1,14.193,4.256C780.835,225.085,774.18,225.05,766.742,225.744Zm-26.349-15.091q-6.017,3.393-11.54,7.193,3.649-3.988,7.076-8.13Zm-24.317,11.213c.794-3.873,1.566-7.822,2.352-11.807a144.739,144.739,0,0,0,3.983-15.522c.026-.134.044-.27.07-.405a83.435,83.435,0,0,1,6.982,13.134c.022.054.062.074.086.125Q723.218,214.911,716.076,221.866Zm8.65,9.709c11.633,32.25,15.4,67.509-3.79,97.405-1.429-1.667-2.828-3.36-4.294-5a4.36,4.36,0,0,0-1.4-2.156c-.37-.322-.758-.622-1.129-.943a10.7,10.7,0,0,0,6.085-5.672,9.112,9.112,0,0,0-.75-9.042c3.545-.822,6.229-3.1,6.638-8.273.4-5.072-2.135-8.487-5.79-10.616a14.532,14.532,0,0,0,2.431-1.055c3.584-2.023,6.179-6.01,5.518-10.224-.957-6.107-7.011-8.235-13.32-8.605,5.388-5.17,9.348-11.665,3.9-17.407-3.166-3.34-7.407-3.7-11.593-2.483,2.239-2.455,4.534-4.853,6.938-7.133A120.068,120.068,0,0,1,724.726,231.575Zm-18.734,52.319a72.6,72.6,0,0,0-1.07-8.822,2.981,2.981,0,0,0,.28-.113c.3-.2.634-.425.965-.649,4.935-.774,16.732-1.57,15.645,3.786C720.817,283,710.07,282.566,705.992,283.894Zm13.735,13.067c.107,5.946-9.7,2.851-13.88,1.9a67.3,67.3,0,0,0,.4-8.122,2.872,2.872,0,0,0,.566.079C711.127,290.54,719.618,290.82,719.727,296.961Zm-14.521,8.647c3.489.448,11.355,2.067,9.121,7.316-.758,1.779-3.872,2.926-6.26,2.9-2.188-1.789-4.408-3.532-6.646-5.256a13.132,13.132,0,0,0,3.047-5.219A2.886,2.886,0,0,0,705.206,305.608Zm8.794-50.3c2.193,4.285-5.721,9.986-10.191,12.971-.187.04-.377.079-.554.121a53.065,53.065,0,0,0-3.538-8.466C703.168,255.979,711.329,250.088,714,255.308Zm-16.851,50.45a2.884,2.884,0,0,0-.946.818c-1.162-.855-2.356-1.662-3.531-2.5,4.66-9.694.346-23.171-4-32.479q2.775-4.132,5.7-8.152a49.766,49.766,0,0,1,5.227,19.82C699.962,288.436,701.032,300.979,697.149,305.758ZM798.458,412.894H778.845q.382-7.35.452-14.712a70.58,70.58,0,0,1,2.571-14.076c3.227-10.62,20.673-15.087,25.216-2.1.1.287.146.58.23.869.007.052.011.108.019.159.013.09.063.139.082.224,1.615,6.164-.433,12.771-2.931,18.391A79.551,79.551,0,0,1,798.458,412.894Zm15.02-31.445a.262.262,0,0,0,0-.028c-1.571-10.7,1.9-34.745,18.092-31.219,9.77,2.126,11.478,15.23,10.883,22.869a56.915,56.915,0,0,1-3.009,14.168,63.77,63.77,0,0,1-15.967,25.655H806.755C812.882,403.031,816.025,391.14,813.478,381.449Zm18.945,31.445c.468-.551.962-1.068,1.409-1.648,9.423-12.219,18.483-32.774,15.027-49.055a2.679,2.679,0,0,0,.309-1.636c-1.627-13.575,21.853-50.872,33.568-20.674,2.621,6.757-1.48,19.571-3.365,26.139-5.876,20.473-20.31,36.927-38.532,46.874Zm57.545-62.055c.051-.095.126-.141.17-.246,3.586-8.447,12.261-25.718,24.032-20.018,16.753,8.111-1.261,33.8-7.748,40.914-11.967,13.122-27.23,25.337-43.758,32.764C878.067,390.008,889.2,371,889.968,350.839Zm35.84,6.451a39.916,39.916,0,0,0,.718-4.05c.177-1.452.305-3.247.5-5.146.034-.3.07-.605.1-.908.786-6.962,2.717-14.9,11.5-13.206,4.455.859,6.288,4.892,4.675,8.585-.867,1.983-3.508,3.851-5.126,5.3A105.729,105.729,0,0,1,925.808,357.29Zm-132.152-19.7c-2.314-2.912-6.011-7.538-5.665-8.877-.089.344,7.287-2.038,8.5-2.6a72.72,72.72,0,0,0,15.372-10.3c-.045,1.546-.068,3.093-.081,4.639A159.813,159.813,0,0,1,793.656,337.59Zm19.259-40.971q-8.226-4.476-16.433-8.984A87.365,87.365,0,0,0,814.1,275.448C813.9,282.5,813.413,289.556,812.915,296.619Zm75.729,6.423c-.066.1-.118.2-.174.3-3.22.132-6.439.321-9.658.6q-14.255-14.253-28.507-28.507,1.9-4.911,3.62-9.882Q872.1,283.557,888.644,303.042Zm-32.478-44.235q1.218-3.807,2.361-7.639l40.724,40a76.428,76.428,0,0,1-6.134,7.357Q875.54,277.821,856.166,258.807Zm14.541,46.02c-3.112.4-6.222.852-9.327,1.4-.737.129-1.43.327-2.157.471A163.022,163.022,0,0,0,844,290.134c.447-.937.929-1.841,1.36-2.792.826-1.822,1.59-3.664,2.364-5.5ZM844.817,262.7a15.48,15.48,0,0,0-3.548-1.94,49.239,49.239,0,0,0,6.1-5.721Q846.143,258.881,844.817,262.7Zm-12.444,13.648q.4-5.463.549-10.907c3.481.138,7.583,1.322,9.548,3.744-.458,1.221-.9,2.447-1.374,3.661-.221.563-.474,1.093-.7,1.651A24.559,24.559,0,0,1,832.373,276.344Zm4.812,5.6c-2.023,4.367-4.228,8.547-6.563,12.593q.669-5.872,1.214-11.8C833.6,282.549,835.4,282.3,837.185,281.941Zm5.69-31.749c-2.295,2.7-5.947,6.667-9.878,8.309-.039-4.8-.236-9.574-.746-14.282-.259-2.391-.612-4.759-1.042-7.108C840.649,233.654,850.768,240.9,842.875,250.192Zm-13.446-21a153,153,0,0,0-4.67-14.7,46.831,46.831,0,0,0,7.534-4.025c3.619-1.246,7.16-1.51,9.14,1.227,1.921,2.657-.645,7.062-2.183,9.7A15.81,15.81,0,0,1,829.429,229.188ZM841,296.139A163.121,163.121,0,0,1,852.269,308.3,122.478,122.478,0,0,0,825.9,319.159,151.881,151.881,0,0,0,841,296.139Zm89.171-72.862c-2.3,5.846-4.58,12.061-6.948,18.418q-8.989-9.417-18.6-18.186C913.368,223.256,922.109,223.409,930.166,223.277Zm-34.405.658c.011.009.012.02.023.029q13.041,11.577,24.963,24.285c-.961,2.517-1.935,5.037-2.945,7.549q-16.473-15.86-34.062-30.449C887.647,224.688,891.669,224.226,895.761,223.935Zm-30.729,7.191a56.237,56.237,0,0,1,10.929-4.091q20.173,16.587,38.938,34.732a2.825,2.825,0,0,0,.338.216q-2.164,5.069-4.55,9.956l-45.8-40.05a3.173,3.173,0,0,0-.732-.419A5.326,5.326,0,0,0,865.032,231.126Zm42.674,46.627q-2.271,4.208-4.789,8.112l-42.379-41.627c.583-2.072,1.164-4.144,1.724-6.223Q884.984,257.883,907.706,277.753ZM848.4,177.689l13.1,24.145c.048.087.119.123.17.2q-.847,3.324-1.687,6.65a149.462,149.462,0,0,0-14.11-29.845C846.723,178.465,847.562,178.073,848.4,177.689Zm-8.458,3.709a143.962,143.962,0,0,1,17,39.346c-1.6,6.312-3.245,12.61-4.989,18.878-1.63-5.01-6.372-8.213-11.707-9.32a24.38,24.38,0,0,0,4.525-5.773c2.358-4.158,5.681-10.918,2.759-15.422a11.526,11.526,0,0,0-7.526-5.392c3.2-3.926,4.846-8.469,2.967-13.226a11.734,11.734,0,0,0-7.725-7.158Q837.606,182.38,839.946,181.4Zm-17.921,8.359c4.079-1.313,12.849-1.465,14.709,3.057s-3.106,9.3-8.406,12.644c-2.067.812-4.089,1.778-5.992,2.739-2.087-5.18-4.323-10.3-6.584-15.393A30.079,30.079,0,0,1,822.025,189.757Zm-12.946,3.351a3.093,3.093,0,0,0,.114.5c9.173,20.606,17.455,40.837,17.283,63.776-.123,16.432-1.823,32.95-3.657,49.3q-2.187,3.075-4.5,6.023c.592-14.811,2.215-29.648,2.155-44.411a2.856,2.856,0,0,0,0-.773c-.035-4.332-.174-8.66-.6-12.977-2.02-20.632-8.41-40.409-15.094-59.929Q806.932,193.866,809.079,193.108Zm4,57.845q-7.118-3.247-14.5-5.87a128.917,128.917,0,0,0,10.99-12.891A174.262,174.262,0,0,1,813.076,250.953Zm-8.2-35.746q1.414,4.578,2.691,9.191a3.073,3.073,0,0,0-.479.464,121.285,121.285,0,0,1-16.511,19.248c-1.84,1.746-.758,4.6,1.441,5.319a173.663,173.663,0,0,1,21.648,8.7c.038.018.073.012.11.028.074,1,.2,1.99.251,2.993.092,1.817.105,3.636.133,5.455a82.247,82.247,0,0,1-26.221,18.079c-2.274.958-1.961,4.474,0,5.526,8.205,4.4,16.312,8.981,24.508,13.4-.077,1.188-.144,2.376-.212,3.564-4.924,4.282-9.963,8.6-15.7,11.775-3.919,2.167-9.349,2.6-12.861,5.06-6.113,4.288,1.5,12.808,5.066,17.45q-2.232,1.677-4.528,3.29c-.01-.01-.011-.025-.022-.036-7.146-6.546-14.408-12.794-22.75-16.958,14.695-2.3,28.95-10.32,41.5-17.291,1.678-.932,2.274-3.672.678-5.009-10.254-8.586-21.243-16.211-33.768-19.5,12.729-4.193,24-12.159,35.946-18.748,1.652-.911,2.305-3.7.678-5.009a73.2,73.2,0,0,0-38.093-16.08c4.031-1.819,7.939-3.884,11.8-6.045,7.5-4.2,16.134-7.949,22.468-13.783,1.9-1.745.707-4.574-1.44-5.319-10.023-3.481-20.233-7.906-30.8-9.4A39.064,39.064,0,0,0,760,211.524q7.134-3.135,14.385-5.921c.622-.239,1.248-.468,1.87-.705a3.231,3.231,0,0,0,.64.415q13.355,5.321,27.014,9.785A2.971,2.971,0,0,0,804.875,215.207Zm-2.309-7.274q-8.842-2.957-17.546-6.291,6.879-2.5,13.784-4.918Q800.717,202.307,802.566,207.933ZM793.63,169.42a280.381,280.381,0,0,0-30.668-2.658q2.659-5.706,4.967-11.574l.069-.015a3.089,3.089,0,0,0,.4-.083c9.211-1.845,17.9-5.661,27.018-7.853A107.168,107.168,0,0,1,793.63,169.42ZM781.414,97.044a109.386,109.386,0,0,1,9.662,22.617c-4.588,1.6-9.193,3.155-13.789,4.734A210.12,210.12,0,0,0,781.414,97.044Zm-5.9,34.666c5.71-2.032,11.473-3.907,17.2-5.9a104.613,104.613,0,0,1,2.364,15.022c-8.331,1.839-16.273,5.143-24.528,7.265Q773.364,140.031,775.516,131.71Zm-1.688-23.833c-.622,4.489-1.408,8.929-2.324,13.326a32.081,32.081,0,0,1-3.308-6.209C770.177,112.7,772.06,110.332,773.828,107.877ZM763.6,120.092a40.326,40.326,0,0,0,6.092,8.962q-1.344,5.346-2.97,10.586c-1.644-5.776-2.989-11.673-5.356-17.18Q762.5,121.28,763.6,120.092Zm-6.985,7.286c2.765,7.156,4.043,14.893,6.772,22.078q-1.988,5.351-4.27,10.572a160.253,160.253,0,0,0-9.184-25.666C752.151,131.986,754.39,129.668,756.617,127.378Zm-11.842,12.729c.168-.2.34-.382.508-.577a152.1,152.1,0,0,1,9.462,29.731q-3.37,6.687-7.248,13.111A121.384,121.384,0,0,0,733.3,158.2,81.511,81.511,0,0,1,744.775,140.107Zm-14.4,24.76A110.989,110.989,0,0,1,743.4,188.73c.007.018.022.027.029.045q-4.449,6.751-9.473,13.156A86.734,86.734,0,0,0,724,185.4c.115-.674.238-1.346.35-2.02A162.033,162.033,0,0,1,730.37,164.867Zm-4.476-99.432c-3.031,37.372-4.324,75.835-10.287,112.917-2.524,9.5-4.478,19.31-6.354,28.959-9.146,28.943-26.653,54.345-43.085,79.877-2.578-1.455-5.189-2.847-7.808-4.226,17.848-26.815,36.89-48.947,44.122-81.33.79-3.539,1.479-7.088,2.178-10.636A154.313,154.313,0,0,0,710,159.265c3.686-25.609,6.349-51.337,10.689-76.948a3.224,3.224,0,0,0-4.667-3.587c-32.85,15.642-72.348,44.181-87.95,77.985-15.034,32.573-10.176,71.142-23.963,104.048-2.937-.882-5.874-1.762-8.837-2.555,4.489-10.29,7.237-21.112,9.36-32.119a190.385,190.385,0,0,0,3.7-21.435c2.763-16.643,5.882-33.16,13.333-48.321C642.266,114.414,683.19,83.007,725.894,65.435ZM600.583,134.494c-.346-.979-.645-1.958-1.013-2.937-.7-1.872-1.465-3.714-2.218-5.562h32.509c-1.919,2.483-3.8,5-5.607,7.584-.43.612-.78,1.242-1.192,1.858A163.06,163.06,0,0,0,600.583,134.494Zm18.693,6.991a122.446,122.446,0,0,0-10.967,26.331,151.884,151.884,0,0,0-5.6-26.955A162.968,162.968,0,0,1,619.276,141.485Zm-20.732,62.16c-3.695-.422-9.58-1.08-10.283-2.271.181.306,3.712-6.594,4.167-7.849a72.718,72.718,0,0,0,3.585-18.154c1.061,1.125,2.139,2.234,3.223,3.337A159.86,159.86,0,0,1,598.544,203.645Zm42.868-91.3c-2.2,2.383-4.353,4.808-6.442,7.3H594.654q-2.126-4.819-4.427-9.548,25.62-.121,51.144,1.962C641.39,112.147,641.387,112.255,641.412,112.342Zm-63.256-4.98c1.219,2.366,2.374,4.766,3.535,7.163a15.528,15.528,0,0,0-3.809,1.122A49.482,49.482,0,0,0,578.156,107.362Zm6.472,13.394c.543,1.195,1.153,2.355,1.678,3.56.241.555.437,1.109.671,1.663a24.5,24.5,0,0,1-4.363,6.981q-3.579-4.146-7.324-8.1C577.832,122.511,581.537,120.465,584.628,120.756Zm5.346,12.76c1.658,4.518,3.054,9.032,4.264,13.544q-3.678-4.625-7.481-9.2C587.865,136.484,588.967,135.034,589.974,133.516Zm51.278-27.822q-27.07-2.214-54.214-1.958-1.832-3.553-3.732-7.072l57.081-.51A76.4,76.4,0,0,1,641.252,105.694Zm-2.023-15.883-59.4.531c-1.054-1.876-2.108-3.753-3.182-5.62l60.233-4.034Q638.249,85.269,639.229,89.811ZM614.24,26.287c2.509,5.759,5.29,11.766,8.11,17.935q-13.014-.3-26.012.294C602.347,38.15,608.636,32.077,614.24,26.287ZM590.378,51.079c.013,0,.022.006.036.005q17.409-1.035,34.824-.479c1.1,2.451,2.186,4.914,3.245,7.4q-22.833.433-45.558,2.511C585.207,57.306,587.709,54.158,590.378,51.079ZM573.734,77.893a56.213,56.213,0,0,1,4.845-10.638q25.988-2.537,52.082-2.957a2.8,2.8,0,0,0,.392-.086q2.054,5.115,3.823,10.257l-60.7,4.066a3.132,3.132,0,0,0-.814.221A5.387,5.387,0,0,0,573.734,77.893Zm-3.3,42.009c-3.421-3.366-6.936-6.6-10.626-9.571q-2.811-2.262-5.762-4.289c4.229-9.12,16.5-11.154,17.5,1C571.836,110.576,572.057,115.962,570.438,119.9ZM524.19,51.865l26.336,7.81a2.657,2.657,0,0,0,.277.024q1.752,2.952,3.509,5.9a149.592,149.592,0,0,0-31.094-11.133C523.55,53.6,523.866,52.733,524.19,51.865Zm-3.358,8.6a144.006,144.006,0,0,1,39.82,15.788q4.993,8.386,9.808,16.869c-4.687-2.366-10.288-1.274-14.832,1.708a24.371,24.371,0,0,0-.882-7.282c-1.273-4.607-3.7-11.737-8.955-12.855a11.532,11.532,0,0,0-9.134,1.508c-.512-5.04-2.562-9.415-7.255-11.45a11.736,11.736,0,0,0-10.523.4Q519.872,62.818,520.832,60.468Zm26.355,41.23a152.676,152.676,0,0,0-13.7-7.095,46.873,46.873,0,0,0,2.482-8.173c1.678-3.44,4-6.131,7.33-5.6,3.238.52,4.538,5.45,5.319,8.406A15.806,15.806,0,0,1,547.187,101.7ZM514.07,79.052c1.956-3.814,8.05-10.123,12.563-8.239s4.379,8.771,3,14.885c-.887,2.035-1.634,4.148-2.3,6.173-5.139-2.187-10.342-4.229-15.541-6.229A30.178,30.178,0,0,1,514.07,79.052Zm-6.784,11.523a3,3,0,0,0,.437.276c21.057,8.085,41.219,16.533,57.318,32.875,11.532,11.707,22.009,24.589,32.273,37.447.42,2.48.787,4.96,1.08,7.438-10.053-10.892-19.4-22.53-29.88-32.927a2.817,2.817,0,0,0-.549-.542c-3.089-3.039-6.247-6-9.6-8.755-16.017-13.161-34.521-22.626-53.049-31.7Q506.3,92.629,507.286,90.575Zm75.906,70.481c-6.019,1.777-12.044,3.529-18.065,5.295a87.2,87.2,0,0,0,3.911-21.13C573.887,150.36,578.543,155.7,583.192,161.056Zm-32.178-32.4q-7.327,2.736-14.4,6.1a129.157,129.157,0,0,0-1.344-16.886A173.95,173.95,0,0,1,551.014,128.652ZM502.578,100.4q5.3,2.595,10.585,5.265-8.343,4.161-16.855,7.959Q499.4,106.988,502.578,100.4Zm-10.163,21.721a3.22,3.22,0,0,0,.746-.158q13.206-5.68,26.021-12.183a3.006,3.006,0,0,0,.758-.6q4.236,2.237,8.4,4.6a3.073,3.073,0,0,0-.01.666,121.239,121.239,0,0,1,1.935,25.286c-.066,2.537,2.713,3.786,4.78,2.743a173.758,173.758,0,0,1,21.457-9.159c.039-.014.059-.043.1-.058.758.655,1.548,1.266,2.293,1.939,1.35,1.22,2.645,2.5,3.951,3.763a82.242,82.242,0,0,1-5.757,31.325c-.93,2.286,1.778,4.55,3.908,3.908,8.913-2.69,17.885-5.184,26.8-7.856q1.179,1.341,2.371,2.669c-.454,6.511-.962,13.129-2.775,19.428-1.238,4.3-4.774,8.446-5.516,12.672-1.29,7.353,10.121,7.993,15.922,8.756q-.393,2.764-.875,5.528c-.015,0-.027-.01-.041-.01-9.683.424-19.235,1.141-28.078,4.1,8.766-12.016,13.172-27.769,17.116-41.57.528-1.846-.988-4.2-3.063-4.021-13.321,1.178-26.483,3.557-37.666,10.088,6.035-11.966,8.375-25.571,12.161-38.675.524-1.813-.988-4.247-3.063-4.021a73.2,73.2,0,0,0-38.306,15.566c1.565-4.138,2.868-8.36,4.069-12.619,2.333-8.267,5.788-17.03,6.142-25.633.106-2.574-2.734-3.735-4.78-2.743-9.548,4.627-19.9,8.716-28.423,15.132a39.1,39.1,0,0,0-7.389,7.33q2.829-7.262,5.986-14.36C491.862,123.331,492.142,122.727,492.415,122.119Zm-2.639-19.141a5.068,5.068,0,0,0,.56.963q-2.837,5.984-5.575,12.013a159.87,159.87,0,0,0-22.517,8.8c-1.141-4.582-2.463-9.11-3.921-13.594a258.4,258.4,0,0,1,24.7-21.082A116.267,116.267,0,0,1,489.776,102.978ZM434.144,73.131q2.829,4.731,5.386,9.587c-5.248-2.923-10.369-6.141-15.936-8.362q-.037-1.632-.095-3.254A40.3,40.3,0,0,0,434.144,73.131Zm-11-8.882c-.224-3.026-.565-6.029-1.049-9.015q4.1,5.421,7.779,11.066A32.059,32.059,0,0,1,423.142,64.249Zm20.97,27.767q2.377,5.19,4.455,10.495a160.2,160.2,0,0,0-24.642-11.654c-.114-3.248-.169-6.469-.213-9.664C430.727,84.3,437.1,88.865,444.112,92.016ZM452,112.133q2.344,7.111,4.146,14.4a121.339,121.339,0,0,0-27.138-7.052,81.532,81.532,0,0,1-4.673-20.91c-.02-.256-.03-.51-.049-.766A152.039,152.039,0,0,1,452,112.133Zm5.746,21.786c.018.008.034,0,.052.011q1.629,7.922,2.6,16a86.76,86.76,0,0,0-18.733-4.643c-.394-.557-.782-1.119-1.18-1.675a162.063,162.063,0,0,1-8.834-17.353A111.047,111.047,0,0,1,457.75,133.919ZM461,156.884c.054.022.1.008.15.027q.839,9.8.707,19.762c-2.177-3.3-4.422-6.638-6.684-10.012a145.032,145.032,0,0,0-8.16-13.792c-.077-.113-.161-.222-.237-.335A83.276,83.276,0,0,1,461,156.884ZM479.612,84.75a279.9,279.9,0,0,0-23.565,19.806q-2.154-5.916-4.672-11.7l.039-.06a3.11,3.11,0,0,0,.223-.34c5.209-7.818,8.654-16.66,13.552-24.659A107.1,107.1,0,0,1,479.612,84.75Zm-19.2-21.24c-4.591,7.191-7.87,15.143-12.208,22.48q-3.708-7.692-8.071-15.1c2.6-5.473,5.35-10.874,7.984-16.332A104.584,104.584,0,0,1,460.417,63.51Zm-17.8-12.14c-2.111,4.378-4.269,8.732-6.4,13.1A210.019,210.019,0,0,0,419.8,42.21,109.448,109.448,0,0,1,442.621,51.37Zm-84.434,7.748c24.245,28.523,50.485,56.591,72.468,86.972,4.96,8.563,10.57,16.944,16.1,25.146,13.986,26.926,19.567,57.255,26,86.918-2.852.793-5.682,1.656-8.509,2.532-6.341-31.582-8.526-60.7-26.31-88.708-1.926-3.032-3.929-6-5.924-8.975a154.207,154.207,0,0,0-18.931-26.59c-15.438-20.612-31.667-40.6-46.638-61.678a3.224,3.224,0,0,0-5.837.763c-12.167,34.289-19.917,82.4-7.046,117.334,12.4,33.663,43.109,57.5,56.628,90.518-2.7,1.453-5.4,2.907-8.055,4.441-4.1-10.451-9.811-20.046-16.094-29.33A190.529,190.529,0,0,0,373.5,240.689c-9.815-13.721-19.288-27.606-24.74-43.595C333.687,152.884,340.416,101.739,358.187,59.118ZM347.436,214.657a151.855,151.855,0,0,0-23.02-15.1,162.726,162.726,0,0,1,12.156-11.275A122.436,122.436,0,0,0,347.436,214.657ZM334.5,179.173c.129.736.327,1.429.472,2.156a163.043,163.043,0,0,0-16.563,15.229c-.936-.448-1.84-.929-2.792-1.361-1.821-.826-3.663-1.59-5.5-2.364q11.493-11.495,22.987-22.987C333.5,172.958,333.956,176.068,334.5,179.173Zm-2.882-27.091c.133,3.22.322,6.44.6,9.659q-14.253,14.253-28.507,28.507-4.91-1.9-9.882-3.62,18-18.171,37.485-34.72C331.418,151.974,331.519,152.027,331.619,152.082Zm-4.816-4.646q-20.706,17.575-39.719,36.951-3.808-1.219-7.64-2.362l40-40.724A76.461,76.461,0,0,1,326.8,147.436Zm-12.662-9.8q-20.812,21.191-41.626,42.379c-2.072-.582-4.145-1.164-6.224-1.724l39.738-45.444Q310.237,135.117,314.141,137.635Zm-23.881-12.32q5.067,2.166,9.956,4.55-20.026,22.9-40.051,45.8a3.126,3.126,0,0,0-.418.731,5.326,5.326,0,0,0-.344-.876,56.212,56.212,0,0,1-4.091-10.929q16.586-20.174,34.731-38.938A2.966,2.966,0,0,0,290.26,125.315Zm-6.186-2.564q-15.86,16.473-30.449,34.061c-.661-3.907-1.122-7.929-1.414-12.021.009-.01.02-.012.03-.022q11.577-13.042,24.285-24.963C279.043,120.766,281.562,121.741,284.074,122.751Zm-14.1-5.417q-9.415,8.989-18.186,18.6c-.253-8.75-.1-17.491-.231-25.548C257.4,112.685,263.614,114.966,269.971,117.334Zm-64,74.814,24.144-13.1c.087-.047.123-.119.2-.17q3.322.849,6.649,1.687a149.517,149.517,0,0,0-29.845,14.11C206.741,193.829,206.35,192.99,205.966,192.148Zm5.641,13.153q-.95-2.355-1.933-4.695a143.993,143.993,0,0,1,39.346-17c6.312,1.6,12.61,3.246,18.878,4.99-5.01,1.629-8.213,6.371-9.32,11.706a24.34,24.34,0,0,0-5.773-4.525c-4.157-2.358-10.917-5.681-15.421-2.758a11.522,11.522,0,0,0-5.393,7.526c-3.926-3.2-8.469-4.846-13.226-2.967A11.735,11.735,0,0,0,211.607,205.3Zm-7.732,42.971a116.227,116.227,0,0,1,13.9,4.353,5.035,5.035,0,0,0,1.077.284q2.226,6.238,4.553,12.437a159.733,159.733,0,0,0-9.7,22.141c-4.047-2.433-8.184-4.7-12.385-6.839A258.1,258.1,0,0,1,203.875,248.272Zm-6.178-1.35a279.9,279.9,0,0,0-2.658,30.669q-5.707-2.66-11.575-4.968c0-.023-.01-.046-.014-.069a3.092,3.092,0,0,0-.084-.4c-1.845-9.211-5.66-17.9-7.853-27.018A107.183,107.183,0,0,1,197.7,246.922Zm-28.592-1.445c1.838,8.331,5.143,16.273,7.264,24.528q-8.061-2.817-16.383-4.969c-2.031-5.71-3.906-11.473-5.9-17.194A104.489,104.489,0,0,1,169.105,245.477Zm-21.168,4c1.6,4.587,3.156,9.192,4.735,13.788a210.146,210.146,0,0,0-27.351-4.127A109.4,109.4,0,0,1,147.937,249.477Zm-11.784,17.247c4.489.623,8.929,1.407,13.326,2.325a32.074,32.074,0,0,1-6.209,3.307C140.972,270.376,138.608,268.493,136.153,266.724Zm12.216,10.226a40.316,40.316,0,0,0,8.962-6.092q5.345,1.345,10.586,2.97c-5.776,1.644-11.674,2.989-17.181,5.356Q149.557,278.056,148.369,276.95Zm7.286,6.986c7.155-2.766,14.893-4.043,22.078-6.772q5.351,1.986,10.571,4.27a160.141,160.141,0,0,0-25.665,9.183C160.262,288.4,157.945,286.163,155.655,283.936Zm12.728,11.841c-.2-.167-.382-.339-.576-.508a152.2,152.2,0,0,1,29.731-9.462q6.685,3.37,13.111,7.248a121.34,121.34,0,0,0-24.176,14.2A81.521,81.521,0,0,1,168.383,295.777ZM93.712,314.659c37.371,3.03,75.833,4.323,112.914,10.286,9.5,2.524,19.313,4.479,28.964,6.355,28.941,9.147,54.342,26.653,79.875,43.085-1.456,2.577-2.847,5.188-4.227,7.807-26.815-17.848-48.946-36.889-81.329-44.121-3.54-.79-7.089-1.48-10.637-2.179a154.383,154.383,0,0,0-31.73-5.341c-25.609-3.685-51.337-6.349-76.949-10.689a3.224,3.224,0,0,0-3.587,4.667c15.642,32.85,44.181,72.348,77.986,87.95.316.147.639.273.957.415h-12.16C137.288,390.974,109.731,353.59,93.712,314.659Zm54.206,98.235h-8.5c.257-4.572.544-9.143.918-13.712.092-.02.2-.017.286-.042,2.384,2.2,4.809,4.354,7.3,6.443Zm9.333,0h-2.979v-2.2C155.247,411.445,156.262,412.154,157.251,412.894ZM133.97,399.3c-.37,4.529-.655,9.061-.912,13.593h-8.514l-.113-12.729A76.376,76.376,0,0,1,133.97,399.3Zm-15.882,2.023.1,11.57h-8.609q-.308-4.611-.617-9.221Q113.546,402.305,118.088,401.324Zm-15.342,4.352.483,7.218H92.653c-.026-1-.062-2-.078-3a3.159,3.159,0,0,0-.086-.392Q97.6,407.447,102.746,405.676Zm-16.468,6.393c.006.275.017.55.024.825H84.4C85.027,412.621,85.647,412.338,86.278,412.069Z" transform="translate(-10.337 -6.138)" fill="#231f20"/>
    <path d="M10.337,599.383H68.3a117.9,117.9,0,0,0-9.5,29.657c-.7,3.959,3.16,7.583,7,5.381,23.234-13.329,50.094-5.36,75.149-10.533-22.358,18.4-43.883,38.073-65.815,56.442-2.247,1.882-1.663,6.3,1.016,7.514,28.713,13,59.637,20.532,90.911,21.219-19.695,21.813-28.487,56.462-39.67,82.561-1.309,3.056.214,7.314,4.145,7.119,22.144-1.1,48.887,1.507,70.371-6.463-5.6,22.2-10.989,44.469-19.419,65.772-1.45,3.667,3.769,7.708,6.964,5.354,24.347-17.938,52.3-27.824,80.355-37.68a115.751,115.751,0,0,0,15.2,103.63c2.3,3.3,7.6,3.127,8.754-1.145,7-25.854,31.633-39.213,45.692-60.587-2.8,28.818-4.108,57.952-6.628,86.449-.259,2.92,3.279,5.631,6.031,4.6,29.5-11.109,56.688-27.651,79.288-49.279,1.5,29.35,19.781,60.067,30.329,86.43,1.235,3.086,5.323,5.021,7.964,2.1,14.88-16.438,35.635-33.5,45.19-54.33,11.737,19.653,23.674,39.214,32.777,60.239,1.567,3.618,8.115,2.785,8.71-1.138,4.532-29.9,17.306-56.655,30.176-83.464a115.748,115.748,0,0,0,84.027,62.527c3.96.7,7.584-3.16,5.381-7-13.329-23.235-5.359-50.095-10.532-75.15,18.395,22.358,38.073,43.883,56.441,65.815,1.882,2.248,6.3,1.664,7.514-1.016,13-28.713,20.532-59.636,21.219-90.911,21.814,19.7,56.462,28.487,82.562,39.67,3.055,1.309,7.314-.214,7.118-4.145-1.1-22.144,1.508-48.887-6.462-70.37,22.195,5.6,44.468,10.988,65.772,19.418,3.666,1.451,7.707-3.769,5.353-6.963-17.937-24.348-27.824-52.3-37.679-80.356a115.746,115.746,0,0,0,103.629-15.2c3.3-2.3,3.128-7.6-1.145-8.754-25.854-7-39.212-31.633-60.586-45.692,28.817,2.8,57.952,4.109,86.448,6.629,2.92.258,5.632-3.279,4.595-6.032-11.109-29.5-27.651-56.688-49.279-79.288,23.3-1.189,47.457-12.949,69.618-23.026h54.177V588.668H10.337Zm68.578,0h3.7q5.067,2.469,10.129,4.951a210.411,210.411,0,0,0-22.259,16.421A109.617,109.617,0,0,1,78.915,599.383Zm13.61,18.027c-3.025.224-6.029.565-9.015,1.049q5.422-4.1,11.067-7.778A32.013,32.013,0,0,1,92.525,617.41Zm4.532-18.027H101c-.608.348-1.226.674-1.83,1.031C98.461,600.078,97.762,599.723,97.057,599.383Zm2.322,17.671a40.387,40.387,0,0,0,2.029-10.645q4.731-2.83,9.586-5.386c-2.922,5.247-6.141,10.368-8.362,15.936C101.545,616.983,100.461,617.017,99.379,617.054Zm10.091-.213c2.661-6.015,6.351-11.581,9.349-17.458h7.953a161.623,161.623,0,0,0-7.639,17.244C115.886,616.741,112.664,616.8,109.47,616.841Zm17.374-.628c-.257.02-.51.031-.767.049a149.827,149.827,0,0,1,7.889-16.879H150.2a117.016,117.016,0,0,0-2.448,12.157A81.482,81.482,0,0,1,126.844,616.213Zm29.769-16.83H172.85c-.321.224-.641.448-.96.675a161.864,161.864,0,0,1-17.352,8.834C155.072,605.684,155.8,602.522,156.613,599.383ZM87.394,682.366c28.524-24.245,56.592-50.486,86.973-72.469,5.676-3.287,11.264-6.867,16.78-10.514H205.7c-1.819,1.022-3.635,2.083-5.444,3.232-3.032,1.925-6,3.929-8.975,5.924a154.183,154.183,0,0,0-26.592,18.931c-20.611,15.438-40.6,31.667-61.677,46.638a3.224,3.224,0,0,0,.763,5.836c34.289,12.168,82.4,19.917,117.335,7.047,33.662-12.4,57.5-43.109,90.517-56.629,1.453,2.7,2.907,5.4,4.441,8.055-10.452,4.1-20.049,9.813-29.335,16.1a190.6,190.6,0,0,0-17.766,12.539c-13.722,9.815-27.606,19.289-43.595,24.74C181.161,706.866,130.016,700.136,87.394,682.366Zm272.258-82.983a13.467,13.467,0,0,1-5.291,7.142,63.628,63.628,0,0,1-9.479,5.736c-5.988,2.79-19.016,3.946-15.267-7.683a13.025,13.025,0,0,1,3.174-5.195Zm261.994,0a4.191,4.191,0,0,1-1.46,4.125c-3.019,2.886-8.647,4.99-12.316,6.869-2.28,1.168-4.817,2.889-7.356,3.386-5.346,1.046-7.478-2.058-8.94-6.059-.106-.488-.213-.973-.31-1.469a2.9,2.9,0,0,0-.326-.777,31.123,31.123,0,0,0,3.529-2.07,23.415,23.415,0,0,0,4.576-4Zm43.164,0c3.749,2.75,7.948,5.94,9.873,10.2,3.552,7.855-2.674,14.543-10.326,10.89-8.531-4.072-12.912-12.443-16.174-21.088ZM634.577,657.2c-13.015-5.854-15.758-24.352-18.372-37.771,6.987,2.916,12.4,8.256,17.778,13.628,3.069,3.066,6.324,6.209,8.629,9.917C646.72,649.588,645.052,661.915,634.577,657.2Zm-1.723,53.735c-11.462-3.695-12.189-20.267-12.407-31.725,5.492,1.226,10.477,1.46,14.354,6.978a63.628,63.628,0,0,1,5.736,9.479C643.328,701.659,644.484,714.686,632.854,710.938Zm-23.741-39.312c-11.058-1.567-14.965-18.206-15.446-26.52-.416-7.191.173-14.137.729-21.207,4.908,4.494,8.4,10.561,12.015,16.094C610.157,645.729,627.784,674.27,609.113,671.626Zm2.741,45.837c-17.233,7.2-14.851-27.384-13.387-42.344C607.846,684.349,625.254,711.861,611.854,717.463ZM638.075,625c-3.68-6.026-6.017-12.944-8.379-19.675,11.329,4.019,31.235,17.31,29.9,28.538C657.956,647.6,640.513,629,638.075,625Zm8.621,39.489c4.53,3.9,7.459,9.52,10.673,14.566,2.774,4.356,6.43,9.621,6.72,14.926.431,7.891-8.455,8.915-13.177,3.581-3.83-4.328-5.189-10.342-5.84-15.9C644.34,675.4,645.683,670.156,646.7,664.492Zm14.28-13.388a22.8,22.8,0,0,1,.43-4.751,39.769,39.769,0,0,1,13.745,8.6,72.762,72.762,0,0,1,8.022,8.136c2.509,3.122,8.209,13.53.719,15.635-7.4,2.078-16.042-7.862-18.764-13.3A38.071,38.071,0,0,1,660.976,651.1Zm14.65-23.88a12.322,12.322,0,0,0,1.489-.7c.288-.181.528-.383.792-.574,11.9,2.184,39.1,16.139,30.306,27.061C696.968,666.979,681.6,638.893,675.626,627.224Zm22.063-6a156.876,156.876,0,0,1-12.158-14.352c6.763-.474,13.045,1.4,19.569,3.426,4.615,1.435,31.714,10.031,18.535,20.633C715.731,637.29,702.758,626.279,697.689,621.224Zm19.589-21.841h21.739a8.515,8.515,0,0,1-.415,1.426C734.671,610.389,725.922,606.62,717.278,599.383ZM587.1,673.565c-8.818,15.109-16.938-3.255-17.8-11.728-.9-8.861-1.458-18.551-.534-27.571,5.568,3.252,11.724,6.513,14.976,11.682C588.67,653.775,592.046,665.09,587.1,673.565Zm-7.127,54.614c-10.085-1.092-11.473-18.052-11.483-25.21a156.683,156.683,0,0,1,1.552-18.746c5.117,4.447,8.236,10.211,11.414,16.26C583.7,704.762,596.787,730,579.972,728.179ZM562.791,615.2a10.972,10.972,0,0,0,1.278-.95c2.55-2.4,3.4-5.867,3.265-9.661a21.311,21.311,0,0,0,17.536,3.093c.177.558.356,1.11.552,1.672,1.419,7.107,3.042,15.793-6.226,18.343C570.438,630.109,565.714,622,562.791,615.2ZM571,599.383h17.948C583.283,602.7,576.439,603.071,571,599.383ZM375.134,636.852a38.034,38.034,0,0,1,14.315-4.152,22.749,22.749,0,0,1,4.751.43,39.759,39.759,0,0,1-8.6,13.744,72.761,72.761,0,0,1-8.135,8.023c-3.122,2.508-13.531,8.209-15.635.718C359.753,648.217,369.694,639.574,375.134,636.852Zm-13.639-7.76c-4.357,2.775-9.621,6.43-14.927,6.72-7.891.432-8.915-8.454-3.581-13.176,4.328-3.83,10.343-5.19,15.9-5.84,6.263-.733,11.508.611,17.172,1.623C372.156,622.949,366.54,625.879,361.5,629.092Zm51.833,18.257a12.343,12.343,0,0,0,.7,1.49c.18.287.382.528.573.792-2.183,11.9-16.138,39.1-27.061,30.306C373.573,668.691,401.66,653.325,413.328,647.349ZM415.55,609.8c6.025-3.679,12.943-6.017,19.674-8.378-4.019,11.328-17.309,31.234-28.538,29.9C392.955,629.68,411.556,612.237,415.55,609.8Zm3.779,59.615a156.426,156.426,0,0,1,14.352-12.158c.473,6.763-1.4,13.045-3.427,19.569-1.435,4.615-10.031,31.714-20.633,18.535C403.263,687.455,414.273,674.482,419.329,669.413Zm11.642-23.006c-7.854,3.551-14.542-2.675-10.89-10.326,5.37-11.248,18.214-15.325,29.312-19.068a36.888,36.888,0,0,1-7.307,18.272C439.129,639.3,435.708,644.265,430.971,646.407Zm37.137-25.376c1.636,6.237,3.684,12.9,2.328,18.851-2.053,9.016-7.666,19.4-17.157,21.9-16.919,4.447-9.675-14.279-4.29-20.876C454.621,634.005,461.076,626.756,468.108,621.031ZM460.245,670.9c.089,13.186-7.081,44.937-20.5,39.429C422.451,703.229,448.644,680.427,460.245,670.9Zm12.621,18.458c3.017,4.751,6.376,8.441,5.216,15.085a63.671,63.671,0,0,1-2.647,10.759c-2.261,6.207-10.656,16.237-16.229,5.363C453.714,709.843,464.918,697.611,472.866,689.354Zm-2.649-13.379c-6.712-8.926,2.291-23.455,7.83-29.674,4.791-5.379,10.119-9.874,15.511-14.48.293,6.649-1.527,13.409-2.884,19.875C489.267,658.4,481.549,691.047,470.217,675.975ZM488.545,708.5c3.911-4.946,8.569-7.706,13.29-11,.444,5.964-1.456,12.007-2.751,17.846-1.119,5.043-2.257,11.35-5.8,15.307-5.275,5.885-12.283.325-11.849-6.785C481.783,718.106,485.075,712.891,488.545,708.5Zm9.876-24.719c-5.063-13.342,6.077-28.362,13.717-39.7,2.879,7,2.932,14.609,2.935,22.208,0,4.338.082,8.862-.911,13.114C512.392,686.984,502.5,694.521,498.421,683.782Zm27.792-48.143c-4.175-.094-9.643-2.586-13.566-3.852-2.438-.786-5.449-1.363-7.6-2.807-4.521-3.041-3.833-6.744-2.038-10.607.271-.419.538-.838.82-1.257a2.933,2.933,0,0,0,.319-.78,31.2,31.2,0,0,0,3.959,1.032c4.512.849,8.143.481,11.044-.763a90.617,90.617,0,0,0,12.476,2.081c-.042,1.657-.119,3.313-.207,4.985C531.185,628.212,532.484,635.779,526.213,635.639Zm-12,75.556a38.038,38.038,0,0,1,7.186-13.058,22.778,22.778,0,0,1,3.664-3.055,39.772,39.772,0,0,1,3.639,15.8,72.868,72.868,0,0,1-.08,11.425c-.434,3.982-3.763,15.372-10.548,11.564C511.376,730.107,512.292,716.966,514.215,711.2Zm9.448-47.708c1.659-6.863,4.9-13.407,7.988-19.837,5.168,10.853,9.846,34.326.96,41.32C521.745,693.523,522.564,668.035,523.663,663.487ZM536.921,635.3a2.935,2.935,0,0,0-.327-.237c1.672-4.635,1.733-10.774,1.558-16,1.77.042,3.541.055,5.312-.009a75.2,75.2,0,0,0,12.41-1.118,2.76,2.76,0,0,0,.291.605,21.475,21.475,0,0,1,4.062,7.743c1.1,4.273-.895,4.856-4.338,6.449C551.776,634.638,540.949,639.7,536.921,635.3Zm23.533,43.169c-3.043,8.065-12.174,8.392-15,.4-4.144-11.716,2.017-23.656,7.208-34.128a37.027,37.027,0,0,1,7.789,18.006C561.2,667.677,562.289,673.605,560.454,678.468Zm-7,54.417c-17.831,1.928-8.836-28.8-4.811-41.275a12.2,12.2,0,0,0,1.551.556c.323.074.628.1.943.152C558.014,702.241,567.414,731.377,553.456,732.885Zm.693-121.361a69.834,69.834,0,0,1-17.177,1.25,3.465,3.465,0,0,0-4.117-.286c-2.581-.247-5.143-.613-7.663-1.086a26.364,26.364,0,0,0,3.743-12.019H540.8a15.684,15.684,0,0,0,2.157,0h17.008C561.281,604.949,560.531,610.207,554.149,611.524Zm-43.664-.273c-7.355-.669-13.758-5.1-15.761-11.868h28.193C522.213,606.415,518.971,612.023,510.485,611.251Zm-22.328-11.868a21.328,21.328,0,0,0,10.13,14.237c-.269.52-.533,1.036-.792,1.574-4.022,6.028-9.016,13.317-17.372,8.567-7.9-4.489-5.5-13.565-2.764-20.437a10.874,10.874,0,0,0,1.576.231c3.34.1,6.256-1.606,8.765-4.172Zm-17.623.984a2.806,2.806,0,0,0-.222.633,21.464,21.464,0,0,1-2.6,8.348c-2.242,3.8-4.066,2.8-7.627,1.493-4.219-1.551-15.291-5.579-15.216-11.458H469.22C469.665,599.7,470.078,600.069,470.534,600.367Zm-63.042,5.34c-3.066,3.068-6.209,6.324-9.917,8.629-6.61,4.107-18.937,2.439-14.225-8.036a20.206,20.206,0,0,1,5.223-6.917h24.939C411.6,601.552,409.558,603.64,407.492,605.707Zm-47.568,71.312a4.344,4.344,0,0,0,1.406,2.2C409.14,721.1,468.561,746.322,532,750.363a4.233,4.233,0,0,0,2.412.553c63.373-4.191,123.182-28.343,170.882-70.288a4.348,4.348,0,0,0,2.2-1.406,291.269,291.269,0,0,0,49.775-79.839H761.4a287.575,287.575,0,0,1-49.416,80.848c-.08.091-.129.188-.2.281a4.9,4.9,0,0,0-1.915,1.08c-47.377,42.521-109.49,68.9-173,73.209-.123.009-.205.073-.323.088a4.843,4.843,0,0,0-2.136-.621c-63.567-3.434-126.142-28.7-174.093-70.56-.091-.08-.187-.129-.28-.2a4.895,4.895,0,0,0-1.081-1.916,289.817,289.817,0,0,1-51.538-82.209h4.122A281.918,281.918,0,0,0,359.924,677.019Zm454.291-77.636c2.259,3.123,2.975,7.23.781,11.786-.132.274-.307.513-.452.777-.031.042-.068.084-.1.126-.054.073-.054.144-.1.217-3.216,5.5-9.335,8.724-15.076,10.931-10.987,4.225-25.825,8.323-35.184-.861,2.624-2.721,5.266-5.507,7.961-8.27q6.072-5.415,11.864-11.13c1.5-1.251,3.044-2.438,4.608-3.576Zm78.459,74.593c-17.809.82-37.325-1.35-54.311-7.845,21.018.863,42.392-4.65,57.237-18.385a2.589,2.589,0,0,0,.336-.061c8.509-3.437,26.855-9.515,31.149,2.839C933.2,668.106,902.291,673.534,892.674,673.976Zm49.291-3.756c2.543,3.758.987,7.906-2.765,9.376-2.015.79-5.2.243-7.371.123a105.905,105.905,0,0,1-15.406-2.075,40.137,40.137,0,0,0,3.372-2.357c1.213-.95,2.658-2.207,4.231-3.481.113-.092.227-.181.338-.274C929.863,667.129,936.911,662.752,941.965,670.22Zm-43.689-35.343c-2.924,6.632-14.885,12.792-20.862,16.1-23.377,12.95-51.832,11.97-75.171.087a57.334,57.334,0,0,0,10.99-.308c15.3-1.978,36.244-10.106,45.313-24.062a2.671,2.671,0,0,0,1.375-.938C868.37,615.01,911.346,605.24,898.276,634.877Zm-121.737-.863c16.076,1.673,35.868-5.862,43.372-18.717.006-.008.014-.01.02-.018C826.385,606.6,845.84,592.05,854.8,606c5.4,8.412-2.654,18.885-8.477,23.866a56.915,56.915,0,0,1-12.145,7.891C815.232,647.066,792.591,648.059,776.539,634.014Zm16.5,44.95c2.455,2.24,4.853,4.535,7.133,6.938a120.064,120.064,0,0,1,8.8,10.548c-32.25,11.633-67.509,15.4-97.4-3.79,1.667-1.429,3.359-2.828,4.994-4.294a4.351,4.351,0,0,0,2.156-1.4c.323-.369.623-.757.943-1.128a10.7,10.7,0,0,0,5.672,6.085,9.113,9.113,0,0,0,9.043-.751c.822,3.546,3.1,6.23,8.273,6.639,5.072.4,8.486-2.135,10.616-5.79a14.4,14.4,0,0,0,1.055,2.43c2.022,3.585,6.01,6.179,10.223,5.519,6.108-.957,8.236-7.011,8.606-13.32,5.169,5.388,11.664,9.348,17.406,3.9C793.9,687.391,794.257,683.151,793.043,678.964Zm53.9,101.952c-20.606,9.173-40.837,17.456-63.776,17.284-16.432-.124-32.949-1.824-49.3-3.658q-3.075-2.185-6.023-4.5c14.811.593,29.649,2.215,44.412,2.156a2.932,2.932,0,0,0,.772,0c4.332-.036,8.661-.174,12.977-.6,20.632-2.019,40.409-8.41,59.929-15.093q.756,2.149,1.513,4.3A3.032,3.032,0,0,0,846.94,780.916Zm.808,6.559a30.157,30.157,0,0,1,3.048,6.273c1.313,4.08,1.465,12.85-3.058,14.709s-9.3-3.106-12.643-8.407c-.813-2.066-1.779-4.088-2.74-5.99C837.535,791.973,842.658,789.737,847.748,787.475Zm-18.881,25.681c-2.658,1.922-7.063-.645-9.706-2.182a15.81,15.81,0,0,1-7.8-9.822,153.367,153.367,0,0,0,14.7-4.669,46.857,46.857,0,0,0,4.024,7.533C831.339,807.636,831.6,811.177,828.867,813.156Zm-46.815-8.435c4.8-.04,9.574-.236,14.282-.746q3.587-.39,7.107-1.043c3.458,9.44-3.784,19.559-13.08,11.666C787.659,812.3,783.693,808.651,782.052,804.721Zm3.465,14.373q-3.845-1.229-7.66-2.553a15.5,15.5,0,0,0,1.94-3.548A49.146,49.146,0,0,0,785.517,819.094Zm-10.4-14.448c-.138,3.481-1.322,7.582-3.745,9.548-1.22-.459-2.446-.9-3.661-1.375-.563-.221-1.093-.474-1.65-.7a24.5,24.5,0,0,1-1.851-8.022Q769.671,804.5,775.116,804.646Zm-16.5,4.263c-4.367-2.023-8.546-4.228-12.592-6.563q5.872.669,11.795,1.214C758,805.318,758.25,807.122,758.611,808.909Zm-44.168-40.7a72.745,72.745,0,0,0,10.3,15.372c-1.546-.046-3.092-.068-4.639-.081a159.9,159.9,0,0,1-17.143-18.123c2.911-2.314,7.537-6.01,8.877-5.664C711.5,759.626,713.878,767,714.443,768.211Zm7.166.048c-2.167-3.919-2.6-9.348-5.06-12.861-4.287-6.112-12.808,1.5-17.45,5.067q-1.677-2.232-3.29-4.528c.01-.011.026-.011.036-.022,6.547-7.147,12.795-14.408,16.958-22.75,2.3,14.7,10.321,28.95,17.291,41.5.932,1.677,3.672,2.274,5.01.677,8.586-10.253,16.21-21.242,19.5-33.768,4.194,12.729,12.159,24,18.748,35.947.912,1.652,3.7,2.3,5.01.677a73.207,73.207,0,0,0,16.08-38.093c1.819,4.032,3.883,7.939,6.045,11.8,4.2,7.494,7.949,16.134,13.782,22.468,1.746,1.9,4.574.707,5.32-1.44,3.48-10.024,7.906-20.233,9.4-30.8a39.065,39.065,0,0,0,.042-10.407q3.134,7.134,5.92,14.386c.24.622.469,1.247.706,1.87a3.187,3.187,0,0,0-.415.64q-5.322,13.353-9.786,27.014a3,3,0,0,0-.109.963q-4.577,1.414-9.19,2.69a3.208,3.208,0,0,0-.464-.478A121.248,121.248,0,0,1,796.443,762.3c-1.747-1.841-4.6-.759-5.32,1.44a173.825,173.825,0,0,1-8.7,21.649c-.019.037-.012.072-.029.11-1,.074-1.99.2-2.992.25-1.818.093-3.636.105-5.455.133a82.222,82.222,0,0,1-18.079-26.22c-.959-2.274-4.475-1.961-5.527,0-4.4,8.2-8.981,16.312-13.4,24.507-1.188-.076-2.376-.143-3.563-.211C729.1,779.033,724.781,774,721.609,768.259Zm-24.944-41.481c-1.221,4.791-1.926,11.43-4.408,16.137-4.342-11.948-6.126-26.977,1.761-36.321.239-.176.483-.346.722-.522a3.255,3.255,0,0,0,.617.671c1.815,1.325,3.655,2.5,5.5,3.68Q698.737,718.6,696.665,726.778Zm4.97,6.221q2.457-9.6,4.916-19.211c1.637.9,3.278,1.79,4.939,2.587a3.252,3.252,0,0,0-.217.692c-1.069,9.978-6.136,18.129-12.25,25.6C700.115,739.563,700.8,736.281,701.635,733Zm17.274-13.425a100.839,100.839,0,0,0,13.331,4.054,3.007,3.007,0,0,0,.012.567c1.553,6.97-.718,15.316-1.25,22.444-.363,4.857-.8,9.719-1.061,14.586C723.012,748.281,716.688,733.778,718.909,719.574Zm19.867,5.325c3.651.613,7.347,1.116,11.144,1.4.61,14.382-5.521,26.434-13.733,37.462.237-6.3.851-12.581,1.3-18.863C737.952,738.315,739.6,731.5,738.776,724.9Zm19.333,1.772c.25,0,.49.028.742.032,3.037.043,6.073.068,9.1.056,1.071,8.058,1.993,16.154,2.322,24.28.12,2.965.041,5.946.082,8.91C764.223,749.611,758.692,739,758.109,726.671Zm19.59,41.775c-1.9-7.043-.85-14.946-1.333-22.161-.44-6.566-1.219-13.1-2.075-19.624,4.758-.138,9.481-.448,14.143-1.025a2.9,2.9,0,0,0-.1.778A66.424,66.424,0,0,1,777.7,768.446Zm17.224-43.808a84.287,84.287,0,0,0,9.759-2.434c1.33,7.053,3.832,13.765,3.9,21.055a57.445,57.445,0,0,0,2.038,14.541c-2.2-4.057-4.21-8.23-6.237-11.964-3.6-6.631-5.094-15.253-9.441-21.184C794.934,724.646,794.927,724.644,794.923,724.638Zm27.784-24.061c2.659,2.433,5.363,4.8,8.129,7.075l-.936,4.465Q826.507,706.1,822.707,700.577ZM808.36,781.3a174.042,174.042,0,0,1-18.76,3.5q3.246-7.116,5.869-14.494A129.181,129.181,0,0,0,808.36,781.3ZM765.1,785.827c-7.051-.206-14.108-.69-21.17-1.189q4.475-8.225,8.983-16.433A87.344,87.344,0,0,0,765.1,785.827Zm67.516-11.538q2.957-8.842,6.291-17.546,2.5,6.879,4.917,13.784Q838.245,772.44,832.62,774.289ZM842.357,739c-1.893-4.761-3.86-9.493-5.972-14.164-.6-1.318-1.242-2.572-1.864-3.857q.941-4.476,1.879-8.953,6.44,4.933,13.225,9.3A150.068,150.068,0,0,1,842.357,739Zm-3.736-33.316a86.707,86.707,0,0,0,16.529-9.964c.674.116,1.346.239,2.021.351a162.029,162.029,0,0,1,18.515,6.023,111.059,111.059,0,0,1-23.863,13.034c-.018.007-.027.021-.045.029Q845.025,710.707,838.621,705.683Zm-5.334-4.5c-.054.023-.075.062-.126.087q-7.519-6.333-14.474-13.474c3.873.794,7.821,1.567,11.806,2.353a144.8,144.8,0,0,0,15.522,3.982c.135.026.271.044.4.07A83.386,83.386,0,0,1,833.287,701.186Zm-11.353,44.122a123.7,123.7,0,0,1-4.256,14.194c-2.211-6.944-2.176-13.6-2.87-21.036-.59-6.32-3.12-12.218-4.091-18.464a67.314,67.314,0,0,0,7.33-3.581C821.89,726.044,824.275,734.788,821.934,745.308Zm-4.869-35.654c-32.653,20.15-86.629,13.807-117.146-7.49,2.217-1.712,4.43-3.43,6.6-5.205,32.1,21.866,70.984,17.939,105.859,5.007a2.985,2.985,0,0,0,.391-.241q2.568,3.779,4.9,7.708A2.971,2.971,0,0,0,817.065,709.654Zm-92.34-29.864c1.788-2.187,3.531-4.408,5.255-6.646a13.119,13.119,0,0,0,5.22,3.048,2.8,2.8,0,0,0-.255.738c-.448,3.488-2.068,11.354-7.316,9.121C725.849,685.293,724.7,682.178,724.725,679.79Zm18.866,11.661c-5.946.106-2.85-9.7-1.9-13.881a67.078,67.078,0,0,0,8.121.4,2.883,2.883,0,0,0-.078.566C750.012,682.851,749.732,691.341,743.591,691.451Zm13.067-13.736a72.575,72.575,0,0,0,8.822-1.07,3,3,0,0,0,.113.281c.2.3.425.633.649.964.775,4.935,1.57,16.733-3.785,15.645C757.557,692.541,757.987,681.793,756.658,677.715Zm28.587,8.008c-4.286,2.193-9.986-5.721-12.972-10.191-.04-.186-.079-.376-.12-.553a53.061,53.061,0,0,0,8.465-3.539C784.573,674.892,790.464,683.053,785.245,685.723Zm-27.958-14.4c-5.171.364-17.716,1.435-22.493-2.449a2.9,2.9,0,0,0-.817-.945c.854-1.162,1.661-2.357,2.5-3.531,9.694,4.659,23.171.345,32.479-4q4.132,2.776,8.153,5.7A49.77,49.77,0,0,1,757.287,671.321Zm-17.055-12.282c2.661-3.912,5.253-7.87,7.725-11.9,4.9,2.959,9.806,5.985,14.681,9.111C755.739,659.1,746.687,661.584,740.232,659.039Zm-56.441,77.422q-4.509-8.3-8.434-17.208c2.735-1.705,5.426-3.475,8.105-5.267C681.68,721.063,682.1,728.938,683.791,736.461ZM669.063,878.146c-13.121-11.967-25.337-27.23-32.764-43.759,14.246,15.4,33.258,26.534,53.415,27.3.094.051.14.126.246.171,8.447,3.585,25.717,12.261,20.018,24.032C701.867,902.647,676.176,884.633,669.063,878.146Zm37.509,32.2c-.858,4.455-4.892,6.288-8.585,4.675-1.983-.866-3.85-3.508-5.3-5.125a105.823,105.823,0,0,1-9.427-12.362,40.214,40.214,0,0,0,4.051.719c1.454.177,3.251.3,5.153.5.3.034.6.069.9.094C700.324,899.628,708.266,901.557,706.572,910.343Zm-5.9-55.883c-6.757,2.621-19.571-1.48-26.139-3.365-25.687-7.373-45.115-28.187-53.215-53.092a57.293,57.293,0,0,0,7.989,7.553c12.22,9.422,32.774,18.482,49.056,15.027a2.674,2.674,0,0,0,1.635.309C693.572,819.265,730.869,842.744,700.671,854.46ZM690.351,803.3c-2.127,9.77-15.23,11.477-22.87,10.882a56.818,56.818,0,0,1-14.167-3.009c-19.983-6.811-36.694-22.118-38.114-43.4,10.184,12.55,29.508,21.217,43.9,17.433.01,0,.018,0,.028,0C669.831,783.631,693.876,787.1,690.351,803.3Zm-31.8-24.488c-.287.1-.581.147-.87.23-.051.008-.107.012-.158.02-.091.013-.14.063-.225.082-6.163,1.614-12.77-.433-18.391-2.932-10.756-4.781-24.146-12.375-24.269-25.488,3.781-.068,7.619-.17,11.48-.218q8.121.463,16.258.519a70.694,70.694,0,0,1,14.073,2.571C667.067,756.819,671.533,774.264,658.548,778.807Zm-56.182,86.451q1.067,8.043,2.776,15.928a150.372,150.372,0,0,1-17.637,7.358c2.028-4.706,3.984-9.442,5.793-14.239.51-1.353.94-2.7,1.409-4.044Zm-4.661-4.531c1.237-4.436,2.251-8.849,3.074-13.246.16,3.6.4,7.187.745,10.751Zm-92.179-99.989c.294.046.587.1.881.142a3.263,3.263,0,0,0-.038.911c.346,2.22.814,4.354,1.284,6.488q-7.275,4.281-14.526,8.6c-4.251,2.525-9.445,6.721-14.528,8.294C483.978,773.658,493.343,761.77,505.526,760.738Zm-28.35,13.888q2.685-9.06,6.2-18.131c3.139.728,6.294,1.379,9.455,2.006C486.572,762.245,481.3,768.114,477.176,774.626Zm15.066,10.17q8.53-5.055,17.061-10.108c.519,1.795,1.052,3.583,1.663,5.321a3.172,3.172,0,0,0-.643.337c-7.811,6.3-17.159,8.48-26.767,9.441C486.525,788.363,489.328,786.523,492.242,784.8Zm21.707,2.721a100.918,100.918,0,0,0,6.561,12.294,2.943,2.943,0,0,0-.393.409c-3.83,6.027-11.338,10.322-16.754,14.986-3.719,3.2-7.45,6.4-11.1,9.686C496.518,810.8,502.3,796.015,513.949,787.517Zm-4.774,31.045c4.988-4.327,10.974-7.984,15.058-13.231,2.147,3.015,4.405,5.984,6.887,8.872-9.708,10.568-22.515,14.762-36.072,16.76C499.645,826.705,504.445,822.664,509.175,818.562Zm26.515,28.471c4.333-4.955,8.4-10.128,12.413-15.346,3.464,3.269,7.041,6.367,10.749,9.257a2.945,2.945,0,0,0-.648.5,66.428,66.428,0,0,1-37.241,22.2C524.6,857.323,530.93,852.477,535.69,847.033Zm-13.911,5.412c2.973-11.647,6.564-23.059,14.871-32.191.174.18.327.367.5.547q3.175,3.267,6.4,6.469c-4.943,6.458-10.016,12.836-15.532,18.817C526.01,848.269,523.846,850.321,521.779,852.445Zm34.037,14.079c2.144-7.234,7.183-14.387,8.3-21.655.006-.038-.009-.068,0-.106a84.48,84.48,0,0,0,8.641,5.242c-4.054,5.934-7.033,12.459-12.149,17.666a57.454,57.454,0,0,0-8.84,11.723C553.079,874.969,554.609,870.6,555.816,866.524Zm12.586,2.163c4.068-4.9,6.449-10.893,10.2-16.009a67.1,67.1,0,0,0,7.705,2.641c-4.1,9.555-8.592,17.447-17.709,23.245a123.614,123.614,0,0,1-13.046,7.027C558.9,879.117,563.634,874.437,568.4,868.687ZM512.833,761.779c2.778.357,5.558.707,8.345.985,7.239,38.16,37.509,62.878,71.313,78.394a3.253,3.253,0,0,0,.447.107q-.855,4.486-1.984,8.915a2.976,2.976,0,0,0-.583-.27C553.034,841.069,519.352,798.418,512.833,761.779Zm82.391,59.394a120.05,120.05,0,0,1-1.235,13.681c-31.03-14.578-58.624-36.847-66.2-71.555,2.206.169,4.41.379,6.62.5.022,0,.035-.01.056-.009a4.233,4.233,0,0,0,2.4.542c.489-.033.975-.1,1.464-.13a10.7,10.7,0,0,0-.292,8.313,9.112,9.112,0,0,0,6.925,5.863c-1.926,3.089-2.214,6.6,1.156,10.545,3.3,3.87,7.51,4.49,11.6,3.412a14.386,14.386,0,0,0-.973,2.464c-1.105,3.965-.119,8.619,3.327,11.132,5,3.642,10.781.865,15.5-3.334-.154,7.465,1.638,14.858,9.548,15.069,4.6.123,7.852-2.624,9.954-6.443C595.238,814.542,595.311,817.861,595.224,821.173Zm-4.041-40.115q.96,4.886,1.735,9.795a49.759,49.759,0,0,1-17.711-10.319c-3.871-3.361-13.438-11.358-14.259-17.459a2.9,2.9,0,0,0,.177-1.423c1.425-.218,2.841-.492,4.263-.73C568.948,771.072,581.527,777.55,591.183,781.058ZM571.832,759.79c4.648-.884,9.28-1.85,13.88-2.954,1.369,5.554,2.7,11.166,3.938,16.823C582.756,770.8,574.6,766.155,571.832,759.79Zm12.96,50.7c-4.581-1.48-3.016-11.108-1.965-16.379.1-.16.209-.322.3-.476a53.168,53.168,0,0,0,8.488,3.484C591.976,802.354,590.371,812.29,584.792,810.488Zm-7.556-20.4a2.818,2.818,0,0,0-.119.279c-.071.35-.147.747-.223,1.14-2.941,4.037-10.721,12.942-13.739,8.386-2.761-4.168,5.142-11.464,7.086-15.287A72.5,72.5,0,0,0,577.236,790.093Zm-12.022-10.141a2.785,2.785,0,0,0-.454.344c-2.85,3.247-9.051,9.053-13.471,4.788-4.278-4.127,4.832-8.868,8.463-11.157A67.3,67.3,0,0,0,565.214,779.952Zm-9.771-11.25c-2.784,2.15-9.491,6.567-11.623,1.276-.723-1.794.669-4.807,2.373-6.48,2.791-.28,5.574-.615,8.355-.975a13.287,13.287,0,0,0,1.58,5.845A2.823,2.823,0,0,0,555.443,768.7ZM366.576,864.4c-.819-17.81,1.35-37.324,7.845-54.311-.863,21.018,4.65,42.392,18.385,57.237a2.62,2.62,0,0,0,.061.336c3.437,8.508,9.515,26.855-2.839,31.148C372.447,904.919,367.018,874.015,366.576,864.4Zm3.756,49.29c-3.757,2.543-7.9.988-9.376-2.765-.79-2.014-.242-5.2-.122-7.37a105.8,105.8,0,0,1,2.074-15.407,40.045,40.045,0,0,0,2.357,3.372c.95,1.214,2.207,2.658,3.481,4.231.092.113.182.228.275.339C373.424,901.586,377.8,908.634,370.332,913.688Zm19.24-64.55c-12.95-23.377-11.971-51.833-.088-75.171a57.336,57.336,0,0,0,.309,10.99c1.977,15.3,10.105,36.244,24.061,45.313a2.675,2.675,0,0,0,.938,1.375c10.75,8.448,20.52,51.424-9.117,38.355C399.044,867.075,392.883,855.115,389.572,849.138Zm21.118-31.091A56.873,56.873,0,0,1,402.8,805.9c-9.314-18.947-10.306-41.588,3.738-57.64-1.673,16.076,5.862,35.869,18.717,43.372.008.006.01.015.019.021,8.677,6.454,23.228,25.909,9.283,34.868C426.144,831.928,415.672,823.87,410.69,818.047Zm18.693-31.327c-.273-.132-.513-.307-.776-.452-.042-.032-.085-.068-.126-.1-.074-.055-.144-.054-.217-.1-5.5-3.217-8.725-9.336-10.932-15.077-4.225-10.986-8.323-25.825.862-35.184,2.722,2.626,5.507,5.268,8.272,7.964q5.413,6.069,11.127,11.861a70.659,70.659,0,0,1,8.135,11.771C450.956,777.2,441.779,792.689,429.383,786.72Zm-35.966-67.039c-2.959,4.895-5.985,9.806-9.111,14.68-2.851-6.9-5.338-15.951-2.792-22.4C385.425,714.617,389.383,717.209,393.417,719.681Zm-91.863,94.4c4.761-1.892,9.492-3.859,14.164-5.972,1.318-.6,2.572-1.241,3.856-1.863l8.954,1.878q-4.935,6.441-9.3,13.226A150.16,150.16,0,0,1,301.554,814.08Zm14.21,12.773c-2.434,4.047-4.7,8.183-6.84,12.385a258.287,258.287,0,0,1-32.375-2.561,116.277,116.277,0,0,1,4.352-13.9,5.025,5.025,0,0,0,.285-1.077q6.239-2.224,12.437-4.552A159.919,159.919,0,0,0,315.764,826.853Zm18.194-161.112c.176.24.346.483.522.722a3.261,3.261,0,0,0-.671.618c-1.325,1.814-2.5,3.655-3.68,5.5q-8.171-2.118-16.354-4.189c-4.791-1.22-11.431-1.925-16.138-4.407C309.585,659.639,324.614,657.854,333.958,665.741Zm-29.867-10.227q8.305-4.508,17.208-8.434c1.705,2.735,3.475,5.427,5.267,8.1C319.489,653.4,311.615,653.828,304.091,655.514Zm34.3,16.128c1.712,2.217,3.429,4.43,5.2,6.6-21.865,32.1-17.939,70.984-5.007,105.86a3.124,3.124,0,0,0,.241.391q-3.779,2.567-7.708,4.9a2.912,2.912,0,0,0-.221-.6C310.748,756.135,317.091,702.159,338.389,671.642Zm-30.836,1.717q9.606,2.457,19.212,4.916c-.9,1.636-1.79,3.278-2.587,4.939a3.15,3.15,0,0,0-.693-.217c-9.978-1.07-18.129-6.137-25.6-12.251C300.989,671.838,304.272,672.519,307.553,673.359Zm13.425,17.273a101,101,0,0,0-4.054,13.332,3,3,0,0,0-.566.011c-6.971,1.554-15.317-.717-22.445-1.25-4.857-.362-9.718-.8-14.585-1.061C292.272,694.735,306.775,688.411,320.978,690.632ZM295.65,709.208c6.588.468,13.406,2.114,20,1.292-.614,3.651-1.117,7.347-1.4,11.143-14.383.61-26.435-5.52-37.462-13.733C283.084,708.147,289.369,708.762,295.65,709.208Zm-1.382,38.881c6.566-.44,13.1-1.218,19.624-2.074.137,4.758.447,9.48,1.024,14.142a2.934,2.934,0,0,0-.777-.1,66.427,66.427,0,0,1-42.033-10.634C279.149,747.523,287.052,748.573,294.268,748.089Zm-13.664-6.01c10.337-6.132,20.946-11.663,33.278-12.247,0,.251-.029.491-.032.742-.044,3.037-.069,6.073-.057,9.1-8.058,1.071-16.153,1.993-24.28,2.322C286.548,742.118,283.568,742.039,280.6,742.079Zm35.3,24.583c.006,0,.008-.011.014-.016a84.1,84.1,0,0,0,2.435,9.76c-7.054,1.33-13.766,3.831-21.056,3.9a57.443,57.443,0,0,0-14.54,2.038c4.056-2.2,8.23-4.211,11.963-6.237C301.347,772.5,309.969,771.008,315.9,766.662Zm-13.813,19.87c6.319-.59,12.217-3.121,18.463-4.092a67.323,67.323,0,0,0,3.582,7.33c-9.624,3.844-18.367,6.229-28.888,3.887A123.561,123.561,0,0,1,281.05,789.4C287.994,787.191,294.649,787.226,302.087,786.532Zm26.349,15.091q6.017-3.393,11.539-7.193c-2.432,2.659-4.8,5.364-7.075,8.13Zm24.317-11.213c-.794,3.873-1.566,7.822-2.353,11.807a144.736,144.736,0,0,0-3.982,15.522c-.026.134-.044.271-.07.4a83.464,83.464,0,0,1-6.982-13.133c-.023-.054-.062-.074-.086-.125Q345.612,797.365,352.753,790.41ZM344.1,780.7c-11.633-32.25-15.4-67.509,3.791-97.4,1.429,1.667,2.827,3.36,4.294,5a4.353,4.353,0,0,0,1.395,2.156c.37.322.757.622,1.128.943a10.7,10.7,0,0,0-6.085,5.672,9.112,9.112,0,0,0,.751,9.042c-3.546.822-6.229,3.1-6.639,8.273-.4,5.072,2.136,8.486,5.791,10.616a14.568,14.568,0,0,0-2.431,1.055c-3.584,2.023-6.179,6.011-5.519,10.224.957,6.107,7.012,8.235,13.321,8.6-5.388,5.17-9.348,11.665-3.9,17.407,3.166,3.34,7.407,3.7,11.594,2.482-2.24,2.456-4.536,4.853-6.939,7.134A120.052,120.052,0,0,1,344.1,780.7Zm18.735-52.319a72.623,72.623,0,0,0,1.07,8.822c-.095.052-.185.05-.281.113-.3.2-.632.424-.963.649-4.935.774-16.733,1.57-15.646-3.786C348.012,729.28,358.759,729.71,362.837,728.382ZM349.1,715.315c-.106-5.946,9.7-2.851,13.881-1.9a67.3,67.3,0,0,0-.4,8.122,2.882,2.882,0,0,0-.566-.079C357.7,721.736,349.211,721.456,349.1,715.315Zm14.522-8.647c-3.489-.448-11.355-2.067-9.121-7.316.757-1.779,3.872-2.926,6.26-2.9,2.187,1.789,4.408,3.532,6.646,5.255a13.143,13.143,0,0,0-3.047,5.22A2.886,2.886,0,0,0,363.623,706.668Zm-8.794,50.3c-2.193-4.286,5.721-9.985,10.191-12.971.186-.04.377-.079.554-.12a53.093,53.093,0,0,0,3.538,8.465C365.661,756.3,357.5,762.188,354.829,756.968Zm16.851-50.451a2.881,2.881,0,0,0,.946-.817c1.162.855,2.356,1.662,3.531,2.5-4.66,9.694-.346,23.17,4,32.478q-2.775,4.134-5.7,8.153a49.766,49.766,0,0,1-5.227-19.82C368.867,723.84,367.8,711.3,371.68,706.517ZM270.371,599.383h19.612q-.382,7.35-.451,14.713a70.632,70.632,0,0,1-2.571,14.074c-3.227,10.62-20.673,15.087-25.216,2.1-.1-.286-.147-.58-.23-.869-.007-.052-.012-.108-.019-.159-.013-.09-.063-.14-.082-.224-1.615-6.164.432-12.771,2.931-18.391A79.439,79.439,0,0,1,270.371,599.383Zm-15.02,31.444c0,.01,0,.018,0,.028,1.572,10.7-1.895,34.745-18.091,31.219-9.77-2.126-11.478-15.23-10.883-22.869a56.905,56.905,0,0,1,3.009-14.168,63.767,63.767,0,0,1,15.965-25.654h16.724C255.946,609.246,252.8,621.136,255.351,630.827Zm-18.945-31.444c-.468.551-.962,1.067-1.409,1.646-9.423,12.22-18.483,32.775-15.027,49.056a2.667,2.667,0,0,0-.309,1.635c1.627,13.576-21.853,50.873-33.568,20.675-2.621-6.757,1.48-19.571,3.365-26.139,5.876-20.472,20.309-36.926,38.529-46.873Zm-57.545,62.054c-.051.1-.126.141-.17.247-3.586,8.446-12.261,25.717-24.033,20.017-16.753-8.111,1.262-33.8,7.749-40.915,11.966-13.121,27.229-25.335,43.757-32.763C190.762,622.269,179.631,641.281,178.861,661.437Zm-35.84-6.451a39.887,39.887,0,0,0-.718,4.051c-.177,1.453-.306,3.251-.5,5.152-.034.3-.069.6-.094.9-.786,6.963-2.715,14.9-11.5,13.211-4.455-.859-6.288-4.892-4.675-8.585.867-1.983,3.508-3.851,5.125-5.3A105.823,105.823,0,0,1,143.021,654.986Zm132.152,19.7c2.314,2.912,6.01,7.538,5.665,8.877.089-.344-7.287,2.038-8.5,2.6a72.72,72.72,0,0,0-15.372,10.3c.045-1.546.068-3.093.08-4.639A159.907,159.907,0,0,1,275.173,674.686Zm-19.259,40.971q8.226,4.476,16.433,8.984a87.365,87.365,0,0,0-17.621,12.187C254.931,729.777,255.416,722.72,255.914,715.657Zm-75.73-6.424c.067-.1.119-.2.175-.3,3.219-.132,6.439-.321,9.658-.6l28.507,28.507q-1.9,4.909-3.62,9.882Q196.733,728.72,180.184,709.233Zm32.479,44.236q-1.22,3.807-2.362,7.639l-40.723-40a76.428,76.428,0,0,1,6.134-7.357Q193.289,734.455,212.663,753.469Zm-14.541-46.02c3.112-.4,6.222-.853,9.327-1.4.737-.129,1.43-.327,2.157-.471a163.022,163.022,0,0,0,15.228,16.562c-.447.937-.929,1.841-1.36,2.792-.826,1.822-1.591,3.663-2.365,5.5Zm25.889,42.131a15.5,15.5,0,0,0,3.548,1.94,49.3,49.3,0,0,0-6.1,5.721Q222.686,753.4,224.011,749.58Zm12.445-13.648q-.4,5.463-.549,10.907c-3.481-.138-7.583-1.322-9.548-3.744.458-1.221.9-2.447,1.374-3.661.221-.563.474-1.093.7-1.651A24.57,24.57,0,0,1,236.456,735.932Zm-4.813-5.6c2.024-4.367,4.229-8.547,6.564-12.592q-.671,5.871-1.214,11.794C235.234,729.727,233.43,729.973,231.643,730.335Zm-5.689,31.749c2.295-2.7,5.948-6.667,9.878-8.309.039,4.8.235,9.574.745,14.282.26,2.391.613,4.759,1.043,7.107C228.18,778.622,218.061,771.381,225.954,762.084Zm13.446,21a153,153,0,0,0,4.67,14.7,46.752,46.752,0,0,0-7.534,4.025c-3.619,1.246-7.16,1.51-9.14-1.227-1.921-2.657.645-7.062,2.183-9.705A15.807,15.807,0,0,1,239.4,783.088Zm-11.566-66.951A162.938,162.938,0,0,1,216.56,703.98a122.425,122.425,0,0,0,26.373-10.863A151.881,151.881,0,0,0,227.834,716.137ZM138.663,789c2.3-5.847,4.58-12.061,6.948-18.418q8.988,9.417,18.6,18.186C155.461,789.02,146.72,788.867,138.663,789Zm34.405-.657c-.011-.01-.012-.021-.023-.031Q160,776.736,148.082,764.026c.961-2.516,1.935-5.035,2.945-7.547q16.473,15.858,34.061,30.448C181.182,787.588,177.16,788.05,173.068,788.342ZM203.8,781.15a56.222,56.222,0,0,1-10.93,4.091Q172.7,768.654,153.93,750.509a2.825,2.825,0,0,0-.338-.216q2.164-5.068,4.549-9.956l45.8,40.05a3.173,3.173,0,0,0,.732.419A5.291,5.291,0,0,0,203.8,781.15Zm-42.674-46.627q2.269-4.208,4.789-8.112l42.379,41.627c-.583,2.072-1.165,4.144-1.725,6.223Zm59.3,100.064-13.1-24.145c-.047-.087-.118-.123-.17-.2q.849-3.322,1.688-6.648a149.476,149.476,0,0,0,14.109,29.844C222.106,833.811,221.267,834.2,220.425,834.587Zm8.457-3.709a143.99,143.99,0,0,1-17-39.346c1.6-6.312,3.245-12.61,4.989-18.878,1.63,5.01,6.372,8.213,11.707,9.32a24.384,24.384,0,0,0-4.526,5.773c-2.357,4.158-5.681,10.917-2.758,15.421a11.524,11.524,0,0,0,7.526,5.393c-3.2,3.926-4.846,8.469-2.967,13.226a11.735,11.735,0,0,0,7.724,7.158Q231.222,829.9,228.882,830.878Zm17.922-8.359c-4.079,1.313-12.85,1.465-14.709-3.057s3.107-9.3,8.407-12.644c2.067-.812,4.088-1.778,5.99-2.739,2.088,5.179,4.323,10.3,6.585,15.392A30.107,30.107,0,0,1,246.8,822.519Zm12.946-3.351a3.093,3.093,0,0,0-.114-.5c-9.173-20.606-17.455-40.837-17.283-63.776.123-16.432,1.824-32.949,3.657-49.3q2.186-3.075,4.5-6.023c-.592,14.811-2.215,29.648-2.155,44.411a2.849,2.849,0,0,0,0,.772c.035,4.333.173,8.661.6,12.978,2.02,20.631,8.41,40.409,15.094,59.929Q261.9,818.41,259.75,819.168Zm-4-57.845q7.116,3.246,14.5,5.87a129.292,129.292,0,0,0-10.991,12.89A174,174,0,0,1,255.753,761.323Zm8.2,35.745q-1.416-4.576-2.691-9.19a3.113,3.113,0,0,0,.478-.464,121.3,121.3,0,0,1,16.512-19.248c1.84-1.747.758-4.6-1.441-5.319a173.755,173.755,0,0,1-21.648-8.7c-.038-.018-.073-.012-.11-.028-.074-1-.2-1.99-.251-2.992-.092-1.818-.1-3.637-.133-5.456A82.247,82.247,0,0,1,280.891,727.6c2.274-.959,1.961-4.474,0-5.526-8.205-4.4-16.312-8.981-24.508-13.4.076-1.188.144-2.376.212-3.563,4.924-4.283,9.963-8.605,15.7-11.776,3.919-2.167,9.348-2.6,12.861-5.06,6.113-4.288-1.5-12.808-5.067-17.45q2.232-1.677,4.528-3.29c.011.01.012.025.022.035,7.147,6.547,14.408,12.8,22.751,16.959-14.7,2.3-28.951,10.32-41.5,17.291-1.678.932-2.275,3.672-.678,5.009,10.254,8.586,21.243,16.211,33.768,19.5-12.729,4.193-24,12.159-35.946,18.748-1.652.911-2.305,3.7-.678,5.009a73.2,73.2,0,0,0,38.093,16.08c-4.032,1.819-7.939,3.884-11.8,6.045-7.5,4.2-16.134,7.949-22.469,13.783-1.895,1.745-.707,4.574,1.441,5.319,10.023,3.481,20.233,7.906,30.8,9.4a39.113,39.113,0,0,0,10.408.041q-7.134,3.134-14.386,5.921c-.622.239-1.248.468-1.871.705a3.217,3.217,0,0,0-.64-.415q-13.353-5.322-27.013-9.785A3,3,0,0,0,263.954,797.068Zm2.309,7.275q8.843,2.957,17.547,6.291-6.88,2.5-13.785,4.917Q268.113,809.97,266.263,804.343Zm8.936,38.513a280.381,280.381,0,0,0,30.668,2.658q-2.66,5.706-4.967,11.574l-.069.014a3.27,3.27,0,0,0-.4.084c-9.21,1.844-17.9,5.66-27.018,7.853A107.168,107.168,0,0,1,275.2,842.856Zm12.216,72.375a109.378,109.378,0,0,1-9.662-22.616c4.588-1.6,9.193-3.155,13.789-4.735A210.2,210.2,0,0,0,287.415,915.231Zm5.9-34.665c-5.71,2.032-11.473,3.907-17.195,5.9a104.627,104.627,0,0,1-2.364-15.023c8.33-1.838,16.272-5.142,24.528-7.264Q295.465,872.246,293.313,880.566ZM295,904.4c.622-4.489,1.407-8.929,2.324-13.326a32.052,32.052,0,0,1,3.308,6.209C298.652,899.58,296.769,901.945,295,904.4Zm10.226-12.215a40.36,40.36,0,0,0-6.092-8.962q1.344-5.346,2.97-10.587c1.643,5.777,2.989,11.674,5.355,17.181Q306.334,890.995,305.227,892.184Zm6.985-7.286c-2.765-7.156-4.043-14.893-6.772-22.078q1.988-5.351,4.27-10.572a160.218,160.218,0,0,0,9.184,25.666C316.678,880.29,314.439,882.607,312.212,884.9Zm11.841-12.729c-.167.2-.339.382-.507.577a152.082,152.082,0,0,1-9.462-29.731q3.371-6.687,7.248-13.111a121.348,121.348,0,0,0,14.2,24.175A81.462,81.462,0,0,1,324.053,872.169Zm14.406-24.76a111.029,111.029,0,0,1-13.033-23.862c-.007-.019-.022-.028-.029-.046q4.448-6.751,9.473-13.156a86.682,86.682,0,0,0,9.963,16.529c-.115.674-.238,1.345-.35,2.02A162.033,162.033,0,0,1,338.459,847.409Zm4.476,99.432c3.03-37.371,4.323-75.833,10.286-112.914,2.525-9.5,4.479-19.314,6.355-28.965,9.147-28.941,26.654-54.342,43.085-79.874,2.578,1.455,5.189,2.847,7.808,4.226-17.848,26.815-36.89,48.947-44.122,81.33-.79,3.539-1.479,7.088-2.178,10.636a154.381,154.381,0,0,0-5.342,31.731c-3.685,25.609-6.348,51.337-10.688,76.948a3.223,3.223,0,0,0,4.666,3.587c32.85-15.642,72.349-44.181,87.951-77.985,15.033-32.573,10.176-71.142,23.963-104.048,2.937.882,5.874,1.762,8.836,2.555-4.489,10.29-7.237,21.112-9.359,32.119a190.576,190.576,0,0,0-3.7,21.435c-2.762,16.643-5.881,33.16-13.332,48.321C426.562,897.862,385.639,929.269,342.935,946.841Zm125.311-69.059c.346.979.645,1.959,1.013,2.936.7,1.872,1.465,3.715,2.218,5.563H438.968c1.919-2.483,3.8-5,5.607-7.584.429-.612.78-1.242,1.192-1.858A163.046,163.046,0,0,0,468.246,877.782Zm-18.693-6.991a122.459,122.459,0,0,0,10.967-26.33,151.8,151.8,0,0,0,5.6,26.954A162.968,162.968,0,0,1,449.553,870.791Zm20.732-62.16c3.695.422,9.579,1.08,10.282,2.271-.18-.306-3.711,6.594-4.166,7.849a72.718,72.718,0,0,0-3.585,18.154q-1.593-1.687-3.224-3.337A159.98,159.98,0,0,1,470.285,808.631Zm-42.868,91.3c2.2-2.384,4.353-4.808,6.442-7.3h40.315q2.127,4.818,4.428,9.547-25.621.121-51.144-1.961C427.439,900.129,427.442,900.021,427.417,899.934Zm63.256,4.979c-1.219-2.365-2.374-4.765-3.536-7.162a15.522,15.522,0,0,0,3.81-1.122A49.368,49.368,0,0,0,490.673,904.913ZM484.2,891.52c-.543-1.195-1.153-2.355-1.678-3.56-.242-.555-.437-1.109-.672-1.663a24.552,24.552,0,0,1,4.364-6.981q3.579,4.146,7.324,8.1C491,889.765,487.292,891.811,484.2,891.52Zm-5.347-12.759c-1.657-4.519-3.053-9.034-4.263-13.545q3.678,4.625,7.481,9.2C480.964,875.792,479.862,877.241,478.854,878.761Zm-51.277,27.821q27.069,2.214,54.214,1.958,1.83,3.553,3.732,7.072l-57.082.51A76.392,76.392,0,0,1,427.577,906.582Zm2.023,15.883,59.4-.531c1.053,1.876,2.107,3.753,3.182,5.619l-60.233,4.035Q430.581,927.007,429.6,922.465Zm24.989,63.524c-2.509-5.759-5.29-11.766-8.111-17.936q13.014.3,26.012-.293C466.482,974.126,460.193,980.2,454.589,985.989ZM478.452,961.2c-.015,0-.023-.006-.037,0q-17.409,1.036-34.824.48c-1.1-2.452-2.186-4.914-3.245-7.4q22.833-.433,45.558-2.511C483.622,954.97,481.12,958.118,478.452,961.2ZM495.1,934.383a56.213,56.213,0,0,1-4.845,10.638q-25.987,2.535-52.082,2.957a2.8,2.8,0,0,0-.392.086q-2.054-5.115-3.823-10.257l60.705-4.066a3.172,3.172,0,0,0,.814-.221A5.262,5.262,0,0,0,495.1,934.383Zm3.295-42.009c3.422,3.366,6.937,6.6,10.627,9.571,1.874,1.508,3.8,2.932,5.762,4.289-4.23,9.12-16.5,11.154-17.5-1C496.993,901.7,496.772,896.314,498.39,892.374Zm46.249,68.036L518.3,952.6a2.634,2.634,0,0,0-.277-.024q-1.75-2.952-3.508-5.9a149.534,149.534,0,0,0,31.094,11.133C545.279,958.674,544.962,959.543,544.639,960.41Zm3.358-8.6a144.018,144.018,0,0,1-39.82-15.788q-4.994-8.387-9.809-16.869c4.688,2.366,10.289,1.274,14.833-1.708a24.371,24.371,0,0,0,.882,7.282c1.273,4.607,3.7,11.737,8.954,12.855a11.53,11.53,0,0,0,9.135-1.509c.512,5.041,2.562,9.415,7.255,11.451a11.736,11.736,0,0,0,10.523-.4Q548.957,949.458,548,951.808Zm-26.356-41.23a152.946,152.946,0,0,0,13.7,7.1,46.974,46.974,0,0,0-2.481,8.172c-1.678,3.441-4,6.132-7.33,5.6-3.238-.52-4.538-5.45-5.32-8.406A15.814,15.814,0,0,1,521.641,910.578Zm33.117,22.646c-1.956,3.814-8.05,10.122-12.562,8.239s-4.379-8.772-3-14.884c.886-2.036,1.634-4.149,2.3-6.174,5.139,2.187,10.342,4.229,15.54,6.229A30.091,30.091,0,0,1,554.758,933.224Zm6.785-11.523a3.112,3.112,0,0,0-.437-.276c-21.057-8.085-41.219-16.533-57.318-32.876-11.532-11.706-22.009-24.588-32.274-37.446-.419-2.48-.786-4.96-1.079-7.439,10.053,10.892,19.4,22.53,29.879,32.927a2.827,2.827,0,0,0,.55.543c3.089,3.039,6.247,6,9.6,8.755,16.017,13.161,34.52,22.626,53.049,31.7Q562.526,919.647,561.543,921.7ZM485.638,851.22c6.018-1.777,12.043-3.529,18.064-5.3a87.2,87.2,0,0,0-3.911,21.13C494.942,861.916,490.286,856.575,485.638,851.22Zm32.176,32.4q7.329-2.736,14.4-6.1a129.157,129.157,0,0,0,1.344,16.886A173.965,173.965,0,0,1,517.814,883.624Zm48.437,28.254q-5.3-2.6-10.586-5.265,8.344-4.161,16.856-7.959Q569.425,905.289,566.251,911.878Zm10.163-21.722a3.226,3.226,0,0,0-.746.16q-13.206,5.679-26.021,12.182a2.988,2.988,0,0,0-.758.6q-4.236-2.236-8.4-4.6a3.146,3.146,0,0,0,.01-.667,121.224,121.224,0,0,1-1.935-25.285c.066-2.537-2.714-3.786-4.78-2.743a173.758,173.758,0,0,1-21.457,9.159c-.04.014-.06.043-.1.058-.759-.654-1.548-1.266-2.293-1.939-1.35-1.22-2.645-2.5-3.951-3.763A82.223,82.223,0,0,1,511.741,842c.929-2.286-1.778-4.551-3.908-3.908-8.914,2.689-17.885,5.184-26.8,7.855-.785-.893-1.578-1.781-2.37-2.669.454-6.51.961-13.128,2.775-19.427,1.238-4.3,4.774-8.446,5.515-12.672,1.291-7.354-10.12-7.992-15.921-8.756q.391-2.764.875-5.528c.015,0,.026.01.041.009,9.682-.424,19.235-1.141,28.078-4.1-8.766,12.016-13.173,27.769-17.117,41.57-.527,1.846.988,4.205,3.064,4.021,13.321-1.179,26.483-3.558,37.666-10.088-6.035,11.966-8.375,25.571-12.161,38.675-.524,1.812.987,4.246,3.063,4.021a73.2,73.2,0,0,0,38.306-15.566c-1.565,4.137-2.868,8.36-4.07,12.619-2.332,8.267-5.787,17.03-6.141,25.633-.106,2.574,2.734,3.734,4.78,2.743,9.548-4.626,19.9-8.716,28.423-15.132a39.03,39.03,0,0,0,7.388-7.33q-2.827,7.261-5.985,14.359C576.967,888.944,576.687,889.549,576.414,890.156Zm2.639,19.142a5.1,5.1,0,0,0-.56-.963q2.837-5.984,5.575-12.013a159.741,159.741,0,0,0,22.516-8.8c1.142,4.583,2.464,9.111,3.922,13.6A258.446,258.446,0,0,1,585.8,922.2,116.365,116.365,0,0,1,579.053,909.3Zm55.632,29.846q-2.829-4.731-5.386-9.586c5.248,2.922,10.368,6.142,15.936,8.362q.038,1.632.1,3.254A40.292,40.292,0,0,0,634.685,939.144Zm11,8.884c.224,3.024.564,6.028,1.049,9.014q-4.1-5.421-7.779-11.066A32.021,32.021,0,0,1,645.687,948.028Zm-20.97-27.769q-2.379-5.189-4.456-10.494A160.293,160.293,0,0,0,644.9,921.419c.114,3.247.17,6.469.214,9.664C638.1,927.979,631.727,923.411,624.717,920.259Zm-7.892-20.116q-2.346-7.111-4.146-14.4a121.325,121.325,0,0,0,27.138,7.052,81.522,81.522,0,0,1,4.673,20.91c.02.256.03.51.049.766A152.039,152.039,0,0,1,616.825,900.143Zm-5.746-21.786c-.018-.008-.034,0-.053-.012q-1.627-7.92-2.6-16a86.76,86.76,0,0,0,18.733,4.643c.395.558.783,1.12,1.18,1.676a162.049,162.049,0,0,1,8.834,17.352A111.047,111.047,0,0,1,611.079,878.357Zm-3.25-22.965c-.054-.021-.1-.008-.15-.027q-.838-9.795-.707-19.762c2.177,3.3,4.422,6.638,6.684,10.011a144.712,144.712,0,0,0,8.16,13.793c.077.113.16.222.237.335A83.366,83.366,0,0,1,607.829,855.392Zm-18.613,72.134a279.977,279.977,0,0,0,23.566-19.806q2.154,5.916,4.672,11.7l-.039.059a3.043,3.043,0,0,0-.223.342c-5.209,7.818-8.655,16.659-13.552,24.658A107.156,107.156,0,0,1,589.216,927.526Zm19.2,21.24c4.591-7.191,7.87-15.143,12.207-22.481q3.709,7.693,8.071,15.1c-2.6,5.474-5.35,10.876-7.983,16.333A104.5,104.5,0,0,1,608.412,948.766Zm17.8,12.14c2.111-4.377,4.269-8.732,6.4-13.1a210.309,210.309,0,0,0,16.421,22.259A109.439,109.439,0,0,1,626.208,960.906Zm84.434-7.748c-24.245-28.524-50.485-56.591-72.469-86.973-4.959-8.562-10.569-16.943-16.1-25.145-13.986-26.926-19.566-57.255-26-86.918,2.852-.793,5.681-1.655,8.509-2.532,6.341,31.582,8.526,60.7,26.31,88.707,1.925,3.033,3.929,6,5.924,8.976a154.207,154.207,0,0,0,18.931,26.59c15.438,20.612,31.667,40.6,46.638,61.678a3.224,3.224,0,0,0,5.837-.763c12.167-34.289,19.917-82.4,7.046-117.334-12.4-33.663-43.109-57.5-56.629-90.518,2.7-1.453,5.4-2.907,8.056-4.441,4.1,10.452,9.813,20.049,16.1,29.335a190.614,190.614,0,0,0,12.539,17.767c9.814,13.721,19.288,27.605,24.74,43.6C735.142,859.391,728.413,910.537,710.642,953.158Zm10.751-155.539a151.886,151.886,0,0,0,23.02,15.1,162.924,162.924,0,0,1-12.156,11.274A122.457,122.457,0,0,0,721.393,797.619ZM734.328,833.1c-.13-.736-.328-1.429-.472-2.156a163.265,163.265,0,0,0,16.563-15.229c.936.447,1.84.929,2.792,1.361,1.821.826,3.663,1.59,5.5,2.364L735.725,842.43C735.326,839.318,734.873,836.208,734.328,833.1Zm2.882,27.09c-.133-3.219-.322-6.439-.605-9.658l28.507-28.507q4.911,1.9,9.883,3.62-18,18.171-37.485,34.72C737.411,860.3,737.31,860.249,737.21,860.193Zm4.816,4.647q20.706-17.576,39.719-36.951,3.807,1.22,7.639,2.362-20,20.363-40,40.724A76.339,76.339,0,0,1,742.026,864.84Zm12.661,9.8,41.627-42.378c2.073.582,4.144,1.164,6.224,1.724Q782.669,856.708,762.8,879.43,758.593,877.159,754.687,874.64Zm23.882,12.321q-5.067-2.166-9.956-4.55l40.05-45.8a3.131,3.131,0,0,0,.419-.731,5.316,5.316,0,0,0,.344.875,56.246,56.246,0,0,1,4.091,10.93q-16.587,20.174-34.732,38.938A3.1,3.1,0,0,0,778.569,886.961Zm6.186,2.564q15.859-16.471,30.448-34.061c.662,3.906,1.123,7.929,1.415,12.021-.009.01-.021.011-.03.022Q805.011,880.55,792.3,892.47C789.786,891.509,787.267,890.536,784.755,889.525Zm14.1,5.417q9.416-8.99,18.185-18.6c.253,8.75.1,17.492.232,25.548C811.429,899.591,805.215,897.31,798.858,894.942Zm64.005-74.814-24.144,13.1c-.087.047-.124.118-.2.17q-3.324-.849-6.649-1.687a149.517,149.517,0,0,0,29.845-14.11C862.088,818.447,862.479,819.286,862.863,820.128Zm-5.641-13.153q.95,2.355,1.933,4.695a144.023,144.023,0,0,1-39.346,17c-6.312-1.6-12.61-3.246-18.878-4.99,5.009-1.63,8.212-6.372,9.32-11.706a24.34,24.34,0,0,0,5.773,4.525c4.157,2.358,10.917,5.681,15.421,2.758a11.524,11.524,0,0,0,5.393-7.526c3.926,3.2,8.468,4.846,13.226,2.967A11.735,11.735,0,0,0,857.222,806.975ZM864.954,764a116.227,116.227,0,0,1-13.9-4.353,5.051,5.051,0,0,0-1.077-.284q-2.226-6.238-4.553-12.438a159.8,159.8,0,0,0,9.7-22.141c4.047,2.434,8.184,4.7,12.385,6.84A258.113,258.113,0,0,1,864.954,764Zm6.178,1.35a279.9,279.9,0,0,0,2.658-30.669q5.706,2.661,11.575,4.968c0,.023.01.046.014.069a2.952,2.952,0,0,0,.084.4c1.844,9.211,5.66,17.9,7.853,27.019A107.178,107.178,0,0,1,871.132,765.354Zm28.592,1.445c-1.838-8.331-5.143-16.273-7.264-24.528q8.061,2.817,16.383,4.969c2.031,5.709,3.906,11.473,5.9,17.194A104.629,104.629,0,0,1,899.724,766.8Zm21.167-4c-1.6-4.587-3.155-9.192-4.734-13.789a210.147,210.147,0,0,0,27.351,4.128A109.413,109.413,0,0,1,920.891,762.8Zm11.784-17.247c-4.489-.623-8.928-1.408-13.325-2.325a32.1,32.1,0,0,1,6.209-3.307Q929,742.89,932.675,745.552ZM920.46,735.326a40.345,40.345,0,0,0-8.962,6.091q-5.345-1.344-10.586-2.97c5.777-1.643,11.673-2.989,17.181-5.355Q919.272,734.22,920.46,735.326Zm-7.286-6.986c-7.155,2.766-14.893,4.043-22.078,6.772q-5.351-1.987-10.571-4.27a160.335,160.335,0,0,0,25.665-9.183C908.567,723.874,910.884,726.113,913.174,728.34ZM900.446,716.5c.195.167.382.339.576.507a152.131,152.131,0,0,1-29.731,9.463q-6.687-3.371-13.111-7.248a121.34,121.34,0,0,0,24.176-14.2A81.544,81.544,0,0,1,900.446,716.5Zm74.671-18.882c-37.372-3.03-75.834-4.323-112.916-10.286-9.5-2.525-19.311-4.478-28.96-6.354-28.942-9.147-54.344-26.654-79.877-43.086,1.456-2.577,2.847-5.189,4.227-7.808,26.815,17.849,48.946,36.89,81.329,44.122,3.539.79,7.089,1.48,10.637,2.178a154.248,154.248,0,0,0,31.73,5.342c25.609,3.685,51.337,6.349,76.948,10.689a3.225,3.225,0,0,0,3.588-4.667c-15.642-32.85-44.181-72.348-77.986-87.95-.316-.146-.639-.272-.956-.414H895.04C931.541,621.3,959.1,658.686,975.117,697.617ZM920.91,599.383h8.5c-.257,4.572-.543,9.142-.918,13.711-.091.02-.2.017-.286.042-2.383-2.2-4.808-4.354-7.3-6.443Zm-9.331,0h2.978v2.2C913.582,600.831,912.567,600.122,911.579,599.383Zm23.279,13.592c.371-4.529.656-9.061.913-13.592h8.513l.114,12.728A76.375,76.375,0,0,1,934.858,612.975Zm15.883-2.023q-.051-5.784-.1-11.569h8.608l.618,9.22Q955.283,609.971,950.741,610.952Zm15.342-4.352-.483-7.217h10.576c.026,1,.062,2,.078,3a2.867,2.867,0,0,0,.086.392Q971.225,604.829,966.083,606.6Zm16.467-6.393c0-.275-.016-.55-.023-.824h1.9C983.8,599.655,983.181,599.938,982.55,600.207Z" transform="translate(-10.337 -6.138)" fill="#231f20"/>
  </g>
</svg>
