<?xml version="1.0" encoding="utf-8"?>
<!-- Generator: Adobe Illustrator 24.0.0, SVG Export Plug-In . SVG Version: 6.00 Build 0)  -->
<svg version="1.1" xmlns="http://www.w3.org/2000/svg" xmlns:xlink="http://www.w3.org/1999/xlink" x="0px" y="0px"
	 viewBox="0 0 256 256" enable-background="new 0 0 256 256" xml:space="preserve">
<g id="Layer_1">
</g>
<g id="Layer_2">
</g>
<g id="Layer_3">
</g>
<g id="Layer_4">
</g>
<g id="Layer_5">
</g>
<g id="Layer_6">
</g>
<g id="Layer_7">
</g>
<g id="Layer_8">
</g>
<g id="Layer_9">
</g>
<g id="Layer_10">
</g>
<g id="Layer_11">
</g>
<g id="Layer_12">
</g>
<g id="Layer_13">
</g>
<g id="Layer_14">
</g>
<g id="Layer_15">
</g>
<g id="Layer_16">
</g>
<g id="Layer_17">
</g>
<g id="Layer_18">
</g>
<g id="Layer_19">
</g>
<g id="Layer_20">
</g>
<g id="Layer_21">
</g>
<g id="Layer_22">
</g>
<g id="Layer_23">
	<g>
		<g>
			<g>
				<circle fill="#F5C84C" cx="128" cy="106.786" r="29.557"/>
			</g>
		</g>
		<g>
			<g>
				
					<ellipse transform="matrix(0.7071 -0.7071 0.7071 0.7071 22.6033 136.6831)" fill="#FC657E" cx="176.293" cy="41.057" rx="29.557" ry="29.557"/>
			</g>
		</g>
		<g>
			<g>
				
					<ellipse transform="matrix(0.9732 -0.2298 0.2298 0.9732 -7.3007 19.4113)" fill="#5290DB" cx="79.707" cy="41.057" rx="29.557" ry="29.557"/>
			</g>
		</g>
		<g>
			<g>
				<path fill="#70D6F9" d="M137.41,118.468h-18.82c-5.6,0-10.338,3.686-11.923,8.764c5.38,5.612,12.946,9.112,21.333,9.112
					c8.388,0,15.954-3.5,21.333-9.112C147.749,122.154,143.01,118.468,137.41,118.468z"/>
			</g>
		</g>
		<g>
			<g>
				<path fill="#70D6F9" d="M185.703,52.739h-18.82c-5.6,0-10.338,3.686-11.923,8.764c5.38,5.612,12.946,9.112,21.333,9.112
					s15.954-3.5,21.333-9.112C196.041,56.425,191.303,52.739,185.703,52.739z"/>
			</g>
		</g>
		<g>
			<g>
				<path fill="#70D6F9" d="M89.117,52.739h-18.82c-5.6,0-10.338,3.686-11.923,8.764c5.38,5.612,12.946,9.112,21.333,9.112
					c8.388,0,15.954-3.5,21.333-9.112C99.456,56.425,94.717,52.739,89.117,52.739z"/>
			</g>
		</g>
		<g>
			<g>
				<path fill="#F9D0B4" d="M237.453,87.67c-4.138-1.622-8.812,0.375-10.5,4.487l-13.367,32.567l-0.013,0.018
					c0.583-2.438,0.355-4.708-1.255-6.477c-6.942-7.629-15.737,2.91-23.712,10.168c-4.942,4.497-15.169,8.936-22.234,11.663
					c-5.1,1.968-9.65,5.133-13.287,9.214c-6.967,7.817-10.816,17.923-10.816,28.394v13.917h35.802
					c0-13.841,10.331-20.123,10.331-20.123l20.299-10.621c11.523-6.029,20.205-16.355,24.167-28.741l9.467-34.749
					C243.428,93.377,241.323,89.188,237.453,87.67z"/>
			</g>
		</g>
		<g>
			<g>
				<path fill="#F9D0B4" d="M102.915,149.31c-3.637-4.081-8.187-7.246-13.287-9.214c-7.065-2.727-17.292-7.166-22.234-11.663
					c-7.976-7.258-16.77-17.796-23.712-10.168c-1.61,1.769-1.838,4.038-1.255,6.477l-0.013-0.018L29.047,92.158
					c-1.688-4.112-6.362-6.109-10.5-4.487c-3.87,1.517-5.975,5.706-4.882,9.717l9.467,34.749
					c3.961,12.386,12.644,22.713,24.167,28.741l20.299,10.621c0,0,10.331,6.281,10.331,20.123h35.802v-13.917
					C113.731,167.233,109.882,157.127,102.915,149.31z"/>
			</g>
		</g>
		<g>
			<g>
				<path fill="#70D6F9" d="M80.8,95.85c-4.5-0.8-8-4.3-8.9-8.7c0-0.2-0.4-0.2-0.4,0c-0.9,4.4-4.4,7.9-8.9,8.7c-0.2,0-0.2,0.3,0,0.4
					c4.5,0.8,8,4.3,8.9,8.7c0,0.2,0.4,0.2,0.4,0c0.9-4.4,4.4-7.9,8.9-8.7C81,96.15,81,95.85,80.8,95.85z"/>
			</g>
		</g>
		<g>
			<g>
				<path fill="#F5C84C" d="M149.61,6.21c-3.158-0.561-5.613-3.017-6.245-6.104c0-0.14-0.281-0.14-0.281,0
					c-0.631,3.087-3.087,5.543-6.245,6.104c-0.14,0-0.14,0.211,0,0.281c3.158,0.561,5.613,3.017,6.245,6.104
					c0,0.14,0.281,0.14,0.281,0c0.631-3.087,3.087-5.543,6.245-6.104C149.75,6.42,149.75,6.21,149.61,6.21z"/>
			</g>
		</g>
		<g>
			<g>
				<path fill="#87D147" d="M46.7,199.1h-2.3v-2.3c0-1.7-1.4-3.2-3.2-3.2S38,195,38,196.8v2.3h-2.3c-1.7,0-3.2,1.4-3.2,3.2
					s1.4,3.2,3.2,3.2H38v2.3c0,1.7,1.4,3.2,3.2,3.2s3.2-1.4,3.2-3.2v-2.3h2.3c1.7,0,3.2-1.4,3.2-3.2S48.5,199.1,46.7,199.1z"/>
			</g>
		</g>
		<g>
			<g>
				<path fill="#F5C84C" d="M49.8,226c-1.878,0-3.4,1.522-3.4,3.4c0,1.878,1.522,3.4,3.4,3.4c1.878,0,3.4-1.522,3.4-3.4
					C53.2,227.522,51.678,226,49.8,226z"/>
			</g>
		</g>
		<g>
			<g>
				<path fill="#FC657E" d="M175.8,107c-1.878,0-3.4,1.522-3.4,3.4c0,1.878,1.522,3.4,3.4,3.4c1.878,0,3.4-1.522,3.4-3.4
					C179.2,108.522,177.678,107,175.8,107z"/>
			</g>
		</g>
		<g>
			<g>
				<g>
					<path d="M128,74.729c-17.677,0-32.058,14.381-32.058,32.058s14.381,32.058,32.058,32.058s32.058-14.381,32.058-32.058
						S145.677,74.729,128,74.729z M128,133.844c-14.919,0-27.058-12.138-27.058-27.058S113.081,79.729,128,79.729
						c14.92,0,27.058,12.138,27.058,27.058S142.92,133.844,128,133.844z"/>
				</g>
			</g>
		</g>
		<g>
			<g>
				<circle fill="#F9D0B4" cx="127.523" cy="99.636" r="10.457"/>
			</g>
		</g>
		<g>
			<g>
				<path d="M151.512,125.869c-2.136-5.922-7.803-9.901-14.102-9.901h-18.82c-6.383,0-12.076,4.051-14.165,10.08
					c-0.452,1.304,0.239,2.729,1.544,3.181c0.271,0.094,0.547,0.138,0.818,0.138c1.036,0,2.004-0.648,2.362-1.682
					c1.392-4.017,5.186-6.716,9.44-6.716h18.82c4.198,0,7.975,2.651,9.398,6.597c0.468,1.299,1.899,1.972,3.2,1.503
					C151.308,128.601,151.98,127.168,151.512,125.869z"/>
			</g>
		</g>
		<g>
			<g>
				<g>
					<path d="M127.522,86.679c-7.145,0-12.957,5.813-12.957,12.957s5.813,12.957,12.957,12.957s12.957-5.813,12.957-12.957
						S134.667,86.679,127.522,86.679z M127.522,107.593c-4.388,0-7.957-3.569-7.957-7.957s3.569-7.957,7.957-7.957
						s7.957,3.569,7.957,7.957S131.91,107.593,127.522,107.593z"/>
				</g>
			</g>
		</g>
		<g>
			<g>
				<g>
					<path d="M176.293,9c-17.677,0-32.058,14.381-32.058,32.058c0,17.676,14.381,32.057,32.058,32.057s32.058-14.381,32.058-32.057
						C208.351,23.38,193.97,9,176.293,9z M176.293,68.114c-14.92,0-27.058-12.138-27.058-27.057S161.373,14,176.293,14
						s27.058,12.138,27.058,27.058S191.213,68.114,176.293,68.114z"/>
				</g>
			</g>
		</g>
		<g>
			<g>
				<circle fill="#F9D0B4" cx="175.815" cy="33.907" r="10.457"/>
			</g>
		</g>
		<g>
			<g>
				<path d="M199.823,60.19c-2.124-5.952-7.799-9.951-14.12-9.951h-18.82c-6.273,0-11.934,3.958-14.084,9.85
					c-0.474,1.297,0.194,2.732,1.491,3.206c1.298,0.472,2.732-0.193,3.206-1.491c1.433-3.926,5.205-6.564,9.387-6.564h18.82
					c4.214,0,7.995,2.665,9.411,6.632c0.365,1.022,1.327,1.66,2.354,1.66c0.279,0,0.563-0.047,0.84-0.146
					C199.609,62.921,200.287,61.491,199.823,60.19z"/>
			</g>
		</g>
		<g>
			<g>
				<g>
					<path d="M175.815,20.95c-7.145,0-12.957,5.813-12.957,12.957s5.813,12.957,12.957,12.957s12.957-5.813,12.957-12.957
						S182.96,20.95,175.815,20.95z M175.815,41.864c-4.388,0-7.957-3.569-7.957-7.957s3.569-7.957,7.957-7.957
						s7.957,3.569,7.957,7.957S180.203,41.864,175.815,41.864z"/>
				</g>
			</g>
		</g>
		<g>
			<g>
				<g>
					<path d="M79.707,9C62.031,9,47.65,23.38,47.65,41.057c0,17.676,14.381,32.057,32.057,32.057
						c17.677,0,32.058-14.381,32.058-32.057C111.765,23.38,97.384,9,79.707,9z M79.707,68.114
						c-14.919,0-27.057-12.138-27.057-27.057S64.788,14,79.707,14s27.058,12.138,27.058,27.058S94.626,68.114,79.707,68.114z"/>
				</g>
			</g>
		</g>
		<g>
			<g>
				<circle fill="#F9D0B4" cx="79.23" cy="33.907" r="10.457"/>
			</g>
		</g>
		<g>
			<g>
				<path d="M103.237,60.189c-2.124-5.951-7.798-9.95-14.119-9.95H70.297c-6.226,0-11.87,3.918-14.046,9.75
					c-0.482,1.293,0.175,2.733,1.468,3.216c1.293,0.482,2.733-0.175,3.216-1.468c1.45-3.886,5.212-6.498,9.362-6.498h18.821
					c4.213,0,7.995,2.665,9.41,6.63c0.365,1.022,1.328,1.66,2.354,1.66c0.279,0,0.563-0.047,0.84-0.146
					C103.023,62.92,103.701,61.489,103.237,60.189z"/>
			</g>
		</g>
		<g>
			<g>
				<g>
					<path d="M79.23,20.95c-7.145,0-12.957,5.813-12.957,12.957s5.813,12.957,12.957,12.957c7.144,0,12.957-5.813,12.957-12.957
						S86.374,20.95,79.23,20.95z M79.23,41.864c-4.388,0-7.957-3.569-7.957-7.957s3.569-7.957,7.957-7.957
						c4.387,0,7.957,3.569,7.957,7.957S83.617,41.864,79.23,41.864z"/>
				</g>
			</g>
		</g>
		<g>
			<g>
				<path d="M238.365,85.343c-5.376-2.109-11.533,0.525-13.725,5.866l-13.367,32.566c-0.524,1.277,0.086,2.738,1.363,3.262
					c1.278,0.523,2.738-0.086,3.262-1.364l13.367-32.566c1.163-2.83,4.426-4.225,7.275-3.109c2.687,1.053,4.141,3.947,3.382,6.732
					l-9.452,34.696c-3.793,11.813-11.935,21.485-22.929,27.236l-20.299,10.621c-0.047,0.025-0.094,0.051-0.14,0.079
					c-0.456,0.277-11.173,6.958-11.523,21.536c-0.033,1.38,1.059,2.526,2.438,2.56c0.021,0,0.041,0,0.062,0
					c1.353,0,2.466-1.08,2.498-2.44c0.275-11.417,8.27-16.836,9.069-17.35l20.213-10.575c12.183-6.374,21.199-17.098,25.389-30.195
					c0.012-0.035,0.021-0.069,0.031-0.104l9.467-34.75C246.179,92.791,243.436,87.33,238.365,85.343z"/>
			</g>
		</g>
		<g>
			<g>
				<path d="M214.167,116.583c-2.006-2.205-4.336-3.37-6.924-3.462c-5.882-0.214-11.623,5.232-17.157,10.498
					c-1.064,1.013-2.12,2.018-3.162,2.966c-3.57,3.249-11.189,7.219-21.451,11.18c-5.432,2.095-10.36,5.513-14.254,9.883
					c-7.384,8.285-11.45,18.959-11.45,30.057v13.088c0,1.381,1.119,2.5,2.5,2.5s2.5-1.119,2.5-2.5v-13.088
					c0-9.869,3.616-19.363,10.183-26.731c3.368-3.779,7.629-6.734,12.321-8.544c7.658-2.956,17.868-7.462,23.017-12.146
					c1.068-0.973,2.152-2.003,3.244-3.042c4.561-4.34,9.688-9.272,13.529-9.123c0.772,0.028,1.966,0.248,3.407,1.831
					c3.966,4.358-5.998,16.017-11.445,20.98c-1.02,0.93-1.094,2.511-0.164,3.532s2.51,1.094,3.53,0.166
					c0.197-0.179,4.871-4.453,8.746-9.772C218.361,124.94,216.772,119.446,214.167,116.583z"/>
			</g>
		</g>
		<g>
			<g>
				<path fill="#DAE6F1" d="M182.855,191.621h-44.934c-0.952,0-1.724,0.772-1.724,1.724v9.082h48.381v-9.082
					C184.579,192.393,183.807,191.621,182.855,191.621z"/>
			</g>
		</g>
		<g>
			<g>
				<path fill="#70D6F9" d="M184.675,202.427h-48.574c-0.952,0-1.723,0.772-1.723,1.723v46.878c0,1.365,1.107,2.472,2.472,2.472
					h47.077c1.365,0,2.472-1.107,2.472-2.472v-46.878C186.399,203.199,185.627,202.427,184.675,202.427z"/>
			</g>
		</g>
		<g>
			<g>
				<path d="M182.855,189.122l-44.936,0c-2.328,0.001-4.223,1.896-4.223,4.224v8.252c0,1.381,1.119,2.5,2.5,2.5s2.5-1.119,2.5-2.5
					v-7.476l43.382,0v7.408c0,1.381,1.119,2.5,2.5,2.5s2.5-1.119,2.5-2.5v-8.185C187.079,191.016,185.185,189.122,182.855,189.122z"
					/>
			</g>
		</g>
		<g>
			<g>
				<g>
					<path d="M184.675,199.927h-48.574c-2.329,0-4.224,1.895-4.224,4.223v46.877c0,2.742,2.23,4.972,4.973,4.972h47.077
						c2.741,0,4.972-2.23,4.972-4.972V204.15C188.898,201.822,187.004,199.927,184.675,199.927z M136.877,251.028v-46.101h47.021
						L183.927,251L136.877,251.028z"/>
				</g>
			</g>
		</g>
		<g>
			<g>
				<path d="M68.897,169.362c-0.046-0.028-0.092-0.054-0.14-0.079l-20.3-10.621c-10.995-5.752-19.135-15.424-22.928-27.236
					L16.077,96.73c-0.759-2.785,0.695-5.679,3.382-6.732c2.849-1.119,6.113,0.278,7.275,3.109l13.366,32.566
					c0.524,1.277,1.985,1.887,3.262,1.364c1.277-0.524,1.888-1.985,1.364-3.262L31.36,91.208c-2.192-5.342-8.352-7.974-13.726-5.866
					c-5.069,1.988-7.813,7.448-6.381,12.702l9.467,34.75c0.01,0.035,0.02,0.07,0.031,0.104c4.188,13.097,13.205,23.82,25.389,30.195
					l20.211,10.574c0.837,0.539,8.708,5.902,9.066,17.162c0.043,1.353,1.153,2.421,2.497,2.421c0.027,0,0.054,0,0.081-0.001
					c1.38-0.043,2.463-1.198,2.419-2.578C79.956,176.249,69.348,169.637,68.897,169.362z"/>
			</g>
		</g>
		<g>
			<g>
				<path d="M104.781,147.646c-3.895-4.37-8.824-7.788-14.253-9.882c-10.263-3.96-17.881-7.93-21.452-11.18
					c-1.042-0.948-2.098-1.953-3.162-2.966c-5.534-5.265-11.266-10.743-17.157-10.498c-2.589,0.093-4.919,1.258-6.925,3.462
					c-8.383,9.212,9.688,26.143,11.776,28.043c1.021,0.93,2.603,0.855,3.532-0.167c0.929-1.021,0.854-2.603-0.167-3.532
					c-5.45-4.959-15.417-16.613-11.443-20.98c1.441-1.583,2.634-1.803,3.407-1.831c3.822-0.135,8.969,4.783,13.53,9.123
					c1.091,1.039,2.175,2.069,3.244,3.042c5.148,4.685,15.358,9.191,23.017,12.146c4.691,1.81,8.952,4.765,12.32,8.544
					c6.566,7.369,10.182,16.862,10.182,26.731v13.046c0,1.381,1.119,2.5,2.5,2.5s2.5-1.119,2.5-2.5v-13.046
					C116.231,166.607,112.165,155.932,104.781,147.646z"/>
			</g>
		</g>
		<g>
			<g>
				<path fill="#DAE6F1" d="M118.079,191.621H73.145c-0.952,0-1.724,0.772-1.724,1.724v9.082h48.381v-9.082
					C119.803,192.393,119.031,191.621,118.079,191.621z"/>
			</g>
		</g>
		<g>
			<g>
				<path fill="#70D6F9" d="M119.899,202.427H71.325c-0.952,0-1.724,0.772-1.724,1.724v46.878c0,1.365,1.107,2.472,2.472,2.472
					h47.077c1.365,0,2.472-1.107,2.472-2.472v-46.878C121.623,203.199,120.851,202.427,119.899,202.427z"/>
			</g>
		</g>
		<g>
			<g>
				<path d="M118.079,189.121H73.145c-2.329,0-4.224,1.895-4.224,4.224v8.185c0,1.381,1.119,2.5,2.5,2.5s2.5-1.119,2.5-2.5v-7.408
					h43.381v7.476c0,1.381,1.119,2.5,2.5,2.5s2.5-1.119,2.5-2.5v-8.252C122.303,191.016,120.408,189.121,118.079,189.121z"/>
			</g>
		</g>
		<g>
			<g>
				<g>
					<path d="M119.899,199.927H71.325c-2.329,0-4.223,1.895-4.223,4.223v46.877c0,2.742,2.23,4.972,4.972,4.972h47.078
						c2.741,0,4.972-2.23,4.972-4.972V204.15C124.123,201.822,122.228,199.927,119.899,199.927z M72.102,251.028v-46.101h47.021
						L119.151,251L72.102,251.028z"/>
				</g>
			</g>
		</g>
	</g>
</g>
<g id="Layer_24">
</g>
<g id="Layer_25">
</g>
<g id="Layer_26">
</g>
<g id="Layer_27">
</g>
<g id="Layer_28">
</g>
<g id="Layer_29">
</g>
<g id="Layer_30">
</g>
<g id="Layer_31">
</g>
<g id="Layer_32">
</g>
<g id="Layer_33">
</g>
<g id="Layer_34">
</g>
<g id="Layer_35">
</g>
<g id="Layer_36">
</g>
<g id="Layer_37">
</g>
<g id="Layer_38">
</g>
<g id="Layer_39">
</g>
<g id="Layer_40">
</g>
<g id="Layer_41">
</g>
<g id="Layer_42">
</g>
<g id="Layer_43">
</g>
<g id="Layer_44">
</g>
<g id="Layer_45">
</g>
<g id="Layer_46">
</g>
<g id="Layer_47">
</g>
<g id="Layer_48">
</g>
<g id="Layer_49">
</g>
<g id="Layer_50">
</g>
<g id="Layer_51">
</g>
<g id="Layer_52">
</g>
<g id="Layer_53">
</g>
<g id="Layer_54">
</g>
<g id="Layer_55">
</g>
<g id="Layer_56">
</g>
<g id="Layer_57">
</g>
<g id="Layer_58">
</g>
<g id="Layer_59">
</g>
<g id="Layer_60">
</g>
<g id="Layer_61">
</g>
<g id="Layer_62">
</g>
<g id="Layer_63">
</g>
<g id="Layer_64">
</g>
<g id="Layer_65">
</g>
<g id="Layer_66">
</g>
<g id="Layer_67">
</g>
<g id="Layer_68">
</g>
<g id="Layer_69">
</g>
<g id="Layer_70">
</g>
<g id="Layer_71">
</g>
<g id="Layer_72">
</g>
<g id="Layer_73">
</g>
<g id="Layer_74">
</g>
<g id="Layer_75">
</g>
<g id="Layer_76">
</g>
<g id="Layer_77">
</g>
<g id="Layer_78">
</g>
<g id="Layer_79">
</g>
<g id="Layer_80">
</g>
<g id="Layer_81">
</g>
<g id="Layer_82">
</g>
<g id="Layer_83">
</g>
<g id="Layer_84">
</g>
<g id="Layer_85">
</g>
<g id="Layer_86">
</g>
<g id="Layer_87">
</g>
<g id="Layer_88">
</g>
<g id="Layer_89">
</g>
<g id="Layer_90">
</g>
</svg>
