<svg id="Filled_stroke_cut_Ex" data-name="Filled stroke cut Ex" xmlns="http://www.w3.org/2000/svg" width="512" height="512" viewBox="0 0 512 512">
  <title>surgical robot- surgery- scalpel- operating room</title>
  <g>
    <polyline points="24 24 488 24 488 56 24 56" style="fill: #31cad0"/>
    <path d="M140,456H372a20,20,0,0,1,20,20v12a0,0,0,0,1,0,0H120a0,0,0,0,1,0,0V476A20,20,0,0,1,140,456Z" style="fill: #31cad0"/>
    <rect x="192" y="376" width="128" height="80" style="fill: #fdbf44"/>
    <path d="M156,56H356a20,20,0,0,1,20,20V88a0,0,0,0,1,0,0H136a0,0,0,0,1,0,0V76A20,20,0,0,1,156,56Z" style="fill: #fdbf44"/>
    <polygon points="201.015 198.07 198.97 215.841 183.935 221.314 170.945 209.015 160 178.945 190.07 168 201.015 198.07" style="fill: #fdbf44"/>
    <polygon points="127.713 180.785 128.785 198.641 114.928 206.641 100 196.785 88 176 115.713 160 127.713 180.785" style="fill: #fdbf44"/>
    <polygon points="272 224 264 240 248 240 240 224 240 184 272 184 272 224" style="fill: #fdbf44"/>
    <polygon points="310.985 198.07 313.03 215.841 328.065 221.314 341.055 209.015 352 178.945 321.93 168 310.985 198.07" style="fill: #fdbf44"/>
    <polygon points="384.287 180.785 383.215 198.641 397.072 206.641 412 196.785 424 176 396.287 160 384.287 180.785" style="fill: #fdbf44"/>
    <rect x="176" y="336" width="160" height="40" style="fill: #cc9a37"/>
    <rect x="224" y="24" width="64" height="64" style="fill: #249c9f"/>
    <g>
      <path d="M488,16H80V32H216V48H32V32H64V16H24a8,8,0,0,0-8,8V56a8,8,0,0,0,8,8H130.7A27.836,27.836,0,0,0,128,76V88a8.005,8.005,0,0,0,.488,2.759l-33.839,29a27.96,27.96,0,0,0-6.821,33.78L93,163.878l-9,5.194A8,8,0,0,0,81.072,180l12,20.785a8.015,8.015,0,0,0,2.52,2.676l14.929,9.856a8,8,0,0,0,8.407.252l8,13.857,13.857-8-8-13.857a8,8,0,0,0,3.986-7.407L135.7,180.305a8,8,0,0,0-1.058-3.52l-12-20.785a8,8,0,0,0-10.928-2.928l-4.837,2.792-4.737-9.475a11.982,11.982,0,0,1,2.923-14.477L146.96,96h43.646l-28.038,32.711a27.941,27.941,0,0,0-3.784,30.744l4.83,9.661-6.35,2.311a8,8,0,0,0-4.782,10.254l10.945,30.07a8,8,0,0,0,2.017,3.073l12.99,12.3a8,8,0,0,0,8.237,1.709l8.208,22.552,15.035-5.472-8.208-22.553h0a8,8,0,0,0,5.211-6.6l2.045-17.771a8,8,0,0,0-.43-3.651l-10.944-30.07a8,8,0,0,0-10.254-4.782l-8.586,3.126L173.094,152.3a11.976,11.976,0,0,1,1.622-13.176L211.68,96H248v80h-8a8,8,0,0,0-8,8v40a7.994,7.994,0,0,0,.845,3.578l8,16A8,8,0,0,0,248,248v24h16V248a8,8,0,0,0,7.155-4.422l8-16A7.994,7.994,0,0,0,280,224V184a8,8,0,0,0-8-8h-8V96h36.32l36.964,43.124a11.976,11.976,0,0,1,1.622,13.176l-5.654,11.308-8.586-3.126a8,8,0,0,0-10.254,4.782l-10.944,30.07a8,8,0,0,0-.43,3.651l2.045,17.771a8,8,0,0,0,5.211,6.6h0l-8.208,22.553,15.035,5.472,8.208-22.552a8,8,0,0,0,8.237-1.709l12.99-12.3a8,8,0,0,0,2.017-3.073l10.945-30.07a8,8,0,0,0-4.782-10.254l-6.35-2.311,4.83-9.661a27.941,27.941,0,0,0-3.784-30.744L321.394,96H365.04l41.9,35.911a11.984,11.984,0,0,1,2.923,14.478l-4.737,9.475-4.837-2.792A8,8,0,0,0,389.359,156l-12,20.785a8,8,0,0,0-1.058,3.52l-1.072,17.857a8,8,0,0,0,3.986,7.407l-8,13.857,13.857,8,8-13.857a8,8,0,0,0,8.407-.252l14.929-9.856a8.015,8.015,0,0,0,2.52-2.676l12-20.785A8,8,0,0,0,428,169.072l-9-5.194,5.167-10.334a27.96,27.96,0,0,0-6.822-33.781l-33.838-29A7.982,7.982,0,0,0,384,88V76a27.836,27.836,0,0,0-2.7-12H488a8,8,0,0,0,8-8V24A8,8,0,0,0,488,16ZM112.785,170.928l7.055,12.221.663,11.036-5.293,3.056-9.226-6.092-7.056-12.221Zm80.066,28.1-1.264,10.983-5.742,2.09-8.029-7.6-7.562-20.778,15.035-5.472ZM264,222.111,259.056,232h-6.112L248,222.111V192h16ZM334.184,204.5l-8.029,7.6-5.742-2.09-1.264-10.983,7.562-20.778,15.035,5.472Zm71.832-13.355-9.226,6.092-5.293-3.056.663-11.036,7.055-12.221,13.857,8ZM216,64V80H144V76a12.013,12.013,0,0,1,12-12Zm16,16V32h48V80Zm136-4v4H296V64h60A12.013,12.013,0,0,1,368,76ZM480,48H296V32H480Z"/>
      <rect x="248" y="48" width="16" height="16"/>
    </g>
    <path d="M224,376h64a0,0,0,0,1,0,0v18a30,30,0,0,1-30,30h-4a30,30,0,0,1-30-30V376A0,0,0,0,1,224,376Z" style="fill: #fffcf8"/>
    <path d="M468,328,256,344,44,328a20,20,0,0,1-20-20V296H488v12A20,20,0,0,1,468,328Z" style="fill: #31cad0"/>
    <rect x="56" y="288" width="88" height="128" style="fill: #fdbf44"/>
    <path d="M488,288H152a8,8,0,0,0-8-8H56a8,8,0,0,0-8,8H24a8,8,0,0,0-8,8v12a28.033,28.033,0,0,0,27.674,28l4.326.327V416a8,8,0,0,0,8,8h88a8,8,0,0,0,8-8V344.174l16,1.208V376a8,8,0,0,0,8,8h8v64H140a28.032,28.032,0,0,0-28,28v12a8,8,0,0,0,8,8H336V480H128v-4a12.013,12.013,0,0,1,12-12H372a12.013,12.013,0,0,1,12,12v4H352v16h40a8,8,0,0,0,8-8V476a28.032,28.032,0,0,0-28-28H328V384h8a8,8,0,0,0,8-8V345.381L468.326,336A28.033,28.033,0,0,0,496,308V296A8,8,0,0,0,488,288ZM44.6,320.022c-.2-.014-.4-.022-.6-.022a12.013,12.013,0,0,1-12-12v-4H48v16.279ZM64,408V296h72v80H80v16h56v16Zm248,40H200V384h16v10a38.043,38.043,0,0,0,38,38h4a38.043,38.043,0,0,0,38-38V384h16Zm-80-64h48v10a22.025,22.025,0,0,1-22,22h-4a22.025,22.025,0,0,1-22-22Zm96-16H184V346.589l71.4,5.389q.3.022.6.022t.6-.022l71.4-5.389Zm152-60a12.013,12.013,0,0,1-12,12q-.3,0-.6.022L256,335.977l-104-7.849V304H480Z"/>
  </g>
</svg>
