<?xml version="1.0" encoding="utf-8"?>
<!-- Generator: Adobe Illustrator 24.0.0, SVG Export Plug-In . SVG Version: 6.00 Build 0)  -->
<svg version="1.1" xmlns="http://www.w3.org/2000/svg" xmlns:xlink="http://www.w3.org/1999/xlink" x="0px" y="0px"
	 viewBox="0 0 256 256" enable-background="new 0 0 256 256" xml:space="preserve">
<g id="Layer_1">
</g>
<g id="Layer_2">
</g>
<g id="Layer_3">
</g>
<g id="Layer_4">
</g>
<g id="Layer_5">
</g>
<g id="Layer_6">
</g>
<g id="Layer_7">
</g>
<g id="Layer_8">
</g>
<g id="Layer_9">
</g>
<g id="Layer_10">
</g>
<g id="Layer_11">
</g>
<g id="Layer_12">
</g>
<g id="Layer_13">
</g>
<g id="Layer_14">
</g>
<g id="Layer_15">
</g>
<g id="Layer_16">
</g>
<g id="Layer_17">
</g>
<g id="Layer_18">
</g>
<g id="Layer_19">
</g>
<g id="Layer_20">
</g>
<g id="Layer_21">
</g>
<g id="Layer_22">
</g>
<g id="Layer_23">
</g>
<g id="Layer_24">
</g>
<g id="Layer_25">
</g>
<g id="Layer_26">
</g>
<g id="Layer_27">
</g>
<g id="Layer_28">
	<g>
		<g>
			<g>
				<path fill="#DAE6F1" d="M234.985,79.198H220.24c-0.805,0-1.489-0.566-1.663-1.352c-1.477-6.668-4.102-12.904-7.661-18.488
					c-0.433-0.679-0.349-1.563,0.221-2.132l10.429-10.429c0.665-0.665,0.665-1.744,0-2.409l-13.45-13.45
					c-0.665-0.665-1.744-0.665-2.409,0l-10.429,10.428c-0.569,0.569-1.454,0.653-2.133,0.221c-5.584-3.559-11.82-6.184-18.488-7.661
					c-0.786-0.174-1.352-0.858-1.352-1.663V17.517c0-0.941-0.763-1.703-1.703-1.703h-19.022c-0.941,0-1.703,0.763-1.703,1.703
					v14.746c0,0.805-0.566,1.489-1.352,1.663c-6.668,1.477-12.904,4.102-18.488,7.661c-0.679,0.433-1.563,0.349-2.133-0.221
					l-10.429-10.428c-0.665-0.665-1.744-0.665-2.409,0l-13.45,13.45c-0.665,0.665-0.665,1.744,0,2.409l10.429,10.429
					c0.569,0.569,0.653,1.453,0.221,2.132c-3.559,5.584-6.184,11.82-7.661,18.488c-0.174,0.786-0.858,1.352-1.663,1.352H89.195
					c-0.941,0-1.703,0.763-1.703,1.703v19.022c0,0.941,0.763,1.703,1.703,1.703h14.746c0.805,0,1.489,0.566,1.663,1.352
					c1.477,6.668,4.102,12.904,7.661,18.488c0.433,0.679,0.349,1.563-0.221,2.132l-10.429,10.429c-0.665,0.665-0.665,1.744,0,2.409
					l13.45,13.45c0.665,0.665,1.744,0.665,2.409,0l10.429-10.429c0.569-0.569,1.454-0.653,2.133-0.221
					c5.584,3.559,11.82,6.184,18.488,7.661c0.786,0.174,1.352,0.858,1.352,1.663v14.746c0,0.941,0.763,1.703,1.703,1.703h19.022
					c0.941,0,1.703-0.763,1.703-1.703v-14.746c0-0.805,0.566-1.489,1.352-1.663c6.668-1.477,12.904-4.102,18.488-7.661
					c0.679-0.433,1.563-0.349,2.133,0.221l10.429,10.429c0.665,0.665,1.744,0.665,2.409,0l13.45-13.45
					c0.665-0.665,0.665-1.744,0-2.409l-10.429-10.429c-0.569-0.569-0.653-1.453-0.221-2.132c3.559-5.584,6.184-11.82,7.661-18.488
					c0.174-0.786,0.858-1.352,1.663-1.352h14.746c0.941,0,1.703-0.763,1.703-1.703V80.902
					C236.689,79.961,235.926,79.198,234.985,79.198z"/>
			</g>
		</g>
		<g>
			<g>
				<circle fill="#70D6F9" cx="162.09" cy="90.413" r="40.306"/>
			</g>
		</g>
		<g>
			<g>
				<path fill="#87D147" d="M189.59,107.5c-13.621,0-24.88,10.088-26.728,23.199c15.297-0.288,28.502-9.093,35.08-21.876
					C195.311,107.968,192.506,107.5,189.59,107.5z"/>
			</g>
		</g>
		<g>
			<g>
				<path fill="#87D147" d="M135.59,107.5c-3.232,0-6.331,0.57-9.204,1.612c6.74,12.842,20.195,21.607,35.704,21.607
					c0.077,0,0.153-0.005,0.23-0.006C160.478,117.595,149.216,107.5,135.59,107.5z"/>
			</g>
		</g>
		<g>
			<g>
				<path fill="#F9D0B4" d="M231.591,197.337c-2.317-4.69-7.968-6.654-12.694-4.411l-37.431,17.76l-0.026,0.006
					c2.439-1.661,4.038-3.817,4.038-6.632c0-12.14-16.002-9.933-28.694-9.933c-7.864,0-20.282-4.237-28.592-7.46
					c-5.998-2.327-12.465-3.176-18.864-2.505l-17.732,1.861v44.38l6.813-0.739c8.07-0.876,16.232-0.27,24.084,1.788l26.082,6.835
					c14.805,3.88,30.543,1.769,43.802-5.875l35.766-22.748C232.272,207.037,233.758,201.723,231.591,197.337z"/>
			</g>
		</g>
		<g>
			<g>
				<path fill="#F5C84C" d="M231.8,237.85c-4.5-0.8-8-4.3-8.9-8.7c0-0.2-0.4-0.2-0.4,0c-0.9,4.4-4.4,7.9-8.9,8.7
					c-0.2,0-0.2,0.3,0,0.4c4.5,0.8,8,4.3,8.9,8.7c0,0.2,0.4,0.2,0.4,0c0.9-4.4,4.4-7.9,8.9-8.7C232,238.15,232,237.85,231.8,237.85z
					"/>
			</g>
		</g>
		<g>
			<g>
				<path fill="#87D147" d="M197.61,6.21c-3.158-0.561-5.613-3.017-6.245-6.104c0-0.14-0.281-0.14-0.281,0
					c-0.631,3.087-3.087,5.543-6.245,6.104c-0.14,0-0.14,0.21,0,0.281c3.158,0.561,5.613,3.017,6.245,6.104
					c0,0.14,0.281,0.14,0.281,0c0.631-3.087,3.087-5.543,6.245-6.104C197.75,6.42,197.75,6.21,197.61,6.21z"/>
			</g>
		</g>
		<g>
			<g>
				<path fill="#70D6F9" d="M72.7,116.1h-2.3v-2.3c0-1.7-1.4-3.2-3.2-3.2S64,112,64,113.8v2.3h-2.3c-1.7,0-3.2,1.4-3.2,3.2
					c0,1.8,1.4,3.2,3.2,3.2H64v2.3c0,1.7,1.4,3.2,3.2,3.2s3.2-1.4,3.2-3.2v-2.3h2.3c1.7,0,3.2-1.4,3.2-3.2
					C75.9,117.5,74.5,116.1,72.7,116.1z"/>
			</g>
		</g>
		<g>
			<g>
				<path fill="#FC657E" d="M198.8,249.2c-1.878,0-3.4,1.522-3.4,3.4s1.522,3.4,3.4,3.4c1.878,0,3.4-1.522,3.4-3.4
					S200.678,249.2,198.8,249.2z"/>
			</g>
		</g>
		<g>
			<g>
				<path fill="#F5C84C" d="M75.8,142c-1.878,0-3.4,1.522-3.4,3.4c0,1.878,1.522,3.4,3.4,3.4c1.878,0,3.4-1.522,3.4-3.4
					C79.2,143.522,77.678,142,75.8,142z"/>
			</g>
		</g>
		<g>
			<g>
				<path d="M233.832,196.23c-2.902-5.878-10.084-8.372-16.006-5.563l-37.432,17.759c-1.248,0.592-1.779,2.083-1.188,3.331
					c0.592,1.247,2.081,1.78,3.33,1.187l37.433-17.759c3.469-1.648,7.679-0.186,9.38,3.26c1.604,3.249,0.51,7.164-2.548,9.109
					l-35.72,22.719c-12.761,7.34-27.628,9.328-41.873,5.595l-26.082-6.835c-8.177-2.143-16.585-2.768-24.987-1.854l-6.027,0.654
					c-1.373,0.149-2.365,1.382-2.216,2.755c0.148,1.372,1.377,2.357,2.755,2.216l6.027-0.654c7.795-0.845,15.594-0.268,23.18,1.721
					l26.082,6.835c5.12,1.341,10.311,2.005,15.472,2.004c10.507,0,20.88-2.751,30.214-8.132c0.031-0.018,0.063-0.037,0.093-0.057
					l35.766-22.748C234.702,208.454,236.57,201.772,233.832,196.23z"/>
			</g>
		</g>
		<g>
			<g>
				<path d="M184.826,195.875c-4.836-4.729-14.037-4.521-22.93-4.326c-1.732,0.039-3.451,0.077-5.112,0.077
					c-5.732,0-15.565-2.589-27.688-7.292c-6.321-2.452-13.249-3.37-20.028-2.66l-16.945,1.778c-1.374,0.144-2.37,1.374-2.226,2.747
					s1.373,2.375,2.747,2.226l16.946-1.778c5.995-0.627,12.114,0.183,17.699,2.349c8.974,3.48,21.375,7.629,29.496,7.629
					c1.697,0,3.454-0.039,5.224-0.078c7.489-0.167,15.99-0.356,19.322,2.902c1.108,1.084,1.647,2.592,1.647,4.608
					c0,4.815-7.958,7.18-12.702,8.161c-7.049,1.458-14.248,1.479-14.32,1.479c-1.38,0.001-2.499,1.12-2.499,2.501
					c0.001,1.38,1.119,2.499,2.5,2.499c3.277,0,32.021-0.411,32.021-14.64C187.978,200.674,186.917,197.921,184.826,195.875z"/>
			</g>
		</g>
		<g>
			<g>
				<path fill="#DAE6F1" d="M89.582,179.018h-10.61v56.518h10.61c1.112,0,2.013-0.901,2.013-2.013v-52.491
					C91.596,179.92,90.694,179.018,89.582,179.018z"/>
			</g>
		</g>
		<g>
			<g>
				<path fill="#70D6F9" d="M76.96,176.892H22.199c-1.595,0-2.888,1.293-2.888,2.888v54.994c0,1.595,1.293,2.888,2.888,2.888H76.96
					c1.112,0,2.013-0.901,2.013-2.013v-56.743C78.973,177.794,78.072,176.892,76.96,176.892z"/>
			</g>
		</g>
		<g>
			<g>
				<g>
					<path d="M89.583,176.518h-9.64c-1.381,0-2.5,1.119-2.5,2.5s1.119,2.5,2.5,2.5h9.153v51.518h-9.074c-1.381,0-2.5,1.119-2.5,2.5
						s1.119,2.5,2.5,2.5h9.561c2.489,0,4.513-2.024,4.513-4.513v-52.491C94.096,178.543,92.071,176.518,89.583,176.518z"/>
				</g>
			</g>
		</g>
		<g>
			<g>
				<g>
					<path d="M76.959,174.392H22.199c-2.971,0-5.388,2.417-5.388,5.388v54.994c0,2.971,2.417,5.388,5.388,5.388h54.761
						c2.489,0,4.514-2.024,4.514-4.513v-56.743C81.473,176.417,79.448,174.392,76.959,174.392z M76.473,235.162H22.199
						c-0.214,0-0.388-0.174-0.388-0.388V179.78c0-0.214,0.174-0.388,0.388-0.388h54.274V235.162z"/>
				</g>
			</g>
		</g>
		<g>
			<g>
				<g>
					<path d="M234.985,76.699h-14.106c-1.494-6.436-4.023-12.538-7.523-18.157l9.977-9.977c0.794-0.793,1.231-1.849,1.231-2.972
						c0-1.123-0.438-2.179-1.231-2.972l-13.45-13.45c-0.794-0.794-1.85-1.231-2.972-1.231c-1.123,0-2.179,0.437-2.973,1.231
						l-9.977,9.976c-5.618-3.5-11.721-6.028-18.156-7.523V17.518c0-2.318-1.886-4.204-4.204-4.204h-19.021
						c-2.317,0-4.203,1.886-4.203,4.204v14.106c-6.436,1.495-12.538,4.023-18.156,7.523l-9.977-9.976
						c-1.638-1.639-4.304-1.639-5.944,0l-13.451,13.45c-0.794,0.793-1.231,1.849-1.231,2.972c0,1.123,0.437,2.178,1.231,2.972
						l9.977,9.977c-3.5,5.619-6.029,11.721-7.524,18.157H89.195c-2.317,0-4.203,1.886-4.203,4.203v19.021
						c0,2.318,1.886,4.204,4.203,4.204h14.106c1.495,6.435,4.023,12.538,7.524,18.156l-9.977,9.977
						c-0.794,0.793-1.231,1.849-1.231,2.972c0,1.123,0.437,2.179,1.231,2.972l13.451,13.451c0.793,0.794,1.849,1.231,2.972,1.231
						c1.123,0,2.179-0.438,2.972-1.231l9.977-9.977c5.619,3.5,11.721,6.029,18.156,7.524v14.106c0,2.317,1.886,4.203,4.203,4.203
						h19.021c2.318,0,4.204-1.886,4.204-4.203v-14.106c6.436-1.495,12.538-4.023,18.156-7.523l9.977,9.977
						c0.794,0.794,1.85,1.231,2.973,1.231c1.122,0,2.178-0.438,2.972-1.231l13.45-13.451c0.794-0.793,1.231-1.849,1.231-2.972
						c0-1.123-0.438-2.178-1.231-2.972l-9.977-9.977c3.5-5.619,6.029-11.721,7.523-18.156h14.106c2.317,0,4.203-1.886,4.203-4.204
						V80.902C239.188,78.584,237.303,76.699,234.985,76.699z M234.188,99.127h-13.949c-1.985,0-3.673,1.362-4.104,3.312
						c-1.394,6.29-3.859,12.24-7.329,17.685c-1.073,1.684-0.843,3.84,0.562,5.244l9.865,9.866l-12.324,12.324l-9.865-9.865
						c-1.403-1.404-3.56-1.633-5.243-0.562c-5.444,3.47-11.395,5.936-17.685,7.329c-1.95,0.432-3.312,2.119-3.312,4.104v13.949
						h-17.429v-13.949c0-1.985-1.361-3.672-3.312-4.104c-6.289-1.393-12.239-3.858-17.685-7.328
						c-1.683-1.074-3.84-0.843-5.244,0.561l-9.866,9.865l-12.324-12.324l9.865-9.865c1.404-1.403,1.635-3.56,0.562-5.244
						c-3.47-5.445-5.936-11.395-7.329-17.684c-0.432-1.95-2.119-3.312-4.104-3.312H89.992V81.699h13.949
						c1.985,0,3.672-1.362,4.104-3.312c1.393-6.29,3.858-12.239,7.329-17.685c1.073-1.684,0.842-3.84-0.562-5.244l-9.865-9.865
						l12.324-12.324l9.865,9.865c1.404,1.404,3.56,1.635,5.245,0.562c5.444-3.47,11.395-5.936,17.687-7.329
						c1.948-0.433,3.31-2.12,3.31-4.104V18.314h17.429v13.949c0,1.984,1.361,3.671,3.312,4.104c6.29,1.393,12.24,3.858,17.685,7.328
						c1.685,1.074,3.84,0.843,5.243-0.561l9.866-9.865l12.323,12.324l-9.865,9.865c-1.403,1.403-1.635,3.56-0.562,5.244
						c3.471,5.445,5.936,11.395,7.328,17.684c0.432,1.95,2.119,3.312,4.104,3.312h13.949V99.127z"/>
				</g>
			</g>
		</g>
		<g>
			<g>
				<path d="M162.09,47.607c-13.046,0-23.265,18.802-23.265,42.806c0,6.418,0.734,12.581,2.182,18.317
					c0.338,1.338,1.697,2.149,3.035,1.812c1.339-0.338,2.15-1.697,1.813-3.036c-1.347-5.336-2.029-11.087-2.029-17.094
					c0-20.493,8.364-37.806,18.265-37.806c9.901,0,18.266,17.313,18.266,37.806c0,6.137-0.752,12.242-2.174,17.653
					c-0.351,1.335,0.447,2.702,1.782,3.053c0.213,0.056,0.427,0.083,0.638,0.083c1.108,0,2.121-0.743,2.416-1.865
					c1.552-5.903,2.338-12.27,2.338-18.924C185.355,66.409,175.136,47.607,162.09,47.607z"/>
			</g>
		</g>
		<g>
			<g>
				<path d="M162.09,48.77c-1.381,0-2.5,1.119-2.5,2.5v78.286c0,1.381,1.119,2.5,2.5,2.5s2.5-1.119,2.5-2.5V51.27
					C164.59,49.889,163.471,48.77,162.09,48.77z"/>
			</g>
		</g>
		<g>
			<g>
				<path d="M201.777,87.913h-79.374c-1.381,0-2.5,1.119-2.5,2.5s1.119,2.5,2.5,2.5h79.374c1.381,0,2.5-1.119,2.5-2.5
					S203.158,87.913,201.777,87.913z"/>
			</g>
		</g>
		<g>
			<g>
				<g>
					<path d="M162.09,47.607c-23.604,0-42.806,19.203-42.806,42.806c0,23.604,19.202,42.806,42.806,42.806
						s42.807-19.203,42.807-42.806C204.896,66.81,185.693,47.607,162.09,47.607z M162.09,128.219
						c-20.846,0-37.806-16.96-37.806-37.806s16.96-37.806,37.806-37.806c20.847,0,37.807,16.959,37.807,37.806
						S182.937,128.219,162.09,128.219z"/>
				</g>
			</g>
		</g>
		<g>
			<g>
				<path d="M198.327,106.323c-2.83-0.878-5.77-1.323-8.737-1.323c-14.524,0-26.765,10.392-29.105,24.708
					c-0.224,1.362,0.701,2.648,2.063,2.871c0.137,0.022,0.272,0.033,0.406,0.033c1.203,0,2.264-0.871,2.464-2.097
					C167.362,118.628,177.527,110,189.59,110c2.465,0,4.906,0.37,7.257,1.098c1.316,0.41,2.72-0.329,3.128-1.647
					C200.384,108.132,199.646,106.731,198.327,106.323z"/>
			</g>
		</g>
		<g>
			<g>
				<path d="M164.696,129.709C162.355,115.392,150.114,105,135.59,105c-3.106,0-6.17,0.482-9.104,1.435
					c-1.313,0.426-2.033,1.836-1.607,3.149c0.426,1.313,1.838,2.034,3.149,1.607c2.437-0.79,4.98-1.19,7.563-1.19
					c12.063,0,22.229,8.628,24.173,20.516c0.2,1.226,1.261,2.097,2.464,2.097c0.134,0,0.27-0.011,0.406-0.033
					C163.995,132.357,164.92,131.072,164.696,129.709z"/>
			</g>
		</g>
	</g>
</g>
<g id="Layer_29">
</g>
<g id="Layer_30">
</g>
<g id="Layer_31">
</g>
<g id="Layer_32">
</g>
<g id="Layer_33">
</g>
<g id="Layer_34">
</g>
<g id="Layer_35">
</g>
<g id="Layer_36">
</g>
<g id="Layer_37">
</g>
<g id="Layer_38">
</g>
<g id="Layer_39">
</g>
<g id="Layer_40">
</g>
<g id="Layer_41">
</g>
<g id="Layer_42">
</g>
<g id="Layer_43">
</g>
<g id="Layer_44">
</g>
<g id="Layer_45">
</g>
<g id="Layer_46">
</g>
<g id="Layer_47">
</g>
<g id="Layer_48">
</g>
<g id="Layer_49">
</g>
<g id="Layer_50">
</g>
<g id="Layer_51">
</g>
<g id="Layer_52">
</g>
<g id="Layer_53">
</g>
<g id="Layer_54">
</g>
<g id="Layer_55">
</g>
<g id="Layer_56">
</g>
<g id="Layer_57">
</g>
<g id="Layer_58">
</g>
<g id="Layer_59">
</g>
<g id="Layer_60">
</g>
<g id="Layer_61">
</g>
<g id="Layer_62">
</g>
<g id="Layer_63">
</g>
<g id="Layer_64">
</g>
<g id="Layer_65">
</g>
<g id="Layer_66">
</g>
<g id="Layer_67">
</g>
<g id="Layer_68">
</g>
<g id="Layer_69">
</g>
<g id="Layer_70">
</g>
<g id="Layer_71">
</g>
<g id="Layer_72">
</g>
<g id="Layer_73">
</g>
<g id="Layer_74">
</g>
<g id="Layer_75">
</g>
<g id="Layer_76">
</g>
<g id="Layer_77">
</g>
<g id="Layer_78">
</g>
<g id="Layer_79">
</g>
<g id="Layer_80">
</g>
<g id="Layer_81">
</g>
<g id="Layer_82">
</g>
<g id="Layer_83">
</g>
<g id="Layer_84">
</g>
<g id="Layer_85">
</g>
<g id="Layer_86">
</g>
<g id="Layer_87">
</g>
<g id="Layer_88">
</g>
<g id="Layer_89">
</g>
<g id="Layer_90">
</g>
</svg>
