<svg xmlns="http://www.w3.org/2000/svg" width="128" height="128" viewBox="0 0 128 128">
  <title>TABLE SAW</title>
  <g>
    <g>
      <path d="M23.071,43.329v6.71H99.949c.007-.057.017-.113.024-.17l4.956-1.532V36.749l-5.484,1.7a35.976,35.976,0,0,0-2.27-7.106l3.522-3.8L94.9,17.5l-3.909,4.217A36.373,36.373,0,0,0,85.482,16.7l1.151-5.057L76.6,5.846l-1.275,5.6a35.962,35.962,0,0,0-7.286-1.586L66.5,4.905H54.916l1.7,5.483a35.912,35.912,0,0,0-7.106,2.271L45.7,9.136,35.668,14.93l4.218,3.909a36.432,36.432,0,0,0-5.023,5.512L29.807,23.2,24.013,33.236l5.6,1.275A36.041,36.041,0,0,0,28.027,41.8Z" fill="#e5e5e5"/>
      <path d="M88.792,50.039a25.149,25.149,0,1,0-49.584,0Z" fill="#57555c"/>
      <path d="M79.305,50.039a15.889,15.889,0,1,0-30.611,0Z" fill="#fedb41"/>
      <path d="M34.656,50.039H93.344a0,0,0,0,1,0,0V73.086a7,7,0,0,1-7,7H41.656a7,7,0,0,1-7-7V50.039A0,0,0,0,1,34.656,50.039Z" fill="#6ecd24"/>
      <rect x="42.656" y="58.039" width="42.687" height="14.047" fill="#52af00"/>
      <rect x="1.75" y="50.039" width="32.906" height="15.044" fill="#896748"/>
      <rect x="93.344" y="50.039" width="32.906" height="15.044" fill="#896748"/>
      <path d="M34.656,73.086V65.069l-9.845.015L10.748,123.1h9.033l18.03-44.162A6.993,6.993,0,0,1,34.656,73.086Z" fill="#5d452f"/>
      <path d="M93.344,73.086V65.069l9.845.015L117.252,123.1h-9.033L90.189,78.933A6.993,6.993,0,0,0,93.344,73.086Z" fill="#5d452f"/>
    </g>
    <g>
      <path d="M85.344,56.289H74.812a1.75,1.75,0,0,0,0,3.5h8.782V70.336H44.406V59.789H51.75a1.75,1.75,0,0,0,0-3.5H42.656a1.75,1.75,0,0,0-1.75,1.75V72.086a1.75,1.75,0,0,0,1.75,1.75H85.344a1.75,1.75,0,0,0,1.75-1.75V58.039A1.75,1.75,0,0,0,85.344,56.289Z"/>
      <path d="M61.781,59.789h3a1.75,1.75,0,0,0,0-3.5h-3a1.75,1.75,0,1,0,0,3.5Z"/>
      <path d="M126.25,48.289H106.679V36.749a1.75,1.75,0,0,0-2.267-1.672l-3.692,1.142a38.106,38.106,0,0,0-1.5-4.518l2.756-2.974a1.75,1.75,0,0,0,.232-2.065l-2.05-3.55a1.75,1.75,0,0,0-3.031,1.75l1.4,2.433-2.644,2.854a1.752,1.752,0,0,0-.321,1.892,34.146,34.146,0,0,1,2.16,6.759,1.752,1.752,0,0,0,2.231,1.316l3.217-.994v7.924L99.456,48.2a1.564,1.564,0,0,0-.229.092H90.776c.076-.823.122-1.643.122-2.456a26.9,26.9,0,0,0-53.8,0c0,.812.047,1.633.123,2.456h-12.4V44.62l3.723-1.15a1.75,1.75,0,0,0,1.223-1.479,34.281,34.281,0,0,1,1.509-6.933A1.749,1.749,0,0,0,30,32.805l-3.288-.748,3.963-6.864,3.8.865a1.754,1.754,0,0,0,1.8-.666,34.711,34.711,0,0,1,4.781-5.248,1.75,1.75,0,0,0,.024-2.588l-2.478-2.3L45.461,11.3l2.854,2.644a1.751,1.751,0,0,0,1.891.321,34.126,34.126,0,0,1,6.76-2.159,1.751,1.751,0,0,0,1.317-2.231l-.994-3.218h7.924l1.151,3.723A1.751,1.751,0,0,0,67.843,11.6a34.39,34.39,0,0,1,6.932,1.509,1.747,1.747,0,0,0,2.253-1.273l.749-3.288L84.64,12.51l-.864,3.8a1.751,1.751,0,0,0,.666,1.8,34.775,34.775,0,0,1,5.247,4.783,1.75,1.75,0,0,0,2.61-2.332,38.317,38.317,0,0,0-4.861-4.567l.9-3.959a1.749,1.749,0,0,0-.831-1.9L77.473,4.33a1.75,1.75,0,0,0-2.581,1.127l-.86,3.774a37.917,37.917,0,0,0-4.657-.964l-1.2-3.879A1.751,1.751,0,0,0,66.5,3.154H54.916a1.75,1.75,0,0,0-1.672,2.267l1.141,3.692a37.97,37.97,0,0,0-4.517,1.5L46.894,7.853a1.751,1.751,0,0,0-2.065-.233L34.793,13.414a1.75,1.75,0,0,0-.314,2.8l2.843,2.636A38.023,38.023,0,0,0,34.154,22.4l-3.959-.9a1.74,1.74,0,0,0-1.9.831L22.5,32.361a1.75,1.75,0,0,0,1.127,2.581l3.774.86a37.8,37.8,0,0,0-.965,4.657l-3.878,1.2a1.75,1.75,0,0,0-1.234,1.672v4.96H1.75A1.75,1.75,0,0,0,0,50.039V65.084a1.75,1.75,0,0,0,1.75,1.75H22.586L9.048,122.684a1.75,1.75,0,0,0,1.7,2.162h9.033a1.75,1.75,0,0,0,1.62-1.089L38.727,81.321a8.7,8.7,0,0,0,2.929.515H86.344a8.7,8.7,0,0,0,2.929-.515L106.6,123.757a1.75,1.75,0,0,0,1.62,1.089h9.033a1.75,1.75,0,0,0,1.7-2.162l-13.538-55.85H126.25a1.749,1.749,0,0,0,1.75-1.75V50.039A1.749,1.749,0,0,0,126.25,48.289ZM40.6,45.833a23.4,23.4,0,1,1,46.666,2.456H81.455a17.014,17.014,0,0,0,.184-2.456,17.639,17.639,0,0,0-35.278,0,17.014,17.014,0,0,0,.184,2.456H40.733A23.147,23.147,0,0,1,40.6,45.833Zm9.26,0a14.139,14.139,0,0,1,28.278,0,13.738,13.738,0,0,1-.227,2.456H50.087A13.736,13.736,0,0,1,49.861,45.833ZM3.5,51.789H32.906V63.322L3.5,63.334Zm32.194,27.7L18.605,121.346H12.974L26.187,66.834h6.719v6.252A8.848,8.848,0,0,0,35.694,79.488Zm5.962-1.152a5.292,5.292,0,0,1-5.25-5.25v-21.3H91.594v21.3a5.292,5.292,0,0,1-5.25,5.25Zm73.371,43.01h-5.633L92.306,79.488a8.85,8.85,0,0,0,2.788-6.4V66.834h6.719ZM124.5,63.334l-29.406-.012V51.789H124.5Z"/>
    </g>
  </g>
</svg>
