<?xml version="1.0" encoding="utf-8"?>
<!-- Generator: Adobe Illustrator 16.0.0, SVG Export Plug-In . SVG Version: 6.00 Build 0)  -->
<!DOCTYPE svg PUBLIC "-//W3C//DTD SVG 1.0//EN" "http://www.w3.org/TR/2001/REC-SVG-20010904/DTD/svg10.dtd">
<svg version="1.0" id="Layer_1" xmlns="http://www.w3.org/2000/svg" xmlns:xlink="http://www.w3.org/1999/xlink" x="0px" y="0px"
	 width="100px" height="100px" viewBox="0 0 100 100" enable-background="new 0 0 100 100" xml:space="preserve">
<path d="M83.333,9.999H55.624c-1.833,0-4.395,1.061-5.69,2.356L11.945,50.348c-2.594,2.592-2.594,6.836,0,9.428l28.286,28.282
	c2.588,2.591,6.832,2.591,9.424,0l37.989-37.983C88.938,48.779,90,46.214,90,44.385V16.666C90,13.004,86.999,9.999,83.333,9.999z
	 M83.333,44.954l-38.392,38.39L16.659,55.062l20.173-20.176C46.321,25.4,51.74,19.98,54.836,16.666h28.497V44.954z"/>
<path d="M76.667,30.002c0,3.679-2.986,6.667-6.668,6.667s-6.667-2.988-6.667-6.667c0-3.685,2.985-6.667,6.667-6.667
	S76.667,26.318,76.667,30.002z"/>
</svg>
