<svg id="icons" xmlns="http://www.w3.org/2000/svg" viewBox="0 0 64 64"><defs><style>.cls-1{fill:none;stroke:#000;stroke-linecap:round;stroke-linejoin:round;}</style></defs><title>tangerine</title><g id="tangerine"><path class="cls-1" d="M54.69,37.682A22.69,22.69,0,1,1,29.2,15.172a18.61008,18.61008,0,0,1,1.99-.16c.27-.02.54-.02.81-.02A22.69168,22.69168,0,0,1,54.69,37.682Z"/><path class="cls-1" d="M13.57114,30.50632a22.61912,22.61912,0,0,1,1.75051-3.3562"/><path class="cls-1" d="M16.94514,24.902a22.76629,22.76629,0,0,1,8.03874-6.23136"/><path class="cls-1" d="M50.33948,45.93571a22.77769,22.77769,0,0,1-10.68442,9.6677"/><path class="cls-1" d="M31.19,15.01206a18.61008,18.61008,0,0,0-1.99.16c-.37-5.1-2.06-7.76-3.26-8.97a1.48206,1.48206,0,0,1-.04-2.09l.05-.05a1.47169,1.47169,0,0,1,1.89-.15c2.27,1.58,3.06,4.85,3.3,7.6.02.41.05.79.06,1.16.01.14.01.28.01.42C31.24,13.842,31.22,14.50205,31.19,15.01206Z"/><path class="cls-1" d="M39.0828,8.03708a1.04123,1.04123,0,0,0-.8925-.89249,6.12526,6.12526,0,0,0-6.76507,7.65756A6.1252,6.1252,0,0,0,39.0828,8.03708Z"/><line class="cls-1" x1="31.42523" y1="14.80215" x2="34.82822" y2="11.39916"/></g></svg>