<?xml version="1.0" encoding="utf-8"?>
<!-- Generator: Adobe Illustrator 24.0.0, SVG Export Plug-In . SVG Version: 6.00 Build 0)  -->
<svg version="1.1" xmlns="http://www.w3.org/2000/svg" xmlns:xlink="http://www.w3.org/1999/xlink" x="0px" y="0px"
	 viewBox="0 0 256 256" enable-background="new 0 0 256 256" xml:space="preserve">
<g id="Layer_1">
</g>
<g id="Layer_2">
</g>
<g id="Layer_3">
</g>
<g id="Layer_4">
</g>
<g id="Layer_5">
</g>
<g id="Layer_6">
</g>
<g id="Layer_7">
</g>
<g id="Layer_8">
</g>
<g id="Layer_9">
</g>
<g id="Layer_10">
</g>
<g id="Layer_11">
</g>
<g id="Layer_12">
</g>
<g id="Layer_13">
</g>
<g id="Layer_14">
</g>
<g id="Layer_15">
</g>
<g id="Layer_16">
</g>
<g id="Layer_17">
</g>
<g id="Layer_18">
</g>
<g id="Layer_19">
</g>
<g id="Layer_20">
</g>
<g id="Layer_21">
</g>
<g id="Layer_22">
</g>
<g id="Layer_23">
</g>
<g id="Layer_24">
</g>
<g id="Layer_25">
</g>
<g id="Layer_26">
</g>
<g id="Layer_27">
</g>
<g id="Layer_28">
</g>
<g id="Layer_29">
</g>
<g id="Layer_30">
</g>
<g id="Layer_31">
</g>
<g id="Layer_32">
</g>
<g id="Layer_33">
</g>
<g id="Layer_34">
</g>
<g id="Layer_35">
</g>
<g id="Layer_36">
</g>
<g id="Layer_37">
</g>
<g id="Layer_38">
</g>
<g id="Layer_39">
</g>
<g id="Layer_40">
</g>
<g id="Layer_41">
</g>
<g id="Layer_42">
	<g>
		<g>
			<g>
				<path fill="#EDF4FC" d="M126.024,115.433H77.961c-0.094,10.143-8.213,18.351-18.316,18.61V248.95c0,2.513,2.037,4.55,4.55,4.55
					h84.907c2.513,0,4.55-2.037,4.55-4.55V143.062L126.024,115.433z"/>
			</g>
		</g>
		<g>
			<g>
				<path fill="#9BE5F9" d="M157.024,68.461h-48.063c-0.094,10.143-8.213,18.351-18.316,18.61v28.363h35.379l27.629,27.629v63.465
					h26.45c2.513,0,4.55-2.037,4.55-4.55V96.089L157.024,68.461z"/>
			</g>
		</g>
		<g>
			<g>
				<path fill="#FCDD86" d="M188.024,21.488h-48.063c-0.094,10.143-8.213,18.351-18.316,18.61v28.363h35.379l27.629,27.629v63.465
					h26.45c2.513,0,4.55-2.037,4.55-4.55V49.117L188.024,21.488z"/>
			</g>
		</g>
		<g>
			<g>
				<circle fill="#B2E26D" cx="59.159" cy="115.257" r="18.811"/>
			</g>
		</g>
		<g>
			<g>
				<circle fill="#B2E26D" cx="90.159" cy="68.284" r="18.811"/>
			</g>
		</g>
		<g>
			<g>
				<circle fill="#B2E26D" cx="121.159" cy="21.311" r="18.811"/>
			</g>
		</g>
		<g>
			<g>
				<path fill="#C7D7E5" d="M126.024,115.433v23.079c0,2.513,2.037,4.55,4.55,4.55h23.078L126.024,115.433z"/>
			</g>
		</g>
		<g>
			<g>
				<path fill="#70D6F9" d="M157.024,68.461v23.079c0,2.513,2.037,4.55,4.55,4.55h23.078L157.024,68.461z"/>
			</g>
		</g>
		<g>
			<g>
				<path fill="#F5C84C" d="M188.024,21.488v23.079c0,2.513,2.037,4.55,4.55,4.55h23.078L188.024,21.488z"/>
			</g>
		</g>
		<g>
			<g>
				<path fill="#F5C84C" d="M77.959,39.85c-4.5-0.8-8-4.3-8.9-8.7c0-0.2-0.4-0.2-0.4,0c-0.9,4.4-4.4,7.9-8.9,8.7
					c-0.2,0-0.2,0.3,0,0.4c4.5,0.8,8,4.3,8.9,8.7c0,0.2,0.4,0.2,0.4,0c0.9-4.4,4.4-7.9,8.9-8.7
					C78.159,40.15,78.159,39.85,77.959,39.85z"/>
			</g>
		</g>
		<g>
			<g>
				<path fill="#FC657E" d="M203.769,6.21c-3.157-0.561-5.613-3.017-6.245-6.104c0-0.14-0.281-0.14-0.281,0
					c-0.632,3.087-3.087,5.543-6.245,6.104c-0.14,0-0.14,0.21,0,0.281c3.157,0.562,5.613,3.017,6.245,6.104
					c0,0.14,0.281,0.14,0.281,0c0.631-3.087,3.087-5.543,6.245-6.104C203.909,6.42,203.909,6.21,203.769,6.21z"/>
			</g>
		</g>
		<g>
			<g>
				<path fill="#F5C84C" d="M202.959,201c-1.878,0-3.4,1.522-3.4,3.4c0,1.878,1.522,3.4,3.4,3.4c1.878,0,3.4-1.522,3.4-3.4
					C206.359,202.522,204.836,201,202.959,201z"/>
			</g>
		</g>
		<g>
			<g>
				<path fill="#70D6F9" d="M192.859,226.1h-2.3v-2.3c0-1.7-1.4-3.2-3.2-3.2s-3.2,1.4-3.2,3.2v2.3h-2.3c-1.7,0-3.2,1.4-3.2,3.2
					s1.4,3.2,3.2,3.2h2.3v2.3c0,1.7,1.4,3.2,3.2,3.2s3.2-1.4,3.2-3.2v-2.3h2.3c1.7,0,3.2-1.4,3.2-3.2S194.659,226.1,192.859,226.1z"
					/>
			</g>
		</g>
		<g>
			<g>
				<path fill="#87D147" d="M50.959,63c-1.878,0-3.4,1.522-3.4,3.4c0,1.878,1.522,3.4,3.4,3.4c1.878,0,3.4-1.522,3.4-3.4
					C54.359,64.522,52.836,63,50.959,63z"/>
			</g>
		</g>
		<g>
			<g>
				<path d="M135.042,203.44H76.878c-1.381,0-2.5,1.119-2.5,2.5s1.119,2.5,2.5,2.5h58.163c1.381,0,2.5-1.119,2.5-2.5
					S136.422,203.44,135.042,203.44z"/>
			</g>
		</g>
		<g>
			<g>
				<path d="M135.042,190.996H76.878c-1.381,0-2.5,1.119-2.5,2.5s1.119,2.5,2.5,2.5h58.163c1.381,0,2.5-1.119,2.5-2.5
					S136.422,190.996,135.042,190.996z"/>
			</g>
		</g>
		<g>
			<g>
				<path d="M135.042,178.553H76.878c-1.381,0-2.5,1.119-2.5,2.5s1.119,2.5,2.5,2.5h58.163c1.381,0,2.5-1.119,2.5-2.5
					S136.422,178.553,135.042,178.553z"/>
			</g>
		</g>
		<g>
			<g>
				<path d="M135.042,166.109H76.878c-1.381,0-2.5,1.119-2.5,2.5s1.119,2.5,2.5,2.5h58.163c1.381,0,2.5-1.119,2.5-2.5
					S136.422,166.109,135.042,166.109z"/>
			</g>
		</g>
		<g>
			<g>
				<path d="M123.409,215.883H76.878c-1.381,0-2.5,1.119-2.5,2.5s1.119,2.5,2.5,2.5h46.531c1.381,0,2.5-1.119,2.5-2.5
					S124.79,215.883,123.409,215.883z"/>
			</g>
		</g>
		<g>
			<g>
				<path d="M68.144,110.523c-0.976-0.977-2.559-0.977-3.536,0l-6.62,6.62l-3.395-3.394c-0.977-0.976-2.559-0.976-3.536,0
					c-0.976,0.976-0.976,2.559,0,3.536l5.162,5.162c0.488,0.488,1.128,0.732,1.768,0.732s1.28-0.244,1.768-0.732l8.387-8.388
					C69.121,113.083,69.121,111.5,68.144,110.523z"/>
			</g>
		</g>
		<g>
			<g>
				<path d="M155.42,141.294l-27.629-27.628c-0.469-0.469-1.104-0.732-1.768-0.732H78.937c-1.381,0-2.5,1.119-2.5,2.5
					s1.119,2.5,2.5,2.5h46.051l26.165,26.164V248.95c0,1.13-0.92,2.05-2.05,2.05H64.195c-1.13,0-2.05-0.92-2.05-2.05V134.938
					c0-1.381-1.119-2.5-2.5-2.5s-2.5,1.119-2.5,2.5V248.95c0,3.888,3.163,7.05,7.05,7.05h84.907c3.888,0,7.05-3.163,7.05-7.05
					V143.062C156.153,142.399,155.89,141.763,155.42,141.294z"/>
			</g>
		</g>
		<g>
			<g>
				<path d="M166.042,156.467h-12.163c-1.381,0-2.5,1.119-2.5,2.5s1.119,2.5,2.5,2.5h12.163c1.381,0,2.5-1.119,2.5-2.5
					S167.422,156.467,166.042,156.467z"/>
			</g>
		</g>
		<g>
			<g>
				<path d="M166.042,144.023h-12.163c-1.381,0-2.5,1.119-2.5,2.5s1.119,2.5,2.5,2.5h12.163c1.381,0,2.5-1.119,2.5-2.5
					S167.422,144.023,166.042,144.023z"/>
			</g>
		</g>
		<g>
			<g>
				<path d="M166.042,131.58h-21.163c-1.381,0-2.5,1.119-2.5,2.5s1.119,2.5,2.5,2.5h21.163c1.381,0,2.5-1.119,2.5-2.5
					S167.422,131.58,166.042,131.58z"/>
			</g>
		</g>
		<g>
			<g>
				<path d="M166.042,119.137h-33.163c-1.381,0-2.5,1.119-2.5,2.5s1.119,2.5,2.5,2.5h33.163c1.381,0,2.5-1.119,2.5-2.5
					S167.422,119.137,166.042,119.137z"/>
			</g>
		</g>
		<g>
			<g>
				<path d="M99.144,63.551c-0.976-0.977-2.559-0.977-3.536,0l-6.62,6.62l-3.395-3.394c-0.977-0.976-2.559-0.976-3.536,0
					c-0.976,0.976-0.976,2.559,0,3.536l5.162,5.162c0.488,0.488,1.128,0.732,1.768,0.732s1.28-0.244,1.768-0.732l8.387-8.388
					C100.121,66.11,100.121,64.527,99.144,63.551z"/>
			</g>
		</g>
		<g>
			<g>
				<path d="M90.645,85.208c-1.381,0-2.5,1.119-2.5,2.5v26.375c0,1.381,1.119,2.5,2.5,2.5s2.5-1.119,2.5-2.5V87.708
					C93.145,86.327,92.026,85.208,90.645,85.208z"/>
			</g>
		</g>
		<g>
			<g>
				<path d="M186.42,94.322l-27.629-27.628c-0.469-0.469-1.104-0.732-1.768-0.732h-47.336c-1.381,0-2.5,1.119-2.5,2.5
					s1.119,2.5,2.5,2.5h46.3l26.165,26.164v104.852c0,1.13-0.92,2.05-2.05,2.05h-25.508c-1.381,0-2.5,1.119-2.5,2.5
					s1.119,2.5,2.5,2.5h25.508c3.888,0,7.05-3.163,7.05-7.05V96.089C187.153,95.426,186.89,94.791,186.42,94.322z"/>
			</g>
		</g>
		<g>
			<g>
				<path d="M197.042,109.495h-12.163c-1.381,0-2.5,1.119-2.5,2.5s1.119,2.5,2.5,2.5h12.163c1.381,0,2.5-1.119,2.5-2.5
					S198.422,109.495,197.042,109.495z"/>
			</g>
		</g>
		<g>
			<g>
				<path d="M197.042,97.051h-12.163c-1.381,0-2.5,1.119-2.5,2.5s1.119,2.5,2.5,2.5h12.163c1.381,0,2.5-1.119,2.5-2.5
					S198.422,97.051,197.042,97.051z"/>
			</g>
		</g>
		<g>
			<g>
				<path d="M197.042,84.607h-21.163c-1.381,0-2.5,1.119-2.5,2.5s1.119,2.5,2.5,2.5h21.163c1.381,0,2.5-1.119,2.5-2.5
					S198.422,84.607,197.042,84.607z"/>
			</g>
		</g>
		<g>
			<g>
				<path d="M197.042,72.164h-33.163c-1.381,0-2.5,1.119-2.5,2.5s1.119,2.5,2.5,2.5h33.163c1.381,0,2.5-1.119,2.5-2.5
					S198.422,72.164,197.042,72.164z"/>
			</g>
		</g>
		<g>
			<g>
				<path d="M130.144,16.578c-0.976-0.977-2.559-0.977-3.536,0l-6.62,6.62l-3.395-3.394c-0.976-0.977-2.56-0.977-3.535,0
					c-0.977,0.976-0.977,2.559,0,3.535l5.162,5.162c0.469,0.469,1.104,0.732,1.768,0.732s1.299-0.263,1.768-0.732l8.387-8.388
					C131.121,19.137,131.121,17.554,130.144,16.578z"/>
			</g>
		</g>
		<g>
			<g>
				<g>
					<path d="M121.645,38.458c-1.381,0-2.5,1.119-2.5,2.5v26.667c0,1.381,1.119,2.5,2.5,2.5s2.5-1.119,2.5-2.5V40.958
						C124.145,39.577,123.026,38.458,121.645,38.458z"/>
				</g>
			</g>
			<g>
				<g>
					<path d="M217.42,47.349l-27.629-27.628c-0.469-0.469-1.104-0.732-1.768-0.732h-47.232c-1.381,0-2.5,1.119-2.5,2.5
						s1.119,2.5,2.5,2.5h46.197l26.165,26.164v104.852c0,1.13-0.92,2.05-2.05,2.05h-25.957c-1.381,0-2.5,1.119-2.5,2.5
						s1.119,2.5,2.5,2.5h25.957c3.888,0,7.05-3.163,7.05-7.05V49.117C218.153,48.454,217.89,47.818,217.42,47.349z"/>
				</g>
			</g>
		</g>
		<g>
			<g>
				<g>
					<path d="M59.159,93.945c-11.751,0-21.312,9.561-21.312,21.312s9.561,21.312,21.312,21.312s21.312-9.561,21.312-21.312
						S70.91,93.945,59.159,93.945z M59.159,131.568c-8.994,0-16.312-7.317-16.312-16.312s7.317-16.312,16.312-16.312
						s16.312,7.317,16.312,16.312S68.153,131.568,59.159,131.568z"/>
				</g>
			</g>
		</g>
		<g>
			<g>
				<g>
					<path d="M90.159,46.973c-11.751,0-21.312,9.561-21.312,21.312s9.561,21.312,21.312,21.312s21.312-9.561,21.312-21.312
						S101.91,46.973,90.159,46.973z M90.159,84.596c-8.994,0-16.312-7.317-16.312-16.312s7.317-16.312,16.312-16.312
						s16.312,7.317,16.312,16.312S99.153,84.596,90.159,84.596z"/>
				</g>
			</g>
		</g>
		<g>
			<g>
				<g>
					<path d="M121.159,0c-11.751,0-21.312,9.561-21.312,21.312s9.561,21.312,21.312,21.312s21.312-9.561,21.312-21.312
						S132.91,0,121.159,0z M121.159,37.623c-8.994,0-16.312-7.317-16.312-16.312S112.165,5,121.159,5s16.312,7.317,16.312,16.312
						S130.153,37.623,121.159,37.623z"/>
				</g>
			</g>
		</g>
		<g>
			<g>
				<path d="M152.766,140.562h-22.191c-1.13,0-2.05-0.919-2.05-2.05v-22.293c0-1.381-1.119-2.5-2.5-2.5s-2.5,1.119-2.5,2.5v22.293
					c0,3.887,3.163,7.05,7.05,7.05h22.191c1.381,0,2.5-1.119,2.5-2.5S154.146,140.562,152.766,140.562z"/>
			</g>
		</g>
		<g>
			<g>
				<path d="M183.563,93.589h-21.989c-1.13,0-2.05-0.919-2.05-2.05V69.312c0-1.381-1.119-2.5-2.5-2.5s-2.5,1.119-2.5,2.5V91.54
					c0,3.887,3.163,7.05,7.05,7.05h21.989c1.381,0,2.5-1.119,2.5-2.5S184.944,93.589,183.563,93.589z"/>
			</g>
		</g>
		<g>
			<g>
				<path d="M214.75,46.617h-22.176c-1.13,0-2.05-0.919-2.05-2.05V22.188c0-1.381-1.119-2.5-2.5-2.5s-2.5,1.119-2.5,2.5v22.379
					c0,3.887,3.163,7.05,7.05,7.05h22.176c1.381,0,2.5-1.119,2.5-2.5S216.131,46.617,214.75,46.617z"/>
			</g>
		</g>
	</g>
</g>
<g id="Layer_43">
</g>
<g id="Layer_44">
</g>
<g id="Layer_45">
</g>
<g id="Layer_46">
</g>
<g id="Layer_47">
</g>
<g id="Layer_48">
</g>
<g id="Layer_49">
</g>
<g id="Layer_50">
</g>
<g id="Layer_51">
</g>
<g id="Layer_52">
</g>
<g id="Layer_53">
</g>
<g id="Layer_54">
</g>
<g id="Layer_55">
</g>
<g id="Layer_56">
</g>
<g id="Layer_57">
</g>
<g id="Layer_58">
</g>
<g id="Layer_59">
</g>
<g id="Layer_60">
</g>
<g id="Layer_61">
</g>
<g id="Layer_62">
</g>
<g id="Layer_63">
</g>
<g id="Layer_64">
</g>
<g id="Layer_65">
</g>
<g id="Layer_66">
</g>
<g id="Layer_67">
</g>
<g id="Layer_68">
</g>
<g id="Layer_69">
</g>
<g id="Layer_70">
</g>
<g id="Layer_71">
</g>
<g id="Layer_72">
</g>
<g id="Layer_73">
</g>
<g id="Layer_74">
</g>
<g id="Layer_75">
</g>
<g id="Layer_76">
</g>
<g id="Layer_77">
</g>
<g id="Layer_78">
</g>
<g id="Layer_79">
</g>
<g id="Layer_80">
</g>
<g id="Layer_81">
</g>
<g id="Layer_82">
</g>
<g id="Layer_83">
</g>
<g id="Layer_84">
</g>
<g id="Layer_85">
</g>
<g id="Layer_86">
</g>
<g id="Layer_87">
</g>
<g id="Layer_88">
</g>
<g id="Layer_89">
</g>
<g id="Layer_90">
</g>
</svg>
