<?xml version="1.0" encoding="utf-8"?>
<!-- Generator: Adobe Illustrator 24.0.0, SVG Export Plug-In . SVG Version: 6.00 Build 0)  -->
<svg version="1.1" xmlns="http://www.w3.org/2000/svg" xmlns:xlink="http://www.w3.org/1999/xlink" x="0px" y="0px"
	 viewBox="0 0 256 256" enable-background="new 0 0 256 256" xml:space="preserve">
<g id="Layer_1">
</g>
<g id="Layer_2">
</g>
<g id="Layer_3">
</g>
<g id="Layer_4">
</g>
<g id="Layer_5">
</g>
<g id="Layer_6">
</g>
<g id="Layer_7">
</g>
<g id="Layer_8">
</g>
<g id="Layer_9">
</g>
<g id="Layer_10">
</g>
<g id="Layer_11">
</g>
<g id="Layer_12">
</g>
<g id="Layer_13">
</g>
<g id="Layer_14">
</g>
<g id="Layer_15">
</g>
<g id="Layer_16">
</g>
<g id="Layer_17">
</g>
<g id="Layer_18">
</g>
<g id="Layer_19">
	<g>
		<g>
			<g>
				<path fill="#FC657E" d="M153.012,26.117H73.823v28.189c0,0.486,0.625,0.685,0.906,0.288l7.279-11.109
					c1.828-2.585,5.381-3.245,8.015-1.489v0c2.376,1.584,3.26,4.653,2.09,7.258L83.64,67.579c-1.64,3.65-3.656,7.112-5.903,10.424
					c-0.03,0.044-0.058,0.092-0.088,0.136h75.362c0.952,0,1.724-0.772,1.724-1.723V27.84
					C154.735,26.889,153.964,26.117,153.012,26.117z"/>
			</g>
		</g>
		<g>
			<g>
				<path fill="#DAE6F1" d="M75.545,91.41H30.611c-0.952,0-1.724,0.772-1.724,1.724v9.082h48.381v-9.082
					C77.269,92.181,76.497,91.41,75.545,91.41z"/>
			</g>
		</g>
		<g>
			<g>
				<path fill="#F9D0B4" d="M90.023,41.996c-2.634-1.756-6.187-1.096-8.015,1.489l-7.279,11.109
					c-0.281,0.397-0.906,0.198-0.906-0.288V19.147c0,0.043,0-0.142,0-0.185c0-3.161-2.631-5.718-5.838-5.578
					c-2.635,0.115-4.728,2.017-5.228,4.444c-0.088,0.428-0.115,0.822-0.115,1.134l0-6.648c0-3.061-2.359-5.731-5.419-5.823
					c-3.166-0.095-5.763,2.443-5.763,5.588v6.882c0-3.145-2.597-5.683-5.763-5.588c-3.06,0.092-5.419,2.761-5.419,5.823v6.648
					c0-3.145-2.597-5.683-5.763-5.588c-3.06,0.092-5.419,2.761-5.419,5.823v40.978c0,2.5,0.392,4.984,1.161,7.363
					c0.853,3.085,2.654,6.558,2.654,12.346v4.645h40.716l0.099-0.9c0.256-6.056,2.079-9.663,4.009-12.507
					c2.247-3.311,4.263-6.773,5.903-10.423l8.473-18.325C93.283,46.649,92.4,43.58,90.023,41.996z"/>
			</g>
		</g>
		<g>
			<g>
				<path fill="#70D6F9" d="M77.366,102.216H28.791c-0.952,0-1.723,0.772-1.723,1.723v79.188h26.287
					c0.486,0,0.685-0.625,0.288-0.906l-11.109-7.279c-2.585-1.828-3.245-5.381-1.489-8.015c1.584-2.376,4.653-3.26,7.258-2.09
					l18.325,8.473c3.65,1.64,7.112,3.656,10.423,5.903c0.632,0.429,1.311,0.85,2.037,1.252v-76.526
					C79.089,102.987,78.317,102.216,77.366,102.216z"/>
			</g>
		</g>
		<g>
			<g>
				<path fill="#DAE6F1" d="M92.183,179.682c-0.952,0-1.723,0.772-1.723,1.724v44.934c0,0.952,0.772,1.724,1.723,1.724h9.082
					v-48.381H92.183z"/>
			</g>
		</g>
		<g>
			<g>
				<path fill="#F9D0B4" d="M89.559,183.223c-6.056-0.256-9.663-2.079-12.507-4.009c-3.311-2.247-6.773-4.263-10.423-5.903
					l-18.325-8.473c-2.605-1.17-5.674-0.287-7.258,2.09c-1.756,2.634-1.096,6.187,1.489,8.015l11.109,7.279
					c0.397,0.281,0.198,0.906-0.288,0.906H18.197c0.044,0-0.142,0-0.185,0c-3.161,0-5.718,2.631-5.578,5.838
					c0.115,2.635,2.017,4.728,4.444,5.228c0.428,0.088,0.822,0.115,1.134,0.115h-6.648c-3.061,0-5.731,2.359-5.823,5.419
					c-0.095,3.166,2.443,5.763,5.588,5.763h6.882c-3.145,0-5.683,2.597-5.588,5.763c0.092,3.06,2.761,5.419,5.823,5.419h6.648
					c-3.145,0-5.683,2.597-5.588,5.763c0.092,3.06,2.761,5.419,5.822,5.419h40.978c2.5,0,4.984-0.392,7.363-1.161
					c3.085-0.853,6.558-2.654,12.346-2.654h4.644v-40.716L89.559,183.223z"/>
			</g>
		</g>
		<g>
			<g>
				<path fill="#F5C84C" d="M181.271,201.406l-7.28,11.109c-1.828,2.585-5.381,3.245-8.015,1.489
					c-2.376-1.584-3.26-4.653-2.09-7.258l8.473-18.325c1.64-3.65,3.656-7.112,5.903-10.423c0.03-0.044,0.058-0.092,0.088-0.136
					h-75.362c-0.952,0-1.724,0.772-1.724,1.723v48.574c0,0.952,0.772,1.723,1.723,1.723h79.188v-28.189
					C182.177,201.208,181.552,201.009,181.271,201.406z"/>
			</g>
		</g>
		<g>
			<g>
				<path fill="#DAE6F1" d="M178.731,153.784v9.082c0,0.952,0.772,1.724,1.724,1.724h44.934c0.952,0,1.724-0.772,1.724-1.724v-9.082
					H178.731z"/>
			</g>
		</g>
		<g>
			<g>
				<path fill="#F9D0B4" d="M225.741,181.58c-0.853-3.085-2.654-6.558-2.654-12.346v-4.644h-40.716l-0.099,0.9
					c-0.256,6.056-2.079,9.663-4.009,12.507c-2.247,3.311-4.263,6.773-5.903,10.424l-8.473,18.325
					c-1.17,2.605-0.287,5.674,2.09,7.258c2.634,1.756,6.187,1.096,8.015-1.489l7.28-11.109c0.281-0.397,0.906-0.198,0.906,0.288
					v35.158c0-0.043,0,0.142,0,0.185c0,3.161,2.631,5.718,5.838,5.578c2.635-0.115,4.728-2.017,5.228-4.444
					c0.088-0.428,0.115-0.822,0.115-1.134v6.648c0,3.061,2.359,5.731,5.419,5.823c3.166,0.095,5.763-2.443,5.763-5.588v-6.882
					c0,3.145,2.596,5.683,5.763,5.588c3.06-0.092,5.419-2.761,5.419-5.823v-6.648c0,3.145,2.597,5.683,5.763,5.588
					c3.06-0.092,5.419-2.761,5.419-5.822v-40.978C226.902,186.443,226.51,183.959,225.741,181.58z"/>
			</g>
		</g>
		<g>
			<g>
				<path fill="#5290DB" d="M202.645,72.873c-0.486,0-0.685,0.625-0.288,0.906l11.109,7.279c2.585,1.828,3.245,5.381,1.489,8.015
					c-1.584,2.376-4.653,3.26-7.258,2.09l-18.325-8.473c-3.65-1.64-7.113-3.656-10.424-5.903c-0.632-0.429-1.311-0.85-2.037-1.252
					v76.526c0,0.952,0.772,1.724,1.723,1.724h48.575c0.952,0,1.723-0.772,1.723-1.723V72.873H202.645z"/>
			</g>
		</g>
		<g>
			<g>
				<path fill="#DAE6F1" d="M163.817,27.937h-9.082v48.381h9.082c0.952,0,1.723-0.772,1.723-1.724V29.66
					C165.541,28.709,164.769,27.937,163.817,27.937z"/>
			</g>
		</g>
		<g>
			<g>
				<path fill="#F9D0B4" d="M244.871,50.51h-6.882c3.145,0,5.683-2.597,5.588-5.763c-0.092-3.06-2.761-5.419-5.823-5.419h-6.648
					c3.145,0,5.683-2.597,5.588-5.763c-0.092-3.06-2.761-5.419-5.823-5.419h-40.978c-2.5,0-4.984,0.392-7.363,1.161
					c-3.085,0.853-6.558,2.654-12.346,2.654h-4.645v40.716l0.9,0.099c6.056,0.256,9.663,2.079,12.507,4.009
					c3.311,2.247,6.773,4.263,10.423,5.903l18.325,8.473c2.605,1.17,5.674,0.286,7.258-2.09c1.756-2.634,1.096-6.187-1.489-8.015
					l-11.109-7.279c-0.397-0.281-0.198-0.906,0.288-0.906h35.158c-0.044,0,0.142,0,0.185,0c3.161,0,5.718-2.631,5.578-5.837
					c-0.115-2.635-2.017-4.728-4.444-5.228c-0.428-0.088-0.822-0.115-1.134-0.115h6.648c3.061,0,5.731-2.359,5.823-5.419
					C250.554,53.106,248.016,50.51,244.871,50.51z"/>
			</g>
		</g>
		<g>
			<g>
				<path d="M62.642,16.462c-1.381,0-2.5,1.119-2.5,2.5v23.514c0,1.381,1.119,2.5,2.5,2.5s2.5-1.119,2.5-2.5V18.962
					C65.142,17.581,64.022,16.462,62.642,16.462z"/>
			</g>
		</g>
		<g>
			<g>
				<path d="M51.461,16.462c-1.381,0-2.5,1.119-2.5,2.5v23.514c0,1.381,1.119,2.5,2.5,2.5s2.5-1.119,2.5-2.5V18.962
					C53.961,17.581,52.842,16.462,51.461,16.462z"/>
			</g>
		</g>
		<g>
			<g>
				<path d="M40.279,16.462c-1.381,0-2.5,1.119-2.5,2.5v23.514c0,1.381,1.119,2.5,2.5,2.5s2.5-1.119,2.5-2.5V18.962
					C42.779,17.581,41.66,16.462,40.279,16.462z"/>
			</g>
		</g>
		<g>
			<g>
				<path d="M75.546,88.91H30.611c-2.329,0-4.224,1.895-4.224,4.224v8.252c0,1.381,1.119,2.5,2.5,2.5s2.5-1.119,2.5-2.5V93.91
					h43.381v7.408c0,1.381,1.119,2.5,2.5,2.5s2.5-1.119,2.5-2.5v-8.185C79.769,90.804,77.874,88.91,75.546,88.91z"/>
			</g>
		</g>
		<g>
			<g>
				<path d="M91.41,39.916c-3.79-2.527-8.816-1.592-11.492,2.199l-3.595,5.487v-28.64c0-2.193-0.909-4.322-2.495-5.839
					c-1.607-1.539-3.713-2.329-5.951-2.236c-0.978,0.042-1.912,0.257-2.774,0.618c-0.395-4.092-3.744-7.389-7.804-7.511
					c-2.195-0.07-4.298,0.743-5.882,2.28c-1.441,1.399-2.293,3.232-2.435,5.215c-1.048-0.437-2.196-0.652-3.359-0.613
					c-4.058,0.122-7.405,3.415-7.804,7.503c-1.053-0.441-2.2-0.651-3.378-0.621c-4.325,0.13-7.844,3.863-7.844,8.321v40.978
					c0,2.746,0.426,5.464,1.267,8.081c0.222,0.792,0.486,1.573,0.768,2.399c0.835,2.457,1.781,5.242,1.781,9.229v3.489
					c0,1.381,1.119,2.5,2.5,2.5s2.5-1.119,2.5-2.5v-3.489c0-4.813-1.135-8.153-2.047-10.837c-0.264-0.774-0.512-1.505-0.696-2.175
					c-0.01-0.035-0.021-0.069-0.031-0.104c-0.69-2.134-1.041-4.353-1.041-6.593V26.079c0-1.783,1.343-3.274,2.994-3.323
					c0.842-0.033,1.644,0.284,2.249,0.871c0.605,0.587,0.938,1.375,0.938,2.218c0,1.381,1.119,2.5,2.5,2.5s2.5-1.119,2.5-2.5v-6.648
					c0-1.783,1.343-3.274,2.994-3.323c0.833-0.025,1.644,0.284,2.249,0.871c0.605,0.587,0.938,1.375,0.938,2.218
					c0,1.381,1.119,2.5,2.5,2.5s2.5-1.119,2.5-2.5V12.08c0-0.843,0.333-1.631,0.938-2.219c0.605-0.587,1.402-0.899,2.249-0.87
					c1.65,0.049,2.993,1.54,2.993,3.323v6.648c0,1.381,1.119,2.5,2.5,2.5s2.5-1.119,2.5-2.5c0-0.146,0.011-0.373,0.063-0.628
					c0.285-1.382,1.474-2.391,2.89-2.452c0.855-0.03,1.662,0.266,2.276,0.853c0.614,0.588,0.952,1.379,0.952,2.228v35.344
					c0,1.312,0.84,2.459,2.089,2.857c1.251,0.396,2.599-0.054,3.408-1.199l7.23-11.037c1.052-1.489,3.065-1.865,4.586-0.852
					c1.365,0.91,1.868,2.657,1.207,4.129l-8.484,18.35c-1.483,3.301-3.345,6.587-5.69,10.043c-1.914,2.819-4.147,6.937-4.439,13.806
					c-0.059,1.379,1.013,2.545,2.393,2.604c0.036,0.002,0.071,0.002,0.107,0.002c1.332,0,2.438-1.051,2.496-2.394
					c0.235-5.563,1.86-8.675,3.58-11.209c2.512-3.7,4.512-7.234,6.104-10.778l8.484-18.35C96.071,46.544,94.816,42.186,91.41,39.916
					z"/>
			</g>
		</g>
		<g>
			<g>
				<path d="M77.365,99.715H28.791c-2.329,0-4.224,1.895-4.224,4.224v78.729c0,1.381,1.119,2.5,2.5,2.5s2.5-1.119,2.5-2.5v-77.952
					h47.021v75.269c0,1.381,1.119,2.5,2.5,2.5s2.5-1.119,2.5-2.5v-76.045C81.589,101.61,79.694,99.715,77.365,99.715z"/>
			</g>
		</g>
		<g>
			<g>
				<path d="M41.524,191.809H18.011c-1.381,0-2.5,1.119-2.5,2.5s1.119,2.5,2.5,2.5h23.514c1.381,0,2.5-1.119,2.5-2.5
					S42.905,191.809,41.524,191.809z"/>
			</g>
		</g>
		<g>
			<g>
				<path d="M41.524,202.99H18.011c-1.381,0-2.5,1.119-2.5,2.5s1.119,2.5,2.5,2.5h23.514c1.381,0,2.5-1.119,2.5-2.5
					S42.905,202.99,41.524,202.99z"/>
			</g>
		</g>
		<g>
			<g>
				<path d="M41.524,214.171H18.011c-1.381,0-2.5,1.119-2.5,2.5s1.119,2.5,2.5,2.5h23.514c1.381,0,2.5-1.119,2.5-2.5
					S42.905,214.171,41.524,214.171z"/>
			</g>
		</g>
		<g>
			<g>
				<path d="M100.435,225.563h-7.476v-43.381h7.408c1.381,0,2.5-1.119,2.5-2.5s-1.119-2.5-2.5-2.5h-8.185
					c-2.329,0-4.224,1.895-4.224,4.224v44.934c0,2.329,1.895,4.224,4.224,4.224h8.252c1.381,0,2.5-1.119,2.5-2.5
					S101.815,225.563,100.435,225.563z"/>
			</g>
		</g>
		<g>
			<g>
				<path d="M89.304,221.538h-3.489c-4.813,0-8.152,1.135-10.836,2.047c-0.774,0.263-1.506,0.512-2.176,0.697
					c-0.035,0.01-0.069,0.02-0.104,0.031c-2.132,0.69-4.351,1.04-6.594,1.04H25.128c-1.783,0-3.273-1.343-3.323-2.994
					c-0.025-0.845,0.283-1.643,0.87-2.248c0.588-0.605,1.376-0.939,2.219-0.939c1.381,0,2.5-1.119,2.5-2.5s-1.119-2.5-2.5-2.5
					h-6.647c-1.783,0-3.274-1.343-3.324-2.993c-0.025-0.846,0.284-1.645,0.871-2.25s1.375-0.938,2.218-0.938
					c1.381,0,2.5-1.119,2.5-2.5s-1.119-2.5-2.5-2.5h-6.882c-0.843,0-1.631-0.333-2.218-0.938s-0.896-1.404-0.871-2.249
					c0.05-1.651,1.54-2.994,3.323-2.994h6.647c1.381,0,2.5-1.119,2.5-2.5s-1.119-2.5-2.5-2.5c-0.146,0-0.373-0.011-0.629-0.063
					c-1.382-0.285-2.39-1.473-2.451-2.889c-0.038-0.854,0.266-1.663,0.853-2.276c0.588-0.614,1.379-0.952,2.228-0.952h35.344
					c1.313,0,2.461-0.84,2.858-2.09s-0.055-2.599-1.2-3.407l-11.035-7.23c-1.49-1.053-1.864-3.068-0.853-4.586
					c0.91-1.366,2.658-1.868,4.13-1.208l18.35,8.484c3.302,1.484,6.587,3.345,10.043,5.691c2.82,1.914,6.938,4.148,13.807,4.438
					c1.375,0.074,2.545-1.012,2.604-2.392c0.058-1.379-1.013-2.545-2.393-2.603c-5.562-0.235-8.675-1.86-11.209-3.58
					c-3.699-2.511-7.232-4.511-10.778-6.104l-18.35-8.485c-3.736-1.678-8.094-0.422-10.363,2.984
					c-2.525,3.788-1.592,8.814,2.199,11.492l5.486,3.595h-28.64c-2.193,0-4.321,0.909-5.839,2.495
					c-1.54,1.608-2.334,3.722-2.237,5.952c0.043,0.977,0.258,1.912,0.618,2.773c-4.092,0.395-7.389,3.745-7.511,7.805
					c-0.066,2.209,0.744,4.297,2.281,5.881c1.398,1.441,3.232,2.293,5.214,2.435c-0.437,1.047-0.648,2.186-0.613,3.359
					c0.122,4.057,3.415,7.405,7.504,7.804c-0.442,1.052-0.656,2.198-0.621,3.377c0.13,4.325,3.862,7.843,8.321,7.843h40.978
					c2.749,0,5.468-0.426,8.082-1.266c0.792-0.221,1.573-0.486,2.399-0.768c2.457-0.835,5.242-1.781,9.228-1.781h3.489
					c1.381,0,2.5-1.119,2.5-2.5S90.685,221.538,89.304,221.538z"/>
			</g>
		</g>
		<g>
			<g>
				<path d="M181.25,227.383h-77.485v-47.021h73.829c1.381,0,2.5-1.119,2.5-2.5s-1.119-2.5-2.5-2.5h-74.605
					c-2.329,0-4.224,1.895-4.224,4.223v48.575c0,2.329,1.895,4.223,4.224,4.223h78.262c1.381,0,2.5-1.119,2.5-2.5
					S182.631,227.383,181.25,227.383z"/>
			</g>
		</g>
		<g>
			<g>
				<path d="M193.358,211.024c-1.381,0-2.5,1.119-2.5,2.5v23.514c0,1.381,1.119,2.5,2.5,2.5s2.5-1.119,2.5-2.5v-23.514
					C195.858,212.144,194.739,211.024,193.358,211.024z"/>
			</g>
		</g>
		<g>
			<g>
				<path d="M204.539,211.024c-1.381,0-2.5,1.119-2.5,2.5v23.514c0,1.381,1.119,2.5,2.5,2.5s2.5-1.119,2.5-2.5v-23.514
					C207.039,212.144,205.92,211.024,204.539,211.024z"/>
			</g>
		</g>
		<g>
			<g>
				<path d="M215.721,211.024c-1.381,0-2.5,1.119-2.5,2.5v23.514c0,1.381,1.119,2.5,2.5,2.5s2.5-1.119,2.5-2.5v-23.514
					C218.221,212.144,217.102,211.024,215.721,211.024z"/>
			</g>
		</g>
		<g>
			<g>
				<path d="M227.112,152.114c-1.381,0-2.5,1.119-2.5,2.5v7.476h-43.381v-7.408c0-1.381-1.119-2.5-2.5-2.5s-2.5,1.119-2.5,2.5v8.185
					c0,2.329,1.895,4.224,4.223,4.224h44.935c2.329,0,4.224-1.895,4.224-4.224v-8.252
					C229.612,153.233,228.493,152.114,227.112,152.114z"/>
			</g>
		</g>
		<g>
			<g>
				<path d="M228.136,180.862c-0.222-0.792-0.486-1.573-0.768-2.399c-0.835-2.457-1.781-5.242-1.781-9.229v-3.489
					c0-1.381-1.119-2.5-2.5-2.5s-2.5,1.119-2.5,2.5v3.489c0,4.813,1.135,8.153,2.047,10.837c0.264,0.774,0.512,1.505,0.696,2.175
					c0.01,0.035,0.021,0.069,0.031,0.104c0.69,2.134,1.041,4.353,1.041,6.593v40.978c0,1.783-1.343,3.274-2.994,3.323
					c-0.843,0.029-1.645-0.284-2.249-0.871c-0.605-0.587-0.938-1.375-0.938-2.218c0-1.381-1.119-2.5-2.5-2.5s-2.5,1.119-2.5,2.5
					v6.648c0,1.783-1.343,3.274-2.994,3.323c-0.835,0.021-1.645-0.284-2.249-0.871c-0.605-0.587-0.938-1.375-0.938-2.218
					c0-1.381-1.119-2.5-2.5-2.5s-2.5,1.119-2.5,2.5v6.882c0,0.843-0.333,1.631-0.938,2.219c-0.605,0.586-1.4,0.897-2.249,0.87
					c-1.65-0.049-2.993-1.54-2.993-3.323v-6.648c0-1.381-1.119-2.5-2.5-2.5s-2.5,1.119-2.5,2.5c0,0.146-0.011,0.373-0.063,0.628
					c-0.285,1.382-1.474,2.391-2.89,2.452c-0.845,0.037-1.662-0.265-2.276-0.853s-0.952-1.379-0.952-2.228v-35.344
					c0-1.312-0.84-2.459-2.089-2.857c-1.254-0.398-2.6,0.054-3.408,1.199l-7.23,11.037c-1.052,1.489-3.065,1.865-4.586,0.852
					c-1.365-0.91-1.868-2.657-1.207-4.129l8.484-18.35c1.483-3.301,3.345-6.587,5.69-10.043c1.914-2.819,4.147-6.937,4.439-13.806
					c0.059-1.379-1.013-2.545-2.393-2.604c-1.361-0.087-2.544,1.012-2.604,2.392c-0.235,5.563-1.86,8.675-3.58,11.209
					c-2.512,3.7-4.512,7.234-6.104,10.778l-8.484,18.35c-1.678,3.734-0.423,8.092,2.983,10.363c3.79,2.526,8.815,1.592,11.492-2.199
					l3.595-5.487v28.64c0,2.193,0.909,4.322,2.495,5.839c1.607,1.54,3.72,2.337,5.951,2.236c0.978-0.042,1.912-0.257,2.774-0.618
					c0.395,4.092,3.744,7.389,7.804,7.511c0.084,0.002,0.168,0.003,0.252,0.003c2.115,0,4.106-0.805,5.63-2.284
					c1.441-1.399,2.293-3.232,2.435-5.215c1.048,0.436,2.191,0.644,3.359,0.613c4.058-0.122,7.405-3.415,7.804-7.503
					c1.053,0.442,2.204,0.654,3.378,0.621c4.325-0.13,7.844-3.863,7.844-8.321v-40.978
					C229.402,186.197,228.977,183.479,228.136,180.862z"/>
			</g>
		</g>
		<g>
			<g>
				<path d="M228.933,71.031c-1.381,0-2.5,1.119-2.5,2.5v77.753h-47.021V76.292c0-1.381-1.119-2.5-2.5-2.5s-2.5,1.119-2.5,2.5
					v75.769c0,2.329,1.895,4.223,4.224,4.223h48.574c2.329,0,4.224-1.895,4.224-4.223v-78.53
					C231.433,72.15,230.313,71.031,228.933,71.031z"/>
			</g>
		</g>
		<g>
			<g>
				<path d="M237.989,59.191h-23.514c-1.381,0-2.5,1.119-2.5,2.5s1.119,2.5,2.5,2.5h23.514c1.381,0,2.5-1.119,2.5-2.5
					S239.37,59.191,237.989,59.191z"/>
			</g>
		</g>
		<g>
			<g>
				<path d="M237.989,48.01h-23.514c-1.381,0-2.5,1.119-2.5,2.5s1.119,2.5,2.5,2.5h23.514c1.381,0,2.5-1.119,2.5-2.5
					S239.37,48.01,237.989,48.01z"/>
			</g>
		</g>
		<g>
			<g>
				<path d="M237.989,36.829h-23.514c-1.381,0-2.5,1.119-2.5,2.5s1.119,2.5,2.5,2.5h23.514c1.381,0,2.5-1.119,2.5-2.5
					S239.37,36.829,237.989,36.829z"/>
			</g>
		</g>
		<g>
			<g>
				<g>
					<path d="M163.817,25.437h-8.252c-1.381,0-2.5,1.119-2.5,2.5s1.119,2.5,2.5,2.5h7.476v43.381h-7.408c-1.381,0-2.5,1.119-2.5,2.5
						s1.119,2.5,2.5,2.5h8.185c2.329,0,4.224-1.895,4.224-4.224V29.661C168.041,27.332,166.146,25.437,163.817,25.437z"/>
				</g>
			</g>
		</g>
		<g>
			<g>
				<path d="M252.958,56.347c0.066-2.209-0.744-4.297-2.281-5.881c-1.398-1.441-3.232-2.293-5.214-2.435
					c0.437-1.047,0.648-2.186,0.613-3.359c-0.122-4.057-3.415-7.405-7.504-7.804c0.442-1.052,0.656-2.198,0.621-3.377
					c-0.13-4.325-3.862-7.843-8.321-7.843h-40.978c-2.749,0-5.468,0.426-8.082,1.266c-0.792,0.221-1.573,0.486-2.399,0.768
					c-2.457,0.835-5.242,1.781-9.228,1.781h-3.489c-1.381,0-2.5,1.119-2.5,2.5s1.119,2.5,2.5,2.5h3.489
					c4.813,0,8.152-1.135,10.836-2.047c0.774-0.263,1.506-0.512,2.176-0.697c0.035-0.01,0.069-0.02,0.104-0.031
					c2.132-0.69,4.351-1.04,6.594-1.04h40.978c1.783,0,3.273,1.343,3.323,2.994c0.025,0.845-0.283,1.643-0.87,2.248
					c-0.588,0.605-1.376,0.939-2.219,0.939c-1.381,0-2.5,1.119-2.5,2.5s1.119,2.5,2.5,2.5h6.647c1.783,0,3.274,1.343,3.324,2.993
					c0.025,0.846-0.284,1.645-0.871,2.25s-1.375,0.938-2.218,0.938c-1.381,0-2.5,1.119-2.5,2.5s1.119,2.5,2.5,2.5h6.882
					c0.843,0,1.631,0.333,2.218,0.938s0.896,1.404,0.871,2.249c-0.05,1.651-1.54,2.994-3.323,2.994h-6.647
					c-1.381,0-2.5,1.119-2.5,2.5s1.119,2.5,2.5,2.5c0.146,0,0.373,0.011,0.629,0.063c1.382,0.285,2.39,1.473,2.451,2.889
					c0.038,0.854-0.266,1.663-0.853,2.276c-0.588,0.614-1.379,0.952-2.228,0.952h-35.344c-1.313,0-2.461,0.84-2.858,2.09
					s0.055,2.599,1.2,3.407l11.035,7.23c1.49,1.053,1.864,3.068,0.853,4.586c-0.911,1.365-2.659,1.866-4.13,1.208l-18.35-8.484
					c-3.302-1.484-6.587-3.345-10.043-5.691c-2.82-1.914-6.938-4.148-13.807-4.438c-1.393-0.077-2.545,1.012-2.604,2.392
					c-0.058,1.379,1.013,2.545,2.393,2.603c5.562,0.235,8.675,1.86,11.209,3.58c3.699,2.511,7.232,4.511,10.778,6.104l18.35,8.485
					c1.112,0.5,2.279,0.739,3.431,0.739c2.715,0,5.339-1.331,6.933-3.723c2.525-3.788,1.592-8.814-2.199-11.492l-5.486-3.595h28.64
					c2.193,0,4.321-0.909,5.839-2.495c1.54-1.608,2.334-3.722,2.237-5.952c-0.043-0.977-0.258-1.912-0.618-2.773
					C249.539,63.757,252.836,60.408,252.958,56.347z"/>
			</g>
		</g>
		<g>
			<g>
				<path d="M153.012,23.617H74.5c-1.381,0-2.5,1.119-2.5,2.5s1.119,2.5,2.5,2.5h77.735v47.021H78.25c-1.381,0-2.5,1.119-2.5,2.5
					s1.119,2.5,2.5,2.5h74.762c2.329,0,4.224-1.895,4.224-4.223V27.84C157.235,25.511,155.341,23.617,153.012,23.617z"/>
			</g>
		</g>
		<g>
			<g>
				<path fill="#F5C84C" d="M18.35,90.85c-4.5-0.8-8-4.3-8.9-8.7c0-0.2-0.4-0.2-0.4,0c-0.9,4.4-4.4,7.9-8.9,8.7
					c-0.2,0-0.2,0.3,0,0.4c4.5,0.8,8,4.3,8.9,8.7c0,0.2,0.4,0.2,0.4,0c0.9-4.4,4.4-7.9,8.9-8.7C18.55,91.15,18.55,90.85,18.35,90.85
					z"/>
			</g>
		</g>
		<g>
			<g>
				<path fill="#70D6F9" d="M105.61,10.199c-3.158-0.561-5.613-3.017-6.245-6.104c0-0.14-0.281-0.14-0.281,0
					c-0.631,3.087-3.087,5.543-6.245,6.104c-0.14,0-0.14,0.211,0,0.281c3.158,0.561,5.613,3.017,6.245,6.104
					c0,0.14,0.281,0.14,0.281,0c0.631-3.087,3.087-5.543,6.245-6.104C105.75,10.409,105.75,10.199,105.61,10.199z"/>
			</g>
		</g>
		<g>
			<g>
				<path fill="#FC657E" d="M252.8,158.1h-2.3v-2.3c0-1.7-1.4-3.2-3.2-3.2c-1.8,0-3.2,1.4-3.2,3.2v2.3h-2.3c-1.7,0-3.2,1.4-3.2,3.2
					s1.4,3.2,3.2,3.2h2.3v2.3c0,1.7,1.4,3.2,3.2,3.2c1.8,0,3.2-1.4,3.2-3.2v-2.3h2.3c1.7,0,3.2-1.4,3.2-3.2S254.6,158.1,252.8,158.1
					z"/>
			</g>
		</g>
		<g>
			<g>
				<path fill="#87D147" d="M14.8,61c-1.878,0-3.4,1.522-3.4,3.4c0,1.878,1.522,3.4,3.4,3.4c1.878,0,3.4-1.522,3.4-3.4
					C18.2,62.522,16.678,61,14.8,61z"/>
			</g>
		</g>
		<g>
			<g>
				<path fill="#F5C84C" d="M241.8,183c-1.878,0-3.4,1.522-3.4,3.4c0,1.878,1.522,3.4,3.4,3.4c1.878,0,3.4-1.522,3.4-3.4
					C245.2,184.522,243.678,183,241.8,183z"/>
			</g>
		</g>
		<g>
			<g>
				<path fill="#70D6F9" d="M168.8,245.211c-1.878,0-3.4,1.522-3.4,3.4s1.522,3.4,3.4,3.4c1.878,0,3.4-1.522,3.4-3.4
					S170.678,245.211,168.8,245.211z"/>
			</g>
		</g>
	</g>
</g>
<g id="Layer_20">
</g>
<g id="Layer_21">
</g>
<g id="Layer_22">
</g>
<g id="Layer_23">
</g>
<g id="Layer_24">
</g>
<g id="Layer_25">
</g>
<g id="Layer_26">
</g>
<g id="Layer_27">
</g>
<g id="Layer_28">
</g>
<g id="Layer_29">
</g>
<g id="Layer_30">
</g>
<g id="Layer_31">
</g>
<g id="Layer_32">
</g>
<g id="Layer_33">
</g>
<g id="Layer_34">
</g>
<g id="Layer_35">
</g>
<g id="Layer_36">
</g>
<g id="Layer_37">
</g>
<g id="Layer_38">
</g>
<g id="Layer_39">
</g>
<g id="Layer_40">
</g>
<g id="Layer_41">
</g>
<g id="Layer_42">
</g>
<g id="Layer_43">
</g>
<g id="Layer_44">
</g>
<g id="Layer_45">
</g>
<g id="Layer_46">
</g>
<g id="Layer_47">
</g>
<g id="Layer_48">
</g>
<g id="Layer_49">
</g>
<g id="Layer_50">
</g>
<g id="Layer_51">
</g>
<g id="Layer_52">
</g>
<g id="Layer_53">
</g>
<g id="Layer_54">
</g>
<g id="Layer_55">
</g>
<g id="Layer_56">
</g>
<g id="Layer_57">
</g>
<g id="Layer_58">
</g>
<g id="Layer_59">
</g>
<g id="Layer_60">
</g>
<g id="Layer_61">
</g>
<g id="Layer_62">
</g>
<g id="Layer_63">
</g>
<g id="Layer_64">
</g>
<g id="Layer_65">
</g>
<g id="Layer_66">
</g>
<g id="Layer_67">
</g>
<g id="Layer_68">
</g>
<g id="Layer_69">
</g>
<g id="Layer_70">
</g>
<g id="Layer_71">
</g>
<g id="Layer_72">
</g>
<g id="Layer_73">
</g>
<g id="Layer_74">
</g>
<g id="Layer_75">
</g>
<g id="Layer_76">
</g>
<g id="Layer_77">
</g>
<g id="Layer_78">
</g>
<g id="Layer_79">
</g>
<g id="Layer_80">
</g>
<g id="Layer_81">
</g>
<g id="Layer_82">
</g>
<g id="Layer_83">
</g>
<g id="Layer_84">
</g>
<g id="Layer_85">
</g>
<g id="Layer_86">
</g>
<g id="Layer_87">
</g>
<g id="Layer_88">
</g>
<g id="Layer_89">
</g>
<g id="Layer_90">
</g>
</svg>
