<?xml version="1.0" encoding="utf-8"?>
<!-- Generator: Adobe Illustrator 24.0.0, SVG Export Plug-In . SVG Version: 6.00 Build 0)  -->
<svg version="1.1" xmlns="http://www.w3.org/2000/svg" xmlns:xlink="http://www.w3.org/1999/xlink" x="0px" y="0px"
	 viewBox="0 0 256 256" enable-background="new 0 0 256 256" xml:space="preserve">
<g id="Layer_1">
</g>
<g id="Layer_2">
</g>
<g id="Layer_3">
</g>
<g id="Layer_4">
</g>
<g id="Layer_5">
</g>
<g id="Layer_6">
</g>
<g id="Layer_7">
</g>
<g id="Layer_8">
</g>
<g id="Layer_9">
</g>
<g id="Layer_10">
</g>
<g id="Layer_11">
</g>
<g id="Layer_12">
</g>
<g id="Layer_13">
</g>
<g id="Layer_14">
</g>
<g id="Layer_15">
</g>
<g id="Layer_16">
</g>
<g id="Layer_17">
</g>
<g id="Layer_18">
</g>
<g id="Layer_19">
</g>
<g id="Layer_20">
</g>
<g id="Layer_21">
</g>
<g id="Layer_22">
</g>
<g id="Layer_23">
</g>
<g id="Layer_24">
</g>
<g id="Layer_25">
</g>
<g id="Layer_26">
</g>
<g id="Layer_27">
</g>
<g id="Layer_28">
</g>
<g id="Layer_29">
</g>
<g id="Layer_30">
</g>
<g id="Layer_31">
</g>
<g id="Layer_32">
</g>
<g id="Layer_33">
</g>
<g id="Layer_34">
</g>
<g id="Layer_35">
</g>
<g id="Layer_36">
</g>
<g id="Layer_37">
</g>
<g id="Layer_38">
</g>
<g id="Layer_39">
</g>
<g id="Layer_40">
</g>
<g id="Layer_41">
</g>
<g id="Layer_42">
</g>
<g id="Layer_43">
</g>
<g id="Layer_44">
</g>
<g id="Layer_45">
</g>
<g id="Layer_46">
</g>
<g id="Layer_47">
</g>
<g id="Layer_48">
</g>
<g id="Layer_49">
</g>
<g id="Layer_50">
</g>
<g id="Layer_51">
</g>
<g id="Layer_52">
</g>
<g id="Layer_53">
	<g>
		<g>
			<g>
				<path fill="#70D6F9" d="M252.593,142.253c-0.226-4.054-3.061-7.49-6.999-8.481l-13.496-3.397c-0.358-0.09-0.71-0.2-1.065-0.299
					l-11.707,11.707c-0.995,0.996-2.609,0.996-3.605,0l-6.023-6.023c-0.995-0.996-0.995-2.609,0-3.605l8.418-8.418
					c-1.114-1.407-1.764-3.163-1.764-5.026v-3.826c-3.247,1.7-6.931,2.667-10.831,2.667h0c-3.901,0-7.584-0.968-10.831-2.667v3.826
					c0,1.864-0.64,3.628-1.754,5.036l8.408,8.408c0.995,0.996,0.995,2.609,0,3.605l-6.023,6.023c-0.995,0.996-2.609,0.996-3.605,0
					l-11.706-11.706c-0.35,0.097-0.698,0.206-1.05,0.294l-13.511,3.401c-3.938,0.991-6.773,4.428-6.999,8.481l-0.286,12.6
					l9.911,2.495c3.937,0.991,6.773,4.427,6.999,8.481l0.492,21.662h72.653c2.98,0,5.37-2.463,5.28-5.442L252.593,142.253z"/>
			</g>
		</g>
		<g>
			<g>
				<path fill="#FC657E" d="M249.895,112.31c-3.158-0.561-5.613-3.017-6.245-6.104c0-0.14-0.281-0.14-0.281,0
					c-0.631,3.087-3.087,5.543-6.245,6.104c-0.14,0-0.14,0.211,0,0.281c3.158,0.562,5.613,3.017,6.245,6.104
					c0,0.14,0.281,0.14,0.281,0c0.631-3.087,3.087-5.543,6.245-6.104C250.035,112.52,250.035,112.31,249.895,112.31z"/>
			</g>
		</g>
		<g>
			<g>
				<path fill="#F5C84C" d="M118.8,41.95c-4.5-0.8-8-4.3-8.9-8.7c0-0.2-0.4-0.2-0.4,0c-0.9,4.4-4.4,7.9-8.9,8.7
					c-0.2,0-0.2,0.3,0,0.4c4.5,0.8,8,4.3,8.9,8.7c0,0.2,0.4,0.2,0.4,0c0.9-4.4,4.4-7.9,8.9-8.7C119,42.25,119,41.95,118.8,41.95z"/>
			</g>
		</g>
		<g>
			<g>
				<path fill="#F5C84C" d="M178.8,227.1c-1.878,0-3.4,1.522-3.4,3.4c0,1.878,1.522,3.4,3.4,3.4c1.878,0,3.4-1.522,3.4-3.4
					C182.2,228.622,180.678,227.1,178.8,227.1z"/>
			</g>
		</g>
		<g>
			<g>
				<path fill="#70D6F9" d="M206.2,210.2h-2.3v-2.3c0-1.7-1.4-3.2-3.2-3.2s-3.2,1.4-3.2,3.2v2.3h-2.3c-1.7,0-3.2,1.4-3.2,3.2
					c0,1.8,1.4,3.2,3.2,3.2h2.3v2.3c0,1.7,1.4,3.2,3.2,3.2s3.2-1.4,3.2-3.2v-2.3h2.3c1.7,0,3.2-1.4,3.2-3.2
					C209.4,211.6,208,210.2,206.2,210.2z"/>
			</g>
		</g>
		<g>
			<g>
				<path fill="#87D147" d="M139.8,22.1c-1.878,0-3.4,1.522-3.4,3.4c0,1.878,1.522,3.4,3.4,3.4c1.878,0,3.4-1.522,3.4-3.4
					C143.2,23.622,141.678,22.1,139.8,22.1z"/>
			</g>
		</g>
		<g>
			<g>
				<path fill="#754E34" d="M68.877,47.792c-2.505,0-4.847,0.708-6.86,1.915c-2.351-3.924-6.634-6.573-11.517-6.573h-6.896
					c-13.347,0-24.268,10.92-24.268,24.268v10.874c1.679-1.344,3.806-2.152,6.124-2.152c0.514,0,1.017,0.043,1.509,0.119v-1.13
					c0.001-0.791,0.743-1.374,1.517-1.212c4.259,0.891,16.927,2.415,25.514-8.384c0.47-0.592,1.342-0.647,1.882-0.118
					c1.977,1.938,7.123,5.809,16.891,6.096c0.667,0.02,1.201,0.569,1.214,1.236c0.002,0.122,0.004,0.245,0.004,0.368v3.145
					c0.492-0.076,0.995-0.119,1.509-0.119c2.646,0,5.043,1.052,6.808,2.754V61.221C82.306,53.835,76.263,47.792,68.877,47.792z"/>
			</g>
		</g>
		<g>
			<g>
				<path fill="#F9D0B4" d="M75.498,76.123c-0.514,0-1.017,0.043-1.509,0.12v17.799c0,0.53-0.024,1.055-0.059,1.577
					c0.512,0.082,1.033,0.137,1.568,0.137c5.421,0,9.816-4.395,9.816-9.816C85.314,80.518,80.919,76.123,75.498,76.123z"/>
			</g>
		</g>
		<g>
			<g>
				<path fill="#F9D0B4" d="M26.969,94.041V76.242c-0.492-0.076-0.995-0.12-1.509-0.12c-5.421,0-9.816,4.395-9.816,9.816
					c0,5.421,4.395,9.816,9.816,9.816c0.535,0,1.056-0.055,1.568-0.137v0C26.993,95.095,26.969,94.571,26.969,94.041z"/>
			</g>
		</g>
		<g>
			<g>
				<path fill="#F9D0B4" d="M73.986,72.73c-0.013-0.667-0.547-1.216-1.214-1.236c-9.767-0.286-14.913-4.157-16.891-6.096
					c-0.54-0.529-1.411-0.473-1.882,0.118c-8.587,10.799-21.255,9.275-25.514,8.384c-0.774-0.162-1.517,0.421-1.517,1.212v18.928
					c0,12.931,10.58,23.51,23.51,23.51h0c12.931,0,23.51-10.58,23.51-23.51V73.098C73.989,72.975,73.988,72.852,73.986,72.73z"/>
			</g>
		</g>
		<g>
			<g>
				<path fill="#9BE5F9" d="M46.302,132.154l-8.408-8.408c-0.667,0.842-1.503,1.556-2.474,2.087c-0.11,0.06-1.119,0.561-2.326,1.158
					c-2.603,1.288-5.328,2.311-8.125,3.086l11.706,11.706c0.995,0.996,2.609,0.996,3.605,0l6.023-6.023
					C47.297,134.763,47.297,133.149,46.302,132.154z"/>
			</g>
		</g>
		<g>
			<g>
				<path fill="#9BE5F9" d="M67.689,126.899c-1.311-0.655-2.444-1.231-2.654-1.366c-0.76-0.489-1.412-1.104-1.96-1.797l-8.418,8.418
					c-0.995,0.996-0.995,2.609,0,3.605l6.023,6.023c0.995,0.996,2.609,0.996,3.605,0l11.707-11.707
					C73.13,129.281,70.347,128.227,67.689,126.899z"/>
			</g>
		</g>
		<g>
			<g>
				<path fill="#70D6F9" d="M97.551,142.253c-0.226-4.054-3.061-7.49-6.999-8.481l-13.496-3.397c-0.358-0.09-0.709-0.2-1.065-0.299
					l-11.707,11.707c-0.995,0.996-2.609,0.996-3.605,0l-6.023-6.023c-0.995-0.996-0.995-2.609,0-3.605l8.418-8.418
					c-1.114-1.407-1.764-3.163-1.764-5.026v-3.826c-3.247,1.7-6.931,2.667-10.831,2.667h0c-3.901,0-7.584-0.968-10.831-2.667v3.826
					c0,1.864-0.64,3.628-1.754,5.036l8.408,8.408c0.995,0.996,0.995,2.609,0,3.605l-6.023,6.023c-0.995,0.996-2.609,0.996-3.605,0
					l-11.706-11.706c-0.35,0.097-0.698,0.206-1.05,0.294l-13.511,3.401c-3.938,0.991-6.773,4.428-6.999,8.481l-0.905,39.796
					c-0.09,2.979,2.3,5.442,5.28,5.442h72.653l0.492-21.662c0.226-4.054,3.061-7.49,6.999-8.481l9.91-2.495L97.551,142.253z"/>
			</g>
		</g>
		<g>
			<g>
				<path fill="#F9D0B4" d="M2.754,171l-0.251,11.049c-0.09,2.979,2.3,5.442,5.28,5.442H21V171H2.754z"/>
			</g>
		</g>
		<g>
			<g>
				<path fill="#F9D0B4" d="M253.246,171H235v16.491h13.217c2.98,0,5.37-2.463,5.28-5.442L253.246,171z"/>
			</g>
		</g>
		<g>
			<g>
				<path fill="#F9D0B4" d="M63.075,123.735c-1.114-1.407-1.764-3.163-1.764-5.026v-3.826c-3.247,1.7-6.931,2.668-10.831,2.668h0
					c-3.901,0-7.584-0.968-10.831-2.668v3.826c0,1.864-0.64,3.628-1.754,5.036l8.408,8.408c0.693,0.693,0.892,1.682,0.621,2.557
					h7.113c-0.271-0.875-0.072-1.864,0.621-2.557L63.075,123.735z"/>
			</g>
		</g>
		<g>
			<g>
				<path d="M68.876,45.292c-2.078,0-4.138,0.417-6.061,1.219c-3.009-3.672-7.546-5.877-12.316-5.877h-6.896
					c-14.76,0-26.768,12.008-26.768,26.768v10.377c0,1.381,1.119,2.5,2.5,2.5s2.5-1.119,2.5-2.5V67.401
					c0-12.003,9.765-21.768,21.768-21.768H50.5c3.801,0,7.392,2.053,9.372,5.358c0.341,0.568,0.894,0.979,1.537,1.14
					c0.642,0.162,1.324,0.06,1.893-0.28c1.701-1.021,3.629-1.56,5.575-1.56c6.027,0,10.93,4.903,10.93,10.93v16.976
					c0,1.381,1.119,2.5,2.5,2.5s2.5-1.119,2.5-2.5V61.222C84.806,52.438,77.66,45.292,68.876,45.292z"/>
			</g>
		</g>
		<g>
			<g>
				<path d="M75.498,73.623c-0.325,0-0.647,0.014-0.965,0.039c-1.376,0.113-2.4,1.319-2.288,2.695
					c0.113,1.377,1.317,2.388,2.695,2.289c0.184-0.016,0.37-0.023,0.558-0.023c4.034,0,7.316,3.281,7.316,7.315
					s-3.282,7.315-7.316,7.315c-0.192,0-0.381-0.011-0.569-0.027c-1.382-0.122-2.59,0.892-2.714,2.267
					c-0.123,1.375,0.892,2.59,2.267,2.714c0.335,0.03,0.673,0.047,1.016,0.047c6.791,0,12.316-5.524,12.316-12.315
					S82.289,73.623,75.498,73.623z"/>
			</g>
		</g>
		<g>
			<g>
				<path d="M28.912,95.425c-0.152-1.372-1.391-2.371-2.76-2.21c-0.228,0.024-0.458,0.039-0.692,0.039
					c-4.034,0-7.316-3.281-7.316-7.315s3.282-7.315,7.316-7.315c0.222,0,0.441,0.011,0.658,0.031
					c1.375,0.116,2.593-0.882,2.722-2.257s-0.882-2.594-2.257-2.722c-0.37-0.034-0.744-0.053-1.123-0.053
					c-6.791,0-12.316,5.524-12.316,12.315s5.525,12.315,12.316,12.315c0.405,0,0.823-0.023,1.242-0.07
					C28.074,98.032,29.064,96.797,28.912,95.425z"/>
			</g>
		</g>
		<g>
			<g>
				<g>
					<path d="M76.485,72.681c-0.04-2.008-1.639-3.627-3.64-3.686c-9.046-0.265-13.653-3.852-15.213-5.381
						c-0.762-0.748-1.809-1.137-2.87-1.072c-1.063,0.065-2.054,0.583-2.718,1.419c-7.579,9.528-18.642,8.415-23.045,7.492
						c-1.115-0.231-2.263,0.045-3.147,0.764c-0.878,0.712-1.382,1.768-1.382,2.912v18.912c0,14.342,11.668,26.01,26.01,26.01
						s26.01-11.668,26.01-26.01V73.098L76.485,72.681z M55.957,67.072C55.957,67.072,55.957,67.072,55.957,67.072
						c-0.001,0.001-0.002,0.002-0.003,0.004C55.955,67.074,55.956,67.074,55.957,67.072z M71.489,94.041
						c0,11.585-9.425,21.01-21.01,21.01s-21.01-9.425-21.01-21.01V76.618c5.228,0.807,17.065,1.28,25.648-8.538
						c2.726,2.305,7.878,5.356,16.372,5.859V94.041z"/>
				</g>
			</g>
		</g>
		<g>
			<g>
				<g>
					<path d="M48.07,130.387l-8.408-8.409c-0.504-0.505-1.191-0.766-1.913-0.729c-0.712,0.041-1.373,0.385-1.815,0.944
						c-0.471,0.595-1.047,1.081-1.697,1.437c-0.177,0.093-1.126,0.563-2.251,1.119c-2.406,1.189-4.992,2.172-7.685,2.918
						c-0.857,0.237-1.523,0.912-1.75,1.772s0.021,1.775,0.65,2.404l11.706,11.706c0.984,0.984,2.276,1.477,3.569,1.477
						s2.586-0.492,3.57-1.477l6.023-6.022c0.954-0.954,1.479-2.222,1.479-3.571C49.548,132.607,49.023,131.34,48.07,130.387z
						 M38.511,140.014c-0.019,0.02-0.05,0.019-0.069,0.001l-8.816-8.816c1.575-0.582,3.104-1.239,4.576-1.967
						c1.258-0.622,2.31-1.146,2.417-1.206c0.428-0.234,0.837-0.495,1.225-0.781l6.691,6.747L38.511,140.014z"/>
				</g>
			</g>
		</g>
		<g>
			<g>
				<g>
					<path d="M78.409,129.438c-0.226-0.859-0.892-1.534-1.749-1.772c-2.752-0.764-5.394-1.774-7.854-3.005
						c-2.033-1.014-2.414-1.229-2.417-1.229c-0.497-0.32-0.952-0.739-1.353-1.247c-0.443-0.56-1.104-0.903-1.816-0.945
						c-0.709-0.042-1.409,0.223-1.913,0.729l-8.418,8.418c-0.954,0.954-1.479,2.222-1.479,3.57c0,1.35,0.525,2.617,1.479,3.57
						l6.023,6.023c0,0,0,0,0,0.001c0.984,0.983,2.277,1.476,3.57,1.476s2.586-0.492,3.57-1.477l11.707-11.707
						C78.388,131.214,78.635,130.299,78.409,129.438z M62.517,140.014c-0.018,0.02-0.05,0.02-0.07,0.001l-6.023-6.093l6.685-6.685
						c0.188,0.141,0.381,0.274,0.578,0.401c0.149,0.096,0.399,0.256,2.884,1.496c1.531,0.766,3.123,1.454,4.764,2.062
						L62.517,140.014z"/>
				</g>
			</g>
		</g>
		<g>
			<g>
				<path d="M39.648,113.198c-1.381,0-2.5,1.119-2.5,2.5v3.012c0,1.258-0.431,2.494-1.214,3.482
					c-0.857,1.083-0.675,2.655,0.407,3.513c0.459,0.363,1.007,0.54,1.551,0.54c0.737,0,1.468-0.325,1.961-0.947
					c1.48-1.868,2.295-4.208,2.295-6.588v-3.012C42.148,114.317,41.029,113.198,39.648,113.198z"/>
			</g>
		</g>
		<g>
			<g>
				<path d="M65.035,122.184c-0.79-0.997-1.225-2.231-1.225-3.474v-2.528c0-1.381-1.119-2.5-2.5-2.5s-2.5,1.119-2.5,2.5v2.528
					c0,2.364,0.818,4.7,2.305,6.577c0.494,0.623,1.224,0.948,1.961,0.948c0.544,0,1.091-0.177,1.55-0.54
					C65.709,124.838,65.892,123.266,65.035,122.184z"/>
			</g>
		</g>
		<g>
			<g>
				<path d="M100.047,142.114c-0.288-5.175-3.858-9.502-8.884-10.768l-13.492-3.395c-0.195-0.05-0.388-0.106-0.582-0.163
					l-0.43-0.123c-1.331-0.366-2.708,0.41-3.078,1.741c-0.369,1.33,0.41,2.708,1.741,3.077l0.369,0.105
					c0.249,0.072,0.498,0.145,0.754,0.21l13.496,3.396c2.893,0.728,4.947,3.218,5.109,6.113l0.268,11.764
					c0.031,1.361,1.144,2.443,2.499,2.443c0.019,0,0.039,0,0.058-0.001c1.38-0.031,2.474-1.176,2.443-2.556L100.047,142.114z"/>
			</g>
		</g>
		<g>
			<g>
				<path d="M79.542,184.99H7.783c-0.759,0-1.469-0.3-1.998-0.845c-0.528-0.545-0.807-1.263-0.783-2.04l0.901-39.714
					c0.166-2.978,2.22-5.468,5.113-6.195l13.512-3.401c0.256-0.064,0.509-0.137,0.762-0.211l0.349-0.1
					c1.33-0.37,2.108-1.749,1.737-3.079s-1.749-2.108-3.079-1.737l-0.402,0.115c-0.195,0.057-0.391,0.114-0.588,0.163l-13.512,3.4
					c-5.026,1.266-8.596,5.593-8.888,10.85l-0.904,39.777c-0.064,2.122,0.715,4.13,2.193,5.653c1.479,1.524,3.462,2.363,5.586,2.363
					h71.759c1.381,0,2.5-1.119,2.5-2.5S80.923,184.99,79.542,184.99z"/>
			</g>
		</g>
		<g>
			<g>
				<path d="M53.132,132.211h-5.486c-1.381,0-2.5,1.119-2.5,2.5s1.119,2.5,2.5,2.5h5.486c1.381,0,2.5-1.119,2.5-2.5
					S54.513,132.211,53.132,132.211z"/>
			</g>
		</g>
		<g>
			<g>
				<path fill="#754E34" d="M223.919,47.792c-2.505,0-4.847,0.708-6.86,1.915c-2.351-3.924-6.634-6.573-11.517-6.573h-6.896
					c-13.347,0-24.268,10.92-24.268,24.268v10.874c1.679-1.344,3.806-2.152,6.124-2.152c0.514,0,1.017,0.043,1.509,0.119v-1.13
					c0.001-0.791,0.743-1.374,1.517-1.212c4.259,0.891,16.927,2.415,25.514-8.384c0.47-0.592,1.342-0.647,1.882-0.118
					c1.977,1.938,7.123,5.809,16.89,6.096c0.667,0.02,1.201,0.569,1.214,1.236c0.002,0.122,0.004,0.245,0.004,0.368v3.145
					c0.492-0.076,0.995-0.119,1.509-0.119c2.646,0,5.043,1.052,6.808,2.754V61.221C237.348,53.835,231.305,47.792,223.919,47.792z"
					/>
			</g>
		</g>
		<g>
			<g>
				<path fill="#F9D0B4" d="M230.54,76.123c-0.514,0-1.017,0.043-1.509,0.12v17.799c0,0.53-0.024,1.055-0.059,1.577
					c0.512,0.082,1.033,0.137,1.568,0.137c5.421,0,9.816-4.395,9.816-9.816C240.356,80.518,235.961,76.123,230.54,76.123z"/>
			</g>
		</g>
		<g>
			<g>
				<path fill="#F9D0B4" d="M182.011,94.041V76.242c-0.492-0.076-0.995-0.12-1.509-0.12c-5.421,0-9.816,4.395-9.816,9.816
					c0,5.421,4.395,9.816,9.816,9.816c0.535,0,1.056-0.055,1.568-0.137v0C182.035,95.095,182.011,94.571,182.011,94.041z"/>
			</g>
		</g>
		<g>
			<g>
				<path fill="#F9D0B4" d="M229.028,72.73c-0.013-0.667-0.547-1.216-1.214-1.236c-9.767-0.286-14.913-4.157-16.89-6.096
					c-0.54-0.529-1.411-0.473-1.882,0.118c-8.587,10.799-21.255,9.275-25.514,8.384c-0.774-0.162-1.517,0.421-1.517,1.212v18.928
					c0,12.931,10.58,23.51,23.51,23.51s23.51-10.58,23.51-23.51V73.098C229.031,72.975,229.03,72.852,229.028,72.73z"/>
			</g>
		</g>
		<g>
			<g>
				<path fill="#9BE5F9" d="M201.344,132.154l-8.408-8.408c-0.667,0.842-1.503,1.556-2.474,2.087
					c-0.11,0.06-1.119,0.561-2.326,1.158c-2.603,1.288-5.328,2.311-8.125,3.086l11.706,11.706c0.995,0.996,2.609,0.996,3.605,0
					l6.023-6.023C202.339,134.763,202.339,133.149,201.344,132.154z"/>
			</g>
		</g>
		<g>
			<g>
				<path fill="#9BE5F9" d="M222.731,126.899c-1.311-0.655-2.444-1.231-2.654-1.366c-0.759-0.489-1.412-1.104-1.96-1.797
					l-8.418,8.418c-0.995,0.996-0.995,2.609,0,3.605l6.023,6.023c0.995,0.996,2.609,0.996,3.605,0l11.707-11.707
					C228.172,129.281,225.389,128.227,222.731,126.899z"/>
			</g>
		</g>
		<g>
			<g>
				<path fill="#F9D0B4" d="M218.117,123.735c-1.114-1.407-1.764-3.163-1.764-5.026v-3.826c-3.247,1.7-6.931,2.668-10.831,2.668h0
					c-3.901,0-7.584-0.968-10.831-2.668v3.826c0,1.864-0.64,3.628-1.754,5.036l8.408,8.408c0.693,0.693,0.892,1.682,0.621,2.557
					h7.113c-0.271-0.875-0.072-1.864,0.621-2.557L218.117,123.735z"/>
			</g>
		</g>
		<g>
			<g>
				<path d="M223.919,45.292c-2.078,0-4.138,0.417-6.062,1.219c-3.009-3.672-7.547-5.877-12.316-5.877h-6.896
					c-14.76,0-26.768,12.008-26.768,26.768v10.377c0,1.381,1.119,2.5,2.5,2.5s2.5-1.119,2.5-2.5V67.401
					c0-12.003,9.765-21.768,21.768-21.768h6.896c3.801,0,7.393,2.053,9.373,5.358c0.341,0.568,0.894,0.979,1.537,1.14
					c0.643,0.162,1.325,0.061,1.894-0.281c1.7-1.02,3.628-1.559,5.574-1.559c6.026,0,10.93,4.903,10.93,10.93v16.976
					c0,1.381,1.119,2.5,2.5,2.5s2.5-1.119,2.5-2.5V61.222C239.849,52.438,232.702,45.292,223.919,45.292z"/>
			</g>
		</g>
		<g>
			<g>
				<path d="M230.54,73.623c-0.325,0-0.647,0.014-0.965,0.039c-1.377,0.113-2.401,1.319-2.288,2.695
					c0.112,1.377,1.334,2.382,2.694,2.289c0.185-0.016,0.37-0.023,0.559-0.023c4.034,0,7.315,3.281,7.315,7.315
					s-3.281,7.315-7.315,7.315c-0.192,0-0.382-0.011-0.57-0.027c-1.349-0.118-2.59,0.892-2.713,2.268
					c-0.123,1.375,0.892,2.59,2.268,2.713c0.335,0.03,0.673,0.047,1.016,0.047c6.791,0,12.315-5.524,12.315-12.315
					S237.331,73.623,230.54,73.623z"/>
			</g>
		</g>
		<g>
			<g>
				<path d="M183.955,95.425c-0.151-1.372-1.395-2.356-2.76-2.211c-0.229,0.025-0.459,0.04-0.693,0.04
					c-4.034,0-7.315-3.281-7.315-7.315s3.281-7.315,7.315-7.315c0.223,0,0.441,0.011,0.659,0.031
					c1.387,0.134,2.593-0.884,2.721-2.258c0.128-1.375-0.883-2.593-2.258-2.721c-0.37-0.034-0.743-0.053-1.122-0.053
					c-6.791,0-12.315,5.524-12.315,12.315s5.524,12.315,12.315,12.315c0.405,0,0.823-0.023,1.242-0.069
					C183.116,98.032,184.106,96.797,183.955,95.425z"/>
			</g>
		</g>
		<g>
			<g>
				<g>
					<path d="M231.527,72.683c-0.039-2.009-1.638-3.629-3.641-3.688c-9.048-0.265-13.652-3.852-15.213-5.382
						c-0.761-0.746-1.825-1.134-2.869-1.071c-1.063,0.065-2.055,0.583-2.72,1.418c0,0.001,0,0.001,0,0.001
						c-7.577,9.528-18.64,8.415-23.044,7.492c-1.114-0.232-2.263,0.044-3.146,0.763c-0.878,0.712-1.383,1.767-1.384,2.913v18.912
						c0,14.342,11.668,26.01,26.011,26.01c14.342,0,26.01-11.668,26.01-26.01V73.098C231.531,72.954,231.53,72.813,231.527,72.683z
						 M210.999,67.072L210.999,67.072c-0.001,0.002-0.002,0.003-0.003,0.004C210.997,67.075,210.998,67.074,210.999,67.072z
						 M226.531,94.041c0,11.585-9.426,21.01-21.011,21.01s-21.01-9.425-21.01-21.01V76.618c5.227,0.806,17.063,1.282,25.648-8.538
						c2.726,2.305,7.878,5.356,16.372,5.859V94.041z"/>
				</g>
			</g>
		</g>
		<g>
			<g>
				<g>
					<path d="M203.111,130.387l-8.408-8.409c-0.503-0.505-1.196-0.766-1.911-0.729c-0.713,0.041-1.373,0.385-1.815,0.943
						c-0.473,0.596-1.049,1.082-1.7,1.438c-0.179,0.094-1.127,0.563-2.25,1.118c-2.405,1.189-4.99,2.171-7.685,2.918
						c-0.856,0.237-1.523,0.912-1.75,1.772s0.021,1.775,0.65,2.404l11.706,11.706c0.984,0.984,2.277,1.477,3.57,1.477
						c1.292,0,2.585-0.492,3.569-1.477l6.023-6.023c0.954-0.953,1.479-2.221,1.479-3.57
						C204.59,132.607,204.065,131.34,203.111,130.387z M193.553,140.015c-0.021,0.019-0.051,0.018-0.069,0l-8.815-8.816
						c1.574-0.582,3.104-1.239,4.574-1.967c1.262-0.623,2.315-1.149,2.418-1.206c0.428-0.233,0.837-0.495,1.225-0.781l6.691,6.747
						L193.553,140.015z"/>
				</g>
			</g>
		</g>
		<g>
			<g>
				<g>
					<path d="M233.451,129.438c-0.227-0.859-0.893-1.534-1.75-1.772c-2.752-0.764-5.394-1.774-7.854-3.004
						c-2.025-1.012-2.403-1.225-2.417-1.23c-0.496-0.32-0.952-0.739-1.354-1.248c-0.442-0.56-1.104-0.902-1.815-0.944
						c-0.712-0.047-1.408,0.224-1.912,0.729l-8.418,8.419c-0.954,0.953-1.479,2.221-1.479,3.569c0,1.35,0.524,2.617,1.479,3.57
						l6.023,6.023c0.984,0.984,2.277,1.477,3.569,1.477c1.293,0,2.586-0.492,3.57-1.477l11.707-11.707
						C233.43,131.214,233.677,130.299,233.451,129.438z M217.559,140.015c-0.019,0.018-0.049,0.02-0.069,0l-6.023-6.093l6.685-6.685
						c0.188,0.14,0.38,0.273,0.576,0.399c0.157,0.102,0.395,0.254,2.887,1.498c1.53,0.766,3.123,1.454,4.764,2.062L217.559,140.015z
						"/>
				</g>
			</g>
		</g>
		<g>
			<g>
				<path d="M194.689,113.198c-1.381,0-2.5,1.119-2.5,2.5v3.012c0,1.259-0.431,2.495-1.213,3.482
					c-0.857,1.082-0.676,2.654,0.406,3.512c0.459,0.364,1.007,0.541,1.551,0.541c0.737,0,1.468-0.324,1.961-0.947
					c1.48-1.867,2.295-4.207,2.295-6.588v-3.012C197.189,114.317,196.07,113.198,194.689,113.198z"/>
			</g>
		</g>
		<g>
			<g>
				<path d="M220.076,122.184c-0.789-0.997-1.224-2.23-1.224-3.474v-2.528c0-1.381-1.119-2.5-2.5-2.5s-2.5,1.119-2.5,2.5v2.528
					c0,2.365,0.818,4.701,2.304,6.577c0.493,0.623,1.224,0.948,1.962,0.948c0.543,0,1.091-0.177,1.55-0.54
					C220.751,124.838,220.934,123.266,220.076,122.184z"/>
			</g>
		</g>
		<g>
			<g>
				<path d="M255.089,142.114c-0.288-5.175-3.858-9.502-8.884-10.768l-13.492-3.395c-0.194-0.05-0.387-0.106-0.58-0.162
					l-0.432-0.124c-1.337-0.369-2.708,0.41-3.077,1.741c-0.369,1.33,0.41,2.708,1.741,3.077l0.37,0.106
					c0.248,0.072,0.496,0.144,0.752,0.209l13.497,3.396c2.892,0.728,4.946,3.218,5.109,6.113l0.904,39.814
					c0.023,0.759-0.256,1.477-0.784,2.021s-1.237,0.845-1.997,0.845h-71.759c-1.381,0-2.5,1.119-2.5,2.5s1.119,2.5,2.5,2.5h71.759
					c2.124,0,4.107-0.839,5.586-2.363c1.479-1.523,2.257-3.531,2.193-5.635L255.089,142.114z"/>
			</g>
		</g>
		<g>
			<g>
				<path d="M182.418,129.405c-0.37-1.329-1.745-2.109-3.079-1.737l-0.399,0.114c-0.196,0.057-0.392,0.114-0.591,0.164l-13.511,3.4
					c-5.026,1.266-8.597,5.593-8.888,10.85l-0.259,11.398c-0.031,1.38,1.062,2.524,2.442,2.556c0.02,0.001,0.038,0.001,0.058,0.001
					c1.354,0,2.468-1.082,2.498-2.443l0.256-11.316c0.166-2.978,2.221-5.468,5.113-6.195l13.51-3.4
					c0.258-0.064,0.512-0.139,0.766-0.212l0.347-0.1C182.011,132.114,182.788,130.735,182.418,129.405z"/>
			</g>
		</g>
		<g>
			<g>
				<path d="M208.174,132.211h-5.486c-1.381,0-2.5,1.119-2.5,2.5s1.119,2.5,2.5,2.5h5.486c1.381,0,2.5-1.119,2.5-2.5
					S209.555,132.211,208.174,132.211z"/>
			</g>
		</g>
		<g>
			<g>
				<path fill="#754E34" d="M146.398,71.368c-2.505,0-4.847,0.708-6.86,1.915c-2.351-3.924-6.634-6.573-11.517-6.573h-6.896
					c-13.347,0-24.268,10.92-24.268,24.268v10.874c1.679-1.344,3.806-2.152,6.124-2.152c0.514,0,1.017,0.043,1.509,0.12v-1.13
					c0.001-0.791,0.743-1.374,1.517-1.212c4.259,0.891,16.927,2.415,25.514-8.384c0.47-0.592,1.342-0.647,1.882-0.118
					c1.977,1.938,7.123,5.809,16.89,6.096c0.667,0.02,1.201,0.569,1.214,1.236c0.002,0.122,0.004,0.245,0.004,0.368v3.145
					c0.492-0.076,0.995-0.12,1.509-0.12c2.646,0,5.043,1.052,6.808,2.754V84.797C159.827,77.411,153.784,71.368,146.398,71.368z"/>
			</g>
		</g>
		<g>
			<g>
				<path fill="#F9D0B4" d="M153.019,99.698c-0.514,0-1.017,0.043-1.509,0.12v17.798c0,0.53-0.024,1.055-0.059,1.577
					c0.512,0.083,1.033,0.137,1.568,0.137c5.421,0,9.816-4.395,9.816-9.816C162.835,104.093,158.44,99.698,153.019,99.698z"/>
			</g>
		</g>
		<g>
			<g>
				<path fill="#F9D0B4" d="M104.49,117.616V99.818c-0.492-0.076-0.995-0.12-1.509-0.12c-5.421,0-9.816,4.395-9.816,9.816
					c0,5.421,4.395,9.816,9.816,9.816c0.535,0,1.056-0.054,1.568-0.137v0C104.514,118.671,104.49,118.146,104.49,117.616z"/>
			</g>
		</g>
		<g>
			<g>
				<path fill="#F9D0B4" d="M151.507,96.306c-0.013-0.667-0.547-1.216-1.214-1.236c-9.767-0.286-14.913-4.157-16.89-6.096
					c-0.54-0.529-1.411-0.473-1.882,0.118c-8.587,10.799-21.255,9.275-25.514,8.384c-0.774-0.162-1.517,0.421-1.517,1.212v18.928
					c0,12.931,10.58,23.51,23.51,23.51h0c12.931,0,23.51-10.58,23.51-23.51V96.673C151.51,96.551,151.509,96.428,151.507,96.306z"/>
			</g>
		</g>
		<g>
			<g>
				<path fill="#9BE5F9" d="M123.823,155.73l-8.408-8.408c-0.667,0.841-1.503,1.556-2.474,2.087c-0.11,0.06-1.119,0.561-2.326,1.158
					c-2.603,1.288-5.328,2.311-8.125,3.086l11.706,11.706c0.995,0.996,2.609,0.996,3.605,0l6.023-6.023
					C124.818,158.339,124.818,156.725,123.823,155.73z"/>
			</g>
		</g>
		<g>
			<g>
				<path fill="#9BE5F9" d="M145.21,150.475c-1.311-0.655-2.444-1.23-2.654-1.366c-0.759-0.489-1.412-1.104-1.96-1.797l-8.418,8.419
					c-0.995,0.995-0.995,2.609,0,3.605l6.023,6.023c0.995,0.996,2.609,0.996,3.605,0l11.707-11.707
					C150.651,152.857,147.868,151.803,145.21,150.475z"/>
			</g>
		</g>
		<g>
			<g>
				<path fill="#70D6F9" d="M175.072,165.829c-0.226-4.054-3.061-7.49-6.999-8.481l-13.496-3.397c-0.358-0.09-0.709-0.2-1.065-0.299
					l-11.707,11.707c-0.995,0.996-2.609,0.996-3.605,0l-6.023-6.023c-0.995-0.995-0.995-2.609,0-3.605l8.418-8.419
					c-1.114-1.407-1.764-3.163-1.764-5.026v-3.826c-3.247,1.7-6.931,2.668-10.831,2.668h0c-3.901,0-7.584-0.968-10.831-2.668v3.826
					c0,1.864-0.64,3.628-1.754,5.036l8.408,8.408c0.995,0.995,0.995,2.609,0,3.605l-6.023,6.023c-0.995,0.996-2.609,0.996-3.605,0
					l-11.706-11.706c-0.35,0.097-0.698,0.206-1.05,0.294l-13.511,3.401c-3.938,0.991-6.773,4.427-6.999,8.481l-0.905,39.796
					c-0.09,2.979,2.3,5.442,5.28,5.442h85.392c2.98,0,5.37-2.463,5.28-5.442L175.072,165.829z"/>
			</g>
		</g>
		<g>
			<g>
				<path fill="#F9D0B4" d="M175.725,194.575h-18.246v16.491h13.217c2.98,0,5.37-2.463,5.28-5.442L175.725,194.575z"/>
			</g>
		</g>
		<g>
			<g>
				<path fill="#F9D0B4" d="M80.275,194.575l-0.251,11.049c-0.09,2.979,2.3,5.442,5.28,5.442h13.217v-16.491H80.275z"/>
			</g>
		</g>
		<g>
			<g>
				<path fill="#F9D0B4" d="M140.596,147.311c-1.114-1.407-1.764-3.163-1.764-5.026v-3.826c-3.247,1.7-6.931,2.668-10.831,2.668h0
					c-3.901,0-7.584-0.968-10.831-2.668v3.826c0,1.864-0.64,3.628-1.754,5.036l8.408,8.408c0.693,0.693,0.892,1.682,0.621,2.557
					h7.113c-0.271-0.875-0.072-1.864,0.621-2.557L140.596,147.311z"/>
			</g>
		</g>
		<g>
			<g>
				<path d="M146.397,68.867c-2.078,0-4.138,0.417-6.062,1.219c-3.009-3.671-7.546-5.876-12.315-5.876h-6.896
					c-14.76,0-26.768,12.008-26.768,26.768v10.377c0,1.381,1.119,2.5,2.5,2.5s2.5-1.119,2.5-2.5V90.978
					c0-12.003,9.765-21.768,21.768-21.768h6.896c3.801,0,7.392,2.053,9.372,5.357c0.341,0.568,0.894,0.979,1.537,1.14
					c0.642,0.163,1.324,0.061,1.894-0.281c1.7-1.02,3.628-1.559,5.574-1.559c6.026,0,10.93,4.903,10.93,10.93v16.976
					c0,1.381,1.119,2.5,2.5,2.5s2.5-1.119,2.5-2.5V84.797C162.327,76.014,155.181,68.867,146.397,68.867z"/>
			</g>
		</g>
		<g>
			<g>
				<path d="M153.02,97.198c-0.325,0-0.646,0.014-0.966,0.039c-1.376,0.112-2.4,1.318-2.289,2.695
					c0.112,1.376,1.325,2.387,2.695,2.289c0.185-0.016,0.371-0.023,0.56-0.023c4.034,0,7.315,3.282,7.315,7.316
					s-3.281,7.315-7.315,7.315c-0.192,0-0.382-0.01-0.569-0.027c-1.378-0.128-2.59,0.892-2.714,2.267
					c-0.123,1.375,0.892,2.59,2.267,2.714c0.334,0.029,0.674,0.047,1.017,0.047c6.791,0,12.315-5.524,12.315-12.315
					S159.811,97.198,153.02,97.198z"/>
			</g>
		</g>
		<g>
			<g>
				<path d="M106.434,119.008c-0.148-1.372-1.38-2.368-2.753-2.218c-0.23,0.024-0.463,0.04-0.7,0.04
					c-4.034,0-7.316-3.281-7.316-7.315s3.282-7.316,7.316-7.316c0.219,0,0.436,0.011,0.649,0.031
					c1.376,0.133,2.596-0.873,2.729-2.248c0.133-1.374-0.874-2.596-2.248-2.729c-0.373-0.036-0.75-0.055-1.131-0.055
					c-6.791,0-12.316,5.525-12.316,12.316s5.525,12.315,12.316,12.315c0.417,0,0.829-0.025,1.234-0.069
					C105.588,121.613,106.582,120.381,106.434,119.008z"/>
			</g>
		</g>
		<g>
			<g>
				<g>
					<path d="M154.006,96.255c-0.041-2.007-1.64-3.625-3.64-3.684c-9.047-0.266-13.653-3.853-15.214-5.382
						c-0.762-0.747-1.822-1.14-2.869-1.071c-1.063,0.065-2.055,0.583-2.72,1.418c0,0.001,0,0.001,0,0.001
						c-7.575,9.528-18.64,8.415-23.044,7.492c-1.114-0.231-2.263,0.045-3.147,0.764c-0.878,0.712-1.382,1.768-1.382,2.911v18.912
						c0,14.343,11.668,26.011,26.01,26.011c14.343,0,26.011-11.668,26.011-26.011V96.674L154.006,96.255z M133.478,90.648
						L133.478,90.648c-0.001,0.002-0.002,0.003-0.003,0.004C133.476,90.651,133.477,90.65,133.478,90.648z M149.011,117.616
						c0,11.585-9.426,21.011-21.011,21.011s-21.01-9.426-21.01-21.011v-17.423c5.226,0.81,17.065,1.279,25.648-8.537
						c2.726,2.304,7.879,5.356,16.373,5.859V117.616z"/>
				</g>
			</g>
		</g>
		<g>
			<g>
				<g>
					<path d="M125.59,153.962l-8.408-8.408c-0.504-0.505-1.193-0.771-1.912-0.729c-0.712,0.042-1.373,0.385-1.815,0.944
						c-0.471,0.595-1.047,1.081-1.689,1.432c-0.168,0.088-1.125,0.563-2.26,1.124c-2.404,1.189-4.989,2.171-7.684,2.918
						c-0.857,0.237-1.523,0.912-1.75,1.772s0.021,1.775,0.65,2.404l11.706,11.706c0.984,0.984,2.276,1.477,3.569,1.477
						s2.586-0.492,3.57-1.477l6.024-6.023C127.559,159.134,127.559,155.931,125.59,153.962z M116.032,163.59
						c-0.019,0.02-0.05,0.019-0.069,0.001l-8.816-8.816c1.576-0.582,3.105-1.24,4.576-1.968c1.25-0.618,2.295-1.139,2.417-1.205
						c0.428-0.234,0.837-0.495,1.225-0.781l6.691,6.747L116.032,163.59z"/>
				</g>
			</g>
		</g>
		<g>
			<g>
				<g>
					<path d="M155.93,153.015c-0.227-0.859-0.893-1.534-1.749-1.772c-2.748-0.763-5.39-1.773-7.853-3.004
						c-1.985-0.992-2.384-1.213-2.418-1.231c-0.496-0.319-0.952-0.739-1.355-1.248c-0.442-0.559-1.104-0.902-1.815-0.943
						c-0.708-0.046-1.407,0.224-1.911,0.729l-8.42,8.419c-1.966,1.968-1.966,5.171,0.001,7.14l6.023,6.023c0,0,0,0.001,0.001,0.001
						c0.983,0.983,2.276,1.475,3.569,1.475s2.586-0.492,3.57-1.476l11.706-11.707C155.908,154.79,156.155,153.875,155.93,153.015z
						 M140.039,163.59c-0.021,0.02-0.051,0.02-0.072,0l-6.022-6.093l6.686-6.685c0.187,0.14,0.378,0.272,0.573,0.398
						c0.162,0.104,0.386,0.248,2.89,1.5c1.532,0.766,3.125,1.454,4.763,2.062L140.039,163.59z"/>
				</g>
			</g>
		</g>
		<g>
			<g>
				<path d="M117.169,136.774c-1.381,0-2.5,1.119-2.5,2.5v3.011c0,1.258-0.431,2.495-1.214,3.483
					c-0.857,1.083-0.675,2.655,0.407,3.513c0.459,0.363,1.007,0.54,1.551,0.54c0.737,0,1.468-0.325,1.961-0.947
					c1.48-1.868,2.295-4.208,2.295-6.589v-3.011C119.669,137.894,118.55,136.774,117.169,136.774z"/>
			</g>
		</g>
		<g>
			<g>
				<path d="M142.557,145.76c-0.802-1.013-1.226-2.214-1.226-3.475v-2.528c0-1.381-1.119-2.5-2.5-2.5s-2.5,1.119-2.5,2.5v2.528
					c0,2.364,0.818,4.7,2.304,6.577c0.494,0.624,1.225,0.949,1.963,0.949c0.543,0,1.09-0.176,1.549-0.539
					C143.229,148.415,143.413,146.843,142.557,145.76z"/>
			</g>
		</g>
		<g>
			<g>
				<path d="M177.568,165.688c-0.289-5.174-3.859-9.5-8.885-10.766l-13.499-3.397c-0.197-0.05-0.393-0.107-0.589-0.164l-0.416-0.119
					c-1.334-0.369-2.707,0.41-3.077,1.741c-0.369,1.33,0.41,2.708,1.741,3.077l0.357,0.103c0.255,0.074,0.51,0.147,0.766,0.212
					l13.496,3.397c2.892,0.728,4.947,3.218,5.11,6.112l0.904,39.814c0.023,0.759-0.256,1.478-0.784,2.022
					c-0.529,0.545-1.238,0.845-1.997,0.845H85.304c-0.759,0-1.468-0.3-1.997-0.845s-0.807-1.264-0.784-2.041l0.901-39.713
					c0.166-2.978,2.22-5.468,5.113-6.195l13.513-3.402c0.248-0.063,0.494-0.133,0.739-0.204l0.364-0.104
					c1.331-0.367,2.112-1.744,1.746-3.075c-0.367-1.331-1.746-2.111-3.075-1.745l-0.425,0.121c-0.19,0.055-0.38,0.11-0.571,0.158
					l-13.512,3.401c-5.026,1.266-8.596,5.593-8.888,10.85l-0.904,39.776c-0.064,2.122,0.715,4.131,2.194,5.654
					c1.479,1.524,3.462,2.363,5.585,2.363h85.393c2.123,0,4.106-0.839,5.585-2.363c1.479-1.524,2.258-3.532,2.194-5.636
					L177.568,165.688z"/>
			</g>
		</g>
		<g>
			<g>
				<path d="M130.653,155.786h-5.487c-1.381,0-2.5,1.119-2.5,2.5s1.119,2.5,2.5,2.5h5.487c1.381,0,2.5-1.119,2.5-2.5
					S132.034,155.786,130.653,155.786z"/>
			</g>
		</g>
		<g>
			<g>
				<path d="M235,153.176c-1.381,0-2.5,1.119-2.5,2.5v30.829c0,1.381,1.119,2.5,2.5,2.5s2.5-1.119,2.5-2.5v-30.829
					C237.5,154.295,236.381,153.176,235,153.176z"/>
			</g>
		</g>
		<g>
			<g>
				<path d="M21,153.176c-1.381,0-2.5,1.119-2.5,2.5v30.829c0,1.381,1.119,2.5,2.5,2.5s2.5-1.119,2.5-2.5v-30.829
					C23.5,154.295,22.381,153.176,21,153.176z"/>
			</g>
		</g>
		<g>
			<g>
				<path d="M157.479,176.176c-1.381,0-2.5,1.119-2.5,2.5v30.829c0,1.381,1.119,2.5,2.5,2.5s2.5-1.119,2.5-2.5v-30.829
					C159.979,177.295,158.86,176.176,157.479,176.176z"/>
			</g>
		</g>
		<g>
			<g>
				<path d="M98.521,176.176c-1.381,0-2.5,1.119-2.5,2.5v30.829c0,1.381,1.119,2.5,2.5,2.5s2.5-1.119,2.5-2.5v-30.829
					C101.021,177.295,99.902,176.176,98.521,176.176z"/>
			</g>
		</g>
		<g>
			<g>
				<path d="M19.917,168.5H3.708c-1.381,0-2.5,1.119-2.5,2.5s1.119,2.5,2.5,2.5h16.208c1.381,0,2.5-1.119,2.5-2.5
					S21.297,168.5,19.917,168.5z"/>
			</g>
		</g>
		<g>
			<g>
				<path d="M252.208,168.5H236c-1.381,0-2.5,1.119-2.5,2.5s1.119,2.5,2.5,2.5h16.208c1.381,0,2.5-1.119,2.5-2.5
					S253.589,168.5,252.208,168.5z"/>
			</g>
		</g>
		<g>
			<g>
				<path d="M174.833,192.075h-16.416c-1.381,0-2.5,1.119-2.5,2.5s1.119,2.5,2.5,2.5h16.416c1.381,0,2.5-1.119,2.5-2.5
					S176.214,192.075,174.833,192.075z"/>
			</g>
		</g>
		<g>
			<g>
				<path d="M97.542,192.075H81.333c-1.381,0-2.5,1.119-2.5,2.5s1.119,2.5,2.5,2.5h16.209c1.381,0,2.5-1.119,2.5-2.5
					S98.923,192.075,97.542,192.075z"/>
			</g>
		</g>
	</g>
</g>
<g id="Layer_54">
</g>
<g id="Layer_55">
</g>
<g id="Layer_56">
</g>
<g id="Layer_57">
</g>
<g id="Layer_58">
</g>
<g id="Layer_59">
</g>
<g id="Layer_60">
</g>
<g id="Layer_61">
</g>
<g id="Layer_62">
</g>
<g id="Layer_63">
</g>
<g id="Layer_64">
</g>
<g id="Layer_65">
</g>
<g id="Layer_66">
</g>
<g id="Layer_67">
</g>
<g id="Layer_68">
</g>
<g id="Layer_69">
</g>
<g id="Layer_70">
</g>
<g id="Layer_71">
</g>
<g id="Layer_72">
</g>
<g id="Layer_73">
</g>
<g id="Layer_74">
</g>
<g id="Layer_75">
</g>
<g id="Layer_76">
</g>
<g id="Layer_77">
</g>
<g id="Layer_78">
</g>
<g id="Layer_79">
</g>
<g id="Layer_80">
</g>
<g id="Layer_81">
</g>
<g id="Layer_82">
</g>
<g id="Layer_83">
</g>
<g id="Layer_84">
</g>
<g id="Layer_85">
</g>
<g id="Layer_86">
</g>
<g id="Layer_87">
</g>
<g id="Layer_88">
</g>
<g id="Layer_89">
</g>
<g id="Layer_90">
</g>
</svg>
