<?xml version="1.0" encoding="utf-8"?>
<!-- Generator: Adobe Illustrator 24.0.0, SVG Export Plug-In . SVG Version: 6.00 Build 0)  -->
<svg version="1.1" xmlns="http://www.w3.org/2000/svg" xmlns:xlink="http://www.w3.org/1999/xlink" x="0px" y="0px"
	 viewBox="0 0 256 256" enable-background="new 0 0 256 256" xml:space="preserve">
<g id="Layer_1">
</g>
<g id="Layer_2">
</g>
<g id="Layer_3">
</g>
<g id="Layer_4">
</g>
<g id="Layer_5">
</g>
<g id="Layer_6">
</g>
<g id="Layer_7">
</g>
<g id="Layer_8">
</g>
<g id="Layer_9">
</g>
<g id="Layer_10">
</g>
<g id="Layer_11">
</g>
<g id="Layer_12">
</g>
<g id="Layer_13">
</g>
<g id="Layer_14">
</g>
<g id="Layer_15">
</g>
<g id="Layer_16">
</g>
<g id="Layer_17">
</g>
<g id="Layer_18">
</g>
<g id="Layer_19">
</g>
<g id="Layer_20">
</g>
<g id="Layer_21">
</g>
<g id="Layer_22">
</g>
<g id="Layer_23">
</g>
<g id="Layer_24">
</g>
<g id="Layer_25">
</g>
<g id="Layer_26">
</g>
<g id="Layer_27">
</g>
<g id="Layer_28">
</g>
<g id="Layer_29">
</g>
<g id="Layer_30">
</g>
<g id="Layer_31">
</g>
<g id="Layer_32">
</g>
<g id="Layer_33">
</g>
<g id="Layer_34">
</g>
<g id="Layer_35">
</g>
<g id="Layer_36">
</g>
<g id="Layer_37">
</g>
<g id="Layer_38">
</g>
<g id="Layer_39">
</g>
<g id="Layer_40">
</g>
<g id="Layer_41">
</g>
<g id="Layer_42">
</g>
<g id="Layer_43">
</g>
<g id="Layer_44">
</g>
<g id="Layer_45">
</g>
<g id="Layer_46">
</g>
<g id="Layer_47">
</g>
<g id="Layer_48">
</g>
<g id="Layer_49">
</g>
<g id="Layer_50">
</g>
<g id="Layer_51">
</g>
<g id="Layer_52">
</g>
<g id="Layer_53">
</g>
<g id="Layer_54">
</g>
<g id="Layer_55">
</g>
<g id="Layer_56">
</g>
<g id="Layer_57">
</g>
<g id="Layer_58">
</g>
<g id="Layer_59">
</g>
<g id="Layer_60">
</g>
<g id="Layer_61">
</g>
<g id="Layer_62">
</g>
<g id="Layer_63">
</g>
<g id="Layer_64">
</g>
<g id="Layer_65">
</g>
<g id="Layer_66">
</g>
<g id="Layer_67">
</g>
<g id="Layer_68">
</g>
<g id="Layer_69">
</g>
<g id="Layer_70">
</g>
<g id="Layer_71">
</g>
<g id="Layer_72">
</g>
<g id="Layer_73">
</g>
<g id="Layer_74">
</g>
<g id="Layer_75">
</g>
<g id="Layer_76">
</g>
<g id="Layer_77">
</g>
<g id="Layer_78">
</g>
<g id="Layer_79">
	<g>
		<g>
			<g>
				<path fill="#FCDD86" d="M72.64,74.14H40.52c-1.629,0-2.95,1.321-2.95,2.95v9.804c0,1.629,1.321,2.95,2.95,2.95h32.12
					c1.629,0,2.95-1.321,2.95-2.95v-9.804C75.589,75.46,74.269,74.14,72.64,74.14z"/>
			</g>
		</g>
		<g>
			<g>
				<path fill="#F5C84C" d="M56.58,63.503c-4.336,0-7.852,3.515-7.852,7.852v2.785h15.704v-2.785
					C64.431,67.018,60.916,63.503,56.58,63.503z"/>
			</g>
		</g>
		<g>
			<g>
				<circle fill="#70D6F9" cx="56.58" cy="154.823" r="54.08"/>
			</g>
		</g>
		<g>
			<g>
				<path fill="#F5C84C" d="M48.728,89.843v11.477c2.565-0.375,5.185-0.577,7.852-0.577s5.287,0.202,7.852,0.577V89.843H48.728z"/>
			</g>
		</g>
		<g>
			<g>
				<path fill="#DAE6F1" d="M92.32,96.252c-2.59-1.514-5.913-0.642-7.424,1.947l-4.675,7.997c3.275,1.599,6.361,3.523,9.226,5.724
					l4.819-8.243C95.779,101.088,94.907,97.764,92.32,96.252z"/>
			</g>
		</g>
		<g>
			<g>
				<path fill="#DAE6F1" d="M28.263,98.199c-1.513-2.588-4.835-3.459-7.424-1.947c-2.587,1.512-3.459,4.836-1.946,7.424l4.819,8.243
					c2.865-2.2,5.951-4.125,9.226-5.724L28.263,98.199z"/>
			</g>
		</g>
		<g>
			<g>
				<path fill="#F5C84C" d="M162.58,100.235h-22.784c-1.836,0-3.324,1.488-3.324,3.323v105.344h29.431V103.558
					C165.904,101.723,164.416,100.235,162.58,100.235z"/>
			</g>
		</g>
		<g>
			<g>
				<path fill="#FCA265" d="M203.33,75.954h-22.784c-1.836,0-3.323,1.488-3.323,3.324v129.625h29.431V79.278
					C206.654,77.442,205.166,75.954,203.33,75.954z"/>
			</g>
		</g>
		<g>
			<g>
				<path fill="#FC657E" d="M244.081,51.051h-22.784c-1.836,0-3.324,1.488-3.324,3.324v154.527h29.431V54.375
					C247.404,52.54,245.916,51.051,244.081,51.051z"/>
			</g>
		</g>
		<g>
			<g>
				<path fill="#B2E26D" d="M121.83,122.874h-21.652c6.583,8.959,10.482,20.005,10.482,31.949c0,14.431-5.693,27.549-14.937,37.256
					v16.823h29.431v-82.705C125.153,124.362,123.665,122.874,121.83,122.874z"/>
			</g>
		</g>
		<g>
			<g>
				<path fill="#FC657E" d="M200.676,16.194L174.8,11.693c-3.329-0.581-6.494,1.65-7.072,4.977
					c-0.579,3.327,1.649,6.494,4.976,7.072l11.33,1.971l-66.07,46.49c-2.762,1.944-3.425,5.759-1.482,8.521
					c1.942,2.759,5.753,3.428,8.521,1.482l66.07-46.49l-1.971,11.331c-0.652,3.745,2.234,7.164,6.031,7.164
					c2.918,0,5.501-2.095,6.017-5.068l4.501-25.875C206.231,19.939,204.003,16.772,200.676,16.194z"/>
			</g>
		</g>
		<g>
			<g>
				<circle fill="#DAE6F1" cx="56.58" cy="154.823" r="42.76"/>
			</g>
		</g>
		<g>
			<g>
				<circle fill="#F98FA6" cx="56.58" cy="154.823" r="7.612"/>
			</g>
		</g>
		<g>
			<g>
				<path fill="#FC657E" d="M79.607,139.568c-5.346-0.188-10.638,1.132-15.271,3.807l-6.763,3.905
					c3.781,0.474,6.619,3.613,6.619,7.543c0,0.993-0.188,1.932-0.519,2.794l6.664-3.847c4.633-2.675,8.421-6.598,10.932-11.322
					C81.949,141.168,81.054,139.619,79.607,139.568z"/>
			</g>
		</g>
		<g>
			<g>
				<path fill="#F5C84C" d="M160.319,237.648c-4.5-0.8-8-4.3-8.9-8.7c0-0.2-0.4-0.2-0.4,0c-0.9,4.4-4.4,7.9-8.9,8.7
					c-0.2,0-0.2,0.3,0,0.4c4.5,0.8,8,4.3,8.9,8.7c0,0.2,0.4,0.2,0.4,0c0.9-4.4,4.4-7.9,8.9-8.7
					C160.519,237.948,160.519,237.648,160.319,237.648z"/>
			</g>
		</g>
		<g>
			<g>
				<path fill="#F5C84C" d="M255.895,30.762c-3.157-0.562-5.613-3.018-6.245-6.104c0-0.141-0.281-0.141-0.281,0
					c-0.631,3.087-3.087,5.543-6.245,6.104c-0.14,0-0.14,0.21,0,0.28c3.157,0.562,5.613,3.018,6.245,6.104
					c0,0.141,0.281,0.141,0.281,0c0.632-3.087,3.087-5.543,6.245-6.104C256.035,30.972,256.035,30.762,255.895,30.762z"/>
			</g>
		</g>
		<g>
			<g>
				<path fill="#87D147" d="M121.219,36.898h-2.3v-2.3c0-1.7-1.4-3.2-3.2-3.2s-3.2,1.4-3.2,3.2v2.3h-2.3c-1.7,0-3.2,1.4-3.2,3.2
					c0,1.8,1.4,3.2,3.2,3.2h2.3v2.3c0,1.7,1.4,3.2,3.2,3.2s3.2-1.4,3.2-3.2v-2.3h2.3c1.7,0,3.2-1.4,3.2-3.2
					C124.419,38.298,123.019,36.898,121.219,36.898z"/>
			</g>
		</g>
		<g>
			<g>
				<path fill="#70D6F9" d="M95.319,56.252c-1.878,0-3.4,1.522-3.4,3.4s1.522,3.4,3.4,3.4c1.878,0,3.4-1.522,3.4-3.4
					S97.196,56.252,95.319,56.252z"/>
			</g>
		</g>
		<g>
			<g>
				<path fill="#FC657E" d="M180.319,222.252c-1.878,0-3.4,1.522-3.4,3.4s1.522,3.4,3.4,3.4c1.878,0,3.4-1.522,3.4-3.4
					S182.196,222.252,180.319,222.252z"/>
			</g>
		</g>
		<g>
			<g>
				<g>
					<path d="M72.64,71.64H40.52c-3.005,0-5.449,2.444-5.449,5.449v9.805c0,3.005,2.444,5.45,5.449,5.45h32.12
						c3.005,0,5.449-2.445,5.449-5.45v-9.805C78.089,74.084,75.645,71.64,72.64,71.64z M73.089,86.894
						c0,0.248-0.201,0.45-0.449,0.45H40.52c-0.248,0-0.449-0.202-0.449-0.45v-9.805c0-0.248,0.201-0.449,0.449-0.449h32.12
						c0.248,0,0.449,0.201,0.449,0.449V86.894z"/>
				</g>
			</g>
		</g>
		<g>
			<g>
				<g>
					<path d="M56.579,61.003c-5.708,0-10.352,4.644-10.352,10.352v2.785c0,1.381,1.119,2.5,2.5,2.5h15.704
						c1.381,0,2.5-1.119,2.5-2.5v-2.785C66.932,65.646,62.287,61.003,56.579,61.003z M61.932,71.64H51.228v-0.285
						c0-2.951,2.4-5.352,5.352-5.352s5.353,2.4,5.353,5.352V71.64z"/>
				</g>
			</g>
		</g>
		<g>
			<g>
				<g>
					<g>
						<g>
							<path d="M56.579,98.243C25.381,98.243,0,123.625,0,154.823s25.381,56.579,56.579,56.579s56.58-25.381,56.58-56.579
								S87.777,98.243,56.579,98.243z M56.579,206.402C28.139,206.402,5,183.264,5,154.823c0-28.441,23.139-51.58,51.579-51.58
								c28.441,0,51.58,23.139,51.58,51.58C108.159,183.264,85.021,206.402,56.579,206.402z"/>
						</g>
					</g>
				</g>
			</g>
		</g>
		<g>
			<g>
				<path d="M64.432,88.206c-1.381,0-2.5,1.119-2.5,2.5v9.586c0,1.381,1.119,2.5,2.5,2.5c1.381,0,2.5-1.119,2.5-2.5v-9.586
					C66.932,89.325,65.812,88.206,64.432,88.206z"/>
			</g>
		</g>
		<g>
			<g>
				<path d="M48.728,88.206c-1.381,0-2.5,1.119-2.5,2.5v9.586c0,1.381,1.119,2.5,2.5,2.5s2.5-1.119,2.5-2.5v-9.586
					C51.228,89.325,50.108,88.206,48.728,88.206z"/>
			</g>
		</g>
		<g>
			<g>
				<path d="M56.579,111.827c-1.381,0-2.5,1.119-2.5,2.5v3.396c0,1.381,1.119,2.5,2.5,2.5s2.5-1.119,2.5-2.5v-3.396
					C59.079,112.946,57.96,111.827,56.579,111.827z"/>
			</g>
		</g>
		<g>
			<g>
				<path d="M56.579,189.423c-1.381,0-2.5,1.119-2.5,2.5v3.396c0,1.381,1.119,2.5,2.5,2.5s2.5-1.119,2.5-2.5v-3.396
					C59.079,190.542,57.96,189.423,56.579,189.423z"/>
			</g>
		</g>
		<g>
			<g>
				<path d="M40.194,121.443l-1.698-2.941c-0.69-1.196-2.221-1.604-3.415-0.915c-1.195,0.69-1.605,2.22-0.915,3.415l1.698,2.941
					c0.463,0.802,1.304,1.25,2.167,1.25c0.425,0,0.854-0.107,1.248-0.335C40.475,124.168,40.885,122.639,40.194,121.443z"/>
			</g>
		</g>
		<g>
			<g>
				<path d="M78.992,188.645l-1.697-2.941c-0.69-1.196-2.218-1.609-3.414-0.916c-1.196,0.689-1.606,2.219-0.916,3.414l1.697,2.941
					c0.463,0.803,1.303,1.251,2.167,1.251c0.424,0,0.854-0.107,1.247-0.335C79.272,191.369,79.683,189.84,78.992,188.645z"/>
			</g>
		</g>
		<g>
			<g>
				<path d="M25.699,134.107l-2.941-1.697c-1.194-0.692-2.724-0.282-3.414,0.916c-0.69,1.195-0.28,2.725,0.916,3.414l2.941,1.697
					c0.394,0.228,0.822,0.335,1.247,0.335c0.864,0,1.704-0.448,2.167-1.251C27.306,136.326,26.896,134.797,25.699,134.107z"/>
			</g>
		</g>
		<g>
			<g>
				<path d="M92.9,172.906l-2.941-1.698c-1.193-0.689-2.724-0.281-3.415,0.915c-0.69,1.195-0.28,2.725,0.915,3.415l2.941,1.698
					c0.394,0.228,0.823,0.335,1.248,0.335c0.863,0,1.704-0.448,2.167-1.25C94.506,175.126,94.096,173.597,92.9,172.906z"/>
			</g>
		</g>
		<g>
			<g>
				<path d="M19.479,152.323h-3.396c-1.381,0-2.5,1.119-2.5,2.5s1.119,2.5,2.5,2.5h3.396c1.381,0,2.5-1.119,2.5-2.5
					S20.86,152.323,19.479,152.323z"/>
			</g>
		</g>
		<g>
			<g>
				<path d="M97.075,152.323H93.68c-1.381,0-2.5,1.119-2.5,2.5s1.119,2.5,2.5,2.5h3.396c1.381,0,2.5-1.119,2.5-2.5
					S98.456,152.323,97.075,152.323z"/>
			</g>
		</g>
		<g>
			<g>
				<path d="M26.615,172.123c-0.691-1.196-2.222-1.604-3.415-0.915l-2.941,1.698c-1.195,0.69-1.605,2.22-0.915,3.415
					c0.463,0.802,1.304,1.25,2.167,1.25c0.425,0,0.854-0.107,1.248-0.335l2.941-1.698C26.896,174.848,27.306,173.318,26.615,172.123
					z"/>
			</g>
		</g>
		<g>
			<g>
				<path d="M93.815,133.326c-0.69-1.197-2.222-1.608-3.414-0.916l-2.941,1.697c-1.196,0.689-1.606,2.219-0.916,3.414
					c0.463,0.803,1.303,1.251,2.167,1.251c0.424,0,0.854-0.107,1.247-0.335l2.941-1.697
					C94.096,136.051,94.506,134.521,93.815,133.326z"/>
			</g>
		</g>
		<g>
			<g>
				<path d="M93.815,133.326c-0.69-1.197-2.222-1.608-3.414-0.916l-2.941,1.697c-1.196,0.689-1.606,2.219-0.916,3.414
					c0.463,0.803,1.303,1.251,2.167,1.251c0.424,0,0.854-0.107,1.247-0.335l2.941-1.697
					C94.096,136.051,94.506,134.521,93.815,133.326z"/>
			</g>
		</g>
		<g>
			<g>
				<path d="M39.279,184.787c-1.193-0.69-2.724-0.281-3.415,0.915l-1.698,2.941c-0.69,1.195-0.28,2.725,0.915,3.415
					c0.394,0.228,0.823,0.335,1.248,0.335c0.863,0,1.704-0.448,2.167-1.25l1.698-2.941
					C40.885,187.007,40.475,185.478,39.279,184.787z"/>
			</g>
		</g>
		<g>
			<g>
				<path d="M78.076,117.587c-1.194-0.689-2.724-0.281-3.414,0.916l-1.697,2.941c-0.69,1.195-0.28,2.725,0.916,3.414
					c0.394,0.228,0.822,0.335,1.247,0.335c0.863,0,1.704-0.448,2.167-1.251l1.697-2.941
					C79.683,119.806,79.272,118.276,78.076,117.587z"/>
			</g>
		</g>
		<g>
			<g>
				<path d="M97.249,98.926c-0.537-2.048-1.84-3.764-3.667-4.832c-1.829-1.069-3.962-1.364-6.013-0.825
					c-2.048,0.537-3.765,1.84-4.832,3.668l-4.137,7.078c-0.697,1.192-0.295,2.724,0.896,3.42c1.191,0.7,2.724,0.295,3.42-0.896
					l4.137-7.079c0.395-0.675,1.028-1.155,1.784-1.354c0.756-0.2,1.545-0.09,2.221,0.305c0.675,0.395,1.155,1.028,1.354,1.784
					c0.199,0.757,0.091,1.545-0.304,2.22l-4.537,7.762c-0.697,1.192-0.296,2.724,0.896,3.42c0.396,0.232,0.831,0.342,1.26,0.342
					c0.858,0,1.695-0.443,2.16-1.238l4.537-7.762C97.493,103.109,97.786,100.975,97.249,98.926z"/>
			</g>
		</g>
		<g>
			<g>
				<path d="M34.652,104.174l-4.231-7.237c-2.206-3.772-7.068-5.049-10.844-2.843c-1.827,1.068-3.13,2.784-3.667,4.832
					c-0.537,2.049-0.244,4.184,0.824,6.012l4.449,7.61c0.465,0.795,1.302,1.238,2.16,1.238c0.429,0,0.863-0.11,1.26-0.342
					c1.192-0.697,1.594-2.228,0.896-3.42l-4.449-7.61c-0.395-0.675-0.503-1.463-0.304-2.22c0.198-0.756,0.679-1.39,1.354-1.784
					c1.394-0.815,3.189-0.342,4.004,1.05l4.231,7.237c0.696,1.192,2.229,1.591,3.42,0.896
					C34.948,106.896,35.35,105.365,34.652,104.174z"/>
			</g>
		</g>
		<g>
			<g>
				<g>
					<path d="M162.58,97.734h-22.784c-3.211,0-5.823,2.612-5.823,5.824v105.344c0,1.381,1.119,2.5,2.5,2.5h29.431
						c1.381,0,2.5-1.119,2.5-2.5V103.559C168.403,100.347,165.791,97.734,162.58,97.734z M163.403,206.402h-24.431V103.559
						c0-0.454,0.369-0.824,0.823-0.824h22.784c0.454,0,0.823,0.37,0.823,0.824V206.402z"/>
				</g>
			</g>
		</g>
		<g>
			<g>
				<g>
					<path d="M203.33,73.454h-22.783c-3.212,0-5.824,2.612-5.824,5.824v129.624c0,1.381,1.119,2.5,2.5,2.5h29.432
						c1.381,0,2.5-1.119,2.5-2.5V79.278C209.154,76.066,206.542,73.454,203.33,73.454z M204.154,206.402h-24.432V79.278
						c0-0.454,0.37-0.824,0.824-0.824h22.783c0.454,0,0.824,0.37,0.824,0.824V206.402z"/>
				</g>
			</g>
		</g>
		<g>
			<g>
				<g>
					<g>
						<path d="M244.081,48.552h-22.784c-3.211,0-5.823,2.612-5.823,5.823v154.527c0,1.381,1.119,2.5,2.5,2.5h29.431
							c1.381,0,2.5-1.119,2.5-2.5V54.375C249.904,51.164,247.292,48.552,244.081,48.552z M244.904,206.402h-24.431V54.375
							c0-0.454,0.369-0.823,0.823-0.823h22.784c0.454,0,0.823,0.369,0.823,0.823V206.402z"/>
					</g>
				</g>
			</g>
		</g>
		<g>
			<g>
				<path d="M121.83,120.374h-21.301c-1.381,0-2.5,1.119-2.5,2.5s1.119,2.5,2.5,2.5h21.301c0.454,0,0.823,0.369,0.823,0.823v80.205
					H98.223v-13.907c0-1.381-1.119-2.5-2.5-2.5s-2.5,1.119-2.5,2.5v16.407c0,1.381,1.119,2.5,2.5,2.5h29.431
					c1.381,0,2.5-1.119,2.5-2.5v-82.705C127.653,122.986,125.041,120.374,121.83,120.374z"/>
			</g>
		</g>
		<g>
			<g>
				<g>
					<path d="M206.674,17.261c-1.324-1.882-3.303-3.136-5.569-3.529L175.23,9.23c-2.264-0.392-4.554,0.115-6.438,1.441
						c-1.881,1.324-3.134,3.303-3.528,5.569c-0.395,2.268,0.117,4.553,1.441,6.435c1.325,1.882,3.303,3.136,5.569,3.529l5.384,0.937
						l-61.135,43.018c-3.884,2.734-4.819,8.119-2.086,12.004c1.676,2.38,4.347,3.653,7.059,3.653c1.712,0,3.44-0.508,4.944-1.565
						l61.135-43.018l-0.937,5.384c-0.438,2.511,0.252,5.069,1.893,7.02c1.642,1.953,4.049,3.073,6.602,3.073
						c4.195,0,7.762-3.003,8.48-7.14l4.5-25.874C208.51,21.429,207.998,19.144,206.674,17.261z M203.188,22.838l-4.5,25.876
						c-0.302,1.736-1.797,2.996-3.555,2.996c-1.073,0-2.085-0.471-2.775-1.291c-0.688-0.818-0.977-1.891-0.793-2.944l1.971-11.33
						c0.174-0.996-0.271-1.999-1.125-2.54c-0.854-0.542-1.949-0.516-2.776,0.066l-66.07,46.49c-1.629,1.146-3.89,0.753-5.037-0.876
						c-1.147-1.63-0.755-3.891,0.875-5.037l66.07-46.49c0.827-0.582,1.222-1.605,1.001-2.592s-1.015-1.743-2.011-1.916
						l-11.331-1.971c-0.951-0.165-1.78-0.691-2.336-1.481c-0.556-0.789-0.771-1.748-0.605-2.699
						c0.166-0.952,0.691-1.782,1.481-2.338c0.615-0.434,1.333-0.659,2.07-0.659c0.209,0,0.42,0.019,0.63,0.055l25.875,4.501h0.001
						c0.951,0.165,1.78,0.691,2.336,1.48C203.14,20.928,203.354,21.887,203.188,22.838z"/>
				</g>
			</g>
		</g>
		<g>
			<g>
				<g>
					<path d="M56.579,109.563c-24.956,0-45.26,20.304-45.26,45.261c0,24.956,20.304,45.26,45.26,45.26
						c24.957,0,45.261-20.304,45.261-45.26C101.84,129.866,81.536,109.563,56.579,109.563z M56.579,195.083
						c-22.199,0-40.26-18.061-40.26-40.26c0-22.2,18.061-40.261,40.26-40.261c22.2,0,40.261,18.061,40.261,40.261
						C96.84,177.022,78.779,195.083,56.579,195.083z"/>
				</g>
			</g>
		</g>
		<g>
			<g>
				<g>
					<path d="M56.579,144.711c-5.67,0-10.111,4.441-10.111,10.112c0,5.67,4.441,10.111,10.111,10.111
						c5.671,0,10.112-4.441,10.112-10.111C66.691,149.152,62.25,144.711,56.579,144.711z M56.579,159.935
						c-2.866,0-5.111-2.245-5.111-5.111c0-2.867,2.245-5.112,5.111-5.112c2.867,0,5.112,2.245,5.112,5.112
						C61.691,157.689,59.446,159.935,56.579,159.935z"/>
				</g>
			</g>
		</g>
		<g>
			<g>
				<path d="M83.401,139.299c-0.773-1.342-2.159-2.175-3.707-2.229c-5.818-0.222-11.564,1.228-16.609,4.14l-6.291,3.633
					c-1.196,0.69-1.605,2.22-0.915,3.415c0.69,1.196,2.221,1.605,3.415,0.915l6.291-3.633c3.968-2.29,8.45-3.489,13.019-3.489h0.027
					c-2.284,3.967-5.568,7.259-9.544,9.554l-6.146,3.548c-1.195,0.69-1.605,2.219-0.915,3.415c0.463,0.802,1.304,1.25,2.167,1.25
					c0.425,0,0.854-0.107,1.248-0.335l6.146-3.548c5.045-2.913,9.156-7.171,11.889-12.313
					C84.203,142.256,84.175,140.64,83.401,139.299z"/>
			</g>
		</g>
	</g>
</g>
<g id="Layer_80">
</g>
<g id="Layer_81">
</g>
<g id="Layer_82">
</g>
<g id="Layer_83">
</g>
<g id="Layer_84">
</g>
<g id="Layer_85">
</g>
<g id="Layer_86">
</g>
<g id="Layer_87">
</g>
<g id="Layer_88">
</g>
<g id="Layer_89">
</g>
<g id="Layer_90">
</g>
</svg>
