<svg id="icons" xmlns="http://www.w3.org/2000/svg" viewBox="0 0 64 64"><defs><style>.cls-1{fill:none;stroke:#000;stroke-linecap:round;stroke-linejoin:round;}</style></defs><title>tomato</title><g id="tomato"><path class="cls-1" d="M41.41556,16.19267h.014c9.67446,3.36442,17.26885,11.81039,16.02639,21.792C55.96216,50.04633,44.82186,60,32.66247,60,20.517,60,7.50606,50.10217,6.473,37.98465c-.82366-9.64655,6.61716-17.89707,16.01243-21.45694"/><path class="cls-1" d="M31.95372,15.12542s-7.56534-4.47531-12.20358,0c0,0,2.0099,2.07889,6.72545,1.76968,0,0-3.556,2.62833-3.40138,5.95241a9.92116,9.92116,0,0,0,6.33894-3.40138s.28829,5.334,2.54057,6.26163c0,0,3.02532-2.75375,2.40689-6.28568,0,0,3.7879,4.12117,6.33893,3.11621,0,0-1.005-5.25667-3.40138-5.87511,0,0,5.7205,0,6.95737-2.0099C44.25553,14.65328,36.73611,10.72741,31.95372,15.12542Z"/><path class="cls-1" d="M30.528,14.42271a11.98341,11.98341,0,0,0-2.206-7.60623,1.74958,1.74958,0,0,1,.25673-2.42618h0a1.72931,1.72931,0,0,1,2.57378.442,17.81052,17.81052,0,0,1,2.59786,9.06382"/><path class="cls-1" d="M48.11667,24.73422s3.141,3.53362,3.92624,6.67461"/><path class="cls-1" d="M52.82816,34.54982a7.63083,7.63083,0,0,1,0,2.74631"/><path class="cls-1" d="M15.0482,47.49366s4.20164,4.97972,9.337,7.15834"/></g></svg>