<svg xmlns="http://www.w3.org/2000/svg" width="128" height="128" viewBox="0 0 128 128">
  <title>TOOL BELT</title>
  <g>
    <g>
      <polygon points="111.95 51.893 111.95 52.006 106.596 55.354 106.596 61.419 98.482 61.419 98.482 55.354 93.128 52.006 93.128 51.893 84.641 51.893 84.641 66.887 126.25 66.887 126.25 51.893 111.95 51.893" fill="#57555c"/>
      <polygon points="16.05 51.893 16.05 52.006 21.404 55.354 21.404 61.419 29.518 61.419 29.518 55.354 34.872 52.006 34.872 51.893 43.359 51.893 43.359 66.887 1.75 66.887 1.75 51.893 16.05 51.893" fill="#57555c"/>
      <path d="M48.359,41.893H79.641a5,5,0,0,1,5,5V66.887a0,0,0,0,1,0,0H43.359a0,0,0,0,1,0,0V46.893A5,5,0,0,1,48.359,41.893Z" fill="#6e77e5"/>
      <rect x="51.359" y="49.893" width="25.281" height="8.994" fill="#485ad8"/>
      <rect x="84.641" y="66.887" width="35.797" height="12.318" fill="#e5e5e5"/>
      <path d="M84.641,79.206v10.3a7,7,0,0,0,3.136,5.837l4.774,3.161a7,7,0,0,1,3.136,5.837v4.921a12.375,12.375,0,0,0,24.75,0V79.206Z" fill="#57555c"/>
      <rect x="7.562" y="66.887" width="35.797" height="12.318" fill="#e5e5e5"/>
      <path d="M43.359,79.206v10.3a7,7,0,0,1-3.136,5.837l-4.774,3.161a7,7,0,0,0-3.137,5.837v4.921a12.375,12.375,0,1,1-24.75,0V79.206Z" fill="#57555c"/>
      <polygon points="94.061 79.206 111.017 79.206 109.091 66.887 95.988 66.887 94.061 79.206" fill="#896748"/>
      <path d="M91.651,61.419h21.775a0,0,0,0,1,0,0v3.73a1.728,1.728,0,0,1-1.728,1.728H93.38a1.728,1.728,0,0,1-1.728-1.728v-3.73A0,0,0,0,1,91.651,61.419Z" fill="#fedb41"/>
      <rect x="98.482" y="11.716" width="8.114" height="49.703" fill="#aeadb3"/>
      <polygon points="93.128 6.362 93.128 52.006 98.482 55.354 98.482 11.716 106.596 11.716 106.596 55.354 111.95 52.006 111.95 6.362 93.128 6.362" fill="#e5e5e5"/>
      <polygon points="33.939 79.206 16.983 79.206 18.909 66.887 32.012 66.887 33.939 79.206" fill="#896748"/>
      <path d="M16.3,61.419H34.62a1.728,1.728,0,0,1,1.728,1.728v3.73a0,0,0,0,1,0,0H14.573a0,0,0,0,1,0,0v-3.73A1.728,1.728,0,0,1,16.3,61.419Z" transform="translate(50.922 128.296) rotate(180)" fill="#fedb41"/>
      <rect x="21.404" y="11.716" width="8.114" height="49.703" fill="#aeadb3"/>
      <polygon points="34.872 6.362 34.872 52.006 29.518 55.354 29.518 11.716 21.404 11.716 21.404 55.354 16.05 52.006 16.05 6.362 34.872 6.362" fill="#e5e5e5"/>
    </g>
    <g>
      <path d="M76.641,48.143H51.359a1.75,1.75,0,0,0-1.75,1.75v8.994a1.75,1.75,0,0,0,3.5,0V51.643H74.891v5.494H62.25a1.75,1.75,0,0,0,0,3.5H76.641a1.751,1.751,0,0,0,1.75-1.75V49.893A1.75,1.75,0,0,0,76.641,48.143Z"/>
      <path d="M93.128,30.813a1.75,1.75,0,0,0,1.75-1.75V26.625a1.75,1.75,0,0,0-3.5,0v2.438A1.75,1.75,0,0,0,93.128,30.813Z"/>
      <path d="M126.25,50.143H113.7V6.362a1.75,1.75,0,0,0-1.75-1.75H93.128a1.75,1.75,0,0,0-1.75,1.75v9.013a1.75,1.75,0,0,0,3.5,0V8.112H110.2V51.036L108.347,52.2V11.716a1.75,1.75,0,0,0-1.75-1.75H98.482a1.75,1.75,0,0,0-1.75,1.75V52.2l-1.854-1.16V40.313a1.75,1.75,0,0,0-3.5,0v9.83H86.391v-3.25a6.758,6.758,0,0,0-6.75-6.75H48.359a6.758,6.758,0,0,0-6.75,6.75v3.25H36.622V6.362a1.75,1.75,0,0,0-1.75-1.75H16.05a1.75,1.75,0,0,0-1.75,1.75V50.143H1.75A1.749,1.749,0,0,0,0,51.893V66.887a1.75,1.75,0,0,0,1.75,1.75H5.812v40.626a14.125,14.125,0,1,0,28.25,0v-4.921a5.236,5.236,0,0,1,2.352-4.378l4.774-3.16a8.728,8.728,0,0,0,3.921-7.3V68.638H82.891V89.507a8.726,8.726,0,0,0,3.92,7.3l4.775,3.161a5.235,5.235,0,0,1,2.351,4.378v4.921a14.125,14.125,0,0,0,28.25,0V68.637h4.063a1.75,1.75,0,0,0,1.75-1.75V51.893A1.749,1.749,0,0,0,126.25,50.143ZM108.972,77.455H96.106l1.379-8.818h10.108Zm-22.581,0V68.637h7.552l-1.379,8.818ZM93.4,65.137V63.169h18.285l.012,1.958Zm6.831-51.671h4.615v46.2h-4.615v-46.2ZM92.444,53.643l4.288,2.681v3.345H91.651a1.75,1.75,0,0,0-1.75,1.75v3.718h-3.51V53.643ZM20.407,68.637H30.515l1.379,8.818H19.028Zm2.746-55.171h4.615v46.2H23.153Zm11.455,49.7.012,1.958-18.3.01V63.169Zm.828,14.286-1.379-8.818h7.552v8.818Zm6.173-12.318H38.1V61.419a1.75,1.75,0,0,0-1.75-1.75H31.268V56.324l4.288-2.681h6.053ZM17.8,8.112H33.122V51.036L31.268,52.2V11.716a1.75,1.75,0,0,0-1.75-1.75H21.4a1.749,1.749,0,0,0-1.75,1.75V52.2L17.8,51.036ZM3.5,53.643H15.366l4.287,2.681v3.345h-5.08a1.749,1.749,0,0,0-1.75,1.75v3.718H3.5ZM16.865,68.637l-1.379,8.818H9.312V68.637Zm24.744,20.87a5.238,5.238,0,0,1-2.352,4.378l-4.775,3.161a8.727,8.727,0,0,0-3.92,7.3v4.921a10.625,10.625,0,0,1-21.25,0V80.955h32.3Zm3.5-42.614a3.254,3.254,0,0,1,3.25-3.25H79.641a3.254,3.254,0,0,1,3.25,3.25V65.138H45.109Zm73.578,62.37a10.625,10.625,0,0,1-21.25,0v-4.921a8.726,8.726,0,0,0-3.919-7.3l-4.775-3.162a5.232,5.232,0,0,1-2.352-4.377V80.955h32.3Zm0-31.808h-6.173l-1.379-8.818h7.552ZM124.5,65.137h-9.323V61.419a1.749,1.749,0,0,0-1.75-1.75h-5.08V56.324l4.287-2.681H124.5Z"/>
    </g>
  </g>
</svg>
