<svg xmlns="http://www.w3.org/2000/svg" width="128" height="128" viewBox="0 0 128 128">
  <title>TOOL BOX</title>
  <g>
    <g>
      <rect x="1.75" y="59.5" width="124.5" height="14.994" rx="3" fill="#fedb41"/>
      <polygon points="107.117 32.009 20.883 32.009 10.875 59.5 117.125 59.5 107.117 32.009" fill="#57555c"/>
      <path d="M10.875,74.494h106.25a0,0,0,0,1,0,0V109a9,9,0,0,1-9,9H19.875a9,9,0,0,1-9-9V74.494A0,0,0,0,1,10.875,74.494Z" fill="#57555c"/>
      <path d="M94.906,32.009h-8V19a1,1,0,0,0-1-1H42.094a1,1,0,0,0-1,1V32.009h-8V19a9.01,9.01,0,0,1,9-9H85.906a9.01,9.01,0,0,1,9,9Z" fill="#6e77e5"/>
      <path d="M50.219,74.494H77.781a0,0,0,0,1,0,0V91.247a5,5,0,0,1-5,5H55.219a5,5,0,0,1-5-5V74.494A0,0,0,0,1,50.219,74.494Z" fill="#6ecd24"/>
      <path d="M69.125,87.121H58.875a1.75,1.75,0,1,1,0-3.5h10.25a1.75,1.75,0,0,1,0,3.5Z" fill="#52af00"/>
    </g>
    <g>
      <path d="M123.25,57.75h-4.9l-9.588-26.34a1.751,1.751,0,0,0-1.645-1.151H96.656V19A10.762,10.762,0,0,0,85.906,8.25H42.094A10.762,10.762,0,0,0,31.344,19V30.259H20.883a1.751,1.751,0,0,0-1.645,1.151L9.65,57.75H4.75A4.756,4.756,0,0,0,0,62.5v8.994a4.756,4.756,0,0,0,4.75,4.75H9.125V109a10.762,10.762,0,0,0,10.75,10.75H85.25a1.75,1.75,0,0,0,0-3.5H19.875a7.258,7.258,0,0,1-7.25-7.25V76.244H48.469v15A6.758,6.758,0,0,0,55.219,98H72.781a6.758,6.758,0,0,0,6.75-6.75v-15h35.844V109a7.258,7.258,0,0,1-7.25,7.25H98.063a1.75,1.75,0,1,0,0,3.5h10.062A10.762,10.762,0,0,0,118.875,109V76.244h4.375a4.756,4.756,0,0,0,4.75-4.75V62.5A4.756,4.756,0,0,0,123.25,57.75ZM34.844,19a7.258,7.258,0,0,1,7.25-7.25H85.906A7.258,7.258,0,0,1,93.156,19V30.259h-4.5V19a2.753,2.753,0,0,0-2.75-2.75H42.094A2.753,2.753,0,0,0,39.344,19V30.259h-4.5Zm8,11.259V19.75H85.156V30.259ZM76.031,91.247a3.254,3.254,0,0,1-3.25,3.25H55.219a3.254,3.254,0,0,1-3.25-3.25v-15H76.031ZM124.5,71.494a1.251,1.251,0,0,1-1.25,1.25H4.75a1.251,1.251,0,0,1-1.25-1.25V62.5a1.251,1.251,0,0,1,1.25-1.25H23a1.75,1.75,0,0,0,0-3.5H13.374l8.734-23.991h83.784l8.733,23.991H55.25a1.75,1.75,0,0,0,0,3.5h68a1.251,1.251,0,0,1,1.25,1.25Z"/>
      <path d="M42.125,57.75h-6a1.75,1.75,0,0,0,0,3.5h6a1.75,1.75,0,0,0,0-3.5Z"/>
      <path d="M58.875,87.121h10.25a1.75,1.75,0,0,0,0-3.5H58.875a1.75,1.75,0,1,0,0,3.5Z"/>
    </g>
  </g>
</svg>
