<?xml version="1.0" encoding="utf-8"?>
<!-- Generator: Adobe Illustrator 16.0.0, SVG Export Plug-In . SVG Version: 6.00 Build 0)  -->
<!DOCTYPE svg PUBLIC "-//W3C//DTD SVG 1.0//EN" "http://www.w3.org/TR/2001/REC-SVG-20010904/DTD/svg10.dtd">
<svg version="1.0" id="Layer_1" xmlns="http://www.w3.org/2000/svg" xmlns:xlink="http://www.w3.org/1999/xlink" x="0px" y="0px"
	 width="100px" height="100px" viewBox="0 0 100 100" enable-background="new 0 0 100 100" xml:space="preserve">
<path d="M62.894,34.186l6.54,1.303l3.899-19.615l-6.536-1.303l0.647-3.268L60.908,10l-7.959,40h-4.993l-0.41-2.07
	c-0.355-1.797-1.709-4.33-3.002-5.625l-3.782-3.789c-1.292-1.295-2.646-3.834-3.005-5.631l6.54-1.299l-3.903-19.617l-6.539,1.299
	L33.203,10l-6.536,1.303l4.551,22.883c0.618,3.094,2.601,6.811,4.824,9.037l3.775,3.783c0.391,0.41,1.068,1.682,1.191,2.227
	L41.162,50H30l6.667,40h26.666L70,50H59.749L62.894,34.186z M62.129,56.666l-4.443,26.667H42.314l-4.443-26.667H62.129z"/>
</svg>
