<?xml version="1.0" encoding="utf-8"?>
<!-- Generator: Adobe Illustrator 16.0.0, SVG Export Plug-In . SVG Version: 6.00 Build 0)  -->
<!DOCTYPE svg PUBLIC "-//W3C//DTD SVG 1.0//EN" "http://www.w3.org/TR/2001/REC-SVG-20010904/DTD/svg10.dtd">
<svg version="1.0" id="Layer_1" xmlns="http://www.w3.org/2000/svg" xmlns:xlink="http://www.w3.org/1999/xlink" x="0px" y="0px"
	 width="100px" height="100px" viewBox="0 0 100 100" enable-background="new 0 0 100 100" xml:space="preserve">
<path d="M86.667,36.667h-5.736C86.478,31.78,90,24.642,90,16.667h-6.667c0,3.685-2.984,6.666-6.666,6.666H50
	c-7.363,0-13.333,5.971-13.333,13.334h-3.334C31.491,36.667,30,38.157,30,40v16.667H10v6.666h73.333V70
	c0,3.685-2.988,6.667-6.666,6.667h-30c-0.808,0-2.611-0.427-3.334-0.788l-7.369-3.685C33.379,70.901,29.558,70,26.667,70H10v6.667
	h16.667c1.832,0,4.674,0.67,6.314,1.49l7.37,3.686c1.641,0.82,4.482,1.49,6.315,1.49h30C84.03,83.333,90,77.366,90,70V40
	C90,38.157,88.509,36.667,86.667,36.667z M43.333,56.667h-6.666V43.333h6.666V56.667z M50,30h26.667c0.56,0,1.109-0.032,1.653-0.104
	c-3.669,4.15-9.026,6.771-14.987,6.771h-20C43.333,32.988,46.321,30,50,30z M56.667,56.667H50V43.333h6.667V56.667z M70,56.667
	h-6.667V43.333H70V56.667z M83.333,56.667h-6.666V43.333h6.666V56.667z"/>
</svg>
