<?xml version="1.0" encoding="utf-8"?>
<!-- Generator: Adobe Illustrator 16.0.0, SVG Export Plug-In . SVG Version: 6.00 Build 0)  -->
<!DOCTYPE svg PUBLIC "-//W3C//DTD SVG 1.0//EN" "http://www.w3.org/TR/2001/REC-SVG-20010904/DTD/svg10.dtd">
<svg version="1.0" id="Layer_1" xmlns="http://www.w3.org/2000/svg" xmlns:xlink="http://www.w3.org/1999/xlink" x="0px" y="0px"
	 width="100px" height="100px" viewBox="0 0 100 100" enable-background="new 0 0 100 100" xml:space="preserve">
<path d="M50,10.084c-22.09,0-40,17.91-40,40c0,20.964,16.14,38.134,36.667,39.832V70.348c-5.769,0.77-11.104,3.363-15.287,7.543
	l-4.713-4.713c1.78-1.781,3.724-3.295,5.768-4.59C25.149,65.6,20,58.434,20,50.084h6.667c0,7.363,5.97,13.333,13.333,13.333h6.667
	v-10c-11.029,0-20-8.971-20-20h6.666c0,7.36,5.971,13.334,13.334,13.334v-6.433c0-7.122-2.773-13.821-7.807-18.854l4.714-4.713
	c3.757,3.756,6.396,8.203,7.981,12.923c1.387-2.272,3.005-4.385,4.877-6.257l4.713,4.714c-3.353,3.353-5.677,7.451-6.875,11.907
	c6.771-0.234,13.105-2.949,17.917-7.76l4.714,4.713c-6.501,6.504-15.026,9.756-23.559,9.76c0,0.078-0.01,0.152-0.01,0.23v15.963
	c5.739-1.486,10-6.656,10-12.861H70c0,4.828-1.719,9.257-4.573,12.718c4.961-1.068,9.521-3.52,13.193-7.191l4.713,4.715
	c-6.504,6.504-15.032,9.758-23.567,9.758h-6.433v19.832C73.86,88.219,90,71.049,90,50.084C90,27.995,72.09,10.084,50,10.084z"/>
</svg>
