<?xml version="1.0" encoding="utf-8"?>
<!-- Generator: Adobe Illustrator 16.0.0, SVG Export Plug-In . SVG Version: 6.00 Build 0)  -->
<!DOCTYPE svg PUBLIC "-//W3C//DTD SVG 1.0//EN" "http://www.w3.org/TR/2001/REC-SVG-20010904/DTD/svg10.dtd">
<svg version="1.0" id="Layer_1" xmlns="http://www.w3.org/2000/svg" xmlns:xlink="http://www.w3.org/1999/xlink" x="0px" y="0px"
	 width="100px" height="100px" viewBox="0 0 100 100" enable-background="new 0 0 100 100" xml:space="preserve">
<path d="M73.333,30.007L70,30c0-11.045-8.955-20-20-20s-20,8.955-20,20c-11.045,0-20,8.955-20,20s8.955,20,20,20
	c0,3.682,2.988,6.667,6.667,6.667H40V90h6.667V60c0-3.685-2.985-6.67-6.667-6.67H23.333v-6.663H40c2.441,0,4.7,0.703,6.667,1.849
	V23.333h6.666v25.124c3.542-3.177,8.203-5.124,13.334-5.124h10V50h-10c-7.36,0-13.334,5.967-13.334,13.333V90H60V76.673
	c7.363,0,13.333-5.973,13.333-13.333C82.539,63.34,90,55.872,90,46.673C90,37.468,82.539,30.007,73.333,30.007z"/>
</svg>
