<svg xmlns="http://www.w3.org/2000/svg" width="128" height="128" viewBox="0 0 128 128">
  <title>TRUCK</title>
  <g>
    <g>
      <rect x="1.75" y="60.037" width="82.254" height="11.494" fill="#6e77e5"/>
      <path d="M84,32.406H111.25a15,15,0,0,1,15,15V71.531a0,0,0,0,1,0,0H84a0,0,0,0,1,0,0V32.406A0,0,0,0,1,84,32.406Z" fill="#fedb41"/>
      <path d="M118.25,47.406a7.008,7.008,0,0,0-7-7H92V51.968H118.25Z" fill="#fea832"/>
      <path d="M96.75,62.53H92a1.75,1.75,0,1,1,0-3.5H96.75a1.75,1.75,0,0,1,0,3.5Z" fill="#6e77e5"/>
      <rect x="1.75" y="71.531" width="124.5" height="7.875" fill="#3c3a41"/>
      <path d="M88.822,79.406a11.031,11.031,0,1,0,19.5,0Z" fill="#57555c"/>
      <path d="M14.908,79.406a11.031,11.031,0,1,0,19.5,0Z" fill="#57555c"/>
      <rect x="11.625" y="46.187" width="72.379" height="13.85" fill="#896748"/>
      <rect x="11.625" y="32.406" width="72.379" height="13.85" fill="#73553a"/>
      <path d="M23,56.359a1.75,1.75,0,1,0,0-3.5H11.625v3.5Z" fill="#73553a"/>
      <path d="M59.75,54.234h-20a1.75,1.75,0,0,1,0-3.5h20a1.75,1.75,0,0,1,0,3.5Z" fill="#73553a"/>
      <path d="M84,37.58H65.5a1.75,1.75,0,0,0,0,3.5H84Z" fill="#5d452f"/>
      <path d="M37.125,39.484h-11.5a1.75,1.75,0,0,1,0-3.5h11.5a1.75,1.75,0,0,1,0,3.5Z" fill="#5d452f"/>
    </g>
    <g>
      <path d="M31.375,69.78H28.937a1.75,1.75,0,1,0,0,3.5h2.438a1.75,1.75,0,0,0,0-3.5Z"/>
      <path d="M111.25,30.655H11.625a1.751,1.751,0,0,0-1.75,1.75V58.287H1.75A1.75,1.75,0,0,0,0,60.037V79.405a1.75,1.75,0,0,0,1.75,1.75H12.357a12.781,12.781,0,1,0,24.6,0H86.27a12.782,12.782,0,1,0,24.6,0H126.25a1.749,1.749,0,0,0,1.75-1.75v-32A16.769,16.769,0,0,0,111.25,30.655Zm13.25,16.75V69.78H85.754V34.155h25.5A13.266,13.266,0,0,1,124.5,47.405ZM82.254,34.155V37.58H65.5a1.75,1.75,0,0,0,0,3.5H82.254v3.356H13.375V34.155Zm-68.879,22.2H23a1.75,1.75,0,1,0,0-3.5H13.375V48.006H82.254V58.287H13.375Zm20.562,28.2a9.281,9.281,0,0,1-18.562,0,9.159,9.159,0,0,1,.649-3.409H33.289A9.158,9.158,0,0,1,33.937,84.564Zm73.914,0a9.282,9.282,0,0,1-18.563,0,9.178,9.178,0,0,1,.648-3.409H107.2A9.174,9.174,0,0,1,107.851,84.564ZM3.5,77.655V73.28H18.187a1.75,1.75,0,0,0,0-3.5H3.5V61.787H82.254V69.78H42.125a1.75,1.75,0,0,0,0,3.5H124.5v4.375Z"/>
      <path d="M92,53.718H118.25a1.749,1.749,0,0,0,1.75-1.75V47.405a1.75,1.75,0,0,0-3.5,0v2.813H93.754V42.155H109a1.75,1.75,0,0,0,0-3.5H92a1.75,1.75,0,0,0-1.75,1.75V51.968A1.749,1.749,0,0,0,92,53.718Z"/>
      <path d="M92,62.53H96.75a1.75,1.75,0,0,0,0-3.5H92a1.75,1.75,0,1,0,0,3.5Z"/>
      <path d="M59.75,50.734h-20a1.75,1.75,0,0,0,0,3.5h20a1.75,1.75,0,0,0,0-3.5Z"/>
      <path d="M25.625,39.484h11.5a1.75,1.75,0,0,0,0-3.5h-11.5a1.75,1.75,0,0,0,0,3.5Z"/>
    </g>
  </g>
</svg>
