<?xml version="1.0" encoding="utf-8"?>
<!-- Generator: Adobe Illustrator 24.0.0, SVG Export Plug-In . SVG Version: 6.00 Build 0)  -->
<svg version="1.1" xmlns="http://www.w3.org/2000/svg" xmlns:xlink="http://www.w3.org/1999/xlink" x="0px" y="0px"
	 viewBox="0 0 256 256" enable-background="new 0 0 256 256" xml:space="preserve">
<g id="Layer_1">
</g>
<g id="Layer_2">
</g>
<g id="Layer_3">
</g>
<g id="Layer_4">
</g>
<g id="Layer_5">
</g>
<g id="Layer_6">
</g>
<g id="Layer_7">
</g>
<g id="Layer_8">
</g>
<g id="Layer_9">
</g>
<g id="Layer_10">
</g>
<g id="Layer_11">
</g>
<g id="Layer_12">
</g>
<g id="Layer_13">
</g>
<g id="Layer_14">
</g>
<g id="Layer_15">
</g>
<g id="Layer_16">
</g>
<g id="Layer_17">
</g>
<g id="Layer_18">
</g>
<g id="Layer_19">
</g>
<g id="Layer_20">
</g>
<g id="Layer_21">
</g>
<g id="Layer_22">
</g>
<g id="Layer_23">
</g>
<g id="Layer_24">
	<g>
		<g>
			<g>
				<circle fill="#87D147" cx="128" cy="56.549" r="27.893"/>
			</g>
		</g>
		<g>
			<g>
				<path fill="#F5C84C" d="M38.8,168.902c-4.5-0.8-8-4.3-8.9-8.7c0-0.2-0.4-0.2-0.4,0c-0.9,4.4-4.4,7.9-8.9,8.7
					c-0.2,0-0.2,0.3,0,0.4c4.5,0.8,8,4.3,8.9,8.7c0,0.2,0.4,0.2,0.4,0c0.9-4.4,4.4-7.9,8.9-8.7C39,169.202,39,168.902,38.8,168.902z
					"/>
			</g>
		</g>
		<g>
			<g>
				<path fill="#70D6F9" d="M94.61,28.262c-3.158-0.561-5.613-3.017-6.245-6.104c0-0.14-0.281-0.14-0.281,0
					c-0.631,3.087-3.087,5.543-6.245,6.104c-0.14,0-0.14,0.211,0,0.281c3.158,0.561,5.613,3.017,6.245,6.104
					c0,0.14,0.281,0.14,0.281,0c0.631-3.087,3.087-5.543,6.245-6.104C94.75,28.472,94.75,28.262,94.61,28.262z"/>
			</g>
		</g>
		<g>
			<g>
				<path fill="#87D147" d="M237.7,74.152h-2.3v-2.3c0-1.7-1.4-3.2-3.2-3.2c-1.8,0-3.2,1.4-3.2,3.2v2.3h-2.3c-1.7,0-3.2,1.4-3.2,3.2
					s1.4,3.2,3.2,3.2h2.3v2.3c0,1.7,1.4,3.2,3.2,3.2c1.8,0,3.2-1.4,3.2-3.2v-2.3h2.3c1.7,0,3.2-1.4,3.2-3.2
					S239.5,74.152,237.7,74.152z"/>
			</g>
		</g>
		<g>
			<g>
				<path fill="#70D6F9" d="M3.4,139.052c-1.878,0-3.4,1.522-3.4,3.4c0,1.878,1.522,3.4,3.4,3.4c1.878,0,3.4-1.522,3.4-3.4
					C6.8,140.574,5.278,139.052,3.4,139.052z"/>
			</g>
		</g>
		<g>
			<g>
				<path fill="#F5C84C" d="M252.6,99.052c-1.878,0-3.4,1.522-3.4,3.4c0,1.878,1.522,3.4,3.4,3.4c1.878,0,3.4-1.522,3.4-3.4
					C256,100.574,254.478,99.052,252.6,99.052z"/>
			</g>
		</g>
		<g>
			<g>
				<path fill="#FC657E" d="M183.6,201.052c-1.878,0-3.4,1.522-3.4,3.4c0,1.878,1.522,3.4,3.4,3.4c1.878,0,3.4-1.522,3.4-3.4
					C187,202.574,185.478,201.052,183.6,201.052z"/>
			</g>
		</g>
		<g>
			<g>
				<path fill="#DAE6F1" d="M92.605,112.186l-6.763-6.764l-41.119,41.119l6.763,6.763c0.809,0.809,2.121,0.809,2.93,0l38.189-38.189
					C93.414,114.307,93.414,112.995,92.605,112.186z"/>
			</g>
		</g>
		<g>
			<g>
				<path fill="#DAE6F1" d="M170.158,105.422l-6.763,6.764c-0.809,0.809-0.809,2.121,0,2.93l38.189,38.189
					c0.809,0.809,2.12,0.809,2.929,0l6.764-6.763L170.158,105.422z"/>
			</g>
		</g>
		<g>
			<g>
				<path fill="#FC657E" d="M87.237,101.097c-2.988-2.989-12.77-12.77-23.564-23.564c-0.892-0.892-2.341-0.895-3.233-0.002
					l-44.324,44.324c-0.892,0.892-0.891,2.34,0.001,3.232c12.052,12.052,22.71,22.71,23.564,23.565c0.809,0.809,2.121,0.809,2.93,0
					l44.625-44.625C88.047,103.218,88.047,101.906,87.237,101.097z"/>
			</g>
		</g>
		<g>
			<g>
				<path fill="#70D6F9" d="M239.883,121.855L195.56,77.531c-0.892-0.892-2.341-0.89-3.233,0.002
					c-10.794,10.794-20.589,20.589-23.564,23.564c-0.809,0.809-0.809,2.121,0,2.93l44.625,44.625c0.809,0.809,2.121,0.809,2.93,0
					c0.674-0.674,11.438-11.438,23.565-23.565C240.774,124.195,240.775,122.747,239.883,121.855z"/>
			</g>
		</g>
		<g>
			<g>
				<path fill="#F9D0B4" d="M165.202,116.923l-6.102,5.933c-4.341,3.989-9.085,6.435-13.891,7.166l-7.264,1.33
					c-6.894,1.245-13.243,4.567-18.197,9.521c-4.622,4.622-4.06,4.06-8.176,8.176c-2.911,2.911-2.911,7.675,0,10.587
					c2.911,2.911,7.675,2.911,10.587,0l5.94-5.826l37.914,37.995l8.578-8.578c2.125-2.125,3.903-4.569,5.271-7.245l2.45-4.793
					c1.502-2.938,3.454-5.622,5.787-7.955l11.707-11.707L165.202,116.923z"/>
			</g>
		</g>
		<g>
			<g>
				<path fill="#F9D0B4" d="M165.718,191.513c-4.481-4.481-31.251-31.322-31.251-31.322l-6.368-6.381l-5.94,5.826
					c-2.887,2.887-7.597,2.911-10.515,0.071c-2.99-2.911-2.879-7.85,0.071-10.801c3.96-3.96,3.464-3.464,8.032-8.032
					c2.445-2.445,5.23-4.49,8.252-6.086c-3.102-1.639-6.453-2.804-9.945-3.435l-7.264-1.33c-4.806-0.731-9.55-3.177-13.891-7.166
					l-6.102-5.933l-34.604,34.604l11.707,11.707c2.333,2.333,4.286,5.017,5.787,7.955l2.45,4.793
					c1.368,2.676,3.146,5.12,5.271,7.245l46.164,46.164l0.001-0.001c2.558,2.558,6.725,2.794,9.401,0.359
					c2.857-2.599,2.937-7.023,0.24-9.724c2.625,2.62,6.876,2.619,9.499-0.003c2.624-2.624,2.624-6.879,0-9.503
					c2.624,2.624,6.879,2.624,9.503,0c2.623-2.623,2.624-6.874,0.004-9.499c2.624,2.62,6.876,2.619,9.499-0.004
					C168.342,198.392,168.342,194.137,165.718,191.513z"/>
			</g>
		</g>
		<g>
			<g>
				<path d="M94.373,110.418l-6.163-6.164c-0.977-0.977-2.559-0.976-3.535,0c-0.977,0.977-0.977,2.56,0,3.536l5.859,5.86
					l-37.583,37.583l-5.803-5.803c-0.977-0.977-2.559-0.976-3.535,0c-0.977,0.977-0.977,2.56,0,3.536l6.105,6.106
					c0.864,0.863,2.012,1.339,3.232,1.339c1.222,0,2.37-0.476,3.232-1.339l38.189-38.189
					C96.155,115.101,96.155,112.201,94.373,110.418z"/>
			</g>
		</g>
		<g>
			<g>
				<path d="M212.63,145.188c-0.977-0.977-2.559-0.977-3.535,0l-6.046,6.045l-37.583-37.583l5.884-5.884
					c0.977-0.976,0.977-2.559,0-3.535c-0.977-0.977-2.559-0.977-3.535,0l-6.188,6.188c-1.781,1.782-1.781,4.682,0.001,6.464
					l38.188,38.189c0.863,0.864,2.012,1.34,3.233,1.34c1.221,0,2.368-0.476,3.232-1.339l6.349-6.349
					C213.606,147.748,213.606,146.165,212.63,145.188z"/>
			</g>
		</g>
		<g>
			<g>
				<g>
					<path d="M89.005,99.33L65.441,75.766c-1.867-1.868-4.903-1.867-6.769-0.002L14.35,120.087
						c-0.904,0.904-1.402,2.106-1.401,3.385c0.001,1.278,0.499,2.48,1.402,3.383l23.563,23.564c0.001,0,0.001,0.001,0.001,0.001
						c0.864,0.863,2.012,1.339,3.232,1.339c1.222,0,2.37-0.476,3.232-1.339l44.625-44.625c0.863-0.863,1.34-2.012,1.34-3.233
						S89.868,100.192,89.005,99.33z M41.147,146.581l-23.11-23.11l44.019-44.02l23.111,23.111L41.147,146.581z"/>
				</g>
			</g>
		</g>
		<g>
			<g>
				<g>
					<path d="M241.65,120.087l-44.323-44.324c0,0,0,0,0,0c-1.866-1.865-4.902-1.863-6.769,0.003l-23.563,23.563
						c-0.863,0.863-1.34,2.012-1.34,3.233s0.477,2.37,1.34,3.232l44.624,44.625c0.863,0.864,2.012,1.34,3.233,1.34
						c1.221,0,2.368-0.476,3.232-1.339l23.564-23.564c0.903-0.903,1.401-2.105,1.402-3.383
						C243.053,122.193,242.555,120.991,241.65,120.087z M214.853,146.581l-44.02-44.019l23.111-23.111l44.019,44.02L214.853,146.581
						z"/>
				</g>
			</g>
		</g>
		<g>
			<g>
				<path d="M166.716,115.452c-0.963-0.991-2.545-1.012-3.535-0.05l-5.771,5.614c-3.944,3.624-8.293,5.883-12.65,6.547l-7.258,1.329
					c-7.431,1.342-14.182,4.874-19.521,10.214l-8.176,8.175c-3.894,3.894-3.894,10.229,0,14.122
					c1.948,1.949,4.509,2.922,7.066,2.922c2.553,0,5.103-0.969,7.039-2.905l5.94-5.826c0.985-0.967,1.001-2.549,0.034-3.535
					c-0.969-0.986-2.55-1.001-3.536-0.034l-5.957,5.843c-1.944,1.943-5.107,1.945-7.052,0c-1.943-1.944-1.943-5.107,0-7.052
					l8.176-8.175c4.615-4.615,10.45-7.668,16.88-8.83l7.189-1.317c5.27-0.801,10.528-3.498,15.259-7.845l5.823-5.663
					C167.656,118.024,167.679,116.441,166.716,115.452z"/>
			</g>
		</g>
		<g>
			<g>
				<path d="M201.137,150.196c-0.977-0.977-2.559-0.977-3.535,0l-11.271,11.27c-2.52,2.52-4.621,5.408-6.245,8.585l-2.451,4.793
					c-1.249,2.446-2.868,4.672-4.812,6.615l-8.197,8.198c-0.977,0.976-0.977,2.559,0,3.535c0.488,0.488,1.128,0.732,1.768,0.732
					s1.279-0.244,1.768-0.732l8.197-8.198c2.313-2.313,4.241-4.963,5.729-7.875l2.45-4.792c1.387-2.711,3.18-5.176,5.329-7.326
					l11.271-11.271C202.113,152.755,202.113,151.172,201.137,150.196z"/>
			</g>
		</g>
		<g>
			<g>
				<path d="M160.535,153.694c-0.37-1.33-1.744-2.108-3.078-1.739c-13.398,3.726-23.701-3.952-23.798-4.025
					c-0.982-0.758-2.371-0.679-3.263,0.183l-4.034,3.9c-0.993,0.959-1.02,2.542-0.061,3.535c0.962,0.994,2.544,1.019,3.535,0.06
					l2.591-2.504c2.954,1.786,9.274,4.893,17.49,4.893c2.764,0,5.742-0.352,8.879-1.224
					C160.127,156.402,160.905,155.024,160.535,153.694z"/>
			</g>
		</g>
		<g>
			<g>
				<path d="M167.485,189.746c-4.48-4.481-31.248-31.319-31.249-31.32l-5.813-5.826c-0.975-0.978-2.559-0.98-3.535-0.004
					c-0.978,0.975-0.979,2.558-0.004,3.535l5.813,5.826c0,0,26.771,26.842,31.254,31.324c1.645,1.645,1.645,4.322,0,5.967
					c-1.644,1.643-4.32,1.645-5.964,0.002c-0.977-0.975-2.558-0.975-3.534,0.001c-0.976,0.976-0.977,2.558-0.002,3.534
					c1.643,1.645,1.642,4.321-0.002,5.965c-0.797,0.797-1.856,1.235-2.983,1.235c-1.128,0-2.188-0.438-2.984-1.235
					c-0.977-0.977-2.559-0.977-3.535,0c-0.488,0.488-0.732,1.128-0.732,1.768s0.244,1.28,0.732,1.768
					c1.645,1.645,1.645,4.322,0,5.967c-1.645,1.646-4.32,1.644-5.965,0.002c-0.977-0.975-2.558-0.975-3.534,0.001
					c-0.976,0.976-0.977,2.558-0.002,3.534c0.823,0.824,1.261,1.919,1.232,3.084c-0.028,1.163-0.52,2.237-1.386,3.024
					c-1.637,1.49-4.308,1.366-5.951-0.277l-46.163-46.164c-1.942-1.943-3.562-4.168-4.813-6.615l-2.45-4.793
					c-1.624-3.177-3.726-6.065-6.245-8.584l-11.162-11.162c-0.977-0.977-2.559-0.977-3.535,0c-0.977,0.976-0.977,2.559,0,3.535
					l11.162,11.163c2.149,2.149,3.942,4.614,5.328,7.324l2.45,4.793c1.489,2.913,3.417,5.562,5.729,7.875l46.164,46.163
					c1.863,1.864,4.295,2.805,6.714,2.805c2.205,0,4.398-0.783,6.136-2.364c1.887-1.715,2.959-4.06,3.021-6.603
					c0.004-0.173,0.003-0.345-0.002-0.516c2.452,0.076,4.937-0.822,6.807-2.691c1.87-1.871,2.768-4.351,2.691-6.807
					c2.535,0.07,5-0.884,6.813-2.696c1.87-1.872,2.767-4.354,2.689-6.812c2.452,0.076,4.94-0.82,6.812-2.691
					C171.08,199.189,171.08,193.34,167.485,189.746z"/>
			</g>
		</g>
		<g>
			<g>
				<path d="M128.767,132.369c-3.239-1.661-6.693-2.831-10.262-3.475l-7.338-1.343c-4.283-0.651-8.632-2.911-12.524-6.486
					l-5.414-5.265c-0.99-0.962-2.572-0.941-3.535,0.05c-0.963,0.99-0.94,2.572,0.049,3.535l5.466,5.313
					c4.679,4.299,9.938,6.995,15.133,7.784l7.27,1.331c3.089,0.558,6.074,1.569,8.875,3.005c0.365,0.187,0.755,0.276,1.139,0.276
					c0.908,0,1.783-0.496,2.227-1.359C130.48,134.505,129.995,132.999,128.767,132.369z"/>
			</g>
		</g>
		<g>
			<g>
				<path d="M157.987,199.252l-30.513-30.512c-0.977-0.977-2.559-0.977-3.535,0c-0.977,0.976-0.977,2.559,0,3.535l30.513,30.512
					c0.488,0.488,1.128,0.732,1.768,0.732s1.279-0.244,1.768-0.732C158.964,201.811,158.964,200.228,157.987,199.252z"/>
			</g>
		</g>
		<g>
			<g>
				<path d="M148.48,208.751l-30.509-30.508c-0.977-0.977-2.559-0.977-3.535,0c-0.977,0.976-0.977,2.559,0,3.535l30.509,30.508
					c0.488,0.488,1.128,0.732,1.768,0.732s1.279-0.244,1.768-0.732C149.457,211.31,149.457,209.727,148.48,208.751z"/>
			</g>
		</g>
		<g>
			<g>
				<path d="M138.981,218.257l-30.513-30.512c-0.977-0.977-2.559-0.977-3.535,0c-0.977,0.976-0.977,2.559,0,3.535l30.513,30.512
					c0.488,0.488,1.128,0.732,1.768,0.732s1.279-0.244,1.768-0.732C139.958,220.816,139.958,219.233,138.981,218.257z"/>
			</g>
		</g>
		<g>
			<g>
				<path fill="#DAE6F1" d="M141.172,48.648c-2.005-2.004-5.255-2.004-7.26,0l-8.237,8.237l-4.129-4.129
					c-2.005-2.004-5.255-2.004-7.26,0c-2.005,2.005-2.005,5.255,0,7.26l7.759,7.759c1.003,1.002,2.316,1.504,3.63,1.504
					c1.314,0,2.628-0.501,3.63-1.504l11.867-11.867C143.177,53.904,143.177,50.653,141.172,48.648z"/>
			</g>
		</g>
		<g>
			<g>
				<g>
					<g>
						<path d="M142.939,46.88c-2.979-2.975-7.821-2.973-10.796,0.001l-6.469,6.469l-2.361-2.362
							c-2.979-2.975-7.821-2.973-10.796,0.001c-2.977,2.976-2.977,7.819,0,10.796l7.759,7.759c1.441,1.442,3.358,2.236,5.398,2.236
							c2.038,0,3.955-0.794,5.397-2.236l11.867-11.867C145.916,54.7,145.916,49.857,142.939,46.88z M139.404,54.141l-11.867,11.866
							c-0.996,0.996-2.73,0.995-3.725,0l-7.76-7.759c-1.026-1.027-1.026-2.698,0-3.724c0.514-0.514,1.188-0.77,1.863-0.77
							c0.674,0,1.349,0.256,1.862,0.769l4.129,4.129c0.469,0.469,1.104,0.732,1.768,0.732s1.299-0.264,1.768-0.732l8.236-8.236
							c1.026-1.027,2.697-1.027,3.726-0.001C140.431,51.443,140.431,53.114,139.404,54.141z"/>
					</g>
				</g>
			</g>
		</g>
		<g>
			<g>
				<g>
					<path d="M128,26.156c-16.759,0-30.394,13.634-30.394,30.393S111.241,86.942,128,86.942s30.394-13.634,30.394-30.393
						S144.759,26.156,128,26.156z M128,81.942c-14.002,0-25.394-11.391-25.394-25.393S113.998,31.156,128,31.156
						s25.394,11.391,25.394,25.393S142.002,81.942,128,81.942z"/>
				</g>
			</g>
		</g>
	</g>
</g>
<g id="Layer_25">
</g>
<g id="Layer_26">
</g>
<g id="Layer_27">
</g>
<g id="Layer_28">
</g>
<g id="Layer_29">
</g>
<g id="Layer_30">
</g>
<g id="Layer_31">
</g>
<g id="Layer_32">
</g>
<g id="Layer_33">
</g>
<g id="Layer_34">
</g>
<g id="Layer_35">
</g>
<g id="Layer_36">
</g>
<g id="Layer_37">
</g>
<g id="Layer_38">
</g>
<g id="Layer_39">
</g>
<g id="Layer_40">
</g>
<g id="Layer_41">
</g>
<g id="Layer_42">
</g>
<g id="Layer_43">
</g>
<g id="Layer_44">
</g>
<g id="Layer_45">
</g>
<g id="Layer_46">
</g>
<g id="Layer_47">
</g>
<g id="Layer_48">
</g>
<g id="Layer_49">
</g>
<g id="Layer_50">
</g>
<g id="Layer_51">
</g>
<g id="Layer_52">
</g>
<g id="Layer_53">
</g>
<g id="Layer_54">
</g>
<g id="Layer_55">
</g>
<g id="Layer_56">
</g>
<g id="Layer_57">
</g>
<g id="Layer_58">
</g>
<g id="Layer_59">
</g>
<g id="Layer_60">
</g>
<g id="Layer_61">
</g>
<g id="Layer_62">
</g>
<g id="Layer_63">
</g>
<g id="Layer_64">
</g>
<g id="Layer_65">
</g>
<g id="Layer_66">
</g>
<g id="Layer_67">
</g>
<g id="Layer_68">
</g>
<g id="Layer_69">
</g>
<g id="Layer_70">
</g>
<g id="Layer_71">
</g>
<g id="Layer_72">
</g>
<g id="Layer_73">
</g>
<g id="Layer_74">
</g>
<g id="Layer_75">
</g>
<g id="Layer_76">
</g>
<g id="Layer_77">
</g>
<g id="Layer_78">
</g>
<g id="Layer_79">
</g>
<g id="Layer_80">
</g>
<g id="Layer_81">
</g>
<g id="Layer_82">
</g>
<g id="Layer_83">
</g>
<g id="Layer_84">
</g>
<g id="Layer_85">
</g>
<g id="Layer_86">
</g>
<g id="Layer_87">
</g>
<g id="Layer_88">
</g>
<g id="Layer_89">
</g>
<g id="Layer_90">
</g>
</svg>
