<?xml version="1.0" encoding="utf-8"?>
<!-- Generator: Adobe Illustrator 24.0.0, SVG Export Plug-In . SVG Version: 6.00 Build 0)  -->
<svg version="1.1" xmlns="http://www.w3.org/2000/svg" xmlns:xlink="http://www.w3.org/1999/xlink" x="0px" y="0px"
	 viewBox="0 0 256 256" enable-background="new 0 0 256 256" xml:space="preserve">
<g id="Layer_1">
</g>
<g id="Layer_2">
</g>
<g id="Layer_3">
</g>
<g id="Layer_4">
</g>
<g id="Layer_5">
</g>
<g id="Layer_6">
</g>
<g id="Layer_7">
</g>
<g id="Layer_8">
</g>
<g id="Layer_9">
</g>
<g id="Layer_10">
</g>
<g id="Layer_11">
</g>
<g id="Layer_12">
</g>
<g id="Layer_13">
</g>
<g id="Layer_14">
</g>
<g id="Layer_15">
</g>
<g id="Layer_16">
</g>
<g id="Layer_17">
</g>
<g id="Layer_18">
</g>
<g id="Layer_19">
</g>
<g id="Layer_20">
</g>
<g id="Layer_21">
</g>
<g id="Layer_22">
</g>
<g id="Layer_23">
</g>
<g id="Layer_24">
</g>
<g id="Layer_25">
</g>
<g id="Layer_26">
</g>
<g id="Layer_27">
</g>
<g id="Layer_28">
</g>
<g id="Layer_29">
</g>
<g id="Layer_30">
</g>
<g id="Layer_31">
</g>
<g id="Layer_32">
</g>
<g id="Layer_33">
</g>
<g id="Layer_34">
</g>
<g id="Layer_35">
</g>
<g id="Layer_36">
	<g>
		<g>
			<g>
				
					<ellipse transform="matrix(0.3827 -0.9239 0.9239 0.3827 91.5546 181.683)" fill="#F5C84C" cx="181.732" cy="22.331" rx="19.831" ry="19.83"/>
			</g>
		</g>
		<g>
			<g>
				<path fill="#70D6F9" d="M188.045,30.168h-12.627c-3.757,0-6.936,2.473-7.999,5.88c3.609,3.765,8.685,6.113,14.313,6.113
					c5.627,0,10.703-2.348,14.313-6.113C194.981,32.641,191.802,30.168,188.045,30.168z"/>
			</g>
		</g>
		<g>
			<g>
				
					<ellipse transform="matrix(0.9975 -0.0709 0.0709 0.9975 -10.7588 5.6532)" fill="#87D147" cx="74.268" cy="154.407" rx="19.83" ry="19.83"/>
			</g>
		</g>
		<g>
			<g>
				<path fill="#70D6F9" d="M80.582,162.244H67.955c-3.757,0-6.936,2.473-7.999,5.88c3.609,3.765,8.685,6.113,14.313,6.113
					c5.627,0,10.703-2.348,14.313-6.113C87.518,164.717,84.339,162.244,80.582,162.244z"/>
			</g>
		</g>
		<g>
			<g>
				
					<ellipse transform="matrix(0.9975 -0.0709 0.0709 0.9975 -10.4884 13.2711)" fill="#5290DB" cx="181.732" cy="154.407" rx="19.83" ry="19.83"/>
			</g>
		</g>
		<g>
			<g>
				<path fill="#70D6F9" d="M188.045,162.244h-12.627c-3.757,0-6.936,2.473-7.999,5.88c3.609,3.765,8.685,6.113,14.313,6.113
					c5.627,0,10.703-2.348,14.313-6.113C194.981,164.717,191.802,162.244,188.045,162.244z"/>
			</g>
		</g>
		<g>
			<g>
				
					<ellipse transform="matrix(0.3827 -0.9239 0.9239 0.3827 25.216 82.3998)" fill="#FC657E" cx="74.268" cy="22.331" rx="19.831" ry="19.83"/>
			</g>
		</g>
		<g>
			<g>
				<path fill="#70D6F9" d="M80.582,30.168H67.955c-3.757,0-6.936,2.473-7.999,5.88c3.609,3.765,8.685,6.113,14.313,6.113
					c5.627,0,10.703-2.348,14.313-6.113C87.518,32.641,84.339,30.168,80.582,30.168z"/>
			</g>
		</g>
		<g>
			<g>
				<path fill="#F5C84C" d="M246.959,143.85c-4.5-0.8-8-4.3-8.9-8.7c0-0.2-0.4-0.2-0.4,0c-0.9,4.4-4.4,7.9-8.9,8.7
					c-0.2,0-0.2,0.3,0,0.4c4.5,0.8,8,4.3,8.9,8.7c0,0.2,0.4,0.2,0.4,0c0.9-4.4,4.4-7.9,8.9-8.7
					C247.159,144.15,247.159,143.85,246.959,143.85z"/>
			</g>
		</g>
		<g>
			<g>
				<path fill="#FC657E" d="M142.769,6.21c-3.157-0.561-5.613-3.017-6.245-6.104c0-0.14-0.281-0.14-0.281,0
					c-0.632,3.087-3.087,5.543-6.245,6.104c-0.14,0-0.14,0.21,0,0.281c3.157,0.561,5.613,3.017,6.245,6.104
					c0,0.14,0.281,0.14,0.281,0c0.631-3.087,3.087-5.543,6.245-6.104C142.909,6.42,142.909,6.21,142.769,6.21z"/>
			</g>
		</g>
		<g>
			<g>
				<path fill="#F5C84C" d="M14.959,84c-1.878,0-3.4,1.522-3.4,3.4c0,1.878,1.522,3.4,3.4,3.4s3.4-1.522,3.4-3.4
					C18.359,85.522,16.836,84,14.959,84z"/>
			</g>
		</g>
		<g>
			<g>
				<path fill="#70D6F9" d="M14.2,114.1h-2.3v-2.3c0-1.7-1.4-3.2-3.2-3.2s-3.2,1.4-3.2,3.2v2.3H3.2c-1.7,0-3.2,1.4-3.2,3.2
					c0,1.8,1.4,3.2,3.2,3.2h2.3v2.3c0,1.7,1.4,3.2,3.2,3.2s3.2-1.4,3.2-3.2v-2.3h2.3c1.7,0,3.2-1.4,3.2-3.2
					C17.4,115.5,16,114.1,14.2,114.1z"/>
			</g>
		</g>
		<g>
			<g>
				<path fill="#87D147" d="M252.6,162c-1.878,0-3.4,1.522-3.4,3.4c0,1.878,1.522,3.4,3.4,3.4c1.878,0,3.4-1.522,3.4-3.4
					C256,163.522,254.478,162,252.6,162z"/>
			</g>
		</g>
		<g>
			<g>
				<path fill="#EDF4FC" d="M112.531,24.003H94.023c-0.85,10.169-9.367,18.158-19.755,18.158c-10.388,0-18.905-7.989-19.755-18.158
					H36.005c-4.781,0-8.692,3.911-8.692,8.692v80.036c0,4.781,3.911,8.692,8.692,8.692h76.526c4.781,0,8.692-3.911,8.692-8.692
					V32.695C121.223,27.914,117.312,24.003,112.531,24.003z"/>
			</g>
		</g>
		<g>
			<g>
				<g>
					<path d="M74.268,0c-12.313,0-22.33,10.018-22.33,22.331s10.017,22.331,22.33,22.331s22.331-10.018,22.331-22.331
						S86.581,0,74.268,0z M74.268,39.661c-9.556,0-17.33-7.774-17.33-17.331S64.712,5,74.268,5c9.556,0,17.331,7.774,17.331,17.331
						S83.824,39.661,74.268,39.661z"/>
				</g>
			</g>
		</g>
		<g>
			<g>
				<path fill="#F9D0B4" d="M74.268,10.518c-3.875,0-7.016,3.141-7.016,7.016c0,3.875,3.141,7.016,7.016,7.016
					c3.875,0,7.016-3.141,7.016-7.016C81.284,13.659,78.143,10.518,74.268,10.518z"/>
			</g>
		</g>
		<g>
			<g>
				<path d="M90.656,34.438c-1.678-4.112-5.633-6.769-10.075-6.769H67.955c-4.455,0-8.414,2.668-10.086,6.798
					c-0.518,1.28,0.099,2.738,1.379,3.256c0.308,0.125,0.625,0.183,0.938,0.183c0.988,0,1.924-0.59,2.318-1.562
					c0.904-2.232,3.043-3.675,5.452-3.675h12.627c2.401,0,4.539,1.436,5.446,3.659c0.521,1.278,1.981,1.892,3.259,1.37
					C90.565,37.175,91.178,35.716,90.656,34.438z"/>
			</g>
		</g>
		<g>
			<g>
				<g>
					<path d="M74.268,8.018c-5.247,0-9.516,4.269-9.516,9.516s4.269,9.516,9.516,9.516s9.516-4.269,9.516-9.516
						S79.515,8.018,74.268,8.018z M74.268,22.049c-2.49,0-4.516-2.026-4.516-4.516s2.026-4.516,4.516-4.516
						c2.49,0,4.516,2.026,4.516,4.516S76.758,22.049,74.268,22.049z"/>
				</g>
			</g>
		</g>
		<g>
			<g>
				<path d="M112.531,21.503H94.792c-1.381,0-2.5,1.119-2.5,2.5s1.119,2.5,2.5,2.5h17.739c3.414,0,6.192,2.778,6.192,6.192v80.036
					c0,3.415-2.778,6.192-6.192,6.192H36.005c-3.415,0-6.192-2.778-6.192-6.192V32.695c0-3.415,2.778-6.192,6.192-6.192h17.703
					c1.381,0,2.5-1.119,2.5-2.5s-1.119-2.5-2.5-2.5H36.005c-6.171,0-11.192,5.021-11.192,11.192v80.036
					c0,6.171,5.021,11.192,11.192,11.192h76.526c6.171,0,11.192-5.021,11.192-11.192V32.695
					C123.723,26.524,118.703,21.503,112.531,21.503z"/>
			</g>
		</g>
		<g>
			<g>
				<path d="M105.383,87.941H43.154c-1.381,0-2.5,1.119-2.5,2.5s1.119,2.5,2.5,2.5h62.229c1.381,0,2.5-1.119,2.5-2.5
					S106.764,87.941,105.383,87.941z"/>
			</g>
		</g>
		<g>
			<g>
				<path d="M105.383,76.346H43.154c-1.381,0-2.5,1.119-2.5,2.5s1.119,2.5,2.5,2.5h62.229c1.381,0,2.5-1.119,2.5-2.5
					S106.764,76.346,105.383,76.346z"/>
			</g>
		</g>
		<g>
			<g>
				<path d="M105.383,64.751H43.154c-1.381,0-2.5,1.119-2.5,2.5s1.119,2.5,2.5,2.5h62.229c1.381,0,2.5-1.119,2.5-2.5
					S106.764,64.751,105.383,64.751z"/>
			</g>
		</g>
		<g>
			<g>
				<path d="M99.16,99.536H49.376c-1.381,0-2.5,1.119-2.5,2.5s1.119,2.5,2.5,2.5H99.16c1.381,0,2.5-1.119,2.5-2.5
					S100.541,99.536,99.16,99.536z"/>
			</g>
		</g>
		<g>
			<g>
				<path d="M83.698,50.998h-18.86c-1.381,0-2.5,1.119-2.5,2.5s1.119,2.5,2.5,2.5h18.86c1.381,0,2.5-1.119,2.5-2.5
					S85.079,50.998,83.698,50.998z"/>
			</g>
		</g>
		<g>
			<g>
				<path fill="#EDF4FC" d="M219.995,24.003h-18.508c-0.85,10.169-9.367,18.158-19.755,18.158s-18.905-7.989-19.755-18.158h-18.508
					c-4.781,0-8.692,3.911-8.692,8.692v80.036c0,4.781,3.911,8.692,8.692,8.692h76.526c4.781,0,8.692-3.911,8.692-8.692V32.695
					C228.687,27.914,224.775,24.003,219.995,24.003z"/>
			</g>
		</g>
		<g>
			<g>
				<g>
					<path d="M181.732,0c-12.313,0-22.331,10.018-22.331,22.331s10.018,22.331,22.331,22.331s22.33-10.018,22.33-22.331
						S194.045,0,181.732,0z M181.732,39.661c-9.556,0-17.331-7.774-17.331-17.331S172.176,5,181.732,5
						c9.556,0,17.33,7.774,17.33,17.331S191.288,39.661,181.732,39.661z"/>
				</g>
			</g>
		</g>
		<g>
			<g>
				<path fill="#F9D0B4" d="M181.732,10.518c-3.875,0-7.016,3.141-7.016,7.016c0,3.875,3.141,7.016,7.016,7.016
					c3.875,0,7.016-3.141,7.016-7.016C188.747,13.659,185.606,10.518,181.732,10.518z"/>
			</g>
		</g>
		<g>
			<g>
				<path d="M198.155,34.525c-1.658-4.165-5.627-6.856-10.11-6.856h-12.626c-4.375,0-8.306,2.602-10.017,6.629
					c-0.54,1.271,0.053,2.738,1.324,3.278c1.271,0.539,2.739-0.053,3.278-1.324c0.924-2.177,3.049-3.583,5.414-3.583h12.626
					c2.423,0,4.568,1.455,5.465,3.706c0.39,0.979,1.33,1.576,2.324,1.576c0.308,0,0.621-0.057,0.924-0.178
					C198.04,37.262,198.666,35.808,198.155,34.525z"/>
			</g>
		</g>
		<g>
			<g>
				<g>
					<path d="M181.732,8.018c-5.247,0-9.516,4.269-9.516,9.516s4.269,9.516,9.516,9.516s9.516-4.269,9.516-9.516
						S186.979,8.018,181.732,8.018z M181.732,22.049c-2.49,0-4.516-2.026-4.516-4.516s2.026-4.516,4.516-4.516
						c2.49,0,4.516,2.026,4.516,4.516S184.222,22.049,181.732,22.049z"/>
				</g>
			</g>
		</g>
		<g>
			<g>
				<path d="M219.995,21.503h-17.536c-1.381,0-2.5,1.119-2.5,2.5s1.119,2.5,2.5,2.5h17.536c3.415,0,6.192,2.778,6.192,6.192v80.036
					c0,3.415-2.778,6.192-6.192,6.192h-76.526c-3.414,0-6.192-2.778-6.192-6.192V32.695c0-3.415,2.778-6.192,6.192-6.192H161
					c1.381,0,2.5-1.119,2.5-2.5s-1.119-2.5-2.5-2.5h-17.532c-6.171,0-11.192,5.021-11.192,11.192v80.036
					c0,6.171,5.021,11.192,11.192,11.192h76.526c6.171,0,11.192-5.021,11.192-11.192V32.695
					C231.187,26.524,226.166,21.503,219.995,21.503z"/>
			</g>
		</g>
		<g>
			<g>
				<path d="M212.846,87.941h-62.229c-1.381,0-2.5,1.119-2.5,2.5s1.119,2.5,2.5,2.5h62.229c1.381,0,2.5-1.119,2.5-2.5
					S214.227,87.941,212.846,87.941z"/>
			</g>
		</g>
		<g>
			<g>
				<path d="M212.846,76.346h-62.229c-1.381,0-2.5,1.119-2.5,2.5s1.119,2.5,2.5,2.5h62.229c1.381,0,2.5-1.119,2.5-2.5
					S214.227,76.346,212.846,76.346z"/>
			</g>
		</g>
		<g>
			<g>
				<path d="M212.846,64.751h-62.229c-1.381,0-2.5,1.119-2.5,2.5s1.119,2.5,2.5,2.5h62.229c1.381,0,2.5-1.119,2.5-2.5
					S214.227,64.751,212.846,64.751z"/>
			</g>
		</g>
		<g>
			<g>
				<path d="M206.624,99.536H156.84c-1.381,0-2.5,1.119-2.5,2.5s1.119,2.5,2.5,2.5h49.783c1.381,0,2.5-1.119,2.5-2.5
					S208.004,99.536,206.624,99.536z"/>
			</g>
		</g>
		<g>
			<g>
				<path d="M191.162,50.998h-18.86c-1.381,0-2.5,1.119-2.5,2.5s1.119,2.5,2.5,2.5h18.86c1.381,0,2.5-1.119,2.5-2.5
					S192.543,50.998,191.162,50.998z"/>
			</g>
		</g>
		<g>
			<g>
				<path fill="#EDF4FC" d="M112.531,156.079H94.023c-0.85,10.169-9.367,18.158-19.755,18.158c-10.388,0-18.905-7.989-19.755-18.158
					H36.005c-4.781,0-8.692,3.911-8.692,8.692v80.036c0,4.781,3.911,8.692,8.692,8.692h76.526c4.781,0,8.692-3.911,8.692-8.692
					v-80.036C121.223,159.99,117.312,156.079,112.531,156.079z"/>
			</g>
		</g>
		<g>
			<g>
				<g>
					<path d="M74.268,132.076c-12.313,0-22.33,10.018-22.33,22.331s10.017,22.331,22.33,22.331s22.331-10.018,22.331-22.331
						S86.581,132.076,74.268,132.076z M74.268,171.737c-9.556,0-17.33-7.774-17.33-17.331s7.774-17.331,17.33-17.331
						c9.556,0,17.331,7.774,17.331,17.331S83.824,171.737,74.268,171.737z"/>
				</g>
			</g>
		</g>
		<g>
			<g>
				<path fill="#F9D0B4" d="M74.268,142.594c-3.875,0-7.016,3.141-7.016,7.016s3.141,7.016,7.016,7.016
					c3.875,0,7.016-3.141,7.016-7.016S78.143,142.594,74.268,142.594z"/>
			</g>
		</g>
		<g>
			<g>
				<path d="M90.541,166.241c-1.739-3.947-5.648-6.497-9.959-6.497H67.955c-4.257,0-8.146,2.505-9.908,6.383
					c-0.571,1.257-0.015,2.739,1.242,3.31c1.258,0.573,2.739,0.015,3.31-1.242c0.953-2.097,3.055-3.452,5.356-3.452h12.627
					c2.33,0,4.443,1.379,5.384,3.512c0.412,0.936,1.328,1.493,2.289,1.493c0.336,0,0.679-0.068,1.006-0.213
					C90.524,168.979,91.097,167.504,90.541,166.241z"/>
			</g>
		</g>
		<g>
			<g>
				<g>
					<path d="M74.268,140.094c-5.247,0-9.516,4.269-9.516,9.516s4.269,9.516,9.516,9.516s9.516-4.269,9.516-9.516
						S79.515,140.094,74.268,140.094z M74.268,154.125c-2.49,0-4.516-2.026-4.516-4.516s2.026-4.516,4.516-4.516
						c2.49,0,4.516,2.026,4.516,4.516S76.758,154.125,74.268,154.125z"/>
				</g>
			</g>
		</g>
		<g>
			<g>
				<path d="M112.531,153.579H94.969c-1.381,0-2.5,1.119-2.5,2.5s1.119,2.5,2.5,2.5h17.562c3.414,0,6.192,2.778,6.192,6.192v80.037
					c0,3.415-2.778,6.192-6.192,6.192H36.005c-3.415,0-6.192-2.778-6.192-6.192v-80.037c0-3.414,2.778-6.192,6.192-6.192h17.433
					c1.381,0,2.5-1.119,2.5-2.5s-1.119-2.5-2.5-2.5H36.005c-6.171,0-11.192,5.021-11.192,11.192v80.037
					c0,6.171,5.021,11.192,11.192,11.192h76.526c6.171,0,11.192-5.021,11.192-11.192v-80.037
					C123.723,158.6,118.703,153.579,112.531,153.579z"/>
			</g>
		</g>
		<g>
			<g>
				<path d="M105.383,220.017H43.154c-1.381,0-2.5,1.119-2.5,2.5s1.119,2.5,2.5,2.5h62.229c1.381,0,2.5-1.119,2.5-2.5
					S106.764,220.017,105.383,220.017z"/>
			</g>
		</g>
		<g>
			<g>
				<path d="M105.383,208.422H43.154c-1.381,0-2.5,1.119-2.5,2.5s1.119,2.5,2.5,2.5h62.229c1.381,0,2.5-1.119,2.5-2.5
					S106.764,208.422,105.383,208.422z"/>
			</g>
		</g>
		<g>
			<g>
				<path d="M105.383,196.828H43.154c-1.381,0-2.5,1.119-2.5,2.5s1.119,2.5,2.5,2.5h62.229c1.381,0,2.5-1.119,2.5-2.5
					S106.764,196.828,105.383,196.828z"/>
			</g>
		</g>
		<g>
			<g>
				<path d="M99.16,231.612H49.376c-1.381,0-2.5,1.119-2.5,2.5s1.119,2.5,2.5,2.5H99.16c1.381,0,2.5-1.119,2.5-2.5
					S100.541,231.612,99.16,231.612z"/>
			</g>
		</g>
		<g>
			<g>
				<path d="M83.698,183.074h-18.86c-1.381,0-2.5,1.119-2.5,2.5s1.119,2.5,2.5,2.5h18.86c1.381,0,2.5-1.119,2.5-2.5
					S85.079,183.074,83.698,183.074z"/>
			</g>
		</g>
		<g>
			<g>
				<path fill="#EDF4FC" d="M219.995,156.079h-18.508c-0.85,10.169-9.367,18.158-19.755,18.158s-18.905-7.989-19.755-18.158h-18.508
					c-4.781,0-8.692,3.911-8.692,8.692v80.036c0,4.781,3.911,8.692,8.692,8.692h76.526c4.781,0,8.692-3.911,8.692-8.692v-80.036
					C228.687,159.99,224.775,156.079,219.995,156.079z"/>
			</g>
		</g>
		<g>
			<g>
				<g>
					<path d="M181.732,132.076c-12.313,0-22.331,10.018-22.331,22.331s10.018,22.331,22.331,22.331s22.33-10.018,22.33-22.331
						S194.045,132.076,181.732,132.076z M181.732,171.737c-9.556,0-17.331-7.774-17.331-17.331s7.774-17.331,17.331-17.331
						c9.556,0,17.33,7.774,17.33,17.331S191.288,171.737,181.732,171.737z"/>
				</g>
			</g>
		</g>
		<g>
			<g>
				<path fill="#F9D0B4" d="M181.732,142.594c-3.875,0-7.016,3.141-7.016,7.016s3.141,7.016,7.016,7.016
					c3.875,0,7.016-3.141,7.016-7.016S185.606,142.594,181.732,142.594z"/>
			</g>
		</g>
		<g>
			<g>
				<path d="M198.17,166.639c-1.648-4.188-5.623-6.895-10.125-6.895h-12.626c-4.3,0-8.206,2.541-9.949,6.474
					c-0.56,1.262,0.01,2.739,1.272,3.299c1.264,0.56,2.74-0.011,3.299-1.272c0.942-2.126,3.053-3.5,5.378-3.5h12.626
					c2.434,0,4.582,1.462,5.473,3.726c0.387,0.984,1.33,1.585,2.327,1.585c0.305,0,0.615-0.056,0.915-0.174
					C198.044,169.375,198.676,167.924,198.17,166.639z"/>
			</g>
		</g>
		<g>
			<g>
				<g>
					<path d="M181.732,140.094c-5.247,0-9.516,4.269-9.516,9.516s4.269,9.516,9.516,9.516s9.516-4.269,9.516-9.516
						S186.979,140.094,181.732,140.094z M181.732,154.125c-2.49,0-4.516-2.026-4.516-4.516s2.026-4.516,4.516-4.516
						c2.49,0,4.516,2.026,4.516,4.516S184.222,154.125,181.732,154.125z"/>
				</g>
			</g>
		</g>
		<g>
			<g>
				<path d="M219.995,153.579h-17.703c-1.381,0-2.5,1.119-2.5,2.5s1.119,2.5,2.5,2.5h17.703c3.415,0,6.192,2.778,6.192,6.192v80.037
					c0,3.415-2.778,6.192-6.192,6.192h-76.526c-3.414,0-6.192-2.778-6.192-6.192v-80.037c0-3.414,2.778-6.192,6.192-6.192h17.489
					c1.381,0,2.5-1.119,2.5-2.5s-1.119-2.5-2.5-2.5h-17.489c-6.171,0-11.192,5.021-11.192,11.192v80.037
					c0,6.171,5.021,11.192,11.192,11.192h76.526c6.171,0,11.192-5.021,11.192-11.192v-80.037
					C231.187,158.6,226.166,153.579,219.995,153.579z"/>
			</g>
		</g>
		<g>
			<g>
				<path d="M212.846,220.017h-62.229c-1.381,0-2.5,1.119-2.5,2.5s1.119,2.5,2.5,2.5h62.229c1.381,0,2.5-1.119,2.5-2.5
					S214.227,220.017,212.846,220.017z"/>
			</g>
		</g>
		<g>
			<g>
				<path d="M212.846,208.422h-62.229c-1.381,0-2.5,1.119-2.5,2.5s1.119,2.5,2.5,2.5h62.229c1.381,0,2.5-1.119,2.5-2.5
					S214.227,208.422,212.846,208.422z"/>
			</g>
		</g>
		<g>
			<g>
				<path d="M212.846,196.828h-62.229c-1.381,0-2.5,1.119-2.5,2.5s1.119,2.5,2.5,2.5h62.229c1.381,0,2.5-1.119,2.5-2.5
					S214.227,196.828,212.846,196.828z"/>
			</g>
		</g>
		<g>
			<g>
				<path d="M206.624,231.612H156.84c-1.381,0-2.5,1.119-2.5,2.5s1.119,2.5,2.5,2.5h49.783c1.381,0,2.5-1.119,2.5-2.5
					S208.004,231.612,206.624,231.612z"/>
			</g>
		</g>
		<g>
			<g>
				<path d="M191.162,183.074h-18.86c-1.381,0-2.5,1.119-2.5,2.5s1.119,2.5,2.5,2.5h18.86c1.381,0,2.5-1.119,2.5-2.5
					S192.543,183.074,191.162,183.074z"/>
			</g>
		</g>
	</g>
</g>
<g id="Layer_37">
</g>
<g id="Layer_38">
</g>
<g id="Layer_39">
</g>
<g id="Layer_40">
</g>
<g id="Layer_41">
</g>
<g id="Layer_42">
</g>
<g id="Layer_43">
</g>
<g id="Layer_44">
</g>
<g id="Layer_45">
</g>
<g id="Layer_46">
</g>
<g id="Layer_47">
</g>
<g id="Layer_48">
</g>
<g id="Layer_49">
</g>
<g id="Layer_50">
</g>
<g id="Layer_51">
</g>
<g id="Layer_52">
</g>
<g id="Layer_53">
</g>
<g id="Layer_54">
</g>
<g id="Layer_55">
</g>
<g id="Layer_56">
</g>
<g id="Layer_57">
</g>
<g id="Layer_58">
</g>
<g id="Layer_59">
</g>
<g id="Layer_60">
</g>
<g id="Layer_61">
</g>
<g id="Layer_62">
</g>
<g id="Layer_63">
</g>
<g id="Layer_64">
</g>
<g id="Layer_65">
</g>
<g id="Layer_66">
</g>
<g id="Layer_67">
</g>
<g id="Layer_68">
</g>
<g id="Layer_69">
</g>
<g id="Layer_70">
</g>
<g id="Layer_71">
</g>
<g id="Layer_72">
</g>
<g id="Layer_73">
</g>
<g id="Layer_74">
</g>
<g id="Layer_75">
</g>
<g id="Layer_76">
</g>
<g id="Layer_77">
</g>
<g id="Layer_78">
</g>
<g id="Layer_79">
</g>
<g id="Layer_80">
</g>
<g id="Layer_81">
</g>
<g id="Layer_82">
</g>
<g id="Layer_83">
</g>
<g id="Layer_84">
</g>
<g id="Layer_85">
</g>
<g id="Layer_86">
</g>
<g id="Layer_87">
</g>
<g id="Layer_88">
</g>
<g id="Layer_89">
</g>
<g id="Layer_90">
</g>
</svg>
