<?xml version="1.0" encoding="utf-8"?>
<!-- Generator: Adobe Illustrator 16.0.0, SVG Export Plug-In . SVG Version: 6.00 Build 0)  -->
<!DOCTYPE svg PUBLIC "-//W3C//DTD SVG 1.0//EN" "http://www.w3.org/TR/2001/REC-SVG-20010904/DTD/svg10.dtd">
<svg version="1.0" id="Layer_1" xmlns="http://www.w3.org/2000/svg" xmlns:xlink="http://www.w3.org/1999/xlink" x="0px" y="0px"
	 width="100px" height="100px" viewBox="0 0 100 100" enable-background="new 0 0 100 100" xml:space="preserve">
<path d="M89.997,63.334V30l0,0c0-11.041-8.948-20-19.996-20l-0.003,0.003V10H39.999v0.003C28.958,10.005,20,18.954,20,30v53.334
	h-3.333C12.985,83.334,10,86.319,10,90l26.666-0.003c0-3.682-2.984-6.666-6.666-6.666h-3.334V30h0.004
	c0-7.364,5.973-13.331,13.333-13.331v-0.003h29.995v-0.002l0.003,0.004c7.363,0,13.33,5.973,13.33,13.333v33.332
	c0,3.685-2.988,6.666-6.667,6.666V53.333c0-9.206-7.46-16.667-16.666-16.667c-9.205,0-16.666,7.461-16.666,16.667v30.001
	c0,3.679,2.985,6.666,6.667,6.666h19.999c3.678,0,6.666-2.987,6.666-6.666v-6.667c7.36,0,13.336-5.964,13.336-13.333H89.997z
	 M69.998,83.334H49.999V53.333c0-5.523,4.476-10,9.999-10c5.524,0,10,4.476,10,10V70h-10c-1.842,0-3.333,1.491-3.333,3.333
	c0,1.843,1.491,3.334,3.333,3.334h10V83.334z"/>
<circle cx="59.999" cy="53.333" r="3.333"/>
</svg>
