<svg xmlns="http://www.w3.org/2000/svg" viewBox="0 0 1000 1000"><defs><style>.cls-1{fill:#404040;}</style></defs><title>Valentines_2</title><g id="Layer_2" data-name="Layer 2"><path class="cls-1" d="M270.28658,271.749a25.88886,25.88886,0,1,1,25.88886-25.88886A25.91837,25.91837,0,0,1,270.28658,271.749Zm0-44.107a18.21809,18.21809,0,1,0,18.21809,18.21809A18.23881,18.23881,0,0,0,270.28658,227.642Z"/><path class="cls-1" d="M717.06839,367.7679A25.88886,25.88886,0,1,1,742.95725,341.879,25.91838,25.91838,0,0,1,717.06839,367.7679Zm0-44.10695A18.21809,18.21809,0,1,0,735.28647,341.879,18.23881,18.23881,0,0,0,717.06839,323.661Z"/><path class="cls-1" d="M277.95736,522.06107a25.88886,25.88886,0,1,1,25.88886-25.88886A25.91837,25.91837,0,0,1,277.95736,522.06107Zm0-44.10695a18.21809,18.21809,0,1,0,18.21808,18.21809A18.23881,18.23881,0,0,0,277.95736,477.95412Z"/><path class="cls-1" d="M773.572,490.77426a12.82014,12.82014,0,1,1,12.82014-12.82014A12.83475,12.83475,0,0,1,773.572,490.77426Zm0-21.84172a9.02158,9.02158,0,1,0,9.02158,9.02158A9.03184,9.03184,0,0,0,773.572,468.93254Z"/><path class="cls-1" d="M790.63324,354.69917A12.82014,12.82014,0,1,1,803.45338,341.879,12.83475,12.83475,0,0,1,790.63324,354.69917Zm0-21.84171a9.02158,9.02158,0,1,0,9.02158,9.02158A9.03184,9.03184,0,0,0,790.63324,332.85746Z"/><path class="cls-1" d="M230.62976,447.25078a12.82014,12.82014,0,1,1,12.82014-12.82014A12.83475,12.83475,0,0,1,230.62976,447.25078Zm0-21.84171a9.02158,9.02158,0,1,0,9.02158,9.02157A9.03183,9.03183,0,0,0,230.62976,425.40907Z"/><path class="cls-1" d="M654.05518,397.41669a12.82014,12.82014,0,1,1,12.82014-12.82014A12.83475,12.83475,0,0,1,654.05518,397.41669Zm0-21.84171a9.02158,9.02158,0,1,0,9.02158,9.02157A9.03183,9.03183,0,0,0,654.05518,375.575Z"/><path class="cls-1" d="M334.74281,297.38925a12.82014,12.82014,0,1,1,12.82013-12.82014A12.83475,12.83475,0,0,1,334.74281,297.38925Zm0-21.84171a9.02158,9.02158,0,1,0,9.02157,9.02157A9.03184,9.03184,0,0,0,334.74281,275.54754Z"/><path class="cls-1" d="M230.62976,328.81031a12.82014,12.82014,0,1,1,12.82014-12.82013A12.83474,12.83474,0,0,1,230.62976,328.81031Zm0-21.84171a9.02158,9.02158,0,1,0,9.02158,9.02158A9.03184,9.03184,0,0,0,230.62976,306.9686Z"/><path class="cls-1" d="M334.74281,216.86742a12.82014,12.82014,0,1,1,12.82013-12.82013A12.83475,12.83475,0,0,1,334.74281,216.86742Zm0-21.84171a9.02158,9.02158,0,1,0,9.02157,9.02158A9.03184,9.03184,0,0,0,334.74281,195.02571Z"/><path class="cls-1" d="M764.55043,421.61051a12.82014,12.82014,0,1,1,12.82014-12.82014A12.83475,12.83475,0,0,1,764.55043,421.61051Zm0-21.84171a9.02158,9.02158,0,1,0,9.02158,9.02157A9.03183,9.03183,0,0,0,764.55043,399.7688Z"/><path class="cls-1" d="M487.48643,697.17461,476.8642,724.4493a11.75521,11.75521,0,0,0,1.98137,3.8691,3.31125,3.31125,0,0,1,.53935,2.251,5.51681,5.51681,0,0,1-2.88029,4.68187Q468.94248,740.201,466.242,750.1022a98.25978,98.25978,0,0,1-3.23985,10.802q-3.871,9.81507-8.46108,9.8132-2.88216,0-7.29248-4.05262-4.94967-4.50022-4.95154-8.82065,0-.17977,3.105-6.79432,3.10688-6.6183,5.9853-13.36767a110.4789,110.4789,0,0,0,5.31111-14.85464l-20.52157-34.38364a22.34153,22.34153,0,0,1,1.80158-2.7005q1.2585-1.43828,4.768-1.442,9.80944,0,15.75355,10.35255,2.61249,4.85977,5.22122,9.72331,2.78666-2.5226,4.3223-8.10151,2.60687-9.45551,5.58079-9.45363a15.01811,15.01811,0,0,1,7.37862,2.52072Q486.31783,692.49461,487.48643,697.17461Z"/><path class="cls-1" d="M545.09588,734.80185q0,15.38837-5.13133,25.02365-6.12388,11.43312-17.9147,11.43125-11.61291,0-20.25189-10.8919-7.29247-9.18021-7.29248-17.19182A31.19617,31.19617,0,0,0,493.247,734.079a23.84829,23.84829,0,0,1-1.26224-5.67068q.35958-2.06751.53936-3.06007a16.85688,16.85688,0,0,1,.81277-3.23985q2.2473-2.61249,4.27361-11.52114,2.02818-8.91054,4.547-12.42381,4.41031-6.11826,13.77218-6.12014,11.70281,0,18.63384,6.5696,6.02838,5.67443,8.551,16.11312A86.23913,86.23913,0,0,1,545.09588,734.80185Zm-16.56258-1.6218a7.32725,7.32725,0,0,0-.81277-3.32974,6.489,6.489,0,0,1-.809-2.7904,10.00131,10.00131,0,0,1,.26968-1.89147,2.962,2.962,0,0,0,.62924-2.251q0-4.50023-2.7005-11.02674-2.69676-6.52278-5.03769-6.52465-2.07313,0-4.592,7.29247a127.39312,127.39312,0,0,0-3.50952,13.59241q-.72476,3.69118-1.442,7.28873,0,8.46106,1.442,13.053a49.91258,49.91258,0,0,0,4.40844,8.73075q7.56216-4.85979,8.1914-5.58079Q528.53143,744.97274,528.5333,733.18005Z"/><path class="cls-1" d="M600.99365,728.3184a12.1155,12.1155,0,0,0-1.57686,2.74545,7.01612,7.01612,0,0,0-.40451,2.38588v2.52071a51.28519,51.28519,0,0,1-1.88773,11.79082,52.85435,52.85435,0,0,1-6.46847,15.84345q-5.298,8.01161-12.39759,8.01161a22.05656,22.05656,0,0,1-14.4651-4.86165q-4.85417-4.05075-8.536-11.9706a144.2084,144.2084,0,0,1-5.39351-15.03442V724.4493q.25281-1.07869,1.43452-13.86207,1.17422-12.7815,1.17609-19.353v-3.15a2.57852,2.57852,0,0,1,1.0375.17979,7.93579,7.93579,0,0,1,.854.44946q.809-.62925,1.71169-1.35213a3.63418,3.63418,0,0,0,.809-2.52072q6.65761,1.4439,8.91053,1.98137,5.75869,1.53378,5.76057,7.92172-.44946,3.33162-.89892,6.5696-1.07869,7.56216-1.80158,15.12431-1.0787,11.07356-1.0787,16.92215a63.10584,63.10584,0,0,0,1.03376,13.0081,19.589,19.589,0,0,0,4.72681,8.77569,16.72846,16.72846,0,0,0,4.50208-5.31111A48.1825,48.1825,0,0,0,583.622,735.3412a120.43994,120.43994,0,0,0,2.7005-27.1848,32.54705,32.54705,0,0,0-1.35212-10.17276q-1.61805-3.05633-3.15-6.12014a1.97519,1.97519,0,0,1,.26967-.94387,3.34321,3.34321,0,0,0,.35957-.94761l1.26223,1.26223q1.34838-1.70794,2.7904-3.51327,1.07869-1.0787,4.49834-1.0787a10.19347,10.19347,0,0,1,6.93291,2.7005q3.05633,2.70237,3.06007,5.13133Z"/><path class="cls-1" d="M626.73655,521.77c3.52459-10.17269,7.33283-20.25785,10.518-30.53577,7.80741-25.19369,23.53112-37.06555,45.16575-32.64273,25.56244,5.22558,25.78661,25.37181,24.01974,44.93091-2.60288,28.80337-15.25767,50.77137-47.74911,57.01169,2.20546,10.44292,3.19854,19.51609,6.06708,27.95181,10.84918,31.901,36.95574,41.50788,64.52721,22.20254C824.56046,543.97746,879.31,454.969,877.14932,335.70941c-1.24409-68.66486-46.23326-114.594-115.2449-118.12778-69.70827-3.56942-126.67359,20.00593-168.24644,77.77493-4.21359,5.8545-16.6808,13.37033-18.83259,11.7099a48.77074,48.77074,0,0,1-15.85425-22.63381c-24.5361-77.15334-70.10568-135.84131-148.23579-162.90679C312.0125,87.32763,204.331,131.3231,168.03255,242.11713c-30.1649,92.07215-19.619,179.71234,25.60025,262.39321,17.29126,31.61578,47.82567,55.88654,71.47224,84.21624,4.69945,5.63032,5.50908,14.50768,8.11241,21.88748-8.10006-.16623-18.34779,2.82583-23.96316-.99339-48.7091-33.128-82.36809-78.84243-102.34382-133.67794-31.23286-85.737-33.88408-172.71165-.59536-258.41844C202.1716,73.71361,370.23352,43.711,479.89218,124.14856c47.08467,34.5377,80.19465,78.45631,101.58528,136.08562,13.12785-11.60589,23.33867-23.7245,36.18409-31.47792,72.55179-43.79112,147.96388-60.37829,225.78578-14.32437,41.77994,24.72551,60.35938,64.97953,62.81738,112.5795,6.19671,119.9956-44.88485,213.56256-134.56244,289.0201-5.7206,4.81352-11.82306,9.17625-17.7843,13.70064-52.07647,39.52324-100.46547,23.07118-117.63-39.9844-8.84015-32.4765-8.84015-32.4765-26.04006-39.22617-11.12308,24.8408-20.518,50.65821-34.12686,74.021-6.11649,10.50026-21.61877,23.22887-31.10552,21.947-9.85306-1.33194-21.37325-17.07822-25.37638-28.83266-6.39984-18.79354-7.19315-39.49609-11.32271-65.4657-7.62609,28.043-13.22575,49.94756-19.5716,71.63374-7.7179,26.375-29.46751,41.93092-53.46132,39.00626-24.33725-2.96674-40.3254-20.32038-36.77366-50.1327,4.04172-33.92555,9.997-69.18061,23.82743-99.94331,13.7647-30.61691,35.04857-30.332,59.535-6.54379,5.82293,5.65654,9.77894,13.2346,16.465,22.531,8.71083-11.33262,13.17055-18.07588,18.59987-23.91848,4.88246-5.25425,10.0613-16.28065,16.30535-14.2222s11.44943,17.17888,9.86678,24.0963c-7.26329,31.75029-5.964,62.3004,3.57309,94.25657,28.47732-23.29292,34.41569-70.3872,17.2109-99.12042-5.82949-9.73594-10.13827-30.63689-5.52662-36.37045s26.55307-4.94467,39.64829-4.20535c16.02353.90463,18.54894,13.53594,18.24729,27.37627-.17507,8.04105,1.61376,16.1251,2.519,24.18963Q622.75873,521.29682,626.73655,521.77Zm-175.67428-2.6596c-15.357,23.3896-28.09455,82.97428-23.24534,101.60251,3.87214,14.8749,11.26231,20.07761,24.33206,7.94314,18.0225-16.73235,29.03044-71.05027,17.3881-92.99051C466.12825,529.241,458.1386,525.247,451.06227,519.11043Z"/><path class="cls-1" d="M313.34048,645.59827Q423.117,763.91226,530.5786,879.731c41.60945-52.62882,85.94652-109.16562,130.87468-165.22845a358.0915,358.0915,0,0,1,38.97424-41.83545c4.41336-3.98789,14.36222-10.44473,21.39673-2.93686s2.09505,18.455-1.999,23.55736C673.13848,751.47172,624.49113,808.1,578.46832,866.79166c-17.75166,22.63869-30.16245,49.46627-46.4675,76.83766-14.848-20.52931-29.85654-39.65592-43.128-59.92048-62.1018-76.547-112.67209-132.91273-180.084-197.92456-13.4301-11.61626-23.52777-13.27577-37.1883,2.67669-14.24446,16.63414-32.77357,30.17039-51.107,42.5824-21.49235,14.55068-52.0719,8.87431-65.22689-9.57063-12.897-18.0832-5.78312-50.98791,14.66887-66.79642,23.97764-18.534,52.43652-22.28916,80.47129-17.694,20.43719,3.34952,32.73148-.99338,43.30571-18.08137,31.17719-50.38188,63.13458-100.28156,97.82737-155.18172-41.1518-1.20262-74.27078-7.1175-99.7562-33.0438-4.05575-4.12605-28.76454-29.74494-11.90251-41.87541,11.686-8.40683,20.10368,5.426,25.41969,11.98013,20.16484,24.86032,65.47714,40.12958,93.8,28.2867,5.25455-2.19722,9.23268-8.61261,12.65632-13.83118,20.4343-31.14578,39.58363-63.19375,61.28261-93.41751,7.17271-9.99031,19.62285-18.46171,31.40991-22.42946,31.37652-10.56188,53.5635,9.98756,45.36172,41.83118-11.69434,45.404-39.88634,79.60493-83.36575,95.82092-34.38916,12.82559-51.7094,36.73339-68.066,67.01541C371.29889,554.19255,339.83835,601.96362,313.34048,645.59827Zm135.81035-236.8079c46.04751-14.74313,72.10207-46.94574,67.47459-82.04494C478.38334,341.83382,470.81627,381.17864,449.15083,408.79037ZM255.66792,665.25254c-23.57413-4.29045-52.6385-2.92039-69.64886,16.313-4.324,4.88947-9.35917,12.48838-3.41479,21.89907s14.40824,6.96927,18.94193,4.49022C219.96292,697.884,257.50738,668.29492,255.66792,665.25254Z"/></g></svg>