<svg xmlns="http://www.w3.org/2000/svg" viewBox="0 0 1000 1000"><defs><style>.cls-1{fill:#3d3d3d;}.cls-2{fill:#b94731;}</style></defs><title>Valentines_16</title><g id="Layer_16" data-name="Layer 16"><path class="cls-1" d="M504.60461,396.15883v3.79446a23.664,23.664,0,0,1-3.00482,11.06893,77.25886,77.25886,0,0,1-7.74825,11.70063q-6.64135,7.58892-12.6496,7.58892-6.01033,0-12.6496-9.48685-3.16345-3.15716-3.16135-5.69239,0-1.89723,2.52964-6.95721,7.27027-13.593,19.60681-31.94055,10.43581-15.4902,20.87163-31.30745,12.64541-19.6033,21.18749-34.786a379.15628,379.15628,0,0,0,18.65924-36.684,106.37509,106.37509,0,0,0,6.64-18.9737q1.57857-5.37513,4.11171-20.23992A146.56947,146.56947,0,0,0,507.766,257.9622a124.25507,124.25507,0,0,0-36.05087,41.4274,35.92648,35.92648,0,0,1,6.48343-2.21378,33.494,33.494,0,0,1,8.0641-1.58207q5.69169,0,5.69239,3.16274,0,3.79446-10.43582,11.38478-6.96,4.74412-13.59856,9.48685-6.64136,5.69171-10.75307,5.69239-4.1131,0-10.75167-5.69239Q437.24,310.142,434.87318,306.18749a16.58221,16.58221,0,0,1-2.37171-8.69582l1.26482-8.85514q8.85094-25.61574,30.67573-46.48668,19.28467-18.3371,46.48669-31.30745,15.17994-6.32269,20.55577-8.22342,12.96407-4.42338,22.45371-4.42618a36.0022,36.0022,0,0,1,13.59717,2.68757,27.45752,27.45752,0,0,1,11.06892,8.0641q5.69169,7.58894,5.69239,22.13646,0,16.44825-7.90618,39.53087A257.99489,257.99489,0,0,1,562.79193,302.551q-11.702,23.40825-27.19573,48.06875Q522.62375,371.18108,504.60461,396.15883Z"/><path class="cls-1" d="M305.30528,572.335a16.56788,16.56788,0,0,0,7.43239,6.48342,25.4237,25.4237,0,0,0,9.64478,1.73861,34.49075,34.49075,0,0,0,12.96545-2.68757,46.39348,46.39348,0,0,0,12.33375-7.431,303.87333,303.87333,0,0,0,23.08541-21.50474q4.74412-5.05438,21.8206-23.40127l-.63311-13.91581q-30.67644,28.15027-34.15294,30.67573-11.70414,8.53859-18.9751,8.53928-7.27866,0-10.9096-8.53928-3.63933-8.53858-3.63653-27.513,24.97635-19.28467,41.11015-36.684,20.553-22.13157,31.30884-43.95705a117.75659,117.75659,0,0,0,12.33235-52.17908v-3.16274q0-10.11717-6.3241-10.12-6.96,0-21.18889,12.01788-5.69169,4.742-16.1282,15.17924a277.63722,277.63722,0,0,0-36.52466,45.53773,303.97329,303.97329,0,0,0-27.355,52.49633,155.68774,155.68774,0,0,0-6.3255,20.55577,87.22594,87.22594,0,0,0-2.52964,19.92267,67.04068,67.04068,0,0,0,3.16275,19.76473A54.23173,54.23173,0,0,0,305.30528,572.335Zm50.5984-132.50425a323.98992,323.98992,0,0,1,33.52123-43.957q-9.48615,30.99719-22.13645,51.86322a181.86158,181.86158,0,0,1-16.12821,21.18749,236.45391,236.45391,0,0,1-20.55577,20.55578A297.08509,297.08509,0,0,1,355.90368,439.83077Z"/><path class="cls-1" d="M730.95852,530.90761q-27.5109,21.8213-45.85358,21.8206H683.207q-9.80689,0-14.3896-7.29264-4.58689-7.29333-4.5855-18.08483a173.147,173.147,0,0,0,29.09506-9.83345,134.92078,134.92078,0,0,0,26.564-15.54541q11.38338-9.19895,16.75992-16.17712,8.53857-10.78382,8.53928-20.62007,0-8.56164-6.00825-11.57764-6.01244-3.00833-15.49649-3.01461h-1.89793a67.98111,67.98111,0,0,0-27.98677,6.31013,105.08946,105.08946,0,0,0-25.773,16.40492A107.68184,107.68184,0,0,0,643.99339,500.742a71.92833,71.92833,0,0,0-9.55708,26.84546c-7.35762,5.77467-13.66705,8.69668-18.90347,8.69668q-6.01035,0-11.38478-6.32549a176.53711,176.53711,0,0,0,14.86338-20.55438,97.79458,97.79458,0,0,0,10.43582-23.08542l1.26482-8.85514a12.35613,12.35613,0,0,0-1.26482-5.85031q-1.26622-2.37312-5.05928-3.63654h-3.16275a11.42621,11.42621,0,0,0-6.64136,2.52964,57.75653,57.75653,0,0,0-4.74342,4.42757,122.91007,122.91007,0,0,0-19.60681,23.40127,88.38018,88.38018,0,0,0-12.01649,27.82885q-11.38548,12.65169-16.12821,16.76131Q550.06616,553.68,543.4311,553.36131q-6.3311,0-6.3255-8.222a35.76307,35.76307,0,0,1,1.89793-9.962,52.04729,52.04729,0,0,1,3.63653-9.32892q1.73372-3.15716,7.90617-9.171,6.16548-6.00405,8.06411-8.222a98.33564,98.33564,0,0,0,15.17924-22.13645q1.89723-3.4779,3.79446-6.9586,1.89723-3.47581,1.89793-5.05929,0-4.42546-6.3255-6.64135a33.73371,33.73371,0,0,0-10.75167-2.21378q-6.96,0-13.59857,6.00964a76.5852,76.5852,0,0,0-7.27306,7.90478,132.57879,132.57879,0,0,0-18.65785,28.14609q-7.90967,16.76481-7.90617,32.57227,0,1.587.15792,5.06067.16353,3.4821.47379,5.69239A50.255,50.255,0,0,0,523.507,571.0702q7.27238,10.74817,17.393,10.75167h2.531q9.79851,0,24.35023-13.28132,1.89723-1.57857,20.55578-21.50473,11.38338,8.22831,20.23852,8.222,10.74817,0,22.4537-9.171c.87489-.69111,1.89933-1.567,3.02631-2.57034a46.90329,46.90329,0,0,0,5.95042,20.47768q6.13612,10.57,19.66132,14.03881,1.88255.31026,5.50371.78544a50.24907,50.24907,0,0,0,6.44849.47379q25.16293,0,55.67864-27.19574,7.5449-6.95371,25.48089-25.9323V511.61666Q740.44607,523.32078,730.95852,530.90761Zm-51.546-37.9488a88.2812,88.2812,0,0,1,18.342-16.1282q4.10472-2.2075,8.53788-4.42757,7.58893-3.79446,11.06893-3.79446a4.72668,4.72668,0,0,1,1.7386.31585,4.33381,4.33381,0,0,1,1.42275.949V472.403q0,9.48823-23.71713,24.35163-17.71446,11.07312-31.30744,16.1282A124.91057,124.91057,0,0,1,679.41255,492.95881Z"/><path class="cls-1" d="M649.36992,694.00373a78.75366,78.75366,0,0,1-9.64478,6.482q-6.16756,3.63933-9.962,3.63654-4.43177,0-6.3241-5.05929a9.27732,9.27732,0,0,1-.949-1.7386,3.82912,3.82912,0,0,1-.31586-1.42275q0-5.05649,5.21721-15.49649a195.81634,195.81634,0,0,1,15.02131-24.35163q1.57859-2.52825,11.38478-13.28271,7.90128-8.84676,9.32893-12.96406a30.061,30.061,0,0,0,1.42414-9.8055,23.22155,23.22155,0,0,0-1.276-7.74545,8.10712,8.10712,0,0,0-3.814-4.90275h-1.90771q-2.85946,0-8.26675,3.81822-5.72943,4.784-11.44907,9.55673-5.721,5.7399-27.66532,28.6646a353.023,353.023,0,0,1-28.304,27.39q-2.85948,2.54921-9.54136,8.91943-10.17586,9.23668-17.80811,11.463h-2.545l-1.269-1.26343v-1.26621q0-4.42338,2.52964-12.49168,2.52825-8.06269,5.05928-9.64617,4.10682-4.10474,12.33375-12.01649,13.593-12.96406,20.55577-20.87163a47.8207,47.8207,0,0,0,5.37654-6.3255q3.4758-4.742,3.4786-8.22064,0-3.48-1.89793-4.42757a30.05057,30.05057,0,0,0-15.17924-3.79585,28.3447,28.3447,0,0,0-7.74825.94756,15.79081,15.79081,0,0,0-6.16617,3.48q-11.70413,8.22621-24.19231,25.13987-12.49656,16.922-15.65442,29.8861c-.39587,3.08081-.696,5.55367-.90634,7.463q-12.74918,9.95-25.02317,12.14524,10.74818-18.3392,13.91442-29.09506a73.85134,73.85134,0,0,0,3.16275-20.87163v-2.52964q0-6.64136-2.21379-9.962-2.21588-3.32067-7.90617-3.32067,1.57858-2.20961,4.42757-6.3255a5.60857,5.60857,0,0,0,.63311-2.52964c0-1.26622-.73653-2.58-2.19981-3.95239q-2.2012-2.05446-7.85586-4.11172a36.63549,36.63549,0,0,0-12.57134-2.05446q-14.45249,0-32.364,11.70064a105.72441,105.72441,0,0,0-24.81983,21.8192,102.87425,102.87425,0,0,0-13.19885,22.13784,64.51183,64.51183,0,0,0-5.491,20.84106q-8.12377,8.16255-16.60915,15.84292-16.1296,14.54894-39.21363,32.88813l37.9488-58.819q5.0544-6.9558,10.27649-14.3896a103.04407,103.04407,0,0,0,8.69722-14.70545,22.31449,22.31449,0,0,0,3.79446-12.651,18.56813,18.56813,0,0,0-2.52964-9.64338,11.75813,11.75813,0,0,0-7.58893-5.53447q-26.88407,26.87988-32.2578,31.94056A428.42035,428.42035,0,0,1,345.152,681.35274q-11.70414,8.23041-16.12821,11.06892-11.07312,7.27866-16.1282,9.171h-.63311q-.94756,0-1.1069-1.42275a26.34334,26.34334,0,0,1-.15792-3.00482q0-10.43581,12.96545-23.08542,6.95371-6.95162,20.55578-18.65784,8.21993-8.21784,11.38478-12.0165,8.21992-9.79851,8.222-15.81235a24.92309,24.92309,0,0,0-.15793-2.689,3.52137,3.52137,0,0,0-.47378-1.7386,19.01128,19.01128,0,0,0-6.3255-6.80068,13.61776,13.61776,0,0,0-6.95721-2.05446q-4.74412,0-11.38478,5.53446-6.64135,5.53446-12.6496,10.9096a118.35869,118.35869,0,0,0-24.982,26.56541q-11.70413,17.71448-11.702,34.15434v4.42757q0,8.5365,6.3255,23.24195,6.3227,14.70405,13.91442,14.70546,6.00405,0,19.92266-9.962,13.91373-9.962,35.10331-29.8833-22.4586,32.24244-29.72677,44.56081-15.4986,25.27824-24.03438,47.72216a38.44016,38.44016,0,0,1-1.26482,6.3199,47.84915,47.84915,0,0,0,2.52964,14.06257q2.52823,8.05432,5.06068,9.32473,3.15715,0,16.1282-15.79837,4.10472-5.0565,12.33235-15.79838,13.28271-16.11284,29.72677-34.74971,15.17994-17.0646,30.67573-34.14036c3.98838-4.45238,7.68361-8.60078,11.14771-12.509a45.65,45.65,0,0,0,4.03013,12.66829,35.432,35.432,0,0,0,13.59857,15.02131,28.31754,28.31754,0,0,0,7.90617,3.47721,32.36342,32.36342,0,0,0,7.90618.95036q10.74607,0,21.50334-6.48482a96.072,96.072,0,0,0,19.60681-15.653l3.79586.63171q12.962,0,28.14469-11.06893c1.2222-.92975,2.71849-2.15194,4.43858-3.61277a51.95264,51.95264,0,0,0,3.30688,14.05,30.87285,30.87285,0,0,0,11.5427,14.54613q1.57859.95175,4.74343,2.84829a10.50176,10.50176,0,0,0,4.11171.94757,15.67784,15.67784,0,0,0,7.90618-2.689,41.71877,41.71877,0,0,0,7.90617-6.16617,224.92938,224.92938,0,0,0,16.28613-16.75992q8.06271-9.1696,15.33717-18.65785a136.91207,136.91207,0,0,0-6.48342,18.342,54.775,54.775,0,0,0-1.73861,13.28271,21.198,21.198,0,0,0,4.11032,13.27992q4.10682,5.37513,12.33374,6.3255h1.89793q14.54264,0,38.58051-22.45371,10.11717-9.48405,31.6247-33.83569V667.43832q-7.591,6.64136-15.49649,13.75789Q656.32573,688.31134,649.36992,694.00373ZM484.32,655.42183q-2.631,5.69377-5.58757,13.91442-.66666,3.16554-1.9762,9.8027a60.88935,60.88935,0,0,0-1.31513,11.70064v7.59171q-14.289,12.64961-23.61371,12.64821a10.614,10.614,0,0,1-8.69721-3.79307q-3.11313-3.79864-3.10824-10.12135,0-12.64542,12.166-27.19713,14.40847-17.07717,39.69719-28.46055Q485.30457,653.52808,484.32,655.42183Z"/><path class="cls-2" d="M430.52618,584.53868a47.69042,47.69042,0,0,1,.02208-5.03579c2.5285-19.73278-5.69623-35.35011-18.70787-49.16728-11.903-12.63975-19.50567-26.92206-17.12874-45.01281,2.96114-22.536,22.69648-31.64809,37.0582-28.58923,11.19473,2.38435,20.049,8.14567,23.55516,20.10835,3.40863-4.59734,5.85753-9.47657,9.67236-12.77732,18.16857-15.72,45.27894-6.11827,51.02271,17.66908,2.18368,9.04352-.3044,17.45507-2.76067,25.9066-3.56594,12.26892-11.71919,21.88537-19.90126,31.01494-7.143,7.97008-15.85177,14.68651-24.48357,21.13382-10.177,7.60146-20.991,14.35426-31.58989,21.38277A64.42568,64.42568,0,0,1,430.52618,584.53868Z"/><rect class="cls-2" x="822.25502" y="526.90949" width="11.08108" height="102.9445" rx="5.54054" transform="translate(94.27145 1272.43744) rotate(-78.35839)"/><rect class="cls-2" x="769.41577" y="419.15249" width="74.7104" height="11.08108" rx="4.75785" transform="translate(-88.2387 250.9079) rotate(-16.77435)"/><path class="cls-2" d="M674.97539,344.71922h91.86343a5.54054,5.54054,0,0,1,5.54054,5.54054v0a5.54054,5.54054,0,0,1-5.54054,5.54054H674.9754a5.54054,5.54054,0,0,1-5.54054-5.54054v0A5.54053,5.54053,0,0,1,674.97539,344.71922Z" transform="translate(-67.6219 493.82495) rotate(-36.2319)"/><rect class="cls-2" x="597.02914" y="267.59163" width="79.51976" height="11.08108" rx="4.93061" transform="translate(81.85508 688.04152) rotate(-60)"/><rect class="cls-2" x="186.40924" y="444.46519" width="11.08108" height="102.9445" rx="5.54054" transform="translate(-314.64539 657.67797) rotate(-86.54806)"/><rect class="cls-2" x="247.95606" y="307.66979" width="11.08108" height="75.66624" rx="4.7879" transform="translate(-174.66301 327.83556) rotate(-51.3695)"/><path class="cls-2" d="M369.13842,215.32485h0a5.54054,5.54054,0,0,1,5.54054,5.54054v91.86344a5.54053,5.54053,0,0,1-5.54053,5.54053h0a5.54054,5.54054,0,0,1-5.54054-5.54054V220.86539a5.54054,5.54054,0,0,1,5.54054-5.54054Z" transform="translate(-81.29625 199.32505) rotate(-27.33858)"/><rect class="cls-2" x="760.37577" y="678.46569" width="11.08108" height="79.85915" rx="4.95674" transform="translate(-278.37041 828.78002) rotate(-49.20023)"/><rect class="cls-2" x="168.34947" y="670.32062" width="83.31298" height="11.08108" rx="5.01154" transform="translate(-219.12294 113.06528) rotate(-20.06408)"/><rect class="cls-2" x="587.42543" y="778.13108" width="11.08108" height="86.5115" rx="5.09091" transform="translate(-211.82343 206.08285) rotate(-16.77435)"/><path class="cls-2" d="M346.02,816.89817h91.86343a5.54054,5.54054,0,0,1,5.54054,5.54054v0a5.54053,5.54053,0,0,1-5.54053,5.54053H346.02a5.54054,5.54054,0,0,1-5.54054-5.54054v0a5.54053,5.54053,0,0,1,5.54053-5.54053Z" transform="translate(-513.1927 926.09745) rotate(-71.05196)"/></g></svg>