<svg xmlns="http://www.w3.org/2000/svg" viewBox="0 0 1000 1000"><defs><style>.cls-1{fill:#3d3d3d;}</style></defs><title>Valentines_11</title><g id="Layer_11" data-name="Layer 11"><path class="cls-1" d="M471.07979,420.28737a9.89582,9.89582,0,0,1-9.65152-9.65,10.06329,10.06329,0,0,1,.64447-2.89468,109.56316,109.56316,0,0,0,2.73317-13.83359,118.20309,118.20309,0,0,0,1.12588-16.40525,113.31255,113.31255,0,0,0-.64292-11.42032q-.64756-6.27078-1.76879-11.90173a51.46515,51.46515,0,0,0-2.73473-9.49157q-1.61428-3.85751-3.21614-3.8575-2.57865,0-5.79091,5.78936a127.10585,127.10585,0,0,0-6.27232,13.18756q-3.06086,7.40753-5.308,14.638-2.25488,7.23515-3.21769,9.81147-1.28817,3.85751-2.89468,9.973a69.55479,69.55479,0,0,1-4.342,11.90173,39.01413,39.01413,0,0,1-6.43383,9.81148,11.95158,11.95158,0,0,1-9.16856,4.019q-5.4741,0-8.84554-4.98493a37.38277,37.38277,0,0,1-5.148-12.54465A94.98473,94.98473,0,0,1,397.896,385.868q-.48219-9.0055-.483-16.72827,0-17.68953.1615-37.31714.1584-19.61362,1.12588-39.40429.96438-19.786,3.05619-38.76448,2.08715-18.97537,5.62941-35.70519a7.45269,7.45269,0,0,1,3.37764-4.988,10.77214,10.77214,0,0,1,5.95086-1.76725,8.903,8.903,0,0,1,9.65152,9.65q-2.25486,12.54619-3.8606,29.91583-1.61428,17.37273-2.89468,35.7083-1.29049,18.33711-1.93031,35.70519-.6499,17.37273-.64447,29.91893V366.888q0,7.40286.64447,14.79641,1.92876-6.75529,5.308-16.88667a150.68622,150.68622,0,0,1,8.20263-19.78445,67.64681,67.64681,0,0,1,11.41876-16.56676q6.58991-6.91368,15.28093-6.91679,9.00084,0,14.47495,6.27387a42.915,42.915,0,0,1,8.36413,15.28093A83.27392,83.27392,0,0,1,484.42886,361.58q.799,9.49.80442,15.92385a144.19922,144.19922,0,0,1-1.28583,19.62294,99.5349,99.5349,0,0,1-3.53915,16.40526,8.93849,8.93849,0,0,1-3.53915,4.98493A9.96845,9.96845,0,0,1,471.07979,420.28737Z"/><path class="cls-1" d="M559.86135,370.7486a8.40407,8.40407,0,0,1,3.21769-5.46946,9.88949,9.88949,0,0,1,6.11237-1.92875,9.5406,9.5406,0,0,1,6.75529,2.73318,9.11436,9.11436,0,0,1,2.89468,6.91679,18.56649,18.56649,0,0,1-1.12588,5.62785q-1.13209,3.37765-2.57322,6.75529-1.4489,3.37764-3.2177,6.59689-1.77034,3.21924-2.73317,4.82343-14.80107,23.48511-38.603,23.48355-9.65074,0-16.24531-4.02211a32.78647,32.78647,0,0,1-10.77584-10.6159,47.75882,47.75882,0,0,1-6.11238-14.7964,70.70638,70.70638,0,0,1-1.9303-16.24375,87.66307,87.66307,0,0,1,2.57322-21.07029,74.42139,74.42139,0,0,1,7.39976-18.98,44.33152,44.33152,0,0,1,11.58027-13.67208,24.33954,24.33954,0,0,1,15.11942-5.14644,32.91208,32.91208,0,0,1,20.58732,6.91679q9.00317,6.91835,9.00705,19.13843a24.35928,24.35928,0,0,1-3.6991,13.67208,31.461,31.461,0,0,1-9.49,9.33006,42.80087,42.80087,0,0,1-13.02762,5.46635,58.67668,58.67668,0,0,1-13.99353,1.77035,8.719,8.719,0,0,1-6.43383-2.57167,10.51114,10.51114,0,0,0-.32146,2.57167v2.57478a62.30509,62.30509,0,0,0,.64291,8.52253,34.06828,34.06828,0,0,0,2.25177,8.52564,17.19506,17.19506,0,0,0,4.825,6.59378,11.967,11.967,0,0,0,8.04268,2.73628,20.23511,20.23511,0,0,0,10.61589-2.89779,34.36747,34.36747,0,0,0,8.52409-7.23669,45.51537,45.51537,0,0,0,6.27387-9.65A54.23813,54.23813,0,0,0,559.86135,370.7486Zm-41.81911-17.37118a15.73026,15.73026,0,0,1,1.77035-.48142,9.13456,9.13456,0,0,1,1.7688-.1615,46.01258,46.01258,0,0,0,6.11237-.48452,28.45572,28.45572,0,0,0,6.75528-1.76724,19.54556,19.54556,0,0,0,5.62941-3.3792,6.70938,6.70938,0,0,0,2.41172-5.308,5.55078,5.55078,0,0,0-2.89468-4.98494,14.02445,14.02445,0,0,0-7.39821-1.77035,6.99223,6.99223,0,0,0-4.825,2.09026,23.325,23.325,0,0,0-4.02212,4.988,63.17817,63.17817,0,0,0-3.21613,5.95087A35.66906,35.66906,0,0,0,518.04224,353.37742Z"/><path class="cls-1" d="M613.90365,407.41972a10.62063,10.62063,0,0,1,.64447,3.21769,9.89582,9.89582,0,0,1-9.65152,9.65q-6.7553,0-9.32851-6.43227a79.839,79.839,0,0,1-3.21614-15.92385q-1.29049-10.44972-2.25176-23.645-.9667-13.18446-1.44889-27.82558-.48219-14.63335-.80287-28.14858-.32611-13.51058-.323-24.60789V276.17147q0-18.011.483-33.13353.48219-15.1132,1.44734-23.48044a10.13467,10.13467,0,0,1,3.37764-5.95087,9.19468,9.19468,0,0,1,6.27388-2.41327,9.5406,9.5406,0,0,1,6.75529,2.73318,9.11354,9.11354,0,0,1,2.89468,6.91679q-.96438,7.08141-1.44734,22.03621-.48219,14.95482-.483,33.61494,0,6.75528.16151,18.0141.1584,11.265.32146,24.44948.1584,13.19378.64291,27.02115.48219,13.832,1.28739,26.05522.799,12.22941,1.93031,21.71321Q612.29325,403.24231,613.90365,407.41972Z"/><path class="cls-1" d="M651.8606,407.41972a10.62063,10.62063,0,0,1,.64447,3.21769,9.89582,9.89582,0,0,1-9.65152,9.65q-6.75528,0-9.32851-6.43227a79.839,79.839,0,0,1-3.21614-15.92385q-1.29048-10.44972-2.25176-23.645-.9667-13.18446-1.44889-27.82558-.48219-14.63335-.80287-28.14858-.32611-13.51058-.323-24.60789V276.17147q0-18.011.483-33.13353.48219-15.1132,1.44734-23.48044a10.13463,10.13463,0,0,1,3.37765-5.95087,9.19463,9.19463,0,0,1,6.27387-2.41327,9.54059,9.54059,0,0,1,6.75529,2.73318,9.11354,9.11354,0,0,1,2.89468,6.91679q-.96438,7.08141-1.44734,22.03621-.48219,14.95482-.483,33.61494,0,6.75528.1615,18.0141.1584,11.265.32146,24.44948.1584,13.19378.64292,27.02115.48219,13.832,1.28738,26.05522.799,12.22941,1.93031,21.71321Q650.2502,403.24231,651.8606,407.41972Z"/><path class="cls-1" d="M688.85318,322.49566a9.74632,9.74632,0,0,1,3.21614-5.78936,8.9742,8.9742,0,0,1,6.11237-2.25177,37.74532,37.74532,0,0,1,18.49706,4.342,38.698,38.698,0,0,1,13.02761,11.57872,53.03512,53.03512,0,0,1,7.72122,16.24686,67.63864,67.63864,0,0,1,2.57322,18.657,80.94108,80.94108,0,0,1-2.25176,18.33712,63.49267,63.49267,0,0,1-7.07675,17.85259,43.577,43.577,0,0,1-12.22474,13.51058,32.16958,32.16958,0,0,1-34.90232.323,39.77043,39.77043,0,0,1-11.74178-12.54775,60.59805,60.59805,0,0,1-6.75528-16.72517,73.39523,73.39523,0,0,1-2.25177-17.53268,79.72,79.72,0,0,1,1.28739-13.9951,49.8102,49.8102,0,0,1,4.50352-13.669,40.99269,40.99269,0,0,1,8.20263-11.26192A30.26009,30.26009,0,0,1,688.85318,322.49566Zm31.84613,42.78348a55.46284,55.46284,0,0,0-3.05618-17.53268,19.9062,19.9062,0,0,0-11.41877-12.70616,11.21,11.21,0,0,1-3.53915,4.18362,8.61961,8.61961,0,0,1-5.14644,1.60885,10.26879,10.26879,0,0,0-7.55971,3.05308,22.06028,22.06028,0,0,0-4.825,7.40131,37.13111,37.13111,0,0,0-2.41327,9.00705,60.475,60.475,0,0,0-.64292,8.20263,57.79057,57.79057,0,0,0,.96438,9.48846,51.56627,51.56627,0,0,0,3.05618,10.7774,24.63681,24.63681,0,0,0,5.79091,8.684,12.44849,12.44849,0,0,0,17.04973.323,27.31032,27.31032,0,0,0,6.27232-8.20263A47.58461,47.58461,0,0,0,719.252,378.1468,58.36267,58.36267,0,0,0,720.69931,365.27914Z"/><path class="cls-1" d="M300.18809,778.24a12.30686,12.30686,0,0,1,.74231,3.71774,11.43227,11.43227,0,0,1-11.15011,11.15011q-7.80585,0-10.77895-7.43548-2.23158-6.3127-3.71774-18.39612-1.48849-12.07566-2.60118-27.32242-1.11577-15.23435-1.67251-32.149-.55906-16.91151-.93021-32.52477-.375-15.6117-.37115-28.43432V626.58609q0-20.81094.5575-38.28307.55672-17.46591,1.67252-27.133a11.72408,11.72408,0,0,1,3.90253-6.87641,10.61866,10.61866,0,0,1,7.24913-2.78908,11.02574,11.02574,0,0,1,7.80507,3.15868,10.53067,10.53067,0,0,1,3.345,7.99142q-1.11577,8.1809-1.67251,25.462-.55674,17.28422-.55751,38.84213,0,7.80818.18635,20.8156.18169,13.01674.37116,28.248.184,15.24831.74386,31.2234.55673,15.98441,1.48616,30.1084.92478,14.13019,2.23,25.08929Q298.32535,773.41033,300.18809,778.24Z"/><path class="cls-1" d="M342.9312,680.11282a11.27436,11.27436,0,0,1,3.71619-6.69007,10.36858,10.36858,0,0,1,7.06277-2.60272q12.26667,0,21.37155,5.016a44.7372,44.7372,0,0,1,15.0542,13.38324,61.25683,61.25683,0,0,1,8.92164,18.76883,78.20381,78.20381,0,0,1,2.97233,21.561,93.561,93.561,0,0,1-2.60118,21.1852,73.23486,73.23486,0,0,1-8.17778,20.62925,50.36191,50.36191,0,0,1-14.124,15.61015q-8.55592,6.13567-20.4429,6.13412-11.52592,0-19.88695-5.76141a45.93045,45.93045,0,0,1-13.56648-14.49514,70.00823,70.00823,0,0,1-7.80507-19.32789,84.76378,84.76378,0,0,1-2.60273-20.25965,92.13687,92.13687,0,0,1,1.48772-16.16921,57.522,57.522,0,0,1,5.2039-15.7965A47.31428,47.31428,0,0,1,328.992,688.2906,34.92261,34.92261,0,0,1,342.9312,680.11282Zm36.79691,49.43628a64.12626,64.12626,0,0,0-3.52983-20.25965Q372.6599,698.6953,363.003,694.608a12.94811,12.94811,0,0,1-4.08889,4.83275,9.95684,9.95684,0,0,1-5.94776,1.85731,11.86987,11.86987,0,0,0-8.73529,3.53139,25.48969,25.48969,0,0,0-5.57505,8.55048,42.929,42.929,0,0,0-2.78753,10.4078,69.6885,69.6885,0,0,0-.74385,9.476,66.85309,66.85309,0,0,0,1.115,10.96686,59.47714,59.47714,0,0,0,3.53138,12.45147,28.45408,28.45408,0,0,0,6.69007,10.0351,14.39353,14.39353,0,0,0,19.70059.3727,31.56425,31.56425,0,0,0,7.24757-9.47914,54.997,54.997,0,0,0,4.64639-13.19377A67.54756,67.54756,0,0,0,379.72811,729.5491Z"/><path class="cls-1" d="M491.23384,670.44732A11.43227,11.43227,0,0,1,502.384,681.59743a8.15149,8.15149,0,0,1-1.48617,5.20545A115.51,115.51,0,0,0,494.95,702.59939q-3.345,10.59416-6.69006,22.117-1.86352,5.94931-5.01755,17.46747a199.53846,199.53846,0,0,1-7.80663,22.86238A87.81212,87.81212,0,0,1,464.472,784.74368q-6.32669,8.36259-14.49669,8.36414-7.44014,0-12.82418-6.13412a55.3393,55.3393,0,0,1-9.29124-15.61015,130.2212,130.2212,0,0,1-6.50526-21.002q-2.60429-11.51661-4.08889-22.67292-1.48849-11.14855-2.23-20.62925-.75007-9.476-1.115-14.68149a9.22061,9.22061,0,0,1,3.15868-7.99143,11.68007,11.68007,0,0,1,7.99142-3.15868,11.34011,11.34011,0,0,1,7.43393,2.786,10.16879,10.16879,0,0,1,3.71773,7.24913q.74076,7.44014,1.67252,17.65692.92244,10.22611,2.60273,20.99885,1.67251,10.78517,3.90253,20.62925a89.94219,89.94219,0,0,0,5.2039,16.54191,130.72992,130.72992,0,0,0,9.664-23.97428q4.08578-13.56648,7.80507-25.08929,4.08579-13.00743,7.43392-24.16064,3.345-11.15321,7.06277-17.47057A10.06254,10.06254,0,0,1,491.23384,670.44732Z"/><path class="cls-1" d="M586.016,735.86646a9.7042,9.7042,0,0,1,3.71774-6.31736,11.42164,11.42164,0,0,1,7.06277-2.23313,11.02883,11.02883,0,0,1,7.80507,3.16179,10.5307,10.5307,0,0,1,3.345,7.99143,21.41891,21.41891,0,0,1-1.30136,6.50371q-1.3068,3.90408-2.97233,7.80507-1.67484,3.9041-3.71773,7.62183-2.04756,3.71773-3.15868,5.575-17.10253,27.13763-44.60509,27.133-11.15088,0-18.77038-4.6464a37.92266,37.92266,0,0,1-12.45147-12.26512,55.26946,55.26946,0,0,1-7.06277-17.09786,81.78785,81.78785,0,0,1-2.23-18.77194,101.33556,101.33556,0,0,1,2.97388-24.347,86.0024,86.0024,0,0,1,8.54893-21.9275,51.30935,51.30935,0,0,1,13.38168-15.79961,28.13325,28.13325,0,0,1,17.469-5.94466,38.02231,38.02231,0,0,1,23.78948,7.99143q10.40082,7.99454,10.40625,22.11386,0,9.29434-4.27369,15.79651A36.34788,36.34788,0,0,1,573.007,728.99a49.41525,49.41525,0,0,1-15.05419,6.31736,67.826,67.826,0,0,1-16.16766,2.04678,10.06252,10.06252,0,0,1-7.43392-2.97544,12.16531,12.16531,0,0,0-.37271,2.97544v2.97232a71.84254,71.84254,0,0,0,.74386,9.85185,39.33113,39.33113,0,0,0,2.60118,9.84875,19.88291,19.88291,0,0,0,5.5766,7.61872,13.82616,13.82616,0,0,0,9.29124,3.15868,23.393,23.393,0,0,0,12.26667-3.345,39.7055,39.7055,0,0,0,9.8503-8.361,52.56987,52.56987,0,0,0,7.24757-11.15322A62.59688,62.59688,0,0,0,586.016,735.86646Zm-48.31972-20.07019a18.23934,18.23934,0,0,1,2.04367-.55906,10.64157,10.64157,0,0,1,2.04522-.18635,53.69215,53.69215,0,0,0,7.06122-.556,32.88375,32.88375,0,0,0,7.80663-2.04677,22.5017,22.5017,0,0,0,6.50371-3.901,7.75445,7.75445,0,0,0,2.78752-6.13411,6.4205,6.4205,0,0,0-3.345-5.7614,16.23037,16.23037,0,0,0-8.54893-2.04367,8.07654,8.07654,0,0,0-5.57506,2.41637,26.97421,26.97421,0,0,0-4.64639,5.76141,73.42884,73.42884,0,0,0-3.71619,6.87642A41.21395,41.21395,0,0,0,537.69624,715.79627Z"/><path class="cls-1" d="M252.64348,434.66288c54.60591-10.70688,105.69575,14.91346,122.93841,59.37366,5.16343,13.31392,5.50795,28.06363,5.11687,44.4062-.15146,2.90574-.13967,5.84811-.23713,8.76565-.139,4.42783-.27934,8.93078-.352,13.592l.00248-.00062c-.00248.65862-.0509,1.30731-.0509,1.96655V578.1908a84.45245,84.45245,0,0,0,1.92682,18.18558,41.7422,41.7422,0,0,0,6.33664,15.14638q4.40238,6.34658,12.6733,6.33665,8.261,0,14.60011-7.43911a69.71,69.71,0,0,0,10.74151-17.62939,175.04633,175.04633,0,0,0,7.43911-20.65866q3.01686-10.45845,4.683-17.08313,2.19747-7.15107,5.50732-17.07319,3.30738-9.92211,6.88788-20.3905,3.57554-10.45845,7.71223-19.8343a84.41024,84.41024,0,0,1,8.54157-15.42447q.54378,2.20491.55122,11.02457,0,7.166-.55122,15.42447-.55869,8.25354-1.65369,16.52694-1.10991,9.37087-1.92682,18.17565-.82685,8.81966-.82932,16.53686a79.64851,79.64851,0,0,0,1.38055,14.60011,44.90655,44.90655,0,0,0,4.683,13.49766,25.41338,25.41338,0,0,0,9.08783,9.63408q5.7879,3.59045,14.60011,3.58547,9.91467,0,17.07816-8.26346a83.158,83.158,0,0,0,12.40016-19.55621,171.53644,171.53644,0,0,0,8.8147-23.41977q3.57553-12.11214,5.78542-19.27811,4.40238-12.67826,8.53659-25.62469a174.87606,174.87606,0,0,1,10.19525-25.06849,236.31391,236.31391,0,0,1,5.78046,44.9028q.82683,23.41977.82932,46.00525,0,12.67827-.2781,20.65866c-.18871,5.33352-.27313,8.184-.27313,8.54157a16.00751,16.00751,0,0,0,15.9757,17.08312,16.03568,16.03568,0,0,0,11.844-4.68792,17.56219,17.56219,0,0,0,5.23419-11.29275q0-1.10245.2781-9.36592.26817-8.26844.27313-20.93676V552.01985q0-12.3952-.55123-27.27341-.55122-14.86829-2.478-30.57085a151.46054,151.46054,0,0,0-6.05855-28.37586q-4.13423-12.66338-10.74648-20.65867A20.5904,20.5904,0,0,0,558.565,437.1557a24.28856,24.28856,0,0,0-17.07816,6.60481A72.15345,72.15345,0,0,0,527.98919,461.668,162.4231,162.4231,0,0,0,516.41836,488.117q-5.24413,15.15135-11.29274,32.77577-2.7636,7.7172-4.683,14.322-1.93674,6.61474-4.13173,12.6733,1.095-13.76583,2.75118-27.54158a235.40038,235.40038,0,0,0,1.65369-28.09777,100.9671,100.9671,0,0,0-1.37559-16.53686,40.7846,40.7846,0,0,0-5.23419-14.59018,32.70352,32.70352,0,0,0-10.19029-10.46838q-6.34658-4.14166-16.2538-4.13173a27.81017,27.81017,0,0,0-19.56117,7.98537,77.0199,77.0199,0,0,0-14.87324,19.5562A159.26682,159.26682,0,0,0,422.486,498.30732c-1.2682,3.6401-2.38245,6.92575-3.44394,10.08724-5.2913-105.85578-254.993-193.55522-282.78283,33.58068C120.368,671.86,247.49818,918.49261,248.13383,827.5945,248.76343,737.56251,148.01488,455.178,252.64348,434.66288Z"/><path class="cls-1" d="M747.37948,626.25757c.12539-.7778.31038-1.56181.4308-2.33961q3.57554-23.13672,4.95609-43.80034,1.37062-20.66364,1.37559-33.332a408.203,408.203,0,0,0-2.2-43.52224,202.46767,202.46767,0,0,0-6.61474-35.25878q-3.8586-12.11214-15.9757-12.1171a15.7056,15.7056,0,0,0-10.74151,4.13173,17.31727,17.31727,0,0,0-5.78542,10.19029q-1.10991,7.7172-4.683,23.68793a263.47336,263.47336,0,0,1-9.36593,31.95141A133.60166,133.60166,0,0,1,685,553.94667q-7.99281,12.127-17.90252,12.127-6.61475,0-10.46838-3.02928a16.50517,16.50517,0,0,1-5.51229-7.9953,48.0989,48.0989,0,0,1-2.20491-10.73654c-.36749-3.86357-.54626-7.43911-.54626-10.74648a188.4949,188.4949,0,0,1,4.683-39.39051q4.67054-21.76608,11.844-37.19552a30.30394,30.30394,0,0,0,1.10245-6.60482,16.00992,16.00992,0,0,0-16.53189-16.52693q-10.4659,0-14.87325,9.91219a232.81031,232.81031,0,0,0-13.77575,43.80034q-5.51229,25.07346-5.50732,46.00525a107.42013,107.42013,0,0,0,2.75614,24.5123,62.83618,62.83618,0,0,0,8.8147,20.93676,45.23152,45.23152,0,0,0,15.9757,14.60011q9.91467,5.51229,24.24413,5.51229,19.2781,0,32.2295-12.3952a110.86706,110.86706,0,0,0,21.20989-27.81967q-1.1099,30.30268-4.96106,58.94672-6.06351-1.10247-12.1171-1.64872-6.071-.55124-11.57083-.5562-33.61006,0-53.71749,20.93676Q618.05053,657.523,618.063,690.58187a92.86518,92.86518,0,0,0,2.75118,21.493,75.39108,75.39108,0,0,0,8.26843,20.92683,52.12678,52.12678,0,0,0,14.04888,15.70257q8.52915,6.33168,20.65867,6.33664a51.18175,51.18175,0,0,0,33.60509-11.839q14.32449-11.85886,24.24413-30.58078a203.98822,203.98822,0,0,0,16.2538-42.15162c.88581-3.28006,1.56492-6.53839,2.37066-9.80976,114.19,47.983,77.15338,102.54748-20.61647,148.81345-142.38587,67.379-588.9038,42.57852-527.15128,70.226,86.50223,38.72833,332.518,29.3994,455.10119-7.29621C909.48551,794.006,857.26519,667.69719,747.37948,626.25757Zm-43.64763,43.38754a145.16014,145.16014,0,0,1-9.36593,23.69787,89.72676,89.72676,0,0,1-13.49765,20.10247q-7.72466,8.53659-17.07816,8.54156-3.30738,0-5.51229-4.13173a42.94774,42.94774,0,0,1-3.5805-9.36592c-.91872-3.49608-1.64872-6.88291-2.19995-10.19029a49.75319,49.75319,0,0,1-.82933-7.161q0-19.293,10.19525-30.85888,10.18284-11.56091,30.02459-11.57084A86.871,86.871,0,0,1,708.966,650.367Q707.31235,657.51809,703.73185,669.64511Z"/><path class="cls-1" d="M237.94122,286.22038c3.45168-29.53006,28.55525-40.96744,48.6262-44.3494,15.15134-2.553,27.49313,7.13644,30.16485,23.02258,3.06386,18.21833-.26075,35.58915-7.40352,52.26775-3.83781,8.96138-8.844,17.41551-13.04812,26.22952-2.52987,5.30366-4.5617,10.84706-6.75975,16.306-1.41648,3.51792-3.82632,6.26156-7.49347,3.79464-15.64423-10.52394-34.14095-10.805-51.51986-15.22266a211.90718,211.90718,0,0,1-33.20273-11.57345c-6.904-3.04785-9.96691-9.98394-10.46544-17.66818-1.61391-24.87326,15.59658-40.21567,40.03446-35.59892C230.4593,284.10556,233.96493,285.20529,237.94122,286.22038Zm44.24605,68.25373c5.71443-10.91835,11.61323-21.15963,16.54822-31.846,8.57747-18.57341,15.02014-37.63281,10.46021-58.69411-2.04935-9.46512-9.02449-15.74853-18.6229-15.31591-19.3332.87149-43.5614,14.62617-44.47428,40.74809-.085,2.43278-.36845,7.08607-1.389,9.48614a64.96365,64.96365,0,0,1-8.12937-5.42008c-12.15282-9.02764-32.67608-5.1654-39.74026,7.70906-4.88632,8.9054-6.04348,27.44521,7.26675,32.17651,12.77072,4.53955,26.11468,7.51,39.28285,10.87234,7.99641,2.04186,16.18819,3.316,24.19416,5.32591C272.37609,350.71918,276.97921,352.67641,282.18727,354.47411Z"/><path class="cls-1" d="M150.018,336.8195c-1.25189-1.41594,1.772-5.02948,3.47874-6.711,5.22445-5.14736,10.83973-9.9,16.34034-14.76387,2.30119-2.03479,5.1555-3.191,6.93143-.01311.6993,1.25113-.45491,4.57021-1.80872,5.75772-5.78661,5.07571-11.91594,9.7682-18.03026,14.45688C155.4294,336.69646,151.26992,338.23543,150.018,336.8195Z"/><path class="cls-1" d="M174.0813,304.63982c-1.72585.23989-5.40158-.33948-7.73851-.62284-5.26967-.639-10.58966-1.08745-15.75784-2.21526-1.767-.38559-5.094-.7119-4.69615-3.92818s3.45432-3.25919,5.13819-3.21564a216.1884,216.1884,0,0,1,22.33819,1.78217c1.306.17032,3.20889,1.14879,3.22261,4.19361S175.80715,304.39994,174.0813,304.63982Z"/><path class="cls-1" d="M156.46938,270.24655c2.995,1.21023,17.07405,6.75136,25.43518,10.51738,1.37411.6189,3.61691,3.22765,2.69606,5.02266s-4.18935,2.23967-5.63036,1.67918A244.19054,244.19054,0,0,1,155.103,276.31771C149.45908,273.1722,153.4744,269.03632,156.46938,270.24655Z"/><path class="cls-1" d="M308.713,239.96782c-1.67221-.56708-.37628-4.76527.2774-6.33955a197.6582,197.6582,0,0,1,11.1893-21.87444c2.45879-4.15738,8.92114-2.15606,6.65416,1.81222s-8.88279,15.5489-13.66854,23.92628C312.54152,238.77262,310.38525,240.53489,308.713,239.96782Z"/><path class="cls-1" d="M345.702,236.82266c-3.27643,1.97911-19.1022,10.13971-21.25358,11.30009-4.1122,2.218-7.00618-3.89724-1.549-6.88134,4.84033-2.64681,14.16087-6.97877,18.97235-9.67531C346.00124,229.25178,351.20371,233.49938,345.702,236.82266Z"/><path class="cls-1" d="M356.42988,260.11385c1.4198,4.83835-23.80072,9.14611-30.83619,5.13392-1.14758-.65444-2.56133-1.747-2.24546-3.80122s1.63622-2.075,2.59362-2.12743c4.56191-.2499,9.16975.152,13.70986-.254C343.94849,258.681,355.01008,255.2755,356.42988,260.11385Z"/><circle class="cls-1" cx="809.66028" cy="586.6347" r="19.7474"/><circle class="cls-1" cx="564.02116" cy="189.70385" r="19.7474"/><circle class="cls-1" cx="795.37187" cy="507.59241" r="10.3363"/><circle class="cls-1" cx="791.72376" cy="465.9432" r="4.86414"/><circle class="cls-1" cx="757.95243" cy="345.2517" r="4.86414"/><circle class="cls-1" cx="781.99548" cy="420.28652" r="4.86414"/><circle class="cls-1" cx="742.75199" cy="289.93768" r="4.86414"/><circle class="cls-1" cx="366.82381" cy="335.52342" r="4.86414"/><circle class="cls-1" cx="152.2641" cy="433.84832" r="4.86414"/><circle class="cls-1" cx="680.31704" cy="272.52419" r="4.86414"/><circle class="cls-1" cx="495.27095" cy="262.18789" r="4.86414"/><circle class="cls-1" cx="193.4504" cy="385.11011" r="4.86414"/><circle class="cls-1" cx="549.1379" cy="239.75107" r="4.86414"/><circle class="cls-1" cx="829.40768" cy="534.25926" r="4.86414"/><circle class="cls-1" cx="356.48751" cy="374.77381" r="10.3363"/><circle class="cls-1" cx="161.22202" cy="399.50733" r="10.3363"/><circle class="cls-1" cx="495.27095" cy="230.90503" r="10.3363"/><circle class="cls-1" cx="719.30234" cy="262.18789" r="10.3363"/><circle class="cls-1" cx="757.95243" cy="420.28652" r="10.3363"/></g></svg>