<svg xmlns="http://www.w3.org/2000/svg" viewBox="0 0 1000 1000"><defs><style>.cls-1{fill:#404040;}</style></defs><title>Valentines_9</title><g id="Layer_5" data-name="Layer 5"><path class="cls-1" d="M406.60363,223.55287,376.41446,301.0717q2.81178,7.93752,5.62719,11.00274,1.53719,1.53719,1.53536,6.39669,0,7.932-8.18733,13.30395-21.4931,14.0698-29.16438,42.213-5.12574,20.213-9.21211,30.69974-11.00091,27.89343-24.04776,27.888-8.19462,0-20.72542-11.51332Q278.17022,408.27278,278.17022,395.99q0-.50874,8.82553-19.31406,8.82918-18.80714,17.01286-37.99356,11.00093-26.09369,15.09458-42.21305l-58.33241-97.73368a65.43935,65.43935,0,0,1,5.12027-7.6731q3.57763-4.09185,13.55923-4.09549,27.88249,0,44.76953,29.42331,7.41783,13.81269,14.8393,27.629,7.92657-7.15524,12.28281-23.023,7.41783-26.865,15.86044-26.86317,8.955,0,20.9807,7.16254Q403.27582,210.25075,406.60363,223.55287Z"/><path class="cls-1" d="M570.33918,330.495q0,43.74657-14.58037,71.12579-17.40126,32.494-50.91458,32.49037-33.00276,0-57.56291-30.95867-20.72724-26.09367-20.72542-48.865a88.435,88.435,0,0,0-3.58127-25.8384q-3.5831-11.76677-3.58127-16.11936,1.01749-5.88066,1.53535-8.69789,1.78881-8.69243,2.3012-9.21211,6.39487-7.41235,12.15517-32.74565,5.75484-25.32783,12.91738-35.30579,12.53262-17.39579,39.146-17.39943,33.2544,0,52.95686,18.6795Q557.544,243.76408,564.712,273.44267,570.33553,296.46747,570.33918,330.495Zm-47.07438-4.606a20.91683,20.91683,0,0,0-2.30121-9.46375,18.3985,18.3985,0,0,1-2.30485-7.932,28.419,28.419,0,0,1,.7695-5.3719c1.1889-1.02479,1.79064-3.15458,1.79064-6.39669q0-12.78974-7.67676-31.34159-7.67493-18.54456-14.32508-18.54821-5.89159,0-13.04866,20.72177-4.60607,13.56653-9.978,38.63542-2.0514,10.49217-4.09184,20.72177,0,24.05323,4.09184,37.09642,2.303,7.4233,12.53444,24.81726,21.49309-13.81816,23.28191-15.86408Q523.2648,359.40775,523.2648,325.889Z"/><path class="cls-1" d="M729.217,312.07444a33.617,33.617,0,0,0-4.47477,7.8044,19.81738,19.81738,0,0,0-1.15242,6.77962V333.821q0,12.281-5.36461,33.51515-7.14978,27.888-18.3841,45.02846-15.07087,22.77316-35.24379,22.77134-24.26111,0-41.11532-13.81816-13.79082-11.50966-24.25928-34.02572-5.87518-12.78974-15.32434-42.72726V301.0717q.72209-3.06888,4.07-39.39762t3.35151-55.00642v-8.95318a7.33461,7.33461,0,0,1,2.94306.51057,22.65174,22.65174,0,0,1,2.42885,1.28006q2.303-1.78881,4.86134-3.8402,2.303-2.55466,2.3012-7.16254,18.933,4.09731,25.33147,5.63084,16.36735,4.349,16.371,22.51241-1.28005,9.46921-2.55648,18.67585-3.06888,21.4931-5.11662,42.98254-3.06888,31.46559-3.07071,48.09916,0,23.79066,2.94306,36.96878,2.9376,13.17813,13.43159,24.9449,6.13776-4.09184,12.78973-15.09458,10.2296-16.62993,15.86408-41.19191,7.67494-32.74564,7.67311-77.26354,0-17.39578-3.83655-28.91274-4.606-8.69243-8.95318-17.39579a5.65387,5.65387,0,0,1,.76585-2.68778,9.46466,9.46466,0,0,0,1.02479-2.68413l3.58127,3.58128q3.8402-4.85771,7.932-9.978,3.06888-3.06888,12.78973-3.07071a28.97714,28.97714,0,0,1,19.70064,7.67676q8.69788,7.67493,8.69789,14.584Z"/><path class="cls-1" d="M186.381,570.48756a6.05521,6.05521,0,0,1-2.72789-.58715,5.84178,5.84178,0,0,1-1.95475-1.54994,6.83765,6.83765,0,0,1-1.178-2.21,8.11267,8.11267,0,0,1-.40481-2.50908,11.33412,11.33412,0,0,1,.58715-3.05976q.5908-1.95293,1.51347-4.38724.919-2.42885,2.02769-5.08745,1.105-2.65312,2.13709-5.08744,1.03389-2.42885,1.76875-4.49665c.49234-1.37489.83515-2.458,1.03208-3.24211.19693-.8862.44492-1.9438.73668-3.17281q.4431-1.83805.9956-4.0189.55251-2.17174,1.10867-4.56959.5525-2.396,1.14148-4.82852c-.68927.14588-1.53535.28446-2.54555.40481q-1.50983.186-3.20564.33187-2.43431.21882-4.792.66374-2.3632.4431-4.82852.99561-2.4726.55251-5.12391,1.178-2.6586.6291-5.67825,1.291-4.42553.95731-8.84742,2.13709a35.56713,35.56713,0,0,1-9.21575,1.1816,5.10455,5.10455,0,0,1-2.72789-.77314,9.50743,9.50743,0,0,0-2.80083-1.14513q-1.477,2.36319-2.80448,5.051-1.32384,2.69144-2.43249,5.52873-1.105,2.83913-1.99122,5.6053-.88072,2.76255-1.54629,5.19686a23.87494,23.87494,0,0,0-.62727,3.4281q-.25712,2.10061-.47775,4.27783-.22428,2.1772-.44492,4.16478c-.14588,1.32747-.2954,2.38508-.44128,3.16917a6.52051,6.52051,0,0,1-.8862,2.17721A9.44395,9.44395,0,0,1,130.12734,568.5a8.47483,8.47483,0,0,1-2.14074,1.43689,5.5071,5.5071,0,0,1-2.35955.55068,4.7003,4.7003,0,0,1-3.35516-1.21442,8.96628,8.96628,0,0,1-2.06416-3.02329,15.34726,15.34726,0,0,1-1.06854-3.946,28.70275,28.70275,0,0,1-.2954-3.90584,41.60661,41.60661,0,0,1,1.10866-9.32881,75.60888,75.60888,0,0,1,2.98317-9.80291,104.18252,104.18252,0,0,1,4.42371-10.029q2.54373-5.04915,5.4959-10.06548,2.42884-4.49118,6.04294-10.39371,3.61592-5.89707,8.07427-12.12964,4.45836-6.23076,9.657-12.20258a96.3557,96.3557,0,0,1,10.80217-10.65264,56.68819,56.68819,0,0,1,11.50237-7.55641,26.55969,26.55969,0,0,1,11.72483-2.87741,21.30334,21.30334,0,0,1,10.21136,2.21367,17.57537,17.57537,0,0,1,6.52433,5.97,24.93058,24.93058,0,0,1,3.4281,8.77448,54.45384,54.45384,0,0,1,.99561,10.61617,85.94872,85.94872,0,0,1-.62727,10.1749q-.62908,5.23514-1.54994,10.24783-.919,5.01633-1.98757,9.66068-1.07218,4.64435-1.95474,8.40614l-2.582,10.02537c-.09847.2954-.28446.8862-.55068,1.76875q-.41028,1.3293-1.03208,3.20928-.62909,1.87635-1.40406,4.05537-.77133,2.17174-1.54629,4.27419-.7768,2.10061-1.47336,3.873-.70567,1.76694-1.21807,2.87377l.07294-.07294q-.51422,1.91463-1.105,3.90585a13.58374,13.58374,0,0,1-1.62288,3.57762,8.264,8.264,0,0,1-2.655,2.57837A7.92573,7.92573,0,0,1,186.381,570.48756Zm3.76-92.30707a17.076,17.076,0,0,0-6.59727,1.36395,34.19327,34.19327,0,0,0-6.4514,3.574,47.21716,47.21716,0,0,0-6.156,5.164q-2.98682,2.94852-5.67825,6.04293-2.69142,3.09624-5.051,6.23258-2.35773,3.13452-4.27783,5.78766c-.19694.2954-.45222.67468-.77315,1.14148s-.63821.98467-.95914,1.54994c-.31728.56527-.62727,1.15607-.919,1.76875-.2954.61633-.54339,1.167-.74033,1.65935h7.59653a86.44507,86.44507,0,0,0,9.43822-.5908q5.30625-.5908,10.50311-1.40042,5.20233-.80961,9.55127-1.65934,4.349-.8479,6.5608-1.291a19.51282,19.51282,0,0,0,.55069-2.57837c.175-1.08313.33187-2.28661.48139-3.61409q.21882-1.99122.33187-4.23772.10941-2.24832.10941-4.6097,0-1.91463-.14588-4.38724a18.17865,18.17865,0,0,0-.8862-4.68264,9.39914,9.39914,0,0,0-2.2465-3.7235A5.74206,5.74206,0,0,0,190.141,478.18049Z"/><path class="cls-1" d="M220.12227,560.38925q4.20125-16.887,8.69789-33.362,4.49664-16.48223,8.70154-33.36562.51421-2.21,1.03208-4.20125.51422-1.99122.95914-3.98243.43762-1.99122.7002-4.01526a33.76744,33.76744,0,0,0,.25529-4.24136,20.13671,20.13671,0,0,0-.21882-3.09623,20.20525,20.20525,0,0,1-.22246-3.16917,16.304,16.304,0,0,1,.44128-3.61409,15.28839,15.28839,0,0,1,3.13634-6.71033q2.024-2.21,6.156-2.21a15.86994,15.86994,0,0,1,3.27857.33187q1.58641.32823,3.13635.77315c1.13054.34646,2.29756.63821,3.501.8862a18.31222,18.31222,0,0,0,3.65056.36834,27.39942,27.39942,0,0,0,2.87377-.14953c.93361-.09846,2.00216-.19328,3.20929-.2954q1.80522-.14223,4.27418-.29175,2.47262-.1477,6.22893-.14952c1.37854,0,2.99777.05105,4.86863.14952a49.93257,49.93257,0,0,1,5.82413.66374,44.28344,44.28344,0,0,1,6.11952,1.50982,25.38542,25.38542,0,0,1,5.78765,2.69143,20.28278,20.28278,0,0,1,4.75558,4.16477,16.49363,16.49363,0,0,1,3.09623,5.93718,19.72828,19.72828,0,0,1,.70021,3.09623,20.70029,20.70029,0,0,1,.186,2.72789,18.86451,18.86451,0,0,1-2.28661,8.84742,37.05666,37.05666,0,0,1-6.96926,9.25222,67.3118,67.3118,0,0,1-10.21136,8.14721q-2.28661,1.54812-5.30626,3.20564-3.02513,1.663-5.93718,3.17282-2.91024,1.50983-5.23332,2.76436a29.13642,29.13642,0,0,0-3.20929,1.91463q2.582,1.25819,5.164,2.61849a47.20971,47.20971,0,0,1,5.2698,3.28222,44.97479,44.97479,0,0,1,5.45578,4.64252,61.74722,61.74722,0,0,1,5.75119,6.67386,102.33454,102.33454,0,0,1,6.19246,9.32516q3.21111,5.38284,6.67385,12.684a8.205,8.205,0,0,1,.25893,6.8562,10.22982,10.22982,0,0,1-1.69581,2.80083,8.44479,8.44479,0,0,1-2.54555,2.02769,6.69777,6.69777,0,0,1-3.16917.77314,5.46977,5.46977,0,0,1-4.27783-1.91463,23.3396,23.3396,0,0,1-3.24211-5.01451q-1.54811-3.09623-3.20928-7.00572a60.39513,60.39513,0,0,0-4.09184-7.88828,71.18912,71.18912,0,0,0-5.86059-8.11074,44.49985,44.49985,0,0,0-6.81973-6.63374,34.492,34.492,0,0,0-7.447-4.46017,19.19326,19.19326,0,0,0-7.66581-1.65935h-1.10866a18.77895,18.77895,0,0,0-4.09184.40481q-1.80522.40481-3.501.70021a5.871,5.871,0,0,1-3.31869-2.655,8.27867,8.27867,0,0,1-1.03208-4.12831v-1.03207L237.89,543.64991q-.29541,1.1105-.81326,3.02329-.51422,1.92011-1.178,4.2049-.6619,2.28661-1.36394,4.792-.70021,2.50544-1.32748,4.71911-.6291,2.21-1.105,3.97879c-.32093,1.1816-.55433,2.06415-.7002,2.655a8.36034,8.36034,0,0,1-2.61849,2.91389,6.02429,6.02429,0,0,1-3.4281,1.06854q-3.24393,0-4.49665-1.95474a8.17948,8.17948,0,0,1-1.25453-4.53312,14.75492,14.75492,0,0,1,.14952-2.10062Q219.89616,561.34474,220.12227,560.38925Zm36.19928-83.1679q-.4431,1.477-1.291,4.27783t-1.87816,6.33834q-1.03391,3.53934-2.21368,7.59653-1.1816,4.05354-2.35955,8.1472-1.17613,4.09185-2.283,7.92475-1.1105,3.83474-1.99122,6.8562a12.85609,12.85609,0,0,1,4.42371-3.4281,56.36869,56.36869,0,0,1,6.63374-2.8373q2.87742-1.03391,7.07866-2.91388,4.20124-1.88181,8.81095-4.3143,4.606-2.42885,9.21575-5.2698a75.897,75.897,0,0,0,8.25662-5.82412,36.56679,36.56679,0,0,0,5.93718-5.97365,9.61981,9.61981,0,0,0,2.28661-5.78765,5.30534,5.30534,0,0,0-1.91828-4.31066,12.98119,12.98119,0,0,0-4.792-2.39967,32.41465,32.41465,0,0,0-6.30552-1.06854c-2.283-.17141-4.41277-.25529-6.37481-.25529a85.07337,85.07337,0,0,0-10.61981.66374A49.1651,49.1651,0,0,0,256.32155,477.22135Z"/><path class="cls-1" d="M316.08355,564.22216a21.95968,21.95968,0,0,1,.74032-5.45578q2.50544-10.0272,5.86059-19.64958,3.35334-9.6224,6.08306-19.13172,2.72424-9.513,4.53311-16.03549,1.80522-6.52616,3.20564-11.207,1.40042-4.68264,2.582-8.07427,1.17612-3.39162,2.582-6.71032.88074-1.99122,1.9511-4.12831a32.24511,32.24511,0,0,1,2.32309-3.94231,14.73434,14.73434,0,0,1,2.61848-2.95036,4.36987,4.36987,0,0,1,2.8373-1.14513,8.73346,8.73346,0,0,1,4.6097.99561,5.08471,5.08471,0,0,1,1.95475,1.80887l.66374,3.02329a25.86866,25.86866,0,0,0,2.87377-.40845q1.76693-.32823,3.574-.70021c1.20713-.24435,2.32309-.48869,3.35517-.73668a22.349,22.349,0,0,0,2.35955-.66374q4.86864-1.32382,8.99694-2.283,4.12465-.95731,7.85181-1.5864,3.71985-.62363,7.11513-.92267,3.39164-.29541,6.8562-.2954a33.83115,33.83115,0,0,1,5.52872.36833,12.63011,12.63011,0,0,1,3.39164.99561,3.933,3.933,0,0,1,1.73228,1.477,3.59936,3.59936,0,0,1,.48139,1.80523,4.3085,4.3085,0,0,1-.48139,1.87816,5.56592,5.56592,0,0,1-1.58276,1.88181,10.55105,10.55105,0,0,1-2.87742,1.54993,16.687,16.687,0,0,1-4.4237.88256q-.66192.14769-3.05977.55433-2.396.4048-5.19685.88255-2.8063.4814-5.30991.92267-2.50543.4431-3.46457.66374h.07294c-.2954.05106-.99561.2334-2.10062.55433s-2.44708.68927-4.0189,1.105q-2.35773.62908-5.12392,1.43688-2.76253.81509-5.45579,1.58641-2.69142.77131-4.97439,1.47335-2.28661.70021-3.687,1.14513a17.74993,17.74993,0,0,0-7.04219,4.679,23.22868,23.22868,0,0,0-4.0189,6.52433c-.19694.44492-.49234,1.19254-.88256,2.25014q-.59079,1.58641-1.291,3.6141-.70569,2.0295-1.51347,4.31065-.80963,2.28661-1.5463,4.35077-.73849,2.06781-1.291,3.76-.55251,1.69581-.77315,2.50908a7.8562,7.8562,0,0,0-.2954,1.32748,7.33016,7.33016,0,0,0-.07294.88255c0,.2954.07294.44128.21882.44128a22.32423,22.32423,0,0,0,4.6097-.992q3.501-.99559,8.18368-2.4726,4.68262-1.47153,10.02536-3.16917,5.34456-1.69582,10.24784-3.16917,4.90692-1.477,8.738-2.47261a25.263,25.263,0,0,1,5.52872-.99561q2.582,0,3.46822.84973a2.56733,2.56733,0,0,1,.88255,1.87816,6.55939,6.55939,0,0,1-1.87816,4.64617,17.68862,17.68862,0,0,1-4.68264,3.46457,33.66271,33.66271,0,0,1-3.28223,1.291q-2.396.8479-5.16038,1.73229-2.76253.8862-5.26979,1.69581c-1.67394.54339-2.87742.93361-3.6141,1.1816q-7.22636,2.80083-11.7613,4.60606-4.52946,1.81068-7.33394,2.95035-2.8063,1.14331-4.3143,1.73229-1.50982.59079-2.80084.9956t-2.8373.77315c-1.03207.248-2.46166.5908-4.27783,1.03208a41.54738,41.54738,0,0,0-1.54994,4.68264q-.88072,3.13452-1.69581,6.48786-.80961,3.35334-1.364,6.22893a25.20319,25.20319,0,0,0-.55068,3.98243,3.96313,3.96313,0,0,0,.36834,1.95475,1.93511,1.93511,0,0,0,.88255.84608,2.58506,2.58506,0,0,0,1.03572.22246H334.96a42.87134,42.87134,0,0,0,8.51555-1.03207,78.27682,78.27682,0,0,0,9.843-2.7279,52.41143,52.41143,0,0,0,8.11074-3.54115q3.46275-1.91463,6.52433-3.574a53.99366,53.99366,0,0,1,5.97-2.80083,18.45958,18.45958,0,0,1,6.37846-1.21807,12.033,12.033,0,0,1,1.73228.14952,6.96167,6.96167,0,0,1,1.88181.55069,4.00106,4.00106,0,0,1,1.43688,1.06854,2.0773,2.0773,0,0,1,.40481,1.69582,8.00566,8.00566,0,0,1-2.13709,4.20489,25.4832,25.4832,0,0,1-4.64617,3.97879,56.4899,56.4899,0,0,1-6.2654,3.687q-3.46823,1.7724-7.07866,3.35516-3.61046,1.58642-7.07867,2.87742-3.46274,1.291-6.19246,2.2465a83.31623,83.31623,0,0,1-13.19818,3.46457,68.10855,68.10855,0,0,1-11.50237,1.10866q-5.60167,0-8.58849-2.10427Q316.08354,569.08714,316.08355,564.22216Z"/><path class="cls-1" d="M606.93962,569.57583a124.53829,124.53829,0,0,1,3.90949-12.46151q2.50544-6.85437,5.78766-14.3032,3.27675-7.44517,7.22454-15.11282,3.94413-7.66945,8.18367-14.93047,4.23954-7.26465,8.70154-13.7124a141.71012,141.71012,0,0,1,8.8073-11.53884q1.25272-1.40042,3.13635-3.46821,1.87634-2.06234,4.20125-4.27419,2.32491-2.2155,4.865-4.38724a55.98748,55.98748,0,0,1,5.12392-3.90949,32.93169,32.93169,0,0,1,5.01451-2.80083,11.29276,11.29276,0,0,1,4.49664-1.06855,13.31553,13.31553,0,0,1,5.12392.95914,11.23025,11.23025,0,0,1,3.98243,2.72789,12.5509,12.5509,0,0,1,2.582,4.23772,15.43745,15.43745,0,0,1,.919,5.41932,17.55865,17.55865,0,0,1-.18235,2.50907q-.186,1.25272-.48139,2.57837l-8.18368,41.14085q1.1105-1.69581,3.09623-4.606,1.99122-2.91571,4.5003-6.48786,2.50542-3.57763,5.23332-7.447,2.72972-3.873,5.34638-7.48347,2.61483-3.61046,4.82851-6.60092,2.21-2.98683,3.6141-4.82852l1.32747-1.69581q1.32384-1.69582,3.24211-3.98243,1.91463-2.28116,4.24136-4.79205,2.31945-2.50543,4.90146-4.93792a52.5605,52.5605,0,0,1,5.23332-4.35077,33.18562,33.18562,0,0,1,5.237-3.1327,11.53951,11.53951,0,0,1,4.93792-1.21807,5.06936,5.06936,0,0,1,2.95036.81326,6.14136,6.14136,0,0,1,1.91828,2.17356,10.16123,10.16123,0,0,1,1.03207,3.20564,24.67408,24.67408,0,0,1,.2954,3.83655,39.06785,39.06785,0,0,1-.51786,6.2654q-.51422,3.17283-1.17795,5.75119-.372,2.0678-.99561,5.89706-.6291,3.83474-1.477,8.81095-.84791,4.978-1.80522,10.76569t-1.95475,11.7613q-.99561,5.96819-1.99122,11.79413t-1.84169,10.8751q-.8479,5.05463-1.54994,9.03341-.7002,3.98243-1.14148,6.19246c-.14588.68927-.38293,1.62288-.70021,2.80083a16.04844,16.04844,0,0,1-1.40042,3.46457,10.01176,10.01176,0,0,1-2.43249,2.95035,5.64911,5.64911,0,0,1-3.7235,1.25454,3.76443,3.76443,0,0,1-2.25014-.77679,8.56026,8.56026,0,0,1-1.91828-1.9511,9.95036,9.95036,0,0,1-1.32383-2.54555,9.30816,9.30816,0,0,1-.55433-2.469L728.66635,492.677c.14588-.68927.26988-1.302.36834-1.84534a8.61958,8.61958,0,0,0,.14953-1.54629,5.49369,5.49369,0,0,0-.186-1.477c-.124-.44128-.2334-.857-.33187-1.2509-.14587-.44492-.2954-.83514-.44127-1.1816a65.34507,65.34507,0,0,0-7.11513,6.37846q-3.79644,3.873-7.66947,8.625-3.86755,4.75923-7.73875,10.102-3.873,5.34455-7.33759,10.72922-2.72972,4.20125-5.8606,8.84742-3.13452,4.64435-6.30551,9.32516-3.16736,4.68264-6.156,9.36528-2.98681,4.68264-5.41931,8.95682a39.5991,39.5991,0,0,0-2.43249,5.30991q-1.25272,3.24393-2.76437,6.33834a29.84558,29.84558,0,0,1-3.24575,5.30991,4.97438,4.97438,0,0,1-3.94232,2.21,6.92977,6.92977,0,0,1-2.84094-.51422,4.6622,4.6622,0,0,1-1.80523-1.36394,5.38247,5.38247,0,0,1-.95913-1.99122,9.85284,9.85284,0,0,1-.2954-2.469,17.81572,17.81572,0,0,1,.33187-3.39163q.33369-1.69581.7002-3.24575,1.54812-6.48788,3.24576-12.90279,1.69581-6.41129,3.501-13.1216,1.80522-6.71216,3.7235-13.8984,1.92009-7.18806,3.90949-15.2988.51422-2.28663,1.178-5.12392.66192-2.83912,1.25454-5.75119.5908-2.91022.95914-5.64177a36.941,36.941,0,0,0,.36834-4.865,12.69542,12.69542,0,0,0-.2954-3.05976q-.2954-1.14332-1.105-1.14148a10.39774,10.39774,0,0,0-5.75118,2.02768,35.64991,35.64991,0,0,0-6.11953,5.34273,72.05758,72.05758,0,0,0-6.11952,7.59653q-3.02511,4.27236-5.75118,8.81094-2.72971,4.52948-5.08745,8.95683-2.3632,4.42553-4.05537,7.96121c-.248.49234-.60174,1.17066-1.06855,2.02769q-.7002,1.291-1.84534,3.61409-1.1433,2.31943-2.80083,5.93353-1.65751,3.61592-3.90584,9.14282-2.25379,5.53055-5.2005,13.19818-2.94853,7.66947-6.63374,17.99024a5.88319,5.88319,0,0,1-2.32309,2.87376,6.08315,6.08315,0,0,1-3.4281,1.10867q-3.83474,0-5.64178-2.06416a7.462,7.462,0,0,1-1.80522-5.08744A13.29135,13.29135,0,0,1,606.93962,569.57583Z"/><path class="cls-1" d="M749.6507,587.3436a7.79348,7.79348,0,0,1,.92267-3.574,21.41841,21.41841,0,0,1,2.50544-3.76q1.5864-1.9584,3.687-4.09184,2.10061-2.13893,4.38724-4.5003,4.34893-4.42,9.14281-9.21575,4.79205-4.79205,9.13917-9.87949,1.84352-2.21,2.95036-3.61045a23.64986,23.64986,0,0,0,1.65934-2.32308,6.83769,6.83769,0,0,0,.73668-1.58641,8.53122,8.53122,0,0,0,.25893-1.32748,55.3655,55.3655,0,0,1-5.49225-8.625,88.37913,88.37913,0,0,1-4.27784-9.69715q-1.87633-5.04915-3.39163-10.21136-1.50982-5.15858-2.8373-10.09831-1.25271-4.49665-2.396-9.06988a32.36888,32.36888,0,0,0-2.98682-7.88828,36.66593,36.66593,0,0,1-2.396-5.2005,16.96578,16.96578,0,0,1-.99561-5.93353,19.10956,19.10956,0,0,1,.33187-3.28222,11.98766,11.98766,0,0,1,1.1816-3.501,8.94194,8.94194,0,0,1,2.21-2.76436,5.04307,5.04307,0,0,1,3.35516-1.14149,6.2413,6.2413,0,0,1,3.98243,1.47336,15.87834,15.87834,0,0,1,3.315,3.7235,26.733,26.733,0,0,1,2.50908,4.865,46.42323,46.42323,0,0,1,1.62288,4.82852q.733,3.17281,1.80522,7.89192,1.06673,4.71546,2.13709,9.657,1.06673,4.93975,2.10063,9.36163,1.03389,4.42554,1.84534,7.07867.95732,3.32051,2.06415,6.23257a45.73278,45.73278,0,0,0,2.21,5.01087,17.07516,17.07516,0,0,0,2.17721,3.31869,2.89736,2.89736,0,0,0,2.02768,1.21807q.733,0,2.283-1.99122,6.04477-8.036,12.57092-17.21708,6.52616-9.17929,12.72044-18.17258,2.28114-3.32052,4.05537-6.11953,1.76693-2.80083,3.20564-5.34637,1.43871-2.54373,2.61848-4.94157,1.17614-2.39056,2.21-4.82852l1.91828-7.73875a9.427,9.427,0,0,1,.99561-2.39967,12.1516,12.1516,0,0,1,1.62288-2.21A7.71025,7.71025,0,0,1,841.48,458.1334a5.80649,5.80649,0,0,1,2.69142-.62727,6.57763,6.57763,0,0,1,5.60166,2.80448,9.02132,9.02132,0,0,1,1.32748,2.91023,13.23124,13.23124,0,0,1,.44493,3.4281,16.12235,16.12235,0,0,1-.7768,4.57324,40.46629,40.46629,0,0,1-2.02768,5.30626q-1.25272,2.72971-2.80083,5.38284t-3.0233,4.79205q-10.5414,15.04353-21.41833,30.48821-10.8751,15.44833-22.08207,29.602-9.95061,12.60921-19.50006,23.37308-9.55127,10.76022-17.4359,18.79985a27.719,27.719,0,0,1-3.83655,3.16917,7.79038,7.79038,0,0,1-4.49665,1.477,3.76973,3.76973,0,0,1-2.10062-.55433,4.252,4.252,0,0,1-1.364-1.43689,7.02211,7.02211,0,0,1-.77314-2.02768A10.03063,10.03063,0,0,1,749.6507,587.3436Z"/><path class="cls-1" d="M243.42606,839.88883q0,9.46921-2.582,12.5381-3.873,4.606-18.07411,4.606-17.04021,0-22.46135-6.652-8.00316-9.978-13.4243-12.02388V753.92739H150.04314q-7.67493,4.09731-11.00274,14.32873a77.07259,77.07259,0,0,0-3.32234,23.79248,252.35973,252.35973,0,0,0,2.42885,30.955q2.42885,18.93843,2.42884,20.9807,0,1.53169-5.75483,4.47841A23.17255,23.17255,0,0,1,124.46,851.40214a71.59274,71.59274,0,0,1-14.584-1.79063q-12.281-2.55466-12.27916-6.652,0-2.81177-6.26905-5.75483-6.27451-2.93759-6.77961-4.989-.51421-2.04591-.51057-12.79338,0-20.72176.63821-60.506.63456-39.78054,1.02478-59.74011.38292-19.95592.63821-19.95592a102.95276,102.95276,0,0,0-2.3012-20.46649q-2.82271-10.48671-5.37556-21.236,0-1.78333,2.81542-5.88247,7.16071-10.48671,17.91-10.48853,22.25895,0,30.44445,15.09458,5.1148,9.46374,5.11662,29.67495v25.842q0,14.84112,3.05247,21.49127,4.07543,8.6979,14.76636,8.6979,21.88149,0,26.338-2.4325,4.44741-2.42337,4.45289-12.4068a226.53965,226.53965,0,0,0-2.55649-30.69973q-2.56014-18.16712-5.11662-36.07529,0-7.67493,7.16254-10.61617,7.16071-2.93759,18.16528-2.94306,20.97341,0,27.88432,11.00274,5.11479,8.18914,5.11662,30.18917v58.07347q0,4.09731,2.30485,32.494,3.32052,42.472,4.34712,53.21578Q243.16895,839.8943,243.42606,839.88883Z"/><path class="cls-1" d="M403.58034,833.75107q0,7.4233-8.05969,14.96694-8.05785,7.54365-14.19744,7.54547-6.90908,0-19.82828-2.68413-12.921-2.68594-15.73279-2.68777H296.89348q-5.88612,0-18.67585-7.93205-12.79521-7.92657-11.258-12.53444,0-78.53814-2.81177-125.36271-1.79429-31.21395-5.11662-51.42515-3.33147-20.20757-3.326-23.02663,0-8.44078,8.44261-16.62993,10.74381-10.48671,27.11846-10.48853,4.85769,0,26.60789,2.56014,30.18552,3.5831,49.63452,7.92839,26.85953,6.14323,26.86317,12.79338,0,11.2635-7.42147,16.11936-6.39486,4.09185-19.18642,4.09184a161.5052,161.5052,0,0,1-20.9807-1.79063q-29.68224-4.09183-36.58585-4.09184-.76585,6.90361-1.53536,8.44261a6.04388,6.04388,0,0,0-.76585,2.55649q1.53717,6.14322,2.81542,23.92011,1.2746,17.78966,1.27642,38.24885,44.26078,0,65.112,4.606,20.85306,4.60606,20.85307,14.0698,0,11.00638-8.18733,15.35351-6.90908,3.5831-22.51605,3.58128-6.39488,0-24.81361-1.02479-18.42422-1.01748-30.4481-1.02113,0,4.34894-.25528,6.90725-1.28007,12.281-1.28007,17.90636,0,6.40033.25893,13.04866.25164,6.65744,1.40406,17.78236,1.15425,11.12673,24.68962,13.1763,21.74473.51422,43.49311,1.02114Q403.57486,821.47192,403.58034,833.75107Z"/><path class="cls-1" d="M574.73736,832.21572q0,8.44078-9.72268,13.55923a43.32781,43.32781,0,0,1-20.46649,5.11663q-12.53808,0-17.91-7.41783-4.09731-5.629-4.09548-14.8393a49.40313,49.40313,0,0,1,.7695-9.46739,4.38383,4.38383,0,0,1,.76585-2.04592q0-8.18367-2.81177-22.26077a127.24264,127.24264,0,0,1-2.81542-24.55833q0-11.76677-4.86134-14.20108-4.86316-2.42885-21.49127-2.42885-12.02936,0-16.88522,8.44261-3.83472,6.65743-3.83655,20.46649,0,5.3719.76585,17.1405.77133,11.77224.7695,17.65471,0,15.86409-4.86134,23.5372-6.40033,9.978-21.74655,9.978a36.53057,36.53057,0,0,1-18.8035-4.86134q-8.32044-4.85769-8.315-12.02388-1.02843-11.258-1.02479-22.51606,0-6.38939.51057-21.23234.51421-14.83564.51422-17.91,0-71.89164,22.38476-106.17264,22.38477-34.28283,72.01928-34.28465,18.933,0,34.41229,20.33885,15.4757,20.33885,15.47751,55.38935,0,20.72724,3.58127,55.13406Q570.63822,797.167,574.73736,832.21572ZM512.82368,718.111v-7.67676q-3.58857-10.74381-5.37555-27.37374-.51421-4.34895-11.50967-11.7686a52.86605,52.86605,0,0,0-13.04866,22.00184q-2.81724,9.72633-5.63084,19.18642V718.111a113.35479,113.35479,0,0,1,11.38567.51057q4.989.51422,12.15152,1.02478,3.326,0,6.14141-.25893A26.03591,26.03591,0,0,0,512.82368,718.111Z"/><path class="cls-1" d="M745.6391,838.35713a13.40323,13.40323,0,0,1-5.88612,11.25438,21.82756,21.82756,0,0,1-13.30395,4.35077q-3.83473,0-15.86043-5.88612-14.07528-6.90361-14.07345-13.30395-5.88612-8.94952-11.76859-18.16164-13.81271-20.97888-24.30305-35.0505-14.84112-19.69881-19.95592-22.26077,0,16.37829,1.27642,33.00458,1.28007,16.6354,2.81542,36.07529,0,11.258-2.81542,16.62628-2.81724,5.37738-10.48853,5.37556-20.47013,0-30.18916-17.14415-7.932-13.81269-10.23324-44.259-1.28555-16.62995-1.28007-58.843,0-55.26171,4.60605-82.38017,2.81178-17.13867,8.18733-24.562h72.65749q23.02481,0,41.44719,16.11572,18.41874,16.12119,18.42057,33.51879,0,18.67586-12.02388,37.09643a118.95686,118.95686,0,0,1-22.77134,25.32782q-11.00092,9.46922-12.27916,9.46739,0,3.326,14.8393,23.53719,22.25893,30.191,27.888,38.63178Q745.63181,829.66105,745.6391,838.35713Zm-67.03395-168.09v-5.37191q-12.53809,1.53171-17.01286,2.30121-4.48023.76585-13.94216,3.0707,0,6.13776-.89714,18.16528-.89713,12.02935-.89349,18.16529,13.81269-5.62354,18.93114-11.13039Q669.90543,689.96962,678.60515,670.26716Z"/><path class="cls-1" d="M893,635.82934q0,9.91779-5.11662,13.73064-3.83473,2.80083-11.25438,2.79718h-7.42147a29.85239,29.85239,0,0,1-4.21949,1.40771,27.96458,27.96458,0,0,1-6.77961.64186,49.75567,49.75567,0,0,1-5.88612-.25893,39.48116,39.48116,0,0,1-6.652-1.79064l11.00275,172.95131q0,16.37281-7.67676,22.25712-4.35441,3.326-12.78973,3.326-16.12119,0-24.179-13.17631-8.05785-13.17266-10.23324-33.51515-2.1772-20.33884-2.17356-54.6235V732.56377q0-8.5666.25528-17.52343,0-27.63085-3.8402-39.52892-3.83473-11.89806-14.0698-22.64005-12.7952-12.78972-25.58311-25.842a36.75631,36.75631,0,0,1,7.41783-5.62719l-7.41783-3.58127a3.16454,3.16454,0,0,1,1.79064.51057c.51056.34281,1.105.76585,1.79063,1.28007a36.32729,36.32729,0,0,1,10.87146-4.60606,46.82465,46.82465,0,0,1,10.61981-1.28006q2.04592,0,7.0349.25528,4.989.25711,8.05968.25893h38.12121a21.83818,21.83818,0,0,0,7.80075-1.40771q3.70892-1.40588,6.52433-2.43249a69.32321,69.32321,0,0,1,27.888,5.34273Q893,622.86455,893,635.82934Z"/><path class="cls-1" d="M871.3683,352.05451c-1.0261.63242-1.66681,1.09046-2.36025,1.44553Q834.01212,371.42112,799.022,389.3535c-1.65672.85157-2.7858,1.25319-3.76046-.84752-.958-2.06481.41253-2.66556,1.75448-3.36828,6.24209-3.26894,12.46321-6.57979,18.74536-9.77016,15.4075-7.82446,30.84976-15.58052,46.2634-23.393,2.03508-1.03145,3.92478-2.36608,6.00156-3.29147.90738-.40441,2.84288-.49569,3.04516-.093C871.56505,349.57272,871.31959,350.92663,871.3683,352.05451Z"/><path class="cls-1" d="M868.93549,363.88208c.15181,1.69719.257,2.87349.393,4.39337-2.28528.98916-4.62933,2.01663-6.98332,3.02076q-31.54527,13.45622-63.09109,26.91117c-1.54031.65753-3.26779,1.90748-4.3322-.35648-1.05149-2.23645.668-3.17627,2.444-3.92838q30.6294-12.97052,61.2453-25.97269c2.01108-.85452,3.93965-1.90466,5.95713-2.74213C865.79655,364.6978,867.12194,364.42149,868.93549,363.88208Z"/><path class="cls-1" d="M792.34969,382.40559c-1.40988-4.04234-.99327-4.68672,2.60449-5.91908a51.80839,51.80839,0,0,0,7.62651-3.31832q29.15495-15.60307,58.255-31.30891c1.02526-.55072,2.15389-.90913,3.21776-1.3502,1.7036,3.42828,1.4905,4.11454-1.66914,5.7444q-26.75048,13.79868-53.5,27.59923c-5.192,2.68578-10.32718,5.48158-15.49327,8.21771A7.26123,7.26123,0,0,1,792.34969,382.40559Z"/><path class="cls-1" d="M788.98047,371.78467c-1.74719-3.6838-1.73516-3.86974,1.8836-5.72078q24.801-12.68667,49.63234-25.31405c2.29883-1.17383,4.548-2.44514,6.819-3.67345,1.56362-.84577,3.52862-1.68044,4.26883.42666.34954.995-.89625,3.25888-2.02578,3.93612-3.82238,2.29187-7.92039,4.12283-11.90532,6.14515q-21.11629,10.716-42.23619,21.42461C793.39769,370.02841,791.25827,370.81,788.98047,371.78467Z"/><path class="cls-1" d="M803.81212,405.47318c-1.56928-3.39219-1.5035-3.81057,1.718-4.87752a316.79091,316.79091,0,0,0,45.80236-18.69238c1.14464-.58995,2.26563-1.22578,3.47842-1.8841.58369,3.71092.18568,5.24078-1.94158,6.24838a354.069,354.069,0,0,1-47.67857,18.858C804.73109,405.2665,804.25746,405.362,803.81212,405.47318Z"/><path class="cls-1" d="M783.57691,352.29587c-1.96041-2.77509-.842-4.01025,1.30507-5.06419,11.85782-5.82058,23.66612-11.74288,35.5654-17.47679,1.17087-.56423,3.76937-.60567,4.11131.00411,1.05469,1.88048-.41151,3.35554-2.10756,4.21517-6.02827,3.05569-12.04662,6.13872-18.16264,9.01137C797.461,346.19244,790.53114,349.18134,783.57691,352.29587Z"/><path class="cls-1" d="M786.41868,361.74233c-1.97262-2.2533-.886-3.54165,1.0157-4.57358q17.91552-9.72225,35.84968-19.41013a13.73545,13.73545,0,0,1,4.06628-1.72785,3.05461,3.05461,0,0,1,2.65957,1.20037c.27639.725-.54118,1.91366-.99681,2.84345-.14271.29124-.63891.463-1.008.58189-13.27176,4.27457-24.72836,12.13059-36.85757,18.65913C789.59387,360.15193,788.00806,360.9286,786.41868,361.74233Z"/><path class="cls-1" d="M781.176,344.72628c-.37277-1.39839-.64841-2.43228-.98969-3.71267,8.92457-4.3889,17.77873-8.64,26.52653-13.09967a79.74151,79.74151,0,0,0,9.07919-5.65823c1.43245-.99306,2.88891-2.01477,4.12949-.41209,1.28972,1.66622.24894,3.21665-1.39579,4.19372-3.15563,1.87443-6.2694,3.8415-9.538,5.49913-7.89062,4.00166-15.85271,7.863-23.80672,11.73828A42.31018,42.31018,0,0,1,781.176,344.72628Z"/><path class="cls-1" d="M814.29057,313.929c.45452,2.873-.36552,4.2757-2.34328,5.23724-8.56625,4.16489-17.0761,8.4463-25.66221,12.5691-.72084.346-1.85641-.1717-2.79923-.28812.43811-1.1446.54561-2.86622,1.36918-3.338,4.55836-2.61143,9.2928-4.91515,13.96336-7.33113,3.43376-1.77619,6.81954-3.653,10.31253-5.30327A35.68024,35.68024,0,0,1,814.29057,313.929Z"/><path class="cls-1" d="M806.601,308.72462c.8613,2.453.07889,3.77359-2.08138,4.85051-4.70266,2.34413-9.26714,4.96464-13.90272,7.44472-.83284.44566-1.73621.75955-2.607,1.13432q-.36921-.26659-.7384-.53312a11.144,11.144,0,0,1,1.21416-2.81606C791.146,315.54055,802.07949,309.4997,806.601,308.72462Z"/><path class="cls-1" d="M131.59805,342.02716c1.40857.86816,2.2881,1.49693,3.24,1.98435q48.04047,24.60107,96.073,49.21762c2.27425,1.169,3.82419,1.72032,5.16215-1.16342,1.31505-2.83446-.5663-3.65913-2.40846-4.62379-8.56878-4.48741-17.1088-9.03236-25.73258-13.41193-21.15056-10.741-42.34882-21.38807-63.50781-32.11255-2.79365-1.41592-5.38772-3.248-8.23861-4.51834-1.2456-.55516-3.90254-.68046-4.18023-.12768C131.328,338.6203,131.66492,340.47888,131.59805,342.02716Z"/><path class="cls-1" d="M134.93768,358.26339c-.20839,2.3298-.35283,3.94457-.53942,6.031,3.1371,1.35787,6.35489,2.76833,9.58631,4.14673q43.30359,18.47195,86.60793,36.94216c2.11445.90262,4.48583,2.61848,5.947-.48936,1.44344-3.07007-.91694-4.3602-3.35493-5.39265q-42.04633-17.80521-84.07412-35.65386c-2.7607-1.173-5.40814-2.61461-8.17761-3.76426C139.24663,359.38317,137.42721,359.00387,134.93768,358.26339Z"/><path class="cls-1" d="M240.07038,383.69144c1.93541-5.5491,1.36352-6.43368-3.57529-8.12539a71.11851,71.11851,0,0,1-10.46925-4.5552q-40.02228-21.419-79.96916-42.97913c-1.40742-.756-2.95674-1.248-4.41715-1.85348-2.33862,4.70615-2.04608,5.64821,2.2913,7.88559q36.72155,18.94206,73.44183,37.88669c7.12734,3.68688,14.17657,7.52481,21.26829,11.28082A9.96941,9.96941,0,0,0,240.07038,383.69144Z"/><path class="cls-1" d="M244.69546,369.11162c2.39845-5.0569,2.38193-5.31215-2.58569-7.85316q-34.0455-17.41554-68.13252-34.74971c-3.15569-1.61137-6.24318-3.35656-9.36071-5.04271-2.14645-1.161-4.84389-2.30682-5.86.5857-.47983,1.36593,1.23032,4.4736,2.78088,5.40328,5.24715,3.14615,10.87267,5.65959,16.343,8.43571q28.98726,14.71039,57.97949,29.41052C238.63175,366.70073,241.56862,367.77366,244.69546,369.11162Z"/><path class="cls-1" d="M224.33541,415.35733c2.15422-4.6566,2.06391-5.23093-2.35841-6.69558-21.54089-7.13423-42.67489-15.24907-62.87492-25.65986-1.57129-.80986-3.11013-1.68268-4.775-2.58639-.80125,5.09415-.2549,7.19425,2.66529,8.57743a486.04542,486.04542,0,0,0,65.45048,25.88714C223.0739,415.07361,223.72407,415.2047,224.33541,415.35733Z"/><path class="cls-1" d="M252.11317,342.3585c2.69114-3.80949,1.1559-5.50506-1.79153-6.95184-16.27775-7.99018-32.48753-16.12-48.8222-23.99116-1.6073-.77455-5.17438-.83144-5.64377.00563-1.44781,2.58142.5649,4.6063,2.89314,5.78635,8.27527,4.19468,16.53693,8.4269,24.93266,12.37031C233.05382,333.98,242.56679,338.083,252.11317,342.3585Z"/><path class="cls-1" d="M248.21215,355.32606c2.7079-3.09319,1.2162-4.86178-1.39429-6.27835q-24.59343-13.34616-49.21246-26.64515a18.85539,18.85539,0,0,0-5.582-2.3719c-1.16681-.191-3.29732.72-3.65091,1.6478-.37942.99528.74289,2.627,1.36836,3.90334.19591.39979.87706.6356,1.38367.79879,18.21874,5.86789,33.94572,16.6522,50.596,25.61421C243.85342,353.14285,246.03034,354.209,248.21215,355.32606Z"/><path class="cls-1" d="M255.409,331.96739c.51171-1.91964.89009-3.3389,1.35858-5.09655-12.25114-6.02485-24.40564-11.86056-36.41414-17.9825a109.465,109.465,0,0,1-12.46341-7.76731c-1.96637-1.36322-3.96573-2.76576-5.66872-.56569-1.77046,2.28729-.34173,4.41564,1.91606,5.75691,4.33187,2.57311,8.60628,5.27339,13.0932,7.5489,10.83181,5.49325,21.76172,10.79394,32.68054,16.11365A58.08165,58.08165,0,0,0,255.409,331.96739Z"/><path class="cls-1" d="M209.95117,289.69063c-.62393,3.94391.50177,5.86945,3.21673,7.18939,11.75927,5.71733,23.44112,11.59462,35.22765,17.25417.98953.475,2.54838-.23571,3.84262-.39552-.60142-1.57124-.749-3.93459-1.87953-4.5822-6.25747-3.58482-12.75664-6.74724-19.16812-10.06375-4.71367-2.43826-9.36149-5.01461-14.15646-7.28C214.922,290.81491,212.51755,290.43608,209.95117,289.69063Z"/><path class="cls-1" d="M220.507,282.54631c-1.18234,3.3674-.1083,5.18018,2.8572,6.65851,6.45556,3.21789,12.72142,6.81518,19.08488,10.2197,1.14328.61178,2.38338,1.04267,3.57871,1.55712q.50685-.366,1.01364-.73183c-.54021-1.30112-.814-2.81932-1.66673-3.86573C241.72274,291.90284,226.71386,283.61029,220.507,282.54631Z"/><path class="cls-1" d="M555.49166,446.10619c.95091,3.582,1.96684,7.14844,2.83248,10.75095a6.36379,6.36379,0,0,0,5.4475,5.28217c3.60928.72439,7.13141,1.88341,10.69133,2.85382l.252,1.26721c-1.16292.22494-2.40826.83337-3.47361.60443-3.49164-.75051-6.88592-1.96826-10.38665-2.655-1.2229-.23992-2.646.54019-3.97764.85444q.05316.69036.10635,1.38082,5.22042,1.68894,10.44085,3.37793c-5.31266,3.12029-10.43927-2.71037-15.59775,1.47438q6.36733,1.86273,12.73467,3.72536.05063.58453.1012,1.16906c-.984.30648-2.01174.96306-2.943.847a15.80435,15.80435,0,0,1-5.79339-1.452c-5.37-3.05964-8.47985.40645-11.9861,3.511-4.61933,4.09007-9.45461,7.93629-13.87261,11.617,12.38488,18.84479,1.69974,30.28775-9.03244,41.64313,11.94372,12.04281,23.84171,24.03953,36.03624,36.33525,1.22048-2.83653,2.32746-5.40938,3.76673-8.75441,4.85184,10.20214,9.41277,19.79243,13.97365,29.38273q-.30169.39835-.60338.79667l-29.08929-14.00887c2.91039-1.29733,5.31765-2.3703,7.57488-3.37646-12.20436-11.7949-24.34779-23.53088-37.02779-35.78549-2.13238,1.69175-6.109,4.46042-9.604,7.742-2.76877,2.59972-4.79649,2.05811-7.298-.13389-3.43349-3.00869-7.04315-5.81636-9.96689-8.21032-12.30928,12.20846-24.39158,24.19171-36.66338,36.363,2.27463.95491,4.73009,1.98566,7.91378,3.32216-10.061,4.858-19.57448,9.45162-29.08792,14.04525q-.40491-.30816-.80971-.61631c4.567-9.5474,9.134-19.09475,14.10365-29.48382,1.39574,3.42724,2.3978,5.88781,3.54647,8.70846,11.933-12.29735,23.6921-24.41544,35.64692-36.73524-9.6068-10.74412-21.04224-22.01229-9.47328-39.597-5.72468-5.65319-11.67126-11.595-17.742-17.40715-.5719-.54749-1.985-.5465-2.90451-.34038-3.06683.687-6.06343,1.69291-9.13626,2.34434a14.18567,14.18567,0,0,1-3.76-.208l-.25059-1.589q6.51636-1.9244,13.03268-3.8489.04581-.61127.09173-1.22258c-1.42229-.25038-2.91365-.90139-4.25293-.6704-3.09543.53388-6.095,1.60428-9.1789,2.23415a22.36,22.36,0,0,1-4.393.04889q-.06955-.74586-.13915-1.49168,6.25567-1.75809,12.51141-3.51624.16953-.66.33912-1.31993c-1.2413-.42376-2.58968-1.38986-3.70376-1.16975-3.35837.66341-6.59716,1.91432-9.94276,2.66926-1.28771.29054-2.73776-.13831-4.11384-.2394l-.05235-1.56233c3.52922-.97824,7.00735-2.29366,10.60228-2.83806,3.45169-.52274,4.946-2.45241,5.7279-5.46841.92846-3.58164,1.89-7.1547,2.83726-10.7315l1.36315-.25659c.2579,1.27042.94318,2.633.69285,3.79391-.7216,3.34613-1.99076,6.57555-2.68624,9.92526-.27209,1.31058.41077,2.81945.65863,4.238l1.58152-.01845q1.8032-6.48365,3.60634-12.96734.53611-.10968,1.07229-.21931c.23571,1.19567.8485,2.46293.63739,3.57364-.66688,3.50841-1.79442,6.93108-2.41977,10.44464-.2332,1.31011.42806,2.77944.68144,4.17618q.5541-.07475,1.10814-.14945,2.05277-6.45077,4.10558-12.90152l1.215.01136c.09878,1.30311.68991,2.82791.21879,3.87449-3.924,8.71629-1.31347,15.079,6.29847,20.35165,3.23626,2.24167,5.61,5.699,8.5548,8.4093a4.68331,4.68331,0,0,0,3.52276,1.27184c10.95886-2.62795,15.86259-.94539,22.20684,7.65641,3.31228-2.52638,6.44619-5.32159,9.966-7.49067a12.23389,12.23389,0,0,1,11.97826-.58214c2.34513,1.096,3.76857.63776,5.52483-1.25585,4.76047-5.13267,9.63413-10.19,14.816-14.88766,2.0438-1.85277,1.90013-3.44853,1.31709-5.56172-.7236-2.62263-1.50234-5.24085-2.00831-7.90811a15.7482,15.7482,0,0,1,.21253-3.86929q.68184-.10992,1.36357-.22l4.0609,13.08209q.53241.06924,1.06477.13842c.277-1.29129.96473-2.655.75241-3.86015-.59423-3.37357-1.66105-6.66161-2.32841-10.02566a17.11983,17.11983,0,0,1,.13862-4.00849q.67048-.04992,1.341-.09988,1.84113,6.40881,3.6823,12.81762l1.53305.056c.26116-1.382.95249-2.8492.6989-4.12923-.63687-3.21466-1.82665-6.317-2.53111-9.52238-.27946-1.27147.13809-2.69612.23829-4.05107Q554.63805,445.98331,555.49166,446.10619Z"/><circle class="cls-1" cx="201.42647" cy="228.57168" r="13.10818"/><circle class="cls-1" cx="134.39826" cy="445.76791" r="13.10818"/><circle class="cls-1" cx="780.18629" cy="269.43813" r="13.10818"/><circle class="cls-1" cx="869.32844" cy="544.15938" r="13.10818"/><circle class="cls-1" cx="753.96992" cy="394.17602" r="7.24039"/><circle class="cls-1" cx="824.91433" cy="562.43582" r="7.24039"/><circle class="cls-1" cx="185.6892" cy="439.90012" r="7.24039"/><circle class="cls-1" cx="121.29008" cy="479.20593" r="7.24039"/><circle class="cls-1" cx="95.81212" cy="551.39977" r="7.24039"/><circle class="cls-1" cx="236.51278" cy="248.92026" r="7.24039"/><circle class="cls-1" cx="810.97807" cy="282.54631" r="7.24039"/><circle class="cls-1" cx="780.18629" cy="215.4635" r="7.24039"/><circle class="cls-1" cx="851.64413" cy="421.27066" r="7.24039"/><circle class="cls-1" cx="176.80199" cy="269.43813" r="7.24039"/></g></svg>