<svg xmlns="http://www.w3.org/2000/svg" viewBox="0 0 1000 1000"><defs><style>.cls-1{fill:#3d3d3d;}</style></defs><title>Valentines_6</title><g id="Layer_9" data-name="Layer 9"><path class="cls-1" d="M357.22147,454.66376a6.0373,6.0373,0,0,0,3.432-.79511,6.93149,6.93149,0,0,0,2.06541-2.57322,43.50868,43.50868,0,0,0,2.00018-4.67124,59.27739,59.27739,0,0,1,3.30466-7.02084q2.60428-4.13,4.988-7.59232a71.03218,71.03218,0,0,1,5.05327-6.513,61.28792,61.28792,0,0,1,5.87632-5.84682,75.41953,75.41953,0,0,1,7.46654-5.6558,13.02037,13.02037,0,0,1,2.70211-1.27031,9.10057,9.10057,0,0,1,3.01581-.57148,1.68449,1.68449,0,0,1,1.33553.50781,2.06181,2.06181,0,0,1,.44414,1.39765,4.53283,4.53283,0,0,1-.06212.82616q-.82928,3.43122-1.876,6.83138-1.04823,3.40094-2.15859,6.79877-1.11345,3.40094-2.22381,6.7351-1.11345,3.33572-2.00329,6.704-.50781,1.97068-.82616,3.81247a20.34922,20.34922,0,0,0-.3168,3.432,7.01641,7.01641,0,0,0,1.45976,4.7023q1.46287,1.71444,5.40113,1.71444a5.814,5.814,0,0,0,3.08413-.79355,6.84787,6.84787,0,0,0,2.15859-2.09647,10.07318,10.07318,0,0,0,1.30447-3.01891,19.8233,19.8233,0,0,0,.57148-3.55779q.12579-2.15936.50626-5.75053a54.395,54.395,0,0,1,1.39765-7.59388q.764-3.11209,1.77966-6.06889,1.01563-2.95368,2.03436-5.8142,1.01562-2.85819,1.96912-5.68687.95506-2.82557,1.71755-5.75053a10.90661,10.90661,0,0,0,.37892-2.859,7.74641,7.74641,0,0,0-1.77967-5.24272,6.26689,6.26689,0,0,0-5.0191-2.06386,30.09148,30.09148,0,0,0-9.81768,1.61972,41.59042,41.59042,0,0,0-9.14992,4.48023,59.912,59.912,0,0,0-8.6095,6.82983,91.91182,91.91182,0,0,0-8.06908,8.73684q4.00193-15.24832,7.91068-30.18139,3.90874-14.93151,7.33919-28.72162.25158-1.01562.382-1.81072a8.71219,8.71219,0,0,0,.12734-1.04824,2.29812,2.29812,0,0,0-.60565-1.65233,3.46639,3.46639,0,0,0-1.525-.92089,9.664,9.664,0,0,0-2.06541-.382q-1.14141-.09551-2.15858-.09473a5.38967,5.38967,0,0,0-2.38221.50781,6.622,6.622,0,0,0-1.81073,1.27031,6.34183,6.34183,0,0,0-1.20819,1.65232,8.1521,8.1521,0,0,0-.6367,1.65233l-20.96779,84.00317a17.15708,17.15708,0,0,0-.57149,4.12926,6.39052,6.39052,0,0,0,1.04669,3.81247A4.12,4.12,0,0,0,357.22147,454.66376Z"/><path class="cls-1" d="M428.83373,448.50014a9.56238,9.56238,0,0,0,2.92264,1.525,11.396,11.396,0,0,0,3.62145.57148,11.69022,11.69022,0,0,0,5.05016-1.30292,39.63447,39.63447,0,0,0,5.43529-3.20837q2.73006-1.90779,5.27378-4.00348,2.53907-2.09646,4.63708-3.62145a38.57343,38.57343,0,0,1-.44414,6.38569,26.34285,26.34285,0,0,0-.44414,4.41656,5.67559,5.67559,0,0,0,.18946,1.556,2.17864,2.17864,0,0,0,.82616,1.14452,4.67741,4.67741,0,0,0,1.81073.72988,15.50336,15.50336,0,0,0,3.14625.25468,4.784,4.784,0,0,0,2.4785-.57148,5.90149,5.90149,0,0,0,1.5871-1.36659,5.37,5.37,0,0,0,.92245-1.65233q.28419-.85722.4752-1.43025a21.66337,21.66337,0,0,0,.764-4.25661q.191-2.28749.44414-5.02065l8.389-33.486q.50781-1.52577,1.01563-3.01892a9.68669,9.68669,0,0,0,.50936-3.1447,7.6865,7.6865,0,0,0-.351-2.31854,5.1082,5.1082,0,0,0-3.14626-3.33727,8.61,8.61,0,0,0-3.17731-.50781,14.339,14.339,0,0,0-1.93807.12734q-.91779.12812-2.38221.44414-1.46287-.191-3.27049-.38047a31.49087,31.49087,0,0,0-3.2736-.191,34.2007,34.2007,0,0,0-6.67143.66777,17.87909,17.87909,0,0,0-6.73665,3.01736,56.77582,56.77582,0,0,0-14.5821,14.58365,55.34934,55.34934,0,0,0-8.2927,18.58559q-.573,2.22458-.85723,3.9398a20.22792,20.22792,0,0,0-.28574,3.30466,12.52762,12.52762,0,0,0,1.49393,6.22729A18.82424,18.82424,0,0,0,428.83373,448.50014Zm4.41656-15.88657a25.20127,25.20127,0,0,1,.54043-2.54061,37.80519,37.80519,0,0,1,2.38221-6.513,44.99194,44.99194,0,0,1,3.71773-6.482,47.28785,47.28785,0,0,1,4.79548-5.90893,36.64016,36.64016,0,0,1,5.55953-4.79859,28.513,28.513,0,0,1,6.06888-3.23943,17.37576,17.37576,0,0,1,6.25835-1.20819,1.46705,1.46705,0,0,1,1.46287.79511,3.702,3.702,0,0,1,.382,1.61971,30.50712,30.50712,0,0,1-.351,4.32028,35.05246,35.05246,0,0,1-.85722,4.25816,25.87263,25.87263,0,0,1-2.82946,6.38569,52.67494,52.67494,0,0,1-4.44762,6.25835,72.68527,72.68527,0,0,1-5.3359,5.8142q-2.8279,2.765-5.55952,4.988a24.25963,24.25963,0,0,1-4.35445,2.8279,10.87092,10.87092,0,0,1-4.988,1.17557,2.11517,2.11517,0,0,1-2.22381-1.36658,8.79429,8.79429,0,0,1-.50626-3.081A19.16586,19.16586,0,0,1,433.25029,432.61357Z"/><path class="cls-1" d="M485.95707,481.351a12.69489,12.69489,0,0,0,1.87284-.15995,11.72637,11.72637,0,0,0,2.06541-.50782,7.11087,7.11087,0,0,0,1.74861-.85722,2.18286,2.18286,0,0,0,.91934-1.27186c.17082-.8479.39134-1.86352.66777-3.05s.56216-2.44588.85722-3.77985q.44724-2.001.89139-4.09821.44258-2.0988.76094-4.00348.50781-3.0492,1.36658-6.98978.85722-3.94137,2.12753-8.26009a17.0251,17.0251,0,0,0,4.73647,1.90546,22.06606,22.06606,0,0,0,5.05016.57148,18.52421,18.52421,0,0,0,4.16187-.53887,31.78148,31.78148,0,0,0,4.92593-1.62127q3.87148-1.58632,7.84545-3.5904a80.761,80.761,0,0,0,7.69016-4.415,55.41816,55.41816,0,0,0,6.92611-5.3064,39.06643,39.06643,0,0,0,5.62164-6.25834,29.55735,29.55735,0,0,0,3.814-7.24447,24.15991,24.15991,0,0,0,1.39765-8.26008,23.48553,23.48553,0,0,0-1.143-7.27553,18.25863,18.25863,0,0,0-3.432-6.22729,16.75129,16.75129,0,0,0-5.71793-4.32027,18.56437,18.56437,0,0,0-8.007-1.62127,43.19176,43.19176,0,0,0-5.9726.44569,58.05047,58.05047,0,0,0-6.29251,1.23925,43.55074,43.55074,0,0,0-6.00367,2.00174,26.156,26.156,0,0,0-5.05016,2.73162c0-1.1849-.0559-2.32941-.1615-3.432a6.90975,6.90975,0,0,0-.91934-2.92263,5.544,5.544,0,0,0-2.35115-2.06541,10.149,10.149,0,0,0-4.44762-.79355,5.97837,5.97837,0,0,0-3.081.66776,4.17859,4.17859,0,0,0-1.68649,1.96913,9.55931,9.55931,0,0,0-.69882,3.17731q-.12579,1.87518-.12734,4.28922a47.0829,47.0829,0,0,1-.28574,4.988q-.28419,2.70211-1.04668,6.44936l-3.05,14.74206q-.955,4.575-1.74861,8.4511-.79665,3.87613-1.525,7.465-.73144,3.59194-1.45977,7.11712-.73143,3.52672-1.55915,7.30813-.82461,3.77831-1.81073,8.06908-.983,4.28844-2.25487,9.43566a8.10919,8.10919,0,0,0-.3168,2.16169Q481.25476,481.3487,485.95707,481.351Zm21.72873-67.73612a14.62627,14.62627,0,0,0,4.82964-1.43026,21.12029,21.12029,0,0,0,4.00348-2.57322,35.95886,35.95886,0,0,1,3.814-2.38221,25.35479,25.35479,0,0,1,3.68357-1.62127,21.2409,21.2409,0,0,1,3.7488-.9209,27.42869,27.42869,0,0,1,4.0687-.28574,7.96561,7.96561,0,0,1,3.39783.66777,6.19423,6.19423,0,0,1,2.32009,1.81073,7.93338,7.93338,0,0,1,1.33553,2.66795,11.82312,11.82312,0,0,1,.44414,3.30465,16.51433,16.51433,0,0,1-1.96912,8.007,27.16073,27.16073,0,0,1-4.98805,6.54409,41.61723,41.61723,0,0,1-6.54719,5.17905q-3.52672,2.25487-6.64037,3.84353-1.08084.573-2.47539,1.17557-1.40231.60566-2.89157,1.11191a25.97906,25.97906,0,0,1-2.98786.82616,13.01071,13.01071,0,0,1-2.699.31835,5.73431,5.73431,0,0,1-.98456-.1584q-.73143-.1584-1.74861-.351-1.01562-.18869-2.09647-.38047-1.08084-.191-2.03435-.31835Z"/><path class="cls-1" d="M559.41111,481.351a12.695,12.695,0,0,0,1.87285-.15995,11.72637,11.72637,0,0,0,2.06541-.50782,7.11087,7.11087,0,0,0,1.74861-.85722,2.18286,2.18286,0,0,0,.91934-1.27186q.25623-1.27185.66776-3.05.41465-1.77967.85723-3.77985.44724-2.001.89138-4.09821.44259-2.0988.76094-4.00348.50781-3.0492,1.36659-6.98978.85722-3.94137,2.12753-8.26009a17.025,17.025,0,0,0,4.73646,1.90546,22.06619,22.06619,0,0,0,5.05016.57148,18.52429,18.52429,0,0,0,4.16188-.53887,31.78183,31.78183,0,0,0,4.92593-1.62127q3.87147-1.58632,7.84545-3.5904a80.76346,80.76346,0,0,0,7.69016-4.415,55.41816,55.41816,0,0,0,6.92611-5.3064,39.06691,39.06691,0,0,0,5.62164-6.25834,29.55769,29.55769,0,0,0,3.814-7.24447,24.15991,24.15991,0,0,0,1.39764-8.26008,23.48552,23.48552,0,0,0-1.143-7.27553,18.25865,18.25865,0,0,0-3.432-6.22729,16.75116,16.75116,0,0,0-5.71792-4.32027,18.56437,18.56437,0,0,0-8.007-1.62127,43.19165,43.19165,0,0,0-5.9726.44569,58.05112,58.05112,0,0,0-6.29252,1.23925,43.551,43.551,0,0,0-6.00366,2.00174,26.156,26.156,0,0,0-5.05016,2.73162c0-1.1849-.05591-2.32941-.16151-3.432a6.90961,6.90961,0,0,0-.91934-2.92263,5.54388,5.54388,0,0,0-2.35115-2.06541,10.149,10.149,0,0,0-4.44762-.79355,5.97835,5.97835,0,0,0-3.081.66776,4.17859,4.17859,0,0,0-1.68649,1.96913,9.55906,9.55906,0,0,0-.69882,3.17731q-.12579,1.87518-.12734,4.28922a47.0804,47.0804,0,0,1-.28575,4.988q-.28418,2.70211-1.04668,6.44936l-3.05,14.74206q-.95506,4.575-1.74861,8.4511-.79666,3.87613-1.525,7.465-.73143,3.59194-1.45976,7.11712-.73143,3.52672-1.55915,7.30813-.82461,3.77831-1.81073,8.06908-.983,4.28844-2.25487,9.43566a8.10919,8.10919,0,0,0-.3168,2.16169Q554.70881,481.3487,559.41111,481.351Zm21.72874-67.73612a14.62634,14.62634,0,0,0,4.82964-1.43026,21.12029,21.12029,0,0,0,4.00348-2.57322,35.95785,35.95785,0,0,1,3.814-2.38221,25.35479,25.35479,0,0,1,3.68357-1.62127,21.2409,21.2409,0,0,1,3.7488-.9209,27.42869,27.42869,0,0,1,4.0687-.28574,7.96564,7.96564,0,0,1,3.39783.66777,6.19431,6.19431,0,0,1,2.32009,1.81073,7.93375,7.93375,0,0,1,1.33553,2.66795,11.82312,11.82312,0,0,1,.44414,3.30465,16.51434,16.51434,0,0,1-1.96913,8.007,27.16068,27.16068,0,0,1-4.988,6.54409,41.61723,41.61723,0,0,1-6.54719,5.17905q-3.52672,2.25487-6.64037,3.84353-1.08086.573-2.47539,1.17557-1.40231.60566-2.89157,1.11191a25.97962,25.97962,0,0,1-2.98786.82616,13.01078,13.01078,0,0,1-2.699.31835,5.73431,5.73431,0,0,1-.98456-.1584q-.73143-.1584-1.74861-.351-1.01562-.18869-2.09647-.38047-1.08084-.191-2.03435-.31835Z"/><path class="cls-1" d="M630.60719,479.50769a4.60988,4.60988,0,0,0,1.30447,1.334,3.02266,3.02266,0,0,0,1.71444.50937,21.52749,21.52749,0,0,0,7.9759-1.49393,53.38783,53.38783,0,0,0,7.71811-3.84353,115.66773,115.66773,0,0,0,11.05693-7.72121,70.65224,70.65224,0,0,0,8.007-7.40286,50.34089,50.34089,0,0,0,5.75209-7.56127,67.00213,67.00213,0,0,0,4.28611-8.229q1.91012-4.35134,3.5904-9.372,1.68648-5.01755,3.783-10.9917l3.05-8.83312q.44259-1.20665,1.23925-3.78141.792-2.57167,1.556-5.40113.76405-2.82557,1.33242-5.36851a19.10025,19.10025,0,0,0,.57459-3.68513,6.57433,6.57433,0,0,0-1.81073-4.8607,7.0098,7.0098,0,0,0-5.1806-1.81228,5.16789,5.16789,0,0,0-1.45977.22363,9.76188,9.76188,0,0,0-1.43181.53887,4.54366,4.54366,0,0,0-1.143.76249,2.03306,2.03306,0,0,0-.60254.88983,127.90842,127.90842,0,0,1-3.65562,12.45458,60.6372,60.6372,0,0,1-4.76442,10.38917,43.7048,43.7048,0,0,1-6.60931,8.64211,48.85761,48.85761,0,0,1-9.181,7.21185,10.96639,10.96639,0,0,1-2.63689,1.2703,7.55776,7.55776,0,0,1-2.19275.382,3.27825,3.27825,0,0,1-2.79529-2.03436,11.12451,11.12451,0,0,1-1.143-5.46324,18.0211,18.0211,0,0,1,.22052-2.38376q.22362-1.556.764-4.19294.53575-2.63688,1.49392-6.60931.9504-3.96931,2.47539-9.69034a19.67348,19.67348,0,0,0,1.55915-3.55779,10.00385,10.00385,0,0,0,.54042-2.28748,12.01323,12.01323,0,0,0-.54042-3.30465,7.22379,7.22379,0,0,0-1.62127-2.98631,3.75882,3.75882,0,0,0-2.09647-.98456,16.30562,16.30562,0,0,0-2.668-.22207,5.3542,5.3542,0,0,0-1.93807.38047,6.87383,6.87383,0,0,0-3.30465,2.73317,4.82109,4.82109,0,0,0-.733,2.0328,5.23,5.23,0,0,0-.09318,1.01718,17.04065,17.04065,0,0,1-.1584,1.71444c-.087.72212-.14908,1.48461-.19256,2.28748q-1.08084,4.64019-1.93807,8.48371-.85722,3.84586-1.49393,7.3392-.6336,3.49412-.9504,6.7351-.32145,3.24019-.3199,6.67142a22.31695,22.31695,0,0,0,.382,4.13082,11.21477,11.21477,0,0,0,1.08085,3.30466,18.103,18.103,0,0,0,5.52846,6.38569,13.01713,13.01713,0,0,0,7.24291,1.93807,8.80837,8.80837,0,0,0,3.40094-.7625,21.28029,21.28029,0,0,0,3.71463-2.06541,45.4108,45.4108,0,0,0,3.814-2.92263q1.90547-1.62128,3.68668-3.36833,1.775-1.74705,3.33572-3.43044,1.556-1.68415,2.76423-3.01891a57.8289,57.8289,0,0,1-4.196,11.72314,61.35753,61.35753,0,0,1-5.46325,9.0878,50.98107,50.98107,0,0,1-6.06888,6.92611q-3.14471,2.9537-6.00367,5.1775a34.67854,34.67854,0,0,1-5.55952,3.5904,45.71732,45.71732,0,0,1-5.08433,2.22381,35.8557,35.8557,0,0,1-4.41656,1.30292c-1.35727.29661-2.54061.57148-3.55934.82616a5.65976,5.65976,0,0,0-.98456.57148,4.37247,4.37247,0,0,0-1.01562,1.04824,6.32128,6.32128,0,0,0-.79511,1.55759,6.57161,6.57161,0,0,0,0,4.03454A7.46786,7.46786,0,0,0,630.60719,479.50769Z"/><path class="cls-1" d="M362.47351,521.54111a150.55774,150.55774,0,0,1,13.07265-15.65829,101.29288,101.29288,0,0,1,13.07265-11.52126q5.46479,1.32776,10.34257,2.36357,4.87312,1.03427,9.15924,1.62438a37.002,37.002,0,0,0,5.46325.44258q2.51109,0,4.28611-.14753a22.25025,22.25025,0,0,0,3.83887-.59011q4.57961-1.181,6.28008-3.32485a11.25617,11.25617,0,0,0,1.994-3.17576,11.88673,11.88673,0,0,0,.441-4.72715,11.18346,11.18346,0,0,0-.441-1.91943,12.06811,12.06811,0,0,0-5.54089-7.60785,20.37642,20.37642,0,0,0-11.00413-2.73318,46.79006,46.79006,0,0,0-15.14116,2.95525,71.43453,71.43453,0,0,0-17.7998,9.60183q-6.79722-1.77268-14.256-3.47238-7.46343-1.69581-15.73128-3.17576-2.95836-.29351-5.91049-.88673-2.5111-.2935-5.46635-.81219-2.9537-.5148-5.61232-.81218a57.56435,57.56435,0,0,0-9.30522-.66466q-4.28611.07687-7.38888.3696a53.49357,53.49357,0,0,0-6.79256,1.18179,8.74682,8.74682,0,0,0-3.76743,1.994,5.47813,5.47813,0,0,0-1.55294,2.43656,4.76808,4.76808,0,0,0-.146,3.10278,6.65387,6.65387,0,0,0,1.91943,3.2503,5.85275,5.85275,0,0,0,3.17732,1.54983,10.44348,10.44348,0,0,0,5.3918-.95971,106.40841,106.40841,0,0,1,14.91754-4.87468c1.27962-.29506,2.66174-.54042,4.137-.7392a35.63386,35.63386,0,0,1,4.21158-.36805,32.30759,32.30759,0,0,1,4.79858.22052q8.86573,1.18568,16.91462,2.95524,8.05044,1.77268,15.29024,3.54537a134.56763,134.56763,0,0,0-16.98916,16.69254,155.11119,155.11119,0,0,0-16.545,23.63419q-5.17128,9.0125-11.22464,19.6478-5.176,9.15922-12.262,21.27061-7.09071,12.11526-15.06662,25.99932-.74075,1.3301-2.14305,3.54536-1.407,2.21526-3.17421,4.94922-1.775,2.73006-3.69289,5.53933-1.9241,2.80461-3.842,5.16974-2.21758,2.362-3.988,3.988a18.21281,18.21281,0,0,1-3.02823,2.29058q-1.407.81065-2.14305.073-.59167-.74074.22051-2.65863.81064-1.92177,1.69892-3.69289,7.538-13.5921,14.03547-27.25409,6.499-13.662,11.22465-25.92478,7.83147-20.08883,10.04752-34.56688,2.65553-17.13515-2.2176-25.99932-4.87312-9.306-17.13514-9.60182-10.78517-.29351-20.97711,7.97745a74.80345,74.80345,0,0,0-15.36168,17.43174q-3.40094,5.02221-6.20554,9.89689-2.51111,4.28611-4.79859,9.0847a35.00287,35.00287,0,0,0-3.02823,9.08469,6.67084,6.67084,0,0,0-.14908,4.13548,5.81484,5.81484,0,0,0,1.62437,2.51111,8.7164,8.7164,0,0,0,2.80772,1.62592,6.61056,6.61056,0,0,0,3.69289-.14753,7.15838,7.15838,0,0,0,2.80771-2.216q1.32777-1.6236,1.62438-5.31882a3.251,3.251,0,0,1,.146-1.0327,58.98609,58.98609,0,0,1,2.14306-9.89844,58.28431,58.28431,0,0,1,2.58409-6.94164q1.33242-3.10278,3.10278-6.50061,1.775-3.39627,3.9134-6.79566a60.92921,60.92921,0,0,1,4.72715-6.49905,40.91166,40.91166,0,0,1,5.69-5.61388,33.56632,33.56632,0,0,1,5.61233-3.54536,27.76839,27.76839,0,0,1,5.98192-1.91944,18.12362,18.12362,0,0,1,7.60941.14753,17.66314,17.66314,0,0,1,3.32329,1.62438q2.28747,1.3301,3.76743,5.31882,1.47219,3.98795,1.32931,11.15166-.14907,7.16758-3.69289,18.98313a147.7998,147.7998,0,0,1-7.68394,19.64624q-5.02221,10.78517-10.56,21.7893-5.53933,11.00646-10.71218,21.41969-5.1713,10.41247-8.42,18.539a34.20555,34.20555,0,0,0-.88517,3.32329,14,14,0,0,0-.29506,4.06249,9.18988,9.18988,0,0,0,1.25477,3.988,7.87739,7.87739,0,0,0,3.62146,3.10277,7.98138,7.98138,0,0,0,6.20244.44259,22.99592,22.99592,0,0,0,6.20555-3.10122,46.35585,46.35585,0,0,0,4.06249-3.6199q1.994-1.994,3.61835-3.76743,1.91943-2.06852,3.69289-4.13548,4.724-5.46713,9.45429-11.67034,4.72406-6.20322,9.15924-12.63006,4.43054-6.42452,8.42-12.63006,3.98794-6.20322,7.2367-11.52126,6.20554-10.04442,11.67189-18.76107,5.46013-8.71431,9.74936-15.36323Q358.04143,528.04249,362.47351,521.54111Zm47.93615-38.11225q7.4541-1.47451,12.18747,1.03426a7.91682,7.91682,0,0,1,1.62437,1.18179,9.2781,9.2781,0,0,1,1.03426,1.62592,3.30028,3.30028,0,0,1,.146,2.216,4.25989,4.25989,0,0,1-1.77346,2.21449,11.08,11.08,0,0,1-3.24875,1.55139,16.00574,16.00574,0,0,1-5.46635.51713,78.30483,78.30483,0,0,1-9.4543-.95972q-5.17128-.81063-11.37373-2.29059Q402.95089,484.908,410.40966,483.42886Z"/><path class="cls-1" d="M744.916,551.38084c-.39445-.09628-.83859.09939-1.32932.59167a9.49363,9.49363,0,0,0-.88828,1.03271q-1.62592,2.2176-3.54381,5.09675-1.92408,2.88147-3.98795,5.83594-1.92408,2.807-3.991,5.4648-1.91943,2.36435-4.283,5.16973-2.362,2.80927-4.87312,5.31882-1.188,1.03427-2.88226,2.43657a31.95529,31.95529,0,0,1-3.91341,2.73317,37.035,37.035,0,0,1-6.5006,2.80771,28.6714,28.6714,0,0,1-5.90738,1.18179,8.50658,8.50658,0,0,1-5.46635-1.18179,5.69985,5.69985,0,0,1-3.10278-3.76743,14.56822,14.56822,0,0,1-.29505-5.09675,26.02974,26.02974,0,0,0,4.137-.81218q2.50644-.66388,5.61232-1.77346a52.91229,52.91229,0,0,0,6.64658-2.95369,51.47711,51.47711,0,0,0,7.09073-4.50508,29.77824,29.77824,0,0,0,6.57514-6.57359,31.36817,31.36817,0,0,0,3.91341-7.16527v-.14753a21.72114,21.72114,0,0,0,1.40386-6.72112,34.53958,34.53958,0,0,0-.22052-5.24428,18.049,18.049,0,0,0-1.33242-4.57962,14.28424,14.28424,0,0,0-3.09967-3.54536c-.59322-.39134-1.13365-.78578-1.62748-1.18178a13.71556,13.71556,0,0,0-3.98795-1.32932,14.81936,14.81936,0,0,0-3.54381-.14753,13.11867,13.11867,0,0,0-3.39783.7392,23.6194,23.6194,0,0,0-4.87623,2.216,41.65576,41.65576,0,0,0-4.72715,3.24875A37.35252,37.35252,0,0,0,697.20035,543.7a55.72006,55.72006,0,0,0-5.02221,6.64659c-1.01989,1.60341-2.07609,3.549-3.149,5.66279-.81413,1.286-1.67194,2.67067-2.61244,4.23564q-1.77035,2.956-3.842,6.35153-2.06851,3.39861-4.283,6.64658-2.06852,2.95835-4.137,5.46635-1.77035,2.07084-3.83887,4.13547a17.28423,17.28423,0,0,1-3.69289,2.95525q-1.92409.88518-2.51265-.14753a4.1273,4.1273,0,0,1-.59012-2.06852,19.08515,19.08515,0,0,1,1.25477-7.60785,78.32649,78.32649,0,0,1,3.842-9.37975q2.28747-4.72638,4.72715-8.93717,2.43655-4.20924,3.9134-6.42607.74076-1.33008,1.4784-2.58564.73609-1.25322,1.32932-2.43656a17.82659,17.82659,0,0,0,1.40386-5.46635A6.01729,6.01729,0,0,0,679.326,535.28a8.01336,8.01336,0,0,0-3.32329-1.47839,8.66188,8.66188,0,0,0-3.17732,0,25.185,25.185,0,0,0-6.94164,2.73317,54.67479,54.67479,0,0,0-7.09072,4.80169,80.49021,80.49021,0,0,0-6.94164,6.204q-3.40094,3.39861-6.20555,6.79567-1.62592,2.06851-3.10277,3.98795-1.47684,1.92176-2.80461,3.84042,1.91478-4.72638,4.35755-9.37976,2.43657-4.65416,5.24272-9.0847.587-1.181,1.55294-3.02823a14.11645,14.11645,0,0,0,1.32932-3.69289,7.87113,7.87113,0,0,0-.07454-3.54536,3.54738,3.54738,0,0,0-2.36357-2.43812,5.99375,5.99375,0,0,0-3.91652-.14753,9.73235,9.73235,0,0,0-3.39472,1.921,16.90016,16.90016,0,0,0-2.80772,3.10122q-1.25789,1.77269-2.14306,3.2503a130.61027,130.61027,0,0,0-7.01618,14.47651c-.12384.30263-.20829.62156-.32864.92555-.13938.21935-.26206.38843-.40745.62584q-1.407,2.29214-3.17732,5.24427-1.91943,2.956-3.98795,6.35153-2.06852,3.3986-4.283,6.64658-1.18335,1.62825-2.289,3.10277-1.1088,1.47918-2.29213,2.80616a34.275,34.275,0,0,1-2.50956,2.80772q-1.18334,1.18334-2.36357,2.216a8.65029,8.65029,0,0,1-2.2176,1.47685q-1.77034,1.03425-2.36357,0a5.75616,5.75616,0,0,1-.7361-2.06852,18.44965,18.44965,0,0,1,1.32932-7.60785,87.6569,87.6569,0,0,1,3.91341-9.37975q2.28748-4.72638,4.72715-8.93717,2.43655-4.20924,3.76743-6.42607a42.07987,42.07987,0,0,0,3.02823-5.31726,24.479,24.479,0,0,0,1.77346-4.94922,8.80878,8.80878,0,0,0,.07143-4.06249,3.568,3.568,0,0,0-2.06851-2.5111,4.37149,4.37149,0,0,0-2.95369-.14753,10.90657,10.90657,0,0,0-2.65864,1.18178,15.57156,15.57156,0,0,0-2.95369,2.36358,46.36359,46.36359,0,0,0-4.57806,5.53933q-2.51577,3.47316-5.91049,9.23223c-.33777.57012-.64175,1.248-.96612,1.86139-.77143,1.08978-1.56944,2.24186-2.42861,3.53042q-1.91943,2.88147-4.137,5.83594-3.84353,5.4648-7.68084,10.04442-3.40094,3.84352-7.16526,7.38578a18.89134,18.89134,0,0,1-7.16216,4.57962q-1.4815.59166-2.06852-.44259a3.90715,3.90715,0,0,1-.59011-1.921,27.77168,27.77168,0,0,1,.51557-6.42606,61.03105,61.03105,0,0,1,1.91944-7.53331q1.25322-3.91341,2.80771-8.05044,1.55139-4.13471,3.17732-7.97745,3.83886-9.15692,8.86107-18.76107,1.62593-3.10044,3.61835-6.64658,1.99863-3.54536,3.62145-6.64813,1.91478-3.68979,3.98795-7.23825a34.60347,34.60347,0,0,1,2.289-4.06249q1.55138-2.43657,3.17731-4.94767,12.25735-.73842,22.74746-.44414c1.72862.06018,3.3132.16849,4.82634.30049a30.54,30.54,0,0,0-3.86973,5.01833,35.36865,35.36865,0,0,0-3.32329,7.09072,27.43877,27.43877,0,0,0-1.40386,6.79411,13.3439,13.3439,0,0,0,.51869,5.31882,5.85646,5.85646,0,0,0,1.69891,2.289,3.25653,3.25653,0,0,0,2.87915.81219c.88828-.09628,1.32932-.53887,1.32932-1.32932a4.98347,4.98347,0,0,0-.146-1.18178,7.21645,7.21645,0,0,1,1.1088-5.39181,27.61826,27.61826,0,0,1,4.57807-5.68687q2.87914-2.8046,6.20554-5.46634,3.32175-2.65786,5.83285-4.7256c.0955-.081.16674-.16073.25623-.24129.60642.27643,1.2606.52936,1.81539.83141a13.05745,13.05745,0,0,1,2.80771,1.921,8.96349,8.96349,0,0,1,2.06852,2.65864q.14442.74074.29506,1.7719a9.339,9.339,0,0,1,.07143,2.06852,14.337,14.337,0,0,1-.51557,2.80616,17.11413,17.11413,0,0,0-.66466,2.14306q-.22362.962.95971,1.10724a2.85186,2.85186,0,0,0,2.36358-1.03426q1.17869-1.181,1.62437-4.57961a8.60693,8.60693,0,0,0,.07454-2.9537,22.22687,22.22687,0,0,0-.51557-2.36357q-.44726-1.181-.7392-2.06852a17.0107,17.0107,0,0,0-2.289-2.8807,14.30247,14.30247,0,0,0-2.43812-1.994q-1.4815-.88518-2.80771-1.62438c-.027-.01339-.05785-.02155-.08483-.03494a3.81185,3.81185,0,0,0-.35931-1.4419,6.6205,6.6205,0,0,0-2.06852-2.66019,5.92573,5.92573,0,0,0-4.50663-1.32932,11.9137,11.9137,0,0,0-4.50663,1.4784c-.22557.11938-.45133.28788-.67689.41794-2.12656-.35582-4.18964-.66311-6.11567-.86208a87.37935,87.37935,0,0,0-10.19039-.59012q-3.10278-.14675-6.28009-.07454-3.17731.07687-6.572.22207a8.05784,8.05784,0,0,1,.66466-1.10879,6.56753,6.56753,0,0,1,.66466-.81219,7.621,7.621,0,0,0,.44414-.73765,55.77183,55.77183,0,0,0,2.95369-4.80169,25.479,25.479,0,0,0,1.994-4.57962,10.31034,10.31034,0,0,0,.51558-3.915,4.00886,4.00886,0,0,0-1.32932-2.80616,3.87141,3.87141,0,0,0-3.02823-.95972,9.89285,9.89285,0,0,0-3.02823.95972,17.71764,17.71764,0,0,0-3.39783,2.5111,60.54765,60.54765,0,0,0-4.13393,4.65416,85.65252,85.65252,0,0,0-5.17129,7.31124q-1.18334,1.62826-3.54381,5.31882-4.28611.59168-9.75246,1.18179-4.72871.59168-11.37373,1.32932-6.64814.74075-15.06662,1.91943-5.02221.74075-9.0847,1.1088-4.06248.37038-7.01618.66466-3.54535.29815-6.20554.29505-8.12032,0-12.25891-1.32931a18.11724,18.11724,0,0,1-6.05647-2.95525,5.31772,5.31772,0,0,1-2.21759-4.283,8.89059,8.89059,0,0,0-.3696-3.69289q-.51714-1.3301-2.87915-1.03426a2.40691,2.40691,0,0,0-1.32932.81219,4.84608,4.84608,0,0,0-.88828,1.40385,10.244,10.244,0,0,0-.7392,2.06852,7.44022,7.44022,0,0,0-.22052,1.54983,6.96079,6.96079,0,0,0,.3696,2.51111,10.75175,10.75175,0,0,0,1.54984,2.95524,10.52348,10.52348,0,0,0,3.47237,2.8807,38.38341,38.38341,0,0,0,8.27406,2.80616,71.20187,71.20187,0,0,0,10.855,1.55139,84.0042,84.0042,0,0,0,15.73439-.51713q3.84352-.2935,7.23669-.7392,3.40095-.44259,6.05647-.73764,3.10277-.44259,5.76141-.88673,2.95368-.29351,6.72112-.81219,3.769-.51712,7.31124-.95972,3.99261-.58933,8.42-.88672-2.65553,4.43053-5.68687,9.82234-3.02823,5.39492-5.98192,11.44982-2.95836,6.0588-5.68687,12.55552-2.73472,6.50139-4.80169,12.85213c-.25254.68426-.46005,1.41589-.70348,2.11006-.9172,1.43394-1.90507,3.02881-2.98941,4.83313q-1.77034,2.956-3.842,6.35153-2.06851,3.39861-4.283,6.64658-2.06852,2.95835-4.137,5.46635-1.77035,2.07084-3.83887,4.13547a17.28423,17.28423,0,0,1-3.69289,2.95525q-1.92408.88518-2.51265-.14753a4.1273,4.1273,0,0,1-.59012-2.06852,19.085,19.085,0,0,1,1.25478-7.60785,78.32474,78.32474,0,0,1,3.842-9.37975q2.28748-4.72638,4.72715-8.93717,2.43655-4.20924,3.9134-6.42607.74076-1.33008,1.4784-2.58564.73609-1.25322,1.32932-2.43656a17.82659,17.82659,0,0,0,1.40386-5.46635,6.01729,6.01729,0,0,0-2.14306-5.4648,8.01336,8.01336,0,0,0-3.32329-1.47839,8.66188,8.66188,0,0,0-3.17732,0,25.185,25.185,0,0,0-6.94164,2.73317,54.67479,54.67479,0,0,0-7.09072,4.80169,80.49021,80.49021,0,0,0-6.94164,6.204q-3.40094,3.39861-6.20555,6.79567-1.62593,2.06851-3.10277,3.98795-1.47684,1.92176-2.80461,3.84042,1.91478-4.72638,4.35755-9.37976,2.43657-4.65416,5.24273-9.0847.587-1.181,1.55293-3.02823a14.11645,14.11645,0,0,0,1.32932-3.69289,7.87113,7.87113,0,0,0-.07454-3.54536,3.54738,3.54738,0,0,0-2.36357-2.43812,5.99375,5.99375,0,0,0-3.91652-.14753,9.73235,9.73235,0,0,0-3.39472,1.921,16.90016,16.90016,0,0,0-2.80772,3.10122q-1.25788,1.77269-2.14306,3.2503a130.61027,130.61027,0,0,0-7.01618,14.47651c-.09065.22149-.152.4552-.2407.67747-.83374,1.17091-1.70183,2.41928-2.63845,3.82761q-1.92409,2.88147-3.98795,5.83594-1.92408,2.807-3.99105,5.4648-1.91943,2.36435-4.283,5.16973-2.362,2.80927-4.87312,5.31882-1.188,1.03427-2.88226,2.43657a31.95684,31.95684,0,0,1-3.91341,2.73317,37.03528,37.03528,0,0,1-6.5006,2.80771,28.6715,28.6715,0,0,1-5.90739,1.18179,8.50656,8.50656,0,0,1-5.46634-1.18179,5.69982,5.69982,0,0,1-3.10278-3.76743,14.56846,14.56846,0,0,1-.29506-5.09675,26.02962,26.02962,0,0,0,4.137-.81218q2.50644-.66388,5.61232-1.77346a52.91229,52.91229,0,0,0,6.64658-2.95369,51.47643,51.47643,0,0,0,7.09072-4.50508,29.77808,29.77808,0,0,0,6.57515-6.57359,31.36817,31.36817,0,0,0,3.91341-7.16527v-.14753a21.72143,21.72143,0,0,0,1.40386-6.72112,34.54088,34.54088,0,0,0-.22052-5.24428,18.04938,18.04938,0,0,0-1.33242-4.57962,14.28424,14.28424,0,0,0-3.09967-3.54536c-.59322-.39134-1.13365-.78578-1.62748-1.18178a13.71556,13.71556,0,0,0-3.988-1.32932,14.81936,14.81936,0,0,0-3.54381-.14753,13.11858,13.11858,0,0,0-3.39783.7392,23.6194,23.6194,0,0,0-4.87623,2.216,41.65576,41.65576,0,0,0-4.72715,3.24875A37.35308,37.35308,0,0,0,460.113,543.7a55.72005,55.72005,0,0,0-5.0222,6.64659c-.88518,1.39162-1.79792,3.04628-2.72328,4.82207-.64039.91662-1.30369,1.88527-2.00077,2.93331q-1.92408,2.88147-3.991,5.83594-3.83888,5.4648-7.68084,10.04442-3.40094,3.84352-7.16526,7.38578a18.89142,18.89142,0,0,1-7.16216,4.57962c-1.08706.39444-1.79831.24692-2.14306-.44259a6.80152,6.80152,0,0,1-.66466-1.921,27.78942,27.78942,0,0,1,.51869-6.42606,59.9402,59.9402,0,0,1,1.91943-7.53331q1.25322-3.91341,2.80771-8.05044,1.54674-4.13471,3.17421-7.97745,3.83887-9.15692,8.86418-18.76107,1.62127-3.10044,3.61835-6.64658,1.994-3.54536,3.76743-6.64813,1.91944-3.68979,3.988-7.23825a34.49823,34.49823,0,0,0,22.30643-9.74936,30.181,30.181,0,0,0,6.05646-8.56757,22.18485,22.18485,0,0,0,1.77346-7.68084,14.28057,14.28057,0,0,0-.7392-5.02376,7.51609,7.51609,0,0,0-2.51266-3.39628,6.86678,6.86678,0,0,0-2.87915-1.1088,11.49706,11.49706,0,0,0-2.88225-.073,10.94679,10.94679,0,0,0-3.09967.73764,23.24806,23.24806,0,0,0-6.50061,3.84042,77.59648,77.59648,0,0,0-7.53486,6.9432,118.21523,118.21523,0,0,0-8.125,9.45429q-4.137,5.318-8.125,11.2262-2.362.14909-5.16818.29661-2.51577.14908-5.68687.22052-3.182.07688-6.8702-.073-7.82682-.29583-13.07265-.22207-5.24117.07687-8.64366.3696-3.83888.42861-6.35152.851a44.935,44.935,0,0,0-8.566,2.84188,18.42965,18.42965,0,0,0-5.31727,4.13548,6.26768,6.26768,0,0,0-1.18334,6.20555,5.76093,5.76093,0,0,0,1.91944,2.95369,6.0961,6.0961,0,0,0,2.95679,1.10725q1.77036.22362,4.72715-1.40231a32.01737,32.01737,0,0,0,4.94767-3.39783,63.081,63.081,0,0,1,6.277-4.43209,38.80775,38.80775,0,0,1,8.125-3.76433,31.48131,31.48131,0,0,1,10.78361-1.40541q2.80461.14909,6.05647.22207,3.2472.07455,5.91049.073,3.09812.14908,6.20244.14753a147.162,147.162,0,0,0-11.22465,21.27217q-1.188,2.66019-2.73317,6.35152-1.55139,3.69446-3.10278,8.125-.74365,2.12472-1.46947,4.33775c-.42278.693-.86246,1.42405-1.33824,2.23585q-2.29213,3.91574-5.24273,8.93717-3.69444,6.50137-7.53486,12.11292-1.62592,2.36436-3.39783,4.72715-1.77036,2.36436-3.61835,4.43209-1.84954,2.07086-3.61835,3.69289a13.39657,13.39657,0,0,1-3.39783,2.36358q-1.775-1.03659-1.25478-4.80169a40.08654,40.08654,0,0,1,2.36358-8.64056q1.8449-4.87545,4.50352-10.341,2.66019-5.46248,5.02221-10.192a28.44323,28.44323,0,0,0,1.25788-3.02978,16.91227,16.91227,0,0,0,.88518-3.76588,9.24121,9.24121,0,0,0-.29506-3.69289,4.87533,4.87533,0,0,0-2.14306-2.80772,3.58137,3.58137,0,0,0-2.73317-.368A6.7353,6.7353,0,0,0,393.2,548.13054q1.0296-6.49672-.7392-9.82234a10.75535,10.75535,0,0,0-4.28611-4.65416,12.60353,12.60353,0,0,0-7.09073-1.32932,21.72,21.72,0,0,0-7.97589,2.06852,30.41793,30.41793,0,0,0-6.20245,3.84042A35.87931,35.87931,0,0,0,361.43926,543.7a55.0649,55.0649,0,0,0-5.02221,6.64659,74.44877,74.44877,0,0,0-4.28611,7.90291A58.86777,58.86777,0,0,0,348.438,568.516a40.14007,40.14007,0,0,0-1.62438,12.262,16.89745,16.89745,0,0,0,2.14306,7.9759,8.80635,8.80635,0,0,0,4.87312,3.915,12.40067,12.40067,0,0,0,6.72112.07454,20.7919,20.7919,0,0,0,7.23981-2.95524,33.95191,33.95191,0,0,0,5.17129-4.13548,34.29793,34.29793,0,0,0,4.283-5.17129,43.60126,43.60126,0,0,0-.7392,5.90894,18.74685,18.74685,0,0,0,.29506,4.87467,9.02883,9.02883,0,0,0,.73919,2.80772,12.82784,12.82784,0,0,0,1.25478,2.43656,8.45584,8.45584,0,0,0,2.289,2.29059,5.20731,5.20731,0,0,0,2.2176,1.03425,7.84855,7.84855,0,0,0,2.65863.14753,12.52933,12.52933,0,0,0,3.54381-1.03425,22.72227,22.72227,0,0,0,5.985-4.137,53.869,53.869,0,0,0,5.39181-5.75985q2.65552-3.39861,5.16818-7.09072c2.26341-3.31359,4.17275-6.377,5.873-9.29376a41.893,41.893,0,0,0-.55576,5.0092,32,32,0,0,0,.29506,6.131,6.909,6.909,0,0,0,2.21759,4.50508,8.584,8.584,0,0,0,5.24273,2.36358,18.32811,18.32811,0,0,0,4.80169-.29506,21.06168,21.06168,0,0,0,8.93872-4.28456,65.77061,65.77061,0,0,0,7.90136-7.23825c1.84858-2.05377,3.66454-4.30359,5.46615-6.64348a33.29976,33.29976,0,0,0-.81355,9.00705,15.75157,15.75157,0,0,0,2.43812,7.97745,14.25324,14.25324,0,0,0,4.20846,3.39628,20.1135,20.1135,0,0,0,5.98193,1.77346,30.532,30.532,0,0,0,9.30832-.29506,30.90415,30.90415,0,0,0,10.11895-3.47237,59.73016,59.73016,0,0,0,8.3455-5.53934,54.8359,54.8359,0,0,0,6.131-5.61232q2.43655-2.66019,3.46926-3.98951,2.2176-2.65785,3.54692-4.43209.72008-1.00746,1.30059-1.87789a50.16226,50.16226,0,0,0-.931,9.19069,17.85235,17.85235,0,0,0,2.13995,9.08469,5.9001,5.9001,0,0,0,2.9568,2.51111,4.67323,4.67323,0,0,0,4.283,0,2.18283,2.18283,0,0,0,1.54984-1.994,8.78017,8.78017,0,0,0-.22052-2.58564,8.23715,8.23715,0,0,1-.29506-2.51111,9.07246,9.07246,0,0,1-.14908-1.7719,48.89591,48.89591,0,0,1,6.72112-13.51679,88.259,88.259,0,0,1,9.30832-11.30074,85.60146,85.60146,0,0,1,8.86108-7.9759,26.57911,26.57911,0,0,1,5.3918-3.54536q-1.62593,2.956-3.24875,5.90894-1.32776,2.51343-2.87915,5.61232-1.55137,3.10278-2.58719,5.61388a49.43,49.43,0,0,0-2.5841,7.90291,45.585,45.585,0,0,0-1.18334,7.75538,24.64628,24.64628,0,0,0,.3696,6.49905,7.32418,7.32418,0,0,0,2.36358,4.28456,10.40822,10.40822,0,0,0,4.50663,2.216,12.72993,12.72993,0,0,0,4.283.14753,11.75971,11.75971,0,0,0,3.25185-.88673q1.25322-.58935,1.54984-.73765a36.38069,36.38069,0,0,0,8.86418-8.052,97.83364,97.83364,0,0,0,6.81973-9.49351,42.69649,42.69649,0,0,0-.76327,6.17022,23.25245,23.25245,0,0,0,.22052,6.131,7.623,7.623,0,0,0,2.14306,4.50508,9.1487,9.1487,0,0,0,5.31726,2.36358,17.89648,17.89648,0,0,0,4.72715-.29506,21.58794,21.58794,0,0,0,9.01016-4.28456,62.7649,62.7649,0,0,0,7.979-7.23825,85.82494,85.82494,0,0,0,6.05394-7.37394c-.08929.41269-.2145.83159-.29564,1.24293a34.313,34.313,0,0,0-.66466,9.52884q.36806,4.28612,2.58409,6.204a10.398,10.398,0,0,0,4.50353,2.216,11.49337,11.49337,0,0,0,4.28611.073,13.42623,13.42623,0,0,0,3.24875-.95971q1.25322-.58935,1.55294-.73765a15.17046,15.17046,0,0,0,2.50955-1.62593q1.32777-1.03193,2.36358-1.91943,1.17867-1.03193,2.36357-2.216a55.28641,55.28641,0,0,0,5.09675-6.204c1.35474-1.92448,2.63107-3.902,3.87089-5.90563a51.95657,51.95657,0,0,0-.62214,7.16041,17.85235,17.85235,0,0,0,2.13995,9.08469,5.9001,5.9001,0,0,0,2.9568,2.51111,4.67323,4.67323,0,0,0,4.283,0,2.18283,2.18283,0,0,0,1.54984-1.994,8.78017,8.78017,0,0,0-.22052-2.58564,8.23715,8.23715,0,0,1-.29506-2.51111,9.07246,9.07246,0,0,1-.14908-1.7719,48.89591,48.89591,0,0,1,6.72112-13.51679,88.259,88.259,0,0,1,9.30832-11.30074,85.60146,85.60146,0,0,1,8.86108-7.9759,26.57911,26.57911,0,0,1,5.3918-3.54536q-1.62592,2.956-3.24875,5.90894-1.32776,2.51343-2.87915,5.61232-1.55138,3.10278-2.58719,5.61388a49.43,49.43,0,0,0-2.5841,7.90291,45.585,45.585,0,0,0-1.18334,7.75538,24.64628,24.64628,0,0,0,.3696,6.49905,7.32418,7.32418,0,0,0,2.36358,4.28456,10.40822,10.40822,0,0,0,4.50663,2.216,12.72993,12.72993,0,0,0,4.283.14753,11.75981,11.75981,0,0,0,3.25185-.88673q1.25322-.58935,1.54984-.73765a36.38087,36.38087,0,0,0,8.86418-8.052c1.73987-2.146,3.29359-4.27816,4.76014-6.40413a29.82242,29.82242,0,0,0-.4026,6.6262,15.75157,15.75157,0,0,0,2.43812,7.97745,14.25315,14.25315,0,0,0,4.20847,3.39628,20.11333,20.11333,0,0,0,5.98192,1.77346,30.532,30.532,0,0,0,9.30832-.29506,30.90428,30.90428,0,0,0,10.119-3.47237,59.73063,59.73063,0,0,0,8.34549-5.53934,54.8359,54.8359,0,0,0,6.131-5.61232q2.43655-2.66019,3.46927-3.98951,2.21758-2.65785,3.54691-4.43209c.49073-.6864.93487-1.32931,1.32932-1.91943q1.62126-2.362,3.10277-4.94922,1.47219-2.58331,2.65863-4.65261,1.47219-2.5111,2.65864-4.87467.73608-1.47451.295-2.216A2.41184,2.41184,0,0,0,744.916,551.38084ZM463.29036,495.0992a41.87311,41.87311,0,0,1,6.35152-6.35152q2.44122-1.77268,3.69289-1.62437a4.295,4.295,0,0,1,1.69892.44258,3.7048,3.7048,0,0,1,.59322,2.95369,17.90686,17.90686,0,0,1-1.4784,4.137,28.74213,28.74213,0,0,1-4.43209,6.204,29.22918,29.22918,0,0,1-4.137,3.39783,37.20416,37.20416,0,0,1-5.09364,2.65863,23.87629,23.87629,0,0,1-6.87021,1.77346A128.69632,128.69632,0,0,1,463.29036,495.0992Zm-79.24962,66.25307q-1.18334,2.29214-2.06852,4.50508-2.07317,3.25185-4.43209,6.5006-2.06851,2.807-4.72714,5.98193a47.00171,47.00171,0,0,1-5.61233,5.68686,11.79913,11.79913,0,0,1-1.77345,1.4784,16.85442,16.85442,0,0,1-1.69892,1.18179c-.64292.39444-1.25478.73764-1.848,1.0327a7.21708,7.21708,0,0,1-2.87915.88673,2.1568,2.1568,0,0,1-2.289-1.47684q-.74076-1.47453.07454-5.16974a62.26862,62.26862,0,0,1,2.50955-8.27251,89.62332,89.62332,0,0,1,4.137-9.38131,56.61892,56.61892,0,0,1,5.09675-8.3455,68.06282,68.06282,0,0,1,10.26493-11.44827q4.79859-4.0625,8.05044-2.58564a2.91776,2.91776,0,0,1,1.69892,1.921,13.14576,13.14576,0,0,1,.66465,3.25031,19.37039,19.37039,0,0,1,0,3.39627q-.14907,1.62826-.29505,2.36358-1.18335,2.07084-2.50956,4.28456Q385.221,559.064,384.04074,561.35227Zm76.14684,6.64658a60.09939,60.09939,0,0,1,3.17732-5.98192q1.77034-3.10278,3.83887-6.05647a70.42146,70.42146,0,0,1,10.19349-11.44827q4.724-4.0625,8.125-2.58564a5.9,5.9,0,0,1,1.62438,2.5111,9.90083,9.90083,0,0,1,.14908,3.915,24.77289,24.77289,0,0,1-1.92254,6.27854,22.15457,22.15457,0,0,1-4.35755,6.42606,44.82032,44.82032,0,0,1-6.64658,5.68687,56.70927,56.70927,0,0,1-8.05044,4.72714,50.66612,50.66612,0,0,1-8.56912,3.25031A39.35971,39.35971,0,0,1,460.18758,567.99885Zm237.08731,0a60.09734,60.09734,0,0,1,3.17731-5.98192q1.77036-3.10278,3.83887-6.05647a70.42193,70.42193,0,0,1,10.19349-11.44827q4.72406-4.0625,8.125-2.58564a5.9,5.9,0,0,1,1.62438,2.5111,9.90083,9.90083,0,0,1,.14908,3.915,24.77248,24.77248,0,0,1-1.92254,6.27854,22.15457,22.15457,0,0,1-4.35755,6.42606,44.82032,44.82032,0,0,1-6.64658,5.68687,56.70816,56.70816,0,0,1-8.05044,4.72714,50.66612,50.66612,0,0,1-8.56912,3.25031A39.35891,39.35891,0,0,1,697.27489,567.99885Z"/><path class="cls-1" d="M797.50161,564.15843c-.19877-.24381-.59011-.17082-1.18023.22207q-1.92409,1.18334-5.02221,3.02823a94.97673,94.97673,0,0,1-9.89843,4.80014q-.29817-5.76063-1.03426-10.70907-.74076-4.94768-1.18024-7.31279-.44259-2.50878-.7392-5.90739a44.72566,44.72566,0,0,1-.07454-6.79566,23.87591,23.87591,0,0,1,1.18334-6.204,7.615,7.615,0,0,1,3.02824-4.137c.29505-.09628.6367-.19567,1.03425-.29506a5.32039,5.32039,0,0,1,.88518.07455,2.53193,2.53193,0,0,1,1.03426.51557,2.92989,2.92989,0,0,1,.95971,1.848,9.01578,9.01578,0,0,1-.51868,3.76588,9.589,9.589,0,0,1-1.62437,3.69289,14.42069,14.42069,0,0,1-2.65864,2.80771,2.92471,2.92471,0,0,0-.88517,1.03271,1.86907,1.86907,0,0,0,.29506,2.216,1.31779,1.31779,0,0,0,1.18023.66466,4.0799,4.0799,0,0,0,2.2176-.66466,13.47828,13.47828,0,0,0,2.36357-1.91943,12.26833,12.26833,0,0,0,2.06852-2.80771,12.80145,12.80145,0,0,0,1.77035-4.65261,25.78835,25.78835,0,0,0,.29816-3.32329q0-3.8412-1.92254-5.53934a9.07012,9.07012,0,0,0-3.69289-2.14305,8.95088,8.95088,0,0,0-5.68686.07454,13.14472,13.14472,0,0,0-4.35755,2.58564,16.86314,16.86314,0,0,0-3.842,4.43054,29.30218,29.30218,0,0,0-3.76433,9.30677,33.39516,33.39516,0,0,0-.51868,12.408q.14442,1.18567.44414,2.66019.44259,2.36435.88518,6.49905.14442,2.21528.295,4.57962a61.61934,61.61934,0,0,1,0,8.56757,24.72369,24.72369,0,0,0-9.45429,3.39783,12.14375,12.14375,0,0,0-3.69289,3.47082,14.58353,14.58353,0,0,0-2.21449,6.27854,17.35235,17.35235,0,0,0-.07455,2.80616,11.14123,11.14123,0,0,0,.66466,3.2503,10.63285,10.63285,0,0,0,2.36358,3.76743,9.40019,9.40019,0,0,0,4.72715,2.43657,9.7729,9.7729,0,0,0,3.39783.29505,12.13108,12.13108,0,0,0,3.39783-.51713,14.59715,14.59715,0,0,0,7.38578-5.09519,35.83094,35.83094,0,0,0,2.51266-3.69289,38.418,38.418,0,0,0,1.77035-4.137,32.38389,32.38389,0,0,0,1.32931-5.90894q.44726-3.2472.59323-6.64658,2.9537-1.47451,5.7614-3.17576,2.80461-1.69813,5.16819-3.32485,2.66018-1.77267,5.17129-3.54536a16.53445,16.53445,0,0,0,.146-1.91943A1.76285,1.76285,0,0,0,797.50161,564.15843ZM767.66343,585.061q-.29817,1.18567-.59012,2.65863-.29815,1.47918-.7392,3.10278a13.346,13.346,0,0,1-1.32931,3.10277,18.11027,18.11027,0,0,1-1.62438,1.69892,2.1319,2.1319,0,0,1-2.06851.51557,1.765,1.765,0,0,1-.95972-.59012c-.24536-.295-.469-.542-.66466-.7392a3.69288,3.69288,0,0,1-.44414-.88517,5.67636,5.67636,0,0,1-.3696-1.62593c-.04969-.59012-.07454-1.13364-.07454-1.62437a7.99972,7.99972,0,0,1,1.4784-3.39784,11.93874,11.93874,0,0,1,2.73317-2.73317,13.28259,13.28259,0,0,1,5.09675-2.1415Q767.95849,583.58571,767.66343,585.061Z"/><path class="cls-1" d="M276.53713,305.74655c57.59213-31.26611,130.89049-6.236,184.03578,29.46373,23.52548,15.80291,44.19006,35.86417,66.15348,53.99222q2.04463-1.75521,4.08909-3.51023c-26.809-26.65-50.71591-57.34831-81.044-79.08889-59.122-42.38088-125.84946-53.11616-193.25151-21.07222a203.63284,203.63284,0,0,0-73.88246,58.82477c-6.19681-2.601-12.4208-5.12858-18.71-7.47624-29.7023-11.08663-48.014-26.49121-43.83561-60.69995.49228-4.03143-4.19449-8.69568-6.48041-13.06643q-1.729.87556-3.45821,1.75133,1.19237,23.76637,2.38435,47.53257-2.34339.86363-4.68677,1.72706c-2.11472-4.03725-5.4384-7.8833-6.11237-12.14787-1.87693-11.87455-2.13336-24.01058-4.118-35.86087-.80559-4.81023-4.42666-9.14895-6.76674-13.70217q-1.738.81151-3.47665,1.6234,1.22615,24.03747,2.45248,48.07475-2.29155.67815-4.58292,1.35649c-2.16344-3.70124-5.64416-7.20118-6.24611-11.14118-1.89226-12.38159-2.31563-24.98583-4.14946-37.37926-.60429-4.08248-3.77189-7.78547-5.76742-11.662q-2.17683.8808-4.35328,1.762c.79918,11.9953,1.299,24.0199,2.48121,35.97754,1.1814,11.95317-1.45588,21.27644-12.39032,28.39822-10.98142,7.15187-20.77251,16.13038-31.08539,24.30836q1.24449,1.978,2.48878,3.95611c21.10852-1.51761,32.54806-27.57885,54.43927-27.10967q1.206,2.23827,2.41171,4.47693Q64.46536,329.58069,45.85493,344.1063q.84819,2.21556,1.69659,4.43053c4.76616-1.58419,10.05742-2.32941,14.19464-4.91855,10.198-6.381,19.5981-14.05235,29.89157-20.25557,3.59428-2.16577,8.86515-1.54983,13.37023-2.20459q.62573,2.146,1.25147,4.29174-18.8356,14.50379-37.67121,29.00736,1.12015,2.42142,2.23992,4.843c4.64116-1.64127,9.66724-2.62466,13.84077-5.06589,7.77479-4.54759,16.01857-8.97133,22.31011-15.21686,9.23592-9.16856,17.385-6.12072,27.10055-1.55333,13.33432,6.26863,26.71231,12.44429,40.07749,18.64692C121.16785,435.636,129.71911,548.103,208.57641,623.18645,256.801,669.1028,313.00753,701.39734,373.738,727.4184c36.97763,15.84367,66.96586,39.72594,75.25293,82.96231a61.943,61.943,0,0,0-.53984-16.60966c-6.80809-39.13408-32.70045-57.59543-64.04517-77.49461-50.06367-31.78285-118.07622-71.31953-154.41423-119.15609-27.47675-36.17087-48.403-85.6881-48.40707-132.5038-.00292-34.511,8.92435-66.21444,25.2902-93.31576q29.49993,13.6058,59.0154,27.17878c3.84469,1.77112,7.89747,3.09,11.85378,4.61883q1.62592-2.08337,3.252-4.16673c-5.98775-5.6461-11.05984-13.16233-18.11989-16.61821-15.89958-7.78313-31.75723-15.76214-47.76416-23.3696A183.89152,183.89152,0,0,1,276.53713,305.74655Z"/><path class="cls-1" d="M876.08424,629.34832c-1.30136,12.37887-2.31232,21.99564-3.54283,33.70015-7.83788-3.62321-13.70819-6.33775-19.57927-9.05073q-16.50415-7.62591-33.01472-15.23822c.7786-.878,1.57953-1.72454,2.349-2.61515,45.70321-52.90575,66.77738-109.77284,64.32781-184.713C876.04115,302.95378,729.624,218.78523,588.514,296.20723c-16.23929,8.9098-30.241,21.89742-46.61362,33.97832,4.7353,2.93311,5.47469,3.67134,5.75752,3.52537,7.99842-4.13238,15.83552-8.59145,23.92925-12.52252,53.66668-26.06493,118.24626-34.40033,171.33428-5.202,74.47258,40.95995,94.47755,97.57062,93.09078,157.32327-1.17829,50.76327-26.31185,104.877-60.68131,144.79163-5.66338-2.62873-11.33452-5.24078-16.993-7.87981-8.29036-3.86643-15.91413-6.09955-22.44968,4.91176q14.85843,6.86826,29.65882,13.70974a218.72827,218.72827,0,0,1-22.62556,20.40815c-53.68007,41.79873-121.44823,69.34109-172.21771,114.50154-51.47529,45.789-94.58761,82.44266-97.50423,153.2604-1.02319,24.84955-.09919,50.00718,14.40779,74.333,0-16.93656-1.05-31.561.18344-45.98973,5.11189-59.80992,33.42722-108.27988,80.84526-142.785,36.94386-26.88255,77.66174-49.18568,118.53705-69.90344,44.8456-22.73038,87.72693-47.59916,122.83947-83.27057,18.69216,8.64056,37.49651,17.33314,56.6627,26.19266C859.1145,683.90231,852.7391,690.9117,843.9,700.6298c40.12116,3.83906,76.39919,7.31027,112.67722,10.78167q.90382-1.50159,1.80782-3.003C931.48653,682.56931,904.58806,656.72994,876.08424,629.34832Z"/><path class="cls-1" d="M575.9913,658.93582c3.844,4.993,7.48779,9.23868,12.29973,12.35828a26.74425,26.74425,0,0,1,2.91385,2.24994c1.64178,1.42095,3.13123,2.226,5.614,1.44546,1.27118-.39963,3.66484.84382,4.68611,2.067,1.26038,1.50956.1476,3.50382-1.53009,4.19221a9.19906,9.19906,0,0,1-5.01673.47868c-1.81812-.35977-2.21149-1.97264-1.93945-3.85027.08388-.57925-.85425-1.67127-1.55212-1.94237-6.56224-2.54923-10.89655-7.89584-15.29674-12.84873-2.65177-2.98491-4.70469-6.33781-9.16906-7.25157l.60332-1.34711a36.69789,36.69789,0,0,0,3.647.46009c1.51409.04762,3.39424.46639,4.487-.24363a137.75346,137.75346,0,0,0,11.6283-8.5804,5.911,5.911,0,0,0,1.67665-3.55671c.27435-1.95575,1.0914-3.5834,2.98987-3.4434a5.13926,5.13926,0,0,1,3.607,2.44359,2.88816,2.88816,0,0,1-2.222,4.16578c-4.858.664-7.29644,4.83209-11.07167,7.01317a58.92912,58.92912,0,0,0-5.27173,3.92522c3.48438.4796,6.49864.81748,9.48443,1.32327,4.62718.7839,8.16972-1.13541,11.36966-4.20136,2.39063-2.29048,5.048-4.3212,7.281-6.74888a6.3195,6.3195,0,0,0,1.54275-4.2094c-.13245-2.19194.58718-3.64916,2.51647-4.099a3.67736,3.67736,0,0,1,4.5359,2.51027c.54338,1.52769-1.21257,4.47547-2.98712,4.56676-2.30419.11857-3.08126,1.76029-4.40492,3.06857-3.145,3.1084-6.51041,5.99384-10.33941,9.47129,4.75685-.47695,9.08281-.88713,13.402-1.3598,1.12174-.12277,2.21968-.61776,3.33277-.63319a6.60272,6.60272,0,0,0,5.64382-3.26168c2.69025-4.01271,5.38039-8.02754,7.9459-12.11966a2.93181,2.93181,0,0,0,.13642-2.52041c-1.34544-2.32957.27694-3.38979,1.76149-4.32808,1.72472-1.09008,3.36388-.47027,4.42691,1.14852,1.09292,1.6642.88065,3.72735-.82625,4.47967-4.34544,1.91525-5.5971,6.1708-8.00563,9.55769-1.07415,1.51048-2.12737,3.03588-3.54606,5.06317,1.55937-.45275,2.646-.66762,3.65251-1.07867,3.50191-1.43,6.92388-3.07039,10.47171-4.37022,7.04853-2.58239,8.60087-9.04191,10.87968-15.01335a12.321,12.321,0,0,0,.82132-2.97176,3.95042,3.95042,0,0,0-.35784-2.43067c-1.113-1.68833-2.12575-3.4535-.20065-4.958,1.23311-.96367,2.847-2.67428,4.68206-.62924,1.6366,1.8238,1.37911,3.58765-.557,5.58688a6.942,6.942,0,0,0-1.46793,2.67359c-1.20249,3.75844-2.29908,7.55073-3.65244,12.054,4.41132-4.2181,8.53178-8.05022,12.51752-12.01769,1.81535-1.807,3.47494-3.64877,3.5267-6.6763.01663-.97256,2.69246-2.74874,3.99291-2.61483,1.33811.13777,3.07384,1.9806,3.50492,3.41675.29046.96784-1.35131,3.619-2.17928,3.64133-5.62623.15173-7.171,5.50439-10.83537,8.07262a53.51131,53.51131,0,0,0-9.10577,8.65279c5.24654-.72047,10.50031-1.39487,15.7315-2.21332a3.49852,3.49852,0,0,0,2.03424-1.44893c1.29846-1.91365,2.77851-2.17041,4.53538-.78294A3.281,3.281,0,0,1,669,646.07779c-1.24066,1.87332-3.36793,2.42111-4.91682,1.014-1.95559-1.77663-3.64643-.99372-5.70246-.74615-4.93571.59439-9.91956.787-14.88292,1.15547a6.08008,6.08008,0,0,0-2.19406.30684c-6.29557,3.14265-12.55765,6.35236-18.70414,9.47958a16.0738,16.0738,0,0,0,3.14848,1.4467c4.30159,1.10475,8.62285,2.17,12.98916,2.95929a5.60331,5.60331,0,0,0,3.51726-1.15568c1.84367-1.20768,4.49712-1.1755,5.33118.74335a4.67241,4.67241,0,0,1-.62,3.96459c-1.27771,1.65484-4.60174,1.32857-5.87081-.03042a6.305,6.305,0,0,0-2.65926-1.94342c-6.20414-1.60245-12.44044-3.08646-18.69184-4.49548a14.30112,14.30112,0,0,0-4.96378-.40137c-6.14538.846-12.261,1.90793-18.42322,2.89484a64.99775,64.99775,0,0,0,6.49492,4.71862,102.93435,102.93435,0,0,0,11.46884,5.61788c1.24867.5144,3.07613.15009,4.46208-.32631,1.7892-.61494,4.16462-.1961,4.85715,1.43483.88958,2.0952-.10027,3.51276-1.9518,4.36733-1.9167.88469-3.63195.89245-4.75868-1.39038a3.85756,3.85756,0,0,0-1.91542-1.97754,52.45152,52.45152,0,0,1-17.92511-9.53723c-3.33214-2.58969-6.77585-4.52652-11.43065-3.99439C582.75419,660.51463,579.6925,659.46649,575.9913,658.93582Z"/><path class="cls-1" d="M475.2821,658.93582c-3.844,4.993-7.48779,9.23868-12.29972,12.35828a26.7434,26.7434,0,0,0-2.91386,2.24994c-1.64177,1.42095-3.13122,2.226-5.614,1.44546-1.27117-.39963-3.66484.84382-4.6861,2.067-1.26038,1.50956-.14761,3.50382,1.53008,4.19221a9.19907,9.19907,0,0,0,5.01673.47868c1.81812-.35977,2.21149-1.97264,1.93946-3.85027-.08388-.57925.85424-1.67127,1.55211-1.94237,6.56224-2.54923,10.89655-7.89584,15.29674-12.84873,2.65177-2.98491,4.70469-6.33781,9.16906-7.25157l-.60332-1.34711a36.69789,36.69789,0,0,1-3.647.46009c-1.51409.04762-3.39423.46639-4.487-.24363a137.75346,137.75346,0,0,1-11.6283-8.5804,5.91094,5.91094,0,0,1-1.67664-3.55671c-.27436-1.95575-1.09141-3.5834-2.98988-3.4434a5.1393,5.1393,0,0,0-3.607,2.44359,2.88816,2.88816,0,0,0,2.222,4.16578c4.858.664,7.29644,4.83209,11.07167,7.01317a58.92912,58.92912,0,0,1,5.27174,3.92522c-3.48439.4796-6.49865.81748-9.48444,1.32327-4.62718.7839-8.16972-1.13541-11.36966-4.20136-2.39062-2.29048-5.04805-4.3212-7.281-6.74888a6.31955,6.31955,0,0,1-1.54275-4.2094c.13246-2.19194-.58718-3.64916-2.51647-4.099a3.67737,3.67737,0,0,0-4.5359,2.51027c-.54337,1.52769,1.21257,4.47547,2.98712,4.56676,2.30419.11857,3.08126,1.76029,4.40493,3.06857,3.145,3.1084,6.5104,5.99384,10.33941,9.47129-4.75686-.47695-9.08282-.88713-13.402-1.3598-1.12174-.12277-2.21967-.61776-3.33277-.63319a6.60272,6.60272,0,0,1-5.64382-3.26168c-2.69024-4.01271-5.38039-8.02754-7.9459-12.11966a2.93181,2.93181,0,0,1-.13642-2.52041c1.34544-2.32957-.27694-3.38979-1.76149-4.32808-1.72472-1.09008-3.36388-.47027-4.42691,1.14852-1.09292,1.6642-.88065,3.72735.82625,4.47967,4.34544,1.91525,5.59711,6.1708,8.00563,9.55769,1.07416,1.51048,2.12737,3.03588,3.54607,5.06317-1.55938-.45275-2.646-.66762-3.65252-1.07867-3.5019-1.43-6.92388-3.07039-10.4717-4.37022-7.04853-2.58239-8.60088-9.04191-10.87969-15.01335a12.32194,12.32194,0,0,1-.82132-2.97176,3.95049,3.95049,0,0,1,.35784-2.43067c1.113-1.68833,2.12575-3.4535.20066-4.958-1.23312-.96367-2.847-2.67428-4.68207-.62924-1.6366,1.8238-1.37911,3.58765.557,5.58688a6.94208,6.94208,0,0,1,1.46792,2.67359c1.2025,3.75844,2.29908,7.55073,3.65244,12.054-4.41132-4.2181-8.53178-8.05022-12.51752-12.01769-1.81535-1.807-3.47493-3.64877-3.5267-6.6763-.01663-.97256-2.69246-2.74874-3.99291-2.61483-1.3381.13777-3.07383,1.9806-3.50492,3.41675-.29046.96784,1.35131,3.619,2.17928,3.64133,5.62623.15173,7.171,5.50439,10.83537,8.07262a53.51172,53.51172,0,0,1,9.10578,8.65279c-5.24655-.72047-10.50032-1.39487-15.73151-2.21332a3.49847,3.49847,0,0,1-2.03423-1.44893c-1.29847-1.91365-2.77852-2.17041-4.53539-.78294a3.281,3.281,0,0,0-.66113,4.80694c1.24067,1.87332,3.36793,2.42111,4.91682,1.014,1.95559-1.77663,3.64643-.99372,5.70246-.74615,4.93571.59439,9.91956.787,14.88293,1.15547a6.08,6.08,0,0,1,2.19405.30684c6.29557,3.14265,12.55766,6.35236,18.70414,9.47958a16.0738,16.0738,0,0,1-3.14848,1.4467c-4.30158,1.10475-8.62285,2.17-12.98916,2.95929a5.60333,5.60333,0,0,1-3.51726-1.15568c-1.84366-1.20768-4.49712-1.1755-5.33118.74335a4.67245,4.67245,0,0,0,.62,3.96459c1.2777,1.65484,4.60173,1.32857,5.87081-.03042a6.305,6.305,0,0,1,2.65926-1.94342c6.20413-1.60245,12.44043-3.08646,18.69183-4.49548a14.30112,14.30112,0,0,1,4.96378-.40137c6.14538.846,12.261,1.90793,18.42322,2.89484a64.99758,64.99758,0,0,1-6.49491,4.71862,102.9345,102.9345,0,0,1-11.46885,5.61788c-1.24867.5144-3.07612.15009-4.46208-.32631-1.7892-.61494-4.16462-.1961-4.85715,1.43483-.88958,2.0952.10027,3.51276,1.9518,4.36733,1.9167.88469,3.632.89245,4.75868-1.39038a3.85764,3.85764,0,0,1,1.91542-1.97754,52.45134,52.45134,0,0,0,17.92511-9.53723c3.33215-2.58969,6.77585-4.52652,11.43065-3.99439C468.51921,660.51463,471.5809,659.46649,475.2821,658.93582Z"/><path class="cls-1" d="M509.2656,628.003c6.36131.15481,12.01616,2.081,16.69737,6.55145a1.50943,1.50943,0,0,0,1.45615.06925c1.08252-.83672,1.91291-2.0438,3.06256-2.74228,7.18375-4.36451,14.7412-5.51,22.47074-1.67611,9.04992,4.48889,12.74314,16.229,8.46559,26.01944-3.19381,7.30994-8.57005,12.8155-14.65318,17.711a92.9374,92.9374,0,0,1-19.01955,11.9276,2.36,2.36,0,0,1-1.77807.08545c-9.85147-4.771-19.0998-10.44625-26.42271-18.74462-4.82478-5.46744-8.917-11.4745-9.47485-19.01836C489.10615,635.15605,498.319,628.0592,509.2656,628.003ZM528.698,637.905c.17579.32542.373.67713.55807,1.03511,2.34761,4.54113,3.74192,9.28719,3.19539,14.47378a6.86178,6.86178,0,0,1-6.6425,6.39159,5.76747,5.76747,0,0,1-5.56344-5.98255,44.75909,44.75909,0,0,1,1.38916-9.75591c.41448-1.85493,1.54049-3.54352,2.24593-5.34622a1.73005,1.73005,0,0,0-.12569-1.5186c-1.53663-1.35927-3.01056-2.98732-4.82951-3.78821a23.2067,23.2067,0,0,0-11.91613-2.06251c-9.91624,1.07668-15.12553,8.93327-13.35783,18.39282,1.30412,6.97868,5.49811,12.44062,10.413,17.3571,6.335,6.33712,13.79721,11.06516,21.77261,15.0179a3.11922,3.11922,0,0,0,2.41016-.22967,92.72234,92.72234,0,0,0,18.391-12.23374c5.27125-4.56157,9.962-9.5864,12.32731-16.3569,2.77752-7.95035-.91372-18.87163-10.62807-21.40183C541.39966,630.09012,532.63689,632.612,528.698,637.905Zm-2.22525,2.9305c-2.085,4.43324-3.32665,8.589-2.92719,13.08973a2.494,2.494,0,0,0,2.819,2.31213,2.97969,2.97969,0,0,0,2.73067-2.8055C529.73839,649.09809,528.58172,645.11352,526.47274,640.83545Z"/></g></svg>