<svg xmlns="http://www.w3.org/2000/svg" viewBox="0 0 1000 1000"><defs><style>.cls-1{fill:#404040;}.cls-2{fill:#fff;}</style></defs><title>Valentines_3</title><g id="Layer_3" data-name="Layer 3"><polygon class="cls-1" points="761.726 577.545 106.357 577.545 148.952 517.995 106.357 458.445 761.726 458.445 761.726 577.545"/><path class="cls-1" d="M320.89058,338.79305a5.97128,5.97128,0,0,1,1.66924.16723v-3.0899a27.93955,27.93955,0,0,1,.16572-3.0899q.33445-13.195.6689-25.724.33446-12.52831,1.00335-23.21867.66438-10.68884,1.7536-18.79247a57.675,57.675,0,0,1,2.757-12.44395,9.71741,9.71741,0,0,1,4.25745-5.01224,11.84389,11.84389,0,0,1,5.92971-1.66923,7.49921,7.49921,0,0,1,5.09509,1.66923q1.92084,1.67226.58454,4.67779a35.80417,35.80417,0,0,0-1.91932,8.35221q-.75479,5.51164-1.25344,13.02848-.50168,7.51836-.6689,16.70443-.16722,9.18834-.16572,19.20978,0,15.3689.25009,31.65374.24858,16.28637.58453,31.488.33446,12.19388.58454,22.63263.24856,10.44252.25008,17.95786,0,6.01332-.16572,9.85422c-.11449,2.56111-.33445,4.11886-.6689,4.67779q-1.3378,3.00778-5.5139,4.51055a25.44449,25.44449,0,0,1-8.68365,1.50352,17.86535,17.86535,0,0,1-8.68667-2.00519q-3.67894-2.00445-3.007-5.67963a150.71558,150.71558,0,0,0,2.58822-15.451q1.08469-8.933,1.838-19.45987.75026-10.52388,1.25343-22.13246.50167-11.60858.83462-23.47026h-.6689a54.86733,54.86733,0,0,0-7.2645.58454q-4.262.58755-9.35556,1.75511-5.0981,1.17057-10.94043,2.83981-5.84837,1.67-11.85942,3.50721,0,13.86612-.25008,26.55864-.25311,12.69782-.6689,22.7185-.42033,10.0222-.919,16.45284a42.24036,42.24036,0,0,1-1.00335,7.76768,10.91858,10.91858,0,0,1-5.84534,5.09509,20.68451,20.68451,0,0,1-8.01776,1.7536,11.68233,11.68233,0,0,1-6.34853-1.58638q-2.50386-1.5909-1.66924-5.09509a129.43864,129.43864,0,0,0,2.33814-12.94563q1.00335-7.4302,1.58789-16.11989.583-8.68214.919-18.37366.32992-9.68548.33144-19.87869Q252.40365,364.1849,244.636,367.274q-7.76919,3.09368-10.609,4.59342-4.506,2.50611-6.84869,1.7536a3.17161,3.17161,0,0,1-2.25377-3.5072q.08588-2.757,2.75695-7.09878a40.68425,40.68425,0,0,1,8.35221-9.18834,54.53435,54.53435,0,0,1,10.69035-4.00888q7.01442-2.00444,16.03553-3.84166v-1.00184q0-11.02555-.08437-21.71515-.08588-10.68884-.25008-20.7133-.16724-8.18274-.25009-16.03553-.08586-7.85054-.08436-14.19906,0-6.34551.08436-11.35774.08136-5.01224.41581-8.01927a7.93886,7.93886,0,0,1,2.4225-5.01073,6.77522,6.77522,0,0,1,4.59492-1.67074,8.65086,8.65086,0,0,1,5.761,2.4225q2.757,2.42251,3.926,7.43323a116.23861,116.23861,0,0,1,1.25344,11.94379q.583,8.43582.919,20.12877.33445,11.69218.50017,25.5568.16722,13.86612.16873,28.06217v.6689q11.35775-1.66773,21.88087-2.67259Q314.54356,338.79305,320.89058,338.79305Z"/><path class="cls-1" d="M434.80849,252.09968q9.68549-.66438,15.28527,6.68147,5.59526,7.35337,8.771,20.21163a182.02958,182.02958,0,0,1,4.42619,29.9845q1.25193,17.12475,2.25377,36.1643.50167,10.52387,1.16907,22.13245.66438,11.61084,1.67225,23.30153.99883,11.69445,2.41949,22.96858,1.41915,11.27413,3.42585,21.29784.50167,2.83832-2.4225,4.259a16.17407,16.17407,0,0,1-7.09878,1.42066,39.95211,39.95211,0,0,1-5.59526-.41731,51.93559,51.93559,0,0,1-5.5139-1.08621,30.56173,30.56173,0,0,1-4.34183-1.42066,4.78,4.78,0,0,1-2.25678-1.58638,30.32158,30.32158,0,0,1-2.75394-8.85238,127.34433,127.34433,0,0,1-1.67225-13.69739q-.58755-7.85053-.83462-17.37332-.24858-9.52053-.25009-19.87718V361.51155a92.98945,92.98945,0,0,0-15.36662,3.34q-9.18834,2.67559-19.377,6.01408-2.50838,15.87056-4.42619,29.23123-1.92535,13.36671-3.09141,21.71515-.83612,4.84275-1.3378,7.852a16.63868,16.63868,0,0,1-.66588,3.17276,3.97576,3.97576,0,0,1-2.25679.6689,11.14439,11.14439,0,0,1-3.75729-.33445,11.96343,11.96343,0,0,1-3.75729-1.67074,6.00042,6.00042,0,0,1-2.4225-3.50721,16.97118,16.97118,0,0,1-.33445-4.51056q0-6.18054,1.25343-18.54088,1.25193-12.36109,3.75729-28.06368-5.51389,2.00445-10.606,3.7588-5.09811,1.7536-9.35556,3.25712-4.25746,1.505-7.5176,2.50536a26.7137,26.7137,0,0,1-5.09509,1.17058q-5.84384,1.00108-8.68364-.83613a5.01157,5.01157,0,0,1-2.59124-4.8435q.25309-3.00779,3.59157-6.43138a25.82809,25.82809,0,0,1,9.85573-5.76248q4.34334-2.50613,13.27857-4.845,8.93524-2.33663,19.79583-4.34333,2.16941-12.35883,4.92636-25.05513,2.757-12.69329,5.92971-24.63933,3.17275-11.94076,6.84869-22.54976a160.537,160.537,0,0,1,7.602-18.54089,53.18923,53.18923,0,0,1,8.26785-12.61269Q430.29943,252.43715,434.80849,252.09968Zm2.50687,9.18683q-3.84618.3367-7.599,8.93675a160.50979,160.50979,0,0,0-7.43323,22.38405q-3.67894,13.78025-7.10179,30.902-3.42585,17.12473-6.26416,34.32632,9.52279-1.33327,18.12659-2.17091,8.60079-.83387,14.61336-1.16907l.33445-11.6937q.16724-8.34995.25009-16.28561.08587-7.93188.08436-15.451,0-10.18716-.25008-19.12692-.24858-8.933-.83462-15.61822a82.3193,82.3193,0,0,0-1.50352-10.69035Q438.81587,261.621,437.31536,261.28651Z"/><path class="cls-1" d="M544.22187,244.91654a97.14608,97.14608,0,0,1,24.46908,1.838,66.66141,66.66141,0,0,1,18.04223,6.5986,50.19469,50.19469,0,0,1,12.694,9.85423,52.41536,52.41536,0,0,1,8.18649,11.77656A62.63564,62.63564,0,0,1,612.29,287.345a83.22451,83.22451,0,0,1,2.16941,11.44211,84.2207,84.2207,0,0,1,.58755,9.18834v5.428a61.2558,61.2558,0,0,1-3.76031,22.13246,59.61183,59.61183,0,0,1-9.93708,17.12173,64.33357,64.33357,0,0,1-14.28192,12.61118,98.78882,98.78882,0,0,1-16.78879,8.771,120.54637,120.54637,0,0,1-33.24012,8.185q0,9.01885-.08436,17.03737-.08587,8.01777-.16572,14.19906-.09039,6.176-.33445,10.10582a16.71393,16.71393,0,0,1-.75327,4.92787,9.557,9.557,0,0,1-5.67962,4.509,25.46129,25.46129,0,0,1-8.68667,1.50352,17.86109,17.86109,0,0,1-8.68364-2.00368q-3.679-2.00445-2.84132-5.67963a196.04817,196.04817,0,0,0,3.0914-20.37885q1.25193-11.85942,2.088-25.39109a65.82059,65.82059,0,0,1-14.03183-4.76064,52.02185,52.02185,0,0,1-11.44362-7.266,32.7104,32.7104,0,0,1-7.76768-9.43692,24.891,24.891,0,0,1-3.004-11.27639,27.578,27.578,0,0,1,4.00737-13.36294,40.64115,40.64115,0,0,1,9.2712-10.52312,54.82563,54.82563,0,0,1,12.444-7.51759,75.61859,75.61859,0,0,1,13.36294-4.50905q.83613-14.53276,2.00369-25.97562,1.17057-11.43911,3.51021-17.45468a9.11514,9.11514,0,0,1,5.0951-5.17946,18.207,18.207,0,0,1,7.43322-1.66923,10.85034,10.85034,0,0,1,6.09543,1.50351q2.25528,1.50277.75327,4.67628a35.5478,35.5478,0,0,0-1.75662,6.68147q-.75026,4.17836-1.41915,9.77287-.66891,5.59752-1.08471,12.44395-.42032,6.85172-.75326,14.36478a48.83182,48.83182,0,0,1,13.36595,3.34149,30.56827,30.56827,0,0,1,8.43356,5.178,15.3151,15.3151,0,0,1,4.17611,5.76248,11.86726,11.86726,0,0,1,.919,4.92787,6.07968,6.07968,0,0,1-2.4225,4.26047,14.74952,14.74952,0,0,1-4.42619,2.33814,12.19537,12.19537,0,0,1-4.26047.66739q-1.92082-.08135-2.088-1.0847a17.129,17.129,0,0,0,.25309-1.92083q.08136-1.08469.08136-1.92083a12.76266,12.76266,0,0,0-3.25713-8.6038q-3.2541-3.758-10.94043-4.76064-.339,13.03-.41882,26.56015-.08586,13.52942-.08135,26.55865a92.77323,92.77323,0,0,0,23.1343-5.76248,63.21789,63.21789,0,0,0,15.70108-9.01961,42.95177,42.95177,0,0,0,9.77136-10.85757,53.74313,53.74313,0,0,0,5.26382-11.10917,38.59463,38.59463,0,0,0,2.00369-9.6885q.24858-4.34107.25009-6.68147v-1.66924a107.68528,107.68528,0,0,0-2.00369-25.30672,64.91608,64.91608,0,0,0-6.43289-17.87349,42.01118,42.01118,0,0,0-9.35255-11.6937,43.52047,43.52047,0,0,0-10.69035-6.76433,37.51054,37.51054,0,0,0-10.609-2.92267,57.73729,57.73729,0,0,0-8.85238-.41882,80.35757,80.35757,0,0,0-20.46171,4.59342,61.16908,61.16908,0,0,0-13.4473,7.01592,35.11356,35.11356,0,0,0-7.85205,7.43323q-2.67108,3.67668-3.84165,5.67962a9.73582,9.73582,0,0,0-.58454,1.00184,3.12225,3.12225,0,0,1-.58453.83613,5.0249,5.0249,0,0,1-.50017.66739h.16572a17.99275,17.99275,0,0,1-2.58822,1.00335,9.207,9.207,0,0,1-3.25713.41731,5.6994,5.6994,0,0,1-3.007-1.00184,4.88638,4.88638,0,0,1-1.838-3.0914q-.16724-1.0011,1.08771-3.7573a30.18443,30.18443,0,0,1,4.09174-6.26415,56.94674,56.94674,0,0,1,7.34887-7.35037,59.4105,59.4105,0,0,1,10.85908-7.18315,71.72273,71.72273,0,0,1,14.69772-5.59526A82.0829,82.0829,0,0,1,544.22187,244.91654ZM517.493,321.254q-8.01777,1.84173-12.60967,5.34517a29.49834,29.49834,0,0,0-7.09878,7.43323,24.01025,24.01025,0,0,0-3.34149,7.68482q-.84064,3.758-1.16907,6.09693a15.46768,15.46768,0,0,0,1.41916,8.68516,22.487,22.487,0,0,0,5.17945,6.76583,31.25825,31.25825,0,0,0,7.43323,4.92787,53.3392,53.3392,0,0,0,8.18348,3.17275q.33446-7.51608.6689-14.94931.32994-7.43022.6689-14.61637Z"/><path class="cls-1" d="M687.71,244.91654a97.14616,97.14616,0,0,1,24.46909,1.838,66.66146,66.66146,0,0,1,18.04222,6.5986,50.19469,50.19469,0,0,1,12.694,9.85423,52.41536,52.41536,0,0,1,8.18649,11.77656A62.63632,62.63632,0,0,1,755.7781,287.345a83.22439,83.22439,0,0,1,2.1694,11.44211,84.2207,84.2207,0,0,1,.58755,9.18834v5.428a61.2558,61.2558,0,0,1-3.76031,22.13246,59.6116,59.6116,0,0,1-9.93708,17.12173,64.33357,64.33357,0,0,1-14.28192,12.61118,98.78845,98.78845,0,0,1-16.78879,8.771,120.54637,120.54637,0,0,1-33.24012,8.185q0,9.01885-.08436,17.03737-.08587,8.01777-.16572,14.19906-.09039,6.176-.33445,10.10582a16.71393,16.71393,0,0,1-.75327,4.92787,9.557,9.557,0,0,1-5.67962,4.509,25.46128,25.46128,0,0,1-8.68666,1.50352,17.86111,17.86111,0,0,1-8.68365-2.00368q-3.679-2.00445-2.84132-5.67963a196.04817,196.04817,0,0,0,3.0914-20.37885q1.25193-11.85942,2.088-25.39109a65.82059,65.82059,0,0,1-14.03183-4.76064,52.02185,52.02185,0,0,1-11.44362-7.266,32.7104,32.7104,0,0,1-7.76768-9.43692,24.891,24.891,0,0,1-3.004-11.27639,27.578,27.578,0,0,1,4.00737-13.36294,40.64152,40.64152,0,0,1,9.2712-10.52312,54.82563,54.82563,0,0,1,12.44395-7.51759,75.61886,75.61886,0,0,1,13.36294-4.50905q.83613-14.53276,2.00369-25.97562,1.17057-11.43911,3.51022-17.45468a9.11509,9.11509,0,0,1,5.09509-5.17946,18.207,18.207,0,0,1,7.43322-1.66923,10.85032,10.85032,0,0,1,6.09543,1.50351q2.25528,1.50277.75327,4.67628a35.5478,35.5478,0,0,0-1.75662,6.68147q-.75026,4.17836-1.41915,9.77287-.6689,5.59752-1.0847,12.44395-.42033,6.85172-.75327,14.36478a48.83173,48.83173,0,0,1,13.36595,3.34149,30.56849,30.56849,0,0,1,8.43357,5.178,15.31517,15.31517,0,0,1,4.1761,5.76248,11.86713,11.86713,0,0,1,.919,4.92787,6.07973,6.07973,0,0,1-2.42251,4.26047,14.7494,14.7494,0,0,1-4.42619,2.33814,12.19534,12.19534,0,0,1-4.26047.66739q-1.92082-.08135-2.088-1.0847a17.129,17.129,0,0,0,.25309-1.92083q.08136-1.08469.08136-1.92083a12.7627,12.7627,0,0,0-3.25712-8.6038q-3.25411-3.758-10.94044-4.76064-.339,13.03-.41881,26.56015-.08588,13.52942-.08136,26.55865a92.7732,92.7732,0,0,0,23.13431-5.76248,63.218,63.218,0,0,0,15.70107-9.01961,42.95158,42.95158,0,0,0,9.77136-10.85757,53.74372,53.74372,0,0,0,5.26383-11.10917,38.595,38.595,0,0,0,2.00368-9.6885q.24858-4.34107.25009-6.68147v-1.66924a107.68528,107.68528,0,0,0-2.00369-25.30672,64.91575,64.91575,0,0,0-6.43289-17.87349,42.01118,42.01118,0,0,0-9.35255-11.6937,43.52047,43.52047,0,0,0-10.69035-6.76433,37.51045,37.51045,0,0,0-10.609-2.92267,57.73729,57.73729,0,0,0-8.85238-.41882,80.35757,80.35757,0,0,0-20.46171,4.59342,61.16908,61.16908,0,0,0-13.4473,7.01592,35.11377,35.11377,0,0,0-7.852,7.43323q-2.67108,3.67668-3.84165,5.67962a9.73582,9.73582,0,0,0-.58454,1.00184,3.122,3.122,0,0,1-.58453.83613,5.0249,5.0249,0,0,1-.50017.66739h.16572a17.99275,17.99275,0,0,1-2.58822,1.00335,9.207,9.207,0,0,1-3.25712.41731,5.69941,5.69941,0,0,1-3.007-1.00184,4.88638,4.88638,0,0,1-1.838-3.0914q-.16722-1.0011,1.08772-3.7573a30.18361,30.18361,0,0,1,4.09174-6.26415,56.946,56.946,0,0,1,7.34886-7.35037,59.4105,59.4105,0,0,1,10.85908-7.18315,71.72273,71.72273,0,0,1,14.69772-5.59526A82.0829,82.0829,0,0,1,687.71,244.91654ZM660.98109,321.254q-8.01775,1.84173-12.60967,5.34517a29.49834,29.49834,0,0,0-7.09878,7.43323,24.01025,24.01025,0,0,0-3.34149,7.68482q-.84064,3.758-1.16906,6.09693a15.46777,15.46777,0,0,0,1.41915,8.68516,22.48713,22.48713,0,0,0,5.17945,6.76583,31.25825,31.25825,0,0,0,7.43323,4.92787,53.33959,53.33959,0,0,0,8.18348,3.17275q.33446-7.51608.6689-14.94931.32994-7.43022.6689-14.61637Z"/><path class="cls-1" d="M862.93167,254.43782a133.70114,133.70114,0,0,0-2.33813,22.55127q-.50167,14.03109-.83462,31.57088-.339,17.2061-.83763,36.33-.50167,19.1292-2.33814,38.33672a211.18246,211.18246,0,0,0,18.20794-16.28712A61.36992,61.36992,0,0,0,886.985,350.1523a3.45413,3.45413,0,0,1,2.25377-1.25343,9.76688,9.76688,0,0,1,3.59157-.16572,6.099,6.099,0,0,1,3.007,1.16907,2.22572,2.22572,0,0,1,.50318,2.75544,64.64064,64.64064,0,0,1-6.84869,12.69555,124.8948,124.8948,0,0,1-9.9401,12.61117q-5.59977,6.26416-12.1095,12.44546-6.51726,6.18056-13.36294,12.19387a223.31806,223.31806,0,0,1-9.60564,38.33521q-6.26416,17.78913-16.78879,29.81727-7.51609,8.51718-15.61671,12.19387a37.78248,37.78248,0,0,1-15.61972,3.67443q-9.35556,0-15.451-5.26231-6.09694-5.26082-6.09543-14.28192a30.37486,30.37486,0,0,1,.66589-6.09694,26.77081,26.77081,0,0,1,2.34115-6.5971,64.45564,64.45564,0,0,1,8.93674-13.69739A143.22826,143.22826,0,0,1,799.3711,427.576q6.93306-6.43365,14.7851-12.52832,7.85054-6.09693,15.86679-11.94378l1.50352-9.35406a35.20864,35.20864,0,0,1-9.93708,7.18315,29.6472,29.6472,0,0,1-13.28159,2.83981,41.77508,41.77508,0,0,1-8.68364-.919,46.86711,46.86711,0,0,1-9.52129-3.25712q-6.8517-3.00779-10.02446-7.10028a53.051,53.051,0,0,1-5.17644-7.9334v-.50167a40.15769,40.15769,0,0,1-3.34149-10.44027q-1.505-7.098-2.67259-16.37-1.17057-9.2697-1.92233-20.29449-.75026-11.02555-1.25042-22.29968-.50168-11.2764-.75327-22.134-.24858-10.85607-.25008-20.0444,0-12.19161.50017-20.296.50168-8.09911,1.50352-8.6023a14.26512,14.26512,0,0,1,4.76064.16723,45.54643,45.54643,0,0,1,7.51759,1.7536,31.92607,31.92607,0,0,1,6.93306,3.0914q3.00554,1.83948,2.8383,4.17611-.16722,3.00554-.50016,6.09693-.339,3.09141-.50319,6.09694-.99882,12.52605-2.00368,28.145-1.00335,15.622-1.00034,31.488,0,12.865.916,24.88941a121.38207,121.38207,0,0,0,3.42585,21.54792,49.71442,49.71442,0,0,0,6.8487,15.78544,17.30146,17.30146,0,0,0,11.0248,7.60045,12.13736,12.13736,0,0,0,6.68-.586,33.729,33.729,0,0,0,6.01407-2.75544,38.18178,38.18178,0,0,0,8.8554-7.43323,39.552,39.552,0,0,0,5.67661-8.6023q.83613-6.84719,1.42217-13.11285.583-6.26416.919-12.111.1627-8.85162.58453-19.79432.41129-10.93741,1.00034-22.21532.583-11.27638,1.16907-21.96674.583-10.68658,1.3378-19.20978.75026-8.51718,1.41915-13.86311.66438-5.34442,1.3378-5.84685a9.32675,9.32675,0,0,1,5.26081-1.33629,20.51224,20.51224,0,0,1,6.51425,1.08621,15.60447,15.60447,0,0,1,5.51089,3.08989,5.93841,5.93841,0,0,1,2.25678,4.50905ZM801.62788,476.10137a29.24844,29.24844,0,0,0,7.18315-7.51759,70.44415,70.44415,0,0,0,6.17979-11.192,146.787,146.787,0,0,0,5.34517-13.94747q2.50386-7.602,4.51056-16.11989-6.8517,6.01332-12.86277,11.94378a156.59127,156.59127,0,0,0-10.77471,11.6937,85.50052,85.50052,0,0,0-8.01776,11.35775,37.635,37.635,0,0,0-4.4262,11.10916,13.19992,13.19992,0,0,0-.16571,2.17091,5.61249,5.61249,0,0,0,.4158,2.17092,4.12949,4.12949,0,0,0,1.25343,1.67074,3.66349,3.66349,0,0,0,2.33814.6689,9.855,9.855,0,0,0,3.67594-.919A32.703,32.703,0,0,0,801.62788,476.10137Z"/><path class="cls-2" d="M239.01359,485.8426a43.24617,43.24617,0,0,0-1.73251,4.00888q-2.09709,5.10716-4.55575,12.66843-3.55692,10.75663-6.65284,22.5121a212.036,212.036,0,0,0-5.19452,25.15457q-1.279,8.65953-1.73252,9.47909-.913,1.55022-5.46871,1.54872-7.65619,0-11.757-10.026-3.7377-9.11151-3.7362-23.51395l-12.39574-44.38393a15.92939,15.92939,0,0,1,2.87145-4.46687q2.0519-2.36826,3.691-2.36977,7.47089,0,11.57318,8.56764,2.27787,4.64841,4.83295,17.0434,2.18748,10.48094,4.372,12.66842,1.82591-5.64949,3.55541-12.30384,3.55692-13.39835,3.55542-19.139,0-.82031,2.64245-3.19084,2.644-2.36826,4.10078-2.36977a18.29066,18.29066,0,0,1,6.74625,1.18564Q239.01209,481.01266,239.01359,485.8426Z"/><path class="cls-2" d="M297.70807,554.37925q0,3.0078-3.465,4.82994a15.43369,15.43369,0,0,1-7.29161,1.82291q-4.46536,0-6.37866-2.64246a8.77808,8.77808,0,0,1-1.45832-5.28642,17.441,17.441,0,0,1,.27419-3.37312,1.574,1.574,0,0,1,.27117-.72917,43.111,43.111,0,0,0-1.00034-7.92887,45.34274,45.34274,0,0,1-1.00335-8.74843q0-4.19193-1.73251-5.05894-1.731-.8655-7.65619-.86625-4.28458,0-6.01408,3.00854-1.36491,2.37053-1.36793,7.29011,0,1.914.27419,6.10748.2757,4.19193.27419,6.28826,0,5.65176-1.73251,8.38536-2.27788,3.55465-7.74659,3.55391a13.02092,13.02092,0,0,1-6.698-1.731q-2.96485-1.731-2.96184-4.28457-.36609-4.00889-.36458-8.01927,0-2.27789.18078-7.56581.18079-5.2834.1838-6.37865,0-25.6103,7.97257-37.823,7.97707-12.21194,25.65623-12.21345,6.74323,0,12.26016,7.24642,5.51391,7.24491,5.5139,19.731,0,7.38276,1.27453,19.64066Q296.24673,541.89387,297.70807,554.37925ZM275.65245,513.73v-2.73285a47.43117,47.43117,0,0,1-1.91631-9.75328q-.18078-1.548-4.10078-4.19117a18.83146,18.83146,0,0,0-4.64614,7.837q-1.00788,3.46428-2.00671,6.83514V513.73a40.44487,40.44487,0,0,1,4.05559.18229q1.7762.18531,4.32977.36458c.78942,0,1.51858-.02862,2.18748-.09039A9.22682,9.22682,0,0,0,275.65245,513.73Z"/><path class="cls-2" d="M351.202,555.65529q0,3.09817-7.92737,4.146-7.93188,1.04854-29.34724,1.04855a12.323,12.323,0,0,1-8.295-3.37162q-3.28122-2.91739-3.64581-5.83329l-2.00368-69.17542q0-1.09374,2.49481-2.27788a10.52026,10.52026,0,0,1,4.40209-1.18564q8.70926,0,11.61234,6.19787,2.08806,4.375,2.08806,15.49318v24.97227q0,3.37388-.36458,8.20306-.36609,4.83145-.36458,6.28827,0,4.0134,1.59391,5.7429,1.59541,1.731,6.42686,1.731.63726,0,4.28458-.36458,3.6428-.36383,6.10446-.36458,5.8348,0,8.84033,1.55022Q351.205,550.55266,351.202,555.65529Z"/><path class="cls-2" d="M405.9795,554.92612q0,2.644-2.87145,5.33162-2.86995,2.6869-5.05894,2.68765a37.49975,37.49975,0,0,1-7.06262-.95664,42.92178,42.92178,0,0,0-5.6043-.95665H367.97271q-2.09709,0-6.65284-2.82475t-4.01039-4.46687q0-27.97856-1.00034-44.65812a180.8431,180.8431,0,0,0-1.8229-18.31942q-1.18865-7.19747-1.18413-8.20156,0-3.0078,3.007-5.92519A13.26528,13.26528,0,0,1,365.969,472.9q1.731,0,9.47909.91145,10.75212,1.27678,17.68066,2.82475,9.568,2.18748,9.56949,4.55726,0,4.01114-2.64246,5.74139-2.27787,1.45983-6.83664,1.45832a57.44659,57.44659,0,0,1-7.47239-.63726q-10.57585-1.45756-13.03452-1.45832a12.42552,12.42552,0,0,1-.54536,3.007,2.13864,2.13864,0,0,0-.27419.91146,60.48639,60.48639,0,0,1,1.00335,8.52245q.45648,6.3342.455,13.62507,15.76887,0,23.19457,1.64061,7.43021,1.64061,7.4272,5.01223,0,3.92076-2.91364,5.46871-2.46318,1.27679-8.02077,1.276-2.2824,0-8.84033-.36459-6.56246-.36382-10.847-.36458,0,1.55024-.09039,2.46017-.45648,4.375-.455,6.38016,0,2.28013.09039,4.64765.09039,2.37279.50017,6.335.41128,3.96369,8.79513,4.69285,7.74659.18529,15.49317.36458Q405.978,550.5519,405.9795,554.92612Z"/><path class="cls-2" d="M462.75767,485.933q-1.27454,6.47205-2.27788,16.22233a205.36832,205.36832,0,0,0-1.00335,20.96339q.913,9.11376,1.27754,13.76066,1.27452,14.03787,1.27453,15.40278,0,4.64841-2.18749,6.927a5.99048,5.99048,0,0,1-4.55575,1.82291q-8.65955,0-15.58357-14.309-6.01557-12.578-11.94077-25.15456a18.48172,18.48172,0,0,0-1.13893,3.87329,23.42392,23.42392,0,0,0-.31939,3.96519v7.92888a74.22929,74.22929,0,0,0,.50318,9.4791,11.4283,11.4283,0,0,0,2.13928,5.83178h-1.18414q0,4.56027-1.73251,6.47206-1.731,1.914-5.73988,1.9133-5.19754,0-9.11452-5.01223a29.5349,29.5349,0,0,1-2.91665-5.01374c0-.91145.21092-1.36643.63877-1.36643q.72767.183,1.45833.36458a48.78842,48.78842,0,0,1-.36459-5.01223q.36157-3.09817.684-8.02077.31637-4.92184.31637-12.21345-.90843-6.19637-1.7295-12.48614-.27568-3.6428-.27419-18.31792,0-9.20415-2.09709-12.12155a6.15919,6.15919,0,0,1-1.09374-3.64581,4.437,4.437,0,0,0,1.27754,1.91329,14.51731,14.51731,0,0,0,.455-1.731,9.39066,9.39066,0,0,0-1.09374-2.09709,11.24817,11.24817,0,0,0,3.7362-1.731c.4851-.4851.97322-1.00184,1.45832-1.54871q11.4843,0,17.59027,10.57133,2.549,4.46762,6.83664,19.68585,2.91513,10.57359,6.927,10.57284a2.3065,2.3065,0,0,0,1.95849-.684,4.7337,4.7337,0,0,0,.50017-2.59726q-.54687-6.46981-1.00034-13.85256-.461-7.38276-.458-13.39759,0-1.55022,2.0067-3.19084a10.01326,10.01326,0,0,1,6.37865-2.00519,11.49122,11.49122,0,0,1,7.20123,2.46167Q462.75615,483.01711,462.75767,485.933Zm-18.7744,30.441c-.24406-.18229-.48511-.36458-.72916-.54687-.18079-.24256-.36458-.48661-.54537-.72917A3.2348,3.2348,0,0,1,443.98327,516.374Z"/><path class="cls-2" d="M512.9764,484.41893q0,3.53433-1.82291,4.89171a6.76068,6.76068,0,0,1-4.01038.99732h-2.64547a10.81458,10.81458,0,0,1-1.50352.50168,9.95658,9.95658,0,0,1-2.41347.22748,17.85619,17.85619,0,0,1-2.09709-.09189,13.96225,13.96225,0,0,1-2.36827-.63727l3.917,61.60962q0,5.8348-2.73285,7.93038a7.42235,7.42235,0,0,1-4.55877,1.18414,9.43563,9.43563,0,0,1-8.61133-4.69436,28.5077,28.5077,0,0,1-3.64581-11.93926,192.4982,192.4982,0,0,1-.77436-19.45836v-6.06078q0-3.05073.09039-6.24307,0-9.84141-1.36793-14.08a21.178,21.178,0,0,0-5.01072-8.066q-4.56027-4.55574-9.11452-9.20491a13.07866,13.07866,0,0,1,2.64246-2.00519l-2.64246-1.276a1.12292,1.12292,0,0,1,.63877.18229c.18078.122.39471.27268.63576.455a13.02673,13.02673,0,0,1,3.8748-1.64061,16.72659,16.72659,0,0,1,3.78139-.455c.48812,0,1.32274.03163,2.50687.09039q1.77619.09266,2.87145.0919H492.1953a7.788,7.788,0,0,0,2.78105-.50168q1.31973-.49941,2.32308-.86625a24.70644,24.70644,0,0,1,9.93407,1.90274Q512.97339,479.80066,512.9764,484.41893Z"/><path class="cls-2" d="M538.03605,557.56858q0,1.1864-1.9585,2.415a7.52924,7.52924,0,0,1-4.05558,1.23084,14.464,14.464,0,0,1-8.65954-2.36978q-5.8348-4.19191-6.01408-4.28307,0-16.22309-.1386-24.97227-.13558-8.74994-.31938-21.00858-.18079-12.25714-.18079-21.55395,0-2.27789,3.32642-4.78475a10.978,10.978,0,0,1,6.60765-2.50687q5.46871,0,7.382,2.0971,1.55022,1.64061,1.54871,5.5591,0,.913-.09039,3.05374-.09039,2.14228-.09039,3.32642v23.33166q0,4.375.63877,14.309.36156,5.65175,1.27452,17.58875Q537.94415,557.57009,538.03605,557.56858Z"/><path class="cls-2" d="M594.81723,485.933q-1.27454,6.47205-2.27788,16.22233a205.36832,205.36832,0,0,0-1.00335,20.96339q.913,9.11376,1.27754,13.76066,1.27452,14.03787,1.27453,15.40278,0,4.64841-2.18749,6.927a5.99046,5.99046,0,0,1-4.55575,1.82291q-8.65954,0-15.58356-14.309-6.01558-12.578-11.94077-25.15456a18.48117,18.48117,0,0,0-1.13894,3.87329,23.42392,23.42392,0,0,0-.31939,3.96519v7.92888a74.22929,74.22929,0,0,0,.50318,9.4791,11.4283,11.4283,0,0,0,2.13928,5.83178H559.8205q0,4.56027-1.73252,6.47206-1.731,1.914-5.73988,1.9133-5.19755,0-9.11452-5.01223a29.5349,29.5349,0,0,1-2.91665-5.01374c0-.91145.21092-1.36643.63877-1.36643q.72767.183,1.45833.36458a48.7878,48.7878,0,0,1-.36458-5.01223q.36156-3.09817.684-8.02077.31638-4.92184.31637-12.21345-.90843-6.19637-1.72949-12.48614-.2757-3.6428-.27419-18.31792,0-9.20415-2.0971-12.12155a6.15919,6.15919,0,0,1-1.09374-3.64581,4.437,4.437,0,0,0,1.27754,1.91329,14.51731,14.51731,0,0,0,.455-1.731,9.39066,9.39066,0,0,0-1.09374-2.09709,11.24808,11.24808,0,0,0,3.7362-1.731c.4851-.4851.97322-1.00184,1.45832-1.54871q11.4843,0,17.59027,10.57133,2.54906,4.46762,6.83664,19.68585,2.91515,10.57359,6.927,10.57284a2.3065,2.3065,0,0,0,1.95849-.684,4.7337,4.7337,0,0,0,.50017-2.59726q-.54687-6.46981-1.00034-13.85256-.461-7.38276-.458-13.39759,0-1.55022,2.0067-3.19084a10.01326,10.01326,0,0,1,6.37865-2.00519,11.49122,11.49122,0,0,1,7.20123,2.46167Q594.81572,483.01711,594.81723,485.933Zm-18.7744,30.441c-.24406-.18229-.4851-.36458-.72916-.54687-.18079-.24256-.36458-.48661-.54537-.72917A3.2348,3.2348,0,0,1,576.04283,516.374Z"/><path class="cls-2" d="M649.59171,554.92612q0,2.644-2.87145,5.33162-2.86994,2.6869-5.05893,2.68765a37.49955,37.49955,0,0,1-7.06262-.95664,42.92178,42.92178,0,0,0-5.6043-.95665H611.58493q-2.09709,0-6.65285-2.82475t-4.01039-4.46687q0-27.97856-1.00033-44.65812a180.84272,180.84272,0,0,0-1.82291-18.31942q-1.18864-7.19747-1.18413-8.20156,0-3.0078,3.007-5.92519a13.26524,13.26524,0,0,1,9.65988-3.7362q1.731,0,9.4791.91145,10.75212,1.27678,17.68065,2.82475,9.568,2.18748,9.56949,4.55726,0,4.01114-2.64245,5.74139-2.27788,1.45983-6.83664,1.45832a57.44672,57.44672,0,0,1-7.4724-.63726q-10.57586-1.45756-13.03451-1.45832a12.42585,12.42585,0,0,1-.54537,3.007,2.13864,2.13864,0,0,0-.27419.91146,60.48639,60.48639,0,0,1,1.00335,8.52245q.45648,6.3342.455,13.62507,15.76886,0,23.19456,1.64061,7.4302,1.64061,7.4272,5.01223,0,3.92076-2.91363,5.46871-2.46318,1.27679-8.02078,1.276-2.28239,0-8.84033-.36459-6.56244-.36382-10.847-.36458,0,1.55024-.0904,2.46017-.45648,4.375-.455,6.38016,0,2.28013.09039,4.64765.09039,2.37279.50017,6.335.41129,3.96369,8.79513,4.69285,7.74658.18529,15.49318.36458Q649.59021,550.5519,649.59171,554.92612Z"/><path class="cls-2" d="M668.6403,498.59841c-2.09709,7.65619-6.01408,17.408-8.56915,21.60065l-5.10413.63877a128.9916,128.9916,0,0,0,5.37831-21.41987Z"/><path class="cls-2" d="M724.41512,542.62228q0,5.65176-6.37866,11.757-7.20423,6.83589-15.86077,6.83514a28.98535,28.98535,0,0,1-12.9411-2.73436,22.44584,22.44584,0,0,1-10.11486-10.29865l.63576-6.47055q.73218.8203,9.11452,2.68765,8.38385,1.87112,9.02412,1.86961a5.71811,5.71811,0,0,0,4.51056-2.41648,9.7469,9.7469,0,0,0,1.95849-6.33346q0-9.11376-8.01776-11.84887-7.57032-2.27562-15.0382-4.64765-8.11267-4.64841-8.11418-18.22753a23.66919,23.66919,0,0,1,7.79479-17.90965,26.46888,26.46888,0,0,1,18.8196-7.33681,53.26839,53.26839,0,0,1,14.8544,2.27938q9.75329,2.82476,9.75329,7.01743a5.91643,5.91643,0,0,1-1.73251,4.64765,6.83831,6.83831,0,0,1-4.73955,1.55022,55.25491,55.25491,0,0,0-5.73989-1.73251,26.61285,26.61285,0,0,0-6.47206-.81956,12.64673,12.64673,0,0,0-10.25346,5.01224,17.26637,17.26637,0,0,0-4.05558,11.11971q0,3.09817,12.30535,5.74139,7.65619,1.64061,11.757,5.37681,2.45865,2.18748,5.46871,9.75178Q724.41511,536.15173,724.41512,542.62228Z"/><path class="cls-1" d="M322.88824,627.30142a78.19126,78.19126,0,0,1,22.66728-18.98532,66.1047,66.1047,0,0,1,24.225-7.849,52.21206,52.21206,0,0,1,5.43557-.56645q2.757-.13558,5.297-.1386,14.40848,0,24.64686,4.381a46.04381,46.04381,0,0,1,16.80687,11.87448,46.94377,46.94377,0,0,1,9.60565,17.46071,72.24064,72.24064,0,0,1,3.03415,21.13362,93.76855,93.76855,0,0,1-2.54,21.35057,113.88171,113.88171,0,0,1-7.27353,21.27524,111.42235,111.42235,0,0,1-11.51292,19.6512,92.93219,92.93219,0,0,1-15.18283,16.3278A74.23248,74.23248,0,0,1,379.73571,744.597a60.088,60.088,0,0,1-20.97393,4.87815q-11.72383.56495-19.49151-2.11819a35.94772,35.94772,0,0,1-12.28727-6.71009,24.17926,24.17926,0,0,1-6.42687-8.545,23.11935,23.11935,0,0,1-2.04587-7.76768,24.72455,24.72455,0,0,1,4.87213-12.78141,33.972,33.972,0,0,1,8.96687-8.19252,41.5198,41.5198,0,0,1,9.60565-4.4503,47.01234,47.01234,0,0,1,6.921-1.69334,2.2762,2.2762,0,0,0,.56344-.07231,2.42789,2.42789,0,0,1,.56646-.0693q-.84969-7.62908-1.41313-16.10181-.56494-8.47425-.919-16.87918-.35251-8.39742-.56344-16.0295-.21241-7.62456-.21091-13.41717,0-5.36477.21091-8.61737a15.70232,15.70232,0,0,1,.49414-3.81152h.14162a5.15322,5.15322,0,0,1,3.03717-2.04888,15.36184,15.36184,0,0,1,4.87212-.77738,17.81571,17.81571,0,0,1,3.88384.42485,10.8818,10.8818,0,0,1,3.3897,1.34081,5.59388,5.59388,0,0,1,2.19049,2.47373,6.65049,6.65049,0,0,1,.42183,3.66991q0,.14461-.28323,4.09776-.28473,3.95465-.63274,10.45232-.357,6.49466-.56646,14.68869-.21242,8.1895-.21091,16.80686,0,6.21445.14161,12.218.1356,6.002.56345,11.65151a26.696,26.696,0,0,1,6.42686,1.41313,21.65667,21.65667,0,0,1,4.30868,2.11818,14.13474,14.13474,0,0,1,2.75394,2.3291q1.05759,1.20222,1.90727,2.04888l.28022.56345a6.97054,6.97054,0,0,1,1.34382,3.25109,3.27844,3.27844,0,0,1-.56645,2.61233,2.37425,2.37425,0,0,1-2.543.49414q-1.76716-.42485-4.73051-3.38969a19.629,19.629,0,0,0-8.33413-3.67293q1.12989,9.88887,3.67292,14.8303h-.28323a6.41212,6.41212,0,0,1,1.27152,3.67292,3.46887,3.46887,0,0,1-1.76566,3.17879q-1.76716,1.05757-6.14364-.07232-4.37947-.98528-6.28525-3.24808a11.12148,11.12148,0,0,1-2.47071-4.80282q-.70958-2.54-1.34081-6.21294-.63726-3.67443-1.34383-8.19252a4.29334,4.29334,0,0,1-1.27151.14161,19.71158,19.71158,0,0,0-9.53333,3.66992,23.254,23.254,0,0,0-5.6495,6.216,22.03583,22.03583,0,0,0-2.75394,6.56847,24.0247,24.0247,0,0,0-.705,4.73051,14.16016,14.16016,0,0,0,2.543,8.12322,23.66552,23.66552,0,0,0,6.42385,6.35455,28.52245,28.52245,0,0,0,8.68667,3.88384,27.14387,27.14387,0,0,0,9.464.84667,47.10621,47.10621,0,0,0,17.15939-4.58889,57.81433,57.81433,0,0,0,14.47777-10.02748A73.15294,73.15294,0,0,0,401.06218,716.003a93.49253,93.49253,0,0,0,8.40644-16.80988,106.97613,106.97613,0,0,0,5.15536-18.28929,100.52641,100.52641,0,0,0,1.76264-18.57253,80.75806,80.75806,0,0,0-2.47071-20.19957,50.83423,50.83423,0,0,0-7.55677-16.80687,36.77982,36.77982,0,0,0-31.49555-15.81859q-1.69485,0-3.60061.14162-1.90727.1401-3.88384.42484h.1386a54.66731,54.66731,0,0,0-12.99233,3.17577,78.11022,78.11022,0,0,0-10.87716,5.08605,57.68494,57.68494,0,0,0-8.1895,5.57718,56.68377,56.68377,0,0,0-5.08606,4.66121,3.86348,3.86348,0,0,1-2.25979.919,8.40393,8.40393,0,0,1-2.89556-.07231,6.2018,6.2018,0,0,1-2.18748-.84667Q322.18017,628.0125,322.88824,627.30142Z"/><path class="cls-1" d="M509.32456,594.25112q8.1895-.56043,12.923,5.6495,4.732,6.219,7.41515,17.09009a153.78583,153.78583,0,0,1,3.74223,25.35493q1.0621,14.47627,1.90727,30.57657.42483,8.89908.98828,18.71414.56494,9.82108,1.41313,19.70242.84967,9.88887,2.04888,19.42221,1.19769,9.53183,2.89556,18.00908a3.1492,3.1492,0,0,1-2.04889,3.60061,13.67266,13.67266,0,0,1-6.002,1.1992,33.57038,33.57038,0,0,1-4.73352-.35253,43.5254,43.5254,0,0,1-4.6582-.916,26.03734,26.03734,0,0,1-3.67292-1.20221,4.03377,4.03377,0,0,1-1.90727-1.34082,25.46731,25.46731,0,0,1-2.3291-7.48746,107.38619,107.38619,0,0,1-1.41313-11.5792q-.49716-6.63929-.70807-14.68869-.2079-8.05392-.21091-16.80988V686.76423a78.42932,78.42932,0,0,0-12.99233,2.82625q-7.76919,2.2598-16.385,5.083-2.1197,13.41867-3.74223,24.71917-1.627,11.299-2.61232,18.3586-.70958,4.09474-1.1299,6.64079a13.98483,13.98483,0,0,1-.56646,2.68163,3.36212,3.36212,0,0,1-1.90727.56645,9.476,9.476,0,0,1-3.17577-.28323,10.15564,10.15564,0,0,1-3.17878-1.41312,5.09574,5.09574,0,0,1-2.04888-2.96486,14.4085,14.4085,0,0,1-.28323-3.81454q0-5.22465,1.0606-15.677,1.05759-10.4493,3.17878-23.72787-4.66422,1.69485-8.96989,3.17577-4.31169,1.48242-7.90929,2.75394-3.60212,1.27452-6.35455,2.11818a22.69344,22.69344,0,0,1-4.30868.9913q-4.94443.84516-7.34585-.70807a4.231,4.231,0,0,1-2.18749-4.09475q.21243-2.54454,3.03717-5.43858a21.80076,21.80076,0,0,1,8.33112-4.87213,47.95858,47.95858,0,0,1,11.22969-4.09475q7.55225-1.97958,16.73757-3.67293,1.83043-10.45381,4.164-21.18786,2.33211-10.72951,5.01675-20.83232,2.68013-10.09677,5.7881-19.06667a135.86935,135.86935,0,0,1,6.42686-15.677,44.89146,44.89146,0,0,1,6.99332-10.66324Q505.51,594.53586,509.32456,594.25112Zm2.11819,7.77069q-3.2496.28475-6.42687,7.55375a136.12857,136.12857,0,0,0-6.28525,18.92807q-3.105,11.65152-6.002,26.12929-2.89706,14.47626-5.297,29.02484,8.05392-1.12991,15.32444-1.838,7.272-.70506,12.35959-.98829l.28323-9.88586q.13558-7.0596.21091-13.7697.0678-6.70707.0693-13.06464,0-8.61435-.21091-16.17413-.21241-7.55225-.70506-13.20625a70.00436,70.00436,0,0,0-1.27151-9.03919Q512.71426,602.302,511.44275,602.02181Z"/><path class="cls-1" d="M628.672,596.23071a112.78082,112.78082,0,0,0-1.97657,19.06666q-.42485,11.86394-.70807,26.69273-.28473,14.54858-.70506,30.7212-.42483,16.17562-1.97958,32.41453a178.615,178.615,0,0,0,15.39676-13.77271,51.809,51.809,0,0,0,10.3107-14.19454,2.91818,2.91818,0,0,1,1.90727-1.05759,8.20944,8.20944,0,0,1,3.03717-.14161,5.1932,5.1932,0,0,1,2.54.98828,1.88222,1.88222,0,0,1,.42484,2.33212,54.54286,54.54286,0,0,1-5.79111,10.73253,105.33617,105.33617,0,0,1-8.40343,10.66323q-4.732,5.297-10.2414,10.52463-5.50488,5.22465-11.299,10.3107a188.7103,188.7103,0,0,1-8.12021,32.41454,76.24842,76.24842,0,0,1-14.19454,25.2103,40.007,40.007,0,0,1-13.20626,10.31071,31.93255,31.93255,0,0,1-13.20626,3.10647q-7.90929,0-13.06464-4.44729-5.15686-4.45179-5.15535-12.07635a25.71436,25.71436,0,0,1,.56645-5.15536,22.47088,22.47088,0,0,1,1.97657-5.58019,54.80173,54.80173,0,0,1,7.55677-11.58222A121.26035,121.26035,0,0,1,574.931,742.62642q5.85739-5.44158,12.49819-10.59393,6.63928-5.15233,13.41717-10.09979l1.27151-7.90929a29.76835,29.76835,0,0,1-8.40343,6.07434,25.059,25.059,0,0,1-11.22969,2.40141,35.33779,35.33779,0,0,1-7.34284-.77737,39.52547,39.52547,0,0,1-8.0509-2.75394q-5.79413-2.54454-8.47575-6.002a45.02163,45.02163,0,0,1-4.378-6.7101v-.42484a33.93017,33.93017,0,0,1-2.82324-8.82526q-1.27-6.002-2.2598-13.842-.98979-7.84149-1.624-17.16241-.63726-9.3194-1.0606-18.85575-.42485-9.53183-.63576-18.71413-.21241-9.17931-.21091-16.94849,0-10.30918.42183-17.15939.42485-6.85172,1.27151-7.27354a12.06572,12.06572,0,0,1,4.02545.14161,38.05669,38.05669,0,0,1,6.35757,1.48243,26.91042,26.91042,0,0,1,5.86041,2.61233q2.54453,1.55474,2.40141,3.53131-.14463,2.54-.42484,5.15535c-.18983,1.74456-.33144,3.459-.42183,5.15535q-.84969,10.59393-1.69636,23.79718-.84516,13.21077-.84667,26.62343,0,10.87866.77737,21.04625a102.28371,102.28371,0,0,0,2.89556,18.22,42.04453,42.04453,0,0,0,5.7911,13.34787,14.62546,14.62546,0,0,0,9.31941,6.42687,10.28677,10.28677,0,0,0,5.64949-.49415,28.565,28.565,0,0,0,5.08606-2.33211,32.23573,32.23573,0,0,0,7.48445-6.28525,33.35332,33.35332,0,0,0,4.80282-7.27353q.70506-5.78961,1.20221-11.08808.49263-5.297.77436-10.23839.1401-7.48445.49414-16.73756.35253-9.24709.84968-18.78645.49265-9.53184.98829-18.57253.49263-9.03467,1.1299-16.24041.63274-7.20423,1.1992-11.72383.56495-4.51959,1.1299-4.94444a7.92146,7.92146,0,0,1,4.45029-1.1299,17.33786,17.33786,0,0,1,5.50788.919,13.24952,13.24952,0,0,1,4.66121,2.61232,5.02039,5.02039,0,0,1,1.90727,3.81454Zm-51.83675,187.4246a24.6455,24.6455,0,0,0,6.07434-6.35455,59.42967,59.42967,0,0,0,5.22465-9.464,124.01474,124.01474,0,0,0,4.5196-11.79313q2.11969-6.43139,3.81454-13.6311-5.79413,5.08453-10.87415,10.09978a132.33774,132.33774,0,0,0-9.1115,9.88587,72.3426,72.3426,0,0,0-6.7794,9.60564,31.77636,31.77636,0,0,0-3.74222,9.39172,10.90821,10.90821,0,0,0-.14162,1.835,4.74475,4.74475,0,0,0,.35253,1.838,3.51688,3.51688,0,0,0,1.0606,1.41312,3.10507,3.10507,0,0,0,1.97657.56345,8.27963,8.27963,0,0,0,3.10647-.77737A27.438,27.438,0,0,0,576.83526,783.65531Z"/><polygon class="cls-1" points="775.59 517.995 775.59 594.56 677.285 594.56 677.285 631.424 923.993 631.424 850.264 574.71 923.993 517.995 775.59 517.995"/><path class="cls-1" d="M719.51633,773.61416a3.17275,3.17275,0,0,1-1.71583-1.82767q-4.16117-11.45379-6.991-21.70438-5.9471,2.65028-12.36693,5.338a3.18041,3.18041,0,0,1-2.45567-5.86769q6.98028-2.92056,13.17336-5.69943c-13.24637-52.86124-.8537-80.23253,12.77577-86.03988,9.09023-3.87362,18.58386.98076,24.18273,12.3682a81.74826,81.74826,0,0,1,3.69257,8.636c8.16637-1.69271,17.08974-.71837,23.26537,2.10739,6.40353,3.00218,9.86184,7.90956,9.73662,13.815-.30808,14.77035-23.067,32.848-66.10741,52.6711q2.84322,10.49141,7.07333,22.20354a3.17988,3.17988,0,0,1-4.2629,3.99982ZM731.9036,663.71282a9.17373,9.17373,0,0,0-7.47564-.04785c-11.80527,5.0299-20.39806,31.7507-9.33136,77.48216,56.22756-26.08131,61.26294-41.9802,61.35841-46.54079.06983-3.33367-1.97384-5.99825-6.07632-7.9224-4.87824-2.31518-12.16953-2.97608-18.78137-1.71778,2.54676,11.70728-1.94618,16.20755-4.54893,17.77892a10.991,10.991,0,0,1-14.08588-2.95964c-2.54065-3.49183-2.99217-9.18395,3.35737-14.696a26.34639,26.34639,0,0,1,7.40234-4.44191,78.00039,78.00039,0,0,0-3.31218-7.66092C738.10415,668.296,735.12086,665.119,731.9036,663.71282Zm13.61766,23.08472a19.54885,19.54885,0,0,0-5.0328,3.09395c-1.56961,1.3632-3.96751,3.9753-2.38384,6.15189a4.62033,4.62033,0,0,0,5.657,1.257C745.6731,696.14762,746.7657,692.80007,745.52126,686.79754Z"/><path class="cls-1" d="M271.83115,709.30993a3.17277,3.17277,0,0,1-2.49606-.23264q-10.7043-5.8243-19.61426-11.62908Q247.02108,703.373,243.992,709.639a3.18041,3.18041,0,1,1-5.7264-2.76917q3.29472-6.81166,6.09357-12.99574c-44.93868-30.8268-53.78533-59.541-47.42154-72.91967,4.2441-8.92327,14.57181-11.57515,26.30922-6.75289a81.74592,81.74592,0,0,1,8.48678,4.02377c4.99662-6.67748,12.327-11.85837,18.82526-13.83216,6.78586-1.99258,12.62729-.607,16.44524,3.90006,9.553,11.26933,4.47773,39.88773-14.6354,83.24806q9.07949,5.97633,20.00657,11.9485a3.17987,3.17987,0,0,1-.5441,5.82021Zm-63.51834-90.53822a9.17372,9.17372,0,0,0-5.6321,4.916c-5.51217,11.58793,5.7503,37.29774,44.33333,64.227,24.84687-56.78385,18.08776-72.03,15.13836-75.50979-2.1559-2.54368-5.45192-3.18614-9.79986-1.91015-5.18812,1.4969-11.08819,5.83152-15.208,11.15384,9.66278,7.08358,9.27785,13.43107,8.36886,16.33232a10.991,10.991,0,0,1-12.51294,7.11323c-4.21631-.933-8.325-4.89818-7.21943-13.23349a26.34668,26.34668,0,0,1,2.60318-8.231,77.9991,77.9991,0,0,0-7.5559-3.54523C215.99382,618.098,211.65449,617.69406,208.31281,618.77171Zm25.49295,8.2737a19.54891,19.54891,0,0,0-1.72091,5.65155c-.2729,2.061-.339,5.60617,2.28913,6.18775a4.62033,4.62033,0,0,0,5.07064-2.80549C240.113,633.94947,238.7141,630.71791,233.80576,627.04541Z"/><path class="cls-1" d="M204.64792,387.51221a2.82557,2.82557,0,0,1-2.22613.16909q-10.26858-3.51227-18.959-7.27576-1.484,5.60528-3.20616,11.5593a2.83236,2.83236,0,0,1-5.44148-1.57463q1.87371-6.47283,3.40595-12.32055c-44.063-20.34209-56.12424-44.22756-52.53835-56.92474,2.39135-8.46866,11.06158-12.34145,22.08728-9.86341a72.802,72.802,0,0,1,8.0525,2.2632c3.38789-6.60958,9.04846-12.25433,14.45818-14.95907,5.6594-2.76424,10.99492-2.42148,15.02086.9643,10.07226,8.46472,9.89687,34.34836-.39766,75.27375q8.86486,3.88873,19.35116,7.49749a2.83189,2.83189,0,0,1,.39282,5.191Zm-69.30511-69.98483a8.16984,8.16984,0,0,0-4.20925,5.15819c-3.10606,10.99766,10.62672,31.88425,48.52705,49.75526,13.3206-53.56768,5.10639-65.94156,1.99661-68.55543-2.27315-1.91069-5.26287-1.98175-8.88915-.21124-4.33085,2.09012-8.86231,6.778-11.68311,12.06672,9.54256,4.77357,10.154,10.40371,9.7899,13.08672a9.78821,9.78821,0,0,1-9.92142,8.11631c-3.84111-.18848-8.04126-3.05506-8.31732-10.53812a23.46326,23.46326,0,0,1,1.05431-7.61543,69.46132,69.46132,0,0,0-7.16368-1.98232C141.98533,315.78707,138.11535,316.08149,135.34281,317.52738Zm23.61813,3.45076a17.40964,17.40964,0,0,0-.66554,5.219c.06866,1.85015.54083,4.97245,2.93513,5.09a4.11471,4.11471,0,0,0,4.032-3.22138C165.53075,326.096,163.81933,323.46817,158.96094,320.97814Z"/><path class="cls-1" d="M904.065,484.19242a2.20766,2.20766,0,0,1-1.17164-1.29225q-2.75657-8.01878-4.60147-15.18437-4.16946,1.772-8.66825,3.56424a2.213,2.213,0,0,1-1.63753-4.11186q4.89151-1.94753,9.23366-3.806c-8.57693-36.936.37544-55.82867,9.92772-59.70421,6.37094-2.58508,12.91708.90685,16.67467,8.89681a56.88152,56.88152,0,0,1,2.46461,6.05277,27.592,27.592,0,0,1,16.16043,1.74721c4.41871,2.166,6.76539,5.62189,6.60692,9.72885-.39279,10.27212-16.44475,22.57393-46.62778,35.845q1.8513,7.33329,4.65271,15.53262a2.2126,2.2126,0,0,1-3.014,2.7312Zm9.94573-76.3095a6.38318,6.38318,0,0,0-5.20028-.12361c-8.27378,3.3567-14.57469,21.84274-7.428,53.79216,39.433-17.46562,43.12828-28.46576,43.2498-31.63744.08885-2.31841-1.30075-4.19687-4.13162-5.58508-3.36586-1.66963-8.43048-2.21751-13.04559-1.422,1.63035,8.17561-1.54979,11.25219-3.37952,12.314a7.64769,7.64769,0,0,1-9.7639-2.22922c-1.72536-2.46-1.97071-6.42549,2.5133-10.18358a18.33243,18.33243,0,0,1,5.20353-3.00084,54.27422,54.27422,0,0,0-2.21174-5.36977C918.2691,411.14635,916.232,408.90009,914.0107,407.88292Zm9.195,16.22473a13.60262,13.60262,0,0,0-3.53873,2.09168c-1.10846.92943-2.80826,2.71771-1.73279,4.25111a3.21489,3.21489,0,0,0,3.92046.94288C923.19837,430.61441,923.99894,428.2987,923.20569,424.10765Z"/><circle class="cls-1" cx="938.87104" cy="358.29125" r="14.14957"/><circle class="cls-1" cx="220.32084" cy="276.58775" r="14.14957"/><circle class="cls-1" cx="823.1694" cy="679.17445" r="14.14957"/><circle class="cls-1" cx="790.42807" cy="730.91457" r="7.61147"/><circle class="cls-1" cx="201.36571" cy="702.44309" r="7.61147"/><circle class="cls-1" cx="165.63016" cy="634.1426" r="7.61147"/><circle class="cls-1" cx="861.73662" cy="489.38358" r="7.61147"/><circle class="cls-1" cx="195.09961" cy="426.22725" r="7.61147"/><circle class="cls-1" cx="125.08906" cy="402.81738" r="7.61147"/><circle class="cls-1" cx="917.59137" cy="320.97814" r="7.61147"/><circle class="cls-1" cx="844.93045" cy="722.80172" r="7.61147"/><circle class="cls-1" cx="953.02062" cy="483.47542" r="7.61147"/></g></svg>