<svg xmlns="http://www.w3.org/2000/svg" viewBox="0 0 1000 1000"><defs><style>.cls-1{fill:#343434;}.cls-2{fill:#ec6a83;}</style></defs><title>Valentines_24</title><g id="Layer_23" data-name="Layer 23"><path class="cls-1" d="M344.92482,749.79992c27.02812-21.00683,51.90749-40.34355,78.40272-60.936-29.8982-24.63443-57.97409-48.48053-86.80523-71.37584C273.964,567.8091,213.63031,515.71716,168.64093,448.91175,121.57266,379.01944,92.46563,304.51524,126.364,219.649,168.73536,113.56985,312.89787,76.719,400.582,149.084c14.73462,12.16045,28.32977,25.70135,42.84416,38.96338,16.48822-14.61663,32.95188-31.98023,52.04651-45.67618,103.0887-73.94107,256.67435-8.60783,277.33046,116.58231,10.951,66.3712-12.3175,123.4357-45.76508,177.30651-42.518,68.48006-101.85749,121.57248-164.18221,171.54647-32.34075,25.93167-64.04452,52.65792-98.36861,80.94751,12.15932,10.34637,21.73524,20.43176,33.18034,27.48448,6.54014,4.03087,16.72209,5.66945,24.21244,3.90932,15.6773-3.6844,30.46021-11.03134,46.01682-15.43762,6.79828-1.92513,14.59562-.32318,21.93943-.32318q.35058,4.26615.70172,8.53257c-22.07119,7.93279-44.14239,15.86559-67.53823,24.27434,4.09348,14.19094,10.85385,16.62553,23.66932,10.83681a483.1087,483.1087,0,0,1,51.97607-19.51336c6.17721-1.97226,13.51307-.31465,20.31987-.31465q.37444,3.98585.74858,7.9717-33.79474,13.41354-67.58892,26.82707-.14227,3.19439-.28483,6.38906c7.66755.74233,15.8778,3.60091,22.89361,1.80187,16.39522-4.20409,32.02255-11.34429,48.35472-15.877,7.861-2.18156,16.61247-1.15354,24.96073-1.57894l1.06153,6.54212c-20.29176,8.25342-40.54518,16.60225-60.8872,24.72985-15.83236,6.32574-24.32233,16.88311-25.87316,34.77719-1.63518,18.86048-6.47255,37.44379-13.0232,56.22532-18.85381-29.9276,13.72662-65.507-9.07384-101.41959-6.97222,29.96111-12.428,53.40565-17.88372,76.85019-22.48368-30.44644,11.58738-64.95327-14.23027-95.14611q-6.89079,36.63088-13.78129,73.26234-3.44.429-6.87979.85849c-1.889-8.48628-5.79425-17.11114-5.222-25.42789,1.00332-14.58141,4.03555-29.15118,7.56362-43.39239,3.17-12.79629.06333-21.30359-10.34169-29.96622-33.12184-27.57508-33.04247-28.44748-68.15589-3.71621-17.59107,12.38992-33.87383,26.63709-51.93419,40.98649,13.53352,9.01818,26.13287,17.41358,42.187,28.11124-56.866,19.3813-110.86346,37.78457-164.86079,56.18812q-1.9957-1.85555-3.99139-3.71053c30.79985-47.69815,61.59957-95.3963,94.98438-147.09805C334.25911,720.43177,339.088,733.72816,344.92482,749.79992Zm98.51373-500.35959c-5.52547-10.43213-9.265-16.89531-12.45964-23.61777-26.0126-54.73668-71.60146-84.84546-129.68248-87.46322-96.23177-4.33671-178.47041,69.63275-158.90579,184.94879C155.58,401.04633,202.086,460.47073,256.99558,512.08274c56.14978,52.77776,117.76951,99.708,176.29482,150.01229,10.24868,8.80888,15.39928,4.85555,23.26506-1.69482q56.05259-46.67879,112.6889-92.65728c68.27929-55.72352,128.83593-117.93237,164.29183-200.3458,19.69653-45.78268,25.00617-94.78261,3.487-139.67841-27.28287-56.92051-76.58524-90.42261-140.77942-89.64194-62.95147.7659-112.90118,28.69738-139.58669,89.58969C453.91768,233.91723,449.56449,239.46058,443.43855,249.44033Z"/><path class="cls-2" d="M329.01154,367.36927q0,4.91673-1.33885,6.50671-2.0107,2.3923-9.38008,2.39068-8.8452,0-11.65825-3.45067-4.156-5.18091-6.96821-6.24252V322.75515H280.54558q-3.98229,2.12323-5.70926,7.43623a39.99187,39.99187,0,0,0-1.727,12.34806,130.878,130.878,0,0,0,1.2622,16.06617q1.25976,9.82854,1.26057,10.89017,0,.79743-2.98753,2.32219a11.995,11.995,0,0,1-5.37823,1.52638,37.03473,37.03473,0,0,1-7.56832-.92953q-6.37216-1.32581-6.373-3.45067,0-1.4579-3.25335-2.98754-3.25579-1.52638-3.51916-2.58963a43.805,43.805,0,0,1-.26581-6.64043q0-10.75317.33267-31.40176.33023-20.64533.53162-31.00713.19815-10.35692.33105-10.35528a53.37059,53.37059,0,0,0-1.19534-10.62272q-1.46278-5.44508-2.78859-11.02388a6.83173,6.83173,0,0,1,1.46115-3.05277q3.71568-5.44509,9.29529-5.44345,11.55061,0,15.80036,7.83413,2.6565,4.91182,2.6565,15.40409v13.4113q0,7.70041,1.58509,11.15109,2.11345,4.52044,7.66127,4.51718,11.35983,0,13.67223-1.2622,2.30914-1.26221,2.31078-6.44147a117.59615,117.59615,0,0,0-1.32744-15.93245q-1.33068-9.42738-2.65649-18.7243a5.51342,5.51342,0,0,1,3.71811-5.50868,25.01074,25.01074,0,0,1,9.42738-1.52639q10.88772,0,14.47456,5.70764,2.65406,4.25137,2.65487,15.66827v30.14282q0,2.12814,1.19534,16.86524,1.72452,22.03962,2.257,27.61843Q328.88027,367.37254,329.01154,367.36927Z"/><path class="cls-2" d="M408.81567,364.18278q0,3.85511-4.18288,7.76891t-7.36937,3.91707a54.73839,54.73839,0,0,1-10.29005-1.39593,62.346,62.346,0,0,0-8.1668-1.39266H353.4451q-3.05766,0-9.69319-4.116-6.64124-4.1144-5.843-6.5067,0-40.76229-1.46116-65.06376a262.65589,262.65589,0,0,0-2.65486-26.69215q-1.727-10.48412-1.727-11.95016,0-4.37856,4.38183-8.62994a19.32521,19.32521,0,0,1,14.075-5.44345q2.52195,0,13.81084,1.32743,15.665,1.85906,25.75936,4.116,13.94293,3.18486,13.94294,6.64042,0,5.84136-3.85021,8.3625-3.32184,2.12814-9.959,2.1265a83.99623,83.99623,0,0,1-10.88853-.92953q-15.40572-2.12323-18.98848-2.1265a18.07646,18.07646,0,0,1-.79744,4.38347,3.13424,3.13424,0,0,0-.3979,1.32743,88.43143,88.43143,0,0,1,1.46115,12.41655q.66291,9.23169.66372,19.84951,22.96914,0,33.79408,2.39069,10.81923,2.39231,10.82167,7.30251,0,5.71415-4.24974,7.96785-3.58357,1.864-11.68434,1.85906-3.32184,0-12.88131-.53162-9.55947-.52838-15.80036-.53163,0,2.26023-.13372,3.58766-.66535,6.3697-.66372,9.29528,0,3.31695.13372,6.77089.12965,3.45393.73058,9.22679.59685,5.77776,12.81282,6.83938,11.284.26907,22.57288.53163Q408.81322,357.8098,408.81567,364.18278Z"/><path class="cls-2" d="M486.75911,365.246q0,4.51555-11.55225,6.04031-11.55062,1.53127-42.7567,1.52965a17.93854,17.93854,0,0,1-12.08387-4.91509q-4.77974-4.24649-5.31136-8.49622l-2.92068-100.78376q0-1.59488,3.635-3.32021a15.30831,15.30831,0,0,1,6.41375-1.7286q12.69051,0,16.919,9.03111,3.04055,6.37461,3.04136,22.57287v36.38209q0,4.91671-.53163,11.95341-.53081,7.04-.53,9.16157,0,5.84136,2.32382,8.36576,2.32137,2.52441,9.36052,2.52114.92708,0,6.24089-.53162,5.31054-.52836,8.89738-.52837,8.4954,0,12.87968,2.257Q486.75993,357.8098,486.75911,365.246Z"/><path class="cls-2" d="M564.70418,365.246q0,4.51555-11.55225,6.04031-11.55062,1.53127-42.75669,1.52965a17.93856,17.93856,0,0,1-12.08388-4.91509q-4.77974-4.24649-5.31136-8.49622l-2.92068-100.78376q0-1.59488,3.635-3.32021a15.30831,15.30831,0,0,1,6.41375-1.7286q12.69051,0,16.919,9.03111,3.04055,6.37461,3.04136,22.57287v36.38209q0,4.91671-.53163,11.95341-.5308,7.04-.53,9.16157,0,5.84136,2.32382,8.36576,2.32137,2.52441,9.36052,2.52114.92708,0,6.24089-.53162,5.31054-.52836,8.89738-.52837,8.49541,0,12.87968,2.257Q564.705,357.8098,564.70418,365.246Z"/><path class="cls-2" d="M646.36574,319.30122q0,22.70985-7.56832,36.91371-9.03111,16.86851-26.42472,16.86524-17.12778,0-29.877-16.06617-10.75563-13.54667-10.75481-25.36146a45.88945,45.88945,0,0,0-1.85906-13.41131q-1.8615-6.11043-1.85906-8.36576.52837-3.05277.79744-4.51719a25.39459,25.39459,0,0,1,1.19371-4.7781q3.3194-3.8502,6.30775-16.9957,2.98673-13.1504,6.70566-18.3264,6.50425-9.02621,20.31591-9.02784,17.25989,0,27.48633,9.69319,8.89658,8.36576,12.6155,23.76659Q646.36329,301.6418,646.36574,319.30122Zm-24.43193-2.39069a10.86292,10.86292,0,0,0-1.19535-4.91182,9.52564,9.52564,0,0,1-1.19534-4.116,14.77824,14.77824,0,0,1,.39791-2.78859q.92952-.79743.92952-3.32021,0-6.63879-3.98229-16.26512-3.98475-9.628-7.43623-9.628-3.05766,0-6.77252,10.75645a189.81438,189.81438,0,0,0-5.17927,20.05173q-1.06405,5.44507-2.12324,10.75318,0,12.485,2.12324,19.25592,1.19616,3.85021,6.5067,12.87969,11.15436-7.17205,12.08388-8.232Q621.93218,334.30577,621.93381,316.91053Z"/><path class="cls-2" d="M452.55571,459.88186q0,2.09388-2.32871,4.3378a7.343,7.343,0,0,1-5.22167,2.25044q-3.37566,0-7.14922-4.65743a13.85692,13.85692,0,0,1-3.05277-8.99849q0-3.37566.28049-8.15377.28131-4.77974.28212-6.78719a30.5292,30.5292,0,0,0-.52347-4.3802,13.20593,13.20593,0,0,0-1.16436-4.13559q-.80478.56262-2.20967,1.40571a4.79753,4.79753,0,0,1-2.12813.84473l-8.27444-5.14339a38.23636,38.23636,0,0,0-1.32417,7.31229q-.362,4.01655-.362,8.917,0,4.33453.32126,8.87455.32045,4.54.72243,8.63647a18.89545,18.89545,0,0,1-1.6063,2.57006q-1.92755,2.57333-3.53384,2.57007-6.5067,0-9.80082-6.024-2.73233-4.98031-2.73151-12.93187.07828,0,.44194-4.69983.362-4.70145.76319-16.79022t.40116-26.47038q0-3.93338,1.20513-5.14013,1.20594-1.20349,4.25789-1.20349a16.84811,16.84811,0,0,1,6.18545,1.04368q5.62121,2.25044,10.76459,8.75714,1.44567-1.84927,4.41771-6.26861,4.25626-6.42354,5.86419-6.42517,7.79091,0,10.68469,3.29412,2.40943,2.72988,2.40862,9.23658,0,2.33361-.561,9.15831-.565,6.82959-.56261,11.24567,0,3.45882.88387,13.0134.64089,6.91276,1.60629,15.82482Q452.47581,459.8835,452.55571,459.88186Z"/><path class="cls-2" d="M501.55819,399.07436l-9.47957,24.33735a10.57665,10.57665,0,0,0,1.76774,3.4572,2.94442,2.94442,0,0,1,.48107,2.00582,4.92057,4.92057,0,0,1-2.57006,4.178q-6.74887,4.41771-9.15831,13.25475a87.5267,87.5267,0,0,1-2.89132,9.641q-3.45639,8.75224-7.552,8.75388-2.57088,0-6.5067-3.61375-4.41771-4.01654-4.41771-7.87327,0-.16145,2.77228-6.06314,2.77146-5.90494,5.34072-11.93058a98.87321,98.87321,0,0,0,4.74059-13.25476l-18.31661-30.68749a20.3319,20.3319,0,0,1,1.60792-2.407q1.12278-1.28667,4.25627-1.2883,8.75469,0,14.05871,9.23984,2.32872,4.33944,4.65906,8.67561,2.48772-2.25045,3.8551-7.23076,2.33116-8.43425,4.98195-8.43425a13.37858,13.37858,0,0,1,6.58661,2.25044Q500.51207,394.898,501.55819,399.07436Z"/><path class="cls-1" d="M395.101,538.931q0,2.66628-6.8198,3.56808-6.81981.90018-25.23916.90018a10.59119,10.59119,0,0,1-7.13291-2.89948q-2.82039-2.50972-3.13594-5.01619l-1.7237-59.49311q0-.94421,2.14607-1.96017a9.05827,9.05827,0,0,1,3.785-1.02085q7.49249,0,9.98835,5.33256,1.79547,3.76215,1.79546,13.32325v21.477q0,2.9011-.3131,7.05463-.31555,4.15842-.31474,5.40758,0,3.45393,1.3731,4.94118,1.36983,1.48725,5.525,1.48724.54792,0,3.68386-.3131t5.25266-.3131q5.01456,0,7.60257,1.33069A6.38519,6.38519,0,0,1,395.101,538.931Z"/><path class="cls-1" d="M445.26625,511.81153q0,13.39991-4.46826,21.79012-5.33012,9.95574-15.59815,9.95411-10.1123,0-17.63659-9.48446-6.3477-7.99393-6.34852-14.9703a27.16429,27.16429,0,0,0-1.09749-7.91894,20.82158,20.82158,0,0,1-1.0975-4.93791q.31311-1.80036.46966-2.66465a14.90892,14.90892,0,0,1,.70611-2.8212q1.95936-2.2749,3.723-10.03239,1.76366-7.75913,3.95784-10.81841,3.84042-5.32767,11.99418-5.3293,10.18812,0,16.22436,5.72068,5.25183,4.94118,7.446,14.031A75.00659,75.00659,0,0,1,445.26625,511.81153Zm-14.42238-1.41223a6.3993,6.3993,0,0,0-.70611-2.89947,5.65047,5.65047,0,0,1-.70449-2.42983,8.709,8.709,0,0,1,.23483-1.64706,2.57921,2.57921,0,0,0,.54793-1.96016,26.08523,26.08523,0,0,0-2.35154-9.60187q-2.35072-5.67991-4.38836-5.68154-1.80523,0-3.9986,6.35015a111.73158,111.73158,0,0,0-3.056,11.836q-.62865,3.21422-1.25405,6.34689a39.84825,39.84825,0,0,0,1.25405,11.36634,43.50655,43.50655,0,0,0,3.84042,7.60257,73.75846,73.75846,0,0,0,7.13291-4.85964Q430.84387,520.66815,430.84387,510.3993Z"/><path class="cls-1" d="M494.334,478.88991a37.23564,37.23564,0,0,0-1.48888,3.44741q-1.80525,4.39324-3.92033,10.89668-3.05521,9.25126-5.72068,19.3603a182.57463,182.57463,0,0,0-4.46826,21.63356q-1.09832,7.446-1.48888,8.15376-.78521,1.33069-4.70309,1.33069-6.585,0-10.11229-8.62342-3.21421-7.8374-3.21422-20.22133l-10.66022-38.17265a13.73973,13.73973,0,0,1,2.47059-3.842q1.76365-2.03519,3.17344-2.03844,6.426,0,9.95574,7.371,1.9569,3.997,4.15353,14.6572,1.88108,9.01153,3.76214,10.89343,1.568-4.858,3.05767-10.58032,3.05766-11.52128,3.056-16.46082,0-.70448,2.27326-2.74292,2.27246-2.04008,3.52732-2.03844a15.72689,15.72689,0,0,1,5.80059,1.01759Q494.33233,474.73638,494.334,478.88991Z"/><path class="cls-1" d="M543.40166,538.30474q0,2.2749-2.469,4.58567-2.46813,2.30915-4.35084,2.31241a32.14375,32.14375,0,0,1-6.07456-.82516,36.92193,36.92193,0,0,0-4.8205-.8219H510.71486q-1.80279,0-5.72068-2.42982-3.92113-2.42656-3.449-3.842,0-24.06012-.86267-38.40748a155.29647,155.29647,0,0,0-1.56715-15.75307q-1.02-6.19361-1.01922-7.05464a7.21187,7.21187,0,0,1,2.58637-5.09773,11.42041,11.42041,0,0,1,8.30869-3.21258q1.48725,0,8.15213.78276,9.24881,1.10076,15.20676,2.42982,8.22879,1.88352,8.23041,3.92033,0,3.449-2.27327,4.93792a11.03327,11.03327,0,0,1-5.87886,1.25568,49.69014,49.69014,0,0,1-6.42843-.54793q-9.09225-1.25732-11.20816-1.25568a10.65688,10.65688,0,0,1-.46965,2.58637,1.84146,1.84146,0,0,0-.23646.78276,52.02485,52.02485,0,0,1,.86267,7.3286q.39138,5.45.39138,11.71859,13.56133,0,19.949,1.41223,6.38683,1.409,6.38929,4.31171a4.86,4.86,0,0,1-2.50973,4.70309q-2.1159,1.09587-6.89645,1.09586-1.96179,0-7.6042-.3131-5.64323-.31311-9.3279-.3131,0,1.33559-.07828,2.11671-.39138,3.76215-.39138,5.48585,0,1.9618.07828,3.99861.07827,2.04008.43051,5.44671.35469,3.4099,7.56506,4.03774,6.66081.15656,13.32488.31311Q543.39922,534.541,543.40166,538.30474Z"/><path class="cls-1" d="M294.88889,449.00977q5.00867-9.58293,10.01735-19.16594-.66791-.76662-1.33581-1.53316c-1.73512,1.13016-4.0288,1.88178-5.09945,3.462-3.06606,4.52568-5.483,9.487-8.47563,14.06784-1.214,1.85858-3.25642,3.17616-4.92186,4.73982q-.77305-.75262-1.5461-1.50542,4.91148-9.549,9.823-19.0982-.92508-.694-1.85017-1.38809c-9.12783,3.98425-8.87712,16.92756-17.30258,21.58275q-.8913-.57916-1.7826-1.1584c2.6971-5.34469,5.02608-10.92034,8.195-15.969,3.15531-5.02725,2.46488-9.38-.30425-14.0896-2.77013-4.71133-5.27148-9.58058-7.89076-14.38057q.73057-.77924,1.46105-1.55837c1.56374,1.21966,3.57831,2.144,4.60694,3.71421,3.12245,4.767,5.70281,9.89012,8.84711,14.641,1.00048,1.51181,3.10556,2.2925,4.70519,3.40778q.81656-.71731,1.63326-1.43473-5.09391-9.69035-10.18772-19.38077.56289-.66689,1.12562-1.33379c1.83513,1.4333,4.15822,2.53363,5.4089,4.3659,3.081,4.5139,5.50312,9.47552,8.5443,14.02,1.09217,1.63216,3.19851,2.58574,4.8421,3.849q.80268-.80382,1.60543-1.60754-5.028-9.58494-10.0561-19.16989.54675-.69149,1.09351-1.38305c1.778,1.36826,4.60325,2.39949,5.16938,4.15789,4.80369,14.9214,15.30406,17.78667,29.68328,16.69535,16.42212-1.24623,33.01594-.49327,49.52446-.12616,3.57444.07943,7.10308,2.21468,10.65282,3.403q-.27382,1.17054-.54747,2.34108c-1.92523.1238-3.85028.35274-5.77568.35526-22.02214.0295-44.04478.107-66.066-.0353-4.883-.03152-8.82921.26533-10.89269,5.8135-1.40566,3.77935-3.965,7.17915-6.3071,10.54054-1.25715,1.80445-3.14464,3.16977-4.74763,4.73318Q295.81339,449.79589,294.88889,449.00977Z"/><path class="cls-1" d="M618.27872,427.33864c-15.64074,5.49052-31.28149,10.981-48.57911,17.05322,1.79471-5.69928,3.08917-9.81,4.62435-14.685H508.78719c.59681-5.79366,4.17067-6.32667,8.33141-6.31256,15.80741.05354,31.61516.01732,47.42273.01488,2.94176-.00042,5.88351,0,9.81112,0-1.72579-5.06726-3.1438-9.23078-4.969-14.59,16.99429,5.8651,33.03148,11.3999,49.06859,16.93462Q618.36542,426.54626,618.27872,427.33864Z"/><path class="cls-2" d="M420.61121,584.34719c-1.07229-.31153-2.50446-.69611-3.9166-1.1439-3.91967-1.243-7.2636-.79307-9.86361,2.824-3.03369,4.2204-3.835,9.07941-1.07426,12.6227,1.9376,2.48676,4.44482,5.19265,7.26907,6.20239,8.79435,3.14422,17.86076,5.52748,26.34149,8.06233,1.09116-7.38454,2.18979-14.3982,3.13823-21.4321.41748-3.09623,1.086-6.31827.62842-9.32939a22.50042,22.50042,0,0,0-3.44633-9.26969c-4.31022-6.1776-12.39461-5.56183-15.882,1.14691C422.25332,577.01656,421.747,580.54642,420.61121,584.34719Z"/><path class="cls-2" d="M469.42742,596.26806c-.13155-.94493-.3318-2.196-.47577-3.45354-.39956-3.49053-1.91816-5.94092-5.64661-6.7052-4.35038-.89176-8.41915.18024-10.218,3.57039-1.26246,2.37932-2.49689,5.27932-2.298,7.83422.61936,7.95562,1.9271,15.85765,2.91212,23.35592,6.13932-1.728,11.99206-3.32056,17.80812-5.03736,2.56016-.75572,5.30608-1.35961,7.49427-2.768a19.22432,19.22432,0,0,0,6.02475-5.9245c3.31193-5.51833.00855-11.60729-6.44061-11.98385C475.71711,594.98854,472.7878,595.82642,469.42742,596.26806Z"/><path class="cls-2" d="M568.19443,186.44025C597,168.9064,687.5916,185.83961,695.10611,255.85786,675.06742,219.00311,639.99972,183.93541,568.19443,186.44025Z"/><path class="cls-2" d="M189.47551,274.56478c-5.40714-31.28167,40.70787-104.7688,104.62107-87.16875C254.90089,192.217,212.07991,210.81667,189.47551,274.56478Z"/><path class="cls-2" d="M573.27919,209.52839c22.4545-13.668,93.0723-.4682,98.93,54.11232C656.58866,234.91175,629.25274,207.57583,573.27919,209.52839Z"/></g></svg>