<svg xmlns="http://www.w3.org/2000/svg" viewBox="0 0 1000 1000"><defs><style>.cls-1{fill:#3d3d3d;}.cls-2{fill:#b94731;}</style></defs><title>Valentines_14</title><g id="Layer_14" data-name="Layer 14"><path class="cls-1" d="M395.51309,441.19544a14.08869,14.08869,0,0,0,5.2773-1.02443,3.36091,3.36091,0,0,0,1.58767-.94757,5.49993,5.49993,0,0,0,.4612-1.66593v-.102q.36058-2.35634.76868-4.1774a40.89578,40.89578,0,0,1,1.46188-4.71408q1.04819-2.89511,3.153-7.2521,2.10059-4.3542,5.32762-10.24994l.10342-.204a6.94284,6.94284,0,0,1,.819-1.2816,1.94565,1.94565,0,0,1,1.07615-.35918,105.77287,105.77287,0,0,1,11.6587-1.17817q7.25351-.41088,16.06672-.41089c.68482,0,1.02583.17191,1.02583.51292a.76047.76047,0,0,1-.10342.30747.79763.79763,0,0,0-.10063.30747q-8.15076,15.32458-8.15075,24.90648,0,10.40226,9.12347,10.40367a24.54672,24.54672,0,0,0,9.73562-2.45977q2.71692-1.12785,2.71692-1.84482,0-.66665-1.3333-.66665a3.341,3.341,0,0,0-2.09918.56323,2.14283,2.14283,0,0,1-1.17957.41089q-1.22849,0-1.22988-2.97267a35.09116,35.09116,0,0,1,.84694-6.66232q.84274-4.15085,2.20261-8.55885,1.35845-4.40661,2.97127-8.43027a52.83153,52.83153,0,0,1,2.99924-6.43172q0-.20334,1.051-.64009a11.40322,11.40322,0,0,1,3.04955-.6401,16.782,16.782,0,0,0,5.431-2.204,27.093,27.093,0,0,1,4.50863-2.204,14.16532,14.16532,0,0,1,4.76858-.717q1.32911,0,1.33051-.66665c0-.20405-.204-.443-.61494-.717a8.4773,8.4773,0,0,0-3.04955-1.1027,24.56581,24.56581,0,0,0-4.63721-.38434,53.84424,53.84424,0,0,0-6.6106.4612q-1.22848,0-1.22988-.76867a.77352.77352,0,0,1,.10342-.30747,2.84151,2.84151,0,0,0,.10063-.61494,58.86846,58.86846,0,0,1,5.86988-12.0682,79.852,79.852,0,0,1,6.278-8.43028,38.89255,38.89255,0,0,1,5.48135-5.38072,6.74293,6.74293,0,0,1,3.68964-1.64078,2.14994,2.14994,0,0,1,1.76936.79523,8.05388,8.05388,0,0,1,1.15161,2.07543c.20684.40949.341.68342.41089.819a1.50612,1.50612,0,0,0,1.17957.61633q1.22848,0,1.22988-1.7945a3.91617,3.91617,0,0,0-.71836-2.12714,5.891,5.891,0,0,0-2.306-1.92169,9.431,9.431,0,0,0-4.8161-1.28019,16.13656,16.13656,0,0,0-8.25138,2.6135,46.58445,46.58445,0,0,0-8.91663,7.20039,99.39582,99.39582,0,0,0-8.86632,10.30025q-4.306,5.71474-8.50854,12.5294v.10342a.98915.98915,0,0,1-.4612.51292,10.436,10.436,0,0,1-1.43393.30747q-4.91812.56393-12.50565,1.17817-4.71267.4109-8.17311.717-3.459.30816-6.94324.71836-.82178,0-.82178-1.02584a35.22992,35.22992,0,0,0,4.45832-7.66159,20.19413,20.19413,0,0,0,1.84761-7.96907,8.26476,8.26476,0,0,0-3.0775-6.91808.69978.69978,0,0,0-.51151-.20544q-1.02723,0-1.02584,1.3333a1.29739,1.29739,0,0,0,.30747.8707v.102l.10343.20545a10.00118,10.00118,0,0,1-1.64078,3.81822q-1.63936,2.79448-4.20116,6.45687-2.56178,3.66449-5.40588,7.0215a61.12075,61.12075,0,0,1-5.25494,5.55962,3.411,3.411,0,0,0-.51152.41089,1.87138,1.87138,0,0,1-.71836.56323c-.204.06848-.52829.17191-.97273.30747a33.25405,33.25405,0,0,1-6.50718.82039,6.38939,6.38939,0,0,1-2.87066-.41089c-.44443-.27253-.66525-.51152-.66525-.717a7.44781,7.44781,0,0,0,1.9706,3.86993,5.45486,5.45486,0,0,0,3.153,1.46049c.9895.06848,1.487.239,1.487.51151a5.64794,5.64794,0,0,1-1.283,2.102q-.81759,1.17818-2.12714,3.38217-1.30395,2.20331-2.63865,4.76579-1.3333,2.56387-2.38149,5.07326a29.0934,29.0934,0,0,0-1.46188,4.20255,18.7971,18.7971,0,0,0-.61494,4.408q0,3.48419,1.94824,4.99639A7.7076,7.7076,0,0,0,395.51309,441.19544Z"/><path class="cls-1" d="M477.66351,409.4226a55.12011,55.12011,0,0,0-6.30593,10.99206,23.836,23.836,0,0,0-1.99856,8.73774,11.517,11.517,0,0,0,2.79518,8.02077,15.498,15.498,0,0,0,7.097,4.43316,14.23516,14.23516,0,0,0,4.71548.76868,21.91916,21.91916,0,0,0,9.12068-2.15229,52.46132,52.46132,0,0,0,9.2241-5.4576,93.73544,93.73544,0,0,0,8.25138-6.76574q3.74-3.459,8.66227-8.22482a81.30866,81.30866,0,0,1,7.329-6.81605,3.49075,3.49075,0,0,1,1.2802-.61494c.137,0,.20405.102.20405.30747a2.89557,2.89557,0,0,1-.4081,1.07614,47.70616,47.70616,0,0,0-4.1788,9.737,31.72157,31.72157,0,0,0-1.51219,9.02006,11.62139,11.62139,0,0,0,1.51219,6.40516,5.11345,5.11345,0,0,0,4.5869,2.306q3.9999,0,9.73841-3.89369,1.17817-.81968,1.17677-1.3333c0-.341-.29069-.51152-.8693-.51152a1.96889,1.96889,0,0,0-1.02583.30747,3.41889,3.41889,0,0,1-1.58766.51152q-.92241,0-.92241-1.48564a19.63384,19.63384,0,0,1,1.51219-6.07253q1.5094-4.07538,3.76511-8.918t4.89437-9.76218q2.63725-4.92023,4.74063-8.50714a8.68647,8.68647,0,0,0,1.3333-4.30458,5.19368,5.19368,0,0,0-2.45976-4.56174,10.394,10.394,0,0,0-4.86921-1.84482q-1.48844,0-4.69032,2.74207-3.20328,2.74208-9.71046,9.14724-5.43384,5.22839-9.58468,9.17379-4.15086,3.9475-9.199,8.1228-5.0481,4.1781-10.32541,7.76362a61.57591,61.57591,0,0,1-10.454,5.79162,9.79285,9.79285,0,0,1-3.22844.82039q-2.20539,0-2.2054-2.6149a9.58543,9.58543,0,0,1,.30747-2.306,43.143,43.143,0,0,1,6.04878-13.709,73.75537,73.75537,0,0,1,11.11924-13.375A105.2353,105.2353,0,0,1,515.432,391.15328a74.76073,74.76073,0,0,1,14.19673-7.66159q7.32479-2.81964,11.32329-2.81894,4.61625,0,5.02294,3.84337a2.44205,2.44205,0,0,0,1.35846,1.79311,5.51253,5.51253,0,0,0,2.63866.61494,4.90046,4.90046,0,0,0,2.58833-.66525,2.2291,2.2291,0,0,0,1.10131-2.05027,3.02052,3.02052,0,0,0-.35779-1.3319,10.94545,10.94545,0,0,0-5.431-6.20111,20.44777,20.44777,0,0,0-9.43094-1.99856,49.52878,49.52878,0,0,0-15.298,2.76723,95.0901,95.0901,0,0,0-17.08975,7.6616,102.46,102.46,0,0,0-16.117,11.24781A74.11369,74.11369,0,0,0,477.66351,409.4226Z"/><path class="cls-1" d="M560.73634,384.00321a9.336,9.336,0,0,0,5.27731,1.28159,31.94687,31.94687,0,0,0,7.38208-.99928q4.15085-1,11.68386-3.3053,10.50289-3.17812,17.96185-4.84266a67.67817,67.67817,0,0,1,14.78372-1.66593,45.87327,45.87327,0,0,1,8.30449.717q7.01869,1.283,7.0187,5.227,0,3.17812-4.02227,7.53442a76.99934,76.99934,0,0,1-10.12135,8.96834q-6.1005,4.61205-11.91587,8.40372-5.81538,3.79446-13.04232,8.30309-2.86787,1.7421-3.68964,2.306-1.99577,1.12786-1.99856,2.51147,0,1.22848,1.69109,1.22989a6.0178,6.0178,0,0,0,1.7945-.30747,13.16338,13.16338,0,0,1,4.04743-.71837,19.38665,19.38665,0,0,1,4.204.61494,26.32687,26.32687,0,0,0,5.17668.66665,25.67859,25.67859,0,0,0,8.24859-1.58906,100.9535,100.9535,0,0,0,15.1443-6.68747,48.86135,48.86135,0,0,0,10.12135-7.22555,26.10975,26.10975,0,0,0,5.61273-7.45755,16.99753,16.99753,0,0,0,1.76656-7.27726,16.0619,16.0619,0,0,0-4.76579-11.40155,23.52117,23.52117,0,0,0-11.78729-6.68887,58.77067,58.77067,0,0,0-12.91374-1.22988q-5.22839,0-11.22266.56463-5.99567.56393-11.91586,1.51079-5.9202.94966-10.5043,1.84622-4.5869.89726-11.40435,2.27947-5.22839,1.12786-7.58333,1.56391a21.302,21.302,0,0,1-3.43528.43465c-.478,0-.71556-.08386-.71556-.25576q0-.40879,1.89513-1.43533c.137-.06708.204-.13556.204-.204a5.66612,5.66612,0,0,0-2.51008,1.04959,2.97937,2.97937,0,0,0-1.69108,2.48631Q557.81538,382.006,560.73634,384.00321Z"/><path class="cls-1" d="M588.87265,409.4226q5.27451-8.09625,7.89081-13.14575a19.6332,19.6332,0,0,0,2.61349-8.686,6.364,6.364,0,0,0-3.68964-5.89364,1.11124,1.11124,0,0,0-.61494-.20544.54378.54378,0,0,0-.61494.61633.83546.83546,0,0,0,.61494.8707.65762.65762,0,0,1,.41089.61494q0,1.02513-1.94824,3.459-1.94964,2.43392-6.35625,7.2521-4.81749,5.329-8.12,9.22411-3.3081,3.89508-6.51,8.50714a56.30813,56.30813,0,0,0-5.25215,9.2241,21.30784,21.30784,0,0,0-2.05167,8.61056,11.97535,11.97535,0,0,0,2.43461,7.35413,18.72531,18.72531,0,0,0,7.765,5.55961l.30747.10343h.204q1.38363,0,1.38362-1.2816,0-.71906-1.38362-.71836-1.63936,0-1.638-1.89513,0-3.33116,3.86853-11.1975A183.55117,183.55117,0,0,1,588.87265,409.4226Z"/><path class="cls-1" d="M675.53171,409.4226q5.27451-8.09625,7.8908-13.14575a19.6331,19.6331,0,0,0,2.6135-8.686,6.364,6.364,0,0,0-3.68965-5.89364,1.11122,1.11122,0,0,0-.61494-.20544.54378.54378,0,0,0-.61494.61633.83546.83546,0,0,0,.61494.8707.65763.65763,0,0,1,.4109.61494q0,1.02513-1.94825,3.459-1.94964,2.43392-6.35624,7.2521-4.81751,5.329-8.12,9.22411-3.3081,3.89508-6.51,8.50714a56.30886,56.30886,0,0,0-5.25215,9.2241,21.308,21.308,0,0,0-2.05166,8.61056,11.97541,11.97541,0,0,0,2.4346,7.35413,18.72531,18.72531,0,0,0,7.765,5.55961l.30747.10343h.20405q1.38361,0,1.38361-1.2816,0-.71906-1.38361-.71836-1.63938,0-1.638-1.89513,0-3.33116,3.86853-11.1975A183.55149,183.55149,0,0,1,675.53171,409.4226Z"/><path class="cls-1" d="M647.3954,384.00321a9.336,9.336,0,0,0,5.2773,1.28159,31.94687,31.94687,0,0,0,7.38208-.99928q4.15084-1,11.68387-3.3053,10.5029-3.17812,17.96184-4.84266a67.67824,67.67824,0,0,1,14.78372-1.66593,45.87319,45.87319,0,0,1,8.30449.717q7.01871,1.283,7.0187,5.227,0,3.17812-4.02226,7.53442a77.00013,77.00013,0,0,1-10.12136,8.96834q-6.10048,4.61205-11.91586,8.40372-5.81538,3.79446-13.04233,8.30309-2.86785,1.7421-3.68964,2.306-1.99577,1.12786-1.99856,2.51147,0,1.22848,1.69109,1.22989a6.01781,6.01781,0,0,0,1.79451-.30747,13.16327,13.16327,0,0,1,4.04742-.71837,19.38672,19.38672,0,0,1,4.204.61494,26.3267,26.3267,0,0,0,5.17668.66665,25.67859,25.67859,0,0,0,8.24858-1.58906,100.9535,100.9535,0,0,0,15.1443-6.68747,48.86144,48.86144,0,0,0,10.12136-7.22555,26.10993,26.10993,0,0,0,5.61273-7.45755,16.99751,16.99751,0,0,0,1.76655-7.27726c0-.27323-.06324-.52759-.07617-.797.09731.08647.17348.17208.28022.2589a5.74551,5.74551,0,0,0,3.63933,1.46188h.56462a3.0331,3.0331,0,0,1,.51152-.10342,56.64571,56.64571,0,0,0,9.73842-4.71408q5.58477-3.17811,9.58189-4.99778a42.90529,42.90529,0,0,1,8.30169-2.79239,13.328,13.328,0,0,1,2.51287-.30747q1.89513,0,1.89513,1.28159,0,1.58907-2.48491,4.8175-2.48633,3.22844-7.91876,9.42955-4.91812,5.79023-7.91875,9.403-2.99784,3.61417-5.89225,7.81533a53.81738,53.81738,0,0,0-4.71547,8.19967,17.69437,17.69437,0,0,0-1.81966,7.22695,8.18488,8.18488,0,0,0,2.921,6.50718,39.80322,39.80322,0,0,0,5.76647,3.99851,19.65516,19.65516,0,0,0,5.86708,1.99856h.4109a1.25163,1.25163,0,0,0,.4612.102q3.12361,0,7.37928-2.99783a68.29412,68.29412,0,0,0,9.02006-7.81533q4.76718-4.81751,8.7629-9.53158,3.9999-4.71477,9.32752-11.32608,3.68964-4.66236,5.431-6.63716,1.7442-1.97269,2.66661-2.8441a4.58194,4.58194,0,0,1,2.61349-1.3319q1.38362,0,1.38362,2.61349,0,3.8951-2.89581,11.01862a67.16818,67.16818,0,0,1-7.71191,13.83615,20.93591,20.93591,0,0,1-2.35913,2.94752,15.695,15.695,0,0,1-2.86786,2.07542,92.16858,92.16858,0,0,0-7.58613,5.86709,78.07668,78.07668,0,0,0-7.50786,7.329,42.30717,42.30717,0,0,0-5.71335,7.96907,16.03774,16.03774,0,0,0-2.20261,7.635,12.19971,12.19971,0,0,0,2.35634,6.12425q2.15089,3.10055,4.45832,3.10125a2.54,2.54,0,0,0,1.487-.51291,35.72588,35.72588,0,0,0,5.86708-5.27871,95.72286,95.72286,0,0,0,7.25071-8.86492q3.79446-5.17807,7.40723-11.22406a110.01152,110.01152,0,0,0,6.3283-12.24849q.41088-1.22848,2.97128-3.22843l.20684-.102q2.81754-2.10057,6.53234-4.56174,3.71479-2.45905,6.48483-3.9454,1.22847-.61633,1.22988-1.487a.27252.27252,0,0,0-.30747-.30747,1.99328,1.99328,0,0,0-1.02584.41089q-1.17816.76728-4.10053,2.306-4.40661,2.45907-6.50718,3.68964a.7851.7851,0,0,0-.30747.102l-.36058.10342a.54447.54447,0,0,1-.61494-.61494v-.20545a.76037.76037,0,0,0,.10342-.30747q2.86785-7.58472,4.32974-12.73485a33.2863,33.2863,0,0,0,1.46188-8.89148q0-5.38141-3.589-7.02149a3.74194,3.74194,0,0,0-1.69108-.35779,10.8479,10.8479,0,0,0-5.17389,1.69109,46.52651,46.52651,0,0,0-6.43171,4.53518q-3.459,2.8448-6.99634,6.1494-3.53451,3.306-8.35481,8.02078-6.40656,6.20112-10.17167,9.60844a32.9635,32.9635,0,0,1-6.53513,4.84266,9.317,9.317,0,0,1-3.43249,1.38361c-.41089,0-.61494-.23759-.61494-.717a10.161,10.161,0,0,1,1.3333-3.58762,58.09646,58.09646,0,0,1,4.15085-7.30241q2.46115-3.71481,6.25282-8.94319,6.0963-8.71049,9.14584-14.17018a20.7743,20.7743,0,0,0,3.04955-9.96762,9.32377,9.32377,0,0,0-3.38217-7.27726q-2.20541-1.89513-6.61061-1.89514a32.9388,32.9388,0,0,0-7.329.94757,66.7505,66.7505,0,0,0-8.55885,2.63865q-4.45692,1.69179-8.70979,3.68964-4.25566,2-7.84328,4.10054a3.31332,3.31332,0,0,1-1.33051.51291c-.37735,0-.56463-.29069-.56463-.87209,0-.4095-.10342-.61494-.30747-.61494a4.26,4.26,0,0,0-1.707.972,16.88976,16.88976,0,0,0-3.98122-6.68538A23.52118,23.52118,0,0,0,716.2715,371.601a58.77077,58.77077,0,0,0-12.91375-1.22988q-5.22839,0-11.22266.56463-5.99567.56393-11.91586,1.51079-5.9202.94966-10.5043,1.84622-4.58689.89726-11.40434,2.27947-5.2284,1.12786-7.58333,1.56391a21.302,21.302,0,0,1-3.43528.43465c-.478,0-.71557-.08386-.71557-.25576q0-.40879,1.89513-1.43533c.137-.06708.20405-.13556.20405-.204a5.6661,5.6661,0,0,0-2.51007,1.04959,2.97937,2.97937,0,0,0-1.69109,2.48631Q644.47443,382.006,647.3954,384.00321Z"/><path class="cls-1" d="M340.65815,543.93606a3.09193,3.09193,0,0,0,.13591-4.55143,39.0422,39.0422,0,0,1-5.51961-6.76312c6.59034-13.65325,11.00219-27.21251,12.16481-36.96717,1.27443-10.6942-2.65193-14.43729-5.03919-15.838-2.91345-1.7096-6.76242-1.41628-10.23386.99316-4.14369,2.87607-7.41754,8.20579-9.154,14.99424-2.02,7.89674-1.72515,17.30952.64918,27.14821a35.61612,35.61612,0,0,0,3.14039,8.79207c-32.08049,40.7625-82.39955,68.61231-135.3756,62.54973-2.5838-.1319-3.653-3.43371-3.653-3.43371-3.88583-31.80236,41.91638-59.88993,63.65609-72.03483,26.78624-14.96418,54.15719-34.70289,72.81364-61.55674,4.14037-5.92072,6.18924-11.39543,6.48622-16.28421.35377-5.82394-1.91033-8.83575-2.73019-9.90071-3.27962-4.25811-9.69457-5.74829-19.512-5.25407-7.08719.35691-16.32334,1.92571-27.29391,4.7139-18.0616,4.49046-35.51367,10.27422-36.37966,10.68878-38.19617,10.93371-80.11238,23.827-119.1223,14.65986a70.87135,70.87135,0,0,1-11.537-3.98209c-18.36749-9.35006-9.65927-28.85048-7.53336-31.378,2.67079-3.17515-.02149-5.10034-.02149-5.10034a9.87249,9.87249,0,0,0-8.42084-3.32137A7.80517,7.80517,0,0,0,93.52,414.91863c-9.84953,13.90149.871,29.09348,3.15454,32.0749a49.62646,49.62646,0,0,0,9.79694,8.14865c12.88474,7.568,30.193,10.90069,52.45685,10.091,30.25069-1.10008,59.22381-9.73108,88.13892-18.01093,0,0,6.32044-2.11211,8.39953-2.69945,6.87528-2.031,16.98266-5.21057,27.43856-7.7631,10.52736-2.57,19.36957-4.19627,25.99293-4.56663,7.40811-.41438,12.29374.6235,13.90726,2.94543a.67826.67826,0,0,1,.35342.23951c.16509.21331,6.64013,8.23076-12.35646,28.02223-17.85807,18.60526-43.59682,31.02618-66.79247,41.64386-10.48909,4.835-20.83075,9.30149-29.844,14.01138a94.27762,94.27762,0,0,0-28.47715,22.57249c-7.65024,9.14619-12.38685,19.0518-13.45339,28.24585-1.21974,10.516,2.27319,19.81855,10.13394,27.21285,0,0,2.93477,2.73736,10.90575,4.317a124.47525,124.47525,0,0,0,57.26893-1.85373,135.42521,135.42521,0,0,0,46.38379-23.427,153.3734,153.3734,0,0,0,34.6849-37.10274,36.57839,36.57839,0,0,0,4.14071,4.7015A3.81316,3.81316,0,0,0,340.65815,543.93606Zm-9.30988-19.04114a14.01889,14.01889,0,0,1-1.01972-3.17672c-4.98713-19.872.9266-32.25833,5.73205-35.64907a4.59919,4.59919,0,0,1,2.49-.82894s1.56425.19549,2.15037,3.50551a21.611,21.611,0,0,1,.04682,6.09769C339.75443,502.90662,336.449,513.54211,331.34827,524.89492Z"/><path class="cls-1" d="M690.25691,501.279c-3.55775.29821-6.58318,2.245-6.41792,4.31681.16527,2.07158,3.47564,3.51442,7.0491,3.215,3.77018-.316,6.59821-2.27336,6.41635-4.34354S694.01049,500.96431,690.25691,501.279Z"/><path class="cls-1" d="M845.93217,514.33123a3.39818,3.39818,0,0,0-2.70853,2.19509c-6.18382,14.29719-11.791,24.59953-16.656,32.07333a69.91469,69.91469,0,0,1-13.28009,15.63869c-5.59963,4.66691-12.51246,7.96208-19.31524,5.85836,0,0-12.81294-5.22542.71539-33.30006a3.94206,3.94206,0,0,0,.65006-1.23775c2.24488,2.73264,7.23987,2.95958,7.23987,2.95958,10.39459.38084,17.28716-6.06607,21.10363-11.84389a37.16524,37.16524,0,0,0,5.995-17.43862c-.18833-3.60806-1.05012-6.33633-2.805-8.34642a8.66724,8.66724,0,0,0-4.737-2.86279,15.97755,15.97755,0,0,0-4.30144-.26537c-14.47485.77794-31.91225,18.172-40.47686,37.22415a49.52608,49.52608,0,0,0-2.02878,5.12794c-19.69311,36.41582-31.4956,36.05943-31.4956,36.05943-4.813-1.93828,1.79818-18.2342,9.64862-35.14418,0,0,17.61612-33.122-2.08066-34.57275-6.50649-.55362-11.50375,3.05619-16.35182,8.52846-10.74992,12.38964-21.98586,35.29774-26.78571,50.721A109.61044,109.61044,0,0,1,715.4443,543.59c3.675-8.51448,9.29241-19.51737,15.15688-30.59607,1.19249-2.02634-.68168-4.48505-3.0644-4.234-2.13691.30118-3.20555.45-5.34351.74422a9.3979,9.3979,0,0,0-7.54542,4.93035,247.56647,247.56647,0,0,0-11.2562,24.03823c-24.88167,45.72866-38.765,44.66912-38.765,44.66912-8.13835-3.63234,19.47229-50.05387,28.56782-65.99375a3.212,3.212,0,0,0-3.20136-4.66114c-2.3069.19165-3.46061.28563-5.768.46942a8.55227,8.55227,0,0,0-6.13788,3.5097A222.76555,222.76555,0,0,0,662.315,543.49389c-27.35139,47.20226-44.29212,42.086-44.29212,42.086-3.5967-1.75013.01991-11.14579,5.6433-23.30134,11.81576-25.85893,25.79884-51.00632,39.95906-75.64306,7.2065-.49475,10.80862-.76151,18.01128-1.33383a2.96264,2.96264,0,0,0,2.70626-3.0609,2.8397,2.8397,0,0,0-3.15523-2.58991c-5.6178.44636-8.42731.65774-14.04737,1.05675,7.6754-13.42543,12.74079-22.37,12.74079-22.37a3.03328,3.03328,0,0,0-2.8869-4.69992c-2.14984.16806-3.22476.25034-5.375.41141a8.23158,8.23158,0,0,0-6.12494,3.47773s-6.42229,9.75065-15.33542,24.29992c-4.68456.28494-7.02727.41911-11.71287.671-2.14932.11565-9.62172-.05206-19.16989-4.37358,0,0-8.22517-4.38634-11.12727-.32162-3.537,4.95428,3.35265,11.48453,19.23488,10.92846l.39132-.01834c7.60412-.35918,11.4054-.56026,19.00672-1.00557-11.37971,18.34653-22.62019,38.45892-30.88677,58.86166-26.04569,41.81227-39.32071,40.15071-39.32071,40.15071-4.59965-2.38325,3.49992-17.984,12.88614-34.07887,0,0,20.60906-31.31444,1.18027-34.61485-6.4111-1.16437-11.71461,1.95872-17.04555,6.94987-11.84144,11.32189-25.16381,33.07086-31.38746,47.97373a109.975,109.975,0,0,1,9.21991-21.341c4.45238-8.13084,11.06893-18.55582,17.93652-29.033,1.37523-1.90509-.25576-4.52924-2.647-4.50374-2.15159.09853-3.22757.146-5.37951.23777a9.37594,9.37594,0,0,0-7.96173,4.19784c-4.21041,6.38088-8.83522,14.01627-12.723,21.46718a210.82851,210.82851,0,0,1-20.4071,26.49344,69.69186,69.69186,0,0,1-15.73252,13.09613c-6.30121,3.6243-13.65534,5.6702-19.96826,2.41818,0,0-11.66989-7.36915,6.46753-32.67079a3.93818,3.93818,0,0,0,.85218-1.1062c1.73022,3.08064,6.59244,4.17076,6.59244,4.17076,10.13359,2.17885,18.009-2.97372,22.75139-8.00121a37.21689,37.21689,0,0,0,8.89515-16.13292c.43954-3.58587.06656-6.42228-1.3064-8.70647a8.64128,8.64128,0,0,0-4.14963-3.642,15.84756,15.84756,0,0,0-4.17216-1.008c-14.33037-1.74682-34.45412,12.358-46.16279,29.63575a49.80942,49.80942,0,0,0-2.97512,4.87165c-28.34071,35.57831-42.67738,29.50962-42.67738,29.50962-3.3923-2.12294,1.40493-11.06787,8.08769-22.56918,20.10732-33.85857,43.73622-65.70444,67.091-97.36774a3.13757,3.13757,0,0,0-2.36787-4.98015c-2.23-.06341-3.345-.09713-5.57465-.16823a8.52211,8.52211,0,0,0-6.45285,2.80671c-20.65466,25.46674-42.0834,52.21192-57.68419,81.358-31.40231,40.80443-44.844,37.60744-44.844,37.60744-7.47257-4.85541,27.01631-46.41034,38.66716-60.7271a3.2118,3.2118,0,0,0-2.43076-5.10225c-2.30707-.16946-3.46079-.25629-5.76734-.43361a8.42814,8.42814,0,0,0-6.60327,2.51218c-1.25713,1.22236-2.63358,2.81946-4.41621,4.94625-.308-1.163-.62787-2.13779-.947-3.11244a10.4506,10.4506,0,0,0-4.07555-3.94837,15.84669,15.84669,0,0,0-4.09058-1.3064c-18.31474-3.52263-48.87255,19.04131-56.84092,41.95412-8.61562,24.77406,6.78286,25.708,6.78286,25.708a28.12467,28.12467,0,0,0,4.58935.13452c6.36812-.813,14.13838-4.92651,22.97535-12.59667.91245-.85917,2.02983-1.699,2.94263-2.55951-5.46214,17.882,7.71505,19.51666,7.71505,19.51666,10.24714,2.23021,25.49556-11.20693,37.53983-24.36473-11.01127,26.44592,4.3231,27.71179,4.3231,27.71179,12.67755,1.95156,27.38109-9.23476,39.18742-21.52221a28.83713,28.83713,0,0,0-.49632,4.06524c-.37124,7.927,3.5843,16.084,14.24285,20.27259,7.99318,3.14249,17.02127,1.719,24.37819-1.87854a67.6933,67.6933,0,0,0,19.3051-14.93413c2.95731-3.23316,5.821-6.66355,8.49981-10.05061-2.75833,9.71326-4.08254,21.80365,4.14106,26.6187a2.53753,2.53753,0,0,0,3.54027-1.30343s8.88816-23.74665,21.47679-42.16166c12.43664-18.1928,21.37756-25.42411,24.23039-23.03021,0,0,2.52283.54436-7.88835,18.483,0,0-7.89587,15.04507-10.08188,20.73816-11.34966,28.27887,7.801,28.61761,7.801,28.61761,9.99767,1.09449,23.26186-13.00546,33.74222-26.97806-7.3819,26.10823,7.82581,25.85963,7.82581,25.85963,12.8692.60446,26.51808-12.43506,37.01574-26.1084-6.19937,24.31093,9.72252,23.69057,9.72252,23.69057,10.55443.62735,23.80412-15.66176,33.71532-30.79243-1.85111,9.94613-2.059,22.16807,6.61934,26.1982a2.54288,2.54288,0,0,0,3.40733-1.63134s6.62546-24.47916,17.44928-43.99967c10.69227-19.28327,18.93194-27.32885,22.00368-25.21482,0,0,2.56772.3038-6.13019,19.1456,0,0-6.46054,15.72361-8.10516,21.59768-8.6593,29.22416,10.47548,27.75442,10.47548,27.75442,9.43636.13679,20.48257-13.26471,29.3578-27.20586a28.58329,28.58329,0,0,0,.213,3.89526c1.01028,7.87106,6.33266,15.21645,17.59078,17.48666,8.443,1.70367,17.11823-1.26988,23.766-6.09437a67.93765,67.93765,0,0,0,16.49419-18.07173c8.18325-12.81137,14.91894-27.78586,17.70749-34.22265A2.15251,2.15251,0,0,0,845.93217,514.33123ZM799.63154,528.256c15.46906-26.31961,21.21456-25.61977,22.07006-25.37414,0,0,3.39231.79016,2.45749,7.63993a33.42178,33.42178,0,0,1-6.57392,15.39692,25.66107,25.66107,0,0,1-7.65041,6.53409c-2.5099,1.1441-5.88841,2.0307-8.47447,1.26447C801.46029,533.71722,797.58913,532.56438,799.63154,528.256ZM497.34247,545.758c19.73539-23.23635,25.24435-21.54894,26.0408-21.15848,0,0,3.19,1.367,1.0882,7.95054a33.44289,33.44289,0,0,1-9.11108,14.02186,25.54755,25.54755,0,0,1-8.63519,5.107c-2.66031.69128-6.12861.97814-8.53352-.22519C498.19168,551.4537,494.59254,549.64644,497.34247,545.758Zm-113.59728,5.64435a126.16962,126.16962,0,0,1-12.58024,12.81818c-7.01591,6.126-13.47855,9.80586-18.61173,10.94646a4.25854,4.25854,0,0,1-2.24732-.44059c-7.75559-5.24271,15.26309-30.07756,15.26309-30.07756,27.22351-29.04946,33.477-26.78449,34.16954-26.32241a2.451,2.451,0,0,1,1.084,1.421c1.36981,2.77212-.21663,7.18746-.949,8.64061A196.45414,196.45414,0,0,0,383.74519,551.40234Z"/><path class="cls-1" d="M854.11332,445.47574a5.89946,5.89946,0,0,0-3.26233-3.14056,8.33554,8.33554,0,0,0-4.68542-.19619,5.17614,5.17614,0,0,0-3.21831,2.98334,5.35276,5.35276,0,0,0-.20824,4.35559,7.12673,7.12673,0,0,0,.842,1.38519,64.11221,64.11221,0,0,1,.16474,8.12769q-.14832,5.30622-.43779,11.01634-.29114,5.71319-.892,10.90121a51.25375,51.25375,0,0,1-1.36562,7.81429,5.04687,5.04687,0,0,0-.40914,5.82324,5.41563,5.41563,0,0,0,6.2198,2.9393,5.61322,5.61322,0,0,0,3.96881-2.33764,14.54821,14.54821,0,0,0,1.81425-4.07014c.15059-.66647.31638-1.43078.49877-2.299q.27044-1.2953.59275-2.89179a239.34606,239.34606,0,0,0,1.80971-29.5318,47.53374,47.53374,0,0,0-.42365-7.60832A11.22175,11.22175,0,0,0,854.11332,445.47574Z"/><path class="cls-1" d="M933.91579,496.61955a3.191,3.191,0,0,0-2.5969,2.3338c-1.63361,3.85806-2.92324,7.43886-4.46268,10.87833a22.75166,22.75166,0,0,1-11.89648,11.87883c-2.69333-11.59634-12.92073-18.49852-20.74864-23.45263q-4.24938-2.60083-7.06622-4.35053c1.26954-3.916,3.69541-13.08792,1.50328-17.84689,0,0-2.33869-6.11639-10.19036-3.153-7.1244,2.689-14.30749,12.81819.94495,26.58114-2.11788,5.99864-4.41168,11.25061-6.734,16.50014a2.69563,2.69563,0,0,0,.39762,3.1935,2.30286,2.30286,0,0,0,3.84739-.54122c1.76359-3.80285,3.8142-8.2402,6.70547-15.55257,4.02157,3.63374,14.49861,13.26926,17.2924,21.761a3.79082,3.79082,0,0,0-1.44686.10412c-29.463,1.59238-31.58085,19.03293-31.58085,19.03293C865.53182,557.48239,879.757,560.0281,879.757,560.0281c13.09665,2.90681,28.19431-6.32655,33.05705-18.54761a36.20291,36.20291,0,0,0,2.72618-14.09733c12.43786-4.97682,16.79887-17.42535,16.79887-17.42535,1.72533-4.45709,3.15664-8.27251,4.08167-10.61715A2.12673,2.12673,0,0,0,933.91579,496.61955ZM883.5887,485.37086a41.77512,41.77512,0,0,1-.88765,4.80143c-5.66513-5.80874-3.87674-9.24664-1.98964-10.00658C880.71141,480.16571,884.33309,478.864,883.5887,485.37086Zm-3.58116,64.80247s-5.75423-1.41226-4.66568-6.80854c1.84692-9.19143,13.83284-11.09338,26.10683-12.83862C901.44869,530.52617,898.12173,553.07037,880.00754,550.17333Z"/><path class="cls-2" d="M326.282,623.194c.32983,0,.49475.09783.49475.29629a8.31881,8.31881,0,0,1-2.27249,1.38222,9.41382,9.41382,0,0,0-2.26969,1.57928,1.20359,1.20359,0,0,0,.69041.19845,27.65893,27.65893,0,0,0,4.2962-.59257q3.111-.59328,9.43095-1.9748,21.82338-5.33321,39.40369-7.85167a222.94793,222.94793,0,0,1,31.20822-2.51846q15.50487,0,26.02315,2.96289,10.51966,2.9622,16.78787,7.80136a43.749,43.749,0,0,1,9.82786,10.17167,99.24821,99.24821,0,0,1,7.20878,13.23379,2.27865,2.27865,0,0,1,.39412.88887,29.75647,29.75647,0,0,1,2.86506,12.93751q0,14.12336-11.55529,29.28233a132.63762,132.63762,0,0,1-29.72677,27.89872,178.74306,178.74306,0,0,1-38.02007,20.44257q-19.85279,7.70422-35.25844,7.70352-10.2723,0-16.44127-3.6533-6.17595-3.6561-6.17455-8.099,0-4.04813,4.84125-6.02362,30.1209-13.42945,52.09382-25.82609,21.97434-12.39175,35.50442-23.15809,13.53007-10.76286,19.8989-19.65293,6.36884-8.88869,6.37023-15.9004,0-7.503-6.66652-12.34493-6.66651-4.83636-18.81437-6.51836a98.60764,98.60764,0,0,0-11.06054-.59258,142.04085,142.04085,0,0,0-24.09727,2.12434q-12.34353,2.12364-29.32985,5.9747-12.74185,3.06282-20.04706,4.34511a74.90782,74.90782,0,0,1-12.74044,1.28439q-9.2828,0-11.75374-4.6428a13.44314,13.44314,0,0,1-1.38082-5.431q0-3.85107,3.6533-4.44434A39.348,39.348,0,0,1,326.282,623.194Zm38.02287,18.86189q0-2.46744,2.86506-2.46814,8.2933,1.67921,12.04724,5.08583a11.27423,11.27423,0,0,1,3.75393,8.73914,25.309,25.309,0,0,1-2.61909,10.37013,79.922,79.922,0,0,1-7.06063,12.14787q-4.44434,6.41913-9.43094,12.542-4.9894,6.12356-13.28271,15.9004-14.51958,17.18409-21.727,27.30614-7.21156,10.12345-7.99981,17.33153,0,1.87627-1.38362,1.877c-.65687,0-1.2187-.62612-1.67711-1.877a20.80944,20.80944,0,0,1-.98949-6.6162,49.07973,49.07973,0,0,1,3.35981-16.39374,147.02508,147.02508,0,0,1,8.59239-19.10927q5.23258-9.82577,10.71394-18.51809,5.47995-8.68952,13.18487-20.44257,7.01033-10.86348,10.2695-16.2456,3.262-5.38143,3.25919-7.45615a.9118.9118,0,0,0-.59258-.9881Q364.30487,643.044,364.30487,642.05588Z"/><path class="cls-2" d="M604.58158,627.73616q-7.70213,0-21.82479,5.43244a143.932,143.932,0,0,0-27.35645,14.76416,202.689,202.689,0,0,0-26.76388,21.62772,142.00852,142.00852,0,0,0-21.43066,25.77578q-8.78807,13.67893-11.65312,26.41728a18.42438,18.42438,0,0,0-.59258,4.44434q0,5.03761,4.24868,5.03692a18.84188,18.84188,0,0,0,6.21928-1.58068,118.62007,118.62007,0,0,0,20.14768-11.15977q10.17167-6.90969,19.89891-14.96121,9.72723-8.048,17.727-15.653,7.9998-7.60359,18.46777-17.67813,12.54058-12.34353,18.71654-17.62782,6.16758-5.28289,9.03683-5.2843a20.023,20.023,0,0,1,9.38063,3.55548,9.99712,9.99712,0,0,1,4.74063,8.78945,16.73425,16.73425,0,0,1-2.56877,8.2961q-4.05022,6.91389-9.13466,16.39375-5.08583,9.47986-9.43094,18.813-4.34791,9.33311-7.25909,17.18478-2.914,7.851-2.91258,11.702,0,2.86576,1.77773,2.86367a6.56849,6.56849,0,0,0,3.06073-.9867,3.80245,3.80245,0,0,1,1.97619-.59258q1.6771,0,1.67711.9881,0,.98739-2.26969,2.56737-11.06474,7.503-18.76406,7.50507-5.92858,0-8.83837-4.44434-2.914-4.44434-2.91537-12.34493a61.00568,61.00568,0,0,1,2.91537-17.38044,91.69491,91.69491,0,0,1,8.04733-18.76407,5.56943,5.56943,0,0,0,.791-2.074c0-.39552-.13417-.59258-.39692-.59258a6.68753,6.68753,0,0,0-2.46814,1.18516q-3.459,2.46954-14.12127,13.13456-9.48405,9.18427-16.69,15.85009a181.21541,181.21541,0,0,1-15.9018,13.03673,101.34775,101.34775,0,0,1-17.77457,10.51827,42.25439,42.25439,0,0,1-17.5789,4.14666,27.3791,27.3791,0,0,1-9.08714-1.48145,29.87,29.87,0,0,1-13.67683-8.54208q-5.38352-5.97471-5.38352-15.456,0-7.30592,3.85176-16.83818a106.18271,106.18271,0,0,1,12.14786-21.1833,143.06491,143.06491,0,0,1,23.65284-25.1832,197.80816,197.80816,0,0,1,31.06007-21.678,183.37239,183.37239,0,0,1,32.93564-14.76415q16.24281-5.33322,29.478-5.33321,10.66643,0,18.17148,3.85176a21.07862,21.07862,0,0,1,10.468,11.9508,5.78527,5.78527,0,0,1,.69321,2.56738,4.29652,4.29652,0,0,1-2.12434,3.94959,9.4463,9.4463,0,0,1-4.98661,1.28439,10.64392,10.64392,0,0,1-5.08723-1.18516,4.7052,4.7052,0,0,1-2.61629-3.45624Q613.46887,627.73686,604.58158,627.73616Z"/><path class="cls-2" d="M652.28138,714.84105a34.07659,34.07659,0,0,1,3.50795-13.9256,103.58269,103.58269,0,0,1,9.08435-15.80117q5.57638-8.09625,11.35682-15.06045,5.77765-6.9621,15.25891-18.12117,10.46515-11.9494,15.2589-18.17288,4.78815-6.22,4.78815-9.2828,0-2.46746-3.65331-2.46815a25.67606,25.67606,0,0,0-4.83846.59258,82.39748,82.39748,0,0,0-15.99962,5.38213q-7.70213,3.50516-18.46778,9.628-13.333,7.50717-18.76406,9.08575a5.94241,5.94241,0,0,0-.9867.19845h-1.08732a11.0778,11.0778,0,0,1-7.01312-2.81475q-3.45484-2.81544-3.45484-5.48135a2.63013,2.63013,0,0,1,.9867-2.17325q2.86366-2.2704,3.85176-2.27109.59118,0,.59258,1.18516c0,1.12087.36057,1.67851,1.08732,1.67851a6.38948,6.38948,0,0,0,2.566-.9867q6.91389-4.04813,15.11076-7.90059,8.19687-3.85316,16.78787-7.11094a127.94887,127.94887,0,0,1,16.49437-5.08584,63.44777,63.44777,0,0,1,14.12126-1.82665q8.49456,0,12.74045,3.6533a17.96821,17.96821,0,0,1,6.51836,14.02344q0,8.69161-5.87547,19.20849Q716.37492,661.51106,704.624,678.301q-7.308,10.07314-12.04724,17.2323a112.32606,112.32606,0,0,0-7.99981,14.07375q-2.57017,5.03551-2.56877,6.91249,0,1.38361,1.18515,1.38221,1.77774,0,6.6162-2.6652a63.6333,63.6333,0,0,0,12.5923-9.33312q7.25769-6.56589,19.60262-18.51669,9.2828-9.08574,16.09746-15.456,6.81744-6.37092,13.48116-11.85158a89.94709,89.94709,0,0,1,12.39384-8.73914q5.72733-3.25987,9.976-3.25918a7.22691,7.22691,0,0,1,3.25918.69041q6.9097,3.16345,6.91249,13.53008a64.30507,64.30507,0,0,1-2.81475,17.13447q-2.81334,9.9264-8.34641,24.54171a1.50192,1.50192,0,0,1-.19567.59258v.39552a1.04735,1.04735,0,0,0,1.18516,1.18515l.69041-.19845a1.517,1.517,0,0,1,.59258-.19706q4.05022-2.371,12.542-7.111,5.63089-2.9622,7.902-4.44434a3.834,3.834,0,0,1,1.9734-.78964.52285.52285,0,0,1,.59258.59258q0,1.6813-2.37032,2.86366-5.33321,2.86577-12.49167,7.6043-7.16125,4.73992-12.5923,8.78945l-.39412.19846q-4.93909,3.85107-5.72733,6.22068a211.263,211.263,0,0,1-12.19818,23.60392q-6.96,11.65172-14.26941,21.62773a185.00493,185.00493,0,0,1-13.97591,17.08555,68.75,68.75,0,0,1-11.30652,10.17167,4.87683,4.87683,0,0,1-2.86506.9881q-4.44434,0-8.59239-5.9747a23.5463,23.5463,0,0,1-4.54217-11.80266q0-6.91389,4.24588-14.71384a81.6542,81.6542,0,0,1,11.013-15.35814,150.31548,150.31548,0,0,1,14.46787-14.12126,176.94012,176.94012,0,0,1,14.616-11.30791,30.28957,30.28957,0,0,0,5.53167-3.99991,40.166,40.166,0,0,0,4.54217-5.67841,129.17221,129.17221,0,0,0,14.862-26.66465q5.58058-13.72714,5.57919-21.23361,0-5.03551-2.66661-5.03692-1.97479,0-5.03412,2.56878-1.77774,1.67921-5.13755,5.48-3.35841,3.80284-10.468,12.78936-10.27228,12.73975-17.973,21.82619-7.70212,9.08574-16.8885,18.36854A131.54788,131.54788,0,0,1,696.23,733.35774q-8.20107,5.77764-14.22189,5.77764a2.40788,2.40788,0,0,1-.88887-.19706h-.791a37.83061,37.83061,0,0,1-11.30651-3.85176,76.40291,76.40291,0,0,1-11.11085-7.70353A15.76979,15.76979,0,0,1,652.28138,714.84105Z"/><path class="cls-2" d="M841.67786,658.6665c-1.79127-19.182-1.3079-36.559,4.8569-53.192,2.05672-5.55014,4.58332-11.12562,12.21413-9.718,7.32194,1.35061,8.43664,6.92825,8.19144,13.64654,2.81988-1.48884,5.19715-2.84851,7.66258-4.02317,4.80633-2.28973,9.78937-2.48669,13.46893,1.60236,3.949,4.38871,2.15014,9.82164-.9951,13.41612-4.81056,5.49767-10.62094,10.192-16.355,14.79339-8.82319,7.08029-17.95761,13.77171-26.90865,20.69467A13.645,13.645,0,0,0,841.67786,658.6665Z"/><path class="cls-2" d="M877.83186,391.71567c7.45373-17.64833,13.59253-34.14223,24.80327-47.89608,2.18331-2.67872,7.78845-5.23593,10.47295-4.23806,4.4695,1.66129,4.12769,6.99711,2.62811,11.46054a14.94138,14.94138,0,0,0-.40573,2.28669c.36889.28993.63678.68274.93631.70872,4.22817.36706,10.05-1.10728,11.20771,4.24108.78515,3.62715-.83016,8.68359-3.08871,11.89237-7.28612,10.35129-17.929,16.09488-30.11321,18.90623C889.47261,390.18477,884.52774,390.66462,877.83186,391.71567Z"/><path class="cls-2" d="M292.28413,671.26377c-7.45373-17.64833-13.59253-34.14223-24.80327-47.89608-2.18331-2.67872-7.78845-5.23593-10.473-4.23806-4.4695,1.66129-4.12769,6.99711-2.62812,11.46054a14.94019,14.94019,0,0,1,.40574,2.28669c-.36889.28993-.63678.68274-.93631.70872-4.22817.36706-10.05-1.10728-11.20771,4.24108-.78515,3.62715.83016,8.68359,3.08871,11.89237,7.28611,10.35129,17.929,16.09488,30.11321,18.90623C280.64338,669.73287,285.58825,670.21272,292.28413,671.26377Z"/><path class="cls-2" d="M892.3729,423.44656c8.82583-12.01774,20.34448-18.356,33.46269-21.7273,6.56595-1.6875,9.29965,2.60774,7.08223,10.063a5.02721,5.02721,0,0,0,1.165,1.1011c4.63106,2.20143,6.41848,5.98489,5.2945,10.77626a8.75562,8.75562,0,0,1-9.80783,7.04433c-8.07426-.78215-16.07884-2.39511-24.06859-3.89487C901.43365,426.04562,897.46244,424.77009,892.3729,423.44656Z"/><path class="cls-2" d="M838.69949,348.82269c.76487-.5065,1.54407-1.08685,2.38112-1.56631,5.67983-3.25334,10.65045-1.18994,10.11384,5.22617-.64255,7.68149-3.36385,15.18924-5.38588,23.60889-9.31039-4.208-16.48184-8.21715-21.36664-15.34872-3.33358-4.86676-2.983-11.04918.54942-14.17409C828.808,343.19233,833.48211,343.91929,838.69949,348.82269Z"/><path class="cls-2" d="M242.64215,690.25617c.06884-.91478.08813-1.88616.22259-2.84138.91239-6.48169,5.59008-9.14325,10.32968-4.78543,5.67426,5.21736,9.93674,11.97037,15.34834,18.73008-9.03277,4.775-16.59692,7.98217-25.22576,7.46848-5.88856-.35049-10.55762-4.41806-10.86039-9.1246C232.12952,694.61809,235.56962,691.37138,242.64215,690.25617Z"/><path class="cls-2" d="M384.20007,382.99737c-3.129-13.73607-5.45434-26.4673-11.80408-37.86636-1.23661-2.22008-4.9664-4.79189-7.03833-4.41435-3.44962.62852-3.88779,4.53584-3.37558,7.96028a10.988,10.988,0,0,1-.00007,1.70781c-.30435.16252-.54879.41251-.769.39283-3.10856-.27755-7.1344-2.09316-8.65991,1.63055-1.03458,2.52534-.51478,6.394.7082,9.00756,3.94534,8.43111,10.91323,13.95738,19.374,17.55862C375.96832,380.39307,379.487,381.37593,384.20007,382.99737Z"/><path class="cls-2" d="M346.52386,391.94442c-12.62721-17.1939-29.10707-26.26218-47.87543-31.08548-9.394-2.41433-13.30511,3.73092-10.13263,14.39718a7.19191,7.19191,0,0,1-1.66684,1.57536c-6.62571,3.14961-9.183,8.56265-7.57491,15.41771,1.66182,7.08353,7.34683,10.72617,14.03217,10.07841,11.55194-1.119,23.00418-3.42671,34.4352-5.57244C333.56055,395.66293,339.24221,393.838,346.52386,391.94442Z"/><circle class="cls-2" cx="368.10002" cy="422.51244" r="7.07252"/><circle class="cls-2" cx="414.52872" cy="354.76591" r="7.07252"/><circle class="cls-2" cx="526.8727" cy="350.94956" r="7.07252"/><circle class="cls-2" cx="613.45629" cy="347.69339" r="7.07252"/><circle class="cls-2" cx="649.39" cy="332.15418" r="7.07252"/><circle class="cls-2" cx="292.28413" cy="729.4906" r="7.07252"/><circle class="cls-2" cx="462.47169" cy="354.76591" r="3.81636"/><circle class="cls-2" cx="488.94766" cy="332.15418" r="3.81636"/><circle class="cls-2" cx="308.84944" cy="671.26377" r="3.81636"/><circle class="cls-2" cx="227.14309" cy="662.48285" r="3.81636"/><circle class="cls-2" cx="272.35911" cy="729.4906" r="3.81636"/><circle class="cls-2" cx="877.83186" cy="442.29675" r="3.81636"/><circle class="cls-2" cx="858.30676" cy="680.4927" r="3.81636"/><circle class="cls-2" cx="813.09943" cy="627.10118" r="3.81636"/><circle class="cls-2" cx="718.16756" cy="350.94956" r="3.81636"/><circle class="cls-2" cx="920.60304" cy="465.44645" r="7.07252"/><circle class="cls-2" cx="920.60304" cy="588.46335" r="7.07252"/><circle class="cls-2" cx="829.20336" cy="729.4906" r="7.07252"/><circle class="cls-2" cx="858.30676" cy="402.40132" r="7.07252"/><circle class="cls-2" cx="822.13084" cy="694.68727" r="7.07252"/><circle class="cls-2" cx="758.71635" cy="354.76591" r="7.07252"/></g></svg>