<svg xmlns="http://www.w3.org/2000/svg" viewBox="0 0 1000 1000"><defs><style>.cls-1{fill:#ec6a83;}.cls-2{fill:#343434;}</style></defs><title>Valentines_20</title><g id="Layer_24" data-name="Layer 24"><path class="cls-1" d="M203.1623,628.42059l-.28375-3.90076c-6.61107-90.33715-7.89937-165.23924-7.91241-165.98449l-.0424-2.61247,2.5244-.67024c100.86856-26.78348,240.23592-19.07491,387.78639-10.90973,132.18879,7.31555,268.8915,14.87735,376.90275-4.2791l3.73768-.66208.18265,3.78987c4.41934,91.67926-8.29727,175.08409-8.42447,175.91578l-.349,2.2537-2.22761.49411c-51.96229,11.54247-145.33591,4.62156-253.44827-3.392-154.31157-11.44136-346.35223-25.6762-494.63655,9.06535Zm234.90661-29.47585c90.60461,0,182.55947,6.81655,264.03186,12.85686,106.025,7.86348,197.807,14.66535,249.26376,4.01491,1.95038-13.70321,11.699-87.423,8.1929-168.52358-108.16454,18.465-243.64093,10.9717-374.69145,3.71974-145.76317-8.0657-283.50956-15.68783-383.17136,10.03239.287,13.77823,1.88841,80.13517,7.56343,159.09947C279.02816,604.26589,358.0218,598.94474,438.06891,598.94474Z"/><path class="cls-1" d="M310.094,476.68561q-4.68189,12.6-8.91043,26.63508-4.22691,14.03833-7.82761,27.17485-3.06255,10.79722-5.9392,20.60619-2.88154,9.81143-5.75982,17.1865a70.37763,70.37763,0,0,1-2.87665,7.28783,36.39236,36.39236,0,0,1-3.50937,6.11859,17.70359,17.70359,0,0,1-4.23018,4.23017,8.96976,8.96976,0,0,1-5.2184,1.61934,12.77439,12.77439,0,0,1-9.89867-4.67863,39.82862,39.82862,0,0,1-7.01876-12.05779,97.68253,97.68253,0,0,1-4.68026-16.37764q-1.80035-8.99687-2.69726-17.63659-.90507-8.63729-1.2622-15.92593-.362-7.28946-.35877-11.06791,0-8.81584.62947-17.09681.6311-8.27526,1.89167-15.83624a5.28544,5.28544,0,0,1,1.88841-3.2403,5.47563,5.47563,0,0,1,7.28947.2707,5.09581,5.09581,0,0,1,1.6177,3.86815.80414.80414,0,0,1-.08806.36039,1.22806,1.22806,0,0,0-.09132.53978,137.82417,137.82417,0,0,0-1.80035,14.848q-.53816,7.82761-.53815,16.28633,0,6.12021.53815,15.47747.543,9.35889,1.97973,18.89553a141.47637,141.47637,0,0,0,3.87141,17.997q2.42656,8.46115,6.20664,12.77694a3.99036,3.99036,0,0,0,2.15912,1.61934,9.89573,9.89573,0,0,0,2.16238-2.87828,44.45047,44.45047,0,0,0,1.97647-4.14048q.90018-2.15993,1.71229-4.22854.80722-2.067,1.35026-3.33,2.51463-6.83692,5.039-15.74654,2.51461-8.9088,5.2184-18.62645,3.59582-13.31673,7.91894-27.625,4.315-14.3074,9.17787-27.26455a5.09046,5.09046,0,0,1,5.039-3.418,5.32978,5.32978,0,0,1,3.77682,1.52964,5.09855,5.09855,0,0,1,1.621,3.86815A10.0195,10.0195,0,0,1,310.094,476.68561Z"/><path class="cls-1" d="M325.56657,587.54416a5.03676,5.03676,0,0,1-4.22691-2.42983,21.91237,21.91237,0,0,1-2.87991-6.20827,59.13388,59.13388,0,0,1-1.89167-8.369q-.71916-4.58894-.98824-8.99849-.26907-4.40548-.362-8.007c-.062-2.39883-.08807-4.14048-.08807-5.22q0-5.93919.62948-14.1272.6262-8.18719,2.15911-16.9158a133.95661,133.95661,0,0,1,4.23017-17.27782,66.22527,66.22527,0,0,1,6.92744-15.29646A37.50693,37.50693,0,0,1,339.154,473.8057a23.22046,23.22046,0,0,1,13.76681-4.13885,17.28,17.28,0,0,1,11.8784,4.13885,30.47626,30.47626,0,0,1,7.56017,10.61946,65.97842,65.97842,0,0,1,4.40629,14.667,138.70851,138.70851,0,0,1,2.07106,16.19663q.53814,8.00862.54141,15.20676,0,7.199.17938,11.87677.17612,6.66081.35876,12.77858.17613,6.12021.54141,10.97822a53.18449,53.18449,0,0,0,1.16762,7.55854,12.76886,12.76886,0,0,0,.9915,2.87828,5.47077,5.47077,0,0,1,2.968,9.17787,5.0903,5.0903,0,0,1-3.86814,1.621,8.35346,8.35346,0,0,1-5.30973-1.621,11.91788,11.91788,0,0,1-3.33-4.13885,22.94669,22.94669,0,0,1-1.88841-5.39779q-.63111-2.87664-.9915-5.22a100.646,100.646,0,0,1-.98824-10.70752q-.26907-6.02727-.2707-12.68726a21.78883,21.78883,0,0,1-6.38929,2.9696,49.62793,49.62793,0,0,1-8.09831,1.709q-4.22691.5406-8.45709.71916-4.2318.18346-7.46884.181-4.50089,0-7.82761-.181-3.33164-.17611-4.76832-.17938a149.00838,149.00838,0,0,0,1.43832,16.01725,35.95754,35.95754,0,0,0,3.05929,10.97823,5.45969,5.45969,0,0,1-4.85964,7.73792Zm27.35424-107.07847a13.983,13.983,0,0,0-9.44858,3.50938,29.78964,29.78964,0,0,0-6.92744,9.17788,70.57935,70.57935,0,0,0-4.85964,12.59756,128.62745,128.62745,0,0,0-3.14735,13.76681q-1.17414,6.84181-1.71229,12.77694-.53814,5.93921-.71753,9.53828a26.50769,26.50769,0,0,0,4.04753.36039q3.51264.181,8.369.17938,2.15748,0,5.58043-.08969a67.81855,67.81855,0,0,0,6.92744-.53978q3.50775-.44763,6.56867-1.07955a13.47176,13.47176,0,0,0,4.68026-1.709,5.66973,5.66973,0,0,1,1.88841-3.33,5.14365,5.14365,0,0,1,3.50938-1.35026,2.02472,2.02472,0,0,1,.90017.181q0-2.5195-.09132-7.46884-.093-4.94853-.53815-10.97823-.455-6.02725-1.35026-12.32686a65.92953,65.92953,0,0,0-2.6092-11.42831,26.78473,26.78473,0,0,0-4.40956-8.45871A8.27238,8.27238,0,0,0,352.92081,480.46569Z"/><path class="cls-1" d="M447.224,570.44735a5.53128,5.53128,0,0,1,5.39779,5.39942q0,3.23867-4.31823,5.48911a43.56863,43.56863,0,0,1-9.89867,3.59907,91.83233,91.83233,0,0,1-10.97823,1.97973q-5.39616.63111-7.5569.62948a47.40239,47.40239,0,0,1-7.64823-.62948,25.83119,25.83119,0,0,1-7.2014-2.25043,19.73784,19.73784,0,0,1-5.84788-4.31824,15.548,15.548,0,0,1-3.59744-6.65836,100.99487,100.99487,0,0,1-2.79185-16.64672q-.80722-9.08736-.80885-18.08667,0-16.37439,1.621-32.75366a324.56653,324.56653,0,0,1,4.85638-32.3949,5.08589,5.08589,0,0,1,1.80035-3.149,5.2596,5.2596,0,0,1,3.42132-1.16925,5.33669,5.33669,0,0,1,3.77682,1.52964,5.09962,5.09962,0,0,1,1.621,3.86978,2.54679,2.54679,0,0,1-.17939,1.07956q-.90507,4.858-1.97973,11.96646-1.08119,7.11334-1.97973,15.56716-.90507,8.46116-1.52965,17.63659-.63109,9.17787-.62947,18.17636,0,9.00176.71753,17.09681a77.6085,77.6085,0,0,0,2.52114,14.39791,5.564,5.564,0,0,0,2.15912,3.149,12.55025,12.55025,0,0,0,3.6007,1.80035,18.49923,18.49923,0,0,0,4.13885.80885q2.15748.181,3.78009.181A61.17774,61.17774,0,0,0,432.645,575.2173a49.5197,49.5197,0,0,0,12.23717-4.23017A5.15905,5.15905,0,0,1,447.224,570.44735Z"/><path class="cls-1" d="M457.48139,524.01657q0-8.81586.35877-16.28633.362-7.46557.90017-13.408.71916-5.57474,1.709-9.897a18.82481,18.82481,0,0,1,3.24194-7.28946,13.79838,13.79838,0,0,1,6.20664-4.49925,30.20556,30.20556,0,0,1,10.61946-1.52964c1.80035,0,3.62679.062,5.48911.17938q2.78859.18345,5.48911.54141c1.67642.24135,3.33.42073,4.94771.53978q2.43144.181,4.40955.17938a34.33958,34.33958,0,0,0,3.78008-.27071,5.077,5.077,0,0,0,3.41806-1.52964,4.69685,4.69685,0,0,1,4.13885-1.79872,5.33874,5.33874,0,0,1,3.78009,1.52964,5.09966,5.09966,0,0,1,1.621,3.86978,5.67529,5.67529,0,0,1-1.89167,4.40792,14.00266,14.00266,0,0,1-4.49761,2.70053,27.25632,27.25632,0,0,1-5.48912,1.44,32.36692,32.36692,0,0,1-4.85964.44846q-2.52441,0-5.13035-.17938-2.60757-.17613-5.12708-.53978c-1.68294-.23972-3.35935-.4191-5.039-.53978-1.68293-.119-3.35935-.17938-5.039-.17938a24.48031,24.48031,0,0,0-4.76832.44845,11.0795,11.0795,0,0,0-3.692,1.35027,24.25041,24.25041,0,0,0-1.97648,7.73792q-.72405,5.401-1.17088,11.518-.45009,6.12021-.54141,11.78871-.093,5.66768-.08806,8.5484,3.59581.362,7.2862.53978,3.68877.181,7.28947.17939a67.864,67.864,0,0,0,8.369-.3604,17.56022,17.56022,0,0,0,3.50938-.71916,5.21972,5.21972,0,0,1,5.21841-3.59907,5.33869,5.33869,0,0,1,3.78008,1.52964,5.09582,5.09582,0,0,1,1.61771,3.86815,7.038,7.038,0,0,1-2.60921,5.84951,16.1062,16.1062,0,0,1-6.20664,2.9696,37.4688,37.4688,0,0,1-7.38079,1.07955q-3.77682.181-6.298.17939-7.38242,0-14.39628-.53978.17611,6.66081.45008,12.958.26909,6.30122.80886,11.60769.543,5.31055,1.07955,9.35889a48.01615,48.01615,0,0,0,1.25895,6.56867,12.04308,12.04308,0,0,0,3.42131,1.25894,32.70077,32.70077,0,0,0,7.91894.72079q2.51461,0,6.02726-.2707c2.34176-.17938,4.70635-.47781,7.11008-.90018a57.01971,57.01971,0,0,0,6.83937-1.61933,18.13905,18.13905,0,0,0,5.039-2.24881,5.25483,5.25483,0,0,1,3.23867-1.08119,5.54036,5.54036,0,0,1,5.39779,5.39942q0,3.42213-4.13885,5.5788a42.80925,42.80925,0,0,1-9.71928,3.50938,80.06868,80.06868,0,0,1-11.24567,1.89q-5.67012.54059-8.72779.53978-2.70052,0-6.12184-.27071a28.09311,28.09311,0,0,1-6.47735-1.25894,17.71983,17.71983,0,0,1-5.48911-2.87991,9.5228,9.5228,0,0,1-3.33-5.12872,71.336,71.336,0,0,1-1.88841-9.98835q-.81211-6.20827-1.35026-13.67712-.53816-7.46559-.80885-15.38615Q457.483,531.03614,457.48139,524.01657Z"/><path class="cls-1" d="M522.98871,548.31151q0-15.29319.62947-30.50322a271.22893,271.22893,0,0,1,2.968-30.32384q.90018-4.49842,5.39779-4.49924a4.74787,4.74787,0,0,1,4.05079,1.79872,6.99789,6.99789,0,0,1,1.35027,4.31986,253.12908,253.12908,0,0,0-2.97124,29.51335q-.6311,14.941-.62947,29.69437,0,9.89949.54141,16.19664.53816-3.77928.98824-8.09832.45009-4.31742.9915-8.99849,1.43832-11.69495,3.05929-24.02424a174.543,174.543,0,0,1,4.49761-22.94632q1.25731-4.31742,3.0593-9.08818a40.742,40.742,0,0,1,4.68025-8.90717,27.087,27.087,0,0,1,6.74806-6.83938,15.47357,15.47357,0,0,1,9.08981-2.69889,17.27337,17.27337,0,0,1,10.70752,3.32836,27.45741,27.45741,0,0,1,7.37753,8.6381,47.32053,47.32053,0,0,1,4.58893,11.96809,129.66441,129.66441,0,0,1,2.52115,13.408,126.52218,126.52218,0,0,1,1.07955,12.86664q.17613,6.12021.17939,10.43845,0,7.38242-.35877,14.57729-.36692,7.199-1.08282,13.76681-.71916,6.57274-1.43832,12.05779a92.83928,92.83928,0,0,1-1.621,9.26756,5.07915,5.07915,0,0,1-1.79709,3.15062,5.25424,5.25424,0,0,1-3.42132,1.16925,5.336,5.336,0,0,1-3.78008-1.52965,5.08952,5.08952,0,0,1-1.61771-3.86978,2.50655,2.50655,0,0,1,.17938-1.07955q.71917-3.77928,1.43833-9.17788t1.35026-11.60769q.63111-6.20828.9915-13.13734.35713-6.925.35876-13.58743,0-2.51707-.08806-7.10845-.093-4.58893-.63273-10.16774-.53814-5.57718-1.52964-11.33863a62.81916,62.81916,0,0,0-2.69727-10.52813,23.81358,23.81358,0,0,0-4.32149-7.73792,8.18161,8.18161,0,0,0-6.386-2.9696,6.30836,6.30836,0,0,0-4.32149,1.80035,19.072,19.072,0,0,0-3.59744,4.58893,44.15518,44.15518,0,0,0-2.97123,6.298,65.68659,65.68659,0,0,0-2.24718,6.92907,169.34026,169.34026,0,0,0-4.32149,21.95645q-1.61934,12.057-2.87991,23.39477-.90018,7.199-1.61771,13.40805-.724,6.20827-1.621,10.8869-.362,1.98381-1.07955,4.49925a23.0845,23.0845,0,0,1-1.88842,4.67862,12.35109,12.35109,0,0,1-2.8799,3.59907,7.03488,7.03488,0,0,1-9.80735-1.25894,7.81539,7.81539,0,0,1-1.35026-1.89,17.98271,17.98271,0,0,1-1.25894-3.23867,42.656,42.656,0,0,1-1.17088-5.22q-.53816-3.14573-.90018-7.82761Q522.98872,558.75,522.98871,548.31151Z"/><path class="cls-1" d="M607.03117,487.30344a13.19487,13.19487,0,0,1-6.298-1.52965q-2.88153-1.52639-2.87991-5.48911a5.23182,5.23182,0,0,1,5.39779-5.39779,6.26253,6.26253,0,0,1,3.95947,1.61934q1.08119,0,5.039-.53978,2.51952-.35958,5.58044-.98987,3.05766-.62865,6.47735-1.35026,7.55853-1.61934,13.408-2.60921a61.39639,61.39639,0,0,1,9.98673-.98986,17.66268,17.66268,0,0,1,7.83087,1.80035q3.68388,1.80034,3.68877,6.47735a5.23209,5.23209,0,0,1-5.40106,5.39942,5.00275,5.00275,0,0,1-4.85638-2.87991,56.38871,56.38871,0,0,0-7.11008.45009,62.39046,62.39046,0,0,0-7.11008,1.35026.77276.77276,0,0,0,.09133.3604,1.27237,1.27237,0,0,1,.09132.53977q0,3.96028-.45009,10.88691-.455,6.92988-.9915,16.10694-.53814,6.47979-.98823,13.58743-.455,7.11089-.81212,14.2169-.362,7.11333-.62947,14.03751-.26907,6.92988-.26744,13.04765,0,4.68189.26744,8.81911.26907,4.14129.62947,7.19814a6.99827,6.99827,0,0,1-1.347,4.31823,4.73627,4.73627,0,0,1-4.05079,1.80036,5.14361,5.14361,0,0,1-3.50938-1.35027,5.656,5.656,0,0,1-1.88841-3.32836q-.362-3.41724-.62947-7.91894-.274-4.496-.2707-9.71765,0-6.11776.2707-13.04765.26907-6.925.62947-14.03752.35713-7.106.80885-14.39628.4452-7.28946.9915-13.94782.53815-8.09913.89692-14.667.362-6.56785.362-10.34875-5.76307,1.26219-9.89866,1.89A47.5962,47.5962,0,0,1,607.03117,487.30344Z"/><path class="cls-1" d="M689.99406,521.85745q0,10.62109-.63273,21.146-.63109,10.52812-1.347,19.706-.362,6.12021-.72079,11.1576-.362,5.039-.35877,8.2777a5.09223,5.09223,0,0,1-1.621,3.86978,5.32487,5.32487,0,0,1-3.78008,1.52965,5.23192,5.23192,0,0,1-5.39779-5.39943q0-3.59824.35877-8.72778.362-5.12954.72079-11.42832.71916-9.17787,1.35026-19.525.62621-10.34714.62947-20.60619,0-1.97892-.09132-5.75982-.093-3.77926-.35877-8.36739-.26907-4.58893-.99149-9.35889a48.03476,48.03476,0,0,0-2.0678-8.63809,20.86966,20.86966,0,0,0-3.418-6.38929,6.23636,6.23636,0,0,0-4.951-2.51951,5.08978,5.08978,0,0,1-3.86814-1.61934,5.3239,5.3239,0,0,1-1.52965-3.77845,5.23191,5.23191,0,0,1,5.39779-5.39942,15.32562,15.32562,0,0,1,9.35726,2.79021,22.70628,22.70628,0,0,1,6.30123,7.28784,42.00525,42.00525,0,0,1,3.95946,10.16774,83.36209,83.36209,0,0,1,2.0678,11.42831q.6311,5.76063.80885,11.06792Q689.99243,518.07981,689.99406,521.85745Z"/><path class="cls-1" d="M696.65406,548.31151q0-15.29319.62947-30.50322a271.22657,271.22657,0,0,1,2.968-30.32384q.90017-4.49842,5.39779-4.49924a4.74785,4.74785,0,0,1,4.05078,1.79872,6.99789,6.99789,0,0,1,1.35027,4.31986,253.12907,253.12907,0,0,0-2.97123,29.51335q-.63111,14.941-.62947,29.69437,0,9.89949.54141,16.19664.53814-3.77928.98823-8.09832.45009-4.31742.9915-8.99849,1.43832-11.69495,3.05929-24.02424a174.54133,174.54133,0,0,1,4.49762-22.94632q1.2573-4.31742,3.05929-9.08818a40.74159,40.74159,0,0,1,4.68026-8.90717,27.08675,27.08675,0,0,1,6.74805-6.83938,15.47359,15.47359,0,0,1,9.08981-2.69889,17.27335,17.27335,0,0,1,10.70752,3.32836,27.45741,27.45741,0,0,1,7.37753,8.6381,47.32015,47.32015,0,0,1,4.58893,11.96809,129.66441,129.66441,0,0,1,2.52115,13.408,126.52517,126.52517,0,0,1,1.07956,12.86664q.17612,6.12021.17938,10.43845,0,7.38242-.35877,14.57729-.36691,7.199-1.08282,13.76681-.71916,6.57274-1.43832,12.05779a92.83928,92.83928,0,0,1-1.621,9.26756,5.0791,5.0791,0,0,1-1.79709,3.15062,5.25424,5.25424,0,0,1-3.42132,1.16925,5.336,5.336,0,0,1-3.78008-1.52965,5.08952,5.08952,0,0,1-1.61771-3.86978,2.50638,2.50638,0,0,1,.17939-1.07955q.71916-3.77928,1.43832-9.17788t1.35026-11.60769q.63111-6.20828.9915-13.13734.35713-6.925.35877-13.58743,0-2.51707-.08806-7.10845-.093-4.58893-.63274-10.16774-.53814-5.57718-1.52964-11.33863a62.81916,62.81916,0,0,0-2.69727-10.52813,23.8134,23.8134,0,0,0-4.32149-7.73792,8.18159,8.18159,0,0,0-6.386-2.9696,6.30836,6.30836,0,0,0-4.32149,1.80035,19.072,19.072,0,0,0-3.59744,4.58893,44.15627,44.15627,0,0,0-2.97123,6.298,65.68659,65.68659,0,0,0-2.24718,6.92907,169.34194,169.34194,0,0,0-4.32149,21.95645q-1.61934,12.057-2.87991,23.39477-.90018,7.199-1.61771,13.40805-.72405,6.20827-1.621,10.8869-.362,1.98381-1.07956,4.49925a23.0839,23.0839,0,0,1-1.88841,4.67862,12.35112,12.35112,0,0,1-2.87991,3.59907,7.03488,7.03488,0,0,1-9.80735-1.25894,7.81539,7.81539,0,0,1-1.35026-1.89,17.98346,17.98346,0,0,1-1.25894-3.23867,42.65785,42.65785,0,0,1-1.17088-5.22q-.53816-3.14573-.90018-7.82761Q696.65406,558.75,696.65406,548.31151Z"/><path class="cls-1" d="M773.67775,524.01657q0-8.81586.35877-16.28633.362-7.46557.90017-13.408.71916-5.57474,1.709-9.897a18.825,18.825,0,0,1,3.24194-7.28946,13.79838,13.79838,0,0,1,6.20664-4.49925,30.20556,30.20556,0,0,1,10.61946-1.52964c1.80035,0,3.62679.062,5.48911.17938q2.78859.18345,5.48911.54141c1.67642.24135,3.33.42073,4.94771.53978q2.43146.181,4.40955.17938a34.33973,34.33973,0,0,0,3.78009-.27071,5.077,5.077,0,0,0,3.418-1.52964,4.69686,4.69686,0,0,1,4.13885-1.79872,5.33874,5.33874,0,0,1,3.78009,1.52964,5.09966,5.09966,0,0,1,1.621,3.86978,5.67529,5.67529,0,0,1-1.89167,4.40792,14.00266,14.00266,0,0,1-4.49761,2.70053,27.25632,27.25632,0,0,1-5.48912,1.44,32.36692,32.36692,0,0,1-4.85964.44846q-2.5244,0-5.13035-.17938-2.60757-.17613-5.12708-.53978c-1.68294-.23972-3.35935-.4191-5.039-.53978-1.68293-.119-3.35935-.17938-5.039-.17938a24.48031,24.48031,0,0,0-4.76832.44845,11.07958,11.07958,0,0,0-3.692,1.35027,24.25041,24.25041,0,0,0-1.97648,7.73792q-.72405,5.401-1.17088,11.518-.45007,6.12021-.54141,11.78871-.09294,5.66768-.08806,8.5484,3.59581.362,7.28621.53978,3.68876.181,7.28946.17939a67.864,67.864,0,0,0,8.369-.3604,17.56022,17.56022,0,0,0,3.50938-.71916,5.21972,5.21972,0,0,1,5.21841-3.59907,5.33869,5.33869,0,0,1,3.78008,1.52964,5.09582,5.09582,0,0,1,1.61771,3.86815,7.03792,7.03792,0,0,1-2.60921,5.84951,16.10613,16.10613,0,0,1-6.20664,2.9696,37.4688,37.4688,0,0,1-7.38079,1.07955q-3.77682.181-6.298.17939-7.38242,0-14.39628-.53978.17611,6.66081.45008,12.958.26909,6.30122.80886,11.60769.543,5.31055,1.07956,9.35889a48.01634,48.01634,0,0,0,1.25894,6.56867,12.043,12.043,0,0,0,3.42132,1.25894,32.70067,32.70067,0,0,0,7.91893.72079q2.51462,0,6.02726-.2707c2.34176-.17938,4.70635-.47781,7.11008-.90018a57.01988,57.01988,0,0,0,6.83938-1.61933,18.13911,18.13911,0,0,0,5.039-2.24881,5.25483,5.25483,0,0,1,3.23867-1.08119,5.54036,5.54036,0,0,1,5.39779,5.39942q0,3.42213-4.13885,5.5788a42.80907,42.80907,0,0,1-9.71928,3.50938,80.06844,80.06844,0,0,1-11.24567,1.89q-5.67012.54059-8.72778.53978-2.70053,0-6.12185-.27071a28.09311,28.09311,0,0,1-6.47735-1.25894,17.71983,17.71983,0,0,1-5.48911-2.87991,9.5228,9.5228,0,0,1-3.33-5.12872,71.336,71.336,0,0,1-1.88841-9.98835q-.81212-6.20827-1.35026-13.67712-.53815-7.46559-.80885-15.38615Q773.67938,531.03614,773.67775,524.01657Z"/><path class="cls-1" d="M859.34117,476.14583a10.99953,10.99953,0,0,1,.35877,3.2403,47.111,47.111,0,0,1-.90018,7.19815,254.13872,254.13872,0,0,1-6.47734,27.35424q-.543,1.44321-.9915,2.6092c-.30006.78276-.57077,1.47094-.80886,2.06942a14.05182,14.05182,0,0,1-2.25043,3.50938,4.8859,4.8859,0,0,1-3.86815,1.52965,4.76537,4.76537,0,0,1-5.039-3.77845,4.831,4.831,0,0,1,1.25894-5.39942,51.7079,51.7079,0,0,0,2.42982-7.10845q1.35026-4.76506,2.51788-10.078,1.16925-5.30567,2.16238-10.25744a64.5388,64.5388,0,0,0,1.16762-7.64823,12.8468,12.8468,0,0,1-.53815-1.43995,5.43662,5.43662,0,0,1,.90017-4.04916,4.94006,4.94006,0,0,1,3.41806-2.25044,8.36048,8.36048,0,0,1,4.23017.98987A5.60742,5.60742,0,0,1,859.34117,476.14583Z"/><path class="cls-1" d="M900.18826,587.54416a33.19051,33.19051,0,0,1-14.12884-2.87991,31.17513,31.17513,0,0,1-10.52814-7.82762,34.02431,34.02431,0,0,1-6.56867-11.60769,44.10236,44.10236,0,0,1-2.24717-14.2169,41.71371,41.71371,0,0,1,.80885-7.82924,31.55462,31.55462,0,0,1,2.6092-7.91894,18.88,18.88,0,0,1,4.76832-6.20827,11.14981,11.14981,0,0,1,7.46885-2.51951,5.23207,5.23207,0,0,1,5.401,5.39942,5.3377,5.3377,0,0,1-1.52965,3.77845,5.10177,5.10177,0,0,1-3.8714,1.61934q-1.26221,0-2.15912,1.80035a21.64682,21.64682,0,0,0-1.52964,4.22854,36.13318,36.13318,0,0,0-.90018,4.58894,28.78272,28.78272,0,0,0-.2707,3.06092,33.38065,33.38065,0,0,0,1.44158,9.897,24.572,24.572,0,0,0,4.23017,8.188,19.82405,19.82405,0,0,0,7.10682,5.57881,22.61574,22.61574,0,0,0,9.89867,2.07105,24.5773,24.5773,0,0,0,11.24893-2.34013,20.62124,20.62124,0,0,0,7.37752-6.11858,25.0469,25.0469,0,0,0,4.04753-8.45871,35.26945,35.26945,0,0,0,1.2622-9.17788,21.17029,21.17029,0,0,0-6.11858-15.56716,40.802,40.802,0,0,0-6.66-5.48911q-3.78173-2.51706-7.91894-5.039-3.95783-2.51706-7.91893-5.2184a42.707,42.707,0,0,1-7.01876-5.9392,27.38064,27.38064,0,0,1-4.9477-7.28784,22.15063,22.15063,0,0,1-1.89167-9.44857,24.85476,24.85476,0,0,1,1.89167-9.71766,25.22622,25.22622,0,0,1,5.21841-7.91893,23.30735,23.30735,0,0,1,7.91893-5.30973,25.51257,25.51257,0,0,1,9.80734-1.88841q11.51639,0,18.35575,6.47735,6.83939,6.47979,6.83938,17.997,0,1.80034-.27071,4.67863a25.05088,25.05088,0,0,1-1.16761,5.5788,15.82339,15.82339,0,0,1-2.42983,4.68026,4.86743,4.86743,0,0,1-4.05078,1.97973,5.53428,5.53428,0,0,1-5.39779-5.39942,5.58219,5.58219,0,0,1,.53814-2.51951,12.498,12.498,0,0,0,1.44159-3.86977,24.54523,24.54523,0,0,0,.53815-5.3081q0-6.83694-3.77683-10.16774-3.78171-3.32919-10.61946-3.33a13.4911,13.4911,0,0,0-10.078,4.04916,13.735,13.735,0,0,0-3.95947,9.98836,12.66828,12.66828,0,0,0,4.40955,9.98835,86.92807,86.92807,0,0,0,12.14911,8.54841q4.315,2.69808,8.90717,5.75818a45.61724,45.61724,0,0,1,8.369,7.19815,35.44875,35.44875,0,0,1,6.20664,9.628A31.55913,31.55913,0,0,1,934.92,550.65164a42.42172,42.42172,0,0,1-2.42982,14.48761,36.40727,36.40727,0,0,1-6.83611,11.78708,29.9662,29.9662,0,0,1-10.89017,7.82761A36.46182,36.46182,0,0,1,900.18826,587.54416Z"/><path class="cls-2" d="M545.34959,417.87252a12.7685,12.7685,0,0,1-.9915-2.87827,53.18449,53.18449,0,0,1-1.16762-7.55854q-.36691-4.86046-.54141-10.97823-.181-6.11532-.35876-12.77857-.181-4.677-.17938-11.87677,0-7.19651-.54141-15.20677a138.70851,138.70851,0,0,0-2.07106-16.19663,65.97858,65.97858,0,0,0-4.40629-14.667A30.47622,30.47622,0,0,0,527.532,315.1123a17.27994,17.27994,0,0,0-11.8784-4.13885,23.22039,23.22039,0,0,0-13.76681,4.13885,37.5068,37.5068,0,0,0-10.078,10.88853,66.22508,66.22508,0,0,0-6.92744,15.29646,133.9562,133.9562,0,0,0-4.23017,17.27782c-.13128.74872-.21444,1.46829-.33593,2.21109q.42165-8.64369.43051-17.23848,0-3.23866-.09132-7.55853a72.56985,72.56985,0,0,0-.72079-8.72779,44.05513,44.05513,0,0,0-1.97973-8.27933,16.159,16.159,0,0,0-3.68877-6.20827,9.56127,9.56127,0,0,0-7.01875-2.87991,6.08513,6.08513,0,0,0-4.04753,1.44,5.22,5.22,0,0,0-.09132,7.64823,6.09248,6.09248,0,0,0,3.78008,1.71066,11.532,11.532,0,0,1,1.709,4.49761,52.44786,52.44786,0,0,1,.90017,6.56868q.26908,3.51018.35877,6.74968.08806,3.23868.09132,5.039,0,5.039-.2707,10.43845-.26908,5.3986-.62947,11.15761a3.57639,3.57639,0,0,0-2.15912-.53978,4.89659,4.89659,0,0,0-2.70053.80885,5.93043,5.93043,0,0,0-1.97973,2.06943,14.57482,14.57482,0,0,1-3.33.6311,69.71247,69.71247,0,0,1-7.10681.26907q-5.58207,0-11.06955-.36039-5.48911-.35713-10.8869-.89855.17612-3.24113.17938-6.2099v-5.84788q0-4.31986-.17938-10.078-.181-5.75819-.80886-11.78871a97.35219,97.35219,0,0,0-1.89167-11.51637,26.09606,26.09606,0,0,0-3.59744-8.9088,5.18217,5.18217,0,0,0-4.50088-2.34013,5.33669,5.33669,0,0,0-3.77682,1.52964,5.10208,5.10208,0,0,0-1.621,3.86978,5.35908,5.35908,0,0,0,.90018,2.87991,20.91632,20.91632,0,0,1,2.51788,7.28783q.90018,4.77,1.44159,10.16774.53814,5.3986.62947,10.52814.088,5.12952.09132,8.369,0,16.91742-1.35026,33.92291t-2.79185,33.56414a5.5555,5.5555,0,0,0,1.52964,3.95784,5.09245,5.09245,0,0,0,3.87141,1.621,6.06107,6.06107,0,0,0,3.41806-1.08119,4.735,4.735,0,0,0,1.97973-3.41806q.90018-11.33781,1.89167-22.94631.98334-11.60688,1.709-22.76531,5.57718.5406,11.15761.90018,5.57717.362,11.337.36039a54.3757,54.3757,0,0,0,10.97822-.81048,22.12776,22.12776,0,0,0,5.57718-1.89q-.53816,8.28013-1.07956,16.46734-.53816,8.18963-.53815,16.4657c0,1.44.02609,3.27129.08806,5.48911a29.26112,29.26112,0,0,0,.90018,6.479,13.366,13.366,0,0,0,2.6092,5.30973,6.19781,6.19781,0,0,0,5.039,2.15912,5.47072,5.47072,0,0,0,2.87991-10.07805,11.606,11.606,0,0,1-.53814-3.05929q-.181-2.15994-.17939-6.65836c0-4.47418.11008-8.98708.289-13.524.06605,2.22618.17409,4.64479.33716,7.31413q.26907,4.41282.98824,8.99849a59.13388,59.13388,0,0,0,1.89167,8.369,21.91244,21.91244,0,0,0,2.87991,6.20828,5.03672,5.03672,0,0,0,4.22691,2.42982,5.38471,5.38471,0,0,0,4.85964-7.73792,35.95736,35.95736,0,0,1-3.05929-10.97823,149.00818,149.00818,0,0,1-1.43832-16.01724q1.43832,0,4.76832.17938,3.32673.18345,7.82761.181,3.23867,0,7.46884-.181,4.22691-.17613,8.45708-.71916a49.6291,49.6291,0,0,0,8.09832-1.709,21.78921,21.78921,0,0,0,6.38929-2.9696q0,6.65836.2707,12.68725a100.64573,100.64573,0,0,0,.98824,10.70752q.362,2.34095.9915,5.22a22.94684,22.94684,0,0,0,1.88841,5.39779,11.91806,11.91806,0,0,0,3.33,4.13885,8.3535,8.3535,0,0,0,5.30973,1.621,5.0903,5.0903,0,0,0,3.86815-1.621,5.46943,5.46943,0,0,0-2.968-9.17788ZM530.4119,375.58059a5.14361,5.14361,0,0,0-3.50938,1.35027,5.66968,5.66968,0,0,0-1.88841,3.33,13.47155,13.47155,0,0,1-4.68026,1.709q-3.06255.63356-6.56867,1.07956a67.8214,67.8214,0,0,1-6.92744.53978q-3.42458.093-5.58043.08969-4.858,0-8.369-.17938a26.50683,26.50683,0,0,1-4.04753-.3604q.17612-3.59582.71753-9.53827.543-5.93676,1.71229-12.77695a128.62745,128.62745,0,0,1,3.14735-13.76681,70.57935,70.57935,0,0,1,4.85964-12.59756,29.78971,29.78971,0,0,1,6.92744-9.17787,13.983,13.983,0,0,1,9.44858-3.50938,8.27237,8.27237,0,0,1,6.66,3.32836,26.78489,26.78489,0,0,1,4.40956,8.45872,65.9291,65.9291,0,0,1,2.6092,11.42831q.90018,6.30123,1.35026,12.32686.4452,6.03214.53815,10.97822.08807,4.951.09132,7.46885A2.02458,2.02458,0,0,0,530.4119,375.58059Z"/><path class="cls-2" d="M694.8961,354.70533a57.088,57.088,0,0,0-2.15911-15.56716,41.52178,41.52178,0,0,0-6.56867-13.58743,34.34422,34.34422,0,0,0-11.06955-9.628,31.43694,31.43694,0,0,0-15.47584-3.68876,31.91967,31.91967,0,0,0-12.86663,2.87828,51.891,51.891,0,0,0-12.86664,8.27932,57.35216,57.35216,0,0,0-4.68026,4.94934q-2.88154,3.33162-5.58044,7.10845c-1.15294,1.61648-2.17256,3.233-3.12961,4.84945-.1005-.38629-.17653-.77543-.28518-1.16069a41.52178,41.52178,0,0,0-6.56867-13.58743,34.34422,34.34422,0,0,0-11.06955-9.628,31.43694,31.43694,0,0,0-15.47584-3.68876,31.9197,31.9197,0,0,0-12.86663,2.87828,51.891,51.891,0,0,0-12.86664,8.27932,57.35216,57.35216,0,0,0-4.68026,4.94934q-2.88155,3.33162-5.58043,7.10845a64.64091,64.64091,0,0,0-4.677,7.55854,14.52523,14.52523,0,0,0-1.97974,6.479,5.53135,5.53135,0,0,0,5.39779,5.39779,5.2968,5.2968,0,0,0,3.0593-.98986,5.01315,5.01315,0,0,0,1.97973-2.60921,41.88832,41.88832,0,0,1,4.951-9.628,55.2898,55.2898,0,0,1,7.64823-9.08818,42.47,42.47,0,0,1,9.35726-6.83775,22.20258,22.20258,0,0,1,21.23566,0,22.55474,22.55474,0,0,1,7.64823,7.19815,33.138,33.138,0,0,1,4.40955,10.16774,47.00826,47.00826,0,0,1,1.43832,11.60769,51.26143,51.26143,0,0,1-1.16762,10.43845,34.61869,34.61869,0,0,1-3.8714,10.25743,24.52351,24.52351,0,0,1-6.92744,7.73792,16.874,16.874,0,0,1-10.16937,3.05929,13.6643,13.6643,0,0,1-6.02726-1.43832,27.57553,27.57553,0,0,1-5.58043-3.6007,33.35478,33.35478,0,0,1-4.76832-4.858,50.80338,50.80338,0,0,1-3.59744-5.039q.17612-7.37752.45008-13.58743a108.31783,108.31783,0,0,1,.98824-11.06791,1.62225,1.62225,0,0,0,.17938-.71917,5.0969,5.0969,0,0,0-1.6177-3.86977,5.47194,5.47194,0,0,0-9.18114,2.9696,185.23891,185.23891,0,0,0-1.52965,21.146q-.26907,12.14748-.44682,27.98372-.18591,7.01793-.27071,14.21689-.093,7.20141-.2707,14.9377a5.54551,5.54551,0,0,0,1.52964,3.95946,4.88985,4.88985,0,0,0,3.68877,1.61934,5.54818,5.54818,0,0,0,3.95946-1.52965,4.88891,4.88891,0,0,0,1.621-3.68876q.35714-8.99686.35877-17.90729,0-8.9088.17938-17.90566,9.72092,9.17787,20.33548,9.17787a27.143,27.143,0,0,0,14.667-3.86977,33.22294,33.22294,0,0,0,10.26069-9.98836,45.49563,45.49563,0,0,0,6.02726-13.67712,58.28442,58.28442,0,0,0,1.97362-14.5775l.00285.0002a5.2968,5.2968,0,0,0,3.0593-.98986,5.01315,5.01315,0,0,0,1.97973-2.60921,41.88832,41.88832,0,0,1,4.951-9.628,55.2898,55.2898,0,0,1,7.64823-9.08818,42.47,42.47,0,0,1,9.35726-6.83775,22.20258,22.20258,0,0,1,21.23566,0,22.55471,22.55471,0,0,1,7.64822,7.19815,33.1378,33.1378,0,0,1,4.40956,10.16774,47.00826,47.00826,0,0,1,1.43832,11.60769,51.26143,51.26143,0,0,1-1.16762,10.43845,34.61869,34.61869,0,0,1-3.8714,10.25743,24.52351,24.52351,0,0,1-6.92744,7.73792,16.874,16.874,0,0,1-10.16937,3.05929,13.6643,13.6643,0,0,1-6.02726-1.43832,27.57588,27.57588,0,0,1-5.58044-3.6007,33.3558,33.3558,0,0,1-4.76832-4.858,50.80481,50.80481,0,0,1-3.59743-5.039q.17612-7.37752.45008-13.58743a108.31783,108.31783,0,0,1,.98824-11.06791,1.62225,1.62225,0,0,0,.17938-.71917,5.0969,5.0969,0,0,0-1.6177-3.86977,5.47194,5.47194,0,0,0-9.18114,2.9696,185.23891,185.23891,0,0,0-1.52965,21.146q-.26907,12.14748-.44682,27.98372-.18591,7.01793-.27071,14.21689-.093,7.20141-.2707,14.9377a5.54551,5.54551,0,0,0,1.52964,3.95946,4.88985,4.88985,0,0,0,3.68877,1.61934,5.5482,5.5482,0,0,0,3.95946-1.52965,4.88891,4.88891,0,0,0,1.621-3.68876q.35713-8.99686.35877-17.90729,0-8.9088.17938-17.90566,9.72091,9.17787,20.33548,9.17787a27.143,27.143,0,0,0,14.667-3.86977,33.223,33.223,0,0,0,10.26069-9.98836,45.49563,45.49563,0,0,0,6.02726-13.67712A58.21131,58.21131,0,0,0,694.8961,354.70533Z"/><path class="cls-2" d="M757.88555,341.02821q0-2.70052-.27071-6.56867a38.42545,38.42545,0,0,0-1.25894-7.46884,15.67625,15.67625,0,0,0-3.15061-6.11859,7.40491,7.40491,0,0,0-5.9392-2.51951q-4.14375,0-5.21841,3.77845-1.2622,4.14375-3.50938,10.52814a78.30207,78.30207,0,0,1-5.58043,12.32849,45.19356,45.19356,0,0,1-7.73629,10.25743,13.92144,13.92144,0,0,1-9.99,4.31986,7.7517,7.7517,0,0,1-5.57718-1.89,11.90177,11.90177,0,0,1-2.97123-4.58894,22.68976,22.68976,0,0,1-1.25894-5.9392q-.26907-3.23866-.2707-5.9392,0-4.1364.54141-9.71765.53814-5.57716,1.80035-12.59756a1.23,1.23,0,0,1,.08806-.53978,1.262,1.262,0,0,0,.09132-.53978,5.5372,5.5372,0,0,0-5.401-5.39942q-4.496,0-5.39779,4.49925-1.26221,7.01793-1.88841,13.04765a107.55471,107.55471,0,0,0-.62947,11.24729,61.27619,61.27619,0,0,0,.89691,10.43845,28.71387,28.71387,0,0,0,3.24194,9.35726,19.0408,19.0408,0,0,0,6.38928,6.74968,18.7583,18.7583,0,0,0,10.3455,2.60921,22.49842,22.49842,0,0,0,11.24893-2.78859,32.93535,32.93535,0,0,0,8.81911-7.28946,54.43131,54.43131,0,0,0,6.74805-9.89867q2.87664-5.3986,5.039-10.43682a126.8987,126.8987,0,0,1-1.709,20.87526,168.839,168.839,0,0,1-4.77159,20.5165,62.76544,62.76544,0,0,0-9.80734-4.13885,43.04894,43.04894,0,0,0-13.76681-1.97973,23.229,23.229,0,0,0-11.15761,2.69889,29.33781,29.33781,0,0,0-8.72779,7.10845,32.14546,32.14546,0,0,0-5.66849,9.98836,33.65632,33.65632,0,0,0-1.97974,11.337q0,9.71847,5.6685,16.10694,5.67012,6.39174,15.92593,6.38929a25.15714,25.15714,0,0,0,11.24893-2.51951,36.83823,36.83823,0,0,0,9.26919-6.479,53.93457,53.93457,0,0,0,7.46559-8.9088,72.94736,72.94736,0,0,0,5.67175-9.98673,4.90746,4.90746,0,0,0,4.677,2.6989,5.53718,5.53718,0,0,0,5.401-5.39943,9.56673,9.56673,0,0,0-1.89167-5.30809,43.71145,43.71145,0,0,0-3.33-4.40956,148.62231,148.62231,0,0,0,6.11858-23.93455A139.77656,139.77656,0,0,0,757.88555,341.02821Zm-25.10707,59.29742A51.28288,51.28288,0,0,1,727.11,408.874a32.0917,32.0917,0,0,1-7.19814,6.56867,15.6739,15.6739,0,0,1-8.81911,2.61084q-5.57718,0-8.18638-3.24031a13.05374,13.05374,0,0,1-2.61246-8.45871,23.76716,23.76716,0,0,1,4.32149-13.31672,18.43807,18.43807,0,0,1,5.30973-5.039,13.07256,13.07256,0,0,1,7.10682-1.97973,34.40752,34.40752,0,0,1,11.24893,1.709,39.44649,39.44649,0,0,1,8.5484,4.04916Q735.20993,395.73995,732.77848,400.32563Z"/><path class="cls-2" d="M667.54513,649.53884q0-2.70053-.27071-6.56867a38.42568,38.42568,0,0,0-1.25894-7.46885,15.676,15.676,0,0,0-3.15061-6.11858,7.40488,7.40488,0,0,0-5.9392-2.51951q-4.14375,0-5.21841,3.77845-1.26221,4.14374-3.50938,10.52814a78.302,78.302,0,0,1-5.58043,12.32848,45.19362,45.19362,0,0,1-7.73629,10.25744,13.92148,13.92148,0,0,1-9.99,4.31986,7.7517,7.7517,0,0,1-5.57718-1.89,11.90177,11.90177,0,0,1-2.97123-4.58894,22.69017,22.69017,0,0,1-1.25894-5.9392q-.26907-3.23868-.2707-5.9392,0-4.1364.54141-9.71765.53814-5.57718,1.80035-12.59757a1.22989,1.22989,0,0,1,.08806-.53977,1.262,1.262,0,0,0,.09132-.53978,5.53718,5.53718,0,0,0-5.401-5.39942q-4.496,0-5.39779,4.49924-1.26221,7.01795-1.88841,13.04765a107.555,107.555,0,0,0-.62947,11.2473,61.27628,61.27628,0,0,0,.89691,10.43845,28.71389,28.71389,0,0,0,3.24194,9.35725,19.04083,19.04083,0,0,0,6.38928,6.74969,18.7583,18.7583,0,0,0,10.3455,2.6092,22.49842,22.49842,0,0,0,11.24893-2.78859,32.935,32.935,0,0,0,8.81911-7.28946,54.43062,54.43062,0,0,0,6.74805-9.89867q2.87664-5.3986,5.039-10.43681a126.8987,126.8987,0,0,1-1.709,20.87526,168.839,168.839,0,0,1-4.77159,20.5165,62.76448,62.76448,0,0,0-9.80734-4.13885,43.04893,43.04893,0,0,0-13.76681-1.97974,23.229,23.229,0,0,0-11.15761,2.6989,29.33766,29.33766,0,0,0-8.72779,7.10845,32.14534,32.14534,0,0,0-5.66849,9.98836,33.65627,33.65627,0,0,0-1.97974,11.337,24.63353,24.63353,0,0,0,3.10108,12.51806,5.34585,5.34585,0,0,0-2.2009-1.00006,12.76886,12.76886,0,0,1-.9915-2.87828,53.18454,53.18454,0,0,1-1.16762-7.55853q-.36691-4.86046-.54141-10.97823-.181-6.11532-.35876-12.77858-.181-4.677-.17938-11.87676,0-7.19652-.54141-15.20677a138.70851,138.70851,0,0,0-2.07106-16.19663,65.97842,65.97842,0,0,0-4.40629-14.667,30.47626,30.47626,0,0,0-7.56017-10.61946,17.28,17.28,0,0,0-11.8784-4.13885,23.22046,23.22046,0,0,0-13.76681,4.13885,37.50693,37.50693,0,0,0-10.07805,10.88853,66.22527,66.22527,0,0,0-6.92744,15.29646,134.17785,134.17785,0,0,0-3.85428,15.486A95.9325,95.9325,0,0,0,534.28,654.30716a58.24169,58.24169,0,0,0-5.66849-16.376A34.99081,34.99081,0,0,0,517.99209,625.694q-6.65836-4.76751-16.73478-4.76995a33.00607,33.00607,0,0,0-13.49937,3.2403,60.82469,60.82469,0,0,0-13.40479,8.2777,50.77225,50.77225,0,0,0-10.34875,11.2473q-4.14373,6.20827-4.13885,12.14747a5.08952,5.08952,0,0,0,1.61771,3.86978,5.3304,5.3304,0,0,0,3.78008,1.52964,5.15535,5.15535,0,0,0,3.50938-1.35026,5.69023,5.69023,0,0,0,1.88841-3.32836,18.80649,18.80649,0,0,1,3.78009-8.72942,41.20537,41.20537,0,0,1,7.82761-8.007,45.24041,45.24041,0,0,1,9.71928-5.84951,23.41224,23.41224,0,0,1,9.2692-2.2488q7.37752,0,11.96646,4.04916a29.06621,29.06621,0,0,1,7.28946,10.07805,48.2904,48.2904,0,0,1,3.68876,12.86663,88.62186,88.62186,0,0,1,.9915,12.59756,82.2749,82.2749,0,0,1-.72079,9.89867,114.00152,114.00152,0,0,1-2.15912,11.87677,83.92123,83.92123,0,0,1-3.8714,12.14747,54.02784,54.02784,0,0,1-5.75656,10.79885,27.89057,27.89057,0,0,1-7.83087,7.64823,18.607,18.607,0,0,1-10.25744,2.8799,22.06878,22.06878,0,0,1-7.46884-1.08119q-2.9696-1.07874-3.86815-2.51951a3.58017,3.58017,0,0,0-.90017-1.25894,5.7032,5.7032,0,0,0,.72079-2.87991,5.359,5.359,0,0,0-.72079-2.69889,28.10041,28.10041,0,0,1-1.43832-4.67863,53.3842,53.3842,0,0,1-.90018-11.699,186.31119,186.31119,0,0,1,1.07956-20.06478q1.08119-9.99,2.87991-19.706a7.77568,7.77568,0,0,0-1.26221-4.40955,4.60379,4.60379,0,0,0-4.13885-1.89,5.023,5.023,0,0,0-3.418,1.26057,5.44759,5.44759,0,0,0-1.80035,3.23867q-1.98136,10.25907-3.05929,20.60619a199.91919,199.91919,0,0,0-1.07956,20.78557q0,1.98381.17938,5.30973.17611,3.33162.62947,6.83774a36.09787,36.09787,0,0,0,1.44159,6.56867,10.00457,10.00457,0,0,0,2.6092,4.49925,5.37575,5.37575,0,0,0-.90018,2.87991,6.82055,6.82055,0,0,0,2.51789,5.39942,22.41218,22.41218,0,0,0,5.9392,3.59907,32.35365,32.35365,0,0,0,7.01875,2.06942,35.68448,35.68448,0,0,0,5.9392.62948,28.21968,28.21968,0,0,0,19.25593-6.92907,52.34761,52.34761,0,0,0,12.77857-17.09681,89.36665,89.36665,0,0,0,5.95612-16.55214c-.00489.44581-.01692.9171-.01692,1.34537,0,1.07956.0261,2.82121.08806,5.22q.093,3.60071.362,8.007.26907,4.41281.98824,8.99849a59.13388,59.13388,0,0,0,1.89167,8.369,21.91237,21.91237,0,0,0,2.87991,6.20827,5.03673,5.03673,0,0,0,4.22691,2.42983,5.38471,5.38471,0,0,0,4.85964-7.73792,35.95754,35.95754,0,0,1-3.05929-10.97823,149.00838,149.00838,0,0,1-1.43832-16.01725q1.43832,0,4.76832.17938,3.32673.18346,7.82761.181,3.23867,0,7.46884-.181,4.22691-.17612,8.45709-.71916a49.62793,49.62793,0,0,0,8.09831-1.709,21.789,21.789,0,0,0,6.38929-2.9696q0,6.65837.2707,12.68726a100.646,100.646,0,0,0,.98824,10.70752q.362,2.34094.9915,5.22a22.94692,22.94692,0,0,0,1.88841,5.3978,11.91793,11.91793,0,0,0,3.33,4.13884,8.35345,8.35345,0,0,0,5.30972,1.621,5.0903,5.0903,0,0,0,3.86815-1.621,5.33767,5.33767,0,0,0,1.52965-3.77845,5.469,5.469,0,0,0-.2597-1.53759c.1912.2338.32839.49962.5304.72711q5.67012,6.39173,15.92593,6.38929a25.157,25.157,0,0,0,11.24893-2.51952,36.838,36.838,0,0,0,9.26919-6.479,53.93375,53.93375,0,0,0,7.46559-8.9088,72.9484,72.9484,0,0,0,5.67176-9.98672,4.90743,4.90743,0,0,0,4.677,2.69889,5.53718,5.53718,0,0,0,5.401-5.39942,9.56678,9.56678,0,0,0-1.89167-5.3081,43.71,43.71,0,0,0-3.33-4.40955,148.62216,148.62216,0,0,0,6.11858-23.93456A139.77645,139.77645,0,0,0,667.54513,649.53884Zm-82.42475,34.55238a5.14365,5.14365,0,0,0-3.50938,1.35026,5.66973,5.66973,0,0,0-1.88841,3.33,13.47176,13.47176,0,0,1-4.68026,1.709q-3.06255.63354-6.56867,1.07955a67.81855,67.81855,0,0,1-6.92744.53978q-3.42458.093-5.58043.08969-4.858,0-8.369-.17938a26.50752,26.50752,0,0,1-4.04753-.36039q.17611-3.59581.71753-9.53828.543-5.93675,1.71229-12.77694a128.62745,128.62745,0,0,1,3.14735-13.76681,70.57935,70.57935,0,0,1,4.85964-12.59756,29.78964,29.78964,0,0,1,6.92744-9.17788,13.983,13.983,0,0,1,9.44858-3.50938,8.27238,8.27238,0,0,1,6.66,3.32837,26.78473,26.78473,0,0,1,4.40956,8.45871,65.92953,65.92953,0,0,1,2.6092,11.42831q.90018,6.30123,1.35026,12.32686.4452,6.03216.53815,10.97823.08807,4.951.09132,7.46884A2.02472,2.02472,0,0,0,585.12038,684.09122Zm57.31768,24.745a51.283,51.283,0,0,1-5.66849,8.54841,32.0917,32.0917,0,0,1-7.19814,6.56867,15.674,15.674,0,0,1-8.81911,2.61083q-5.57718,0-8.18638-3.2403a13.05378,13.05378,0,0,1-2.61246-8.45871,23.76737,23.76737,0,0,1,4.32149-13.31673,18.438,18.438,0,0,1,5.30973-5.039,13.07256,13.07256,0,0,1,7.10682-1.97974,34.40778,34.40778,0,0,1,11.24893,1.709,39.447,39.447,0,0,1,8.5484,4.04916Q644.86951,704.25058,642.43806,708.83625Z"/><rect class="cls-1" x="703.83589" y="681.05258" width="162.536" height="7.79282"/><rect class="cls-1" x="265.21134" y="681.05258" width="162.536" height="7.79282"/><path class="cls-1" d="M347.3579,344.95606c1.63163-2.2545,3.19162-4.24708,4.57827-6.35388,6.4308-9.77018,16.85532-8.352,24.20352-2.82322,7.87481,5.92489,9.95524,14.00712,8.87586,23.32043-.15994,1.37985-.32636,2.76621-.35772,4.15252-.14311,6.32721-3.38365,11.1157-7.69156,15.30426-5.65005,5.49368-11.42773,10.85593-17.11214,16.31471-1.44475,1.38744-2.678,2.99613-4.1323,4.37213a17.68168,17.68168,0,0,1-3.629,2.75166c-1.41266.76536-2.59541.0698-2.53985-1.51362.15316-4.36414-2.49524-6.647-5.78368-8.73864-6.96269-4.42884-14.14655-8.5999-20.64967-13.63824-7.88006-6.10506-13.41113-14.149-14.92639-24.263-.56121-3.74574-.87287-7.9079.19087-11.43053,1.65863-5.49277,5.97925-9.13993,11.69894-10.48437C330.13251,329.56411,341.83651,335.1447,347.3579,344.95606Zm4.66476,46.26256a9.5728,9.5728,0,0,1,.87187-1.53724q6.09648-6.31887,12.22561-12.60625c2.4547-2.52118,5.25468-4.78333,7.32732-7.58519,6.9058-9.33528,4.58464-16.08769-.8734-24.68549-2.88143-4.53892-12.01191-6.70628-16.1271-2.041-3.156,3.578-4.5251,7.59669-3.45781,12.38569.207.929.05529,2.47835-.544,2.93245-1.18592.89861-2.36773-.0042-3.02769-1.16887-1.17572-2.07485-2.33036-4.17162-3.3249-6.33684a11.6645,11.6645,0,0,0-7.05752-6.58459c-5.38641-1.79853-9.59959.28481-13.2525,4.16109-6.35612,6.74475-6.50181,15.07582-.30917,21.786a29.46324,29.46324,0,0,0,3.80163,3.7267C335.98032,379.43671,343.75191,385.12,352.02266,391.21862Z"/><path class="cls-1" d="M852.26526,337.06515c5.71968,1.34444,10.04031,4.9916,11.69894,10.48438,1.06374,3.52263.75207,7.68479.19087,11.43053-1.51526,10.114-7.04634,18.158-14.92639,24.263-6.50312,5.03834-13.687,9.20939-20.64967,13.63823-3.28844,2.09168-5.93685,4.37451-5.78368,8.73864.05555,1.58342-1.12719,2.279-2.53985,1.51362a17.68133,17.68133,0,0,1-3.629-2.75166c-1.45435-1.376-2.68755-2.98468-4.1323-4.37212-5.68442-5.45879-11.46209-10.821-17.11214-16.31472-4.30791-4.18856-7.54845-8.97705-7.69156-15.30425-.03136-1.38631-.19779-2.77268-.35773-4.15253-1.07937-9.3133,1.00106-17.39553,8.87587-23.32042,7.3482-5.52876,17.77272-6.947,24.20352,2.82321,1.38665,2.1068,2.94664,4.09939,4.57826,6.35389C830.51179,340.2836,842.2158,334.703,852.26526,337.06515Zm-8.19191,41.73876a29.46322,29.46322,0,0,0,3.80163-3.7267c6.19264-6.71014,6.04695-15.0412-.30917-21.786-3.65291-3.87627-7.86609-5.95962-13.2525-4.16108a11.6645,11.6645,0,0,0-7.05752,6.58459c-.99454,2.16521-2.14918,4.262-3.3249,6.33683-.66,1.16468-1.84177,2.06749-3.02769,1.16887-.59933-.4541-.75109-2.0034-.544-2.93245,1.06728-4.789-.30177-8.8077-3.45781-12.38569-4.11519-4.66526-13.24567-2.49789-16.1271,2.041-5.45805,8.5978-7.7792,15.3502-.8734,24.68549,2.07264,2.80185,4.87262,5.064,7.32732,7.58519q6.12523,6.29107,12.22561,12.60625a9.5736,9.5736,0,0,1,.87187,1.53724C828.5964,390.25892,836.368,384.57561,844.07335,378.80391Z"/></g></svg>