<svg id="Layer_1" data-name="Layer 1" xmlns="http://www.w3.org/2000/svg" viewBox="0 0 1000 1000"><defs><style>.cls-1{fill:#404040;}</style></defs><title>Valentines_1</title><path class="cls-1" d="M218.992,289.9267c-25.8959-70.8624-43.698-114.70723-83.75449-91.03748s43.698,83.75448,67.36774,105.60348S226.08877,309.34652,218.992,289.9267Z"/><path class="cls-1" d="M184.39777,333.6247C134.1838,318.56483,29.634,297.2097,29.634,360.93594s100.92578,21.849,144.2315,7.283S215.73585,343.02342,184.39777,333.6247Z"/><path class="cls-1" d="M182.577,417.37918c-45.38128,21.21539-91.03749,54.6225-74.65074,83.75449s71.00924-20.02824,91.03749-54.62249S216.19975,401.66083,182.577,417.37918Z"/><path class="cls-1" d="M695.40934,349.61956c14.559-39.83976,24.56758-64.48989,47.08786-51.18245s-24.56758,47.08786-37.875,59.37165S691.41945,360.53764,695.40934,349.61956Z"/><path class="cls-1" d="M714.85868,374.18714c28.23094-8.46685,87.01018-20.473,87.01018,15.35474s-56.74179,12.28379-81.08883,4.0946S697.24,379.47123,714.85868,374.18714Z"/><path class="cls-1" d="M715.88232,421.275c25.51395,11.92757,51.18246,30.70947,41.96962,47.08786s-39.92232-11.26014-51.18246-30.70948S696.97919,412.43794,715.88232,421.275Z"/><path class="cls-1" d="M192.48082,588.24752a19.85115,19.85115,0,0,0-2.68107-4.5454,13.04723,13.04723,0,0,1,.32118-1.86408,13.31644,13.31644,0,0,0,.32094-1.86385q.27108-4.36257-8.30072-4.29281c-4.99883.02762-7.49848.03839-12.49825.05431q-10.7182.053-19.25957.31813c-9.88366.31837-16.87626.24557-20.919-.22964-7.44628-.87551-15.6529-2.20984-24.57162-3.96555-.28091,3.56665-.42114,5.35-.70181,8.91662a110.94624,110.94624,0,0,0,.86708,20.97009c5.51383.4312,8.27075.64329,13.78553,1.06-3.0994,41.91536-8.311,83.58423-13.5697,125.269-.14162.94129,1.29454,3.01231,4.319,6.18943a52.02554,52.02554,0,0,0,5.90758,5.48832,17.23373,17.23373,0,0,0,9.5784,3.75977q6.25416.24756,14.48242-6.6637A26.84015,26.84015,0,0,1,135.86228,722.17c1.2634-20.14211,1.76834-31.69415,1.99448-34.09759.28-2.97837.85936-6.25684,1.07449-9.29819,4.21415-.10955,6.32075-.16667,10.53373-.28465q10.89729-.321,18.66568.18048,1.65492.10815,4.98338.52741a43.999,43.999,0,0,0,4.986.52274c.31814-.01124.98109-.11167,1.88422-.18681,1.42446-.11869,2.17848-.73014,2.24824-1.84606q.11412-1.82523-1.68407-5.04448c-1.1988-2.14523-1.84583-3.76188-1.7124-4.5386a32.2437,32.2437,0,0,1,2.43879-5.75309,16.84039,16.84039,0,0,0,1.87251-5.89072q.42909-6.84935-6.93665-7.31519c-.76221-.04892-1.14332-.07327-1.90529-.12243q-10.69187.58641-19.00745.31954c-7.8742-.25563-12.63145-.431-14.25137-.478-.16481-.01147-.247-.01732-.41177-.029q6.25346-28.39494,8.01957-42.182c12.04364-1.40035,19.43514-2.03943,22.19229-1.85847q10.67361.70051,12.6366,2.90252c1.33784-.05056,3.11625-.80083,5.31579-2.16232,2.3496-1.45419,3.69961-2.85617,3.67971-3.947a10.13306,10.13306,0,0,0-1.63022-3.46107,7.17727,7.17727,0,0,1-1.28681-4.00159,7.05466,7.05466,0,0,1,1.45091-2.78642A6.8697,6.8697,0,0,0,192.48082,588.24752Z"/><path class="cls-1" d="M300.30636,617.84535c-4.65939-21.48626-17.60055-33.70313-38.88058-36.84092a38.50029,38.50029,0,0,0-13.70593,1.96194q-13.633,4.39065-18.42105,8.64413-4.63083-3.15359-6.30788-3.25015c-6.346-.35442-11.10633,4.90355-11.44436,13.29721a23.38917,23.38917,0,0,0,.8322,7.78618q-.43295.38274-3.95688,12.44581-9.6286,32.885-10.88019,53.01748-1.88878,31.60823,6.11171,48.57322c6.9102,14.61351,20.04425,23.75931,39.36936,27.27937,1.3856.07,2.07828.10464,3.46388.1737,9.44731.47076,18.55682-3.6123,27.21805-12.24566q13.896-13.85108,22.03872-37.204a146.13988,146.13988,0,0,0,8.05141-42.55187q.19242-4.82537.10113-7.72742Q303.29094,631.49522,300.30636,617.84535ZM276.268,658.57574a166.119,166.119,0,0,1-4.8661,32.94982c-6.32123,25.25-16.99963,40.00212-28.691,40.49114-7.50293.31392-13.14341-8.15-14.59643-23.15255a152.15137,152.15137,0,0,1-.53911-22.88169q.66294-12.28042,3.13825-28.43556,2.064-13.47431,3.21551-19.57443c.98553-1.0876,1.47783-1.63163,2.46219-2.71993a11.5001,11.5001,0,0,0,2.83394-4.94054q2.95168-12.16069,6.74259-19.14229,6.22431-11.43558,16.15971-10.94855,7.04106.3399,10.30643,4.91362Q278.2942,613.39255,276.268,658.57574Z"/><path class="cls-1" d="M431.96917,731.58058a.85666.85666,0,0,1,.07725.243C432.04993,731.60048,432.02348,731.52276,431.96917,731.58058Z"/><path class="cls-1" d="M433.57879,737.76744a12.40253,12.40253,0,0,0-2.84891-2.00127,24.66842,24.66842,0,0,1,1.23929-4.18559c-.18213-.67583-1.11124-1.0471-2.881-1.07542q-8.36417-.13414-8.39459,1.53729a104.34945,104.34945,0,0,1-14.10366-21.5153q-1.19985-2.46324-4.85089-14.38551-3.7291-12.167-3.69586-13.90585c21.01363-9.73735,31.60846-25.55855,31.9589-47.274-.05548-1.66792-.08334-2.50176-.13882-4.16968-.27763-8.2045-2.11971-13.95852-5.50424-16.968-4.44145-3.94916-7.7719-6.62813-9.61726-8.05329-3.74245-5.46046-6.38443-10.06016-8.16775-12.46547-2.15155-2.90206-8.80519-5.11167-18.34263-6.46168a56.10872,56.10872,0,0,0-6.45161-.567q-13.63407-.348-29.81929,4.44146-6.89429,2.025-22.66282,8.042c-12.62559,4.8036-19.49366,7.95356-20.54451,9.50537a55.47161,55.47161,0,0,1,3.01443,8.05094,27.63651,27.63651,0,0,1-1.34838,4.37263,15.41708,15.41708,0,0,0-1.08362,4.07884,7.04156,7.04156,0,0,0,2.08507,5.16574,8.38066,8.38066,0,0,0,5.00632,2.78478,6.999,6.999,0,0,1,2.1354-.73318,39.08364,39.08364,0,0,0,4.47-2.83558q5.746-4.063,9.63786-3.92972-3.51036,56.2242-7.09467,112.444c-1.24117.5335-2.104,1.04054-2.19557,1.3465-.927,3.09823,2.82575,7.08741,8.94612,8.24337a15.15282,15.15282,0,0,0,2.36551,3.0795c4.14533,4.81764,9.147,7.61108,14.055,7.469,6.40269-.18563,10.2355-2.94864,10.353-7.0125.04026-1.38724-.60584-3.62962-1.90459-6.71591-1.40947-3.35034-2.663-5.06063-3.78014-5.0941.751-19.40073,1.12552-29.10086,1.87345-48.50159,4.886-.84952,7.32806-1.277,12.20985-2.13774,2.59305,7.5755,3.89461,11.36243,6.5078,18.93465a208.094,208.094,0,0,0,9.22351,23.11228q9.854,20.42617,30.38228,25.06087c4.05965.07655,8.70945-1.68594,13.90094-5.2966A38.18187,38.18187,0,0,0,438.1593,739.588a3.66008,3.66008,0,0,0-1.31584.3893A13.61447,13.61447,0,0,1,433.57879,737.76744Zm-52.02024-76.00218c-11.54361,7.40578-20.49394,10.99069-26.76882,10.8013q1.143-20.712,7.15343-50.17582c-1.39613-3.45709-2.093-5.1861-3.48448-8.64413,6.3252-1.31631,9.48547-1.97926,15.802-3.31453a56.25043,56.25043,0,0,1,13.01559-1.09064c12.56731.30619,19.24459,6.11967,18.533,15.82167C404.74644,639.65045,395.8324,652.60823,381.55855,661.76526Z"/><path class="cls-1" d="M539.4246,723.31357a44.72324,44.72324,0,0,1-15.84414,15.65008c-6.788,3.97842-14.492,6.35494-21.74,5.93614a24.17579,24.17579,0,0,1-14.01635-5.84531q-11.208-9.56049-11.059-27.564a38.4419,38.4419,0,0,1,4.22984-17.96316,81.908,81.908,0,0,1,6.59019-9.66829q5.82366-7.64222,8.06078-7.63894,8.27637.03019,12.93483-.37478c10.452-.901,15.66951-4.18747,15.65991-9.81133q-.01545-8.947-10.79077-8.93862c-1.60869-.00047-2.4128-.00094-4.02172-.00281q-3.04017-.00316-9.13035,2.16771-5.52448,1.96778-5.0096,1.96685c-6.95538-7.4121-10.36612-15.5637-10.23222-24.39254.14069-9.26822,1.44552-16.81446,3.86207-22.5968q6.26154-14.86026,16.85028-14.83333,9.33225.01685,9.79213,6.05553c.54,7.04551-2.73187,24.76778.824,32.47531,1.3362,2.89667,9.5983,5.43167,16.04453,5.41037a23.64422,23.64422,0,0,0,11.55344-2.998c-.76525-8.33045-1.14635-12.49567-1.90575-20.82659q-.87048-9.75432-2.08882-19.71-.9084-7.45928-10.13016-11.14215a42.93794,42.93794,0,0,0-15.97781-2.77564c-5.33031-.00117-7.99546-.00539-13.32553-.02013a39.32034,39.32034,0,0,0-21.5078,6.35118,46.37661,46.37661,0,0,0-15.79944,16.73956,44.06987,44.06987,0,0,0-5.91624,22.201q.158,22.461,19.29375,35.14351a58.57257,58.57257,0,0,0-16.126,11.14051q-14.58916,14.33459-14.916,36.62462a56.1288,56.1288,0,0,0,7.42544,29.36608,48.62526,48.62526,0,0,0,22.64386,20.5431,50.0927,50.0927,0,0,0,21.81259,4.43584,59.59787,59.59787,0,0,0,30.45743-8.57461,52.90964,52.90964,0,0,0,20.66834-23.21364q9.08891-19.42016,8.92926-35.3858c-4.941,1.05576-7.4128,1.5806-12.3585,2.62489A36.73867,36.73867,0,0,1,539.4246,723.31357Z"/><path class="cls-1" d="M670.0773,685.03134q1.39122-25.30773.91671-41.05765c-.58336-14.1987-.87434-21.298-1.4556-35.49676q-1.23671-28.13159-.88651-16.29641-4.85836,1.21038-7.23653,1.88586-7.14465-2.03732-10.7299-2.86414c-1.43289,2.377-5.865,8.81479-13.35761,19.29211,1.77209,7.62489,2.66117,11.43687,4.44473,19.06036q.02563,1.06711.28138,3.11976.25353,2.05065.28138,3.11976.04881,2.0303-.2678,6.02908c-.21092,2.667-.5246,5.00772-.2671,6.03095a14.18314,14.18314,0,0,1,.4923,3.34332q1.669,13.63583,5.67676,22.99242c.03722,1.48345.05572,2.22529.0927,3.70874q.48915,19.56237-3.11461,33.83376-5.66212,22.40345-20.12314,22.71432-12.97321.26477-16.40878-22.76793a116.92866,116.92866,0,0,1-1.46168-18.32272c.03254-4.90637.40709-12.51885.34389-22.0928q-.09482-14.355.2678-23.15723.90138-22.0228,8.43837-37.76957c-.63721-6.57592-.95487-9.86376-1.5888-16.43991q-.25563-2.636-5.71656-3.40115a8.93067,8.93067,0,0,0-3.04181.86662,8.07737,8.07737,0,0,1-2.93974.86287c-.6351-.03629-1.56421-.7175-2.65275-1.8875q-1.63279-1.75183-2.8529-1.73369a23.9733,23.9733,0,0,0-5.887,1.20722c-6.89452,2.067-10.95978,3.61042-11.14917,4.21649-1.2133,3.88454-.2053,10.86357-.83875,14.80055a28.87,28.87,0,0,1-2.1258,5.87083,13.73107,13.73107,0,0,0-1.52021,5.81254,23.03812,23.03812,0,0,0,2.28639,7.08835c1.53729,3.40232,2.86905,5.38719,3.97351,5.95-.61988,4.58215-.93076,6.87322-1.55368,11.45537q-4.05638,29.83461-3.87753,47.51628.46211,40.14831,17.9,55.7765,11.74528,10.44958,25.69316,10.18494c1.0293-.0199,1.54384-.0302,2.57315-.05056,1.41673-2.77354,2.12416-4.16054,3.53739-6.93479q16.419-5.72463,24.49343-17.64128,3.23013-4.75759,7.72578-16.46917,4.78008-12.48127,4.63786-17.15765a7.90432,7.90432,0,0,0,4.70224.68075,9.62155,9.62155,0,0,0,3.58865-1.78239c-.20249-1.23437-.30362-1.85168-.50588-3.086,1.65083-1.87813,2.47554-2.81755,4.12332-4.69709C673.02172,688.82014,672.03947,687.55767,670.0773,685.03134Z"/><path class="cls-1" d="M787.94966,696.98719a36.73284,36.73284,0,0,1-4.849,19.68468,44.735,44.735,0,0,1-15.1215,16.35424c-6.6019,4.28274-14.19215,7.00688-21.45349,6.91793a24.18231,24.18231,0,0,1-14.2701-5.2025q-11.63328-9.04114-12.30232-27.0331a38.43448,38.43448,0,0,1,3.41051-18.13686,81.8125,81.8125,0,0,1,6.14519-9.95787q5.47146-7.89855,7.707-7.99733,8.27112-.34587,12.90745-.96213c10.40288-1.37483,15.467-4.89512,15.202-10.51266q-.42173-8.93722-11.1885-8.43907c-1.60752.07257-2.41116.10862-4.01868.18q-3.03807.13484-9.02477,2.58041-5.43074,2.21675-4.916,2.19228c-7.28663-7.08835-11.0649-15.07655-11.332-23.90234-.28068-9.26518.68028-16.86292,2.83206-22.749q5.58138-15.12921,16.163-15.58359,9.32559-.40733,10.05947,5.60443c.85959,7.01344-1.60378,24.867,2.29856,32.40414,1.46683,2.833,9.838,4.98971,16.27839,4.67555a23.65759,23.65759,0,0,0,11.40878-3.52006c-1.14308-8.28714-1.7131-12.4306-2.85032-20.7182q-1.31327-9.70516-2.98306-19.5948-1.24654-7.41011-10.629-10.67021a42.9628,42.9628,0,0,0-16.09158-2.04668c-5.3261.24089-7.98938.35793-13.31594.58547a39.33256,39.33256,0,0,0-21.20114,7.32174,46.378,46.378,0,0,0-15.02552,17.4402,44.06674,44.06674,0,0,0-4.90238,22.447q1.17807,22.43048,20.87341,34.23031A58.59009,58.59009,0,0,0,702.15442,674.441Q688.23,689.42375,688.916,711.70558a56.123,56.123,0,0,0,8.753,28.99832,48.62491,48.62491,0,0,0,23.55706,19.493,50.10589,50.10589,0,0,0,21.99589,3.44024,59.62625,59.62625,0,0,0,30.044-9.94967,52.9204,52.9204,0,0,0,19.599-24.12895q8.20017-19.81343,7.31518-35.75543C795.29036,695.08237,792.84432,695.71911,787.94966,696.98719Z"/><path class="cls-1" d="M936.07345,724.0601a13.64094,13.64094,0,0,1-3.458-1.89757,12.41061,12.41061,0,0,0-3.02425-1.72831,24.64464,24.64464,0,0,1,.84671-4.28274c-.24416-.65569-1.20418-.93941-2.97018-.80341q-8.3466.6426-8.22159,2.30934a104.32837,104.32837,0,0,1-16.04687-20.11448q-1.42388-2.34141-6.167-13.87355-4.84327-11.7688-4.97144-13.50321c20.03208-11.64428,29.12239-28.38055,27.458-50.0349-.21-1.6555-.31486-2.48326-.52484-4.13877-1.0375-8.14341-3.40653-13.70172-7.05792-16.3842-4.79142-3.52006-8.35807-5.87832-10.3289-7.12627-4.235-5.08989-7.29388-9.42483-9.29351-11.65411-2.4128-2.69-9.24646-4.2729-18.87285-4.73243a56.14257,56.14257,0,0,0-6.47947.03371q-13.6144.91788-29.29164,7.18761-6.67939,2.65531-21.82664,10.10862c-12.12908,5.95346-18.67644,9.72681-19.5791,11.36921a55.48157,55.48157,0,0,1,3.74853,7.73679,27.6548,27.6548,0,0,1-.93754,4.47891,15.41659,15.41659,0,0,0-.70088,4.16195,7.04,7.04,0,0,0,2.55537,4.9499,8.38332,8.38332,0,0,0,5.24392,2.30887,7.00035,7.00035,0,0,1,2.05862-.92818,39.133,39.133,0,0,0,4.18887-3.23775q5.34611-4.57851,9.23452-4.80664,1.71672,56.30778,3.35947,112.61767c-1.18685.64633-1.99916,1.23109-2.06189,1.54431-.63557,3.171,3.47137,6.7948,9.67438,7.37816a15.14131,15.14131,0,0,0,2.64151,2.847c4.57535,4.41266,9.816,6.73042,14.69147,6.13348,6.36031-.77836,9.922-3.885,9.6622-7.94232-.08849-1.38489-.94012-3.558-2.51978-6.51037-1.7145-3.20521-3.12187-4.79189-4.23756-4.72166-1.05084-19.38669-1.57709-29.08-2.631-48.46647,4.78814-1.299,7.18081-1.95117,11.964-3.26093,3.2855,7.30231,4.933,10.9523,8.23822,18.24969A207.9893,207.9893,0,0,0,881.768,719.48451q11.71019,19.42437,32.59236,22.13493c4.05193-.30034,8.52124-2.48677,13.359-6.56327a38.19476,38.19476,0,0,0,9.6292-11.50593A3.66332,3.66332,0,0,0,936.07345,724.0601Zm-62.333-72.74735c-10.813,8.44446-19.396,12.844-25.66366,13.23728q-.782-20.7285,2.473-50.62293c-1.71122-3.31289-2.5659-4.96957-4.27244-8.28387,6.17843-1.89709,9.26495-2.85032,15.43332-4.76544a56.30552,56.30552,0,0,1,12.86483-2.29318c12.54811-.86076,19.7397,4.30873,19.93025,14.03461C894.79037,627.14214,887.1107,640.87125,873.74045,651.31275Z"/><path class="cls-1" d="M930.43788,716.15148c.02973.08006.09247.143.09949.2348C930.52005,716.16389,930.48657,716.08875,930.43788,716.15148Z"/><path class="cls-1" d="M372.20792,356.53622a43.54146,43.54146,0,0,0-9.59478,20.9434,3.65891,3.65891,0,0,0-3.2422,2.16209q-3.51456,6.2215-6.081,17.29763a157.947,157.947,0,0,0-3.51375,24.32231,163.66946,163.66946,0,0,0,.405,27.29576,89.69585,89.69585,0,0,0,6.21588,25.80927,56.79177,56.79177,0,0,0,13.64882,19.99813q8.77815,8.24688,22.56543,9.8647a27.05988,27.05988,0,0,0,15.27062-2.16185,35.87531,35.87531,0,0,0,12.16022-9.45831,58.6798,58.6798,0,0,0,9.05473-15.13555,117.40818,117.40818,0,0,0,6.21612-19.45808A61.07665,61.07665,0,0,0,452.744,446.66547c1.57849-1.40877,3.19655-2.99593,4.84761-4.7329a157.87059,157.87059,0,0,0,5.15052,29.867q3.91487,13.78191,11.48533,22.16,7.56285,8.38067,19.99977,7.568a21.17323,21.17323,0,0,0,14.45714-6.486,54.31551,54.31551,0,0,0,10.94691-16.08105,124.25216,124.25216,0,0,0,7.70121-22.29506q3.10443-12.42859,5.27061-25.674a34.59676,34.59676,0,0,0,19.45808-6.35119,77.44333,77.44333,0,0,0,6.27909-4.95786c-.45274,4.56107-.751,8.79114-.87808,12.65907q-.27179,8.10888-.27015,11.89194,0,1.89441.54029,6.891.53829,5.00411,1.89194,11.62016a81.93465,81.93465,0,0,0,4.19706,13.78389,56.13694,56.13694,0,0,0,7.17122,12.97206,34.16907,34.16907,0,0,0,10.81816,9.45995,27.4753,27.4753,0,0,0,15.41224,3.10712,35.545,35.545,0,0,0,18.24291-6.08105A64.81978,64.81978,0,0,0,630.06,482.47451a95.476,95.476,0,0,0,10.945-17.296,172.826,172.826,0,0,0,7.56613-17.56777,128.6638,128.6638,0,0,0,4.32394-14.05216,60.26047,60.26047,0,0,0,1.35189-6.6211q-.54567-2.69957-4.05379-2.83885-3.51492-.13344-4.054,1.21682-.81009,3.51491-2.29716,9.59315a109.24007,109.24007,0,0,1-4.18887,13.10876q-2.70448,7.02948-6.351,14.3223a80.097,80.097,0,0,1-8.378,13.37868,44.699,44.699,0,0,1-10.67513,9.99836,26.94277,26.94277,0,0,1-12.97206,4.459q-2.43268.546-7.56777-2.837-5.13507-3.37656-8.918-13.64717a56.81787,56.81787,0,0,0,11.6218-1.622q7.296-1.62261,14.45878-7.70284,7.15554-6.081,12.97206-17.70121,5.8068-11.61608,7.7012-31.88985a111.84863,111.84863,0,0,0-.405-21.08011,82.7096,82.7096,0,0,0-5.13414-21.62017,44.59443,44.59443,0,0,0-10.81-16.48579q-6.8936-6.48591-17.70285-5.40428a26.36984,26.36984,0,0,0-16.35915,7.02608,53.48413,53.48413,0,0,0-11.22829,15.53912,94.58928,94.58928,0,0,0-7.16935,20.26992c-.70532,3.00271-1.28517,5.93-1.83763,8.84124a66.6609,66.6609,0,0,1-11.26949,12.1038,24.52639,24.52639,0,0,1-15.40569,5.94433q1.35118-11.61606,1.89194-22.70027.53831-11.08023.81184-19.99977.264-8.919,0-14.86424-.27424-5.93988-.5417-7.836-1.62051-8.10888-5.67442-11.21682a13.51924,13.51924,0,0,0-9.18957-2.83721,14.8823,14.8823,0,0,0-11.62017,6.21612,38.978,38.978,0,0,0-6.75617,14.99906,85.37634,85.37634,0,0,0-2.16208,19.86306,89.04,89.04,0,0,0,2.29716,20.53983,61.72567,61.72567,0,0,0,6.75593,17.296q4.45843,7.57059,10.945,10-1.62016,10.81089-3.919,21.755a161.95337,161.95337,0,0,1-5.404,19.8633,65.17546,65.17546,0,0,1-6.89125,14.59385q-3.78881,5.67584-8.378,5.67583-3.517,0-6.08081-4.99907a48.16271,48.16271,0,0,1-4.054-13.51374q-1.48919-8.51128-2.432-19.59315-.9509-11.07743-1.21682-22.70192-.27179-11.61606-.27015-23.10689V370.45354a78.45224,78.45224,0,0,0-.27014-8.378q-1.084-4.32008-5.8109-7.56613a37.30123,37.30123,0,0,0-9.8647-4.86586,27.85,27.85,0,0,0-9.18816-1.48533q-4.05322.13836-3.78389,2.027a161.51035,161.51035,0,0,1,1.89194,24.18723q.26652,14.99966.54169,32.02492c.10324,6.65013.37034,13.34192.72335,20.05455-5.72709,7.7101-11.9081,13.48167-18.55939,17.24145a182.98411,182.98411,0,0,0,.26991-35.809,124.94106,124.94106,0,0,0-7.02608-32.70168q-5.40932-14.454-14.59409-22.97206a25.21334,25.21334,0,0,0-21.89171-6.62109Q379.63512,347.75573,372.20792,356.53622Zm208.49625,86.61551q0-5.94024.68-14.18724.68437-8.2423,1.7735-17.29786,1.08923-9.04959,2.58345-17.836a150.04218,150.04218,0,0,1,3.54347-15.94433,77.8639,77.8639,0,0,1,4.22211-11.75665q2.18094-4.59184,4.90683-5.13413,8.71635-1.623,13.06921,12.02514,4.352,13.65128,3.00341,43.10667-1.08922,18.38148-4.90683,28.64625-3.81373,10.27506-8.71553,15.26921-4.903,5.00409-9.94569,6.08081a29.2779,29.2779,0,0,1-8.3054.8102,75.921,75.921,0,0,1-1.63351-10.53842A103.57387,103.57387,0,0,1,580.70417,443.15173Zm-63.77665-34.9972a64.62391,64.62391,0,0,1-3.24219-12.97206,98.24909,98.24909,0,0,1-1.082-14.72892,82.96043,82.96043,0,0,1,1.082-13.919,43.61263,43.61263,0,0,1,2.972-10.54006q1.887-4.18629,4.59408-4.72892,3.24314-.53865,4.32394,4.05379a47.11261,47.11261,0,0,1,1.082,10.67513q0,6.081-.54,12.02679-.546,5.9476-.54193,8.10642,0,1.35574-.67512,9.99977-.67665,8.65209-2.29693,20.81A20.61479,20.61479,0,0,1,516.92752,408.15453ZM410.584,483.14963q-4.194,8.65209-9.86493,10.54006-7.02948,2.4327-12.16022-1.622-5.13753-4.05321-8.2429-12.16022a81.215,81.215,0,0,1-4.45924-19.18794,137.30784,137.30784,0,0,1-.8116-22.972A56.07521,56.07521,0,0,0,393.693,455.17851a48.828,48.828,0,0,0,23.242,6.351Q414.7688,474.50164,410.584,483.14963Zm-2.97228-116.75012a77.78116,77.78116,0,0,1,8.10642,22.56685,177.97489,177.97489,0,0,1,3.514,29.323,227.77359,227.77359,0,0,1-.67512,30.53819q-12.97218-.26686-23.78389-9.32324-10.8109-9.05205-16.75431-26.08059a88.59728,88.59728,0,0,1,3.64718-14.05239,60.1504,60.1504,0,0,1,5.27085-11.35166q1.07694-1.62016-3.10876-4.32417a56.71114,56.71114,0,0,0-9.59315-4.864q1.07694-4.05321,2.70214-8.378a30.16387,30.16387,0,0,1,4.18887-7.70284,21.06836,21.06836,0,0,1,5.946-5.40428,11.72411,11.72411,0,0,1,7.70121-1.487Q402.336,357.21557,407.61175,366.39951Z"/><path class="cls-1" d="M246.67649,549.36179c10.98788-5.76806,60.41647-15.96213,72.48891-17.502,36.55134-4.66173,143.46509-19.61,292.56575,17.785,17.07922,4.28344,86.73161,16.30039,129.4443,16.30039,176.90721,0,188.04257-175.45021,162.16822-257.92976-34.89256-111.22621-138.197-106.9114-191.89247-92.5287s-32.12136,15.34155-43.153-27.27c-20.96681-80.98814-237.30964-57.58792-248.84225-2.93366,53.24244-44.58637,225.83484-45.0658,223.43773,33.55963-1.96943,64.59972,21.09462,38.35387,96.84351,22.05348,161.08624-26.84771,140.63093,236.27611,48.58164,272.632S604.15261,522.269,519.63037,511.503c-91.99778-11.71825-176.96644.26546-202.95783,4.88857q.264-10.00328.405-30.81.13343-20.80646.67512-47.4292.53865-26.61573,2.16209-56.61878,1.62261-29.99719,5.13577-58.37423a188.627,188.627,0,0,0,25.269-13.78389,117.90276,117.90276,0,0,0,22.70027-19.05287,92.68371,92.68371,0,0,0,16.4858-24.99743,82.26,82.26,0,0,0,6.89124-31.61994,48.29647,48.29647,0,0,0-.8102-11.08175,38.5553,38.5553,0,0,0-3.78389-11.08011,22.37106,22.37106,0,0,0-7.29622-8.24289,18.48242,18.48242,0,0,0-11.35166-2.83722,38.41747,38.41747,0,0,0-22.02515,8.78319q-9.86739,7.97544-17.70121,21.48509a174.99207,174.99207,0,0,0-13.919,31.3498,333.66152,333.66152,0,0,0-10.40475,38.106,192.6123,192.6123,0,0,1-20.40335,5.13414q-9.86984,1.89474-17.56777,2.97392-7.70121,1.08186-12.70191,1.35025a49.08006,49.08006,0,0,0-6.08105.54169q-2.16618.27179-1.48532,4.99907a48.71042,48.71042,0,0,0,2.83721,10.405,49.82267,49.82267,0,0,0,5.27085,10.26991q3.10233,4.59924,5.53912,4.59409,1.623,0,12.29693-1.89194a189.53364,189.53364,0,0,0,26.07918-7.02609q-3.51458,21.35249-5.80927,42.97019-2.29961,21.62392-3.78388,41.48323-1.48954,19.8654-2.16209,37.1607-.67911,17.29962-1.08175,29.728-.40521,12.43388-.54005,19.32324-.13835,6.89078-.40521,6.08081a14.02725,14.02725,0,0,0,4.1891,5.67583,62.20446,62.20446,0,0,0,8.44656,5.53537,274.05074,274.05074,0,0,0-30.21,9.20362c-9.56974,3.4915-19.09243,7.42123-28.09941,13.3672a20.26927,20.26927,0,0,0-1.89194,2.56707,11.42532,11.42532,0,0,0-1.75524,3.919q-.40767,1.887.81,2.56707Q241.81075,551.79039,246.67649,549.36179Zm89.45412-286.4702a172.21631,172.21631,0,0,1,8.51305-24.05216,70.97613,70.97613,0,0,1,10.67489-17.43106,28.09574,28.09574,0,0,1,13.2422-9.0531,6.71835,6.71835,0,0,1,5.946.54005,9.72467,9.72467,0,0,1,3.64882,4.86423,28.95788,28.95788,0,0,1,1.62016,7.29763,32.42262,32.42262,0,0,1-.13484,7.83628,73.71607,73.71607,0,0,1-6.89124,20.405,77.90561,77.90561,0,0,1-11.35,16.351,83.36554,83.36554,0,0,1-14.72893,12.837,112.866,112.866,0,0,1-17.02608,9.59315A291.61209,291.61209,0,0,1,336.13061,262.89159Z"/><path class="cls-1" d="M745.87854,850.56294c8.58321-8.96242,27.32574-18.06034,38.67349-27.64675-6.0839-.6657-14.16768-.15153-18.42772-.02142-91.313,2.79443-182.60676,7.10861-273.93765,8.124-61.83713.68766-123.74-2.87435-185.57985-5.36853-13.39627-.54017-22.89778,1.90289-31.59238,13.22458C268.01624,847.98755,252.248,869.83,245.688,863.1529s16.5839-23.39421,21.64447-36.05431c-32.30146-11.922-69.7031,24.43138-73.96368,27.38373s-7.40691-3.2401-3.46155-6.47631,17.57885-15.18173,32.48076-24.2551c-20.51165-.55462-47.48066-1.37528-52.68543-1.42461s-5.88625-6.54622-.25073-7.08088,34.03906-1.0787,48.18205-.839c-10.27689-8.58379-26.048-23.0087-32.56049-28.26419s-4.55669-10.9424,5.07555-4.17739c11.28166,7.92345,39.111,36.9961,70.15361,29.08562-14.351-11.9547-37.54407-30.481-42.78315-35.43623s-3.01014-11.4996,4.669-7.00609,12.76163,9.20326,18.442,14.28263c24.25767,21.69188,53.87183,30.46877,87.03109,30.437,67.45348-.06554,132.75853,4.79848,200.21137,4.676,69.77489-.12707,139.55477-1.23559,209.31654-2.68241,19.3426-.40151,35.85638-1.99362,50.7185-3.5917-15.02193-7.19135-34.5467-17.76529-41.96365-19.80332s-5.36493-7.83572,1.19993-6.16159,105.89087,20.38791,108.879,24.32688c1.59967,2.10868-100.01292,43.04846-105.59787,46.04162C744.12066,859.51217,737.29534,859.52536,745.87854,850.56294Z"/></svg>