<svg xmlns="http://www.w3.org/2000/svg" viewBox="0 0 1000 1000"><defs><style>.cls-1{fill:#404040;}</style></defs><title>Valentines_7</title><g id="Layer_4" data-name="Layer 4"><path class="cls-1" d="M371.99373,159.76076A34.68314,34.68314,0,0,1,386.73491,174.726a45.455,45.455,0,0,1,4.78739,20.27818,65.05663,65.05663,0,0,1-15.4133,41.60076,54.5304,54.5304,0,0,1-17.73288,13.61761,41.87092,41.87092,0,0,1-22.746,3.81711,34.97469,34.97469,0,0,1-12.19588-3.1433,29.575,29.575,0,0,1-9.05426-6.58477,31.91466,31.91466,0,0,1-5.98676-9.35242,42.51944,42.51944,0,0,1-2.9917-11.59788q-9.42738-2.39286-13.69342-8.6045a23.57238,23.57238,0,0,1-4.11527-14.14149,40.03344,40.03344,0,0,1,4.33931-16.611,56.23432,56.23432,0,0,1,11.448-15.78726,61.40111,61.40111,0,0,1,17.21068-11.74781,50.90736,50.90736,0,0,1,21.77235-4.63915,59.09387,59.09387,0,0,1,29.6306,7.93069Zm-67.042,58.36337a47.2587,47.2587,0,0,1,.59969-9.05427,53.12269,53.12269,0,0,1,2.24377-9.05258,5.48252,5.48252,0,0,1,.29985-.74961c.0977-.19877.19877-.39754.29816-.598a29.06458,29.06458,0,0,1,2.91926-6.135,31.09939,31.09939,0,0,1,4.26519-5.23884l.44808-.44808.89784-.74792.44977-.44977a4.7174,4.7174,0,0,0,.52388-.29816,4.78723,4.78723,0,0,1,.52389-.29984,1.68618,1.68618,0,0,0,.44808-.29984,1.70863,1.70863,0,0,1,.44976-.29816l1.196-.44977a14.40225,14.40225,0,0,1,2.69354-.89784,12.0719,12.0719,0,0,1,4.63915,0,15.54268,15.54268,0,0,1,4.48923,1.57165,10.7634,10.7634,0,0,1,3.44315,2.84346A6.04281,6.04281,0,0,1,337.126,191.337a14.59412,14.59412,0,0,1-1.42173,4.41511q-1.27349,2.76934-2.84346,6.20912a79.43724,79.43724,0,0,0-2.91758,7.4085,31.9898,31.9898,0,0,0-1.64577,7.85657q2.9917-.74793,6.28493-1.8715,3.28985-1.12188,7.03284-2.76765a2.05314,2.05314,0,0,1,1.8715,0,2.33958,2.33958,0,0,1,1.12188,1.27181,2.88854,2.88854,0,0,1,.07412,1.72157,1.99879,1.99879,0,0,1-1.27181,1.34593,59.54,59.54,0,0,1-7.93069,3.44146q-3.89375,1.34676-7.48261,2.39538.14655,12.12091,4.41511,18.78064a13.39424,13.39424,0,0,0,11.896,6.65889,19.82726,19.82726,0,0,0,5.68692-.89785,32.85517,32.85517,0,0,0,12.19588-6.58476,51.58576,51.58576,0,0,0,10.102-11.37216,66.096,66.096,0,0,0,7.10865-14.44134,61.32286,61.32286,0,0,0,3.36735-15.78726,46.39077,46.39077,0,0,0-1.34761-15.33919,32.15515,32.15515,0,0,0-6.88461-13.09541,34.84848,34.84848,0,0,0-13.24365-9.12838q-8.3055-3.43894-20.42642-3.44147a40.51966,40.51966,0,0,0-18.10684,4.04115A53.97471,53.97471,0,0,0,308.245,172.48221c-.10107.09939-.374.374-.82373.822q-.67212.67464-1.34761,1.49753-.67212.82372-1.34593,1.57a6.23167,6.23167,0,0,0-.82372,1.04777,20.67262,20.67262,0,0,0-1.34593,1.79569q-.60138.89952-1.19769,1.79569a8.604,8.604,0,0,0-1.19769,1.79569,2.33054,2.33054,0,0,1-.598.89785,27.7986,27.7986,0,0,0-1.34593,2.76934q-.60136,1.42257-1.34761,2.91758l-.598,1.79569a8.84221,8.84221,0,0,0-.44977,1.42173,9.43722,9.43722,0,0,1-.44808,1.42173l-.44977,1.79569a24.17915,24.17915,0,0,0,.598,13.69342Q297.76982,215.57882,304.95175,218.12413Z"/><path class="cls-1" d="M436.93849,153.77569a16.56357,16.56357,0,0,1,8.6803,6.509,26.72159,26.72159,0,0,1,3.7413,10.92407,81.6599,81.6599,0,0,1,.44809,15.18927q-.44724,8.682-1.34593,19.15629,1.34676-4.49007,3.6655-10.62591,2.31959-6.135,5.38708-12.64565,3.0675-6.509,6.73469-12.644a74.72976,74.72976,0,0,1,7.63253-10.7,30.75546,30.75546,0,0,1,8.15473-6.88461,10.6962,10.6962,0,0,1,8.38046-1.12188q7.33015,1.94561,9.80219,8.53038a41.82781,41.82781,0,0,1,2.24545,15.71314,123.73865,123.73865,0,0,1-2.24545,19.82842q-2.0189,10.70088-3.74131,21.02442a157.5572,157.5572,0,0,0-2.09385,19.30453q-.37649,8.98014,2.46781,14.51546.74793,1.20021-.52388,2.61942a4.29017,4.29017,0,0,1-3.36566,1.42173,3.87111,3.87111,0,0,1-2.84346-1.19769,44.32362,44.32362,0,0,1-11.52376-19.90253,70.65622,70.65622,0,0,1-2.24377-22.89592,134.40978,134.40978,0,0,1,2.39369-17.06076q1.79653-8.826,3.29154-16.08711,1.49585-7.25688,2.02142-11.896.523-4.63662-1.27181-4.63915-1.20021,0-3.1433,1.94561a31.62229,31.62229,0,0,0-6.73469,9.35243,118.736,118.736,0,0,0-6.20912,14.51545q-2.91841,8.159-5.6128,17.2848-2.69353,9.12922-4.86319,17.65876-2.1705,8.53038-3.81543,15.63735-1.65,7.11033-2.69354,11.1498a7.08044,7.08044,0,0,1-2.46949,3.44146,16.127,16.127,0,0,1-4.11527,2.3937,14.58853,14.58853,0,0,1-4.48923,1.04776,7.66706,7.66706,0,0,1-3.59139-.44808c-.89784-.39754-1.77379-.82372-2.61941-1.27349a6.27214,6.27214,0,0,1-2.31958-2.39369,17.17474,17.17474,0,0,1-1.79569-4.939,46.84982,46.84982,0,0,1-.89785-8.97846q-.1516-5.75852.52389-14.51546.67212-8.75526,2.31957-21.62411,1.19517-8.97762,2.84346-16.0113a111.92265,111.92265,0,0,0,2.24377-12.12177,17.3103,17.3103,0,0,0-.598-8.15641q-1.20021-3.065-5.68692-4.11527a10.46835,10.46835,0,0,0-7.70665,1.19769A16.55325,16.55325,0,0,0,410.97507,175.1a13.94679,13.94679,0,0,0,2.4695,8.6045,5.57361,5.57361,0,0,1,.374,5.68692,6.01353,6.01353,0,0,1-1.94561,2.24545,5.45584,5.45584,0,0,1-3.21742.89785,9.21588,9.21588,0,0,1-2.24378-.29984,10.46486,10.46486,0,0,1-2.5453-1.04777q-5.53615-2.99169-7.48093-7.03285a13.95993,13.95993,0,0,1-1.27349-8.38045,20.39671,20.39671,0,0,1,3.59307-8.53038,33.84369,33.84369,0,0,1,7.33269-7.55673,39.09079,39.09079,0,0,1,9.95043-5.46288,31.927,31.927,0,0,1,11.37384-2.09385,31.23473,31.23473,0,0,1,4.78907.374A24.3896,24.3896,0,0,1,436.93849,153.77569Z"/><path class="cls-1" d="M560.99453,153.02776a4.11379,4.11379,0,0,1,2.91926,1.04777,4.64338,4.64338,0,0,1,1.42173,2.46781,4.38075,4.38075,0,0,1-.37564,2.84346,4.48376,4.48376,0,0,1-2.31958,2.16966q-8.52785,3.44651-16.60931,7.10865a81.26251,81.26251,0,0,0-15.415,9.20418,25.40506,25.40506,0,0,0-2.76765,2.54362,10.49747,10.49747,0,0,0-2.09554,3.0675,3.74258,3.74258,0,0,0-.14992,2.91758q.523,1.34676,3.21742,2.09553a19.14028,19.14028,0,0,0,3.0675.598,24.79116,24.79116,0,0,0,2.61942.14993,19.74964,19.74964,0,0,0,7.55673-1.27181,10.18,10.18,0,0,1,5.163-.972q2.39284.30069,2.54361,1.94562a4.79813,4.79813,0,0,1-1.04608,3.29154,25.40916,25.40916,0,0,1-2.91926,3.51726q-1.57165,1.57165-3.44147,3.66551-1.87233,2.09721-3.96534,4.939a50.70966,50.70966,0,0,0-4.33931,7.33269,29.52151,29.52151,0,0,0-3.81711,11.37216,14.998,14.998,0,0,0,1.42173,8.30634,11.53439,11.53439,0,0,0,5.46288,5.08723,18.9295,18.9295,0,0,0,8.15473,1.72157,30.21866,30.21866,0,0,0,8.98015-1.49585,36.00686,36.00686,0,0,0,9.35242-4.565,42.94036,42.94036,0,0,0,8.6045-7.78077,44.8904,44.8904,0,0,0,6.88461-11.1498,4.95754,4.95754,0,0,1,.67212-.89785,1.9809,1.9809,0,0,1,1.57165-.598q2.54193,0,1.94561,3.51727a25.55539,25.55539,0,0,1-3.7413,8.60449,75.83141,75.83141,0,0,1-8.45458,10.92408,73.85518,73.85518,0,0,1-11.97184,10.55011A57.738,57.738,0,0,1,544.7575,252.692a32.65619,32.65619,0,0,1-15.78727,1.49753,25.28826,25.28826,0,0,1-14.14149-6.43484,20.33,20.33,0,0,1-6.509-12.86969q-.89952-7.63338,3.74131-16.91084,4.63662-9.27578,16.60931-18.40668a1.17027,1.17027,0,0,0-.89785-2.09554q-10.476,1.20023-16.16123-1.64577-5.68776-2.84009-6.95872-7.78077-1.26844-4.93983,1.87149-10.99988a34.91019,34.91019,0,0,1,10.25027-11.44795,61.0501,61.0501,0,0,1,18.25676-8.97846A84.77379,84.77379,0,0,1,560.99453,153.02776Z"/><path class="cls-1" d="M371.99373,538.37047a34.68314,34.68314,0,0,1,14.74118,14.96523,45.45673,45.45673,0,0,1,4.78739,20.27986,65.05663,65.05663,0,0,1-15.4133,41.60076,54.57663,54.57663,0,0,1-17.73288,13.61762,41.88645,41.88645,0,0,1-22.746,3.8171,34.97469,34.97469,0,0,1-12.19588-3.1433,29.552,29.552,0,0,1-9.05426-6.58645,31.87045,31.87045,0,0,1-5.98676-9.35242,42.50745,42.50745,0,0,1-2.9917-11.5962q-9.42738-2.39538-13.69342-8.60449a23.58093,23.58093,0,0,1-4.11527-14.14319,40.03986,40.03986,0,0,1,4.33931-16.611,56.23451,56.23451,0,0,1,11.448-15.78727,61.40129,61.40129,0,0,1,17.21068-11.7478,50.90736,50.90736,0,0,1,21.77235-4.63915,59.09387,59.09387,0,0,1,29.6306,7.93069Zm-67.042,58.36336a47.25006,47.25006,0,0,1,.59969-9.05257,53.083,53.083,0,0,1,2.24377-9.05258,5.5131,5.5131,0,0,1,.29985-.7513c.0977-.19877.19877-.39754.29816-.59631a29.06458,29.06458,0,0,1,2.91926-6.135,31.1755,31.1755,0,0,1,4.26519-5.24053l.44808-.44808.89784-.74792.44977-.44977a4.7174,4.7174,0,0,0,.52388-.29816,4.78723,4.78723,0,0,1,.52389-.29984,1.68618,1.68618,0,0,0,.44808-.29984,1.70863,1.70863,0,0,1,.44976-.29816l1.196-.44977a14.40225,14.40225,0,0,1,2.69354-.89784,12.0719,12.0719,0,0,1,4.63915,0,15.54268,15.54268,0,0,1,4.48923,1.57165,10.7634,10.7634,0,0,1,3.44315,2.84346,6.0462,6.0462,0,0,1,1.34592,3.81542,14.61562,14.61562,0,0,1-1.42173,4.4168q-1.27349,2.76933-2.84346,6.20912a79.25218,79.25218,0,0,0-2.91758,7.40849,31.9899,31.9899,0,0,0-1.64577,7.85657q2.9917-.74792,6.28493-1.87318,3.28985-1.12188,7.03284-2.766a2.0532,2.0532,0,0,1,1.8715,0,2.34205,2.34205,0,0,1,1.12188,1.27012,2.88858,2.88858,0,0,1,.07412,1.72158,1.99772,1.99772,0,0,1-1.27181,1.34761,59.30294,59.30294,0,0,1-7.93069,3.43978q-3.89375,1.3493-7.48261,2.39538.14655,12.12345,4.41511,18.78233a13.39269,13.39269,0,0,0,11.896,6.6572,19.88127,19.88127,0,0,0,5.68692-.89616,32.88424,32.88424,0,0,0,12.19588-6.58645,51.5768,51.5768,0,0,0,10.102-11.37047,66.072,66.072,0,0,0,7.10865-14.443,61.29313,61.29313,0,0,0,3.36735-15.78726A46.39878,46.39878,0,0,0,381.422,562.39a32.15515,32.15515,0,0,0-6.88461-13.09541,34.84848,34.84848,0,0,0-13.24365-9.12838q-8.3055-3.43894-20.42642-3.44147a40.51952,40.51952,0,0,0-18.10684,4.04115A53.97471,53.97471,0,0,0,308.245,551.09192c-.10107.09939-.374.374-.82373.822q-.67212.67464-1.34761,1.49753-.67212.82372-1.34593,1.57a6.23167,6.23167,0,0,0-.82372,1.04777,20.67262,20.67262,0,0,0-1.34593,1.79569q-.60138.89952-1.19769,1.79569a8.604,8.604,0,0,0-1.19769,1.79569,2.33054,2.33054,0,0,1-.598.89785,27.7986,27.7986,0,0,0-1.34593,2.76934q-.60136,1.42257-1.34761,2.91926l-.598,1.79569a8.78985,8.78985,0,0,0-.44977,1.42173,9.49719,9.49719,0,0,1-.44808,1.42173l-.44977,1.7957a24.17326,24.17326,0,0,0,.598,13.69173Q297.76982,594.18853,304.95175,596.73383Z"/><path class="cls-1" d="M436.93849,532.3854a16.56357,16.56357,0,0,1,8.6803,6.509,26.72159,26.72159,0,0,1,3.7413,10.92407,81.65987,81.65987,0,0,1,.44809,15.18927q-.44724,8.682-1.34593,19.15629,1.34676-4.48755,3.6655-10.62591,2.31959-6.135,5.38708-12.64565,3.0675-6.509,6.73469-12.644a74.7302,74.7302,0,0,1,7.63253-10.7,30.75546,30.75546,0,0,1,8.15473-6.88461,10.6962,10.6962,0,0,1,8.38046-1.12188q7.33015,1.94561,9.80219,8.53037a41.8279,41.8279,0,0,1,2.24545,15.71315,123.77915,123.77915,0,0,1-2.24545,19.8301q-2.0189,10.69836-3.74131,21.02274a157.62734,157.62734,0,0,0-2.09385,19.30453q-.37649,8.98014,2.46781,14.51714.74793,1.19769-.52388,2.61774a4.29017,4.29017,0,0,1-3.36566,1.42173,3.87593,3.87593,0,0,1-2.84346-1.196,44.329,44.329,0,0,1-11.52376-19.90422,70.65157,70.65157,0,0,1-2.24377-22.89591,134.45188,134.45188,0,0,1,2.39369-17.06076q1.79653-8.826,3.29154-16.08711,1.49585-7.25688,2.02142-11.896.523-4.63662-1.27181-4.63915-1.20021,0-3.1433,1.94561a31.62229,31.62229,0,0,0-6.73469,9.35243,118.736,118.736,0,0,0-6.20912,14.51545q-2.91841,8.16147-5.6128,17.28649-2.69353,9.12669-4.86319,17.65707-2.1705,8.53038-3.81543,15.639-1.65,7.11035-2.69354,11.14812a7.09209,7.09209,0,0,1-2.46949,3.44315,16.12145,16.12145,0,0,1-4.11527,2.392,14.58853,14.58853,0,0,1-4.48923,1.04776,7.64531,7.64531,0,0,1-3.59139-.44808c-.89784-.39754-1.77379-.822-2.61941-1.27349a6.26621,6.26621,0,0,1-2.31958-2.392,17.19418,17.19418,0,0,1-1.79569-4.939,46.86531,46.86531,0,0,1-.89785-8.97846q-.1516-5.761.52389-14.51714.67212-8.75274,2.31957-21.62242,1.19517-8.98016,2.84346-16.013A111.92265,111.92265,0,0,0,433.3471,550.942a17.3103,17.3103,0,0,0-.598-8.15641q-1.20021-3.065-5.68692-4.11527a10.46826,10.46826,0,0,0-7.70665,1.19769,16.55325,16.55325,0,0,0-8.38046,13.84165,13.94679,13.94679,0,0,0,2.4695,8.6045,5.57636,5.57636,0,0,1,.374,5.6886,6.02151,6.02151,0,0,1-1.94561,2.24377,5.44438,5.44438,0,0,1-3.21742.89954,9.29872,9.29872,0,0,1-2.24378-.29985,10.53179,10.53179,0,0,1-2.5453-1.04777q-5.53615-2.99169-7.48093-7.03453a13.95994,13.95994,0,0,1-1.27349-8.38045,20.39671,20.39671,0,0,1,3.59307-8.53038,33.84369,33.84369,0,0,1,7.33269-7.55673,39.09079,39.09079,0,0,1,9.95043-5.46288,31.927,31.927,0,0,1,11.37384-2.09386,31.23474,31.23474,0,0,1,4.78907.374A24.3896,24.3896,0,0,1,436.93849,532.3854Z"/><path class="cls-1" d="M560.99453,531.63747a4.11379,4.11379,0,0,1,2.91926,1.04777,4.64338,4.64338,0,0,1,1.42173,2.46781,4.38076,4.38076,0,0,1-.37564,2.84346,4.48376,4.48376,0,0,1-2.31958,2.16966q-8.52785,3.44651-16.60931,7.10865a81.26251,81.26251,0,0,0-15.415,9.20418,25.40506,25.40506,0,0,0-2.76765,2.54362,10.49747,10.49747,0,0,0-2.09554,3.0675,3.74258,3.74258,0,0,0-.14992,2.91758q.523,1.34676,3.21742,2.09553a19.15629,19.15629,0,0,0,3.0675.59969,24.7656,24.7656,0,0,0,2.61942.14824A19.7513,19.7513,0,0,0,542.064,566.581a10.16593,10.16593,0,0,1,5.163-.97365q2.39284.30069,2.54361,1.9473a4.80062,4.80062,0,0,1-1.04608,3.29154,25.40926,25.40926,0,0,1-2.91926,3.51727q-1.57165,1.57164-3.44147,3.6655-1.87233,2.09722-3.96534,4.939a50.774,50.774,0,0,0-4.33931,7.331,29.537,29.537,0,0,0-3.81711,11.37384,14.99186,14.99186,0,0,0,1.42173,8.30465,11.53436,11.53436,0,0,0,5.46288,5.08724,18.9295,18.9295,0,0,0,8.15473,1.72157,30.21866,30.21866,0,0,0,8.98015-1.49585,35.95314,35.95314,0,0,0,9.35242-4.565,42.92968,42.92968,0,0,0,8.6045-7.77909,44.87061,44.87061,0,0,0,6.88461-11.15148,4.96184,4.96184,0,0,1,.67212-.89616,1.98166,1.98166,0,0,1,1.57165-.59969q2.54193,0,1.94561,3.51727a25.54144,25.54144,0,0,1-3.7413,8.60449,75.83694,75.83694,0,0,1-8.45458,10.92576,73.84581,73.84581,0,0,1-11.97184,10.54843,57.6872,57.6872,0,0,1-14.36722,7.40849,32.65543,32.65543,0,0,1-15.78727,1.49585,25.277,25.277,0,0,1-14.14149-6.43484,20.32589,20.32589,0,0,1-6.509-12.86969q-.89952-7.63085,3.74131-16.90915,4.63662-9.27831,16.60931-18.40837a1.17027,1.17027,0,0,0-.89785-2.09554q-10.476,1.20275-16.16123-1.64408-5.68776-2.8401-6.95872-7.78246-1.26844-4.93983,1.87149-10.99988a34.91019,34.91019,0,0,1,10.25027-11.44795,61.0501,61.0501,0,0,1,18.25676-8.97846A84.77379,84.77379,0,0,1,560.99453,531.63747Z"/><path class="cls-1" d="M277.84624,489.79246q0,8.6744-22.19179,11.6063-22.19263,2.93358-82.13691,2.93274-12.50247,0-23.21261-9.43834-9.18482-8.15894-10.20478-16.32462L134.489,284.95891q0-3.05992,6.98231-6.37589,6.984-3.3126,12.32054-3.31681,24.38081,0,32.5027,17.34545,5.84188,12.24473,5.84358,43.36444V405.87q0,9.44-1.02082,22.95656-1.02081,13.52328-1.02081,17.60149,0,11.22644,4.464,16.07026,4.46228,4.84889,17.98387,4.84635,1.78137,0,11.98869-1.02082,10.20057-1.01576,17.09108-1.01913,16.32042,0,24.74383,4.33594Q277.84455,475.51031,277.84624,489.79246Z"/><path class="cls-1" d="M609.709,294.39724q-.25773,0-4.84634,11.22392Q598.99044,319.91,592.10751,341.0785q-9.94791,30.10142-18.62062,63.00588a595.29852,595.29852,0,0,0-14.539,70.40258q-3.57539,24.23679-4.848,26.52941-2.552,4.33846-15.30381,4.33594-21.427,0-32.907-28.05895-10.46084-25.50522-10.45746-65.81228L460.74067,287.2549a44.49194,44.49194,0,0,1,8.03513-12.49909q5.73831-6.63025,10.32945-6.63194,20.91408,0,32.39657,23.97738,6.37253,13.01034,13.51991,47.70207,6.11983,29.33582,12.243,35.45565,5.099-15.81253,9.94874-34.43652,9.9479-37.49729,9.94874-53.56755,0-2.29431,7.3967-8.92792,7.39587-6.63025,11.47828-6.63194a51.175,51.175,0,0,1,18.87667,3.31681Q609.70562,280.88155,609.709,294.39724Z"/><path class="cls-1" d="M763.01157,487.75082q0,7.40093-8.03513,14.92312-8.03514,7.51966-14.15666,7.52472-6.888,0-19.76946-2.67838-12.884-2.67837-15.68788-2.67838h-48.7212q-5.86968,0-18.62062-7.9071-12.75767-7.90374-11.22391-12.4991,0-78.30717-2.8064-124.99095-1.78644-31.1197-5.10071-51.27324-3.31766-20.14594-3.31681-22.95656,0-8.4192,8.41752-16.58067,10.7135-10.45578,27.03982-10.45915,4.84128,0,26.52772,2.552,30.09637,3.57539,49.486,7.90711,26.78377,6.12237,26.78377,12.75346,0,11.229-7.3967,16.07026-6.3801,4.08579-19.131,4.08158a161.00528,161.00528,0,0,1-20.91661-1.78559q-29.59354-4.07568-36.47815-4.08157-.7631,6.888-1.52954,8.4192a6.01655,6.01655,0,0,0-.76477,2.55035q1.52869,6.12237,2.80471,23.851,1.2735,17.73034,1.27518,38.134,44.12754,0,64.91949,4.592,20.78775,4.59115,20.78859,14.02864,0,10.97124-8.16147,15.30549-6.888,3.57538-22.44784,3.57117-6.38009,0-24.74382-1.02081-18.36458-1.01577-30.355-1.01913,0,4.33847-.25436,6.88629-1.27854,12.24474-1.27518,17.85585,0,6.3801.25436,13.0095.25269,6.63531,1.4032,17.72783,1.14715,11.09758,24.61581,13.13753,21.67718.51293,43.36445,1.02081Q763.00736,475.50862,763.01157,487.75082Z"/><path class="cls-1" d="M230.8584,876.38339q0,9.44-2.57394,12.4991-3.86343,4.59366-18.01925,4.592-16.99252,0-22.39561-6.63024-7.98207-9.95043-13.38347-11.99038V790.67531H137.75362Q130.1,794.75858,126.78406,804.96a76.84625,76.84625,0,0,0-3.31512,23.7247,251.87635,251.87635,0,0,0,2.42233,30.86367q2.42318,18.88,2.424,20.9183,0,1.53121-5.73914,4.464a23.10286,23.10286,0,0,1-10.33113,2.93105,71.38779,71.38779,0,0,1-14.539-1.78558q-12.24474-2.547-12.24473-6.63025,0-2.80472-6.24955-5.74082-6.25375-2.926-6.76-4.97269-.51292-2.04164-.5104-12.75514,0-20.65888.63843-60.32582.63421-39.66525,1.02081-59.56442.38154-19.89579.63675-19.89411a102.58239,102.58239,0,0,0-2.296-20.40621q-2.80977-10.46082-5.35676-21.17434,0-1.77885,2.8064-5.86548,7.13813-10.45578,17.85585-10.45746,22.19264,0,30.355,15.04945,5.099,9.44,5.10239,29.59017v25.763q0,14.79678,3.04392,21.427,4.06051,8.67189,14.71928,8.67188,21.8212,0,26.26158-2.42233,4.437-2.42064,4.44038-12.37107a225.91329,225.91329,0,0,0-2.55036-30.611q-2.55456-18.1119-5.10239-35.96775,0-7.65106,7.14234-10.58548,7.13812-2.93106,18.11189-2.93443,20.91156,0,27.80291,10.96956,5.10154,8.16652,5.10239,30.0989v57.90348q0,4.08327,2.296,32.39658,3.31259,42.34869,4.33593,53.05883Q230.60489,876.38845,230.8584,876.38339Z"/><path class="cls-1" d="M384.16434,870.26187q0,7.40344-8.03513,14.92143-8.03512,7.52472-14.15665,7.5264-6.888,0-19.76946-2.67837-12.884-2.67839-15.68788-2.67838H277.794q-5.86969,0-18.62062-7.90711-12.75767-7.90374-11.22392-12.49909,0-78.30971-2.8064-124.99095-1.78642-31.11972-5.10071-51.27324-3.31766-20.14848-3.31681-22.95656,0-8.4192,8.41752-16.579,10.71351-10.46083,27.03982-10.46083,4.8413,0,26.52773,2.55035,30.09638,3.5779,49.486,7.91048,26.78378,6.11983,26.78377,12.75177,0,11.229-7.3967,16.07027-6.3801,4.08326-19.131,4.08326a161.608,161.608,0,0,1-20.91662-1.78559q-29.59354-4.0782-36.47815-4.08326-.76308,6.888-1.52954,8.4192a6.02312,6.02312,0,0,0-.76477,2.55036q1.52869,6.11983,2.80472,23.84935,1.27348,17.73288,1.27518,38.1374,44.12752,0,64.91949,4.58861,20.78773,4.59368,20.78858,14.032,0,10.97124-8.16147,15.30549-6.888,3.57287-22.44783,3.57117-6.3801,0-24.74383-1.02081-18.36458-1.01577-30.35494-1.02082,0,4.341-.25437,6.8863-1.27854,12.24473-1.27517,17.85584,0,6.37758.25436,13.01119.25268,6.63531,1.4032,17.72783,1.14715,11.09253,24.6158,13.13584,21.67718.51546,43.36445,1.02082Q384.16013,858.02219,384.16434,870.26187Z"/><path class="cls-1" d="M548.43479,868.73233q0,8.4192-9.69269,13.51991a43.20563,43.20563,0,0,1-20.40621,5.10071q-12.50245,0-17.85584-7.39839-4.08327-5.60438-4.08158-14.7934a49.173,49.173,0,0,1,.76477-9.44,4.38143,4.38143,0,0,1,.76477-2.03826q0-8.16147-2.80472-22.19179a126.88458,126.88458,0,0,1-2.8064-24.48946q0-11.72928-4.84635-14.15666-4.84887-2.42066-21.427-2.42233-11.99205,0-16.835,8.41583-3.82806,6.63529-3.82722,20.4062,0,5.35675.76477,17.09108.76561,11.73434.76646,17.59981,0,15.82264-4.84635,23.46865-6.3801,9.95043-21.68307,9.94874a36.41457,36.41457,0,0,1-18.74864-4.848q-8.29285-4.8413-8.28949-11.987-1.02335-11.22393-1.02082-22.44784,0-6.37251.51041-21.171.50789-14.79172.51041-17.85585,0-71.67945,22.31981-105.86161,22.31645-34.17711,71.80578-34.17879,18.875,0,34.3085,20.27818,15.431,20.27986,15.43184,55.22511,0,20.66394,3.57117,54.96907Q544.35237,833.78877,548.43479,868.73233Zm-61.729-113.76871v-7.65107Q483.1304,736.599,481.349,720.01669q-.51546-4.33089-11.48-11.731a52.75167,52.75167,0,0,0-13.0095,21.93574q-2.80977,9.69776-5.61111,19.13271v5.60944a112.36722,112.36722,0,0,1,11.35194.51209q4.97268.5104,12.115,1.02081,3.3126,0,6.12321-.256A25.80323,25.80323,0,0,0,486.70577,754.96362Z"/><path class="cls-1" d="M712.45088,874.85385a13.358,13.358,0,0,1-5.86716,11.22224,21.76425,21.76425,0,0,1-13.26387,4.33931q-3.82806,0-15.8159-5.86885-14.03116-6.888-14.02863-13.26387-5.87221-8.92455-11.73433-18.11189-13.776-20.91156-24.23342-34.94693-14.79677-19.63807-19.8958-22.19179,0,16.328,1.27518,32.9053,1.2735,16.58573,2.8064,35.96774,0,11.229-2.8064,16.58236-2.80977,5.35675-10.45915,5.35676-20.40873,0-30.0989-17.09108-7.91131-13.776-10.2031-44.13091-1.28108-16.57562-1.27686-58.66825,0-55.09878,4.592-82.13691,2.80471-17.086,8.16315-24.48947H642.0483q22.95571,0,41.32281,16.07027t18.36626,33.41739q0,18.6223-11.98869,36.98519a118.64476,118.64476,0,0,1-22.70219,25.25424q-10.97124,9.44-12.24474,9.44,0,3.31513,14.79509,23.46528,22.19263,30.104,27.80459,38.5181Q712.44835,866.18367,712.45088,874.85385ZM645.61947,707.26491v-5.35675q-12.50247,1.53122-16.96306,2.29431-4.46733.76814-13.9023,3.06244,0,6.11985-.89279,18.10853-.897,11.99711-.89279,18.1119,13.77343-5.60944,18.875-11.09421Q636.94506,726.908,645.61947,707.26491Z"/><path class="cls-1" d="M853,672.92778q0,9.88979-5.10071,13.69173-3.82552,2.78955-11.22392,2.78955h-7.3967a30.27825,30.27825,0,0,1-4.2096,1.40152,27.7732,27.7732,0,0,1-6.76.63675,50.44075,50.44075,0,0,1-5.86717-.25268,39.5789,39.5789,0,0,1-6.63193-1.78559l10.96956,172.437q0,16.32294-7.65275,22.19179-4.341,3.31512-12.75514,3.31512-16.07026,0-24.1054-13.13584-8.03513-13.13417-10.2031-33.41739-2.1705-20.27986-2.168-54.46034V769.37632q0-8.54049.25436-17.47178,0-27.55191-3.82553-39.41089-3.82553-11.86067-14.03032-22.57586-12.75766-12.75009-25.50691-25.763a36.59565,36.59565,0,0,1,7.3967-5.6128l-7.3967-3.57117a3.14323,3.14323,0,0,1,1.78558.51209q.7631.51041,1.78559,1.27349a36.35426,36.35426,0,0,1,10.83985-4.592A46.74874,46.74874,0,0,1,741.785,650.891q2.03658,0,7.01432.25605,4.97268.25268,8.03513.25268h38.00769a21.73346,21.73346,0,0,0,7.77909-1.40152q3.69666-1.39983,6.50559-2.4257a69.12307,69.12307,0,0,1,27.80291,5.32643Q853,660.00419,853,672.92778Z"/><path class="cls-1" d="M343.36646,516.27921c-2.89056,5.67216-15.97259,2.5994-8.75169-7.83153s11.55548-21.80165,10.3604-34.41669c-2.09026-22.06457-11.222-40.42672-30.24969-52.76766q-21.43373-13.90157-43.40928-26.964c-31.64747-18.89344-38.99257-57.063-18.70127-88.10616,16.86484-25.80105,54.35313-27.41658,73.33838-18.40167,9.92607,4.71327,15.49412,13.71537,20.25044,24.62434a66.52219,66.52219,0,0,0,2.99131-6.79231c7.74118-25.868,44.20382-39.979,69.78661-23.89321,22.62658,14.227,35.49607,34.20636,33.80173,61.77656-.70215,11.42612-5.38193,21.7872-13.8278,29.222-13.10847,11.5392-26.679,22.74266-41.09968,32.55063-15.51347,10.55119-27.09491,23.5527-33.52322,41.14571-.41117,1.12529-1.02415,2.17682-1.79382,3.78677-4.49463-4.02211-5.3248-8.32674-3.78508-13.48753,4.67035-15.65357,15.21623-26.88521,27.74458-36.44022,11.9462-9.111,24.40722-17.5461,36.373-26.63252,15.9438-12.10719,24.1697-27.46366,17.55354-47.78766-7.24409-22.25235-21.74691-37.11458-45.5881-40.41294-20.10267-2.78112-37.018,13.22248-39.18682,35.798a158.74763,158.74763,0,0,1-2.094,16.35946c-.37891,1.86984-2.3499,4.46835-3.93341,4.73782-1.49011.25355-4.05327-1.75607-5.031-3.423a34.252,34.252,0,0,1-3.81114-9.676c-7.534-33.50433-37.38859-46.445-67.30706-29.06826-29.45916,17.11-32.22854,60.90887-4.41515,80.61337,16.7399,11.85961,35.001,21.5485,52.07205,32.96986,27.05231,18.09938,35.0304,45.36443,32.95442,75.91114C353.50123,498.26057,346.257,510.60706,343.36646,516.27921Z"/><path class="cls-1" d="M637.27048,226.967c-1.67128-3.08531-3.13472-5.97778-4.77054-8.76924-4.11641-7.02447-9.83438-12.70608-15.53462-18.41111-3.06019-3.06276-6.40932-5.9927-7.918-10.221-3.17586-8.9011-2.06414-14.06976,5.15825-20.4487,4.07939-3.603,9.69208-3.76745,14.62448-.40742,2.49174,1.69741,4.51844,4.09265,6.682,6.24611a9.86487,9.86487,0,0,1,1.25772,2.13122c3.47872-2.28949,6.43476-4.31017,9.46749-6.20831,2.66009-1.6649,5.45439-3.09951,8.70769-3.09808,6.93814.00306,11.29355,4.21283,12.46851,11.46341,1.72646,10.65381-2.22759,19.50988-8.37815,27.70076a42.9187,42.9187,0,0,1-12.13163,10.53747A30.6752,30.6752,0,0,0,637.27048,226.967Z"/><path class="cls-1" d="M226.27852,226.96314c1.68348-3.07867,3.15836-5.96533,4.80522-8.75029,4.14418-7.00812,9.88459-12.667,15.60737-18.34947,3.07229-3.05063,6.433-5.96729,7.95834-10.18958,3.21107-8.88846,2.11983-14.06148-5.07726-20.469-4.06509-3.6191-9.67709-3.80579-14.62275-.46531-2.49844,1.68753-4.53461,4.07474-6.7067,6.21961a9.86536,9.86536,0,0,0-1.26614,2.12623c-3.46963-2.30324-6.41765-4.33561-9.44284-6.24573-2.65348-1.67542-5.44208-3.12108-8.69537-3.13253-6.93809-.02441-11.31013,4.16809-12.51378,11.414C194.556,189.768,198.475,198.63962,204.593,206.85478a42.91881,42.91881,0,0,0,12.08983,10.58541A30.67509,30.67509,0,0,1,226.27852,226.96314Z"/><path class="cls-1" d="M35.391,586.78022c14.51039,6.76045,29.58049,7.87706,44.47564,1.74063,16.89115-6.95845,34.22953-5.36861,51.742-4.50836-10.77958,5.645-17.89783,13.8947-20.463,25.65766a7.26311,7.26311,0,0,0,1.13874,5.57249c.62187.7304,4.36833-.05224,7.99444-2.37916,11.145-7.15189,19.85637-12.63889,25.15464-26.06835.67784-1.71807,3.02683-3.91235,4.637-3.94158,10.02128-.18205,20.05278.19024,30.0809.37871-10.36632,5.76359-15.15336,14.98621-18.10508,25.426-.50315,1.77965-.79347,4.64785.38675,5.87537s5.50723.20821,10.06374-3.69794c8.7901-7.5355,11.43291-10.348,19.80249-21.8299,1.95167-2.67742,4.596-6.5267,7.07745-6.67258,10.08755-.59342,20.248.05477,30.38159.24522-2.30208,2.35311-4.80746,4.43136-6.17016,5.57378-5.52907,4.63586-9.75459,7.62658-14.23208,13.13681-2.31635,2.85064-5.19268,9.63012-2.262,12.36023s8.5279-.5618,11.72982-2.55149c5.09591-3.16651,9.60262-7.49317,13.7825-11.87816,9.07553-9.52,12.88493-17.57485,17.15171-18.2949,1.51588-.25582,20.099-1.14172,21.27313-1.809s.9647-2.79538-.778-3.59716c-6.8192-3.13736-20.6486,1.02479-24.68868.05215s-22.26955-34.04014-30.43285-29.78807,4.12046,20.3844,15.18309,30.82768c-11.32907-.21292-28.66766.89756-31.65635-.41252s-6.29652-12.44647-13.20337-17.55762-19.56993-10.99907-20.83453-8.26013,1.81692,10.35224,5.36966,14.52907,8.79063,7.8151,14.21756,12.63468c-11.63458-.21866-21.75058-.1858-31.83329-.74953-2.63856-.14746-6.444-1.43979-7.54684-3.41563-6.485-11.61891-16.95974-18.06063-28.62011-22.81648-3.56683-1.45481-9.87921-3.61216-11.999-1.1798s2.19979,7.95884,4.665,10.7187a190.16719,190.16719,0,0,0,17.71826,16.868c2.31116,1.6759-1.89735,1.04925-2.45382.97474-15.69088-2.10259-31.58757,2.69969-47.40816-3.42148-13.12092-5.07681-26.98366-1.04845-40.1651,2.896-2.29463.6865-6.08214,1.20905-6.45841,3.48155S33.19326,585.75632,35.391,586.78022Zm202.57931-1.42834c2.03771,2.71488-22.5937,25.18222-24.65338,22.13635S235.93246,582.637,237.97029,585.35188Zm-20.68516-32.15933c-.93763-2.39219,1.94114-3.07507,7.14931,3.00031s14.6576,22.39694,8.93731,17.77725C230.82152,571.91056,218.22277,555.58486,217.28513,553.19255Zm-45.428,6.72039c-1.87033-1.57549-4.09173-7.75342,5.0594-1.256,3.429,2.43467,10.27,9.6469,12.76788,13.38217s-1.11847,3.643-2.92689,2.15583S173.72731,561.48855,171.85711,559.91294Zm15.09044,25.95391c2.81874,2.50946-17.26927,25.71421-20.23326,22.21942C164.226,605.41925,184.19593,583.41714,186.94755,585.86685ZM137.71,589.42456c-4.34915,6.95184-10.77554,13.4924-16.65755,17.14048-2.26865,1.407-3.171.97193-1.99932-1.89182,2.86939-7.91646,9.67746-14.14935,16.85784-17.55472C139.45407,584.85143,138.62661,587.95942,137.71,589.42456Zm-23.611-31.14984c-3.92815-3.97985-.90209-4.57532,1.63221-3.03729,8.03633,4.87713,21.06744,15.1457,20.98039,19.77745S117.66789,561.89057,114.099,558.27472ZM80.68366,582.415c-13.93083,4.84295-26.90441,6.401-40.41834-.40187C53.557,577.67815,66.50566,574.86845,80.68366,582.415Z"/><path class="cls-1" d="M833.61736,580.89988c-.37628-2.2725-4.16379-2.79505-6.45842-3.48155-13.18144-3.94449-27.04418-7.97285-40.1651-2.896-15.82058,6.12117-31.71728,1.31889-47.40816,3.42148-.55647.07451-4.765.70116-2.45382-.97474a190.16719,190.16719,0,0,0,17.71826-16.868c2.46519-2.75986,6.78468-8.28633,4.665-10.7187s-8.4322-.275-11.999,1.1798C735.85571,555.318,725.381,561.75971,718.896,573.37862c-1.10282,1.97584-4.90828,3.26817-7.54683,3.41563-10.08272.56373-20.19871.53087-31.83329.74953,5.42692-4.81958,10.66493-8.458,14.21755-12.63468s6.63415-11.79012,5.36967-14.52907-13.92769,3.149-20.83454,8.26013-10.21467,16.24754-13.20337,17.55762-20.32728.1996-31.65634.41252c11.06262-10.44328,23.34625-26.57562,15.18308-30.82768s-26.39276,28.81542-30.43285,29.78807-17.86947-3.18951-24.68867-.05215c-1.74271.80178-1.95223,2.9299-.778,3.59716s19.75725,1.55316,21.27314,1.809c4.26677.72005,8.07618,8.77494,17.15171,18.2949,4.17987,4.385,8.68658,8.71165,13.78249,11.87816,3.20193,1.98969,8.79929,5.2816,11.72983,2.55149s.05433-9.50959-2.262-12.36023c-4.4775-5.51023-8.703-8.50095-14.23208-13.13681-1.36271-1.14242-3.86809-3.22067-6.17017-5.57378,10.13363-.19045,20.294-.83864,30.38159-.24522,2.48142.14588,5.12578,3.99516,7.07746,6.67258,8.36957,11.48187,11.01239,14.2944,19.80249,21.8299,4.5565,3.90615,8.88363,4.92557,10.06373,3.69794s.88991-4.09572.38675-5.87537c-2.95172-10.43977-7.73876-19.66239-18.10507-25.426,10.02811-.18847,20.05961-.56076,30.08089-.37871,1.61022.02923,3.95922,2.22351,4.63705,3.94158,5.29827,13.42946,14.00967,18.91646,25.15464,26.06835,3.62611,2.32692,7.37257,3.10956,7.99444,2.37916a7.26316,7.26316,0,0,0,1.13875-5.57249c-2.56518-11.763-9.68343-20.01266-20.463-25.65766,17.51246-.86025,34.85083-2.45009,51.742,4.50836,14.89515,6.13643,29.96525,5.01982,44.47565-1.74063C830.53031,585.75632,833.99364,583.17237,833.61736,580.89988Zm-183.2107,26.58835c-2.05967,3.04587-26.69108-19.42147-24.65337-22.13635S652.46646,604.44224,650.40666,607.48823Zm-20.05484-33.51812c-5.72028,4.61969,3.72914-11.70188,8.93731-17.77725s8.087-5.3925,7.14931-3.00031S632.90205,571.91056,630.35182,573.97011Zm46.61425.22485c-1.80842,1.48713-5.4246,1.57956-2.92689-2.15583s9.33884-10.9475,12.76788-13.38217c9.15113-6.49744,6.92974-.31951,5.05941,1.256S678.77449,572.70783,676.96607,574.195Zm20.04321,33.89131c-2.964,3.49479-23.052-19.71-20.23326-22.21942C679.52764,583.41714,699.49753,605.41925,697.00928,608.08627ZM727.8126,587.1185c7.18038,3.40537,13.98845,9.63826,16.85784,17.55472,1.17172,2.86375.26933,3.29885-1.99932,1.89182-5.882-3.64808-12.3084-10.18864-16.65754-17.14048C725.097,587.95942,724.2695,584.85143,727.8126,587.1185Zm-.80065-12.10362c-.087-4.63175,12.94405-14.90032,20.98039-19.77745,2.5343-1.538,5.56036-.94256,1.63221,3.03729C746.05568,561.89057,727.099,579.64662,727.012,575.01488Zm96.4463,6.99827c-13.51393,6.80289-26.48751,5.24482-40.41834.40187C797.21792,574.86845,810.16656,577.67815,823.45825,582.01315Z"/></g></svg>