<svg xmlns="http://www.w3.org/2000/svg" viewBox="0 0 1000 1000"><defs><style>.cls-1{fill:#3d3d3d;}.cls-2{fill:#b94731;}</style></defs><title>Valentines_13</title><g id="Layer_13" data-name="Layer 13"><path class="cls-1" d="M287.61668,309.43118q10.59723,0,15.74946,4.41639,5.14872,4.415,9.56791,15.01432,1.46957,3.24312,12.36589,26.202,7.35413,15.30992,9.41976,23.8457a25.50153,25.50153,0,0,0,1.32492,4.71128c.48776,1.17677,1.03142,1.76656,1.61981,1.76656q1.46957,0,3.385-4.858,1.91192-4.85733,2.50309-6.32969,12.65379-31.20263,18.25254-44.1597,8.5365-19.4314,14.72083-30.47168,6.18225-11.03958,9.41977-11.03958,5.00408,0,12.51264,4.858,7.50716,4.85733,7.50646,6.91808,0,8.54277-4.85663,17.8109a119.8477,119.8477,0,0,0-6.91948,15.16247q-8.24508,22.67243-17.36926,44.74808-7.06483,16.49228-13.39452,31.94335-6.33528,15.45457-7.9495,23.11057-1.62051,7.65812-2.64983,23.40407-1.03352,15.75225-1.03,26.34879,0,4.71268-.73653,13.39592a83.54567,83.54567,0,0,1-1.61841,12.06959q-.88257,3.38148-4.71128,3.38637a51.0593,51.0593,0,0,1-15.60271-2.35075q-10.30794-3.23682-10.30444-9.40719,0-22.92819.29489-36.15988.28931-13.2282.88328-26.16571,0-6.16757-5.29967-19.987-15.30992-40.26951-16.486-44.68519-7.6602-22.04561-12.36449-36.30244-4.71267-14.25543-4.71128-20.13929Q281.13884,309.43537,287.61668,309.43118Z"/><path class="cls-1" d="M537.26564,395.84705q0,33.81054-12.0696,69.09273-15.899,46.74734-42.688,46.74524-35.626,0-53.87576-34.9873-14.42733-27.926-14.42593-68.49876,0-32.341,11.7761-67.62106,15.01432-44.68449,38.27164-44.68938,5.00409,0,17.07578,4.70569,9.41907,3.53451,13.83755,4.85383,4.415,1.32492,6.47644,2.05586a17.45167,17.45167,0,0,1,3.8266,1.90911q17.95555,13.82148,25.90716,41.16046Q537.26423,370.57092,537.26564,395.84705Zm-57.11258-71.695q-14.42943,0-24.43548,39.37574-7.9495,31.45-7.9495,52.896a204.50778,204.50778,0,0,0,5.15152,45.5489q5.14872,22.6326,13.6908,22.627,16.18621,0,27.08393-39.67064,8.2388-30.26344,8.24439-52.60114A166.42251,166.42251,0,0,0,496.34416,348.54Q489.56865,324.15689,480.15306,324.152Z"/><path class="cls-1" d="M564.34677,425.71917q0-19.42932,1.32491-46.66138,1.32492-27.22788,2.79658-55.20067,0-12.95148,1.03-16.486,1.02933-3.53451,6.0348-3.53311a52.11636,52.11636,0,0,1,16.19249,2.79658q8.5365,2.80077,8.53789,6.0348,0,30.91332-.88328,51.22592-2.64982,60.942-2.64983,61.82385,0,29.73934,4.26964,42.54129,4.264,12.80682,16.92763,12.80613,16.1883,0,19.43071-44.38052,1.17188-15.58035,1.17677-46.14707V320.58675q0-14.98707,1.55971-17.78435,1.55971-2.78818,8.66647-2.79239,4.83007,0,13.49235,2.35634,8.66646,2.35215,8.66646,5.87827V428.19011q0,45.86476-13.17509,66.148-11.12973,17.34761-31.914,17.34691-10.25343,0-22.98759-6.47644a123.09423,123.09423,0,0,1-23.85968-15.8976q-5.56171-4.7064-10.10179-23.8471A171.558,171.558,0,0,1,564.34677,425.71917Z"/><path class="cls-2" d="M455.13618,577.35365h-.87489a7.26284,7.26284,0,0,1-6.63018-3.36121,15.35879,15.35879,0,0,1-2.11316-8.33384,79.67018,79.67018,0,0,0,13.4071-4.53239,62.14172,62.14172,0,0,0,12.2429-7.164,47.968,47.968,0,0,0,7.72309-7.45475q3.93492-4.97054,3.93562-9.50223,0-3.94539-2.76863-5.336a15.96941,15.96941,0,0,0-7.14169-1.38921h-.8749a31.3037,31.3037,0,0,0-12.897,2.90839,48.4113,48.4113,0,0,0-11.87813,7.55957,49.62517,49.62517,0,0,0-11.07591,12.6482,33.192,33.192,0,0,0-4.38547,12.25548c-1.10654.98566-2.23929,1.972-3.33762,2.95731q-8.60148,7.28913-11.80406,7.287-3.79236,0-3.79027-4.66376,0-3.93492,3.49818-9.32613a82.3914,82.3914,0,0,1,6.12145-7.86984q2.03767-2.18654,5.24655-5.10121a6.61891,6.61891,0,0,0,2.04049-4.51841,16.52112,16.52112,0,0,0-1.74979-6.12,3.31755,3.31755,0,0,0-1.89373-2.11316,9.37451,9.37451,0,0,0-3.35283-.51012q-.14675,0-6.99494.43605-6.851.43814-11.07591.43744a15.21232,15.21232,0,0,0,1.45769-4.37166c0-.96993-.5828-1.45769-1.74979-1.45769q-3.79026,0-11.22126,7.65181-7.43379,7.64971-7.43239,13.33442,0,2.91817,3.49677,4.95586l-2.86314,2.86314-.05084-1.11475q-6.851,6.41494-9.76357,8.74473-6.70633,5.24515-10.93056,5.82935l-.5828.2907a4.45875,4.45875,0,0,1-3.06072-1.16559,3.73546,3.73546,0,0,1-1.31094-2.91538l.2907-1.74838q.87419-4.22423,5.53865-10.85789,4.66236-6.62878,5.53726-9.25345v-.8749q-1.60584-3.93492-3.20608-7.86983.2914-.14256,2.33258-1.38362a16.18108,16.18108,0,0,0,2.914-2.11456v-.87349a6.97486,6.97486,0,0,0-1.38361-3.57085,11.10781,11.10781,0,0,0-2.40526-2.8413q-1.16769-1.16559-4.081-1.167a17.3836,17.3836,0,0,0-4.299.80641q-2.84269.8071-7.35971,2.12294A90.58977,90.58977,0,0,0,333.44789,539.669,58.24636,58.24636,0,0,0,316.688,555.923a28.26933,28.26933,0,0,0-2.988,5.56521,14.45676,14.45676,0,0,0-1.09292,5.27171,16.09878,16.09878,0,0,0,.5828,3.22285,41.30554,41.30554,0,0,0,3.78887,10.10319q3.35211,6.29964,6.70424,7.76082h.87489q3.35,0,9.91033-5.24655a158.39614,158.39614,0,0,0,16.03037-15.44758q-1.45908,4.08166-2.33118,6.99494a31.44719,31.44719,0,0,0-1.45769,8.16054,8.86743,8.86743,0,0,0,1.82106,5.75668,7.889,7.889,0,0,0,5.466,2.69735h.5828q6.264,0,17.34271-10.49312c3.01163-3.1928,6.0776-6.38664,9.12767-9.58014l.3438.83541Q389.991,562.927,398.591,554.32693q4.95376-.58069,8.67205-1.38361,3.7148-.80082,6.48483-1.53037a100.01954,100.01954,0,0,0-10.201,12.5322q-5.54076,8.45474-5.53866,14.86618a11.56162,11.56162,0,0,0,.5828,3.35143c.09643.38993.29209,1.02024.58279,1.89513a8.87266,8.87266,0,0,0,3.57085,4.44434,9.33786,9.33786,0,0,0,5.17388,1.67572,9.73438,9.73438,0,0,0,4.37167-.8735q5.53656-2.47582,14.57408-10.93056c1.37314-1.28928,3.00517-2.91311,4.80614-4.75566a21.43443,21.43443,0,0,0,2.68216,8.92747,13.92268,13.92268,0,0,0,9.06058,6.46945q.8679.14256,2.53663.362a23.18124,23.18124,0,0,0,2.97268.218q11.59512,0,25.65838-12.5336,3.4779-3.20328,11.744-11.94941V558.4079q-5.68541,5.394-10.05707,8.89008Q463.58882,577.35434,455.13618,577.35365Zm-2.62328-27.54373a40.69566,40.69566,0,0,1,8.45263-7.43379q1.893-1.01676,3.93562-2.04049a13.44862,13.44862,0,0,1,5.09981-1.74838,2.18451,2.18451,0,0,1,.80222.14535,1.99719,1.99719,0,0,1,.65547.43744v1.16559q0,4.37307-10.93056,11.22266a82.0444,82.0444,0,0,1-14.42734,7.43239A57.52268,57.52268,0,0,1,452.5129,549.80992ZM348.458,557.75243a126.82982,126.82982,0,0,1-15.73968,13.77186q-.72954.43605-2.69595,1.67572a6.50541,6.50541,0,0,1-3.1334,1.23826q-1.89515,0-2.33119-2.33118l-.58279-2.33118q0-3.64143,3.49677-8.30729a27.33076,27.33076,0,0,1,6.12145-5.9761,114.505,114.505,0,0,1,13.99129-7.72309q7.43169-3.20538,14.86478-6.55889A159.919,159.919,0,0,1,348.458,557.75243Z"/><path class="cls-2" d="M656.83657,575.02246q-7.43379,6.70425-18.07225,15.15549l17.48946-27.10629q2.32908-3.20538,4.73643-6.63157a47.47185,47.47185,0,0,0,4.0069-6.77692,10.28131,10.28131,0,0,0,1.74978-5.82936,8.55355,8.55355,0,0,0-1.167-4.44434,5.41678,5.41678,0,0,0-3.49677-2.5506Q649.69349,549.22643,647.217,551.5583a197.56409,197.56409,0,0,1-15.73967,13.26175q-5.39192,3.79236-7.4324,5.10121a44.569,44.569,0,0,1-7.43239,4.22631h-.29209c-.2907,0-.46121-.21942-.51012-.65547a12.45393,12.45393,0,0,1-.07268-1.385q0-4.80912,5.9761-10.63847,3.20328-3.20536,9.47288-8.59938,3.78816-3.78816,5.24656-5.53725,3.78816-4.51563,3.78887-7.28705a11.50344,11.50344,0,0,0-.07268-1.23826,1.60991,1.60991,0,0,0-.21942-.80222,8.74631,8.74631,0,0,0-2.914-3.1334,6.2749,6.2749,0,0,0-3.20607-.94757q-2.18653,0-5.24656,2.55061-3.06074,2.55131-5.82936,5.02853a54.5247,54.5247,0,0,0-11.51335,12.2415,31.95731,31.95731,0,0,0-4.97543,11.54271l-.12578.116q-10.20312,9.32892-14.57409,9.32753l-.58279-.2921q-3.20748-.43605-3.20608-2.914,0-3.78816,5.97471-11.80545,3.35-4.07748,6.84959-8.30589.43815-.72744,1.45769-2.33258a6.43677,6.43677,0,0,0,.5828-2.62328v-.87489a16.4991,16.4991,0,0,0-2.04049-5.39191q-1.74839-3.20328-3.49817-3.35142-3.35422,0-18.65365,13.55384-8.60148,8.01659-17.19736,15.885,3.64141-5.68331,7.43239-11.368,5.6833-9.61823,5.684-14.86479,0-3.93492-2.62328-5.24655a7.24091,7.24091,0,0,0-2.62328-.2921,11.64819,11.64819,0,0,0-4.73643,1.23966,24.72158,24.72158,0,0,0-6.04738,4.299q-7.1424,5.97681-11.80546,10.34777-6.99564,6.70425-18.5083,18.799l.2907-4.95446q4.51562-5.24726,9.03683-10.63846,6.99354-8.5973,6.99494-11.80546v-.87349q-.14675-1.01885-2.18583-1.53037a17.403,17.403,0,0,0-4.22632-.51012h-1.45769q-3.93492.58279-8.74473,6.2668a89.96045,89.96045,0,0,0-6.12,8.89008,53.48718,53.48718,0,0,0-3.20747,5.39191,21.20124,21.20124,0,0,0-1.74839,9.18078l-.2907,3.79027a28.02247,28.02247,0,0,0,1.31094,8.89007,10.8946,10.8946,0,0,0,4.51842,5.97471,4.43554,4.43554,0,0,0,1.74838.58279q2.3291,0,5.82936-4.081.72744-.8742,4.081-5.53726a169.73435,169.73435,0,0,1,27.39839-29.731q-7.28914,11.07731-9.91032,15.44757-7.57845,13.1171-7.57775,19.23785,0,3.93492,3.49678,4.95586a7.63582,7.63582,0,0,0,2.33258.2907q3.20328,0,6.70424-3.35143,2.76514-2.914,5.53726-5.9761,7.86984-8.59728,12.2429-13.26174a131.66412,131.66412,0,0,1,13.4071-12.38825q-7.28914,10.20312-8.89008,12.82569-6.5575,10.63917-6.5575,16.90527,0,6.70635,7.28564,7.57914h1.45769q7.57635,0,18.21761-9.91032c.45194-.38783,2.81859-2.8876,7.01293-7.40444a36.0601,36.0601,0,0,0,2.752,8.788q2.914,6.77763,6.41215,6.77692,2.76723,0,9.18217-4.59108A168.01578,168.01578,0,0,0,640.5141,570.6494q-10.34987,14.8592-13.70059,20.53621a133.04505,133.04505,0,0,0-11.07591,21.9925,17.70405,17.70405,0,0,1-.58279,2.91258,22.06143,22.06143,0,0,0,1.16559,6.48063q1.16559,3.7127,2.33258,4.2962,1.4549,0,7.43239-7.28006,1.893-2.32908,5.684-7.28,6.12145-7.42541,13.69919-16.015,6.99565-7.86356,14.13664-15.73269,8.744-9.76287,13.84454-15.73967V558.1158A194.79144,194.79144,0,0,1,656.83657,575.02246Z"/><path class="cls-1" d="M322.67107,630.39364v123.22q0,8.91594-.78545,26.74152-.78615,17.82558-.78545,26.21322,0,6.03131-1.83364,8.78247-1.83434,2.75046-7.06762,2.75325a21.83061,21.83061,0,0,1-12.56714-3.92723q-5.763-3.92654-5.76087-8.11581,0-8.63922-.5227-28.40605-.52828-19.76473-.5241-21.33842V745.84447a48.19154,48.19154,0,0,0-.40111-6.54492q-.39831-2.87833-2.25431-2.88043-1.59535,1.31443-9.1668,2.48771a131.44609,131.44609,0,0,1-19.52575,1.17817q-3.19071.26415-3.98454,2.47933-.79662,2.22008-.798,9.00328V814.722q0,6.786-7.85307,6.78671a20.18056,20.18056,0,0,1-13.09123-4.44295q-6.81117-5.49254-6.80767-15.95071,0-6.27028-.5227-17.77876-.52829-11.49869-.5241-15.68377,0-36.60292.65407-63.39894.652-26.79811,1.44092-54.24891a11.77661,11.77661,0,0,1,3.79586-9.02,13.841,13.841,0,0,1,9.81808-3.53032q7.85515,0,11.2576,2.74906,3.40033,2.74837,3.40313,10.34218v54.97985c0,2.44718.34381,3.66588,1.03143,3.66588h17.27982q4.89715,0,9.41277-.13137,4.51563-.12789,5.67423-1.31234,1.15929-1.17817,1.16139-15.88922V638.81273q0-10.505,1.19914-13.13177,1.19493-2.62677,6.79509-2.62607a52.79717,52.79717,0,0,1,13.85432,2.22915Q322.66827,627.5125,322.67107,630.39364Z"/><path class="cls-1" d="M348.32525,796.338q0-24.90088.5241-49.81435.522-24.90717,1.30815-55.84356.78614-30.93848.78544-43.78793a14.98625,14.98625,0,0,1,1.70227-7.47013,5.95433,5.95433,0,0,1,5.6295-3.01461,39.06069,39.06069,0,0,0,8.37716,1.0468q7.32687,0,25.91973-2.09359,18.58658-2.0943,25.91973-2.095,6.28287,0,12.043,6.41494,5.75458,6.417,5.75947,13.48257,0,4.71267-12.17442,7.59311-12.17372,2.88253-32.85737,2.879-8.90336,0-10.99625,1.70227-2.09848,1.70646-2.09359,7.199l-1.0482,32.98875c0,1.399.348,2.095,1.0482,2.095q11.51754-.78615,24.08609-1.44092,12.56784-.64988,20.4216-.65407,8.63922,0,12.17442,4.71268,3.53451,4.71267,3.53451,19.37481,0,1.57019-1.96362,3.14178a8.37143,8.37143,0,0,1-5.36675,1.57089q-5.49882,0-14.92348.78545-21.9932,1.83434-28.01472,1.83224-8.38136,0-10.47215,2.10617-2.09849,2.10478-2.095,10.52666v32.62817q0,6.84051,4.71268,6.83981,3.66449,0,23.302-2.74906,19.63476-2.75046,21.72975-2.74906,7.32687,0,12.56714,7.85446,4.1844,6.28287,4.18859,15.70753,0,6.285-7.33037,6.28357-1.83434,0-29.58422,4.05861-27.75406,4.05651-32.726,4.05861Q348.32106,821.50868,348.32525,796.338Z"/><path class="cls-1" d="M453.57227,819.15234q0-10.73351,8.37717-50.52992,7.591-36.13123,17.54256-76.57963,9.94527-40.44978,15.97028-58.253a5.497,5.497,0,0,1,5.75948-4.19q7.85515,0,21.33842,2.48771,13.47977,2.49051,14.00666,7.20039.522,4.71059,7.85447,44.245,10.99554,58.90848,14.39938,78.806,7.85307,45.03249,7.85446,50.52992,0,3.40452-4.71267,4.31995a61.67716,61.67716,0,0,1-11.52035.91542q-8.6392,0-13.87529-19.11206-3.92862-15.96609-7.59311-32.2019a27.14685,27.14685,0,0,0-6.80627-.5241,84.21511,84.21511,0,0,0-15.05486,1.30814q-7.20318,1.31444-14.7921,2.88044-2.88464,0-9.164,30.10831-3.92654,18.06457-6.54492,24.34884-1.5702,3.14249-6.80767,3.14179a24.4274,24.4274,0,0,1-11.519-2.48772Q453.57228,823.07537,453.57227,819.15234ZM514.313,676.20249l-1.57089.5241q-3.40662,12.82989-9.03263,36.12914-5.633,23.30553-5.6295,25.13428,0,2.09848,3.14179,2.095,1.57018,0,6.80766-.5241,5.23259-.522,8.90126-.52409a39.64912,39.64912,0,0,0,5.6295-.39273q2.74836-.392,2.74767-1.70087,0-2.35634-5.75948-31.1565Q515.8797,686.93809,514.313,676.20249Z"/><path class="cls-1" d="M592.328,749.51036V692.95822q0-19.10857.78544-35.34369.78615-16.23024,3.92723-19.11207a10.12271,10.12271,0,0,1,3.66589-2.48771,9.66013,9.66013,0,0,1,3.14178-.65407,46.76664,46.76664,0,0,1,4.974,1.96361,17.2066,17.2066,0,0,0,6.54492,1.70087,72.82275,72.82275,0,0,1,13.74531-4.0572,102.47075,102.47075,0,0,1,20.29023-1.70227q20.15678,0,35.34509,18.30146,13.35189,15.9493,13.35259,31.37313,0,16.9975-14.92348,34.50933-10.47565,12.29112-21.207,18.30286a51.808,51.808,0,0,0-5.89085,3.53031,4.06474,4.06474,0,0,0-1.96362,3.269q10.46935,15.42522,20.9457,30.849,20.94291,31.11667,20.94431,35.55613,0,2.87833-4.05861,7.7161-4.0607,4.828-8.50853,4.83567-8.11722,0-30.36966-29.4794-12.04584-16.69563-24.08749-33.654-6.025-10.43163-7.33037-10.43582-1.5702,0-1.83224,4.71268-.26415,4.71269-.26275,27.752,0,8.11722-.39272,17.27982-.392,9.16751-.65407,18.84932,0,2.6142-4.18859,2.61909a52.20422,52.20422,0,0,1-12.43576-1.5709q-6.41915-1.57229-6.939-3.53451a51.408,51.408,0,0,1-.78544-8.77128q-.262-6.80487-.26135-12.56714V784.5927q0-8.37507-.26135-12.8285Q592.32306,750.03516,592.328,749.51036Zm29.32286-77.49645v48.17358a3.4732,3.4732,0,0,0,.26135,1.83224c.1719.1761.78545.26135,1.83364.26135q7.32687,0,24.08609-14.138,20.94291-17.53628,20.9457-37.7,0-6.28287-3.70641-8.11581-3.70641-1.83015-11.11924-1.83364a79.35006,79.35006,0,0,0-18.53485,2.35633Q621.64592,666.25654,621.65081,672.01391Z"/><path class="cls-1" d="M763.54967,773.412v40.25343q0,4.44435-1.543,6.14521-1.545,1.69389-7.199,1.69808a26.35588,26.35588,0,0,1-10.03051-1.69808,43.82546,43.82546,0,0,1-6.94184-3.53031q-3.088-3.1362-3.08448-35.55753,0-18.56141.5227-61.31233.522-42.74533.52409-45.363a20.15426,20.15426,0,0,0-.39272-5.22839c-.26135-.696-1.00627-1.0482-2.225-1.0482a49.57794,49.57794,0,0,0-5.76087.26275q-9.95154,1.31233-10.47215,1.30815-4.19069,0-8.37716-8.496-4.19279-8.49876-4.19-13.46719,0-3.92025,2.61908-5.22839,5.23258-2.86995,38.8782-7.71051,33.63862-4.83637,40.18774-4.83986,3.92863,0,8.24719,4.5827,4.32066,4.5827,4.32,8.50854a25.35389,25.35389,0,0,1-1.5709,9.42535A12.51622,12.51622,0,0,1,791.30164,658.4q-2.35634,1.5702-12.95987,2.61769-10.60352,1.0482-11.12622,1.0468-1.5723,0-1.57089,6.271-.7002,14.90532-1.399,49.01213Q763.54547,751.46,763.54967,773.412Z"/><path class="cls-1" d="M370.83281,873.15652q1.68622,1.04428,3.37245,2.09031c3.08164-3.62766,5.65981-7.93763,9.3873-10.6868,3.54433-2.61376,8.29093-3.59641,12.50888-5.29609q.625,1.20054,1.25,2.40021c-1.01043,1.94534-2.38632,3.7978-2.91324,5.86728-.401,1.57815.27344,3.43061.46963,5.16154,1.71183-.51737,3.98357-.5139,5.03567-1.64412,4.03391-4.33254,7.67633-9.02966,11.46546-13.58963q2.99093,3.19667,5.98273,6.39333-3.38027,3.543-6.75879,7.08692,2.698,1.50784,5.39766,3.01567,1.69664-4.03,3.39415-8.06089c3.89763-1.81079,7.75533-5.07473,11.69984-5.1815,17.56278-.474,35.1516-.11806,52.73.079,16.74246.18837,33.49012.31945,50.22129.89758,19.50552.67536,38.99455,1.80906,58.09468,2.72574.46615,5.5921.89064,10.68941,1.25262,15.02455,22.73213-5.28307,44.2455-10.284,67.19465-15.61831-2.38112-1.93579-4.05736-4.0426-6.22927-4.92369-6.27267-2.5417-12.75628-4.56083-19.13832-6.83865-10.67205-3.80909-21.25468-7.889-32.01788-11.41771-8.78052-2.87852-11.93161-.01823-10.26492,8.39857a79.84381,79.84381,0,0,1,.7205,8.731c-11.58178-.74481-22.01337-1.8976-32.45538-2.00264-40.03709-.40278-80.0794-.72484-120.11649-.48351-10.24322.06163-17.49334-2.25091-21.44479-12.54187-1.06425-2.77435-5.264-4.34555-8.0253-6.46885q-1.293,1.37763-2.58424,2.75525c2.6832,4.35076,5.3664,8.70153,8.33693,13.52105-3.08164.49827-5.7553.93144-8.42895,1.36374-3.65457-4.27351-7.00532-8.87254-11.08872-12.68684-2.12243-1.98267-5.53828-2.5799-8.37079-3.80214q-.77475,1.35939-1.55037,2.72053c3.25092,3.86638,6.50271,7.73276,10.034,11.93335-15.55754,5.5322-17.38135-14.14606-30.82254-12.962,2.96793,4.20492,5.93673,8.40985,8.53486,12.0896-13.40994,7.4246-15.73549-11.21285-28.54212-11.61911,3.01828,5.25963,5.07213,8.83955,7.71974,13.45421-4.08427.69966-7.50012.77779-10.442,1.99742-1.52.62935-2.20055,3.28478-3.2596,5.02526,1.64413.61893,3.31082,1.7969,4.92977,1.737a63.09311,63.09311,0,0,0,8.74927-1.44446c-1.60593,4.44885-3.02783,8.38468-4.44972,12.32224q1.56773,1.07814,3.13286,2.15455c2.7214-2.8872,5.92457-5.46016,8.06-8.731,3.94451-6.03829,8.52965-8.2267,14.36482-5.35686C374.10977,865.238,372.47086,869.19726,370.83281,873.15652Z"/><path class="cls-2" d="M272.25587,522.83025c-54.22741-27.3115-91.55469-58.7314-80.86661-140.67585,3.39821-29.79271-29.65012-42.86786-39.22293,3.57425s25.32542,106.50776,75.807,131.38S294.72726,532.35162,272.25587,522.83025Z"/><path class="cls-2" d="M279.09848,501.05933c-16.45311-16.71533-21.96245-38.973-16.58271-57.47354s-12.57619-30.86028-25.034-7.634,12.886,52.39909,33.04145,67.52469S288.33229,509.40613,279.09848,501.05933Z"/><path class="cls-2" d="M223.28587,547.80852c-21.01664-4.38318-33.19788-16.22525-37.48622-25.40628s-30.42554-21.96416-28.31434,7.33094c2.35611,32.69346,43.34732,36.3081,63.74223,30.98349S238.54583,550.286,223.28587,547.80852Z"/><path class="cls-2" d="M707.84077,586.552c-4.24119-88.0048,60.437-132.53734,110.27107-125.11525s35.52,57.25613,19.61553,52.48479-88.0048-31.27882-117.163,47.18329C714.20256,578.59972,707.724,604.53656,707.84077,586.552Z"/><path class="cls-2" d="M720.56436,474.16029c-1.76717-27.56777,7.42209-55.13553,36.40359-56.9027s33.22269,33.2227,16.96478,28.45135-33.2227-1.237-40.99822,22.08956S721.97809,496.42657,720.56436,474.16029Z"/><path class="cls-2" d="M708.32965,325.03271c3.66605-2.38583,6.95461-4.81839,10.51461-6.75095,2.8837-1.56542,4.05642-3.52332,3.84986-6.81138-.22051-3.51.1027-7.05448.19584-10.58372.01394-.52762.06776-1.05417.12078-1.84426,1.91809,1.5241,3.65814,2.89359,5.38369,4.2811,2.24594,1.806,4.5098,3.59174,6.70278,5.46034a2.01788,2.01788,0,0,0,2.15871.417c4.87663-1.4835,9.76763-2.9198,14.89-4.4423-.22254.721-.35634,1.26133-.55379,1.77734-1.64724,4.305-3.33918,8.59347-4.92138,12.92212a2.52363,2.52363,0,0,0,.25666,1.97461c2.83833,4.24936,5.76161,8.44194,8.8586,12.941-.75975,0-1.26489.02444-1.76707-.00382-4.61466-.25974-9.23043-.50453-13.84171-.8155a2.00982,2.00982,0,0,0-1.9744.93478c-2.7723,3.69651-5.60258,7.34953-8.41563,11.01541-.29807.38842-.61586.76171-1.11841,1.381-.74034-2.68778-1.41988-5.13889-2.09011-7.59256-.67855-2.48408-1.40942-4.95646-1.989-7.46362a1.98034,1.98034,0,0,0-1.48778-1.60137C718.28234,328.55525,713.47525,326.84692,708.32965,325.03271Zm6.61356-.79606c3.5341,1.25793,6.718,2.4761,9.962,3.505a3.01543,3.01543,0,0,1,2.31067,2.46775c.80125,3.35114,1.77148,6.66183,2.73619,10.219,2.11287-2.75106,4.1838-5.22938,5.99449-7.88514a3.96374,3.96374,0,0,1,4.3131-1.91114c3.11878.37934,6.28466.37133,9.74212.54276-2.27289-3.30708-4.38183-6.30058-6.38442-9.36362a2.59122,2.59122,0,0,1-.24146-1.97775c.75531-2.25207,1.68146-4.44644,2.527-6.66878.46293-1.21674.89172-2.44646,1.42093-3.90461-3.80038,1.12952-7.29172,2.21343-10.8177,3.1696a2.58726,2.58726,0,0,1-1.96655-.41173c-2.64605-2.01923-5.20778-4.14885-7.8059-6.23124-.27943-.224-.60616-.38886-1.34181-.853,0,4.02247-.02708,7.64767.01919,11.272a1.95581,1.95581,0,0,1-1.04268,1.91432C721.30507,320.04886,718.29019,322.05462,714.94321,324.23665Z"/><path class="cls-2" d="M776.59344,552.62713c3.66605-2.38583,6.95461-4.81839,10.51461-6.75095,2.8837-1.56541,4.05642-3.52332,3.84986-6.81138-.22051-3.51.1027-7.05448.19584-10.58372.01394-.52762.06776-1.05417.12078-1.84426,1.91809,1.52411,3.65814,2.89359,5.38369,4.2811,2.24594,1.806,4.5098,3.59174,6.70278,5.46034a2.01786,2.01786,0,0,0,2.15871.417c4.87663-1.4835,9.76763-2.91979,14.89-4.44229-.22255.721-.35634,1.26132-.55379,1.77733-1.64724,4.305-3.33918,8.59347-4.92138,12.92212a2.52366,2.52366,0,0,0,.25666,1.97462c2.83833,4.24935,5.76161,8.44193,8.8586,12.941-.75975,0-1.26489.02444-1.76707-.00382-4.61466-.25974-9.23043-.50453-13.84171-.8155a2.00982,2.00982,0,0,0-1.9744.93478c-2.7723,3.69651-5.60258,7.34953-8.41563,11.01541-.29808.38842-.61586.76171-1.11841,1.381-.74034-2.68778-1.41988-5.1389-2.09011-7.59257-.67855-2.48408-1.40942-4.95646-1.989-7.46362a1.98034,1.98034,0,0,0-1.48778-1.60137C786.54613,556.14967,781.739,554.44134,776.59344,552.62713Zm6.61356-.79606c3.5341,1.25793,6.71805,2.4761,9.962,3.505a3.01543,3.01543,0,0,1,2.31067,2.46775c.80125,3.35114,1.77148,6.66184,2.73619,10.219,2.11287-2.75106,4.1838-5.22938,5.99449-7.88514a3.96374,3.96374,0,0,1,4.3131-1.91114c3.11878.37935,6.28466.37133,9.74212.54277-2.27289-3.30709-4.38183-6.30059-6.38442-9.36363a2.59122,2.59122,0,0,1-.24146-1.97775c.75531-2.25207,1.68146-4.44643,2.527-6.66878.46293-1.21674.89172-2.44646,1.42093-3.90461-3.80038,1.12952-7.29172,2.21343-10.8177,3.1696a2.58726,2.58726,0,0,1-1.96655-.41173c-2.646-2.01923-5.20778-4.14884-7.8059-6.23124-.27943-.22394-.60616-.38886-1.34181-.853,0,4.02247-.02708,7.64767.01919,11.272a1.95583,1.95583,0,0,1-1.04268,1.91433C789.56886,547.64328,786.554,549.649,783.207,551.83107Z"/><path class="cls-2" d="M204.45843,325.03271c3.66605-2.38583,6.95461-4.81839,10.51461-6.75095,2.88369-1.56542,4.05642-3.52332,3.84986-6.81138-.22051-3.51.1027-7.05448.19584-10.58372.01393-.52762.06776-1.05417.12078-1.84426,1.91809,1.5241,3.65813,2.89359,5.38368,4.2811,2.24594,1.806,4.50981,3.59174,6.70278,5.46034a2.0179,2.0179,0,0,0,2.15872.417c4.87663-1.4835,9.76762-2.9198,14.89-4.4423-.22255.721-.35634,1.26133-.55379,1.77734-1.64725,4.305-3.33918,8.59347-4.92138,12.92212a2.52367,2.52367,0,0,0,.25665,1.97461c2.83834,4.24936,5.76161,8.44194,8.85861,12.941-.75975,0-1.2649.02444-1.76708-.00382-4.61465-.25974-9.23043-.50453-13.8417-.8155a2.00985,2.00985,0,0,0-1.97441.93478c-2.77229,3.69651-5.60257,7.34953-8.41563,11.01541-.29807.38842-.61585.76171-1.1184,1.381-.74034-2.68778-1.41988-5.13889-2.09012-7.59256-.67854-2.48408-1.40941-4.95646-1.989-7.46362a1.98031,1.98031,0,0,0-1.48777-1.60137C214.41112,328.55525,209.604,326.84692,204.45843,325.03271Zm6.61356-.79606c3.5341,1.25793,6.71805,2.4761,9.962,3.505a3.01541,3.01541,0,0,1,2.31066,2.46775c.80126,3.35114,1.77149,6.66183,2.7362,10.219,2.11287-2.75106,4.18379-5.22938,5.99449-7.88514a3.96374,3.96374,0,0,1,4.3131-1.91114c3.11877.37934,6.28466.37133,9.74211.54276-2.27288-3.30708-4.38182-6.30058-6.38441-9.36362a2.59122,2.59122,0,0,1-.24146-1.97775c.75531-2.25207,1.68145-4.44644,2.527-6.66878.46293-1.21674.89173-2.44646,1.42094-3.90461-3.80038,1.12952-7.29172,2.21343-10.8177,3.1696a2.58728,2.58728,0,0,1-1.96656-.41173c-2.646-2.01923-5.20777-4.14885-7.80589-6.23124-.27943-.224-.60616-.38886-1.34182-.853,0,4.02247-.02708,7.64767.01919,11.272a1.9558,1.9558,0,0,1-1.04267,1.91432C217.43385,320.04886,214.419,322.05462,211.072,324.23665Z"/><path class="cls-2" d="M240.323,576.93168c4.24678-1.04734,8.15246-2.263,12.15-2.9171,3.23813-.52988,4.98956-1.99314,5.87594-5.16621.94622-3.3873,2.4172-6.62822,3.66594-9.93048.18669-.49369.4107-.97323.72063-1.70193,1.3101,2.07017,2.50291,3.93577,3.67611,5.81362,1.527,2.44421,3.07758,4.87519,4.534,7.3611a2.01788,2.01788,0,0,0,1.90147,1.10376c5.09324.203,10.18452.45523,15.52263.70217-.44731.60769-.75137,1.074-1.10755,1.49631-2.97152,3.52372-5.9798,7.01711-8.89767,10.58455a2.52367,2.52367,0,0,0-.40707,1.94917c1.2828,4.94647,2.6645,9.86726,4.10944,15.13466-.71748-.24988-1.20256-.393-1.66751-.58481-4.27249-1.76305-8.55095-3.51235-12.8034-5.32267a2.00983,2.00983,0,0,0-2.172.23339c-3.83385,2.579-7.70814,5.09795-11.5704,7.63466-.40924.26877-.83212.51678-1.51038.93629.18486-2.78174.3493-5.32.52336-7.85758.17622-2.56906.29918-5.14427.57642-7.70258a1.98034,1.98034,0,0,0-.8783-2.00161C248.56336,583.53168,244.58558,580.33733,240.323,576.93168Zm6.50743,1.42342c2.92375,2.35031,5.5299,4.54791,8.255,6.58655a3.01542,3.01542,0,0,1,1.37046,3.09044c-.34551,3.42823-.51815,6.87384-.77707,10.55041,2.90015-1.90307,5.671-3.56238,8.25441-5.47485a3.96375,3.96375,0,0,1,4.70172-.38623c2.82049,1.384,5.81288,2.41769,9.02159,3.71675-1.05873-3.87065-2.06578-7.39123-2.94952-10.94251a2.59128,2.59128,0,0,1,.42246-1.94713c1.454-1.87835,3.05034-3.646,4.57978-5.46663.83736-.99679,1.64676-2.01707,2.62611-3.22-3.96045-.18327-7.614-.308-11.25834-.56469a2.58727,2.58727,0,0,1-1.72172-1.03562c-1.83471-2.77718-3.55348-5.63086-5.32216-8.45193-.19023-.30339-.44454-.56659-.9866-1.24688-1.323,3.79868-2.5409,7.21328-3.68923,10.65115a1.95582,1.95582,0,0,1-1.61429,1.46488C254.21567,576.49272,250.70883,577.39529,246.83039,578.3551Z"/><path class="cls-2" d="M538.19916,257.3251c4.373-.09334,8.45-.42547,12.49385-.18964,3.27563.191,5.30465-.85383,6.86344-3.75628,1.664-3.09841,3.8081-5.93924,5.74873-8.88851.29013-.44091.61358-.85987,1.07535-1.50316.82571,2.30655,1.5817,4.38783,2.31587,6.47678.95556,2.719,1.937,5.43018,2.81457,8.1744a2.01788,2.01788,0,0,0,1.61409,1.49285c4.9256,1.3118,9.8385,2.67127,14.99342,4.07953-.56937.49517-.968.88365-1.408,1.21791-3.67014,2.78865-7.36952,5.53968-10.99687,8.38272a2.52363,2.52363,0,0,0-.82345,1.813c.17011,5.10727.44233,10.21111.70046,15.667-.64547-.40072-1.08753-.6464-1.49926-.93528-3.78356-2.65466-7.576-5.2972-11.32963-7.9936a2.00981,2.00981,0,0,0-2.17047-.24721c-4.305,1.67827-8.63637,3.289-12.95986,4.91977-.45811.17278-.925.32231-1.67857.58335.78868-2.674,1.50418-5.11485,2.22893-7.553.73374-2.46834,1.41685-4.95435,2.2468-7.39011a1.98032,1.98032,0,0,0-.41935-2.14523C544.7969,265.56731,541.6139,261.58045,538.19916,257.3251Zm6.03868,2.812c2.339,2.93278,4.40157,5.64708,6.61491,8.23228a3.01542,3.01542,0,0,1,.6615,3.31533c-1.08681,3.2697-2.00872,6.59418-3.06534,10.12515,3.24611-1.22284,6.31272-2.23609,9.25184-3.53735a3.96374,3.96374,0,0,1,4.67238.65125c2.44959,1.96727,5.14352,3.63029,7.99051,5.59957-.18671-4.00849-.39953-7.66408-.48532-11.32267a2.59125,2.59125,0,0,1,.838-1.80763c1.82955-1.51494,3.7738-2.89076,5.66433-4.33285,1.03507-.78957,2.048-1.60816,3.26669-2.56785-3.82452-1.04487-7.36243-1.96549-10.86239-3.0129a2.58726,2.58726,0,0,1-1.45359-1.38705c-1.183-3.11116-2.23618-6.27164-3.34516-9.41118-.11928-.33765-.30988-.65009-.69007-1.43245-2.12163,3.41744-4.05674,6.48309-5.929,9.58664a1.95583,1.95583,0,0,1-1.89555,1.07644C551.85164,259.93471,548.2323,260.04859,544.23784,260.13706Z"/><path class="cls-2" d="M746.70447,367.01046c2.54038-.26534,4.89695-.65537,7.26165-.71327A3.75537,3.75537,0,0,0,757.779,363.78c.81886-1.88342,1.92952-3.6401,2.91655-5.45008.14756-.27059.31558-.53.55327-.92666.59182,1.30245,1.13221,2.47717,1.66026,3.65741.6873,1.53619,1.3893,3.06662,2.03241,4.62127a1.17833,1.17833,0,0,0,1.01136.79088c2.92975.52571,5.85442,1.07977,8.92228,1.65055-.30745.31565-.5207.561-.76058.77671-2.00127,1.8-4.02137,3.57944-5.99512,5.409a1.47369,1.47369,0,0,0-.39171,1.0948c.34545,2.964.75016,5.921,1.16366,9.08361-.395-.202-.66408-.32369-.91763-.47194-2.33-1.36229-4.66445-2.71712-6.979-4.10515a1.17366,1.17366,0,0,0-1.275-.03913c-2.42432,1.18442-4.86722,2.33081-7.30458,3.48846-.25826.12266-.52274.23221-.94869.42049.32993-1.59419.62853-3.04918.93265-4.503.30788-1.47186.58545-2.95155.9509-4.4091a1.15641,1.15641,0,0,0-.34756-1.22818C750.94176,371.48864,748.897,369.32208,746.70447,367.01046Zm3.64991,1.345c1.50272,1.59385,2.834,3.07391,4.2468,4.47156a1.76086,1.76086,0,0,1,.54495,1.89744c-.47469,1.95525-.85077,3.93441-1.29528,6.04025,1.83007-.86827,3.56579-1.60592,5.21341-2.505a2.31464,2.31464,0,0,1,2.75053.15353c1.52047,1.02664,3.16845,1.86444,4.92029,2.87307-.30209-2.32373-.60235-4.44083-.82882-6.5658a1.51314,1.51314,0,0,1,.40045-1.09239c.9916-.96991,2.05667-1.86439,3.08728-2.79485.56425-.50943,1.11422-1.03469,1.77713-1.652-2.2761-.4235-4.37941-.78853-6.46676-1.22918a1.51079,1.51079,0,0,1-.91285-.73705c-.83859-1.75345-1.604-3.54187-2.40087-5.31541-.08571-.19074-.21171-.36337-.47071-.80032-1.06977,2.09117-2.048,3.9686-2.98779,5.86507a1.14209,1.14209,0,0,1-1.05117.7179C754.77546,367.8703,752.67468,368.11123,750.35438,368.35548Z"/><path class="cls-2" d="M754.94921,584.05689c2.44022.75452,4.76042,1.32214,6.95756,2.19835a3.75537,3.75537,0,0,0,4.49541-.8159c1.49324-1.41,3.205-2.58873,4.824-3.86508.242-.19081.4985-.36331.873-.63461.03226,1.43024.06742,2.72282.08908,4.01562.02818,1.68269.07214,3.36587.05243,5.04817a1.17833,1.17833,0,0,0,.6191,1.12474c2.48733,1.635,4.95883,3.294,7.55543,5.02465-.40677.16939-.69928.31114-1.00465.41524-2.54768.86849-5.10463,1.71074-7.63863,2.61726a1.47366,1.47366,0,0,0-.7905.85272c-.84735,2.86119-1.63749,5.73932-2.50033,8.8099-.28377-.341-.48341-.55866-.65828-.79463-1.607-2.16845-3.22107-4.33181-4.80378-6.51787a1.17364,1.17364,0,0,0-1.157-.53714c-2.69474.1362-5.39161.23014-8.08783.3366-.28568.01128-.57194.008-1.03761.01376.93-1.3362,1.77644-2.55672,2.62751-3.774.86162-1.23238,1.69845-2.48388,2.60739-3.68048a1.15642,1.15642,0,0,0,.16314-1.26594C757.08531,589.84013,756.05672,587.04425,754.94921,584.05689Zm2.82749,2.67137c.75531,2.05623,1.3977,3.94043,2.14744,5.7809a1.76085,1.76085,0,0,1-.2447,1.95891c-1.205,1.61131-2.32873,3.28336-3.56517,5.045,2.024-.07908,3.91-.07513,5.77842-.25426a2.31464,2.31464,0,0,1,2.46881,1.22227c.99457,1.54164,2.18062,2.95975,3.395,4.57578.63557-2.25545,1.19162-4.32018,1.8186-6.36314a1.51316,1.51316,0,0,1,.79759-.84707c1.293-.5021,2.62394-.906,3.93732-1.35644.71908-.24665,1.43123-.51347,2.28342-.82053-1.92645-1.284-3.717-2.44641-5.46315-3.672a1.51086,1.51086,0,0,1-.54969-1.03653c-.08189-1.94194-.08275-3.88726-.11839-5.83128-.00384-.20907-.05185-.41733-.11826-.92091-1.80561,1.50238-3.443,2.84423-5.0526,4.21866a1.14213,1.14213,0,0,1-1.24875.247C762.03266,588.01986,760.00626,587.41568,757.7767,586.72826Z"/><path class="cls-2" d="M242.17245,365.73744c2.41329.83665,4.713,1.48244,6.8792,2.43248a3.75536,3.75536,0,0,0,4.52044-.66335c1.54009-1.35865,3.29073-2.47882,4.952-3.69966.24836-.18252.51051-.34624.89393-.60472-.01615,1.43052-.02473,2.72354-.04682,4.01633-.02877,1.68269-.04178,3.36639-.11839,5.04706a1.17831,1.17831,0,0,0,.5807,1.145c2.43059,1.71817,4.84454,3.45986,7.38111,5.27738-.41227.15554-.70941.28731-1.01813.381-2.5756.7818-5.15958,1.53707-7.72279,2.35733a1.47372,1.47372,0,0,0-.81891.82549c-.94366,2.8309-1.83071,5.68064-2.797,8.72028-.27206-.35044-.46423-.5747-.631-.81646-1.53268-2.22156-3.07267-4.4383-4.58052-6.67665a1.17362,1.17362,0,0,0-1.1382-.576c-2.6978.045-5.39631.0476-8.09458.06279-.28591.0016-.57189-.0113-1.03749-.02136.97466-1.304,1.86192-2.49515,2.75369-3.683.90282-1.20253,1.78151-2.425,2.7304-3.59016a1.15641,1.15641,0,0,0,.20589-1.2597C244.11167,371.58964,243.17825,368.76056,242.17245,365.73744Zm2.73549,2.7655c.68532,2.08061,1.26359,3.98546,1.95064,5.85024a1.76085,1.76085,0,0,1-.31084,1.94952c-1.25882,1.56961-2.43847,3.20269-3.7338,4.92149,2.02557-.01056,3.91031.0572,5.78371-.05862a2.31462,2.31462,0,0,1,2.426,1.30509c.94185,1.57441,2.07924,3.03184,3.23827,4.688.71151-2.23266,1.33709-4.27739,2.03283-6.298a1.51315,1.51315,0,0,1,.82579-.8196c1.30927-.45807,2.65309-.81667,3.981-1.22246.727-.22218,1.44778-.46476,2.30987-.74281-1.8819-1.34849-3.63211-2.57076-5.33579-3.85476a1.51083,1.51083,0,0,1-.51431-1.05453c-.01615-1.9436.04881-3.88783.079-5.83194.00323-.20908-.0377-.41885-.087-.92439-1.85541,1.44044-3.53727,2.72612-5.19244,4.04531a1.14211,1.14211,0,0,1-1.25638.20457C249.11777,369.93779,247.113,369.2654,244.90794,368.50294Z"/><path class="cls-2" d="M267.21839,263.2639c2.41329.83664,4.713,1.48243,6.8792,2.43248a3.75537,3.75537,0,0,0,4.52044-.66335c1.54009-1.35865,3.29073-2.47882,4.952-3.69967.24836-.18251.51051-.34624.89393-.60471-.01615,1.43052-.02473,2.72354-.04682,4.01633-.02877,1.68269-.04178,3.36639-.11839,5.04706a1.17833,1.17833,0,0,0,.5807,1.145c2.43059,1.71816,4.84454,3.45985,7.38111,5.27738-.41227.15554-.70941.28731-1.01813.381-2.5756.7818-5.15958,1.53706-7.72279,2.35733a1.47369,1.47369,0,0,0-.81891.82549c-.94366,2.83089-1.83071,5.68064-2.79695,8.72027-.27206-.35044-.46423-.57469-.631-.81645-1.53268-2.22157-3.07267-4.4383-4.58052-6.67666a1.17362,1.17362,0,0,0-1.1382-.576c-2.6978.045-5.39631.0476-8.09458.06279-.28591.0016-.57189-.01131-1.03749-.02136.97466-1.304,1.86192-2.49516,2.75369-3.683.90282-1.20253,1.78151-2.425,2.7304-3.59016a1.15641,1.15641,0,0,0,.20589-1.2597C269.15761,269.11609,268.22419,266.287,267.21839,263.2639Zm2.73549,2.7655c.68532,2.0806,1.26359,3.98546,1.95064,5.85024a1.76086,1.76086,0,0,1-.31084,1.94951c-1.25882,1.56962-2.43847,3.2027-3.7338,4.9215,2.02557-.01056,3.91031.05719,5.78371-.05862a2.3146,2.3146,0,0,1,2.426,1.30509c.94185,1.57441,2.07924,3.03183,3.23827,4.688.71151-2.23265,1.33709-4.27738,2.03283-6.298a1.5132,1.5132,0,0,1,.82579-.81961c1.30927-.45806,2.65309-.81666,3.981-1.22246.727-.22218,1.44778-.46475,2.30987-.74281-1.8819-1.34849-3.63211-2.57076-5.33579-3.85475a1.51085,1.51085,0,0,1-.51431-1.05453c-.01615-1.9436.04881-3.88783.079-5.83194.00323-.20909-.0377-.41885-.087-.92439-1.85541,1.44043-3.53727,2.72611-5.19244,4.0453a1.14209,1.14209,0,0,1-1.25638.20457C274.16371,267.46424,272.15891,266.79185,269.95388,266.0294Z"/><path class="cls-2" d="M433.738,242.79853c1.07771,2.31571,2.21348,4.417,3.03785,6.63414a3.75538,3.75538,0,0,0,3.6211,2.78606c2.04738.16129,4.06991.63974,6.10258.98394.30388.05146.60386.1259,1.05627.22155-1.03892.9835-1.9738,1.8768-2.91792,2.76023-1.22886,1.14985-2.44748,2.31173-3.70818,3.42581a1.17836,1.17836,0,0,0-.41865,1.2137c.45645,2.94134.88442,5.8871,1.3432,8.9737-.39851-.188-.69988-.30978-.98195-.46638-2.35331-1.30648-4.69338-2.63744-7.0657-3.90826a1.47367,1.47367,0,0,0-1.16269-.01407c-2.69016,1.29131-5.35448,2.6364-8.21031,4.05671.06251-.43923.08994-.73328.14759-1.02127.52981-2.64647,1.05107-5.29482,1.61021-7.93512a1.17366,1.17366,0,0,0-.378-1.21836c-1.909-1.90684-3.788-3.84362-5.67592-5.7715-.2-.20428-.3897-.4187-.70636-.76019,1.61478-.20688,3.08773-.39809,4.56139-.5837,1.49193-.18792,2.9814-.407,4.47853-.53588a1.15639,1.15639,0,0,0,1.04819-.72837C430.88275,248.26262,432.26586,245.62406,433.738,242.79853Zm-.08386,3.88894c-1.018,1.93966-1.98419,3.68016-2.84592,5.47093a1.76086,1.76086,0,0,1-1.61677,1.13283c-2.00328.18752-3.9971.47607-6.13295.74114,1.41662,1.44783,2.679,2.849,4.06542,4.11426a2.31461,2.31461,0,0,1,.75,2.65073c-.47589,1.77183-.73171,3.60276-1.11526,5.58749,2.09889-1.04193,4.003-2.01489,5.93857-2.92063a1.51311,1.51311,0,0,1,1.16325.02311c1.23983.62194,2.43225,1.3379,3.64748,2.00956.66534.36773,1.341.7168,2.14045,1.1427-.34035-2.29-.67975-4.39761-.94245-6.51472a1.51082,1.51082,0,0,1,.39981-1.103c1.385-1.36362,2.827-2.66941,4.24461-4.00013.15246-.14312.27468-.31844.60355-.70555-2.32549-.33093-4.41907-.64483-6.51816-.91625a1.1421,1.1421,0,0,1-1.02094-.76028C435.55182,250.70994,434.64027,248.802,433.65415,246.68747Z"/><path class="cls-2" d="M691.50123,263.70773c1.06633,1.42348,2.1415,2.69255,3.02107,4.08515a2.615,2.615,0,0,0,2.86687,1.37939c1.41825-.18359,2.865-.1475,4.29947-.20435.21445-.00849.42953-.00077.75153-.00045-.567.81911-1.07595,1.56184-1.59264,2.29917-.67254.95969-1.33638,1.92611-2.03573,2.866a.8205.8205,0,0,0-.11129.887c.73268,1.93886,1.44659,3.8848,2.20168,5.9223-.2985-.071-.52132-.11076-.736-.177-1.79088-.55291-3.57624-1.1244-5.375-1.65028a1.02619,1.02619,0,0,0-.7943.15708c-1.648,1.26557-3.27071,2.56408-5.01312,3.94129-.02037-.30825-.04384-.51256-.04583-.71707-.01836-1.8793-.04281-3.75866-.0403-5.638a.81723.81723,0,0,0-.43221-.776c-1.57416-1.0257-3.13222-2.07609-4.695-3.11915-.16559-.11053-.32557-.22945-.5903-.41675,1.07068-.37246,2.047-.7139,3.02454-1.05164.98969-.34192,1.97323-.70476,2.97494-1.00716a.80526.80526,0,0,0,.60984-.64659C690.33889,267.84038,690.90312,265.84415,691.50123,263.70773Zm.50034,2.662c-.41562,1.46765-.8245,2.79217-1.155,4.136a1.22615,1.22615,0,0,1-.9393,1.0037c-1.3382.415-2.65546.8974-4.07287,1.3842,1.17286.78351,2.23394,1.5573,3.36,2.22075a1.61176,1.61176,0,0,1,.89108,1.69875c-.07028,1.27557.01786,2.55988.041,3.9673,1.28086-1.01088,2.43888-1.94683,3.628-2.84149a1.05367,1.05367,0,0,1,.796-.151c.934.24607,1.84917.563,2.77354.84648.50609.1552,1.01653.29621,1.62235.47182-.5602-1.51167-1.0936-2.89917-1.57611-4.30415a1.05211,1.05211,0,0,1,.11432-.809c.74833-1.12775,1.5437-2.22424,2.31894-3.33424.08337-.11938.14152-.25637.31012-.5673-1.63207.10786-3.10368.19409-4.57295.31a.79529.79529,0,0,1-.80467-.37172C693.87131,268.83871,692.97665,267.66924,692.00157,266.36976Z"/><path class="cls-2" d="M335.91659,251.19036c1.5127.93547,2.9772,1.724,4.30477,2.69894a2.615,2.615,0,0,0,3.17265.23658c1.25312-.68908,2.61306-1.18408,3.92756-1.76108.19652-.08626.39956-.15766.69941-.275-.22849.96962-.43093,1.847-.64251,2.7221-.27541,1.13907-.54026,2.28121-.84787,3.41163a.82051.82051,0,0,0,.2205.86639c1.39041,1.53712,2.76594,3.0877,4.21326,4.70846-.3038.043-.52575.08737-.74978.1041-1.86908.13964-3.73981.26-5.60632.42762a1.02615,1.02615,0,0,0-.682.43643c-1.07169,1.78019-2.10778,3.5818-3.22655,5.50041-.13159-.2795-.22807-.46111-.30465-.65075-.70372-1.74267-1.41313-3.48317-2.09741-5.23348a.81722.81722,0,0,0-.68587-.56445c-1.84008-.37966-3.6742-.78818-5.51007-1.18814-.19452-.04238-.38689-.09463-.70175-.17226.86058-.73789,1.64462-1.41243,2.43121-2.084.79635-.67988,1.57933-1.377,2.40129-2.02447a.80524.80524,0,0,0,.33145-.8247C336.34452,255.462,336.14039,253.39759,335.91659,251.19036Zm1.43835,2.29518c.14934,1.518.25265,2.90037.436,4.272a1.22615,1.22615,0,0,1-.50765,1.2775c-1.09407.8752-2.144,1.80555-3.28556,2.77657,1.378.30082,2.64848.63344,3.93913.8396A1.61174,1.61174,0,0,1,339.387,263.907c.40062,1.21307.95191,2.37638,1.48768,3.678.823-1.409,1.559-2.70331,2.339-3.97057a1.0536,1.0536,0,0,1,.68577-.43138c.95934-.1122,1.927-.15155,2.89106-.22539.52781-.04044,1.05448-.09568,1.68258-.15354-1.07377-1.20249-2.07724-2.29918-3.03972-3.43075a1.05209,1.05209,0,0,1-.18914-.79479c.28456-1.32318.62432-2.63447.94041-3.951.034-.14158.03807-.29035.08142-.64138-1.47983.6967-2.8182,1.31463-4.14352,1.95939a.79529.79529,0,0,1-.88486-.052C339.99748,255.10067,338.7374,254.33893,337.35494,253.48554Z"/><path class="cls-2" d="M191.23154,583.097c1.5127.93547,2.9772,1.724,4.30477,2.69894a2.615,2.615,0,0,0,3.17265.23658c1.25312-.68908,2.61306-1.18408,3.92757-1.76108.19651-.08626.39955-.15766.6994-.275-.22849.96962-.43093,1.847-.64251,2.7221-.27541,1.13907-.54025,2.28122-.84787,3.41164a.8205.8205,0,0,0,.2205.86638c1.39041,1.53712,2.76594,3.0877,4.21326,4.70846-.3038.043-.52575.08737-.74978.1041-1.86908.13964-3.73981.26-5.60632.42762a1.02615,1.02615,0,0,0-.682.43643c-1.07169,1.78019-2.10778,3.5818-3.22655,5.50041-.13159-.2795-.22807-.46111-.30465-.65075-.70372-1.74267-1.41313-3.48317-2.09741-5.23347a.81723.81723,0,0,0-.68587-.56446c-1.84007-.37966-3.6742-.78818-5.51007-1.18814-.19452-.04238-.38689-.09463-.70175-.17226.86058-.73789,1.64462-1.41243,2.43122-2.084.79634-.67988,1.57932-1.377,2.40128-2.02446a.80526.80526,0,0,0,.33145-.8247C191.65947,587.3686,191.45535,585.30423,191.23154,583.097Zm1.43835,2.29518c.14934,1.518.25265,2.90037.436,4.272a1.22614,1.22614,0,0,1-.50765,1.27749c-1.09407.8752-2.144,1.80556-3.28556,2.77658,1.378.30081,2.64848.63343,3.93913.83959a1.61174,1.61174,0,0,1,1.45013,1.25573c.40062,1.21307.95191,2.37638,1.48768,3.678.823-1.409,1.559-2.70331,2.339-3.97057a1.0536,1.0536,0,0,1,.68577-.43138c.95934-.11219,1.927-.15154,2.89106-.22539.52781-.04044,1.05448-.09568,1.68258-.15354-1.07377-1.20249-2.07724-2.29918-3.03972-3.43075a1.05208,1.05208,0,0,1-.18914-.79478c.28456-1.32319.62432-2.63448.94042-3.951.034-.14159.03806-.29036.08141-.64139-1.47983.6967-2.8182,1.31463-4.14352,1.95939a.7953.7953,0,0,1-.88486-.052C195.31243,587.0073,194.05235,586.24556,192.66989,585.39217Z"/><path class="cls-2" d="M222.921,605.05686c1.51269.93547,2.9772,1.724,4.30476,2.69894a2.615,2.615,0,0,0,3.17265.23657c1.25312-.68907,2.61306-1.18407,3.92757-1.76108.19652-.08625.39955-.15765.6994-.275-.22848.96962-.43092,1.847-.6425,2.7221-.27541,1.13906-.54026,2.28121-.84787,3.41163a.82051.82051,0,0,0,.2205.86639c1.39041,1.53712,2.76594,3.0877,4.21325,4.70846-.30379.043-.52574.08737-.74978.1041-1.86908.13963-3.73981.26-5.60632.42762a1.02616,1.02616,0,0,0-.682.43643c-1.07169,1.78019-2.10779,3.5818-3.22655,5.50041-.13159-.2795-.22808-.46111-.30466-.65075-.70371-1.74268-1.41312-3.48317-2.0974-5.23348a.81726.81726,0,0,0-.68587-.56446c-1.84008-.37965-3.6742-.78817-5.51007-1.18813-.19452-.04238-.3869-.09463-.70176-.17226.86058-.73789,1.64463-1.41243,2.43122-2.084.79634-.67988,1.57932-1.377,2.40129-2.02447a.80522.80522,0,0,0,.33144-.8247C223.34894,609.32847,223.14482,607.26409,222.921,605.05686Zm1.43835,2.29518c.14933,1.518.25265,2.90037.436,4.272a1.22616,1.22616,0,0,1-.50765,1.2775c-1.09407.87519-2.144,1.80555-3.28556,2.77657,1.378.30082,2.64848.63344,3.93912.83959a1.61177,1.61177,0,0,1,1.45013,1.25574c.40062,1.21307.95191,2.37638,1.48768,3.678.823-1.409,1.559-2.70331,2.339-3.97057a1.05362,1.05362,0,0,1,.68578-.43138c.95933-.1122,1.927-.15155,2.89106-.22539.52781-.04044,1.05448-.09568,1.68258-.15354-1.07378-1.20249-2.07725-2.29918-3.03972-3.43075a1.052,1.052,0,0,1-.18914-.79479c.28455-1.32319.62432-2.63448.94041-3.951.034-.14158.03807-.29035.08141-.64138-1.47983.6967-2.81819,1.31463-4.14352,1.95939a.79528.79528,0,0,1-.88485-.052C227.00191,608.96717,225.74182,608.20543,224.35937,607.352Z"/></g></svg>