<svg xmlns="http://www.w3.org/2000/svg" viewBox="0 0 1000 1000"><defs><style>.cls-1{fill:#343434;}.cls-2{fill:#ec6a83;}</style></defs><title>Valentines_22</title><g id="Layer_21" data-name="Layer 21"><path class="cls-1" d="M400.47107,183.86694l-26.60083,68.30243q2.48037,6.98614,4.96075,9.69319c.90018.90018,1.35352,2.78206,1.35352,5.63262q0,6.991-7.21444,11.72185-18.933,12.40186-25.6974,37.1942a245.20788,245.20788,0,0,1-8.11462,27.05092q-9.69646,24.57381-21.19,24.56891-7.21608,0-18.2579-10.14328-12.40188-11.26686-12.397-22.09017,0-.45009,7.77542-17.01853,7.7787-16.57008,14.98988-33.47608,9.69156-22.98873,13.30042-37.19094L271.9841,162.00181a57.70126,57.70126,0,0,1,4.50739-6.76436q3.15552-3.6007,11.9469-3.604,24.5689,0,39.4479,25.92244,6.53605,12.17193,13.07537,24.34387,6.98126-6.30612,10.81841-20.28656,6.53606-23.66874,13.97555-23.66874,7.8912,0,18.48621,6.311Q397.539,172.14673,400.47107,183.86694Z"/><path class="cls-1" d="M539.10133,278.09181q0,38.54608-12.84706,62.66329-15.33234,28.63439-44.85874,28.62949-29.07957,0-50.71966-27.276Q412.418,319.115,412.418,299.0535a78.05645,78.05645,0,0,0-3.15388-22.7653q-3.1604-10.36669-3.15714-14.2006.90018-5.18579,1.35353-7.66453,1.57041-7.66128,2.02865-8.11462,5.631-6.53607,10.70752-28.85454,5.06838-22.31847,11.38266-31.10823,11.04181-15.32744,34.48715-15.32907,29.30462,0,46.66235,16.45755,15.0975,14.20222,21.415,40.34808Q539.0997,248.11043,539.10133,278.09181Zm-41.47655-4.05731a18.45287,18.45287,0,0,0-2.02866-8.34293,16.22273,16.22273,0,0,1-2.02865-6.98615,24.74878,24.74878,0,0,1,.67839-4.73244q1.57041-1.35516,1.57531-5.63588,0-11.27176-6.7611-27.61516-6.7611-16.34014-12.622-16.3434-5.19067,0-11.4968,18.26117-4.06057,11.94688-8.793,34.03706-1.80523,9.24636-3.604,18.2579,0,21.19326,3.604,32.6868,2.0303,6.54095,11.04672,21.86513,18.933-12.17193,20.5116-13.97555Q497.62315,303.56417,497.62478,274.0345Z"/><path class="cls-1" d="M673.44924,261.86256a29.67732,29.67732,0,0,0-3.94316,6.872,17.47276,17.47276,0,0,0-1.01433,5.97508v6.311q0,10.82167-4.72918,29.52966-6.29634,24.57381-16.19664,39.673-13.27758,20.068-31.05278,20.06151-21.37428,0-36.22227-12.17193-12.15237-10.14165-21.37591-29.97975-5.18089-11.26688-13.50263-37.64429V252.16937q.636-2.70541,3.58766-34.71546,2.94515-32.00514,2.95166-48.466v-7.88958a6.42243,6.42243,0,0,1,2.58964.45335,20.52139,20.52139,0,0,1,2.14281,1.12522q2.03028-1.5753,4.28235-3.37892a9.09817,9.09817,0,0,0,2.02866-6.31427q16.68259,3.61049,22.31847,4.96075Q599.736,161.78,599.73923,177.781q-1.13012,8.34129-2.2537,16.45429-2.70542,18.93793-4.51066,37.86933-2.70052,27.72932-2.70379,42.38,0,20.96332,2.5929,32.57265,2.588,11.61422,11.83274,21.97928,5.41083-3.60559,11.27176-13.30041,9.01154-14.65231,13.97554-36.294,6.7611-28.84964,6.76437-68.07413,0-15.32744-3.38219-25.47235-4.05567-7.66126-7.88957-15.32907a4.95049,4.95049,0,0,1,.67513-2.36459,8.53082,8.53082,0,0,0,.90343-2.36785l3.15388,3.15387q3.38055-4.27582,6.9894-8.78975,2.70543-2.70543,11.27176-2.70379a25.53412,25.53412,0,0,1,17.35447,6.7611q7.66128,6.7611,7.66454,12.85033Z"/><path class="cls-2" d="M429.5213,572.84378q0,5.86581-6.74806,9.416a30.11281,30.11281,0,0,1-14.21037,3.55178q-8.70822,0-12.43612-5.14992-2.8424-3.90891-2.84077-10.30309a34.495,34.495,0,0,1,.53162-6.57193,3.04931,3.04931,0,0,1,.53489-1.422,83.76966,83.76966,0,0,0-1.95364-15.453,88.29138,88.29138,0,0,1-1.95364-17.05114q0-8.17008-3.37566-9.85953-3.37566-1.68294-14.92138-1.6862-8.35108,0-11.72185,5.86092-2.66628,4.62318-2.66465,14.21038,0,3.73279.53163,11.90123.53325,8.17007.53488,12.25673,0,11.01247-3.37566,16.34014-4.44216,6.92744-15.0975,6.92744a25.36879,25.36879,0,0,1-13.0558-3.37566q-5.77287-3.37076-5.77287-8.34619-.70938-7.81782-.711-15.63239,0-4.43728.35551-14.742.35225-10.2982.3555-12.43286,0-49.9108,15.54107-73.71327,15.5427-23.80083,50.00213-23.80246,13.1406,0,23.89052,14.11906,10.74341,14.12394,10.74666,38.4564,0,14.38812,2.48527,38.277Q426.67726,548.513,429.5213,572.84378Zm-42.98337-79.21869v-5.3293a92.63052,92.63052,0,0,1-3.73117-19.00479q-.35714-3.01852-7.99394-8.17007a36.73127,36.73127,0,0,0-9.0572,15.27363q-1.9569,6.75621-3.90728,13.32325v3.90728a78.84475,78.84475,0,0,1,7.90262.3555q3.46373.35713,8.43751.711,2.30426,0,4.26279-.17938A17.80253,17.80253,0,0,0,386.53793,493.62509Z"/><path class="cls-2" d="M540.17763,439.45149q-2.49017,12.61224-4.43891,31.617a399.90774,399.90774,0,0,0-1.95364,40.85035q1.771,17.76378,2.48527,26.82261,2.48526,27.35751,2.48853,30.01889,0,9.05558-4.26279,13.49937a11.6936,11.6936,0,0,1-8.88108,3.55178q-16.87828,0-30.37439-27.88587Q483.51877,533.41055,471.973,508.902a35.93871,35.93871,0,0,0-2.22108,7.54712,45.60441,45.60441,0,0,0-.623,7.7265v15.453a145.68235,145.68235,0,0,0,.97845,18.47316q.97356,7.4607,4.17473,11.36961H471.973q0,8.88434-3.37565,12.609-3.37566,3.7328-11.19023,3.73116-10.127,0-17.76215-9.76821a57.83391,57.83391,0,0,1-5.68481-9.77147c0-1.77425.41422-2.66465,1.24264-2.66465.94583.24136,1.89493.47618,2.844.711a94.92364,94.92364,0,0,1-.711-9.7682q.70449-6.037,1.3307-15.6324.62131-9.58883.62294-23.7992-1.78077-12.079-3.37565-24.33408-.53327-7.10357-.53163-35.7037,0-17.93989-4.08666-23.62307a11.99235,11.99235,0,0,1-2.12977-7.10682,8.66735,8.66735,0,0,0,2.48527,3.73116,27.57068,27.57068,0,0,0,.88713-3.37566,18.272,18.272,0,0,0-2.12976-4.0834,21.998,21.998,0,0,0,7.28294-3.37566q1.41875-1.41876,2.84077-3.02015,22.38207,0,34.28167,20.60618,4.97054,8.70333,13.32,38.36508,5.68481,20.60619,13.49937,20.60293,2.84239,0,3.81922-1.33069.97356-1.3307.97845-5.06186-1.06651-12.61224-1.95364-26.99874-.8904-14.38812-.89039-26.1116,0-3.01852,3.91054-6.21643a19.51438,19.51438,0,0,1,12.43286-3.90728,22.38831,22.38831,0,0,1,14.031,4.79441Q540.17926,433.76832,540.17763,439.45149ZM503.58681,498.775c-.47292-.3555-.9491-.70774-1.41876-1.06325-.3555-.47291-.711-.94909-1.06651-1.422A6.30308,6.30308,0,0,1,503.58681,498.775Z"/><path class="cls-2" d="M652.07986,533.41218a54.141,54.141,0,0,1-9.94759,31.44091q-14.212,20.42517-42.09624,20.4268a114.74112,114.74112,0,0,1-28.59688-3.37565q-18.47805-4.79442-18.47316-13.49937,0-2.66628,6.57193-7.28294,6.56541-4.61829,6.57193-10.3031L564.864,504.63919q0-18.12091-.97519-28.33269a99.31909,99.31909,0,0,0-2.93209-17.13921q-1.06163-3.55177-8.96914-7.28294-7.90589-3.73279-7.90263-9.76821,0-6.21805,11.27829-10.215a65.00521,65.00521,0,0,1,21.75749-3.99534q30.90929,0,48.13655,13.49937,15.62587,12.43122,21.84882,36.94306Q652.0766,498.245,652.07986,533.41218Zm-35.17207-7.81456a116.07776,116.07776,0,0,0-3.3724-26.28773,138.0425,138.0425,0,0,0-16.164-40.1426l3.90728,100.17712q7.46069-5.14665,12.07735-17.40665Q616.90778,532.34894,616.90779,525.59762Z"/><path class="cls-1" d="M489.0568,824.32536q0,5.86581-6.536,12.1752-6.54095,6.30612-14.65068,6.311-9.47141,0-20.06478-13.07537-8.56633-10.59174-8.56471-25.24731,0-9.46651.78929-22.87946.78765-13.40478.78928-19.04718a86.07224,86.07224,0,0,0-1.46442-12.28609q-1.47257-8.674-3.27129-11.6077-2.25533,1.58021-6.19685,3.94642-3.94806,2.363-5.97508,2.36459l-23.21539-14.42563a107.3166,107.3166,0,0,0-3.72138,20.5116q-1.0127,11.27666-1.01433,25.02227,0,12.17193.90344,24.90811.89529,12.73944,2.02866,24.233a52.40008,52.40008,0,0,1-4.51067,7.21445q-5.41083,7.21608-9.91823,7.21118-18.25791,0-27.501-16.90438-7.66617-13.97718-7.66454-36.294.225,0,1.24264-13.18626,1.01269-13.18464,2.13955-47.11244,1.12521-33.92291,1.12848-74.27425,0-11.04181,3.37891-14.42563,3.38546-3.38055,11.95016-3.38218a47.16719,47.16719,0,0,1,17.35446,2.93209q15.77754,6.311,30.20806,24.56891,4.05569-5.18089,12.397-17.58277,11.9469-18.03285,16.45429-18.03286,21.8635,0,29.97975,9.24311,6.766,7.66616,6.76437,25.92244,0,6.54094-1.57857,25.69739-1.5802,19.163-1.57857,31.55832,0,9.69156,2.482,36.51581,1.80036,19.3929,4.5074,44.40865Q488.8334,824.32536,489.0568,824.32536Z"/><path class="cls-1" d="M624.53319,824.10032q0,6.54094-7.1003,13.18952-7.10355,6.64369-12.51113,6.64695-6.086,0-17.46862-2.36459-11.38917-2.36785-13.86466-2.36785H530.53336q-5.18579,0-16.45429-6.98941-11.27666-6.98125-9.91824-11.04345,0-69.201-2.47874-110.45412a445.367,445.367,0,0,0-4.51066-45.30883Q494.241,647.60563,494.2426,645.122q0-7.44112,7.43949-14.65394,9.46652-9.24147,23.89378-9.23984,4.27584,0,23.4437,2.2537,26.59431,3.1555,43.73025,6.98614,23.66874,5.41085,23.66874,11.27176,0,9.9215-6.53931,14.20059-5.63589,3.61049-16.90438,3.60723a142.40979,142.40979,0,0,1-18.48621-1.57857q-26.14911-3.60071-32.23345-3.60722-.67514,6.086-1.35353,7.43949a5.34525,5.34525,0,0,0-.67513,2.2537q1.35516,5.41083,2.47875,21.07584,1.12521,15.6699,1.12848,33.70113,38.99617,0,57.3666,4.05731,18.37042,4.05568,18.37206,12.397,0,9.69645-7.21119,13.52546-6.086,3.16039-19.83647,3.15714-5.64076,0-21.86839-.90344-16.22761-.89527-26.82261-.90017,0,3.83553-.22505,6.086-1.1301,10.82168-1.12848,15.77916,0,5.63589.22505,11.49681t1.23937,15.665q1.01759,9.809,21.75423,11.611,19.15809.45009,38.31942.90018Q624.53156,813.28353,624.53319,824.10032Z"/><path class="cls-2" d="M279.51555,468.16545c-18.05439-49.40465-30.46586-79.97288-58.39289-63.47054s30.46586,58.39289,46.9682,73.62582S284.46335,481.70477,279.51555,468.16545Z"/><path class="cls-2" d="M255.39675,498.6313c-35.00874-10.49961-107.89992-25.38821-107.89992,19.04117s70.36457,15.23292,100.55694,5.07764S277.24538,505.184,255.39675,498.6313Z"/><path class="cls-2" d="M254.12734,557.0242c-31.63943,14.79118-63.47054,38.08232-52.04584,58.39289s49.507-13.96351,63.47053-38.08232S277.56881,546.0655,254.12734,557.0242Z"/><path class="cls-2" d="M687.85835,475.48762c18.05439-49.40465,30.46586-79.97288,58.3929-63.47054s-30.46586,58.3929-46.9682,73.62582S682.91056,489.02694,687.85835,475.48762Z"/><path class="cls-2" d="M711.97716,505.95348c35.00874-10.49961,107.89991-25.38822,107.89991,19.04116s-70.36456,15.23293-100.55693,5.07764S690.12853,512.50619,711.97716,505.95348Z"/><path class="cls-2" d="M713.24657,564.34637c31.63943,14.79118,63.47054,38.08232,52.04584,58.3929s-49.507-13.96352-63.47054-38.08233S689.8051,553.38767,713.24657,564.34637Z"/><path class="cls-2" d="M719.31578,365.06962A3.33926,3.33926,0,0,1,715.989,361.981c-.5675-7.508-13.50589-183.26069,10.48574-267.24117-62.27517-41.63637-152.10027-30.3907-247.134-18.49273-83.85655,10.49878-170.531,21.34654-253.26889.87408-3.96273,21.30415-23.83507,138.38238-7.79173,263.85247a3.34071,3.34071,0,0,1-6.62738.848C193.85149,202.588,219.924,73.62482,220.18814,72.33978l.711-3.43762,3.39522.8806c82.5389,21.32046,169.81677,10.4042,254.21473-.16307C575.85849,57.42818,667.81662,45.91507,732.264,90.601l1.996,1.38288-.698,2.32545c-24.56565,81.80832-11.05324,265.32341-10.913,267.16942a3.33882,3.33882,0,0,1-3.07887,3.58113Q719.443,365.06963,719.31578,365.06962Z"/><path class="cls-2" d="M761.24242,974.19476l-4.27909-1.347c-96.23722-30.35482-189.04334-20.46594-278.8-10.91951-89.24129,9.4975-173.54467,18.4699-242.73423-18.81236l-2.28958-1.23285.636-2.52441c.35224-1.38614,34.78068-140.10446,10.99453-268.81974a3.33989,3.33989,0,1,1,6.56867-1.21328c22.26629,120.48977-5.87723,249.46271-10.47269,269.11328,66.96521,34.90788,149.3867,26.12791,236.59281,16.84893,84.9622-9.04741,181.08853-19.27875,277.22464,9.86279,1.60793-152.82106-27.289-287.43641-27.5858-288.78993a3.34129,3.34129,0,1,1,6.52953-1.422c.2968,1.37635,29.921,139.35431,27.68039,294.77154Z"/><path class="cls-2" d="M511.72023,858.03027c1.69426,6.10213,3.70856,12.13814,4.9868,18.32619,1.12738,5.45777,3.84484,8.21021,9.45385,8.98392a126.43056,126.43056,0,0,1,18.68843,4.39651c-6.08277,1.68539-12.09816,3.702-18.26848,4.957-5.45224,1.109-8.238,3.78634-9.02039,9.39217a131.46788,131.46788,0,0,1-4.37706,18.76082c-1.09156-3.85488-2.19706-7.70595-3.27024-11.56593-.85513-3.07577-1.73606-6.14672-2.4865-9.24855-.82122-3.39454-2.84557-5.22138-6.31479-5.8864-7.03429-1.34849-14.02335-2.933-21.10074-4.93392,3.65009-1.02811,7.298-2.06382,10.95083-3.08214,3.36313-.93759,6.70783-1.95731,10.10439-2.75441a6.74659,6.74659,0,0,0,5.59057-5.80271c1.42421-7.1872,3.015-14.34142,4.53782-21.50908Z"/><path class="cls-2" d="M653.9911,899.29431a3.32426,3.32426,0,0,1-.93279-.13372c-.3979-.11742-40.25349-11.42832-94.76954-5.40106a3.34024,3.34024,0,0,1-.73058-6.64042c55.9348-6.174,95.69907,5.14666,97.3657,5.62936a3.33946,3.33946,0,0,1-.93279,6.54584Z"/><path class="cls-2" d="M384.17334,907.23607c-11.55878,0-20.49856-.65556-23.81225-2.1265a3.3407,3.3407,0,0,1,2.71357-6.10554c7.82435,3.48,74.90372,1.01107,103.02441-6.28165a3.33907,3.33907,0,1,1,1.67642,6.4643C449.51758,903.92238,410.2034,907.23607,384.17334,907.23607Z"/><path class="cls-2" d="M730.35923,330.50419a3.336,3.336,0,0,1-3.31369-2.96145c-4.01165-35.084,2.2798-165.96493,26.96612-243.98664C678.15885,34.16061,595.209,48.63843,507.43538,63.97076,428.0471,77.83216,345.95176,92.16321,257.05293,65.109a3.34078,3.34078,0,1,1,1.94385-6.39255c87.39855,26.60409,168.685,12.40024,247.29055-1.32417,89.92621-15.70741,174.8721-30.54073,253.53634,21.99232l2.10367,1.409-.78276,2.40373c-25.05815,76.85736-31.467,208.56671-27.46514,243.58874a3.33483,3.33483,0,0,1-2.93861,3.69529A2.99509,2.99509,0,0,1,730.35923,330.50419Z"/><path class="cls-2" d="M784.32083,1008.52863l-4.7618-2.77228c-104.1692-60.6379-231.56031-42.99642-333.91612-28.81866-77.02369,10.66838-143.529,19.87561-183.91951-4.41282a3.34152,3.34152,0,1,1,3.44415-5.7272c38.36508,23.07841,103.79087,14.01143,179.55888,3.52243,101.8144-14.09623,228.17161-31.60072,333.39428,26.9335,2.94188-86.91584-15.99442-235.32735-27.68365-289.17153a3.3406,3.3406,0,0,1,6.52953-1.41549c11.55551,53.22449,31.77358,206.07165,27.60864,296.35663Z"/></g></svg>