<svg xmlns="http://www.w3.org/2000/svg" viewBox="0 0 1000 1000"><defs><style>.cls-1{fill:#3d3d3d;}</style></defs><title>Valentines_4</title><g id="Layer_7" data-name="Layer 7"><path class="cls-1" d="M282.12439,297.31938a7.38263,7.38263,0,0,0,3.57642,1.34174q2.14539.26789,5.721-1.69892a35.71108,35.71108,0,0,0,5.90118-4.11373,68.51289,68.51289,0,0,1,7.51-5.36386,46.29275,46.29275,0,0,1,9.92329-4.55632,38.838,38.838,0,0,1,13.14252-1.702q3.39628.17935,7.24292.26865,3.84118.09086,7.06277.08852,3.755.18169,7.51.18014-3.755,6.25912-7.15284,12.69528-3.39861,6.43617-6.25835,13.05246-1.43258,3.21925-3.30776,7.68861-1.8775,4.47246-3.755,9.74469-1.87749,5.27612-3.66649,10.99792-1.78433,5.72337-3.0391,11.265-.7128,3.93437-1.07308,7.6886a38.40975,38.40975,0,0,0-.08852,6.9727,17.46647,17.46647,0,0,0,1.69737,6.61708,9.6566,9.6566,0,0,0,3.21924,3.39628,3.47246,3.47246,0,0,0,1.8775.80442c.65379.06212,1.22061.09007,1.69892.09007a4.38848,4.38848,0,0,0,1.60884-.35718,2.52579,2.52579,0,0,0,1.87751-1.43025,4.38214,4.38214,0,0,0,.26866-2.32476,5.71126,5.71126,0,0,0-.09007-.89449,7.58633,7.58633,0,0,1-.08852-1.25167,6.53042,6.53042,0,0,1-.17859-1.60884,54.03429,54.03429,0,0,1,7.68861-17.702,113.38614,113.38614,0,0,1,11.6222-14.93152,92.943,92.943,0,0,1,11.35354-10.54912q5.27378-4.02288,7.06432-4.738-1.97069,3.578-3.93515,7.15129-1.6073,3.04221-3.39628,6.79566-1.789,3.755-3.04065,6.79412a59.84492,59.84492,0,0,0-3.12918,9.5661,55.13153,55.13153,0,0,0-1.43025,9.38752,29.71769,29.71769,0,0,0,.44724,7.8672,8.84873,8.84873,0,0,0,2.86052,5.18682,12.61172,12.61172,0,0,0,5.45392,2.68192,14.92107,14.92107,0,0,0,5.09675.17859,14.12306,14.12306,0,0,0,3.84353-1.07308q1.51876-.7128,1.8775-.89449a45.36074,45.36074,0,0,0,10.81778-9.7447c2.27641-2.75492,4.2766-5.49178,6.15158-8.2201a38.12149,38.12149,0,0,0-.51907,7.95144,20.45069,20.45069,0,0,0,2.59341,9.65618,10.662,10.662,0,0,0,5.90117,4.738,15.006,15.006,0,0,0,8.13585.09007,25.16026,25.16026,0,0,0,8.76169-3.57642,39.60263,39.60263,0,0,0,11.44361-11.265,52.85145,52.85145,0,0,0-.89449,7.15284,22.72128,22.72128,0,0,0,.35717,5.89961,10.94426,10.94426,0,0,0,.8945,3.39784,15.40211,15.40211,0,0,0,1.52032,2.95058,10.205,10.205,0,0,0,2.77045,2.772,6.27057,6.27057,0,0,0,2.68348,1.25167,9.48043,9.48043,0,0,0,3.21769.17859,15.22689,15.22689,0,0,0,4.29232-1.25167,27.46582,27.46582,0,0,0,7.24136-5.00668,64.8303,64.8303,0,0,0,6.527-6.97425c.92574-1.18315,1.835-2.3993,2.7388-3.62728-.40668,1.08764-.81335,2.15839-1.22,3.2701a195.24239,195.24239,0,0,0-7.06277,23.78172q-1.2509,5.00357-2.41482,10.72771-1.16,5.721-1.69892,10.90784c-.11647.95351-.23759,2.02659-.35717,3.21925a37.51729,37.51729,0,0,0,0,7.33143,14.119,14.119,0,0,0,.35717,2.77044,21.58725,21.58725,0,0,0,1.07309,3.4879,18.35087,18.35087,0,0,0,1.8775,3.48635,7.4675,7.4675,0,0,0,3.12917,2.59186,13.39252,13.39252,0,0,0,2.41327.53732,5.71215,5.71215,0,0,0,2.772-.35718q1.97069-.89682,1.96757-2.41482a14.26516,14.26516,0,0,0-.35873-3.12917,2.36043,2.36043,0,0,0-.08851-.53577,2.99435,2.99435,0,0,1-.09007-.7159,3.03128,3.03128,0,0,1-.17859-.8945,31.16357,31.16357,0,0,1-.08852-7.86719,82.93481,82.93481,0,0,1,1.51878-9.38752q1.07385-4.91971,2.50333-10.19194,1.43493-5.27612,3.04066-10.10188,3.755-11.44671,8.76169-23.96186,1.07153-2.50178,2.23468-5.36385,1.16-2.85819,2.59341-5.721a116.49316,116.49316,0,0,1,6.61552-11.35509q3.39394-5.09676,4.6495-6.88419,3.755-4.4678,7.95571-9.29745,4.19992-4.82886,8.22592-8.76168a50.46508,50.46508,0,0,1,7.59854-6.25835q3.57564-2.32242,6.07975-2.14616,2.32244.36106,2.32476,3.39783a25.0129,25.0129,0,0,1-1.52033,7.59854,74.2703,74.2703,0,0,1-4.29077,10.01335q-2.77434,5.45781-5.98969,10.63919a34.26288,34.26288,0,0,0-8.40451-1.25167,23.43026,23.43026,0,0,0-6.16828.71591,13.79191,13.79191,0,0,0-7.06277,4.29077,15.97763,15.97763,0,0,0-1.6104,2.32475,16.41288,16.41288,0,0,0-1.966,6.43693c0,.24071-.03106.83549-.09007,1.789a13.52452,13.52452,0,0,0,1.69892,7.15129,9.22579,9.22579,0,0,0,3.39783,3.39783,12.55511,12.55511,0,0,0,3.39628,1.43026,16.83761,16.83761,0,0,0,3.66649.35717,11.73425,11.73425,0,0,0,4.55943-1.07152,38.65638,38.65638,0,0,0,11.80079-7.60009,60.6381,60.6381,0,0,0,9.83476-11.71227,32.04479,32.04479,0,0,0,6.79567,0c.92031-.09182,1.79927-.20053,2.67533-.3104-2.47151,5.86429-4.944,12.14807-7.41646,18.90685a195.24239,195.24239,0,0,0-7.06277,23.78172q-1.25088,5.00357-2.41482,10.72771-1.16,5.721-1.69891,10.90784c-.11647.95351-.2376,2.02659-.35718,3.21925a37.51729,37.51729,0,0,0,0,7.33143,14.11832,14.11832,0,0,0,.35718,2.77044,21.58618,21.58618,0,0,0,1.07308,3.4879,18.35087,18.35087,0,0,0,1.8775,3.48635,7.46747,7.46747,0,0,0,3.12918,2.59186,13.39221,13.39221,0,0,0,2.41326.53732,5.71215,5.71215,0,0,0,2.772-.35718q1.97068-.89682,1.96758-2.41482a14.26576,14.26576,0,0,0-.35873-3.12917,2.36058,2.36058,0,0,0-.08852-.53577,2.99435,2.99435,0,0,1-.09007-.7159,3.03128,3.03128,0,0,1-.17859-.8945c-.01126-.07124-.00757-.15879-.01825-.2308.71843.6136,1.48093,1.2274,2.3399,1.8412a28.25565,28.25565,0,0,0,10.55067,4.11219,65.2651,65.2651,0,0,0,14.75137,1.78743,76.49382,76.49382,0,0,0,12.42663-.89294,71.55914,71.55914,0,0,0,11.80234-2.68193,78.86232,78.86232,0,0,0,13.58977-5.544,112.59432,112.59432,0,0,0,10.54912-6.25835,85.82993,85.82993,0,0,0,9.29745-6.9727q3.39628-3.04453,6.34842-6.07976,2.95135-3.04221,5.63251-6.07976,7.51,1.24857,15.5558,2.50334,6.79488,1.07152,14.93151,2.23468,8.13431,1.16238,15.64587,2.05609,12.693,1.43027,23.33447,1.69892a179.415,179.415,0,0,0,19.22229-.44725,73.51937,73.51937,0,0,0,14.75137-2.95058,64.19348,64.19348,0,0,0,10.63919-4.38084,43.55,43.55,0,0,0,8.5831-5.89962,11.53728,11.53728,0,0,0,3.30776-4.11219,6.94616,6.94616,0,0,0,.62584-3.39783,8.76976,8.76976,0,0,0-1.07308-3.39783,7.95168,7.95168,0,0,0-3.57642-2.86052,7.30115,7.30115,0,0,0-4.29078-.17858q-2.50644.53575-5.72258,3.57642-4.11606,3.92972-7.77867,6.88418-3.66649,2.949-6.704,5.09519a39.22659,39.22659,0,0,1-8.04734,4.11219,67.49039,67.49039,0,0,1-10.10187,2.50334,53.648,53.648,0,0,1-14.037.35873q-10.01646-.89684-20.65255-2.41483-10.64075-1.52111-19.57946-3.12917-10.37286-1.96834-20.2053-3.9336a95.48838,95.48838,0,0,0,9.476-13.14252q4.11141-6.88574,7.15284-13.14253a9.8135,9.8135,0,0,0,4.55943.983,27.64724,27.64724,0,0,0,4.11218-.4457,10.63465,10.63465,0,0,0,3.04066-.98456,4.55221,4.55221,0,0,1,1.52033-.62583,44.0099,44.0099,0,0,0,10.72771-9.7447,117.66482,117.66482,0,0,0,8.76168-12.248,137.17082,137.17082,0,0,0,8.04578-14.84144q2.85819-6.07743,2.86207-6.97425.17471-1.24857-.53732-1.43026a4.80741,4.80741,0,0,0-1.78743-.35718.73678.73678,0,0,0-.53732.17859,32.116,32.116,0,0,0-2.949,4.20226q-1.7028,2.77432-3.84508,6.34841-2.14539,3.578-4.6495,7.68861-2.50412,4.11373-5.18527,8.04578-2.50644,3.578-5.00667,6.61552-2.14539,2.50646-4.648,5.00668A20.75711,20.75711,0,0,1,657.796,366.697q-2.32474,1.07387-3.0391-.17859a4.9847,4.9847,0,0,1-.7159-2.50334,23.10738,23.10738,0,0,1,1.52032-9.20893,94.66414,94.66414,0,0,1,4.648-11.35354q2.772-5.721,5.72258-10.81778,2.95137-5.09674,4.738-7.77867a69.10454,69.10454,0,0,0,3.48791-6.43694,29.52313,29.52313,0,0,0,2.14461-5.99124,11.65148,11.65148,0,0,0,.17858-4.91661,4.056,4.056,0,0,0-2.59185-3.0391,5.29806,5.29806,0,0,0-3.57642-.18014,13.21627,13.21627,0,0,0-3.21925,1.43181,14.94423,14.94423,0,0,0-3.39628,2.86051,67.05562,67.05562,0,0,0-4.82808,5.8111q-2.32709,3.13074-4.11219,5.8111-1.97069,3.21926-3.93515,6.43694-7.333,11.80313-12.69528,19.57946-5.3623,7.7779-9.11886,12.42818-3.755,4.65183-5.8111,6.70559a20.773,20.773,0,0,1-2.41327,2.23468,14.69376,14.69376,0,0,1-.806-5.45392q.08853-2.95137.44725-5.8111.5381-3.21924,1.43026-6.61552a109.83461,109.83461,0,0,1,6.527-17.43486,164.82338,164.82338,0,0,1,9.03035-16.53881q.7128-1.43025,1.8775-3.66649a16.87519,16.87519,0,0,0,1.60885-4.46936,9.463,9.463,0,0,0-.09007-4.29232,4.298,4.298,0,0,0-2.86052-2.95059,7.24464,7.24464,0,0,0-4.738-.17859,11.80842,11.80842,0,0,0-4.11218,2.32476,20.518,20.518,0,0,0-3.39783,3.755q-1.52111,2.14539-2.59341,3.9336a158.0902,158.0902,0,0,0-8.493,17.52337,103.626,103.626,0,0,0-5.58981,18.40894c-.51518.09337-1.01368.18984-1.55992.27758q-2.77434.44725-5.54245.80443a15.63227,15.63227,0,0,1-4.73957,0A77.567,77.567,0,0,0,602.8142,332.992a58.78981,58.78981,0,0,0,2.32475-13.41119,22.91381,22.91381,0,0,0-1.60884-10.37053,7.97314,7.97314,0,0,0-6.34842-4.91816,15.23267,15.23267,0,0,0-8.04578,1.25167,38.3758,38.3758,0,0,0-8.5831,5.09675,72.51643,72.51643,0,0,0-8.493,7.77867q-4.20459,4.47014-7.95727,9.29745,1.60963-2.85819,2.68193-4.82809a11.11656,11.11656,0,0,0,1.07308-1.966,39.98623,39.98623,0,0,0,4.91661-11.71227q1.34173-5.80954-1.69736-8.13585a4.91583,4.91583,0,0,0-3.57642-.71591,17.03107,17.03107,0,0,0-1.96758.53732,9.22965,9.22965,0,0,0-2.14461,1.25167q-.89682.71512-1.789,1.43026a10.23553,10.23553,0,0,0-1.60885,1.60884,67.34949,67.34949,0,0,0-4.55943,6.07976,105.26806,105.26806,0,0,0-5.45393,9.29745q-1.60962,2.86284-5.36385,10.1935c-2.30456,4.50042-4.79412,9.82-7.45256,15.88424-1.30039.19742-2.60039.39891-3.89943.566a15.63227,15.63227,0,0,1-4.73957,0,77.567,77.567,0,0,0,5.63251-14.21561,58.79091,58.79091,0,0,0,2.32475-13.41119A22.91381,22.91381,0,0,0,534.87,309.21024a7.97314,7.97314,0,0,0-6.34842-4.91816,15.23265,15.23265,0,0,0-8.04578,1.25167,38.37558,38.37558,0,0,0-8.5831,5.09675,72.51649,72.51649,0,0,0-8.493,7.77867q-4.20457,4.47014-7.95726,9.29745,1.60962-2.85819,2.68193-4.82809a11.11721,11.11721,0,0,0,1.07308-1.966,39.98623,39.98623,0,0,0,4.91661-11.71227q1.34174-5.80954-1.69737-8.13585a4.91582,4.91582,0,0,0-3.57642-.71591,17.031,17.031,0,0,0-1.96757.53732,9.22965,9.22965,0,0,0-2.14461,1.25167q-.89682.71512-1.789,1.43026a10.23589,10.23589,0,0,0-1.60884,1.60884,67.34949,67.34949,0,0,0-4.55943,6.07976,105.26806,105.26806,0,0,0-5.45393,9.29745q-1.60962,2.86284-5.36385,10.1935c-.285.55634-.58216,1.16761-.87256,1.748-.09881.16792-.18829.31428-.289.48666q-2.77432,4.74034-6.34842,10.81777-4.47014,7.87108-9.11886,14.66286-1.97069,2.86051-4.11218,5.721-2.14539,2.86284-4.38085,5.36385-2.23856,2.50645-4.38084,4.47092a16.19349,16.19349,0,0,1-4.11374,2.86051q-2.14538-1.25322-1.51877-5.8111a48.718,48.718,0,0,1,2.86051-10.4606q2.2339-5.9004,5.45393-12.51669,3.21924-6.6132,6.07976-12.33656a34.62494,34.62494,0,0,0,1.51877-3.66649,20.211,20.211,0,0,0,1.07308-4.55943,11.24734,11.24734,0,0,0-.35717-4.47091,5.89146,5.89146,0,0,0-2.59341-3.39628,4.33238,4.33238,0,0,0-3.30776-.44725,8.1294,8.1294,0,0,0-3.30777,1.87751q1.24857-7.86642-.89449-11.89086a12.99829,12.99829,0,0,0-5.18526-5.63251,15.251,15.251,0,0,0-8.5831-1.60885,26.24417,26.24417,0,0,0-9.65463,2.50334,36.864,36.864,0,0,0-7.51,4.64795,43.40164,43.40164,0,0,0-6.61553,6.61707,66.99034,66.99034,0,0,0-6.07976,8.04578c-.92633,1.45394-1.87168,3.09967-2.83314,4.90147-.16325.257-.30632.454-.47617.73105q-1.70047,2.77432-3.84353,6.34841-2.14538,3.578-4.6495,7.68861-2.50644,4.11373-5.36385,8.04578-2.50646,3.578-5.00668,6.61552-2.14539,2.50646-4.55943,5.00668a17.389,17.389,0,0,1-4.55943,3.57642q-2.14539,1.07387-2.86207-.17859a6.974,6.974,0,0,1-.89294-2.50334q-.36106-3.57564,1.60885-9.20893a106.50156,106.50156,0,0,1,4.738-11.35354q2.76967-5.721,5.72259-10.81778,2.949-5.09674,4.55943-7.77867a35.76021,35.76021,0,0,0,1.8775-3.12918q.80365-1.51644,1.69892-2.95058a20.04245,20.04245,0,0,0,1.60884-6.61553,7.50348,7.50348,0,0,0-2.68192-6.61707,8.45872,8.45872,0,0,0-3.84508-1.78744,11.43542,11.43542,0,0,0-4.02212,0,30.39974,30.39974,0,0,0-8.4045,3.30777,66.20439,66.20439,0,0,0-8.5831,5.8111,88.66019,88.66019,0,0,0-8.31444,7.51q-4.02289,4.11607-7.41995,8.22592a48.54934,48.54934,0,0,0-4.20225,5.18527q-1.87751,2.68115-3.48635,5.00668,2.32009-6.2568,4.91661-12.33811,2.59029-6.07743,4.9166-10.90785,2.68348-5.53933,5.18527-10.54912,1.966-3.755,4.38084-8.04578,2.4156-4.29309,4.38084-8.04733,2.32242-4.46781,4.82809-8.76169,9.83244-.85488,16.36178-4.27213a43.34681,43.34681,0,0,0,10.63919-7.52865,36.52582,36.52582,0,0,0,7.33142-10.37054,25.13978,25.13978,0,0,0,2.3232-9.299,17.26886,17.26886,0,0,0-.89294-6.07976,9.12337,9.12337,0,0,0-3.04065-4.11218,8.34031,8.34031,0,0,0-3.48635-1.34019,13.84893,13.84893,0,0,0-3.48635-.09007,13.3237,13.3237,0,0,0-3.755.89449,28.12028,28.12028,0,0,0-7.86719,4.648,93.88059,93.88059,0,0,0-9.12042,8.40451,143.12847,143.12847,0,0,0-9.83477,11.44361q-5.00589,6.4385-9.83321,13.58978-2.86284.17937-6.25835.35718-3.04221.18169-6.88418.26865-3.84819.09318-8.49458-.09007-9.4737-.35406-15.82445-.2671-6.34531.09084-10.46061.44725-4.64716.51945-7.6886,1.02959a54.38343,54.38343,0,0,0-10.37053,3.43977,22.33061,22.33061,0,0,0-6.43694,5.00667q-2.68115,3.04221-1.25167,7.51A6.962,6.962,0,0,0,282.12439,297.31938Zm223.86713,57.57679q-1.60729,2.14539-3.0391,3.755-.71747.71513-1.43026,1.43026a8.31888,8.31888,0,0,1-1.60885,1.25167q-2.86284,1.96834-4.47091.89449a3.28631,3.28631,0,0,1-1.8775-3.57642,8.17865,8.17865,0,0,1,.44724-2.23623,9.00729,9.00729,0,0,1,.80443-1.69737,2.80394,2.80394,0,0,0,.44724-.89449,9.49536,9.49536,0,0,1,4.6495-3.39783q3.21691-1.24857,9.29745,0Q507.60114,352.75233,505.99152,354.89617Zm96.37388,59.4543a78.26161,78.26161,0,0,1-13.32111,9.29745,74.9069,74.9069,0,0,1-15.55735,6.43693,63.53709,63.53709,0,0,1-17.79048,2.41482,91.76805,91.76805,0,0,1-10.37208-.89449,52.17448,52.17448,0,0,1-8.403-2.23468,13.92052,13.92052,0,0,1-6.61552-4.561,3.598,3.598,0,0,1-1.07308-1.87751c-.04485-.24905-.091-.47267-.13627-.71319.2308-2.02988.56837-4.13547.98825-6.29969a14.18225,14.18225,0,0,1,4.69046-4.51925q4.47246-2.86284,14.3942-5.544,9.92328-2.68116,28.51973-3.39628,10.72926-.36106,19.57947-.18014,8.85176.177,16.36177.7159A106.8041,106.8041,0,0,1,602.3654,414.35047Zm-46.13007-67.233q3.39395-5.09676,4.6495-6.88419,3.755-4.4678,7.95571-9.29745,4.19993-4.82886,8.22592-8.76168a50.46508,50.46508,0,0,1,7.59854-6.25835q3.57564-2.32242,6.07976-2.14616,2.32242.36106,2.32475,3.39783a25.0126,25.0126,0,0,1-1.52033,7.59854,74.2703,74.2703,0,0,1-4.29077,10.01335q-2.77432,5.45781-5.98969,10.63919a34.26281,34.26281,0,0,0-8.40451-1.25167,23.43026,23.43026,0,0,0-6.16828.71591,13.79191,13.79191,0,0,0-7.06277,4.29077,15.97763,15.97763,0,0,0-1.6104,2.32475,16.413,16.413,0,0,0-1.966,6.43693c0,.24071-.03106.83549-.09007,1.789a13.52452,13.52452,0,0,0,1.69892,7.15129,9.22579,9.22579,0,0,0,3.39783,3.39783,12.55525,12.55525,0,0,0,3.39628,1.43026,16.83761,16.83761,0,0,0,3.66649.35717,11.73425,11.73425,0,0,0,4.55943-1.07152,38.65638,38.65638,0,0,0,11.80079-7.60009,60.6385,60.6385,0,0,0,9.83477-11.71227,32.04469,32.04469,0,0,0,6.79566,0q3.57331-.3564,6.704-.8945c.10657-.01824.18965-.04076.29448-.0592-.1584.86829-.29428,1.79423-.3861,2.8312a23.20809,23.20809,0,0,0,0,4.02367,34.957,34.957,0,0,0,1.43026,8.04578,9.754,9.754,0,0,0,5.18526,6.25835,10.83917,10.83917,0,0,0,2.86207.98456,10.52657,10.52657,0,0,0,3.57642-.09007,9.95717,9.95717,0,0,0,5.00668-2.14616,33.45451,33.45451,0,0,0,5.45237-5.18527,85.4029,85.4029,0,0,0,5.544-7.24136q2.76968-4.02288,5.45393-8.31444-1.07386,3.21691-2.95059,8.31444-1.87751,5.09674-4.738,11.35354-2.86284,6.2568-6.79566,13.14253a141.81313,141.81313,0,0,1-8.94028,13.67985,210.59313,210.59313,0,0,0-30.04006-2.23468q-13.231.08619-22.70864.983a115.28259,115.28259,0,0,0-19.49094,3.39628c-5.89341,1.47393-10.40858,3.341-13.70023,5.55913.0427-.159.07046-.303.11356-.46238q1.43492-5.27612,3.04065-10.10188,3.755-11.44671,8.76169-23.96186,1.07152-2.50178,2.23468-5.36385,1.16-2.85819,2.59341-5.721A116.49316,116.49316,0,0,1,556.23533,347.1175Zm21.63556,3.30776q-1.60962,2.32707-3.21925,4.47091-1.6073,2.14539-3.0391,3.755-.71746.71513-1.43026,1.43026a8.31882,8.31882,0,0,1-1.60884,1.25167q-2.86286,1.96834-4.47092.89449a3.28634,3.28634,0,0,1-1.8775-3.57642,8.17827,8.17827,0,0,1,.44725-2.23623,9.00729,9.00729,0,0,1,.80442-1.69737,2.80407,2.80407,0,0,0,.44725-.89449,9.49527,9.49527,0,0,1,4.6495-3.39783Q571.79035,349.17669,577.87089,350.42526Zm-165.663-9.7447a68.86581,68.86581,0,0,1,6.16828-10.10342,82.48448,82.48448,0,0,1,12.42817-13.85688q5.80722-4.91506,9.7447-3.12918a3.536,3.536,0,0,1,2.05609,2.32475,15.93477,15.93477,0,0,1,.80442,3.9336,23.91109,23.91109,0,0,1,0,4.11218q-.17936,1.97068-.35717,2.86052-1.43259,2.50644-3.0391,5.18682-1.43493,2.32475-2.86207,5.09519-1.43259,2.77433-2.50334,5.45393-2.50644,3.93437-5.36385,7.86719-2.50646,3.39861-5.721,7.24136a56.92873,56.92873,0,0,1-6.79567,6.88418,14.01035,14.01035,0,0,1-2.14616,1.789,20.15723,20.15723,0,0,1-2.05609,1.43026c-.77647.47831-1.51878.89449-2.23468,1.25167a8.7726,8.7726,0,0,1-3.48635,1.07308,2.61281,2.61281,0,0,1-2.772-1.789q-.89682-1.78434.09007-6.25835a76.25426,76.25426,0,0,1,3.0391-10.01336A108.36234,108.36234,0,0,1,412.20794,340.68056Zm-28.25263-83.77178a50.53611,50.53611,0,0,1,7.69016-7.6886q2.949-2.14539,4.46936-1.96758a5.2,5.2,0,0,1,2.05609.53732,4.48886,4.48886,0,0,1,.7159,3.57487,21.54009,21.54009,0,0,1-1.789,5.00668,34.77835,34.77835,0,0,1-5.36386,7.51,35.55162,35.55162,0,0,1-5.00667,4.11374,45.28413,45.28413,0,0,1-6.16828,3.21769,28.82266,28.82266,0,0,1-8.31444,2.14616A155.27257,155.27257,0,0,1,383.95531,256.90878Z"/><path class="cls-1" d="M241.44359,495.74469a246.50875,246.50875,0,0,1,21.40882-25.64058,165.5428,165.5428,0,0,1,21.40728-18.86822q8.94494,2.178,16.9317,3.87148,7.98288,1.69348,14.99829,2.66018a60.47261,60.47261,0,0,0,8.94959.72523q4.11141,0,7.01463-.24071a36.54278,36.54278,0,0,0,6.28941-.969q7.496-1.93109,10.28046-5.4415a18.41534,18.41534,0,0,0,3.26583-5.2008,19.53645,19.53645,0,0,0,.72522-7.7414,18.1549,18.1549,0,0,0-.72522-3.14471,19.74849,19.74849,0,0,0-9.07072-12.45768q-7.13732-4.47246-18.02187-4.474-10.88532,0-24.79423,4.83741-13.91124,4.84284-29.14713,15.72351-11.12991-2.90244-23.34379-5.68531-12.21776-2.77665-25.76171-5.20079-4.84052-.47987-9.67482-1.45045-4.11606-.48219-8.95114-1.33087-4.84052-.84557-9.19185-1.33087a94.42481,94.42481,0,0,0-15.239-1.08861q-7.01852.12579-12.09429.60565a87.7536,87.7536,0,0,0-11.12682,1.935,14.33776,14.33776,0,0,0-6.16827,3.26583,8.92563,8.92563,0,0,0-2.54061,3.99106,7.80472,7.80472,0,0,0-.24226,5.07966,10.9085,10.9085,0,0,0,3.1447,5.32193,9.575,9.575,0,0,0,5.2008,2.53906q3.26583.608,8.83-1.57158a174.05273,174.05273,0,0,1,24.43085-7.98211q3.14-.72678,6.77237-1.20974a58.5683,58.5683,0,0,1,6.895-.60565,53.12736,53.12736,0,0,1,7.861.36339q14.51455,1.93808,27.69668,4.83741,13.18214,2.90244,25.0365,5.80644a220.10231,220.10231,0,0,0-27.81781,27.33329,253.63266,253.63266,0,0,0-27.09259,38.70392q-8.46973,14.75681-18.3837,32.1707-8.46974,15.0014-20.078,34.834-11.60978,19.83724-24.6731,42.57228-1.2113,2.178-3.50654,5.80645-2.30145,3.62688-5.20079,8.10324-2.90245,4.47246-6.04715,9.07072-3.147,4.59126-6.28941,8.46662-3.62922,3.86682-6.53166,6.53011a30.01453,30.01453,0,0,1-4.95854,3.75035q-2.30145,1.32544-3.50809.12113-.969-1.21362.36339-4.35444,1.32776-3.147,2.78131-6.04715,12.33655-22.25751,22.98041-44.62993,10.64073-22.37165,18.3837-42.45271,12.81873-32.89359,16.44873-56.6031,4.35368-28.05774-3.62766-42.57229-7.9829-15.24132-28.06007-15.72351-17.65926-.48219-34.34947,13.06177Q89.77418,474.7,78.166,492.35773q-5.56729,8.22748-10.15934,16.208-4.11606,7.01852-7.86253,14.87561a57.39994,57.39994,0,0,0-4.95854,14.87717q-1.21362,4.11606-.24225,6.77237a9.5434,9.5434,0,0,0,2.66173,4.11218,14.223,14.223,0,0,0,4.59515,2.66174,10.82632,10.82632,0,0,0,6.04715-.24226,11.69739,11.69739,0,0,0,4.5967-3.62922q2.178-2.65785,2.66019-8.70733a5.311,5.311,0,0,1,.24226-1.69271,96.49277,96.49277,0,0,1,3.50809-16.208,94.89185,94.89185,0,0,1,4.23331-11.36907q2.17567-5.07811,5.07967-10.6423,2.90244-5.56263,6.409-11.12836a99.27056,99.27056,0,0,1,7.7414-10.6423,66.85515,66.85515,0,0,1,9.313-9.19185,55.1328,55.1328,0,0,1,9.19185-5.80644,45.33631,45.33631,0,0,1,9.79594-3.1447,29.71619,29.71619,0,0,1,12.45769.24226,28.62751,28.62751,0,0,1,5.443,2.66174q3.748,2.17566,6.16828,8.70733,2.4156,6.53166,2.17722,18.26257-.24459,11.73557-6.04715,31.08364A242.09628,242.09628,0,0,1,138.639,552.59005q-8.22514,17.65926-17.29509,35.67879-9.07072,18.02265-17.53735,35.0747Q95.33681,640.39715,90.018,653.702a56.06142,56.06142,0,0,0-1.45044,5.44306,22.8603,22.8603,0,0,0-.48452,6.65124,15.07247,15.07247,0,0,0,2.05609,6.53166,12.90115,12.90115,0,0,0,5.926,5.07967,13.08148,13.08148,0,0,0,10.16088.72522,37.668,37.668,0,0,0,10.15933-5.07966,75.227,75.227,0,0,0,6.65124-5.926q3.26584-3.26583,5.926-6.16828,3.14238-3.39162,6.0487-6.77392,7.7383-8.95193,15.48126-19.10892,7.73829-10.1609,14.99674-20.68205,7.2561-10.52195,13.78855-20.68206,6.52934-10.15855,11.852-18.86821,10.1609-16.44564,19.11048-30.72026,8.94494-14.26995,15.96422-25.15607Q234.18747,506.39087,241.44359,495.74469Zm78.49489-62.408q12.21309-2.4156,19.95682,1.6927a12.84434,12.84434,0,0,1,2.66019,1.935,15.117,15.117,0,0,1,1.6927,2.66174,5.38548,5.38548,0,0,1,.24226,3.62767A6.99079,6.99079,0,0,1,341.588,446.883a18.231,18.231,0,0,1-5.32193,2.53906,26.24684,26.24684,0,0,1-8.94959.84635,128.1688,128.1688,0,0,1-15.48125-1.57158q-8.46973-1.32775-18.626-3.75035Q307.72384,435.757,319.93848,433.33671Z"/><path class="cls-1" d="M867.696,544.60794q-.969-.23992-2.17722.96748a16.09352,16.09352,0,0,0-1.452,1.69271q-2.66251,3.62922-5.80489,8.3455-3.147,4.71705-6.53166,9.55523-3.1447,4.59827-6.53011,8.94959-3.147,3.87148-7.01463,8.46663-3.87381,4.59826-7.98367,8.70733-1.93806,1.69581-4.71627,3.99261a52.03749,52.03749,0,0,1-6.41054,4.474,60.65294,60.65294,0,0,1-10.64385,4.5967,46.68765,46.68765,0,0,1-9.67481,1.935,13.90413,13.90413,0,0,1-8.94959-1.935,9.34432,9.34432,0,0,1-5.08122-6.16827,23.87754,23.87754,0,0,1-.483-8.3455,42.55955,42.55955,0,0,0,6.77237-1.33087q4.11141-1.08783,9.19185-2.90244a87.19788,87.19788,0,0,0,10.88611-4.83741,84.46924,84.46924,0,0,0,11.61133-7.378,48.6083,48.6083,0,0,0,10.76343-10.765,51.37234,51.37234,0,0,0,6.41053-11.7309v-.24226a35.4409,35.4409,0,0,0,2.29835-11.00568,56.01311,56.01311,0,0,0-.36339-8.58776,29.49488,29.49488,0,0,0-2.17722-7.49915,23.67207,23.67207,0,0,0-2.539-3.387,23.23237,23.23237,0,0,0-2.54061-2.41793q-1.45122-.96437-2.66019-1.935a22.38641,22.38641,0,0,0-6.53166-2.17722,24.19314,24.19314,0,0,0-5.80489-.24226,21.57107,21.57107,0,0,0-5.56418,1.20974,38.65354,38.65354,0,0,0-7.98211,3.62767,68.11678,68.11678,0,0,0-7.74141,5.32192,60.92,60.92,0,0,0-8.70733,8.46663,90.81144,90.81144,0,0,0-8.22437,10.88455,110.85691,110.85691,0,0,0-5.426,9.70316c-1.2573,1.99262-2.57245,4.11548-4.00659,6.50488q-2.90244,4.84052-6.2894,10.40159-3.3893,5.56728-7.01463,10.88455-3.3893,4.84051-6.77237,8.94959-2.90478,3.39162-6.28941,6.77392a28.17809,28.17809,0,0,1-6.04714,4.83741q-3.147,1.45122-4.11219-.24226a6.738,6.738,0,0,1-.969-3.38541q-.48685-4.83817,2.05609-12.45768a128.32885,128.32885,0,0,1,6.28941-15.36012q3.748-7.74063,7.7414-14.63491,3.99029-6.89505,6.41054-10.52272,1.20663-2.178,2.41792-4.23331,1.209-2.05221,2.17722-3.99106a29.05869,29.05869,0,0,0,2.29836-8.94959,9.86112,9.86112,0,0,0-3.5081-8.95114,13.11545,13.11545,0,0,0-5.4415-2.41793,14.1267,14.1267,0,0,0-5.20079,0,41.06445,41.06445,0,0,0-11.36907,4.474,89.39909,89.39909,0,0,0-11.61133,7.86253,131.825,131.825,0,0,0-11.36907,10.15934q-5.56729,5.56728-10.15934,11.12681-2.66484,3.3893-5.07966,6.53166-2.42027,3.14471-4.5967,6.28941,3.14237-7.74063,7.13576-15.36168,3.9926-7.6195,8.58775-14.87561.96438-1.93341,2.54061-4.95854a22.83659,22.83659,0,0,0,2.17567-6.04714,12.84122,12.84122,0,0,0-.11958-5.80644,5.81806,5.81806,0,0,0-3.87148-3.99106,9.80973,9.80973,0,0,0-6.409-.24226,16.00234,16.00234,0,0,0-5.56418,3.1447,27.80255,27.80255,0,0,0-4.5967,5.07967q-2.05688,2.90244-3.50654,5.32192a213.28656,213.28656,0,0,0-11.4902,23.70563c-.21353.52159-.39658,1.0558-.60371,1.57992-.2013.31835-.39716.61982-.606.96069q-2.30145,3.75267-5.2008,8.5862-3.147,4.84284-6.53011,10.40159-3.39162,5.5673-7.01618,10.88611-1.93806,2.66484-3.74879,5.07966-1.81461,2.42027-3.7488,4.59515a56.2414,56.2414,0,0,1-4.11219,4.5967q-1.94038,1.93807-3.87147,3.62767a14.21546,14.21546,0,0,1-3.62767,2.41948q-2.90244,1.69581-3.86993,0a9.43362,9.43362,0,0,1-1.20974-3.387q-.48684-4.83585,2.17722-12.45768a143.76174,143.76174,0,0,1,6.41054-15.36013q3.74569-7.73829,7.73985-14.6349,3.99028-6.89273,6.16828-10.52117a68.39959,68.39959,0,0,0,4.95853-8.70888,39.86786,39.86786,0,0,0,2.90245-8.10324,14.35552,14.35552,0,0,0,.12113-6.6528,5.84871,5.84871,0,0,0-3.38541-4.11218,7.17,7.17,0,0,0-4.839-.24071,17.756,17.756,0,0,0-4.35289,1.935,25.377,25.377,0,0,0-4.839,3.86992,76.17134,76.17134,0,0,0-7.49915,9.07072q-4.11374,5.68609-9.67481,15.11942c-.68,1.148-1.341,2.357-1.98776,3.61195-1.14025,1.623-2.31854,3.333-3.57332,5.21652q-3.1447,4.71705-6.77237,9.55523-6.29406,8.95192-12.57881,16.44874-5.56729,6.29174-11.73091,12.09429-6.16827,5.80489-11.73246,7.49915-2.42025.969-3.387-.72678a6.38556,6.38556,0,0,1-.96748-3.14315,45.66728,45.66728,0,0,1,.84635-10.52271,99.20928,99.20928,0,0,1,3.14471-12.33656q2.05221-6.4082,4.5967-13.18446,2.53905-6.76926,5.20079-13.06177,6.28709-14.9944,14.51378-30.72025,2.65785-5.08046,5.926-10.88456,3.26583-5.80722,5.926-10.88611,3.14238-6.04248,6.53167-11.852a56.7932,56.7932,0,0,1,3.74879-6.65279q2.54139-3.99028,5.2008-8.10324,20.07484-1.20665,37.25192-.72523c2.82285.09745,5.44713.26051,7.91785.4754a49.74948,49.74948,0,0,0-6.34938,8.23194,57.79951,57.79951,0,0,0-5.44151,11.61133,44.76558,44.76558,0,0,0-2.29835,11.12681,21.78275,21.78275,0,0,0,.84636,8.70888,9.6335,9.6335,0,0,0,2.78131,3.7488,5.34289,5.34289,0,0,0,4.71783,1.33087q2.17568-.2376,2.17722-2.17722a8.11351,8.11351,0,0,0-.24226-1.935q-.969-4.11141,1.81384-8.83a45.22789,45.22789,0,0,1,7.49914-9.313q4.71706-4.59126,10.15934-8.94959,5.44149-4.35366,9.55523-7.73985c.18539-.157.32593-.31214.49753-.4686,1.00552.45773,1.97223.93487,2.89254,1.43608a21.31629,21.31629,0,0,1,4.59515,3.1447,14.57115,14.57115,0,0,1,3.387,4.35289c.1584.80909.32146,1.77657.483,2.904a15.24449,15.24449,0,0,1,.12113,3.38541,23.46931,23.46931,0,0,1-.84635,4.5967,28.51694,28.51694,0,0,0-1.08861,3.50654c-.24226,1.05134.27953,1.65543,1.57313,1.81538a4.67355,4.67355,0,0,0,3.86992-1.69425q1.93341-1.93341,2.66019-7.4976a14.12628,14.12628,0,0,0,.12113-4.839,35.81226,35.81226,0,0,0-.84635-3.86992q-.72678-1.93341-1.20974-3.387a27.86391,27.86391,0,0,0-3.7488-4.71628,23.34031,23.34031,0,0,0-3.991-3.26583q-2.42259-1.45122-4.59671-2.66019c-.03843-.01922-.07978-.03455-.11841-.05377a6.21913,6.21913,0,0,0-.60991-2.36571,10.7713,10.7713,0,0,0-3.387-4.35444,9.69159,9.69159,0,0,0-7.378-2.17722,19.50433,19.50433,0,0,0-7.378,2.41948c-.39192.20732-.78365.44686-1.17538.674-3.45917-.57711-6.81585-1.0756-9.94833-1.3992a143.22435,143.22435,0,0,0-16.691-.96748q-5.07811-.23993-10.28046-.12113-5.2039.12347-10.76343.36184a13.54947,13.54947,0,0,1,1.08861-1.81383,10.536,10.536,0,0,1,1.08861-1.33087,12.0405,12.0405,0,0,0,.72523-1.20819,89.08932,89.08932,0,0,0,4.8374-7.86253,41.389,41.389,0,0,0,3.26584-7.49915,16.94835,16.94835,0,0,0,.84635-6.409,6.57837,6.57837,0,0,0-2.17567-4.5967,6.34347,6.34347,0,0,0-4.96009-1.57158,16.14381,16.14381,0,0,0-4.95854,1.57158,28.84067,28.84067,0,0,0-5.56263,4.11218,99.27185,99.27185,0,0,0-6.77392,7.62028,140.5821,140.5821,0,0,0-8.46663,11.97316q-1.93806,2.66484-5.80488,8.70889-7.01851.969-15.96578,1.935-7.743.969-18.6244,2.17722-10.88533,1.21362-24.67466,3.1447-8.22048,1.2113-14.87561,1.81384-6.65046.60564-11.4902,1.08861-5.8049.48684-10.15933.483-13.30093,0-20.078-2.17722-6.76926-2.17567-9.91707-4.83741a8.70925,8.70925,0,0,1-3.62767-7.01463,14.62359,14.62359,0,0,0-.60565-6.04714q-.84324-2.178-4.71627-1.69426a3.95263,3.95263,0,0,0-2.17723,1.33087,8.01662,8.01662,0,0,0-1.452,2.29835,16.85488,16.85488,0,0,0-1.20974,3.387,11.834,11.834,0,0,0-.36184,2.53906,11.33578,11.33578,0,0,0,.60409,4.11218,17.56886,17.56886,0,0,0,2.54061,4.839,17.23018,17.23018,0,0,0,5.68376,4.71628,62.76109,62.76109,0,0,0,13.5463,4.5967,116.8434,116.8434,0,0,0,17.7796,2.53906,137.42031,137.42031,0,0,0,25.76172-.84635q6.29174-.48219,11.852-1.20974,5.5673-.72446,9.91863-1.20974,5.07812-.72446,9.43411-1.45045,4.83585-.48219,11.00568-1.33087,6.16828-.84558,11.97317-1.57313,6.53166-.962,13.78855-1.45044-4.35367,7.2561-9.313,16.08535-4.96164,8.83311-9.7975,18.74708-4.84052,9.921-9.313,20.56093-4.47713,10.64772-7.861,21.04543c-.44841,1.21207-.86576,2.45656-1.29592,3.68765-1.46384,2.292-3.0327,4.82072-4.74967,7.68143q-2.90244,4.84052-6.28941,10.40159-3.38928,5.56728-7.01462,10.88455-3.3893,4.84051-6.77237,8.94959-2.90478,3.39162-6.28941,6.77392a28.17786,28.17786,0,0,1-6.04715,4.83741q-3.147,1.45122-4.11218-.24226a6.738,6.738,0,0,1-.969-3.38541q-.48684-4.83817,2.0561-12.45768a128.32875,128.32875,0,0,1,6.2894-15.36012q3.748-7.74063,7.74141-14.63491,3.99027-6.89505,6.41053-10.52272,1.20663-2.178,2.41793-4.23331,1.209-2.05221,2.17722-3.99106a29.0587,29.0587,0,0,0,2.29835-8.94959,9.86109,9.86109,0,0,0-3.50809-8.95114,13.11551,13.11551,0,0,0-5.4415-2.41793,14.12676,14.12676,0,0,0-5.2008,0,41.06469,41.06469,0,0,0-11.36907,4.474A89.39977,89.39977,0,0,0,521.069,528.1592a131.82651,131.82651,0,0,0-11.36907,10.15934q-5.5673,5.56728-10.15933,11.12681-2.66484,3.3893-5.07967,6.53166-2.42025,3.14471-4.5967,6.28941,3.14238-7.74063,7.13576-15.36168,3.99261-7.6195,8.58776-14.87561.96436-1.93341,2.54061-4.95854a22.83656,22.83656,0,0,0,2.17566-6.04714,12.84137,12.84137,0,0,0-.11957-5.80644A5.8181,5.8181,0,0,0,506.313,511.226a9.80973,9.80973,0,0,0-6.409-.24226,16.00247,16.00247,0,0,0-5.56419,3.1447,27.80255,27.80255,0,0,0-4.5967,5.07967q-2.05686,2.90244-3.50653,5.32192a213.28664,213.28664,0,0,0-11.49021,23.70563c-.16247.39678-.30049.80384-.45928,1.20217-1.346,1.89187-2.74579,3.90564-4.257,6.17585q-3.147,4.71705-6.53167,9.55523-3.14471,4.59827-6.53011,8.94959-3.147,3.87148-7.01463,8.46663-3.87381,4.59826-7.98366,8.70733-1.93808,1.69581-4.71628,3.99261a52.03658,52.03658,0,0,1-6.41053,4.474,60.65294,60.65294,0,0,1-10.64385,4.5967,46.68761,46.68761,0,0,1-9.67482,1.935,13.90415,13.90415,0,0,1-8.94959-1.935,9.34434,9.34434,0,0,1-5.08122-6.16827,23.87731,23.87731,0,0,1-.483-8.3455,42.56,42.56,0,0,0,6.77237-1.33087q4.11141-1.08783,9.19185-2.90244a87.19918,87.19918,0,0,0,10.88611-4.83741,84.46984,84.46984,0,0,0,11.61133-7.378,48.608,48.608,0,0,0,10.76342-10.765,51.3724,51.3724,0,0,0,6.41054-11.7309v-.24226a35.4409,35.4409,0,0,0,2.29835-11.00568,56.01311,56.01311,0,0,0-.36339-8.58776,29.49488,29.49488,0,0,0-2.17722-7.49915,23.6721,23.6721,0,0,0-2.53906-3.387,23.23147,23.23147,0,0,0-2.54061-2.41793q-1.45122-.96437-2.66018-1.935a22.38647,22.38647,0,0,0-6.53167-2.17722,24.19312,24.19312,0,0,0-5.80489-.24226,21.57116,21.57116,0,0,0-5.56418,1.20974,38.654,38.654,0,0,0-7.98211,3.62767,68.11587,68.11587,0,0,0-7.7414,5.32192,60.92,60.92,0,0,0-8.70734,8.46663,90.81143,90.81143,0,0,0-8.22436,10.88455c-1.49432,2.34591-3.02455,5.05812-4.586,8.07141-1.00941,1.44753-2.05706,2.982-3.15383,4.62854q-3.147,4.71705-6.53011,9.55523-6.29406,8.95192-12.57881,16.44874-5.56728,6.29174-11.73246,12.09429-6.16827,5.80489-11.7309,7.49915-2.66485.969-3.5081-.72678a11.05743,11.05743,0,0,1-1.08861-3.14315,45.58062,45.58062,0,0,1,.84636-10.52271,98.93506,98.93506,0,0,1,3.1447-12.33656q2.05221-6.4082,4.5967-13.18446,2.539-6.76926,5.2008-13.06177,6.28707-14.9944,14.51377-30.72025,2.65785-5.08046,5.926-10.88456,3.26583-5.80722,6.16827-10.88611,3.14006-6.04248,6.53012-11.852,13.30092-1.15771,22.134-5.78a58.64258,58.64258,0,0,0,14.39265-10.18573A49.36009,49.36009,0,0,0,431.57,453.89763q2.90478-7.496,2.904-12.57881a23.35536,23.35536,0,0,0-1.20974-8.22437,12.34617,12.34617,0,0,0-4.11218-5.56418,11.29158,11.29158,0,0,0-4.71784-1.81384,18.85985,18.85985,0,0,0-4.71627-.12113,18.0811,18.0811,0,0,0-5.07967,1.20974,38.07219,38.07219,0,0,0-10.64385,6.28941,127.1579,127.1579,0,0,0-12.33655,11.36907,192.74649,192.74649,0,0,0-13.304,15.48126q-6.77392,8.70732-13.304,18.3837-3.87147.24459-8.46663.48451-4.11606.24226-9.313.36184-5.20389.12579-11.24794-.12113-12.81873-.48219-21.40727-.36184-8.58387.12347-14.15039.6041-6.28707.70349-10.40159,1.39454a73.60335,73.60335,0,0,0-14.03081,4.6526,30.18462,30.18462,0,0,0-8.70733,6.77393q-3.62922,4.11606-1.935,10.15933a9.40936,9.40936,0,0,0,3.1447,4.83741,9.96332,9.96332,0,0,0,4.83741,1.81383q2.90244.36339,7.73985-2.2968a52.29982,52.29982,0,0,0,8.10479-5.56418,103.12413,103.12413,0,0,1,10.28046-7.25689,63.43726,63.43726,0,0,1,13.304-6.16517,51.52676,51.52676,0,0,1,17.65847-2.30146q4.59128.24459,9.91708.36339,5.318.12347,9.67636.12113,5.07811.24226,10.15933.24226a241.2173,241.2173,0,0,0-18.38525,34.83244q-1.93808,4.35366-4.474,10.40159-2.54139,6.04947-5.07966,13.304-1.21742,3.47549-2.404,7.09713c-.693,1.13617-1.41376,2.33485-2.19276,3.6663q-3.75267,6.41286-8.5862,14.6349Q313.0411,580.654,306.754,589.842q-2.66484,3.87147-5.56418,7.73985-2.90246,3.87381-5.926,7.25689a84.20691,84.20691,0,0,1-5.92757,6.04714,21.929,21.929,0,0,1-5.56263,3.87148q-2.90246-1.69581-2.0561-7.86253a65.85129,65.85129,0,0,1,3.86993-14.15039q3.02124-7.98288,7.378-16.93325,4.35366-8.94493,8.22437-16.68944a46.81551,46.81551,0,0,0,2.05609-4.96009,27.44618,27.44618,0,0,0,1.452-6.16828,15.21223,15.21223,0,0,0-.48452-6.04715,7.9635,7.9635,0,0,0-3.50809-4.59515,5.85753,5.85753,0,0,0-4.474-.60564,11.03356,11.03356,0,0,0-4.47557,2.54061q1.68882-10.64075-1.20974-16.0869a17.58128,17.58128,0,0,0-7.01463-7.61873A20.632,20.632,0,0,0,271.92,513.40317a35.56038,35.56038,0,0,0-13.06178,3.387,49.88242,49.88242,0,0,0-10.15933,6.28941,58.676,58.676,0,0,0-8.94959,8.94959,90.8125,90.8125,0,0,0-8.22437,10.88455,121.967,121.967,0,0,0-7.01618,12.9422,95.86234,95.86234,0,0,0-6.04715,16.81058q-3.14,11.85669-2.66018,20.07795.48684,8.22514,3.50653,13.06178a14.42276,14.42276,0,0,0,7.98367,6.41053,20.30391,20.30391,0,0,0,11.00568.12113,33.99909,33.99909,0,0,0,11.852-4.8374,53.58364,53.58364,0,0,0,15.48125-15.24055,71.49677,71.49677,0,0,0-1.20818,9.67636,30.69916,30.69916,0,0,0,.483,7.98211,14.80819,14.80819,0,0,0,1.20974,4.5967,20.89246,20.89246,0,0,0,2.05609,3.99106,13.76923,13.76923,0,0,0,3.7488,3.7488,8.46215,8.46215,0,0,0,3.62922,1.69425,12.77342,12.77342,0,0,0,4.35444.24071,20.48483,20.48483,0,0,0,5.80489-1.69271,37.132,37.132,0,0,0,9.79594-6.77237,87.50739,87.50739,0,0,0,8.83-9.4341q4.35366-5.56263,8.46663-11.61133c3.65329-5.35182,6.83759-10.36976,9.59444-15.089a68.56558,68.56558,0,0,0-.88711,8.07432,52.21869,52.21869,0,0,0,.48452,10.0382q.72444,4.96164,3.62766,7.378a14.05033,14.05033,0,0,0,8.58776,3.86992,30.00916,30.00916,0,0,0,7.861-.483,34.47411,34.47411,0,0,0,14.6349-7.01463A107.37563,107.37563,0,0,0,369.645,589.59971q4.52634-5.02832,8.93212-10.77a54.46337,54.46337,0,0,0-1.3134,14.64q.608,8.22747,3.99106,13.06332a23.38192,23.38192,0,0,0,6.89505,5.56263,32.95628,32.95628,0,0,0,9.79594,2.90245,49.94963,49.94963,0,0,0,15.239-.483,50.53028,50.53028,0,0,0,16.56987-5.68531A97.53969,97.53969,0,0,0,443.422,599.759a89.62311,89.62311,0,0,0,10.0382-9.19185q3.99261-4.35366,5.68531-6.53166,3.62689-4.35368,5.80489-7.25689,1.17927-1.65068,2.12792-3.0721a82.14188,82.14188,0,0,0-1.52383,15.04682,29.23445,29.23445,0,0,0,3.50654,14.87561,9.65723,9.65723,0,0,0,4.839,4.11218,7.66088,7.66088,0,0,0,7.01463,0,3.5736,3.5736,0,0,0,2.53906-3.26428,14.34953,14.34953,0,0,0-.36184-4.23331,13.52243,13.52243,0,0,1-.48452-4.11219,15.01411,15.01411,0,0,1-.2407-2.904,79.88239,79.88239,0,0,1,11.00568-22.1325,144.343,144.343,0,0,1,15.239-18.50483,140.10665,140.10665,0,0,1,14.51377-13.06177q6.65048-5.08046,8.82847-5.80645-2.66252,4.84285-5.32037,9.67637-2.178,4.11608-4.71784,9.19185-2.539,5.08044-4.23331,9.19185a80.85425,80.85425,0,0,0-4.23331,12.94065,74.75322,74.75322,0,0,0-1.935,12.69994,40.1643,40.1643,0,0,0,.60565,10.64385,11.95874,11.95874,0,0,0,3.86993,7.01463,17.03059,17.03059,0,0,0,7.378,3.62766,20.79174,20.79174,0,0,0,7.01463.24226,19.26064,19.26064,0,0,0,5.32193-1.45044q2.05221-.96438,2.539-1.20974a59.535,59.535,0,0,0,14.51378-13.18291,160.73187,160.73187,0,0,0,11.15457-15.48164,70.05718,70.05718,0,0,0-1.23905,10.03859,38.12228,38.12228,0,0,0,.36338,10.0382q.85024,4.96164,3.50809,7.378a14.96235,14.96235,0,0,0,8.70734,3.86992,29.31964,29.31964,0,0,0,7.7414-.483A35.341,35.341,0,0,0,597.747,601.4533a102.72762,102.72762,0,0,0,13.06333-11.85359,139.28713,139.28713,0,0,0,9.80992-11.78487c-.12462.58177-.26594,1.16665-.38047,1.74667a56.34468,56.34468,0,0,0-1.08861,15.60238q.608,7.01851,4.23331,10.15933a17.047,17.047,0,0,0,7.378,3.62767,18.79563,18.79563,0,0,0,7.01463.12113,22.02969,22.02969,0,0,0,5.32192-1.57157q2.05221-.96438,2.54061-1.20974a24.90283,24.90283,0,0,0,4.11219-2.66174q2.17566-1.68882,3.86992-3.14471,1.93341-1.68882,3.86993-3.62766a90.26032,90.26032,0,0,0,8.3455-10.15933c2.21-3.13578,4.3096-6.348,6.3323-9.61425a85.2553,85.2553,0,0,0-1.01038,11.67034,29.23435,29.23435,0,0,0,3.50654,14.87561,9.65723,9.65723,0,0,0,4.839,4.11218,7.66089,7.66089,0,0,0,7.01463,0,3.57359,3.57359,0,0,0,2.539-3.26428,14.3492,14.3492,0,0,0-.36183-4.23331,13.52211,13.52211,0,0,1-.48452-4.11219,15.01325,15.01325,0,0,1-.24071-2.904,79.88215,79.88215,0,0,1,11.00569-22.1325,144.3422,144.3422,0,0,1,15.239-18.50483,140.10459,140.10459,0,0,1,14.51377-13.06177q6.65046-5.08046,8.82846-5.80645-2.66252,4.84285-5.32037,9.67637-2.178,4.11608-4.71783,9.19185-2.539,5.08044-4.23331,9.19185a80.85429,80.85429,0,0,0-4.23332,12.94065,74.75416,74.75416,0,0,0-1.935,12.69994,40.16388,40.16388,0,0,0,.60565,10.64385,11.95879,11.95879,0,0,0,3.86992,7.01463,17.03057,17.03057,0,0,0,7.378,3.62766,20.79174,20.79174,0,0,0,7.01463.24226,19.26057,19.26057,0,0,0,5.32192-1.45044q2.05221-.96438,2.53906-1.20974A59.5351,59.5351,0,0,0,758.3613,593.1078c2.81917-3.47606,5.39375-6.93368,7.77479-10.37791a48.6739,48.6739,0,0,0-.64058,10.73975q.608,8.22747,3.99105,13.06332a23.38192,23.38192,0,0,0,6.895,5.56263,32.95626,32.95626,0,0,0,9.79595,2.90245,49.94957,49.94957,0,0,0,15.239-.483,50.53012,50.53012,0,0,0,16.56987-5.68531,97.53851,97.53851,0,0,0,13.66742-9.07072,89.6224,89.6224,0,0,0,10.03821-9.19185q3.9926-4.35366,5.68531-6.53166,3.62688-4.35368,5.80489-7.25689,1.20663-1.68882,2.17722-3.14315,2.65785-3.86682,5.07966-8.10479,2.4156-4.22789,4.35445-7.61872,2.41558-4.11141,4.35444-7.98211,1.20663-2.4156.483-3.62922A3.95177,3.95177,0,0,0,867.696,544.60794Zm-461.161-92.16231q6.40588-7.49372,10.40159-10.40159,3.99028-2.90244,6.04715-2.66019a7.03865,7.03865,0,0,1,2.78131.72523,6.07913,6.07913,0,0,1,.96749,4.8374,29.16731,29.16731,0,0,1-2.41948,6.77393,47.05173,47.05173,0,0,1-7.25689,10.15933,48.09818,48.09818,0,0,1-6.77237,5.56418,60.94958,60.94958,0,0,1-8.3455,4.35289,39.00071,39.00071,0,0,1-11.24794,2.904Q400.12451,459.94866,406.53505,452.44563ZM276.759,560.93555q-1.9404,3.75268-3.387,7.378-3.39162,5.32269-7.25689,10.64229-3.38929,4.59825-7.7414,9.7975a77.20168,77.20168,0,0,1-9.19185,9.313,18.99946,18.99946,0,0,1-2.90245,2.41792,27.40416,27.40416,0,0,1-2.78131,1.93652c-1.05134.646-2.0561,1.20819-3.02358,1.6927a11.87174,11.87174,0,0,1-4.71783,1.452,3.534,3.534,0,0,1-3.74879-2.41948q-1.21364-2.41558.12112-8.46662a102.81671,102.81671,0,0,1,4.11219-13.5463,146.9656,146.9656,0,0,1,6.77237-15.36012,93.10732,93.10732,0,0,1,8.3455-13.66743q8.94726-12.092,16.81212-18.74553,7.8571-6.65046,13.18291-4.23331a4.78577,4.78577,0,0,1,2.78131,3.1447,21.50229,21.50229,0,0,1,1.08861,5.32192,32.28466,32.28466,0,0,1,0,5.56263q-.24225,2.66485-.483,3.86993-1.93808,3.39162-4.11219,7.01618Q278.69085,557.18675,276.759,560.93555ZM401.45383,571.8201a98.92136,98.92136,0,0,1,5.2008-9.79594q2.90244-5.08044,6.2894-9.91863,8.94494-12.092,16.68945-18.74553,7.73829-6.65046,13.304-4.23331a9.61892,9.61892,0,0,1,2.66174,4.11218,16.22641,16.22641,0,0,1,.24226,6.41054,40.70489,40.70489,0,0,1-3.1447,10.28046,36.27661,36.27661,0,0,1-7.13576,10.52116,73.15085,73.15085,0,0,1-10.88611,9.313,92.61874,92.61874,0,0,1-13.1829,7.74141,82.99468,82.99468,0,0,1-14.02926,5.32192A64.4639,64.4639,0,0,1,401.45383,571.8201Zm388.23182,0a98.92139,98.92139,0,0,1,5.20079-9.79594q2.90246-5.08044,6.28941-9.91863,8.94494-12.092,16.68944-18.74553,7.73831-6.65046,13.304-4.23331a9.61891,9.61891,0,0,1,2.66173,4.11218,16.226,16.226,0,0,1,.24226,6.41054,40.70448,40.70448,0,0,1-3.1447,10.28046,36.27641,36.27641,0,0,1-7.13576,10.52116,73.15025,73.15025,0,0,1-10.8861,9.313,92.61941,92.61941,0,0,1-13.18291,7.74141,82.99468,82.99468,0,0,1-14.02926,5.32192A64.4631,64.4631,0,0,1,789.68565,571.8201Z"/><path class="cls-1" d="M953.80963,565.5307c-.32456-.40066-.96748-.27953-1.935.36339q-3.147,1.93806-8.22437,4.95853a155.78814,155.78814,0,0,1-16.20648,7.86254q-.48684-9.43412-1.6927-17.53735-1.21362-8.10169-1.93652-11.97472-.72444-4.10907-1.20819-9.67481a72.74425,72.74425,0,0,1-.12112-11.12837,39.033,39.033,0,0,1,1.935-10.15933,12.49908,12.49908,0,0,1,4.95853-6.77237c.48452-.1584,1.04669-.32146,1.69271-.48452a8.98082,8.98082,0,0,1,1.452.12113,4.18864,4.18864,0,0,1,1.6927.84635,4.77636,4.77636,0,0,1,1.57313,3.02358,14.85725,14.85725,0,0,1-.84635,6.16827,15.7797,15.7797,0,0,1-2.66174,6.0487,23.68235,23.68235,0,0,1-4.35444,4.59515,4.81342,4.81342,0,0,0-1.45045,1.69271,3.05937,3.05937,0,0,0,.483,3.62922,2.16242,2.16242,0,0,0,1.935,1.08861,6.69663,6.69663,0,0,0,3.62922-1.08861,22.03914,22.03914,0,0,0,3.86992-3.14471,19.91744,19.91744,0,0,0,3.387-4.5967,21.00112,21.00112,0,0,0,2.90245-7.61872,42.80362,42.80362,0,0,0,.48452-5.443q0-6.28708-3.14471-9.07072a14.88226,14.88226,0,0,0-6.04714-3.5081,14.65794,14.65794,0,0,0-9.313.12113,21.56085,21.56085,0,0,0-7.13576,4.23332,27.568,27.568,0,0,0-6.28941,7.25688,47.8438,47.8438,0,0,0-6.16827,15.239,54.67281,54.67281,0,0,0-.84791,20.32022q.23992,1.93806.72678,4.35289.72444,3.87381,1.45044,10.64385.23994,3.62922.48452,7.49914a102.16545,102.16545,0,0,1,0,14.02926q-9.67172,1.69581-15.48126,5.56418a19.79192,19.79192,0,0,0-6.04714,5.68376,21.05744,21.05744,0,0,0-2.66174,5.68531,21.30455,21.30455,0,0,0-.96748,4.59515,28.02571,28.02571,0,0,0-.12113,4.5967,18.13654,18.13654,0,0,0,1.08861,5.32193,17.35456,17.35456,0,0,0,3.87148,6.16827,15.3963,15.3963,0,0,0,7.73985,3.99106,16.05093,16.05093,0,0,0,5.56418.483,19.88632,19.88632,0,0,0,5.56263-.84635,23.89146,23.89146,0,0,0,12.09585-8.3455,58.62878,58.62878,0,0,0,4.11218-6.04714,62.45386,62.45386,0,0,0,2.90245-6.77237,53.55439,53.55439,0,0,0,2.17722-9.67637q.72444-5.318.96748-10.88456,4.83585-2.41559,9.43256-5.20079,4.59358-2.779,8.46662-5.44305,4.35368-2.90245,8.46663-5.80489a27.06267,27.06267,0,0,0,.24226-3.14471A2.88109,2.88109,0,0,0,953.80963,565.5307ZM904.94794,599.759q-.48918,1.9404-.96748,4.35444-.48918,2.42026-1.20974,5.07967a21.77563,21.77563,0,0,1-2.17723,5.07967,28.63829,28.63829,0,0,1-2.66018,2.78131,3.49128,3.49128,0,0,1-3.387.84791,2.931,2.931,0,0,1-1.57313-.969q-.601-.72444-1.08861-1.20819a6.277,6.277,0,0,1-.72522-1.452,9.28891,9.28891,0,0,1-.6041-2.66019c-.0792-.96748-.12113-1.85576-.12113-2.66174a13.12747,13.12747,0,0,1,2.41793-5.56263,19.56912,19.56912,0,0,1,4.47557-4.47557,21.75733,21.75733,0,0,1,8.3455-3.50809Q905.42857,597.345,904.94794,599.759Z"/><path class="cls-1" d="M518.0501,697.77594q.28419-8.18788.28574-9.90465,0-3.23789-.191-6.19157-.191-2.949-.57149-5.80955-2.28515-15.61637-10.66714-26.28661A44.6084,44.6084,0,0,0,484.429,634.534a44.10247,44.10247,0,0,0-8.09547-1.9039q-3.33572-.3797-4.09666-.382-22.28546-2.09181-44.574,18.8589-2.85586,2.66951-5.52381,5.52381a174.96826,174.96826,0,0,0-16.85716,19.62139q-7.90835,10.6687-14.28705,21.238-6.3849,10.57319-11.3349,20.09659-4.95467,9.52728-7.99919,16.1925,1.90079-10.09566,4.76131-20.2876,2.85819-10.18884,6.19157-19.71613,3.32873-9.52262,7.04724-18.19113,3.71541-8.66541,7.33453-15.90521a35.21093,35.21093,0,0,0,14.096-.85722,20.06946,20.06946,0,0,0,10.66714-7.715,16.62183,16.62183,0,0,0,2.47539-4.47712,18.40525,18.40525,0,0,0,.9535-3.90409,12.49457,12.49457,0,0,0-.191-3.80936,11.816,11.816,0,0,0-1.52344-3.33417,10.256,10.256,0,0,0-4.19138-3.33416q-6.0984-3.23555-12.5726,1.71445a19.53172,19.53172,0,0,0-3.04687,2.95369q-1.14373,1.42792-1.52343,1.80917-1.71444,2.28516-3.52517,5.04861-1.81228,2.76269-3.52362,5.999-4.19295-1.14141-8.9527-2.95214-4.76364-1.80762-10.28667-3.90409-4.57031-1.71444-9.14371-3.42889-4.57031-1.71445-9.52418-3.23943A199.29733,199.29733,0,0,0,323.372,628.153a138.37424,138.37424,0,0,0-30.76374-1.23769q-15.43,1.14373-26.28816,6.47576a78.26577,78.26577,0,0,0-12.95307,7.2398,124.1773,124.1773,0,0,0-9.90465,7.61872,80.30813,80.30813,0,0,0-8.76324,8.57223,9.06975,9.06975,0,0,0-2.47539,4.8576,8.47073,8.47073,0,0,0,.38047,3.71463,10.07692,10.07692,0,0,0,2.28593,3.42889,7.89036,7.89036,0,0,0,4.38084,1.9039,8.07466,8.07466,0,0,0,4.38085-.95195q2.28747-1.14374,4.95387-5.33435,3.23556-5.32968,5.999-9.33316a77.822,77.822,0,0,1,5.42908-7.0488,48.11446,48.11446,0,0,1,3.6199-3.61835q1.71444-1.52343,3.90564-3.14315a32.9104,32.9104,0,0,1,4.856-2.95214q1.33242-.573,3.04842-1.334,1.52343-.5707,3.52362-1.23769a44.33141,44.33141,0,0,1,4.66813-1.23925,90.75314,90.75314,0,0,1,9.33317-1.143q4.3793-.37737,8.9527-.38047,4.57263,0,9.52418.38047a43.66488,43.66488,0,0,1,4.66658.57148q3.71541.573,9.81147,1.90546,6.09373,1.33474,14.096,3.90564,7.99918,2.57166,17.52492,6.572,8.56991,3.61991,16.76243,6.85623a118.23709,118.23709,0,0,0,16.19095,5.14333,271.688,271.688,0,0,0-14.857,36.00181q-3.81324,11.4304-6.66833,22.57353-2.85585,11.14389-4.76131,21.62a35.1763,35.1763,0,0,0,0,5.23807,5.84413,5.84413,0,0,0,2.28593,4.66814,4.86414,4.86414,0,0,0,2.28593.952q6.66444,1.14373,11.61909-5.52381a27.20508,27.20508,0,0,0,2.85741-4.47712q1.33009-2.57167,2.85741-5.80955h-.191q2.28747-4.95233,6.95251-14.47651,4.66581-9.525,11.24018-20.76435,6.57126-11.23707,14.76224-22.763a131.66035,131.66035,0,0,1,17.61965-20.28605,73.45245,73.45245,0,0,1,19.81086-13.42983,33.18337,33.18337,0,0,1,21.04854-2.38065,33.76014,33.76014,0,0,1,7.62028,2.85741,27.08352,27.08352,0,0,1,8.00074,6.381,39.60945,39.60945,0,0,1,6.66677,11.14389q2.85585,6.85545,3.33261,17.23763a119.75992,119.75992,0,0,1-1.90391,24.66845,222.48051,222.48051,0,0,1-8.858,33.52641q-8.19254,24.38427-18.95363,41.05041Q462.52085,793.01773,450.6168,803.497a90.41546,90.41546,0,0,1-24.28643,15.71575,98.80023,98.80023,0,0,1-24.00223,6.95251,87.22971,87.22971,0,0,1-21.71476.66622,105.27881,105.27881,0,0,1-17.52492-3.14315,44.18064,44.18064,0,0,1-8.9527-3.80937,43.19828,43.19828,0,0,1-6.66832-4.57185,47.18286,47.18286,0,0,1-5.71327-5.52381,29.67251,29.67251,0,0,1-6.19157-13.0478,49.44014,49.44014,0,0,1-.85722-12.28685,32.75326,32.75326,0,0,1,2.1912-10.47769,46.23933,46.23933,0,0,1,2.76112-5.90427,1.53332,1.53332,0,0,0,.28574-.38048,1.54757,1.54757,0,0,1,.28575-.382q.95272-1.71444,1.90545-3.14315a10.0518,10.0518,0,0,0,1.334-2.76112q1.71444-3.80859,1.23769-6.19158a7.09869,7.09869,0,0,0-1.80917-3.71463,8.03412,8.03412,0,0,0-3.81092-2.09491q-4.95465-.75939-8.00074,2.28592a21.7702,21.7702,0,0,0-4.76132,7.23826,46.72015,46.72015,0,0,0-3.04842,11.23862,47.39243,47.39243,0,0,0-.38047,6.2863q0,2.85819.09473,6.66677a43.76762,43.76762,0,0,0,1.04824,8.19176,44.63868,44.63868,0,0,0,5.71481,15.81048,43.19389,43.19389,0,0,0,10.57242,11.8101,71.7307,71.7307,0,0,0,15.14271,8.9527,67.71039,67.71039,0,0,0,10.3814,3.42889q4.28612.9504,5.23962,1.143,3.61525.75939,7.80974,1.33243,3.61524.37969,8.28648.66776a73.04432,73.04432,0,0,0,9.80992-.09628q6.66444-.382,13.33354-1.33242a106.63337,106.63337,0,0,0,12.95307-2.668,112.95781,112.95781,0,0,0,15.43-5.23807,95.90946,95.90946,0,0,0,14.28549-7.524,103.68206,103.68206,0,0,0,15.621-12.28686,164.31248,164.31248,0,0,0,12.00112-12.66733,129.34167,129.34167,0,0,0,10.47613-13.905,165.65109,165.65109,0,0,0,16.09622-32.19244,198.5665,198.5665,0,0,0,8.09548-28.09734A134.40922,134.40922,0,0,0,518.0501,697.77594ZM403.94785,647.58337q1.04358-1.61661,1.80918-2.76268a16.93068,16.93068,0,0,1,1.71444-2.47538,13.23371,13.23371,0,0,1,2.85741-3.04842,15.92307,15.92307,0,0,1,2.85741-1.61972,3.51111,3.51111,0,0,1,3.23788.28574,4.588,4.588,0,0,1,1.90546,1.42871,2.36941,2.36941,0,0,1,.38047,1.04823,3.93045,3.93045,0,0,1,0,1.71445,17.69535,17.69535,0,0,1-.57148,2.09491,13.071,13.071,0,0,1-1.33243,2.6664,10.08584,10.08584,0,0,1-6.09684,4.38239,21.10564,21.10564,0,0,1-8.95269,0Q402.9004,649.20387,403.94785,647.58337Z"/><path class="cls-1" d="M753.39189,792.06733a8.46988,8.46988,0,0,0-3.80936-3.04687,7.7947,7.7947,0,0,0-4.57185-.191q-2.6695.57071-6.09529,3.80936-4.38395,4.18829-8.28648,7.33453-3.90642,3.14238-7.14353,5.42908a41.79854,41.79854,0,0,1-8.57067,4.38084,72.05576,72.05576,0,0,1-10.76343,2.6664,57.14831,57.14831,0,0,1-14.95325.382q-10.66871-.95737-22.0005-2.57166-11.33724-1.62128-20.85909-3.33417-11.04839-2.09879-21.52529-4.19138a101.67121,101.67121,0,0,0,10.09566-13.99975q4.38162-7.33532,7.62027-14.0013a10.47008,10.47008,0,0,0,4.8576,1.04823,29.60084,29.60084,0,0,0,4.38084-.47675,11.30213,11.30213,0,0,0,3.23788-1.04824,4.87,4.87,0,0,1,1.61972-.66621,46.911,46.911,0,0,0,11.42963-10.3814,125.25909,125.25909,0,0,0,9.33317-13.0478,146.41107,146.41107,0,0,0,8.57223-15.81048q3.04453-6.47343,3.04842-7.42926.18635-1.3301-.57148-1.525a5.16423,5.16423,0,0,0-1.90546-.38047.77342.77342,0,0,0-.57148.191,34.04821,34.04821,0,0,0-3.14315,4.47557q-1.81229,2.956-4.0951,6.76306-2.28749,3.81324-4.95233,8.1902-2.67183,4.38395-5.52536,8.57223-2.6695,3.81324-5.33279,7.04879-2.28748,2.6695-4.95233,5.3328a22.1495,22.1495,0,0,1-4.76286,3.80936q-2.4785,1.14373-3.23788-.18946a5.31076,5.31076,0,0,1-.7625-2.6664q-.38434-3.80859,1.61972-9.81147a100.79751,100.79751,0,0,1,4.95232-12.09585q2.95137-6.09374,6.09529-11.52436,3.14238-5.42752,5.04861-8.28649a73.16106,73.16106,0,0,0,3.71463-6.85623,31.52834,31.52834,0,0,0,2.28593-6.38258,12.43748,12.43748,0,0,0,.18946-5.23807,4.32324,4.32324,0,0,0-2.76113-3.23788,5.64658,5.64658,0,0,0-3.81091-.191,14.07559,14.07559,0,0,0-3.42889,1.525,15.96107,15.96107,0,0,0-3.61835,3.04687,71.60179,71.60179,0,0,0-5.14334,6.19157q-2.47849,3.33338-4.38084,6.19-2.0988,3.4289-4.19139,6.85779-7.81284,12.57182-13.52455,20.85908-5.714,8.28572-9.71519,13.23881-3.9996,4.95466-6.19,7.14353a21.95007,21.95007,0,0,1-2.57167,2.38065,15.64347,15.64347,0,0,1-.85722-5.80955q.09318-3.14469.47675-6.19157.57071-3.42888,1.52344-7.04724a116.91735,116.91735,0,0,1,6.95251-18.57315,175.86241,175.86241,0,0,1,9.61891-17.61966q.75939-1.52343,2.00018-3.90564a17.96033,17.96033,0,0,0,1.71445-4.76131,10.08942,10.08942,0,0,0-.09473-4.57186,4.5758,4.5758,0,0,0-3.04842-3.14315,7.70694,7.70694,0,0,0-5.047-.191,12.56914,12.56914,0,0,0-4.38085,2.47694,21.81673,21.81673,0,0,0-3.6199,4.00037q-1.62128,2.28514-2.76268,4.18983a168.15937,168.15937,0,0,0-9.04743,18.66789c-.43055,1.05115-.81917,2.11957-1.21672,3.1843-.46026.76094-.94167,1.57-1.44812,2.43579q-2.956,5.04783-6.76305,11.52436-4.76364,8.38354-9.71364,15.61947-2.0988,3.0492-4.3824,6.09529-2.28515,3.0492-4.66658,5.71482-2.383,2.66951-4.66658,4.76286a17.24064,17.24064,0,0,1-4.38085,3.04687q-2.28747-1.33474-1.61971-6.19a51.91788,51.91788,0,0,1,3.04842-11.14389q2.37833-6.28709,5.80955-13.33354,3.42888-7.04646,6.47575-13.14408a36.94518,36.94518,0,0,0,1.61972-3.90565,21.5963,21.5963,0,0,0,1.143-4.85759,11.97381,11.97381,0,0,0-.38047-4.76131,6.28292,6.28292,0,0,0-2.76268-3.61991,4.61225,4.61225,0,0,0-3.52362-.4752,8.66566,8.66566,0,0,0-3.52362,2.00019q1.3301-8.38122-.9535-12.66888a13.84948,13.84948,0,0,0-5.52381-5.999,16.25149,16.25149,0,0,0-9.14371-1.71444,28.0022,28.0022,0,0,0-10.28667,2.66639,39.27022,39.27022,0,0,0-7.99919,4.95233,46.24978,46.24978,0,0,0-7.0488,7.04879,71.55082,71.55082,0,0,0-6.47575,8.57068,95.90368,95.90368,0,0,0-5.52536,10.19194,75.47677,75.47677,0,0,0-4.76132,13.23881,51.63861,51.63861,0,0,0-2.09491,15.81048q.382,6.47808,2.76113,10.28667a11.35987,11.35987,0,0,0,6.2863,5.04706,15.99468,15.99468,0,0,0,8.66695.09628,26.7803,26.7803,0,0,0,9.33472-3.81092,42.177,42.177,0,0,0,12.19058-11.99956,56.09707,56.09707,0,0,0-.952,7.61872,24.152,24.152,0,0,0,.38047,6.2863,11.71883,11.71883,0,0,0,.952,3.6199,16.61854,16.61854,0,0,0,1.61971,3.14315,10.87321,10.87321,0,0,0,2.95214,2.95214,6.65368,6.65368,0,0,0,2.85741,1.33242,10.06421,10.06421,0,0,0,3.42889.191,16.113,16.113,0,0,0,4.57186-1.334,29.24294,29.24294,0,0,0,7.715-5.33279,68.95094,68.95094,0,0,0,6.95251-7.42927q3.4289-4.3793,6.66677-9.14371,4.18449-6.1278,7.36249-11.54475c-.12618.78-.23741,1.59876-.3168,2.49733a24.68755,24.68755,0,0,0,0,4.28611,37.26046,37.26046,0,0,0,1.525,8.57223,10.39464,10.39464,0,0,0,5.5238,6.66677,11.51289,11.51289,0,0,0,3.04842,1.04668,11.18592,11.18592,0,0,0,3.80936-.09473,10.58222,10.58222,0,0,0,5.3328-2.28593,35.68821,35.68821,0,0,0,5.8111-5.5238,91.50875,91.50875,0,0,0,5.90428-7.715q2.95136-4.28611,5.80954-8.858-1.14141,3.4289-3.14315,8.858-1.99863,5.42985-5.04705,12.09585-3.0492,6.66677-7.23825,14.0013A151.41756,151.41756,0,0,1,611.67062,801.02a224.799,224.799,0,0,0-32.003-2.38066q-14.09294.09318-24.1917,1.04823a122.84838,122.84838,0,0,0-20.7628,3.61835q-10.66636,2.66718-16.00149,6.85778-5.3297,4.18828-7.23825,7.80974a17.04959,17.04959,0,0,0-1.90546,9.14371,16.20205,16.20205,0,0,0,2.85741,6.85778,26.80658,26.80658,0,0,0,6.09684,5.71482q3.9996,2.85817,11.23863,4.38084a69.44455,69.44455,0,0,0,15.71419,1.90546,81.30119,81.30119,0,0,0,13.23881-.95351,76.17831,76.17831,0,0,0,12.5726-2.85585,83.9635,83.9635,0,0,0,14.47651-5.90583,120.01031,120.01031,0,0,0,11.24017-6.66677,91.60786,91.60786,0,0,0,9.90465-7.42927q3.61526-3.24021,6.76306-6.47731,3.14237-3.24021,5.999-6.47576,8.00153,1.3301,16.573,2.6664,7.23748,1.14373,15.90521,2.38066,8.66541,1.23691,16.6677,2.19119,13.52455,1.52345,24.85946,1.80918a190.93413,190.93413,0,0,0,20.47706-.4752,78.37139,78.37139,0,0,0,15.71575-3.14315,68.60334,68.60334,0,0,0,11.33336-4.66658,46.39527,46.39527,0,0,0,9.14371-6.2863,12.28462,12.28462,0,0,0,3.52362-4.3824,7.36228,7.36228,0,0,0,.66621-3.61835A9.289,9.289,0,0,0,753.39189,792.06733Zm-188.9617-54.19294q-1.52576,2.956-2.66639,5.80955-2.6695,4.19294-5.71482,8.38121-2.66951,3.62224-6.09529,7.715a60.83935,60.83935,0,0,1-7.23825,7.33453,15.08651,15.08651,0,0,1-2.28593,1.90391,21.35218,21.35218,0,0,1-2.1912,1.52343q-1.23924.76405-2.38065,1.334a9.32406,9.32406,0,0,1-3.71463,1.143,2.78325,2.78325,0,0,1-2.95214-1.90546q-.95506-1.9008.09473-6.66677a80.976,80.976,0,0,1,3.23943-10.66714,115.39164,115.39164,0,0,1,5.33279-12.09585,73.1005,73.1005,0,0,1,6.572-10.76187,87.91333,87.91333,0,0,1,13.23881-14.7638q6.18692-5.23652,10.38141-3.33261a3.7713,3.7713,0,0,1,2.19119,2.47539,17.10355,17.10355,0,0,1,.85723,4.19138,25.78213,25.78213,0,0,1,0,4.38085q-.19335,2.0988-.382,3.04842-1.52576,2.6695-3.23788,5.5238Q565.95286,734.9238,564.43019,737.87439Zm29.7155,82.29028a83.27386,83.27386,0,0,1-14.19231,9.90464A79.83312,79.83312,0,0,1,563.382,836.9271a67.68207,67.68207,0,0,1-18.95363,2.57166,97.36445,97.36445,0,0,1-11.04916-.95195,55.65241,55.65241,0,0,1-8.9527-2.38065,14.83316,14.83316,0,0,1-7.04724-4.8576,3.83529,3.83529,0,0,1-1.143-2.00019q-.18867-1.05056-.382-2.00018a5.923,5.923,0,0,1,0-2.09492q.573-4.57263,6.2863-8.19175,4.76364-3.0492,15.33528-5.90428,10.57086-2.85819,30.38171-3.6199,11.43042-.38436,20.85909-.191,9.42945.18867,17.42864.76249A113.54792,113.54792,0,0,1,594.14569,820.16467Z"/><path class="cls-1" d="M843.292,418.72588c34.6783-64.3086-18.01828-70.795-56.23436,43.53259C887.71245,468.2359,923.6991,411.88531,843.292,418.72588Z"/><path class="cls-1" d="M747.63443,295.2071c-2.2857-47.04775-33.5317-33.07085-16.53374,42.76266C788.6468,307.73364,789.73461,264.64226,747.63443,295.2071Z"/><path class="cls-1" d="M217.3341,338.10677c-50.9092-28.90128-57.02476,13.19809,33.89042,45.8062C257.76926,303.38775,213.25765,273.57728,217.3341,338.10677Z"/><path class="cls-1" d="M469.05173,244.99509c-19.43758-29.35946-34.1778-8.44435,5.70779,33.79357C500.19011,237.38079,484.43136,209.27522,469.05173,244.99509Z"/><path class="cls-1" d="M670.15337,259.94017c-1.57945-26.95342-19.4088-18.76335-9.23188,24.60507C693.73228,266.88525,694.10908,242.1802,670.15337,259.94017Z"/><path class="cls-1" d="M744.46639,751.52168c41.728-28.31543,73.39657,28.50172,151.264,0C828.10867,791.94568,791.50353,735.59425,744.46639,751.52168Z"/><path class="cls-1" d="M73.22333,746.7935c54.96087-37.29488,96.67224,37.54023,199.23314,0C183.39042,800.03683,135.177,725.81513,73.22333,746.7935Z"/></g></svg>