<svg xmlns="http://www.w3.org/2000/svg" viewBox="0 0 1000 1000"><defs><style>.cls-1{fill:#3d3d3d;}</style></defs><title>Valentines_5</title><g id="Layer_8" data-name="Layer 8"><path class="cls-1" d="M305.3356,398.97387a50.24751,50.24751,0,0,0,17.33391,10.59881,46.9401,46.9401,0,0,0,22.18219,2.2176q.1584,9.36423.16461,17.82775,0,8.46275.16462,14.70478,0,7.39355.1615,13.63792c0,.65689.49384,1.20663,1.48151,1.643a12.04108,12.04108,0,0,0,3.286.90381,9.82265,9.82265,0,0,0,3.36677-.08231q1.56071-.32844,1.56226-1.47839l2.13374-50.11492q3.61524-1.31146,7.31124-2.9568a77.51268,77.51268,0,0,0,7.64046-3.94291q1.80762-.98767,2.05609-4.43675a33.20939,33.20939,0,0,0-.24847-6.98357,27.26718,27.26718,0,0,0-1.4784-6.07821c-.65534-1.69736-1.261-2.38376-1.80762-2.05453a83.10058,83.10058,0,0,1-12.81486,9.03655l2.62758-61.28521q.33076-2.13374-.7392-2.79374a3.58877,3.58877,0,0,0-2.87294-.16461,24.09786,24.09786,0,0,0-4.02833,1.5607q-2.2176,1.07154-4.27058,2.21915-2.05454,1.15074-3.53139,2.053a9.24409,9.24409,0,0,1-1.643.90381,34.63865,34.63865,0,0,1,.32612,5.42287q.16307,5.42054.32922,14.29325.16307,8.87273.32923,20.12766.163,11.258.32922,22.92138a33.36051,33.36051,0,0,1-18.6508-.65689,36.60193,36.60193,0,0,1-14.53863-9.28347,45.3309,45.3309,0,0,1-9.53194-15.19862,52.44146,52.44146,0,0,1-3.61214-18.23773,66.2938,66.2938,0,0,1,5.00979-26.45432,72.04681,72.04681,0,0,1,14.04789-21.93372,67.62646,67.62646,0,0,1,20.78454-15.034,62.44542,62.44542,0,0,1,25.22285-5.91515,65.07839,65.07839,0,0,1,22.17908,3.286,45.03111,45.03111,0,0,1,17.25316,10.59726,49.352,49.352,0,0,1,11.33646,18.15542q4.10442,11.01111,4.43831,25.79743a53.1212,53.1212,0,0,1-1.72687,14.62248,43.9948,43.9948,0,0,1-6.07821,13.47331,46.15743,46.15743,0,0,1-10.76187,11.1734,56.12839,56.12839,0,0,1-15.77476,8.05044,4.83707,4.83707,0,0,0-1.4784,1.15073q-.98767.98533-2.13685,2.13529-1.15073,1.15072-2.053,2.05454a6.57119,6.57119,0,0,1-1.233,1.06687,9.37332,9.37332,0,0,0,2.54682.32922,29.80087,29.80087,0,0,1,5.66823,1.06842,30.49838,30.49838,0,0,1,6.90127,2.9568,22.63444,22.63444,0,0,1,6.49129,5.66823,24.88954,24.88954,0,0,1,4.35444,9.36578,38.34691,38.34691,0,0,1,.49073,13.96559q-.48918,4.27446-3.696,11.50262a54.85155,54.85155,0,0,1-9.44808,14.2125,57.46482,57.46482,0,0,1-15.607,12.07566q-9.36888,5.09209-22.18219,5.09364-11.1765,0-17.41777-3.53293a29.04118,29.04118,0,0,1-9.44808-7.96814,24.569,24.569,0,0,1-4.18984-8.62658,55.73069,55.73069,0,0,0-1.47839-5.50361c-.32612-.87586-1.04047-1.01252-2.13374-.41153a18.51248,18.51248,0,0,0-3.45064,2.54682,45.41,45.41,0,0,0-4.60291,4.60136,30.97923,30.97923,0,0,0,7.72432,13.96558,37.87345,37.87345,0,0,0,5.99746,5.09365,37.49082,37.49082,0,0,0,8.37966,4.27213,61.44581,61.44581,0,0,0,11.17185,2.87449,69.96808,69.96808,0,0,0,14.37711.74076,53.03564,53.03564,0,0,0,7.06588-.82151,84.14824,84.14824,0,0,0,11.41721-2.79374,90.365,90.365,0,0,0,13.39255-5.50517,56.97375,56.97375,0,0,0,13.06333-9.03655,49.4244,49.4244,0,0,0,10.18418-13.391,47.129,47.129,0,0,0,4.93214-27.5212,42.44442,42.44442,0,0,0-2.63068-10.84418,27.74926,27.74926,0,0,0-6.16207-9.52884,18.41727,18.41727,0,0,0-10.84262-5.17594,46.17645,46.17645,0,0,0,19.71612-9.11887,50.5733,50.5733,0,0,0,13.06333-15.85551,60.05437,60.05437,0,0,0,6.32357-20.04535,69.91332,69.91332,0,0,0-7.96658-42.96673A60.83221,60.83221,0,0,0,414.8458,289.546a66.73,66.73,0,0,0-21.68836-11.83029Q380.5041,273.44587,364.074,274.265q-16.10555.82461-28.17654,5.91514a75.04148,75.04148,0,0,0-20.8684,12.89872,71.76879,71.76879,0,0,0-14.45787,17.49853,96.37128,96.37128,0,0,0-8.79274,19.55306,93.49512,93.49512,0,0,0-4.02522,18.97692,66.04965,66.04965,0,0,0,.08385,15.85552,58.23119,58.23119,0,0,0,17.49853,34.01093Z"/><path class="cls-1" d="M434.64267,410.065q-.73608,6.16129-.90381,11.0911-.163,4.929-.16461,7.22893,0,1.15074.32923,4.18983.32611,3.04221,1.15228,7.06588a49.59253,49.59253,0,0,0,2.54992,8.37966,34.06031,34.06031,0,0,0,4.36066,7.88583,20.73815,20.73815,0,0,0,6.57515,5.75054,16.71035,16.71035,0,0,0,9.37043,1.88992,21.60417,21.60417,0,0,0,11.0911-3.69755,39.282,39.282,0,0,0,8.8735-8.21505,58.18459,58.18459,0,0,0,6.6559-10.51495,105.7364,105.7364,0,0,0,4.5998-10.67957,79.08675,79.08675,0,0,0,2.62758-8.54427,37.10763,37.10763,0,0,0,.82305-4.02522q-.33076-1.64223-2.46606-1.72532-2.1384-.08152-2.463.7392-.49383,2.13608-1.39764,5.83284a66.35678,66.35678,0,0,1-2.54682,7.96814q-1.64457,4.27446-3.86061,8.70888a48.64387,48.64387,0,0,1-5.09364,8.13275,27.19161,27.19161,0,0,1-6.49129,6.07976,16.39257,16.39257,0,0,1-7.88583,2.71143c-.98456.22052-2.522-.35407-4.59981-1.72532q-3.12606-2.05221-5.42286-8.29735a34.5083,34.5083,0,0,0,7.06587-.98612,20.64022,20.64022,0,0,0,8.78964-4.68367,33.68669,33.68669,0,0,0,7.88583-10.76187q3.53139-7.06277,4.68367-19.38845a68.15959,68.15959,0,0,0-.24537-12.81486,50.39607,50.39607,0,0,0-3.12141-13.14408,27.102,27.102,0,0,0-6.57514-10.02423q-4.18829-3.94135-10.76188-3.286a16.04906,16.04906,0,0,0-9.945,4.27214,32.56509,32.56509,0,0,0-6.82672,9.44809,57.39664,57.39664,0,0,0-4.35755,12.32257A117.09746,117.09746,0,0,0,434.64267,410.065Zm13.22795,17.66314q0-3.61291.41308-8.62658.41463-5.01056,1.07774-10.51495.66155-5.5044,1.57157-10.84418a91.89,91.89,0,0,1,2.15238-9.695,47.63944,47.63944,0,0,1,2.56856-7.14663q1.3231-2.793,2.98475-3.12141,5.29707-.98768,7.94484,7.31124,2.64621,8.29735,1.82626,26.20586-.66623,11.1765-2.98475,17.41777-2.3201,6.24515-5.29863,9.28347a12.24936,12.24936,0,0,1-6.04715,3.696,17.84183,17.84183,0,0,1-5.05016.49383,46.32832,46.32832,0,0,1-.99078-6.409A62.78475,62.78475,0,0,1,447.87062,427.7281Z"/><path class="cls-1" d="M523.6137,456.97461a4.24269,4.24269,0,0,0,2.112,4.43675,12.412,12.412,0,0,0,5.52847,1.72376,20.74123,20.74123,0,0,0,5.61232-.24536q2.52042-.49383,2.35737-1.4784a148.90018,148.90018,0,0,1-1.14918-18.23927q-.16772-11.33724.16151-26.28817.65688-2.46452,1.72686-8.052,1.06688-5.5836,2.79219-11.41877a46.49239,46.49239,0,0,1,4.4383-10.43264q2.71143-4.59827,6.48818-5.25826,5.0921-.65456,7.64047,3.20372,2.54836,3.86216,3.36988,10.67956a92.47777,92.47777,0,0,1,.41,15.36323q-.41463,8.54429-.98767,17.16931-.57769,8.6258-1.06531,16.34934a55.5119,55.5119,0,0,0,.32611,12.48719,4.20286,4.20286,0,0,0,2.22071,4.43675,13.05862,13.05862,0,0,0,5.58437,1.72376,21.37492,21.37492,0,0,0,5.66823-.24536q2.62757-.49383,2.46607-1.4784-.49384-3.12141-.7392-6.98357-.24692-3.85983-.57459-8.62658.1584-5.25515.81995-12.40488.6569-7.14663,1.15228-15.034a9.68581,9.68581,0,0,0,.81995-3.12141q.49385-2.793,1.31379-6.73665t2.053-8.462a65.40685,65.40685,0,0,1,2.876-8.37966,28.70366,28.70366,0,0,1,3.86061-6.65435,8.27125,8.27125,0,0,1,5.01289-3.286q4.929-.65456,7.31124,2.38221a18.63741,18.63741,0,0,1,3.286,8.54428,70.31147,70.31147,0,0,1,.7392,12.81485q-.16307,7.31435-.65534,15.034-.49383,7.72665-.65845,15.36323a88.35452,88.35452,0,0,0,.65845,13.72023,26.03329,26.03329,0,0,0,3.20216,10.02267,8.96282,8.96282,0,0,0,7.14663,4.4352,15.87676,15.87676,0,0,0,9.94192-1.88838,29.84046,29.84046,0,0,0,8.1343-6.819,51.50333,51.50333,0,0,0,6.40743-9.695c.48568-.9436.89507-1.87343,1.34-2.80946a56.41832,56.41832,0,0,0,1.36833,6.99929,25.07657,25.07657,0,0,0,5.34212,10.51651q3.61058,4.02754,10.02267,4.18983a19.204,19.204,0,0,0,8.37966-1.80762,24.3142,24.3142,0,0,0,6.73665-4.76442,32.47653,32.47653,0,0,0,5.1744-6.819,52.94287,52.94287,0,0,0,3.696-7.80507q-.49383,13.80174-1.39454,27.11122-.90846,13.30791-2.63068,23.659a81.57108,81.57108,0,0,1-4.35444,16.84163q-2.62757,6.48974-6.572,6.65435-5.912.32846-8.70888-2.87449a17.03617,17.03617,0,0,1-3.696-8.54427,46.4,46.4,0,0,1-.24537-12.158q.65224-6.82051,1.643-13.88483c.1056-.6569-.54974-.98612-1.97223-.98612a22.83708,22.83708,0,0,0-5.01289.65845,26.47525,26.47525,0,0,0-5.339,1.80607q-2.46453,1.1484-2.79219,2.46451-.16771.82229-.41,4.02677a46.39531,46.39531,0,0,0,.16151,7.63891,66.92108,66.92108,0,0,0,1.56226,9.28348,27.76867,27.76867,0,0,0,3.77985,8.87349,21.6325,21.6325,0,0,0,6.90127,6.65435,19.11088,19.11088,0,0,0,10.678,2.46452,36.99268,36.99268,0,0,0,8.1343-.98612,23.97113,23.97113,0,0,0,8.37966-3.7783,26.44807,26.44807,0,0,0,7.23049-7.96969,38.48947,38.48947,0,0,0,4.68056-13.55561q1.80762-10.02345,2.876-22.75522,1.06687-12.73722,1.56226-26.20741.48918-13.471.65534-26.372.163-12.8956.08386-23.24906-.08852-10.35189-.24847-16.84163-.16307-6.48739-.16461-7.14663.163-1.1484-1.96913-2.54682a19.1271,19.1271,0,0,0-4.76753-2.21759,21.80609,21.80609,0,0,0-4.929-.98612c-1.5343-.10871-2.29835.16461-2.29835.8215q-.16772,2.79529-.24847,7.96814-.08385,5.17594-.08075,11.9949v15.11632q0,8.29735-.16461,17.1693-.6569,3.45219-1.80762,8.79119a93.95115,93.95115,0,0,1-2.876,10.43265,38.81391,38.81391,0,0,1-4.27058,8.9558q-2.54838,3.86217-5.99746,4.35289-5.09675.82461-7.64046-3.12141-2.54838-3.94368-3.36677-10.76187a92.09764,92.09764,0,0,1-.41308-15.36323q.41-8.53962,1.06842-17.1693.6569-8.62581,1.06842-16.34935a68.82519,68.82519,0,0,0-.24536-12.48719,4.21282,4.21282,0,0,0-2.2176-4.43519,13.11387,13.11387,0,0,0-5.58748-1.72532,21.36286,21.36286,0,0,0-5.66823.24536q-2.63223.49385-2.46607,1.48.32611,3.12141.65845,6.982.32611,3.86217.49383,8.62658-.16772,5.58825-.90381,13.22639-.74075,7.64046-1.233,15.85551c-.13491,2.24614-.20072,4.47674-.25274,6.704-.18208.56935-.36708,1.14549-.56721,1.75793q-1.4815,4.52139-3.36988,9.6127a71.52982,71.52982,0,0,1-4.27059,9.44653,28.30183,28.30183,0,0,1-5.25825,7.06588,7.17755,7.17755,0,0,1-6.16206,2.21759q-1.80764-.16073-2.13685-3.94291a70.23881,70.23881,0,0,1,0-9.69345q.33078-5.91671,1.06842-13.4733.74076-7.55661,1.06843-15.36324.32611-7.80118,0-15.28092a54.047,54.047,0,0,0-2.13685-13.391,23.65793,23.65793,0,0,0-5.339-9.61114,13.2049,13.2049,0,0,0-9.61269-3.86217,17.76124,17.76124,0,0,0-9.28348,2.05454,25.95243,25.95243,0,0,0-7.14662,5.83284,36.40746,36.40746,0,0,0-5.25826,8.05044,75.52169,75.52169,0,0,0-3.61524,8.8735,71.712,71.712,0,0,0-1.55915-9.6127,27.40215,27.40215,0,0,0-3.04066-7.80352,15.90282,15.90282,0,0,0-5.00978-5.25825,14.20418,14.20418,0,0,0-7.31124-2.13685,17.365,17.365,0,0,0-8.62814,1.80763,25.34746,25.34746,0,0,0-6.90126,5.17594,35.06243,35.06243,0,0,0-5.25825,7.22894,56.93766,56.93766,0,0,0-3.696,8.1343l.49384-15.44554a4.50365,4.50365,0,0,0-2.35737-4.43675,12.861,12.861,0,0,0-5.52846-1.72376,19.54211,19.54211,0,0,0-5.44772.24536q-2.44122.49383-2.2766,1.4784.65688,4.43752.98456,8.052.32145,3.61524.48762,9.03656.16306,5.42286,0,14.04789-.163,8.62581-.64913,22.92139h.16462q-.33078,12.65336-.65845,20.70224Q523.61681,456.48311,523.6137,456.97461Z"/><path class="cls-1" d="M279.67482,462.14124a49.69656,49.69656,0,0,0-8.56912-2.46451q-4.07181-.74775-7.07208-1.17868a37.68491,37.68491,0,0,0-6.85468-.21276,424.25946,424.25946,0,0,1,2.57167,65.45331,561.03615,561.03615,0,0,1-5.46635,59.88446,474.82823,474.82823,0,0,1-10.38917,51.52809q-6.21953,23.46182-12.53533,40.3873-6.322,16.92782-11.5694,26.46054-5.25048,9.53194-7.392,9.74935-4.50042.42628-8.46352-8.785-3.96465-9.21048-7.49759-24.96039-3.53606-15.74914-6.53477-36.4242-3.005-20.67351-5.35765-42.95742-2.35735-22.2808-4.0687-44.56471-1.7191-22.28081-2.57167-41.35168-.85722-19.06622-.85722-33.20962,0-14.13951,1.07153-20.35438,0-.64291-4.17741.32146-4.179.96438-9.21514,2.35736-5.03619,1.39533-9.10333,2.67883c-2.71765.85567-4.00348,1.35882-3.85751,1.49858q-.64291-.42628-.75162,6.74908-.10714,7.18156.21431,19.71146.32145,12.53455,1.28583,29.35367.96438,16.82067,2.68037,35.77973,1.70979,18.9614,4.06871,39.10147,2.35736,20.1424,5.78625,39.20862,3.42423,19.0732,7.7119,35.99559a192.17015,192.17015,0,0,0,9.74935,29.45926q5.4648,12.53455,12.10672,19.81862,6.63416,7.28173,14.56658,7.07053,8.78652-.21663,16.82144-7.71345,8.03179-7.50069,14.99518-20.03292a198.77019,198.77019,0,0,0,12.96394-29.245q5.9959-16.71118,10.92649-35.567,4.929-18.84958,8.67782-38.67286,3.74569-19.81395,6.32047-38.78,2.57166-18.9614,3.9631-35.994,1.393-17.035,1.39454-29.99658a127.50391,127.50391,0,0,0-1.39454-20.99575Q282.45924,463.21122,279.67482,462.14124Z"/><path class="cls-1" d="M882.144,643.29321a7.79637,7.79637,0,0,0-1.92565-.42861c-.71746-.06988-1.39454-.13977-2.03746-.21431-.64291-.06988-1.03736-.10715-1.17712-.10715-.146,0-.53732,1.14607-1.18024,3.42889q-.96438,3.4289-2.56856,8.56912-1.60729,5.14333-3.7519,11.14234-2.14306,6.00057-4.49732,11.14079a51.93155,51.93155,0,0,1-4.82032,8.57068q-2.46918,3.4289-4.82343,3.213-.85722,0-1.06842-6.74908-.219-6.74829,0-16.71118.20964-9.96288.63981-21.74737.42861-11.77981.96593-22.17442.53111-10.39151.96282-17.57.42861-7.17459.64292-8.03491a7.24776,7.24776,0,0,0-1.71445-6.10616,13.10383,13.10383,0,0,0-5.14023-3.32019,26.17236,26.17236,0,0,0-6.00056-1.393,18.10693,18.10693,0,0,0-4.283-.10716q-.43326.21665-.85722,3.32174-.43327,3.10743-.85722,8.462a33.65142,33.65142,0,0,0-2.25177-4.49887,22.303,22.303,0,0,0-3.42578-4.39171,21.15564,21.15564,0,0,0-4.50042-3.42889,11.352,11.352,0,0,0-5.67755-1.393q-1.50014,0-4.82032.32146a29.565,29.565,0,0,0-7.715,2.03591,33.18629,33.18629,0,0,0-9.10333,5.67754,37.90771,37.90771,0,0,0-8.57223,11.03519,75.23211,75.23211,0,0,0-6.53477,18.10417q-2.67882,11.03674-2.89157,27.10346c-.02873,2.49422.00311,4.856.0693,7.14294-.19586.64253-.38959,1.27865-.6004,1.962q-1.8216,5.89573-4.39172,12.53377a115.744,115.744,0,0,1-5.572,12.31947,33.65366,33.65366,0,0,1-6.85467,9.21359q-3.8575,3.53605-8.14362,2.89313-2.35736-.212-2.78286-5.14334a91.19022,91.19022,0,0,1,0-12.64093q.42395-7.71267,1.39143-17.5684.96438-9.85341,1.39143-20.03292.42861-10.17253,0-19.92577a70.52447,70.52447,0,0,0-2.78286-17.46126A30.90266,30.90266,0,0,0,747.9203,587.802q-4.61223-4.82188-12.53533-5.03619a22.63531,22.63531,0,0,0-11.24949,2.35737,33.03591,33.03591,0,0,0-8.99773,6.74907,45.49818,45.49818,0,0,0-6.85468,9.4279,73.56339,73.56339,0,0,0-4.82032,10.605l.63981-20.14007a5.855,5.855,0,0,0-3.10588-5.7847,17.06647,17.06647,0,0,0-7.28329-2.25021,25.94616,25.94616,0,0,0-7.17769.32146c-2.14305.42861-3.14,1.07153-3.00028,1.92875q.85257,5.78393,1.28584,10.49787.42861,4.717.64292,11.78526.20964,7.06975,0,18.31848-.18432,9.6685-.68563,24.80879c-.31951.99679-.65573,2.03183-1.02882,3.15033q-1.71911,5.14333-3.7488,11.14234a118.37015,118.37015,0,0,1-4.39171,11.14079,51.93155,51.93155,0,0,1-4.82032,8.57068q-2.46918,3.4289-4.82344,3.213-1.07152,0-1.28272-6.74908-.219-6.74829,0-16.71118.20964-9.96288.74851-21.74737.5311-11.77981,1.07153-22.17442.53111-10.39151.96282-17.57.42863-7.17459.64292-8.03491a7.81985,7.81985,0,0,0-1.92875-6.10616,13.2288,13.2288,0,0,0-5.03463-3.32019,24.41908,24.41908,0,0,0-5.89185-1.393,18.10693,18.10693,0,0,0-4.283-.10716q-.64292.21665-1.28584,7.17769-.64292,6.96494-1.28583,17.56841-.64291,10.60579-1.28583,23.0332c-.37,7.1509-.64467,13.88677-.85334,20.34467-.17626.5643-.35077,1.12336-.5381,1.7226q-1.6073,5.14333-3.7519,11.14234-2.143,6.00057-4.39171,11.14079a47.15043,47.15043,0,0,1-4.71162,8.57068q-2.46918,3.4289-4.83586,3.213-.65223,0-.97835-6.32046-.32612-6.31737-.323-17.03265,0-10.71061.21741-24.74609.21431-14.03237.54353-29.46082.32147-15.42535.86654-31.28086.54042-15.854.97214-29.995,5.57194.2143,10.60658.3199c2.58584.05746,4.86788.11181,6.98939.166-.00174.127-.026.24187-.026.3698a19.74061,19.74061,0,0,0,3.9631,12.42662q3.96466,5.14334,9.535,5.14334,5.5673,0,9.42635-5.14334a21.94443,21.94443,0,0,0,0-24.85325q-3.85751-5.141-9.42635-5.14178a11.36151,11.36151,0,0,0-8.63978,4.17469l-.038.00272q-4.39328.32145-10.06927.75007-5.67909.43326-12.10671.85722.64292-18.209,1.07153-30.20934.42861-11.99645.64291-12.85523a5.48228,5.48228,0,0,0-2.91952-5.7847,17.33327,17.33327,0,0,0-7.35783-2.25021,28.44142,28.44142,0,0,0-7.47275.32146q-3.46151.64292-3.24564,1.92875.20964,2.35969.42861,7.07053.20964,4.71473.3199,11.248.11182,6.53865,0,14.67683-.10715,8.14362-.10559,17.3541-6.63882.64291-12.64093,1.07153-5.9959.43093-10.49788.85722-5.353.43093-9.85806.64292a3.89158,3.89158,0,0,0-2.24865.85567,7.61705,7.61705,0,0,0-1.92876,2.0359,6.77011,6.77011,0,0,0-.96282,2.25021c-.14287.71591.14287,1.07153.85722,1.07153q7.50071-.42861,17.13825-.32146,9.64376.10949,19.92732.53577-.2143,13.92985-.53732,29.03065-.32145,15.10622-.74851,29.67512-.43327,14.57278-.74852,27.852c-.192,7.93668-.38416,15.02255-.57614,21.35195-1.1453,3.61427-2.468,7.40519-4.02677,11.42905a115.748,115.748,0,0,1-5.572,12.31947,33.65388,33.65388,0,0,1-6.85468,9.21359q-3.85751,3.53605-8.14361,2.89313-2.35737-.212-2.78287-5.14334a91.19022,91.19022,0,0,1,0-12.64093q.42395-7.71267,1.39143-17.5684.96438-9.85341,1.39144-20.03292.42861-10.17253,0-19.92577a70.524,70.524,0,0,0-2.78287-17.46126,30.90253,30.90253,0,0,0-6.96338-12.53377q-4.61223-4.82188-12.53533-5.03619a22.63532,22.63532,0,0,0-11.2495,2.35737,33.03606,33.03606,0,0,0-8.99773,6.74907,45.49854,45.49854,0,0,0-6.85468,9.4279,73.56447,73.56447,0,0,0-4.82032,10.605l.63981-20.14007a5.855,5.855,0,0,0-3.10588-5.7847,17.06647,17.06647,0,0,0-7.28329-2.25021,25.94606,25.94606,0,0,0-7.17768.32146c-2.14306.42861-3.14,1.07153-3.00028,1.92875q.85256,5.78393,1.28583,10.49787.42861,4.717.64292,11.78526.20964,7.06975,0,18.31848c-.11511,6.04093-.32476,13.70877-.62506,22.94682-.03416.14034-.06386.26341-.09861.40628a87.13573,87.13573,0,0,1-3.32019,10.39228q-2.14772,5.57195-5.03773,11.35509a63.35667,63.35667,0,0,1-6.64037,10.605,35.41508,35.41508,0,0,1-8.46352,7.92775,21.37123,21.37123,0,0,1-10.28357,3.53449q-1.92874.43327-6.00056-2.24865-4.07181-2.6765-7.069-10.82089a44.94554,44.94554,0,0,0,9.212-1.28428,26.91789,26.91789,0,0,0,11.4638-6.10616q5.67444-4.82187,10.28356-14.03391,4.60292-9.2105,6.10616-25.28186a88.97017,88.97017,0,0,0-.3199-16.71274,65.57522,65.57522,0,0,0-4.07181-17.13979,35.35274,35.35274,0,0,0-8.56912-13.06954q-5.4648-5.14333-14.03547-4.28612a20.91079,20.91079,0,0,0-12.97015,5.57195,42.43059,42.43059,0,0,0-8.90145,12.31947,75.09425,75.09425,0,0,0-5.68376,16.06827,153.24877,153.24877,0,0,0-3.00339,16.71274q-.96436,8.03412-1.17713,14.461c-.00427.1287-.00718.23372-.01125.36028q-1.28031,4.16091-2.56041,8.639a127.16376,127.16376,0,0,1-5.99746,16.71273,40.087,40.087,0,0,1-8.35481,12.53378,14.22138,14.22138,0,0,1-12.21543,3.9631q-4.929-.42628-7.81749-6.21331a50.21453,50.21453,0,0,1-4.28612-14.46253,127.2573,127.2573,0,0,1-1.50014-18.85424q-.11181-10.17253.31991-19.60431a60.012,60.012,0,0,0,8.03491-6.96338,70.23772,70.23772,0,0,0,9.535-12.53378,141.43638,141.43638,0,0,0,9.74935-19.28285,164.62855,164.62855,0,0,0,8.46352-27.21061q1.49549-6.21021,3.00028-14.89114,1.49548-8.67705,2.35426-17.67556a122.4842,122.4842,0,0,0,.42861-17.67556,52.63622,52.63622,0,0,0-2.67727-14.99829,17.90874,17.90874,0,0,0-7.069-9.42634q-4.82187-3.10511-12.74963-1.393-6.85779,1.50014-12.21232,9.212a86.60266,86.60266,0,0,0-9.535,18.74864,183.39514,183.39514,0,0,0-7.17769,24.21033q-3.00027,13.17515-4.92592,25.60332-1.92876,12.42739-3.00028,22.81734-1.07619,10.39616-1.50014,15.96267-1.92177,26.68716-.22518,45.281c-.357,1.17965-.73823,2.42317-1.16315,3.78257q-1.6073,5.14333-3.7519,11.14234-2.14306,6.00057-4.49731,11.14079a51.93225,51.93225,0,0,1-4.82033,8.57068q-2.46918,3.4289-4.82343,3.213-.85722,0-1.06842-6.74908-.219-6.74829,0-16.71118.20964-9.96288.63981-21.74737.42861-11.77981.96593-22.17442.53111-10.39151.96282-17.57.42861-7.17459.64292-8.03491a7.24773,7.24773,0,0,0-1.71445-6.10616,13.10383,13.10383,0,0,0-5.14023-3.32019,26.17236,26.17236,0,0,0-6.00056-1.393,18.10693,18.10693,0,0,0-4.283-.10716q-.43326.21665-.85722,3.32174-.43328,3.10743-.85722,8.462a33.65249,33.65249,0,0,0-2.25176-4.49887,22.3034,22.3034,0,0,0-3.42579-4.39171,21.15539,21.15539,0,0,0-4.50042-3.42889,11.352,11.352,0,0,0-5.67755-1.393q-1.50014,0-4.82032.32146a29.5648,29.5648,0,0,0-7.715,2.03591,33.18618,33.18618,0,0,0-9.10334,5.67754,37.90752,37.90752,0,0,0-8.57222,11.03519,75.23125,75.23125,0,0,0-6.53477,18.10417q-2.67882,11.03674-2.89158,27.10346-.21431,18.63993,3.10588,29.56642,3.32173,10.92726,8.03491,16.60558,4.71008,5.67911,9.64065,7.4976a30.43262,30.43262,0,0,0,7.92931,2.0359,21.95069,21.95069,0,0,0,4.0687.10715,21.09825,21.09825,0,0,0,6.32047-1.393,27.27738,27.27738,0,0,0,7.17768-4.07026,26.793,26.793,0,0,0,6.64348-7.92776q.64292,2.35969,1.50014,4.71318a15.42954,15.42954,0,0,0,2.35736,4.28611,12.67691,12.67691,0,0,0,3.42579,3.10588,8.86655,8.86655,0,0,0,4.71472,1.17868q5.14334.21663,9.855-3.9631a45.74634,45.74634,0,0,0,8.57222-10.49943,97.87131,97.87131,0,0,0,6.96339-13.92676c1.12083-2.74579,2.11724-5.36754,3.02978-7.90563a96.09322,96.09322,0,0,0,3.71619,14.6547q4.06714,11.57019,9.96055,16.92705a20.63422,20.63422,0,0,0,12.74964,5.7847q9.63909.64291,16.17542-4.28456a43.26556,43.26556,0,0,0,11.35509-13.391,108.76951,108.76951,0,0,0,7.27358-15.93646c.11628.60914.20208,1.15791.33272,1.79539a64.68507,64.68507,0,0,0,3.3264,10.92648,44.58154,44.58154,0,0,0,5.68376,10.28512,27.1104,27.1104,0,0,0,8.57843,7.4976,21.77938,21.77938,0,0,0,12.21853,2.46451,28.17056,28.17056,0,0,0,14.461-4.82032,51.377,51.377,0,0,0,11.5725-10.71374,75.49963,75.49963,0,0,0,8.67473-13.71245c.7159-1.4522,1.31631-2.82752,1.95728-4.23-.16073,5.2171-.32087,9.82118-.482,13.76507q-.42861,10.501-.42861,11.14079a5.517,5.517,0,0,0,2.786,5.7847,16.45909,16.45909,0,0,0,7.28329,2.25021,27.54981,27.54981,0,0,0,7.392-.32146q3.32173-.64292,3.10588-1.92875a195.47059,195.47059,0,0,1-1.497-23.78172q-.219-14.78244.2143-34.28115.85257-3.21225,2.24866-10.49787,1.38833-7.28174,3.6432-14.89114a60.3824,60.3824,0,0,1,5.78314-13.6053q3.53606-5.9959,8.46352-6.85623,6.42918-.85257,9.53505,3.10743,3.10278,3.967,4.283,11.14079a91.85848,91.85848,0,0,1,.96593,16.71274q-.21431,9.53427-.85722,19.60431-.64292,10.07237-.85723,20.03292a115.49779,115.49779,0,0,0,.85723,17.88987,33.93654,33.93654,0,0,0,4.1774,13.06954,11.6955,11.6955,0,0,0,9.32075,5.7847,20.68741,20.68741,0,0,0,12.96083-2.46452,40.34449,40.34449,0,0,0,10.71529-8.89058,60.21824,60.21824,0,0,0,7.63211-11.2953c-.02057,1.41162-.032,2.34532-.032,2.72463a25.01505,25.01505,0,0,0,.75163,5.57039,29.10964,29.10964,0,0,0,2.14927,6.10616A15.36236,15.36236,0,0,0,614.265,700.606a9.1354,9.1354,0,0,0,6.17759,2.14306A13.84514,13.84514,0,0,0,630.487,698.786a49.36443,49.36443,0,0,0,8.59087-10.49943A90.11765,90.11765,0,0,0,645.593,675.581a77.68063,77.68063,0,0,0,.01961,8.31386,47.17153,47.17153,0,0,0,.96282,5.14178,31.922,31.922,0,0,0,2.14306,6.21331,16.35426,16.35426,0,0,0,3.8575,5.24894,8.71054,8.71054,0,0,0,6.10616,2.25021q5.14333.21663,9.855-3.9631a45.74637,45.74637,0,0,0,8.57223-10.49943,97.87235,97.87235,0,0,0,6.96338-13.92676c.08949-.21916.15724-.41658.24537-.63438-.11783,3.58361-.23566,6.844-.35407,9.74082q-.42863,10.501-.42862,11.14079a5.517,5.517,0,0,0,2.786,5.7847,16.45905,16.45905,0,0,0,7.28329,2.25021,27.54981,27.54981,0,0,0,7.392-.32146q3.32174-.64292,3.10588-1.92875a195.47231,195.47231,0,0,1-1.497-23.78172q-.219-14.78244.21431-34.28115.85257-3.21225,2.24866-10.49787,1.38833-7.28174,3.64319-14.89114a60.38287,60.38287,0,0,1,5.78315-13.6053q3.536-5.9959,8.46352-6.85623,6.42917-.85257,9.535,3.10743,3.10278,3.967,4.283,11.14079a91.85848,91.85848,0,0,1,.96593,16.71274q-.2143,9.53427-.85723,19.60431-.64292,10.07237-.85722,20.03292a115.49912,115.49912,0,0,0,.85722,17.88987,33.9367,33.9367,0,0,0,4.17741,13.06954,11.69548,11.69548,0,0,0,9.32075,5.7847,20.68742,20.68742,0,0,0,12.96083-2.46452,40.34429,40.34429,0,0,0,10.71528-8.89058,60.76552,60.76552,0,0,0,8.35482-12.64093c1.08123-2.16246,2.06619-4.30494,2.99679-6.43654.2638,1.12.54469,2.20245.8545,3.222q3.32173,10.92726,8.03491,16.60558,4.71006,5.67911,9.64065,7.4976a30.43262,30.43262,0,0,0,7.92931,2.0359,21.95069,21.95069,0,0,0,4.0687.10715,21.09825,21.09825,0,0,0,6.32047-1.393,27.27738,27.27738,0,0,0,7.17768-4.07026,26.793,26.793,0,0,0,6.64348-7.92776q.64292,2.35969,1.50014,4.71318a15.42954,15.42954,0,0,0,2.35736,4.28611,12.67691,12.67691,0,0,0,3.42579,3.10588,8.86655,8.86655,0,0,0,4.71472,1.17868q5.14333.21663,9.855-3.9631a45.74634,45.74634,0,0,0,8.57222-10.49943,97.87131,97.87131,0,0,0,6.96339-13.92676q3.10276-7.60086,5.14023-14.13952,2.03589-6.534,3.21458-11.03519,1.174-4.49808,1.17713-4.92747Q883.00121,643.61466,882.144,643.29321ZM401.26068,610.40505q.53111-4.28377.96283-6.21331,1.28583-6.85313,2.89468-16.81833,1.60263-9.9629,3.32018-21.21161,1.70979-11.24871,3.6432-22.49744,1.9241-11.24638,4.283-20.46a116.87218,116.87218,0,0,1,4.929-15.4269q2.57166-6.21254,5.35453-7.28484,3.21459-1.0692,4.71473,4.28456A56.86617,56.86617,0,0,1,432.863,519.454a179.77754,179.77754,0,0,1-1.50014,21.53306,191.52269,191.52269,0,0,1-4.71473,24.63894,194.29279,194.29279,0,0,1-6.42606,21.10445,127.46018,127.46018,0,0,1-6.96338,15.63965,86.20814,86.20814,0,0,1-6.85779,10.928,53.3673,53.3673,0,0,1-6.10616,6.96338Q400.72337,614.69194,401.26068,610.40505Zm-58.70422,16.28413q-.53577,8.57223-.85723,17.03264-.32145,8.46741-.64291,16.06982-.3168,7.60785-.31991,13.17669-.85722,3.00261-2.03435,6.32047a31.49774,31.49774,0,0,1-3.00028,6.21331,17.84289,17.84289,0,0,1-4.606,4.92748,11.30405,11.30405,0,0,1-6.85778,2.0359q-5.7816.2143-8.99773-5.46479a44.12959,44.12959,0,0,1-4.71473-13.60375,108.85318,108.85318,0,0,1-1.82-15.85552,93.42308,93.42308,0,0,1,.1056-12.21232q.21431-2.99795.75162-8.14206.5311-5.141,1.50014-11.14079.96438-5.99589,2.57167-12.10516a65.45865,65.45865,0,0,1,3.9631-11.14234,28.39945,28.39945,0,0,1,5.46324-8.14051,9.85676,9.85676,0,0,1,7.17769-3.10744,7.74943,7.74943,0,0,1,4.49731,1.71445,20.33416,20.33416,0,0,1,4.28612,4.28456,23.05024,23.05024,0,0,1,3.10588,5.67755,13.67112,13.67112,0,0,1,.96592,5.89185c0,1.14607.13977,1.57468.42862,1.28583Q343.08912,618.11774,342.55646,626.68918Zm118.16318,40.28015a82.17965,82.17965,0,0,1-.22052-10.49943q0-4.71006.54042-11.24794.54044-6.534,1.407-13.71246.86187-7.1769,2.04677-14.14106a119.45588,119.45588,0,0,1,2.81082-12.64093,61.5124,61.5124,0,0,1,3.34814-9.31919q1.72377-3.64087,3.88856-4.07181,6.909-1.28584,10.36121,9.53505,3.45219,10.8201,2.37911,34.17243-.86189,14.5728-3.88856,22.71175-3.02358,8.14595-6.91058,12.10516a15.95681,15.95681,0,0,1-7.88273,4.82033,23.23822,23.23822,0,0,1-6.58446.64291A59.70848,59.70848,0,0,1,460.71964,666.96933Zm376.10957-40.28015q-.53577,8.57223-.85723,17.03264-.32145,8.46741-.64291,16.06982-.3168,7.60785-.31991,13.17669-.85722,3.00261-2.03435,6.32047a31.49774,31.49774,0,0,1-3.00028,6.21331,17.84289,17.84289,0,0,1-4.606,4.92748,11.30405,11.30405,0,0,1-6.85778,2.0359q-5.7816.2143-8.99773-5.46479a44.12959,44.12959,0,0,1-4.71473-13.60375,108.85318,108.85318,0,0,1-1.82-15.85552,93.42308,93.42308,0,0,1,.1056-12.21232q.2143-2.99795.75162-8.14206.53111-5.141,1.50014-11.14079.96438-5.99589,2.57167-12.10516a65.45865,65.45865,0,0,1,3.9631-11.14234,28.39945,28.39945,0,0,1,5.46324-8.14051,9.85676,9.85676,0,0,1,7.17769-3.10744,7.74943,7.74943,0,0,1,4.49731,1.71445,20.33416,20.33416,0,0,1,4.28612,4.28456,23.04988,23.04988,0,0,1,3.10587,5.67755,13.671,13.671,0,0,1,.96593,5.89185c0,1.14607.13977,1.57468.42861,1.28583Q837.36187,618.11774,836.82921,626.68918Z"/><path class="cls-1" d="M539.52175,199.65035c1.9844-.63713,3.70884-1.14852,5.40446-1.74219,9.589-3.35726,16.37006-.14805,16.61893,9.93152.194,7.86063-2.41909,15.87955-5.74795,22.87277-4.6878,9.84805-11.4939,18.81855-18.24617,27.50177-3.76788,4.84536-4.75873,8.7738.014,12.6232,7.32713,5.90966,14.85534,11.63245,22.71849,16.79431,5.781,3.795,10.10556-.93283,13.3452-4.65893,3.91016-4.49742,7.5923-5.07,12.98272-3.2358,9.58324,3.26089,19.40913,5.80832,29.94539,8.89177-4.309,4.3016-12.87652,8.059-18.6676,12.87459,3.26216,4.01684,12.00848,16.85776,12.96186,19.06725-2.23069.44248-20.99873-.38283-28.176-.91753-11.22066-.83589-13.66606-2.56484-15.59717-13.33993-.9237-5.15424-3.6399-7.66786-8.01625-10.55856-9.86949-6.51916-18.72345-14.56455-28.12059-21.82062-1.71-1.32042-4.9762-3.18556-5.93116-2.51857-7.61073,5.31571-15.15579,4.61423-23.34646-.44746-1.30753,4.02053-4.00284,11.06637-4.205,14.04929-.12379,1.82588,2.37613,2.00955,3.90772,2.73541,5.11486,2.42394,7.20962,3.41662,5.47082,7.81545-1.21542,3.07465-4.62755,7.4226-6.751,10.00076-5.01607,6.09044-10.153,12.10248-15.6037,17.79938-1.41522,1.47916-4.56021,2.75473-6.18624,2.15609-1.50369-.5536-2.9112-3.7687-2.85134-5.76643.31138-10.3811,1.18776-20.74371,1.69881-31.12106.27309-5.54447,2.0879-8.38717,7.984-5.45924,3.87668,1.92508,5.676.30289,6.90285-3.47423,3.96-12.19117,3.73471-11.98536-5.71828-20.56828a279.48137,279.48137,0,0,1-21.6149-22.20118,27.43678,27.43678,0,0,1-6.21836-21.57186c1.10818-9.0295,8.97945-13.59168,16.56309-8.88224,7.42057,4.60817,6.496,2.99623,10.4979.50506,3.82068-2.37838,8.64584,1.072,11.72317,5.688,5.96553,8.94829,4.354,20.05764,5.27543,29.84791.46419,4.93174-.47109,10.19724-.32515,15.16692.16283,5.54667,6.79032,11.3555,12.2828,10.9379,5.87837-.447,8.247-4.51844,5.3-9.70678-6.98234-12.293-10.56945-25.46154-10.00673-39.55534a52.74578,52.74578,0,0,1,2.80778-15.20538C517.67778,189.722,528.87277,187.77718,539.52175,199.65035Zm-10.93229,58.57018c10.08332-12.57168,19.76555-23.498,24.51459-37.73309,1.792-5.37153,2.82712-12.06757-2.60272-14.44136-5.95721-2.60433-13.977,12.53125-15.56823,14.50376-.71491-.36107-1.559-9.58151-2.34351-13.62144-.55473-2.85661-3.26625-6.64191-5.33473-7.09956-2.30874-.5108-5.8646,1.44084-7.21771,3.76518a32.39366,32.39366,0,0,0-3.75289,12.76017C514.76575,231.2818,519.00021,244.67519,528.58946,258.22053Zm-33.37794,0c3.61464-16.87212,2.27136-41.71059-7.83988-42.95618-3.07733,0-2.923,7.75151-3.53985,12.71264a32.43193,32.43193,0,0,1-5.106-6.33816c-1.25176-1.818-2.48184-3.89759-3.76656-5.68043-1.07432-1.49093-2.97711-3.325-4.46672-3.28493-1.23579.03323-4.00278,1.272-4.36913,5.66821a19.14033,19.14033,0,0,0,3.7684,13.53869C476.69,240.61732,486.48718,249.30911,495.21152,258.22053Zm96.36812,45.24827q-1.1803.8945-2.36069,1.789,3.54116,4.38574,7.08232,8.7715l2.31192-1.85252Q595.09637,307.82279,591.57964,303.4688Z"/><path class="cls-1" d="M276.0501,307.93681c-2.23664-3.9009-5.33067-6.83206-9.75018-8.06073-7.69827-2.14033-15.84918,2.87348-18.57995,9.82872a53.49657,53.49657,0,0,0-1.70094,6.45586c-.46223-.55635-.9121-1.12354-1.38978-1.6663-2.58449-2.93671-5.602-5.068-9.72266-4.952a5.20992,5.20992,0,0,0-4.304,1.81631,4.25569,4.25569,0,0,0-1.01756.66447c-1.30473,1.53875-2.568,3.11287-3.83933,4.67987a3.93015,3.93015,0,0,0-.40612.62476c-3.48182,6.514-2.46074,12.77539,1.19471,18.80659,2.58112,4.25855,6.49666,7.091,10.74387,9.508,4.96324,2.82454,10.355,4.68479,15.56313,6.96175,3.46711,1.51584,6.77518,3.39352,10.179,5.05929a1.71282,1.71282,0,0,0,1.4004.05178c1.2058-.75261,2.61919-1.34911,3.00546-2.95887a4.76281,4.76281,0,0,1,.29143-.68689c1.82024-4.3637,3.64685-8.7247,5.44447-13.09769a3.44451,3.44451,0,0,0,.06792-1.09016,3.6295,3.6295,0,0,0,.68018-.81773,67.48256,67.48256,0,0,0,4.51425-14.07643C279.47814,319.04749,279.123,313.29638,276.0501,307.93681Zm-34.07539,7.15234c-1.57913-.624-2.956-1.27449-4.3982-1.70779-1.44307-.43358-2.95147-.65006-4.39714-.95448C235.26931,311.15646,239.39946,312.33551,241.97471,315.08915Zm-11.92136.77265c.65159-1.103,2.27844-1.12138,3.8735-.88482a7.37547,7.37547,0,0,0-4.93366,7.61631A8.6989,8.6989,0,0,1,230.05335,315.8618Zm-3.83816,5.87269c.38646,9.58445,5.8688,16.21135,12.79351,22.00685C229.3261,339.33348,223.74731,329.7737,226.21519,321.73449Zm5.94836,10.99707a21.54427,21.54427,0,0,1-3.27647-9.04712,3.3379,3.3379,0,0,1,.11707-.91969,18.75281,18.75281,0,0,0,3.18781,8.52641c1.651,2.557,3.55959,4.94775,5.36044,7.40759a7.29748,7.29748,0,0,1,.65082.91958A27.80484,27.80484,0,0,1,232.16355,332.73156ZM263.3744,353.6478a5.57415,5.57415,0,0,1-.31324.60022,67.94844,67.94844,0,0,1-6.90322-3.54108,130.8346,130.8346,0,0,1-11.50741-8.26081c-5.27088-4.36116-9.724-9.48715-12.29313-15.96254a15.53645,15.53645,0,0,1-1.01519-4.645,4.19866,4.19866,0,0,1,3.61542-4.5679,20.29369,20.29369,0,0,1,3.48922-.0752c.30356-.00384.60706-.01491.91058-.02266,1.58193.873,3.21634,1.66527,4.72807,2.64654a28.99934,28.99934,0,0,1,2.92525,2.4672c.57023,1.39443,1.086,2.8145,1.726,4.17614.64046,1.36284,1.38005,2.682,2.13881,3.98381a1.12635,1.12635,0,0,0,.87463.38113c.13543-.0021.2835-.47.39-.74073a9.67258,9.67258,0,0,0,.38268-1.15073c.06661-.26226.177-.60553.069-.80483-.61624-1.13679-1.29218-2.2413-1.94786-3.35674a3.10123,3.10123,0,0,0,.0555-.77759c-1.10458-6.0333,1.07132-10.76867,5.88721-14.30512A13.29467,13.29467,0,0,1,267.67,307.17865a1.52592,1.52592,0,0,1,.70775.29706c1.07938,1.0231,2.16076,2.047,3.18645,3.1231,1.45055,1.5219,1.333,3.47869,1.24812,5.34541a80.24891,80.24891,0,0,1-2.87794,16.12922c-.3419,1.3425-.74352,2.66979-1.08733,4.01185a2.89763,2.89763,0,0,0,.027.81477c-.28485.7077-.61514,1.40092-.84733,2.12551C266.46524,343.89622,264.92522,348.77372,263.3744,353.6478Zm-10.32251-44.25359a10.72784,10.72784,0,0,1,5.274-3.4865C256.62657,307.03106,254.92726,308.15441,253.05189,309.39421ZM274.949,324.758a44.80292,44.80292,0,0,1-3.05064,12.89959c-.14863.39323-.23251.81093-.34645,1.21726q-.79089,1.58113-1.58181,3.16217l-.19305-.06467c.24069-.90044.511-1.79449.70786-2.7044a5.78252,5.78252,0,0,0,.01174-1.20818,4.81625,4.81625,0,0,0,.60727-1.13214c1.202-5.29109,2.373-10.58923,3.55474-15.88488.02187-.09769.08114-.187.37461-.27774C275.0084,322.09618,275.03675,323.4309,274.949,324.758Zm.30874-12.15611a18.97781,18.97781,0,0,1-.81128-1.85407,8.15493,8.15493,0,0,0-4.40018-5.08086c-2.14533-1.0014-4.19809-2.25316-6.63144-2.48734a13.60748,13.60748,0,0,0-11.71293,4.44071c-.09384.0989-.189.19664-.28359.29495a12.71762,12.71762,0,0,1,6.92037-5.57028c5.88054-1.9523,11.33872.00813,14.8326,5.114a17.935,17.935,0,0,1,2.886,6.84C275.79025,313.73347,275.5173,313.17074,275.25773,312.60185Z"/><path class="cls-1" d="M229.06753,367.52326c-5.00715-5.1228-10.94933-8.40768-18.25578-8.53765-12.72706-.22658-23.29522,10.76076-24.7291,22.57769-.41951,3.4578-.06769,7.01072-.04511,10.63553-.935-.67342-1.85532-1.36849-2.80875-2.01478-5.15858-3.49691-10.66329-5.57882-16.97189-3.75428-2.50612.72473-4.79443,1.89978-5.91227,4.51988a6.77991,6.77991,0,0,0-1.30395,1.43112c-1.39768,2.8941-2.71728,5.82619-4.05217,8.75054a6.26058,6.26058,0,0,0-.37681,1.12569c-2.76838,11.43637,1.30678,20.685,9.35275,28.52655,5.68124,5.53682,12.851,8.34148,20.36624,10.37288,8.7823,2.374,17.84039,3.08972,26.78169,4.52144,5.95234.95318,11.80391,2.52789,17.71847,3.73758a2.72862,2.72862,0,0,0,2.18038-.47939c1.559-1.64221,3.50058-3.12657,3.45345-5.76339a7.58624,7.58624,0,0,1,.17514-1.17572c1.06458-7.45663,2.14005-14.91164,3.166-22.37356a5.48784,5.48784,0,0,0-.3306-1.70837,5.78182,5.78182,0,0,0,.72242-1.53273c1.10606-7.798,1.95648-15.61462,1.3406-23.5115C238.79125,383.28928,235.947,374.56168,229.06753,367.52326Zm-49.69507,24.63816c-2.6845-.33165-5.06773-.78507-7.46492-.87738-2.39866-.0924-4.81137.17612-7.16247.284C167.46085,388.77414,174.30126,388.94313,179.37246,392.16142Zm-18.07665,5.95229c.5644-1.96132,3.066-2.63928,5.6204-2.91143-4.86775,3.68755-6.10472,8.28368-4.56722,13.71615A13.858,13.858,0,0,1,161.29581,398.11371Zm-3.574,10.58963c4.42349,14.62689,15.52479,22.65761,28.51852,28.83014C169.54749,434.60232,157.12621,422.087,157.72179,408.70334Zm13.5652,14.58434a34.32185,34.32185,0,0,1-8.6659-12.6441,5.31771,5.31771,0,0,1-.18672-1.4651,29.87463,29.87463,0,0,0,8.32121,11.87645c3.56724,3.28409,7.46548,6.209,11.22509,9.28339a11.6269,11.6269,0,0,1,1.37093,1.15827A44.2946,44.2946,0,0,1,171.287,423.28768ZM227.77332,443.081a8.8788,8.8788,0,0,1-.24338,1.05076c-4.06322-.88218-8.20107-1.38542-12.06029-2.70433a208.42849,208.42849,0,0,1-21.04571-8.14448c-9.87038-4.62093-18.78507-10.74793-25.33307-19.70837a24.75083,24.75083,0,0,1-3.42058-6.75811,6.68877,6.68877,0,0,1,3.75158-8.48844,32.32812,32.32812,0,0,1,5.35106-1.50936c.46662-.12715.93026-.26543,1.39525-.39859,2.7883.71465,5.62527,1.28377,8.34854,2.1934a46.19448,46.19448,0,0,1,5.4966,2.63675c1.43627,1.92278,2.79879,3.90685,4.32964,5.75119,1.532,1.846,3.19935,3.58507,4.88939,5.28974a1.79441,1.79441,0,0,0,1.50107.2385c.208-.05732.24953-.838.30565-1.2981a15.40625,15.40625,0,0,0,.13064-1.92749c-.002-.43106.03114-1.00453-.215-1.26875-1.40434-1.50708-2.88786-2.94053-4.3445-4.39894a4.93973,4.93973,0,0,0-.22493-1.22135c-4.11284-8.8635-2.6482-17.03535,3.36666-24.41249a21.17936,21.17936,0,0,1,16.08895-8.302,2.43082,2.43082,0,0,1,1.21012.17549c2.07321,1.14678,4.14982,2.29406,6.16137,3.544,2.84479,1.76782,3.44493,4.83254,4.0595,7.74531,1.80978,8.5772,1.96789,17.30066,2.00271,26.02388.00884,2.207-.0805,4.41429-.07478,6.62132a4.61581,4.61581,0,0,0,.367,1.24577c-.15669,1.20517-.38924,2.40616-.458,3.61634C228.64583,426.80777,228.21859,434.94488,227.77332,443.081Zm-33.59178-64.126a17.09025,17.09025,0,0,1,6.74126-7.483C198.75072,373.88305,196.57864,376.2941,194.18154,378.955Zm39.90526,14.94965a71.37393,71.37393,0,0,1,.44663,21.11207c-.07217.6658-.03473,1.34349-.04818,2.01564q-.58832,2.75426-1.1767,5.5084-.16194-.01121-.32354-.02265c.0116-1.48478.07143-2.97153.01168-4.45342a9.21139,9.21139,0,0,0-.46437-1.868,7.67313,7.67313,0,0,0,.48442-1.98851c-.25927-8.63995-.56907-17.27842-.86137-25.91733-.00528-.15939.05046-.3208.46682-.57793C233.11546,389.77594,233.69219,391.823,234.0868,393.90469Zm-4.37832-18.87054a30.23544,30.23544,0,0,1-1.99157-2.53538,12.99132,12.99132,0,0,0-8.815-6.07855c-3.70845-.68766-7.37411-1.79837-11.22037-1.18779a21.67776,21.67776,0,0,0-16.2904,11.526c-.10522.19-.21294.37874-.31956.56813a20.26007,20.26007,0,0,1,8.44819-11.35413c8.28937-5.3592,17.4899-4.5155,24.91718,1.96354a28.57171,28.57171,0,0,1,7.18227,9.39617C230.98164,376.56669,230.336,375.80784,229.70848,375.03415Z"/><path class="cls-1" d="M915.32133,478.76624c2.40114-8.3027,2.31676-16.49429-1.891-24.24235-7.32927-13.4964-25.148-18.05877-38.40675-12.53814-3.87964,1.61548-7.40054,4.09731-11.19268,6.27623.15106-1.382.3336-2.76151.44524-4.14675.60414-7.495-.48309-14.512-6.14952-20.05036-2.25094-2.20019-4.84515-3.904-8.26054-3.51969a8.18012,8.18012,0,0,0-2.27777-.51807c-3.86943.25338-7.73233.61131-11.59618.9486a7.55343,7.55343,0,0,0-1.40587.27369c-13.65265,3.89333-20.93944,13.67064-24.38813,26.78021-2.435,9.25658-1.1166,18.45139,1.21908,27.54922,2.72933,10.63174,7.36361,20.56706,11.17674,30.80547,2.53838,6.81589,4.36433,13.89552,6.611,20.82425a3.29216,3.29216,0,0,0,1.79969,2.00408c2.65106.66038,5.36381,1.81616,8.10409.1989a9.15351,9.15351,0,0,1,1.33848-.51517c8.46142-3.31585,16.92762-6.61928,25.37164-9.9788a6.6207,6.6207,0,0,0,1.597-1.36283,6.9755,6.9755,0,0,0,2.03868-.15288c8.8445-3.47527,17.55651-7.23,25.481-12.57183C904.5506,498.34886,912.02225,490.17355,915.32133,478.76624Zm-55.414-37.52394c-1.24794-3.01555-2.18892-5.78721-3.51731-8.35882-1.32917-2.5732-3.04561-4.94657-4.55671-7.35079C856.38118,426.72274,860.27087,434.00472,859.90731,441.2423Zm-16.997-15.439c2.3947-.57359,4.59385,1.64965,6.39835,4.16961-6.76566-2.918-12.32644-1.48389-17.11564,3.36027A16.72012,16.72012,0,0,1,842.91033,425.80333Zm-13.24269,2.54407c-12.72616,13.3408-14.55681,29.77049-13.31141,47.08217C809.50845,456.16158,815.2625,435.67967,829.66764,428.3474Zm-7.24608,22.91306a41.41048,41.41048,0,0,1,8.12208-16.61585,6.41587,6.41587,0,0,1,1.42715-1.06714,36.04489,36.04489,0,0,0-7.52111,15.79755c-1.32687,5.69775-2.07981,11.52942-3.07218,17.30447a14.03045,14.03045,0,0,1-.40091,2.128A53.44289,53.44289,0,0,1,822.42156,451.26046ZM835.22642,522.332a10.71111,10.71111,0,0,1-1.24786.36923c-1.48971-4.79034-3.42163-9.43374-4.33153-14.26958a251.47649,251.47649,0,0,1-3.96259-26.93763c-1.0173-13.11.11479-26.1122,5.62879-38.31434a29.86282,29.86282,0,0,1,5.06131-7.60932,8.07023,8.07023,0,0,1,11.14229-1.10834c1.80216,1.2706,3.18883,3.13022,4.76622,4.72046.41093.41429.83177.81883,1.248,1.22784.90757,3.35224,1.99685,6.66906,2.661,10.069a55.73709,55.73709,0,0,1,.49989,7.33842c-1.16469,2.65112-2.43758,5.26125-3.46369,7.965-1.02719,2.706-1.86159,5.49047-2.64641,8.27832a2.16506,2.16506,0,0,0,.6421,1.71774c.18386.1843,1.02817-.2363,1.54456-.45093a18.5925,18.5925,0,0,0,2.10128-1.00887c.45136-.25841,1.07313-.56458,1.20417-.98011.74725-2.37043,1.37012-4.78021,2.03517-7.17662a5.96,5.96,0,0,0,1.14852-.96234c6.86009-9.5879,16.31027-12.909,27.63153-10.98043,7.70826,1.31315,14.06209,5.11152,18.282,11.95508a2.93288,2.93288,0,0,1,.53526,1.37481c.02871,2.85843.05892,5.72073-.05732,8.57575-.16454,4.03775-3.02525,6.49-5.71785,8.86707-7.92886,6.99979-16.9933,12.35251-26.1308,17.57564-2.31174,1.32147-4.68226,2.54011-6.99595,3.85835a5.56907,5.56907,0,0,0-1.08968,1.126c-1.35843.55207-2.75758,1.022-4.069,1.66938Q848.42188,515.74783,835.22642,522.332Zm47.35086-73.39433a20.62,20.62,0,0,1,11.86433,2.62821C890.61888,450.71905,886.79616,449.8722,882.57728,448.93769Zm8.03144,50.78376A86.11539,86.11539,0,0,1,868.70946,512.743c-.74191.32009-1.43113.76233-2.14479,1.14785q-3.24141,1.02-6.4827,2.03977-.08454-.17669-.1686-.35314c1.56572-.87063,3.16217-1.69179,4.68243-2.63562a11.11332,11.11332,0,0,0,1.685-1.59815,9.25777,9.25777,0,0,0,2.37569-.67374q13.37493-8.1139,26.69755-16.314c.16419-.10031.36679-.13777.8843.14648C894.36582,496.24684,892.55957,498.06947,890.60872,499.72145ZM907.817,483.90491a36.47792,36.47792,0,0,1,1.47767-3.59834,15.67454,15.67454,0,0,0,1.14052-12.86867c-1.483-4.30224-2.49639-8.81108-5.4243-12.4861-5.57631-6.99932-12.87776-10.33286-21.78653-10.24969-.262.00249-.52423.00162-.78646.00229a24.4446,24.4446,0,0,1,16.94336,2.11862c10.55506,5.51628,15.13967,15.67723,12.75361,27.32712a34.47317,34.47317,0,0,1-5.59433,13.12711C906.965,486.15277,907.37784,485.02372,907.817,483.90491Z"/><path class="cls-1" d="M798.81106,458.6263c-1.14331-5.46446-3.67125-10.11308-8.41774-13.26039-8.26781-5.48239-19.81644-2.69156-25.71073,4.47227a66.41865,66.41865,0,0,0-4.48665,6.96955c-.33218-.83434-.64562-1.67672-1.00126-2.50095-1.92418-4.45956-4.66878-8.1344-9.57867-9.57926-1.95045-.574-3.94649-.76088-5.779.4923a5.28373,5.28373,0,0,0-1.45654.39392c-2.13122,1.31595-4.22706,2.68957-6.3297,4.05171a4.87965,4.87965,0,0,0-.71934.58176c-6.61169,6.35453-7.80976,14.13941-5.809,22.66381,1.41275,6.019,4.94852,10.8665,9.0354,15.35072,4.77585,5.24031,10.42785,9.50657,15.70306,14.19434,3.51174,3.12076,6.69681,6.60769,10.07624,9.88116a2.12652,2.12652,0,0,0,1.63359.59874c1.71263-.42573,3.61042-.58744,4.68447-2.33981a5.91274,5.91274,0,0,1,.60779-.69915q5.73653-6.68026,11.4564-13.37455a4.2768,4.2768,0,0,0,.4987-1.26109,4.50566,4.50566,0,0,0,1.117-.70439,83.78246,83.78246,0,0,0,10.73383-14.88725C798.59332,473.06082,800.38184,466.13409,798.81106,458.6263Zm-42.979-4.63628c-1.625-1.34292-3.00093-2.63959-4.53741-3.70483-1.5374-1.06592-3.23529-1.90057-4.82534-2.815C749.42465,446.7725,753.84856,449.75015,755.83209,453.99Zm-14.37232-3.6642c1.19279-1.05223,3.12067-.44936,4.91317.44228-4.74386.38311-7.48275,2.88478-8.74906,7.09869A10.80015,10.80015,0,0,1,741.45977,450.32582Zm-6.78621,5.46053c-3.22307,11.46485.706,21.39392,6.65728,30.89507C731.59059,477.76,728.67354,464.331,734.67356,455.78635Zm2.80165,15.2679a26.74858,26.74858,0,0,1-.39549-11.93986,4.14437,4.14437,0,0,1,.49129-1.04094,23.2826,23.2826,0,0,0,.49069,11.291c.96773,3.65284,2.30347,7.20837,3.48546,10.80406a9.06108,9.06108,0,0,1,.41542,1.3356A34.52115,34.52115,0,0,1,737.47521,471.05425Zm28.82155,36.67756a6.918,6.918,0,0,1-.60026.58845,84.36421,84.36421,0,0,1-6.79134-6.83107A162.439,162.439,0,0,1,748.48944,487.318c-4.54919-7.17272-7.83927-14.93454-8.38682-23.56638a19.28928,19.28928,0,0,1,.5845-5.8741,5.21286,5.21286,0,0,1,6.02234-4.00546,25.19373,25.19373,0,0,1,4.14863,1.25068c.3599.112.72249.21543,1.08384.3228,1.53266,1.63807,3.15829,3.20092,4.56651,4.93986a36.00292,36.00292,0,0,1,2.50675,4.036c.138,1.86533.20181,3.74.4348,5.59344.233,1.855.59986,3.69645.996,5.5248a1.39846,1.39846,0,0,0,.88638.78577c.1607.04951.51515-.44609.74483-.72488a12.00887,12.00887,0,0,0,.89359-1.21177c.17933-.28409.44143-.647.39041-.92379-.2912-1.57879-.66529-3.14239-1.01125-4.71112a3.84982,3.84982,0,0,0,.364-.8968c1.01193-7.54763,5.39889-12.30345,12.44269-14.63021a16.506,16.506,0,0,1,14.05092,1.28726,1.89443,1.89443,0,0,1,.72161.62244c.88169,1.62234,1.76541,3.24644,2.56337,4.91073,1.12843,2.35377.23845,4.619-.57838,6.79053-2.40526,6.39438-5.95709,12.19269-9.58985,17.93918-.91905,1.45385-1.90278,2.86683-2.82392,4.31943a3.59747,3.59747,0,0,0-.28091.97237c-.608.72624-1.26411,1.41794-1.81642,2.18433Q771.833,499.98026,766.29676,507.73181Zm4.80054-56.21349a13.31916,13.31916,0,0,1,7.56548-2.09193C776.22515,450.1004,773.78751,450.77441,771.0973,451.51832Zm19.95622,26.54624a55.62517,55.62517,0,0,1-8.55394,14.0596c-.32644.40724-.58583.86823-.87635,1.30425q-1.5408,1.56324-3.08159,3.12637l-.2031-.15047c.62985-.97077,1.29221-1.92261,1.874-2.92138a7.17841,7.17841,0,0,0,.47767-1.422,5.97993,5.97993,0,0,0,1.15163-1.10362q5.17556-8.67875,10.29515-17.39086c.06332-.10695.16759-.18965.54893-.18412C792.14549,474.94457,791.66659,476.53137,791.05352,478.06456Zm5.03112-14.23436a23.56361,23.56361,0,0,1-.24613-2.50057,10.12475,10.12475,0,0,0-3.24486-7.68821c-2.1486-2.00594-4.09178-4.27194-6.875-5.48258a16.89448,16.89448,0,0,0-15.53436.74675c-.14876.08074-.29864.15962-.44807.23939a15.78968,15.78968,0,0,1,10.30935-3.92026c7.69269-.04763,13.38465,4.3624,15.54985,11.73222a22.26752,22.26752,0,0,1,.78172,9.184C796.279,465.37075,796.17274,464.60154,796.08464,463.8302Z"/><path class="cls-1" d="M800.70838,346.63748c2.06981-6.72027,2.11617-13.385-1.19794-19.74691-5.77265-11.08177-20.20357-15.04327-31.06661-10.73855-3.17865,1.25967-6.07763,3.22913-9.193,4.94838.14229-1.12213.31015-2.24171.42041-3.367.59667-6.08844-.18925-11.81183-4.721-16.39665-1.80017-1.82138-3.88656-3.24376-6.67026-2.97913a6.65544,6.65544,0,0,0-1.84562-.4534c-3.15121.15179-6.29858.38872-9.44643.60885a6.14557,6.14557,0,0,0-1.14747.20291c-11.16064,2.97542-17.22547,10.82666-20.21491,21.44244-2.11075,7.49575-1.16735,14.99393.60492,22.42751,2.071,8.68689,5.70132,16.834,8.65945,25.21615,1.9692,5.58014,3.35515,11.36482,5.08544,17.03266a2.6785,2.6785,0,0,0,1.43586,1.65552c2.14728.57441,4.33779,1.55269,6.58962.27557a7.44712,7.44712,0,0,1,1.096-.40029c6.92964-2.57854,13.863-5.14692,20.77909-7.76124a5.38651,5.38651,0,0,0,1.31824-1.08619,5.67576,5.67576,0,0,0,1.66055-.09574c7.2435-2.70286,14.38315-5.63488,20.90444-9.869C791.67182,362.41609,797.86454,355.87064,800.70838,346.63748ZM756.15767,315.335c-.97283-2.47058-1.69937-4.73844-2.74387-6.849-1.04511-2.11188-2.40806-4.06663-3.60354-6.0436C753.49312,303.47435,756.555,309.45261,756.15767,315.335Zm-13.60974-12.79772c1.95606-.433,3.71379,1.40643,5.1463,3.48167-5.46267-2.46866-10.00632-1.38015-13.97018,2.49318A13.6033,13.6033,0,0,1,742.54793,302.53732Zm-10.80821,1.8836c-10.53961,10.67365-12.25943,24.013-11.48938,38.11294C714.9504,326.76385,719.91866,310.18326,731.73972,304.42092Zm-6.21613,18.5373a33.69121,33.69121,0,0,1,6.84032-13.40242,5.21961,5.21961,0,0,1,1.17592-.84805,29.32562,29.32562,0,0,0-6.34,12.74521c-1.15935,4.6163-1.85372,9.3496-2.74205,14.03349a11.414,11.414,0,0,1-.356,1.7254A43.48086,43.48086,0,0,1,725.52359,322.95822Zm9.41858,57.99417a8.718,8.718,0,0,1-1.02028.28284c-1.14458-3.91771-2.65094-7.72208-3.32323-11.66866a204.5965,204.5965,0,0,1-2.84527-21.96851c-.64349-10.67887.46-21.2398,5.11673-31.08844a24.296,24.296,0,0,1,4.224-6.11888,6.56587,6.56587,0,0,1,9.07946-.74518,31.734,31.734,0,0,1,3.81089,3.90686c.32846.34278.66512.67777.998,1.01633.69122,2.73968,1.53075,5.4531,2.02332,8.22813a45.34878,45.34878,0,0,1,.30362,5.97659c-.98466,2.14024-2.05676,4.24563-2.92942,6.43066-.87358,2.18679-1.59142,4.44019-2.269,6.697a1.76143,1.76143,0,0,0,.49822,1.40633c.147.15251.8397-.17778,1.26278-.34513a15.12539,15.12539,0,0,0,1.72348-.79118c.37079-.20387.88088-.4442.99331-.78039.64115-1.91777,1.18166-3.86931,1.7563-5.80937a4.84922,4.84922,0,0,0,.94779-.76671c5.71506-7.70314,13.4491-10.27206,22.6315-8.54431a20.79017,20.79017,0,0,1,14.704,9.98173,2.38612,2.38612,0,0,1,.41611,1.12588c-.01677,2.32564-.03238,4.65445-.167,6.97529-.19053,3.28226-2.55205,5.23693-4.77577,7.1328-6.54814,5.58278-13.99691,9.80979-21.50329,13.93036-1.89908,1.04252-3.84453,2.00056-5.74514,3.04042a4.531,4.531,0,0,0-.90223.90067c-1.11279.43-2.25755.79264-3.3334,1.30086Q745.76868,375.78162,734.94217,380.95239Zm39.54875-59.03915a16.77618,16.77618,0,0,1,9.61434,2.30452C781.00749,323.47521,777.90972,322.73266,774.49092,321.91324Zm5.82037,41.42368a70.06214,70.06214,0,0,1-17.99714,10.28517c-.608.25-1.17488.6-1.76084.90363q-2.65108.7842-5.3021,1.56828-.06628-.14492-.13218-.28964c1.28588-.68625,2.59607-1.33182,3.846-2.07825a9.04185,9.04185,0,0,0,1.39312-1.27639,7.532,7.532,0,0,0,1.942-.51471q10.994-6.41263,21.94662-12.89614c.135-.0793.30031-.10692.71729.13157C783.41635,360.56319,781.92143,362.02048,780.31129,363.33692Zm14.22042-12.62465a29.67945,29.67945,0,0,1,1.25256-2.90639,12.75262,12.75262,0,0,0,1.10843-10.45223c-1.146-3.52055-1.907-7.20257-4.2372-10.23318a21.2794,21.2794,0,0,0-17.57873-8.64365c-.21319-.00165-.42647-.006-.6398-.00917a19.88782,19.88782,0,0,1,13.75313,1.96128c8.50875,4.6355,12.09553,12.96546,9.991,22.40877a28.04671,28.04671,0,0,1-4.73509,10.59994C793.80711,352.52887,794.15876,351.61622,794.53171,350.71227Z"/><path class="cls-1" d="M527.5252,749.89293c5.09692-5.514,9.86646-11.31084,15.29778-16.40162,8.3317-7.80939,18.2047-5.22439,22.29544,5.556a24.00109,24.00109,0,0,1-2.78009,22.90835c-7.49521,10.71058-15.97657,20.73472-24.125,30.98228-2.10451,2.64669-4.52246,5.04413-7.11027,7.90274-3.42745-4.587-6.62616-9.14325-10.10848-13.47142-7.42748-9.23155-15.194-18.19626-22.43768-27.56717-3.79718-4.91241-4.52618-10.81387-1.17467-16.29787,4.76976-7.80468,13.54857-8.87021,20.52751-2.75918C521.29037,743.70526,524.43364,746.93654,527.5252,749.89293Z"/><path class="cls-1" d="M346.04835,800.6977q6.47409-12.38666,12.94819-24.77342-.86332-.99091-1.72664-1.98172c-2.24277,1.46081-5.20752,2.43233-6.59142,4.47489-3.96311,5.84977-7.08724,12.2627-10.9554,18.18374-1.56923,2.40235-4.20917,4.10542-6.36188,6.12658q-.99923-.97284-1.99844-1.94587,6.34845-12.34282,12.69692-24.68587-1.19576-.89706-2.39149-1.79422c-11.7984,5.14995-11.47435,21.88016-22.36489,27.89734q-1.15207-.74861-2.30414-1.49732c3.4862-6.90842,6.49658-14.11536,10.59266-20.64117,4.07848-6.49811,3.18605-12.12431-.39326-18.21188-3.5806-6.08975-6.8138-12.38362-10.1994-18.588q.94431-1.0072,1.88851-2.01431c2.02126,1.57651,4.62524,2.77128,5.95482,4.8009,4.036,6.16167,7.37131,12.78373,11.43556,18.92464,1.29319,1.95412,4.01417,2.96323,6.08182,4.40482q1.05544-.92719,2.1111-1.85451-6.58425-12.52549-13.1684-25.0511.72759-.862,1.45495-1.724c2.372,1.85266,5.37482,3.2749,6.99142,5.64325,3.98244,5.83457,7.11319,12.24783,11.04415,18.12194,1.41171,2.10969,4.13431,3.34226,6.25878,4.97515q1.03752-1.039,2.07514-2.07786-6.499-12.38927-12.99827-24.77854.70673-.89379,1.41345-1.78769c2.29817,1.76857,5.95,3.10152,6.6818,5.37438,6.20914,19.287,19.78166,22.99063,38.3679,21.58,21.22682-1.61084,56.44517-.63758,77.78368-.16306,4.62024.10266,9.18127,2.86264,13.76958,4.39863q-.35394,1.513-.70765,3.026c-2.4885.16-4.97678.45594-7.4655.4592-28.46528.03813-70.70079.13829-99.16487-.04562-6.31169-.04074-11.41243.343-14.07963,7.51438-1.81692,4.8851-5.12507,9.27959-8.1524,13.62445-1.625,2.33239-4.06468,4.09716-6.13668,6.118Q347.24334,801.71382,346.04835,800.6977Z"/><path class="cls-1" d="M736.2218,772.50488c-20.21685,7.0969-40.43369,14.19381-62.79217,22.04257,2.31979-7.36675,3.993-12.68019,5.97731-18.98145H580.099c.77141-7.48875,5.39089-8.17771,10.769-8.15946,20.43227.0692,55.4617.02238,75.89419.01923,3.80244-.00055,7.60488,0,12.68161,0-2.23071-6.54982-4.0636-11.93148-6.42282-18.8587,21.96641,7.58109,42.69569,14.73524,63.42486,21.88928Q736.33385,771.48067,736.2218,772.50488Z"/></g></svg>