<svg xmlns="http://www.w3.org/2000/svg" viewBox="0 0 1000 1000"><defs><style>.cls-1{fill:#b94731;}.cls-2{fill:#3d3d3d;}</style></defs><title>Valentines_18</title><g id="Layer_18" data-name="Layer 18"><path class="cls-1" d="M184.78758,593.22912a72.40511,72.40511,0,0,0-2.907,6.7308q-3.51984,8.57-7.64762,21.263-5.96633,18.05409-11.16676,37.78249a357.04539,357.04539,0,0,0-8.71957,42.22123q-2.14461,14.53217-2.907,15.90739-1.53036,2.60371-9.178,2.59952-12.84876,0-19.7326-16.82421-6.27449-15.29523-6.271-39.468L95.45353,588.9469a26.68266,26.68266,0,0,1,4.8189-7.49388q3.44226-3.97895,6.19552-3.97755,12.54058,0,19.42652,14.37842,3.82172,7.80276,8.10743,28.6059,3.67077,17.5887,7.343,21.26016,3.05652-9.47985,5.96492-20.65081,5.96631-22.48584,5.96631-32.12224,0-1.37523,4.436-5.35277,4.43386-3.97894,6.88314-3.97755a30.74246,30.74246,0,0,1,11.32049,1.98738Q184.78549,585.12588,184.78758,593.22912Z"/><path class="cls-1" d="M287.12062,708.26208q0,5.0481-5.81258,8.106a25.87822,25.87822,0,0,1-12.23731,3.06072q-7.49669,0-10.70835-4.43595a14.73836,14.73836,0,0,1-2.44718-8.87191,29.45778,29.45778,0,0,1,.45981-5.66025,2.62385,2.62385,0,0,1,.45841-1.22429,72.12906,72.12906,0,0,0-1.6827-13.30786,76.02945,76.02945,0,0,1-1.6827-14.68589q0-7.03129-2.907-8.489-2.90769-1.45071-12.84806-1.4535-7.19271,0-10.0962,5.0481-2.29556,3.97895-2.29485,12.23731,0,3.21167.45841,10.24994.45911,7.03547.45981,10.55461,0,9.48825-2.907,14.07374-3.8259,5.96632-13.00179,5.96492a21.83024,21.83024,0,0,1-11.24363-2.907q-4.97262-2.90139-4.97123-7.18921-.61215-6.7294-.61214-13.4616,0-3.81962.30607-12.69572.304-8.86771.30607-10.70834,0-42.98013,13.38473-63.4814,13.38335-20.49429,43.0598-20.49708,11.31839,0,20.57534,12.16184,9.25345,12.159,9.25345,33.11733,0,12.38964,2.14251,32.96359Q284.67274,687.30519,287.12062,708.26208Zm-37.018-68.22483v-4.58689a79.66283,79.66283,0,0,1-3.21167-16.36859q-.30818-2.59952-6.88453-7.03548a31.62736,31.62736,0,0,0-7.80136,13.15413q-1.68341,5.81538-3.3654,11.47143v3.3654a67.37654,67.37654,0,0,1,6.80767.30747q2.98315.30607,7.26608.61215,1.98526,0,3.67147-.15374A15.39952,15.39952,0,0,0,250.10262,640.03725Z"/><path class="cls-1" d="M380.73688,710.40319q0,5.20323-13.30926,6.96-13.30787,1.761-49.25531,1.761-7.49669,0-13.92-5.66025-5.50722-4.893-6.11866-9.79152l-3.3654-116.10072q0-1.83643,4.18718-3.8266a17.69228,17.69228,0,0,1,7.38767-1.98738q14.6202,0,19.49221,10.40088,3.50305,7.34574,3.50376,26.00638v41.911q0,5.66444-.61214,13.76907-.61215,8.10882-.61215,10.55461,0,6.73361,2.67779,9.63779,2.675,2.90559,10.78381,2.9042,1.06915,0,7.18921-.61215,6.11726-.608,10.24854-.60935,9.788,0,14.83823,2.59952Q380.73689,701.84155,380.73688,710.40319Z"/><path class="cls-1" d="M476.49286,709.1789q0,4.44015-4.8189,8.95017-4.81749,4.51143-8.489,4.51143a63.031,63.031,0,0,1-11.85576-1.60444,72.10236,72.10236,0,0,0-9.40719-1.60723H412.70539q-3.52193,0-11.16676-4.74063-7.6518-4.742-6.7308-7.49668,0-46.95907-1.6827-74.95562a302.71535,302.71535,0,0,0-3.05932-30.74422q-1.98948-12.08357-1.98878-13.76907,0-5.0481,5.0481-9.94246A22.27468,22.27468,0,0,1,409.34,571.50776q2.90349,0,15.90878,1.53176,18.04781,2.14251,29.67506,4.74063,16.06252,3.67287,16.06252,7.64762,0,6.73359-4.436,9.63779-3.8259,2.44857-11.47282,2.44858a96.97,96.97,0,0,1-12.54339-1.07056q-17.748-2.44857-21.8751-2.44858a20.81714,20.81714,0,0,1-.91822,5.0481,3.63331,3.63331,0,0,0-.45841,1.529q.91823,3.67287,1.68271,14.30295.76308,10.63287.76448,22.87018,26.46268,0,38.9313,2.75326,12.46512,2.75046,12.46652,8.4135,0,6.57846-4.89576,9.17659-4.12989,2.14249-13.46021,2.14111-3.8259,0-14.83822-.61215-11.01442-.608-18.20363-.61214,0,2.6037-.15234,4.13128-.76728,7.34154-.76448,10.70834,0,3.82381.15234,7.80136.15093,3.97895.84135,10.63008.68762,6.65393,14.76136,7.87962,12.99969.30607,26.005.60935Q476.49076,701.83874,476.49286,709.1789Z"/><path class="cls-1" d="M575.61424,593.38286q-2.14461,10.86348-3.82521,27.22787a344.85932,344.85932,0,0,0-1.6813,35.183q1.52616,15.29943,2.14111,23.09939,2.14041,23.55919,2.14111,25.84985,0,7.80276-3.67148,11.62517a10.05173,10.05173,0,0,1-7.64762,3.06072q-14.53425,0-26.15732-24.01621-10.0962-21.11061-20.03866-42.21844a30.95206,30.95206,0,0,0-1.91331,6.5016,39.42611,39.42611,0,0,0-.53527,6.65253v13.30787a125.48085,125.48085,0,0,0,.84135,15.91018q.83855,6.42333,3.5946,9.78873h-1.98737q0,7.65182-2.907,10.86208-2.90769,3.21167-9.6364,3.21166-8.721,0-15.298-8.4135a49.79165,49.79165,0,0,1-4.89437-8.4135q0-2.29344,1.07056-2.29484,1.22219.31026,2.44718.61214a82.19051,82.19051,0,0,1-.61075-8.4135q.608-5.199,1.146-13.4616.53457-8.25977.53667-20.49707-1.53246-10.39809-2.907-20.95549-.4591-6.11725-.45841-30.747,0-15.45038-3.51913-20.34334a10.34424,10.34424,0,0,1-1.835-6.12145,7.48,7.48,0,0,0,2.14111,3.21446,23.9924,23.9924,0,0,0,.76448-2.907,15.6264,15.6264,0,0,0-1.835-3.51914,18.89257,18.89257,0,0,0,6.271-2.907q1.22429-1.2201,2.44858-2.59952,19.27417,0,29.52272,17.74382,4.28082,7.49668,11.47283,33.04186,4.893,17.748,11.62516,17.74382,2.44439,0,3.28853-1.146.83856-1.14882.84135-4.36048-.91821-10.85928-1.6827-23.25033-.76726-12.38965-.76448-22.48725,0-2.59951,3.3654-5.35277a16.80615,16.80615,0,0,1,10.707-3.3654,19.28132,19.28132,0,0,1,12.085,4.12848Q575.61214,588.4871,575.61424,593.38286Zm-31.5115,51.09035q-.61424-.457-1.22429-.91682-.45911-.608-.91682-1.22429A5.43953,5.43953,0,0,1,544.10274,644.47321Z"/><path class="cls-1" d="M663.72259,590.842q0,5.93277-3.05933,8.20945-2.29344,1.67711-6.7308,1.67431h-4.436a18.35908,18.35908,0,0,1-2.524.84135,16.74888,16.74888,0,0,1-4.053.38294,30.03516,30.03516,0,0,1-3.51773-.15373,23.67314,23.67314,0,0,1-3.97755-1.07056l6.57707,103.405q0,9.79431-4.5883,13.31066-2.6037,1.98737-7.649,1.98737-9.63709,0-14.45529-7.87682-4.8175-7.87823-6.11866-20.03867a322.2035,322.2035,0,0,1-1.29976-32.65891V648.68q0-5.11938.15234-10.47635,0-16.52372-2.29485-23.63327a35.5703,35.5703,0,0,0-8.4135-13.53986q-7.64972-7.64343-15.29663-15.449a22.00378,22.00378,0,0,1,4.436-3.3654l-4.436-2.14111a1.90584,1.90584,0,0,1,1.072.30468q.457.31026,1.07055.76588a21.70824,21.70824,0,0,1,6.5002-2.75326,28.06961,28.06961,0,0,1,6.34926-.76588q1.2222,0,4.20675.15374,2.98106.15513,4.8175.15373H628.8457a13.0369,13.0369,0,0,0,4.66656-.84135q2.21588-.83854,3.90067-1.45349a41.4611,41.4611,0,0,1,16.67327,3.1921Q663.7233,583.091,663.72259,590.842Z"/><path class="cls-1" d="M709.61111,713.61485q0,1.99156-3.28853,4.05581a12.64918,12.64918,0,0,1-6.80767,2.06285q-9.027,0-14.53216-3.97475-9.79012-7.03548-10.0962-7.192,0-27.22368-.2292-41.911-.22851-14.68728-.53528-35.26123-.30818-20.56975-.30607-36.17526,0-3.8238,5.58338-8.03056,5.58267-4.20535,11.08988-4.20675,9.178,0,12.39105,3.51914,2.59952,2.75046,2.60092,9.33032,0,1.53036-.15374,5.12357-.153,3.59741-.15234,5.58477V645.6975q0,7.34574,1.07056,24.01621.61005,9.48825,2.14111,29.52272Q709.456,713.61765,709.61111,713.61485Z"/><path class="cls-1" d="M808.73388,593.38286q-2.14459,10.86348-3.8252,27.22787a344.8592,344.8592,0,0,0-1.68131,35.183q1.52618,15.29943,2.14111,23.09939,2.14041,23.55919,2.14111,25.84985,0,7.80276-3.67147,11.62517a10.05174,10.05174,0,0,1-7.64762,3.06072q-14.53425,0-26.15732-24.01621Q759.937,674.302,749.99451,653.19418a30.9526,30.9526,0,0,0-1.9133,6.5016,39.42608,39.42608,0,0,0-.53528,6.65253v13.30787a125.48272,125.48272,0,0,0,.84135,15.91018q.83856,6.42333,3.59461,9.78873h-1.98738q0,7.65182-2.907,10.86208-2.90769,3.21167-9.63639,3.21166-8.721,0-15.298-8.4135a49.79241,49.79241,0,0,1-4.89436-8.4135q0-2.29344,1.07055-2.29484,1.2222.31026,2.44719.61214a82.19051,82.19051,0,0,1-.61075-8.4135q.608-5.199,1.146-13.4616.53458-8.25977.53668-20.49707-1.53246-10.39809-2.907-20.95549-.45911-6.11725-.45841-30.747,0-15.45038-3.51914-20.34334a10.3443,10.3443,0,0,1-1.835-6.12145,7.47986,7.47986,0,0,0,2.14111,3.21446,23.9924,23.9924,0,0,0,.76448-2.907,15.6264,15.6264,0,0,0-1.835-3.51914,18.89241,18.89241,0,0,0,6.271-2.907q1.2243-1.2201,2.44858-2.59952,19.27419,0,29.52273,17.74382,4.28082,7.49668,11.47282,33.04186,4.893,17.748,11.62517,17.74382,2.44439,0,3.28853-1.146.83856-1.14882.84135-4.36048-.91821-10.85928-1.6827-23.25033-.76728-12.38965-.76448-22.48725,0-2.59951,3.3654-5.35277a16.80615,16.80615,0,0,1,10.707-3.3654,19.28134,19.28134,0,0,1,12.085,4.12848Q808.73179,588.4871,808.73388,593.38286Zm-31.51149,51.09035q-.61425-.457-1.22429-.91682-.4591-.608-.91682-1.22429A5.43953,5.43953,0,0,1,777.22239,644.47321Z"/><path class="cls-1" d="M911.06832,708.26208q0,5.0481-5.81258,8.106a25.87819,25.87819,0,0,1-12.23731,3.06072q-7.49668,0-10.70835-4.43595a14.73843,14.73843,0,0,1-2.44718-8.87191,29.45858,29.45858,0,0,1,.45981-5.66025,2.624,2.624,0,0,1,.45841-1.22429,72.12819,72.12819,0,0,0-1.6827-13.30786,76.02945,76.02945,0,0,1-1.6827-14.68589q0-7.03129-2.907-8.489-2.90769-1.45071-12.84806-1.4535-7.19271,0-10.0962,5.0481-2.29554,3.97895-2.29485,12.23731,0,3.21167.45841,10.24994.45912,7.03547.45981,10.55461,0,9.48825-2.907,14.07374-3.8259,5.96632-13.00179,5.96492a21.83018,21.83018,0,0,1-11.24362-2.907q-4.97263-2.90139-4.97124-7.18921-.61214-6.7294-.61214-13.4616,0-3.81962.30607-12.69572.304-8.86771.30607-10.70834,0-42.98013,13.38474-63.4814,13.38333-20.49429,43.05979-20.49708,11.31838,0,20.57534,12.16184,9.25346,12.159,9.25345,33.11733,0,12.38964,2.14251,32.96359Q908.62044,687.30519,911.06832,708.26208Zm-37.018-68.22483v-4.58689a79.6635,79.6635,0,0,1-3.21167-16.36859q-.30816-2.59952-6.88453-7.03548a31.62736,31.62736,0,0,0-7.80136,13.15413q-1.68339,5.81538-3.3654,11.47143v3.3654a67.37654,67.37654,0,0,1,6.80767.30747q2.98316.30607,7.26608.61215,1.98528,0,3.67147-.15374A15.39952,15.39952,0,0,0,874.05032,640.03725Z"/><path class="cls-1" d="M468.52052,284.29189c-1.83768-2.20312-4.33736-5.07855-6.70357-8.05992-6.56785-8.2755-14.33914-12.11711-25.0718-8.14215-12.52289,4.638-21.20573,13.84151-20.4095,25.35492.55889,8.08041,2.017,17.44546,6.58549,23.6514,14.22577,19.3245,30.12363,37.41808,44.5559,54.9939,12.92591-14.16891,25.33534-27.53684,37.45376-41.16347,5.33436-5.99831,11.38424-11.90428,14.73179-18.97739,3.56964-7.54246,6.09836-16.443,5.96344-24.69965-.31622-19.351-18.4268-29.6444-35.48857-20.35539C482.543,271.02875,476.39688,277.82351,468.52052,284.29189Z"/><path class="cls-1" d="M572.14822,317.21435c-.72889-1.86439-1.7472-4.32011-2.65376-6.81642-2.51627-6.92907-6.80953-11.19-14.79127-10.93311-9.31311.29982-17.09463,4.47021-19.114,12.26562-1.41718,5.471-2.52342,11.99109-.87255,17.1084,5.14055,15.93467,11.65987,31.42453,17.32381,46.24762,11.68764-6.518,22.85635-12.62018,33.88968-18.9579,4.85673-2.78982,10.16656-5.36028,13.94617-9.30078a40.33739,40.33739,0,0,0,9.409-15.02683c4.07035-12.876-5.63838-23.69323-18.98382-21.3193C584.36125,311.53827,578.79116,314.67563,572.14822,317.21435Z"/><path class="cls-2" d="M349.351,431.09528a57.289,57.289,0,0,0-13.1164-9.308,94.18961,94.18961,0,0,0-15.51326-6.34507,74.91717,74.91717,0,0,0,26.23139-21.576q10.1549-13.39592,10.1549-32.01323,0-19.17775-10.85929-30.88677-10.86138-11.702-30.32214-11.70623a66.84675,66.84675,0,0,0-23.55081,4.37446,84.58419,84.58419,0,0,0-21.57742,11.846,92.58794,92.58794,0,0,0-17.48806,17.3469,69.79231,69.79231,0,0,0-11.28136,21.154,8.846,8.846,0,0,0-.56462,2.538,8.674,8.674,0,0,0,8.46241,8.461q5.9223,0,8.17871-5.923a53.0224,53.0224,0,0,1,9.59027-17.48667,73.23578,73.23578,0,0,1,14.52656-13.53986,69.06989,69.06989,0,0,1,16.922-8.74333,50.97626,50.97626,0,0,1,16.78228-3.10266q12.1255,0,18.19384,6.62738,6.06066,6.633,6.06415,19.04079a34.55188,34.55188,0,0,1-5.07745,18.61312,51.41021,51.41021,0,0,1-12.97523,14.10449,75.32342,75.32342,0,0,1-17.48667,9.73,86.8986,86.8986,0,0,1-18.61592,5.21861,8.62167,8.62167,0,0,0-6.76993,5.64068,189.85953,189.85953,0,0,1,2.11595-23.2699,100.77173,100.77173,0,0,1,6.62878-23.83173,7.53063,7.53063,0,0,0,.84554-3.385,8.67914,8.67914,0,0,0-8.461-8.46382,7.98374,7.98374,0,0,0-7.89778,5.07885,112.98186,112.98186,0,0,0-8.03895,28.48571,192.39243,192.39243,0,0,0-2.11456,27.35925,178.42856,178.42856,0,0,0,1.54993,25.66816q1.54715,10.44,1.83364,11.28136a7.699,7.699,0,0,0,2.9615,4.93629,8.77268,8.77268,0,0,0,5.50092,1.83364,8.67408,8.67408,0,0,0,8.461-8.461,1.98451,1.98451,0,0,0-.14116-.84694,1.90381,1.90381,0,0,1-.14116-.84414q0-.28092-1.269-8.74613a208.88733,208.88733,0,0,1-1.83364-21.15394q1.97061,5.07744,7.89779,5.64068a122.485,122.485,0,0,1,17.20575,2.11595,86.77006,86.77006,0,0,1,18.89823,5.78323,49.61817,49.61817,0,0,1,15.37211,10.29466,21.2694,21.2694,0,0,1,6.34506,15.653,19.71929,19.71929,0,0,1-4.23051,12.83548,31.20153,31.20153,0,0,1-10.43581,8.31846,52.06975,52.06975,0,0,1-13.39731,4.51422,68.52594,68.52594,0,0,1-13.1164,1.41157,71.01723,71.01723,0,0,1-13.67962-1.41157,44.59879,44.59879,0,0,1-13.25616-4.79374,32.50919,32.50919,0,0,1-10.1535-8.74613,22.54572,22.54572,0,0,1-4.37167-13.25475,9.008,9.008,0,0,0-2.82173-6.06555,7.41359,7.41359,0,0,0-5.923-2.11595,8.9825,8.9825,0,0,0-6.06414,2.82313,7.38087,7.38087,0,0,0-2.11456,5.923q.56182,11.56786,5.923,19.88493a46.68111,46.68111,0,0,0,13.67963,13.81939,61.72911,61.72911,0,0,0,18.47476,8.1787,79.05972,79.05972,0,0,0,20.307,2.68058,84.14968,84.14968,0,0,0,20.16725-2.538,62.94108,62.94108,0,0,0,18.75707-7.89919A44.59953,44.59953,0,0,0,356.543,480.1731q5.35417-8.31427,5.35837-19.88493a38.341,38.341,0,0,0-3.38357-16.5A42.22139,42.22139,0,0,0,349.351,431.09528Z"/><path class="cls-2" d="M434.95342,454.36517a8.66221,8.66221,0,0,0-5.35837,1.69388,7.36332,7.36332,0,0,0-2.82173,4.79374,47.54757,47.54757,0,0,1-3.38357,9.1682,39.92048,39.92048,0,0,1-5.50092,8.461,30.12451,30.12451,0,0,1-7.47432,6.34507,17.73941,17.73941,0,0,1-9.308,2.54082,10.49982,10.49982,0,0,1-7.05085-2.39827,15.07222,15.07222,0,0,1-4.23051-5.78323,29.80552,29.80552,0,0,1-1.97479-7.47432,54.60977,54.60977,0,0,1-.56463-7.47432v-2.25571a9.18546,9.18546,0,0,1,.28231-2.25572,7.64133,7.64133,0,0,0,5.64068,2.25572,51.60921,51.60921,0,0,0,12.26946-1.55133,37.47815,37.47815,0,0,0,11.42391-4.79653,27.55128,27.55128,0,0,0,8.31986-8.17871,21.34959,21.34959,0,0,0,3.24381-11.98854q0-10.71254-7.89779-16.78228a28.866,28.866,0,0,0-18.05129-6.06275,21.34873,21.34873,0,0,0-13.25615,4.51143,38.87853,38.87853,0,0,0-10.15351,11.98854,65.1855,65.1855,0,0,0-6.48761,16.64252,76.82178,76.82178,0,0,0-2.25711,18.47336,62.04043,62.04043,0,0,0,1.69248,14.24425,41.91864,41.91864,0,0,0,5.35976,12.97524,28.79567,28.79567,0,0,0,9.44772,9.308q5.77764,3.53031,14.24425,3.52472,20.86953,0,33.84687-20.58931.84695-1.40877,2.39687-4.23191,1.54713-2.81754,2.82174-5.78044,1.26831-2.96428,2.25571-5.92579a16.25626,16.25626,0,0,0,.9867-4.93349,7.98866,7.98866,0,0,0-2.538-6.06555A8.36434,8.36434,0,0,0,434.95342,454.36517Zm-43.01367-13.39731a56.29114,56.29114,0,0,1,2.82034-5.2186,20.529,20.529,0,0,1,3.52612-4.37167,6.141,6.141,0,0,1,4.23051-1.83364,12.30369,12.30369,0,0,1,6.48762,1.55133,4.8714,4.8714,0,0,1,2.538,4.37166,5.87918,5.87918,0,0,1-2.11456,4.654,17.11158,17.11158,0,0,1-4.93629,2.9629,24.9016,24.9016,0,0,1-5.923,1.55132,40.44261,40.44261,0,0,1-5.35977.42207,8.05053,8.05053,0,0,0-1.55132.14256,14.56685,14.56685,0,0,0-1.55133.42207A31.37326,31.37326,0,0,1,391.93975,440.96786Z"/><path class="cls-2" d="M593.89031,440.96786a77.665,77.665,0,0,0-3.10265-14.52656,32.045,32.045,0,0,0-5.49952-10.577,10.55846,10.55846,0,0,0-8.46242-4.08935,12.44626,12.44626,0,0,0-8.74333,3.385,37.00684,37.00684,0,0,0-6.91109,9.1682,83.23584,83.23584,0,0,0-5.923,13.53707q-2.68338,7.76082-5.78184,16.78228-1.41505,3.95378-2.39687,7.33456-.99159,3.38356-2.11595,6.48762.56182-7.04807,1.41017-14.1045a120.42855,120.42855,0,0,0,.84554-14.384,51.73929,51.73929,0,0,0-.70439-8.461,20.901,20.901,0,0,0-2.67918-7.47431,16.79025,16.79025,0,0,0-5.2186-5.36117,14.98206,14.98206,0,0,0-8.31987-2.11315,14.23874,14.23874,0,0,0-10.01374,4.08935,39.50888,39.50888,0,0,0-7.61547,10.01234,81.37336,81.37336,0,0,0-5.49953,12.41062q-2.262,6.49041-3.66728,10.999a226.32205,226.32205,0,0,1,3.385-23.12734,3.97218,3.97218,0,0,0,.28231-1.69109,8.67648,8.67648,0,0,0-8.46241-8.46381,8.228,8.228,0,0,0-5.35837,1.83364,7.95389,7.95389,0,0,0-2.82034,4.93629A230.88644,230.88644,0,0,0,485.44,476.08374v7.89919a43.234,43.234,0,0,0,.9867,9.308,21.38818,21.38818,0,0,0,3.24381,7.75663,7.41622,7.41622,0,0,0,6.48762,3.24241,9.62122,9.62122,0,0,0,7.47432-3.807,35.7052,35.7052,0,0,0,5.49952-9.02565,89.20383,89.20383,0,0,0,3.80844-10.577q1.54713-5.35417,2.39687-8.74333,1.12366-3.66449,2.82034-8.74613,1.69387-5.07746,3.52612-10.43442,1.83225-5.35417,3.94959-10.1549a42.97286,42.97286,0,0,1,4.37167-7.89639,32.71023,32.71023,0,0,1,.28231,5.64068q0,3.66867-.28231,7.89639-.28511,4.23051-.84694,8.461-.56813,4.80072-.9867,9.308-.42347,4.51561-.42347,8.46381a40.77919,40.77919,0,0,0,.70578,7.47432,23.01092,23.01092,0,0,0,2.39687,6.90969,13.01894,13.01894,0,0,0,4.654,4.9363,13.95563,13.95563,0,0,0,7.47432,1.83364,11.21859,11.21859,0,0,0,8.74473-4.23191,42.53729,42.53729,0,0,0,6.34507-10.01235,87.50086,87.50086,0,0,0,4.51282-11.98854q1.83223-6.20111,2.9615-9.86979,2.2557-6.48621,4.37306-13.11779a89.52757,89.52757,0,0,1,5.21721-12.83268,121.06278,121.06278,0,0,1,2.96149,22.98758q.42348,11.99133.42347,23.55221,0,6.49041-.14115,10.577-.14466,4.09215-.14116,4.37167a8.19728,8.19728,0,0,0,8.1801,8.74333,8.214,8.214,0,0,0,6.06415-2.39827,8.99714,8.99714,0,0,0,2.67918-5.78043c0-.37456.04473-1.9762.14116-4.79654q.13836-4.23051.14116-10.71673v-9.73q0-6.34787-.28232-13.96194Q594.87632,449.00541,593.89031,440.96786Z"/><path class="cls-2" d="M798.67047,536.1959c-15.50383,10.01793-44.29281,14.55-64.09005,1.43113-15.94983-10.56911-38.29505-22.986-60.9818-29.63295.03232-.20073.07844-.40076.10954-.60149q1.83014-11.84458,2.538-22.423.7002-10.57837.70439-17.06459a208.52044,208.52044,0,0,0-1.12786-22.2832,103.43914,103.43914,0,0,0-3.385-18.05129q-1.9769-6.2011-8.17871-6.20531a8.0599,8.0599,0,0,0-5.50092,2.116,8.8925,8.8925,0,0,0-2.9615,5.2186q-.56811,3.95379-2.39687,12.1283a134.55893,134.55893,0,0,1-4.79513,16.35741,68.39986,68.39986,0,0,1-7.05085,14.38681q-4.09215,6.2053-9.1668,6.2053a7.84986,7.84986,0,0,1-8.1801-5.64067A24.58992,24.58992,0,0,1,623.079,466.636q-.28511-2.9643-.28231-5.50092a96.70473,96.70473,0,0,1,2.39686-20.16725,90.67109,90.67109,0,0,1,6.06415-19.038,15.50565,15.50565,0,0,0,.56463-3.385,8.20262,8.20262,0,0,0-8.46242-8.461,7.78489,7.78489,0,0,0-7.61547,5.07605,118.94134,118.94134,0,0,0-7.05085,22.423,110.3764,110.3764,0,0,0-2.82034,23.55221,55.05037,55.05037,0,0,0,1.41017,12.55316,32.23058,32.23058,0,0,0,4.51282,10.71673,23.162,23.162,0,0,0,8.18011,7.47432,25.20777,25.20777,0,0,0,12.41061,2.82034,22.93529,22.93529,0,0,0,16.5-6.34506,56.81447,56.81447,0,0,0,10.85929-14.24425q-.57022,15.51326-2.53943,30.17958-3.10684-.56182-6.2053-.84694c-2.07123-.18448-4.04463-.28231-5.923-.28231q-17.20716,0-27.50041,10.71953c-6.86637,7.14448-8.70123,15.34031-6.98237,26.48994,4.41272,28.62268,50.80525,26.11819,58.035-9.143.47151-2.29921.9853-4.57187,1.5073-6.83335a170.98594,170.98594,0,0,1,47.67341,21.10451c35.30142,22.89813,74.18049,21.467,89.44585,9.30237C822.52282,542.636,814.17448,526.178,798.67047,536.1959Zm-147.52783-5.39366c-5.48414,20.06278-35.18017,11.71566-21.43625-4.79374,3.3668-4.04428,8.60357-5.923,15.37211-5.923a44.4812,44.4812,0,0,1,8.74472.84694C653.2586,523.37265,652.27993,526.64144,651.14264,530.80224Z"/><path class="cls-1" d="M483.31857,783.01185c8.79773-9.51762,17.03036-19.52349,26.40529-28.31061,14.38124-13.4797,31.4229-9.01777,38.48387,9.5901a41.428,41.428,0,0,1-4.79867,39.5418c-12.9374,18.48739-27.577,35.78993-41.64177,53.47811-3.63257,4.56842-7.80615,8.7066-12.27294,13.64082-5.91609-7.9175-11.43732-15.78205-17.44811-23.25284-12.82049-15.93446-26.22621-31.40833-38.72939-47.58334-6.55427-8.47924-7.81259-18.66568-2.02759-28.13154,8.233-13.47156,23.386-15.31075,35.43227-4.76258C472.55671,772.3314,477.98226,777.90886,483.31857,783.01185Z"/><path class="cls-2" d="M320.52655,841.59335q5.90934-11.30614,11.81869-22.61238-.788-.90447-1.576-1.80885c-2.04712,1.33339-4.75325,2.22016-6.01643,4.08454-3.6174,5.33948-6.469,11.193-9.99973,16.59753-1.43234,2.19278-3.842,3.74729-5.80692,5.59213q-.91206-.888-1.82411-1.77612,5.79467-11.26614,11.58933-22.53246-1.09143-.8188-2.18287-1.6377c-10.7692,4.7007-10.47341,19.97149-20.41394,25.46378q-1.05157-.68331-2.10315-1.3667c3.18209-6.30578,5.92987-12.88405,9.66864-18.84059,3.7227-5.93126,2.90812-11.06668-.35895-16.62322-3.26826-5.55852-6.21942-11.30336-9.30969-16.9665q.86193-.91934,1.72377-1.83859c1.84494,1.439,4.22177,2.52953,5.43537,4.38211,3.68393,5.62416,6.72829,11.66856,10.438,17.27379,1.18038,1.78366,3.664,2.70474,5.55128,4.02057q.96337-.84632,1.92695-1.69273-6.0099-11.43286-12.01969-22.86583.66411-.78683,1.328-1.57364c2.16512,1.691,4.906,2.98923,6.38154,5.151,3.635,5.3256,6.49269,11.17941,10.08074,16.54111,1.28856,1.92565,3.77367,3.05071,5.71281,4.54116q.947-.94836,1.89413-1.89661-5.93211-11.30851-11.86441-22.617.64508-.81582,1.29015-1.63175c2.0977,1.6143,5.431,2.831,6.09894,4.90557,5.6675,17.60458,18.056,20.98509,35.021,19.69752,19.37516-1.47033,38.9529-.582,58.43-.14884,4.2172.0937,8.38037,2.61292,12.56842,4.01492q-.32306,1.381-.64591,2.76206c-2.27143.14606-4.54265.41617-6.81427.41914-25.98218.03481-51.96495.12623-77.946-.04164-5.7611-.03719-10.41689.313-12.85143,6.85888-1.65842,4.459-4.678,8.47011-7.44124,12.43595-1.48321,2.12893-3.71011,3.73976-5.60136,5.58431Q321.61729,842.52082,320.52655,841.59335Z"/><path class="cls-2" d="M676.66417,815.85986c-18.45328,6.47782-36.90656,12.95564-57.31465,20.11974,2.11743-6.72413,3.64467-11.57407,5.45589-17.32565H547.48377c.70413-6.83549,4.92064-7.46435,9.82958-7.44769,18.64991.06316,37.30021.02042,55.95032.01755,3.47075-.0005,6.94149,0,11.57536,0-2.03612-5.97846-3.70912-10.89067-5.86254-17.2136,20.05022,6.91977,38.97123,13.44984,57.89214,19.97982Q676.76645,814.925,676.66417,815.85986Z"/><circle class="cls-1" cx="188.63187" cy="497.79393" r="14.31134"/><circle class="cls-1" cx="355.32911" cy="531.92591" r="14.31134"/><circle class="cls-1" cx="729.91855" cy="469.17126" r="14.31134"/><circle class="cls-1" cx="211.84818" cy="445.62184" r="6.66232"/><circle class="cls-1" cx="761.89684" cy="510.95225" r="6.66232"/><circle class="cls-1" cx="710.6054" cy="420.4801" r="6.66232"/><circle class="cls-1" cx="218.5105" cy="525.26359" r="6.66232"/><circle class="cls-1" cx="390.10611" cy="531.92591" r="6.66232"/><circle class="cls-1" cx="768.55916" cy="469.17126" r="6.66232"/><circle class="cls-1" cx="674.94415" cy="399.04571" r="6.66232"/><circle class="cls-1" cx="507.13875" cy="529.22428" r="6.66232"/><circle class="cls-1" cx="533.89144" cy="535.8866" r="6.66232"/><circle class="cls-1" cx="150.30944" cy="535.8866" r="6.66232"/><circle class="cls-1" cx="163.63407" cy="462.50894" r="6.66232"/></g></svg>