<svg xmlns="http://www.w3.org/2000/svg" width="128" height="128" viewBox="0 0 128 128">
  <title>VICE</title>
  <g>
    <g>
      <path d="M35.25,81.127h86a5,5,0,0,1,5,5v11a0,0,0,0,1,0,0h-96a0,0,0,0,1,0,0v-11A5,5,0,0,1,35.25,81.127Z" fill="#57555c"/>
      <rect x="43.5" y="67.627" width="69.5" height="13.5" fill="#e5e5e5"/>
      <polygon points="66.375 30.877 51.313 30.877 36.25 40.885 36.25 67.627 56.367 67.627 56.367 39.243 66.375 39.243 66.375 30.877" fill="#57555c"/>
      <polygon points="90.125 30.877 105.187 30.876 120.25 40.884 120.25 67.626 100.133 67.626 100.133 39.243 90.125 39.243 90.125 30.877" fill="#57555c"/>
      <rect x="56.367" y="58.252" width="43.766" height="9.375" fill="#6e77e5"/>
      <rect x="1.75" y="58.252" width="34.5" height="9.375" fill="#e5e5e5"/>
      <g>
        <path d="M9.25,49.625v8.627h6.625V49.625a7.688,7.688,0,1,0-6.625,0Z" fill="#fedb41"/>
        <path d="M15.875,76.253V67.627H9.25v8.626a7.688,7.688,0,1,0,6.625,0Z" fill="#fedb41"/>
      </g>
      <rect x="43.25" y="47.884" width="6.117" height="12.242" fill="#fedb41"/>
      <rect x="107.133" y="47.884" width="6.117" height="12.242" fill="#fedb41"/>
    </g>
    <g>
      <path d="M71.125,79.377H65.5a1.75,1.75,0,0,0,0,3.5h5.625a1.75,1.75,0,0,0,0-3.5Z"/>
      <path d="M121.25,79.377h-6.5v-10h5.5a1.751,1.751,0,0,0,1.75-1.75V40.884a1.749,1.749,0,0,0-.782-1.457l-7.25-4.817a1.75,1.75,0,1,0-1.936,2.915l6.468,4.3V65.877H101.883V39.244a1.75,1.75,0,0,0-1.75-1.75H91.875V32.627h13.312a1.75,1.75,0,0,0,0-3.5H90.125a1.75,1.75,0,0,0-1.75,1.75v8.367a1.751,1.751,0,0,0,1.75,1.75h8.258V56.5H58.117V40.994h8.258a1.751,1.751,0,0,0,1.75-1.75V30.877a1.75,1.75,0,0,0-1.75-1.75H51.313a1.748,1.748,0,0,0-.969.292L35.282,39.427a1.747,1.747,0,0,0-.782,1.457V56.5H17.625V50.651a9.438,9.438,0,1,0-10.125,0V56.5H1.75A1.75,1.75,0,0,0,0,58.252v9.375a1.751,1.751,0,0,0,1.75,1.75H7.5v5.85a9.438,9.438,0,1,0,10.125,0v-5.85H41.75v10h-6.5a6.757,6.757,0,0,0-6.75,6.75v11a1.75,1.75,0,0,0,1.75,1.75h96a1.75,1.75,0,0,0,1.75-1.75v-11A6.757,6.757,0,0,0,121.25,79.377ZM98.383,60v5.875H58.117V60ZM10.006,48.047a5.938,5.938,0,1,1,5.113,0,1.75,1.75,0,0,0-.994,1.579V56.5H11V49.626A1.75,1.75,0,0,0,10.006,48.047ZM3.5,60h31v5.875H3.5ZM15.119,77.831a5.938,5.938,0,1,1-5.113,0A1.751,1.751,0,0,0,11,76.252V69.377h3.125v6.875A1.751,1.751,0,0,0,15.119,77.831ZM38,41.823l13.841-9.2H64.625v4.867H56.367a1.75,1.75,0,0,0-1.75,1.75V65.877H38Zm86.5,53.55H32V86.127a3.253,3.253,0,0,1,3.25-3.25h17.5a1.75,1.75,0,1,0,0-3.5h-7.5v-10h66v10H83.875a1.75,1.75,0,0,0,0,3.5H121.25a3.253,3.253,0,0,1,3.25,3.25Z"/>
      <path d="M51.117,60.127V47.884a1.751,1.751,0,0,0-1.75-1.75H43.25a1.751,1.751,0,0,0-1.75,1.75V60.127a1.751,1.751,0,0,0,1.75,1.75h6.117A1.751,1.751,0,0,0,51.117,60.127Zm-3.5-1.75H45V49.634h2.617Z"/>
      <path d="M105.383,47.884V60.127a1.75,1.75,0,0,0,1.75,1.75h6.117a1.751,1.751,0,0,0,1.75-1.75V47.884a1.751,1.751,0,0,0-1.75-1.75h-6.117A1.75,1.75,0,0,0,105.383,47.884Zm3.5,1.75H111.5v8.743h-2.617Z"/>
    </g>
  </g>
</svg>
