<svg id="icons" xmlns="http://www.w3.org/2000/svg" viewBox="0 0 64 64"><defs><style>.cls-1{fill:none;stroke:#000;stroke-linecap:round;stroke-linejoin:round;}</style></defs><title>walnut</title><g id="walnut"><path class="cls-1" d="M54.15046,25.38266a7.15239,7.15239,0,0,0-8.5763-7.00611,6.14534,6.14534,0,1,0-11.71238-3.61116A6.43839,6.43839,0,0,0,21.8517,19.33821a7.14612,7.14612,0,0,0-7.08524,11.889A7.14541,7.14541,0,1,0,18.8854,44.6953a7.14576,7.14576,0,1,0,13.3611,4.04407,7.14664,7.14664,0,0,0,12.75016-6.07765,7.14023,7.14023,0,0,0,6.4556-11.69025A7.13138,7.13138,0,0,0,54.15046,25.38266Z"/><path class="cls-1" d="M57.34393,6.65607h0a15.09315,15.09315,0,0,1-11.23574-.4625c-10.125-4.55568-23.29793-1.96813-32.58842,7.32236C1.9021,25.13359.7589,42.8263,10.9663,53.0337s27.9001,9.0642,39.51777-2.55346c9.29049-9.2905,11.878-22.46345,7.32236-32.58843A15.09315,15.09315,0,0,1,57.34393,6.65607Z"/><line class="cls-1" x1="18.8854" y1="44.6953" x2="37.78078" y2="25.79992"/><path class="cls-1" d="M46.36015,33.30085a3.54587,3.54587,0,1,1-.64856-7.062"/><path class="cls-1" d="M39.62767,43.49776a3.54587,3.54587,0,1,1-.64856-7.062"/><path class="cls-1" d="M25.96811,49.5105A3.54587,3.54587,0,1,1,32,45.781"/><path class="cls-1" d="M19.64029,32.56793a3.54587,3.54587,0,1,1-5.15723,4.86783"/><path class="cls-1" d="M26.06551,23.24893a3.54587,3.54587,0,0,1-5.15723,4.86783"/><path class="cls-1" d="M38.42735,19.19446A3.54587,3.54587,0,0,1,31.345,18.8287"/></g></svg>