<svg id="_01-Love_Letter" data-name="01-Love Letter" xmlns="http://www.w3.org/2000/svg" viewBox="0 0 64 64"><path d="M34.11,7.88a6.374,6.374,0,0,1,0,9.06L25,26l-9.11-9.06a6.374,6.374,0,0,1,0-9.06,6.452,6.452,0,0,1,9.11,0A6.452,6.452,0,0,1,34.11,7.88Z" style="fill:#ea5073"/><path d="M34.11,7.88a6.438,6.438,0,0,0-6.552-1.56A6.4,6.4,0,0,1,30.11,16.94L23,24.011,25,26l9.11-9.06A6.374,6.374,0,0,0,34.11,7.88Z" style="fill:#d83a5c"/><path d="M51,5V9H43V5a4,4,0,0,1,4-4S51,1,51,5Z" style="fill:#bec3d1"/><path d="M48.508,1.294A5.062,5.062,0,0,0,47,1a4,4,0,0,0-4,4V9h3V5A4,4,0,0,1,48.508,1.294Z" style="fill:#9196a9"/><path d="M11,1H47a4,4,0,0,0-4,4V29L33,39l-8,8-8-8L7,29V5A4,4,0,0,1,11,1ZM34.11,16.94a6.374,6.374,0,0,0,0-9.06,6.452,6.452,0,0,0-9.11,0,6.452,6.452,0,0,0-9.11,0,6.374,6.374,0,0,0,0,9.06L25,26Z" style="fill:#f2f6fc"/><polygon points="25 44 17 36 7 26 7 29 17 39 25 47 33 39 43 29 43 26 33 36 25 44" style="fill:#cdd2e0"/><path d="M47.83,53.83A4.025,4.025,0,0,0,49,51V49L61.83,61.83A4.025,4.025,0,0,1,59,63H19a4,4,0,0,1-4-4V55H45A4.025,4.025,0,0,0,47.83,53.83Z" style="fill:#b25d74"/><path d="M47.83,55.83A4.025,4.025,0,0,0,49,53V51a3.995,3.995,0,0,1-4,4H15v2H45A4.025,4.025,0,0,0,47.83,55.83Z" style="fill:#aa5169"/><path d="M63,31V59a4.025,4.025,0,0,1-1.17,2.83L49,49V45Z" style="fill:#ce748a"/><polygon points="63 31 49 45 49 31 63 31" style="fill:#dc7d8e"/><polygon points="7 17 7 29 1 23 7 17" style="fill:#b25d74"/><polygon points="1 23 7 29 7 26 2.5 21.5 1 23" style="fill:#aa5169"/><polygon points="49 23 43 29 43 17 49 23" style="fill:#b25d74"/><polygon points="43 26 43 29 49 23 47.5 21.5 43 26" style="fill:#aa5169"/><path d="M17,39,2.17,53.83A4.025,4.025,0,0,1,1,51V23l6,6Z" style="fill:#fc708d"/><path d="M49,49v2a4.025,4.025,0,0,1-1.17,2.83L33,39,43,29l6-6V49Z" style="fill:#fc708d"/><path d="M33,39,47.83,53.83A4.025,4.025,0,0,1,45,55H5a4.025,4.025,0,0,1-2.83-1.17L17,39l8,8Z" style="fill:#fc98b0"/><path d="M59,64H19a5.006,5.006,0,0,1-5-5V55h2v4a3,3,0,0,0,3,3H59a3,3,0,0,0,3-3V31h2V59A5.006,5.006,0,0,1,59,64Z"/><path d="M49.707,45.707l-1.414-1.414L60.586,32H49V30H63a1,1,0,0,1,.707,1.707Z"/><path d="M45,56H5a5.006,5.006,0,0,1-5-5V23H2V51a3,3,0,0,0,3,3H45a3,3,0,0,0,3-3V23h2V51A5.006,5.006,0,0,1,45,56Z"/><path d="M25,48a1,1,0,0,1-.707-.293l-24-24a1,1,0,0,1,0-1.414l6-6,1.414,1.414L2.414,23,25,45.586,47.586,23l-5.293-5.293,1.414-1.414,6,6a1,1,0,0,1,0,1.414l-24,24A1,1,0,0,1,25,48Z"/><rect x="54.5" y="46.308" width="2" height="18.385" transform="translate(-22.989 55.5) rotate(-45)"/><rect x="39.5" y="35.893" width="2" height="21.213" transform="translate(-21.018 42.257) rotate(-45)"/><rect x="-1.107" y="45.5" width="21.213" height="2" transform="translate(-30.098 20.337) rotate(-45)"/><path d="M8,29H6V5a5.006,5.006,0,0,1,5-5H47V2H11A3,3,0,0,0,8,5Z"/><path d="M44,29H42V5a5.006,5.006,0,0,1,5-5,4.821,4.821,0,0,1,5,5V9a1,1,0,0,1-1,1H44ZM44,8h6V5A2.853,2.853,0,0,0,47,2,3,3,0,0,0,44,5Z"/><path d="M25,27a1,1,0,0,1-.7-.291l-9.113-9.062a7.382,7.382,0,0,1,0-10.479A7.487,7.487,0,0,1,25,6.549a7.486,7.486,0,0,1,9.818.619,7.382,7.382,0,0,1,0,10.479l-9.113,9.062A1,1,0,0,1,25,27ZM20.443,7a5.446,5.446,0,0,0-3.851,1.584,5.383,5.383,0,0,0,0,7.643L25,24.59l8.408-8.361a5.383,5.383,0,0,0,0-7.643,5.475,5.475,0,0,0-7.7,0,1,1,0,0,1-1.41,0A5.446,5.446,0,0,0,20.443,7Z"/><rect x="14" y="29" width="2" height="2"/><rect x="18" y="29" width="18" height="2"/><rect x="18" y="33" width="14" height="2"/></svg>