<svg xmlns="http://www.w3.org/2000/svg" viewBox="0 0 64 64"><g id="_11-Wedding_Invitation" data-name="11-Wedding Invitation"><path d="M55,1V63H9V1ZM51,55V9a4,4,0,0,1-4-4H17a4,4,0,0,1-4,4V55a4,4,0,0,1,4,4H47A4,4,0,0,1,51,55Z" style="fill:#99e8fe"/><path d="M51,9V55a4,4,0,0,0-4,4H17a4,4,0,0,0-4-4V9a4,4,0,0,0,4-4H47A4,4,0,0,0,51,9Z" style="fill:#ebebf5"/><rect x="23" y="9" width="18" height="8" rx="2" style="fill:#fbdbe0"/><path d="M39,15H25a2,2,0,0,1-2-2v2a2,2,0,0,0,2,2H39a2,2,0,0,0,2-2V13A2,2,0,0,1,39,15Z" style="fill:#fc98b0"/><path d="M36.142,21.751a3.232,3.232,0,0,0-4.142,0,3.232,3.232,0,0,0-4.142,0,2.342,2.342,0,0,0,0,3.624L32,29l4.142-3.625A2.342,2.342,0,0,0,36.142,21.751Z" style="fill:#fbdbe0"/><path d="M36.142,21.751a3.232,3.232,0,0,0-3.071-.59,2.989,2.989,0,0,1,1.071.59,2.342,2.342,0,0,1,0,3.624L31,28.125,32,29l4.142-3.625A2.342,2.342,0,0,0,36.142,21.751Z" style="fill:#fc98b0"/><path d="M34,44v2a2,2,0,0,1-4,0V44a2.006,2.006,0,0,1,2-2,2.015,2.015,0,0,1,2,2Z" style="fill:#ce748a"/><path d="M41,56l-3-3-2,3c0-3-4-8-4-8a2.006,2.006,0,0,0,2-2,16.2,16.2,0,0,0,5.26,3.3C41,51.37,41,56,41,56Z" style="fill:#b25d74"/><path d="M30,46a2.006,2.006,0,0,0,2,2s-4,5-4,8l-2-3-3,3s0-4.63,1.74-6.7A16.2,16.2,0,0,0,30,46Z" style="fill:#b25d74"/><path d="M46,43a2.938,2.938,0,0,0-3-3c-5,0-9,4-9,4v1H44A1.959,1.959,0,0,0,46,43Z" style="fill:#ea5073"/><path d="M44,45H34v1a16.2,16.2,0,0,0,5.26,3.3A11.049,11.049,0,0,0,43,50a2.938,2.938,0,0,0,3-3A1.959,1.959,0,0,0,44,45Z" style="fill:#d83a5c"/><path d="M20,45a1.959,1.959,0,0,0-2,2,2.938,2.938,0,0,0,3,3,11.049,11.049,0,0,0,3.74-.7A16.2,16.2,0,0,0,30,46V45Z" style="fill:#d83a5c"/><path d="M30,44s-4-4-9-4a2.938,2.938,0,0,0-3,3,1.959,1.959,0,0,0,2,2H30Z" style="fill:#ea5073"/><path d="M55,64H9a1,1,0,0,1-1-1V1A1,1,0,0,1,9,0H55a1,1,0,0,1,1,1V63A1,1,0,0,1,55,64ZM10,62H54V2H10Z"/><path d="M47,60H17a1,1,0,0,1-1-1,3,3,0,0,0-3-3,1,1,0,0,1-1-1V9a1,1,0,0,1,1-1,3,3,0,0,0,3-3,1,1,0,0,1,1-1H47a1,1,0,0,1,1,1,3,3,0,0,0,3,3,1,1,0,0,1,1,1V55a1,1,0,0,1-1,1,3,3,0,0,0-3,3A1,1,0,0,1,47,60ZM17.9,58H46.1A5.013,5.013,0,0,1,50,54.1V9.9A5.013,5.013,0,0,1,46.1,6H17.9A5.013,5.013,0,0,1,14,9.9V54.1A5.013,5.013,0,0,1,17.9,58Z"/><path d="M39,18H25a3,3,0,0,1-3-3V11a3,3,0,0,1,3-3H39a3,3,0,0,1,3,3v4A3,3,0,0,1,39,18ZM25,10a1,1,0,0,0-1,1v4a1,1,0,0,0,1,1H39a1,1,0,0,0,1-1V11a1,1,0,0,0-1-1Z"/><path d="M32,30a1,1,0,0,1-.658-.248L27.2,26.128a3.343,3.343,0,0,1,0-5.13,4.226,4.226,0,0,1,4.8-.467A4.226,4.226,0,0,1,36.8,21h0a3.343,3.343,0,0,1,0,5.13l-4.143,3.624A1,1,0,0,1,32,30Zm-2.071-8a2.148,2.148,0,0,0-1.413.5,1.347,1.347,0,0,0,0,2.12L32,27.671l3.484-3.048a1.347,1.347,0,0,0,0-2.12,2.24,2.24,0,0,0-2.826,0,1,1,0,0,1-1.316,0A2.15,2.15,0,0,0,29.929,22Z"/><rect x="39" y="22" width="2" height="2"/><rect x="43" y="22" width="6" height="2"/><rect x="15" y="22" width="2" height="2"/><rect x="19" y="22" width="6" height="2"/><rect x="39" y="26" width="10" height="2"/><rect x="15" y="26" width="10" height="2"/><rect x="26" y="12" width="2" height="2"/><rect x="30" y="12" width="8" height="2"/><path d="M32,49a3,3,0,0,1-3-3V44a3,3,0,0,1,6,0v2A3,3,0,0,1,32,49Zm0-6a1,1,0,0,0-1,1v2a1,1,0,0,0,2,0V44A1,1,0,0,0,32,43Z"/><path d="M43,51c-5.353,0-9.532-4.118-9.707-4.293l1.413-1.415C34.743,45.329,38.488,49,43,49a1.882,1.882,0,0,0,2-2,.915.915,0,0,0-1-1,1,1,0,0,1,0-2,.918.918,0,0,0,1-1.012A1.881,1.881,0,0,0,42.992,41c-4.5,0-8.249,3.671-8.286,3.708l-1.413-1.415C33.468,43.118,37.647,39,43,39a3.888,3.888,0,0,1,4,4,3.232,3.232,0,0,1-.713,2A3.232,3.232,0,0,1,47,47,3.888,3.888,0,0,1,43,51Z"/><path d="M21,51a3.888,3.888,0,0,1-4-4,3.232,3.232,0,0,1,.713-2A3.232,3.232,0,0,1,17,43a3.888,3.888,0,0,1,4-4c5.353,0,9.532,4.118,9.707,4.293l-1.413,1.415C29.257,44.671,25.512,41,21,41a1.882,1.882,0,0,0-2,2,.915.915,0,0,0,1,1,1,1,0,0,1,0,2,.918.918,0,0,0-1,1.012A1.881,1.881,0,0,0,21.008,49c4.5,0,8.249-3.671,8.286-3.708l1.413,1.415C30.532,46.882,26.353,51,21,51Z"/><path d="M28,57a1,1,0,0,1-.832-.445L25.845,54.57l-2.138,2.137A1,1,0,0,1,22,56c0-.511.056-5.06,1.975-7.344l1.531,1.287a7.57,7.57,0,0,0-1.264,3.4l1.051-1.051a1,1,0,0,1,1.539.152l.708,1.062a26.6,26.6,0,0,1,3.679-6.132l1.562,1.25C31.729,49.94,29,53.831,29,56a1,1,0,0,1-1,1Z"/><path d="M36,57a1,1,0,0,1-1-1c0-2.169-2.729-6.06-3.781-7.375l1.562-1.25a26.6,26.6,0,0,1,3.679,6.132l.708-1.062a1,1,0,0,1,1.539-.152l1.049,1.048a7.578,7.578,0,0,0-1.262-3.4l1.531-1.287C41.944,50.94,42,55.489,42,56a1,1,0,0,1-1.707.707L38.155,54.57l-1.323,1.985A1,1,0,0,1,36,57Z"/><rect x="18" y="31" width="2" height="2"/><rect x="22" y="31" width="24" height="2"/><rect x="18" y="35" width="28" height="2"/></g></svg>