<svg xmlns="http://www.w3.org/2000/svg" viewBox="0 0 64 64"><g id="_10-Wedding_Invitation" data-name="10-Wedding Invitation"><path d="M59,5V9H51V5a4,4,0,0,1,4-4S59,1,59,5Z" style="fill:#bec3d1"/><path d="M56,1.141A4.878,4.878,0,0,0,55,1a4,4,0,0,0-4,4V9h2V5A3.99,3.99,0,0,1,56,1.141Z" style="fill:#9196a9"/><path d="M17,1H55a4,4,0,0,0-4,4V35L40,46l-8,8-8-8L13,35V5A4,4,0,0,1,17,1Z" style="fill:#f2f6fc"/><polygon points="32 51 24 43 13 32 13 35 24 46 32 54 40 46 51 35 51 32 40 43 32 51" style="fill:#cdd2e0"/><polygon points="57 29 51 35 51 23 57 29" style="fill:#b25d74"/><polygon points="51 32 51 35 57 29 55.5 27.5 51 32" style="fill:#aa5169"/><polygon points="13 23 13 35 7 29 13 23" style="fill:#b25d74"/><polygon points="7 29 13 35 13 32 8.5 27.5 7 29" style="fill:#aa5169"/><path d="M24,46,7.59,62.41A1.955,1.955,0,0,1,7,61V29l6,6Z" style="fill:#fc708d"/><path d="M57,29V61a1.955,1.955,0,0,1-.59,1.41L40,46,51,35Z" style="fill:#fc708d"/><path d="M40,46,56.41,62.41A1.955,1.955,0,0,1,55,63H9a1.955,1.955,0,0,1-1.41-.59L24,46l8,8Z" style="fill:#fc98b0"/><path d="M30,27a4,4,0,1,0-4,4A4,4,0,0,0,30,27Zm-4-7a7,7,0,0,1,7,7,.41.41,0,0,1-.01.11,6.906,6.906,0,0,0-1.98,4.78A7,7,0,1,1,26,20Z" style="fill:#897cac"/><path d="M42,32a4,4,0,1,0-4,4A4,4,0,0,0,42,32Zm3,0a7,7,0,0,1-14,0,.41.41,0,0,1,.01-.11,6.906,6.906,0,0,1,1.98-4.78A7,7,0,0,1,45,32Z" style="fill:#aeacd5"/><polygon points="44 19 38 25 38 19 44 19" style="fill:#99e8fe"/><polygon points="32 14 26 20 26 14 32 14" style="fill:#99e8fe"/><polygon points="38 19 38 25 32 19 38 19" style="fill:#2ed0fa"/><polygon points="26 14 26 20 20 14 26 14" style="fill:#2ed0fa"/><polygon points="32 14 26 14 26 11 29 11 32 14" style="fill:#50b9f5"/><polygon points="44 19 38 19 38 16 41 16 44 19" style="fill:#50b9f5"/><polygon points="26 11 26 14 20 14 23 11 26 11" style="fill:#99e8fe"/><polygon points="38 16 38 19 32 19 35 16 38 16" style="fill:#99e8fe"/><path d="M55,64H9a3,3,0,0,1-3-3V29H8V61a1,1,0,0,0,1,1H55a1,1,0,0,0,1-1V29h2V61A3,3,0,0,1,55,64Z"/><path d="M32,55a1,1,0,0,1-.707-.293l-25-25a1,1,0,0,1,0-1.414l6-6,1.414,1.414L8.414,29,32,52.586,55.586,29l-5.293-5.293,1.414-1.414,6,6a1,1,0,0,1,0,1.414l-25,25A1,1,0,0,1,32,55Z"/><rect x="3.479" y="53.5" width="24.042" height="2" transform="translate(-33.997 26.923) rotate(-45)"/><rect x="47.5" y="42.479" width="2" height="24.042" transform="translate(-24.332 50.257) rotate(-45)"/><path d="M14,35H12V5a5.006,5.006,0,0,1,5-5H55V2H17a3,3,0,0,0-3,3Z"/><path d="M52,35H50V5a5.006,5.006,0,0,1,5-5,4.821,4.821,0,0,1,5,5V9a1,1,0,0,1-1,1H52ZM52,8h6V5a2.854,2.854,0,0,0-3.006-3A3,3,0,0,0,52,5Z"/><path d="M26,21a1,1,0,0,1-.707-.293l-6-6a1,1,0,0,1,0-1.414l3-3A1,1,0,0,1,23,10h6a1,1,0,0,1,.707.293l3,3a1,1,0,0,1,0,1.414l-6,6A1,1,0,0,1,26,21Zm-4.586-7L26,18.586,30.586,14l-2-2H23.414Z"/><rect x="20" y="13" width="12" height="2"/><rect x="25" y="11" width="2" height="9"/><path d="M26,35a8,8,0,1,1,8-8,1.4,1.4,0,0,1-.038.347l-.972-.237-.99-.1a6,6,0,1,0-1.706,4.179l1.432,1.4A7.945,7.945,0,0,1,26,35Z"/><path d="M26,32a5,5,0,1,1,5-5A5.006,5.006,0,0,1,26,32Zm0-8a3,3,0,1,0,3,3A3,3,0,0,0,26,24Z"/><path d="M38,26a1,1,0,0,1-.707-.293l-6-6a1,1,0,0,1,0-1.414l3-3A1,1,0,0,1,35,15h6a1,1,0,0,1,.707.293l3,3a1,1,0,0,1,0,1.414l-6,6A1,1,0,0,1,38,26Zm-4.586-7L38,23.586,42.586,19l-2-2H35.414Z"/><rect x="32" y="18" width="12" height="2"/><rect x="37" y="16" width="2" height="9"/><path d="M38,40a8,8,0,1,1,8-8A8.009,8.009,0,0,1,38,40Zm0-14a6,6,0,1,0,6,6A6.006,6.006,0,0,0,38,26Z"/><path d="M38,37a5,5,0,1,1,5-5A5.006,5.006,0,0,1,38,37Zm0-8a3,3,0,1,0,3,3A3,3,0,0,0,38,29Z"/><rect x="38" y="8" width="2" height="5"/><rect x="41.379" y="10.5" width="4.243" height="2" transform="translate(4.609 34.127) rotate(-45)"/><rect x="33.5" y="9.379" width="2" height="4.243" transform="translate(1.973 27.763) rotate(-45)"/></g></svg>