<svg id="Filled_stroke_cut_Ex_Revise" data-name="Filled stroke cut Ex Revise" xmlns="http://www.w3.org/2000/svg" width="512" height="512" viewBox="0 0 512 512">
  <title>werewolf- spooky- character- cosplay- halloween- avatar- horror</title>
  <g>
    <path d="M399.722,72l-10.435-3.478L351.722,24l-16,26.667L255.722,24l-80,26.667L159.722,24,122.156,68.522,111.722,72l.367,1.01C100.073,75.659,77.513,85.253,71.722,120c0,0,45.3-7.55,62.554,14.023L143.722,176V328h224V176l9.446-41.977C394.422,112.45,439.722,120,439.722,120,433.93,85.253,399.722,72,399.722,72Z" style="fill: #f29a49"/>
    <polygon points="168 272 208 240 304 240 344 272 255.722 320 168 272" style="fill: #d76b4c"/>
    <path d="M136.453,261.635l-18.324-12.216C109.1,243.4,94.9,233.97,92.962,223.293L80,152l49.889,20.944A40,40,0,0,1,152,208.721v44.594A10,10,0,0,1,136.453,261.635Z" style="fill: #994635"/>
    <path d="M375.547,261.636l18.324-12.216c9.029-6.019,23.225-15.449,25.167-26.126L432,152l-49.889,20.944A40,40,0,0,0,360,208.722v44.594A10,10,0,0,0,375.547,261.636Z" style="fill: #994635"/>
    <path d="M56,488V428.092a30,30,0,0,1,18.578-27.741L184,352H328l109.422,48.35A30,30,0,0,1,456,428.092V488Z" style="fill: #f29a49"/>
    <path d="M368,264s63.438,40,55.438,80c0,0-40-16-56-8,0,0,32,32,24,64,0,0-39.438-40-63.438-16,0,0,23.438,72-72.562,104H256c-96-32-72-104-72-104-24-24-64,16-64,16-8-32,24-64,24-64-16-8-56,8-56,8-8-40,56-80,56-80l97.116,55.5a30,30,0,0,0,29.768,0Z" style="fill: #994635"/>
    <path d="M224,312l-24,48s-40-48-16-72Z" style="fill: #e6e6e6"/>
    <path d="M288,312l24,48s40-48,16-72Z" style="fill: #e6e6e6"/>
    <ellipse cx="256" cy="240" rx="48" ry="24" style="fill: #994635"/>
    <polygon points="144 168 216 168 240 216 176 208 144 168" style="fill: #e64b30"/>
    <polygon points="368 168 296 168 272 216 336 208 368 168" style="fill: #e64b30"/>
    <polygon points="160 112 216 80 256 112 296 80 352 112 304 120 256 160 208 120 160 112" style="fill: #d76b4c"/>
    <g>
      <path d="M440.568,393l-41.747-18.447c-3.287-13.133-10.239-24.686-16.1-32.692,11.446.819,27.085,5.32,37.741,9.572a8,8,0,0,0,10.815-5.858c6.716-33.58-28.094-65.377-47.218-80l14.342-9.561c10.338-6.891,25.961-17.306,28.5-31.286l12.962-71.293a8,8,0,0,0-10.968-8.808l-49.888,20.945q-.245.1-.482.221l-.04.02,6.318-28.073c12.5-13.245,42.893-11.654,53.874-9.845a8,8,0,0,0,9.207-9.207,66.648,66.648,0,0,0-18.865-36.3l-11.4,11.225a52.981,52.981,0,0,1,11.554,17.294,130.1,130.1,0,0,0-14.465.03c-20.246,1.215-34.887,7.3-43.516,18.091a7.988,7.988,0,0,0-1.556,3.24L363.4,160H296a8,8,0,0,0-7.155,4.422l-22.06,44.12a107.574,107.574,0,0,0-21.57,0l-22.06-44.12A8,8,0,0,0,216,160H148.6l-6.241-27.733a7.988,7.988,0,0,0-1.556-3.24c-14-17.509-41.878-18.945-57.957-18.124,8.7-21.272,30.091-30.626,31.922-31.393l10.2-3.4a8.008,8.008,0,0,0,3.584-2.431L158.9,37.713l10.243,17.07a8,8,0,0,0,9.39,3.474L256,32.433l77.47,25.824a8,8,0,0,0,9.39-3.474L353.1,37.713l30.348,35.968a8.008,8.008,0,0,0,3.584,2.431l10.2,3.4a56.233,56.233,0,0,1,6.688,3.44l8.162-13.762a67.066,67.066,0,0,0-9.19-4.647c-.12-.046-.24-.089-.361-.13l-8.3-2.767-36.115-42.8a8,8,0,0,0-12.974,1.043l-12.7,21.164L258.53,16.411a8.006,8.006,0,0,0-5.06,0L179.559,41.049l-12.7-21.164a8,8,0,0,0-12.974-1.043l-36.115,42.8-8.3,2.767c-.121.041-.241.084-.36.13-1.57.608-38.535,15.346-45,54.145a8,8,0,0,0,9.207,9.206c.4-.066,39.011-5.977,53.873,9.841l6.319,28.077-.04-.02q-.237-.118-.482-.221L83.1,144.624a8,8,0,0,0-10.968,8.808l12.962,71.293c2.542,13.98,18.165,24.4,28.5,31.286l14.288,9.525c-19.289,14.612-54.449,46.423-47.727,80.034a8,8,0,0,0,10.814,5.859c10.658-4.253,26.3-8.755,37.743-9.572-9.706,13.267-22.424,36.28-16.473,60.084a8,8,0,0,0,13.411,3.723,104.026,104.026,0,0,1,21.4-15.756c4.581-2.443,17.591-9.38,27.961-2.917a85.725,85.725,0,0,0,1.274,39.115c6.817,25,24,42.167,43.088,53.895H64V428.092a21.928,21.928,0,0,1,13.623-20.343l.188-.08L99.233,398.2l-6.466-14.634L71.43,393A37.876,37.876,0,0,0,48,428.092V488a8,8,0,0,0,8,8H456a8,8,0,0,0,8-8V428.092A37.875,37.875,0,0,0,440.568,393Zm-55.1-212.782,36.023-15.123-10.322,56.773c-1.327,7.3-14.538,16.1-21.636,20.835L376,251.719v-64.16A32.2,32.2,0,0,1,385.466,180.213ZM300.944,176h50.411l-19.572,24.465-45.942,5.742Zm36.048,39.938A8,8,0,0,0,342.247,213L360,190.807v68.551l-11.081,6.332-37.353-29.882c-1.218-5.81-4.955-11.045-10.614-15.364ZM321.864,329.374a121.076,121.076,0,0,1-8.6,15.27l-15.616-31.23,27.666-15.809C329.376,304.986,328.225,315.641,321.864,329.374ZM186.683,297.605l27.666,15.809L198.73,344.651a121.645,121.645,0,0,1-8.481-15.034C183.786,315.768,182.6,305.031,186.683,297.605Zm-8.661-23.377,26.487-21.189C212.915,264.415,232.293,272,256,272s43.085-7.586,51.491-18.962l26.487,21.189L266.914,312.55a22.087,22.087,0,0,1-21.829,0ZM296,240c0,6.524-15.582,16-40,16s-40-9.476-40-16,15.582-16,40-16S296,233.477,296,240Zm-95.566-4.193L163.081,265.69,152,259.358V190.807L169.753,213a8,8,0,0,0,5.255,2.941l36.04,4.5C205.389,224.763,201.652,230,200.434,235.808ZM211.056,176l15.1,30.207-45.942-5.742L160.645,176Zm-88.587,66.7c-7.1-4.731-20.309-13.539-21.636-20.835L90.511,165.09l36.023,15.123A32.23,32.23,0,0,1,136,187.558v64.161l-13.434-8.955ZM191.59,386.531a8,8,0,0,0-1.933-8.187,33.114,33.114,0,0,0-24.113-9.949c-8.074,0-16.966,2.516-26.337,7.562a106.078,106.078,0,0,0-12.094,7.681c3.034-22.09,22.314-41.749,22.544-41.981a8,8,0,0,0-2.079-12.812c-13.613-6.806-37.6-.8-51.967,3.906,1.93-14.049,12.928-27.939,22.853-37.9a192.825,192.825,0,0,1,25.862-21.45l28.424,16.242c-16.717,29.475,19.426,73.465,21.1,75.479A8,8,0,0,0,200,368a8.174,8.174,0,0,0,.923-.053,8,8,0,0,0,6.233-4.37l21.107-42.213,8.884,5.076a38.146,38.146,0,0,0,37.707,0l8.885-5.077,21.107,42.214a8,8,0,0,0,6.233,4.37A8.187,8.187,0,0,0,312,368a8,8,0,0,0,6.145-2.879c1.678-2.014,37.822-46,21.1-75.479l28.406-16.232a190.442,190.442,0,0,1,25.379,21.22c9.922,10.016,20.917,23.991,22.809,38.126-14.362-4.709-38.365-10.72-51.985-3.912a8.008,8.008,0,0,0-2.087,12.8c.237.238,19.444,19.826,22.535,41.864q-1.278-.94-2.65-1.893c-12.667-8.779-24.481-13.25-35.116-13.288H346.4a32.949,32.949,0,0,0-24.061,10.012,8.049,8.049,0,0,0-1.96,8.1c.826,2.611,19.053,63.632-64.664,93C172.061,450.1,190.753,389.11,191.59,386.531ZM448,480H292.1c19.107-11.721,36.359-28.879,43.329-53.849a85.936,85.936,0,0,0,1.532-39.167,17.134,17.134,0,0,1,9.452-2.653h.052c14.967.036,33.435,15.382,39.281,21.285a8,8,0,0,0,13.457-3.676,51.01,51.01,0,0,0,1.414-9.109l33.577,14.837.188.08A21.928,21.928,0,0,1,448,428.092Z"/>
      <path d="M299.969,73.055a8,8,0,0,0-8.967.7l-35,28-35-28a8,8,0,0,0-8.967-.7l-56,32a8,8,0,0,0,2.654,14.837l45.86,7.643,46.334,38.612a8,8,0,0,0,10.242,0l46.334-38.612,45.86-7.643a8,8,0,0,0,2.654-14.837Zm2.716,39.055a7.993,7.993,0,0,0-3.806,1.745L256,149.587l-42.879-35.732a7.993,7.993,0,0,0-3.806-1.745L183.472,107.8l31.776-18.158L251,118.248a8,8,0,0,0,10,0l35.754-28.6L328.528,107.8Z"/>
    </g>
  </g>
</svg>
