<svg id="icons" xmlns="http://www.w3.org/2000/svg" viewBox="0 0 64 64"><defs><style>.cls-1{fill:none;stroke:#000;stroke-linecap:round;stroke-linejoin:round;}</style></defs><title>wheat</title><g id="wheat"><path class="cls-1" d="M28.56863,35.26272A9.62452,9.62452,0,0,0,16.7749,47.05645,9.6246,9.6246,0,0,0,28.56863,35.26272Z"/><path class="cls-1" d="M16.44788,3.94211a9.62451,9.62451,0,0,0,0,16.67884,9.62459,9.62459,0,0,0,0-16.67884Z"/><path class="cls-1" d="M4.32705,35.26272A9.62452,9.62452,0,0,1,16.12078,47.05645,9.62459,9.62459,0,0,1,4.32705,35.26272Z"/><path class="cls-1" d="M27.34256,25.46074A8.651,8.651,0,0,0,16.74182,36.06149,8.651,8.651,0,0,0,27.34256,25.46074Z"/><path class="cls-1" d="M5.55311,25.46074A8.651,8.651,0,0,1,16.15386,36.06149,8.651,8.651,0,0,1,5.55311,25.46074Z"/><path class="cls-1" d="M26.03514,16.88644a7.6128,7.6128,0,0,0-9.3286,9.3286,7.61286,7.61286,0,0,0,9.3286-9.3286Z"/><path class="cls-1" d="M6.86054,16.88644a7.6128,7.6128,0,0,1,9.3286,9.3286,7.61285,7.61285,0,0,1-9.3286-9.3286Z"/><line class="cls-1" x1="16.44784" y1="60.05789" x2="16.44784" y2="11.14204"/><path class="cls-1" d="M7.39679,41.15958s2.02725,3.0602,4.23129,3.50917"/><path class="cls-1" d="M35.43137,35.26272A9.62452,9.62452,0,0,1,47.2251,47.05645,9.6246,9.6246,0,0,1,35.43137,35.26272Z"/><path class="cls-1" d="M47.55212,3.94211a9.62451,9.62451,0,0,1,0,16.67884,9.62459,9.62459,0,0,1,0-16.67884Z"/><path class="cls-1" d="M59.673,35.26272A9.62452,9.62452,0,0,0,47.87922,47.05645,9.62459,9.62459,0,0,0,59.673,35.26272Z"/><path class="cls-1" d="M36.65744,25.46074A8.651,8.651,0,0,1,47.25818,36.06149,8.651,8.651,0,0,1,36.65744,25.46074Z"/><path class="cls-1" d="M58.44689,25.46074A8.651,8.651,0,0,0,47.84614,36.06149,8.651,8.651,0,0,0,58.44689,25.46074Z"/><path class="cls-1" d="M37.96486,16.88644a7.6128,7.6128,0,0,1,9.3286,9.3286,7.61286,7.61286,0,0,1-9.3286-9.3286Z"/><path class="cls-1" d="M57.13946,16.88644a7.6128,7.6128,0,0,0-9.3286,9.3286,7.61285,7.61285,0,0,0,9.3286-9.3286Z"/><line class="cls-1" x1="47.55216" y1="60.05789" x2="47.55216" y2="11.14204"/><path class="cls-1" d="M56.60321,41.15958s-2.02725,3.0602-4.23129,3.50917"/></g></svg>