<svg xmlns="http://www.w3.org/2000/svg" width="128" height="128" viewBox="0 0 128 128">
  <title>WINDOW</title>
  <g>
    <g>
      <path d="M13.25,106.5h101.5a5,5,0,0,1,5,5v14.755a0,0,0,0,1,0,0H8.25a0,0,0,0,1,0,0V111.5A5,5,0,0,1,13.25,106.5Z" fill="#57555c"/>
      <path d="M30.25,1.747h67.5a9,9,0,0,1,9,9V106.5a0,0,0,0,1,0,0H21.25a0,0,0,0,1,0,0V10.747a9,9,0,0,1,9-9Z" fill="#896748"/>
      <g>
        <path d="M60,51.969V9.747H30.25a1,1,0,0,0-1,1V51.969Z" fill="#e5e5e5"/>
        <path d="M68,51.969H98.75V10.747a1,1,0,0,0-1-1H68Z" fill="#e5e5e5"/>
        <rect x="68" y="59.969" width="30.75" height="38.529" fill="#e5e5e5"/>
        <rect x="29.25" y="59.969" width="30.75" height="38.529" fill="#e5e5e5"/>
      </g>
      <path d="M109.656,118.126H18.344a1.75,1.75,0,1,1,0-3.5h91.312a1.75,1.75,0,0,1,0,3.5Z" fill="#3c3a41"/>
    </g>
    <g>
      <path d="M114.75,104.748H108.5v-94A10.762,10.762,0,0,0,97.75,0H30.25A10.762,10.762,0,0,0,19.5,10.747v94H13.25A6.757,6.757,0,0,0,6.5,111.5v14.755A1.75,1.75,0,0,0,8.25,128H24.875a1.75,1.75,0,0,0,0-3.5H10v-13a3.254,3.254,0,0,1,3.25-3.25h101.5A3.254,3.254,0,0,1,118,111.5v13H36.625a1.75,1.75,0,0,0,0,3.5H119.75a1.75,1.75,0,0,0,1.75-1.75V111.5A6.757,6.757,0,0,0,114.75,104.748Zm-91.75,0v-94A7.258,7.258,0,0,1,30.25,3.5h67.5a7.258,7.258,0,0,1,7.25,7.25v94Z"/>
      <path d="M60,8H30.25a2.753,2.753,0,0,0-2.75,2.75V51.969a1.75,1.75,0,0,0,1.75,1.75H60a1.75,1.75,0,0,0,1.75-1.75V9.747A1.75,1.75,0,0,0,60,8ZM58.25,50.219H31V11.5H58.25Z"/>
      <path d="M97.75,8H68a1.75,1.75,0,0,0-1.75,1.75V51.969A1.75,1.75,0,0,0,68,53.719H98.75a1.75,1.75,0,0,0,1.75-1.75V10.747A2.753,2.753,0,0,0,97.75,8ZM97,50.219H69.75V11.5H97Z"/>
      <path d="M98.75,58.219H68a1.749,1.749,0,0,0-1.75,1.75V68.25a1.75,1.75,0,0,0,3.5,0V61.719H97V96.748H69.75V93.375a1.75,1.75,0,0,0-3.5,0V98.5a1.75,1.75,0,0,0,1.75,1.75H98.75a1.75,1.75,0,0,0,1.75-1.75V59.969A1.749,1.749,0,0,0,98.75,58.219Z"/>
      <path d="M68,84.25a1.75,1.75,0,0,0,1.75-1.75V79.125a1.75,1.75,0,0,0-3.5,0V82.5A1.75,1.75,0,0,0,68,84.25Z"/>
      <path d="M60,58.219H29.25a1.749,1.749,0,0,0-1.75,1.75V98.5a1.75,1.75,0,0,0,1.75,1.75H60a1.75,1.75,0,0,0,1.75-1.75V59.969A1.749,1.749,0,0,0,60,58.219ZM58.25,96.748H31V61.719H58.25Z"/>
      <path d="M111.406,116.376a1.749,1.749,0,0,0-1.75-1.75H18.344a1.75,1.75,0,1,0,0,3.5h91.312A1.75,1.75,0,0,0,111.406,116.376Z"/>
    </g>
  </g>
</svg>
