<svg xmlns="http://www.w3.org/2000/svg" width="128" height="128" viewBox="0 0 128 128">
  <title>WOOD CHOPPER</title>
  <g>
    <g>
      <circle cx="41.003" cy="104.465" r="20.625" fill="#57555c"/>
      <circle cx="41.003" cy="104.465" r="12.625" fill="#3c3a41"/>
      <path d="M122.25,99.039H101.23V89.031h21.02a4,4,0,0,1,4,4v2.008A4,4,0,0,1,122.25,99.039Z" fill="#e5e5e5"/>
      <polygon points="8.825 11.552 1.75 18.627 11.762 29.319 11.762 68.593 21.762 68.593 21.762 25.368 8.825 11.552" fill="#e5e5e5"/>
      <path d="M71.622,89.031a5,5,0,0,1-5-5V68.593H11.758V89.031l10.551,6.762a20.6,20.6,0,0,1,38.683,13.675H101.23V89.031Z" fill="#6e77e5"/>
      <path d="M71.622,89.031H101.23L91.222,68.593h-24.6V84.031A5,5,0,0,0,71.622,89.031Z" fill="#fedb41"/>
      <path d="M86.048,80.562H75.8a1.75,1.75,0,0,1,0-3.5h10.25a1.75,1.75,0,0,1,0,3.5Z" fill="#fea832"/>
      <polygon points="66.622 60.531 76.562 40.032 111.812 28.843 105.44 2.91 65.756 24.906 54.81 60.531 66.622 60.531" fill="#e5e5e5"/>
      <path d="M48.969,60.531H74.625a4,4,0,0,1,4,4v4.062a0,0,0,0,1,0,0H44.969a0,0,0,0,1,0,0V64.531A4,4,0,0,1,48.969,60.531Z" fill="#57555c"/>
    </g>
    <g>
      <path d="M41,90.09a14.375,14.375,0,1,0,14.375,14.375A14.392,14.392,0,0,0,41,90.09Zm0,25.25a10.875,10.875,0,1,1,10.875-10.875A10.887,10.887,0,0,1,41,115.34Z"/>
      <path d="M122.25,87.281H102.322L97.458,77.35a1.75,1.75,0,1,0-3.143,1.539l4.109,8.392h-26.8a3.254,3.254,0,0,1-3.25-3.25V70.343h22.85a1.75,1.75,0,0,0,0-3.5H80.375V64.531a5.757,5.757,0,0,0-5.75-5.75H69.416l8.393-17.308,34.533-10.962a1.75,1.75,0,0,0,1.17-2.085L107.139,2.492a1.749,1.749,0,0,0-2.547-1.113l-39.685,22a1.753,1.753,0,0,0-.825,1.017L53.517,58.781H48.969a5.756,5.756,0,0,0-5.75,5.75v2.312H23.512V62.625a1.75,1.75,0,0,0-3.5,0v4.218h-6.5V29.319a1.747,1.747,0,0,0-.473-1.2L4.185,18.667l4.6-4.6L20.012,26.059V36a1.75,1.75,0,0,0,3.5,0V25.368a1.751,1.751,0,0,0-.473-1.2L10.1,10.355a1.749,1.749,0,0,0-2.514-.04L.513,17.39a1.748,1.748,0,0,0-.04,2.433L10.012,30.01l0,59.021a1.748,1.748,0,0,0,.805,1.473l9.3,5.96a22.373,22.373,0,1,0,42.222,14.754h38.9a1.75,1.75,0,0,0,1.75-1.75v-8.679h19.27a5.757,5.757,0,0,0,5.75-5.75V93.031A5.757,5.757,0,0,0,122.25,87.281ZM67.221,26.094,104.287,5.55l5.435,22.121L76.033,38.364a1.748,1.748,0,0,0-1.045.905L65.526,58.781H57.178Zm-20.5,38.437a2.252,2.252,0,0,1,2.25-2.25H74.625a2.252,2.252,0,0,1,2.25,2.25v2.312H46.719ZM41,123.34a18.875,18.875,0,1,1,18.875-18.875A18.9,18.9,0,0,1,41,123.34ZM99.48,107.718H63.139a24.165,24.165,0,0,0,.239-3.253A22.366,22.366,0,0,0,21.636,93.283l-8.128-5.209V70.343H64.872V84.031a6.758,6.758,0,0,0,6.75,6.75H99.48v16.937ZM124.5,95.039a2.253,2.253,0,0,1-2.25,2.25H102.98V90.781h19.27a2.252,2.252,0,0,1,2.25,2.25Z"/>
      <path d="M21.762,45.25A1.75,1.75,0,0,0,20.012,47v4.625a1.75,1.75,0,0,0,3.5,0V47A1.751,1.751,0,0,0,21.762,45.25Z"/>
      <path d="M75.8,77.062a1.75,1.75,0,0,0,0,3.5h10.25a1.75,1.75,0,0,0,0-3.5Z"/>
    </g>
  </g>
</svg>
