<?xml version="1.0" encoding="utf-8"?>
<!-- Generator: Adobe Illustrator 24.0.0, SVG Export Plug-In . SVG Version: 6.00 Build 0)  -->
<svg version="1.1" xmlns="http://www.w3.org/2000/svg" xmlns:xlink="http://www.w3.org/1999/xlink" x="0px" y="0px"
	 viewBox="0 0 256 256" enable-background="new 0 0 256 256" xml:space="preserve">
<g id="Layer_1">
</g>
<g id="Layer_2">
</g>
<g id="Layer_3">
</g>
<g id="Layer_4">
</g>
<g id="Layer_5">
</g>
<g id="Layer_6">
</g>
<g id="Layer_7">
</g>
<g id="Layer_8">
</g>
<g id="Layer_9">
</g>
<g id="Layer_10">
	<g>
		<g>
			<g>
				<path fill="#EDF4FC" d="M247.968,195.962H8.032c-3.055,0-5.532,2.477-5.532,5.532c0,10.752,8.716,19.468,19.468,19.468h212.063
					c10.752,0,19.468-8.716,19.468-19.468C253.5,198.439,251.023,195.962,247.968,195.962z"/>
			</g>
		</g>
		<g>
			<g>
				<path fill="#C7D7E5" d="M83.931,195.962v5.974c0,3.174,2.573,5.748,5.748,5.748h76.641c3.175,0,5.748-2.574,5.748-5.748v-5.974
					H83.931z"/>
			</g>
		</g>
		<g>
			<g>
				<path fill="#5290DB" d="M220.345,36.238H35.655c-7.65,0-13.852,6.202-13.852,13.852v145.872h212.395V50.09
					C234.197,42.44,227.996,36.238,220.345,36.238z"/>
			</g>
		</g>
		<g>
			<g>
				<path fill="#70D6F9" d="M220.281,46.729H35.719c-1.892,0-3.426,1.534-3.426,3.426v145.807h191.413V50.155
					C223.707,48.263,222.173,46.729,220.281,46.729z"/>
			</g>
		</g>
		<g>
			<g>
				<circle fill="#EDF4FC" cx="128" cy="127.974" r="27.928"/>
			</g>
		</g>
		<g>
			<g>
				<g>
					<path fill="#F5C84C" d="M178.51,119.979h-10.218c-0.558,0-1.032-0.392-1.152-0.937c-1.023-4.62-2.843-8.941-5.308-12.81
						c-0.3-0.47-0.242-1.083,0.153-1.478l7.226-7.226c0.461-0.461,0.461-1.208,0-1.669l-9.32-9.32c-0.461-0.461-1.208-0.461-1.669,0
						l-7.226,7.226c-0.394,0.394-1.007,0.453-1.478,0.153c-3.869-2.466-8.19-4.285-12.81-5.308
						c-0.545-0.121-0.937-0.595-0.937-1.153V77.24c0-0.652-0.528-1.18-1.18-1.18h-13.18c-0.652,0-1.18,0.528-1.18,1.18v10.217
						c0,0.558-0.392,1.032-0.937,1.153c-4.62,1.023-8.941,2.842-12.81,5.308c-0.47,0.3-1.083,0.242-1.478-0.153l-7.226-7.226
						c-0.461-0.461-1.208-0.461-1.669,0l-9.32,9.32c-0.461,0.461-0.461,1.208,0,1.669l7.226,7.226
						c0.395,0.394,0.453,1.007,0.153,1.478c-2.466,3.869-4.285,8.19-5.308,12.81c-0.121,0.545-0.595,0.937-1.152,0.937H77.49
						c-0.652,0-1.18,0.528-1.18,1.18v13.18c0,0.652,0.528,1.18,1.18,1.18h10.218c0.558,0,1.032,0.392,1.152,0.937
						c1.023,4.62,2.843,8.941,5.308,12.81c0.3,0.47,0.242,1.083-0.153,1.478l-7.226,7.226c-0.461,0.461-0.461,1.208,0,1.669
						l9.32,9.32c0.461,0.461,1.208,0.461,1.669,0l7.226-7.226c0.394-0.394,1.007-0.453,1.478-0.153
						c3.869,2.466,8.19,4.285,12.81,5.308c0.545,0.121,0.937,0.595,0.937,1.152v10.217c0,0.652,0.528,1.18,1.18,1.18h13.18
						c0.652,0,1.18-0.528,1.18-1.18v-10.217c0-0.558,0.392-1.032,0.937-1.152c4.62-1.023,8.941-2.843,12.81-5.308
						c0.47-0.3,1.083-0.242,1.478,0.153l7.226,7.226c0.461,0.461,1.208,0.461,1.669,0l9.32-9.32c0.461-0.461,0.461-1.208,0-1.669
						l-7.226-7.226c-0.395-0.394-0.453-1.007-0.153-1.478c2.466-3.869,4.285-8.19,5.308-12.81c0.121-0.544,0.595-0.937,1.152-0.937
						h10.218c0.652,0,1.18-0.528,1.18-1.18v-13.18C179.69,120.507,179.161,119.979,178.51,119.979z M128,155.903
						c-15.424,0-27.928-12.504-27.928-27.928c0-15.424,12.504-27.928,27.928-27.928s27.928,12.504,27.928,27.928
						C155.928,143.399,143.424,155.903,128,155.903z"/>
				</g>
			</g>
		</g>
		<g>
			<g>
				<path fill="#F5C84C" d="M141.171,120.146c-2.005-2.004-5.255-2.004-7.26,0l-8.237,8.237l-4.129-4.129
					c-2.005-2.004-5.255-2.004-7.26,0c-2.005,2.005-2.005,5.255,0,7.26l7.759,7.759c1.003,1.002,2.316,1.503,3.63,1.503
					s2.627-0.501,3.63-1.503l11.867-11.867C143.176,125.401,143.176,122.151,141.171,120.146z"/>
			</g>
		</g>
		<g>
			<g>
				<path fill="#DAE6F1" d="M220.281,46.729H35.719c-1.892,0-3.426,1.534-3.426,3.426v10.736h191.413V50.155
					C223.707,48.263,222.173,46.729,220.281,46.729z"/>
			</g>
		</g>
		<g>
			<g>
				<path fill="#FC657E" d="M35.719,46.729c-1.892,0-3.426,1.534-3.426,3.426v10.736H52.75V46.729H35.719z"/>
			</g>
		</g>
		<g>
			<g>
				<path d="M220.346,33.738H35.654c-9.017,0-16.352,7.335-16.352,16.352v144.785c0,1.381,1.119,2.5,2.5,2.5s2.5-1.119,2.5-2.5
					V50.09c0-6.26,5.093-11.352,11.352-11.352h184.691c6.259,0,11.352,5.092,11.352,11.352v144.827c0,1.381,1.119,2.5,2.5,2.5
					s2.5-1.119,2.5-2.5V50.09C236.697,41.073,229.362,33.738,220.346,33.738z"/>
			</g>
		</g>
		<g>
			<g>
				<path d="M220.28,44.229H35.72c-3.268,0-5.927,2.659-5.927,5.926v144.762c0,1.381,1.119,2.5,2.5,2.5s2.5-1.119,2.5-2.5V50.155
					c0-0.511,0.416-0.926,0.927-0.926H220.28c0.511,0,0.927,0.416,0.927,0.926v144.763c0,1.381,1.119,2.5,2.5,2.5s2.5-1.119,2.5-2.5
					V50.155C226.207,46.887,223.548,44.229,220.28,44.229z"/>
			</g>
		</g>
		<g>
			<g>
				<path d="M52.75,45.214c-1.381,0-2.5,1.119-2.5,2.5v12.238c0,1.381,1.119,2.5,2.5,2.5s2.5-1.119,2.5-2.5V47.714
					C55.25,46.333,54.131,45.214,52.75,45.214z"/>
			</g>
		</g>
		<g>
			<g>
				<path d="M223,58.391H34c-1.381,0-2.5,1.119-2.5,2.5s1.119,2.5,2.5,2.5h189c1.381,0,2.5-1.119,2.5-2.5S224.381,58.391,223,58.391
					z"/>
			</g>
		</g>
		<g>
			<g>
				<g>
					<path d="M247.969,193.462H8.031c-4.429,0-8.031,3.603-8.031,8.032c0,12.113,9.855,21.968,21.969,21.968h212.063
						c12.113,0,21.969-9.855,21.969-21.968C256,197.065,252.397,193.462,247.969,193.462z M234.031,218.462H21.969
						C12.612,218.462,5,210.85,5,201.494c0-1.672,1.359-3.032,3.031-3.032h239.938c1.672,0,3.031,1.36,3.031,3.032
						C251,210.85,243.388,218.462,234.031,218.462z"/>
				</g>
			</g>
		</g>
		<g>
			<g>
				<path d="M172.068,194.438c-1.381,0-2.5,1.119-2.5,2.5v4.999c0,1.791-1.457,3.248-3.248,3.248H89.68
					c-1.791,0-3.248-1.457-3.248-3.248v-4.874c0-1.381-1.119-2.5-2.5-2.5s-2.5,1.119-2.5,2.5v4.874c0,4.548,3.7,8.248,8.248,8.248
					h76.641c4.548,0,8.248-3.7,8.248-8.248v-4.999C174.568,195.557,173.449,194.438,172.068,194.438z"/>
			</g>
		</g>
		<g>
			<g>
				<path fill="#F5C84C" d="M156.85,11.45c-4.5-0.8-8-4.3-8.9-8.7c0-0.2-0.4-0.2-0.4,0c-0.9,4.4-4.4,7.9-8.9,8.7
					c-0.2,0-0.2,0.3,0,0.4c4.5,0.8,8,4.3,8.9,8.7c0,0.2,0.4,0.2,0.4,0c0.9-4.4,4.4-7.9,8.9-8.7
					C157.05,11.75,157.05,11.45,156.85,11.45z"/>
			</g>
		</g>
		<g>
			<g>
				<path fill="#FC657E" d="M12.875,93.81c-3.157-0.561-5.613-3.017-6.245-6.104c0-0.14-0.281-0.14-0.281,0
					c-0.632,3.087-3.087,5.543-6.245,6.104c-0.14,0-0.14,0.21,0,0.281c3.157,0.561,5.613,3.017,6.245,6.104
					c0,0.14,0.281,0.14,0.281,0c0.631-3.087,3.087-5.543,6.245-6.104C13.016,94.02,13.016,93.81,12.875,93.81z"/>
			</g>
		</g>
		<g>
			<g>
				<path fill="#70D6F9" d="M72.7,235.7h-2.3v-2.3c0-1.7-1.4-3.2-3.2-3.2c-1.8,0-3.2,1.4-3.2,3.2v2.3h-2.3c-1.7,0-3.2,1.4-3.2,3.2
					c0,1.8,1.4,3.2,3.2,3.2H64v2.3c0,1.7,1.4,3.2,3.2,3.2c1.8,0,3.2-1.4,3.2-3.2v-2.3h2.3c1.7,0,3.2-1.4,3.2-3.2
					C75.9,237.1,74.5,235.7,72.7,235.7z"/>
			</g>
		</g>
		<g>
			<g>
				<path fill="#F5C84C" d="M95.8,246.6c-1.878,0-3.4,1.522-3.4,3.4c0,1.878,1.522,3.4,3.4,3.4c1.878,0,3.4-1.522,3.4-3.4
					C99.2,248.122,97.678,246.6,95.8,246.6z"/>
			</g>
		</g>
		<g>
			<g>
				<path fill="#FC657E" d="M245.8,168.6c-1.878,0-3.4,1.522-3.4,3.4s1.522,3.4,3.4,3.4c1.878,0,3.4-1.522,3.4-3.4
					S247.678,168.6,245.8,168.6z"/>
			</g>
		</g>
		<g>
			<g>
				<path fill="#87D147" d="M173.8,18.6c-1.878,0-3.4,1.522-3.4,3.4s1.522,3.4,3.4,3.4c1.878,0,3.4-1.522,3.4-3.4
					S175.678,18.6,173.8,18.6z"/>
			</g>
		</g>
		<g>
			<g>
				<g>
					<path d="M128,97.546c-16.778,0-30.429,13.65-30.429,30.428s13.65,30.428,30.429,30.428s30.429-13.65,30.429-30.428
						S144.778,97.546,128,97.546z M128,153.403c-14.021,0-25.429-11.407-25.429-25.428s11.407-25.428,25.429-25.428
						s25.429,11.407,25.429,25.428S142.021,153.403,128,153.403z M178.51,117.479h-9.169c-1.021-4.126-2.647-8.052-4.848-11.698
						l6.484-6.485c1.436-1.435,1.436-3.77,0-5.204l-9.319-9.32c-1.436-1.436-3.77-1.436-5.205,0l-6.484,6.484
						c-3.646-2.199-7.571-3.826-11.698-4.848V77.24c0-2.029-1.651-3.68-3.681-3.68h-13.18c-2.029,0-3.681,1.651-3.681,3.68v9.168
						c-4.127,1.021-8.054,2.648-11.698,4.848l-6.484-6.484c-1.436-1.436-3.77-1.436-5.205,0l-9.319,9.32
						c-1.436,1.435-1.436,3.77,0,5.204l6.484,6.485c-2.199,3.646-3.826,7.571-4.848,11.698H77.49c-2.029,0-3.68,1.651-3.68,3.68
						v13.18c0,2.029,1.65,3.68,3.68,3.68h9.169c1.021,4.126,2.648,8.053,4.848,11.698l-6.484,6.485c-1.436,1.435-1.436,3.77,0,5.205
						l9.319,9.32c1.436,1.436,3.77,1.436,5.205,0l6.484-6.484c3.646,2.199,7.572,3.827,11.698,4.847v9.169
						c0,2.029,1.651,3.68,3.681,3.68h13.18c2.029,0,3.681-1.651,3.681-3.68v-9.169c4.127-1.021,8.053-2.648,11.698-4.847
						l6.484,6.484c1.436,1.436,3.77,1.436,5.205,0l9.319-9.32c1.436-1.435,1.436-3.77,0-5.205l-6.484-6.485
						c2.199-3.645,3.826-7.57,4.848-11.698h9.169c2.029,0,3.68-1.651,3.68-3.68v-13.18
						C182.189,119.13,180.539,117.479,178.51,117.479z M177.189,133.02h-8.897c-1.739,0-3.217,1.192-3.593,2.896
						c-0.946,4.271-2.621,8.311-4.977,12.007c-0.938,1.474-0.735,3.361,0.494,4.588l6.292,6.293l-7.453,7.454l-6.293-6.293
						c-1.229-1.229-3.114-1.432-4.589-0.494c-3.696,2.356-7.736,4.03-12.008,4.976c-1.705,0.378-2.896,1.855-2.896,3.593v8.898
						h-10.541v-8.898c0-1.738-1.19-3.215-2.896-3.593c-4.271-0.946-8.311-2.62-12.008-4.976c-1.472-0.938-3.358-0.736-4.588,0.494
						l-6.293,6.293l-7.453-7.454l6.291-6.292c1.23-1.229,1.434-3.116,0.495-4.59c-2.355-3.696-4.03-7.736-4.976-12.005
						c-0.377-1.707-1.854-2.898-3.594-2.898h-8.897v-10.541h8.897c1.739,0,3.217-1.192,3.593-2.896
						c0.946-4.271,2.62-8.31,4.977-12.007c0.938-1.473,0.735-3.36-0.494-4.589l-6.292-6.293l7.453-7.454l6.293,6.293
						c1.229,1.229,3.115,1.432,4.589,0.494c3.696-2.356,7.736-4.03,12.008-4.976c1.705-0.378,2.896-1.855,2.896-3.593V78.56h10.541
						v8.897c0,1.738,1.19,3.215,2.896,3.593c4.271,0.946,8.312,2.62,12.009,4.976c1.471,0.938,3.359,0.735,4.588-0.494l6.293-6.293
						l7.453,7.454l-6.292,6.293c-1.229,1.229-1.433,3.117-0.494,4.588c2.356,3.698,4.03,7.737,4.976,12.006
						c0.377,1.707,1.854,2.898,3.594,2.898h8.897V133.02z"/>
				</g>
			</g>
		</g>
		<g>
			<g>
				<g>
					<g>
						<path d="M142.939,118.377c-2.979-2.975-7.819-2.975-10.796,0.001l-6.47,6.469l-2.361-2.361c-2.977-2.976-7.818-2.975-10.795,0
							c-2.977,2.976-2.977,7.819,0,10.795l7.76,7.76c1.442,1.441,3.358,2.235,5.396,2.235s3.955-0.793,5.398-2.236l11.868-11.867
							C145.915,126.197,145.915,121.355,142.939,118.377z M139.404,125.639l-11.866,11.866c-0.997,0.995-2.729,0.995-3.727,0.001
							l-7.759-7.759c-1.026-1.027-1.026-2.698,0-3.725c0.514-0.514,1.188-0.77,1.862-0.77s1.349,0.256,1.862,0.77l4.129,4.129
							c0.977,0.977,2.559,0.977,3.535,0l8.237-8.236c1.026-1.027,2.698-1.027,3.725,0
							C140.431,122.94,140.431,124.612,139.404,125.639z"/>
					</g>
				</g>
			</g>
		</g>
	</g>
</g>
<g id="Layer_11">
</g>
<g id="Layer_12">
</g>
<g id="Layer_13">
</g>
<g id="Layer_14">
</g>
<g id="Layer_15">
</g>
<g id="Layer_16">
</g>
<g id="Layer_17">
</g>
<g id="Layer_18">
</g>
<g id="Layer_19">
</g>
<g id="Layer_20">
</g>
<g id="Layer_21">
</g>
<g id="Layer_22">
</g>
<g id="Layer_23">
</g>
<g id="Layer_24">
</g>
<g id="Layer_25">
</g>
<g id="Layer_26">
</g>
<g id="Layer_27">
</g>
<g id="Layer_28">
</g>
<g id="Layer_29">
</g>
<g id="Layer_30">
</g>
<g id="Layer_31">
</g>
<g id="Layer_32">
</g>
<g id="Layer_33">
</g>
<g id="Layer_34">
</g>
<g id="Layer_35">
</g>
<g id="Layer_36">
</g>
<g id="Layer_37">
</g>
<g id="Layer_38">
</g>
<g id="Layer_39">
</g>
<g id="Layer_40">
</g>
<g id="Layer_41">
</g>
<g id="Layer_42">
</g>
<g id="Layer_43">
</g>
<g id="Layer_44">
</g>
<g id="Layer_45">
</g>
<g id="Layer_46">
</g>
<g id="Layer_47">
</g>
<g id="Layer_48">
</g>
<g id="Layer_49">
</g>
<g id="Layer_50">
</g>
<g id="Layer_51">
</g>
<g id="Layer_52">
</g>
<g id="Layer_53">
</g>
<g id="Layer_54">
</g>
<g id="Layer_55">
</g>
<g id="Layer_56">
</g>
<g id="Layer_57">
</g>
<g id="Layer_58">
</g>
<g id="Layer_59">
</g>
<g id="Layer_60">
</g>
<g id="Layer_61">
</g>
<g id="Layer_62">
</g>
<g id="Layer_63">
</g>
<g id="Layer_64">
</g>
<g id="Layer_65">
</g>
<g id="Layer_66">
</g>
<g id="Layer_67">
</g>
<g id="Layer_68">
</g>
<g id="Layer_69">
</g>
<g id="Layer_70">
</g>
<g id="Layer_71">
</g>
<g id="Layer_72">
</g>
<g id="Layer_73">
</g>
<g id="Layer_74">
</g>
<g id="Layer_75">
</g>
<g id="Layer_76">
</g>
<g id="Layer_77">
</g>
<g id="Layer_78">
</g>
<g id="Layer_79">
</g>
<g id="Layer_80">
</g>
<g id="Layer_81">
</g>
<g id="Layer_82">
</g>
<g id="Layer_83">
</g>
<g id="Layer_84">
</g>
<g id="Layer_85">
</g>
<g id="Layer_86">
</g>
<g id="Layer_87">
</g>
<g id="Layer_88">
</g>
<g id="Layer_89">
</g>
<g id="Layer_90">
</g>
</svg>
