<svg id="icons" xmlns="http://www.w3.org/2000/svg" viewBox="0 0 64 64"><defs><style>.cls-1{fill:none;stroke:#000;stroke-linecap:round;stroke-linejoin:round;}</style></defs><title>yam</title><g id="yam"><path class="cls-1" d="M57.85,29.83117a27.84514,27.84514,0,0,1-1.15,3.02,36.91548,36.91548,0,0,1-10.87,13.56h-.01a.2192.2192,0,0,1-.05.04,45.831,45.831,0,0,1-9.51,5.78,46.6728,46.6728,0,0,1-6.79,2.47c-8.81,2.44995-17.50995,2-24.28-.96a1.981,1.981,0,0,1-1.09-2.42,33.397,33.397,0,0,1,8.34-13.29,43.49322,43.49322,0,0,1,4.64-4.04,47.13887,47.13887,0,0,1,8.6-5.07,43.94239,43.94239,0,0,1,18.13-4.05,34.58347,34.58347,0,0,1,8.4,1,28.96277,28.96277,0,0,1,4.55,1.54A1.99091,1.99091,0,0,1,57.85,29.83117Z"/><line class="cls-1" x1="12.44308" y1="38.02868" x2="15.52575" y2="43.59594"/><line class="cls-1" x1="29.46508" y1="54.70335" x2="25.90903" y2="48.24613"/><line class="cls-1" x1="45.77435" y1="46.45057" x2="42.66243" y2="40.81231"/><line class="cls-1" x1="25.68477" y1="28.92484" x2="28.77558" y2="35.18739"/><line class="cls-1" x1="43.80905" y1="24.86761" x2="46.7393" y2="30.47351"/><line class="cls-1" x1="38.77666" y1="33.14896" x2="40.30549" y2="35.88811"/><line class="cls-1" x1="47.18521" y1="34.51853" x2="49.41475" y2="37.67174"/><line class="cls-1" x1="23.29728" y1="41.68491" x2="24.4439" y2="44.16925"/><line class="cls-1" x1="32.08804" y1="42.92708" x2="33.74427" y2="45.69808"/><line class="cls-1" x1="17.56418" y1="47.41801" x2="19.02931" y2="50.15716"/><path class="cls-1" d="M58.59,44.40118a31.67892,31.67892,0,0,1-12.76,2.01,36.91548,36.91548,0,0,0,10.87-13.56,37.12142,37.12142,0,0,1,3.24,8.83A2.34769,2.34769,0,0,1,58.59,44.40118Z"/><path class="cls-1" d="M52.21,25.87121a34.58347,34.58347,0,0,0-8.4-1,43.94239,43.94239,0,0,0-18.13,4.05,47.13887,47.13887,0,0,0-8.6,5.07q-.675-.615-1.32-1.26a41.93,41.93,0,0,1-11.7-20.27,2.34646,2.34646,0,0,1,1.35-2.71,32.19886,32.19886,0,0,1,14.02-1.94,44.29554,44.29554,0,0,1,19.07,6.15A48.91474,48.91474,0,0,1,52.21,25.87121Z"/><line class="cls-1" x1="15.75974" y1="32.731" x2="19.4949" y2="26.42752"/><line class="cls-1" x1="38.49956" y1="13.96154" x2="34.74153" y2="20.99189"/><line class="cls-1" x1="19.42991" y1="7.81475" x2="15.89121" y2="14.09501"/><line class="cls-1" x1="24.20422" y1="17.83282" x2="22.37145" y2="20.89379"/><line class="cls-1" x1="15.12047" y1="18.75861" x2="12.5089" y2="22.24515"/></g></svg>